<svg xmlns="http://www.w3.org/2000/svg" width="50" height="50" fill="none"><path fill="#282928" fill-rule="evenodd" d="m15.376 25.505 7.194-5.602a.78.78 0 0 1 .72-.127l6.737 2.184 5.353-5.4-.216.02a.78.78 0 1 1-.137-1.557l2.342-.205a.78.78 0 0 1 .845.865l-.262 2.336a.781.781 0 1 1-1.552-.174l.011-.105-5.613 5.661a.78.78 0 0 1-.795.193l-6.8-2.204-6.867 5.348a.78.78 0 0 1-1.097-.137.78.78 0 0 1 .137-1.096m4.941-10.955a.781.781 0 0 0 0-1.562h-1.125a.781.781 0 1 0 0 1.562zm3.04 0h10.527a.781.781 0 0 0 0-1.562H23.358a.781.781 0 1 0 0 1.562m-4.165-3.522h1.125a.781.781 0 0 0 0-1.562h-1.125a.781.781 0 0 0 0 1.562m4.166 0h10.526a.781.781 0 0 0 0-1.562H23.358a.781.781 0 0 0 0 1.562m-4.166-3.521h1.125a.781.781 0 0 0 0-1.563h-1.125a.781.781 0 1 0 0 1.563m4.166 0h10.526a.781.781 0 0 0 0-1.563H23.358a.781.781 0 1 0 0 1.563M43.33 37.34v5.034c0 .89-.723 1.613-1.612 1.613H32.54l-2.043 1.258a5.45 5.45 0 0 1-2.884.829q-.752 0-1.52-.205l-7.024-1.882h-2.82l-.11.062.523.923a1.82 1.82 0 0 1-.687 2.476l-1.974 1.118a1.8 1.8 0 0 1-1.38.168 1.8 1.8 0 0 1-1.097-.855L5.72 37.622a1.82 1.82 0 0 1 .686-2.477l1.975-1.117a1.8 1.8 0 0 1 1.58-.1V7.479c0-.437.164-.83.473-1.14L15.1 1.671a1.58 1.58 0 0 1 1.14-.472H41.72c.889 0 1.612.723 1.612 1.613V32.56c.402.282.643.613.766.817.786 1.313.418 3.179-.766 3.963M41.72 2.762H16.677v3.956c0 .66-.536 1.197-1.196 1.197h-3.957v27.389l1.613-.934v-4.235c0-.431.35-.781.781-.781h3.875c.431 0 .781.35.781.781v1.386c.56-.15 1.146-.22 1.757-.16v-6.023c0-.431.35-.781.781-.781h3.875c.431 0 .78.35.78.781v7.764c.573.173 1.162.335 1.758.471v-6.62c0-.431.35-.781.781-.781h3.875c.431 0 .78.35.78.781v9.194l1.758-1.024V20.256c0-.431.35-.781.781-.781h3.874c.432 0 .782.35.782.781V32.25c.621-.179 1.156-.235 1.613-.21V2.813a.05.05 0 0 0-.05-.05m-3.126 18.275h-2.312v13.176l1.73-1.008q.3-.174.582-.319zm-8.152 16.127a3 3 0 0 1-.162.46q.353-.12.695-.32l.425-.247v-9.323h-2.311v6.301c1.1.63 1.681 1.903 1.353 3.13M24.205 26.12h-2.311v5.647q.441.156.926.332c.435.157.9.325 1.385.493zm-7.193 4.797H14.7v2.55l1.672-.969q.31-.181.64-.35zM12.629 6.353h2.486V3.867zm2.674 39.388L9.498 35.484a.26.26 0 0 0-.225-.128.25.25 0 0 0-.123.032l-1.974 1.117a.26.26 0 0 0-.096.348l5.805 10.257a.25.25 0 0 0 .154.119c.038.01.114.022.193-.023l1.975-1.117a.26.26 0 0 0 .096-.348m27.147-9.69c.507-.312.664-1.274.306-1.872-.528-.882-2.045-.738-3.958.376l-7.037 4.1c-1.113.647-2.308.857-3.654.642l-.876-.142-.03-.006c-1.1-.225-2.117-.515-3.194-.823-.489-.14-.994-.284-1.508-.421a.781.781 0 1 1 .404-1.51c.527.141 1.039.287 1.533.429 1.036.296 2.015.575 3.043.787.788.09 1.277-.196 1.452-.85.165-.617-.198-1.243-.848-1.476-2.119-.389-4.155-1.125-5.794-1.718-.57-.205-1.06-.383-1.486-.521-1.273-.413-2.506.142-3.648.803l-5.112 2.96 3.328 5.88 1.271-.733a.78.78 0 0 1 .593-.078L26.5 44.36c1.136.304 2.206.154 3.18-.446zm-.681 6.323v-4.07l-6.69 4.12h6.64c.026 0 .05-.023.05-.05M8.847 36.637a.705.705 0 1 0 .204 1.395.705.705 0 0 0-.204-1.395" clip-rule="evenodd"/></svg>