<svg xmlns="http://www.w3.org/2000/svg" width="50" height="50" fill="none"><path fill="#282928" d="M9.372 20.053a2.87 2.87 0 0 0-2.864 2.864v5.208c0 1.003 1.562 1.018 1.562 0v-1.301h2.605v1.302c0 1.014 1.562 1.01 1.562 0v-5.209a2.87 2.87 0 0 0-2.865-2.864M8.07 25.26v-2.344a1.303 1.303 0 0 1 2.605 0v2.344zM19.53 22.917a2.867 2.867 0 0 0-2.865-2.864h-2.083a.78.78 0 0 0-.781.781v7.291c0 1.014 1.562 1.012 1.562 0v-2.343h1.302a2.867 2.867 0 0 0 2.865-2.865m-2.865 1.302h-1.302v-2.604h1.302a1.303 1.303 0 0 1 0 2.604M21.875 20.078c-.39-.003-.781.246-.781.756v7.291c0 1.004 1.562 1.013 1.562 0v-7.29c0-.499-.39-.754-.781-.757"/><path fill="#282928" d="M45.832 5.469H4.165a2.867 2.867 0 0 0-2.864 2.864v33.334a2.867 2.867 0 0 0 2.864 2.864h41.667a2.867 2.867 0 0 0 2.865-2.864V8.333a2.87 2.87 0 0 0-2.865-2.864M4.165 7.03h41.667c.718 0 1.302.584 1.302 1.302v5.47H2.864v-5.47c0-.718.583-1.302 1.301-1.302M45.832 42.97H4.165a1.303 1.303 0 0 1-1.302-1.302V15.365h44.271v26.302c0 .718-.584 1.302-1.302 1.302"/><path fill="#282928" d="M42.27 28.26c.87-.503 1.17-1.62.667-2.49l-1.34-2.32c-.491-.843-1.645-1.155-2.49-.667-.684.395-1.57-.121-1.57-.907a1.825 1.825 0 0 0-1.824-1.823h-2.68a1.825 1.825 0 0 0-1.822 1.822c0 .793-.886 1.303-1.57.908a1.844 1.844 0 0 0-2.491.667l-1.34 2.32a1.825 1.825 0 0 0 .668 2.49c.688.398.685 1.419 0 1.815a1.825 1.825 0 0 0-.668 2.49l1.34 2.32c.495.856 1.635 1.163 2.49.667.687-.399 1.57.12 1.57.907 0 1.005.819 1.823 1.824 1.823h2.68a1.825 1.825 0 0 0 1.822-1.823c0-.794.883-1.304 1.57-.907.86.495 1.999.193 2.491-.668l1.34-2.32a1.825 1.825 0 0 0-.667-2.49c-.69-.398-.688-1.417 0-1.814m-.782 3.168a.26.26 0 0 1 .096.356l-1.34 2.319a.26.26 0 0 1-.356.096c-1.711-.989-3.914.297-3.914 2.26a.26.26 0 0 1-.26.26h-2.68a.26.26 0 0 1-.26-.26c0-1.969-2.205-3.25-3.915-2.26a.26.26 0 0 1-.356-.096l-1.34-2.32a.26.26 0 0 1 .096-.355c1.704-.992 1.71-3.534 0-4.521a.26.26 0 0 1-.096-.356l1.34-2.32a.26.26 0 0 1 .356-.095c1.713.991 3.914-.292 3.914-2.26 0-.144.117-.26.26-.26h2.68a.26.26 0 0 1 .26.26c0 1.972 2.204 3.249 3.915 2.26a.26.26 0 0 1 .356.096l1.34 2.319a.26.26 0 0 1-.096.356c-1.696.988-1.695 3.542 0 4.52"/><path fill="#282928" d="M34.375 25.26a3.91 3.91 0 0 0-3.906 3.906 3.91 3.91 0 0 0 3.906 3.906 3.91 3.91 0 0 0 3.906-3.906 3.91 3.91 0 0 0-3.906-3.906m0 6.25a2.347 2.347 0 0 1-2.344-2.344 2.347 2.347 0 0 1 2.344-2.344 2.347 2.347 0 0 1 2.344 2.344 2.347 2.347 0 0 1-2.344 2.344M33.332 11.197H43.75c.999 0 1.02-1.562 0-1.562H33.333c-.997 0-1.016 1.562 0 1.562M6.25 11.197a.781.781 0 1 0 0-1.562.781.781 0 0 0 0 1.562M9.375 11.197a.781.781 0 1 0 0-1.562.781.781 0 0 0 0 1.562M12.5 11.197a.781.781 0 1 0 0-1.562.781.781 0 0 0 0 1.562M10.966 36.947l-2.572-2.572 2.573-2.573c.687-.688-.4-1.81-1.105-1.105l-3.125 3.125a.78.78 0 0 0 0 1.105l3.125 3.125c.691.691 1.841-.368 1.104-1.105M19.302 30.699c-.692-.693-1.819.39-1.105 1.104l2.573 2.573-2.573 2.573c-.695.695.4 1.81 1.105 1.104l3.125-3.125a.78.78 0 0 0 0-1.104zM15.853 30.557c-.369-.131-.814-.032-.972.445l-2.083 6.25c-.317.95 1.162 1.46 1.482.495l2.083-6.25c.15-.447-.142-.809-.51-.94"/></svg>