<svg xmlns="http://www.w3.org/2000/svg" width="50" height="50" fill="none"><g fill="#282928" clip-path="url(#a)"><path d="M38.312 8.29q.032.003.066.003a1 1 0 0 0 .111-.008 1.81 1.81 0 0 1 1.774 1.808.81.81 0 0 0 1.62 0 3.435 3.435 0 0 0-2.695-3.35v-.779a.81.81 0 0 0-1.62 0v.816a3.43 3.43 0 0 0 .885 6.743 1.81 1.81 0 1 1-1.81 1.81.81.81 0 0 0-1.62 0 3.435 3.435 0 0 0 2.544 3.313v.887a.81.81 0 0 0 1.62 0v-.85a3.43 3.43 0 0 0-.734-6.78 1.81 1.81 0 0 1-.141-3.612"/><path d="M38.5 1.193c-4.984 0-9.237 3.252-10.83 7.606H7.564c-.445 0-.807.402-.81.847l-.191 28.417H.83c-.447 0-.831.324-.831.773v3.606a6.363 6.363 0 0 0 6.076 6.337v.018h25.01v-.024c.203.008.287.024.415.024h.017a6.363 6.363 0 0 0 6.353-6.363V24.201c.203.011.417.017.627.017 6.341 0 11.502-5.17 11.502-11.513 0-6.341-5.158-11.512-11.5-11.512M6.384 47.177h-.005a4.765 4.765 0 0 1-4.759-4.744v-2.75h23.492v2.739a6.36 6.36 0 0 0 1.876 4.503c.085.085.19.15.28.252zm29.867-4.744a4.743 4.743 0 0 1-4.733 4.744h-.016a4.78 4.78 0 0 1-4.77-4.754v-3.587a.75.75 0 0 0-.773-.773H8.183l.186-27.644H27.22a12 12 0 0 0-.222 2.25 11.4 11.4 0 0 0 .978 4.636h-7.651a.81.81 0 1 0 0 1.62h8.53a11.43 11.43 0 0 0 7.396 5.073zM38.5 22.598c-5.457 0-9.881-4.424-9.881-9.88 0-5.458 4.424-9.882 9.881-9.882s9.88 4.424 9.88 9.881c-.005 5.455-4.425 9.875-9.88 9.881"/><path d="M15.124 22.695c-1.43 0-2.593 1.126-2.593 2.51 0 1.385 1.163 2.511 2.593 2.511s2.593-1.126 2.593-2.51c0-1.385-1.163-2.51-2.593-2.51m0 3.401c-.537 0-.973-.4-.973-.89 0-.491.437-.89.973-.89s.973.399.973.89c0 .49-.437.89-.973.89M19.516 25.203c0 .447.362.81.81.81h10.8a.81.81 0 0 0 0-1.62h-10.8a.81.81 0 0 0-.81.81M15.124 15.654c-1.43 0-2.593 1.127-2.593 2.511s1.163 2.51 2.593 2.51 2.593-1.125 2.593-2.51-1.163-2.51-2.593-2.51m0 3.402c-.537 0-.973-.4-.973-.89 0-.492.437-.892.973-.892s.973.4.973.891-.437.891-.973.891M15.124 29.736c-1.43 0-2.593 1.126-2.593 2.51 0 1.385 1.163 2.511 2.593 2.511s2.593-1.126 2.593-2.51c0-1.385-1.163-2.51-2.593-2.51m0 3.401c-.537 0-.973-.399-.973-.89s.437-.89.973-.89.973.399.973.89c0 .49-.437.89-.973.89M31.126 31.48h-10.8a.81.81 0 1 0 0 1.62h10.8a.81.81 0 0 0 0-1.62"/></g><defs><clipPath id="a"><path fill="#fff" d="M0 0h50v50H0z"/></clipPath></defs></svg>