<svg xmlns="http://www.w3.org/2000/svg" width="50" height="50" fill="none"><g fill="#282928" clip-path="url(#a)"><path d="M31.701 16.281a.78.78 0 0 1 0-1.312.78.78 0 0 0 .313-.781 7.1 7.1 0 0 0-1.032-2.47.78.78 0 0 0-.78-.335.78.78 0 0 1-.93-.93.78.78 0 0 0-.336-.781 7.1 7.1 0 0 0-2.485-1.078.78.78 0 0 0-.781.312.827.827 0 0 1-1.312 0 .78.78 0 0 0-.782-.312 7.1 7.1 0 0 0-2.484 1.047.78.78 0 0 0-.336.781.783.783 0 0 1-.93.93.78.78 0 0 0-.781.336 7.1 7.1 0 0 0-1.078 2.484.78.78 0 0 0 .312.781.78.78 0 0 1 0 1.313.78.78 0 0 0-.312.781c.188.887.543 1.73 1.047 2.484a.78.78 0 0 0 .781.336.78.78 0 0 1 .93.93.78.78 0 0 0 .336.781 7.1 7.1 0 0 0 2.484 1.078.78.78 0 0 0 .781-.312.827.827 0 0 1 1.313 0 .78.78 0 0 0 .633.328h.164a7.1 7.1 0 0 0 2.468-1.062.78.78 0 0 0 .336-.782.78.78 0 0 1 .93-.93.78.78 0 0 0 .781-.335 7.1 7.1 0 0 0 1.078-2.485.78.78 0 0 0-.328-.797m-1.32.907q-.177.609-.484 1.164a2.34 2.34 0 0 0-2.188 2.187q-.555.308-1.164.485a2.343 2.343 0 0 0-3.125 0 5.6 5.6 0 0 1-1.164-.485 2.344 2.344 0 0 0-2.187-2.187 5.6 5.6 0 0 1-.454-1.164 2.344 2.344 0 0 0 0-3.125c.118-.405.28-.796.485-1.164a2.344 2.344 0 0 0 2.187-2.188q.549-.298 1.149-.469a2.43 2.43 0 0 0 3.125 0q.609.177 1.164.485a2.344 2.344 0 0 0 2.187 2.187q.297.549.469 1.149a2.343 2.343 0 0 0 0 3.125"/><path d="M25 12.5a3.125 3.125 0 1 0 0 6.25 3.125 3.125 0 0 0 0-6.25m0 4.688a1.563 1.563 0 1 1 0-3.126 1.563 1.563 0 0 1 0 3.126M21.094 3.906a7.03 7.03 0 0 0-7.032 7.031h1.563a5.47 5.47 0 0 1 5.469-5.468z"/><path d="M48.742 37.562 43.75 35.42v-4.172a.78.78 0 0 0-.781-.781H27.203a2.34 2.34 0 0 0-1.422-1.422v-1.703H36.72a8.593 8.593 0 0 0 2.062-16.93 7.81 7.81 0 0 0-7.531-5.726c-.665 0-1.326.087-1.969.257a10.156 10.156 0 0 0-18.343 5.532 8.593 8.593 0 0 0 2.343 16.867H24.22v1.703a2.34 2.34 0 0 0-1.422 1.422H7.03a.78.78 0 0 0-.781.781v4.172l-4.992 2.14a.78.78 0 0 0-.477.72v7.03a.78.78 0 0 0 .39.68l5.47 3.125a.78.78 0 0 0 .78 0l5.47-3.125a.78.78 0 0 0 .39-.68v-7.03a.78.78 0 0 0-.476-.72l-4.992-2.14v-3.39h14.984a2.34 2.34 0 0 0 1.422 1.421v1.969l-4.992 2.14a.78.78 0 0 0-.477.72v7.03a.78.78 0 0 0 .39.68l5.47 3.125a.78.78 0 0 0 .78 0l5.47-3.125a.78.78 0 0 0 .39-.68v-7.03a.78.78 0 0 0-.477-.72l-4.992-2.14v-1.969a2.34 2.34 0 0 0 1.422-1.422h14.985v3.391l-4.993 2.14a.78.78 0 0 0-.476.72v7.03a.78.78 0 0 0 .39.68l5.47 3.125a.78.78 0 0 0 .78 0l5.47-3.125a.78.78 0 0 0 .39-.68v-7.03a.78.78 0 0 0-.477-.72M6.25 47.092 2.344 44.86v-5.391L6.25 41.14zm5.469-2.233-3.906 2.234V41.14l3.906-1.672zm-1.203-6.579L7.03 39.772 3.547 38.28l3.484-1.492zm2.765-12.5a7.031 7.031 0 0 1-1.398-13.922.78.78 0 0 0 .625-.78l-.008-.141a8.594 8.594 0 0 1 15.813-4.688.78.78 0 0 0 .906.313 6.25 6.25 0 0 1 8.148 4.632.78.78 0 0 0 .625.618A7.031 7.031 0 0 1 36.72 25.78zM24.22 47.093l-3.907-2.235v-5.39l3.907 1.672zm5.468-2.235-3.906 2.235V41.14l3.907-1.672zm-1.203-6.578L25 39.772l-3.484-1.492L25 36.788zM25 32.03a.781.781 0 1 1 0-1.562.781.781 0 0 1 0 1.562m17.188 15.063-3.907-2.235v-5.39l3.907 1.672zm.78-7.32-3.484-1.493 3.485-1.492 3.484 1.492zm4.688 5.085-3.906 2.235V41.14l3.906-1.672z"/></g><defs><clipPath id="a"><path fill="#fff" d="M0 0h50v50H0z"/></clipPath></defs></svg>