<svg xmlns="http://www.w3.org/2000/svg" width="50" height="50" fill="none"><path fill="#282928" d="M12.797 23.891a.8.8 0 1 1-1.6-.074.8.8 0 0 1 1.6.074M45.88 36.28c-.211.48-.596.848-1.082 1.036l-2.404.932a1.962 1.962 0 0 1-2.534-1.118l-.17-.44-1.78.743a2.61 2.61 0 0 1-1.858 2.87 2.6 2.6 0 0 1-.219 1.984 2.63 2.63 0 0 1-2.528 1.352 2.614 2.614 0 0 1-1.9 2.558c-.382.11-.774.133-1.152.07-.008.411-.112.825-.323 1.208a2.66 2.66 0 0 1-2.314 1.369 2.54 2.54 0 0 1-1.27-.34l-.58-.333a2.703 2.703 0 0 1-2.137 1.05 2.677 2.677 0 0 1-2.458-1.62 2.69 2.69 0 0 1-2.22-.14 2.68 2.68 0 0 1-1.117-1.135 2.68 2.68 0 0 1-3.85-2.693 2.67 2.67 0 0 1-2.502-1.904 2.67 2.67 0 0 1 .2-2.044l.623-1.166c-.135-.34-.205-.705-.271-1.061-.114-.612-.207-1.02-.45-1.114a38 38 0 0 1-1.306-.568l-.217.491a1.96 1.96 0 0 1-2.583 1L5.12 36.224a1.95 1.95 0 0 1-1.033-1.085 1.95 1.95 0 0 1 .034-1.498l5.412-12.247c.211-.477.597-.844 1.085-1.033a1.95 1.95 0 0 1 1.498.034l2.358 1.042a1.96 1.96 0 0 1 1 2.582l-.364.824 1.44.664.055.029c.808.454 1.67.252 2.763-.004 1.462-.343 3.258-.763 5.36.447 2.903-1.768 5.133-.859 6.781-.185 1.191.487 1.9.745 2.591.385l1.255-.672-.334-.863a1.96 1.96 0 0 1 1.117-2.533l2.404-.932a1.95 1.95 0 0 1 1.498.035c.48.212.847.596 1.036 1.083l4.84 12.484a1.94 1.94 0 0 1-.036 1.498m-37.248-.644 5.413-12.247a.4.4 0 0 0 .005-.303.4.4 0 0 0-.207-.22l-2.358-1.041a.38.38 0 0 0-.302-.006.4.4 0 0 0-.22.208L5.55 34.273a.4.4 0 0 0-.006.302.4.4 0 0 0 .208.22l2.358 1.042a.4.4 0 0 0 .522-.202m6.091 6.21 1.53-2.647a1.122 1.122 0 0 0-2.02-.972L13.06 40.42c-.14.263-.169.566-.082.854s.28.525.543.665c.385.206.856.166 1.203-.094m2.923 2.595 1.698-3.29a1.135 1.135 0 0 0-.571-1.194 1.13 1.13 0 0 0-1.211.1l-1.898 3.333c-.14.262-.17.566-.083.854s.28.524.543.664a1.13 1.13 0 0 0 1.522-.467m3.456 1.34 1.502-2.887a1.135 1.135 0 0 0-.572-1.194 1.14 1.14 0 0 0-1.305.18l-1.63 3.155c-.02.431.207.843.59 1.048a1.125 1.125 0 0 0 1.415-.303m3.524 1.285 1.125-2.104a1.13 1.13 0 0 0-.09-1.199 1.1 1.1 0 0 0-.37-.32 1.14 1.14 0 0 0-1.305.18L22.52 46.44c-.035.44.196.876.587 1.085a1.123 1.123 0 0 0 1.519-.46m3.512-1.8-.727-.424a2.7 2.7 0 0 1-.282.857l-.595 1.111.59.34c.234.133.511.166.78.09.28-.078.519-.267.657-.518a1.08 1.08 0 0 0-.423-1.456m-1.672-5.204a.781.781 0 1 1 .766-1.362l5.784 3.255a1.07 1.07 0 0 0 1.448-.421 1.08 1.08 0 0 0-.427-1.453c-1.356-.76-2.892-1.62-4.404-2.485a.781.781 0 0 1 .776-1.356c1.506.862 3.04 1.721 4.393 2.479.242.135.525.167.797.089.28-.08.509-.262.647-.513.166-.302.173-.657.019-.974a1.1 1.1 0 0 0-.45-.48l-6.392-3.644c-1.041-.593-2.375-.053-3.92.572-2.354.953-5.282 2.139-7.803-1.105a1 1 0 0 1-.193-.803.99.99 0 0 1 .478-.677c1.795-1.048 3.31-2.19 4.504-3.396q.405-.41.817-.764c-1.288-.506-2.409-.245-3.581.03-1.244.292-2.529.593-3.857-.14l-1.39-.64-3.569 8.073c.83.37 1.137.5 1.241.54.877.34 1.17 1.124 1.329 1.83a2.682 2.682 0 0 1 4.386 1.574 2.68 2.68 0 0 1 2.926 1.81 2.68 2.68 0 0 1 1.977.22 2.67 2.67 0 0 1 1.283 1.522 2.68 2.68 0 0 1 2.772.87l3.346 1.895c.245.136.53.167.803.088.278-.08.506-.261.643-.51a1.08 1.08 0 0 0-.427-1.453m7.937-7.5-3.2-8.257-1.095.586c-1.377.716-2.665.189-3.912-.32-1.63-.667-3.317-1.357-5.74.305-.52.356-1.05.806-1.578 1.34-1.158 1.17-2.585 2.278-4.248 3.3 1.679 1.707 3.491.973 5.565.134 1.76-.713 3.58-1.45 5.28-.481l6.392 3.643c.25.142.473.322.662.532zm5.334.114-4.84-12.484a.39.39 0 0 0-.372-.252.4.4 0 0 0-.14.026l-2.403.931a.4.4 0 0 0-.226.513l4.84 12.484c.077.2.311.303.512.226l2.403-.932a.4.4 0 0 0 .218-.21.4.4 0 0 0 .008-.302M38.502 23.84a.8.8 0 1 0 0 1.601.8.8 0 0 0 0-1.601m.993-5.07a.78.78 0 0 1-.777.864h-7.477q.022.14.037.28a.78.78 0 0 1-.777.864h-11a.78.78 0 0 1-.777-.865q.016-.14.037-.279h-7.477a.78.78 0 0 1-.777-.864 5.43 5.43 0 0 1 3.082-4.338 3.13 3.13 0 0 1-.808-2.099 3.143 3.143 0 0 1 3.14-3.14c1.73 0 3.139 1.41 3.139 3.14 0 .81-.308 1.548-.813 2.105a5.5 5.5 0 0 1 2.153 1.824 6.3 6.3 0 0 1 2.08-1.462 3.57 3.57 0 0 1-1.057-2.537A3.58 3.58 0 0 1 25 8.684a3.58 3.58 0 0 1 3.578 3.579c0 .99-.405 1.888-1.058 2.537.79.343 1.498.842 2.082 1.462a5.5 5.5 0 0 1 2.152-1.824 3.13 3.13 0 0 1-.813-2.105 3.143 3.143 0 0 1 3.14-3.14 3.143 3.143 0 0 1 3.139 3.14c0 .807-.306 1.543-.807 2.1a5.43 5.43 0 0 1 3.081 4.337m-5.414-4.86c.87 0 1.577-.707 1.577-1.577s-.707-1.577-1.577-1.577c-.869 0-1.576.708-1.576 1.577 0 .87.707 1.577 1.576 1.577m-9.08.368a2.02 2.02 0 0 0 2.016-2.015A2.02 2.02 0 0 0 25 10.247a2.02 2.02 0 0 0-2.016 2.016c0 1.111.905 2.015 2.016 2.015m-9.08-.368c.87 0 1.576-.707 1.576-1.577s-.707-1.577-1.576-1.577-1.577.708-1.577 1.577c0 .87.707 1.577 1.577 1.577m3.289 4.162q.092-.215.2-.42a3.91 3.91 0 0 0-3.49-2.18 3.87 3.87 0 0 0-3.666 2.6zm10.34 1.143a4.74 4.74 0 0 0-4.549-3.374 4.74 4.74 0 0 0-4.55 3.374zm8.198-1.143a3.875 3.875 0 0 0-3.667-2.6 3.91 3.91 0 0 0-3.488 2.18q.107.205.2.42zm6.281 3.3a.781.781 0 0 0 1.563 0c0-3.641-.964-7.22-2.788-10.35a.781.781 0 1 0-1.35.787 19 19 0 0 1 2.575 9.563m-38.838.781c.432 0 .782-.35.782-.78 0-4.176 1.353-8.041 3.642-11.183l.056 1.562a.781.781 0 0 0 1.562-.056l-.12-3.317c3.475-3.712 8.415-6.035 13.888-6.035 4.028 0 7.956 1.285 11.194 3.642l-1.574.056a.781.781 0 0 0 .056 1.562l3.653-.132a.782.782 0 0 0 .723-.995L38.05 2.963a.781.781 0 0 0-1.502.429l.331 1.163A20.6 20.6 0 0 0 25.001.78c-5.954 0-11.324 2.541-15.087 6.594l-3.322.948a.781.781 0 0 0 .429 1.502l1.172-.334A20.48 20.48 0 0 0 4.41 21.372c0 .432.35.781.781.781"/></svg>