<svg xmlns="http://www.w3.org/2000/svg" width="60" height="60" fill="none"><path fill="#282928" d="M4.496 53.17v-9.153h19.61c.328-.005.64-.142.87-.38.23-.24.36-.562.36-.898-.001-.335-.13-.657-.36-.896a1.23 1.23 0 0 0-.872-.38H4.496V31.252h23.422c.328-.002.642-.136.873-.373.232-.237.364-.558.366-.893a1.3 1.3 0 0 0-.35-.899 1.24 1.24 0 0 0-.867-.388H4.496V18.485h37.27v3.8c.01.331.146.646.38.877.232.231.544.36.868.36.325 0 .636-.129.87-.36a1.3 1.3 0 0 0 .378-.878V6.83c0-1.016-.395-1.99-1.097-2.707A3.7 3.7 0 0 0 40.519 3H5.743c-.992 0-1.945.403-2.647 1.122A3.88 3.88 0 0 0 2 6.83v46.34c0 1.016.395 1.99 1.097 2.707A3.7 3.7 0 0 0 5.743 57h23.52c.332 0 .65-.135.883-.374.234-.24.366-.564.366-.903 0-.338-.132-.663-.366-.902a1.23 1.23 0 0 0-.882-.374H5.744c-.332 0-.649-.135-.883-.374a1.3 1.3 0 0 1-.365-.903m0-46.34a1.3 1.3 0 0 1 .364-.904 1.24 1.24 0 0 1 .883-.373H40.52a1.22 1.22 0 0 1 .883.373 1.27 1.27 0 0 1 .364.904v9.102H4.496zm17.508 5.269H9.526a1.24 1.24 0 0 1-.867-.383 1.3 1.3 0 0 1-.357-.893c0-.335.129-.656.357-.895.23-.238.54-.376.867-.382h12.478c.326.007.637.144.866.383a1.293 1.293 0 0 1 0 1.788c-.229.238-.54.375-.866.382m7.992.78a1.97 1.97 0 0 1-1.392-.607 2.07 2.07 0 0 1-.574-1.433c0-.536.207-1.05.574-1.432.368-.382.868-.6 1.392-.609a1.97 1.97 0 0 1 1.391.609c.368.382.574.896.574 1.432s-.206 1.05-.574 1.432c-.367.382-.867.6-1.39.609m6.239 0a1.97 1.97 0 0 1-1.392-.607 2.07 2.07 0 0 1-.574-1.433c0-.536.206-1.05.574-1.432s.868-.6 1.392-.609a1.97 1.97 0 0 1 1.391.609c.368.382.574.896.574 1.432s-.206 1.05-.574 1.432c-.367.382-.867.6-1.391.609m-14.231 9.433c.326.006.638.144.866.382.23.239.357.56.357.894 0 .335-.128.656-.357.894-.228.24-.54.376-.866.383H9.526a1.24 1.24 0 0 1-.867-.383 1.3 1.3 0 0 1-.357-.894c0-.334.129-.655.357-.894.23-.238.54-.376.867-.382zm9.987 1.293a2.06 2.06 0 0 1-.595 1.424 1.97 1.97 0 0 1-1.4.587c-.524 0-1.027-.21-1.4-.587a2.06 2.06 0 0 1-.594-1.424c.007-.536.22-1.048.593-1.425a1.97 1.97 0 0 1 1.401-.587c.524 0 1.027.21 1.4.587.374.377.587.889.595 1.425m6.239 0a2.06 2.06 0 0 1-.595 1.424 1.97 1.97 0 0 1-1.4.587c-.524 0-1.027-.21-1.4-.587a2.06 2.06 0 0 1-.595-1.424c.008-.536.221-1.048.594-1.425a1.97 1.97 0 0 1 1.4-.587c.525 0 1.028.21 1.401.587.374.377.587.889.595 1.425M22.004 35.078c.326.006.638.144.866.382.23.239.357.56.357.894 0 .335-.128.656-.357.894-.228.239-.54.376-.866.383H9.526a1.24 1.24 0 0 1-.867-.383 1.3 1.3 0 0 1-.357-.894c0-.334.129-.655.357-.894.23-.238.54-.376.867-.382zm0 12.766c.326.006.638.143.866.382.23.239.357.56.357.894 0 .335-.128.656-.357.894-.228.239-.54.376-.866.383H9.526a1.24 1.24 0 0 1-.867-.383 1.3 1.3 0 0 1-.357-.894c0-.334.129-.655.357-.894.23-.238.54-.376.867-.382zm33.625-9.852h-2.021a11.5 11.5 0 0 0-.686-1.673l1.435-1.455c.44-.458.687-1.073.689-1.715a2.5 2.5 0 0 0-.677-1.72l-1.572-1.608a2.35 2.35 0 0 0-1.678-.708c-.63 0-1.233.255-1.679.708l-1.435 1.468a11 11 0 0 0-1.634-.689v-2.08c0-.597-.215-1.172-.604-1.615a2.34 2.34 0 0 0-1.505-.786c-.041-.045-2.367-.02-2.495-.025a2.35 2.35 0 0 0-1.668.716 2.46 2.46 0 0 0-.69 1.71c-.032-.02.022 2.02 0 2.08-.584.137-1.11.51-1.66.651l-1.398-1.43a2.35 2.35 0 0 0-1.678-.708c-.629 0-1.232.255-1.678.708l-1.398 1.43a2.45 2.45 0 0 0-.612.791 2.5 2.5 0 0 0 .438 2.822l1.434 1.455q-.401.811-.686 1.672H30.15a2.35 2.35 0 0 0-1.675.713 2.46 2.46 0 0 0-.696 1.713v2.272c0 .644.25 1.26.695 1.715s1.047.71 1.676.71h2.021q.278.866.686 1.673l-1.434 1.468a2.46 2.46 0 0 0-.693 1.717c0 .644.249 1.261.692 1.717l1.573 1.609c.454.436 1.054.68 1.678.68s1.224-.244 1.678-.68l1.435-1.481q.785.409 1.622.69v2.068c.006.641.257 1.255.7 1.708A2.37 2.37 0 0 0 41.78 57H44c.311 0 .62-.062.907-.184s.55-.3.77-.526c.22-.225.395-.493.514-.787s.18-.61.18-.928v-2.069a9.6 9.6 0 0 0 1.622-.689l1.447 1.48c.45.447 1.054.696 1.681.693a2.38 2.38 0 0 0 1.676-.705l1.56-1.596a2.46 2.46 0 0 0 .692-1.717c0-.643-.249-1.26-.693-1.717l-1.434-1.468q.408-.808.686-1.672h2.021c.312 0 .62-.063.908-.184.287-.122.549-.3.769-.526s.395-.493.514-.787.18-.61.18-.929v-2.272a2.46 2.46 0 0 0-.696-1.713 2.35 2.35 0 0 0-1.675-.712m-.124 4.57h-2.022a2.34 2.34 0 0 0-1.385.479 2.43 2.43 0 0 0-.848 1.219c-.51 1.408-1.5 2.971-.175 4.25l1.422 1.456-1.385 1.43-1.435-1.468a2.294 2.294 0 0 0-2.758-.409c-1.307.58-3.102 1.051-3.044 2.86v2.068h-1.971c.06-.947.013-1.898-.138-2.834-.344-1.324-1.85-1.545-2.894-2.094a2.3 2.3 0 0 0-1.445-.262 2.3 2.3 0 0 0-1.313.67l-1.447 1.469-1.398-1.43 1.435-1.468c1.31-1.267.36-2.838-.175-4.238a2.4 2.4 0 0 0-.846-1.222 2.33 2.33 0 0 0-1.387-.476h-2.021v-2.017h2.02a2.3 2.3 0 0 0 1.392-.472 2.4 2.4 0 0 0 .842-1.226c.526-1.389 1.489-2.992.175-4.239l-1.435-1.468 1.398-1.43 1.435 1.469c1.238 1.34 2.774.369 4.142-.18a2.36 2.36 0 0 0 1.195-.864c.298-.411.46-.908.465-1.42v-2.068h1.971v2.068c.004.512.166 1.01.465 1.42.298.411.717.714 1.195.865 1.366.547 2.907 1.518 4.142.179l1.435-1.468 1.398 1.43-1.435 1.468c-1.319 1.269-.343 2.834.175 4.238.148.489.444.916.846 1.222s.887.471 1.387.476h2.022zm-12.613-8.177c-9.398.305-9.396 14.247 0 14.55 9.398-.305 9.396-14.246 0-14.55m0 11.998a4.57 4.57 0 0 1-3.23-1.402 4.78 4.78 0 0 1-1.334-3.32c0-1.244.48-2.437 1.334-3.322a4.57 4.57 0 0 1 3.23-1.401 4.57 4.57 0 0 1 3.23 1.402 4.78 4.78 0 0 1 1.333 3.32 4.78 4.78 0 0 1-1.333 3.32 4.57 4.57 0 0 1-3.23 1.403"/></svg>