<svg xmlns="http://www.w3.org/2000/svg" width="50" height="50" fill="none"><path fill="#282928" d="m1.774 18.853 8.265 2.427v2.721a.711.711 0 1 0 1.422 0v-2.303l12.096 3.552c.95.278 1.987.291 2.997-.017l11.97-3.66v7.552c0 .674-.402 1.293-1.027 1.578-8.298 3.817-16.712 3.817-25.01-.001a1.74 1.74 0 0 1-1.026-1.576V27.65a.711.711 0 0 0-1.422 0v1.475c0 1.228.728 2.355 1.855 2.869 8.689 3.997 17.502 4 26.195 0a3.17 3.17 0 0 0 1.857-2.87V21.14l4.502-1.376v13.428a2.63 2.63 0 0 0-1.911 2.14l-.748 4.816a1.092 1.092 0 0 0 1.08 1.26h4.58a1.092 1.092 0 0 0 1.08-1.259l-.748-4.816a2.63 2.63 0 0 0-1.911-2.14V19.327l2.373-.725c.7-.214 1.17-.85 1.17-1.582s-.47-1.368-1.17-1.582L26.6 8.823a5.2 5.2 0 0 0-3.094.013L1.744 15.688c-.7.22-1.165.861-1.158 1.594a1.65 1.65 0 0 0 1.188 1.571M46.376 35.55l.688 4.435h-3.81l.688-4.435a1.224 1.224 0 0 1 1.217-1.043c.611 0 1.123.439 1.217 1.043M2.171 17.045l21.762-6.853a3.8 3.8 0 0 1 2.251-.009L47.827 16.8c.135.041.164.144.164.222s-.029.18-.164.222l-2.743.838-19.986-1.786a.711.711 0 0 0-.127 1.417l16.499 1.474-15.332 4.687a3.78 3.78 0 0 1-2.18.012L2.175 17.488c-.136-.04-.166-.141-.167-.22 0-.078.027-.18.163-.223"/></svg>