<svg xmlns="http://www.w3.org/2000/svg" width="50" height="50" fill="none"><path fill="#282928" d="M44.924 5.916H5.076c-.707 0-1.281.574-1.281 1.28v22.415c0 .432.35.782.781.782h40.848c.432 0 .781-.35.781-.782V7.197c0-.707-.574-1.281-1.28-1.281M19.564 28.83h-1.49v-4.294h1.49zm6.502 0h-1.49v-9.444h1.49zm6.502 0h-1.49v-7.362h1.49zm6.502 0h-1.49V15.381h1.49zm5.573 0h-4.01V14.6a.78.78 0 0 0-.781-.781h-3.053a.78.78 0 0 0-.781.78V28.83H34.13v-8.144a.78.78 0 0 0-.782-.78h-3.052a.78.78 0 0 0-.782.78v8.144h-1.887V18.604a.78.78 0 0 0-.78-.78h-3.053a.78.78 0 0 0-.782.78V28.83h-1.887v-5.075a.78.78 0 0 0-.78-.781h-3.054a.78.78 0 0 0-.78.78v5.076H5.356V7.478h39.286zm.191-25.928H5.166A4.39 4.39 0 0 0 .781 7.287v24.79a4.39 4.39 0 0 0 4.385 4.386h11.687v4.163h-4.704c-2.126 0-3.855 1.452-3.855 3.236v2.456c0 .431.35.78.782.78h31.848c.432 0 .782-.349.782-.78v-2.456c0-1.785-1.73-3.236-3.855-3.236h-4.704v-4.163h11.687a4.39 4.39 0 0 0 4.385-4.385V7.288a4.39 4.39 0 0 0-4.385-4.386m-4.691 40.96v1.674H9.857v-1.674c0-.907 1.05-1.674 2.292-1.674H37.85c1.242 0 2.292.767 2.292 1.674m-8.558-3.236h-13.17v-4.163h13.17zm16.071-8.548a2.825 2.825 0 0 1-2.822 2.822H5.166a2.825 2.825 0 0 1-2.822-2.822V7.288a2.825 2.825 0 0 1 2.822-2.823h39.668a2.825 2.825 0 0 1 2.822 2.822zM7.353 17.603l.635.244q.158.501.401.968l-.276.622a.78.78 0 0 0 .161.87l1.158 1.158a.78.78 0 0 0 .87.161l.622-.276q.466.243.967.4l.245.636c.116.302.406.5.729.5h1.638a.78.78 0 0 0 .729-.5l.244-.635a6 6 0 0 0 .968-.401l.622.276c.295.131.64.067.87-.161l1.157-1.158a.78.78 0 0 0 .162-.87l-.277-.623q.063-.12.119-.24a.8.8 0 0 0 .194-.106l6.14-4.662 6.083 2.617a.78.78 0 0 0 .835-.14l4.146-3.773-.012.061a.781.781 0 1 0 1.533.303l.47-2.383a.78.78 0 0 0-.768-.933l-2.43.009a.781.781 0 0 0 .003 1.563h.003l.399-.002-4.024 3.66-6.04-2.597a.78.78 0 0 0-.78.096l-4.334 3.29v-.34a.78.78 0 0 0-.5-.73l-.636-.245a6 6 0 0 0-.4-.967l.276-.622a.78.78 0 0 0-.162-.87l-1.158-1.158a.78.78 0 0 0-.87-.161l-.622.276a6 6 0 0 0-.967-.4l-.244-.636a.78.78 0 0 0-.73-.5h-1.637a.78.78 0 0 0-.73.5l-.244.636a6 6 0 0 0-.967.4l-.622-.276a.78.78 0 0 0-.87.161l-1.158 1.158a.78.78 0 0 0-.161.87l.276.622q-.244.466-.4.967l-.636.245a.78.78 0 0 0-.5.729v1.638c0 .323.198.613.5.729m1.062-1.83.502-.194a.78.78 0 0 0 .48-.548c.107-.453.286-.885.531-1.283a.78.78 0 0 0 .049-.727l-.219-.492.4-.4.492.219a.78.78 0 0 0 .727-.049c.398-.245.83-.424 1.283-.532a.78.78 0 0 0 .548-.48l.194-.501h.564l.194.502c.092.24.297.42.548.48.453.107.885.286 1.283.531.22.135.491.153.727.049l.492-.219.4.4-.22.492a.78.78 0 0 0 .05.726c.245.399.424.83.532 1.284a.78.78 0 0 0 .48.548l.5.193v.565l-.501.194a.78.78 0 0 0-.48.548 4.4 4.4 0 0 1-.532 1.283.78.78 0 0 0-.048.727l.218.492-.399.4-.492-.22a.78.78 0 0 0-.727.05 4.4 4.4 0 0 1-1.283.532.78.78 0 0 0-.549.48l-.193.501h-.565l-.193-.502a.78.78 0 0 0-.548-.48 4.4 4.4 0 0 1-1.283-.531.78.78 0 0 0-.727-.05l-.492.22-.4-.4.219-.492a.78.78 0 0 0-.05-.727 4.4 4.4 0 0 1-.531-1.283.78.78 0 0 0-.48-.549l-.501-.193zm5.269 3.92a3.64 3.64 0 0 0 3.637-3.638 3.64 3.64 0 0 0-3.637-3.637 3.64 3.64 0 0 0-3.637 3.637 3.64 3.64 0 0 0 3.637 3.637m0-5.713c1.144 0 2.075.93 2.075 2.075 0 1.144-.931 2.075-2.075 2.075a2.077 2.077 0 0 1-2.075-2.075c0-1.144.93-2.075 2.075-2.075"/></svg>