<svg xmlns="http://www.w3.org/2000/svg" width="50" height="50" fill="none"><g fill="#282928" clip-path="url(#a)"><path d="M40.033 17.765a14.9 14.9 0 0 0-4.436-10.653 14.94 14.94 0 0 0-10.595-4.366h-.11c-8.229.058-14.924 6.796-14.923 15.02 0 2.4.58 4.786 1.679 6.903 1.995 3.845 3.943 7.937 3.943 11.976v7.16a3.454 3.454 0 0 0 3.45 3.45h1.562a.977.977 0 0 0 0-1.954H19.04a1.5 1.5 0 0 1-1.497-1.497v-1.081h14.914v1.081c0 .826-.672 1.497-1.498 1.497h-1.549a.977.977 0 0 0 0 1.954h1.55a3.454 3.454 0 0 0 3.45-3.45v-7.16c0-4.226 2.216-8.582 3.997-12.083a14.85 14.85 0 0 0 1.625-6.797M17.544 40.77v-2.58h14.914v2.58zm4.457-23.016h-.697l3.949-6.017 3.473 6.017h-.673a.977.977 0 0 0-.976.977v17.507h-4.1V18.73a.977.977 0 0 0-.976-.977m14.667 5.923c-1.822 3.58-4.075 8.009-4.204 12.56H29.03v-16.53h.182c.605 0 1.147-.312 1.45-.836a1.66 1.66 0 0 0-.002-1.673L26.72 10.37a1.67 1.67 0 0 0-1.404-.836 1.67 1.67 0 0 0-1.448.755l-4.478 6.826a1.673 1.673 0 0 0 1.4 2.593h.235v16.53h-3.486c-.119-4.334-2.114-8.532-4.157-12.468a12.9 12.9 0 0 1-1.46-6.003c0-7.155 5.825-13.016 12.986-13.067H25c3.48 0 6.751 1.347 9.22 3.799a12.97 12.97 0 0 1 3.859 9.267c0 2.081-.475 4.07-1.412 5.912M7.605 28.853a1.67 1.67 0 0 0-1.404-.837 1.66 1.66 0 0 0-1.448.756L.275 35.598a1.673 1.673 0 0 0 1.4 2.593h.235v7.118c0 1.073.873 1.946 1.946 1.946H7.97a1.95 1.95 0 0 0 1.946-1.946v-7.118h.182c.605 0 1.147-.313 1.449-.837a1.66 1.66 0 0 0 0-1.672zm1.334 7.385a.977.977 0 0 0-.976.977v8.087h-4.1v-8.087a.977.977 0 0 0-.976-.977H2.19l3.949-6.017 3.473 6.017zM49.773 35.682l-3.942-6.829a1.67 1.67 0 0 0-1.403-.837 1.66 1.66 0 0 0-1.448.756L38.5 35.598a1.673 1.673 0 0 0 1.401 2.593h.235v7.118c0 1.073.873 1.946 1.946 1.946h4.114a1.95 1.95 0 0 0 1.945-1.946v-7.118h.182c.605 0 1.147-.313 1.45-.837a1.66 1.66 0 0 0 0-1.672m-2.607.556a.977.977 0 0 0-.977.977v8.087H42.09v-8.087a.977.977 0 0 0-.977-.977h-.696l3.948-6.017 3.474 6.017zM2.922 16.932h2.516a.977.977 0 0 0 0-1.953H2.922a.977.977 0 0 0 0 1.953M5.6 20.62l-1.299.75a.977.977 0 1 0 .977 1.69l1.299-.75a.977.977 0 1 0-.977-1.69M4.301 10.541l1.3.75a.973.973 0 0 0 1.333-.357.976.976 0 0 0-.357-1.334l-1.3-.75a.977.977 0 1 0-.976 1.691M43.582 15.955c0 .54.437.977.977.977h2.515a.977.977 0 1 0 0-1.953H44.56a.977.977 0 0 0-.977.976M43.911 11.423a1 1 0 0 0 .488-.132l1.3-.75a.976.976 0 1 0-.977-1.691l-1.3.75a.977.977 0 0 0 .49 1.822M43.422 22.31l1.3.751a.973.973 0 0 0 1.334-.357.976.976 0 0 0-.358-1.334l-1.3-.75a.976.976 0 1 0-.976 1.69"/><path d="M25 47.254a.977.977 0 1 0 0-1.953.977.977 0 0 0 0 1.953"/></g><defs><clipPath id="a"><path fill="#fff" d="M0 0h50v50H0z"/></clipPath></defs></svg>