<svg xmlns="http://www.w3.org/2000/svg" width="50" height="50" fill="none"><path fill="#282928" d="M29.688 10.156h-2.344V7.812a.78.78 0 0 0-.782-.78h-3.125a.78.78 0 0 0-.78.78v2.344h-2.344a.78.78 0 0 0-.782.781v3.126a.78.78 0 0 0 .782.78h2.343v2.345a.78.78 0 0 0 .782.78h3.125a.78.78 0 0 0 .78-.78v-2.344h2.345a.78.78 0 0 0 .78-.781v-3.126a.78.78 0 0 0-.78-.78m-.782 3.125h-2.343a.78.78 0 0 0-.782.781v2.344H24.22v-2.343a.78.78 0 0 0-.782-.782h-2.343V11.72h2.343a.78.78 0 0 0 .782-.781V8.594h1.562v2.344a.78.78 0 0 0 .782.78h2.343zM46.664 14.343a3.14 3.14 0 0 0-2.461-3.469 3.18 3.18 0 0 0-3.672 2.32l-3.437 9.891q-.076.03-.149.07l-6.906 4.048a7.05 7.05 0 0 0-3.477 6.062v7.36a.78.78 0 0 0-.78.78v6.25a.78.78 0 0 0 .78.782H37.5a.78.78 0 0 0 .781-.781v-6.25a.78.78 0 0 0-.781-.782v-1.718a2.38 2.38 0 0 1 .781-1.75l5.282-4.696a3.85 3.85 0 0 0 1.187-1.914l3.39-12.68a3 3 0 0 0 .11-.812 3.14 3.14 0 0 0-1.586-2.71m-4.64-.687a1.65 1.65 0 0 1 1.859-1.25 1.56 1.56 0 0 1 1.242 1.523v.016a3.2 3.2 0 0 0-3.04 2.39l-2.179 6.727a3.3 3.3 0 0 0-1.047-.297zm-5.305 33.219h-9.375v-4.688h9.375zm9.914-29.415-3.399 12.688c-.117.44-.362.837-.703 1.14l-5.289 4.696a3.95 3.95 0 0 0-1.304 2.922v1.718h-7.813v-7.359a5.51 5.51 0 0 1 2.703-4.719l6.899-4.039a1.56 1.56 0 0 1 2.14.57c.203.362.26.787.156 1.188a1.56 1.56 0 0 1-.734.945l-4.477 2.586a.781.781 0 0 0 .782 1.352l4.476-2.586a3.09 3.09 0 0 0 1.461-1.899c.213-.799.1-1.65-.312-2.367l-.047-.07 2.414-7.445a1.65 1.65 0 0 1 1.86-1.25 1.56 1.56 0 0 1 1.242 1.523q.003.208-.055.406M23.438 40.624v-7.36a7.04 7.04 0 0 0-3.477-6.062l-6.906-4.055c-.047-.023-.102-.039-.149-.062l-3.414-9.836a3.21 3.21 0 0 0-3.695-2.375 3.14 3.14 0 0 0-2.461 3.468 3.14 3.14 0 0 0-1.484 3.524L5.25 30.538a3.84 3.84 0 0 0 1.188 1.922l5.273 4.695a2.35 2.35 0 0 1 .789 1.75v1.719a.78.78 0 0 0-.781.781v6.25a.78.78 0 0 0 .781.781h10.938a.78.78 0 0 0 .78-.781v-6.25a.78.78 0 0 0-.78-.781M4.875 13.928a1.56 1.56 0 0 1 1.234-1.523A1.69 1.69 0 0 1 8 13.71l3.14 9.054c-.362.04-.716.14-1.046.297L7.93 16.374a3.24 3.24 0 0 0-3.055-2.43zm7.875 22.055-5.281-4.695a2.3 2.3 0 0 1-.703-1.149L3.359 17.46a1.7 1.7 0 0 1-.046-.406 1.56 1.56 0 0 1 1.234-1.523 1.675 1.675 0 0 1 1.883 1.289l2.398 7.406-.047.07a3.13 3.13 0 0 0 .226 3.465c.251.326.565.598.923.801l4.476 2.586a.78.78 0 0 0 .781-1.351l-4.476-2.586a1.56 1.56 0 0 1-.734-.946 1.6 1.6 0 0 1 .156-1.187 1.56 1.56 0 0 1 2.133-.578l6.906 4.047a5.51 5.51 0 0 1 2.703 4.718v7.36h-7.812v-1.719a3.93 3.93 0 0 0-1.313-2.922m9.906 10.89h-9.375v-4.687h9.375z"/><path fill="#282928" d="M36.051 4.008A7.81 7.81 0 0 0 25 4.01a7.806 7.806 0 0 0-11.051 0 7.817 7.817 0 0 0 0 11.042l10.5 10.5a.78.78 0 0 0 1.104 0l10.5-10.5a7.817 7.817 0 0 0 0-11.043M25 23.894l-9.948-9.947A6.25 6.25 0 0 1 19.476 3.28a6.18 6.18 0 0 1 4.416 1.834l.555.555a.78.78 0 0 0 1.104 0l.557-.557A6.245 6.245 0 0 1 36.774 9.53a6.25 6.25 0 0 1-1.827 4.416z"/></svg>