<svg xmlns="http://www.w3.org/2000/svg" width="50" height="50" fill="none"><path fill="#282928" d="M35.156 42.188h5.469v1.562h-5.469zM28.125 21.68c.754 0 1.367-.614 1.367-1.367 0-.754-.613-1.368-1.367-1.368s-1.367.614-1.367 1.367c0 .754.613 1.368 1.367 1.368m0-1.563c.108 0 .195.088.195.195 0 .215-.39.215-.39 0 0-.107.087-.195.195-.195M35.938 21.68c.753 0 1.367-.614 1.367-1.367 0-.754-.614-1.368-1.367-1.368-.754 0-1.368.614-1.368 1.367 0 .754.614 1.368 1.367 1.368m0-1.563c.107 0 .195.088.195.195 0 .215-.39.215-.39 0 0-.107.087-.195.194-.195M32.031 27.148a2.933 2.933 0 0 0 2.93-2.93h-1.172a1.76 1.76 0 0 1-1.758 1.759 1.76 1.76 0 0 1-1.758-1.758h-1.171a2.933 2.933 0 0 0 2.93 2.93"/><path fill="#282928" d="M48.438 27.344a3.13 3.13 0 0 0-3.126-3.125v-9.022c0-7.303-5.552-13.285-12.639-13.62-.227-.01-1.057-.01-1.283 0-7.088.335-12.64 6.317-12.64 13.62v9.022a3.13 3.13 0 0 0-3.125 3.125c0 1.293.79 2.406 1.913 2.88a5.47 5.47 0 0 0-1.247 6.767c.066.316.264 1.089.73 1.995l-.75 3.529-2.952-5.905.552-2.762a1.956 1.956 0 0 0-3.304-1.768l-.598.599-5.252-2.1a2.3 2.3 0 0 0-2.144.231 2.3 2.3 0 0 0-1.01 1.903c0 .823.443 1.588 1.158 1.997l4.427 2.53 3.038 10.63a.78.78 0 0 0 .752.568h36.718a.78.78 0 0 0 .766-.938l-1.7-8.246a9.2 9.2 0 0 0 1.01-2.159l.045-.15c.063-.206.138-.41.214-.613.209-.568.447-1.211.447-1.956a5.46 5.46 0 0 0-1.913-4.151 3.13 3.13 0 0 0 1.913-2.88M11.526 46.876l-2.964-10.37a.79.79 0 0 0-.363-.465l-4.704-2.687a.74.74 0 0 1-.371-.64c0-.25.118-.473.324-.612a.73.73 0 0 1 .688-.074l5.729 2.292c.29.115.622.049.843-.173l.962-.963a.397.397 0 0 1 .668.357l-.605 3.025a.8.8 0 0 0 .068.503l4.903 9.807zm5.865-2.12 1.62-7.621.013-.081c.033-.314.25-.576.505-.655l4.915-1.145 1.19 4.03a.78.78 0 0 0 .957.532l4.658-1.289v8.349h-8.594V43.75h-1.562v3.125h-2.642zm9.996-10.187c.042.16.117.31.249.417l2.711 2.17-3.433.95-.946-3.207zm-3.17-17.38h5.544a4.674 4.674 0 0 0 4.542-3.527l.848-2.98.999 3.547a3.896 3.896 0 0 0 3.693 2.951v3.914c0 4.308-3.504 7.813-7.812 7.813s-7.812-3.505-7.812-7.813zm12.208 17.797a.77.77 0 0 0 .247-.41l1.359.33-1.189 3.2-3.154-.932zm-4.395-4.517c1.097 0 2.146-.199 3.125-.547v4.079l-3.125 2.5-3.125-2.5v-4.078a9.3 9.3 0 0 0 3.125.546M42.97 46.876V43.75h-1.563v3.125h-8.593v-8.33l4.287 1.266a.78.78 0 0 0 .954-.476l1.507-4.057 4.566 1.11c.303.09.52.351.565.741l2.006 9.746zm2.343-17.97H42.97a.781.781 0 1 0 0 1.563 3.91 3.91 0 0 1 3.906 3.907c0 .466-.17.926-.35 1.414a12 12 0 0 0-.244.706l-.04.13c-.01.032-.028.062-.038.093a2.35 2.35 0 0 0-1.666-1.84l-7.818-1.899v-3.779c2.797-1.624 4.687-4.645 4.687-8.106V17.19h.782v-1.563H39.94a2.35 2.35 0 0 1-2.28-1.797l-1.752-6.227a.781.781 0 0 0-1.503-.002l-1.611 5.66a3.12 3.12 0 0 1-3.031 2.366h-7.888v1.562h.781v3.906c0 3.461 1.89 6.483 4.688 8.107v3.773l-8.217 1.916a2.34 2.34 0 0 0-1.477 1.318 3.9 3.9 0 0 1-.462-1.832 3.91 3.91 0 0 1 3.906-3.907.781.781 0 1 0 0-1.562H18.75c-.862 0-1.562-.7-1.562-1.563 0-.861.7-1.562 1.562-1.562h.781c.431 0 .782-.35.782-.781v-9.804c0-6.467 4.898-11.764 11.152-12.058.175-.01.957-.01 1.133 0 6.254.295 11.152 5.591 11.152 12.059V25c0 .432.35.78.781.78h.782c.861 0 1.562.702 1.562 1.563 0 .862-.7 1.563-1.562 1.563"/><path fill="#282928" d="M13.281 17.188h1.563v2.343H13.28zM10.938 15.625h2.343v1.563h-2.344zM13.281 13.281h1.563v2.344H13.28zM14.844 15.625h2.344v1.563h-2.344zM3.906 9.375H5.47v2.344H3.906zM1.563 7.813h2.343v1.562H1.563zM3.906 5.469H5.47v2.343H3.906zM5.469 7.813h2.343v1.562H5.47zM11.719 7.813h1.562v1.562H11.72zM3.125 16.406h1.563v1.563H3.125zM7.813 21.875h1.562v1.563H7.813z"/></svg>