<svg xmlns="http://www.w3.org/2000/svg" width="50" height="50" fill="none"><path fill="#282928" d="M2.268 21.85h4.194c.248.895.605 1.756 1.065 2.562L4.558 27.38a.756.756 0 0 0 0 1.07l3.208 3.207a.757.757 0 0 0 1.069 0l2.969-2.969c.806.46 1.666.817 2.56 1.065v4.194c0 .418.339.756.757.756h4.536a.756.756 0 0 0 .756-.756v-4.194a11.2 11.2 0 0 0 2.56-1.065l2.97 2.97c.3.283.77.283 1.069 0l3.208-3.209a.756.756 0 0 0 0-1.07l-2.97-2.967a11.2 11.2 0 0 0 1.065-2.562h4.195a.756.756 0 0 0 .756-.756v-4.536a.756.756 0 0 0-.756-.756h-4.195a11.3 11.3 0 0 0-1.065-2.561l2.97-2.968a.756.756 0 0 0 0-1.07l-3.208-3.208a.756.756 0 0 0-1.07 0l-2.968 2.97A11.3 11.3 0 0 0 20.413 7.9V3.705a.756.756 0 0 0-.756-.756H15.12a.756.756 0 0 0-.757.756V7.9a11.3 11.3 0 0 0-2.56 1.065l-2.97-2.97a.78.78 0 0 0-1.068 0L4.558 9.203a.756.756 0 0 0 0 1.07l2.969 2.968a11.3 11.3 0 0 0-1.065 2.561H2.268a.756.756 0 0 0-.756.756v4.536c0 .418.338.756.756.756m.756-4.536h4.03a.756.756 0 0 0 .738-.594 9.7 9.7 0 0 1 1.325-3.186.756.756 0 0 0-.102-.943L6.16 9.738l2.14-2.14 2.852 2.854a.756.756 0 0 0 .943.103 9.7 9.7 0 0 1 3.186-1.325.76.76 0 0 0 .595-.739v-4.03H18.9v4.03c0 .355.247.663.594.739a9.7 9.7 0 0 1 3.186 1.325c.3.192.692.149.944-.103L26.477 7.6l2.139 2.139-2.853 2.852a.756.756 0 0 0-.102.944 9.7 9.7 0 0 1 1.323 3.187.76.76 0 0 0 .739.594h4.03v3.024h-4.03a.756.756 0 0 0-.739.594 9.7 9.7 0 0 1-1.323 3.186c-.192.299-.15.691.102.943l2.853 2.852-2.139 2.14-2.852-2.854a.76.76 0 0 0-.944-.102 9.7 9.7 0 0 1-3.185 1.325.756.756 0 0 0-.595.738v4.03h-3.024v-4.03a.756.756 0 0 0-.596-.738 9.7 9.7 0 0 1-3.185-1.325.756.756 0 0 0-.943.102L8.3 30.054l-2.138-2.14 2.853-2.852a.756.756 0 0 0 .102-.943 9.7 9.7 0 0 1-1.325-3.187.756.756 0 0 0-.738-.594h-4.03z"/><path fill="#282928" d="M17.388 24.874a6.048 6.048 0 1 0-6.048-6.048 6.055 6.055 0 0 0 6.048 6.048m0-10.585a4.537 4.537 0 1 1 0 9.074 4.537 4.537 0 0 1 0-9.074"/><path fill="#282928" d="M17.39 27.143a8.316 8.316 0 1 0-8.316-8.317 8.326 8.326 0 0 0 8.317 8.317m0-15.121a6.804 6.804 0 1 1-6.804 6.804 6.81 6.81 0 0 1 6.805-6.804M44.607 37.726v-6.048a.756.756 0 0 0-.757-.756h-1.512v-6.049a.756.756 0 0 0-.756-.756h-6.804a.756.756 0 0 0-.756.756v6.049h-3.78a.756.756 0 0 0-.757.756v6.048H5.292a3.785 3.785 0 0 0-3.78 3.78v1.512a3.784 3.784 0 0 0 3.78 3.78h39.314a3.784 3.784 0 0 0 3.78-3.78v-1.512a3.785 3.785 0 0 0-3.78-3.78m-1.513 0h-5.292v-5.292h5.292zm-7.56-12.097h5.292v5.293h-5.292zm-4.536 6.805h5.292v5.292h-5.292zm15.877 10.584a2.27 2.27 0 0 1-2.269 2.268H5.292a2.27 2.27 0 0 1-2.268-2.268v-1.512a2.27 2.27 0 0 1 2.268-2.268h39.314a2.27 2.27 0 0 1 2.269 2.268z"/><path fill="#282928" d="M24.948 39.994a2.268 2.268 0 1 0 0 4.537 2.268 2.268 0 0 0 0-4.537m0 3.024a.756.756 0 1 1 0-1.512.756.756 0 0 1 0 1.512M17.39 39.994a2.268 2.268 0 1 0 0 4.537 2.268 2.268 0 0 0 0-4.537m0 3.024a.756.756 0 1 1-.001-1.512.756.756 0 0 1 0 1.512M32.51 39.994a2.268 2.268 0 1 0 0 4.537 2.268 2.268 0 0 0 0-4.537m0 3.024a.756.756 0 1 1 0-1.512.756.756 0 0 1 0 1.512M9.827 39.994a2.268 2.268 0 1 0 0 4.537 2.268 2.268 0 0 0 0-4.537m0 3.024a.756.756 0 1 1 0-1.512.756.756 0 0 1 0 1.512M40.069 39.994a2.268 2.268 0 1 0 0 4.537 2.268 2.268 0 0 0 0-4.537m0 3.024a.756.756 0 1 1 0-1.512.756.756 0 0 1 0 1.512"/></svg>