<svg xmlns="http://www.w3.org/2000/svg" width="50" height="50" fill="none"><g fill="#000" clip-path="url(#a)"><path d="M16.872 32.692c-4.244 0-7.696-5.288-7.696-11.787a.736.736 0 0 1 .735-.736h.003a1.24 1.24 0 0 0 1.234-1.103l.012-.103c.14-1.257 1.044-2.29 2.248-2.57a14.8 14.8 0 0 1 6.9.011c1.149.278 2.015 1.228 2.208 2.42l.049.303a1.24 1.24 0 0 0 1.226 1.042c.407 0 .784.33.784.736 0 6.5-3.456 11.787-7.703 11.787m-6.214-11.155c.197 5.396 2.91 9.685 6.214 9.685 3.307 0 6.02-4.286 6.22-9.68a2.7 2.7 0 0 1-1.98-2.18l-.048-.304c-.096-.596-.54-1.088-1.102-1.225a13.4 13.4 0 0 0-6.22-.008c-.599.14-1.05.663-1.12 1.302l-.012.103a2.71 2.71 0 0 1-1.952 2.307"/><path d="M9.909 21.64a.736.736 0 0 1-.718-.58l-.515-2.398a1 1 0 0 1-.012-.075c-.223-2.043.24-3.76 1.38-5.104 2.115-2.496 5.9-2.828 6.637-2.87 2.041-.143 3.693.493 4.636 1.777l.441.601a3.55 3.55 0 0 1 2.747 1.296c.678.823.951 1.896.747 2.943l-.74 3.815a.735.735 0 1 1-1.443-.28l.74-3.815a2.08 2.08 0 0 0-.439-1.727 2.08 2.08 0 0 0-1.611-.76c-.468 0-.912-.226-1.188-.603l-.44-.6c-.856-1.166-2.474-1.242-3.36-1.179-.64.036-3.879.316-5.606 2.354-.86 1.015-1.212 2.346-1.044 3.956l.507 2.36a.735.735 0 0 1-.72.89M32.27 49.264H1.47a.735.735 0 0 1-.736-.736v-6.933c0-2.326 1.401-4.378 3.57-5.228l4.927-1.928a4.13 4.13 0 0 0 2.636-3.859v-.948a.735.735 0 1 1 1.47 0v.948a5.59 5.59 0 0 1-3.569 5.229L4.84 37.736a4.12 4.12 0 0 0-2.635 3.859v6.198h29.33v-6.198a4.12 4.12 0 0 0-2.635-3.86l-4.926-1.926a5.59 5.59 0 0 1-3.57-5.229v-.948a.735.735 0 1 1 1.47 0v.948a4.13 4.13 0 0 0 2.637 3.86l4.925 1.926a5.59 5.59 0 0 1 3.57 5.229v6.933a.735.735 0 0 1-.735.736"/><path d="M16.973 36.334a8.44 8.44 0 0 1-5.582-2.097.735.735 0 1 1 .97-1.105 6.99 6.99 0 0 0 9.205.003l.488.55.46.574-.004.003a8.38 8.38 0 0 1-5.537 2.072"/><path d="M15.53 49.263a.735.735 0 0 1-.71-.542l-3.978-14.617a.735.735 0 1 1 1.42-.387l3.977 14.618a.735.735 0 0 1-.71.928M18.389 49.263a.735.735 0 0 1-.711-.927l3.948-14.618a.736.736 0 0 1 1.42.383L19.099 48.72a.736.736 0 0 1-.71.544M32.283 20.272c-.322 0-.642-.089-.927-.266a1.75 1.75 0 0 1-.835-1.497V15.97h-.881a2.21 2.21 0 0 1-2.206-2.206V2.94c0-1.216.99-2.206 2.206-2.206h17.418c1.217 0 2.206.99 2.206 2.206v10.824c0 1.217-.99 2.206-2.206 2.206h-5.703l-8.287 4.117c-.25.124-.518.185-.785.185M29.64 2.205a.736.736 0 0 0-.736.735v10.824c0 .406.33.736.736.736h1.616c.407 0 .736.329.736.735v3.274c0 .141.087.216.138.247a.29.29 0 0 0 .283.014l8.443-4.194a.74.74 0 0 1 .327-.076h5.875c.406 0 .736-.33.736-.736V2.94a.736.736 0 0 0-.736-.735z"/><path d="M41.181 12.293h-5.668a.735.735 0 1 1 0-1.47h5.668a.735.735 0 1 1 0 1.47M44.852 9.088H31.845a.735.735 0 1 1 0-1.47h13.007a.735.735 0 1 1 0 1.47M41.181 5.88h-5.668a.735.735 0 1 1 0-1.47h5.668a.735.735 0 1 1 0 1.47"/></g><defs><clipPath id="a"><path fill="#fff" d="M0 0h50v50H0z"/></clipPath></defs></svg>