<svg xmlns="http://www.w3.org/2000/svg" width="50" height="50" fill="none"><path fill="#000" d="M42.188 9.375h-2.344V4.688A3.91 3.91 0 0 0 35.937.78H14.064a3.91 3.91 0 0 0-3.907 3.907v4.687H7.812a.78.78 0 0 0-.78.781v24.219a.78.78 0 0 0 .78.781h2.344v10.157a3.91 3.91 0 0 0 3.906 3.906h21.876a3.91 3.91 0 0 0 3.906-3.907V35.157h2.343a.78.78 0 0 0 .782-.781V10.156a.78.78 0 0 0-.782-.781m-30.47-4.687a2.346 2.346 0 0 1 2.345-2.344h21.874a2.346 2.346 0 0 1 2.344 2.344v4.687H11.72zm-3.124 6.25h32.812v4.687H8.594zM38.28 45.313a2.346 2.346 0 0 1-2.343 2.343H14.061a2.346 2.346 0 0 1-2.343-2.343v-3.907H38.28zm0-5.47H11.72v-4.687H38.28zm3.125-6.25H8.594V17.188h32.812z"/><path fill="#000" d="M39.063 14.063a.781.781 0 1 0 0-1.563.781.781 0 0 0 0 1.563M35.938 14.063a.781.781 0 1 0 0-1.563.781.781 0 0 0 0 1.563M32.813 14.063a.781.781 0 1 0 0-1.563.781.781 0 0 0 0 1.563M25 46.875a2.344 2.344 0 1 0 0-4.688 2.344 2.344 0 0 0 0 4.688m0-3.125a.78.78 0 1 1 0 1.561.78.78 0 0 1 0-1.561M31.25 45.313h3.125a.781.781 0 1 0 0-1.563H31.25a.781.781 0 1 0 0 1.563M15.625 45.313h3.125a.781.781 0 1 0 0-1.563h-3.125a.781.781 0 1 0 0 1.563M28.125 3.906h-6.25a.781.781 0 1 0 0 1.563h6.25a.781.781 0 1 0 0-1.563M31.25 5.469a.781.781 0 1 0 0-1.563.781.781 0 0 0 0 1.563M18.588 29.459a.781.781 0 0 0 1.105-1.105L16.339 25l3.354-3.354a.781.781 0 0 0-1.105-1.104l-3.906 3.906a.78.78 0 0 0 0 1.104zM30.307 29.459a.78.78 0 0 0 1.105 0l3.906-3.907a.78.78 0 0 0 0-1.104l-3.906-3.906a.781.781 0 0 0-1.105 1.104L33.66 25l-3.354 3.354a.78.78 0 0 0 0 1.105M22.349 31.187a.78.78 0 0 0 1.026-.41l4.687-10.938a.782.782 0 0 0-1.436-.615L21.938 30.16a.78.78 0 0 0 .41 1.026"/></svg>