<svg xmlns="http://www.w3.org/2000/svg" width="50" height="50" fill="none"><path fill="#000" d="M17.037 7.235a.78.78 0 0 0 1.013.315 16.3 16.3 0 0 1 5.804-1.54.78.78 0 0 0 .722-.78V1.564a.78.78 0 0 0-.83-.78 21.5 21.5 0 0 0-8.206 2.198.78.78 0 0 0-.33 1.09zm5.977-4.822V4.52c-1.726.2-3.395.642-4.977 1.32l-1.048-1.815a19.9 19.9 0 0 1 6.025-1.613M5.71 32.013a.78.78 0 0 0 1.091.33l3.18-1.835a.78.78 0 0 0 .314-1.013 16.4 16.4 0 0 1-1.548-5.798.78.78 0 0 0-.78-.72H4.3a.78.78 0 0 0-.78.83 21.55 21.55 0 0 0 2.191 8.206m1.55-7.474a17.9 17.9 0 0 0 1.326 4.97l-1.83 1.056a20 20 0 0 1-1.607-6.026zM4.3 21.842h3.682c.406 0 .744-.31.779-.714.175-2.028.7-3.977 1.56-5.793a.78.78 0 0 0-.316-1.01l-3.198-1.847a.78.78 0 0 0-1.09.33 21.5 21.5 0 0 0-2.197 8.203.78.78 0 0 0 .78.831m2.462-7.586 1.85 1.069A18.4 18.4 0 0 0 7.28 20.28H5.15c.22-2.09.761-4.109 1.613-6.024M48.63 24.448a1.19 1.19 0 0 0-1.083-.677h-.77q.043-.682.043-1.362a21.58 21.58 0 0 0-5.895-14.856A21.58 21.58 0 0 0 26.541.783a.78.78 0 0 0-.83.78V5.23c0 .408.314.747.72.779 8.504.656 15.166 7.86 15.166 16.4q0 .68-.056 1.36h-.5c-.465 0-.88.26-1.082.678-.203.417-.15.904.137 1.269l3.254 4.132c.23.291.573.458.944.458s.716-.167.945-.458l3.253-4.132c.288-.365.34-.851.138-1.27m-4.336 4.075-2.511-3.19h.462a.78.78 0 0 0 .776-.685c.091-.738.138-1.492.138-2.239a17.95 17.95 0 0 0-4.82-12.262 17.95 17.95 0 0 0-11.066-5.625v-2.11c10.15 1.067 17.985 9.694 17.985 19.997 0 .688-.036 1.383-.105 2.064a.78.78 0 0 0 .777.86h.876zM7.377 11.497l3.187 1.84A.78.78 0 0 0 11.6 13.1a16.3 16.3 0 0 1 4.224-4.261.78.78 0 0 0 .233-1.033L14.229 4.64a.78.78 0 0 0-1.11-.26 21.7 21.7 0 0 0-6.001 6.005.78.78 0 0 0 .259 1.11m5.925-5.338 1.049 1.817a17.8 17.8 0 0 0-3.622 3.652L8.895 10.57a20 20 0 0 1 4.407-4.41m22.731 26.47-7.532 4.387a4 4 0 0 1-.876.387 3.2 3.2 0 0 0 .224-.598c.4-1.495-.486-3.056-2.019-3.553a1 1 0 0 0-.102-.025c-2.156-.389-4.287-1.16-6-1.779-.597-.216-1.162-.42-1.642-.576-1.97-.639-3.742.146-5.214.999l-5.505 3.187-.473-.834a1.88 1.88 0 0 0-1.14-.89 1.88 1.88 0 0 0-1.436.176l-2.113 1.196a1.893 1.893 0 0 0-.714 2.576L7.704 48.26c.248.439.653.755 1.14.89q.255.07.51.07c.322 0 .64-.083.926-.246l2.114-1.196c.438-.248.754-.653.889-1.14a1.88 1.88 0 0 0-.175-1.436l-.586-1.034 1.14-.659 9.602 2.573a6.2 6.2 0 0 0 1.612.218c1.074 0 2.11-.296 3.059-.88l13.669-8.416c1.296-.798 1.709-2.805.867-4.21-.408-.681-2.077-2.705-6.438-.165M11.777 46.22a.33.33 0 0 1-.153.198l-2.113 1.196a.33.33 0 0 1-.249.029.33.33 0 0 1-.198-.153L2.85 36.513a.33.33 0 0 1 .124-.447l2.113-1.196a.32.32 0 0 1 .249-.03c.05.014.14.052.198.153l6.213 10.979c.057.101.043.2.03.248m29.008-10.548-13.67 8.417c-1.056.65-2.215.813-3.446.483l-9.915-2.657a.78.78 0 0 0-.593.079l-1.408.813-3.617-6.39 5.519-3.195c1.233-.714 2.565-1.313 3.949-.865.456.148.983.339 1.593.56 1.753.633 3.931 1.42 6.196 1.836.726.258 1.131.957.947 1.646-.244.908-1.007 1.02-1.616.951-1.102-.227-2.153-.526-3.264-.844-.529-.15-1.076-.307-1.64-.458a.782.782 0 0 0-.404 1.51c.55.147 1.092.301 1.615.45 1.152.33 3.44.885 3.445.886l.937.152c1.427.229 2.695.006 3.874-.68l7.532-4.388c2.108-1.228 3.72-1.371 4.311-.383.405.675.23 1.723-.345 2.077m-35.14 1.219a.754.754 0 1 1-1.493.218.754.754 0 0 1 1.494-.218m26.142-21.804a5.66 5.66 0 0 0-5.652-5.651 5.66 5.66 0 0 0-5.652 5.652c0 1.9.944 3.584 2.387 4.609a10.38 10.38 0 0 0-7.09 8.775.78.78 0 0 0 .777.864h19.156a.78.78 0 0 0 .776-.864 10.38 10.38 0 0 0-7.09-8.775 5.65 5.65 0 0 0 2.388-4.61M34.8 27.776H17.47a8.83 8.83 0 0 1 8.663-7.035h.004a8.83 8.83 0 0 1 8.663 7.035m-8.665-8.597h-.003a4.094 4.094 0 0 1-4.086-4.09A4.094 4.094 0 0 1 26.135 11a4.094 4.094 0 0 1 4.09 4.09 4.094 4.094 0 0 1-4.087 4.089z"/></svg>