<svg xmlns="http://www.w3.org/2000/svg" width="50" height="50" fill="none"><path fill="#000" d="m14.245 2.653 10.302 7.358.908-1.271L15.153 1.38a3.27 3.27 0 0 0-3.742 0L1.109 8.741l.908 1.27L12.32 2.655a1.68 1.68 0 0 1 1.926 0"/><path fill="#000" d="M16.406 9.375h-6.25v4.688h6.25zM14.844 12.5h-3.125v-1.562h3.125zM49.219 21.663v-5.827l-2.136-.684a11.7 11.7 0 0 0-.718-1.742l1.025-1.99-4.12-4.122-1.992 1.025a11.7 11.7 0 0 0-1.741-.718L38.85 5.47h-5.828l-.684 2.136a11.7 11.7 0 0 0-1.741.718l-1.992-1.025-4.12 4.12 1.025 1.991a11.7 11.7 0 0 0-.718 1.742l-2.137.686v5.827l2.136.684c.195.604.435 1.188.718 1.742l-1.025 1.99 4.1 4.099 1.884-.848V43.75a5.475 5.475 0 0 0 5.468 5.469 5.475 5.475 0 0 0 5.47-5.469V29.313l1.878.871 4.104-4.103-1.025-1.99c.284-.554.524-1.138.718-1.742zm-16.56-.57 2.746-4.391c.23-.37.833-.37 1.064 0l2.747 4.392zm-.628 1.563h1.563v17.188H32.03zm3.125 0h1.563v17.188h-1.563zm3.125 0h1.563v17.188H38.28zm-.486-6.783a2.18 2.18 0 0 0-1.858-1.03c-.76 0-1.454.386-1.857 1.03l-3.611 5.778v1.517a6.97 6.97 0 0 1-1.563-4.418c0-3.877 3.155-7.031 7.032-7.031 3.876 0 7.03 3.154 7.03 7.031a6.97 6.97 0 0 1-1.562 4.418v-1.516zm-1.858 31.783a3.91 3.91 0 0 1-3.906-3.906v-2.344h7.813v2.344a3.91 3.91 0 0 1-3.907 3.906m9.879-26.543-.114.404a10 10 0 0 1-.901 2.184l-.206.366.883 1.715-2.525 2.525-1.547-.717v-2.228a8.51 8.51 0 0 0 3.125-6.612c0-4.738-3.855-8.594-8.593-8.594-4.739 0-8.594 3.856-8.594 8.594a8.51 8.51 0 0 0 3.125 6.612v2.255l-1.542.695-2.53-2.53.883-1.714-.206-.366a10 10 0 0 1-.9-2.184l-.115-.404-1.84-.59v-3.547l1.84-.59.114-.404c.218-.77.522-1.506.901-2.185l.205-.365-.882-1.715 2.509-2.509 1.714.882.366-.204a10 10 0 0 1 2.184-.901l.404-.114.59-1.84h3.547l.59 1.84.404.114c.77.218 1.505.521 2.184.9l.366.205 1.714-.882 2.51 2.509-.883 1.715.205.365c.38.68.683 1.415.9 2.185l.115.404 1.84.589v3.547z"/><path fill="#000" d="M20.313 28.125h-6.25V25h8.594v-1.562h-1.562V11.386l1.636 1.168.907-1.272-10.356-7.397-10.356 7.397.908 1.272 1.636-1.168v12.052H3.907V25h8.594v3.125H6.25v7.813h6.25v3.125H6.25v7.812h14.062V43.75h8.594v-1.562h-8.594v-3.125h-6.25v-3.125h6.25v-3.125h8.594V31.25h-8.594zm-5.468-4.687h-3.126v-6.25h3.126zM7.032 10.269l6.25-4.464 6.25 4.464v13.169h-3.125v-7.813h-6.25v7.813H7.032zm11.719 35.044H7.813v-4.688h10.938zm0-10.938H7.813v-4.687h10.938z"/><path fill="#000" d="M15.625 31.25h1.563v1.563h-1.563zM9.375 31.25h1.563v1.563H9.375zM12.5 31.25h1.563v1.563H12.5zM15.625 42.188h1.563v1.562h-1.563zM9.375 42.188h1.563v1.562H9.375zM12.5 42.188h1.563v1.562H12.5z"/></svg>