<svg xmlns="http://www.w3.org/2000/svg" width="50" height="50" fill="none"><g clip-path="url(#a)"><path fill="#282928" d="M47.795 4.044h-1.84V2.185a.84.84 0 0 0-.837-.837h-2.486a.84.84 0 0 0-.838.837v1.859h-5.276V2.185a.84.84 0 0 0-.837-.837h-2.487a.84.84 0 0 0-.837.837v1.859H27.08V2.185a.84.84 0 0 0-.838-.837h-2.486a.84.84 0 0 0-.838.837v1.859h-5.276V2.185a.84.84 0 0 0-.837-.837h-2.487a.84.84 0 0 0-.837.837v1.859H8.206V2.185a.84.84 0 0 0-.838-.837H4.882a.84.84 0 0 0-.837.837v1.859h-1.84C.99 4.044 0 5.034 0 6.249v40.197c0 1.216.99 2.205 2.205 2.205h9.94a.732.732 0 0 0 0-1.465h-2.59V28.429h6.624v18.759h-.616a.732.732 0 1 0 0 1.464h32.232c1.216 0 2.205-.989 2.205-2.205V6.25c0-1.216-.99-2.205-2.205-2.205m-4.536-1.231h1.231V6.74h-1.23zm-9.437 0h1.231V6.74h-1.231zm-9.438 0h1.232V6.74h-1.232zm-9.437 0h1.231V6.74h-1.231zm-9.438 0h1.232V6.74H5.509zM2.205 5.509h1.84v1.859c0 .462.375.837.837.837h2.486a.84.84 0 0 0 .838-.837V5.509h5.276v1.859c0 .462.376.837.837.837h2.487a.84.84 0 0 0 .837-.837V5.509h5.276v1.859c0 .462.376.837.838.837h2.486a.84.84 0 0 0 .838-.837V5.509h5.275v1.859c0 .462.376.837.838.837h2.486a.84.84 0 0 0 .838-.837V5.509h5.276v1.859c0 .462.376.837.837.837h2.487a.84.84 0 0 0 .837-.837V5.509h1.84c.408 0 .74.332.74.74v4.536H13.854a.732.732 0 1 0 0 1.465h2.325v6.624H13.6v-3.206a.84.84 0 0 0-.838-.838H9.555v-2.58h.88a.732.732 0 1 0 0-1.465h-8.97V6.25c0-.408.332-.74.74-.74m37.009 37.632v-2.58h5.276v2.58zm5.276-4.044h-7.972v-2.58h7.972zm-8.599-4.045a.84.84 0 0 0-.838.838v3.833a.84.84 0 0 0 .838.838h1.858v3.206a.84.84 0 0 0 .838.839h1.859v2.58h-6.624V32.473h3.205a.84.84 0 0 0 .839-.838v-3.832a.84.84 0 0 0-.839-.839h-3.205V12.25h6.624v22.802zM9.555 26.963v-2.58h10.668v2.58zm2.58-10.668v2.58H4.161v-2.58zm-5.277 4.044h9.32v2.58h-9.32zm17.41-8.089v14.713h-2.58v-3.206a.84.84 0 0 0-.838-.838h-3.206V12.25zm6.392 14.713a.732.732 0 1 0 0 1.465h5.74v2.58H21.689v-2.58h5.554a.732.732 0 1 0 0-1.465h-1.51V12.25h6.625v14.713zm-8.972 5.51h6.624v2.58h-6.624zm7.25 4.044a.84.84 0 0 0 .839-.839v-3.206h2.58v14.715h-6.624v-10.67zM2.206 47.187a.74.74 0 0 1-.74-.74V12.25H8.09v2.58H3.536a.84.84 0 0 0-.839.838v3.833a.84.84 0 0 0 .839.838h1.858v3.206a.84.84 0 0 0 .838.839H8.09v22.803zm15.439-18.759h2.58v7.25a.84.84 0 0 0 .837.839h3.207v10.67h-6.624zm30.891 18.018c0 .409-.332.74-.74.74H41.91v-2.58h3.205a.84.84 0 0 0 .839-.839V35.89a.84.84 0 0 0-.839-.838h-3.205V12.25h6.624z"/></g><defs><clipPath id="a"><path fill="#fff" d="M0 0h50v50H0z"/></clipPath></defs></svg>