<svg xmlns="http://www.w3.org/2000/svg" width="50" height="50" fill="none"><g fill="#282928" clip-path="url(#a)"><path d="M37.373 14.842a2.35 2.35 0 0 0 2.21 1.564h3.125v-1.562h-3.125a.78.78 0 0 1-.737-.522l-.092-.26h3.957a.78.78 0 0 0 .742-.534l1.82-5.469a.782.782 0 0 0-.742-1.028h-8.27l-.369-1.042a.78.78 0 0 0-.736-.52h-2.343V7.03h1.792zm6.075-6.248-1.3 3.906H38.2l-1.384-3.906zM39.844 17.969a.781.781 0 1 0-1.563 0 .781.781 0 0 0 1.563 0M42.969 17.969a.781.781 0 1 0-1.563 0 .781.781 0 0 0 1.563 0M30.469 11.719h3.906v1.562h-3.906zM32.813 14.844h3.124v1.562h-3.124zM3.386 27.735l.029-.075c.91-2.375 1.94-5.065 4.09-7.087l4.958-3.501a.61.61 0 0 1 .783.122.564.564 0 0 1-.096.803l-3.407 3.21a.89.89 0 0 0-.21.997.9.9 0 0 0 .871.538l5.941-.348c.383.012.763-.074 1.103-.251l4.905-2.634a1.38 1.38 0 0 1 .828 1.047l-6.587 4.1a2.2 2.2 0 0 1-.467.224l-3.475 1.174c-1.515.511-4.147 1.639-4.746 3.44a1 1 0 0 0-.023.077l-.52 2.345 1.525.339.512-2.3c.297-.803 1.762-1.749 3.752-2.421l2.683-.906-.867 2.66-.172-.024a.78.78 0 0 0-.86.564L9.56 45.534a.78.78 0 0 0 .626.98l5.984.983-.074.875a.78.78 0 0 0 .779.847h9.844a.78.78 0 0 0 .778-.847l-.079-.936 7.168-2.018a.78.78 0 0 0 .527-1.009l-5.469-15.706a.78.78 0 0 0-.95-.495l-.681.192-1.463-8.304-.014.003a2.105 2.105 0 0 0-.213-2.751 2.1 2.1 0 0 0-.755-.484 2.2 2.2 0 0 0-1.777.1l-.083.045.046-.067a1.877 1.877 0 0 0-.898-2.74 1.91 1.91 0 0 0-2.245.625l-1.174 1.575a.3.3 0 0 1-.063.063l-6.018 4.54-1.195.07 2.034-1.918a2.123 2.123 0 0 0-.6-3.582 2.2 2.2 0 0 0-1.998.197c-5.091 3.593-5.091 3.593-5.12 3.622-2.44 2.273-3.546 5.16-4.522 7.708L.848 29.614l1.43.632zm12.916 18.2-5.003-.821 3.958-14.207 2.284.321zm.238-16.426 1.218-3.736 1.07-.666v3.072h-.312a.78.78 0 0 0-.778.716l-.066.774zm11.87.402 4.954 14.228-6.08 1.712L26 30.59zM26.497 28.8l.264-.046-.896.252-.009-.11a.78.78 0 0 0-.778-.716h-.312V21.41l.387-.241zm-1.984-10.45a.62.62 0 0 1 .71.111q.09.09.136.21a.61.61 0 0 1-.286.708l-.518.323a2.9 2.9 0 0 0-.67-1.014zm-.153 11.392 1.509 17.915h-8.144l1.509-17.915zm-1.157-1.562H20.39v-4.045l2.813-1.751zm-2.887-10.466q.212-.162.372-.374l1.176-1.578a.35.35 0 0 1 .526-.031.3.3 0 0 1 .072.122.3.3 0 0 1-.012.23l-1.763 2.549-3.96 2.126a.73.73 0 0 1-.404.076l-.156.009z"/><path d="M38.281 22.656A10.938 10.938 0 1 0 27.344 11.72 10.95 10.95 0 0 0 38.28 22.656m0-20.312a9.375 9.375 0 1 1-9.375 9.375 9.385 9.385 0 0 1 9.375-9.375"/></g><defs><clipPath id="a"><path fill="#fff" d="M0 0h50v50H0z"/></clipPath></defs></svg>