<svg xmlns="http://www.w3.org/2000/svg" width="50" height="50" fill="none"><path fill="#282928" d="M39.834 32.777h-5.167a.55.55 0 0 1-.555-.556.55.55 0 0 1 .555-.555h5.156c4.233 0 7.678-3.445 7.678-7.678s-3.445-7.678-7.678-7.678c-.422 0-.855.034-1.267.1a.56.56 0 0 1-.533-.21.58.58 0 0 1-.078-.567c.534-1.256.811-2.59.811-3.956 0-5.544-4.51-10.056-10.055-10.056a10 10 0 0 0-9.934 8.5.58.58 0 0 1-.255.39.5.5 0 0 1-.456.055 7.5 7.5 0 0 0-2.277-.344c-3.578 0-6.734 2.533-7.5 6.01a.57.57 0 0 1-.378.412 7.645 7.645 0 0 0-5.367 7.322c0 4.233 3.445 7.678 7.678 7.678h5.156a.55.55 0 0 1 .555.555.55.55 0 0 1-.556.556h-5.133c-4.844 0-8.789-3.945-8.789-8.79a8.75 8.75 0 0 1 5.845-8.288 8.8 8.8 0 0 1 2.966-4.611 8.82 8.82 0 0 1 5.545-1.967c.678 0 1.355.078 2.011.234a11.12 11.12 0 0 1 3.622-6.112c2.011-1.733 4.6-2.7 7.278-2.7 6.156 0 11.167 5.012 11.167 11.167 0 1.211-.19 2.389-.567 3.522.178-.01.344-.01.522-.01 4.845 0 8.79 3.944 8.79 8.788s-3.945 8.789-8.79 8.789"/><path fill="#282928" d="M32.969 43.455H17.09a2.27 2.27 0 0 1-2.267-2.267V25.321a2.27 2.27 0 0 1 2.267-2.266h15.878a2.26 2.26 0 0 1 2.255 2.266V41.2a2.257 2.257 0 0 1-2.255 2.256M17.09 24.165c-.633 0-1.156.512-1.156 1.156V41.2c0 .634.511 1.156 1.156 1.156h15.878c.633 0 1.144-.511 1.144-1.156V25.321c0-.633-.511-1.155-1.144-1.155z"/><path fill="#282928" d="M28.279 38.344h-6.5a1.835 1.835 0 0 1-1.834-1.833v-6.5c0-1.011.822-1.833 1.834-1.833h6.5c1.01 0 1.833.822 1.833 1.833v6.5a1.835 1.835 0 0 1-1.833 1.833m-6.5-9.055a.72.72 0 0 0-.723.722v6.5c0 .4.323.722.723.722h6.5a.72.72 0 0 0 .722-.722v-6.5a.72.72 0 0 0-.722-.722zM15.391 28.488h-3.289a.55.55 0 0 1-.555-.555.55.55 0 0 1 .555-.556h3.29a.55.55 0 0 1 .555.556.557.557 0 0 1-.556.555M39.913 28.488H34.67a.55.55 0 0 1-.556-.555.55.55 0 0 1 .556-.556h5.244a.55.55 0 0 1 .556.556.55.55 0 0 1-.556.555"/><path fill="#282928" d="M37.302 28.488a.55.55 0 0 1-.478-.822l2.344-4.211a.55.55 0 0 1 .49-.289h2.855a.55.55 0 0 1 .555.556.55.55 0 0 1-.555.555H39.99L37.801 28.2a.6.6 0 0 1-.5.29M23.246 24.167a.55.55 0 0 1-.556-.555V19.59H14.58a.55.55 0 0 1-.556-.556.55.55 0 0 1 .556-.555h8.667a.55.55 0 0 1 .555.555v4.578a.55.55 0 0 1-.555.555M28.892 24.167a.55.55 0 0 1-.556-.556v-6.555a.55.55 0 0 1 .556-.556h4.866a.55.55 0 0 1 .556.556.55.55 0 0 1-.556.555h-4.311v6a.55.55 0 0 1-.555.556M25.845 24.165a.55.55 0 0 1-.556-.555v-7.545a.55.55 0 0 1 .556-.555.55.55 0 0 1 .555.555v7.545a.55.55 0 0 1-.555.555M10.636 29.955a2.03 2.03 0 0 1-2.023-2.023 2.03 2.03 0 0 1 2.023-2.022 2.03 2.03 0 0 1 2.022 2.022c0 1.112-.9 2.023-2.022 2.023m0-2.934c-.5 0-.912.411-.912.911s.412.912.912.912.91-.412.91-.912-.41-.91-.91-.91"/><path fill="#282928" d="M13.112 21.054a2.03 2.03 0 0 1-2.022-2.022 2.03 2.03 0 0 1 2.022-2.022 2.03 2.03 0 0 1 2.022 2.022c0 1.111-.9 2.022-2.022 2.022m0-2.933c-.5 0-.911.411-.911.911s.411.911.911.911.911-.411.911-.911-.41-.911-.91-.911M35.221 19.078a2.03 2.03 0 0 1-2.022-2.023 2.03 2.03 0 0 1 2.022-2.022 2.03 2.03 0 0 1 2.023 2.022 2.03 2.03 0 0 1-2.023 2.023m0-2.923c-.5 0-.91.412-.91.912s.41.91.91.91.912-.41.912-.91-.412-.912-.912-.912M25.846 16.632a2.03 2.03 0 0 1-2.022-2.022 2.03 2.03 0 0 1 2.022-2.022 2.03 2.03 0 0 1 2.023 2.022c0 1.111-.9 2.022-2.023 2.022m0-2.933c-.5 0-.91.411-.91.911s.41.911.91.911.912-.41.912-.91-.412-.912-.912-.912M43.968 25.744a2.03 2.03 0 0 1-2.023-2.023 2.03 2.03 0 0 1 2.023-2.022 2.03 2.03 0 0 1 2.022 2.022 2.03 2.03 0 0 1-2.023 2.023m0-2.934c-.5 0-.912.411-.912.911s.412.912.912.912.91-.412.91-.912-.41-.91-.91-.91M41.378 29.955a2.03 2.03 0 0 1-2.023-2.023 2.03 2.03 0 0 1 2.023-2.022 2.03 2.03 0 0 1 2.022 2.022 2.03 2.03 0 0 1-2.022 2.023m0-2.934c-.5 0-.911.411-.911.911s.41.912.91.912.912-.412.912-.912-.411-.91-.911-.91M21.122 47.511a.55.55 0 0 1-.556-.556v-4.044a.55.55 0 0 1 .556-.556.55.55 0 0 1 .555.556v4.044c0 .3-.255.556-.555.556M17.212 49.633H3.356a.55.55 0 0 1-.555-.556.55.55 0 0 1 .555-.555h13.3v-5.623a.55.55 0 0 1 .556-.555.55.55 0 0 1 .555.555v6.178a.557.557 0 0 1-.555.556M25.036 49.633a.55.55 0 0 1-.556-.556V42.9a.55.55 0 0 1 .556-.555.55.55 0 0 1 .556.555v6.178a.557.557 0 0 1-.556.556M28.946 47.511a.55.55 0 0 1-.555-.556v-4.044a.55.55 0 0 1 .555-.556.55.55 0 0 1 .556.556v4.044c0 .3-.256.556-.556.556M46.821 49.633H32.966a.55.55 0 0 1-.556-.556V42.9a.55.55 0 0 1 .556-.555.55.55 0 0 1 .555.555v5.623h13.3a.55.55 0 0 1 .556.555.557.557 0 0 1-.556.556"/></svg>