<svg xmlns="http://www.w3.org/2000/svg" width="50" height="50" fill="none"><g fill="#282928" clip-path="url(#a)"><path d="M46.305 34.916c.303-.8.47-1.664.47-2.568 0-3.353-2.285-6.185-5.388-7.047v-5.85h1.676c2.023 0 3.67-1.638 3.67-3.65a.985.985 0 1 0-1.971 0 1.69 1.69 0 0 1-1.699 1.68h-2.661a.985.985 0 0 0-.986.984V23.6l-5.697-5.823a.99.99 0 0 0-.705-.296H16.987a.99.99 0 0 0-.704.296l-5.7 5.823v-5.134a.985.985 0 0 0-.986-.985h-2.86a1.69 1.69 0 0 1-1.7-1.68V3.648c0-.924.762-1.676 1.7-1.676h36.326a1.69 1.69 0 0 1 1.698 1.676v3.387a.985.985 0 0 0 1.971 0V3.647c0-2.01-1.646-3.647-3.669-3.647H6.737C4.713 0 3.066 1.636 3.066 3.647v12.154c0 2.012 1.647 3.65 3.671 3.65h1.875v5.85c-3.104.863-5.387 3.695-5.387 7.047 0 .904.166 1.77.47 2.57A10.13 10.13 0 0 0 .28 42.512v3.594C.281 48.253 2.037 50 4.196 50H6.18a.985.985 0 1 0 0-1.97H4.196a1.936 1.936 0 0 1-1.944-1.924v-3.594a8.16 8.16 0 0 1 2.422-5.81 7.38 7.38 0 0 0 5.924 2.968 7.38 7.38 0 0 0 5.925-2.968 8.16 8.16 0 0 1 2.422 5.81v3.594c0 1.06-.872 1.923-1.944 1.923h-1.984a.985.985 0 1 0 0 1.971h1.984c2.159 0 3.915-1.747 3.915-3.894v-3.594c0-2.922-1.235-5.65-3.413-7.595.302-.8.47-1.665.47-2.569 0-3.617-2.658-6.627-6.136-7.214l5.564-5.683h15.2l5.561 5.684c-3.477.587-6.133 3.597-6.133 7.213 0 .904.167 1.769.47 2.568-2.18 1.947-3.416 4.675-3.416 7.596v3.594c0 2.147 1.758 3.894 3.918 3.894h12.804c2.159 0 3.915-1.747 3.915-3.894v-3.594c0-2.921-1.236-5.648-3.415-7.596m-30.303-2.568c0 2.95-2.424 5.352-5.404 5.352s-5.403-2.401-5.403-5.352c0-2.95 2.424-5.348 5.403-5.348 2.98 0 5.404 2.399 5.404 5.348M39.402 27c2.979 0 5.401 2.399 5.401 5.348 0 2.95-2.422 5.352-5.4 5.352-2.98 0-5.403-2.401-5.403-5.352C34 29.398 36.424 27 39.403 27m8.347 19.106c0 1.06-.872 1.923-1.944 1.923H33.001c-1.074 0-1.947-.862-1.947-1.923v-3.594c0-2.2.872-4.266 2.423-5.812a7.39 7.39 0 0 0 5.926 2.97 7.38 7.38 0 0 0 5.923-2.97 8.16 8.16 0 0 1 2.423 5.812z"/><path d="M11.075 13.133h27.647a.985.985 0 0 0 0-1.97H11.075a.985.985 0 0 0 0 1.97M11.075 7.31h2.913a.985.985 0 0 0 0-1.97h-2.913a.985.985 0 0 0 0 1.97M38.722 5.34H20.876a.985.985 0 1 0 0 1.97h17.846a.985.985 0 0 0 0-1.97M45.747 10.432a.985.985 0 0 0-.985.985v.005c0 .545.44.983.985.983a.988.988 0 0 0 0-1.973M10.598 48.03h-.006a.983.983 0 0 0-.983.985.988.988 0 0 0 1.974 0 .985.985 0 0 0-.985-.986"/></g><defs><clipPath id="a"><path fill="#fff" d="M0 0h50v50H0z"/></clipPath></defs></svg>