<svg xmlns="http://www.w3.org/2000/svg" width="50" height="50" fill="none"><path fill="#282928" d="M49.897 31.12c-.337-4.49-3.523-8.177-7.693-9.332a6.04 6.04 0 0 0 3.258-5.353 6.04 6.04 0 0 0-6.032-6.033 6.04 6.04 0 0 0-6.032 6.033 6.04 6.04 0 0 0 3.26 5.354c-.597.165-1.18.384-1.74.651a10.6 10.6 0 0 0-3.388-4.786 10.5 10.5 0 0 0-3.762-1.915 6.04 6.04 0 0 0 3.261-5.355 6.04 6.04 0 0 0-6.032-6.032 6.04 6.04 0 0 0-6.032 6.032 6.04 6.04 0 0 0 3.262 5.355 10.5 10.5 0 0 0-3.763 1.915 10.6 10.6 0 0 0-3.388 4.786 10.5 10.5 0 0 0-1.74-.65 6.04 6.04 0 0 0 3.26-5.355 6.04 6.04 0 0 0-6.031-6.033 6.04 6.04 0 0 0-6.033 6.033 6.04 6.04 0 0 0 3.258 5.353C3.62 22.943.435 26.63.098 31.12c-.03.404.11.807.385 1.103.274.296.665.465 1.07.465h10.752v2.255c0 .432.35.782.781.782h1.373c.25.957.628 1.869 1.13 2.723l-.973.972a.78.78 0 0 0 0 1.104l2.81 2.811a.78.78 0 0 0 1.106 0l.972-.972c.855.501 1.767.88 2.724 1.13v1.372c0 .432.35.782.781.782h3.975c.431 0 .78-.35.78-.782v-1.373q.47-.123.925-.288l.065-.023.234-.09.082-.032q.113-.045.224-.094l.09-.04q.106-.046.214-.096l.099-.047a13 13 0 0 0 .315-.157l.185-.098.174-.097.117-.066.971.972q.03.03.06.054c.306.25.76.232 1.046-.054l.88-.88 1.93-1.93a.78.78 0 0 0 0-1.106l-.971-.972c.5-.855.878-1.767 1.128-2.723h1.373c.432 0 .782-.35.782-.782V32.69h10.752a1.465 1.465 0 0 0 1.458-1.569M34.96 16.435a4.475 4.475 0 0 1 4.47-4.47 4.475 4.475 0 0 1 4.47 4.47 4.475 4.475 0 0 1-4.47 4.47 4.475 4.475 0 0 1-4.47-4.47m-14.431-6.05a4.475 4.475 0 0 1 4.47-4.47 4.474 4.474 0 0 1 4.469 4.47 4.474 4.474 0 0 1-4.47 4.47 4.475 4.475 0 0 1-4.47-4.47m4.47 6.538a8.91 8.91 0 0 1 8.536 6.311l-.18.128-.787-.787a.78.78 0 0 0-1.106 0l-.972.972a10.8 10.8 0 0 0-2.723-1.129v-1.373a.78.78 0 0 0-.782-.781h-3.974a.78.78 0 0 0-.781.78v1.374c-.957.25-1.87.629-2.724 1.129l-.972-.972a.78.78 0 0 0-1.104 0l-.787.787q-.09-.066-.18-.128a8.91 8.91 0 0 1 8.535-6.311m-18.901-.488a4.475 4.475 0 0 1 4.47-4.47 4.475 4.475 0 0 1 4.47 4.47 4.475 4.475 0 0 1-4.47 4.47 4.474 4.474 0 0 1-4.47-4.47m6.209 14.533v.157H1.667c.402-4.581 4.29-8.152 8.9-8.152 1.761 0 3.49.533 4.953 1.512l-.902.902a.78.78 0 0 0 0 1.104l.972.972a10.8 10.8 0 0 0-1.129 2.723h-1.373a.78.78 0 0 0-.781.782m23.82 3.194h-1.213a.78.78 0 0 0-.766.629 9.2 9.2 0 0 1-1.383 3.337.78.78 0 0 0 .097.986l.859.859-1.377 1.377-.328.328-.859-.859a.78.78 0 0 0-.986-.097 9 9 0 0 1-.345.218l-.118.07q-.117.07-.236.135l-.14.075a11 11 0 0 1-.43.212 11 11 0 0 1-.447.191 12 12 0 0 1-.38.144l-.248.082q-.066.02-.133.043a9 9 0 0 1-.858.214.78.78 0 0 0-.629.767v1.213h-2.412v-1.213a.78.78 0 0 0-.629-.767 9.2 9.2 0 0 1-3.337-1.382.78.78 0 0 0-.986.097l-.858.859-1.706-1.706.858-.859a.78.78 0 0 0 .098-.986 9.2 9.2 0 0 1-1.383-3.337.78.78 0 0 0-.767-.629h-1.213V31.75h1.213a.78.78 0 0 0 .767-.629 9.2 9.2 0 0 1 1.383-3.337.78.78 0 0 0-.098-.986l-.858-.858 1.706-1.707.858.859a.78.78 0 0 0 .986.098 9.2 9.2 0 0 1 3.337-1.383.78.78 0 0 0 .63-.767v-1.213h2.411v1.213c0 .373.263.693.63.767a9.2 9.2 0 0 1 3.336 1.383c.31.206.723.165.986-.098l.859-.859 1.706 1.706-.859.859a.78.78 0 0 0-.097.986 9.2 9.2 0 0 1 1.383 3.337.78.78 0 0 0 .766.629h1.213v2.412zm1.563-3.036v-.157a.78.78 0 0 0-.782-.782h-1.373c-.25-.957-.628-1.869-1.129-2.723l.972-.972a.78.78 0 0 0 0-1.105l-.901-.902a8.92 8.92 0 0 1 4.953-1.512c4.61 0 8.498 3.57 8.9 8.152H37.69zm-12.692-5.145a6.983 6.983 0 0 0-6.974 6.975 6.983 6.983 0 0 0 6.974 6.975 6.983 6.983 0 0 0 6.975-6.975 6.983 6.983 0 0 0-6.975-6.975m2.38 11.834.134-.434a.784.784 0 0 0-.573-.993l-1.53-.347.462-1.488a.783.783 0 0 0-.573-.993l-1.611-.366.368-1.86 2.25.766 2.642 4.552a5.5 5.5 0 0 1-1.57 1.163m2.54-2.605-2.407-4.149a.78.78 0 0 0-.424-.347l-3.373-1.147a.78.78 0 0 0-1.018.59l-.689 3.48a.78.78 0 0 0 .594.914l1.529.346-.462 1.489a.784.784 0 0 0 .573.993l1.53.347-.19.612q-.288.03-.582.031a5.42 5.42 0 0 1-5.412-5.412A5.42 5.42 0 0 1 25 27.545a5.42 5.42 0 0 1 5.412 5.412 5.4 5.4 0 0 1-.494 2.253"/></svg>