<svg xmlns="http://www.w3.org/2000/svg" width="50" height="50" fill="none"><path fill="#282928" d="M36.937 33.84H35.71q.013-.165.014-.332v-2.414c.494-.34.955-.736 1.372-1.183 1.474-1.58 2.213-3.58 2.084-5.64.043-.506.115-1.079.192-1.684.342-2.68.767-6.017-.886-7.879-.817-.92-1.945-1.583-3.108-1.828-.234-.132-.473-.278-.723-.43-.997-.61-2.128-1.3-3.447-1.3-1.076 0-2.11.188-3.068.533V3.854a2.393 2.393 0 0 0-2.39-2.39H5.35a2.393 2.393 0 0 0-2.39 2.39V13.89a2.393 2.393 0 0 0 2.39 2.39h7.303l3.714 4.42a1.795 1.795 0 0 0 2.01.537 1.8 1.8 0 0 0 1.193-1.704v-3.254h3.443a9.141 9.141 0 0 0 .226 8.425 7.97 7.97 0 0 0 3.456 6.41v2.393q.001.169.014.333h-1.227c-.857 0-1.689.107-2.484.31a.6.6 0 0 0-.168-.359l-2.142-2.142a.59.59 0 0 0-.751-.066l-1.016.714q-.676-.361-1.406-.583L17.3 30.49a.586.586 0 0 0-.577-.485h-3.03a.586.586 0 0 0-.578.485l-.214 1.223a8 8 0 0 0-1.406.583l-1.016-.714a.586.586 0 0 0-.75.066L7.586 33.79a.59.59 0 0 0-.066.751l.714 1.016q-.36.675-.583 1.406l-1.222.214a.586.586 0 0 0-.486.577v3.03c0 .285.205.529.486.577l1.222.214q.224.73.583 1.406l-.714 1.016a.585.585 0 0 0 .066.751l2.142 2.143a.59.59 0 0 0 .752.065l1.015-.714q.676.361 1.406.583l.214 1.223c.049.28.292.485.577.485h32.759a.586.586 0 0 0 .586-.586v-4.006c.001-5.568-4.531-10.1-10.101-10.1m-2.891-20.39c.277.17.563.344.847.5a.6.6 0 0 0 .172.063c.934.177 1.885.728 2.546 1.473 1.108 1.25.989 3.646.737 5.841-.442-1.06-1.138-1.992-2.355-2.046a2.24 2.24 0 0 0-1.274-1c-1.461-.445-3.39.518-4.756 1.409-1.515 1.016-2.867 1.126-4.257.347a.586.586 0 0 0-.83.294l-1.1 2.752a8 8 0 0 1-.51-2.814c0-4.381 3.564-7.945 7.945-7.945.988-.002 1.927.572 2.835 1.126m-15.062 1.656a.586.586 0 0 0-.586.586v3.84a.62.62 0 0 1-.421.604.62.62 0 0 1-.711-.19l-3.89-4.63a.59.59 0 0 0-.448-.21H5.35a1.22 1.22 0 0 1-1.218-1.217V3.854c0-.67.547-1.217 1.218-1.217h20.4c.672 0 1.218.546 1.218 1.217V12.2a9.2 9.2 0 0 0-3.27 2.907zm5.425 9.545 1.32-3.301c1.585.656 3.225.426 4.88-.684 1.603-1.044 2.977-1.505 3.768-1.265.334.102.564.326.725.706.102.239.348.381.604.353 1.204-.132 1.682 1.403 2.104 3.126.068.28.133.543.2.768.105 1.729-.522 3.416-1.772 4.756-1.326 1.422-3.159 2.237-5.029 2.237-3.715 0-6.742-2.994-6.8-6.696m6.801 7.869a7.9 7.9 0 0 0 3.342-.754v1.742a3.255 3.255 0 0 1-3.251 3.25h-.18a3.256 3.256 0 0 1-3.253-3.25v-1.725a7.9 7.9 0 0 0 3.342.736M13.994 46.262a.59.59 0 0 0-.434-.468 6.7 6.7 0 0 1-1.796-.745.59.59 0 0 0-.638.023l-.916.644-1.446-1.447.643-.916a.59.59 0 0 0 .024-.637 6.7 6.7 0 0 1-.745-1.797.58.58 0 0 0-.468-.434l-1.102-.192v-2.045l1.102-.192a.59.59 0 0 0 .468-.434c.159-.632.41-1.236.745-1.797a.59.59 0 0 0-.024-.638l-.643-.915 1.446-1.447.916.644c.19.133.44.142.638.023a6.7 6.7 0 0 1 1.797-.745.58.58 0 0 0 .433-.468l.193-1.101h2.044l.193 1.101c.04.228.21.411.433.468.631.16 1.236.41 1.797.745.198.118.448.11.638-.023l.916-.644 1.446 1.447-.325.461q-.892.406-1.683.967a5.67 5.67 0 0 0-4.437-2.125 5.7 5.7 0 0 0-5.695 5.695 5.7 5.7 0 0 0 5.867 5.693v2.4h-1.194zm1.388-2.471-.174.003a4.53 4.53 0 0 1-4.523-4.523 4.53 4.53 0 0 1 4.523-4.524 4.5 4.5 0 0 1 3.522 1.688 10.09 10.09 0 0 0-3.348 7.356m30.485 3.572h-5.6V40.66a.586.586 0 0 0-1.171 0v6.704H23.324V40.66a.586.586 0 0 0-1.172 0v6.704h-5.6v-3.42c0-4.924 4.008-8.93 8.931-8.93h1.477a4.43 4.43 0 0 0 4.16 2.918h.18a4.43 4.43 0 0 0 4.159-2.918h1.476c4.925 0 8.931 4.007 8.931 8.93zM8.714 6.467a2.41 2.41 0 0 0-2.405 2.405 2.41 2.41 0 0 0 2.405 2.405 2.41 2.41 0 0 0 2.405-2.405 2.41 2.41 0 0 0-2.405-2.405m0 3.638c-.68 0-1.234-.553-1.234-1.233S8.034 7.64 8.714 7.64s1.233.553 1.233 1.233-.553 1.233-1.233 1.233m6.837-3.638a2.41 2.41 0 0 0-2.405 2.405 2.41 2.41 0 0 0 2.405 2.405 2.41 2.41 0 0 0 2.405-2.405 2.41 2.41 0 0 0-2.405-2.405m0 3.638c-.68 0-1.234-.553-1.234-1.233s.554-1.233 1.234-1.233 1.233.553 1.233 1.233-.553 1.233-1.233 1.233m6.838-3.638a2.41 2.41 0 0 0-2.406 2.405 2.41 2.41 0 0 0 2.406 2.405 2.41 2.41 0 0 0 2.405-2.405 2.41 2.41 0 0 0-2.405-2.405m0 3.638c-.68 0-1.234-.553-1.234-1.233S21.71 7.64 22.39 7.64s1.233.553 1.233 1.233-.554 1.233-1.233 1.233"/></svg>