<svg xmlns="http://www.w3.org/2000/svg" width="50" height="50" fill="none"><path fill="#282928" d="m22.67 25.903 3.234-3.235a.684.684 0 0 0 0-.967l-1.723-1.723c.354-.65.638-1.335.847-2.044h2.436a.683.683 0 0 0 .684-.684v-4.575a.684.684 0 0 0-.684-.683h-2.43c-.21-.71-.494-1.397-.85-2.046l1.72-1.721a.684.684 0 0 0 0-.967L22.67 4.023a.683.683 0 0 0-.966 0l-1.721 1.721c-.65-.356-1.336-.64-2.046-.85V2.463a.683.683 0 0 0-.684-.684h-4.575a.683.683 0 0 0-.684.684v2.435c-.709.21-1.394.494-2.043.848L8.227 4.023a.683.683 0 0 0-.967 0L4.025 7.258a.683.683 0 0 0 0 .967l1.722 1.723c-.354.65-.638 1.334-.847 2.044H2.465a.683.683 0 0 0-.684.683v4.575a.684.684 0 0 0 .684.684h2.43c.21.71.495 1.396.851 2.046L4.025 21.7a.68.68 0 0 0 0 .967l3.234 3.235a.684.684 0 0 0 .967 0l1.721-1.721c.65.356 1.336.64 2.046.85v2.431a.684.684 0 0 0 .684.684h4.575a.684.684 0 0 0 .684-.684v-2.436c.71-.209 1.394-.493 2.043-.847l1.724 1.723a.684.684 0 0 0 .966 0m-2.095-3.061a.68.68 0 0 0-.841-.1 9 9 0 0 1-2.64 1.094.685.685 0 0 0-.525.664v2.278H13.36v-2.271a.68.68 0 0 0-.526-.664 9 9 0 0 1-2.639-1.099.684.684 0 0 0-.842.099l-1.61 1.61-2.269-2.27 1.61-1.61a.684.684 0 0 0 .098-.841 9 9 0 0 1-1.097-2.64.684.684 0 0 0-.664-.526H3.148v-3.207h2.277a.684.684 0 0 0 .664-.525 9 9 0 0 1 1.094-2.64.684.684 0 0 0-.099-.842l-1.609-1.61 2.268-2.269 1.611 1.611a.684.684 0 0 0 .842.1 9 9 0 0 1 2.64-1.094.684.684 0 0 0 .524-.664v-2.28h3.209V5.42a.684.684 0 0 0 .525.664 9 9 0 0 1 2.64 1.096.68.68 0 0 0 .843-.098l1.609-1.61 2.268 2.27-1.61 1.61a.685.685 0 0 0-.098.842 9 9 0 0 1 1.097 2.64.684.684 0 0 0 .664.525h2.273v3.208h-2.277a.684.684 0 0 0-.664.525 9 9 0 0 1-1.094 2.64.68.68 0 0 0 .1.841l1.61 1.611-2.27 2.268z"/><path fill="#282928" d="M14.965 9.045a5.918 5.918 0 1 0 5.917 5.918 5.924 5.924 0 0 0-5.918-5.918m0 10.469a4.55 4.55 0 1 1 4.55-4.551 4.556 4.556 0 0 1-4.55 4.55M47.54 32.065h-2.432a10.3 10.3 0 0 0-.85-2.046l1.72-1.722a.685.685 0 0 0 0-.966l-3.234-3.235a.684.684 0 0 0-.967 0l-1.721 1.72c-.65-.355-1.335-.64-2.045-.85v-2.43a.684.684 0 0 0-.684-.684h-4.575a.684.684 0 0 0-.684.683v2.436c-.71.21-1.395.493-2.044.848l-1.723-1.723a.684.684 0 0 0-.966 0l-3.236 3.235a.683.683 0 0 0 0 .966l1.724 1.724a10.4 10.4 0 0 0-.847 2.044h-2.437a.684.684 0 0 0-.684.683v4.575a.684.684 0 0 0 .684.684h2.431c.21.71.494 1.396.85 2.045l-1.72 1.721a.684.684 0 0 0 0 .967l3.235 3.236a.683.683 0 0 0 .966 0l1.721-1.719c.65.356 1.336.641 2.046.85v2.431a.68.68 0 0 0 .684.684h4.575a.683.683 0 0 0 .683-.684v-2.435c.71-.21 1.395-.494 2.044-.848l1.723 1.723a.68.68 0 0 0 .967 0l3.235-3.235a.684.684 0 0 0 0-.967l-1.723-1.723c.354-.65.638-1.334.847-2.044h2.436a.683.683 0 0 0 .684-.683v-4.578a.683.683 0 0 0-.684-.683m-.684 4.575h-2.278a.685.685 0 0 0-.664.524 9 9 0 0 1-1.093 2.64.685.685 0 0 0 .099.842l1.611 1.611-2.268 2.268-1.611-1.61a.686.686 0 0 0-.842-.1 9 9 0 0 1-2.64 1.094.68.68 0 0 0-.525.664v2.277h-3.21v-2.273a.684.684 0 0 0-.525-.664 9 9 0 0 1-2.64-1.097.68.68 0 0 0-.843.098l-1.609 1.61-2.268-2.267 1.609-1.61a.684.684 0 0 0 .098-.842 9 9 0 0 1-1.096-2.64.684.684 0 0 0-.664-.526h-2.274v-3.207H25.5a.684.684 0 0 0 .664-.525 9 9 0 0 1 1.093-2.64.68.68 0 0 0-.099-.842l-1.608-1.61 2.268-2.269 1.61 1.611a.68.68 0 0 0 .842.1 9 9 0 0 1 2.64-1.094.684.684 0 0 0 .525-.665v-2.277h3.208v2.273a.68.68 0 0 0 .526.664 9 9 0 0 1 2.64 1.098.68.68 0 0 0 .842-.099l1.61-1.61 2.268 2.267-1.61 1.61a.68.68 0 0 0-.098.842 9 9 0 0 1 1.096 2.64.684.684 0 0 0 .664.526h2.273z"/><path fill="#282928" d="M35.039 29.117a5.917 5.917 0 1 0 5.917 5.918 5.925 5.925 0 0 0-5.917-5.918m0 10.469a4.55 4.55 0 1 1 4.55-4.55 4.556 4.556 0 0 1-4.55 4.55M29.968 8.146a17.54 17.54 0 0 1 9.683 7.16 3.008 3.008 0 1 0 1.198-.663 18.9 18.9 0 0 0-10.495-7.809.683.683 0 1 0-.386 1.312m13.315 9.381a1.63 1.63 0 1 1-3.258 0 1.63 1.63 0 0 1 3.258 0M20.036 41.852a17.54 17.54 0 0 1-9.682-7.161 3.008 3.008 0 1 0-1.198.664 18.9 18.9 0 0 0 10.493 7.808.683.683 0 0 0 .386-1.311M6.72 32.47a1.63 1.63 0 1 1 3.26.002 1.63 1.63 0 0 1-3.26-.002"/></svg>