<svg xmlns="http://www.w3.org/2000/svg" width="60" height="60"><defs><clipPath id="a"><path d="M0 0h60v60H0z"/></clipPath></defs><g clip-path="url(#a)"><path fill="#282928" d="M14.857 26.808H9.001a.844.844 0 0 1-.844-.844v-5.855a.844.844 0 0 1 .844-.844h5.855a.844.844 0 0 1 .844.844v5.855a.844.844 0 0 1-.843.844m-5.011-1.689h4.167v-4.167H9.846ZM24.862 26.808h-5.855a.844.844 0 0 1-.844-.844v-5.855a.844.844 0 0 1 .844-.844h5.855a.844.844 0 0 1 .844.844v5.855a.845.845 0 0 1-.844.844m-5.011-1.689h4.167v-4.167h-4.169ZM34.867 26.808h-5.855a.844.844 0 0 1-.844-.844v-5.855a.844.844 0 0 1 .844-.844h5.855a.844.844 0 0 1 .844.844v5.855a.844.844 0 0 1-.844.844m-5.011-1.689h4.167v-4.167h-4.167ZM44.873 26.808h-5.855a.844.844 0 0 1-.844-.844v-5.855a.844.844 0 0 1 .844-.844h5.855a.844.844 0 0 1 .844.844v5.855a.844.844 0 0 1-.844.844m-5.011-1.689h4.167v-4.167h-4.167ZM14.857 35.839H9.001a.844.844 0 0 1-.844-.844V29.14a.844.844 0 0 1 .844-.844h5.855a.844.844 0 0 1 .844.844v5.855a.844.844 0 0 1-.843.844M9.846 34.15h4.167v-4.167H9.846ZM24.862 35.839h-5.855a.844.844 0 0 1-.844-.844V29.14a.844.844 0 0 1 .844-.844h5.855a.844.844 0 0 1 .844.844v5.855a.845.845 0 0 1-.844.844m-5.011-1.689h4.167v-4.167h-4.169ZM14.857 44.871H9.001a.844.844 0 0 1-.844-.844v-5.855a.844.844 0 0 1 .844-.844h5.855a.844.844 0 0 1 .844.844v5.855a.844.844 0 0 1-.843.844m-5.011-1.689h4.167v-4.167H9.846ZM24.862 44.871h-5.855a.844.844 0 0 1-.844-.844v-5.855a.844.844 0 0 1 .844-.844h5.855a.844.844 0 0 1 .844.844v5.855a.844.844 0 0 1-.844.844m-5.011-1.689h4.167v-4.167h-4.169Z"/><path fill="#282928" d="M29.972 49.052H6.609a2.637 2.637 0 0 1-2.634-2.634V15.925a.844.844 0 0 1 .844-.844h44.235a.844.844 0 0 1 .844.844v16.008a.845.845 0 1 1-1.689 0V16.77H5.664v29.648a.947.947 0 0 0 .946.945h23.362a.845.845 0 1 1 0 1.689"/><path fill="#282928" d="M49.055 16.77H4.819a.844.844 0 0 1-.844-.844V9.933a2.777 2.777 0 0 1 2.774-2.774h4.481a.845.845 0 0 1 0 1.689H6.749a1.087 1.087 0 0 0-1.086 1.086v5.149H48.21V9.934a1.087 1.087 0 0 0-1.086-1.086h-4.478a.845.845 0 0 1 0-1.689h4.478a2.777 2.777 0 0 1 2.774 2.774v5.992a.844.844 0 0 1-.844.844Z"/><path fill="#282928" d="M39.148 8.847H14.726a.845.845 0 0 1 0-1.689h24.422a.845.845 0 0 1 0 1.689"/><path fill="#282928" d="M12.977 13.022a2.6 2.6 0 0 1-2.594-2.594v-4.85a2.594 2.594 0 1 1 5.187 0v4.85a2.6 2.6 0 0 1-2.593 2.594m0-8.349a.906.906 0 0 0-.905.905v4.85a.905.905 0 1 0 1.81 0v-4.85a.906.906 0 0 0-.905-.905M40.898 13.022a2.6 2.6 0 0 1-2.594-2.594v-4.85a2.594 2.594 0 0 1 5.187 0v4.85a2.6 2.6 0 0 1-2.593 2.594m0-8.349a.906.906 0 0 0-.905.905v4.85a.905.905 0 1 0 1.81 0v-4.85a.906.906 0 0 0-.905-.905M42.047 57.02a13.935 13.935 0 1 1 5.44-1.1 13.9 13.9 0 0 1-5.44 1.1m0-26.263a12.287 12.287 0 1 0 12.287 12.287 12.3 12.3 0 0 0-12.287-12.29Z"/><path fill="#282928" d="M42.047 45.52a2.477 2.477 0 1 1 2.477-2.477 2.48 2.48 0 0 1-2.477 2.477m0-3.266a.789.789 0 1 0 .789.789.79.79 0 0 0-.789-.79Z"/><path fill="#282928" d="M48.109 43.885h-4.43a.845.845 0 0 1 0-1.689h4.43a.845.845 0 1 1 0 1.689M42.047 42.252a.844.844 0 0 1-.844-.844v-5.352a.845.845 0 1 1 1.689 0v5.35a.844.844 0 0 1-.845.846M42.047 33.044a.844.844 0 0 1-.844-.844v-2.291a.845.845 0 0 1 1.689 0V32.2a.844.844 0 0 1-.845.844M34.381 36.219a.84.84 0 0 1-.6-.247l-1.62-1.62a.844.844 0 0 1 1.194-1.194l1.62 1.62a.844.844 0 0 1-.6 1.441ZM31.206 43.885h-2.291a.845.845 0 0 1 0-1.689h2.291a.845.845 0 0 1 0 1.689M32.761 53.17a.844.844 0 0 1-.6-1.441l1.62-1.62a.844.844 0 0 1 1.194 1.194l-1.62 1.62a.84.84 0 0 1-.594.247M42.047 57.016a.844.844 0 0 1-.844-.844v-2.291a.845.845 0 1 1 1.689 0v2.291a.844.844 0 0 1-.845.844M51.333 53.17a.84.84 0 0 1-.6-.247l-1.62-1.62a.844.844 0 1 1 1.194-1.194l1.62 1.62a.844.844 0 0 1-.6 1.441ZM55.178 43.885h-2.291a.845.845 0 0 1 0-1.689h2.291a.845.845 0 1 1 0 1.689M49.712 36.219a.844.844 0 0 1-.6-1.441l1.62-1.62a.844.844 0 0 1 1.194 1.194l-1.62 1.62a.84.84 0 0 1-.594.247"/></g></svg>