<svg xmlns="http://www.w3.org/2000/svg" width="60" height="60" fill="none"><path fill="#282928" d="M49.906 30.226h-.298a5.83 5.83 0 0 0 1.786-4.201 5.85 5.85 0 0 0-5.845-5.845 5.85 5.85 0 0 0-5.841 5.845c0 1.648.686 3.137 1.785 4.2h-.297c-.517 0-1.02.07-1.498.201-.785-2.222-2.931-3.801-5.341-3.801h-.302a5.83 5.83 0 0 0 1.79-4.204A5.85 5.85 0 0 0 30 16.579a5.85 5.85 0 0 0-5.842 5.842c0 1.65.688 3.14 1.79 4.204h-.3c-2.414 0-4.56 1.579-5.343 3.801-.478-.13-.98-.2-1.498-.2h-.298a5.83 5.83 0 0 0 1.787-4.201 5.85 5.85 0 0 0-5.845-5.845 5.85 5.85 0 0 0-5.845 5.845c0 1.648.686 3.137 1.787 4.2h-.295a5.666 5.666 0 0 0-5.66 5.66v7.983c0 .453.367.82.82.82h11.12q-.086.759-.087 1.54c0 7.562 6.15 13.713 13.71 13.713S43.712 53.79 43.712 46.23q0-.782-.087-1.542h11.117a.82.82 0 0 0 .819-.819v-7.983c0-3.12-2.538-5.66-5.656-5.66m-8.56-4.201a4.21 4.21 0 0 1 4.203-4.207 4.21 4.21 0 0 1 4.208 4.207 4.21 4.21 0 0 1-3.976 4.2h-.463a4.21 4.21 0 0 1-3.973-4.2m-15.55-3.604A4.21 4.21 0 0 1 30 18.217a4.21 4.21 0 0 1 4.207 4.204 4.21 4.21 0 0 1-4.076 4.204h-.261a4.21 4.21 0 0 1-4.074-4.204m-.15 5.842h4.223q.065.002.131.003.066 0 .13-.003h4.226c1.757 0 3.316 1.18 3.837 2.824a5.65 5.65 0 0 0-2.28 2.774A13.6 13.6 0 0 0 30 32.52c-2.116 0-4.121.482-5.912 1.341a5.65 5.65 0 0 0-2.278-2.773c.518-1.644 2.077-2.825 3.837-2.825m-15.403-2.238a4.21 4.21 0 0 1 4.208-4.207 4.21 4.21 0 0 1 4.207 4.207 4.21 4.21 0 0 1-3.976 4.2h-.462a4.21 4.21 0 0 1-3.977-4.2M6.076 43.049v-7.164a4.026 4.026 0 0 1 4.022-4.022h4.092a6 6 0 0 0 .522 0h4.095c.583 0 1.139.126 1.643.351q.068.04.143.068a4.02 4.02 0 0 1 2.044 2.388 13.76 13.76 0 0 0-5.973 8.38zM30 58.304c-6.656 0-12.071-5.417-12.071-12.075 0-6.656 5.415-12.071 12.071-12.071 6.658 0 12.075 5.415 12.075 12.07 0 6.659-5.417 12.075-12.075 12.075m23.924-15.255H43.339a13.76 13.76 0 0 0-5.974-8.38c.527-1.631 2.088-2.806 3.831-2.806h4.092a6 6 0 0 0 .523 0h4.095a4.024 4.024 0 0 1 4.018 4.022zM25.269 10.738l-.964 5.041a.819.819 0 0 0 1.2.871L30 14.176 34.5 16.65a.819.819 0 0 0 1.199-.871l-.966-5.041 3.746-3.514a.82.82 0 0 0-.459-1.41l-5.096-.64L30.741.529a.819.819 0 0 0-1.482 0l-2.182 4.645-5.093.64a.819.819 0 0 0-.458 1.41zm2.46-3.995a.82.82 0 0 0 .638-.465L30 2.803l1.633 3.475c.12.255.36.43.639.465l3.814.479-2.804 2.63a.82.82 0 0 0-.244.751l.723 3.772-3.366-1.852a.82.82 0 0 0-.79 0l-3.364 1.852.72-3.772a.82.82 0 0 0-.243-.751l-2.801-2.63zm8.67 4.567a.82.82 0 0 0 .219.85l2.485 2.33-.64 3.344a.819.819 0 0 0 1.198.872l2.984-1.643 2.987 1.643a.818.818 0 0 0 1.199-.872l-.641-3.343 2.486-2.33a.819.819 0 0 0-.459-1.41l-3.381-.425-1.45-3.086a.82.82 0 0 0-1.483 0l-1.446 3.086-3.381.425a.82.82 0 0 0-.677.559m4.71.585a.82.82 0 0 0 .64-.465l.897-1.914.899 1.915c.12.254.36.429.64.464l2.098.263-1.543 1.447a.82.82 0 0 0-.244.751l.398 2.075-1.854-1.02a.82.82 0 0 0-.79 0L40.4 16.43l.397-2.074a.82.82 0 0 0-.244-.751l-1.543-1.447zm-27.295 2.633-.642 3.346a.82.82 0 0 0 1.2.872l2.983-1.643 2.983 1.643a.818.818 0 0 0 1.2-.871l-.639-3.347 2.483-2.331a.819.819 0 0 0-.458-1.41l-3.378-.425-1.45-3.083a.82.82 0 0 0-1.482 0l-1.45 3.084-3.378.424a.82.82 0 0 0-.458 1.41zm2.002-2.597a.82.82 0 0 0 .639-.464l.9-1.914.9 1.914c.12.254.36.43.639.464l2.097.264-1.54 1.447a.82.82 0 0 0-.245.75l.397 2.08-1.853-1.021a.82.82 0 0 0-.79 0l-1.85 1.02.397-2.078a.82.82 0 0 0-.244-.752l-1.543-1.446zm18.75 31.53v-3.71a3.024 3.024 0 0 0-3.021-3.02h-.972a2.05 2.05 0 0 0-2.045 2.045v4.103c-.4.265-.828.438-1.293.522a.82.82 0 0 0-.812-.723h-3.68a.82.82 0 0 0-.82.819v9.127c0 .453.367.82.82.82h3.68a.82.82 0 0 0 .67-.349c3.017.727 3.72.84 6.012.84.376 0 .796-.002 1.275-.006.534-.005 1.145-.01 1.862-.012 1.437-.004 2.589-1.117 2.802-2.703l.66-4.83c.094-.689-.119-1.372-.6-1.923-.546-.626-1.37-1-2.205-1zm-8.962 8.344H23.56v-7.489h2.043zm12.266-6.268c.117.134.248.351.21.624l-.66 4.833c-.085.638-.484 1.284-1.183 1.286-.72.002-1.334.007-1.87.011-3.343.028-3.52.028-7.126-.844v-6.392a5.1 5.1 0 0 0 2.622-1.128.82.82 0 0 0 .303-.636v-4.515c0-.225.183-.408.407-.408h.972c.762 0 1.383.62 1.383 1.383v4.528c0 .453.366.82.819.82h3.152c.363 0 .735.168.97.438"/></svg>