<svg xmlns="http://www.w3.org/2000/svg" width="60" height="60"><defs><clipPath id="a"><path d="M0 0h60v60H0z"/></clipPath></defs><g fill="#282928" clip-path="url(#a)"><path d="M50.744 19.226a10.936 10.936 0 0 0-13.831-9.924 11.05 11.05 0 0 0-9.924-6.362 10.94 10.94 0 0 0-10.773 9.246 8.73 8.73 0 0 0-7.465 7.295 8.824 8.824 0 0 0 2.714 17.22h4.326a.85.85 0 1 0 0-1.7h-4.325a7.17 7.17 0 0 1-7.122-7.122 7.08 7.08 0 0 1 5.34-6.871 1.03 1.03 0 0 0 .679-.763 7.1 7.1 0 0 1 6.7-6.362.76.76 0 0 0 .763-.763 9.209 9.209 0 0 1 17.818-2.38.88.88 0 0 0 1.1.509 9.253 9.253 0 0 1 12.384 8.652v.17a.91.91 0 0 0 .679.848 7.02 7.02 0 0 1 5.853 6.956A7.17 7.17 0 0 1 48.535 35h-4.327a.85.85 0 0 0 0 1.7h4.326a8.815 8.815 0 0 0 8.822-8.822 9.03 9.03 0 0 0-6.612-8.652"/><path d="M22.83 11.512a4.24 4.24 0 0 1 7.38-1.1.848.848 0 1 0 1.357-1.018 5.83 5.83 0 0 0-4.748-2.382 6.07 6.07 0 0 0-5.6 3.9.86.86 0 0 0 1.611.6M8.331 27.454a.8.8 0 0 0-.852-.848.8.8 0 0 0-.848.848 5.32 5.32 0 0 0 5.344 5.344.85.85 0 1 0 0-1.7 3.675 3.675 0 0 1-3.644-3.644"/><path d="M18.337 20.244v19h-7.125a3.4 3.4 0 0 0-3.393 3.393V46.2a2.949 2.949 0 1 0 3.817 2.8 2.925 2.925 0 0 0-2.121-2.8v-3.562a1.7 1.7 0 0 1 1.7-1.7h7.125v1.276c0 2.884 5 4.5 10.349 4.665v3.563a3.36 3.36 0 0 0-2.545 3.223 3.393 3.393 0 0 0 6.786 0 3.46 3.46 0 0 0-2.545-3.308v-3.563c5.683-.085 11.282-1.7 11.282-4.75v-1.272h7.125a1.7 1.7 0 0 1 1.7 1.7v3.563a2.949 2.949 0 1 0 3.806 2.795 2.925 2.925 0 0 0-2.121-2.8v-3.562a3.4 3.4 0 0 0-3.393-3.393h-7.12v-19c0-3.139-5.853-4.75-11.621-4.75s-11.706 1.781-11.706 4.92ZM9.854 49a1.272 1.272 0 1 1-1.272-1.276A1.25 1.25 0 0 1 9.854 49m42.667 0a1.272 1.272 0 1 1-1.272-1.276A1.25 1.25 0 0 1 52.522 49ZM39.883 35.088c0 1.272-3.9 3.054-9.925 3.054-6.107 0-9.925-1.781-9.925-3.054v-5.344c2.121 1.442 6.107 2.121 9.925 2.121 3.9 0 7.8-.763 9.925-2.121Zm0-7.8c0 1.272-3.9 3.054-9.925 3.054-6.107 0-9.925-1.781-9.925-3.054v-4.5c2.121 1.442 6.023 2.121 9.925 2.121s7.8-.763 9.925-2.121ZM31.23 53.665a1.7 1.7 0 1 1-1.7-1.7 1.7 1.7 0 0 1 1.7 1.7m8.653-11.541c0 1.272-3.9 3.054-9.925 3.054-6.107 0-9.925-1.781-9.925-3.054v-4.5c2.121 1.442 6.107 2.121 9.925 2.121 3.9 0 7.8-.763 9.925-2.121ZM29.958 17.19c6.107 0 9.925 1.781 9.925 3.054s-3.9 3.054-9.925 3.054c-6.107 0-9.925-1.781-9.925-3.054s3.818-3.054 9.925-3.054"/><path d="M24.528 26.182a8.7 8.7 0 0 1-1.781-.679.836.836 0 0 0-.679 1.527q.891.382 2.036.763a.87.87 0 0 0 1.018-.594.78.78 0 0 0-.594-1.018ZM24.528 33.562a8.7 8.7 0 0 1-1.781-.679.836.836 0 0 0-.679 1.527q.891.382 2.036.763a.87.87 0 0 0 1.018-.594.753.753 0 0 0-.594-1.017M24.528 40.857a8.7 8.7 0 0 1-1.781-.679.836.836 0 0 0-.679 1.527q.891.382 2.036.763a.87.87 0 0 0 1.018-.594.78.78 0 0 0-.594-1.017"/></g></svg>