<svg xmlns="http://www.w3.org/2000/svg" width="60" height="60" fill="none"><g stroke="#282928" stroke-linecap="round" stroke-linejoin="round" stroke-miterlimit="10" stroke-width="2" clip-path="url(#a)"><path d="M6.188 55.875h-3.75a1.48 1.48 0 0 1-1.5-1.5v-13.5c0-.844.656-1.5 1.5-1.5h3.75c.843 0 1.5.656 1.5 1.5v13.5c.093.844-.657 1.5-1.5 1.5M10.5 40.219c2.063-2.063 3.469-5.063 4.688-8.625 1.874 0 3.468 1.593 3.468 3.468v.563L17.72 42l5.156-.187c2.438-.094 4.219 2.062 3.844 4.5l-1.125 5.812c-.375 1.781-1.875 3.094-3.657 3.094h-6.28c-1.126 0-2.25-.094-3.282-.375l-1.594-.375M49.406 54.281l-1.594.469c-1.125.281-2.156.375-3.28.375H38.25c-1.781 0-3.375-1.312-3.75-3.094l-1.125-5.812c-.469-2.344 1.406-4.5 3.844-4.5l5.156.187-.938-6.375v-.562a3.46 3.46 0 0 1 3.47-3.469c1.124 3.563 2.624 6.563 4.687 8.625M53.813 55.875h3.75c.843 0 1.5-.656 1.5-1.5v-13.5c0-.844-.657-1.5-1.5-1.5h-3.75c-.844 0-1.5.656-1.5 1.5v13.5c-.094.844.656 1.5 1.5 1.5M30 32.906c6.161 0 11.156-4.995 11.156-11.156S36.161 10.594 30 10.594 18.844 15.589 18.844 21.75 23.839 32.906 30 32.906"/><path d="M27.656 27c-.468 0-.937-.187-1.312-.562l-2.25-2.25c-.75-.75-.75-1.875 0-2.625s1.875-.75 2.625 0l.937.937 5.532-5.531c.75-.75 1.874-.75 2.624 0s.75 1.875 0 2.625l-6.843 6.843c-.282.375-.844.563-1.313.563M30 6.656V4.125M45.094 21.75h2.531M12.375 21.75h2.531M40.688 11.063l1.78-1.782M17.531 9.281l1.782 1.781"/></g><defs><clipPath id="a"><path fill="#fff" d="M0 0h60v60H0z"/></clipPath></defs></svg>