<svg xmlns="http://www.w3.org/2000/svg" width="60" height="60" fill="none"><path fill="#282928" d="M5.353 19.398a26.23 26.23 0 0 1 10.98-12.496 27.2 27.2 0 0 1 14.57-3.695l-.749-.754a.82.82 0 0 1 1.164-1.156l2.344 2.361a.82.82 0 0 1-.034 1.188l-2.44 2.194a.82.82 0 0 1-1.096-1.22l1.069-.961c-10.564-.407-20.222 5.572-24.297 15.18a.82.82 0 1 1-1.51-.64zm14.71 33.699A25.15 25.15 0 0 1 4.87 29.375l.97 1.01a.82.82 0 1 0 1.183-1.136L4.75 26.883a.82.82 0 0 0-.591-.252h-.004a.82.82 0 0 0-.593.258l-2.283 2.42a.82.82 0 0 0 1.194 1.125l.75-.796a26.78 26.78 0 0 0 16.19 24.965.82.82 0 0 0 .65-1.506m34.09-13.587a.82.82 0 0 0-1.077.428A25.09 25.09 0 0 1 29.342 55.13l1.013-.968a.82.82 0 0 0-1.134-1.186l-2.371 2.267a.82.82 0 0 0 .003 1.189l2.415 2.288a.821.821 0 0 0 1.128-1.191l-.794-.753q.205.004.409.005A26.73 26.73 0 0 0 54.58 40.59a.82.82 0 0 0-.427-1.08m4.554-9.277a.82.82 0 0 0-1.16-.007l-.77.762a26.76 26.76 0 0 0-3.403-14.357A26.1 26.1 0 0 0 41.393 5.615a.82.82 0 1 0-.682 1.492c9.29 4.248 14.97 13.83 14.411 24.1l-.94-1.05a.822.822 0 0 0-1.388.817.8.8 0 0 0 .165.276l2.189 2.445a.82.82 0 0 0 .586.273h.025a.82.82 0 0 0 .576-.237l2.366-2.339a.82.82 0 0 0 .007-1.16m-28.326 4.841a2.753 2.753 0 0 1-3.891 0c-.495-.494-.982-1.044-1.498-1.625-.516-.582-1.05-1.183-1.588-1.722a2.751 2.751 0 0 1 3.89-3.89l1.252 1.251 4.162-4.162a2.75 2.75 0 0 1 3.889 3.888c-1.04 1.04-2.09 2.1-3.105 3.127a906 906 0 0 1-3.111 3.133m-1.16-1.16c1.038-1.039 2.089-2.1 3.105-3.127s2.069-2.09 3.11-3.133a1.11 1.11 0 1 0-1.568-1.568l-4.742 4.742a.82.82 0 0 1-1.16 0l-1.832-1.832a1.11 1.11 0 0 0-1.57 1.57 41 41 0 0 1 1.655 1.794c.5.562.971 1.094 1.431 1.554a1.11 1.11 0 0 0 1.57 0m-2.397 13.879-.573-1.797a16.3 16.3 0 0 1-4.918-2.04l-1.665.867a1.85 1.85 0 0 1-2.174-.334l-1.985-1.985a1.85 1.85 0 0 1-.337-2.168l.868-1.677a16.3 16.3 0 0 1-2.038-4.92l-1.79-.563a1.85 1.85 0 0 1-1.3-1.774v-2.807a1.85 1.85 0 0 1 1.295-1.77l1.797-.573a16.3 16.3 0 0 1 2.04-4.918l-.867-1.665a1.85 1.85 0 0 1 .335-2.174l1.984-1.986a1.85 1.85 0 0 1 2.168-.337l1.677.868a16.3 16.3 0 0 1 4.92-2.038l.563-1.79a1.85 1.85 0 0 1 1.773-1.3h2.807a1.85 1.85 0 0 1 1.772 1.295l.572 1.797a16.3 16.3 0 0 1 4.918 2.04l1.666-.867a1.85 1.85 0 0 1 2.173.334l1.985 1.985a1.85 1.85 0 0 1 .337 2.168l-.867 1.677a16.3 16.3 0 0 1 2.038 4.92l1.789.563a1.85 1.85 0 0 1 1.3 1.773v2.807a1.85 1.85 0 0 1-1.294 1.772l-1.797.573a16.3 16.3 0 0 1-2.04 4.918l.867 1.665a1.85 1.85 0 0 1-.334 2.174l-1.985 1.985a1.85 1.85 0 0 1-2.168.336l-1.677-.867a16.3 16.3 0 0 1-4.92 2.038l-.563 1.79a1.85 1.85 0 0 1-1.774 1.3h-2.807a1.85 1.85 0 0 1-1.77-1.295m.228-3.302a.82.82 0 0 1 .62.555l.715 2.25a.205.205 0 0 0 .209.151h2.807a.205.205 0 0 0 .208-.153l.707-2.243a.82.82 0 0 1 .62-.558 14.6 14.6 0 0 0 5.223-2.162.82.82 0 0 1 .83-.045l2.098 1.084a.205.205 0 0 0 .255-.04l1.985-1.984a.204.204 0 0 0 .04-.256l-1.088-2.087a.82.82 0 0 1 .044-.833 14.6 14.6 0 0 0 2.166-5.222.82.82 0 0 1 .555-.619l2.25-.716a.205.205 0 0 0 .152-.208v-2.807a.205.205 0 0 0-.153-.209l-2.244-.706a.82.82 0 0 1-.558-.62 14.6 14.6 0 0 0-2.162-5.224.82.82 0 0 1-.045-.83l1.084-2.098a.206.206 0 0 0-.04-.255l-1.984-1.984a.205.205 0 0 0-.256-.04l-2.087 1.088a.82.82 0 0 1-.833-.044 14.6 14.6 0 0 0-5.222-2.167.82.82 0 0 1-.619-.555l-.716-2.249a.205.205 0 0 0-.208-.152h-2.807a.205.205 0 0 0-.209.153l-.706 2.244a.82.82 0 0 1-.62.557 14.6 14.6 0 0 0-5.223 2.163.82.82 0 0 1-.83.045l-2.1-1.085a.205.205 0 0 0-.254.04l-1.985 1.985a.206.206 0 0 0-.04.255l1.088 2.087a.82.82 0 0 1-.044.834 14.6 14.6 0 0 0-2.167 5.221.82.82 0 0 1-.554.62l-2.25.715a.205.205 0 0 0-.152.208v2.808a.205.205 0 0 0 .153.208l2.244.706a.82.82 0 0 1 .557.62 14.6 14.6 0 0 0 2.163 5.224.82.82 0 0 1 .045.83L16.63 41.09a.205.205 0 0 0 .04.255l1.984 1.985a.205.205 0 0 0 .256.039l2.087-1.088a.82.82 0 0 1 .833.045 14.6 14.6 0 0 0 5.222 2.166M30 40.508A10.508 10.508 0 1 1 40.508 30 10.52 10.52 0 0 1 30 40.508m0-1.64A8.868 8.868 0 1 0 21.132 30 8.88 8.88 0 0 0 30 38.868"/></svg>