<svg xmlns="http://www.w3.org/2000/svg" width="60" height="60" fill="none"><path fill="#282928" d="M30.228 30.544a.94.94 0 0 0-.938.938v11.346c0 .517.42.937.938.937h3.534c.517 0 .937-.42.937-.937V31.482a.94.94 0 0 0-.937-.938zm2.596 11.346h-1.659v-9.47h1.66zm-9.159-8.349a.94.94 0 0 0-.937.938v8.349c0 .517.42.937.937.937h3.534c.518 0 .938-.42.938-.937v-8.35a.94.94 0 0 0-.938-.937zm2.597 8.35h-1.66v-6.475h1.66zm15 .937V28.786a.94.94 0 0 0-.938-.938H36.79a.94.94 0 0 0-.938.938v14.042c0 .517.42.937.938.937h3.534c.518 0 .938-.42.938-.937m-1.875-.938h-1.66V29.723h1.66zm-4.278-19.975 2.823.195a.938.938 0 0 1 .84 1.184l-.75 2.73a.938.938 0 0 1-1.808-.497l.071-.258a78 78 0 0 1-11.051 6.078.938.938 0 0 1-.77-1.71 76.4 76.4 0 0 0 10.653-5.842l-.138-.01a.937.937 0 1 1 .13-1.87m-15.482-9.676.941.363q.229.748.596 1.438l-.41.923a.94.94 0 0 0 .195 1.043l1.6 1.6a.94.94 0 0 0 1.043.194l.923-.41q.69.368 1.438.596l.363.942c.139.362.486.6.874.6h2.263a.94.94 0 0 0 .875-.6l.362-.942a8 8 0 0 0 1.439-.596l.922.41c.355.157.77.08 1.044-.194l1.6-1.6a.94.94 0 0 0 .193-1.043l-.41-.923q.368-.69.596-1.438l.943-.363c.361-.139.6-.487.6-.875V9.102a.94.94 0 0 0-.6-.875l-.942-.362a8 8 0 0 0-.597-1.439l.41-.923a.94.94 0 0 0-.194-1.043l-1.6-1.6a.94.94 0 0 0-1.043-.194l-.923.41a8 8 0 0 0-1.438-.596l-.363-.942a.94.94 0 0 0-.874-.6H27.19a.94.94 0 0 0-.875.6l-.362.942a8 8 0 0 0-1.438.596l-.923-.41a.94.94 0 0 0-1.044.194l-1.6 1.6a.94.94 0 0 0-.193 1.043l.41.923q-.368.691-.597 1.439l-.941.362a.94.94 0 0 0-.601.875v2.262c0 .388.239.736.6.875M20.9 9.746l.784-.302a.94.94 0 0 0 .575-.658c.153-.641.406-1.251.752-1.814a.94.94 0 0 0 .06-.872l-.342-.77.689-.689.769.342a.94.94 0 0 0 .872-.059 6.2 6.2 0 0 1 1.814-.752.94.94 0 0 0 .658-.575l.302-.784h.975l.302.784a.94.94 0 0 0 .658.575 6.2 6.2 0 0 1 1.814.752c.263.162.59.184.872.059l.769-.342.69.69-.342.768a.94.94 0 0 0 .058.872c.347.563.6 1.174.753 1.815.071.3.287.547.575.658l.784.302v.974l-.784.302a.94.94 0 0 0-.575.658 6.2 6.2 0 0 1-.753 1.814.94.94 0 0 0-.058.872l.341.77-.69.689-.768-.342a.94.94 0 0 0-.872.059c-.562.346-1.173.6-1.815.752a.94.94 0 0 0-.657.575l-.302.785h-.975l-.302-.785a.94.94 0 0 0-.658-.575 6.2 6.2 0 0 1-1.814-.752.94.94 0 0 0-.872-.059l-.769.342-.69-.69.342-.768a.94.94 0 0 0-.058-.872 6.2 6.2 0 0 1-.753-1.815.94.94 0 0 0-.575-.658l-.784-.302zm7.42 5.37a4.89 4.89 0 0 0 4.884-4.883 4.89 4.89 0 0 0-4.883-4.883 4.89 4.89 0 0 0-4.883 4.883 4.89 4.89 0 0 0 4.883 4.883m0-7.89a3.01 3.01 0 0 1 3.008 3.007 3.01 3.01 0 0 1-3.008 3.008 3.01 3.01 0 0 1-3.007-3.008 3.01 3.01 0 0 1 3.008-3.008M19.71 32.838c0-5.143-4.184-9.328-9.327-9.328s-9.327 4.185-9.327 9.328 4.184 9.327 9.327 9.327 9.327-4.184 9.327-9.327M2.953 33.4a.94.94 0 0 0 .75.375h.723a.938.938 0 0 0 0-1.875h-.724a.94.94 0 0 0-.749.376 7.4 7.4 0 0 1 1.778-4.288c-.038.28.05.574.265.79l.512.511a.934.934 0 0 0 1.326 0 .937.937 0 0 0 0-1.325l-.513-.512a.94.94 0 0 0-.789-.265A7.4 7.4 0 0 1 9.82 25.41a.94.94 0 0 0-.376.749v.724a.938.938 0 0 0 1.875 0v-.724a.94.94 0 0 0-.375-.75 7.4 7.4 0 0 1 4.288 1.779.94.94 0 0 0-.79.265l-.512.512a.937.937 0 1 0 1.326 1.325l.512-.512a.94.94 0 0 0 .265-.79 7.4 7.4 0 0 1 1.778 4.289.94.94 0 0 0-.75-.376h-.723a.938.938 0 0 0 0 1.875h.724a.94.94 0 0 0 .749-.375 7.4 7.4 0 0 1-1.778 4.288.94.94 0 0 0-.265-.79l-.512-.512a.937.937 0 1 0-1.326 1.326l.513.512a.93.93 0 0 0 .789.265 7.4 7.4 0 0 1-4.288 1.778.94.94 0 0 0 .375-.75v-.723a.938.938 0 0 0-1.875 0v.724c0 .306.148.578.376.749a7.4 7.4 0 0 1-4.288-1.778q.063.01.126.01c.24 0 .48-.092.663-.275l.512-.512a.937.937 0 1 0-1.325-1.326l-.513.512a.94.94 0 0 0-.265.79A7.4 7.4 0 0 1 2.953 33.4m6.492-.562v-3.174a.938.938 0 0 1 1.875 0v2.633l1.65.953a.937.937 0 1 1-.937 1.623l-2.12-1.223a.94.94 0 0 1-.468-.812M39.892 55.01a.94.94 0 0 1-.572 1.197 25.6 25.6 0 0 1-8.548 1.457c-4.481 0-8.893-1.172-12.758-3.389a25.84 25.84 0 0 1-9.172-8.926.938.938 0 0 1 1.6-.977c4.365 7.15 11.965 11.417 20.33 11.417 2.718 0 5.384-.454 7.924-1.35a.94.94 0 0 1 1.196.571m-.644-46.29a.94.94 0 0 1 1.222-.514 25.66 25.66 0 0 1 11.503 9.294 25.54 25.54 0 0 1 4.475 14.488c0 2.482-.354 4.936-1.051 7.296a.938.938 0 1 1-1.798-.532c.647-2.187.974-4.462.974-6.764 0-9.72-5.814-18.373-14.812-22.046a.937.937 0 0 1-.513-1.222M7.634 20.843c1.797-3.724 4.507-7 7.836-9.475a.938.938 0 0 1 1.118 1.505 24 24 0 0 0-7.265 8.785.937.937 0 1 1-1.689-.815m42.114 19.825c-5.072 0-9.197 4.126-9.197 9.197 0 5.072 4.125 9.197 9.197 9.197s9.197-4.125 9.197-9.197-4.126-9.197-9.197-9.197m0 16.52c-4.038 0-7.322-3.285-7.322-7.323s3.284-7.322 7.322-7.322 7.322 3.285 7.322 7.322c0 4.038-3.285 7.322-7.322 7.322m3.566-5.502c.091.754-.113 1.444-.59 1.995-.469.543-1.2.928-2.038 1.093v.318a.938.938 0 0 1-1.876 0v-.334c-1.31-.296-2.31-1.198-2.622-2.444a.938.938 0 0 1 1.82-.454c.214.859 1.113 1.143 1.825 1.126.619-.014 1.21-.228 1.473-.531.129-.15.174-.317.147-.543-.032-.26-.105-.865-1.85-1.151-2.525-.415-3.115-1.748-3.166-2.793-.069-1.412.881-2.598 2.373-2.979v-.35a.938.938 0 0 1 1.875 0v.341c.966.236 1.877.865 2.359 2.013a.937.937 0 1 1-1.729.726c-.364-.869-1.26-1.091-1.986-.927-.177.04-1.058.281-1.019 1.084.01.213.038.778 1.597 1.034 2.079.341 3.225 1.275 3.407 2.776"/></svg>