<svg xmlns="http://www.w3.org/2000/svg" width="60" height="60" fill="none"><g fill="#282928" fill-rule="evenodd" clip-path="url(#a)" clip-rule="evenodd"><path d="M8.893 23.234c-1.898 0-3.48-1.582-3.48-3.48 0-.351.07-.633.105-.914H.878A.893.893 0 0 1 0 17.962V1.898c0-.457.422-.843.879-.843h16.063c.492 0 .879.386.879.843v6.116c0 .352-.211.633-.563.774a.81.81 0 0 1-.913-.141c-.352-.281-.739-.492-1.23-.492-1.02 0-1.793.773-1.793 1.757a1.8 1.8 0 0 0 1.792 1.793 1.82 1.82 0 0 0 1.23-.492 1.04 1.04 0 0 1 .914-.14c.317.14.492.456.492.772v6.046a.87.87 0 0 1-.878.879h-4.605c.07.316.14.633.14.949.036 1.933-1.581 3.515-3.514 3.515m-7.17-6.151h5.201c.352 0 .633.176.809.492.14.281.07.668-.176.914-.281.281-.422.738-.422 1.23 0 .949.809 1.758 1.758 1.758a1.77 1.77 0 0 0 1.792-1.758c0-.457-.14-.879-.492-1.23a.81.81 0 0 1-.14-.914.84.84 0 0 1 .773-.492h5.167v-3.761c-.281.105-.633.14-.914.14a3.48 3.48 0 0 1-3.515-3.515c0-1.898 1.547-3.444 3.515-3.444.352 0 .633.035.914.14V2.777H1.723zM16.942 58.946H.879A.893.893 0 0 1 0 58.067V42.074c0-.492.422-.879.879-.879h6.116c.316 0 .632.211.773.492.14.282.105.703-.14.95-.317.28-.458.702-.458 1.194a1.74 1.74 0 0 0 1.758 1.758c1.02 0 1.828-.773 1.828-1.758 0-.421-.176-.878-.492-1.195a.8.8 0 0 1-.141-.949.86.86 0 0 1 .773-.492h6.046a.87.87 0 0 1 .879.879v4.64c.28-.106.562-.14.878-.14 1.934 0 3.48 1.546 3.48 3.444 0 1.968-1.546 3.515-3.48 3.515-.316 0-.597-.035-.878-.14v4.639c-.07.527-.457.914-.879.914m-15.22-1.687h14.341V52.02c0-.351.176-.632.492-.773a.81.81 0 0 1 .914.14c.352.282.738.493 1.16.493 1.02 0 1.828-.844 1.828-1.793 0-.984-.844-1.757-1.828-1.757-.422 0-.808.175-1.16.492a.81.81 0 0 1-.914.14.84.84 0 0 1-.492-.773v-5.237h-3.76c.105.316.14.633.14.949 0 1.898-1.547 3.444-3.515 3.444a3.45 3.45 0 0 1-3.445-3.444c0-.352.035-.633.106-.95H1.722zM59.156 58.945H43.093a.893.893 0 0 1-.879-.879v-6.08c0-.352.211-.633.492-.774a.8.8 0 0 1 .95.14c.386.317.773.493 1.195.493.984 0 1.757-.809 1.757-1.828 0-.95-.773-1.758-1.757-1.758-.422 0-.809.176-1.195.493-.247.21-.598.246-.95.14a.87.87 0 0 1-.492-.773v-6.046c0-.492.422-.879.88-.879h4.639c-.106-.28-.14-.632-.14-.913 0-1.898 1.546-3.48 3.514-3.48 1.898 0 3.445 1.581 3.445 3.48 0 .351-.035.632-.07.913h4.604a.87.87 0 0 1 .879.88v15.992c0 .492-.387.879-.809.879m-15.184-1.687h14.306V42.952H53.11a.81.81 0 0 1-.774-.492c-.175-.281-.105-.668.141-.914.281-.281.422-.738.422-1.23 0-.95-.773-1.758-1.758-1.758a1.77 1.77 0 0 0-1.792 1.758c0 .457.14.878.492 1.23a.81.81 0 0 1 .14.914.84.84 0 0 1-.773.492h-5.237v3.76c.316-.105.633-.14.949-.14a3.45 3.45 0 0 1 3.444 3.445c0 1.968-1.546 3.515-3.444 3.515-.352 0-.633-.035-.95-.14zM59.157 18.77H53.11a.81.81 0 0 1-.773-.492c-.176-.281-.106-.668.14-.914.281-.352.422-.773.422-1.23 0-.95-.773-1.723-1.758-1.723-1.019 0-1.792.774-1.792 1.723 0 .457.14.843.492 1.23.176.246.246.598.14.914a.84.84 0 0 1-.773.492h-6.116a.893.893 0 0 1-.879-.879v-4.604c-.28.07-.632.14-.913.14-1.898 0-3.445-1.582-3.445-3.515 0-1.898 1.547-3.48 3.445-3.48.351 0 .632.07.913.106v-4.64c0-.457.422-.843.88-.843h15.992c.492 0 .879.386.879.843v15.993c0 .492-.387.879-.809.879m-4.675-1.687h3.796V2.777H43.972v5.237a.79.79 0 0 1-.527.774c-.352.14-.668.035-.914-.176-.316-.317-.703-.457-1.195-.457-.95 0-1.723.843-1.723 1.757 0 1.02.774 1.793 1.723 1.793.457 0 .879-.14 1.23-.492a.81.81 0 0 1 .914-.14c.316.14.492.456.492.772v5.167h3.76c-.105-.28-.14-.632-.14-.913 0-1.898 1.547-3.445 3.515-3.445a3.45 3.45 0 0 1 3.445 3.445c.07.351 0 .668-.07.984M31.705 40.914h-2.39a.865.865 0 0 1-.844-.633l-.668-2.777c-.387-.14-.738-.281-1.125-.527l-2.285 1.44c-.351.212-.773.142-1.09-.105l-1.686-1.687c-.317-.28-.352-.738-.14-1.019l1.51-2.496a5.3 5.3 0 0 1-.456-1.16l-2.637-.597c-.386-.106-.667-.422-.667-.809v-2.39c0-.386.246-.738.632-.843l2.812-.668c.14-.387.317-.809.492-1.125l-1.406-2.285a.9.9 0 0 1 .14-1.09l1.723-1.686a.82.82 0 0 1 1.02-.176l2.495 1.511a11 11 0 0 1 1.09-.422l.633-2.636c.105-.386.456-.668.843-.668h2.39c.387 0 .738.282.844.633l.668 2.812c.386.14.773.281 1.124.492l2.285-1.406c.352-.21.773-.14 1.09.14l1.687 1.688c.281.316.351.703.14 1.02l-1.44 2.495c.175.386.316.773.421 1.125l2.636.632a.865.865 0 0 1 .633.844v2.39c0 .387-.281.703-.633.808l-2.776.704c-.141.386-.282.703-.528 1.124l1.442 2.285c.21.316.14.773-.07 1.055l-1.829 1.652c-.28.316-.667.351-1.019.175l-2.495-1.476q-.58.315-1.16.422l-.598 2.6c-.07.352-.422.633-.808.633m-1.758-1.723h1.02l.527-2.425c.105-.352.351-.598.703-.633.562-.105 1.124-.351 1.687-.633a.9.9 0 0 1 .843 0l2.285 1.371.738-.738-1.37-2.144a.74.74 0 0 1 0-.914c.351-.597.597-1.125.738-1.617a1.12 1.12 0 0 1 .632-.632l2.566-.633v-1.02l-2.46-.597c-.352-.105-.598-.351-.633-.633-.105-.527-.351-1.124-.633-1.652a.74.74 0 0 1 0-.843l1.336-2.285-.703-.738-2.074 1.336c-.281.14-.633.14-.879 0-.456-.317-1.019-.528-1.652-.738a.92.92 0 0 1-.562-.633l-.633-2.601H30.37l-.562 2.46c-.106.352-.352.563-.633.633-.527.105-1.125.351-1.652.633a.75.75 0 0 1-.844-.07l-2.285-1.407-.738.738 1.3 2.145c.177.28.177.632 0 .878a7 7 0 0 0-.702 1.652c-.105.317-.352.492-.598.598l-2.636.633v1.124l2.496.527c.351.106.597.352.633.668.105.598.351 1.125.632 1.723a.81.81 0 0 1-.035.843l-1.441 2.285.738.738 2.144-1.37c.281-.212.633-.212.95 0q.843.474 1.58.737c.317.07.563.317.634.633z"/><path d="M30.685 34.024c-2.46 0-4.393-1.934-4.393-4.324a4.373 4.373 0 0 1 4.393-4.393c2.39 0 4.324 1.968 4.324 4.393.07 2.39-1.898 4.324-4.324 4.324m0-7.065c-1.476 0-2.706 1.23-2.706 2.706 0 1.441 1.23 2.636 2.706 2.636a2.655 2.655 0 0 0 2.636-2.636c.035-1.476-1.195-2.706-2.636-2.706M34.833 10.054H23.902a.87.87 0 0 1-.88-.878.87.87 0 0 1 .88-.88h10.966a.87.87 0 0 1 .879.88c0 .492-.422.878-.914.878"/><path d="M23.902 10.054a.92.92 0 0 1-.598-.246.916.916 0 0 1 0-1.23l2.355-2.32a.85.85 0 0 1 1.23 0 .916.916 0 0 1 0 1.23l-2.39 2.32c-.175.21-.386.246-.597.246"/><path d="M26.186 12.34c-.175 0-.421-.071-.562-.247l-2.32-2.285c-.316-.351-.316-.878 0-1.195a.85.85 0 0 1 1.23 0l2.355 2.285a.87.87 0 0 1 0 1.195c-.246.176-.457.246-.703.246M10.404 37.154a.87.87 0 0 1-.879-.879V25.308a.87.87 0 0 1 .88-.878.87.87 0 0 1 .878.878v10.967c-.07.492-.457.879-.879.879"/><path d="M10.404 37.154a.85.85 0 0 1-.597-.247l-2.285-2.32a.85.85 0 0 1 0-1.23.85.85 0 0 1 1.23 0l2.285 2.355a.81.81 0 0 1 0 1.195c-.211.141-.457.247-.633.247"/><path d="M10.404 37.154a.92.92 0 0 1-.597-.247.81.81 0 0 1 0-1.195l2.355-2.355a.81.81 0 0 1 1.195 0 .85.85 0 0 1 0 1.23l-2.32 2.32c-.211.141-.457.247-.633.247M37.505 50.65H26.538a.87.87 0 0 1-.879-.879c0-.457.387-.878.879-.878h10.967c.492 0 .878.421.878.878a.87.87 0 0 1-.879.879"/><path d="M35.22 52.969a.92.92 0 0 1-.597-.246.85.85 0 0 1 0-1.23l2.355-2.355a.87.87 0 0 1 1.195 0 .85.85 0 0 1 0 1.23l-2.32 2.355c-.211.14-.457.246-.633.246"/><path d="M37.505 50.65c-.211 0-.457-.07-.598-.246l-2.32-2.32a.85.85 0 0 1 0-1.23.81.81 0 0 1 1.195 0l2.355 2.355a.81.81 0 0 1 0 1.195c-.21.175-.386.246-.632.246M51.002 34.482a.87.87 0 0 1-.879-.879V22.672a.87.87 0 0 1 .879-.879.87.87 0 0 1 .878.879v10.966a.885.885 0 0 1-.878.844"/><path d="M53.287 25.834c-.176 0-.422-.07-.563-.21l-2.355-2.356a.85.85 0 0 1 0-1.23.916.916 0 0 1 1.23 0l2.32 2.355a.85.85 0 0 1 0 1.23c-.176.176-.386.211-.633.211"/><path d="M48.682 25.834c-.21 0-.457-.07-.598-.21a.85.85 0 0 1 0-1.231l2.32-2.355a.916.916 0 0 1 1.23 0 .85.85 0 0 1 0 1.23l-2.32 2.355a.97.97 0 0 1-.632.211"/></g><defs><clipPath id="a"><path fill="#fff" d="M0 0h60v60H0z"/></clipPath></defs></svg>