<svg xmlns="http://www.w3.org/2000/svg" width="60" height="60" fill="none"><path fill="#282928" fill-rule="evenodd" d="M36.692 32.746A6.7 6.7 0 0 0 30 26.054a6.7 6.7 0 0 0-6.691 6.692v8.434c0 .92.75 1.67 1.67 1.67h10.043c.921 0 1.67-.75 1.67-1.67zm-12.574-5.842a8.27 8.27 0 0 0-2.412 5.842v4.426h-5.537a.97.97 0 0 1-.968-.969v-7.948a4.567 4.567 0 0 1 4.561-4.561 4.59 4.59 0 0 1 4.356 3.21m-4.355-4.812a2.266 2.266 0 0 0 2.263-2.264 2.266 2.266 0 0 0-2.264-2.263 2.265 2.265 0 0 0-2.262 2.263 2.265 2.265 0 0 0 2.262 2.264m7.372-.506A2.87 2.87 0 0 0 30 24.452a2.87 2.87 0 0 0 2.865-2.866A2.87 2.87 0 0 0 30 18.722a2.867 2.867 0 0 0-2.865 2.864m8.747 5.318a4.58 4.58 0 0 1 4.355-3.21 4.567 4.567 0 0 1 4.562 4.562v7.947a.97.97 0 0 1-.968.969h-5.537v-4.426a8.27 8.27 0 0 0-2.412-5.842m4.355-4.812a2.265 2.265 0 0 0 2.263-2.264 2.265 2.265 0 0 0-2.263-2.263 2.266 2.266 0 0 0-2.264 2.263 2.266 2.266 0 0 0 2.264 2.264m-5.215 22.36H24.978a3.277 3.277 0 0 1-3.272-3.272v-2.406h-5.537a2.573 2.573 0 0 1-2.57-2.57v-7.948a6.17 6.17 0 0 1 3.55-5.582 3.86 3.86 0 0 1-1.251-2.846 3.87 3.87 0 0 1 3.864-3.865 3.87 3.87 0 0 1 3.866 3.865 3.85 3.85 0 0 1-1.257 2.85 6.22 6.22 0 0 1 3.054 3.153 8.3 8.3 0 0 1 1.671-.854 4.46 4.46 0 0 1-1.563-3.391A4.473 4.473 0 0 1 30 17.119a4.473 4.473 0 0 1 4.468 4.467 4.46 4.46 0 0 1-1.565 3.39c.592.223 1.152.51 1.67.855a6.22 6.22 0 0 1 3.056-3.153 3.86 3.86 0 0 1-1.258-2.85 3.87 3.87 0 0 1 3.866-3.865 3.87 3.87 0 0 1 3.865 3.865c0 1.125-.482 2.14-1.252 2.846a6.17 6.17 0 0 1 3.551 5.582v7.947a2.573 2.573 0 0 1-2.57 2.57h-5.537v2.407a3.277 3.277 0 0 1-3.272 3.273m-4.411 1.038 2.08 2.451a.8.8 0 0 1-1.222 1.037l-.668-.787v7.45c0 .442-.359.8-.801.8-5.751 0-11.22-1.815-15.813-5.248-4.44-3.32-7.79-8.047-9.433-13.313a.8.8 0 1 1 1.53-.477c3.172 10.173 12.32 17.09 22.915 17.423v-6.635l-.668.787a.801.801 0 0 1-1.222-1.037l2.08-2.45c.357-.415.974-.333 1.222-.001m-1.222-30.979-2.08-2.451a.8.8 0 0 1 1.222-1.038l.668.788V4.362a.8.8 0 0 1 .8-.801c5.752 0 11.22 1.814 15.814 5.247 4.441 3.32 7.791 8.047 9.433 13.313a.802.802 0 0 1-1.53.476c-3.172-10.172-12.32-17.09-22.915-17.422v6.635l.668-.788a.802.802 0 0 1 1.222 1.038l-2.08 2.451-.283.212c-.366.154-.671.056-.94-.212M7.075 31.471c-.57.483-.22 1.41.518 1.41a.8.8 0 0 0 .519-.189l2.507-2.134c.337-.361.278-.9-.057-1.168l-2.45-2.081a.802.802 0 0 0-1.037 1.222l.787.67H5.175c.333-10.597 7.25-19.744 17.423-22.916a.802.802 0 0 0-.478-1.53c-5.266 1.642-9.993 4.991-13.313 9.433C5.375 18.782 3.56 24.25 3.56 30.001c0 .442.359.801.801.801h3.5zM56.44 30a.8.8 0 0 0-.8-.8h-3.501l.787-.67a.802.802 0 0 0-1.037-1.222l-2.451 2.08c-.324.26-.394.771-.078 1.145l2.529 2.158a.802.802 0 0 0 1.037-1.222l-.787-.668h2.686c-.333 10.596-7.25 19.742-17.423 22.914a.8.8 0 0 0 .478 1.53c5.266-1.642 9.994-4.991 13.313-9.434 3.432-4.593 5.247-10.06 5.247-15.811" clip-rule="evenodd"/></svg>