<svg xmlns="http://www.w3.org/2000/svg" width="60" height="60"><defs><clipPath id="a"><path d="M0 0h60v60H0z"/></clipPath></defs><g fill="#282928" fill-rule="evenodd" clip-path="url(#a)"><path d="M16.317 55.257H8.974a.887.887 0 0 1-.887-.887v-9.913c0-6.947 5.692-10.749 12.639-10.749a16.5 16.5 0 0 0 4.742-1.022 6.83 6.83 0 0 0 8.3 0 16.5 16.5 0 0 0 4.742 1.023c6.947 0 12.639 3.8 12.639 10.749v9.912a.89.89 0 0 1-.887.887h-7.345a.872.872 0 0 0 0 1.744h7.343a2.63 2.63 0 0 0 2.631-2.631v-9.913c0-7.977-6.406-12.493-14.383-12.493a16.5 16.5 0 0 1-4.635-1.073.87.87 0 0 0-.776.131 5.36 5.36 0 0 1-6.961 0 .87.87 0 0 0-.776-.131 16.5 16.5 0 0 1-4.635 1.073c-7.977 0-14.382 4.516-14.382 12.493v9.912A2.63 2.63 0 0 0 8.974 57h7.343a.872.872 0 0 0 0-1.744Z"/><path d="M28.745 37.735v1.168a.872.872 0 0 0 1.743 0v-1.168a.872.872 0 1 0-1.743 0M33.873 30.892a.87.87 0 0 0-.776.131 6.05 6.05 0 0 1-3.187 1.294.872.872 0 0 0-.636 1.4l2.123 2.769a2.044 2.044 0 0 0 2.721.482l5.335-3.391a.872.872 0 0 0-.446-1.607q-.248-.006-.5-.006a16.5 16.5 0 0 1-4.634-1.072m2.541 2.552L33.182 35.5a.3.3 0 0 1-.4-.071l-1.262-1.648a8.4 8.4 0 0 0 2.246-1.1c.893.281 1.778.563 2.649.76Z"/><path d="M26.136 31.022a.87.87 0 0 0-.776-.131 16.5 16.5 0 0 1-4.635 1.073q-.25 0-.5.006a.871.871 0 0 0-.446 1.607l5.335 3.393a2.044 2.044 0 0 0 2.722-.484l2.12-2.77a.872.872 0 0 0-.636-1.4 6.05 6.05 0 0 1-3.187-1.294Zm-.668 1.664a8.4 8.4 0 0 0 2.245 1.1l-1.257 1.643a.3.3 0 0 1-.4.071l-3.232-2.056c.871-.2 1.756-.478 2.649-.76Z"/><path d="M26.486 31.823c.091-.791.164-1.609.221-2.44a.872.872 0 0 0-1.739-.118c-.055.8-.126 1.595-.213 2.36a.872.872 0 1 0 1.732.2Zm5.913-5.932a56 56 0 0 0 .349 5.928.872.872 0 1 0 1.732-.2 54 54 0 0 1-.338-5.741.872.872 0 1 0-1.743.01ZM7.508 52.712h6.318a.872.872 0 0 0 0-1.743H7.508a.872.872 0 1 0 0 1.743M45.408 52.712h6.317a.872.872 0 0 0 0-1.743h-6.317a.872.872 0 1 0 0 1.743"/><path d="M36.708 13.059c.033.846.049 5.545.05 5.662a7.14 7.14 0 0 1-2.092 5.049 18 18 0 0 1-3.386 2.289l-.029.017a3.13 3.13 0 0 1-3.286 0l-.029-.017a18 18 0 0 1-3.368-2.28 7.14 7.14 0 0 1-2.092-5.049c0-.116.017-4.816.05-5.662a.9.9 0 0 0 .008-.267.8.8 0 0 0-.356-.608.84.84 0 0 0-.654-.155.85.85 0 0 0-.492.26.97.97 0 0 0-.246.654c-.035.758-.053 5.774-.053 5.774a8.88 8.88 0 0 0 2.6 6.282 20 20 0 0 0 3.73 2.558 4.87 4.87 0 0 0 5.1 0 20 20 0 0 0 3.739-2.555 8.88 8.88 0 0 0 2.6-6.282s-.019-5.016-.053-5.774a.97.97 0 0 0-.246-.654.85.85 0 0 0-.492-.26.882.882 0 0 0-1 1.03Zm1.477.456a.78.78 0 0 0 .245-.5.87.87 0 0 1-.245.504Zm-17.138 0a.87.87 0 0 1-.245-.5.78.78 0 0 0 .245.504Z"/><path d="M27.151 23.211a5.14 5.14 0 0 0 4.92.006.872.872 0 1 0-.78-1.559 3.49 3.49 0 0 1-3.337.006.872.872 0 1 0-.8 1.547ZM20.802 13.016a.87.87 0 0 0 .672.74c3.976.9 7.636.86 10.447-1.544l.006-.006a.27.27 0 0 1 .361 0l.021.018a7.27 7.27 0 0 0 5.3 1.549.87.87 0 0 0 .818-.76 8.885 8.885 0 1 0-17.628 0Zm1.678-.828c0-.1-.006-.2-.006-.3a7.142 7.142 0 0 1 14.284 0v.159a5.22 5.22 0 0 1-3.3-1.13 2.02 2.02 0 0 0-2.678-.025c-2.244 1.919-5.15 1.935-8.3 1.3ZM17.455 40.682h-2.981a2.632 2.632 0 0 0-2.6 3.064l1.848 11.057a2.63 2.63 0 0 0 2.595 2.2h26.6a2.63 2.63 0 0 0 2.595-2.2l1.843-11.057a2.63 2.63 0 0 0-2.595-3.064H20.806a.872.872 0 1 0 0 1.743h23.955a.887.887 0 0 1 .875 1.033l-1.844 11.058a.89.89 0 0 1-.875.742h-26.6a.89.89 0 0 1-.875-.742l-1.843-11.057a.888.888 0 0 1 .875-1.034h2.981a.872.872 0 0 0 0-1.743"/><path d="M34.457 48.569a2.045 2.045 0 0 0-2.017-2.38h-5.647a2.045 2.045 0 0 0-2.017 2.38l.2 1.216a2.045 2.045 0 0 0 2.019 1.709h5.242a2.045 2.045 0 0 0 2.017-1.709Zm-1.72-.287-.2 1.216a.3.3 0 0 1-.3.252h-5.242a.3.3 0 0 1-.3-.252l-.2-1.216a.3.3 0 0 1 .3-.35h5.648a.3.3 0 0 1 .3.35ZM47.664 27.7l3.974-11.325a.872.872 0 1 0-1.645-.577l-3.975 11.324a.872.872 0 0 0 1.645.578ZM44.326 23.673l-2.117-2.117a.3.3 0 0 1 0-.426l2.117-2.118a.872.872 0 1 0-1.233-1.233l-2.117 2.117a2.045 2.045 0 0 0 0 2.892l2.117 2.117a.872.872 0 0 0 1.233-1.232M54.89 24.906l2.118-2.115a2.046 2.046 0 0 0 0-2.892l-2.118-2.117a.872.872 0 0 0-1.233 1.233l2.117 2.117a.3.3 0 0 1 0 .426l-2.117 2.117a.872.872 0 0 0 1.233 1.233ZM3.267 13.207h7.987a.872.872 0 0 0 0-1.744H3.267a.872.872 0 0 0 0 1.744M3.267 16.869h11.89a.872.872 0 0 0 0-1.744H3.267a.872.872 0 0 0 0 1.744M3.267 24.196h11.89a.872.872 0 0 0 0-1.744H3.267a.872.872 0 0 0 0 1.744M3.267 20.532h5.011a.872.872 0 0 0 0-1.743H3.267a.872.872 0 1 0 0 1.743M11.837 20.532h3.32a.872.872 0 1 0 0-1.743h-3.32a.872.872 0 1 0 0 1.743"/></g></svg>