<svg xmlns="http://www.w3.org/2000/svg" width="60" height="60"><defs><clipPath id="a"><path d="M0 0h60v60H0z"/></clipPath></defs><g clip-path="url(#a)"><g fill="none" stroke="#282928" stroke-linecap="round" stroke-linejoin="round" transform="translate(3.464 10.517)"><circle cx="1.175" cy="1.175" r="1.175" stroke-width="3" transform="translate(9.498 28.211)"/><path stroke-width="1.6" d="M2.351 14.106h7.053v7.053H2.351ZM9.404 14.106h7.053v7.053H9.404Z"/><path d="M16.457 14.106h7.053v7.053h-7.053Z"/><path stroke-width="1.6" d="M23.509 14.106h7.053v7.053h-7.053ZM9.404 7.053h7.053v7.053H9.404ZM16.457 7.053h7.053v7.053h-7.053Z"/><path stroke-width="1.6" d="M23.509 7.053h7.053v7.053h-7.053ZM23.509 0h7.053v7.053h-7.053ZM30.562 14.106h7.053v7.053h-7.053Z"/><path stroke-width="1.6" d="M54.072 18.808s-4.114-2.633-7.053-1.175a8.11 8.11 0 0 0-3.527-5.878 8.56 8.56 0 0 0-1.364 6.771 2.35 2.35 0 0 1-2.35 2.629H0c0 14.693 9 18.807 17.632 18.807A32.35 32.35 0 0 0 45.984 23.51a11 11 0 0 0 8.087-4.7Z"/></g></g></svg>