<svg xmlns="http://www.w3.org/2000/svg" width="60" height="60"><defs><clipPath id="a"><path d="M0 0h60v60H0z"/></clipPath></defs><g fill="#282928" clip-path="url(#a)"><path d="m29.299 3.29-2.618 3.49 1.4 1.047 1.047-1.4v6.111h1.745V6.431l1.047 1.4 1.4-1.047-2.618-3.49a.908.908 0 0 0-1.4 0ZM11.866 57.037a18.1 18.1 0 0 1 2.949-7.626l.707.148a1.06 1.06 0 0 1 .681.471 1.04 1.04 0 0 1 .131.82l-.262 1.047a2.76 2.76 0 0 0 .384 2.234l.977 1.466c.1.14.14.227.061.558l-.332.654a2 2 0 0 0-.148.227h1.99l.087-.166a.7.7 0 0 0 .079-.192 2.38 2.38 0 0 0-.288-2.059l-.978-1.465a1 1 0 0 1-.14-.829l.262-1.047a2.8 2.8 0 0 0-2.05-3.4 18.35 18.35 0 0 1 8.394-5.654l.82.323a.82.82 0 0 1 .445.445.78.78 0 0 1-.017.611l-2.575 5.786a2.53 2.53 0 0 0 .916 3.132l.663.445a.786.786 0 0 1 .305.9l-.471 1.413a3.2 3.2 0 0 0 0 1.762h1.832a2 2 0 0 1-.183-1.213l.471-1.413a2.53 2.53 0 0 0-.995-2.9l-.663-.445a.8.8 0 0 1-.288-.977l2.574-5.786a2.54 2.54 0 0 0-.4-2.687 17.4 17.4 0 0 1 3.185-.288 18.14 18.14 0 0 1 8.507 2.1l-2.007 6a1.976 1.976 0 0 0 3.071 2.19.236.236 0 0 1 .314.052.2.2 0 0 1 .044.175l-.314 1.898a1.976 1.976 0 0 0 3.219 1.842l3.952-3.3a18 18 0 0 1 1.352 4.729h1.762a20.064 20.064 0 0 0-39.787 0h1.762Zm28.182-12.7a18.3 18.3 0 0 1 5.924 6.361l-4.268 3.564a.21.21 0 0 1-.253.017.23.23 0 0 1-.122-.244l.314-1.885a1.95 1.95 0 0 0-.428-1.6 2.025 2.025 0 0 0-2.7-.314.2.2 0 0 1-.27 0 .21.21 0 0 1-.087-.262l1.885-5.645Z"/><path d="M37.85 15.156H22.145a.875.875 0 0 0-.873.873v8.727h-9.6a.875.875 0 0 0-.87.87v19.2h1.745V26.499h8.725v11.342h1.745v-20.94h13.96v20.94h1.745V26.499h8.725v18.322h1.745V25.626a.875.875 0 0 0-.873-.873h-9.6v-8.724a.875.875 0 0 0-.869-.873"/><path d="M26.507 33.48v4.363h1.745v-3.49h3.49v3.49h1.745V33.48a.875.875 0 0 0-.872-.873H27.38a.875.875 0 0 0-.873.873M28.252 18.646h-2.617a.875.875 0 0 0-.873.873v2.617a.875.875 0 0 0 .873.873h2.617a.875.875 0 0 0 .873-.873v-2.617a.875.875 0 0 0-.873-.873m-.873 2.618h-.873v-.873h.873ZM31.743 23.009h2.617a.875.875 0 0 0 .873-.873v-2.617a.875.875 0 0 0-.873-.873h-2.617a.875.875 0 0 0-.873.873v2.617a.875.875 0 0 0 .873.873m.873-2.618h.873v.873h-.873ZM24.762 29.117a.875.875 0 0 0 .873.873h2.617a.875.875 0 0 0 .873-.873V26.5a.875.875 0 0 0-.873-.873h-2.617a.875.875 0 0 0-.873.873Zm1.745-1.745h.873v.873h-.873ZM30.87 29.117a.875.875 0 0 0 .873.873h2.617a.875.875 0 0 0 .873-.873V26.5a.875.875 0 0 0-.873-.873h-2.617a.875.875 0 0 0-.873.873Zm1.745-1.745h.873v.873h-.873ZM14.292 29.117h5.235v1.745h-5.235ZM14.292 33.479h5.235v1.745h-5.235ZM40.467 29.117h5.235v1.745h-5.235ZM40.467 33.479h5.235v1.745h-5.235ZM14.292 37.842h5.235v1.745h-5.235ZM40.467 37.842h5.235v1.745h-5.235ZM45.85 16.238l4.319-4.32-.244 1.728 1.728.244.619-4.319a.9.9 0 0 0-.244-.742.86.86 0 0 0-.742-.244l-4.319.619.244 1.728 1.728-.244-4.319 4.32ZM13.035 9.205l-4.319-.619a.88.88 0 0 0-.742.244.87.87 0 0 0-.244.742l.622 4.319 1.728-.244-.247-1.73 4.319 4.321 1.23-1.23-4.319-4.319 1.728.244Z"/></g></svg>