<svg xmlns="http://www.w3.org/2000/svg" width="60" height="60"><defs><clipPath id="a"><path d="M0 0h60v60H0z"/></clipPath></defs><g fill="#282928" clip-path="url(#a)"><path d="M11.446 9.604h1.939v1.745h-1.939zM46.615 9.604h1.939v1.745h-1.939zM11.446 48.652h1.939v1.745h-1.939zM46.615 48.652h1.939v1.745h-1.939z"/><path d="M57.048 26.079v-9.371h-9.367v3.909h-3.175l-3.068 1.771-10.564-6.1v-3.969h3.812V2.948h-9.371v9.371h3.814v3.97l-10.567 6.1-3.069-1.772h-3.174v-3.909H2.948v9.371h9.371v-3.717h2.706l2.664 1.538v12.2l-2.664 1.538h-2.706v-3.717H2.948v9.371h9.371v-3.908h3.174l3.068-1.771 10.568 6.1v3.968h-3.814v9.367h9.371v-9.367h-3.812v-3.97l10.564-6.1 3.068 1.771h3.174v3.909h9.368v-9.37h-9.367v3.717h-2.707L42.311 36.1V23.9l2.664-1.538h2.706v3.717ZM27.06 4.693h5.88v5.88h-5.88ZM10.574 24.334H4.693v-5.88h5.88Zm0 17.213H4.693v-5.88h5.88ZM32.94 55.306h-5.88v-5.88h5.88Zm16.486-19.64h5.88v5.882h-5.88ZM30 28.992l-9.693-5.6L30 17.797l9.693 5.6Zm-10.566-4.085 9.694 5.6v11.191l-9.694-5.6Zm11.44 16.789V30.503l9.691-5.6v11.198Zm18.552-23.243h5.88v5.88h-5.88Z"/></g></svg>