<svg xmlns="http://www.w3.org/2000/svg" width="60" height="60"><defs><clipPath id="a"><path d="M0 0h60v60H0z"/></clipPath></defs><g fill="#282928" clip-path="url(#a)"><path d="M40.65 19.199a2.69 2.69 0 0 0-2.541-1.811h-.9v-1.8h.9a2.71 2.71 0 0 0 2.7-2.7V5.673a2.71 2.71 0 0 0-2.7-2.7H5.673a2.71 2.71 0 0 0-2.7 2.7v7.21a2.71 2.71 0 0 0 2.7 2.7h.9v1.8h-.9a2.71 2.71 0 0 0-2.7 2.7v7.207a2.71 2.71 0 0 0 2.7 2.7h.9v1.8h-.9a2.71 2.71 0 0 0-2.7 2.7v7.223a2.71 2.71 0 0 0 2.7 2.7h17.12v7.21c0 3.55 8.613 5.406 17.118 5.406s17.118-1.856 17.118-5.406V24.595c0-3.45-8.118-5.288-16.379-5.396M5.673 13.784a.9.9 0 0 1-.9-.9V5.673a.9.9 0 0 1 .9-.9h32.436a.9.9 0 0 1 .9.9v7.21a.9.9 0 0 1-.9.9Zm29.731 1.8v1.8h-3.6v-1.8Zm-5.406 0v1.8H13.784v-1.8Zm-18.019 0v1.8h-3.6v-1.8Zm10.814 27.03H5.673a.9.9 0 0 1-.9-.9v-7.209a.9.9 0 0 1 .9-.9h17.12ZM8.379 31.803v-1.8h3.6v1.8Zm14.415 0h-9.01v-1.8h9.009Zm0-7.207v3.6H5.673a.9.9 0 0 1-.9-.9v-7.205a.9.9 0 0 1 .9-.9h32.436a.6.6 0 0 1 .126.027c-7.928.224-15.442 2.062-15.442 5.377Zm32.433 27.027c0 1.225-5.406 3.6-15.316 3.6s-15.316-2.378-15.316-3.6v-6.469c2.964 1.883 9.153 2.865 15.316 2.865s12.352-.982 15.316-2.865Zm0-9.009c0 1.225-5.406 3.6-15.316 3.6s-15.316-2.378-15.316-3.6v-6.469c2.964 1.883 9.153 2.865 15.316 2.865s12.352-.982 15.316-2.865Zm0-9.009c0 1.225-5.406 3.6-15.316 3.6s-15.316-2.378-15.316-3.6v-6.469c2.964 1.883 9.153 2.865 15.316 2.865s12.352-.982 15.316-2.865Zm-15.316-5.406c-9.91 0-15.316-2.378-15.316-3.6s5.406-3.6 15.316-3.6 15.316 2.378 15.316 3.6-5.406 3.6-15.316 3.6"/><path d="M39.01 32.704h1.8v1.8h-1.8ZM39.01 42.614h1.8v1.8h-1.8ZM39.01 50.722h1.8v1.8h-1.8ZM11.077 20.992h-3.6a.9.9 0 0 0-.9.9v3.6a.9.9 0 0 0 .9.9h3.6a.9.9 0 0 0 .9-.9v-3.6a.9.9 0 0 0-.9-.9m-.9 3.6h-1.8v-1.8h1.8ZM18.284 20.992h-3.6a.9.9 0 0 0-.9.9v3.6a.9.9 0 0 0 .9.9h3.6a.9.9 0 0 0 .9-.9v-3.6a.9.9 0 0 0-.9-.9m-.9 3.6h-1.8v-1.8h1.8ZM11.077 6.577h-3.6a.9.9 0 0 0-.9.9v3.6a.9.9 0 0 0 .9.9h3.6a.9.9 0 0 0 .9-.9v-3.6a.9.9 0 0 0-.9-.9m-.9 3.6h-1.8v-1.8h1.8ZM18.284 6.577h-3.6a.9.9 0 0 0-.9.9v3.6a.9.9 0 0 0 .9.9h3.6a.9.9 0 0 0 .9-.9v-3.6a.9.9 0 0 0-.9-.9m-.9 3.6h-1.8v-1.8h1.8ZM20.992 6.577h12.613v1.8H20.992ZM35.406 6.577h1.8v1.8h-1.8ZM20.992 10.18h12.613v1.8H20.992ZM35.406 10.18h1.8v1.8h-1.8ZM11.077 35.406h-3.6a.9.9 0 0 0-.9.9v3.6a.9.9 0 0 0 .9.9h3.6a.9.9 0 0 0 .9-.9v-3.6a.9.9 0 0 0-.9-.9m-.9 3.6h-1.8v-1.8h1.8ZM18.284 35.406h-3.6a.9.9 0 0 0-.9.9v3.6a.9.9 0 0 0 .9.9h3.6a.9.9 0 0 0 .9-.9v-3.6a.9.9 0 0 0-.9-.9m-.9 3.6h-1.8v-1.8h1.8Z"/></g></svg>