<svg xmlns="http://www.w3.org/2000/svg" width="60" height="60"><defs><clipPath id="a"><path d="M0 0h60v60H0z"/></clipPath></defs><g clip-path="url(#a)"><g fill="#282928" transform="translate(1.72 1.749)"><circle cx=".861" cy=".861" r=".861" transform="translate(22.073 43.121)"/><path d="M52.931 24.62H44.6v-1.4a9.9 9.9 0 0 0 2.383-.944l1.788 1.08a1.34 1.34 0 0 0 .689.2 1.33 1.33 0 0 0 .936-.391l1.204-1.216a1.324 1.324 0 0 0 .2-1.624l-1.081-1.786a10 10 0 0 0 .9-2.169l2.026-.5a1.32 1.32 0 0 0 1-1.284v-1.711a1.32 1.32 0 0 0-1-1.284l-2.026-.5a9.7 9.7 0 0 0-.9-2.169L51.8 7.135a1.324 1.324 0 0 0-.2-1.624l-1.206-1.216a1.33 1.33 0 0 0-1.626-.2l-1.788 1.08a10 10 0 0 0-2.171-.9l-.5-2.024a1.31 1.31 0 0 0-1.285-1H41.3a1.32 1.32 0 0 0-1.285 1l-.5 2.024a9.7 9.7 0 0 0-2.171.9L35.558 4.1a1.33 1.33 0 0 0-1.626.2l-1.209 1.2a1.31 1.31 0 0 0-.2 1.624l1.081 1.786a9.7 9.7 0 0 0-.9 2.169l-2.026.5a1.31 1.31 0 0 0-1 1.284v1.709c0 .043.017.077.017.111H3.629a2.353 2.353 0 0 0-2.349 2.351V45.94a2.353 2.353 0 0 0 2.349 2.347H16.04v2.271h-2.869a2.353 2.353 0 0 0-2.349 2.347v1.709a.643.643 0 0 0 .638.638h41.47a2.353 2.353 0 0 0 2.349-2.347V26.967a2.353 2.353 0 0 0-2.349-2.347ZM42.248 14.7h-4.281a4.2 4.2 0 0 1-.128-.969 4.324 4.324 0 0 1 8.648 0 4.28 4.28 0 0 1-1.89 3.555v-.238a2.353 2.353 0 0 0-2.349-2.348m-11.261-1.876 2.392-.587a.64.64 0 0 0 .468-.476 8.4 8.4 0 0 1 1.047-2.509.62.62 0 0 0 0-.663l-1.268-2.168L34.9 5.2l2.113 1.28a.62.62 0 0 0 .664 0 8.6 8.6 0 0 1 2.511-1.046.65.65 0 0 0 .477-.468l.635-2.432 1.762.034.587 2.39a.64.64 0 0 0 .477.468 8.5 8.5 0 0 1 2.514 1.046.62.62 0 0 0 .664 0L49.475 5.2l1.217 1.28-1.277 2.109a.64.64 0 0 0 0 .663 8.5 8.5 0 0 1 1.047 2.509.65.65 0 0 0 .468.476l2.434.638-.034 1.76-2.392.587a.64.64 0 0 0-.468.476 8.4 8.4 0 0 1-1.047 2.509.62.62 0 0 0 0 .663l1.268 2.169-1.277 1.216L47.3 20.98a.64.64 0 0 0-.664 0 8.4 8.4 0 0 1-2.051.91v-3.155a5.589 5.589 0 1 0-8.035-5.018 5.3 5.3 0 0 0 .094.969h-5.47a.6.6 0 0 0-.23-.111ZM3.629 47.012a1.08 1.08 0 0 1-1.072-1.072v-4.983h23.016v6.055Zm21.944 1.276v2.271h-8.256v-2.272ZM12.1 53.977v-1.072a1.08 1.08 0 0 1 1.073-1.072h12.41v1.072a2.3 2.3 0 0 0 .272 1.072Zm13.474-27.01v12.705H2.557v-22.63A1.073 1.073 0 0 1 3.63 15.97h38.618a1.08 1.08 0 0 1 1.073 1.072v7.578h-15.4a2.353 2.353 0 0 0-2.349 2.347ZM54 52.905a1.08 1.08 0 0 1-1.073 1.072H27.922a1.08 1.08 0 0 1-1.073-1.072V31.542H54Zm0-22.638H26.85v-3.291a1.073 1.073 0 0 1 1.072-1.076h25.009A1.073 1.073 0 0 1 54 26.976Z"/><path d="M9.559 22.622a.643.643 0 0 0-.9 0l-2.9 2.9a.643.643 0 0 0 0 .9l2.9 2.9a.64.64 0 0 0 .9 0 .643.643 0 0 0 0-.9l-2.446-2.449 2.446-2.447a.63.63 0 0 0 0-.9ZM18.304 22.622a.639.639 0 0 0-.9.9l2.448 2.448-2.448 2.448a.643.643 0 0 0 0 .9.64.64 0 0 0 .9 0l2.9-2.9a.64.64 0 0 0 0-.9ZM16.321 19.876a.65.65 0 0 0-.853.307l-5.151 11.044a.64.64 0 0 0 .307.853.6.6 0 0 0 .273.06.65.65 0 0 0 .58-.367l5.151-11.044a.64.64 0 0 0-.307-.853M29.624 48.174h8.22a.64.64 0 0 0 0-1.279h-8.22a.64.64 0 0 0 0 1.279M29.629 51.824h3.931a.64.64 0 0 0 0-1.279h-3.931a.64.64 0 0 0 0 1.279M51.213 46.895h-8.221a.64.64 0 1 0 0 1.279h8.221a.64.64 0 0 0 0-1.279M46.923 50.545h-3.931a.64.64 0 0 0 0 1.279h3.931a.64.64 0 0 0 0-1.279M28.972 44.041a.6.6 0 0 0 .026.128v.009a1 1 0 0 0 .119.179.2.2 0 0 0 .043.034.8.8 0 0 0 .136.094c.017.009.043.017.06.026a.6.6 0 0 0 .222.043h21.627a.6.6 0 0 0 .222-.043c.017-.009.043-.017.06-.026a.8.8 0 0 0 .136-.094q.028-.024.043-.034a.5.5 0 0 0 .119-.179v-.007a.5.5 0 0 0 .026-.111.7.7 0 0 0 .026-.136v-9.63a1 1 0 0 0-.026-.136.5.5 0 0 0-.026-.111v-.009c-.009-.026-.034-.043-.051-.068a.5.5 0 0 0-.094-.128.4.4 0 0 0-.094-.06.5.5 0 0 0-.119-.068 1 1 0 0 0-.136-.026.4.4 0 0 0-.1-.017h-21.6c-.034 0-.06.017-.094.017a1 1 0 0 0-.145.026.4.4 0 0 0-.1.068c-.034.026-.068.043-.1.068a.4.4 0 0 0-.094.136.3.3 0 0 0-.043.068v.009a.7.7 0 0 0-.026.128.6.6 0 0 0-.026.119v9.637c-.009.017.009.06.017.094Zm3.624-.759 7.8-3.471 7.8 3.471Zm17.977-.35-8.6-3.829 8.6-3.832Zm-2.368-7.99-7.8 3.471-7.8-3.471Zm-17.977.341 8.6 3.829-8.6 3.829ZM29.863 27.22a.857.857 0 1 0 .861.853.857.857 0 0 0-.861-.853M32.944 27.22a.857.857 0 1 0 .861.853.857.857 0 0 0-.861-.853M36.025 27.22a.857.857 0 1 0 .861.853.857.857 0 0 0-.861-.853"/></g></g></svg>