<svg xmlns="http://www.w3.org/2000/svg" width="60" height="60" fill="none"><g fill="#282928" clip-path="url(#a)"><path d="M53.485 54.485h-2.819a.879.879 0 0 0 0 1.758h2.819a.06.06 0 0 1 .06.06v1.879a.06.06 0 0 1-.06.06H6.514a.06.06 0 0 1-.06-.06v-1.879a.06.06 0 0 1 .06-.06H46.91a.879.879 0 0 0 0-1.758h-3.067c.12-.31.188-.648.188-1V40.333a2.76 2.76 0 0 0-1.879-2.613v-3.888a3.715 3.715 0 0 0-2.399-3.462l-5.686-2.132a.88.88 0 0 0-.93.201l-2.43 2.43c-.39.389-1.023.389-1.413 0l-2.43-2.43a.88.88 0 0 0-.93-.201l-5.686 2.132a3.71 3.71 0 0 0-2.399 3.462v.865a.88.88 0 0 0 1.758 0v-.865c0-.804.506-1.534 1.258-1.816l5.157-1.934 2.029 2.03a2.76 2.76 0 0 0 3.9 0l2.028-2.03 5.157 1.934a1.95 1.95 0 0 1 1.258 1.816v3.744H18.727a2.76 2.76 0 0 0-2.758 2.757v13.152c0 .352.068.69.189 1H6.515a1.82 1.82 0 0 0-1.818 1.818v1.879A1.82 1.82 0 0 0 6.515 60h46.97a1.82 1.82 0 0 0 1.818-1.818v-1.88a1.82 1.82 0 0 0-1.819-1.817m-35.758-1V40.333c0-.551.449-1 1-1h22.545a1 1 0 0 1 1 1v13.152a1 1 0 0 1-1 1H18.727c-.551 0-1-.449-1-1"/><path d="M30.94 46.03h-1.88a.879.879 0 0 0 0 1.757h1.88a.879.879 0 0 0 0-1.758M24.424 17.789v3.757A5.58 5.58 0 0 0 30 27.122a5.58 5.58 0 0 0 5.576-5.576V17.79a3.7 3.7 0 0 0-3.697-3.697h-3.757a3.7 3.7 0 0 0-3.698 3.697M30 25.364a3.82 3.82 0 0 1-3.818-3.818v-.468l2.089-1.393 5.547 1.585v.276A3.82 3.82 0 0 1 30 25.365m-1.878-9.514h3.757c1.07 0 1.94.87 1.94 1.939v1.653l-5.456-1.559a.88.88 0 0 0-.73.114l-1.45.968v-1.176c0-1.07.87-1.94 1.939-1.94M14.91 5.576v-.94a.879.879 0 0 0-1.759 0v.94a.879.879 0 0 0 1.758 0M13.151 22.484v.94a.879.879 0 1 0 1.758 0v-.94a.879.879 0 0 0-1.758 0M22.485 13.152a.879.879 0 0 0 0 1.758h.94a.879.879 0 0 0 0-1.758zM4.636 13.152a.879.879 0 0 0 0 1.758h.94a.879.879 0 0 0 0-1.758z"/><path d="M21.228 6.834a.88.88 0 0 0-1.243 0l-4.728 4.728a2.74 2.74 0 0 0-2.453 0L8.076 6.834a.879.879 0 1 0-1.243 1.242l4.728 4.729a2.74 2.74 0 0 0-.288 1.226 2.76 2.76 0 0 0 2.757 2.757 2.76 2.76 0 0 0 2.758-2.757c0-.44-.104-.857-.289-1.226l4.728-4.729a.88.88 0 0 0 0-1.242M14.03 15.03a1 1 0 0 1 0-2 1.001 1.001 0 0 1 0 2M43.281 18.398a.879.879 0 1 0-.962 1.471c1.08.707 1.822.922 2.771.979v.89a.879.879 0 0 0 1.758 0v-.96c1.905-.386 3.017-1.961 3.264-3.433.32-1.902-.674-3.555-2.533-4.212a36 36 0 0 1-.731-.267V8.91c.603.153.961.457.993.485a.879.879 0 0 0 1.185-1.298c-.048-.045-.855-.773-2.178-.979v-.795a.879.879 0 0 0-1.758 0v.862q-.18.04-.363.094c-1.226.37-2.142 1.418-2.39 2.737-.227 1.203.16 2.364 1.008 3.029.443.348.994.666 1.745 1.002v5.04c-.662-.051-1.087-.216-1.809-.688m1.149-6.737c-.33-.26-.47-.765-.365-1.321.092-.49.41-1.076 1.025-1.327v3.074a5 5 0 0 1-.66-.426m2.563 3.129c1.547.547 1.452 1.87 1.386 2.264-.127.757-.648 1.558-1.53 1.892v-4.208z"/><path d="M22.6 25.123a.879.879 0 0 0-1.075-1.39 12.15 12.15 0 0 1-7.495 2.57c-6.767 0-12.272-5.506-12.272-12.273S7.263 1.758 14.03 1.758c2.836 0 5.601.99 7.787 2.787a12.3 12.3 0 0 1 4.224 6.965.879.879 0 0 0 1.721-.36 14.08 14.08 0 0 0-4.828-7.962A14.05 14.05 0 0 0 14.03 0C6.294 0 0 6.294 0 14.03c0 7.737 6.294 14.03 14.03 14.03a13.9 13.9 0 0 0 8.57-2.937M45.97 0a14.05 14.05 0 0 0-8.904 3.188 14.08 14.08 0 0 0-4.829 7.962.879.879 0 1 0 1.721.36 12.3 12.3 0 0 1 4.224-6.964 12.3 12.3 0 0 1 7.787-2.788c6.768 0 12.273 5.505 12.273 12.272s-5.505 12.273-12.273 12.273c-2.73 0-5.32-.889-7.494-2.57a.879.879 0 1 0-1.075 1.39 13.9 13.9 0 0 0 8.57 2.938c7.736 0 14.03-6.294 14.03-14.03C60 6.293 53.706 0 45.97 0"/></g><defs><clipPath id="a"><path fill="#fff" d="M0 0h60v60H0z"/></clipPath></defs></svg>