<svg xmlns="http://www.w3.org/2000/svg" width="60" height="60" fill="none"><path fill="#282928" d="M33.75 35.625a2.816 2.816 0 0 0 2.813-2.812v-5.626a2.816 2.816 0 0 0-2.813-2.812h-7.5a2.816 2.816 0 0 0-2.812 2.813v5.625a2.816 2.816 0 0 0 2.812 2.812zm-4.687-9.375h1.875v1.764l-.938.469-.937-.469zm-3.75 6.563v-5.626c0-.516.42-.937.937-.937h.938v2.344c0 .355.2.68.518.838l1.875.938a.94.94 0 0 0 .838 0l1.875-.938a.94.94 0 0 0 .519-.838V26.25h.937c.517 0 .938.42.938.938v5.625c0 .517-.42.937-.938.937h-7.5a.94.94 0 0 1-.937-.937"/><path fill="#282928" d="M52.5 49.688H40.892l-5.047-10.094C39.08 37.616 41.25 34.061 41.25 30s-2.17-7.616-5.405-9.594l5.047-10.093H52.5a.937.937 0 1 0 0-1.876H40.313c-.356 0-.68.201-.84.519L34.172 19.56a11.18 11.18 0 0 0-11.428 1.857l-3.33-3.33a.94.94 0 0 0-.663-.276H7.5a.937.937 0 1 0 0 1.875h10.862l3.055 3.056A11.2 11.2 0 0 0 18.75 30c0 1.599.327 3.143.972 4.591a.937.937 0 1 0 1.712-.764A9.4 9.4 0 0 1 20.625 30c0-5.17 4.206-9.375 9.375-9.375 5.17 0 9.375 4.206 9.375 9.375 0 5.17-4.206 9.375-9.375 9.375a9.4 9.4 0 0 1-3.828-.81.937.937 0 1 0-.764 1.712c1.449.646 2.993.973 4.592.973 1.474 0 2.88-.293 4.171-.81l5.303 10.604c.16.318.483.519.839.519H52.5a.937.937 0 1 0 0-1.876"/><path fill="#282928" d="M43.125 14.063a.937.937 0 1 0 0-1.875.937.937 0 0 0 0 1.874M43.125 17.813a.937.937 0 1 0 0-1.875.937.937 0 0 0 0 1.874M43.125 21.563a.937.937 0 1 0 0-1.875.937.937 0 0 0 0 1.875M7.5 23.438a.937.937 0 1 0 0-1.875.937.937 0 0 0 0 1.875M7.5 27.188a.937.937 0 1 0 0-1.875.937.937 0 0 0 0 1.875M16.875 21.563H11.25a.937.937 0 1 0 0 1.875h5.625a.937.937 0 1 0 0-1.875M15 25.313h-3.75a.937.937 0 1 0 0 1.875H15a.937.937 0 1 0 0-1.875M52.5 12.188h-5.625a.937.937 0 1 0 0 1.874H52.5a.937.937 0 1 0 0-1.874M52.5 20.625a.937.937 0 0 0-.937-.937h-4.688a.937.937 0 1 0 0 1.875h4.688c.518 0 .937-.42.937-.938M52.5 45.938h-9.375a.937.937 0 1 0 0 1.874H52.5a.937.937 0 1 0 0-1.874M52.5 42.188h-9.375a.937.937 0 1 0 0 1.874H52.5a.937.937 0 1 0 0-1.874M43.125 40.313h5.625a.937.937 0 1 0 0-1.876h-5.625a.937.937 0 1 0 0 1.876M50.625 15.938h-3.75a.937.937 0 1 0 0 1.874h3.75a.937.937 0 1 0 0-1.875M22.708 38.229a.937.937 0 1 0 0-1.875.937.937 0 0 0 0 1.874"/></svg>