<svg xmlns="http://www.w3.org/2000/svg" width="60" height="60"><defs><clipPath id="a"><path d="M0 0h60v60H0z"/></clipPath></defs><g fill="#282928" clip-path="url(#a)"><path d="M10.119 11.132a2.59 2.59 0 0 0 2.066 1.025 2.54 2.54 0 0 0 1.39-.412 22.47 22.47 0 0 1 24.509 0 2.579 2.579 0 0 0 3.939-2.61 2.6 2.6 0 0 0-1.144-1.73 27.62 27.62 0 0 0-30.1 0 2.585 2.585 0 0 0-.664 3.723Zm1.079-1.724a1 1 0 0 1 .447-.675 26.04 26.04 0 0 1 28.369 0 1 1 0 0 1 .447.675.98.98 0 0 1-.185.768.99.99 0 0 1-1.326.241 24.05 24.05 0 0 0-26.24 0 .99.99 0 0 1-1.324-.239.98.98 0 0 1-.186-.768Z"/><path d="M17.852 17.507a15.32 15.32 0 0 1 15.957 0 2.579 2.579 0 0 0 3.878-2.68 2.6 2.6 0 0 0-1.2-1.735 20.48 20.48 0 0 0-21.308 0 2.6 2.6 0 0 0-1.2 1.734 2.58 2.58 0 0 0 .471 2.028v.007a2.57 2.57 0 0 0 3.402.646m-2.321-2.385a1 1 0 0 1 .471-.677 18.89 18.89 0 0 1 19.657 0 1 1 0 0 1 .471.677.98.98 0 0 1-.183.782.99.99 0 0 1-1.311.25 16.91 16.91 0 0 0-17.61 0 .99.99 0 0 1-1.308-.246.98.98 0 0 1-.183-.782ZM41.54 48.87a2.58 2.58 0 0 0-3.456-.613 22.47 22.47 0 0 1-24.509 0 2.58 2.58 0 0 0-3.456.613 2.585 2.585 0 0 0 .664 3.724 27.62 27.62 0 0 0 30.1 0 2.585 2.585 0 0 0 .662-3.727Zm-1.079 1.724a1 1 0 0 1-.447.675 26.04 26.04 0 0 1-28.369 0 1 1 0 0 1-.447-.675.98.98 0 0 1 .185-.768.99.99 0 0 1 1.324-.239 24.05 24.05 0 0 0 26.24 0 .99.99 0 0 1 1.326.241.98.98 0 0 1 .185.768Z"/><path d="M33.809 42.496a15.32 15.32 0 0 1-15.957 0 2.57 2.57 0 0 0-3.4.647v.007a2.58 2.58 0 0 0-.471 2.028 2.6 2.6 0 0 0 1.2 1.734 20.48 20.48 0 0 0 21.308 0 2.6 2.6 0 0 0 1.2-1.734 2.579 2.579 0 0 0-3.878-2.68Zm2.321 2.384a1 1 0 0 1-.471.677 18.89 18.89 0 0 1-19.657 0 1 1 0 0 1-.471-.677.98.98 0 0 1 .183-.782.99.99 0 0 1 1.308-.246 16.91 16.91 0 0 0 17.61 0 .99.99 0 0 1 1.311.25.98.98 0 0 1 .186.777ZM6.261 17.215a3.32 3.32 0 0 0-3.317 3.317v2.889a.793.793 0 1 0 1.585 0v-2.889a1.732 1.732 0 0 1 3.464 0v18.937a1.732 1.732 0 0 1-3.464 0V27.121a.793.793 0 1 0-1.585 0v12.348a3.317 3.317 0 1 0 6.635 0V20.532a3.32 3.32 0 0 0-3.318-3.317M53.738 17.215h-10.8a3.317 3.317 0 1 0 0 6.635h2.079v15.619a3.317 3.317 0 1 0 6.635 0V30.63a.793.793 0 1 0-1.585 0v8.839a1.732 1.732 0 1 1-3.464 0V23.057a.793.793 0 0 0-.793-.793h-2.877a1.732 1.732 0 0 1 0-3.464h10.8a1.732 1.732 0 0 1 0 3.464h-2.877a.793.793 0 0 0-.793.793v3.874a.793.793 0 1 0 1.585 0v-3.082h2.084a3.317 3.317 0 0 0 0-6.635Z"/><path d="M25.83 17.215a12.782 12.782 0 0 0-8.332 22.479.793.793 0 1 0 1.034-1.2 11.163 11.163 0 1 1 2.925 1.82.793.793 0 0 0-.621 1.459 12.786 12.786 0 1 0 4.993-24.556Z"/><path d="M33.567 30a7.736 7.736 0 1 0-7.736 7.736A7.745 7.745 0 0 0 33.567 30M19.68 30a6.151 6.151 0 1 1 6.151 6.151A6.16 6.16 0 0 1 19.679 30Z"/></g></svg>