<svg xmlns="http://www.w3.org/2000/svg" width="60" height="60"><defs><clipPath id="a"><path d="M0 0h60v60H0z"/></clipPath></defs><g clip-path="url(#a)"><path fill="#282928" d="M55.181 57.042a.7.7 0 0 1-.7-.7v-9.927a7.6 7.6 0 0 0-4.919-7.09l-13.346-4.321a.703.703 0 0 1 .432-1.337l13.358 4.328.028.01a9.01 9.01 0 0 1 5.85 8.412v9.927a.7.7 0 0 1-.703.698m-50.362 0a.7.7 0 0 1-.7-.7v-9.927a9.01 9.01 0 0 1 5.848-8.412l.028-.01 13.352-4.32a.702.702 0 1 1 .432 1.336l-13.337 4.316a7.6 7.6 0 0 0-4.918 7.09v9.927a.7.7 0 0 1-.7.7ZM30 49.773a4.016 4.016 0 1 1 4.016-4.016A4.02 4.02 0 0 1 30 49.773m0-6.628a2.611 2.611 0 1 0 2.611 2.611A2.614 2.614 0 0 0 30 43.146ZM14.604 57.041a.7.7 0 0 1-.7-.7v-5.2a.7.7 0 0 1 1.4 0v5.2a.7.7 0 0 1-.7.7"/><path fill="#282928" d="M19.101 52.237h-3.013a3.72 3.72 0 0 1-3.716-3.715v-4.926a.7.7 0 1 1 1.4 0v4.926a2.313 2.313 0 0 0 2.311 2.311h3.013a.7.7 0 0 1 0 1.4ZM45.394 57.041a.7.7 0 0 1-.7-.7v-5.2a.7.7 0 0 1 1.4 0v5.2a.7.7 0 0 1-.7.7"/><path fill="#282928" d="M43.916 52.236h-3.013a.7.7 0 1 1 0-1.4h3.013a2.313 2.313 0 0 0 2.311-2.311v-4.926a.7.7 0 1 1 1.4 0v4.923a3.72 3.72 0 0 1-3.711 3.714M29.993 37.609a10.067 10.067 0 0 1-10.055-10.06v-1.44a.7.7 0 0 1 .7-.7h18.71a.7.7 0 0 1 .7.7v1.46a10.07 10.07 0 0 1-10.055 10.04m-8.65-10.8v.735a8.651 8.651 0 0 0 17.3.021v-.756Z"/><path fill="#282928" d="M40.619 26.814h-21.24a.7.7 0 0 1-.7-.7V23.08a.7.7 0 0 1 .7-.7h21.24a.7.7 0 0 1 .7.7v3.034a.7.7 0 0 1-.7.7m-20.538-1.4h19.836v-1.629H20.082Z"/><path fill="#282928" d="M20.593 23.78a.7.7 0 0 1-.7-.7 32.9 32.9 0 0 0-1.691-10.42l-.539-1.618a.703.703 0 1 1 1.333-.445l.539 1.618a34.3 34.3 0 0 1 1.763 10.864.7.7 0 0 1-.705.701M24.792 15.426a3.13 3.13 0 0 1-1.983-.71 21.2 21.2 0 0 1-3.784-4.506.703.703 0 0 1 1.165-.787 19.9 19.9 0 0 0 3.508 4.2 1.73 1.73 0 0 0 2.611-.5 14.6 14.6 0 0 0 1.407-5.285.705.705 0 0 1 1.4.163 15.8 15.8 0 0 1-1.576 5.8 3.13 3.13 0 0 1-2.155 1.561 3 3 0 0 1-.593.064M39.406 23.782a.7.7 0 0 1-.7-.7 34.3 34.3 0 0 1 1.758-10.866l.54-1.621a.703.703 0 0 1 1.333.445l-.54 1.621a32.9 32.9 0 0 0-1.691 10.42.7.7 0 0 1-.7.701M35.21 15.428a3.14 3.14 0 0 1-2.745-1.617 15.9 15.9 0 0 1-1.576-5.806.705.705 0 0 1 1.4-.163 14.6 14.6 0 0 0 1.408 5.286 1.73 1.73 0 0 0 2.61.5 20 20 0 0 0 3.509-4.2.703.703 0 0 1 1.165.787 21.2 21.2 0 0 1-3.784 4.507 3.15 3.15 0 0 1-1.987.706"/><path fill="#282928" d="M17.559 11.643a3.13 3.13 0 1 1 3.13-3.129 3.133 3.133 0 0 1-3.13 3.129m0-4.855a1.725 1.725 0 1 0 1.725 1.725 1.73 1.73 0 0 0-1.725-1.724ZM42.44 11.643a3.13 3.13 0 1 1 3.13-3.129 3.133 3.133 0 0 1-3.13 3.129m0-4.855a1.725 1.725 0 1 0 1.725 1.725 1.73 1.73 0 0 0-1.725-1.724ZM29.999 9.216a3.13 3.13 0 1 1 3.13-3.129 3.133 3.133 0 0 1-3.13 3.129m0-4.855a1.725 1.725 0 1 0 1.725 1.725 1.73 1.73 0 0 0-1.725-1.725M37.899 13.77a.7.7 0 0 1-.7-.7v-1a1.59 1.59 0 0 0-1.588-1.588h-3.7a.7.7 0 0 1 0-1.4h3.7a3 3 0 0 1 2.992 2.992v1a.7.7 0 0 1-.704.696m-15.8 0a.7.7 0 0 1-.7-.7v-1a3 3 0 0 1 2.992-2.992h3.746a.7.7 0 0 1 0 1.4h-3.746a1.59 1.59 0 0 0-1.588 1.588v1a.7.7 0 0 1-.703.702ZM39.499 21.173H20.491a.7.7 0 1 1 0-1.4h19.006a.7.7 0 0 1 0 1.4ZM29.999 18.967a.7.7 0 0 1-.5-.206l-1.921-1.921a.7.7 0 0 1 0-.994l1.921-1.921a.7.7 0 0 1 .993 0l1.921 1.921a.7.7 0 0 1 0 .994l-1.921 1.921a.7.7 0 0 1-.493.206m-.928-2.623.928.928.928-.928-.928-.928ZM29.997 57.041a.7.7 0 0 1-.7-.7v-7.268a.7.7 0 0 1 1.4 0v7.268a.7.7 0 0 1-.7.7M32.372 44.148a.702.702 0 0 1-.116-1.4 13.57 13.57 0 0 0 9.563-6.812.703.703 0 0 1 1.232.676 14.99 14.99 0 0 1-10.561 7.521 1 1 0 0 1-.118.015m-4.744 0a1 1 0 0 1-.117-.01 14.99 14.99 0 0 1-10.561-7.521.703.703 0 0 1 1.232-.676 13.58 13.58 0 0 0 9.564 6.813.7.7 0 0 1-.117 1.394ZM27.567 48.709h-.068c-7.576-.735-13.926-4.8-16.177-10.354a.701.701 0 1 1 1.3-.527c2.056 5.076 7.948 8.8 15.011 9.483a.7.7 0 0 1-.068 1.4Zm4.866 0a.7.7 0 0 1-.067-1.4c7.062-.685 12.954-4.407 15.01-9.483a.701.701 0 1 1 1.3.527c-2.251 5.554-8.6 9.619-16.177 10.354a.4.4 0 0 1-.067.002Z"/></g></svg>