<svg xmlns="http://www.w3.org/2000/svg" width="60" height="60"><defs><clipPath id="a"><path d="M0 0h60v60H0z"/></clipPath></defs><g fill="#282928" clip-path="url(#a)"><path d="m3.07 7.907 3.605 6.309a.9.9 0 0 0 .563.427l3.363.841 11.54 11.536 1.275-1.274-11.72-11.716a.9.9 0 0 0-.418-.237l-3.232-.816-3.069-5.37 2.631-2.63 5.377 3.072.811 3.228a.9.9 0 0 0 .237.419l11.716 11.719 1.274-1.275-11.535-11.535-.841-3.362a.9.9 0 0 0-.427-.564L7.911 3.077a.9.9 0 0 0-1.082.142L3.225 6.824a.9.9 0 0 0-.155 1.083M40.54 20.712 20.713 40.54l-1.275-1.275 19.828-19.827ZM17.243 41.24a.9.9 0 0 0-.773-.437h-5.407a.9.9 0 0 0-.772.437l-2.7 4.506a.9.9 0 0 0 0 .928l2.7 4.506a.9.9 0 0 0 .772.437h5.407a.9.9 0 0 0 .773-.437l2.7-4.506a.9.9 0 0 0 0-.928Zm-1.282 8.575h-4.388l-2.163-3.6 2.163-3.605h4.387l2.163 3.605Zm0 0"/><path d="M46.211 24.581a10.778 10.778 0 0 0 10.483-13.432.9.9 0 0 0-1.511-.42l-5.605 5.609-4.451-1.483-1.484-4.45 5.61-5.611a.9.9 0 0 0-.428-1.513 10.782 10.782 0 0 0-13.429 10.484 10.6 10.6 0 0 0 .219 2.112L15.878 35.614a10.6 10.6 0 0 0-2.111-.219A10.815 10.815 0 1 0 24.578 46.21a10.6 10.6 0 0 0-.219-2.112l4.725-4.725 2.067 2.067a.9.9 0 0 0 1.275 0l.45-.451a1.011 1.011 0 0 1 1.431 1.428l-.45.45a.9.9 0 0 0 0 1.274l10.752 10.753a7.274 7.274 0 1 0 10.333-10.24l-.046-.047-10.751-10.75a.9.9 0 0 0-1.274 0l-.45.45a1.011 1.011 0 0 1-1.431-1.427l.451-.451a.9.9 0 0 0 0-1.274l-2.063-2.069 4.725-4.725a10.6 10.6 0 0 0 2.111.219Zm3.541 30.642a5.5 5.5 0 0 1-1.917-.35l7.043-7.039a5.465 5.465 0 0 1-5.122 7.389Zm-10.21-23.424a2.813 2.813 0 0 0 3.965 3.96l10.114 10.123q.163.166.312.344l-7.705 7.706c-.118-.1-.234-.2-.344-.312L35.761 43.498a2.813 2.813 0 0 0-3.966-3.96l-1.442-1.442 7.746-7.735Zm3.636-9.064L22.737 43.176a.9.9 0 0 0-.238.856 9.072 9.072 0 1 1-6.554-6.554.91.91 0 0 0 .856-.238l20.44-20.441a.9.9 0 0 0 .237-.856 8.97 8.97 0 0 1 9.245-11.175l-4.754 4.756a.9.9 0 0 0-.218.922l1.8 5.408a.9.9 0 0 0 .571.569l5.408 1.8a.9.9 0 0 0 .922-.217l4.755-4.757q.016.258.016.512a8.966 8.966 0 0 1-11.191 8.732.9.9 0 0 0-.856.237Zm0 0"/><path d="m49.553 48.276-1.275 1.275-9.012-9.012 1.274-1.275Zm0 0"/></g></svg>