<svg xmlns="http://www.w3.org/2000/svg" width="60" height="60"><defs><clipPath id="a"><path d="M0 0h60v60H0z"/></clipPath></defs><g clip-path="url(#a)"><path fill="#282928" d="M9.93 25.544H8.35a.793.793 0 1 0 0 1.586h1.58a.793.793 0 1 0 0-1.586M9.93 21.735H8.35a.793.793 0 1 0 0 1.586h1.58a.793.793 0 1 0 0-1.586M9.93 29.345H8.35a.793.793 0 1 0 0 1.586h1.58a.793.793 0 1 0 0-1.586M9.93 33.151H8.35a.793.793 0 1 0 0 1.586h1.58a.793.793 0 1 0 0-1.586M9.93 36.956H8.35a.793.793 0 0 0 0 1.586h1.58a.793.793 0 1 0 0-1.586M9.93 40.762H8.35a.793.793 0 0 0 0 1.586h1.58a.793.793 0 1 0 0-1.586M9.93 44.567H8.35a.793.793 0 1 0 0 1.586h1.58a.793.793 0 1 0 0-1.586M24.524 43.198l-1.4-1.4 1.4-1.4a.793.793 0 0 0-1.121-1.121l-1.956 1.956a.793.793 0 0 0 0 1.121l1.956 1.956a.793.793 0 1 0 1.121-1.121ZM33.018 41.241l-1.957-1.956a.793.793 0 1 0-1.121 1.121l1.4 1.4-1.4 1.4a.793.793 0 0 0 1.121 1.121l1.958-1.961a.793.793 0 0 0-.001-1.125M28.516 38.212a.793.793 0 0 0-1.016.474l-2.2 6.037a.793.793 0 1 0 1.49.542l2.2-6.037a.793.793 0 0 0-.474-1.016M9.127 11.787a1 1 0 0 0-.044-.148 1 1 0 0 0-.073-.136.792.792 0 0 0-1.22-.121.7.7 0 0 0-.1.121.7.7 0 0 0-.072.136.8.8 0 0 0-.045.148 1 1 0 0 0-.016.156.794.794 0 0 0 .793.793 1 1 0 0 0 .155-.016.7.7 0 0 0 .148-.045 1 1 0 0 0 .138-.073 1 1 0 0 0 .121-.1.79.79 0 0 0 .215-.716ZM11.598 11.382a.791.791 0 1 0 .233.56.8.8 0 0 0-.233-.56M14.502 11.788a1 1 0 0 0-.045-.148 1 1 0 0 0-.073-.136.7.7 0 0 0-.1-.121.8.8 0 0 0-.257-.172 1 1 0 0 0-.149-.045.8.8 0 0 0-.31 0 1 1 0 0 0-.148.045 1 1 0 0 0-.137.073 1 1 0 0 0-.121.1.7.7 0 0 0-.1.121 1 1 0 0 0-.073.136 1 1 0 0 0-.046.148 1 1 0 0 0-.015.156.8.8 0 0 0 .231.56 1 1 0 0 0 .121.1.8.8 0 0 0 .285.118.8.8 0 0 0 .459-.045 1 1 0 0 0 .136-.073 1 1 0 0 0 .121-.1.79.79 0 0 0 .216-.716ZM35.934 11.152h-18.9a.793.793 0 0 0 0 1.586h18.9a.793.793 0 1 0 0-1.586M41.959 11.152h-3.243a.793.793 0 1 0 0 1.586h3.242a.793.793 0 1 0 0-1.586ZM48.44 27.549h-10.4a.793.793 0 0 0 0 1.586h10.4a.793.793 0 0 0 0-1.586M44.006 23.742h-3.013a.793.793 0 1 0 0 1.586h3.013a.793.793 0 1 0 0-1.586M51.948 23.742h-4.9a.793.793 0 1 0 0 1.586h4.9a.793.793 0 0 0 0-1.586M37.589 23.742h-10.02a.793.793 0 1 0 0 1.586h10.02a.793.793 0 0 0 0-1.586M35.099 27.549h-3.013a.793.793 0 1 0 0 1.586h3.013a.793.793 0 0 0 0-1.586M29.005 27.549h-1.58a.793.793 0 1 0 0 1.586h1.58a.793.793 0 0 0 0-1.586M23.481 27.549h-1.58a.793.793 0 0 0 0 1.586h1.58a.793.793 0 0 0 0-1.586M23.481 23.742h-1.58a.793.793 0 0 0 0 1.586h1.58a.793.793 0 0 0 0-1.586M52.726 28.186a.8.8 0 0 0-.046-.149 1 1 0 0 0-.073-.136.7.7 0 0 0-.1-.121 1 1 0 0 0-.121-.1.8.8 0 0 0-.285-.117.8.8 0 0 0-.31 0 1 1 0 0 0-.148.044 1 1 0 0 0-.137.073.79.79 0 0 0-.352.66 1 1 0 0 0 .015.155 1 1 0 0 0 .045.148 1 1 0 0 0 .073.136 1 1 0 0 0 .1.121 1 1 0 0 0 .121.1 1 1 0 0 0 .137.073 1 1 0 0 0 .148.044 1 1 0 0 0 .155.016 1 1 0 0 0 .154-.016 1 1 0 0 0 .149-.044 1 1 0 0 0 .136-.073 1 1 0 0 0 .121-.1.7.7 0 0 0 .1-.121.8.8 0 0 0 .118-.284.8.8 0 0 0 0-.31Z"/><path fill="#282928" d="M54.986 35.634h-8.374V32.78h8.374a2.064 2.064 0 0 0 2.061-2.061v-8.562a2.064 2.064 0 0 0-2.061-2.061h-2.212a.793.793 0 1 0 0 1.586h2.212a.48.48 0 0 1 .476.476v8.562a.48.48 0 0 1-.476.476H18.294a.48.48 0 0 1-.476-.476v-8.563a.48.48 0 0 1 .476-.476h30.78a.793.793 0 1 0 0-1.586h-2.462v-9.242a3.9 3.9 0 0 0-3.894-3.894c-38.15.006-35.842-.011-36.156.012a3.9 3.9 0 0 0-3.466 2.868c-.2.735-.134.793-.134 10.835a.793.793 0 0 0 1.586 0v-3.75h40.478v3.169H18.294a2.064 2.064 0 0 0-2.061 2.061v8.565a2.064 2.064 0 0 0 2.061 2.061h26.732v2.854H18.294a2.064 2.064 0 0 0-2.061 2.061v8.562a2.064 2.064 0 0 0 2.061 2.061h26.732v.828a2.31 2.31 0 0 1-2.308 2.308H15.574a.793.793 0 1 0 0 1.586h27.144a3.9 3.9 0 0 0 3.894-3.894v-.828h8.374a2.064 2.064 0 0 0 2.061-2.061v-8.562a2.064 2.064 0 0 0-2.061-2.061M4.548 15.339c0-4.644-.242-5.281.751-6.191a2.3 2.3 0 0 1 1.554-.603h35.865a2.31 2.31 0 0 1 2.308 2.308v4.486Zm50.913 30.918a.48.48 0 0 1-.476.476H18.294a.48.48 0 0 1-.476-.476v-8.562a.48.48 0 0 1 .476-.476h36.692a.48.48 0 0 1 .476.476Z"/><path fill="#282928" d="M11.874 51.454H6.856a2.31 2.31 0 0 1-2.308-2.308V24.377a.793.793 0 0 0-1.586 0v24.769a3.9 3.9 0 0 0 3.894 3.894h5.019a.793.793 0 1 0 0-1.586Z"/></g></svg>