<svg xmlns="http://www.w3.org/2000/svg" width="60" height="60" fill="none"><g clip-path="url(#a)"><path fill="#282928" d="m59.708 53.61-4.663-8.074c.133-.144.302-.256.502-.326 1.243-.43 2.253-1.512 2.703-2.895.449-1.382.268-2.851-.485-3.93a1.18 1.18 0 0 1 0-1.383c.753-1.08.934-2.549.485-3.931s-1.46-2.465-2.703-2.895a1.18 1.18 0 0 1-.813-1.119c-.025-1.315-.742-2.61-1.918-3.465-1.176-.854-2.63-1.136-3.888-.754l-.04.01V20.59a.94.94 0 0 0-.937-.938h-3.172a20.6 20.6 0 0 0-2.51-6.056l2.244-2.244a.937.937 0 0 0 0-1.326l-5.534-5.533a.94.94 0 0 0-1.326 0l-2.244 2.244a20.6 20.6 0 0 0-6.056-2.51V1.054a.94.94 0 0 0-.938-.938H20.59a.937.937 0 0 0-.938.938v3.172a20.6 20.6 0 0 0-6.056 2.51l-2.244-2.244a.94.94 0 0 0-1.326 0l-5.534 5.533a.937.937 0 0 0 0 1.326l2.244 2.244a20.6 20.6 0 0 0-2.51 6.056H1.054a.94.94 0 0 0-.937.938v7.826c0 .517.42.937.937.937h3.172a20.6 20.6 0 0 0 2.51 6.056l-2.244 2.244a.937.937 0 0 0 0 1.326l5.534 5.534a.937.937 0 0 0 1.326 0l2.244-2.244c1.881 1.158 3.912 2 6.056 2.51v3.172c0 .518.42.937.937.937h7.826c.518 0 .938-.42.938-.937v-3.172a21 21 0 0 0 1.68-.477c.426.408.925.72 1.468.908.2.07.37.182.502.326L28.34 53.61c-.255.442-.231.976.062 1.393s.787.621 1.29.53l4.497-.806 1.55 4.298a1.28 1.28 0 0 0 1.223.857c.462 0 .883-.241 1.119-.648l4.026-6.974c.585.252 1.238.39 1.917.39.678 0 1.332-.138 1.917-.39l4.027 6.974a1.28 1.28 0 0 0 1.237.643c.508-.045.93-.372 1.104-.852l1.55-4.298 4.498.807c.502.09.996-.114 1.29-.531.292-.417.316-.951.06-1.393M28.232 43.106a.94.94 0 0 0-.754.92v2.989h-5.951v-2.99a.94.94 0 0 0-.755-.92 18.8 18.8 0 0 1-6.785-2.812.94.94 0 0 0-1.183.117l-2.115 2.115-4.208-4.208 2.115-2.115a.94.94 0 0 0 .117-1.183A18.8 18.8 0 0 1 5.9 28.233a.94.94 0 0 0-.92-.755H1.993v-5.95H4.98a.94.94 0 0 0 .92-.755 18.8 18.8 0 0 1 2.812-6.786.94.94 0 0 0-.117-1.183L6.48 10.69l4.208-4.207 2.115 2.114a.94.94 0 0 0 1.183.117 18.8 18.8 0 0 1 6.786-2.812.94.94 0 0 0 .754-.92V1.992h5.95v2.989c0 .447.317.832.755.92a18.8 18.8 0 0 1 6.786 2.812c.372.248.867.2 1.183-.117l2.115-2.115 4.208 4.208-2.115 2.115a.94.94 0 0 0-.117 1.184 18.8 18.8 0 0 1 2.813 6.785.94.94 0 0 0 .92.755h2.988v2.256c-.79-.666-1.855-1.049-2.989-1.049-1.453 0-2.795.627-3.588 1.676a1.18 1.18 0 0 1-1.316.427 4 4 0 0 0-.55-.122q.003-.106.005-.213c0-7.76-6.313-14.072-14.073-14.072S10.43 16.743 10.43 24.502s6.313 14.072 14.072 14.072c2.049 0 4.078-.45 5.924-1.305.142.367.095.774-.143 1.114-.753 1.08-.934 2.548-.485 3.931q.062.188.137.366-.843.252-1.703.424M20.446 22.56a4.06 4.06 0 0 1 4.057-4.056 4.06 4.06 0 0 1 4.056 4.056 4.06 4.06 0 0 1-4.056 4.057 4.06 4.06 0 0 1-4.057-4.057m9.215 12.998a12.2 12.2 0 0 1-5.159 1.142 12.14 12.14 0 0 1-7.775-2.806c1.207-3.208 4.322-5.402 7.776-5.402 2.403 0 4.69 1.06 6.264 2.87a4.85 4.85 0 0 0-.969 1.709 4.77 4.77 0 0 0-.137 2.487m2.84-5.382a4 4 0 0 0-.213.081 10.25 10.25 0 0 0-4.196-2.979 5.93 5.93 0 0 0 2.342-4.718c0-3.27-2.66-5.931-5.931-5.931a5.94 5.94 0 0 0-5.932 5.931c0 1.924.921 3.637 2.345 4.721a10.3 10.3 0 0 0-5.627 5.206 12.15 12.15 0 0 1-2.984-7.984c0-6.726 5.472-12.197 12.197-12.197 6.726 0 12.198 5.471 12.198 12.197q-.001.18-.008.362a4.9 4.9 0 0 0-1.46.727c-1.176.854-1.893 2.15-1.918 3.465-.01.52-.322.949-.813 1.119m4.579 27.042-1.396-3.87a.94.94 0 0 0-1.047-.605l-4.05.726 3.145-5.446c.33.679.843 1.294 1.5 1.771 1.176.855 2.629 1.136 3.888.754a1.18 1.18 0 0 1 1.315.427q.071.091.145.18zm4.851-7.374a3.05 3.05 0 0 0-3.356-1.09c-.7.212-1.537.034-2.24-.477-.704-.51-1.133-1.252-1.147-1.984a3.06 3.06 0 0 0-2.074-2.854c-.69-.24-1.264-.876-1.532-1.703-.269-.827-.18-1.679.239-2.278a3.055 3.055 0 0 0 0-3.53c-.419-.599-.508-1.45-.24-2.277.27-.828.842-1.464 1.533-1.703a3.055 3.055 0 0 0 2.075-2.855c.014-.731.442-1.473 1.145-1.984s1.542-.69 2.241-.476a3.06 3.06 0 0 0 3.356-1.091c.441-.583 1.224-.932 2.093-.932.87 0 1.652.349 2.093.932a3.055 3.055 0 0 0 3.356 1.09c.7-.212 1.538-.034 2.241.477s1.132 1.253 1.146 1.984a3.06 3.06 0 0 0 2.074 2.855c.69.24 1.264.876 1.532 1.703.27.826.18 1.678-.239 2.278a3.06 3.06 0 0 0 0 3.529c.419.6.508 1.451.24 2.278-.27.827-.842 1.463-1.533 1.703a3.06 3.06 0 0 0-2.074 2.854c-.014.732-.443 1.473-1.146 1.984-.704.512-1.541.69-2.24.477a3.06 3.06 0 0 0-3.357 1.09c-.441.584-1.223.932-2.093.932s-1.652-.349-2.093-.932m11.48 2.899a.94.94 0 0 0-1.047.604l-1.396 3.87-3.5-6.062q.075-.089.144-.18a1.18 1.18 0 0 1 1.316-.427c1.259.382 2.712.1 3.888-.754a4.8 4.8 0 0 0 1.5-1.772l3.145 5.447zm.524-15.05c0-5.465-4.446-9.911-9.911-9.911s-9.911 4.446-9.911 9.911 4.446 9.912 9.911 9.912 9.911-4.447 9.911-9.912m-9.911 8.037c-4.431 0-8.036-3.605-8.036-8.037 0-4.431 3.605-8.036 8.036-8.036s8.036 3.605 8.036 8.036c0 4.432-3.605 8.037-8.036 8.037m6.301-9.856a.94.94 0 0 0-.822-.646l-3.343-.247-1.268-3.103a.937.937 0 0 0-1.736 0l-1.268 3.103-3.343.247a.938.938 0 0 0-.536 1.651l2.56 2.165-.799 3.256a.937.937 0 0 0 1.404 1.02l2.85-1.765 2.85 1.765a.938.938 0 0 0 1.404-1.02l-.799-3.256 2.56-2.165a.94.94 0 0 0 .286-1.005m-4.5 2.113a.94.94 0 0 0-.305.94l.39 1.59-1.393-.862a.94.94 0 0 0-.987 0l-1.393.863.39-1.592a.94.94 0 0 0-.305-.939l-1.25-1.058 1.633-.12a.94.94 0 0 0 .799-.58l.62-1.517.62 1.516c.134.33.443.554.798.58l1.634.121z"/></g><defs><clipPath id="a"><path fill="#fff" d="M0 0h60v60H0z"/></clipPath></defs></svg>