<svg xmlns="http://www.w3.org/2000/svg" width="60" height="60"><defs><clipPath id="a"><path d="M0 0h60v60H0z"/></clipPath></defs><g clip-path="url(#a)"><path fill="#282928" d="M10.81 32.02a19.15 19.15 0 0 1 2.5-11.717.844.844 0 1 1 1.458.849A17.614 17.614 0 0 0 29.966 47.61a18 18 0 0 0 1.877-.1 17.5 17.5 0 0 0 8.241-3.077l-1.126-.041a.844.844 0 1 1 .061-1.686l3.4.122a.844.844 0 0 1 .781 1.075l-.934 3.274a.844.844 0 1 1-1.623-.463l.219-.766a19.2 19.2 0 0 1-8.844 3.24 20 20 0 0 1-2.057.108A19.3 19.3 0 0 1 10.81 32.02M42.142 15a19.305 19.305 0 0 0-23.007-.953l.219-.766a.844.844 0 0 0-1.623-.463l-.934 3.274a.844.844 0 0 0 .781 1.075l3.4.122h.032a.844.844 0 0 0 .03-1.687l-1.13-.041a17.612 17.612 0 0 1 25.318 23.285.844.844 0 1 0 1.458.849 19.3 19.3 0 0 0-4.544-24.7Zm11.2 1.436a.844.844 0 1 0-1.458.849 25.31 25.31 0 0 1-37.207 32.86l2.615-.094a.844.844 0 0 0-.061-1.686l-4.821.173a.844.844 0 0 0-.781 1.072l1.324 4.64a.844.844 0 1 0 1.623-.463l-.585-2.05a26.86 26.86 0 0 0 13.183 5.108 28 28 0 0 0 2.877.152 27 27 0 0 0 23.291-40.561M4.829 27.35a25.312 25.312 0 0 1 40.494-17.5l-2.613.098a.844.844 0 0 0 .03 1.687h.031l4.822-.173a.844.844 0 0 0 .781-1.075l-1.324-4.64a.844.844 0 0 0-1.623.463l.583 2.05A27 27 0 0 0 3.151 27.173a26.8 26.8 0 0 0 3.506 16.39.845.845 0 0 0 1.459-.853 25.1 25.1 0 0 1-3.287-15.36m34.243 5.555a9.5 9.5 0 0 1-.6 1.455l1.738 2.4a.844.844 0 0 1-.087 1.091l-2.271 2.269a.844.844 0 0 1-1.091.087l-2.4-1.738a9.5 9.5 0 0 1-1.455.6l-.468 2.926a.844.844 0 0 1-.833.71h-3.209a.844.844 0 0 1-.833-.71l-.468-2.925a9.5 9.5 0 0 1-1.455-.6l-2.4 1.738a.844.844 0 0 1-1.091-.087l-2.268-2.268a.844.844 0 0 1-.087-1.091l1.738-2.4a9.5 9.5 0 0 1-.6-1.455l-2.925-.468a.844.844 0 0 1-.71-.833v-3.21a.844.844 0 0 1 .71-.833l2.926-.468a9.5 9.5 0 0 1 .6-1.455l-1.738-2.4a.844.844 0 0 1 .087-1.091l2.268-2.268a.844.844 0 0 1 1.091-.087l2.4 1.738a9.5 9.5 0 0 1 1.455-.6l.468-2.925a.844.844 0 0 1 .833-.71h3.207a.844.844 0 0 1 .833.71l.468 2.925a9.5 9.5 0 0 1 1.455.6l2.4-1.738a.844.844 0 0 1 1.091.087l2.268 2.268a.844.844 0 0 1 .087 1.091l-1.738 2.4a9.5 9.5 0 0 1 .6 1.455l2.925.468a.844.844 0 0 1 .71.833v3.207a.844.844 0 0 1-.71.833Zm-2.326 1.085a7.8 7.8 0 0 0 .847-2.043.84.84 0 0 1 .684-.624l2.744-.439v-1.769l-2.744-.439a.84.84 0 0 1-.684-.624 7.8 7.8 0 0 0-.847-2.042.84.84 0 0 1 .042-.925l1.63-2.252-1.251-1.251-2.251 1.628a.84.84 0 0 1-.925.042 7.8 7.8 0 0 0-2.043-.847.84.84 0 0 1-.624-.684l-.439-2.744h-1.77l-.439 2.744a.84.84 0 0 1-.624.684 7.8 7.8 0 0 0-2.042.849.84.84 0 0 1-.925-.042l-2.252-1.63-1.251 1.251 1.63 2.252a.84.84 0 0 1 .042.925 7.8 7.8 0 0 0-.847 2.043.84.84 0 0 1-.684.624l-2.744.439v1.769l2.744.439a.84.84 0 0 1 .684.624 7.8 7.8 0 0 0 .847 2.043.84.84 0 0 1-.042.925l-1.63 2.252 1.251 1.251 2.252-1.63a.84.84 0 0 1 .925-.044 7.8 7.8 0 0 0 2.043.847.84.84 0 0 1 .624.684l.439 2.744h1.769l.439-2.744a.84.84 0 0 1 .624-.684 7.8 7.8 0 0 0 2.043-.847.84.84 0 0 1 .925.042l2.252 1.63 1.251-1.251-1.63-2.252a.84.84 0 0 1-.043-.924M35.583 30A5.583 5.583 0 1 1 30 24.417 5.59 5.59 0 0 1 35.583 30m-1.687 0a3.9 3.9 0 1 0-3.9 3.9 3.9 3.9 0 0 0 3.899-3.9Z"/></g></svg>