<svg xmlns="http://www.w3.org/2000/svg" width="60" height="60" fill="none"><path fill="#282928" d="M19.838 15.197a1.88 1.88 0 0 0 .187 1.425l1.538 2.606a1.88 1.88 0 0 0 1.143.872 1.88 1.88 0 0 0 1.425-.187l.572-.291a9.3 9.3 0 0 0 1.997 1.153v.628a1.875 1.875 0 0 0 1.875 1.875h3.01a1.875 1.875 0 0 0 1.874-1.875v-.647c.71-.3 1.378-.69 1.988-1.162l.553.319a1.875 1.875 0 0 0 2.56-.685l1.5-2.606a1.875 1.875 0 0 0-.685-2.56l-.544-.29q.085-.598.085-1.2 0-.589-.085-1.172l.544-.31a1.875 1.875 0 0 0 .684-2.559l-1.5-2.606A1.875 1.875 0 0 0 36 5.241l-.581.29a9 9 0 0 0-1.997-1.153V3.75a1.875 1.875 0 0 0-1.875-1.875h-3.01a1.875 1.875 0 0 0-1.874 1.875v.638a9.7 9.7 0 0 0-1.988 1.162l-.544-.31a1.874 1.874 0 0 0-2.568.685l-1.5 2.597a1.87 1.87 0 0 0-.188 1.425 1.88 1.88 0 0 0 .872 1.144l.544.28q-.077.6-.085 1.2 0 .595.085 1.182l-.544.31a1.88 1.88 0 0 0-.91 1.134m3.206-2.625a8 8 0 0 1 .066-.938 1.875 1.875 0 0 0-.938-1.875l-.544-.309 1.528-2.587.544.318a1.875 1.875 0 0 0 2.11-.16c.47-.38.991-.695 1.546-.937a1.875 1.875 0 0 0 1.182-1.743V3.75h3.009v.628a1.88 1.88 0 0 0 1.181 1.744 6.7 6.7 0 0 1 1.547.937 1.875 1.875 0 0 0 2.11.16l.553-.319 1.5 2.569-.544.31a1.875 1.875 0 0 0-.938 1.874q.06.467.066.938a8 8 0 0 1-.066.937 1.875 1.875 0 0 0 .938 1.875l.544.31-1.5 2.606-.553-.319a1.875 1.875 0 0 0-2.11.16 7 7 0 0 1-1.547.937 1.87 1.87 0 0 0-1.181 1.744v.628h-3.01v-.628a1.88 1.88 0 0 0-1.18-1.744 7 7 0 0 1-1.547-.938 1.94 1.94 0 0 0-1.182-.403 1.9 1.9 0 0 0-.937.244l-.544.319-1.51-2.606.544-.31a1.875 1.875 0 0 0 .938-1.875 8 8 0 0 1-.075-.956"/><path fill="#282928" d="M30 17.223a4.688 4.688 0 1 0 0-9.376 4.688 4.688 0 0 0 0 9.376m0-7.5a2.813 2.813 0 1 1 0 5.625 2.813 2.813 0 0 1 0-5.625M51.778 53.221a8.6 8.6 0 0 1 1.819-4.687 7.22 7.22 0 0 0-.712-10.069 7.62 7.62 0 0 0-5.925-1.875 7.434 7.434 0 0 0-6.647 6.534 7.18 7.18 0 0 0 1.725 5.485 8.7 8.7 0 0 1 1.772 4.762v.863a3.966 3.966 0 1 0 7.93 0zm-1.875 1.013a2.09 2.09 0 1 1-4.181 0v-.797h4.181zm.225-2.672H48.75v-3.366l1.603-1.593-1.331-1.332-1.21 1.219-1.209-1.219-1.331 1.331 1.603 1.594v3.366h-1.397a10.5 10.5 0 0 0-1.987-4.172 5.33 5.33 0 0 1-1.303-4.069 5.55 5.55 0 0 1 4.978-4.884q.323-.021.647 0a5.72 5.72 0 0 1 3.825 1.453 5.4 5.4 0 0 1 1.8 4.013 5.27 5.27 0 0 1-1.275 3.45 10.9 10.9 0 0 0-2.035 4.209M6.44 57.853c.175.173.41.271.657.272h10.716a.94.94 0 0 0 .937-.937V40.311a.94.94 0 0 0-.937-.937h-15a.94.94 0 0 0-.938.938v12.656a.94.94 0 0 0 .281.665zm.122-2.54-1.875-1.829 2.297-.459zM3.75 41.25h13.125v15H8.241l.843-4.237a.937.937 0 0 0-1.096-1.097l-4.238.843z"/><path fill="#282928" d="M5.625 43.125H15V45H5.625zM5.625 47.813H15v1.874H5.625zM11.25 52.5H15v1.875h-3.75zM43.669 10.969l-1.088 1.519a21.5 21.5 0 0 1 8.794 14.7H48.75a.94.94 0 0 0-.825.496.94.94 0 0 0 .047.938l3.75 5.625a.94.94 0 0 0 .778.44.94.94 0 0 0 .778-.412l3.75-5.625a.94.94 0 0 0 .047-.937.94.94 0 0 0-.825-.526h-2.99a23.35 23.35 0 0 0-9.591-16.218m8.83 21.094-1.996-3h3.994zM25.997 56.804a.94.94 0 0 0 .712.328q.1.015.197 0a.94.94 0 0 0 .704-.656l.862-3.066c.525 0 1.031.057 1.528.057a23.2 23.2 0 0 0 9.769-2.129l-.788-1.706a21.3 21.3 0 0 1-8.98 1.931h-1.004l.656-2.306a.938.938 0 0 0-1.19-1.153l-6.432 2.053a.94.94 0 0 0-.618.638.94.94 0 0 0 .197.862zm1.378-6.394-1.125 3.844-2.306-2.69zM14.653 19.37c.165.132.37.204.581.206.133-.001.264-.03.385-.085a.94.94 0 0 0 .553-.787l.506-6.74a.937.937 0 0 0-.773-.991.94.94 0 0 0-.455.034l-6.412 2.119a.94.94 0 0 0-.638.73.94.94 0 0 0 .347.938l2.165 1.697a23.17 23.17 0 0 0-4.35 13.51c.001 2.315.342 4.618 1.013 6.834l1.8-.544a21.47 21.47 0 0 1 3.019-18.693zm0-6.141-.272 3.59-3.131-2.465zM56.25 42.188h1.875v1.874H56.25zM53.978 38.441l1.325-1.325 1.326 1.325-1.326 1.326zM37.5 42.188h1.875v1.874H37.5zM39.913 37.502l1.326-1.326 1.326 1.326-1.326 1.326zM46.875 33.75h1.875v1.875h-1.875z"/></svg>