<svg xmlns="http://www.w3.org/2000/svg" width="60" height="60" fill="none"><path fill="#282928" fill-rule="evenodd" d="M19.903 53.927a1.469 1.469 0 1 1 1.473-1.469c0 .81-.665 1.469-1.473 1.469m0-47.852c.808 0 1.473.657 1.473 1.467a1.47 1.47 0 0 1-2.939 0c0-.81.658-1.467 1.466-1.467m0 43.372c-.84 0-1.596.347-2.144.904l-9.591-5.454V15.103l9.591-5.452a3 3 0 0 0 2.144.902 3.014 3.014 0 0 0 3.01-3.01 3.013 3.013 0 0 0-3.01-3.012c-1.996 0-3.411 1.906-2.912 3.778l-9.976 5.673a.78.78 0 0 0-.391.671v30.694c0 .278.15.535.39.671l9.977 5.674c-.5 1.872.916 3.778 2.912 3.778a3.014 3.014 0 0 0 3.01-3.012 3.014 3.014 0 0 0-3.01-3.011m20.187 4.48a1.469 1.469 0 0 1 0-2.936 1.469 1.469 0 0 1 0 2.936m0-44.917a1.468 1.468 0 0 1 0-2.935 1.468 1.468 0 0 1 0 2.935m12.889 4.972L43.002 8.31c.5-1.872-.916-3.778-2.912-3.778a3.013 3.013 0 0 0-3.01 3.011 3.014 3.014 0 0 0 5.16 2.109l9.592 5.452v29.794l-9.592 5.454a3 3 0 0 0-2.15-.904 3.014 3.014 0 0 0-3.01 3.01 3.014 3.014 0 0 0 3.01 3.013c1.996 0 3.412-1.907 2.912-3.778l9.977-5.674a.77.77 0 0 0 .397-.671V14.653a.77.77 0 0 0-.397-.67M29.997 45.3l-15.372-7.594 6.06-2.992 8.973 4.432a.77.77 0 0 0 .684 0l8.966-4.432 6.06 2.992zM14.625 30l6.06-2.992 8.973 4.431a.77.77 0 0 0 .684 0l8.966-4.43L45.368 30l-15.372 7.593zm0-7.706L29.997 14.7l15.37 7.593-15.37 7.592zm33.258 15.412c0 .295-.17.562-.43.693l-17.111 8.454a.78.78 0 0 1-.684-.002L12.54 38.4a.773.773 0 0 1 0-1.384l6.399-3.162-6.399-3.16a.774.774 0 0 1 0-1.385l6.399-3.161-6.399-3.162a.772.772 0 0 1 0-1.382l17.118-8.454a.77.77 0 0 1 .684 0l17.11 8.454a.772.772 0 0 1 0 1.382l-6.398 3.162 6.399 3.16a.773.773 0 0 1 0 1.386l-6.399 3.16 6.399 3.162c.26.13.43.398.43.691" clip-rule="evenodd"/></svg>