<svg xmlns="http://www.w3.org/2000/svg" width="40" height="40" fill="none"><g fill="#000" clip-path="url(#a)"><path d="M9.375 25.29V20a1.562 1.562 0 1 0-3.125 0v5.29L.458 31.083c-.61.61-.61 1.6 0 2.21l6.25 6.25c.61.61 1.6.61 2.21 0l6.25-6.25c.61-.61.61-1.6 0-2.21zM7.813 36.228l-4.04-4.04 4.04-4.04 4.04 4.04zM32.188 24.375c-3.773 0-6.93 2.688-7.656 6.25h-4.22a1.562 1.562 0 1 0 0 3.125h4.22c.726 3.562 3.883 6.25 7.656 6.25C36.495 40 40 36.495 40 32.188s-3.505-7.813-7.812-7.813m0 12.5a4.693 4.693 0 0 1-4.688-4.687 4.693 4.693 0 0 1 4.688-4.688 4.693 4.693 0 0 1 4.687 4.688 4.693 4.693 0 0 1-4.687 4.687M39.542 4.119 35.882.458A1.56 1.56 0 0 0 34.775 0H29.6c-.415 0-.812.165-1.105.458l-3.661 3.66c-.293.294-.458.691-.458 1.106V10.4c0 .415.165.812.458 1.105l3.66 3.661c.294.293.691.458 1.106.458h1.026v4.063a1.562 1.562 0 1 0 3.125 0v-4.063h1.026c.415 0 .812-.165 1.105-.458l3.661-3.66c.293-.294.458-.691.458-1.106V5.224c0-.415-.165-.812-.458-1.105m-2.667 5.635L34.129 12.5h-3.883L27.5 9.754V5.871l2.746-2.746h3.883l2.746 2.746zM19.688 9.375a1.562 1.562 0 1 0 0-3.125h-4.063V1.563C15.625.7 14.925 0 14.063 0h-12.5C.7 0 0 .7 0 1.563v12.5c0 .862.7 1.562 1.563 1.562h12.5c.862 0 1.562-.7 1.562-1.562V9.375zM12.5 12.5H3.125V3.125H12.5z"/></g><defs><clipPath id="a"><path fill="#fff" d="M0 0h40v40H0z"/></clipPath></defs></svg>