<svg xmlns="http://www.w3.org/2000/svg" width="40" height="40" fill="none"><path fill="#000" d="M30.138 23.244h-7.325a.936.936 0 1 1 0-1.875h7.218c.025 0 .113 0 .138.006 2.362 0 4.312-1.95 4.312-4.344a4.35 4.35 0 0 0-4.344-4.344c-.15 0-.3.013-.443.025a.94.94 0 0 1-1-.668 4.37 4.37 0 0 0-4.169-3.138c-.637 0-1.256.138-1.831.413a.933.933 0 0 1-1.325-.663 5.745 5.745 0 0 0-5.613-4.606 5.73 5.73 0 0 0-5.725 5.725c0 .581.088 1.156.256 1.719a.96.96 0 0 1-.118.8.93.93 0 0 1-.694.412C7.256 12.9 5.52 14.8 5.52 17.031a4.35 4.35 0 0 0 4.344 4.344h7.325a.936.936 0 1 1 0 1.875H9.863a6.223 6.223 0 0 1-6.22-6.219c0-2.831 1.957-5.287 4.613-6.006a7.6 7.6 0 0 1-.1-1.244c0-4.194 3.413-7.6 7.6-7.6 3.244 0 6.1 2.075 7.163 5.063a6 6 0 0 1 1.606-.213c2.494 0 4.75 1.525 5.719 3.781a6.226 6.226 0 0 1 6.112 6.22c0 3.393-2.787 6.218-6.219 6.218z"/><path fill="#000" d="M10.438 28.881h-3.8a.936.936 0 1 1 0-1.875h3.8a.936.936 0 0 0 .937-.937v-3.763c0-.519.419-.937.938-.937s.937.418.937.937v3.763a2.817 2.817 0 0 1-2.812 2.812"/><path fill="#000" d="M4.881 30.638a2.694 2.694 0 1 1 0-5.389 2.694 2.694 0 0 1 0 5.389m0-3.507a.82.82 0 0 0-.819.819c0 .45.37.819.82.819s.818-.369.818-.819a.82.82 0 0 0-.819-.819M14.231 33.675h-2.537a.936.936 0 1 1 0-1.875h2.537a.936.936 0 0 0 .938-.937v-8.55a.936.936 0 1 1 1.875 0v8.55a2.817 2.817 0 0 1-2.813 2.812"/><path fill="#000" d="M9.931 35.431a2.694 2.694 0 1 1 0-5.388 2.694 2.694 0 0 1 0 5.388m0-3.512a.82.82 0 0 0-.818.818c0 .45.368.819.818.819s.819-.369.819-.819a.82.82 0 0 0-.819-.819M20 37.825a2.694 2.694 0 1 1 0-5.388 2.694 2.694 0 0 1 0 5.388m0-3.513a.82.82 0 0 0-.819.82c0 .45.369.818.819.818s.819-.369.819-.819a.82.82 0 0 0-.82-.819M33.363 28.881h-3.8a2.817 2.817 0 0 1-2.813-2.812v-3.763c0-.519.419-.937.938-.937s.937.418.937.937v3.763c0 .518.419.937.938.937h3.8c.518 0 .937.419.937.938a.936.936 0 0 1-.937.937"/><path fill="#000" d="M35.119 30.638a2.694 2.694 0 1 1 0-5.389 2.694 2.694 0 0 1 0 5.389m0-3.507a.82.82 0 0 0-.819.819c0 .45.369.819.819.819s.819-.369.819-.819a.82.82 0 0 0-.82-.819M28.312 33.675h-2.537a2.817 2.817 0 0 1-2.813-2.812v-8.55a.936.936 0 1 1 1.875 0v8.55c0 .518.42.937.938.937h2.537a.936.936 0 1 1 0 1.875"/><path fill="#000" d="M30.069 35.431a2.694 2.694 0 1 1 0-5.388 2.694 2.694 0 0 1 0 5.388m0-3.512a.82.82 0 0 0-.819.819c0 .45.369.818.819.818s.819-.368.819-.818a.82.82 0 0 0-.82-.82M20 30.637a.936.936 0 0 1-.937-.937v-7.394a.936.936 0 1 1 1.875 0V29.7a.936.936 0 0 1-.938.937M17.325 19.512a.94.94 0 0 1-.825-.487l-2.394-4.394-2.393 4.394a.933.933 0 0 1-1.27.375.933.933 0 0 1-.374-1.269l3.219-5.906a.94.94 0 0 1 .825-.488c.343 0 .656.188.825.488l3.218 5.906a.93.93 0 0 1-.375 1.269.96.96 0 0 1-.45.112z"/><path fill="#000" d="M16.263 17.568H11.95a.936.936 0 0 1-.937-.937c0-.519.418-.938.937-.938h4.313c.518 0 .937.42.937.938a.936.936 0 0 1-.937.937M20.138 19.512a.936.936 0 0 1-.938-.937v-5.906c0-.52.419-.938.938-.938s.937.419.937.938v5.906a.936.936 0 0 1-.937.937"/><path fill="#000" d="M21.938 16.694h-1.8a.936.936 0 0 1-.938-.938c0-.519.419-.937.938-.937h1.8a.607.607 0 0 0 0-1.213h-1.8a.936.936 0 0 1-.938-.937c0-.52.419-.938.938-.938h1.8a2.483 2.483 0 0 1 2.48 2.481 2.483 2.483 0 0 1-2.48 2.482M26.538 19.512a.936.936 0 0 1-.938-.937v-5.906c0-.52.419-.938.938-.938s.937.419.937.938v5.906a.936.936 0 0 1-.937.937"/></svg>