<svg xmlns="http://www.w3.org/2000/svg" width="40" height="40" fill="none"><g fill="#000" clip-path="url(#a)"><path d="M15.313 9.453c0-2.57-2.077-4.765-4.688-4.765S5.938 6.884 5.938 9.453a4.693 4.693 0 0 0 4.687 4.688 4.693 4.693 0 0 0 4.688-4.688m-4.688 2.344a2.346 2.346 0 0 1-2.344-2.344c0-1.313 1.074-2.422 2.344-2.422s2.344 1.11 2.344 2.422a2.346 2.346 0 0 1-2.344 2.344"/><path d="M10.625 21.172c5.816 0 10.547-4.732 10.547-10.547C21.172 4.766 16.44 0 10.625 0 4.794 0 0 4.795 0 10.625c0 5.816 4.766 10.547 10.625 10.547m-3.504-3.116a4.68 4.68 0 0 1 3.504-1.572c1.355 0 2.616.58 3.494 1.562a8.15 8.15 0 0 1-3.494.782 8.3 8.3 0 0 1-3.504-.771m3.504-15.712c4.523 0 8.203 3.715 8.203 8.281a8.19 8.19 0 0 1-2.743 6.116 7.02 7.02 0 0 0-5.46-2.6c-2.16 0-4.162.981-5.482 2.627a8.15 8.15 0 0 1-2.8-6.143c0-4.566 3.716-8.281 8.282-8.281M34.063 28.203a4.693 4.693 0 0 0-4.688-4.687 4.693 4.693 0 0 0-4.687 4.687 4.693 4.693 0 0 0 4.687 4.688 4.693 4.693 0 0 0 4.688-4.688m-4.688 2.344a2.346 2.346 0 0 1-2.344-2.344 2.346 2.346 0 0 1 2.344-2.344 2.346 2.346 0 0 1 2.344 2.344 2.346 2.346 0 0 1-2.344 2.344"/><path d="M29.375 18.828c-5.815 0-10.547 4.732-10.547 10.547C18.828 35.234 23.56 40 29.375 40 35.194 40 40 35.216 40 29.375c0-5.815-4.766-10.547-10.625-10.547m-3.494 18.038c.893-1.015 2.174-1.632 3.494-1.632 1.325 0 2.61.621 3.504 1.643a8.2 8.2 0 0 1-3.504.78 8.1 8.1 0 0 1-3.494-.79m8.971-1.285c-1.334-1.685-3.335-2.69-5.477-2.69-2.13 0-4.122.994-5.456 2.662a8.3 8.3 0 0 1-2.747-6.178c0-4.523 3.68-8.203 8.203-8.203 4.566 0 8.281 3.68 8.281 8.203a8.26 8.26 0 0 1-2.804 6.206M7.11 27.031v-.686l1.515 1.515 1.657-1.657-4.345-4.345-4.344 4.345 1.658 1.657 1.515-1.515v.686c0 5.859 4.73 10.625 10.547 10.625h3.515v-2.343h-3.515c-4.524 0-8.204-3.716-8.204-8.282M34.063 12.969v.686l-1.516-1.515-1.657 1.657 4.344 4.345 4.345-4.345-1.658-1.657-1.515 1.515v-.686c0-5.859-4.731-10.625-10.547-10.625h-3.515v2.344h3.515c4.524 0 8.203 3.714 8.203 8.28"/></g><defs><clipPath id="a"><path fill="#fff" d="M0 0h40v40H0z"/></clipPath></defs></svg>