<svg xmlns="http://www.w3.org/2000/svg" width="45" height="45" fill="none"><g fill="#000" clip-path="url(#a)"><path d="M35.347 21.115c.329.136.707.06.958-.19l5.273-5.274a.88.88 0 0 0 0-1.243l-5.273-5.274a.88.88 0 0 0-1.5.622v1.758h-1.758c-2.476 0-4.877.665-7.031 1.936V6.943h1.758a.879.879 0 0 0 .62-1.5L23.122.17a.88.88 0 0 0-1.242 0l-5.274 5.273a.88.88 0 0 0 .622 1.5h1.757v6.507a13.77 13.77 0 0 0-7.03-1.936h-1.759V9.756a.88.88 0 0 0-1.5-.622l-5.273 5.274a.88.88 0 0 0 0 1.243l5.273 5.273a.88.88 0 0 0 1.5-.621v-1.758h1.758c2.82 0 5.37 1.719 6.465 4.268a11.52 11.52 0 0 0-6.543 6.464.878.878 0 1 0 1.634.647c1.406-3.544 4.892-6.106 8.991-6.106 5.45 0 9.668 4.473 9.668 9.668a9.7 9.7 0 0 1-3.639 7.556c-.577-2.862-3.122-4.919-6.029-4.919-2.909 0-5.452 2.058-6.03 4.918a9.7 9.7 0 0 1-2.96-3.993.88.88 0 0 0-1.635.648c1.672 4.215 5.792 7.216 10.625 7.216 6.414 0 11.426-5.237 11.426-11.426 0-4.894-3.06-9.027-7.344-10.673 1.095-2.55 3.645-4.268 6.465-4.268h1.758v1.758a.88.88 0 0 0 .542.812M18.11 42.1a4.39 4.39 0 0 1 4.391-4.22 4.39 4.39 0 0 1 4.391 4.22 9.67 9.67 0 0 1-8.782 0m14.938-25.313c-3.594 0-6.836 2.234-8.158 5.524a11.5 11.5 0 0 0-4.777 0c-1.323-3.29-4.565-5.524-8.159-5.524H9.316a.88.88 0 0 0-.879.879v.515l-3.151-3.152 3.152-3.151v.515c0 .485.393.878.878.878h2.637c2.645 0 5.197.874 7.38 2.527a.878.878 0 0 0 1.41-.701V6.064a.88.88 0 0 0-.88-.878h-.515L22.5 2.034l3.152 3.152h-.515a.88.88 0 0 0-.88.878v9.033a.878.878 0 0 0 1.41.7c2.183-1.652 4.735-2.526 7.38-2.526h2.637a.88.88 0 0 0 .879-.878v-.515l3.151 3.151-3.151 3.152v-.515a.88.88 0 0 0-.88-.879z"/><path d="M26.895 31.729a4.4 4.4 0 0 0-4.395-4.395 4.4 4.4 0 0 0-4.395 4.395 4.4 4.4 0 0 0 4.395 4.394 4.4 4.4 0 0 0 4.395-4.394M22.5 34.365a2.64 2.64 0 0 1-2.637-2.637 2.64 2.64 0 0 1 2.637-2.636 2.64 2.64 0 0 1 2.637 2.637 2.64 2.64 0 0 1-2.637 2.636M12.832 33.486a.879.879 0 1 1-1.758 0 .879.879 0 0 1 1.758 0"/></g><defs><clipPath id="a"><path fill="#fff" d="M0 0h45v45H0z"/></clipPath></defs></svg>