<svg xmlns="http://www.w3.org/2000/svg" width="45" height="45" fill="none"><path fill="#000" d="m42.855 27.592-1.628-.37a9 9 0 0 0-.56-1.354l.888-1.412c.492-.778.456-1.604-.097-2.157l-1.316-1.315c-.548-.548-1.373-.586-2.156-.098l-1.413.892a9 9 0 0 0-1.35-.561l-.371-1.633c-.206-.894-.817-1.45-1.593-1.45H31.4c-.782 0-1.392.557-1.594 1.453l-.37 1.63a9 9 0 0 0-1.351.56l-1.417-.892c-.777-.487-1.602-.45-2.154.099L23.195 22.3c-.547.551-.584 1.376-.096 2.154l.892 1.416q-.334.651-.56 1.35l-1.63.37c-.896.203-1.453.813-1.453 1.594v1.86c0 .777.555 1.387 1.452 1.594l1.63.37q.227.697.561 1.35l-.893 1.417c-.487.78-.449 1.605.1 2.153l1.315 1.315c.552.553 1.378.59 2.155.099l1.417-.89q.653.33 1.35.558l.37 1.63c.202.898.813 1.455 1.593 1.455h1.861c.776 0 1.386-.556 1.593-1.454l.37-1.628a9 9 0 0 0 1.351-.562l1.414.89c.78.492 1.608.454 2.155-.098l1.314-1.313c.553-.55.591-1.376.1-2.158l-.89-1.414q.332-.655.559-1.35l1.632-.37c.896-.207 1.453-.818 1.453-1.593v-1.861c0-.78-.558-1.391-1.455-1.593m.047 3.454c0 .1-.216.188-.359.22l-2.03.461a.7.7 0 0 0-.523.5 8 8 0 0 1-.75 1.813.7.7 0 0 0 .016.722l1.108 1.761c.096.152.163.346.098.41l-1.317 1.318c-.062.063-.257-.005-.409-.1l-1.76-1.109a.7.7 0 0 0-.725-.015c-.57.325-1.18.579-1.81.752a.7.7 0 0 0-.5.523l-.46 2.026c-.034.145-.12.36-.222.36H31.4c-.103 0-.189-.213-.221-.358l-.461-2.03a.7.7 0 0 0-.5-.523 8 8 0 0 1-1.812-.75.7.7 0 0 0-.723.015l-1.765 1.11c-.125.08-.336.17-.41.097l-1.315-1.315c-.063-.063.004-.26.098-.41l1.111-1.762a.7.7 0 0 0 .016-.724 7.9 7.9 0 0 1-.752-1.81.7.7 0 0 0-.523-.5l-2.028-.461c-.144-.033-.359-.12-.359-.221v-1.861c0-.103.213-.188.357-.22l2.03-.462a.7.7 0 0 0 .523-.5 7.8 7.8 0 0 1 .752-1.81.7.7 0 0 0-.016-.724l-1.11-1.763c-.079-.126-.17-.34-.099-.412l1.314-1.313c.074-.073.288.018.412.096l1.764 1.111c.22.139.5.145.725.015a7.8 7.8 0 0 1 1.81-.752.7.7 0 0 0 .5-.523l.46-2.03c.033-.144.118-.356.221-.356h1.861c.102 0 .188.214.22.356l.462 2.03c.057.254.25.455.5.523.63.174 1.24.427 1.81.753a.7.7 0 0 0 .725-.016l1.758-1.11c.153-.095.35-.162.413-.099l1.316 1.315c.072.073-.019.285-.098.41l-1.109 1.762a.7.7 0 0 0-.016.724 7.9 7.9 0 0 1 .753 1.813c.069.25.27.443.522.5l2.03.461c.143.033.357.118.357.22zM32.328 25.55a4.57 4.57 0 0 0-4.563 4.563 4.57 4.57 0 0 0 4.563 4.565 4.57 4.57 0 0 0 4.565-4.565 4.57 4.57 0 0 0-4.565-4.563m0 7.72a3.16 3.16 0 0 1-3.156-3.157 3.16 3.16 0 0 1 3.156-3.155 3.16 3.16 0 0 1 3.157 3.155 3.16 3.16 0 0 1-3.157 3.158M6.625 22.584l1.278-.804q.58.294 1.195.497l.335 1.47c.195.854.777 1.384 1.52 1.384h1.715c.745 0 1.329-.53 1.524-1.385l.332-1.47a8.6 8.6 0 0 0 1.196-.495l1.275.801c.73.464 1.538.425 2.055-.096l1.214-1.21c.524-.525.562-1.312.098-2.057l-.804-1.278q.291-.577.494-1.192l1.472-.335c.854-.195 1.385-.779 1.385-1.524v-1.714c0-.743-.53-1.326-1.385-1.52l-1.47-.336a9 9 0 0 0-.496-1.195l.804-1.278c.465-.74.428-1.527-.098-2.053L19.05 5.58c-.525-.526-1.312-.564-2.054-.098l-1.276.805a8.6 8.6 0 0 0-1.195-.496L14.19 4.32c-.194-.852-.777-1.382-1.523-1.382h-1.714c-.744 0-1.327.53-1.52 1.382l-.336 1.472a8.6 8.6 0 0 0-1.196.496l-1.277-.806c-.74-.465-1.527-.427-2.053.099L3.356 6.795c-.523.527-.56 1.313-.096 2.051l.804 1.279q-.292.58-.494 1.194l-1.472.335c-.853.195-1.382.777-1.382 1.521v1.714c0 .746.53 1.33 1.382 1.524l1.472.335q.203.616.494 1.194L3.26 19.22c-.462.74-.424 1.526.1 2.055l1.21 1.208c.52.523 1.328.562 2.056.1m-1.048-1.084-.01-.01-1.211-1.208-.008-.01c-.009-.023.001-.139.104-.303l1.021-1.622a.7.7 0 0 0 .017-.722 7.4 7.4 0 0 1-.687-1.66.7.7 0 0 0-.522-.498l-1.87-.426c-.188-.043-.276-.117-.287-.138v-1.737c.012-.022.1-.096.286-.138l1.871-.426a.7.7 0 0 0 .523-.5c.158-.576.389-1.134.686-1.659a.7.7 0 0 0-.017-.721L4.452 8.097c-.103-.164-.113-.278-.105-.301q0-.003.007-.008l1.213-1.213.007-.006c.024-.008.14.002.3.104L7.5 7.696c.22.14.5.145.725.016a7.2 7.2 0 0 1 1.656-.687.7.7 0 0 0 .5-.523l.426-1.87c.042-.187.116-.276.137-.287h1.737c.022.01.096.099.139.285l.423 1.872c.057.253.25.454.5.523.582.16 1.14.391 1.656.687.226.13.504.123.725-.016l1.623-1.023c.163-.102.279-.113.301-.105l.008.007 1.213 1.213.008.008c.005.019.003.127-.106.3L18.15 9.722a.7.7 0 0 0-.016.723c.298.525.53 1.082.688 1.657.069.25.27.442.522.5l1.869.426c.202.046.28.123.289.138V14.9c-.012.023-.101.097-.29.14l-1.87.426a.7.7 0 0 0-.522.499 7.3 7.3 0 0 1-.686 1.656.7.7 0 0 0 .016.722l1.02 1.623c.111.177.112.287.107.303q.001 0-.007.01l-1.216 1.212-.006.007c-.02.005-.128.003-.3-.107l-1.625-1.021a.7.7 0 0 0-.724-.015 7.2 7.2 0 0 1-1.656.687.7.7 0 0 0-.5.523l-.423 1.868c-.043.189-.118.278-.139.289h-1.734c-.018-.01-.095-.09-.14-.29l-.426-1.868a.7.7 0 0 0-.5-.522 7.3 7.3 0 0 1-1.658-.688.7.7 0 0 0-.722.016l-1.627 1.023c-.172.109-.28.11-.296.105m6.234-3.205a4.266 4.266 0 0 0 4.261-4.262 4.264 4.264 0 0 0-4.261-4.259 4.265 4.265 0 0 0-4.262 4.26 4.267 4.267 0 0 0 4.262 4.26m0-7.113a2.856 2.856 0 0 1 2.854 2.851 2.86 2.86 0 0 1-2.854 2.854 2.857 2.857 0 0 1-2.854-2.854 2.855 2.855 0 0 1 2.854-2.851m6.103 19.768a1.42 1.42 0 0 0-1.547-.307c-.533.22-.877.736-.877 1.313v1.295H9.062v-6.008A2.134 2.134 0 0 0 6.93 25.11a2.13 2.13 0 0 0-2.129 2.132v8.137c0 1.175.955 2.13 2.13 2.13h8.559v1.295a1.415 1.415 0 0 0 1.421 1.42c.37 0 .73-.144 1.003-.416l3.426-3.426c.55-.551.552-1.45 0-2.007zm2.43 4.437-3.425 3.426-.006.005c-.005 0-.014-.004-.015-.004l-.001-.009v-1.998a.704.704 0 0 0-.704-.704H6.93a.723.723 0 0 1-.72-.723v-8.137a.723.723 0 1 1 1.444 0v6.711c0 .39.315.704.704.704h7.835a.704.704 0 0 0 .704-.703v-2.007c.004-.004.014-.008.015-.008l.007.006 3.423 3.423c.005.005.004.016.003.018m5.83-22.529a1.419 1.419 0 0 0 2.422-1.005v-1.294h6.43v6.008c0 1.174.956 2.129 2.13 2.129a2.133 2.133 0 0 0 2.131-2.13V8.427a2.133 2.133 0 0 0-2.131-2.128h-8.56V5.003c0-.576-.344-1.092-.876-1.312-.533-.22-1.14-.1-1.548.309l-3.423 3.423a1.4 1.4 0 0 0-.416 1.005c0 .38.148.736.416 1.004zm-2.43-4.438 3.423-3.424.006-.006c.006 0 .014.004.015.004v2.009c0 .388.316.703.705.703h9.263c.392 0 .723.33.723.722v8.139a.723.723 0 0 1-1.444 0V9.854a.704.704 0 0 0-.704-.704h-7.838a.704.704 0 0 0-.704.704v2.005l-.015.007q0 0-.007-.006l-3.423-3.423c-.004-.004-.004-.014 0-.019"/></svg>