<svg xmlns="http://www.w3.org/2000/svg" width="40" height="40" fill="none"><g fill="#000" clip-path="url(#a)"><path d="M20 21.172a1.172 1.172 0 1 0 0-2.344 1.172 1.172 0 0 0 0 2.344"/><path d="m26.947 13.283-2.407 1.39a7 7 0 0 0-2.196-1.274v-2.774h-4.688v2.774a7 7 0 0 0-2.196 1.273l-2.407-1.39-2.344 4.06 2.389 1.38c-.077.415-.13.84-.13 1.278s.053.863.13 1.279l-2.389 1.379 2.344 4.06 2.407-1.39c.645.55 1.381.983 2.196 1.273v2.774h4.688v-2.774a7 7 0 0 0 2.197-1.273l2.406 1.39 2.344-4.06-2.389-1.38c.077-.415.13-.84.13-1.278s-.053-.863-.13-1.279l2.389-1.379zM20 23.516A3.52 3.52 0 0 1 16.484 20 3.52 3.52 0 0 1 20 16.484 3.52 3.52 0 0 1 23.516 20 3.52 3.52 0 0 1 20 23.516"/><path d="M37.024 15.604c.369 1.43.632 2.91.632 4.396 0 9.693-7.963 17.656-17.656 17.656-5.546 0-10.75-2.732-14.047-7.11H8.28v-2.343h-5.86v5.86h2.345v-1.286C8.516 37.233 14.078 40 20 40c10.984 0 20-9.015 20-20 0-1.683-.289-3.358-.705-4.98zM.705 24.98l2.27-.584c-.368-1.43-.631-2.91-.631-4.396 0-9.693 7.963-17.656 17.656-17.656 5.546 0 10.75 2.732 14.047 7.11H31.72v2.343h5.86v-5.86h-2.345v1.286C31.484 2.767 25.922 0 20 0 9.016 0 0 9.015 0 20c0 1.682.289 3.358.705 4.98"/></g><defs><clipPath id="a"><path fill="#fff" d="M0 0h40v40H0z"/></clipPath></defs></svg>