<svg xmlns="http://www.w3.org/2000/svg" width="40" height="40" fill="none"><path fill="#000" d="M36.667 22.778h-.522a.55.55 0 0 1-.525-.386 10.5 10.5 0 0 0-.712-1.712.55.55 0 0 1 .098-.646l.37-.37a1.67 1.67 0 0 0 0-2.358l-1.57-1.571a1.67 1.67 0 0 0-2.358 0l-.37.37a.55.55 0 0 1-.647.097 10.6 10.6 0 0 0-1.712-.71.55.55 0 0 1-.386-.526v-.521a1.67 1.67 0 0 0-1.666-1.667h-2.222a1.67 1.67 0 0 0-1.667 1.666v.522a.55.55 0 0 1-.385.525q-.888.281-1.713.712a.55.55 0 0 1-.646-.098l-.37-.37a1.707 1.707 0 0 0-2.358 0l-1.572 1.57a1.67 1.67 0 0 0 0 2.358l.371.37a.55.55 0 0 1 .098.646 10.5 10.5 0 0 0-.712 1.714.55.55 0 0 1-.524.385h-.523a1.67 1.67 0 0 0-1.666 1.667v2.222a1.67 1.67 0 0 0 1.666 1.666h.523a.55.55 0 0 1 .524.386c.186.59.424 1.164.712 1.712a.55.55 0 0 1-.098.646l-.37.371a1.67 1.67 0 0 0 0 2.357l1.57 1.572a1.71 1.71 0 0 0 2.358 0l.37-.371a.55.55 0 0 1 .647-.097q.825.431 1.713.711a.55.55 0 0 1 .385.525v.522a1.67 1.67 0 0 0 1.667 1.666h2.222a1.67 1.67 0 0 0 1.666-1.666v-.522a.55.55 0 0 1 .386-.525q.887-.28 1.712-.712a.55.55 0 0 1 .646.098l.371.37a1.67 1.67 0 0 0 2.357 0l1.572-1.57a1.67 1.67 0 0 0 0-2.358l-.371-.37a.55.55 0 0 1-.097-.647q.431-.825.711-1.712a.55.55 0 0 1 .525-.386h.522a1.67 1.67 0 0 0 1.666-1.666v-2.222a1.67 1.67 0 0 0-1.666-1.667m.555 3.889a.556.556 0 0 1-.555.555h-.522a1.655 1.655 0 0 0-1.585 1.163 9.5 9.5 0 0 1-.636 1.532 1.66 1.66 0 0 0 .296 1.946l.371.37a.557.557 0 0 1 0 .787L33.02 34.59a.555.555 0 0 1-.786 0l-.37-.37a1.66 1.66 0 0 0-1.947-.297q-.737.386-1.532.636a1.655 1.655 0 0 0-1.163 1.585v.522a.556.556 0 0 1-.555.555h-2.222a.556.556 0 0 1-.556-.555v-.522a1.655 1.655 0 0 0-1.163-1.585 9.5 9.5 0 0 1-1.532-.636 1.655 1.655 0 0 0-1.946.296l-.37.371a.57.57 0 0 1-.786 0L16.52 33.02a.557.557 0 0 1 0-.786l.371-.37a1.66 1.66 0 0 0 .296-1.948 9.4 9.4 0 0 1-.636-1.53 1.65 1.65 0 0 0-1.584-1.164h-.523a.557.557 0 0 1-.555-.555v-2.222a.557.557 0 0 1 .556-.556h.522a1.65 1.65 0 0 0 1.584-1.163q.251-.794.637-1.532a1.66 1.66 0 0 0-.297-1.946l-.37-.37a.557.557 0 0 1 0-.787l1.57-1.57a.57.57 0 0 1 .787 0l.37.37a1.66 1.66 0 0 0 1.946.297 9.4 9.4 0 0 1 1.532-.637 1.655 1.655 0 0 0 1.163-1.585v-.521a.556.556 0 0 1 .556-.556h2.222a.556.556 0 0 1 .555.556v.521a1.655 1.655 0 0 0 1.163 1.585q.794.251 1.532.636a1.66 1.66 0 0 0 1.946-.296l.37-.37a.556.556 0 0 1 .787 0l1.571 1.57a.557.557 0 0 1 0 .787l-.37.37a1.66 1.66 0 0 0-.297 1.946q.386.738.636 1.532a1.655 1.655 0 0 0 1.585 1.163h.522a.556.556 0 0 1 .555.556z"/><path fill="#000" d="M25.556 21.667a3.889 3.889 0 1 0 0 7.777 3.889 3.889 0 0 0 0-7.777m0 6.666a2.777 2.777 0 1 1 0-5.554 2.777 2.777 0 0 1 0 5.554M6.667 3.889a2.778 2.778 0 1 0 0 5.555 2.778 2.778 0 0 0 0-5.555m0 4.444a1.667 1.667 0 1 1 0-3.333 1.667 1.667 0 0 1 0 3.333M27.778 6.111h.556a.556.556 0 1 0 0-1.111h-.556a.556.556 0 1 0 0 1.111M25.556 5H25a.556.556 0 0 0 0 1.111h.556a.556.556 0 0 0 0-1.111M22.778 5h-.556a.556.556 0 0 0 0 1.111h.556a.556.556 0 0 0 0-1.111M20 5h-.555a.556.556 0 1 0 0 1.111H20A.556.556 0 1 0 20 5M28.334 7.222h-.556a.556.556 0 1 0 0 1.111h.556a.556.556 0 1 0 0-1.11M25.556 7.222H25a.556.556 0 0 0 0 1.111h.556a.556.556 0 0 0 0-1.11M22.778 7.222h-.556a.556.556 0 0 0 0 1.111h.556a.556.556 0 0 0 0-1.11M20 7.222h-.555a.556.556 0 1 0 0 1.111H20a.556.556 0 1 0 0-1.11M3.889 17.778a2.778 2.778 0 1 0 5.555 0 2.778 2.778 0 0 0-5.555 0m4.444 0a1.667 1.667 0 1 1-3.333 0 1.667 1.667 0 0 1 3.333 0"/><path fill="#000" d="M14.234 32.778h-9.79a1.67 1.67 0 0 1-1.666-1.667v-4.445A1.67 1.67 0 0 1 4.445 25h7.222a.556.556 0 1 0 0-1.111H6.11v-1.111h6.667a.555.555 0 1 0 0-1.111H4.445A1.67 1.67 0 0 1 2.778 20v-4.445a1.67 1.67 0 0 1 1.667-1.666h17.45a.556.556 0 1 0 0-1.111H6.11v-1.112H28.89a2.78 2.78 0 0 0 2.778-2.777V4.444a2.78 2.78 0 0 0-2.778-2.777H4.445a2.78 2.78 0 0 0-2.778 2.777V8.89a2.78 2.78 0 0 0 2.778 2.778H5v1.11h-.555a2.78 2.78 0 0 0-2.778 2.778V20a2.78 2.78 0 0 0 2.778 2.778H5v1.11h-.555a2.78 2.78 0 0 0-2.778 2.778v4.445a2.78 2.78 0 0 0 2.778 2.778h9.789a.555.555 0 1 0 0-1.111m-9.79-22.223A1.67 1.67 0 0 1 2.779 8.89V4.444a1.67 1.67 0 0 1 1.667-1.666h24.444a1.67 1.67 0 0 1 1.667 1.666V8.89a1.67 1.67 0 0 1-1.667 1.666z"/><path fill="#000" d="M3.889 28.889a2.778 2.778 0 1 0 5.556 0 2.778 2.778 0 0 0-5.556 0m4.444 0a1.667 1.667 0 1 1-3.333 0 1.667 1.667 0 0 1 3.333 0"/></svg>