<svg xmlns="http://www.w3.org/2000/svg" width="40" height="40" fill="none"><path fill="#000" d="M34.398 5.537a5.61 5.61 0 0 0-5.603 5.603 5.61 5.61 0 0 0 5.602 5.602A5.61 5.61 0 0 0 40 11.14a5.61 5.61 0 0 0-5.602-5.602m0 8.86a3.26 3.26 0 0 1-3.258-3.258 3.26 3.26 0 0 1 3.258-3.257 3.26 3.26 0 0 1 3.257 3.258 3.26 3.26 0 0 1-3.258 3.257M1.45 13.076a1.17 1.17 0 0 0 1.659 0l3.047-3.047 3.047 3.047a1.17 1.17 0 0 0 1.659 0c.457-.458.457-1.2 0-1.658L7.814 8.371l3.047-3.047a1.173 1.173 0 0 0-1.658-1.658L6.156 6.713 3.11 3.666A1.173 1.173 0 0 0 1.45 5.324L4.498 8.37l-3.047 3.047a1.173 1.173 0 0 0 0 1.658M26.367 26.923a1.173 1.173 0 0 0-1.658 0L21.66 29.97l-3.047-3.047a1.173 1.173 0 0 0-1.658 1.659l3.047 3.047-3.047 3.047a1.173 1.173 0 0 0 1.658 1.658l3.047-3.047 3.047 3.047a1.17 1.17 0 0 0 1.659 0c.457-.458.457-1.2 0-1.658l-3.047-3.047 3.047-3.048c.458-.457.458-1.2 0-1.658M26.458 10.483l-4.728-4.11a1.172 1.172 0 0 0-1.539 1.77l2.508 2.179c-7.401.968-11.783 4.836-14.22 8.105-2.133 2.863-3.13 5.683-3.531 7.085A5.61 5.61 0 0 0 0 31.075a5.61 5.61 0 0 0 5.602 5.602 5.61 5.61 0 0 0 5.603-5.602 5.61 5.61 0 0 0-3.876-5.33 20.4 20.4 0 0 1 3.088-5.993c3.049-4.05 7.285-6.435 12.613-7.113l-2.336 2.688a1.172 1.172 0 0 0 1.77 1.538l4.11-4.728a1.17 1.17 0 0 0-.116-1.654M8.86 31.075a3.26 3.26 0 0 1-3.258 3.257 3.26 3.26 0 0 1-3.257-3.257 3.26 3.26 0 0 1 3.257-3.258 3.26 3.26 0 0 1 3.258 3.258"/></svg>