<svg xmlns="http://www.w3.org/2000/svg" width="45" height="45" fill="none"><g clip-path="url(#a)"><path fill="#000" d="m5.738 13.566 3.747 2.997a15.6 15.6 0 0 0-.464 2.942l-4.487 1.691a.7.7 0 0 0-.453.708 20.6 20.6 0 0 0 .55 3.492.7.7 0 0 0 .62.532c2.232.2 5.259.573 5.302.582a.7.7 0 0 0 .642-.191l4.076-4.076a.7.7 0 0 0 .2-.59 9.142 9.142 0 1 1 7.864 7.865.7.7 0 0 0-.589.2l-4.076 4.076a.7.7 0 0 0-.19.642c.008.043.381 3.07.581 5.301a.7.7 0 0 0 .532.62c1.146.283 2.314.468 3.492.55a.7.7 0 0 0 .707-.452l1.692-4.488c.993-.06 1.978-.215 2.942-.463l2.997 3.746a.7.7 0 0 0 .812.213 20.4 20.4 0 0 0 3.15-1.605.7.7 0 0 0 .305-.783l-1.27-4.627a16 16 0 0 0 2.106-2.106l4.628 1.27a.7.7 0 0 0 .782-.306 20.4 20.4 0 0 0 1.606-3.15.705.705 0 0 0-.213-.812l-3.747-2.998c.248-.963.403-1.948.464-2.941l4.487-1.692a.7.7 0 0 0 .453-.707 20.6 20.6 0 0 0-.55-3.493.7.7 0 0 0-.65-.533l-4.789-.222a15.5 15.5 0 0 0-1.353-2.655L40.278 8.1a.7.7 0 0 0-.05-.84 20.649 20.649 0 0 0-2.5-2.5.7.7 0 0 0-.839-.049l-4.003 2.634a15.5 15.5 0 0 0-2.655-1.353l-.222-4.79a.7.7 0 0 0-.534-.65 20.6 20.6 0 0 0-3.492-.55.7.7 0 0 0-.708.453l-1.691 4.487c-.993.06-1.978.216-2.942.464l-2.997-3.747a.7.7 0 0 0-.813-.213c-1.094.444-2.148.98-3.15 1.606a.7.7 0 0 0-.305.782l1.27 4.628a16 16 0 0 0-2.106 2.106l-4.627-1.27a.7.7 0 0 0-.783.305 20.4 20.4 0 0 0-1.605 3.15.7.7 0 0 0 .212.813m6.876-1.52a.7.7 0 0 0 .742-.246c.732-.943 1.58-1.79 2.522-2.523a.7.7 0 0 0 .247-.741l-1.251-4.561q.972-.57 2.005-1.023l2.954 3.693a.7.7 0 0 0 .745.237c1.146-.333 2.329-.52 3.522-.556a.7.7 0 0 0 .636-.454l1.667-4.424q1.123.11 2.226.351l.218 4.72a.7.7 0 0 0 .465.63c1.124.402 2.191.946 3.177 1.619a.7.7 0 0 0 .783.006l3.946-2.596q.844.748 1.593 1.593l-2.597 3.946a.7.7 0 0 0 .007.783 14 14 0 0 1 1.62 3.176.7.7 0 0 0 .629.466l4.72.218q.24 1.102.35 2.225l-4.423 1.667a.7.7 0 0 0-.455.637 14.2 14.2 0 0 1-.555 3.522.7.7 0 0 0 .236.745l3.693 2.954q-.451 1.033-1.022 2.005l-4.56-1.252a.7.7 0 0 0-.742.247c-.732.943-1.58 1.79-2.523 2.523a.7.7 0 0 0-.246.741l1.251 4.56q-.972.57-2.005 1.023l-2.954-3.693a.7.7 0 0 0-.745-.236 14.2 14.2 0 0 1-3.522.555.7.7 0 0 0-.637.455l-1.667 4.423a19 19 0 0 1-2.248-.356 523 523 0 0 0-.48-4.589l3.565-3.564a10.549 10.549 0 1 0-9.465-9.464l-3.564 3.565c-.155-.024-4.076-.433-4.589-.48a19 19 0 0 1-.356-2.248l4.423-1.668a.7.7 0 0 0 .455-.636 14.2 14.2 0 0 1 .555-3.522.7.7 0 0 0-.236-.745L7.031 12.8q.452-1.033 1.022-2.005zm14.369 2.297a.7.7 0 0 0-.482-.5 6.9 6.9 0 0 0-8.737 7.93L1.164 38.37c-1.488 1.489-1.542 3.92-.121 5.422l.076.079a3.856 3.856 0 0 0 5.452-.001l16.645-16.646a6.9 6.9 0 0 0 7.93-8.737.702.702 0 0 0-1.17-.297l-3.566 3.565-2.506-.671-.672-2.506 3.566-3.566a.7.7 0 0 0 .185-.67m-4.333 7.498a.7.7 0 0 0 .498.497l3.29.882a.7.7 0 0 0 .679-.182l2.9-2.9a5.492 5.492 0 0 1-6.693 5.673 1.03 1.03 0 0 0-.957.275l-16.79 16.79a2.45 2.45 0 0 1-3.513-.05c-.903-.953-.86-2.505.095-3.46l16.744-16.744a1.03 1.03 0 0 0 .275-.957 5.493 5.493 0 0 1 5.673-6.693l-2.9 2.9a.7.7 0 0 0-.183.68z"/></g><defs><clipPath id="a"><path fill="#fff" d="M0 0h45v45H0z"/></clipPath></defs></svg>