<svg xmlns="http://www.w3.org/2000/svg" width="45" height="45" fill="none"><path fill="#000" d="M5.624 26.418a1.4 1.4 0 0 0 1.115-.549l.611-.794a15.36 15.36 0 0 0 10.12 11.952c1.662.576 3.368.853 5.051.853 5.04 0 9.89-2.486 12.794-6.864a1.407 1.407 0 0 0-2.346-1.554 12.535 12.535 0 0 1-14.575 4.908 12.54 12.54 0 0 1-8.301-10.02l1.203.927a1.407 1.407 0 0 0 1.716-2.229l-3.334-2.566c-.7-.538-1.693-.84-2.326-.015l-2.84 3.688a1.405 1.405 0 0 0 1.112 2.263M10.081 15.934a1.41 1.41 0 0 0 1.95-.395 12.54 12.54 0 0 1 14.577-4.908 12.54 12.54 0 0 1 8.3 10.02l-1.203-.927a1.405 1.405 0 0 0-1.972.258 1.405 1.405 0 0 0 .256 1.971l3.335 2.567c.711.547 1.683.853 2.326.015l2.84-3.689a1.405 1.405 0 1 0-2.227-1.714l-.612.795A15.36 15.36 0 0 0 27.53 7.975c-6.637-2.303-13.972.167-17.845 6.009a1.41 1.41 0 0 0 .395 1.95"/></svg>