<svg xmlns="http://www.w3.org/2000/svg" width="45" height="45" fill="none"><path fill="#000" fill-rule="evenodd" d="M9.558 19.395v2.103a.618.618 0 0 1-1.034.456l-6.18-5.63a.617.617 0 0 1 0-.914l6.18-5.63a.618.618 0 0 1 1.034.456v2.534a13.4 13.4 0 0 1 7.157 3.092c1.354-.167 2.566-1.272 2.566-2.877q.002-.32.112-.6V8.23h-2.64a.618.618 0 0 1-.456-1.035l5.775-6.29a.62.62 0 0 1 .91 0l5.775 6.29a.618.618 0 0 1-.455 1.035h-2.64v4.154c.071.187.111.389.111.6 0 1.587 1.184 2.685 2.519 2.872a13.4 13.4 0 0 1 7.15-3.085v-2.535a.618.618 0 0 1 1.034-.457l6.18 5.631a.62.62 0 0 1 0 .913l-6.18 5.631a.618.618 0 0 1-1.034-.456v-2.03a2 2 0 0 1-.136.155c-1.821 1.82-.528 4.94 2.046 4.94.92 0 1.66.744 1.66 1.66v3.173c0 .916-.74 1.66-1.66 1.66-2.574 0-3.867 3.12-2.046 4.94.647.648.647 1.701 0 2.349l-2.244 2.243c-.647.648-1.7.648-2.348 0-1.821-1.82-4.94-.528-4.94 2.047 0 .919-.744 1.66-1.66 1.66H20.94c-.917 0-1.66-.741-1.66-1.66 0-2.578-3.118-3.87-4.94-2.047a1.66 1.66 0 0 1-2.347 0l-2.245-2.243a1.66 1.66 0 0 1 0-2.348c1.82-1.821.53-4.941-2.047-4.941a1.66 1.66 0 0 1-1.66-1.66v-3.173c0-.916.744-1.66 1.66-1.66 2.576 0 3.867-3.12 2.047-4.94a1.7 1.7 0 0 1-.191-.228m8.225-2.526c.6.631 1.14 1.32 1.61 2.06v-3.102a4.2 4.2 0 0 1-1.61 1.042m1.61 4.76a12.261 12.261 0 0 0-3.293-4.667 12.17 12.17 0 0 0-7.203-3.012.62.62 0 0 1-.574-.616v-1.7l-4.647 4.233L8.323 20.1v-1.762a.62.62 0 0 1 .688-.614q.518.06 1.016.18a8.49 8.49 0 0 1 6.275 6.387q.201.894.204 1.849l.053 5.313c.538.78 1.102 1.41 1.692 1.9a7 7 0 0 0 1.142.72zm-4.345 2.726a7.26 7.26 0 0 0-3.705-4.652c1.432 2.604-.385 6.096-3.64 6.096a.424.424 0 0 0-.425.424v3.173c0 .234.19.424.424.424 3.676 0 5.518 4.452 2.92 7.05a.426.426 0 0 0 0 .601l2.245 2.244a.424.424 0 0 0 .6 0c2.6-2.6 7.05-.758 7.05 2.92 0 .235.19.424.424.424h3.172c.235 0 .425-.19.425-.424 0-3.674 4.451-5.518 7.05-2.92a.426.426 0 0 0 .6 0l2.244-2.244a.426.426 0 0 0 0-.601c-2.598-2.598-.753-7.05 2.92-7.05.235 0 .425-.19.425-.424v-3.173a.424.424 0 0 0-.425-.424c-3.27 0-5.09-3.527-3.62-6.134a7.26 7.26 0 0 0-3.76 4.614c.511 1.071.797 2.269.797 3.532 0 1.51-.41 2.927-1.124 4.147q0 .003-.003.005c-1.433 2.443-4.088 4.09-7.114 4.09a8 8 0 0 1-1.413-.123l-.06-.01a6.4 6.4 0 0 1-1.244-.295 7.1 7.1 0 0 1-2.332-1.308 8.3 8.3 0 0 1-2.069-2.359 8.2 8.2 0 0 1-1.123-4.147c0-1.233.272-2.404.76-3.456m9.378-11.848V7.613c0-.342.276-.618.618-.618h1.852l-4.369-4.758-4.369 4.758h1.853c.34 0 .617.276.617.617v26.942q.187.053.377.096h.001a7 7 0 0 0 .379.073c.846.104 1.77.06 2.574-.102q.238-.068.467-.143V12.507m2.805 4.347a4.2 4.2 0 0 1-1.57-1.027v3.017a13.5 13.5 0 0 1 1.57-1.99m-1.57 17.12c1.166-.578 2.13-1.39 2.834-2.503v-5.328c0-.665.076-1.313.221-1.934a8.49 8.49 0 0 1 7.273-6.485.617.617 0 0 1 .689.614V20.1l4.646-4.233-4.646-4.233v1.7c0 .325-.251.594-.575.616a12.17 12.17 0 0 0-7.2 3.01 12.3 12.3 0 0 0-3.242 4.536z" clip-rule="evenodd"/></svg>