<svg xmlns="http://www.w3.org/2000/svg" width="40" height="40" fill="none"><path fill="#000" fill-rule="evenodd" d="M14.583 18.334v3.333a3.75 3.75 0 0 0 3.75 3.75h3.334a3.75 3.75 0 0 0 3.75-3.75v-3.334a3.75 3.75 0 0 0-3.75-3.75h-3.334a3.75 3.75 0 0 0-3.75 3.75m2.5 0c0-.332.132-.65.367-.884.233-.235.552-.366.883-.366h3.334c.331 0 .65.131.883.366.235.233.367.552.367.884v3.333c0 .331-.132.65-.367.883a1.24 1.24 0 0 1-.883.367h-3.334c-.331 0-.65-.132-.883-.367a1.25 1.25 0 0 1-.367-.883zM2.083 5.834v3.333a3.75 3.75 0 0 0 3.75 3.75h3.334a3.75 3.75 0 0 0 3.75-3.75V5.834a3.75 3.75 0 0 0-3.75-3.75H5.833a3.75 3.75 0 0 0-3.75 3.75m2.5 0c0-.332.132-.65.367-.884.233-.235.552-.367.883-.367h3.334c.331 0 .65.132.883.367.235.234.367.552.367.883v3.334c0 .332-.132.65-.367.883a1.25 1.25 0 0 1-.883.367H5.833c-.331 0-.65-.132-.883-.367a1.25 1.25 0 0 1-.367-.883zM27.083 30.834v3.333a3.75 3.75 0 0 0 3.75 3.75h3.334a3.75 3.75 0 0 0 3.75-3.75v-3.334a3.75 3.75 0 0 0-3.75-3.75h-3.334a3.75 3.75 0 0 0-3.75 3.75m2.5 0c0-.332.132-.65.367-.884.233-.235.552-.366.883-.366h3.334c.331 0 .65.131.883.366.235.233.367.552.367.884v3.333c0 .331-.132.65-.367.883a1.24 1.24 0 0 1-.883.367h-3.334c-.331 0-.65-.132-.883-.367a1.25 1.25 0 0 1-.367-.883z" clip-rule="evenodd"/><path fill="#000" fill-rule="evenodd" d="M11.667 8.75h21.666a2.087 2.087 0 0 1 2.084 2.083v5.834a2.087 2.087 0 0 1-2.084 2.083h-5a1.25 1.25 0 0 0 0 2.5h5a4.6 4.6 0 0 0 3.242-1.342 4.6 4.6 0 0 0 1.341-3.241v-5.834a4.6 4.6 0 0 0-1.341-3.241 4.6 4.6 0 0 0-3.242-1.342H11.667a1.25 1.25 0 0 0 0 2.5M21.667 31.25h-15a2.087 2.087 0 0 1-2.084-2.083v-5.834a2.087 2.087 0 0 1 2.084-2.083h9.166a1.25 1.25 0 0 0 0-2.5H6.667a4.6 4.6 0 0 0-3.242 1.342 4.6 4.6 0 0 0-1.342 3.241v5.834c0 1.215.484 2.381 1.342 3.241a4.6 4.6 0 0 0 3.242 1.342h15a1.25 1.25 0 0 0 0-2.5" clip-rule="evenodd"/><path fill="#000" fill-rule="evenodd" d="M32.55 22.45 30.102 20l2.448-2.45a1.248 1.248 0 1 0-1.767-1.766l-3.333 3.333a1.25 1.25 0 0 0 0 1.767l3.333 3.333a1.248 1.248 0 1 0 1.767-1.767M20.883 36.717l3.334-3.333a1.25 1.25 0 0 0 0-1.767l-3.334-3.333a1.248 1.248 0 1 0-1.767 1.766l2.449 2.45-2.449 2.45a1.248 1.248 0 1 0 1.767 1.767" clip-rule="evenodd"/></svg>