<svg xmlns="http://www.w3.org/2000/svg" width="60" height="60" fill="none"><path fill="#000" d="M58.136 50.446H27.56v-1.149c0-1.325-1.244-2.404-2.773-2.404h-2.34V45.35h6.51a3.093 3.093 0 0 0 3.09-3.09V27.452a3.093 3.093 0 0 0-3.09-3.09h-.532a12.53 12.53 0 0 0-7.113-6 6.76 6.76 0 0 0 2.863-5.52 6.77 6.77 0 0 0-6.763-6.764 6.77 6.77 0 0 0-6.764 6.764 6.76 6.76 0 0 0 2.864 5.52 12.53 12.53 0 0 0-7.113 6H5.264a3.093 3.093 0 0 0-3.09 3.09v14.807a3.093 3.093 0 0 0 3.09 3.09h6.51v1.544h-2.34c-1.528 0-2.772 1.079-2.772 2.404v1.15H1.867a.94.94 0 0 0-.937.937v5.578c0 .518.42.938.937.938h56.269c.518 0 .937-.42.937-.938v-5.578a.937.937 0 0 0-.937-.938M12.523 12.842a4.894 4.894 0 0 1 4.889-4.889 4.894 4.894 0 0 1 4.889 4.889 4.894 4.894 0 0 1-4.89 4.888 4.894 4.894 0 0 1-4.888-4.888m4.889 6.763a10.64 10.64 0 0 1 8.836 4.757H8.576a10.64 10.64 0 0 1 8.836-4.757M5.264 43.474c-.67 0-1.215-.545-1.215-1.215V27.452c0-.67.545-1.215 1.215-1.215h23.693c.67 0 1.215.545 1.215 1.215v14.807c0 .67-.545 1.215-1.215 1.215h-6.51v-4.67a4.89 4.89 0 0 0-4.885-4.886h-.902a4.89 4.89 0 0 0-4.886 4.886v4.67zm8.385-4.67c0-1.66 1.35-3.011 3.01-3.011h.903c1.66 0 3.01 1.35 3.01 3.01v8.09H13.65zM8.537 49.297c0-.215.35-.529.898-.529h15.352c.548 0 .898.314.898.53v1.148H8.537zm48.661 6.728H2.805V52.32h54.393zM56.964 2.1H35.371c-1.163 0-2.11.946-2.11 2.109v17.34c0 1.164.947 2.11 2.11 2.11h21.593c1.163 0 2.11-.946 2.11-2.11V4.21c0-1.163-.947-2.11-2.11-2.11m.234 19.45a.24.24 0 0 1-.234.234H35.371a.237.237 0 0 1-.235-.234V4.209c0-.127.108-.234.235-.234h21.593c.127 0 .234.107.234.234zm-8.662-3.455a.938.938 0 0 1-1.812.486L43.8 7.663a.938.938 0 0 1 1.811-.485zm7.661-5.215a.94.94 0 0 1-.333.716l-4.766 4.017a.934.934 0 0 1-1.321-.113.937.937 0 0 1 .112-1.32l3.916-3.3-3.916-3.3a.937.937 0 1 1 1.208-1.434l4.767 4.017c.211.178.333.44.333.716m-13.751-3.3-3.916 3.3 3.916 3.3a.937.937 0 1 1-1.209 1.433l-4.766-4.017a.937.937 0 0 1 0-1.433l4.766-4.017a.937.937 0 1 1 1.209 1.434"/></svg>