<svg xmlns="http://www.w3.org/2000/svg" width="60" height="60" fill="none"><path fill="#000" d="M52.404 7.803h-.712A5.125 5.125 0 0 0 50.37 1.01a5.126 5.126 0 0 0-7.32 1.267l-3.696 5.525H7.597a4.74 4.74 0 0 0-4.734 4.734v30.266a4.74 4.74 0 0 0 4.734 4.733h18.388l-1.39 5.836h-2.998a3.55 3.55 0 0 0-3.544 3.544v.74h-3.697a1.172 1.172 0 0 0 0 2.344h31.289a1.172 1.172 0 0 0 0-2.344h-3.697v-.74a3.55 3.55 0 0 0-3.544-3.544h-2.999l-1.39-5.836h18.389a4.74 4.74 0 0 0 4.734-4.733V12.537a4.74 4.74 0 0 0-4.734-4.734m-16.79 20.6c-1.833 1.283-5.265-.46-8.543 1.289-.8-4.155-.296-8.062 3.867-8.925a7.5 7.5 0 0 1 1.61-.153l4.24 3.145c.615 1.79.384 3.554-1.175 4.645m1.18-12.56 3.317 2.46-2.55 3.111-3.004-2.228zM45 3.582a2.783 2.783 0 0 1 3.974-.688 2.783 2.783 0 0 1 .494 4.003L41.6 16.49l-3.5-2.597zm-5.395 53.334v.74H20.397v-.74c0-.662.538-1.2 1.2-1.2h16.807c.662 0 1.2.538 1.2 1.2m-6.608-3.544h-5.99l1.388-5.836h3.213zm21.798-10.57a2.393 2.393 0 0 1-2.39 2.39H7.597a2.393 2.393 0 0 1-2.39-2.39v-5.487h3.349a1.172 1.172 0 0 0 0-2.344h-3.35V12.537a2.393 2.393 0 0 1 2.391-2.39h30.189l-5.436 8.122c-2.296.02-4.589.82-6.09 2.573-2.042 2.384-2.4 6.13-1.066 11.134a1.173 1.173 0 0 0 1.942.545c3.03-2.895 6.804.263 10.183-2.472 2.063-1.67 2.551-4.325 1.773-6.807l10.741-13.096h2.57a2.393 2.393 0 0 1 2.39 2.39v22.435H17.93a1.172 1.172 0 0 0 0 2.344h36.864z"/><path fill="#000" d="M13.016 34.994a1.171 1.171 0 1 0 .458 2.3 1.171 1.171 0 0 0-.458-2.3"/></svg>