<svg xmlns="http://www.w3.org/2000/svg" width="60" height="38" fill="none"><path fill="url(#a)" d="M7.334 37.674.067 16.402 0 9.83l7.354 20.236z"/><path fill="url(#b)" d="m52.844 37.673 7.06-21.272.095-6.499-7.155 20.062z"/><path fill="url(#c)" d="M40.297 19.665H20.821l-1.987-5.202-1.224-3.207 12.795-4.178 13.032 4.178zM30.423 0 .543 9.535l7.329 19.196h44.456l7.168-19.196z"/><path fill="url(#d)" d="M8.207 29.967h43.705v7.637H8.207z"/><path fill="#000" d="M29.974 11.724V8.105l-11.251 3.682 1.1 2.842zM41.232 14.667l1.094-2.824-11.482-3.71v3.62z"/><defs><linearGradient id="a" x1="0" x2="7.354" y1="9.83" y2="9.83" gradientUnits="userSpaceOnUse"><stop/><stop offset="1" stop-color="#717171"/></linearGradient><linearGradient id="b" x1="52.844" x2="59.999" y1="9.902" y2="9.902" gradientUnits="userSpaceOnUse"><stop/><stop offset="1" stop-color="#717171"/></linearGradient><linearGradient id="c" x1=".543" x2="59.496" y1="0" y2="0" gradientUnits="userSpaceOnUse"><stop stop-color="#030303"/><stop offset="1" stop-color="#717171"/></linearGradient><linearGradient id="d" x1="8.207" x2="51.912" y1="29.967" y2="29.967" gradientUnits="userSpaceOnUse"><stop stop-color="#ADADAD"/><stop offset="1"/></linearGradient></defs></svg>