<svg xmlns="http://www.w3.org/2000/svg" width="60" height="60" fill="none"><g fill="#000" clip-path="url(#a)"><path d="M47.766 13.213h.225a.625.625 0 0 0 0-1.25h-.225a.625.625 0 1 0 0 1.25m2.418 0h.225a.625.625 0 0 0 0-1.25h-.225a.625.625 0 1 0 0 1.25m2.41 0h.225a.625.625 0 0 0 0-1.25h-.225a.625.625 0 1 0 0 1.25m-30.763-.625a.625.625 0 0 0-.625-.625H7.344a.625.625 0 1 0 0 1.25h13.862a.625.625 0 0 0 .625-.625"/><path d="m59.964 23.375-3.27-7.594v-3.906a3.21 3.21 0 0 0-3.212-3.213H6.54a3.22 3.22 0 0 0-3.213 3.213v3.843C-.16 23.843.001 23.425.001 23.625v1.162a4.83 4.83 0 0 0 3.325 4.588v18.412a3.544 3.544 0 0 0 3.55 3.544h46.25a3.544 3.544 0 0 0 3.544-3.544V29.375A4.83 4.83 0 0 0 60 24.787c0-1.2.031-1.25-.037-1.412M58.439 23h-6.982l-2-6.507h6.17c1.343 3.094.705 1.632 2.812 6.507m-8.075 1.787a3.576 3.576 0 0 1-6.916 1.413 3.6 3.6 0 0 1-.228-1.413v-.537h7.144zm-8.394 0a3.574 3.574 0 1 1-7.144 0v-.537h7.144zm-8.394 0a3.575 3.575 0 0 1-7.15 0v-.537h7.15zm-8.4 0a3.575 3.575 0 1 1-7.144 0v-.537h7.144zm-8.394 0a3.574 3.574 0 1 1-7.143 0v-.537h7.143zM43.126 23l-1.206-6.507h6.206l2 6.507zm-1.25 0h-7.094l-.406-6.507h6.25zm-8.312 0H26.47l.406-6.507h6.25zm-8.313 0h-7.094l1.22-6.507h6.25zm-8.375 0H9.857l2.02-6.507h6.25zm-12.3-11.125A1.97 1.97 0 0 1 6.54 9.912h46.943a1.97 1.97 0 0 1 1.963 1.963v3.35H4.576zm-.2 4.618h6.181L8.545 23H1.564c2.112-4.913 1.493-3.463 2.812-6.507m-3.125 8.294v-.537H8.39v.537a3.575 3.575 0 0 1-7.138 0m54.206 23a2.29 2.29 0 0 1-2.33 2.294H6.876a2.294 2.294 0 0 1-2.295-2.294V29.606a4.83 4.83 0 0 0 4.438-2.45 4.82 4.82 0 0 0 8.394 0 4.82 4.82 0 0 0 8.393 0 4.82 4.82 0 0 0 8.4 0 4.82 4.82 0 0 0 8.394 0 4.82 4.82 0 0 0 8.394 0 4.84 4.84 0 0 0 4.456 2.45zm3.294-23a3.575 3.575 0 0 1-7.15 0v-.537h7.15z"/><path d="M46.74 34.043H33.126l-.42-1.831a1.41 1.41 0 0 0-1.38-1.107h-2.1a.625.625 0 1 0 0 1.25h2.093a.17.17 0 0 1 .163.138c3.862 16.975 1.25 5.456 2.5 10.869a2.14 2.14 0 0 0 1.35 1.544 1.961 1.961 0 1 0 3.594.131h2.006a1.963 1.963 0 1 0 3.656 0h.363a.625.625 0 1 0 0-1.25h-8.9a.894.894 0 0 1-.875-.7l-.088-.382h9.963a.625.625 0 0 0 .625-.487l.518-2.275v-.081c.35-1.525 1.013-4.456 1.144-5.032a.625.625 0 0 0-.6-.787m-4 12.419a.713.713 0 1 1 .712-.713.72.72 0 0 1-.713.713m-5.663 0a.713.713 0 1 1 0-1.425.713.713 0 0 1 0 1.425m8.63-10.094H42.84l.094-1.075h3.019zm-.624 2.762h-2.5c.131-1.487.131-1.5.131-1.512h2.688s.025-.013-.32 1.512m-7.069 0c-.131-1.525-.131-1.5-.131-1.512h3.594l-.132 1.512zm-3.75 0-.344-1.512h2.707l.13 1.512zm7.4-3.837-.094 1.075h-3.793l-.094-1.075zm-5.25 0 .094 1.075h-2.875l-.244-1.075zm-1.619 6.163c-.162-.713-.112-.47-.25-1.076h2.332c0 .088 0-.362.093 1.075zm3.407 0c-.113-1.457-.075-.976-.075-1.076h3.125c0 .088 0-.362-.094 1.075zm6.337 0h-2.144c.107-1.457.107-.976.107-1.076h2.306zm-19.31-10.35H14.6a1.95 1.95 0 0 0-1.944 1.943v5.388A1.95 1.95 0 0 0 14.6 40.38h10.625a1.944 1.944 0 0 0 1.938-1.944v-5.388a1.944 1.944 0 0 0-1.938-1.944m.688 7.33a.694.694 0 0 1-.688.694H14.6a.694.694 0 0 1-.694-.693v-5.388a.694.694 0 0 1 .694-.694h10.625a.693.693 0 0 1 .688.694zM13.266 42.88h2.5a.625.625 0 0 0 0-1.25h-2.5a.625.625 0 1 0 0 1.25m13.274 1.151H13.267a.625.625 0 0 0 0 1.25H26.54a.625.625 0 1 0 0-1.25m-7.5 2.401h-5.774a.625.625 0 0 0 0 1.25h5.775a.625.625 0 1 0 0-1.25m7.499-4.802h-8a.625.625 0 1 0 0 1.25h8a.625.625 0 0 0 0-1.25"/></g><defs><clipPath id="a"><path fill="#fff" d="M0 0h60v60H0z"/></clipPath></defs></svg>