<svg xmlns="http://www.w3.org/2000/svg" width="60" height="60" fill="none"><g clip-path="url(#a)"><path fill="#000" d="M26.632 44.032a2.3 2.3 0 0 1-2.3-2.298 2.3 2.3 0 0 1 2.3-2.299 2.3 2.3 0 0 1 2.3 2.299 2.3 2.3 0 0 1-2.3 2.298m0-2.661c-.2 0-.364.162-.364.363 0 .4.728.4.728 0 0-.2-.164-.363-.364-.363m8.644 2.661a2.3 2.3 0 0 1-2.299-2.298 2.3 2.3 0 0 1 2.299-2.299 2.3 2.3 0 0 1 2.298 2.299 2.3 2.3 0 0 1-2.298 2.298m0-2.661c-.2 0-.363.162-.363.363 0 .4.726.4.726 0 0-.2-.163-.363-.363-.363m7.24-19.411a2.24 2.24 0 0 0-1.787-.88H18.74l-.573-2.142a2.49 2.49 0 0 0-2.404-1.847H14.32a.967.967 0 1 0 0 1.935h1.442c.25 0 .47.17.535.411l4.622 17.284a2.9 2.9 0 0 0 2.802 2.151h15.515a.967.967 0 1 0 0-1.936H23.72a.97.97 0 0 1-.932-.714l-.353-1.32h14.568a3.885 3.885 0 0 0 3.746-2.876l2.157-8.113a2.24 2.24 0 0 0-.391-1.953m-1.535 1.18a.31.31 0 0 1 .054.276l-.959 3.608h-3.4l.54-4.008h3.513c.136 0 .216.077.252.124m-6.256 3.884h-3.557v-4.008h4.096zm-5.492-4.008v4.008H25.68l-.543-4.008zm-6.05 0 .543 4.008h-3.392l-1.074-4.008zm.805 5.944.543 4.007h-2.605l-1.074-4.007zm1.954 0h3.29v4.007h-2.747zm5.226 4.007V28.96h3.296l-.54 4.007zm5.836 0h-1.127l.54-4.007h3.144l-.682 2.566a1.94 1.94 0 0 1-1.875 1.44M16.39 6.547a.906.906 0 0 0-.906-.907H5.529a.906.906 0 1 0 0 1.813h9.956a.906.906 0 0 0 .906-.907m27.342 0a.968.968 0 1 1-1.936 0 .968.968 0 0 1 1.936 0m3.025-.969a.968.968 0 1 0 0 1.936.968.968 0 0 0 0-1.936m3.992 0a.968.968 0 1 0 0 1.936.968.968 0 0 0 0-1.936m8.541 42.292-2.968-2.503c.002-.06.011-.118.011-.178V7.38a5.29 5.29 0 0 0-5.278-5.277H5.278A5.29 5.29 0 0 0 0 7.38v37.81a5.29 5.29 0 0 0 5.278 5.277h40.63v3.625c0 .781.439 1.47 1.146 1.802a1.98 1.98 0 0 0 2.115-.273l1.813-1.506 1.01 2.168a2.76 2.76 0 0 0 1.57 1.446 2.788 2.788 0 0 0 3.578-1.663 2.76 2.76 0 0 0-.092-2.133l-1.008-2.17 2.32-.413a1.97 1.97 0 0 0 1.57-1.447 1.97 1.97 0 0 0-.639-2.033M1.931 7.38c0-1.838 1.5-3.338 3.347-3.338h45.778c1.847 0 3.347 1.5 3.347 3.338v1.668H1.931zm43.974 33.479.002 7.668H5.278a3.347 3.347 0 0 1-3.347-3.338v-34.2h52.472v32.76l-5.23-4.41a1.97 1.97 0 0 0-2.119-.282 1.97 1.97 0 0 0-1.15 1.802m12.112 8.585-3.555.635a.968.968 0 0 0-.707 1.361l1.539 3.312a.84.84 0 0 1 .028.65.86.86 0 0 1-.44.482.854.854 0 0 1-1.136-.416l-1.54-3.308a.97.97 0 0 0-.876-.559.97.97 0 0 0-.618.223l-2.868 2.268.081-13.275 10.119 8.53z"/></g><defs><clipPath id="a"><path fill="#fff" d="M0 0h60v60H0z"/></clipPath></defs></svg>