<svg xmlns="http://www.w3.org/2000/svg" width="60" height="60" fill="none"><g clip-path="url(#a)"><path fill="#000" d="M59.121 27.71a.88.88 0 0 0 .879-.878v-4.406a5.54 5.54 0 0 0-3.499-5.168l-4.369-1.747a1.46 1.46 0 0 1-.92-1.36v-.94a5.86 5.86 0 0 0 1.895-4.316V3.809A3.81 3.81 0 0 0 49.3 0h-4.124a3.813 3.813 0 0 0-3.808 3.809v5.086c0 1.705.731 3.242 1.896 4.316v.94c0 .602-.361 1.136-.92 1.36l-4.37 1.747a5.54 5.54 0 0 0-3.499 5.168v5.652h-5.427v-2.736a4.91 4.91 0 0 0-3.835-4.769l-4.919-1.082a.46.46 0 0 1-.357-.444V17.75a5.79 5.79 0 0 0 2.15-4.502V6.804A3.01 3.01 0 0 0 19.08 3.8h-5.587a3.01 3.01 0 0 0-3.005 3.005v6.444a5.79 5.79 0 0 0 2.15 4.502v1.297a.456.456 0 0 1-.36.444l-4.916 1.082a4.91 4.91 0 0 0-3.836 4.769v2.736h-.89A2.64 2.64 0 0 0 0 30.715v3.56c0 1.146.735 2.123 1.758 2.486v22.36a.879.879 0 1 0 1.758 0v-22.21h21.562a.879.879 0 1 0 0-1.757H2.637a.88.88 0 0 1-.88-.879v-3.56a.88.88 0 0 1 .88-.88h31.837v5.319h-5.2a.879.879 0 1 0 0 1.758h5.245c.239 1.444 1.55 2.556 3.031 2.556a3.06 3.06 0 0 0 1.367-.322l1.512 16.148a3.45 3.45 0 0 0-1.56 2.886c0 1.004.816 1.82 1.82 1.82h5.607a1.8 1.8 0 0 0 .94-.265c.276.167.597.265.942.265h5.608c1.003 0 1.82-.816 1.82-1.82a3.45 3.45 0 0 0-1.561-2.886l1.512-16.146c.29.144.603.24.927.287v19.686a.879.879 0 1 0 1.758 0v-19.95A3.08 3.08 0 0 0 60 36.39v-5.453a.879.879 0 1 0-1.758 0v3.256h-2.637v-7.91a.879.879 0 1 0-1.758 0v9.668h-13.22v-9.668a.879.879 0 1 0-1.758 0v7.91h-2.637V22.426c0-1.566.94-2.954 2.394-3.536l4.115-1.646a20.053 20.053 0 0 0 8.992 0l4.115 1.646a3.79 3.79 0 0 1 2.394 3.536v4.406a.88.88 0 0 0 .88.879m-38.41-6.328-2.282 2.282-.899-.898 1.788-1.788q.277.158.6.23zm-2.468-1.814-1.956 1.955-1.955-1.955q.063-.254.064-.521v-.319a5.77 5.77 0 0 0 3.782 0v.319q.001.267.065.52M12.247 6.804c0-.688.56-1.247 1.247-1.247h5.587c.687 0 1.247.56 1.247 1.247v2.217l-1.16-.504a4.34 4.34 0 0 0-2.695-.245l-4.226.982zm0 6.444V11.06l4.624-1.075a2.57 2.57 0 0 1 1.597.146l1.86.807v2.311a4.045 4.045 0 0 1-4.04 4.04 4.045 4.045 0 0 1-4.04-4.04m.409 7.96c.215-.046.415-.126.6-.23l1.788 1.788-.898.899-2.282-2.282zm14.634 6.87H5.285v-2.736A3.144 3.144 0 0 1 7.74 22.29l2.087-.46 3.162 3.164c.31.309.72.479 1.157.479s.848-.17 1.157-.48l.984-.984.985.985c.309.309.72.479 1.157.479s.847-.17 1.156-.48l3.163-3.162 2.086.459a3.144 3.144 0 0 1 2.455 3.052zm28.316 7.874h2.636c.105.847-.365 1.758-1.318 1.758-.959 0-1.406-.906-1.319-1.758m-1.82 22.29h-5.608a.06.06 0 0 1-.062-.062c0-.935.76-1.696 1.696-1.696h2.34c.935 0 1.696.761 1.696 1.696a.06.06 0 0 1-.062.062M40.626 37.71h13.222v.838L52.332 54.73c-.157-.01-2.35-.004-2.52-.004a3.43 3.43 0 0 0-1.696.446v-12.42a.879.879 0 1 0-1.758 0v12.42a3.43 3.43 0 0 0-1.696-.446c-.293 0-2.29-.007-2.52.004l-1.516-16.183zm1.696 18.774h2.34c.935 0 1.696.761 1.696 1.696a.06.06 0 0 1-.062.062h-5.608a.06.06 0 0 1-.062-.062c0-.935.761-1.696 1.696-1.696M38.87 35.952c.104.846-.366 1.758-1.319 1.758-.96 0-1.404-.906-1.318-1.758zm4.255-32.143c0-1.131.92-2.051 2.051-2.051H49.3c1.13 0 2.05.92 2.05 2.05V5.8l-.607 1.447a2.225 2.225 0 0 1-2.056 1.366h-2.898c-.9 0-1.707-.536-2.056-1.366L43.124 5.8zm4.347 12.188c-.97.013-1.943-.053-2.905-.195.262-.44.42-.943.448-1.475a5.8 5.8 0 0 0 2.223.438c.786 0 1.537-.157 2.223-.438a3.2 3.2 0 0 0 .447 1.474 18 18 0 0 1-2.436.196m-.234-2.99a4.12 4.12 0 0 1-4.083-3.63 3.98 3.98 0 0 0 2.634.994h2.898a3.98 3.98 0 0 0 2.634-.993 4.12 4.12 0 0 1-4.083 3.63M31.919 46.303h-2.085v-3.24c0-1.132-.92-2.052-2.05-2.052h-5.25c-1.13 0-2.05.92-2.05 2.051v3.24H18.4a2.705 2.705 0 0 0-2.702 2.703v8.293A2.705 2.705 0 0 0 18.4 60h13.519a2.705 2.705 0 0 0 2.701-2.702v-8.294a2.705 2.705 0 0 0-2.701-2.701m-9.677-3.241c0-.161.131-.293.293-.293h5.249c.161 0 .293.132.293.293v3.24h-5.835zm10.62 14.236c0 .52-.423.944-.943.944H18.4a.945.945 0 0 1-.944-.944v-8.294c0-.52.423-.944.944-.944h13.519c.52 0 .943.424.943.944z"/></g><defs><clipPath id="a"><path fill="#fff" d="M0 0h60v60H0z"/></clipPath></defs></svg>