<svg xmlns="http://www.w3.org/2000/svg" width="60" height="60" fill="none"><g fill="#000" clip-path="url(#a)"><path d="M54.873 0v1.758h3.37V7.03h-39.26V1.758h34.131V0H17.227v25.43H0v30.176A4.4 4.4 0 0 0 4.395 60h29.357v-1.758H4.395a2.64 2.64 0 0 1-2.637-2.636V34.219h39.258v21.386a2.64 2.64 0 0 1-2.637 2.637H35.51V60h2.869a4.4 4.4 0 0 0 4.394-4.395V34.57h12.832A4.4 4.4 0 0 0 60 30.176V0zM1.758 32.46v-5.273h39.258v5.274zm53.848.352H42.773V25.43H18.984V8.79h39.258v21.386a2.64 2.64 0 0 1-2.636 2.637"/><path d="m24.742 13.675 2.894 2.894-2.894 2.894 1.243 1.243 4.137-4.137-4.137-4.137zm8.031 3.775h14.404v1.757H32.773zm0-3.516h19.092v1.757H32.773zm-6.328 26.73h8.186v1.758h-8.186zm0-3.516h10.85v1.758h-10.85zm0 10.547h8.186v1.758h-8.186zm0-3.515h10.85v1.758h-10.85zm-2.422 11.133V37.148H5.86v18.164zM7.617 53.264l4.634-3.644 2.767 1.476-2.673 2.459H7.617zm7.325.29 5.492-5.051 1.832 1.144v3.908zm7.324-14.648v8.668l-2.036-1.272-3.84 3.533-4.324-2.306-4.449 3.499V38.906z"/><path d="M14.941 47.07a3.226 3.226 0 0 0 3.223-3.222 3.226 3.226 0 0 0-3.223-3.223 3.226 3.226 0 0 0-3.222 3.223 3.226 3.226 0 0 0 3.222 3.222m0-4.687c.808 0 1.465.657 1.465 1.465 0 .807-.657 1.465-1.465 1.465a1.466 1.466 0 0 1-1.464-1.465c0-.808.657-1.465 1.464-1.465M4.688 28.945h1.757v1.758H4.687zm3.515 0h1.758v1.758H8.203zM22.031 3.633h1.758V5.39h-1.758zm3.516 0h1.758V5.39h-1.758z"/></g><defs><clipPath id="a"><path fill="#fff" d="M0 0h60v60H0z"/></clipPath></defs></svg>