<svg xmlns="http://www.w3.org/2000/svg" width="60" height="53" fill="none"><path fill="#000" d="M29.696 48.404c.022 1.577.045 2.726.067 3.29a.4.4 0 0 1 0 .225v.158c0 .316.045.631.136.924.09-.293.135-.608.135-.924 0-.113.045-1.758.113-4.395-.023.023-.046.046-.046.068a4 4 0 0 0-.405.654M25.008 15.5c.36-.383.699-.833.947-1.307-.18.406-.88 1.938-.203 2.073.744.136 1.578-.09 3.087-2.005-.045-2.457-.09-4.597-.112-6.22h-.924c-.451 0-1.195-.045-1.69-.789-.541-.811-.564-1.645-.586-2.253-.023-.88-.248-2.48-1.353-3.38-.766-.61-2.839-1.082-4.755-.316-.63.248-1.893.901-3.132 1.51-1.127.563-2.57 1.262-3.02 1.262a38 38 0 0 0 2.817-1.443c1.24-.676 2.547-1.397 3.2-1.667 1.307-.519 3.809-.676 5.093.36 1.217.992 1.465 2.705 1.488 3.629.022.608.045 1.352.518 2.095.428.631 1.104.631 1.51.631h.811v-.586c-.721.046-1.758.09-2.208-.878-.541-1.172.045-4.17-1.758-5.432s-4.688-.946-7.257.541c-2.546 1.465-5.927 3.38-10.096 5.048S.625 8.718.13 8.786c-.474.09.383.405 2.163.45s3.268-.09 3.268-.09l13.07-5.95S7.364 8.809 6.417 9.417c-.946.61-1.713.812-1.645 1.375.068.564.789.496 2.772.451s2.411-.225 3.087-.428 8-3.583 8-3.583-7.842 3.898-8.969 4.8.09 1.194.857 1.217c.788.022 2.884-.09 4.056-.676s4.823-2.93 4.823-2.93-3.606 2.592-4.304 3.178c-.564.473-.857.878-.722 1.374.203.631 1.285.564 2.727.045 0 0 1.488-.518 2.051-1.014.563-.518 2.14-1.915 2.14-1.915s-1.87 1.938-2.343 2.772c-.45.833-.54 1.036-.315 1.51.315.675 2.704-.023 3.38-.744.496-.564.97-1.15 1.397-1.78 0 0-.72 1.171-.879 1.847-.157.677-.338 1.217.316 1.285.721.113 1.397.135 2.163-.699m4.462 15.347.203-.135c.135-.09.248-.158.338-.248.18-.113.36-.248.541-.36.023-1.285.068-2.592.09-3.877q-.54-.236-1.15-.473c-.022 0-.044-.022-.067-.022-.045-.023-.067-.023-.112-.046-.27-.09-.519-.202-.812-.292-.338-.136-.676-.248-1.014-.383-2.253 1.194-2.704 1.757-2.704 2.861 0 1.555 1.33 2.254 3.628 3.719.36-.27.721-.518 1.06-.744M26.7 28.076s-.158-.991 2.388-2.14c.068-.023.136-.068.203-.09.023 1.554.045 3.11.09 4.664-1.262-.856-2.681-1.668-2.681-2.434m3.853 19.133c-.113.135-.225.27-.338.383.654.88.609 1.736.248 2.84.338-.383 1.014-1.352.45-2.614a9 9 0 0 0-.36-.609m-1.037-9.24.834.834.564.564c.022.022.067.045.112.09 1.533-1.33 2.93-2.592 2.93-4.17 0-1.239-1.194-2.365-2.389-3.267-.112.068-.225.135-.338.225-.27.18-.518.339-.744.496 0 0-.022 0-.022.023-.045.045-.113.067-.158.112-.315.226-.608.429-.879.632.045 1.51.068 3.02.09 4.462m.97-4.98c1.487 1.082 2.073 1.78 2.073 2.547 0 .788-.834 1.712-2.186 3.065.022-1.803.067-3.674.113-5.612m8.225-21.657s1.578 1.397 2.141 1.916 2.05 1.014 2.05 1.014c1.443.518 2.525.586 2.728-.045.157-.496-.158-.924-.721-1.375-.7-.586-4.305-3.177-4.305-3.177s3.65 2.343 4.823 2.93c1.172.585 3.267.698 4.056.675s1.983-.315.857-1.217c-1.127-.901-8.97-4.8-8.97-4.8s7.302 3.403 8 3.583c.677.203 1.105.361 3.088.429 1.983.045 2.682.112 2.772-.451.09-.541-.699-.744-1.645-1.375-.947-.608-12.215-6.22-12.215-6.22l13.07 5.95s1.488.135 3.268.09 2.636-.36 2.163-.45-3.087-.745-7.256-2.412c-4.17-1.668-7.55-3.56-10.096-5.048-2.547-1.465-5.454-1.803-7.257-.541s-1.217 4.237-1.758 5.431c-.45.97-1.487.924-2.208.879 0 .18 0 .383-.023.586h.834c.406 0 1.082 0 1.51-.631.473-.721.496-1.487.518-2.096.023-.924.27-2.637 1.488-3.628C36.907.313 39.409.47 40.716.99c.653.247 1.96.968 3.2 1.667a38 38 0 0 0 2.817 1.442c-.473 0-1.893-.698-3.02-1.262-1.217-.63-2.479-1.262-3.132-1.51-1.916-.766-3.99-.293-4.756.316-1.126.901-1.33 2.501-1.352 3.38-.022.609-.045 1.465-.586 2.254-.473.743-1.217.788-1.69.788h-.924a718 718 0 0 0-.135 6.153c1.532 1.96 2.411 2.208 3.132 2.05.677-.135 0-1.667-.202-2.073.27.473.586.902.946 1.307.744.834 1.442.812 2.119.722.676-.09.473-.609.315-1.285s-.879-1.848-.879-1.848c.428.608.902 1.217 1.397 1.78.676.722 3.065 1.443 3.38.744.204-.45.136-.676-.315-1.51-.428-.834-2.32-2.772-2.32-2.772m-8.676-6.896c.36 0 .721-.112 1.014-.315s.54-.496.676-.812c.135-.338.18-.698.113-1.059a1.93 1.93 0 0 0-.496-.946 1.84 1.84 0 0 0-.947-.496 1.7 1.7 0 0 0-1.059.113 1.7 1.7 0 0 0-.811.676 1.8 1.8 0 0 0-.316 1.014c0 .248.046.473.136.698.09.226.225.429.405.586.18.18.36.316.586.406.203.09.45.135.699.135m5.994 13.702s-.045-1.262-2.096-1.397c-2.095-.135-2.186.766-2.14 1.104.157 0 .293.045.293.09s-.113.09-.248.09c.112.338.428.744 1.33 1.195.743.36 1.103.338 1.532.27 0 0 .495.293.495.766 0 .451-.788 1.33-4.484 3.178.225-9.96.428-18.705.428-18.705h.225c.09 0 .18-.045.248-.112a.36.36 0 0 0 .113-.248v-.113c0-.045 0-.09-.023-.135-.022-.045-.045-.09-.09-.113a2.3 2.3 0 0 1-.698.54 1.9 1.9 0 0 1-.857.181c-.293 0-.586-.067-.856-.18a1.8 1.8 0 0 1-.699-.541.4.4 0 0 0-.09.113c-.022.045-.022.09-.022.135v.113c0 .09.045.18.112.248a.36.36 0 0 0 .248.112h.226s.157 8.496.315 18.277l.992.495c.045.023.112.046.157.068.834.406 1.533.744 2.119 1.06 1.983-.767 3.921-1.646 4.507-2.885 1.037-2.299-1.037-3.606-1.037-3.606m-2.749-.518c-.225 0-.406-.113-.406-.248s.18-.248.406-.248c.225 0 .406.113.406.248s-.18.248-.406.248m-3.583 28.53c.18-.225.338-.45.518-.654.023-1.284.068-2.726.09-4.281-.225-.226-.473-.451-.743-.699-.09-.067-.158-.158-.248-.225a4 4 0 0 0-.338-.293c-.631.586-1.87 1.893-1.87 3.02 0 1.33 1.284 2.681 2.253 3.65.09-.202.203-.36.338-.518m-.135-5.363c.045 1.915.067 3.673.09 5.183-.744-.992-1.533-2.006-1.533-2.704 0-.654.383-1.398 1.443-2.48m.518-16.992c-4.395-2.119-5.296-3.088-5.296-3.561s.496-.766.496-.766c.428.09.788.09 1.532-.27.902-.429 1.217-.857 1.33-1.195-.135 0-.248-.045-.248-.09s.135-.09.293-.09V17.8c.022-.338-.09-1.217-2.164-1.082-2.05.136-2.095 1.398-2.095 1.398s-2.074 1.33-.992 3.583c.947 2.005 5.386 3.065 7.955 4.214 2.547 1.15 2.389 2.14 2.389 2.14 0 .857-1.713 1.759-3.065 2.705S26 33.35 26 35.288c0 1.78 1.78 3.155 3.515 4.687 1.758 1.533 2.322 2.457 2.322 3.313 0 1.172-1.938 2.75-2.93 4.71s.97 5.003.36 3.403c-.63-1.6-.292-2.727.519-3.854.991-1.374 3.11-2.726 3.11-4.552 0-1.532-2.231-3.335-2.231-3.335-1.983-1.983-3.245-3.11-3.245-4.102 0-.991.946-1.87 3.605-3.605 2.637-1.713 4.192-2.39 4.192-4.057 0-1.465-.744-1.983-5.138-4.102m-3.38-6.649c.225 0 .405.113.405.248 0 .136-.18.248-.405.248s-.406-.113-.406-.248.18-.248.406-.248"/></svg>