<svg xmlns="http://www.w3.org/2000/svg" width="60" height="60" fill="none"><g fill="#000" clip-path="url(#a)"><path d="m59.23 54.918-4.046-6.155 2.167-.594c1.293-.354 1.532-2.152.373-2.83l-6.085-3.566V4.337A4.34 4.34 0 0 0 47.302 0H4.857A4.34 4.34 0 0 0 .52 4.337v39.724a4.34 4.34 0 0 0 4.337 4.337h17.008a1.172 1.172 0 1 0 0-2.345H4.857a1.995 1.995 0 0 1-1.994-1.992V10.496h46.432V40.4l-4.138-2.423c-.583-.342-1.19-.55-1.839-.18a1.55 1.55 0 0 0-.776 1.533l.825 6.724H32.132a1.172 1.172 0 1 0 0 2.344h11.522l.702 5.727c.163 1.33 1.908 1.827 2.747.78l1.404-1.754 4.046 6.155a1.564 1.564 0 0 0 2.145.444l4.088-2.687a1.55 1.55 0 0 0 .444-2.145M2.863 4.338c0-1.1.895-1.994 1.994-1.994h42.445c1.099 0 1.993.894 1.993 1.993v3.815H2.863zm51.212 53.017-4.21-6.405c-.569-.865-1.856-.927-2.504-.118l-.908 1.134-1.388-11.327 9.847 5.768-1.402.384c-.997.273-1.455 1.477-.885 2.345l4.21 6.405z"/><path d="M10.848 25.535h7.864c.647 0 1.172-.525 1.172-1.172V16.53c0-.647-.525-1.172-1.172-1.172h-7.864c-.648 0-1.172.525-1.172 1.172v7.834c0 .647.524 1.172 1.172 1.172m1.172-7.834h5.52v5.49h-5.52zm13.968-.001h15.345a1.172 1.172 0 1 0 0-2.344H25.988a1.172 1.172 0 1 0 0 2.344m0 7.403h15.345a1.172 1.172 0 1 0 0-2.344H25.988a1.172 1.172 0 1 0 0 2.344m-15.14 7.404h30.485a1.172 1.172 0 1 0 0-2.344H10.848a1.172 1.172 0 1 0 0 2.344m0 7.402H36.17a1.172 1.172 0 1 0 0-2.344H10.848a1.172 1.172 0 1 0 0 2.344M7.37 4.902c-.413-1.01-1.92-.913-2.21.136-.28 1.013.872 1.862 1.758 1.3.473-.3.668-.918.452-1.436m4.296.001a1.18 1.18 0 0 0-1.53-.634c-.59.244-.88.94-.635 1.53.244.59.941.878 1.53.634.59-.243.88-.941.635-1.53m4.301 0a1.18 1.18 0 0 0-1.531-.634c-.59.244-.879.94-.634 1.53.244.59.941.878 1.53.634.59-.243.88-.941.634-1.53M28.13 46.777a1.18 1.18 0 0 0-1.53-.633c-.59.244-.878.94-.634 1.53.243.59.941.878 1.53.633.592-.245.877-.939.634-1.53"/></g><defs><clipPath id="a"><path fill="#fff" d="M0 0h60v60H0z"/></clipPath></defs></svg>