<svg xmlns="http://www.w3.org/2000/svg" width="60" height="60" fill="none"><g clip-path="url(#a)"><path fill="#000" d="m47.995 32.797-9.68-9.68c-.42-1.365-1.005-2.571-1.753-3.584-1.248-1.69-2.91-2.797-4.79-3.222.59-1.417 1.712-2.101 3.502-2.177a1.406 1.406 0 0 0-.12-2.81c-1.832.078-3.326.637-4.442 1.663q-.39.359-.712.788a6 6 0 0 0-.712-.788c-1.116-1.026-2.61-1.585-4.442-1.663a1.406 1.406 0 0 0-.12 2.81c1.79.076 2.912.76 3.502 2.177-1.88.425-3.542 1.532-4.79 3.222-.748 1.013-1.334 2.22-1.754 3.584l-9.68 9.68a5.394 5.394 0 0 0 0 7.62l1.479 1.478c1.037 1.038 2.338 1.58 3.78 1.58q.176 0 .355-.011c1.584-.096 2.938-.807 3.916-2.056l1.59-2.028c1.34 2.962 3.226 5.207 5.47 5.88v2.011a1.406 1.406 0 1 0 2.812 0V45.26c2.244-.673 4.13-2.918 5.47-5.88l1.59 2.028c.978 1.249 2.332 1.96 3.916 2.055q.178.011.355.011c1.442 0 2.742-.541 3.78-1.579l1.478-1.478a5.394 5.394 0 0 0 0-7.62m-24.237-2.906h12.484a25 25 0 0 1-.757 4.91h-10.97a25 25 0 0 1-.757-4.91m6.238-10.964h.008c3.447.002 5.79 3.148 6.204 8.151H23.792c.414-5.003 2.757-8.149 6.204-8.151M19.32 39.674c-.48.614-1.093.935-1.872.982s-1.425-.198-1.976-.75l-1.479-1.478a2.58 2.58 0 0 1 0-3.642l6.938-6.938q-.017.429-.018.866c0 2.532.382 5.156 1.075 7.555zm10.681 2.982H30c-1.377 0-2.932-1.542-4.16-4.123a18 18 0 0 1-.403-.92h9.128q-.193.474-.403.92c-1.228 2.581-2.783 4.122-4.16 4.123m16.006-4.228-1.479 1.478c-.551.552-1.197.797-1.976.75s-1.391-.368-1.872-.982l-2.668-3.405a27.7 27.7 0 0 0 1.074-7.555q-.001-.438-.017-.866l6.938 6.938a2.58 2.58 0 0 1 0 3.642M30 0C13.458 0 0 13.458 0 30s13.458 30 30 30 30-13.458 30-30S46.542 0 30 0m0 57.188C15.009 57.188 2.813 44.99 2.813 30S15.009 2.813 30 2.813 57.188 15.009 57.188 30 44.99 57.188 30 57.188"/></g><defs><clipPath id="a"><path fill="#fff" d="M0 0h60v60H0z"/></clipPath></defs></svg>