<svg xmlns="http://www.w3.org/2000/svg" width="60" height="60" fill="none"><g fill="#000" clip-path="url(#a)"><path d="M34.586 0h-9.188v9.187h9.187zm-9.18 12.703h9.18v9.188h-9.18zm12.696 0h9.187v9.188h-9.187zm0 12.703h9.187v9.188h-9.187zm12.707 0h9.187v9.188h-9.187zm-25.403 0h9.18v9.188h-9.18zm-3.522 0h-9.173v9.188h9.18v-9.188zm3.522 12.704h9.18v9.187h-9.18zm-.008 12.703V60h9.188v-9.187zM38.102 38.11h9.187v9.187h-9.187zm-25.399 9.187h9.187v-9.188h-9.187zM.008 25.406v9.188h9.187v-9.188zm21.876-3.516h.006v-9.187h-9.186v9.187z"/></g><defs><clipPath id="a"><path fill="#fff" d="M0 0h60v60H0z"/></clipPath></defs></svg>