<svg xmlns="http://www.w3.org/2000/svg" width="60" height="60" fill="none"><g fill="#000" clip-path="url(#a)"><path d="M16.217 37.91H8.183a.879.879 0 0 0 0 1.758h7.624v16.406H1.757V39.668h2.338c1.161-.034 1.16-1.723 0-1.758H1.348A1.35 1.35 0 0 0 0 39.258v17.226a1.35 1.35 0 0 0 1.348 1.348h14.87a1.35 1.35 0 0 0 1.347-1.348V39.258a1.35 1.35 0 0 0-1.348-1.348m19.231-10.77h-14.87a1.35 1.35 0 0 0-1.348 1.348v27.997a1.35 1.35 0 0 0 1.348 1.348h14.87a1.35 1.35 0 0 0 1.347-1.348V28.488a1.35 1.35 0 0 0-1.347-1.347m-.41 28.935h-14.05V28.898h14.05z"/><path d="M59.516 15.886 49.254 3.003a2.2 2.2 0 0 0-1.734-.835c-.68 0-1.311.305-1.734.836L35.524 15.886c-1.16 1.415-.1 3.624 1.733 3.598h1.48v37a1.35 1.35 0 0 0 1.347 1.349h14.87a1.35 1.35 0 0 0 1.348-1.348v-30.31a.88.88 0 0 0-1.758 0v29.9h-14.05V18.851c0-.62-.505-1.125-1.125-1.125h-2.112a.456.456 0 0 1-.359-.745L47.161 4.099c.208-.244.518-.228.717 0L58.141 16.98a.456.456 0 0 1-.36.745H55.67c-.62 0-1.125.504-1.125 1.125v3.19c.032 1.157 1.722 1.164 1.758 0v-2.558h1.48c1.833.026 2.896-2.18 1.734-3.597"/></g><defs><clipPath id="a"><path fill="#fff" d="M0 0h60v60H0z"/></clipPath></defs></svg>