<svg xmlns="http://www.w3.org/2000/svg" width="60" height="60" fill="none"><g clip-path="url(#a)"><path fill="#000" d="m58.68 27.174-1.47-.22v-.055c0-1.033-.562-1.914-1.429-2.244l-2.834-1.098a24.4 24.4 0 0 0-3.097-7.477l1.224-2.785c.373-.849.143-1.867-.584-2.594l-3.108-3.123c-.731-.73-1.755-.96-2.611-.585l-2.77 1.223a24.5 24.5 0 0 0-7.489-3.096l-1.085-2.83C33.096 1.42 32.21.857 31.168.857h-4.415c-1.033 0-1.914.562-2.244 1.429L23.41 5.12a24.5 24.5 0 0 0-7.476 3.097l-2.786-1.224c-.848-.373-1.867-.143-2.595.585L7.43 10.699c-.727.728-.957 1.747-.585 2.596L8.07 16.08a24.4 24.4 0 0 0-3.096 7.477l-2.83 1.097c-.87.331-1.433 1.212-1.433 2.245v4.415c0 1.02.557 1.905 1.43 2.259l2.833 1.085a24.2 24.2 0 0 0 3.108 7.488L6.846 44.92c-.375.854-.145 1.878.585 2.609l.425.425-5.163 3.955a.717.717 0 0 0-.133 1.005l4.556 5.948a.72.72 0 0 0 1.006.133l19.032-14.581 5.905 7.712a.717.717 0 0 0 1.006.134l21.577-16.523 1.308 1.709a.717.717 0 0 0 1.282-.354l1.054-9.125a.717.717 0 0 0-.606-.792M8.446 46.514c-.305-.305-.42-.715-.289-1.015l1.393-3.122a.72.72 0 0 0-.055-.684 22.8 22.8 0 0 1-3.203-7.717.72.72 0 0 0-.445-.52l-3.18-1.218c-.317-.128-.522-.49-.522-.924v-4.415c0-.432.2-.787.513-.906l3.192-1.237a.72.72 0 0 0 .442-.519 23 23 0 0 1 3.19-7.706.72.72 0 0 0 .055-.678L8.16 12.718c-.133-.303-.02-.697.287-1.004l3.121-3.122c.308-.307.703-.42 1.005-.286l3.135 1.378a.72.72 0 0 0 .678-.055 23.1 23.1 0 0 1 7.707-3.191.72.72 0 0 0 .517-.442L25.85 2.8c.117-.309.472-.508.904-.508h4.415c.434 0 .803.204.92.51l1.223 3.191a.72.72 0 0 0 .519.445 23.1 23.1 0 0 1 7.72 3.191.72.72 0 0 0 .679.054l3.12-1.377c.305-.134.714-.02 1.018.285l3.108 3.123c.307.307.42.7.286 1.004l-1.377 3.135a.72.72 0 0 0 .054.678 23 23 0 0 1 3.191 7.706c.05.236.217.431.442.519l3.196 1.238c.268.102.444.387.49.74l-6.16-.924a.717.717 0 0 0-.676 1.144l1.294 1.695-4.753 3.639c.202-1.051.316-2.114.316-3.182 0-6.97-4.35-13.254-10.847-15.725-1.365-2.045-3.761-3.005-5.97-3.005-2.212 0-4.608.962-5.973 3.006-6.495 2.472-10.845 8.755-10.845 15.724 0 2.546.585 5.065 1.684 7.32q-.342.498-.55 1.012c-.6 1.136-.984 2.465-1.144 3.951l-.004.077c0 .683.218 1.754.558 2.785l-3.682 2.821zm5.456-3.193c-.215-.754-.332-1.429-.338-1.818.144-1.303.48-2.455.998-3.425l.035-.076c.137-.349.347-.696.615-1.042l.004-.004c1.387-1.78 4.507-3.507 9.321-5.146l.07-.028c1.024-.474 1.552-1.537 1.57-3.16a.72.72 0 0 0-.22-.524c-2.329-2.246-3.118-5.619-2.637-11.284.257-3.456 3.018-5.003 5.64-5.003 2.623 0 5.384 1.547 5.642 5.01.48 5.658-.309 9.031-2.638 11.277a.72.72 0 0 0-.22.524c.018 1.623.546 2.686 1.57 3.16l.07.029c3.5 1.186 6.13 2.437 7.835 3.726l-6.065 4.643-5.905-7.713a.716.716 0 0 0-1.006-.133zm10.83-14.419c-.073 1.203-.506 1.472-.695 1.564-4.374 1.491-7.409 3.067-9.185 4.77a15.4 15.4 0 0 1-1.275-6.13c0-5.868 3.376-11.2 8.545-13.777a7.6 7.6 0 0 0-.232 1.371c-.505 5.955.346 9.633 2.842 12.202m17.662 5.735c-1.832-1.483-4.625-2.852-8.51-4.172-.19-.091-.622-.36-.695-1.563 2.496-2.569 3.347-6.246 2.842-12.195a7.6 7.6 0 0 0-.233-1.378c5.17 2.576 8.546 7.908 8.546 13.777 0 1.543-.24 3.08-.697 4.572zm14.617.528-.666-.87a.72.72 0 0 0-1.006-.133L33.762 50.684l-5.905-7.713a.717.717 0 0 0-1.006-.133L7.819 57.419l-3.684-4.81 24.41-18.7 5.907 7.712a.717.717 0 0 0 1.005.134l16.199-12.402a.717.717 0 0 0 .134-1.005l-.655-.857 6.647.998z"/></g><defs><clipPath id="a"><path fill="#fff" d="M0 0h60v60H0z"/></clipPath></defs></svg>