<svg xmlns="http://www.w3.org/2000/svg" width="60" height="60" fill="none"><g fill="#000" clip-path="url(#a)"><path d="M5.918 39.084a.879.879 0 1 0 0 1.758h7.676a.879.879 0 0 0 0-1.758z"/><path d="m59.014 45.514-3.7-3.7v-29.74c0-.808-.657-1.465-1.465-1.465h-8.46C42.06 7.42 37.38 5.55 32.724 5.567a18.36 18.36 0 0 0-12.65 5.04l-8.175-.001a.88.88 0 0 0 0 1.758h6.542a19 19 0 0 0-1.343 1.875H1.758v-1.875h6.039a.879.879 0 1 0 0-1.758H1.465c-.807 0-1.464.657-1.464 1.465L0 44.88c0 .808.657 1.465 1.465 1.465h11.91a.879.879 0 1 0 0-1.757H1.758V15.995l14.367.001a18.3 18.3 0 0 0-1.319 3.691h-8.83a.88.88 0 0 0-.878.879v7.031c0 .486.393.88.879.88h8.873q.312 1.236.783 2.402H5.918a.879.879 0 1 0 0 1.758h10.537q.657 1.231 1.485 2.343H5.918a.879.879 0 1 0 0 1.758h13.51c3.357 3.5 8.076 5.682 13.297 5.682 3.223 0 6.343-.833 9.09-2.394l1.758 1.757a1.68 1.68 0 0 0 2.273.1l2.707 2.707-31.077-.002a.879.879 0 1 0 0 1.758h3.836l-.771 2.812h-1.52a3.967 3.967 0 0 0-3.962 3.962v.432c0 .485.393.879.879.879l23.437.003a.88.88 0 0 0 .88-.879v-.432a3.967 3.967 0 0 0-3.963-3.962h-1.52l-.77-2.814 16.309.001 3.934 3.934a3.35 3.35 0 0 0 2.384.988c.901 0 1.748-.35 2.385-.988a3.376 3.376 0 0 0 0-4.769M38.45 52.677l-21.589-.003a2.21 2.21 0 0 1 2.159-1.758l17.27.004c1.064 0 1.953.755 2.16 1.757m-5.501-3.516-10.587-.002.771-2.812 9.045.001zm20.606-34.92H48.36a19 19 0 0 0-1.34-1.874h6.536zM6.856 26.72v-5.274h7.618a18.5 18.5 0 0 0 .025 5.273zm9.2-2.726c0-9.192 7.477-16.67 16.669-16.67 8.273 0 15.2 5.924 16.47 14.085a.879.879 0 1 0 1.737-.27 18.3 18.3 0 0 0-1.603-5.14h4.227v24.057l-2.941-2.941c.254-.303.394-.681.394-1.082 0-.45-.176-.873-.494-1.191l-1.757-1.757a18.3 18.3 0 0 0 2.341-7.689.879.879 0 1 0-1.752-.131c-.65 8.634-7.952 15.398-16.622 15.398-9.192 0-16.67-7.477-16.67-16.669m27.28 15.067a18.5 18.5 0 0 0 4.457-4.455l1.428 1.427-4.457 4.457zm14.435 9.98c-.305.304-.71.472-1.142.472-.43 0-.836-.168-1.141-.473l-8.394-8.394 2.283-2.283 8.394 8.394c.63.63.63 1.654 0 2.283"/><path d="M32.726 9.076c-8.225 0-14.917 6.692-14.917 14.918 0 4.75 2.294 9.26 6.138 12.062a.879.879 0 1 0 1.036-1.42 13.21 13.21 0 0 1-5.416-10.642c0-7.257 5.903-13.16 13.16-13.16 7.256 0 13.159 5.903 13.159 13.16 0 7.256-5.903 13.16-13.16 13.16-1.494 0-2.96-.249-4.357-.739a.879.879 0 1 0-.581 1.66c1.583.555 3.245.836 4.938.836 8.226 0 14.918-6.692 14.918-14.917 0-8.226-6.692-14.918-14.918-14.918"/><path d="M33.142 21.723a.879.879 0 0 0 0-1.758h-2.654a.88.88 0 0 0-.879.879v6.298c0 .486.394.88.88.88h2.653a.879.879 0 0 0 0-1.758h-1.775v-1.392h1.58a.879.879 0 0 0 0-1.758h-1.58v-1.391zm-8.422 4.571c-.61 0-1.194-.244-1.565-.654a.88.88 0 0 0-1.302 1.18c.709.783 1.753 1.232 2.866 1.232 1.38 0 2.54-.884 2.758-2.102.164-.92-.25-2.12-1.902-2.73-.53-.193-1.402-.51-1.733-.697q-.139-.075-.12-.269c.02-.177.151-.401.467-.496.85-.256 1.647.369 1.672.389a.879.879 0 0 0 1.126-1.35c-.061-.052-1.525-1.259-3.305-.723-.941.284-1.612 1.069-1.708 2-.087.836.307 1.6 1.027 1.993.362.209 1.193.523 1.966.802.202.075.854.35.78.772-.058.32-.458.653-1.028.653m19.372-2.299a4.06 4.06 0 0 0-4.057-4.058 4.06 4.06 0 0 0-4.057 4.058 4.06 4.06 0 0 0 4.057 4.057 4.06 4.06 0 0 0 4.057-4.057m-6.357 0c0-1.268 1.032-2.3 2.3-2.3s2.3 1.032 2.3 2.3-1.032 2.3-2.3 2.3a2.3 2.3 0 0 1-2.3-2.3"/></g><defs><clipPath id="a"><path fill="#fff" d="M0 0h60v60H0z"/></clipPath></defs></svg>