<svg xmlns="http://www.w3.org/2000/svg" width="60" height="60" fill="none"><g fill="#000" clip-path="url(#a)"><path d="M20.665 17.041A1.81 1.81 0 0 0 19 18.115l-3.862 8.52a1.47 1.47 0 0 0 1.338 2.077H30.06c1.139 0 1.852-1.248 1.258-2.231l-2.593-4.284a2.69 2.69 0 0 0-2.316-1.307c-.923 0-1.761.456-2.264 1.223l-1.813-3.998a1.81 1.81 0 0 0-1.666-1.074m-3.743 9.913L20.6 18.84c.008-.018.019-.042.065-.042s.057.024.066.042l3.677 8.113zm8.671-3.847a.94.94 0 0 1 .814-.459c.161 0 .563.045.813.459l2.328 3.847h-3.21l-1.316-2.903zm3.588-6.668a2.78 2.78 0 0 0-2.776-2.777 2.78 2.78 0 0 0-2.777 2.777 2.78 2.78 0 0 0 2.776 2.776 2.78 2.78 0 0 0 2.777-2.776m-3.795 0a1.02 1.02 0 0 1 2.037 0 1.02 1.02 0 0 1-2.037 0"/><path d="m58.026 53.692-8.29-8.29 1.182-1.182a2.237 2.237 0 0 0 0-3.16l-1.134-1.134.9-.901a2.873 2.873 0 0 0 0-4.058L40.333 24.614a2.3 2.3 0 0 0-2.34-.566q.094-.834.095-1.679c0-8.17-6.648-14.818-14.818-14.818-2.415 0-4.812.594-6.931 1.717a.879.879 0 1 0 .823 1.553 13.1 13.1 0 0 1 6.108-1.512c7.201 0 13.06 5.859 13.06 13.06 0 1.17-.156 2.324-.46 3.439l-9.163 9.163c-1.114.304-2.27.46-3.437.46-7.203 0-13.062-5.86-13.062-13.062 0-3.51 1.373-6.804 3.865-9.275a.879.879 0 0 0-1.238-1.248A14.7 14.7 0 0 0 8.45 22.37c0 8.172 6.648 14.82 14.82 14.82q.64-.002 1.277-.057l-.825.824a2.3 2.3 0 0 0-.677 1.635c0 .617.24 1.198.677 1.634l10.353 10.353c.56.559 1.294.839 2.029.839s1.47-.28 2.029-.84l.9-.9 1.135 1.134a2.233 2.233 0 0 0 3.16 0l1.183-1.183 3.835 3.835a.88.88 0 0 0 1.243-1.243l-3.835-3.835 2.74-2.74 8.289 8.29a1.94 1.94 0 0 1 0 2.74 1.93 1.93 0 0 1-1.37.568 1.92 1.92 0 0 1-1.37-.568l-1.555-1.555a.879.879 0 0 0-1.243 1.242l1.555 1.555A3.67 3.67 0 0 0 55.412 60c.987 0 1.915-.384 2.614-1.083a3.7 3.7 0 0 0 0-5.225M24.964 39.199l1.52-1.52 2.71 2.71a.879.879 0 1 0 1.244-1.243l-2.71-2.71 1.776-1.776 2.71 2.71a.88.88 0 0 0 1.243-1.243l-2.71-2.71 1.776-1.777 2.71 2.71a.88.88 0 0 0 1.243-1.243l-2.71-2.71 1.776-1.776 2.71 2.71a.879.879 0 1 0 1.243-1.243l-2.71-2.71 1.52-1.52a.553.553 0 0 1 .784 0l5.945 5.944-14.125 14.125-5.945-5.945a.553.553 0 0 1 0-.783M36.89 50.335a1.113 1.113 0 0 1-1.572 0l-3.165-3.165 14.125-14.125 3.165 3.165a1.113 1.113 0 0 1 0 1.572zm5.195.233a.476.476 0 0 1-.674 0l-1.134-1.134 8.265-8.265 1.134 1.134a.477.477 0 0 1 0 .674z"/><path d="m17.654 42.346-2.245-4.003a1.63 1.63 0 0 0-1.408-.83h-.01c-.58 0-1.119.31-1.409.812l-.705 1.221a20.75 20.75 0 0 1-6.475-6.892A20.6 20.6 0 0 1 2.656 22.37c0-11.365 9.246-20.611 20.611-20.611 5.12 0 10.028 1.89 13.82 5.32a20.57 20.57 0 0 1 6.573 12.296 3.195 3.195 0 0 0-2.093 2.995c0 1.759 1.431 3.19 3.19 3.19s3.19-1.431 3.19-3.19a3.195 3.195 0 0 0-2.53-3.12 22.32 22.32 0 0 0-7.15-13.474 22.32 22.32 0 0 0-15-5.775C10.933 0 .898 10.035.898 22.369c0 3.924 1.031 7.784 2.982 11.164a22.5 22.5 0 0 0 7.117 7.539l-.759 1.313a1.63 1.63 0 0 0 .005 1.635 1.63 1.63 0 0 0 1.404.805l4.609-.058a1.61 1.61 0 0 0 1.388-.813c.29-.502.293-1.103.01-1.608m28.534-19.977c0 .79-.642 1.432-1.431 1.432a1.433 1.433 0 0 1 0-2.864c.79 0 1.431.642 1.431 1.432M11.877 43.064l2.113-3.66 2.023 3.608z"/></g><defs><clipPath id="a"><path fill="#fff" d="M0 0h60v60H0z"/></clipPath></defs></svg>