<svg xmlns="http://www.w3.org/2000/svg" width="60" height="60" fill="none"><path fill="#000" d="m24.54 48.672-.562 3.359h-3.353a2.347 2.347 0 0 0-2.344 2.344v.937c0 .776.631 1.406 1.407 1.406h20.625c.775 0 1.406-.63 1.406-1.406v-.937a2.346 2.346 0 0 0-2.344-2.344h-3.352l-.555-3.358-.924.153.529 3.204H24.929l.536-3.203zm11.085 4.296h3.75c.775 0 1.406.631 1.406 1.407v.937a.47.47 0 0 1-.468.469H19.687a.47.47 0 0 1-.468-.469v-.937c0-.776.63-1.407 1.406-1.407zm-30-5.624h48.75A2.346 2.346 0 0 0 56.719 45V13.125a2.346 2.346 0 0 0-2.344-2.344H52.5v.938h1.875c.775 0 1.406.63 1.406 1.406V45c0 .775-.63 1.406-1.406 1.406H5.625c-.775 0-1.406-.63-1.406-1.406V13.125c0-.775.63-1.406 1.406-1.406H7.5v-.938H5.625a2.347 2.347 0 0 0-2.344 2.344V45a2.347 2.347 0 0 0 2.344 2.344"/><path fill="#000" d="M54.844 14.063c0-.776-.631-1.407-1.407-1.407H52.5v.938h.938a.47.47 0 0 1 .468.469v26.25a.47.47 0 0 1-.468.468H6.563a.47.47 0 0 1-.47-.468v-26.25c0-.26.21-.47.47-.47H7.5v-.937h-.937c-.776 0-1.407.631-1.407 1.406v26.25c0 .776.631 1.407 1.407 1.407h46.875c.775 0 1.406-.631 1.406-1.407zm-1.406 28.593h-3.75c-.776 0-1.407.631-1.407 1.407 0 .775.631 1.406 1.407 1.406h3.75c.775 0 1.406-.631 1.406-1.407 0-.775-.631-1.406-1.407-1.406m0 1.875h-3.75a.47.47 0 0 1 0-.937h3.75a.47.47 0 0 1 0 .937m-8.906-.468c0 .775.631 1.406 1.407 1.406.775 0 1.406-.631 1.406-1.407 0-.775-.631-1.406-1.407-1.406-.775 0-1.406.631-1.406 1.407m1.875 0a.47.47 0 1 1-.939-.002.47.47 0 0 1 .94.002"/><path fill="#000" d="M49.688 37.969c.775 0 1.406-.631 1.406-1.407V4.689c0-.776-.631-1.407-1.407-1.407H10.313c-.776 0-1.407.631-1.407 1.406v31.876c0 .775.631 1.406 1.406 1.406zm.468-1.407a.47.47 0 0 1-.468.47H21.094V9.843h29.062zM10.313 4.22h39.375a.47.47 0 0 1 .468.468v4.22H9.844v-4.22c0-.258.21-.468.469-.468m-.47 32.344V9.843h10.313v27.188h-9.843a.47.47 0 0 1-.47-.468"/><path fill="#000" d="M47.813 7.969c.775 0 1.406-.631 1.406-1.407 0-.775-.631-1.406-1.407-1.406-.775 0-1.406.631-1.406 1.407 0 .775.631 1.406 1.407 1.406m0-1.875a.47.47 0 1 1-.002.939.47.47 0 0 1 .002-.94m-3.75 1.876c.775 0 1.406-.631 1.406-1.407 0-.775-.631-1.406-1.407-1.406-.775 0-1.406.631-1.406 1.407 0 .775.631 1.406 1.407 1.406m0-1.875a.47.47 0 1 1-.002.939.47.47 0 0 1 .002-.94m-3.75 1.876c.775 0 1.406-.631 1.406-1.407 0-.775-.631-1.406-1.407-1.406-.775 0-1.406.631-1.406 1.407 0 .775.631 1.406 1.407 1.406m0-1.875a.47.47 0 1 1-.002.939.47.47 0 0 1 .002-.94m-28.125 6.563h5.624v.938h-5.625zm0 3.75h5.624v.938h-5.625zm0 3.75h5.624v.938h-5.625zm0 3.75h5.624v.938h-5.625zm0 3.75h5.624v.938h-5.625zm0 3.75h5.624v.938h-5.625zm12.187-18.75H30v.938h-5.625zm9.375 0h13.125v.938H33.75zm-9.375 7.5h7.5v.938h-7.5zm11.25 0h11.25v.938h-11.25zm3.75-3.75h7.5v.938h-7.5zm-15 0h11.25v.938h-11.25zm0 11.25H30v.938h-5.625zm9.375 0h13.125v.938H33.75zm5.625-3.75h7.5v.938h-7.5zm-15 0h11.25v.938h-11.25zm16.875 7.5h5.625v.938H41.25zm-16.875 0H37.5v.938H24.375zM12.188 6.094H26.25v.937H12.188z"/></svg>