<svg xmlns="http://www.w3.org/2000/svg" xmlns:xlink="http://www.w3.org/1999/xlink" width="60" height="60" viewBox="0 0 60 60"><defs><clipPath id="a"><rect width="60" height="60" fill="#fff"/></clipPath></defs><g clip-path="url(#a)"><path d="M48.258,25h3a1,1,0,0,0,1-1V21a1,1,0,0,0-2,0v2h-2a1,1,0,0,0,0,2Z" fill="#282928"/><path d="M24.732,21a4,4,0,1,0-4-4A4,4,0,0,0,24.732,21Zm0-6a2,2,0,1,1-2,2A2,2,0,0,1,24.732,15Z" fill="#282928"/><path d="M2.888,20.668a2.985,2.985,0,0,0,4.19-1.68l7.864-.122L13.571,20a1,1,0,0,0-.231,1.272L15.208,24.5l.041,4.5H10.259a.881.881,0,0,0-.173.035,3,3,0,1,0,0,1.93.881.881,0,0,0,.173.035h6a1,1,0,0,0,1-1.009l-.046-5.068,3.2-1.2q.326.211.661.386l.675,4.054a1,1,0,0,0,.987.835h.523v5h-3a1,1,0,0,0-1,1V49.586l-8.707,8.707A1,1,0,0,0,11.259,60h32a1,1,0,0,0,.707-1.707l-6.707-6.707V46.277L39.5,42.548C43.275,44.827,45.558,46,46.258,46h6a1,1,0,0,0,1-1V39.414l1.706-1.706A1.009,1.009,0,0,0,55.258,37V34H56.72a2,2,0,0,0,1.828-2.812l-3.109-7a7.771,7.771,0,0,0,1.82-5.017,17.362,17.362,0,0,0-9.65-15.614L44.708,2.1a1,1,0,0,0-1.26.314L43.029,3H36.258V1a1,1,0,0,0-1-1h-10a1,1,0,0,0-1,1V5H22.733a1,1,0,0,0-.987.836L21.07,9.889c-.223.117-.444.245-.661.386L16.558,8.832a1,1,0,0,0-1.217.436l-1.008,1.747c-.026,0-.047-.015-.073-.015h-6V7.816a3,3,0,1,0-2,0V12a1,1,0,0,0,1,1h5.985a.99.99,0,0,0,.327,1l3.172,2.612c0,.073,0,.148-.006.222l-9.662.149a3,3,0,1,0-4.186,3.685ZM7.259,31a1,1,0,1,1,1-1A1,1,0,0,1,7.259,31Zm0-27a1,1,0,1,1-1,1A1,1,0,0,1,7.259,4Zm18,25h1.474a1,1,0,0,0,.986-.835l.676-4.054c.222-.116.443-.245.66-.386l3.853,1.443a1,1,0,0,0,1.217-.436L34.548,24h4.711a.917.917,0,0,0,.217-.044l1.783,2.377V28h-4v2h2.307l-2.678,1.071a1,1,0,0,0-.629.929v2h-11ZM36.124,12.732,35.7,12h2.556v4H33.47l2.425-2A1,1,0,0,0,36.124,12.732ZM38.258,18v4H35.7l.422-.732A1,1,0,0,0,35.894,20L33.47,18ZM31.552,42.707l3.707,3.707V47h-6V36h2v6A1,1,0,0,0,31.552,42.707ZM25.213,56h.046v-.052l3.753-4.289A1,1,0,0,0,29.258,51V49h2v9h-7.8Zm-11.54,2,7.293-7.293A1,1,0,0,0,21.258,50V36h6V50.624l-2,2.286V48h-2v7.2L20.8,58Zm27.172,0H33.258V49h2v3a1,1,0,0,0,.293.707ZM36.058,44.388l-2.8-2.8V36h3v4a1,1,0,0,0,.47.848c.373.234.71.44,1.062.657ZM44.575,4.276l2.138,1.07a15.372,15.372,0,0,1,8.545,13.825,5.791,5.791,0,0,1-1.707,4.122,1,1,0,0,0-.207,1.113L56.72,32H54.258a1,1,0,0,0-1,1v3h-.172a5.788,5.788,0,0,1-4.121-1.707,1,1,0,0,0-1.414,1.414,7.751,7.751,0,0,0,4.386,2.2l-.386.386a1,1,0,0,0-.293.707v5l-4.905.006a53.158,53.158,0,0,1-6.675-3.69l0,0h-.006c-.471-.286-.943-.576-1.409-.865V32.677l4.371-1.748A1,1,0,0,0,43.258,30V26a1,1,0,0,0-.2-.6l-2.8-3.733V10.32ZM26.258,2h8V4a1,1,0,0,0,1,1H41.6L38.445,9.419a.99.99,0,0,0-.187.581H34.548l-.423-.732a1,1,0,0,0-1.217-.436l-3.849,1.443c-.217-.141-.438-.27-.66-.386l-.68-4.054A1,1,0,0,0,26.733,5h-.474ZM15.5,13l1.153-2L20.2,12.331a1,1,0,0,0,.949-.135,6,6,0,0,1,1.217-.71,1,1,0,0,0,.592-.755L23.579,7h2.306l.622,3.732a1,1,0,0,0,.592.755,6.057,6.057,0,0,1,1.217.71,1,1,0,0,0,.948.135L32.817,11l1.152,2-2.925,2.407a1,1,0,0,0-.357.891,5.382,5.382,0,0,1,0,1.406,1,1,0,0,0,.357.891L33.968,21l-1.152,2-3.552-1.331a1,1,0,0,0-.948.135,6.057,6.057,0,0,1-1.217.71,1,1,0,0,0-.592.755L25.885,27H23.578l-.62-3.732a1,1,0,0,0-.592-.755,5.985,5.985,0,0,1-1.217-.71,1,1,0,0,0-.949-.135L16.648,23,15.5,21l2.925-2.407c.018-.017.035-.036.051-.055a.776.776,0,0,0,.055-.058.975.975,0,0,0,.18-.276l.006-.011a.99.99,0,0,0,.064-.345.339.339,0,0,0,.008-.043c0-.012-.006-.022-.007-.034s0-.046,0-.069a5.373,5.373,0,0,1,0-1.406,1,1,0,0,0-.358-.891ZM3.369,17.543a.988.988,0,0,1,.584-.5,1,1,0,0,1,.612,1.9,1,1,0,0,1-1.2-1.4Z" fill="#282928"/><path d="M23.258,40h2v2h-2Z" fill="#282928"/><path d="M23.258,44h2v2h-2Z" fill="#282928"/><path d="M29.258,28h2v2h-2Z" fill="#282928"/><path d="M33.258,28h2v2h-2Z" fill="#282928"/><path d="M42.258,10h2v4h-2Z" fill="#282928"/><path d="M42.258,16h2v2h-2Z" fill="#282928"/><path d="M42.258,20h2v2h-2Z" fill="#282928"/></g></svg>