<svg xmlns="http://www.w3.org/2000/svg" width="34.094" height="58" viewBox="0 0 34.094 58"><g transform="translate(-1 -1)"><path d="M30.893,42.3a4.46,4.46,0,0,1-4.447,4.447h-20A4.46,4.46,0,0,1,2,42.3V17.7a4.46,4.46,0,0,1,4.447-4.45h20a4.46,4.46,0,0,1,4.446,4.45Z" fill="none" stroke="#000" stroke-linecap="round" stroke-linejoin="round" stroke-miterlimit="10" stroke-width="2"/><path d="M34.094,20.529v5.565" fill="none" stroke="#000" stroke-linecap="round" stroke-linejoin="round" stroke-miterlimit="10" stroke-width="2"/><path d="M25.552,9.971V3.779A1.784,1.784,0,0,0,23.773,2H9.121A1.784,1.784,0,0,0,7.342,3.779V9.971" fill="none" stroke="#000" stroke-linecap="round" stroke-linejoin="round" stroke-miterlimit="10" stroke-width="2"/><path d="M25.552,50.029v6.192A1.784,1.784,0,0,1,23.773,58H9.12a1.784,1.784,0,0,1-1.779-1.779V50.029" fill="none" stroke="#000" stroke-linecap="round" stroke-linejoin="round" stroke-miterlimit="10" stroke-width="2"/><path d="M11.616,33.47,8.146,30l3.47-3.469" fill="none" stroke="#000" stroke-linecap="round" stroke-linejoin="round" stroke-miterlimit="10" stroke-width="2"/><path d="M21.277,33.47,24.745,30l-3.468-3.469" fill="none" stroke="#000" stroke-linecap="round" stroke-linejoin="round" stroke-miterlimit="10" stroke-width="2"/><path d="M17.385,26.565,14.969,33.44" fill="none" stroke="#000" stroke-linecap="round" stroke-linejoin="round" stroke-miterlimit="10" stroke-width="2"/></g></svg>