<svg xmlns="http://www.w3.org/2000/svg" xmlns:xlink="http://www.w3.org/1999/xlink" width="60" height="60" viewBox="0 0 60 60"><defs><clipPath id="a"><rect width="60" height="60"/></clipPath></defs><g clip-path="url(#a)"><path d="M47.7,0H12.3A12.319,12.319,0,0,0,0,12.3V47.7A12.319,12.319,0,0,0,12.3,60H47.7A12.319,12.319,0,0,0,60,47.7V12.3A12.319,12.319,0,0,0,47.7,0Zm9.789,47.7c0,4.846-4.943,9.789-9.789,9.789H12.3c-4.846,0-9.789-4.943-9.789-9.789V12.3c0-4.846,4.943-9.789,9.789-9.789H47.7c4.846,0,9.789,4.943,9.789,9.789Z"/><path d="M21.9,21.113a3.758,3.758,0,0,0-2.757,1.528,3.26,3.26,0,0,0-.765,2.509A2.965,2.965,0,0,0,21,23.92a3.749,3.749,0,0,0,.9-2.807Z"/><path d="M23.2,30.419a3.813,3.813,0,0,1,1.9-3.327,3.919,3.919,0,0,0-3.439-1.756c-1.434,0-2.535.816-3.129.816-.691,0-1.723-.767-3.053-.767-2.046,0-4.226,1.832-4.226,5.323,0,3.549,2.576,7.964,4.616,7.964.712,0,1.8-.717,2.906-.717,1.081,0,1.878.691,2.9.691,2.234,0,3.887-4.654,3.887-4.654A3.91,3.91,0,0,1,23.2,30.419Z"/><path d="M35.625,35.32a5.229,5.229,0,0,1-1.711.445,1.061,1.061,0,0,1-1.172-1.2v-6H35.32V26.156H32.742V22.172H29.6v3.984H27.984V28.57H29.6v7.055c0,1.875,1.1,3.023,3.188,3.023a6.5,6.5,0,0,0,1.922-.281,14.015,14.015,0,0,0,1.547-.562Z"/><path d="M46.172,26.156l-3.141,9.727-3.117-9.727H36.68L41.2,38.438h3.4l4.523-12.281Z"/></g></svg>