<svg xmlns="http://www.w3.org/2000/svg" width="50.146" height="60" viewBox="0 0 50.146 60"><g transform="translate(-4.927)"><path d="M53.279,16.767H51.717a6.4,6.4,0,0,0-4.695-5.85C42.038-1.629,27.158-1.846,19.769,2.727a16.524,16.524,0,0,0-6.7,8.191,6.4,6.4,0,0,0-4.695,5.85H6.721a1.8,1.8,0,0,0-1.795,1.794v6.156a1.8,1.8,0,0,0,1.795,1.794H8.377a6.4,6.4,0,0,0,4.712,5.845,24.743,24.743,0,0,0,6.5,10.693,16.817,16.817,0,0,1-.968,5.712,16.436,16.436,0,0,1-8.96,9.613A.854.854,0,0,0,10.02,60H50.073a.854.854,0,0,0,.362-1.627,16.436,16.436,0,0,1-8.96-9.613,16.815,16.815,0,0,1-.968-5.712A24.741,24.741,0,0,0,47,32.356a6.4,6.4,0,0,0,4.712-5.845h1.562a1.8,1.8,0,0,0,1.794-1.794V18.561A1.8,1.8,0,0,0,53.279,16.767ZM8.369,24.8c-1.549-.035-1.734.077-1.734-.087.039-6.342-.083-6.242.087-6.242H8.369ZM30.047,1.729c7.082,0,12.366,3.169,15.024,8.961H15.023C17.681,4.9,22.965,1.729,30.047,1.729ZM46.833,58.293H13.26a18.128,18.128,0,0,0,7.993-13.84,15.068,15.068,0,0,0,17.585-.018A18.128,18.128,0,0,0,46.833,58.293ZM23.01,43.535c-3.469-2.138-6.281-5.909-8.048-10.958H25.084a2.753,2.753,0,0,0,2.75-2.749A1.128,1.128,0,0,1,28.961,28.7h2.171a1.128,1.128,0,0,1,1.127,1.127,2.753,2.753,0,0,0,2.75,2.749H45.132C40.823,44.885,30.917,48.176,23.01,43.535ZM50,26.192a4.669,4.669,0,0,1-4.665,4.663H35.01a1.028,1.028,0,0,1-1.028-1.027,2.853,2.853,0,0,0-2.85-2.849H28.961a2.853,2.853,0,0,0-2.85,2.849,1.028,1.028,0,0,1-1.028,1.027H14.756a4.67,4.67,0,0,1-4.665-4.663V17.075a4.67,4.67,0,0,1,4.665-4.663H45.338A4.67,4.67,0,0,1,50,17.075ZM53.279,24.8H51.725V18.475c1.447.034,1.641-.077,1.641.087C53.326,24.9,53.449,24.8,53.279,24.8ZM12.431,21.9a.854.854,0,0,0-.854.854V24.1a.854.854,0,0,0,1.708,0V22.754A.853.853,0,0,0,12.431,21.9Zm2.833-8.059a3.565,3.565,0,0,0-3.687,3.685v2.5a.854.854,0,0,0,1.708,0v-2.5a1.859,1.859,0,0,1,1.979-1.978.854.854,0,1,0,0-1.707Z" fill="#282928"/><path d="M19.272,17.4h1.736a.335.335,0,0,1,.36.264l1.784,5.1a.282.282,0,0,1,.008.08.156.156,0,0,1-.056.1.163.163,0,0,1-.12.048H21.5a.3.3,0,0,1-.312-.2L21,22.272H19.28l-.192.528a.3.3,0,0,1-.312.2H17.3a.191.191,0,0,1-.128-.048.166.166,0,0,1-.048-.1.282.282,0,0,1,.008-.08l1.784-5.1A.335.335,0,0,1,19.272,17.4Zm.416,3.312h.9l-.456-1.488Zm9.345,2.024a.229.229,0,0,1,.024.1.179.179,0,0,1-.176.16h-1.64a.346.346,0,0,1-.344-.216l-.688-1.528h-.328v1.528a.219.219,0,0,1-.216.216H24.1a.219.219,0,0,1-.216-.216V17.616A.219.219,0,0,1,24.1,17.4h2.368a2.8,2.8,0,0,1,1.8.52,1.774,1.774,0,0,1,.648,1.48,1.71,1.71,0,0,1-.864,1.512Zm-3.152-3.848v.848h.584a.339.339,0,0,0,.272-.112.459.459,0,0,0,.1-.3.492.492,0,0,0-.1-.3.3.3,0,0,0-.272-.136Zm6.785-2.176h1.072a.152.152,0,0,1,.12.056.137.137,0,0,1,.056.1.234.234,0,0,1-.016.088l-2.7,6.472a.351.351,0,0,1-.352.24H29.795a.176.176,0,0,1-.128-.056.145.145,0,0,1-.048-.1.236.236,0,0,1,.016-.088l2.68-6.472A.36.36,0,0,1,32.667,16.712Zm5.59.688h1.488a.152.152,0,0,1,.12.056.132.132,0,0,1,.056.1.338.338,0,0,1-.008.08l-1.5,5.1a.335.335,0,0,1-.36.264H36.224a.335.335,0,0,1-.36-.264l-1.5-5.1a.338.338,0,0,1-.008-.08.138.138,0,0,1,.048-.1.176.176,0,0,1,.128-.056h1.488a.335.335,0,0,1,.36.264l.76,2.976.76-2.976A.335.335,0,0,1,38.256,17.4Zm7.533,5.336a.229.229,0,0,1,.024.1.179.179,0,0,1-.176.16H44a.346.346,0,0,1-.344-.216l-.688-1.528h-.328v1.528a.219.219,0,0,1-.216.216H40.853a.219.219,0,0,1-.216-.216V17.616a.219.219,0,0,1,.216-.216h2.368a2.8,2.8,0,0,1,1.8.52,1.774,1.774,0,0,1,.648,1.48,1.71,1.71,0,0,1-.864,1.512Zm-3.152-3.848v.848h.584a.339.339,0,0,0,.272-.112.459.459,0,0,0,.1-.3.492.492,0,0,0-.1-.3.3.3,0,0,0-.272-.136Z" fill="#282928"/></g></svg>