<svg xmlns="http://www.w3.org/2000/svg" width="32" height="56.471"><g fill="#282928"><path d="M20.706 3.765h1.882v1.883h-1.882ZM5.647 29.175h3.765v1.882H5.647Z"/><path d="M26.353 0H5.647A5.653 5.653 0 0 0 0 5.647v45.176a5.653 5.653 0 0 0 5.647 5.647h20.706A5.653 5.653 0 0 0 32 50.823V5.647A5.653 5.653 0 0 0 26.353 0m0 54.588H5.647a3.765 3.765 0 0 1-3.765-3.765V9.411h26.353V7.534H1.882V5.647a3.765 3.765 0 0 1 3.765-3.765h20.706a3.765 3.765 0 0 1 3.765 3.765v39.529H3.765v1.882h26.353v3.765a3.765 3.765 0 0 1-3.765 3.765"/><path d="M16 48a2.824 2.824 0 1 0 2 .827A2.82 2.82 0 0 0 16 48m0 3.765a.941.941 0 1 1 .666-.276.94.94 0 0 1-.666.275ZM13.176 3.765h5.647v1.883h-5.647ZM11.96 22.863l-3.1-3.1 3.1-3.1-1.331-1.329-4.429 4.43 4.43 4.43ZM21.372 24.194l4.43-4.43-4.43-4.43-1.331 1.33 3.1 3.1-3.1 3.1ZM12.423 23.726l5.1-8.826 1.63.941-5.1 8.825ZM11.294 29.175h15.059v1.882H11.294ZM5.647 32.941h20.706v1.882H5.647ZM5.647 36.705h20.706v1.882H5.647Z"/></g></svg>