<svg xmlns="http://www.w3.org/2000/svg" width="60" height="60"><defs><clipPath id="a"><path d="M0 0h60v60H0z"/></clipPath></defs><g clip-path="url(#a)"><path d="M33 6h-6a1 1 0 0 1 0-2h6a1 1 0 0 1 0 2M41 60H19a5.006 5.006 0 0 1-5-5V21a1 1 0 0 1 2 0v34a3 3 0 0 0 3 3h22a3 3 0 0 0 3-3V21a1 1 0 0 1 2 0v34a5.006 5.006 0 0 1-5 5"/><path d="M45 28a1 1 0 0 1-1-1V5a3 3 0 0 0-3-3H19a3 3 0 0 0-3 3v22a1 1 0 0 1-2 0V5a5.006 5.006 0 0 1 5-5h22a5.006 5.006 0 0 1 5 5v22a1 1 0 0 1-1 1M51 10.1a.92.92 0 0 1-1-.9V9a1 1 0 0 1 2 0 1.09 1.09 0 0 1-1 1.1M51 14.1a.92.92 0 0 1-1-.9V13a1 1 0 0 1 2 0 1.09 1.09 0 0 1-1 1.1M51 18.1a.92.92 0 0 1-1-.9V17a1 1 0 0 1 2 0 1.09 1.09 0 0 1-1 1.1M9 43.9a.92.92 0 0 1-1-.9v-.2a1 1 0 0 1 2 0 1.09 1.09 0 0 1-1 1.1M9 47.9a.92.92 0 0 1-1-.9v-.2a1 1 0 0 1 2 0 1.09 1.09 0 0 1-1 1.1M9 51.9a.92.92 0 0 1-1-.9v-.2a1 1 0 0 1 2 0 1.09 1.09 0 0 1-1 1.1"/><path d="M47.682 52a1 1 0 0 1-.212-.022 1 1 0 0 1-.77-1.188l.66-3.06a1 1 0 0 1 .742-.76 9.6 9.6 0 0 0 2.734-1.142 1 1 0 0 1 1.058.01l1.98 1.266 1.226-1.236-1.262-1.968a1 1 0 0 1-.014-1.062 9.5 9.5 0 0 0 1.14-2.734 1 1 0 0 1 .756-.744l2.28-.5v-1.716l-2.278-.506a1 1 0 0 1-.756-.744 9.6 9.6 0 0 0-1.14-2.734 1 1 0 0 1 .012-1.06l1.268-1.982-1.224-1.224-1.982 1.268a1 1 0 0 1-1.058.01 9.6 9.6 0 0 0-2.734-1.142 1 1 0 0 1-.742-.76L46.874 26H46a1 1 0 0 1 0-2h1.68a1 1 0 0 1 .976.79l.534 2.466a11.6 11.6 0 0 1 2.142.9l2.148-1.374a1 1 0 0 1 1.246.136l2.362 2.36a1 1 0 0 1 .134 1.246l-1.374 2.148a11.6 11.6 0 0 1 .9 2.146l2.47.548a1 1 0 0 1 .782.974v3.32a1 1 0 0 1-.784.976l-2.47.548a11.5 11.5 0 0 1-.9 2.144l1.372 2.128a1 1 0 0 1-.13 1.246l-2.362 2.38a1 1 0 0 1-1.248.138l-2.148-1.374a11.6 11.6 0 0 1-2.142.9l-.534 2.466a1 1 0 0 1-.972.788"/><path d="M48.782 43.156a1 1 0 0 1-.556-1.83A4 4 0 0 0 46 34a4 4 0 0 0-.8.08 1 1 0 0 1-.4-1.96A6 6 0 0 1 46 32a6 6 0 0 1 3.338 10.986 1 1 0 0 1-.556.17M14 28a6 6 0 0 1-3.324-11 1 1 0 1 1 1.108 1.664A4 4 0 0 0 14 26a4 4 0 0 0 .784-.078 1 1 0 1 1 .394 1.96A6 6 0 0 1 14 28"/><path d="M14 36h-1.68a1 1 0 0 1-.976-.79l-.534-2.466a11.6 11.6 0 0 1-2.142-.9L6.52 33.222a1 1 0 0 1-1.246-.136l-2.362-2.36a1 1 0 0 1-.134-1.246l1.374-2.148a11.6 11.6 0 0 1-.9-2.146l-2.47-.548A1 1 0 0 1 0 23.66v-3.32a1 1 0 0 1 .784-.976l2.47-.548a11.5 11.5 0 0 1 .9-2.144l-1.37-2.13A1 1 0 0 1 2.91 13.3l2.362-2.38a1 1 0 0 1 1.248-.138l2.148 1.374a11.6 11.6 0 0 1 2.142-.9l.534-2.466a1 1 0 1 1 1.954.422l-.66 3.06a1 1 0 0 1-.742.76 9.6 9.6 0 0 0-2.736 1.142 1 1 0 0 1-1.058-.01L6.122 12.9l-1.228 1.234L6.16 16.1a.99.99 0 0 1 .014 1.062 9.5 9.5 0 0 0-1.14 2.738 1 1 0 0 1-.756.744L2 21.142v1.714l2.278.506a1 1 0 0 1 .756.744 9.6 9.6 0 0 0 1.14 2.734 1 1 0 0 1-.012 1.06l-1.268 1.98 1.224 1.22L8.1 29.836a1 1 0 0 1 1.058-.01 9.6 9.6 0 0 0 2.734 1.142 1 1 0 0 1 .742.76L13.126 34H14a1 1 0 0 1 0 2M29 35a1 1 0 0 1-.242-.03 1 1 0 0 1-.728-1.212l2-8a1 1 0 1 1 1.94.484l-2 8A1 1 0 0 1 29 35M35 35a1 1 0 0 1-.708-1.706L37.586 30l-3.292-3.292a1 1 0 1 1 1.414-1.414l4 4a1 1 0 0 1 0 1.414l-4 4A1 1 0 0 1 35 35M25 35a1 1 0 0 1-.708-.292l-4-4a1 1 0 0 1 0-1.414l4-4a1 1 0 1 1 1.414 1.414L22.414 30l3.292 3.292a1 1 0 0 1 0 1.414A1 1 0 0 1 25 35"/></g></svg>