<svg xmlns="http://www.w3.org/2000/svg" width="33.747" height="59.994"><g fill="#282928" fill-rule="evenodd"><path d="M26.481 59.998H7.265A7.274 7.274 0 0 1 0 52.733V7.265A7.273 7.273 0 0 1 7.265-.002h19.216a7.274 7.274 0 0 1 7.266 7.265V52.73a7.274 7.274 0 0 1-7.266 7.268M7.265 1.406a5.865 5.865 0 0 0-5.859 5.859v45.464a5.865 5.865 0 0 0 5.859 5.858h19.216a5.865 5.865 0 0 0 5.859-5.858V7.265a5.865 5.865 0 0 0-5.859-5.859z"/><path d="M33.043 12.539H.702a.703.703 0 0 1 0-1.406h32.341a.703.703 0 0 1 0 1.406M33.043 48.863H.702a.703.703 0 0 1 0-1.406h32.341a.703.703 0 0 1 0 1.406M19.838 56.259h-5.932c-3.335 0-3.335-5.068 0-5.068h5.932c3.335 0 3.335 5.068 0 5.068m-5.932-3.661a1.128 1.128 0 0 0 0 2.256h5.932a1.128 1.128 0 0 0 0-2.256ZM20.754 6.973h-7.763a.703.703 0 0 1 0-1.406h7.763a.703.703 0 0 1 0 1.406M10.731 39.782H7.173a.7.7 0 0 1-.7-.7V28.098a.7.7 0 0 1 .7-.7h3.56a.7.7 0 0 1 .7.7v10.981a.7.7 0 0 1-.702.703m-2.858-1.407h2.154v-9.577H7.873ZM18.652 39.783h-3.56a.7.7 0 0 1-.7-.7V25.238a.7.7 0 0 1 .7-.7h3.56a.7.7 0 0 1 .7.7V39.08a.7.7 0 0 1-.7.703m-2.857-1.407h2.154V25.941h-2.154ZM26.573 39.781h-3.558a.7.7 0 0 1-.7-.7V20.916a.7.7 0 0 1 .7-.7h3.558a.7.7 0 0 1 .7.7v18.162a.7.7 0 0 1-.7.703m-2.858-1.407h2.158V21.619h-2.155ZM29.579 43.406H4.166a.703.703 0 0 1 0-1.406h25.413a.703.703 0 0 1 0 1.406"/><path d="M29.579 43.408a.7.7 0 0 1-.7-.7V17.292a.703.703 0 0 1 1.406 0v25.412a.7.7 0 0 1-.706.704M7.701 25.344a.7.7 0 0 1-.353-1.312l11.383-6.572a.702.702 0 0 1 .7 1.217L8.052 25.25a.7.7 0 0 1-.351.095Z"/><path d="M17.932 21.718a.706.706 0 0 1-.654-.959l.831-2.127c-1.438-.219-3-.159-2.847-1.145a.705.705 0 0 1 .8-.589l3.126.476a.706.706 0 0 1 .549.951l-1.151 2.945a.7.7 0 0 1-.655.447Z"/></g></svg>