<svg xmlns="http://www.w3.org/2000/svg" width="34.346" height="60"><g fill="#282928"><path d="M28.824 0h-23.3A5.53 5.53 0 0 0 .002 5.522v48.956A5.53 5.53 0 0 0 5.522 60h23.3a5.53 5.53 0 0 0 5.522-5.522V5.522A5.53 5.53 0 0 0 28.824 0M1.936 13.677H32.41v32.646H1.936ZM5.522 1.935h23.3a3.59 3.59 0 0 1 3.586 3.586v6.22H1.936V5.522a3.59 3.59 0 0 1 3.586-3.587m23.3 56.129h-23.3a3.59 3.59 0 0 1-3.586-3.586v-6.22H32.41v6.22a3.59 3.59 0 0 1-3.586 3.586Z"/><path d="M14.463 7.807h5.419a.968.968 0 0 0 0-1.935h-5.419a.968.968 0 0 0 0 1.935M17.173 50.258a2.9 2.9 0 1 0 2.9 2.9 2.907 2.907 0 0 0-2.9-2.9m0 3.871a.968.968 0 1 1 .968-.968.97.97 0 0 1-.968.968"/></g></svg>