<svg xmlns="http://www.w3.org/2000/svg" width="60" height="60"><defs><clipPath id="a"><path fill="#fff" d="M0 0h60v60H0z"/></clipPath></defs><g fill="#282928" clip-path="url(#a)"><path d="M59.063 44.063H54.22a2.8 2.8 0 0 0 .155-.909V13.1a2.81 2.81 0 0 0-2.784-2.784H8.409A2.81 2.81 0 0 0 5.625 13.1v30.053a2.8 2.8 0 0 0 .155.909H.938A.94.94 0 0 0 0 45v.234c0 2.109 1.7 4.453 3.984 4.453h52.032C58.3 49.688 60 47.344 60 45.234V45a.94.94 0 0 0-.937-.937M7.5 43.153V13.1a.91.91 0 0 1 .909-.909h43.182a.91.91 0 0 1 .909.909v30.053a.91.91 0 0 1-.909.909H8.409a.91.91 0 0 1-.909-.909m48.516 4.659H3.984c-.914 0-1.72-.937-2-1.875h56.033a2.42 2.42 0 0 1-2.001 1.876Z"/><path d="M39.375 32.882a4.3 4.3 0 0 1-2.47-3.576 3.86 3.86 0 0 1 1.875-3.211.94.94 0 0 0 .342-1.341 7.1 7.1 0 0 0-1.153-1.317 7.16 7.16 0 0 0-4.078-1.214 8.6 8.6 0 0 0-2.761.717 9 9 0 0 1-.9.319c-.136-.033-.431-.136-.68-.22a7.8 7.8 0 0 0-4.584-.539c-4.134 1.256-4.8 5.269-4.884 6.938-.141 2.639 1.927 6.989 2.578 7.969l.136.206c.727 1.083 1.716 2.559 3.623 2.709h.347a6.3 6.3 0 0 0 2.3-.52 4.3 4.3 0 0 1 1.406-.356 4.5 4.5 0 0 1 1.5.361 6.6 6.6 0 0 0 2.288.506c1.589 0 2.681-1.364 3.4-2.264a4 4 0 0 1 .408-.469 13.4 13.4 0 0 0 1.8-3.473.94.94 0 0 0-.492-1.223Zm-2.63 3.342a8 8 0 0 0-.548.642c-.5.633-1.256 1.57-1.945 1.57a4.8 4.8 0 0 1-1.664-.389 6.1 6.1 0 0 0-2.128-.469 6 6 0 0 0-2.067.469 4.2 4.2 0 0 1-1.833.384c-.937-.07-1.481-.792-2.208-1.875l-.145-.216c-.624-.937-2.344-4.847-2.255-6.792.08-1.284.548-4.341 3.553-5.245a2.6 2.6 0 0 1 .769-.108 8.5 8.5 0 0 1 2.649.609 4.2 4.2 0 0 0 1.294.333 5 5 0 0 0 1.58-.469 7.6 7.6 0 0 1 2.091-.6 5.27 5.27 0 0 1 2.859.769q.134.114.253.234a5.53 5.53 0 0 0-1.975 4.229 5.79 5.79 0 0 0 2.813 4.837 10.2 10.2 0 0 1-1.1 2.091ZM30.042 21.867h.258a4.55 4.55 0 0 0 3.628-1.941 5.37 5.37 0 0 0 1.167-3.637.936.936 0 0 0-1.045-.82 6.48 6.48 0 0 0-3.431 1.669 5.7 5.7 0 0 0-1.406 3.825.94.94 0 0 0 .834.9Zm1.875-3.4a3.8 3.8 0 0 1 1.073-.736 4.5 4.5 0 0 1-.59 1.079 3.05 3.05 0 0 1-1.191.98 2.9 2.9 0 0 1 .731-1.322Z"/></g></svg>