<svg xmlns="http://www.w3.org/2000/svg" width="60" height="60"><defs><clipPath id="a"><path fill="#fff" d="M0 0h60v60H0z"/></clipPath></defs><g fill="#282928" clip-path="url(#a)" transform="translate(-.001)"><path d="M20.541 28.092a3.64 3.64 0 1 0 3.64 3.64 3.644 3.644 0 0 0-3.64-3.64m0 5.519a1.879 1.879 0 1 1 1.879-1.879 1.88 1.88 0 0 1-1.879 1.879M35.819 31.732a3.64 3.64 0 1 0 3.64-3.64 3.644 3.644 0 0 0-3.64 3.64m3.64-1.879a1.879 1.879 0 1 1-1.879 1.879 1.88 1.88 0 0 1 1.879-1.879"/><path d="m59.9 44.118-3.97-23.641c0-.015-.006-.03-.009-.045a10.97 10.97 0 0 0-6.7-8.566v-1.634a2.645 2.645 0 0 0-2.638-2.642h-3.321a2.645 2.645 0 0 0-2.642 2.642V12a10.9 10.9 0 0 0-3.194 2.19H22.574A10.9 10.9 0 0 0 19.38 12v-1.768a2.645 2.645 0 0 0-2.641-2.642h-3.321a2.645 2.645 0 0 0-2.642 2.642v1.635a10.97 10.97 0 0 0-6.7 8.565c0 .015-.006.03-.009.046L2.045 32.02a.881.881 0 1 0 1.737.292L5.8 20.841a1 1 0 0 0 .019-.1 9.2 9.2 0 0 1 9.092-7.934 9.08 9.08 0 0 1 6.418 2.625v1.2a3.23 3.23 0 0 0 3.229 3.229h3.687a.88.88 0 1 0 0-1.761h-3.692a1.47 1.47 0 0 1-1.468-1.468v-.682h13.831v.685a1.47 1.47 0 0 1-1.468 1.465h-3.687a.88.88 0 0 0 0 1.761h3.687a3.23 3.23 0 0 0 3.229-3.229v-1.2a9.08 9.08 0 0 1 6.418-2.625 9.2 9.2 0 0 1 9.092 7.934 1 1 0 0 0 .019.1l3.958 23.569A5.355 5.355 0 0 1 47.8 47l-.811-2.414a.881.881 0 1 0-1.67.561l.811 2.414a7.117 7.117 0 0 0 13.77-3.443M12.537 11.311v-1.079a.88.88 0 0 1 .88-.881h3.321a.88.88 0 0 1 .881.881v1.153a11 11 0 0 0-2.713-.337 11 11 0 0 0-2.369.263m29.845.074v-1.153a.88.88 0 0 1 .881-.881h3.321a.88.88 0 0 1 .88.881v1.079a11 11 0 0 0-2.369-.263 11 11 0 0 0-2.713.337"/><path d="m47.13 45.043-2.823-8.457a.88.88 0 0 0-1.354-.431 5.56 5.56 0 0 1-7.281-.643.88.88 0 0 0-.635-.27H24.963a.88.88 0 0 0-.635.27 5.56 5.56 0 0 1-7.281.643.88.88 0 0 0-1.353.431L12.2 47a5.355 5.355 0 0 1-10.362-2.591l2.107-12.551a.881.881 0 1 0-1.737-.292L.1 44.118a7.117 7.117 0 0 0 13.765 3.444l3.146-9.368A7.33 7.33 0 0 0 25.325 37h9.352a7.325 7.325 0 0 0 8.313 1.19l2.47 7.41a.88.88 0 1 0 1.669-.561ZM14.977 16.52a2.75 2.75 0 0 0-2.749 2.749v.2h-.2a2.749 2.749 0 1 0 0 5.5h.2v.2a2.749 2.749 0 1 0 5.5 0v-.2h.2a2.749 2.749 0 0 0 0-5.5h-.2v-.2a2.75 2.75 0 0 0-2.751-2.749m2.948 4.709a.988.988 0 0 1 0 1.975h-1.08a.88.88 0 0 0-.881.881v1.08a.988.988 0 0 1-1.975 0v-1.08a.88.88 0 0 0-.881-.881h-1.08a.988.988 0 0 1 0-1.975h1.08a.88.88 0 0 0 .881-.881v-1.08a.988.988 0 0 1 1.975 0v1.08a.88.88 0 0 0 .881.881ZM45.627 15.318A2.572 2.572 0 1 0 48.2 17.89a2.574 2.574 0 0 0-2.573-2.572m0 3.382a.81.81 0 1 1 .81-.81.81.81 0 0 1-.81.81M45.627 23.973a2.571 2.571 0 1 0 2.573 2.571 2.574 2.574 0 0 0-2.573-2.571m0 3.382a.81.81 0 1 1 .81-.81.81.81 0 0 1-.81.81M52.526 22.218a2.572 2.572 0 1 0-2.572 2.572 2.574 2.574 0 0 0 2.572-2.572m-3.382 0a.81.81 0 1 1 .81.81.81.81 0 0 1-.809-.81ZM38.727 22.218a2.571 2.571 0 1 0 2.573-2.572 2.574 2.574 0 0 0-2.573 2.572m3.382 0a.81.81 0 1 1-.81-.81.81.81 0 0 1 .81.81M27.4 25.626a.881.881 0 0 0 0-1.761h-2.636a.881.881 0 0 0 0 1.761ZM35.236 23.865H32.6a.881.881 0 1 0 0 1.761h2.636a.881.881 0 1 0 0-1.761"/></g></svg>