<svg xmlns="http://www.w3.org/2000/svg" width="56.929" height="56.002"><g fill="#282928" fill-rule="evenodd"><path d="M19.502 34.362h12.063a.9.9 0 1 0 0-1.8H19.502a.9.9 0 0 0 0 1.8"/><path d="M27.09 33.463V55.1a.9.9 0 1 0 1.8 0V33.463a.9.9 0 1 0-1.8 0M7.841 0a6.34 6.34 0 1 0 6.34 6.34A6.343 6.343 0 0 0 7.841 0m0 1.8a4.542 4.542 0 1 1-4.542 4.54A4.544 4.544 0 0 1 7.841 1.8M49.089 0a6.34 6.34 0 1 0 6.34 6.34A6.343 6.343 0 0 0 49.089 0m0 1.8a4.542 4.542 0 1 1-4.542 4.54 4.544 4.544 0 0 1 4.542-4.54M12.795 25.577a.9.9 0 0 0 .8.5l.334-.065 8.282-3.312a2.485 2.485 0 1 1 1.845 4.615l-10.931 4.373a2.485 2.485 0 0 1-2.9-.8.9.9 0 0 0-1.613.545v4.517a.9.9 0 0 0 .8.893l7.276.84a3.41 3.41 0 0 1 3.017 3.386V55.1a.9.9 0 1 0 1.8 0V41.069a5.206 5.206 0 0 0-4.613-5.169l-6.479-.748v-1.88a4.28 4.28 0 0 0 3.379.086l10.932-4.369a4.284 4.284 0 0 0-3.18-7.955l-7.572 3.027-4.35-7.12a4.28 4.28 0 0 0-2.768-1.957l-.107-.022a4.28 4.28 0 0 0-5.155 3.865C1.065 25.781.003 39.72.003 39.72v.068a5.206 5.206 0 0 0 4.6 5.17l6.487.838V55.1a.9.9 0 1 0 1.8 0V45a.9.9 0 0 0-.784-.892l-7.287-.94a3.41 3.41 0 0 1-3.017-3.349s1.582-20.857 1.582-20.857a2.485 2.485 0 0 1 2.991-2.241l.106.022a2.49 2.49 0 0 1 1.606 1.136l4.654 7.621z"/><path d="m5.658 26.885 2.888 4.729a4.28 4.28 0 0 0 5.245 1.744.9.9 0 0 0-.667-1.669 2.486 2.486 0 0 1-3.044-1.012l-2.887-4.729a.9.9 0 1 0-1.534.937ZM42.127 25.423l-8.7 1.231a4.283 4.283 0 1 0 1.2 8.482l10.7-1.514a4.3 4.3 0 0 0 1.19-.349v1.877l-6.479.748a5.206 5.206 0 0 0-4.609 5.171V55.1a.9.9 0 0 0 1.8 0V41.068a3.41 3.41 0 0 1 3.017-3.386l7.273-.84a.9.9 0 0 0 .8-.893v-4.514a.9.9 0 0 0-1.613-.545 2.49 2.49 0 0 1-1.626.952l-10.7 1.514a2.486 2.486 0 0 1-.7-4.922l9.121-1.29-.123.008.767-.43 4.863-7.961a3.18 3.18 0 0 1 2.951-1.512h.05a3.18 3.18 0 0 1 2.936 3.024l.892 19.531a3.41 3.41 0 0 1-3.017 3.367L44.979 44a.9.9 0 0 0-.8.88l-.14 10.211a.9.9 0 1 0 1.8.024l.129-9.421 6.35-.733a5.206 5.206 0 0 0 4.609-5.172v-.041c0-.013-.6-13.042-.893-19.552a4.975 4.975 0 0 0-4.6-4.734h-.05a4.98 4.98 0 0 0-4.62 2.368ZM36.956 2.7a2.7 2.7 0 0 0-2.7-2.7H21.718a2.7 2.7 0 0 0-2.7 2.7v11.421A1.5 1.5 0 0 0 21.5 15.25l2.765-2.407a.9.9 0 0 1 .591-.221h9.4a2.7 2.7 0 0 0 2.7-2.7zM20.819 13.462V2.7a.9.9 0 0 1 .9-.9h12.54a.9.9 0 0 1 .9.9v7.229a.9.9 0 0 1-.9.9h-9.4a2.7 2.7 0 0 0-1.772.663Z"/><path d="M23.984 5.569h8.145a.9.9 0 0 0 0-1.8h-8.145a.9.9 0 0 0 0 1.8M23.984 8.847h4a.9.9 0 0 0 0-1.8h-4a.9.9 0 0 0 0 1.8M42.627 34l2.7-.382a4.29 4.29 0 0 0 3.056-2.007l2.888-4.729a.9.9 0 0 0-1.534-.937l-2.888 4.729a2.49 2.49 0 0 1-1.773 1.165l-2.7.382A.9.9 0 1 0 42.627 34"/></g></svg>