<svg xmlns="http://www.w3.org/2000/svg" width="58.666" height="53.014"><g fill="#282928"><path d="M55.368 41.124H3.298a3.3 3.3 0 0 1-3.3-3.3V3.299a3.3 3.3 0 0 1 3.3-3.3h52.07a3.3 3.3 0 0 1 3.3 3.3v34.526a3.3 3.3 0 0 1-3.3 3.299M3.298 1.333a1.967 1.967 0 0 0-1.965 1.966v34.526a1.967 1.967 0 0 0 1.965 1.965h52.07a1.967 1.967 0 0 0 1.965-1.965V3.299a1.967 1.967 0 0 0-1.965-1.965Z"/><path d="M58 33.339H.666a.667.667 0 1 1 0-1.333H58a.667.667 0 1 1 0 1.333M25.108 47.06a.667.667 0 0 1-.667-.667v-5.937a.667.667 0 1 1 1.333 0v5.937a.667.667 0 0 1-.666.667M33.558 47.06a.667.667 0 0 1-.667-.667v-5.937a.667.667 0 1 1 1.333 0v5.937a.667.667 0 0 1-.666.667"/><path d="M44.177 53.014H14.489a.667.667 0 0 1-.667-.667 6.626 6.626 0 0 1 6.619-6.619h17.783a6.626 6.626 0 0 1 6.619 6.619.665.665 0 0 1-.666.667m-28.979-1.333h28.271a5.29 5.29 0 0 0-5.244-4.619H20.441a5.29 5.29 0 0 0-5.243 4.619M42.355 28.862h-1.829a.667.667 0 0 1-.667-.667v-1.032a6.4 6.4 0 0 1-1.677-.695l-.731.729a.667.667 0 0 1-.943 0l-1.293-1.291a.67.67 0 0 1 0-.944l.731-.731a6.4 6.4 0 0 1-.695-1.677h-1.032a.667.667 0 0 1-.667-.667v-1.83a.667.667 0 0 1 .667-.667h1.032a6.4 6.4 0 0 1 .695-1.677l-.731-.731a.67.67 0 0 1 0-.944l1.293-1.293a.667.667 0 0 1 .943 0l.731.731a6.4 6.4 0 0 1 1.677-.695v-1.032a.667.667 0 0 1 .667-.667h1.829a.667.667 0 0 1 .667.667v1.032a6.4 6.4 0 0 1 1.677.695l.731-.731a.667.667 0 0 1 .943 0l1.293 1.293a.67.67 0 0 1 0 .944l-.731.731a6.4 6.4 0 0 1 .695 1.677h1.032a.667.667 0 0 1 .667.667v1.829a.667.667 0 0 1-.667.667h-1.029a6.4 6.4 0 0 1-.695 1.677l.731.731a.67.67 0 0 1 0 .944l-1.296 1.293a.667.667 0 0 1-.943 0l-.731-.731a6.4 6.4 0 0 1-1.677.695v1.032a.667.667 0 0 1-.667.668m-1.162-1.333h.5v-.907a.666.666 0 0 1 .561-.659 5.06 5.06 0 0 0 2.148-.891.665.665 0 0 1 .861.069l.641.641.351-.351-.641-.641a.67.67 0 0 1-.069-.861 5.06 5.06 0 0 0 .891-2.148.67.67 0 0 1 .659-.561h.907v-.5h-.907a.67.67 0 0 1-.659-.561 5.06 5.06 0 0 0-.891-2.148.665.665 0 0 1 .069-.861l.641-.641-.351-.351-.641.641a.666.666 0 0 1-.861.069 5.06 5.06 0 0 0-2.148-.891.67.67 0 0 1-.561-.659v-.907h-.5v.907a.666.666 0 0 1-.561.659 5.06 5.06 0 0 0-2.148.891.665.665 0 0 1-.861-.069l-.641-.641-.351.351.641.641a.67.67 0 0 1 .069.861 5.06 5.06 0 0 0-.891 2.148.67.67 0 0 1-.659.561h-.907v.5h.907a.67.67 0 0 1 .659.561 5.06 5.06 0 0 0 .891 2.148.665.665 0 0 1-.069.861l-.641.641.351.351.641-.641a.665.665 0 0 1 .861-.069 5.06 5.06 0 0 0 2.148.891.67.67 0 0 1 .561.659Z"/><path d="M41.441 24.887a3.913 3.913 0 1 1 3.913-3.913 3.92 3.92 0 0 1-3.913 3.913m0-6.493a2.58 2.58 0 1 0 2.58 2.58 2.583 2.583 0 0 0-2.58-2.58M51.052 10.423H31.833a.667.667 0 0 1 0-1.333h19.219a.667.667 0 0 1 0 1.333M51.052 5.812H31.833a.667.667 0 0 1 0-1.333h19.219a.667.667 0 0 1 0 1.333M13.668 13.62a.66.66 0 0 1-.407-.139l-3.664-2.827a.666.666 0 0 1 0-1.056l3.664-2.827a.667.667 0 1 1 .815 1.055l-2.98 2.3 2.98 2.3a.668.668 0 0 1-.408 1.2ZM20.782 13.619a.667.667 0 0 1-.408-1.195l2.98-2.3-2.98-2.3a.667.667 0 1 1 .815-1.055l3.664 2.827a.666.666 0 0 1 0 1.056l-3.664 2.827a.67.67 0 0 1-.407.14M15.89 15.774a.7.7 0 0 1-.173-.023.667.667 0 0 1-.472-.816l2.669-9.96a.667.667 0 0 1 1.288.344l-2.669 9.96a.666.666 0 0 1-.643.495M26.833 19.64H7.614a.667.667 0 1 1 0-1.333h19.219a.667.667 0 1 1 0 1.333M26.833 24.251H7.614a.667.667 0 1 1 0-1.333h19.219a.667.667 0 1 1 0 1.333M26.833 28.861H7.614a.667.667 0 1 1 0-1.333h19.219a.667.667 0 1 1 0 1.333"/></g></svg>