<svg xmlns="http://www.w3.org/2000/svg" width="56.25" height="56.25"><g fill="#282928"><path d="M41.225 37.615 29.14 12.963a1.1 1.1 0 0 0-1.973 0L15.082 37.615a1.1 1.1 0 0 0 .122 1.16l6.82 8.694h-2a2.86 2.86 0 0 0-2.857 2.853v4.39a1.54 1.54 0 0 0 1.538 1.537h18.9a1.54 1.54 0 0 0 1.538-1.537v-4.39a2.86 2.86 0 0 0-2.856-2.853H34.26l6.842-8.694a1.1 1.1 0 0 0 .123-1.16m-4.942 12.049a.66.66 0 0 1 .659.658v3.732H19.364v-3.731a.66.66 0 0 1 .66-.658Zm-4.818-2.195h-6.65l-7.456-9.508L28.151 15.94l10.8 22.021Z"/><path d="M32.535 38.437a4.37 4.37 0 0 0-3.284-3.971v-7.824a1.1 1.1 0 0 0-2.2 0v7.822a4.387 4.387 0 0 0 1.09 8.636c.1 0 .191 0 .287-.008a4.38 4.38 0 0 0 4.1-4.655Zm-2.732 1.728a2.23 2.23 0 0 1-2.429.6 2.195 2.195 0 1 1 2.429-.6"/><path d="M54.686 23.543h-1.708a26.5 26.5 0 0 0-2.689-9.514 18.87 18.87 0 0 0-8.482-8.513h5.807a4.385 4.385 0 0 0 4.228 3.263 4.4 4.4 0 0 0 .993-.114 4.387 4.387 0 1 0-5.24-5.346H32.551V1.565A1.54 1.54 0 0 0 31.01.029h-5.713a1.54 1.54 0 0 0-1.538 1.537v1.81H8.697a4.388 4.388 0 1 0-.042 2.2h5.825a18.88 18.88 0 0 0-8.508 8.513 26.5 26.5 0 0 0-2.7 9.515H1.538A1.54 1.54 0 0 0 0 25.141v5.707a1.54 1.54 0 0 0 1.538 1.536h5.713a1.54 1.54 0 0 0 1.538-1.536v-5.714a1.54 1.54 0 0 0-1.538-1.536H5.484a24.4 24.4 0 0 1 2.443-8.514 16.9 16.9 0 0 1 5.735-6.536 19.45 19.45 0 0 1 10.1-2.956v1.68A1.54 1.54 0 0 0 25.3 8.808h5.713a1.54 1.54 0 0 0 1.538-1.536V5.538a19.37 19.37 0 0 1 10.026 2.931 16.85 16.85 0 0 1 5.722 6.492 24.6 24.6 0 0 1 2.469 8.581h-1.794a1.54 1.54 0 0 0-1.538 1.537v5.708a1.54 1.54 0 0 0 1.538 1.536h5.713a1.54 1.54 0 0 0 1.538-1.536v-5.708a1.54 1.54 0 0 0-1.539-1.536M49.997 3.224a2.194 2.194 0 0 1 4.024.81 2.2 2.2 0 0 1-1.085 2.267 2.194 2.194 0 0 1-2.939-3.077c.309-.495-.312.493 0 0M4.422 6.585a2.195 2.195 0 1 1 2.2-2.195 2.2 2.2 0 0 1-2.2 2.195m2.17 19.208v4.39H2.198v-4.39Zm23.759-19.18h-4.395v-4.39h4.395Zm23.676 23.516h-4.394v-4.39h4.395Z"/><path d="M28.151 23.351a1.1 1.1 0 1 1 0-2.2 1.1 1.1 0 1 1 0 2.2"/></g></svg>