<svg xmlns="http://www.w3.org/2000/svg" width="60" height="60"><defs><clipPath id="a"><path fill="#fff" d="M0 0h60v60H0z"/></clipPath></defs><g clip-path="url(#a)"><path fill="#282928" d="M49.463 43.275A23.559 23.559 0 0 1 6.44 30v-.628l2.455 2.454a1.071 1.071 0 0 0 1.514-1.514l-4.281-4.281a1.07 1.07 0 0 0-1.516 0L.33 30.312a1.071 1.071 0 0 0 1.514 1.514L4.3 29.372V30a25.7 25.7 0 0 0 46.932 14.485 1.072 1.072 0 0 0-1.769-1.21M58.157 28.172 55.7 30.628V30A25.7 25.7 0 0 0 8.766 15.528a1.071 1.071 0 0 0 1.769 1.206A23.557 23.557 0 0 1 53.56 30v.628l-2.454-2.455a1.071 1.071 0 0 0-1.514 1.514l4.282 4.281a1.07 1.07 0 0 0 1.516 0l4.282-4.281a1.072 1.072 0 0 0-1.515-1.515"/><path fill="none" stroke="#282928" stroke-width="2" d="M31.038 16.91a6.1 6.1 0 0 1 2.854-2.11 6 6 0 0 1 .409-.128q-.015.142-.039.3a6.24 6.24 0 0 1-1.4 3.034 5.12 5.12 0 0 1-2.708 1.806 4 4 0 0 1-.353.071q.009-.103.024-.217a5.9 5.9 0 0 1 1.213-2.756ZM39.709 23.918a8.3 8.3 0 0 0-1.054 1 8.1 8.1 0 0 0 .489 11.155 9 9 0 0 0 1.595 1.2q-.086.207-.193.455a26 26 0 0 1-1.432 2.819 12.5 12.5 0 0 1-2.078 2.711 3.3 3.3 0 0 1-2.159 1.065 6.5 6.5 0 0 1-2.273-.57l-.025-.009a8.5 8.5 0 0 0-3.024-.687 9.8 9.8 0 0 0-3.268.716l-.314.113c-.346.125-.649.235-.938.323a3 3 0 0 1-.806.162 3.64 3.64 0 0 1-2.234-1.113 13.4 13.4 0 0 1-2.532-3.247 19.5 19.5 0 0 1-2.692-9.233c0-5.953 3.65-8.755 6.745-8.755a8.2 8.2 0 0 1 2.885.639l.408.156c.312.12.631.243.919.339a4.4 4.4 0 0 0 1.383.271 4 4 0 0 0 1.329-.294c.222-.081.492-.19.762-.3.192-.077.383-.154.558-.222a8.5 8.5 0 0 1 3.084-.68 6.6 6.6 0 0 1 4.224 1.391 6 6 0 0 1 .641.595Zm.563.723Z"/></g></svg>