<svg xmlns="http://www.w3.org/2000/svg" width="60" height="60"><defs><clipPath id="a"><path fill="#fff" d="M0 0h60v60H0z"/></clipPath></defs><g fill="#282928" clip-path="url(#a)"><path d="M47.357 13.224a5 5 0 0 1-1.954-.4 1 1 0 0 1-.374-.267C40.982 7.992 47.695.64 47.983.329a1.028 1.028 0 0 1 1.772.562 3.54 3.54 0 0 0 1.866 2.522 1.1 1.1 0 0 1 .3.213 3.54 3.54 0 0 0 2.987.942 1.028 1.028 0 0 1 1.107 1.494c-.181.329-3.915 7.162-8.658 7.162m-.941-2.214c2.692.884 5.451-2.41 6.849-4.439a6 6 0 0 1-2.689-1.387 6 6 0 0 1-2.183-2.092c-1.463 1.984-3.68 5.666-1.976 7.918ZM29.108 60A25.241 25.241 0 1 1 54.35 34.759 25.27 25.27 0 0 1 29.108 60m0-48.428a23.187 23.187 0 1 0 23.187 23.187 23.213 23.213 0 0 0-23.187-23.187"/><path d="M29.108 53.484a18.724 18.724 0 1 1 18.725-18.725 18.746 18.746 0 0 1-18.725 18.725m0-35.394a16.669 16.669 0 1 0 16.67 16.669 16.69 16.69 0 0 0-16.67-16.669"/><path d="M29.108 45.665a10.907 10.907 0 1 1 10.907-10.907 10.92 10.92 0 0 1-10.907 10.907m0-19.759a8.852 8.852 0 1 0 8.852 8.852 8.86 8.86 0 0 0-8.852-8.852"/><path d="M28.923 37.152a1.027 1.027 0 0 1-.842-1.616l19.3-27.644a1.027 1.027 0 0 1 1.685 1.176l-19.3 27.644a1.03 1.03 0 0 1-.843.44"/></g></svg>