<svg xmlns="http://www.w3.org/2000/svg" width="60" height="45.6"><g fill="#282928"><path d="M26.821 31.199H8.4a1.2 1.2 0 0 1 0-2.4h18.421a1.2 1.2 0 0 1 0 2.4M26.821 16.799H8.4a1.2 1.2 0 1 1 0-2.4h18.421a1.2 1.2 0 1 1 0 2.4M25.2 23.999h-24a1.2 1.2 0 1 1 0-2.4h24a1.2 1.2 0 0 1 0 2.4M37.2 27.482a4.684 4.684 0 1 1 0-9.365 4.684 4.684 0 1 1 0 9.365m0-6.965a2.285 2.285 0 1 0 0 4.565 2.285 2.285 0 1 0 0-4.565"/><path d="M39.745 21.452a1.2 1.2 0 0 1-.848-2.048l6.788-6.788a1.202 1.202 0 1 1 1.7 1.7l-6.791 6.783a1.2 1.2 0 0 1-.849.353M32.958 28.243a1.2 1.2 0 0 1-.848-2.048l1.7-1.7a1.202 1.202 0 0 1 1.7 1.7l-1.7 1.7a1.2 1.2 0 0 1-.852.348M37.2 45.599a1.2 1.2 0 0 1-1.2-1.2v-3.6a1.2 1.2 0 0 1 2.4 0v3.6a1.2 1.2 0 0 1-1.2 1.2M52.473 39.273a1.2 1.2 0 0 1-.848-.352l-2.545-2.546a1.202 1.202 0 1 1 1.7-1.7l2.545 2.546a1.2 1.2 0 0 1-.848 2.048ZM49.927 11.273a1.2 1.2 0 0 1-.848-2.048l2.545-2.546a1.202 1.202 0 1 1 1.7 1.7l-2.545 2.546a1.2 1.2 0 0 1-.852.348M37.2 5.999a1.2 1.2 0 0 1-1.2-1.2v-3.6a1.2 1.2 0 0 1 2.4 0v3.6a1.2 1.2 0 0 1-1.2 1.2M58.8 23.999h-3.6a1.2 1.2 0 1 1 0-2.4h3.6a1.2 1.2 0 1 1 0 2.4M28.547 9.599H15.6a1.2 1.2 0 0 1 0-2.4h12.947a1.2 1.2 0 1 1 0 2.4M28.547 38.399H15.6a1.2 1.2 0 0 1 0-2.4h12.947a1.2 1.2 0 0 1 0 2.4"/><path d="M37.126 45.577a22.6 22.6 0 0 1-10.37-2.51 1.2 1.2 0 0 1 1.1-2.134A20.4 20.4 0 0 0 49.241 6.327a20.59 20.59 0 0 0-21.386-1.662 1.2 1.2 0 1 1-1.1-2.134A22.8 22.8 0 0 1 56.59 34.799a22.87 22.87 0 0 1-19.464 10.778"/></g></svg>