<svg xmlns="http://www.w3.org/2000/svg" width="59.997" height="54.501"><path d="M55.636 38.482C59.624 26.104 52.52 10.111 38.536.19a1.035 1.035 0 0 0-1.463 1.413c6.047 9.194 7.6 18.509 4.35 25.769-9.691-6.543-27.211-21.817-27.394-21.976a1.035 1.035 0 0 0-1.545 1.353c.273.414 5.168 7.841 10.44 14.3-3.8-2.715-7.994-6.151-15.455-12.389a1.034 1.034 0 0 0-1.547 1.331c7.39 12.131 19.692 23.38 25.756 28.537-13.981 6.256-29.913-4.048-30.081-4.155a1.035 1.035 0 0 0-1.43 1.433c3.048 4.634 7.237 8.08 12.59 11.827 7.124 4.988 14.214 6.868 20.251 6.868 6.24 0 11.355-2.008 14.217-4.669.012-.016 1.294-1.339 4.134-.507 2.264.662 5.382 3.154 6.474 4.28a1.034 1.034 0 0 0 1.75-.486 16 16 0 0 0 .414-3.639 15.9 15.9 0 0 0-4.361-10.998m2.225 12.367a19 19 0 0 0-5.924-3.51c-4.126-1.2-6.172 1.019-6.189 1.047-5.053 4.69-18.263 7.035-31.806-2.448a57 57 0 0 1-8.965-7.389A47.4 47.4 0 0 0 11.366 41c8.454 2.544 16.294 2.084 22.679-1.332a1.034 1.034 0 0 0 .174-1.707c-4.523-3.767-14.671-12.694-22.407-23 7.533 6.213 11.037 8.787 16.594 12.121a1.035 1.035 0 0 0 1.254-1.633 110.4 110.4 0 0 1-10.884-13.27c6.4 5.405 16.364 13.6 22.495 17.574a1.033 1.033 0 0 0 1.478-.386c3.596-6.834 3.123-15.418-1.194-24.118 10.63 9.542 15.6 22.837 11.923 33.159a1.03 1.03 0 0 0 .251 1.086 13.88 13.88 0 0 1 4.2 9.988q-.001.684-.068 1.367"/></svg>