<svg xmlns="http://www.w3.org/2000/svg" width="60" height="60"><defs><clipPath id="a"><path d="M0 0h60v60H0z"/></clipPath></defs><g fill="#282928" clip-path="url(#a)"><path d="M54.3 27.3a2.7 2.7 0 0 0-2.534 1.8H46.2v-3.6h5.4a.9.9 0 1 0 0-1.8h-5.4v-3.6h6.3a1.8 1.8 0 0 0 1.8-1.8v-1.966a2.7 2.7 0 1 0-1.8 0V18.3h-6.3v-.9a3.6 3.6 0 0 0-3.6-3.6h-.9V7.5h1.966a2.7 2.7 0 1 0 0-1.8H41.7a1.8 1.8 0 0 0-1.8 1.8v6.3h-3.6V8.4a.9.9 0 0 0-1.8 0v5.4h-3.6V8.234a2.7 2.7 0 1 0-1.8 0V13.8h-3.6V8.4a.9.9 0 0 0-1.8 0v5.4h-3.6V7.5a1.8 1.8 0 0 0-1.8-1.8h-1.966a2.7 2.7 0 1 0 0 1.8H18.3v6.3h-.9a3.6 3.6 0 0 0-3.6 3.6v.9H7.5v-1.966a2.7 2.7 0 1 0-1.8 0V18.3a1.8 1.8 0 0 0 1.8 1.8h6.3v3.6H8.4a.9.9 0 0 0 0 1.8h5.4v3.6H8.234a2.7 2.7 0 1 0 0 1.8H13.8v3.6H8.4a.9.9 0 0 0 0 1.8h5.4v3.6H7.5a1.8 1.8 0 0 0-1.8 1.8v1.966a2.7 2.7 0 1 0 1.8 0V41.7h6.3v.9a3.6 3.6 0 0 0 3.6 3.6h.9v6.3h-1.966a2.7 2.7 0 1 0 0 1.8H18.3a1.8 1.8 0 0 0 1.8-1.8v-6.3h3.6v5.4a.9.9 0 1 0 1.8 0v-5.4h3.6v5.566a2.7 2.7 0 1 0 1.8 0V46.2h3.6v5.4a.9.9 0 1 0 1.8 0v-5.4h3.6v6.3a1.8 1.8 0 0 0 1.8 1.8h1.966a2.7 2.7 0 1 0 0-1.8H41.7v-6.3h.9a3.6 3.6 0 0 0 3.6-3.6v-.9h6.3v1.966a2.7 2.7 0 1 0 1.8 0V41.7a1.8 1.8 0 0 0-1.8-1.8h-6.3v-3.6h5.4a.9.9 0 0 0 0-1.8h-5.4v-3.6h5.566a2.7 2.7 0 1 0 2.534-3.6m-.9-14.4a.9.9 0 1 1-.9.9.9.9 0 0 1 .9-.9m-7.2-7.2a.9.9 0 1 1-.9.9.9.9 0 0 1 .9-.9M30 4.8a.9.9 0 1 1-.9.9.9.9 0 0 1 .9-.9M13.8 7.5a.9.9 0 1 1 .9-.9.9.9 0 0 1-.9.9m-7.2 5.4a.9.9 0 1 1-.9.9.9.9 0 0 1 .9-.9m-.9 18a.9.9 0 1 1 .9-.9.9.9 0 0 1-.9.9m.9 16.2a.9.9 0 1 1 .9-.9.9.9 0 0 1-.9.9m7.2 7.2a.9.9 0 1 1 .9-.9.9.9 0 0 1-.9.9m16.2.9a.9.9 0 1 1 .9-.9.9.9 0 0 1-.9.9m16.2-2.7a.9.9 0 1 1-.9.9.9.9 0 0 1 .9-.9m7.2-5.4a.9.9 0 1 1 .9-.9.9.9 0 0 1-.9.9m-9-4.5a1.8 1.8 0 0 1-1.8 1.8H17.4a1.8 1.8 0 0 1-1.8-1.8V17.4a1.8 1.8 0 0 1 1.8-1.8h25.2a1.8 1.8 0 0 1 1.8 1.8Zm9.9-11.7a.9.9 0 1 1 .9-.9.9.9 0 0 1-.9.9"/><path d="M26.231 22.21a1.549 1.549 0 0 0-3.023 0l-3.465 15.573a1 1 0 0 0 1.953.433L22.857 33h3.725l1.161 5.217a1 1 0 0 0 .977.783 1 1 0 0 0 .218-.023 1 1 0 0 0 .76-1.193ZM23.303 31l1.417-6.372L26.139 31zM37.423 23a1 1 0 0 0 0-2h-6a1 1 0 0 0 0 2h2v14h-2a1 1 0 0 0 0 2h6a1 1 0 0 0 0-2h-2V23Z"/></g></svg>