<svg xmlns="http://www.w3.org/2000/svg" width="60" height="60"><defs><clipPath id="a"><path d="M0 0h60v60H0z"/></clipPath></defs><g fill="#282928" clip-path="url(#a)"><path d="m25.188 51.521-.157.769.152-.77a.785.785 0 1 0-.3 1.54h.014a1 1 0 0 0 .148.014.785.785 0 0 0 .146-1.556ZM31.235 51.773l.078.781-.081-.78a.785.785 0 0 0 .079 1.566h.10300000000000001a.785.785 0 0 0-.18-1.56ZM28.206 51.872h-.011a.78.78 0 0 0-.814.749.79.79 0 0 0 .754.819h.036a.785.785 0 0 0 .035-1.569ZM22.26 50.724h-.01a.78.78 0 0 0-1 .475.787.787 0 1 0 1.009-.471ZM34.222 51.223l.193.761-.2-.76a.785.785 0 1 0 .392 1.52l.021-.005a.785.785 0 0 0-.41-1.516ZM37.083 50.234l.311.72-.314-.72a.785.785 0 1 0 .627 1.44l.019-.009a.785.785 0 0 0-.644-1.432ZM19.24 12.808a.785.785 0 1 0-.367-1.478h-.009a.784.784 0 0 0 .376 1.473ZM10.039 22.129a.785.785 0 0 0 1.06-.331l.014-.027a.785.785 0 1 0-1.074.358M8.934 25.175a.784.784 0 0 0 1-.492l.01-.031a.785.785 0 1 0-1.005.523ZM11.587 19.296a.784.784 0 0 0 1.1-.173l.01-.014a.785.785 0 0 0-1.277-.913l.632.465-.635-.462a.785.785 0 0 0 .173 1.1ZM16.555 14.826A.788.788 0 1 0 16.1 13.4l-.02.014a.786.786 0 0 0 .474 1.412ZM8.233 37.482a.785.785 0 1 0-.01-.034ZM14.164 16.96a.787.787 0 1 0-.548-1.346l-.013.013a.784.784 0 0 0 .561 1.333M9.1 33.959a.785.785 0 0 0-1.558.194v.031a.785.785 0 0 0 1.554-.226ZM8.115 31.61h.024a.785.785 0 0 0 .784-.762v-.034a.785.785 0 1 0-.809.8ZM8.287 28.36a1 1 0 0 0 .139.012.786.786 0 0 0 .772-.647q-.001-.017.005-.034a.785.785 0 1 0-.917.669ZM45.649 19.557a.785.785 0 0 0 1.292-.891l-.652.437.65-.44a.785.785 0 1 0-1.3.881ZM49.736 27.751a.785.785 0 0 0-.692.868v.034a.786.786 0 0 0 .776.674 1 1 0 0 0 .112-.008.791.791 0 0 0-.2-1.568ZM48.412 25.432v.01a.785.785 0 0 0 .753.564.8.8 0 0 0 .222-.032.785.785 0 0 0 .532-.975v-.01a.785.785 0 1 0-1.506.443ZM47.303 22.4a.79.79 0 0 0 .708.441.784.784 0 0 0 .7-1.129l-.711.332.711-.333a.785.785 0 0 0-1.422.666ZM43.656 17.023a.79.79 0 1 0-.024-.025ZM49.992 31.136a.79.79 0 0 0-.067 1.578h.045a.785.785 0 0 0 .783-.742v-.032a.784.784 0 0 0-.761-.804M38.595 12.772l.019.01a.78.78 0 0 0 1.057-.323.79.79 0 0 0-.319-1.063l-.38.687.377-.688a.785.785 0 1 0-.755 1.377ZM41.272 14.82l.012.009a.785.785 0 0 0 .949-1.251h-.005a.785.785 0 1 0-.956 1.245Zm0 0"/><path d="M56.512 43.366 52.8 39.558a1.644 1.644 0 0 0-2.365 0l-.086.088-.249-.245a3.3 3.3 0 0 1-.693-1.06 1 1 0 0 0-.056-.15 3.3 3.3 0 0 1-.184-1.1V36.01a.8.8 0 0 0 .37.094.8.8 0 0 0 .777-.664.81.81 0 0 0-.621-.951.77.77 0 0 0-.531.082 4.62 4.62 0 0 0-1.307-3.044l-3.6-3.693a4.2 4.2 0 0 0-5.465-.5l-.382-.393v-9.26a4.66 4.66 0 0 0-1.114-3.032 3.3 3.3 0 0 1-.794-2.16v-.678h.054a1.694 1.694 0 0 0 1.673-1.71V4.713a1.694 1.694 0 0 0-1.672-1.712H21.779a1.694 1.694 0 0 0-1.672 1.712v5.388a1.694 1.694 0 0 0 1.672 1.71h.121v.355a3.29 3.29 0 0 1-.934 2.31l-1.594 1.635a4.62 4.62 0 0 0-1.312 3.248v5.223a4.45 4.45 0 0 0 .459 1.973 4.2 4.2 0 0 0-2.776 1.277l-3.6 3.693a4.62 4.62 0 0 0-1.312 3.248v2.312a3.29 3.29 0 0 1-.931 2.316l-.241.247-.086-.088a1.644 1.644 0 0 0-2.365 0l-3.72 3.806a1.745 1.745 0 0 0 0 2.421l1.272 1.3a.78.78 0 0 0 1.119 0 .823.823 0 0 0 0-1.145l-1.271-1.3a.1.1 0 0 1 0-.133l3.713-3.808a.087.087 0 0 1 .126 0l.646.662 8.815 9.038.988 1.013a.1.1 0 0 1 0 .133l-3.713 3.807a.087.087 0 0 1-.126 0l-6.938-7.112A.78.78 0 0 0 7 48.241a.823.823 0 0 0 0 1.145l6.937 7.115a1.644 1.644 0 0 0 2.365 0l3.713-3.807a1.745 1.745 0 0 0 0-2.421l-.04-.041.468-.48a3.15 3.15 0 0 1 2.046-.95 4.43 4.43 0 0 0 2.88-1.337l3.411-3.5a2.75 2.75 0 0 0 1.958-2.112 2.6 2.6 0 0 0 1.156.267 2.735 2.735 0 0 0 2.7-2.765v-1.923a2.6 2.6 0 0 0 1.116.248 2.735 2.735 0 0 0 2.7-2.765v-5.682l2.433 2.5a.78.78 0 0 0 1.119 0 .823.823 0 0 0 0-1.145l-2.029-2.086a2.65 2.65 0 0 1 3.2.471l3.6 3.693a3 3 0 0 1 .85 2.1v2.312a4.92 4.92 0 0 0 1.4 3.454l.246.252-1.147 1.176-6.94 7.115-.387-.4-.012-.012-.068-.07a4.72 4.72 0 0 0-3.063-1.421 2.87 2.87 0 0 1-1.865-.867l-2.6-2.646a.78.78 0 0 0-1.119 0 .823.823 0 0 0 0 1.145l2.6 2.644a4.43 4.43 0 0 0 2.882 1.353 3.15 3.15 0 0 1 2.046.949l.038.039a1 1 0 0 0 .066.067l.365.374-.04.042a1.745 1.745 0 0 0 0 2.421l3.715 3.808a1.644 1.644 0 0 0 2.366 0l10.445-10.715a1.745 1.745 0 0 0 0-2.421ZM49.7 35.315h-.015l-.144-.03Zm-25.45 11a2.87 2.87 0 0 1-1.863.865 4.72 4.72 0 0 0-3.063 1.421l-.467.479-.42-.431-.016-.016-7.65-7.84.246-.252a4.92 4.92 0 0 0 1.4-3.454v-2.313a3 3 0 0 1 .85-2.1l3.6-3.693a2.646 2.646 0 0 1 3.206-.468l-2.032 2.083a.823.823 0 0 0 0 1.145.78.78 0 0 0 1.119 0l2.427-2.489v10.103a2.735 2.735 0 0 0 2.7 2.765 2.6 2.6 0 0 0 1.171-.274 2.77 2.77 0 0 0 1.341 1.864Zm12.575-11.4a1.116 1.116 0 1 1-2.232 0v-9.03a.791.791 0 1 0-1.582 0v13.47a1.114 1.114 0 0 1-2.216.189V25.876a.8.8 0 0 0-.791-.81.8.8 0 0 0-.387.1.81.81 0 0 0-.42.715v13.474a3 3 0 0 0 .016.3v1.631a1.116 1.116 0 1 1-2.232 0v-15.42a.791.791 0 1 0-1.582 0v13.489a1.116 1.116 0 1 1-2.232 0v-15.06a.791.791 0 1 0-1.582 0v2.786a.8.8 0 0 0-.19.093 2.77 2.77 0 0 1-1.753-2.591v-5.224a3 3 0 0 1 .85-2.1l1.595-1.635a4.92 4.92 0 0 0 1.4-3.454v-.359h1.59a.81.81 0 0 0 0-1.619h-3.298a.09.09 0 0 1-.09-.093V4.713a.09.09 0 0 1 .09-.093h14.775a.09.09 0 0 1 .091.093v5.388a.09.09 0 0 1-.091.093h-7.767a.81.81 0 0 0 0 1.619h6.132v.678a4.96 4.96 0 0 0 1.181 3.223 3.02 3.02 0 0 1 .722 1.964Zm18.566 9.726L44.943 55.355a.08.08 0 0 1-.063.027.09.09 0 0 1-.063-.027L41.1 51.548a.1.1 0 0 1 0-.133l.6-.613 6.066-6.219 3.786-3.882a.087.087 0 0 1 .126 0l3.714 3.807a.1.1 0 0 1 0 .133Zm0 0"/><path d="M24.282 6.43a.837.837 0 1 0 .836.837.84.84 0 0 0-.836-.837M51.914 43.488a.837.837 0 1 0 .836.837.84.84 0 0 0-.836-.837M16.171 51.868a.836.836 0 1 0-.836.837.84.84 0 0 0 .836-.837m0 0"/></g></svg>