<svg xmlns="http://www.w3.org/2000/svg" width="60" height="60"><defs><clipPath id="a"><path d="M0 0h60v60H0z"/></clipPath></defs><g clip-path="url(#a)"><path fill="#282928" d="M6.478 33.5a3.485 3.485 0 0 0 3.361-2.614h6.222v3.609a3.477 3.477 0 1 0 3.427 5.715l7.134 3.8a3.426 3.426 0 0 0 2.507 4.174v1.99a3.485 3.485 0 1 0 1.742 0v-1.99a3.426 3.426 0 0 0 2.508-4.174l7.133-3.8a3.475 3.475 0 1 0 3.427-5.713v-3.61h6.222a3.485 3.485 0 1 0 0-1.742H43.94v-3.609a3.477 3.477 0 1 0-3.426-5.713l-7.134-3.8a3.4 3.4 0 0 0 .106-.813 3.485 3.485 0 0 0-2.614-3.361V9.854a3.485 3.485 0 1 0-1.742 0v1.99a3.485 3.485 0 0 0-2.614 3.361 3.4 3.4 0 0 0 .106.814l-7.133 3.8a3.475 3.475 0 1 0-3.427 5.713v3.609H9.839A3.479 3.479 0 1 0 6.478 33.5m47.045-5.227a1.742 1.742 0 1 1-1.742 1.742 1.74 1.74 0 0 1 1.742-1.742m-21.78 25.265a1.742 1.742 0 1 1-1.742-1.742 1.74 1.74 0 0 1 1.742 1.742m-1.742-6.97a1.742 1.742 0 1 1 1.742-1.742A1.74 1.74 0 0 1 30 46.568Zm-1.743-17.424A1.742 1.742 0 1 1 30 30.886a1.74 1.74 0 0 1-1.742-1.742m16.553 8.712a1.742 1.742 0 1 1-1.742-1.746 1.74 1.74 0 0 1 1.742 1.746m-1.742-17.424a1.742 1.742 0 1 1-1.742 1.742 1.74 1.74 0 0 1 1.742-1.742m-.871 5.1v8.959a3.485 3.485 0 0 0-2.614 3.361 3.4 3.4 0 0 0 .106.814l-7.134 3.8a3.46 3.46 0 0 0-1.684-1.009V32.51a3.485 3.485 0 0 0 2.614-3.361 3.4 3.4 0 0 0-.106-.815l7.134-3.8a3.46 3.46 0 0 0 1.679 1.002ZM28.258 6.493A1.742 1.742 0 1 1 30 8.235a1.74 1.74 0 0 1-1.742-1.742M30 13.463a1.742 1.742 0 1 1-1.742 1.742A1.74 1.74 0 0 1 30 13.463m-9.69 7.9 7.133-3.8a3.447 3.447 0 0 0 5.111 0l7.134 3.8a3.2 3.2 0 0 0 0 1.629l-7.134 3.8a3.446 3.446 0 0 0-5.11 0l-7.134-3.805a3.17 3.17 0 0 0 0-1.627Zm6.311 6.97a3.426 3.426 0 0 0 2.508 4.177v8.959a3.46 3.46 0 0 0-1.684 1.011l-7.134-3.8a3.426 3.426 0 0 0-2.507-4.176v-8.968a3.47 3.47 0 0 0 1.689-1.011Zm-11.428-6.158a1.742 1.742 0 1 1 1.742 1.742 1.74 1.74 0 0 1-1.742-1.742m1.739 13.935a1.742 1.742 0 1 1-1.739 1.746 1.74 1.74 0 0 1 1.739-1.746M6.478 28.273a1.742 1.742 0 1 1-1.742 1.742 1.74 1.74 0 0 1 1.742-1.742"/></g></svg>