<svg xmlns="http://www.w3.org/2000/svg" width="60" height="60" fill="none"><path fill="#282928" d="M58.096 36.642V23.296h-8.672a20 20 0 0 0-.98-2.363l6.133-6.133-9.438-9.437-6.128 6.129c-.76-.371-1.552-.698-2.367-.977V1.844H23.298v8.672c-.804.276-1.595.604-2.363.98l-6.133-6.133L5.365 14.8l6.133 6.133a20.5 20.5 0 0 0-.98 2.363H1.846v13.346h8.672q.414 1.208.98 2.362l-6.133 6.133 9.437 9.438 6.133-6.134c.768.377 1.559.704 2.363.98v8.673h13.346v-8.668a21 21 0 0 0 2.363-.984l6.132 6.133 9.438-9.438-6.134-6.133a20.5 20.5 0 0 0 .98-2.362zm-5.85 8.495-7.107 7.107-5.82-5.82-.538.283c-1.041.55-2.12.999-3.205 1.335l-.58.18v8.224h-10.05v-8.23c-1.757-.544-2.418-.787-4.324-1.793l-5.82 5.821-7.106-7.107 5.82-5.82c-1.007-1.908-1.25-2.566-1.793-4.323h-8.23v-10.05h8.23c.539-1.74.783-2.41 1.793-4.324l-5.82-5.82 7.106-7.107 5.82 5.821.538-.284a19 19 0 0 1 3.206-1.33l.58-.18V3.492h10.05v8.229l.58.179c1.123.348 2.203.794 3.21 1.326l.538.283 5.816-5.816 7.106 7.107-5.82 5.82c.871 1.652 1.167 2.3 1.793 4.324h8.229v10.05h-8.229c-.238.768-.613 2.085-1.51 3.785l-.284.538z"/><path fill="#282928" d="m9.385 45.003 3.843-3.843 1.165 1.165-3.843 3.843zM26.95 36.273l2.052-2.052-1.166-1.165-2.052 2.052a7.273 7.273 0 0 1-10.277 0 7.22 7.22 0 0 1-2.129-5.139c0-1.94.756-3.766 2.129-5.138 2.833-2.834 7.444-2.834 10.277 0l9.327 9.327a5.93 5.93 0 0 0 8.377 0 5.92 5.92 0 0 0 0-8.377 5.925 5.925 0 0 0-8.377 0l-2.052 2.052 1.166 1.165 2.051-2.052a4.25 4.25 0 0 1 3.024-1.25 4.27 4.27 0 0 1 4.275 4.273 4.25 4.25 0 0 1-1.252 3.024 4.28 4.28 0 0 1-6.046 0l-9.327-9.327c-3.476-3.477-9.132-3.476-12.609 0a8.91 8.91 0 0 0 0 12.607c3.48 3.48 9.129 3.48 12.609 0"/><path fill="#282928" d="M45.604 23.665c-3.476-3.475-9.132-3.475-12.608 0l-2.052 2.053 1.165 1.165 2.052-2.052c2.833-2.834 7.444-2.834 10.277 0 2.834 2.833 2.834 7.444 0 10.277-2.833 2.834-7.443 2.834-10.277 0l-9.327-9.327a5.93 5.93 0 0 0-8.377 0 5.93 5.93 0 0 0 0 8.377 5.93 5.93 0 0 0 8.377 0l2.052-2.052-1.165-1.165-2.052 2.052a4.28 4.28 0 0 1-6.047 0 4.28 4.28 0 0 1 0-6.047 4.28 4.28 0 0 1 6.047 0l9.327 9.328c3.478 3.477 9.134 3.473 12.608 0 3.476-3.476 3.476-9.132 0-12.609M20.144 39.797l-1.165 1.165c6.075 6.076 15.908 6.076 21.985 0l-1.166-1.165c-5.431 5.431-14.222 5.432-19.654 0M40.963 15.755l-1.166-1.165 1.165-1.165 1.166 1.165zm1.942-1.942-1.166-1.165 1.166-1.166 1.165 1.166zm1.941-1.942-1.165-1.165 1.53-1.53 1.166 1.165zM39.798 20.143a13.89 13.89 0 0 0-15.397-2.91l-.66-1.51c5.667-2.476 12.535-1.432 17.223 3.254zm-19.654 0-1.165-1.166c.41-.409.844-.799 1.295-1.159l1.03 1.286c-.403.323-.793.672-1.16 1.039m1.993-1.655-.93-1.361c.477-.327.978-.63 1.489-.9l.771 1.456a14 14 0 0 0-1.33.805"/></svg>