<svg xmlns="http://www.w3.org/2000/svg" width="60" height="60" fill="none"><path fill="#282928" d="M30.322 57.305h-.645a5 5 0 0 1-1.763-.32c-6.222-2.327-11.222-6.1-14.86-11.212-2.857-4.015-4.84-8.815-5.89-14.266-1.734-8.99-.33-16.784-.27-17.11a5.01 5.01 0 0 1 3.008-3.727L28.06 3.084A5 5 0 0 1 30 2.695c.669 0 1.321.131 1.939.39l18.158 7.585a5.01 5.01 0 0 1 3.007 3.726c.06.328 1.465 8.122-.269 17.111-1.051 5.451-3.033 10.25-5.89 14.266-3.638 5.112-8.638 8.885-14.86 11.213a5 5 0 0 1-1.763.319M30 4.57c-.42 0-.829.082-1.216.244L10.625 12.4a3.15 3.15 0 0 0-1.887 2.338c-.058.313-1.4 7.768.267 16.414 1 5.186 2.876 9.739 5.576 13.533 3.418 4.803 8.125 8.35 13.99 10.545.355.132.727.2 1.106.2h.645q.572-.001 1.106-.2c5.865-2.195 10.572-5.742 13.99-10.545 2.7-3.794 4.576-8.347 5.576-13.533 1.667-8.645.325-16.101.267-16.415a3.15 3.15 0 0 0-1.887-2.337L31.216 4.814a3.1 3.1 0 0 0-1.217-.244"/><path fill="#282928" d="M30.322 53.212h-.646a1 1 0 0 1-.328-.06c-5.443-2.036-9.803-5.318-12.96-9.752-2.514-3.535-4.266-7.796-5.205-12.667-.83-4.307-.86-8.306-.737-10.904.132-2.822.46-4.612.473-4.687a.94.94 0 0 1 .56-.694l18.159-7.586a.94.94 0 0 1 .722 0l18.159 7.586a.94.94 0 0 1 .56.694c.014.075.34 1.866.474 4.688.122 2.597.093 6.596-.738 10.903-.939 4.87-2.69 9.132-5.205 12.667-3.156 4.435-7.517 7.716-12.96 9.752a1 1 0 0 1-.328.06m-.475-1.875h.304c9.153-3.48 14.812-10.531 16.823-20.96 1.29-6.686.592-12.68.34-14.4L29.999 8.742l-17.315 7.233a41 41 0 0 0-.368 3.998c-.114 2.496-.082 6.337.719 10.459 2.02 10.398 7.676 17.43 16.812 20.904"/><path fill="#282928" d="M34.518 41.604h-9.037a4.406 4.406 0 0 1-4.4-4.402V29.86a4.406 4.406 0 0 1 4.4-4.402h9.037a4.406 4.406 0 0 1 4.401 4.402v7.343a4.406 4.406 0 0 1-4.4 4.402m-9.037-14.272a2.53 2.53 0 0 0-2.526 2.527v7.343a2.53 2.53 0 0 0 2.526 2.527h9.037a2.53 2.53 0 0 0 2.526-2.527V29.86a2.53 2.53 0 0 0-2.526-2.527zM30 34.651a2.6 2.6 0 0 1-2.598-2.598A2.6 2.6 0 0 1 30 29.456a2.6 2.6 0 0 1 2.597 2.597A2.6 2.6 0 0 1 30 34.651m0-3.32a.723.723 0 1 0 .002 1.446A.723.723 0 0 0 30 31.33"/><path fill="#282928" d="M35.838 27.335a.94.94 0 0 1-.937-.938v-2.871c0-2.703-2.199-4.901-4.9-4.901a4.906 4.906 0 0 0-4.901 4.9v2.872a.938.938 0 0 1-1.875 0v-2.871c0-1.81.704-3.512 1.984-4.791A6.73 6.73 0 0 1 30 16.75c1.81 0 3.512.705 4.791 1.985a6.73 6.73 0 0 1 1.985 4.79v2.872c0 .518-.42.938-.938.938M30 37.45a.937.937 0 0 1-.937-.937v-2.798a.938.938 0 0 1 1.875 0v2.798c0 .518-.42.938-.938.938"/></svg>