<svg xmlns="http://www.w3.org/2000/svg" width="60" height="60" fill="none"><path fill="#282928" d="M38.73 46.708a22.655 22.655 0 1 1 8.305-30.525.987.987 0 0 0 1.347.385.99.99 0 0 0 .381-1.349 24.654 24.654 0 1 0-9.021 33.192.99.99 0 0 0-1.011-1.703"/><path fill="#282928" d="m39.672 16.159 1.485-1.485a19 19 0 0 1 1.713 2.217.988.988 0 0 0 1.64.006.98.98 0 0 0 .003-1.095 20 20 0 0 0-2.643-3.237.3.3 0 0 0-.08-.07 20.51 20.51 0 0 0-14.552-5.999 20.7 20.7 0 1 0 0 41.402c.673 0 1.346-.03 1.99-.09a.987.987 0 0 0 .89-1.078 1 1 0 0 0-1.078-.901q-.399.045-.812.06v-2.1a.99.99 0 1 0-1.98 0v2.11a18.72 18.72 0 0 1-11.524-4.783l1.485-1.485a.987.987 0 0 0-.702-1.685 1 1 0 0 0-.703.29l-1.485 1.485a18.77 18.77 0 0 1-4.782-11.534h2.109a.99.99 0 1 0 0-1.98h-2.11a18.77 18.77 0 0 1 4.783-11.533l1.485 1.485a.991.991 0 0 0 1.405-1.396l-1.485-1.485a18.72 18.72 0 0 1 11.524-4.782v2.099a.99.99 0 0 0 1.98 0V8.496c4.28.22 8.35 1.912 11.524 4.792l-1.476 1.475a.987.987 0 0 0 1.396 1.396"/><path fill="#282928" d="M27.238 17.73a.993.993 0 0 0-.99.99v5.693a2.92 2.92 0 0 0-1.802 1.792h-5.683a.99.99 0 0 0 0 1.98h5.683a2.96 2.96 0 1 0 3.782-3.772v-5.692a.985.985 0 0 0-.99-.99m0 10.445a.98.98 0 1 1 0-1.96.98.98 0 0 1 0 1.96M55.977 30.135l-10.97 2.9L49.8 19.901a.997.997 0 0 0-1.08-1.318l-6.817 1.044a.99.99 0 0 0-.79.666L33.77 42.328a.997.997 0 0 0 1.191 1.27l8.419-2.214-2.815 15.447a.99.99 0 0 0 1.835.666L57.092 31.58a.997.997 0 0 0-1.115-1.445M43.563 51.43l2.043-11.224a.998.998 0 0 0-.974-1.167 1 1 0 0 0-.252.033l-8.153 2.143 6.572-19.722 4.566-.698L42.5 34.133a.997.997 0 0 0 1.181 1.296c1.61-.419 8.766-2.313 10.527-2.778z"/></svg>