<svg xmlns="http://www.w3.org/2000/svg" width="60" height="60" fill="none"><path fill="#282928" fill-rule="evenodd" d="m48.378 36.063 6.589 3.416a1.097 1.097 0 0 1 0 1.947L31.135 53.783a3.29 3.29 0 0 1-3.028 0L4.275 41.426a1.097 1.097 0 0 1 0-1.947l6.9-3.577a1.097 1.097 0 0 0-1.01-1.947l-6.9 3.578a3.29 3.29 0 0 0 0 5.84L27.098 55.73c1.583.82 3.465.82 5.048 0l23.831-12.357a3.29 3.29 0 0 0 0-5.84l-6.589-3.417a1.097 1.097 0 0 0-1.01 1.947" clip-rule="evenodd"/><path fill="#282928" fill-rule="evenodd" d="m48.563 25.064 6.654 3.45a1.096 1.096 0 0 1 0 1.948L31.385 42.819a3.29 3.29 0 0 1-3.028 0L4.525 30.462a1.096 1.096 0 0 1 0-1.947l6.696-3.472a1.097 1.097 0 0 0-1.01-1.947l-6.695 3.472a3.29 3.29 0 0 0 0 5.84l23.831 12.358c1.583.82 3.465.82 5.047 0l23.832-12.358a3.29 3.29 0 0 0 0-5.84l-6.654-3.45a1.097 1.097 0 0 0-1.01 1.946" clip-rule="evenodd"/><path fill="#282928" fill-rule="evenodd" d="M27.347 3.244 3.516 15.602a3.29 3.29 0 0 0 0 5.84l23.831 12.357c1.583.82 3.465.82 5.047 0l23.832-12.357a3.29 3.29 0 0 0 0-5.84L32.395 3.243a5.48 5.48 0 0 0-5.048 0m1.01 1.947a3.29 3.29 0 0 1 3.028 0l23.832 12.357a1.096 1.096 0 0 1 0 1.947L31.385 31.852c-.95.493-2.079.493-3.028 0L4.525 19.495a1.096 1.096 0 0 1 0-1.947z" clip-rule="evenodd"/></svg>