<svg xmlns="http://www.w3.org/2000/svg" width="60" height="60" fill="none"><path fill="#282928" d="M17.813 43.125a4.693 4.693 0 0 0-4.688 4.688 4.693 4.693 0 0 0 4.688 4.687 4.693 4.693 0 0 0 4.687-4.687 4.693 4.693 0 0 0-4.687-4.688m0 7.5A2.816 2.816 0 0 1 15 47.813 2.816 2.816 0 0 1 17.813 45a2.816 2.816 0 0 1 2.812 2.813 2.816 2.816 0 0 1-2.812 2.812"/><path fill="#282928" d="M27.188 50.625c.517 0 .937-.42.937-.937v-3.75a.94.94 0 0 0-.937-.938l-1.442-.041a8 8 0 0 0-.326-.777l1.01-1.01a.936.936 0 0 0 0-1.325l-2.652-2.652a.936.936 0 0 0-1.326 0l-1.05.99a8 8 0 0 0-.778-.318v-1.43a.94.94 0 0 0-.937-.937h-3.75a.94.94 0 0 0-.938.938l-.041 1.441c-.251.091-.497.193-.776.326l-1.01-1.01a.936.936 0 0 0-1.326 0l-2.652 2.652a.936.936 0 0 0 0 1.326l.99 1.05c-.112.24-.215.485-.318.778H8.438a.94.94 0 0 0-.938.937v3.75c0 .518.42.938.938.938l1.441.041c.091.251.193.497.326.776l-1.01 1.01a.936.936 0 0 0 0 1.326l2.652 2.652a.936.936 0 0 0 1.326 0l1.05-.99c.24.112.485.215.778.318v1.428c0 .518.42.938.937.938h3.75c.518 0 .938-.42.938-.937l.041-1.442c.251-.091.497-.193.776-.326l1.01 1.01a.936.936 0 0 0 1.326 0l2.652-2.652a.936.936 0 0 0 0-1.326l-.99-1.05a8 8 0 0 0 .318-.778zm-3.093 2.144.347.347-1.327 1.327-.347-.347c-.564-.567-1.415-.703-2.164-.352a6 6 0 0 1-.572.237c-.779.279-1.282.977-1.282 1.778v.491h-1.875v-.491c0-.8-.503-1.5-1.282-1.778a7 7 0 0 1-.573-.237c-.75-.352-1.6-.215-2.164.352l-.347.347-1.327-1.327.347-.347c.567-.565.704-1.415.352-2.164a6 6 0 0 1-.237-.572c-.279-.78-.977-1.283-1.778-1.283h-.491v-1.875h.491c.8 0 1.5-.503 1.778-1.282q.106-.295.237-.573c.352-.75.215-1.599-.352-2.164l-.347-.347 1.327-1.327.347.347c.565.567 1.416.704 2.164.352q.28-.133.572-.237c.78-.279 1.283-.977 1.283-1.778v-.491h1.875v.491c0 .8.503 1.5 1.282 1.778q.294.106.573.237c.75.353 1.6.215 2.164-.352l.347-.347 1.326 1.327-.346.347c-.567.565-.704 1.415-.352 2.164q.133.28.237.572c.279.78.977 1.283 1.778 1.283h.491v1.875h-.491c-.8 0-1.5.503-1.778 1.282q-.106.295-.237.573c-.352.75-.215 1.599.35 2.164M44.063 36.563c-4.136 0-7.5 3.364-7.5 7.5 0 4.135 3.364 7.5 7.5 7.5 4.135 0 7.5-3.365 7.5-7.5 0-4.136-3.365-7.5-7.5-7.5m0 13.124a5.63 5.63 0 0 1-5.626-5.624 5.63 5.63 0 0 1 5.626-5.626 5.63 5.63 0 0 1 5.624 5.626 5.63 5.63 0 0 1-5.624 5.624"/><path fill="#282928" d="m57.188 40.313-1.548-.026a12 12 0 0 0-.735-1.763l1.09-1.09a.936.936 0 0 0 0-1.326l-3.977-3.978a.965.965 0 0 0-1.325 0l-1.113 1.076a12 12 0 0 0-1.767-.725v-1.544a.94.94 0 0 0-.937-.937H41.25a.94.94 0 0 0-.938.938l-.025 1.547c-.597.195-1.183.437-1.763.735l-1.09-1.09a.937.937 0 0 0-1.326 0l-3.978 3.977a.937.937 0 0 0 0 1.325l1.076 1.113a12 12 0 0 0-.725 1.767h-1.544a.94.94 0 0 0-.938.937v5.625c0 .518.42.938.938.938l1.547.025c.195.597.437 1.183.735 1.762l-1.09 1.092a.936.936 0 0 0 0 1.325l3.977 3.978a.937.937 0 0 0 1.325 0l1.113-1.076c.558.283 1.144.526 1.767.725v1.544c0 .518.42.938.937.938h5.625c.518 0 .938-.42.938-.937l.025-1.548a12 12 0 0 0 1.762-.735l1.092 1.09a.936.936 0 0 0 1.325 0l3.978-3.977a.937.937 0 0 0 0-1.325l-1.076-1.113c.283-.558.526-1.144.725-1.767h1.544c.518 0 .938-.42.938-.937V41.25a.94.94 0 0 0-.937-.938m-.938 5.624h-.606c-.812 0-1.53.531-1.788 1.32-.164.506-.37 1-.609 1.472a1.89 1.89 0 0 0 .332 2.198l.428.428-2.652 2.653-.428-.429a1.89 1.89 0 0 0-2.198-.332c-.471.24-.966.446-1.471.61-.79.256-1.32.975-1.32 1.787v.606h-3.75v-.606c0-.812-.531-1.53-1.32-1.788-.506-.164-1-.37-1.472-.609a1.88 1.88 0 0 0-2.198.332l-.428.428-2.653-2.652.429-.428a1.89 1.89 0 0 0 .332-2.198c-.24-.471-.446-.966-.61-1.471a1.89 1.89 0 0 0-1.787-1.32h-.606v-3.75h.606c.812 0 1.53-.531 1.788-1.32.164-.506.37-1 .609-1.472a1.89 1.89 0 0 0-.332-2.198l-.428-.427 2.652-2.652.427.428a1.89 1.89 0 0 0 2.198.332c.471-.24.966-.446 1.472-.61a1.89 1.89 0 0 0 1.32-1.788v-.606h3.75v.606c0 .812.531 1.53 1.32 1.788.506.164 1 .37 1.472.609a1.89 1.89 0 0 0 2.198-.332l.427-.428 2.652 2.652-.428.427a1.89 1.89 0 0 0-.332 2.198c.24.471.446.966.61 1.472.257.79.976 1.32 1.788 1.32h.606zM13.125 25.313v10.313H15V26.25h2.813a.937.937 0 0 0 .7-1.56l-7.5-8.438c-.356-.4-1.045-.4-1.402 0l-7.5 8.438a.937.937 0 0 0 .702 1.56h2.812v14.062H7.5v-15a.94.94 0 0 0-.937-.937H4.9l5.413-6.09 5.412 6.09h-1.662a.94.94 0 0 0-.938.937M32.813 17.813v13.125h1.875V18.751H37.5a.937.937 0 0 0 .7-1.56l-7.5-8.438c-.355-.4-1.045-.4-1.4 0l-7.5 8.438a.939.939 0 0 0 .7 1.56h2.813V37.5h1.875V17.813a.94.94 0 0 0-.938-.937h-1.662L30 10.786l5.413 6.09H33.75a.94.94 0 0 0-.937.937M52.5 11.25v15h1.875V12.189h2.813a.937.937 0 0 0 .7-1.56l-7.5-8.437c-.356-.4-1.045-.4-1.401 0l-7.5 8.437a.94.94 0 0 0 .7 1.56H45v15.938h1.875V11.25a.94.94 0 0 0-.937-.938h-1.662l5.412-6.089 5.412 6.09h-1.662a.94.94 0 0 0-.938.937"/></svg>