<svg xmlns="http://www.w3.org/2000/svg" width="60" height="60" fill="none"><path fill="#282928" d="m57.28 28.26-6.14-6.14c-.841-.842-2.079-.973-3.078-.325-1 .648-1.386 1.831-.96 2.944l.756 1.98h-3.144a11.84 11.84 0 0 0-7.883 3.015 6.86 6.86 0 0 0-3.413-5.655c-3.12-1.802-5.059-5.171-5.059-8.793V10.95a.82.82 0 0 0-1.113-.767l-3.093 1.183c-.575.22-.896-.19-.98-.32-.085-.131-.328-.591.107-1.027l6.14-6.14c.32-.32.84-.32 1.16 0l6.14 6.14c.435.436.193.896.108 1.027s-.406.54-.982.32l-3.092-1.183a.82.82 0 0 0-1.113.767v4.334a6.88 6.88 0 0 0 3.418 5.952 10.1 10.1 0 0 1 4.075 4.407.82.82 0 0 0 1.48-.707 11.74 11.74 0 0 0-4.734-5.12 5.24 5.24 0 0 1-2.599-4.532V12.14l1.98.757c1.112.425 2.295.04 2.943-.96s.518-2.237-.324-3.079l-6.14-6.14c-.96-.959-2.52-.959-3.48 0l-6.14 6.14c-.842.842-.973 2.08-.324 3.08.648.999 1.83 1.384 2.943.959l1.98-.757v3.145c0 1.13.163 2.237.471 3.294a11.77 11.77 0 0 0-7.15 5.17.82.82 0 1 0 1.388.872 10.12 10.12 0 0 1 6.333-4.49 11.9 11.9 0 0 0 1.974 3.037 6.86 6.86 0 0 0-5.656 3.412c-1.802 3.121-5.17 5.06-8.792 5.06H10.95a.82.82 0 0 0-.767 1.113l1.183 3.093c.22.575-.19.896-.32.98-.13.086-.591.328-1.027-.107l-6.14-6.14a.82.82 0 0 1 0-1.16l6.14-6.14c.436-.435.896-.192 1.027-.108.13.085.54.406.32.981l-1.182 3.093a.82.82 0 0 0 .766 1.113h4.334c1.28 0 2.536-.356 3.63-1.03a.82.82 0 1 0-.861-1.397 5.3 5.3 0 0 1-2.77.787h-3.141l.756-1.98c.426-1.112.04-2.295-.96-2.943-.999-.648-2.236-.518-3.079.325L2.72 28.26c-.959.96-.959 2.52 0 3.48l6.14 6.14a2.43 2.43 0 0 0 1.728.734c.461 0 .928-.135 1.351-.41 1-.648 1.385-1.83.96-2.943l-.756-1.98h3.145a11.8 11.8 0 0 0 3.292-.47 11.7 11.7 0 0 0 5.541 7.373 5.24 5.24 0 0 1 2.599 4.532v3.142l-1.98-.756c-1.113-.426-2.295-.04-2.943.96-.649.999-.518 2.236.324 3.079l6.14 6.14c.48.479 1.11.719 1.74.719s1.26-.24 1.74-.72l6.14-6.14c.842-.842.972-2.079.324-3.078-.648-1-1.83-1.386-2.943-.96l-1.98.756v-.52a.82.82 0 1 0-1.64 0v1.712a.82.82 0 0 0 1.113.766l3.093-1.182c.575-.22.896.19.98.32.086.13.328.591-.107 1.026l-6.14 6.14c-.32.32-.84.32-1.16 0l-6.14-6.14c-.435-.435-.193-.895-.108-1.026.085-.13.406-.54.982-.32l3.092 1.182a.82.82 0 0 0 1.113-.766v-4.334a6.88 6.88 0 0 0-3.418-5.952 10.07 10.07 0 0 1-4.81-6.525 11.9 11.9 0 0 0 3.039-1.974 6.86 6.86 0 0 0 3.412 5.656 10.12 10.12 0 0 1 5.04 8.176.82.82 0 1 0 1.638-.1 12 12 0 0 0-.445-2.578 11.71 11.71 0 0 0 7.37-5.54 5.24 5.24 0 0 1 4.531-2.598h3.143l-.757 1.98c-.425 1.112-.04 2.295.96 2.943s2.237.518 3.079-.325l6.14-6.139c.959-.96.959-2.52 0-3.48m-1.16 2.32-6.14 6.14c-.435.435-.895.192-1.026.108-.13-.085-.54-.406-.32-.982l1.182-3.092a.82.82 0 0 0-.766-1.113h-4.334a6.88 6.88 0 0 0-5.952 3.418 10.08 10.08 0 0 1-6.518 4.808 11.72 11.72 0 0 0-4.844-5.367 5.22 5.22 0 0 1-2.598-4.5c0-.913.24-1.81.694-2.595l.001-.003a5.22 5.22 0 0 1 4.5-2.598c.913 0 1.81.24 2.595.693l.003.002a5.22 5.22 0 0 1 2.598 4.5 5.19 5.19 0 0 1-3.163 4.784.82.82 0 1 0 .642 1.51 6.9 6.9 0 0 0 3.247-2.875c1.802-3.12 5.17-5.06 8.793-5.06h4.336a.82.82 0 0 0 .766-1.113l-1.182-3.092c-.22-.575.19-.896.32-.981s.591-.328 1.027.108l6.14 6.14c.319.32.319.84 0 1.16"/></svg>