<svg xmlns="http://www.w3.org/2000/svg" width="50" height="50" fill="none"><path fill="#000" d="M44.963 24.216c.047.542.072 1.093.078 1.64l.327-.412a.781.781 0 0 1 1.224.972l-1.777 2.238a.78.78 0 0 1-.612.295h-.005a.78.78 0 0 1-.613-.304l-1.747-2.26a.781.781 0 0 1 1.237-.956l.405.524a21 21 0 0 0-.074-1.604.781.781 0 0 1 1.557-.134M11.19 9.65a.78.78 0 0 0 .447-.141q.616-.43 1.261-.814l-.23.533a.781.781 0 1 0 1.433.621l1.136-2.622a.78.78 0 0 0-.587-1.08l-2.818-.475a.782.782 0 0 0-.26 1.54l.594.1q-.73.432-1.425.917a.781.781 0 0 0 .449 1.421m28.623 4.827a.78.78 0 1 0 1.278-.898 22 22 0 0 0-2.425-2.887.781.781 0 1 0-1.105 1.104 20.4 20.4 0 0 1 2.252 2.68m-37.089 6.92a.78.78 0 0 0 .957-.552 20 20 0 0 1 1.198-3.29.781.781 0 1 0-1.416-.66 21.7 21.7 0 0 0-1.291 3.546.78.78 0 0 0 .552.957m-.368 7.3a.78.78 0 0 0 .711-.846 20.6 20.6 0 0 1 0-3.503.781.781 0 0 0-1.557-.133 22 22 0 0 0 0 3.77.78.78 0 0 0 .846.711m29.45-20.942a20.3 20.3 0 0 1 3.03 1.753.78.78 0 1 0 .897-1.28 22 22 0 0 0-3.265-1.888.781.781 0 1 0-.662 1.415m10.986 13.09a.782.782 0 0 0 1.51-.404 22 22 0 0 0-1.292-3.546.781.781 0 0 0-1.416.66 20 20 0 0 1 1.198 3.29m-37.22-6.178a.78.78 0 0 0 1.089-.19 20.4 20.4 0 0 1 2.252-2.681.781.781 0 0 0-1.105-1.104 22 22 0 0 0-2.426 2.887.78.78 0 0 0 .19 1.088m29.264 28.024c-.956.67-1.976 1.26-3.03 1.753a.781.781 0 1 0 .662 1.415 22 22 0 0 0 3.265-1.889.781.781 0 1 0-.897-1.28m-6.371 2.97c-1.125.3-2.285.503-3.45.604a.781.781 0 0 0 .136 1.557 22 22 0 0 0 3.716-.651.781.781 0 0 0-.402-1.51m-7.007.604a20 20 0 0 1-1.74-.227l.63-.244a.781.781 0 0 0-.564-1.457l-2.665 1.03a.78.78 0 0 0-.358 1.177l1.639 2.34a.78.78 0 1 0 1.28-.896l-.297-.424q.964.173 1.94.258l.068.003a.781.781 0 0 0 .067-1.56M4.88 34.645a20 20 0 0 1-1.198-3.29.78.78 0 1 0-1.51.405 22 22 0 0 0 1.292 3.546.781.781 0 1 0 1.416-.661m43.583 5.47a.78.78 0 0 1-.677.39H36.818a.781.781 0 0 1-.676-1.171l5.484-9.498a.78.78 0 0 1 1.353 0l5.484 9.498c.14.242.14.54 0 .781m-2.03-1.172-4.13-7.154-4.131 7.154zM15.338 42.28c0 3.05-2.48 5.53-5.53 5.53s-5.53-2.48-5.53-5.53 2.48-5.53 5.53-5.53 5.53 2.48 5.53 5.53m-1.562 0a3.97 3.97 0 0 0-3.968-3.968A3.97 3.97 0 0 0 5.84 42.28a3.97 3.97 0 0 0 3.968 3.968 3.97 3.97 0 0 0 3.968-3.968m3.93-33.692V1.562c0-.432.35-.782.782-.782h9.498c.431 0 .781.35.781.782v7.025c0 .431-.35.78-.781.78h-9.498a.78.78 0 0 1-.782-.78m1.563-.782h7.936V2.344h-7.936zM33.396 33.97l-2.29 2.29a.78.78 0 0 1-.87.162l-1.575-.7c-.776.439-1.6.78-2.457 1.019l-.619 1.607a.78.78 0 0 1-.729.501h-3.239a.78.78 0 0 1-.729-.5l-.619-1.609c-.857-.238-1.68-.58-2.456-1.018l-1.576.7a.78.78 0 0 1-.87-.162l-2.29-2.29a.78.78 0 0 1-.161-.87l.7-1.575c-.44-.776-.78-1.6-1.02-2.457l-1.607-.619a.78.78 0 0 1-.5-.729v-3.239c0-.323.199-.613.5-.729l1.608-.619c.239-.857.58-1.68 1.018-2.456l-.7-1.576a.78.78 0 0 1 .162-.87l2.29-2.29a.78.78 0 0 1 .87-.161l1.576.7c.776-.44 1.6-.78 2.456-1.019l.62-1.608a.78.78 0 0 1 .728-.5h3.24c.322 0 .612.199.728.5l.62 1.608c.856.239 1.68.58 2.455 1.018l1.576-.7a.78.78 0 0 1 .87.162l2.29 2.29a.78.78 0 0 1 .162.87l-.7 1.575c.439.776.78 1.6 1.019 2.457l1.607.62c.302.115.5.405.5.728v3.24c0 .323-.198.612-.5.728l-1.608.62c-.238.856-.58 1.68-1.018 2.456l.7 1.575a.78.78 0 0 1-.162.87m-.456-6.215 1.483-.571v-2.167l-1.483-.57a.78.78 0 0 1-.479-.548 9.4 9.4 0 0 0-1.145-2.763.78.78 0 0 1-.049-.726l.645-1.453-1.532-1.532-1.453.645a.78.78 0 0 1-.727-.048 9.4 9.4 0 0 0-2.761-1.145.78.78 0 0 1-.549-.48l-.57-1.482h-2.167l-.57 1.482a.78.78 0 0 1-.548.48 9.4 9.4 0 0 0-2.762 1.145.78.78 0 0 1-.727.049l-1.453-.646-1.532 1.532.645 1.453a.78.78 0 0 1-.049.727 9.4 9.4 0 0 0-1.145 2.762.78.78 0 0 1-.48.548l-1.481.57v2.167l1.482.57c.24.093.42.298.479.548a9.4 9.4 0 0 0 1.145 2.763c.135.22.154.491.05.727l-.646 1.452 1.532 1.532 1.453-.645a.78.78 0 0 1 .727.048 9.4 9.4 0 0 0 2.761 1.145c.251.06.456.24.549.48l.57 1.482h2.167l.57-1.482a.78.78 0 0 1 .548-.479 9.4 9.4 0 0 0 2.763-1.145.78.78 0 0 1 .727-.049l1.452.645 1.532-1.532-.645-1.453a.78.78 0 0 1 .048-.727 9.4 9.4 0 0 0 1.145-2.761c.06-.25.24-.456.48-.549M29.667 26.1a6.44 6.44 0 0 1-6.43 6.43 6.44 6.44 0 0 1-6.43-6.43 6.44 6.44 0 0 1 6.43-6.43 6.44 6.44 0 0 1 6.43 6.43m-1.563 0a4.873 4.873 0 0 0-4.867-4.868 4.873 4.873 0 0 0-4.868 4.868 4.873 4.873 0 0 0 4.868 4.867 4.873 4.873 0 0 0 4.867-4.867"/></svg>