<svg xmlns="http://www.w3.org/2000/svg" width="60" height="60" fill="none"><path fill="#282928" d="M53.278 16.767h-1.562a6.4 6.4 0 0 0-4.695-5.85C42.037-1.629 27.157-1.846 19.768 2.727c-3.035 1.878-5.285 4.633-6.698 8.19a6.4 6.4 0 0 0-4.695 5.85H6.72c-.99 0-1.794.805-1.794 1.794v6.156c0 .99.805 1.794 1.794 1.794h1.656a6.4 6.4 0 0 0 4.712 5.845c1.278 3.96 3.388 7.848 6.497 10.693.016.712-.019 3.014-.968 5.712-1.515 4.304-4.53 7.539-8.96 9.612-.824.386-.547 1.627.362 1.627h40.053c.91 0 1.186-1.241.363-1.627-4.43-2.074-7.445-5.308-8.96-9.613-.95-2.698-.985-5-.968-5.711 3.102-2.839 5.215-6.723 6.497-10.693 2.617-.709 4.574-3.041 4.712-5.845h1.562c.99 0 1.794-.805 1.794-1.794V18.56c0-.989-.805-1.794-1.794-1.794zm-44.91 8.037c-1.549-.035-1.734.076-1.734-.087.04-6.342-.084-6.242.087-6.242h1.647zM30.046 1.729c7.082 0 12.366 3.17 15.024 8.961H15.022c2.658-5.792 7.942-8.96 15.024-8.96zm16.786 56.564H13.259c4.825-3.263 7.585-8.328 7.993-13.84 5.74 3.85 12.161 3.68 17.586-.018.397 5.436 3.097 10.546 7.994 13.858M23.009 43.535c-3.469-2.138-6.28-5.909-8.048-10.957h10.122a2.753 2.753 0 0 0 2.75-2.75c0-.62.505-1.126 1.127-1.126h2.171c.622 0 1.128.505 1.128 1.127a2.753 2.753 0 0 0 2.75 2.749H45.13c-4.309 12.307-14.215 15.598-22.122 10.957zM50 26.192a4.67 4.67 0 0 1-4.665 4.664H35.01a1.03 1.03 0 0 1-1.027-1.027 2.853 2.853 0 0 0-2.85-2.85H28.96a2.853 2.853 0 0 0-2.85 2.85c0 .566-.46 1.027-1.027 1.027H14.756a4.67 4.67 0 0 1-4.665-4.664v-9.117a4.67 4.67 0 0 1 4.665-4.663h30.58a4.67 4.67 0 0 1 4.666 4.663v9.117zm3.277-1.389h-1.554v-6.328c1.447.034 1.64-.077 1.64.086-.039 6.343.084 6.242-.086 6.242M12.43 21.901a.854.854 0 0 0-.854.853V24.1a.854.854 0 0 0 1.707 0v-1.345a.854.854 0 0 0-.853-.853zm2.832-8.059c-2.136 0-3.686 1.55-3.686 3.685v2.497a.854.854 0 0 0 1.707 0v-2.497c0-.912.519-1.978 1.98-1.978a.854.854 0 1 0 0-1.707z"/><path fill="#282928" d="M19.272 17.4h1.736q.288 0 .36.264l1.784 5.104a.3.3 0 0 1 .008.08q0 .048-.056.104a.16.16 0 0 1-.12.048h-1.48q-.24 0-.312-.2L21 22.272h-1.72l-.192.528q-.072.2-.312.2h-1.48a.2.2 0 0 1-.128-.048q-.048-.056-.048-.104 0-.056.008-.08l1.784-5.104q.072-.264.36-.264m.416 3.312h.904l-.456-1.488zm9.345 2.024a.2.2 0 0 1 .024.104q0 .056-.056.112a.16.16 0 0 1-.12.048h-1.64q-.248 0-.344-.216l-.688-1.528h-.328v1.528q0 .089-.064.152a.2.2 0 0 1-.152.064h-1.568a.2.2 0 0 1-.152-.064.2.2 0 0 1-.064-.152v-5.168q0-.089.064-.152a.2.2 0 0 1 .152-.064h2.368q1.152 0 1.8.52.648.512.648 1.48 0 .96-.864 1.512zm-3.152-3.848v.848h.584a.34.34 0 0 0 .272-.112.46.46 0 0 0 .096-.296.5.5 0 0 0-.096-.304q-.088-.136-.272-.136zm6.786-2.176h1.072q.072 0 .12.056.056.048.056.104a.2.2 0 0 1-.016.088l-2.704 6.472a.35.35 0 0 1-.352.24h-1.048a.18.18 0 0 1-.128-.056.14.14 0 0 1-.048-.104.2.2 0 0 1 .016-.088l2.68-6.472q.104-.24.352-.24m5.59.688h1.487q.072 0 .12.056.056.048.056.096a.3.3 0 0 1-.008.08l-1.504 5.104q-.072.264-.36.264h-1.824q-.288 0-.36-.264l-1.504-5.104a.3.3 0 0 1-.008-.08q0-.048.048-.096a.18.18 0 0 1 .128-.056h1.488q.288 0 .36.264l.76 2.976.76-2.976q.072-.264.36-.264zm7.532 5.336a.2.2 0 0 1 .024.104q0 .056-.056.112a.16.16 0 0 1-.12.048h-1.64q-.248 0-.344-.216l-.688-1.528h-.328v1.528q0 .089-.064.152a.2.2 0 0 1-.152.064h-1.568a.2.2 0 0 1-.152-.064.2.2 0 0 1-.064-.152v-5.168q0-.089.064-.152a.2.2 0 0 1 .152-.064h2.368q1.152 0 1.8.52.648.512.648 1.48 0 .96-.864 1.512zm-3.152-3.848v.848h.584a.34.34 0 0 0 .272-.112.46.46 0 0 0 .096-.296.5.5 0 0 0-.096-.304q-.089-.136-.272-.136z"/></svg>