<svg xmlns="http://www.w3.org/2000/svg" width="60" height="60" fill="none"><path fill="#282928" d="M50.625 37.5h-15a.938.938 0 0 1 0-1.875h15A5.63 5.63 0 0 0 56.25 30a5.63 5.63 0 0 0-5.625-5.625c-.023.004-.324.04-.347.04a.88.88 0 0 1-.791-.35.93.93 0 0 1-.17-.845c.245-.86.37-1.734.37-2.595 0-5.17-4.205-9.375-9.374-9.375a9.3 9.3 0 0 0-4.16.982.935.935 0 0 1-1.296-.516c-1.76-4.763-6.35-7.966-11.42-7.966-1.425 0-2.818.244-4.145.724a.94.94 0 0 1-1.2-.565.94.94 0 0 1 .562-1.201 14 14 0 0 1 4.784-.833c5.516 0 10.54 3.285 12.8 8.27a11.1 11.1 0 0 1 4.075-.77c6.204 0 11.25 5.046 11.25 11.25 0 .636-.057 1.277-.17 1.914 3.777.387 6.732 3.585 6.732 7.461 0 4.136-3.364 7.5-7.5 7.5m-36.563 0H11.25c-5.17 0-9.375-4.206-9.375-9.375a9.335 9.335 0 0 1 7.819-9.216 14 14 0 0 1-.319-2.971c0-2.95.902-5.772 2.612-8.164a.938.938 0 0 1 1.524 1.091 12.1 12.1 0 0 0-2.261 7.072c0 1.187.174 2.37.521 3.52a.934.934 0 0 1-.855 1.206c-4.018.18-7.166 3.457-7.166 7.462 0 4.136 3.364 7.5 7.5 7.5h2.813a.938.938 0 0 1 0 1.875z"/><path fill="#282928" d="M36.563 58.125h-15a4.693 4.693 0 0 1-4.688-4.688v-33.75A4.693 4.693 0 0 1 21.563 15h15a4.693 4.693 0 0 1 4.687 4.688v13.128a.938.938 0 0 1-1.875 0V19.687a2.816 2.816 0 0 0-2.813-2.812h-15a2.816 2.816 0 0 0-2.812 2.813v33.75a2.816 2.816 0 0 0 2.813 2.812h15a2.816 2.816 0 0 0 2.812-2.813V36.564a.938.938 0 0 1 1.875 0v16.874a4.693 4.693 0 0 1-4.688 4.688zM15.59 6.34a.93.93 0 0 1-.73-.343c-.323-.403-.278-.976.127-1.3.01-.008.04-.033.052-.04a.945.945 0 0 1 1.309.178.93.93 0 0 1-.148 1.296.98.98 0 0 1-.61.21z"/><path fill="#282928" d="M30.938 20.625h-3.75a.938.938 0 0 1 0-1.875h3.75a.938.938 0 0 1 0 1.875M29.063 48.75a.94.94 0 0 1-.938-.938v-7.5a4.693 4.693 0 0 1 4.688-4.687h3.75a.938.938 0 0 1 0 1.875h-3.75A2.816 2.816 0 0 0 30 40.313v7.5c0 .517-.42.937-.938.937z"/><path fill="#282928" d="M29.063 48.75a.94.94 0 0 1-.664-.273l-2.812-2.813a.938.938 0 0 1 1.325-1.325l2.15 2.148 2.148-2.148a.938.938 0 0 1 1.325 1.325l-2.812 2.813a.93.93 0 0 1-.66.274zm18.75-3.844c-.518 0-.938-.326-.938-.843v-.188a.938.938 0 0 1 1.875 0c0 .517-.42 1.031-.938 1.031zm0 3.75c-.518 0-.938-.326-.938-.843v-.188a.938.938 0 0 1 1.875 0c0 .517-.42 1.031-.938 1.031zm0 3.75c-.518 0-.938-.326-.938-.843v-.188a.938.938 0 0 1 1.875 0c0 .517-.42 1.031-.938 1.031zm-37.5-7.5c-.518 0-.938-.326-.938-.843v-.188a.938.938 0 0 1 1.875 0c0 .517-.42 1.031-.938 1.031zm0 3.75c-.518 0-.938-.326-.938-.843v-.188a.938.938 0 0 1 1.875 0c0 .517-.42 1.031-.938 1.031zm0 3.75c-.518 0-.938-.326-.938-.843v-.188a.938.938 0 0 1 1.875 0c0 .517-.42 1.031-.938 1.031z"/></svg>