<svg xmlns="http://www.w3.org/2000/svg" width="50" height="50" fill="none"><path fill="#000" d="M25 37.5a6.25 6.25 0 1 1 6.25-6.25A6.257 6.257 0 0 1 25 37.5m0-10.937a4.687 4.687 0 1 0 0 9.374 4.687 4.687 0 0 0 0-9.374M34.375 47.656a.78.78 0 0 1-.781-.781v-4.687c0-.796-3.034-2.344-8.594-2.344s-8.594 1.548-8.594 2.343v4.688a.781.781 0 1 1-1.562 0v-4.687c0-2.565 5.11-3.907 10.156-3.907s10.156 1.342 10.156 3.907v4.687a.78.78 0 0 1-.781.781M38.281 33.594a6.25 6.25 0 1 1 6.25-6.25 6.257 6.257 0 0 1-6.25 6.25m0-10.938a4.688 4.688 0 1 0 0 9.377 4.688 4.688 0 0 0 0-9.377"/><path fill="#000" d="M47.657 43.75a.78.78 0 0 1-.781-.781V38.28c0-.795-3.034-2.343-8.594-2.343-3.203 0-6.172.558-7.734 1.457a.782.782 0 1 1-.782-1.353c1.817-1.042 5-1.667 8.516-1.667 5.047 0 10.156 1.341 10.156 3.906v4.688a.78.78 0 0 1-.781.781M11.719 33.594a6.25 6.25 0 1 1 6.25-6.25 6.257 6.257 0 0 1-6.25 6.25m0-10.938a4.688 4.688 0 1 0 0 9.376 4.688 4.688 0 0 0 0-9.376M2.344 43.75a.78.78 0 0 1-.781-.781V38.28c0-2.565 5.109-3.906 10.156-3.906 3.515 0 6.699.625 8.51 1.667a.78.78 0 0 1 .09 1.3.78.78 0 0 1-.87.053c-1.558-.899-4.523-1.458-7.73-1.458-5.56 0-8.594 1.549-8.594 2.344v4.688a.78.78 0 0 1-.781.781M25 18.75a.782.782 0 0 1-.552-1.334L36.222 5.642a.781.781 0 0 1 1.104 1.105L25.552 18.52a.78.78 0 0 1-.552.229"/><path fill="#000" d="M35.937 11.719a.8.8 0 0 1-.19-.024l-3.124-.781a.782.782 0 0 1-.363-1.31l3.906-3.906a.78.78 0 0 1 .742-.206l3.125.781a.781.781 0 0 1 .363 1.31L36.49 11.49a.78.78 0 0 1-.553.229m-1.596-1.986 1.356.34 2.618-2.618-1.357-.34z"/><path fill="#000" d="M32.814 10.937q-.105 0-.209-.028a.78.78 0 0 1-.546-.563l-.782-3.125a.78.78 0 0 1 .206-.742l3.906-3.906a.78.78 0 0 1 1.31.362l.781 3.125a.78.78 0 0 1-.205.742l-3.906 3.906a.78.78 0 0 1-.555.23m.084-3.666.34 1.357 2.617-2.618-.34-1.357zM11.809 20.313a.78.78 0 0 1-.775-.691q-.096-.824-.097-1.653A14.07 14.07 0 0 1 30.792 5.15a.781.781 0 1 1-.644 1.424 12.506 12.506 0 0 0-17.562 12.867.782.782 0 0 1-.776.872M38.19 20.313a.781.781 0 0 1-.777-.872q.086-.734.086-1.472a12.4 12.4 0 0 0-1.105-5.147.781.781 0 1 1 1.424-.644 14 14 0 0 1 1.244 5.791q0 .829-.096 1.653a.78.78 0 0 1-.776.69M25 22.656a4.688 4.688 0 1 1 0-9.375 4.688 4.688 0 0 1 0 9.375m0-7.812a3.125 3.125 0 1 0 0 6.25 3.125 3.125 0 0 0 0-6.25"/><path fill="#000" d="M29.937 25.782a.781.781 0 0 1-.451-1.42 7.813 7.813 0 1 0-8.972 0 .783.783 0 0 1-.316 1.408.78.78 0 0 1-.584-.13 9.375 9.375 0 1 1 10.772 0 .8.8 0 0 1-.45.142"/></svg>