<svg xmlns="http://www.w3.org/2000/svg" width="50" height="50" fill="none"><path fill="#000" d="M26.049 35.24c.117.962-.14 1.839-.745 2.537-.714.826-1.904 1.378-3.258 1.53v1.037a.781.781 0 1 1-1.562 0v-1.048c-2.001-.269-3.558-1.53-4.007-3.334a.781.781 0 0 1 1.516-.378c.402 1.613 1.977 2.19 3.268 2.203h.02l.13-.001c1.128-.027 2.193-.432 2.711-1.031.317-.366.44-.8.376-1.326-.151-1.242-1.184-1.954-3.348-2.31-3.416-.56-4.211-2.29-4.277-3.642-.09-1.875 1.222-3.445 3.267-3.909q.169-.038.344-.065v-1.06a.781.781 0 0 1 1.562 0v1.053c1.467.212 2.916 1.058 3.638 2.779a.781.781 0 1 1-1.44.605c-.562-1.337-1.762-1.88-2.921-1.881a3.766 3.766 0 0 0-.837.093c-1.035.234-2.117.964-2.052 2.309.02.421.083 1.703 2.97 2.177 1.06.174 4.286.703 4.645 3.663m18.853 4.907-7.31 8.609a1.3 1.3 0 0 1-1 .463c-.39 0-.746-.165-1-.463l-2.924-3.445c-3.013 2.531-6.897 3.908-11.054 3.908l-.305-.003-.299.003c-6.024 0-11.494-2.944-14.333-7.734-2.575-4.346-2.52-9.531.155-14.226 1.673-2.939 4.237-6.266 8.018-10.403a3.11 3.11 0 0 1-1.823-2.825 3.106 3.106 0 0 1 3.029-3.102l-2.47-2.47a3.17 3.17 0 0 1 0-4.479 3.19 3.19 0 0 1 3.952-.424.41.41 0 0 0 .412.036.41.41 0 0 0 .265-.316A3.19 3.19 0 0 1 21.309.78a3.19 3.19 0 0 1 3.095 2.494.41.41 0 0 0 .265.317c.147.061.278.05.411-.036a3.19 3.19 0 0 1 3.953.424 3.17 3.17 0 0 1 0 4.48l-2.47 2.47a3.106 3.106 0 0 1 3.029 3.1 3.11 3.11 0 0 1-1.823 2.826 95 95 0 0 1 4.146 4.82 1.845 1.845 0 0 1 1.834-1.67h5.687c1.016 0 1.843.827 1.843 1.843v16.137h2.623a1.3 1.3 0 0 1 1.19.761 1.3 1.3 0 0 1-.19 1.4M14.691 7.355l3.573 3.572h6.091l3.573-3.572a1.607 1.607 0 0 0 0-2.27 1.616 1.616 0 0 0-2.004-.214c-.561.36-1.237.42-1.853.165a1.98 1.98 0 0 1-1.193-1.427 1.616 1.616 0 0 0-1.569-1.265c-.748 0-1.408.532-1.568 1.265a1.98 1.98 0 0 1-1.194 1.427 1.98 1.98 0 0 1-1.853-.165 1.616 1.616 0 0 0-2.003.214 1.607 1.607 0 0 0 0 2.27m-.102 6.676c0 .85.691 1.54 1.541 1.54h10.359c.85 0 1.54-.69 1.54-1.54s-.69-1.541-1.54-1.541H16.13c-.85 0-1.54.691-1.54 1.54m17.068 30.09-3.374-3.974a1.3 1.3 0 0 1-.19-1.4 1.3 1.3 0 0 1 1.19-.761h2.624V24.224c-1.552-2.087-3.521-4.412-6.008-7.09h-9.18c-4.097 4.414-6.812 7.883-8.53 10.898-2.423 4.255-2.483 8.75-.168 12.657 2.602 4.39 7.69 7.058 13.275 6.965h.026c3.896.067 7.534-1.184 10.335-3.534m11.704-4.573h-2.863a.78.78 0 0 1-.782-.78V21.848a.284.284 0 0 0-.28-.28h-5.687a.284.284 0 0 0-.28.28v16.918c0 .431-.35.781-.781.781h-2.864l6.769 7.972z"/></svg>