<svg xmlns="http://www.w3.org/2000/svg" width="50" height="50" fill="none"><path fill="#000" d="M25.002 21.934c.633-.097 11.421-5.044 11.715-11.525.29-6.086-7.204-9.536-11.715-5.609-4.462-3.886-11.856-.543-11.719 5.415.075 6.58 11.088 11.619 11.719 11.719M20.41 4.687a6.1 6.1 0 0 1 4.104 1.723c.58.482 1.167-.158 1.608-.505a5.57 5.57 0 0 1 5.905-.663 5.37 5.37 0 0 1 3.13 4.973c0 4.919-8.398 9.227-10.156 10.074-1.758-.848-10.156-5.155-10.156-10.074a5.527 5.527 0 0 1 5.564-5.528M32.093 37.85l-3.943-1.315a5.877 5.877 0 1 0-6.324 0l-3.943 1.314a5.055 5.055 0 0 0-3.461 4.803v2.215a2.006 2.006 0 0 0 2.004 2.004H33.55a2.007 2.007 0 0 0 2.004-2.004v-2.215a5.06 5.06 0 0 0-3.46-4.803m-11.42-6.262a4.316 4.316 0 0 1 7.366-3.05 4.315 4.315 0 1 1-7.366 3.05m13.319 13.279a.443.443 0 0 1-.442.441H16.426a.44.44 0 0 1-.442-.441v-2.215a3.49 3.49 0 0 1 2.393-3.32l4.635-1.546a6.3 6.3 0 0 1 3.951 0l4.636 1.546a3.495 3.495 0 0 1 2.393 3.32zM43.973 37.404l-2.896-.963a4.894 4.894 0 1 0-5.775-.001.781.781 0 1 0 .435 1.502 7.4 7.4 0 0 1 2.43-.553c1.12-.09 4.215 1.192 5.31 1.496a2.69 2.69 0 0 1 1.835 2.549v1.781a.21.21 0 0 1-.203.21H37.9a.781.781 0 1 0 0 1.563h7.21a1.77 1.77 0 0 0 1.766-1.773v-1.781a4.25 4.25 0 0 0-2.902-4.03m-5.799-1.577a3.334 3.334 0 0 1 .016-6.669 3.334 3.334 0 0 1-.016 6.669M14.735 36.45a5.14 5.14 0 0 0 1.972-3.957 4.895 4.895 0 1 0-7.785 3.948l-2.898.963a4.25 4.25 0 0 0-2.899 4.03v1.78a1.77 1.77 0 0 0 1.765 1.774h7.188a.781.781 0 0 0 0-1.562H4.89a.21.21 0 0 1-.202-.211v-1.781a2.69 2.69 0 0 1 1.832-2.548l3.735-1.242a4.87 4.87 0 0 1 3.111.001l.883.289a.781.781 0 0 0 .486-1.485m-2.915-.623a3.334 3.334 0 0 1-.01-6.669 3.334 3.334 0 0 1 .01 6.67M4.75 31.684a.783.783 0 0 0 .75-1.003 20 20 0 0 1-.812-5.685 20.28 20.28 0 0 1 6.815-15.165.782.782 0 1 0-1.037-1.17 21.84 21.84 0 0 0-7.341 16.335 21.6 21.6 0 0 0 .876 6.128.78.78 0 0 0 .749.56M45.314 24.996a20 20 0 0 1-.812 5.685.781.781 0 0 0 1.499.443c.585-1.99.88-4.054.876-6.128a21.85 21.85 0 0 0-7.341-16.334.782.782 0 1 0-1.037 1.169 20.28 20.28 0 0 1 6.815 15.165"/></svg>