<svg xmlns="http://www.w3.org/2000/svg" width="60" height="60" fill="none"><path fill="#282928" d="M54.92 51.164h-.718V22.282c0-1.845-1.5-3.336-3.337-3.336H40.102c0-1.7-.282-3.373-.846-4.937-1.754-4.954-4.727-9.09-8.818-12.3a.88.88 0 0 0-1.136-.027c-.01.01-.027.018-.037.027C25.184 4.92 22.22 9.046 20.447 14a14.7 14.7 0 0 0-.836 4.955H9.147a3.34 3.34 0 0 0-3.336 3.336v28.882h-.727a.873.873 0 0 0-.873.873v3.3a3.176 3.176 0 0 0 3.173 3.172H52.62a3.176 3.176 0 0 0 3.173-3.172v-3.3a.875.875 0 0 0-.873-.882M27.056 47.69a.87.87 0 0 0 .473-.773V43.89h5.127v2.718c0 .3.155.573.4.737a.86.86 0 0 0 .837.054 2.5 2.5 0 0 1 1-.218c1.273 0 2.336.955 2.463 2.227.028.3.21.555.482.691a.9.9 0 0 0 .846-.036 2.5 2.5 0 0 1 1.272-.346c.991 0 1.855.591 2.246 1.446H17.529a2.46 2.46 0 0 1 2.246-1.446c.427 0 .845.11 1.218.319a.89.89 0 0 0 .827.009.86.86 0 0 0 .464-.673 2.47 2.47 0 0 1 2.463-2.182c.51 0 .991.155 1.4.446a.89.89 0 0 0 .91.054zm25.4-25.409v28.882h-8.409a4.22 4.22 0 0 0-4.09-3.2c-.382 0-.755.054-1.119.154a4.21 4.21 0 0 0-3.936-2.681q-.245 0-.491.027v-1.582h.355c1.063 0 1.981-.8 2.136-1.845l.4-2.746c1.89 1.4 3.554 3.246 4.954 5.5a1.31 1.31 0 0 0 1.337.6c.536-.09.963-.5 1.072-1.027.582-2.691.491-5.6-.281-8.655-.01-.036-.019-.063-.028-.1-1.2-3.163-3.045-5.536-5.472-7.1l1.072-7.3c.028-.172.046-.345.064-.518h10.855c.863 0 1.581.718 1.581 1.591m-13.863 8.164c1.772 1.345 3.154 3.263 4.109 5.745.59 2.373.736 4.646.436 6.773-1.582-2.31-3.445-4.191-5.554-5.6zM29.856 3.482A24.5 24.5 0 0 1 34.63 8.71a32.2 32.2 0 0 0-9.536-.009c.009-.009-.01-.009-.01-.009a25.4 25.4 0 0 1 4.773-5.209zm-7.754 11.1a27 27 0 0 1 1.764-3.89c4.027-.792 8.045-.792 11.972 0a25.7 25.7 0 0 1 1.764 3.9c.718 2 .927 4.2.609 6.363l-3.055 20.827a.42.42 0 0 1-.409.355h-9.782a.404.404 0 0 1-.409-.355l-.6-4.109c0-.018 0-.027-.009-.046l-1.281-8.781-1.155-7.882a13.25 13.25 0 0 1 .59-6.382zm.036 22.782c-2.109 1.409-3.982 3.282-5.554 5.6-.3-2.127-.155-4.4.436-6.773.955-2.49 2.336-4.409 4.1-5.745zM7.556 22.282c0-.882.71-1.59 1.591-1.59H19.72c.018.172.036.345.064.517l1.063 7.3c-2.418 1.546-4.263 3.928-5.472 7.1-.01.028-.019.064-.028.1-.772 3.046-.863 5.964-.281 8.655a1.32 1.32 0 0 0 1.3 1.045c.445 0 .863-.227 1.109-.618 1.4-2.254 3.063-4.09 4.945-5.5l.4 2.737a2.17 2.17 0 0 0 2.145 1.845h.819v1.682a4.4 4.4 0 0 0-1.037-.127 4.215 4.215 0 0 0-3.927 2.663 4.4 4.4 0 0 0-1.045-.127 4.21 4.21 0 0 0-4.091 3.2H7.556zm46.491 33.064c0 .782-.636 1.418-1.427 1.418H7.384a1.42 1.42 0 0 1-1.419-1.418v-2.428h48.082z"/><path fill="#282928" d="M34.428 53.965h-8.864a.873.873 0 0 0 0 1.745h8.864a.873.873 0 0 0 0-1.745M29.737 24.71a5.52 5.52 0 0 0 5.518-5.518 5.52 5.52 0 0 0-5.518-5.518 5.52 5.52 0 0 0-5.518 5.518c-.01 3.036 2.473 5.518 5.518 5.518m0-9.3a3.775 3.775 0 0 1 3.773 3.773 3.775 3.775 0 0 1-3.773 3.773 3.775 3.775 0 0 1-3.773-3.773 3.775 3.775 0 0 1 3.773-3.773m12.128-8.573.336-.336v6.063a.873.873 0 0 0 1.745 0V6.51l.337.336c.172.173.39.255.618.255a.86.86 0 0 0 .618-.255.867.867 0 0 0 0-1.236l-1.827-1.827a.867.867 0 0 0-1.236 0L40.627 5.61a.867.867 0 0 0 0 1.236.875.875 0 0 0 1.237-.009zM15.71 9.682l.337-.336v6.063a.873.873 0 0 0 1.745 0V9.346l.336.336a.86.86 0 0 0 .619.255.86.86 0 0 0 .618-.255.867.867 0 0 0 0-1.236l-1.827-1.827a.9.9 0 0 0-1.237 0l-1.827 1.827a.867.867 0 0 0 0 1.236.884.884 0 0 0 1.236 0"/></svg>