<svg xmlns="http://www.w3.org/2000/svg" width="50" height="50" fill="none"><path fill="#000" d="M45.493 36.719h-.96V19.53a.78.78 0 1 0-1.563 0V36.72h-7.859a7.04 7.04 0 0 0-6.985-6.25h-6.25a7.04 7.04 0 0 0-6.985 6.25H7.032V15.625a.78.78 0 0 1 .782-.781H30.47a.781.781 0 0 0 0-1.563H7.814a2.346 2.346 0 0 0-2.344 2.344v21.094h-.961a2.31 2.31 0 0 0-1.894.971 2.35 2.35 0 0 0-.325 2.11l.519 1.57a2.35 2.35 0 0 0 2.223 1.599H44.97a2.36 2.36 0 0 0 2.227-1.607l.515-1.561a2.35 2.35 0 0 0-1.153-2.828 2.3 2.3 0 0 0-1.066-.254M21.876 32.03h6.25a5.48 5.48 0 0 1 5.413 4.688h-4.632a.78.78 0 0 0-.78.781v.781h-6.25V37.5a.78.78 0 0 0-.782-.781h-4.632a5.48 5.48 0 0 1 5.413-4.688m24.353 7.277v.002l-.514 1.555a.79.79 0 0 1-.745.541H5.032a.79.79 0 0 1-.742-.534l-.516-1.564a.77.77 0 0 1 .108-.704.77.77 0 0 1 .627-.323h15.805v.782a.78.78 0 0 0 .781.78h7.813a.78.78 0 0 0 .78-.78v-.782h15.805a.77.77 0 0 1 .627.323.77.77 0 0 1 .109.704"/><path fill="#000" d="M25 16.406a6.25 6.25 0 1 0 6.25 6.25 6.257 6.257 0 0 0-6.25-6.25m0 10.938a4.688 4.688 0 1 1 0-9.376 4.688 4.688 0 0 1 0 9.376M46.094 7.031H34.375a2.346 2.346 0 0 0-2.344 2.344v10.156a.782.782 0 0 0 1.183.67l3.529-2.115a.8.8 0 0 1 .405-.117h8.946a2.347 2.347 0 0 0 2.343-2.344v-6.25a2.346 2.346 0 0 0-2.343-2.344m.781 8.594a.78.78 0 0 1-.781.781h-8.946a2.37 2.37 0 0 0-1.206.338l-2.348 1.408V9.375a.78.78 0 0 1 .781-.781h11.719a.78.78 0 0 1 .781.781z"/><path fill="#000" d="M40.625 11.719h-.781a.781.781 0 1 0 0 1.562h.781a.781.781 0 1 0 0-1.562M36.719 11.719h-.782a.781.781 0 1 0 0 1.562h.782a.781.781 0 1 0 0-1.562M44.531 11.719h-.781a.781.781 0 1 0 0 1.562h.781a.781.781 0 1 0 0-1.562"/></svg>