<svg xmlns="http://www.w3.org/2000/svg" width="60" height="60" fill="none"><g clip-path="url(#a)"><path fill="#282928" d="M59.063 30c0 7.763-3.024 15.061-8.513 20.55S37.763 59.063 30 59.063a29.1 29.1 0 0 1-17.164-5.61l.605 2.122a.938.938 0 0 1-1.803.515l-1.423-4.99a.937.937 0 0 1 .868-1.194l5.185-.187a.937.937 0 1 1 .067 1.874l-2.725.098A27.22 27.22 0 0 0 30 57.187c14.991 0 27.188-12.196 27.188-27.187 0-4.808-1.273-9.533-3.68-13.664a.937.937 0 1 1 1.62-.944A29.04 29.04 0 0 1 59.062 30zm-56.25 0C2.813 15.009 15.008 2.812 30 2.812A27.22 27.22 0 0 1 46.388 8.31l-2.723.098a.938.938 0 0 0 .067 1.873l5.185-.186a.937.937 0 0 0 .868-1.194l-1.423-4.99a.938.938 0 0 0-1.803.515l.606 2.124A29.1 29.1 0 0 0 30 .937c-7.763 0-15.061 3.024-20.55 8.513S.938 22.237.938 30c0 5.14 1.36 10.192 3.934 14.61a.937.937 0 1 0 1.62-.944A27.17 27.17 0 0 1 2.812 30zm32.33.168a.937.937 0 0 1 .937.938 6.087 6.087 0 0 1-6.08 6.08 6.087 6.087 0 0 1-6.08-6.08c0-.518.42-.938.937-.938zM34.1 32.043h-8.2a4.21 4.21 0 0 0 4.1 3.268 4.21 4.21 0 0 0 4.1-3.268m-23.912 2.574a.94.94 0 0 1-.6-.875v-2.636c0-.518.419-.938.937-.938h10.282c.518 0 .937.42.937.938 0 4.552 3.704 8.255 8.256 8.255s8.256-3.703 8.256-8.255c0-.518.42-.938.937-.938h10.283c.517 0 .937.42.937.938v2.635a.94.94 0 0 1-.6.875l-2.775 1.068c-.397 1.48-.985 2.9-1.754 4.23l1.208 2.719a.94.94 0 0 1-.194 1.043l-3.727 3.728a.94.94 0 0 1-1.044.194L38.81 46.39a17.5 17.5 0 0 1-4.23 1.754l-1.068 2.774a.94.94 0 0 1-.875.6h-5.272a.94.94 0 0 1-.875-.6l-1.067-2.774c-1.48-.397-2.9-.986-4.23-1.754l-2.719 1.208a.94.94 0 0 1-1.043-.194l-3.728-3.728a.94.94 0 0 1-.194-1.043l1.207-2.718a17.5 17.5 0 0 1-1.754-4.23l-2.773-1.069zm1.274-1.52 2.626 1.012a.94.94 0 0 1 .575.657 15.7 15.7 0 0 0 1.904 4.594c.163.263.184.59.059.872l-1.143 2.574 2.817 2.817 2.575-1.143a.94.94 0 0 1 .872.058 15.7 15.7 0 0 0 4.592 1.904.94.94 0 0 1 .658.575l1.011 2.627h3.984l1.01-2.626a.94.94 0 0 1 .659-.575 15.7 15.7 0 0 0 4.593-1.905.94.94 0 0 1 .872-.058l2.574 1.143 2.817-2.817-1.144-2.575a.94.94 0 0 1 .059-.872 15.7 15.7 0 0 0 1.904-4.592.94.94 0 0 1 .575-.658l2.627-1.011v-1.055h-8.45c-.475 5.149-4.818 9.193-10.088 9.193s-9.613-4.045-10.088-9.193h-8.45zm38.945-8.106a.937.937 0 0 1-.932 1.037H38.656q.052.29.085.586a.937.937 0 0 1-.932 1.037H22.191a.937.937 0 0 1-.932-1.037q.033-.297.085-.586H10.525a.937.937 0 0 1-.932-1.037 7.54 7.54 0 0 1 4.494-6.121 4.27 4.27 0 0 1-1.264-3.036 4.29 4.29 0 0 1 4.285-4.285 4.29 4.29 0 0 1 4.286 4.285c0 1.19-.488 2.267-1.273 3.044a7.63 7.63 0 0 1 3.326 2.812 8.8 8.8 0 0 1 3.286-2.297 4.9 4.9 0 0 1-1.641-3.66A4.914 4.914 0 0 1 30 10.826a4.914 4.914 0 0 1 4.909 4.909c0 1.452-.635 2.76-1.642 3.659a8.8 8.8 0 0 1 3.286 2.297 7.63 7.63 0 0 1 3.326-2.812 4.27 4.27 0 0 1-1.272-3.044 4.29 4.29 0 0 1 4.285-4.285 4.29 4.29 0 0 1 4.285 4.285c0 1.185-.483 2.26-1.264 3.036a7.54 7.54 0 0 1 4.495 6.12zm-7.516-6.747h.002a2.413 2.413 0 0 0 2.41-2.41 2.413 2.413 0 0 0-2.411-2.41 2.413 2.413 0 0 0-2.41 2.41c0 1.329 1.08 2.41 2.41 2.41zM30 18.767a3.037 3.037 0 0 0 3.032-3.033A3.037 3.037 0 0 0 30 12.7a3.037 3.037 0 0 0-3.034 3.034A3.037 3.037 0 0 0 30 18.767m-12.892-.523h.002a2.413 2.413 0 0 0 2.41-2.41 2.413 2.413 0 0 0-2.41-2.41 2.413 2.413 0 0 0-2.411 2.41c0 1.329 1.08 2.41 2.41 2.41zm4.783 5.91q.165-.394.365-.766a5.72 5.72 0 0 0-5.146-3.269h-.002a5.67 5.67 0 0 0-5.441 4.034H21.89zm14.796 1.622A6.9 6.9 0 0 0 30 20.642h-.002a6.9 6.9 0 0 0-6.685 5.134h13.372zm11.648-1.623a5.67 5.67 0 0 0-5.44-4.034h-.003a5.72 5.72 0 0 0-5.146 3.27q.2.37.365.764z"/></g><defs><clipPath id="a"><path fill="#fff" d="M0 0h60v60H0z"/></clipPath></defs></svg>