<svg xmlns="http://www.w3.org/2000/svg" width="50" height="50" fill="none"><path fill="#000" d="M2.047 47.5a1 1 0 0 0 1 1h43.91a1 1 0 0 0 1-1v-33a1 1 0 0 0-1-1h-9.955v-11a1 1 0 0 0-1-1h-22a1 1 0 0 0-1 1v17.03H3.047a1 1 0 0 0-1 1zm18.71-1v-13h8.5v13zm25.2-31v31h-8.955v-31zm-30.955-12h20v43h-3.755v-14a1 1 0 0 0-1-1h-10.5a1 1 0 0 0-1 1v14h-3.745zM4.047 21.53h8.955V46.5H4.047z"/><path fill="#000" d="M19.047 9.225h2.785a1 1 0 0 0 0-2h-2.785a1 1 0 1 0 0 2M28.172 9.225h2.785a1 1 0 0 0 0-2h-2.785a1 1 0 1 0 0 2M19.047 15.225h2.785a1 1 0 0 0 0-2h-2.785a1 1 0 0 0 0 2M28.172 15.225h2.785a1 1 0 0 0 0-2h-2.785a1 1 0 0 0 0 2M19.047 21.225h2.785a1 1 0 0 0 0-2h-2.785a1 1 0 0 0 0 2M28.172 21.225h2.785a1 1 0 0 0 0-2h-2.785a1 1 0 0 0 0 2M19.047 27.225h2.785a1 1 0 0 0 0-2h-2.785a1 1 0 0 0 0 2M28.172 27.225h2.785a1 1 0 0 0 0-2h-2.785a1 1 0 0 0 0 2M9.535 24.35H7.5a1 1 0 0 0 0 2h2.03a1 1 0 0 0 0-2zM9.535 30.13H7.5a1 1 0 1 0 0 2h2.03a1 1 0 0 0 0-2zM9.535 35.905H7.5a1 1 0 1 0 0 2h2.03a1 1 0 0 0 0-2zM9.535 41.68H7.5a1 1 0 1 0 0 2h2.03a1 1 0 0 0 0-2zM40.465 26.35H42.5a1 1 0 0 0 0-2h-2.035a1 1 0 0 0 0 2M40.465 32.13H42.5a1 1 0 0 0 0-2h-2.035a1 1 0 1 0 0 2M40.465 20.575H42.5a1 1 0 0 0 0-2h-2.035a1 1 0 0 0 0 2M40.465 37.905H42.5a1 1 0 0 0 0-2h-2.035a1 1 0 1 0 0 2M40.465 43.68H42.5a1 1 0 0 0 0-2h-2.035a1 1 0 1 0 0 2"/></svg>