<svg xmlns="http://www.w3.org/2000/svg" width="50" height="50" fill="none"><path fill="#000" d="M27.35 25.3c-.1-.25-.4-.45-.7-.45s-.55.15-.65.45l-3.4 7.85c-.15.4 0 .8.4 1 .4.15.8 0 1-.4l.75-1.7h3.9l.75 1.7c.1.3.4.45.7.45.1 0 .2 0 .3-.05.4-.15.55-.6.4-1zm-2 5.2 1.3-3.05L28 30.5zM33.852 24.85c-.4 0-.75.35-.75.75v7.85c0 .4.35.75.75.75s.75-.35.75-.75V25.6c0-.45-.35-.75-.75-.75M6.402 14.5h2.1c.4 0 .75-.35.75-.75s-.3-.75-.75-.75h-2.15c-.4 0-.75.35-.75.75s.35.75.8.75M8.1 27.05c0-.4-.35-.75-.75-.75H3.3c-.4 0-.75.35-.75.75s.35.75.75.75h4.05c.45 0 .75-.35.75-.75M6.752 39.6h-2.15c-.4 0-.75.35-.75.75s.35.75.75.75h2.15c.4 0 .75-.35.75-.75s-.35-.75-.75-.75"/><path fill="#000" d="m40.05 14.95 1.3-3.35.75.3c.35.15.7.2 1 .2 1.15 0 2.2-.7 2.65-1.8.25-.7.25-1.5-.05-2.15-.3-.7-.85-1.25-1.55-1.5L34.05 2.7c-1.45-.55-3.1.15-3.7 1.65C29.8 5.8 30.5 7.45 32 8l.75.3-1.3 3.35c-3.05-.35-6.2.1-9.1 1.35h-9.4c-.4 0-.75.35-.75.75s.35.75.75.75h6.6c-1.25.85-2.4 1.8-3.4 2.95H10.3c-.4 0-.75.35-.75.75s.35.75.75.75h4.65c-.65.9-1.25 1.9-1.75 2.95H4.25c-.4 0-.75.35-.75.75s.35.75.75.75h8.3c-.85 2.4-1.2 4.9-1.05 7.35H6.9c-.4 0-.75.35-.75.75s.35.75.75.75h4.75c.15 1 .4 1.95.7 2.95h-3c-.4 0-.75.35-.75.75s.35.75.75.75h3.55c0 .05.05.1.05.15.45 1 .95 1.9 1.55 2.8h-3.4c-.4 0-.75.35-.75.75s.35.75.75.75h4.5c1.95 2.3 4.4 4.1 7.3 5.2 2.1.8 4.3 1.2 6.5 1.2 2.45 0 4.95-.5 7.3-1.55 4.4-1.95 7.75-5.5 9.5-9.95 3.05-7.85.25-16.4-6.15-21.1m-8.3-10.1c.25-.7 1.05-1.05 1.75-.75L43.55 8c.35.15.6.4.75.7.15.35.15.7.05 1.05-.25.7-1.05 1.05-1.75.75L32.5 6.6c-.65-.3-1-1.05-.75-1.75M34.1 8.8l5.8 2.25-1.2 3.05c-.9-.55-1.8-1-2.8-1.4s-2-.65-3-.85zm10.75 26.65c-3.3 8.5-12.85 12.7-21.35 9.45-4.1-1.6-7.35-4.7-9.15-8.7-1.8-4.05-1.9-8.5-.3-12.6.7-1.8 1.7-3.45 2.9-4.85l.05-.05c1.55-1.8 3.5-3.25 5.75-4.25C24.9 13.5 27.2 13 29.45 13c2 0 4 .35 5.95 1.1 8.5 3.3 12.7 12.85 9.45 21.35"/><path fill="#000" d="M34.45 16.65c-7.1-2.75-15.1.8-17.85 7.9-1.35 3.45-1.25 7.2.25 10.55s4.2 5.95 7.65 7.3c1.6.6 3.3.95 4.95.95 1.9 0 3.8-.4 5.6-1.2 3.35-1.5 5.95-4.2 7.3-7.65 2.7-7.1-.85-15.1-7.9-17.85m.65 23.75-.55-1.3c-.15-.4-.6-.55-1-.4s-.55.6-.4 1l.55 1.3c-2.6.95-5.35 1.05-8 .2l.95-2.5c.15-.4-.05-.8-.45-.95s-.8.05-.95.45l-.95 2.5a12.64 12.64 0 0 1-5.8-5.5l1.3-.55c.4-.15.55-.6.4-1s-.6-.55-1-.4l-1.3.55c-.95-2.5-1.05-5.3-.2-8l2.5.95c.1.05.2.05.25.05.3 0 .6-.2.7-.5.15-.4-.05-.8-.45-.95l-2.5-.95a12.64 12.64 0 0 1 5.5-5.8l.55 1.3c.1.3.4.45.7.45.1 0 .2 0 .3-.05.4-.15.55-.6.4-1L25.2 18c1.35-.5 2.8-.8 4.3-.8 1.25 0 2.5.2 3.7.6l-.95 2.5c-.15.4.05.8.45.95.1.05.2.05.25.05.3 0 .6-.2.7-.5l.95-2.5a12.64 12.64 0 0 1 5.8 5.5l-1.3.55c-.4.15-.55.6-.4 1 .1.3.4.45.7.45.1 0 .2 0 .3-.05l1.3-.55c.95 2.5 1.05 5.3.2 8l-2.5-.95c-.4-.15-.8.05-.95.45s.05.8.45.95l2.5.95a12.36 12.36 0 0 1-5.6 5.8"/></svg>