<svg xmlns="http://www.w3.org/2000/svg" width="50" height="50" fill="none"><path fill="#000" d="M46.562 30.803h-1.716v-2.096a5.6 5.6 0 0 0-2.965-4.934c.033-.476.05-.958.05-1.434 0-11.157-9.076-20.234-20.233-20.234S1.465 11.182 1.465 22.34s9.077 20.233 20.233 20.233c2.894 0 5.673-.595 8.276-1.766v5.115c0 1.088.885 1.974 1.973 1.974h14.615a1.976 1.976 0 0 0 1.973-1.974V32.776a1.976 1.976 0 0 0-1.973-1.973m-2.888-2.096v2.096h-.989v-2.096a3.435 3.435 0 0 0-3.43-3.43 3.435 3.435 0 0 0-3.43 3.43v2.096h-.99v-2.096a4.425 4.425 0 0 1 4.42-4.42 4.424 4.424 0 0 1 4.419 4.42m-2.16 2.096h-4.518v-2.096a2.26 2.26 0 0 1 2.259-2.259 2.26 2.26 0 0 1 2.259 2.259zm-11.54 1.973v2.453a15.25 15.25 0 0 1-8.275 2.43c-8.447 0-15.32-6.873-15.32-15.32s6.873-15.32 15.32-15.32 15.319 6.873 15.319 15.32q0 .636-.053 1.268a5.6 5.6 0 0 0-3.302 5.1v2.096h-1.716a1.975 1.975 0 0 0-1.972 1.973M21.699 41.4c-10.51 0-19.061-8.55-19.061-19.061s8.55-19.063 19.061-19.063S40.76 11.827 40.76 22.338q0 .488-.026.976a5.6 5.6 0 0 0-2.568-.092q.024-.443.024-.884c0-9.093-7.398-16.491-16.492-16.491-9.093 0-16.491 7.397-16.491 16.49 0 9.095 7.398 16.492 16.491 16.492 2.93 0 5.769-.767 8.276-2.224v2.908a18.84 18.84 0 0 1-8.276 1.887m25.665 4.522c0 .442-.36.802-.801.802H31.948a.8.8 0 0 1-.802-.802V32.776c0-.442.36-.801.802-.801h14.615c.442 0 .801.359.801.801v13.146M39.255 34.67a2.575 2.575 0 0 0-1.534 4.644v3.178c0 .846.688 1.534 1.534 1.534s1.534-.688 1.534-1.534v-3.178a2.575 2.575 0 0 0-1.534-4.644m.668 3.809a.59.59 0 0 0-.307.514v3.498a.367.367 0 0 1-.362.363.367.367 0 0 1-.362-.363v-3.498a.58.58 0 0 0-.307-.514 1.403 1.403 0 1 1 1.338 0M17.222 17.898c0 1.739 1.505 2.49 3.964 3.572q.375.164.754.335.374.167.745.33c2.293 1.009 4.664 2.052 4.664 4.643 0 2.596-2.223 4.738-5.064 5v3.97a.586.586 0 0 1-1.172 0v-3.97c-2.84-.262-5.063-2.404-5.063-5a.586.586 0 0 1 1.172 0c0 2.125 2.008 3.855 4.477 3.855s4.478-1.73 4.478-3.855c0-1.738-1.507-2.489-3.964-3.571q-.376-.164-.754-.335a79 79 0 0 0-.744-.33c-2.293-1.009-4.664-2.053-4.664-4.644 0-2.595 2.222-4.737 5.063-4.999V8.93a.586.586 0 0 1 1.172 0v3.97c2.841.262 5.064 2.404 5.064 5a.586.586 0 0 1-1.172 0c0-2.126-2.01-3.855-4.478-3.855-2.47 0-4.478 1.73-4.478 3.854"/></svg>