<svg xmlns="http://www.w3.org/2000/svg" width="50" height="50" fill="none"><path fill="#000" d="M25 19.326a5.843 5.843 0 0 0 5.84-5.84c-.322-7.744-11.357-7.744-11.68 0a5.843 5.843 0 0 0 5.84 5.84m0-10.664a4.835 4.835 0 0 1 4.825 4.824c-.264 6.397-9.385 6.397-9.648 0A4.835 4.835 0 0 1 25 8.662m-10.37 7.49h1.425q.279.926.733 1.778l-1.006 1.006c-.42.42-.42 1.103 0 1.523l2.246 2.246c.4.42 1.123.42 1.524 0l1.005-1.006a9 9 0 0 0 1.778.733v1.425c0 .596.478 1.075 1.074 1.075h3.184c.595 0 1.074-.479 1.074-1.075v-1.425a10 10 0 0 0 1.777-.733l1.016 1.006c.4.42 1.123.42 1.523 0l2.246-2.246c.42-.4.42-1.123 0-1.523l-1.006-1.006a9 9 0 0 0 .733-1.778h1.426c.595 0 1.074-.478 1.074-1.074v-3.183c0-.596-.479-1.075-1.074-1.075h-1.426a9.7 9.7 0 0 0-.733-1.777l1.006-1.006c.42-.4.42-1.123 0-1.523l-2.246-2.246a1.08 1.08 0 0 0-1.523 0l-1.016 1.005a9 9 0 0 0-1.777-.732V3.115c0-.595-.479-1.074-1.075-1.074H23.41c-.596 0-1.074.479-1.074 1.074v1.426q-.926.279-1.778.732l-1.015-1.015a1.08 1.08 0 0 0-1.524 0l-2.246 2.246c-.42.42-.42 1.103 0 1.523l1.006 1.006a9.7 9.7 0 0 0-.732 1.777H14.62c-.596 0-1.074.48-1.074 1.075v3.183c0 .606.488 1.084 1.084 1.084m-.069-4.257c0-.04.03-.069.069-.069h1.816c.234 0 .43-.156.488-.38a8.1 8.1 0 0 1 .928-2.227.504.504 0 0 0-.078-.615l-1.29-1.28c-.028-.03-.028-.068 0-.088l2.247-2.246c.03-.03.068-.02.088 0l1.289 1.28c.166.166.42.195.615.078a8.4 8.4 0 0 1 2.227-.928.51.51 0 0 0 .38-.488V3.115c0-.039.03-.068.069-.068h3.184c.039 0 .068.03.068.068v1.817c0 .234.156.43.38.488a8.1 8.1 0 0 1 2.227.928.5.5 0 0 0 .616-.078l1.289-1.29c.029-.029.068-.02.088 0l2.246 2.247v.087l-1.28 1.29a.504.504 0 0 0-.078.615c.42.693.733 1.445.928 2.226.059.225.254.381.488.381h1.817c.039 0 .068.03.068.069v3.183c0 .04-.03.069-.068.069h-1.817a.49.49 0 0 0-.488.38 8.1 8.1 0 0 1-.928 2.227.504.504 0 0 0 .078.615l1.28 1.28v.087l-2.246 2.246.36.362c-.322-.196-1.444-1.358-1.737-1.64a.504.504 0 0 0-.616-.079 8.2 8.2 0 0 1-2.226.928.51.51 0 0 0-.381.488v1.816c0 .04-.03.069-.069.069H23.41a.067.067 0 0 1-.068-.069v-1.816a.494.494 0 0 0-.381-.488 8.1 8.1 0 0 1-2.227-.928.504.504 0 0 0-.615.078l-1.28 1.28.362.36c-.273-.136-2.422-2.333-2.695-2.607-.03-.029-.03-.068 0-.088l1.279-1.279a.504.504 0 0 0 .078-.615 8.4 8.4 0 0 1-.928-2.227.51.51 0 0 0-.488-.38H14.63a.067.067 0 0 1-.069-.069zm20.02 20.36q0 .015 0 0m15.244 1.563a3.07 3.07 0 0 0-.977-1.62c.596-.391.987-1.104.987-1.905.058-.43-.235-.85-.674-.85-.713.05-2.324-.166-2.94.264l-1.582-3.125c-.547-1.074-1.582-1.738-2.715-1.738h-9.16c-1.298-.02-2.422.908-2.92 2.138h-9.208c-.147 0-.284.01-.43.03-.498-1.24-1.631-2.198-2.94-2.168h-9.16c-1.133 0-2.178.664-2.724 1.738L3.8 29.707c-.616-.43-2.237-.225-2.94-.264-.44-.01-.723.42-.664.85 0 .8.39 1.514.977 1.904-.44.381-.791.918-.957 1.533-.352.938.273 3.106.38 4.073v4.287c0 .762.586 1.387 1.3 1.387H4.16c.635 0 1.172-.489 1.289-1.133h6.728v4.111c0 .83.635 1.504 1.407 1.504h2.568c.703 0 1.29-.557 1.396-1.28h16.534c.097.723.683 1.28 1.396 1.28h2.569c.78 0 1.416-.674 1.416-1.504v-4.111h5.107c.117.644.645 1.133 1.29 1.133h2.265c.722 0 1.308-.625 1.308-1.387v-4.317c.098-.908.684-3.056.39-3.955m-2.598-3.359h1.582c-.068.596-.517 1.064-1.054 1.064-.05 0-.586 0-.625-.01l-.46-.898c.167-.097.362-.156.557-.156m-14.482-4.59h9.16c.742 0 1.436.45 1.816 1.182 0 0 1.846 3.633 1.846 3.642.049.127.352.694.42.83l-.01-.01H35.333l-1.319-2.597c-.576-1.133-1.777-1.943-3.056-1.934.39-.693 1.064-1.113 1.787-1.113m-12.13 2.139h10.392c.869 0 1.68.527 2.119 1.377.654 1.289 1.972 3.887 2.627 5.166H15.88l1.162-2.285c.947-1.543 1.377-4.19 3.574-4.258m12.892 9.101c-.625.244-1.084.791-1.3 1.426a1.856 1.856 0 0 0-.068.273c.02-.087.04-.185.078-.273-.029.088-.058.186-.078.274v-.01H19.493c-.488-2.373-3.672-2.451-4.258-.098-.976-.254-1.846-.86-2.46-1.65.312-.977 1.25-1.582 2.274-1.514-.01 0-.029 0-.038-.01.244 0 .488.01.732.01h20.625c1.074-.107 2.158.45 2.48 1.523-.732.733-1.435 1.368-2.47 1.641-.235-1.25-1.67-2.05-2.871-1.592m1.933 2.207c-.039 1.778-2.314 1.778-2.353.01.039-1.777 2.314-1.787 2.353-.01m-16.914 0c-.039 1.778-2.305 1.778-2.353.01.039-1.777 2.314-1.787 2.353-.01M4.415 30.723c-.01-.03 1.855-3.643 1.855-3.672.371-.733 1.065-1.182 1.817-1.182h9.16c.85-.02 1.611.625 1.953 1.455-1.602.87-2.11 2.695-2.93 4.2H4.014zm-1.64-.264c.194 0 .38.059.556.166l-.46.898c-.019.01-.585.01-.624.01-.537 0-.987-.469-1.055-1.064h1.582zM4.15 42.461H1.885c-.38-.01-.273-.645-.292-.898.312.36.732.634 1.19.732.294.088 1.25.039 1.573.049a.24.24 0 0 1-.205.117m-.928-1.123c-.644 0-1.123-.596-1.21-1.201l-.42-2.49c0-.03-.02-.06-.02-.088l-.4-2.403a5.06 5.06 0 0 0 2.109 1.055 1.963 1.963 0 0 0 3.877.078h4.863c-.098.195-.195.4-.244.615h-.674c-1.142 0-2.148.596-2.53 1.465l-.614 1.436a.5.5 0 0 0 .049.478.49.49 0 0 0 .42.225h3.574l.136.8H3.223zM4.24 35.79c-.01-.81.771-1.406 1.436-.996.82.508.605 2.12-.47 2.12-.527.009-.966-.499-.966-1.124m2.95-.254c.038.254.019.518-.04.762.049-.244.059-.508.04-.762m4.423 2.686c.01.263.166 1.035.205 1.299H9.18l.313-.733c.215-.498.869-.85 1.592-.85h.517c0 .088.01.186.01.284m-4.463-2.93c.02.078.03.166.04.244-.274-2.275-3.223-2.53-3.878-.352a4.1 4.1 0 0 1-2.07-1.386c.264-.713.87-1.201 1.543-1.26h12.969c-.196.498-.996 1.582-1.29 2.021-.585.069-1.23.284-1.66.723H7.15zm9.004 11.66h-2.578c-.547-.02-.371-.908-.39-1.27.751 1.114 2.148 1.055 3.32 1.007-.069.156-.206.263-.352.263m22.285-.488c0 .263-.185.488-.4.488H35.47c-.157 0-.284-.107-.352-.264.03.059.664-.01.742-.01.957.079 2.031-.136 2.588-.995v.78zm.508-7.979c-.156.987-.332 1.973-.498 2.96l-.479 2.812c-.136.82-.742 1.416-1.435 1.416H15.098c-.703 0-1.308-.596-1.445-1.416-.166-.967-.576-3.37-.732-4.297l-.254-1.523c.713.644 1.601 1.122 2.549 1.318.43 2.5 3.77 2.568 4.277.078h12.646l-.01-.01a2.2 2.2 0 0 1-.048-.508c.049 2.823 3.789 3.252 4.336.43.937-.195 1.806-.674 2.539-1.309zm-.137-3.193c-.527-.498-1.23-.674-1.933-.742 0 0-1.016-2.012-1.026-2.012l.01.01h11.358c.673.058 1.279.556 1.542 1.26-.556.595-1.24 1.2-2.06 1.386a2.2 2.2 0 0 0-.293-.635v.01c-.977-1.504-3.213-.986-3.564.733.01-.01-4.034-.01-4.034-.01m7.715-.547c-.02-.049-.049-.088-.078-.137.03.05.049.098.078.137m-.762 1.045c-.02 1.484-1.933 1.484-1.953 0 .02-1.455 1.905-1.523 1.953 0m2.647 6.299c0 .205-.127.37-.293.37H45.85a.27.27 0 0 1-.205-.116c.352-.02 1.29.049 1.612-.059.449-.097.859-.37 1.152-.722zm.03-4.531c0 .029-.02.058-.02.088l-.42 2.49c-.117.693-.625 1.2-1.211 1.2h-7.285l.136-.8h1.953c.352.01.616-.38.47-.703l-.616-1.436c-.254-.605-.82-1.074-1.543-1.308h.01a3.5 3.5 0 0 0-.293-.772h3.242c.508 2.198 3.447 2.13 3.877-.078a5.3 5.3 0 0 0 2.1-1.055zm-8.634 1.963c.04-.264.186-1.036.196-1.29.468.235.625.87.82 1.29zm3.868-5.508q.015 0 0 0M1.778 35.605a1.771 1.771 0 0 1-.098-.068c.02.02.059.04.098.069m3.984-1.874c.01-.01.01 0 .02 0l-.01.01zm24.649 8.554c-.41-.967-1.533-1.611-2.803-1.611h-3.594c-1.27 0-2.392.644-2.802 1.611l-.694 1.64c-.146.323.117.714.469.704h9.658c.352.01.616-.381.469-.703-.01 0-.703-1.64-.703-1.64m-8.662 1.328.39-.928c.254-.595 1.026-1.005 1.875-1.005h3.594c.85 0 1.621.41 1.865 1.005l.391.928z"/></svg>