<svg xmlns="http://www.w3.org/2000/svg" width="60" height="60" fill="none"><g fill="#282928" clip-path="url(#a)"><path d="M22.709 17.745a1.92 1.92 0 0 0 .269 1.87c.406.527.878 1 1.405 1.405a1.92 1.92 0 0 0 1.87.27l.113-.046q.523.263 1.079.446l.048.114a1.92 1.92 0 0 0 1.515 1.132 7.8 7.8 0 0 0 1.982 0 1.92 1.92 0 0 0 1.514-1.132l.049-.114q.555-.182 1.079-.446l.113.045a1.92 1.92 0 0 0 1.87-.269 7.7 7.7 0 0 0 1.405-1.405 1.92 1.92 0 0 0 .269-1.87l-.045-.113q.263-.522.446-1.079l.114-.048a1.92 1.92 0 0 0 1.132-1.515 7.8 7.8 0 0 0 0-1.982 1.92 1.92 0 0 0-1.132-1.509l-.114-.049q-.183-.555-.446-1.079l.045-.113a1.92 1.92 0 0 0-.27-1.87 7.7 7.7 0 0 0-1.404-1.405 1.91 1.91 0 0 0-1.87-.269l-.113.045a8 8 0 0 0-1.08-.446l-.047-.114a1.92 1.92 0 0 0-1.515-1.132 8 8 0 0 0-1.982 0 1.92 1.92 0 0 0-1.51 1.132l-.048.114q-.556.183-1.08.446l-.112-.045a1.92 1.92 0 0 0-1.87.27c-.527.405-1 .877-1.405 1.404a1.92 1.92 0 0 0-.27 1.87l.046.113a8 8 0 0 0-.446 1.08l-.114.047a1.92 1.92 0 0 0-1.132 1.515 7.8 7.8 0 0 0 0 1.982 1.92 1.92 0 0 0 1.132 1.51l.114.048q.183.556.446 1.08zm.818-4.646a1 1 0 0 0 .572-.663c.138-.525.347-1.03.62-1.5a1 1 0 0 0 .065-.873l-.222-.464q.226-.292.487-.554.25-.224.464-.483l.547.218a1 1 0 0 0 .873-.064c.47-.274.974-.482 1.5-.62a1 1 0 0 0 .663-.573l.164-.48q.368-.045.739-.044a4.4 4.4 0 0 0 .669-.014l.232.542a1 1 0 0 0 .663.572c.526.139 1.03.347 1.5.621a1 1 0 0 0 .873.064l.457-.222q.293.226.554.487.225.25.483.464l-.218.547a1 1 0 0 0 .064.873c.274.47.483.975.62 1.5a1 1 0 0 0 .573.663l.48.164a5.7 5.7 0 0 1 .008 1.431l-.486.21a1 1 0 0 0-.572.662 6 6 0 0 1-.621 1.5 1 1 0 0 0-.064.873l.222.457q-.226.293-.487.554-.25.225-.464.483l-.547-.218a1 1 0 0 0-.873.064 6 6 0 0 1-1.5.621 1 1 0 0 0-.663.572l-.164.48q-.368.05-.74.05a4.5 4.5 0 0 0-.668.014l-.232-.542a1 1 0 0 0-.663-.572 6 6 0 0 1-1.5-.62 1 1 0 0 0-.87-.065l-.457.222a6 6 0 0 1-.554-.487 5 5 0 0 0-.483-.464l.218-.547a1 1 0 0 0-.064-.873 6 6 0 0 1-.621-1.5 1 1 0 0 0-.572-.663l-.48-.164a6 6 0 0 1-.053-.739 4.5 4.5 0 0 0-.014-.669z"/><path d="M30 18a4 4 0 1 0 0-8 4 4 0 0 0 0 8m0-6a2 2 0 1 1 0 4 2 2 0 0 1 0-4"/><path d="M6 48a1.71 1.71 0 0 0 .994 1.574l22.277 10.268a1.78 1.78 0 0 0 1.47-.002l22.276-10.266a1.718 1.718 0 0 0-.009-3.112l-4.216-1.942 4.225-1.946a1.718 1.718 0 0 0-.008-3.112l-4.209-1.94 4.2-1.934a1.713 1.713 0 0 0 0-3.112L38.118 25.62c.251-.318.535-.61.846-.868a14 14 0 1 0-17.784.117q.404.33.72.743L7 32.476a1.712 1.712 0 0 0 0 3.112l4.2 1.934L7 39.46a1.718 1.718 0 0 0 0 3.118l4.216 1.942L7 46.46A1.69 1.69 0 0 0 6 48m29-12a1 1 0 0 1-1 1h-8a1 1 0 0 1 0-2h8a1 1 0 0 1 1 1m1-3H24a1 1 0 0 1 0-2h12a1 1 0 1 1 0 2M18 14a12 12 0 1 1 19.685 9.216A7.21 7.21 0 0 0 35 28.726V29H25v-.1a7.11 7.11 0 0 0-2.56-5.58A11.94 11.94 0 0 1 18 14m4.79 13.405c.138.486.209.99.21 1.495v.288a2.983 2.983 0 0 0 .22 5.7A2.99 2.99 0 0 0 26 39h8a2.99 2.99 0 0 0 2.78-4.116 2.983 2.983 0 0 0 .22-5.7v-.457c.004-.45.07-.897.2-1.327l14.4 6.63L30 43.976 8.4 34.03l14.39-6.626zm-9.2 11.217 15.676 7.216a1.74 1.74 0 0 0 1.47 0l15.678-7.217 5.2 2.4L30 50.977 8.39 41.02zm.01 7 15.673 7.22a1.78 1.78 0 0 0 1.47-.002L46.4 45.62l5.207 2.4L30 57.978 8.39 48.02l5.21-2.4z"/></g><defs><clipPath id="a"><path fill="#fff" d="M0 0h60v60H0z"/></clipPath></defs></svg>