<svg xmlns="http://www.w3.org/2000/svg" width="50" height="50" fill="none"><g fill="#000" clip-path="url(#a)"><path d="M42.501 33.334c.46 0 .834-.374.834-.834v-.833a.833.833 0 0 0-1.667 0v.833c0 .46.373.834.833.834M40.835 33.334H40a.833.833 0 0 0 0 1.666h.834a.833.833 0 1 0 0-1.666M42.501 35a.833.833 0 0 0-.833.833v.834a.833.833 0 0 0 1.667 0v-.834A.833.833 0 0 0 42.5 35M45.832 34.167a.833.833 0 0 0-.833-.834h-.834a.833.833 0 1 0 0 1.667H45c.46 0 .833-.373.833-.833M28.333 33.334h-1.666v-1.667a.833.833 0 0 0-1.667 0v1.666h-1.667a.833.833 0 0 0 0 1.667H25v1.667a.833.833 0 1 0 1.667 0V35h1.666a.833.833 0 1 0 0-1.666M32.499 36.667h-.834a.833.833 0 1 0 0 1.666h.834a.833.833 0 0 0 0-1.666M36.667 36.667h-.834a.833.833 0 0 0 0 1.666h.834a.833.833 0 0 0 0-1.666"/><path d="M49.984 34.09a7.67 7.67 0 0 0-6.65-7.375V4.167A4.17 4.17 0 0 0 39.166 0h-35A4.17 4.17 0 0 0 0 4.167v37.5a4.17 4.17 0 0 0 4.167 4.166h14.2A4.464 4.464 0 0 0 22.842 50a4.52 4.52 0 0 0 3.936-2.31l1.034-1.857h11.355c.422-.002.842-.07 1.245-.199l1.145 2.057A4.507 4.507 0 0 0 50 45.49V34.409c0-.046-.006-.091-.007-.137 0-.046.007-.07.007-.104zM4.167 1.667h35a2.5 2.5 0 0 1 2.5 2.5v2.5h-40v-2.5a2.5 2.5 0 0 1 2.5-2.5m-2.5 40V8.333h40v18.38a7.42 7.42 0 0 0-4.75 2.454h-5.492a7.49 7.49 0 0 0-5.648-2.5 7.63 7.63 0 0 0-7.424 7.422c0 .027-.016.05-.016.078s.007.068.007.102c0 .047-.007.093-.007.14v9.758H4.167a2.5 2.5 0 0 1-2.5-2.5m37.5 2.5H28.739l1.154-2.072a.83.83 0 0 1 .728-.428h7.092c.302 0 .58.164.727.428l1.126 2.02a2.5 2.5 0 0 1-.4.052m9.166 1.325a2.842 2.842 0 0 1-5.321 1.386l-3.115-5.594A2.5 2.5 0 0 0 37.713 40H30.62a2.5 2.5 0 0 0-2.184 1.284l-3.114 5.592A2.84 2.84 0 0 1 20 45.492v-6.63a7.5 7.5 0 0 0 2.083 1.805.833.833 0 0 0 .834-1.443 5.85 5.85 0 0 1-2.911-4.951 5.966 5.966 0 0 1 5.779-5.94h.048a5.87 5.87 0 0 1 5.65 4.375.833.833 0 0 0 1.017.6.833.833 0 0 0 .6-1.016 7.5 7.5 0 0 0-.558-1.459h3.25a7.5 7.5 0 0 0-.555 1.459.833.833 0 1 0 1.612.416 5.87 5.87 0 0 1 5.651-4.375h.048a5.965 5.965 0 0 1 5.779 5.935 5.85 5.85 0 0 1-2.91 4.952.833.833 0 1 0 .833 1.443 7.5 7.5 0 0 0 2.083-1.801z"/><path d="M4.165 5H5a.833.833 0 1 0 0-1.666h-.834a.833.833 0 0 0 0 1.666M8.333 5h.834a.833.833 0 0 0 0-1.666h-.834a.833.833 0 0 0 0 1.666M12.501 5h.834a.833.833 0 1 0 0-1.666H12.5a.833.833 0 0 0 0 1.666M35.001 5h4.167a.833.833 0 0 0 0-1.666h-4.167a.833.833 0 0 0 0 1.666M16.424 11.911a.833.833 0 0 0-1.179 0l-5.833 5.833a.833.833 0 0 0 0 1.179l5.833 5.833a.833.833 0 0 0 1.179-1.178l-5.244-5.244 5.244-5.245a.833.833 0 0 0 0-1.178M26.912 24.756a.833.833 0 0 0 1.178 0l5.834-5.834a.833.833 0 0 0 0-1.178l-5.834-5.833a.833.833 0 0 0-1.178 1.178l5.244 5.244-5.244 5.244a.833.833 0 0 0 0 1.179M18.837 24.932a.833.833 0 0 0 1.094-.437l5-11.667a.833.833 0 0 0-1.531-.656l-5 11.666a.833.833 0 0 0 .437 1.094"/></g><defs><clipPath id="a"><path fill="#fff" d="M0 0h50v50H0z"/></clipPath></defs></svg>