<svg xmlns="http://www.w3.org/2000/svg" width="50" height="50" fill="none"><g fill="#000" clip-path="url(#a)"><path d="M11.862 38.697a7.882 7.882 0 1 1 7.881-7.882 7.89 7.89 0 0 1-7.88 7.881m0-13.81a5.929 5.929 0 1 0 0 11.86 5.929 5.929 0 0 0 0-11.86M21.477 50H2.25a.977.977 0 0 1-.977-.976v-1.975c0-4.2 3.301-7.133 8.03-7.133h5.121c4.727 0 8.03 2.933 8.03 7.133v1.975a.977.977 0 0 1-.977.976m-18.25-1.953H20.5v-.998c0-3.578-3.051-5.18-6.076-5.18H9.302c-3.024 0-6.075 1.602-6.075 5.18z"/><path d="M25 50a.977.977 0 0 1 0-1.953A23.047 23.047 0 1 0 1.953 25 .976.976 0 1 1 0 25a25 25 0 1 1 25 25"/><path d="M30.76 29.303a1 1 0 0 1-.488-.131l-5.762-3.326a.98.98 0 0 1-.487-.846V11.252a.976.976 0 0 1 1.954 0v13.184l5.273 3.044a.976.976 0 0 1-.488 1.823z"/><path d="M25 45.378a.977.977 0 0 1 0-1.953A18.431 18.431 0 1 0 6.794 22.147a.977.977 0 1 1-1.93-.3A20.379 20.379 0 1 1 25 45.377"/></g><defs><clipPath id="a"><path fill="#fff" d="M0 0h50v50H0z"/></clipPath></defs></svg>