<svg xmlns="http://www.w3.org/2000/svg" width="50" height="50" fill="none"><g clip-path="url(#a)"><path fill="#000" d="M49.219 5.124H15.162a.78.78 0 0 0-.78.78v15.99H2.364A2.37 2.37 0 0 0 0 24.262v5.098a2.367 2.367 0 0 0 2.364 2.365h1.218v3.324H2.364A2.37 2.37 0 0 0 0 37.413v5.099a2.367 2.367 0 0 0 2.364 2.364H27.96a2.367 2.367 0 0 0 2.364-2.364v-1.769H49.22c.43 0 .78-.35.78-.78V5.905a.78.78 0 0 0-.78-.781M1.562 29.36v-5.098c0-.437.367-.806.802-.806H27.96c.442 0 .803.361.803.806v5.098c0 .443-.36.803-.803.803H2.364a.814.814 0 0 1-.802-.803m3.582 2.364h20.039v3.324H5.143zm23.618 10.788c0 .442-.36.803-.803.803H2.364a.804.804 0 0 1-.802-.803v-5.099c0-.442.36-.803.802-.803H27.96c.442 0 .803.36.803.803zm19.676-3.33H30.324v-1.769a2.367 2.367 0 0 0-2.364-2.364h-1.215v-3.324h1.215a2.367 2.367 0 0 0 2.364-2.365v-5.098a2.37 2.37 0 0 0-2.364-2.367H15.942V6.685h32.496zM4.48 26.81c0-.431.35-.78.78-.78h13.357a.78.78 0 1 1 0 1.56H5.26a.78.78 0 0 1-.78-.78m18.368 0c0-.431.35-.78.78-.78h1.437a.78.78 0 1 1 0 1.56h-1.437a.78.78 0 0 1-.78-.78m-3.45 13.152a.78.78 0 0 1-.78.78H5.26a.78.78 0 1 1 0-1.56h13.356a.78.78 0 0 1 .782.78m6.448 0a.78.78 0 0 1-.78.78h-1.437a.78.78 0 1 1 0-1.56h1.436c.431 0 .78.35.78.78m7.168-17.85a.78.78 0 0 1 0-1.104l9.043-9.043h-7.8a.78.78 0 1 1 0-1.56h9.684c.432 0 .78.349.78.78v9.683a.78.78 0 1 1-1.56 0V13.07l-9.043 9.043a.78.78 0 0 1-1.104 0"/></g><defs><clipPath id="a"><path fill="#fff" d="M0 0h50v50H0z"/></clipPath></defs></svg>