<svg xmlns="http://www.w3.org/2000/svg" width="50" height="50" fill="none"><g fill="#000" clip-path="url(#a)"><path d="M42.969 35.16v-3.129a3.91 3.91 0 0 0-3.907-3.906h-6.576a22 22 0 0 0 1.74-4.193l2.97-2.376a2.886 2.886 0 0 0-1.71-5.14l1.74-4.786A8.087 8.087 0 0 0 29.629.781h-6.633A26.46 26.46 0 0 0 8.961 4.806a.781.781 0 0 0 .167 1.407l1.884.625a2.006 2.006 0 0 1 1.228 2.647 3.57 3.57 0 0 0 .12 2.921l2.015 4.024a2.882 2.882 0 0 0-1.569 5.126l2.969 2.376a22 22 0 0 0 1.74 4.193h-6.578a3.91 3.91 0 0 0-3.906 3.906v3.13a10.17 10.17 0 0 0-6.25 9.37v3.907a.78.78 0 0 0 .782.78h46.875a.78.78 0 0 0 .78-.78V44.53a10.17 10.17 0 0 0-6.25-9.37M31.25 16.407h-4.687a.78.78 0 0 0-.782.782v.78H24.22v-.78a.78.78 0 0 0-.782-.782h-7.03v-1.144l4.876-3.251a6.37 6.37 0 0 1 3.545-1.073 7.98 7.98 0 0 0 4.968-1.743l1.277-1.022 1.34 2.011a7 7 0 0 1 1.18 3.9v2.322zm-.781 1.563v2.343a.78.78 0 0 1-.782.782h-1.562a.78.78 0 0 1-.781-.782V17.97zm-7.813 0v2.343a.78.78 0 0 1-.781.782h-1.562a.78.78 0 0 1-.782-.782V17.97zm14.063 1.328a1.32 1.32 0 0 1-.499 1.037l-1.416 1.133a22 22 0 0 0 .34-3.498h.247a1.33 1.33 0 0 1 1.328 1.328m-23.03-9.231a3.57 3.57 0 0 0-2.183-4.71l-.239-.079a24.9 24.9 0 0 1 11.728-2.933h6.633a6.524 6.524 0 0 1 6.13 8.75l-.678 1.867a8.6 8.6 0 0 0-1.367-3.647L31.9 6.594a.78.78 0 0 0-1.138-.176L28.82 7.975a6.42 6.42 0 0 1-3.992 1.4 7.93 7.93 0 0 0-4.412 1.336l-5.225 3.483a.8.8 0 0 0-.132.114l-1.3-2.601a2 2 0 0 1-.07-1.641m.091 10.27a1.327 1.327 0 0 1 .83-2.367h.245c.02 1.174.133 2.344.34 3.5zm2.639-2.367h1.55v2.343a2.344 2.344 0 0 0 2.343 2.344h1.563a2.344 2.344 0 0 0 2.344-2.343v-.782h1.562v.782a2.344 2.344 0 0 0 2.344 2.343h1.563a2.344 2.344 0 0 0 2.343-2.343v-2.344h1.55a20.45 20.45 0 0 1-2.899 10.156H19.318a20.45 20.45 0 0 1-2.9-10.156m-5.482 11.718h28.126a2.344 2.344 0 0 1 2.343 2.344v15.625H8.594V32.031a2.343 2.343 0 0 1 2.344-2.343M2.345 44.532a8.61 8.61 0 0 1 4.687-7.65v10.775H2.344zm45.312 3.125H42.97V36.88a8.61 8.61 0 0 1 4.687 7.651z"/><path d="M25 45.313a3.125 3.125 0 1 0 0-6.25 3.125 3.125 0 0 0 0 6.25m0-4.688a1.563 1.563 0 1 1 0 3.125 1.563 1.563 0 0 1 0-3.125M19.76 38.052l1.105-1.105-2.573-2.572 2.573-2.573-1.105-1.105-3.125 3.125a.78.78 0 0 0 0 1.105zM30.241 38.052l3.125-3.125a.78.78 0 0 0 0-1.105l-3.125-3.125-1.104 1.105 2.572 2.573-2.572 2.572zM26.72 30.781l-4.689 6.25 1.25.937 4.689-6.25z"/></g><defs><clipPath id="a"><path fill="#fff" d="M0 0h50v50H0z"/></clipPath></defs></svg>