<svg xmlns="http://www.w3.org/2000/svg" width="50" height="50" fill="none"><g fill="#000" fill-rule="evenodd" clip-path="url(#a)" clip-rule="evenodd"><path d="M46.054 20.183H12.736l32.002-9.27a.98.98 0 0 0 .666-1.21L43.73 3.922A5.47 5.47 0 0 0 38.5 0a5.4 5.4 0 0 0-1.504.214L6.951 8.918a5.4 5.4 0 0 0-3.244 2.6 5.4 5.4 0 0 0-.464 4.132l1.636 5.648v23.267A5.44 5.44 0 0 0 10.313 50h11.735a.976.976 0 1 0 0-1.953H10.314a3.485 3.485 0 0 1-3.482-3.482v-13.29h38.245v13.29a3.485 3.485 0 0 1-3.482 3.482H29.861a.977.977 0 0 0 0 1.953h11.734a5.44 5.44 0 0 0 5.435-5.435V21.16a.976.976 0 0 0-.976-.977m-17.22 9.14 4.149-7.187h5.397l-4.15 7.186zm-7.652 0 4.149-7.187h5.396l-4.149 7.186zm-7.652 0 4.148-7.187h5.398l-4.15 7.186zm3.63-12.643-6.948-6.673 5.206-1.508q.056.08.128.15l6.948 6.674-5.205 1.508a1 1 0 0 0-.129-.15M30.246 4.391l6.948 6.674-5.206 1.508a1 1 0 0 0-.128-.151l-6.948-6.674 5.206-1.508q.056.08.128.151m-7.35 2.13 6.948 6.673-5.206 1.508a1 1 0 0 0-.128-.15l-6.948-6.674 5.206-1.508q.056.08.128.15m14.645-4.43c.313-.092.637-.138.96-.138a3.5 3.5 0 0 1 3.353 2.512l1.403 4.843-3.918 1.135a1 1 0 0 0-.129-.15l-6.948-6.674zM5.418 12.46a3.46 3.46 0 0 1 2.076-1.667l.574-.166q.056.08.128.15l6.948 6.674-8.622 2.498-1.403-4.843a3.46 3.46 0 0 1 .299-2.646m1.414 9.675h8.591l-4.149 7.186H6.832zm29.654 7.186 4.149-7.186h4.442v7.186z"/><path d="M32.709 39.562a.98.98 0 0 0-.489-.846l-8.58-4.953a.977.977 0 0 0-1.464.845v9.907a.976.976 0 0 0 1.465.845l8.58-4.953a.98.98 0 0 0 .488-.845m-8.58 3.262V36.3l5.65 3.262zM25.953 48.047a.98.98 0 0 0-.976.976c0 .538.438.977.976.977a.98.98 0 0 0 .977-.977.98.98 0 0 0-.977-.976"/></g><defs><clipPath id="a"><path fill="#fff" d="M0 0h50v50H0z"/></clipPath></defs></svg>