<svg xmlns="http://www.w3.org/2000/svg" width="50" height="50" fill="none"><path fill="#000" fill-rule="evenodd" d="M7.176 37.12h-5.27a.784.784 0 0 1-.78-.869C1.85 29.498 6.72 23.986 13.14 22.312c-2.666-1.458-4.48-4.292-4.48-7.536 0-4.725 3.852-8.582 8.578-8.582 4.73 0 8.581 3.857 8.581 8.582 0 3.244-1.814 6.078-4.482 7.536a16.23 16.23 0 0 1 11.732 12.21h1.423l1.514-4.66a1.26 1.26 0 0 1 2.397 0l1.514 4.66h4.9a1.26 1.26 0 0 1 .74 2.28l-3.964 2.88 1.515 4.66a1.26 1.26 0 0 1-1.94 1.408l-3.964-2.88-3.964 2.88a1.26 1.26 0 0 1-1.939-1.408l1.514-4.66-3.526-2.563h-1.99c.163.146.26.357.26.584v2.58c0 .325-.2.616-.502.733l-1.206.464a9 9 0 0 1-.764 1.843l.524 1.183a.78.78 0 0 1-.163.872l-1.824 1.825a.78.78 0 0 1-.872.162l-1.182-.523a9 9 0 0 1-1.845.764l-.464 1.205a.78.78 0 0 1-.732.503h-2.58a.78.78 0 0 1-.732-.503l-.464-1.205a9 9 0 0 1-1.847-.765l-1.183.524a.78.78 0 0 1-.872-.162l-1.824-1.825a.78.78 0 0 1-.162-.873l.525-1.181a9 9 0 0 1-.765-1.844l-1.207-.464a.78.78 0 0 1-.503-.732v-2.581c0-.227.098-.438.261-.584m10.062-13.762c-7.25 0-13.268 5.273-14.433 12.192H8.96q.19-.455.43-.89l-.526-1.181a.78.78 0 0 1 .162-.873l1.824-1.825a.78.78 0 0 1 .873-.162l1.182.526a9 9 0 0 1 1.844-.764l.467-1.209a.78.78 0 0 1 .731-.502h2.581c.325 0 .616.2.732.503l.464 1.208c.641.184 1.26.44 1.844.764l1.181-.526a.78.78 0 0 1 .874.162l1.824 1.825c.23.229.294.575.163.872l-.524 1.182q.24.434.43.89h2.836q.015-.079.04-.157a1.26 1.26 0 0 1 1.199-.871h1.867c-1.557-6.407-7.333-11.164-14.221-11.164M30.542 36.09l3.377 2.454c.441.321.626.89.458 1.409l-1.29 3.97 3.377-2.453a1.26 1.26 0 0 1 1.481 0l3.377 2.453-1.29-3.97a1.26 1.26 0 0 1 .458-1.409l3.377-2.454h-4.174a1.26 1.26 0 0 1-1.199-.87l-1.29-3.97-1.29 3.97a1.26 1.26 0 0 1-1.198.87zm-13.304-14.3c3.865 0 7.013-3.152 7.013-7.014s-3.148-7.013-7.014-7.013c-3.861 0-7.009 3.152-7.009 7.013 0 3.862 3.148 7.014 7.01 7.014m1.167 9.528-.415-1.08h-1.503l-.418 1.082a.79.79 0 0 1-.55.48 7.3 7.3 0 0 0-2.153.892.78.78 0 0 1-.73.05l-1.057-.47-1.062 1.062.47 1.056a.78.78 0 0 1-.05.73 7.4 7.4 0 0 0-.894 2.158.79.79 0 0 1-.481.549l-1.078.415v1.503l1.078.415c.24.092.42.297.48.548.184.761.484 1.49.895 2.154.136.22.155.495.05.731l-.47 1.057 1.063 1.063 1.057-.468a.78.78 0 0 1 .727.048 7.4 7.4 0 0 0 2.157.893c.252.06.458.24.551.482l.415 1.077h1.504l.414-1.077a.78.78 0 0 1 .55-.481c.761-.181 1.489-.481 2.153-.892a.78.78 0 0 1 .73-.05l1.057.468 1.064-1.063-.469-1.057a.78.78 0 0 1 .049-.728 7.4 7.4 0 0 0 .893-2.155.78.78 0 0 1 .481-.55l1.078-.415v-1.503l-1.078-.415a.79.79 0 0 1-.481-.551 7.3 7.3 0 0 0-.892-2.155.78.78 0 0 1-.05-.73l.469-1.056-1.064-1.063-1.056.47a.78.78 0 0 1-.73-.05 7.3 7.3 0 0 0-2.153-.892.78.78 0 0 1-.551-.482m-1.168 2.389a5.286 5.286 0 1 1 0 10.573 5.286 5.286 0 0 1-5.285-5.288 5.284 5.284 0 0 1 5.286-5.285m0 1.568a3.718 3.718 0 1 0 .002 7.437 3.718 3.718 0 0 0-.002-7.437m29.61-27.62-4.398-5.18-4.397 5.18h1.581c.434 0 .785.35.785.784v13.838a.785.785 0 0 1-1.569 0V9.223h-1.666c-.47 0-.866-.254-1.06-.679a1.14 1.14 0 0 1 .173-1.245l5.263-6.2c.225-.268.53-.412.89-.412.35 0 .655.139.886.407l.003.004L48.604 7.3c.3.352.363.823.17 1.243a1.14 1.14 0 0 1-1.059.68h-1.668v8.709a.785.785 0 0 1-1.569 0V8.439c0-.433.351-.784.784-.784zm-2.369 12.45a.785.785 0 0 1 1.569 0v2.172a.785.785 0 0 1-1.569 0zm0 4.344a.785.785 0 0 1 1.569 0v2.118a.785.785 0 0 1-1.569 0zm-4.06 2.118a.785.785 0 0 1-1.569 0V24.45a.785.785 0 0 1 1.569 0zm-4.934-10.413-3.536-4.167-3.538 4.167h1.12c.433 0 .784.351.784.784v7.1a.785.785 0 0 1-1.569 0v-6.316h-1.32c-.449 0-.826-.242-1.011-.647-.185-.401-.126-.85.165-1.188l4.52-5.324c.214-.255.506-.393.849-.393.333 0 .624.133.844.388l.004.004 4.522 5.327c.285.336.346.785.161 1.186a1.09 1.09 0 0 1-1.009.647h-1.322V28.7a.785.785 0 0 1-1.569 0V16.938c0-.433.351-.784.784-.784z" clip-rule="evenodd"/></svg>