<svg xmlns="http://www.w3.org/2000/svg" width="60" height="60" fill="none"><path fill="#282928" d="M54.786 31.659c-2.66-2.619-5.735-.168-5.735-.168V17.704a.843.843 0 0 0-.847-.839.843.843 0 0 0-.848.84V32.67s-4.043 3.152-5.781 3.923V11.769c0-1.153.949-2.092 2.116-2.092h1.549c1.167 0 2.116.939 2.116 2.093v7.272c0 .463.38.838.848.838a.843.843 0 0 0 .847-.838v-7.273C49.051 9.692 47.341 8 45.24 8h-1.55c-2.101 0-3.811 1.69-3.811 3.77v25.488a9 9 0 0 1-1.552.286v-17.68c0-2.089-1.718-3.788-3.83-3.788h-1.512c-2.112 0-3.83 1.7-3.83 3.788v8.545l-1.552.815V26.38c0-1.88-1.547-3.41-3.449-3.41H21.88c-1.902 0-3.448 1.53-3.448 3.41v7.659l-2.769 1.453-7.774 2.198a5.32 5.32 0 0 0-3.18 2.466 5.22 5.22 0 0 0-.534 3.963l2.032 7.94a.85.85 0 0 0 1.034.6.84.84 0 0 0 .607-1.023l-2.032-7.94c-.504-1.918.611-3.85 2.54-4.394l7.107-2.009 5.343 14.102c.357.944.3 3.638-2.525 4.631l-5.372 1.207c-1.872.42-3.716-.69-4.2-2.527l-1.09-4.15a.85.85 0 0 0-1.034-.601.84.84 0 0 0-.607 1.023l1.09 4.15A5.19 5.19 0 0 0 12.106 59c1.713 0 6.55-1.338 6.55-1.338a5.22 5.22 0 0 0 3.443-2.588 5.12 5.12 0 0 0 .512-3.52l18.584-4.5a10.7 10.7 0 0 0 4.218-2.088l9.044-7.35c2.757-2.418 1.14-5.159.33-5.957zm-21.8-13.906h1.51c1.178 0 2.135.947 2.135 2.111v17.722l-5.35-.002c-.492-.004-.151-.326-.125-.347l1.541-1.235c1.438-1.152 2.377-2.753 2.79-4.76a3.28 3.28 0 0 0-1.28-3.326 3.36 3.36 0 0 0-3.356-.386v-7.666c0-1.164.957-2.111 2.134-2.111zm-12.86 8.627c0-.955.787-1.733 1.753-1.733h2.275c.967 0 1.753.778 1.753 1.733v3.734l-5.78 3.035V26.38zm33.255 9.941-9.044 7.35a9 9 0 0 1-3.545 1.754l-18.72 4.534-5.035-13.289 14.375-7.547a1.65 1.65 0 0 1 1.779.136c.53.392.767 1.008.635 1.648-.333 1.616-1.072 2.892-2.196 3.792l-1.541 1.235a1.84 1.84 0 0 0-.593 2.08 1.87 1.87 0 0 0 1.784 1.247l6.178.003h.004c2.2 0 4.313-.662 6.112-1.913l6.905-4.802a2.41 2.41 0 0 1 3.094.282c.476.48 1.407 1.909-.192 3.49"/><path fill="#282928" d="M18 51.5c0-1.93-1.57-3.5-3.5-3.5S11 49.57 11 51.5s1.57 3.5 3.5 3.5 3.5-1.57 3.5-3.5m-5.223 0c0-.95.773-1.723 1.723-1.723s1.723.773 1.723 1.723-.773 1.723-1.723 1.723-1.723-.773-1.723-1.723M8.395 27.212l12.15-12.23 2.734 1.412c.979.506 2.17.333 2.964-.43l6.614-6.36s-.182 3.267 2.572 3.267A2.573 2.573 0 0 0 38 10.302V3.544C37.99 1.787 36.704 1 35.429 1h-6.684a2.573 2.573 0 0 0-2.571 2.568c0 2.823 2.876 2.568 2.876 2.568l-5.046 4.85-2.772-1.432a2.56 2.56 0 0 0-3.007.472L4.745 23.593a2.57 2.57 0 0 0 .014 3.632c.485.48 2.141 1.48 3.636-.014zM5.931 24.77l13.48-13.568c.175-.175.454-.48 1.053-.165l3.304 1.708a.84.84 0 0 0 .964-.14l6.971-6.702a.834.834 0 0 0-.58-1.436h-2.378a.9.9 0 0 1-.9-.899.9.9 0 0 1 .9-.898h6.684c.246 0 .899 0 .899.893v6.739a.9.9 0 0 1-1.799 0v-2.66a.835.835 0 0 0-1.415-.6l-8.03 7.719a.9.9 0 0 1-1.037.15l-3.278-1.693a.84.84 0 0 0-.977.154L7.208 26.035c-.549.548-1.103.173-1.273.005a.9.9 0 0 1-.005-1.27z"/></svg>