<svg xmlns="http://www.w3.org/2000/svg" width="60" height="60" fill="none"><path fill="#282928" d="M32.895 6.858H27.11a.965.965 0 0 1 0-1.928h5.786a.965.965 0 0 1 0 1.928zm7.729 52.072H19.408a4.827 4.827 0 0 1-4.822-4.822V21.32a.965.965 0 0 1 1.929 0v32.788a2.897 2.897 0 0 0 2.893 2.894h21.216a2.897 2.897 0 0 0 2.893-2.894V21.32a.965.965 0 0 1 1.929 0v32.788a4.827 4.827 0 0 1-4.822 4.822"/><path fill="#282928" d="M44.481 28.075a.965.965 0 0 1-.964-.965V5.894a2.897 2.897 0 0 0-2.893-2.893H19.408a2.897 2.897 0 0 0-2.893 2.893V27.11a.965.965 0 0 1-1.93 0V5.894a4.827 4.827 0 0 1 4.823-4.822h21.216a4.827 4.827 0 0 1 4.822 4.822V27.11a.965.965 0 0 1-.965.965m5.789-17.269c-.533 0-.965-.335-.965-.868v-.192a.965.965 0 0 1 1.928 0c0 .532-.432 1.06-.964 1.06zm0 3.862c-.533 0-.965-.336-.965-.868v-.193a.965.965 0 0 1 1.928 0c0 .532-.432 1.06-.964 1.06zm0 3.859c-.533 0-.965-.335-.965-.868v-.193a.965.965 0 0 1 1.928 0c0 .533-.432 1.061-.964 1.061zM9.765 43.402c-.532 0-.964-.336-.964-.868v-.193a.965.965 0 0 1 1.928 0c0 .533-.431 1.061-.964 1.061m0 3.858c-.532 0-.964-.336-.964-.868v-.193a.965.965 0 0 1 1.928 0c0 .532-.431 1.06-.964 1.06zm0 3.863c-.532 0-.964-.336-.964-.868v-.193a.965.965 0 0 1 1.928 0c0 .532-.431 1.06-.964 1.06z"/><path fill="#282928" d="M47.06 51.215a.964.964 0 0 1-.943-1.167l.635-2.95a.96.96 0 0 1 .716-.733 9.2 9.2 0 0 0 2.637-1.102.96.96 0 0 1 1.02.01l1.91 1.22 1.182-1.191-1.221-1.894a.97.97 0 0 1-.014-1.025 9.2 9.2 0 0 0 1.1-2.636.97.97 0 0 1 .729-.718l2.199-.488V36.89l-2.197-.488a.97.97 0 0 1-.73-.718 9.2 9.2 0 0 0-1.099-2.636.96.96 0 0 1 .012-1.023l1.223-1.911-1.18-1.18-1.912 1.222a.96.96 0 0 1-1.02.01 9.3 9.3 0 0 0-2.637-1.101.96.96 0 0 1-.716-.733l-.474-2.19h-.843a.965.965 0 0 1 0-1.928h1.62c.453 0 .847.318.941.762l.515 2.378c.706.214 1.399.503 2.066.864l2.072-1.325a.966.966 0 0 1 1.201.131L56.13 29.3c.32.32.374.82.13 1.202l-1.326 2.071q.541 1.007.864 2.07l2.382.528a.97.97 0 0 1 .758.943v3.202a.964.964 0 0 1-.756.941l-2.382.529c-.214.708-.503 1.4-.864 2.067l1.323 2.052a.96.96 0 0 1-.125 1.202l-2.278 2.295a.97.97 0 0 1-1.204.133l-2.071-1.325q-1.006.541-2.066.864L48 50.452a.966.966 0 0 1-.94.763"/><path fill="#282928" d="M48.126 42.692a.964.964 0 0 1-.536-1.765 3.87 3.87 0 0 0 1.71-3.207 3.86 3.86 0 0 0-4.629-3.78.964.964 0 1 1-.388-1.89 5.793 5.793 0 0 1 6.945 5.67c0 1.93-.958 3.728-2.566 4.808a.96.96 0 0 1-.536.164M14.583 28.08a5.793 5.793 0 0 1-5.786-5.786c0-1.938.964-3.738 2.58-4.818a.965.965 0 0 1 1.069 1.605 3.86 3.86 0 0 0-1.72 3.213 3.86 3.86 0 0 0 4.613 3.782.97.97 0 0 1 1.136.756.96.96 0 0 1-.756 1.134 5.7 5.7 0 0 1-1.136.114"/><path fill="#282928" d="M14.583 35.783h-1.62a.964.964 0 0 1-.941-.761l-.515-2.378a11 11 0 0 1-2.066-.865L7.37 33.105a.96.96 0 0 1-1.202-.132L3.89 30.697a.96.96 0 0 1-.129-1.201l1.325-2.072q-.542-1.005-.864-2.07l-2.382-.528a.97.97 0 0 1-.758-.943v-3.201c0-.452.314-.845.756-.942l2.382-.528q.322-1.064.864-2.068L3.763 15.09a.96.96 0 0 1 .125-1.202l2.278-2.295a.96.96 0 0 1 1.204-.133l2.071 1.325q1.006-.541 2.066-.864l.515-2.378a.964.964 0 1 1 1.884.407l-.636 2.95a.96.96 0 0 1-.716.734c-.91.22-1.797.59-2.638 1.101a.96.96 0 0 1-1.02-.01l-1.91-1.22-1.184 1.192 1.22 1.894c.203.31.207.71.014 1.024a9.2 9.2 0 0 0-1.1 2.636.97.97 0 0 1-.728.718l-2.197.486v1.653l2.197.488c.36.08.642.358.729.717.218.91.59 1.798 1.099 2.637a.96.96 0 0 1-.012 1.022l-1.222 1.91 1.18 1.18 1.911-1.223a.97.97 0 0 1 1.02-.01 9.3 9.3 0 0 0 2.637 1.102.96.96 0 0 1 .716.733l.474 2.19h.843a.965.965 0 0 1 0 1.93zm14.467-.955a.962.962 0 0 1-.935-1.198l1.929-7.715a.957.957 0 0 1 1.169-.702c.518.129.83.652.702 1.168l-1.929 7.715a.96.96 0 0 1-.936.732m5.786 0a.965.965 0 0 1-.683-1.645l3.177-3.177-3.175-3.175a.965.965 0 0 1 1.364-1.363l3.857 3.857a.965.965 0 0 1 0 1.364l-3.857 3.857a.97.97 0 0 1-.683.282m-9.643 0a.97.97 0 0 1-.682-.282l-3.858-3.857a.965.965 0 0 1 0-1.364l3.858-3.857a.965.965 0 0 1 1.363 1.363L22.7 30.006l3.174 3.175a.965.965 0 0 1-.68 1.647z"/></svg>