<svg xmlns="http://www.w3.org/2000/svg" width="60" height="60" fill="none"><g fill="#282928" clip-path="url(#a)"><path d="M22.508 23.438a3.6 3.6 0 0 1 2.518 0v.505a2.77 2.77 0 0 0 2.77 2.765h1.746a2.77 2.77 0 0 0 2.77-2.765v-2.06a2.77 2.77 0 0 0-2.77-2.764h-1.746a2.77 2.77 0 0 0-2.756 2.49 5.25 5.25 0 0 0-2.546 0 2.77 2.77 0 0 0-2.756-2.49h-1.746a2.77 2.77 0 0 0-2.77 2.765v2.059a2.77 2.77 0 0 0 2.77 2.765h1.746a2.77 2.77 0 0 0 2.77-2.765zm4.277-1.554a1.01 1.01 0 0 1 1.01-1.007h1.747a1.01 1.01 0 0 1 1.011 1.007v2.06a1.01 1.01 0 0 1-1.011 1.006h-1.746a1.01 1.01 0 0 1-1.011-1.007v-2.06zm-6.035 2.06a1.01 1.01 0 0 1-1.012 1.006h-1.746a1.01 1.01 0 0 1-1.011-1.007v-2.06a1.01 1.01 0 0 1 1.011-1.006h1.746a1.01 1.01 0 0 1 1.012 1.007zm3.016 14.384a3.59 3.59 0 0 0-3.59 3.584 3.591 3.591 0 0 0 7.18 0 3.59 3.59 0 0 0-3.59-3.584m0 5.41a1.83 1.83 0 0 1-1.832-1.826 1.833 1.833 0 0 1 3.665 0 1.83 1.83 0 0 1-1.833 1.825z"/><path d="m31.207 43.134-.352-.203a7.2 7.2 0 0 0 0-2.035l.354-.204a1.457 1.457 0 0 0 .531-1.98l-1.21-2.088a1.453 1.453 0 0 0-1.98-.527l-.354.204a7.2 7.2 0 0 0-1.77-1.02v-.405c0-.8-.651-1.45-1.452-1.45H22.56c-.801 0-1.453.65-1.453 1.45v.405a7.2 7.2 0 0 0-1.769 1.02l-.353-.203a1.453 1.453 0 0 0-1.983.528l-1.205 2.084a1.44 1.44 0 0 0-.147 1.1c.1.375.34.688.676.883l.353.203a7.2 7.2 0 0 0 0 2.035l-.355.204a1.44 1.44 0 0 0-.674.883c-.1.375-.047.765.146 1.097l1.205 2.084c.194.337.507.577.882.678.375.1.767.05 1.1-.143l.356-.206c.54.423 1.138.768 1.768 1.02v.406c0 .8.652 1.45 1.453 1.45h2.413c.8 0 1.452-.65 1.452-1.45v-.405a7.2 7.2 0 0 0 1.769-1.02l.354.203c.335.195.726.246 1.101.145.376-.1.689-.342.881-.676l1.205-2.084c.195-.334.247-.724.147-1.099a1.44 1.44 0 0 0-.676-.884zm-2.188-2.481a5.4 5.4 0 0 1 0 2.522.88.88 0 0 0 .417.968l.625.36-.9 1.554-.628-.362a.88.88 0 0 0-1.043.123 5.45 5.45 0 0 1-2.19 1.262.88.88 0 0 0-.631.843v.722h-1.801v-.722a.88.88 0 0 0-.631-.843 5.5 5.5 0 0 1-2.193-1.264.88.88 0 0 0-1.041-.122l-.63.362-.898-1.554.625-.36a.88.88 0 0 0 .416-.968 5.4 5.4 0 0 1 0-2.522.88.88 0 0 0-.416-.969l-.625-.36.897-1.551.63.363a.88.88 0 0 0 1.043-.124 5.44 5.44 0 0 1 2.192-1.263.88.88 0 0 0 .63-.843v-.722h1.802v.722c0 .39.257.733.63.843a5.4 5.4 0 0 1 2.19 1.262.88.88 0 0 0 1.044.125l.631-.363.9 1.55-.627.361a.88.88 0 0 0-.416.969z"/><path d="M58.147 32.064c-3.535-5.565-10.95-7.224-16.529-3.698a12 12 0 0 0-2.768 2.412 2.65 2.65 0 0 0-1.847-.746h-1.142a15 15 0 0 0 1.062-2.149c1.784-.048 3.286-.838 4.182-2.227.892-1.381.997-3.137.268-4.474-.671-1.233-1.906-1.95-3.5-2.05l.49-3.396c.491-3.39-.377-6.52-2.509-9.054-1.828-2.171-4.55-3.835-7.666-4.685-2.854-.778-5.794-.816-8.28-.105-2.64.755-4.557 2.268-5.568 4.39-4.114 1.26-6.022 4.688-5.246 9.469l.55 3.384c-1.585.103-2.813.82-3.481 2.048-.729 1.337-.624 3.093.267 4.473.897 1.39 2.398 2.18 4.182 2.228.284.716.64 1.436 1.062 2.148H10.53a2.656 2.656 0 0 0-2.654 2.651v8.697l-1.91.673C.62 43.932 0 48.431 0 51.651v5.386c0 .87.707 1.578 1.577 1.578h44.382a1.58 1.58 0 0 0 1.58-1.578V51.65c0-.44-.013-.853-.038-1.25l.073.005a11.93 11.93 0 0 0 6.869-1.85.88.88 0 0 0-.94-1.486 10.2 10.2 0 0 1-11.465-.345.9.9 0 0 0-.472-.165l-5.906-.279 2.269-5.441a.9.9 0 0 0 .052-.5 10.135 10.135 0 0 1 4.576-10.488c4.762-3.01 11.09-1.594 14.106 3.155a10.22 10.22 0 0 1-.475 11.604.88.88 0 0 0 1.402 1.062c2.995-3.957 3.22-9.426.557-13.609zm-20.409-8.107v-3.071c.994.055 1.714.445 2.091 1.137.425.78.346 1.832-.2 2.68-.3.463-.94 1.158-2.14 1.365a9.6 9.6 0 0 0 .25-2.11zm-29.83.746c-.548-.848-.626-1.9-.202-2.68.377-.691 1.098-1.081 2.09-1.137v3.071c0 .683.087 1.39.25 2.111-1.2-.207-1.84-.902-2.139-1.365zm2.922-9.234c-.46-2.826-.074-6.438 4.37-7.604a.88.88 0 0 0 .59-.517c1.671-4.081 7.27-4.928 11.935-3.655 4.707 1.284 9.861 5.142 8.898 11.791l-.279 1.93c-1.344-1.912-2.576-2.31-5.359-2.316H16.47c-2.788.006-3.966.386-5.316 2.357zM5.363 53.774V55.1c0 .639.172 1.238.473 1.755H1.758V51.65c0-4.385 1.433-6.76 4.793-7.94l1.326-.467v8.795H7.1c-.958 0-1.737.778-1.737 1.735zM40.414 55.1a1.76 1.76 0 0 1-1.762 1.755H8.882A1.76 1.76 0 0 1 7.121 55.1v-1.304h33.293zm-.752-6.87 1.566.074a12 12 0 0 0 4.494 1.885c.039.454.058.936.058 1.461v5.205H41.7c.3-.517.473-1.116.473-1.755v-1.327c0-.957-.78-1.735-1.738-1.735h-.773zm-2.654-14.455a11.9 11.9 0 0 0-.8 6.625l-2.654 6.361a.88.88 0 0 0 .77 1.217l3.58.169v3.89H9.634V32.684c0-.493.403-.893.897-.893h10.753a.879.879 0 1 0 0-1.758h-7.523c-1.406-2.036-2.206-4.23-2.206-6.075V20.22c1.739-3.228 2.2-3.358 4.917-3.363h14.51c2.697.005 3.239.103 4.998 3.364v3.736c0 1.845-.8 4.039-2.206 6.075h-8.398a.879.879 0 1 0 0 1.758h11.627c.33 0 .631.187.787.465q-.444.728-.782 1.521z"/><path d="M43.75 35.17a.88.88 0 0 0-1.208.297l-1.716 2.839a.88.88 0 0 0-.008.896l1.716 2.952a.879.879 0 1 0 1.52-.883L42.6 38.769l1.446-2.392a.88.88 0 0 0-.297-1.207zm4.68.118-2.555 6.406a.88.88 0 0 0 1.633.65l2.554-6.405a.88.88 0 0 0-1.633-.65zm5.237.179a.879.879 0 1 0-1.505.91l1.447 2.392-1.455 2.502a.879.879 0 0 0 1.52.883l1.716-2.952a.88.88 0 0 0-.007-.896z"/></g><defs><clipPath id="a"><path fill="#fff" d="M0 0h60v60H0z"/></clipPath></defs></svg>