<svg xmlns="http://www.w3.org/2000/svg" width="50" height="50" fill="none"><g fill="#000" clip-path="url(#a)"><path d="M50 18.275a1.6 1.6 0 0 0-.692-1.308 1.75 1.75 0 0 0-1.583-.192L39.167 20v-4.783l.258.175c.412.29.905.444 1.408.441a2.5 2.5 0 0 0 1.417-4.558L26.417.442A2.5 2.5 0 0 0 25 0a2.5 2.5 0 0 0-1.417.442L7.75 11.275a2.5 2.5 0 0 0-.658 3.483 2.5 2.5 0 0 0 2.075 1.075 2.5 2.5 0 0 0 1.408-.433l.258-.183v5l-8.541-3.425A1.667 1.667 0 0 0 0 18.333v22.5c0 .92.746 1.667 1.667 1.667h.625A2.5 2.5 0 0 0 4.5 41.142l.7-1.392 1.467.683a2.642 2.642 0 0 0 2.475 3.575c.325-.002.647-.064.95-.183a2.89 2.89 0 0 0 2.7 1.842c.347 0 .691-.062 1.016-.184a2.92 2.92 0 0 0 2.742 1.934c.3-.002.598-.05.883-.142v.042a2.5 2.5 0 0 0 1.3 1.408 2.5 2.5 0 0 0 3.084-.833l1.975 1.591a2.716 2.716 0 0 0 4.283-1.55 2.5 2.5 0 0 0 2.5-.666 2.5 2.5 0 0 0 .733-1.542q.18.012.359 0a3.06 3.06 0 0 0 3.033-2.617c.33.112.676.171 1.025.175a3.183 3.183 0 0 0 3.192-3.191 3.2 3.2 0 0 0-.25-1.217l5.3-2.208 1.55 2.866a2.5 2.5 0 0 0 2.191 1.3h.625c.898 0 1.636-.71 1.667-1.608zm-40.367-4.25a.833.833 0 0 1-1.158-.217.83.83 0 0 1-.125-.633.83.83 0 0 1 .342-.525L24.525 1.817a.833.833 0 0 1 .95 0L41.308 12.65c.375.26.471.772.217 1.15a.833.833 0 0 1-1.158.217L25.475 3.833a.83.83 0 0 0-.95 0zM25 5.525l12.5 8.558v6.75a2.29 2.29 0 0 0-.55 2.884l.833 1.55-2.25.833a2.5 2.5 0 0 1-2.316-.267l-4.05-2.991v-4.509c0-.92-.747-1.666-1.667-1.666h-5c-.92 0-1.667.746-1.667 1.666v5.442q-.473.658-.833 1.383-1.352.124-2.675.434-.736.182-1.492.241a10.2 10.2 0 0 1-3.183-.925l.4-.833a2.5 2.5 0 0 0-.55-3v-6.992zm2.5 16.183a4.81 4.81 0 0 0-5 .375v-3.75h5zM2.292 40.833h-.625v-22.5l9.483 3.85a.833.833 0 0 1 .417 1.175l-8.55 17.034a.83.83 0 0 1-.725.441M8.7 42.225a.983.983 0 0 1-.483-1.3l.95-2a.983.983 0 0 1 1.3-.483.94.94 0 0 1 .508.55 1 1 0 0 1 0 .758l-.975 2a.975.975 0 0 1-1.3.475m4.492 1.667a1.22 1.22 0 0 1-.95 0 1.22 1.22 0 0 1-.65-.7 1.27 1.27 0 0 1 0-.959l1.433-3.066c.138-.301.39-.535.7-.65a1.32 1.32 0 0 1 .958.033c.302.142.535.396.65.708.13.307.13.652 0 .959L13.9 43.25a1.27 1.27 0 0 1-.708.65zm2.833 1.666a1.267 1.267 0 0 1-.617-1.666l1.05-2.225c.14-.3.392-.533.7-.65q.211-.075.434-.075a1.15 1.15 0 0 1 .525.116c.302.136.537.389.65.7.116.312.1.658-.042.959l-.967 2.116-.066.142a1.25 1.25 0 0 1-1.667.617zm3.408 1.567a.83.83 0 0 1-.433-.467.83.83 0 0 1 0-.641l.258-.559.775-1.666c.15-.3.466-.48.8-.459q.183 0 .35.075a.834.834 0 0 1 .417 1.117l-1.042 2.258a.833.833 0 0 1-1.125.392zM36.8 41.133a1.517 1.517 0 0 1-2.075.075l-4.05-3.55-.958-.833a.8.8 0 0 0-.292-.167.7.7 0 0 0-.125 0 .83.83 0 0 0-.5.059 1 1 0 0 0-.258.2.78.78 0 0 0-.209.583.3.3 0 0 0 0 .075.83.83 0 0 0 .259.492l3.975 3.483a1.403 1.403 0 1 1-1.917 2.05l-.092-.092-3.333-3.333a.837.837 0 1 0-1.183 1.183l3.333 3.334a.925.925 0 0 1 0 1.316.967.967 0 0 1-1.325 0l-.717-.725-.933-.933a.833.833 0 0 0-1.183 0 .833.833 0 0 0 0 1.183l.933.934c.205.195.32.467.317.75a1.067 1.067 0 0 1-1.667.833l-2.217-1.717.517-1.133a2.5 2.5 0 0 0-1.225-3.333 2.5 2.5 0 0 0-1.417-.192 3 3 0 0 0-.125-.492 2.9 2.9 0 0 0-3.291-1.85 2.908 2.908 0 0 0-3.892-2.383 2.95 2.95 0 0 0-1.075.708 2.5 2.5 0 0 0-.933-.733 2.65 2.65 0 0 0-3.517 1.292l-.308.683-1.367-.65L11.9 26.4c1.238.591 2.569.964 3.933 1.1a9.7 9.7 0 0 0 1.809-.283c.466-.1.966-.2 1.491-.284L17.767 30a2.967 2.967 0 0 0 1.4 3.85h.083a2.95 2.95 0 0 0 3.483-.725l3.292-3.667 10.708 9.509a1.516 1.516 0 0 1 .067 2.216zm.833-3.658-12.083-10.6a.833.833 0 0 0-1.1 1.25l.3.267-3.283 3.658a1.32 1.32 0 0 1-1.567.317h-.058a1.317 1.317 0 0 1-.559-1.667l1.934-4.283a8.3 8.3 0 0 1 1.925-2.675 3.15 3.15 0 0 1 4-.234l5.075 3.7a4.17 4.17 0 0 0 3.891.517l2.5-.925 4.559 8.425zm10.092 1.667a.83.83 0 0 1-.733-.4l-8.559-15.834a.65.65 0 0 1-.041-.541.75.75 0 0 1 .45-.434l9.491-3.658v20.892z"/><path d="M25.001 15a3.333 3.333 0 1 0 0-6.666 3.333 3.333 0 0 0 0 6.666m0-5a1.667 1.667 0 1 1 0 3.334 1.667 1.667 0 0 1 0-3.334"/></g><defs><clipPath id="a"><path fill="#fff" d="M0 0h50v50H0z"/></clipPath></defs></svg>