<svg xmlns="http://www.w3.org/2000/svg" width="50" height="50" fill="none"><path fill="#000" d="M25 1.563a3.124 3.124 0 1 0 0 6.25 3.124 3.124 0 1 0 0-6.25m0 1.562c.854 0 1.564.687 1.564 1.56a1.564 1.564 0 1 1-3.128 0c0-.873.71-1.56 1.564-1.56M19.746 6.25 9.285 11.076c-.943.414-.31 1.86.655 1.42l10.463-4.827c.729-.326.54-1.435-.277-1.494a.76.76 0 0 0-.38.075m20.315 6.245c.964.441 1.597-1.005.654-1.419L30.254 6.25a.8.8 0 0 0-.38-.075c-.817.06-1.006 1.168-.276 1.494zm-17.109-2.018c-.583.282-.799.718-.928 1.026-.128.309-.178.483-.34.68-.161.199-.456.452-1.137.74-.683.288-1.08.329-1.344.31-.263-.017-.42-.097-.72-.213s-.766-.265-1.344-.075c-.523.173-1.037.587-1.609 1.166-.62.628-.994 1.146-1.142 1.62-.181.577-.018 1.04.103 1.337.122.297.203.456.226.716.024.26-.012.66-.289 1.344-.277.685-.528.994-.726 1.164s-.366.223-.657.347c-.38.16-.758.384-1.01.871-.23.443-.324 1.062-.316 1.926-.006.793.064 1.44.315 1.925.253.487.634.712 1.01.872.292.123.452.173.65.343.196.17.457.482.734 1.167.273.672.309 1.068.289 1.328s-.096.416-.214.697c-.142.339-.274.762-.139 1.28.1.38.301.73.626 1.125-.532.872-.95 1.8-1.24 2.804a6.2 6.2 0 0 0-2.185-1.974 3.9 3.9 0 0 0 .933-2.535 3.904 3.904 0 0 0-3.904-3.907 3.91 3.91 0 0 0-3.911 3.907c0 .968.352 1.85.938 2.535a6.24 6.24 0 0 0-3.277 5.519v.917a3.52 3.52 0 0 0 3.514 3.529h5.467c.723 0 1.396-.216 1.956-.595v2.945c0 .938.295 1.857 1.01 2.461s1.762.793 2.959.56q.027-.006.052-.012l7.693-2.07 7.724 2.076c1.223.24 2.24.076 2.988-.554.715-.602 1.012-1.517 1.012-2.45v-2.953c.56.38 1.233.592 1.956.592h5.467a3.52 3.52 0 0 0 3.514-3.529v-.917a6.24 6.24 0 0 0-3.277-5.519 3.88 3.88 0 0 0 .938-2.534 3.91 3.91 0 0 0-3.91-3.908 3.904 3.904 0 0 0-3.905 3.908c0 .966.35 1.85.933 2.534a6.17 6.17 0 0 0-2.188 1.977 11.6 11.6 0 0 0-1.239-2.813c.326-.395.528-.738.627-1.119.135-.518.003-.941-.139-1.28-.117-.28-.193-.438-.213-.697-.02-.26.014-.656.288-1.328.278-.684.538-.996.736-1.167.197-.17.357-.22.648-.343.377-.16.758-.385 1.01-.871s.323-1.133.316-1.926c.006-.863-.086-1.483-.316-1.926-.252-.486-.63-.71-1.01-.87-.29-.124-.46-.177-.657-.347-.198-.17-.449-.48-.727-1.165-.278-.684-.31-1.084-.288-1.344s.104-.419.226-.715c.122-.297.284-.76.103-1.337-.148-.474-.523-.993-1.143-1.62-.57-.58-1.086-.994-1.608-1.166-.578-.191-1.045-.042-1.344.075s-.457.195-.72.213-.661-.024-1.345-.311c-.68-.288-.975-.54-1.136-.739-.162-.198-.212-.372-.34-.68-.13-.309-.345-.745-.928-1.027-.507-.246-1.114-.322-2.048-.322s-1.541.076-2.048.322m-18.265.459a3.12 3.12 0 0 0-3.125 3.122 3.13 3.13 0 0 0 3.125 3.128 3.124 3.124 0 1 0 0-6.25m40.626 0a3.124 3.124 0 1 0 0 6.25 3.13 3.13 0 0 0 3.124-3.128 3.12 3.12 0 0 0-3.124-3.122m-18.946.943c.108.052.118.136.168.23.086.208.22.63.57 1.06.352.431.892.839 1.735 1.195.842.356 1.512.47 2.065.432s.962-.232 1.183-.317c.13-.051.196-.08.282-.052.112.037.397.182.987.78.563.57.727.88.761.991.024.093-.014.174-.057.276-.074.18-.286.619-.334 1.17-.049.553.053 1.227.396 2.071s.734 1.397 1.154 1.76c.42.362.849.512 1.068.605.124.053.182.058.23.15s.157.398.15 1.205c.005.76-.086 1.082-.15 1.206-.048.092-.135.109-.23.149-.22.093-.648.243-1.068.606-.42.362-.81.914-1.154 1.76-.336.828-.438 1.488-.396 2.035.041.546.22.918.328 1.176.045.129.09.201.068.288-.006.024-.04.107-.07.165a11.75 11.75 0 0 0-4.338-3.277 6.22 6.22 0 0 0 1.537-4.106c0-3.443-2.81-6.25-6.252-6.25s-6.251 2.807-6.251 6.25c0 1.57.575 3.005 1.536 4.106a11.74 11.74 0 0 0-4.338 3.277 1 1 0 0 1-.07-.165c-.024-.087.023-.159.068-.288.108-.258.287-.63.329-1.177.041-.546-.06-1.206-.397-2.035-.343-.845-.734-1.397-1.154-1.76-.42-.362-.849-.512-1.068-.605-.096-.04-.182-.057-.23-.15-.064-.123-.156-.445-.15-1.205-.005-.807.102-1.113.15-1.205s.106-.097.23-.15c.22-.093.648-.243 1.068-.605.42-.363.811-.915 1.154-1.76.343-.844.445-1.518.397-2.07-.049-.552-.26-.991-.335-1.17-.041-.103-.082-.185-.057-.277.034-.11.198-.421.761-.992.59-.597.875-.742.987-.78.086-.029.152.002.283.053.22.085.629.279 1.182.317.553.039 1.223-.076 2.065-.432.844-.356 1.384-.764 1.735-1.194.35-.43.484-.853.57-1.06.05-.095.06-.18.168-.231.126-.061.538-.162 1.367-.162.83 0 1.241.1 1.367.162m-21.68.62c.854 0 1.565.686 1.565 1.559a1.564 1.564 0 1 1-3.127 0c0-.873.709-1.56 1.562-1.56m40.626 0a1.563 1.563 0 1 1-.001 3.124 1.563 1.563 0 0 1 0-3.125m-39.219 5.96a.78.78 0 0 0-.8.991l1.373 5.202c.24 1.048 1.817.634 1.51-.397l-1.373-5.202a.78.78 0 0 0-.71-.595m37.812 0a.78.78 0 0 0-.71.594l-1.373 5.202c-.307 1.031 1.27 1.445 1.51.397l1.374-5.202a.78.78 0 0 0-.801-.992M25 18.748a4.688 4.688 0 1 1 0 9.376 4.688 4.688 0 1 1 0-9.375M8.594 28.124a2.34 2.34 0 0 1 2.34 2.345 2.34 2.34 0 0 1-2.34 2.342 2.343 2.343 0 1 1 0-4.687m32.812 0a2.343 2.343 0 1 1 0 4.687 2.34 2.34 0 0 1-2.34-2.342 2.34 2.34 0 0 1 2.34-2.345M19.533 40.978v-2.705c-.024-1.019-1.54-1.019-1.563 0v3.106l-.195.05c-1.011.258-.625 1.775.386 1.517l11.81-3.033c.901-.231 1.778.29 2.007 1.147a1.635 1.635 0 0 1-1.158 2.008l-13.87 3.737h-.006c-.888.171-1.365.015-1.644-.22-.28-.236-.454-.645-.454-1.267v-7.036a10.14 10.14 0 0 1 6.771-9.587 6.25 6.25 0 0 0 6.762.002 10.12 10.12 0 0 1 6.778 9.585v7.046c0 .615-.176 1.022-.457 1.258-.279.235-.756.39-1.643.22l-5.05-1.36 3.216-.867a3.197 3.197 0 0 0 2.261-3.917 3.17 3.17 0 0 0-1.454-1.922v-.467c-.024-1.02-1.54-1.01-1.562.026a3 3 0 0 0-.889.097zm8.593-7.385c-1.018.024-1.018 1.54 0 1.563h2.341c1.019-.024 1.019-1.54 0-1.563zm-21.046.473c.435.19.984.307 1.514.307s1.057-.117 1.517-.307c1.855.623 3.17 2.396 3.17 4.456v.917a1.95 1.95 0 0 1-1.956 1.966H5.858a1.955 1.955 0 0 1-1.952-1.966v-.917a4.69 4.69 0 0 1 3.174-4.456m32.81 0a3.9 3.9 0 0 0 1.516.308c.53 0 1.063-.109 1.514-.308a4.69 4.69 0 0 1 3.174 4.456v.917a1.955 1.955 0 0 1-1.952 1.966h-5.467a1.96 1.96 0 0 1-1.956-1.966v-.917c0-2.06 1.315-3.833 3.17-4.456"/></svg>