<svg xmlns="http://www.w3.org/2000/svg" width="50" height="50" fill="none"><g clip-path="url(#a)"><path fill="#000" d="M42.032 35.972a6.14 6.14 0 0 0 3.346-5.46 6.13 6.13 0 0 0-2.701-5.08l2.713-6.295a3.77 3.77 0 1 0 .742-7.466c-1.14 0-2.165.51-2.856 1.314L28.61 4.954A3.774 3.774 0 0 0 25 .098a3.774 3.774 0 0 0-3.61 4.856L6.725 12.985a3.76 3.76 0 0 0-2.857-1.314 3.774 3.774 0 0 0-3.77 3.77 3.774 3.774 0 0 0 4.512 3.696l2.713 6.294a6.13 6.13 0 0 0-2.7 5.08 6.14 6.14 0 0 0 3.345 5.46C3.706 37.137.446 40.899.102 45.482c-.03.408.11.813.388 1.112.277.299.67.47 1.08.47h11.56a12 12 0 0 0-.144 1.155c-.033.435.118.866.413 1.184s.714.5 1.15.5H35.45c.436 0 .855-.182 1.15-.5s.446-.75.413-1.184a12 12 0 0 0-.143-1.155h11.56c.409 0 .802-.171 1.08-.47.276-.299.418-.704.387-1.112-.344-4.583-3.604-8.345-7.866-9.51m1.783-5.46c0 2.52-2.05 4.57-4.57 4.57s-4.57-2.05-4.57-4.57 2.05-4.57 4.57-4.57 4.57 2.05 4.57 4.57m2.318-17.279a2.21 2.21 0 0 1 2.207 2.208 2.21 2.21 0 0 1-2.208 2.207 2.21 2.21 0 0 1-2.207-2.207 2.21 2.21 0 0 1 2.208-2.208M25 1.66a2.21 2.21 0 0 1 2.207 2.208A2.21 2.21 0 0 1 25 6.075a2.21 2.21 0 0 1-2.207-2.207A2.21 2.21 0 0 1 25 1.66M1.66 15.44a2.21 2.21 0 0 1 2.208-2.207 2.21 2.21 0 0 1 2.207 2.208 2.21 2.21 0 0 1-2.207 2.207 2.21 2.21 0 0 1-2.208-2.207m4.384 3.076a3.77 3.77 0 0 0 1.433-4.162l14.666-8.031a3.762 3.762 0 0 0 5.714 0l14.666 8.031a3.767 3.767 0 0 0 1.433 4.161l-2.677 6.212a6.1 6.1 0 0 0-2.034-.348 6.14 6.14 0 0 0-6.133 6.133 6.14 6.14 0 0 0 3.344 5.459 10.67 10.67 0 0 0-4.988 3.004 12 12 0 0 0-3.606-1.554 6.88 6.88 0 0 0 4.009-6.244 6.88 6.88 0 0 0-6.87-6.87 6.88 6.88 0 0 0-6.871 6.87 6.88 6.88 0 0 0 4.009 6.244c-1.294.32-2.51.85-3.607 1.554a10.67 10.67 0 0 0-4.988-3.004 6.14 6.14 0 0 0 3.344-5.46 6.14 6.14 0 0 0-6.133-6.132c-.713 0-1.397.123-2.034.348zM25 36.486a5.314 5.314 0 0 1-5.308-5.309A5.314 5.314 0 0 1 25 25.87a5.314 5.314 0 0 1 5.308 5.308A5.314 5.314 0 0 1 25 36.485M6.185 30.511c0-2.52 2.05-4.57 4.57-4.57s4.57 2.05 4.57 4.57-2.05 4.57-4.57 4.57-4.57-2.05-4.57-4.57M1.668 45.5c.402-4.685 4.374-8.34 9.087-8.34 2.461 0 4.792.993 6.509 2.748a12.1 12.1 0 0 0-3.752 5.592zm12.876 2.838v-.004c.408-5.439 5-9.7 10.456-9.7s10.048 4.261 10.451 9.705zm21.944-2.838a12.1 12.1 0 0 0-3.752-5.592 9.08 9.08 0 0 1 6.509-2.748c4.712 0 8.685 3.655 9.087 8.34zM21.516 16.994h.941v5.35c0 .67.544 1.214 1.213 1.214h2.66c.669 0 1.213-.544 1.213-1.213v-5.351h.94c.48 0 .91-.268 1.123-.7.211-.43.16-.933-.134-1.313l-3.484-4.508A1.24 1.24 0 0 0 25 9.988c-.39 0-.75.177-.988.485l-3.484 4.508c-.294.38-.345.883-.134 1.313.212.432.642.7 1.122.7M25 11.749l2.845 3.682h-1.083a.78.78 0 0 0-.782.782v5.782h-1.96v-5.782a.78.78 0 0 0-.782-.782h-1.083zM11.112 22.356c0 .61.496 1.107 1.107 1.107h2.006c.61 0 1.107-.496 1.107-1.107v-3.844h.517c.437 0 .827-.243 1.02-.636.192-.39.145-.846-.122-1.192l-2.628-3.4a1.13 1.13 0 0 0-.897-.44c-.354 0-.681.16-.897.44l-2.628 3.4a1.13 1.13 0 0 0-.122 1.192c.193.393.583.636 1.019.636h.518zm2.11-7.678 1.755 2.271h-.426a.78.78 0 0 0-.781.782v4.17h-1.095v-4.17a.78.78 0 0 0-.782-.781h-.426zm20.928 3.834h.518v3.844c0 .61.496 1.107 1.107 1.107h2.006c.61 0 1.107-.496 1.107-1.107v-3.844h.517c.437 0 .827-.243 1.02-.636.192-.39.145-.846-.122-1.192l-2.627-3.4a1.13 1.13 0 0 0-.898-.44c-.354 0-.68.16-.897.44l-2.628 3.4a1.13 1.13 0 0 0-.122 1.192c.193.393.583.636 1.019.636m2.628-3.834 1.755 2.271h-.426a.78.78 0 0 0-.781.782v4.17H36.23v-4.17a.78.78 0 0 0-.78-.781h-.427z"/></g><defs><clipPath id="a"><path fill="#fff" d="M0 0h50v50H0z"/></clipPath></defs></svg>