<svg xmlns="http://www.w3.org/2000/svg" width="50" height="50" fill="none"><g fill="#000" clip-path="url(#a)"><path d="M49.219 40.625h-4.035c.084-.244.128-.5.129-.758V25.781a.781.781 0 1 0-1.563 0v14.086a.757.757 0 0 1-.758.758h-7.054V38.25a14.11 14.11 0 0 0-10.329-13.52 7.5 7.5 0 0 0 3.688-6.37V8.593a4.063 4.063 0 0 0-3.906-3.906h-7.032a4.063 4.063 0 0 0-3.906 3.906v9.765a7.5 7.5 0 0 0 3.703 6.38 13.96 13.96 0 0 0-6.011 3.515 14.53 14.53 0 0 0-4.332 10.289v2.082h-.805a.76.76 0 0 1-.758-.758V14.82a.76.76 0 0 1 .758-.758h5.101a.781.781 0 1 0 0-1.562H7.008a2.343 2.343 0 0 0-2.32 2.32v25.047c0 .258.044.514.128.758H.781a.78.78 0 0 0-.781.781v.196c0 1.757 1.418 3.71 3.32 3.71h43.36c1.902 0 3.32-1.953 3.32-3.71v-.196a.78.78 0 0 0-.781-.781M16.016 8.594a2.5 2.5 0 0 1 2.343-2.344h7.032a2.5 2.5 0 0 1 2.343 2.344V12.5H16.016zm0 9.765v-4.297h11.718v4.297a6.01 6.01 0 0 1-5.859 5.86 6.01 6.01 0 0 1-5.86-5.86M9.375 38.543a12.97 12.97 0 0 1 3.863-9.176 12.6 12.6 0 0 1 3.825-2.586c-.391 1.051-.711 2.262-.891 2.961a3.42 3.42 0 0 0-2.89 3.461v5.078a.78.78 0 0 0 .78.782h.782a.781.781 0 1 0 0-1.563v-4.297a1.886 1.886 0 0 1 1.953-1.953 1.89 1.89 0 0 1 1.953 1.953V37.5a.781.781 0 1 0 0 1.563h.781a.78.78 0 0 0 .782-.782v-5.078a3.42 3.42 0 0 0-2.543-3.387c.308-1.171.82-2.894 1.261-3.636 0-.024.02-.047.032-.067.99-.238 2.008-.35 3.027-.332 1.319.024 2.626.259 3.87.696.802 1.445 1.173 3.515 1.31 4.558a2.887 2.887 0 1 0 1.562-.027 20 20 0 0 0-.781-3.567 12.52 12.52 0 0 1 6.289 10.813l.035 2.371h-25zm18.75-6.07a1.324 1.324 0 1 1 0 2.648 1.324 1.324 0 0 1 0-2.648M46.68 43.75H3.32c-.761 0-1.433-.781-1.668-1.562h46.696c-.235.8-.907 1.562-1.668 1.562"/><path d="M47.658 7.813h-12.5a2.343 2.343 0 0 0-2.344 2.343v5.602c0 3.082-.899 5.12-2.735 6.23a.781.781 0 0 0 .391 1.45h17.188A2.343 2.343 0 0 0 50 21.094V10.156a2.343 2.343 0 0 0-2.343-2.344m.78 13.28a.78.78 0 0 1-.78.782H32.579c1.207-1.453 1.797-3.477 1.797-6.117v-5.602a.78.78 0 0 1 .782-.781h12.5a.78.78 0 0 1 .78.781z"/><path d="M44.531 12.5h-6.25a.781.781 0 1 0 0 1.563h6.25a.781.781 0 1 0 0-1.563M42.969 17.188H38.28a.781.781 0 1 0 0 1.562h4.688a.781.781 0 1 0 0-1.562M23.047 8.594h-.39v-.39a.781.781 0 1 0-1.563 0v.39h-.39a.781.781 0 1 0 0 1.562h.39v.39a.781.781 0 1 0 1.562 0v-.39h.39a.781.781 0 1 0 0-1.562"/></g><defs><clipPath id="a"><path fill="#fff" d="M0 0h50v50H0z"/></clipPath></defs></svg>