<svg xmlns="http://www.w3.org/2000/svg" width="60" height="60" fill="none"><path fill="#282928" d="M52.8 9.137a2.153 2.153 0 1 0 0-4.31 2.153 2.153 0 1 0 0 4.31m0-2.773a.629.629 0 0 1 0 1.255.617.617 0 0 1-.628-.627c0-.355.282-.628.627-.628z"/><path fill="#282928" d="M55.19 1.346H10.9A3.06 3.06 0 0 0 7.844 4.4v4.664H4.808a3.06 3.06 0 0 0-3.054 3.054v38.3a3.06 3.06 0 0 0 3.054 3.055h20.3v4.418a.77.77 0 0 0 .764.764h14.346a.77.77 0 0 0 .763-.764v-4.418H49.1a3.06 3.06 0 0 0 3.055-3.055v-4.663h3.036a3.06 3.06 0 0 0 3.055-3.055V4.4a3.06 3.06 0 0 0-3.055-3.054zM9.372 4.4a1.53 1.53 0 0 1 1.527-1.527H55.19c.846 0 1.528.69 1.528 1.527v6.7H27.736l-3.41-3.536a1.4 1.4 0 0 0-1-.427h-7.508c-.764 0-1.391.627-1.391 1.39V11.1H9.372zM4.808 51.955a1.53 1.53 0 0 1-1.527-1.527v-38.31a1.53 1.53 0 0 1 1.527-1.527h3.037V42.71a3.06 3.06 0 0 0 3.054 3.055h16.582c.3.582.436 1.236.382 1.909h-1.182c-.873 0-1.573.71-1.573 1.573v2.709h-20.3zM32.29 35.964a.86.86 0 0 1 .755-.446c.472 0 .854.382.854.855a.86.86 0 0 1-.427.745c-.29.173-.636.155-.99-.045a.25.25 0 0 1-.11-.11c-.29-.463-.173-.826-.082-1zm-.009-1.827a2.36 2.36 0 0 0-1.318 1.09c-.436.782-.382 1.737.127 2.555.164.255.382.464.646.618.418.237.872.364 1.318.364.418 0 .827-.11 1.19-.318a2.4 2.4 0 0 0 1.183-2.064 2.38 2.38 0 0 0-1.618-2.245v-3.928L40.563 42.4c-.01.01-.018.028-.046.037-2.39.618-3.954 2.854-3.827 5.236h-7.28c.136-2.39-1.437-4.627-3.873-5.31L32.28 30.21zm7.173 22.99H26.636l.045-7.936h12.727c.028 0 .046.018.046.046zm11.173-6.709a1.53 1.53 0 0 1-1.528 1.528h-8.118v-2.71c0-.872-.709-1.572-1.573-1.572h-1.181a3.6 3.6 0 0 1 .382-1.91h12.018zm4.563-6.181h-15.1a3.3 3.3 0 0 1 .8-.328 1.62 1.62 0 0 0 1.073-.918c.19-.445.164-.945-.073-1.373l-7.818-14.081c-.2-.373-.59-.61-1.018-.61a1.2 1.2 0 0 0-1.037.6L24.19 41.618A1.57 1.57 0 0 0 24.127 43c.19.455.582.782 1.063.91.291.072.546.19.8.327H10.9a1.53 1.53 0 0 1-1.528-1.528V12.627h5.182c.764 0 1.39-.627 1.39-1.39V8.664h7.319l3.41 3.536c.263.273.626.428 1 .428h29.045V42.7c0 .846-.682 1.537-1.528 1.537"/><path fill="#282928" d="M47.6 9.137a2.153 2.153 0 1 0 0-4.31 2.153 2.153 0 0 0-2.155 2.156c0 1.19.964 2.154 2.155 2.154m0-2.773a.629.629 0 0 1 0 1.255.617.617 0 0 1-.627-.627c0-.355.281-.628.627-.628m-5.21 2.773a2.153 2.153 0 1 0 0-4.31 2.155 2.155 0 0 0 .001 4.31zm0-2.773a.629.629 0 0 1 0 1.255.617.617 0 0 1-.626-.627c0-.355.281-.628.627-.628zm5.374 12.918a3.04 3.04 0 0 0-.836 1.609H36.246v-1.2c0-.818-.664-1.482-1.482-1.482H31.32c-.819 0-1.482.664-1.482 1.482v1.2H19.164a3.03 3.03 0 0 0-.836-1.618c-1.155-1.137-3.127-1.119-4.255.009a2.99 2.99 0 0 0-.882 2.127c0 .81.319 1.573.882 2.127a2.94 2.94 0 0 0 2.128.891c.5 0 1.009-.118 1.49-.363a2.68 2.68 0 0 0 1.2-1.237 4 4 0 0 0 .164-.409h7.41c-4.028 1.964-7.064 5.655-8.119 10.11h-1.182c-.818 0-1.482.663-1.482 1.481v3.445c0 .819.664 1.482 1.482 1.482h3.446c.818 0 1.481-.663 1.481-1.482V34.01c0-.818-.663-1.482-1.481-1.482h-.691a13.64 13.64 0 0 1 9.945-9.727v.327c0 .818.664 1.482 1.482 1.482h3.445c.819 0 1.482-.664 1.482-1.482V22.8c4.818 1.163 8.664 4.927 9.946 9.727h-.628c-.818 0-1.481.664-1.481 1.482v3.445c0 .819.663 1.482 1.481 1.482h3.446c.818 0 1.482-.663 1.482-1.482V34.01c0-.818-.664-1.482-1.482-1.482H47.79a15.2 15.2 0 0 0-8.118-10.109H47.1c.146.418.382.8.7 1.118a2.94 2.94 0 0 0 2.128.891c.5 0 1.009-.118 1.49-.363.519-.264.946-.7 1.2-1.237.592-1.245.383-2.6-.554-3.554-1.19-1.128-3.163-1.119-4.3.009zm-30.264 2.9c-.109.218-.29.409-.509.518-.79.4-1.472.145-1.845-.246a1.44 1.44 0 0 1-.436-1.045c0-.39.154-.764.436-1.055a1.48 1.48 0 0 1 1.055-.436c.39 0 .772.155 1.045.427.473.491.564 1.173.255 1.837zm3.091 15.227-3.4.045-.045-3.4h3.4zm28.419 0-3.4.045-.046-3.4h3.4zM31.373 23.136l-.018-1.145a.8.8 0 0 0 .01-.255v-.009c0-.027.017-.045.017-.073 0-.045-.018-.081-.027-.118l-.027-1.79h3.4l.027 1.79c-.009.046-.027.082-.027.127 0 .028.009.046.018.073v.01a.8.8 0 0 0 .018.327l.018 1.027zm19.827-.954c-.109.218-.29.409-.509.518-.79.4-1.472.145-1.845-.246a1.44 1.44 0 0 1-.436-1.045c0-.39.154-.764.436-1.055a1.48 1.48 0 0 1 1.055-.436c.39 0 .772.155 1.045.427.473.491.564 1.173.255 1.837z"/></svg>