<svg xmlns="http://www.w3.org/2000/svg" width="60" height="60" fill="none"><path fill="#282928" d="m15.027 18.717 2.063.356c.073.944.27 1.886.619 2.752l-1.922 1.12c-.91.53-1.219 1.7-.69 2.61l1.153 1.98a1.91 1.91 0 0 0 2.609.69l1.805-1.132c.684.72 1.452 1.36 2.255 1.771l-.76 2.11c-.173.479-.149.997.068 1.46.217.46.601.809 1.081.983l2.157.774q.32.115.648.116a1.908 1.908 0 0 0 1.793-1.263l.715-1.985c.504.063.953.092 1.393.092.467-.003.931-.03 1.46-.101l.728 1.982a1.915 1.915 0 0 0 2.451 1.128l2.146-.79a1.903 1.903 0 0 0 1.135-2.452l-.797-1.97c.824-.549 1.586-1.195 2.13-1.917l1.95 1.117a1.92 1.92 0 0 0 2.606-.709l1.137-1.99c.52-.914.204-2.08-.708-2.604l-1.869-.983c.295-.964.476-1.928.54-2.878l2.062-.372a1.91 1.91 0 0 0 1.537-2.215l-.405-2.256a1.9 1.9 0 0 0-.79-1.23c-.418-.29-.916-.4-1.426-.31l-2.072.44c-.4-.907-.907-1.769-1.525-2.428L41.74 8.89c.328-.392.483-.889.436-1.397a1.9 1.9 0 0 0-.679-1.292l-1.76-1.469a1.92 1.92 0 0 0-1.398-.434c-.507.047-.966.29-1.292.68l-1.302 1.676c-.9-.454-1.84-.799-2.73-.91l-.008-2.223a1.91 1.91 0 0 0-1.91-1.9h-.005l-2.29.009c-.51 0-.99.2-1.35.564-.36.361-.556.842-.553 1.35l.073 2.104c-.95.232-1.889.583-2.661 1.088l-1.443-1.71a1.9 1.9 0 0 0-1.3-.669c-.497-.044-1 .118-1.39.444l-1.751 1.48a1.915 1.915 0 0 0-.226 2.69l1.427 1.58c-.597.803-1.097 1.67-1.36 2.527l-2.202-.38a1.88 1.88 0 0 0-1.424.321 1.9 1.9 0 0 0-.78 1.233l-.391 2.26a1.9 1.9 0 0 0 .321 1.425c.294.417.733.694 1.236.78m.697-4.04 2.203.38a1.9 1.9 0 0 0 2.06-1.137c.327-.762.748-1.493 1.254-2.175a1.896 1.896 0 0 0-.06-2.358l-1.458-1.572 1.609-1.493 1.444 1.711c.574.673 1.53.86 2.318.448a11 11 0 0 1 2.352-.881 1.895 1.895 0 0 0 1.467-1.84l-.107-2.122 2.192-.108.007 2.22c.003.872.61 1.625 1.477 1.832.806.192 1.6.482 2.362.867.8.4 1.748.207 2.315-.467l1.292-1.706 1.745 1.326-1.439 1.727a1.9 1.9 0 0 0-.037 2.357c.505.672.934 1.4 1.268 2.16a1.89 1.89 0 0 0 2.067 1.127l2.086-.477.488 2.14-2.864.515c-.434.078-.75.562-.806 1.013h-.02v.003a10.5 10.5 0 0 1-.478 3.11c-.26.86.093 1.768.86 2.206l1.893.97-1 1.95-1.95-1.116a1.9 1.9 0 0 0-2.328.368 10.8 10.8 0 0 1-1.915 1.622 1.896 1.896 0 0 0-.745 2.23l.83 1.977-2.022.85-1.01-2.752a1.005 1.005 0 0 0-1.12-.64c-.766.137-1.356.2-1.914.201-.548.031-1.147-.056-1.913-.188a1 1 0 0 0-1.117.648l-.866 2.7-2.096-.648.76-2.11a1.9 1.9 0 0 0-.763-2.228c-.7-.458-1.348-.999-1.926-1.608a1.89 1.89 0 0 0-2.33-.35l-1.804 1.166-1.189-1.845 1.921-1.119a1.89 1.89 0 0 0 .847-2.213 10.5 10.5 0 0 1-.497-3.125c0-.49-.352-.906-.834-.99l-2.785-.378z"/><path fill="#282928" d="M22.222 24.202c.44.336 1.072.25 1.408-.19l2.616-3.406c.637-.836 1.106-1.454 1.315-1.704.267-.32.309-.772.104-1.137a4.7 4.7 0 0 1-.586-1.958c-.147-2.248 1.466-4.343 3.688-4.774h.008l-2.077 2.566c-.826 1.042-.666 2.547.356 3.356l1.744 1.37c.493.404 1.101.583 1.739.526a2.32 2.32 0 0 0 1.583-.872l2.038-2.532v.225c-.081 2.101-1.643 3.915-3.705 4.313-.685.127-1.391.082-2.165-.14-.471-.128-1.01.11-1.22.553-.414.554-2.164 2.867-3.802 4.968a1.006 1.006 0 0 0 1.584 1.236 314 314 0 0 0 3.565-4.663c.827.159 1.635.166 2.41.018 2.977-.573 5.223-3.184 5.34-6.225a6.9 6.9 0 0 0-.4-2.482c-.117-.336-.57-.718-.918-.787-.451-.086-.89.069-1.216.436l-3.077 3.825a.34.34 0 0 1-.23.13c-.062.016-.157-.003-.27-.095l-1.757-1.38c-.139-.11-.135-.394-.03-.526l3.157-3.91a1.27 1.27 0 0 0 .096-1.215c-.14-.307-.586-.652-.92-.706a6.2 6.2 0 0 0-2.228.043c-3.236.625-5.514 3.58-5.296 6.882.056.767.234 1.5.532 2.187-.249.32-.575.75-.96 1.255l-2.617 3.406a1.004 1.004 0 0 0 .191 1.407M11.179 41.41A3.193 3.193 0 0 0 7.99 44.6c0 1.76 1.43 3.192 3.189 3.192s3.19-1.432 3.19-3.192c0-1.758-1.431-3.19-3.19-3.19m0 4.372A1.182 1.182 0 1 1 12.36 44.6c0 .652-.532 1.181-1.182 1.181"/><path fill="#282928" d="M56.55 37.774a3.47 3.47 0 0 0-2.181-1.584 3.48 3.48 0 0 0-2.663.442l-.264.166a3.557 3.557 0 0 0-5.884-2.157l-1.074.956a3 3 0 0 0-.53-.804 2.947 2.947 0 0 0-4.081-.272l-6.541 5.487a5 5 0 0 1-.79-.356l-2.436-1.365c-3.719-2.59-7.612-.728-7.727-.672l-5.427 2.291a3.16 3.16 0 0 0-2.506-1.24H6.09a3.165 3.165 0 0 0-3.16 3.164v13.386a3.163 3.163 0 0 0 3.16 3.16h8.356a3.163 3.163 0 0 0 3.16-3.16v-2.882l3.1-1.946a1.64 1.64 0 0 1 1.681-.037l3.84 2.185a10.14 10.14 0 0 0 6.658 1.189l7.943-1.314a6.46 6.46 0 0 0 2.766-1.165l12.042-8.828a3.48 3.48 0 0 0 .915-4.644m-12.483.883 2.825-2.516c.328-.294.745-.419 1.196-.382a1.544 1.544 0 0 1 .96 2.592l-.003.004q-.114.12-.256.219l-5.978 4.074a3.34 3.34 0 0 0-1.246-1.744l2.157-1.89q.19-.166.345-.357m-2.905-2.596a.947.947 0 0 1 1.312.088.944.944 0 0 1 .103 1.145l-3.345 2.98h-3.093zM15.599 55.215c0 .635-.518 1.15-1.153 1.15H6.09a1.15 1.15 0 0 1-1.152-1.15V41.83c0-.635.517-1.152 1.152-1.152h8.356c.635 0 1.153.517 1.153 1.152zM54.447 40.8l-12.04 8.828a4.5 4.5 0 0 1-1.907.802l-7.943 1.314a8.1 8.1 0 0 1-5.338-.954l-3.839-2.184a3.64 3.64 0 0 0-3.742.08l-2.031 1.276v-8.153l5.602-2.365c.122-.059 3.016-1.412 5.83.542l2.515 1.417a6.85 6.85 0 0 0 3.354.882h4.705c.681 0 1.25.513 1.326 1.19a1.34 1.34 0 0 1-1.071 1.45l-1.721.361c-.06.025-5.877 2.533-10.725.027a1.005 1.005 0 0 0-.922 1.785c1.958 1.012 4.009 1.346 5.86 1.346 3.536 0 6.343-1.219 6.382-1.253l1.508-.294a3.34 3.34 0 0 0 2.246-1.605l7.423-5.059q.291-.198.533-.443l2.324-1.457c.34-.21.74-.28 1.132-.188.39.093.719.33.93.676a1.484 1.484 0 0 1-.39 1.979"/></svg>