<svg xmlns="http://www.w3.org/2000/svg" width="60" height="60" fill="none"><path fill="#282928" d="M24.334 6.839h4.484a.882.882 0 0 0 0-1.765h-4.485a.882.882 0 0 0 0 1.765M20.334 54.339h7.999a.882.882 0 0 0 0-1.765h-8a.882.882 0 0 0 0 1.765"/><path fill="#282928" d="M8.96 50.56a.88.88 0 0 0 .883-.882v-39.53h28.982v11.539a.882.882 0 1 0 1.764 0c0-1.062 0-3.744.005-16.41a3.523 3.523 0 0 0-3.519-3.511H11.591c-1.845 0-3.513 1.517-3.513 3.514v44.398c0 .488.395.883.882.883M37.073 3.53a1.76 1.76 0 0 1 1.752 1.75v3.103H9.843V5.277c0-.962.789-1.747 1.75-1.747z"/><path fill="#282928" d="M29.78 23.996a.88.88 0 0 0 1.247-.006l3.687-3.722a.88.88 0 0 0 0-1.242l-3.687-3.722a.883.883 0 0 0-1.254 1.242l3.072 3.101-3.072 3.101a.88.88 0 0 0 .006 1.248M18.888 15.3a.88.88 0 0 0-1.248.005l-3.687 3.722a.88.88 0 0 0 0 1.242l3.687 3.722a.882.882 0 1 0 1.254-1.242l-3.072-3.101 3.072-3.101a.88.88 0 0 0-.006-1.248M25.755 12.808 20.576 25.84a.882.882 0 1 0 1.64.652l5.18-13.033a.882.882 0 1 0-1.64-.651M39.71 29.152a4.69 4.69 0 0 0-4.685 4.686c0 2.61 2.128 4.685 4.686 4.685a4.686 4.686 0 0 0 0-9.37m.883 7.465v-2.362a.885.885 0 0 0-.882-.882.88.88 0 0 0-.883.882v2.37a2.924 2.924 0 0 1 .882-5.709 2.92 2.92 0 0 1 2.912 2.922 2.91 2.91 0 0 1-2.029 2.78"/><path fill="#282928" d="m51.137 31.052-2.17-.247a9.7 9.7 0 0 0-.636-1.5l1.27-1.8a.87.87 0 0 0-.088-1.129l-2.532-2.524a.88.88 0 0 0-1.174-.07l-1.702 1.367a9.3 9.3 0 0 0-1.51-.608l-.361-2.18a.88.88 0 0 0-.873-.732h-3.574c-.45 0-.83.335-.882.785l-.239 2.18c-.52.167-1.014.379-1.49.626l-1.81-1.28a.87.87 0 0 0-1.129.098l-2.524 2.523a.88.88 0 0 0-.061 1.174l1.358 1.712q-.37.728-.608 1.508l-2.17.362a.9.9 0 0 0-.742.874v3.573c0 .45.344.82.785.874l2.17.247c.168.52.389 1.023.636 1.5l-1.27 1.791a.884.884 0 0 0 .097 1.138l2.523 2.524a.88.88 0 0 0 1.174.062l1.711-1.36c.486.239.98.442 1.5.6l.362 2.18c.07.432.441.741.874.741h.776v1.95H8.96a.885.885 0 0 0-.882.883v5.832a3.52 3.52 0 0 0 3.512 3.512h25.482c1.941 0 3.52-1.58 3.52-3.512V46.06h1.033c.45 0 .83-.335.883-.785l.247-2.18c.511-.167 1.014-.379 1.49-.626l1.8 1.28a.896.896 0 0 0 1.139-.098l2.515-2.532a.87.87 0 0 0 .062-1.165l-1.36-1.711q.371-.742.61-1.51l2.17-.37a.89.89 0 0 0 .741-.864v-3.574c0-.45-.335-.83-.785-.874M38.828 54.726c0 .962-.785 1.747-1.756 1.747H11.59a1.75 1.75 0 0 1-1.747-1.747v-4.95h28.985zm11.33-19.976-1.995.335a.89.89 0 0 0-.714.67 8 8 0 0 1-.856 2.136.865.865 0 0 0 .07.988l1.227 1.553-1.43 1.447-1.658-1.182a.88.88 0 0 0-.97-.027 7.4 7.4 0 0 1-2.1.883.89.89 0 0 0-.672.758l-.22 1.986h-2.047l-.335-2.003a.87.87 0 0 0-.662-.706 8 8 0 0 1-2.118-.865.88.88 0 0 0-.997.07L33.12 42.03l-1.438-1.438 1.165-1.633a.94.94 0 0 0 .035-.988 7.7 7.7 0 0 1-.9-2.118.865.865 0 0 0-.75-.652l-1.976-.23v-2.03l1.994-.335a.89.89 0 0 0 .714-.67c.177-.75.468-1.465.865-2.118a.89.89 0 0 0-.062-1.006l-1.244-1.561 1.439-1.439 1.65 1.174c.282.203.67.22.97.035a7.6 7.6 0 0 1 2.118-.891.88.88 0 0 0 .653-.75l.22-1.985h2.047l.336 1.994a.88.88 0 0 0 .661.714c.75.177 1.465.468 2.127.865a.88.88 0 0 0 .997-.07l1.553-1.245L47.73 27.1l-1.165 1.642a.92.92 0 0 0-.035.98c.406.66.706 1.375.891 2.108a.89.89 0 0 0 .76.662l1.975.22z"/></svg>