<svg xmlns="http://www.w3.org/2000/svg" width="60" height="60" fill="none"><path fill="#282928" fill-rule="evenodd" d="M30.747.013a22.83 22.83 0 0 0-13.445 3.833 22.83 22.83 0 0 0-9.234 12.602 3.7 3.7 0 0 0-1.47.136c-2.156.612-3.778 2.379-4.507 3.935-.946 2.028-1.345 4.71-.924 7.479.418 2.76 1.584 5.035 3.042 6.448 1.463 1.413 3.115 1.873 4.756 1.528 2.443-.522 3.654-.912 3.312-3.188L10.62 21.753a19.4 19.4 0 0 1 8.595-15.048 19.39 19.39 0 0 1 22.595.74 19.4 19.4 0 0 1 7.566 14.335l-1.158 7.717a19.39 19.39 0 0 1-16.396 12.66h-4.934a2.293 2.293 0 0 0-2.299 2.297v1.212a2.294 2.294 0 0 0 2.299 2.298h6.22a2.29 2.29 0 0 0 2.294-2.298v-.634a22.9 22.9 0 0 0 13.64-9.586l1.993.528c1.622.421 3.294-.115 4.756-1.527 1.458-1.414 2.624-3.688 3.042-6.448.422-2.77.012-5.447-.923-7.48-.939-2.032-2.336-3.323-3.95-3.786-.676-.194-1.41-.266-2.04-.285A22.818 22.818 0 0 0 30.747.012" clip-rule="evenodd"/><path fill="#282928" fill-rule="evenodd" d="M38.027 19.86a2.984 2.984 0 0 1 2.981 2.981 2.986 2.986 0 0 1-2.98 2.982 2.985 2.985 0 0 1-2.986-2.982 2.983 2.983 0 0 1 2.985-2.981m-8.029 0a2.981 2.981 0 1 1 0 5.963 2.981 2.981 0 0 1 0-5.963m-8.026 0a2.981 2.981 0 1 1 0 5.963 2.981 2.981 0 0 1 0-5.963m8.026-12.807c-8.743 0-15.789 6.814-15.789 15.788 0 4.311 1.63 8.12 4.285 10.916l-.942 4.223c-.31 1.39.653 2.325 1.902 1.63l4.125-2.301a16.1 16.1 0 0 0 6.42 1.321c8.746 0 15.787-6.81 15.787-15.789 0-8.974-7.041-15.788-15.788-15.788" clip-rule="evenodd"/></svg>