<svg xmlns="http://www.w3.org/2000/svg" width="61" height="60" fill="none"><g fill="#282928" clip-path="url(#a)"><path d="M55.117 15.465H44.97a.879.879 0 1 0 0 1.758h10.148a.879.879 0 1 0 0-1.758M44.969 13.11h7.577a.879.879 0 1 0 0-1.758h-7.577a.879.879 0 1 0 0 1.757M28.537 27.719h-8.96a5.936 5.936 0 0 0-5.93 5.927v9.026a5.936 5.936 0 0 0 5.93 5.927h21.849c3.27 0 5.932-2.659 5.932-5.927v-9.026a5.936 5.936 0 0 0-5.932-5.927h-8.85a.879.879 0 1 0 0 1.758h8.85a4.176 4.176 0 0 1 4.174 4.17v9.024c0 2.3-1.873 4.17-4.174 4.17H19.578a4.176 4.176 0 0 1-4.174-4.17v-9.025c0-2.299 1.873-4.17 4.174-4.17h8.96a.879.879 0 1 0 0-1.757"/><path d="M60.797 14.68v-.378c0-5.27-4.292-9.556-9.566-9.556h-3.667c-4.157 0-7.703 2.663-9.02 6.37-1.2-.265-2.436-.47-3.697-.611q.003-.08.003-.163A4.355 4.355 0 0 0 30.5 5.994a4.35 4.35 0 0 0-4.343 4.517c-5.07.579-9.714 2.168-13.378 4.614-5.39 3.596-8.238 8.738-8.238 14.87v1.725c-.996.325-1.857.98-2.501 1.924-.801 1.173-1.242 2.736-1.242 4.4 0 1.666.442 3.233 1.244 4.412.95 1.397 2.37 2.167 3.996 2.167h2.635v.187c0 2.784 1.094 5.408 3.078 7.387a10.35 10.35 0 0 0 7.357 3.058h.02l9.437-.013a.88.88 0 0 0-.001-1.758h-.001l-9.439.013a8.6 8.6 0 0 1-6.132-2.543 8.63 8.63 0 0 1-2.56-6.144V32.409c0-6.926 5.639-12.562 12.571-12.562H38q.81 0 1.594.1c.42.633.92 1.22 1.49 1.746l.02 2.867c-.015.509.249.782.41.902.115.084.318.194.602.194.13 0 .276-.023.44-.083l.026-.01 3.249-1.315q.013-.007.028-.012h1.68a12.5 12.5 0 0 1 3.033 8.128V44.81c0 2.313-.91 4.495-2.562 6.144a8.6 8.6 0 0 1-6.116 2.543h-.016l-16.258-.013h-.001a.878.878 0 1 0-.001 1.758l16.258.013h.02c2.769 0 5.38-1.085 7.357-3.058a10.38 10.38 0 0 0 3.077-7.387v-.187h2.635c1.627 0 3.046-.77 3.996-2.167.802-1.179 1.244-2.746 1.244-4.412 0-1.664-.44-3.227-1.242-4.4-.633-.928-1.477-1.577-2.452-1.906v-1.742c0-2.375-.426-4.601-1.263-6.646 3.274-1.518 5.549-4.833 5.549-8.67M8.672 42.865H6.037c-2.393 0-3.482-2.5-3.482-4.821 0-1.295.34-2.538.936-3.41.63-.922 1.486-1.39 2.546-1.39h2.635zM29.62 18.089h-6.618c-7.592 0-13.822 5.93-14.3 13.397H6.299v-1.49c0-5.518 2.578-10.154 7.455-13.41 3.49-2.329 7.949-3.83 12.832-4.355a4.36 4.36 0 0 0 3.035 2.364zm.88-5.16h-.002a2.58 2.58 0 0 1-1.921-.857 2.57 2.57 0 0 1-.667-1.72v-.01a2.592 2.592 0 0 1 5.182 0v.006a2.57 2.57 0 0 1-.665 1.721 2.59 2.59 0 0 1-1.927.86m7.5 5.16h-6.622v-3.494a4.36 4.36 0 0 0 3.04-2.37c1.263.134 2.498.334 3.694.595a9.5 9.5 0 0 0-.114 1.482v.378c0 1.185.221 2.343.64 3.423q-.316-.015-.638-.014m14.298 13.397a14.23 14.23 0 0 0-2.537-7.25h1.47c.81 0 1.598-.101 2.35-.292.776 1.862 1.172 3.89 1.172 6.052v1.49zm5.213 3.148c.595.872.936 2.115.936 3.41 0 2.322-1.09 4.82-3.482 4.82H52.33v-9.62h2.635c1.06 0 1.917.468 2.546 1.39m-3.014-12.872a7.827 7.827 0 0 1-3.266.716h-5.446l-.094.001c-.21.008-.343.047-.555.154l-2.28.923-.017-2.168a.9.9 0 0 0-.204-.655l-.001-.001a1 1 0 0 0-.111-.113 7.9 7.9 0 0 1-1.845-2.279 7.7 7.7 0 0 1-.922-3.66v-.378q0-.537.071-1.055a7.818 7.818 0 0 1 7.737-6.743h3.667c4.305 0 7.808 3.498 7.808 7.798v.378c0 3.136-1.863 5.846-4.542 7.082"/><path d="M27.383 41.646a.88.88 0 0 0-.02 1.243 4.44 4.44 0 0 0 3.21 1.37 4.44 4.44 0 0 0 3.211-1.37.879.879 0 1 0-1.262-1.223 2.7 2.7 0 0 1-1.948.835 2.7 2.7 0 0 1-1.949-.835.88.88 0 0 0-1.242-.02M19.62 36.072a3.603 3.603 0 0 0 3.599 3.597c1.984 0 3.6-1.613 3.6-3.597a3.603 3.603 0 0 0-3.6-3.597 3.603 3.603 0 0 0-3.6 3.597m5.44 0a1.843 1.843 0 0 1-3.683 0 1.843 1.843 0 0 1 3.683 0M41.76 36.072a3.603 3.603 0 0 0-3.6-3.597 3.604 3.604 0 0 0-3.603 3.597 3.604 3.604 0 0 0 3.603 3.597c1.984 0 3.6-1.613 3.6-3.597m-5.445 0a1.844 1.844 0 0 1 3.686 0 1.843 1.843 0 0 1-3.686 0"/></g><defs><clipPath id="a"><path fill="#fff" d="M.797 0h60v60h-60z"/></clipPath></defs></svg>