<svg xmlns="http://www.w3.org/2000/svg" width="60" height="60" fill="none"><path fill="#282928" d="M24.86.189A7 7 0 0 0 23.225 0c-3.902 0-7.077 3.178-7.077 7.083a7.11 7.11 0 0 0 2.959 5.765.79.79 0 1 1-.922 1.285 8.7 8.7 0 0 1-3.618-7.05c0-.665.078-1.312.22-1.934a9.25 9.25 0 0 0-6.824 8.92c0 1.318.273 2.592.81 3.787a.79.79 0 0 1-1.44.65 10.7 10.7 0 0 1-.852-2.97A8.85 8.85 0 0 0 2 23.254c0 1.886.597 3.712 1.693 5.22a8.13 8.13 0 0 1 4.27-1.61.79.79 0 1 1 .12 1.577C4.674 28.7 2 31.592 2 35.02a6.61 6.61 0 0 0 4.405 6.23c.08-1.302.39-2.562.928-3.756a.79.79 0 0 1 1.442.649 9.2 9.2 0 0 0-.811 3.786 9.25 9.25 0 0 0 6.825 8.921 8.7 8.7 0 0 1-.22-1.934 8.7 8.7 0 0 1 3.617-7.05.79.79 0 1 1 .922 1.285 7.11 7.11 0 0 0-2.959 5.765c0 3.905 3.175 7.083 7.077 7.083.558 0 1.107-.063 1.632-.188 1.894-.447 3.165-2.056 3.165-4.003v-6.22c-.423.47-.922.878-1.486 1.205a6.17 6.17 0 0 1-4.026.747.79.79 0 0 1 .244-1.562 4.53 4.53 0 0 0 2.992-.554 4.56 4.56 0 0 0 2.276-4.033v-6.85h-3.686a2.525 2.525 0 0 0-2.545 2.916.79.79 0 0 1-1.561.248 4.105 4.105 0 0 1 4.123-4.744h3.67v-9.924h-3.67l-.068.001a4.1 4.1 0 0 1-4.055-4.745.79.79 0 0 1 1.56.248 2.524 2.524 0 0 0 2.546 2.916h3.687v-6.85a4.56 4.56 0 0 0-2.278-4.033 4.53 4.53 0 0 0-2.99-.554.79.79 0 0 1-.245-1.561 6.17 6.17 0 0 1 4.026.746 6.1 6.1 0 0 1 1.486 1.204V4.188c0-1.946-1.27-3.553-3.163-4M14.763 33.534a.79.79 0 1 1-.761-1.385 4.73 4.73 0 0 0 0-8.297.79.79 0 1 1 .761-1.386 6.313 6.313 0 0 1 0 11.067m21.393-.572h-6.553v-9.924h6.553zm4.694-13.786v17.648a.834.834 0 0 1-.835.831H29.604v-3.113h7.343a.79.79 0 0 0 .79-.79V22.248a.79.79 0 0 0-.79-.79h-7.344v-3.113h10.413c.46 0 .835.373.835.832m4.507 5.897h-2.926v-1.58h2.926a.79.79 0 1 1 0 1.58m-5.34-11.787a2.85 2.85 0 0 1 2.728-2.049 2.844 2.844 0 0 1 2.842 2.839 2.846 2.846 0 0 1-2.842 2.842 2.85 2.85 0 0 1-2.729-2.052h-1.973v1.898h-1.58v-2.688a.79.79 0 0 1 .79-.79zm4.884 6.49 1.993-3.448a.79.79 0 0 1 .684-.396h1.694a2.85 2.85 0 0 1 2.73-2.051 2.845 2.845 0 0 1 2.841 2.842 2.842 2.842 0 0 1-5.57.79h-1.239l-1.993 3.45a.79.79 0 0 1-.684.394h-2.926v-1.58zm.456 12.732h-2.926v-1.58h2.926a.79.79 0 1 1 0 1.58m-5.13 19.45a2.844 2.844 0 0 1-2.843 2.839 2.844 2.844 0 0 1-2.841-2.84c0-1.292.867-2.385 2.051-2.729v-2.665l-3.452-1.993a.79.79 0 0 1-.395-.684v-4.65h1.58v4.194l3.453 1.993a.79.79 0 0 1 .395.684v3.121a2.85 2.85 0 0 1 2.051 2.73m14.616-12.68a2.845 2.845 0 0 1-2.842 2.841 2.85 2.85 0 0 1-2.729-2.051H47.58a.79.79 0 0 1-.684-.395l-1.993-3.45h-2.47v-1.58h2.926a.79.79 0 0 1 .684.395l1.993 3.449h1.238a2.85 2.85 0 0 1 2.73-2.049 2.844 2.844 0 0 1 2.841 2.84M58 27.997a2.845 2.845 0 0 1-2.842 2.842 2.85 2.85 0 0 1-2.728-2.048h-9.998v-1.58h9.996a2.85 2.85 0 0 1 2.73-2.052A2.844 2.844 0 0 1 58 27.998M45.588 41.924a2.844 2.844 0 0 1-2.842 2.839 2.85 2.85 0 0 1-2.729-2.049h-2.763a.79.79 0 0 1-.79-.79v-2.688h1.58v1.898h1.973a2.85 2.85 0 0 1 2.73-2.052 2.845 2.845 0 0 1 2.841 2.842m-12.84-25.16v-4.65a.79.79 0 0 1 .395-.684l3.452-1.994V6.771a2.85 2.85 0 0 1-2.052-2.729 2.844 2.844 0 0 1 2.842-2.839 2.844 2.844 0 0 1 2.842 2.84 2.85 2.85 0 0 1-2.051 2.728v3.122a.79.79 0 0 1-.396.684l-3.452 1.993v4.194z"/></svg>