<svg xmlns="http://www.w3.org/2000/svg" width="60" height="60" fill="none"><path fill="#282928" d="M12.968 20.266a2.265 2.265 0 0 0-2.263-2.262H8.928c-.604 0-1.096.492-1.096 1.096v5.806c0 .605.492 1.096 1.096 1.096h2.588a2.265 2.265 0 0 0 2.262-2.262v-.266a2.26 2.26 0 0 0-1.06-1.913c.159-.309.25-.658.25-1.029zm-3.554-.68h1.291c.375 0 .68.305.68.68v.266a.69.69 0 0 1-.68.68h-1.29zm2.782 4.154c0 .375-.305.68-.68.68H9.414v-1.626h2.101c.376 0 .681.305.681.68zM25.254 26.003a2.795 2.795 0 0 0 2.792-2.792v-2.416a2.795 2.795 0 0 0-2.792-2.791h-.362a2.795 2.795 0 0 0-2.792 2.791v2.416a2.795 2.795 0 0 0 2.792 2.792zm-1.572-2.792v-2.416c0-.667.543-1.209 1.21-1.209h.362c.667 0 1.21.543 1.21 1.21v2.415c0 .667-.543 1.21-1.21 1.21h-.362c-.667 0-1.21-.543-1.21-1.21M16.293 18.004a.79.79 0 0 0-.791.791v6.416c0 .437.354.792.791.792h3.829a.791.791 0 0 0 0-1.583h-3.038v-5.625a.79.79 0 0 0-.791-.791M33.04 7.273a.79.79 0 0 0-.792.792v.008c0 .437.354.787.791.787a.795.795 0 0 0 .791-.795.79.79 0 0 0-.79-.792M28.977 7.262a.79.79 0 0 0-.791.79v.013a.791.791 0 0 0 1.582 0v-.012a.79.79 0 0 0-.791-.791M37.108 7.295a.79.79 0 0 0-.792.791v.012a.791.791 0 0 0 1.583 0v-.012a.79.79 0 0 0-.791-.791M24.113 7.281H6.82a.791.791 0 0 0 0 1.582h17.293a.791.791 0 0 0 0-1.582M31.698 19.586h2.566a.791.791 0 0 0 0-1.582h-2.566c-1.273 0-2.233 1.015-2.233 2.36v3.526c0 .852.669 2.112 2.104 2.112h1.663c1.43 0 2.392-.942 2.392-2.345v-.545c0-1.222-.877-2.076-2.131-2.076h-.44a.791.791 0 0 0 0 1.582h.44c.285 0 .549.06.549.494v.545c0 .208 0 .763-.81.763H31.57c-.491 0-.522-.525-.522-.53v-3.525c0-.48.25-.779.65-.779"/><path fill="#282928" d="M49.763 18.976a3.35 3.35 0 0 0-1.673-1.738l-1.946-.927a3.36 3.36 0 0 0-2.474-.178V4.95A1.954 1.954 0 0 0 41.72 3H1.952A1.954 1.954 0 0 0 0 4.948v24.497a.791.791 0 0 0 1.582 0V12.773h40.506v4.572q-.086.137-.156.285l-3.312 6.961a.791.791 0 0 0 1.429.68l1.535-3.227 4.937 2.346-8.734 18.36-4.936-2.345 5.645-11.87a.791.791 0 0 0-1.428-.679l-1.85 3.887H11.917a.791.791 0 1 0 0 1.582h22.55l-1.924 4.045H6.517a.791.791 0 0 0 0 1.582H31.79l-.708 1.489a.8.8 0 0 0-.075.288l-.147 2.268H6.7a.791.791 0 0 0 0 1.582h24.059l-.31 4.785-.002.065c.008.474.247.868.639 1.055q.224.105.463.105a1.23 1.23 0 0 0 .807-.319l6.345-5.887a.8.8 0 0 0 .176-.24l3.212-6.752v17.66c0 .2-.169.37-.37.37H1.953c-.2 0-.37-.17-.37-.37V33.1A.791.791 0 0 0 0 33.1v21.952c0 1.076.876 1.951 1.952 1.951h39.767a1.954 1.954 0 0 0 1.951-1.95V34.064l6.057-12.73c.348-.736.361-1.573.036-2.359M32.1 48.35l.132-2.037 1.364.649zm2.744-2.547-2.502-1.19.17-2.618 4.258 2.022zm7.245-34.613H1.582V4.95a.37.37 0 0 1 .37-.37h39.767a.37.37 0 0 1 .37.37zm6.21 9.466L47.2 22.962l-4.937-2.347 1.097-2.306c.334-.705 1.279-.96 2.104-.57l1.945.928c.411.195.728.52.891.915.152.367.15.749-.004 1.074"/></svg>