<svg xmlns="http://www.w3.org/2000/svg" width="60" height="60" fill="none"><path fill="#282928" d="M54.136 40.248h-10.08l8.77-5.074a3.853 3.853 0 0 0 1.41-5.264l-5.017-8.69a3.853 3.853 0 0 0-5.264-1.412l-8.78 5.062.212-.37 4.85-8.41a3.84 3.84 0 0 0-1.411-5.264L30.09 5.808a3.853 3.853 0 0 0-5.264 1.411l-5.074 8.77V5.909A3.863 3.863 0 0 0 15.888 2H5.864A3.875 3.875 0 0 0 2 5.864v43.254A8.893 8.893 0 0 0 10.882 58h43.254A3.875 3.875 0 0 0 58 54.136V44.112a3.875 3.875 0 0 0-3.864-3.864m-45.92.134 6.866-11.894 6.876 3.965zM4.24 42.87V29.126h7.93zm20.552-9.442.09-.056 3.998 6.877H12.976zm6.082 9.061V55.76H20.67V42.488zm2.24 0h10.203V55.76H33.114zm-1.68-2.24-4.615-8.008 8.837-5.096 6.664 11.502-2.755 1.602zM45.03 21.746a1.614 1.614 0 0 1 2.24.593l5.018 8.691a1.623 1.623 0 0 1-.594 2.24l-7.425 4.29-6.675-11.525zM24.243 31.12l-7.997-4.603 5.108-8.837 11.49 6.72-1.6 2.766zm2.52-22.814a1.613 1.613 0 0 1 2.24-.594l8.691 5.018a1.57 1.57 0 0 1 .762.985 1.6 1.6 0 0 1-.168 1.221l-4.29 7.437-11.524-6.608zM13.47 26.886H4.24V16.683h13.272v3.237zM5.864 4.24h10.08a1.624 1.624 0 0 1 1.624 1.624v8.58H4.24v-8.58A1.624 1.624 0 0 1 5.864 4.24M4.24 49.118a6.64 6.64 0 0 1 6.642-6.63h7.548V55.76h-7.548a6.653 6.653 0 0 1-6.642-6.642m51.52 5.018a1.624 1.624 0 0 1-1.624 1.624h-8.58V42.488h8.58a1.624 1.624 0 0 1 1.624 1.624z"/><path fill="#282928" d="M10.88 44.684a4.48 4.48 0 1 0 0 8.959 4.48 4.48 0 0 0 0-8.96m0 6.641a2.24 2.24 0 1 1 2.24-2.24 2.24 2.24 0 0 1-2.24 2.195z"/></svg>