<svg xmlns="http://www.w3.org/2000/svg" width="60" height="60" fill="none"><path fill="#282928" d="M30 11a19 19 0 1 0 19 19 19.02 19.02 0 0 0-19-19m0 36.1A17.1 17.1 0 1 1 47.1 30 17.12 17.12 0 0 1 30 47.1"/><path fill="#282928" d="M57.86 27.358a2.61 2.61 0 0 0-2.18-2.254l-2.971-.486a23.1 23.1 0 0 0-2.849-6.86l1.755-2.451a2.61 2.61 0 0 0-.054-3.15 23 23 0 0 0-1.773-1.947 26 26 0 0 0-1.96-1.788 2.6 2.6 0 0 0-3.128-.036l-2.455 1.757a23.1 23.1 0 0 0-6.86-2.848l-.487-2.97a2.61 2.61 0 0 0-2.266-2.183 24.6 24.6 0 0 0-5.274 0 2.61 2.61 0 0 0-2.254 2.18l-.486 2.973a23.1 23.1 0 0 0-6.861 2.848l-2.451-1.755a2.6 2.6 0 0 0-3.15.05A26 26 0 0 0 10.22 10.2a23 23 0 0 0-1.79 1.967 2.606 2.606 0 0 0-.045 3.136l1.758 2.454a23.1 23.1 0 0 0-2.85 6.86l-2.969.487A2.61 2.61 0 0 0 2.14 27.37a25 25 0 0 0 0 5.277 2.61 2.61 0 0 0 2.18 2.25l2.971.487a23.1 23.1 0 0 0 2.849 6.86l-1.745 2.441a2.61 2.61 0 0 0 .046 3.16c.524.641 1.12 1.296 1.773 1.947q.93.95 1.96 1.788a2.57 2.57 0 0 0 3.128.036l2.454-1.757a23.1 23.1 0 0 0 6.86 2.848l.487 2.97a2.61 2.61 0 0 0 2.266 2.183c1.753.187 3.521.187 5.274 0a2.61 2.61 0 0 0 2.254-2.18l.486-2.97a23.1 23.1 0 0 0 6.861-2.849l2.451 1.755a2.58 2.58 0 0 0 3.161-.06 24 24 0 0 0 1.936-1.761 27 27 0 0 0 1.788-1.968 2.6 2.6 0 0 0 .037-3.126l-1.758-2.455a23.1 23.1 0 0 0 2.849-6.86l2.97-.486a2.614 2.614 0 0 0 2.183-2.266 25 25 0 0 0 0-5.262zm-1.855 5.07a.76.76 0 0 1-.629.624l-3.593.589a.93.93 0 0 0-.763.732 21.2 21.2 0 0 1-3.065 7.387.93.93 0 0 0 .021 1.055l2.135 2.986a.74.74 0 0 1 .009.864 24 24 0 0 1-1.648 1.81 22 22 0 0 1-1.787 1.629.736.736 0 0 1-.9 0l-2.967-2.124a.93.93 0 0 0-1.054-.021 21.3 21.3 0 0 1-7.388 3.066.93.93 0 0 0-.732.762l-.59 3.594a.73.73 0 0 1-.61.627 23 23 0 0 1-4.874 0 .734.734 0 0 1-.623-.63l-.589-3.593a.93.93 0 0 0-.733-.762 21.3 21.3 0 0 1-7.384-3.07.93.93 0 0 0-1.055.022l-2.97 2.126a.73.73 0 0 1-.866.026 21 21 0 0 1-1.819-1.656 24 24 0 0 1-1.63-1.787.746.746 0 0 1 0-.899l2.124-2.967a.93.93 0 0 0 .021-1.055 21.3 21.3 0 0 1-3.066-7.387.93.93 0 0 0-.762-.732l-3.594-.59a.75.75 0 0 1-.627-.61 23 23 0 0 1 0-4.874.73.73 0 0 1 .63-.623l3.593-.588a.93.93 0 0 0 .762-.733 21.3 21.3 0 0 1 3.065-7.384.93.93 0 0 0-.021-1.055L9.9 14.213a.75.75 0 0 1-.018-.874 21 21 0 0 1 1.647-1.81A24 24 0 0 1 13.317 9.9a.746.746 0 0 1 .9 0l2.966 2.124a.93.93 0 0 0 1.055.021 21.3 21.3 0 0 1 7.387-3.066.93.93 0 0 0 .733-.762l.59-3.594a.73.73 0 0 1 .61-.627 23 23 0 0 1 4.874 0 .734.734 0 0 1 .623.63l.589 3.593a.93.93 0 0 0 .732.762 21.3 21.3 0 0 1 7.385 3.068.93.93 0 0 0 1.055-.022l2.97-2.126a.74.74 0 0 1 .877-.017q.951.782 1.818 1.656.865.847 1.628 1.788a.75.75 0 0 1-.013.889l-2.123 2.967a.93.93 0 0 0-.021 1.055 21.2 21.2 0 0 1 3.066 7.387.93.93 0 0 0 .762.732l3.594.59a.734.734 0 0 1 .628.616 23 23 0 0 1 0 4.866z"/><path fill="#282928" d="M20.5 25c.464 0 .91.21 1.237.586.329.375.513.884.513 1.414 0 .265.092.52.256.707a.82.82 0 0 0 .619.293.82.82 0 0 0 .619-.293c.164-.187.256-.442.256-.707 0-1.06-.369-2.078-1.025-2.828C22.318 23.422 21.428 23 20.5 23s-1.819.421-2.475 1.172S17 25.939 17 27v6c0 1.06.369 2.078 1.025 2.828.657.75 1.547 1.172 2.475 1.172s1.819-.421 2.475-1.172S24 34.061 24 33c0-.265-.092-.52-.256-.707a.82.82 0 0 0-.619-.293.82.82 0 0 0-.619.293 1.08 1.08 0 0 0-.256.707c0 .53-.184 1.04-.513 1.414A1.65 1.65 0 0 1 20.5 35c-.464 0-.91-.21-1.237-.586A2.15 2.15 0 0 1 18.75 33v-6c0-.53.184-1.04.513-1.414A1.65 1.65 0 0 1 20.5 25M33.179 23.016a1 1 0 0 0-1.116.632L30 29.152l-2.063-5.5A1 1 0 0 0 26 24v12a1 1 0 0 0 2 0v-6.485l1.063 2.837a1 1 0 0 0 1.874 0L32 29.515V36a1 1 0 0 0 2 0V24a1 1 0 0 0-.821-.984M36 27c0 1.06.369 2.078 1.025 2.828.657.75 1.547 1.172 2.475 1.172.346 0 .684.117.972.337s.512.532.645.898c.132.365.167.767.1 1.155a2.1 2.1 0 0 1-.48 1.024c-.244.28-.556.47-.896.548-.34.077-.69.037-1.01-.114a1.82 1.82 0 0 1-.786-.737A2.2 2.2 0 0 1 37.75 33c0-.265-.092-.52-.256-.707a.82.82 0 0 0-.619-.293.82.82 0 0 0-.619.293A1.08 1.08 0 0 0 36 33c0 .791.205 1.565.59 2.222.384.658.931 1.17 1.57 1.474.64.302 1.344.382 2.023.227a3.4 3.4 0 0 0 1.792-1.095c.49-.559.823-1.272.958-2.048a4.53 4.53 0 0 0-.2-2.31 3.93 3.93 0 0 0-1.288-1.796A3.2 3.2 0 0 0 39.5 29c-.346 0-.684-.117-.972-.337a1.97 1.97 0 0 1-.645-.898 2.27 2.27 0 0 1-.1-1.155c.068-.388.235-.744.48-1.024.244-.28.556-.47.896-.548.34-.077.69-.037 1.01.114.32.152.594.408.786.737s.295.715.295 1.111c0 .265.092.52.256.707a.82.82 0 0 0 .619.293.82.82 0 0 0 .619-.293c.164-.187.256-.442.256-.707 0-1.06-.369-2.078-1.025-2.828C41.318 23.422 40.428 23 39.5 23s-1.819.421-2.475 1.172S36 25.939 36 27"/></svg>