<svg xmlns="http://www.w3.org/2000/svg" width="50" height="50" fill="none"><g fill="#000" clip-path="url(#a)"><path d="M49.066 21.01a26.9 26.9 0 0 0-12.4-3.49V7.5a3.333 3.333 0 0 0-3.333-3.333h-6.065a1.66 1.66 0 0 0-1.435-.833h-3.416a4.167 4.167 0 0 0-8.167 0h-3.417a1.66 1.66 0 0 0-1.435.833H3.333A3.333 3.333 0 0 0 0 7.5v35.834a3.333 3.333 0 0 0 3.333 3.333h27.47a18.4 18.4 0 0 0 4.127 3.104 1.91 1.91 0 0 0 1.807 0c11.379-6.21 13.04-23.588 13.263-27.01a1.88 1.88 0 0 0-.934-1.752M35 7.5v10.02q-.854.025-1.667.102V9.167A1.667 1.667 0 0 0 31.667 7.5H27.5V5.834h5.833A1.666 1.666 0 0 1 35 7.5M10.833 5H15a.833.833 0 0 0 .833-.833 2.5 2.5 0 1 1 5 0 .833.833 0 0 0 .834.833h4.166v3.334h-15zm15 5a1.66 1.66 0 0 0 1.435-.833h4.399v8.667c-3.19.5-6.262 1.575-9.067 3.172a1.88 1.88 0 0 0-.93 1.75c.152 2.376 1 11.482 5.32 18.905H5V9.167h4.398a1.66 1.66 0 0 0 1.435.833zm-22.5 35a1.667 1.667 0 0 1-1.666-1.666V7.5a1.667 1.667 0 0 1 1.666-1.666h5.834V7.5H5a1.667 1.667 0 0 0-1.667 1.667v32.5A1.667 1.667 0 0 0 5 43.334h23.037q.583.86 1.25 1.666zm45-22.343c-.207 3.267-1.783 19.86-12.395 25.65a.22.22 0 0 1-.208 0c-10.612-5.79-12.188-22.383-12.397-25.652a.22.22 0 0 1 .11-.208 25.04 25.04 0 0 1 24.778 0 .22.22 0 0 1 .11.208z"/><path d="M45.516 22.935a23.36 23.36 0 0 0-19.368 0 1.67 1.67 0 0 0-.983 1.698c1.302 12.767 6.597 18.673 9.638 21.057a1.66 1.66 0 0 0 2.052 0c3.04-2.384 8.333-8.29 9.638-21.057a1.67 1.67 0 0 0-.977-1.698M35.832 44.38c-2.834-2.221-7.768-7.762-9-19.923a21.67 21.67 0 0 1 18.008.008c-1.243 12.152-6.175 17.693-9.008 19.915M8.924 16.078a.833.833 0 0 0-1.178 1.178l.833.833a.833.833 0 0 0 1.178 0l3.334-3.333a.833.833 0 0 0-1.179-1.178l-2.744 2.744zM16.665 16.667h11.667a.833.833 0 0 0 0-1.667H16.665a.833.833 0 0 0 0 1.667M11.912 20.244l-2.744 2.744-.244-.244a.833.833 0 0 0-1.178 1.178l.833.833a.833.833 0 0 0 1.178 0l3.334-3.333a.833.833 0 0 0-1.179-1.178M16.665 23.334h2.5a.833.833 0 0 0 0-1.667h-2.5a.833.833 0 0 0 0 1.667M11.912 26.91l-2.744 2.745-.244-.244a.833.833 0 0 0-1.178 1.178l.833.833a.833.833 0 0 0 1.178 0l3.334-3.333a.833.833 0 0 0-1.179-1.178M16.665 30H20a.833.833 0 0 0 0-1.667h-3.334a.833.833 0 0 0 0 1.667M11.912 33.578l-2.744 2.744-.244-.244a.833.833 0 0 0-1.178 1.178l.833.833a.833.833 0 0 0 1.178 0l3.334-3.333a.833.833 0 0 0-1.179-1.178"/><path d="M33.088 32.744a.833.833 0 0 0-1.178 1.178l1.666 1.667a.83.83 0 0 0 .59.244h.059a.83.83 0 0 0 .607-.333l5-6.667a.833.833 0 1 0-1.333-1l-4.424 5.899zM16.665 36.667h5a.833.833 0 0 0 0-1.667h-5a.833.833 0 0 0 0 1.667"/></g><defs><clipPath id="a"><path fill="#fff" d="M0 0h50v50H0z"/></clipPath></defs></svg>