<svg xmlns="http://www.w3.org/2000/svg" width="50" height="50" fill="none"><g fill="#000" clip-path="url(#a)"><path d="M21.554 50c-4.976 0-9.753-2.12-13.106-5.818a.734.734 0 0 1 1.087-.986 16.26 16.26 0 0 0 12.019 5.337 16.3 16.3 0 0 0 7.466-1.816 16.4 16.4 0 0 0 5.64-4.84c.243-.333.342-.741.279-1.149a1.54 1.54 0 0 0-.615-1.01 1.53 1.53 0 0 0-1.148-.279 1.53 1.53 0 0 0-1.01.614 13.2 13.2 0 0 1-10.612 5.391c-7.245 0-13.139-5.894-13.139-13.138 0-2.51.71-4.948 2.051-7.053a13.2 13.2 0 0 1 5.332-4.762c.566-.276.915-.887.863-1.516a1.56 1.56 0 0 0-1.087-1.348 1.55 1.55 0 0 0-1.13.089 16.27 16.27 0 0 0-6.582 5.877 16.2 16.2 0 0 0-2.535 8.713c0 3.073.867 6.066 2.507 8.656a.734.734 0 1 1-1.24.785 17.6 17.6 0 0 1-2.735-9.441c0-3.379.957-6.665 2.766-9.502a17.73 17.73 0 0 1 7.175-6.407 3 3 0 0 1 2.3-.142c.761.262 1.375.804 1.728 1.527.352.723.403 1.54.141 2.3a3 3 0 0 1-1.527 1.728 11.7 11.7 0 0 0-4.738 4.232 11.63 11.63 0 0 0-1.821 6.264c0 6.435 5.236 11.67 11.671 11.67 3.71 0 7.234-1.79 9.428-4.789a3 3 0 0 1 1.97-1.198c.794-.123 1.59.07 2.239.545a3 3 0 0 1 1.198 1.97c.123.794-.07 1.59-.545 2.24a17.84 17.84 0 0 1-6.148 5.275A17.75 17.75 0 0 1 21.554 50M24.697 9.378a4.694 4.694 0 0 1-4.69-4.69A4.694 4.694 0 0 1 24.698 0a4.694 4.694 0 0 1 4.688 4.689 4.694 4.694 0 0 1-4.688 4.689m0-7.91a3.225 3.225 0 0 0-3.221 3.22 3.225 3.225 0 0 0 3.22 3.222 3.225 3.225 0 0 0 3.222-3.221 3.225 3.225 0 0 0-3.221-3.221"/><path d="M42.925 35.758a.73.73 0 0 1-.688-.477l-1.478-3.963a3.01 3.01 0 0 0-2.813-1.968h-9.52a.734.734 0 0 1-.733-.734v-6.948c0-.405.328-.733.734-.733h8.893a1.55 1.55 0 0 0 1.549-1.55 1.55 1.55 0 0 0-1.549-1.548h-8.893a.734.734 0 0 1-.734-.733V15.6a3 3 0 0 0-2.996-2.995 3 3 0 0 0-2.995 2.995v7.932a.734.734 0 1 1-1.468 0V15.6a4.47 4.47 0 0 1 4.463-4.463 4.47 4.47 0 0 1 4.464 4.463v.77h8.16a3.02 3.02 0 0 1 3.015 3.016 3.02 3.02 0 0 1-3.016 3.016h-8.16v5.48h8.786a4.48 4.48 0 0 1 4.19 2.927l1.476 3.959a.734.734 0 0 1-.687.99"/><path d="M43.12 45.1c-.433 0-.863-.094-1.267-.28a3 3 0 0 1-1.564-1.7l-2.718-7.236a3.01 3.01 0 0 0-2.814-1.97h-10.06a4.47 4.47 0 0 1-4.463-4.462v-2.985a.734.734 0 1 1 1.468 0v2.985a3 3 0 0 0 2.996 2.995h10.06a4.48 4.48 0 0 1 4.19 2.926l2.718 7.237a1.55 1.55 0 0 0 1.989.926c.388-.142.697-.427.871-.802s.192-.796.05-1.184l-1.31-3.51a.734.734 0 0 1 1.375-.514l1.311 3.514c.279.76.245 1.58-.094 2.31a3.022 3.022 0 0 1-2.739 1.75"/></g><defs><clipPath id="a"><path fill="#fff" d="M0 0h50v50H0z"/></clipPath></defs></svg>