<svg xmlns="http://www.w3.org/2000/svg" width="50" height="50" fill="none"><path fill="#000" d="M27.344 23.438a2.35 2.35 0 0 0 2.343-2.344V3.906a2.35 2.35 0 0 0-2.343-2.343H3.906a2.35 2.35 0 0 0-2.343 2.343v17.188a2.35 2.35 0 0 0 2.343 2.343zM3.125 3.906c0-.43.352-.781.781-.781h23.438c.43 0 .781.352.781.781v4.688h-25zm0 17.188V10.156h25v10.938c0 .43-.352.781-.781.781H3.906a.784.784 0 0 1-.781-.781M32.031 14.063h6.25a3.91 3.91 0 0 1 3.907 3.906v4.367l-1.79-1.79a.778.778 0 1 0-1.101 1.102l3.125 3.125a.77.77 0 0 0 .555.227.8.8 0 0 0 .554-.227l3.125-3.125a.778.778 0 1 0-1.101-1.101l-1.79 1.789v-4.367a5.475 5.475 0 0 0-5.468-5.469h-6.25a.784.784 0 0 0-.781.781c0 .43.351.781.78.781zM17.889 35.86h-6.25a3.91 3.91 0 0 1-3.907-3.907v-4.367l1.79 1.789a.77.77 0 0 0 .554.227.778.778 0 0 0 .555-1.328l-3.125-3.126a.78.78 0 0 0-1.102 0L3.28 28.273a.778.778 0 1 0 1.102 1.102l1.789-1.79v4.368a5.475 5.475 0 0 0 5.469 5.469h6.25c.43 0 .78-.352.78-.781a.783.783 0 0 0-.78-.782"/><path fill="#000" d="M25.39 7.031a1.172 1.172 0 1 0 0-2.344 1.172 1.172 0 0 0 0 2.344M21.484 7.031a1.172 1.172 0 1 0 0-2.343 1.172 1.172 0 0 0 0 2.343M46.094 26.563H22.656a2.35 2.35 0 0 0-2.343 2.343v17.188a2.35 2.35 0 0 0 2.343 2.343h23.438a2.35 2.35 0 0 0 2.343-2.343V28.906a2.35 2.35 0 0 0-2.343-2.343m-24.219 2.343c0-.43.352-.781.781-.781h23.438c.43 0 .781.352.781.781v4.688h-25zm24.219 17.969H22.656a.784.784 0 0 1-.781-.781V35.156h25v10.938c0 .43-.352.781-.781.781"/><path fill="#000" d="M44.14 32.031a1.172 1.172 0 1 0 0-2.343 1.172 1.172 0 0 0 0 2.343M40.234 32.031a1.172 1.172 0 1 0 0-2.343 1.172 1.172 0 0 0 0 2.343"/></svg>