<svg xmlns="http://www.w3.org/2000/svg" width="60" height="60" fill="none"><path fill="#282928" d="M24.222 0H6.89A2.89 2.89 0 0 0 4 2.889v17.333a2.89 2.89 0 0 0 2.889 2.89h17.333a2.89 2.89 0 0 0 2.89-2.89V2.89A2.89 2.89 0 0 0 24.221 0m28.89 0H35.777a2.89 2.89 0 0 0-2.89 2.889v17.333a2.89 2.89 0 0 0 2.89 2.89H53.11A2.89 2.89 0 0 0 56 20.221V2.89A2.89 2.89 0 0 0 53.111 0m-28.89 28.889H6.89A2.89 2.89 0 0 0 4 31.778V49.11A2.89 2.89 0 0 0 6.889 52h17.333a2.89 2.89 0 0 0 2.89-2.889V31.778a2.89 2.89 0 0 0-2.89-2.89m23.111 2.889h-5.777v5.778h-5.778v5.777h5.778v5.778h5.777v-5.778h5.778v-5.777h-5.778z"/></svg>