<svg xmlns="http://www.w3.org/2000/svg" width="50" height="50" fill="none"><g fill="#000" fill-rule="evenodd" clip-path="url(#a)" clip-rule="evenodd"><path d="M33.802 50a.6.6 0 0 1-.322-.117c-8.143-5.536-11.717-12.273-11.248-21.207.03-.263.234-.497.498-.527 8.846-1.289 10.252-5.858 11.453-4.92 3.778 3.046 5.975 4.217 10.691 4.92.264.03.498.264.498.527.498 8.934-3.075 15.671-11.248 21.207a.6.6 0 0 1-.322.117M23.374 29.233c-.293 8.114 3.017 14.323 10.428 19.45 7.41-5.127 10.72-11.336 10.428-19.45-4.57-.732-6.942-2.05-10.428-4.804-3.427 2.695-5.858 4.072-10.428 4.804"/><path d="M33.803 47.276a.6.6 0 0 1-.322-.088c-9.52-6.444-9.11-16.198-9.08-16.608a.66.66 0 0 1 .497-.556c4.277-.616 8.495-3.925 8.554-3.955.205-.175.497-.175.732 0 .03.03 4.247 3.34 8.524 3.955.292.058.498.293.498.556.029.41.439 10.135-9.08 16.608a.6.6 0 0 1-.323.088m-8.23-16.169c.058 1.963.732 9.579 8.23 14.88 7.528-5.301 8.202-12.917 8.23-14.88-3.69-.673-7.117-3.017-8.23-3.837-1.113.82-4.51 3.164-8.23 3.837M22.526 44.142c-8.7 0-17.956-2.168-17.956-6.21V6.181c0-.762 1.172-.762 1.172 0v31.751c0 2.402 6.883 5.038 16.784 5.038 1.552 0 3.075-.058 4.57-.205.76-.058.849 1.113.087 1.172a60 60 0 0 1-4.657.205m17.37-16.052a.59.59 0 0 1-.586-.585V6.18c0-.762 1.171-.762 1.171 0v21.324a.59.59 0 0 1-.586.585"/><path d="M22.526 12.39c-8.7 0-17.956-2.167-17.956-6.21C4.57 2.168 13.826 0 22.526 0S40.48 2.168 40.48 6.18c0 4.043-9.256 6.21-17.955 6.21m0-11.218c-9.9 0-16.784 2.636-16.784 5.008 0 2.402 6.883 5.039 16.784 5.039S39.31 8.582 39.31 6.18c0-2.372-6.884-5.008-16.784-5.008M22.526 23.258c-8.7 0-17.956-2.168-17.956-6.21 0-.762 1.172-.762 1.172 0 0 2.372 6.883 5.038 16.784 5.038S39.31 19.42 39.31 17.048c0-.762 1.171-.762 1.171 0 0 4.042-9.256 6.21-17.955 6.21M22.526 33.275c-8.7 0-17.956-2.168-17.956-6.18 0-.792 1.172-.792 1.172 0 0 2.372 6.883 5.008 16.784 5.008.351 0 .966-.03.966.586 0 .644-.644.586-.966.586m17.34-5.185c-.85 0-.732-1.582.03-1.582.849 0 .732 1.582-.03 1.582"/><path d="M9.844 17.72c-2.49 0-2.49-3.807 0-3.807 2.519 0 2.519 3.808 0 3.808m0-2.635c-.967 0-.967 1.464 0 1.464.966 0 .966-1.464 0-1.464M22.525 17.37a54 54 0 0 1-6.65-.41c-.761-.118-.615-1.29.176-1.172 6.269.82 14.207.44 19.391-1.494.732-.264 1.142.85.41 1.113-3.368 1.23-8.23 1.963-13.327 1.963M9.844 28.12c-2.49 0-2.49-3.809 0-3.809 2.519 0 2.519 3.808 0 3.808m0-2.637c-.967 0-.967 1.465 0 1.465.996 0 .966-1.465 0-1.465M22.525 27.768a54 54 0 0 1-6.65-.41c-.761-.117-.615-1.289.176-1.172 4.16.557 9.11.528 13.27-.058.76-.088.936 1.054.175 1.171a53 53 0 0 1-6.971.47M9.844 38.518c-2.49 0-2.49-3.808 0-3.808 2.519 0 2.519 3.808 0 3.808m0-2.636c-.967 0-.967 1.464 0 1.464.966 0 .966-1.464 0-1.464M22.525 38.166a54 54 0 0 1-6.65-.41c-.761-.117-.615-1.289.176-1.172 2.842.381 5.01.41 7.909.381.761 0 .79 1.172.03 1.172-.499.03-.967.03-1.465.03M32.689 39.456a.72.72 0 0 1-.44-.147l-2.255-2.284c-.556-.528.264-1.377.82-.82l1.875 1.845 4.1-4.13c.557-.528 1.377.292.85.85l-4.54 4.54a.7.7 0 0 1-.41.146"/></g><defs><clipPath id="a"><path fill="#fff" d="M0 0h50v50H0z"/></clipPath></defs></svg>