<svg xmlns="http://www.w3.org/2000/svg" width="60" height="60" fill="none"><path fill="#282928" fill-rule="evenodd" d="M27.22 28.379c-4.68-1.745-12.387-1.745-17.067 0-4.196 1.564-4.196 3.593 0 5.157 4.68 1.745 12.387 1.745 17.067 0 4.196-1.564 4.197-3.593 0-5.157M7 47.986v4.654c0 .935 1.205 1.852 3.153 2.579 4.68 1.744 12.387 1.744 17.067 0 1.949-.727 3.154-1.644 3.154-2.58v-4.653c-4.766 3.74-18.609 3.74-23.375 0m0-9.801V33.53c4.765 3.74 18.609 3.74 23.374 0v4.654c0 .935-1.205 1.852-3.154 2.579-4.68 1.744-12.387 1.744-17.067 0C8.205 40.037 7 39.12 7 38.184m23.374 2.574v4.653c0 .936-1.205 1.853-3.154 2.58-4.68 1.744-12.387 1.744-17.067 0C8.205 47.264 7 46.347 7 45.411V40.76c4.766 3.74 18.609 3.74 23.375 0M9.183 38.294l.451.194a.747.747 0 1 0 .585-1.375l-.452-.193a.746.746 0 1 0-.584 1.374m0 7.287.451.194a.748.748 0 1 0 .585-1.375l-.452-.193a.746.746 0 1 0-.584 1.374m0 7.287a.745.745 0 0 1 .011-1.382.75.75 0 0 1 .573.008l.452.193a.748.748 0 1 1-.585 1.374zM8.566 8.804a.749.749 0 1 1 .064-1.496.749.749 0 0 1-.064 1.496m4.321 0a.749.749 0 1 1 .063-1.496.749.749 0 0 1-.063 1.496m4.32 0a.749.749 0 1 1 .064-1.496.749.749 0 0 1-.063 1.496m8.618 0a.749.749 0 0 1 0-1.497h25.609a.749.749 0 0 1 0 1.497zM5.502 52.076H4.333a2.463 2.463 0 0 1-2.458-2.459V4.435a2.464 2.464 0 0 1 2.458-2.458h51.334a2.464 2.464 0 0 1 2.458 2.458v45.182a2.463 2.463 0 0 1-2.458 2.458H31.87v.565c0 1.624-1.578 3.025-4.13 3.976-5.033 1.876-13.075 1.876-18.108 0-2.552-.951-4.13-2.352-4.13-3.976zM56.628 14.02v35.597a.966.966 0 0 1-.961.961H31.87v-19.62c0-1.625-1.578-3.026-4.13-3.977-5.033-1.876-13.075-1.876-18.108 0-2.552.951-4.13 2.352-4.13 3.976v19.621h-1.17a.966.966 0 0 1-.96-.96V14.02zM3.372 12.523h53.256V4.435a.966.966 0 0 0-.961-.961H4.333a.966.966 0 0 0-.96.96zm44.448 7.425h-4.317v4.317h4.317zm-5.065-1.497a.75.75 0 0 0-.749.749v5.813a.75.75 0 0 0 .749.749h5.813a.75.75 0 0 0 .75-.749V19.2a.75.75 0 0 0-.75-.748zm5.065 11.906h-4.317v4.317h4.317zm-5.065-1.497a.75.75 0 0 0-.749.749v5.813a.75.75 0 0 0 .749.749h5.813a.75.75 0 0 0 .75-.749V29.61a.75.75 0 0 0-.75-.749zm5.065 11.906h-4.317v4.317h4.317zm-5.065-1.496a.75.75 0 0 0-.749.748v5.814a.75.75 0 0 0 .749.749h5.813a.75.75 0 0 0 .75-.749v-5.814a.75.75 0 0 0-.75-.748zm-5.802-16.415h2.988a.748.748 0 1 0 0-1.497h-3.736a.75.75 0 0 0-.75.748v9.661h-1.68a.749.749 0 0 0 0 1.497h1.68v9.661a.75.75 0 0 0 .75.749h3.737a.749.749 0 1 0 0-1.498h-2.989v-8.912h2.989a.749.749 0 1 0 0-1.497h-2.989z" clip-rule="evenodd"/></svg>