<svg xmlns="http://www.w3.org/2000/svg" width="50" height="50" fill="none"><path fill="#000" d="M41.328 28.497c-.4 0-.798-.075-1.172-.219q-.982.49-2.015.86a3.23 3.23 0 0 1-2.961 1.906h-1.86a3.24 3.24 0 0 1-2.96-1.922c-.702-.218-1.382-.5-2.032-.844a3.22 3.22 0 0 1-3.453-.742l-1.305-1.312a3.19 3.19 0 0 1-.734-3.47 15 15 0 0 1-.867-2.007 3.22 3.22 0 0 1-1.907-2.96v-1.86a3.24 3.24 0 0 1 1.899-2.961q.38-1.031.867-2.016a3.2 3.2 0 0 1-.156-1.836H5.469a2.346 2.346 0 0 0-2.344 2.344v23.516a2.346 2.346 0 0 0 2.344 2.343h36.844a2.346 2.346 0 0 0 2.343-2.343v-8.47c-.89.919-1.932 2.081-3.328 1.993m-30.156 1.711a.787.787 0 0 1-.555 1.336.77.77 0 0 1-.555-.235L7.43 28.678a.79.79 0 0 1 0-1.11l2.633-2.633a.782.782 0 0 1 1.109 1.102l-2.086 2.086zm5.476-4.531-1.312 5.273a.781.781 0 0 1-1.516-.383l1.313-5.273a.782.782 0 0 1 1.515.383m6.391 3-2.633 2.633a.78.78 0 0 1-.554.234.788.788 0 0 1-.555-1.336l2.086-2.086-2.086-2.086a.778.778 0 0 1 .555-1.33c.207 0 .407.082.554.229l2.633 2.632a.79.79 0 0 1 0 1.11M27.407 41.567a9.6 9.6 0 0 1-.235-2.687H20.61a9.7 9.7 0 0 1-.235 2.687c-8.375.5-11.382 2.688-11.523 2.79a.78.78 0 0 0 .93 1.25c.039-.024 2.984-2.094 11.187-2.508a61 61 0 0 1 5.844 0c8.203.414 11.148 2.484 11.18 2.507a.781.781 0 0 0 .937-1.25c-.14-.101-3.148-2.289-11.523-2.789"/><path fill="#000" d="M45.336 14.247a.1.1 0 0 1-.102-.07 18.3 18.3 0 0 0-1.305-3.32 1.665 1.665 0 0 0-.093-2.266l-1.313-1.313a1.667 1.667 0 0 0-2.273-.101 19 19 0 0 0-3.32-1.305.104.104 0 0 1-.07-.101 1.684 1.684 0 0 0-1.68-1.54h-1.86a1.673 1.673 0 0 0-1.672 1.508.125.125 0 0 1-.078.133c-1.124.273-2.2.718-3.187 1.32a.11.11 0 0 1-.125-.015 1.674 1.674 0 0 0-2.274.094l-1.312 1.32a1.665 1.665 0 0 0-.102 2.266 18.7 18.7 0 0 0-1.304 3.32.1.1 0 0 1-.102.07 1.684 1.684 0 0 0-1.539 1.68v1.86a1.67 1.67 0 0 0 1.54 1.671.11.11 0 0 1 .1.078 18.7 18.7 0 0 0 1.305 3.313 1.675 1.675 0 0 0 .102 2.273l1.312 1.313a1.674 1.674 0 0 0 2.274.101.11.11 0 0 1 .125-.016 11.2 11.2 0 0 0 3.187 1.32c.048.007.085.076.078.134a1.68 1.68 0 0 0 1.672 1.507h1.86a1.684 1.684 0 0 0 1.68-1.539.1.1 0 0 1 .07-.101 18.7 18.7 0 0 0 3.32-1.305 1.667 1.667 0 0 0 2.273-.102l1.313-1.312a1.674 1.674 0 0 0 .094-2.273c.54-1.06.976-2.17 1.304-3.313a.12.12 0 0 1 .102-.078 1.665 1.665 0 0 0 1.539-1.672v-1.86a1.68 1.68 0 0 0-1.54-1.679m-11.086 9.64a7.04 7.04 0 0 1-7.031-7.03c.38-9.325 13.682-9.323 14.062 0a7.04 7.04 0 0 1-7.031 7.03"/></svg>