<svg xmlns="http://www.w3.org/2000/svg" width="60" height="60" fill="none"><g fill="#282928" clip-path="url(#a)"><path d="M55.605 5.295h-40.91a.879.879 0 1 0 0 1.758h40.91a2.64 2.64 0 0 1 2.637 2.637v6.194H1.758V9.69a2.64 2.64 0 0 1 2.637-2.637h6.418a.879.879 0 1 0 0-1.758H4.395A4.4 4.4 0 0 0 0 9.69v40.62a4.4 4.4 0 0 0 4.395 4.395h36.773a.879.879 0 1 0 0-1.758H4.395a2.64 2.64 0 0 1-2.637-2.637V17.642h56.484V50.31a2.64 2.64 0 0 1-2.637 2.637H45.05a.879.879 0 1 0 0 1.758h10.555A4.4 4.4 0 0 0 60 50.31V9.69a4.4 4.4 0 0 0-4.395-4.395"/><path d="M3.53 11.468a2.647 2.647 0 0 0 2.643 2.644 2.647 2.647 0 0 0 2.644-2.644 2.647 2.647 0 0 0-2.644-2.644 2.647 2.647 0 0 0-2.644 2.644m3.53 0a.887.887 0 0 1-1.773 0 .887.887 0 0 1 1.772 0M10.59 11.468a2.647 2.647 0 0 0 2.644 2.644 2.647 2.647 0 0 0 2.644-2.644 2.647 2.647 0 0 0-2.644-2.644 2.647 2.647 0 0 0-2.644 2.644m2.644-.886a.887.887 0 0 1 0 1.772.887.887 0 0 1 0-1.772M22.937 11.468a2.647 2.647 0 0 0-2.645-2.644 2.647 2.647 0 0 0-2.644 2.644 2.647 2.647 0 0 0 2.645 2.644 2.647 2.647 0 0 0 2.643-2.644m-3.53 0a.887.887 0 0 1 1.771 0 .887.887 0 0 1-1.771 0M6.174 30.24a.88.88 0 0 0-.88.88v1.535a2.64 2.64 0 0 0 2.638 2.637h8.838a2.64 2.64 0 0 0 2.637-2.637v-8.838a2.64 2.64 0 0 0-2.637-2.637H7.932a2.64 2.64 0 0 0-2.637 2.637v3.422a.879.879 0 1 0 1.758 0v-3.422a.88.88 0 0 1 .879-.88h8.838a.88.88 0 0 1 .88.88v8.838a.88.88 0 0 1-.88.879H7.932a.88.88 0 0 1-.88-.88V31.12a.88.88 0 0 0-.878-.878M53.826 24.709H23.822a.879.879 0 1 0 0 1.758h30.004a.879.879 0 1 0 0-1.758M23.822 31.762h18.532a.879.879 0 1 0 0-1.758H23.822a.879.879 0 1 0 0 1.758M53.827 30.004h-7.942a.879.879 0 1 0 0 1.758h7.942a.879.879 0 1 0 0-1.758M32.08 45.565c.12.541.553.949 1.1 1.038a1.34 1.34 0 0 0 1.372-.637l.688-1.147 3.991 3.991c.4.4.925.6 1.45.6s1.05-.2 1.45-.6l2.087-2.086c.8-.8.8-2.101 0-2.9l-3.991-3.992 1.147-.688c.476-.286.726-.824.637-1.372a1.34 1.34 0 0 0-1.038-1.1l-9.186-2.04a1.46 1.46 0 0 0-1.354.393 1.46 1.46 0 0 0-.394 1.354zm7.508-7.4-.587.353c-.39.233-.645.626-.7 1.077-.056.45.096.894.417 1.215l4.257 4.256c.114.114.114.3 0 .415l-2.087 2.086a.293.293 0 0 1-.414 0l-4.256-4.256a1.45 1.45 0 0 0-1.215-.419c-.451.056-.844.311-1.078.7l-.352.587-1.718-7.732zM7.938 38.828a.879.879 0 1 0 0 1.758h8.824a.879.879 0 1 0 0-1.758zM7.938 45.881h14.119a.879.879 0 0 0 0-1.758H7.937a.879.879 0 1 0 0 1.758"/></g><defs><clipPath id="a"><path fill="#fff" d="M0 0h60v60H0z"/></clipPath></defs></svg>