<svg xmlns="http://www.w3.org/2000/svg" width="60" height="60" fill="none"><g fill="#282928" clip-path="url(#a)"><path d="M33.373 16.757a.82.82 0 0 0 0-1.64H17.82a.82.82 0 0 0 0 1.64zM7.299 23.898v2.133c0 1.006.818 1.824 1.824 1.824h32.484a1.826 1.826 0 0 0 1.824-1.824v-2.133a1.826 1.826 0 0 0-1.824-1.824H9.123a1.826 1.826 0 0 0-1.824 1.824m34.492 0v2.133a.184.184 0 0 1-.184.184H9.123a.184.184 0 0 1-.184-.184v-2.133c0-.101.082-.184.184-.184h32.484c.101 0 .184.083.184.184M7.299 35.313c0 1.005.818 1.823 1.824 1.823h32.484a1.826 1.826 0 0 0 1.824-1.823v-2.134a1.826 1.826 0 0 0-1.824-1.824H9.123a1.826 1.826 0 0 0-1.824 1.824zm1.64-2.134c0-.101.082-.183.184-.183h32.484c.102 0 .184.082.184.183v2.134a.184.184 0 0 1-.184.183H9.123a.184.184 0 0 1-.184-.183zM32.272 41.227H18.457a2.816 2.816 0 0 0-2.812 2.812v.111a2.816 2.816 0 0 0 2.812 2.813h13.815a2.816 2.816 0 0 0 2.812-2.813v-.111a2.816 2.816 0 0 0-2.812-2.812m1.172 2.924c0 .646-.526 1.172-1.172 1.172H18.457a1.174 1.174 0 0 1-1.172-1.172v-.112c0-.646.526-1.172 1.172-1.172h13.815c.646 0 1.172.526 1.172 1.172z"/><path d="M34.264 52.253H3.166a1.53 1.53 0 0 1-1.526-1.526v-33.15a.82.82 0 0 0-1.64 0v33.15a3.17 3.17 0 0 0 3.166 3.166h31.098a.82.82 0 1 0 0-1.64M48.466 2.15c-1.063-.316-10.745-.016-45.3-.13A3.17 3.17 0 0 0 0 5.185v9.112a.82.82 0 1 0 1.64 0v-2.35h47.45v38.78c0 .614-.367 1.166-.933 1.406-.82.347-.57 1.575.32 1.575.693 0 2.252-1.143 2.252-2.982V5.186a3.17 3.17 0 0 0-2.263-3.035m.623 8.159H1.64V5.186c0-.766.568-1.407 1.313-1.512.2-.028 8.341-.01 44.61-.015.843 0 1.526.687 1.526 1.527z"/><path d="M6.024 4.475a2.51 2.51 0 0 0-2.508 2.508 2.51 2.51 0 0 0 2.508 2.51 2.51 2.51 0 0 0 2.51-2.51 2.51 2.51 0 0 0-2.51-2.508m0 3.377a.87.87 0 0 1 0-1.737.87.87 0 0 1 0 1.737M12.587 4.475a2.51 2.51 0 0 0-2.509 2.508 2.51 2.51 0 0 0 2.509 2.51 2.51 2.51 0 0 0 2.509-2.51 2.51 2.51 0 0 0-2.51-2.508m0 3.377a.87.87 0 0 1 0-1.737.87.87 0 0 1 0 1.737M19.15 4.475a2.51 2.51 0 0 0-2.51 2.508 2.51 2.51 0 0 0 2.51 2.51 2.51 2.51 0 0 0 2.508-2.51 2.51 2.51 0 0 0-2.509-2.508m0 3.377a.87.87 0 0 1 0-1.737.87.87 0 0 1 0 1.737M47.304 49.312c0-.505-.261-.958-.699-1.21l-8.508-4.912a1.38 1.38 0 0 0-1.398 0c-.438.252-.699.705-.699 1.21v9.825c0 .505.261.958.7 1.21.437.253.96.253 1.397 0l2.066-1.192 1.588 2.75a1.47 1.47 0 0 0 2.004.537l1.835-1.06a1.47 1.47 0 0 0 .538-2.004l-1.588-2.75 2.065-1.193c.438-.252.7-.705.7-1.21m-3.71 1.056c-.346.2-.593.522-.697.908-.103.385-.05.788.15 1.134l1.574 2.727-1.536.887-1.575-2.727a1.495 1.495 0 0 0-2.04-.547l-1.83 1.056v-8.987l7.783 4.493z"/></g><defs><clipPath id="a"><path fill="#fff" d="M0 0h60v60H0z"/></clipPath></defs></svg>