<svg xmlns="http://www.w3.org/2000/svg" width="60" height="60" fill="none"><path fill="#282928" d="M27.166 4.569Q15.59 9.355 4.01 14.137c-2.41.95-2.614 4.619-.214 5.677 7.933 3.229 15.952 6.605 22.744 9.37 2.334.866 4.829.876 7.033-.008 3.722-1.528 7.446-3.066 11.167-4.6 3.723 1.537 7.5 3.095 10.685 4.414.91.358 1.03 1.96.148 2.348l-22.67 9.343c-1.767.708-3.79.71-5.737-.014L4.522 31.338c-.91-.434-.746-2.01.16-2.355l6.64-2.742c1.206-.416.462-2.219-.686-1.663L4.01 27.312c-2.41.949-2.614 4.618-.214 5.676 3.064 1.26 6.13 2.526 9.194 3.789l-8.98 3.71c-2.41.95-2.614 4.62-.214 5.677 7.92 3.274 15.959 6.58 22.744 9.37 2.334.867 4.829.876 7.033-.007 7.92-3.255 15.95-6.566 22.725-9.363 2.401-1.058 2.197-4.727-.213-5.676l-7.732-3.194c-1.152-.564-1.9 1.254-.685 1.664 2.587 1.065 5.17 2.15 7.757 3.206.91.358 1.03 1.96.148 2.349l-22.67 9.343c-1.76.705-3.777.708-5.717-.007L4.522 44.513c-.882-.389-.763-1.991.146-2.35 3.562-1.46 7.125-2.94 10.685-4.413 3.73 1.533 7.457 3.082 11.187 4.608 2.334.867 4.829.876 7.033-.008 7.92-3.242 15.946-6.583 22.725-9.362 2.401-1.058 2.197-4.727-.213-5.676q-4.491-1.856-8.982-3.71c3.065-1.261 6.13-2.53 9.195-3.788 2.401-1.058 2.197-4.728-.213-5.677-7.703-3.218-15.456-6.333-23.15-9.568-2.118-.88-3.724-.819-5.769 0m5.083 1.669c8.07 3.338 16.268 6.72 23.176 9.575.91.358 1.03 1.963.148 2.35l-22.67 9.342c-1.767.708-3.79.71-5.737-.014L4.522 18.162c-.916-.4-.736-2.024.16-2.356l23.15-9.561c1.898-.775 2.75-.677 4.417-.007"/></svg>