<svg xmlns="http://www.w3.org/2000/svg" width="60" height="60" fill="none"><path fill="#282928" d="M30.034 40.312a10.32 10.32 0 0 1-7.363-3.063 10.42 10.42 0 0 1-3.051-7.4.82.82 0 0 0-.82-.82H3.351a1.34 1.34 0 0 0-.964.406c-.257.262-.395.61-.388.977A28.15 28.15 0 0 0 9.543 49.07a.82.82 0 0 0 1.2-1.118A26.5 26.5 0 0 1 3.648 30.67h14.358a12.04 12.04 0 0 0 3.503 7.737 11.95 11.95 0 0 0 7.705 3.519v14.426a26.33 26.33 0 0 1-16.533-6.52.82.82 0 0 0-1.082 1.234A27.98 27.98 0 0 0 29.501 58c.356 0 .692-.137.947-.387.262-.257.406-.6.406-.968V41.133a.82.82 0 0 0-.82-.82M27.234 30.63a.82.82 0 1 0 0 1.642h5.53a.82.82 0 1 0 0-1.641zM35.604 28.248a.82.82 0 0 0-.82-.82h-9.57a.82.82 0 1 0 0 1.64h9.57a.82.82 0 0 0 .82-.82"/><path fill="#282928" d="M18.486 40.953a.82.82 0 0 0-.82-.82H12.35a.82.82 0 1 0 0 1.64h5.316a.82.82 0 0 0 .82-.82M6.103 27.914a.82.82 0 0 0 .908-.722c.568-4.996 2.662-9.545 6.067-13.207l7.873 7.907a12.1 12.1 0 0 0-2.575 4.867.82.82 0 0 0 1.587.416 10.47 10.47 0 0 1 2.707-4.724 10.3 10.3 0 0 1 6.148-2.992.82.82 0 0 0-.192-1.63 11.9 11.9 0 0 0-6.516 2.902l-7.874-7.908c4.432-4.157 10.18-6.366 16.277-6.244a.82.82 0 1 0 .034-1.64 24.6 24.6 0 0 0-9.61 1.723 24.6 24.6 0 0 0-8.448 5.568h-.001l-.002.003c-4.007 4.024-6.464 9.132-7.106 14.773a.82.82 0 0 0 .723.908M54.017 28.283h-.026a.82.82 0 0 0-.794.846c.19 6.214-2.01 12.071-6.208 16.587l-7.874-7.908a12 12 0 0 0 2.87-6.37.82.82 0 1 0-1.626-.213 10.4 10.4 0 0 1-2.962 6.025 10.37 10.37 0 0 1-5.106 2.816.82.82 0 1 0 .356 1.602 12 12 0 0 0 5.311-2.697l7.874 7.908a22.9 22.9 0 0 1-12.539 6.018.82.82 0 0 0 .23 1.624c5.359-.76 10.219-3.198 14.055-7.05h.001l.002-.003a24.75 24.75 0 0 0 5.594-8.607 24.9 24.9 0 0 0 1.661-9.783.82.82 0 0 0-.82-.795M12.35 43.338a.82.82 0 0 0 0 1.64h3.19a.82.82 0 1 0 0-1.64zM47.437 14.508h-5.316a.82.82 0 1 0 0 1.64h5.316a.82.82 0 1 0 0-1.64M47.438 17.709h-3.19a.82.82 0 1 0 0 1.64h3.19a.82.82 0 1 0 0-1.64"/><path fill="#282928" d="M57.982 25.373a28.1 28.1 0 0 0-6.36-13.803.82.82 0 0 0-1.25 1.063 26.5 26.5 0 0 1 5.943 12.714L41.838 27.39a12 12 0 0 0-3.28-6.098 11.95 11.95 0 0 0-5.872-3.251l1.899-14.359c5.158.846 9.905 3.194 13.744 6.803a.82.82 0 1 0 1.124-1.196c-4.154-3.904-9.31-6.42-14.909-7.274a1.34 1.34 0 0 0-1.017.255c-.294.22-.482.542-.53.906l-2.039 15.418a.82.82 0 0 0 .687.918 10.32 10.32 0 0 1 5.752 2.937 10.4 10.4 0 0 1 2.954 5.976.82.82 0 0 0 .927.701l15.558-2.197c.361-.051.68-.241.897-.535a1.35 1.35 0 0 0 .249-1.022"/></svg>