<svg xmlns="http://www.w3.org/2000/svg" width="60" height="60" fill="none"><path fill="#282928" d="M15 5.625h1.875V7.5H15zM11.25 5.625h1.875V7.5H11.25zM7.5 5.625h1.875V7.5H7.5z"/><path fill="#282928" d="M51.563 1.875H8.438a6.52 6.52 0 0 0-6.563 6.563v31.874a6.52 6.52 0 0 0 6.563 6.563V45c-2.626 0-4.688-2.062-4.688-4.687V11.25h50.625V9.375H3.75v-.937c0-2.626 2.063-4.688 4.688-4.688h43.125c2.624 0 4.687 2.063 4.687 4.688v31.874c0 2.626-2.062 4.688-4.687 4.688v1.875a6.52 6.52 0 0 0 6.562-6.562V8.436a6.52 6.52 0 0 0-6.562-6.562"/><path fill="#282928" d="M18.75 5.625h13.125V7.5H18.75zM48.656 28.313l-.843 27.468c-1.126.657-2.626.657-3.75 0l-.844-27.375-1.969-1.218.938 29.625.656.468a5.69 5.69 0 0 0 6.187 0l.657-.468.937-29.626zM32.813 13.125h-5.626a3.76 3.76 0 0 0-3.75 3.75v37.5a3.76 3.76 0 0 0 3.75 3.75h5.625a3.76 3.76 0 0 0 3.75-3.75v-37.5a3.76 3.76 0 0 0-3.75-3.75m0 43.125h-5.626a1.88 1.88 0 0 1-1.875-1.875v-37.5A1.88 1.88 0 0 1 27.188 15h5.625a1.88 1.88 0 0 1 1.876 1.875v.938h-3.75v1.875h3.75v1.875h-1.876v1.875h1.876v1.875h-1.876v1.875h1.876v1.875h-3.75v1.875h3.75v1.875h-1.876v1.874h1.876v1.876h-1.876v1.874h1.876v1.876h-3.75v1.874h3.75v1.876h-1.876v1.874h1.876v1.876h-1.876v1.874h1.876v1.876h-3.75v1.874h3.75v.938a1.88 1.88 0 0 1-1.876 1.875M19.594 24l-3.75-8.438c-.188-.469-.75-.656-1.219-.469a1.13 1.13 0 0 0-.469.47L10.406 24a.85.85 0 0 0-.094.375v30.937c0 1.594 1.22 2.813 2.813 2.813h3.75c1.594 0 2.813-1.22 2.813-2.813V24.375c0-.094-.042-.25-.094-.375m-5.532 3.187v23.438h-1.874V25.312h5.624v25.313h-1.875V27.187zM15 18.281l2.344 5.156H12.75zm1.875 37.969h-3.75c-.562 0-.937-.375-.937-.938V52.5h5.624v2.812c0 .563-.375.938-.937.938"/><path fill="#282928" d="M51.563 24c-.094-2.531-.75-4.219-1.22-5.531-.656-1.594-.75-2.063 0-2.813.282-.281.376-.656.188-1.031-.093-.375-.468-.562-.843-.562-6.188 0-9.376 5.156-9.376 10.312 0 3.094 2.532 5.625 5.626 5.625 3.093 0 5.624-2.531 5.624-5.625zm-5.626 4.125a3.76 3.76 0 0 1-3.75-3.75c0-1.594.47-3.562 1.407-5.156.937-1.5 2.343-2.719 4.406-3.094-.187 1.031.656 3.375.656 3.375.469 1.219.938 2.719.938 4.875.093 2.063-1.594 3.75-3.657 3.75"/></svg>