<svg xmlns="http://www.w3.org/2000/svg" width="60" height="60" fill="none"><path fill="#282928" d="M30 50.001c11.029 0 20.001-8.972 20.001-20.001S41.03 9.999 30 9.999 9.999 18.97 9.999 30 18.97 50.001 30 50.001m0-38.361c10.124 0 18.36 8.236 18.36 18.36S40.125 48.36 30 48.36 11.64 40.125 11.64 30 19.876 11.64 30 11.64m24.773 39.907a3.23 3.23 0 0 0-3.12 2.406H46.82a.82.82 0 1 0 0 1.64h4.832A3.23 3.23 0 0 0 54.773 58 3.23 3.23 0 0 0 58 54.773a3.23 3.23 0 0 0-3.227-3.226m0 4.812a1.59 1.59 0 0 1-1.586-1.586c0-.874.712-1.586 1.586-1.586s1.586.712 1.586 1.586-.711 1.586-1.586 1.586M32.15 34.38c2.292 0 3.893-1.8 3.893-4.379a.82.82 0 0 0-.82-.82h-2.13a.82.82 0 1 0 0 1.64h1.224c-.215 1.006-.859 1.92-2.167 1.92A2.74 2.74 0 0 1 29.41 30a2.742 2.742 0 0 1 4.27-2.272.82.82 0 0 0 .919-1.36 4.36 4.36 0 0 0-2.45-.748A4.385 4.385 0 0 0 27.77 30a4.385 4.385 0 0 0 4.38 4.38m9.124 0A4.385 4.385 0 0 0 45.654 30a4.385 4.385 0 0 0-4.38-4.38 4.385 4.385 0 0 0-4.38 4.38 4.385 4.385 0 0 0 4.38 4.38m0-7.118c1.51 0 2.739 1.229 2.739 2.739s-1.229 2.74-2.74 2.74A2.74 2.74 0 0 1 38.536 30c0-1.51 1.229-2.74 2.739-2.74M22.539 34.38a4.385 4.385 0 0 0 4.38-4.38 4.385 4.385 0 0 0-4.38-4.38 4.385 4.385 0 0 0-4.38 4.38 4.385 4.385 0 0 0 4.38 4.38m0-7.12c1.51 0 2.739 1.23 2.739 2.74s-1.229 2.74-2.74 2.74A2.74 2.74 0 0 1 19.8 30c0-1.51 1.229-2.74 2.739-2.74m20.454 26.693H39.03a25.6 25.6 0 0 0 9.873-6.698A25.53 25.53 0 0 0 55.593 30c0-6.403-2.375-12.53-6.69-17.255a25.6 25.6 0 0 0-9.873-6.698h12.623a3.23 3.23 0 0 0 3.12 2.406A3.23 3.23 0 0 0 58 5.227 3.23 3.23 0 0 0 54.773 2a3.23 3.23 0 0 0-3.12 2.406H33.227V3.367c0-.754-.614-1.367-1.368-1.367h-3.718c-.754 0-1.368.613-1.368 1.367v1.04H8.347A3.23 3.23 0 0 0 5.227 2 3.23 3.23 0 0 0 2 5.227a3.23 3.23 0 0 0 3.227 3.226 3.23 3.23 0 0 0 3.12-2.406h12.62a25.5 25.5 0 0 0-7.006 4.007.82.82 0 1 0 1.029 1.278 23.8 23.8 0 0 1 11.783-5.069v.823c0 .754.614 1.367 1.368 1.367h3.718c.754 0 1.368-.613 1.368-1.367v-.822a23.9 23.9 0 0 1 14.465 7.588A23.9 23.9 0 0 1 53.953 30a23.9 23.9 0 0 1-6.262 16.148 23.9 23.9 0 0 1-14.464 7.588v-.822c0-.754-.614-1.367-1.368-1.367h-3.718c-.754 0-1.368.613-1.368 1.367v.822a23.9 23.9 0 0 1-14.464-7.588A23.9 23.9 0 0 1 6.047 30c0-6.001 2.23-11.742 6.278-16.166a.82.82 0 0 0-1.21-1.108A25.53 25.53 0 0 0 4.406 30c0 6.403 2.376 12.53 6.691 17.255a25.6 25.6 0 0 0 9.873 6.698H8.347a3.23 3.23 0 0 0-3.12-2.406A3.23 3.23 0 0 0 2 54.773 3.23 3.23 0 0 0 5.227 58a3.23 3.23 0 0 0 3.12-2.406h18.426v1.039c0 .754.614 1.367 1.368 1.367h3.718c.754 0 1.368-.613 1.368-1.367v-1.04h9.766a.82.82 0 0 0 0-1.64m11.78-50.312c.875 0 1.586.711 1.586 1.586 0 .874-.711 1.585-1.586 1.585a1.59 1.59 0 0 1-1.586-1.585c0-.875.712-1.586 1.586-1.586M5.227 6.813A1.59 1.59 0 0 1 3.64 5.227c0-.875.711-1.586 1.586-1.586.874 0 1.585.711 1.585 1.586 0 .874-.711 1.585-1.585 1.585m26.359 0h-3.172V3.64h3.172zM5.226 56.359a1.59 1.59 0 0 1-1.585-1.586c0-.874.711-1.586 1.586-1.586.874 0 1.585.712 1.585 1.586s-.711 1.586-1.585 1.586m26.36 0h-3.172v-3.172h3.172zM15.027 34.362c.06.01.107.018.895.018.38 0 .933-.002 1.742-.006a.82.82 0 0 0-.005-1.64h-.004c-.577.002-1.197.005-1.668.005v-6.298a.82.82 0 1 0-1.64 0v7.112c0 .4.287.741.68.809"/></svg>