<svg xmlns="http://www.w3.org/2000/svg" width="60" height="60" fill="none"><path fill="#282928" d="M31.556 37.397 47.543 9.668v-3.12A6.544 6.544 0 0 0 41.004 0h-28.77a6.544 6.544 0 0 0-6.539 6.548v41.904A6.544 6.544 0 0 0 12.234 55h28.77a6.544 6.544 0 0 0 6.54-6.548v-12.59l-4.662 8.084a8.94 8.94 0 0 1-2.803 2.978l-3.463 2.292a4.17 4.17 0 0 1-2.303.697 4.22 4.22 0 0 1-3.058-1.327 4.15 4.15 0 0 1-1.122-3.12l.247-4.148a8.96 8.96 0 0 1 1.176-3.922zM13.542 7.857h11.77c.723 0 1.307.587 1.307 1.31s-.584 1.31-1.308 1.31h-11.77a1.31 1.31 0 0 1-1.307-1.31c0-.723.585-1.31 1.308-1.31m0 7.857H37.46c.724 0 1.308.587 1.308 1.31s-.584 1.31-1.308 1.31H13.542a1.31 1.31 0 0 1-1.308-1.31c0-.723.585-1.31 1.308-1.31m12.24 31.429h-1.778c-.437 0-.845-.219-1.087-.582l-1.53-2.291-.833 1.256c-.432.619-1.129.945-1.858.859a1.96 1.96 0 0 1-1.594-1.213l-.945-2.361-1.402 3.51a1.308 1.308 0 1 1-2.43-.974l1.4-3.509a2.614 2.614 0 0 1 4.857-.005l.481 1.205.148-.222a2.58 2.58 0 0 1 2.173-1.173 2.59 2.59 0 0 1 2.183 1.186l1.131 1.695h1.08c.724 0 1.308.587 1.308 1.31 0 .722-.584 1.309-1.308 1.309zm2.616-13.095H13.542a1.31 1.31 0 0 1-1.308-1.31c0-.723.585-1.31 1.308-1.31h14.856c.723 0 1.308.587 1.308 1.31s-.585 1.31-1.308 1.31M13.542 26.19a1.31 1.31 0 0 1-1.308-1.309c0-.723.585-1.31 1.308-1.31h19.38c.724 0 1.308.587 1.308 1.31s-.584 1.31-1.307 1.31zM56.375 15.543l1.529-2.821c.822-1.517.333-3.456-1.089-4.33l-1.288-.793c-1.424-.876-3.244-.355-4.065 1.16l-1.528 2.822z"/><path fill="#282928" d="m48.046 14.349-13.79 24.755a6.5 6.5 0 0 0-.814 2.81l-.244 4.217c-.075 1.313 1.328 2.152 2.387 1.427l3.401-2.327a6.3 6.3 0 0 0 1.942-2.137l13.79-24.755-6.671-3.991z"/></svg>