<svg xmlns="http://www.w3.org/2000/svg" width="50" height="50" fill="none"><path fill="#000" d="M21.884 19.219c0-.432.35-.781.781-.781h9.238a.781.781 0 1 1 0 1.562h-9.238a.78.78 0 0 1-.78-.781m.781-3.15h9.238a.781.781 0 0 0 0-1.563h-9.238a.781.781 0 0 0 0 1.563m0 9.299h9.238a.781.781 0 1 0 0-1.563h-9.238a.781.781 0 0 0 0 1.563m0 3.93h9.238a.781.781 0 1 0 0-1.562h-9.238a.781.781 0 0 0 0 1.563m0 5.368h9.238a.781.781 0 1 0 0-1.562h-9.238a.781.781 0 0 0 0 1.562m-3.96-19.07v3.315a1.877 1.877 0 0 1-1.875 1.875h-3.315a1.877 1.877 0 0 1-1.875-1.875v-3.316c0-1.034.84-1.875 1.875-1.875h3.315c1.035 0 1.876.841 1.876 1.875m-1.562 0a.317.317 0 0 0-.313-.313h-3.315a.317.317 0 0 0-.313.312v3.316c0 .17.143.313.313.313h3.315c.17 0 .313-.144.313-.313zm1.563 9.298v3.316a1.877 1.877 0 0 1-1.876 1.875h-3.315a1.877 1.877 0 0 1-1.875-1.875v-3.316c0-1.034.84-1.875 1.875-1.875h3.315c1.035 0 1.876.841 1.876 1.875m-1.563 0a.317.317 0 0 0-.313-.312h-3.315a.317.317 0 0 0-.313.312v3.316c0 .17.143.312.313.312h3.315c.17 0 .313-.143.313-.312zm1.563 9.3v3.314a1.877 1.877 0 0 1-1.876 1.876h-3.315a1.877 1.877 0 0 1-1.875-1.876v-3.315c0-1.034.84-1.875 1.875-1.875h3.315c1.035 0 1.876.841 1.876 1.875m-1.563 0a.317.317 0 0 0-.313-.314h-3.315a.317.317 0 0 0-.313.313v3.315c0 .17.143.313.313.313h3.315c.17 0 .313-.143.313-.313zm25.849 2.673v4.82c0 1.789-.641 3.534-1.804 4.913a7.65 7.65 0 0 1-4.523 2.607.8.8 0 0 1-.268 0 7.65 7.65 0 0 1-5.371-3.844H8.544a1.534 1.534 0 0 1-1.532-1.532V8.085c0-.845.687-1.532 1.532-1.532h7.114C16.045 3.307 18.814.78 22.162.78c3.349 0 6.117 2.526 6.505 5.772h2.897c.415 0 .79.155 1.084.449l4.216 4.216c.293.293.449.668.449 1.083v21.617l5.205 2.231a.78.78 0 0 1 .474.718M32.656 11.21h1.99l-1.99-1.989zM17.172 7.334a4.996 4.996 0 0 0 4.99 4.99 4.996 4.996 0 0 0 4.99-4.99 4.996 4.996 0 0 0-4.99-4.99 4.996 4.996 0 0 0-4.99 4.99M30.375 43.8a7.6 7.6 0 0 1-.304-2.113v-3.09h-7.405a.781.781 0 0 1 0-1.562h7.405v-.168c0-.312.186-.595.474-.718l5.205-2.23V12.77h-3.5a1.16 1.16 0 0 1-1.156-1.156v-3.5h-2.427c-.388 3.246-3.156 5.772-6.505 5.772s-6.117-2.526-6.504-5.772H8.574V43.8zm11.054-6.418-4.898-2.099-4.897 2.1v4.304c0 2.864 2.096 5.4 4.897 5.956 2.802-.556 4.898-3.092 4.898-5.956zm-7.215 3.222a.781.781 0 0 0-1.105 1.105l2.365 2.365a.78.78 0 0 0 1.16-.061l3.375-4.173a.781.781 0 1 0-1.215-.982l-2.829 3.497zM18.719 9.603a.78.78 0 0 1-.782-.782V5.846c0-.431.35-.78.782-.78h1.175V3.89c0-.431.35-.78.78-.78h2.976c.431 0 .781.349.781.78v1.175h1.175c.431 0 .781.35.781.781v2.975c0 .432-.35.782-.781.782H24.43v1.175c0 .431-.35.78-.781.78h-2.975a.78.78 0 0 1-.781-.78V9.603zm.78-1.563h1.176c.431 0 .781.35.781.781v1.175h1.413V8.821c0-.431.35-.78.78-.78h1.176V6.627H23.65a.78.78 0 0 1-.781-.782V4.672h-1.413v1.174c0 .432-.35.782-.781.782H19.5z"/></svg>