<svg xmlns="http://www.w3.org/2000/svg" width="60" height="60" fill="none"><path fill="#282928" d="M49.418 10.582a22.18 22.18 0 0 0-15.787-6.539 22.18 22.18 0 0 0-15.787 6.54c-.308.307-.61.627-.898.951a.762.762 0 1 0 1.138 1.014q.404-.454.838-.888a20.67 20.67 0 0 1 14.71-6.093c5.556 0 10.78 2.164 14.709 6.093 8.11 8.11 8.11 21.308 0 29.418a20.67 20.67 0 0 1-14.71 6.093 20.67 20.67 0 0 1-14.709-6.093 20.83 20.83 0 0 1-6-12.742 20.86 20.86 0 0 1 3.366-13.46.762.762 0 0 0-1.27-.844 22.38 22.38 0 0 0-3.613 14.447 22.35 22.35 0 0 0 4.076 10.886l-2.238 2.237a.76.76 0 0 0-1.077 0l-6.834 6.835a4.41 4.41 0 0 0 0 6.232 4.4 4.4 0 0 0 3.115 1.288c1.129 0 2.257-.43 3.116-1.288l1.932-1.932a.762.762 0 1 0-1.078-1.077l-1.931 1.931a2.86 2.86 0 0 1-2.039.844c-.77 0-1.494-.3-2.038-.844a2.86 2.86 0 0 1-.844-2.038c0-.77.3-1.494.844-2.038l6.295-6.296 4.077 4.077-2.209 2.208a.762.762 0 1 0 1.078 1.078l2.747-2.747a.76.76 0 0 0 0-1.078l2.234-2.233c3.765 2.709 8.27 4.171 13 4.171a22.18 22.18 0 0 0 15.787-6.54 22.18 22.18 0 0 0 6.54-15.786 22.18 22.18 0 0 0-6.54-15.787M17.32 45.68l-3-3 2.097-2.097a22.3 22.3 0 0 0 2.998 3.002z"/><path fill="#282928" d="M41.424 42.612a18 18 0 0 0 4.942-3.507c7.023-7.023 7.023-18.451 0-25.474-7.023-7.024-18.45-7.023-25.474 0-7.023 7.023-7.023 18.45 0 25.474a18.05 18.05 0 0 0 17.551 4.624.762.762 0 0 0-.406-1.47 16.53 16.53 0 0 1-16.067-4.232c-6.43-6.429-6.43-16.89 0-23.319s16.89-6.429 23.319 0 6.429 16.89 0 23.32a16.5 16.5 0 0 1-4.524 3.21.762.762 0 0 0 .66 1.374"/><path fill="#282928" d="M34.549 22.897a.762.762 0 1 0 0-1.524H30.98a.76.76 0 0 0-.762.762v8.468c0 .421.34.762.762.762h3.568a.762.762 0 1 0 0-1.524h-2.806v-2.71h2.543a.762.762 0 1 0 0-1.524h-2.543v-2.71zM25.518 29.88c-.935 0-1.837-.38-2.414-1.016a.762.762 0 0 0-1.13 1.023c.862.95 2.186 1.518 3.544 1.518 1.625 0 3.042-1.067 3.294-2.48.292-1.632-.991-2.724-2.289-3.203-1.1-.406-2.12-.849-2.377-.962a.89.89 0 0 1-.356-.865c.063-.436.397-.785.895-.935 1.372-.413 2.61.581 2.634.6a.762.762 0 0 0 .978-1.168c-.075-.064-1.874-1.547-4.052-.891-1.064.32-1.817 1.155-1.963 2.177a2.41 2.41 0 0 0 1.075 2.389q.051.033.106.058c.05.021 1.217.541 2.533 1.027.945.348 1.425.897 1.316 1.505-.106.593-.77 1.224-1.794 1.224M46.13 26.37a5.04 5.04 0 0 0-5.034-5.036 5.04 5.04 0 0 0-5.035 5.035 5.04 5.04 0 0 0 5.035 5.035 5.04 5.04 0 0 0 5.035-5.035m-8.545 0a3.515 3.515 0 0 1 3.51-3.512 3.515 3.515 0 0 1 3.512 3.511 3.515 3.515 0 0 1-3.511 3.511 3.515 3.515 0 0 1-3.511-3.51"/></svg>