<svg xmlns="http://www.w3.org/2000/svg" width="109" height="50" fill="none"><g fill="#000" clip-path="url(#a)"><path d="m33.053 5.833-1.497.464a10.5 10.5 0 0 0-.716-1.761c-1.062-2.024-2.615-3.096-4.492-3.098h-.007c-.13 0-.26.012-.39.024a5 5 0 0 0-.17-.196c-.816-.874-1.866-1.3-3.122-1.264-2.426.07-4.84 1.82-6.798 4.93-1.378 2.19-2.425 4.94-2.723 7.068l-4.774 1.478c-1.405.441-1.45.485-1.634 1.81-.14 1.002-3.816 29.436-3.816 29.436L33.423 50V5.77c-.15.01-.285.038-.37.063M26.01 8.014l-5.146 1.593c.498-1.904 1.44-3.8 2.598-5.042.431-.462 1.034-.977 1.747-1.272.671 1.399.817 3.382.8 4.721m-3.304-6.398c.57-.012 1.049.113 1.459.382-.655.34-1.29.83-1.883 1.467-1.54 1.652-2.72 4.217-3.191 6.692l-4.226 1.308c.834-3.896 4.098-9.742 7.841-9.85m-4.718 22.19c.164 2.595 6.991 3.162 7.375 9.241.302 4.783-2.537 8.054-6.627 8.313-4.908.31-7.611-2.587-7.611-2.587l1.04-4.425s2.72 2.052 4.897 1.915c1.422-.09 1.93-1.246 1.879-2.065-.214-3.385-5.774-3.186-6.125-8.749-.296-4.682 2.779-9.425 9.562-9.853 2.614-.165 3.953.502 3.953.502l-1.552 5.803s-1.73-.788-3.781-.658c-3.009.19-3.04 2.087-3.01 2.563m9.634-16.29c-.018-1.229-.165-2.937-.737-4.413 1.84.348 2.746 2.43 3.128 3.672zM34.43 49.88l12.656-3.147s-5.45-36.842-5.484-37.095a.485.485 0 0 0-.438-.408c-.183-.015-3.746-.07-3.746-.07s-2.172-2.109-2.988-2.907z"/></g><g fill="#000" clip-path="url(#b)"><path d="M85.345 28.447h6.307c1.794 0 2.929-.986 2.929-2.571 0-1.495-1.135-2.571-2.929-2.571h-6.307c-.21 0-.388.178-.388.36v4.422c.028.21.177.36.388.36m0 10.192h6.516c2.002 0 3.198-1.017 3.198-2.81 0-1.555-1.135-2.81-3.198-2.81h-6.516c-.21 0-.388.178-.388.36v4.872c.028.24.177.388.388.388"/><path d="M108.42.11 89.767 18.704h3.05c4.752 0 7.562 2.99 7.562 6.247 0 2.571-1.734 4.453-3.588 5.291-.299.12-.299.538.03.657 2.152.837 3.676 3.08 3.676 5.708 0 3.706-2.48 6.665-7.293 6.665H79.993c-.21 0-.388-.178-.388-.36V28.834L59.13 49.22c-.27.27-.09.747.299.747h49.231a.33.33 0 0 0 .329-.33V.38c.088-.33-.329-.508-.568-.27"/></g><defs><clipPath id="a"><path fill="#fff" d="M0 0h50v50H0z"/></clipPath><clipPath id="b"><path fill="#fff" d="M59 0h50v49.968H59z"/></clipPath></defs></svg>