<svg xmlns="http://www.w3.org/2000/svg" width="60" height="60" fill="none"><path fill="#282928" d="M39.994 59H20.006a1 1 0 0 1-.711-.293.997.997 0 0 1 0-1.414 1 1 0 0 1 .711-.293h19.988c.267 0 .523.105.711.293a.997.997 0 0 1 0 1.414 1 1 0 0 1-.711.293M55.967 45H4.033c-.274 0-.536-.105-.73-.293A.98.98 0 0 1 3 44c0-.265.109-.52.303-.707.194-.188.456-.293.73-.293h51.934c.274 0 .537.105.73.293A.98.98 0 0 1 57 44c0 .265-.109.52-.303.707a1.05 1.05 0 0 1-.73.293M40.827 48h-1.654c-.31 0-.61-.105-.83-.293A.93.93 0 0 1 38 47c0-.265.124-.52.344-.707.22-.188.518-.293.83-.293h1.653c.31 0 .61.105.83.293.22.187.343.442.343.707s-.124.52-.344.707c-.22.188-.518.293-.83.293M45.828 48h-1.655c-.31 0-.61-.105-.83-.293A.93.93 0 0 1 43 47c0-.265.124-.52.344-.707.22-.188.518-.293.83-.293h1.653c.31 0 .61.105.83.293.22.187.343.442.343.707s-.124.52-.344.707c-.22.188-.518.293-.83.293zM50.86 48h-1.72c-.302 0-.592-.105-.806-.293A.94.94 0 0 1 48 47c0-.265.12-.52.334-.707.214-.188.504-.293.806-.293h1.72c.302 0 .592.105.806.293A.94.94 0 0 1 52 47c0 .265-.12.52-.334.707a1.23 1.23 0 0 1-.806.293"/><path fill="#282928" d="M24.083 59a1.07 1.07 0 0 1-.85-.418 1.1 1.1 0 0 1-.203-.938l1.836-7.8a1.1 1.1 0 0 1 .486-.682 1.07 1.07 0 0 1 1.488.363 1.1 1.1 0 0 1 .13.831l-1.836 7.8c-.057.24-.191.454-.382.607a1.07 1.07 0 0 1-.669.237M35.274 58.119l-1.257-7.8a1.4 1.4 0 0 1-.001-.429c.022-.142.066-.277.129-.397.127-.243.326-.413.552-.47a.73.73 0 0 1 .654.16c.193.16.327.412.373.698l1.258 7.798c.047.286 0 .584-.127.827-.127.244-.326.413-.553.472a.73.73 0 0 1-.655-.16 1.14 1.14 0 0 1-.373-.7"/><path fill="#282928" d="M54.158 51H5.843a2.8 2.8 0 0 1-2.03-.812 2.76 2.76 0 0 1-.812-2.014V18.88C3 17.265 4.25 16 5.849 16h4.669c.274 0 .537.108.73.3a1.02 1.02 0 0 1 0 1.448c-.193.192-.456.3-.73.3H5.843c-.618 0-.782.522-.782.83v29.296c0 .233.076.777.782.777h48.315a.76.76 0 0 0 .73-.476.74.74 0 0 0 .051-.3V18.878c0-.402-.314-.83-.781-.83h-4.67c-.274 0-.537-.109-.73-.3a1.02 1.02 0 0 1 0-1.45c.193-.191.456-.299.73-.299h4.67c.761.01 1.488.319 2.02.858a2.84 2.84 0 0 1 .822 2.02v29.296a2.77 2.77 0 0 1-.823 2.004 2.82 2.82 0 0 1-2.02.822"/><path fill="#282928" d="M45.79 38H14.21a4.23 4.23 0 0 1-2.976-1.23A4.2 4.2 0 0 1 10 33.804v-23.75A1.05 1.05 0 0 1 11.059 9H48.94c.281 0 .55.111.749.309s.31.466.31.745v23.75a4.2 4.2 0 0 1-1.234 2.965A4.23 4.23 0 0 1 45.79 38M12.118 11.112v22.693c0 .552.22 1.083.613 1.474a2.1 2.1 0 0 0 1.48.612H45.79a2.1 2.1 0 0 0 1.48-.612c.391-.392.612-.922.612-1.474V11.109z"/><path fill="#282928" d="M48.941 10.996c-.28 0-.55-.11-.748-.305a1.03 1.03 0 0 1-.31-.736V5.139a2.04 2.04 0 0 0-.615-1.453 2.11 2.11 0 0 0-1.478-.603H14.21a2.11 2.11 0 0 0-1.48.604c-.392.387-.612.91-.612 1.456v4.816c0 .276-.112.54-.31.736a1.07 1.07 0 0 1-1.498 0 1.03 1.03 0 0 1-.31-.736V5.143a4.11 4.11 0 0 1 1.234-2.928A4.25 4.25 0 0 1 14.21 1h31.58a4.25 4.25 0 0 1 2.976 1.215A4.11 4.11 0 0 1 50 5.143v4.816c-.001.275-.113.54-.312.734a1.07 1.07 0 0 1-.747.303"/><path fill="#282928" d="M44.897 7h-2.794c-.293 0-.573-.105-.78-.293A.96.96 0 0 1 41 6c0-.265.116-.52.323-.707.207-.188.487-.293.78-.293h2.794c.293 0 .573.105.78.293A.96.96 0 0 1 46 6c0 .265-.116.52-.323.707a1.16 1.16 0 0 1-.78.293M38.897 7h-2.794c-.292 0-.573-.105-.78-.293A.96.96 0 0 1 35 6c0-.265.116-.52.323-.707.207-.188.488-.293.78-.293h2.794c.292 0 .573.105.78.293A.96.96 0 0 1 40 6c0 .265-.116.52-.323.707a1.16 1.16 0 0 1-.78.293M30.977 7H15.023c-.271 0-.532-.105-.723-.293A1 1 0 0 1 14 6c0-.265.108-.52.3-.707.191-.188.451-.293.723-.293h15.954c.271 0 .532.105.723.293.192.187.3.442.3.707s-.108.52-.3.707a1.03 1.03 0 0 1-.723.293M44.952 33H15.048c-.278 0-.545-.101-.741-.281a.92.92 0 0 1-.307-.68V25.96c0-.254.11-.499.307-.679.196-.18.463-.281.74-.281h29.905c.278 0 .545.101.741.281.197.18.307.425.307.68v6.079c0 .254-.11.499-.307.679-.196.18-.463.281-.74.281m-28.856-1.92h27.808v-4.16H16.096zM30.315 22.4a.24.24 0 0 1-.18-.072.27.27 0 0 1-.073-.18q0-.036.012-.072l.024-.072 2.653-3.888-2.472-3.72a.3.3 0 0 1-.037-.144.23.23 0 0 1 .072-.168.23.23 0 0 1 .18-.084h1.477q.155 0 .24.084a.8.8 0 0 1 .144.156l1.608 2.388 1.62-2.388q.048-.072.144-.156a.37.37 0 0 1 .252-.084h1.404q.096 0 .167.084a.223.223 0 0 1 .036.312l-2.471 3.708 2.663 3.9a.13.13 0 0 1 .025.072.2.2 0 0 1 .012.072.27.27 0 0 1-.072.18.24.24 0 0 1-.18.072h-1.525a.37.37 0 0 1-.252-.084 2 2 0 0 1-.132-.144l-1.751-2.52-1.74 2.52a.7.7 0 0 1-.132.144q-.084.084-.252.084zM25.504 22.52q-1.056 0-1.848-.348a2.67 2.67 0 0 1-1.224-1.092Q22 20.336 22 19.196V14.3q0-.132.084-.216A.3.3 0 0 1 22.3 14h1.308q.132 0 .216.084a.3.3 0 0 1 .084.216v4.884q0 .888.42 1.32t1.176.432q.744 0 1.164-.432t.42-1.32V14.3q0-.132.084-.216a.32.32 0 0 1 .216-.084h1.32q.12 0 .204.084a.3.3 0 0 1 .084.216v4.896q0 1.14-.432 1.884a2.68 2.68 0 0 1-1.212 1.092q-.78.348-1.848.348"/></svg>