<svg xmlns="http://www.w3.org/2000/svg" width="50" height="50" fill="none"><g fill="#212121" clip-path="url(#a)"><path d="M37.89 28.3q0 1.313-.352 2.423a6.4 6.4 0 0 1-1.062 2.03q-.722.925-1.664 1.39a4.66 4.66 0 0 1-2.094.468 4.7 4.7 0 0 1-1.624-.278 4.6 4.6 0 0 1-1.406-.83 5.7 5.7 0 0 1-1.105-1.28 7.2 7.2 0 0 1-.766-1.637l-.113-.343.334-.139 1.867-.774.367-.152.146.37q.19.484.439.865.244.373.538.637.283.252.611.378.328.125.712.125.362 0 .667-.202.335-.221.62-.682.298-.485.448-1.07.151-.588.151-1.298 0-.784-.161-1.372a2.7 2.7 0 0 0-.463-.962q-.346-.453-.894-.68-.57-.238-1.37-.238l-.91-.002h-.39v-1.481l.053-.195 2.848-4.924h-2.95l-.079.135-4.667 15.748-.083.28h-.808l-.084-.279-3.041-10.176-3.041 10.176-.084.28h-.808l-.084-.281-5.463-18.44-.148-.501h3.204l.082.28 2.928 9.956 1.824-6.178-1.06-3.556-.15-.502h2.914v.334l.374-.054 2.927 9.954 2.929-9.954.082-.28h9.63v1.506l-.053.195-3.136 5.404q.677.278 1.226.7a5 5 0 0 1 1.222 1.377q.486.801.728 1.736.24.935.241 1.994m-1.096 2.188q.315-.994.314-2.187 0-.97-.214-1.798a5.7 5.7 0 0 0-.639-1.529 4.2 4.2 0 0 0-1.033-1.163 4.7 4.7 0 0 0-1.44-.74l-.46-.147.242-.419 3.316-5.714v-.621h-8.266l-3.22 10.944h-.747L21.428 16.17h-1.576l.943 3.164v.222l-2.231 7.558h-.748L14.598 16.17h-1.577l5.056 17.066L21.23 22.68h.748l3.154 10.554 4.42-14.918.039-.087.218-.37.113-.194h4.746l-.338.586-3.134 5.417v.6h.52q.951 0 1.668.297.74.308 1.213.926.398.514.596 1.233.192.698.192 1.576 0 .795-.179 1.49-.18.702-.54 1.287-.377.61-.852.923a1.95 1.95 0 0 1-1.097.334q-.526 0-.99-.178a2.7 2.7 0 0 1-.853-.527 4 4 0 0 1-.671-.79 5 5 0 0 1-.356-.642l-1.168.485q.236.618.559 1.122.405.636.955 1.106.54.46 1.166.69.627.228 1.358.229a3.9 3.9 0 0 0 1.749-.386q.782-.387 1.394-1.17a5.7 5.7 0 0 0 .933-1.786"/><path d="M7.031 6.64H43.36V43.36H6.641V6.641zm35.547.782H7.422v35.156h35.156z"/></g><defs><clipPath id="a"><path fill="#fff" d="M0 0h50v50H0z"/></clipPath></defs></svg>