<svg xmlns="http://www.w3.org/2000/svg" width="60" height="60" fill="none"><path fill="#282928" d="M57.647 7.755a4.813 4.813 0 0 0-7.173.373L38.756 22.31c-2.264-.491-4.264.518-5.664 2.927-.509.873-.854 1.89-1.027 3.027-.282 1.81-.846 3.373-1.736 4.773a.78.78 0 0 0-.037.773c.127.245.382.4.655.409.39.018.782.018 1.154.018 4.528 0 7.691-1.073 9.4-3.182 1.328-1.645 1.4-3.454 1.31-4.436l14.381-11.691a4.85 4.85 0 0 0 1.827-3.482 4.76 4.76 0 0 0-1.372-3.691m-15.41 12.773 2.528 2.527-2.6 2.11L40.11 23.1zM40.293 30.1c-1.364 1.672-4.118 2.563-8 2.59.636-1.272 1.064-2.654 1.3-4.2.146-.945.427-1.781.837-2.481.89-1.528 1.981-2.291 3.254-2.291q.466 0 .973.136l2.6 2.618c.09.555.218 2.191-.964 3.628m15.955-16.382-.01.009-10.272 8.354-2.746-2.745L51.674 9.11a3.3 3.3 0 0 1 2.382-1.228c.936-.054 1.836.3 2.49.964s1 1.573.946 2.5a3.28 3.28 0 0 1-1.245 2.373M25.956 42.736a.882.882 0 1 0 0-1.763.882.882 0 0 0 0 1.763M16.846 11.783a.77.77 0 0 0-.773-.773H6.146a.77.77 0 0 0-.773.773v7.79c0 .428.345.773.773.773h9.927a.77.77 0 0 0 .773-.773zM15.3 18.792H6.92v-6.246H15.3zM16.846 23.392a.77.77 0 0 0-.773-.773H6.146a.772.772 0 1 0 0 1.546h9.927a.77.77 0 0 0 .773-.773M6.146 26.092a.772.772 0 1 0 0 1.545h6.972a.772.772 0 1 0 0-1.545zM30.264 23.392a.77.77 0 0 0-.773-.773h-9.927a.772.772 0 1 0 0 1.546h9.927a.77.77 0 0 0 .773-.773M19.564 26.092a.772.772 0 1 0 0 1.545h6.973a.772.772 0 1 0 0-1.545zM30.264 11.783a.77.77 0 0 0-.773-.773h-9.927a.77.77 0 0 0-.773.773v7.79c0 .428.346.773.773.773h9.927a.77.77 0 0 0 .773-.773zm-1.546 7.009h-8.381v-6.246h8.381z"/><path fill="#282928" d="M50.955 24.191a.772.772 0 1 0-1.545 0v13.7H2.5v-27a3.053 3.053 0 0 1 3.046-3.055h40.81c.308 0 .626.055.98.182a.78.78 0 0 0 .983-.482.78.78 0 0 0-.482-.981c-.518-.173-1-.264-1.482-.264H5.546c-2.527 0-4.59 2.064-4.59 4.6V41.2c0 2.536 2.063 4.6 4.59 4.6h14.282l-1.182 2.818h-3.39a2.537 2.537 0 0 0 0 5.073h21.408a2.537 2.537 0 0 0 0-5.073h-3.39L32.09 45.8h14.273c2.527 0 4.591-2.054 4.591-4.582V24.191m-13.3 26.973a.993.993 0 0 1-.99.99h-21.41a.993.993 0 0 1-.99-.99c0-.546.445-.991.99-.991h21.41c.545 0 .99.445.99.99m-6.064-2.537H20.32L21.5 45.81h8.91zm17.819-7.4a3.044 3.044 0 0 1-3.046 3.037H5.546a3.053 3.053 0 0 1-3.045-3.055v-1.763H49.41z"/></svg>