<svg xmlns="http://www.w3.org/2000/svg" width="50" height="50" fill="none"><g clip-path="url(#a)"><path fill="#000" d="M25 0C11.215 0 0 11.214 0 24.999 0 38.785 11.215 50 25 50s24.998-11.215 24.998-25.001C50 11.215 38.785 0 25.001 0M2.523 24.999c0-3.258.699-6.352 1.946-9.147l10.722 29.377C7.694 41.585 2.523 33.896 2.523 24.999M25 47.478c-2.207 0-4.337-.324-6.35-.916l6.743-19.597 6.91 18.929q.069.166.16.31a22.5 22.5 0 0 1-7.463 1.274m3.096-33.017c1.353-.072 2.574-.214 2.574-.214 1.21-.144 1.068-1.923-.144-1.852 0 0-3.64.285-5.992.285-2.207 0-5.92-.285-5.92-.285-1.212-.071-1.353 1.78-.142 1.852 0 0 1.147.143 2.357.214l3.502 9.595-4.92 14.752-8.183-24.347a45 45 0 0 0 2.573-.214c1.21-.143 1.068-1.923-.144-1.85 0 0-3.64.285-5.99.285-.423 0-.92-.011-1.447-.027C10.239 6.552 17.148 2.523 25 2.523c5.852 0 11.18 2.237 15.178 5.9-.097-.005-.192-.018-.292-.018-2.207 0-3.774 1.923-3.774 3.99 0 1.851 1.068 3.42 2.207 5.27.855 1.498 1.853 3.422 1.853 6.2 0 1.924-.739 4.156-1.71 7.266l-2.243 7.492zM36.3 44.429l6.866-19.85c1.283-3.207 1.709-5.77 1.709-8.052 0-.827-.054-1.595-.152-2.312A22.35 22.35 0 0 1 47.477 25c0 8.292-4.495 15.532-11.177 19.429"/></g><defs><clipPath id="a"><path fill="#fff" d="M0 0h50v50H0z"/></clipPath></defs></svg>