<svg xmlns="http://www.w3.org/2000/svg" width="50" height="50" fill="none"><path fill="#000" d="M4.875 28.5h.967a19.7 19.7 0 0 0 2.112 4.824l-.764.764a3.31 3.31 0 0 0 0 4.685l2.475 2.475a3.313 3.313 0 0 0 4.684 0l.88-.88c.451.256.915.487 1.383.705-.024-.284-.05-.51-.058-.585a5 5 0 0 0-.508-1.458q-.54-.3-1.056-.633l-1.746 1.746a1.75 1.75 0 0 1-2.474 0l-2.475-2.475a1.75 1.75 0 0 1 0-2.475l1.661-1.661a18.3 18.3 0 0 1-2.897-6.594H4.875a1.75 1.75 0 0 1-1.75-1.75v-3.5a1.75 1.75 0 0 1 1.75-1.75h2.026a18.25 18.25 0 0 1 2.702-6.948l-1.308-1.308a1.75 1.75 0 0 1 0-2.475l2.475-2.475a1.75 1.75 0 0 1 2.474 0l1.224 1.224A18.3 18.3 0 0 1 21.5 4.967V3.313a1.75 1.75 0 0 1 1.75-1.75h3.5a1.75 1.75 0 0 1 1.75 1.75v1.654a18.3 18.3 0 0 1 7.032 2.99l1.224-1.225a1.75 1.75 0 0 1 2.474 0l2.475 2.475a1.75 1.75 0 0 1 0 2.475l-1.308 1.308a18.25 18.25 0 0 1 2.703 6.948h2.025a1.75 1.75 0 0 1 1.75 1.75v3.5a1.75 1.75 0 0 1-1.75 1.75h-2.184a18.3 18.3 0 0 1-2.897 6.594l1.661 1.661a1.75 1.75 0 0 1 0 2.475l-2.474 2.475a1.75 1.75 0 0 1-2.475 0l-.588-.588c-.317.42-.71.777-1.159 1.051l.642.642a3.313 3.313 0 0 0 4.684 0l2.475-2.475a3.31 3.31 0 0 0 0-4.685l-.764-.764a19.7 19.7 0 0 0 2.112-4.824h.967a3.316 3.316 0 0 0 3.313-3.312v-3.5a3.316 3.316 0 0 0-3.313-3.313h-.748a19.7 19.7 0 0 0-2.009-5.146l.442-.442a3.313 3.313 0 0 0 0-4.685l-2.475-2.475a3.31 3.31 0 0 0-4.684 0l-.327.327a19.7 19.7 0 0 0-5.261-2.234v-.408A3.316 3.316 0 0 0 26.75 0h-3.5a3.316 3.316 0 0 0-3.312 3.313v.407a19.7 19.7 0 0 0-5.262 2.234l-.327-.327a3.313 3.313 0 0 0-4.684 0L7.19 8.102a3.31 3.31 0 0 0 0 4.685l.442.441a19.7 19.7 0 0 0-2.01 5.147h-.747a3.316 3.316 0 0 0-3.312 3.313v3.5A3.316 3.316 0 0 0 4.874 28.5"/><path fill="#000" d="M36.643 32.585a1.99 1.99 0 0 0 1.098-1.388 2.43 2.43 0 0 0-.557-1.945 7.5 7.5 0 0 1-1.192-2.223 7 7 0 0 1-.197-1.688c-.015-.403-.032-.82-.082-1.256a11.12 11.12 0 0 0-6.065-8.464 11.7 11.7 0 0 0-5.118-1.168 12.29 12.29 0 0 0-12.3 11.852c-.157 3.905 1.846 6.849 3.455 9.214l.165.242c.998 1.46 2.029 2.97 2.254 4.527q.112.943.124 1.891a1.56 1.56 0 0 0 1.563 1.571h9.875a1.563 1.563 0 0 0 1.563-1.562v-1.486a.95.95 0 0 1 .967-.956h.099c1.578 0 2.354-.694 2.727-1.276a3.34 3.34 0 0 0 .36-2.403l-.003-.017c.28-.203.501-.479.639-.797a1.9 1.9 0 0 0 .112-1.119q.087-.116.153-.246a1.78 1.78 0 0 0 .14-1.213l.076-.028q.073-.027.143-.062m-.687-1.403-.706.267a1.2 1.2 0 0 0-.54.32.79.79 0 0 0 .032.868c.077.148.329.581.012.627q-.284.196-.57.39c-.028.017-.028.11-.003.14q.105.121.2.25.097.127.174.269a.372.372 0 0 1-.267.559.575.575 0 0 0-.59.694q.085.371.141.745c.114.44.067.907-.132 1.316-.294.46-.91.557-1.411.557h-.065l-.034-.001a2.52 2.52 0 0 0-2.337 1.553 2.5 2.5 0 0 0-.193.966v1.486h-4.275V37.5h.781a.781.781 0 1 0 0-1.562h-3.125a.781.781 0 0 0 0 1.562h.782v4.688h-4.038a19 19 0 0 0-.14-2.117c-.289-2.016-1.565-3.803-2.674-5.43-1.712-2.517-3.318-4.994-3.185-8.273a10.75 10.75 0 0 1 7.33-9.802c1.1-.363 2.25-.55 3.407-.55a10.04 10.04 0 0 1 4.43 1.008 9.54 9.54 0 0 1 5.2 7.24c.125 1.077.015 2.176.339 3.226.327.985.82 1.908 1.456 2.728 0 0 .591.675 0 .964m-6.266 14.912a.78.78 0 0 0-.782-.782h-8.593a.781.781 0 1 0 0 1.563h8.593a.78.78 0 0 0 .782-.781m-7.813 2.344a.781.781 0 1 0 0 1.562h5.469a.781.781 0 1 0 0-1.562z"/><path fill="#000" d="M30.94 23.638a7 7 0 0 0-.171-.436 2.1 2.1 0 0 0-.374-2.455l-.751-.751a2.1 2.1 0 0 0-2.377-.413 7 7 0 0 0-.547-.231 2.1 2.1 0 0 0-1.97-1.383h-1.062a2.1 2.1 0 0 0-1.97 1.383q-.279.103-.547.231a2.1 2.1 0 0 0-2.377.413l-.751.751a2.1 2.1 0 0 0-.374 2.455q-.094.215-.172.436a2.1 2.1 0 0 0-1.481 2.003v1.062a2.1 2.1 0 0 0 1.593 2.033q.06.146.126.29a2.096 2.096 0 0 0 .308 2.57l.75.752a2.095 2.095 0 0 0 2.64.264q.1.043.202.082a2.1 2.1 0 0 0 2.052 1.681h1.063a2.1 2.1 0 0 0 2.053-1.68q.101-.04.202-.083a2.095 2.095 0 0 0 2.639-.264l.75-.751a2.096 2.096 0 0 0 .309-2.571q.066-.144.126-.29a2.1 2.1 0 0 0 1.593-2.033v-1.062a2.1 2.1 0 0 0-1.482-2.003m-.08 3.065a.53.53 0 0 1-.532.531h-.663a5.6 5.6 0 0 1-.88 2.002l.505.505a.53.53 0 0 1 0 .75l-.751.752a.53.53 0 0 1-.752 0l-.53-.53c-.6.392-1.271.664-1.976.8v.768a.53.53 0 0 1-.531.532h-1.062a.53.53 0 0 1-.532-.532v-.768a5.5 5.5 0 0 1-1.976-.8l-.53.53a.53.53 0 0 1-.751 0l-.751-.751a.53.53 0 0 1 0-.751l.504-.505a5.6 5.6 0 0 1-.88-2.002h-.663a.53.53 0 0 1-.53-.53V25.64a.53.53 0 0 1 .53-.532h.615a5.5 5.5 0 0 1 .82-2.109l-.396-.397a.53.53 0 0 1 0-.751l.75-.751a.53.53 0 0 1 .752 0l.372.371a5.55 5.55 0 0 1 2.134-.907v-.503a.53.53 0 0 1 .532-.53h1.062a.53.53 0 0 1 .531.53v.503a5.5 5.5 0 0 1 2.135.907l.371-.371a.53.53 0 0 1 .752 0l.751.75a.53.53 0 0 1 0 .752l-.397.397a5.5 5.5 0 0 1 .82 2.11h.615a.53.53 0 0 1 .531.53z"/><path fill="#000" d="M24.219 21.875a4.297 4.297 0 1 0 0 8.594 4.297 4.297 0 0 0 0-8.594m0 7.031a2.734 2.734 0 1 1 0-5.468 2.734 2.734 0 0 1 0 5.468"/></svg>