<svg xmlns="http://www.w3.org/2000/svg" width="50" height="50" fill="none"><g clip-path="url(#a)"><path fill="#000" fill-rule="evenodd" d="M47.733 25.785h-4.504l.627.744a.785.785 0 0 1-1.2 1.01l-1.713-2.033a.784.784 0 0 1 0-1.011l1.714-2.034a.785.785 0 0 1 1.2 1.01l-.628.745h5.302c.433 0 .784.351.784.784 0 11.81-8.439 21.665-19.61 23.858a.785.785 0 0 1-.303-1.539c10.203-2.003 17.968-10.837 18.331-21.534M24.217 6.773V1.47c0-.433.351-.784.784-.784 11.81 0 21.665 8.438 23.858 19.61a.785.785 0 0 1-1.539.302C45.317 10.397 36.483 2.632 25.786 2.27v4.504l.744-.628a.785.785 0 0 1 1.01 1.2L25.507 9.06a.784.784 0 0 1-1.011 0l-2.034-1.714a.785.785 0 0 1 1.01-1.2zM2.269 24.216h4.504l-.627-.744a.785.785 0 0 1 1.2-1.011l1.714 2.034a.784.784 0 0 1 0 1.01L7.346 27.54a.785.785 0 0 1-1.2-1.011l.627-.744H1.472A.785.785 0 0 1 .688 25c0-11.81 8.438-21.664 19.61-23.858a.785.785 0 0 1 .302 1.54C10.398 4.684 2.633 13.517 2.27 24.215m21.948 23.516v-4.504l-.744.627a.785.785 0 0 1-1.011-1.2l2.034-1.713a.784.784 0 0 1 1.01 0l2.035 1.714a.785.785 0 0 1-1.011 1.2l-.745-.628v5.302a.785.785 0 0 1-.784.784c-11.81 0-21.664-8.439-23.858-19.61a.785.785 0 0 1 1.54-.303c2.001 10.203 10.834 17.97 21.532 18.332m4.1-34.82c1.01.276 1.979.678 2.889 1.197l1.855-.824a.78.78 0 0 1 .873.162l2.62 2.62c.23.23.295.576.163.873l-.822 1.855c.52.91.922 1.88 1.198 2.893l1.892.728a.78.78 0 0 1 .503.732v3.708c0 .324-.2.615-.503.732l-1.892.728a12.5 12.5 0 0 1-1.198 2.888l.822 1.857a.78.78 0 0 1-.162.872l-2.621 2.62a.78.78 0 0 1-.872.163l-1.855-.821c-.908.52-1.88.92-2.89 1.197l-.728 1.892a.78.78 0 0 1-.732.503h-3.708a.78.78 0 0 1-.732-.503l-.728-1.892a12.5 12.5 0 0 1-2.892-1.198l-1.856.822a.78.78 0 0 1-.872-.162l-2.621-2.621a.78.78 0 0 1-.162-.873l.824-1.855a12.5 12.5 0 0 1-1.2-2.889l-1.892-.728a.78.78 0 0 1-.503-.732v-3.708c0-.324.2-.615.502-.732l1.893-.728c.279-1.012.68-1.982 1.2-2.892l-.824-1.855a.78.78 0 0 1 .162-.873l2.62-2.621a.78.78 0 0 1 .874-.162l1.855.825c.91-.52 1.88-.922 2.889-1.198l.732-1.896a.78.78 0 0 1 .731-.502h3.708c.324 0 .616.2.732.503zm-1.319.941-.68-1.77h-2.63l-.684 1.771a.79.79 0 0 1-.55.481 10.9 10.9 0 0 0-3.194 1.323.78.78 0 0 1-.73.05l-1.733-.771-1.86 1.859.771 1.733a.79.79 0 0 1-.049.73c-.61.99-1.055 2.066-1.327 3.199a.78.78 0 0 1-.481.549l-1.767.68v2.63l1.767.68c.24.093.42.298.48.549a11 11 0 0 0 1.328 3.195c.136.22.155.494.05.73l-.771 1.734 1.86 1.86 1.733-.769a.78.78 0 0 1 .727.049 11 11 0 0 0 3.198 1.324c.253.06.459.24.552.482l.68 1.767h2.63l.68-1.767a.78.78 0 0 1 .551-.482 10.8 10.8 0 0 0 3.193-1.322.78.78 0 0 1 .73-.05l1.733.767 1.86-1.86-.768-1.733a.78.78 0 0 1 .049-.728 11 11 0 0 0 1.324-3.195.78.78 0 0 1 .481-.55l1.768-.68v-2.631l-1.767-.68a.79.79 0 0 1-.482-.552 10.9 10.9 0 0 0-1.323-3.196.79.79 0 0 1-.05-.73l.768-1.733-1.86-1.86-1.732.771a.78.78 0 0 1-.73-.049 10.9 10.9 0 0 0-3.194-1.323.78.78 0 0 1-.55-.482m-1.997 1.56A9.587 9.587 0 0 1 34.59 25a9.587 9.587 0 0 1-9.588 9.588A9.587 9.587 0 0 1 15.413 25a9.587 9.587 0 0 1 9.588-9.588m6.527 14.25A8 8 0 0 0 33.02 25 8.02 8.02 0 0 0 25 16.98a8.019 8.019 0 0 0-6.526 12.682 6.96 6.96 0 0 1 3.879-4.072 3.9 3.9 0 0 1-1.246-2.849A3.904 3.904 0 0 1 25 18.848a3.904 3.904 0 0 1 3.894 3.893c0 1.122-.48 2.137-1.246 2.849a6.96 6.96 0 0 1 3.879 4.072M19.725 31.04a8 8 0 0 0 5.276 1.98c2.02 0 3.866-.747 5.276-1.98a5.364 5.364 0 0 0-5.276-4.405 5.364 5.364 0 0 0-5.276 4.405m5.276-5.974a2.33 2.33 0 0 0 2.325-2.325 2.33 2.33 0 0 0-2.325-2.325 2.33 2.33 0 0 0-2.325 2.325 2.33 2.33 0 0 0 2.325 2.325" clip-rule="evenodd"/></g><defs><clipPath id="a"><path fill="#fff" d="M0 0h50v50H0z"/></clipPath></defs></svg>