<svg xmlns="http://www.w3.org/2000/svg" width="50" height="50" fill="none"><path fill="#000" fill-rule="evenodd" d="M25.003 17.709A7.296 7.296 0 0 0 17.71 25a7.296 7.296 0 0 0 7.292 7.292A7.296 7.296 0 0 0 32.294 25a7.296 7.296 0 0 0-7.291-7.291m0 2.083A5.21 5.21 0 0 1 30.21 25a5.21 5.21 0 0 1-5.208 5.209A5.21 5.21 0 0 1 19.794 25a5.21 5.21 0 0 1 5.209-5.208m-11.46 19.791a5.2 5.2 0 0 0-3.125-1.041H6.251a5.2 5.2 0 0 0-3.683 1.525 5.2 5.2 0 0 0-1.525 3.683v2.083a3.125 3.125 0 0 0 3.125 3.125h41.667a3.125 3.125 0 0 0 3.125-3.125V43.75a5.2 5.2 0 0 0-1.525-3.683 5.2 5.2 0 0 0-3.684-1.525h-4.166a5.2 5.2 0 0 0-3.125 1.041 5.2 5.2 0 0 0-1.525-3.683 5.2 5.2 0 0 0-3.684-1.525h-12.5a5.2 5.2 0 0 0-3.683 1.525 5.2 5.2 0 0 0-1.525 3.683m20.833 0v6.25a1.04 1.04 0 0 1-1.041 1.042H16.668a1.04 1.04 0 0 1-1.042-1.042v-6.25c0-.829.33-1.624.916-2.209a3.12 3.12 0 0 1 2.21-.916h12.5a3.124 3.124 0 0 1 3.124 3.126M13.543 43.75v2.083c0 .575-.467 1.042-1.042 1.042H4.168a1.04 1.04 0 0 1-1.042-1.042V43.75c0-.83.33-1.624.916-2.21a3.12 3.12 0 0 1 2.21-.915h4.166a3.124 3.124 0 0 1 3.125 3.125m22.917 2.083V43.75a3.12 3.12 0 0 1 3.125-3.125h4.166a3.124 3.124 0 0 1 3.125 3.125v2.083c0 .575-.466 1.042-1.041 1.042H37.5a1.04 1.04 0 0 1-1.041-1.042M8.333 26.042a5.21 5.21 0 0 0-5.208 5.208 5.21 5.21 0 0 0 5.208 5.209 5.21 5.21 0 0 0 5.209-5.209 5.21 5.21 0 0 0-5.209-5.208m0 2.083a3.126 3.126 0 0 1 0 6.25 3.126 3.126 0 0 1 0-6.25m33.337-2.083a5.21 5.21 0 0 0-5.21 5.208 5.21 5.21 0 0 0 5.21 5.209 5.21 5.21 0 0 0 5.208-5.209 5.21 5.21 0 0 0-5.209-5.208m0 2.083a3.126 3.126 0 0 1 0 6.25 3.126 3.126 0 0 1 0-6.25" clip-rule="evenodd"/><path fill="#000" fill-rule="evenodd" d="M7.168 22.951a3.12 3.12 0 0 0-1.561-1.998c-.37-.197-.78-.415-1.16-.623l-.01-.006a1.036 1.036 0 0 1-.513-1.186q.254-.905.575-1.788a1.04 1.04 0 0 1 1.117-.658h.001c.434.06.902.126 1.325.179a3.12 3.12 0 0 0 3.063-1.43c.385-.604.81-1.19 1.272-1.744h.002a3.13 3.13 0 0 0 .41-3.37 116 116 0 0 1-.576-1.196 1.04 1.04 0 0 1 .282-1.261q.736-.583 1.516-1.108a1.04 1.04 0 0 1 1.29.124c.316.305.657.632.967.924a3.12 3.12 0 0 0 3.319.643 17 17 0 0 1 2.055-.662 3.13 3.13 0 0 0 2.314-2.485c.072-.413.154-.87.234-1.294L23.092 4c.085-.477.488-.831.97-.855a25 25 0 0 1 1.878-.005 1.04 1.04 0 0 1 .972.86c.076.431.158.896.238 1.315a3.12 3.12 0 0 0 2.308 2.47c.692.18 1.38.403 2.05.672h.002a3.12 3.12 0 0 0 3.331-.65c.302-.29.636-.613.951-.91l.008-.007a1.035 1.035 0 0 1 1.288-.121q.78.52 1.522 1.099c.377.304.493.83.281 1.266-.192.394-.399.82-.581 1.205a3.12 3.12 0 0 0 .414 3.355c.456.552.882 1.137 1.265 1.749h.001a3.12 3.12 0 0 0 3.077 1.432c.416-.057.875-.122 1.304-.177h.012c.479-.068.94.205 1.112.657q.328.881.586 1.785a1.04 1.04 0 0 1-.517 1.188v.001c-.39.207-.807.43-1.181.636a3.1 3.1 0 0 0-1.547 1.987 1.042 1.042 0 0 0 2.02.506 1.03 1.03 0 0 1 .53-.668c.366-.201.776-.419 1.157-.622a3.125 3.125 0 0 0 1.543-3.595 27 27 0 0 0-.64-1.949l-.002-.005a3.12 3.12 0 0 0-3.338-1.986c-.437.055-.905.12-1.328.18a1.04 1.04 0 0 1-1.024-.478 19 19 0 0 0-1.426-1.971l-.004-.006a1.03 1.03 0 0 1-.136-1.116l.005-.013c.18-.379.381-.795.571-1.184a3.125 3.125 0 0 0-.854-3.805l-.012-.01a26 26 0 0 0-1.666-1.203 3.12 3.12 0 0 0-3.87.354c-.32.303-.66.63-.967.926a1.04 1.04 0 0 1-1.11.217 19 19 0 0 0-2.313-.757l-.005-.001a1.04 1.04 0 0 1-.768-.824q0-.008-.002-.014c-.078-.411-.16-.867-.234-1.292a3.125 3.125 0 0 0-2.928-2.577l-.015-.002a27 27 0 0 0-2.05.007h-.005a3.12 3.12 0 0 0-2.922 2.561 99 99 0 0 0-.238 1.318 1.04 1.04 0 0 1-.771.827q-1.182.298-2.316.747l-.006.002a1.03 1.03 0 0 1-1.115-.225 93 93 0 0 1-.949-.908 3.13 3.13 0 0 0-3.884-.364l-.011.008a27 27 0 0 0-1.66 1.214 3.12 3.12 0 0 0-.858 3.79c.187.396.395.821.581 1.205.18.368.125.808-.137 1.123q-.78.936-1.435 1.965l-.003.005a1.03 1.03 0 0 1-1.02.474h-.014c-.415-.054-.874-.117-1.302-.178a3.125 3.125 0 0 0-3.356 1.989l-.005.013a27 27 0 0 0-.628 1.954l-.001.004a3.12 3.12 0 0 0 1.533 3.57c.386.21.802.433 1.18.634.263.14.448.384.52.665a1.043 1.043 0 0 0 2.02-.506" clip-rule="evenodd"/><path fill="#000" fill-rule="evenodd" d="M38.505 23.976c-.524-6.996-6.374-12.517-13.503-12.517S12.023 16.98 11.5 23.976a1.042 1.042 0 1 0 2.077.155c.444-5.918 5.394-10.59 11.426-10.59s10.982 4.672 11.426 10.59a1.042 1.042 0 1 0 2.077-.155" clip-rule="evenodd"/></svg>