<svg xmlns="http://www.w3.org/2000/svg" width="50" height="50" fill="none"><g clip-path="url(#a)"><path fill="#000" d="M40 20c5.514 0 10-4.486 10-10S45.514 0 40 0c-4.004 0-7.457 2.371-9.052 5.778L28.27 4.79a4 4 0 0 0 .063-.623A4.17 4.17 0 0 0 24.167 0 4.17 4.17 0 0 0 20 4.167a4.17 4.17 0 0 0 4.167 4.166 4.16 4.16 0 0 0 3.53-1.978l2.673.987A10 10 0 0 0 30 10c0 1.092.181 2.14.507 3.124l-9.165 3.885c-1.678-3.173-5.01-5.342-8.842-5.342a10 10 0 0 0-3.525.653L6.67 7.476c1.004-.762 1.663-1.955 1.663-3.31A4.17 4.17 0 0 0 4.167 0 4.17 4.17 0 0 0 0 4.167a4.17 4.17 0 0 0 4.167 4.166 4 4 0 0 0 1.001-.136l2.303 4.84c-2.968 1.736-4.971 4.95-4.971 8.63a10 10 0 0 0 4.437 8.304l-1.524 2.74a4.1 4.1 0 0 0-1.246-.211A4.17 4.17 0 0 0 0 36.667a4.17 4.17 0 0 0 4.167 4.166 4.17 4.17 0 0 0 4.166-4.166 4.14 4.14 0 0 0-1.464-3.145l1.528-2.746c1.253.567 2.64.89 4.103.89 2.287 0 4.39-.78 6.077-2.076l3.28 3.608A9.95 9.95 0 0 0 19.167 40c0 .51.05 1.007.124 1.496l-3.86.916A4.16 4.16 0 0 0 11.668 40 4.17 4.17 0 0 0 7.5 44.167a4.17 4.17 0 0 0 4.167 4.166 4.17 4.17 0 0 0 4.166-4.166c0-.046-.012-.09-.013-.135l3.852-.913c1.313 3.99 5.07 6.881 9.495 6.881 5.514 0 10-4.486 10-10 0-1.71-.433-3.32-1.193-4.728l4.895-3.183a4.15 4.15 0 0 0 2.964 1.244A4.17 4.17 0 0 0 50 29.167 4.17 4.17 0 0 0 45.833 25a4.17 4.17 0 0 0-4.166 4.167c0 .538.11 1.05.297 1.522l-4.906 3.19a10.06 10.06 0 0 0-3.725-2.958l4.068-11.276A10 10 0 0 0 40 20M24.167 6.667a2.503 2.503 0 0 1-2.5-2.5c0-1.379 1.121-2.5 2.5-2.5 1.378 0 2.5 1.121 2.5 2.5 0 1.378-1.122 2.5-2.5 2.5m-22.5-2.5c0-1.379 1.121-2.5 2.5-2.5 1.378 0 2.5 1.121 2.5 2.5 0 1.378-1.122 2.5-2.5 2.5a2.503 2.503 0 0 1-2.5-2.5m2.5 35a2.503 2.503 0 0 1-2.5-2.5c0-1.379 1.121-2.5 2.5-2.5 1.378 0 2.5 1.121 2.5 2.5 0 1.378-1.122 2.5-2.5 2.5m7.5 7.5a2.503 2.503 0 0 1-2.5-2.5c0-1.379 1.122-2.5 2.5-2.5s2.5 1.121 2.5 2.5c0 1.378-1.122 2.5-2.5 2.5m34.166-20c1.379 0 2.5 1.121 2.5 2.5 0 1.378-1.121 2.5-2.5 2.5a2.503 2.503 0 0 1-2.5-2.5c0-1.379 1.122-2.5 2.5-2.5m-10.74-9.947c.371-1.927 2.07-3.387 4.074-3.387h1.666c2.004 0 3.703 1.46 4.075 3.387A8.28 8.28 0 0 1 40 18.333a8.28 8.28 0 0 1-4.908-1.613M40 11.667a2.503 2.503 0 0 1-2.5-2.5c0-1.379 1.122-2.5 2.5-2.5s2.5 1.121 2.5 2.5c0 1.378-1.122 2.5-2.5 2.5m0-10c4.595 0 8.333 3.738 8.333 8.333a8.3 8.3 0 0 1-2.043 5.45 5.9 5.9 0 0 0-3.318-3.371 4.15 4.15 0 0 0 1.195-2.912A4.17 4.17 0 0 0 40 5a4.17 4.17 0 0 0-4.167 4.167 4.15 4.15 0 0 0 1.195 2.912 5.9 5.9 0 0 0-3.318 3.37A8.3 8.3 0 0 1 31.667 10c0-4.595 3.738-8.333 8.333-8.333m-35.833 20c0-4.596 3.738-8.334 8.333-8.334s8.333 3.739 8.333 8.334c0 2.09-.779 3.998-2.054 5.462a5.9 5.9 0 0 0-3.323-3.384 4.15 4.15 0 0 0 1.194-2.912 4.17 4.17 0 0 0-4.167-4.166 4.17 4.17 0 0 0-4.166 4.166c0 1.134.457 2.16 1.195 2.912a5.9 5.9 0 0 0-3.314 3.357 8.3 8.3 0 0 1-2.031-5.435m5.816-.834c0-1.378 1.122-2.5 2.5-2.5s2.5 1.122 2.5 2.5c0 1.379-1.122 2.5-2.5 2.5a2.503 2.503 0 0 1-2.5-2.5M7.58 28.376C7.954 26.453 9.65 25 11.65 25h1.667c2.006 0 3.709 1.464 4.076 3.398A8.28 8.28 0 0 1 12.5 30a8.28 8.28 0 0 1-4.921-1.624m16.666 18.333c.376-1.922 2.072-3.376 4.072-3.376h1.666c2.007 0 3.71 1.464 4.076 3.398a8.28 8.28 0 0 1-4.892 1.602 8.28 8.28 0 0 1-4.922-1.624m4.905-5.042a2.503 2.503 0 0 1-2.5-2.5c0-1.379 1.122-2.5 2.5-2.5s2.5 1.121 2.5 2.5c0 1.378-1.122 2.5-2.5 2.5M37.5 40c0 2.09-.78 3.998-2.055 5.463a5.9 5.9 0 0 0-3.323-3.385 4.15 4.15 0 0 0 1.195-2.911A4.17 4.17 0 0 0 29.15 35a4.17 4.17 0 0 0-4.167 4.167c0 1.133.458 2.16 1.195 2.911a5.9 5.9 0 0 0-3.314 3.358A8.3 8.3 0 0 1 20.834 40c0-4.595 3.738-8.333 8.333-8.333S37.5 35.405 37.5 40m-5.734-9.645a10 10 0 0 0-2.6-.355c-2.286 0-4.39.78-6.076 2.077l-3.28-3.609a9.95 9.95 0 0 0 2.69-6.801 9.9 9.9 0 0 0-.507-3.125l9.165-3.884a10.06 10.06 0 0 0 4.676 4.421z"/></g><defs><clipPath id="a"><path fill="#fff" d="M0 0h50v50H0z"/></clipPath></defs></svg>