<svg xmlns="http://www.w3.org/2000/svg" width="50" height="50" fill="none"><g clip-path="url(#a)"><path fill="#000" d="M5.906 6.858a.984.984 0 1 1-1.969 0 .984.984 0 0 1 1.969 0m4.429 0a.984.984 0 1 1-1.969 0 .984.984 0 0 1 1.969 0m4.429 0a.984.984 0 1 1-1.969 0 .984.984 0 0 1 1.969 0m6.397 30.118a.985.985 0 0 0 0 1.968.986.986 0 0 0 .985-.984.986.986 0 0 0-.985-.984m-1.476-22.244V29.2c0 .544-.44.985-.984.985H4.92a.984.984 0 0 1-.984-.985V14.732c0-.544.44-.984.984-.984H18.7c.543 0 .984.44.984.984m-1.968.984H5.906v12.5h11.81zm4.92.689h10.139a.984.984 0 0 0 0-1.969H22.638a.984.984 0 0 0 0 1.969m0 3.937h8.17a.984.984 0 0 0 0-1.968h-8.17a.984.984 0 0 0 0 1.968M4.922 32.153a.984.984 0 0 0 0 1.969h6.89a.984.984 0 0 0 0-1.969zm39.747-1.874a6.28 6.28 0 0 0 0 4.142c.185.53.776.828 1.375.563l1.116-.52c1.32-.612 2.841.264 2.841 1.765v4.192a1.97 1.97 0 0 1-1.968 1.968H42.47l.546 1.169c.793 1.686-.139 3.508-1.705 4.04-1.81.617-3.697.624-5.457 0-1.559-.551-2.497-2.354-1.705-4.04l.547-1.169h-5.562a1.97 1.97 0 0 1-1.969-1.968v-1.477h-1.574a.985.985 0 0 1 0-1.968h1.574v-.747c0-1.501 1.521-2.377 2.84-1.765l1.117.52c.6.265 1.19-.034 1.375-.563a6.28 6.28 0 0 0 0-4.142c-.167-.475-.753-.844-1.348-.575l-1.184.551c-1.279.574-2.8-.277-2.8-1.83V24.28c0-1.087.882-1.968 1.969-1.968h5.562l-.547-1.17c-.865-2.053.46-3.585 1.705-4.04 2.075-.756 3.918-.401 4.5-.273V11.78H1.97v25.197h14.728c.524 0 .982.394 1.017.916a.986.986 0 0 1-.982 1.052H.984A.984.984 0 0 1 0 37.96V4.89a2.953 2.953 0 0 1 2.953-2.953H39.37a2.953 2.953 0 0 1 2.953 2.952v12.826c.804.73 1.318 1.945.693 3.427l-.547 1.169h5.563c1.087 0 1.968.88 1.968 1.968v4.147c0 1.552-1.52 2.403-2.8 1.83l-1.183-.553c-.596-.267-1.181.1-1.349.576M40.354 9.811V4.889a.985.985 0 0 0-.984-.984H2.953a.985.985 0 0 0-.984.984v4.922zm2.458 19.812c.657-1.86 2.715-2.357 4.035-1.704l1.185.552v-4.192H42.47c-1.538 0-2.362-1.605-1.783-2.802l.546-1.17c.261-.628-.085-1.168-.575-1.349-1.3-.48-2.891-.451-4.15 0a.986.986 0 0 0-.576 1.35l.547 1.169c.578 1.197-.246 2.802-1.783 2.802h-5.562v4.192l1.184-.552c1.32-.652 3.378-.157 4.035 1.703.62 1.76.63 3.7 0 5.456-.504 1.403-2.174 2.52-4.035 1.703l-1.184-.552v4.192h5.562c1.534 0 2.366 1.603 1.783 2.802l-.547 1.169a.98.98 0 0 0 .576 1.35c1.436.435 2.573.492 4.15 0a.983.983 0 0 0 .575-1.35l-.546-1.169c-.584-1.199.248-2.802 1.782-2.802h5.563v-4.192l-1.185.552c-1.86.817-3.53-.3-4.035-1.704a8.16 8.16 0 0 1 0-5.454"/></g><defs><clipPath id="a"><path fill="#fff" d="M0 0h50v50H0z"/></clipPath></defs></svg>