<svg xmlns="http://www.w3.org/2000/svg" width="50" height="50" fill="none"><path fill="#000" fill-rule="evenodd" d="m40.506 29.616.004-23.28a3.076 3.076 0 0 1 3.072-3.075l.917-.003h.001a3.084 3.084 0 0 1 3.077 3.076v.001l-.002 23.284a.8.8 0 0 1-.105.392l-2.75 4.762a.784.784 0 0 1-1.358 0l-2.751-4.765a.8.8 0 0 1-.105-.392m1.572-19.821-.003 19.037h3.932l.001-19.037zm3.93-1.569v-1.89c0-.83-.676-1.51-1.506-1.51l-.916.004h-.004a1.505 1.505 0 0 0-1.504 1.504v1.892zM42.648 30.4l1.393 2.412 1.393-2.412zm-27.334-5.842c-.22-3.677-1.272-5.06-2.074-6.479-.62-1.099-1.114-2.216-1.114-4.154a8.699 8.699 0 0 1 17.397 0c0 1.938-.493 3.055-1.114 4.154-.804 1.422-1.859 2.807-2.075 6.501v.003l-.001 1.238c0 .862-.533 1.604-1.284 1.915v.658a2.08 2.08 0 0 1-1.32 1.929v.643a2.08 2.08 0 0 1-2.069 2.071h-1.67a2.08 2.08 0 0 1-2.071-2.07v-.645a2.08 2.08 0 0 1-1.319-1.928v-.657a2.08 2.08 0 0 1-1.286-1.916zm9.45.76h-7.881v.503c0 .276.225.502.502.502h6.88a.503.503 0 0 0 .499-.503zm-1.284 2.574h-5.31v.502c0 .276.226.502.502.502h4.307a.504.504 0 0 0 .502-.502zm-1.32 2.572h-2.673v.502c0 .276.227.502.502.502h1.671c.275 0 .5-.227.5-.502zm.815-6.714h1.848c.272-2.93 1.052-4.429 1.786-5.694.685-1.183 1.346-2.121 1.346-4.13a7.13 7.13 0 0 0-14.26 0c0 2.009.66 2.947 1.346 4.13.733 1.265 1.513 2.765 1.785 5.694h1.848v-7.144h-1.056a2.63 2.63 0 0 1-2.622-2.622 2.63 2.63 0 0 1 2.622-2.625 2.63 2.63 0 0 1 2.625 2.625v1.053h1.163v-1.053a2.63 2.63 0 0 1 2.625-2.625 2.63 2.63 0 0 1 2.623 2.625 2.63 2.63 0 0 1-2.623 2.622h-1.056zm-2.732 0h1.163v-7.144h-1.163zm-1.569-8.712v-1.054c0-.582-.474-1.057-1.056-1.057-.58 0-1.054.476-1.054 1.057 0 .58.475 1.053 1.054 1.053zm4.3 0h1.057c.58 0 1.054-.475 1.054-1.054 0-.581-.474-1.057-1.054-1.057s-1.056.475-1.056 1.057zm8.064 2.294a.785.785 0 0 1 1.11-1.11l3.368 3.37c.23.229.294.576.163.872l-1.102 2.489a15.7 15.7 0 0 1 1.603 3.874l2.538.976a.78.78 0 0 1 .503.732v4.766c0 .325-.2.616-.503.732l-2.538.977a16 16 0 0 1-1.604 3.868l1.103 2.49a.78.78 0 0 1-.163.872l-3.369 3.37a.78.78 0 0 1-.872.162l-2.488-1.103a15.7 15.7 0 0 1-3.87 1.604l-.977 2.538a.78.78 0 0 1-.732.502h-4.765a.78.78 0 0 1-.732-.502l-.977-2.538a16 16 0 0 1-3.873-1.604l-2.49 1.103a.78.78 0 0 1-.872-.163L6.13 42.24a.78.78 0 0 1-.162-.873l1.106-2.488a16 16 0 0 1-1.606-3.868l-2.54-.978a.78.78 0 0 1-.502-.732v-4.766c0-.324.2-.615.502-.732l2.54-.977a16 16 0 0 1 1.607-3.872l-1.107-2.489a.78.78 0 0 1 .162-.873l3.37-3.37a.785.785 0 0 1 1.108 1.11L7.62 20.32l1.053 2.368a.79.79 0 0 1-.049.73 14.3 14.3 0 0 0-1.733 4.178.79.79 0 0 1-.481.549l-2.416.93v3.688l2.416.93c.24.092.42.297.48.548a14.3 14.3 0 0 0 1.734 4.172c.136.22.155.494.05.73l-1.054 2.37 2.608 2.608 2.369-1.05a.78.78 0 0 1 .727.049 14.3 14.3 0 0 0 4.177 1.729c.252.06.458.24.55.482l.93 2.415h3.689l.93-2.415a.78.78 0 0 1 .55-.482 14.2 14.2 0 0 0 4.17-1.728.78.78 0 0 1 .73-.05l2.369 1.05 2.608-2.609-1.05-2.368a.79.79 0 0 1 .05-.728 14.3 14.3 0 0 0 1.729-4.172.78.78 0 0 1 .48-.55l2.416-.93v-3.689l-2.415-.93a.79.79 0 0 1-.482-.55 14.2 14.2 0 0 0-1.728-4.176.79.79 0 0 1-.05-.729l1.05-2.368zm-18.543 5.803a.785.785 0 0 1 1.146 1.071 9.8 9.8 0 0 0-2.645 6.71c0 5.429 4.397 9.832 9.827 9.832s9.832-4.403 9.832-9.833a9.8 9.8 0 0 0-2.647-6.708.785.785 0 0 1 1.146-1.071 11.35 11.35 0 0 1 3.07 7.78c0 6.295-5.105 11.4-11.401 11.4s-11.395-5.105-11.395-11.4c0-3.01 1.164-5.744 3.067-7.78m9.114-19.8a.785.785 0 0 1-1.569 0V1.47a.785.785 0 0 1 1.569 0zm-6.075 1.208a.785.785 0 0 1-1.36.783l-.93-1.615a.785.785 0 0 1 1.359-.784zm-4.655 4.083a.785.785 0 0 1-.785 1.358l-1.616-.933a.785.785 0 0 1 .785-1.358zm16.592-3.3a.785.785 0 0 1-1.358-.784l.934-1.615a.784.784 0 0 1 1.358.784zm4.085 4.658a.785.785 0 0 1-.786-1.358l1.613-.933a.785.785 0 0 1 .786 1.357z" clip-rule="evenodd"/></svg>