<svg xmlns="http://www.w3.org/2000/svg" width="50" height="50" fill="none"><g clip-path="url(#a)"><path fill="#000" d="M47.168 23.37h-.83V7.89a3.355 3.355 0 0 0-3.35-3.349H13.633a3.355 3.355 0 0 0-3.35 3.35v11.015H3.8a3.8 3.8 0 0 0-3.8 3.79V41.67c0 2.1 1.7 3.799 3.799 3.799h11.103c2.1 0 3.8-1.7 3.8-3.8v-8.983h5.478v3.505h-2.305a.759.759 0 0 0 0 1.514h12.88c.42 0 .753-.342.753-.762a.75.75 0 0 0-.752-.752H32.46v-3.496h5.674v5.762a2.85 2.85 0 0 0 2.842 2.842h6.191A2.836 2.836 0 0 0 50 38.457V26.211a2.84 2.84 0 0 0-2.832-2.842M11.807 7.89a1.83 1.83 0 0 1 1.826-1.826h29.355c1.016 0 1.827.82 1.836 1.827v15.478h-3.857a2.876 2.876 0 0 0-2.842 3.106H18.691v-3.8a3.796 3.796 0 0 0-3.798-3.798h-3.086zm5.351 33.78a2.27 2.27 0 0 1-2.275 2.265H3.799a2.27 2.27 0 0 1-2.276-2.265V22.686A2.263 2.263 0 0 1 3.8 20.42h11.103a2.284 2.284 0 0 1 2.276 2.275zm13.78-5.488h-5.254v-3.506h5.263zm.761-5.01H18.691v-3.174h19.444v3.174zm16.778 7.275c0 .733-.596 1.319-1.319 1.328h-6.191a1.32 1.32 0 0 1-1.319-1.328V26.211a1.32 1.32 0 0 1 1.319-1.318h6.201c.732 0 1.318.585 1.318 1.318z"/></g><defs><clipPath id="a"><path fill="#fff" d="M0 0h50v50H0z"/></clipPath></defs></svg>