<svg xmlns="http://www.w3.org/2000/svg" width="50" height="50" fill="none"><path fill="#000" d="M25.268 47.754h-.538c-.503 0-.998-.09-1.47-.266-5.184-1.94-9.35-5.084-12.383-9.344-2.38-3.346-4.032-7.346-4.908-11.888-1.444-7.492-.275-13.986-.224-14.26A4.18 4.18 0 0 1 8.25 8.893L23.383 2.57a4.2 4.2 0 0 1 1.616-.324c.558 0 1.101.11 1.616.324l15.132 6.322a4.18 4.18 0 0 1 2.506 3.105c.05.273 1.22 6.768-.224 14.26-.876 4.541-2.528 8.541-4.909 11.887-3.032 4.26-7.198 7.404-12.383 9.344a4.2 4.2 0 0 1-1.47.266m-.27-43.945c-.349 0-.69.068-1.013.203L8.853 10.334a2.62 2.62 0 0 0-1.572 1.947c-.048.261-1.167 6.474.222 13.68.834 4.32 2.397 8.115 4.647 11.277 2.848 4.002 6.77 6.958 11.658 8.787.296.11.606.166.922.166h.538c.316 0 .626-.056.921-.166 4.888-1.829 8.81-4.785 11.658-8.787 2.25-3.162 3.814-6.957 4.647-11.278 1.39-7.204.27-13.418.223-13.679a2.62 2.62 0 0 0-1.573-1.947L26.013 4.012a2.6 2.6 0 0 0-1.014-.203"/><path fill="#000" d="M25.268 44.343h-.538a.8.8 0 0 1-.274-.05c-4.536-1.697-8.17-4.431-10.8-8.127-2.095-2.945-3.555-6.496-4.337-10.556-.692-3.588-.716-6.922-.615-9.086.111-2.351.384-3.844.395-3.906a.78.78 0 0 1 .467-.579l15.132-6.321c.192-.08.41-.08.602 0l15.132 6.321c.243.102.419.32.467.579.011.062.284 1.555.395 3.906.101 2.164.077 5.497-.615 9.086-.783 4.06-2.242 7.61-4.338 10.556-2.63 3.696-6.263 6.43-10.8 8.127a.8.8 0 0 1-.273.05m-.396-1.563h.254c7.627-2.9 12.343-8.775 14.019-17.466 1.074-5.572.493-10.567.283-12l-14.429-6.03-14.429 6.029a34 34 0 0 0-.307 3.332c-.095 2.08-.069 5.28.599 8.715 1.684 8.666 6.397 14.526 14.01 17.42"/><path fill="#000" d="M28.765 34.67h-7.53a3.67 3.67 0 0 1-3.669-3.668v-6.12a3.67 3.67 0 0 1 3.668-3.667h7.53a3.67 3.67 0 0 1 3.669 3.668v6.12a3.67 3.67 0 0 1-3.668 3.667m-7.53-11.893a2.11 2.11 0 0 0-2.106 2.106v6.12c0 1.16.944 2.105 2.105 2.105h7.53a2.11 2.11 0 0 0 2.106-2.106v-6.12c0-1.16-.944-2.105-2.105-2.105zm3.765 6.1a2.167 2.167 0 0 1-2.165-2.165c0-1.194.971-2.165 2.165-2.165s2.164.971 2.164 2.165A2.167 2.167 0 0 1 25 28.876m0-2.768a.603.603 0 1 0 0 1.207.603.603 0 0 0-.002-1.206"/><path fill="#000" d="M29.863 22.778a.78.78 0 0 1-.781-.782v-2.393a4.09 4.09 0 0 0-4.084-4.084 4.09 4.09 0 0 0-4.084 4.084v2.393a.781.781 0 0 1-1.562 0v-2.393a5.6 5.6 0 0 1 1.653-3.992 5.6 5.6 0 0 1 3.993-1.654 5.6 5.6 0 0 1 3.992 1.654 5.6 5.6 0 0 1 1.654 3.992v2.393c0 .432-.35.782-.781.782M25 31.209a.78.78 0 0 1-.781-.782v-2.331a.781.781 0 1 1 1.562 0v2.331c0 .432-.35.782-.781.782"/></svg>