<svg xmlns="http://www.w3.org/2000/svg" width="50" height="50" fill="none"><path fill="#000" fill-rule="evenodd" d="M28.125 41.406h-1.442c-3.086 0-5.59-2.49-5.59-5.555s2.504-5.556 5.59-5.556q.105 0 .21.004a7 7 0 0 1-.03-.655c0-3.855 3.149-6.988 7.032-6.988 3.79 0 6.884 2.989 7.025 6.72q.33-.036.667-.035c3.351 0 6.07 2.704 6.07 6.033 0 3.328-2.719 6.032-6.07 6.032h-.962v5.47c0 .43-.35.78-.781.78H28.906a.78.78 0 0 1-.781-.78zm12.5-1.562h.962c2.486 0 4.507-2.002 4.507-4.47 0-2.47-2.021-4.47-4.507-4.47q-.66.002-1.264.177a.78.78 0 0 1-.993-.836q.033-.297.033-.601c0-2.995-2.452-5.425-5.468-5.425-3.018 0-5.47 2.43-5.47 5.425 0 .475.062.936.177 1.375a.78.78 0 0 1-.943.957 4 4 0 0 0-.976-.118c-2.221 0-4.027 1.787-4.027 3.993s1.806 3.993 4.027 3.993h1.442v-5.469c0-.431.35-.781.781-.781h4.688a.782.782 0 0 1 0 1.562h-3.907v4.688h9.375v-4.688H36.72a.782.782 0 0 1 0-1.562h3.125c.431 0 .781.35.781.781zm-10.937 1.562v4.688h9.375v-4.688zm3.125 3.125a.782.782 0 0 1 0-1.562h3.124a.782.782 0 0 1 0 1.562zm0-6.25a.782.782 0 0 1 0-1.562h3.124a.782.782 0 0 1 0 1.562zM9.375 25.001H7.933c-3.086 0-5.59-2.492-5.59-5.556s2.504-5.556 5.59-5.556q.105 0 .21.004a7 7 0 0 1-.03-.655c0-3.855 3.149-6.988 7.032-6.988 3.824 0 6.937 3.04 7.028 6.817a.782.782 0 0 1-.139 1.5q-.234.042-.46.107a.78.78 0 0 1-.994-.836q.033-.296.033-.6c0-2.996-2.452-5.425-5.468-5.425-3.018 0-5.47 2.43-5.47 5.425 0 .475.062.936.177 1.375a.78.78 0 0 1-.943.957 4 4 0 0 0-.976-.118c-2.221 0-4.027 1.787-4.027 3.993s1.806 3.993 4.027 3.993h1.442v-5.47c0-.43.35-.78.781-.78h10.938c.431 0 .781.35.781.78v5.47h.962c2.485 0 4.507-2.002 4.507-4.47a4.47 4.47 0 0 0-2.666-4.082.78.78 0 0 1 .636-1.427c2.117.943 3.592 3.056 3.592 5.508 0 3.328-2.718 6.033-6.07 6.033h-.961v5.469c0 .431-.35.781-.781.781H10.156a.78.78 0 0 1-.781-.781zm10.938-1.563V18.75h-9.375v4.688zM10.938 25v4.688h9.375V25zm3.124 3.125a.782.782 0 0 1 0-1.562h3.126a.782.782 0 0 1 0 1.562zm0-6.25a.782.782 0 0 1 0-1.562h3.126a.782.782 0 0 1 0 1.562zM47.297 20.3l-5.14 3.288a.78.78 0 0 1-1.144-.363l-2.307-5.65a.781.781 0 0 1 .96-1.039l1.207.383c.055-1-.054-1.99-.307-2.934a9.37 9.37 0 0 0-6.223-6.512 9.37 9.37 0 0 0-8.855 1.751.78.78 0 0 1-1.077-.072l-2.114-2.304a.78.78 0 0 1 .069-1.122c3.572-3.05 8.591-4.245 13.394-2.722 5.43 1.722 9.085 6.443 9.717 11.759.14 1.18.132 2.39-.04 3.603l1.675.532a.78.78 0 0 1 .185 1.402m-2.247-.417-.731-.232a.78.78 0 0 1-.531-.892c.247-1.282.286-2.565.137-3.812-.56-4.726-3.81-8.923-8.637-10.453a12.49 12.49 0 0 0-11.274 1.914l1.061 1.158a10.934 10.934 0 0 1 17 6.014c.385 1.436.483 2.962.246 4.493a.784.784 0 0 1-1.008.625l-.53-.168 1.321 3.236z" clip-rule="evenodd"/></svg>