<svg xmlns="http://www.w3.org/2000/svg" width="50" height="51" fill="none"><path fill="#000" d="M44.8 10.407H5.2c-2.85 0-5.2 2.35-5.2 5.2v14.6c0 2.9 2.35 5.2 5.2 5.2h20.15l6.4 4c.15.15.35.2.55.2.25 0 .55-.15.75-.35.35-.35.4-.9.1-1.3l-1.7-2.55H44.8c2.85 0 5.2-2.3 5.2-5.2v-14.6c0-2.85-2.35-5.2-5.2-5.2m3.1 19.8c0 1.75-1.4 3.15-3.1 3.15H29.5c-.35 0-.7.2-.9.55s-.15.75.05 1.05l.1.15-2.55-1.6c-.2-.1-.4-.15-.55-.15H5.2c-1.7 0-3.1-1.4-3.1-3.15v-14.6c0-1.7 1.4-3.1 3.1-3.1h39.6c1.7 0 3.1 1.4 3.1 3.1zm-26.85-16.25c-2.35 3-3.05 9.9-3.25 13.65-1.15-2.15-2.05-5.75-2.55-7.8-.55-2.45-.75-3.15-1.7-3.15-.85 0-.95 0-4.25 7.2-.5 1.05-1.1 2.35-1.6 3.4-.3-2.05-.6-4.95-.9-7.1-.2-1.8-.4-3.45-.55-4.65-.1-.6-.6-1-1.2-.9-.55.05-.95.6-.85 1.15.15 1.2.35 2.85.55 4.65 1.3 10.85 1.35 10.85 2.55 10.85.85 0 .9 0 3.9-6.55.65-1.4 1.45-3.1 2.05-4.4 1.15 4.8 2.5 9.6 5.05 10.85.15.05.3.1.45.1.2 0 .4-.05.55-.15.3-.2.5-.55.5-.9 0-4.35.8-12.25 2.9-15 .35-.45.25-1.1-.2-1.45s-1.1-.25-1.45.2m8.3 2.7c-2.7 0-5.45 3.15-6.25 7.1-.45 2.5-.05 4.8 1.1 6.15.7.9 1.65 1.35 2.7 1.35 2.75 0 5.45-3.1 6.25-7.1.45-2.45.05-4.75-1.1-6.15-.7-.85-1.65-1.35-2.7-1.35m1.75 7.1c-.65 3.2-2.7 5.4-4.2 5.4-.45 0-.8-.15-1.1-.55-.75-.9-1-2.6-.65-4.45.65-3.2 2.7-5.4 4.2-5.4.45 0 .8.2 1.1.55.75.9 1 2.6.65 4.45m10.75-7.1c-2.7 0-5.45 3.15-6.25 7.1-.45 2.5-.05 4.8 1.1 6.15.7.9 1.65 1.35 2.7 1.35 2.75 0 5.45-3.1 6.25-7.1.45-2.45.05-4.75-1.1-6.15-.7-.85-1.65-1.35-2.7-1.35m1.75 7.1c-.65 3.2-2.7 5.4-4.2 5.4-.45 0-.8-.15-1.1-.55-.75-.9-1-2.6-.65-4.45.65-3.2 2.7-5.4 4.2-5.4.45 0 .8.2 1.1.55.75.9 1 2.6.65 4.45"/></svg>