<svg xmlns="http://www.w3.org/2000/svg" width="50" height="50" fill="none"><path fill="#000" d="M48.528 11.516V5.147a3.68 3.68 0 0 0-3.677-3.676H5.145A3.68 3.68 0 0 0 1.47 5.147v39.706a3.68 3.68 0 0 0 3.676 3.676h39.706a3.68 3.68 0 0 0 3.677-3.676V15.578a.735.735 0 0 0-1.471 0v29.275c0 1.216-.99 2.206-2.206 2.206H5.145a2.21 2.21 0 0 1-2.206-2.206V5.147c0-1.216.99-2.206 2.206-2.206h39.706c1.217 0 2.206.99 2.206 2.206v5.634H4.702a.735.735 0 0 0 0 1.47h43.09a.736.736 0 0 0 .736-.735"/><path fill="#000" d="M44.128 7.597a.735.735 0 0 0 0-1.471H22.743a.735.735 0 0 0 0 1.47zm-36.706 0a.735.735 0 0 0 0-1.471H5.739a.735.735 0 0 0 0 1.47zm4.336 0a.735.735 0 0 0 0-1.471h-1.683a.735.735 0 0 0 0 1.47zm4.336 0a.735.735 0 0 0 0-1.471H14.41a.735.735 0 0 0 0 1.47zm16.774 25.714a.735.735 0 0 0-.736.736v6.05c0 .406.33.736.736.736h7.26c.406 0 .736-.33.736-.736v-6.05a.735.735 0 0 0-.736-.736h-2.895v-4.12a.735.735 0 0 0-.735-.735H25.732v-2.459h3.322a.735.735 0 0 0 .735-.735v-6.05a.735.735 0 0 0-.735-.735h-8.115a.735.735 0 0 0-.735.735v6.05c0 .406.329.735.735.735h3.322v2.46H13.494a.735.735 0 0 0-.735.735v4.12H9.864a.735.735 0 0 0-.735.735v6.05c0 .406.33.736.735.736h7.26c.407 0 .736-.33.736-.736v-6.05a.735.735 0 0 0-.735-.736H14.23v-3.384h10.03v3.384h-2.895a.735.735 0 0 0-.735.736v6.05c0 .406.329.736.735.736h7.26c.406 0 .736-.33.736-.736v-6.05a.735.735 0 0 0-.736-.736H25.73v-3.384h10.032v3.384zM21.674 19.947h6.644v4.58h-6.644zM16.39 39.362H10.6v-4.58h5.79zm11.501 0h-5.79v-4.58h5.79zm11.502 0h-5.79v-4.58h5.79z"/></svg>