<svg xmlns="http://www.w3.org/2000/svg" width="55.95" height="57.145"><path fill-rule="evenodd" d="M55.951 21.896a24.2 24.2 0 0 0-14.154 1.433.586.586 0 0 0-.334.735l6.664 19.244a.58.58 0 0 0 .554.394h7.27ZM15.198 0a4.562 4.562 0 1 1-4.622 4.561A4.59 4.59 0 0 1 15.198 0m12.778 3.366a4.562 4.562 0 1 1-4.618 4.562 4.59 4.59 0 0 1 4.618-4.562M40.753 0a4.562 4.562 0 1 1-4.618 4.562A4.59 4.59 0 0 1 40.753 0M20.106 33.186a2.95 2.95 0 0 1 .976-2.262l4.821-4.533c2.807-2.639 5.4-2.113 8.672-1.077a24.2 24.2 0 0 0 5.922 1.329l5.266 15.209a29 29 0 0 1-2 .92 3.03 3.03 0 0 1-3.371-.678l-10.508-10.5a.876.876 0 0 0-1.2-.033l-.383.317c-1.076.869-2.88 2.325-2.88 4.733a4.25 4.25 0 0 1-1.686 3.344 7.1 7.1 0 0 1-3.629 1.453Zm-4.853-5.958a17.6 17.6 0 0 0 2.5.452 18 18 0 0 0 4.3-.08l-2.177 2.047a4.76 4.76 0 0 0-1.532 3.539v9.15a.88.88 0 0 0 .879.879 9.07 9.07 0 0 0 5.614-1.9 5.96 5.96 0 0 0 2.338-4.7c0-1.459 1.2-2.53 2.031-3.213l9.946 9.94a4.9 4.9 0 0 0 1.614 1.079l1.2 1.259a1.871 1.871 0 1 1-2.63 2.661c-1.929-1.929-3.824-3.9-5.731-5.856a.877.877 0 0 0-1.257 1.222l5.232 5.364a1.87 1.87 0 0 1-2.644 2.644c-2.011-2.011-3.986-4.063-5.974-6.1a.877.877 0 1 0-1.257 1.222l5.232 5.364a1.884 1.884 0 0 1 0 2.644 2 2 0 0 1-2.644 0c-2.183-2.183-4.328-4.4-6.487-6.612a.877.877 0 1 0-1.257 1.222l5.232 5.364a1.363 1.363 0 0 1-1.905 1.943c-.021.021-8.609-8.818-9.392-9.62a23.9 23.9 0 0 0-6.346-5.154Zm5.054-5.218h15.337v-3.675a6.54 6.54 0 0 0-3.395-5.719 6.416 6.416 0 0 1-8.548 0 6.54 6.54 0 0 0-3.395 5.719v3.675Zm17.095-3.366v-.309a8.28 8.28 0 0 0-3.4-6.684 6.6 6.6 0 0 1 2.481-2.4 6.416 6.416 0 0 0 8.548 0 6.54 6.54 0 0 1 3.391 5.721v3.675Zm-29.872 0v-3.672a6.54 6.54 0 0 1 3.395-5.719 6.416 6.416 0 0 0 8.548 0 6.6 6.6 0 0 1 2.481 2.4 8.28 8.28 0 0 0-3.4 6.684v.309ZM0 21.896v21.806h7.27a.58.58 0 0 0 .554-.394l6.664-19.244a.585.585 0 0 0-.334-.735A24.2 24.2 0 0 0 0 21.896"/></svg>