<svg xmlns="http://www.w3.org/2000/svg" width="60" height="60"><defs><clipPath id="a"><path d="M0 0h60v60H0z"/></clipPath></defs><g clip-path="url(#a)"><path d="M44.053 36.61A12.565 12.565 0 0 0 31.54 25h-6.253v-5.181a3.088 3.088 0 1 0-1.877 0V25h-6.254A12.564 12.564 0 0 0 4.643 36.61a4.721 4.721 0 0 0 0 9.441 12.565 12.565 0 0 0 12.512 11.611h14.384A12.564 12.564 0 0 0 44.052 46.05a4.721 4.721 0 0 0 0-9.441ZM24.348 15.664a1.212 1.212 0 1 1-1.21 1.211 1.21 1.21 0 0 1 1.21-1.211M1.877 41.33a2.85 2.85 0 0 1 2.73-2.843v5.685a2.846 2.846 0 0 1-2.73-2.842M31.54 55.785H17.156A10.683 10.683 0 0 1 6.485 45.114v-7.568a10.683 10.683 0 0 1 10.671-10.671H31.54a10.683 10.683 0 0 1 10.671 10.671v7.567A10.684 10.684 0 0 1 31.54 55.785m12.548-11.613v-5.685a2.845 2.845 0 0 1 0 5.685M32.45 32.34h-16.2a6.157 6.157 0 0 0-6.15 6.15v5.68a6.157 6.157 0 0 0 6.15 6.15h16.2a6.157 6.157 0 0 0 6.15-6.15v-5.68a6.156 6.156 0 0 0-6.15-6.15m4.273 11.831a4.28 4.28 0 0 1-4.274 4.274h-16.2a4.28 4.28 0 0 1-4.274-4.274v-5.68a4.28 4.28 0 0 1 4.274-4.274h16.2a4.28 4.28 0 0 1 4.274 4.274Zm-18.395-6.776a3.935 3.935 0 1 0 3.935 3.935 3.94 3.94 0 0 0-3.935-3.935m0 5.993a2.058 2.058 0 1 1 2.058-2.058 2.06 2.06 0 0 1-2.058 2.058m12.039-5.993A3.935 3.935 0 1 0 34.3 41.33a3.94 3.94 0 0 0-3.933-3.935m0 5.993a2.058 2.058 0 1 1 2.058-2.058 2.06 2.06 0 0 1-2.058 2.058M55.875 2.336H37.3a4.13 4.13 0 0 0-4.124 4.124v10.925a4.13 4.13 0 0 0 4.124 4.124h1.548a.52.52 0 0 1 .517.52v2.81a1.65 1.65 0 0 0 1.1 1.569 1.7 1.7 0 0 0 .576.1 1.65 1.65 0 0 0 1.273-.6l3.13-3.756a1.71 1.71 0 0 1 1.373-.644h9.055A4.13 4.13 0 0 0 60 17.385V6.461a4.13 4.13 0 0 0-4.125-4.125m2.248 15.05a2.25 2.25 0 0 1-2.248 2.248H46.82A3.6 3.6 0 0 0 44 20.955l-2.759 3.309v-2.233a2.4 2.4 0 0 0-2.393-2.4H37.3a2.25 2.25 0 0 1-2.25-2.248V6.461a2.25 2.25 0 0 1 2.25-2.248h18.575a2.25 2.25 0 0 1 2.248 2.248Zm-16.35-5.461a.94.94 0 0 1-.939.939h-.282a.939.939 0 1 1 0-1.877h.282a.94.94 0 0 1 .939.938m5.9 0a.94.94 0 0 1-.939.939h-.282a.939.939 0 1 1 0-1.877h.282a.94.94 0 0 1 .934.938Zm5.9 0a.94.94 0 0 1-.939.939h-.282a.939.939 0 0 1 0-1.877h.282a.94.94 0 0 1 .931.938Z"/></g></svg>