<svg xmlns="http://www.w3.org/2000/svg" width="60" height="60" fill="none"><path fill="#282928" fill-rule="evenodd" d="M30.032 42.765a.7.7 0 0 1-.168-.021 12.9 12.9 0 0 1-4.004-1.77 13.1 13.1 0 0 1-3.132-2.927 13.3 13.3 0 0 1-2.04-3.793 13.4 13.4 0 0 1-.728-4.374v-7.783a.69.69 0 0 1 .62-.686c3.613-.365 6.881-1.749 8.969-3.797a.69.69 0 0 1 .967 0c2.087 2.048 5.356 3.432 8.968 3.797a.69.69 0 0 1 .62.686v7.783q0 .113-.002.223c-.097 6.004-4.169 11.202-9.902 12.64a.7.7 0 0 1-.168.022M21.34 22.712v7.168c0 5.418 3.565 10.114 8.692 11.482 5.04-1.346 8.604-5.96 8.69-11.283q.003-.1.002-.199v-7.168a18.6 18.6 0 0 1-4.919-1.33c-1.45-.625-2.716-1.408-3.773-2.335-1.056.927-2.323 1.71-3.773 2.334a18.6 18.6 0 0 1-4.919 1.33" clip-rule="evenodd"/><path fill="#282928" fill-rule="evenodd" d="M33.947 35.377h-7.83a.69.69 0 0 1-.69-.69v-5.792c0-.381.31-.69.69-.69h7.83a.69.69 0 0 1 .69.69v5.791a.69.69 0 0 1-.69.69m-7.139-1.38h6.449v-4.412h-6.449z" clip-rule="evenodd"/><path fill="#282928" fill-rule="evenodd" d="M32.408 29.586a.69.69 0 0 1-.69-.69v-2.519c0-.464-.177-.9-.498-1.227a1.65 1.65 0 0 0-1.188-.502c-.93 0-1.686.776-1.686 1.73v2.517a.69.69 0 0 1-1.38 0v-2.518c0-1.714 1.375-3.11 3.066-3.11.821 0 1.593.326 2.173.916.576.587.893 1.366.893 2.195v2.518a.69.69 0 0 1-.69.69M10.727 13.247c-1.533 0-2.78-1.264-2.78-2.818s1.247-2.818 2.78-2.818 2.78 1.264 2.78 2.818-1.248 2.818-2.78 2.818m0-4.255c-.772 0-1.4.645-1.4 1.437 0 .793.628 1.438 1.4 1.438s1.399-.645 1.399-1.438-.628-1.437-1.4-1.437" clip-rule="evenodd"/><path fill="#282928" fill-rule="evenodd" d="M49.338 30.779h-9.925a.69.69 0 1 1 0-1.38h9.235v-8.097c0-5.615-4.48-10.183-9.988-10.183H12.816a.69.69 0 0 1 0-1.38H38.66c1.536 0 3.026.306 4.43.91a11.3 11.3 0 0 1 3.613 2.48 11.5 11.5 0 0 1 2.433 3.676 11.66 11.66 0 0 1 .892 4.497v8.787a.69.69 0 0 1-.69.69m-.001 21.789c-1.533 0-2.78-1.265-2.78-2.818s1.247-2.818 2.78-2.818 2.78 1.264 2.78 2.818c0 1.553-1.247 2.818-2.78 2.818m0-4.256c-.771 0-1.399.645-1.399 1.438s.628 1.437 1.4 1.437c.77 0 1.398-.645 1.398-1.437 0-.793-.627-1.438-1.399-1.438" clip-rule="evenodd"/><path fill="#282928" fill-rule="evenodd" d="M47.248 50.439H21.404c-1.536 0-3.026-.307-4.43-.911a11.3 11.3 0 0 1-3.613-2.48 11.5 11.5 0 0 1-2.433-3.676 11.7 11.7 0 0 1-.892-4.497v-8.786c0-.382.31-.69.69-.69h9.925a.69.69 0 0 1 0 1.38h-9.235v8.096c0 5.615 4.48 10.184 9.988 10.184h25.844a.69.69 0 0 1 0 1.38" clip-rule="evenodd"/></svg>