<svg xmlns="http://www.w3.org/2000/svg" width="60.117" height="60"><defs><clipPath id="a"><path d="M0 0h60.117v60H0z"/></clipPath></defs><g clip-path="url(#a)"><path d="M36.862 20.946a1.17 1.17 0 0 1-.831-.344A13.475 13.475 0 0 0 17 20.6a1.174 1.174 0 1 1-1.661-1.66 15.826 15.826 0 0 1 22.356 0 1.174 1.174 0 0 1-.83 2Zm4.018-4.018a1.17 1.17 0 0 1-.834-.347l-.014-.014a1.174 1.174 0 1 1 1.654-1.667l.028.027a1.174 1.174 0 0 1-.833 2Z"/><path d="M12.149 16.928a1.174 1.174 0 0 1-.83-2A21.26 21.26 0 0 1 24.1 8.764a21.6 21.6 0 0 1 13.62 3.013 1.174 1.174 0 1 1-1.226 2 19.08 19.08 0 0 0-23.515 2.8 1.17 1.17 0 0 1-.83.351M26.514 45.86a15.76 15.76 0 0 1-11.178-4.623A1.174 1.174 0 1 1 17 39.576a13.475 13.475 0 0 0 19.035 0 1.174 1.174 0 1 1 1.661 1.66 15.76 15.76 0 0 1-11.182 4.624"/><path d="M26.529 51.548a21.54 21.54 0 0 1-11.841-3.541 1.174 1.174 0 0 1 1.294-1.96 19.2 19.2 0 0 0 24.068-2.453 1.174 1.174 0 0 1 1.66 1.66 21.52 21.52 0 0 1-13.137 6.2q-1.023.093-2.044.094m-14.34-5.909a1.17 1.17 0 0 1-.825-.339l-.049-.049a1.174 1.174 0 1 1 1.668-1.651l.032.032a1.174 1.174 0 0 1-.825 2.01ZM26.5 34.429a4.34 4.34 0 1 1 4.339-4.34 4.345 4.345 0 0 1-4.339 4.34m0-6.331a1.991 1.991 0 1 0 1.991 1.991A1.993 1.993 0 0 0 26.5 28.1ZM4.34 41.581A4.344 4.344 0 0 1 0 37.242V22.935a4.34 4.34 0 1 1 8.679 0v14.307a4.344 4.344 0 0 1-4.339 4.339m0-20.637a1.994 1.994 0 0 0-1.991 1.991v14.307a1.991 1.991 0 0 0 3.983 0V22.935a1.994 1.994 0 0 0-1.992-1.991m46.888 20.639a3.817 3.817 0 0 1-3.812-3.812V26.306H46.15a3.812 3.812 0 0 1 0-7.624h10.156a3.812 3.812 0 0 1 0 7.624H55.04v11.465a3.816 3.816 0 0 1-3.812 3.812M46.15 21.03a1.464 1.464 0 1 0 0 2.927h2.44a1.174 1.174 0 0 1 1.174 1.174v12.64a1.464 1.464 0 0 0 2.928 0v-12.64a1.174 1.174 0 0 1 1.174-1.174h2.44a1.464 1.464 0 1 0 0-2.927Z"/><path d="M26.5 40.125a10.037 10.037 0 1 1 10.035-10.037A10.05 10.05 0 0 1 26.5 40.125m0-17.726a7.689 7.689 0 1 0 7.689 7.689A7.7 7.7 0 0 0 26.5 22.4Z"/></g></svg>