<svg xmlns="http://www.w3.org/2000/svg" width="60" height="60"><defs><clipPath id="a"><path d="M0 0h60v60H0z"/></clipPath></defs><g clip-path="url(#a)"><path d="M14.009 31.312h-2.521a2.91 2.91 0 0 1-2.917-2.9.879.879 0 0 0-1.758 0 4.67 4.67 0 0 0 4.675 4.656h2.521a.879.879 0 0 0 0-1.758Zm8.259 6.504h-7.509a4.494 4.494 0 0 0-4.5 4.48.879.879 0 0 0 1.758 0 2.734 2.734 0 0 1 2.74-2.722h7.508a.879.879 0 1 0 0-1.758Zm7.161 0h-3.646a.879.879 0 0 0 0 1.758h3.646a.879.879 0 0 0 0-1.758m-6.18-17.076a.88.88 0 0 0-.879.879 4.576 4.576 0 0 1-4.585 4.558.879.879 0 1 0 0 1.758 6.336 6.336 0 0 0 6.342-6.316.88.88 0 0 0-.878-.879m-1.62-13.287A3.82 3.82 0 0 0 17.573 11a.88.88 0 0 0 .82.934h.058a.88.88 0 0 0 .876-.822 2.06 2.06 0 0 1 2.189-1.91.879.879 0 0 0 .113-1.754ZM18.673 41.73a.879.879 0 1 0 0 1.758 2.615 2.615 0 1 1 0 5.229.879.879 0 1 0 0 1.758 4.373 4.373 0 1 0 0-8.745m8.995-20.695a.879.879 0 0 0 0 1.758 2.1 2.1 0 1 1 0 4.2.879.879 0 0 0 0 1.758 3.858 3.858 0 1 0 0-7.715Zm-15.482-5.59a.879.879 0 1 0 0 1.758 3.611 3.611 0 1 1 0 7.221.879.879 0 0 0 0 1.758 5.368 5.368 0 1 0 0-10.737m41.314-.039a2.986 2.986 0 1 0 3 2.986 2.994 2.994 0 0 0-3-2.986m0 4.214a1.228 1.228 0 1 1 1.238-1.228A1.234 1.234 0 0 1 53.5 19.62m2.94 18.28a2.986 2.986 0 1 0 3 2.986 2.994 2.994 0 0 0-3-2.986m0 4.214a1.228 1.228 0 1 1 1.238-1.228 1.234 1.234 0 0 1-1.238 1.228M54.6 27.367a3 3 0 0 0-1.4.349l-1.713-1.7a.879.879 0 0 0-1.24 1.246l1.709 1.7a2.96 2.96 0 0 0-.348 1.395 3 3 0 1 0 3-2.986Zm0 4.214a1.228 1.228 0 1 1 1.238-1.228 1.234 1.234 0 0 1-1.238 1.228m-1.985 15.493a2.986 2.986 0 1 0 3 2.986 2.994 2.994 0 0 0-3-2.986m0 4.214a1.228 1.228 0 1 1 1.238-1.228 1.234 1.234 0 0 1-1.238 1.228"/><path d="M42.332 16.517a2.5 2.5 0 0 0 1.621-.669l3.4-3.379a2.988 2.988 0 1 0-1.381-1.106L42.714 14.6a.83.83 0 0 1-.382.158h-7.254V8.941h2.041a2.986 2.986 0 1 0 0-1.758h-2.041V7.05a7.086 7.086 0 0 0-13.519-2.936Q21.3 4.1 21.035 4.1a7.46 7.46 0 0 0-7.464 7.258 7.47 7.47 0 0 0-8.527 7.359 7.3 7.3 0 0 0 .47 2.6A10.1 10.1 0 0 0 2.16 35.446a10.2 10.2 0 0 0 3.381 3.26A7.41 7.41 0 0 0 6.9 46.285a.879.879 0 1 0 1.32-1.164 5.65 5.65 0 0 1-1.42-3.746 5.6 5.6 0 0 1 .652-2.633 5.7 5.7 0 0 1 2.331-2.356.879.879 0 1 0-.837-1.546 7.46 7.46 0 0 0-2.58 2.31 8.344 8.344 0 0 1 .547-14.6 8.6 8.6 0 0 1 3.819-.913.879.879 0 0 0 0-1.758 10.2 10.2 0 0 0-3.626.666 5.6 5.6 0 0 1-.306-1.83 5.715 5.715 0 0 1 7.448-5.407.88.88 0 0 0 1.136-.963 5.672 5.672 0 0 1 5.649-6.489 6 6 0 0 1 .94.078 5.694 5.694 0 0 1 4.769 5.6.879.879 0 0 0 1.758 0 7.45 7.45 0 0 0-5.148-7.065A5.328 5.328 0 0 1 33.32 7.05v.1h-1.691a.879.879 0 0 0 0 1.758h1.691v5.853h-7.109a2.91 2.91 0 0 1-2.917-2.9.879.879 0 0 0-1.758 0 4.67 4.67 0 0 0 4.675 4.656h7.109v14.8H19.063a.879.879 0 1 0 0 1.758H33.32v12.063H30.6a4.493 4.493 0 0 0-4.5 4.479.879.879 0 1 0 1.758 0A2.734 2.734 0 0 1 30.6 46.9h2.72v6.05q0 .207-.018.41h-1.673a.879.879 0 0 0 0 1.758h1.222a5.335 5.335 0 0 1-9.483.444 7.44 7.44 0 0 0 2.862-1.724.879.879 0 0 0-1.22-1.265 5.7 5.7 0 0 1-3.021 1.521 6 6 0 0 1-.954.081 5.7 5.7 0 0 1-5.709-5.675c0-.08 0-.163.009-.245a7.5 7.5 0 0 0 1.97-1.18.88.88 0 0 0 .111-1.238.89.89 0 0 0-1.238-.111 5.85 5.85 0 0 1-4.152 1.307.879.879 0 1 0-.146 1.752 7.6 7.6 0 0 0 1.691-.049 7.46 7.46 0 0 0 7.463 7.2q.267 0 .537-.02a7.086 7.086 0 0 0 13.507-2.966v-1.943h4.659a.8.8 0 0 1 .382.157l2.1 2.085a2.96 2.96 0 0 0-.448 1.568 3 3 0 1 0 1.776-2.726l-2.184-2.173a2.49 2.49 0 0 0-1.621-.669h-4.66v-4.7h7.641a2.986 2.986 0 1 0 0-1.758h-7.645v-5.885h9.143a2.986 2.986 0 1 0 0-1.758h-9.143v-6.4h2.177a2.986 2.986 0 1 0 0-1.758h-2.177v-5.069h9.576a.83.83 0 0 1 .382.157l1.805 1.8a.879.879 0 1 0 1.24-1.246l-1.805-1.8a2.49 2.49 0 0 0-1.621-.669h-9.577v-3.646Zm6.118-8.051a1.228 1.228 0 1 1-1.238 1.228 1.234 1.234 0 0 1 1.238-1.228m-8.469-1.632a1.228 1.228 0 1 1-1.238 1.228 1.234 1.234 0 0 1 1.238-1.228m4.781 46.756a1.228 1.228 0 1 1-1.238 1.228 1.235 1.235 0 0 1 1.238-1.228m.819-11.145a1.228 1.228 0 1 1-1.238 1.228 1.234 1.234 0 0 1 1.239-1.228Zm1.5-7.645a1.228 1.228 0 1 1-1.238 1.228 1.234 1.234 0 0 1 1.241-1.228Zm-6.966-8.155a1.228 1.228 0 1 1-1.238 1.228 1.234 1.234 0 0 1 1.241-1.229Z"/></g></svg>