<svg xmlns="http://www.w3.org/2000/svg" width="60" height="60"><defs><clipPath id="a"><path d="M0 0h60v60H0z"/></clipPath></defs><g clip-path="url(#a)"><path d="M53.129 16.2c1.669-2.44 2.7-4.785 1.578-5.906-1.05-1.051-2.9-.207-4.2.52a1 1 0 1 0 .978 1.745 6.4 6.4 0 0 1 1.694-.729 10 10 0 0 1-1.435 2.813 9.983 9.983 0 0 0-14.1 14.105 9.9 9.9 0 0 1-2.813 1.434 6.4 6.4 0 0 1 .729-1.693 1 1 0 0 0-1.745-.978c-.727 1.3-1.573 3.143-.52 4.2a1.7 1.7 0 0 0 1.258.47c1.231 0 2.914-.868 4.644-2.051A9.983 9.983 0 0 0 53.129 16.2M51.64 26.457A1.97 1.97 0 0 1 51 25a2 2 0 0 1 1.93-1.993 7.95 7.95 0 0 1-1.29 3.45M37 22a7.993 7.993 0 0 1 13.589-5.714 57.6 57.6 0 0 1-5.3 6.007 57.4 57.4 0 0 1-6.007 5.3A7.97 7.97 0 0 1 37 22m3.915 6.866a68 68 0 0 0 5.792-5.159 68 68 0 0 0 5.161-5.789A7.9 7.9 0 0 1 52.931 21a3.99 3.99 0 0 0-2.611 6.955 7.94 7.94 0 0 1-9.405.908Z"/><path d="M41 18a3 3 0 1 0 2.121.879A3 3 0 0 0 41 18m0 4a1 1 0 1 1 .707-.293A1 1 0 0 1 41 22M40.293 7.707a1 1 0 0 0 1.414 0l3-3a1 1 0 0 0 0-1.414l-3-3a1 1 0 0 0-1.414 0l-3 3a1 1 0 0 0 0 1.414ZM41 2.414 42.586 4 41 5.586 39.414 4ZM53 8h6a1 1 0 0 0 .8-1.6l-3-4a1.036 1.036 0 0 0-1.6 0l-3 4A1 1 0 0 0 53 8m3-3.333L57 6h-2ZM30.143 18.515a1 1 0 0 0 1.714 0l3-5A1 1 0 0 0 34 12h-6a1 1 0 0 0-.857 1.515ZM32.233 14 31 16.057 29.767 14ZM57 30a3 3 0 1 0 2.121.879A3 3 0 0 0 57 30m0 4a1 1 0 1 1 .707-.293A1 1 0 0 1 57 34M26 58H8V47.345a11.02 11.02 0 0 1 2.55-7.045l.957-1.149A4.99 4.99 0 0 0 16 42a3 3 0 0 0 3-3v-.057l.751.536a10.97 10.97 0 0 1 4.378 6.721 1 1 0 0 0 .978.8 1 1 0 0 0 .2-.021 1 1 0 0 0 .777-1.181 12.96 12.96 0 0 0-5.175-7.945L19 36.486v-.616l1.132-.412a6.96 6.96 0 0 0 4.6-6.357l.027-.859 2.113-1.678a1 1 0 0 0 .208-1.342l-1.607-2.379a2.97 2.97 0 0 0 1.545-3.726l-1.369-3.759a2.98 2.98 0 0 0-1.55-1.693c-.056-.026-.115-.038-.171-.06l.7-1.065a5.02 5.02 0 0 0 .512-4.44l-1.71-4.7a1 1 0 0 0-1.666-.345l-2.428 2.559a3 3 0 0 1-1.137.751L7.946 9.92a13 13 0 0 0-5.892 4.162l-.957 1.2A5.02 5.02 0 0 0 0 18.4v.489a5 5 0 0 0 .713 2.573l1.234 2.056a3.09 3.09 0 0 0-.461 2.548 3 3 0 0 0 3.962 2.082l.161-.06L11 33.639v3l-1.987 2.385A13.03 13.03 0 0 0 6 47.345V59a1 1 0 0 0 1 1h19a1 1 0 0 0 0-2M16 40a3 3 0 0 1-3-3v-1.5a4.96 4.96 0 0 0 3.1 1.112 5 5 0 0 0 .9-.086V39a1 1 0 0 1-1 1m7.155-13.036a1 1 0 0 0-.379.752L22.737 29H21a1 1 0 0 0 0 2h1.259a4.97 4.97 0 0 1-2.811 2.579l-2.316.844a2.98 2.98 0 0 1-3.09-.642l-.982-.929.209-.6a13 13 0 0 0 .731-4.3v-3l2.258-.845a3 3 0 0 0 2.309 1.093 3 3 0 0 0 1.022-.18l3.966-1.444 1.352 2Zm-6.866-8.95a1 1 0 0 1 .565-.517l1.11-.4a3 3 0 0 0 .172 1l1.364 3.757a3 3 0 0 0 .508.879l-1.106.4a1.01 1.01 0 0 1-1.282-.6l-1.367-3.758a1 1 0 0 1 .036-.761m8.853 1.786a1 1 0 0 1-.6 1.282l-1.88.685a1.006 1.006 0 0 1-1.282-.6l-1.367-3.759a1 1 0 0 1 .6-1.282l1.878-.685a1 1 0 0 1 .343-.06 1 1 0 0 1 .939.658ZM2 18.4a3 3 0 0 1 .658-1.875l.958-1.2A11 11 0 0 1 8.6 11.81l10.267-3.56a5 5 0 0 0 1.92-1.261L22.1 5.6l1.157 3.177a3.02 3.02 0 0 1-.307 2.666l-1.45 2.236-1.566.57h-.006l-3.758 1.368a2.97 2.97 0 0 0-1.964 2.847L3.58 22.356l-1.152-1.92A3 3 0 0 1 2 18.892Zm1.932 7.825a1.05 1.05 0 0 1-.526-.726 1 1 0 0 1 .626-1.182l10.688-3.912.685 1.885-10.658 3.988a1 1 0 0 1-.815-.05ZM12 25.7v2.26a11 11 0 0 1-.511 3.313l-3.835-3.947Z"/><path d="M49.192 38h-6.657l-1.273-1.91a2.447 2.447 0 0 0-4.45.955l-.729 4.376-7.983 5.59a5.56 5.56 0 0 1-6.175.07l-4.369-2.913a1 1 0 0 0-1.11 1.664l4.369 2.913a7.59 7.59 0 0 0 8.431-.1l7.535-5.275L38.6 45.8l-8.684 6.513A8.5 8.5 0 0 1 24.855 54a8.4 8.4 0 0 1-4.676-1.416l-6.624-4.416a1 1 0 0 0-1.11 1.664l6.624 4.416A10.4 10.4 0 0 0 24.855 56a10.5 10.5 0 0 0 6.26-2.087l9.323-6.992 3.182-.8a8.7 8.7 0 0 0 1.362-.459l5.318-2.273A2.808 2.808 0 0 0 49.192 38m.319 3.551-5.319 2.278a7 7 0 0 1-1.056.357l-2.735.683-2.344-3.127.728-4.369a.465.465 0 0 1 .815-.173l1.57 2.356A1 1 0 0 0 42 40h7.192a.808.808 0 0 1 .319 1.551"/></g></svg>