<svg xmlns="http://www.w3.org/2000/svg" width="52.5" height="52.496"><path d="M20.625 51.559H15a.94.94 0 0 1-.937-.937H.3l.216 1.237a.95.95 0 0 0 .891.638h32.812a.95.95 0 0 0 .891-.638l.216-1.237H21.562a.94.94 0 0 1-.937.938ZM2.813 29.996a.93.93 0 0 0-.834.516 1 1 0 0 0-.1.422v17.812H15a.94.94 0 0 1 .938.938h3.75a.94.94 0 0 1 .938-.937H33.75V37.496h-.937a.94.94 0 0 1-.909-.713l-.159-.628-.553.337a.94.94 0 0 1-1.144-.141l-2.653-2.653a.94.94 0 0 1-.145-1.143l.337-.553-.628-.159a.94.94 0 0 1-.709-.909v-.938ZM15 40.309h-1.875v-1.875H15Zm3.75 0h-1.875v-1.875h1.875Zm3.75 0h-1.875v-1.875H22.5Zm12.188-9.375a1.875 1.875 0 1 0-1.875-1.875 1.875 1.875 0 0 0 1.875 1.875M3.75 16.871h10.819a5.63 5.63 0 0 1 4.181-1.875h.975A10.33 10.33 0 0 1 30 5.621c.281 0 .563.019.844.047a4.68 4.68 0 0 0-7.884-2.447.94.94 0 0 1-.7.272.96.96 0 0 1-.684-.347A8.438 8.438 0 0 0 6.567 8.433a.94.94 0 0 1-.937.938H3.75a3.75 3.75 0 1 0 0 7.5"/><path d="M48.75 16.871h-2.2a.96.96 0 0 1-.769-.394.95.95 0 0 1-.112-.853 4.9 4.9 0 0 0 .272-1.566 4.687 4.687 0 0 0-7.978-3.338.94.94 0 0 1-.7.272.96.96 0 0 1-.684-.347 8.438 8.438 0 0 0-15.009 5.288.94.94 0 0 1-.937.938H18.75a3.75 3.75 0 0 0 0 7.5h8.691l2.609-2.607a.94.94 0 0 1 1.144-.141l.553.338.159-.628a.94.94 0 0 1 .909-.712h3.75a.94.94 0 0 1 .909.712l.159.628.553-.338a.94.94 0 0 1 1.144.141l2.606 2.606h6.814a3.75 3.75 0 0 0 0-7.5Z"/><path d="m38.522 34.505 1.612-1.612-.609-1.013a.96.96 0 0 1-.056-.844.94.94 0 0 1 .638-.553l1.143-.281v-2.287l-1.144-.281a.94.94 0 0 1-.638-.553.96.96 0 0 1 .056-.844l.609-1.013-1.612-1.612-1.013.6a.93.93 0 0 1-.844.066.94.94 0 0 1-.553-.638l-.281-1.144h-2.286l-.281 1.144a.94.94 0 0 1-.553.638.93.93 0 0 1-.844-.066l-1.013-.6-1.612 1.612.609 1.013a.96.96 0 0 1 .056.844.94.94 0 0 1-.638.553l-1.144.281v2.288l1.144.281a.94.94 0 0 1 .638.553.96.96 0 0 1-.056.844l-.609 1.013 1.609 1.611 1.013-.609a.96.96 0 0 1 .844-.056.94.94 0 0 1 .553.638l.281 1.144h2.288l.281-1.144a.94.94 0 0 1 .553-.638.96.96 0 0 1 .844.056Zm-3.834-1.7a3.75 3.75 0 1 1 2.652-1.1 3.75 3.75 0 0 1-2.652 1.104Zm13.125 6.566a2.813 2.813 0 0 1-2.812 2.813h-7.5v1.875h7.5a4.693 4.693 0 0 0 4.688-4.687V28.121h-1.876Z"/></svg>