<svg xmlns="http://www.w3.org/2000/svg" width="292" height="259.309"><g fill="#282928"><path d="M292 129.684c0-19.29-24.224-37.57-61.364-48.906 8.571-37.748 4.761-67.78-12.023-77.4A26.15 26.15 0 0 0 205.281.054v13.24a13.8 13.8 0 0 1 6.785 1.543c8.1 4.629 11.606 22.257 8.868 44.929-.654 5.579-1.726 11.455-3.035 17.45a289 289 0 0 0-37.795-6.47 290 290 0 0 0-24.76-29.676c19.4-17.984 37.616-27.836 50-27.836V0c-16.367 0-37.794 11.633-59.459 31.813C124.216 11.754 102.789.237 86.422.237v13.236c12.32 0 30.592 9.793 49.995 27.658a281 281 0 0 0-24.581 29.617 279 279 0 0 0-37.854 6.529 180 180 0 0 1-3.1-17.212c-2.8-22.672.655-40.3 8.69-44.989a13.3 13.3 0 0 1 6.845-1.543V.296A26.6 26.6 0 0 0 72.965 3.62C56.24 13.235 52.491 43.208 61.121 80.837 24.105 92.233 0 110.454 0 129.684c0 19.289 24.224 37.569 61.364 48.906-8.571 37.747-4.761 67.78 12.023 77.395a26.2 26.2 0 0 0 13.392 3.323c16.367 0 37.794-11.633 59.459-31.812 21.662 20.058 43.092 31.575 59.462 31.575a26.6 26.6 0 0 0 13.451-3.324c16.725-9.615 20.474-39.588 11.844-77.217C267.9 167.194 292 148.914 292 129.684m-77.494-39.588c-2.2 7.656-4.94 15.55-8.035 23.444-2.44-4.748-5-9.5-7.8-14.245-2.738-4.748-5.654-9.377-8.57-13.888 8.454 1.247 16.608 2.79 24.405 4.689m-27.259 63.21c-4.643 8.012-9.4 15.609-14.344 22.672a310 310 0 0 1-26.9 1.187c-8.987 0-17.975-.415-26.784-1.127q-7.41-10.595-14.4-22.554c-4.524-7.775-8.63-15.669-12.38-23.622 3.69-7.953 7.856-15.907 12.32-23.682 4.643-8.012 9.4-15.609 14.344-22.672a310 310 0 0 1 26.9-1.187c8.987 0 17.975.415 26.784 1.128q7.41 10.593 14.4 22.553c4.524 7.775 8.63 15.669 12.38 23.622-3.75 7.953-7.856 15.907-12.32 23.682m19.224-7.716a254 254 0 0 1 8.214 23.622c-7.8 1.9-16.011 3.5-24.522 4.748 2.916-4.57 5.833-9.259 8.571-14.066 2.738-4.748 5.297-9.556 7.737-14.304m-60.352 63.328a245 245 0 0 1-16.546-18.992c5.356.237 10.832.415 16.367.415 5.6 0 11.131-.118 16.547-.415a232 232 0 0 1-16.368 18.992m-44.282-34.958c-8.452-1.246-16.606-2.789-24.4-4.689 2.2-7.656 4.94-15.55 8.035-23.444 2.44 4.749 5 9.5 7.8 14.245s5.649 9.377 8.565 13.888m43.984-123.511a245 245 0 0 1 16.547 18.993c-5.357-.237-10.833-.415-16.368-.415-5.6 0-11.13.119-16.546.415a232 232 0 0 1 16.367-18.993m-44.044 34.958c-2.916 4.57-5.832 9.259-8.57 14.067-2.738 4.748-5.3 9.5-7.738 14.244a254 254 0 0 1-8.213-23.622 289 289 0 0 1 24.521-4.689m-53.864 74.309c-21.07-8.962-34.7-20.714-34.7-30.032s13.63-21.13 34.7-30.032c5.118-2.2 10.713-4.155 16.487-6a284.5 284.5 0 0 0 13.391 36.145 281 281 0 0 0-13.213 35.968c-5.892-1.835-11.487-3.853-16.665-6.049m32.021 84.814c-8.1-4.63-11.606-22.257-8.868-44.93.654-5.579 1.726-11.455 3.035-17.449a289 289 0 0 0 37.795 6.469 290 290 0 0 0 24.76 29.676c-19.4 17.984-37.616 27.836-50 27.836a14.23 14.23 0 0 1-6.722-1.602m141.179-45.227c2.8 22.673-.655 40.3-8.69 44.989a13.27 13.27 0 0 1-6.845 1.543c-12.32 0-30.592-9.793-49.995-27.658a280.5 280.5 0 0 0 24.581-29.616 279 279 0 0 0 37.854-6.529 166 166 0 0 1 3.095 17.271m22.915-39.587c-5.119 2.2-10.714 4.154-16.487 5.994a285 285 0 0 0-13.392-36.145 280.5 280.5 0 0 0 13.213-35.967c5.893 1.84 11.488 3.858 16.725 6.054 21.07 8.962 34.7 20.713 34.7 30.032-.06 9.318-13.687 21.129-34.759 30.032"/><path d="M145.94 156.808a27.124 27.124 0 1 0-27.2-27.124 27.16 27.16 0 0 0 27.2 27.124"/></g></svg>