<svg xmlns="http://www.w3.org/2000/svg" width="60" height="60" fill="none"><path fill="#282928" d="M29.381 50.173a5.363 5.363 0 1 0-10.725 0 5.363 5.363 0 0 0 10.725 0m-8.823 0a3.46 3.46 0 1 1 6.92 0 3.46 3.46 0 0 1-6.92 0m23.324 5.362a5.362 5.362 0 1 0 0-10.724 5.363 5.363 0 0 0-5.362 5.362 5.37 5.37 0 0 0 5.362 5.362m0-8.822a3.46 3.46 0 1 1 0 6.92 3.46 3.46 0 0 1 0-6.92M2.826 6.363h5.801a3.86 3.86 0 0 1 3.827 3.27l4.593 29.007a5.75 5.75 0 0 0 5.706 4.874h28.385a.951.951 0 0 0 0-1.902H22.753a3.86 3.86 0 0 1-3.828-3.27l-.78-4.931h29.07a5.78 5.78 0 0 0 5.46-3.886l5.393-15.566a.95.95 0 0 0-.898-1.263H14.865l-.532-3.361A5.75 5.75 0 0 0 8.627 4.46H2.826a.951.951 0 0 0 0 1.902Zm53.007 8.235-4.955 14.304a3.88 3.88 0 0 1-3.662 2.607H17.843l-2.677-16.911z"/><path fill="#282928" d="M38.758 23.232q0-1.519.678-2.713a4.9 4.9 0 0 1 1.872-1.872q1.195-.678 2.669-.678 1.725 0 3.022.884 1.298.885 1.813 2.448H46.44q-.354-.738-1.003-1.106-.633-.369-1.474-.369-.9 0-1.607.428a2.9 2.9 0 0 0-1.09 1.18q-.384.765-.384 1.798 0 1.017.383 1.799.398.766 1.091 1.194a3.13 3.13 0 0 0 1.607.413q.84 0 1.474-.369a2.54 2.54 0 0 0 1.003-1.12h2.373Q48.297 26.725 47 27.61q-1.282.87-3.022.87-1.474 0-2.669-.664a5.03 5.03 0 0 1-1.872-1.872q-.678-1.194-.678-2.713Zm-7.552 2.943a54 54 0 0 0 2.139-1.86 8.9 8.9 0 0 0 1.328-1.565q.531-.81.531-1.594 0-.713-.335-1.118-.336-.405-1.035-.406-.7 0-1.076.476-.378.46-.392 1.272h-1.901q.056-1.678.992-2.544.951-.867 2.405-.867 1.594 0 2.447.853.852.838.852 2.223 0 1.089-.587 2.083a8.4 8.4 0 0 1-1.342 1.733 44 44 0 0 1-1.971 1.762h4.124v1.621H30.48v-1.453l.727-.616Zm-4.34-3.063q.87.162 1.43.87a2.54 2.54 0 0 1 .56 1.622 2.6 2.6 0 0 1-.413 1.46q-.398.618-1.165.972-.766.354-1.813.354h-4.438V18.1h4.246q1.047 0 1.799.339.766.339 1.15.943.398.604.398 1.371 0 .9-.487 1.504-.471.604-1.267.855m-3.775-.766h1.887q.738 0 1.136-.325.398-.339.398-.958 0-.62-.398-.958-.399-.34-1.136-.34h-1.887v2.58Zm2.08 4.363q.75 0 1.164-.353.427-.354.427-1.003 0-.663-.442-1.032-.443-.383-1.194-.383H23.09v2.771z"/></svg>