<svg xmlns="http://www.w3.org/2000/svg" width="60" height="61" fill="none"><path fill="#282928" fill-rule="evenodd" d="M58.954 9.45v23.167c-1.191-1.6-3.12-2.903-5.979-2.903-4.54 0-8.258 3.127-8.258 8.07 0 4.913 3.718 8.077 8.258 8.077 2.46 0 4.462-.9 5.979-2.326v7.858a.516.516 0 0 1-.51.525H1.563c-.51 0-.707-.652-.31-.95l21.073-15.537v9.906c0 .137.1.238.237.238h8.157c2.971 0 4.51-1.865 4.51-4.229 0-1.664-.943-3.074-2.26-3.614-.189-.086-.2-.35-.015-.436 1.132-.528 1.965-1.727 1.965-3.353 0-2.078-1.502-3.98-4.451-3.98h-.733L58.132 9.025c.352-.25.822 0 .822.424Zm-33.33 26.48v-2.788c0-.138.1-.25.236-.25h3.888c1.121 0 1.817.674 1.817 1.639 0 1.012-.696 1.637-1.817 1.637H25.86a.237.237 0 0 1-.237-.238Zm12.756 9.422c0 .122.096.223.222.223h2.849c.122 0 .221-.1.221-.224V30.188c0-.123-.1-.224-.221-.224H38.6a.22.22 0 0 0-.221.224zm18.472-10.773 2.102-1.161v3.528h-6.526a.27.27 0 0 0-.263.261v2.379c0 .148.126.26.263.26h3.644c.1 0 .185.09.185.19v1.6a.2.2 0 0 1-.074.15c-.648.561-1.88 1.127-3.208 1.127-2.823 0-4.872-2.177-4.872-5.13 0-2.94 2.05-5.117 4.872-5.117 1.528 0 2.797.826 3.544 1.839.074.1.222.137.333.074m-31.229 7.832v-3.064c0-.137.1-.25.237-.25h4.025c1.284 0 1.98.801 1.98 1.776 0 1.125-.748 1.787-1.98 1.787H25.86c-.137 0-.237-.111-.237-.25Z" clip-rule="evenodd"/></svg>