<svg xmlns="http://www.w3.org/2000/svg" width="60" height="60" fill="none"><path fill="#000" d="M39.852 25.71h9.735a.695.695 0 0 0 .696-.695V22.35a.695.695 0 0 0-.696-.696h-9.735a.696.696 0 0 0-.696.696v2.665a.696.696 0 0 0 .696.696Zm4.056-2.665h4.984v1.275h-4.984zm-3.36 0h1.97v1.275h-1.97zm-.696 8.461h13.212a.695.695 0 0 0 .696-.696v-2.665a.695.695 0 0 0-.696-.696H39.852a.696.696 0 0 0-.696.696v2.665a.696.696 0 0 0 .696.696m4.056-2.666h8.461v1.275h-8.46zm-3.36 0h1.97v1.275h-1.97zm-.696 8.463h9.735a.695.695 0 0 0 .696-.696v-2.666a.695.695 0 0 0-.696-.695h-9.735a.696.696 0 0 0-.696.695v2.666a.696.696 0 0 0 .696.696m4.056-2.666h4.984v1.275h-4.984zm-3.36 0h1.97v1.275h-1.97zm-.696 8.461h12.053a.695.695 0 0 0 .696-.696v-2.666a.695.695 0 0 0-.696-.695H39.852a.696.696 0 0 0-.696.695v2.666a.696.696 0 0 0 .696.696m4.056-2.666h7.302v1.275h-7.302zm-3.36 0h1.97v1.275h-1.97zm-29.853 6.49h21.69a.654.654 0 0 0 .692-.715l-1.703-20.172a.69.69 0 0 0-.674-.637l-4.988-.034V23.67a4.89 4.89 0 0 0-4.893-4.912h-.002c-2.71.001-4.956 2.207-4.956 4.916v1.69h-3.462a.685.685 0 0 0-.693.626l-1.704 20.236a.63.63 0 0 0 .416.653.7.7 0 0 0 .277.043M30.117 27.13 31.6 44.713l-1.483-1.198zm.3 18.401h-2.078l1.078-.808zm-1.691-1.942-1.581 1.186 1.58-16.105v14.92ZM17.252 23.674c0-1.943 1.622-3.524 3.57-3.525a3.503 3.503 0 0 1 3.5 3.525v1.69h-7.07zm-4.214 3.081h2.823v2.23a.696.696 0 0 0 1.39 0v-2.23h7.07v2.23a.696.696 0 0 0 1.391 0v-2.23h1.76l-1.404 14.256H11.834zm-1.321 15.647H25.93l-.31 3.129H11.45l.266-3.13Z"/><path fill="#000" d="M53.18 5.893H6.82a5.33 5.33 0 0 0-5.332 5.331v37.552a5.33 5.33 0 0 0 5.332 5.331h46.36a5.33 5.33 0 0 0 5.332-5.331V11.224a5.33 5.33 0 0 0-5.332-5.331m-50.3 5.352a3.964 3.964 0 0 1 3.94-3.962H19.8v3.81a2.436 2.436 0 0 1-2.444 2.449H2.88zm54.24 37.51a3.964 3.964 0 0 1-3.94 3.962H6.82a3.963 3.963 0 0 1-3.94-3.962V14.933h54.24zm0-35.213H20.322c.571-.687.88-1.555.87-2.45V7.284h31.99a3.964 3.964 0 0 1 3.94 3.962v2.297Z"/><path fill="#000" d="M7.554 9.484a.948.948 0 1 0 0 1.897.948.948 0 0 0 0-1.897m3.796 0a.948.948 0 1 0 0 1.897.948.948 0 0 0 0-1.897m3.794 0a.948.948 0 1 0 0 1.896.948.948 0 0 0 0-1.896M5.43 18.738a.695.695 0 0 0 .695-.695v-.498a.695.695 0 0 0-1.39 0v.498a.695.695 0 0 0 .695.695m0 13.561a.696.696 0 0 0 .695-.696V20.477a.695.695 0 1 0-1.39 0v11.126a.695.695 0 0 0 .695.696"/></svg>