<svg xmlns="http://www.w3.org/2000/svg" width="60" height="60" fill="none"><path fill="#282928" d="M23.995 27.142h-3.244l-1.039-3.838h3.764zm-2.762 1.854 1.038 3.838h2.484l-.519-3.838zm4.635-1.854h3.393v-3.838h-3.912zm.76 5.692h2.633v-3.838h-3.152zm4.487 0h2.651l.52-3.838h-3.171zm0-5.692h3.411l.52-3.838h-3.931zm4.524 5.692h1.075c.834 0 1.576-.556 1.799-1.372l.648-2.466H36.14zm4.635-9.53h-3.356l-.52 3.838h3.264l.909-3.449a.32.32 0 0 0-.056-.278.33.33 0 0 0-.241-.111M27.129 41.233c0 .39-.705.39-.705 0 0-.186.167-.352.352-.352.186 0 .353.166.353.352m8.269 0c0 .39-.686.39-.686 0 0-.186.148-.352.352-.352.185 0 .334.166.334.352m0 0c0 .39-.686.39-.686 0 0-.186.148-.352.352-.352.185 0 .334.166.334.352m-8.27 0c0 .39-.704.39-.704 0 0-.186.167-.352.352-.352.186 0 .353.166.353.352Zm0 0c0 .39-.704.39-.704 0 0-.186.167-.352.352-.352.186 0 .353.166.353.352Zm8.27 0c0 .39-.686.39-.686 0 0-.186.148-.352.352-.352.185 0 .334.166.334.352m0 0c0 .39-.686.39-.686 0 0-.186.148-.352.352-.352.185 0 .334.166.334.352m-8.27 0c0 .39-.704.39-.704 0 0-.186.167-.352.352-.352.186 0 .353.166.353.352Zm0 0c0 .39-.704.39-.704 0 0-.186.167-.352.352-.352.186 0 .353.166.353.352Zm8.27 0c0 .39-.686.39-.686 0 0-.186.148-.352.352-.352.185 0 .334.166.334.352m0 0c0 .39-.686.39-.686 0 0-.186.148-.352.352-.352.185 0 .334.166.334.352m-8.27 0c0 .39-.704.39-.704 0 0-.186.167-.352.352-.352.186 0 .353.166.353.352Zm0 0c0 .39-.704.39-.704 0 0-.186.167-.352.352-.352.186 0 .353.166.353.352Zm8.27 0c0 .39-.686.39-.686 0 0-.186.148-.352.352-.352.185 0 .334.166.334.352m0 0c0 .39-.686.39-.686 0 0-.186.148-.352.352-.352.185 0 .334.166.334.352m-8.27 0c0 .39-.704.39-.704 0 0-.186.167-.352.352-.352.186 0 .353.166.353.352ZM54.31 11.79v30.945l-5.34-4.506a2.9 2.9 0 0 0-1.816-.667 2.837 2.837 0 0 0-2.837 2.836v8.27H6.326a4.14 4.14 0 0 1-4.135-4.135V11.79zM28.983 41.233a2.21 2.21 0 0 0-2.207-2.207 2.21 2.21 0 0 0-2.206 2.207 2.2 2.2 0 0 0 2.206 2.206 2.2 2.2 0 0 0 2.207-2.206m8.269 0c0-1.205-.983-2.207-2.188-2.207a2.21 2.21 0 0 0-2.206 2.207 2.2 2.2 0 0 0 2.206 2.206 2.196 2.196 0 0 0 2.188-2.206m4.746-18.93c-.426-.538-1.038-.853-1.724-.853H19.212l-.538-2.058a2.39 2.39 0 0 0-2.317-1.761h-1.372a.92.92 0 0 0-.928.927c0 .519.408.927.928.927h1.372a.54.54 0 0 1 .519.389l4.43 16.557c.316 1.223 1.428 2.058 2.69 2.058h14.85c.52 0 .927-.408.927-.927a.93.93 0 0 0-.927-.927h-14.85a.934.934 0 0 1-.91-.686l-.333-1.261h13.961a3.71 3.71 0 0 0 3.578-2.744l2.077-7.787a2.13 2.13 0 0 0-.37-1.854Zm-6.6 18.93c0 .39-.686.39-.686 0 0-.186.148-.352.352-.352.185 0 .334.166.334.352m-8.27 0c0 .39-.704.39-.704 0 0-.186.167-.352.352-.352.186 0 .353.166.353.352Zm0 0c0 .39-.704.39-.704 0 0-.186.167-.352.352-.352.186 0 .353.166.353.352Zm8.27 0c0 .39-.686.39-.686 0 0-.186.148-.352.352-.352.185 0 .334.166.334.352m0 0c0 .39-.686.39-.686 0 0-.186.148-.352.352-.352.185 0 .334.166.334.352m-8.27 0c0 .39-.704.39-.704 0 0-.186.167-.352.352-.352.186 0 .353.166.353.352Zm0 0c0 .39-.704.39-.704 0 0-.186.167-.352.352-.352.186 0 .353.166.353.352Zm8.27 0c0 .39-.686.39-.686 0 0-.186.148-.352.352-.352.185 0 .334.166.334.352m0 0c0 .39-.686.39-.686 0 0-.186.148-.352.352-.352.185 0 .334.166.334.352m-8.27 0c0 .39-.704.39-.704 0 0-.186.167-.352.352-.352.186 0 .353.166.353.352Zm0 0c0 .39-.704.39-.704 0 0-.186.167-.352.352-.352.186 0 .353.166.353.352Zm8.27 0c0 .39-.686.39-.686 0 0-.186.148-.352.352-.352.185 0 .334.166.334.352m18.911-32.91v1.613H2.191V8.323c0-2.28 1.854-4.116 4.135-4.116h43.849c2.28 0 4.134 1.836 4.134 4.116m-37.34-.797a.87.87 0 0 0-.872-.872h-9.53a.87.87 0 1 0 0 1.743h9.53a.87.87 0 0 0 .871-.871Zm26.179 0a.93.93 0 0 0-.927-.927c-.5 0-.927.426-.927.927a.93.93 0 0 0 .927.927.92.92 0 0 0 .927-.927m3.838 0c0-.5-.427-.927-.927-.927a.93.93 0 0 0-.927.927c0 .519.407.927.927.927a.93.93 0 0 0 .927-.927m3.819 0a.93.93 0 0 0-.927-.927.93.93 0 0 0-.927.927c0 .519.408.927.927.927s.927-.408.927-.927M35.398 41.233c0 .39-.686.39-.686 0 0-.186.148-.352.352-.352.185 0 .334.166.334.352m-8.27 0c0 .39-.704.39-.704 0 0-.186.167-.352.352-.352.186 0 .353.166.353.352Zm0 0c0 .39-.704.39-.704 0 0-.186.167-.352.352-.352.186 0 .353.166.353.352Zm0 0c0 .39-.704.39-.704 0 0-.186.167-.352.352-.352.186 0 .353.166.353.352Zm30.333 6.588-9.69-8.171a.977.977 0 0 0-1.607.747l.003 12.675a.979.979 0 0 0 1.605.753l2.661-2.212 1.474 3.17a1.744 1.744 0 1 0 3.164-1.471l-1.474-3.17 3.406-.61a.979.979 0 0 0 .458-1.711"/></svg>