<svg xmlns="http://www.w3.org/2000/svg" width="60" height="60" fill="none"><path fill="#000" d="M54.74 6.02a1 1 0 0 0-.759-.759c-.09-.02-3.957-.805-9.353.58-.046-.004-.087-.022-.135-.018a1 1 0 0 0-.486.18c-5.106 1.44-11.453 4.866-17.27 12.592-2.719-.265-13.852-.47-18.25 13.157a1 1 0 0 0 1.638 1.033c.052-.05 4.981-4.635 10.263-3.295a76 76 0 0 0-1.077 2.484 1 1 0 0 0 .22 1.086l.38.381-2.359 2.36a1 1 0 0 0 0 1.414l5.233 5.233a.997.997 0 0 0 1.414 0l2.36-2.359.381.381a1 1 0 0 0 1.086.22c.86-.353 1.68-.714 2.485-1.079 1.337 5.278-3.247 10.212-3.297 10.264a1.004 1.004 0 0 0-.12 1.222 1.004 1.004 0 0 0 1.154.418c13.631-4.402 13.423-15.537 13.157-18.25 7.724-5.817 11.15-12.162 12.591-17.268a.97.97 0 0 0 .181-.486c.003-.048-.015-.09-.019-.137 1.387-5.396.602-9.264.581-9.355ZM23.492 40.326l-3.819-3.819 1.651-1.652 3.82 3.82zM52.897 7.103c.164 1.185.355 3.843-.419 7.263a8.23 8.23 0 0 1-4.543-2.308 8.17 8.17 0 0 1-2.303-4.536c3.424-.775 6.084-.582 7.265-.419M11.65 29.22c3.914-7.98 10.655-8.8 13.727-8.724-1.423 2.094-2.803 4.471-4.116 7.158-3.756-1.125-7.268.2-9.61 1.566Zm19.13 19.132c1.367-2.344 2.692-5.857 1.567-9.613 2.687-1.313 5.064-2.692 7.157-4.116.077 3.075-.746 9.816-8.724 13.73Zm9.083-16.37a1 1 0 0 0-.137.096c-3.16 2.285-7.047 4.493-11.843 6.506l-6.466-6.466c2.01-4.79 4.215-8.67 6.497-11.829a1 1 0 0 0 .11-.156c5.3-7.273 11.002-10.61 15.676-12.086a10.16 10.16 0 0 0 2.822 5.425 10.2 10.2 0 0 0 5.433 2.827c-1.475 4.675-4.814 10.381-12.092 15.683"/><path fill="#000" d="M35.322 17.618a5 5 0 0 0 0 7.06 4.98 4.98 0 0 0 3.53 1.46 4.98 4.98 0 0 0 3.531-1.46 5 5 0 0 0 0-7.061 5 5 0 0 0-7.061 0Zm5.648 5.646a3 3 0 0 1-4.233 0 3 3 0 0 1 0-4.233 2.99 2.99 0 0 1 2.116-.875c.766 0 1.533.292 2.117.874a3 3 0 0 1 0 4.234M11.352 49.65a1 1 0 0 0 .707-.294l6.35-6.35a.999.999 0 1 0-1.414-1.414l-6.35 6.35a.999.999 0 0 0 .707 1.707Zm1.621 5.332a1 1 0 0 0 .707-.293l6.35-6.349a.999.999 0 1 0-1.414-1.414l-6.35 6.35a.999.999 0 0 0 .707 1.706m-7.664-7.247a.997.997 0 0 0 1.414 0l6.349-6.35a.999.999 0 1 0-1.414-1.414l-6.35 6.35a1 1 0 0 0 0 1.414Z"/></svg>