<svg xmlns="http://www.w3.org/2000/svg" width="60" height="61" fill="none"><path fill="#282928" d="M57.827 22.143c-.02-2.342-4.349-3.406-15.554-3.406-26.29 0-32.96-1.123-40.097-8.633 3.003 4.51 4.645 12.968 32.433 12.547 28.993-.446 11.306 7.476 6.16 16.426 9.28-8.283 17.03-13.743 17.058-16.9zM20.884 46.196a3.99 3.99 0 0 1-3.97 3.97 3.973 3.973 0 0 1-3.978-3.97v-.003c0-2.18 1.794-3.975 3.976-3.975h.002a3.973 3.973 0 0 1 3.97 3.978m18.105 0a3.99 3.99 0 0 1-3.97 3.97 3.973 3.973 0 0 1-3.977-3.97v-.003c0-2.18 1.794-3.975 3.975-3.975h.002a3.973 3.973 0 0 1 3.97 3.978"/></svg>