<svg xmlns="http://www.w3.org/2000/svg" width="60" height="60" fill="none"><path fill="#000" d="m47.366 14.364-2.637-2.636-2.637 2.636-1.225-1.225 3.862-3.862 3.862 3.862z"/><path fill="#000" d="M43.863 10.938h1.733v9.53h-1.733z"/><path fill="#000" d="M49.062 31.73H47.33v-3.726a12.996 12.996 0 0 0 10.332-14.04 12.997 12.997 0 0 0-25.862 0 12.996 12.996 0 0 0 10.331 14.04v3.726h-1.733v24.261h-3.465V28.265h-8.665V55.99h-3.466V35.196h-8.664v20.795H12.67v-12.13H4.006v12.13H2.273v1.733h55.454v-1.733h-8.665zM10.938 55.991H5.739V45.594h5.199zm12.13 0H17.87V36.93h5.198v19.062Zm12.13 0H30V29.997h5.199zm-1.732-40.723A11.263 11.263 0 0 1 44.192 4.017a11.264 11.264 0 0 1 2.147 22.4l-.743.106v5.207h-1.733v-5.207l-.742-.107a11.32 11.32 0 0 1-9.655-11.148M47.329 55.99H42.13V33.463h5.2v22.528Z"/><path fill="#000" d="M54.261 15.27a9.53 9.53 0 0 0-9.53-9.532 9.53 9.53 0 0 0-9.532 9.531A9.53 9.53 0 0 0 44.73 24.8a9.54 9.54 0 0 0 9.531-9.53m-17.329 0a7.798 7.798 0 1 1 7.798 7.797 7.807 7.807 0 0 1-7.798-7.798Zm-22.19 16.462h6.085l7.44-7.44v2.24h1.732v-5.198h-5.198v1.733h2.24l-6.931 6.931h-6.046L2.551 40.627l1.177 1.272zm37.785-.002h5.2v1.733h-5.2zm0 3.467h5.2v1.733h-5.2zm0 3.465h5.2v1.733h-5.2zm0 3.467h5.2v1.733h-5.2zm0 3.465h5.2v1.733h-5.2zm0 3.466h5.2v1.733h-5.2zm0 3.465h5.2v1.733h-5.2z"/></svg>