<svg xmlns="http://www.w3.org/2000/svg" width="60" height="60" fill="none"><g fill="#000" clip-path="url(#a)"><path d="M21.971 15.498H32.49a.757.757 0 0 0 0-1.514H21.972a.757.757 0 1 0 0 1.514Zm-.756 2.784c0 .418.339.757.756.757H32.49a.757.757 0 1 0 0-1.514H21.972a.757.757 0 0 0-.757.757m.756 4.296H32.49a.757.757 0 0 0 0-1.514H21.972a.757.757 0 1 0 0 1.514Zm11.273 18.999a.757.757 0 0 0-.757-.757H22.71a.757.757 0 0 0 0 1.514h9.777a.757.757 0 0 0 .757-.757m-16.401-7.385a.757.757 0 0 0-.756-.757H5.569a.757.757 0 0 0 0 1.514h10.518a.757.757 0 0 0 .756-.757M5.57 31.41h10.517a.757.757 0 1 0 0-1.514H5.569a.757.757 0 1 0 0 1.514Zm6.268-21.293c-4.324 0-7.842 3.518-7.842 7.842 0 4.325 3.518 7.843 7.842 7.843 4.325 0 7.842-3.518 7.842-7.843 0-4.324-3.517-7.842-7.842-7.842m0 14.058a6.22 6.22 0 0 1-6.215-6.216 6.225 6.225 0 0 1 5.402-6.162v6.162c0 .45.364.814.813.814H18a6.225 6.225 0 0 1-6.162 5.402m.814-7.029v-5.349A6.23 6.23 0 0 1 18 17.146zm6.133 11.644v7.265a1.32 1.32 0 0 0 1.318 1.318H32.74a1.32 1.32 0 0 0 1.318-1.318V28.79a1.32 1.32 0 0 0-1.318-1.318H20.103a1.32 1.32 0 0 0-1.318 1.318m1.627.31H32.43v6.646H20.412zM3.996 51.038a1.32 1.32 0 0 0 1.318 1.318h2.21a1.32 1.32 0 0 0 1.318-1.318V40.003a1.32 1.32 0 0 0-1.318-1.318h-2.21a1.32 1.32 0 0 0-1.318 1.318zm1.627-10.725h1.592v10.416H5.623zm5.699 1.267a1.32 1.32 0 0 0-1.318 1.318v8.14a1.32 1.32 0 0 0 1.318 1.317h2.21a1.32 1.32 0 0 0 1.318-1.318v-8.14a1.32 1.32 0 0 0-1.318-1.317zm1.901 9.148h-1.592v-7.52h1.592zm4.107 1.628h2.21a1.32 1.32 0 0 0 1.318-1.318v-4.532a1.32 1.32 0 0 0-1.318-1.319h-2.21a1.32 1.32 0 0 0-1.318 1.319v4.532a1.32 1.32 0 0 0 1.318 1.318m.309-5.541h1.592v3.914H17.64v-3.914Zm14.848-2.278H22.71a.757.757 0 1 0 0 1.513h9.777a.757.757 0 1 0 0-1.513m0 3.717H22.71a.757.757 0 1 0 0 1.513h9.777a.757.757 0 1 0 0-1.513"/><path d="M41.008 12.319a.814.814 0 0 0 .813-.814V4.959a2.73 2.73 0 0 0-2.727-2.727H6.491A2.73 2.73 0 0 0 3.765 4.96v1.038H2.727A2.73 2.73 0 0 0 0 8.724v34.852a.813.813 0 1 0 1.627 0V8.724a1.1 1.1 0 0 1 1.1-1.1H35.33a1.1 1.1 0 0 1 1.1 1.1V55.04a1.1 1.1 0 0 1-1.1 1.1H2.727a1.1 1.1 0 0 1-1.1-1.1v-7.668a.813.813 0 1 0-1.627 0v7.668a2.73 2.73 0 0 0 2.727 2.727H35.33a2.73 2.73 0 0 0 2.726-2.727v-1.038h1.038a2.73 2.73 0 0 0 2.727-2.727V15.302a.814.814 0 0 0-1.627 0v35.975a1.1 1.1 0 0 1-1.1 1.1h-1.038V8.723a2.73 2.73 0 0 0-2.726-2.727H5.392V4.96a1.1 1.1 0 0 1 1.1-1.1h32.602a1.1 1.1 0 0 1 1.1 1.1v6.546c0 .45.364.813.814.813"/></g><defs><clipPath id="a"><path fill="#fff" d="M0 0h60v60H0z"/></clipPath></defs></svg>