<svg xmlns="http://www.w3.org/2000/svg" width="60" height="61" fill="none"><path fill="#282928" d="M48.714 13.027c-.046-.274-.274-.456-.502-.456s-4.24-.091-4.24-.091-3.374-3.283-3.693-3.602c-.32-.32-1.003-.228-1.231-.137 0 0-.638.182-1.687.502a13.3 13.3 0 0 0-.82-2.006c-1.186-2.28-2.964-3.511-5.062-3.511-.136 0-.273 0-.456.045-.045-.09-.136-.136-.182-.228-.912-1.003-2.097-1.459-3.51-1.413-2.736.091-5.472 2.052-7.66 5.562-1.55 2.463-2.736 5.563-3.1 7.98-3.147.957-5.335 1.64-5.38 1.686-1.597.502-1.642.547-1.824 2.052-.137 1.14-4.332 33.283-4.332 33.283l34.834 6.019 15.091-3.74c-.046-.045-6.2-41.672-6.246-41.945M35.628 9.79c-.82.228-1.732.547-2.69.82 0-1.367-.182-3.328-.82-4.97 2.051.411 3.054 2.736 3.51 4.15m-4.559 1.413c-1.824.547-3.83 1.186-5.836 1.778.547-2.143 1.641-4.285 2.918-5.699.502-.501 1.186-1.094 1.96-1.459.821 1.596 1.004 3.83.958 5.38m-3.693-7.25q.957 0 1.641.411c-.73.41-1.459.958-2.143 1.687-1.732 1.87-3.054 4.787-3.601 7.569-1.642.501-3.283 1.003-4.788 1.459.958-4.377 4.65-10.988 8.891-11.125Z"/><path fill="#1E1E1E" d="M48.213 12.571c-.227 0-4.24-.09-4.24-.09S40.6 9.197 40.28 8.877c-.137-.136-.273-.182-.456-.228v50.016l15.092-3.738S48.76 13.3 48.715 12.982a.534.534 0 0 0-.502-.41Z"/><path fill="#fff" d="m31.435 20.323-1.733 6.566s-1.96-.912-4.286-.73c-3.419.228-3.419 2.371-3.419 2.918.182 2.918 7.888 3.557 8.344 10.441.319 5.426-2.873 9.119-7.478 9.393-5.562.364-8.617-2.918-8.617-2.918l1.185-5.016s3.055 2.326 5.517 2.143c1.596-.091 2.189-1.413 2.143-2.325-.228-3.83-6.52-3.602-6.93-9.894-.32-5.289 3.146-10.669 10.806-11.125 2.963-.228 4.468.547 4.468.547"/></svg>