<svg xmlns="http://www.w3.org/2000/svg" width="60" height="60" fill="none"><path fill="#000" d="M16.875 19.688h26.25a.937.937 0 0 0 .938-.938v-7.5a.936.936 0 0 0-.938-.938h-26.25a.937.937 0 0 0-.938.938v7.5a.937.937 0 0 0 .938.938m.938-7.5h24.375v5.624H17.811v-5.625Zm-.938 22.5h9.433a.938.938 0 0 0 0-1.876h-8.495v-5.624h24.375v5.625H33.79a.937.937 0 1 0 0 1.874h9.335a.937.937 0 0 0 .938-.937v-7.5a.937.937 0 0 0-.938-.938h-26.25a.937.937 0 0 0-.938.938v7.5a.937.937 0 0 0 .938.938m0 15h26.25a.937.937 0 0 0 .938-.938v-7.5a.937.937 0 0 0-.938-.938h-26.25a.937.937 0 0 0-.938.938v7.5a.937.937 0 0 0 .938.938m.938-7.5h24.375v5.624H17.811v-5.624ZM48.75 14.063h-1.875a.938.938 0 0 0 0 1.874h1.875a6.563 6.563 0 1 1 0 13.126h-1.875a.938.938 0 0 0 0 1.875h1.875a8.437 8.437 0 1 0 0-16.875m-37.5 31.875h1.875a.938.938 0 0 0 0-1.876H11.25a6.563 6.563 0 0 1 0-13.124h1.875a.938.938 0 0 0 0-1.875H11.25a8.437 8.437 0 1 0 0 16.875m43.788-3.476a.937.937 0 0 0-1.326 1.326l.275.275h-7.112a.938.938 0 0 0 0 1.875h7.112l-.275.274a.938.938 0 1 0 1.326 1.326l1.875-1.875a.936.936 0 0 0 0-1.326zM3.75 15.938h7.112l-.275.274a.938.938 0 1 0 1.326 1.326l1.875-1.875a.935.935 0 0 0 0-1.326l-1.875-1.875a.937.937 0 0 0-1.326 1.326l.275.275H3.75a.938.938 0 0 0 0 1.875"/><path fill="#000" d="M30 34.688a.937.937 0 1 0 0-1.875.937.937 0 0 0 0 1.874Z"/></svg>