<svg xmlns="http://www.w3.org/2000/svg" width="60" height="60" fill="none"><path fill="#000" d="M56.419 8.74a4.6 4.6 0 0 0-6.855.357L38.365 22.65c-2.163-.469-4.075.495-5.412 2.798-.487.834-.817 1.807-.982 2.893-.27 1.729-.808 3.223-1.66 4.561a.75.75 0 0 0-.034.739.73.73 0 0 0 .625.39c.374.018.747.018 1.104.018 4.326 0 7.35-1.025 8.983-3.041 1.268-1.572 1.338-3.301 1.251-4.24l13.744-11.173a4.64 4.64 0 0 0 1.747-3.327 4.55 4.55 0 0 0-1.312-3.527ZM41.693 20.948l2.415 2.416-2.485 2.015-1.963-1.972zm-1.86 9.149c-1.303 1.598-3.935 2.45-7.645 2.476.608-1.217 1.017-2.537 1.242-4.014.14-.904.409-1.703.8-2.372.851-1.46 1.894-2.19 3.11-2.19.295 0 .608.044.93.131l2.484 2.502c.087.53.209 2.094-.92 3.467ZM55.081 14.44l-.009.009-9.817 7.984-2.624-2.624 8.08-9.774a3.14 3.14 0 0 1 2.276-1.173 3.08 3.08 0 0 1 2.38.921c.626.635.956 1.503.904 2.39a3.13 3.13 0 0 1-1.19 2.267M26.132 42.172a.843.843 0 1 0 0-1.686.843.843 0 0 0 0 1.686M17.43 12.59a.74.74 0 0 0-.74-.738H7.204a.74.74 0 0 0-.738.738v7.446c0 .408.33.738.738.738h9.488c.408 0 .738-.33.738-.738zm-1.478 6.698h-8.01V13.32h8.01zm1.478 4.396a.74.74 0 0 0-.74-.739H7.204a.738.738 0 1 0 0 1.477h9.488c.408 0 .738-.33.738-.738M7.203 26.266a.738.738 0 1 0 0 1.477h6.664a.738.738 0 1 0 0-1.477zm23.05-2.582a.74.74 0 0 0-.738-.739h-9.488a.738.738 0 1 0 0 1.477h9.488c.408 0 .738-.33.738-.738m-10.226 2.582a.738.738 0 1 0 0 1.477h6.664a.738.738 0 1 0 0-1.477h-6.663ZM30.253 12.59a.74.74 0 0 0-.738-.738h-9.488a.74.74 0 0 0-.738.738v7.446c0 .408.33.738.738.738h9.488c.408 0 .738-.33.738-.738zm-1.477 6.698h-8.01V13.32h8.01z"/><path fill="#000" d="M50.026 24.448a.738.738 0 1 0-1.477 0v13.093H3.72V11.738a2.92 2.92 0 0 1 2.91-2.92h39c.295 0 .6.053.938.175a.745.745 0 0 0 .939-.461.745.745 0 0 0-.46-.938 4.4 4.4 0 0 0-1.417-.252h-39a4.4 4.4 0 0 0-4.388 4.396v28.966A4.4 4.4 0 0 0 6.63 45.1h13.649l-1.13 2.693h-3.24a2.425 2.425 0 0 0 0 4.848h20.46a2.425 2.425 0 0 0 0-4.848h-3.241l-1.13-2.693h13.64c2.416 0 4.388-1.964 4.388-4.379zm-12.71 25.778a.95.95 0 0 1-.947.947h-20.46a.95.95 0 0 1-.948-.947.95.95 0 0 1 .947-.947h20.46a.95.95 0 0 1 .948.947m-5.795-2.424H20.748l1.13-2.694h8.513zm17.028-7.072a2.91 2.91 0 0 1-2.91 2.902H6.629a2.92 2.92 0 0 1-2.91-2.92v-1.685h44.83z"/></svg>