<svg xmlns="http://www.w3.org/2000/svg" width="60" height="60" fill="none"><path fill="#282928" d="M22.733 51.187a.676.676 0 0 1-.587-.987l2.334-4.466a.653.653 0 0 1 .893-.28c.32.173.454.573.28.907l-2.32 4.466a.69.69 0 0 1-.6.36m14.533 0a.67.67 0 0 1-.587-.36l-2.333-4.467a.676.676 0 0 1 .28-.907.676.676 0 0 1 .907.28l2.333 4.467a.676.676 0 0 1-.28.907.8.8 0 0 1-.32.08"/><path fill="#282928" d="M44.763 55.16h-29.52c-.2 0-.4-.093-.52-.253a.68.68 0 0 1-.12-.573 5.91 5.91 0 0 1 5.746-4.467h19.307c2.72 0 5.08 1.84 5.747 4.467.053.2 0 .413-.12.573a.66.66 0 0 1-.52.254Zm-28.574-1.333h27.627a4.59 4.59 0 0 0-4.16-2.64H20.349a4.59 4.59 0 0 0-4.16 2.64m41.292-7.107H2.521a1.86 1.86 0 0 1-1.853-1.853V6.707a1.85 1.85 0 0 1 1.853-1.853h54.96a1.85 1.85 0 0 1 1.854 1.853v38.16a1.86 1.86 0 0 1-1.854 1.853M2.521 6.174a.52.52 0 0 0-.52.52v38.16c0 .293.24.52.52.52h54.96a.52.52 0 0 0 .52-.52V6.706a.52.52 0 0 0-.52-.52c0-.013-54.96-.013-54.96-.013Z"/><path fill="#282928" d="M54.936 42.988H5.069a.66.66 0 0 1-.667-.667V9.24a.66.66 0 0 1 .667-.667h49.867a.66.66 0 0 1 .666.667v33.08c0 .36-.293.667-.666.667Zm-49.2-1.334h48.533V9.908H5.736z"/><path fill="#282928" d="M37.375 33.852h-15.16c-.6 0-1.12-.387-1.307-.96 0-.013-.013-.027-.013-.04l-4.08-16.013a.27.27 0 0 0-.254-.174h-5.066a.66.66 0 0 1-.667-.666.66.66 0 0 1 .667-.667h5.066c.707 0 1.32.453 1.534 1.12 0 .013.013.027.013.04l4.067 16c.013.013.026.027.04.027h15.16a.66.66 0 0 1 .666.666.67.67 0 0 1-.666.667"/><path fill="#282928" d="M37.28 30.826H20.893a.66.66 0 0 1-.666-.666.66.66 0 0 1 .666-.667H37.28c.107 0 .213-.067.24-.173l3.76-10.614h-6.92a.66.66 0 0 1-.667-.666.66.66 0 0 1 .667-.667h7.533c.294 0 .574.147.747.387s.213.546.12.826L38.8 29.76c-.24.64-.84 1.066-1.52 1.066M25.64 18.72h-7.747a.66.66 0 0 1-.666-.667.66.66 0 0 1 .666-.666h7.747a.66.66 0 0 1 .667.666.66.66 0 0 1-.667.667m-.73 18.946a2.583 2.583 0 0 1-2.574-2.573 2.584 2.584 0 0 1 2.573-2.574 2.583 2.583 0 0 1 2.574 2.574 2.583 2.583 0 0 1-2.574 2.573Zm0-3.813c-.68 0-1.24.56-1.24 1.24s.56 1.24 1.24 1.24 1.24-.56 1.24-1.24-.56-1.24-1.24-1.24m8.945 3.813a2.583 2.583 0 0 1-2.574-2.573 2.584 2.584 0 0 1 2.574-2.574 2.583 2.583 0 0 1 2.573 2.574 2.583 2.583 0 0 1-2.573 2.573m0-3.813c-.68 0-1.24.56-1.24 1.24s.56 1.24 1.24 1.24 1.24-.56 1.24-1.24-.56-1.24-1.24-1.24"/><path fill="#282928" d="M30 24.16a5.144 5.144 0 0 1-5.133-5.134A5.144 5.144 0 0 1 30 13.893a5.144 5.144 0 0 1 5.134 5.133A5.144 5.144 0 0 1 30 24.159Zm0-8.934a3.807 3.807 0 0 0-3.8 3.8c0 2.093 1.707 3.8 3.8 3.8s3.8-1.707 3.8-3.8-1.706-3.8-3.8-3.8"/><path fill="#282928" d="M29.082 21.12a.63.63 0 0 1-.467-.2l-1.027-1.027a.685.685 0 0 1 0-.947.685.685 0 0 1 .947 0l.547.547 2.386-2.387a.685.685 0 0 1 .947 0 .66.66 0 0 1 0 .947l-2.853 2.88a.72.72 0 0 1-.48.186Z"/></svg>