<svg xmlns="http://www.w3.org/2000/svg" width="60" height="60" fill="none"><path fill="#282928" d="M26.754 43.524a2.217 2.217 0 0 1-2.217-2.215 2.217 2.217 0 0 1 4.433 0 2.217 2.217 0 0 1-2.216 2.215m0-2.565a.35.35 0 0 0-.351.35c0 .386.701.386.701 0a.35.35 0 0 0-.35-.35m8.33 2.565a2.217 2.217 0 0 1-2.215-2.215 2.217 2.217 0 0 1 4.43 0 2.217 2.217 0 0 1-2.214 2.215Zm0-2.565a.35.35 0 0 0-.349.35c0 .386.7.386.7 0a.35.35 0 0 0-.35-.35Zm6.978-18.708a2.15 2.15 0 0 0-1.721-.848H19.147l-.552-2.065a2.4 2.4 0 0 0-2.318-1.78h-1.39a.932.932 0 1 0 0 1.865h1.39c.242 0 .453.164.516.397l4.455 16.657a2.8 2.8 0 0 0 2.7 2.074h14.954a.932.932 0 1 0 0-1.866H23.948a.93.93 0 0 1-.898-.688l-.34-1.272h14.04a3.745 3.745 0 0 0 3.61-2.773l2.08-7.818a2.16 2.16 0 0 0-.378-1.883m-1.479 1.137a.3.3 0 0 1 .053.267l-.925 3.477h-3.276l.52-3.864h3.386a.3.3 0 0 1 .242.12m-6.03 3.744h-3.427v-3.864h3.948l-.52 3.864Zm-5.292-3.864v3.864h-3.425l-.523-3.864zm-5.831 0 .523 3.864h-3.27l-1.035-3.864zm.776 5.73.523 3.861h-2.51l-1.036-3.862h3.023Zm1.883 0h3.172v3.861h-2.649l-.523-3.862Zm5.037 3.861v-3.862h3.176l-.52 3.862zm5.624 0h-1.086l.52-3.862h3.031l-.658 2.474a1.87 1.87 0 0 1-1.807 1.388M16.884 7.395a.873.873 0 0 0-.874-.874H6.414a.873.873 0 1 0 0 1.748h9.596c.483 0 .874-.39.874-.874m26.352 0a.933.933 0 1 1-1.866 0 .933.933 0 0 1 1.866 0m2.915-.933a.933.933 0 1 0 0 1.866.933.933 0 0 0 0-1.866m3.848 0a.933.933 0 1 0 0 1.866.933.933 0 0 0 0-1.866m8.232 40.76-2.86-2.411c.001-.058.01-.114.01-.172V8.2a5.1 5.1 0 0 0-5.087-5.088H6.173a5.1 5.1 0 0 0-5.087 5.087V44.64a5.1 5.1 0 0 0 5.087 5.087h39.159v3.494c0 .752.423 1.418 1.105 1.736a1.91 1.91 0 0 0 2.038-.262l1.747-1.452.973 2.09c.3.652.84 1.147 1.514 1.393a2.686 2.686 0 0 0 3.449-1.603 2.66 2.66 0 0 0-.09-2.055l-.97-2.091 2.235-.4a1.9 1.9 0 0 0 1.514-1.393 1.9 1.9 0 0 0-.616-1.96ZM2.947 8.199a3.226 3.226 0 0 1 3.226-3.216h44.121a3.226 3.226 0 0 1 3.226 3.216v1.609H2.947zM45.33 40.465l.002 7.39H6.173a3.226 3.226 0 0 1-3.226-3.216V11.677H53.52v31.574L48.479 39a1.9 1.9 0 0 0-2.042-.272 1.9 1.9 0 0 0-1.108 1.736Zm11.674 8.275-3.427.612a.933.933 0 0 0-.681 1.312l1.483 3.192c.093.197.102.42.027.627a.83.83 0 0 1-.424.464.823.823 0 0 1-1.095-.4l-1.483-3.189a.94.94 0 0 0-.845-.539.93.93 0 0 0-.596.215l-2.764 2.186.078-12.795 9.753 8.222z"/></svg>