<svg xmlns="http://www.w3.org/2000/svg" width="60" height="61" fill="none"><path fill="#282928" fill-rule="evenodd" d="M6.045 12.855h47.882a5.48 5.48 0 0 1 5.484 5.484v18.277a5.48 5.48 0 0 1-5.484 5.484h-17.17l2.356 5.771L28.748 42.1H6.069a5.48 5.48 0 0 1-5.483-5.484V18.34c-.024-3.006 2.429-5.483 5.46-5.483ZM3.94 17.854c.335-.454.837-.693 1.506-.741q1.83-.144 2.08 1.722c.742 4.997 1.555 9.23 2.416 12.697l5.237-9.971q.717-1.363 1.793-1.435c1.052-.072 1.698.598 1.96 2.009.599 3.18 1.364 5.882 2.273 8.178.621-6.074 1.674-10.45 3.156-13.152.359-.67.885-1.005 1.578-1.052.55-.048 1.053.12 1.507.478.454.359.693.813.741 1.363a2.1 2.1 0 0 1-.239 1.148c-.933 1.721-1.698 4.615-2.32 8.632-.597 3.898-.813 6.935-.669 9.11q.072.898-.287 1.579c-.287.526-.717.813-1.267.86-.622.049-1.268-.238-1.89-.884-2.223-2.272-3.993-5.667-5.284-10.187a448 448 0 0 0-3.443 6.887c-1.411 2.702-2.607 4.089-3.611 4.16-.646.049-1.196-.501-1.674-1.65q-1.83-4.698-3.946-18.149c-.095-.621.048-1.171.383-1.602m51.389 3.754c-.861-1.506-2.129-2.415-3.826-2.774a6.3 6.3 0 0 0-1.292-.143c-2.295 0-4.16 1.196-5.619 3.587q-1.865 3.048-1.865 6.743 0 2.762 1.148 4.735c.86 1.506 2.128 2.415 3.826 2.774a6.3 6.3 0 0 0 1.29.143c2.32 0 4.185-1.195 5.62-3.587 1.244-2.056 1.865-4.304 1.865-6.767.024-1.865-.382-3.42-1.147-4.71Zm-3.013 6.624c-.335 1.578-.933 2.75-1.818 3.54-.693.621-1.339.884-1.937.764-.574-.12-1.052-.621-1.41-1.554a6.1 6.1 0 0 1-.43-2.176c0-.598.047-1.195.167-1.745a7.7 7.7 0 0 1 1.267-2.846c.789-1.172 1.626-1.65 2.487-1.483.574.12 1.052.622 1.41 1.555a6.1 6.1 0 0 1 .431 2.176c0 .621-.048 1.22-.167 1.77Zm-11.957-6.624c-.86-1.506-2.152-2.415-3.826-2.774a6.3 6.3 0 0 0-1.29-.143c-2.296 0-4.161 1.196-5.62 3.587q-1.866 3.048-1.865 6.743 0 2.762 1.147 4.735c.861 1.506 2.129 2.415 3.826 2.774a6.3 6.3 0 0 0 1.292.143c2.319 0 4.184-1.195 5.619-3.587 1.243-2.056 1.865-4.304 1.865-6.767 0-1.865-.383-3.42-1.148-4.71Zm-3.036 6.624c-.335 1.578-.933 2.75-1.818 3.54-.693.621-1.339.884-1.937.764-.574-.12-1.052-.621-1.41-1.554a6.1 6.1 0 0 1-.431-2.176c0-.598.048-1.195.167-1.745a7.7 7.7 0 0 1 1.268-2.846c.789-1.172 1.626-1.65 2.487-1.483.574.12 1.052.622 1.41 1.555a6 6 0 0 1 .431 2.176 7 7 0 0 1-.167 1.77Z" clip-rule="evenodd"/></svg>