<svg xmlns="http://www.w3.org/2000/svg" width="60" height="60" fill="none"><path fill="#282928" d="M54.317 30H36.683a.7.7 0 0 0-.483.187.62.62 0 0 0-.2.451v3.724c0 .169.072.331.2.451s.302.187.483.187h17.634a.7.7 0 0 0 .483-.187c.128-.12.2-.282.2-.451v-3.724a.62.62 0 0 0-.2-.451.7.7 0 0 0-.483-.187m-.796 3.723H37.365v-2.446h16.156zM38 43a2 2 0 1 0 0-4 2 2 0 0 0 0 4m0-3a1 1 0 1 1 0 2 1 1 0 0 1 0-2m7 3a2 2 0 1 0 0-4 2 2 0 0 0 0 4m0-3a1 1 0 1 1 0 2 1 1 0 0 1 0-2m7 3a2 2 0 1 0 0-4 2 2 0 0 0 0 4m0-3a1 1 0 1 1 0 2 1 1 0 0 1 0-2m-14 9a2 2 0 1 0 0-4 2 2 0 0 0 0 4m0-3a1 1 0 1 1 0 2 1 1 0 0 1 0-2m7 3a2 2 0 1 0 0-4 2 2 0 0 0 0 4m0-3a1 1 0 1 1 0 2 1 1 0 0 1 0-2m7 3a2 2 0 1 0 0-4 2 2 0 0 0 0 4m0-3a1 1 0 1 1 0 2 1 1 0 0 1 0-2m-14 9a2 2 0 1 0 0-4 2 2 0 0 0 0 4m0-3a1 1 0 1 1 0 2 1 1 0 0 1 0-2m7 3a2 2 0 1 0 0-4 2 2 0 0 0 0 4m0-3a1 1 0 1 1 0 2 1 1 0 0 1 0-2m7 3a2 2 0 1 0 0-4 2 2 0 0 0 0 4m0-3a1 1 0 1 1 0 2 1 1 0 0 1 0-2M26.275 36h-7.55c-.192 0-.377.105-.513.293A1.2 1.2 0 0 0 18 37c0 .265.076.52.212.707.136.188.32.293.513.293h7.55c.192 0 .377-.105.513-.293.136-.187.212-.442.212-.707s-.076-.52-.212-.707c-.136-.188-.32-.293-.513-.293m-10.612 2h.674c.176 0 .345-.105.469-.293A1.3 1.3 0 0 0 17 37a1.3 1.3 0 0 0-.194-.707c-.125-.188-.293-.293-.469-.293h-.674c-.176 0-.344.105-.469.293A1.3 1.3 0 0 0 15 37c0 .265.07.52.194.707.124.188.293.293.469.293m9.665 4h-3.656a.8.8 0 0 0-.475.146.45.45 0 0 0-.197.354c0 .133.07.26.197.354a.8.8 0 0 0 .475.146h3.656c.178 0 .35-.053.475-.146A.45.45 0 0 0 26 42.5c0-.133-.07-.26-.197-.354a.8.8 0 0 0-.475-.146m-6.958 0h-2.74a.72.72 0 0 0-.445.146.46.46 0 0 0-.185.354c0 .133.066.26.185.354a.72.72 0 0 0 .445.146h2.74a.72.72 0 0 0 .445-.146A.46.46 0 0 0 19 42.5a.46.46 0 0 0-.185-.354.72.72 0 0 0-.445-.146M12.5 6a.56.56 0 0 0-.354.122.39.39 0 0 0-.146.294v.168c0 .11.053.216.146.294A.56.56 0 0 0 12.5 7c.133 0 .26-.044.354-.122A.39.39 0 0 0 13 6.584v-.168a.39.39 0 0 0-.146-.294A.56.56 0 0 0 12.5 6m0 3a.45.45 0 0 0-.354.192.77.77 0 0 0-.146.464v8.688c0 .174.053.34.146.464A.45.45 0 0 0 12.5 19a.45.45 0 0 0 .354-.192.77.77 0 0 0 .146-.464V9.656a.77.77 0 0 0-.146-.464A.45.45 0 0 0 12.5 9M27 8a10 10 0 1 0 10 10A10.01 10.01 0 0 0 27 8m8.63 9.504h-7.176l5.115-5.114a8.6 8.6 0 0 1 2.06 5.114M27 9.355a8.6 8.6 0 0 1 5.61 2.076l-5.607 5.607-4.412-6.469A8.6 8.6 0 0 1 27 9.355m0 17.29a8.64 8.64 0 0 1-5.517-15.295l4.92 7.214a.68.68 0 0 0 .56.296h8.639A8.657 8.657 0 0 1 27 26.645"/><path fill="#282928" d="M54.534 26.765H45.34V11.83a1.94 1.94 0 0 0-.539-1.357l-8.556-8.887A1.92 1.92 0 0 0 34.878 1H10.943a1.86 1.86 0 0 0-1.336.575 1.9 1.9 0 0 0-.536 1.367v1.87h-1.82a1.9 1.9 0 0 0-1.369.545 1.89 1.89 0 0 0-.574 1.347v1.113h-1.38a1.87 1.87 0 0 0-1.361.547A1.88 1.88 0 0 0 2 9.713v46.05c.002.52.205 1.016.566 1.384s.85.577 1.363.582h29.435c.325.398.732.718 1.194.938.46.22.965.334 1.474.333h18.502c.92 0 1.8-.37 2.45-1.029A3.53 3.53 0 0 0 58 55.49V30.276c0-.931-.365-1.824-1.015-2.483a3.44 3.44 0 0 0-2.451-1.028m-18.66-23.58 7.196 7.52h-3.732a3.43 3.43 0 0 1-2.45-1.056 3.58 3.58 0 0 1-1.014-2.51zM6.676 6.703a.52.52 0 0 1 .175-.367.55.55 0 0 1 .401-.137h1.82v42.92a1.9 1.9 0 0 0 .538 1.355 1.85 1.85 0 0 0 1.335.554h21.621v2.195H7.252a.6.6 0 0 1-.402-.183.62.62 0 0 1-.174-.411zM3.93 56.343a.57.57 0 0 1-.394-.175.6.6 0 0 1-.166-.405V9.712a.51.51 0 0 1 .35-.48.5.5 0 0 1 .21-.029h1.379V52.63c.005.522.211 1.02.574 1.39.364.37.855.582 1.37.59h25.314v.88q0 .433.104.854zm28.637-26.067v6.166a.69.69 0 0 0-.575-.319h-2.56a.68.68 0 0 0-.484.204.7.7 0 0 0 0 .98.68.68 0 0 0 .483.203h2.561a.68.68 0 0 0 .575-.318v4.824h-4.765a.68.68 0 0 0-.484.203.7.7 0 0 0 0 .98.68.68 0 0 0 .484.203h4.765v6.24H10.945a.48.48 0 0 1-.366-.147.5.5 0 0 1-.14-.377V2.941a.53.53 0 0 1 .304-.51.5.5 0 0 1 .201-.045h23.561V7.14a4.98 4.98 0 0 0 1.41 3.485 4.85 4.85 0 0 0 3.422 1.468h4.634v14.673h-7.939c-.919 0-1.8.37-2.45 1.028a3.54 3.54 0 0 0-1.016 2.483m24.18 25.213a2.15 2.15 0 0 1-.624 1.503 2.1 2.1 0 0 1-1.488.622H36.088c-1.157 0-2.153-.954-2.153-2.125V37.51h22.81zm0-19.365H33.934V30.28c0-1.172.996-2.128 2.152-2.128h18.547a2.1 2.1 0 0 1 1.488.624c.396.398.62.939.623 1.504z"/></svg>