<svg xmlns="http://www.w3.org/2000/svg" width="60" height="60" fill="none"><g clip-path="url(#a)"><path fill="#282928" d="M.946 29.163c.034-1.16.14-2.334.314-3.484a.937.937 0 1 1 1.854.28 27 27 0 0 0-.294 3.26.937.937 0 0 1-.937.91h-.028a.94.94 0 0 1-.91-.966M6.64 15.265a.94.94 0 0 0 .78-.415 27 27 0 0 1 2.57-3.257.937.937 0 0 0-1.379-1.27 29 29 0 0 0-2.748 3.483.938.938 0 0 0 .777 1.46M2.99 33.14a.936.936 0 1 0-1.863.217c.143 1.226.368 2.455.667 3.655a.937.937 0 1 0 1.819-.455 27 27 0 0 1-.624-3.417m1.78-15.607a.936.936 0 0 0-1.24.469 29 29 0 0 0-1.314 3.482.938.938 0 0 0 1.793.549 27 27 0 0 1 1.23-3.26.94.94 0 0 0-.47-1.24m52.394 19.81a.94.94 0 0 0-1.17.623 27 27 0 0 1-1.23 3.259.936.936 0 0 0 .854 1.323.94.94 0 0 0 .856-.552 29 29 0 0 0 1.314-3.483.94.94 0 0 0-.624-1.17m-.151-10.484a.938.938 0 0 0 1.863-.217 29 29 0 0 0-.667-3.655.937.937 0 0 0-1.818.455 27 27 0 0 1 .622 3.417m-3.129 18.033a.94.94 0 0 0-1.3.256 27 27 0 0 1-2.57 3.258.937.937 0 0 0 1.377 1.27 29 29 0 0 0 2.749-3.485.935.935 0 0 0-.256-1.3m4.263-15.02a.935.935 0 0 0-.964.909 27 27 0 0 1-.294 3.259.937.937 0 1 0 1.854.281c.174-1.15.28-2.324.314-3.484a.94.94 0 0 0-.91-.965m-12.643 22.46a27.15 27.15 0 0 1-22.54 3.929 27.3 27.3 0 0 1-9.239-4.479l.97.175a.938.938 0 1 0 .332-1.846l-4.386-.786a.935.935 0 0 0-1.048 1.24l1.512 4.192a.937.937 0 1 0 1.763-.636l-.315-.874a29.2 29.2 0 0 0 9.926 4.826 29.033 29.033 0 0 0 24.093-4.199.937.937 0 0 0 .235-1.304.934.934 0 0 0-1.303-.238m4.74-41.974a.94.94 0 0 0 .165-.923l-1.511-4.193a.937.937 0 1 0-1.764.637l.315.874a29.2 29.2 0 0 0-9.925-4.826 29.02 29.02 0 0 0-24.094 4.2.937.937 0 1 0 1.069 1.54 27.15 27.15 0 0 1 22.54-3.93 27.3 27.3 0 0 1 9.238 4.48l-.97-.175a.938.938 0 1 0-.332 1.846l4.387.786q.082.015.165.015a.93.93 0 0 0 .717-.332m-32.49 33.438v2.341h25.053V45.02h-22.03a1.627 1.627 0 0 1-1.625-1.626v-.433a.937.937 0 1 1 1.875 0v.184h23.866v-25.81h-3.976a.937.937 0 0 1-.937-.937V12H21.027v7.271a.937.937 0 1 1-1.875 0v-4.92h-1.398v4.087a.937.937 0 1 1-1.875 0V13.77c0-.714.581-1.295 1.297-1.295h1.976v-.725c0-.897.729-1.625 1.625-1.625h20.14a1 1 0 0 1 .102.005q.045.005.092.014l.004.002q.046.008.088.023l.01.004q.039.012.078.029l.02.01.063.03.027.017q.027.015.052.033l.03.022.042.036q.016.012.03.026l.038.038.013.013 4.914 5.335.016.02q.015.016.029.034l.025.035q.014.018.026.04l.021.034.025.044.016.034.021.046.013.034q.01.025.016.05l.01.037.012.05.007.046.006.041q.004.045.004.092v26.996c0 .897-.729 1.626-1.625 1.626h-.46v1.695c0 .714-.582 1.295-1.298 1.295H17.176a1.3 1.3 0 0 1-1.297-1.295v-2.921a.937.937 0 1 1 1.875 0m24.1-28.334h1.84l-1.84-1.995zm-5.997 4.173H31.09a.937.937 0 1 0 0 1.875h4.767a.937.937 0 1 0 0-1.875m-6.845.938a.937.937 0 0 0-.937-.938h-4.17a.937.937 0 1 0 0 1.875h4.17c.518 0 .937-.42.937-.937m-2.762 5.486h7.383a.937.937 0 1 0 0-1.875H26.25a.937.937 0 1 0 0 1.875m16.02-.937a.937.937 0 0 0-.938-.938h-4.7a.937.937 0 1 0 0 1.875h4.7c.517 0 .938-.42.938-.937m-14.636 3.612a.937.937 0 1 0 0 1.875h13.235a.937.937 0 1 0 0-1.875zm-.424 6.424h13.505a.937.937 0 1 0 0-1.875H27.21a.937.937 0 1 0 0 1.875m-3.07 3.612c0 .518.419.937.937.937h15.02a.937.937 0 1 0 0-1.875h-15.02a.94.94 0 0 0-.937.938m-7.918 2.466c-5.579 0-10.119-4.538-10.119-10.119 0-5.579 4.539-10.119 10.12-10.119 5.579 0 10.118 4.539 10.118 10.12s-4.54 10.118-10.119 10.118m0-1.875c4.546 0 8.244-3.698 8.244-8.244s-3.698-8.244-8.244-8.244-8.244 3.699-8.244 8.244c0 4.546 3.699 8.244 8.244 8.244m4.131-11.601a.94.94 0 0 0-1.323.09l-3.963 4.546-1.698-1.698a.938.938 0 0 0-1.326 1.325l2.407 2.407a.94.94 0 0 0 .664.274h.031a.94.94 0 0 0 .675-.32l4.623-5.303a.935.935 0 0 0-.09-1.321"/></g><defs><clipPath id="a"><path fill="#fff" d="M0 0h60v60H0z"/></clipPath></defs></svg>