<svg xmlns="http://www.w3.org/2000/svg" width="60" height="60" fill="none"><path fill="#282928" d="M2.582 33.299h2.013q.316 1.025.825 1.98l-1.414 1.405a1.57 1.57 0 0 0-.004 2.236l2.452 2.435a1.583 1.583 0 0 0 2.236.003l1.426-1.413q.962.506 2.004.822v1.994c0 .869.71 1.576 1.582 1.576h3.468a1.58 1.58 0 0 0 1.582-1.576v-1.994q1.044-.316 2.004-.822l1.424 1.41a1.585 1.585 0 0 0 2.236.002l2.45-2.433a1.57 1.57 0 0 0 .005-2.235l-1.42-1.41q.511-.956.827-1.98h2.012a1.58 1.58 0 0 0 1.582-1.576v-3.45c0-.87-.71-1.577-1.582-1.577h-2.012a11 11 0 0 0-.826-1.98l1.414-1.405c.64-.626.614-1.64.005-2.236l-2.453-2.435a1.585 1.585 0 0 0-2.236-.003l-1.426 1.413a11.408 11.408 0 0 0-2.004-.823v-1.993a1.58 1.58 0 0 0-1.581-1.576h-3.469a1.58 1.58 0 0 0-1.582 1.576v1.993q-1.044.316-2.004.823l-1.423-1.41a1.584 1.584 0 0 0-2.236-.003l-2.45 2.433a1.57 1.57 0 0 0-.005 2.236l1.418 1.41q-.51.954-.825 1.98H2.582A1.58 1.58 0 0 0 1 28.272v3.45c0 .87.71 1.577 1.582 1.577m.176-4.845h2.507a.88.88 0 0 0 .855-.675 9.4 9.4 0 0 1 1.147-2.748.88.88 0 0 0-.129-1.085L5.372 22.19l2.202-2.186 1.777 1.76a.88.88 0 0 0 1.075.127 9.6 9.6 0 0 1 2.776-1.137.88.88 0 0 0 .676-.855v-2.484h3.116V19.9c0 .407.28.76.676.855a9.6 9.6 0 0 1 2.776 1.137.88.88 0 0 0 1.075-.126l1.778-1.761 2.2 2.186-1.765 1.755a.88.88 0 0 0-.129 1.085 9.38 9.38 0 0 1 1.147 2.748.88.88 0 0 0 .855.675h2.507v3.087h-2.507a.88.88 0 0 0-.855.675 9.4 9.4 0 0 1-1.146 2.748.88.88 0 0 0 .128 1.085l1.766 1.755-2.201 2.186-1.778-1.761a.88.88 0 0 0-1.075-.127 9.6 9.6 0 0 1-2.776 1.138.88.88 0 0 0-.676.855v2.484h-3.116v-2.484a.88.88 0 0 0-.676-.855 9.6 9.6 0 0 1-2.776-1.138.88.88 0 0 0-1.075.127L7.574 39.99l-2.202-2.186 1.766-1.755a.88.88 0 0 0 .129-1.085 9.4 9.4 0 0 1-1.147-2.749.88.88 0 0 0-.855-.674H2.758z"/><path fill="#282928" d="M15.437 36.372c3.534 0 6.41-2.86 6.41-6.375 0-3.511-2.876-6.368-6.41-6.368s-6.41 2.857-6.41 6.368c0 3.515 2.876 6.375 6.41 6.375m0-10.985c2.565 0 4.652 2.068 4.652 4.61 0 2.546-2.087 4.617-4.652 4.617s-4.652-2.07-4.652-4.616c0-2.543 2.087-4.611 4.652-4.611m25.63-7.047c.412.24.92.236 1.333.002l3.514-2.045a1.319 1.319 0 0 0 .001-2.28l-3.512-2.044a1.319 1.319 0 0 0-1.992 1.133v1.171h-2.378c-2.978 0-5.4 2.408-5.4 5.368v20.71c0 2.959 2.422 5.367 5.4 5.367h2.378v1.171a1.319 1.319 0 0 0 1.989 1.135l3.514-2.044c.406-.236.658-.673.658-1.141 0-.469-.252-.906-.658-1.141l-3.522-2.049a1.33 1.33 0 0 0-1.325.006c-.41.239-.656.665-.656 1.14v1.165h-2.378c-2.008 0-3.642-1.62-3.642-3.61v-9.476h8.364v1.17c0 .474.245.9.655 1.138.408.238.916.239 1.334.001l3.516-2.05c.404-.236.655-.671.655-1.137a1.32 1.32 0 0 0-.655-1.137l-3.524-2.056a1.33 1.33 0 0 0-1.326.006c-.41.239-.655.664-.655 1.139v1.169H34.39v-9.476c0-1.99 1.634-3.61 3.642-3.61h2.378V17.2c0 .475.245.9.656 1.14m1.102-4.47 2.211 1.287-2.211 1.286zm0 29.687 2.211 1.286-2.211 1.286zm2.343-14.846L46.72 30l-2.208 1.288zm7.67 20.556c2.455 0 4.453-1.985 4.453-4.424s-1.998-4.423-4.453-4.423c-2.452 0-4.447 1.984-4.447 4.423s1.995 4.423 4.447 4.423m0-7.09c1.486 0 2.695 1.196 2.695 2.666s-1.209 2.666-2.695 2.666c-1.483 0-2.689-1.196-2.689-2.666s1.206-2.665 2.689-2.665m0-22.598c2.455 0 4.453-1.984 4.453-4.423s-1.998-4.424-4.453-4.424c-2.452 0-4.447 1.985-4.447 4.424s1.995 4.423 4.447 4.423m0-7.089c1.486 0 2.695 1.196 2.695 2.666s-1.209 2.665-2.695 2.665c-1.483 0-2.689-1.195-2.689-2.665s1.206-2.666 2.689-2.666m-2.083 17.506c0 2.442 1.997 4.43 4.452 4.43s4.453-1.988 4.453-4.43c0-2.44-1.997-4.424-4.453-4.424-2.455 0-4.452 1.985-4.452 4.424m7.148 0c0 1.473-1.21 2.671-2.696 2.671s-2.695-1.198-2.695-2.671c0-1.47 1.21-2.666 2.695-2.666 1.487 0 2.696 1.196 2.696 2.666"/></svg>