<svg xmlns="http://www.w3.org/2000/svg" width="60" height="60" fill="none"><path fill="#282928" d="M55.306 39.95a4.06 4.06 0 0 0-2.486-1.902 4.06 4.06 0 0 0-3.105.405l-9.384 5.417a4.654 4.654 0 0 0-5.847-4.7l-3.85 1.032c-1.474.395-2.833.216-4.154-.547l-5.133-2.963c-2.046-1.182-4.103-.41-6.483.483-1.358.51-2.875 1.079-4.666 1.419l-.107-.399a1.584 1.584 0 0 0-1.938-1.118l-2.831.758a1.57 1.57 0 0 0-.96.738 1.57 1.57 0 0 0-.16 1.2L9.278 58.71a1.585 1.585 0 0 0 1.938 1.12l2.831-.76a1.584 1.584 0 0 0 1.119-1.937l-.009-.034c4.182-.933 6.795-.188 10.326.82.637.18 1.295.368 1.998.557a7 7 0 0 0 1.789.243c1.14 0 2.243-.305 3.295-.913l21.244-12.265a4.06 4.06 0 0 0 1.903-2.486 4.06 4.06 0 0 0-.405-3.104M10.93 58.087 5.946 39.488l2.492-.668 4.984 18.598zM54.013 42.6a2.32 2.32 0 0 1-1.084 1.418L31.685 56.284c-1.193.689-2.42.85-3.75.494-.69-.185-1.341-.37-1.97-.55-3.667-1.046-6.606-1.883-11.264-.828l-4.047-15.105c1.874-.367 3.431-.95 4.828-1.474 2.404-.903 3.718-1.34 4.987-.607l5.132 2.963c1.722.994 3.568 1.237 5.488.723l3.85-1.032a2.895 2.895 0 0 1 3.541 2.044 2.89 2.89 0 0 1-.361 2.31 2.877 2.877 0 0 1-1.683 1.23l-5.63 1.51c-.962.258-1.902.266-2.794.026a.879.879 0 1 0-.457 1.697 6.8 6.8 0 0 0 1.778.235q.954 0 1.928-.26l5.63-1.509a4.62 4.62 0 0 0 2.53-1.725l11.173-6.451a2.32 2.32 0 0 1 1.771-.23 2.32 2.32 0 0 1 1.648 2.855M12.983 2.243a.88.88 0 0 1 1.2-.321l3.114 1.798a.879.879 0 0 1-.878 1.522l-3.115-1.798a.88.88 0 0 1-.321-1.2M10.11 12.961a.88.88 0 0 1 .879-.88h3.596a.879.879 0 1 1 0 1.759H10.99a.88.88 0 0 1-.88-.88M17.619 21a.88.88 0 0 1-.322 1.2L14.183 24a.875.875 0 0 1-1.2-.322.88.88 0 0 1 .321-1.2l3.115-1.799a.88.88 0 0 1 1.2.322m27.853-16.08a.88.88 0 0 1 .322-1.201l3.114-1.798a.88.88 0 0 1 .879 1.522l-3.114 1.798a.879.879 0 0 1-1.2-.322m3.033 7.16h3.596a.879.879 0 1 1 0 1.759h-3.596a.879.879 0 0 1 0-1.758m-3.033 8.92a.88.88 0 0 1 1.2-.322l3.115 1.799a.879.879 0 1 1-.88 1.522l-3.114-1.798a.88.88 0 0 1-.322-1.2m-21.375 3.99a2.634 2.634 0 0 0-.392 3.872 2.63 2.63 0 0 0-.673 1.757c0 1.45 1.177 2.63 2.626 2.635a5.83 5.83 0 0 0 1.796 3.01 6.07 6.07 0 0 0 4.056 1.542c2.846 0 5.239-1.91 5.852-4.552a2.64 2.64 0 0 0 2.623-2.635c0-.675-.255-1.29-.673-1.757a2.632 2.632 0 0 0-.334-3.827c.274-.746.63-1.408.995-1.833 2.889-3.37 4.416-7.103 4.416-10.797 0-3.264-1.34-6.338-3.772-8.655C38.202 1.45 34.984.16 31.557.117h-.022c-3.428.042-6.646 1.333-9.061 3.634-2.432 2.317-3.772 5.39-3.772 8.655 0 3.694 1.527 7.427 4.416 10.797.358.417.707 1.06.979 1.788m6.76-.52-2.47-10.477 2.536 2.543a.88.88 0 0 0 1.245 0l2.516-2.522-2.518 10.455zm6.492 1.757a.88.88 0 0 1 0 1.756H25.668a.88.88 0 0 1 0-1.756zm-5.839 9.82c-1.835 0-3.44-1.163-4.018-2.784l8.03.032c-.578 1.621-2.16 2.753-4.012 2.753m5.84-4.55H25.667a.879.879 0 0 1 0-1.756h11.681a.88.88 0 0 1 0 1.756M31.545 1.875c6.113.08 11.085 4.803 11.085 10.53 0 3.269-1.38 6.607-3.992 9.654-.508.592-.977 1.449-1.326 2.411h-3.339l3.151-13.085a.879.879 0 0 0-1.477-.827l-4.102 4.114-4.103-4.114a.879.879 0 0 0-1.478.823l3.085 13.09h-3.272c-.35-.963-.817-1.82-1.325-2.412-2.612-3.047-3.993-6.385-3.993-9.653 0-5.728 4.972-10.45 11.086-10.53"/></svg>