<svg xmlns="http://www.w3.org/2000/svg" width="60" height="60" fill="none"><path fill="#282928" fill-rule="evenodd" d="M33.192 58h-6.383a2.65 2.65 0 0 1-2.648-2.648v-6.197a20 20 0 0 1-3.576-1.483l-4.383 4.384a2.63 2.63 0 0 1-1.872.773 2.63 2.63 0 0 1-1.872-.773l-4.514-4.514a2.63 2.63 0 0 1-.773-1.872c0-.709.275-1.373.773-1.872l4.383-4.382a20 20 0 0 1-1.483-3.577H4.648A2.65 2.65 0 0 1 2 33.192v-6.384a2.65 2.65 0 0 1 2.648-2.647h6.196a20 20 0 0 1 1.483-3.576l-4.383-4.383a2.65 2.65 0 0 1 0-3.744l4.514-4.514a2.63 2.63 0 0 1 1.872-.773 2.63 2.63 0 0 1 1.872.773l4.383 4.384a20 20 0 0 1 3.576-1.483V4.647A2.65 2.65 0 0 1 26.809 2h6.383a2.65 2.65 0 0 1 2.647 2.647v6.198a19.92 19.92 0 0 1 3.576 1.483l4.383-4.384a2.63 2.63 0 0 1 1.872-.773c.709 0 1.373.274 1.872.773l4.514 4.514c.499.499.773 1.164.773 1.872a2.63 2.63 0 0 1-.773 1.872l-4.383 4.383a20 20 0 0 1 1.483 3.576h6.197A2.65 2.65 0 0 1 58 26.808v6.384a2.65 2.65 0 0 1-2.647 2.647h-6.197a20 20 0 0 1-1.483 3.576l4.383 4.383c.499.499.773 1.163.773 1.872a2.63 2.63 0 0 1-.773 1.872l-4.514 4.514a2.63 2.63 0 0 1-1.872.773 2.63 2.63 0 0 1-1.872-.773l-4.383-4.383a20 20 0 0 1-3.576 1.483v6.197A2.65 2.65 0 0 1 33.192 58M20.433 45.712c.15 0 .301.039.438.117a18.14 18.14 0 0 0 4.391 1.821.875.875 0 0 1 .649.846v6.856c0 .495.402.898.897.898h6.384a.9.9 0 0 0 .897-.898v-6.855c0-.397.266-.743.649-.846a18.2 18.2 0 0 0 4.392-1.821.875.875 0 0 1 1.056.139l4.85 4.85a.9.9 0 0 0 .634.26.9.9 0 0 0 .635-.26l4.514-4.515a.9.9 0 0 0 .26-.634.9.9 0 0 0-.26-.635l-4.85-4.85a.875.875 0 0 1-.14-1.056 18.2 18.2 0 0 0 1.821-4.391.875.875 0 0 1 .846-.649h6.856a.9.9 0 0 0 .898-.898v-6.383a.9.9 0 0 0-.898-.897h-6.855a.875.875 0 0 1-.846-.649 18.2 18.2 0 0 0-1.82-4.392.874.874 0 0 1 .138-1.056l4.85-4.85a.9.9 0 0 0 .26-.634.9.9 0 0 0-.26-.635l-4.515-4.514a.9.9 0 0 0-.634-.26.9.9 0 0 0-.635.26l-4.85 4.85a.875.875 0 0 1-1.056.14 18.2 18.2 0 0 0-4.391-1.821.875.875 0 0 1-.65-.846l.001-6.857a.9.9 0 0 0-.898-.897h-6.383a.9.9 0 0 0-.897.897v6.857a.875.875 0 0 1-.649.846 18.2 18.2 0 0 0-4.391 1.82.875.875 0 0 1-1.057-.138l-4.85-4.85a.9.9 0 0 0-.634-.261.9.9 0 0 0-.635.26l-4.514 4.515a.898.898 0 0 0 0 1.269l4.85 4.849c.28.28.338.714.14 1.057a18.2 18.2 0 0 0-1.822 4.391.875.875 0 0 1-.845.649H4.648a.9.9 0 0 0-.898.897v6.383a.9.9 0 0 0 .898.898h6.856c.396 0 .742.266.845.649a18.2 18.2 0 0 0 1.82 4.392.875.875 0 0 1-.138 1.056l-4.85 4.85a.9.9 0 0 0-.26.634.9.9 0 0 0 .26.634l4.515 4.514a.9.9 0 0 0 .634.261.9.9 0 0 0 .635-.26l4.85-4.85a.88.88 0 0 1 .618-.257" clip-rule="evenodd"/><path fill="#282928" fill-rule="evenodd" d="M29.998 44.972c-8.255 0-14.97-6.716-14.97-14.97s6.715-14.97 14.97-14.97c8.254 0 14.97 6.715 14.97 14.97 0 8.254-6.716 14.97-14.97 14.97m0-28.19c-7.29 0-13.22 5.93-13.22 13.22s5.93 13.22 13.22 13.22 13.22-5.93 13.22-13.22-5.93-13.22-13.22-13.22m1.157-8.717h-2.307a.875.875 0 0 1 0-1.75h2.307a.875.875 0 0 1 0 1.75m15.789 7.495a.87.87 0 0 1-.619-.257l-1.631-1.632a.875.875 0 1 1 1.237-1.237l1.632 1.631a.875.875 0 0 1-.62 1.494m5.87 16.469a.875.875 0 0 1-.876-.875v-2.307a.875.875 0 0 1 1.75 0v2.307a.875.875 0 0 1-.874.875M45.312 47.82a.875.875 0 0 1-.619-1.494l1.632-1.63a.875.875 0 0 1 1.237 1.237l-1.63 1.631a.87.87 0 0 1-.62.257m-14.157 5.865h-2.307a.875.875 0 0 1 0-1.75h2.307a.875.875 0 0 1 0 1.75M14.686 47.82a.87.87 0 0 1-.619-.256l-1.631-1.63a.875.875 0 1 1 1.237-1.238l1.632 1.631a.875.875 0 0 1-.62 1.494M7.188 32.028a.875.875 0 0 1-.875-.875v-2.307a.875.875 0 0 1 1.75 0v2.307a.875.875 0 0 1-.875.875m5.867-16.468a.875.875 0 0 1-.619-1.494l1.631-1.632a.875.875 0 1 1 1.238 1.238l-1.632 1.63a.87.87 0 0 1-.618.257" clip-rule="evenodd"/><path fill="#282928" fill-rule="evenodd" d="M27.226 35.668a.875.875 0 0 1-.757-1.313l5.533-9.583a.875.875 0 1 1 1.516.875l-5.533 9.584a.88.88 0 0 1-.759.437m-2.684-2.106a.87.87 0 0 1-.589-.229l-2.948-2.685a.875.875 0 0 1 0-1.293l2.948-2.686a.875.875 0 1 1 1.178 1.294l-2.238 2.038 2.238 2.038a.875.875 0 0 1-.589 1.523m10.908-.001a.875.875 0 0 1-.59-1.522l2.238-2.038-2.238-2.038a.875.875 0 1 1 1.178-1.294l2.949 2.685a.875.875 0 0 1 0 1.294l-2.949 2.685a.87.87 0 0 1-.589.228" clip-rule="evenodd"/></svg>