<svg xmlns="http://www.w3.org/2000/svg" width="35" height="33" fill="none"><g clip-path="url(#a)"><mask id="b" width="35" height="33" x="0" y="0" maskUnits="userSpaceOnUse" style="mask-type:luminance"><path fill="#fff" d="M0 0h35v32.387H0z"/></mask><g fill="#282928" mask="url(#b)"><path d="M14.66 26.393a3 3 0 1 0 0 6 3 3 0 0 0 0-6m0 4.32a1.325 1.325 0 1 1 0-2.651 1.325 1.325 0 0 1 0 2.65m10.856-4.319a3 3 0 1 0-.001 6 3 3 0 0 0 .001-6m0 4.32a1.325 1.325 0 1 1-.001-2.651 1.325 1.325 0 0 1 .001 2.65m.598-20.672h-11.99a.837.837 0 0 0 0 1.672h11.99a.838.838 0 0 0 0-1.673m-.66 4.469H14.769a.837.837 0 0 0 0 1.673h10.685a.837.837 0 0 0 0-1.673"/><path d="M34.614 6.244a1.7 1.7 0 0 0-1.332-.638H6.514l-.541-2.645a1.73 1.73 0 0 0-1-1.24L1.2.071a.856.856 0 0 0-1.13.45.87.87 0 0 0 .446 1.14l3.772 1.65 4.16 20.345a1.73 1.73 0 0 0 1.683 1.383h20.588a.866.866 0 0 0 0-1.732H10.13l-.506-2.475h21.253a1.73 1.73 0 0 0 1.683-1.383l2.404-11.764a1.74 1.74 0 0 0-.351-1.44M30.878 19.1H9.27L6.87 7.34h26.41z"/></g></g><defs><clipPath id="a"><path fill="#fff" d="M35 0H0v32.387h35z"/></clipPath></defs></svg>