<svg xmlns="http://www.w3.org/2000/svg" width="60" height="60" fill="none"><g fill="#282928" clip-path="url(#a)"><path d="M23.409 25.941a.879.879 0 1 0 0-1.757h-4.21a.88.88 0 0 0-.879.878v9.99c0 .486.394.88.88.88h4.209a.879.879 0 1 0 0-1.758h-3.33v-3.238h3.02a.879.879 0 1 0 0-1.757h-3.02V25.94zm9.843 1.697c0-1.93-1.637-3.5-3.648-3.5h-2.682a.88.88 0 0 0-.879.88V35.1a.879.879 0 1 0 1.758 0v-3.865l3.912 4.446a.877.877 0 0 0 1.24.079.879.879 0 0 0 .08-1.24l-3-3.408c1.81-.205 3.219-1.684 3.219-3.474m-3.648 1.741c-.409 0-1.179.004-1.787.007-.003-.599-.009-2.866-.01-3.49h1.797c1.024 0 1.89.798 1.89 1.742s-.866 1.741-1.89 1.741m5.521-4.361V35.1a.879.879 0 1 0 1.758 0v-3.506c.643-.003 1.488-.007 1.928-.007 2.084 0 3.78-1.67 3.78-3.724s-1.696-3.724-3.78-3.724h-2.807a.88.88 0 0 0-.879.879m3.686.878c1.096 0 2.022.901 2.022 1.967s-.926 1.966-2.022 1.966c-.438 0-1.271.004-1.914.008l-.012-3.94z"/><path d="m47.466 25.906 3.271-2.506a2.34 2.34 0 0 0 .717-2.8 23.478 23.478 0 0 0-1.167-2.312 23 23 0 0 0-1.418-2.166 2.34 2.34 0 0 0-2.784-.78l-3.81 1.582a.55.55 0 0 1-.577-.079 17.7 17.7 0 0 0-2.526-1.872.879.879 0 1 0-.917 1.5 16 16 0 0 1 2.274 1.686c.65.577 1.6.73 2.42.389l3.81-1.582a.584.584 0 0 1 .694.198 21.7 21.7 0 0 1 2.391 4.14c.11.25.037.538-.176.7l-3.271 2.506a2.32 2.32 0 0 0-.873 2.288 15.9 15.9 0 0 1 0 6.405 2.32 2.32 0 0 0 .873 2.288l3.271 2.505a.584.584 0 0 1 .176.7 22 22 0 0 1-1.08 2.138c-.396.685-.837 1.36-1.31 2.004a.584.584 0 0 1-.695.197l-3.81-1.582a2.32 2.32 0 0 0-2.42.39 15.7 15.7 0 0 1-5.538 3.2c-.825.273-1.432 1.02-1.547 1.904l-.535 4.084a.584.584 0 0 1-.518.502 21.352 21.352 0 0 1-4.782 0 .584.584 0 0 1-.518-.502l-.534-4.084a2.32 2.32 0 0 0-1.547-1.904 15.7 15.7 0 0 1-5.54-3.2 2.32 2.32 0 0 0-2.418-.39l-3.81 1.582a.584.584 0 0 1-.695-.197 22 22 0 0 1-1.31-2.004 22 22 0 0 1-1.08-2.137.584.584 0 0 1 .175-.7l3.271-2.506a2.32 2.32 0 0 0 .873-2.288 15.9 15.9 0 0 1 0-6.405 2.32 2.32 0 0 0-.873-2.288l-3.27-2.505a.584.584 0 0 1-.176-.7 21.7 21.7 0 0 1 2.391-4.141.582.582 0 0 1 .694-.198l3.81 1.582c.82.34 1.77.188 2.42-.39a15.7 15.7 0 0 1 5.538-3.2c.825-.273 1.432-1.02 1.547-1.904l.535-4.084a.584.584 0 0 1 .518-.502 21.644 21.644 0 0 1 4.781 0c.271.03.484.236.52.502l.533 4.084c.116.884.723 1.631 1.547 1.905a.879.879 0 1 0 .553-1.669.56.56 0 0 1-.357-.464l-.534-4.084a2.34 2.34 0 0 0-2.067-2.022c-.86-.095-1.73-.144-2.585-.144-.857 0-1.726.049-2.586.144a2.34 2.34 0 0 0-2.067 2.022l-.534 4.084a.56.56 0 0 1-.357.464 17.5 17.5 0 0 0-6.154 3.555.55.55 0 0 1-.577.08l-3.81-1.583a2.34 2.34 0 0 0-2.784.78c-.513.696-.99 1.425-1.418 2.166s-.82 1.518-1.167 2.311a2.34 2.34 0 0 0 .717 2.801l3.27 2.506a.55.55 0 0 1 .22.538 17.7 17.7 0 0 0 0 7.112.55.55 0 0 1-.22.54L9.265 36.6a2.34 2.34 0 0 0-.717 2.8 23.215 23.215 0 0 0 2.585 4.478 2.34 2.34 0 0 0 2.784.78l3.81-1.582a.55.55 0 0 1 .577.079 17.5 17.5 0 0 0 6.154 3.555.56.56 0 0 1 .357.464l.534 4.084c.14 1.07.99 1.902 2.067 2.022.86.095 1.73.144 2.586.144s1.725-.049 2.585-.144a2.34 2.34 0 0 0 2.067-2.022l.534-4.084a.56.56 0 0 1 .357-.464 17.5 17.5 0 0 0 6.155-3.555.55.55 0 0 1 .576-.08l3.81 1.583a2.34 2.34 0 0 0 2.784-.78 23.215 23.215 0 0 0 2.586-4.477 2.34 2.34 0 0 0-.718-2.801l-3.27-2.505a.55.55 0 0 1-.22-.54 17.7 17.7 0 0 0 0-7.111.55.55 0 0 1 .219-.54"/><path d="M57.112 17.143a.879.879 0 0 0-1.588.754A28 28 0 0 1 58.24 30c0 7.543-2.937 14.635-8.272 19.97-5.334 5.334-12.426 8.272-19.97 8.272a27.95 27.95 0 0 1-12.716-3.018 28.5 28.5 0 0 1-8.71-6.826l3.467 1.156a.879.879 0 0 0 .556-1.668l-6.24-2.08a.88.88 0 0 0-1.148.959l1.04 7.28a.879.879 0 1 0 1.74-.249l-.58-4.062a30.3 30.3 0 0 0 9.082 7.059C20.702 58.922 25.247 60 30 60c8.013 0 15.546-3.121 21.213-8.787 5.666-5.667 8.786-13.2 8.786-21.213 0-4.499-.971-8.825-2.887-12.858M1.758 30c0-7.544 2.937-14.636 8.272-19.97C15.364 4.695 22.456 1.758 30 1.758c8.303 0 16.043 3.573 21.424 9.843l-3.465-1.156a.879.879 0 1 0-.556 1.668l6.24 2.08a.88.88 0 0 0 .841-.159.88.88 0 0 0 .307-.799l-1.04-7.28a.88.88 0 0 0-1.74.248l.58 4.058C46.883 3.721 38.735 0 30 0 21.987 0 14.453 3.12 8.787 8.787 3.12 14.453 0 21.987 0 30c0 4.499.971 8.825 2.888 12.858a.879.879 0 1 0 1.587-.754A28 28 0 0 1 1.758 30"/></g><defs><clipPath id="a"><path fill="#fff" d="M0 0h60v60H0z"/></clipPath></defs></svg>