<svg xmlns="http://www.w3.org/2000/svg" width="60" height="60" fill="none"><g fill="#282928" clip-path="url(#a)"><path d="M54.51 18.22A26.9 26.9 0 0 1 57.188 30a27.17 27.17 0 0 1-45.135 20.4l2.036-2.033a.938.938 0 0 0-.477-1.583l-6.627-1.329a.938.938 0 0 0-1.104 1.103l1.32 6.626a.937.937 0 0 0 1.58.481l1.944-1.939a29.042 29.042 0 0 0 48.338-21.725A28.8 28.8 0 0 0 56.2 17.406zM8.697 51.1l-.703-3.53 3.531.708zM5.49 41.78A26.9 26.9 0 0 1 2.813 30 27.182 27.182 0 0 1 47.956 9.592l-2.045 2.04a.937.937 0 0 0 .477 1.584l6.628 1.329a.937.937 0 0 0 1.103-1.103L52.8 6.816a.937.937 0 0 0-1.58-.48l-1.935 1.93A29.056 29.056 0 0 0 .938 30 28.8 28.8 0 0 0 3.8 42.594zM51.304 8.9l.702 3.53-3.53-.712z"/><path d="M42.442 47.04h.138a4.47 4.47 0 0 0 2.96-7.813l-8.467-7.509a7.487 7.487 0 0 0-9.76-8.956.938.938 0 0 0-.35 1.546l2.199 2.199-2.651 2.651-2.199-2.198a.938.938 0 0 0-1.547.348 7.488 7.488 0 0 0 8.957 9.763l7.51 8.465a4.43 4.43 0 0 0 3.21 1.505M32.024 35.063a1 1 0 0 0-.314.053 5.607 5.607 0 0 1-7.492-5.598l1.63 1.631a.965.965 0 0 0 1.325 0l3.978-3.977a.937.937 0 0 0 0-1.326l-1.631-1.63a5.605 5.605 0 0 1 5.598 7.492.94.94 0 0 0 .261 1.015l8.918 7.908a2.594 2.594 0 0 1 .112 3.777 2.54 2.54 0 0 1-1.912.758 2.57 2.57 0 0 1-1.863-.872l-7.909-8.916a.94.94 0 0 0-.7-.315"/><path d="M43.241 34.688a14.119 14.119 0 1 0-8.555 8.555l-1.355-1.529a12.23 12.23 0 1 1 8.382-8.382zm-.156 8.396a.937.937 0 1 0-1.326-1.324.937.937 0 0 0 1.326 1.324"/><path d="M47.87 34.688a2.76 2.76 0 0 0 2.755-2.757V28.07a2.76 2.76 0 0 0-2.755-2.756.91.91 0 0 1-.876-.617c-.32-1.02-.73-2.009-1.227-2.954a.91.91 0 0 1 .18-1.06l.02-.02a2.76 2.76 0 0 0-.017-3.88l-2.731-2.733a2.82 2.82 0 0 0-3.901 0 .91.91 0 0 1-1.059.18 17.7 17.7 0 0 0-2.956-1.227.91.91 0 0 1-.615-.87 2.76 2.76 0 0 0-2.756-2.757h-3.864a2.767 2.767 0 0 0-2.756 2.795.86.86 0 0 1-.575.824 17.55 17.55 0 0 0-2.995 1.24.915.915 0 0 1-1.063-.188 2.82 2.82 0 0 0-3.898 0l-2.73 2.735a2.76 2.76 0 0 0-.018 3.88l.02.021a.915.915 0 0 1 .181 1.059c-.498.946-.91 1.935-1.229 2.956a.91.91 0 0 1-.875.616 2.76 2.76 0 0 0-2.755 2.756v3.862a2.76 2.76 0 0 0 2.755 2.756.91.91 0 0 1 .876.617c.32 1.02.73 2.009 1.227 2.954a.91.91 0 0 1-.18 1.06l-.02.02a2.76 2.76 0 0 0 .017 3.88l2.731 2.733a2.823 2.823 0 0 0 3.901 0 .915.915 0 0 1 1.059-.18c.946.497 1.936.908 2.957 1.227a.91.91 0 0 1 .614.87 2.76 2.76 0 0 0 2.756 2.757h3.864a2.76 2.76 0 0 0 2.756-2.756.91.91 0 0 1 .614-.875q1.032-.33 2.016-.786l-1.301-1.466q-.629.26-1.272.462a2.77 2.77 0 0 0-1.932 2.665.88.88 0 0 1-.88.881h-3.865a.88.88 0 0 1-.88-.881 2.77 2.77 0 0 0-1.933-2.665 16 16 0 0 1-2.642-1.096 2.7 2.7 0 0 0-1.275-.316 2.8 2.8 0 0 0-1.984.832.904.904 0 0 1-1.247 0l-2.732-2.73a.884.884 0 0 1 .019-1.267 2.77 2.77 0 0 0 .498-3.241 16 16 0 0 1-1.097-2.641 2.77 2.77 0 0 0-2.665-1.932.88.88 0 0 1-.88-.882V28.07a.88.88 0 0 1 .88-.881 2.76 2.76 0 0 0 2.665-1.932 16 16 0 0 1 1.098-2.643 2.77 2.77 0 0 0-.496-3.239l-.021-.02a.884.884 0 0 1 0-1.247l2.73-2.732a.9.9 0 0 1 1.25 0 2.77 2.77 0 0 0 3.258.514c.857-.45 1.753-.822 2.678-1.108a2.72 2.72 0 0 0 1.895-2.65.88.88 0 0 1 .88-.881h3.865a.88.88 0 0 1 .88.881 2.77 2.77 0 0 0 1.933 2.665c.912.285 1.796.652 2.642 1.097a2.77 2.77 0 0 0 3.26-.517.904.904 0 0 1 1.246 0l2.732 2.73a.884.884 0 0 1-.019 1.267 2.77 2.77 0 0 0-.498 3.241c.445.846.812 1.73 1.097 2.641a2.77 2.77 0 0 0 2.665 1.933.88.88 0 0 1 .88.88v3.863a.893.893 0 0 1-.92.881 2.745 2.745 0 0 0-2.615 1.897 16 16 0 0 1-.47 1.308l1.463 1.295q.463-1 .798-2.052a.87.87 0 0 1 .864-.572"/></g><defs><clipPath id="a"><path fill="#fff" d="M0 0h60v60H0z"/></clipPath></defs></svg>