<svg xmlns="http://www.w3.org/2000/svg" width="60" height="60" fill="none"><path fill="#282928" fill-rule="evenodd" d="m54.839 20.4-3.264-1.256a20 20 0 0 0-2.06-4.972l1.42-3.198a.94.94 0 0 0-.195-1.044l-4.294-4.294a.94.94 0 0 0-1.043-.193l-3.199 1.42a20 20 0 0 0-4.97-2.06l-1.257-3.265a.94.94 0 0 0-.875-.6h-6.073a.94.94 0 0 0-.875.6l-1.256 3.264a20 20 0 0 0-4.97 2.061l-3.2-1.42a.94.94 0 0 0-1.043.193l-4.294 4.295a.94.94 0 0 0-.194 1.043l1.42 3.198a20 20 0 0 0-2.06 4.972L9.293 20.4a.94.94 0 0 0-.601.875v6.073c0 .388.239.735.6.875l3.264 1.256a20 20 0 0 0 2.061 4.972l-1.42 3.198a.94.94 0 0 0 .194 1.043l2.209 2.209-4.214 2.44-.477-.845a2.157 2.157 0 0 0-2.936-.814l-2.318 1.312c-.5.283-.86.744-1.013 1.3a2.14 2.14 0 0 0 .2 1.636l6.814 12.04c.283.5.745.86 1.3 1.014q.29.08.58.08a2.14 2.14 0 0 0 1.056-.28l2.317-1.312c.5-.282.86-.744 1.014-1.3a2.14 2.14 0 0 0-.2-1.635l-.603-1.065 1.152-.665 10.5 2.813q.904.241 1.79.241a6.4 6.4 0 0 0 3.396-.976l14.992-9.232c1.456-.896 1.922-3.15.978-4.728a3.2 3.2 0 0 0-.652-.768l1.465-1.465a.94.94 0 0 0 .194-1.044l-1.421-3.198c.909-1.56 1.6-3.229 2.06-4.971l3.265-1.256c.362-.14.6-.488.6-.875v-6.073a.94.94 0 0 0-.6-.875M16.116 55.672a.28.28 0 0 1-.13.168l-2.318 1.312a.28.28 0 0 1-.211.025.28.28 0 0 1-.169-.13L6.474 45.006a.28.28 0 0 1-.025-.212.28.28 0 0 1 .13-.168l2.318-1.312a.283.283 0 0 1 .38.105l6.814 12.042a.272.272 0 0 1 .025.21m31.85-11.615-14.991 9.231c-1.14.701-2.39.877-3.718.52l-10.874-2.913a.94.94 0 0 0-.712.094l-1.474.851-3.887-6.868 5.983-3.464c1.337-.774 2.78-1.424 4.266-.942.5.162 1.076.371 1.745.613 1.924.695 4.314 1.56 6.803 2.016.752.27 1.172.995.98 1.707-.202.757-.769 1.087-1.682.984-1.205-.249-2.354-.576-3.569-.924-.58-.165-1.181-.337-1.8-.503a.938.938 0 0 0-.485 1.811c.604.162 1.197.332 1.77.495 1.265.362 2.46.703 3.75.967l.018.002.02.005 1.027.167c1.586.253 2.993.006 4.303-.757l8.261-4.812c2.236-1.302 4.005-1.474 4.62-.449.414.693.233 1.808-.353 2.169M32.48 41.8a.94.94 0 0 0 .493-.826v-.402c.912-.168 1.707-.58 2.213-1.164.5-.579.714-1.303.618-2.093-.192-1.58-1.406-2.565-3.609-2.927-1.737-.285-1.769-.936-1.78-1.18-.045-.923.953-1.197 1.153-1.242a2.3 2.3 0 0 1 .514-.056c.681.004 1.383.32 1.708 1.096a.938.938 0 0 0 1.729-.726c-.518-1.234-1.506-1.9-2.546-2.138v-.426a.938.938 0 0 0-1.875 0v.434c-1.604.387-2.63 1.646-2.556 3.148.053 1.1.678 2.501 3.35 2.94 1.712.281 1.995.843 2.05 1.302.033.266-.021.464-.174.641-.295.341-.954.581-1.639.598h-.1c-.773-.01-1.707-.343-1.937-1.268a.938.938 0 0 0-1.82.454c.332 1.332 1.414 2.292 2.826 2.59v.419q.002.17.057.32c-2.235-.442-4.431-1.235-6.213-1.879a61 61 0 0 0-1.803-.632 5.3 5.3 0 0 0-1.116-.234c-.422-2.003-.053-4.099 1.088-6.102 1.185-2.081 3.058-4.48 5.874-7.522h6.163c2.816 3.043 4.689 5.441 5.874 7.522 1.87 3.284 1.632 6.878-.63 9.647l-5.895 3.434a4.5 4.5 0 0 1-.77.359q.102-.237.173-.5c.37-1.381-.237-2.811-1.42-3.587m1.584-22.038h-3.995l-2.417-2.417a.753.753 0 0 1 .94-1.164 1.79 1.79 0 0 0 1.666.149c.555-.23.946-.698 1.074-1.284a.76.76 0 0 1 .735-.593c.35 0 .66.25.735.593.128.586.519 1.054 1.073 1.284s1.162.175 1.667-.15a.753.753 0 0 1 .94 1.164zM28.4 21.637h7.334a.707.707 0 0 1 0 1.413H28.4a.707.707 0 0 1 0-1.413m14.173 9.747c-1.152-1.988-2.863-4.221-5.33-6.948a2.58 2.58 0 0 0-.668-4.533l1.232-1.232a2.6 2.6 0 0 0 .767-1.858 2.61 2.61 0 0 0-.767-1.858 2.644 2.644 0 0 0-3.196-.402 2.644 2.644 0 0 0-2.544-1.975 2.645 2.645 0 0 0-2.545 1.975 2.644 2.644 0 0 0-3.195.402 2.6 2.6 0 0 0-.768 1.858c0 .703.273 1.363.768 1.858l1.232 1.232a2.58 2.58 0 0 0-.668 4.533c-2.467 2.727-4.179 4.96-5.33 6.948a12.67 12.67 0 0 1-2.161-7.073c0-6.984 5.682-12.667 12.667-12.667s12.667 5.683 12.667 12.667a12.67 12.67 0 0 1-2.161 7.073m10.992-4.68-3.117 1.2a.94.94 0 0 0-.575.657 18.2 18.2 0 0 1-2.21 5.333.94.94 0 0 0-.06.872l1.358 3.055-1.546 1.546c-.95-.108-2.205.09-3.84.907.806-2.207.784-4.616-.086-6.963a14.55 14.55 0 0 0 3.12-9c0-8.018-6.524-14.542-14.542-14.542s-14.542 6.524-14.542 14.542c0 3.27 1.103 6.442 3.117 8.998-.662 1.78-.835 3.602-.505 5.38-1.007.24-1.939.708-2.782 1.196l-.075.043-2.107-2.107 1.356-3.054a.94.94 0 0 0-.058-.872 18.2 18.2 0 0 1-2.211-5.334.94.94 0 0 0-.575-.657l-3.117-1.2v-4.785l3.117-1.2a.94.94 0 0 0 .575-.658 18.2 18.2 0 0 1 2.211-5.333.94.94 0 0 0 .059-.872l-1.357-3.055 3.384-3.383 3.055 1.356a.94.94 0 0 0 .872-.058 18.2 18.2 0 0 1 5.332-2.21.94.94 0 0 0 .658-.576l1.2-3.117h4.785l1.2 3.117a.934.934 0 0 0 .658.575 18.2 18.2 0 0 1 5.332 2.21c.264.163.59.185.872.06l3.055-1.357L48.96 10.8l-1.356 3.054a.94.94 0 0 0 .058.872 18.2 18.2 0 0 1 2.212 5.334c.071.3.286.547.575.658l3.116 1.2zM9.47 45.462a.828.828 0 1 1-1.638.24.828.828 0 0 1 1.638-.24" clip-rule="evenodd"/></svg>