<svg xmlns="http://www.w3.org/2000/svg" width="60" height="60" fill="none"><g fill="#282928" clip-path="url(#a)"><path d="M53.479 39.188a3 3 0 0 0-.18-.272 3.87 3.87 0 0 0-2.535-1.576 3.88 3.88 0 0 0-2.904.678L36.68 46H25a1.001 1.001 0 0 1 0-2h6.5a3.504 3.504 0 0 0 3.498-3.613A3.51 3.51 0 0 0 31.42 37H18.411a5.02 5.02 0 0 0-3.161 1.161l-4.89 4.07c-.228.191-.36.472-.36.769v12a1 1 0 0 0 1 1h24.811a7.02 7.02 0 0 0 4.456-1.609L52.39 44.375a3.93 3.93 0 0 0 1.089-5.187m-2.305 3.602L38.993 52.85A5.02 5.02 0 0 1 35.81 54H12V43.47l4.53-3.772A3 3 0 0 1 18.42 39h13.032A1.53 1.53 0 0 1 33 40.5c0 .828-.673 1.5-1.5 1.5H25c-1.654 0-3 1.347-3 3 0 1.655 1.346 3 3 3h12c.208 0 .41-.064.583-.185l11.442-8.171a1.894 1.894 0 0 1 2.655.444q.045.06.083.126c.506.847.27 1.96-.589 2.576"/><path d="M10.97 41H0v2h9.97v15H0v2h10.97a1 1 0 0 0 1-1V42a1 1 0 0 0-1-1"/><path d="M5 50c-1.654 0-3 1.346-3 3s1.346 3 3 3 3-1.346 3-3-1.346-3-3-3m0 4a1.001 1.001 0 0 1 0-2 1.001 1.001 0 0 1 0 2m54-23H1a1 1 0 0 0-1 1c0 3.859 3.14 7 7 7h46c3.859 0 7-3.141 7-7a1 1 0 0 0-1-1m-6 6H7a5.01 5.01 0 0 1-4.9-4h55.8a5.01 5.01 0 0 1-4.9 4"/><path d="M30 5C15.664 5 4 16.664 4 31v1a1 1 0 0 0 1 1h50a1 1 0 0 0 1-1v-1C56 16.664 44.337 5 30 5M6 31C6 17.767 16.767 7 30 7s24 10.767 24 24z"/><path d="M13.551 16.406a22 22 0 0 0-1.926 2.501l1.667 1.105a20.5 20.5 0 0 1 1.754-2.278zM30 9a21.92 21.92 0 0 0-15.055 5.972l1.37 1.457A19.93 19.93 0 0 1 30.001 11zm3-9h-6v2h6z"/><path d="M31 1h-2v5h2z"/></g><defs><clipPath id="a"><path fill="#fff" d="M0 0h60v60H0z"/></clipPath></defs></svg>