<svg xmlns="http://www.w3.org/2000/svg" width="60" height="60" fill="none"><g fill="#282928" clip-path="url(#a)"><path d="M44.583 40.607a.94.94 0 0 0 .176-1.082l-1.376-2.753q.51-1.014.862-2.094l2.926-.975a.94.94 0 0 0 .64-.89v-1.922a12.181 12.181 0 0 0-.937-24.328H26.637l1.212-1.212-1.325-1.326-2.813 2.813a.937.937 0 0 0 0 1.326l2.813 2.812 1.325-1.326-1.212-1.212h20.237a10.31 10.31 0 0 1 .938 20.578v-1.828a.94.94 0 0 0-.641-.89l-2.926-.974a15 15 0 0 0-.862-2.095l1.376-2.752a.94.94 0 0 0-.175-1.083l-3.978-3.977a.94.94 0 0 0-1.083-.176l-2.752 1.376a15 15 0 0 0-2.094-.862l-.976-2.926a.94.94 0 0 0-.89-.64h-5.624a.94.94 0 0 0-.89.64l-.975 2.926q-1.081.351-2.095.862l-2.752-1.376a.94.94 0 0 0-1.082.176l-3.978 3.977a.94.94 0 0 0-.176 1.083l1.376 2.752q-.51 1.015-.861 2.095l-2.926.975a.94.94 0 0 0-.641.89v1.922a12.182 12.182 0 0 0 .937 24.327h20.237l-1.212 1.212 1.325 1.326 2.813-2.812a.94.94 0 0 0 0-1.326l-2.813-2.813-1.325 1.326 1.212 1.212H13.124a10.31 10.31 0 0 1-.937-20.578v1.828a.94.94 0 0 0 .64.89l2.927.975q.352 1.08.861 2.094l-1.376 2.753a.94.94 0 0 0 .176 1.082l3.978 3.978a.94.94 0 0 0 1.082.175l2.752-1.376q1.014.51 2.095.862l.976 2.926a.94.94 0 0 0 .889.641h5.625a.94.94 0 0 0 .889-.64l.976-2.927q1.08-.351 2.094-.862l2.752 1.376a.94.94 0 0 0 1.083-.175zm-4.825 2.174-2.578-1.289a.94.94 0 0 0-.871.017c-.835.456-1.718.82-2.632 1.084a.94.94 0 0 0-.626.604l-.915 2.741h-4.274l-.914-2.741a.94.94 0 0 0-.626-.604 13 13 0 0 1-2.632-1.084.94.94 0 0 0-.87-.017l-2.579 1.29-3.022-3.023 1.289-2.578a.94.94 0 0 0-.017-.87 13 13 0 0 1-1.084-2.633.94.94 0 0 0-.603-.627l-2.742-.914v-4.273l2.742-.914a.94.94 0 0 0 .604-.627 13.11 13.11 0 0 1 1.083-2.633.94.94 0 0 0 .017-.87l-1.29-2.578 3.023-3.022 2.578 1.29a.94.94 0 0 0 .87-.018 13.08 13.08 0 0 1 2.633-1.084.94.94 0 0 0 .626-.604l.914-2.742h4.274l.914 2.743a.94.94 0 0 0 .626.603c.915.264 1.797.628 2.632 1.084a.94.94 0 0 0 .871.017l2.578-1.289 3.022 3.022-1.289 2.578a.94.94 0 0 0 .017.87c.456.836.82 1.718 1.084 2.633a.94.94 0 0 0 .603.627l2.742.914v4.274l-2.742.914a.94.94 0 0 0-.603.627 13 13 0 0 1-1.084 2.632.94.94 0 0 0-.017.87l1.29 2.579z"/><path d="M30 21.563A8.437 8.437 0 1 0 38.438 30 8.447 8.447 0 0 0 30 21.563m0 15A6.562 6.562 0 1 1 36.563 30 6.57 6.57 0 0 1 30 36.563m-28.125-22.5H18.75a.94.94 0 0 0 .938-.938V1.875a.94.94 0 0 0-.938-.937H1.875a.937.937 0 0 0-.937.937v11.25a.937.937 0 0 0 .937.938m.938-11.25h15v9.375h-15zm55.312 43.125H41.25a.94.94 0 0 0-.937.937v11.25a.94.94 0 0 0 .937.938h16.875a.94.94 0 0 0 .938-.938v-11.25a.94.94 0 0 0-.938-.937m-.937 11.25h-15v-9.376h15z"/><path d="M4.688 4.688h11.25v1.875H4.688zm0 3.75h11.25v1.874H4.688zm39.375 41.25h11.25v1.874h-11.25zm0 3.75h11.25v1.874h-11.25zm-15.002-21.95-2.15-2.15-1.325 1.325 2.812 2.813a.937.937 0 0 0 1.326 0l4.688-4.687-1.326-1.326z"/></g><defs><clipPath id="a"><path fill="#fff" d="M0 0h60v60H0z"/></clipPath></defs></svg>