<svg xmlns="http://www.w3.org/2000/svg" width="60" height="60" fill="none"><path fill="#282928" d="M16.022 23.125c.09 1.125-.331 3.61.57 4.508a1.044 1.044 0 0 0 1.444.14 1.01 1.01 0 0 0 .165-1.422c-.24-.037-.056-3.05-.111-3.226 0-.96.307-1.895.876-2.674a4.63 4.63 0 0 1 2.296-1.663l6.13-2.019a8.4 8.4 0 0 1 5.232-.001l6.133 2.02a4.63 4.63 0 0 1 2.296 1.663c.569.779.876 1.714.876 2.674v2.888c0 .121-.04.24-.116.336a1.01 1.01 0 0 0-.206.754 1 1 0 0 0 .394.677c1.14.795 2.054-.755 1.996-1.767v-2.888c0-1.388-.443-2.74-1.265-3.866a6.7 6.7 0 0 0-3.32-2.407l-5.214-1.717C40.662 11.115 37.76.993 30.01 1c-7.75 0-10.653 10.107-4.188 14.134l-5.216 1.719a6.7 6.7 0 0 0-3.319 2.406 6.55 6.55 0 0 0-1.265 3.866m8.276-14.449c.24-7.447 11.185-7.446 11.425 0-.24 7.447-11.186 7.444-11.425 0m30.855 7.294-3.84-1.274a6.456 6.456 0 0 0-.017-10.463 6.5 6.5 0 0 0-7.62.001 6.47 6.47 0 0 0-2.356 3.23 6.46 6.46 0 0 0-.006 3.996 6.47 6.47 0 0 0 2.348 3.237 1.036 1.036 0 0 0-.72 1.29 1.03 1.03 0 0 0 .899.737 1 1 0 0 0 .407-.044 9.7 9.7 0 0 1 3.213-.73c1.482-.118 5.585 1.577 7.034 1.98a3.55 3.55 0 0 1 2.433 3.37v2.355a.277.277 0 0 1-.268.279H47.1a1.037 1.037 0 0 0-1.036 1.033A1.03 1.03 0 0 0 47.1 26h9.56a2.35 2.35 0 0 0 1.656-.69A2.34 2.34 0 0 0 59 23.655v-2.356a5.6 5.6 0 0 0-1.063-3.283 5.64 5.64 0 0 0-2.784-2.046m-7.684-2.086a4.43 4.43 0 0 1-3.092-1.314 4.404 4.404 0 0 1 .012-6.202 4.43 4.43 0 0 1 3.098-1.302A4.43 4.43 0 0 1 50.58 6.38a4.403 4.403 0 0 1-.012 6.203 4.43 4.43 0 0 1-3.098 1.301M13.901 24.967a1.03 1.03 0 0 0-1.035-1.033H3.34a.28.28 0 0 1-.27-.28V21.3a3.55 3.55 0 0 1 2.43-3.37l4.95-1.642a7.48 7.48 0 0 1 5.28.383 1.04 1.04 0 0 0 1.29-.663 1.03 1.03 0 0 0-.64-1.3A6.77 6.77 0 0 0 19 9.477a6.46 6.46 0 0 0-3.09-5.518 6.497 6.497 0 0 0-8.782 1.907 6.463 6.463 0 0 0 1.556 8.831L4.84 15.971a5.64 5.64 0 0 0-2.78 2.047A5.6 5.6 0 0 0 1 21.299v2.356c0 .62.245 1.215.684 1.655A2.35 2.35 0 0 0 3.34 26h9.526a1.037 1.037 0 0 0 1.035-1.033m-1.392-19.9a4.42 4.42 0 0 1 3.098 1.303 4.405 4.405 0 0 1 .007 6.205 4.42 4.42 0 0 1-3.096 1.31 4.43 4.43 0 0 1-3.098-1.303 4.405 4.405 0 0 1-.006-6.206 4.43 4.43 0 0 1 3.095-1.31"/><path fill="#282928" d="M44.451 38.898a16.6 16.6 0 0 0-1.587-3.856c.244-.187.445-.422.589-.69a2.1 2.1 0 0 0-.384-2.504l-2.095-2.033a2.3 2.3 0 0 0-.803-.483 2.36 2.36 0 0 0-1.846.12c-.282.143-.53.342-.73.583a17.6 17.6 0 0 0-3.93-1.634c.037-.3.008-.604-.085-.892a2.1 2.1 0 0 0-.453-.782 2.2 2.2 0 0 0-.742-.534 2.3 2.3 0 0 0-.902-.193h-2.966c-.312 0-.62.064-.905.19a2.2 2.2 0 0 0-.744.533 2.38 2.38 0 0 0-.579 1.75 17.786 17.786 0 0 0-3.973 1.542 2.2 2.2 0 0 0-.709-.577 2.3 2.3 0 0 0-.89-.244 2.3 2.3 0 0 0-.913.137 2.25 2.25 0 0 0-.779.484L16.93 31.85c-.22.223-.389.489-.497.78a2.17 2.17 0 0 0 .124 1.79c.147.274.352.516.6.709a16.6 16.6 0 0 0-1.683 3.815 2.3 2.3 0 0 0-.922.078 2.2 2.2 0 0 0-.807.438 2.1 2.1 0 0 0-.55.723 2.1 2.1 0 0 0-.195.878v2.88c0 .302.066.602.195.878.128.276.316.522.55.722.503.408 1.15.61 1.804.562a16.6 16.6 0 0 0 1.587 3.856c-.246.186-.449.42-.594.688a2.086 2.086 0 0 0 .389 2.506l2.095 2.033c.23.213.504.377.803.482a2.37 2.37 0 0 0 1.845-.12c.282-.143.531-.341.73-.582a17.6 17.6 0 0 0 3.931 1.634c-.037.3-.008.604.085.892.092.289.247.555.453.782s.458.408.742.534c.283.125.59.19.902.193h2.966c.312 0 .62-.065.905-.19.284-.124.538-.306.744-.533.423-.487.63-1.116.579-1.75a17.8 17.8 0 0 0 3.973-1.542c.191.24.433.436.709.577a2.25 2.25 0 0 0 1.805.11c.291-.107.556-.273.777-.487l2.095-2.034c.22-.223.389-.489.497-.78a2.17 2.17 0 0 0-.124-1.79 2.25 2.25 0 0 0-.6-.709 19.6 19.6 0 0 0 1.683-3.815c.309.036.622.008.92-.082.297-.09.571-.24.805-.44.233-.2.42-.445.55-.72.129-.275.197-.573.199-.875v-2.88a2.2 2.2 0 0 0-.216-.892 2.2 2.2 0 0 0-.568-.733 2.3 2.3 0 0 0-.824-.449 2.4 2.4 0 0 0-.94-.088m.424 5.042-.085.07a2.24 2.24 0 0 0-1.507.352 2.13 2.13 0 0 0-.892 1.231c-.227 2.02-3.003 4.24-.834 5.992.005.003.005.105.01.109l-2.095 2.032-.112-.009a2.2 2.2 0 0 0-1.323-.785 2.25 2.25 0 0 0-1.528.26c-1.624 1.267-5.216.936-4.953 3.665l1.055-.13-1.128.21h-2.966l-.073-.081a2.08 2.08 0 0 0-.362-1.464 2.2 2.2 0 0 0-1.269-.865 12.8 12.8 0 0 1-3.322-1.334 2.25 2.25 0 0 0-1.527-.26 2.2 2.2 0 0 0-1.324.784c-.004.005-.109.004-.112.01l-2.095-2.033-.75.729.76-.838c.421-.319.709-.775.808-1.285s.005-1.036-.268-1.482c-1.303-1.578-.965-5.059-3.775-4.807l-.083-.071v-2.88l.085-.07a2.25 2.25 0 0 0 1.506-.353c.441-.291.759-.729.892-1.23.297-1.133.76-2.22 1.375-3.224.273-.447.368-.974.268-1.483s-.387-.966-.808-1.285c-.005-.003-.004-.105-.01-.109l2.095-2.032.112.009c1.805 2.103 4.094-.585 6.172-.81a2.2 2.2 0 0 0 1.27-.866c.3-.429.429-.95.362-1.464l.073-.08h2.966l.073.082a2.08 2.08 0 0 0 .362 1.463c.3.429.752.736 1.269.865 1.168.288 2.286.737 3.322 1.334a2.25 2.25 0 0 0 1.527.26 2.2 2.2 0 0 0 1.324-.784c.004-.005.109-.004.112-.01l2.095 2.033-.01.11c-2.167 1.753.603 3.972.834 5.99.135.502.452.939.894 1.23s.977.417 1.507.353l.083.071z"/><path fill="#282928" d="M30 33c-1.78 0-3.52.557-5 1.601a9.4 9.4 0 0 0-3.315 4.264 10 10 0 0 0-.512 5.488 9.68 9.68 0 0 0 2.463 4.865 8.87 8.87 0 0 0 4.608 2.6 8.56 8.56 0 0 0 5.2-.541 9.12 9.12 0 0 0 4.04-3.5A9.9 9.9 0 0 0 39 42.5c-.003-2.519-.952-4.933-2.64-6.714C34.675 34.005 32.387 33.003 30 33m0 16.924a6.77 6.77 0 0 1-3.907-1.251 7.35 7.35 0 0 1-2.59-3.332 7.8 7.8 0 0 1-.401-4.29 7.56 7.56 0 0 1 1.925-3.8 6.93 6.93 0 0 1 3.6-2.032 6.7 6.7 0 0 1 4.064.422 7.13 7.13 0 0 1 3.157 2.735 7.7 7.7 0 0 1 1.185 4.124c-.002 1.968-.744 3.855-2.062 5.247-1.319 1.392-3.106 2.175-4.971 2.177"/><path fill="#282928" d="M32.293 39.342 29 43.184l-1.293-1.509a.93.93 0 0 0-.707-.342.93.93 0 0 0-.707.342A1.27 1.27 0 0 0 26 42.5c0 .31.105.606.293.825l2 2.333q.141.164.324.253a.88.88 0 0 0 .766 0q.183-.089.324-.253l4-4.667q.14-.163.217-.378a1.34 1.34 0 0 0 0-.893 1.2 1.2 0 0 0-.217-.378 1 1 0 0 0-.324-.253.88.88 0 0 0-.766 0 1 1 0 0 0-.324.253"/></svg>