<svg xmlns="http://www.w3.org/2000/svg" width="60" height="60" fill="none"><path fill="#282928" d="M58.033 57.067h-5.8v-31.9a.967.967 0 0 0-.966-.967H37.733V1.967A.967.967 0 0 0 36.767 1H11.633a.967.967 0 0 0-.966.967v55.1h-8.7a.967.967 0 0 0 0 1.933h56.066a.967.967 0 1 0 0-1.933m-36.733 0h-3.867v-8.7c0-.534.433-.967.967-.967h1.933c.534 0 .967.433.967.967zm3.867-31.9v31.9h-1.934v-8.7a2.9 2.9 0 0 0-2.9-2.9H18.4a2.9 2.9 0 0 0-2.9 2.9v8.7h-2.9V2.933h23.2V24.2h-9.667a.967.967 0 0 0-.966.967m25.133 31.9H27.1V26.133h23.2z"/><path fill="#282928" d="M31.935 14.533h-5.8a.967.967 0 0 0-.967.967v5.8c0 .534.433.966.967.966h5.8a.967.967 0 0 0 .966-.966v-5.8a.967.967 0 0 0-.966-.967m-.967 5.8h-3.867v-3.866h3.867zm.967-15.466h-5.8a.967.967 0 0 0-.967.967v5.8c0 .534.433.966.967.966h5.8a.967.967 0 0 0 .966-.966v-5.8a.967.967 0 0 0-.966-.967m-.967 5.8h-3.867V6.801h3.867zm-8.701 3.866h-5.8a.967.967 0 0 0-.967.967v5.8c0 .534.433.966.967.966h5.8a.967.967 0 0 0 .966-.966v-5.8a.967.967 0 0 0-.966-.967m-.967 5.8h-3.867v-3.866H21.3zm.967-15.466h-5.8a.967.967 0 0 0-.967.967v5.8c0 .534.433.966.967.966h5.8a.967.967 0 0 0 .966-.966v-5.8a.967.967 0 0 0-.966-.967m-.967 5.8h-3.867V6.801H21.3zm.967 13.533h-5.8a.967.967 0 0 0-.967.966v5.8c0 .534.433.967.967.967h5.8a.967.967 0 0 0 .966-.967v-5.8a.967.967 0 0 0-.966-.967M21.3 30h-3.867v-3.867H21.3zm.967 3.867h-5.8a.967.967 0 0 0-.967.967v5.8c0 .534.433.966.967.966h5.8a.967.967 0 0 0 .966-.966v-5.8a.967.967 0 0 0-.966-.967m-.967 5.8h-3.867V35.8H21.3zm19.335 5.799h5.8a.967.967 0 0 0 .966-.967v-5.8a.967.967 0 0 0-.966-.967h-5.8a.967.967 0 0 0-.967.967v5.8c0 .534.433.967.967.967m.966-5.8h3.867v3.866h-3.867zm-.966-3.866h5.8a.967.967 0 0 0 .966-.967v-5.8a.967.967 0 0 0-.966-.967h-5.8a.967.967 0 0 0-.967.967v5.8c0 .534.433.967.967.967M41.6 30h3.867v3.866H41.6zm-.965 25.134h5.8a.967.967 0 0 0 .966-.967v-5.8a.967.967 0 0 0-.966-.967h-5.8a.967.967 0 0 0-.967.967v5.8c0 .534.433.967.967.967m.966-5.8h3.867V53.2h-3.867zm-10.634-3.868h5.8a.967.967 0 0 0 .966-.967v-5.8a.967.967 0 0 0-.966-.967h-5.8A.967.967 0 0 0 30 38.7v5.8c0 .534.433.967.967.967m.966-5.8H35.8v3.866h-3.867zm-.966-3.867h5.8a.967.967 0 0 0 .966-.967v-5.8a.967.967 0 0 0-.966-.967h-5.8a.967.967 0 0 0-.967.967v5.8c0 .534.433.967.967.967m.966-5.8H35.8v3.866h-3.867zm-.966 25.134h5.8a.967.967 0 0 0 .966-.967v-5.8a.967.967 0 0 0-.966-.967h-5.8a.967.967 0 0 0-.967.967v5.8c0 .534.433.967.967.967m.966-5.8H35.8V53.2h-3.867z"/></svg>