<svg xmlns="http://www.w3.org/2000/svg" width="60" height="60" fill="none"><g fill="#282928" clip-path="url(#a)"><path d="M18.75 47.813a11.25 11.25 0 0 0 19.635 7.5l-1.397-1.25a9.375 9.375 0 1 1 2.387-6.25c0 .29-.028.577-.054.865L38.25 47.25l-1.5 1.125 2.813 3.75a.938.938 0 0 0 1.5 0l2.812-3.75-1.5-1.125-1.189 1.585c.03-.34.064-.68.064-1.023a11.25 11.25 0 0 0-22.5 0"/><path d="m29.064 48.17-3.232 1.616.838 1.678 3.75-1.875a.94.94 0 0 0 .519-.839v-7.5h-1.875zm16.874-1.295h13.124v1.875H45.939zm-45 0h15.937v1.875H.938zM12.188 45V24.375a.94.94 0 0 0-.938-.937h-7.5a.94.94 0 0 0-.937.937V45h1.874V25.313h5.626V45zM26.25 14.063h-7.5a.94.94 0 0 0-.937.937v24.375h1.875V15.938h5.625v18.75h1.875V15a.94.94 0 0 0-.938-.937m15.938 25.312v-15a.94.94 0 0 0-.938-.937h-7.5a.94.94 0 0 0-.937.937v10.313h1.874v-9.376h5.626v14.063zm15 5.625V15a.94.94 0 0 0-.938-.937h-7.5a.94.94 0 0 0-.937.937v30h1.874V15.938h5.626V45z"/><path d="M52.502 8.438a3.75 3.75 0 1 0-3.75-3.75c.004.382.067.761.187 1.125l-8.865 5.53a3.73 3.73 0 0 0-5.227.07l-9.692-5.704c.1-.331.154-.675.159-1.021a3.748 3.748 0 0 0-5.979-3.014 3.75 3.75 0 0 0-1.24 4.44L8.891 13.02a3.7 3.7 0 0 0-2.327-.832 3.758 3.758 0 1 0 3.469 2.323l9.208-6.906a3.71 3.71 0 0 0 4.98-.27l9.69 5.706a3.72 3.72 0 0 0-.16 1.021 3.75 3.75 0 0 0 7.5 0 3.7 3.7 0 0 0-.187-1.124l8.865-5.532a3.73 3.73 0 0 0 2.572 1.032m0-5.626a1.875 1.875 0 1 1 0 3.75 1.875 1.875 0 0 1 0-3.75m-45.938 15a1.875 1.875 0 1 1 0-3.75 1.875 1.875 0 0 1 0 3.75m15-11.25a1.875 1.875 0 1 1 0-3.749 1.875 1.875 0 0 1 0 3.75m15.938 9.375a1.875 1.875 0 1 1 0-3.75 1.875 1.875 0 0 1 0 3.75"/></g><defs><clipPath id="a"><path fill="#fff" d="M0 0h60v60H0z"/></clipPath></defs></svg>