<svg xmlns="http://www.w3.org/2000/svg" width="60" height="60" fill="none"><path fill="#282928" d="M32.666 8.672h-5.332a.889.889 0 0 1 0-1.777h5.332a.889.889 0 0 1 0 1.777m7.109 47.988h-19.55a4.45 4.45 0 0 1-4.444-4.443V22.002a.889.889 0 0 1 1.778 0v30.215a2.67 2.67 0 0 0 2.666 2.666h19.55a2.67 2.67 0 0 0 2.666-2.666V22.002a.889.889 0 0 1 1.778 0v30.215a4.45 4.45 0 0 1-4.444 4.443"/><path fill="#282928" d="M43.33 28.223a.89.89 0 0 1-.889-.889V7.784a2.67 2.67 0 0 0-2.666-2.667h-19.55a2.67 2.67 0 0 0-2.666 2.666v19.551a.889.889 0 0 1-1.778 0V7.784a4.45 4.45 0 0 1 4.444-4.444h19.55a4.45 4.45 0 0 1 4.444 4.443v19.551a.89.89 0 0 1-.889.889m5.332-15.908c-.49 0-.889-.309-.889-.8v-.177a.889.889 0 0 1 1.778 0c0 .49-.398.977-.889.977m0 3.555c-.49 0-.889-.31-.889-.8v-.177a.889.889 0 0 1 1.778 0c0 .49-.398.977-.889.977m0 3.555c-.49 0-.889-.31-.889-.8v-.178a.889.889 0 0 1 1.778 0c0 .49-.398.978-.889.978M11.338 42.353c-.49 0-.889-.31-.889-.8v-.178a.889.889 0 0 1 1.778 0c0 .49-.399.977-.89.977m.001 3.555c-.49 0-.889-.309-.889-.8v-.177a.889.889 0 0 1 1.778 0c0 .49-.399.977-.89.977m.001 3.555c-.49 0-.889-.31-.889-.8v-.178a.889.889 0 0 1 1.778 0c0 .49-.399.978-.89.978"/><path fill="#282928" d="M45.72 49.55a.888.888 0 0 1-.87-1.075l.587-2.719a.89.89 0 0 1 .66-.675 8.5 8.5 0 0 0 2.429-1.015.89.89 0 0 1 .94.009l1.76 1.125 1.09-1.099-1.126-1.745a.89.89 0 0 1-.012-.944 8.5 8.5 0 0 0 1.013-2.43.89.89 0 0 1 .671-.66l2.027-.45v-1.523l-2.025-.45a.89.89 0 0 1-.672-.661 8.5 8.5 0 0 0-1.013-2.43.88.88 0 0 1 .011-.942l1.127-1.761-1.088-1.088-1.761 1.127a.89.89 0 0 1-.94.009 8.6 8.6 0 0 0-2.43-1.015.89.89 0 0 1-.66-.675l-.437-2.018h-.776a.889.889 0 0 1 0-1.777h1.493c.417 0 .78.293.867.702l.474 2.191c.651.198 1.289.464 1.904.797l1.909-1.221a.89.89 0 0 1 1.107.12l2.1 2.098a.89.89 0 0 1 .118 1.107l-1.22 1.909q.498.927.796 1.907l2.194.487a.89.89 0 0 1 .699.87v2.95c0 .416-.29.778-.697.867l-2.195.487a10.26 10.26 0 0 1-.796 1.905l1.22 1.891a.887.887 0 0 1-.116 1.108l-2.1 2.115a.89.89 0 0 1-1.108.122l-1.91-1.22q-.925.498-1.903.796l-.474 2.191a.89.89 0 0 1-.868.704"/><path fill="#282928" d="M46.69 41.691a.888.888 0 0 1-.494-1.626 3.56 3.56 0 0 0 1.576-2.956 3.558 3.558 0 0 0-4.266-3.483.888.888 0 1 1-.357-1.742 5.339 5.339 0 0 1 6.4 5.225 5.33 5.33 0 0 1-2.366 4.431.9.9 0 0 1-.494.151M15.781 28.223a5.34 5.34 0 0 1-5.332-5.332 5.33 5.33 0 0 1 2.378-4.44.889.889 0 0 1 .985 1.48 3.56 3.56 0 0 0-1.585 2.96 3.558 3.558 0 0 0 4.251 3.486.893.893 0 0 1 1.047.696.886.886 0 0 1-.697 1.046q-.51.104-1.047.104"/><path fill="#282928" d="M15.781 35.332h-1.493a.89.89 0 0 1-.867-.702l-.475-2.192a10.3 10.3 0 0 1-1.903-.796l-1.909 1.221a.89.89 0 0 1-1.107-.12l-2.1-2.098a.89.89 0 0 1-.118-1.107l1.22-1.91a10.3 10.3 0 0 1-.796-1.906l-2.195-.487a.89.89 0 0 1-.698-.87v-2.95c0-.416.29-.778.697-.867l2.195-.487c.197-.652.463-1.29.796-1.905L5.81 16.263a.885.885 0 0 1 .116-1.108l2.099-2.114a.885.885 0 0 1 1.109-.123l1.909 1.22a10.3 10.3 0 0 1 1.903-.795l.475-2.192a.888.888 0 1 1 1.736.375l-.586 2.72a.89.89 0 0 1-.66.675 8.6 8.6 0 0 0-2.43 1.015.89.89 0 0 1-.941-.01l-1.76-1.124L7.69 15.9l1.125 1.746a.88.88 0 0 1 .012.943 8.5 8.5 0 0 0-1.013 2.43.89.89 0 0 1-.671.661l-2.025.448v1.523l2.025.45a.89.89 0 0 1 .671.661 8.5 8.5 0 0 0 1.013 2.43.88.88 0 0 1-.01.942l-1.127 1.76 1.088 1.087 1.761-1.127a.89.89 0 0 1 .94-.009 8.6 8.6 0 0 0 2.43 1.015c.332.08.588.343.66.675l.437 2.02h.776a.889.889 0 0 1 0 1.777m13.33-.888a.887.887 0 0 1-.862-1.104l1.777-7.11a.88.88 0 0 1 1.077-.646c.478.119.766.6.647 1.077l-1.777 7.109a.886.886 0 0 1-.863.674m5.333 0a.89.89 0 0 1-.63-1.516L36.743 30l-2.926-2.926a.89.89 0 0 1 1.257-1.256l3.555 3.554a.89.89 0 0 1 0 1.257l-3.555 3.555a.9.9 0 0 1-.63.259m-8.887.001a.9.9 0 0 1-.63-.26l-3.554-3.554a.89.89 0 0 1 0-1.257l3.555-3.555a.89.89 0 0 1 1.256 1.257l-2.925 2.926 2.925 2.925a.89.89 0 0 1-.627 1.518"/></svg>