<svg xmlns="http://www.w3.org/2000/svg" width="60" height="60" fill="none"><g clip-path="url(#a)"><path fill="#282928" d="m49.26 30.593 1.153-3.276q.135.01.269.011a3.247 3.247 0 1 0-3.235-2.977l-3.274 1.155c-2.005-1.762-3.992-3.239-5.777-4.278-2.94-1.714-4.968-2.047-6.025-.99-5.992 5.995-6.103 15.677-.335 21.807L27.52 58.36h-1.75l-2.706-13.163a1 1 0 0 0-.018-.087l-.7-3.398-.009-.047L18.65 23.73a1 1 0 0 0-.019-.09L16.31 12.36a4.237 4.237 0 1 0-3.273-.036L10.73 23.64a1 1 0 0 0-.018.09l-1.128 5.54a1 1 0 0 0-.022.108l-.646 3.174a1 1 0 0 0-.02.097L7.065 41.64v.002L3.66 58.36H1.098a.82.82 0 1 0 0 1.64h45.745a.82.82 0 1 0 0-1.64h-5.08l-3.378-12.212a15.7 15.7 0 0 0 16.14-3.754c1.058-1.057.725-3.084-.989-6.025-1.04-1.784-2.515-3.77-4.277-5.775m.286-7.647a1.607 1.607 0 0 1 2.732 1.314 1.605 1.605 0 0 1-3.11.357v-.003l-.001-.003a1.6 1.6 0 0 1 .379-1.665M47.991 25.9c.233.345.53.641.874.874l-.86 2.442a61 61 0 0 0-1.209-1.247 50 50 0 0 0-1.246-1.208zm-10.422-3.254c1.491.869 3.138 2.065 4.82 3.49l-3.107 1.094a.82.82 0 1 0 .546 1.548l3.972-1.4q.92.839 1.835 1.751a52 52 0 0 1 1.754 1.837l-1.4 3.97a.821.821 0 0 0 1.548.546l1.094-3.104c1.423 1.681 2.619 3.327 3.487 4.817 1.595 2.737 1.442 3.842 1.248 4.038l-.001.001c-.197.194-1.303.345-4.036-1.248-2.445-1.425-5.31-3.727-8.067-6.483a49 49 0 0 1-4.809-5.54 29 29 0 0 1-1.674-2.526c-1.54-2.642-1.45-3.762-1.268-4.013l.02-.022.014-.015c.227-.188 1.341-.304 4.024 1.26m-4.038 18.587c-1.207-1.207-1.356-3.341-.58-5.846a22.9 22.9 0 0 0 6.428 6.428c-.917.3-1.874.46-2.839.478-1.251 0-2.293-.344-3.009-1.06m3.472-3.471a20.6 20.6 0 0 1-3.309-4.294 22 22 0 0 1 2.135-3.61 53 53 0 0 0 4.272 4.805 53 53 0 0 0 4.807 4.273 22 22 0 0 1-3.61 2.135 20.6 20.6 0 0 1-4.295-3.31M32.112 23.64c.33.912.748 1.79 1.248 2.622.415.712.9 1.456 1.444 2.22a25 25 0 0 0-2.025 3.15 15 15 0 0 1-.916-2.929c-.376-1.899-.284-3.626.249-5.063m14.173 16.32a29 29 0 0 0 2.217 1.443c.832.501 1.711.92 2.624 1.249-1.437.533-3.164.625-5.064.249a15 15 0 0 1-2.933-.918 25 25 0 0 0 3.156-2.022M30.02 27.28q.06.879.232 1.742c.325 1.58.87 3.107 1.622 4.534-.567 1.403-.903 2.748-.996 3.981a14.1 14.1 0 0 1-.858-10.257m-17.95-1.992 1.248.944-1.703 1.288zm8.22 14.576-4.265-3.277 3.101-2.384zm-2.536-12.336-1.714-1.295 1.253-.946zm.5 2.435.504 2.453-4.08 3.136-4.063-3.122.505-2.48 3.559-2.689zm-8.004 4.256 3.082 2.368-4.226 3.249zM7.745 46.52l5.011 2.363-6.075 2.865zm.338-1.655.524-2.577 6.073-4.667 6.117 4.7.52 2.525-6.637 3.13zm13.573 1.636 1.086 5.276-6.138-2.894zM12.12 8.434a2.6 2.6 0 1 1 2.036 2.533l-.006-.002h-.002a2.6 2.6 0 0 1-2.028-2.53m2.579 4.235 2.228 10.837-2.247 1.698-2.247-1.698 2.208-10.838zM6.272 53.756l8.408-3.965 8.475 3.996.94 4.572H5.335zm33.79 4.603h-10.84l4.163-15.038a15.6 15.6 0 0 0 3.075 2.023zm-2.514-14.313a1 1 0 0 0-.104-.048l-.21-.103q.788-.06 1.559-.234a15 15 0 0 0 2.419-.77 17.2 17.2 0 0 0 4.531 1.62q.877.174 1.77.234c-3.296.988-6.84.74-9.965-.699m19.53-13.57a.82.82 0 0 1-1.162-1.16A7.402 7.402 0 1 0 45.451 18.85a.82.82 0 1 1-1.161-1.16 9.042 9.042 0 1 1 12.787 12.787M46.34 20.902a.82.82 0 0 1-.001-1.16 6.143 6.143 0 0 1 8.688 8.687.822.822 0 0 1-1.4-.58.82.82 0 0 1 .24-.58 4.503 4.503 0 0 0-6.366-6.368.82.82 0 0 1-1.161 0M22.569 1.37a.82.82 0 1 1 1.218-1.1 12.207 12.207 0 0 1 0 16.326.82.82 0 1 1-1.22-1.098 10.566 10.566 0 0 0 0-14.13zM5.643 16.596a12.207 12.207 0 0 1 0-16.324.82.82 0 1 1 1.22 1.097 10.566 10.566 0 0 0 0 14.13.821.821 0 0 1-1.22 1.097m.178-8.162a8.88 8.88 0 0 1 2.284-5.95.82.82 0 0 1 1.22 1.098 7.25 7.25 0 0 0-.001 9.701.82.82 0 1 1-1.219 1.1 8.86 8.86 0 0 1-2.284-5.949m14.286-4.852a.821.821 0 0 1 1.22-1.098 8.89 8.89 0 0 1 0 11.898.822.822 0 0 1-1.22-1.099 7.25 7.25 0 0 0 0-9.7z"/></g><defs><clipPath id="a"><path fill="#fff" d="M0 0h60v60H0z"/></clipPath></defs></svg>