<svg xmlns="http://www.w3.org/2000/svg" width="60" height="60" fill="none"><g fill="#282928" clip-path="url(#a)"><path d="M27.238 48.2V24.539a2.7 2.7 0 0 0-2.7-2.7 2.7 2.7 0 0 0-2.698 2.7v23.66a2.7 2.7 0 0 0 2.699 2.7 2.7 2.7 0 0 0 2.699-2.7m-3.64 0v-23.66a.942.942 0 0 1 1.882 0v23.66a.942.942 0 0 1-1.883 0m-3.637.001V24.539a2.7 2.7 0 0 0-2.699-2.7 2.7 2.7 0 0 0-2.698 2.7v23.66a2.7 2.7 0 0 0 2.698 2.7 2.7 2.7 0 0 0 2.7-2.7m-3.64 0v-23.66a.942.942 0 0 1 1.883 0v23.66a.942.942 0 0 1-1.883 0m-3.641.001V24.539a2.7 2.7 0 0 0-2.7-2.7 2.7 2.7 0 0 0-2.699 2.7v23.66a2.7 2.7 0 0 0 2.7 2.7 2.7 2.7 0 0 0 2.698-2.7m-3.641 0v-23.66a.942.942 0 0 1 1.882 0v23.66a.942.942 0 0 1-1.882 0"/><path d="M52.614 0H32.992c-1.13 0-2.05.92-2.05 2.05v15.517a4.96 4.96 0 0 0-3.223-1.186h-2.3V6.277a.88.88 0 0 1 .879-.88h.71c1.131 0 2.051-.92 2.051-2.05V2.051C29.059.92 28.139 0 27.009 0H7.51C6.38 0 5.46.92 5.46 2.05v1.297c0 1.13.92 2.05 2.05 2.05h.71a.88.88 0 0 1 .88.88V16.38H6.8a4.986 4.986 0 0 0-4.98 4.98v3.179a.879.879 0 1 0 1.757 0V21.36A3.226 3.226 0 0 1 6.8 18.137h20.918a3.226 3.226 0 0 1 3.222 3.223v30.02a3.226 3.226 0 0 1-3.222 3.223H6.8a3.226 3.226 0 0 1-3.223-3.223V28.641a.879.879 0 1 0-1.758 0V51.38a4.99 4.99 0 0 0 3.86 4.854A2.702 2.702 0 0 0 8.16 60a2.702 2.702 0 0 0 2.53-3.64h13.142A2.702 2.702 0 0 0 26.36 60a2.702 2.702 0 0 0 2.478-3.767 5 5 0 0 0 2.102-1.06v2.19A2.64 2.64 0 0 0 33.578 60h20.145a2.64 2.64 0 0 0 2.637-2.637v-10.52a4.986 4.986 0 0 0-4.98-4.981h-2.3v-1.59c0-1.13-.92-2.05-2.051-2.05h-6.757c-1.13 0-2.05.92-2.05 2.05v1.59h-2.3a4.96 4.96 0 0 0-3.223 1.186v-8.529h12.782a.879.879 0 1 0 0-1.758H32.7V2.051c0-.162.132-.293.293-.293h19.622c2.1 0 3.808 1.708 3.808 3.808v23.387c0 2.1-1.708 3.808-3.808 3.808h-3.031a.879.879 0 1 0 0 1.758h3.03a5.573 5.573 0 0 0 5.567-5.566V5.566A5.573 5.573 0 0 0 52.614 0M14.499 5.69c0-.16.131-.292.293-.292h4.936c.162 0 .293.131.293.293v10.69H14.5zm7.28 3.348h1.882v7.343H21.78zM8.222 3.64h-.71a.293.293 0 0 1-.294-.293V2.051c0-.162.132-.293.293-.293h19.497c.162 0 .293.131.293.293v1.296a.293.293 0 0 1-.293.293h-.71a2.64 2.64 0 0 0-2.637 2.637V7.28H21.78V5.69c0-1.13-.92-2.05-2.05-2.05h-4.937c-1.131 0-2.051.92-2.051 2.05v1.59h-1.883V6.277A2.64 2.64 0 0 0 8.222 3.64m2.636 5.398h1.883v7.343h-1.883zM9.101 57.301a.942.942 0 0 1-1.883 0 .942.942 0 0 1 1.883 0m17.26.941a.942.942 0 0 1 0-1.882.942.942 0 0 1 0 1.882M51.38 43.62a3.226 3.226 0 0 1 3.222 3.223v10.521a.88.88 0 0 1-.878.88H49.08V43.618zm-11.4-3.347c0-.161.13-.293.293-.293h6.756c.162 0 .293.132.293.293v1.59h-7.343zm-4.058 3.347h2.3v6.578a.879.879 0 1 0 1.758 0V43.62h7.342v14.623h-7.343V54.3a.879.879 0 1 0-1.757 0v3.943h-4.644a.88.88 0 0 1-.879-.879v-10.52a3.226 3.226 0 0 1 3.223-3.224"/><path d="M44.562 21.78c4.499 0 8.159-3.66 8.159-8.16 0-4.499-3.66-8.16-8.16-8.16-4.498 0-8.159 3.661-8.159 8.16s3.66 8.16 8.16 8.16m-6.342-7.281h2.752c.081 1.842.419 3.632 1.002 4.976a6.42 6.42 0 0 1-3.754-4.976m6.342-7.28c.513 0 1.668 1.876 1.831 5.522H42.73c.163-3.646 1.318-5.522 1.832-5.522m1.831 7.28c-.163 3.646-1.318 5.522-1.831 5.522-.514 0-1.669-1.876-1.832-5.522zm.756 4.976c.583-1.344.92-3.134 1.002-4.976h2.752a6.42 6.42 0 0 1-3.754 4.976m3.754-6.734H48.15c-.081-1.842-.419-3.632-1.002-4.976a6.42 6.42 0 0 1 3.754 4.976m-8.929-4.976c-.583 1.344-.92 3.134-1.002 4.976H38.22a6.42 6.42 0 0 1 3.754-4.976m-5.572 19.828c0 .808.657 1.465 1.465 1.465h13.389c.808 0 1.465-.657 1.465-1.465v-2.468c0-.808-.657-1.465-1.465-1.465H37.867c-.808 0-1.465.657-1.465 1.465zm1.758-2.175h12.803V27.3H38.16z"/></g><defs><clipPath id="a"><path fill="#fff" d="M0 0h60v60H0z"/></clipPath></defs></svg>