<svg xmlns="http://www.w3.org/2000/svg" width="60" height="60" fill="none"><g fill="#282928" clip-path="url(#a)"><path d="M27.953 31.835a.879.879 0 1 0 1.714-.39 9.47 9.47 0 0 0-3.27-5.242 9.45 9.45 0 0 0-5.924-2.094c-5.2 0-9.43 4.23-9.43 9.43s4.23 9.43 9.43 9.43a9.437 9.437 0 0 0 9.113-7.002.879.879 0 0 0-1.699-.451 7.68 7.68 0 0 1-7.414 5.696c-4.23 0-7.672-3.442-7.672-7.673s3.442-7.672 7.672-7.672a7.58 7.58 0 0 1 4.818 1.703 7.7 7.7 0 0 1 2.662 4.264"/><path d="M15.852 33.54a4.63 4.63 0 0 0 4.622 4.624 4.63 4.63 0 0 0 4.623-4.623 4.63 4.63 0 0 0-4.623-4.623 4.63 4.63 0 0 0-4.622 4.623m7.488 0a2.87 2.87 0 0 1-2.866 2.866 2.87 2.87 0 0 1-2.865-2.865 2.87 2.87 0 0 1 2.865-2.865 2.87 2.87 0 0 1 2.866 2.865m35.197-19.019h-1.723a8.4 8.4 0 0 0-.5-1.21l1.217-1.218c.571-.572.57-1.5 0-2.072l-1.634-1.634a1.467 1.467 0 0 0-2.072 0l-1.218 1.218a8.4 8.4 0 0 0-1.21-.502V7.383c0-.808-.657-1.465-1.465-1.465H47.62c-.808 0-1.465.657-1.465 1.465v1.722a8.5 8.5 0 0 0-1.21.501L43.726 8.39a1.467 1.467 0 0 0-2.071 0l-1.635 1.634a1.47 1.47 0 0 0 0 2.072l1.218 1.217q-.298.586-.5 1.21h-1.723c-.808 0-1.465.658-1.465 1.466v2.31c0 .809.657 1.466 1.465 1.466h1.722c.135.415.303.821.501 1.21l-1.218 1.218a1.47 1.47 0 0 0 0 2.072l1.635 1.634c.57.571 1.5.571 2.071 0l1.218-1.218q.586.297 1.21.502v1.722c0 .808.658 1.465 1.466 1.465h2.31c.809 0 1.466-.657 1.466-1.465v-1.722a8.4 8.4 0 0 0 1.21-.502l1.218 1.218c.571.571 1.5.571 2.072 0l1.634-1.634c.57-.571.57-1.5 0-2.072l-1.218-1.217q.298-.587.501-1.211h1.723c.807 0 1.465-.657 1.465-1.465v-2.311c0-.808-.658-1.465-1.465-1.465m-.293 3.483h-1.646c-.653 0-1.218.423-1.405 1.052-.13.44-.307.866-.525 1.269a1.46 1.46 0 0 0 .25 1.737l1.163 1.164-1.22 1.22-1.163-1.163a1.46 1.46 0 0 0-1.738-.25 6.63 6.63 0 0 1-1.269.525 1.46 1.46 0 0 0-1.052 1.405v1.646h-1.725v-1.646a1.46 1.46 0 0 0-1.053-1.405 6.7 6.7 0 0 1-1.268-.525 1.46 1.46 0 0 0-1.738.25l-1.163 1.163-1.22-1.22 1.163-1.164a1.46 1.46 0 0 0 .25-1.738 6.7 6.7 0 0 1-.525-1.268 1.46 1.46 0 0 0-1.405-1.052h-1.646V16.28h1.646c.653 0 1.217-.423 1.404-1.053.13-.439.307-.866.525-1.268a1.46 1.46 0 0 0-.249-1.738l-1.163-1.163 1.22-1.22 1.163 1.163a1.46 1.46 0 0 0 1.738.25 6.7 6.7 0 0 1 1.268-.526 1.46 1.46 0 0 0 1.052-1.405V7.676h1.726v1.646a1.46 1.46 0 0 0 1.052 1.405c.44.13.866.307 1.268.524a1.46 1.46 0 0 0 1.738-.249l1.164-1.163 1.22 1.22-1.164 1.163a1.46 1.46 0 0 0-.25 1.738c.218.403.395.83.526 1.268.187.63.752 1.053 1.404 1.053h1.647z"/><path d="M48.776 13.008a4.14 4.14 0 0 0-4.135 4.135 4.14 4.14 0 0 0 4.135 4.136 4.14 4.14 0 0 0 4.136-4.136 4.14 4.14 0 0 0-4.136-4.135m0 6.513a2.38 2.38 0 0 1-2.378-2.378 2.38 2.38 0 0 1 2.378-2.377 2.38 2.38 0 0 1 2.378 2.377 2.38 2.38 0 0 1-2.378 2.378m-15.889-6.545a6.32 6.32 0 0 0 5.67-3.573.879.879 0 0 0-1.586-.76 4.55 4.55 0 0 1-4.084 2.575 4.53 4.53 0 0 1-4.524-4.524 4.53 4.53 0 0 1 4.524-4.524 4.53 4.53 0 0 1 4.274 3.04.879.879 0 1 0 1.66-.576A6.29 6.29 0 0 0 32.888.412a6.29 6.29 0 0 0-6.282 6.282 6.29 6.29 0 0 0 6.282 6.282"/><path d="M32.885 10.09a.88.88 0 0 0 .878-.88V7.573h1.639a.879.879 0 1 0 0-1.758h-1.639V4.176a.879.879 0 1 0-1.757 0v1.638h-1.639a.879.879 0 0 0 0 1.758h1.639V9.21c0 .486.393.88.879.88m20.808 27.974-10.849-6.263a1.47 1.47 0 0 0-1.465 0l-.431.25v-.988c0-.937-.763-1.7-1.7-1.7h-4.133a15.2 15.2 0 0 0-1.334-3.222l2.922-2.923a1.7 1.7 0 0 0 0-2.403L33.2 17.311a1.7 1.7 0 0 0-1.202-.498c-.453 0-.88.177-1.201.498l-2.922 2.922A15.2 15.2 0 0 0 24.65 18.9v-4.133c0-.937-.762-1.7-1.7-1.7h-4.955c-.937 0-1.7.763-1.7 1.7V18.9c-1.12.319-2.205.768-3.222 1.334l-2.922-2.922a1.7 1.7 0 0 0-1.202-.498c-.454 0-.88.177-1.201.498l-3.504 3.504a1.7 1.7 0 0 0 0 2.403l2.922 2.922a15.2 15.2 0 0 0-1.335 3.223H1.7c-.937 0-1.699.763-1.699 1.7v4.955c0 .937.762 1.7 1.7 1.7h4.132a15.18 15.18 0 0 0 1.335 3.222l-2.922 2.922a1.7 1.7 0 0 0 0 2.403l3.504 3.505c.32.32.747.497 1.201.497s.88-.177 1.202-.498l2.922-2.922a15.2 15.2 0 0 0 3.223 1.335v4.133c0 .937.762 1.7 1.699 1.7h4.956c.936 0 1.699-.763 1.699-1.7v-4.133a15.2 15.2 0 0 0 3.223-1.335l1.924 1.925v3.088c0 .521.28 1.008.733 1.268l10.848 6.264a1.47 1.47 0 0 0 1.465 0l10.848-6.264c.452-.26.733-.746.733-1.268v-4.047a.879.879 0 1 0-1.758 0v3.878l-10.555 6.094-10.556-6.094V39.5l10.556-6.093 10.555 6.094v4.21a.879.879 0 0 0 1.758 0v-4.38c0-.521-.28-1.007-.732-1.268m-23.162 0a1.47 1.47 0 0 0-.733 1.269v6.953l-.713-.713a1.71 1.71 0 0 0-2.038-.277 13.4 13.4 0 0 1-2.909 1.204 1.71 1.71 0 0 0-1.245 1.637v4.12h-4.838v-4.12a1.71 1.71 0 0 0-1.246-1.637 13.4 13.4 0 0 1-2.908-1.204 1.71 1.71 0 0 0-2.038.277L8.95 48.485l-3.42-3.421 2.912-2.912a1.71 1.71 0 0 0 .277-2.039 13.4 13.4 0 0 1-1.204-2.908 1.71 1.71 0 0 0-1.637-1.245h-4.12v-4.84h4.12a1.71 1.71 0 0 0 1.637-1.245c.286-1.013.69-1.992 1.204-2.908a1.71 1.71 0 0 0-.277-2.039L5.53 22.017l3.421-3.421 2.912 2.912a1.71 1.71 0 0 0 2.039.277 13.4 13.4 0 0 1 2.908-1.204 1.71 1.71 0 0 0 1.245-1.637v-4.12h4.839v4.12c0 .757.512 1.43 1.245 1.637 1.013.285 1.992.69 2.909 1.204a1.71 1.71 0 0 0 2.038-.277l2.912-2.912 3.422 3.42-2.913 2.913a1.71 1.71 0 0 0-.277 2.039c.514.916.919 1.895 1.204 2.908a1.71 1.71 0 0 0 1.637 1.245h4.12v1.944z"/><path d="M34.828 45.595c0 4.016 3.267 7.283 7.283 7.283s7.283-3.267 7.283-7.283c0-4.015-3.267-7.282-7.283-7.282s-7.283 3.267-7.283 7.282m12.808 0a5.53 5.53 0 0 1-5.525 5.525 5.53 5.53 0 0 1-5.525-5.525 5.53 5.53 0 0 1 5.525-5.525 5.53 5.53 0 0 1 5.525 5.525"/><path d="M37.992 45.595a4.123 4.123 0 0 0 4.119 4.12 4.123 4.123 0 0 0 4.119-4.12 4.123 4.123 0 0 0-4.119-4.118 4.123 4.123 0 0 0-4.119 4.118m6.48 0a2.364 2.364 0 0 1-2.36 2.361 2.364 2.364 0 0 1-2.362-2.36 2.364 2.364 0 0 1 2.361-2.362 2.364 2.364 0 0 1 2.361 2.361"/></g><defs><clipPath id="a"><path fill="#fff" d="M0 0h60v60H0z"/></clipPath></defs></svg>