<svg xmlns="http://www.w3.org/2000/svg" width="15.537" height="19.902"><path d="M6.319 16.79H4.854a.869.869 0 1 0 0 1.738h1.464a.869.869 0 0 0 0-1.738Zm0 1.1H4.854a.23.23 0 0 1-.227-.227.227.227 0 0 1 .227-.227h1.464a.227.227 0 0 1 .227.227.23.23 0 0 1-.226.223Zm9.013-9.1-.905-.348a5.8 5.8 0 0 0-.573-1.381l.394-.887a.32.32 0 0 0-.066-.357l-1.225-1.225a.32.32 0 0 0-.357-.066l-.887.394a6 6 0 0 0-.539-.274V1.155A1.156 1.156 0 0 0 10.013 0H1.155A1.156 1.156 0 0 0 0 1.155v17.592A1.156 1.156 0 0 0 1.155 19.9h8.858a1.156 1.156 0 0 0 1.155-1.155v-3.483a6 6 0 0 0 .539-.274l.887.394a.32.32 0 0 0 .357-.066l1.225-1.225a.32.32 0 0 0 .066-.357l-.394-.887a5.8 5.8 0 0 0 .572-1.381l.906-.349a.32.32 0 0 0 .206-.3V9.085a.32.32 0 0 0-.206-.3ZM8.113.642l-.194.6h-4.66l-.194-.6Zm2.42 18.1a.514.514 0 0 1-.513.513H1.155a.514.514 0 0 1-.513-.513V1.155a.514.514 0 0 1 .513-.513h1.232l.326 1.018a.32.32 0 0 0 .305.222h5.127a.32.32 0 0 0 .305-.222L8.781.643h1.232a.514.514 0 0 1 .513.513V4.4l-.2-.058-.349-.906a.32.32 0 0 0-.3-.206H7.951a.32.32 0 0 0-.3.206l-.349.906a5.8 5.8 0 0 0-1.381.573l-.887-.394a.32.32 0 0 0-.357.066L3.452 5.812a.32.32 0 0 0-.066.357l.394.887a5.8 5.8 0 0 0-.573 1.381l-.905.349a.32.32 0 0 0-.206.3v1.732a.32.32 0 0 0 .206.3l.905.348a5.8 5.8 0 0 0 .573 1.381l-.394.887a.32.32 0 0 0 .066.357l1.225 1.225a.32.32 0 0 0 .357.066l.887-.394a5.8 5.8 0 0 0 1.381.573l.349.906a.32.32 0 0 0 .3.206h1.732a.32.32 0 0 0 .3-.206l.348-.905q.1-.028.2-.058v3.244Zm4.365-8.15-.855.329a.32.32 0 0 0-.2.225 5.1 5.1 0 0 1-.624 1.505.32.32 0 0 0-.02.3l.372.838-.913.913-.837-.372a.32.32 0 0 0-.3.02 5.1 5.1 0 0 1-1.506.624.32.32 0 0 0-.225.2l-.329.855h-1.29l-.329-.855a.32.32 0 0 0-.225-.2 5.1 5.1 0 0 1-1.505-.624.32.32 0 0 0-.3-.02l-.838.372-.913-.913.372-.837a.32.32 0 0 0-.02-.3 5.1 5.1 0 0 1-.624-1.506.32.32 0 0 0-.2-.225l-.855-.329V9.305l.855-.329a.32.32 0 0 0 .2-.225 5.1 5.1 0 0 1 .624-1.505.32.32 0 0 0 .02-.3l-.372-.838.913-.913.838.372a.32.32 0 0 0 .3-.02 5.1 5.1 0 0 1 1.501-.623.32.32 0 0 0 .225-.2l.329-.855h1.296l.329.855a.32.32 0 0 0 .225.2 5.1 5.1 0 0 1 1.505.624.32.32 0 0 0 .3.02l.838-.372.913.913-.372.837a.32.32 0 0 0 .02.3 5.1 5.1 0 0 1 .624 1.506.32.32 0 0 0 .2.225l.855.329ZM8.813 5.656a4.3 4.3 0 1 0 4.3 4.3 4.3 4.3 0 0 0-4.3-4.3m0 7.948a3.653 3.653 0 1 1 3.653-3.653A3.657 3.657 0 0 1 8.813 13.6ZM8.492 7.13v-.343a.321.321 0 1 1 .642 0v.343a.321.321 0 1 1-.642 0m2.089 1.053a.32.32 0 0 1 0-.454l.243-.243a.321.321 0 1 1 .454.454l-.243.243a.32.32 0 0 1-.454 0m.7 3.778a.321.321 0 1 1-.454.454l-.243-.243a.321.321 0 1 1 .454-.454Zm-4.232-.243a.32.32 0 0 1 0 .454l-.243.243a.321.321 0 1 1-.454-.454l.243-.243a.32.32 0 0 1 .454.001Zm0-3.99a.321.321 0 0 1-.454.454l-.243-.243a.321.321 0 0 1 .454-.454Zm4.264 2.223a.32.32 0 0 1 .321-.321h.343a.321.321 0 1 1 0 .642h-.343a.32.32 0 0 1-.321-.321m-2.179 2.821v.343a.321.321 0 1 1-.642 0v-.343a.321.321 0 1 1 .642 0M6.313 9.951a.32.32 0 0 1-.321.321h-.339a.321.321 0 1 1 0-.642h.343a.32.32 0 0 1 .317.321m2.821-.982v-.926a.321.321 0 1 0-.642 0v.926a.807.807 0 0 0 0 1.482v1.077a.321.321 0 1 0 .642 0v-1.076a.807.807 0 0 0 0-1.482Zm-.487.741a.166.166 0 0 1 .166-.166.166.166 0 1 1-.166.166"/></svg>