<svg xmlns="http://www.w3.org/2000/svg" width="17.087" height="17.087"><path d="M14.24 17.087H1.78a2.1 2.1 0 0 1-.871-.216 1.6 1.6 0 0 1-.626-.544A1.8 1.8 0 0 1 0 15.307V4.272a.356.356 0 1 1 .712 0v11.035a.94.94 0 0 0 .5.918 1.4 1.4 0 0 0 .572.15H14.24a2.136 2.136 0 1 0-2.14-2.135.356.356 0 1 1-.712 0V2.848a2.848 2.848 0 1 1 5.7 0V14.6a.35.35 0 0 1-.051.184 2.85 2.85 0 0 1-2.797 2.303m0-5.7a2.84 2.84 0 0 1 2.136.966V2.848a2.136 2.136 0 0 0-4.272 0v9.51a2.84 2.84 0 0 1 2.136-.966Z"/><path d="M9.612 15.308H5.34a1.07 1.07 0 0 1-1.068-1.068V6.408A1.07 1.07 0 0 1 5.34 5.34h4.272a1.07 1.07 0 0 1 1.068 1.068v1.068a.356.356 0 0 1-.356.356H6.052a.356.356 0 0 1 0-.712h3.92v-.712a.356.356 0 0 0-.356-.356H5.34a.356.356 0 0 0-.356.356v7.832a.356.356 0 0 0 .356.356h4.272a.356.356 0 0 0 .36-.356V8.9a.356.356 0 1 1 .712 0v5.34a1.07 1.07 0 0 1-1.072 1.068"/><path d="M8.896 13.528H6.052a.356.356 0 1 1 0-.712h2.844a.356.356 0 1 1 0 .712M2.848 15.307h-.712a.713.713 0 0 1-.712-.711v-1.78a.356.356 0 0 1 .356-.356h1.068V2.186a12 12 0 0 0-.356-.717c-.169.324-.312.608-.356.717v9.205a.356.356 0 1 1-.712 0V2.136c0-.095 0-.157.4-.919.177-.341.357-.672.359-.675a.356.356 0 0 1 .626 0s.182.335.359.675c.4.761.4.824.4.919v12.46a.713.713 0 0 1-.72.711m-.712-2.136v1.425h.712v-1.424ZM11.748 3.204H4.984a.356.356 0 0 1 0-.712h6.764a.356.356 0 1 1 0 .712"/></svg>