<svg xmlns="http://www.w3.org/2000/svg" width="24" height="24"><path d="M13.5 24h-3A1.624 1.624 0 0 1 9 22.2v-2.1a3.47 3.47 0 0 0-1.3-2.6A6.91 6.91 0 0 1 5 11.9 7.117 7.117 0 0 1 11.9 5a7.03 7.03 0 0 1 5 2 7.12 7.12 0 0 1 2.1 5 6.73 6.73 0 0 1-2.6 5.4 3.65 3.65 0 0 0-1.4 2.8v2.3a1.54 1.54 0 0 1-1.5 1.5M12 6a6.133 6.133 0 0 0-6 5.9 5.88 5.88 0 0 0 2.3 4.8 4.36 4.36 0 0 1 1.7 3.4v2.1c0 .2 0 .8.5.8h3a.472.472 0 0 0 .5-.5v-2.3a4.86 4.86 0 0 1 1.8-3.6A5.83 5.83 0 0 0 18 12a5.98 5.98 0 0 0-1.8-4.3A5.9 5.9 0 0 0 12 6"/><path d="M14.5 21h-5a.5.5 0 0 1 0-1h5a.5.5 0 0 1 0 1M12 3a.472.472 0 0 1-.5-.5v-2a.5.5 0 0 1 1 0v2a.472.472 0 0 1-.5.5M18.7 5.8a.6.6 0 0 1-.4-.1.483.483 0 0 1 0-.7l1.4-1.4a.495.495 0 1 1 .7.7L19 5.7a1 1 0 0 1-.3.1M23.5 12.5h-2a.5.5 0 0 1 0-1h2a.5.5 0 0 1 0 1M20.1 20.6a.6.6 0 0 1-.4-.1l-1.4-1.4a.495.495 0 0 1 .7-.7l1.4 1.4a.483.483 0 0 1 0 .7c0 .1-.1.1-.3.1M3.9 20.6a.6.6 0 0 1-.4-.1.483.483 0 0 1 0-.7l1.4-1.4a.495.495 0 0 1 .7.7l-1.4 1.4a.37.37 0 0 1-.3.1M2.5 12.5h-2a.5.5 0 0 1 0-1h2a.5.5 0 0 1 0 1M5.3 5.8a.6.6 0 0 1-.4-.1L3.5 4.2a.495.495 0 0 1 .7-.7l1.4 1.4a.483.483 0 0 1 0 .7c-.1.1-.2.2-.3.2M16 12.5a.472.472 0 0 1-.5-.5A3.543 3.543 0 0 0 12 8.5a.5.5 0 0 1 0-1 4.48 4.48 0 0 1 4.5 4.5.472.472 0 0 1-.5.5"/></svg>