<svg xmlns="http://www.w3.org/2000/svg" width="53.549" height="48.207"><path d="M51.719 37.339h-.268l.013-27.966a2.35 2.35 0 0 0-2.352-2.354h-3.419a.784.784 0 0 0 0 1.569h3.42a.783.783 0 0 1 .783.784l-.013 27.967h-2.05V21.617a2.894 2.894 0 0 0-2.89-2.891h-5.758V8.583h2.847a.784.784 0 0 0 0-1.569h-2.848V2.361a2.367 2.367 0 0 0-2.365-2.365H2.365A2.37 2.37 0 0 0 0 2.361v26.745a2.37 2.37 0 0 0 2.088 2.348v5.885H1.83A1.83 1.83 0 0 0 0 39.17a3.926 3.926 0 0 0 3.922 3.922h2.854a.784.784 0 0 0 0-1.569H3.922a2.356 2.356 0 0 1-2.353-2.353.26.26 0 0 1 .261-.261h27.134v2.615H10.437a.784.784 0 0 0 0 1.569h18.527v2.225a2.894 2.894 0 0 0 2.891 2.891h13.087a2.894 2.894 0 0 0 2.89-2.891v-2.227h1.8a3.926 3.926 0 0 0 3.922-3.922 1.83 1.83 0 0 0-1.835-1.83m-50.15-8.233V2.361a.8.8 0 0 1 .8-.8H36.82a.8.8 0 0 1 .8.8v16.365h-1.468V3.818a.784.784 0 0 0-.784-.784H11.7a.784.784 0 1 0 0 1.569h22.883v14.123h-2.728a2.894 2.894 0 0 0-2.891 2.891v5.253H4.6V4.602h3.441a.784.784 0 1 0 0-1.569H3.817a.784.784 0 0 0-.784.784v23.837a.784.784 0 0 0 .784.784h25.147v1.464H2.365a.8.8 0 0 1-.8-.8Zm44.694 16.21a1.323 1.323 0 0 1-1.321 1.322H31.855a1.323 1.323 0 0 1-1.322-1.322v-8.692a.784.784 0 0 0-1.569 0v.715H3.654v-5.868h25.31v1.49a.784.784 0 0 0 1.569 0V21.617a1.323 1.323 0 0 1 1.322-1.322h13.087a1.323 1.323 0 0 1 1.321 1.322Zm3.365-3.794h-1.8v-2.614h3.888a.26.26 0 0 1 .261.261 2.356 2.356 0 0 1-2.35 2.354Z"/><path d="M19.592 23.323a7.8 7.8 0 1 0-7.8-7.8 7.805 7.805 0 0 0 7.8 7.8m0-14.024a6.227 6.227 0 1 1-6.227 6.228 6.234 6.234 0 0 1 6.227-6.228"/><path d="M18.517 18.515a.79.79 0 0 0 .586.264h.025a.78.78 0 0 0 .594-.3l3.6-4.619a.785.785 0 1 0-1.238-.964l-3.02 3.875-1.577-1.776a.784.784 0 0 0-1.173 1.042ZM36.993 23.025h2.81a.784.784 0 1 0 0-1.569h-2.81a.784.784 0 1 0 0 1.569M38.398 27.217a6.249 6.249 0 1 0 6.249 6.249 6.256 6.256 0 0 0-6.249-6.249m0 10.93a4.68 4.68 0 1 1 4.68-4.68 4.686 4.686 0 0 1-4.68 4.679Z"/><path d="M41.143 31.302a.784.784 0 0 0-1.1.137l-2.023 2.6-.967-1.089a.784.784 0 0 0-1.173 1.042l1.593 1.793a.79.79 0 0 0 .586.264h.025a.78.78 0 0 0 .594-.3l2.6-3.339a.784.784 0 0 0-.135-1.108"/></svg>