<svg xmlns="http://www.w3.org/2000/svg" width="20.951" height="20.951"><path fill="#212121" fill-rule="evenodd" d="M8.699 2.025a.327.327 0 0 1-.327-.327V.655H6.618v1.043a.328.328 0 0 1-.655 0V.328A.327.327 0 0 1 6.29.001h2.408a.327.327 0 0 1 .327.327v1.37a.327.327 0 0 1-.326.327M8.699 14.988H6.291a.327.327 0 0 1-.327-.327v-1.37a.328.328 0 1 1 .655 0v1.043h1.753v-1.043a.328.328 0 0 1 .655 0v1.37a.327.327 0 0 1-.328.327M2.544 4.573a.33.33 0 0 1-.231-.1l-.969-.969a.327.327 0 0 1 0-.463l1.7-1.7a.327.327 0 0 1 .463 0l.969.969a.327.327 0 1 1-.463.463l-.738-.738-1.24 1.24.738.738a.327.327 0 0 1-.231.559ZM11.71 13.741a.33.33 0 0 1-.231-.1l-.969-.969a.327.327 0 0 1 .463-.463l.738.738 1.24-1.24-.738-.738a.327.327 0 0 1 .463-.463l.969.969a.327.327 0 0 1 0 .463l-1.7 1.7a.33.33 0 0 1-.235.103M1.698 9.027H.328A.327.327 0 0 1 .001 8.7V6.292a.327.327 0 0 1 .327-.327h1.37a.328.328 0 1 1 0 .655H.659v1.753h1.043a.328.328 0 0 1 0 .655ZM14.66 9.027h-1.37a.328.328 0 1 1 0-.655h1.04V6.619h-1.04a.328.328 0 0 1 0-.655h1.37a.327.327 0 0 1 .327.327v2.408a.327.327 0 0 1-.327.328"/><path fill="#212121" fill-rule="evenodd" d="M1.698 9.027H.328A.327.327 0 0 1 .001 8.7V6.292a.327.327 0 0 1 .327-.327h1.37a.328.328 0 1 1 0 .655H.659v1.753h1.043a.328.328 0 0 1 0 .655ZM14.66 9.027h-1.37a.328.328 0 1 1 0-.655h1.04V6.619h-1.04a.328.328 0 0 1 0-.655h1.37a.327.327 0 0 1 .327.327v2.408a.327.327 0 0 1-.327.328M3.278 13.741a.33.33 0 0 1-.231-.1l-1.7-1.7a.327.327 0 0 1 0-.463l.969-.969a.327.327 0 1 1 .463.463l-.738.738 1.24 1.24.738-.738a.327.327 0 0 1 .463.463l-.969.969a.33.33 0 0 1-.235.097M12.444 4.574a.327.327 0 0 1-.232-.559l.738-.738-1.24-1.24-.738.738a.327.327 0 1 1-.463-.463l.969-.969a.327.327 0 0 1 .463 0l1.7 1.7a.327.327 0 0 1 0 .463l-.969.969a.33.33 0 0 1-.228.099"/><path fill="#212121" fill-rule="evenodd" d="M10.745 2.871a.33.33 0 0 1-.18-.054 5.5 5.5 0 0 0-1.929-.8.327.327 0 1 1 .133-.641 6.2 6.2 0 0 1 2.156.894.327.327 0 0 1-.18.6ZM1.697 6.617a.328.328 0 0 1-.321-.394 6.2 6.2 0 0 1 .894-2.156.327.327 0 0 1 .547.36 5.5 5.5 0 0 0-.8 1.929.33.33 0 0 1-.32.261M13.29 6.617a.33.33 0 0 1-.32-.261 5.5 5.5 0 0 0-.8-1.929.327.327 0 1 1 .547-.36 6.2 6.2 0 0 1 .894 2.156.327.327 0 0 1-.254.387.3.3 0 0 1-.067.007M8.698 13.619a.327.327 0 0 1-.066-.648 5.5 5.5 0 0 0 1.929-.8.327.327 0 1 1 .36.547 6.2 6.2 0 0 1-2.156.894.3.3 0 0 1-.067.007M2.544 11.068a.33.33 0 0 1-.274-.148 6.2 6.2 0 0 1-.894-2.156.327.327 0 0 1 .641-.132 5.5 5.5 0 0 0 .8 1.929.327.327 0 0 1-.273.507M6.29 13.619a.3.3 0 0 1-.067-.007 6.2 6.2 0 0 1-2.156-.894.327.327 0 1 1 .36-.547 5.5 5.5 0 0 0 1.929.8.327.327 0 0 1-.066.648M12.444 11.064a.327.327 0 0 1-.273-.507 5.5 5.5 0 0 0 .8-1.929.327.327 0 1 1 .641.132 6.2 6.2 0 0 1-.894 2.156.33.33 0 0 1-.274.148M4.248 2.871a.327.327 0 0 1-.18-.6 6.2 6.2 0 0 1 2.156-.894.327.327 0 1 1 .133.641 5.5 5.5 0 0 0-1.929.8.33.33 0 0 1-.18.053M7.494 11.069a3.574 3.574 0 1 1 2.527-1.047 3.55 3.55 0 0 1-2.527 1.047m0-6.494a2.92 2.92 0 1 0 2.92 2.92 2.923 2.923 0 0 0-2.92-2.92M14.662 20.951h-2.409a.327.327 0 0 1-.327-.327v-1.37a.328.328 0 1 1 .655 0v1.043h1.754v-1.043a.328.328 0 1 1 .655 0v1.37a.327.327 0 0 1-.328.327M17.674 19.702a.33.33 0 0 1-.231-.1l-.969-.969a.327.327 0 1 1 .463-.463l.738.738 1.24-1.24-.738-.738a.327.327 0 0 1 .463-.463l.969.969a.327.327 0 0 1 0 .463l-1.7 1.7a.33.33 0 0 1-.235.103M20.625 14.988h-1.37a.328.328 0 0 1 0-.655h1.043v-1.758h-1.043a.328.328 0 1 1 0-.655h1.37a.327.327 0 0 1 .327.327v2.408a.327.327 0 0 1-.327.333"/><path fill="#212121" fill-rule="evenodd" d="M20.625 14.988h-1.37a.328.328 0 0 1 0-.655h1.043v-1.758h-1.043a.328.328 0 1 1 0-.655h1.37a.327.327 0 0 1 .327.327v2.408a.327.327 0 0 1-.327.333M18.408 10.537a.327.327 0 0 1-.232-.559l.738-.738L17.674 8l-.738.738a.327.327 0 1 1-.463-.463l.969-.969a.327.327 0 0 1 .463 0l1.7 1.7a.327.327 0 0 1 0 .463l-.969.969a.33.33 0 0 1-.228.099"/><path fill="#212121" fill-rule="evenodd" d="M16.704 8.834a.33.33 0 0 1-.18-.054 5.5 5.5 0 0 0-1.929-.8.327.327 0 0 1 .132-.641 6.2 6.2 0 0 1 2.156.894.327.327 0 0 1-.18.6ZM19.254 12.575a.33.33 0 0 1-.32-.261 5.5 5.5 0 0 0-.8-1.929.327.327 0 1 1 .547-.36 6.2 6.2 0 0 1 .894 2.156.327.327 0 0 1-.254.387.3.3 0 0 1-.067.007M14.661 19.581a.327.327 0 0 1-.066-.648 5.5 5.5 0 0 0 1.929-.8.327.327 0 1 1 .36.547 6.2 6.2 0 0 1-2.156.894.3.3 0 0 1-.067.007M12.254 19.581a.3.3 0 0 1-.067-.007 6.2 6.2 0 0 1-2.156-.894.327.327 0 0 1 .36-.547 5.5 5.5 0 0 0 1.929.8.327.327 0 0 1-.066.648M18.407 17.03a.327.327 0 0 1-.273-.507 5.5 5.5 0 0 0 .8-1.929.327.327 0 1 1 .641.132 6.2 6.2 0 0 1-.894 2.156.33.33 0 0 1-.274.148M13.454 17.03a3.574 3.574 0 0 1-3.574-3.574 3.6 3.6 0 0 1 .1-.823.327.327 0 1 1 .637.15 2.916 2.916 0 1 0 2.169-2.169.327.327 0 1 1-.15-.637 3.575 3.575 0 1 1 .823 7.053Z"/><path fill="#212121" fill-rule="evenodd" d="M9.241 19.703a.33.33 0 0 1-.231-.1l-1.7-1.7a.327.327 0 0 1 0-.463l.969-.969a.327.327 0 1 1 .463.463l-.738.738 1.24 1.24.738-.738a.327.327 0 0 1 .463.463l-.969.969a.33.33 0 0 1-.235.097"/><path fill="#212121" fill-rule="evenodd" d="M8.507 17.03a.33.33 0 0 1-.274-.148 6.2 6.2 0 0 1-.894-2.156.327.327 0 1 1 .641-.132 5.5 5.5 0 0 0 .8 1.929.327.327 0 0 1-.273.507"/></svg>