<svg xmlns="http://www.w3.org/2000/svg" width="39.727" height="39.727"><path d="M39.727 16.019V5.767a.64.64 0 0 0-.339-.566L29.777.075a.65.65 0 0 0-.6 0L19.562 5.2a.64.64 0 0 0-.339.566v6.621l-8.669-4.623a.65.65 0 0 0-.6 0L.339 12.89a.64.64 0 0 0-.339.566v20.5a.64.64 0 0 0 .339.566l9.611 5.126a.65.65 0 0 0 .6 0l9.31-4.965 9.31 4.965a.65.65 0 0 0 .6 0l9.611-5.126a.64.64 0 0 0 .339-.566V23.708a.64.64 0 0 0-.339-.566l-6.141-3.278 6.148-3.279a.64.64 0 0 0 .339-.566M29.475 1.367l8.25 4.4-8.25 4.4-8.25-4.4ZM1.282 14.524l8.33 4.442v8.8l-8.33-4.442Zm17.941 8.8-8.33 4.442v-8.8l8.33-4.443Zm-8.33 5.895 8.33-4.443v8.8l-8.33 4.442ZM20.5 17.087l5.206 2.776L20.5 22.64Zm0-1.453v-8.8l8.33 4.442v8.8ZM10.252 9.057l8.25 4.4-8.25 4.4L2 13.456Zm-8.97 15.719 8.33 4.442v8.8l-8.33-4.442Zm19.223 0 8.33 4.442v8.8L20.5 33.576Zm9.611 13.242v-8.8l8.33-4.443v8.8Zm7.609-14.31-8.25 4.4-8.25-4.4 5.847-3.118 2.1 1.121a.65.65 0 0 0 .6 0l2.1-1.121Zm-7.609-3.631v-8.8l8.33-4.443v8.8Z"/></svg>