<svg xmlns="http://www.w3.org/2000/svg" width="40.531" height="48.207"><path d="m40.135 31.459-2.716-.981a11.8 11.8 0 0 0-1.358-3.319l1.207-2.64a.69.69 0 0 0-.151-.83l-1.735-1.735a.71.71 0 0 0-.83-.151l-2.639 1.206a14.3 14.3 0 0 0-3.319-1.433l-1.056-2.716a.725.725 0 0 0-.679-.528h-2.416a.725.725 0 0 0-.679.528l-.981 2.716a12.8 12.8 0 0 0-3.319 1.356l-2.64-1.207a.69.69 0 0 0-.83.151l-1.735 1.735a.69.69 0 0 0-.151.83l1.207 2.64a12.8 12.8 0 0 0-1.358 3.319l-2.716 1.056a.725.725 0 0 0-.528.679v2.417a.725.725 0 0 0 .528.679l2.716.981a12.8 12.8 0 0 0 1.356 3.32l-1.207 2.64a.69.69 0 0 0 .151.83l1.735 1.66a.69.69 0 0 0 .83.151l2.64-1.207a11.4 11.4 0 0 0 3.319 1.358l.981 2.716a.725.725 0 0 0 .679.528h2.414a.725.725 0 0 0 .679-.528l.981-2.716a11.8 11.8 0 0 0 3.319-1.358l2.64 1.207a.69.69 0 0 0 .83-.151l1.66-1.66a.69.69 0 0 0 .151-.83l-1.202-2.64a14 14 0 0 0 1.358-3.319l2.716-.981a.725.725 0 0 0 .528-.679v-2.415a.54.54 0 0 0-.377-.679Zm-1.056 2.565-2.64.981a.65.65 0 0 0-.453.528 10.9 10.9 0 0 1-1.509 3.621.9.9 0 0 0-.075.754l1.207 2.49-.981.981-2.49-1.207a.9.9 0 0 0-.754.075 12.7 12.7 0 0 1-3.621 1.509.8.8 0 0 0-.528.453l-.905 2.565h-1.359l-.905-2.64a.65.65 0 0 0-.528-.453 10.9 10.9 0 0 1-3.625-1.509.9.9 0 0 0-.754-.075l-2.49 1.207-.981-.981 1.207-2.49a.9.9 0 0 0-.075-.754 12.7 12.7 0 0 1-1.507-3.622.8.8 0 0 0-.453-.528l-2.64-.981v-1.357l2.64-.981a.65.65 0 0 0 .453-.528 10.9 10.9 0 0 1 1.509-3.621.9.9 0 0 0 .075-.754l-1.207-2.49.981-.981 2.49 1.207a.9.9 0 0 0 .754-.075 10.9 10.9 0 0 1 3.621-1.509.8.8 0 0 0 .528-.453l.981-2.64h1.283l.981 2.64a.65.65 0 0 0 .528.453 10.9 10.9 0 0 1 3.621 1.509.9.9 0 0 0 .754.075l2.491-1.211.981.981-1.207 2.49a.9.9 0 0 0 .075.754 11.1 11.1 0 0 1 1.509 3.621.8.8 0 0 0 .453.528l2.64.981v1.433Z"/><path d="M26.781 28.517a4.962 4.962 0 0 0-5.96 5.884 4.87 4.87 0 0 0 3.7 3.7c6.485 1.505 8.522-8.151 2.26-9.584m-1.886 8.143a3.54 3.54 0 0 1-2.565-2.565 3.4 3.4 0 0 1 4.149-4.074c4.379.985 2.792 7.624-1.584 6.639M10.486 10.939l1.509.528a8.2 8.2 0 0 0 .754 1.886l-.679 1.509a.69.69 0 0 0 .151.83l1.056 1.056a.69.69 0 0 0 .83.151l1.509-.679a8.2 8.2 0 0 0 1.886.754l.528 1.509a.725.725 0 0 0 .679.528h1.509a.725.725 0 0 0 .679-.528l.528-1.509a8.2 8.2 0 0 0 1.886-.754l1.509.679a.69.69 0 0 0 .83-.151l1.056-1.056a.69.69 0 0 0 .151-.83l-.679-1.509a8.2 8.2 0 0 0 .754-1.886l1.509-.528a.725.725 0 0 0 .528-.679V8.751a.725.725 0 0 0-.528-.679l-1.509-.528a8.2 8.2 0 0 0-.754-1.886l.68-1.509a.69.69 0 0 0-.151-.83l-.981-1.056a.71.71 0 0 0-.83-.151l-1.509.679a8.2 8.2 0 0 0-1.886-.754L20.973.528A.82.82 0 0 0 20.218 0h-1.509a.725.725 0 0 0-.679.528l-.528 1.509a8.2 8.2 0 0 0-1.886.754l-1.509-.679a.69.69 0 0 0-.83.151l-1.056 1.056a.69.69 0 0 0-.151.83l.679 1.509a8.2 8.2 0 0 0-.754 1.886l-1.509.528a.725.725 0 0 0-.528.679v1.509a.84.84 0 0 0 .528.679m1.056-1.66 1.433-.528a.65.65 0 0 0 .453-.528 5.3 5.3 0 0 1 .905-2.112.9.9 0 0 0 .075-.754L13.806 4l.3-.3 1.358.6a.9.9 0 0 0 .754-.075 5.8 5.8 0 0 1 2.112-.905.8.8 0 0 0 .528-.453l.453-1.358h.453l.528 1.433a.65.65 0 0 0 .528.453 5.3 5.3 0 0 1 2.112.905.9.9 0 0 0 .754.075l1.358-.6.3.3-.6 1.358a.9.9 0 0 0 .075.754 6.6 6.6 0 0 1 .906 2.113.8.8 0 0 0 .453.528l1.433.528v.453l-1.433.528a.65.65 0 0 0-.453.528 5.8 5.8 0 0 1-.905 2.112.9.9 0 0 0-.075.754l.6 1.358-.3.3-1.358-.6a.9.9 0 0 0-.754.075 7.5 7.5 0 0 1-2.112.905.8.8 0 0 0-.528.453l-.528 1.433h-.377l-.6-1.584a.65.65 0 0 0-.528-.453 5.3 5.3 0 0 1-2.112-.905.9.9 0 0 0-.754-.075l-1.358.679-.3-.3.6-1.358a.9.9 0 0 0-.078-.759 7.5 7.5 0 0 1-.905-2.112.8.8 0 0 0-.453-.528l-1.433-.528v-.453Z"/><path d="M19.54 12.825a3.334 3.334 0 1 0-2.339-5.734 3.35 3.35 0 0 0-.905 3.018 3.26 3.26 0 0 0 3.244 2.716m1.735-3.7a1.77 1.77 0 0 1-2.112 2.112 1.86 1.86 0 0 1-1.434-1.433 1.806 1.806 0 0 1 3.546-.679M11.241 22.481a.713.713 0 0 0-.754-.754H3.772a.755.755 0 0 0 0 1.509h6.714a.81.81 0 0 0 .755-.755M.754 19.69h6.714a.755.755 0 0 0 0-1.509H.754a.755.755 0 0 0 0 1.509M7.469 25.273H.754a.755.755 0 1 0 0 1.509h6.714a.755.755 0 1 0 0-1.509Z"/></svg>