<svg xmlns="http://www.w3.org/2000/svg" width="43.468" height="48.31"><path d="M17.776 13.09a5.6 5.6 0 1 0 7.916 0 5.6 5.6 0 0 0-7.916 0m7.066 7.066a4.4 4.4 0 1 1 0-6.216 4.4 4.4 0 0 1 0 6.22Zm3.943-10.159a9.971 9.971 0 1 0 0 14.1 9.906 9.906 0 0 0 0-14.1m-.85 13.252a8.77 8.77 0 1 1 0-12.4 8.71 8.71 0 0 1 0 12.4m12.527 13.792a3.01 3.01 0 0 0-2.946 2.4h-2.518l-2.969-1.714v-6.852l3.7-3.7a.866.866 0 0 0 .021-1.215l-1.891-2.012a13.9 13.9 0 0 0 1.323-3.2l2.759-.085a.866.866 0 0 0 .844-.87v-5.484a.867.867 0 0 0-.843-.87l-2.76-.085a13.9 13.9 0 0 0-1.323-3.2l1.89-2.012a.866.866 0 0 0-.019-1.211l-3.88-3.876a.866.866 0 0 0-1.211-.019l-2.012 1.889a14 14 0 0 0-3.2-1.323L25.35.843A.866.866 0 0 0 24.48 0h-5.49a.867.867 0 0 0-.87.843l-.085 2.76a13.9 13.9 0 0 0-3.2 1.325l-2.009-1.892a.866.866 0 0 0-1.212.018l-3.88 3.881a.866.866 0 0 0-.018 1.212l1.891 2.009a13.9 13.9 0 0 0-1.326 3.2l-2.758.083a.866.866 0 0 0-.844.87v5.487a.867.867 0 0 0 .844.87l2.758.083a13.8 13.8 0 0 0 1.326 3.2l-1.89 2.011a.866.866 0 0 0 .018 1.212l3.7 3.7v6.857l-2.969 1.714H5.95a3.006 3.006 0 1 0 0 1.2h2.68a.6.6 0 0 0 .3-.08l3.409-1.968a.6.6 0 0 0 .3-.521v-6.87a.9.9 0 0 0 .185-.133l2.009-1.891a13.9 13.9 0 0 0 3.2 1.326l.083 2.758a.866.866 0 0 0 .87.844h2.142v8.251a3.006 3.006 0 1 0 1.2 0v-8.253h2.143a.866.866 0 0 0 .87-.844l.083-2.758a13.9 13.9 0 0 0 3.2-1.324l2.012 1.89a1 1 0 0 0 .184.132v6.876a.6.6 0 0 0 .3.521l3.409 1.968a.6.6 0 0 0 .3.08h2.68a3.006 3.006 0 1 0 2.946-3.607ZM3.007 41.85a1.8 1.8 0 1 1 1.8-1.8 1.805 1.805 0 0 1-1.8 1.8m20.53 3.452a1.8 1.8 0 1 1-1.8-1.8 1.805 1.805 0 0 1 1.8 1.8m5.736-17.169a.864.864 0 0 0-1.039-.114 12.7 12.7 0 0 1-3.343 1.383.86.86 0 0 0-.654.817l-.08 2.683h-4.843l-.08-2.684a.86.86 0 0 0-.655-.817 12.7 12.7 0 0 1-3.346-1.385.86.86 0 0 0-1.04.115l-1.953 1.84-3.424-3.424 1.84-1.953a.865.865 0 0 0 .115-1.041 12.7 12.7 0 0 1-1.385-3.346.86.86 0 0 0-.817-.655l-2.683-.08v-4.84l2.683-.08a.86.86 0 0 0 .817-.655 12.7 12.7 0 0 1 1.385-3.346.86.86 0 0 0-.115-1.04L8.814 7.557l3.424-3.424 1.953 1.84a.864.864 0 0 0 1.041.114 12.7 12.7 0 0 1 3.342-1.384.86.86 0 0 0 .654-.816l.084-2.685h4.843l.083 2.685a.86.86 0 0 0 .654.816 12.7 12.7 0 0 1 3.34 1.382.86.86 0 0 0 1.04-.114l1.957-1.839 3.421 3.424-1.839 1.957a.865.865 0 0 0-.114 1.04 12.7 12.7 0 0 1 1.382 3.34.86.86 0 0 0 .816.654l2.685.083v4.843l-2.685.083a.86.86 0 0 0-.816.655 12.7 12.7 0 0 1-1.382 3.34.864.864 0 0 0 .114 1.04l1.839 1.959-3.42 3.424ZM40.462 41.85a1.8 1.8 0 1 1 1.8-1.8 1.805 1.805 0 0 1-1.8 1.8"/></svg>