<svg xmlns="http://www.w3.org/2000/svg" width="48.805" height="48.207"><path d="m.453 31.312 3.469 1.632a2.25 2.25 0 0 0 .959.215 2.27 2.27 0 0 0 1.659-.721l1.344.965a5.7 5.7 0 0 1 .82 1.929 9.7 9.7 0 0 0 .834 2.13l-.43.735a2.738 2.738 0 0 0 3.085 4.027 2.74 2.74 0 0 0 2.647 2.071 2.8 2.8 0 0 0 .7-.091l.023-.007a2.73 2.73 0 0 0 2.649 2.07 2.77 2.77 0 0 0 1.665-.558 2.72 2.72 0 0 0 2.374 1.388 2.77 2.77 0 0 0 1.743-.619l2.216 1.316a2.94 2.94 0 0 0 1.5.414 3 3 0 0 0 .744-.094 2.956 2.956 0 0 0 2.23-2.835 2.957 2.957 0 0 0 3.774-3.322 2.955 2.955 0 0 0 2.712-3.57 3 3 0 0 0 .384-.072 2.956 2.956 0 0 0 2.136-3.6 3 3 0 0 0-.166-.477 9.3 9.3 0 0 0 3.091-1.491 2.25 2.25 0 0 0 2.264.2l3.473-1.635a.787.787 0 1 0-.67-1.425l-3.469 1.632a.69.69 0 0 1-.916-.331l-5.372-11.426a.69.69 0 0 1 .328-.916l3.47-1.632a.787.787 0 1 0-.67-1.425l-3.47 1.632a2.27 2.27 0 0 0-1.3 2.066 12 12 0 0 1-2.893.721 19 19 0 0 1-3.781-.263c-2.592-.336-5.271-.683-7.066.374l-.985.58c-1.648-1.191-3.208-1-4.851-.805a12.3 12.3 0 0 1-3.464.067 8 8 0 0 1-.792-.158 2.27 2.27 0 0 0-1.234-2.581l-3.465-1.628a.787.787 0 1 0-.67 1.425l3.469 1.631a.69.69 0 0 1 .329.916L5.508 31.188a.69.69 0 0 1-.916.331l-3.47-1.632a.787.787 0 1 0-.669 1.425m10.432 9.276a1.17 1.17 0 0 1-.418-1.6l.665-1.136.033-.056 1.271-2.172a1.167 1.167 0 1 1 2.016 1.177l-1.969 3.366a1.17 1.17 0 0 1-1.6.418Zm3.375 1.974a1.167 1.167 0 0 1-.417-1.6l1.969-3.367a1.167 1.167 0 1 1 2.013 1.18l-1.97 3.365a1.17 1.17 0 0 1-1.595.417Zm3.372 1.975a1.17 1.17 0 0 1-.418-1.6l1.969-3.364a1.169 1.169 0 0 1 2.019 1.177l-.986 1.685-.316.536q-.022.037-.042.076l-.625 1.068a1.173 1.173 0 0 1-1.6.419Zm4.043.832a1.17 1.17 0 0 1-.538-.715 1.15 1.15 0 0 1 .1-.845l.335-.572.992-1.684a1.165 1.165 0 0 1 2.137.3 1.15 1.15 0 0 1-.121.879l-1.3 2.219a1.176 1.176 0 0 1-1.6.422Zm1.672-23.686c1.328-.783 3.845-.457 6.064-.169a19.8 19.8 0 0 0 4.134.269 13.3 13.3 0 0 0 3.218-.786l4.928 10.475a8.4 8.4 0 0 1-3.329 1.437l-.025-.015-4.635-2.749a.8.8 0 0 0-.46-.108c-3.281.243-6.747-.079-9.857-4.043a.79.79 0 0 0-.89-.253l-1.879.689a.8.8 0 0 0-.363.272l-1.27 1.73a2.07 2.07 0 0 1-2.607.829.964.964 0 0 1-.379-1.429l2.175-3.106 3.719-2.189Zm-6.445-.021a5.64 5.64 0 0 1 3.115.153l-2.789 1.641a.8.8 0 0 0-.246.227l-2.271 3.244a2.54 2.54 0 0 0 1 3.762 3.645 3.645 0 0 0 4.533-1.315l1.14-1.547 1.13-.414c3.4 4.034 7.24 4.431 10.6 4.213l4.419 2.622a1.391 1.391 0 1 1-1.42 2.391l-3.576-2.12a.787.787 0 1 0-.8 1.354l3.222 1.91.03.02a1.391 1.391 0 0 1-1.42 2.392l-3.557-2.111a.787.787 0 1 0-.8 1.354l3.034 1.8.01.007a1.391 1.391 0 0 1-1.42 2.392l-1.589-.943-1.462-.868a.787.787 0 1 0-.8 1.354l1.462.868a1.41 1.41 0 0 1 .485 1.906 1.4 1.4 0 0 1-1.905.488l-2.072-1.23.99-1.684a2.737 2.737 0 0 0-3.087-4.027l-.007-.03a2.733 2.733 0 0 0-3.368-1.949l-.006-.025a2.733 2.733 0 0 0-3.375-1.953 2.74 2.74 0 0 0-5.023-.712l-.569.971c-.107-.3-.2-.616-.3-.928a6.4 6.4 0 0 0-1.23-2.606l-.051-.053-1.618-1.162 4.509-9.585a10 10 0 0 0 1.2.255 13.8 13.8 0 0 0 3.882-.062m7.2-4.259a.79.79 0 0 0 .6 0c3.644-1.489 7.537-6.015 7.537-14.253a.787.787 0 0 0-.779-.787A10.2 10.2 0 0 1 24.898.175a.79.79 0 0 0-.989 0 10.2 10.2 0 0 1-6.563 2.187.787.787 0 0 0-.779.787c0 8.239 3.894 12.765 7.535 14.254m.3-15.626a11.76 11.76 0 0 0 6.249 2.131c-.214 6.75-3.277 10.536-6.249 11.908-2.972-1.371-6.035-5.158-6.249-11.908a11.76 11.76 0 0 0 6.249-2.132Zm-1.14 9.13-1.333-1.283a.787.787 0 1 1 1.092-1.134l.751.722 1.976-2.167a.787.787 0 1 1 1.163 1.061L24.39 10.87a.79.79 0 0 1-.556.256h-.026a.8.8 0 0 1-.545-.219Z"/></svg>