<svg xmlns="http://www.w3.org/2000/svg" width="52.129" height="52.129"><path d="M11.017 37.585a2.354 2.354 0 0 0-1.277 3.084l1.208 2.928a2.37 2.37 0 0 0 3.084 1.277.64.64 0 0 1 .747.165 14.6 14.6 0 0 0 1.868 1.877.65.65 0 0 1 .174.721 2.37 2.37 0 0 0 1.277 3.084l2.927 1.207a2.363 2.363 0 0 0 3.084-1.277.64.64 0 0 1 .634-.391 15 15 0 0 0 2.606 0 .66.66 0 0 1 .643.408 2.33 2.33 0 0 0 1.277 1.277 2.4 2.4 0 0 0 .869.182 2.3 2.3 0 0 0 .869-.182l2.928-1.208a2.37 2.37 0 0 0 1.277-3.084.64.64 0 0 1 .165-.747 14 14 0 0 0 1.98-1.867.64.64 0 0 1 .747-.165 2.37 2.37 0 0 0 3.084-1.277l1.208-2.928a2.354 2.354 0 0 0-1.277-3.084.64.64 0 0 1-.408-.643c0-.443.061-.869.061-1.321h-1.736a8.5 8.5 0 0 1-.052 1.156 2.37 2.37 0 0 0 1.473 2.415.634.634 0 0 1 .339.817l-1.213 2.919a.626.626 0 0 1-.817.339 2.38 2.38 0 0 0-2.745.66 13 13 0 0 1-1.642 1.651 2.36 2.36 0 0 0-.66 2.737.626.626 0 0 1-.339.817l-2.971 1.208a.6.6 0 0 1-.469 0 .64.64 0 0 1-.339-.339 2.38 2.38 0 0 0-2.407-1.473 13 13 0 0 1-2.328 0 2.37 2.37 0 0 0-2.409 1.464.617.617 0 0 1-.808.321l-2.928-1.208a.626.626 0 0 1-.348-.8 2.37 2.37 0 0 0-.66-2.745 13 13 0 0 1-1.651-1.642 2.36 2.36 0 0 0-2.737-.66.626.626 0 0 1-.817-.339L11.292 40a.643.643 0 0 1 .374-.869 2.35 2.35 0 0 0 1.442-2.354c0-.4-.052-.808-.052-1.2h-1.735a10 10 0 0 0 .061 1.355.6.6 0 0 1-.365.652Z"/><path d="M26.064 45.178a9.557 9.557 0 0 0 9.557-9.557h-1.738a7.82 7.82 0 1 1-15.639 0h-1.737a9.557 9.557 0 0 0 9.557 9.557M45.178 12.164a.87.87 0 0 0-.869-.869h-6.95a.87.87 0 0 0-.869.869v19.983h-6.082v-13.9a.87.87 0 0 0-.869-.869h-6.95a.87.87 0 0 0-.869.869v13.9h-6.081v-7.82a.87.87 0 0 0-.869-.869H7.819a.87.87 0 0 0-.869.869v7.819H0v1.738h52.129v-1.737h-6.951ZM13.9 32.147H8.688v-6.952H13.9Zm14.77 0h-5.212V19.114h5.213Zm14.77 0h-5.212V13.033h5.213ZM4.527 20.434 44.944 4.205l-1.5 2.685 1.512.869 2.737-4.848a.87.87 0 0 0-.5-1.26L41.842 0l-.5 1.738 2.971.869-40.438 16.22Z"/></svg>