<svg xmlns="http://www.w3.org/2000/svg" width="60" height="60" fill="none"><path fill="#282928" d="m6.434 41.308 4.699-.035c.832 0 1.547.562 1.805 1.324l8.367-4.816a19.4 19.4 0 0 1-5.508-5.204l-.035 1.583a.813.813 0 0 1-.832.796.813.813 0 0 1-.797-.832l.094-4.406a.824.824 0 0 1 1.277-.668l3.738 2.262a.83.83 0 0 1 .281 1.125.83.83 0 0 1-1.125.281l-.785-.48a18 18 0 0 0 5.344 4.605l1.3-.75c2.696-1.336 4.805-1.312 6.106-.621 1.407.75 1.899 2.273 1.29 3.715 10.71.058 19.136-9.235 17.94-19.957a.825.825 0 0 1 .727-.903.825.825 0 0 1 .903.727c1.195 10.664-6.446 20.356-17.157 21.645-1.207.14-2.414.175-3.586.093-.445.41-1.007.774-1.687 1.102-1.77.96-3.363 1.887-4.535 2.637-.434.28-.797.504-1.055.668.867.07 2.59.175 4.653.363 1.066.094 2.19.187 3.316.258a46 46 0 0 0 3.058-1.055c1.102-.41 1.922-.75 2.051-.832l7.125-5.04.035-.023c1.875-1.207 4.418-1.476 5.743-.222.375.351.597.797.644 1.312 1.875-.726 4.207-.586 5.238.762.305.398.47.867.434 1.371-.047.773-.54 1.617-1.652 2.39-.68.458-1.805 1.266-3.13 2.204-5.19 3.68-13.277 9.41-16.277 10.289a.569.569 0 0 1-.14.023c-2.168.235-16.746.153-21.434.223a1.91 1.91 0 0 1-1.758 1.125l-4.699.035c-1.055 0-1.91-.914-1.91-1.945.047-4.395.012-8.813.023-13.207 0-1.102.856-1.922 1.91-1.922m6.586 14.039v.2c3.937-.06 20.039-.012 21.023-.212 2.8-.867 10.652-6.433 15.715-10.02 1.195-.843 2.226-1.581 3.152-2.214.961-.668 1.36-1.324.363-1.758-.773-.34-1.992-.328-3.27.293l-9.925 5.543c-1.652.926-10.113.2-12.375-.012-2.379-.222-4.488-.539-5.637-.855a.82.82 0 0 1-.878-.399c-.47-.832.714-1.828 2.18-2.777 1.195-.773 2.835-1.723 4.64-2.695.023-.012.058-.035.082-.047.926-.434 2.039-1.242 2.168-2.274.07-.527-.188-.96-.668-1.218-.88-.47-2.45-.422-4.606.644l-11.941 6.867zM11.12 42.902l-4.676.035c-.152 0-.293.105-.293.258-.011 4.406-.023 8.8-.023 13.207 0 .152.14.316.281.316l4.688-.035c.222 0 .293-.14.293-.316l.011-12.422v-.727c.012-.14-.117-.316-.28-.316m24.434 3.093c.96.012 3.27.012 3.726-.246l8.38-4.675c.398-.41.562-.75.538-.997-.058-.644-1.968-1.078-3.879.153l-7.09 5.015c-.187.13-.82.41-1.675.75M47.754 8.296a.82.82 0 0 1 .832-.797.83.83 0 0 1 .809.832l-.094 4.407a.817.817 0 0 1-1.266.668l-3.738-2.274a.83.83 0 0 1-.281-1.125.82.82 0 0 1 1.125-.281l.773.469c-4.617-5.907-12.492-8.438-19.828-5.989C18 6.902 12.996 14.86 13.934 23.25a.81.81 0 0 1-.727.903.817.817 0 0 1-.902-.727c-1.02-9.14 4.453-17.824 13.277-20.766 8.297-2.765 17.215.305 22.149 7.231zM31.758 15.2a6.034 6.034 0 0 1 6.035 6.035 6.024 6.024 0 0 1-6.035 6.023 6.024 6.024 0 0 1-6.035-6.023 6.034 6.034 0 0 1 6.035-6.036m3.105 2.93a4.4 4.4 0 0 0-6.21 0 4.4 4.4 0 0 0 0 6.21 4.4 4.4 0 0 0 6.21 0 4.38 4.38 0 0 0 0-6.21m-4.816-8.93h3.422c.457 0 .82.363.82.82V11.6a9.823 9.823 0 0 1 2.484 1.031l1.114-1.113a.83.83 0 0 1 1.16 0l2.426 2.426a.83.83 0 0 1 0 1.16l-1.114 1.113a9.9 9.9 0 0 1 1.032 2.484h1.582c.457 0 .82.364.82.82v3.423c0 .457-.363.82-.82.82H41.39a10 10 0 0 1-1.032 2.484l1.114 1.114a.83.83 0 0 1 0 1.16l-2.426 2.414a.807.807 0 0 1-1.16 0l-1.114-1.114a9.9 9.9 0 0 1-2.484 1.032v1.582c0 .457-.363.82-.82.82h-3.422a.815.815 0 0 1-.82-.82v-1.582a10 10 0 0 1-2.485-1.032l-1.113 1.114a.807.807 0 0 1-1.16 0l-2.426-2.426a.83.83 0 0 1 0-1.16l1.113-1.113a9.9 9.9 0 0 1-1.031-2.485h-1.582a.815.815 0 0 1-.82-.82V19.51c0-.457.363-.82.82-.82h1.582a9.6 9.6 0 0 1 1.031-2.485l-1.113-1.113a.83.83 0 0 1 0-1.16l2.426-2.426a.83.83 0 0 1 1.16 0l1.113 1.113a10 10 0 0 1 2.485-1.03v-1.571c0-.445.375-.809.82-.82m2.601 1.64h-1.793v1.371a.824.824 0 0 1-.668.856 8.3 8.3 0 0 0-3.07 1.254.82.82 0 0 1-1.078-.07l-.996-.997-1.254 1.266.996.996a.83.83 0 0 1 .094 1.043 8.7 8.7 0 0 0-.809 1.488 9 9 0 0 0-.48 1.57.813.813 0 0 1-.809.727h-1.406v1.781h1.406c.387 0 .727.27.809.668.105.563.27 1.102.48 1.617q.317.756.774 1.442a.82.82 0 0 1-.07 1.078l-.997.996 1.266 1.254.996-.996a.82.82 0 0 1 1.043-.106 8.7 8.7 0 0 0 1.488.809 8 8 0 0 0 1.57.469c.41.047.727.398.727.808v1.407h1.781v-1.407c0-.386.282-.726.668-.808a8.3 8.3 0 0 0 3.07-1.254.797.797 0 0 1 1.079.07l.996.996 1.266-1.254-.996-.996a.83.83 0 0 1-.094-1.043 8.7 8.7 0 0 0 .808-1.488 8.7 8.7 0 0 0 .48-1.57.813.813 0 0 1 .81-.727h1.406v-1.781h-1.407a.825.825 0 0 1-.808-.668 8.3 8.3 0 0 0-.48-1.617 8.5 8.5 0 0 0-.774-1.442.82.82 0 0 1 .07-1.078l.996-.996-1.265-1.265-.996.996a.815.815 0 0 1-1.043.093 8.7 8.7 0 0 0-1.489-.808 8.7 8.7 0 0 0-1.57-.48.82.82 0 0 1-.727-.81z"/></svg>