<svg xmlns="http://www.w3.org/2000/svg" width="60" height="60" fill="none"><path fill="#282928" d="M7.82 12h27.36c.453 0 .82-.448.82-1s-.367-1-.82-1H7.82c-.453 0-.82.448-.82 1s.367 1 .82 1"/><path fill="#282928" d="M57.18 37.966c.453 0 .82-.369.82-.824V8.145A3.14 3.14 0 0 0 54.87 5H5.13A3.14 3.14 0 0 0 2 8.145v43.71A3.14 3.14 0 0 0 5.13 55h49.74A3.14 3.14 0 0 0 58 51.855v-15.86a.82.82 0 0 0-.82-.825.82.82 0 0 0-.82.825v15.86c0 .826-.669 1.497-1.49 1.497H5.13c-.821 0-1.49-.671-1.49-1.497v-35.35h12.156c.454 0 .82-.37.82-.825a.82.82 0 0 0-.82-.824H3.641V8.145c0-.825.668-1.497 1.49-1.497h49.738c.822 0 1.49.672 1.49 1.497v6.711H9.631a.82.82 0 0 0-.82.824c0 .455.367.824.82.824H56.36v20.638c0 .455.367.824.82.824"/><path fill="#282928" d="M53 11c0-1.654-1.346-3-3-3s-3 1.346-3 3 1.346 3 3 3 3-1.346 3-3m-4.25 0a1.25 1.25 0 1 1 2.5 0 1.25 1.25 0 0 1-2.5 0M45 11c0-1.654-1.346-3-3-3s-3 1.346-3 3 1.346 3 3 3 3-1.346 3-3m-4.25 0a1.25 1.25 0 1 1 2.5 0 1.25 1.25 0 0 1-2.5 0m11.43 14.276H41.15v-.007c0-1.251-1.088-2.269-2.425-2.269s-2.424 1.018-2.424 2.27v.006h-1.48c-.454 0-.821.343-.821.768 0 .424.367.768.82.768h1.483C36.35 28.025 37.418 29 38.725 29s2.377-.974 2.423-2.188h11.031c.454 0 .821-.344.821-.768s-.367-.768-.82-.768M39.509 26.73c0 .404-.352.733-.784.733-.431 0-.783-.329-.783-.733v-1.462c0-.404.352-.733.783-.733s.784.329.784.733zm12.671 7.502h-1.482c-.022-1.234-1.1-2.232-2.424-2.232s-2.401.998-2.423 2.232h-11.03c-.454 0-.821.344-.821.768s.367.768.82.768h11.031c.022 1.234 1.1 2.232 2.423 2.232 1.324 0 2.402-.998 2.424-2.232h1.481c.454 0 .821-.344.821-.768s-.367-.768-.82-.768m-3.122 1.499c0 .404-.352.733-.784.733-.431 0-.783-.329-.783-.733v-1.462c0-.404.352-.733.783-.733s.784.33.784.733zm3.122 6.501H41.149c-.022-1.234-1.1-2.232-2.424-2.232s-2.401.998-2.423 2.232h-1.481c-.454 0-.821.344-.821.768s.367.768.82.768h1.482c.022 1.234 1.1 2.232 2.423 2.232 1.324 0 2.402-.998 2.424-2.232h11.03c.454 0 .821-.344.821-.768s-.367-.768-.82-.768m-12.671 1.499c0 .404-.352.733-.784.733-.431 0-.783-.329-.783-.733v-1.462c0-.404.352-.733.783-.733s.784.329.784.733zM18 29c-3.308 0-6 2.692-6 6 0 3.309 2.692 6 6 6s6-2.692 6-6-2.692-6-6-6m0 10.36A4.364 4.364 0 0 1 13.64 35 4.364 4.364 0 0 1 18 30.64 4.364 4.364 0 0 1 22.36 35 4.364 4.364 0 0 1 18 39.36"/><path fill="#282928" d="M28.516 36.974c.818 0 1.484-.665 1.484-1.484v-1.98c0-.819-.666-1.484-1.484-1.484h-.484a9.8 9.8 0 0 0-1.043-2.516l.343-.343c.28-.28.434-.653.434-1.05 0-.396-.154-.768-.434-1.048l-1.4-1.401a1.486 1.486 0 0 0-2.099 0l-.343.343a9.8 9.8 0 0 0-2.516-1.043v-.484c0-.818-.665-1.484-1.484-1.484h-1.98c-.819 0-1.484.666-1.484 1.484v.484a9.8 9.8 0 0 0-2.516 1.043l-.343-.343a1.485 1.485 0 0 0-2.098 0l-1.401 1.4c-.28.28-.435.653-.435 1.05 0 .396.155.769.435 1.049l.343.342a9.8 9.8 0 0 0-1.043 2.517h-.484c-.818 0-1.484.665-1.484 1.483v1.981c0 .818.666 1.484 1.484 1.484h.484a9.8 9.8 0 0 0 1.043 2.516l-.343.343c-.28.28-.435.653-.435 1.05 0 .396.155.768.435 1.048l1.4 1.401c.58.579 1.52.579 2.099 0l.343-.343a9.8 9.8 0 0 0 2.516 1.043v.484c0 .818.665 1.484 1.484 1.484h1.98c.819 0 1.484-.666 1.484-1.484v-.484a9.8 9.8 0 0 0 2.516-1.043l.343.343c.579.579 1.52.578 2.099 0l1.4-1.4c.28-.28.434-.654.434-1.05s-.154-.769-.434-1.049l-.343-.343a9.8 9.8 0 0 0 1.043-2.516zm-2.034-.492a8.2 8.2 0 0 1-.936 2.26 1.484 1.484 0 0 0 .218 1.82l.321.32-1.203 1.203-.32-.32a1.484 1.484 0 0 0-1.82-.22 8.2 8.2 0 0 1-2.26.937 1.48 1.48 0 0 0-1.131 1.441v.453H17.65v-.453c0-.683-.466-1.276-1.132-1.44a8.2 8.2 0 0 1-2.26-.937 1.484 1.484 0 0 0-1.82.218l-.32.321-1.203-1.203.321-.32a1.484 1.484 0 0 0 .218-1.82 8.2 8.2 0 0 1-.936-2.26 1.48 1.48 0 0 0-1.441-1.131h-.453v-1.702h.453c.684 0 1.276-.465 1.44-1.13a8.2 8.2 0 0 1 .938-2.26 1.484 1.484 0 0 0-.219-1.82l-.321-.321 1.203-1.203.32.32a1.484 1.484 0 0 0 1.82.22 8.2 8.2 0 0 1 2.26-.937 1.48 1.48 0 0 0 1.131-1.441v-.454h1.702v.454c0 .683.465 1.276 1.13 1.44a8.2 8.2 0 0 1 2.26.937 1.484 1.484 0 0 0 1.82-.218l.321-.321 1.203 1.203-.32.32a1.484 1.484 0 0 0-.22 1.82c.425.704.74 1.464.937 2.26a1.48 1.48 0 0 0 1.441 1.131h.453v1.702h-.453c-.683 0-1.276.465-1.44 1.13"/></svg>