<svg xmlns="http://www.w3.org/2000/svg" width="60" height="60" fill="none"><path fill="#282928" d="M52.894 36.198h-18.16a.634.634 0 0 1-.634-.635v-5.757c0-.35.284-.634.634-.634h18.16c.35 0 .634.284.634.634v5.757c0 .35-.284.634-.634.634M35.368 34.93H52.26v-4.49H35.368z"/><path fill="#282928" d="M53.255 57.996H34.37a2.48 2.48 0 0 1-2.475-2.475V28.364a2.477 2.477 0 0 1 2.475-2.473h18.884a2.477 2.477 0 0 1 2.475 2.473v27.158a2.48 2.48 0 0 1-2.475 2.474M34.37 27.157c-.665 0-1.207.542-1.207 1.206v27.158c0 .666.542 1.207 1.207 1.207h18.884c.665 0 1.207-.541 1.207-1.207V28.364c0-.665-.542-1.205-1.207-1.205H34.37z"/><path fill="#282928" d="M52.894 45.995h-2.688a.634.634 0 0 1-.634-.634v-2.688c0-.35.284-.634.634-.634h2.688c.35 0 .634.284.634.634v2.688c0 .35-.284.634-.634.634m-2.054-1.268h1.42v-1.42h-1.42zm2.054 11.065h-2.688a.634.634 0 0 1-.634-.635v-7.585c0-.35.284-.635.634-.635h2.688c.35 0 .634.285.634.635v7.585c0 .35-.284.635-.634.635m-2.054-1.269h1.42v-6.318h-1.42zm-3.155-8.528h-2.688a.634.634 0 0 1-.634-.634v-2.688c0-.35.284-.634.634-.634h2.688c.35 0 .634.284.634.634v2.688c0 .35-.284.634-.634.634m-2.054-1.268h1.42v-1.42h-1.42zm2.054 6.167h-2.688a.634.634 0 0 1-.634-.634v-2.688c0-.35.284-.635.634-.635h2.688c.35 0 .634.285.634.635v2.688c0 .35-.284.634-.634.634m-2.054-1.268h1.42v-1.42h-1.42zm2.057 6.162h-7.896a.634.634 0 0 1-.634-.634v-2.688c0-.35.284-.634.634-.634h7.896c.35 0 .634.284.634.634v2.688c0 .35-.285.634-.634.634m-7.262-1.268h6.628V53.1h-6.628zm2.054-8.525h-2.688a.634.634 0 0 1-.634-.634v-2.688c0-.35.284-.634.634-.634h2.688c.35 0 .634.284.634.634v2.688c0 .35-.284.634-.634.634m-2.054-1.268h1.42v-1.42h-1.42zm2.054 6.167h-2.688a.634.634 0 0 1-.634-.634v-2.688c0-.35.284-.635.634-.635h2.688c.35 0 .634.285.634.635v2.688c0 .35-.284.634-.634.634m-2.054-1.268h1.42v-1.42h-1.42zm-1.139-8.533h-4.704a.634.634 0 0 1-.634-.634V37.77c0-.35.284-.634.634-.634h4.704c.35 0 .634.284.634.634v2.688a.633.633 0 0 1-.634.634m-4.07-1.268h3.436v-1.42h-3.436zm2.054 6.171h-2.688a.634.634 0 0 1-.634-.634v-2.688c0-.35.284-.634.634-.634h2.688c.35 0 .634.284.634.634v2.688c0 .35-.284.634-.634.634m-2.054-1.268h1.42v-1.42h-1.42zm2.054 6.167h-2.688a.634.634 0 0 1-.634-.634v-2.688c0-.35.284-.635.634-.635h2.688c.35 0 .634.285.634.635v2.688c0 .35-.284.634-.634.634m-2.054-1.268h1.42v-1.42h-1.42zm2.054 6.162h-2.688a.634.634 0 0 1-.634-.634v-2.688c0-.35.284-.634.634-.634h2.688c.35 0 .634.284.634.634v2.688c0 .35-.284.634-.634.634m-2.054-1.268h1.42V53.1h-1.42zm17.678-13.427H48.19a.634.634 0 0 1-.634-.634V37.77c0-.35.284-.634.634-.634h4.704c.35 0 .634.284.634.634v2.688a.633.633 0 0 1-.634.634m-4.07-1.268h3.436v-1.42h-3.436zm-2.658 1.269h-4.704a.634.634 0 0 1-.634-.634V37.77c0-.35.284-.634.634-.634h4.704c.35 0 .634.284.634.634v2.688a.633.633 0 0 1-.634.634m-4.069-1.268h3.436v-1.42h-3.436z"/><path fill="#282928" d="M32.53 53.975H9.771a5.44 5.44 0 0 1-5.433-5.433V7.636A5.44 5.44 0 0 1 9.77 2.203h25.482a.634.634 0 0 1 0 1.268H9.77a4.17 4.17 0 0 0-4.165 4.165v40.908a4.17 4.17 0 0 0 4.165 4.165h22.76a.634.634 0 0 1 0 1.266m11.665-26.811a.634.634 0 0 1-.634-.634V11.78a.634.634 0 0 1 1.268 0v14.75c0 .35-.284.634-.634.634"/><path fill="#282928" d="M44.197 12.414h-6.581a3 3 0 0 1-2.995-2.995V2.837a.634.634 0 0 1 1.083-.449l8.943 8.943a.63.63 0 0 1 .137.691.64.64 0 0 1-.587.392m-8.31-8.047v5.05a1.73 1.73 0 0 0 1.728 1.728h5.05zM38.97 18.33h-9.46a.634.634 0 0 1 0-1.267h9.46a.634.634 0 0 1 0 1.267m.003 5.946H27.78a.634.634 0 0 1 0-1.268h11.194a.634.634 0 0 1 0 1.268m-6.444 5.945H18.454a.634.634 0 0 1 0-1.268H32.53a.634.634 0 0 1 0 1.268m0 5.945H18.454a.634.634 0 0 1 0-1.268H32.53a.634.634 0 0 1 0 1.268m0 5.946H18.454a.634.634 0 0 1 0-1.268H32.53a.634.634 0 0 1 0 1.268m0 5.945H18.454a.634.634 0 0 1 0-1.268H32.53a.634.634 0 0 1 0 1.268M11.504 31.892a.64.64 0 0 1-.449-.185l-1.307-1.308a.634.634 0 0 1 .896-.896l.859.858 2.894-2.894a.634.634 0 0 1 .897.896l-3.341 3.344a.64.64 0 0 1-.449.185m0 11.894a.64.64 0 0 1-.449-.185l-1.307-1.307a.634.634 0 0 1 .896-.896l.859.858 2.894-2.895a.635.635 0 0 1 .897.897L11.95 43.6a.63.63 0 0 1-.446.185m0 5.947a.64.64 0 0 1-.449-.185l-1.307-1.308a.634.634 0 0 1 .896-.896l.859.858 2.894-2.895a.635.635 0 0 1 .897.897l-3.344 3.343a.63.63 0 0 1-.446.186m0-11.895a.64.64 0 0 1-.449-.185l-1.307-1.307a.634.634 0 0 1 .896-.897l.859.859 2.894-2.895a.635.635 0 0 1 .897.896l-3.344 3.344a.63.63 0 0 1-.446.185m6.746-13.296c-4.791 0-8.687-3.896-8.687-8.686s3.896-8.687 8.686-8.687 8.687 3.896 8.687 8.687-3.897 8.686-8.687 8.686m0-16.104c-4.091 0-7.42 3.329-7.42 7.419s3.329 7.419 7.42 7.419 7.418-3.329 7.418-7.42-3.328-7.418-7.419-7.418"/><path fill="#282928" d="M18.337 12.483a.634.634 0 0 1-.634-.633v-1.427a.634.634 0 0 1 1.268 0v1.428c0 .35-.284.632-.634.632m-.174 9.443a.634.634 0 0 1-.634-.634v-1.428a.634.634 0 0 1 1.268 0v1.428c0 .35-.284.634-.634.634"/><path fill="#282928" d="M18.049 20.504q-.073 0-.145-.003c-1.09-.055-2.357-.792-2.34-2.687a.635.635 0 0 1 .635-.628h.006c.35.004.631.29.628.64-.012 1.117.61 1.383 1.134 1.41.787.038 1.578-.459 1.628-1.023l.003-.025c.138-1.059-1.26-1.653-1.69-1.81-1.829-.665-2.583-1.668-2.24-2.982.448-1.722 1.895-2.323 3.05-2.154 1.355.2 2.267 1.314 2.218 2.712a.635.635 0 0 1-1.268-.046c.033-.915-.591-1.332-1.135-1.412-.587-.086-1.368.181-1.64 1.22-.116.447-.022.936 1.447 1.47.654.238 2.767 1.167 2.516 3.154-.127 1.325-1.523 2.164-2.808 2.164"/></svg>