<svg xmlns="http://www.w3.org/2000/svg" width="60" height="60" fill="none"><path fill="#282928" d="M57.334 25.258H54.23v-3.124c0-.37-.299-.67-.667-.67H39.104c.523-1.23.797-2.561.797-3.918 0-5.493-4.442-9.962-9.901-9.962-5.46 0-9.901 4.469-9.901 9.962 0 1.357.273 2.687.796 3.918H6.436c-.368 0-.666.3-.666.67v3.124H2.666c-.368 0-.666.3-.666.67V57.33c0 .37.298.67.666.67h54.668c.368 0 .666-.3.666-.67V25.928c0-.37-.298-.67-.666-.67m-4.437-2.453v30.061H33.77a4.4 4.4 0 0 0-3.104 1.279v-18.1h2.339c.64 0 1.16-.524 1.16-1.168v-2.204a1.273 1.273 0 0 0 1.257-1.275v-3.365c.58-1.444 1.334-2.626 2.282-4.112.216-.34.442-.693.677-1.068l.03-.048zM34.09 28.572v2.76h-8.18v-2.76zM27.52 18.8h-1.316a1.32 1.32 0 0 1-1.312-1.323c0-.73.589-1.323 1.312-1.323s1.316.594 1.316 1.323zm1.332 8.433V20.14h2.296v7.092zm-1.685 5.441h5.666v2.032h-5.666zM30 8.924c4.725 0 8.569 3.868 8.569 8.622 0 1.632-.455 3.22-1.315 4.592q-.349.555-.671 1.058c-.923 1.446-1.669 2.615-2.273 4.036h-1.83V20.14h1.315c1.458 0 2.645-1.195 2.645-2.664s-1.187-2.663-2.645-2.663a2.66 2.66 0 0 0-2.647 2.663V18.8h-2.296v-1.323a2.66 2.66 0 0 0-2.648-2.663 2.656 2.656 0 0 0-2.644 2.663c0 1.469 1.186 2.664 2.644 2.664h1.315v7.092H25.69c-.605-1.42-1.35-2.59-2.273-4.035-.215-.337-.439-.687-.672-1.059a8.64 8.64 0 0 1-1.314-4.592c0-4.754 3.844-8.622 8.569-8.622m2.48 9.875v-1.323c0-.73.59-1.323 1.315-1.323s1.312.594 1.312 1.323c0 .73-.588 1.323-1.312 1.323zM7.102 22.805H21.59l.03.049q.352.56.677 1.067c.948 1.486 1.701 2.669 2.282 4.112v3.365c0 .7.562 1.269 1.256 1.275v2.204c0 .644.521 1.168 1.161 1.168h2.339v18.1a4.4 4.4 0 0 0-3.104-1.279H7.103zM3.332 56.66V26.598H5.77v26.938c0 .37.298.67.666.67H26.23a3.11 3.11 0 0 1 3.031 2.453zm53.336 0H30.739a3.11 3.11 0 0 1 3.031-2.453h19.794c.367 0 .666-.3.666-.67v-26.94h2.438zM18.7 7.657a.673.673 0 0 1 0-.948.663.663 0 0 1 .942 0l1.808 1.819c.26.262.262.688.002.95a.664.664 0 0 1-.94.001zM9.863 26.97c0-.37.294-.67.662-.67h10.01c.368 0 .666.3.666.67s-.298.67-.666.67h-10a.672.672 0 0 1-.672-.67m32.226-8.892c0-.37.297-.67.665-.67h2.56c.368 0 .666.3.666.67s-.298.67-.666.67h-2.557a.67.67 0 0 1-.668-.67M29.334 5.247V2.67c0-.37.298-.67.666-.67s.666.3.666.67v2.574a.667.667 0 1 1-1.332.003m9.47 21.723c0-.37.293-.67.661-.67h10.01c.368 0 .666.3.666.67s-.298.67-.666.67h-10a.672.672 0 0 1-.671-.67m.688-17.494-.945-.945 1.811-1.822a.663.663 0 0 1 .942 0c.26.262.26.686 0 .948zM14.02 18.078c0-.37.298-.67.666-.67h2.558c.367 0 .667.3.667.67s-.296.67-.664.67h-2.561a.67.67 0 0 1-.666-.67m4.197 20.955c-2.084 0-3.778 1.706-3.778 3.802s1.694 3.8 3.778 3.8 3.778-1.704 3.778-3.8-1.695-3.802-3.778-3.802m0 6.262a2.456 2.456 0 0 1-2.446-2.46 2.456 2.456 0 0 1 2.446-2.461 2.456 2.456 0 0 1 2.446 2.46 2.456 2.456 0 0 1-2.446 2.461m20.587-14.503c0-.37.293-.67.661-.67h10.01c.368 0 .666.3.666.67s-.298.67-.666.67h-10a.672.672 0 0 1-.671-.67m-28.27.67c-.368 0-.67-.3-.67-.67s.293-.67.66-.67h10.011c.368 0 .666.3.666.67s-.298.67-.666.67zm14.225 9.27h-.195a7 7 0 0 0-.38-.925l.135-.136a1.16 1.16 0 0 0 .345-.827 1.17 1.17 0 0 0-.341-.834l-1.314-1.322a1.17 1.17 0 0 0-1.644.003l-.14.14a6.5 6.5 0 0 0-.915-.381v-.197a1.17 1.17 0 0 0-1.167-1.171h-1.852c-.642 0-1.164.525-1.164 1.17v.198q-.47.155-.918.382l-.14-.14a1.15 1.15 0 0 0-.822-.342 1.15 1.15 0 0 0-.823.341l-1.31 1.319a1.165 1.165 0 0 0-.341.834c0 .314.123.608.34.822l.139.14q-.226.451-.381.926h-.196c-.642 0-1.164.525-1.164 1.171v1.863a1.17 1.17 0 0 0 1.164 1.175h.196q.155.475.38.922l-.133.135a1.16 1.16 0 0 0-.345.827c-.002.316.12.612.341.835l1.31 1.318c.22.22.511.341.823.341s.603-.12.822-.341l.14-.14q.447.226.918.381v.198a1.17 1.17 0 0 0 1.164 1.174h1.852c.643 0 1.167-.527 1.167-1.174v-.198q.471-.154.916-.381l.143.144a1.17 1.17 0 0 0 1.643-.004l.656-.66.655-.658a1.17 1.17 0 0 0 .341-.835 1.16 1.16 0 0 0-.341-.823l-.139-.14q.224-.443.38-.922h.195c.643 0 1.167-.526 1.167-1.174v-1.863a1.17 1.17 0 0 0-1.167-1.171m-.166 2.868h-.53a.67.67 0 0 0-.647.51 5.3 5.3 0 0 1-.626 1.517.67.67 0 0 0 .096.825l.376.379-1.073 1.08-.377-.379a.66.66 0 0 0-.817-.098 5.2 5.2 0 0 1-1.506.627.67.67 0 0 0-.512.652v.537H17.46v-.537a.67.67 0 0 0-.51-.652 5.3 5.3 0 0 1-1.512-.628.66.66 0 0 0-.816.1l-.375.376-1.072-1.079.375-.38a.67.67 0 0 0 .096-.82 5.3 5.3 0 0 1-.623-1.517.67.67 0 0 0-.648-.513h-.53v-1.528h.53a.67.67 0 0 0 .648-.514 5.35 5.35 0 0 1 .624-1.52.67.67 0 0 0-.097-.82l-.375-.38 1.072-1.078.375.376c.217.219.554.26.816.1a5.3 5.3 0 0 1 1.511-.628.67.67 0 0 0 .511-.652v-.534h1.518v.534c0 .31.212.58.512.652a5.2 5.2 0 0 1 1.506.627c.262.16.6.12.817-.099l.377-.378 1.073 1.08-.376.379a.67.67 0 0 0-.097.823c.284.468.495.98.627 1.521.073.3.34.511.647.511h.53zm12.395-6.909-1.31 1.318a1.17 1.17 0 0 0-.342.835c.001.314.124.608.34.822l.14.141a7 7 0 0 0-.38.925h-.198c-.641 0-1.163.525-1.163 1.171v1.863a1.17 1.17 0 0 0 1.163 1.175h.198q.156.477.379.922l-.134.135c-.221.22-.344.513-.345.827-.001.315.12.612.342.835l1.31 1.318c.45.453 1.188.455 1.65-.002l.136-.138q.446.226.917.381v.198a1.17 1.17 0 0 0 1.163 1.174h1.856a1.17 1.17 0 0 0 1.163-1.174v-.198q.471-.154.917-.381l.142.144c.456.45 1.194.45 1.644-.004l.655-.66.655-.658a1.17 1.17 0 0 0 .342-.835 1.16 1.16 0 0 0-.34-.822l-.139-.14q.223-.444.379-.923h.198a1.17 1.17 0 0 0 1.163-1.174v-1.863c0-.646-.522-1.171-1.163-1.171h-.198a7 7 0 0 0-.38-.925l.135-.136c.221-.22.344-.513.345-.827a1.17 1.17 0 0 0-.342-.835l-1.31-1.318a1.167 1.167 0 0 0-1.65.002l-.136.138a6.6 6.6 0 0 0-.917-.381v-.198c0-.645-.522-1.17-1.163-1.17h-1.856c-.641 0-1.163.525-1.163 1.17v.198q-.471.154-.917.381l-.142-.144a1.165 1.165 0 0 0-1.644.004m1.195 1.444c.217.22.555.261.818.1.475-.29.984-.5 1.51-.627a.67.67 0 0 0 .512-.652v-.534h1.518v.534c0 .31.211.58.511.652a5.3 5.3 0 0 1 1.51.628c.264.16.602.119.819-.1l.372-.378 1.074 1.08-.376.38a.674.674 0 0 0-.097.82c.284.47.494.983.625 1.523.073.3.34.511.647.511h.531V43.6h-.53a.67.67 0 0 0-.648.51 5.4 5.4 0 0 1-.624 1.52.67.67 0 0 0 .096.82l.376.38-1.074 1.08-.372-.376a.66.66 0 0 0-.818-.1c-.476.29-.984.5-1.51.627a.67.67 0 0 0-.512.652v.537h-1.518v-.537a.67.67 0 0 0-.511-.652A5.3 5.3 0 0 1 39 47.433a.66.66 0 0 0-.818.1l-.372.378-1.074-1.08.375-.38a.67.67 0 0 0 .097-.822 5.4 5.4 0 0 1-.625-1.519.67.67 0 0 0-.647-.51h-.53v-1.528h.53a.67.67 0 0 0 .648-.51c.131-.54.341-1.053.625-1.524a.67.67 0 0 0-.098-.82l-.375-.38 1.074-1.08zm3.6 8.5c2.082 0 3.775-1.704 3.775-3.8s-1.693-3.802-3.775-3.802-3.778 1.706-3.778 3.801 1.695 3.802 3.778 3.802m0-6.261a2.455 2.455 0 0 1 2.443 2.46 2.455 2.455 0 0 1-2.443 2.461 2.457 2.457 0 0 1-2.445-2.46 2.456 2.456 0 0 1 2.445-2.461"/></svg>