<svg xmlns="http://www.w3.org/2000/svg" width="60" height="60" fill="none"><path fill="#282928" fill-rule="evenodd" d="M50.972 11.823a8.03 8.03 0 0 1 5.023 6.598.84.84 0 0 1-.834.928h-14.28a.84.84 0 0 1-.834-.928 8.03 8.03 0 0 1 5.024-6.598 4.46 4.46 0 0 1-1.518-3.353A4.48 4.48 0 0 1 48.02 4a4.48 4.48 0 0 1 4.47 4.47 4.46 4.46 0 0 1-1.519 3.353M48.02 12.94a6.346 6.346 0 0 0-6.136 4.732h12.272a6.344 6.344 0 0 0-6.136-4.732m0-1.677a2.8 2.8 0 0 0 2.793-2.793 2.8 2.8 0 0 0-2.793-2.793 2.797 2.797 0 0 0-2.79 2.793 2.797 2.797 0 0 0 2.79 2.793m2.951 18.886a8.03 8.03 0 0 1 5.023 6.598.84.84 0 0 1-.834.928H40.88a.84.84 0 0 1-.834-.929 8.03 8.03 0 0 1 5.024-6.597 4.46 4.46 0 0 1-1.518-3.353 4.48 4.48 0 0 1 4.468-4.47 4.48 4.48 0 0 1 4.47 4.47 4.46 4.46 0 0 1-1.519 3.353m-2.951 1.117a6.346 6.346 0 0 0-6.136 4.731h12.272a6.344 6.344 0 0 0-6.136-4.731m0-1.678a2.8 2.8 0 0 0 2.793-2.792 2.8 2.8 0 0 0-2.793-2.793 2.797 2.797 0 0 0-2.791 2.793 2.797 2.797 0 0 0 2.79 2.792m2.951 18.886a8.03 8.03 0 0 1 5.023 6.598.84.84 0 0 1-.834.928h-14.28a.84.84 0 0 1-.834-.928 8.03 8.03 0 0 1 5.024-6.598 4.46 4.46 0 0 1-1.518-3.353 4.48 4.48 0 0 1 4.468-4.47 4.48 4.48 0 0 1 4.47 4.47 4.46 4.46 0 0 1-1.519 3.353m-2.951 1.117a6.346 6.346 0 0 0-6.136 4.732h12.272a6.344 6.344 0 0 0-6.136-4.732m0-1.677a2.8 2.8 0 0 0 2.793-2.793 2.8 2.8 0 0 0-2.793-2.793 2.797 2.797 0 0 0-2.791 2.793 2.797 2.797 0 0 0 2.79 2.793M21.067 18.446c.933.259 1.831.631 2.676 1.109l1.718-.764a.84.84 0 0 1 .934.174l2.488 2.488a.84.84 0 0 1 .174.933l-.761 1.718c.478.845.85 1.744 1.11 2.68l1.752.675a.84.84 0 0 1 .537.783v3.52a.84.84 0 0 1-.538.782l-1.752.675a12 12 0 0 1-1.11 2.676l.762 1.72a.84.84 0 0 1-.174.932l-2.488 2.489a.84.84 0 0 1-.933.173l-1.718-.76a12 12 0 0 1-2.678 1.109l-.674 1.752a.84.84 0 0 1-.783.537h-3.52a.84.84 0 0 1-.782-.537l-.675-1.752a12 12 0 0 1-2.68-1.11l-1.719.761a.84.84 0 0 1-.933-.174l-2.488-2.488a.84.84 0 0 1-.173-.934l.763-1.717a12 12 0 0 1-1.111-2.677l-1.753-.675A.84.84 0 0 1 4 31.762v-3.52a.84.84 0 0 1 .538-.783l1.752-.674c.262-.937.634-1.836 1.112-2.68l-.763-1.718a.84.84 0 0 1 .173-.934L9.3 18.965a.84.84 0 0 1 .934-.174l1.718.764c.845-.478 1.743-.85 2.677-1.11l.678-1.756a.84.84 0 0 1 .782-.537h3.52c.347 0 .659.214.783.538zm-1.411 1.005-.623-1.621h-2.368l-.626 1.622a.84.84 0 0 1-.589.514 10.2 10.2 0 0 0-3.004 1.245.84.84 0 0 1-.78.052l-1.587-.705-1.674 1.674.706 1.586a.84.84 0 0 1-.053.78 10.3 10.3 0 0 0-1.249 3.01.84.84 0 0 1-.514.587l-1.618.623v2.368l1.618.622c.257.1.45.319.514.587A10.3 10.3 0 0 0 9.058 35.4a.84.84 0 0 1 .053.782l-.706 1.586 1.675 1.675 1.586-.703a.84.84 0 0 1 .778.052c.931.57 1.944.993 3.01 1.246.269.063.49.256.589.514l.622 1.618h2.368l.623-1.618a.84.84 0 0 1 .589-.514 10.2 10.2 0 0 0 3.003-1.245.84.84 0 0 1 .78-.053l1.587.703 1.675-1.675-.703-1.587a.84.84 0 0 1 .052-.778c.57-.93.994-1.944 1.246-3.006a.84.84 0 0 1 .515-.589l1.618-.622v-2.368l-1.618-.623a.84.84 0 0 1-.515-.59 10.2 10.2 0 0 0-1.245-3.007.84.84 0 0 1-.053-.78l.703-1.586-1.674-1.674-1.586.705a.84.84 0 0 1-.78-.052 10.2 10.2 0 0 0-3.005-1.245.84.84 0 0 1-.59-.515m-1.808 3.571a6.979 6.979 0 1 1 0 13.96A6.98 6.98 0 0 1 10.869 30a6.976 6.976 0 0 1 6.979-6.978m0 1.678a5.3 5.3 0 0 0-5.301 5.3 5.302 5.302 0 1 0 10.605 0c0-2.929-2.376-5.3-5.305-5.3m-.84 4.461v-1.91a.84.84 0 0 1 1.678 0v1.91h1.91a.84.84 0 0 1 0 1.678h-1.91v1.91a.84.84 0 0 1-1.677 0v-1.91h-1.91a.84.84 0 0 1 0-1.678zm16.727 1.678a.84.84 0 0 1 0-1.678h6.467a.84.84 0 0 1 0 1.678zm.796-12.87a.84.84 0 0 1-1.592-.529l2.008-6.03a.84.84 0 0 1 .795-.574h5.139a.84.84 0 0 1 0 1.677h-4.534zm-1.592 22.29a.84.84 0 0 1 1.592-.53l1.816 5.456h4.533a.84.84 0 0 1 0 1.678h-5.138a.84.84 0 0 1-.795-.574z" clip-rule="evenodd"/></svg>