<svg xmlns="http://www.w3.org/2000/svg" width="60" height="60" fill="none"><g fill="#282928" clip-path="url(#a)"><path d="M57.946 0H35.821c-2.684 0-5.03 1.446-6.321 3.596C28.21 1.446 25.863 0 23.179 0H1.054C.472 0 0 .471 0 1.054v44.25c0 .582.472 1.053 1.054 1.053 14.18-.012 42.716.009 56.893 0 .581 0 1.053-.471 1.053-1.053V1.054C59 .47 58.528 0 57.946 0M35.821 2.107h21.072v34.768H35.82a7.35 7.35 0 0 0-5.267 2.224V7.375a5.274 5.274 0 0 1 5.267-5.268m-33.714 0H23.18a5.274 5.274 0 0 1 5.267 5.268v31.724a7.35 7.35 0 0 0-5.267-2.224H6.32c-1.376.017-1.39 2.086 0 2.107H23.18a5.274 5.274 0 0 1 5.267 5.268H2.107zM30.554 44.25a5.274 5.274 0 0 1 5.267-5.268h21.072v5.268z"/><path d="M11.371 15.495a1.053 1.053 0 0 0 1.49 0l2.416-2.416 2.416 2.416a1.053 1.053 0 1 0 1.49-1.49l-2.416-2.416 2.415-2.416a1.053 1.053 0 1 0-1.49-1.49L15.278 10.1 12.86 7.684a1.053 1.053 0 1 0-1.49 1.49l2.416 2.415-2.416 2.416a1.053 1.053 0 0 0 0 1.49M6.849 21.248h16.857c1.38-.022 1.389-2.084 0-2.107H6.849c-1.38.021-1.39 2.083 0 2.107M6.849 26.166h16.857c1.38-.022 1.389-2.084 0-2.107H6.849c-1.38.021-1.39 2.083 0 2.107M6.849 31.076h16.857c1.38-.022 1.389-2.084 0-2.107H6.849c-1.38.021-1.39 2.083 0 2.107M35.294 21.248h16.857c1.38-.022 1.39-2.084 0-2.107H35.294c-1.38.021-1.389 2.083 0 2.107M35.294 26.166h16.857c1.38-.022 1.39-2.084 0-2.107H35.294c-1.38.021-1.389 2.083 0 2.107M35.294 31.076h16.857c1.38-.022 1.39-2.084 0-2.107H35.294c-1.38.021-1.389 2.083 0 2.107M41.397 15.495a1.053 1.053 0 0 0 1.49 0l6.321-6.322a1.053 1.053 0 1 0-1.49-1.49l-5.576 5.577-2.416-2.416c-.975-.97-2.461.512-1.49 1.49z"/></g><defs><clipPath id="a"><path fill="#fff" d="M0 0h60v60H0z"/></clipPath></defs></svg>