<svg xmlns="http://www.w3.org/2000/svg" width="60" height="60" fill="none"><path fill="#282928" d="M33.248 57.106h-6.495a.845.845 0 0 1-.847-.847v-4.471c-3-.562-5.883-1.758-8.41-3.488l-3.163 3.163a.844.844 0 0 1-1.196 0L8.538 46.87a.844.844 0 0 1 0-1.197l3.162-3.162a22.2 22.2 0 0 1-3.487-8.41H3.742a.845.845 0 0 1-.847-.847v-6.502c0-.47.377-.847.847-.847h4.471c.562-3 1.758-5.883 3.487-8.41L8.538 14.33a.85.85 0 0 1-.247-.6c0-.226.088-.441.247-.6l4.592-4.592a.85.85 0 0 1 .6-.247c.226 0 .441.088.6.247l3.162 3.162a22.2 22.2 0 0 1 8.41-3.487V3.742c0-.47.378-.847.848-.847h6.498c.469 0 .846.377.846.847v4.471c3 .562 5.884 1.758 8.411 3.487l3.162-3.162a.85.85 0 0 1 .6-.247c.226 0 .442.088.6.247l4.596 4.592a.844.844 0 0 1 0 1.196L48.3 17.49a22.2 22.2 0 0 1 3.488 8.41h4.471c.47 0 .847.378.847.847v6.502c0 .469-.377.846-.847.846h-4.471c-.562 3-1.758 5.884-3.488 8.411l3.163 3.162a.844.844 0 0 1 0 1.197l-4.592 4.599a.844.844 0 0 1-1.197 0L42.513 48.3a22.2 22.2 0 0 1-8.41 3.488v4.471a.856.856 0 0 1-.854.847M27.6 55.412h4.8v-4.337c0-.42.308-.773.72-.837a20.5 20.5 0 0 0 8.98-3.724.85.85 0 0 1 1.1.085l3.071 3.07 3.395-3.394-3.07-3.071a.85.85 0 0 1-.085-1.101 20.5 20.5 0 0 0 3.723-8.98.85.85 0 0 1 .837-.72h4.341V27.6h-4.337a.846.846 0 0 1-.837-.72 20.5 20.5 0 0 0-3.724-8.978.85.85 0 0 1 .085-1.102l3.07-3.07-3.394-3.395-3.071 3.07a.85.85 0 0 1-1.101.085 20.5 20.5 0 0 0-8.98-3.724.85.85 0 0 1-.72-.836V4.589H27.6v4.34c0 .42-.307.774-.72.837a20.5 20.5 0 0 0-8.978 3.724.85.85 0 0 1-1.102-.085l-3.07-3.07-3.395 3.395 3.07 3.07a.85.85 0 0 1 .085 1.102 20.5 20.5 0 0 0-3.724 8.978.85.85 0 0 1-.836.72H4.589v4.8h4.34c.42 0 .774.308.837.72a20.5 20.5 0 0 0 3.724 8.98.85.85 0 0 1-.085 1.1l-3.07 3.071 3.395 3.395 3.07-3.07a.85.85 0 0 1 1.102-.085 20.5 20.5 0 0 0 8.978 3.723.85.85 0 0 1 .72.837z"/><path fill="#282928" d="M30 45.539a15.508 15.508 0 0 1-10.983-4.55 15.5 15.5 0 0 1-4.55-10.983 15.506 15.506 0 0 1 4.55-10.984 15.5 15.5 0 0 1 4.938-3.328A15.4 15.4 0 0 1 30 14.473c2.096 0 4.133.41 6.046 1.22a15.5 15.5 0 0 1 4.937 3.33 15.5 15.5 0 0 1 4.55 10.983c0 2.096-.41 4.133-1.221 6.045a15.5 15.5 0 0 1-3.329 4.938 15.5 15.5 0 0 1-10.983 4.55m0-29.38c-7.63 0-13.842 6.209-13.842 13.843s6.209 13.842 13.843 13.842 13.842-6.208 13.842-13.842S37.631 16.16 30.001 16.16"/><path fill="#282928" d="M25.193 34.278a.84.84 0 0 1-.512-.173l-4.489-3.43a.85.85 0 0 1 0-1.349l4.49-3.43a.85.85 0 0 1 1.185.158.85.85 0 0 1-.158 1.186L22.102 30l3.607 2.757c.37.282.444.815.158 1.186a.84.84 0 0 1-.674.335M34.808 34.279a.84.84 0 0 1-.675-.332.85.85 0 0 1 .16-1.186l3.606-2.756-3.607-2.757a.844.844 0 0 1-.159-1.186.85.85 0 0 1 1.186-.159l4.49 3.431a.85.85 0 0 1 0 1.348l-4.49 3.43a.9.9 0 0 1-.511.167M28.532 36.095a.85.85 0 0 1-.819-1.076l2.933-10.5a.85.85 0 0 1 1.045-.59.85.85 0 0 1 .59 1.045l-2.934 10.5a.84.84 0 0 1-.815.62"/></svg>