<svg xmlns="http://www.w3.org/2000/svg" width="40" height="42"><g fill="#333"><path d="M19.775 28.558 32 7.383V5a5 5 0 0 0-5-5H5a5 5 0 0 0-5 5v32a5 5 0 0 0 5 5h22a5 5 0 0 0 5-5v-9.615l-3.564 6.174a6.8 6.8 0 0 1-2.144 2.274l-2.648 1.75a3.2 3.2 0 0 1-1.761.532 3.23 3.23 0 0 1-2.338-1.015 3.17 3.17 0 0 1-.858-2.382l.189-3.168a6.8 6.8 0 0 1 .9-2.995ZM6 6h9a1 1 0 0 1 0 2H6a1 1 0 0 1 0-2m0 6h18.29a1 1 0 1 1 0 2H6a1 1 0 0 1 0-2m9.36 24H14a1 1 0 0 1-.831-.444L12 33.806l-.637.959a1.5 1.5 0 0 1-2.64-.27L8 32.692l-1.072 2.68a1 1 0 0 1-1.858-.743l1.07-2.68a2 2 0 0 1 3.714 0l.368.92.113-.169a1.99 1.99 0 0 1 3.331.01l.865 1.29h.826a1 1 0 0 1 0 2Zm2-10H6a1 1 0 1 1 0-2h11.36a1 1 0 1 1 0 2M6 20a1 1 0 1 1 0-2h14.82a1 1 0 0 1 0 2ZM38.445 12.221l1.233-2.136a2.4 2.4 0 0 0-.878-3.278l-1.039-.6a2.4 2.4 0 0 0-3.278.878L33.25 9.221l5.2 3Z"/><path d="M32.249 10.953 21.507 29.559a4.8 4.8 0 0 0-.634 2.112l-.19 3.169a1.2 1.2 0 0 0 1.859 1.073l2.65-1.749a4.8 4.8 0 0 0 1.508-1.606l10.746-18.606-5.2-3Z"/></g></svg>