<svg xmlns="http://www.w3.org/2000/svg" width="60" height="60" fill="none"><path fill="#282928" d="M53.438 9.375H6.563a4.693 4.693 0 0 0-4.688 4.688v31.874a4.693 4.693 0 0 0 4.688 4.688h46.875a4.693 4.693 0 0 0 4.687-4.687V14.061a4.693 4.693 0 0 0-4.687-4.687M6.563 11.25h46.875a2.816 2.816 0 0 1 2.812 2.813v2.812H3.75v-2.812a2.816 2.816 0 0 1 2.813-2.813m46.875 37.5H6.563a2.816 2.816 0 0 1-2.813-2.812V18.75h52.5v27.188a2.816 2.816 0 0 1-2.812 2.812"/><path fill="#282928" d="M7.5 13.125h1.875V15H7.5zM11.25 13.125h1.875V15H11.25zM15 13.125h1.875V15H15zM30 13.125h22.5V15H30zM39.649 24.648l-4.132 4.133-2.424-2.424 4.131-4.133-1.325-1.326-4.132 4.133-2.103-2.103a.937.937 0 0 0-1.326 0l-4.64 4.64a7.5 7.5 0 0 0-.62 9.902l-7.805 7.803L16.6 46.6l7.804-7.803a7.497 7.497 0 0 0 9.901-.621l4.641-4.641a.94.94 0 0 0 0-1.326l-2.102-2.101 4.131-4.133zm-6.67 12.201a5.625 5.625 0 0 1-7.955-7.955l1.272-1.272 6.79 6.79 1.326-1.326-6.79-6.79 1.38-1.38 7.954 7.955z"/></svg>