<svg xmlns="http://www.w3.org/2000/svg" width="60" height="60" fill="none"><g fill="#282928" clip-path="url(#a)"><path d="M20.49 21.006a.97.97 0 0 0 1.372 0l3.225-3.225a.97.97 0 1 0-1.372-1.37l-2.537 2.543-.93-.931a.969.969 0 0 0-1.371 1.369l1.614 1.614Zm8.751-1.332h11.193a.968.968 0 1 0 0-1.936H29.24a.968.968 0 1 0 0 1.936Zm-8.751 8.589a.97.97 0 0 0 1.372 0l3.225-3.225a.97.97 0 1 0-1.372-1.369l-2.537 2.543-.93-.932a.969.969 0 1 0-1.371 1.37l1.614 1.613Zm8.751-1.329h11.193a.968.968 0 0 0 0-1.936H29.24a.968.968 0 0 0 0 1.936Zm-8.751 8.589a.97.97 0 0 0 1.372 0l3.225-3.225a.97.97 0 1 0-1.372-1.369l-2.537 2.543-.93-.932a.97.97 0 0 0-1.371 1.37l1.614 1.613Zm8.751-1.332h11.193a.968.968 0 0 0 0-1.935H29.24a.968.968 0 1 0 0 1.935Z"/><path d="M59.032 50.806H57.58v-29.82a4.06 4.06 0 0 0-4.052-4.052h-5.625v-6.29a.97.97 0 0 0-.283-.685L37.942.28a.97.97 0 0 0-.685-.283H15.156a3.065 3.065 0 0 0-3.06 3.06v13.876H6.47a4.06 4.06 0 0 0-4.053 4.052v29.82H.966a.97.97 0 0 0-.968.968v3.406A5.01 5.01 0 0 0 5.166 60h49.666A5.01 5.01 0 0 0 60 55.18v-3.406a.97.97 0 0 0-.968-.968M53.528 18.87a2.12 2.12 0 0 1 2.117 2.116v29.82h-2.178V22.015a.97.97 0 0 0-.968-.968h-4.596v-2.178h5.625ZM36.592 50.805a.97.97 0 0 0-.852.506l-1.045 1.913h-9.4l-1.045-1.913a.97.97 0 0 0-.851-.506H8.466V22.983h3.63v19.113a3.07 3.07 0 0 0 3.06 3.063h29.686a3.07 3.07 0 0 0 3.06-3.063V22.983h3.63v27.823zm1.633-47.5 6.37 6.37h-6.37zM14.03 3.062a1.127 1.127 0 0 1 1.125-1.13h21.133v8.71a.97.97 0 0 0 .968.968h8.71v30.485a1.125 1.125 0 0 1-1.125 1.125H15.156a1.125 1.125 0 0 1-1.125-1.125V3.063ZM4.353 20.991A2.12 2.12 0 0 1 6.47 18.87h5.625v2.178H7.498a.97.97 0 0 0-.968.968v28.79H4.353V20.992Zm53.711 34.19a3.077 3.077 0 0 1-3.232 2.883H5.166a3.08 3.08 0 0 1-3.232-2.884v-2.438h20.891l1.046 1.913a.97.97 0 0 0 .849.506h10.558a.97.97 0 0 0 .85-.506l1.044-1.913h20.892z"/></g><defs><clipPath id="a"><path fill="#fff" d="M0 0h60v60H0z"/></clipPath></defs></svg>