<svg xmlns="http://www.w3.org/2000/svg" width="60" height="60" fill="none"><path fill="#282928" d="M57.68 12.164 47.836 2.32a1.1 1.1 0 0 0-.773-.32H18.625c-.604 0-1.094.49-1.094 1.094V24.77C12.862 26.866 9.602 31.56 9.602 37c0 2.42.645 4.692 1.772 6.654L3.169 51.35A3.7 3.7 0 0 0 2 54.023a3.94 3.94 0 0 0 1.144 2.833A3.94 3.94 0 0 0 5.977 58a3.7 3.7 0 0 0 2.673-1.17l7.697-8.203q.575.33 1.184.604V54.5c0 .604.49 1.094 1.094 1.094h38.281c.604 0 1.094-.49 1.094-1.094V12.937c0-.29-.115-.568-.32-.773m-9.524-6.43 6.11 6.11h-6.11zM23 25.79c6.181 0 11.21 5.029 11.21 11.21S29.181 48.21 23 48.21 11.79 43.182 11.79 37c0-6.181 5.029-11.21 11.21-11.21M7.055 55.334a1.54 1.54 0 0 1-1.113.478 1.74 1.74 0 0 1-1.25-.503 1.74 1.74 0 0 1-.504-1.251 1.54 1.54 0 0 1 .478-1.113l7.964-7.47a13.5 13.5 0 0 0 1.896 1.895zm12.664-1.928v-3.414c1.05.265 2.15.406 3.28.406 7.389 0 13.399-6.01 13.399-13.398 0-7.387-6.01-13.398-13.398-13.398-1.132 0-2.23.141-3.281.407V4.187h26.25v8.75c0 .604.49 1.094 1.094 1.094h8.75v39.375z"/><path fill="#282928" d="M24.64 9.11h17.5a1.094 1.094 0 0 0 0-2.188h-17.5a1.094 1.094 0 0 0 0 2.187Zm0 4.921h8.75a1.094 1.094 0 0 0 0-2.187h-8.75a1.094 1.094 0 1 0 0 2.187m27.344 4.649H24.641a1.094 1.094 0 0 0 0 2.187h27.343a1.094 1.094 0 0 0 0-2.187m0 4.922H35.053a1.094 1.094 0 0 0 0 2.187h16.931a1.094 1.094 0 0 0 0-2.187m-.001 9.843H40.05a1.094 1.094 0 0 0 0 2.188h11.934a1.094 1.094 0 0 0 0-2.188Zm-5.967 7.11a1.094 1.094 0 0 0 0-2.188h-5.967a1.094 1.094 0 0 0 0 2.188zm5.97 2.735H38.568a1.094 1.094 0 0 0 0 2.187h13.418a1.094 1.094 0 0 0 0-2.188Zm-13.675 4.92h-3.258a1.094 1.094 0 0 0 0 2.188h3.258a1.094 1.094 0 0 0 0-2.187Zm-17.315-7.976a1.09 1.09 0 0 0 1.547 0l4.922-4.922a1.094 1.094 0 0 0-1.547-1.546l-4.148 4.148-1.688-1.688a1.094 1.094 0 0 0-1.547 1.547z"/></svg>