<svg xmlns="http://www.w3.org/2000/svg" width="60" height="60" fill="none"><path fill="#282928" d="m17.342 7.34 3.275 2.651-1.102 4.085c-.143.53.05 1.082.49 1.404a1.29 1.29 0 0 0 1.478.037L25 13.198l3.516 2.319a1.28 1.28 0 0 0 1.478-.037c.441-.323.634-.874.491-1.404L29.381 9.99l3.276-2.652c.425-.344.59-.904.422-1.427a1.29 1.29 0 0 0-1.174-.904l-4.197-.206L26.216.844A1.29 1.29 0 0 0 25 0a1.29 1.29 0 0 0-1.217.844L22.29 4.802l-4.197.206a1.29 1.29 0 0 0-1.174.904 1.31 1.31 0 0 0 .422 1.427Zm5.448-.625a1.3 1.3 0 0 0 1.153-.844L25 3.069l1.056 2.802c.184.487.637.819 1.154.844l2.972.146-2.32 1.878a1.32 1.32 0 0 0-.44 1.366l.78 2.892-2.489-1.642a1.29 1.29 0 0 0-1.425 0l-2.49 1.642.78-2.892a1.32 1.32 0 0 0-.44-1.366l-2.319-1.878 2.972-.146ZM9.145 19.341l3.516 2.319a1.28 1.28 0 0 0 1.477-.037c.442-.323.635-.874.491-1.404l-1.102-4.085 3.275-2.652c.425-.344.591-.904.423-1.427a1.29 1.29 0 0 0-1.175-.904l-4.197-.206-1.492-3.958a1.29 1.29 0 0 0-1.216-.844c-.546 0-1.023.331-1.217.844l-1.491 3.958-4.198.206a1.29 1.29 0 0 0-1.174.904 1.31 1.31 0 0 0 .422 1.427l3.276 2.652L3.66 20.22c-.143.53.05 1.081.491 1.405a1.29 1.29 0 0 0 1.478.036l3.516-2.319Zm-5.181-6.337 2.972-.146a1.3 1.3 0 0 0 1.153-.844l1.056-2.802 1.056 2.802c.184.487.636.819 1.153.844l2.972.146-2.319 1.877a1.32 1.32 0 0 0-.44 1.366l.78 2.892-2.49-1.641a1.29 1.29 0 0 0-1.425 0l-2.49 1.641.781-2.892a1.32 1.32 0 0 0-.44-1.366l-2.32-1.877Zm28.81-.949a1.31 1.31 0 0 0 .423 1.427l3.275 2.652-1.102 4.085c-.143.53.05 1.081.49 1.404a1.29 1.29 0 0 0 1.478.037l3.516-2.319 3.516 2.319a1.28 1.28 0 0 0 1.477-.037c.442-.322.635-.874.492-1.404l-1.103-4.085 3.276-2.652c.425-.344.59-.904.422-1.427a1.29 1.29 0 0 0-1.174-.904l-4.198-.206-1.491-3.958a1.29 1.29 0 0 0-1.217-.844c-.546 0-1.023.331-1.217.844l-1.491 3.958-4.197.206a1.29 1.29 0 0 0-1.175.904m5.87.803c.518-.025.97-.357 1.154-.844l1.056-2.802 1.056 2.802c.184.487.636.819 1.153.844l2.972.146-2.319 1.878a1.32 1.32 0 0 0-.44 1.365l.78 2.892-2.49-1.641a1.29 1.29 0 0 0-1.425 0l-2.489 1.641.78-2.892a1.32 1.32 0 0 0-.44-1.366l-2.319-1.877 2.972-.146Zm8.927 24.116c-3.595 0-6.808 1.682-8.905 4.306a19.6 19.6 0 0 0-8.69-4.955 10.47 10.47 0 0 0 5.395-9.165c0-5.76-4.653-10.447-10.372-10.447-5.718 0-10.37 4.687-10.37 10.447 0 3.943 2.179 7.382 5.388 9.16a19.5 19.5 0 0 0-8.141 4.441A19.72 19.72 0 0 0 5.539 53.27a.97.97 0 0 0 .24.75.96.96 0 0 0 .715.32h31.24C39.726 57.725 43.39 60 47.57 60 53.873 60 59 54.835 59 48.487s-5.127-11.513-11.429-11.513M16.55 27.161c0-4.694 3.79-8.513 8.45-8.513s8.45 3.819 8.45 8.512-3.79 8.512-8.449 8.513h-.003c-4.659-.001-8.448-3.82-8.448-8.513ZM7.595 52.404c1.419-8.508 8.72-14.796 17.403-14.797h.003c4.724 0 9.265 1.927 12.573 5.307a11.5 11.5 0 0 0-1.431 5.572c0 1.375.24 2.695.681 3.918zm39.976 5.66c-5.242 0-9.507-4.297-9.507-9.578s4.265-9.577 9.507-9.577c5.243 0 9.508 4.296 9.508 9.577s-4.265 9.578-9.508 9.578m6.585-14.52a2.495 2.495 0 0 0-3.552.013l-4.41 4.487-1.657-1.668a2.503 2.503 0 0 0-3.555 0 2.55 2.55 0 0 0 0 3.58l3.44 3.466c.49.494 1.134.74 1.778.74.643 0 1.287-.246 1.777-.74a775 775 0 0 0 3.896-3.962q1.146-1.172 2.295-2.341a2.546 2.546 0 0 0-.012-3.574Zm-1.353 2.213q-1.15 1.17-2.298 2.344a749 749 0 0 1-3.887 3.952.59.59 0 0 1-.837 0l-3.44-3.465a.6.6 0 0 1 0-.844.59.59 0 0 1 .837 0l2.34 2.357c.18.181.424.283.678.283h.003c.256 0 .5-.104.68-.287l5.09-5.178a.58.58 0 0 1 .414-.175.56.56 0 0 1 .418.173c.23.23.231.607.002.84"/></svg>