<svg xmlns="http://www.w3.org/2000/svg" width="60" height="60" fill="none"><g fill="#282928" clip-path="url(#a)"><path d="M55.186 4.365h-7.668a.879.879 0 0 0 0 1.758h7.668a.879.879 0 0 0 0-1.758M43.162 6.123h.935a.879.879 0 0 0 0-1.758h-.935a.879.879 0 0 0 0 1.758m0 4.129h12.024a.879.879 0 0 0 0-1.758H43.162a.879.879 0 0 0 0 1.758m3.179 41.792c0-3.51-1.172-6.955-3.307-9.738l.163-3a3.574 3.574 0 0 0-3.572-3.771h-9.62a1.68 1.68 0 0 1-.712-1.37v-2.454c1.492-.964 2.54-2.064 3.309-3.374h1.7c1.968 0 3.569-1.6 3.569-3.568v-6.564c0-1.107-.64-2.086-1.598-2.549V11.05a3.81 3.81 0 0 0-3.804-3.804h-.098a.11.11 0 0 1-.109-.109 3.81 3.81 0 0 0-3.803-3.803H19.15c-4.62 0-8.38 3.759-8.38 8.38v3.942a2.83 2.83 0 0 0-1.598 2.549v3.338a2.836 2.836 0 0 0 2.832 2.833h1.135c.294 2.483 1.459 4.752 3.284 6.33q.642.554 1.327.995v2.464c0 .547-.27 1.056-.715 1.37H7.42a3.574 3.574 0 0 0-3.571 3.77l.162 3.001a16.05 16.05 0 0 0-3.307 9.738v3.31A2.76 2.76 0 0 0 0 57.197a2.77 2.77 0 0 0 2.769 2.768h41.506a2.77 2.77 0 0 0 2.77-2.768c0-.707-.267-1.352-.704-1.841v-3.311Zm-1.758 0v2.4a3 3 0 0 0-.308-.017h-1.899l.496-9.14a14.3 14.3 0 0 1 1.711 6.757m-8.56-34.268q.089.2.09.43v3.337c0 .593-.482 1.075-1.074 1.075h-1.046v-3.313l.542-.189a2.6 2.6 0 0 0 1.488-1.34m-5.868 10.183h-2.206a.646.646 0 0 1 0-1.29h2.206a.646.646 0 0 1 0 1.29m4.148-1.38h-.889a10.3 10.3 0 0 0 .509-2.203h1.116c.38 0 .743-.076 1.074-.213v.606c0 .998-.812 1.81-1.81 1.81M12.529 11.715a6.63 6.63 0 0 1 6.622-6.622h9.308c1.128 0 2.046.918 2.046 2.046 0 1.029.837 1.866 1.866 1.866h.099c1.127 0 2.045.918 2.045 2.046v5.62c0 .354-.224.67-.558.786l-1.847.643a.113.113 0 0 1-.151-.107l.003-3.493c.01-2.549-2.376-4.772-5.72-3.698-1.682.54-3.763.539-5.44 0-3.31-1.064-5.73 1.12-5.72 3.695l.004 3.496c0 .08-.078.133-.15.107l-1.848-.643a.83.83 0 0 1-.559-.786zm-1.598 9.83v-3.339c0-.152.033-.297.09-.43a2.6 2.6 0 0 0 1.489 1.341l.541.189v3.313h-1.045a1.076 1.076 0 0 1-1.075-1.075Zm3.894 1.817c-.03-1.156-.011-2.382-.016-3.505a1.87 1.87 0 0 0 2.035-1.867l-.004-3.498c-.006-1.427 1.274-2.708 3.425-2.016 2.038.654 4.483.652 6.515 0 2.048-.659 3.43.5 3.424 2.02l-.003 3.495a1.87 1.87 0 0 0 2.034 1.866v3.576c-.025.76-.15 1.5-.362 2.206a2.4 2.4 0 0 0-1.718-.726h-2.206a2.405 2.405 0 0 0-2.402 2.402 2.405 2.405 0 0 0 2.402 2.403h1.117c-1.623 1.267-3.47 1.928-5.498 1.961-4.437-.035-8.616-3.313-8.743-8.317m4.684 10.805v-1.538q1.907.791 4.057.808h.02a10.7 10.7 0 0 0 3.95-.801v1.53c0 .48.1.945.285 1.37h-8.599c.186-.425.287-.89.287-1.37ZM4.172 45.288l.139 2.557a.879.879 0 1 0 1.755-.096l-.463-8.539a1.82 1.82 0 0 1 1.816-1.917h32.206c1.041 0 1.873.87 1.817 1.917l-.826 15.217H26.834a5.4 5.4 0 0 1 1.316-2.722l.025-.028c2.66-2.976 1.864-7.63-1.574-9.584-.883-.502-2.003.123-2.003 1.163v3.988a.33.33 0 0 1-.332.331h-1.488a.33.33 0 0 1-.331-.331v-3.988c0-1.038-1.12-1.666-2.003-1.163-3.449 1.959-4.23 6.615-1.572 9.587l.022.025a5.4 5.4 0 0 1 1.317 2.722H6.429l-.141-2.599a.879.879 0 1 0-1.756.096l.136 2.503h-1.9q-.155 0-.307.017v-2.4c0-2.363.599-4.69 1.711-6.756m17.815 9.139a7.15 7.15 0 0 0-1.786-3.898l-.021-.024a4.483 4.483 0 0 1 .509-6.457v3.195c0 1.152.937 2.09 2.09 2.09h1.487c1.152 0 2.09-.938 2.09-2.09v-3.195a4.483 4.483 0 0 1 .507 6.46l-.02.021a7.15 7.15 0 0 0-1.785 3.898zm22.288 3.78H2.77a1.012 1.012 0 0 1 0-2.022h41.506a1.012 1.012 0 0 1 0 2.022Z"/><path d="M59.12 6.052a.88.88 0 0 0 .88-.879V3.472A3.44 3.44 0 0 0 56.565.037H41.783a3.44 3.44 0 0 0-3.435 3.435v7.393a3.44 3.44 0 0 0 3.435 3.435c.338 0 .614.275.614.614v4.572c0 .66.427 1.222 1.063 1.398a1.44 1.44 0 0 0 1.632-.652l3.379-5.634a.62.62 0 0 1 .526-.298h7.568A3.44 3.44 0 0 0 60 10.865V9.282a.879.879 0 0 0-1.758 0v1.583c0 .925-.752 1.677-1.677 1.677h-7.568c-.828 0-1.608.442-2.034 1.152l-2.809 4.684v-3.464a2.374 2.374 0 0 0-2.372-2.372 1.68 1.68 0 0 1-1.677-1.677V3.472a1.68 1.68 0 0 1 1.678-1.677h14.782a1.68 1.68 0 0 1 1.677 1.677v1.701a.88.88 0 0 0 .879.879Z"/></g><defs><clipPath id="a"><path fill="#fff" d="M0 0h60v60H0z"/></clipPath></defs></svg>