<svg xmlns="http://www.w3.org/2000/svg" width="60" height="60" fill="none"><g fill="#282928" clip-path="url(#a)"><path d="M28.313 57.919a.937.937 0 0 1-.938-.938v-3.753a.937.937 0 1 1 1.875 0v3.753c0 .519-.42.938-.938.938Zm-18.063 0a.937.937 0 0 1-.938-.938v-3.753a.937.937 0 1 1 1.876 0v3.753c0 .519-.42.938-.938.938"/><path d="M36.607 59.062H1.875a.937.937 0 0 1-.938-.937v-7.507c0-7.055 4.443-13.345 11.056-15.654a.94.94 0 0 1 .898.154 10.2 10.2 0 0 0 5.717 2.244c.435.03.782.353.857.766a.89.89 0 0 1 .781-.762c2.052-.227 3.844-.978 5.328-2.233a.94.94 0 0 1 .915-.17c6.698 2.339 11.14 8.635 11.056 15.666v7.496c0 .518-.42.937-.938.937M2.813 57.187h32.856v-6.569c.073-6.065-3.651-11.506-9.317-13.706-1.4 1.074-3.006 1.792-4.792 2.147l2.496 11.274a.94.94 0 0 1-.254.867l-3.694 3.673a.94.94 0 0 1-1.302.02l-4.105-3.836a.94.94 0 0 1-.267-.919l2.854-11.046a12.05 12.05 0 0 1-5.146-2.185c-5.601 2.175-9.33 7.622-9.33 13.711v6.57Zm13.574-7.12 3.038 2.839 2.688-2.672-2.547-11.503a.9.9 0 0 1-.1-.275.93.93 0 0 1-.187.42l-2.892 11.192Z"/><path d="M19.446 55.146a.94.94 0 0 1-.64-.254L14.7 51.057a.93.93 0 0 1-.267-.92l3.12-11.995a.94.94 0 0 1 .907-.701h.74c.183 0 .367-.02.54-.04a6 6 0 0 1 .609-.042c.44 0 .901.306.996.735l2.71 12.24a.94.94 0 0 1-.254.867l-3.694 3.672a.93.93 0 0 1-.661.273m-3.058-5.077 3.037 2.837 2.688-2.672-2.423-10.943a6 6 0 0 1-.49.024h-.015zm2.893-15.241c-6.539 0-11.857-5.362-11.857-11.953s5.32-11.953 11.857-11.953c6.539 0 11.858 5.362 11.858 11.953S25.82 34.828 19.281 34.828m0-22.031c-5.504 0-9.982 4.52-9.982 10.078s4.478 10.078 9.982 10.078 9.983-4.52 9.983-10.078-4.479-10.078-9.983-10.078m14.809 2.796a.936.936 0 0 1-.924-1.098l.53-3.031h-3.1a2.14 2.14 0 0 1-2.143-2.135V3.072A2.14 2.14 0 0 1 30.596.937H56.92c1.148 0 2.088.92 2.142 2.092v6.3a2.14 2.14 0 0 1-2.142 2.134H39.456l-4.771 3.918a.94.94 0 0 1-.596.212Zm-3.494-12.78a.267.267 0 0 0-.267.26v6.255c0 .14.123.26.267.26h4.217a.938.938 0 0 1 .924 1.099l-.287 1.64L38.525 9.8a.94.94 0 0 1 .595-.213h17.8c.145 0 .267-.12.267-.26V3.072c-.005-.103-.1-.26-.267-.26z"/><path d="M47.252 7.422H33.728a.937.937 0 1 1 0-1.875h13.525a.937.937 0 1 1-.001 1.875m6.537 0h-3.404a.937.937 0 1 1 0-1.875h3.404a.937.937 0 1 1 0 1.875"/></g><defs><clipPath id="a"><path fill="#fff" d="M0 0h60v60H0z"/></clipPath></defs></svg>