<svg xmlns="http://www.w3.org/2000/svg" width="60" height="60" fill="none"><g fill="#282928" clip-path="url(#a)"><path d="M3.984 44.473a.88.88 0 0 0 .88-.88v-1.171a.879.879 0 1 0-1.759 0v1.172a.88.88 0 0 0 .88.879Zm0 3.457a.88.88 0 0 0-.879.879v1.172a.879.879 0 1 0 1.758 0v-1.172a.88.88 0 0 0-.879-.88Zm-.879 7.265v1.172a.879.879 0 1 0 1.758 0v-1.172a.879.879 0 1 0-1.758 0m33.516-39.257c0 3.65-2.97 6.62-6.62 6.62a6.64 6.64 0 0 1-4.448-1.721l1.03-.035a.879.879 0 1 0-.059-1.756l-2.841.094a.88.88 0 0 0-.85.85l-.094 2.841a.879.879 0 1 0 1.757.059l.02-.62A8.4 8.4 0 0 0 30 24.316c4.62 0 8.38-3.758 8.38-8.378a.879.879 0 1 0-1.759 0m-4.053-3.958a.88.88 0 0 0 .908.85l2.842-.095a.88.88 0 0 0 .849-.85l.094-2.841a.879.879 0 1 0-1.756-.059l-.021.622A8.42 8.42 0 0 0 30 7.559c-4.62 0-8.379 3.758-8.379 8.379a.879.879 0 1 0 1.758 0A6.63 6.63 0 0 1 30 9.316c1.68 0 3.247.617 4.454 1.722l-1.036.034a.88.88 0 0 0-.85.908m-7.08 32.493a.88.88 0 0 0 .88-.88v-1.171a.879.879 0 1 0-1.759 0v1.172a.88.88 0 0 0 .88.879Zm0 3.457a.88.88 0 0 0-.879.879v1.172a.879.879 0 1 0 1.758 0v-1.172a.88.88 0 0 0-.879-.88Zm0 6.386a.88.88 0 0 0-.879.88v1.171a.879.879 0 1 0 1.758 0v-1.172a.88.88 0 0 0-.879-.879"/><path d="M60 40.84c0-1.13-.92-2.05-2.05-2.05h-.68a.879.879 0 1 0 0 1.757h.68c.16 0 .292.131.292.293v4.14a.293.293 0 0 1-.293.293H45.06a.293.293 0 0 1-.293-.293v-4.14c0-.162.131-.293.293-.293h8.408a.879.879 0 1 0 0-1.758h-1.204q.002-.03.003-.059v-5.702a.88.88 0 0 0-.88-.879H30.88v-3.227c2.474-.072 4.84-.446 6.898-1.096a8.25 8.25 0 0 0 4.721 1.398c4.346-.057 8.103-3.782 8.205-8.134a8.28 8.28 0 0 0-2.37-6.03 8.25 8.25 0 0 0-5.955-2.505c-.005 0-.017 0-.029-.012-.013-.014-.013-.028-.013-.032v-.147c0-2.38-.676-4.693-1.957-6.686a.879.879 0 1 0-1.479.95 10.6 10.6 0 0 1 1.678 5.86c-.006.487.18.945.521 1.29.34.345.795.535 1.288.535h.002a6.5 6.5 0 0 1 4.686 1.975 6.54 6.54 0 0 1 1.87 4.76c-.08 3.435-3.042 6.374-6.47 6.418a6.5 6.5 0 0 1-3.808-1.16 1.5 1.5 0 0 0-1.3-.195c-2.156.699-4.704 1.067-7.367 1.067s-5.21-.368-7.367-1.067a1.5 1.5 0 0 0-1.3.195 6.5 6.5 0 0 1-3.808 1.16c-3.427-.044-6.39-2.983-6.47-6.418a6.54 6.54 0 0 1 1.87-4.76 6.5 6.5 0 0 1 4.696-1.975h.001c.484 0 .938-.19 1.279-.534a1.8 1.8 0 0 0 .52-1.29v-.125c0-5.848 4.746-10.606 10.579-10.606 2.425 0 4.706.8 6.597 2.314A.879.879 0 1 0 37.695 2.7 12.35 12.35 0 0 0 30 0c-6.802 0-12.337 5.546-12.337 12.364l.001.146c0 .005 0 .02-.013.033-.012.012-.024.012-.04.012-2.255 0-4.365.89-5.943 2.504a8.28 8.28 0 0 0-2.371 6.03c.102 4.353 3.86 8.078 8.205 8.134a8.25 8.25 0 0 0 4.722-1.397c2.057.65 4.423 1.024 6.897 1.096v3.227H8.613a.88.88 0 0 0-.879.879v5.703q0 .03.003.058H2.051A2.055 2.055 0 0 0 0 40.84v4.141c0 .436.138.84.37 1.172-.232.333-.37.736-.37 1.172v4.14c0 .437.138.84.37 1.173A2.04 2.04 0 0 0 0 53.81v4.14C0 59.08.92 60 2.05 60h5.358a.879.879 0 1 0 0-1.758H2.05a.293.293 0 0 1-.293-.293v-4.14c0-.162.131-.293.293-.293h12.89c.162 0 .293.131.293.293v4.14a.293.293 0 0 1-.293.293h-3.543a.879.879 0 1 0 0 1.758h3.543c1.131 0 2.051-.92 2.051-2.05v-4.141c0-.436-.137-.84-.37-1.172.233-.333.37-.736.37-1.172v-4.14c0-.437-.137-.84-.37-1.173.233-.332.37-.736.37-1.172v-4.14c0-1.13-.92-2.05-2.05-2.05H9.488l.003-.06v-4.823h19.63v4.882h-5.567c-1.131 0-2.051.92-2.051 2.05v4.141c0 .436.137.84.37 1.172-.232.333-.37.736-.37 1.172v4.14c0 .437.137.84.37 1.173a2.04 2.04 0 0 0-.37 1.172v4.14c0 1.131.92 2.051 2.05 2.051h12.891c1.131 0 2.051-.92 2.051-2.05v-4.141c0-.436-.138-.84-.37-1.172.233-.333.37-.736.37-1.172v-4.14c0-.437-.138-.84-.37-1.173.233-.332.37-.736.37-1.172v-4.14c0-1.13-.92-2.05-2.05-2.05h-5.567v-4.883h19.629v4.824q0 .03.003.058h-5.452c-1.131 0-2.051.92-2.051 2.05v4.141c0 .436.137.84.37 1.172-.233.333-.37.736-.37 1.172v4.14c0 .437.137.84.37 1.173-.233.332-.37.736-.37 1.172v4.14c0 1.131.92 2.051 2.05 2.051H57.95c1.13 0 2.05-.92 2.05-2.05v-4.141c0-.436-.138-.84-.37-1.172.232-.333.37-.736.37-1.172v-4.14c0-.437-.138-.84-.37-1.173A2.04 2.04 0 0 0 60 44.98zM15.234 51.465a.293.293 0 0 1-.293.293H2.051a.293.293 0 0 1-.293-.293v-4.14c0-.162.131-.294.293-.294h12.89c.162 0 .293.132.293.293zm-.293-10.918c.162 0 .293.131.293.293v4.14a.293.293 0 0 1-.293.293H2.051a.293.293 0 0 1-.293-.293v-4.14c0-.162.131-.293.293-.293zm21.797 17.402a.293.293 0 0 1-.293.293h-12.89a.293.293 0 0 1-.293-.293v-4.14c0-.162.131-.293.293-.293h12.89c.162 0 .293.131.293.293zm0-6.484a.293.293 0 0 1-.293.293h-12.89a.293.293 0 0 1-.293-.293v-4.14c0-.162.131-.294.293-.294h12.89c.162 0 .293.132.293.293zm-.293-10.918c.162 0 .293.131.293.293v4.14a.293.293 0 0 1-.293.293h-12.89a.293.293 0 0 1-.293-.293v-4.14c0-.162.131-.293.293-.293zm21.797 17.402a.293.293 0 0 1-.293.293H45.06a.293.293 0 0 1-.293-.293v-4.14c0-.162.131-.293.293-.293h12.89c.162 0 .293.131.293.293v4.14Zm0-6.484a.293.293 0 0 1-.293.293H45.06a.293.293 0 0 1-.293-.293v-4.14c0-.162.131-.294.293-.294h12.89c.162 0 .293.132.293.293v4.14Z"/><path d="M46.113 42.422v1.172a.879.879 0 1 0 1.758 0v-1.172a.879.879 0 1 0-1.758 0m.879 5.508a.88.88 0 0 0-.879.879v1.172a.879.879 0 1 0 1.758 0v-1.172a.88.88 0 0 0-.879-.88Zm0 6.386a.88.88 0 0 0-.879.88v1.171a.879.879 0 1 0 1.758 0v-1.172a.88.88 0 0 0-.879-.879"/></g><defs><clipPath id="a"><path fill="#fff" d="M0 0h60v60H0z"/></clipPath></defs></svg>