<svg xmlns="http://www.w3.org/2000/svg" width="60" height="60" fill="none"><path fill="#282928" d="M39.376 13.125h-18.75A1.877 1.877 0 0 0 18.75 15v8.133l-6.576 9.04a6.6 6.6 0 0 0-1.142 2.65L8.525 48.202a.9.9 0 0 1-.142.348l-5.412 8.118 1.56 1.04 5.412-8.118c.21-.316.355-.67.425-1.043l2.508-13.377c.13-.683.408-1.33.816-1.893l5.059-6.956V37.5c0 .185.055.366.157.52l1.875 2.813a.935.935 0 0 0 1.356.22l6.494-5.051a1.483 1.483 0 0 1 2.095.28 1.513 1.513 0 0 1-.252 2.044l-5.836 6.022a1 1 0 0 0-.188.283l-2.35 5.482a3.76 3.76 0 0 1-1.104 1.451l-3.77 3.017a.94.94 0 0 0-.304.435l-.938 2.812 1.78.594.85-2.55 3.553-2.843a5.64 5.64 0 0 0 1.656-2.177l1.705-3.977h13.846A1.877 1.877 0 0 0 41.25 45V15a1.877 1.877 0 0 0-1.875-1.875Zm0 4.688A2.815 2.815 0 0 1 36.563 15h2.813zM20.626 15h2.812a2.815 2.815 0 0 1-2.812 2.813zm9.362 18.844a3.33 3.33 0 0 0-2.506.677l-.372.29a5.626 5.626 0 1 1 5.114.341 3.33 3.33 0 0 0-2.236-1.308m1.785 5.835a3.37 3.37 0 0 0 1.109-2.778 7.5 7.5 0 1 0-7.325-.882l-3.773 2.934-1.158-1.737V19.687A4.693 4.693 0 0 0 25.313 15h9.375a4.693 4.693 0 0 0 4.688 4.688v20.625A4.693 4.693 0 0 0 34.688 45h-8.07zM39.376 45h-2.813a2.815 2.815 0 0 1 2.813-2.813z"/><path fill="#282928" d="M31.409 30.703v1.875a2.34 2.34 0 0 0 2.157-1.64h1.121v-1.875h-1.121a2.34 2.34 0 0 0-2.158-1.641A2.463 2.463 0 0 0 29.087 30c0 .402-.236.703-.447.703s-.447-.3-.447-.703.236-.703.447-.703v-1.875a2.34 2.34 0 0 0-2.157 1.64h-1.17v1.875h1.17a2.34 2.34 0 0 0 2.157 1.641A2.463 2.463 0 0 0 30.962 30c0-.402.236-.703.447-.703.21 0 .446.3.446.703s-.235.703-.447.703Zm8.903 20.86a3.754 3.754 0 0 0-3.75 3.75c0 .03.009.06.01.09a26.5 26.5 0 0 1-14.72-.442l-.58 1.783a28.1 28.1 0 0 0 15.822.462 3.743 3.743 0 1 0 3.218-5.644Zm0 5.624a1.875 1.875 0 1 1 0-3.75 1.875 1.875 0 0 1 0 3.75"/><path fill="#282928" d="M19.688 8.438a3.754 3.754 0 0 0 3.75-3.75c0-.032-.01-.061-.01-.093A26.22 26.22 0 0 1 56.25 30a26.04 26.04 0 0 1-4.398 14.514L50.74 43.4a.938.938 0 0 0-1.573.435l-1.326 5.303a.937.937 0 0 0 1.137 1.138l5.304-1.326a.937.937 0 0 0 .435-1.573l-1.513-1.513a28.101 28.101 0 0 0-30.297-43.07 3.743 3.743 0 1 0-3.218 5.644Zm30.35 39.64.546-2.181 1.635 1.635zM19.689 2.812a1.875 1.875 0 1 1 0 3.75 1.875 1.875 0 0 1 0-3.75M6.54 45.518l1.563-1.035a26.21 26.21 0 0 1 .045-28.996l1.113 1.114a.937.937 0 0 0 1.573-.435l1.326-5.304a.94.94 0 0 0-1.137-1.137l-5.304 1.326a.938.938 0 0 0-.435 1.572l1.513 1.513a28.08 28.08 0 0 0-.257 31.382m3.421-33.595-.545 2.181-1.635-1.635z"/></svg>