<svg xmlns="http://www.w3.org/2000/svg" width="60" height="60" fill="none"><g clip-path="url(#a)"><path fill="#282928" d="M47.433 21.848a25.4 25.4 0 0 1 3.413 12.73c0 6.79-2.645 13.174-7.447 17.976S32.213 60 25.423 60s-13.175-2.645-17.977-7.446S0 41.368 0 34.577c0-6.79 2.644-13.175 7.446-17.976 4.802-4.802 11.186-7.446 17.977-7.446a25.4 25.4 0 0 1 12.73 3.413.938.938 0 0 1-.941 1.622 23.53 23.53 0 0 0-11.79-3.16c-12.984 0-23.547 10.563-23.547 23.547s10.564 23.548 23.548 23.548S48.97 47.562 48.97 34.577c0-4.145-1.093-8.222-3.16-11.789a.937.937 0 1 1 1.622-.94m12.292-9.889-7.955 7.956a.94.94 0 0 1-.906.242l-7.646-2.049L26.086 35.24a.934.934 0 0 1-1.326 0 .937.937 0 0 1 0-1.326l17.132-17.132-2.05-7.646a.94.94 0 0 1 .244-.906L48.04.275a.938.938 0 0 1 1.568.42l2.05 7.647 7.646 2.049a.937.937 0 0 1 .42 1.568m-2.474-.177-6.6-1.77a.94.94 0 0 1-.664-.662l-1.769-6.601-6.424 6.424 1.909 7.124 7.124 1.91zm-31.828 9.663c1.952 0 3.83.419 5.585 1.244a.938.938 0 0 0 .798-1.696 14.9 14.9 0 0 0-6.383-1.423c-8.275 0-15.007 6.732-15.007 15.007s6.732 15.007 15.007 15.007S40.43 42.852 40.43 34.577c0-2.23-.479-4.377-1.423-6.383a.938.938 0 0 0-1.697.799 13 13 0 0 1 1.245 5.584c0 7.241-5.891 13.132-13.132 13.132S12.29 41.82 12.29 34.577c0-7.24 5.89-13.132 13.132-13.132"/></g><defs><clipPath id="a"><path fill="#fff" d="M0 0h60v60H0z"/></clipPath></defs></svg>