<svg xmlns="http://www.w3.org/2000/svg" width="60" height="60" fill="none"><path fill="#282928" d="M55.313 42.773h-4.336V30a.82.82 0 0 0-.82-.82H37.334a7.394 7.394 0 0 0-6.516-6.516v-5.437h4.337A2.23 2.23 0 0 0 37.383 15V4.688a2.23 2.23 0 0 0-2.227-2.227H24.844a2.23 2.23 0 0 0-2.227 2.227V15a2.23 2.23 0 0 0 2.227 2.227h4.336v5.437a7.394 7.394 0 0 0-6.516 6.516H9.844a.82.82 0 0 0-.82.82v12.773H4.687A2.23 2.23 0 0 0 2.46 45v10.313a2.23 2.23 0 0 0 2.227 2.226H15a2.23 2.23 0 0 0 2.227-2.227V45A2.23 2.23 0 0 0 15 42.773h-4.336V30.82h12a7.394 7.394 0 0 0 6.516 6.516v5.437h-4.336A2.23 2.23 0 0 0 22.617 45v10.313a2.23 2.23 0 0 0 2.227 2.226h10.312a2.23 2.23 0 0 0 2.227-2.227V45a2.23 2.23 0 0 0-2.227-2.227H30.82v-5.437a7.394 7.394 0 0 0 6.516-6.516h12v11.953H45A2.23 2.23 0 0 0 42.773 45v10.313A2.23 2.23 0 0 0 45 57.539h10.313a2.23 2.23 0 0 0 2.226-2.227V45a2.23 2.23 0 0 0-2.227-2.227M24.258 15V4.688a.586.586 0 0 1 .586-.586h10.312a.586.586 0 0 1 .586.585V15a.586.586 0 0 1-.586.586H24.844a.586.586 0 0 1-.586-.586m-8.672 30v10.313a.587.587 0 0 1-.586.585H4.688a.586.586 0 0 1-.586-.586V45a.586.586 0 0 1 .585-.586H15a.587.587 0 0 1 .586.586m20.156 0v10.313a.586.586 0 0 1-.586.585H24.844a.586.586 0 0 1-.586-.586V45a.586.586 0 0 1 .586-.586h10.312a.586.586 0 0 1 .586.586M30 35.742A5.743 5.743 0 1 1 35.742 30 5.75 5.75 0 0 1 30 35.742m25.898 19.57a.587.587 0 0 1-.586.586H45a.586.586 0 0 1-.586-.586V45a.586.586 0 0 1 .586-.586h10.313a.587.587 0 0 1 .585.586z"/><path fill="#282928" d="m31.555 27.997-2.266 2.265-.844-.843a.82.82 0 0 0-1.16 1.16L28.708 32a.82.82 0 0 0 1.16 0l2.847-2.845a.82.82 0 0 0-1.16-1.16"/></svg>