<svg xmlns="http://www.w3.org/2000/svg" width="60" height="60" fill="none"><path fill="#282928" d="M30.546 27.189h-5.88a.94.94 0 0 0-.937.937v23.359c0 .518.42.937.938.937h5.879c.518 0 .937-.42.937-.937V28.126a.937.937 0 0 0-.937-.937m-.938 23.358h-4.004V29.064h4.004zM19.63 33.36h-5.88a.94.94 0 0 0-.937.938v17.188c0 .518.42.937.938.937h5.879c.517 0 .937-.42.937-.937V34.297a.94.94 0 0 0-.938-.938Zm-.937 17.188h-4.004V35.234h4.004zM8.712 39.27H2.835a.94.94 0 0 0-.938.937v11.279c0 .517.42.937.938.937h5.879c.518 0 .937-.42.937-.937v-11.28a.937.937 0 0 0-.937-.937Zm-.937 11.278H3.771v-9.403h4.004zm-5.56-14.97a.938.938 0 0 1-.308-1.824c14.12-4.917 26.544-12.067 36.964-21.264l-2.06.112a.938.938 0 0 1-.101-1.872l4.701-.255a.937.937 0 0 1 .979 1.07l-.679 4.66a.938.938 0 0 1-1.855-.27l.303-2.08c-10.613 9.378-23.263 16.664-37.636 21.67a1 1 0 0 1-.308.052ZM43.445 6.88l2.407 1.935-.81 2.98a1.19 1.19 0 0 0 .452 1.284 1.195 1.195 0 0 0 1.36.033l2.585-1.691 2.584 1.691c.42.275.954.262 1.36-.033a1.19 1.19 0 0 0 .453-1.284l-.81-2.98 2.406-1.935a1.19 1.19 0 0 0 .39-1.305 1.19 1.19 0 0 0-1.082-.827l-3.084-.15-1.097-2.887a1.19 1.19 0 0 0-1.12-.772c-.503 0-.943.303-1.12.772l-1.097 2.887-3.085.15a1.19 1.19 0 0 0-1.081.827 1.19 1.19 0 0 0 .389 1.305m4.31-.43a1.2 1.2 0 0 0 1.063-.772l.62-1.636.622 1.636a1.2 1.2 0 0 0 1.062.771l1.748.085-1.364 1.097c-.372.298-.53.789-.406 1.248l.46 1.689-1.465-.959a1.2 1.2 0 0 0-1.313 0l-1.464.959.46-1.689c.125-.46-.035-.95-.406-1.248l-1.364-1.097zM58.12 43.27l-1.591-.613a11.4 11.4 0 0 0-1.01-2.434l.693-1.56a.94.94 0 0 0-.194-1.044l-2.357-2.356a.9.9 0 0 0-.345-.219V17.025a.94.94 0 0 0-.938-.938H46.5a.94.94 0 0 0-.937.938v15.534h-1.76a.94.94 0 0 0-.874.6l-.528 1.372V22.576a.94.94 0 0 0-.938-.938h-5.879a.94.94 0 0 0-.937.938v19.35a11 11 0 0 0-.236.73l-1.592.613a.94.94 0 0 0-.6.875v3.333c0 .388.238.736.6.875l1.592.613q.106.37.236.73v1.79c0 .316.156.594.396.764l-.316.71a.94.94 0 0 0 .194 1.044l2.357 2.357a.94.94 0 0 0 1.044.194l1.56-.694c.771.43 1.587.768 2.434 1.01l.613 1.592c.139.362.487.6.875.6h3.333a.94.94 0 0 0 .875-.6l.612-1.592c.848-.241 1.664-.58 2.435-1.01l1.56.693a.94.94 0 0 0 1.043-.194l2.357-2.356a.94.94 0 0 0 .194-1.044l-.693-1.56c.43-.771.768-1.587 1.01-2.434l1.591-.613c.362-.14.6-.487.6-.875v-3.333a.94.94 0 0 0-.6-.875Zm-6.68-25.307V35.59l-.383.17a11.4 11.4 0 0 0-2.434-1.008l-.612-1.593a.94.94 0 0 0-.574-.55V17.963zm-10.915 5.551V35.43q-.327.155-.644.332l-1.56-.693a.94.94 0 0 0-1.044.194l-.756.756V23.513zm16.321 23.32-1.44.555a.94.94 0 0 0-.575.658 9.6 9.6 0 0 1-1.162 2.803.94.94 0 0 0-.059.872l.627 1.41-1.446 1.447-1.411-.626a.94.94 0 0 0-.872.058 9.6 9.6 0 0 1-2.804 1.163.94.94 0 0 0-.658.575l-.554 1.44h-2.046l-.554-1.44a.94.94 0 0 0-.658-.576 9.6 9.6 0 0 1-2.803-1.162.94.94 0 0 0-.872-.058l-1.411.627-1.447-1.447.627-1.41a.94.94 0 0 0-.059-.873 9.6 9.6 0 0 1-1.162-2.803.94.94 0 0 0-.575-.658l-1.44-.554v-2.046l1.44-.554a.94.94 0 0 0 .576-.658 9.6 9.6 0 0 1 1.162-2.803.94.94 0 0 0 .058-.873l-.627-1.41 1.447-1.447 1.411.627a.94.94 0 0 0 .873-.059 9.6 9.6 0 0 1 2.802-1.162.94.94 0 0 0 .658-.575l.554-1.44h2.046l.555 1.44a.94.94 0 0 0 .658.575 9.6 9.6 0 0 1 2.802 1.162.94.94 0 0 0 .872.059l1.412-.627 1.446 1.446-.626 1.411a.94.94 0 0 0 .058.872c.536.87.927 1.813 1.163 2.804.071.3.286.547.575.658l1.44.554v2.046h-.001ZM45.469 39.06a6.76 6.76 0 0 0-6.75 6.75 6.76 6.76 0 0 0 6.75 6.751 6.76 6.76 0 0 0 6.75-6.75 6.76 6.76 0 0 0-6.75-6.75Zm0 11.626a4.88 4.88 0 0 1-4.875-4.875 4.88 4.88 0 0 1 4.875-4.876 4.88 4.88 0 0 1 4.876 4.876 4.88 4.88 0 0 1-4.876 4.875"/></svg>