<svg xmlns="http://www.w3.org/2000/svg" width="60" height="60" fill="none"><g fill="#282928" clip-path="url(#a)"><path d="M45.973 9.947a1 1 0 0 0 .213-.006 2.173 2.173 0 0 1 2.129 2.169.972.972 0 0 0 1.944 0 4.12 4.12 0 0 0-3.235-4.02v-.934a.972.972 0 0 0-1.944 0v.978a4.116 4.116 0 0 0 1.063 8.091 2.172 2.172 0 1 1-2.171 2.172.972.972 0 0 0-1.944 0 4.12 4.12 0 0 0 3.052 3.976v1.065a.972.972 0 0 0 1.944 0v-1.02a4.115 4.115 0 0 0-.88-8.136 2.172 2.172 0 0 1-.17-4.335Z"/><path d="M46.2 1.432c-5.98 0-11.084 3.902-12.996 9.127H9.077c-.535 0-.968.482-.972 1.016l-.23 34.1H.998c-.537 0-.998.39-.998.927v4.328a7.636 7.636 0 0 0 7.29 7.605v.02h30.014v-.028c.243.01.343.029.497.029h.02a7.636 7.636 0 0 0 7.624-7.635V29.04c.243.013.5.02.752.02C53.807 29.06 60 22.856 60 15.245S53.81 1.431 46.2 1.431ZM7.66 56.612h-.006a5.72 5.72 0 0 1-5.71-5.692v-3.3h28.19v3.286a7.63 7.63 0 0 0 2.252 5.403c.102.102.228.181.335.303H7.661Zm35.841-5.692a5.69 5.69 0 0 1-5.68 5.692h-.018a5.733 5.733 0 0 1-5.724-5.705v-4.305a.9.9 0 0 0-.928-.926H9.82l.223-33.173h22.622a14.6 14.6 0 0 0-.266 2.7 13.7 13.7 0 0 0 1.173 5.563H24.39a.972.972 0 1 0 0 1.944h10.236a13.72 13.72 0 0 0 8.875 6.088zM46.2 27.118c-6.549 0-11.858-5.309-11.857-11.858 0-6.549 5.308-11.857 11.857-11.857S58.057 8.712 58.057 15.26c-.007 6.546-5.312 11.85-11.857 11.858"/><path d="M18.15 27.234c-1.715 0-3.11 1.352-3.11 3.013s1.395 3.013 3.11 3.013c1.716 0 3.112-1.352 3.112-3.013s-1.396-3.013-3.112-3.013m0 4.081c-.644 0-1.167-.479-1.167-1.068s.524-1.068 1.167-1.068c.644 0 1.168.479 1.168 1.068s-.524 1.069-1.168 1.069Zm5.268-1.071c0 .536.435.972.972.972h12.96a.972.972 0 0 0 0-1.945H24.39a.97.97 0 0 0-.972.973M18.15 18.785c-1.715 0-3.11 1.352-3.11 3.013 0 1.662 1.395 3.013 3.11 3.013 1.716 0 3.112-1.351 3.112-3.013s-1.396-3.013-3.112-3.013m0 4.082c-.644 0-1.167-.48-1.167-1.069s.524-1.069 1.167-1.069c.644 0 1.168.48 1.168 1.07 0 .588-.524 1.068-1.168 1.068m0 12.817c-1.715 0-3.11 1.35-3.11 3.012s1.395 3.013 3.11 3.013c1.716 0 3.112-1.352 3.112-3.013s-1.396-3.012-3.112-3.012m0 4.08c-.644 0-1.167-.478-1.167-1.068 0-.589.524-1.068 1.167-1.068.644 0 1.168.48 1.168 1.068 0 .59-.524 1.069-1.168 1.069Zm19.2-1.987H24.39a.972.972 0 1 0 0 1.944h12.96a.972.972 0 1 0 0-1.944"/></g><defs><clipPath id="a"><path fill="#fff" d="M0 0h60v60H0z"/></clipPath></defs></svg>