<svg xmlns="http://www.w3.org/2000/svg" width="60" height="60" fill="none"><g clip-path="url(#a)"><path fill="#282928" d="M31.605 49.335a.7.7 0 0 0 .234-.04l13.059-4.624c.28-.1.468-.365.468-.662V30.313a.703.703 0 0 0-.937-.663l-1.53.542c-1.279-2.57-4.06-4.479-7.841-5.402a7.95 7.95 0 0 0 2.913-6.154c0-4.395-3.575-7.97-7.97-7.97-4.396 0-7.971 3.575-7.971 7.97a7.95 7.95 0 0 0 2.913 6.154c-3.782.923-6.562 2.831-7.841 5.402l-1.53-.542a.702.702 0 0 0-.936.663v13.696c0 .297.187.563.468.662l13.058 4.624a.7.7 0 0 0 .235.04zm-.703-1.405h-1.804V35.64h1.804zm13.059-4.418-11.654 4.127V35.433l11.654-4.126zM23.435 18.636A6.573 6.573 0 0 1 30 12.071a6.573 6.573 0 0 1 6.566 6.565c0 3.62-2.945 6.563-6.566 6.563s-6.565-2.944-6.565-6.563m3.234 7.236a7.9 7.9 0 0 0 3.331.732 7.9 7.9 0 0 0 3.332-.732c4.004.661 6.948 2.385 8.23 4.794l-10.078 3.568h-2.967l-10.078-3.568c1.282-2.409 4.226-4.133 8.23-4.794M16.04 31.307l11.653 4.126V47.64L16.04 43.512zm43.385-4.454-2.18 3.517-.006.01-.03.043-.014.019-.048.053-.007.006-.05.046-.02.014-.042.03-.022.013a1 1 0 0 1-.117.056l-.02.007-.062.017-.012.003a.7.7 0 0 1-.145.016h-.004a.7.7 0 0 1-.21-.033l-.003-.001-.063-.024-.013-.006-.05-.024-.02-.013q-.02-.011-.038-.024l-.023-.017-.032-.025-.023-.021-.028-.028-.01-.008-2.816-3.03a.703.703 0 1 1 1.029-.957l1.532 1.648C55.007 16.15 45.799 6.078 33.779 4.327a.703.703 0 0 1 .203-1.39 27.33 27.33 0 0 1 16.641 9.096 27.33 27.33 0 0 1 6.63 15.659l.977-1.58a.703.703 0 0 1 1.195.74m-2.36 7.129a27.34 27.34 0 0 1-9.097 16.643 27.33 27.33 0 0 1-15.656 6.63l1.576.975a.702.702 0 1 1-.74 1.195l-3.517-2.176-.009-.006-.044-.031-.018-.014a.7.7 0 0 1-.106-.105l-.014-.018-.03-.044-.013-.021-.025-.046-.01-.021-.021-.051-.007-.02-.017-.06-.003-.014a1 1 0 0 1-.013-.078v-.014q-.003-.027-.003-.055v-.006l.002-.03q0-.023.003-.047l.005-.028a.7.7 0 0 1 .062-.197l.009-.018q.015-.03.035-.06l.003-.005.045-.06.015-.016.037-.039.008-.008 3.03-2.82a.703.703 0 0 1 .957 1.029l-1.65 1.535c11.99-.87 22.063-10.08 23.815-22.102a.702.702 0 1 1 1.39.203M2.935 26.019a27.33 27.33 0 0 1 9.097-16.642A27.33 27.33 0 0 1 27.692 2.75l-1.58-.978a.702.702 0 1 1 .74-1.195l3.518 2.18.01.005.043.031.019.014.053.048.006.006.046.052.014.019.03.042.013.022a1 1 0 0 1 .056.118l.007.02q.01.03.017.06l.003.013q.009.038.012.077v.002l.001.01.003.058v.007l-.002.028-.004.05q0 .012-.004.026l-.01.05-.006.024-.015.05-.008.022-.023.051-.009.018-.035.061-.003.004a1 1 0 0 1-.046.06l-.015.018-.036.037-.008.008-3.03 2.817a.7.7 0 0 1-.993-.036.703.703 0 0 1 .037-.993l1.647-1.531c-11.99.87-22.062 10.078-23.813 22.098a.703.703 0 0 1-1.39-.203m23.88 30.452a.703.703 0 0 1-.797.593 27.33 27.33 0 0 1-16.642-9.096A27.33 27.33 0 0 1 2.75 32.309l-.978 1.58a.702.702 0 1 1-1.195-.74l2.18-3.519.006-.008.03-.044.014-.019.048-.054.006-.005.052-.046.019-.015.042-.03.022-.012a.7.7 0 0 1 .118-.056l.02-.007.061-.017.012-.004a1 1 0 0 1 .078-.012h.012l.057-.003h.007l.03.002.046.003.03.005a.7.7 0 0 1 .193.06l.022.01.055.034.009.005.06.045.017.016.037.036.008.008 2.817 3.03a.703.703 0 0 1-1.029.956l-1.531-1.647c.87 11.99 10.078 22.061 22.098 23.813.384.056.65.412.594.796"/></g><defs><clipPath id="a"><path fill="#fff" d="M0 0h60v60H0z"/></clipPath></defs></svg>