<svg xmlns="http://www.w3.org/2000/svg" width="60" height="60" fill="none"><g fill="#282928" fill-rule="evenodd" clip-path="url(#a)" clip-rule="evenodd"><path d="M29.983 43.41a5.25 5.25 0 0 1-5.237-5.237c0-.387.316-.703.703-.703s.703.316.703.703a3.84 3.84 0 0 0 3.831 3.831c2.144 0 3.867-1.722 3.867-3.831a3.855 3.855 0 0 0-3.867-3.867 5.25 5.25 0 0 1-5.237-5.237 5.25 5.25 0 0 1 5.237-5.237c2.918 0 5.273 2.355 5.273 5.237a.705.705 0 0 1-.703.703.705.705 0 0 1-.703-.703c0-2.109-1.723-3.831-3.867-3.831a3.84 3.84 0 0 0-3.83 3.831 3.84 3.84 0 0 0 3.83 3.832 5.265 5.265 0 0 1 5.273 5.272c0 2.882-2.355 5.237-5.273 5.237"/><path d="M29.982 46.222a.705.705 0 0 1-.703-.703V21.723c0-.387.317-.703.703-.703.387 0 .703.316.703.703v23.796a.705.705 0 0 1-.703.703"/><path d="M29.983 50.054c-9.033 0-16.415-7.381-16.415-16.45 0-9.033 7.382-16.414 16.415-16.414 9.069 0 16.45 7.38 16.45 16.414 0 9.069-7.381 16.45-16.45 16.45m0-31.459c-8.26 0-15.009 6.75-15.009 15.01 0 8.295 6.749 15.043 15.01 15.043 8.294 0 15.043-6.748 15.043-15.044 0-8.26-6.749-15.009-15.044-15.009M29.982 12.198a.705.705 0 0 1-.703-.703V4.992c0-.387.317-.703.703-.703.387 0 .703.316.703.703v6.503a.705.705 0 0 1-.703.703M7.206 34.974H.703A.705.705 0 0 1 0 34.271c0-.386.316-.703.703-.703h6.503c.386 0 .703.317.703.703a.705.705 0 0 1-.703.703M13.884 18.876a.72.72 0 0 1-.527-.211l-4.57-4.605a.68.68 0 0 1 0-.984.68.68 0 0 1 .984 0l4.605 4.57a.721.721 0 0 1-.492 1.23"/><path d="M9.28 55.713a.7.7 0 0 1-.493-.211C3.128 49.842 0 42.285 0 34.272 0 17.752 13.462 4.289 29.982 4.289 46.538 4.29 60 17.751 60 34.272a.705.705 0 0 1-.703.703h-6.503a.705.705 0 0 1-.703-.703 22.15 22.15 0 0 0-7.381-16.486.713.713 0 0 1-.07-.984c.28-.281.703-.316.984-.07a23.55 23.55 0 0 1 7.873 16.837h5.062c-.352-15.431-13.04-27.874-28.577-27.874-15.746 0-28.576 12.83-28.576 28.577 0 7.416 2.777 14.376 7.873 19.718l3.62-3.585c-4.147-4.394-6.396-10.088-6.396-16.133 0-12.935 10.545-23.48 23.48-23.48 4.85 0 9.49 1.44 13.462 4.218.316.21.386.632.175.949-.246.316-.667.422-.984.175a22.2 22.2 0 0 0-12.654-3.936c-12.161 0-22.073 9.912-22.073 22.074 0 5.905 2.284 11.458 6.467 15.641.14.14.211.316.211.492s-.07.387-.21.492l-4.605 4.605a.7.7 0 0 1-.493.21"/><path d="M42.25 24.466c-.105 0-.21-.036-.316-.07-.352-.176-.492-.563-.352-.95l3.937-8.611-8.26 5.237c-.316.21-.773.105-.949-.21a.7.7 0 0 1 .21-.985l10.23-6.503a.69.69 0 0 1 .843.07c.246.176.316.528.176.809l-4.886 10.79a.68.68 0 0 1-.633.423"/></g><defs><clipPath id="a"><path fill="#fff" d="M0 0h60v60H0z"/></clipPath></defs></svg>