<svg xmlns="http://www.w3.org/2000/svg" width="60" height="60" fill="none"><path fill="#282928" d="M30.006 54.547H30c-4.097 0-7.426-3.334-7.426-7.432a7.45 7.45 0 0 1 4.884-6.977v-12.3a7.5 7.5 0 0 1-1.425.326l-2.323.29c-2.863.357-6.136.764-8.679 1.086a2.344 2.344 0 0 0-2.056 2.334v.927a7.45 7.45 0 0 1 4.883 6.977c0 4.098-3.329 7.432-7.42 7.432-4.098 0-7.432-3.334-7.432-7.432A7.45 7.45 0 0 1 7.9 32.8v-.928a7.445 7.445 0 0 1 6.501-7.375l2.127-.265c2.91-.362 6.272-.781 8.872-1.11a2.344 2.344 0 0 0 2.056-2.334v-.927a7.45 7.45 0 0 1-4.883-6.977c0-4.098 3.329-7.432 7.42-7.432a7.437 7.437 0 0 1 7.432 7.432 7.45 7.45 0 0 1-4.883 6.977v.927c0 1.19.882 2.193 2.051 2.334 2.56.323 5.85.733 8.724 1.091l2.279.284a7.446 7.446 0 0 1 6.502 7.375v.927a7.45 7.45 0 0 1 4.895 6.978c0 4.098-3.334 7.432-7.432 7.432-4.092 0-7.42-3.334-7.42-7.432a7.45 7.45 0 0 1 4.883-6.977v-.927c0-1.19-.882-2.193-2.051-2.334-2.56-.324-5.851-.734-8.724-1.092l-2.279-.284a7.6 7.6 0 0 1-1.428-.327v12.3a7.45 7.45 0 0 1 4.883 6.977c.001 4.099-3.328 7.433-7.42 7.433M28.16 26.076a.7.7 0 0 1 .703.703v13.87c0 .315-.21.592-.512.677a6.03 6.03 0 0 0-4.372 5.79c0 3.322 2.698 6.025 6.015 6.025h.01c3.317 0 6.015-2.704 6.015-6.026a6.034 6.034 0 0 0-4.371-5.789.7.7 0 0 1-.512-.676V26.779a.703.703 0 0 1 1.026-.625 6 6 0 0 0 1.986.616l2.275.284c2.873.358 6.166.768 8.721 1.091 1.872.225 3.286 1.828 3.286 3.73v1.438a.7.7 0 0 1-.512.677 6.034 6.034 0 0 0-4.371 5.789c0 3.322 2.697 6.025 6.014 6.025a6.033 6.033 0 0 0 6.025-6.025 6.036 6.036 0 0 0-4.382-5.789.704.704 0 0 1-.512-.677v-1.438c0-3.03-2.267-5.6-5.272-5.98l-2.277-.284a5650 5650 0 0 1-8.722-1.092c-1.871-.224-3.285-1.828-3.285-3.73v-1.438c0-.314.209-.591.511-.676a6.03 6.03 0 0 0 4.372-5.79c0-3.322-2.698-6.025-6.015-6.025a6.03 6.03 0 0 0-6.025 6.026 6.03 6.03 0 0 0 4.371 5.789.7.7 0 0 1 .512.676v1.439a3.75 3.75 0 0 1-3.291 3.73c-2.596.328-5.96.747-8.87 1.11l-2.126.264a6.04 6.04 0 0 0-5.27 5.98v1.439c0 .315-.209.59-.512.677a6.04 6.04 0 0 0-4.383 5.788 6.033 6.033 0 0 0 6.026 6.026c3.316 0 6.014-2.703 6.014-6.026a6.034 6.034 0 0 0-4.372-5.789.7.7 0 0 1-.512-.676v-1.439a3.75 3.75 0 0 1 3.291-3.73c2.54-.32 5.813-.728 8.677-1.086l2.32-.289a6 6 0 0 0 1.982-.615.7.7 0 0 1 .324-.078m1.842 24.803a3.775 3.775 0 0 1-3.761-3.764c0-2.062 1.685-3.746 3.756-3.752h.005c2.07.006 3.756 1.69 3.756 3.752a3.774 3.774 0 0 1-3.756 3.764M30 44.769a2.36 2.36 0 0 0-2.352 2.346 2.364 2.364 0 0 0 2.355 2.357 2.364 2.364 0 0 0 2.349-2.357A2.36 2.36 0 0 0 30 44.77m19.562-1.227a3.76 3.76 0 0 1-3.752-3.763 3.756 3.756 0 0 1 3.752-3.753 3.76 3.76 0 0 1 3.764 3.753 3.767 3.767 0 0 1-3.764 3.763m0-6.11a2.35 2.35 0 0 0-2.345 2.346c0 1.3 1.052 2.358 2.345 2.358a2.36 2.36 0 0 0 2.358-2.358 2.354 2.354 0 0 0-2.358-2.346m-39.124 6.11a3.77 3.77 0 0 1-3.763-3.763 3.76 3.76 0 0 1 3.763-3.753 3.757 3.757 0 0 1 3.753 3.753 3.763 3.763 0 0 1-3.753 3.763m0-6.11a2.354 2.354 0 0 0-2.357 2.346 2.36 2.36 0 0 0 2.357 2.358 2.355 2.355 0 0 0 2.347-2.358 2.35 2.35 0 0 0-2.347-2.346m19.565-20.794c-2.076-.008-3.761-1.69-3.761-3.753a3.773 3.773 0 0 1 3.755-3.763h.006a3.774 3.774 0 0 1 3.755 3.763c0 2.062-1.684 3.746-3.755 3.753M30 10.528a2.365 2.365 0 0 0-2.352 2.357 2.36 2.36 0 0 0 2.355 2.347 2.36 2.36 0 0 0 2.349-2.347A2.364 2.364 0 0 0 30 10.528"/></svg>