<svg width="50" height="50" viewBox="0 0 50 50" fill="none" xmlns="http://www.w3.org/2000/svg">
<g clip-path="url(#clip0_175_117)">
<path d="M44.4258 33.9695L40.2492 29.7922L38.5805 30.793L38.1102 28.9062H35.9375V27.3438H10.9375V38.2812H25V42.0164L26.8867 42.4875L25.8867 44.1555L30.0633 48.3328L31.732 47.332L32.2023 49.2188H38.1102L38.5812 47.3312L40.25 48.332L44.4266 44.1547L43.4266 42.4867L45.3125 42.0164V36.1086L43.425 35.6375L44.4258 33.9695ZM35.9375 39.0625C35.9375 39.493 35.5875 39.8438 35.1562 39.8438C34.725 39.8438 34.375 39.493 34.375 39.0625C34.375 38.632 34.725 38.2812 35.1562 38.2812C35.5875 38.2812 35.9375 38.632 35.9375 39.0625ZM34.375 36.7188H18.75V33.5938H34.375V36.7188ZM31.3406 38.2812H32.957C32.8688 38.5266 32.8125 38.7875 32.8125 39.0625C32.8125 40.3547 33.8641 41.4062 35.1562 41.4062C36.4484 41.4062 37.5 40.3547 37.5 39.0625C37.5 38.0453 36.8445 37.1859 35.9375 36.8625V35.2352C37.718 35.5984 39.0625 37.1758 39.0625 39.0625C39.0625 41.2164 37.3102 42.9688 35.1562 42.9688C33.0023 42.9688 31.25 41.2164 31.25 39.0625C31.25 38.8016 31.2859 38.5406 31.3406 38.2812ZM34.375 32.0312H18.75V28.9062H34.375V32.0312ZM17.1875 28.9062V32.0312H12.5V28.9062H17.1875ZM12.5 33.5938H17.1875V36.7188H12.5V33.5938ZM43.75 37.3289V40.7961L42.2273 41.1766L41.8102 41.3344L41.4469 42.2266L42.4594 43.9141L40.007 46.3656L38.3203 45.3531L37.3672 45.7461L36.8898 47.6562H33.4227L32.9453 45.7453L31.9922 45.3523L30.3055 46.3648L27.8531 43.9133L28.8656 42.2258L28.4781 41.2742L26.5625 40.7961V38.2812H29.7555C29.7172 38.5406 29.6875 38.8008 29.6875 39.0625C29.6875 42.0781 32.1414 44.5312 35.1562 44.5312C38.1711 44.5312 40.625 42.0781 40.625 39.0625C40.625 36.3133 38.5828 34.0375 35.9375 33.6563V30.4688H36.8898L37.3672 32.3797L38.3203 32.7727L40.007 31.7602L42.4594 34.2117L41.4469 35.8977L41.8344 36.8508L43.75 37.3289Z" fill="black"/>
<path d="M24.2188 16.4062V24.2188H49.2188V16.4062H24.2188ZM25.7812 17.9688H30.4688V22.6562H25.7812V17.9688ZM47.6562 22.6562H32.0312V17.9688H47.6562V22.6562Z" fill="black"/>
<path d="M21.875 39.8438H23.4375V41.4062H21.875V39.8438Z" fill="black"/>
<path d="M18.75 39.8438H20.3125V41.4062H18.75V39.8438Z" fill="black"/>
<path d="M2.34375 37.4999V23.4374C2.34375 22.1452 3.39531 21.0937 4.6875 21.0937H14.8438V24.7015L23.6219 20.3124L14.8438 15.9233V19.5312H4.6875C2.53359 19.5312 0.78125 21.2835 0.78125 23.4374V37.4999C0.78125 39.6538 2.53359 41.4062 4.6875 41.4062H17.1875V39.8437H4.6875C3.39531 39.8437 2.34375 38.7921 2.34375 37.4999ZM16.4062 18.4515L20.1281 20.3124L16.4062 22.1733V18.4515Z" fill="black"/>
<path d="M30.4688 0.78125H5.46875V11.7188H30.4688V0.78125ZM28.9062 5.46875H13.2812V2.34375H28.9062V5.46875ZM11.7188 2.34375V5.46875H7.03125V2.34375H11.7188ZM7.03125 7.03125H11.7188V10.1562H7.03125V7.03125ZM13.2812 10.1562V7.03125H28.9062V10.1562H13.2812Z" fill="black"/>
<path d="M38.2812 19.5312H39.8438V21.0938H38.2812V19.5312Z" fill="black"/>
<path d="M41.4062 19.5312H42.9688V21.0938H41.4062V19.5312Z" fill="black"/>
<path d="M44.5312 19.5312H46.0938V21.0938H44.5312V19.5312Z" fill="black"/>
<path d="M32.0312 5.46875H33.5938V7.03125H32.0312V5.46875Z" fill="black"/>
<path d="M42.9688 7.8125V10.1562H39.8438L43.75 15.3648L47.6562 10.1562H44.5312V7.8125C44.5312 6.52031 43.4797 5.46875 42.1875 5.46875H35.1562V7.03125H42.1875C42.6187 7.03125 42.9688 7.38203 42.9688 7.8125ZM43.75 12.7602L42.9688 11.7188H44.5312L43.75 12.7602Z" fill="black"/>
</g>
<defs>
<clipPath id="clip0_175_117">
<rect width="50" height="50" fill="white"/>
</clipPath>
</defs>
</svg>
