<svg width="50" height="50" viewBox="0 0 50 50" fill="none" xmlns="http://www.w3.org/2000/svg">
<g clip-path="url(#clip0_175_78)">
<mask id="mask0_175_78" style="mask-type:luminance" maskUnits="userSpaceOnUse" x="0" y="0" width="50" height="50">
<path d="M0 2.98023e-06H50V50H0V2.98023e-06Z" fill="white"/>
</mask>
<g mask="url(#mask0_175_78)">
<path d="M20.3751 10.0261C20.3751 11.3676 19.3045 12.4591 17.9712 12.4928L17.9075 12.4937H4.42071C3.0579 12.4937 1.95308 11.3889 1.95308 10.0261V4.42905L1.95394 4.36532C1.98773 3.03196 3.0792 1.96142 4.42071 1.96142H17.9075C19.2703 1.96142 20.3751 3.06624 20.3751 4.42905V10.0261ZM22.3282 4.42905C22.3282 1.98756 20.349 0.00834189 17.9075 0.00833893H4.42071C1.99829 0.00833893 0.0309451 1.95674 0.000357628 4.3719L0 4.42905V10.0261C0 12.4676 1.97922 14.4468 4.42071 14.4468H17.9075L17.9646 14.4464C20.3798 14.4158 22.3282 12.4485 22.3282 10.0261V4.42905Z" fill="black"/>
<path d="M20.3751 35.8054C20.3751 37.1469 19.3045 38.2384 17.9712 38.2721L17.9075 38.273H4.42071C3.0579 38.273 1.95308 37.1682 1.95308 35.8054V30.2083L1.95394 30.1446C1.98773 28.8113 3.0792 27.7407 4.42071 27.7407H17.9075C19.2703 27.7407 20.3751 28.8455 20.3751 30.2083V35.8054ZM22.3282 30.2083C22.3282 27.7669 20.349 25.7876 17.9075 25.7876H4.42071C1.99829 25.7876 0.0309451 27.736 0.000357628 30.1512L0 30.2083V35.8054C0 38.2469 1.97922 40.2261 4.42071 40.2261H17.9075L17.9646 40.2257C20.3798 40.1951 22.3282 38.2278 22.3282 35.8054V30.2083Z" fill="black"/>
<path d="M48.0469 15.6224V21.2194C48.0469 22.5822 46.9422 23.6871 45.5794 23.6871H32.0926C30.7298 23.6871 29.625 22.5822 29.625 21.2194V15.6224L29.6258 15.5587C29.6596 14.2253 30.7511 13.1548 32.0926 13.1548H34.4624L34.4877 13.1545C35.0154 13.1411 35.4391 12.7091 35.4391 12.1782C35.439 11.6473 35.0154 11.2154 34.4877 11.202L34.4624 11.2017H32.0926C29.6702 11.2017 27.7028 13.1501 27.6722 15.5653L27.6719 15.6224V21.2194C27.6719 23.6609 29.6511 25.6401 32.0926 25.6401H45.5794C48.0209 25.6401 50.0001 23.6609 50.0001 21.2194V15.6224C50.0001 13.1809 48.0209 11.2017 45.5794 11.2017H43.052C42.5127 11.2017 42.0755 11.6389 42.0755 12.1782C42.0755 12.7176 42.5127 13.1548 43.052 13.1548H45.5794C46.9422 13.1548 48.0469 14.2596 48.0469 15.6224Z" fill="black"/>
<path d="M16.5754 8.2041L16.6005 8.20382C17.1282 8.19046 17.5519 7.75849 17.5519 7.22756C17.5519 6.69664 17.1282 6.26467 16.6005 6.25131L16.5754 6.25102H5.75291C5.21357 6.25102 4.77637 6.68822 4.77637 7.22756C4.77637 7.7669 5.21357 8.2041 5.75291 8.2041H16.5754Z" fill="black"/>
<path d="M16.5754 33.9834L16.6005 33.9831C17.1282 33.9698 17.5519 33.5378 17.5519 33.0069C17.5519 32.4759 17.1282 32.044 16.6005 32.0306L16.5754 32.0303H5.75291C5.21357 32.0303 4.77637 32.4675 4.77637 33.0069C4.77637 33.5462 5.21357 33.9834 5.75291 33.9834H16.5754Z" fill="black"/>
<path d="M44.2472 19.3975L44.2724 19.3972C44.8001 19.3838 45.2238 18.9518 45.2238 18.4209C45.2238 17.89 44.8001 17.458 44.2724 17.4447L44.2472 17.4444H33.4248C32.8854 17.4444 32.4482 17.8816 32.4482 18.4209C32.4482 18.9603 32.8854 19.3975 33.4248 19.3975H44.2472Z" fill="black"/>
<path d="M40.4888 32.0489C40.8702 32.4303 41.4886 32.4303 41.8699 32.0489C42.2513 31.6675 42.2513 31.0492 41.8699 30.6679L39.1878 27.9857C38.8124 27.6103 38.2074 27.6044 37.8248 27.9681L37.8068 27.9857L35.1244 30.6678L35.1068 30.6859C34.7432 31.0685 34.749 31.6735 35.1244 32.0489C35.4998 32.4243 36.1048 32.4302 36.4874 32.0666L36.5054 32.049L38.4972 30.0573L40.4888 32.0489Z" fill="black"/>
<path d="M37.5208 28.6763V42.2837C37.5208 45.4622 34.9443 48.0386 31.7659 48.0386H17.6171C14.6897 48.0386 12.2716 45.8521 11.9092 43.0236C11.8407 42.4886 11.3514 42.1105 10.8165 42.179C10.2815 42.2476 9.90335 42.7368 9.97189 43.2718C10.4576 47.0626 13.6945 49.9917 17.6171 49.9917H31.7659C36.0229 49.9917 39.474 46.5409 39.474 42.2837V28.6763C39.474 28.137 39.0368 27.6998 38.4974 27.6998C37.9581 27.6998 37.5208 28.137 37.5208 28.6763Z" fill="black"/>
<path d="M10.268 23.7799C10.6506 24.1436 11.2556 24.1377 11.6311 23.7623L14.3133 21.0801L12.9322 19.699L10.9405 21.6908L8.94878 19.699C8.56742 19.3177 7.94913 19.3177 7.56777 19.699C7.1864 20.0804 7.1864 20.6987 7.56777 21.0801L10.25 23.7623L10.268 23.7799ZM14.3133 21.0801C14.6946 20.6987 14.6946 20.0804 14.3133 19.699C13.9319 19.3176 13.3136 19.3176 12.9322 19.699L14.3133 21.0801Z" fill="black"/>
<path d="M9.96436 16.9564V23.0718C9.96436 23.6111 10.4016 24.0483 10.9409 24.0483C11.4718 24.0483 11.9038 23.6247 11.9171 23.097L11.9174 23.0718V16.9564L11.9171 16.9313C11.9038 16.4036 11.4718 15.9799 10.9409 15.9799C10.41 15.9799 9.97801 16.4036 9.96464 16.9313L9.96436 16.9564Z" fill="black"/>
</g>
</g>
<defs>
<clipPath id="clip0_175_78">
<rect width="50" height="50" fill="white"/>
</clipPath>
</defs>
</svg>
