<svg xmlns="http://www.w3.org/2000/svg" width="60" height="60" fill="none"><g fill="#282928" clip-path="url(#a)"><path d="M58.438 42.945c-1.12-1.645-3.018-2.046-5.08-1.076l-1.093.481c1.723-3.673 1.937-7.769 1.079-11.637-.986-4.443-3.366-8.747-7.074-12.793a.879.879 0 1 0-1.296 1.188c3.498 3.815 5.736 7.848 6.654 11.985.967 4.359.404 8.854-2.062 12.446l-10.939 4.816.009-1.235a1 1 0 0 0-.004-.094 5.51 5.51 0 0 0-4.743-4.922l-9.722-1.12c-3.738-.532-4.701-2.772-9.764-4.05-.35-2.968.117-6.128 1.395-9.297 1.924-4.771 5.69-9.407 10.91-13.442 1.946 1.38 10.626 1.55 12.569-.229a47 47 0 0 1 2.83 2.323.875.875 0 0 0 1.24-.071.88.88 0 0 0-.071-1.241 49 49 0 0 0-3.108-2.54c.257-1.088-.102-2.36-1.049-3.118 2.752-4.173 3.552-6.905 2.446-8.336C40.806 0 39.862.462 39.458.66c-.683.333-1.056.351-1.685-.06-1.2-.786-2.462-.811-3.7 0-.638.416-1.14.416-1.776 0-1.2-.786-2.461-.811-3.7 0-.637.416-1.01.39-1.684.056-.403-.2-1.346-.67-2.11.314-1.08 1.39-.358 4.036 2.208 8.067a3 3 0 0 0-.447.299c-1.02-1.078-2.692-2.202-5.11-1.932-2.005.225-3.484-.438-4.372-1.033a.88.88 0 0 0-.978 1.46c1.131.758 3.011 1.602 5.545 1.32 1.868-.21 3.136.745 3.925 1.716l-.03.113c-.673.01-1.68.074-2.787.304-2.664.554-4.641 1.82-5.719 3.662a.879.879 0 0 0 1.517.887c1.603-2.738 5.514-3.073 7.068-3.094l.021.057c-5.544 4.277-9.403 9.046-11.476 14.185-1.31 3.248-1.834 6.502-1.568 9.594a18 18 0 0 0-2.552-.197v-.532a2.553 2.553 0 0 0-2.55-2.55H3.464a2.553 2.553 0 0 0-2.55 2.55v20.466a2.553 2.553 0 0 0 2.55 2.55h4.034a2.553 2.553 0 0 0 2.55-2.55v-.25l8.8 3.275c1.183.44 2.422.664 3.684.664h13.111c2.005 0 3.96-.568 5.653-1.64 17.49-11.089 16.429-10.399 16.53-10.488a3.77 3.77 0 0 0 .612-4.927m-20.81-30.02c-3.214.811-6.338.811-9.552 0-1.38-.349-.98-2.808.502-2.437 2.876.722 5.671.722 8.547 0 1.456-.365 1.904 2.083.503 2.437M26.11 2.219l.02.01c1.19.59 2.232.623 3.428-.16 1.497-.98 1.66.592 3.625.592.947 0 1.47-.342 1.85-.592.638-.417 1.14-.416 1.776 0 1.202.787 2.22.748 3.443.158.18.651-.228 2.594-2.834 6.474-1.294-.022-3.172 1.249-8.488.066-2.6-3.93-3.002-5.892-2.82-6.548m30.596 44.295L40.355 56.876a8.8 8.8 0 0 1-4.712 1.367H22.532a8.8 8.8 0 0 1-3.07-.553l-9.414-3.504v-9.463a.879.879 0 1 0-1.757 0v11.589a.794.794 0 0 1-.793.793H3.464a.794.794 0 0 1-.792-.793V35.846c0-.437.355-.793.792-.793h4.034c.437 0 .793.356.793.793v4.769a.879.879 0 1 0 1.757 0v-2.48c7.27.055 8.904 3.887 13.884 4.591l.023.003 9.721 1.12a3.754 3.754 0 0 1 3.202 3.307l-.012 1.672H27.8a.879.879 0 1 0 0 1.757h9.938a.9.9 0 0 0 .35-.073l15.988-7.039c1.15-.51 2.198-.584 2.909.461.552.812.43 1.91-.278 2.58"/><path d="M33.083 39.87a.88.88 0 0 0 .879-.88v-1.456c2.467-.4 3.906-2.397 4.22-4.26.39-2.327-.828-4.35-3.106-5.155a44 44 0 0 1-1.114-.41v-5.603c1.04.172 1.663.71 1.709.75a.879.879 0 0 0 1.187-1.296c-.062-.057-1.139-1.026-2.896-1.228v-1.25a.879.879 0 1 0-1.758 0v1.32a7 7 0 0 0-.652.16c-1.49.449-2.604 1.727-2.908 3.335-.275 1.46.188 2.864 1.208 3.664.585.459 1.323.88 2.352 1.329v6.95c-1.016-.044-1.642-.235-2.733-.949a.879.879 0 0 0-.962 1.471c1.435.939 2.393 1.183 3.695 1.234v1.395c0 .485.394.879.879.879m-2.146-13.692c-.502-.394-.719-1.143-.566-1.955.143-.753.66-1.669 1.688-1.978q.074-.022.145-.04v4.746a7.4 7.4 0 0 1-1.267-.773m3.553 3.598c2.187.773 2.052 2.65 1.958 3.207-.194 1.153-1.04 2.385-2.486 2.755v-6.153q.254.094.528.19"/></g><defs><clipPath id="a"><path fill="#fff" d="M0 0h60v60H0z"/></clipPath></defs></svg>