<svg xmlns="http://www.w3.org/2000/svg" width="60" height="60" fill="none"><path fill="#282928" d="M50.64 57.24H9.6c-.36 0-.6-.24-.6-.6V3.36c0-.36.24-.6.6-.6h41.04c.36 0 .6.24.6.6v12c0 .36-.24.6-.6.6s-.6-.24-.6-.6V3.96H10.2v51.96h39.84v-10.8c0-.36.24-.6.6-.6s.6.24.6.6v11.4c0 .36-.24.72-.6.72"/><path fill="#282928" d="M9.6 53.28H5.64c-.36 0-.6-.24-.6-.6V7.32c0-.36.24-.6.6-.6H9.6c.36 0 .6.24.6.6V52.8c0 .24-.24.48-.6.48m-3.36-1.2h2.64V7.92H6.24z"/><path fill="#282928" d="M5.64 50.039H1.8c-.36 0-.6-.24-.6-.6v-38.88c0-.36.24-.6.6-.6h3.84c.36 0 .6.24.6.6v38.88c0 .36-.24.6-.6.6m-3.24-1.2h2.64v-37.68H2.4zm18.118 3.601h-4.44c-.36 0-.6-.24-.6-.6v-8.16c0-.36.24-.6.6-.6h4.44c.36 0 .6.24.6.6v8.16c0 .24-.24.6-.6.6m-3.84-1.2h3.24v-6.96h-3.24zm11.76 1.2h-4.44c-.36 0-.6-.24-.6-.6V40.68c0-.36.24-.6.6-.6h4.44c.36 0 .6.24.6.6v11.16c0 .24-.36.6-.6.6m-3.96-1.2h3.24v-9.96h-3.24zm11.762 1.2H31.8c-.36 0-.6-.24-.6-.6v-6.6c0-.36.24-.6.6-.6h4.44c.36 0 .6.24.6.6v6.6c0 .36-.24.6-.6.6m-3.84-1.2h3.24v-5.4H32.4zm11.76 1.2h-4.44c-.36 0-.6-.24-.6-.6V37.92c0-.36.24-.6.6-.6h4.44c.36 0 .6.24.6.6v13.92c0 .36-.24.6-.6.6m-3.84-1.2h3.24V38.52h-3.24zM32.4 18c-.24 0-.36-.12-.48-.24-.24-.24-.12-.6.12-.84l6.72-4.56c.24-.24.6-.12.84.12s.12.6-.12.84l-6.72 4.56c-.12.12-.24.12-.36.12m-12.72-1.8c-.24 0-.36-.12-.48-.24-.24-.24-.12-.6.12-.84l3.96-2.64c.24-.24.6-.12.84.12s.12.6-.12.84l-3.96 2.64c-.12.12-.24.12-.36.12m9.36 1.439c-.24 0-.36-.12-.48-.24l-2.4-3.6c-.24-.24-.12-.6.12-.84s.6-.12.84.12l2.4 3.6c.24.24.12.6-.12.84-.12.12-.24.12-.36.12"/><path fill="#282928" d="M25.439 14.52h-.48c-.72-.12-1.32-.6-1.68-1.2s-.6-1.32-.36-2.04c.12-.72.6-1.32 1.2-1.68 1.2-.84 3-.48 3.72.72.36.6.6 1.32.36 2.04-.12.72-.6 1.32-1.2 1.68-.6.24-1.08.48-1.56.48m-.96-4.08c-.36.24-.6.6-.6.96-.12.36 0 .84.24 1.2s.6.6.96.6c.36.12.84 0 1.2-.24s.6-.6.6-.96c.12-.36 0-.84-.24-1.2-.48-.6-1.44-.84-2.16-.36m6.12 10.8h-.48c-.72-.12-1.32-.6-1.68-1.2s-.6-1.32-.36-2.04c.12-.72.6-1.32 1.2-1.68 1.2-.84 3-.48 3.72.72.84 1.2.48 3-.72 3.72-.6.36-1.08.48-1.68.48m0-4.32c-.24 0-.6.12-.84.24-.36.24-.6.6-.6.96-.12.36 0 .84.24 1.2s.6.6.96.6c.36.12.84 0 1.2-.24.72-.48.84-1.44.36-2.16-.36-.36-.84-.6-1.32-.6M40.92 14.4h-.48c-.72-.12-1.32-.6-1.68-1.2s-.6-1.32-.36-2.04c.12-.72.6-1.32 1.2-1.68 1.2-.84 3-.48 3.72.72.84 1.2.48 3-.72 3.72-.6.36-1.08.48-1.68.48m0-4.32c-.24 0-.6.12-.84.24-.36.24-.6.6-.6.96-.12.36 0 .84.24 1.2s.6.6.96.6c.36.12.84 0 1.2-.24.72-.48.84-1.44.36-2.16-.36-.36-.84-.6-1.32-.6m-23.042 9.119h-.48c-.72-.12-1.32-.6-1.68-1.2s-.6-1.32-.36-2.04c.12-.72.6-1.32 1.2-1.68s1.32-.6 2.04-.36c.72.12 1.32.6 1.68 1.2.84 1.2.48 3-.72 3.72-.6.24-1.2.36-1.68.36m0-4.2c-.24 0-.6.12-.84.24-.36.24-.6.6-.6.96-.12.36 0 .84.24 1.2.48.72 1.44.84 2.16.36s.84-1.44.36-2.16c-.24-.36-.6-.6-.96-.6zM30.72 25.8h-6.84c-.36 0-.6-.24-.6-.6s.24-.6.6-.6h6.84c.36 0 .6.24.6.6s-.36.6-.6.6m-9.842 0h-5.04c-.36 0-.6-.24-.6-.6s.24-.6.6-.6h5.04c.36 0 .6.24.6.6s-.24.6-.6.6m14.041 2.76h-6.36c-.36 0-.6-.24-.6-.6s.24-.6.6-.6h6.36c.36 0 .6.24.6.6s-.24.6-.6.6m-9.359 0h-9.84c-.36 0-.6-.24-.6-.6s.24-.6.6-.6h9.84c.36 0 .6.24.6.6s-.24.6-.6.6m4.68 2.76h-5.88c-.36 0-.6-.24-.6-.6s.24-.6.6-.6h5.88c.36 0 .6.24.6.6s-.36.6-.6.6m-8.882 0h-5.52c-.36 0-.6-.24-.6-.6s.24-.6.6-.6h5.52c.36 0 .6.24.6.6s-.36.6-.6.6m13.562 2.759h-5.88c-.36 0-.6-.24-.6-.6s.24-.6.6-.6h5.88c.36 0 .6.24.6.6s-.24.6-.6.6m-8.882 0h-10.2c-.36 0-.6-.24-.6-.6s.24-.6.6-.6h10.2c.36 0 .6.24.6.6s-.24.6-.6.6m-3.72 2.761h-6.48c-.36 0-.6-.24-.6-.6s.24-.6.6-.6h6.48c.36 0 .6.24.6.6s-.24.6-.6.6m27.96 2.04a.66.66 0 0 1-.6-.36l-1.08-2.88c-.12-.12 0-.36 0-.48.12-.12.24-.24.36-.24q1.08-.18 2.16-.72c.12-.12.36-.12.48 0l.36.36 1.08 2.88v.48l-.36.36-2.28.84c0-.24 0-.24-.12-.24m-.24-3.12.6 1.68 1.08-.36-.6-1.68z"/><path fill="#282928" d="M54.84 51.12c-.6 0-1.2-.12-1.8-.48-.96-.48-1.68-1.44-2.04-2.52l-2.64-9.24c-.12-.36.12-.6.36-.72l5.04-1.8c.24-.12.6 0 .72.36l3.96 8.76c.48.96.48 2.16 0 3.24a4 4 0 0 1-2.28 2.16c-.36.12-.84.24-1.32.24m-2.76-3.24c.24.72.72 1.32 1.44 1.68s1.44.36 2.28.12c.72-.24 1.32-.84 1.56-1.56.36-.72.24-1.56 0-2.28l-3.72-8.28L49.68 39zm-4.681-11.76c-.96 0-1.92-.12-2.76-.36-2.76-.72-5.04-2.52-6.48-5.04s-1.8-5.4-1.08-8.16 2.52-5.04 5.04-6.48 5.4-1.8 8.16-1.08 5.04 2.52 6.48 5.04 1.8 5.4 1.08 8.16-2.52 5.04-5.04 6.48q-2.7 1.44-5.4 1.44m-.12-20.28c-1.68 0-3.24.48-4.8 1.32-2.16 1.32-3.84 3.36-4.44 5.76s-.36 5.04.96 7.2 3.36 3.84 5.76 4.44c2.4.72 5.04.36 7.2-.96s3.84-3.36 4.44-5.76.36-5.04-.96-7.2-3.36-3.84-5.76-4.44c-.72-.24-1.56-.36-2.4-.36"/><path fill="#282928" d="M47.28 33.12c-.48 0-.96 0-1.44-.12-4.2-.84-6.84-4.8-6.12-9 .84-4.2 4.8-6.96 9-6.12 2.04.36 3.72 1.56 4.92 3.24s1.56 3.72 1.2 5.76-1.56 3.72-3.24 4.92c-1.2.84-2.76 1.32-4.32 1.32m-6.36-9c-.72 3.48 1.68 6.96 5.16 7.56 1.68.36 3.48 0 4.8-.96 1.44-.96 2.4-2.4 2.76-4.2.36-1.68 0-3.48-.96-4.92s-2.4-2.4-4.2-2.76c-3.48-.48-6.84 1.8-7.56 5.28"/></svg>