<svg xmlns="http://www.w3.org/2000/svg" width="60" height="60" fill="none"><path fill="#282928" d="M18.659 30.912c.779-.78.76-1.773.483-2.442s-.966-1.385-2.069-1.385c-.953 0-1.729-.776-1.729-1.73V22.59c0-.954.776-1.73 1.73-1.73 1.101 0 1.79-.715 2.068-1.384.277-.67.296-1.663-.484-2.442a1.73 1.73 0 0 1 0-2.446l1.957-1.956c.327-.327.76-.507 1.223-.507.462 0 .896.18 1.223.507.779.78 1.772.761 2.442.484.67-.278 1.384-.967 1.384-2.07 0-.953.776-1.728 1.73-1.728h2.766c.954 0 1.73.775 1.73 1.729 0 1.102.715 1.791 1.384 2.069.67.277 1.663.295 2.442-.484a1.73 1.73 0 0 1 2.446 0l1.957 1.957a1.73 1.73 0 0 1 0 2.445c-.78.78-.761 1.772-.484 2.442s.966 1.385 2.069 1.385c.953 0 1.729.775 1.729 1.729v2.767c0 .953-.776 1.729-1.73 1.729-1.102 0-1.79.715-2.068 1.385-.277.67-.296 1.662.484 2.442.326.326.506.76.506 1.223 0 .461-.18.896-.506 1.222l-1.957 1.957a1.73 1.73 0 0 1-2.446 0 2.19 2.19 0 0 0-1.998-.618.82.82 0 0 1-.317-1.61 3.81 3.81 0 0 1 3.475 1.068c.035.034.091.034.126 0l1.956-1.957a.09.09 0 0 0 .026-.062.09.09 0 0 0-.025-.063 3.82 3.82 0 0 1-.84-4.23 3.82 3.82 0 0 1 3.585-2.398c.048 0 .088-.04.088-.088v-2.767a.09.09 0 0 0-.088-.089 3.82 3.82 0 0 1-3.585-2.397 3.82 3.82 0 0 1 .84-4.23.09.09 0 0 0 0-.126l-1.957-1.956a.09.09 0 0 0-.126 0 3.82 3.82 0 0 1-4.23.84 3.82 3.82 0 0 1-2.397-3.585.09.09 0 0 0-.088-.089h-2.767a.09.09 0 0 0-.089.089 3.82 3.82 0 0 1-2.397 3.584 3.82 3.82 0 0 1-4.23-.84.09.09 0 0 0-.126 0l-1.956 1.957a.09.09 0 0 0 0 .126 3.82 3.82 0 0 1 .839 4.23 3.82 3.82 0 0 1-3.585 2.397.09.09 0 0 0-.088.089v2.767c0 .049.04.088.088.088 1.599 0 2.972.919 3.585 2.398a3.82 3.82 0 0 1-.84 4.23.09.09 0 0 0-.025.063q0 .036.026.062l1.956 1.957c.035.034.091.034.126 0 .942-.942 2.223-1.329 3.515-1.062a.82.82 0 0 1-.333 1.607 2.19 2.19 0 0 0-2.022.615c-.327.326-.761.506-1.223.506s-.896-.18-1.223-.506l-1.956-1.957a1.72 1.72 0 0 1-.507-1.222c0-.462.18-.897.506-1.223m4.058 15.157a.82.82 0 0 0-.82-.82H1.875a.82.82 0 0 0 0 1.64h20.022a.82.82 0 0 0 .82-.82M30 18.145a5.834 5.834 0 0 1 5.828 5.827 5.8 5.8 0 0 1-1.63 4.043.82.82 0 1 0 1.18 1.138 7.43 7.43 0 0 0 2.09-5.18c0-4.119-3.35-7.469-7.468-7.469s-7.468 3.35-7.468 7.468c0 1.965.757 3.82 2.13 5.223a.82.82 0 0 0 1.16.013.82.82 0 0 0 .013-1.16 5.8 5.8 0 0 1-1.663-4.076A5.834 5.834 0 0 1 30 18.145m28.705 27.344-3.47-3.47a.82.82 0 0 0-1.16 1.161l2.07 2.069H49.38a.82.82 0 0 0 0 1.64h6.765l-2.07 2.07a.82.82 0 1 0 1.16 1.16l3.47-3.47a.82.82 0 0 0 0-1.16m-6.447-26.98 1.897 1.096a.82.82 0 0 0 .82-1.421l-3.41-1.969C48.38 7.385 39.915 1.055 30 1.055c-10.417 0-19.231 6.986-22.007 16.519l-1.095-1.897a.82.82 0 0 0-1.421.82l1.967 3.408a23 23 0 0 0-.362 4.067c0 8.599 4.747 16.4 12.387 20.36a.817.817 0 0 0 1.106-.35.82.82 0 0 0-.351-1.107A21.22 21.22 0 0 1 8.723 23.972c0-1.258.11-2.491.321-3.69l3.346-1.932a.82.82 0 0 0-.82-1.42l-2.021 1.166C12.105 9.213 20.305 2.696 30 2.696c9.176 0 17.013 5.838 19.993 13.995l-1.931 3.345a.82.82 0 1 0 1.42.82l1.167-2.02c.41 1.646.628 3.366.628 5.136a21.08 21.08 0 0 1-4.37 12.92.82.82 0 1 0 1.302.997c3.08-4.025 4.709-8.837 4.709-13.917 0-1.882-.23-3.711-.66-5.463m-4.44 22.598.057 7.288a10.73 10.73 0 0 1-3.356 7.752 10.22 10.22 0 0 1-7.063 2.798q-.307 0-.617-.017c-5.274-.302-6.902-1.666-9.6-3.924-.924-.775-1.973-1.653-3.366-2.664a3.75 3.75 0 0 1-.944-5.092c1.014-1.55 2.48-1.655 3.845-1.368l-.002-17.737c0-.865.34-1.68.955-2.293a3.22 3.22 0 0 1 2.291-.952h.002c.865 0 1.68.34 2.293.955.615.615.953 1.43.952 2.294l-.01 10.162a3.14 3.14 0 0 1 1.616-.45h.002a3.22 3.22 0 0 1 2.423 1.092q.064-.072.133-.14a3.22 3.22 0 0 1 2.292-.952h.003a3.23 3.23 0 0 1 2.422 1.092 3.222 3.222 0 0 1 2.424-1.092h.003c.864 0 1.679.34 2.293.954.614.615.952 1.43.951 2.294M46.233 48.4l-.057-7.287c0-.434-.167-.836-.472-1.14a1.6 1.6 0 0 0-1.133-.474h-.001c-.426 0-.828.168-1.133.472-.303.303-.47.704-.472 1.128v.007a.82.82 0 0 1-1.64-.001V41.1c0-.423-.167-.823-.47-1.126a1.593 1.593 0 0 0-2.267-.002 1.6 1.6 0 0 0-.472 1.134v.001a.82.82 0 0 1-.82.82h-.001a.82.82 0 0 1-.82-.821v-.008c0-.422-.168-.822-.47-1.125a1.6 1.6 0 0 0-1.134-.473h-.001c-.407 0-.803.171-1.113.483-.319.32-.503.75-.507 1.18v.025a.82.82 0 0 1-.818.82h-.002a.82.82 0 0 1-.82-.817v-.035l.014-13.01c0-.426-.168-.828-.472-1.133a1.595 1.595 0 0 0-2.267-.002 1.6 1.6 0 0 0-.473 1.133l.002 18.814a.82.82 0 0 1-1.08.778c-.727-.242-1.266-.34-1.678-.34-.774 0-1.093.35-1.356.75a2.11 2.11 0 0 0 .536 2.867c1.44 1.044 2.51 1.942 3.456 2.733 2.602 2.18 3.908 3.274 8.64 3.544 2.42.14 4.714-.69 6.461-2.336a9.07 9.07 0 0 0 2.84-6.553"/></svg>