<svg xmlns="http://www.w3.org/2000/svg" width="60" height="60" fill="none"><g fill="#282928" clip-path="url(#a)"><path d="M53.438 32.372V13.988c3.175-.458 5.624-3.189 5.624-6.488A6.57 6.57 0 0 0 52.5.937 6.57 6.57 0 0 0 45.937 7.5h-45V45H29.11c.488 7.834 6.999 14.063 14.953 14.063 8.27 0 15-6.73 15-15 0-4.725-2.2-8.94-5.626-11.691ZM52.5 2.812A4.693 4.693 0 0 1 57.188 7.5a4.693 4.693 0 0 1-4.688 4.688A4.693 4.693 0 0 1 47.812 7.5 4.693 4.693 0 0 1 52.5 2.812M2.812 9.375h43.402c.224.748.58 1.437 1.038 2.048l-5.734 5.734a2.8 2.8 0 0 0-1.206-.282c-.433 0-.838.106-1.204.282l-1.89-1.889c.176-.367.282-.772.282-1.206a2.816 2.816 0 0 0-2.813-2.812 2.816 2.816 0 0 0-2.812 2.813c0 .433.106.838.282 1.204l-4.701 4.702a2.8 2.8 0 0 0-1.206-.282 2.816 2.816 0 0 0-2.813 2.813 2.816 2.816 0 0 0 2.813 2.813 2.816 2.816 0 0 0 2.813-2.813 2.76 2.76 0 0 0-.283-1.205l4.702-4.701c.367.175.772.281 1.206.281s.838-.106 1.204-.282l1.89 1.889a2.8 2.8 0 0 0-.282 1.206 2.816 2.816 0 0 0 2.813 2.812 2.816 2.816 0 0 0 2.812-2.813c0-.433-.106-.838-.282-1.204l5.734-5.734a6.5 6.5 0 0 0 2.986 1.24v17.104a14.9 14.9 0 0 0-7.5-2.03c-4.482 0-8.5 1.985-11.25 5.112V30h-5.626v11.25h2.15c-.117.612-.187 1.24-.227 1.875H2.813zm37.5 9.375a.938.938 0 0 1 0 1.875.938.938 0 0 1 0-1.875m-6.562-4.688a.938.938 0 0 1 1.875 0 .938.938 0 0 1-1.875 0M27.187 22.5a.938.938 0 0 1-1.875 0 .938.938 0 0 1 1.875 0m16.875 29.063c-4.135 0-7.5-3.365-7.5-7.5 0-4.136 3.365-7.5 7.5-7.5 4.136 0 7.5 3.364 7.5 7.5 0 4.135-3.364 7.5-7.5 7.5M30.938 36.816c-.45.81-.82 1.666-1.115 2.558h-.76v-7.5h1.875zm12.187-5.832v3.75c-4.73.473-8.438 4.475-8.438 9.328 0 1.371.304 2.671.836 3.847l-3.252 1.878a13 13 0 0 1-1.334-5.725c0-6.921 5.388-12.594 12.188-13.078m.938 26.203c-4.514 0-8.502-2.29-10.864-5.77l3.265-1.886c1.704 2.36 4.471 3.906 7.599 3.906 3.127 0 5.894-1.546 7.598-3.906l3.265 1.885c-2.362 3.48-6.35 5.77-10.864 5.77Zm11.791-7.4-3.252-1.878a9.3 9.3 0 0 0 .836-3.847c0-4.853-3.707-8.856-8.438-9.328v-3.75c6.8.484 12.188 6.157 12.188 13.078a13 13 0 0 1-1.334 5.725"/><path d="M44.063 38.438a5.63 5.63 0 0 0-5.626 5.624 5.63 5.63 0 0 0 5.626 5.626 5.63 5.63 0 0 0 5.624-5.626 5.63 5.63 0 0 0-5.624-5.624m0 9.374a3.754 3.754 0 0 1-3.75-3.75 3.754 3.754 0 0 1 3.75-3.75 3.754 3.754 0 0 1 3.75 3.75 3.754 3.754 0 0 1-3.75 3.75M4.688 11.25h1.875v1.875H4.688zm3.75 0h13.124v1.875H8.438zM4.688 15h1.875v1.875H4.688zm3.75 0h13.124v1.875H8.438zm-3.75 3.75h1.875v1.875H4.688zm3.75 0h13.124v1.875H8.438zm-3.75 3.75h1.875v1.875H4.688zm3.75 0h13.124v1.875H8.438zm-3.75 18.75h5.625v-9.375H4.686v9.375Zm1.875-7.5h1.875v5.625H6.562zm5.625 7.5h5.624v-7.5h-5.625zm1.874-5.625h1.876v3.75h-1.876zm5.626 5.625h5.625v-15h-5.625zm1.875-13.125h1.875v11.25h-1.875z"/></g><defs><clipPath id="a"><path fill="#fff" d="M0 0h60v60H0z"/></clipPath></defs></svg>