<svg xmlns="http://www.w3.org/2000/svg" width="60" height="60" fill="none"><path fill="#282928" d="M38.22 31H21.78a5.84 5.84 0 0 1-4.085-1.664A5.63 5.63 0 0 1 16 25.326v-10.65a5.63 5.63 0 0 1 1.695-4.012A5.84 5.84 0 0 1 21.78 9h16.44a5.84 5.84 0 0 1 4.085 1.664A5.63 5.63 0 0 1 44 14.675v10.65a5.63 5.63 0 0 1-1.695 4.011A5.84 5.84 0 0 1 38.22 31M21.78 10.739a4.05 4.05 0 0 0-2.833 1.154 3.9 3.9 0 0 0-1.173 2.782v10.65a3.9 3.9 0 0 0 1.174 2.78 4.05 4.05 0 0 0 2.832 1.154h16.44a4.05 4.05 0 0 0 2.832-1.154 3.9 3.9 0 0 0 1.174-2.78v-10.65a3.9 3.9 0 0 0-1.174-2.78 4.05 4.05 0 0 0-2.832-1.153z"/><path fill="#282928" d="M43.924 25a.92.92 0 0 1-.918-.917.916.916 0 0 1 .918-.917c.553.008.103-.093.616-.299A4.17 4.17 0 0 0 47.158 19a4.16 4.16 0 0 0-2.618-3.867c-.513-.205-.063-.307-.616-.299a.925.925 0 0 1-.924-.917.91.91 0 0 1 .911-.916c.796-.011.585.136 1.323.432a6 6 0 0 1 3.3 3.248 5.995 5.995 0 0 1-3.288 7.88c-.737.299-.526.448-1.322.439m-27.848 0c-.794.01-.582-.139-1.32-.436A6 6 0 0 1 11 19a6 6 0 0 1 3.757-5.564c.737-.297.525-.445 1.32-.435a.922.922 0 0 1 .855 1.266.91.91 0 0 1-.843.567c-.552-.01-.1.092-.614.297a4.17 4.17 0 0 0-2.301 5.472 4.17 4.17 0 0 0 2.29 2.261c.512.207.06.31.612.302a.917.917 0 0 1 0 1.834m19.93-3A4 4 0 1 1 40 17.994 4.01 4.01 0 0 1 36.006 22m0-6.254a2.253 2.253 0 1 0-.012 4.506 2.253 2.253 0 0 0 .012-4.506m-12 6.254A4 4 0 1 1 28 17.994 4.01 4.01 0 0 1 24.006 22m0-6.254a2.253 2.253 0 1 0-.012 4.506 2.253 2.253 0 0 0 .012-4.506M36.092 26H23.908c-.24 0-.472-.053-.642-.146-.17-.094-.266-.221-.266-.354s.096-.26.266-.354.402-.146.642-.146h12.184c.24 0 .472.053.642.146.17.094.266.221.266.354s-.096.26-.266.354-.401.146-.642.146M29.995 6a3 3 0 1 1 .01-6 3 3 0 0 1-.01 6m0-4.468a1.467 1.467 0 1 0 1.472 1.473 1.474 1.474 0 0 0-1.472-1.473"/><path fill="#282928" d="M30 10a1.07 1.07 0 0 1-.707-.26.84.84 0 0 1-.293-.63V5.89c0-.236.105-.462.293-.629a1.07 1.07 0 0 1 .707-.26c.265 0 .52.094.707.26A.84.84 0 0 1 31 5.89v3.22a.84.84 0 0 1-.293.629 1.07 1.07 0 0 1-.707.26Zm0 50c-3.712-.005-7.27-1.438-9.894-3.984s-4.101-5.999-4.106-9.6V32.86c0-.228.093-.447.26-.609a.9.9 0 0 1 .627-.252h26.226a.9.9 0 0 1 .627.252.85.85 0 0 1 .26.609v13.555c-.005 3.601-1.481 7.053-4.106 9.6C37.27 58.563 33.712 59.996 30 60M17.774 33.722v12.694c0 3.146 1.289 6.163 3.581 8.388C23.648 57.03 26.758 58.28 30 58.28s6.353-1.25 8.645-3.475c2.293-2.225 3.581-5.242 3.581-8.388V33.722zM49 37a4 4 0 1 1 0-8.001A4 4 0 0 1 49 37m0-6.205a2.202 2.202 0 1 0 2.201 2.208A2.204 2.204 0 0 0 49 30.798zM52.095 51h-6.19a.92.92 0 0 1-.64-.257.87.87 0 0 1-.265-.62v-2.3a3.83 3.83 0 0 1 1.193-2.707A4.07 4.07 0 0 1 49 44c1.05 0 2.059.4 2.807 1.116A3.83 3.83 0 0 1 53 47.822v2.301a.86.86 0 0 1-.265.62.92.92 0 0 1-.64.257m-5.285-1.756h4.38v-1.422a2.1 2.1 0 0 0-.657-1.474c-.41-.39-.96-.608-1.533-.608s-1.124.218-1.533.608c-.41.389-.646.918-.657 1.474z"/><path fill="#282928" d="M49 45c-.265 0-.52-.092-.707-.256a.82.82 0 0 1-.293-.618v-7.252a.82.82 0 0 1 .293-.618c.187-.164.442-.256.707-.256s.52.092.707.256a.82.82 0 0 1 .293.618v7.252a.82.82 0 0 1-.293.618A1.08 1.08 0 0 1 49 45m-6.122-11a.83.83 0 0 1-.612-.254.95.95 0 0 1-.266-.642.95.95 0 0 1 .238-.654.83.83 0 0 1 .6-.284l2.262-.165a.8.8 0 0 1 .332.053q.16.062.287.185a.9.9 0 0 1 .2.288.97.97 0 0 1-.142 1.008.9.9 0 0 1-.27.213.8.8 0 0 1-.325.087L42.92 34zM11 37a4 4 0 1 1 0-8.001A4 4 0 0 1 11 37m0-6.205a2.201 2.201 0 1 0 2.201 2.208A2.204 2.204 0 0 0 11 30.798zM14.095 51h-6.19a.92.92 0 0 1-.64-.257.87.87 0 0 1-.265-.62v-2.3a3.83 3.83 0 0 1 1.193-2.707A4.07 4.07 0 0 1 11 44c1.05 0 2.059.4 2.807 1.116A3.83 3.83 0 0 1 15 47.822v2.301a.86.86 0 0 1-.265.62.92.92 0 0 1-.64.257M8.81 49.244h4.38v-1.422a2.1 2.1 0 0 0-.657-1.474c-.41-.39-.96-.608-1.533-.608s-1.124.218-1.533.608c-.41.389-.646.918-.657 1.474z"/><path fill="#282928" d="M11 45c-.265 0-.52-.092-.707-.256a.82.82 0 0 1-.293-.618v-7.252a.82.82 0 0 1 .293-.618c.187-.164.442-.256.707-.256s.52.092.707.256a.82.82 0 0 1 .293.618v7.252a.82.82 0 0 1-.293.618A1.08 1.08 0 0 1 11 45m6.122-11.002h-.042l-2.262-.165a.8.8 0 0 1-.325-.086.9.9 0 0 1-.27-.213.97.97 0 0 1-.223-.66.97.97 0 0 1 .287-.628.85.85 0 0 1 .612-.246l2.262.165a.83.83 0 0 1 .601.284.95.95 0 0 1 .238.655.95.95 0 0 1-.266.642.83.83 0 0 1-.612.254zM21 44.49v-1.015L27 41v1.082l-4.758 1.909L27 45.918V47z"/><path fill="#282928" d="m28 48-8-3.166v-1.708L28 40v2.159l-4.82 1.83L28 45.835zm-7.05-3.744 6.1 2.413v-.243l-6.1-2.339zm0-.547v.176l6.1-2.317v-.245zM28 49l2.988-10H32l-2.98 10z"/><path fill="#282928" d="M29.515 49H28l2.491-10H32zm-.584-.795h.049l2.088-8.413h-.043zM39 44.492 33 47v-1.082l4.752-1.928L33 42.08V41l6 2.478z"/><path fill="#282928" d="M32 48v-2.162l4.814-1.847L32 42.16V40l8 3.126v1.71zm.95-1.575v.243l6.1-2.413v-.176zm0-4.854 6.1 2.32v-.182l-6.1-2.383z"/></svg>