<svg xmlns="http://www.w3.org/2000/svg" width="60" height="60" fill="none"><g fill="#282928" clip-path="url(#a)"><path d="M57.739 41.498a4.54 4.54 0 0 0-2.821-2.08 4.54 4.54 0 0 0-3.46.525q-.451.272-.821.631l-3.468-2.087V20.973l3.468-2.09c.246.237.52.45.821.63a4.54 4.54 0 0 0 3.46.526 4.54 4.54 0 0 0 2.82-2.079 4.54 4.54 0 0 0 .526-3.461 4.54 4.54 0 0 0-2.079-2.82 4.54 4.54 0 0 0-3.461-.527 4.54 4.54 0 0 0-2.82 2.08 4.54 4.54 0 0 0-.477 3.643l-3.43 2.067-14.826-8.933V4l2.026 2.026a1.17 1.17 0 0 0 1.657 0c.458-.458.458-1.2 0-1.658L30.829.341c-.429-.429-1.239-.48-1.658 0l-4.03 4.026a1.172 1.172 0 1 0 1.657 1.658l2.03-2.027v6.012L14 18.942l-3.434-2.07a4.56 4.56 0 0 0-.472-3.638 4.54 4.54 0 0 0-2.819-2.08 4.55 4.55 0 0 0-3.465.524 4.58 4.58 0 0 0-1.554 6.281 4.55 4.55 0 0 0 2.82 2.08 4.55 4.55 0 0 0 3.464-.525q.453-.276.818-.632l3.47 2.09v3.492a1.172 1.172 0 1 0 2.345 0v-2.08l13.653 8.224V46.71l-13.654-8.223v-3.494a1.172 1.172 0 1 0-2.344 0v3.493l-3.47 2.089a4.6 4.6 0 0 0-.819-.632 4.54 4.54 0 0 0-3.464-.525 4.55 4.55 0 0 0-2.82 2.08 4.58 4.58 0 0 0 5.02 6.805 4.54 4.54 0 0 0 2.818-2.08 4.56 4.56 0 0 0 .473-3.639L14 40.517l14.826 8.93v6.562l-2.03-2.03a1.172 1.172 0 0 0-1.657 1.658l4.03 4.03c.487.487 1.16.398 1.658 0l4.027-4.03a1.172 1.172 0 1 0-1.658-1.657l-2.026 2.027v-6.56l14.826-8.93 3.43 2.065a4.54 4.54 0 0 0 .476 3.64 4.54 4.54 0 0 0 2.82 2.082 4.54 4.54 0 0 0 3.46-.525 4.54 4.54 0 0 0 2.081-2.821 4.54 4.54 0 0 0-.525-3.46ZM8.087 45.014c-.308.51-.796.87-1.374 1.014a2.233 2.233 0 1 1-.535-4.4c.402 0 .797.109 1.15.322h.001a2.233 2.233 0 0 1 .758 3.064M51.91 14.443a2.24 2.24 0 0 1 1.912-1.08c.402 0 .797.109 1.15.323.512.308.872.796 1.015 1.375a2.2 2.2 0 0 1-.258 1.688 2.21 2.21 0 0 1-1.374 1.014 2.2 2.2 0 0 1-1.688-.258 2.22 2.22 0 0 1-1.015-1.374 2.2 2.2 0 0 1 .258-1.688M30 21.483c.647 0 1.172-.525 1.172-1.172v-7.565l12.554 7.564L30 28.578 16.274 20.31l12.554-7.563v7.564c0 .647.524 1.172 1.172 1.172M7.33 17.506c-.511.309-1.111.4-1.69.257a2.22 2.22 0 0 1-1.376-1.015 2.22 2.22 0 0 1-.254-1.688 2.22 2.22 0 0 1 1.013-1.375 2.22 2.22 0 0 1 1.69-.257 2.233 2.233 0 0 1 .617 4.078m37.495 20.98L31.171 46.71V30.608l13.653-8.223v16.102Zm11.164 5.91a2.22 2.22 0 0 1-1.017 1.376c-.508.308-1.107.4-1.685.256a2.22 2.22 0 0 1-1.376-1.017 2.2 2.2 0 0 1-.256-1.685 2.22 2.22 0 0 1 1.016-1.376 2.2 2.2 0 0 1 1.686-.257 2.22 2.22 0 0 1 1.376 1.017 2.2 2.2 0 0 1 .256 1.685Z"/><path d="M14.002 30.904a1.174 1.174 0 0 0 0-2.345c-.647 0-1.172.524-1.172 1.172v.003c0 .647.525 1.17 1.172 1.17"/></g><defs><clipPath id="a"><path fill="#fff" d="M0 0h60v60H0z"/></clipPath></defs></svg>