<svg xmlns="http://www.w3.org/2000/svg" width="60" height="60" fill="none"><g fill="#282928" fill-rule="evenodd" clip-path="url(#a)" clip-rule="evenodd"><path d="M9.332 39.126q-.423 0-.856-.028a.687.687 0 0 1 .09-1.371c6.941.456 12.54-5.601 12.595-5.662a.686.686 0 1 1 1.017.924c-.236.26-5.67 6.137-12.846 6.137M21.67 52.4a.68.68 0 0 1-.509-.224c-.076-.083-5.68-6.118-12.594-5.663a.687.687 0 0 1-.09-1.371c7.595-.499 13.455 5.839 13.7 6.108a.687.687 0 0 1-.507 1.15"/><path d="M22.358 52.22h2.602V32.024h-2.602zm3.289 1.374h-3.975a.687.687 0 0 1-.688-.687v-21.57c0-.38.308-.687.687-.687h3.976c.379 0 .687.308.687.687v21.57c0 .38-.308.687-.687.687M1.714 37.755a.346.346 0 0 0-.342.341v8.048c0 .185.156.342.342.342h5.78a.346.346 0 0 0 .341-.342v-8.048a.346.346 0 0 0-.34-.341zm5.78 10.105h-5.78c-.947 0-1.716-.77-1.716-1.716v-8.048c0-.946.77-1.715 1.716-1.715h5.78c.946 0 1.715.77 1.715 1.715v8.048c0 .946-.77 1.716-1.715 1.716"/><path d="M4.604 59.581a2.55 2.55 0 0 1-2.547-2.547v-9.86a.687.687 0 0 1 1.374 0v9.86a1.174 1.174 0 0 0 2.346 0v-9.86a.687.687 0 0 1 1.374 0v9.86a2.55 2.55 0 0 1-2.547 2.547m8.059-52.406c-5.682 0-10.305 4.623-10.305 10.305 0 5.683 4.623 10.306 10.305 10.306 5.683 0 10.306-4.623 10.306-10.306S18.346 7.175 12.663 7.175m0 21.985C6.224 29.16.984 23.92.984 17.48S6.224 5.8 12.664 5.8s11.68 5.24 11.68 11.68-5.24 11.68-11.68 11.68Z"/><path d="M9.772 13.246v8.47l7.334-4.236zm-.687 10.346a.684.684 0 0 1-.687-.687V12.056a.688.688 0 0 1 1.03-.595l9.396 5.425a.687.687 0 0 1 0 1.19L9.429 23.5a.7.7 0 0 1-.344.092m26.641-21.8c-4.79 0-8.688 3.897-8.688 8.688 0 4.79 3.898 8.689 8.688 8.689s8.688-3.898 8.688-8.689c0-4.79-3.897-8.688-8.688-8.688m0 18.75c-5.549 0-10.062-4.513-10.062-10.062S30.177.418 35.726.418 45.788 4.932 45.788 10.48c0 5.549-4.514 10.063-10.062 10.062"/><path d="M35.725 7.663a2.82 2.82 0 0 0-2.816 2.816 2.82 2.82 0 0 0 2.816 2.817 2.82 2.82 0 0 0 2.817-2.816 2.82 2.82 0 0 0-2.817-2.817m0 7.007c-2.31 0-4.19-1.88-4.19-4.19s1.88-4.19 4.19-4.19a4.195 4.195 0 0 1 4.191 4.19c0 2.31-1.88 4.19-4.19 4.19Zm13.877 21.771h1.733v-1.799c0-.317.216-.592.523-.667a5.8 5.8 0 0 0 1.649-.684.686.686 0 0 1 .842.102l1.273 1.272 1.226-1.225-1.273-1.272a.69.69 0 0 1-.101-.843 5.8 5.8 0 0 0 .683-1.648.69.69 0 0 1 .668-.524h1.799V27.42h-1.799a.69.69 0 0 1-.668-.524 5.8 5.8 0 0 0-.683-1.648.69.69 0 0 1 .101-.843l1.273-1.272-1.225-1.225-1.274 1.272a.685.685 0 0 1-.842.102 5.8 5.8 0 0 0-1.648-.684.686.686 0 0 1-.524-.667v-1.8h-1.733v1.8a.686.686 0 0 1-.525.667 5.8 5.8 0 0 0-1.647.684.69.69 0 0 1-.843-.102l-1.273-1.272-1.225 1.225 1.273 1.272a.69.69 0 0 1 .101.843 5.8 5.8 0 0 0-.683 1.648.69.69 0 0 1-.668.524h-1.799v1.733h1.8c.316 0 .592.216.667.524.142.58.37 1.135.683 1.648a.69.69 0 0 1-.101.843l-1.273 1.272 1.225 1.225 1.273-1.272a.69.69 0 0 1 .843-.101 5.8 5.8 0 0 0 1.647.683c.31.075.525.35.525.668zm2.42 1.374h-3.107a.687.687 0 0 1-.687-.687v-1.967a7 7 0 0 1-1.037-.43l-1.39 1.392a.69.69 0 0 1-.972 0l-2.197-2.197a.686.686 0 0 1 0-.971l1.392-1.392a7 7 0 0 1-.43-1.036h-1.968a.687.687 0 0 1-.686-.687v-3.107c0-.38.307-.687.686-.687h1.968q.174-.535.43-1.036l-1.392-1.392a.687.687 0 0 1 0-.97l2.197-2.198a.687.687 0 0 1 .972 0l1.39 1.392a7.4 7.4 0 0 1 1.037-.43v-1.967c0-.38.308-.687.687-.687h3.107c.38 0 .687.307.687.687v1.967q.533.175 1.035.43l1.392-1.392a.69.69 0 0 1 .972 0l2.197 2.197a.69.69 0 0 1 0 .972l-1.392 1.391q.256.502.43 1.036h1.968c.379 0 .687.308.687.687v3.107c0 .38-.308.687-.688.687h-1.967a7 7 0 0 1-.43 1.036l1.39 1.392a.687.687 0 0 1 0 .971l-2.195 2.197a.687.687 0 0 1-.972 0l-1.392-1.392a7 7 0 0 1-1.035.43v1.967c0 .38-.308.687-.687.687"/><path d="M50.468 25.985a2.303 2.303 0 0 0-2.3 2.3c0 1.269 1.032 2.3 2.3 2.3a2.3 2.3 0 0 0 2.301-2.3c0-1.268-1.032-2.3-2.3-2.3Zm0 5.974a3.68 3.68 0 0 1-3.673-3.674 3.68 3.68 0 0 1 3.673-3.674 3.68 3.68 0 0 1 3.675 3.674 3.68 3.68 0 0 1-3.675 3.674m-5.513 9.909c-4.505 0-8.169 3.665-8.169 8.17 0 4.504 3.664 8.17 8.169 8.17s8.17-3.666 8.17-8.17c0-4.505-3.665-8.17-8.17-8.17m0 17.713c-5.262 0-9.543-4.282-9.543-9.544s4.28-9.543 9.543-9.543 9.544 4.281 9.544 9.543-4.282 9.544-9.544 9.544"/><path d="M42.944 46.7c-.73 0-1.324.594-1.324 1.325 0 1.579 1.622 3.337 3.336 5.063 1.714-1.726 3.337-3.484 3.337-5.063 0-.73-.595-1.325-1.325-1.325-.576 0-.915.163-1.398 1.129a.687.687 0 0 1-1.228 0c-.483-.966-.822-1.129-1.398-1.129m2.012 8.048a.69.69 0 0 1-.485-.202c-2.078-2.076-4.225-4.224-4.225-6.521a2.7 2.7 0 0 1 2.698-2.699c.954 0 1.566.378 2.012.91.446-.532 1.058-.91 2.012-.91 1.489 0 2.7 1.21 2.7 2.699 0 2.297-2.149 4.445-4.227 6.521a.68.68 0 0 1-.485.202m-7.363-29.155H29.96a.687.687 0 1 1 0-1.374h7.633a.687.687 0 0 1 0 1.374m0 4.314H29.96a.687.687 0 1 1 0-1.374h7.633a.687.687 0 0 1 0 1.374m0 4.314H29.96a.687.687 0 1 1 0-1.373h7.633a.687.687 0 0 1 0 1.373m0 4.313H29.96a.687.687 0 1 1 0-1.374h7.633a.687.687 0 0 1 0 1.374"/></g><defs><clipPath id="a"><path fill="#fff" d="M0 0h60v60H0z"/></clipPath></defs></svg>