<svg xmlns="http://www.w3.org/2000/svg" width="60" height="60" fill="none"><g fill="#282928" clip-path="url(#a)"><path d="M58.125 25.313H55.83a26.26 26.26 0 0 0-4.252-10.261l1.624-1.625a1.877 1.877 0 0 0 0-2.652l-3.977-3.977a1.875 1.875 0 0 0-2.652 0l-1.625 1.625a26.3 26.3 0 0 0-10.26-4.253V1.875A1.877 1.877 0 0 0 32.812 0h-5.624a1.877 1.877 0 0 0-1.875 1.875V4.17a26.3 26.3 0 0 0-10.261 4.253l-1.625-1.625a1.92 1.92 0 0 0-2.651 0l-3.978 3.978a1.877 1.877 0 0 0 0 2.651l1.624 1.625a26.25 26.25 0 0 0-4.252 10.26H1.875A1.877 1.877 0 0 0 0 27.188v5.625a1.877 1.877 0 0 0 1.875 1.876H4.17a26.26 26.26 0 0 0 4.252 10.26l-1.624 1.625a1.877 1.877 0 0 0 0 2.651l3.977 3.978a1.875 1.875 0 0 0 2.652 0l1.625-1.625a26.3 26.3 0 0 0 10.26 4.253v2.295A1.876 1.876 0 0 0 27.188 60h5.625a1.876 1.876 0 0 0 1.876-1.875V55.83a26.3 26.3 0 0 0 10.26-4.253l1.625 1.625a1.875 1.875 0 0 0 2.651 0l3.978-3.977a1.877 1.877 0 0 0 0-2.652l-1.624-1.625a26.26 26.26 0 0 0 4.252-10.26h2.295A1.876 1.876 0 0 0 60 32.812v-5.624a1.876 1.876 0 0 0-1.875-1.875m0 7.5h-3.09a.94.94 0 0 0-.928.8 24.35 24.35 0 0 1-4.508 10.878.94.94 0 0 0 .09 1.22l2.187 2.188-3.977 3.977-2.187-2.187a.94.94 0 0 0-1.221-.09 24.36 24.36 0 0 1-10.879 4.508.94.94 0 0 0-.8.927v3.091h-5.624v-3.09a.94.94 0 0 0-.8-.928 24.36 24.36 0 0 1-10.879-4.508.94.94 0 0 0-1.22.09l-2.187 2.187-3.978-3.977 2.187-2.187a.94.94 0 0 0 .09-1.221 24.35 24.35 0 0 1-4.508-10.879.94.94 0 0 0-.927-.8H1.875v-5.624h3.09a.94.94 0 0 0 .928-.8 24.35 24.35 0 0 1 4.508-10.879.94.94 0 0 0-.09-1.22L8.124 12.1l3.977-3.977 2.187 2.187a.94.94 0 0 0 1.221.09 24.36 24.36 0 0 1 10.879-4.508.94.94 0 0 0 .8-.927V1.875h5.625v3.09a.94.94 0 0 0 .8.928c3.94.59 7.675 2.138 10.878 4.508a.94.94 0 0 0 1.22-.09L47.9 8.124l3.977 3.977-2.187 2.187a.94.94 0 0 0-.09 1.221 24.35 24.35 0 0 1 4.508 10.879.94.94 0 0 0 .927.8h3.091z"/><path d="M30 10.313A19.688 19.688 0 1 0 49.688 30 19.71 19.71 0 0 0 30 10.313m0 37.5A17.813 17.813 0 1 1 47.813 30 17.833 17.833 0 0 1 30 47.813"/><path d="M37.5 29.063h-4.357a3.3 3.3 0 0 0-2.206-2.206v-9.044a.938.938 0 0 0-1.875 0v9.044a3.28 3.28 0 1 0 4.081 4.08H37.5a.938.938 0 0 0 0-1.875M30 31.406a1.406 1.406 0 1 1 0-2.813 1.406 1.406 0 0 1 0 2.813"/></g><defs><clipPath id="a"><path fill="#fff" d="M0 0h60v60H0z"/></clipPath></defs></svg>