<svg xmlns="http://www.w3.org/2000/svg" width="60" height="60" fill="none"><path fill="#282928" d="M53.438 48.188c-.518 0-.938-.364-.938-.812V21.404c0-.448-.422-.812-.938-.812H8.438c-.516 0-.938.364-.938.812v25.972c0 .448-.42.812-.938.812-.517 0-.937-.364-.937-.812V21.404c0-1.343 1.262-2.435 2.813-2.435h43.124c1.551 0 2.813 1.092 2.813 2.435v25.972c0 .448-.42.812-.938.812Z"/><path fill="#282928" d="M23.548 39.142a.93.93 0 0 1-.617-.233l-5.735-5.017a.94.94 0 0 1-.321-.705.94.94 0 0 1 .32-.705l5.736-5.017a.936.936 0 0 1 1.322.088c.343.39.302.98-.088 1.323l-4.927 4.311 4.927 4.313a.938.938 0 0 1-.617 1.642m3.892 2.665a.937.937 0 0 1-.889-1.234l5.12-15.362a.936.936 0 1 1 1.78.593l-5.12 15.361a.94.94 0 0 1-.89.642Zm9.014-2.664a.936.936 0 0 1-.617-1.644l4.927-4.311-4.927-4.313a.938.938 0 0 1 1.233-1.412l5.736 5.018a.94.94 0 0 1 0 1.412l-5.735 5.017a.92.92 0 0 1-.617.233m16.984 16.545H6.562A4.693 4.693 0 0 1 1.875 51c0-.517.42-.938.938-.938h20.625a.938.938 0 0 1 0 1.876H3.91a2.82 2.82 0 0 0 2.651 1.874h46.876a2.82 2.82 0 0 0 2.65-1.874H36.563a.938.938 0 0 1 0-1.876h20.626c.517 0 .937.42.937.938a4.693 4.693 0 0 1-4.688 4.688M41.25 19.313a.94.94 0 0 1-.938-.938V15.81l-1.908-.42a.94.94 0 0 1-.711-.697 8.3 8.3 0 0 0-.977-2.36.93.93 0 0 1 .013-.99l1.056-1.651-.977-.977-1.652 1.058a.93.93 0 0 1-.99.01 7.8 7.8 0 0 0-2.342-.955.94.94 0 0 1-.714-.715l-.422-1.925h-1.376l-.422 1.925a.94.94 0 0 1-.715.715 7.8 7.8 0 0 0-2.341.956.94.94 0 0 1-.99-.011l-1.652-1.058-.977.977 1.055 1.652a.94.94 0 0 1 .014.99 7.8 7.8 0 0 0-.957 2.344.94.94 0 0 1-.716.712l-2.662.581a.93.93 0 0 1-1.114-.716.933.933 0 0 1 .716-1.114l2.098-.46a9.6 9.6 0 0 1 .74-1.801l-1.158-1.811a.936.936 0 0 1 .126-1.168L22.4 6.857a.94.94 0 0 1 1.168-.128l1.81 1.16a9.6 9.6 0 0 1 1.805-.74l.459-2.1a.93.93 0 0 1 .913-.737h2.886c.44 0 .821.308.915.737l.46 2.1a9.6 9.6 0 0 1 1.803.74l1.811-1.16a.94.94 0 0 1 1.168.128L39.643 8.9a.936.936 0 0 1 .126 1.168l-1.16 1.811q.467.876.749 1.802l2.09.46a.935.935 0 0 1 .74.914v3.319c0 .517-.42.938-.938.938Z"/><path fill="#282928" d="M25.682 19.266a.94.94 0 0 1-.863-.572A5.632 5.632 0 0 1 30 10.875a5.632 5.632 0 0 1 5.185 7.813.94.94 0 0 1-1.228.5.94.94 0 0 1-.5-1.227A3.754 3.754 0 0 0 30 12.75a3.754 3.754 0 0 0-3.456 5.211.937.937 0 0 1-.862 1.304Zm14.631 27.047a.94.94 0 0 1-.938-.938c0-.517.42-1.031.938-1.031.517 0 .937.326.937.843v.188c0 .517-.42.938-.938.938Zm3.75 0a.94.94 0 0 1-.938-.938c0-.517.42-1.031.938-1.031.517 0 .937.326.937.843v.188c0 .517-.42.938-.938.938Zm3.75 0a.94.94 0 0 1-.938-.938c0-.517.42-1.031.938-1.031.517 0 .937.326.937.843v.188c0 .517-.42.938-.938.938Z"/></svg>