<svg xmlns="http://www.w3.org/2000/svg" width="60" height="60" fill="none"><g fill="#282928" clip-path="url(#a)"><path d="m7.126 26.75 1.737-.267a21.6 21.6 0 0 1-.25-3.28C8.613 11.41 18.207 1.816 30 1.816c.654 0 1.313.03 1.96.089l.158-1.75A24 24 0 0 0 30 .058C17.238.059 6.855 10.44 6.855 23.203c0 1.189.091 2.382.27 3.547Zm43.034 3.613a21.56 21.56 0 0 1-8.291 10.634 10.2 10.2 0 0 0-3.016 3.123H21.15a10.2 10.2 0 0 0-3.015-3.123c-4.526-3.024-7.703-7.59-8.948-12.858l-1.71.404c1.347 5.702 4.785 10.644 9.681 13.915a8.46 8.46 0 0 1 3.762 7.054v3.69a3.23 3.23 0 0 0 2.93 3.21v.306a3.226 3.226 0 0 0 3.222 3.223h5.86a3.226 3.226 0 0 0 3.222-3.223v-.307a3.227 3.227 0 0 0 2.93-3.209v-3.69a8.46 8.46 0 0 1 3.761-7.053c4.13-2.76 7.316-6.846 8.972-11.507zm-12.834 22.84c0 .807-.657 1.464-1.465 1.464h-6.19v1.758h4.725v.293c0 .808-.657 1.465-1.465 1.465h-5.859a1.466 1.466 0 0 1-1.465-1.465v-.293h2.307v-1.758h-3.772a1.466 1.466 0 0 1-1.465-1.465v-.293h14.649v.293Zm0-3.69v1.639H22.677v-1.64l-.002-.118h14.653zm.172-1.877H22.506a10 10 0 0 0-.491-1.758h15.974a10 10 0 0 0-.491 1.758m13.889-24.433c0 1.882-.245 3.749-.727 5.55l1.698.454a23.2 23.2 0 0 0 .787-6.004A23.15 23.15 0 0 0 33.929.39l-.296 1.732a21.32 21.32 0 0 1 17.754 21.08ZM0 22.676h4.453v1.758H0zm55.547 0H60v1.758h-4.453zM1.508 32.998l4.186-1.523.6 1.652L2.11 34.65zm52.215-19 4.186-1.523.6 1.652-4.185 1.523zM6.465 42.16l3.41-2.863 1.131 1.346-3.41 2.864zM49.004 6.451l3.411-2.863 1.13 1.346-3.41 2.864zm4.711 26.651.601-1.653 4.186 1.523-.601 1.653zM1.512 14.12l.6-1.653L6.3 13.99l-.601 1.652zm47.504 26.54 1.13-1.346 3.411 2.863-1.13 1.346zM6.457 4.945 7.587 3.6l3.411 2.863-1.13 1.347-3.411-2.864Z"/><path d="M27.04 7.91a5.32 5.32 0 0 0-4.771 2.967 3.84 3.84 0 0 0-3.508 3.934c-2.162.69-3.702 2.726-3.702 5.052 0 1.497.617 2.885 1.69 3.878a4.5 4.5 0 0 0-.95 2.767 4.53 4.53 0 0 0 1.77 3.592 4.5 4.5 0 0 0-.29 1.576c0 2.216 1.618 4.095 3.768 4.481a6.09 6.09 0 0 0 5.252 3.042A6 6 0 0 0 30 37.94a6 6 0 0 0 3.7 1.26 6.09 6.09 0 0 0 5.254-3.042c2.149-.386 3.767-2.265 3.767-4.481a4.5 4.5 0 0 0-.29-1.576 4.53 4.53 0 0 0 1.77-3.592 4.5 4.5 0 0 0-.95-2.767 5.26 5.26 0 0 0 1.69-3.878c0-2.326-1.54-4.361-3.702-5.052l.002-.116a3.84 3.84 0 0 0-3.51-3.818 5.32 5.32 0 0 0-4.77-2.967c-1.06 0-2.088.317-2.96.903a5.3 5.3 0 0 0-2.962-.903Zm2.081 28.476a4.27 4.27 0 0 1-2.822 1.055 4.32 4.32 0 0 1-3.223-1.458 3.5 3.5 0 0 0 1.397-.884c.768-.804 1.089-1.936.953-3.366l-1.75.167c.085.892-.072 1.557-.466 1.976-.546.58-1.441.59-1.55.589-1.471-.104-2.623-1.327-2.623-2.79 0-.501.139-.986.414-1.44l.488-.808-.84-.43a2.8 2.8 0 0 1-1.543-2.49c0-.828.376-1.61 1.033-2.151.15-.089.898-.494 1.737-.275.769.2 1.455.87 2.039 1.99l1.559-.814c-.832-1.593-1.904-2.564-3.188-2.886-1.075-.27-2.025.001-2.597.248a3.52 3.52 0 0 1-1.323-2.756 3.565 3.565 0 0 1 3.063-3.51l.006-.002c.075-.01 1.776-.212 2.848 1.663l1.526-.872c-1.118-1.957-2.737-2.438-3.738-2.535a2.08 2.08 0 0 1 2.07-1.986l.044.006q.069.01.139.016l.68.057.224-.644a3.56 3.56 0 0 1 3.361-2.388c.75 0 1.476.238 2.082.676zm1.758-26.042a3.55 3.55 0 0 1 2.081-.676c1.514 0 2.865.96 3.362 2.388l.224.644.68-.057q.07-.007.139-.016l.044-.006a2.08 2.08 0 0 1 2.07 1.986c-1.001.097-2.62.579-3.738 2.535l1.526.872c1.07-1.872 2.768-1.673 2.848-1.663l.005.001a3.565 3.565 0 0 1 3.064 3.511 3.52 3.52 0 0 1-1.323 2.756c-.572-.247-1.523-.517-2.598-.248-1.283.322-2.356 1.293-3.187 2.887l1.559.813c.584-1.12 1.27-1.79 2.038-1.99.84-.219 1.588.186 1.738.274a2.79 2.79 0 0 1 1.032 2.153 2.8 2.8 0 0 1-1.543 2.49l-.839.43.488.806c.275.455.414.94.414 1.442 0 1.462-1.151 2.685-2.623 2.789-.104 0-1.002-.007-1.55-.59-.394-.418-.55-1.082-.466-1.975l-1.75-.167c-.136 1.43.185 2.562.953 3.366.431.45.932.722 1.397.884a4.32 4.32 0 0 1-3.224 1.459 4.27 4.27 0 0 1-2.821-1.056zm16.992 14.148h1.758v1.758H47.87v-1.758Zm0-3.632h1.758v1.757H47.87V20.86Z"/></g><defs><clipPath id="a"><path fill="#fff" d="M0 0h60v60H0z"/></clipPath></defs></svg>