<svg xmlns="http://www.w3.org/2000/svg" width="60" height="60" fill="none"><path fill="#282928" d="m43.125 16.395 1.136-1.136a.94.94 0 0 0-1.33-1.33l-2.718 2.72a.94.94 0 0 0 0 1.33l2.719 2.718a.94.94 0 0 0 .664.276.947.947 0 0 0 .665-1.605l-1.09-1.09a11.755 11.755 0 0 1 11.27 11.726c-.648 15.591-22.858 15.581-23.501 0a13.646 13.646 0 0 0-13.63-13.63c-17.81.696-18.202 25.99-.434 27.237l-1.137 1.137a.94.94 0 1 0 1.33 1.329l2.718-2.72a.94.94 0 0 0 0-1.328l-2.719-2.72a.94.94 0 0 0-1.329 1.33l1.09 1.09c-15.23-1.195-14.816-22.883.48-23.476a11.764 11.764 0 0 1 11.751 11.75 13.646 13.646 0 0 0 13.63 13.63c17.808-.696 18.202-25.99.435-27.239Z"/><path fill="#282928" d="M24.833 27.796h-.585a7.35 7.35 0 0 0-1.55-2.687l.296-.513a1.58 1.58 0 0 0-.578-2.148l-1.107-.64a1.58 1.58 0 0 0-2.15.575l-.294.507a7.3 7.3 0 0 0-3.102-.002c-.27-.517-.628-1.116-1.25-1.243-.771-.29-1.669.468-2.302.797a1.576 1.576 0 0 0-.577 2.15l.294.51a7.3 7.3 0 0 0-1.554 2.684h-.589a1.576 1.576 0 0 0-1.574 1.574v1.278a1.576 1.576 0 0 0 1.574 1.574h.585c.32.996.848 1.912 1.55 2.686l-.296.513a1.58 1.58 0 0 0 .578 2.148l1.107.64a1.576 1.576 0 0 0 2.15-.575l.293-.507a7.3 7.3 0 0 0 3.103.003l.295.51a1.58 1.58 0 0 0 2.15.575c.597-.396 1.707-.778 1.842-1.597a2.08 2.08 0 0 0-.452-1.702 7.3 7.3 0 0 0 1.555-2.685h.588a1.576 1.576 0 0 0 1.574-1.574V29.37a1.575 1.575 0 0 0-1.574-1.573Zm-.306 2.545c-.702.01-1.744-.177-1.928.753a5.4 5.4 0 0 1-1.707 2.948c-.718.615-.027 1.445.31 2.048l-.578.334c-.304-.48-.617-1.394-1.317-1.342a6.14 6.14 0 0 1-3.704.046c-.89-.316-1.265.696-1.618 1.29l-.578-.335c.34-.603 1.023-1.435.312-2.047a5.4 5.4 0 0 1-1.704-2.951c-.176-.927-1.234-.745-1.924-.753v-.666c.703-.01 1.744.177 1.928-.753a5.4 5.4 0 0 1 1.707-2.948c.718-.615.027-1.445-.311-2.048l.58-.334.502.873a.94.94 0 0 0 1.112.422 5.4 5.4 0 0 1 3.408.002c.888.312 1.264-.697 1.616-1.29l.579.334c-.34.603-1.024 1.436-.313 2.046a5.35 5.35 0 0 1 1.704 2.953.94.94 0 0 0 .921.753h1.003z"/><path fill="#282928" d="M17.311 25.893a4.113 4.113 0 0 0 0 8.225 4.113 4.113 0 0 0 0-8.225m0 6.345a2.233 2.233 0 0 1 0-4.465 2.233 2.233 0 0 1 0 4.465m19.508 1.686a.94.94 0 0 0 1.329-1.33l-2.59-2.59 2.59-2.589a.94.94 0 1 0-1.33-1.33l-3.253 3.255a.94.94 0 0 0 0 1.33zm10.413 0a.94.94 0 0 0 1.33 0l3.254-3.255a.94.94 0 0 0 0-1.329l-3.254-3.254a.941.941 0 0 0-1.33 1.33l2.59 2.589-2.59 2.59a.94.94 0 0 0 0 1.329m-4.85 1.189 2.44-9.762A.94.94 0 0 0 43 24.896l-2.44 9.762a.94.94 0 1 0 1.823.455Z"/></svg>