<svg xmlns="http://www.w3.org/2000/svg" width="60" height="60" fill="none"><path fill="#282928" d="M53.438 9.375H6.562a4.693 4.693 0 0 0-4.687 4.688v31.874a4.693 4.693 0 0 0 4.688 4.688h46.874a4.693 4.693 0 0 0 4.688-4.688V14.064a4.693 4.693 0 0 0-4.688-4.688ZM6.562 11.25h46.876a2.816 2.816 0 0 1 2.812 2.813v2.812H3.75v-2.813a2.816 2.816 0 0 1 2.813-2.812Zm46.876 37.5H6.562a2.816 2.816 0 0 1-2.812-2.813V18.75h52.5v27.188a2.816 2.816 0 0 1-2.813 2.812Z"/><path fill="#282928" d="M7.5 13.125h1.875V15H7.5zm3.75 0h1.875V15H11.25zm3.75 0h1.875V15H15zm15 0h22.5V15H30zm9.649 11.525-4.132 4.133-2.424-2.425 4.131-4.132L35.9 20.9l-4.132 4.133-2.103-2.103a.94.94 0 0 0-1.326 0l-4.64 4.64a7.5 7.5 0 0 0-.62 9.902l-7.805 7.803 1.326 1.326 7.804-7.803a7.5 7.5 0 0 0 9.901-.622l4.641-4.64a.94.94 0 0 0 0-1.326l-2.102-2.102 4.131-4.132zm-6.67 12.201a5.625 5.625 0 1 1-7.955-7.955l1.272-1.272 6.79 6.79 1.326-1.326-6.79-6.79 1.38-1.38 7.954 7.955z"/></svg>