<svg xmlns="http://www.w3.org/2000/svg" width="60" height="60" fill="none"><path fill="#282928" fill-rule="evenodd" d="M33.75 49.688h-1.73c-3.704 0-6.708-2.99-6.708-6.667 0-3.678 3.004-6.666 6.707-6.666q.128-.001.254.004a8 8 0 0 1-.037-.786c0-4.626 3.778-8.385 8.437-8.385 4.55 0 8.262 3.586 8.431 8.064q.395-.043.8-.043c4.022 0 7.283 3.245 7.283 7.24 0 3.993-3.261 7.239-7.283 7.239H48.75v6.562c0 .518-.42.938-.938.938H34.688a.94.94 0 0 1-.938-.938zm15-1.875h1.154c2.983 0 5.408-2.402 5.408-5.365s-2.425-5.364-5.408-5.364c-.526 0-1.035.074-1.516.213a.937.937 0 0 1-1.192-1.003 7 7 0 0 0 .04-.721c0-3.595-2.943-6.51-6.563-6.51s-6.562 2.915-6.562 6.51c0 .57.073 1.123.212 1.65a.935.935 0 0 1-1.132 1.148 5 5 0 0 0-1.172-.142c-2.665 0-4.831 2.145-4.831 4.792s2.166 4.792 4.831 4.792h1.731V41.25c0-.517.42-.937.938-.937h5.624a.938.938 0 0 1 0 1.875h-4.687v5.625h11.25v-5.625h-2.813a.938.938 0 0 1 0-1.875h3.75c.518 0 .938.42.938.937zm-13.125 1.875v5.625h11.25v-5.625zm3.75 3.75a.938.938 0 0 1 0-1.875h3.75a.938.938 0 0 1 0 1.875zm0-7.5a.938.938 0 0 1 0-1.875h3.75a.938.938 0 0 1 0 1.875zM11.25 30H9.52c-3.704 0-6.707-2.989-6.707-6.666s3.003-6.667 6.706-6.667q.128 0 .254.005a8 8 0 0 1-.037-.787c0-4.626 3.778-8.385 8.437-8.385 4.59 0 8.325 3.649 8.435 8.18a.938.938 0 0 1-.167 1.8 6 6 0 0 0-.553.13.937.937 0 0 1-1.192-1.004q.04-.355.04-.72c0-3.595-2.943-6.51-6.563-6.51s-6.562 2.915-6.562 6.51q.002.857.212 1.65a.935.935 0 0 1-1.132 1.148 5 5 0 0 0-1.172-.142c-2.665 0-4.832 2.145-4.832 4.792s2.167 4.791 4.832 4.791h1.731v-6.562c0-.518.42-.938.938-.938h13.124c.518 0 .938.42.938.938v6.562h1.154c2.982 0 5.409-2.402 5.409-5.364 0-2.182-1.316-4.059-3.2-4.898a.937.937 0 1 1 .764-1.712c2.54 1.131 4.31 3.667 4.31 6.61 0 3.994-3.261 7.24-7.283 7.24H26.25v6.562c0 .517-.42.937-.938.937H12.188a.94.94 0 0 1-.937-.937V30Zm13.125-1.875V22.5h-11.25v5.625zM13.125 30v5.625h11.25V30zm3.75 3.75a.938.938 0 0 1 0-1.875h3.75a.938.938 0 0 1 0 1.875zm0-7.5a.938.938 0 0 1 0-1.875h3.75a.938.938 0 0 1 0 1.875zm39.88-1.89-6.168 3.945a.936.936 0 0 1-1.373-.435l-2.768-6.779a.937.937 0 0 1 1.15-1.248l1.45.46a11.2 11.2 0 0 0-.368-3.52 11.25 11.25 0 0 0-7.467-7.816 11.24 11.24 0 0 0-10.627 2.102.94.94 0 0 1-1.292-.086l-2.537-2.766a.937.937 0 0 1 .083-1.346c4.286-3.66 10.31-5.093 16.072-3.266 6.518 2.066 10.903 7.731 11.66 14.11a16.7 16.7 0 0 1-.047 4.325l2.01.637a.936.936 0 0 1 .222 1.683m-2.696-.5-.877-.279a.937.937 0 0 1-.638-1.07c.296-1.538.343-3.078.165-4.575-.673-5.67-4.571-10.707-10.365-12.543-4.791-1.52-9.786-.503-13.529 2.297l1.274 1.389a13.11 13.11 0 0 1 11.688-1.9c4.426 1.404 7.587 4.94 8.711 9.117a13.1 13.1 0 0 1 .296 5.391.94.94 0 0 1-1.21.75l-.636-.201 1.586 3.884z" clip-rule="evenodd"/></svg>