<svg xmlns="http://www.w3.org/2000/svg" width="60" height="60" fill="none"><g fill="#282928" clip-path="url(#a)"><path d="M42.727 34.818a5.71 5.71 0 0 0 5.554 5.719c3.249.087 5.879-2.709 5.879-5.922v-.248c.518-1.097.818-2.283.818-3.416 0-3.332-2.504-5.402-6.536-5.402-4.031 0-6.536 2.07-6.536 5.402 0 1.137.3 2.329.82 3.428v.44Zm9.592-.203c0 2.203-1.804 4.142-3.988 4.082a3.87 3.87 0 0 1-3.764-3.879V33.49c0-.743.604-1.347 1.347-1.347h5.057a1.35 1.35 0 0 1 1.348 1.347zm-3.877-7.226c1.412 0 4.695.347 4.695 3.562 0 .067-.008.136-.011.204a3.17 3.17 0 0 0-2.154-.853h-5.057c-.83 0-1.58.326-2.149.848-.002-.066-.019-.134-.019-.2 0-3.214 3.284-3.56 4.696-3.56ZM48.19 41.3c-3.766 0-7.08 1.502-9.123 3.78-2.574-1.606-5.735-2.484-9.068-2.484-3.409 0-6.542.934-9.041 2.486-2.272-2.557-5.715-3.781-9.15-3.781C5.6 41.3.55 45.337.55 50.297v.515a.92.92 0 0 0 .466.8c4.267 2.421 9.443 3.22 14.27 2.46-.003.078-.015.153-.015.232v.688a.92.92 0 0 0 .466.8c8.572 4.863 20.07 4.795 28.521 0a.92.92 0 0 0 .467-.8v-.688c0-.075-.012-.147-.014-.221 4.849.74 10.003-.05 14.269-2.47a.92.92 0 0 0 .466-.8v-.516c0-5.405-5.583-8.996-11.257-8.996ZM2.391 50.269c.022-3.933 4.238-7.127 9.416-7.127 2.833 0 5.734.964 7.645 3.009-1.99 1.627-3.387 3.709-3.925 6.03-4.466.8-9.23.151-13.136-1.913Zm40.494 4.182c-7.738 4.165-18.03 4.166-25.773 0v-.146c0-5.441 5.781-9.867 12.887-9.867 3.489 0 6.755 1.053 9.196 2.967 2.38 1.853 3.69 4.304 3.69 6.9zm1.59-2.281c-.52-2.273-1.871-4.356-3.931-6.031 1.71-1.811 4.497-2.997 7.646-2.997 4.546 0 9.394 2.76 9.417 7.127-3.737 1.974-8.435 2.748-13.132 1.9ZM6.344 34.818a5.71 5.71 0 0 0 5.554 5.719c3.255.088 5.878-2.715 5.878-5.922v-.265c.516-1.091.818-2.27.818-3.4 0-3.331-2.504-5.401-6.535-5.401s-6.536 2.07-6.536 5.402c0 1.136.3 2.328.82 3.427zm9.592-.203c0 2.186-1.786 4.142-3.988 4.082a3.87 3.87 0 0 1-3.764-3.879V33.49c0-.743.605-1.347 1.348-1.347h5.057c.742 0 1.347.604 1.347 1.347zm-3.877-7.226c1.412 0 4.695.347 4.695 3.562 0 .067-.008.136-.011.204a3.17 3.17 0 0 0-2.154-.853H9.532a3.17 3.17 0 0 0-2.156.854c-.002-.068-.012-.138-.012-.205 0-3.215 3.283-3.562 4.695-3.562m10.951 6.239c0 3.956 3.133 7.22 7.118 7.328 4.163.117 7.535-3.484 7.535-7.6v-.361c.695-1.45 1.093-3.03 1.093-4.533 0-4.26-3.227-6.907-8.421-6.907s-8.42 2.646-8.42 6.907c0 1.5.4 3.074 1.095 4.52zm12.813-.272c0 3.12-2.556 5.847-5.645 5.76-2.986-.08-5.328-2.529-5.328-5.488v-1.775c0-1.163.946-2.109 2.109-2.109h6.755c1.162 0 2.109.946 2.109 2.11zm-5.488-9.96c1.978 0 6.58.493 6.58 5.066 0 .33-.028.667-.075 1.006a3.93 3.93 0 0 0-3.127-1.564H26.96c-1.276 0-2.4.618-3.122 1.56a7 7 0 0 1-.082-1.002c0-4.573 4.601-5.067 6.58-5.067Zm-6.809-14.5c3.06 0 5.55 2.49 5.55 5.55 0 .507.42.92.928.92a.92.92 0 0 0 .92-.92c0-3.06 2.49-5.55 5.55-5.55a.92.92 0 1 0 0-1.84c-3.06 0-5.55-2.49-5.55-5.55a.93.93 0 0 0-.929-.92.92.92 0 0 0-.92.92 5.55 5.55 0 0 1-5.55 5.55.92.92 0 0 0 0 1.84Zm6.476-3.825a7.44 7.44 0 0 0 2.903 2.905A7.45 7.45 0 0 0 30 10.884a7.44 7.44 0 0 0-2.902-2.906 7.5 7.5 0 0 0 2.904-2.907M7.842 17.874a3.047 3.047 0 0 1 3.043 3.044c0 .508.418.92.926.92a.92.92 0 0 0 .92-.92 3.046 3.046 0 0 1 3.044-3.044.92.92 0 0 0 0-1.84 3.046 3.046 0 0 1-3.043-3.043.925.925 0 0 0-.927-.92.92.92 0 0 0-.92.92 3.043 3.043 0 0 1-3.043 3.043.92.92 0 0 0 0 1.84m3.968-2.035c.309.429.685.806 1.114 1.115-.43.31-.806.687-1.116 1.117a5 5 0 0 0-1.114-1.116c.417-.3.8-.68 1.116-1.116m32.415 2.035a3.047 3.047 0 0 1 3.043 3.044c0 .508.417.92.926.92a.92.92 0 0 0 .92-.92 3.047 3.047 0 0 1 3.044-3.044.92.92 0 1 0 0-1.84 3.047 3.047 0 0 1-3.044-3.043.925.925 0 0 0-.926-.92.92.92 0 0 0-.92.92 3.043 3.043 0 0 1-3.043 3.043.92.92 0 1 0 0 1.84m3.968-2.035c.309.429.685.806 1.114 1.115-.43.31-.807.687-1.116 1.117a5 5 0 0 0-1.114-1.116 5 5 0 0 0 1.116-1.116"/></g><defs><clipPath id="a"><path fill="#fff" d="M0 0h60v60H0z"/></clipPath></defs></svg>