<svg xmlns="http://www.w3.org/2000/svg" width="60" height="60" fill="none"><g fill="#282928" clip-path="url(#a)"><path d="M33.09 35.087a.88.88 0 0 0 .726-1.01A10.84 10.84 0 0 0 23.121 25c-5.977.001-10.84 4.864-10.84 10.84 0 5.978 4.863 10.84 10.84 10.84a10.83 10.83 0 0 0 10.5-8.14.879.879 0 0 0-1.702-.436 9.075 9.075 0 0 1-8.798 6.819c-5.008 0-9.082-4.075-9.082-9.082s4.074-9.082 9.082-9.082a9.08 9.08 0 0 1 8.96 7.603.88.88 0 0 0 1.01.726Z"/><path d="M23.122 28.912a6.934 6.934 0 0 0-6.927 6.927 6.934 6.934 0 0 0 6.927 6.926 6.934 6.934 0 0 0 6.926-6.926 6.934 6.934 0 0 0-6.926-6.927m0 12.095a5.174 5.174 0 0 1-5.169-5.168 5.174 5.174 0 0 1 5.169-5.17 5.174 5.174 0 0 1 5.168 5.17 5.174 5.174 0 0 1-5.168 5.168"/><path d="M23.122 32.416a3.426 3.426 0 0 0-3.423 3.423 3.426 3.426 0 0 0 3.423 3.422 3.426 3.426 0 0 0 3.422-3.422 3.426 3.426 0 0 0-3.422-3.423m0 5.087a1.667 1.667 0 0 1-1.665-1.664c0-.918.747-1.665 1.665-1.665s1.664.747 1.664 1.665c0 .917-.746 1.664-1.664 1.664"/><path d="M52.4 37.085v-5.562a.879.879 0 0 0-1.757 0v4.463a12.6 12.6 0 0 0-3.692-1.236V21.34c0-.679-.552-1.23-1.23-1.23h-2.019l5.089-6.917 5.001 6.916h-1.919c-.678 0-1.23.552-1.23 1.23v6.083a.879.879 0 0 0 1.758 0v-5.555h2.424c.464 0 .884-.257 1.095-.67a1.23 1.23 0 0 0-.098-1.281l-6.03-8.339c-.23-.317-.6-.508-.993-.51h-.005c-.39 0-.76.188-.99.502l-6.136 8.339a1.23 1.23 0 0 0-.107 1.284c.21.417.632.675 1.098.675h2.534v12.71a13 13 0 0 0-1.456.04 20 20 0 0 0-.136-1.477 1.806 1.806 0 0 0-1.788-1.565h-4.345q-.031-.001-.043-.036a15 15 0 0 0-1.148-2.774c-.011-.02-.01-.043.005-.056l3.07-3.071a1.81 1.81 0 0 0 .159-2.372q-.452-.586-.945-1.14V10.8h2.424c.465 0 .885-.257 1.096-.67a1.23 1.23 0 0 0-.099-1.282L35.957.51a1.23 1.23 0 0 0-.991-.51h-.005c-.39 0-.76.187-.992.501L27.834 8.84a1.23 1.23 0 0 0-.107 1.284c.21.417.632.676 1.098.676h2.534v10.77l-1.107 1.108c-.014.014-.036.016-.057.005a15 15 0 0 0-2.774-1.148c-.022-.007-.036-.024-.036-.043v-4.345c0-.903-.673-1.672-1.565-1.788a21 21 0 0 0-5.398 0 1.806 1.806 0 0 0-1.565 1.788v4.345q-.002.031-.036.043c-.96.287-1.893.674-2.774 1.148-.02.011-.043.01-.057-.005l-3.07-3.07a1.806 1.806 0 0 0-2.372-.159 20.8 20.8 0 0 0-3.816 3.817 1.81 1.81 0 0 0 .158 2.372l3.07 3.07c.014.014.016.036.005.057-.474.88-.86 1.814-1.148 2.774-.007.022-.024.036-.043.036H4.429c-.903 0-1.672.673-1.788 1.565a20.9 20.9 0 0 0 0 5.398 1.806 1.806 0 0 0 1.788 1.565h4.345q.031.002.043.036c.288.96.674 1.893 1.148 2.774.011.02.01.043-.004.057L6.89 46.04a1.806 1.806 0 0 0-.158 2.372 20.8 20.8 0 0 0 3.816 3.817c.714.548 1.733.48 2.372-.158L15.99 49c.014-.014.036-.016.057-.005.881.474 1.814.86 2.774 1.149.022.006.036.023.036.043v4.344c0 .903.673 1.672 1.565 1.789a20.9 20.9 0 0 0 5.398 0 1.806 1.806 0 0 0 1.565-1.789v-4.344q.002-.032.036-.043a15 15 0 0 0 2.774-1.149c.02-.011.043-.01.057.005l2.607 2.607C34.632 56.497 39.323 60 44.817 60c7.011 0 12.715-5.704 12.715-12.715 0-4.171-2.02-7.88-5.131-10.2ZM29.869 9.042l5.089-6.917 5.002 6.917h-1.92c-.678 0-1.23.552-1.23 1.23v10.1q-.541-.48-1.115-.922a1.806 1.806 0 0 0-2.371.158l-.206.205v-9.54c0-.68-.552-1.231-1.23-1.231zm2.285 39.373-.658-.658a1.794 1.794 0 0 0-2.133-.31c-.776.418-1.6.76-2.446 1.013a1.79 1.79 0 0 0-1.289 1.727v4.344c0 .023-.015.043-.035.046a19.2 19.2 0 0 1-4.942 0c-.02-.003-.035-.023-.035-.046v-4.344c0-.802-.518-1.496-1.289-1.727a13 13 0 0 1-2.446-1.013 1.79 1.79 0 0 0-2.133.31l-3.07 3.07c-.016.017-.042.02-.058.008a19 19 0 0 1-3.494-3.494c-.012-.016-.008-.041.008-.057l3.07-3.071a1.794 1.794 0 0 0 .31-2.133c-.418-.776-.759-1.6-1.013-2.446a1.79 1.79 0 0 0-1.726-1.289H4.429c-.022 0-.043-.015-.045-.035a19 19 0 0 1 0-4.942c.002-.02.023-.035.045-.035h4.345c.801 0 1.495-.518 1.726-1.288.254-.847.595-1.67 1.013-2.447a1.794 1.794 0 0 0-.31-2.132l-3.07-3.071c-.016-.016-.02-.042-.007-.058a19 19 0 0 1 3.493-3.493c.016-.012.042-.009.058.007l3.07 3.07a1.794 1.794 0 0 0 2.133.31 13 13 0 0 1 2.446-1.012 1.79 1.79 0 0 0 1.29-1.727v-4.345c0-.022.015-.043.034-.045a19.1 19.1 0 0 1 4.942 0c.02.002.035.023.035.045v4.345c0 .802.518 1.495 1.29 1.727.846.253 1.669.594 2.445 1.012a1.794 1.794 0 0 0 2.133-.31l3.07-3.07c.017-.016.042-.02.058-.007a19 19 0 0 1 3.494 3.493c.012.016.009.042-.007.058l-3.071 3.07a1.794 1.794 0 0 0-.31 2.133c.419.777.76 1.6 1.013 2.447.231.77.925 1.288 1.727 1.288h4.344c.023 0 .043.016.046.035q.098.754.134 1.52c-5.656 1.287-9.89 6.357-9.89 12.397q0 .572.05 1.13Zm12.664 9.827c-6.041 0-10.957-4.915-10.957-10.957s4.916-10.957 10.957-10.957 10.957 4.915 10.957 10.957-4.915 10.957-10.957 10.957"/><path d="M52.733 45.965a.879.879 0 1 0 1.734-.289 9.8 9.8 0 0 0-3.295-5.825 9.78 9.78 0 0 0-6.356-2.351c-5.395 0-9.785 4.39-9.785 9.785s4.39 9.785 9.785 9.785a9.7 9.7 0 0 0 5.856-1.95 9.9 9.9 0 0 0 3.492-4.937.879.879 0 1 0-1.68-.522 8.1 8.1 0 0 1-2.866 4.053 7.95 7.95 0 0 1-4.802 1.599c-4.426 0-8.027-3.602-8.027-8.028s3.601-8.027 8.027-8.027a8.04 8.04 0 0 1 7.917 6.707"/><path d="M44.816 40.137a.88.88 0 0 0-.879.879v6.269a.879.879 0 0 0 1.358.737l3.995-2.593a.879.879 0 0 0-.957-1.475l-2.638 1.713v-4.651a.88.88 0 0 0-.879-.88Z"/></g><defs><clipPath id="a"><path fill="#fff" d="M0 0h60v60H0z"/></clipPath></defs></svg>