<svg width="60" height="60" fill="none" xmlns="http://www.w3.org/2000/svg"><path d="M41.919 38.633 30.926 16.208a1 1 0 0 0-1.796 0L18.137 38.633a.996.996 0 0 0 .111 1.055l6.204 7.91h-1.82a2.6 2.6 0 0 0-2.598 2.595v3.994a1.4 1.4 0 0 0 1.4 1.397h17.189a1.4 1.4 0 0 0 1.399-1.398v-3.993a2.6 2.6 0 0 0-2.599-2.596h-1.84l6.224-7.908a.996.996 0 0 0 .112-1.056Zm-4.496 10.96c.331 0 .6.27.6.6v3.395h-15.99v-3.395a.6.6 0 0 1 .6-.6h14.79Zm-4.383-1.996h-6.05l-6.782-8.648 9.82-20.033 9.82 20.032-6.808 8.65Z" fill="#282928"/><path d="M34.008 39.38a3.981 3.981 0 0 0-2.986-3.613v-7.116a1 1 0 0 0-1.998 0v7.115a3.978 3.978 0 0 0-2.001 1.226 3.977 3.977 0 0 0-.996 2.637 3.985 3.985 0 0 0 4.249 3.986 3.974 3.974 0 0 0 2.747-1.344 3.961 3.961 0 0 0 .985-2.891Zm-2.485 1.572a2.027 2.027 0 0 1-2.21.546 2.006 2.006 0 0 1-1.285-1.874 2.002 2.002 0 0 1 1.346-1.88 2.022 2.022 0 0 1 2.233.67 2.023 2.023 0 0 1-.084 2.538Z" fill="#282928"/><path d="M54.16 25.832h-1.554c-.142-1.654-.649-5.137-2.447-8.654-1.398-2.736-3.762-5.796-7.716-7.744h5.283c.26.984.871 1.818 1.735 2.357a3.96 3.96 0 0 0 3.015.508 3.968 3.968 0 0 0 2.496-1.765c.566-.901.746-1.972.508-3.014a3.969 3.969 0 0 0-1.768-2.492 3.972 3.972 0 0 0-3.016-.508A3.967 3.967 0 0 0 48.2 6.286c-.226.36-.391.748-.492 1.15H34.02V5.838a1.4 1.4 0 0 0-1.399-1.398h-5.196a1.4 1.4 0 0 0-1.4 1.398v1.647h-13.7a4.002 4.002 0 0 0-3.89-3.07A4 4 0 0 0 4.44 8.41a4 4 0 0 0 7.848 1.073h5.299c-3.967 1.947-6.337 5.008-7.74 7.744-1.802 3.517-2.31 7-2.453 8.655h-1.58a1.4 1.4 0 0 0-1.399 1.398v5.191a1.4 1.4 0 0 0 1.4 1.398h5.196a1.4 1.4 0 0 0 1.4-1.398V27.28a1.4 1.4 0 0 0-1.4-1.398H9.403c.15-1.547.639-4.654 2.223-7.745 1.289-2.515 3.044-4.515 5.216-5.945 2.503-1.647 5.589-2.55 9.184-2.69v1.529a1.4 1.4 0 0 0 1.4 1.397h5.196a1.4 1.4 0 0 0 1.4-1.397V9.454c3.567.139 6.631 1.034 9.12 2.666 2.164 1.42 3.915 3.407 5.205 5.906 1.597 3.099 2.093 6.245 2.246 7.806h-1.63a1.4 1.4 0 0 0-1.4 1.398v5.192a1.4 1.4 0 0 0 1.4 1.397h5.197a1.4 1.4 0 0 0 1.399-1.398V27.23a1.4 1.4 0 0 0-1.4-1.398ZM49.894 7.348a2.024 2.024 0 0 1 2.114-.89c.796.17 1.413.826 1.547 1.627a2 2 0 0 1-.987 2.062 2.022 2.022 0 0 1-2.356-.287 2.02 2.02 0 0 1-.318-2.512c.281-.45-.283.449 0 0ZM8.437 10.406a2 2 0 0 1-2-1.996 2 2 0 0 1 3.997 0 2 2 0 0 1-1.997 1.996ZM10.41 27.88v3.993H6.413v-3.993h3.998ZM32.023 10.43h-3.998V6.438h3.998v3.993ZM53.56 31.822h-3.997v-3.994h3.997v3.994Z" fill="#282928"/><path d="M30.027 25.657a1 1 0 1 1 0-1.997.999.999 0 1 1 0 1.997Z" fill="#282928"/></svg>