<svg width="60" height="60" fill="none" xmlns="http://www.w3.org/2000/svg"><path d="M8.542 31.392a.952.952 0 0 1-.952-.953c0-5.805 2.18-11.343 6.139-15.585a.952.952 0 1 1 1.392 1.3A20.876 20.876 0 0 0 9.494 30.44a.952.952 0 0 1-.952.953ZM3.086 35.196a.953.953 0 0 1-.943-.822 28.779 28.779 0 0 1-.268-3.938 28.433 28.433 0 0 1 7.824-19.638.95.95 0 0 1 1.347-.036.951.951 0 0 1 .036 1.346 26.536 26.536 0 0 0-7.303 18.328c0 1.234.084 2.472.252 3.679a.95.95 0 0 1-.945 1.081ZM50.484 50.37a.951.951 0 0 1-.691-1.607 26.544 26.544 0 0 0 7.302-18.33c0-1.231-.084-2.47-.251-3.678a.95.95 0 0 1 .813-1.072.944.944 0 0 1 1.072.813c.18 1.293.27 2.618.27 3.938a28.433 28.433 0 0 1-7.824 19.637.947.947 0 0 1-.691.3Z" fill="#282928"/><path d="M38.955 57.713a.95.95 0 0 1-.927-1.161l3.496-15.455a.96.96 0 0 1 .668-.706.96.96 0 0 1 .939.248l3.818 3.882a.951.951 0 1 1-1.358 1.335l-2.595-2.64-2.784 12.31 12.356-2.577-2.76-2.805a.951.951 0 1 1 1.358-1.335l3.982 4.049a.953.953 0 0 1-.484 1.6l-15.51 3.234a.895.895 0 0 1-.199.021Z" fill="#282928"/><path d="M46.452 46.323a.951.951 0 0 1-.695-1.601 20.884 20.884 0 0 0 5.627-14.287.953.953 0 0 1 1.904 0c0 5.805-2.18 11.343-6.14 15.585a.949.949 0 0 1-.696.303ZM18.417 20.517a.948.948 0 0 1-.678-.284l-3.817-3.883a.951.951 0 0 1 .011-1.346.95.95 0 0 1 1.346.01l2.596 2.639 2.784-12.309L8.302 7.921l2.76 2.804a.951.951 0 0 1-.012 1.347.955.955 0 0 1-1.346-.01L5.722 8.014a.953.953 0 0 1 .484-1.6L21.717 3.18a.943.943 0 0 1 .873.265c.23.228.325.56.253.876l-3.496 15.454a.96.96 0 0 1-.93.743ZM30.435 59a28.433 28.433 0 0 1-19.637-7.825.951.951 0 1 1 1.31-1.382 26.537 26.537 0 0 0 18.327 7.302 27.01 27.01 0 0 0 3.68-.251.949.949 0 0 1 1.071.813.95.95 0 0 1-.813 1.072c-1.3.18-2.626.27-3.938.27Z" fill="#282928"/><path d="M7.347 55.427a.949.949 0 0 1-.931-.756L3.18 39.16a.95.95 0 0 1 1.143-1.122l15.454 3.496a.952.952 0 0 1 .459 1.607l-3.883 3.818a.953.953 0 0 1-1.338-1.36l2.639-2.595L5.345 40.22l2.577 12.355 2.805-2.758a.951.951 0 1 1 1.335 1.358l-4.049 3.98a.949.949 0 0 1-.666.272Z" fill="#282928"/><path d="M30.435 53.288A22.774 22.774 0 0 1 14.85 47.15a.952.952 0 1 1 1.3-1.392 20.876 20.876 0 0 0 14.285 5.627.953.953 0 0 1 0 1.904ZM49.427 11.342a.945.945 0 0 1-.655-.26 26.545 26.545 0 0 0-18.33-7.303 26.96 26.96 0 0 0-3.718.257.953.953 0 0 1-.263-1.885 28.983 28.983 0 0 1 3.982-.276A28.434 28.434 0 0 1 50.08 9.699a.951.951 0 0 1-.653 1.643Z" fill="#282928"/><path d="M56.766 22.866a.962.962 0 0 1-.21-.023l-15.454-3.495a.952.952 0 0 1-.459-1.607l3.883-3.819a.953.953 0 0 1 1.337 1.358l-2.64 2.596 12.309 2.783-2.576-12.356-2.805 2.76a.953.953 0 0 1-1.335-1.358l4.048-3.982a.948.948 0 0 1 .945-.232c.333.1.584.375.655.716l3.235 15.511a.95.95 0 0 1-.265.872.94.94 0 0 1-.668.276Z" fill="#282928"/><path d="M45.377 15.374a.946.946 0 0 1-.65-.255A20.877 20.877 0 0 0 30.44 9.49a.952.952 0 0 1 0-1.904c5.806 0 11.343 2.18 15.586 6.139a.951.951 0 0 1-.65 1.649ZM34.441 53.287h-.192a.952.952 0 0 1 0-1.904h.192a.952.952 0 0 1 0 1.904ZM26.63 9.49h-.19a.952.952 0 0 1 0-1.904h.19a.952.952 0 0 1 0 1.904ZM52.339 27.583a.952.952 0 0 1-.952-.952v-.193a.953.953 0 0 1 1.904 0v.193a.952.952 0 0 1-.952.952ZM8.546 35.391a.952.952 0 0 1-.952-.952v-.192a.952.952 0 0 1 1.904 0v.192a.952.952 0 0 1-.952.952ZM39.007 26.155a.936.936 0 0 1-.46-.12l-8.109-4.503-4.09 2.271a.952.952 0 1 1-.925-1.664l4.553-2.529a.948.948 0 0 1 .923 0l8.569 4.76a.95.95 0 0 1 .37 1.295.947.947 0 0 1-.83.49Z" fill="#282928"/><path d="M30.442 41.39a.954.954 0 0 1-.465-1.784l8.082-4.488v-8.295l-7.154 3.974a.95.95 0 0 1-1.295-.369.954.954 0 0 1 .37-1.295l8.568-4.76a.953.953 0 0 1 1.415.832v10.473a.953.953 0 0 1-.49.832l-8.568 4.76a.942.942 0 0 1-.463.12Z" fill="#282928"/><path d="M30.435 41.389a.959.959 0 0 1-.463-.12l-8.569-4.76a.953.953 0 0 1-.489-.833V25.203a.953.953 0 0 1 1.415-.832l8.569 4.76a.95.95 0 0 1 .489.833v10.473a.953.953 0 0 1-.952.952Zm-7.617-6.273 6.665 3.704v-8.294l-6.665-3.704v8.295Z" fill="#282928"/></svg>