<svg xmlns="http://www.w3.org/2000/svg" width="60" height="60" fill="none"><g clip-path="url(#a)"><path fill="#282928" d="M20.831 14.088c-.172.53-.002 1.1.433 1.45l3.87 3.11-1.302 4.794c-.146.538.05 1.097.502 1.426a1.32 1.32 0 0 0 1.511.036l4.156-2.72 4.156 2.72a1.325 1.325 0 0 0 1.511-.037 1.32 1.32 0 0 0 .502-1.425l-1.303-4.793 3.871-3.112a1.32 1.32 0 0 0 .432-1.449 1.32 1.32 0 0 0-1.2-.918l-4.962-.242-1.763-4.643a1.32 1.32 0 0 0-1.244-.859 1.32 1.32 0 0 0-1.244.859l-1.764 4.643-4.96.242a1.32 1.32 0 0 0-1.202.918m6.61.696a1.33 1.33 0 0 0 1.179-.857L30 10.29l1.382 3.637c.188.495.65.831 1.179.857l3.886.19-3.033 2.436a1.33 1.33 0 0 0-.45 1.387l1.02 3.754-3.255-2.13a1.33 1.33 0 0 0-1.457 0l-3.255 2.13 1.02-3.754a1.33 1.33 0 0 0-.45-1.387l-3.032-2.437 3.885-.19Zm1.622-10.406V.938a.938.938 0 0 1 1.875 0v3.44a.937.937 0 1 1-1.875 0m5.71 5.554a.937.937 0 0 1 .069-1.324l3.834-3.452A.937.937 0 1 1 39.93 6.55l-3.834 3.452a.934.934 0 0 1-1.323-.07M20.002 5.226a.937.937 0 0 1 1.324-.07l3.834 3.452a.938.938 0 0 1-1.255 1.394L20.071 6.55a.937.937 0 0 1-.07-1.324Zm22.026 10.311L45.9 18.65l-1.303 4.793a1.32 1.32 0 0 0 .503 1.426 1.32 1.32 0 0 0 1.511.036l4.156-2.72 4.155 2.72a1.325 1.325 0 0 0 1.511-.037 1.32 1.32 0 0 0 .502-1.425l-1.302-4.793 3.87-3.112a1.32 1.32 0 0 0 .433-1.449 1.32 1.32 0 0 0-1.201-.918l-4.961-.242-1.763-4.643a1.32 1.32 0 0 0-1.244-.859c-.558 0-1.047.337-1.245.859l-1.763 4.643-4.96.242a1.32 1.32 0 0 0-1.202.918 1.32 1.32 0 0 0 .432 1.45Zm6.177-.753a1.33 1.33 0 0 0 1.18-.857l1.38-3.637 1.381 3.637a1.33 1.33 0 0 0 1.18.857l3.885.19-3.032 2.436a1.33 1.33 0 0 0-.45 1.387l1.02 3.754-3.255-2.131a1.33 1.33 0 0 0-1.458 0l-3.255 2.13 1.021-3.753a1.33 1.33 0 0 0-.45-1.387l-3.033-2.437 3.886-.19Zm-47.706.753L4.37 18.65l-1.303 4.793c-.146.538.05 1.097.502 1.426a1.32 1.32 0 0 0 1.512.036l4.155-2.72 4.156 2.72a1.325 1.325 0 0 0 1.511-.037c.451-.327.649-.887.502-1.425l-1.303-4.793 3.871-3.112a1.32 1.32 0 0 0 .432-1.45 1.32 1.32 0 0 0-1.2-.917l-4.962-.242-1.762-4.643a1.32 1.32 0 0 0-1.245-.859 1.32 1.32 0 0 0-1.244.859l-1.763 4.643-4.96.242a1.32 1.32 0 0 0-1.202.918 1.32 1.32 0 0 0 .432 1.45Zm6.177-.753a1.33 1.33 0 0 0 1.18-.857l1.38-3.637 1.38 3.637c.189.495.652.831 1.18.857l3.886.19-3.032 2.436a1.33 1.33 0 0 0-.45 1.387l1.02 3.754-3.255-2.131a1.33 1.33 0 0 0-1.458 0l-3.255 2.13 1.02-3.753a1.33 1.33 0 0 0-.45-1.387L2.79 14.973zm53.177 35.013a10.76 10.76 0 0 0-3.804-5.386 10.6 10.6 0 0 0-2.78-1.499 5.85 5.85 0 0 0 2.248-4.61 5.865 5.865 0 0 0-5.858-5.858 5.865 5.865 0 0 0-5.859 5.859 5.85 5.85 0 0 0 2.244 4.605c-1.829.653-3.45 1.8-4.69 3.347a14 14 0 0 0-2.002-2.246 13.9 13.9 0 0 0-5.21-2.972 7.51 7.51 0 0 0 3.374-6.267c0-4.144-3.371-7.516-7.515-7.516s-7.515 3.372-7.515 7.515a7.51 7.51 0 0 0 3.374 6.268 13.9 13.9 0 0 0-5.21 2.972 14 14 0 0 0-2.002 2.245 10.56 10.56 0 0 0-4.69-3.346 5.85 5.85 0 0 0 2.243-4.605 5.865 5.865 0 0 0-5.858-5.859 5.865 5.865 0 0 0-5.859 5.858 5.85 5.85 0 0 0 2.25 4.61c-.987.354-1.922.855-2.781 1.498a10.76 10.76 0 0 0-3.805 5.386 3.09 3.09 0 0 0 .476 2.812 3.09 3.09 0 0 0 2.545 1.286h12.96v1.692A4.42 4.42 0 0 0 20.543 60h18.915a4.42 4.42 0 0 0 4.415-4.414v-1.691h12.96c1.03 0 1.934-.457 2.545-1.286.611-.83.78-1.828.475-2.812M49.66 34.319a3.99 3.99 0 0 1 3.983 3.984 3.99 3.99 0 0 1-3.983 3.983 3.99 3.99 0 0 1-3.984-3.983 3.99 3.99 0 0 1 3.984-3.984m-25.298.45c0-3.11 2.53-5.64 5.64-5.64s5.64 2.53 5.64 5.64a5.646 5.646 0 0 1-5.637 5.64h-.006a5.646 5.646 0 0 1-5.637-5.64m-14.018-.45a3.99 3.99 0 0 1 3.983 3.983 3.99 3.99 0 0 1-3.983 3.984 3.99 3.99 0 0 1-3.984-3.984 3.99 3.99 0 0 1 3.984-3.983m5.908 17.7H3.169c-.431 0-.78-.176-1.036-.523a1.23 1.23 0 0 1-.194-1.145 8.75 8.75 0 0 1 8.404-6.19 8.73 8.73 0 0 1 7.252 3.818 13.9 13.9 0 0 0-1.344 4.04Zm25.747 3.567c0 1.4-1.14 2.539-2.54 2.539H20.543c-1.4 0-2.539-1.14-2.539-2.54v-2.578a12.04 12.04 0 0 1 11.994-10.722h.006a12.04 12.04 0 0 1 11.994 10.722v2.579Zm15.87-4.09a1.23 1.23 0 0 1-1.035.523H43.75a13.9 13.9 0 0 0-1.345-4.04 8.73 8.73 0 0 1 7.253-3.818 8.75 8.75 0 0 1 8.403 6.19c.128.413.063.798-.193 1.145Z"/></g><defs><clipPath id="a"><path fill="#fff" d="M0 0h60v60H0z"/></clipPath></defs></svg>