<svg xmlns="http://www.w3.org/2000/svg" width="60" height="60" fill="none"><path fill="#282928" d="M34.488 41.646c-.153.935-.396 1.839-.723 2.703l2.935 2.66c-.411.866-.88 1.699-1.42 2.48l-3.77-1.214a14 14 0 0 1-1.986 1.985l1.215 3.77a18 18 0 0 1-2.48 1.42l-2.66-2.935q-1.299.492-2.704.723l-.837 3.877c-.474.038-.95.072-1.433.072s-.96-.034-1.433-.072l-.838-3.877a14 14 0 0 1-2.703-.723l-2.66 2.935a18 18 0 0 1-2.48-1.42l1.214-3.77a14 14 0 0 1-1.985-1.985L5.97 49.49a18 18 0 0 1-1.42-2.48l2.935-2.66a14 14 0 0 1-.723-2.704l-3.877-.838c-.038-.474-.072-.95-.072-1.433s.034-.96.072-1.433l3.877-.838c.153-.935.396-1.839.723-2.703L4.55 31.74a18 18 0 0 1 1.42-2.48l3.77 1.214a14 14 0 0 1 1.986-1.985l-1.215-3.77a18 18 0 0 1 2.48-1.42l2.66 2.935q1.299-.492 2.704-.723l.837-3.877c.474-.038.95-.073 1.433-.073s.96.035 1.433.073l.838 3.877c.935.153 1.839.396 2.703.723l2.66-2.935c.866.411 1.699.88 2.48 1.42l-1.214 3.77a14 14 0 0 1 1.985 1.986l3.77-1.215c.54.782 1.008 1.615 1.42 2.48l-2.935 2.66q.492 1.299.723 2.704l3.877.838c.038.473.072.948.072 1.432s-.034.96-.072 1.433zM20.625 30a9.375 9.375 0 0 0-9.375 9.375 9.375 9.375 0 0 0 9.375 9.375A9.375 9.375 0 0 0 30 39.375 9.375 9.375 0 0 0 20.625 30M47.493 15.286a7.5 7.5 0 0 1-.573 1.387l1.48 2.837a10.4 10.4 0 0 1-1.701 1.702l-2.837-1.48a7.4 7.4 0 0 1-1.388.572l-.96 3.057c-.395.046-.795.076-1.202.076s-.806-.03-1.2-.075l-.96-3.057a7.5 7.5 0 0 1-1.388-.572l-2.837 1.48a10.4 10.4 0 0 1-1.701-1.702l1.48-2.837a7.4 7.4 0 0 1-.573-1.387l-3.056-.96A10 10 0 0 1 30 13.125c0-.407.03-.806.076-1.2l3.056-.96a7.5 7.5 0 0 1 .573-1.388l-1.48-2.837c.5-.632 1.07-1.202 1.701-1.702l2.837 1.48a7.4 7.4 0 0 1 1.388-.572l.96-3.057c.395-.046.795-.076 1.202-.076s.806.03 1.2.075l.96 3.057q.73.219 1.388.572l2.837-1.48c.632.5 1.202 1.07 1.701 1.702l-1.48 2.837q.355.657.573 1.387l3.056.96c.047.396.077.795.077 1.202s-.03.806-.076 1.2zm-7.18-5.911a3.75 3.75 0 1 0 0 7.5 3.75 3.75 0 0 0 0-7.5M55.068 36.442a6.5 6.5 0 0 1-.609 1.473l.933 1.963a8.5 8.5 0 0 1-1.451 1.452l-1.963-.933a6.5 6.5 0 0 1-1.474.608l-.73 2.052a8 8 0 0 1-1.024.068c-.348 0-.688-.027-1.025-.068l-.73-2.052a6.5 6.5 0 0 1-1.473-.608l-1.963.933a8.5 8.5 0 0 1-1.451-1.452l.933-1.963a6.5 6.5 0 0 1-.609-1.472l-2.051-.73a8 8 0 0 1-.069-1.026c0-.347.028-.688.069-1.024l2.051-.73q.218-.782.609-1.472l-.933-1.963c.424-.541.91-1.028 1.451-1.452l1.963.933c.46-.26.954-.464 1.474-.608l.73-2.052c.336-.042.676-.069 1.024-.069s.688.027 1.025.068l.73 2.052q.78.217 1.473.608l1.963-.933c.54.424 1.027.91 1.451 1.452l-.933 1.963q.391.692.609 1.473l2.051.73c.041.336.069.677.069 1.025s-.028.688-.069 1.024zm-6.318-4.567a2.812 2.812 0 1 0 0 5.625 2.812 2.812 0 0 0 0-5.625M57.373 4.707l-5.607-1.121-1.121 5.606 1.838.369.505-2.524a14.1 14.1 0 0 1 1.389 6.089c0 3.232-1.067 6.272-3.085 8.789l1.464 1.173a15.98 15.98 0 0 0 3.496-9.962c0-2.455-.568-4.876-1.647-7.06l2.4.48zM22.224 12.463 20.9 13.789l1.274 1.274a24 24 0 0 0-1.55-.062 24.33 24.33 0 0 0-18.728 8.774l1.44 1.2a22.45 22.45 0 0 1 17.289-8.1c.477 0 .953.028 1.43.058l-1.155 1.155 1.325 1.325 3.476-3.475z"/></svg>