<svg xmlns="http://www.w3.org/2000/svg" width="60" height="60" fill="none"><g fill="#282928" clip-path="url(#a)"><path d="M5.238 35.715c2.563 0 4.7-1.85 5.15-4.286h6.87a38.7 38.7 0 0 0 3.642 9.524H10.476a.95.95 0 0 0-.952.953v6.755a5.246 5.246 0 0 0-4.286 5.15 5.244 5.244 0 0 0 5.238 5.238 5.244 5.244 0 0 0 5.238-5.239c0-2.562-1.85-4.7-4.286-5.15v-5.802h10.579a39.5 39.5 0 0 0 5.655 7.135l7.699 7.699a2.85 2.85 0 0 0 2.02.835c.732 0 1.463-.278 2.02-.835l7.696-7.696c1.087-1.087 2.168-2.416 3.174-3.69a.952.952 0 0 0-1.495-1.181c-.97 1.229-2.008 2.507-3.026 3.524l-7.696 7.696a.953.953 0 0 1-1.346 0l-7.7-7.699c-5.024-5.025-8.436-11.233-9.977-17.996a.947.947 0 0 0-.155-.718 37.6 37.6 0 0 1-.781-7.636v-3.852a.96.96 0 0 0 .42-.504L37.38 7.316l19.286 10.86v4.118c0 6.097-1.492 12.128-4.313 17.443a.953.953 0 0 0 1.683.893c2.966-5.589 4.535-11.93 4.535-18.336V17.62a.95.95 0 0 0-.485-.83L37.848 5.394a.95.95 0 0 0-.934 0L16.893 16.668h-5.465V11.34a5.246 5.246 0 0 0 4.286-5.15A5.244 5.244 0 0 0 10.476.953a5.244 5.244 0 0 0-5.238 5.238c0 2.563 1.85 4.7 4.286 5.15v6.279c0 .526.426.952.952.952h5.714v3.724c0 2.452.227 4.869.665 7.229h-6.467a5.246 5.246 0 0 0-5.15-4.286A5.244 5.244 0 0 0 0 30.477a5.244 5.244 0 0 0 5.238 5.238m8.571 18.095a3.337 3.337 0 0 1-3.333 3.334 3.337 3.337 0 0 1-3.333-3.334 3.337 3.337 0 0 1 3.333-3.333 3.337 3.337 0 0 1 3.333 3.334M7.143 6.191a3.337 3.337 0 0 1 3.333-3.333 3.337 3.337 0 0 1 3.333 3.333 3.337 3.337 0 0 1-3.333 3.334A3.337 3.337 0 0 1 7.143 6.19M5.238 27.144a3.337 3.337 0 0 1 3.333 3.333 3.337 3.337 0 0 1-3.333 3.333 3.337 3.337 0 0 1-3.333-3.333 3.337 3.337 0 0 1 3.333-3.333"/><path d="M51.903 28.811c0-8.009-6.515-14.524-14.524-14.524-8.008 0-14.523 6.515-14.523 14.524 0 8.008 6.515 14.524 14.523 14.524 3.663 0 7.012-1.363 9.57-3.608l11.424 11.424a.95.95 0 0 0 1.346 0 .95.95 0 0 0 0-1.347L48.296 38.38a14.46 14.46 0 0 0 3.608-9.569m-27.143 0c0-6.958 5.661-12.619 12.62-12.619 4.86 0 9.39 2.9 11.444 7.304 1.917 4.111 1.388 8.982-1.265 12.653-2.349 3.252-6.156 5.281-10.18 5.281-6.958 0-12.619-5.66-12.619-12.619"/><path d="M37.141 27.62a4.29 4.29 0 0 0 4.286-4.285 4.29 4.29 0 0 0-4.286-4.286 4.29 4.29 0 0 0-4.285 4.286 4.29 4.29 0 0 0 4.285 4.285m0-6.666a2.384 2.384 0 0 1 2.381 2.38 2.384 2.384 0 0 1-2.38 2.381 2.384 2.384 0 0 1-2.382-2.38 2.384 2.384 0 0 1 2.381-2.381M37.416 28.166c-4.162 0-7.549 3.386-7.549 7.549 0 .526.427.952.953.952h13.192a.95.95 0 0 0 .953-.953c0-4.162-3.387-7.548-7.55-7.548m-5.564 6.596a5.65 5.65 0 0 1 5.564-4.691 5.65 5.65 0 0 1 5.563 4.691z"/></g><defs><clipPath id="a"><path fill="#fff" d="M0 0h60v60H0z"/></clipPath></defs></svg>