<svg xmlns="http://www.w3.org/2000/svg" width="60" height="60" fill="none"><g fill="#282928" clip-path="url(#a)"><path d="m56.04 19.128-5.486-9.486c-.607-1.115-1.982-1.62-3.24-1.167l-6.197 2.49a21.6 21.6 0 0 0-3.695-2.145l-.943-6.57C36.322.968 35.207 0 33.892 0h-11c-1.315 0-2.428.968-2.585 2.228l-.945 6.594a22.4 22.4 0 0 0-3.688 2.148L9.46 8.473C8.242 8 6.855 8.5 6.242 9.618L.749 19.12a2.626 2.626 0 0 0 .638 3.383l5.25 4.104c-.08.793-.12 1.485-.12 2.143s.04 1.35.122 2.14L1.382 35c-1.003.792-1.278 2.197-.64 3.373l5.485 9.487c.61 1.112 1.977 1.622 3.242 1.165l6.198-2.49a21.6 21.6 0 0 0 3.695 2.145l.942 6.572c.16 1.28 1.275 2.248 2.588 2.248h8.615c.467 0 .895-.26 1.105-.665.215-.413.182-.91-.083-1.293a16.13 16.13 0 0 1-2.925-9.285c0-1.554.228-3.112.678-4.63.115-.39.032-.812-.218-1.13a1.28 1.28 0 0 0-1.047-.474c-.135.007-.268.024-.608.067-6.217 0-11.275-5.058-11.275-11.275 0-6.22 5.058-11.277 11.275-11.277s11.275 5.057 11.253 11.482q-.029.199-.043.4c-.02.405.158.795.475 1.047.32.253.743.328 1.13.218 2.433-.725 4.83-.9 7.545-.405.333.06.698-.09.978-.298.28-.207.462-.592.5-.937.005-.045.017-.248.017-.293 0-.777-.055-1.512-.12-2.142L55.4 22.5c1.003-.79 1.28-2.195.64-3.372m-7.98 5.942c-.346.27-.526.705-.47 1.14.052.42.107.89.142 1.39a18.1 18.1 0 0 0-5.57.272c-.483-7.162-6.463-12.842-13.745-12.842-7.595 0-13.775 6.18-13.775 13.778 0 7.285 5.68 13.264 12.842 13.745a18.634 18.634 0 0 0 1.787 12.427l-6.487-.06-1.045-7.288a1.25 1.25 0 0 0-.765-.98 19 19 0 0 1-4.36-2.53 1.25 1.25 0 0 0-1.227-.17l-6.978 2.68-5.482-9.665 5.802-4.537c.345-.27.525-.705.47-1.14a20 20 0 0 1-.182-2.54c0-.738.057-1.545.182-2.54a1.25 1.25 0 0 0-.47-1.14l-5.82-4.688 5.628-9.585 6.847 2.75c.41.163.87.103 1.218-.16 1.475-1.107 2.905-1.937 4.37-2.537.41-.17.702-.54.765-.98l1.155-7.37 11.107.082 1.045 7.288c.065.44.355.812.765.98a19 19 0 0 1 4.36 2.53c.35.27.813.332 1.228.167l6.977-2.677 5.488 9.662z"/><path d="M45.86 32.5c-7.583 0-13.75 6.167-13.75 13.75S38.276 60 45.86 60c7.582 0 13.75-6.167 13.75-13.75 0-7.582-6.168-13.75-13.75-13.75m0 25c-6.203 0-11.25-5.047-11.25-11.25 0-6.202 5.047-11.25 11.25-11.25s11.25 5.048 11.25 11.25c0 6.203-5.048 11.25-11.25 11.25"/><path d="M45.86 37.5c-.69 0-1.25.56-1.25 1.25v10a1.25 1.25 0 0 0 2.5 0v-10c0-.69-.56-1.25-1.25-1.25M46.734 52.85a1.277 1.277 0 0 0-1.75.025c-.25.225-.375.55-.375.875q0 .525.375.9c.25.225.55.35.875.35s.65-.125.9-.375c.225-.25.35-.55.35-.875s-.125-.65-.375-.9"/></g><defs><clipPath id="a"><path fill="#fff" d="M0 0h60v60H0z"/></clipPath></defs></svg>