<svg xmlns="http://www.w3.org/2000/svg" width="60" height="60" fill="none"><g fill="#282928" clip-path="url(#a)"><path d="M30 25.246c6.7 0 12.152-5.452 12.152-12.153C42.152 6.393 36.7.941 30 .941c-6.701 0-12.153 5.451-12.153 12.152S23.298 25.246 30 25.246m0-22.544c5.73 0 10.39 4.662 10.39 10.391 0 5.73-4.66 10.392-10.39 10.392s-10.392-4.662-10.392-10.392S24.27 2.702 30 2.702"/><path d="M30.938 17.848h-4.697a.88.88 0 1 0 0 1.762h2.877v1.937a.88.88 0 0 0 1.761 0V19.61h.059c2.04 0 3.699-1.66 3.699-3.699 0-2.04-1.66-3.699-3.699-3.699h-1.879a1.94 1.94 0 0 1-1.937-1.937 1.94 1.94 0 0 1 1.937-1.938h4.697a.88.88 0 1 0 0-1.76h-2.877V4.638a.88.88 0 0 0-1.761 0v1.937h-.059a3.703 3.703 0 0 0-3.698 3.699c0 2.04 1.659 3.699 3.698 3.699h1.879a1.94 1.94 0 0 1 1.937 1.937 1.94 1.94 0 0 1-1.937 1.937M30.725 29.5a.88.88 0 0 0-1.448 0l-8.454 12.212a.881.881 0 0 0 .724 1.382h2.877v15.088c0 .486.394.88.88.88h9.394a.88.88 0 0 0 .88-.88V43.094h2.877a.88.88 0 0 0 .724-1.382zm3.973 11.832a.88.88 0 0 0-.88.881v15.088h-7.633V42.213a.88.88 0 0 0-.88-.88h-2.077L30 31.548l6.773 9.783zM.099 31.35c.152.29.453.471.78.471h2.877v19.697c0 .486.394.88.88.88h9.394a.88.88 0 0 0 .88-.88V31.822h2.877a.88.88 0 0 0 .724-1.382l-8.454-12.212a.88.88 0 0 0-1.448 0L.155 30.44a.88.88 0 0 0-.056.91m9.234-11.074 6.774 9.784H14.03a.88.88 0 0 0-.88.88v19.697H5.516V30.941a.88.88 0 0 0-.88-.88H2.56zM41.431 24.775a.88.88 0 0 0 .78.472h2.877v10.9a.88.88 0 0 0 1.761 0v-11.78a.88.88 0 0 0-.88-.881h-2.077l6.773-9.784 6.773 9.784h-2.076a.88.88 0 0 0-.88.88v19.697H46.85v-3.846a.88.88 0 0 0-1.762 0v4.727c0 .486.395.88.88.88h9.394a.88.88 0 0 0 .88-.88V25.247h2.877a.88.88 0 0 0 .725-1.382L51.39 11.654a.88.88 0 0 0-1.449 0l-8.454 12.211a.88.88 0 0 0-.056.91"/></g><defs><clipPath id="a"><path fill="#fff" d="M60 60H0V0h60z"/></clipPath></defs></svg>