<svg xmlns="http://www.w3.org/2000/svg" width="60" height="60" fill="none"><g clip-path="url(#a)"><path fill="#282928" d="M32.99 5.716 34.618 2.9a.848.848 0 0 1 1.469.85l-1.628 2.814a.85.85 0 0 1-1.469-.85m6.416 6.798a.85.85 0 0 0 .424-.113l2.718-1.57a.849.849 0 1 0-.849-1.468l-2.718 1.568a.848.848 0 0 0 .425 1.583M26.1 4.99a.85.85 0 0 0 .848-.849V.848a.848.848 0 0 0-1.697 0v3.293a.85.85 0 0 0 .848.849m-8.36 1.578a.848.848 0 1 0 1.469-.849L17.58 2.901a.848.848 0 0 0-1.468.849zm-8.089 4.264 2.718 1.57a.847.847 0 0 0 1.244-.955.85.85 0 0 0-.395-.516L10.5 9.363a.848.848 0 1 0-.849 1.469m12.334 7.525a1.302 1.302 0 1 0 0 2.605h1.302V19.66a1.304 1.304 0 0 0-1.302-1.303m9.533 1.303a1.303 1.303 0 1 0-2.606 0v1.302h1.303a1.304 1.304 0 0 0 1.303-1.302M22.64 38.146h6.919q.011-.6.091-1.197H22.55q.08.596.091 1.197m2.343-15.488v12.594h2.233V22.658zm-1.415 18.381h5.063a.926.926 0 0 0 .925-.924v-.272h-6.914v.273a.926.926 0 0 0 .926.923m1.397 2.801h2.267a.553.553 0 0 0 .552-.552v-.552h-3.37v.553a.56.56 0 0 0 .55.552m23.787-16.849-.246-.105v26.278a.85.85 0 0 1-1.188.777c-7.504-3.286-14.32-3.292-20.836-.02a.85.85 0 0 1-.762 0c-6.517-3.272-13.332-3.266-20.836.02a.846.846 0 0 1-1.188-.777v-26.28l-.246.108L0 28.504V60l8.068-3.532c5.72-2.509 10.629-2.55 15.448-.13l2.584 1.296 2.586-1.296c4.815-2.42 9.725-2.379 15.447.13L52.2 60V28.503zM16.046 49.784c3.175.057 6.306.753 9.206 2.047v-6.295h-.287a2.25 2.25 0 0 1-2.246-2.247v-.697a2.62 2.62 0 0 1-1.772-2.476v-1.772c0-3.213-1.646-5.182-3.55-7.461-1.934-2.314-4.103-4.913-4.452-9.14-2.44.296-4.978.992-7.554 2.072V51.89c3.66-1.45 7.237-2.16 10.655-2.108m6.113-14.531h1.128V22.658h-1.302a2.998 2.998 0 1 1 2.998-2.998v1.302h2.233V19.66a2.999 2.999 0 1 1 3 2.998h-1.304v12.594h1.129c.712-2.167 2.102-3.832 3.46-5.457 2.112-2.528 4.107-4.915 4.107-9.252a11.507 11.507 0 1 0-23.016 0c0 4.337 1.994 6.724 4.106 9.252 1.36 1.625 2.748 3.29 3.46 5.457zM46.808 51.89V23.815c-2.58-1.08-5.116-1.775-7.555-2.072-.348 4.227-2.517 6.826-4.45 9.14-1.905 2.279-3.551 4.248-3.551 7.46v1.773a2.62 2.62 0 0 1-1.772 2.476v.697a2.25 2.25 0 0 1-2.248 2.248h-.284v6.294c2.9-1.294 6.03-1.99 9.205-2.047 3.417-.049 6.995.657 10.655 2.107"/></g><defs><clipPath id="a"><path fill="#fff" d="M0 0h60v60H0z"/></clipPath></defs></svg>