<svg xmlns="http://www.w3.org/2000/svg" width="60" height="60" fill="none"><g fill="#282928" clip-path="url(#a)"><path d="M48.41 51.418A28.24 28.24 0 0 1 30 58.242c-7.544 0-14.636-2.938-19.97-8.272C4.695 44.636 1.758 37.544 1.758 30a28.16 28.16 0 0 1 7.476-19.142.879.879 0 1 0-1.292-1.192A29.9 29.9 0 0 0 0 30c0 8.013 3.12 15.547 8.787 21.213C14.453 56.879 21.987 60 30 60a30 30 0 0 0 19.556-7.25.88.88 0 0 0-1.147-1.332M51.212 8.787C45.545 3.12 38.012 0 29.998 0a30 30 0 0 0-19.447 7.156.879.879 0 1 0 1.14 1.338A28.25 28.25 0 0 1 30 1.758c7.543 0 14.636 2.937 19.97 8.272C55.303 15.364 58.24 22.456 58.24 30c0 7.062-2.62 13.821-7.377 19.033a.879.879 0 0 0 1.299 1.185A29.92 29.92 0 0 0 59.999 30c0-8.013-3.121-15.547-8.787-21.213"/><path d="M20.138 35.752h2.845a18.1 18.1 0 0 0-1.325 6.777 2.876 2.876 0 0 0 2.873 2.872 2.876 2.876 0 0 0 2.873-2.872c0-1.171.548-2.297 1.469-3.02l5.29-3.423a1.73 1.73 0 0 0 1.116.408h5.524a1.74 1.74 0 0 0 1.738-1.738V22.149a1.74 1.74 0 0 0-1.738-1.738H35.28c-.472 0-.9.19-1.213.496l-12.318-.816a2.684 2.684 0 0 0-2.843 2.305L17.486 32.71a2.676 2.676 0 0 0 2.652 3.041m15.161-13.583h5.484v12.567H35.3zm-16.072 10.78 1.419-10.313a.92.92 0 0 1 .98-.792l11.915.79v11.76l-5.655 3.66-.059.042a5.63 5.63 0 0 0-2.181 4.433 1.116 1.116 0 0 1-2.23 0c0-2.425.555-4.862 1.607-7.048l.11-.227a.88.88 0 0 0-.792-1.26h-4.203a.9.9 0 0 1-.693-.315.9.9 0 0 1-.218-.73"/><path d="M12.096 47.905c4.783 4.783 11.142 7.417 17.906 7.417s13.123-2.634 17.905-7.417S55.324 36.764 55.324 30s-2.634-13.123-7.417-17.906-11.141-7.416-17.905-7.416-13.123 2.634-17.906 7.416C7.314 16.877 4.68 23.236 4.68 30s2.634 13.123 7.416 17.905m17.906-41.47c12.993 0 23.564 10.572 23.564 23.565s-10.57 23.564-23.564 23.564S6.438 42.994 6.438 30 17.008 6.436 30.002 6.436"/></g><defs><clipPath id="a"><path fill="#fff" d="M0 0h60v60H0z"/></clipPath></defs></svg>