<svg xmlns="http://www.w3.org/2000/svg" width="60" height="60" fill="none"><g fill="#282928" clip-path="url(#a)"><path d="M46.875 30.938h-33.75a.937.937 0 0 0-.937.937v26.25c0 .518.419.938.937.938h33.75c.518 0 .938-.42.938-.938v-26.25a.937.937 0 0 0-.938-.937m-.937 26.25H14.061V32.811h31.876z"/><path d="m26.324 47.463 5.627-13.123 1.722.738-5.626 13.123zM24.65 45.664l1.326-1.326-3.088-3.087 3.087-3.087-1.325-1.326-3.75 3.75a.937.937 0 0 0 0 1.325zM35.35 45.664l3.75-3.75a.937.937 0 0 0 0-1.326l-3.75-3.75-1.327 1.325 3.088 3.088-3.088 3.087zM15.938 49.688h28.124v1.874H15.939zM15.938 53.438h28.124v1.874H15.939zM30 .938C13.974.938.938 13.974.938 30c0 .518.419.938.937.938h7.5c.518 0 .938-.42.938-.938 0-10.855 8.832-19.687 19.687-19.687S49.688 19.145 49.688 30c0 .518.419.938.937.938h7.5c.518 0 .938-.42.938-.938C59.063 13.974 46.026.938 30 .938M8.457 29.063H2.828c.232-6.79 2.967-12.956 7.307-17.603l3.982 3.982c-3.326 3.624-5.434 8.38-5.66 13.62m6.985-14.947-3.978-3.978c4.647-4.34 10.81-7.07 17.599-7.302V8.46a21.47 21.47 0 0 0-13.621 5.655M30.938 8.46V2.836c6.789.232 12.951 2.962 17.598 7.302l-3.978 3.978a21.47 21.47 0 0 0-13.62-5.655m20.605 20.602c-.225-5.24-2.334-9.997-5.658-13.621l3.982-3.982c4.34 4.647 7.075 10.812 7.306 17.603z"/><path d="M28.124 29.063h3.75c.356 0 .68-.201.84-.519l1.874-3.75a.94.94 0 0 0 .051-.716l-3.75-11.25a.938.938 0 0 0-1.778 0l-3.75 11.25a.94.94 0 0 0 .05.717l1.875 3.75a.94.94 0 0 0 .838.517M30 16.089l2.738 8.214-1.442 2.884h-2.591l-1.442-2.884z"/></g><defs><clipPath id="a"><path fill="#fff" d="M0 0h60v60H0z"/></clipPath></defs></svg>