<svg xmlns="http://www.w3.org/2000/svg" width="60" height="60" fill="none"><g fill="#282928" clip-path="url(#a)"><path d="M37.882 5.918a2.18 2.18 0 0 0-1.693-1.475l-2.893-.501-1.358-2.728A2.17 2.17 0 0 0 30 0c-.821 0-1.563.466-1.938 1.215l-1.358 2.728-2.892.501a2.18 2.18 0 0 0-1.694 1.475 2.25 2.25 0 0 0 .494 2.263l2.08 2.202-.442 3.066a2.23 2.23 0 0 0 .912 2.152 2.13 2.13 0 0 0 2.224.153l2.613-1.361 2.613 1.361a2.13 2.13 0 0 0 2.225-.153 2.23 2.23 0 0 0 .912-2.152l-.442-3.066 2.08-2.202a2.25 2.25 0 0 0 .494-2.263zm-1.947.89-2.412 2.554a1 1 0 0 0-.263.829l.512 3.544c.02.142-.057.212-.09.236-.07.047-.118.024-.145.011l-3.075-1.603a1 1 0 0 0-.924 0l-3.075 1.603c-.027.014-.076.036-.145-.011-.033-.024-.11-.095-.09-.236l.512-3.544a1 1 0 0 0-.263-.829l-2.412-2.554a.25.25 0 0 1-.05-.258q.039-.118.138-.136l3.392-.588c.313-.055.582-.255.725-.54l1.584-3.18C29.867 2.08 29.907 2 30 2s.134.079.146.105l1.584 3.181c.143.285.41.485.725.54l3.393.588q.096.018.137.136a.25.25 0 0 1-.05.258M19.88 13.918a2.18 2.18 0 0 0-1.692-1.475l-2.893-.501-1.358-2.728A2.16 2.16 0 0 0 12 8c-.822 0-1.563.466-1.938 1.215l-1.358 2.728-2.892.501a2.18 2.18 0 0 0-1.694 1.475 2.25 2.25 0 0 0 .494 2.263l2.08 2.202-.442 3.066a2.23 2.23 0 0 0 .912 2.152 2.13 2.13 0 0 0 2.224.153l2.613-1.361 2.613 1.361a2.13 2.13 0 0 0 2.225-.153 2.23 2.23 0 0 0 .912-2.152l-.442-3.066 2.08-2.202c.569-.603.759-1.47.494-2.264m-1.946.89-2.412 2.554a1 1 0 0 0-.263.829l.512 3.544c.02.142-.057.212-.09.236-.07.047-.118.025-.145.011l-3.075-1.603a1 1 0 0 0-.924 0l-3.075 1.603c-.027.015-.075.036-.145-.011-.033-.024-.11-.095-.09-.236l.512-3.544a1 1 0 0 0-.263-.829l-2.412-2.554a.25.25 0 0 1-.05-.258q.039-.118.138-.136l3.392-.588c.313-.055.582-.255.725-.54l1.584-3.18c.013-.026.053-.106.146-.106s.134.079.146.105l1.584 3.181c.143.285.41.485.725.54l3.393.588q.096.018.137.136a.25.25 0 0 1-.05.258M55.88 13.918a2.18 2.18 0 0 0-1.692-1.475l-2.893-.501-1.358-2.728A2.16 2.16 0 0 0 48 8c-.822 0-1.563.466-1.938 1.215l-1.358 2.728-2.892.501a2.18 2.18 0 0 0-1.694 1.475 2.25 2.25 0 0 0 .494 2.263l2.08 2.202-.442 3.066a2.23 2.23 0 0 0 .912 2.152 2.13 2.13 0 0 0 2.224.153l2.613-1.361 2.613 1.361a2.13 2.13 0 0 0 2.225-.153 2.23 2.23 0 0 0 .912-2.152l-.442-3.066 2.08-2.202c.569-.603.759-1.47.494-2.264m-1.946.89-2.412 2.554a1 1 0 0 0-.263.829l.512 3.544c.02.142-.057.212-.09.236-.07.047-.118.025-.145.011l-3.075-1.603a1 1 0 0 0-.924 0l-3.075 1.603c-.026.015-.076.036-.145-.011-.033-.024-.11-.095-.09-.236l.512-3.544a1 1 0 0 0-.263-.829l-2.412-2.554a.25.25 0 0 1-.05-.258q.039-.118.138-.136l3.392-.588c.313-.055.582-.255.725-.54l1.584-3.18c.013-.026.053-.106.146-.106s.134.079.146.105l1.584 3.181c.143.285.41.485.725.54l3.393.588q.096.018.137.136a.25.25 0 0 1-.05.258M30 24C13.458 24 0 37.458 0 54c0 1.103.897 2 2 2h12c1.103 0 2-.897 2-2 0-7.72 6.28-14 14-14a13.99 13.99 0 0 1 11.691 6.32c-4.46 1.577-7.918 2.85-10.464 3.85A5 5 0 0 0 30 50c-2.757 0-5 2.243-5 5s2.243 5 5 5c1.969 0 3.66-1.154 4.475-2.813 2.613-1.423 5.967-3.355 9.341-5.335.11.708.184 1.424.184 2.148 0 1.103.897 2 2 2h12c1.103 0 2-.897 2-2 0-16.542-13.458-30-30-30m10.577 18.009A15.97 15.97 0 0 0 31 38.034V26.025c6.966.246 13.291 3.046 18.066 7.495zM14 54H2c0-7.361 2.859-14.063 7.52-19.066l8.498 8.498C15.526 46.254 14 49.948 14 54m5.432-11.982-8.498-8.498c4.775-4.448 11.099-7.248 18.066-7.495V38.05a15.9 15.9 0 0 0-9.568 3.968m31.823 3.093c-4.799 2.872-11.447 6.824-16.293 9.523a4.97 4.97 0 0 0-1.465-3.198c4.025-1.535 9.865-3.616 17.758-6.325M29.999 58c-1.654 0-3-1.346-3-3s1.346-3 3-3 3 1.346 3 3-1.346 3-3 3m16-4c0-1.094-.116-2.178-.335-3.236 2.351-1.388 4.643-2.755 6.622-3.938.899-.545 1.23-1.626.789-2.571a1.966 1.966 0 0 0-2.461-1.039c-2.541.872-4.863 1.678-6.989 2.424a16 16 0 0 0-1.638-2.213l8.491-8.491c4.661 5.003 7.52 11.705 7.52 19.066h-12z"/></g><defs><clipPath id="a"><path fill="#fff" d="M0 0h60v60H0z"/></clipPath></defs></svg>