<svg xmlns="http://www.w3.org/2000/svg" width="60" height="60" fill="none"><path fill="#282928" d="M53.72 33.103A14.85 14.85 0 0 0 58.117 22.5c0-8.269-6.731-15-15-15s-15 6.731-15 15c0 7.313 5.26 13.406 12.188 14.728v4.022a1.88 1.88 0 0 0-1.875 1.875V56.25a1.88 1.88 0 0 0 1.875 1.875h5.625a1.88 1.88 0 0 0 1.875-1.875V43.125a1.88 1.88 0 0 0-1.875-1.875v-4.022a14.8 14.8 0 0 0 7.78-4.125zm-.684-2.016-1.031-1.03-.957-.957a10.2 10.2 0 0 0 2.344-5.663h2.822a12.94 12.94 0 0 1-3.178 7.65m-9.919-.15c-4.65 0-8.437-3.787-8.437-8.437s3.787-8.437 8.437-8.437 8.438 3.787 8.438 8.437c0 2.25-.882 4.369-2.475 5.962a8.38 8.38 0 0 1-5.963 2.476m13.088-9.375h-2.822c-.45-4.94-4.397-8.887-9.338-9.337V9.403c6.488.46 11.69 5.663 12.15 12.15zm-26.213.938c0-6.919 5.39-12.61 12.188-13.087v2.821c-5.25.479-9.375 4.903-9.375 10.275 0 5.691 4.622 10.313 10.312 10.313a10.25 10.25 0 0 0 6.6-2.39l.956.956 1.032 1.03a13.02 13.02 0 0 1-8.588 3.207c-7.237 0-13.125-5.887-13.125-13.125M45.93 56.25h-5.625V43.125h5.625zM44.055 37.5v3.75H42.18V37.5zM17.511 16.622 30 5.025V7.5a.94.94 0 0 0 .937.938.94.94 0 0 0 .938-.938V2.813a.94.94 0 0 0-.938-.938H26.25a.94.94 0 0 0-.938.938.94.94 0 0 0 .938.937h2.372L16.9 14.634l-4.05-4.05a.944.944 0 0 0-1.293-.037l-9.375 8.447a.935.935 0 0 0-.065 1.322.934.934 0 0 0 1.321.065l8.71-7.847 4.06 4.06a.946.946 0 0 0 1.302.028M9.375 43.125H3.75A1.88 1.88 0 0 0 1.875 45v11.25a1.88 1.88 0 0 0 1.875 1.875h5.625a1.88 1.88 0 0 0 1.875-1.875V45a1.88 1.88 0 0 0-1.875-1.875M3.75 56.25V45h5.625v11.25zM21.563 30h-5.625a1.88 1.88 0 0 0-1.876 1.875V56.25a1.88 1.88 0 0 0 1.876 1.875h5.624a1.88 1.88 0 0 0 1.875-1.875V31.875A1.88 1.88 0 0 0 21.563 30m-5.625 26.25V31.875h5.624V56.25z"/><path fill="#282928" d="M33.75 37.5h-5.625a1.88 1.88 0 0 0-1.875 1.875V56.25a1.88 1.88 0 0 0 1.875 1.875h5.625a1.88 1.88 0 0 0 1.875-1.875V39.375A1.88 1.88 0 0 0 33.75 37.5m-5.625 18.75V39.375h5.625V56.25z"/></svg>