<svg xmlns="http://www.w3.org/2000/svg" width="60" height="60" fill="none"><path fill="#282928" fill-rule="evenodd" d="M31.202 6.483c2.16.513 4.222 1.37 6.112 2.533l3.971-1.763 4.681 4.68-1.763 3.97a20.9 20.9 0 0 1 2.534 6.114l4.052 1.56v6.62l-1.37.527a4.25 4.25 0 0 0-2.976-1.215h-5.561q.23-1.278.232-2.622c0-8.164-6.618-14.782-14.782-14.782S11.55 18.723 11.55 26.887c0 7.97 6.309 14.466 14.205 14.77v1.088c0 1.32.512 2.444 1.359 3.365v5.234h-4.092l-1.56-4.053a20.9 20.9 0 0 1-6.112-2.534l-3.971 1.764-4.681-4.68L8.46 37.87a20.9 20.9 0 0 1-2.534-6.114l-4.052-1.56v-6.619l4.053-1.56a20.9 20.9 0 0 1 2.534-6.112l-1.764-3.971 4.68-4.681 3.972 1.763a20.9 20.9 0 0 1 6.112-2.533l1.56-4.053h6.62zm3.713 29.678v3.718c0 .789.645 1.434 1.434 1.434h13.057c.788 0 1.434-.646 1.434-1.434v-3.718zm5.152 12.2a2.81 2.81 0 1 0 5.62 0 2.81 2.81 0 0 0-5.62 0m16.699-3.054c.803-.66 1.359-1.482 1.359-2.562v-5.44c0-.63-.514-1.144-1.144-1.144h-4.266v3.718a3.314 3.314 0 0 1-3.309 3.309H36.349a3.314 3.314 0 0 1-3.309-3.309v-3.718h-4.267c-.63 0-1.143.513-1.143 1.143v5.44c0 1.08.556 1.904 1.359 2.563 2.18 1.79 6.528 2.288 9.235 2.509a4.687 4.687 0 0 1 9.307-.002c2.702-.222 7.058-.72 9.235-2.507M28.989 47.57v7.767a2.24 2.24 0 0 0 2.232 2.232h23.313a2.24 2.24 0 0 0 2.232-2.232v-7.767c-2.005 1.123-5.5 1.837-9.402 2.142a4.688 4.688 0 0 1-8.973 0c-3.901-.305-7.397-1.02-9.402-2.142M48.83 34.286v-.514a2.395 2.395 0 0 0-2.389-2.388h-7.13a2.395 2.395 0 0 0-2.388 2.388v.514h2.115v-.514a.28.28 0 0 1 .274-.274h7.13a.28.28 0 0 1 .274.274v.514zM17.749 25.08a2.615 2.615 0 0 0 0 3.688l4.056 4.056c1.146 1.147 2.876 1.672 4.169.38l8.942-8.943a2.616 2.616 0 0 0 0-3.688 2.615 2.615 0 0 0-3.688 0l-7.15 7.15-2.641-2.643a2.615 2.615 0 0 0-3.688 0" clip-rule="evenodd"/></svg>