<svg xmlns="http://www.w3.org/2000/svg" width="62.02" height="56.02"><path d="M.16 54.48a.98.98 0 0 0 .03 1.11 1.01 1.01 0 0 0 .82.43 1 1 0 0 0 .22-.02l9.19-2.04A18.982 18.982 0 0 0 38 37.32a19.22 19.22 0 0 0 13.61-1.36l9.19 2.03a.8.8 0 0 0 .22.02 1.008 1.008 0 0 0 .85-1.54l-3.75-5.93a19 19 0 1 0-34.08-11.85A19 19 0 0 0 3.91 48.55ZM43 2.01a17 17 0 0 1 13.1 27.83.99.99 0 0 0-.08 1.17l2.85 4.5-7.2-1.59a1.03 1.03 0 0 0-.69.09A17.2 17.2 0 0 1 37.9 35.2 19.03 19.03 0 0 0 26 19.36c0-.12-.01-.24-.01-.36a17.024 17.024 0 0 1 17-17Zm-41 35a17.013 17.013 0 1 1 9.01 15 1 1 0 0 0-.47-.12 1 1 0 0 0-.22.02l-7.2 1.59L5.97 49a1.01 1.01 0 0 0-.07-1.17A17 17 0 0 1 2 36.99Z"/><path d="M35 12.01h16v2H35Zm0 6h16v2H35Zm4 6h12v2H39Zm-26.34 15h3.62l1.05 4h2.07l-2.96-11.25a1 1 0 0 0-.97-.75h-2a1.014 1.014 0 0 0-.97.75L9.54 43.01h2.07Zm1.58-6h.46l1.05 4h-2.56Zm14.22 8h-2.5v-8h2.5v-2h-7v2h2.5v8h-2.5v2h7Z"/></svg>