<svg xmlns="http://www.w3.org/2000/svg" width="53.079" height="53.079"><path d="M48.656 0H4.423A4.43 4.43 0 0 0 0 4.423v44.233a4.43 4.43 0 0 0 4.423 4.423h44.233a4.43 4.43 0 0 0 4.423-4.423V4.423A4.43 4.43 0 0 0 48.656 0m2.654 31.847h-2.654a.885.885 0 1 0 0 1.769h2.654v2.654h-2.654a.885.885 0 1 0 0 1.769h2.654v2.654h-2.654a.885.885 0 1 0 0 1.769h2.654v2.654h-4.424a.885.885 0 0 1-.886-.884V30.078a.885.885 0 0 1 .885-.885h4.425ZM4.423 1.769h44.233a2.654 2.654 0 0 1 2.654 2.654v2.654H1.769V4.423a2.654 2.654 0 0 1 2.654-2.654M48.656 51.31H4.423a2.654 2.654 0 0 1-2.654-2.654V8.846H51.31v18.578h-4.424a2.654 2.654 0 0 0-2.654 2.654v14.154a2.654 2.654 0 0 0 2.654 2.654h4.424v1.769a2.654 2.654 0 0 1-2.654 2.655"/><path d="M36.019 20.843c-.009-.014-.023-.021-.032-.035a2.66 2.66 0 0 0-1.028-1.137l-13.27-7.8a2.62 2.62 0 0 0-2.688 0l-13.27 7.8a2.67 2.67 0 0 0-1.026 1.139c-.009.013-.023.02-.032.035a.9.9 0 0 0-.119.33 2.6 2.6 0 0 0-.13.782V38.2a2.67 2.67 0 0 0 1.312 2.284l13.27 7.8a2.62 2.62 0 0 0 2.688 0l13.27-7.8a2.67 2.67 0 0 0 1.31-2.28V21.956a2.6 2.6 0 0 0-.133-.783.9.9 0 0 0-.119-.33ZM19.905 13.39a.86.86 0 0 1 .442-.12.9.9 0 0 1 .442.122L33.895 21.1 20.79 29.069a.84.84 0 0 1-.877 0L6.799 21.1Zm14.154 25.566-13.27 7.81a.86.86 0 0 1-.885 0l-13.27-7.8a.88.88 0 0 1-.442-.759V22.8l12.8 7.785a2.6 2.6 0 0 0 .472.2v12.562a.885.885 0 1 0 1.769 0V30.785a2.6 2.6 0 0 0 .472-.205l12.8-7.78v15.4a.88.88 0 0 1-.442.758Zm10.468-14.493.982-2.84 2.84-.982h.007a1.76 1.76 0 0 0 1.183-1.649 1.7 1.7 0 0 0-1.092-1.619l-8.017-3.1a1.763 1.763 0 0 0-2.272 2.28l3.1 8.018a1.7 1.7 0 0 0 1.595 1.082h.026a1.76 1.76 0 0 0 1.648-1.192Zm-.688-3.418-.931 2.88-3.112-8 7.978 3.043h-.01l-2.831.979a1.78 1.78 0 0 0-1.094 1.1ZM5.308 5.308h.885a.885.885 0 0 0-.001-1.769h-.884a.885.885 0 0 0 0 1.769m4.423 0h.885a.885.885 0 1 0 0-1.769h-.885a.885.885 0 0 0 0 1.769m4.424 0h.885a.885.885 0 1 0 0-1.769h-.885a.885.885 0 0 0 0 1.769m32.732 0h.885a.885.885 0 0 0 0-1.769h-.885a.885.885 0 0 0 0 1.769m-23.886 0h7.077a.885.885 0 1 0 0-1.769h-7.077a.885.885 0 0 0 0 1.769"/></svg>