<svg xmlns="http://www.w3.org/2000/svg" width="44.844" height="56.898"><path d="M1.697 36.655h5.24v5.923a5.333 5.333 0 0 0 5.49 5.331c.36-.011 4.845-.031 7.634-.042l2.121 8.432a.79.79 0 0 0 .764.6h19.046a.788.788 0 0 0 .762-.992c-.032-.12-3.19-12.09-2.491-19.605.191-2.051 2.148-6.972 2.333-7.431a19.76 19.76 0 0 0-.471-19.149A19.38 19.38 0 0 0 26.006.014c-.181-.006-.364-.015-.547-.015A21.23 21.23 0 0 0 4.016 20.063c-.022.355-.031 3.372-.033 4.148L.112 34.352a1.7 1.7 0 0 0 1.586 2.3Zm-.112-1.741 3.923-10.277a.8.8 0 0 0 .052-.279c0-1.489.015-3.945.031-4.205a19.655 19.655 0 0 1 19.85-18.575q.255 0 .508.012a17.81 17.81 0 0 1 14.816 8.924 18.2 18.2 0 0 1 .415 17.66q-.018.035-.032.069c-.091.225-2.234 5.539-2.455 7.91a51 51 0 0 0 1 13.058c.474 2.642.993 4.886 1.292 6.108H23.561l-2.122-8.437a.79.79 0 0 0-.764-.6c-.318 0-7.788.029-8.294.045a3.756 3.756 0 0 1-3.864-3.754v-6.706a.79.79 0 0 0-.789-.789H1.697a.12.12 0 0 1-.112-.163Zm0 0"/><path d="M25.709 25.951a7.754 7.754 0 1 0-7.754-7.754 7.753 7.753 0 0 0 7.754 7.754m0-13.93a6.177 6.177 0 1 1-6.177 6.177 6.177 6.177 0 0 1 6.177-6.177m0 0"/><path d="M12.788 16.848a13.3 13.3 0 0 0 .085 3.279l-1.34 1.286a.79.79 0 0 0-.177.885l1.641 3.752a.79.79 0 0 0 .78.47l1.853-.136a12 12 0 0 0 2.379 2.265l-.053 1.85a.79.79 0 0 0 .5.759l3.821 1.477a.79.79 0 0 0 .88-.221l1.2-1.393a13.4 13.4 0 0 0 3.279-.085l1.29 1.339a.79.79 0 0 0 .886.177l3.751-1.641a.79.79 0 0 0 .47-.78l-.137-1.853a12 12 0 0 0 2.266-2.378l1.85.054a.79.79 0 0 0 .759-.5l1.474-3.819a.79.79 0 0 0-.221-.88l-1.393-1.2a13.4 13.4 0 0 0-.085-3.279l1.341-1.286a.79.79 0 0 0 .177-.885l-1.638-3.759a.79.79 0 0 0-.78-.47l-1.853.136a12 12 0 0 0-2.378-2.266l.054-1.85a.79.79 0 0 0-.5-.759l-3.818-1.474a.79.79 0 0 0-.881.22l-1.2 1.393a13.3 13.3 0 0 0-3.279.085l-1.286-1.34a.79.79 0 0 0-.885-.177l-3.763 1.641a.79.79 0 0 0-.47.78l.136 1.854a12 12 0 0 0-2.266 2.378l-1.85-.054a.79.79 0 0 0-.759.5l-1.474 3.822a.79.79 0 0 0 .221.881Zm1.13-4.812 1.72.051a.8.8 0 0 0 .68-.351 10.5 10.5 0 0 1 2.492-2.617.79.79 0 0 0 .318-.692l-.127-1.721 2.736-1.2 1.189 1.246a.79.79 0 0 0 .711.23 11.8 11.8 0 0 1 3.642-.094.79.79 0 0 0 .7-.267l1.111-1.288 2.779 1.073-.05 1.72a.79.79 0 0 0 .351.679 10.5 10.5 0 0 1 2.617 2.493.79.79 0 0 0 .692.318l1.721-.127 1.2 2.736-1.244 1.193a.79.79 0 0 0-.23.711 11.8 11.8 0 0 1 .094 3.642.79.79 0 0 0 .267.7l1.288 1.111-1.073 2.78-1.72-.051a.78.78 0 0 0-.679.351 10.5 10.5 0 0 1-2.493 2.617.79.79 0 0 0-.317.691l.126 1.722-2.736 1.2-1.193-1.244a.79.79 0 0 0-.711-.23 11.8 11.8 0 0 1-3.642.094.79.79 0 0 0-.7.267l-1.111 1.283-2.779-1.072.051-1.72a.79.79 0 0 0-.351-.679 10.5 10.5 0 0 1-2.621-2.494.79.79 0 0 0-.691-.317l-1.721.126-1.2-2.736 1.244-1.193a.79.79 0 0 0 .23-.711 11.8 11.8 0 0 1-.094-3.642.79.79 0 0 0-.267-.7l-1.282-1.109Zm0 0"/></svg>