<svg xmlns="http://www.w3.org/2000/svg" width="47.04" height="51.83"><path d="M16.584 19.54a2.93 2.93 0 0 0-2.116 2.3.836.836 0 1 1-1.645-.3 4.61 4.61 0 0 1 3.328-3.614 4.56 4.56 0 0 1 4.345 1.1.836.836 0 0 1-1.15 1.214 2.9 2.9 0 0 0-2.763-.7Zm27.2-5.58a23.65 23.65 0 0 0-8.555-8.45.836.836 0 0 0-.833 1.449 21.85 21.85 0 0 1-13.349 40.664l1.679-1.052a.836.836 0 1 0-.887-1.417l-3.546 2.221a.836.836 0 0 0-.138 1.309l3.006 2.91a.836.836 0 0 0 1.163-1.2l-1.107-1.073c.766.075 1.536.114 2.3.114A23.526 23.526 0 0 0 43.784 13.96M12.648 44.871A21.853 21.853 0 0 1 25.995 4.206l-1.681 1.053a.836.836 0 1 0 .887 1.417l3.546-2.221a.836.836 0 0 0 .138-1.309L25.884.235a.836.836 0 1 0-1.163 1.2l1.107 1.071a24 24 0 0 0-2.3-.113 23.526 23.526 0 0 0-20.26 35.475 23.64 23.64 0 0 0 8.555 8.45.836.836 0 0 0 .833-1.449Zm7.91-1.4a4.57 4.57 0 0 1-4.174-2.682 4.63 4.63 0 0 1-3.406-2.727 4.6 4.6 0 0 1-4.848-3.847 4.64 4.64 0 0 1-2.954-4.285 4.85 4.85 0 0 1 2.126-4.015 4.85 4.85 0 0 1-2.127-4.014 4.64 4.64 0 0 1 2.954-4.285 4.6 4.6 0 0 1 4.848-3.847 4.63 4.63 0 0 1 3.407-2.729 4.587 4.587 0 0 1 7.09-1.632v-.212a.836.836 0 0 1 .836-.836h2.263a.84.84 0 0 1 .78.536l.911 2.367a15 15 0 0 1 3.609 1.5l2.32-1.03a.84.84 0 0 1 .93.173l3.2 3.2a.84.84 0 0 1 .173.93l-1.03 2.319a15 15 0 0 1 1.5 3.611l2.366.911a.84.84 0 0 1 .536.78v4.525a.84.84 0 0 1-.536.78l-2.367.911a15 15 0 0 1-1.5 3.609l1.03 2.32a.84.84 0 0 1-.173.93l-3.2 3.2a.84.84 0 0 1-.93.173l-2.318-1.034a15 15 0 0 1-3.611 1.5l-.911 2.366a.84.84 0 0 1-.78.536H24.31a.836.836 0 0 1-.836-.836v-.212a4.57 4.57 0 0 1-2.916 1.048Zm2.636-17.556a4.59 4.59 0 0 1 1.952 3.752v3.253a7.054 7.054 0 0 0 0-14.01v3.253a4.59 4.59 0 0 1-1.952 3.752m1.952-15.883v7.2a8.727 8.727 0 0 1 0 17.374v7.2h.853l.86-2.234a.84.84 0 0 1 .587-.513 13.4 13.4 0 0 0 3.938-1.639.84.84 0 0 1 .778-.052l2.19.973 2.388-2.388-.973-2.191a.84.84 0 0 1 .052-.778 13.4 13.4 0 0 0 1.631-3.933.84.84 0 0 1 .513-.587l2.235-.86v-3.378l-2.234-.86a.84.84 0 0 1-.513-.587 13.4 13.4 0 0 0-1.631-3.934.84.84 0 0 1-.052-.778l.973-2.19-2.388-2.388-2.191.973a.84.84 0 0 1-.778-.052 13.4 13.4 0 0 0-3.934-1.631.84.84 0 0 1-.587-.513l-.86-2.235ZM10.013 25.079h7a4.6 4.6 0 0 1-.51-.764.836.836 0 0 1 1.476-.785 2.917 2.917 0 0 0 5.492-1.367v-9.215a2.916 2.916 0 1 0-5.106 1.929.836.836 0 0 1-1.255 1.1 4.6 4.6 0 0 1-1.138-3.063 2.94 2.94 0 0 0-1.612 1.977.836.836 0 0 1-1.013.621 2.8 2.8 0 0 0-2.556 4.871.836.836 0 0 1-1.073 1.282 4.6 4.6 0 0 1-1.468-2.252 2.94 2.94 0 0 0-1.4 2.486 3.176 3.176 0 0 0 3.163 3.18m10.545 16.722a2.92 2.92 0 0 0 2.916-2.912v-9.222a2.917 2.917 0 0 0-5.49-1.366.836.836 0 0 1-1.476-.785 4.6 4.6 0 0 1 .51-.764h-7a3.176 3.176 0 0 0-3.166 3.179 2.94 2.94 0 0 0 1.4 2.486 4.6 4.6 0 0 1 1.468-2.252.836.836 0 0 1 1.073 1.282 2.825 2.825 0 0 0 2.556 4.871.836.836 0 0 1 1.013.621 2.94 2.94 0 0 0 1.612 1.977 4.6 4.6 0 0 1 1.139-3.063.836.836 0 0 1 1.255 1.1 2.915 2.915 0 0 0 2.19 4.841Zm-.033-10.18a.836.836 0 0 0-1.182-.032 2.9 2.9 0 0 1-2.763.7 2.93 2.93 0 0 1-2.116-2.3.836.836 0 1 0-1.645.3 4.6 4.6 0 0 0 4.528 3.773 4.56 4.56 0 0 0 3.146-1.261.836.836 0 0 0 .032-1.182Z"/></svg>