<svg xmlns="http://www.w3.org/2000/svg" width="60" height="60"><defs><clipPath id="a"><path d="M0 0h60v60H0z"/></clipPath></defs><g fill-rule="evenodd" clip-path="url(#a)"><path d="M29.984 48.818c-9.633 0-17.52-8.434-17.52-18.817s7.888-18.818 17.52-18.818c9.668 0 17.52 8.434 17.52 18.817s-7.852 18.818-17.52 18.818m0-36.135c-8.865 0-16.124 7.8-16.124 17.318 0 9.559 7.259 17.318 16.124 17.318 8.9 0 16.124-7.759 16.124-17.318.001-9.518-7.224-17.318-16.124-17.318"/><path d="M34.061 60h-8.119a2.59 2.59 0 0 1-2.46-2.46l-.562-3.562a23.7 23.7 0 0 1-6.256-2.717c-5.448 4.113-4.429 3.929-10.193-2.13a2.77 2.77 0 0 1-.07-3.562l2.039-2.938a25 25 0 0 1-2.6-6.536c-6.678-1.1-5.8-.477-5.8-9.033a2.607 2.607 0 0 1 2.355-2.57l3.444-.551a24.5 24.5 0 0 1 2.6-6.573c-3.972-5.692-3.761-4.627 2-10.649a2.48 2.48 0 0 1 3.409-.073l2.812 2.13a23.7 23.7 0 0 1 6.256-2.717l.569-3.559a2.6 2.6 0 0 1 2.46-2.5h8.119a2.59 2.59 0 0 1 2.46 2.46l.562 3.6a23.7 23.7 0 0 1 6.256 2.717c5.448-4.149 4.429-3.929 10.193 2.093a2.77 2.77 0 0 1 .07 3.562l-2.04 2.936a26 26 0 0 1 2.6 6.536c6.643 1.1 5.8.514 5.8 9.07a2.66 2.66 0 0 1-2.355 2.57l-3.444.551a25.5 25.5 0 0 1-2.6 6.536c3.972 5.692 3.761 4.627-2 10.685a2.484 2.484 0 0 1-3.409.073l-2.812-2.13a23.7 23.7 0 0 1-6.26 2.719l-.562 3.562A2.59 2.59 0 0 1 34.061 60M16.628 49.645c.492 0 2.988 2.02 7.065 3.011a.69.69 0 0 1 .527.588l.633 4.076c.07.551.422 1.212 1.054 1.212h8.154c.668 0 .984-.661 1.09-1.212l.6-4.076a.69.69 0 0 1 .527-.588 21.6 21.6 0 0 0 6.713-2.9.66.66 0 0 1 .773.037l3.2 2.423a1.187 1.187 0 0 0 1.582.073l4.003-4.189a1.32 1.32 0 0 0-.07-1.652l-2.32-3.342a.75.75 0 0 1-.035-.808 23.6 23.6 0 0 0 2.777-7.013.685.685 0 0 1 .6-.551l3.866-.661a1.235 1.235 0 0 0 1.2-1.1v-5.911c0-.7-.633-1.028-1.2-1.138l-3.869-.624a.685.685 0 0 1-.6-.551 23.6 23.6 0 0 0-2.777-7.013.75.75 0 0 1 .035-.808l2.32-3.341a1.325 1.325 0 0 0 .07-1.652l-4.007-4.186a1.187 1.187 0 0 0-1.582.073l-3.2 2.424a.66.66 0 0 1-.773.037 20.7 20.7 0 0 0-6.713-2.9.74.74 0 0 1-.527-.624l-.6-4.039c-.105-.588-.422-1.248-1.09-1.248h-8.112c-.668 0-.984.661-1.09 1.248l-.6 4.039a.83.83 0 0 1-.562.624 20.9 20.9 0 0 0-6.678 2.9.72.72 0 0 1-.808-.037l-3.163-2.424a1.23 1.23 0 0 0-1.617-.073l-3.97 4.185a1.28 1.28 0 0 0 .07 1.652l2.32 3.341a.75.75 0 0 1 0 .808 24.6 24.6 0 0 0-2.777 7.013.65.65 0 0 1-.562.551l-3.9.624c-.527.11-1.16.441-1.16 1.138v5.912a1.23 1.23 0 0 0 1.16 1.1l3.9.661a.685.685 0 0 1 .562.551A24.6 24.6 0 0 0 9.844 42.3a.685.685 0 0 1 0 .808L7.525 46.45a1.32 1.32 0 0 0-.07 1.652l3.972 4.186a1.15 1.15 0 0 0 1.582-.11c.561-.403 3.162-2.533 3.619-2.533"/><path d="M24.481 36.403h-5.645a.76.76 0 0 1-.674-.391l-1.068-2.343H13.26a.71.71 0 1 1 0-1.42h4.3a.78.78 0 0 1 .639.391l1.065 2.343h5.219a.71.71 0 0 1-.002 1.42"/><path d="M27 39.127a3.355 3.355 0 1 1 3.372-3.372A3.34 3.34 0 0 1 27 39.127m0-5.29a1.935 1.935 0 0 0 0 3.87 1.935 1.935 0 0 0 0-3.87m19.74-6.05h-3.905a.7.7 0 0 1-.639-.426l-1.1-2.343h-5.183a.71.71 0 0 1 0-1.42h5.645a.7.7 0 0 1 .639.426l1.1 2.343h3.444a.71.71 0 0 1-.001 1.42"/><path d="M33.354 27.621a3.355 3.355 0 1 1 3.373-3.373 3.364 3.364 0 0 1-3.373 3.373m0-5.29a1.935 1.935 0 0 0 0 3.87 1.935 1.935 0 0 0 0-3.87m-8.864 2.205a.69.69 0 0 1-.71-.71v-5.609a.8.8 0 0 1 .426-.674l2.343-1.065v-3.834a.71.71 0 1 1 1.42 0v4.3a.79.79 0 0 1-.426.639L25.2 18.648v5.183a.71.71 0 0 1-.71.705"/><path d="M24.508 30.238a3.373 3.373 0 1 1 3.373-3.373 3.364 3.364 0 0 1-3.373 3.373m0-5.325a1.953 1.953 0 0 0 0 3.905 1.953 1.953 0 0 0 0-3.905m8.236 23.196a.71.71 0 0 1-.71-.71v-3.905a.67.67 0 0 1 .391-.639l2.343-1.1v-5.183a.71.71 0 0 1 1.42 0v5.645a.67.67 0 0 1-.391.639l-2.343 1.065V47.4a.71.71 0 0 1-.71.709"/><path d="M35.46 36.914a3.355 3.355 0 1 1 3.372-3.373 3.364 3.364 0 0 1-3.372 3.373m0-5.29a1.935 1.935 0 0 0 0 3.87 1.935 1.935 0 0 0 0-3.87"/></g></svg>