<svg xmlns="http://www.w3.org/2000/svg" width="53.833" height="43.414"><path d="M50.794 0H3.039A3.04 3.04 0 0 0 0 3.039v30.389a3.04 3.04 0 0 0 3.039 3.039h17.385l-1.042 2.6h-4.621a.87.87 0 0 0-.868.868v1.737h-5.21a.868.868 0 1 0 0 1.737H45.15a.868.868 0 0 0 0-1.737h-5.21V39.94a.87.87 0 0 0-.868-.868h-4.621l-1.042-2.6h17.385a3.04 3.04 0 0 0 3.039-3.039V3.039A3.04 3.04 0 0 0 50.794 0M38.2 40.809v.868H15.629v-.868Zm-16.947-1.737 1.042-2.6h9.243l1.042 2.6ZM52.1 33.428a1.3 1.3 0 0 1-1.3 1.3H3.039a1.3 1.3 0 0 1-1.3-1.3v-2.17H52.1Zm0-3.907H1.737V3.039a1.3 1.3 0 0 1 1.3-1.3h47.757a1.3 1.3 0 0 1 1.3 1.3Z"/><path d="M26.917 21.707a5.21 5.21 0 1 0-5.21-5.21 5.21 5.21 0 0 0 5.21 5.21m0-8.683a3.473 3.473 0 1 1-3.473 3.473 3.473 3.473 0 0 1 3.473-3.472Z"/><path d="M15.336 21.527c3.853 2.958 7.858 4.521 11.58 4.521s7.726-1.563 11.58-4.521a30 30 0 0 0 4.723-4.481.87.87 0 0 0 0-1.09 30 30 0 0 0-4.725-4.485c-3.851-2.962-7.855-4.525-11.575-4.525s-7.726 1.563-11.58 4.521a30 30 0 0 0-4.725 4.485.87.87 0 0 0 0 1.09 30 30 0 0 0 4.722 4.485m11.58-12.845c6.877 0 12.8 5.958 14.478 7.814-1.678 1.857-7.6 7.814-14.478 7.814s-12.8-5.958-14.478-7.814c1.681-1.856 7.601-7.813 14.481-7.813Z"/></svg>