<svg xmlns="http://www.w3.org/2000/svg" width="57.999" height="58"><g transform="translate(-3.001 -3)"><path fill-rule="evenodd" d="M38.671 9.5A5 5 0 1 0 48 12a9 9 0 0 0-16-5.654A9 9 0 0 0 16 12a5 5 0 1 0 9.33-2.5 1 1 0 0 0-1.731 1A3 3 0 1 1 18 12a7 7 0 0 1 13.126-3.388 1 1 0 0 0 1.749 0A7 7 0 0 1 46 12a3 3 0 1 1-5.6-1.5 1 1 0 0 0-1.731-1Z"/><path fill-rule="evenodd" d="M17.4 10.665A9 9 0 1 0 14 28a5 5 0 1 0-2.422-9.374 1 1 0 1 0 .971 1.749A3 3 0 1 1 14 26a7 7 0 1 1 2.643-13.483c.511.209 1.267-1.643.756-1.852Zm29.958 1.852A7 7 0 1 1 50 26a3 3 0 1 1 1.451-5.626 1 1 0 1 0 .971-1.749A5 5 0 1 0 50 28a9 9 0 1 0-3.4-17.335c-.511.209.246 2.06.756 1.852ZM21 55a3 3 0 1 0 3 3 3 3 0 0 0-3-3m0 2a1 1 0 1 1-1 1 1 1 0 0 1 1-1m-7-9a3 3 0 1 0 3 3 3 3 0 0 0-3-3m0 2a1 1 0 1 1-1 1 1 1 0 0 1 1-1m-6-9a3 3 0 1 0 3 3 3 3 0 0 0-3-3m0 2a1 1 0 1 1-1 1 1 1 0 0 1 1-1m35 12a3 3 0 1 0 3 3 3 3 0 0 0-3-3m0 2a1 1 0 1 1-1 1 1 1 0 0 1 1-1m7-9a3 3 0 1 0 3 3 3 3 0 0 0-3-3m0 2a1 1 0 1 1-1 1 1 1 0 0 1 1-1m6-9a3 3 0 1 0 3 3 3 3 0 0 0-3-3m0 2a1 1 0 1 1-1 1 1 1 0 0 1 1-1M32 55a3 3 0 1 0 3 3 3 3 0 0 0-3-3m0 2a1 1 0 1 1-1 1 1 1 0 0 1 1-1m9-31a3 3 0 0 0-3-3H26a3 3 0 0 0-3 3v12a3 3 0 0 0 3 3h12a3 3 0 0 0 3-3Zm-2 0v12a1 1 0 0 1-1 1H26a1 1 0 0 1-1-1V26a1 1 0 0 1 1-1h12a1 1 0 0 1 1 1"/><path fill-rule="evenodd" d="M36 29a1 1 0 0 0-1-1h-6a1 1 0 0 0-1 1v6a1 1 0 0 0 1 1h6a1 1 0 0 0 1-1Zm-2 1v4h-4v-4ZM7.015 22.668A7 7 0 0 0 10 36h6a1 1 0 1 0 0-2h-6a5 5 0 0 1-2.13-9.523c.5-.236-.357-2.044-.855-1.808ZM48 36h6a7 7 0 0 0 2.986-13.333c-.5-.236-1.353 1.573-.855 1.808A5 5 0 0 1 54 34h-6a1 1 0 1 0 0 2m-17 4v4a1 1 0 1 0 2 0v-4Zm0 8v8h2v-8a1 1 0 0 0-2 0m5 1h6v7h2v-8a1 1 0 0 0-1-1h-7a1 1 0 1 0 0 2m12-9h7v2h2v-3a1 1 0 0 0-1-1h-8a1 1 0 0 0 0 2m-32-2H8a1 1 0 0 0-1 1v3h2v-2h7a1 1 0 0 0 0-2m27 1.5V44a1 1 0 0 0 1 1h5v4h2v-5a1 1 0 0 0-1-1h-5v-3.5a1 1 0 1 0-2 0m-24 0V43h-5a1 1 0 0 0-1 1v5h2v-4h5a1 1 0 0 0 1-1v-4.5a1 1 0 1 0-2 0m9 7.5h-7a1 1 0 0 0-1 1v8h2v-7h6a1 1 0 1 0 0-2m-4-16h-4a1 1 0 1 0 0 2h4Zm7-11v4h2v-4a1 1 0 1 0-2 0m0-12v8a1 1 0 0 0 2 0V8a1 1 0 0 0-2 0m13 23h-4v2h4a1 1 0 1 0 0-2m-17 9v4a1 1 0 1 0 2 0v-4Zm-3-13h-4a1 1 0 1 0 0 2h4Zm3-7v4h2v-4a1 1 0 1 0-2 0m17 7h-4v2h4a1 1 0 1 0 0-2m-9 13v4a1 1 0 1 0 2 0v-4Zm-11-5h-4a1 1 0 1 0 0 2h4Zm11-15v4h2v-4a1 1 0 1 0-2 0m9 15h-4v2h4a1 1 0 1 0 0-2"/><circle cx="1" cy="1" r="1" transform="translate(13 57.001)"/><circle cx="1" cy="1" r="1" transform="translate(49 57.001)"/><circle cx="1" cy="1" r="1" transform="translate(13 6)"/><circle cx="1" cy="1" r="1" transform="translate(49 6)"/></g></svg>