<svg xmlns="http://www.w3.org/2000/svg" width="55.849" height="55.85"><path d="M4.878 31.985a.818.818 0 1 0-.443 1.069.827.827 0 0 0 .443-1.069m2.595.516a.817.817 0 1 0 .954.606.826.826 0 0 0-.954-.606m3.5.569a.818.818 0 1 0 .954.606.826.826 0 0 0-.954-.606m-6.096 7.194a.818.818 0 1 0-.443 1.068.826.826 0 0 0 .443-1.068m3.506 1.005a.817.817 0 1 0-.443 1.068.826.826 0 0 0 .443-1.068m2.75.065a.818.818 0 1 0 .819.818.827.827 0 0 0-.819-.818m-6.331 7.331a.818.818 0 1 0-.257 1.154.826.826 0 0 0 .257-1.154m2.666.656a.818.818 0 1 0 .947.583.83.83 0 0 0-.947-.583m4.243 1.951a.818.818 0 1 0-1.157 0 .83.83 0 0 0 1.157 0"/><path d="M55.448 43.428 37.766 13.221l1.669-.984a2.03 2.03 0 0 0 .983-1.981l12.729-7.5a1.44 1.44 0 0 0-.58-2.641 28.5 28.5 0 0 0-6.079.105.818.818 0 0 0 .192 1.625 28 28 0 0 1 5.056-.157l-12 7.068-2.577-4.408a39 39 0 0 1 6.335-1.967.818.818 0 1 0-.346-1.6 41 41 0 0 0-6.9 2.172 2.01 2.01 0 0 0-2.21-.352q-.965.445-1.93.942l-.452-.772a2.97 2.97 0 0 0-4.01-1.044 2.94 2.94 0 0 0-1.052 4.01l.457.781q-.9.607-1.768 1.246a2.02 2.02 0 0 0-.758 2.112 39.3 39.3 0 0 0-8.4 9.24A32.1 32.1 0 0 0 4.643 20.56C.805 21.895 0 23.584 0 24.767v25.408c0 1.884 2.035 3.5 5.732 4.549a.818.818 0 0 0 .447-1.574c-2.76-.783-4.543-1.955-4.543-2.975v-5.754a11.2 11.2 0 0 0 3.007 1.492 32.1 32.1 0 0 0 10.151 1.468 32.1 32.1 0 0 0 10.152-1.468 11.2 11.2 0 0 0 3.007-1.492v5.754c0 1.687-5.006 4.039-13.159 4.039a37 37 0 0 1-4.95-.321.818.818 0 0 0-.219 1.622 39 39 0 0 0 5.169.335 32.1 32.1 0 0 0 10.152-1.468c3.838-1.333 4.648-3.023 4.648-4.207V24.767c0-1.948-2.147-3.586-5.965-4.616l5.222-3.077a2.05 2.05 0 0 0 2.206.1l1.666-.982 17.671 30.203a2.929 2.929 0 1 0 5.051-2.966ZM28.01 4.91a1.3 1.3 0 0 1 .46-1.774 1.313 1.313 0 0 1 1.767.461l.42.717q-.582.323-1.159.663-.539.317-1.069.648Zm-2.716 6.447 2.572 4.393-11.97 7.053a35.6 35.6 0 0 1 9.4-11.446Zm2.655 21.88c0 1.687-5.006 4.039-13.159 4.039S1.636 34.923 1.636 33.237v-5.755a11.2 11.2 0 0 0 3.007 1.492 32.1 32.1 0 0 0 10.151 1.468 32.1 32.1 0 0 0 10.152-1.468 11.2 11.2 0 0 0 3.007-1.492v5.755ZM14.794 45.745c-8.153 0-13.159-2.352-13.159-4.039v-5.755a11.2 11.2 0 0 0 3.007 1.492 32.1 32.1 0 0 0 10.152 1.469 32.1 32.1 0 0 0 10.152-1.468 11.2 11.2 0 0 0 3.007-1.492v5.755c.001 1.688-5.005 4.038-13.159 4.038m13.16-20.978c0 1.687-5.006 4.039-13.159 4.039S1.636 26.454 1.636 24.767c0-1.522 2.763-2.395 3.816-2.75a29.8 29.8 0 0 1 9.7-1.286c-.434.768-.776 1.45-1.038 2.018a1.435 1.435 0 0 0 2.01 1.822l5.461-3.217c4.371.872 6.369 2.369 6.369 3.413m2.269-9a.385.385 0 0 1-.528-.139L26.16 9.595a.39.39 0 0 1 .1-.511 47 47 0 0 1 4.068-2.691 49 49 0 0 1 4.387-2.3.386.386 0 0 1 .489.159l3.539 6.043a.393.393 0 0 1-.138.536Zm23.353 30.262a1.313 1.313 0 0 1-1.767-.461l-17.68-30.2 2.227-1.312 17.68 30.2a1.3 1.3 0 0 1-.46 1.773"/><path d="M12.208 5.675V8.85a1.9 1.9 0 0 0 .559 1.35l3.207 3.207a.818.818 0 0 0 1.157-1.157l-3.207-3.207a.27.27 0 0 1-.08-.193V5.692a2.9 2.9 0 1 0-1.636-.017m.849-4.039A1.265 1.265 0 1 1 11.791 2.9a1.266 1.266 0 0 1 1.266-1.264M2.901 18.826a2.91 2.91 0 0 0 2.783-2.083h8.778a.818.818 0 1 0 0-1.636H5.683A2.9 2.9 0 1 0 2.9 18.826Zm0-4.165a1.264 1.264 0 1 1-1.264 1.264 1.266 1.266 0 0 1 1.264-1.264"/></svg>