<svg xmlns="http://www.w3.org/2000/svg" width="61.313" height="55.85"><path fill="#212326" fill-rule="evenodd" d="M41.288 17.771a3.433 3.433 0 0 1 .065 6.865 3.44 3.44 0 0 1-3.466-3.4 3.44 3.44 0 0 1 3.4-3.466Zm0 1.632a1.8 1.8 0 0 0-1.772 1.834 1.8 1.8 0 0 0 1.838 1.768 1.8 1.8 0 0 0-.066-3.6Zm9.137 12.036a3.6 3.6 0 0 1 6.171 2.475 3.6 3.6 0 0 1-3.559 3.632 3.6 3.6 0 0 1-3.632-3.559 3.58 3.58 0 0 1 1.02-2.544Zm2.549.541a1.97 1.97 0 0 0-1.943 2 1.967 1.967 0 0 0 2 1.934 1.967 1.967 0 0 0 1.934-2 1.967 1.967 0 0 0-1.99-1.934Zm2.042-2.943c-.454-.187-.967-.213-1.091-.8l-.209-.971-1.5.019-.171.9c-.1.636-.609.653-1.1.857-.452.189-.834.529-1.329.211l-.838-.54-1.044 1.07.532.782c.354.51.006.89-.186 1.359s-.213.967-.8 1.091l-.97.209.019 1.495.9.172c.636.1.653.609.857 1.1.189.452.529.834.211 1.329l-.54.838 1.07 1.044.782-.532c.51-.354.89-.006 1.359.186s.967.213 1.091.8l.209.97 1.511-.021.172-.9c.1-.636.609-.653 1.1-.857.452-.189.834-.529 1.329-.211l.838.541 1.04-1.073-.532-.782c-.354-.51-.006-.89.186-1.359s.213-.967.8-1.091l.97-.209-.019-1.495-.9-.172c-.636-.1-.653-.609-.857-1.1-.189-.452-.529-.834-.211-1.329l.54-.838-1.077-1.04-.782.532c-.51.354-.89.006-1.359-.186Zm.4-1.588-.252-1.167a.81.81 0 0 0-.8-.644l-2.785.035a.814.814 0 0 0-.833.663l-.214 1.129-.417.175-1.006-.649a.814.814 0 0 0-1.021.114l-1.951 2a.814.814 0 0 0-.112 1.05l.648.952-.171.417-1.167.252a.81.81 0 0 0-.644.8l.035 2.785a.814.814 0 0 0 .663.833l1.129.214.175.417-.649 1.007a.814.814 0 0 0 .118 1.023l2 1.951a.815.815 0 0 0 1.05.112l.952-.648.417.171.252 1.167a.81.81 0 0 0 .8.644l2.785-.035a.814.814 0 0 0 .833-.663l.214-1.129.417-.175 1.006.655a.814.814 0 0 0 1.023-.118l1.951-2a.814.814 0 0 0 .112-1.05l-.648-.952.171-.417 1.167-.252a.81.81 0 0 0 .644-.8l-.035-2.785a.814.814 0 0 0-.663-.833l-1.122-.218-.175-.417.649-1.006a.814.814 0 0 0-.118-1.023l-2-1.952a.814.814 0 0 0-1.05-.112l-.952.649-.417-.171ZM31.7 40.905a4.813 4.813 0 0 1 8.257 3.3 4.814 4.814 0 0 1-4.76 4.862 4.811 4.811 0 0 1-3.497-8.162m3.4.174a3.184 3.184 0 1 0 .09 6.368 3.184 3.184 0 0 0 3.134-3.231 3.184 3.184 0 0 0-3.221-3.135Zm-.281-24.459H1.632v8.747h32.975a.8.8 0 0 1 .125-.522l.6-.926-.146-.346-1.036-.2a.814.814 0 0 1-.663-.833l-.033-2.619a.81.81 0 0 1 .644-.8l1.073-.231.142-.346-.6-.874a.814.814 0 0 1 .109-1.047Zm2.04 8.938.551.538.7-.479c.5-.35.871-.016 1.325.17s.933.206 1.056.783l.189.875 1.329-.017.153-.81c.1-.629.588-.646 1.062-.844.443-.185.807-.509 1.3-.194l.756.488.928-.952-.479-.7c-.35-.5-.016-.871.17-1.325s.206-.933.783-1.056l.875-.189-.016-1.329-.81-.153c-.629-.1-.646-.588-.844-1.062-.185-.443-.509-.807-.194-1.3l.488-.756-.952-.928-.7.479c-.5.35-.871.016-1.325-.17s-.933-.206-1.056-.783l-.189-.875-1.329.016-.153.81c-.1.629-.588.646-1.062.844-.443.185-.806.509-1.3.194l-.756-.488-.928.952.479.7c.35.5.016.871-.17 1.325s-.207.933-.783 1.056l-.875.189.017 1.329.81.153c.629.1.646.588.844 1.062.185.443.509.807.194 1.3l-.488.756zM3.856 20.077H3.04v-1.632h1.784v1.632Zm0 3.46H3.04v-1.632h1.784v1.632Zm2.7-3.46H5.74v-1.632h1.784v1.632Zm0 3.46H5.74v-1.632h1.784v1.632Zm2.7-3.46h-.818v-1.632h1.784v1.632Zm0 3.46h-.818v-1.632h1.784v1.632Zm2.7-3.46h-.818v-1.632h1.784v1.632Zm0 3.46h-.818v-1.632h1.784v1.632Zm2.7-3.46h-.816v-1.632h1.784v1.632Zm0 3.46h-.816v-1.632h1.784v1.632Zm2.562-3.46h-.816v-1.632h1.784v1.632Zm0 3.46h-.816v-1.632h1.784v1.632Zm10.108-1.38a1.166 1.166 0 1 1 .836-.335 1.17 1.17 0 0 1-.84.334Zm4.345 0a1.166 1.166 0 1 1 .836-.335 1.17 1.17 0 0 1-.84.334Zm9.008 12.448v-2.622H1.632v8.747h24.569l.253-.585-1.045-1.535a.814.814 0 0 1 .112-1.05l2.814-2.885a.814.814 0 0 1 1.023-.118l1.612 1.04.938-.394.346-1.821a.814.814 0 0 1 .833-.664l4.021-.05a.81.81 0 0 1 .8.644l.4 1.871.94.385zm-13.113 7.129a8 8 0 0 1 .548-1.263.81.81 0 0 0-.053-.857l-.933-1.37 1.907-1.955 1.447.934a.81.81 0 0 0 .871.006 8.2 8.2 0 0 1 1.5-.619.82.82 0 0 0 .575-.67l.3-1.6 2.731-.034.362 1.679a.81.81 0 0 0 .616.626 8 8 0 0 1 1.495.622.82.82 0 0 0 .857-.053l1.369-.933 1.955 1.907-.932 1.451a.81.81 0 0 0-.006.871 8.2 8.2 0 0 1 .619 1.5.82.82 0 0 0 .67.575l1.6.3.034 2.731-1.68.362a.82.82 0 0 0-.626.616 8 8 0 0 1-.621 1.495.81.81 0 0 0 .053.857l.933 1.369-1.907 1.955-1.448-.934a.81.81 0 0 0-.871-.006 8.2 8.2 0 0 1-1.5.619.82.82 0 0 0-.575.67l-.3 1.6-2.731.034-.362-1.679a.82.82 0 0 0-.6-.622 8 8 0 0 1-1.51-.625.81.81 0 0 0-.857.053l-1.37.933-1.955-1.909.934-1.448a.81.81 0 0 0 .006-.871 8.2 8.2 0 0 1-.619-1.5.82.82 0 0 0-.67-.575l-1.6-.3-.034-2.733 1.68-.362a.81.81 0 0 0 .626-.616zm-23.71-6.29H3.04v-1.632h1.784v1.632Zm0 3.46H3.04v-1.632h1.784v1.633Zm2.7-3.46H5.74v-1.632h1.784v1.632Zm0 3.46H5.74v-1.632h1.784v1.633Zm2.7-3.46h-.818v-1.632h1.784v1.632Zm0 3.46h-.818v-1.632h1.784v1.633Zm2.7-3.46h-.818v-1.632h1.784v1.632Zm0 3.46h-.818v-1.632h1.784v1.633Zm2.7-3.46h-.816v-1.632h1.784v1.632Zm0 3.46h-.816v-1.632h1.784v1.633Zm2.562-3.46h-.816v-1.632h1.784v1.632Zm0 3.46h-.816v-1.632h1.784v1.633Zm19.142-8.552H5.96v-3.356h30.049l.348.34v3.016Zm4.322-28.72H1.632v8.747h39.047Zm-4.325 10.379v2.974h-30.4v-2.974ZM.816.005A.816.816 0 0 0 0 .821v10.375a.816.816 0 0 0 .816.816h3.506v2.973H.816a.816.816 0 0 0-.816.816V26.18a.816.816 0 0 0 .816.816h3.506v3.356H.816a.816.816 0 0 0-.816.816v10.38a.816.816 0 0 0 .816.816h22.739l.049 3.953a.814.814 0 0 0 .663.833l1.822.346.394.938-1.04 1.612a.814.814 0 0 0 .118 1.023l2.886 2.814a.815.815 0 0 0 1.05.112l1.535-1.045.94.386.4 1.87a.81.81 0 0 0 .8.644l4.021-.05a.814.814 0 0 0 .833-.663l.346-1.822.938-.394 1.612 1.04a.814.814 0 0 0 1.023-.118l2.814-2.885a.814.814 0 0 0 .112-1.05l-1.045-1.535.385-.94 1.871-.4a.81.81 0 0 0 .644-.8l-.038-4.028a.814.814 0 0 0-.663-.833l-1.822-.346-.394-.938 1.04-1.612a.814.814 0 0 0-.118-1.023l-2.418-2.359v-3.926a.816.816 0 0 0-.816-.816h-3.509v-2.68l.666-.454.346.142.231 1.073a.81.81 0 0 0 .8.644l2.619-.033a.814.814 0 0 0 .833-.663l.2-1.036.346-.145.926.6a.814.814 0 0 0 1.023-.118l1.836-1.882a.814.814 0 0 0 .112-1.05l-.6-.874.142-.346 1.073-.231a.81.81 0 0 0 .644-.8l-.033-2.619a.814.814 0 0 0-.663-.833l-1.036-.2-.146-.346.6-.926a.814.814 0 0 0-.118-1.023l-1.876-1.847a.815.815 0 0 0-1.05-.112l-.874.6-.346-.142-.231-1.073a.81.81 0 0 0-.8-.644l-2.624.033a.814.814 0 0 0-.833.663l-.2 1.036-.347.146-.621-.4v-2.8h3.506a.816.816 0 0 0 .816-.816V.816A.816.816 0 0 0 41.493 0Zm3.04 5.091H3.04V3.46h1.784v1.632Zm0 3.46H3.04V6.92h1.784v1.632Zm2.7-3.46H5.74V3.46h1.784v1.632Zm0 3.46H5.74V6.92h1.784v1.632Zm2.7-3.46h-.818V3.46h1.784v1.632Zm0 3.46h-.818V6.92h1.784v1.632Zm2.7-3.46h-.818V3.46h1.784v1.632Zm0 3.46h-.818V6.92h1.784v1.632Zm2.7-3.46h-.816V3.46h1.784v1.632Zm0 3.46h-.816V6.92h1.784v1.632Zm2.562-3.46h-.816V3.46h1.784v1.632Zm0 3.46h-.816V6.92h1.784v1.632Zm10.108-1.38a1.166 1.166 0 1 1 .836-.335 1.17 1.17 0 0 1-.84.33Zm4.345 0a1.166 1.166 0 1 1 .836-.335 1.17 1.17 0 0 1-.84.33Zm4.345 0a1.166 1.166 0 1 1 .836-.335 1.17 1.17 0 0 1-.836.335"/></svg>