<svg xmlns="http://www.w3.org/2000/svg" width="53.833" height="55.925"><path d="M6.497 9.281h9.282a.928.928 0 0 0 0-1.856H6.497a.928.928 0 1 0 0 1.856m16.707 3.713H6.497a.928.928 0 1 0 0 1.856h16.707a.928.928 0 0 0 0-1.856m-1.856 5.569H6.497a.928.928 0 0 0 0 1.856h14.85a.928.928 0 0 0 0-1.856Zm0 5.569H6.497a.928.928 0 1 0 0 1.856h14.85a.928.928 0 1 0 0-1.856Zm0 5.569H6.497a.928.928 0 1 0 0 1.856h14.85a.928.928 0 1 0 0-1.856Zm0 0"/><path d="M53.821 25a1 1 0 0 0-.048-.238q-.014-.044-.03-.087a.9.9 0 0 0-.186-.272l-7.425-7.425a.9.9 0 0 0-.278-.186q-.039-.015-.079-.028a1 1 0 0 0-.252-.05c-.018 0-.034-.01-.051-.01H29.701V8.353c0-.02-.01-.038-.012-.058a1 1 0 0 0-.048-.238q-.014-.044-.03-.087a.9.9 0 0 0-.186-.27L22 .272a.9.9 0 0 0-.273-.186q-.041-.016-.082-.029a1 1 0 0 0-.249-.049c-.011.001-.03-.008-.048-.008H4.641A4.647 4.647 0 0 0 0 4.641v29.7a4.647 4.647 0 0 0 4.641 4.641h19.491v12.066a4.647 4.647 0 0 0 4.641 4.641h20.419a4.646 4.646 0 0 0 4.641-4.641V25.06c0-.02-.01-.038-.012-.058Zm-3.157-.87h-3.328a.93.93 0 0 1-.928-.928v-3.327ZM26.533 7.425h-3.329a.93.93 0 0 1-.928-.928V3.169ZM4.641 37.126a2.785 2.785 0 0 1-2.784-2.784V4.641a2.785 2.785 0 0 1 2.784-2.785H20.42V6.5a2.785 2.785 0 0 0 2.784 2.784h4.641V16.8a.2.2 0 0 0-.048.015 4.6 4.6 0 0 0-.773.24c-.093.036-.171.085-.257.127a5 5 0 0 0-.492.268c-.093.06-.177.127-.266.192a5 5 0 0 0-.4.329 5 5 0 0 0-.237.242 4 4 0 0 0-.323.392q-.1.139-.194.279a5 5 0 0 0-.249.458c-.048.1-.1.195-.139.3a5 5 0 0 0-.172.552c-.024.093-.056.179-.074.279a4.6 4.6 0 0 0-.092.878v15.775Zm44.551 16.707H28.773a2.785 2.785 0 0 1-2.788-2.785v-29.7a2.785 2.785 0 0 1 2.784-2.784h15.783V23.2a2.785 2.785 0 0 0 2.784 2.784h4.641v25.06a2.784 2.784 0 0 1-2.785 2.789m0 0"/><path d="M30.629 25.988h9.282a.928.928 0 0 0 0-1.856h-9.282a.928.928 0 1 0 0 1.856m0 5.569h16.707a.928.928 0 0 0 0-1.856H30.629a.928.928 0 1 0 0 1.856m0 5.569h16.707a.928.928 0 0 0 0-1.856H30.629a.928.928 0 1 0 0 1.856m0 5.569h16.707a.928.928 0 0 0 0-1.856H30.629a.928.928 0 1 0 0 1.856m15.779 4.641a.93.93 0 0 0-.928-.928H30.63a.928.928 0 1 0 0 1.856h14.85a.93.93 0 0 0 .928-.928M33.486 5.926a.9.9 0 0 0 .2.3l3.937 3.936a.928.928 0 1 0 1.312-1.312l-2.354-2.353h8.9a2.784 2.784 0 0 1 2.784 2.784v6.5a.928.928 0 0 0 1.856 0v-6.5A4.646 4.646 0 0 0 45.48 4.64h-8.9l2.354-2.353A.928.928 0 1 0 37.622.975l-3.937 3.936a.93.93 0 0 0-.2 1.014ZM20.348 50.692a.9.9 0 0 0-.2-.3l-3.937-3.936a.928.928 0 1 0-1.312 1.312l2.354 2.353h-8.9a2.785 2.785 0 0 1-2.784-2.784v-5.569a.928.928 0 1 0-1.856 0v5.571a4.647 4.647 0 0 0 4.641 4.641h8.9l-2.357 2.35a.928.928 0 1 0 1.312 1.312l3.937-3.937a.93.93 0 0 0 .2-1.014Zm28.845-4.284a.93.93 0 0 0-.928.928v1.856a.93.93 0 0 1-.928.928h-1.856a.928.928 0 0 0 0 1.856h1.855a2.784 2.784 0 0 0 2.784-2.784v-1.856a.93.93 0 0 0-.927-.928m0 0"/></svg>