<svg xmlns="http://www.w3.org/2000/svg" data-name="Layer 1" viewBox="0 0 512 512"><path d="m498.3 377.96-36.86-15.33s-.03-.01-.05-.02l-59.68-24.83s-.03-.01-.04-.02-.03-.01-.04-.02c-.17-.07-.34-.13-.52-.19-.07-.02-.13-.03-.2-.05-.12-.03-.24-.07-.37-.09l-.37-.06c-.07 0-.14-.02-.21-.03-.19-.02-.38-.03-.56-.03h-8.72V33.16c0-3.31-2.69-6-6-6H194.54q-.3 0-.6.03c-.15.02-.3.04-.45.07-.04 0-.09.01-.13.02-.18.04-.35.08-.52.13-.01 0-.03 0-.04.01-.18.05-.35.12-.51.18-.01 0-.02 0-.04.01-.16.07-.31.14-.47.22l-.06.03c-.14.08-.28.16-.41.25l-.09.06c-.13.09-.25.18-.38.28-.03.02-.06.05-.09.07-.15.13-.3.26-.44.4l-80.41 80.39c-.14.14-.27.29-.4.44-.03.03-.05.07-.08.11-.09.12-.19.24-.27.37-.03.04-.05.08-.07.12-.08.13-.16.26-.23.39-.02.03-.03.06-.04.09-.07.14-.15.29-.21.44 0 .02-.02.04-.02.07-.06.16-.12.32-.17.49 0 .02-.01.05-.02.07-.05.16-.09.33-.12.49-.01.05-.01.1-.02.15-.02.14-.05.28-.06.43q-.03.3-.03.6V278.3c-3.64.18-7.27.54-10.88 1.11a6 6 0 0 0-5.02 5.12l-1.58 11.7c-7.58 2.01-14.81 5-21.57 8.93l-9.4-7.15a5.985 5.985 0 0 0-7.17-.07 104 104 0 0 0-22.75 22.75 6.02 6.02 0 0 0 .07 7.17l7.15 9.39a87.4 87.4 0 0 0-8.93 21.57l-11.7 1.59c-2.63.36-4.71 2.4-5.12 5.02a104 104 0 0 0 0 32.18 6 6 0 0 0 5.12 5.02l11.7 1.58c2.01 7.58 5 14.8 8.93 21.57l-7.15 9.39a5.985 5.985 0 0 0-.07 7.17c6.37 8.73 14.02 16.38 22.75 22.75a6.02 6.02 0 0 0 7.17-.07l9.39-7.15c6.77 3.93 14 6.92 21.57 8.93l1.58 11.7c.36 2.63 2.4 4.71 5.02 5.12 5.34.84 10.72 1.25 16.09 1.25s10.75-.42 16.09-1.25a6 6 0 0 0 5.02-5.12l1.58-11.7c7.58-2.01 14.8-5 21.57-8.93l9.4 7.15a5.985 5.985 0 0 0 7.17.07c8.73-6.37 16.38-14.02 22.75-22.75a6.02 6.02 0 0 0-.07-7.17l-4.15-5.45h206.66c.2 0 .41-.01.61-.03.19-.02.38-.05.56-.09.11-.02.22-.05.33-.08l.24-.06c.17-.05.34-.11.5-.18.02 0 .03-.01.05-.02s.03-.01.04-.02l96.59-40.18c2.24-.93 3.7-3.12 3.7-5.54s-1.46-4.61-3.7-5.54zm-320.35-77.14c-1.24-.99-2.49-1.96-3.77-2.9a6.02 6.02 0 0 0-7.17.07l-7.15 5.45v-57.56h18.1v54.94zm56.85 36.48h-18.1V225.13h18.1zm158.56 12v28.2H216.63c-.16-4.04-.55-8.08-1.18-12.09a6 6 0 0 0-5.12-5.02l-11.7-1.58q-1.29-4.86-3.12-9.51zm-107.3-12h-18.1v-66.51h18.1zm51.25 0h-18.1V194.23h18.1zm-126.98 65.3c2.63-.36 4.71-2.4 5.12-5.02.42-2.69.74-5.39.94-8.09h176.97v28.2H193.84c1.96-4.36 3.56-8.87 4.79-13.51l11.7-1.59zm195.03-50.31 47.72 19.85v22.71l-47.72 19.85zm-26.69-14.99h-29.35V188.23c0-3.31-2.69-6-6-6h-30.1c-3.31 0-6 2.69-6 6V337.3h-9.16v-72.51c0-3.31-2.69-6-6-6h-30.1c-3.31 0-6 2.69-6 6v72.51h-9.16V219.13c0-3.31-2.69-6-6-6h-30.1c-3.31 0-6 2.69-6 6V337.3h-14.65c-.1 0-.2.01-.31.02a.3.3 0 0 1-.04-.08l7.16-9.4a5.985 5.985 0 0 0 .07-7.17c-2.17-2.98-4.51-5.83-6.98-8.55v-72.25c0-3.31-2.69-6-6-6h-30.1c-3.31 0-6 2.69-6 6v60.4a90 90 0 0 0-11.81-4.06l-1.58-11.7a6 6 0 0 0-5.02-5.12c-3.09-.48-6.19-.81-9.3-1.02V119.56h74.4c3.31 0 6-2.69 6-6v-74.4h178.13v298.13zM128.63 107.56l59.92-59.92v59.92zm42 345.12-9.02-6.87a6 6 0 0 0-6.9-.26 75.5 75.5 0 0 1-25.32 10.48 6 6 0 0 0-4.69 5.06l-1.52 11.23c-6.54.71-13.12.71-19.66 0L102 461.09a6 6 0 0 0-4.69-5.06 75.5 75.5 0 0 1-25.33-10.48 6 6 0 0 0-6.89.26l-9.01 6.86a92.3 92.3 0 0 1-13.9-13.9l6.86-9.02a5.99 5.99 0 0 0 .26-6.89 75.3 75.3 0 0 1-10.48-25.33 6 6 0 0 0-5.06-4.69l-11.23-1.52c-.71-6.54-.71-13.12 0-19.66l11.23-1.52a5.99 5.99 0 0 0 5.06-4.69 75.7 75.7 0 0 1 10.48-25.33 6.005 6.005 0 0 0-.26-6.89l-6.86-9.02c4.12-5.12 8.78-9.77 13.9-13.9l9.02 6.87a5.99 5.99 0 0 0 6.89.26 75.5 75.5 0 0 1 25.33-10.48 6 6 0 0 0 4.69-5.06l1.52-11.23c6.54-.7 13.12-.7 19.66 0l1.52 11.23a5.99 5.99 0 0 0 4.69 5.06 75.7 75.7 0 0 1 25.33 10.48 6 6 0 0 0 6.9-.26l9.02-6.87c5.12 4.13 9.78 8.78 13.9 13.9l-6.87 9.02a5.99 5.99 0 0 0-.26 6.89 75.5 75.5 0 0 1 10.48 25.33 6 6 0 0 0 5.06 4.69l11.23 1.52c.71 6.54.71 13.12 0 19.66l-11.23 1.52a6 6 0 0 0-5.06 4.69c-1.94 9.05-5.46 17.58-10.48 25.33a6.005 6.005 0 0 0 .26 6.89l6.86 9.01a91.8 91.8 0 0 1-13.9 13.9zm294.46-62.82v-12.72l15.29 6.36zM79.48 347.62c-9.05 9.05-14.03 21.08-14.03 33.87s4.98 24.82 14.03 33.87c9.34 9.34 21.6 14.01 33.87 14.01s24.53-4.67 33.87-14.01c18.68-18.68 18.68-49.07 0-67.74-18.68-18.68-49.07-18.68-67.74 0m59.26 59.26c-14 14-36.78 14-50.77 0-6.78-6.78-10.52-15.8-10.52-25.39s3.73-18.61 10.52-25.39c7-7 16.19-10.5 25.39-10.5s18.39 3.5 25.39 10.5c14 14 14 36.78 0 50.77zM270.38 62.32c0-3.31 2.69-6 6-6h63.77c3.31 0 6 2.69 6 6s-2.69 6-6 6h-63.77c-3.31 0-6-2.69-6-6m-35.57 0c0-3.31 2.69-6 6-6h9.48c3.31 0 6 2.69 6 6s-2.69 6-6 6h-9.48c-3.31 0-6-2.69-6-6m0 33.57c0-3.31 2.69-6 6-6h9.48c3.31 0 6 2.69 6 6s-2.69 6-6 6h-9.48c-3.31 0-6-2.69-6-6m0 33.57c0-3.31 2.69-6 6-6h9.48c3.31 0 6 2.69 6 6s-2.69 6-6 6h-9.48c-3.31 0-6-2.69-6-6m35.57-33.57c0-3.31 2.69-6 6-6h63.77c3.31 0 6 2.69 6 6s-2.69 6-6 6h-63.77c-3.31 0-6-2.69-6-6m0 33.58c0-3.31 2.69-6 6-6h63.77c3.31 0 6 2.69 6 6s-2.69 6-6 6h-63.77c-3.31 0-6-2.69-6-6"/></svg>