<svg xmlns="http://www.w3.org/2000/svg" width="66.726" height="58"><path d="M3.593 34.9a1.03 1.03 0 0 0 .3.726l2.29 2.29a10.2 10.2 0 0 0 2.729 7.344l10.923 10.928c1.06 1.059 1.932 1.809 3.518 1.809s2.458-.75 3.518-1.809l3.88-3.881a1.026 1.026 0 0 0 .154-1.254l-1.377-2.295h2.278a2.07 2.07 0 0 0 2.068-2.069v-1.4a.13.13 0 0 1 .128-.128h2.951a1.82 1.82 0 0 0 2.053-2.053 9.5 9.5 0 0 0-1.128-3.535c-.214-.47-.435-.956-.61-1.4a6.5 6.5 0 0 1 .615-5.9c.47-.537 2.15-2.928 2.15-9.7 0-18.708-16.193-20-16.357-20.016a1.03 1.03 0 0 0-1 .587l-.692 1.471-.733-.733a1.03 1.03 0 0 0-.726-.3h-3.681L13.552.29A1.027 1.027 0 0 0 12.1 1.742l3.593 3.593a1.03 1.03 0 0 0 .726.3H20.1l.955.955-2.485 5.281a1.026 1.026 0 0 0 .3 1.246 9.67 9.67 0 0 1 3.712 7.917A10.277 10.277 0 0 1 12.316 31.3a10.7 10.7 0 0 1-2.8-.475 1.03 1.03 0 0 0-1.208.552l-1.2 2.549a10 10 0 0 0-.544 1.465l-.924-.924V30.8a1.03 1.03 0 0 0-.3-.726l-3.593-3.593a1.027 1.027 0 0 0-1.452 1.452l3.292 3.292Zm5.38-.093.833-1.777a11 11 0 0 0 2.513.33 12.333 12.333 0 0 0 12.319-12.319 11.86 11.86 0 0 0-3.868-9l3.456-7.343c2.9.434 13.757 3.051 13.757 17.886 0 6.482-1.623 8.325-1.62 8.325a1 1 0 0 0-.142.17 8.55 8.55 0 0 0-.861 7.849c.2.5.428 1.009.653 1.5a9 9 0 0 1 .944 2.684h-2.956a2.184 2.184 0 0 0-2.181 2.181l-.015 1.411h-4.091a1.027 1.027 0 0 0-.88 1.555l1.9 3.162-3.313 3.314c-.936.936-1.321 1.208-2.066 1.208s-1.13-.272-2.066-1.208l-10.9-10.906a8.15 8.15 0 0 1-2.142-6.25 7.9 7.9 0 0 1 .727-2.773Z"/><path d="M4.642 21.492a7.694 7.694 0 1 0 8.124-8.124l-5.365-5.37A1.027 1.027 0 1 0 5.949 9.45l4.208 4.208a7.72 7.72 0 0 0-5.221 5.221l-3.183-3.181A1.027 1.027 0 1 0 .301 17.15Zm7.677-6.094a5.646 5.646 0 1 1-5.646 5.646 5.65 5.65 0 0 1 5.646-5.646m18.005 19.463a1.027 1.027 0 0 0 1.453-1.451l-2.61-2.614h3.683a1.027 1.027 0 0 0 0-2.053h-6.16a1.026 1.026 0 0 0-.726 1.752Zm17.543 18.652a1.027 1.027 0 1 0 1.452 1.452 13.84 13.84 0 0 0 0-19.591 1.026 1.026 0 1 0-1.452 1.451 11.786 11.786 0 0 1 0 16.688"/><path d="M44.604 51.7a1.026 1.026 0 0 0 1.451 0 9.23 9.23 0 0 0 0-13.06 1.026 1.026 0 0 0-1.454 1.449 7.177 7.177 0 0 1 0 10.161 1.026 1.026 0 0 0 .003 1.45"/><path d="M41.337 48.435a1.026 1.026 0 0 0 1.452 0 4.62 4.62 0 0 0 0-6.533 1.027 1.027 0 0 0-1.452 1.452 2.57 2.57 0 0 1 0 3.63 1.026 1.026 0 0 0 0 1.451m22.31-35.603h-15.4a3.083 3.083 0 0 0-3.08 3.08v4.754a17 17 0 0 1-1.583 7.136l-.778 1.666a2.037 2.037 0 0 0 2.667 2.732l2.321-1.015a16.8 16.8 0 0 1 6.764-1.415h9.087a3.083 3.083 0 0 0 3.08-3.08V15.912a3.083 3.083 0 0 0-3.078-3.08m1.026 13.859a1.03 1.03 0 0 1-1.026 1.026H54.56a18.8 18.8 0 0 0-7.587 1.587l-2.29 1 .763-1.636a19.1 19.1 0 0 0 1.776-8v-4.754a1.03 1.03 0 0 1 1.026-1.026h15.4a1.03 1.03 0 0 1 1.026 1.026Z"/></svg>