<svg xmlns="http://www.w3.org/2000/svg" width="53.08" height="53.079"><path d="m32.053 33.278.554.306a1.836 1.836 0 0 0 2.439-.639l1.521-2.509a1.7 1.7 0 0 0 .191-1.341 1.75 1.75 0 0 0-.856-1.088l-.58-.31a8 8 0 0 0 .083-1.157c0-.384-.028-.771-.051-1.165l.549-.3a1.75 1.75 0 0 0 .856-1.087 1.7 1.7 0 0 0-.191-1.34l-1.517-2.512a1.837 1.837 0 0 0-2.439-.638l-.553.306a.16.16 0 0 1-.159-.029 9 9 0 0 0-1.958-1.087.2.2 0 0 1-.078-.051v-.605a1.784 1.784 0 0 0-1.807-1.766h-3.034a1.784 1.784 0 0 0-1.8 1.761v.6a.16.16 0 0 1-.08.058 9 9 0 0 0-1.958 1.087.16.16 0 0 1-.158.029l-.554-.306a1.836 1.836 0 0 0-2.439.639l-1.517 2.51a1.7 1.7 0 0 0-.191 1.341 1.75 1.75 0 0 0 .856 1.088l.58.31a8 8 0 0 0-.081 1.157c0 .384.028.771.051 1.165l-.549.3a1.75 1.75 0 0 0-.856 1.087 1.7 1.7 0 0 0 .191 1.34l1.517 2.512a1.836 1.836 0 0 0 2.439.638l.553-.306a.16.16 0 0 1 .159.029 9 9 0 0 0 1.958 1.087.2.2 0 0 1 .078.051v.605a1.784 1.784 0 0 0 1.8 1.761h3.035a1.784 1.784 0 0 0 1.8-1.761v-.6a.16.16 0 0 1 .08-.058 9 9 0 0 0 1.958-1.087.16.16 0 0 1 .158-.025m-1.169-1.351a7.2 7.2 0 0 1-1.581.878 1.78 1.78 0 0 0-1.156 1.641v.605c0 .015-.032.049-.09.049h-3.034c-.058 0-.09-.034-.09-.049v-.605a1.78 1.78 0 0 0-1.154-1.641 7.3 7.3 0 0 1-1.582-.878 1.9 1.9 0 0 0-1.124-.371 1.8 1.8 0 0 0-.874.223l-.554.306a.12.12 0 0 1-.146-.025l-1.49-2.555.55-.3a1.72 1.72 0 0 0 .9-1.752 6.4 6.4 0 0 1 0-1.826 1.72 1.72 0 0 0-.9-1.752l-.574-.342 1.517-2.51a.116.116 0 0 1 .146-.026l.555.307a1.87 1.87 0 0 0 2-.148 7.2 7.2 0 0 1 1.581-.878 1.78 1.78 0 0 0 1.156-1.642v-.605c0-.015.032-.049.09-.049h3.027c.058 0 .09.034.09.049v.605a1.78 1.78 0 0 0 1.154 1.641 7.3 7.3 0 0 1 1.582.878 1.86 1.86 0 0 0 2 .148l.554-.306a.12.12 0 0 1 .146.025l1.484 2.554-.55.3a1.72 1.72 0 0 0-.9 1.752 6.4 6.4 0 0 1 0 1.826 1.72 1.72 0 0 0 .9 1.752l.574.342-1.517 2.51a.12.12 0 0 1-.146.026l-.555-.307a1.87 1.87 0 0 0-2 .148Z"/><path d="M26.54 21.831a4.709 4.709 0 1 0 4.709 4.709 4.71 4.71 0 0 0-4.709-4.709m0 7.705a3 3 0 1 1 3-3 3 3 0 0 1-3 3"/><path d="M4.709 44.518A3.454 3.454 0 1 0 6.7 41.42a24.5 24.5 0 0 1-4.988-14.88A24.837 24.837 0 0 1 36.471 3.78l.685-1.568A26.548 26.548 0 0 0 0 26.54a26.18 26.18 0 0 0 5.375 15.968 3.4 3.4 0 0 0-.666 2.01m3.424-1.712a1.712 1.712 0 1 1-1.712 1.712 1.71 1.71 0 0 1 1.712-1.712M48.371 8.561a3.454 3.454 0 1 0-1.989 3.1 24.5 24.5 0 0 1 4.985 14.876 24.837 24.837 0 0 1-34.758 22.76l-.685 1.571a26.548 26.548 0 0 0 37.155-24.331 26.18 26.18 0 0 0-5.375-15.968 3.4 3.4 0 0 0 .667-2.008m-3.424 1.712a1.712 1.712 0 1 1 1.712-1.712 1.71 1.71 0 0 1-1.713 1.713Z"/><path d="M26.539 7.705a19 19 0 0 0-4.483.537l.406 1.663a17.14 17.14 0 0 1 21.2 16.634 16.9 16.9 0 0 1-3.118 9.827 3.4 3.4 0 0 0-1.591-.41 3.442 3.442 0 1 0 2.868 1.565 18.6 18.6 0 0 0 3.553-10.982A18.856 18.856 0 0 0 26.539 7.705m12.414 33.389a1.712 1.712 0 1 1 1.712-1.712 1.71 1.71 0 0 1-1.712 1.712m-12.413 4.28a19 19 0 0 0 4.483-.537l-.406-1.663a17.14 17.14 0 0 1-21.2-16.634 16.9 16.9 0 0 1 3.118-9.827 3.4 3.4 0 0 0 1.591.41 3.442 3.442 0 1 0-2.868-1.565 18.6 18.6 0 0 0-3.553 10.981A18.856 18.856 0 0 0 26.54 45.374M14.126 11.985a1.712 1.712 0 1 1-1.712 1.712 1.71 1.71 0 0 1 1.712-1.712"/></svg>