<svg xmlns="http://www.w3.org/2000/svg" width="56.019" height="56.02"><path d="M2.8 51.35h.934v2.75a1.918 1.918 0 0 0 3.018 1.577l6.174-4.322h11.349a2.8 2.8 0 0 0 2.8-2.8v-5.632q.463.024.992.025c.28 0 .575-.007.876-.021v5.621a2.8 2.8 0 0 0 2.8 2.8h11.348l6.174 4.322a1.919 1.919 0 0 0 3.018-1.579V51.35h.934a2.8 2.8 0 0 0 2.8-2.8V31.744a2.8 2.8 0 0 0-2.8-2.8h-8.14a18 18 0 0 0 1.046-3.081l1.932-.774a2.1 2.1 0 0 0 1.345-1.768 19.6 19.6 0 0 0 0-3.693 2.1 2.1 0 0 0-1.33-1.766l-1.943-.776a18.3 18.3 0 0 0-2.2-5.311l.816-1.918a2.1 2.1 0 0 0-.316-2.209 21 21 0 0 0-2.575-2.575 2.09 2.09 0 0 0-2.217-.329l-1.921.817a18.3 18.3 0 0 0-5.312-2.2l-.774-1.934a2.11 2.11 0 0 0-1.77-1.339 19.4 19.4 0 0 0-3.693 0 2.11 2.11 0 0 0-1.765 1.33l-.776 1.943a18.3 18.3 0 0 0-5.312 2.2l-1.918-.816a2.1 2.1 0 0 0-2.209.317 21 21 0 0 0-2.575 2.574 2.1 2.1 0 0 0-.329 2.217l.817 1.921a18.3 18.3 0 0 0-2.2 5.312l-1.933.775a2.1 2.1 0 0 0-1.341 1.765 19.5 19.5 0 0 0 0 3.693 2.1 2.1 0 0 0 1.33 1.768l1.942.778a18 18 0 0 0 1.046 3.081H2.8a2.8 2.8 0 0 0-2.8 2.8v16.8a2.8 2.8 0 0 0 2.8 2.804m14.494-22.407a12.94 12.94 0 0 1-2.356-7.469 13.071 13.071 0 0 1 26.142 0 12.94 12.94 0 0 1-2.356 7.469h-6.98a2.8 2.8 0 0 0-2.8 2.8v2.763a12.5 12.5 0 0 1-1.867 0v-2.762a2.8 2.8 0 0 0-2.8-2.8Zm9.782 12.108v-4.668q.471.032.934.033c.463.001.62-.012.934-.033v4.678a19 19 0 0 1-1.868-.01m27.076-9.307v16.805a.934.934 0 0 1-.934.934H51.35a.934.934 0 0 0-.934.934V54.1l-.081.047-6.414-4.49a.93.93 0 0 0-.535-.169H31.744a.934.934 0 0 1-.934-.934v-16.81a.934.934 0 0 1 .934-.934h21.474a.934.934 0 0 1 .933.934Zm-42.538-6.753a.93.93 0 0 0-.567-.678l-2.41-.964a.25.25 0 0 1-.156-.208 18 18 0 0 1 0-3.352.25.25 0 0 1 .165-.193l2.4-.962a.93.93 0 0 0 .566-.675 16.5 16.5 0 0 1 2.317-5.594.93.93 0 0 0 .071-.873l-1-2.375a.25.25 0 0 1 .03-.269 19.5 19.5 0 0 1 2.38-2.38.25.25 0 0 1 .248-.007l2.374 1.008a.93.93 0 0 0 .872-.075 16.5 16.5 0 0 1 5.594-2.317.93.93 0 0 0 .676-.566l.961-2.411a.25.25 0 0 1 .208-.157 18 18 0 0 1 3.352 0 .25.25 0 0 1 .193.165l.961 2.4a.93.93 0 0 0 .676.566 16.5 16.5 0 0 1 5.594 2.319.93.93 0 0 0 .872.075l2.375-1.008a.25.25 0 0 1 .269.03 19.3 19.3 0 0 1 2.38 2.38.25.25 0 0 1 .007.248l-1.008 2.374a.93.93 0 0 0 .075.872 16.5 16.5 0 0 1 2.317 5.594.93.93 0 0 0 .566.675l2.41.966a.25.25 0 0 1 .156.207 18 18 0 0 1 0 3.352.25.25 0 0 1-.165.193l-2.4.961a.93.93 0 0 0-.567.678 16.3 16.3 0 0 1-1.394 3.952h-2.076a14.8 14.8 0 0 0 2.011-7.469 14.939 14.939 0 1 0-29.877 0 14.8 14.8 0 0 0 2.011 7.469h-2.075a16.3 16.3 0 0 1-1.392-3.952Zm-9.747 6.753a.934.934 0 0 1 .933-.934h21.475a.934.934 0 0 1 .934.934v16.805a.934.934 0 0 1-.934.934H12.632a.93.93 0 0 0-.535.169l-6.414 4.49.535.766-.618-.815v-3.676a.934.934 0 0 0-.934-.934H2.8a.934.934 0 0 1-.934-.934Z"/><path d="M9.337 47.615a.934.934 0 0 0 .933-.938v-4.664h5.6v4.664a.934.934 0 0 0 1.867 0v-9.332a4.668 4.668 0 0 0-9.336 0v9.332a.934.934 0 0 0 .936.938m3.735-13.071a2.8 2.8 0 0 1 2.8 2.8v2.8h-5.6v-2.8a2.8 2.8 0 0 1 2.8-2.8m25.208 2.801h.983a11.7 11.7 0 0 0 2.436 6.473 10.7 10.7 0 0 1-2.853 2.006.934.934 0 0 0 .368 1.792.9.9 0 0 0 .368-.076 12.7 12.7 0 0 0 3.364-2.336 12.7 12.7 0 0 0 3.367 2.334.9.9 0 0 0 .368.077.934.934 0 0 0 .373-1.791 10.7 10.7 0 0 1-2.855-2.006 11.7 11.7 0 0 0 2.432-6.473h.983a.934.934 0 1 0 0-1.867h-3.733v-1.867a.934.934 0 0 0-1.867 0v1.866H38.28a.934.934 0 1 0 0 1.867Zm4.666 5.032a9.9 9.9 0 0 1-1.818-5.033h3.638a9.9 9.9 0 0 1-1.82 5.033"/></svg>