<svg xmlns="http://www.w3.org/2000/svg" width="58.219" height="58"><g transform="translate(-1 -1.12)"><path d="M49.196 41.22h4.326a.884.884 0 0 0 0-1.768h-4.326a.884.884 0 0 0 0 1.768m0 3.749h4.326a.884.884 0 0 0 0-1.768h-4.326a.884.884 0 0 0 0 1.768m1.908 5.187a2.759 2.759 0 1 0 2.759 2.759 2.76 2.76 0 0 0-2.759-2.759m0 3.749a.991.991 0 1 1 .991-.991.99.99 0 0 1-.991.991"/><path d="M59.219 20.389V10.05a1.933 1.933 0 0 0-1.931-1.931H42a1.933 1.933 0 0 0-1.931 1.931v10.339A1.933 1.933 0 0 0 42 22.32h.633l-6.409 3.7a6.12 6.12 0 0 0-6-6.846v-7.725h4.03a2.3 2.3 0 0 0 2.3-2.3V3.417a2.3 2.3 0 0 0-2.3-2.3H24.219a2.3 2.3 0 0 0-2.3 2.3v5.735a2.3 2.3 0 0 0 2.3 2.3h4.245v7.977a6.08 6.08 0 0 0-4.133 4.071 4.23 4.23 0 0 0-3.979 1.289l-6.124-3.532a2 2 0 0 0 .264-.987v-7a2.05 2.05 0 0 0-1.592-1.993V9.448a4.6 4.6 0 1 0-9.191 0v1.829a2.05 2.05 0 0 0-1.593 1.995v7a2.053 2.053 0 0 0 2.051 2.048h8.275c.029 0 .055-.007.084-.008 0 0 .006.007.011.009l6.921 3.991c-.021.063-.051.122-.07.186a5.03 5.03 0 0 0-4.421 4.93 4.91 4.91 0 0 0 3.674 4.743L12.535 39.7a1 1 0 0 0-.086.076H9.191V38.4a3.094 3.094 0 1 0-1.768 0v1.373H4.094a.89.89 0 0 0-.887.887v2.315a3.094 3.094 0 1 0 1.768 0V41.54h6.657v1.433a3.094 3.094 0 1 0 1.768 0v-1.737q.01.002.02-.008l8.475-4.894h6.569v5.914h-7.136a.884.884 0 0 0-.884.884v11.085a.884.884 0 0 0 .884.884h7.14V57h-2.72a.884.884 0 1 0 0 1.768h7.207a.884.884 0 0 0 0-1.768h-2.72v-1.9h7.14a.884.884 0 0 0 .884-.884V43.132a.884.884 0 0 0-.884-.884h-7.143v-5.914h5.693a5 5 0 0 0 .762-.065c2.928 1.686 8.327 4.823 8.518 4.9v14.867a3.09 3.09 0 0 0 3.084 3.084h5.631A3.09 3.09 0 0 0 57 56.036V39.14a3.09 3.09 0 0 0-3.084-3.084h-5.628A3.09 3.09 0 0 0 45.2 39.14v.006l-6.44-3.721a4.9 4.9 0 0 0-.712-8.415l7.927-4.575a1 1 0 0 0 .131-.116h11.182a1.933 1.933 0 0 0 1.931-1.931ZM5.477 9.448a2.828 2.828 0 0 1 5.655 0v1.773H5.477Zm7.248 10.821a.283.283 0 0 1-.283.283H4.167a.283.283 0 0 1-.283-.283v-7c0-.408.562-.257.709-.283h7.423c.147.026.709-.125.709.283ZM5.42 45.923A1.326 1.326 0 1 1 4.094 44.6a1.327 1.327 0 0 1 1.326 1.323m2.886-9.147a1.326 1.326 0 1 1 1.326-1.326 1.327 1.327 0 0 1-1.326 1.326m5.535 9.147a1.326 1.326 0 1 1-1.326-1.323 1.327 1.327 0 0 1 1.326 1.323m33.131-6.783a1.32 1.32 0 0 1 1.316-1.316h5.632a1.32 1.32 0 0 1 1.316 1.316v16.9a1.32 1.32 0 0 1-1.316 1.316h-5.632a1.32 1.32 0 0 1-1.316-1.316ZM32.852 2.888l-3.611 2.507-3.611-2.507zm-8.633 6.793a.53.53 0 0 1-.529-.529V3.694l5.046 3.5a.88.88 0 0 0 1.008 0l5.046-3.5v5.458a.53.53 0 0 1-.529.529Zm12.272 34.335v9.317H22.212v-9.317Zm2.571-12.587a3.14 3.14 0 0 1-3.138 3.138H19.872a3.14 3.14 0 0 1-3.138-3.138 3.256 3.256 0 0 1 2.9-3.171c.735 0 1.312.012 1.364-.775a2.47 2.47 0 0 1 3.581-2.031.885.885 0 0 0 1.286-.685 4.333 4.333 0 1 1 8.2 2.391.88.88 0 0 0 .112.956c.481.58.963.173 1.741.173a3.144 3.144 0 0 1 3.138 3.143Zm6.276-10.877H42c-.319 0-.089.09-.163-10.5A.164.164 0 0 1 42 9.887h3.333Zm12.113-.163a.163.163 0 0 1-.163.163H47.106V9.887h10.182a.164.164 0 0 1 .163.163Z"/><circle cx=".966" cy=".966" r=".966" transform="translate(42.558 14.269)"/></g></svg>