<svg xmlns="http://www.w3.org/2000/svg" width="47.578" height="58"><g transform="translate(-46)"><path d="M93.246 4.3a1.14 1.14 0 0 0-.8-.332H81.117v-.456A3.51 3.51 0 0 0 77.606 0H68.77a3.51 3.51 0 0 0-3.512 3.512v3.172A3.51 3.51 0 0 0 68.77 10.2h3.285v3.865l-9.377 5.218H53.93a1.133 1.133 0 0 0-1.13 1.128v10.216h-5.667A1.13 1.13 0 0 0 46 31.76v7.929a1.13 1.13 0 0 0 1.133 1.133H52.8v8.5a1.133 1.133 0 0 0 1.133 1.133H63.6l3.059 3.569a1.13 1.13 0 0 0 .86.4h4.531v2.453a1.133 1.133 0 1 0 2.266 0v-2.462h4.531a1.13 1.13 0 0 0 .86-.4l3.4-3.965a1.135 1.135 0 0 0 0-1.474l-3.4-3.965a1.13 1.13 0 0 0-.86-.4H74.32v-3.4h4.531A1.13 1.13 0 0 0 79.94 40l2.267-7.93a1.133 1.133 0 0 0-1.09-1.443h-6.8v-3.866l9.383-5.217h8.748a1.133 1.133 0 0 0 1.133-1.133v-2.286a1.133 1.133 0 0 0-2.266 0v1.153H83.7l-9.38-5.217V10.2h3.285a3.51 3.51 0 0 0 3.512-3.512V6.23h10.2v1.7a1.133 1.133 0 0 0 2.266 0V5.1a1.14 1.14 0 0 0-.332-.8Zm-44.98 28.591h11.328v5.664H48.266Zm6.8 7.93h5.664a1.13 1.13 0 0 0 1.133-1.133V31.76a1.13 1.13 0 0 0-1.133-1.133h-5.667v-9.083h7.615l9.377 5.217v3.866h-4.531a1.13 1.13 0 0 0-1.089.821l-2.266 7.93a1.132 1.132 0 0 0 1.089 1.443h6.8v3.4h-4.534a1.13 1.13 0 0 0-.86.4L63.6 48.185h-8.537Zm23.268 5.664 2.428 2.833-2.431 2.832H68.045l-2.428-2.832 2.428-2.833Zm1.285-13.594L78 38.555H66.76l1.618-5.664Zm1.458-12.48L73.188 24.8 65.3 20.411l7.886-4.389ZM78.852 6.684a1.25 1.25 0 0 1-1.246 1.246H68.77a1.25 1.25 0 0 1-1.246-1.246V3.512a1.25 1.25 0 0 1 1.246-1.246h8.836a1.25 1.25 0 0 1 1.246 1.246Z"/><circle cx="1.055" cy="1.055" r="1.055" transform="translate(91.407 12.127)"/></g></svg>