<svg xmlns="http://www.w3.org/2000/svg" width="60" height="60" fill="none"><g clip-path="url(#a)"><path fill="#282928" d="M51.885 18.736a.7.7 0 0 0 .61-.352l3.011-5.216a3.25 3.25 0 1 0-1.152-.817l-2.875 4.979h-3.844v-2.035a2.933 2.933 0 0 0-2.93-2.93H42.67V8.522l4.979-2.875a3.238 3.238 0 1 0-.816-1.152l-5.217 3.012a.7.7 0 0 0-.352.609v4.25H30.703V6.41a3.244 3.244 0 1 0-1.406 0v5.955H18.735v-4.25a.7.7 0 0 0-.351-.61l-5.217-3.01a3.25 3.25 0 1 0-.816 1.152l4.978 2.874v3.844h-2.035a2.933 2.933 0 0 0-2.93 2.93v2.034H8.52l-2.874-4.978a3.237 3.237 0 1 0-1.152.817l3.011 5.217a.7.7 0 0 0 .61.351h4.25v10.561H6.409a3.243 3.243 0 1 0 0 1.407h5.956v10.56h-4.25a.7.7 0 0 0-.61.352l-3.012 5.217a3.25 3.25 0 1 0 1.153.817l2.874-4.98h3.845v2.035a2.933 2.933 0 0 0 2.93 2.93h2.034v3.844l-4.978 2.874a3.238 3.238 0 1 0 .816 1.153l5.217-3.012a.7.7 0 0 0 .351-.61v-4.25h10.562v5.956a3.243 3.243 0 1 0 1.406 0v-5.955h10.561v4.25a.7.7 0 0 0 .352.61l5.217 3.01a3.25 3.25 0 1 0 .816-1.152L42.67 51.48v-3.844h2.035a2.933 2.933 0 0 0 2.93-2.93V42.67h3.844l2.875 4.979a3.237 3.237 0 1 0 1.152-.817l-3.012-5.216a.7.7 0 0 0-.609-.352h-4.25v-10.56h5.955a3.243 3.243 0 1 0 0-1.407h-5.955v-10.56zm4.871-10.398a1.837 1.837 0 1 1 0 3.674 1.837 1.837 0 0 1 0-3.674m-6.93-6.931a1.837 1.837 0 1 1 0 3.675 1.837 1.837 0 0 1 0-3.675M28.162 3.244a1.837 1.837 0 1 1 3.674 0 1.837 1.837 0 0 1-3.674 0M10.174 5.08a1.837 1.837 0 1 1 0-3.674 1.837 1.837 0 0 1 0 3.674m-8.768 5.094a1.837 1.837 0 1 1 3.674 0 1.837 1.837 0 0 1-3.674 0m1.837 21.663a1.837 1.837 0 1 1 0-3.674 1.837 1.837 0 0 1 0 3.674m0 19.825a1.837 1.837 0 1 1 0-3.674 1.837 1.837 0 0 1 0 3.674m6.932 6.931a1.838 1.838 0 1 1 0-3.675 1.838 1.838 0 0 1 0 3.675m21.662-1.837a1.837 1.837 0 1 1-3.675 0 1.837 1.837 0 0 1 3.675 0m17.988-1.837a1.837 1.837 0 1 1 0 3.675 1.837 1.837 0 0 1 0-3.675M46.23 44.706a1.525 1.525 0 0 1-1.524 1.523h-29.41a1.525 1.525 0 0 1-1.524-1.523v-29.41a1.525 1.525 0 0 1 1.523-1.524h29.411a1.525 1.525 0 0 1 1.524 1.523zm12.365 5.12a1.838 1.838 0 1 1-3.676 0 1.838 1.838 0 0 1 3.675 0m-1.838-21.663a1.837 1.837 0 1 1 0 3.674 1.837 1.837 0 0 1 0-3.674M30 16.816a10.231 10.231 0 0 0-6.295 18.295 2.06 2.06 0 0 1 .828 1.698v2.198a1.66 1.66 0 0 0 1.178 1.585 4.842 4.842 0 0 0 8.577 0 1.66 1.66 0 0 0 1.179-1.585v-2.198a2.06 2.06 0 0 1 .828-1.698A10.23 10.23 0 0 0 30 16.816m4.06 21.087v1.104a.253.253 0 0 1-.25.25h-7.62a.253.253 0 0 1-.25-.25v-1.104zM30 27.233a1.32 1.32 0 1 1 0-2.64 1.32 1.32 0 0 1 0 2.64m0 14.546a3.43 3.43 0 0 1-2.534-1.117h5.067A3.43 3.43 0 0 1 30 41.78m5.429-7.776a3.48 3.48 0 0 0-1.355 2.494h-3.371v-7.95a2.727 2.727 0 1 0-1.406 0v7.95h-3.372a3.48 3.48 0 0 0-1.354-2.495 8.825 8.825 0 1 1 10.858 0"/></g><defs><clipPath id="a"><path fill="#fff" d="M0 0h60v60H0z"/></clipPath></defs></svg>