<svg xmlns="http://www.w3.org/2000/svg" width="42" height="42" fill="none"><g fill="#000"><path fill-rule="evenodd" d="M21.998 20.453a4.657 4.657 0 1 0 4.656-8.065 4.657 4.657 0 0 0-4.656 8.065m.75-1.299a3.157 3.157 0 1 0 3.156-5.467 3.157 3.157 0 0 0-3.156 5.467" clip-rule="evenodd"/><path fill-rule="evenodd" d="M12.668 17.209q.29-.587.62-1.16C17.671 8.457 26.43 4.869 30.212 3.622a1.72 1.72 0 0 1 2.251 1.3c.813 3.899 2.084 13.278-2.3 20.87q-.308.534-.643 1.04l.964 5.873a.75.75 0 0 1-.189.63l-5.35 5.803a.75.75 0 0 1-1.244-.22l-1.964-4.697-.233.147a1.93 1.93 0 0 1-1.993.018l-8.34-4.814a1.93 1.93 0 0 1-.98-1.735l.01-.274-5.047.648a.75.75 0 0 1-.812-.968l2.35-7.535a.75.75 0 0 1 .459-.482zm18.327-11.98c.8 3.842 1.957 12.734-2.13 19.813-1.272 2.202-2.952 4.058-4.788 5.61L12.122 23.75c.426-2.366 1.194-4.75 2.465-6.951 4.087-7.08 12.366-10.524 16.094-11.752.097-.032.162-.014.204.01s.09.072.11.171M10.57 23.925a.8.8 0 0 0-.03.185q-.152.973-.237 1.927l-4.18.536 1.891-6.066 3.83-1.4a25 25 0 0 0-1.274 4.818m12.437 9.445 1.627 3.89 4.31-4.674-.667-4.064a25 25 0 0 1-3.569 3.555.8.8 0 0 1-.159.13q-.764.615-1.542 1.162m-.192-1.715c-.693.519-1.4.998-2.106 1.44a.44.44 0 0 1-.448-.009l-8.34-4.814a.44.44 0 0 1-.231-.384c.03-.833.091-1.684.194-2.544z" clip-rule="evenodd"/><path d="M11.351 32.188a.75.75 0 0 0-1.299-.75l-.805 1.394a.75.75 0 1 0 1.3.75zm3.279 1.026a.75.75 0 0 1 .274 1.025l-1.987 3.44a.75.75 0 0 1-1.299-.75l1.987-3.44a.75.75 0 0 1 1.024-.275m3.828 3.076a.75.75 0 1 0-1.3-.75l-.804 1.394a.75.75 0 0 0 1.299.75z"/></g></svg>