<svg xmlns="http://www.w3.org/2000/svg" width="58" height="58"><path d="M54.807 37.945h-.781v-2.346a.723.723 0 0 0-.722-.722h-.77l3.685-7.843a4.27 4.27 0 0 0 .439-6.155l-2.746-9.362a3.325 3.325 0 0 0-6.57-.6h-6.7v-1.1a.9.9 0 0 0-.872-.9l-1.6-.049a9.6 9.6 0 0 0-.727-1.757l1.094-1.164a.9.9 0 0 0-.019-1.253l-2.575-2.575A.9.9 0 0 0 34.69 2.1l-1.164 1.094a9.6 9.6 0 0 0-1.758-.728L31.72.872a.9.9 0 0 0-.9-.874h-3.641a.9.9 0 0 0-.9.874l-.048 1.594a9.5 9.5 0 0 0-1.759.728L23.31 2.102a.9.9 0 0 0-1.254.019l-2.575 2.575a.9.9 0 0 0-.019 1.254l1.094 1.161a9.5 9.5 0 0 0-.728 1.759l-1.594.048a.9.9 0 0 0-.874.9v1.1h-6.7a3.325 3.325 0 0 0-6.57.6L1.344 20.88a4.27 4.27 0 0 0 .439 6.155l3.685 7.843h-.77a.723.723 0 0 0-.722.722v2.347H3.19a3.2 3.2 0 0 0-3.194 3.194v13.666A3.2 3.2 0 0 0 3.19 58h51.617a3.2 3.2 0 0 0 3.194-3.194V41.139a3.2 3.2 0 0 0-3.194-3.194m-2.225 0h-10.3v-1.624h10.3Zm-1.644-3.069h-5.883l5.387-8.141a4.26 4.26 0 0 0 3.748 1.226Zm2.144-21.051 1.717 5.853a4.26 4.26 0 0 0-3.84.627l-.214-5.355a3.32 3.32 0 0 0 2.337-1.125m.408 12.75a2.829 2.829 0 1 1 2.829-2.829 2.833 2.833 0 0 1-2.829 2.829m-2.9-16.827a1.881 1.881 0 1 1-1.881 1.881 1.883 1.883 0 0 1 1.881-1.881m-31.786.6 1.468-.045a.894.894 0 0 0 .846-.677A8 8 0 0 1 22 7.49a.89.89 0 0 0-.118-1.077l-1.006-1.069 1.829-1.829 1.069 1.006a.894.894 0 0 0 1.077.119 8 8 0 0 1 2.139-.883.894.894 0 0 0 .677-.846l.045-1.468h2.587l.045 1.467a.89.89 0 0 0 .677.846 8.1 8.1 0 0 1 2.134.882.894.894 0 0 0 1.077-.118l1.071-1.006 1.83 1.83-1.007 1.071a.894.894 0 0 0-.118 1.076 8 8 0 0 1 .882 2.131.894.894 0 0 0 .845.677l1.469.046v2.588l-1.469.046a.9.9 0 0 0-.845.677 8 8 0 0 1-.882 2.131.894.894 0 0 0 .118 1.077l1.006 1.071-1.83 1.83-1.075-1.005a.89.89 0 0 0-1.076-.118 8 8 0 0 1-2.131.882.894.894 0 0 0-.677.845l-.046 1.469h-2.589l-.046-1.469a.89.89 0 0 0-.672-.845 8 8 0 0 1-2.132-.883.894.894 0 0 0-1.077.119l-1.069 1.006-1.829-1.829 1.006-1.069a.894.894 0 0 0 .119-1.077 8 8 0 0 1-.883-2.136.89.89 0 0 0-.846-.677l-1.468-.045v-2.587Zm-8.149 2.016h6.705v1.1a.9.9 0 0 0 .874.9l1.594.048a9.6 9.6 0 0 0 .728 1.759l-1.094 1.161a.9.9 0 0 0 .019 1.254l2.575 2.575a.9.9 0 0 0 1.254.019l1.161-1.094a9.5 9.5 0 0 0 1.758.728l.049 1.6a.9.9 0 0 0 .9.872h3.642a.9.9 0 0 0 .9-.872l.049-1.6a9.6 9.6 0 0 0 1.757-.727l1.164 1.091a.9.9 0 0 0 1.254-.019l2.575-2.575a.9.9 0 0 0 .019-1.254l-1.094-1.164a9.5 9.5 0 0 0 .727-1.757l1.6-.049a.9.9 0 0 0 .872-.9v-1.1h6.705a3.34 3.34 0 0 0 1.942 2.33l.294 7.328a4.26 4.26 0 0 0-.014 3.421l-6.245 9.437h-1.77a.723.723 0 0 0-.722.722v2.347H17.165v-2.348a.723.723 0 0 0-.722-.722h-1.768L8.43 25.438a4.26 4.26 0 0 0-.014-3.421l.294-7.328a3.33 3.33 0 0 0 1.945-2.327Zm-3.4 2.588-.214 5.355a4.26 4.26 0 0 0-3.84-.627l1.717-5.853a3.32 3.32 0 0 0 2.336 1.123Zm.156-5.2a1.881 1.881 0 1 1-1.881 1.881 1.883 1.883 0 0 1 1.88-1.885Zm-2.9 11.168a2.829 2.829 0 1 1-2.829 2.829 2.833 2.833 0 0 1 2.827-2.832Zm-.7 7.046a4.26 4.26 0 0 0 3.744-1.225l5.387 8.141H7.061Zm1.605 8.358h10.3v1.625h-10.3Zm51.14 18.483a1.75 1.75 0 0 1-1.75 1.75H3.19a1.75 1.75 0 0 1-1.75-1.75V41.139a1.75 1.75 0 0 1 1.75-1.749h51.617a1.75 1.75 0 0 1 1.75 1.75ZM29 17.218a5.575 5.575 0 1 0-3.946-1.628A5.56 5.56 0 0 0 29 17.218m-2.925-8.5a4.137 4.137 0 1 1-1.211 2.924 4.1 4.1 0 0 1 1.21-2.927Zm11.049 34.52a3.2 3.2 0 0 0-3.2 3.2v5.552a.722.722 0 0 0 1.444 0v-2.057h3.505v2.057a.722.722 0 0 0 1.444 0v-5.558a3.2 3.2 0 0 0-3.194-3.197ZM35.37 48.49v-2.058a1.754 1.754 0 1 1 3.507 0v2.058Zm-11.224-2.524a2.73 2.73 0 0 0-2.729-2.729h-3.015a.723.723 0 0 0-.722.722v8.031a.722.722 0 0 0 1.444 0v-3.3h2.031l1.547 1.3v2a.722.722 0 0 0 1.444 0v-2.341a.72.72 0 0 0-.256-.559l-1-.833a2.73 2.73 0 0 0 1.256-2.3Zm-5.023-1.286h2.294a1.285 1.285 0 0 1 0 2.57h-2.293Zm10.784-1.444H26.89a.723.723 0 0 0-.722.722v8.032a.722.722 0 0 0 1.444 0v-3.3h2.294a2.729 2.729 0 0 0 0-5.458Zm0 4.016h-2.293v-2.573h2.294a1.286 1.286 0 0 1 0 2.572Zm-18.769.722a.723.723 0 0 1-.722.722h-.988a.722.722 0 1 1 0-1.444h.988a.723.723 0 0 1 .723.721Zm4.165 0a.723.723 0 0 1-.722.722h-.991a.722.722 0 0 1 0-1.444h.988a.72.72 0 0 1 .726.721Zm-8.331 0a.723.723 0 0 1-.722.722h-.988a.722.722 0 1 1 0-1.444h.988a.72.72 0 0 1 .723.721Zm42.318 0a.723.723 0 0 1-.722.722h-.988a.722.722 0 1 1 0-1.444h.988a.72.72 0 0 1 .722.721Zm-4.165 0a.723.723 0 0 1-.722.722h-.988a.722.722 0 1 1 0-1.444h.988a.723.723 0 0 1 .724.721Zm8.331 0a.723.723 0 0 1-.722.722h-.988a.722.722 0 0 1 0-1.444h.988a.723.723 0 0 1 .724.721Z"/></svg>