<svg xmlns="http://www.w3.org/2000/svg" width="48.986" height="42.847"><path d="M48.986 21.592v-4.677a.74.74 0 0 0-.742-.742h-3.116v-3.177c0-.008-.008-.015-.008-.023a6.667 6.667 0 0 0-13.333 0c0 .008-.008.015-.008.023v3.176h-3.122a.74.74 0 0 0-.742.742v4.677a10.6 10.6 0 0 0 .367 2.717h-3.406l-2.587-8.8a.72.72 0 0 0-.742-.528.74.74 0 0 0-.7.582l-3.434 15.881-1.906-6.085a.75.75 0 0 0-.712-.52h-5.58l-2.081-6.912a.7.7 0 0 0-.727-.528.75.75 0 0 0-.7.589l-1.742 8.281H.742a.743.743 0 0 0 0 1.485h3.827a.745.745 0 0 0 .727-.589l1.263-6.024 1.4 4.654a.74.74 0 0 0 .712.528h5.587l2.579 8.236a.74.74 0 0 0 .7.52h.031a.734.734 0 0 0 .689-.582l3.414-15.775 1.929 6.537a.75.75 0 0 0 .712.536h4.47a10.56 10.56 0 0 0 8.917 6.3v9.269H31.2a.743.743 0 1 0 0 1.485h14.5a.743.743 0 0 0 0-1.485h-6.5v-9.277a10.534 10.534 0 0 0 9.789-10.494ZM38.454 7.876a5.19 5.19 0 0 1 5.121 4.378h-2.527a.743.743 0 1 0 0 1.485h2.595v1.232h-2.595a.743.743 0 1 0 0 1.485h2.595v1.232h-2.595a.743.743 0 0 0 0 1.485h2.595v1.232h-2.595a.743.743 0 1 0 0 1.485h2.526a5.183 5.183 0 0 1-10.241 0h2.526a.743.743 0 1 0 0-1.485h-2.595v-1.232h2.595a.743.743 0 0 0 0-1.485h-2.595v-1.232h2.595a.743.743 0 1 0 0-1.485h-2.595v-1.232h2.595a.743.743 0 1 0 0-1.485h-2.526a5.2 5.2 0 0 1 5.121-4.378M29.4 21.592v-3.934h2.38v3.49c0 .008.008.015.008.023a6.667 6.667 0 0 0 13.333 0c0-.008.008-.015.008-.023v-3.49H47.5v3.934a9.051 9.051 0 1 1-18.1 0m9.038-17.275a.74.74 0 0 0 .742-.742V.742a.743.743 0 0 0-1.485 0v2.832a.743.743 0 0 0 .743.743m-6.33 2.227a.744.744 0 1 0 1.056-1.049l-2.013-2a.742.742 0 1 0-1.049 1.049Zm12.163.157a.74.74 0 0 0 .528-.214l2-2a.742.742 0 1 0-1.049-1.049l-2 2a.74.74 0 0 0 0 1.049.76.76 0 0 0 .521.214"/></svg>