<svg xmlns="http://www.w3.org/2000/svg" width="512" height="512" viewBox="0 0 128 128"><path d="m24.037 58.189.916 2.695a2 2 0 0 1-1.08 2.467l-9.402 4.658a2 2 0 0 1-2.639-.846l-7.225-13.41a1.994 1.994 0 0 1 .436-2.442l24.914-23.615-5.143-6.411a1.994 1.994 0 0 1 .309-2.802 1.6 1.6 0 0 1 .328-.215v-.007c3.143-1.634 6.248-1.564 9.214-.536 2.505.864 4.865 2.411 7.049 4.146 3.667-.183 7.074.277 10.224 1.274 9.037 2.859 15.854 10.053 20.561 18.756 4.613 8.532 7.207 18.554 7.863 27.275.436 5.818.012 11.113-1.236 15.07a2 2 0 0 1-1.863 1.4c-1.748.146-3.514.973-4.934 2.229-1.182 1.041-2.109 2.359-2.582 3.818a6.73 6.73 0 0 0 .063 4.486c.639 1.729 2.027 3.502 4.432 5.176a2.003 2.003 0 0 1 .504 2.783 2 2 0 0 1-1.641.857H22.763c-.94 0-1.735-.65-1.944-1.533-.453-1.539-4.594-16.982 8.779-30.355 9.819-9.819 10.734-12.59 9.15-16.313-2.777 2.605-6.702 2.051-10.306 1.546-1.823-.259-3.521-.499-4.405-.151m-3.426 2.33-.752-2.209a2 2 0 0 1 .139-1.591c1.818-3.344 5.238-2.865 8.993-2.334 3.212.453 6.803.965 8.166-2.298v.007a2 2 0 0 1 .921-1.004 1.993 1.993 0 0 1 2.689.84l.334.643c.019.032.037.07.057.102 3.768 7.156 5.01 9.523-8.734 23.262-10.021 10.027-8.892 21.197-8.104 25.059h43.69c-.889-1.123-1.527-2.277-1.949-3.439-.902-2.453-.84-4.891-.113-7.098.707-2.146 2.051-4.072 3.736-5.561 1.717-1.514 3.799-2.6 5.963-3.041.84-3.346 1.086-7.643.727-12.383-.613-8.229-3.055-17.664-7.391-25.685-4.246-7.857-10.313-14.319-18.251-16.831-2.903-.915-6.077-1.313-9.517-1.054v-.006a1.98 1.98 0 0 1-1.413-.448c-2.045-1.679-4.235-3.199-6.437-3.963-1.193-.41-2.405-.594-3.629-.448l4.474 5.585.007.007c.644.802.58 1.975-.178 2.694L8.842 53.205l5.591 10.367z"/><path d="M16.004 100.996h63.082a4.08 4.08 0 0 1 2.896 1.205 4.1 4.1 0 0 1 1.199 2.896v6.816c0 1.129-.461 2.15-1.199 2.896a4.1 4.1 0 0 1-2.896 1.197H16.004a4.1 4.1 0 0 1-2.891-1.197 4.1 4.1 0 0 1-1.205-2.896v-6.816c0-1.129.461-2.158 1.205-2.896h.007a4.06 4.06 0 0 1 2.884-1.205m63.082 4H16.004a.15.15 0 0 0-.07.025l.007.008a.1.1 0 0 0-.031.068v6.816a.08.08 0 0 0 .031.063q.027.03.063.031h63.082c.025 0 .051-.012.063-.031.02-.012.031-.037.031-.063v-6.816a.1.1 0 0 0-.031-.068c-.012-.02-.037-.031-.063-.031z"/><path d="M5.029 124.023H90.06a.9.9 0 0 0 .65-.266v-.006a.92.92 0 0 0 .271-.656v-6.16a.93.93 0 0 0-.266-.656l-.006-.006a.9.9 0 0 0-.65-.266H5.029a.92.92 0 0 0-.65.266l-.006.006a.93.93 0 0 0-.266.656v6.16c0 .258.107.486.271.656v.006a.92.92 0 0 0 .651.266m85.032 4H5.029a4.9 4.9 0 0 1-3.47-1.451l-.006.006a4.92 4.92 0 0 1-1.445-3.482v-6.16c0-1.35.555-2.58 1.445-3.477h.006v-.006a4.92 4.92 0 0 1 3.47-1.445H90.06c1.344 0 2.574.555 3.471 1.445l.006.006a4.93 4.93 0 0 1 1.445 3.477v6.16a4.92 4.92 0 0 1-1.445 3.482v-.006a4.9 4.9 0 0 1-3.476 1.451m2.025-101.608a2.002 2.002 0 0 1 4.002 0v27.061h17.941c1.104 0 2 .89 2 1.994v24.1a2 2 0 0 1-4.002 0v-22.1H94.086a2 2 0 0 1-2-2.001z"/><path d="M87.908 36.373a1.993 1.993 0 0 1-3.104-2.499l7.723-9.561a2.004 2.004 0 0 1 3.112 0v-.006l7.73 9.554a2 2 0 1 1-3.111 2.517l-6.178-7.636zM94.086.023c2.135 0 4.064.864 5.467 2.266a7.7 7.7 0 0 1 2.258 5.465 7.72 7.72 0 0 1-2.258 5.466 7.73 7.73 0 0 1-5.467 2.259 7.7 7.7 0 0 1-5.465-2.259 7.7 7.7 0 0 1-2.266-5.466c0-2.133.865-4.07 2.266-5.465A7.7 7.7 0 0 1 94.086.023m2.639 5.093a3.72 3.72 0 0 0-2.637-1.092c-1.029 0-1.963.416-2.639 1.092s-1.092 1.609-1.092 2.638.416 1.963 1.092 2.638a3.75 3.75 0 0 0 2.639 1.092 3.75 3.75 0 0 0 2.637-1.092 3.74 3.74 0 0 0 1.092-2.638 3.74 3.74 0 0 0-1.092-2.638m17.304 84.425c2.133 0 4.064.865 5.465 2.26a7.72 7.72 0 0 1 2.26 5.465c0 2.141-.865 4.07-2.26 5.465a7.7 7.7 0 0 1-5.465 2.266 7.68 7.68 0 0 1-5.467-2.266 7.68 7.68 0 0 1-2.264-5.465c0-2.133.863-4.064 2.264-5.465a7.7 7.7 0 0 1 5.467-2.26m2.631 5.094a3.7 3.7 0 0 0-2.631-1.092 3.7 3.7 0 0 0-2.639 1.092 3.7 3.7 0 0 0-1.092 2.631 3.7 3.7 0 0 0 1.092 2.639 3.72 3.72 0 0 0 2.639 1.092 3.7 3.7 0 0 0 2.631-1.092 3.7 3.7 0 0 0 1.092-2.639c0-1.03-.416-1.963-1.092-2.631m8.033-69.224a1.998 1.998 0 1 1 2.828 2.827l-10.414 10.413a1.995 1.995 0 0 1-2.826 0 1.995 1.995 0 0 1 0-2.827z"/><path d="M127.521 35.824a1.998 1.998 0 1 1-2.828 2.827l-10.412-10.413a1.995 1.995 0 0 1 0-2.827 1.995 1.995 0 0 1 2.826 0zM69.588 7.161a1.998 1.998 0 1 1 2.828 2.827L62.002 20.4a1.995 1.995 0 0 1-2.826 0 1.995 1.995 0 0 1 0-2.827z"/><path d="M72.416 17.573c.783.782.783 2.045 0 2.827s-2.045.782-2.828 0L59.176 9.988a1.997 1.997 0 0 1 0-2.827 1.997 1.997 0 0 1 2.827 0zM47.135 33.861a2 2 0 0 1-1.035-2.625 2 2 0 0 1 2.625-1.035c5.818 2.531 12.111 8.255 16.49 17.146 3.477 7.068 5.768 16.162 5.668 27.27a1.99 1.99 0 0 1-2.008 1.975 1.984 1.984 0 0 1-1.975-2.008c.094-10.418-2.039-18.906-5.264-25.47-3.931-7.976-9.447-13.056-14.501-15.253"/></svg>