<svg xmlns="http://www.w3.org/2000/svg" width="51.273" height="47.368"><path d="M20.265 47.368h-16.4a.8.8 0 0 1-.6-1.335c2.963-3.269 2.838-9.64 2.643-12.227a2.82 2.82 0 0 0-1.238-2.142 8.67 8.67 0 0 1-3.586-5.301 41 41 0 0 1-1.071-9.918A19 19 0 0 1 2.837 6.221C4.951 3.077 8.22 1.13 12.547.406c6.288-1.043 11.448-.07 15.357 2.893a15.7 15.7 0 0 1 3.561 3.8 20 20 0 0 1 2.019 3.906 19 19 0 0 1 1.127 4.34.83.83 0 0 1-.153.57l-1.711 2.24 3.992 6.023a1.25 1.25 0 0 1 .181.988 1.3 1.3 0 0 1-.584.821l-2.3 1.447 1.015 2.114a.953.953 0 0 1-.6 1.335 18.5 18.5 0 0 0-2.852 1.071l2.031 1.294a1 1 0 0 1 .417.612.95.95 0 0 1-.139.723L32.884 36.1a9 9 0 0 1 .306 2.573 2.215 2.215 0 0 1-3.436 1.961l-.64-.264c-1.2-.487-2.434-.988-3.659-1.461l-2.532-.988a23.1 23.1 0 0 0-1.864 8.611.81.81 0 0 1-.794.836m-14.8-1.6h14.019a23.8 23.8 0 0 1 1.934-8.388l-2.643-1.029a.8.8 0 0 1-.459-.473l-1.252-3.339a.8.8 0 0 1 1.5-.556l1.127 3 6.329 2.462c1.238.473 2.476.988 3.686 1.475l.64.264c.473.195.89.236 1.029.111.056-.056.529-.556-.139-3.1a.84.84 0 0 1 .111-.654l.849-1.252-2.638-1.676a.83.83 0 0 1-.376-.7.78.78 0 0 1 .4-.682 21 21 0 0 1 3.702-1.618l-1-2.087a.816.816 0 0 1 .292-1.029l2.643-1.655-4.02-6.065a1.09 1.09 0 0 1 .042-1.252l1.725-2.267a19.3 19.3 0 0 0-1-3.686 15.9 15.9 0 0 0-5.05-6.969c-3.532-2.723-8.278-3.59-14.107-2.612a12.28 12.28 0 0 0-8.638 5.122c-3.548 5.242-2.787 13.171-1.517 18.9a7.04 7.04 0 0 0 2.921 4.312 4.42 4.42 0 0 1 1.934 3.352c.237 3.077.223 8.405-2.045 12.091Zm35.583-9.098a.84.84 0 0 1-.612-.278.8.8 0 0 1 .083-1.127 3.22 3.22 0 0 0-.014-4.883.8.8 0 1 1 1.043-1.21 4.818 4.818 0 0 1 .028 7.317.97.97 0 0 1-.528.181"/><path d="M43.886 39.522a.793.793 0 0 1-.543-1.377 7.24 7.24 0 0 0-.028-10.628.8.8 0 1 1 1.085-1.169 8.84 8.84 0 0 1 2.838 6.5 8.6 8.6 0 0 1-.765 3.589 8.7 8.7 0 0 1-2.059 2.88.75.75 0 0 1-.528.205"/><path d="M46.738 42.36a.82.82 0 0 1-.584-.25.794.794 0 0 1 .028-1.127 11.28 11.28 0 0 0-.028-16.345.8.8 0 1 1 1.1-1.155 12.9 12.9 0 0 1 2.935 4.173 12.65 12.65 0 0 1 1.085 5.175 12.8 12.8 0 0 1-3.992 9.32.78.78 0 0 1-.544.209"/></svg>