<svg xmlns="http://www.w3.org/2000/svg" width="33.313" height="27.51"><g transform="translate(0 -44.595)"><path d="M12.205 55.291a2.05 2.05 0 0 0 .792 1.621 1.767 1.767 0 0 0 1.941 2.37 2 2 0 0 0 .457.372.943.943 0 0 0 1.262.51.954.954 0 0 0 1.262-.51 2 2 0 0 0 .457-.372 1.776 1.776 0 0 0 1.941-2.37 2.055 2.055 0 0 0-.319-3.446 1.79 1.79 0 0 0-1.755-1.918 2.39 2.39 0 0 0-3.173 0 1.78 1.78 0 0 0-1.755 1.918 2.05 2.05 0 0 0-1.11 1.825m1.794-1.046a.49.49 0 0 0 .316-.249c.054-.6-.187-1.61.965-1.444a.488.488 0 0 0 .615-.423.345.345 0 0 1 .274-.3v1.673a.488.488 0 1 0 .976 0v-1.673a.345.345 0 0 1 .274.3.488.488 0 0 0 .615.423.8.8 0 0 1 .943 1.043.488.488 0 0 0 .338.65 1.078 1.078 0 0 1 .155 2.041.488.488 0 0 0-.189.761.8.8 0 0 1-.553 1.282.8.8 0 0 1-.342-.053.49.49 0 0 0-.569.158 2 2 0 0 1-.672.536v-3.179a.488.488 0 1 0-.976 0v3.185a2 2 0 0 1-.672-.537.49.49 0 0 0-.569-.158.817.817 0 0 1-1.073-.695.79.79 0 0 1 .178-.534.488.488 0 0 0-.189-.761 1.078 1.078 0 0 1 .155-2.041Z"/><path d="M31.5 44.595H1.817A1.82 1.82 0 0 0 0 46.412v23.876A1.82 1.82 0 0 0 1.817 72.1h1.91a.488.488 0 1 0 0-.976h-1.91a.84.84 0 0 1-.841-.841V49.635h31.361v20.653a.84.84 0 0 1-.841.841H6.009a.488.488 0 1 0 0 .976H31.5a1.82 1.82 0 0 0 1.817-1.817V46.412a1.82 1.82 0 0 0-1.817-1.817M.976 48.659v-2.247a.84.84 0 0 1 .841-.841H31.5a.84.84 0 0 1 .841.841v2.247Z"/><path d="M5.392 46.627H3.471a.488.488 0 0 0 0 .976h1.921a.488.488 0 0 0 0-.976M6.594 66.205l.28.743a.488.488 0 1 0 .913-.345l-1.602-4.255-.005-.013a.58.58 0 0 0-.542-.363.58.58 0 0 0-.542.364v.011l-1.619 4.251a.488.488 0 0 0 .912.347l.284-.744h1.928Zm-.959-2.542.591 1.566H5.038ZM9.61 66.776v-4.312a.488.488 0 0 0-.976 0v4.312a.488.488 0 1 0 .976 0M11.459 63.38v2.479a1.406 1.406 0 0 0 1.4 1.4h15.606a1.406 1.406 0 0 0 1.4-1.4V63.38a1.406 1.406 0 0 0-1.4-1.4H12.863a1.406 1.406 0 0 0-1.404 1.4m17.011-.428a.43.43 0 0 1 .428.428v2.479a.43.43 0 0 1-.428.428h-2.473a.43.43 0 0 1-.428-.428V63.38a.43.43 0 0 1 .428-.428Zm-16.035.428a.43.43 0 0 1 .428-.428h11.8a1.4 1.4 0 0 0-.067.428v2.479a1.4 1.4 0 0 0 .067.428h-11.8a.43.43 0 0 1-.428-.428Z"/><circle cx=".488" cy=".488" r=".488" transform="translate(27.492 46.627)"/><circle cx=".488" cy=".488" r=".488" transform="translate(29.354 46.627)"/><circle cx=".488" cy=".488" r=".488" transform="translate(26.745 64.132)"/></g></svg>