<svg xmlns="http://www.w3.org/2000/svg" width="31.953" height="29"><path d="M5.964 11.928a5.964 5.964 0 1 1 5.964-5.964 5.97 5.97 0 0 1-5.964 5.964m0-11.1A5.137 5.137 0 1 0 11.1 5.964 5.14 5.14 0 0 0 5.964.827ZM5.964 29a5.964 5.964 0 1 1 5.964-5.964A5.97 5.97 0 0 1 5.964 29m0-11.1a5.137 5.137 0 1 0 5.137 5.137A5.14 5.14 0 0 0 5.964 17.9M25.989 29a5.964 5.964 0 1 1 5.964-5.964A5.97 5.97 0 0 1 25.989 29m0-11.1a5.137 5.137 0 1 0 5.137 5.137 5.14 5.14 0 0 0-5.137-5.137"/><path d="m3.202 17.758-.076-.318.624-.14q.03.15.07.3ZM2.992 16.741a9 9 0 0 1-.089-.707l.637-.064c.019.223.051.446.083.668Zm-.134-1.419q-.007-.2-.006-.4v-.306l.637.006v.3q-.001.191.006.382Zm.649-1.381-.637-.038c.013-.255.032-.49.064-.713l.63.076c-.019.216-.038.433-.057.675m.172-1.324-.627-.135a7 7 0 0 1 .185-.7l.611.191a6 6 0 0 0-.169.643ZM4.074 11.336l-.592-.236c.038-.1.083-.2.127-.306l.586.255c-.045.102-.089.198-.121.287M21.279 26.498l-.35-.528.255-.172.369.522c-.096.057-.185.121-.274.178M15.665 28.236q-.336.002-.662-.025l.045-.637c.2.013.414.025.617.025Zm.662-.019-.045-.637c.2-.013.414-.032.617-.064l.089.63a8 8 0 0 1-.661.071m-1.98-.076c-.216-.032-.439-.07-.656-.115l.134-.624c.2.045.407.076.611.108Zm3.3-.1-.127-.624c.2-.045.4-.089.6-.146l.172.611a9 9 0 0 1-.647.157Zm-4.6-.172a10 10 0 0 1-.63-.2l.216-.6q.3.105.592.191Zm5.869-.185-.21-.6c.191-.07.388-.146.579-.223l.248.586c-.202.082-.405.165-.615.235Zm-7.116-.261c-.2-.089-.4-.185-.6-.28l.286-.566c.185.1.376.185.56.267Zm8.332-.255-.286-.567a6 6 0 0 0 .547-.3l.318.547c-.183.115-.38.217-.578.319ZM10.624 26.823c-.1-.057-.185-.115-.28-.172l.337-.541q.135.084.261.159ZM27.891 11.321q-.047-.152-.1-.293l.6-.21c.038.1.07.2.1.312ZM29.026 16.524l-.63-.07c.025-.216.038-.433.051-.649l.637.038c-.013.229-.032.459-.058.681m.076-1.362h-.637v-.051q-.001-.3-.013-.6l.637-.032c.013.2.013.42.013.624Zm-.694-1.3a10 10 0 0 0-.083-.643l.63-.1c.032.223.064.452.083.675Zm-.2-1.279c-.045-.21-.1-.426-.146-.63l.617-.159c.057.216.108.446.153.662ZM28.88 17.523l-.624-.115q.03-.149.051-.306l.63.1c-.019.101-.038.213-.057.321M11.082 1.992l-.248-.586c.1-.045.2-.083.3-.127l.236.592c-.097.038-.192.083-.288.121M20.044 1.909a7 7 0 0 0-.573-.261l.242-.592c.2.083.414.178.617.28Zm-8.081-.255-.2-.6a13 13 0 0 1 .643-.2l.172.611a10 10 0 0 0-.615.189m6.913-.216q-.3-.094-.6-.159l.134-.624c.229.051.446.108.662.172Zm-5.684-.121-.134-.624c.216-.045.439-.089.662-.121l.1.63c-.205.024-.421.071-.625.115Zm4.456-.146c-.2-.025-.407-.051-.63-.064l.045-.637c.236.019.458.038.668.07Zm-3.2-.051-.064-.637q.333-.03.675-.051l.025.637c-.208.013-.421.025-.628.051Zm1.922-.045c-.2-.006-.407-.013-.649-.013V.426c.242 0 .458.006.662.013ZM20.872 2.374q-.134-.084-.267-.159l.318-.554q.135.078.28.165Z"/><path d="M25.989 11.928a5.964 5.964 0 1 1 5.964-5.964 5.97 5.97 0 0 1-5.964 5.964m0-11.1a5.137 5.137 0 1 0 5.137 5.137A5.14 5.14 0 0 0 25.989.827ZM5.68 16.04a.1.1 0 0 1-.077-.032.1.1 0 0 1-.032-.077v-2.937a.12.12 0 0 1 .029-.081.1.1 0 0 1 .079-.032h1.1q1.329 0 1.356 1.229.009.262.009.353t-.009.348a1.28 1.28 0 0 1-.339.933 1.41 1.41 0 0 1-.994.3Zm1.1-.52a.75.75 0 0 0 .547-.169.8.8 0 0 0 .176-.558q.009-.271.009-.339t-.009-.334a.77.77 0 0 0-.188-.547.77.77 0 0 0-.558-.176h-.56v2.124Zm2.079.52a.12.12 0 0 1-.081-.029.1.1 0 0 1-.032-.079v-2.938a.1.1 0 0 1 .032-.081.1.1 0 0 1 .081-.032h.357a.14.14 0 0 1 .136.086l.872 1.627.881-1.627a.145.145 0 0 1 .136-.086h.353a.1.1 0 0 1 .081.032.1.1 0 0 1 .032.081v2.942a.1.1 0 0 1-.032.079.12.12 0 0 1-.081.029h-.38a.1.1 0 0 1-.077-.032.1.1 0 0 1-.032-.077v-1.957l-.633 1.207a.18.18 0 0 1-.154.1h-.184a.18.18 0 0 1-.154-.1l-.633-1.207v1.957a.1.1 0 0 1-.029.077.1.1 0 0 1-.079.032Zm4.65.045a1.8 1.8 0 0 1-.691-.122 1.03 1.03 0 0 1-.438-.321.75.75 0 0 1-.158-.429.1.1 0 0 1 .027-.068.1.1 0 0 1 .068-.027h.4a.15.15 0 0 1 .084.02.2.2 0 0 1 .056.066.46.46 0 0 0 .208.258.8.8 0 0 0 .443.1.9.9 0 0 0 .484-.106.34.34 0 0 0 .163-.3.28.28 0 0 0-.084-.208.7.7 0 0 0-.249-.14q-.165-.059-.49-.145a1.9 1.9 0 0 1-.78-.337.74.74 0 0 1-.246-.6.8.8 0 0 1 .142-.465.95.95 0 0 1 .411-.321 1.55 1.55 0 0 1 .626-.118 1.5 1.5 0 0 1 .642.131 1.1 1.1 0 0 1 .414.328.72.72 0 0 1 .151.391.1.1 0 0 1-.027.068.1.1 0 0 1-.068.027h-.42a.13.13 0 0 1-.131-.086.37.37 0 0 0-.181-.242.7.7 0 0 0-.38-.1.7.7 0 0 0-.4.095.31.31 0 0 0-.145.276.3.3 0 0 0 .072.208.6.6 0 0 0 .228.145 4 4 0 0 0 .45.14 3 3 0 0 1 .635.2.83.83 0 0 1 .35.285.8.8 0 0 1 .113.438.82.82 0 0 1-.16.5 1 1 0 0 1-.452.328 1.9 1.9 0 0 1-.664.131Zm1.618.334a.1.1 0 0 1-.063-.027.1.1 0 0 1-.027-.068.1.1 0 0 1 .009-.05l1.541-3.692a.16.16 0 0 1 .047-.066.13.13 0 0 1 .088-.029h.294a.1.1 0 0 1 .066.027.09.09 0 0 1 .029.068.2.2 0 0 1-.014.05l-1.541 3.692a.15.15 0 0 1-.14.095Zm2.553-.38a.1.1 0 0 1-.077-.032.1.1 0 0 1-.032-.077v-2.936a.12.12 0 0 1 .029-.081.1.1 0 0 1 .079-.032h1.988a.1.1 0 0 1 .081.032.1.1 0 0 1 .032.081v.3a.1.1 0 0 1-.032.079.12.12 0 0 1-.081.029h-1.482v.8h1.387a.12.12 0 0 1 .081.029.1.1 0 0 1 .032.079v.28a.1.1 0 0 1-.032.079.12.12 0 0 1-.081.029h-1.387v.827h1.523a.1.1 0 0 1 .081.032.1.1 0 0 1 .032.081v.3a.1.1 0 0 1-.032.079.12.12 0 0 1-.081.029Zm3.9.045a1.35 1.35 0 0 1-.965-.321 1.25 1.25 0 0 1-.364-.9v-.8069999999999999a1.24 1.24 0 0 1 .368-.9 1.35 1.35 0 0 1 .96-.323 1.66 1.66 0 0 1 .7.138 1.1 1.1 0 0 1 .461.375 1 1 0 0 1 .172.536v.009a.08.08 0 0 1-.029.061.1.1 0 0 1-.066.025h-.429a.13.13 0 0 1-.081-.023.2.2 0 0 1-.045-.086.66.66 0 0 0-.24-.4.78.78 0 0 0-.447-.115q-.651 0-.678.728v.759q.027.728.678.728a.78.78 0 0 0 .45-.118.64.64 0 0 0 .237-.4.14.14 0 0 1 .043-.086.14.14 0 0 1 .084-.023h.429a.1.1 0 0 1 .07.027.08.08 0 0 1 .025.068 1 1 0 0 1-.172.536 1.1 1.1 0 0 1-.461.375 1.66 1.66 0 0 1-.701.138Zm1.984-.045a.12.12 0 0 1-.081-.029.1.1 0 0 1-.032-.079v-2.937a.1.1 0 0 1 .032-.081.1.1 0 0 1 .081-.032h.357a.14.14 0 0 1 .136.086l.872 1.627.881-1.627a.145.145 0 0 1 .136-.086h.353a.1.1 0 0 1 .081.032.1.1 0 0 1 .032.081v2.942a.1.1 0 0 1-.032.079.12.12 0 0 1-.081.029h-.38a.1.1 0 0 1-.077-.032.1.1 0 0 1-.032-.077v-1.957l-.633 1.207a.18.18 0 0 1-.154.1h-.189a.18.18 0 0 1-.154-.1l-.633-1.207v1.957a.1.1 0 0 1-.029.077.1.1 0 0 1-.079.032Z"/></svg>