<svg xmlns="http://www.w3.org/2000/svg" width="28.111" height="28.111"><path d="M14.221 21.235h-1.678v4.153h.825v-1.453h.853a1.35 1.35 0 1 0 0-2.7m0 1.87h-.853V22.06h.853a.523.523 0 1 1 0 1.045M17.907 21.235a1.515 1.515 0 0 0-1.513 1.513v2.641h.825v-.8h1.375v.8h.825v-2.641a1.515 1.515 0 0 0-1.512-1.513m.688 2.531H17.22v-1.018a.688.688 0 1 1 1.375 0ZM11.718 22.583a1.35 1.35 0 0 0-1.348-1.348H8.692v4.153h.825v-1.453h.765l.2.154a.8.8 0 0 1 .3.627v.677h.825v-.677a1.6 1.6 0 0 0-.4-1.071 1.35 1.35 0 0 0 .511-1.062m-1.348.523h-.853v-1.045h.853a.523.523 0 1 1 0 1.045"/><path d="M26.461 18.526v-.4a1.29 1.29 0 0 0-.729-1.163l1.326-3.2a2.06 2.06 0 0 0 .5-3.2l-1.242-4.088a1.788 1.788 0 0 0-3.494-.754h-1.34v.825h1.341a1.8 1.8 0 0 0 1.027 1.227l.292 3.4a2.06 2.06 0 0 0-.058 1.42l-2.89 4.259a1.3 1.3 0 0 0-1.06 1.271v.358H7.977v-.358a1.3 1.3 0 0 0-1.06-1.271l-2.89-4.256a2.06 2.06 0 0 0-.058-1.42l.292-3.4a1.8 1.8 0 0 0 1.027-1.23h1.341v-.825H5.288a1.788 1.788 0 0 0-3.494.754L.552 10.563a2.06 2.06 0 0 0 .5 3.2l1.326 3.2a1.29 1.29 0 0 0-.729 1.163v.4A2.066 2.066 0 0 0 0 20.546v5.5a2.065 2.065 0 0 0 2.063 2.063h23.986a2.065 2.065 0 0 0 2.063-2.063v-5.5a2.066 2.066 0 0 0-1.65-2.021Zm.825-6.561a1.238 1.238 0 1 1-1.238-1.238 1.24 1.24 0 0 1 1.238 1.238m-.773-2.01a2.06 2.06 0 0 0-1.621.3l-.2-2.341a1.78 1.78 0 0 0 1.065-.452ZM23.6 6.134a.963.963 0 1 1 .963.963.964.964 0 0 1-.963-.963m.949 7.246a2.06 2.06 0 0 0 1.5.648h.007l-1.162 2.806h-2.688Zm-3.59 4.746a.47.47 0 0 1 .468-.468h3.741a.47.47 0 0 1 .468.468v.358H20.96Zm-13.808 0v.358H2.476v-.358a.47.47 0 0 1 .468-.468h3.74a.47.47 0 0 1 .468.469Zm-3.6-12.955a.963.963 0 1 1-.963.963.964.964 0 0 1 .96-.963ZM2.355 7.464a1.78 1.78 0 0 0 1.065.452l-.2 2.341a2.06 2.06 0 0 0-1.621-.3Zm-1.53 4.5a1.238 1.238 0 1 1 1.238 1.238 1.24 1.24 0 0 1-1.238-1.237Zm1.231 2.063h.007a2.06 2.06 0 0 0 1.5-.648l2.343 3.454H3.219Zm25.23 12.02a1.24 1.24 0 0 1-1.238 1.238H2.063a1.24 1.24 0 0 1-1.238-1.239v-5.5a1.24 1.24 0 0 1 1.238-1.238h23.986a1.24 1.24 0 0 1 1.237 1.238Z"/><path d="M2.063 22.885h.825v.825h-.825ZM4.264 22.885h.825v.825h-.825ZM6.464 22.885h.825v.825h-.825ZM25.223 22.885h.825v.825h-.825ZM23.023 22.885h.825v.825h-.825ZM20.822 22.885h.825v.825h-.825ZM9.567 8.5 8.94 9.819l1.489 1.489 1.319-.627.77.319.49 1.377h2.106L15.598 11l.77-.319 1.319.627 1.489-1.489-.627-1.319.319-.77 1.377-.49V5.136l-1.378-.489-.319-.77.627-1.319-1.489-1.489-1.319.631-.77-.319L15.109 0h-2.106l-.489 1.377-.77.319-1.319-.627-1.489 1.489.627 1.319-.319.77-1.377.489v2.106l1.377.49Zm-.87-2.783 1.17-.417.6-1.448-.535-1.125.665-.665 1.125.535L13.167 2l.417-1.173h.941L14.944 2l1.448.6 1.125-.535.665.665-.535 1.125.6 1.448 1.173.417v.941l-1.173.417-.6 1.448.535 1.125-.665.665-1.125-.535-1.448.6-.417 1.173h-.941l-.417-1.173-1.447-.6-1.125.535-.665-.665.535-1.125-.6-1.449-1.173-.417Z"/><path d="M14.053 8.692a2.5 2.5 0 1 0-2.5-2.5 2.506 2.506 0 0 0 2.5 2.5m0-4.181a1.678 1.678 0 1 1-1.678 1.678 1.68 1.68 0 0 1 1.678-1.678"/></svg>