<svg xmlns="http://www.w3.org/2000/svg" width="73.338" height="73.338"><path d="M44.003 58.671h4.889a.96.96 0 0 1 1.027 1.2 3.675 3.675 0 0 1-6.943 0 .96.96 0 0 1 1.027-1.2M23.224 7.334H15.89a1.223 1.223 0 1 1 0-2.445h7.334a1.223 1.223 0 0 1 0 2.445M37.891 73.338H6.112A6.114 6.114 0 0 1 0 67.227V25.668a1.21 1.21 0 0 1 1.222-1.222 1.21 1.21 0 0 1 1.222 1.222v41.559a3.66 3.66 0 0 0 3.667 3.667h31.78a1.223 1.223 0 1 1 0 2.445Z"/><path d="M1.222 34.224A1.21 1.21 0 0 1 0 33V6.112A6.114 6.114 0 0 1 6.112 0H33a6.114 6.114 0 0 1 6.112 6.112v24.446a1.223 1.223 0 0 1-2.445 0V6.112A3.66 3.66 0 0 0 33 2.445H6.112a3.66 3.66 0 0 0-3.667 3.667V33a1.21 1.21 0 0 1-1.223 1.224M47.669 9.901a1.113 1.113 0 0 1-1.222-1.1v-.245a1.223 1.223 0 0 1 2.445 0 1.32 1.32 0 0 1-1.222 1.345ZM47.669 14.79a1.113 1.113 0 0 1-1.222-1.1v-.245a1.223 1.223 0 0 1 2.445 0 1.32 1.32 0 0 1-1.222 1.345ZM47.669 19.679a1.113 1.113 0 0 1-1.222-1.1v-.245a1.223 1.223 0 0 1 2.445 0 1.32 1.32 0 0 1-1.223 1.345"/><path d="M18.334 34.224a.6.6 0 0 1-.293-.049 1.217 1.217 0 0 1-.88-1.491l2.445-9.778a1.224 1.224 0 0 1 2.371.611l-2.445 9.775a1.25 1.25 0 0 1-1.198.932M25.668 34.225a1.15 1.15 0 0 1-.856-.367 1.21 1.21 0 0 1 0-1.736l4.034-4.033-4.034-4.034a1.227 1.227 0 0 1 1.734-1.735l4.889 4.889a1.21 1.21 0 0 1 0 1.736l-4.889 4.889a1.17 1.17 0 0 1-.88.391ZM13.446 34.224a1.15 1.15 0 0 1-.856-.367l-4.889-4.888a1.21 1.21 0 0 1 0-1.736l4.889-4.889a1.228 1.228 0 0 1 1.736 1.736l-4.034 4.033 4.034 4.034a1.21 1.21 0 0 1 0 1.736 1.33 1.33 0 0 1-.88.341M25.668 54.955a1.21 1.21 0 0 1-1.222-1.223v-3.618a1.223 1.223 0 1 1 2.445 0v3.618a1.21 1.21 0 0 1-1.223 1.223"/><path d="M57.448 73.338h-22a11.017 11.017 0 0 1-11-11v-1.223h-1.224a3.66 3.66 0 0 1-3.667-3.666v-4.89a3.66 3.66 0 0 1 3.667-3.668h1.222V47.67a13.47 13.47 0 0 1 13.446-13.445h4.889a1.223 1.223 0 1 1 0 2.445h-4.889a11.017 11.017 0 0 0-11 11v2.445a1.21 1.21 0 0 1-1.222 1.222h-2.446a1.21 1.21 0 0 0-1.222 1.222v4.889a1.21 1.21 0 0 0 1.222 1.222h2.445a1.21 1.21 0 0 1 1.222 1.221v2.445a8.566 8.566 0 0 0 8.556 8.555h22a8.566 8.566 0 0 0 8.556-8.556v-2.444a1.21 1.21 0 0 1 1.224-1.22h2.445a1.21 1.21 0 0 0 1.222-1.222v-4.89a1.21 1.21 0 0 0-1.222-1.222h-1.15l-.073 2.42a1.237 1.237 0 0 1-1.222 1.2h-.024a1.22 1.22 0 0 1-1.2-1.222V47.67a11.017 11.017 0 0 0-11-11H47.67a1.21 1.21 0 0 1-1.222-1.222v-7.335a1.223 1.223 0 1 1 2.445 0v6.112h6.112A13.47 13.47 0 0 1 68.449 47.67v1.221h1.222a3.66 3.66 0 0 1 3.667 3.667v4.889a3.66 3.66 0 0 1-3.667 3.667h-1.222v1.222a11.017 11.017 0 0 1-11.001 11.002"/><path d="M55.003 56.837a1.833 1.833 0 1 1 1.833-1.833 1.847 1.847 0 0 1-1.833 1.833M37.891 56.837a1.833 1.833 0 1 1 1.833-1.833 1.847 1.847 0 0 1-1.833 1.833"/><path d="M57.448 68.449h-22a6.114 6.114 0 0 1-6.113-6.111v-9.779a8.566 8.566 0 0 1 8.556-8.556h17.112a8.566 8.566 0 0 1 8.556 8.556v9.778a6.114 6.114 0 0 1-6.111 6.112m-19.557-22a6.114 6.114 0 0 0-6.112 6.112v9.778a3.66 3.66 0 0 0 3.668 3.664h22a3.66 3.66 0 0 0 3.667-3.667v-9.777a6.114 6.114 0 0 0-6.112-6.112Z"/></svg>