<svg xmlns="http://www.w3.org/2000/svg" width="30.369" height="34.666"><path d="M30.022 6.879 15.416.058a.57.57 0 0 0-.5 0L.347 6.879a.6.6 0 0 0-.347.54v6.243c0 11.176 5.473 18.846 15.069 21h.231c9.558-2.2 15.069-9.828 15.069-21V7.419a.58.58 0 0 0-.347-.54M23.2 29.425a17.27 17.27 0 0 1-7.438 3.931v-5.858h1.195a.593.593 0 0 0 .578-.578v-1.31a7.5 7.5 0 0 0 1.811-.771l.925.925a.56.56 0 0 0 .809 0l.848-.848 1.272 1.272ZM9.288 25.764a.56.56 0 0 0 .809 0l.925-.925a10.7 10.7 0 0 0 1.811.771v1.31a.593.593 0 0 0 .578.578h1.195v5.9a17.9 17.9 0 0 1-7.438-3.931v-3.241L8.44 24.95Zm13.142-6.745a7.6 7.6 0 0 1-.963 2.312.58.58 0 0 0 .077.732l.809.809-1.7 1.7-.809-.809a.58.58 0 0 0-.732-.077 7.2 7.2 0 0 1-2.312.964.614.614 0 0 0-.462.578v1.152h-2.387v-1.156a.614.614 0 0 0-.462-.578 7.2 7.2 0 0 1-2.312-.963.58.58 0 0 0-.732.077l-.809.809-1.7-1.7.809-.809a.58.58 0 0 0 .077-.732 7.2 7.2 0 0 1-.963-2.312.614.614 0 0 0-.578-.462H6.128v-2.387h1.156a.614.614 0 0 0 .578-.462 7.2 7.2 0 0 1 .963-2.312.58.58 0 0 0-.077-.732l-.809-.809 1.7-1.7.809.809a.58.58 0 0 0 .732.077 7.2 7.2 0 0 1 2.312-.963.614.614 0 0 0 .462-.578V8.344h2.389V9.5a.614.614 0 0 0 .462.578 7.2 7.2 0 0 1 2.312.963.58.58 0 0 0 .732-.077l.809-.809 1.7 1.7-.809.809a.58.58 0 0 0-.077.732 7.2 7.2 0 0 1 .963 2.312.614.614 0 0 0 .578.462h1.156v2.389h-1.161a.55.55 0 0 0-.578.46M7.168 4.95l7.438-3.469v5.742h-1.194a.593.593 0 0 0-.578.578v1.31a7.5 7.5 0 0 0-1.811.771L10.1 8.96a.56.56 0 0 0-.809 0l-.848.848-1.272-1.272Zm13.913 4.01a.56.56 0 0 0-.809 0l-.925.925a10.7 10.7 0 0 0-1.811-.771v-1.31a.593.593 0 0 0-.578-.578h-1.195v-5.7L23.2 4.991v3.584L21.929 9.85Zm-19.925 4.7v-5.9l4.856-2.274v3.276a.8.8 0 0 0 .154.424l1.426 1.426-.848.848a.58.58 0 0 0-.154.424.8.8 0 0 0 .154.424l.925.925A10.7 10.7 0 0 0 6.9 15.05H5.59a.593.593 0 0 0-.578.578v3.546a.593.593 0 0 0 .578.578h1.27a7.5 7.5 0 0 0 .771 1.811l-.925.925a.58.58 0 0 0-.154.424.8.8 0 0 0 .154.424l.848.848-1.426 1.426a.58.58 0 0 0-.154.424v2.316c-3.122-3.627-4.818-8.6-4.818-14.688Zm28.057 0c0 6.089-1.7 11.061-4.856 14.606v-2.31a.8.8 0 0 0-.154-.424l-1.426-1.426.848-.848a.58.58 0 0 0 .154-.424.8.8 0 0 0-.154-.424l-.925-.925a10.7 10.7 0 0 0 .771-1.811h1.31a.593.593 0 0 0 .578-.578V15.55a.593.593 0 0 0-.578-.578h-1.31a7.5 7.5 0 0 0-.771-1.811l.925-.925a.58.58 0 0 0 .154-.424.8.8 0 0 0-.154-.424l-.848-.848L24.2 9.115a.58.58 0 0 0 .154-.424V5.415l4.856 2.274Z"/><path d="M14.106 13.971a.6.6 0 0 0-.54-.347.65.65 0 0 0-.54.347l-2.62 6.128a.594.594 0 0 0 .308.771.5.5 0 0 0 .231.039.58.58 0 0 0 .54-.347l.578-1.349h3.045l.578 1.349a.587.587 0 0 0 1.079-.462Zm-1.542 4.085 1.041-2.389 1.041 2.389ZM19.193 13.624a.593.593 0 0 0-.578.578v6.128a.578.578 0 1 0 1.156 0v-6.128a.593.593 0 0 0-.578-.578"/></svg>