<svg xmlns="http://www.w3.org/2000/svg" width="73.338" height="73.338"><path d="M0 0v56.778h16.576a8.58 8.58 0 0 0 8.56 8.28h2.07v8.28h18.926v-9.331a21.3 21.3 0 0 0 8.28-7.34v.111h18.926V0Zm55.6 44.949a18.96 18.96 0 0 1-11.138 17.232l-.7.316v8.475h-14.19v-8.28h-4.436a6.217 6.217 0 0 1-6.21-6.21v-5.4l-5.132-1.027a.975.975 0 0 1-.643-1.456l4.593-7.656v-5.457a19.017 19.017 0 0 1 18.562-18.922 18.57 18.57 0 0 1 13.364 5.414 19.8 19.8 0 0 1 5.93 14.036Zm15.377 9.463H55.716a21.2 21.2 0 0 0 2.245-9.463v-8.935a22.18 22.18 0 0 0-6.634-15.725A20.95 20.95 0 0 0 36.263 14.2a21.4 21.4 0 0 0-20.886 21.286v4.8l-4.256 7.094a3.34 3.34 0 0 0 2.21 4.993l3.229.645v1.4H2.366V11.829h68.606Zm0-44.949H2.366v-7.1h68.606Z"/><path d="M5 5h2v2H5zM9 5h3v2H9zM14 5h3v2h-3zM41.401 22.475h-9.463a9.463 9.463 0 0 0 0 18.926h9.463a9.463 9.463 0 1 0 0-18.926m0 16.56h-9.463a7.1 7.1 0 0 1 0-14.195h9.463a7.1 7.1 0 0 1 0 14.195"/><path d="m30.991 26.496-4.081 5.441 4.081 5.441 1.893-1.419-3.016-4.022 3.016-4.022ZM40.454 27.915l3.016 4.022-3.016 4.022 1.893 1.419 4.081-5.441-4.081-5.441ZM35.36 37.2l-2.116-1.058 4.73-9.462 2.117 1.058zM35 44h3v2h-3zM40 44h3v2h-3zM31 44h2v2h-2z"/></svg>