<svg xmlns="http://www.w3.org/2000/svg" width="25.998" height="25.998"><path d="M1.068 5.761a6.4 6.4 0 0 1 .109-1.868 3.76 3.76 0 0 1 .99-1.887A4.15 4.15 0 0 1 5.016.893a8.3 8.3 0 0 1 1.746.119l.153-.873A9.2 9.2 0 0 0 4.979.008 5 5 0 0 0 1.54 1.38 4.63 4.63 0 0 0 .311 3.705v.006A7.3 7.3 0 0 0 .187 5.84ZM3.012 11.549a21 21 0 0 1-.727-1.454l-.807.364c.225.5.48 1.009.758 1.516ZM.444 7.473a15 15 0 0 0 .4 1.4l.838-.286a14 14 0 0 1-.38-1.318ZM6.47 16.428l-.115-.132-.668.581.118.136q.338.386.7.767.159.17.322.339l.638-.614q-.159-.165-.313-.33a23 23 0 0 1-.682-.747M4.616 15.575l.7-.544-.191-.249c-.27-.355-.531-.715-.776-1.07l-.729.5c.253.367.522.738.8 1.1q.096.135.196.263M7.576 18.876a32 32 0 0 0 2.638 2.308 27 27 0 0 0 3.982 2.6 20 20 0 0 0 2.538 1.129l-.809.232.244.852 2.265-.648a.443.443 0 0 0 .3-.548l-.59-2.063-.852.244.375 1.31a18 18 0 0 1-3.059-1.29 26 26 0 0 1-3.85-2.516 31 31 0 0 1-2.566-2.245ZM25.721 19.021a15 15 0 0 0-1.111-3.612l-.811.356a14 14 0 0 1 1.047 3.4c.317 1.981-.031 3.543-1.007 4.519a3.75 3.75 0 0 1-1.868.985 6.6 6.6 0 0 1-2.061.1 10 10 0 0 1-.572-.073l-.138.875q.317.05.625.08.432.041.842.041a7 7 0 0 0 1.5-.157 4.6 4.6 0 0 0 2.3-1.223c1.185-1.185 1.619-3.012 1.255-5.285ZM23.574 13.358l-.769.439c.213.374.414.751.6 1.12l.793-.394c-.193-.38-.402-.78-.624-1.165M21.518 10.279l-.7.538c.33.432.652.878.958 1.326l.732-.5c-.318-.46-.65-.92-.99-1.364M19.332 7.719l-.64.612q.564.591 1.1 1.214l.673-.576a43 43 0 0 0-1.133-1.25M8.353 3.116l.866-.185-.286-1.338a18 18 0 0 1 2.366 1.039 26 26 0 0 1 3.8 2.456 31 31 0 0 1 3.006 2.649l.626-.626a17 17 0 0 0-.411-.4 31.963 31.963 0 0 0-2.679-2.32q-.844-.657-1.744-1.245c.34-.192.681-.373 1.015-.539l-.387-.797q-.599.3-1.206.645l.281.491q-.921-.587-1.885-1.1a19 19 0 0 0-1.761-.816l.78-.167L10.548 0l-2.3.492a.443.443 0 0 0-.341.526ZM.14 19.09a9 9 0 0 0-.13 1.937 5 5 0 0 0 1.371 3.439 4.63 4.63 0 0 0 2.329 1.228 7.3 7.3 0 0 0 1.485.152q.322 0 .644-.028l-.078-.883a6.4 6.4 0 0 1-1.868-.108 3.75 3.75 0 0 1-1.883-.988A4.16 4.16 0 0 1 .897 20.99a8.3 8.3 0 0 1 .113-1.747ZM10.459 24.529c.5-.225 1.009-.48 1.516-.758l-.425-.777c-.487.267-.976.511-1.455.727ZM7.473 25.561a15 15 0 0 0 1.4-.4l-.286-.838a14 14 0 0 1-1.318.38ZM16.293 19.654l.58.669.136-.118q.386-.339.767-.7.17-.159.339-.322l-.614-.638q-.164.159-.33.313c-.246.23-.5.458-.747.677Zm0 0"/><path d="m13.712 21.657.5.729a27 27 0 0 0 1.1-.8l.256-.2-.544-.7-.249.191c-.348.274-.707.535-1.063.78M19.161 1.16c1.98-.317 3.543.031 4.519 1.007a3.75 3.75 0 0 1 .985 1.867 6.6 6.6 0 0 1 .1 2.061 9 9 0 0 1-.073.571l.875.138q.05-.318.08-.625a7.5 7.5 0 0 0-.116-2.34 4.6 4.6 0 0 0-1.222-2.3C23.124.354 21.296-.08 19.024.284a15 15 0 0 0-3.612 1.111l.356.811a14 14 0 0 1 3.4-1.047ZM9.545 6.22l-.576-.673c-.425.364-.845.744-1.25 1.129l.612.641q.591-.564 1.214-1.1ZM12.144 4.233l-.5-.732c-.462.315-.921.647-1.366.987l.538.7c.432-.327.879-.649 1.328-.955M25.35 7.574a.443.443 0 0 0-.548-.3l-2.063.59.244.852 1.311-.375a18 18 0 0 1-1.291 3.059 26 26 0 0 1-2.516 3.85 31 31 0 0 1-2.245 2.566l.634.619a32 32 0 0 0 2.308-2.638 27 27 0 0 0 2.6-3.982 20 20 0 0 0 1.129-2.538l.232.809.852-.244ZM.926 18.111a.4.4 0 0 0 .093-.01l2.1-.448-.185-.866-1.338.286a18 18 0 0 1 1.039-2.366 26 26 0 0 1 2.456-3.8A31 31 0 0 1 7.74 7.901l-.626-.626a19 19 0 0 0-.4.41 31.963 31.963 0 0 0-2.32 2.679 27 27 0 0 0-2.543 3.929 19 19 0 0 0-.816 1.761l-.167-.781-.866.185.492 2.3a.44.44 0 0 0 .433.351ZM9.18 9.49v7.025c0 .375.21.9 1.277 1.288a7.8 7.8 0 0 0 2.552.387h.034a9 9 0 0 0 1.651-.151c1.381-.265 2.181-.821 2.181-1.525V9.488c0-.375-.234-.9-1.3-1.289a7.8 7.8 0 0 0-2.565-.388 7.7 7.7 0 0 0-2.549.388c-1.068.389-1.281.916-1.281 1.291m5.348 7.68a8 8 0 0 1-1.519.136 6.8 6.8 0 0 1-2.248-.335c-.583-.211-.695-.423-.695-.456v-1.236a3 3 0 0 0 .391.172 7.8 7.8 0 0 0 2.554.388 7.8 7.8 0 0 0 2.567-.388c.151-.055.245-.112.412-.172v1.236c0 .083-.359.443-1.461.655Zm1.461-3.008c0 .033-.133.245-.716.456a7 7 0 0 1-2.264.335 6.8 6.8 0 0 1-2.248-.335c-.583-.211-.695-.423-.695-.456v-1.22a3 3 0 0 0 .391.172 7.8 7.8 0 0 0 2.554.388 7.8 7.8 0 0 0 2.567-.388c.151-.055.245-.112.412-.172Zm-.716-1.881a7 7 0 0 1-2.264.335 6.8 6.8 0 0 1-2.248-.335c-.583-.211-.695-.423-.695-.456v-1.22a3 3 0 0 0 .391.172 7.8 7.8 0 0 0 2.554.387 7.8 7.8 0 0 0 2.567-.387c.151-.055.245-.113.412-.172v1.22c-.001.035-.134.246-.717.457Zm-4.528-3.248a7.8 7.8 0 0 1 4.517 0c.583.211.706.423.706.456s-.123.244-.706.455a7.8 7.8 0 0 1-4.517 0c-.583-.211-.706-.423-.706-.455s.123-.245.706-.456m0 0"/></svg>