<svg xmlns="http://www.w3.org/2000/svg" width="60" height="60" fill="none"><path fill="#282928" fill-rule="evenodd" d="M53.797 21.26c-.334 3.04-.375 6.57-1.256 9.478-1.317 4.345-3.705 8.334-4.024 12.728-.242 3.329-.845 5.835-.738 9.313a.75.75 0 0 1-.757.78h-1.599c.556-1.564-.587-3.17-2.206-3.17h-3.986v-3.037a.77.77 0 0 0-.77-.767c-.42 0-.77.344-.77.767v3.804c0 .424.35.768.77.768h4.756c.447 0 .815.366.815.817a.82.82 0 0 1-.815.818h-7.04a.754.754 0 0 1-.75-.755V43.45a3.764 3.764 0 0 1 3.015-3.715l4.523-.952c1.67-.352 3.345-2.005 4.134-3.457l3.43-6.28a.8.8 0 0 0 .084-.276l.925-7.745c.084-.692.75-1.008 1.333-1.008.606 0 .978.698.925 1.245M41.664 31.444a2.945 2.945 0 0 0-2.938 2.943 2.944 2.944 0 0 0 2.938 2.943 2.946 2.946 0 0 0 2.944-2.943 2.947 2.947 0 0 0-2.944-2.943m12.967-12.156a2.35 2.35 0 0 0-1.76-.807c-1.495 0-2.698.994-2.86 2.362l-.906 7.598-2.983 5.476a4.487 4.487 0 0 0-4.458-4.008 4.485 4.485 0 0 0-4.478 4.478c0 1.502.745 2.833 1.883 3.646l-.944.2a5.29 5.29 0 0 0-4.232 5.217v9.355a2.29 2.29 0 0 0 2.284 2.29h10.845a2.29 2.29 0 0 0 2.29-2.363c-.102-3.307.508-5.92.738-9.157.181-2.597 1.178-5.067 2.232-7.682 2.055-5.112 2.383-6.35 2.828-12.075.065-.848.13-1.647.207-2.39a2.8 2.8 0 0 0-.686-2.14m-30.05 33.517a.76.76 0 0 1-.757.754h-7.033a.82.82 0 0 1-.822-.818.82.82 0 0 1 .822-.816h4.75c.426 0 .77-.344.77-.768v-3.804a.768.768 0 0 0-1.534 0v3.036H16.79c-1.663 0-2.777 1.672-2.207 3.17H12.98a.75.75 0 0 1-.75-.779c.105-3.425-.503-5.999-.739-9.313-.31-4.363-2.725-8.428-4.03-12.728-.895-2.957-.911-6.437-1.25-9.477-.063-.562.325-1.246.926-1.246.582 0 1.249.317 1.333 1.008l.919 7.746q.021.146.09.276l3.423 6.28c.796 1.451 2.472 3.105 4.141 3.456l4.523.952a3.77 3.77 0 0 1 3.016 3.716zm-6.244-21.36a2.947 2.947 0 0 0-2.944 2.942 2.946 2.946 0 0 0 2.944 2.943 2.946 2.946 0 0 0 2.945-2.943 2.947 2.947 0 0 0-2.945-2.943m3.54 6.787-.945-.199a4.47 4.47 0 0 0 1.883-3.646 4.48 4.48 0 0 0-4.478-4.478 4.48 4.48 0 0 0-4.451 4.008l-2.99-5.476-.906-7.598c-.162-1.368-1.365-2.362-2.853-2.362-1.534 0-2.616 1.48-2.453 2.947.354 3.173.35 6.59 1.307 9.756.499 1.651 1.126 3.206 1.734 4.709 1.055 2.615 2.045 5.085 2.233 7.682.234 3.237.838 5.883.737 9.157a2.28 2.28 0 0 0 2.285 2.362h10.844a2.294 2.294 0 0 0 2.29-2.29V43.45a5.29 5.29 0 0 0-4.237-5.218m-2.821-27.704a.77.77 0 0 1 0-1.086.77.77 0 0 1 1.087 0l2.446 2.448c.478.48.14 1.31-.544 1.31a.77.77 0 0 1-.543-.224zm-4.536 9.86c0 .425.343.77.77.77h3.461c.421 0 .77-.344.77-.77a.77.77 0 0 0-.77-.767H15.29a.77.77 0 0 0-.77.768m26.736-.767a.768.768 0 1 0 0 1.536h3.462c.42 0 .764-.343.764-.768a.767.767 0 0 0-.764-.768zM29.234 9.137V5.674a.767.767 0 1 1 1.534 0v3.463a.767.767 0 1 1-1.534 0m8.179 3.838a.77.77 0 0 1 0-1.085l2.452-2.449c.298-.3.783-.3 1.08 0a.76.76 0 0 1 0 1.086L38.5 12.975a.77.77 0 0 1-1.087 0m-6.445 21.712a.966.966 0 0 1-.964.965.96.96 0 0 1-.964-.965v-.653h1.928zm-6.904-14.344c0 2.885 2.45 4.603 3.507 8.883h4.86c1.069-4.28 3.507-6.017 3.507-8.883a5.94 5.94 0 0 0-5.934-5.938 5.947 5.947 0 0 0-5.94 5.938m3.669 12.155v-1.737h4.542v1.737zm8.107-7.348c.842-1.488 1.637-2.892 1.637-4.807 0-4.12-3.351-7.474-7.473-7.474s-7.474 3.353-7.474 7.474c0 1.915.796 3.32 1.637 4.807.738 1.313 1.58 2.799 2.026 4.928v2.717c0 .683.556 1.239 1.242 1.239h.065v.653c0 1.379 1.125 2.5 2.504 2.5a2.5 2.5 0 0 0 2.497-2.5v-.653h.072a1.24 1.24 0 0 0 1.236-1.239v-2.717c.453-2.13 1.287-3.615 2.031-4.928" clip-rule="evenodd"/></svg>