<svg xmlns="http://www.w3.org/2000/svg" width="60" height="60" fill="none"><path fill="#282928" d="M7.833 20.38a.82.82 0 0 1 0-1.64h1.545a.82.82 0 1 1 0 1.64zm4.996 0a.82.82 0 0 1 0-1.64h4.787a.82.82 0 0 1 0 1.64zM7.833 51.474a.82.82 0 0 1 0-1.64h14.181a.82.82 0 1 1 0 1.64zm19.22 0a.82.82 0 0 1 0-1.64h4.66a.82.82 0 1 1 0 1.64zm-19.22-6.22a.82.82 0 0 1 0-1.64h3.863a.82.82 0 0 1 0 1.64zm7.69 0a.82.82 0 0 1 0-1.64h2.763a.82.82 0 1 1 0 1.64zm-7.69-6.217a.82.82 0 0 1 0-1.64h7.424a.82.82 0 0 1 0 1.64zm0-6.218a.82.82 0 0 1 0-1.64h2.033a.82.82 0 0 1 0 1.64zm4.66 0a.82.82 0 0 1 0-1.64h2.764a.82.82 0 1 1 0 1.64zm-4.66-6.22a.82.82 0 0 1 0-1.64h4.172a.82.82 0 0 1 0 1.64zm6.95 0a.82.82 0 0 1 0-1.64h2.056a.82.82 0 0 1 0 1.64zm17.1-21.747a.82.82 0 0 1-1.641 0V3.184a.82.82 0 1 1 1.64 0zm-6.465.897a.819.819 0 0 1-1.418.82l-.833-1.448a.818.818 0 0 1 1.414-.82zM20.27 9.754a.817.817 0 0 1-.814 1.418l-1.449-.837a.814.814 0 0 1-.299-1.113.814.814 0 0 1 1.114-.302zm22.556 9.162a.817.817 0 1 1 0-1.634h1.671c.45 0 .817.366.817.817s-.369.817-.817.817zm-.894-6.462a.82.82 0 0 1-1.119-.299.816.816 0 0 1 .299-1.115l1.445-.837a.82.82 0 0 1 .82 1.418zm-4.009-5.149a.82.82 0 0 1-1.115.302.817.817 0 0 1-.3-1.115l.834-1.445a.816.816 0 1 1 1.414.813zM26.014 27.157h1.584v-4.2l-2.073-1.896a.817.817 0 0 1 1.103-1.206l2.281 2.093c.2.15.33.389.33.654v4.554H31.4v-4.554c0-.267.13-.506.33-.654l2.28-2.093a.82.82 0 0 1 1.154.052.814.814 0 0 1-.05 1.154l-2.074 1.897v4.199h1.585l.346-.788c.64-1.369 1.242-2.415 1.953-3.64 1.266-2.183 2.412-4.156 2.412-6.16a9.019 9.019 0 0 0-18.034 0c0 2.004 1.146 3.977 2.411 6.16.835 1.435 1.648 2.85 2.3 4.428m11.088 2.14c.027.87.013 1.567-.645 2.228-.192.19-.414.346-.664.455v.183c0 1.242-.793 2.368-1.953 2.703l-.312 1.15c-.665 2.441-5.704 2.618-6.415 0l-.312-1.15c-1.159-.335-1.953-1.46-1.953-2.703v-.183a2.21 2.21 0 0 1-1.31-2.013v-.672a8.25 8.25 0 0 0-1.491 5.23 8.277 8.277 0 0 0 8.736 7.81 8.25 8.25 0 0 0 5.67-2.7c.02-.03.048-.059.074-.086a8.24 8.24 0 0 0 2.066-5.953 8.24 8.24 0 0 0-1.491-4.3m-2.95 2.873h-7.665c.004.601.429 1.159 1.014 1.159h5.637c.585 0 1.01-.558 1.013-1.16m.747-3.372H25.74a.56.56 0 0 0-.562.562v.608c0 .31.256.561.562.561h9.158a.564.564 0 0 0 .561-.561v-.608a.56.56 0 0 0-.561-.562m-2.787 6.17h-3.585l.17.617c.143.528 1.054.694 1.588.691.538-.003 1.528-.206 1.66-.691zm-8.202-8.485a34 34 0 0 0-.857-1.615c-.41.326-1.115.963-1.418 1.332q-.036.046-.076.087h-.003a11.68 11.68 0 0 0-2.933 8.428 11.68 11.68 0 0 0 3.836 8.036q.046.034.087.076a11.67 11.67 0 0 0 8.428 2.933 11.69 11.69 0 0 0 8.083-3.887 11.69 11.69 0 0 0 2.962-8.464 11.69 11.69 0 0 0-4.434-8.541 36 36 0 0 0-.853 1.617l.239.21.023.023a9.88 9.88 0 0 1 3.236 6.79 9.9 9.9 0 0 1-2.512 7.169l-.03.032-.024.024a9.88 9.88 0 0 1-6.79 3.235 9.9 9.9 0 0 1-7.168-2.511 9.9 9.9 0 0 1-3.291-6.843 9.88 9.88 0 0 1 2.51-7.164zm-1.677-3.046c-1.76-3.036-2.913-5.095-2.471-8.321H5.302v39.982h30.68v-8.94a13.4 13.4 0 0 1-4.919 1.236c-3.407.19-6.893-.92-9.643-3.382l-.033-.03v.004l-.023-.023a13.32 13.32 0 0 1-4.375-9.159 13.3 13.3 0 0 1 3.382-9.64l.03-.036h-.003l.024-.02a13.6 13.6 0 0 1 1.811-1.67m-2.113-9.963A10.66 10.66 0 0 1 30.322 5.91c5.882 0 10.656 4.773 10.656 10.659 0 2.399-1.212 4.528-2.57 6.866 5.154 3.947 6.706 10.936 3.847 16.62l1.893 1.69.227-.25a.82.82 0 0 1 1.155-.066l8.85 7.916a4.15 4.15 0 0 1 .326 5.85 4.15 4.15 0 0 1-5.85.326l-8.85-7.916a.82.82 0 0 1-.067-1.153l.226-.252-1.724-1.541q-.4.31-.82.585v10.673a.82.82 0 0 1-.82.82H4.48a.823.823 0 0 1-.82-.82V14.295c0-.454.368-.82.82-.82zm21.293 28.02a13.4 13.4 0 0 1-1.73 2.087l1.57 1.404 1.808-2.019zm12.072 12.613a2.527 2.527 0 0 0-.196-3.544l-8.242-7.368-3.344 3.74 8.241 7.368a2.52 2.52 0 0 0 3.54-.196"/></svg>