<svg xmlns="http://www.w3.org/2000/svg" width="34.98" height="37.478"><path fill-rule="evenodd" d="M7.545 24.555H3.024a.427.427 0 0 1-.427-.428V19.2H.759a.429.429 0 0 1-.349-.676l4.518-6.34a.43.43 0 0 1 .7-.007l4.5 6.32a.429.429 0 0 1-.33.7H7.974v4.927a.43.43 0 0 1-.429.429Zm-4.093-.858h3.664V18.77a.43.43 0 0 1 .429-.429h1.43l-3.692-5.18-3.691 5.18h1.43a.43.43 0 0 1 .428.467v4.889Zm30.67 11.421H.859v1.5h33.262Zm-9.964-.858V18.723H18.9v15.536Zm8.123 0V14.741h-5.258v19.518Zm-24.369 0v-8.065H2.655v8.065Zm8.123 0V22.965h-5.258v11.294Zm-6.115 0H8.77v-8.494a.43.43 0 0 0-.429-.429H2.225a.43.43 0 0 0-.429.429v8.494H.429a.43.43 0 0 0-.429.429v2.36a.43.43 0 0 0 .429.429H34.55a.43.43 0 0 0 .429-.429v-2.362a.43.43 0 0 0-.429-.429h-1.412V14.312a.43.43 0 0 0-.429-.429h-6.117a.43.43 0 0 0-.429.429v19.947h-1.15V18.294a.43.43 0 0 0-.429-.429h-6.113a.43.43 0 0 0-.429.429v15.965h-1.15V22.536a.43.43 0 0 0-.429-.429h-6.115a.43.43 0 0 0-.429.429v11.723Zm6.172-19.06h1.833a.429.429 0 0 0 .33-.7l-4.5-6.32a.43.43 0 0 0-.7.007l-4.518 6.34a.429.429 0 0 0 .349.676h1.834v5.7a.43.43 0 0 0 .428.428h4.52a.43.43 0 0 0 .429-.429v-5.7Zm-.858 5.267v-5.7a.43.43 0 0 1 .429-.429h1.43l-3.692-5.18-3.692 5.181h1.43a.43.43 0 0 1 .428.467v5.658Zm8.558-3.38h-4.52a.427.427 0 0 1-.427-.428v-5.452h-1.84a.429.429 0 0 1-.349-.676l4.518-6.34a.43.43 0 0 1 .7-.007l4.5 6.32a.429.429 0 0 1-.33.7H24.22v5.452a.43.43 0 0 1-.429.429Zm-4.093-.858v-5.415a.43.43 0 0 0-.428-.467h-1.43l3.692-5.18 3.692 5.18h-1.433a.43.43 0 0 0-.429.429v5.452Zm12.216-3.123a.43.43 0 0 0 .429-.429V7.203h1.833a.429.429 0 0 0 .33-.7l-4.5-6.32a.43.43 0 0 0-.7.007l-4.518 6.34a.429.429 0 0 0 .349.676h1.835v5.469a.43.43 0 0 0 .428.428h4.52Zm-4.093-.859h3.664V6.774a.43.43 0 0 1 .429-.429h1.43l-3.692-5.18-3.692 5.18h1.431a.43.43 0 0 1 .428.467Z"/></svg>