<svg xmlns="http://www.w3.org/2000/svg" width="30.063" height="30"><path d="M2.129 0A1.82 1.82 0 0 0 .313 1.816v3.445a.592.592 0 0 0 .626.626.592.592 0 0 0 .626-.626V1.816a.56.56 0 0 1 .564-.564h3.445A.592.592 0 0 0 6.2.626.592.592 0 0 0 5.574 0ZM.939 20.042a.592.592 0 0 0-.626.626v3.382a1.82 1.82 0 0 0 1.816 1.816h3.445a.627.627 0 0 0 0-1.253H2.129a.56.56 0 0 1-.564-.564v-3.381a.63.63 0 0 0-.626-.626M27.933 25.867a1.82 1.82 0 0 0 1.816-1.816v-3.383a.627.627 0 0 0-1.253 0v3.382a.56.56 0 0 1-.564.564h-3.444a.627.627 0 1 0 0 1.253ZM29.123 5.887a.592.592 0 0 0 .626-.626V1.816A1.82 1.82 0 0 0 27.933 0h-3.445a.592.592 0 0 0-.626.626.592.592 0 0 0 .626.626h3.445a.56.56 0 0 1 .564.564v3.445a.674.674 0 0 0 .626.626"/><path d="M29.436 13.841h-4.947a9 9 0 0 0 .063-1.315c0-5.825-3.633-9.457-9.52-9.457s-9.52 3.57-9.52 9.395a9 9 0 0 0 .063 1.315H.626a.627.627 0 0 0 0 1.253h5.136a15.34 15.34 0 0 0 4.447 8.643v1.566a4.71 4.71 0 0 1-2.067 3.628.674.674 0 0 0-.125.877.57.57 0 0 0 .5.251.9.9 0 0 0 .376-.125A5.84 5.84 0 0 0 11.4 25.24v-.626a6.9 6.9 0 0 0 3.633 1.127 6.9 6.9 0 0 0 3.633-1.127v.626a5.93 5.93 0 0 0 2.505 4.635.9.9 0 0 0 .376.125.57.57 0 0 0 .5-.251.613.613 0 0 0-.125-.877 4.71 4.71 0 0 1-2.067-3.633v-1.565a15.54 15.54 0 0 0 4.445-8.643h5.136a.592.592 0 0 0 .626-.626c0-.376-.251-.564-.626-.564M6.764 12.464c0-5.136 3.069-8.2 8.267-8.2s8.267 3.069 8.267 8.2a9 9 0 0 1-.063 1.315H6.827a9 9 0 0 1-.063-1.315m8.267 12.15c-3.883 0-7.14-4.76-8.017-9.52h16.034c-.877 4.76-4.134 9.52-8.017 9.52"/></svg>