<svg xmlns="http://www.w3.org/2000/svg" width="33.121" height="32.54"><path d="M10.446 12.413a2.784 2.784 0 1 0 2.784 2.784 2.784 2.784 0 0 0-2.784-2.784m0 4.534a1.749 1.749 0 1 1 1.754-1.752 1.75 1.75 0 0 1-1.749 1.749Zm12.229-4.534a2.784 2.784 0 1 0 2.784 2.784 2.785 2.785 0 0 0-2.784-2.784m0 4.534a1.749 1.749 0 1 1 1.749-1.749 1.75 1.75 0 0 1-1.749 1.749m-2.181 4.377a.52.52 0 0 1-.175.711 7.25 7.25 0 0 1-7.517 0 .518.518 0 0 1 .535-.886 6.22 6.22 0 0 0 6.447 0 .52.52 0 0 1 .711.175ZM31.4 10.08h-.933v-.9a2.3 2.3 0 0 0-2.3-2.3H17.078v-2.3a2.321 2.321 0 1 0-1.035 0v2.3H4.955a2.3 2.3 0 0 0-2.3 2.3v.9h-.932A1.725 1.725 0 0 0 0 11.803v10.956a1.725 1.725 0 0 0 1.723 1.723h.932v.9a2.3 2.3 0 0 0 2.3 2.3H7.7v4.341a.518.518 0 0 0 .776.448l8.3-4.793h11.39a2.3 2.3 0 0 0 2.3-2.3v-.9h.934a1.725 1.725 0 0 0 1.723-1.723V11.803A1.725 1.725 0 0 0 31.4 10.08M15.275 2.322a1.286 1.286 0 1 1 1.286 1.286 1.286 1.286 0 0 1-1.286-1.286M1.723 23.447a.69.69 0 0 1-.688-.688V11.803a.69.69 0 0 1 .688-.688h.932v12.332Zm27.707 1.932a1.266 1.266 0 0 1-1.265 1.265H16.639a.5.5 0 0 0-.259.069l-7.645 4.413v-3.965a.52.52 0 0 0-.518-.518H4.955a1.266 1.266 0 0 1-1.265-1.265V9.183a1.266 1.266 0 0 1 1.265-1.27h23.211a1.266 1.266 0 0 1 1.264 1.27Zm2.656-2.62a.69.69 0 0 1-.688.688h-.933V11.113h.935a.69.69 0 0 1 .688.688Z"/></svg>