<svg xmlns="http://www.w3.org/2000/svg" width="60" height="60" fill="none"><path fill="#282928" d="M11.447 36.431a3.97 3.97 0 0 0 3.183 1.583h1.983a3.97 3.97 0 0 0 3.181-1.584c.57-.75.852-1.647.819-2.556a2.84 2.84 0 0 0 2.042-2.72c0-.746-.29-1.425-.763-1.932a2.82 2.82 0 0 0 .174-4.011c.402-.736 1.064-1.51 2.227-2.63a12.4 12.4 0 0 0 3.84-9.016c0-6.898-5.614-12.51-12.513-12.51-6.9 0-12.51 5.612-12.51 12.51 0 3.433 1.362 6.635 3.835 9.015 1.165 1.123 1.827 1.896 2.23 2.629a2.823 2.823 0 0 0 .172 4.013 2.82 2.82 0 0 0-.763 1.932c0 1.289.865 2.379 2.045 2.721a3.97 3.97 0 0 0 .818 2.556m7.041-.994a2.34 2.34 0 0 1-1.875.936H14.63a2.34 2.34 0 0 1-1.876-.935 2.35 2.35 0 0 1-.485-1.45h6.704a2.34 2.34 0 0 1-.485 1.449m-7.233-7.116a1.19 1.19 0 0 1-1.193-1.19c0-.655.535-1.192 1.193-1.192h8.73a1.191 1.191 0 1 1 0 2.382zm1.587-11.537H11.52c-.828 0-1.664-.462-1.664-1.495 0-.824.67-1.495 1.495-1.495 1.03 0 1.491.84 1.491 1.671zm3.914 7.514h-2.273v-5.873h2.273zm-8.673-2.9a10.78 10.78 0 0 1-3.332-7.833c0-5.993 4.875-10.87 10.869-10.87s10.872 4.877 10.872 10.87a10.77 10.77 0 0 1-3.336 7.833c-1.109 1.068-1.946 1.98-2.504 2.98a2.8 2.8 0 0 0-.668-.08h-1.587v-5.873h1.322c1.917 0 3.308-1.319 3.308-3.136a3.14 3.14 0 0 0-3.136-3.136c-1.817 0-3.135 1.393-3.135 3.312v1.319h-2.273v-1.32c0-1.918-1.317-3.311-3.132-3.311a3.14 3.14 0 0 0-3.136 3.136c0 1.817 1.39 3.136 3.305 3.136h1.322v5.873h-1.588q-.344.001-.665.08c-.558-.998-1.396-1.91-2.506-2.98m10.314-4.614v-1.319c0-.832.462-1.67 1.494-1.67.825 0 1.495.67 1.495 1.494 0 1.033-.837 1.495-1.667 1.495zm-8.172 14.37a1.195 1.195 0 0 1 1.193-1.192h8.404c.657 0 1.192.535 1.192 1.192 0 .658-.534 1.193-1.192 1.193h-8.405a1.194 1.194 0 0 1-1.192-1.193m44.87 9.448-2.118-.482a11.6 11.6 0 0 0-.744-1.793l1.16-1.84c.604-.96.56-1.976-.115-2.651l-1.675-1.675c-.674-.679-1.69-.723-2.654-.117l-1.842 1.16a12 12 0 0 0-1.79-.745l-.483-2.124c-.255-1.105-1.005-1.792-1.955-1.792h-2.376c-.95 0-1.7.687-1.956 1.795l-.481 2.12c-.618.2-1.218.45-1.79.745l-1.843-1.159c-.963-.606-1.98-.562-2.651.114l-1.678 1.678c-.675.675-.719 1.691-.114 2.652l1.16 1.84c-.3.58-.548 1.18-.744 1.792l-2.117.481c-1.109.25-1.797.999-1.797 1.957v2.372c0 .958.688 1.708 1.795 1.956l2.119.481q.296.929.743 1.794L29.989 51c-.603.959-.56 1.975.115 2.655l1.678 1.677c.675.676 1.69.72 2.651.115l1.843-1.16a12 12 0 0 0 1.79.742l.482 2.123c.254 1.106 1.003 1.793 1.956 1.793h2.375c.952 0 1.701-.687 1.956-1.795l.482-2.121a12 12 0 0 0 1.789-.742l1.843 1.16c.96.604 1.977.56 2.652-.114l1.68-1.68c.672-.678.715-1.694.111-2.653l-1.16-1.84q.45-.872.744-1.793l2.117-.48c1.109-.25 1.797-1 1.797-1.957v-2.372c0-.958-.688-1.708-1.794-1.956m.154 4.328c0 .228-.429.336-.517.356l-2.588.588a.82.82 0 0 0-.61.584 10 10 0 0 1-.964 2.329.82.82 0 0 0 .019.842l1.415 2.246c.029.046.278.454.114.62l-1.677 1.677c-.164.164-.572-.085-.618-.114l-2.248-1.415a.82.82 0 0 0-.843-.02c-.731.416-1.515.741-2.328.967a.82.82 0 0 0-.581.609l-.588 2.585c-.012.053-.126.52-.356.52h-2.375c-.23 0-.344-.467-.356-.518L39.56 54.2a.82.82 0 0 0-.581-.61 10.3 10.3 0 0 1-2.329-.965.82.82 0 0 0-.842.019l-2.25 1.415c-.045.03-.453.278-.616.114l-1.675-1.675c-.167-.168.083-.576.111-.622l1.416-2.246a.82.82 0 0 0 .018-.845 10 10 0 0 1-.964-2.326.82.82 0 0 0-.61-.584l-2.59-.589c-.086-.02-.515-.127-.515-.355v-2.372c0-.233.462-.344.517-.356l2.588-.588a.82.82 0 0 0 .61-.584c.218-.803.543-1.586.965-2.329a.82.82 0 0 0-.02-.842l-1.415-2.246c-.029-.046-.277-.453-.114-.617l1.68-1.68c.16-.161.569.088.615.117l2.249 1.415a.82.82 0 0 0 .844.018 10.1 10.1 0 0 1 2.327-.968.82.82 0 0 0 .58-.609l.588-2.585c.012-.053.127-.52.356-.52h2.376c.23 0 .344.467.356.517l.587 2.588a.82.82 0 0 0 .581.609c.817.226 1.6.552 2.327.968a.82.82 0 0 0 .844-.018l2.25-1.415c.045-.03.454-.278.616-.114l1.678 1.677c.163.164-.085.572-.114.617l-1.415 2.246a.82.82 0 0 0-.018.844c.418.731.742 1.514.963 2.327a.82.82 0 0 0 .61.584l2.59.588c.053.012.515.123.515.356zm-13.556-8.152c-3.843 0-6.97 3.125-6.97 6.966s3.127 6.97 6.97 6.97 6.966-3.127 6.966-6.97a6.973 6.973 0 0 0-6.966-6.966m0 12.294a5.334 5.334 0 0 1-5.328-5.328 5.33 5.33 0 0 1 5.328-5.325 5.33 5.33 0 0 1 5.325 5.325 5.334 5.334 0 0 1-5.325 5.328m-18.969-5.094a1.83 1.83 0 0 0-2.004-.4 1.83 1.83 0 0 0-1.134 1.7v1.564c-3.775-.526-5.457-2.35-5.425-5.83.009-1.223-.633-1.805-1.237-1.942-.758-.171-1.564.297-1.96 1.14-1.34 2.85-1.16 6.092.48 8.673 1.664 2.62 4.602 4.2 8.142 4.41v1.725a1.834 1.834 0 0 0 1.84 1.841c.477 0 .945-.187 1.298-.54l4.87-4.87a1.84 1.84 0 0 0 0-2.602zm3.71 6.311-4.87 4.87a.18.18 0 0 1-.216.043.184.184 0 0 1-.121-.183v-2.522a.82.82 0 0 0-.82-.82H20.4c-3.33 0-6.089-1.34-7.572-3.674-1.337-2.104-1.479-4.757-.38-7.096a1 1 0 0 1 .06-.106q.012.081.011.198c-.042 4.601 2.59 7.15 7.82 7.576a.82.82 0 0 0 .887-.818v-2.478q0-.133.121-.184a.18.18 0 0 1 .216.043l4.87 4.87a.2.2 0 0 1 0 .281m8.075-27.407a1.83 1.83 0 0 0 2.002.398 1.83 1.83 0 0 0 1.136-1.7v-1.565c3.775.528 5.457 2.352 5.428 5.827-.012 1.223.63 1.806 1.233 1.943q.159.036.317.036c.657 0 1.302-.448 1.644-1.174 1.339-2.848 1.16-6.089-.479-8.67-1.664-2.62-4.602-4.203-8.143-4.414v-1.725c0-.748-.447-1.415-1.137-1.7a1.83 1.83 0 0 0-2.001.402l-4.87 4.87a1.84 1.84 0 0 0 0 2.598zm-3.71-6.312 4.872-4.871a.18.18 0 0 1 .213-.044q.121.051.122.183v2.521c0 .453.367.82.82.82 3.333 0 6.095 1.341 7.58 3.679 1.335 2.103 1.476 4.754.378 7.09a1 1 0 0 1-.058.104 1.4 1.4 0 0 1-.01-.196c.038-4.597-2.593-7.145-7.823-7.574l-.067-.003a.82.82 0 0 0-.82.82v2.482q0 .133-.123.183a.18.18 0 0 1-.214-.042l-4.87-4.874a.2.2 0 0 1 0-.278"/></svg>