<svg xmlns="http://www.w3.org/2000/svg" width="60" height="60" fill="none"><g stroke="#282928" stroke-linecap="round" stroke-linejoin="round" stroke-miterlimit="10" stroke-width="2" clip-path="url(#a)"><path d="M36.546 23.272c1.182-2.91 1.818-6.09 1.818-8.818 0-7.818-5.181-12.727-13.545-12.727S11.273 6.545 11.273 14.454c0 2.727.637 5.818 1.819 8.818"/><path d="M34.91 14.544c0 6.546-4.546 15.728-10.182 15.728S14.637 21.09 14.637 14.544s4.545-9.273 10.182-9.273c5.636 0 10.09 2.637 10.09 9.273"/><path d="M14.818 12.727s3.637 3.545 9.728 3.181c0 0-.91-1.272-1.273-3.181 0 0 5.454 4.545 11.727 2.727M41.547 21.817c-.637 2.545-2.182 4.273-4.728 3.636-.363-.09-.727-.272-1.09-.363 1.363-2.818 2.272-6 2.545-8.818.273 0 .454.09.727.09 2.546.637 3.091 2.91 2.546 5.455M13.82 25.09c-.364.181-.728.272-1.092.363-2.545.637-4.09-1.181-4.727-3.636-.636-2.546 0-4.818 2.546-5.455.272-.09.454-.09.727-.09.273 2.818 1.182 6 2.545 8.818M32.364 58.18H7.273C5 58.18 3 56.636 2.546 54.363c-.455-2-.728-4-.728-5.909 0-9.727 6-13.818 14.546-15.181"/><path d="M23.09 37.727 21.183 49.09l3.636 3.637 3.636-3.637-2-11.363zM27.09 34.727l-.636 3H23.09l-.545-3zM58.183 42.726v3.637h-2.636c-.273 1.727-1 3.363-2 4.727l1.818 1.818-2.455 2.546-1.818-1.819c-1.364 1-3 1.728-4.727 2v2.546h-3.637v-2.636c-1.727-.273-3.363-1-4.727-2l-1.818 1.818-2.546-2.455 1.819-1.818c-1-1.364-1.728-3-2-4.727H30.91v-3.637h2.637c.272-1.727 1-3.363 2-4.727l-1.819-1.818 2.546-2.545 1.818 1.818c1.364-1 3-1.728 4.727-2v-2.546h3.546v2.637c1.727.272 3.363 1 4.727 2l1.818-1.819 2.546 2.546-1.819 1.818c1 1.364 1.728 3 2 4.727h2.546z"/><path d="M44.546 50.817a6.273 6.273 0 1 0 0-12.546 6.273 6.273 0 0 0 0 12.546"/></g><defs><clipPath id="a"><path fill="#fff" d="M0 0h60v60H0z"/></clipPath></defs></svg>