<svg xmlns="http://www.w3.org/2000/svg" width="79.919" height="77.149"><path d="M13.601 61.077a4.325 4.325 0 0 1-4.253-5.073l.565-3.21H7.658a1.23 1.23 0 0 1 0-2.459h3.721a1.23 1.23 0 0 1 1.211 1.443l-.819 4.653a1.862 1.862 0 0 0 2.156 2.157l16.688-2.574a1.23 1.23 0 1 1 .375 2.431l-16.663 2.57a4 4 0 0 1-.726.062"/><path d="M31.74 74.077a1.23 1.23 0 0 1-1.157-.813l-5.384-14.932a1.23 1.23 0 0 1 2.313-.834l5.384 14.932a1.23 1.23 0 0 1-1.157 1.647ZM11.417 48.554H6.06a1.23 1.23 0 0 1-1.21-1.447c.313-1.744.646-3.764.779-4.785-.5-.152-1.275-.324-1.8-.439-2.182-.482-3.5-.773-3.785-1.916-.244-.976.44-1.752 2.853-4.293 1.207-1.271 3.454-3.638 3.623-4.378.121-1.1-.77-3.864-1.361-5.343-1.7-6.2 2.855-14.128 5.319-17.019A28.98 28.98 0 0 1 31.051 0a28.4 28.4 0 0 1 16.508 5.281 1.23 1.23 0 1 1-1.423 2.006A25.95 25.95 0 0 0 31.05 2.459a26.5 26.5 0 0 0-18.763 8.139c-2.275 2.675-6.1 9.789-4.8 14.574.249.6 1.7 4.365 1.474 6.416-.149 1.343-1.717 3.079-4.28 5.779-.537.566-1.195 1.259-1.67 1.8.448.115.966.23 1.349.314 2.28.5 3.787.837 3.787 2.241 0 .625-.351 2.788-.624 4.372h3.892a1.23 1.23 0 1 1 0 2.459Z"/><path d="M33.513 45.45a12.575 12.575 0 0 1-12.561-12.561c0-7.4 5.165-12.561 12.561-12.561a13 13 0 0 1 4.183.714L49.913 8.825a1.23 1.23 0 0 1 1.746.007l.425.415a21.94 21.94 0 0 1 7.051 13.036 1.23 1.23 0 0 1-2.432.368 19.4 19.4 0 0 0-5.91-11.229L38.866 23.35a1.23 1.23 0 0 1-1.4.241 10.4 10.4 0 0 0-3.956-.8 9.665 9.665 0 0 0-10.1 10.1 10.1 10.1 0 0 0 18.576 5.5 1.23 1.23 0 0 1 2.061 1.341 12.53 12.53 0 0 1-10.534 5.718"/><path d="M33.513 38.946a6.08 6.08 0 0 1-4.413-1.909 6.056 6.056 0 1 1 10.038-6.393 1.68 1.68 0 0 0 1.569 1.017h10.72a1.23 1.23 0 0 1 0 2.459h-10.72a4.16 4.16 0 0 1-3.853-2.563 3.6 3.6 0 0 0-3.573-2.255 3.64 3.64 0 0 0-3.358 3.358 3.6 3.6 0 0 0 5.057 3.517 1.23 1.23 0 1 1 1.005 2.244 6 6 0 0 1-2.472.525M42.44 27.63a1.23 1.23 0 0 1-.867-2.1l6.272-6.233a1.23 1.23 0 0 1 1.734 1.744l-6.272 6.233a1.23 1.23 0 0 1-.867.356M61.065 36.14a8.2 8.2 0 0 1 4.092 1.1l10.67 6.16a8.21 8.21 0 0 1 4.092 7.088v12.321a8.21 8.21 0 0 1-4.092 7.088l-10.67 6.16a8.18 8.18 0 0 1-8.184 0l-10.67-6.16a8.21 8.21 0 0 1-4.092-7.088V50.485a8.21 8.21 0 0 1 4.092-7.088l10.67-6.16a8.2 8.2 0 0 1 4.092-1.097m0 38.55a5.73 5.73 0 0 0 2.862-.767l10.67-6.16a5.74 5.74 0 0 0 2.862-4.958v-12.32a5.74 5.74 0 0 0-2.862-4.958l-10.67-6.16a5.73 5.73 0 0 0-5.725 0l-10.67 6.16a5.74 5.74 0 0 0-2.862 4.958v12.321a5.74 5.74 0 0 0 2.862 4.958l10.67 6.16a5.73 5.73 0 0 0 2.863.766"/><path d="M54.262 62.645a1.23 1.23 0 0 1-.92-.413l-4.237-4.772a1.23 1.23 0 0 1 .07-1.706l5-4.772a1.23 1.23 0 0 1 1.7 1.779l-4.14 3.953 3.449 3.885a1.23 1.23 0 0 1-.919 2.046ZM67.109 62.645a1.23 1.23 0 0 1-.849-2.119l4.066-3.882-4.066-3.882a1.23 1.23 0 1 1 1.7-1.779l5 4.772a1.23 1.23 0 0 1 0 1.779l-5 4.772a1.23 1.23 0 0 1-.851.339M58.449 62.646a1.23 1.23 0 0 1-1.122-1.732l4.274-9.543a1.23 1.23 0 0 1 2.244 1.005l-4.274 9.543a1.23 1.23 0 0 1-1.122.727M65.14 23.694h-7.221a1.23 1.23 0 0 1 0-2.459h6.578l2.347-3.373a1.23 1.23 0 0 1 2.019 1.4l-2.714 3.9a1.23 1.23 0 0 1-1.009.532M72.8 29.294H58.353a1.23 1.23 0 1 1 0-2.459H72.8a1.23 1.23 0 0 1 0 2.459"/><path d="M75.511 24.124a3.945 3.945 0 0 1 3.94 3.941 3.945 3.945 0 0 1-3.94 3.94 3.945 3.945 0 0 1-3.941-3.94 3.945 3.945 0 0 1 3.941-3.941m0 5.422a1.483 1.483 0 0 0 1.481-1.481 1.483 1.483 0 0 0-1.481-1.482 1.483 1.483 0 0 0-1.482 1.482 1.483 1.483 0 0 0 1.482 1.481M69.311 12.273a3.945 3.945 0 0 1 3.94 3.941 3.945 3.945 0 0 1-3.94 3.94 3.945 3.945 0 0 1-3.941-3.94 3.945 3.945 0 0 1 3.941-3.941m0 5.422a1.483 1.483 0 0 0 1.481-1.481 1.483 1.483 0 0 0-1.481-1.482 1.483 1.483 0 0 0-1.482 1.482 1.483 1.483 0 0 0 1.482 1.481M43.491 17.408a1.23 1.23 0 0 1-1-.508 14.48 14.48 0 0 0-11.692-5.973 1.23 1.23 0 0 1 0-2.459 16.95 16.95 0 0 1 13.684 6.99 1.23 1.23 0 0 1-.995 1.951Z"/></svg>