<svg xmlns="http://www.w3.org/2000/svg" width="60" height="60" fill="none"><g fill="#000" clip-path="url(#a)"><path d="M54.968 0H8.093a3.52 3.52 0 0 0-3.515 3.516v35.846a3.52 3.52 0 0 0 3.515 3.515h5.205L2.796 52.73a4.06 4.06 0 0 0-1.278 2.922 4.3 4.3 0 0 0 1.251 3.098 4.3 4.3 0 0 0 3.098 1.25 4.06 4.06 0 0 0 2.922-1.277L21.935 44.71c6.388 4.414 16.049 3.538 21.535-1.831h11.499a3.52 3.52 0 0 0 3.515-3.516V3.516A3.52 3.52 0 0 0 54.968 0M7.08 57.118c-.318.34-.762.53-1.25.538a1.95 1.95 0 0 1-1.403-.564 1.95 1.95 0 0 1-.565-1.404c.008-.488.2-.931.538-1.25l10.389-9.744 2.036 2.036zM18.43 45.02l-1.931-1.93 1.73-1.624q.846.977 1.824 1.823zm-2.132-15.033c0-8.4 6.834-15.234 15.234-15.234 20.183.765 20.177 29.706 0 30.469-8.4 0-15.234-6.835-15.234-15.235m38.671 10.547h-9.383c8.692-11.279.305-28.258-14.054-28.125-13.82-.135-22.364 15.775-14.721 27.175l-1.014.95H8.093a1.173 1.173 0 0 1-1.171-1.172V9.375h19.335c1.553-.058 1.552-2.287 0-2.344H6.922V3.516c0-.647.525-1.172 1.171-1.172h46.875c.646 0 1.172.525 1.172 1.172V7.03H36.804c-1.553.058-1.552 2.287 0 2.344H56.14v29.987c0 .646-.526 1.172-1.172 1.172"/><path d="M31.532 7.031h-.001c-.647 0-1.172.525-1.172 1.172.058 1.553 2.287 1.553 2.345 0 0-.647-.525-1.172-1.172-1.172M40.18 25.067l-3.729-3.729c-.436-.454-1.22-.453-1.657 0l-3.263 3.263-3.263-3.262c-.436-.454-1.22-.454-1.657 0l-3.729 3.728a1.17 1.17 0 0 0 0 1.658l3.263 3.262-3.263 3.263a1.17 1.17 0 0 0 0 1.658l3.73 3.728c.436.454 1.22.454 1.656 0l3.263-3.262 3.263 3.262c.437.454 1.22.454 1.657 0l3.73-3.728c.457-.458.457-1.2 0-1.658l-3.264-3.262 3.263-3.263c.458-.458.458-1.2 0-1.658m-5.748 4.092a1.17 1.17 0 0 0 0 1.657l3.262 3.263-2.071 2.072-3.263-3.263c-.436-.454-1.221-.454-1.657 0L27.44 36.15l-2.072-2.071 3.263-3.263c.458-.458.458-1.2 0-1.657l-3.263-3.263 2.072-2.072 3.262 3.263c.437.454 1.221.454 1.658 0l3.263-3.263 2.071 2.072z"/></g><defs><clipPath id="a"><path fill="#fff" d="M0 0h60v60H0z"/></clipPath></defs></svg>