<svg xmlns="http://www.w3.org/2000/svg" width="60" height="60" fill="none"><g fill="#000" clip-path="url(#a)"><path d="M26.91 27.637c.544 0 .908-.364.908-.91 0-.545-.364-.909-.909-.909s-.909.364-.909.91a.91.91 0 0 0 .91.909M26.91 34.453c.544 0 .908-.364.908-.91 0-.545-.364-.908-.909-.908s-.909.363-.909.909c0 .454.454.909.91.909M26.91 40c-.546 0-.91.364-.91.91 0 .545.454.908.91.908.454 0 .908-.363.908-.909 0-.545-.364-.909-.909-.909M30.456 27.637c.545 0 .91-.364.91-.91 0-.545-.365-.909-.91-.909-.546 0-.91.364-.91.91 0 .545.364.909.91.909M33.91 27.637c.545 0 .908-.364.908-.91 0-.545-.363-.909-.909-.909-.545 0-.909.364-.909.91a.91.91 0 0 0 .91.909M30.456 34.453c.545 0 .91-.364.91-.91 0-.545-.365-.908-.91-.908-.546 0-.91.363-.91.909a.91.91 0 0 0 .91.909M33.91 34.453c.545 0 .908-.364.908-.91 0-.545-.363-.908-.909-.908-.545 0-.909.363-.909.909 0 .454.455.909.91.909M30.456 40c-.546 0-.91.364-.91.91 0 .545.455.908.91.908.454 0 .91-.363.91-.909a.91.91 0 0 0-.91-.909M33.91 40c-.546 0-.91.364-.91.91 0 .545.455.908.91.908.545 0 .908-.363.908-.909 0-.545-.363-.909-.909-.909"/><path d="M1.364 35.454h7.091c.546 0 .91-.364.91-.91v-2.363h11.363v4.455h-9.546c-.545 0-.909.363-.909.909v13.818c-1.818.455-3.09 2-3.09 3.909 0 2.182 1.818 4 4 4s4-1.818 4-4c0-1.91-1.364-3.454-3.092-3.91V38.455h8.546v2.182c0 3 5 4.636 9.727 4.636s9.727-1.636 9.727-4.636v-2.182h8.546v12.909c-1.818.455-3.091 2-3.091 3.909 0 2.182 1.818 4 4 4s4-1.818 4-4c0-1.91-1.364-3.454-3.09-3.91V37.546c0-.546-.365-.91-.91-.91h-9.364v-4.454h10.455v2.364c0 .545.364.909.909.909h7.09c.546 0 .91-.364.91-.91v-6.636c0-.545-.364-.909-.91-.909h-7.09c-.545 0-.91.364-.91.91v2.363H40.183v-6.91h9.455c.545 0 .909-.363.909-.908V8.636c1.818-.455 3.09-2 3.09-3.91 0-2.181-1.817-4-4-4-2.18 0-4 1.819-4 4 0 1.91 1.364 3.455 3.092 3.91v12.909h-8.546v-2.182c0-3-5-4.636-9.727-4.636s-9.727 1.636-9.727 4.636v2.182h-8.546V8.635c1.819-.454 3.091-2 3.091-3.908 0-2.182-1.818-4-4-4s-4 1.818-4 4c0 1.909 1.364 3.454 3.091 3.909v13.818c0 .545.364.909.91.909h9.454v6.909H9.364v-2.364c0-.545-.363-.909-.909-.909h-7.09c-.546 0-.91.364-.91.91v6.636c0 .545.364.909.91.909m12 19.818c0 1.182-1 2.182-2.182 2.182s-2.181-1-2.181-2.182 1-2.182 2.181-2.182c1.182-.09 2.182.91 2.182 2.182m38.455 0c0 1.182-1 2.182-2.182 2.182s-2.182-1-2.182-2.182 1-2.182 2.182-2.182c1.182-.09 2.182.91 2.182 2.182m.636-26.454h5.273v4.818h-5.273zm-5-24.091c0-1.182 1-2.182 2.182-2.182s2.182 1 2.182 2.182-1 2.181-2.182 2.181C48.455 7 47.455 6 47.455 4.727m-38.454 0c0-1.182 1-2.182 2.181-2.182s2.182 1 2.182 2.182-1 2.181-2.182 2.181C10.001 7 9.001 6 9.001 4.727M30.455 24.09c5.364 0 7.818-1.818 7.91-1.818v4.273c0 1.182-3.092 2.818-7.91 2.818s-7.909-1.636-7.909-2.818v-4.273s2.545 1.818 7.91 1.818m0 7c2.546 0 5.818-.545 7.91-1.818v4.273c0 1.182-3.092 2.818-7.91 2.818s-7.909-1.636-7.909-2.818v-4.273c2 1.364 5.364 1.818 7.91 1.818m7.91 9.455c0 1.182-3.092 2.818-7.91 2.818s-7.909-1.636-7.909-2.818v-4.273c2.09 1.364 5.454 1.818 7.91 1.818 2.545 0 5.908-.545 7.908-1.818zm-7.91-23.91c4.818 0 7.91 1.637 7.91 2.819s-3.092 2.818-7.91 2.818-7.909-1.636-7.909-2.818 3-2.818 7.91-2.818M2.273 28.818h5.273v4.819H2.273z"/></g><defs><clipPath id="a"><path fill="#fff" d="M0 0h60v60H0z"/></clipPath></defs></svg>