<svg xmlns="http://www.w3.org/2000/svg" width="61" height="60" fill="none"><path fill="#000" d="M56.164 9.735a1.259 1.259 0 0 0-1.682-1.426l-1.408.538C48.82 3.507 40.35 4.92 38.036 11.315a.887.887 0 0 0 1.667.603c1.75-4.839 8.033-6.196 11.608-2.398l-.955.365a1.26 1.26 0 0 0-.303 2.184l3.305 2.466c.741.552 1.803.145 1.986-.758zm-2.396 2.894-1.906-1.422 2.379-.908zM53.924 16.117a.887.887 0 0 0-1.135.533c-1.78 4.927-8.215 6.2-11.723 2.28l.94-.359a1.26 1.26 0 0 0 .304-2.184l-3.306-2.466a1.258 1.258 0 0 0-1.986.758l-.82 4.042a1.26 1.26 0 0 0 1.682 1.426l1.438-.55c4.195 5.476 12.803 4.122 15.139-2.345a.886.886 0 0 0-.533-1.135m-15.802 2.04.472-2.33L40.5 17.25z"/><path fill="#000" d="M39.14 1.915C24.85-2.183 0 .607 0 7.988v44.04C0 57.206 12.142 60 23.566 60s23.566-2.794 23.566-7.972V39.162a.886.886 0 1 0-1.773 0v1.856c0 2.834-8.782 6.2-21.793 6.2s-21.793-3.366-21.793-6.2v-7.82c7.67 6.347 35.918 6.344 43.586 0v1.828a.886.886 0 1 0 1.773 0v-6.5c2.177-.135 4.3-.767 6.19-1.847a.886.886 0 1 0-.881-1.54c-8.288 4.742-18.572-1.28-18.69-10.695C33.664 7.475 39.308 1.79 46.245 1.79c6.89 0 12.496 5.606 12.496 12.496a12.46 12.46 0 0 1-3.283 8.442.887.887 0 0 0 1.307 1.198 14.23 14.23 0 0 0 3.75-9.64c0-10.94-11.895-17.837-21.376-12.37m6.219 42.295v7.818c0 2.833-8.782 6.2-21.793 6.2s-21.793-3.367-21.793-6.2V44.21c7.67 6.344 35.917 6.342 43.586 0m-7.92-18.695a14.15 14.15 0 0 0 7.92 3.012v1.481c0 2.834-8.785 6.2-21.793 6.2-13.009 0-21.793-3.366-21.793-6.2V22.19c5.601 4.632 23.442 6.218 35.667 3.325m-1.596-1.464c-15.304 3.14-34.07-.626-34.07-5.053V11.18c5.303 4.387 20.098 5.537 30.252 4.278a14.16 14.16 0 0 0 3.818 8.593m-3.854-10.377C16.815 15.606 1.773 11.867 1.773 7.988c0-4.659 20.403-8.384 35.436-4.75a14.16 14.16 0 0 0-5.22 10.436"/></svg>