<svg xmlns="http://www.w3.org/2000/svg" width="60" height="60" fill="none"><g fill="#000" clip-path="url(#a)"><path d="M41.719 17.168a1.172 1.172 0 1 0 0-2.344 1.172 1.172 0 0 0 0 2.344"/><path d="M46.201 42.192c4.636 0 8.408-3.773 8.408-8.41a8.4 8.4 0 0 0-2.832-6.286c.255-.163.492-.58.489-.95V15.998c.008-.576-.506-1.18-1.172-1.172h-4.102c-.645 0-1.172.526-1.172 1.172s.526 1.172 1.172 1.172h2.93v8.204H33.516V17.17h2.93c.645 0 1.171-.527 1.171-1.172 0-.646-.526-1.172-1.172-1.172h-4.101c-.576-.009-1.179.505-1.172 1.172V20.1h-9.577a3.52 3.52 0 0 0-2.142-4.486v-2.722h8.203c.648 0 1.172-.525 1.172-1.172V1.172C28.828.525 28.304 0 27.656 0H8.906C8.26 0 7.734.525 7.734 1.172V11.72c0 .647.525 1.172 1.172 1.172h8.203v2.721a3.52 3.52 0 0 0-2.142 4.487h-6.06a1.172 1.172 0 0 0 0 2.344h22.265v4.102c-.009.575.505 1.178 1.172 1.172h8.203v7.643a3.52 3.52 0 0 0-2.142 4.487h-9.577v-9.376c0-.647-.524-1.172-1.172-1.172H8.906c-.647 0-1.172.524-1.172 1.172V41.02c0 .392.193.738.489.95a8.4 8.4 0 0 0-2.832 6.287c0 4.636 3.772 8.409 8.408 8.409h29.93l-1.323 1.347a1.17 1.17 0 0 0 .015 1.657c.426.415 1.173.47 1.657-.015l3.281-3.34a1.17 1.17 0 0 0 0-1.643l-3.28-3.34a1.172 1.172 0 1 0-1.673 1.643l1.323 1.347H21.595a3.52 3.52 0 0 0-2.142-4.486V42.19zM10.078 2.344h16.406v8.204H10.078zm7.031 16.584a1.173 1.173 0 0 1 2.344 0c0 .647-.526 1.172-1.172 1.172a1.173 1.173 0 0 1-1.172-1.172m29.092 8.79a6.07 6.07 0 0 1 6.065 6.065 6.07 6.07 0 0 1-6.065 6.065h-1.168a3.52 3.52 0 0 0-2.142-4.486v-7.645zm-5.654 10.958c0-.647.526-1.172 1.172-1.172a1.173 1.173 0 0 1 0 2.344 1.173 1.173 0 0 1-1.172-1.172m-30.469 1.172v-8.204h16.406v8.204zM17.11 53.15c0-.647.526-1.172 1.172-1.172a1.173 1.173 0 0 1 0 2.344 1.173 1.173 0 0 1-1.172-1.172m0-3.315a3.52 3.52 0 0 0-2.142 4.487H13.8a6.07 6.07 0 0 1-6.065-6.065 6.07 6.07 0 0 1 6.065-6.065h3.31z"/><path d="M20.977 36.914h1.992a1.172 1.172 0 0 0 0-2.344h-1.992a1.172 1.172 0 1 0 0 2.344m-4.102-1.172c0-.647-.525-1.172-1.172-1.172h-2.11a1.172 1.172 0 1 0 0 2.344h2.11c.647 0 1.172-.525 1.172-1.172M15.703 5.273h-2.11a1.172 1.172 0 1 0 0 2.344h2.11a1.172 1.172 0 1 0 0-2.344m5.274 2.344h1.992a1.172 1.172 0 0 0 0-2.344h-1.992a1.172 1.172 0 1 0 0 2.344m23.437 14.824h1.992a1.172 1.172 0 1 0 0-2.343h-1.992a1.172 1.172 0 1 0 0 2.343M35.86 21.27a1.17 1.17 0 0 0 1.171 1.171h2.11a1.172 1.172 0 1 0 0-2.343h-2.11c-.647 0-1.172.524-1.172 1.172"/></g><defs><clipPath id="a"><path fill="#fff" d="M0 0h60v60H0z"/></clipPath></defs></svg>