<svg xmlns="http://www.w3.org/2000/svg" width="60" height="60" fill="none"><g fill="#000" clip-path="url(#a)"><path d="M55.313 15h-1.218a8.438 8.438 0 1 0-12.565 0H30V5.624a.94.94 0 0 0-.937-.937h-3.75a.937.937 0 0 0-.938.937V15h-.937V1.874A.94.94 0 0 0 22.5.937h-3.75a.937.937 0 0 0-.937.937V15h-.938V8.438a.94.94 0 0 0-.937-.938h-3.75a.937.937 0 0 0-.938.938V15H4.688a3.754 3.754 0 0 0-3.75 3.75v28.124a3.754 3.754 0 0 0 3.75 3.75h19.324l-1.25 3.75h-3.075a.937.937 0 0 0-.937.938v1.875H9.375a.937.937 0 1 0 0 1.875h41.25a.938.938 0 0 0 0-1.875H41.25v-1.875a.937.937 0 0 0-.937-.937h-3.074l-1.25-3.75h19.324a3.754 3.754 0 0 0 3.75-3.75V18.75a3.754 3.754 0 0 0-3.75-3.75M48.75 2.88a6.58 6.58 0 0 1 5.557 5.557H48.75zm-.55 7.432h6.107a6.558 6.558 0 0 1-10.423 4.316zm-6.95-.938a6.57 6.57 0 0 1 5.625-6.494v6.107l-4.316 4.316a6.53 6.53 0 0 1-1.309-3.929m-15-2.812h1.875v17.813H26.25zm-2.812 10.313h.937v7.5h-.937zm-3.75-14.063h1.875v21.563h-1.875zm-2.813 14.063h.938v7.5h-.938zm-3.75-7.5H15v15h-1.875zm26.25 46.875v.937h-18.75v-.937zm-14.637-1.876 1.25-3.75h8.023l1.25 3.75zm32.45-7.5a1.88 1.88 0 0 1-1.876 1.875H4.688a1.88 1.88 0 0 1-1.875-1.875V45h54.375zm0-3.75H2.813V18.75a1.877 1.877 0 0 1 1.874-1.875h6.563v7.5h-.937V18.75a.937.937 0 0 0-.938-.938h-3.75a.937.937 0 0 0-.937.938v6.562a.937.937 0 0 0 .937.938h30a.94.94 0 0 0 .938-.938V18.75a.937.937 0 0 0-.938-.938h-3.75a.937.937 0 0 0-.937.938v5.625H30v-7.5h13.955a8.4 8.4 0 0 0 7.715 0h3.642a1.877 1.877 0 0 1 1.876 1.875zM8.438 19.687v4.688H6.562v-4.688zm24.374 4.688v-4.688h1.876v4.688z"/><path d="M11.25 45.938H5.625a.938.938 0 0 0 0 1.874h5.625a.938.938 0 0 0 0-1.874m3.75 0h-.937a.938.938 0 0 0 0 1.874H15a.938.938 0 0 0 0-1.874m25.313-21.563a.93.93 0 0 0 .662-.275l3.476-3.475H52.5a.937.937 0 1 0 0-1.875h-8.437a.94.94 0 0 0-.663.275l-3.75 3.75a.938.938 0 0 0 .663 1.6M52.5 34.688a2.81 2.81 0 0 0-2.432 1.402l-9.815-5.726a2.813 2.813 0 0 0-5.52.07l-9.877 7.408a2.81 2.81 0 0 0-4.86.256l-9.763-4.068a2.814 2.814 0 1 0-.23 1.935l9.762 4.067a2.812 2.812 0 0 0 5.501-.154l9.877-7.408a2.81 2.81 0 0 0 4.788-.123l9.815 5.726a2.813 2.813 0 1 0 2.753-3.386m-44.063.004a.94.94 0 1 1 0-.005zm14.062 5.62a.94.94 0 0 1-.937-.937v-.005a.938.938 0 1 1 .937.943m15-8.437a.938.938 0 1 1 0-1.875.938.938 0 0 1 0 1.875m15 6.563a.938.938 0 1 1 0-1.876.938.938 0 0 1 0 1.876"/><path d="M45 40.313h-6.562a.938.938 0 0 0 0 1.874H45a.938.938 0 0 0 0-1.874m0-2.813h-2.812a.938.938 0 0 0 0 1.875H45a.938.938 0 0 0 0-1.875M5.625 29.063h10.313a.938.938 0 0 0 0-1.875H5.624a.938.938 0 0 0 0 1.875m13.126 0h.938a.938.938 0 0 0 0-1.875h-.938a.938.938 0 0 0 0 1.875"/></g><defs><clipPath id="a"><path fill="#fff" d="M0 0h60v60H0z"/></clipPath></defs></svg>