<svg xmlns="http://www.w3.org/2000/svg" width="60" height="60" fill="none"><path fill="#000" d="M26.72 35.166c-5.657 0-10.986-1.07-15.007-3.01-4.183-2.021-6.486-4.766-6.486-7.734a.703.703 0 0 1 1.404 0c0 2.398 2.022 4.695 5.693 6.469 3.834 1.85 8.946 2.87 14.397 2.87.974 0 1.96-.034 2.932-.1a.702.702 0 1 1 .098 1.4c-1.005.07-2.024.105-3.03.105m17.709-4.778a.703.703 0 0 1-.434-1.256c1.841-1.441 2.815-3.07 2.815-4.71a.703.703 0 0 1 1.404 0c0 2.087-1.16 4.098-3.352 5.816a.7.7 0 0 1-.433.15m-17.71 15.41c-5.657 0-10.986-1.07-15.007-3.011-4.183-2.02-6.486-4.766-6.486-7.733a.703.703 0 0 1 1.404 0c0 2.398 2.022 4.695 5.693 6.468 3.834 1.852 8.946 2.871 14.397 2.871l.21-.001h.076a.702.702 0 0 1 .005 1.405z"/><path fill="#000" d="M5.927 46.389a.703.703 0 0 1-.702-.703V14.38a.703.703 0 0 1 1.404 0v31.306a.7.7 0 0 1-.702.703"/><path fill="#000" d="M26.72 56.43c-5.657 0-10.986-1.069-15.007-3.01-4.183-2.02-6.486-4.766-6.486-7.733a.703.703 0 0 1 1.404 0c0 2.398 2.022 4.695 5.693 6.467 3.834 1.851 8.946 2.87 14.397 2.87 2.612 0 5.156-.233 7.56-.697a.703.703 0 0 1 .266 1.38c-2.492.48-5.125.724-7.826.724m20.792-24.674a.703.703 0 0 1-.703-.702v-17.5a.703.703 0 0 1 1.405 0v17.5a.7.7 0 0 1-.702.702"/><path fill="#000" d="M26.72 24.535c-5.642 0-10.968-1.071-14.995-3.017-4.19-2.025-6.498-4.769-6.498-7.727s2.307-5.704 6.498-7.727c4.028-1.945 9.354-3.017 14.996-3.017s10.968 1.07 14.995 3.017c4.19 2.024 6.498 4.768 6.498 7.727 0 2.958-2.307 5.703-6.498 7.727-4.029 1.945-9.354 3.017-14.995 3.017m0-20.083c-5.435 0-10.543 1.022-14.384 2.877C8.658 9.105 6.631 11.4 6.631 13.79s2.026 4.685 5.705 6.462c3.842 1.855 8.95 2.877 14.385 2.877 5.434 0 10.543-1.022 14.384-2.877 3.678-1.777 5.705-4.072 5.705-6.462s-2.026-4.686-5.705-6.462c-3.842-1.855-8.95-2.877-14.384-2.877m13.752 52.684c-7.922 0-14.367-6.445-14.367-14.366s6.445-14.367 14.366-14.367c7.922 0 14.366 6.445 14.366 14.367s-6.443 14.366-14.366 14.366m0-27.328c-7.148 0-12.963 5.815-12.963 12.962 0 7.148 5.815 12.963 12.962 12.963 7.148 0 12.963-5.815 12.963-12.963S47.62 29.807 40.472 29.807"/><path fill="#000" d="M38.432 53.564a.7.7 0 0 1-.496-.206l-8.506-8.506a.703.703 0 0 1 .118-1.09l5.98-3.825a.7.7 0 0 1 .876.095l6.352 6.351a.7.7 0 0 1 .095.876l-3.827 5.982a.7.7 0 0 1-.592.323m-7.391-9.087 7.27 7.27 3.052-4.767-5.553-5.553z"/><path fill="#000" d="M31.76 46.892a.703.703 0 0 1-.334-1.32l3.387-1.831a.703.703 0 0 1 .668 1.236l-3.387 1.83a.7.7 0 0 1-.335.085m4.82 4.819a.703.703 0 0 1-.617-1.037l1.83-3.387a.703.703 0 1 1 1.236.668l-1.831 3.388a.7.7 0 0 1-.619.368m-2.399-2.399a.703.703 0 0 1-.496-1.2l2.45-2.451a.703.703 0 0 1 .994.994l-2.45 2.451a.7.7 0 0 1-.498.206m7.314-2.495a.7.7 0 0 1-.496-.206l-4.819-4.818a.703.703 0 0 1 0-.994l1.683-1.683a.703.703 0 0 1 .994 0l4.819 4.818a.704.704 0 0 1 0 .993L41.99 46.61a.7.7 0 0 1-.498.207m-3.826-5.52 3.826 3.825.69-.69-3.825-3.826z"/><path fill="#000" d="M41.818 43.777a.7.7 0 0 1-.497-.206l-2.103-2.103a.703.703 0 0 1 0-.994l6.208-6.209a2.194 2.194 0 0 1 3.098 0c.412.412.64.962.64 1.549a2.17 2.17 0 0 1-.64 1.549l-6.208 6.208a.7.7 0 0 1-.498.206m-1.111-2.806 1.11 1.11 5.71-5.71a.78.78 0 0 0 .228-.556c0-.21-.08-.408-.228-.555a.787.787 0 0 0-1.11 0z"/></svg>