<svg xmlns="http://www.w3.org/2000/svg" width="60" height="60" fill="none"><path fill="#000" d="M48.75 52.5a.938.938 0 0 1 0-1.875 1.875 1.875 0 0 0 1.875-1.875v-37.5a1.875 1.875 0 0 0-1.875-1.875h-37.5a1.875 1.875 0 0 0-1.875 1.875v30.938a.937.937 0 0 1-1.875 0V11.25a3.75 3.75 0 0 1 3.75-3.75h37.5a3.75 3.75 0 0 1 3.75 3.75v37.5a3.75 3.75 0 0 1-3.75 3.75m-15.937 0H11.25a3.75 3.75 0 0 1-3.75-3.75V45a.937.937 0 0 1 1.875 0v3.75a1.875 1.875 0 0 0 1.875 1.875h21.563a.938.938 0 0 1 0 1.875"/><path fill="#000" d="M48.75 16.875h-4.687a.938.938 0 0 1 0-1.875h4.687a.938.938 0 0 1 0 1.875m-7.5 0h-30a.938.938 0 0 1 0-1.875h30a.938.938 0 0 1 0 1.875M15 13.125h-1.875a.938.938 0 0 1 0-1.875H15a.938.938 0 0 1 0 1.875m5.625 0H18.75a.938.938 0 0 1 0-1.875h1.875a.938.938 0 0 1 0 1.875m5.625 0h-1.875a.938.938 0 0 1 0-1.875h1.875a.938.938 0 0 1 0 1.875M44.063 52.5a.94.94 0 0 1-.663-.275l-4.025-4.024-3.087 3.087a.938.938 0 0 1-1.572-.435l-3.75-15a.937.937 0 0 1 1.137-1.137l15 3.75a.938.938 0 0 1 .435 1.572l-3.087 3.087 4.024 4.025a.94.94 0 0 1 0 1.325l-3.75 3.75a.94.94 0 0 1-.663.275m-4.688-6.562c.249 0 .487.098.663.274l4.025 4.025 2.424-2.425-4.025-4.024a.937.937 0 0 1 0-1.326l2.58-2.579-11.878-2.969 2.97 11.877 2.578-2.579a.94.94 0 0 1 .663-.275m-7.499-13.124a.94.94 0 0 1-.937-.938V30a.938.938 0 0 1 1.875 0v1.875a.94.94 0 0 1-.938.938m-2.653 1.097a.94.94 0 0 1-.663-.275l-1.326-1.326a.936.936 0 0 1 .66-1.612.94.94 0 0 1 .666.287l1.326 1.325a.937.937 0 0 1-.663 1.6m-1.097 2.654H26.25a.938.938 0 0 1 0-1.876h1.875a.938.938 0 0 1 0 1.876m-.229 3.977a.938.938 0 0 1-.663-1.6l1.326-1.325a.938.938 0 0 1 1.326 1.325l-1.326 1.326a.94.94 0 0 1-.663.275m6.631-6.631a.937.937 0 0 1-.663-1.6l1.326-1.326a.938.938 0 0 1 1.326 1.325l-1.326 1.326a.94.94 0 0 1-.663.275m12.348-5.785h-33.75a.94.94 0 0 1-.937-.937v-7.5a.94.94 0 0 1 .937-.938h33.75a.94.94 0 0 1 .938.938v7.5a.94.94 0 0 1-.938.937M14.063 26.25h31.874v-5.625H14.064zm8.437 5.625h-9.375a.938.938 0 0 1 0-1.875H22.5a.938.938 0 0 1 0 1.875m0 4.688h-9.375a.938.938 0 0 1 0-1.876H22.5a.938.938 0 0 1 0 1.876m0 4.687h-9.375a.938.938 0 0 1 0-1.875H22.5a.938.938 0 0 1 0 1.875m7.5 4.688H13.125a.938.938 0 0 1 0-1.876H30a.938.938 0 0 1 0 1.876"/></svg>