<svg xmlns="http://www.w3.org/2000/svg" width="60" height="60" fill="none"><g fill="#000" clip-path="url(#a)"><path d="M56.25 25.781H37.5a3.76 3.76 0 0 0-3.75 3.75v16.407a3.76 3.76 0 0 0 3.75 3.75h18.75a3.76 3.76 0 0 0 3.75-3.75V29.53a3.76 3.76 0 0 0-3.75-3.75M37.5 27.656h18.75c1.034 0 1.875.841 1.875 1.875v1.875h-22.5v-1.875c0-1.034.84-1.875 1.875-1.875m18.75 20.157H37.5a1.877 1.877 0 0 1-1.875-1.876V33.282h22.5v12.657c0 1.034-.84 1.874-1.875 1.874"/><path d="M51.328 30.469a.938.938 0 1 0 0-1.875.938.938 0 0 0 0 1.875m3.75 0a.938.938 0 1 0 0-1.875.938.938 0 0 0 0 1.875M26.25 45.938V29.53a3.76 3.76 0 0 0-3.75-3.75H3.75A3.76 3.76 0 0 0 0 29.531v16.407a3.76 3.76 0 0 0 3.75 3.75H22.5a3.76 3.76 0 0 0 3.75-3.75M3.75 27.656H22.5c1.034 0 1.875.841 1.875 1.875v1.875h-22.5v-1.875c0-1.034.84-1.875 1.875-1.875M1.875 45.938V33.28h22.5v12.657c0 1.034-.84 1.874-1.875 1.874H3.75a1.877 1.877 0 0 1-1.875-1.874"/><path d="M17.578 30.469a.938.938 0 1 0 0-1.875.938.938 0 0 0 0 1.875m3.75 0a.938.938 0 1 0 0-1.875.938.938 0 0 0 0 1.875m-.703-6.563h18.75a3.76 3.76 0 0 0 3.75-3.75V3.75A3.76 3.76 0 0 0 39.375 0h-18.75a3.76 3.76 0 0 0-3.75 3.75v16.406a3.76 3.76 0 0 0 3.75 3.75m18.75-1.875h-18.75a1.877 1.877 0 0 1-1.875-1.875V7.5h22.5v12.656c0 1.034-.84 1.875-1.875 1.875M20.625 1.875h18.75c1.034 0 1.875.84 1.875 1.875v1.875h-22.5V3.75c0-1.034.84-1.875 1.875-1.875"/><path d="M34.453 4.688a.937.937 0 1 0 0-1.875.937.937 0 0 0 0 1.874m3.75.001a.937.937 0 1 0 0-1.875.937.937 0 0 0 0 1.874M7.5 23.906c.518 0 .938-.42.938-.937v-11.25h2.545l-.236.157a.937.937 0 1 0 1.038 1.56l2.797-1.859a.937.937 0 0 0 .004-1.559l-2.813-1.89a.939.939 0 0 0-1.046 1.556l.237.16H7.5a.94.94 0 0 0-.937.937V22.97c0 .517.42.937.937.937m38.438-12.188h5.624v8.151l-.159-.237a.939.939 0 0 0-1.556 1.047l1.89 2.812a.94.94 0 0 0 .779.414h.002a.94.94 0 0 0 .778-.418l1.86-2.797a.937.937 0 0 0-1.562-1.038l-.157.236V10.78a.94.94 0 0 0-.937-.937h-6.562a.938.938 0 0 0 0 1.875m.937 39.727a.94.94 0 0 0-.937.938v5.742H14.063v-2.546l.157.237a.937.937 0 0 0 1.56-1.039l-1.859-2.796a.94.94 0 0 0-.778-.419h-.002a.94.94 0 0 0-.778.415l-1.891 2.812a.938.938 0 0 0 1.556 1.047l.16-.237v3.464c0 .517.42.937.937.937h33.75c.518 0 .938-.42.938-.937v-6.68a.94.94 0 0 0-.938-.938"/></g><defs><clipPath id="a"><path fill="#fff" d="M0 0h60v60H0z"/></clipPath></defs></svg>