<svg xmlns="http://www.w3.org/2000/svg" width="60" height="60" fill="none"><g fill="#000" clip-path="url(#a)"><path d="M5.625 13.594a.957.957 0 0 1 .973-.938h46.804a.957.957 0 0 1 .973.938v28.125h1.875V13.594a2.834 2.834 0 0 0-2.848-2.813H6.598a2.833 2.833 0 0 0-2.848 2.813v28.125h1.875zm52.805 30H1.604a1.562 1.562 0 0 0-1.492 2.148l.423 1.117a3.89 3.89 0 0 0 3.438 2.36H56.06a3.89 3.89 0 0 0 3.437-2.36l.424-1.117c.201-.533.118-2.089-1.492-2.148m-.687 2.6a2.02 2.02 0 0 1-1.682 1.15H3.973a2.02 2.02 0 0 1-1.683-1.15l-.274-.725h56.001z"/><path d="M39.883 21.388c-1.275-1.653-3.754-2.3-5.522-1.016l-3.351 2.432a3.53 3.53 0 0 0-1.42 2.38c-.1.76.015 1.534.336 2.232l-1.059.768a4.24 4.24 0 0 0-2.693-.998 3.63 3.63 0 0 0-2.148.684l-3.35 2.433a3.52 3.52 0 0 0-1.419 2.38 4.17 4.17 0 0 0 .86 3.117 4.32 4.32 0 0 0 3.373 1.7 3.63 3.63 0 0 0 2.148-.684l3.35-2.432a3.53 3.53 0 0 0 1.42-2.38 4.1 4.1 0 0 0-.385-2.342l1.02-.74a4.25 4.25 0 0 0 2.78 1.08 3.63 3.63 0 0 0 2.147-.685l3.352-2.431c2.591-2.08 1.21-4.657.56-5.498M28.55 31.738a1.66 1.66 0 0 1-.664 1.129s-3.349 2.43-3.35 2.432c-.951.69-2.275.21-2.936-.646-.64-.828-.75-2.16.176-2.833l3.35-2.432a1.77 1.77 0 0 1 1.047-.327c.38.004.755.103 1.087.288l-.849.617a.94.94 0 0 0-.208 1.31.947.947 0 0 0 1.31.207l.946-.687c.101.303.132.625.091.942m9.67-6.37-3.352 2.431a1.76 1.76 0 0 1-1.046.327 2.3 2.3 0 0 1-1.197-.353l.89-.645a.936.936 0 0 0-.061-1.558.94.94 0 0 0-1.041.04l-.912.662a2.1 2.1 0 0 1-.055-.822 1.65 1.65 0 0 1 .664-1.128l3.352-2.432c.949-.69 2.276-.212 2.936.645.364.472.975 1.87-.177 2.833m-2.964 7.599a.936.936 0 0 0-1.552.157.94.94 0 0 0 .107 1.037l.843 1.021a.936.936 0 0 0 1.553-.157.94.94 0 0 0-.107-1.037zm-4.373 1.783-.362 1.033a.938.938 0 0 0 1.768.62l.363-1.032a.938.938 0 0 0-1.769-.621m7.161-2.41a.937.937 0 0 0-.151-1.868l-1.142.092a.938.938 0 0 0 .075 1.872c.025 0 1.218-.095 1.218-.095m-13.303-8.123a.95.95 0 0 0 1.32.126.94.94 0 0 0 .126-1.32l-.844-1.021a.937.937 0 1 0-1.445 1.194zm3.488-1.156a.96.96 0 0 0 .885-.624l.363-1.034a.937.937 0 1 0-1.77-.62l-.362 1.032a.945.945 0 0 0 .884 1.246m-6.274 1.785a.938.938 0 0 0 .075 1.872c.025 0 1.217-.095 1.217-.095a.937.937 0 1 0-.15-1.869z"/></g><defs><clipPath id="a"><path fill="#fff" d="M0 0h60v60H0z"/></clipPath></defs></svg>