<svg xmlns="http://www.w3.org/2000/svg" width="60" height="60" fill="none"><path fill="#000" d="M54.673 12.527a1.8 1.8 0 0 0-2.545 0l-9.527 9.527-8.255-8.255 9.527-9.527a1.8 1.8 0 1 0-2.545-2.545l-9.527 9.527-4.128-4.127c-.675-.675-1.87-.675-2.545 0l-6.582 6.583a16.08 16.08 0 0 0-4.745 11.453v7.69l-6.673 6.674a1.8 1.8 0 0 0 0 2.545L9.456 44.4 6.82 47.036A6.84 6.84 0 0 0 4.8 51.91c0 3.798 3.092 6.89 6.892 6.89h16.509a1.8 1.8 0 1 0 0-3.6H11.692a3.295 3.295 0 0 1-3.291-3.29c0-.867.351-1.714.964-2.328l2.636-2.637 2.327 2.328a1.797 1.797 0 0 0 2.545 0l6.673-6.673h7.69c4.327 0 8.395-1.684 11.455-4.744l6.582-6.583a1.8 1.8 0 0 0 0-2.545L45.146 24.6l9.527-9.527a1.8 1.8 0 0 0 0-2.545M15.601 45.454l-4.655-4.655 4.655-4.655 4.655 4.655zM40.146 35.31a12.53 12.53 0 0 1-8.91 3.69h-7.69l-6.145-6.146v-7.69c0-3.367 1.31-6.53 3.69-8.91l5.31-5.31L45.456 30z"/></svg>