<svg xmlns="http://www.w3.org/2000/svg" width="60" height="60" fill="none"><g clip-path="url(#a)"><path fill="#000" d="m34.806 32.095-5.537 5.537-6.9-6.901 5.536-5.537a1.875 1.875 0 1 0-2.651-2.652l-5.537 5.537-2.517-2.517a1.875 1.875 0 0 0-2.652 0l-6.313 6.313C3.2 36.91 2.789 44.841 6.998 50.351L.549 56.799a1.875 1.875 0 1 0 2.652 2.652l6.448-6.449a14.04 14.04 0 0 0 8.53 2.876 14.02 14.02 0 0 0 9.946-4.113l6.313-6.313a1.875 1.875 0 0 0 0-2.652l-2.517-2.517 5.537-5.537a1.875 1.875 0 1 0-2.652-2.651m-9.333 17.019c-4.021 4.021-10.565 4.021-14.586 0-4.022-4.022-4.022-10.565 0-14.587l4.987-4.988 14.587 14.587zM59.451.549a1.875 1.875 0 0 0-2.652 0l-6.448 6.449C44.84 2.788 36.909 3.2 31.875 8.235l-6.313 6.313a1.875 1.875 0 0 0 0 2.652L42.8 34.438a1.875 1.875 0 0 0 2.652 0l6.313-6.313c5.034-5.035 5.446-12.966 1.237-18.476l6.449-6.448a1.875 1.875 0 0 0 0-2.652M49.114 25.473l-4.988 4.988-14.587-14.587 4.988-4.988c4.022-4.021 10.565-4.021 14.587 0 4.021 4.022 4.021 10.565 0 14.587"/></g><defs><clipPath id="a"><path fill="#fff" d="M0 0h60v60H0z"/></clipPath></defs></svg>