<svg xmlns="http://www.w3.org/2000/svg" width="60" height="60" fill="none"><path stroke="#000" stroke-linecap="round" stroke-linejoin="round" stroke-miterlimit="10" stroke-width="2" d="M22.027 20.873c3.508-4.495 8.976-7.385 15.118-7.385 2.653 0 5.18.54 7.478 1.514M31.83 44.001c-4.262-2-7.213-6.329-7.213-11.347 0-6.919 5.609-12.527 12.527-12.527q.942 0 1.846.135m-15.583-1.324-2.175-2.174m-1.57 1.192 2.762-2.763M35.09 9.979v3.403m3.9-.022V9.98m-6.406-4.337h8.912V9.69h-8.912zM21.043 24.482H2.025m16.449 6.262H7.432m26.753 20.848c-7.745-1.2-13.957-7.038-15.71-14.586h-6.557"/><path stroke="#000" stroke-linecap="round" stroke-linejoin="round" stroke-miterlimit="10" stroke-width="2" d="M51.71 13.76 33.755 37.04h9.78l-4.138 17.553L57.83 30.645H47.674z"/></svg>