<svg xmlns="http://www.w3.org/2000/svg" width="60" height="60" fill="none"><path fill="#000" d="M35.808 15.158c2.1 0 3.809-1.709 3.809-3.809s-1.709-3.808-3.809-3.808A3.813 3.813 0 0 0 32 11.349c0 2.1 1.708 3.809 3.808 3.809m0-6.367a2.564 2.564 0 0 1 2.559 2.558 2.564 2.564 0 0 1-2.559 2.559 2.564 2.564 0 0 1-2.558-2.559 2.564 2.564 0 0 1 2.558-2.558M8.409 23.749l-1.075 1.075a.63.63 0 0 0 0 .883.62.62 0 0 0 .441.183.62.62 0 0 0 .442-.183l1.075-1.075a.63.63 0 0 0 0-.883.62.62 0 0 0-.883 0m3.556 0-1.075 1.075a.63.63 0 0 0 0 .883.62.62 0 0 0 .442.183.62.62 0 0 0 .442-.183l1.075-1.075a.63.63 0 0 0 0-.883.62.62 0 0 0-.884 0m3.559 0-1.075 1.075a.63.63 0 0 0 0 .883.62.62 0 0 0 .441.183.62.62 0 0 0 .442-.183l1.075-1.075a.63.63 0 0 0 0-.883.62.62 0 0 0-.883 0m3.566 0-1.075 1.075a.63.63 0 0 0 0 .883.62.62 0 0 0 .442.183.62.62 0 0 0 .442-.183l1.075-1.075a.63.63 0 0 0 0-.883.62.62 0 0 0-.884 0m3.559 0-1.075 1.075a.63.63 0 0 0 0 .883.62.62 0 0 0 .441.183.62.62 0 0 0 .442-.183l1.075-1.075a.63.63 0 0 0 0-.883.62.62 0 0 0-.883 0m3.558 0-1.075 1.075a.63.63 0 0 0 0 .883.62.62 0 0 0 .442.183.62.62 0 0 0 .442-.183l1.075-1.075a.63.63 0 0 0 0-.883.62.62 0 0 0-.884 0m-17.798 4.06-1.075 1.075a.63.63 0 0 0 0 .883.62.62 0 0 0 .441.183.62.62 0 0 0 .442-.183l1.075-1.075a.63.63 0 0 0 0-.883.614.614 0 0 0-.883 0m3.556-.002-1.075 1.075a.63.63 0 0 0 0 .884.62.62 0 0 0 .442.183.62.62 0 0 0 .442-.183l1.075-1.075a.63.63 0 0 0 0-.884.62.62 0 0 0-.884 0m3.559.002-1.075 1.075a.63.63 0 0 0 0 .883.62.62 0 0 0 .441.183.62.62 0 0 0 .442-.183l1.075-1.075a.63.63 0 0 0 0-.883.614.614 0 0 0-.883 0m3.566 0-1.075 1.075a.63.63 0 0 0 0 .883.62.62 0 0 0 .442.183.62.62 0 0 0 .442-.183l1.075-1.075a.63.63 0 0 0 0-.883.614.614 0 0 0-.884 0m3.559-.002-1.075 1.075a.63.63 0 0 0 0 .884.62.62 0 0 0 .441.183.62.62 0 0 0 .442-.183l1.075-1.075a.63.63 0 0 0 0-.884.62.62 0 0 0-.883 0m3.558.002-1.075 1.075a.63.63 0 0 0 0 .883.62.62 0 0 0 .442.183.62.62 0 0 0 .442-.183l1.075-1.075a.63.63 0 0 0 0-.883.614.614 0 0 0-.884 0m-17.8 11.708-1.075 1.075a.614.614 0 0 0 0 .883.62.62 0 0 0 .442.184.62.62 0 0 0 .441-.184L9.29 40.4a.63.63 0 0 0 0-.883.63.63 0 0 0-.883 0m3.558 0-1.075 1.075a.63.63 0 0 0 0 .883.62.62 0 0 0 .442.184.62.62 0 0 0 .442-.184l1.075-1.075a.63.63 0 0 0 0-.883.63.63 0 0 0-.884 0m3.559 0-1.075 1.075a.63.63 0 0 0 0 .883.62.62 0 0 0 .441.184.62.62 0 0 0 .442-.184l1.075-1.075a.63.63 0 0 0 0-.883.63.63 0 0 0-.883 0m3.566 0-1.075 1.075a.63.63 0 0 0 0 .883.62.62 0 0 0 .442.184.62.62 0 0 0 .442-.184l1.075-1.075a.63.63 0 0 0 0-.883.63.63 0 0 0-.884 0m3.559 0-1.075 1.075a.63.63 0 0 0 0 .883.62.62 0 0 0 .441.184.62.62 0 0 0 .442-.184l1.075-1.075a.63.63 0 0 0 0-.883.63.63 0 0 0-.883 0m3.558 0-1.075 1.075a.63.63 0 0 0 0 .883.62.62 0 0 0 .442.184.62.62 0 0 0 .442-.184L27.09 40.4a.63.63 0 0 0 0-.883.63.63 0 0 0-.884 0M8.409 43.574l-1.075 1.075a.63.63 0 0 0 0 .883.62.62 0 0 0 .441.184.62.62 0 0 0 .442-.184l1.075-1.075a.63.63 0 0 0 0-.883.63.63 0 0 0-.883 0m3.556 0-1.075 1.075a.63.63 0 0 0 0 .883.62.62 0 0 0 .442.184.62.62 0 0 0 .442-.184l1.075-1.075a.63.63 0 0 0 0-.883.63.63 0 0 0-.884 0m3.559 0-1.075 1.075a.63.63 0 0 0 0 .883.62.62 0 0 0 .441.184.62.62 0 0 0 .442-.184l1.075-1.075a.63.63 0 0 0 0-.883.63.63 0 0 0-.883 0m3.566 0-1.075 1.075a.63.63 0 0 0 0 .883.62.62 0 0 0 .442.184.62.62 0 0 0 .442-.184l1.075-1.075a.63.63 0 0 0 0-.883.63.63 0 0 0-.884 0m3.559 0-1.075 1.075a.63.63 0 0 0 0 .883.62.62 0 0 0 .441.184.62.62 0 0 0 .442-.184l1.075-1.075a.63.63 0 0 0 0-.883.63.63 0 0 0-.883 0m3.558 0-1.075 1.075a.63.63 0 0 0 0 .883.62.62 0 0 0 .442.184.62.62 0 0 0 .442-.184l1.075-1.075a.63.63 0 0 0 0-.883.63.63 0 0 0-.884 0M7.775 10.126a.62.62 0 0 0 .442-.184l1.075-1.075a.63.63 0 0 0 0-.883.63.63 0 0 0-.883 0L7.334 9.059a.624.624 0 0 0 .442 1.067m3.556 0a.62.62 0 0 0 .442-.184l1.075-1.075a.63.63 0 0 0 0-.883.63.63 0 0 0-.884 0L10.89 9.059a.63.63 0 0 0 0 .883.64.64 0 0 0 .442.184m3.558 0a.62.62 0 0 0 .442-.184l1.075-1.075a.63.63 0 0 0 0-.883.63.63 0 0 0-.883 0l-1.075 1.075a.63.63 0 0 0 0 .883.66.66 0 0 0 .441.184m3.567 0a.62.62 0 0 0 .442-.184l1.075-1.075a.63.63 0 0 0 0-.883.63.63 0 0 0-.884 0l-1.075 1.075a.624.624 0 0 0 .442 1.067m3.559 0a.62.62 0 0 0 .441-.184l1.075-1.075a.63.63 0 0 0 0-.883.63.63 0 0 0-.883 0l-1.075 1.075a.63.63 0 0 0 0 .883.64.64 0 0 0 .441.184m3.559 0a.62.62 0 0 0 .442-.184l1.075-1.075a.63.63 0 0 0 0-.883.63.63 0 0 0-.884 0l-1.075 1.075a.63.63 0 0 0 0 .883.66.66 0 0 0 .442.184M9.292 12.033a.63.63 0 0 0-.883 0l-1.075 1.083a.63.63 0 0 0 0 .883.62.62 0 0 0 .441.184.62.62 0 0 0 .442-.184l1.075-1.075a.64.64 0 0 0 0-.891m2.04 2.149a.62.62 0 0 0 .442-.183l1.075-1.075a.63.63 0 0 0 0-.883.63.63 0 0 0-.884 0l-1.075 1.075a.63.63 0 0 0 0 .883.64.64 0 0 0 .442.183m3.558 0a.62.62 0 0 0 .442-.183l1.075-1.075a.63.63 0 0 0 0-.883.63.63 0 0 0-.883 0l-1.075 1.075a.63.63 0 0 0 0 .883.66.66 0 0 0 .441.183m3.567 0a.62.62 0 0 0 .442-.183l1.075-1.075a.63.63 0 0 0 0-.883.63.63 0 0 0-.884 0l-1.075 1.075a.625.625 0 0 0 .442 1.067m3.559-.001a.62.62 0 0 0 .441-.183l1.075-1.075a.63.63 0 0 0 0-.883.63.63 0 0 0-.883 0l-1.075 1.075a.63.63 0 0 0 0 .883.64.64 0 0 0 .441.183m3.559 0a.62.62 0 0 0 .442-.183l1.075-1.075a.63.63 0 0 0 0-.883.63.63 0 0 0-.884 0l-1.075 1.075a.63.63 0 0 0 0 .883.66.66 0 0 0 .442.183m10.234 16.743c2.1 0 3.809-1.708 3.809-3.808s-1.709-3.808-3.809-3.808A3.81 3.81 0 0 0 32 27.117c0 2.1 1.708 3.808 3.808 3.808m0-6.366a2.564 2.564 0 0 1 2.559 2.558 2.564 2.564 0 0 1-2.559 2.558 2.564 2.564 0 0 1-2.558-2.558 2.564 2.564 0 0 1 2.558-2.558"/><path fill="#000" d="M52.741 34.475c-.017-.017-.025-.034-.042-.042a13.02 13.02 0 0 0-8.866-4.533v-8a2.065 2.065 0 0 0-2.067-2.059h-2.117v-1.925h2.117a2.066 2.066 0 0 0 2.067-2.066V6.133a2.066 2.066 0 0 0-2.067-2.067H5.608A2.066 2.066 0 0 0 3.54 6.133v9.708c0 1.142.925 2.067 2.067 2.067h2.116v1.925H5.608a2.065 2.065 0 0 0-2.067 2.058v9.717c0 1.142.925 2.067 2.067 2.067h2.116v1.933H5.608a2.066 2.066 0 0 0-2.067 2.067v9.708c0 1.142.925 2.075 2.067 2.075h25.9a13.06 13.06 0 0 0 5.833 5.3c.467.217.967.417 1.475.575 1.275.4 2.6.608 3.95.608 1.467 0 2.9-.241 4.267-.716h.008c.675-.234 1.35-.534 2-.884.017-.008.042-.025.058-.033a13.07 13.07 0 0 0 6.709-11.4c0-2.483-.7-4.9-2.025-6.983a11 11 0 0 0-1.042-1.45m-4.508 18.858a9 9 0 0 1-1.025.467l-5.492-15.35h2.458l3.2 10.55a.625.625 0 0 0 .6.441h.009a.615.615 0 0 0 .591-.45l2.234-7.783a.66.66 0 0 0-.092-.542c-.5-.691-1.717-2.766-1.333-4.025.191-.625.583-1.091 1.116-1.308a1.72 1.72 0 0 1 1.375.042q.438.527.8 1.091c.375 1.8-.658 4.809-.675 4.859zm-9.617.575c-.167-.067-.342-.125-.508-.2l-5.134-16.167h2.192l4.45 13.275zm1.633-5.142-3.758-11.225h.308a.63.63 0 0 0 .625-.625.63.63 0 0 0-.625-.625h-3.808a11.8 11.8 0 0 1 9.775-5.2c2.892 0 5.642 1.067 7.775 2.95a3 3 0 0 0-.525.15c-.883.359-1.533 1.109-1.833 2.1-.55 1.792.816 4.075 1.341 4.867l-1.566 5.458-2.475-8.166h.291a.63.63 0 0 0 .625-.625.63.63 0 0 0-.625-.625h-5.983a.63.63 0 0 0-.625.625.63.63 0 0 0 .625.625h.608l1.625 4.541zM4.791 15.841V6.133c0-.45.367-.817.817-.817h36.166c.45 0 .817.367.817.817v9.708c0 .45-.367.817-.817.817H5.608a.82.82 0 0 1-.817-.817m4.175 2.067h29.433v1.925H8.966zM4.791 31.616V21.9a.81.81 0 0 1 .817-.809h36.158c.45 0 .817.367.817.809v7.95a13 13 0 0 0-7.6 2.583H5.608a.83.83 0 0 1-.817-.817m4.175 2.059h24.558a13.3 13.3 0 0 0-1.591 1.933H8.966zM5.608 48.2a.82.82 0 0 1-.817-.825v-9.7c0-.45.367-.817.817-.817h25.591a13 13 0 0 0-1.475 6.025c0 1.867.409 3.667 1.142 5.317zm25.358-5.317c0-1.583.333-3.142.942-4.583l4.633 14.6a11.83 11.83 0 0 1-5.575-10.017M39.799 54.3l1.067-3.292V51l1.842-6.025 3.308 9.241c-2.008.575-4.183.6-6.217.084m10.067-2 3.317-10.575c.033-.084.466-1.359.691-2.825a11.79 11.79 0 0 1-4.008 13.4"/><path fill="#000" d="M56.399 33.558c-1.759-3.9-5.092-5.667-7.567-6.459a.614.614 0 0 0-.783.409.62.62 0 0 0 .408.783c2.242.717 5.242 2.3 6.808 5.784a.63.63 0 0 0 .567.366.6.6 0 0 0 .258-.058.62.62 0 0 0 .309-.825M45.89 27.741c.017 0 .276.025.71.092a.625.625 0 1 0 .208-1.233 8 8 0 0 0-.834-.109.62.62 0 0 0-.667.583.637.637 0 0 0 .584.667"/></svg>