<svg xmlns="http://www.w3.org/2000/svg" width="60" height="60" fill="none"><g fill="#000" clip-path="url(#a)"><path d="M11.822 29.625a2.867 2.867 0 0 0 2.864-2.864c0-.551-.165-1.062-.437-1.499l3.335-3.251c.45.297.988.473 1.566.473.69 0 1.315-.256 1.81-.664l2.948 2.302a2.8 2.8 0 0 0-.288 1.227 2.864 2.864 0 0 0 2.857 2.863 2.866 2.866 0 0 0 2.864-2.863 2.864 2.864 0 0 0-2.864-2.858 2.83 2.83 0 0 0-1.806.662l-2.947-2.301c.18-.375.289-.79.289-1.232a2.86 2.86 0 0 0-5.72 0c0 .553.164 1.065.435 1.503l-3.338 3.253a2.85 2.85 0 0 0-1.568-.471 2.86 2.86 0 0 0 0 5.72m14.656-5.9c.898 0 1.63.728 1.63 1.624 0 .898-.732 1.63-1.63 1.63a1.626 1.626 0 0 1 0-3.254m-7.328-5.728c.899 0 1.63.728 1.63 1.623 0 .9-.731 1.63-1.63 1.63a1.63 1.63 0 0 1-1.624-1.63c0-.895.728-1.623 1.624-1.623m-7.328 7.14c.9 0 1.63.74 1.63 1.624 0 .9-.73 1.63-1.63 1.63a1.63 1.63 0 0 1-1.624-1.63c0-.895.729-1.623 1.624-1.623m-1.744 13.829h3.496c.774 0 1.404-.63 1.404-1.405v-4.22c0-.775-.63-1.404-1.404-1.404h-3.496c-.774 0-1.404.63-1.404 1.404v4.22c0 .775.63 1.405 1.404 1.405m-.17-5.625a.17.17 0 0 1 .17-.171h3.496a.17.17 0 0 1 .17.17v4.221a.17.17 0 0 1-.17.171h-3.496a.17.17 0 0 1-.17-.17z"/><path d="M20.9 24.68h-3.496c-.774 0-1.404.63-1.404 1.403v11.481c0 .774.63 1.404 1.404 1.404H20.9c.774 0 1.404-.63 1.404-1.404v-11.48c0-.774-.63-1.404-1.404-1.404m.17 12.884a.17.17 0 0 1-.17.171h-3.496a.17.17 0 0 1-.17-.171v-11.48a.17.17 0 0 1 .17-.171H20.9a.17.17 0 0 1 .17.17zM41.353 23.23a2.872 2.872 0 0 0 0-5.742 2.872 2.872 0 0 0 0 5.742m0-4.509a1.637 1.637 0 0 1 0 3.276 1.637 1.637 0 0 1 0-3.275"/><path d="M31.736 22.433a.616.616 0 0 0-.335.728c.223.79.532 1.547.918 2.247a.616.616 0 0 0 .749.284 2.33 2.33 0 0 1 2.427.521c.628.629.832 1.582.517 2.427a.616.616 0 0 0 .285.758 11 11 0 0 0 2.257.916.616.616 0 0 0 .728-.336 2.3 2.3 0 0 1 2.078-1.333c.89 0 1.703.522 2.07 1.33a.62.62 0 0 0 .719.342c.754-.2 1.515-.51 2.264-.922a.616.616 0 0 0 .282-.752c-.31-.846-.108-1.8.515-2.428a2.33 2.33 0 0 1 2.426-.525.62.62 0 0 0 .746-.273 10 10 0 0 0 .923-2.257.62.62 0 0 0-.338-.73 2.277 2.277 0 0 1 0-4.145.62.62 0 0 0 .343-.714 9.6 9.6 0 0 0-.924-2.279.62.62 0 0 0-.757-.278 2.29 2.29 0 0 1-2.416-.51 2.31 2.31 0 0 1-.519-2.423.62.62 0 0 0-.277-.752 9.8 9.8 0 0 0-2.268-.93.615.615 0 0 0-.72.341 2.28 2.28 0 0 1-2.07 1.344 2.29 2.29 0 0 1-2.076-1.344.61.61 0 0 0-.73-.338 10.5 10.5 0 0 0-2.264.927.616.616 0 0 0-.277.752 2.27 2.27 0 0 1-.517 2.421 2.3 2.3 0 0 1-2.42.511.62.62 0 0 0-.757.284 10 10 0 0 0-.92 2.268.62.62 0 0 0 .338.718 2.29 2.29 0 0 1 1.333 2.078 2.29 2.29 0 0 1-1.333 2.072m2.566-2.072a3.53 3.53 0 0 0-1.577-2.934q.18-.547.452-1.106a3.52 3.52 0 0 0 3.19-.946 3.48 3.48 0 0 0 .953-3.193q.526-.255 1.106-.45a3.52 3.52 0 0 0 2.933 1.585c1.188 0 2.288-.61 2.93-1.589q.553.184 1.099.453a3.55 3.55 0 0 0 .953 3.196 3.52 3.52 0 0 0 3.192.945q.272.553.45 1.101a3.52 3.52 0 0 0-1.586 2.938c0 1.188.605 2.286 1.58 2.928q-.196.589-.444 1.096a3.57 3.57 0 0 0-3.196.958 3.56 3.56 0 0 0-.95 3.196q-.549.27-1.098.45a3.52 3.52 0 0 0-2.93-1.577 3.53 3.53 0 0 0-2.93 1.572 10 10 0 0 1-1.109-.45 3.53 3.53 0 0 0-.954-3.193 3.56 3.56 0 0 0-3.187-.956 10 10 0 0 1-.449-1.1 3.52 3.52 0 0 0 1.572-2.924m-6.073 9.159h-3.497c-.774 0-1.404.63-1.404 1.403v6.64c0 .775.63 1.405 1.404 1.405h3.497c.773 0 1.403-.63 1.403-1.404v-6.64c0-.775-.63-1.404-1.403-1.404m.17 8.044a.17.17 0 0 1-.17.17h-3.497a.17.17 0 0 1-.17-.17v-6.64a.17.17 0 0 1 .17-.171h3.497a.17.17 0 0 1 .17.17z"/><path d="M59.537 4.64A4.24 4.24 0 0 0 55.302.403H4.699A4.24 4.24 0 0 0 .465 4.64c0 2.32 1.877 4.21 4.193 4.232V39.38a4.31 4.31 0 0 0 4.31 4.304H22.44l-3.165 6.328H15.48a.616.616 0 1 0 0 1.234h3.179l-3.732 7.46a.617.617 0 1 0 1.103.551l4.008-8.011h19.927l4.004 8.011a.617.617 0 0 0 1.104-.551l-3.73-7.46h3.18a.616.616 0 1 0 0-1.234h-3.796l-3.163-6.328h13.474a4.31 4.31 0 0 0 4.304-4.304V8.87a4.24 4.24 0 0 0 4.195-4.232M39.349 50.01H20.655l3.166-6.328h12.365zm14.76-10.632a3.075 3.075 0 0 1-3.07 3.07H8.967a3.077 3.077 0 0 1-3.077-3.07V8.874h48.218zM55.302 7.64H4.699a3.005 3.005 0 0 1-3.001-3 3.005 3.005 0 0 1 3.001-3.003h50.603a3.005 3.005 0 0 1 3.001 3.002 3.005 3.005 0 0 1-3.001 3.001"/></g><defs><clipPath id="a"><path fill="#fff" d="M0 0h60v60H0z"/></clipPath></defs></svg>