<svg xmlns="http://www.w3.org/2000/svg" width="60" height="60" fill="none"><g fill="#000" clip-path="url(#a)"><path d="M46.875 40.313a6.57 6.57 0 0 0-6.562 6.562 6.57 6.57 0 0 0 6.562 6.563 6.57 6.57 0 0 0 6.563-6.563 6.57 6.57 0 0 0-6.563-6.562m0 11.25a4.693 4.693 0 0 1-4.687-4.688 4.693 4.693 0 0 1 4.687-4.687 4.693 4.693 0 0 1 4.688 4.687 4.693 4.693 0 0 1-4.688 4.688"/><path d="M46.875 44.063a2.816 2.816 0 0 0-2.812 2.812 2.816 2.816 0 0 0 2.812 2.813 2.816 2.816 0 0 0 2.813-2.813 2.816 2.816 0 0 0-2.813-2.812m0 3.75a.94.94 0 0 1-.937-.938.938.938 0 1 1 .937.938M3.392 24.375h.358v14.063h1.875V22.5H3.392a.58.58 0 0 1-.519-.838l3.171-6.341c.198-.395.84-.395 1.036 0l3.17 6.34a.58.58 0 0 1-.517.838H7.5v15.939h1.875V24.374h.358a2.457 2.457 0 0 0 2.196-3.552l-3.17-6.34a2.44 2.44 0 0 0-2.197-1.358 2.44 2.44 0 0 0-2.195 1.357l-3.17 6.34a2.457 2.457 0 0 0 2.196 3.552m14.099 2.395a2.44 2.44 0 0 0 2.195 1.357 2.44 2.44 0 0 0 2.196-1.357l3.17-6.34a2.457 2.457 0 0 0-2.196-3.552H22.5V2.811h-1.875V18.75h2.233a.58.58 0 0 1 .519.838l-3.171 6.341c-.198.395-.84.395-1.036 0L16 19.59a.58.58 0 0 1 .518-.838h2.232V2.811h-1.875v14.063h-.358a2.457 2.457 0 0 0-2.196 3.552z"/><path d="M54.375.938h-22.5a4.693 4.693 0 0 0-4.687 4.687v25.353a12.23 12.23 0 0 0-9.33 5.587l-.046-.002c-3.811 0-7.25 2.354-8.674 5.832a6.57 6.57 0 0 0-8.2 6.355A6.57 6.57 0 0 0 7.5 55.313h30.578l.51.51a2.88 2.88 0 0 0 3.338.534.96.96 0 0 1 .82-.036q.181.08.365.151a.96.96 0 0 1 .559.608 2.88 2.88 0 0 0 2.738 1.983h.934a2.88 2.88 0 0 0 2.738-1.984.96.96 0 0 1 .557-.606 9 9 0 0 0 .369-.15.96.96 0 0 1 .818.035 2.88 2.88 0 0 0 3.339-.535l.66-.66a2.875 2.875 0 0 0 .535-3.338.96.96 0 0 1-.036-.82q.08-.181.151-.365a.96.96 0 0 1 .608-.559 2.88 2.88 0 0 0 1.981-2.74V5.626A4.693 4.693 0 0 0 54.376.938m-22.5 1.875h22.5a2.816 2.816 0 0 1 2.813 2.812v38.09c-.038-.014-.072-.033-.11-.046a.96.96 0 0 1-.605-.557 9 9 0 0 0-.15-.369.97.97 0 0 1 .035-.818 2.875 2.875 0 0 0-.535-3.338l-.51-.51V6.563a1.877 1.877 0 0 0-1.876-1.875H32.814c-1.035 0-1.876.84-1.876 1.875V31.27a12 12 0 0 0-1.875-.297V5.625a2.816 2.816 0 0 1 2.813-2.812M38.981 37.6a12.26 12.26 0 0 0-6.169-5.712v-2.826h20.626v8.042a2.88 2.88 0 0 0-1.614.287.96.96 0 0 1-.82.036q-.18-.078-.365-.151a.96.96 0 0 1-.559-.608 2.88 2.88 0 0 0-2.738-1.981h-.934a2.88 2.88 0 0 0-2.738 1.983.96.96 0 0 1-.56.606 10 10 0 0 0-.366.15.96.96 0 0 1-.818-.035 2.87 2.87 0 0 0-2.945.21m14.456-25.413H32.814V6.562h20.624zm-20.624 1.874h20.624v5.626H32.814zm0 7.5h20.624v5.625H32.814zm-30 27.188a4.693 4.693 0 0 1 6.533-4.309l.974.417.296-1.017a7.53 7.53 0 0 1 7.197-5.404 7.5 7.5 0 0 1 6.237 3.334l1.558-1.042a9.37 9.37 0 0 0-5.641-3.909 10.35 10.35 0 0 1 8.158-4.008c4.1 0 7.83 2.475 9.455 6.205a2.87 2.87 0 0 0-.187 2.908.96.96 0 0 1 .036.82q-.08.181-.151.365a.96.96 0 0 1-.608.559 2.88 2.88 0 0 0-1.983 2.74v.933c0 1.248.797 2.348 1.984 2.738a.96.96 0 0 1 .606.557q.071.186.15.369a.97.97 0 0 1-.035.818 2.87 2.87 0 0 0-.287 1.614H7.5a4.693 4.693 0 0 1-4.687-4.688m54.375-1.408c0 .436-.279.82-.694.957a2.83 2.83 0 0 0-1.768 1.661q-.06.15-.123.298a2.83 2.83 0 0 0 .081 2.412c.197.389.122.858-.186 1.166l-.661.66a1.005 1.005 0 0 1-1.166.187 2.83 2.83 0 0 0-2.41-.081l-.302.124a2.83 2.83 0 0 0-1.66 1.769 1.01 1.01 0 0 1-.957.693h-.934c-.436 0-.82-.279-.957-.694a2.83 2.83 0 0 0-1.661-1.768q-.15-.06-.298-.123a2.8 2.8 0 0 0-1.112-.232c-.444 0-.888.105-1.3.312-.39.196-.858.122-1.166-.186l-.66-.661a1.005 1.005 0 0 1-.187-1.166 2.83 2.83 0 0 0 .081-2.41 11 11 0 0 1-.124-.302 2.83 2.83 0 0 0-1.769-1.66 1 1 0 0 1-.693-.956v-.934c0-.436.279-.82.693-.957a2.83 2.83 0 0 0 1.77-1.661q.059-.15.122-.298a2.83 2.83 0 0 0-.081-2.412 1.01 1.01 0 0 1 .186-1.167l.66-.66a1 1 0 0 1 1.167-.186 2.83 2.83 0 0 0 2.41.081q.15-.065.3-.123a2.84 2.84 0 0 0 1.662-1.769c.136-.415.521-.694.957-.694h.934c.436 0 .82.279.957.694a2.83 2.83 0 0 0 1.66 1.768q.15.06.3.123a2.83 2.83 0 0 0 2.41-.081 1.005 1.005 0 0 1 1.168.186l.66.66c.308.309.383.778.186 1.167a2.83 2.83 0 0 0-.081 2.41l.124.302a2.83 2.83 0 0 0 1.769 1.66c.414.136.693.521.693.957z"/><path d="M34.688 8.438h1.874v1.874h-1.874zm3.75 0h1.874v1.874h-1.874zm-3.75 15h1.874v1.875h-1.874zm3.75 0h1.874v1.875h-1.874zm11.25-7.5h1.874v1.874h-1.874zm-3.75 0h1.874v1.874h-1.874zm3.75 15h1.874v1.875h-1.874zm-3.75 0h1.874v1.875h-1.874zm-17.813 3.75a8.4 8.4 0 0 0-2.11.266l.468 1.816a6.6 6.6 0 0 1 1.642-.208 6.56 6.56 0 0 1 6.356 4.922l1.816-.467a8.434 8.434 0 0 0-8.172-6.33m-10.312 5.626a5.64 5.64 0 0 0-5.512 4.5l1.837.374a3.76 3.76 0 0 1 3.675-3c1.19 0 2.285.547 3.001 1.501l1.5-1.126a5.58 5.58 0 0 0-4.5-2.25"/></g><defs><clipPath id="a"><path fill="#fff" d="M0 0h60v60H0z"/></clipPath></defs></svg>