<svg xmlns="http://www.w3.org/2000/svg" width="60" height="60" fill="none"><g fill="#000" clip-path="url(#a)"><path d="M48.883 42.789a27.04 27.04 0 1 0-6.1 6.1l9.852 9.849a4.31 4.31 0 0 0 6.1 0 4.32 4.32 0 0 0 0-6.091zM2 27a25 25 0 1 1 25 25A25.03 25.03 0 0 1 2 27m45.643 17.376 1.644 1.644-3.267 3.266-1.643-1.643a27 27 0 0 0 3.266-3.267m9.676 12.952a2.36 2.36 0 0 1-3.26-.005L47.434 50.7l3.266-3.266 6.624 6.623a2.32 2.32 0 0 1-.005 3.271"/><path d="M27 37c.301 0 .599-.068.87-.2A12.48 12.48 0 0 0 35 25.732v-5.359a1.99 1.99 0 0 0-1.669-1.973 41 41 0 0 1-5.726-1.3 1.9 1.9 0 0 0-1.211 0 41 41 0 0 1-5.731 1.3A1.994 1.994 0 0 0 19 20.373v5.36A12.48 12.48 0 0 0 26.126 36.8c.272.133.571.202.874.2m-6-11.268v-5.357A41 41 0 0 0 26.982 19 42 42 0 0 0 33 20.371v5.361A10.61 10.61 0 0 1 27 35a10.61 10.61 0 0 1-6-9.268"/><path d="M32.228 4.6a1 1 0 1 0-.456 1.947A21.009 21.009 0 1 1 27 6a1 1 0 1 0 0-2 22.99 22.99 0 1 0 5.228.6"/><path d="M29.6 24.2a1 1 0 0 0-1.4.2l-2.309 3.078-.185-.185a1 1 0 0 0-1.414 1.414l1 1A1 1 0 0 0 26 30h.071a1 1 0 0 0 .73-.4l3-4a1 1 0 0 0-.2-1.4"/><path d="M27 46a1 1 0 0 0 1-1v-1.051A16.994 16.994 0 0 0 43.949 28H45a1 1 0 0 0 0-2h-1.051A16.994 16.994 0 0 0 28 10.051V9a1 1 0 0 0-2 0v1.051A16.994 16.994 0 0 0 10.051 26H9a1 1 0 0 0 0 2h1.051A16.994 16.994 0 0 0 26 43.949V45a1 1 0 0 0 1 1M12.051 28H14a1 1 0 0 0 0-2h-1.949A15 15 0 0 1 26 12.051V14a1 1 0 0 0 2 0v-1.949A15 15 0 0 1 41.949 26H40a1 1 0 0 0 0 2h1.949A15 15 0 0 1 28 41.949V40a1 1 0 0 0-2 0v1.949A15 15 0 0 1 12.051 28"/></g><defs><clipPath id="a"><path fill="#fff" d="M0 0h60v60H0z"/></clipPath></defs></svg>