<svg xmlns="http://www.w3.org/2000/svg" width="60" height="60" fill="none"><g fill="#000" clip-path="url(#a)"><path d="M3 60h28a3 3 0 0 0 3-3v-1h2a1 1 0 1 0 0-2h-2v-8h14v2a1 1 0 0 0 2 0v-2h7a3 3 0 0 0 3-3V3a3 3 0 0 0-3-3H21a3 3 0 0 0-3 3v9h-2a1 1 0 1 0 0 2h2v14h-8v-2a1 1 0 1 0-2 0v2H3a3 3 0 0 0-3 3v26a3 3 0 0 0 3 3m28-2H3a1 1 0 0 1-1-1v-1h30v1a1 1 0 0 1-1 1m17.118-34.453a.985.985 0 0 1 1.763 0L57.357 38H40.643l2.746-5.309zM40.47 33.98 38.39 38h-2.512l4.086-7.9a.168.168 0 0 1 .307 0l1.1 2.132zM22.305 52.833l3.966-7.67c.141-.27.376-.268.515 0L31.356 54H21.7l.6-1.164zM19.45 54h-2.678L19 50.313l1.269 2.1zM57 44H34v-4h24v3a1 1 0 0 1-1 1M2 31a1 1 0 0 1 1-1h24a1 1 0 1 0 0-2h-7V3a1 1 0 0 1 1-1h36a1 1 0 0 1 1 1v31.89l-6.343-12.263a2.982 2.982 0 0 0-5.315 0L42.5 30.055l-.452-.874a2.167 2.167 0 0 0-3.86 0L34 37.278V35a1 1 0 1 0-2 0v15.89l-3.437-6.647a2.285 2.285 0 0 0-4.068 0l-3.148 6.087-.877-1.452a1.669 1.669 0 0 0-2.94 0L14.436 54H2z"/><path d="M24.052 39.256q.018.09.054.174a1 1 0 0 0 .1.15 1 1 0 0 0 .133.16c.014.012.02.03.035.041.182.135.4.211.626.219h3a1 1 0 0 0 0-2h-.92l7.7-9.625a1 1 0 1 0-1.561-1.25L26 36.148V36a1 1 0 0 0-2 0v3c0 .019.01.035.011.053q.01.104.04.203M33 9.5a5.5 5.5 0 1 0-5.5 5.5A5.507 5.507 0 0 0 33 9.5M27.5 13a3.5 3.5 0 1 1 0-7 3.5 3.5 0 0 1 0 7M8 32a4 4 0 1 0 0 8 4 4 0 0 0 0-8m0 6a2 2 0 1 1 0-4 2 2 0 0 1 0 4m31.5-19h10a4.5 4.5 0 1 0-1.658-8.686 4.5 4.5 0 0 0-8.808 1.717 3.5 3.5 0 0 0 .467 6.97m0-5q.152.002.3.03a1 1 0 0 0 .343.01l.349-.052a1 1 0 0 0 .755-1.42 2.5 2.5 0 1 1 4.754-1.067 3 3 0 0 1-.041.367 1 1 0 0 0 1.14 1.133l.1-.016a1 1 0 0 0 .55-.275A2.5 2.5 0 1 1 49.5 17h-10a1.5 1.5 0 1 1 0-3M9 19a1 1 0 0 0-1 1v2a1 1 0 0 0 2 0v-2a1 1 0 0 0-1-1m1-4a1 1 0 0 1 1-1h1a1 1 0 1 0 0-2h-1a3 3 0 0 0-3 3v1a1 1 0 0 0 2 0zm40 38v-1a1 1 0 1 0-2 0v1a1 1 0 0 1-1 1h-1a1 1 0 1 0 0 2h1a3 3 0 0 0 3-3m-10 3h2a1 1 0 1 0 0-2h-2a1 1 0 0 0 0 2"/></g><defs><clipPath id="a"><path fill="#fff" d="M0 0h60v60H0z"/></clipPath></defs></svg>