<svg xmlns="http://www.w3.org/2000/svg" width="60" height="60" fill="none"><path fill="#000" d="M23.065 43.943H7.655a2.96 2.96 0 0 1-2.452-1.169 3.06 3.06 0 0 1-.344-2.78l2.904-8.764a1.2 1.2 0 0 1 2.28.754L7.14 40.748a.72.72 0 0 0 0 .617.62.62 0 0 0 .51.178h15.414a1.2 1.2 0 1 1 0 2.4m24.768-13.297q-.193 0-.377-.06a1.2 1.2 0 0 1-.761-1.516l6.166-18.696c.184-.562-.017-.8-.516-.8L19.005 9.55a2.42 2.42 0 0 0-2.073 1.55l-2.376 7.225a1.199 1.199 0 1 1-2.28-.749l2.376-7.224a4.84 4.84 0 0 1 4.356-3.202l33.338.024a2.97 2.97 0 0 1 2.45 1.17 3.06 3.06 0 0 1 .344 2.78l-6.168 18.7a1.2 1.2 0 0 1-1.14.822m-37.342-2.64a1.2 1.2 0 0 1-1.138-1.577l1.344-4.056a1.2 1.2 0 0 1 1.526-.795 1.2 1.2 0 0 1 .751 1.549l-1.344 4.056a1.2 1.2 0 0 1-1.14.823"/><path fill="#000" d="m52.34 16.956-38.199-.019a1.2 1.2 0 1 1 0-2.4l38.196.02a1.2 1.2 0 1 1 0 2.4zm-9.859-4.062c.611-.48.826-1.226.48-1.667-.347-.44-1.123-.41-1.734.07-.61.48-.825 1.226-.479 1.667s1.122.41 1.733-.07"/><path fill="#000" d="M42.481 12.894c.611-.48.826-1.226.48-1.667-.347-.44-1.123-.41-1.734.07-.61.48-.825 1.226-.479 1.667s1.122.41 1.733-.07m3.727 0c.61-.48.825-1.226.479-1.667-.346-.44-1.122-.41-1.733.07s-.826 1.226-.48 1.667c.347.441 1.123.41 1.734-.07m3.721 0c.61-.48.825-1.226.479-1.667-.347-.44-1.123-.41-1.733.07s-.826 1.226-.48 1.667c.347.441 1.123.41 1.733-.07m3.27 35.458H23.96a1.2 1.2 0 0 1-1.125-.785c-.664-1.807-1-3.719-.994-5.645a16.744 16.744 0 1 1 33.49 0 16.3 16.3 0 0 1-.999 5.645 1.2 1.2 0 0 1-1.133.785m-28.377-2.4h27.513a14 14 0 0 0 .588-4.03 14.345 14.345 0 0 0-28.69 0 14 14 0 0 0 .589 4.03"/><path fill="#000" d="M38.579 29.488a1.2 1.2 0 0 1-1.2-1.2v-1.92a1.2 1.2 0 1 1 2.4 0v1.92a1.2 1.2 0 0 1-1.2 1.2m9.634 3.989a1.2 1.2 0 0 1-.85-2.047l1.354-1.351a1.2 1.2 0 0 1 1.697 1.697l-1.353 1.351a1.2 1.2 0 0 1-.848.35m5.905 9.64h-1.92a1.2 1.2 0 0 1 0-2.4h1.92a1.2 1.2 0 1 1 0 2.4m-29.158 0h-1.92a1.2 1.2 0 0 1 0-2.4h1.92a1.2 1.2 0 1 1 0 2.4m3.98-9.64a1.2 1.2 0 0 1-.848-.35l-1.35-1.351a1.2 1.2 0 0 1 1.696-1.697l1.351 1.351a1.2 1.2 0 0 1-.85 2.047m9.64 11.55a3.12 3.12 0 1 1 0-6.24 3.12 3.12 0 0 1 0 6.24m0-3.823a.72.72 0 1 0 0 1.439.72.72 0 0 0 0-1.44"/><path fill="#000" d="M40.183 42.111a1.2 1.2 0 0 1-.639-2.217l6.96-4.368a1.2 1.2 0 0 1 1.823.817 1.2 1.2 0 0 1-.546 1.218l-6.972 4.368c-.188.116-.405.18-.626.182m-22.557-9.309H6.001a1.2 1.2 0 1 1 0-2.4h11.625a1.2 1.2 0 0 1 0 2.4m10.637-8.852H5.877a1.2 1.2 0 1 1 0-2.4h22.385a1.2 1.2 0 1 1 0 2.4M17.627 48.351H8.4a1.2 1.2 0 0 1 0-2.4h9.226a1.2 1.2 0 1 1 0 2.4m19.04 4.5h-1.841a1.2 1.2 0 0 1 0-2.4h1.84a1.2 1.2 0 1 1 0 2.4m-6.071 0H21.02a1.2 1.2 0 0 1 0-2.4h9.574a1.2 1.2 0 1 1 0 2.4"/></svg>