<svg xmlns="http://www.w3.org/2000/svg" width="64" height="64" fill="none"><path fill="#000" d="M58.99 4.146H5.01A3.014 3.014 0 0 0 2 7.156v39.09c0 1.659 1.35 3.01 3.01 3.01H9a1 1 0 0 0 0-2H5.01c-.557 0-1.01-.454-1.01-1.01V13.987h35.45a1 1 0 0 0 0-2H19.759L25.6 6.146h33.39c.557 0 1.01.454 1.01 1.01v4.832H44.01a1 1 0 1 0 0 2H60v32.257c0 .557-.453 1.01-1.01 1.01H55a1 1 0 1 0 0 2h3.99c1.66 0 3.01-1.35 3.01-3.01V7.157c0-1.66-1.35-3.01-3.01-3.01M4 7.156c0-.556.453-1.01 1.01-1.01h8.844l-5.842 5.842H4zm12.93 4.832h-6.09l5.842-5.842h6.09z"/><path fill="#000" d="M44.01 10.082h1.723a1 1 0 1 0 0-2H44.01a1 1 0 0 0 0 2m6.655 0a1 1 0 1 0 0-2H48.94a1 1 0 0 0 0 2zm4.929 0a1 1 0 1 0 0-2h-1.723a1 1 0 0 0 0 2zm-8.127 33.64a4.5 4.5 0 0 0-3.237 1.364h-.63v-5.074a3.36 3.36 0 0 0-3.356-3.356h-6.075a1 1 0 0 0-1 1v1.18a1 1 0 0 0 .385.788c.622.486.98 1.213.98 1.997A2.536 2.536 0 0 1 32 44.154a2.536 2.536 0 0 1-2.533-2.533c0-.784.357-1.511.979-1.997a1 1 0 0 0 .385-.788v-1.18a1 1 0 0 0-1-1h-6.075a3.36 3.36 0 0 0-3.355 3.356v5.074h-.63a4.5 4.5 0 0 0-3.238-1.364A4.54 4.54 0 0 0 12 48.255c0 2.5 2.034 4.534 4.533 4.534a4.5 4.5 0 0 0 3.237-1.365h.63V56.5a3.36 3.36 0 0 0 3.356 3.355h6.075a1 1 0 0 0 1-1v-1.18a1 1 0 0 0-.385-.788 2.52 2.52 0 0 1-.98-1.996A2.536 2.536 0 0 1 32 52.357a2.536 2.536 0 0 1 2.533 2.533 2.52 2.52 0 0 1-.979 1.996 1 1 0 0 0-.385.789v1.18a1 1 0 0 0 1 1h6.075a3.36 3.36 0 0 0 3.355-3.356v-5.075h.63a4.5 4.5 0 0 0 3.238 1.365c2.5 0 4.533-2.034 4.533-4.534s-2.034-4.533-4.533-4.533m0 7.067c-.783 0-1.51-.357-1.996-.98a1 1 0 0 0-.789-.385H42.6a1 1 0 0 0-1 1V56.5c0 .748-.608 1.355-1.355 1.355h-4.817a4.5 4.5 0 0 0 1.106-2.964c0-2.5-2.034-4.533-4.533-4.533a4.54 4.54 0 0 0-4.533 4.533c0 1.106.395 2.148 1.106 2.965h-4.817a1.357 1.357 0 0 1-1.355-1.356v-6.075a1 1 0 0 0-1-1h-2.083a1 1 0 0 0-.789.386 2.52 2.52 0 0 1-1.996.979A2.536 2.536 0 0 1 14 48.255a2.536 2.536 0 0 1 2.533-2.533c.783 0 1.511.357 1.996.98.19.242.48.384.789.384H21.4a1 1 0 0 0 1-1v-6.074c0-.748.608-1.356 1.355-1.356h4.817a4.5 4.5 0 0 0-1.106 2.965c0 2.5 2.034 4.533 4.533 4.533s4.533-2.034 4.533-4.533a4.5 4.5 0 0 0-1.106-2.965h4.817c.747 0 1.355.608 1.355 1.356v6.074a1 1 0 0 0 1 1h2.083a1 1 0 0 0 .789-.384 2.52 2.52 0 0 1 1.996-.98A2.536 2.536 0 0 1 50 48.255a2.536 2.536 0 0 1-2.533 2.534M46.732 26.7v-7.96a1 1 0 0 0-1-1H17.344a1 1 0 0 0-1 1v7.96a1 1 0 0 0 1 1h28.388a1 1 0 0 0 1-1m-2-1H18.344v-5.96h26.388zm-25.666 4.515a1 1 0 0 0 0 2H44.01a1 1 0 0 0 0-2z"/></svg>