<svg xmlns="http://www.w3.org/2000/svg" width="60" height="60" fill="none"><g clip-path="url(#a)"><path fill="#000" d="M50.438 43.166a7.37 7.37 0 0 0 4.015-6.552 7.36 7.36 0 0 0-3.24-6.097l3.255-7.553q.433.088.891.089a4.53 4.53 0 0 0 4.524-4.524 4.53 4.53 0 0 0-4.524-4.524 4.51 4.51 0 0 0-3.428 1.577l-17.6-9.638a4.5 4.5 0 0 0 .193-1.303A4.53 4.53 0 0 0 30 .117a4.53 4.53 0 0 0-4.332 5.827L8.07 15.582a4.51 4.51 0 0 0-3.429-1.577 4.53 4.53 0 0 0-4.524 4.524 4.53 4.53 0 0 0 5.415 4.435l3.256 7.553a7.36 7.36 0 0 0-3.241 6.097 7.37 7.37 0 0 0 4.015 6.552C4.448 44.563.535 49.077.122 54.577c-.036.49.133.976.466 1.335.332.358.805.564 1.296.564h13.871a14 14 0 0 0-.172 1.386c-.039.521.142 1.04.496 1.42.354.382.857.6 1.38.6H42.54c.524 0 1.027-.218 1.38-.6.354-.381.535-.899.496-1.42a14 14 0 0 0-.172-1.386h13.871c.492 0 .964-.206 1.297-.564.332-.359.502-.845.465-1.335-.413-5.5-4.325-10.014-9.44-11.41m2.14-6.552a5.49 5.49 0 0 1-5.484 5.484 5.49 5.49 0 0 1-5.484-5.484 5.49 5.49 0 0 1 5.484-5.484 5.49 5.49 0 0 1 5.484 5.484M55.36 15.88a2.65 2.65 0 0 1 2.649 2.649 2.65 2.65 0 0 1-2.649 2.649 2.65 2.65 0 0 1-2.649-2.65 2.65 2.65 0 0 1 2.649-2.648M30 1.992a2.65 2.65 0 0 1 2.649 2.65A2.65 2.65 0 0 1 30 7.29a2.65 2.65 0 0 1-2.649-2.649 2.65 2.65 0 0 1 2.65-2.649M1.992 18.53a2.65 2.65 0 0 1 2.65-2.65 2.65 2.65 0 0 1 2.648 2.65 2.65 2.65 0 0 1-2.649 2.649 2.65 2.65 0 0 1-2.649-2.65m5.26 3.69a4.52 4.52 0 0 0 1.72-4.994l17.6-9.638a4.514 4.514 0 0 0 6.857 0l17.598 9.638a4.52 4.52 0 0 0 1.72 4.994l-3.212 7.453a7.3 7.3 0 0 0-2.44-.418c-4.059 0-7.36 3.302-7.36 7.36a7.37 7.37 0 0 0 4.012 6.55 12.8 12.8 0 0 0-5.985 3.606 14.4 14.4 0 0 0-4.328-1.865c2.836-1.305 4.81-4.171 4.81-7.492 0-4.546-3.698-8.245-8.244-8.245s-8.244 3.699-8.244 8.245c0 3.32 1.974 6.187 4.81 7.492a14.4 14.4 0 0 0-4.328 1.865 12.8 12.8 0 0 0-5.985-3.605 7.37 7.37 0 0 0 4.013-6.551c0-4.058-3.302-7.36-7.36-7.36-.855 0-1.676.149-2.44.418zM30 43.782a6.377 6.377 0 0 1-6.37-6.37A6.377 6.377 0 0 1 30 31.044a6.377 6.377 0 0 1 6.37 6.37 6.377 6.377 0 0 1-6.37 6.37m-22.579-7.17a5.49 5.49 0 0 1 5.485-5.484 5.49 5.49 0 0 1 5.484 5.484 5.49 5.49 0 0 1-5.484 5.484 5.49 5.49 0 0 1-5.485-5.484M2.001 54.6c.482-5.622 5.25-10.008 10.905-10.008a10.9 10.9 0 0 1 7.81 3.298 14.53 14.53 0 0 0-4.501 6.71zm15.452 3.406v-.005c.49-6.527 6-11.639 12.547-11.639 6.546 0 12.057 5.112 12.541 11.645zM43.785 54.6a14.53 14.53 0 0 0-4.501-6.71 10.9 10.9 0 0 1 7.81-3.298c5.655 0 10.422 4.387 10.905 10.008zM25.82 20.393h1.13v6.42c0 .803.652 1.456 1.455 1.456h3.192c.802 0 1.455-.653 1.455-1.455v-6.421h1.129c.577 0 1.093-.322 1.348-.84a1.49 1.49 0 0 0-.162-1.576l-4.18-5.41A1.49 1.49 0 0 0 30 11.986c-.468 0-.9.213-1.186.583l-4.18 5.41a1.49 1.49 0 0 0-.162 1.574c.255.519.771.84 1.347.84M30 14.099l3.414 4.419h-1.3a.94.94 0 0 0-.937.937v6.94h-2.353v-6.94a.94.94 0 0 0-.938-.937h-1.3zM13.334 26.828a1.33 1.33 0 0 0 1.329 1.328h2.407a1.33 1.33 0 0 0 1.328-1.328v-4.614h.622c.523 0 .991-.292 1.223-.762a1.35 1.35 0 0 0-.147-1.43l-3.153-4.08a1.35 1.35 0 0 0-1.076-.53c-.425 0-.818.193-1.078.529l-3.153 4.08a1.35 1.35 0 0 0-.146 1.43c.231.471.7.764 1.223.764h.621zm2.533-9.214 2.106 2.725h-.512a.94.94 0 0 0-.937.938v5.004h-1.315v-5.004a.94.94 0 0 0-.937-.937h-.512zm25.113 4.6h.621v4.614a1.33 1.33 0 0 0 1.329 1.328h2.407a1.33 1.33 0 0 0 1.329-1.328v-4.614h.62c.524 0 .993-.292 1.224-.762a1.35 1.35 0 0 0-.146-1.43L45.21 15.94a1.35 1.35 0 0 0-1.077-.53c-.425 0-.817.194-1.077.53l-3.153 4.08a1.35 1.35 0 0 0-.147 1.43c.232.471.7.763 1.223.763m3.154-4.6 2.106 2.725h-.512a.937.937 0 0 0-.937.938v5.004h-1.315v-5.004a.94.94 0 0 0-.937-.937h-.512z"/></g><defs><clipPath id="a"><path fill="#fff" d="M0 0h60v60H0z"/></clipPath></defs></svg>