<svg xmlns="http://www.w3.org/2000/svg" width="60" height="60" fill="none"><g fill="#000" clip-path="url(#a)"><path d="M45 34.688a.937.937 0 1 0 0-1.875.937.937 0 0 0 0 1.874m5.625.001a.937.937 0 1 0 0-1.875.937.937 0 0 0 0 1.874m-.937 2.592a2.09 2.09 0 0 1-1.875 1.159c-.8 0-1.518-.445-1.875-1.16l-.099-.197-1.677.84.099.197a3.95 3.95 0 0 0 3.552 2.195 3.95 3.95 0 0 0 3.552-2.196l.098-.198-1.677-.839z"/><path d="M59.063 29.76c0-4.52-3.677-8.198-8.198-8.198H48.75v-3.75h4.688a5.63 5.63 0 0 0 5.624-5.625 5.63 5.63 0 0 0-5.624-5.624q-.691 0-1.364.175a8.44 8.44 0 0 0-8.011-5.8 8.42 8.42 0 0 0-7.954 5.643 5.6 5.6 0 0 0-3.732 1.856h-16.44a2.816 2.816 0 0 0-2.812 2.813v5.625h-7.5a4.693 4.693 0 0 0-4.687 4.688v26.25A4.693 4.693 0 0 0 5.625 52.5H22.5c.116 0 .23-.018.346-.026l.603 3.919.003-.001a2.81 2.81 0 0 0 2.798 2.67H37.5c1.22 0 2.252-.786 2.64-1.875h6.735a6.57 6.57 0 0 0 6.563-6.563v-4.688a3.72 3.72 0 0 0-1.307-2.821 6.57 6.57 0 0 0 3.107-4.678h.075a3.754 3.754 0 0 0 3.75-3.75c0-.71-.21-1.367-.555-1.934l.134-.402a8.2 8.2 0 0 0 .42-2.591m-1.876 0a6.3 6.3 0 0 1-.22 1.58 3.7 3.7 0 0 0-1.654-.402h-.173a2.81 2.81 0 0 0-2.64-1.875h-3.91a5.43 5.43 0 0 1-3.865-1.6l-.41-.41-.549.182a5.03 5.03 0 0 0-3.32 3.703h-.133a3.7 3.7 0 0 0-1.654.4 6.3 6.3 0 0 1-.221-1.578 6.33 6.33 0 0 1 6.322-6.323h6.106a6.33 6.33 0 0 1 6.322 6.323m-16.874 6.802a1.877 1.877 0 0 1-1.876-1.874c0-1.035.841-1.876 1.876-1.876zM36.559 8.44h.005q.094.014.192.02l.767.04.189-.745a6.55 6.55 0 0 1 6.35-4.942 6.56 6.56 0 0 1 6.443 5.332l.227 1.196 1.099-.525a3.7 3.7 0 0 1 1.606-.379 3.754 3.754 0 0 1 3.75 3.75 3.754 3.754 0 0 1-3.75 3.75H36.564a3.754 3.754 0 0 1-3.75-3.75A3.75 3.75 0 0 1 36.56 8.44M15 11.25c0-.517.42-.937.938-.937h15.327a5.6 5.6 0 0 0-.328 1.874 5.63 5.63 0 0 0 5.625 5.626h10.313v3.75H44.76c-4.52 0-8.197 3.676-8.197 8.197 0 .882.141 1.754.42 2.591l.135.401a3.7 3.7 0 0 0-.556 1.935 3.754 3.754 0 0 0 3.75 3.75h.076a6.57 6.57 0 0 0 4.393 5.277 10.6 10.6 0 0 0-4.256 5.974h-3.963a3.754 3.754 0 0 0-3.75 3.75h-3.874l-1.75-12.256v-19.62a4.693 4.693 0 0 0-4.688-4.687H15zm30.938 38.437h-3.462a8.74 8.74 0 0 1 3.555-4.562 3.8 3.8 0 0 0-.094.812zm-7.5 3.75h-3.75c0-1.034.84-1.874 1.874-1.874h1.876zm-14.98-9.32a1.678 1.678 0 0 1 1.656-1.931h.323l1.607 11.252h-.794c-.474 0-.915.129-1.307.337zm-1.895-15.992h-15V22.5h15zM6.563 30h15v5.625h-15zm0 7.5h15v5.625h-15zm0 7.5h15v5.625h-15zm-3.75 2.813v-26.25a2.816 2.816 0 0 1 2.812-2.813H22.5a2.816 2.816 0 0 1 2.813 2.813v18.749h-.2c-.61 0-1.174.168-1.675.44V22.5a1.877 1.877 0 0 0-1.875-1.875h-15c-1.035 0-1.875.84-1.875 1.875v27.953a2.81 2.81 0 0 1-1.875-2.64M37.5 57.187H26.25a.94.94 0 0 1-.937-.937c0-.517.42-.937.937-.937h12.188v.937a.94.94 0 0 1-.938.938m14.062-6.563a4.693 4.693 0 0 1-4.688 4.688h-6.562v-3.75h6.175l1.6 1.6 1.326-1.324-1.6-1.602v-4.3c0-.501.194-.973.548-1.326.349-.349.81-.54 1.302-.547h.024v-.001c1.034 0 1.875.84 1.875 1.875zM53.438 37.5a4.693 4.693 0 0 1-4.686 4.688l-1.16-.001h-.717a4.693 4.693 0 0 1-4.687-4.687v-5.473c0-1.19.66-2.261 1.685-2.805a7.28 7.28 0 0 0 4.717 1.715h3.91a.94.94 0 0 1 .938.938zm1.874-.937v-3.75c1.035 0 1.876.84 1.876 1.874s-.841 1.876-1.876 1.876"/><path d="M12.188 24.375h1.874v1.875h-1.874zm-3.75 0h1.874v1.875H8.439zm3.75 15h1.874v1.875h-1.874zm-3.75 0h1.874v1.875H8.439zm5.625-7.5h1.874v1.875h-1.874zm3.75 0h1.875v1.875h-1.875zm-3.75 15h1.874v1.875h-1.874zm3.75 0h1.875v1.875h-1.875z"/></g><defs><clipPath id="a"><path fill="#fff" d="M0 0h60v60H0z"/></clipPath></defs></svg>