<svg xmlns="http://www.w3.org/2000/svg" width="60" height="60" fill="none"><g fill="#000" clip-path="url(#a)"><path d="M55.313 57.188V4.731a1.877 1.877 0 0 0-1.876-1.875H19.459a.93.93 0 0 1-.65-.262L16.927.785A2.8 2.8 0 0 0 14.977 0H6.563a1.877 1.877 0 0 0-1.875 1.875v55.313A2.815 2.815 0 0 0 7.5 60h45a2.815 2.815 0 0 0 2.813-2.812M6.563 1.874h8.414c.242 0 .476.093.65.262l1.881 1.81a2.8 2.8 0 0 0 1.95.785h33.98V7.5H6.563zm0 55.313V9.374h46.875v47.813a.94.94 0 0 1-.938.937h-45a.94.94 0 0 1-.937-.937"/><path d="M9.375 5.625a.937.937 0 1 0 0-1.875.937.937 0 0 0 0 1.875m3.75 0a.937.937 0 1 0 0-1.875.937.937 0 0 0 0 1.875m19.219 14.531h14.531a.937.937 0 1 0 0-1.875H32.344a.938.938 0 0 0 0 1.875m0 3.75h14.531a.937.937 0 1 0 0-1.875H32.344a.938.938 0 0 0 0 1.875m14.53 5.625H33.35q.352.916.561 1.875h12.963a.937.937 0 1 0 0-1.875"/><path d="M48.75 12.188H22.969A2.816 2.816 0 0 0 20.156 15v6.13c.31-.021.622-.036.938-.036s.627.015.937.037V15a.94.94 0 0 1 .938-.937H48.75a.94.94 0 0 1 .938.937v29.531H44.53a2.816 2.816 0 0 0-2.812 2.813V52.5h-18.75a.94.94 0 0 1-.938-.937v-4.256q-.465.035-.937.037c-.32 0-.637-.056-.938-.164v4.383a2.816 2.816 0 0 0 2.813 2.812h19.687l.015-.001a1 1 0 0 0 .168-.017l.067-.02a1 1 0 0 0 .108-.033l.066-.035a1 1 0 0 0 .096-.051 1 1 0 0 0 .143-.118l7.969-7.968a1 1 0 0 0 .176-.253 1 1 0 0 0 .08-.227v-.002a1 1 0 0 0 .019-.181V15a2.815 2.815 0 0 0-2.813-2.812m-5.156 38.986v-3.83a.94.94 0 0 1 .937-.938h3.83z"/><path d="M46.876 40.781H32.454q-.42.724-.927 1.389a.94.94 0 0 0 .817.486h14.532a.937.937 0 1 0 0-1.875m-.002-3.75H33.911q-.21.96-.561 1.875h13.524a.937.937 0 1 0 0-1.875m.002-11.25H32.344a.93.93 0 0 0-.817.487q.508.664.927 1.388h14.422a.937.937 0 1 0 0-1.875m-.001 7.5H34.182q.035.465.037.938c0 .315-.015.627-.037.937h12.693a.937.937 0 1 0 0-1.875m-21.562 2.344a.938.938 0 0 0 0-1.875h-3.75V30a.938.938 0 0 0-1.875 0v4.688a.94.94 0 0 0 .937.937z"/><path d="M21.094 24.844a9.375 9.375 0 1 1 0 18.75.937.937 0 1 0 0 1.875A11.25 11.25 0 1 0 9.892 33.202a.938.938 0 0 0-1.18 1.445l1.406 1.407a.937.937 0 0 0 1.326 0l1.406-1.407a.935.935 0 0 0-1.064-1.506 9.386 9.386 0 0 1 9.308-8.297"/></g><defs><clipPath id="a"><path fill="#fff" d="M0 0h60v60H0z"/></clipPath></defs></svg>