<svg xmlns="http://www.w3.org/2000/svg" width="60" height="60" fill="none"><path fill="#000" d="M40.781 23.236 30.47 17.278a.94.94 0 0 0-.938 0L19.22 23.24a.94.94 0 0 0-.469.811v11.902a.94.94 0 0 0 .469.81l10.312 5.959a.94.94 0 0 0 .938-.005l10.312-5.958a.94.94 0 0 0 .469-.81V24.046a.94.94 0 0 0-.469-.811M30 19.176l8.475 4.89L30 28.916l-8.437-4.866zm-9.375 6.497 8.438 4.87v9.741l-8.438-4.87zm10.313 14.611v-9.74l8.437-4.833v9.698zM27.656 8.362l1.406-1.406v7.107a.938.938 0 0 0 1.875 0V6.952l1.406 1.406a.94.94 0 0 0 .666.276.938.938 0 0 0 .666-1.603L30.66 4.027a.94.94 0 0 0-1.322 0L26.325 7.03a.941.941 0 0 0 1.33 1.331m4.689 43.277-1.407 1.406v-7.106a.937.937 0 1 0-1.875 0v7.11l-1.406-1.406a.94.94 0 0 0-1.331 1.327l3.014 3.01a.94.94 0 0 0 1.322 0l3.014-3.01a.943.943 0 0 0-1.026-1.536.9.9 0 0 0-.305.205M16.67 21.22l-6.16-3.558 1.927-.516a.939.939 0 0 0-.088-1.858.9.9 0 0 0-.381.049l-4.116 1.101a.94.94 0 0 0-.586.436.97.97 0 0 0-.093.713l1.106 4.115a.937.937 0 1 0 1.81-.487l-.516-1.927 6.16 3.553a.937.937 0 1 0 .937-1.622m35.052 17.078a.938.938 0 0 0-1.81.468l.516 1.927-6.16-3.534a.937.937 0 0 0-.937 1.621l6.16 3.558-1.927.516a.937.937 0 0 0 .483 1.81l4.115-1.102a.935.935 0 0 0 .666-1.149zm-35.99-1.139-6.16 3.553.516-1.927a.937.937 0 1 0-1.809-.469l-1.106 4.097a.97.97 0 0 0 .093.713.94.94 0 0 0 .572.436l4.116 1.101q.12.034.244.033a.938.938 0 0 0 .239-1.842l-1.927-.516 6.16-3.558a.938.938 0 0 0-.938-1.621m28.072-14.19a.94.94 0 0 0 .469-.127l6.159-3.553-.516 1.927a.938.938 0 0 0 1.81.487l1.106-4.115a.97.97 0 0 0-.094-.713.94.94 0 0 0-.572-.436l-4.115-1.101a.937.937 0 1 0-.47 1.809l1.927.516-6.178 3.557a.937.937 0 0 0 .47 1.749z"/></svg>