<svg xmlns="http://www.w3.org/2000/svg" width="60" height="60" fill="none"><mask id="a" fill="#fff"><path d="m48.839 44.881 6.96 6.84c.96.96.96 2.64 0 3.72-.96.96-2.64.96-3.72 0l-18.36-18.24"/></mask><path fill="#000" d="m55.799 51.721.707-.707-.006-.006zm0 3.72.707.707.02-.02.02-.023zm-3.72 0-.705.71.02.02.02.018zm-3.941-9.847 6.96 6.84 1.402-1.426-6.96-6.84zm6.954 6.834c.548.548.604 1.624-.04 2.349l1.494 1.328c1.276-1.434 1.332-3.72-.04-5.09zm0 2.306c-.548.548-1.624.604-2.349-.04l-1.329 1.495c1.435 1.275 3.72 1.331 5.092-.04zm-2.309-.002-18.36-18.24-1.409 1.419 18.36 18.24z" mask="url(#a)"/><mask id="b" fill="#fff"><path d="m43.08 39.12-5.64-5.64Z"/></mask><path fill="#000" d="m43.787 38.413-5.64-5.64-1.415 1.415 5.64 5.64z" mask="url(#b)"/><mask id="c" fill="#fff"><path d="M5.52 32.4C.48 24.84 1.32 14.52 8.04 7.92a19.555 19.555 0 0 1 27.72 0c2.4 2.4 4.08 5.4 5.04 8.4"/></mask><path fill="#000" d="m8.04 7.92.7.714.006-.007zM6.35 31.846C1.57 24.675 2.37 14.889 8.739 8.634l-1.4-1.427C.268 14.152-.612 25.006 4.687 32.955zM8.746 8.627a18.555 18.555 0 0 1 26.306 0l1.414-1.414a20.555 20.555 0 0 0-29.134 0zm26.306 0c2.273 2.274 3.877 5.13 4.795 7.998l1.905-.61c-1.002-3.131-2.759-6.275-5.286-8.802z" mask="url(#c)"/><mask id="d" fill="#fff"><path d="M40.679 27c-.84 3.12-2.52 6-5.04 8.4-2.4 2.4-5.16 3.96-8.16 4.92"/></mask><path fill="#000" d="m35.639 35.4-.69-.724-.009.008-.009.009zm4.074-8.66c-.792 2.942-2.376 5.662-4.764 7.936l1.38 1.448c2.651-2.526 4.427-5.566 5.315-8.864zm-4.782 7.953c-2.276 2.276-4.893 3.758-7.757 4.675l.61 1.904c3.135-1.003 6.038-2.64 8.562-5.165z" mask="url(#d)"/><mask id="e" fill="#fff"><path d="M27.479 40.44c2.28-.6 4.32-1.68 6.24-3.12.72-.48 1.32-1.08 1.92-1.68s1.2-1.32 1.68-1.92c1.56-1.92 2.64-4.2 3.24-6.48"/></mask><path fill="#000" d="m33.719 37.32-.555-.832-.023.016-.023.016zm3.6-3.6-.777-.63-.004.005zm-9.586 7.687c2.429-.639 4.584-1.785 6.586-3.287l-1.2-1.6c-1.839 1.379-3.764 2.392-5.895 2.953zm6.54-3.255c.816-.544 1.484-1.216 2.073-1.805l-1.415-1.414c-.61.611-1.143 1.139-1.767 1.555zm2.073-1.805c.64-.64 1.268-1.395 1.753-2.002l-1.561-1.25c-.474.593-1.047 1.278-1.607 1.838zm1.749-1.996c1.66-2.043 2.799-4.455 3.43-6.856l-1.934-.51c-.568 2.159-1.588 4.307-3.049 6.105z" mask="url(#e)"/><mask id="f" fill="#fff"><path d="M10.8 31.32c-5.16-5.76-4.92-14.52.6-20.04 5.76-5.76 15.12-5.76 20.88 0 1.44 1.44 2.64 3.24 3.36 5.04"/></mask><path fill="#000" d="M11.544 30.654c-4.804-5.363-4.585-13.52.562-18.666l-1.414-1.414c-5.893 5.893-6.154 15.256-.638 21.414zm.562-18.666c5.37-5.37 14.097-5.37 19.466 0l1.414-1.414c-6.15-6.15-16.143-6.15-22.294 0zm19.466 0c1.35 1.35 2.471 3.036 3.139 4.704l1.857-.742c-.773-1.932-2.051-3.845-3.582-5.376z" mask="url(#f)"/><mask id="g" fill="#fff"><path d="M35.639 27c-.72 1.8-1.8 3.6-3.36 5.04-1.44 1.44-3 2.52-4.8 3.24"/></mask><path fill="#000" d="m32.279 32.04-.679-.735-.015.014-.014.014zm2.431-5.411c-.68 1.698-1.685 3.36-3.11 4.676l1.357 1.47c1.695-1.565 2.85-3.502 3.61-5.404zm-3.139 4.704c-1.358 1.358-2.806 2.355-4.464 3.019l.743 1.857c1.942-.778 3.613-1.94 5.136-3.462z" mask="url(#g)"/><path stroke="#000" stroke-miterlimit="10" d="M57.099 24.6v.023l.002.023c.09 1-.728 1.854-1.782 1.854h-41.04c-1.044 0-1.9-.856-1.9-1.9v-5.88c0-1.043.856-1.9 1.9-1.9h40.92c1.044 0 1.9.857 1.9 1.9z"/><path stroke="#000" stroke-miterlimit="10" d="M55.319 26.5h-7.44c-1.044 0-1.9-.856-1.9-1.9v-5.88c0-1.043.856-1.9 1.9-1.9h7.44c1.043 0 1.9.857 1.9 1.9v5.88c0 1.044-.857 1.9-1.9 1.9Z"/><mask id="h" fill="#fff"><path d="m19.32 20.4-.96 2.64-.84-2.16-.96 2.16-.96-2.64"/></mask><path fill="#000" d="m18.36 23.04-.932.363a1 1 0 0 0 1.871-.02zm-.84-2.16.932-.362a1 1 0 0 0-1.846-.044zm-.96 2.16-.94.342a1 1 0 0 0 1.853.064zm1.82-2.981-.96 2.64 1.88.683.96-2.64zm.912 2.619-.84-2.16-1.864.725.84 2.16zm-2.686-2.204-.96 2.16 1.827.813.96-2.16zm.893 2.225-.96-2.64-1.88.683.96 2.64z" mask="url(#h)"/><mask id="i" fill="#fff"><path d="m25.2 20.4-.96 2.64-.96-2.16-.84 2.16-.96-2.64"/></mask><path fill="#000" d="m24.24 23.04-.913.407a1 1 0 0 0 1.853-.065zm-.96-2.16.914-.406a1 1 0 0 0-1.845.044zm-.84 2.16-.94.342a1 1 0 0 0 1.872.02zm1.82-2.981-.96 2.64 1.88.683.96-2.64zm.894 2.575-.96-2.16-1.827.813.96 2.16zm-2.805-2.116-.84 2.16 1.863.725.84-2.16zm1.031 2.18-.96-2.64-1.88.684.96 2.64z" mask="url(#i)"/><mask id="j" fill="#fff"><path d="M31.08 20.4 30 23.04l-.84-2.16-.84 2.16-1.08-2.64"/></mask><path fill="#000" d="m30 23.04-.932.363a1 1 0 0 0 1.858.016zm-.84-2.16.932-.362a1 1 0 0 0-1.864 0zm-.84 2.16-.925.379a1 1 0 0 0 1.857-.016zm1.835-3.018-1.08 2.64 1.85.757 1.08-2.64zm.777 2.656-.84-2.16-1.864.725.84 2.16zm-2.704-2.16-.84 2.16 1.864.725.84-2.16zm1.018 2.144-1.08-2.64-1.851.757 1.08 2.64z" mask="url(#j)"/><path stroke="#000" stroke-linejoin="round" stroke-miterlimit="10" d="M52.779 21.241c0 .824-.716 1.54-1.66 1.54s-1.66-.716-1.66-1.54.716-1.54 1.66-1.54 1.66.716 1.66 1.54Z"/><mask id="k" fill="#fff"><path d="m52.56 22.682 1.56 1.56Z"/></mask><path fill="#000" d="m51.853 23.389 1.56 1.56 1.415-1.415-1.56-1.56z" mask="url(#k)"/><path stroke="#000" stroke-linejoin="round" stroke-miterlimit="10" d="M53.703 8.946c.19.177.422.315.674.412a3.9 3.9 0 0 1-.505 1.126c-.641-.333-1.426-.397-2.027.203-.595.595-.537 1.373-.211 2.01-.324.18-.7.318-1.097.452-.257-.667-.885-1.168-1.578-1.168-.714 0-1.357.53-1.599 1.226a4 4 0 0 1-1.084-.493c.333-.641.397-1.427-.204-2.027-.588-.588-1.355-.538-1.989-.222a7.6 7.6 0 0 1-.475-1.11c.263-.093.503-.223.704-.388.343-.283.587-.685.587-1.166 0-.478-.24-.876-.56-1.157a2.3 2.3 0 0 0-.678-.4 3.9 3.9 0 0 1 .505-1.126c.641.333 1.426.397 2.027-.204.595-.595.537-1.372.211-2.01.324-.18.7-.318 1.097-.452.257.668.885 1.169 1.578 1.169.478 0 .876-.24 1.156-.561.17-.194.306-.426.402-.677a3.9 3.9 0 0 1 1.125.505c-.333.64-.397 1.426.203 2.026.597.597 1.377.537 2.017.209.191.328.336.7.473 1.136a2.2 2.2 0 0 0-.635.385c-.31.27-.544.651-.56 1.108-.08.489.135.907.443 1.194Z"/><path stroke="#000" stroke-linejoin="round" stroke-miterlimit="10" d="M50.08 6.737a1.54 1.54 0 1 1-2.18 2.178 1.54 1.54 0 0 1 2.178-2.178Zm-43 25.445h18c.924 0 1.66.736 1.66 1.66v22.2c0 .923-.736 1.66-1.66 1.66h-18a1.65 1.65 0 0 1-1.66-1.66v-22.2c0-.924.736-1.66 1.66-1.66Z"/><path stroke="#000" stroke-linejoin="round" stroke-miterlimit="10" d="M7.94 39.861H9.7v3.92H7.94zm4.92-1.801h1.76v5.84h-1.76zm4.8 2.76h1.76v2.96h-1.76zm4.799-4.44h1.76v7.52h-1.76z"/><mask id="l" fill="#fff"><path d="m9.12 53.402-.72-.72Z"/></mask><path fill="#000" d="m9.828 52.695-.72-.72-1.415 1.414.72.72z" mask="url(#l)"/><mask id="m" fill="#fff"><path d="m17.04 53.04-1.92-1.8Z"/></mask><path fill="#000" d="m17.723 52.31-1.92-1.8-1.368 1.46 1.92 1.8z" mask="url(#m)"/><mask id="n" fill="#fff"><path d="m23.4 48.48-4.32 4.44Z"/></mask><path fill="#000" d="m22.683 47.783-4.32 4.44 1.434 1.395 4.32-4.44z" mask="url(#n)"/><mask id="o" fill="#fff"><path d="m13.32 51.361-2.04 1.92Z"/></mask><path fill="#000" d="m12.634 50.633-2.04 1.92 1.37 1.457 2.04-1.92z" mask="url(#o)"/><path stroke="#000" stroke-linejoin="round" stroke-miterlimit="10" d="M14.98 50.4a.82.82 0 1 1-1.64 0 .82.82 0 0 1 1.64 0Zm3.96 3.361a.82.82 0 1 1-1.64 0 .82.82 0 0 1 1.64 0Zm-7.92.359a.82.82 0 1 1-1.64 0 .82.82 0 0 1 1.64 0Z"/><mask id="p" fill="#fff"><path d="m23.28 51.24.36-3-3.12.36"/></mask><path fill="#000" d="m23.64 48.24.992.12a1 1 0 0 0-1.107-1.113zm.632 3.12.36-3-1.985-.239-.36 3zm-.747-4.113-3.12.36.23 1.987 3.12-.36z" mask="url(#p)"/><path stroke="#000" stroke-linejoin="round" stroke-miterlimit="10" d="M49.18 37.922a.5.5 0 0 0 .147.353l4.45 4.45c-1.08 1.027-2.5 1.657-4.097 1.657a6.08 6.08 0 0 1-6.1-6.1c0-3.156 2.502-5.818 5.6-6.08z"/><path stroke="#000" stroke-linejoin="round" stroke-miterlimit="10" d="M50.18 32.203a6.06 6.06 0 0 1 3.93 1.908l-3.93 2.834zm5.6 6.078c0 1.357-.515 2.643-1.333 3.7l-3.998-3.998 4.277-3.084c.63.95 1.054 2.128 1.054 3.382Zm-20.74 9.157.874 1.746a.5.5 0 0 0 .364.27l1.922.32-1.353 1.353a.5.5 0 0 0-.14.432l.32 1.995-1.747-.953a.5.5 0 0 0-.479 0l-1.746.953.32-1.995a.5.5 0 0 0-.151-.442l-1.422-1.343 1.998-.32a.5.5 0 0 0 .368-.27z"/></svg>