<svg xmlns="http://www.w3.org/2000/svg" width="60" height="60" fill="none"><g fill="#000" clip-path="url(#a)"><path d="M56.735 20.348c-1.053-.216-3.306.058-4.414 2.638l-.022.054-3.425 9.185a3.84 3.84 0 0 0-1.952-.528c-.74 0-1.462.212-2.084.613l-8.784 5.638c-3.333 2.03-5.108 4.695-6.054 6.948-.946-2.253-2.721-4.918-6.054-6.948l-8.783-5.637a3.85 3.85 0 0 0-2.085-.614 3.84 3.84 0 0 0-1.952.528L7.68 22.987c-1.109-2.58-3.361-2.855-4.415-2.639-2.14.4-3.498 2.242-3.232 4.389.006.047 3.737 15.056 3.737 15.056.985 3.938 3.661 7.91 7.159 10.626l.037.027 5.92 4.237v2.102a2.346 2.346 0 0 0 2.344 2.344h21.54a2.346 2.346 0 0 0 2.343-2.344v-2.102l5.922-4.237.036-.027c3.498-2.716 6.174-6.688 7.16-10.627 0 0 3.73-15.008 3.736-15.055.266-2.147-1.092-3.99-3.232-4.389m-27.92 30.704c-.003.035-.005 5.733-.005 5.733h-9.58V54.08a1.17 1.17 0 0 0-.49-.953l-6.392-4.573c-3.042-2.37-5.457-5.942-6.304-9.328l-3.692-14.84c-.083-.892.44-1.57 1.35-1.735l.026-.005c.224-.035 1.2-.1 1.788 1.241L9.409 34.33a3.84 3.84 0 0 0 .87 3.89c.038.04 6.047 4.784 6.047 4.784a1.172 1.172 0 0 0 1.45-1.84L11.93 36.55a1.527 1.527 0 0 1 .074-2.063 1.51 1.51 0 0 1 1.893-.205l8.82 5.661c2.767 1.682 4.633 4.047 5.547 7.03.694 2.266.553 4.065.552 4.079m28.833-26.666-3.692 14.838c-.847 3.388-3.262 6.96-6.304 9.33l-6.392 4.573a1.17 1.17 0 0 0-.49.953v2.705h-9.58s-.002-5.698-.005-5.733c-.006-.07-.558-7.063 6.099-11.109l8.821-5.662a1.51 1.51 0 0 1 1.892.205c.559.56.587 1.471.074 2.064l-5.848 4.612a1.172 1.172 0 0 0 1.452 1.84s6.008-4.743 6.046-4.784a3.84 3.84 0 0 0 .87-3.889l3.893-10.442c.588-1.34 1.565-1.276 1.788-1.241l.026.005c.91.166 1.433.844 1.35 1.735"/><path d="M14.024 26.143h6.82v5.062a2.346 2.346 0 0 0 2.343 2.343h1.484a1.172 1.172 0 0 0 0-2.343h-1.483s.004-6.305 0-6.34a3.435 3.435 0 0 1 3.431-3.375h6.763c1.873 0 3.4 1.509 3.43 3.375-.003.035.002 6.34.002 6.34h-1.465a1.172 1.172 0 0 0 0 2.343h1.465a2.346 2.346 0 0 0 2.343-2.343v-5.062h6.82a2.423 2.423 0 0 0 2.42-2.421v-6.206a5.785 5.785 0 0 0-4.286-5.58 6.58 6.58 0 0 0 1.736-4.457A6.613 6.613 0 0 0 39.24.873a6.613 6.613 0 0 0-6.606 6.606c0 .487.055.962.156 1.42a6.6 6.6 0 0 0-2.79-.62c-.997 0-1.943.223-2.79.62a6.6 6.6 0 0 0 .155-1.42A6.613 6.613 0 0 0 20.76.873a6.613 6.613 0 0 0-6.606 6.606 6.58 6.58 0 0 0 1.736 4.458 5.785 5.785 0 0 0-4.286 5.58v6.205a2.424 2.424 0 0 0 2.42 2.42m32.03-8.627v6.206a.077.077 0 0 1-.077.077h-6.93a5.79 5.79 0 0 0-4.176-4.457 6.58 6.58 0 0 0 1.685-5.258h6.066a3.436 3.436 0 0 1 3.432 3.432m-6.813-14.3a4.267 4.267 0 0 1 4.262 4.263 4.267 4.267 0 0 1-4.262 4.262 4.267 4.267 0 0 1-4.262-4.262 4.267 4.267 0 0 1 4.262-4.262m-4.978 11.668A4.267 4.267 0 0 1 30 19.146a4.267 4.267 0 0 1-4.262-4.262A4.267 4.267 0 0 1 30 10.622a4.267 4.267 0 0 1 4.263 4.262M20.76 3.217a4.267 4.267 0 0 1 4.262 4.262 4.267 4.267 0 0 1-4.262 4.262 4.267 4.267 0 0 1-4.262-4.262 4.267 4.267 0 0 1 4.262-4.262m-6.813 14.3a3.436 3.436 0 0 1 3.432-3.432h6.066q-.049.393-.05.8a6.58 6.58 0 0 0 1.735 4.457 5.79 5.79 0 0 0-4.176 4.457h-6.93a.077.077 0 0 1-.077-.077z"/><path d="M30 33.549a1.172 1.172 0 1 0 0-2.344 1.172 1.172 0 0 0 0 2.344"/></g><defs><clipPath id="a"><path fill="#fff" d="M0 0h60v60H0z"/></clipPath></defs></svg>