<svg xmlns="http://www.w3.org/2000/svg" width="60" height="60" fill="none"><path fill="#000" d="M57 30h-1V9a5.006 5.006 0 0 0-5-5H9a5.006 5.006 0 0 0-5 5v15H3a3 3 0 0 0-3 3v26a3 3 0 0 0 3 3h38a1 1 0 0 0 1-1 5.006 5.006 0 0 0-5-5h-3v-6h12v9a3 3 0 0 0 3 3h8a3 3 0 0 0 3-3V33a3 3 0 0 0-3-3M22 53a1 1 0 0 1-1 1H3a1 1 0 0 1-1-1v-1h20zm0-3H2V27a1 1 0 0 1 1-1h18a1 1 0 0 1 1 1zm15 2a3.01 3.01 0 0 1 2.829 2H23.816c.119-.32.18-.658.184-1v-1zm-13-2v-6h2v6zm4 0v-6h4v6zm18-8H24v-6h22zm0-9v1H24v-7a2.96 2.96 0 0 0-.342-1.361c.015-.014.035-.018.049-.033l9.9-9.9a1 1 0 0 0-1.414-1.414l-9.9 9.9c-.024.025-.034.057-.055.083A3 3 0 0 0 21 24H6V9a3 3 0 0 1 3-3h42a3 3 0 0 1 3 3v21h-5a3 3 0 0 0-3 3m12 20a1 1 0 0 1-1 1h-8a1 1 0 0 1-1-1v-1h10zm0-3H48V33a1 1 0 0 1 1-1h8a1 1 0 0 1 1 1z"/><path fill="#000" d="M11.95 36.172a1 1 0 0 0-1.414 0l-4.242 4.242a1 1 0 1 0 1.414 1.414l4.242-4.242c.178-.31-.18-.898 0-1.414m5.975-.001a1 1 0 0 0-1.39 0l-4.241 4.242a1 1 0 1 0 1.414 1.414l4.242-4.242a1 1 0 0 0-.025-1.414m21.758-21.879a1 1 0 0 0-1.39 0l-9.9 9.9a1 1 0 1 0 1.414 1.414l9.9-9.9a1 1 0 0 0-.024-1.414m15.414 24.586a1 1 0 0 0-1.39 0l-2.828 2.828a1 1 0 1 0 1.415 1.414l2.828-2.828a1 1 0 0 0-.025-1.414M30.02 38h-.01a1 1 0 0 0 .01 2 1 1 0 1 0 0-2M32 8h-4a1 1 0 0 0 0 2h4a1 1 0 0 0 0-2"/></svg>