<svg xmlns="http://www.w3.org/2000/svg" width="60" height="60" fill="none"><path fill="#000" fill-rule="evenodd" d="m17.15 53.457.534.943.001.002a2.09 2.09 0 0 1-.787 2.833l-2.17 1.23-.003.002a2.09 2.09 0 0 1-2.833-.788L5.51 46.402c-.566-1-.21-2.275.784-2.836l2.172-1.23h.001a2.09 2.09 0 0 1 2.834.784v.002l.417.735 5.533-3.203c1.752-1.014 3.545-1.664 5.47-1.038 1.822.59 4.796 1.865 7.832 2.414a1 1 0 0 1 .123.03c1.624.526 2.607 2.17 2.164 3.82q-.046.175-.108.338.291-.114.575-.28l7.739-4.506c2.883-1.68 4.809-1.47 5.897-.74.958.643 1.405 1.74 1.376 2.817-.029 1.09-.553 2.129-1.408 2.655L32.869 54.81c-1.519.937-3.183 1.158-4.906.698h-.001l-9.81-2.63zm-4.505-7.961 3.579 6.323 1.325-.765a.94.94 0 0 1 .714-.094l10.185 2.73c1.206.32 2.37.174 3.432-.482h.001l14.043-8.646c.346-.213.502-.662.514-1.103.035-1.331-1.308-2.228-4.445-.4l-7.738 4.506c-1.277.744-2.614.95-4.073.719h-.003l-.959-.157h-.001l-.04-.007c-1.75-.36-3.372-.888-5.173-1.372a.942.942 0 0 1 .489-1.817c1.75.47 3.326.985 5.024 1.337.762.082 1.327-.223 1.503-.877.177-.657-.238-1.29-.874-1.522-3.105-.572-6.143-1.858-8.008-2.463-1.398-.454-2.674.141-3.947.877zm-2.98-1.445a.2.2 0 0 0-.271-.077l-2.172 1.23a.197.197 0 0 0-.073.27l6.382 11.278a.2.2 0 0 0 .272.074l2.168-1.229h.001a.2.2 0 0 0 .074-.272zM9 45.152a.9.9 0 1 1 .261 1.783.9.9 0 1 1-.26-1.783M39.266 4.577c1.441.388 2.825.96 4.12 1.708l2.648-1.178a.94.94 0 0 1 1.048.194l3.644 3.644a.94.94 0 0 1 .194 1.047l-1.173 2.649a17 17 0 0 1 1.708 4.126l2.701 1.04a.94.94 0 0 1 .603.878v5.154c0 .39-.24.739-.603.879l-2.701 1.04a17.3 17.3 0 0 1-1.708 4.118l1.173 2.65a.94.94 0 0 1-.194 1.047l-3.644 3.644a.94.94 0 0 1-1.047.195l-2.648-1.173a17 17 0 0 1-4.121 1.707l-1.04 2.702a.94.94 0 0 1-.878.603h-5.155a.94.94 0 0 1-.878-.603l-1.04-2.701a17.3 17.3 0 0 1-4.124-1.709l-2.65 1.174a.94.94 0 0 1-1.047-.195l-3.644-3.644a.94.94 0 0 1-.194-1.048l1.177-2.647a17.3 17.3 0 0 1-1.711-4.12l-2.703-1.04a.94.94 0 0 1-.603-.879v-5.154c0-.39.24-.739.603-.879l2.703-1.04c.39-1.445.964-2.83 1.711-4.124l-1.177-2.649a.94.94 0 0 1 .194-1.048l3.644-3.644a.94.94 0 0 1 1.048-.194l2.648 1.178a17 17 0 0 1 4.12-1.708l1.045-2.707a.94.94 0 0 1 .878-.602h5.155c.39 0 .739.24.878.603zm-1.582 1.13L36.7 3.15h-3.862l-.988 2.559a.94.94 0 0 1-.66.577 15.3 15.3 0 0 0-4.484 1.858.94.94 0 0 1-.876.059L23.328 7.09l-2.73 2.73 1.113 2.502a.94.94 0 0 1-.059.876 15.4 15.4 0 0 0-1.864 4.492.94.94 0 0 1-.577.658l-2.552.983v3.862l2.552.982a.94.94 0 0 1 .577.659 15.4 15.4 0 0 0 1.864 4.485.94.94 0 0 1 .06.877L20.597 32.7l2.73 2.73 2.504-1.108a.94.94 0 0 1 .873.058 15.4 15.4 0 0 0 4.49 1.859c.303.072.55.288.662.578l.982 2.552H36.7l.983-2.552a.94.94 0 0 1 .66-.578 15.2 15.2 0 0 0 4.483-1.857.94.94 0 0 1 .876-.06l2.504 1.108 2.731-2.73-1.109-2.504a.94.94 0 0 1 .058-.873c.851-1.39 1.483-2.9 1.86-4.486a.94.94 0 0 1 .577-.66l2.553-.983V19.33l-2.553-.983a.94.94 0 0 1-.578-.661 15.3 15.3 0 0 0-1.858-4.489.94.94 0 0 1-.059-.874l1.109-2.504-2.73-2.73-2.503 1.113a.94.94 0 0 1-.876-.06 15.3 15.3 0 0 0-4.484-1.857.94.94 0 0 1-.661-.578m-2.917 2.004c7.485 0 13.554 6.062 13.554 13.547s-6.07 13.554-13.554 13.554c-7.485 0-13.547-6.069-13.547-13.554S27.282 7.711 34.767 7.711m0 1.883c-6.445 0-11.665 5.22-11.665 11.664 0 6.445 5.22 11.672 11.665 11.672s11.671-5.226 11.671-11.672c0-6.445-5.226-11.664-11.671-11.664m-1.509 20.51a.942.942 0 0 1-1.882 0v-4.359a7.284 7.284 0 0 1 .105-12.94.94.94 0 0 1 1.367.84v5.832l1.922 1.11 1.923-1.11v-5.832a.94.94 0 0 1 1.367-.84 7.284 7.284 0 0 1 .105 12.94v4.357a.942.942 0 0 1-1.882 0V25.15c0-.38.227-.722.577-.868a5.39 5.39 0 0 0 3.31-4.977c0-1.498-.61-2.854-1.595-3.832v4.547c0 .337-.18.647-.47.816l-2.864 1.652a.94.94 0 0 1-.941 0l-2.864-1.652a.94.94 0 0 1-.47-.816v-4.547a5.4 5.4 0 0 0 1.715 8.809.94.94 0 0 1 .577.868z" clip-rule="evenodd"/></svg>