<svg xmlns="http://www.w3.org/2000/svg" width="60" height="60" fill="none"><g fill="#000" clip-path="url(#a)"><path d="M6 4v10h2V4a2 2 0 0 1 2-2h40a2 2 0 0 1 2 2h2a4 4 0 0 0-4-4H10a4 4 0 0 0-4 4M4 60h46a4 4 0 0 0 4-4v-4h-2v4a2 2 0 1 1-4 0v-3a1 1 0 0 0-1-1H8V32H6v20H1a1 1 0 0 0-1 1v3a4 4 0 0 0 4 4m-2-6h44v2c0 .703.184 1.392.537 2H4a2 2 0 0 1-2-2zM1 30h20a1 1 0 0 0 1-1V17a1 1 0 0 0-1-1H1a1 1 0 0 0-1 1v12a1 1 0 0 0 1 1m1-12h18v10H2z"/><path d="m6.293 20.293-2 2a1 1 0 0 0 0 1.414l2 2 1.414-1.414L6.414 23l1.293-1.293zm9.414 0-1.414 1.414L15.586 23l-1.293 1.293 1.414 1.414 2-2a1 1 0 0 0 0-1.414zM9.05 25.684l2.002-6 1.898.633-2.002 6zM59 6H25a1 1 0 0 0-1 1v20a1 1 0 0 0 1 1h34a1 1 0 0 0 1-1V7a1 1 0 0 0-1-1m-1 20H26v-2.434l8.98-5.388 8.755 5.662a1 1 0 0 0 1 .048l7.24-3.75L58 23.58zm0-4.723-5.5-3.145a1 1 0 0 0-.956-.02l-7.207 3.733-8.79-5.685a1 1 0 0 0-1.058-.017L26 21.234V8h32z"/><path d="M47.5 17a3.5 3.5 0 1 0 0-7 3.5 3.5 0 0 0 0 7m0-5a1.5 1.5 0 1 1 0 3 1.5 1.5 0 0 1 0-3M10 33v12a1 1 0 0 0 1 1h25a1 1 0 0 0 1-1V33a1 1 0 0 0-1-1H11a1 1 0 0 0-1 1m2 1h23v10H12z"/><path d="M14 36h4v2h-4zm6 0h9v2h-9zm11 0h2v2h-2zm-17 4h12v2H14zm14 0h5v2h-5zM10 4h2v2h-2zm4 0h2v2h-2zm4 0h2v2h-2zm-8 4h12v2H10zm49 28H40a1 1 0 0 0-1 1v12a1 1 0 0 0 1 1h19a1 1 0 0 0 1-1V37a1 1 0 0 0-1-1m-1 12H41V38h17z"/><path d="M43 40h2v2h-2zm0 4h2v2h-2zm4-4h9v2h-9zm0 4h9v2h-9zm5-14h2v4h-2z"/></g><defs><clipPath id="a"><path fill="#fff" d="M0 0h60v60H0z"/></clipPath></defs></svg>