<svg xmlns="http://www.w3.org/2000/svg" width="60" height="60" fill="none"><g fill="#000" clip-path="url(#a)"><path d="M57 0H3a3 3 0 0 0-3 3v44a3 3 0 0 0 3 3h19.9c-.589 3.228-3.921 3.982-4.1 4.02A3.994 3.994 0 0 0 15 58a2 2 0 0 0 2 2h26a2 2 0 0 0 2-2 4 4 0 0 0-3.8-3.98c-.157-.032-3.514-.753-4.1-4.02H57a3 3 0 0 0 3-3V3a3 3 0 0 0-3-3M3 2h54a1 1 0 0 1 1 1v39H2V3a1 1 0 0 1 1-1m40 56H17a2 2 0 0 1 2-2h22a2.005 2.005 0 0 1 2 2m-5.918-4H22.916a6.6 6.6 0 0 0 2.014-4h10.14a6.6 6.6 0 0 0 2.014 4zM57 48H3a1 1 0 0 1-1-1v-3h56v3a1 1 0 0 1-1 1"/><path d="M6 40h48a2 2 0 0 0 2-2V6a2 2 0 0 0-2-2H6a2 2 0 0 0-2 2v32a2 2 0 0 0 2 2m12.234-9.029-1.229-2.923c.307-.372.641-.729.966-1.062q.527-.531 1.128-.977l2.872 1.225a1 1 0 0 0 .909-.063 13.7 13.7 0 0 1 3.794-1.571 1 1 0 0 0 .689-.6l1.193-2.934c.972-.11 1.954-.097 2.923.037L32.637 25a1 1 0 0 0 .689.6 13.6 13.6 0 0 1 3.794 1.574 1 1 0 0 0 .909.063l2.923-1.229c.372.308.729.641 1.062.966q.532.526.977 1.128l-1.225 2.872a1 1 0 0 0 .063.909 13.7 13.7 0 0 1 1.571 3.791 1 1 0 0 0 .6.689l2.934 1.193c.014.141.021.294.031.444h-5.016a11.99 11.99 0 0 0-23.9 0h-5c.015-.162.027-.324.054-.481L16 36.363a1 1 0 0 0 .6-.689 13.6 13.6 0 0 1 1.574-3.794 1 1 0 0 0 .06-.909M39.949 38h-19.9a10 10 0 0 1 19.9 0M6 6h48v32h-5.028a16 16 0 0 0-.044-.631 2.06 2.06 0 0 0-1.285-1.706l-2.431-.971a15.6 15.6 0 0 0-1.41-3.4l1.028-2.409a2.01 2.01 0 0 0-.294-2.112 19 19 0 0 0-1.108-1.217 19 19 0 0 0-1.19-1.083 2.02 2.02 0 0 0-2.122-.3L37.705 25.2a15.6 15.6 0 0 0-3.4-1.41l-.972-2.434a2.06 2.06 0 0 0-1.694-1.281 18.6 18.6 0 0 0-3.273 0 2.06 2.06 0 0 0-1.706 1.285l-.971 2.431a15.6 15.6 0 0 0-3.4 1.41l-2.403-1.031a2.01 2.01 0 0 0-2.112.294c-.373.307-.754.655-1.217 1.108a19 19 0 0 0-1.083 1.19 2.02 2.02 0 0 0-.3 2.122L16.2 31.3a15.6 15.6 0 0 0-1.41 3.4l-2.434.972a2.06 2.06 0 0 0-1.281 1.694q-.029.31-.045.644H6z"/><path d="M21 18a3 3 0 0 0 3-3 1 1 0 0 0-2 0 1 1 0 0 1-2 0v-4a1 1 0 0 1 2 0 1 1 0 0 0 2 0 3 3 0 0 0-6 0v4a3 3 0 0 0 3 3m6 0a1 1 0 0 0 1-1v-6l.8 1.067a1.543 1.543 0 0 0 2.4 0L32 11v6a1 1 0 0 0 2 0V9.5a1.5 1.5 0 0 0-2.7-.9L30 10.335 28.7 8.6a1.5 1.5 0 0 0-2.7.9V17a1 1 0 0 0 1 1m12-4a1 1 0 1 1-.867 1.5 1 1 0 0 0-1.73 1A3 3 0 1 0 39 12a1 1 0 1 1 .867-1.5 1 1 0 0 0 1.731-1A3 3 0 1 0 39 14m-25 4a1 1 0 0 0 0-2h-4a1 1 0 0 0 0 2zm32 0h4a1 1 0 0 0 0-2h-4a1 1 0 0 0 0 2"/></g><defs><clipPath id="a"><path fill="#fff" d="M0 0h60v60H0z"/></clipPath></defs></svg>