<svg xmlns="http://www.w3.org/2000/svg" width="60" height="60" fill="none"><g fill="#000" clip-path="url(#a)"><path d="M5.75 52.332a.88.88 0 0 0 .879.879h7.805a.879.879 0 1 0 0-1.758H6.629a.88.88 0 0 0-.879.879m4.768-26.865h4.784a.879.879 0 0 0 0-1.758h-4.784a.879.879 0 1 0 0 1.758m0 4.683h4.784a.879.879 0 0 0 0-1.757h-4.784a.879.879 0 1 0 0 1.757m0 4.682h4.784a.879.879 0 0 0 0-1.758h-4.784a.879.879 0 1 0 0 1.758m-4.756-9.365h.502a.879.879 0 0 0 0-1.758h-.502a.879.879 0 0 0 0 1.758m0 4.683h.502a.879.879 0 0 0 0-1.757h-.502a.879.879 0 0 0 0 1.757m0 4.682h.502a.879.879 0 0 0 0-1.758h-.502a.879.879 0 0 0 0 1.758M58.576 12.52H1.425a.879.879 0 0 0 0 1.757h57.15a.879.879 0 1 0 0-1.757M9.885 0a.88.88 0 0 0-.88.879v6.886a.879.879 0 0 0 1.759 0V.879A.88.88 0 0 0 9.884 0M6.21 0a.88.88 0 0 0-.879.879v4.733c0 .325-.092.744-.814 1.107a1.6 1.6 0 0 1-.738.167h-.003c-.3 0-.56-.074-.797-.225-.56-.358-.674-.676-.674-1.044V.879a.879.879 0 0 0-1.758 0v4.738c0 1.046.5 1.895 1.486 2.525.52.332 1.105.5 1.741.502h.005c.548 0 1.062-.12 1.529-.355 1.472-.74 1.781-1.865 1.781-2.677V.88A.88.88 0 0 0 6.21 0M31.8 4.078l1.896-2.693A.879.879 0 1 0 32.26.373L30.725 2.55 29.194.373a.88.88 0 0 0-1.438 1.012l1.894 2.692-2.241 3.182a.879.879 0 0 0 1.437 1.012l1.878-2.667L32.6 8.271a.88.88 0 0 0 1.224.213.88.88 0 0 0 .214-1.225zM25.341 0a.88.88 0 0 0-.879.879v4.733c0 .325-.092.744-.814 1.107a1.6 1.6 0 0 1-.738.167h-.003c-.3 0-.56-.074-.797-.225-.56-.358-.674-.676-.674-1.044V.879a.879.879 0 0 0-1.758 0v4.738c0 1.046.5 1.895 1.486 2.525.519.332 1.105.5 1.741.502h.005c.548 0 1.062-.12 1.529-.355 1.472-.74 1.781-1.865 1.781-2.677V.88a.88.88 0 0 0-.879-.88m-8.186.07a.88.88 0 0 0-1.152.467L13.09 7.423a.879.879 0 1 0 1.62.684l2.91-6.886A.88.88 0 0 0 17.156.07M52.45 1.781h6.126a.879.879 0 1 0 0-1.758H52.45a.879.879 0 1 0 0 1.758m6.126 1.662H52.45a.879.879 0 1 0 0 1.758h6.127a.879.879 0 1 0 0-1.758m-.001 3.42H52.45a.879.879 0 1 0 0 1.758h6.127a.879.879 0 1 0 0-1.758m-2.345 11.313H27.445a3.226 3.226 0 0 0-3.222 3.222v35.379a3.226 3.226 0 0 0 3.222 3.222h28.787a3.226 3.226 0 0 0 3.223-3.223V21.399a3.226 3.226 0 0 0-3.223-3.222m1.465 38.6c0 .808-.657 1.465-1.465 1.465H27.445a1.466 1.466 0 0 1-1.465-1.465V21.399c0-.807.657-1.464 1.465-1.464h28.787c.808 0 1.465.657 1.465 1.464z"/><path d="M17.294 44.666h-6.98a.879.879 0 1 0 0 1.758h6.98c.807 0 1.465.657 1.465 1.465v8.89c0 .807-.658 1.464-1.465 1.464H3.77a1.466 1.466 0 0 1-1.465-1.465v-8.89c0-.807.657-1.464 1.465-1.464h2.442a.879.879 0 0 0 0-1.758H3.77a3.226 3.226 0 0 0-3.223 3.223v8.89A3.226 3.226 0 0 0 3.77 60h13.524a3.226 3.226 0 0 0 3.222-3.223v-8.89a3.226 3.226 0 0 0-3.222-3.222m0-26.489H3.77a3.226 3.226 0 0 0-3.223 3.222v3.821a.879.879 0 0 0 1.758 0V21.4c0-.808.657-1.465 1.465-1.465h13.524c.807 0 1.465.657 1.465 1.464v15.744c0 .807-.658 1.464-1.465 1.464H3.77a1.466 1.466 0 0 1-1.465-1.465v-7.82a.879.879 0 0 0-1.758 0v7.82a3.226 3.226 0 0 0 3.223 3.223h13.524a3.226 3.226 0 0 0 3.222-3.222V21.398a3.226 3.226 0 0 0-3.222-3.222M41.838 41.26a7.46 7.46 0 0 1-7.244-5.635.879.879 0 0 0-1.704.43 9.216 9.216 0 0 0 8.948 6.964c5.089 0 9.229-4.14 9.229-9.23 0-5.088-4.14-9.228-9.229-9.228a9.216 9.216 0 0 0-8.948 6.962.879.879 0 1 0 1.704.43 7.46 7.46 0 0 1 7.244-5.635c4.12 0 7.471 3.352 7.471 7.471 0 4.12-3.351 7.472-7.471 7.472m7.632 5.36H34.207a3.66 3.66 0 0 0-3.654 3.654 3.66 3.66 0 0 0 3.654 3.654H49.47a3.66 3.66 0 0 0 3.654-3.654 3.66 3.66 0 0 0-3.654-3.654m0 5.55H34.207a1.9 1.9 0 0 1-1.897-1.896c0-1.045.851-1.896 1.897-1.896H49.47c1.045 0 1.896.85 1.896 1.896s-.85 1.896-1.896 1.896"/></g><defs><clipPath id="a"><path fill="#fff" d="M0 0h60v60H0z"/></clipPath></defs></svg>