<svg width="60" height="60" viewBox="0 0 60 60" fill="none" xmlns="http://www.w3.org/2000/svg">
<path d="M30 38C25.5888 38 22 34.4117 22 30.0002C22 25.5888 25.5888 22 30 22C30.6255 22 31.3877 22.1571 31.3372 22.9739C31.289 23.7538 30.5963 23.8052 30 23.8052C26.5642 23.8052 23.7694 26.5843 23.7694 30.0002C23.7694 33.4161 26.5642 36.1948 30 36.1948C33.4358 36.1948 36.2306 33.4157 36.2306 30.0002C36.2306 29.0019 35.9997 28.0497 35.544 27.1692C35.3158 26.7287 35.4812 26.1827 35.913 25.9498C36.3447 25.7169 36.8808 25.8848 37.1087 26.3266C37.6917 27.4531 38 28.7235 38 30.0002C38 34.4117 34.4116 38 30 38Z" fill="#282928"/>
<path d="M34.3276 25C34.1898 25 34.0507 24.9525 33.9303 24.8541C33.7504 24.7071 33.5593 24.5725 33.3623 24.454C33.03 24.2545 32.9035 23.788 33.079 23.411C33.2545 23.0348 33.6661 22.8901 33.9984 23.0899C34.2507 23.2416 34.4956 23.4137 34.7262 23.6024C35.2486 24.0295 34.9725 25 34.3276 25Z" fill="#282928"/>
<path d="M54 16.1066L53.9689 12.2625C53.9649 11.776 53.5728 11.3846 53.0917 11.3846C53.0891 11.3846 53.0869 11.3846 53.0843 11.3846C52.6001 11.3886 52.2102 11.7884 52.2141 12.2771L52.2233 13.4437C46.9574 7.11371 38.5223 3 30.4314 3C22.0652 3 14.3208 6.78256 9.18731 13.3768C8.88821 13.7611 8.95443 14.3176 9.33511 14.6195C9.71624 14.9219 10.2675 14.855 10.5671 14.4703C15.366 8.30595 22.6064 4.77086 30.4314 4.77086C38.2968 4.77086 46.5109 8.91734 51.401 15.2291H48.9937C48.5095 15.2291 48.1165 15.6254 48.1165 16.1146C48.1165 16.6033 48.5095 17 48.9937 17H53.1228C53.4057 16.9996 54 16.6812 54 16.1066Z" fill="#282928"/>
<path d="M55.2221 20.5577C55.047 20.1077 54.5394 19.8844 54.0891 20.0599C53.6389 20.2351 53.4157 20.7429 53.5912 21.1939C54.6917 24.0191 55.2496 27.0011 55.2496 30.0571C55.2496 39.6589 48.5645 48.879 39.039 52.8487L39.691 51.8505C39.9554 51.4459 39.8416 50.903 39.4372 50.639C39.0325 50.375 38.4903 50.488 38.2256 50.893L36.1382 54.0882C35.8477 54.5317 36.0345 55.1547 36.5176 55.3684L40.0341 56.92C41.0664 57.3731 41.7731 55.7738 40.7404 55.3176L39.2443 54.6578C43.8368 52.8334 48 49.7993 51.1332 45.9557C54.9718 41.2465 57 35.7492 57 30.0571C57 26.7827 56.4018 23.587 55.2221 20.5577C56.4018 23.587 55.0466 20.1072 55.2221 20.5577Z" fill="#282928"/>
<path d="M31.1024 55.2092C30.7627 55.2229 30.4213 55.23 30.0781 55.23C16.449 55.23 5.36096 44.0169 5.36096 30.2334C5.36096 27.795 6.36018 24.7451 7.31235 22.1707L8.07374 23.8986C8.53342 24.9408 10.105 24.2081 9.64745 23.1699L8.03791 19.5175C7.8398 19.0686 7.29465 18.8698 6.86475 19.0903L3.4769 20.8306C3.05045 21.0493 2.87823 21.5815 3.09146 22.0184C3.30511 22.4558 3.82479 22.6334 4.24995 22.4133L5.64022 21.6992C4.65525 24.3777 3.63488 27.5528 3.63488 30.233C3.63488 44.9922 15.4973 57 30.0786 57C30.4446 57 30.8089 56.992 31.171 56.9774C31.6475 56.9584 32.0183 56.5462 31.9993 56.0579C31.9803 55.5696 31.5776 55.1906 31.1024 55.2092C31.5776 55.1906 30.7631 55.2229 31.1024 55.2092Z" fill="#282928"/>
<path d="M31.4357 47.9999C30.5533 47.9999 27.9376 48.0102 27.5304 47.8366C26.8292 47.5379 26.2574 46.7763 26.2574 45.9954V44.2033C24.9026 43.8479 23.5941 43.2946 22.4092 42.5762L21.1505 43.833C20.3603 44.614 19.0131 44.4831 18.2548 43.757C17.8844 43.4021 16.4424 41.9284 16.1089 41.5407C15.3977 40.7134 15.4135 39.4314 16.1907 38.655L17.4574 37.3905C16.7166 36.1273 16.1763 34.7999 15.8688 33.4868H14.096C12.9906 33.4868 12.0772 32.5781 12.0166 31.4819C11.9882 30.9695 12.0017 28.9025 12.0166 28.3879C12.0471 27.3276 12.9043 26.3092 14.0223 26.3092H15.8194C16.1749 24.9575 16.7283 23.6516 17.4475 22.4699L16.1911 21.2153C15.4049 20.4285 15.5411 19.0745 16.2671 18.3188C16.6227 17.949 18.0988 16.5086 18.4868 16.1762C19.3139 15.4677 20.5949 15.4834 21.3717 16.2581L22.6402 17.5248C23.9056 16.7844 25.2361 16.2446 26.5523 15.9369V14.0957C26.5523 12.9891 27.4639 12.0782 28.558 12.017C29.0708 11.9887 31.1413 12.0008 31.6569 12.017C32.7775 12.0521 33.6625 12.9684 33.6625 14.0957V15.8878C35.0174 16.2432 36.3259 16.7961 37.5108 17.5149L38.7694 16.2581C39.5578 15.4744 40.9086 15.6098 41.6651 16.3345C42.0355 16.6895 43.4775 18.1627 43.8106 18.5504C44.5217 19.3781 44.506 20.6597 43.7283 21.4361L42.4621 22.7006C43.2029 23.9633 43.7427 25.2903 44.0506 26.6039H45.8235C46.9032 26.6039 47.8593 27.4032 47.9699 28.4972C48.0234 29.0267 47.9924 31.1737 47.9771 31.7032C47.9465 32.7639 47.0902 33.7814 45.9714 33.7814H44.1743C43.8187 35.1332 43.2654 36.4386 42.5461 37.6213L43.8025 38.8754C44.5892 39.6626 44.4525 41.0166 43.7266 41.7723C43.371 42.1421 41.8953 43.582 41.5069 43.9145C40.6793 44.6234 39.3992 44.6086 38.622 43.833L37.3534 42.5663C36.0881 43.3063 34.758 43.8465 33.4414 44.1542V45.9216C33.4414 46.9824 32.5307 47.9999 31.4357 47.9999ZM28.055 45.9239C28.0743 46.0152 28.1386 46.2005 28.3363 46.2005H31.3647C31.4568 46.1812 31.6434 46.1173 31.6434 45.9212V43.4165C31.6434 42.977 31.9612 42.6014 32.3949 42.5294C33.9273 42.2744 35.5186 41.632 36.997 40.6725C37.3525 40.4417 37.8214 40.4912 38.1212 40.7903L39.8918 42.5587C40.0343 42.7013 40.2253 42.6171 40.3152 42.5641L42.4693 40.4849C42.5978 40.3567 42.5201 40.1745 42.467 40.0837L40.7616 38.3806C40.4546 38.0742 40.4101 37.5925 40.6551 37.2348C41.5644 35.9074 42.249 34.2961 42.5826 32.6969C42.6698 32.2799 43.037 31.9812 43.4627 31.9812H45.9008C45.9925 31.9623 46.1791 31.8989 46.1791 31.7028V28.6772C46.1422 28.495 46.0226 28.4028 45.8235 28.4028H43.3148C42.8752 28.4028 42.5003 28.0852 42.4279 27.6511C42.1731 26.1221 41.5298 24.5342 40.5692 23.0582C40.3368 22.7015 40.3863 22.231 40.6874 21.93L42.458 20.1617C42.5978 20.0223 42.5156 19.8338 42.4634 19.7443L40.3813 17.5936C40.251 17.4641 40.0658 17.5423 39.9736 17.5954L38.2677 19.299C37.9621 19.6044 37.4825 19.6489 37.126 19.4047C35.7968 18.4973 34.1822 17.8131 32.5797 17.4798C32.1625 17.3934 31.8636 17.025 31.8636 16.599V14.0943C31.8636 13.9212 31.7427 13.815 31.656 13.815H28.6276C28.5355 13.8343 28.3489 13.8982 28.3489 14.0943V16.6728C28.3489 17.1123 28.0311 17.4879 27.5974 17.5599C26.0654 17.8149 24.4742 18.4569 22.9953 19.4164C22.6397 19.648 22.1714 19.5981 21.8715 19.2985L20.1009 17.5306C19.9589 17.3885 19.7674 17.4722 19.6775 17.5248L17.5235 19.6039C17.3949 19.7321 17.4727 19.9143 17.5257 20.0052L19.2311 21.7087C19.5382 22.0155 19.5827 22.4968 19.3377 22.8545C18.4288 24.181 17.7442 25.7928 17.4102 27.392C17.323 27.809 16.9557 28.1077 16.5301 28.1077H14.0933C14.0011 28.1275 13.8146 28.1909 13.8146 28.3875V31.4104C13.8339 31.5017 13.8982 31.687 14.096 31.687H16.6047C17.0443 31.687 17.4192 32.005 17.4916 32.4387C17.7464 33.9672 18.3892 35.5556 19.3503 37.032C19.5827 37.3887 19.5332 37.8592 19.232 38.1602L17.4614 39.928C17.3216 40.0679 17.4039 40.2564 17.456 40.3459L19.5382 42.4966C19.6685 42.6266 19.8537 42.5483 19.9459 42.4943L21.6517 40.7908C21.9569 40.4854 22.437 40.4408 22.7939 40.6851C24.1227 41.5929 25.7368 42.2771 27.3398 42.6104C27.7569 42.6968 28.0559 43.0652 28.0559 43.4912V45.9239H28.055Z" fill="#282928"/>
</svg>
