<svg width="60" height="60" viewBox="0 0 60 60" fill="none" xmlns="http://www.w3.org/2000/svg">
<path d="M25.7266 13.0922C23.9084 11.4559 21.4538 10.7286 18.9993 11.0013C14.9084 11.5468 11.7266 14.8195 11.7266 18.7286V18.9104C11.8175 20.4559 12.6357 25.4559 18.5447 26.4559C19.0902 26.5468 19.5447 26.6377 20.0902 26.6377C22.0902 26.6377 23.9993 25.9104 25.5447 24.6377C27.3629 23.1831 28.3629 21.0013 28.3629 18.8195C28.3629 16.5468 27.4538 14.5468 25.7266 13.0922ZM24.3629 23.1831C22.8175 24.4559 20.8175 25.0013 18.8175 24.6377C14.3629 23.9104 13.6357 20.2741 13.5447 18.7286C13.5447 18.7286 13.5447 18.7286 13.5447 18.6377C13.5447 15.6377 15.9993 13.0922 19.1811 12.7286C21.0902 12.4559 23.0902 13.0922 24.5447 14.365C25.8175 15.5468 26.5447 17.0922 26.5447 18.7286C26.5447 20.4559 25.7266 22.0922 24.3629 23.1831Z" fill="#282928"/>
<path d="M31.7262 33.0011L35.2717 29.6374C35.6353 29.3647 35.6353 28.8192 35.3626 28.4556L32.8171 24.9102C33.1808 24.1829 33.5444 23.4556 33.7262 22.7283L38.2717 21.9102C38.7262 21.8192 38.9989 21.4556 38.9989 21.0011V16.2738C38.9989 15.8192 38.6353 15.4556 38.2717 15.3647L33.6353 14.5465C33.3626 13.8192 33.0898 13.092 32.6353 12.3647L35.1808 8.81925C35.4535 8.45561 35.3626 7.91016 35.0898 7.63743C34.9989 7.54652 31.7262 4.54652 31.4535 4.3647C31.1808 4.18288 30.908 4.09197 30.5444 4.18288C30.4535 4.18288 30.2717 4.27379 30.1808 4.3647L26.7262 6.54652C26.6353 6.63743 26.5444 6.63743 26.4535 6.72834C25.7262 6.3647 24.9989 6.09197 24.2717 5.91016L23.3626 1.63743C23.2717 1.18288 22.908 0.910156 22.4535 0.910156H17.4535C16.9989 0.910156 16.6353 1.27379 16.5444 1.72834L15.6353 5.91016C14.8171 6.18288 13.9989 6.45561 13.2717 6.81925C11.2717 5.54652 10.1808 4.91016 9.54439 4.54652C9.45348 4.45561 9.45348 4.45561 9.36257 4.3647V4.45561C8.81712 4.18288 8.72621 4.27379 8.45348 4.3647C8.45348 4.45561 8.27166 4.54652 8.27166 4.63743L4.81712 7.81925C4.45348 8.18288 4.45348 8.72834 4.81712 9.09197C5.08984 9.45561 5.90803 10.5465 6.54439 11.4556L7.27166 12.6374C6.90803 13.3647 6.54439 14.092 6.36257 14.8192L1.81712 15.6374C1.36257 15.7283 1.08984 16.092 1.08984 16.5465V21.2738C1.08984 21.6374 1.27166 21.9102 1.54439 22.092C1.72621 22.1829 1.81712 22.2738 1.99893 22.1829L6.45348 22.9102C6.6353 23.4556 6.90803 24.1829 7.45348 25.092C6.18075 26.9102 5.45348 27.9102 5.08984 28.5465C4.99893 28.6374 4.99893 28.6374 4.90803 28.7283C4.6353 29.2738 4.6353 29.3647 4.81712 29.6374C4.90803 29.8192 4.99894 29.9102 5.18075 30.0011C5.81712 30.5465 8.45348 33.0011 8.6353 33.1829C8.90803 33.3647 9.18075 33.4556 9.54439 33.3647C9.6353 33.3647 9.81712 33.2738 9.90803 33.1829L13.6353 30.7283C14.3626 31.092 15.0898 31.3647 15.8171 31.5465L16.7262 35.8192C16.8171 36.2738 17.1808 36.5465 17.6353 36.5465H22.6353C23.0898 36.5465 23.4535 36.2738 23.5444 35.8192L24.4535 31.5465C25.2717 31.2738 26.0898 31.0011 26.8171 30.6374L30.7262 33.092C30.908 33.3647 31.3626 33.2738 31.7262 33.0011ZM26.3626 28.8192C25.4535 29.3647 24.4535 29.7283 23.3626 30.0011C22.9989 30.092 22.7262 30.3647 22.7262 30.7283L21.8171 34.7283H18.2717L17.4535 30.6374C17.3626 30.2738 17.0898 30.0011 16.8171 29.9102C15.8171 29.6374 14.8171 29.2738 13.9989 28.8192C13.7262 28.6374 13.3626 28.6374 13.0898 28.8192L9.36257 31.1829C8.81712 30.9102 7.99894 30.1829 6.81712 29.092C7.6353 27.9102 9.18075 25.7283 9.18075 25.6374C9.36257 25.3647 9.36257 24.9102 9.18075 24.6374C8.54439 23.5465 8.27166 22.9102 7.99894 22.1829L7.90803 21.8192C7.81712 21.5465 7.54439 21.2738 7.18075 21.2738L2.81712 20.5465C2.81712 19.9102 2.81712 18.8192 2.81712 17.3647L7.18075 16.5465C7.54439 16.4556 7.81712 16.1829 7.90803 15.9102C8.08984 15.2738 8.45348 14.2738 8.99894 13.3647C9.36257 13.092 9.45348 12.8192 8.99894 12.1829C8.99894 12.092 8.90803 12.092 8.90803 12.0011C8.72621 11.6374 8.36257 11.2738 7.99894 10.6374L6.6353 8.63743C7.08984 8.18288 7.81712 7.54652 8.81712 6.54652L9.08984 6.3647C10.2717 7.09197 12.7262 8.63743 12.8171 8.72834C13.0898 8.91016 13.4535 8.91016 13.7262 8.72834C14.6353 8.27379 15.6353 7.81925 16.7262 7.54652C17.0898 7.45561 17.3626 7.18288 17.3626 6.81925L18.2717 2.72834H21.8171L22.6353 6.81925C22.7262 7.18288 22.9989 7.45561 23.2717 7.54652C24.2717 7.81925 25.0898 8.09197 25.9989 8.54652C26.2717 8.72834 26.7262 8.81925 26.9989 8.54652L30.7262 6.18288C31.1808 6.63743 31.9989 7.3647 33.1808 8.45561L30.7262 11.9102C30.5444 12.1829 30.5444 12.6374 30.7262 12.9102C31.2717 13.8192 31.7262 14.7283 31.9989 15.6374C32.0898 16.0011 32.3626 16.1829 32.7262 16.2738L37.0898 17.0011V20.1829L32.7262 21.0011C32.3626 21.092 32.0898 21.2738 31.9989 21.6374C31.908 22.7283 31.4535 23.6374 30.908 24.4556C30.7262 24.7283 30.7262 25.1829 30.908 25.4556L33.3626 28.8192L30.908 31.092L27.2717 28.8192C26.9989 28.7283 26.6353 28.6374 26.3626 28.8192Z" fill="#282928"/>
<path d="M51.1793 43.0923C50.543 39.9105 47.6339 37.5469 44.4521 37.5469C40.6339 37.5469 37.543 40.6378 37.543 44.456V44.5469C37.543 46.6378 38.4521 48.456 40.0884 49.8196C41.3611 50.8196 42.9066 51.3651 44.4521 51.3651C45.7248 51.3651 46.9066 51.0014 48.0884 50.3651C50.543 48.9105 51.7248 46.0014 51.1793 43.0923ZM47.0884 48.8196C45.6339 49.7287 43.2702 50.0923 41.2702 48.456C40.0884 47.456 39.4521 46.0923 39.4521 44.5469C39.4521 44.5469 39.4521 44.5469 39.4521 44.456C39.4521 41.6378 41.7248 39.3651 44.543 39.3651C46.9066 39.3651 48.9975 41.0923 49.543 43.3651C49.9066 46.0923 48.543 47.9105 47.0884 48.8196Z" fill="#282928"/>
<path d="M58.9063 42.4567C58.9063 42.0021 58.6335 41.6385 58.179 41.5476L54.8153 40.9112C54.6335 40.3658 54.4517 39.8203 54.179 39.3658L55.9972 36.5476C56.2699 36.184 56.179 35.7294 55.9062 35.3658C54.5426 34.093 53.8153 33.2749 53.3608 32.9112C53.3608 32.8203 53.2699 32.7294 53.179 32.7294C52.7244 32.3658 52.6335 32.3658 52.3608 32.4567C52.179 32.4567 52.0881 32.5476 51.9972 32.6385C51.5426 32.9112 50.2699 33.8203 49.4517 34.3658L49.3608 34.4567C48.9062 34.184 48.4517 34.0021 47.9062 33.9112L47.2699 30.5476C47.179 30.093 46.8153 29.8203 46.3608 29.8203H42.5426C42.0881 29.8203 41.7244 30.184 41.6335 30.6385L40.9972 33.9112C40.4517 34.093 39.9063 34.2749 39.4517 34.5476C38.6335 34.0021 36.8153 32.8203 36.6335 32.6385C36.179 32.3658 35.6335 32.4567 35.3608 32.8203L33.8153 34.5476C33.7244 34.6385 33.7244 34.6385 33.6335 34.7294L33.4517 34.9112L33.3608 35.0021L33.2699 35.093L32.7244 35.6385C32.4517 35.9112 32.3608 36.4567 32.6335 36.8203C32.6335 36.9112 33.9062 38.7294 34.5426 39.6385C34.2699 40.1839 34.0881 40.7294 33.9062 41.2749L30.6335 41.8203C30.179 41.9112 29.9062 42.2749 29.9062 42.7294V46.3658V46.5476C29.9972 47.093 30.0881 47.1839 30.3608 47.3658C30.4517 47.4567 30.6335 47.4567 30.8153 47.4567L33.9972 48.0021C34.179 48.4567 34.3608 48.9112 34.6335 49.5476C34.179 50.1839 33.4517 51.2749 33.0881 51.9112L32.8153 52.3658C32.5426 52.8203 32.6335 53.3658 33.0881 53.6385L35.7244 56.1839C35.9972 56.3658 36.2699 56.4567 36.6335 56.4567C36.7244 56.4567 36.9062 56.3658 36.9972 56.2749L39.7244 54.3658C40.179 54.5476 40.6335 54.8203 41.179 54.9112L41.8153 58.2749C41.9062 58.7294 42.2699 59.0021 42.7244 59.0021H46.3608C46.8153 59.0021 47.179 58.7294 47.2699 58.2749L47.9062 54.9112C48.4517 54.7294 48.9972 54.5476 49.4517 54.2749L52.2699 56.1839C52.6335 56.4567 53.0881 56.3658 53.4517 56.093L56.0881 53.3658C56.3608 53.093 56.4517 52.5476 56.179 52.184L54.2699 49.3658C54.5426 48.8203 54.7244 48.3658 54.9063 47.7294L58.179 47.093C58.6335 47.0021 58.9063 46.6385 58.9063 46.1839V42.4567ZM53.9972 46.1839C53.6335 46.2749 53.3608 46.5476 53.2699 46.8203C53.0881 47.6385 52.7244 48.3658 52.3608 49.0021C52.179 49.2749 52.179 49.6385 52.3608 50.0021L54.179 52.6385L52.5426 54.2749L49.9063 52.4567C49.6335 52.2749 49.2699 52.2749 48.9062 52.4567C48.2699 52.8203 47.4517 53.1839 46.7244 53.3658C46.3608 53.4567 46.179 53.7294 46.0881 54.093L45.5426 57.2749H43.2699L42.6335 54.1839C42.5426 53.8203 42.2699 53.5476 41.9972 53.4567C41.2699 53.2749 40.5426 53.0021 39.9063 52.6385C39.6335 52.4567 39.2699 52.4567 38.9062 52.7294L36.2699 54.5476C35.9063 54.1839 35.3608 53.6385 34.6335 52.9112C35.2699 52.0021 36.3608 50.3658 36.3608 50.2749C36.5426 50.0021 36.5426 49.6385 36.3608 49.2749C35.9062 48.4567 35.7244 47.9112 35.5426 47.3658L35.4517 47.093C35.4517 46.6385 35.179 46.3658 34.8153 46.3658L31.7244 45.8203C31.7244 45.184 31.7244 44.184 31.7244 43.5476L34.8153 42.9112C35.179 42.8203 35.4517 42.5476 35.5426 42.184C35.6335 41.7294 35.9972 40.8203 36.3608 40.093C36.3608 40.0021 36.4517 40.0021 36.4517 39.9112C36.5426 39.6385 36.6335 39.5476 36.3608 39.0021C36.3608 38.9112 36.2699 38.9112 36.179 38.8203C35.9062 38.3658 35.4517 37.6385 34.5426 36.3658C34.5426 36.3658 34.5426 36.3658 34.6335 36.2749L34.7244 36.1839L36.2699 34.6385C36.8153 35.093 37.7244 35.6385 38.9062 36.4567C39.179 36.6385 39.5426 36.6385 39.9063 36.4567C40.5426 36.093 41.2699 35.7294 42.0881 35.5476C42.4517 35.4567 42.6335 35.1839 42.7244 34.8203L43.3608 31.7294H45.6335L46.2699 34.8203C46.3608 35.1839 46.5426 35.4567 46.9062 35.5476C47.6335 35.7294 48.179 36.0021 48.8153 36.2749C49.179 36.6385 49.5426 36.5476 49.9063 36.2749C50.2699 36.0021 49.9972 36.1839 49.9972 36.1839C50.179 36.093 50.2699 36.0021 50.4517 35.9112C50.9972 35.5476 51.9062 34.9112 52.4517 34.4567L54.0881 36.093L52.3608 38.7294C52.179 39.0021 52.179 39.3658 52.3608 39.7294C52.7244 40.4567 53.0881 41.1839 53.2699 41.9112C53.3608 42.2749 53.6335 42.4567 53.9972 42.5476L57.0881 43.093V45.3658L53.9972 46.1839Z" fill="#282928"/>
<path d="M25.4517 53.4584C17.2699 53.2766 10.4517 47.1857 9.17898 39.2766L10.6335 40.7312C10.9972 41.0948 11.5426 41.0948 11.9063 40.7312C12.2699 40.3675 12.2699 39.8221 11.9063 39.4585L8.63352 36.2766C8.26989 35.913 7.72443 35.913 7.3608 36.2766L4.17898 39.5494C3.81534 39.913 3.81534 40.4585 4.17898 40.8221C4.54261 41.1857 5.08807 41.1857 5.4517 40.8221L7.26989 39.0039C8.4517 48.0039 15.9972 55.0948 25.4517 55.3675C25.9972 55.3675 26.3608 54.913 26.3608 54.4585C26.3608 53.8221 25.9972 53.4584 25.4517 53.4584Z" fill="#282928"/>
<path d="M58.1792 24.5484C57.8155 24.1847 57.2701 24.1847 56.9064 24.5484L55.1792 26.2756C55.4519 17.1847 49.0882 9.09382 40.0882 7.27564C39.6337 7.18473 39.0882 7.54837 39.0882 8.09382C38.9973 8.54837 39.361 9.00291 39.8155 9.09382C47.9064 10.7302 53.6337 18.0029 53.4519 26.1847L51.7246 24.5484C51.361 24.1847 50.8155 24.1847 50.4519 24.5484C50.0882 24.912 50.0882 25.4575 50.4519 25.8211L53.6337 29.0029C53.8155 29.1847 53.9973 29.2756 54.2701 29.2756C54.5428 29.2756 54.7246 29.1847 54.9064 29.0029L58.0882 25.8211C58.5428 25.4575 58.5428 24.912 58.1792 24.5484Z" fill="#282928"/>
</svg>
