<svg width="60" height="60" viewBox="0 0 60 60" fill="none" xmlns="http://www.w3.org/2000/svg">
<path d="M10.9645 6.47656C8.77844 6.47656 7 8.25441 7 10.4395C7 12.6246 8.77844 14.4024 10.9645 14.4024C13.1522 14.4024 14.9322 12.6246 14.9322 10.4395C14.9322 8.25441 13.1522 6.47656 10.9645 6.47656ZM10.9645 12.039C10.0817 12.039 9.36355 11.3214 9.36355 10.4395C9.36355 9.55754 10.0817 8.84012 10.9645 8.84012C11.849 8.84012 12.5687 9.55766 12.5687 10.4396C12.5687 11.3216 11.849 12.039 10.9645 12.039Z" fill="#282928"/>
<path d="M45.628 6.47656H35.148C32.962 6.47656 31.1836 8.25441 31.1836 10.4395C31.1836 12.6246 32.962 14.4024 35.148 14.4024H45.628C47.814 14.4024 49.5925 12.6246 49.5925 10.4395C49.5925 8.25441 47.814 6.47656 45.628 6.47656ZM45.628 12.039H35.148C34.2653 12.039 33.5471 11.3214 33.5471 10.4395C33.5471 9.55754 34.2654 8.84 35.148 8.84H45.628C46.5108 8.84 47.2289 9.55754 47.2289 10.4395C47.2289 11.3214 46.5108 12.039 45.628 12.039Z" fill="#282928"/>
<path d="M21.2379 6.47656C19.0519 6.47656 17.2734 8.25441 17.2734 10.4395C17.2734 12.6246 19.0519 14.4024 21.2379 14.4024C23.4257 14.4024 25.2056 12.6246 25.2056 10.4395C25.2056 8.25441 23.4257 6.47656 21.2379 6.47656ZM21.2379 12.039C20.3551 12.039 19.637 11.3214 19.637 10.4395C19.637 9.55754 20.3552 8.84 21.2379 8.84C22.1224 8.84 22.8422 9.55754 22.8422 10.4395C22.8422 11.3214 22.1224 12.039 21.2379 12.039Z" fill="#282928"/>
<path d="M19.3129 26.0679C18.6783 25.9159 18.0404 26.3077 17.8888 26.9426L15.5443 36.7533C15.3927 37.3881 15.7842 38.0257 16.419 38.1773C16.5114 38.1994 16.6038 38.21 16.6948 38.21C17.229 38.21 17.7135 37.8451 17.8431 37.3027L20.1875 27.492C20.3393 26.8571 19.9477 26.2197 19.3129 26.0679Z" fill="#282928"/>
<path d="M23.6497 37.0246C23.875 37.2252 24.1558 37.3239 24.4354 37.3239C24.7608 37.3239 25.0848 37.1903 25.3184 36.9282L28.6322 33.2082C29.179 32.5995 29.179 31.6463 28.6356 31.0415L25.3183 27.3176C24.884 26.8301 24.1369 26.7872 23.6497 27.2212C23.1622 27.6553 23.1191 28.4024 23.5533 28.8897L26.4334 32.1228L23.5533 35.356C23.1192 35.8435 23.1624 36.5905 23.6497 37.0246Z" fill="#282928"/>
<path d="M12.0806 27.2211C11.5931 26.787 10.8463 26.8304 10.4121 27.3176L7.0986 31.0372C6.5511 31.646 6.55109 32.5997 7.09484 33.2043L10.4122 36.9281C10.6457 37.1904 10.9696 37.3239 11.2952 37.3239C11.5748 37.3239 11.8557 37.2252 12.0808 37.0246C12.5683 36.5904 12.6114 35.8433 12.1773 35.3561L9.29715 32.123L12.1773 28.8898C12.6112 28.4023 12.5681 27.6552 12.0806 27.2211Z" fill="#282928"/>
<path d="M57.3505 39.7894H56.9118C56.682 39.045 56.3842 38.3264 56.0209 37.6397L56.334 37.3255C56.8341 36.8285 57.11 36.1649 57.1111 35.4568C57.1121 34.7472 56.8371 34.0808 56.3365 33.5803L55.7264 32.9706V7.79871C55.7264 4.27383 53.239 1.40625 50.1813 1.40625H5.54508C2.48742 1.40625 0 4.27383 0 7.79871V40.8284C0 44.3532 2.48742 47.2208 5.54508 47.2208H12.4786C13.1312 47.2208 13.6603 46.6917 13.6603 46.0391C13.6603 45.3865 13.1312 44.8574 12.4786 44.8574H5.54508C3.82055 44.8574 2.36355 43.0123 2.36355 40.8285V19.3886H53.3627V31.3305C53.2281 31.3098 53.0917 31.2962 52.9528 31.2962C52.9514 31.2962 52.95 31.2962 52.9487 31.2962C52.2407 31.2974 51.577 31.573 51.0839 32.0688L50.7645 32.3869C50.0633 32.0164 49.3331 31.7152 48.5802 31.4851V31.0642C48.5802 29.6036 47.3917 28.4154 45.9307 28.4154H43.7921C42.333 28.4154 41.1461 29.6036 41.1461 31.0642V31.5139C40.4073 31.7461 39.694 32.0448 39.0122 32.4076L38.7061 32.1025C38.209 31.6029 37.5452 31.327 36.8372 31.326C36.8359 31.326 36.8346 31.326 36.8332 31.326C36.125 31.326 35.4601 31.6008 34.9605 32.1L33.4496 33.6102C32.949 34.1106 32.674 34.777 32.675 35.4866C32.6761 36.1946 32.952 36.8583 33.4482 37.3514L33.7746 37.6787C33.4203 38.3549 33.1294 39.0602 32.9043 39.7891H32.4554C30.9962 39.7891 29.8092 40.9758 29.8092 42.4345V44.5752C29.8092 44.6704 29.8145 44.7643 29.8243 44.8569H22.9484C22.2957 44.8569 21.7666 45.386 21.7666 46.0386C21.7666 46.6912 22.2957 47.2204 22.9484 47.2204H32.4553H32.9087C33.1372 47.9562 33.4327 48.6671 33.793 49.3478L33.4737 49.6657C32.4456 50.6993 32.4465 52.3773 33.4761 53.4061L34.9879 54.9172C35.485 55.4168 36.1487 55.6927 36.8568 55.6937H36.8606C37.5689 55.6937 38.2338 55.4189 38.7334 54.9196L39.0499 54.6033C39.7366 54.9653 40.4507 55.2611 41.1857 55.4883V55.9457C41.1857 57.4063 42.3727 58.5945 43.8319 58.5945H45.9737C47.4328 58.5945 48.6198 57.4063 48.6198 55.9457V55.4911C49.3617 55.2622 50.0787 54.9653 50.7646 54.6032L51.0797 54.9171C51.5767 55.4168 52.2403 55.6925 52.9484 55.6937H52.9525C53.6606 55.6937 54.3255 55.4189 54.8261 54.9187L56.3337 53.4086C56.8337 52.9116 57.1097 52.2479 57.1107 51.5399C57.1118 50.8302 56.8368 50.1639 56.336 49.6634L56.0207 49.3481C56.3803 48.6669 56.6755 47.9555 56.9037 47.2205H57.3503C58.8113 47.2205 59.9998 46.0338 59.9998 44.5752V42.4345C60 40.976 58.8115 39.7894 57.3505 39.7894ZM2.36355 17.025V7.79871C2.36355 5.61492 3.82055 3.7698 5.54508 3.7698H50.1813C51.9059 3.7698 53.3629 5.61492 53.3629 7.79871V17.0251L2.36355 17.025ZM57.6364 44.5754C57.6364 44.7255 57.5029 44.8571 57.3504 44.8571H55.999C55.448 44.8571 54.9701 45.2379 54.847 45.775C54.5918 46.8888 54.1534 47.9452 53.5439 48.9149C53.2504 49.3819 53.3189 49.9898 53.7091 50.3797L54.6654 51.3354C54.7369 51.4069 54.7474 51.4922 54.7474 51.5367C54.7473 51.5899 54.7335 51.6671 54.6645 51.7356L53.1546 53.2481C53.083 53.3196 52.9976 53.3304 52.9526 53.3304C52.9525 53.3304 52.9523 53.3304 52.9523 53.3304C52.8987 53.3304 52.8212 53.3164 52.752 53.2467L51.7922 52.2909C51.4018 51.9022 50.795 51.8348 50.329 52.1278C49.3579 52.7387 48.2971 53.1778 47.1759 53.4329C46.6382 53.5555 46.2565 54.0336 46.2565 54.5854V55.946C46.2565 56.0979 46.1244 56.2313 45.9739 56.2313H43.8321C43.6815 56.2313 43.5495 56.098 43.5495 55.946V54.582C43.5495 54.0298 43.167 53.5511 42.6284 53.4293C41.5215 53.179 40.4626 52.7406 39.4813 52.1265C39.2879 52.0055 39.0707 51.9464 38.8547 51.9464C38.5494 51.9464 38.2468 52.0644 38.0189 52.2925L37.0628 53.2481C36.9912 53.3196 36.9057 53.3304 36.8607 53.3304C36.8606 53.3304 36.8605 53.3304 36.8604 53.3304C36.8068 53.3304 36.7293 53.3164 36.6614 53.2482L35.1472 51.7348C35.0412 51.6288 35.0423 51.4411 35.1458 51.337L36.1055 50.3812C36.4976 49.9908 36.5661 49.3807 36.2707 48.9129C35.6603 47.9463 35.2213 46.8907 34.9658 45.7753C34.8428 45.2382 34.3649 44.8574 33.8138 44.8574H32.4555C32.3024 44.8574 32.1729 44.7284 32.1729 44.5757V42.435C32.1729 42.2823 32.3024 42.1532 32.4555 42.1532H33.8104C34.362 42.1532 34.8403 41.7715 34.9628 41.2337C35.215 40.1255 35.6483 39.0742 36.2508 38.1088C36.5416 37.6427 36.473 37.0377 36.085 36.6486L35.1182 35.679C35.0525 35.6139 35.0387 35.5366 35.0386 35.4834C35.0386 35.4389 35.0491 35.3536 35.1206 35.2822L36.6314 33.7721C36.703 33.7007 36.7884 33.6899 36.8334 33.6899H36.8338C36.8873 33.69 36.9649 33.7038 37.0342 33.7736L37.9871 34.7228C38.3787 35.1127 38.9877 35.1795 39.4539 34.8837C40.4195 34.2715 41.4771 33.828 42.5972 33.5659C43.1316 33.4409 43.5095 32.9641 43.5095 32.4152V31.0645C43.5095 30.91 43.6389 30.7793 43.792 30.7793H45.9306C46.0856 30.7793 46.2166 30.91 46.2166 31.0645V32.3953C46.2166 32.949 46.601 33.4284 47.1416 33.5488C48.266 33.7992 49.3387 34.2415 50.33 34.8634C50.7959 35.1554 51.4021 35.0879 51.7921 34.6996L52.7557 33.7398C52.8211 33.6741 52.8986 33.6602 52.9521 33.6601H52.9525C52.9975 33.6601 53.0829 33.6709 53.1544 33.7424L54.6653 35.2523C54.7368 35.3238 54.7473 35.4091 54.7473 35.4537C54.7472 35.5069 54.7334 35.5841 54.6639 35.6531L53.7075 36.6123C53.3181 37.0029 53.2506 37.6109 53.5448 38.0773C54.1567 39.0472 54.5968 40.1094 54.8532 41.2342C54.9758 41.7718 55.4539 42.1533 56.0055 42.1533H57.3504C57.5027 42.1533 57.6364 42.2851 57.6364 42.4351V44.5754Z" fill="#282928"/>
<path d="M44.9056 36.2891C40.9234 36.2891 37.6836 39.5274 37.6836 43.5079C37.6836 47.4866 40.9234 50.7235 44.9056 50.7235C48.8861 50.7235 52.1244 47.4867 52.1244 43.5079C52.1244 39.5275 48.8861 36.2891 44.9056 36.2891ZM44.9056 48.36C42.2267 48.36 40.0471 46.1833 40.0471 43.5079C40.0471 40.8307 42.2267 38.6526 44.9056 38.6526C47.5828 38.6526 49.7608 40.8307 49.7608 43.5079C49.7608 46.1833 47.5827 48.36 44.9056 48.36Z" fill="#282928"/>
<path d="M17.7479 44.8555H17.7247C17.0721 44.8555 16.543 45.3846 16.543 46.0372C16.543 46.6898 17.0721 47.2189 17.7247 47.2189H17.7479C18.4005 47.2189 18.9296 46.6898 18.9296 46.0372C18.9296 45.3846 18.4005 44.8555 17.7479 44.8555Z" fill="#282928"/>
</svg>
