<svg width="60" height="60" viewBox="0 0 60 60" fill="none" xmlns="http://www.w3.org/2000/svg">
<path d="M53.4375 49.875C52.92 49.875 52.5 49.455 52.5 48.9375V18.9375C52.5 18.42 52.0781 18 51.5625 18H8.4375C7.92188 18 7.5 18.42 7.5 18.9375V48.9375C7.5 49.455 7.08 49.875 6.5625 49.875C6.045 49.875 5.625 49.455 5.625 48.9375V18.9375C5.625 17.3869 6.88687 16.125 8.4375 16.125H51.5625C53.1131 16.125 54.375 17.3869 54.375 18.9375V48.9375C54.375 49.455 53.955 49.875 53.4375 49.875Z" fill="#282928"/>
<path d="M23.5481 40.8315C23.3288 40.8315 23.1094 40.7546 22.9312 40.599L17.1956 35.5815C16.9931 35.4034 16.875 35.1465 16.875 34.8765C16.875 34.6065 16.9931 34.3496 17.1956 34.1715L22.9312 29.154C23.3194 28.8146 23.9119 28.8502 24.2531 29.2421C24.5963 29.6321 24.555 30.2227 24.165 30.5659L19.2375 34.8765L24.165 39.189C24.555 39.5302 24.5944 40.1227 24.2531 40.5127C24.0675 40.7246 23.8069 40.8315 23.5481 40.8315Z" fill="#282928"/>
<path d="M27.4408 43.4941C27.3415 43.4941 27.244 43.4791 27.1446 43.4454C26.6533 43.2822 26.389 42.7516 26.5521 42.2604L31.6708 26.8985C31.8358 26.4072 32.3683 26.1429 32.8577 26.306C33.349 26.4691 33.6133 26.9997 33.4502 27.491L28.3315 42.8529C28.1983 43.2447 27.8327 43.4941 27.4408 43.4941Z" fill="#282928"/>
<path d="M36.4536 40.8302C36.193 40.8302 35.9342 40.7215 35.7486 40.5096C35.4055 40.1196 35.4467 39.529 35.8367 39.1858L40.7642 34.8752L35.8367 30.5627C35.4467 30.2215 35.4074 29.629 35.7486 29.239C36.0899 28.8471 36.6824 28.8096 37.0705 29.1508L42.8061 34.1683C43.0105 34.3483 43.1267 34.6052 43.1267 34.8752C43.1267 35.1452 43.0086 35.4021 42.8061 35.5802L37.0705 40.5977C36.8942 40.7552 36.6749 40.8302 36.4536 40.8302Z" fill="#282928"/>
<path d="M53.4375 57.375H6.5625C3.97688 57.375 1.875 55.2713 1.875 52.6875C1.875 52.17 2.295 51.75 2.8125 51.75H23.4375C23.955 51.75 24.375 52.17 24.375 52.6875C24.375 53.205 23.955 53.625 23.4375 53.625H3.91125C4.2975 54.7162 5.34 55.5 6.5625 55.5H53.4375C54.66 55.5 55.7025 54.7162 56.0887 53.625H36.5625C36.045 53.625 35.625 53.205 35.625 52.6875C35.625 52.17 36.045 51.75 36.5625 51.75H57.1875C57.705 51.75 58.125 52.17 58.125 52.6875C58.125 55.2713 56.0231 57.375 53.4375 57.375Z" fill="#282928"/>
<path d="M41.2499 18C40.7324 18 40.3124 17.58 40.3124 17.0625V14.4975L38.4036 14.0775C38.053 14.0006 37.7774 13.7287 37.693 13.38C37.498 12.5662 37.1699 11.7731 36.7161 11.0212C36.5305 10.7156 36.5361 10.3331 36.7293 10.0312L37.7849 8.37937L36.808 7.4025L35.1561 8.46C34.8561 8.65313 34.4736 8.65688 34.1661 8.47125C33.4049 8.01188 32.6174 7.68937 31.8243 7.515C31.468 7.43625 31.1886 7.15688 31.1099 6.80062L30.688 4.875H29.3118L28.8899 6.80062C28.8111 7.15688 28.5336 7.43625 28.1755 7.515C27.3824 7.68937 26.5949 8.01188 25.8336 8.47125C25.528 8.65688 25.1455 8.65125 24.8436 8.46L23.1918 7.4025L22.2149 8.37937L23.2705 10.0312C23.4636 10.3331 23.4674 10.7156 23.2836 11.0212C22.8243 11.7825 22.5036 12.57 22.3274 13.365C22.2486 13.7212 21.9693 14.0006 21.6111 14.0775L18.9486 14.6588C18.4405 14.7731 17.9436 14.4487 17.8349 13.9425C17.7224 13.4381 18.0449 12.9375 18.5511 12.8288L20.6493 12.3694C20.8293 11.7581 21.0768 11.1562 21.3899 10.5675L20.2311 8.75625C19.993 8.385 20.0455 7.89937 20.3568 7.58813L22.4005 5.54438C22.7118 5.23313 23.1974 5.18062 23.5686 5.41688L25.3799 6.57563C25.9686 6.2625 26.5743 6.015 27.1836 5.83687L27.643 3.73687C27.7349 3.3075 28.1155 3 28.5561 3H31.4418C31.8824 3 32.263 3.3075 32.3568 3.73687L32.8161 5.83687C33.4255 6.015 34.0293 6.2625 34.6199 6.57563L36.4311 5.41688C36.8024 5.18062 37.288 5.23313 37.5993 5.54438L39.643 7.58813C39.9543 7.89937 40.0068 8.385 39.7686 8.75625L38.6099 10.5675C38.9211 11.1506 39.1705 11.7525 39.358 12.3694L41.4486 12.8288C41.8818 12.9225 42.1874 13.3031 42.1874 13.7437V17.0625C42.1874 17.58 41.7674 18 41.2499 18Z" fill="#282928"/>
<path d="M25.6819 17.9531C25.3181 17.9531 24.9694 17.7394 24.8194 17.3813C24.525 16.6838 24.375 15.9469 24.375 15.1875C24.375 12.0862 26.8987 9.5625 30 9.5625C33.1012 9.5625 35.625 12.0862 35.625 15.1875C35.625 15.9431 35.4769 16.68 35.1844 17.3756C34.9819 17.8537 34.4306 18.0731 33.9563 17.8763C33.48 17.6756 33.255 17.1244 33.4556 16.6481C33.6506 16.1831 33.75 15.6937 33.75 15.1875C33.75 13.1194 32.0681 11.4375 30 11.4375C27.9319 11.4375 26.25 13.1194 26.25 15.1875C26.25 15.6937 26.3494 16.1869 26.5444 16.65C26.7469 17.1262 26.5238 17.6756 26.0475 17.8781C25.9275 17.9288 25.8056 17.9531 25.6819 17.9531Z" fill="#282928"/>
<path d="M40.3125 48C39.795 48 39.375 47.58 39.375 47.0625C39.375 46.545 39.795 46.0312 40.3125 46.0312C40.83 46.0312 41.25 46.3575 41.25 46.875V47.0625C41.25 47.58 40.83 48 40.3125 48Z" fill="#282928"/>
<path d="M44.0625 48C43.545 48 43.125 47.58 43.125 47.0625C43.125 46.545 43.545 46.0312 44.0625 46.0312C44.58 46.0312 45 46.3575 45 46.875V47.0625C45 47.58 44.58 48 44.0625 48Z" fill="#282928"/>
<path d="M47.8125 48C47.295 48 46.875 47.58 46.875 47.0625C46.875 46.545 47.295 46.0312 47.8125 46.0312C48.33 46.0312 48.75 46.3575 48.75 46.875V47.0625C48.75 47.58 48.33 48 47.8125 48Z" fill="#282928"/>
</svg>
