<svg width="60" height="60" viewBox="0 0 60 60" fill="none" xmlns="http://www.w3.org/2000/svg">
<g clip-path="url(#clip0_6724_1836)">
<path d="M59.9407 30.0014C59.9454 35.8244 58.2514 41.5222 55.0664 46.3968C51.8814 51.2714 47.3436 55.1112 42.0091 57.4455C36.6746 59.7798 30.7749 60.5074 25.0331 59.5391C19.2913 58.5708 13.9566 55.9486 9.68263 51.9939L9.95697 55.4112C9.96681 55.5339 9.95238 55.6574 9.91451 55.7745C9.87664 55.8917 9.81607 56.0002 9.73625 56.094C9.65643 56.1877 9.55893 56.2648 9.44932 56.3209C9.3397 56.3769 9.22012 56.4108 9.0974 56.4207C9.07197 56.4228 9.04654 56.4237 9.02134 56.4237C8.78583 56.4235 8.55905 56.3346 8.38608 56.1748C8.21311 56.0149 8.10664 55.7959 8.08783 55.5611L7.61287 49.6421C7.60199 49.5067 7.62064 49.3707 7.66753 49.2433C7.71441 49.1158 7.78841 49.0001 7.8844 48.9041C7.9804 48.8081 8.0961 48.7341 8.22351 48.6872C8.35091 48.6403 8.48699 48.6216 8.62232 48.6325L14.5416 49.1075C14.6643 49.1173 14.7839 49.1512 14.8935 49.2073C15.0031 49.2634 15.1006 49.3405 15.1804 49.4342C15.2602 49.528 15.3208 49.6365 15.3587 49.7536C15.3965 49.8708 15.4109 49.9943 15.4011 50.117C15.3912 50.2397 15.3573 50.3593 15.3013 50.4689C15.2452 50.5785 15.1681 50.676 15.0743 50.7558C14.9806 50.8356 14.8721 50.8962 14.7549 50.9341C14.6378 50.9719 14.5143 50.9863 14.3916 50.9765L11.0611 50.7093C16.2384 55.4331 22.9909 58.0568 29.9993 58.0679C45.4752 58.0679 58.0657 45.4773 58.0657 30.0014C58.073 24.5856 56.5072 19.2841 53.5586 14.7413C53.4259 14.5328 53.381 14.2803 53.4336 14.0388C53.4861 13.7973 53.6319 13.5864 53.8392 13.4518C54.0465 13.3173 54.2985 13.27 54.5405 13.3203C54.7824 13.3706 54.9948 13.5144 55.1312 13.7205C58.2775 18.5671 59.9483 24.2232 59.9407 30.0014ZM1.9329 30.0014C1.9329 14.5255 14.5234 1.93504 29.9993 1.93504C37.0086 1.94596 43.762 4.57 48.9399 9.29442L45.607 9.02711C45.4843 9.01726 45.3609 9.03168 45.2437 9.06955C45.1266 9.10741 45.018 9.16798 44.9243 9.24779C44.735 9.40898 44.6174 9.63878 44.5975 9.88662C44.5776 10.1345 44.657 10.3801 44.8182 10.5694C44.9794 10.7587 45.2092 10.8762 45.457 10.8961L51.3763 11.371C51.4014 11.3729 51.4265 11.3739 51.4514 11.3739C51.5808 11.3739 51.7089 11.3471 51.8274 11.2951C51.9459 11.2432 52.0525 11.1673 52.1402 11.0722C52.228 10.9771 52.2951 10.8648 52.3374 10.7425C52.3796 10.6202 52.3961 10.4904 52.3858 10.3614L51.9108 4.44239C51.901 4.31966 51.867 4.20007 51.811 4.09045C51.7549 3.98082 51.6778 3.88332 51.5841 3.80349C51.4903 3.72367 51.3818 3.66309 51.2646 3.62522C51.1475 3.58734 51.024 3.57292 50.9013 3.58276C50.7786 3.5926 50.659 3.62652 50.5493 3.68258C50.4397 3.73863 50.3422 3.81574 50.2624 3.90948C50.1012 4.0988 50.0218 4.3444 50.0417 4.59227L50.3159 8.00735C44.9574 3.05913 37.9772 0.236853 30.6854 0.0703134C23.3937 -0.0962259 16.2918 2.40442 10.7131 7.10284C5.13432 11.8013 1.46229 18.3744 0.386297 25.5882C-0.6897 32.8021 0.90433 40.1606 4.86915 46.2825C5.00563 46.4886 5.21793 46.6324 5.45989 46.6827C5.70185 46.733 5.95388 46.6857 6.16117 46.5512C6.36847 46.4166 6.51424 46.2057 6.5668 45.9642C6.61935 45.7227 6.57443 45.4703 6.44181 45.2617C3.49248 40.7191 1.92606 35.4176 1.9329 30.0014ZM45.7515 17.877V42.1259C45.7515 43.3798 44.8882 45.1663 40.7753 46.5576C37.8829 47.5361 34.0559 48.075 29.9993 48.075C25.9427 48.075 22.1158 47.536 19.2233 46.5576C15.1101 45.1663 14.2471 43.3797 14.2471 42.1259V17.877C14.2471 16.6231 15.1104 14.8366 19.2233 13.4453C22.1158 12.4668 25.9427 11.9279 29.9993 11.9279C34.0559 11.9279 37.8829 12.4669 40.7753 13.4453C44.8882 14.8366 45.7515 16.6232 45.7515 17.877ZM43.8765 42.1259V36.9965C43.1406 37.5101 42.1369 38.0141 40.7753 38.4748C37.8829 39.4531 34.0559 39.992 29.9993 39.992C25.9427 39.992 22.1158 39.453 19.2233 38.4748C17.8617 38.0141 16.858 37.5101 16.1221 36.9965V42.1259C16.1221 42.7732 17.0916 43.8571 19.8242 44.7815C22.5281 45.6963 26.1417 46.2 29.9993 46.2C33.8569 46.2 37.4705 45.6961 40.1745 44.7815C42.907 43.8571 43.8765 42.7732 43.8765 42.1259ZM43.8765 34.0429V28.9136C43.1406 29.4271 42.1369 29.9311 40.7753 30.3918C37.8829 31.3702 34.0559 31.909 29.9993 31.909C25.9427 31.909 22.1158 31.37 19.2233 30.3918C17.8617 29.9311 16.858 29.4271 16.1221 28.9136V34.0429C16.1221 34.6904 17.0916 35.7743 19.8242 36.6986C22.528 37.6132 26.1416 38.1166 29.9993 38.1166C33.857 38.1166 37.4706 37.6127 40.1745 36.6986C42.907 35.7743 43.8765 34.6904 43.8765 34.0429ZM43.8765 25.96V20.8306C43.1406 21.3442 42.1369 21.8482 40.7753 22.3088C37.8829 23.2872 34.0559 23.8257 29.9993 23.8257C25.9427 23.8257 22.1158 23.2866 19.2235 22.3083C17.8617 21.8478 16.858 21.3436 16.1221 20.83V25.9595C16.1221 26.6069 17.0916 27.6909 19.8242 28.6152C22.528 29.5293 26.1416 30.0332 29.9993 30.0332C33.857 30.0332 37.4706 29.5293 40.1745 28.6152C42.907 27.6913 43.8765 26.6073 43.8765 25.96ZM43.8765 17.877C43.8765 17.2297 42.907 16.1458 40.1745 15.2214C37.4705 14.3066 33.8569 13.8029 29.9993 13.8029C26.1417 13.8029 22.5281 14.3068 19.8242 15.2214C17.0916 16.1458 16.1221 17.2297 16.1221 17.877C16.1221 18.5243 17.0916 19.6083 19.8242 20.5327C22.528 21.4473 26.1415 21.9507 29.9992 21.9507C33.8569 21.9507 37.4705 21.4468 40.1743 20.5327C42.907 19.6083 43.8765 18.5243 43.8765 17.877ZM31.1455 25.9926H28.8531C28.6045 25.9926 28.366 26.0914 28.1902 26.2672C28.0144 26.443 27.9156 26.6814 27.9156 26.9301C27.9156 27.1787 28.0144 27.4172 28.1902 27.593C28.366 27.7688 28.6045 27.8676 28.8531 27.8676H31.1455C31.3942 27.8676 31.6326 27.7688 31.8084 27.593C31.9843 27.4172 32.083 27.1787 32.083 26.9301C32.083 26.6814 31.9843 26.443 31.8084 26.2672C31.6326 26.0914 31.3942 25.9926 31.1455 25.9926ZM31.1455 34.0756H28.8531C28.6045 34.0756 28.366 34.1744 28.1902 34.3502C28.0144 34.526 27.9156 34.7645 27.9156 35.0131C27.9156 35.2617 28.0144 35.5002 28.1902 35.676C28.366 35.8518 28.6045 35.9506 28.8531 35.9506H31.1455C31.3942 35.9506 31.6326 35.8518 31.8084 35.676C31.9843 35.5002 32.083 35.2617 32.083 35.0131C32.083 34.7645 31.9843 34.526 31.8084 34.3502C31.6326 34.1744 31.3942 34.0756 31.1455 34.0756ZM31.1455 42.1584H28.8531C28.6045 42.1584 28.366 42.2571 28.1902 42.433C28.0144 42.6088 27.9156 42.8472 27.9156 43.0959C27.9156 43.3445 28.0144 43.583 28.1902 43.7588C28.366 43.9346 28.6045 44.0334 28.8531 44.0334H31.1455C31.3942 44.0334 31.6326 43.9346 31.8084 43.7588C31.9843 43.583 32.083 43.3445 32.083 43.0959C32.083 42.8472 31.9843 42.6088 31.8084 42.433C31.6326 42.2571 31.3942 42.1584 31.1455 42.1584Z" fill="#282928"/>
</g>
<defs>
<clipPath id="clip0_6724_1836">
<rect width="60" height="60" fill="white"/>
</clipPath>
</defs>
</svg>
