<svg width="60" height="60" viewBox="0 0 60 60" fill="none" xmlns="http://www.w3.org/2000/svg">
<rect width="60" height="60" rx="30" fill="#FDBC33"/>
<g clip-path="url(#clip0_6722_1593)">
<path d="M39.5854 30.6999L39.0359 21.293H34.5999V25.517H32.725V21.293H25.5038V25.517H23.6289V21.293H19.1928L18.2075 38.1593C18.1309 39.4726 18.5857 40.7228 19.4884 41.6797C20.391 42.6366 21.6126 43.1636 22.928 43.1636H33.3283C32.7214 41.982 32.3787 40.6434 32.3787 39.2263C32.3787 34.9489 35.5007 31.3877 39.5854 30.6999Z" fill="#282928"/>
<path d="M25.5038 19.4855C25.5038 17.4946 27.1235 15.8749 29.1144 15.8749C31.1052 15.8749 32.725 17.4946 32.725 19.4855V21.2947H34.5999V19.4855C34.5999 16.4608 32.1391 14 29.1144 14C26.0896 14 23.6289 16.4608 23.6289 19.4855V21.2947H25.5038V19.4855Z" fill="#282928"/>
<path d="M47.7979 39.2291C47.7979 35.495 44.76 32.457 41.0259 32.457C37.2918 32.457 34.2539 35.495 34.2539 39.2291C34.2539 42.9631 37.2918 46.001 41.0259 46.001C44.76 46.001 47.7979 42.9631 47.7979 39.2291ZM40.012 42.5457L36.9669 39.1016L38.3715 37.8597L40.0725 39.7837L43.5954 36.1346L44.9443 37.4368L40.012 42.5457Z" fill="#282928"/>
</g>
<defs>
<clipPath id="clip0_6722_1593">
<rect width="32" height="32" fill="white" transform="translate(17 14)"/>
</clipPath>
</defs>
</svg>
