<svg width="60" height="60" viewBox="0 0 60 60" fill="none" xmlns="http://www.w3.org/2000/svg">
<path d="M58.2577 37.2313C57.4417 36.3052 55.7879 35.8501 53.9318 36.9221C51.595 38.2717 45.7806 41.107 41.436 42.7545C41.6181 41.9402 41.4861 41.0836 41.0375 40.3288C40.4032 39.2618 39.2875 38.6518 38.0527 38.6917C32.6801 38.6897 29.2037 37.2483 26.1366 35.9763C23.3534 34.8223 20.9498 33.8252 18.1102 34.5131C15.2379 35.2087 12.1786 37.5939 8.22809 42.2255C7.86094 42.0461 7.45547 41.9486 7.03348 41.9486C6.30609 41.9486 5.62371 42.2306 5.11195 42.7424L1.35352 46.5016C1.19977 46.6555 1.11328 46.8642 1.11328 47.0817C1.11328 47.2992 1.19977 47.5079 1.35363 47.6617L12.9746 59.28C13.1285 59.4338 13.3372 59.5202 13.5547 59.5202C13.7722 59.5202 13.9809 59.4337 14.1347 59.2799L17.8932 55.5205C18.68 54.7334 18.881 53.5802 18.499 52.6048C20.9073 51.5899 23.5908 51.5019 27.0216 51.7065C27.7901 51.7525 28.5967 51.8173 29.4505 51.8859C31.4759 52.0488 33.5703 52.2176 35.5934 52.1722C39.8414 52.0779 42.3986 50.8842 45.8149 49.0738C49.2984 47.228 56.7268 42.8212 58.113 40.9986C59.0879 39.7167 59.1446 38.2378 58.2577 37.2309V37.2313ZM16.7329 54.3607L13.5544 57.54L3.09363 47.0816L6.27211 43.9024C6.47402 43.7004 6.74438 43.5892 7.03359 43.5892C7.32281 43.5892 7.59328 43.7004 7.7952 43.9023L16.7327 52.8376C17.1526 53.2575 17.1527 53.9408 16.7329 54.3608V54.3607ZM56.8071 40.0058C55.8281 41.293 49.573 45.2262 45.0466 47.6244C41.8376 49.3249 39.4434 50.4459 35.5568 50.5323C33.6173 50.5754 31.566 50.4103 29.5819 50.2508C28.7193 50.1814 27.9046 50.1159 27.1192 50.0691C24.084 49.8878 20.613 49.8241 17.4785 51.2634L9.48844 43.2754C17.3174 34.0966 20.2472 35.3102 25.5079 37.4918C28.5604 38.7577 32.3592 40.333 38.067 40.3323C38.0773 40.3323 38.0876 40.3321 38.098 40.3317C38.7295 40.3087 39.302 40.62 39.6272 41.167C39.9523 41.7141 39.9534 42.3655 39.6302 42.9095C39.045 43.8946 36.9346 44.4061 33.9844 44.2777C31.2234 44.1575 28.4436 43.4978 27.3512 42.9294C26.9494 42.7205 26.454 42.8766 26.2448 43.2785C26.0358 43.6803 26.1921 44.1757 26.5939 44.3849C28.0686 45.1521 31.1468 45.7964 33.913 45.9168C34.2223 45.9302 34.5418 45.938 34.8673 45.938C36.3412 45.9378 37.9316 45.7758 39.1837 45.2469C43.5656 44.0112 51.7398 40.0823 54.752 38.3428C55.7986 37.7384 56.6645 37.905 57.0264 38.3157C57.3846 38.7224 57.3026 39.3543 56.807 40.0059L56.8071 40.0058ZM44.0407 24.7857C44.931 24.7857 45.7282 24.3253 46.1732 23.5542C46.6182 22.7832 46.6181 21.8626 46.1729 21.0916L40.2355 10.8105C39.7902 10.0396 38.993 9.57937 38.1028 9.57949C37.2127 9.57961 36.4154 10.0399 35.9704 10.811L30.0354 21.0935C29.5904 21.8645 29.5905 22.785 30.0356 23.556C30.4808 24.3268 31.2782 24.787 32.1683 24.7869L44.0407 24.7855V24.7857ZM31.4563 22.7358C31.301 22.467 31.301 22.1827 31.4562 21.9138L37.3911 11.6313C37.5463 11.3624 37.7924 11.2204 38.1028 11.2202C38.4132 11.2201 38.6595 11.3623 38.8147 11.6311L44.7521 21.9121C44.9073 22.181 44.9074 22.4652 44.7521 22.7341C44.5971 23.003 44.351 23.145 44.0405 23.1451L32.1681 23.1465C31.8577 23.1465 31.6114 23.0045 31.4563 22.7358ZM37.2834 18.9179L37.283 14.6745C37.283 14.2214 37.6501 13.8541 38.1032 13.854C38.5562 13.8539 38.9235 14.2212 38.9236 14.6742L38.9241 18.9177C38.9241 19.3707 38.5569 19.738 38.1039 19.7381C37.6508 19.7382 37.2836 19.371 37.2834 18.9179ZM37.2838 21.4143V21.2769C37.2838 20.8239 37.6509 20.4566 38.104 20.4565C38.557 20.4564 38.9243 20.8236 38.9244 21.2767V21.414C38.9244 21.8671 38.5573 22.2343 38.1042 22.2345C37.6512 22.2346 37.2839 21.8673 37.2838 21.4143ZM20.9749 22.837L22.972 23.2304L24.3857 26.6413L23.252 28.3323C22.8123 28.9882 22.8984 29.8695 23.4568 30.4277L26.6386 33.6087C27.197 34.1671 28.0784 34.2532 28.7341 33.813L30.4249 32.6789L33.836 34.0917L34.23 36.0887C34.3828 36.8636 35.0668 37.4258 35.8566 37.4257L40.3559 37.4251C41.1455 37.4251 41.8294 36.8626 41.9821 36.0879L42.3756 34.0908L45.7863 32.6771L47.4773 33.8109C48.1332 34.2507 49.0145 34.1645 49.5728 33.6061L52.7539 30.4242C53.3122 29.8657 53.3981 28.9845 52.9582 28.3287L51.8241 26.638L53.2368 23.2269L55.234 22.833C56.0086 22.6802 56.5707 21.9961 56.5707 21.2065L56.5702 16.7071C56.5702 15.9175 56.0077 15.2336 55.2329 15.0809L53.2358 14.6873L51.8222 11.2766L52.956 9.58559C53.3955 8.9298 53.3094 8.04855 52.751 7.49027L49.5691 4.3091C49.0109 3.75094 48.1296 3.66492 47.4737 4.10484L45.783 5.23887L42.372 3.82605L41.978 1.82895C41.8252 1.05434 41.1411 0.492188 40.3514 0.492188L35.8521 0.492773C35.0624 0.492773 34.3785 1.05527 34.2259 1.82988L33.8324 3.82699L30.4215 5.24063L28.7305 4.10684C28.0746 3.66715 27.1935 3.7534 26.6352 4.3118L23.4541 7.49367C22.8959 8.05207 22.8098 8.93332 23.2499 9.5891L24.3839 11.2799L22.9711 14.691L20.9741 15.085C20.1994 15.2378 19.6371 15.9218 19.6371 16.7114L19.6377 21.2108C19.6377 22.0004 20.2002 22.6843 20.9749 22.837ZM21.2777 16.7112C21.2777 16.699 21.2795 16.6968 21.2916 16.6944L23.7196 16.2154C23.9889 16.1623 24.2136 15.978 24.3186 15.7245L26.0675 11.5016C26.1725 11.248 26.1438 10.9588 25.9909 10.7307L24.6121 8.67504C24.6053 8.66496 24.6055 8.66215 24.6142 8.65348L27.7952 5.47172C27.8039 5.46305 27.8066 5.4627 27.8169 5.46949L29.8727 6.84785C30.1007 7.00078 30.39 7.02938 30.6436 6.92438L34.8661 5.17441C35.1196 5.0693 35.3038 4.84453 35.3569 4.57523L35.8353 2.14699C35.8377 2.13516 35.8399 2.1334 35.8521 2.1334L40.3514 2.13281C40.3636 2.13281 40.3658 2.13457 40.3682 2.14652L40.8472 4.57465C40.9003 4.84395 41.0845 5.06871 41.3381 5.17371L45.5611 6.92262C45.8146 7.0275 46.1039 6.99891 46.332 6.84598L48.3874 5.46715C48.3975 5.46047 48.4004 5.4607 48.4091 5.46926L51.5909 8.65031C51.5995 8.65898 51.5999 8.66191 51.5931 8.67199L50.2146 10.7279C50.0618 10.9559 50.0331 11.2452 50.1381 11.4988L51.888 15.7213C51.9932 15.9748 52.2179 16.159 52.4872 16.2121L54.9154 16.6905C54.9274 16.6929 54.9292 16.6951 54.9292 16.7073L54.9298 21.2067C54.9298 21.2189 54.928 21.2212 54.9161 21.2236L52.4879 21.7025C52.2188 21.7556 51.9939 21.9398 51.8889 22.1934L50.14 26.4164C50.035 26.67 50.0637 26.9593 50.2166 27.1873L51.5954 29.2429C51.6022 29.2529 51.6019 29.256 51.5933 29.2645L48.4121 32.4464C48.4037 32.4551 48.4009 32.4553 48.3906 32.4485L46.3346 31.07C46.1067 30.9171 45.8173 30.8885 45.5638 30.9935L41.3414 32.7435C41.0879 32.8486 40.9037 33.0734 40.8506 33.3427L40.3721 35.7708C40.3698 35.7829 40.3676 35.7846 40.3554 35.7846L35.8561 35.7852C35.8439 35.7852 35.8417 35.7834 35.8393 35.7714L35.3603 33.3432C35.3072 33.0739 35.123 32.8492 34.8694 32.7442L30.6465 30.9953C30.5455 30.9534 30.4387 30.9328 30.3326 30.9328C30.1721 30.9328 30.0128 30.9799 29.8757 31.0719L27.82 32.4509C27.8098 32.4578 27.8071 32.4573 27.7984 32.4487L24.6165 29.2677C24.6079 29.259 24.6076 29.2562 24.6144 29.246L25.9928 27.1901C26.1456 26.9621 26.1743 26.6728 26.0693 26.4192L24.3193 22.1967C24.2142 21.9432 23.9893 21.759 23.7202 21.7059L21.292 21.2276C21.28 21.2252 21.2782 21.223 21.2782 21.2107L21.2776 16.7113L21.2777 16.7112ZM38.1053 31.0794C44.7886 31.0786 50.2252 25.6407 50.2243 18.9575C50.2235 12.2742 44.7857 6.83766 38.1023 6.83848C31.419 6.8393 25.9825 12.2771 25.9833 18.9605C25.9841 25.6437 31.422 31.0804 38.1053 31.0795V31.0794ZM38.1026 8.47898C43.8812 8.47828 48.583 13.179 48.5837 18.9577C48.5844 24.7363 43.8837 29.4381 38.105 29.4388C32.3264 29.4395 27.6246 24.7387 27.6239 18.9601C27.6232 13.1815 32.3239 8.47969 38.1026 8.47898Z" fill="#282928"/>
</svg>
