<svg width="60" height="60" viewBox="0 0 60 60" fill="none" xmlns="http://www.w3.org/2000/svg">
<path d="M53.5348 6.04297H46.3682C45.9146 6.04297 45.5469 6.41071 45.5469 6.86431C45.5469 7.31791 45.9146 7.68566 46.3682 7.68566H53.5348C53.9884 7.68566 54.3562 7.31791 54.3562 6.86431C54.3562 6.41071 53.9885 6.04297 53.5348 6.04297Z" fill="#282928"/>
<path d="M42.2979 7.68566H43.1715C43.6251 7.68566 43.9928 7.31791 43.9928 6.86431C43.9928 6.41071 43.6251 6.04297 43.1715 6.04297H42.2979C41.8443 6.04297 41.4766 6.41071 41.4766 6.86431C41.4766 7.31791 41.8443 7.68566 42.2979 7.68566Z" fill="#282928"/>
<path d="M42.2979 11.545H53.5343C53.9879 11.545 54.3557 11.1773 54.3557 10.7237C54.3557 10.2701 53.9879 9.90234 53.5343 9.90234H42.2979C41.8443 9.90234 41.4766 10.2701 41.4766 10.7237C41.4766 11.1773 41.8443 11.545 42.2979 11.545Z" fill="#282928"/>
<path d="M45.2708 50.598C45.2708 47.3171 44.1754 44.0984 42.1803 41.4978L42.3326 38.6937C42.4362 36.7849 40.9214 35.1701 38.9949 35.1701H30.0041C29.5905 34.8778 29.3396 34.403 29.3396 33.8903V31.597C30.7336 30.6955 31.7123 29.6674 32.4312 28.4439H34.0207C35.8595 28.4439 37.3554 26.948 37.3554 25.1092V18.9751C37.3554 17.9406 36.757 17.026 35.8619 16.5934V12.2884C35.8619 10.3286 34.2675 8.73409 32.3077 8.73409H32.2156C32.1595 8.73409 32.114 8.68842 32.114 8.63246C32.114 6.67263 30.5195 5.07812 28.5596 5.07812H19.8612C15.5434 5.07812 12.0306 8.59096 12.0306 12.9087V16.5933C11.1356 17.0259 10.537 17.9405 10.537 18.975V22.0946C10.537 23.5542 11.7245 24.7416 13.1841 24.7416H14.2444C14.5188 27.0629 15.6077 29.1828 17.3132 30.6566C17.7134 31.0025 18.1272 31.3114 18.5529 31.5874V33.8902C18.5529 34.4014 18.301 34.8763 17.8856 35.17H8.89797C6.98632 35.17 5.45588 36.7699 5.56036 38.6936L5.71258 41.4977C3.71737 44.0984 2.62203 47.3171 2.62203 50.598V53.6916C2.21366 54.1492 1.96484 54.7521 1.96484 55.4123C1.96484 56.839 3.12557 57.9996 4.5523 57.9996H43.3405C44.7673 57.9996 45.928 56.8389 45.928 55.4123C45.928 54.7521 45.6792 54.1492 45.2708 53.6917V50.598ZM43.6281 50.598V52.8411C43.5336 52.8306 43.4378 52.8248 43.3405 52.8248H41.5655L42.0291 44.2839C43.0687 46.2147 43.6281 48.39 43.6281 50.598ZM35.6285 18.5741C35.6825 18.6976 35.713 18.8332 35.713 18.9753V22.0948C35.713 22.6486 35.2624 23.0992 34.7086 23.0992H33.7319V20.0029L34.2381 19.8266C34.8643 19.6085 35.3567 19.1485 35.6285 18.5741ZM30.1449 28.0905H28.0837C27.7514 28.0905 27.481 27.8203 27.481 27.488C27.481 27.1557 27.7514 26.8855 28.0837 26.8855H30.1449C30.4772 26.8855 30.7475 27.1557 30.7475 27.488C30.7475 27.8203 30.4772 28.0905 30.1449 28.0905ZM34.0209 26.8014H33.1907C33.422 26.1419 33.5816 25.4511 33.6659 24.7419H34.7086C35.064 24.7419 35.4031 24.671 35.713 24.5434V25.1094C35.713 26.0423 34.9538 26.8014 34.0209 26.8014ZM13.6735 12.9089C13.6735 9.49695 16.4494 6.72103 19.8614 6.72103H28.5598C29.6139 6.72103 30.4715 7.57862 30.4715 8.63268C30.4715 9.59453 31.2541 10.377 32.2158 10.377H32.3079C33.362 10.377 34.2194 11.2346 34.2194 12.2886V17.5412C34.2194 17.8717 34.0097 18.1667 33.6976 18.2755L31.9716 18.8766C31.9021 18.9007 31.8303 18.8505 31.8303 18.7757L31.8335 15.5118C31.8435 13.1298 29.613 11.0524 26.488 12.0562C24.9163 12.5612 22.9712 12.5595 21.4047 12.0562C18.3121 11.0622 16.0492 13.1028 16.0592 15.5093L16.063 18.7759C16.063 18.8513 15.9897 18.9009 15.9218 18.8766L14.1952 18.2754C13.8831 18.1667 13.6734 17.8716 13.6734 17.5411L13.6735 12.9089ZM12.1799 22.0948V18.9751C12.1799 18.8332 12.2104 18.6975 12.2644 18.574C12.5363 19.1485 13.0288 19.6085 13.6552 19.8266L14.1612 20.0028V23.0991H13.1844C12.6305 23.0992 12.1799 22.6485 12.1799 22.0948ZM15.8189 23.7932C15.7917 22.7134 15.8084 21.5672 15.8038 20.5179C15.8544 20.5222 15.9051 20.5248 15.9558 20.5248C16.9324 20.5248 17.7074 19.731 17.7057 18.7735L17.7019 15.5048C17.6963 14.1712 18.8926 12.9741 20.9022 13.62C22.8068 14.2319 25.0921 14.2301 26.9905 13.62C28.9051 13.0049 30.1967 14.0878 30.1908 15.5075L30.1876 18.7738C30.1863 19.7918 31.0565 20.6074 32.089 20.5179V23.8596C32.0651 24.5695 31.9483 25.2623 31.7501 25.9211C31.3421 25.5032 30.7736 25.2427 30.1449 25.2427H28.0837C26.8456 25.2427 25.8383 26.2498 25.8383 27.4879C25.8383 28.7259 26.8456 29.7331 28.0837 29.7331H29.1272C27.6101 30.9173 25.885 31.5347 23.9894 31.5661C19.8429 31.5329 15.9375 28.4696 15.8189 23.7932ZM20.1959 33.8904V32.4533C21.3832 32.9449 22.6497 33.1996 23.9873 33.209H23.9931C23.9973 33.209 24.0016 33.209 24.0059 33.2089C25.3081 33.1887 26.541 32.9363 27.6972 32.46V33.8903C27.6972 34.3388 27.7911 34.7729 27.9639 35.1701H19.9283C20.1016 34.7728 20.1959 34.3385 20.1959 33.8904ZM5.86371 44.2839L5.99337 46.6736C6.01801 47.1266 6.40601 47.475 6.85797 47.4493C7.31091 47.4247 7.65818 47.0376 7.63365 46.5847L7.20053 38.6048C7.14785 37.6341 7.91816 36.8129 8.89797 36.8129H38.995C39.9675 36.8129 40.7454 37.6268 40.6924 38.6048L39.9206 52.8249H27.041C27.1979 51.8867 27.6204 51.0043 28.2713 50.2813L28.2948 50.255C30.781 47.4736 30.0368 43.1242 26.8233 41.2982C25.9987 40.8297 24.9514 41.4139 24.9514 42.3852V46.1119C24.9514 46.2827 24.8124 46.4216 24.6416 46.4216H23.2512C23.0804 46.4216 22.9414 46.2826 22.9414 46.1119V42.3852C22.9414 41.4158 21.8958 40.8287 21.0695 41.2982C17.8468 43.1292 17.1178 47.4803 19.6005 50.2577L19.6215 50.2813C20.2724 51.0042 20.6949 51.8866 20.8518 52.8248H7.97237L7.84063 50.3966C7.8161 49.9436 7.42897 49.5959 6.97603 49.6209C6.52308 49.6454 6.17582 50.0326 6.20035 50.4855L6.32727 52.8248H4.5523C4.45505 52.8248 4.35922 52.8307 4.26472 52.8411V50.598C4.26472 48.3901 4.82421 46.2147 5.86371 44.2839ZM22.5115 52.8248C22.3434 51.479 21.7665 50.2085 20.8426 49.1823L20.8228 49.1601C19.2358 47.3849 19.4484 44.6397 21.2988 43.1257V46.1118C21.2988 47.1884 22.1747 48.0642 23.2513 48.0642H24.6417C25.7183 48.0642 26.5942 47.1883 26.5942 46.1118V43.1257C28.4324 44.6297 28.6678 47.3728 27.0682 49.1624L27.0504 49.1822C26.1265 50.2085 25.5496 51.479 25.3815 52.8248H22.5115ZM43.3405 56.357H4.5523C4.03134 56.357 3.60753 55.9332 3.60753 55.4124C3.60753 54.8915 4.03134 54.4676 4.5523 54.4676H43.3405C43.8615 54.4676 44.2853 54.8914 44.2853 55.4124C44.2853 55.9333 43.8615 56.357 43.3405 56.357Z" fill="#282928"/>
<path d="M57.2135 7.61704C57.6671 7.61704 58.0349 7.2493 58.0349 6.7957V5.20601C58.0349 3.43607 56.5949 1.99609 54.8248 1.99609H41.0108C39.2408 1.99609 37.8008 3.43607 37.8008 5.20601V12.1149C37.8008 13.885 39.2408 15.325 41.0108 15.325C41.3271 15.325 41.5844 15.5823 41.5844 15.8986V20.1712C41.5844 20.7883 41.9839 21.3135 42.5787 21.4781C43.177 21.6437 43.788 21.3947 44.1036 20.8686L47.2608 15.6036C47.3639 15.4317 47.5524 15.325 47.7528 15.325H54.8249C56.595 15.325 58.035 13.885 58.035 12.1149V10.6356C58.035 10.182 57.6672 9.8143 57.2136 9.8143C56.76 9.8143 56.3923 10.182 56.3923 10.6356V12.1149C56.3923 12.9792 55.6892 13.6823 54.8249 13.6823H47.7527C46.9785 13.6823 46.2501 14.0948 45.8519 14.7588L43.227 19.136V15.8986C43.227 14.6765 42.2328 13.6823 41.0107 13.6823C40.1464 13.6823 39.4434 12.9792 39.4434 12.1149V5.20601C39.4434 4.34185 40.1464 3.63878 41.0107 3.63878H54.8248C55.6891 3.63878 56.3922 4.34185 56.3922 5.20601V6.7957C56.3922 7.2493 56.7599 7.61704 57.2135 7.61704Z" fill="#282928"/>
</svg>
