<svg width="60" height="60" viewBox="0 0 60 60" fill="none" xmlns="http://www.w3.org/2000/svg">
<rect width="60" height="60" rx="30" fill="#FDBC33"/>
<path d="M34.2484 18.976C34.1254 18.976 34.0019 18.9305 33.9049 18.84L32.4079 17.427C32.1164 17.1515 31.7344 17 31.3339 17H24.9279C24.4589 17 24.0194 17.207 23.7209 17.5685C23.2319 18.161 22.5114 18.5 21.7429 18.5H20.1719C19.8959 18.5 19.6719 18.2765 19.6719 18C19.6719 17.7235 19.8959 17.5 20.1719 17.5H21.7429C22.2114 17.5 22.6514 17.293 22.9499 16.9315C23.4389 16.339 24.1599 16 24.9279 16H31.3339C31.9909 16 32.6164 16.2485 33.0944 16.6995L34.5914 18.1125C34.7919 18.3025 34.8014 18.619 34.6119 18.8195C34.5134 18.9235 34.3814 18.976 34.2484 18.976Z" fill="#282928"/>
<path d="M23.2224 27.0696C23.0969 27.0696 22.9709 27.0226 22.8739 26.9281C22.5749 26.6371 22.2939 26.3271 22.0224 26.0276C21.6584 25.6256 21.1084 25.0181 20.9004 24.9761H20.1719C19.8959 24.9761 19.6719 24.7526 19.6719 24.4761C19.6719 24.2001 19.8959 23.9766 20.1719 23.9766H20.9139C21.5134 23.9766 22.0649 24.5856 22.7629 25.3561C23.0239 25.6441 23.2939 25.9421 23.5704 26.2111C23.7684 26.4036 23.7729 26.7206 23.5804 26.9181C23.4824 27.0186 23.3524 27.0696 23.2224 27.0696Z" fill="#282928"/>
<path d="M29.0587 20.7697C28.9307 20.7697 28.8027 20.7207 28.7052 20.6232L27.8302 19.7482C27.6347 19.5527 27.6347 19.2367 27.8302 19.0412C28.0257 18.8457 28.3417 18.8457 28.5372 19.0412L29.4122 19.9162C29.6077 20.1117 29.6077 20.4277 29.4122 20.6232C29.3147 20.7207 29.1867 20.7697 29.0587 20.7697Z" fill="#282928"/>
<path d="M22.9453 22.0352C23.5053 22.5902 24.3003 22.7552 25.0003 22.5352L22.9453 22.0352Z" fill="#282928"/>
<path d="M24.3852 23.1302C23.7242 23.1302 23.0792 22.8717 22.5937 22.3907C22.3972 22.1962 22.3957 21.8802 22.5902 21.6837C22.7847 21.4867 23.1007 21.4857 23.2972 21.6807C23.7067 22.0867 24.3017 22.2307 24.8507 22.0587C25.1132 21.9762 25.3942 22.1227 25.4772 22.3857C25.5602 22.6492 25.4137 22.9302 25.1497 23.0127C24.8982 23.0917 24.6402 23.1302 24.3852 23.1302Z" fill="#282928"/>
<path d="M34.2508 27.068C34.8445 27.068 35.3258 26.5867 35.3258 25.993C35.3258 25.3993 34.8445 24.918 34.2508 24.918C33.6571 24.918 33.1758 25.3993 33.1758 25.993C33.1758 26.5867 33.6571 27.068 34.2508 27.068Z" fill="#282928"/>
<path d="M29.06 20.2695L30.54 21.7495C30.56 21.7695 30.575 21.7845 30.59 21.8045C30.705 21.9295 30.8 22.0695 30.865 22.2145H30.87C30.975 22.4395 31.03 22.6895 31.03 22.9345C31.03 23.3645 30.87 23.7895 30.54 24.1195C29.885 24.7795 28.82 24.7795 28.165 24.1195L27.19 23.1445L25.955 21.9095L25.83 22.0345C25.715 22.1495 25.585 22.2495 25.455 22.3295C25.31 22.4195 25.155 22.4845 25 22.5345V31.7145H43.5V20.2695H29.06ZM41.81 27.5795C41.81 27.8545 41.585 28.0795 41.31 28.0795C40.86 28.0795 40.435 28.2545 40.12 28.5745C39.8 28.8945 39.625 29.3195 39.625 29.7695C39.625 30.0445 39.4 30.2695 39.125 30.2695H29.375C29.1 30.2695 28.875 30.0445 28.875 29.7695C28.875 29.3195 28.7 28.8945 28.38 28.5695C28.07 28.2595 27.635 28.0795 27.19 28.0795C26.915 28.0795 26.69 27.8545 26.69 27.5795V24.4195C26.69 24.4695 26.695 24.5145 26.71 24.5645C26.795 24.8295 27.075 24.9795 27.335 24.8945L27.69 24.7895V27.1245C28.215 27.2245 28.7 27.4795 29.09 27.8645C29.475 28.2595 29.73 28.7445 29.83 29.2695H38.67C38.77 28.7445 39.025 28.2595 39.41 27.8695C39.8 27.4795 40.285 27.2245 40.81 27.1245V24.8595C40.285 24.7595 39.8 24.5045 39.41 24.1195C39.025 23.7295 38.77 23.2445 38.67 22.7145H32.465C32.19 22.7145 31.965 22.4895 31.965 22.2145C31.965 21.9395 32.19 21.7145 32.465 21.7145H39.125C39.4 21.7145 39.625 21.9395 39.625 22.2145C39.625 22.6695 39.8 23.0945 40.12 23.4095C40.435 23.7295 40.86 23.9045 41.31 23.9045C41.585 23.9045 41.81 24.1295 41.81 24.4045V27.5795ZM32.175 25.9945C32.175 24.8495 33.105 23.9195 34.25 23.9195C35.395 23.9195 36.325 24.8495 36.325 25.9945C36.325 27.1395 35.395 28.0695 34.25 28.0695C33.105 28.0695 32.175 27.1395 32.175 25.9945Z" fill="#282928"/>
<path d="M43.5 19.7695H29.06C28.93 19.7695 28.8 19.8245 28.71 19.9195C28.665 19.9595 28.625 20.0145 28.6 20.0795C28.52 20.2645 28.565 20.4795 28.705 20.6245L30.185 22.1045C30.28 22.1995 30.36 22.3095 30.41 22.4195L30.415 22.4245C30.42 22.4345 30.425 22.4445 30.43 22.4595C30.435 22.4645 30.44 22.4695 30.44 22.4745C30.45 22.4995 30.46 22.5245 30.465 22.5495C30.49 22.6245 30.51 22.6995 30.52 22.7795C30.525 22.8295 30.53 22.8795 30.53 22.9345C30.53 23.2495 30.41 23.5445 30.185 23.7695C30.075 23.8795 29.94 23.9645 29.8 24.0195C29.725 24.0495 29.655 24.0695 29.58 24.0845C29.355 24.1245 29.12 24.1045 28.905 24.0195C28.835 23.9895 28.765 23.9545 28.7 23.9145C28.64 23.8695 28.575 23.8195 28.52 23.7645L26.31 21.5545C26.115 21.3595 25.795 21.3595 25.6 21.5545L25.475 21.6795C25.305 21.8495 25.09 21.9795 24.85 22.0595C24.68 22.1145 24.555 22.2495 24.515 22.4145C24.505 22.4545 24.5 22.4945 24.5 22.5345V31.7145C24.5 31.9895 24.725 32.2145 25 32.2145H43.5C43.775 32.2145 44 31.9895 44 31.7145V20.2695C44 19.9945 43.775 19.7695 43.5 19.7695ZM43 31.2145H25.5V22.8745C25.655 22.7945 25.805 22.7045 25.94 22.5995L27.225 23.8845L27.27 23.9295L27.81 24.4695C27.91 24.5745 28.025 24.6645 28.14 24.7445C28.205 24.7895 28.27 24.8295 28.34 24.8645C28.39 24.8945 28.445 24.9195 28.5 24.9395C28.54 24.9595 28.58 24.9745 28.62 24.9845C28.695 25.0145 28.775 25.0395 28.86 25.0545C28.905 25.0695 28.955 25.0795 29 25.0845C29.045 25.0945 29.095 25.0995 29.14 25.1045C29.215 25.1095 29.285 25.1145 29.355 25.1145C29.935 25.1145 30.485 24.8845 30.895 24.4745C31.305 24.0645 31.53 23.5145 31.53 22.9345C31.53 22.6145 31.46 22.2945 31.325 22.0045C31.315 21.9795 31.3 21.9595 31.29 21.9395C31.19 21.7445 31.055 21.5595 30.895 21.3945L30.265 20.7695H43V31.2145Z" fill="#282928"/>
<path d="M31.5314 22.9355C31.5314 23.5155 31.3064 24.0655 30.8964 24.4755C30.4864 24.8855 29.9364 25.1155 29.3564 25.1155C29.2864 25.1155 29.2164 25.1105 29.1414 25.1055C29.0964 25.1005 29.0464 25.0955 29.0014 25.0855C28.9564 25.0805 28.9064 25.0705 28.8614 25.0555C28.7764 25.0405 28.6964 25.0155 28.6214 24.9855C28.5814 24.9755 28.5414 24.9605 28.5014 24.9405C28.4464 24.9205 28.3914 24.8955 28.3414 24.8655C28.2714 24.8305 28.2064 24.7905 28.1414 24.7455C28.1064 24.7255 28.0764 24.7055 28.0464 24.6805L27.6914 24.7905L27.3364 24.8955C27.0764 24.9805 26.7964 24.8305 26.7114 24.5655C26.6964 24.5155 26.6914 24.4705 26.6914 24.4205C26.6914 24.3855 26.6964 24.3505 26.7014 24.3205C26.7164 24.2405 26.7514 24.1705 26.8014 24.1105C26.8114 24.0955 26.8264 24.0805 26.8414 24.0655C26.8864 24.0205 26.9414 23.9855 26.9964 23.9605C27.0114 23.9505 27.0264 23.9455 27.0464 23.9405L27.2264 23.8855L27.7664 23.7205L28.0214 23.6405C28.1964 23.5905 28.3914 23.6355 28.5214 23.7705C28.5764 23.8255 28.6364 23.8755 28.7014 23.9155C28.7664 23.9555 28.8364 23.9905 28.9064 24.0205C29.1214 24.1055 29.3564 24.1255 29.5814 24.0855C29.6564 24.0705 29.7314 24.0505 29.8014 24.0205C29.9414 23.9655 30.0764 23.8805 30.1864 23.7705C30.4114 23.5455 30.5314 23.2505 30.5314 22.9355C30.5314 22.8855 30.5264 22.8305 30.5214 22.7805C30.5114 22.7005 30.4914 22.6255 30.4664 22.5505C30.4564 22.5205 30.4464 22.4905 30.4314 22.4605C30.4264 22.4455 30.4214 22.4355 30.4164 22.4255L30.4114 22.4205C30.3114 22.1955 30.3914 21.9355 30.5914 21.8055C30.6114 21.7855 30.6364 21.7705 30.6614 21.7605C30.9114 21.6455 31.2064 21.7555 31.3264 22.0055C31.4614 22.2955 31.5314 22.6155 31.5314 22.9355Z" fill="#282928"/>
<path d="M36.4713 43.9986H27.6508C26.4888 43.9986 25.3738 43.5731 24.5123 42.8011L17.9688 36.9721C17.4388 36.5006 17.1768 35.7991 17.2678 35.0971C17.3588 34.3951 17.7913 33.7841 18.4248 33.4626C19.0863 33.1241 19.9483 33.1711 20.5728 33.5871L27.0918 37.9011C27.4063 38.1116 27.7853 38.1951 28.1618 38.1361C28.3168 37.2996 28.9548 36.5996 29.8023 36.3926L36.2923 34.8076C37.1998 34.5806 38.1713 34.6781 39.0248 35.0816L40.0413 35.5676C40.2908 35.6866 40.3963 35.9851 40.2773 36.2341C40.1583 36.4831 39.8593 36.5891 39.6108 36.4701L38.5958 35.9851C37.9518 35.6811 37.2183 35.6076 36.5328 35.7786L30.0398 37.3646C29.4993 37.4966 29.1148 37.9971 29.1263 38.5541C29.1313 38.8006 28.9548 39.0146 28.7113 39.0566L28.3363 39.1216C27.7008 39.2231 27.0643 39.0856 26.5383 38.7351L20.0198 34.4211C19.6888 34.2016 19.2268 34.1761 18.8783 34.3546C18.5338 34.5296 18.3083 34.8466 18.2593 35.2266C18.2103 35.6061 18.3463 35.9701 18.6338 36.2256L25.1788 42.0556C25.8578 42.6646 26.7358 42.9991 27.6513 42.9991H36.4718C36.9373 42.9991 37.3988 42.8711 37.8068 42.6291L39.5693 41.5706C39.8068 41.4281 40.1133 41.5051 40.2553 41.7421C40.3973 41.9791 40.3208 42.2861 40.0838 42.4281L38.3188 43.4881C37.7538 43.8231 37.1163 43.9991 36.4718 43.9991L36.4713 43.9986Z" fill="#282928"/>
<path d="M16.5 16.5H20.174V25.9945H16.5V16.5Z" fill="#282928"/>
<path d="M20.175 16H16.5C16.225 16 16 16.225 16 16.5V25.995C16 26.27 16.225 26.495 16.5 26.495H20.175C20.45 26.495 20.675 26.27 20.675 25.995V16.5C20.675 16.225 20.45 16 20.175 16ZM19.675 25.495H17V17H19.675V25.495Z" fill="#282928"/>
<path d="M39.8242 34.0039H43.4992V43.4989H39.8242V34.0039Z" fill="#282928"/>
<path d="M43.4992 33.5039H39.8242C39.5492 33.5039 39.3242 33.7289 39.3242 34.0039V43.4989C39.3242 43.7739 39.5492 43.9989 39.8242 43.9989H43.4992C43.7742 43.9989 43.9992 43.7739 43.9992 43.4989V34.0039C43.9992 33.7289 43.7742 33.5039 43.4992 33.5039ZM42.9992 42.9989H40.3242V34.5039H42.9992V42.9989Z" fill="#282928"/>
<path d="M30.3242 40.7199C29.4892 40.7199 28.7007 40.2394 28.3342 39.4589C28.1912 39.1549 28.1207 38.8309 28.1252 38.4969C28.1292 38.2229 28.3522 38.0039 28.6252 38.0039H28.6322C28.9082 38.0079 29.1292 38.2349 29.1252 38.5109C29.1227 38.6919 29.1612 38.8679 29.2392 39.0339C29.4797 39.5459 30.0532 39.8209 30.6027 39.6869L34.4207 38.7569C34.6872 38.6909 34.9592 38.8564 35.0247 39.1244C35.0902 39.3924 34.9257 39.6629 34.6572 39.7284L30.8392 40.6584C30.6677 40.6999 30.4952 40.7204 30.3242 40.7204V40.7199Z" fill="#282928"/>
<path d="M27.6914 24.4219V24.7919L27.3364 24.8969C27.0764 24.9819 26.7964 24.8319 26.7114 24.5669C26.6964 24.5169 26.6914 24.4719 26.6914 24.4219C26.6914 24.3869 26.6964 24.3519 26.7014 24.3219C26.7164 24.2419 26.7514 24.1719 26.8014 24.1119C26.8114 24.0969 26.8264 24.0819 26.8414 24.0669C26.8864 24.0219 26.9414 23.9869 26.9964 23.9619C27.0564 23.9369 27.1214 23.9219 27.1914 23.9219C27.2214 23.9219 27.2464 23.9219 27.2714 23.9319C27.4814 23.9619 27.6514 24.1269 27.6814 24.3419C27.6914 24.3669 27.6914 24.3919 27.6914 24.4219Z" fill="#282928"/>
</svg>
