<svg width="60" height="60" viewBox="0 0 60 60" fill="none" xmlns="http://www.w3.org/2000/svg">
<g clip-path="url(#clip0_6723_1755)">
<path d="M17.5752 0.210042C14.3832 0.360542 12.2035 0.870042 10.2977 1.61854C8.3257 2.38729 6.65395 3.41854 4.9907 5.08779C3.3277 6.75704 2.3032 8.42979 1.5402 10.4053C0.801704 12.3148 0.301204 14.4965 0.160204 17.6903C0.019204 20.884 -0.012046 21.9108 0.00370397 30.0578C0.019204 38.2043 0.055204 39.2255 0.209954 42.426C0.362454 45.6173 0.869954 47.7965 1.6187 49.7028C2.3887 51.675 3.4187 53.346 5.0887 55.0098C6.75845 56.6735 8.42995 57.6955 10.41 58.4598C12.318 59.1973 14.5002 59.7 17.6935 59.8398C20.8867 59.9798 21.9145 60.0123 30.059 59.9965C38.2035 59.981 39.229 59.9448 42.4285 59.793C45.6285 59.6413 47.796 59.13 49.703 58.3848C51.6752 57.6133 53.3475 56.5848 55.01 54.9145C56.6725 53.244 57.6962 51.57 58.4587 49.5935C59.198 47.6855 59.7002 45.5035 59.8387 42.3125C59.9787 39.1103 60.0117 38.088 59.9962 29.9425C59.9805 21.7968 59.9437 20.7755 59.792 17.5763C59.6402 14.377 59.132 12.2045 58.3837 10.297C57.6127 8.32479 56.5837 6.65504 54.9147 4.99004C53.2455 3.32504 51.5699 2.30204 49.5944 1.54129C47.6849 0.802542 45.5042 0.299292 42.311 0.161292C39.1177 0.023292 38.09 -0.012458 29.9425 0.00354197C21.795 0.019042 20.775 0.054042 17.5752 0.210042ZM17.9257 54.4428C15.0007 54.3155 13.4125 53.8295 12.354 53.4228C10.9525 52.8828 9.95395 52.23 8.8992 51.1853C7.8442 50.1408 7.19645 49.1388 6.6492 47.7403C6.2382 46.6818 5.7432 45.0953 5.60645 42.1703C5.4577 39.009 5.42645 38.0598 5.40895 30.0503C5.39145 22.041 5.4222 21.0928 5.5607 17.9303C5.6857 15.0078 6.1747 13.4178 6.5807 12.3598C7.1207 10.9565 7.7712 9.95979 8.8182 8.90579C9.8652 7.85154 10.8642 7.20229 12.264 6.65504C13.3215 6.24229 14.9077 5.75154 17.8315 5.61229C20.9952 5.46229 21.9432 5.43229 29.9515 5.41479C37.9597 5.39729 38.9102 5.42729 42.0752 5.56679C44.9977 5.69379 46.5885 6.17804 47.6452 6.58679C49.0472 7.12679 50.0452 7.77529 51.0992 8.82429C52.1535 9.87279 52.8032 10.8683 53.3505 12.271C53.7637 13.3253 54.2547 14.911 54.3927 17.8368C54.5432 21.0005 54.5775 21.9493 54.5917 29.9568C54.6062 37.9643 54.578 38.9153 54.4392 42.0768C54.3117 45.0018 53.8267 46.5905 53.4192 47.6503C52.8792 49.0513 52.2285 50.0503 51.1807 51.1038C50.1332 52.1575 49.1355 52.8065 47.735 53.3538C46.679 53.766 45.0907 54.258 42.1695 54.3973C39.0055 54.546 38.0575 54.5773 30.0462 54.5948C22.035 54.6123 21.0895 54.5798 17.9257 54.4428ZM42.3825 13.966C42.3836 14.6781 42.596 15.3738 42.9926 15.9652C43.3892 16.5566 43.9523 17.0171 44.6107 17.2884C45.269 17.5598 45.9931 17.6298 46.6912 17.4896C47.3894 17.3494 48.0302 17.0053 48.5328 16.5008C49.0354 15.9964 49.377 15.3542 49.5146 14.6556C49.6522 13.9569 49.5795 13.2331 49.3057 12.5758C49.0319 11.9185 48.5693 11.3571 47.9764 10.9627C47.3835 10.5683 46.687 10.3586 45.975 10.36C45.0204 10.362 44.1058 10.743 43.4321 11.4192C42.7584 12.0954 42.3809 13.0115 42.3825 13.966ZM14.5962 30.03C14.613 38.538 21.5227 45.4193 30.0287 45.4033C38.5352 45.387 45.4212 38.478 45.4052 29.97C45.389 21.462 38.4777 14.5788 29.9702 14.5955C21.4627 14.6123 14.5802 21.523 14.5962 30.03ZM20 30.0193C19.9961 28.0415 20.5787 26.107 21.6743 24.4603C22.7698 22.8137 24.3291 21.5289 26.1548 20.7684C27.9806 20.0079 29.9908 19.8059 31.9314 20.1879C33.8719 20.5699 35.6556 21.5187 37.0569 22.9145C38.4582 24.3102 39.4142 26.0901 39.8039 28.0291C40.1936 29.9682 39.9996 31.9792 39.2463 33.808C38.4931 35.6367 37.2145 37.201 35.5722 38.3031C33.93 39.4052 31.9978 39.9956 30.02 39.9995C28.7067 40.0023 27.4057 39.7463 26.1914 39.2462C24.977 38.7462 23.8731 38.0117 22.9426 37.085C22.0122 36.1582 21.2734 35.0572 20.7685 33.8448C20.2636 32.6325 20.0024 31.3326 20 30.0193Z" fill="#282928"/>
</g>
<defs>
<clipPath id="clip0_6723_1755">
<rect width="60" height="60" fill="white"/>
</clipPath>
</defs>
</svg>
