<svg width="60" height="60" viewBox="0 0 60 60" fill="none" xmlns="http://www.w3.org/2000/svg">
<rect width="60" height="60" rx="30" fill="#FDBC33"/>
<g clip-path="url(#clip0_6722_1685)">
<path d="M46 32.2933V27.7067H42.9077C42.6064 25.7704 41.8779 23.9756 40.8216 22.4216L42.9353 20.3079L39.6921 17.0647L37.6171 19.1396C36.0627 18.0278 34.2532 17.2503 32.2932 16.9113V14H27.7066V16.9337C25.7644 17.2894 23.9735 18.0769 22.436 19.1929L20.3078 17.0647L17.0646 20.3079L19.2538 22.4972C18.225 24.0338 17.5149 25.8017 17.2184 27.7067H14V32.2934H17.3173C17.6839 34.1222 18.4339 35.8125 19.4803 37.2765L17.0646 39.6922L20.3079 42.9354L22.7611 40.4822C24.2238 41.4772 25.8999 42.1815 27.7067 42.5124V46H32.2933V42.5346C34.1171 42.2192 35.8108 41.524 37.2897 40.5329L39.6921 42.9353L42.9353 39.6921L40.5927 37.3494C41.6667 35.8686 42.4363 34.1528 42.8091 32.2933H46ZM30.0594 39.2566C24.8693 39.2566 20.6469 35.0334 20.6469 29.8423C20.6469 24.6513 24.8693 20.4281 30.0594 20.4281C35.2496 20.4281 39.472 24.6513 39.472 29.8423C39.472 35.0334 35.2496 39.2566 30.0594 39.2566Z" fill="#282928"/>
<path d="M27.2397 28.9883C26.9691 28.9883 26.7147 29.0937 26.5234 29.285C26.332 29.4764 26.2266 29.7308 26.2266 30.0015C26.2266 30.2721 26.3319 30.5265 26.5233 30.7179H26.5234C26.7148 30.9093 26.9691 31.0147 27.2397 31.0147C27.5104 31.0147 27.7648 30.9093 27.9561 30.7179L28.6726 30.0015L27.9563 29.285C27.7648 29.0937 27.5104 28.9883 27.2397 28.9883Z" fill="#282928"/>
<path d="M32.0407 30.7178C32.232 30.9092 32.4865 31.0146 32.7571 31.0146C33.0277 31.0146 33.2822 30.9092 33.4735 30.7178C33.6648 30.5265 33.7702 30.2721 33.7702 30.0015C33.7702 29.7308 33.6648 29.4764 33.4735 29.285C33.2821 29.0937 33.0277 28.9883 32.757 28.9883C32.4864 28.9883 32.232 29.0937 32.0407 29.285L31.3242 30.0014L32.0407 30.7178Z" fill="#282928"/>
<path d="M30.061 22.3047C25.9047 22.3047 22.5234 25.6868 22.5234 29.8439C22.5234 34.0011 25.9047 37.3832 30.061 37.3832C34.2172 37.3832 37.5986 34.0011 37.5986 29.8439C37.5986 25.6868 34.2172 22.3047 30.061 22.3047ZM30.718 27.9594C31.2635 27.4138 31.9888 27.1134 32.7603 27.1134C33.5317 27.1134 34.257 27.4139 34.8025 27.9594C35.348 28.5049 35.6484 29.2301 35.6484 30.0016C35.6484 30.7731 35.348 31.4984 34.8025 32.0439C34.257 32.5894 33.5317 32.8898 32.7603 32.8898C31.9888 32.8898 31.2635 32.5894 30.718 32.0439L30.0016 31.3274L29.2851 32.0439C28.7396 32.5894 28.0143 32.8898 27.2429 32.8898C26.4714 32.8898 25.7461 32.5894 25.2006 32.0439C24.6551 31.4984 24.3547 30.7731 24.3547 30.0016C24.3547 29.2302 24.6551 28.5049 25.2006 27.9594C25.7461 27.4138 26.4714 27.1134 27.2429 27.1134C28.0143 27.1134 28.7396 27.4139 29.2851 27.9594L30.0016 28.6758L30.718 27.9594Z" fill="#282928"/>
</g>
<defs>
<clipPath id="clip0_6722_1685">
<rect width="32" height="32" fill="white" transform="translate(14 14)"/>
</clipPath>
</defs>
</svg>
