<svg width="60" height="60" viewBox="0 0 60 60" fill="none" xmlns="http://www.w3.org/2000/svg">
<path d="M23 11C23 14.8598 26.14 18 30.0006 18C33.86 18 37 14.8598 37 11C37 7.14022 33.86 4 29.9994 4C26.14 4 23 7.14022 23 11ZM29.9994 6.21064C32.6399 6.21064 34.7884 8.35939 34.7884 11C34.7884 13.6406 32.641 15.7894 29.9994 15.7894C27.3579 15.7894 25.2094 13.6406 25.2094 11C25.2094 8.35939 27.359 6.21064 29.9994 6.21064Z" fill="#282928"/>
<path d="M34.3599 41H25.6413C23.6337 41 22 42.5305 22 44.4126V52.5863C22 54.4684 23.6337 56 25.6413 56H34.3599C36.3675 56 38 54.4684 38 52.5863V44.4126C38 42.5305 36.3675 41 34.3599 41ZM35.6629 52.5863C35.6629 53.2601 35.0786 53.8089 34.3599 53.8089H25.6413C24.9214 53.8089 24.3371 53.2601 24.3371 52.5863V44.4126C24.3371 43.7388 24.9214 43.1911 25.6413 43.1911H34.3599C35.0786 43.1911 35.6629 43.7388 35.6629 44.4126V52.5863Z" fill="#282928"/>
<path d="M54.5874 41H46.4137C44.5316 41 43 42.5305 43 44.4126V52.5863C43 54.4684 44.5316 56 46.4137 56H54.5874C56.4695 56 58 54.4684 58 52.5863V44.4126C58 42.5305 56.4695 41 54.5874 41ZM55.8089 52.5863C55.8089 53.2601 55.2612 53.8089 54.5874 53.8089H46.4137C45.7388 53.8089 45.1911 53.2601 45.1911 52.5863V44.4126C45.1911 43.7388 45.7388 43.1911 46.4137 43.1911H54.5874C55.2612 43.1911 55.8089 43.7388 55.8089 44.4126V52.5863Z" fill="#282928"/>
<path d="M5.41342 56H13.5866C15.4686 56 17 54.4684 17 52.5863V44.4126C17 42.5316 15.4686 41 13.5866 41H5.41342C3.53144 41 2 42.5305 2 44.4126V52.5863C2 54.4684 3.53144 56 5.41342 56ZM4.1909 44.4126C4.1909 43.7388 4.73863 43.1911 5.41342 43.1911H13.5866C14.2614 43.1911 14.8091 43.7388 14.8091 44.4126V52.5863C14.8091 53.2601 14.2614 53.8089 13.5866 53.8089H5.41342C4.73863 53.8089 4.1909 53.2601 4.1909 52.5863V44.4126Z" fill="#282928"/>
<path d="M49.7028 36.8137C49.7028 37.4685 50.2174 38 50.8514 38C51.4854 38 52 37.4685 52 36.8137C52 32.4017 48.5255 28.8131 44.2539 28.8131H31.1486V23.1863C31.1486 22.5315 30.634 22 30 22C29.366 22 28.8514 22.5315 28.8514 23.1863V28.8131H15.7461C11.4745 28.8131 8 32.4017 8 36.8137C8 37.4685 8.51457 38 9.14859 38C9.7826 38 10.2972 37.4685 10.2972 36.8137C10.2972 33.7102 12.7414 31.1857 15.7461 31.1857H28.8514V36.8137C28.8514 37.4685 29.366 38 30 38C30.634 38 31.1486 37.4685 31.1486 36.8137V31.1857H44.2539C47.2586 31.1857 49.7028 33.7114 49.7028 36.8137Z" fill="#282928"/>
</svg>
