<svg width="60" height="60" viewBox="0 0 60 60" fill="none" xmlns="http://www.w3.org/2000/svg">
<path d="M58.9055 44.1811C58.2715 41.8128 55.8094 40.3737 53.3004 40.8999L35.8137 44.6124C36.1577 43.6665 36.1584 42.6298 35.8157 41.6835C35.473 40.7371 34.8086 39.9413 33.9387 39.435L23.802 33.5815C23.3952 33.3275 23.0131 33.036 22.6605 32.7108C21.7699 31.9409 20.6613 30.9835 18.5953 30.7632C16.6324 30.5546 14.0777 31.0151 10.6266 32.2093C10.5114 31.4774 10.1389 30.8107 9.5761 30.3288C9.01331 29.847 8.29711 29.5818 7.55625 29.5807H4.04531C3.22136 29.5817 2.43141 29.9094 1.84878 30.492C1.26616 31.0747 0.938431 31.8646 0.9375 32.6886V49.9632C0.938431 50.7871 1.26616 51.5771 1.84878 52.1597C2.43141 52.7423 3.22136 53.0701 4.04531 53.071H7.5457C8.36101 53.0699 9.14331 52.7488 9.72429 52.1768C10.3053 51.6048 10.6385 50.8276 10.6523 50.0124C13.4484 49.6198 17.0004 51.6472 20.4434 53.6136C23.4105 55.3081 26.2395 56.9241 28.6031 56.9241C29.0478 56.9278 29.4904 56.8633 29.9156 56.7331L55.6406 49.8401C56.8237 49.5221 57.8321 48.7475 58.4443 47.6864C59.0565 46.6252 59.2224 45.3645 58.9055 44.1811ZM7.5457 51.196H4.04531C3.71845 51.1957 3.40506 51.0657 3.17393 50.8346C2.9428 50.6034 2.81281 50.29 2.8125 49.9632V32.6886C2.81281 32.3617 2.9428 32.0483 3.17393 31.8172C3.40506 31.586 3.71845 31.4561 4.04531 31.4557H7.5457C7.87257 31.4561 8.18596 31.586 8.41709 31.8172C8.64822 32.0483 8.77821 32.3617 8.77852 32.6886V49.9632C8.77821 50.29 8.64822 50.6034 8.41709 50.8346C8.18596 51.0657 7.87257 51.1957 7.5457 51.196ZM55.1555 48.0319L29.4141 54.9272L29.3707 54.9401C27.5625 55.5179 24.4172 53.7225 21.3762 51.9858C17.7516 49.914 14.0156 47.7835 10.657 48.1186V34.1839C18.3152 31.437 19.8996 32.8046 21.4383 34.1288C21.8789 34.5332 22.3577 34.8939 22.868 35.2057L33.0047 41.0581C33.2784 41.2169 33.5181 41.4281 33.7102 41.6796C33.9023 41.931 34.043 42.2179 34.1242 42.5237C34.2054 42.8295 34.2256 43.1484 34.1837 43.462C34.1417 43.7756 34.0383 44.0779 33.8795 44.3516C33.7207 44.6253 33.5095 44.8651 33.258 45.0572C33.0066 45.2493 32.7197 45.3899 32.4139 45.4712C32.1081 45.5524 31.7892 45.5726 31.4756 45.5306C31.1619 45.4886 30.8596 45.3853 30.5859 45.2265L22.1227 40.3409C21.9079 40.2243 21.6561 40.1961 21.4209 40.2624C21.1857 40.3287 20.9857 40.4843 20.8635 40.6959C20.7413 40.9075 20.7065 41.1584 20.7666 41.3953C20.8267 41.6322 20.9768 41.8362 21.1852 41.964L29.6484 46.8507C30.297 47.2261 31.0331 47.4237 31.7824 47.4237C32.4549 47.4227 33.1178 47.2646 33.7184 46.962C33.7624 46.959 33.8063 46.9532 33.8496 46.9444L53.6848 42.7444C55.2445 42.414 56.7082 43.2425 57.0914 44.671C57.2785 45.3729 57.1798 46.1203 56.8169 46.7496C56.4541 47.3788 55.8566 47.8387 55.1555 48.0284V48.0319ZM7.3582 34.8413C7.35913 35.1507 7.26821 35.4535 7.09694 35.7112C6.92568 35.9689 6.68179 36.17 6.39615 36.289C6.11051 36.408 5.79598 36.4396 5.49239 36.3797C5.18881 36.3198 4.90982 36.1712 4.69077 35.9526C4.47172 35.7341 4.32246 35.4554 4.26189 35.152C4.20132 34.8485 4.23217 34.5339 4.35053 34.248C4.46889 33.9621 4.66944 33.7178 4.92678 33.5459C5.18411 33.3741 5.48666 33.2825 5.79609 33.2827C6.2095 33.2836 6.60576 33.448 6.89841 33.74C7.19106 34.032 7.35635 34.4279 7.3582 34.8413ZM25.8668 24.5417H27.4535C27.7679 25.6719 28.2189 26.7596 28.7965 27.7807L27.675 28.9034C27.3807 29.1938 27.2024 29.5815 27.1733 29.9939C27.1441 30.4063 27.2663 30.8152 27.5168 31.144C28.5086 32.4601 29.6797 33.6308 30.9961 34.6222C31.3246 34.8733 31.7335 34.9959 32.1461 34.967C32.5586 34.9381 32.9464 34.7597 33.2367 34.4651L34.3594 33.3436C35.3803 33.9213 36.4676 34.3731 37.5973 34.689V36.2757C37.5948 36.6891 37.7431 37.0893 38.0145 37.4012C38.2859 37.7132 38.6617 37.9155 39.0715 37.9702C40.7041 38.2001 42.3608 38.2001 43.9934 37.9702C44.4038 37.9157 44.7802 37.7132 45.0519 37.4007C45.3235 37.0883 45.4718 36.6874 45.4688 36.2733V34.689C46.5988 34.3741 47.6865 33.9231 48.7078 33.346L49.8293 34.4675C50.1196 34.762 50.5074 34.9405 50.9199 34.9694C51.3325 34.9983 51.7414 34.8757 52.0699 34.6245C53.3859 33.6326 54.5563 32.461 55.5469 31.144C55.7975 30.8153 55.9199 30.4065 55.891 29.9941C55.8621 29.5817 55.6839 29.194 55.3898 28.9034L54.2672 27.7807C54.8448 26.7601 55.2958 25.6727 55.6102 24.5429H57.198C57.6116 24.5456 58.0119 24.3974 58.3239 24.1259C58.6359 23.8545 58.8381 23.4786 58.8926 23.0686C59.1225 21.4361 59.1225 19.7793 58.8926 18.1468C58.8378 17.7371 58.6355 17.3614 58.3235 17.0902C58.0116 16.819 57.6114 16.6709 57.198 16.6737H55.609C55.2939 15.5435 54.8426 14.4558 54.2648 13.4347L55.3875 12.3132C55.6801 12.0233 55.8575 11.6371 55.8868 11.2263C55.9161 10.8155 55.7953 10.408 55.5469 10.0796C54.5557 8.76264 53.3845 7.59143 52.0676 6.60028C51.739 6.34912 51.3301 6.22649 50.9176 6.2554C50.5051 6.28431 50.1173 6.46278 49.827 6.75731L48.7055 7.87997C47.6851 7.30099 46.5983 6.84807 45.4688 6.53114V4.94442C45.4716 4.53094 45.3235 4.13062 45.0524 3.81847C44.7812 3.50631 44.4055 3.30374 43.9957 3.24872C42.363 3.02126 40.7066 3.02126 39.0738 3.24872C38.6641 3.30398 38.2886 3.50662 38.0175 3.81872C37.7463 4.13082 37.5982 4.53101 37.6008 4.94442V6.53114C36.4698 6.84613 35.3814 7.29749 34.3594 7.87528L33.2367 6.75262C32.9462 6.45855 32.5584 6.28039 32.146 6.25149C31.7336 6.22259 31.3248 6.34492 30.9961 6.59559C29.6788 7.58818 28.5076 8.76098 27.5168 10.0796C27.266 10.4084 27.1438 10.8173 27.1729 11.2298C27.202 11.6422 27.3805 12.0299 27.675 12.3202L28.7965 13.4417C28.2187 14.4627 27.7677 15.5504 27.4535 16.6807H25.8668C25.4533 16.6779 25.053 16.826 24.7408 17.0971C24.4287 17.3683 24.2261 17.744 24.1711 18.1538C23.9412 19.7864 23.9412 21.4431 24.1711 23.0757C24.2274 23.4843 24.4306 23.8585 24.7427 24.1282C25.0547 24.398 25.4543 24.545 25.8668 24.5417ZM26.0086 18.5511H28.1836C28.3968 18.5511 28.6037 18.4784 28.7701 18.3451C28.9365 18.2117 29.0524 18.0256 29.0988 17.8175C29.4183 16.3897 29.9829 15.0281 30.7676 13.7932C30.8816 13.6133 30.931 13.3999 30.9076 13.1882C30.8841 12.9765 30.7893 12.779 30.6387 12.6284L29.1012 11.0897C29.9395 9.99589 30.9183 9.01716 32.0121 8.17879L33.5496 9.71747C33.7003 9.86838 33.898 9.9634 34.11 9.98683C34.322 10.0103 34.5356 9.96072 34.7156 9.84637C35.9505 9.0617 37.3121 8.49709 38.7398 8.17762C38.947 8.13119 39.1322 8.01583 39.2653 7.85042C39.3983 7.68502 39.4713 7.47935 39.4723 7.26708V5.08622C40.8387 4.90809 42.2226 4.90809 43.5891 5.08622V7.26708C43.589 7.48032 43.6617 7.6872 43.795 7.85359C43.9284 8.01998 44.1145 8.13593 44.3227 8.18231C45.7497 8.49991 47.1109 9.06254 48.3457 9.8452C48.5257 9.95955 48.7394 10.0091 48.9514 9.98566C49.1634 9.96223 49.361 9.86721 49.5117 9.71629L51.0504 8.17762C52.1436 9.01634 53.1219 9.99502 53.9602 11.0886L52.4227 12.6272C52.272 12.7779 52.1772 12.9753 52.1538 13.187C52.1303 13.3988 52.1797 13.6122 52.2937 13.7921C53.0785 15.0261 53.6431 16.3869 53.9625 17.814C54.0091 18.0219 54.1252 18.2077 54.2915 18.3408C54.4579 18.474 54.6647 18.5465 54.8777 18.5464H57.0527C57.2324 19.9128 57.2324 21.2968 57.0527 22.6632H54.8766C54.6637 22.6633 54.4572 22.7359 54.2911 22.8691C54.1249 23.0022 54.0091 23.1879 53.9625 23.3956C53.6434 24.8246 53.0788 26.1874 52.2937 27.4233C52.1797 27.6032 52.1303 27.8166 52.1538 28.0284C52.1772 28.2401 52.272 28.4375 52.4227 28.5882L53.9613 30.1268C53.1223 31.2201 52.1437 32.1988 51.0504 33.0378L49.5117 31.5003C49.3609 31.3498 49.1634 31.2552 48.9517 31.232C48.74 31.2088 48.5267 31.2583 48.3469 31.3725C47.1117 32.1575 45.7497 32.7221 44.3215 33.0413C44.1138 33.0879 43.9281 33.2037 43.795 33.3699C43.6618 33.536 43.5892 33.7425 43.5891 33.9554V36.1315C42.2226 36.3097 40.8387 36.3097 39.4723 36.1315V33.9554C39.4724 33.7423 39.3999 33.5355 39.2667 33.3692C39.1336 33.2028 38.9478 33.0867 38.7398 33.0401C37.3117 32.722 35.9499 32.1573 34.7156 31.3714C34.5356 31.257 34.322 31.2075 34.11 31.2309C33.898 31.2543 33.7003 31.3494 33.5496 31.5003L32.0121 33.039C30.9183 32.2006 29.9395 31.2219 29.1012 30.128L30.6387 28.5952C30.7893 28.4446 30.8841 28.2471 30.9076 28.0354C30.931 27.8237 30.8816 27.6103 30.7676 27.4304C29.9827 26.1956 29.418 24.834 29.0988 23.4061C29.0524 23.198 28.9365 23.0119 28.7701 22.8785C28.6037 22.7452 28.3968 22.6725 28.1836 22.6725H26.0086C25.8289 21.3066 25.8289 19.9229 26.0086 18.5569V18.5511ZM41.5312 30.0015C43.388 30.0015 45.2031 29.4509 46.7469 28.4193C48.2907 27.3878 49.494 25.9216 50.2045 24.2062C50.9151 22.4907 51.101 20.6031 50.7388 18.7821C50.3765 16.961 49.4824 15.2882 48.1695 13.9753C46.8566 12.6624 45.1838 11.7683 43.3627 11.4061C41.5417 11.0438 39.6541 11.2297 37.9387 11.9403C36.2232 12.6508 34.7571 13.8541 33.7255 15.3979C32.6939 16.9418 32.1434 18.7568 32.1434 20.6136C32.1462 23.1025 33.1361 25.4888 34.8961 27.2487C36.6561 29.0087 39.0423 29.9987 41.5312 30.0015ZM41.5312 13.1007C43.0172 13.1007 44.4697 13.5413 45.7052 14.3668C46.9407 15.1923 47.9036 16.3657 48.4723 17.7385C49.0409 19.1113 49.1897 20.6219 48.8998 22.0793C48.6099 23.5366 47.8944 24.8753 46.8437 25.926C45.793 26.9767 44.4543 27.6922 42.9969 27.9821C41.5396 28.272 40.029 28.1232 38.6562 27.5546C37.2834 26.9859 36.11 26.023 35.2845 24.7875C34.459 23.552 34.0184 22.0995 34.0184 20.6136C34.0193 18.6209 34.811 16.71 36.2196 15.3005C37.6282 13.891 39.5386 13.0982 41.5312 13.096V13.1007ZM37.6324 21.5007C37.5454 21.4136 37.4764 21.3102 37.4293 21.1964C37.3822 21.0826 37.358 20.9607 37.3581 20.8376C37.3582 20.7144 37.3825 20.5925 37.4296 20.4788C37.4768 20.365 37.5459 20.2617 37.633 20.1747C37.7201 20.0877 37.8235 20.0186 37.9373 19.9716C38.0511 19.9245 38.173 19.9003 38.2961 19.9004C38.4192 19.9004 38.5412 19.9247 38.6549 19.9719C38.7686 20.0191 38.872 20.0882 38.959 20.1753L40.4648 21.6811L44.0625 17.5526C44.2311 17.3862 44.4565 17.2897 44.6934 17.2827C44.9302 17.2757 45.1609 17.3587 45.3391 17.5149C45.5173 17.6711 45.6297 17.8889 45.6537 18.1247C45.6778 18.3604 45.6117 18.5965 45.4688 18.7854L41.2148 23.6651C41.1304 23.7621 41.0269 23.8406 40.9107 23.8959C40.7946 23.9511 40.6684 23.9818 40.5398 23.9862H40.5082C40.3851 23.9863 40.2631 23.9621 40.1493 23.9151C40.0355 23.868 39.9321 23.799 39.8449 23.712L37.6324 21.5007Z" fill="#282928"/>
</svg>
