<svg width="60" height="60" viewBox="0 0 60 60" fill="none" xmlns="http://www.w3.org/2000/svg">
<rect width="60" height="60" rx="30" fill="#FDBC33"/>
<path fill-rule="evenodd" clip-rule="evenodd" d="M36.4373 33.0296V34.5523H33.5573V33.0296C33.5573 32.845 33.708 32.6949 33.8919 32.6949H36.1019C36.2866 32.6949 36.4366 32.8457 36.4366 33.0296H36.4373ZM42.975 30.6443L41.3221 29.3095C41.3049 29.2956 41.2962 29.2757 41.2976 29.2531C41.2989 29.2305 41.3102 29.2119 41.3294 29.2006L45.8052 26.4521C45.8325 26.4355 45.867 26.4401 45.8889 26.4634C45.9108 26.4866 45.9135 26.5211 45.8949 26.5477L43.8927 29.4105C43.8728 29.4397 43.8781 29.4789 43.9053 29.5008L45.5582 30.8355C45.5755 30.8495 45.5841 30.8694 45.5828 30.892C45.5814 30.9146 45.5701 30.9332 45.5509 30.9445L41.0751 33.693C41.0479 33.7096 41.0134 33.705 40.9914 33.6817C40.9695 33.6585 40.9669 33.6239 40.9855 33.5974L42.9876 30.7346C43.0075 30.7054 43.0022 30.6662 42.975 30.6443ZM17.0221 30.6443L18.675 29.3095C18.6922 29.2956 18.7009 29.2757 18.6995 29.2531C18.6982 29.2305 18.6869 29.2119 18.6676 29.2006L14.1919 26.4521C14.1646 26.4355 14.1301 26.4401 14.1082 26.4634C14.0863 26.4866 14.0836 26.5211 14.1022 26.5477L16.1044 29.4105C16.1243 29.4397 16.119 29.4789 16.0917 29.5008L14.4389 30.8355C14.4216 30.8495 14.413 30.8694 14.4143 30.892C14.4157 30.9146 14.4269 30.9332 14.4462 30.9445L18.922 33.693C18.9492 33.7096 18.9837 33.705 19.0057 33.6817C19.0276 33.6585 19.0302 33.6239 19.0116 33.5974L17.0095 30.7346C16.9896 30.7054 16.9949 30.6662 17.0221 30.6443ZM29.9985 21.4291C27.1584 21.4716 24.7996 23.6012 24.3972 26.3445C24.3168 26.8943 24.5419 27.4083 25.0008 27.7218C26.5195 28.759 28.7587 29.1608 29.9985 29.1608C31.2384 29.1608 33.4776 28.759 34.9963 27.7218C35.4551 27.4083 35.6803 26.8943 35.5999 26.3445C35.1975 23.6012 32.8394 21.4716 29.9985 21.4291ZM29.9985 15.2201C28.5376 15.2201 27.3529 16.4048 27.3529 17.8657C27.3529 19.3267 28.5376 20.5114 29.9985 20.5114C31.4595 20.5114 32.6442 19.3267 32.6442 17.8657C32.6442 16.4048 31.4595 15.2201 29.9985 15.2201ZM22.6733 14.2539C21.4574 14.2539 20.4719 15.2394 20.4719 16.4553C20.4719 17.6712 21.4574 18.6566 22.6733 18.6566C23.8892 18.6566 24.8746 17.6712 24.8746 16.4553C24.8746 15.2394 23.8892 14.2539 22.6733 14.2539ZM37.3232 19.3081C39.6872 19.3439 41.6495 21.1157 41.9842 23.3987C42.0513 23.8562 41.864 24.2839 41.4822 24.5449C40.2185 25.4082 38.3551 25.7422 37.3232 25.7422C37.0323 25.7422 36.6757 25.7156 36.2852 25.6585C35.8728 23.9333 34.7805 22.4836 33.3235 21.5898C34.1562 20.2431 35.6378 19.334 37.3232 19.3088V19.3081ZM22.6733 19.3081C24.3587 19.3333 25.8402 20.2424 26.6729 21.5891C25.216 22.483 24.1236 23.9326 23.7112 25.6579C23.3207 25.715 22.9641 25.7415 22.6733 25.7415C21.6413 25.7415 19.7786 25.4068 18.5142 24.5442C18.1324 24.2832 17.9451 23.8556 18.0122 23.398C18.3469 21.1157 20.3092 19.3433 22.6733 19.3074V19.3081ZM37.3238 14.2539C36.1079 14.2539 35.1225 15.2394 35.1225 16.4553C35.1225 17.6712 36.1079 18.6566 37.3238 18.6566C38.5397 18.6566 39.5252 17.6712 39.5252 16.4553C39.5252 15.2394 38.5397 14.2539 37.3238 14.2539ZM36.438 35.2223V39.3077C36.438 41.08 35.7141 42.6897 34.5474 43.8558C33.3813 45.0219 31.7709 45.7464 29.9992 45.7464C28.2275 45.7464 26.6171 45.0226 25.4504 43.8558C24.2843 42.6897 23.5598 41.0794 23.5598 39.3077V35.2223H26.4398V39.3077C26.4398 40.2845 26.8409 41.1743 27.4864 41.8198C28.1319 42.4653 29.0217 42.8664 29.9985 42.8664C30.9754 42.8664 31.8652 42.4653 32.5107 41.8198C33.1562 41.1743 33.5573 40.2845 33.5573 39.3077V35.2223H36.4373H36.438ZM23.5605 34.5523V33.0296C23.5605 32.845 23.7112 32.6949 23.8951 32.6949H26.1051C26.2898 32.6949 26.4398 32.8457 26.4398 33.0296V34.5523H23.5598H23.5605Z" fill="#282928"/>
</svg>
