<svg width="60" height="60" viewBox="0 0 60 60" fill="none" xmlns="http://www.w3.org/2000/svg">
<path fill-rule="evenodd" clip-rule="evenodd" d="M21.355 36.1318H32.9821C33.4605 36.1318 33.8489 35.7435 33.8489 35.2651C33.8489 34.7867 33.4605 34.3984 32.9821 34.3984H21.355C20.8766 34.3984 20.4883 34.7867 20.4883 35.2651C20.4883 35.7435 20.8765 36.1318 21.355 36.1318Z" fill="#282928"/>
<path fill-rule="evenodd" clip-rule="evenodd" d="M28.6758 35.2651V56.1324C28.6758 56.6109 29.0641 56.9991 29.5425 56.9991C30.0203 56.9991 30.4092 56.6108 30.4092 56.1324V35.2651C30.4092 34.7867 30.0203 34.3984 29.5425 34.3984C29.0641 34.3984 28.6758 34.7867 28.6758 35.2651Z" fill="#282928"/>
<path fill-rule="evenodd" clip-rule="evenodd" d="M10.1129 3C6.73951 3 4 5.73951 4 9.11342C4 12.4873 6.73951 15.2263 10.1129 15.2263C13.4869 15.2263 16.2264 12.4874 16.2264 9.11342C16.2264 5.73942 13.4869 3 10.1129 3ZM10.1129 4.7335C12.5305 4.7335 14.4929 6.69586 14.4929 9.11342C14.4929 11.5305 12.5305 13.4928 10.1129 13.4928C7.69577 13.4928 5.7335 11.5305 5.7335 9.11342C5.7335 6.69577 7.69586 4.7335 10.1129 4.7335Z" fill="#282928"/>
<path fill-rule="evenodd" clip-rule="evenodd" d="M49.8869 3C46.513 3 43.7734 5.73951 43.7734 9.11342C43.7734 12.4873 46.513 15.2263 49.8869 15.2263C53.2603 15.2263 55.9998 12.4874 55.9998 9.11342C55.9998 5.73942 53.2603 3 49.8869 3ZM49.8869 4.7335C52.3041 4.7335 54.2663 6.69586 54.2663 9.11342C54.2663 11.5305 52.3041 13.4928 49.8869 13.4928C47.4693 13.4928 45.5069 11.5305 45.5069 9.11342C45.5069 6.69577 47.4693 4.7335 49.8869 4.7335Z" fill="#282928"/>
<path fill-rule="evenodd" clip-rule="evenodd" d="M14.892 27.6655C15.0353 27.9544 15.3323 28.1468 15.6681 28.1468L15.9899 28.0843L23.9709 24.8941C25.1994 24.4036 26.5949 25.0016 27.086 26.2301C27.5766 27.458 26.978 28.8535 25.7501 29.3446L15.2099 33.5576C14.2027 33.9603 13.0621 33.6344 12.4166 32.7885C12.1913 32.4932 11.8024 32.3742 11.4499 32.4932C11.0981 32.6122 10.8611 32.9427 10.8611 33.3143V37.6671C10.8611 38.1074 11.1911 38.4772 11.628 38.5281L18.6434 39.3382C20.3013 39.5295 21.5528 40.9336 21.5528 42.603V56.1347C21.5528 56.6132 21.9411 57.0014 22.4195 57.0014C22.898 57.0014 23.2862 56.6131 23.2862 56.1347V42.603C23.2862 40.053 21.3748 37.9086 18.8421 37.6163L12.5946 36.8947V35.0848C13.5942 35.5442 14.7684 35.6009 15.853 35.1675L26.3938 30.9545C28.5098 30.1081 29.5413 27.7031 28.6954 25.5865C27.8494 23.4698 25.4445 22.4384 23.3279 23.2844L16.0264 26.203L11.8319 19.3378C11.2397 18.3682 10.2741 17.6858 9.16291 17.4506C9.12883 17.4437 9.09475 17.4362 9.06004 17.4292C7.89567 17.183 6.68163 17.4511 5.72937 18.1647C4.7771 18.879 4.17905 19.9688 4.08887 21.1556C3.5792 27.8619 2.55704 41.3023 2.55704 41.3023C2.55523 41.3243 2.55469 41.3462 2.55469 41.3682C2.55469 43.9153 4.46212 46.0579 6.99126 46.3537L13.2463 47.1615V56.1346C13.2463 56.6131 13.6346 57.0013 14.113 57.0013C14.5914 57.0013 14.9797 56.613 14.9797 56.1346V46.3994C14.9797 45.9631 14.6561 45.5956 14.2238 45.5396L7.19738 44.633C5.55117 44.4429 4.30586 43.0572 4.288 41.4035C4.288 41.3988 5.81692 21.2868 5.81692 21.2868C5.8695 20.5986 6.21619 19.9659 6.76865 19.5522C7.32164 19.1379 8.02547 18.9824 8.70146 19.1252L8.8037 19.1466C9.44861 19.283 10.0085 19.6793 10.3523 20.2416C11.6634 22.3877 14.3208 26.7376 14.8392 27.5864C14.8568 27.6141 14.8741 27.6406 14.892 27.6655Z" fill="#282928"/>
<path fill-rule="evenodd" clip-rule="evenodd" d="M8.00994 28.9239L10.7951 33.4835C11.845 35.202 13.9819 35.9127 15.8523 35.165C16.2966 34.9876 16.5134 34.4826 16.3354 34.0388C16.1581 33.5945 15.653 33.3778 15.2092 33.5551C14.1241 33.9891 12.884 33.5771 12.2744 32.5798L9.48929 28.0201C9.23966 27.6121 8.7057 27.4833 8.29782 27.7323C7.88976 27.982 7.76032 28.5159 8.00994 28.9239Z" fill="#282928"/>
<path fill-rule="evenodd" clip-rule="evenodd" d="M43.1749 27.5112L34.7824 28.698C32.5254 29.017 30.9526 31.1087 31.2716 33.3657C31.5905 35.6221 33.6822 37.1956 35.9393 36.8766L46.2611 35.4164C46.6627 35.3597 47.0487 35.2453 47.4087 35.0795V36.8892L41.1611 37.6109C38.6285 37.9033 36.717 40.0476 36.717 42.5975V56.1292C36.717 56.6077 37.1053 56.9959 37.5837 56.9959C38.0621 56.9959 38.4505 56.6076 38.4505 56.1292V42.5975C38.4505 40.9282 39.702 39.524 41.3598 39.3328L48.3729 38.5226H48.3712C48.8052 38.4752 49.142 38.1078 49.142 37.6616V33.3083C49.142 32.9367 48.9051 32.6068 48.5532 32.4878C48.2014 32.3681 47.8124 32.4872 47.5865 32.7825C47.2069 33.2794 46.6447 33.6116 46.0183 33.7001L35.6964 35.1597C34.3865 35.3451 33.173 34.4322 32.9881 33.1223C32.8027 31.8129 33.7156 30.5995 35.025 30.4139L43.8202 29.1704L43.7012 29.1785L44.4408 28.7636L49.1304 21.0871C49.7302 20.106 50.8287 19.5426 51.9757 19.6293C51.9919 19.6305 52.0075 19.6315 52.0237 19.6327C53.5688 19.7495 54.7839 21.001 54.8544 22.5484L55.7148 41.3811C55.7056 43.0419 54.4574 44.4362 52.8054 44.6274L45.9252 45.422C45.4924 45.4717 45.1642 45.8351 45.1584 46.2708L45.0231 56.1171C45.0168 56.5956 45.3998 56.9891 45.8778 56.9959C46.3563 57.0023 46.7498 56.6192 46.7566 56.1408L46.8809 47.056L53.0042 46.3493C55.5369 46.0569 57.4483 43.912 57.4483 41.3627C57.4483 41.3493 57.4478 41.3361 57.4471 41.3228C57.4471 41.3228 56.8727 28.7469 56.5861 22.4693C56.4752 20.0459 54.573 18.0865 52.1542 17.9044C52.138 17.9032 52.1218 17.9015 52.1062 17.9003C50.3104 17.7651 48.5901 18.6468 47.6512 20.1834L43.1749 27.5112Z" fill="#282928"/>
<path fill-rule="evenodd" clip-rule="evenodd" d="M38.1874 5.6002C38.1874 4.91088 37.9134 4.24921 37.4258 3.76156C36.9381 3.27382 36.2771 3 35.5872 3H23.4948C22.0584 3 20.8945 4.16437 20.8945 5.6002V16.616C20.8945 17.1822 21.225 17.6965 21.7405 17.9311C22.2559 18.1657 22.8609 18.0773 23.2879 17.7051C24.1217 16.9788 25.2965 15.9549 25.9511 15.384C26.1094 15.2465 26.3117 15.1708 26.5209 15.1708H35.5871C36.277 15.1708 36.9381 14.8969 37.4257 14.4093C37.9133 13.9215 38.1873 13.2599 38.1873 12.5706V5.6002H38.1874ZM22.628 15.981V5.6002C22.628 5.1218 23.0158 4.7335 23.4947 4.7335H35.5871C35.817 4.7335 36.0377 4.82477 36.2002 4.98774C36.3625 5.15008 36.4539 5.37024 36.4539 5.6002V12.5706C36.4539 12.8006 36.3626 13.0207 36.2002 13.1831C36.0378 13.3461 35.817 13.4373 35.5871 13.4373H26.5209C25.8928 13.4373 25.2861 13.6644 24.8123 14.077L22.628 15.981Z" fill="#282928"/>
<path fill-rule="evenodd" clip-rule="evenodd" d="M25.6792 8.36622H33.5331C34.0116 8.36622 34.3998 7.97792 34.3998 7.49952C34.3998 7.02112 34.0115 6.63281 33.5331 6.63281H25.6792C25.2008 6.63281 24.8125 7.02112 24.8125 7.49952C24.8125 7.97792 25.2007 8.36622 25.6792 8.36622Z" fill="#282928"/>
<path fill-rule="evenodd" clip-rule="evenodd" d="M25.6792 11.5303H29.5408C30.0187 11.5303 30.4075 11.142 30.4075 10.6636C30.4075 10.1851 30.0187 9.79688 29.5408 9.79688H25.6792C25.2008 9.79688 24.8125 10.1852 24.8125 10.6636C24.8124 11.142 25.2007 11.5303 25.6792 11.5303Z" fill="#282928"/>
<path fill-rule="evenodd" clip-rule="evenodd" d="M43.6528 35.7878L46.2571 35.4192C47.4792 35.2464 48.5597 34.5363 49.2034 33.4835L51.9885 28.9238C52.2381 28.5159 52.1087 27.982 51.7007 27.7324C51.2928 27.4833 50.7589 27.6122 50.5093 28.0201L47.7242 32.5798C47.3509 33.1905 46.7233 33.6026 46.0143 33.7031L43.41 34.0712C42.9362 34.1383 42.6057 34.5774 42.6727 35.0512C42.7398 35.5244 43.1789 35.8548 43.6528 35.7878Z" fill="#282928"/>
</svg>
