<svg width="60" height="60" viewBox="0 0 60 60" fill="none" xmlns="http://www.w3.org/2000/svg">
<path d="M58.0938 36.6416V23.2959H49.4218C49.1461 22.4915 48.8175 21.7012 48.4412 20.9332L54.5747 14.8001L45.1374 5.36281L39.0088 11.4915C38.2494 11.1207 37.457 10.7938 36.6416 10.5154V1.84375H23.2959V10.5157C22.4915 10.7921 21.7009 11.1203 20.9332 11.4963L14.8001 5.36281L5.36281 14.8001L11.4963 20.9332C11.12 21.7012 10.7914 22.4919 10.5157 23.2959H1.84375V36.6416H10.5157C10.7914 37.446 11.12 38.2363 11.4963 39.0043L5.36281 45.1374L14.8001 54.5747L20.9332 48.4412C21.7009 48.8175 22.4915 49.1454 23.2959 49.4218V58.0938H36.6416V49.4262C37.4391 49.1516 38.2305 48.822 39.0047 48.4416L45.1374 54.5747L54.5747 45.1374L48.4412 39.0043C48.8175 38.2363 49.1461 37.4456 49.4218 36.6416H58.0938ZM52.2442 45.1374L45.1374 52.2442L39.3171 46.4235L38.7791 46.7071C37.7378 47.2564 36.6594 47.7055 35.5738 48.042L34.9936 48.2215V56.4458H24.9439V48.2167C23.1868 47.6725 22.5262 47.4288 20.6204 46.4235L14.8001 52.2442L7.69363 45.1374L13.514 39.3171C12.5074 37.4086 12.265 36.7511 11.7208 34.9936H3.4917V24.9439H11.7205C12.2598 23.2036 12.5043 22.5341 13.514 20.6204L7.69363 14.8001L14.8001 7.69328L20.6204 13.514L21.1584 13.2304C22.1853 12.689 23.2637 12.2413 24.3637 11.9L24.9439 11.7205V3.4917H34.9943V11.7205L35.5738 11.9C36.6972 12.2481 37.7773 12.6941 38.7846 13.2256L39.3222 13.5092L45.1381 7.69328L52.2442 14.8001L46.4239 20.6204C47.2956 22.2721 47.5908 22.9203 48.217 24.9439H56.4458V34.9936H48.217C47.9791 35.7623 47.6046 37.0786 46.7071 38.7791L46.4235 39.3171L52.2442 45.1374Z" fill="#282928"/>
<path d="M9.38672 45.003L13.2299 41.1602L14.3951 42.3251L10.552 46.1682L9.38672 45.003Z" fill="#282928"/>
<path d="M26.9476 36.2731L29 34.221L27.8341 33.0558L25.7824 35.1082C22.9473 37.9433 18.3405 37.9433 15.505 35.1082C14.1321 33.7356 13.3764 31.9108 13.3764 29.9693C13.3764 28.0282 14.1321 26.2034 15.505 24.8312C18.3385 21.9974 22.9486 21.9974 25.7824 24.8305L35.1091 34.1582C37.419 36.4677 41.177 36.4677 43.4862 34.1579C45.8012 31.8435 45.8022 28.0962 43.4862 25.7811C41.1749 23.4688 37.4221 23.4688 35.1091 25.7808L33.0571 27.8332L34.2227 28.9981L36.2744 26.9464C37.0808 26.1399 38.1544 25.6963 39.2977 25.6963C41.6707 25.6963 43.5734 27.6124 43.5734 29.9693C43.5734 31.1119 43.1288 32.1851 42.3213 32.9926C40.6545 34.6595 37.9422 34.6598 36.275 32.9926L26.9476 23.6656C23.4715 20.1894 17.8156 20.1898 14.3395 23.6656C10.8558 27.15 10.8554 32.7887 14.3395 36.2734C17.819 39.7526 23.4681 39.7526 26.9476 36.2731Z" fill="#282928"/>
<path d="M45.6058 23.6654C42.1296 20.1896 36.4737 20.1896 32.9976 23.6657L30.9456 25.7178L32.1108 26.883L34.1628 24.8306C36.9963 21.9972 41.6071 21.9975 44.4402 24.8306C47.274 27.6641 47.274 32.2749 44.4402 35.1083C41.6071 37.9418 36.9966 37.9418 34.1628 35.1083L24.8358 25.781C22.5259 23.4711 18.7682 23.4711 16.4587 25.781C14.1492 28.0908 14.1492 31.8482 16.4587 34.158C18.7682 36.4679 22.5263 36.4679 24.8358 34.158L26.8878 32.1056L25.7226 30.9408L23.6705 32.9928C22.0037 34.6596 19.2911 34.6596 17.6239 32.9928C15.9568 31.3256 15.9568 28.6134 17.6239 26.9462C19.2911 25.2794 22.0034 25.2794 23.6705 26.9462L32.9976 36.2736C36.4758 39.7514 42.1317 39.7473 45.6058 36.2736C49.0816 32.7978 49.0816 27.1419 45.6058 23.6654Z" fill="#282928"/>
<path d="M20.1418 39.7969L18.9766 40.9621C25.0523 47.0376 34.8855 47.0379 40.9619 40.9621L39.796 39.7969C34.3646 45.2282 25.5735 45.2289 20.1418 39.7969Z" fill="#282928"/>
<path d="M40.9628 15.7552L39.7969 14.59L40.9621 13.4247L42.1277 14.59L40.9628 15.7552ZM42.9046 13.813L41.7391 12.6475L42.9046 11.4822L44.0699 12.6481L42.9046 13.813ZM44.8465 11.8709L43.6812 10.7056L45.2111 9.17578L46.377 10.341L44.8465 11.8709Z" fill="#282928"/>
<path d="M39.796 20.1426C35.6445 15.9915 29.5135 14.9979 24.3993 17.233L23.7395 15.7227C29.406 13.247 36.2745 14.2907 40.9619 18.9774L39.796 20.1426ZM20.1418 20.1426L18.9766 18.9774C19.3861 18.5681 19.8215 18.1781 20.2719 17.818L21.3012 19.1044C20.8988 19.4268 20.5088 19.7763 20.1418 20.1426ZM22.1348 18.4875L21.2047 17.1269C21.6819 16.8004 22.1832 16.4976 22.6941 16.227L23.4655 17.6831C23.0096 17.9248 22.5619 18.1956 22.1348 18.4875Z" fill="#282928"/>
</svg>
