<svg width="60" height="60" viewBox="0 0 60 60" fill="none" xmlns="http://www.w3.org/2000/svg">
<path d="M52.8068 18.7619C54.44 22.201 55.2833 25.9723 55.2729 29.7912C55.2763 34.6874 53.8893 39.4805 51.2786 43.5951C48.6679 47.7098 44.9444 50.9711 40.555 52.9876C36.1656 55.0041 31.297 55.69 26.5336 54.963C21.7701 54.2361 17.3143 52.1271 13.701 48.8894L15.5765 46.9865C15.6873 46.8743 15.7661 46.7336 15.8044 46.5795C15.8427 46.4254 15.8391 46.2636 15.7939 46.1113C15.7488 45.9591 15.6639 45.8222 15.5482 45.7153C15.4325 45.6083 15.2903 45.5353 15.137 45.504L9.03298 44.2603C8.89363 44.232 8.74955 44.239 8.61351 44.2808C8.47748 44.3226 8.35371 44.3979 8.25317 44.5001C8.15264 44.6022 8.07845 44.7279 8.03719 44.8661C7.99593 45.0044 7.98888 45.1508 8.01665 45.2925L9.23159 51.4962C9.26216 51.6518 9.33368 51.7961 9.43853 51.9137C9.54338 52.0313 9.67763 52.1178 9.827 52.164C9.97637 52.2102 10.1353 52.2144 10.2868 52.176C10.4383 52.1377 10.5768 52.0584 10.6874 51.9465L12.4774 50.1313C16.3328 53.615 21.0969 55.8913 26.1958 56.6859C31.2947 57.4806 36.5108 56.7597 41.2159 54.6102C45.921 52.4607 49.9143 48.9742 52.7147 44.5707C55.5152 40.1672 57.0033 35.0346 56.9999 29.7912C57.011 25.7085 56.1093 21.6766 54.3628 18L52.8068 18.7619ZM10.6097 49.545L9.96296 46.2404L13.2149 46.9031L10.6097 49.545Z" fill="#282928"/>
<path d="M7.19321 41.2381C5.55996 37.799 4.7167 34.0276 4.72708 30.2087C4.72609 25.3127 6.11458 20.5202 8.72605 16.4062C11.3375 12.2921 15.0611 9.03115 19.4502 7.01433C23.8393 4.99751 28.7075 4.31047 33.4712 5.03562C38.2348 5.76077 42.6915 7.86731 46.3068 11.1026L44.4235 13.0134C44.3127 13.1256 44.2339 13.2662 44.1956 13.4204C44.1573 13.5745 44.1609 13.7363 44.2061 13.8885C44.2512 14.0408 44.3361 14.1777 44.4518 14.2846C44.5676 14.3916 44.7097 14.4646 44.863 14.4959L50.967 15.7396C51.1064 15.7679 51.2505 15.7609 51.3865 15.7191C51.5225 15.6773 51.6463 15.602 51.7468 15.4998C51.8474 15.3977 51.9216 15.272 51.9628 15.1338C52.0041 14.9955 52.0111 14.8491 51.9833 14.7074L50.7684 8.50369C50.7378 8.34805 50.6663 8.20376 50.5615 8.08617C50.4566 7.96857 50.3224 7.88207 50.173 7.83587C50.0236 7.78968 49.8647 7.78551 49.7132 7.82382C49.5617 7.86212 49.4232 7.94147 49.3126 8.05342L47.5303 9.86064C43.6729 6.37946 38.9079 4.10563 33.8089 3.3128C28.7099 2.51997 23.4941 3.24193 18.7893 5.39179C14.0845 7.54166 10.0912 11.0278 7.28995 15.4307C4.48874 19.8335 2.99903 24.9654 3.0001 30.2087C2.98898 34.2915 3.89071 38.3234 5.6372 42L7.19321 41.2381ZM49.3903 10.4549L50.037 13.7595L46.7851 13.0933L49.3903 10.4549Z" fill="#282928"/>
<path d="M41.716 46C41.7588 46 41.8033 46 41.8452 46C42.6887 45.9992 43.5121 45.742 44.206 45.2623C44.8999 44.7826 45.4316 44.1033 45.7304 43.3144C46.0292 42.5255 46.081 41.6644 45.879 40.8453C45.6769 40.0263 45.2306 39.2881 44.5992 38.7287L36.7209 31.7417C37.0441 30.5149 37.0261 29.223 36.669 28.0056C36.3118 26.7882 35.629 25.6914 34.6942 24.8336C33.7594 23.9758 32.6081 23.3896 31.3645 23.1382C30.121 22.8867 28.8324 22.9797 27.6378 23.407C27.4991 23.4563 27.3752 23.54 27.2775 23.6501C27.1799 23.7602 27.1117 23.8933 27.0793 24.0369C27.0469 24.1805 27.0514 24.3299 27.0923 24.4713C27.1332 24.6127 27.2092 24.7414 27.3133 24.8455L29.359 26.8922L26.8919 29.3593L24.8462 27.3135C24.7421 27.2093 24.6133 27.1331 24.4718 27.092C24.3303 27.051 24.1807 27.0465 24.037 27.0789C23.8933 27.1113 23.7601 27.1796 23.6499 27.2773C23.5397 27.3751 23.4561 27.4992 23.4068 27.638C22.9796 28.8327 22.8868 30.1213 23.1382 31.3649C23.3896 32.6085 23.9758 33.7598 24.8336 34.6946C25.6913 35.6295 26.788 36.3124 28.0053 36.6697C29.2227 37.027 30.5145 37.0452 31.7414 36.7222L38.7291 44.5998C39.1036 45.0264 39.5623 45.371 40.0763 45.6119C40.5903 45.8529 41.1486 45.985 41.716 46ZM32.0223 34.8527C31.9228 34.8529 31.824 34.8697 31.7301 34.9024C30.9187 35.1939 30.0477 35.2797 29.195 35.1523C28.3424 35.0248 27.5346 34.688 26.8439 34.172C26.1532 33.656 25.6012 32.9768 25.2372 32.1953C24.8732 31.4137 24.7086 30.5541 24.7581 29.6934L26.2751 31.2113C26.4418 31.3689 26.6625 31.4568 26.8919 31.4568C27.1213 31.4568 27.342 31.3689 27.5087 31.2113L31.2101 27.5098C31.3737 27.3462 31.4655 27.1243 31.4655 26.893C31.4655 26.6617 31.3737 26.4398 31.2101 26.2762L29.6922 24.7592C30.5529 24.7097 31.4125 24.8743 32.194 25.2383C32.9756 25.6023 33.6547 26.1543 34.1707 26.845C34.6868 27.5357 35.0236 28.3435 35.151 29.1962C35.2785 30.0489 35.1926 30.9199 34.9011 31.7313C34.8429 31.8951 34.835 32.0725 34.8784 32.2409C34.9218 32.4092 35.0144 32.5608 35.1445 32.6761L43.4425 40.0346C43.6889 40.2531 43.888 40.5196 44.0275 40.8179C44.1671 41.1162 44.2441 41.4398 44.2539 41.769C44.2637 42.0982 44.2061 42.4258 44.0845 42.7319C43.963 43.0379 43.7801 43.3159 43.5471 43.5486C43.3161 43.7838 43.0384 43.9681 42.7319 44.0896C42.4255 44.2111 42.097 44.2673 41.7675 44.2544C41.4383 44.2458 41.1144 44.1694 40.8161 44.0298C40.5178 43.8901 40.2516 43.6904 40.0341 43.443L32.6748 35.1458C32.593 35.0536 32.4925 34.9798 32.38 34.9293C32.2675 34.8787 32.1456 34.8526 32.0223 34.8527Z" fill="#282928"/>
<path d="M42.2444 34.3675C43.2361 31.5873 43.2521 28.5524 42.2898 25.7619C41.3275 22.9714 39.4442 20.5915 36.9496 19.0135C34.455 17.4355 31.4977 16.7535 28.5639 17.0796C25.6302 17.4057 22.8948 18.7204 20.8076 20.8076C18.7204 22.8948 17.4057 25.6302 17.0796 28.5639C16.7535 31.4977 17.4355 34.455 19.0135 36.9496C20.5915 39.4442 22.9714 41.3275 25.7619 42.2898C28.5524 43.2521 31.5873 43.2361 34.3675 42.2444L33.1193 40.8365C30.7203 41.5249 28.1605 41.3967 25.8422 40.4722C23.5239 39.5476 21.5785 37.8791 20.3116 35.7287C19.0446 33.5783 18.528 31.068 18.8429 28.5921C19.1577 26.1162 20.2862 23.815 22.051 22.0502C23.8159 20.2854 26.117 19.1569 28.5929 18.842C31.0689 18.5271 33.5792 19.0438 35.7296 20.3107C37.88 21.5776 39.5485 23.5231 40.473 25.8414C41.3976 28.1597 41.5257 30.7194 40.8373 33.1185L42.2444 34.3675Z" fill="#282928"/>
<path d="M41.8538 41.8534C41.9236 41.7834 41.9712 41.6943 41.9904 41.5973C42.0097 41.5004 41.9997 41.3999 41.9619 41.3085C41.924 41.2172 41.8599 41.1391 41.7777 41.0842C41.6955 41.0293 41.5989 41 41.5 41C41.4011 41 41.3045 41.0293 41.2223 41.0842C41.1401 41.1391 41.076 41.2172 41.0381 41.3085C41.0003 41.3999 40.9903 41.5004 41.0096 41.5973C41.0288 41.6943 41.0764 41.7834 41.1463 41.8534C41.1927 41.8998 41.2478 41.9367 41.3085 41.9619C41.3692 41.987 41.4343 42 41.5 42C41.5657 42 41.6308 41.987 41.6915 41.9619C41.7522 41.9367 41.8073 41.8998 41.8538 41.8534Z" fill="#282928"/>
<path d="M46.4618 34.3182C47.1348 34.3173 47.78 34.0494 48.2559 33.5734C48.7317 33.0974 48.9993 32.4521 49 31.7791V28.2209C48.9993 27.5479 48.7317 26.9026 48.2559 26.4266C47.78 25.9506 47.1348 25.6827 46.4618 25.6818C46.2845 25.6844 46.111 25.6308 45.9661 25.5287C45.8212 25.4266 45.7124 25.2813 45.6551 25.1135C45.3611 24.1742 44.9827 23.2634 44.5246 22.3922C44.4458 22.2328 44.4195 22.0525 44.4494 21.8772C44.4793 21.7019 44.564 21.5405 44.6913 21.4163L44.7086 21.3982C45.1772 20.9202 45.4384 20.2766 45.4355 19.6073C45.4325 18.9379 45.1658 18.2967 44.693 17.8227L42.1773 15.3061C41.6934 14.8436 41.0498 14.5855 40.3805 14.5855C39.7111 14.5855 39.0675 14.8436 38.5837 15.3061C38.4596 15.4333 38.2983 15.5178 38.1231 15.5476C37.9479 15.5774 37.7678 15.5509 37.6086 15.4719C36.7367 15.0136 35.825 14.6352 34.8847 14.3414C34.718 14.2841 34.5736 14.1758 34.4719 14.0318C34.3702 13.8877 34.3164 13.7154 34.3182 13.5391C34.3175 12.866 34.0499 12.2207 33.574 11.7447C33.0982 11.2687 32.453 11.0009 31.78 11H28.22C27.8841 11.0015 27.5517 11.0693 27.242 11.1997C26.9324 11.33 26.6515 11.5203 26.4157 11.7595C26.1798 11.9988 25.9935 12.2823 25.8676 12.5938C25.7416 12.9052 25.6785 13.2385 25.6818 13.5745C25.6848 13.7408 25.6351 13.9038 25.5399 14.0401C25.4446 14.1765 25.3087 14.2792 25.1515 14.3336C24.1987 14.6289 23.2751 15.0111 22.3922 15.4754C22.2319 15.5539 22.0507 15.5796 21.8748 15.5485C21.699 15.5175 21.5375 15.4314 21.4137 15.3026C20.9301 14.8407 20.287 14.5829 19.6182 14.5829C18.9494 14.5829 18.3064 14.8407 17.8227 15.3026L15.307 17.8227C14.8346 18.2966 14.568 18.9376 14.5649 19.6067C14.5618 20.2758 14.8225 20.9191 15.2905 21.3973L15.3087 21.4163C15.4359 21.5404 15.5207 21.7015 15.5508 21.8766C15.5808 22.0518 15.5548 22.232 15.4762 22.3914C15.0176 23.2631 14.6387 24.1745 14.344 25.1144C14.2869 25.282 14.1781 25.4272 14.0334 25.5291C13.8886 25.6311 13.7153 25.6845 13.5382 25.6818C12.8652 25.6827 12.22 25.9506 11.7441 26.4266C11.2683 26.9026 11.0007 27.5479 11 28.2209V31.7791C11.0007 32.4521 11.2683 33.0974 11.7441 33.5734C12.22 34.0494 12.8652 34.3173 13.5382 34.3182C13.7155 34.3156 13.889 34.3692 14.0339 34.4713C14.1788 34.5734 14.2876 34.7187 14.3449 34.8865C14.6389 35.8258 15.0173 36.7366 15.4754 37.6078C15.5542 37.7672 15.5805 37.9475 15.5506 38.1228C15.5207 38.2981 15.436 38.4595 15.3087 38.5837L15.2914 38.6018C14.8228 39.0798 14.5616 39.7234 14.5645 40.3927C14.5675 41.0621 14.8342 41.7033 15.307 42.1773L17.8227 44.6939C18.3066 45.1564 18.9502 45.4145 19.6195 45.4145C20.2889 45.4145 20.9325 45.1564 21.4163 44.6939C21.5406 44.5671 21.7019 44.4827 21.877 44.453C22.0521 44.4232 22.2321 44.4495 22.3914 44.5281C23.2633 44.9864 24.175 45.3648 25.1153 45.6586C25.282 45.7159 25.4264 45.8242 25.5281 45.9682C25.6298 46.1123 25.6836 46.2846 25.6818 46.4609C25.6825 47.134 25.9501 47.7793 26.426 48.2553C26.9018 48.7313 27.547 48.9991 28.22 49H31.78C32.453 48.9991 33.0982 48.7313 33.574 48.2553C34.0499 47.7793 34.3175 47.134 34.3182 46.4609C34.3157 46.284 34.3691 46.1109 34.4708 45.9662C34.5726 45.8215 34.7174 45.7126 34.8847 45.6551C35.5177 45.4517 36.1378 45.21 36.7415 44.9314L35.5428 43.5807C35.1576 43.7387 34.7655 43.883 34.3709 44.0065C33.8504 44.1709 33.3965 44.4982 33.076 44.9401C32.7556 45.382 32.5855 45.9151 32.5909 46.4609C32.5907 46.676 32.5052 46.8822 32.3532 47.0344C32.2012 47.1866 31.995 47.2723 31.78 47.2727H28.22C28.005 47.2723 27.7988 47.1866 27.6468 47.0344C27.4948 46.8822 27.4093 46.676 27.4091 46.4609C27.4145 45.9151 27.2444 45.382 26.924 44.9401C26.6035 44.4982 26.1496 44.1709 25.6291 44.0065C24.7891 43.7436 23.9746 43.4054 23.1954 42.996C22.8335 42.8047 22.4302 42.7048 22.0209 42.705C21.6806 42.7061 21.344 42.7745 21.0302 42.9061C20.7165 43.0377 20.4318 43.23 20.1925 43.4719C20.0377 43.6194 19.8321 43.7017 19.6182 43.7017C19.4044 43.7017 19.1987 43.6194 19.0439 43.4719L16.5273 40.9561C16.3755 40.8035 16.2903 40.597 16.2903 40.3818C16.2903 40.1665 16.3755 39.9601 16.5273 39.8075C16.5337 39.8021 16.5395 39.796 16.5445 39.7893C16.9293 39.4056 17.1813 38.9089 17.2638 38.3718C17.3463 37.8347 17.255 37.2853 17.0031 36.8037C16.5935 36.025 16.2553 35.2107 15.9927 34.3709C15.8282 33.8504 15.5009 33.3965 15.059 33.076C14.6172 32.7556 14.084 32.5855 13.5382 32.5909C13.3231 32.5905 13.117 32.5047 12.965 32.3526C12.813 32.2004 12.7275 31.9942 12.7273 31.7791V28.2209C12.7275 28.0058 12.813 27.7996 12.965 27.6474C13.117 27.4953 13.3231 27.4095 13.5382 27.4091C14.084 27.4147 14.6171 27.2448 15.059 26.9245C15.5009 26.6042 15.8282 26.1504 15.9927 25.63C16.2559 24.7896 16.5947 23.9747 17.0049 23.1954C17.256 22.7141 17.347 22.1652 17.2647 21.6285C17.1824 21.0919 16.931 20.5955 16.5471 20.2115L16.5281 20.1925C16.3764 20.0399 16.2912 19.8335 16.2912 19.6182C16.2912 19.403 16.3764 19.1965 16.5281 19.0439L19.0439 16.5273C19.1984 16.3785 19.4046 16.2953 19.6191 16.2953C19.8336 16.2953 20.0398 16.3785 20.1943 16.5273C20.5779 16.9173 21.0768 17.1739 21.6172 17.2591C22.1577 17.3443 22.7112 17.2536 23.1963 17.0005C23.9855 16.5856 24.8112 16.2439 25.6628 15.9797C26.1784 15.8161 26.6272 15.4899 26.942 15.0499C27.2568 14.61 27.4206 14.0799 27.4091 13.5391C27.4093 13.324 27.4948 13.1178 27.6468 12.9656C27.7988 12.8134 28.005 12.7277 28.22 12.7273H31.78C31.995 12.7277 32.2012 12.8134 32.3532 12.9656C32.5052 13.1178 32.5907 13.324 32.5909 13.5391C32.5855 14.0849 32.7556 14.618 33.076 15.0599C33.3965 15.5018 33.8504 15.8291 34.3709 15.9935C35.2109 16.2564 36.0254 16.5946 36.8046 17.004C37.29 17.2573 37.8439 17.3477 38.3846 17.262C38.9253 17.1764 39.4242 16.9191 39.8075 16.5281C39.9623 16.3806 40.1679 16.2983 40.3818 16.2983C40.5956 16.2983 40.8013 16.3806 40.9561 16.5281L43.4727 19.0439C43.6245 19.1965 43.7097 19.403 43.7097 19.6182C43.7097 19.8335 43.6245 20.0399 43.4727 20.1925C43.4663 20.1979 43.4605 20.204 43.4555 20.2107C43.0707 20.5944 42.8187 21.0911 42.7362 21.6282C42.6537 22.1653 42.745 22.7147 42.9969 23.1963C43.4065 23.975 43.7447 24.7893 44.0073 25.6291C44.1718 26.1496 44.4991 26.6035 44.941 26.924C45.3828 27.2444 45.916 27.4145 46.4618 27.4091C46.6769 27.4095 46.883 27.4953 47.035 27.6474C47.187 27.7996 47.2725 28.0058 47.2727 28.2209V31.7791C47.2715 31.8884 47.2485 31.9963 47.2051 32.0966C47.1616 32.1968 47.0986 32.2874 47.0197 32.363C46.9408 32.4386 46.8476 32.4977 46.7456 32.5369C46.6435 32.576 46.5347 32.5944 46.4255 32.5909C45.8907 32.5899 45.3694 32.7585 44.9365 33.0724C44.5035 33.3864 44.1812 33.8295 44.016 34.338C43.8907 34.7448 43.7439 35.1464 43.5841 35.5428L44.9305 36.7364C45.2153 36.1223 45.4611 35.4909 45.6664 34.8459C45.7248 34.6842 45.8337 34.5457 45.9769 34.4507C46.1202 34.3557 46.2901 34.3092 46.4618 34.3182Z" fill="#282928"/>
</svg>
