<svg width="60" height="60" viewBox="0 0 60 60" fill="none" xmlns="http://www.w3.org/2000/svg">
<path d="M54.7392 6.01723C54.6552 5.63923 54.3602 5.34423 53.9812 5.25923C53.8902 5.23923 50.0242 4.45423 44.6282 5.83823C44.5822 5.83523 44.5412 5.81723 44.4932 5.82123C44.3092 5.83223 44.1502 5.90523 44.0072 6.00023C38.9012 7.44123 32.5542 10.8672 26.7362 18.5932C24.0182 18.3282 12.8852 18.1222 8.4862 31.7502C8.3452 32.1862 8.5182 32.6592 8.9042 32.9032C9.0682 33.0072 9.2532 33.0562 9.4372 33.0562C9.6862 33.0562 9.9342 32.9632 10.1252 32.7832C10.1772 32.7332 15.1062 28.1482 20.3882 29.4882C20.0242 30.2932 19.6632 31.1142 19.3112 31.9722C19.1592 32.3452 19.2452 32.7732 19.5302 33.0582L19.9112 33.4392L17.5522 35.7992C17.1612 36.1902 17.1612 36.8222 17.5522 37.2132L22.7852 42.4462C22.9802 42.6412 23.2362 42.7392 23.4922 42.7392C23.7482 42.7392 24.0042 42.6412 24.1992 42.4462L26.5592 40.0872L26.9402 40.4682C27.1312 40.6592 27.3872 40.7612 27.6472 40.7612C27.7752 40.7612 27.9042 40.7372 28.0262 40.6872C28.8852 40.3352 29.7062 39.9742 30.5112 39.6092C31.8482 44.8872 27.2642 49.8212 27.2142 49.8732C26.9012 50.2052 26.8512 50.7082 27.0942 51.0952C27.2822 51.3912 27.6042 51.5622 27.9412 51.5622C28.0432 51.5622 28.1462 51.5462 28.2482 51.5132C41.8792 47.1112 41.6712 35.9762 41.4052 33.2622C49.1292 27.4462 52.5542 21.1012 53.9962 15.9952C54.0922 15.8522 54.1662 15.6932 54.1772 15.5092C54.1802 15.4612 54.1622 15.4192 54.1582 15.3722C55.5452 9.97623 54.7602 6.10823 54.7392 6.01723ZM23.4932 40.3252L19.6742 36.5062L21.3252 34.8542L25.1452 38.6742L23.4932 40.3252ZM52.8972 7.10123C53.0612 8.28623 53.2522 10.9442 52.4782 14.3642C50.7612 14.0942 49.1702 13.2912 47.9352 12.0562C46.6972 10.8182 45.8962 9.23023 45.6322 7.52023C49.0562 6.74523 51.7162 6.93823 52.8972 7.10123ZM11.6492 29.2182C15.5632 21.2382 22.3042 20.4172 25.3762 20.4942C23.9532 22.5882 22.5732 24.9652 21.2602 27.6522C17.5042 26.5272 13.9922 27.8512 11.6492 29.2182ZM30.7802 48.3502C32.1472 46.0062 33.4722 42.4932 32.3472 38.7372C35.0342 37.4242 37.4112 36.0452 39.5042 34.6212C39.5812 37.6962 38.7582 44.4372 30.7802 48.3502ZM39.8632 31.9802C39.8132 32.0082 39.7702 32.0402 39.7262 32.0762C36.5662 34.3612 32.6792 36.5692 27.8832 38.5822L21.4172 32.1162C23.4272 27.3262 25.6322 23.4452 27.9142 20.2872C27.9552 20.2382 27.9922 20.1882 28.0232 20.1312C33.3232 12.8582 39.0262 9.52023 43.7002 8.04523C44.0612 10.0892 45.0352 11.9842 46.5222 13.4702C48.0052 14.9542 49.9042 15.9302 51.9552 16.2972C50.4802 20.9722 47.1412 26.6782 39.8632 31.9802Z" fill="#282928"/>
<path d="M35.322 17.6198C33.377 19.5658 33.377 22.7338 35.322 24.6808C36.296 25.6538 37.574 26.1398 38.852 26.1398C40.13 26.1398 41.41 25.6538 42.383 24.6808C42.383 24.6808 42.383 24.6808 42.383 24.6798C44.328 22.7338 44.328 19.5658 42.383 17.6188C40.437 15.6748 37.268 15.6728 35.322 17.6198ZM40.97 23.2658C39.802 24.4318 37.903 24.4318 36.737 23.2658C35.571 22.0988 35.571 20.1998 36.737 19.0328C37.32 18.4498 38.087 18.1578 38.853 18.1578C39.619 18.1578 40.386 18.4498 40.97 19.0318C42.135 20.1998 42.136 22.0988 40.97 23.2658Z" fill="#282928"/>
<path d="M11.3518 49.651C11.6078 49.651 11.8638 49.553 12.0588 49.358L18.4088 43.008C18.7998 42.617 18.7998 41.985 18.4088 41.594C18.0178 41.203 17.3858 41.203 16.9948 41.594L10.6448 47.944C10.2538 48.335 10.2538 48.967 10.6448 49.358C10.8398 49.553 11.0958 49.651 11.3518 49.651Z" fill="#282928"/>
<path d="M12.9729 54.9821C13.2289 54.9821 13.4849 54.8841 13.6799 54.6891L20.0299 48.3401C20.4209 47.9491 20.4209 47.3171 20.0299 46.9261C19.6389 46.5351 19.0069 46.5351 18.6159 46.9261L12.2659 53.2751C11.8749 53.6661 11.8749 54.2981 12.2659 54.6891C12.4609 54.8841 12.7169 54.9821 12.9729 54.9821Z" fill="#282928"/>
<path d="M5.30888 47.7369C5.50388 47.9319 5.75988 48.0299 6.01588 48.0299C6.27188 48.0299 6.52788 47.9319 6.72288 47.7369L13.0719 41.3869C13.4629 40.9959 13.4629 40.3639 13.0719 39.9729C12.6809 39.5819 12.0489 39.5819 11.6579 39.9729L5.30888 46.3229C4.91787 46.7139 4.91787 47.3459 5.30888 47.7369Z" fill="#282928"/>
</svg>
