<svg width="60" height="60" viewBox="0 0 60 60" fill="none" xmlns="http://www.w3.org/2000/svg">
<path d="M44.0502 40.217C44.1843 40.0829 44.2728 39.9101 44.3032 39.723C44.3336 39.5359 44.3044 39.3439 44.2196 39.1743L42.8939 36.5224C43.221 35.8716 43.4984 35.1969 43.724 34.5043L46.5429 33.5649C46.7228 33.505 46.8792 33.39 46.99 33.2362C47.1009 33.0824 47.1605 32.8976 47.1605 32.708V30.8564C50.1883 30.6259 53.0089 29.2308 55.0296 26.9643C57.0504 24.6978 58.1141 21.7363 57.9972 18.702C57.8802 15.6678 56.5918 12.7969 54.4026 10.6926C52.2134 8.58836 49.2938 7.4145 46.2573 7.41769H26.7602L27.928 6.24982L26.6508 4.97266L23.9412 7.68233C23.7718 7.85171 23.6767 8.08141 23.6767 8.32091C23.6767 8.56042 23.7718 8.79011 23.9412 8.95949L26.6508 11.6692L27.928 10.392L26.7602 9.22414H46.2573C48.8148 9.22206 51.2746 10.2066 53.1245 11.9726C54.9744 13.7387 56.0718 16.1503 56.1882 18.7052C56.3046 21.2601 55.431 23.7614 53.7494 25.6884C52.0677 27.6154 49.7077 28.8195 47.1605 29.0499V27.2887C47.1605 27.0991 47.1009 26.9143 46.9901 26.7605C46.8793 26.6067 46.7229 26.4917 46.543 26.4317L43.7241 25.4924C43.4986 24.7997 43.2211 24.1251 42.894 23.4742L44.2197 20.8223C44.3045 20.6528 44.3337 20.4608 44.3033 20.2737C44.2729 20.0865 44.1844 19.9137 44.0504 19.7797L40.2179 15.9476C40.0837 15.8138 39.9109 15.7254 39.7239 15.695C39.5368 15.6646 39.3449 15.6938 39.1753 15.7783L36.5238 17.104C35.8731 16.7763 35.1984 16.4986 34.5056 16.2731L33.5654 13.4545C33.5056 13.2747 33.3906 13.1182 33.2369 13.0074C33.0832 12.8966 32.8984 12.837 32.7089 12.837H27.2895C27.1 12.837 26.9153 12.8966 26.7615 13.0074C26.6078 13.1182 26.4929 13.2747 26.4331 13.4545L25.4928 16.2731C24.8 16.4986 24.1254 16.7763 23.4746 17.104L20.8232 15.7783C20.6537 15.6935 20.4617 15.6643 20.2746 15.6947C20.0874 15.725 19.9146 15.8136 19.7806 15.9476L15.9481 19.7797C15.814 19.9137 15.7255 20.0865 15.6951 20.2737C15.6647 20.4608 15.6939 20.6528 15.7787 20.8223L17.1044 23.4742C16.7773 24.1251 16.4999 24.7997 16.2745 25.4924L13.4554 26.4317C13.2756 26.4917 13.1192 26.6067 13.0083 26.7605C12.8975 26.9143 12.8379 27.0991 12.8379 27.2887V29.1408C9.81158 29.3732 6.99294 30.7689 4.97374 33.0351C2.95454 35.3013 1.89183 38.2616 2.00871 41.2946C2.12559 44.3276 3.41298 47.1974 5.60059 49.3015C7.7882 51.4055 10.7059 52.5802 13.7411 52.579H33.2381L32.0702 53.7469L33.3474 55.024L36.057 52.3143C36.2264 52.145 36.3215 51.9153 36.3215 51.6758C36.3215 51.4363 36.2264 51.2066 36.057 51.0372L33.3474 48.3275L32.0702 49.6047L33.2381 50.7725H13.7411C11.1836 50.7746 8.72379 49.7901 6.87391 48.024C5.02403 46.258 3.92664 43.8464 3.81024 41.2915C3.69385 38.7366 4.56741 36.2352 6.24904 34.3083C7.93067 32.3813 10.2908 31.1772 12.8379 30.9467V32.708C12.8379 32.8976 12.8975 33.0823 13.0083 33.2361C13.1192 33.3899 13.2756 33.505 13.4554 33.5649L16.2745 34.5043C16.4999 35.197 16.7773 35.8716 17.1044 36.5224L15.7787 39.1743C15.6939 39.3439 15.6647 39.5359 15.6951 39.723C15.7255 39.9101 15.814 40.0829 15.9481 40.217L19.7806 44.049C19.9147 44.1829 20.0875 44.2713 20.2746 44.3017C20.4617 44.332 20.6536 44.3029 20.8232 44.2184L23.4746 42.8927C24.1254 43.2201 24.8 43.4977 25.4928 43.7231L26.4331 46.5422C26.4929 46.722 26.6078 46.8784 26.7615 46.9893C26.9153 47.1001 27.1 47.1597 27.2895 47.1596H32.7089C32.8984 47.1597 33.0832 47.1001 33.2369 46.9893C33.3906 46.8784 33.5056 46.722 33.5654 46.5422L34.5056 43.7231C35.1984 43.4977 35.873 43.2201 36.5238 42.8927L39.1753 44.2184C39.345 44.3025 39.5368 44.3314 39.7238 44.301C39.9107 44.2707 40.0835 44.1826 40.2179 44.049L44.0502 40.217ZM39.401 42.3114L36.9171 41.0695C36.7864 41.0042 36.6418 40.9716 36.4957 40.9744C36.3496 40.9773 36.2064 41.0155 36.0783 41.0858C35.2735 41.5254 34.4232 41.8758 33.5423 42.1306C33.4023 42.1715 33.2743 42.2458 33.1692 42.347C33.0641 42.4482 32.9851 42.5734 32.939 42.7118L32.0579 45.3532H27.9404L27.0598 42.7118C27.0136 42.5734 26.9346 42.4482 26.8296 42.347C26.7245 42.2458 26.5965 42.1715 26.4564 42.1306C25.5756 41.8758 24.7252 41.5254 23.9205 41.0858C23.7924 41.0154 23.6492 40.9772 23.5031 40.9744C23.357 40.9715 23.2124 41.0042 23.0817 41.0695L20.5979 42.3114L17.6862 39.4001L18.9281 36.9163C18.9933 36.7856 19.0258 36.6411 19.0231 36.4951C19.0203 36.3492 18.9823 36.206 18.9122 36.0779C18.4731 35.2729 18.1229 34.4224 17.8679 33.5416C17.8271 33.4014 17.7529 33.2732 17.6516 33.1679C17.5504 33.0627 17.4252 32.9836 17.2866 32.9373L14.6447 32.0567V27.9397L17.2866 27.059C17.4252 27.0128 17.5504 26.9336 17.6516 26.8284C17.7529 26.7232 17.8271 26.595 17.8679 26.4548C18.1229 25.5739 18.4731 24.7234 18.9122 23.9184C18.9823 23.7903 19.0203 23.6472 19.0231 23.5012C19.0258 23.3552 18.9933 23.2107 18.9281 23.0801L17.6862 20.5962L20.5979 17.6849L23.0817 18.9268C23.2125 18.992 23.3571 19.0245 23.5031 19.0217C23.6492 19.0189 23.7924 18.9807 23.9205 18.9106C24.7252 18.4709 25.5756 18.1205 26.4564 17.8658C26.5965 17.8248 26.7245 17.7505 26.8296 17.6493C26.9346 17.5481 27.0136 17.4229 27.0598 17.2845L27.9404 14.6426H32.0579L32.9385 17.2845C32.9847 17.4229 33.0637 17.5481 33.1687 17.6493C33.2738 17.7505 33.4019 17.8248 33.5419 17.8658C34.4228 18.1205 35.2731 18.4709 36.0778 18.9106C36.206 18.9807 36.3492 19.0189 36.4952 19.0217C36.6413 19.0245 36.7859 18.992 36.9167 18.9268L39.4006 17.6849L42.3122 20.5962L41.0703 23.0801C41.0051 23.2107 40.9725 23.3552 40.9753 23.5012C40.978 23.6471 41.0161 23.7903 41.0861 23.9184C41.5253 24.7234 41.8755 25.5739 42.1304 26.4548C42.1713 26.595 42.2455 26.7232 42.3467 26.8284C42.448 26.9337 42.5732 27.0128 42.7118 27.059L45.3537 27.9397V32.057L42.7118 32.9377C42.5732 32.9839 42.448 33.063 42.3467 33.1682C42.2455 33.2735 42.1713 33.4017 42.1304 33.5419C41.8755 34.4228 41.5253 35.2733 41.0861 36.0783C41.0161 36.2064 40.978 36.3495 40.9753 36.4955C40.9725 36.6415 41.0051 36.7859 41.0703 36.9166L42.3122 39.4005L39.401 42.3114Z" fill="#282928"/>
<path d="M30.0001 21.8711C28.3924 21.8711 26.8207 22.3479 25.4839 23.2411C24.1471 24.1343 23.1052 25.4039 22.4899 26.8893C21.8746 28.3747 21.7136 30.0091 22.0273 31.586C22.341 33.1629 23.1152 34.6114 24.252 35.7482C25.3889 36.8851 26.8374 37.6593 28.4142 37.973C29.9911 38.2866 31.6256 38.1256 33.111 37.5104C34.5964 36.8951 35.8659 35.8532 36.7592 34.5164C37.6524 33.1796 38.1292 31.6079 38.1292 30.0001C38.1267 27.8449 37.2695 25.7787 35.7456 24.2547C34.2216 22.7307 32.1553 21.8735 30.0001 21.8711ZM30.0001 36.3227C28.7496 36.3227 27.5272 35.9519 26.4875 35.2572C25.4477 34.5624 24.6374 33.575 24.1588 32.4197C23.6803 31.2644 23.5551 29.9931 23.799 28.7667C24.043 27.5402 24.6452 26.4136 25.5294 25.5294C26.4136 24.6452 27.5402 24.043 28.7667 23.799C29.9931 23.5551 31.2644 23.6803 32.4197 24.1588C33.575 24.6374 34.5624 25.4477 35.2572 26.4875C35.9519 27.5272 36.3227 28.7496 36.3227 30.0001C36.3208 31.6764 35.654 33.2834 34.4687 34.4687C33.2834 35.654 31.6764 36.3208 30.0001 36.3227Z" fill="#282928"/>
<path d="M2.90323 14.6452H19.1613C19.4008 14.6452 19.6306 14.55 19.8 14.3806C19.9694 14.2112 20.0645 13.9815 20.0645 13.7419V2.90323C20.0645 2.66368 19.9694 2.43394 19.8 2.26455C19.6306 2.09516 19.4008 2 19.1613 2H2.90323C2.66368 2 2.43394 2.09516 2.26455 2.26455C2.09516 2.43394 2 2.66368 2 2.90323V13.7419C2 13.9815 2.09516 14.2112 2.26455 14.3806C2.43394 14.55 2.66368 14.6452 2.90323 14.6452ZM3.80645 3.80645H18.2581V12.8387H3.80645V3.80645Z" fill="#282928"/>
<path d="M57.0988 45.3555H40.8407C40.6012 45.3555 40.3714 45.4506 40.202 45.62C40.0327 45.7894 39.9375 46.0191 39.9375 46.2587V57.0974C39.9375 57.337 40.0327 57.5667 40.202 57.7361C40.3714 57.9055 40.6012 58.0006 40.8407 58.0006H57.0988C57.3383 58.0006 57.5681 57.9055 57.7375 57.7361C57.9069 57.5667 58.002 57.337 58.002 57.0974V46.2587C58.002 46.0191 57.9069 45.7894 57.7375 45.62C57.5681 45.4506 57.3383 45.3555 57.0988 45.3555ZM56.1956 56.1942H41.744V47.1619H56.1956V56.1942Z" fill="#282928"/>
<path d="M5.61328 5.61328H16.452V7.41973H5.61328V5.61328Z" fill="#282928"/>
<path d="M5.61328 9.22656H16.452V11.033H5.61328V9.22656Z" fill="#282928"/>
<path d="M43.5469 48.9688H54.3856V50.7752H43.5469V48.9688Z" fill="#282928"/>
<path d="M43.5469 52.582H54.3856V54.3885H43.5469V52.582Z" fill="#282928"/>
<path d="M29.0944 31.4322L27.0233 29.3611L25.7461 30.6383L28.4558 33.348C28.6252 33.5173 28.8548 33.6124 29.0944 33.6124C29.3339 33.6124 29.5636 33.5173 29.7329 33.348L34.2491 28.8319L32.9719 27.5547L29.0944 31.4322Z" fill="#282928"/>
</svg>
