<svg width="60" height="60" viewBox="0 0 60 60" fill="none" xmlns="http://www.w3.org/2000/svg">
<path d="M29.9973 12C20.0692 12 12 20.068 12 30C12 39.9267 20.0692 48 29.9973 48C39.9255 48 48 39.9267 48 30C48 20.068 39.9255 12 29.9973 12ZM29.9973 46C21.1467 46 13.9896 38.8493 13.9896 30C13.9896 21.1507 21.1467 14 29.9973 14C38.848 14 45.9997 21.1507 45.9997 30C45.9997 38.844 38.848 46 29.9973 46Z" fill="#282928"/>
<path d="M57.516 24.8173C57.428 24.344 57.016 23.9947 56.532 23.9947H53.2347C52.6827 21.86 51.7973 19.7133 50.6827 17.8067L53 15.484C53.344 15.1453 53.396 14.6093 53.12 14.208C51.156 11.328 48.672 8.844 45.792 6.88C45.396 6.60933 44.86 6.656 44.5213 6.99467L42.2867 9.23467C40.3747 8.11467 38.1467 7.32267 36 6.76533V3.46933C36 2.984 35.656 2.57333 35.1827 2.484C33.4733 2.16133 31.7347 2 29.9947 2C28.2507 2.00533 26.5213 2.17733 24.812 2.51067C24.3387 2.59867 24 3.01067 24 3.48933V6.76533C21.864 7.328 19.7293 8.21333 17.828 9.33333L15.4787 6.99467C15.14 6.656 14.6093 6.60933 14.208 6.88C11.3333 8.844 8.84933 11.328 6.88 14.208C6.60933 14.604 6.66133 15.14 7 15.4787L9.33333 17.8067C8.21333 19.7133 7.33333 21.86 6.776 23.9947H3.484C3.00533 23.9947 2.59333 24.3387 2.5 24.8067C2.172 26.516 2.00533 28.2547 2 30C2.00533 31.74 2.172 33.4787 2.5 35.188C2.59333 35.6573 3.00533 36 3.484 36H6.776C7.33333 38.136 8.21333 40.2653 9.33333 42.172L7 44.516C6.66133 44.86 6.60933 45.3907 6.88 45.7867C8.84933 48.6667 11.3333 51.156 14.208 53.1253C14.6093 53.396 15.14 53.3493 15.4787 53.0053L17.828 50.6667C19.7293 51.7867 21.864 52.672 24 53.2347V56.516C24 56.9947 24.3387 57.4067 24.812 57.4947C26.5213 57.8227 28.2507 58 29.9947 58C31.7347 57.9893 33.4787 57.8227 35.188 57.4947C35.6613 57.4067 36 56.9947 36 56.516V53.2347C38.136 52.672 40.2707 51.7867 42.172 50.6667L44.5213 53.0053C44.86 53.3493 45.396 53.396 45.792 53.1253C48.672 51.156 51.156 48.6667 53.12 45.7867C53.3907 45.3907 53.3387 44.86 53 44.516L50.6613 42.172C51.7813 40.2653 52.6773 38.1507 53.2347 36.016L56.516 36C56.9947 36 57.4067 35.656 57.5 35.188C57.828 33.48 57.9947 31.7453 58 30.0053C58 28.8387 57.9213 26.86 57.516 24.8173ZM55.6147 34H52.448C51.9787 33.9947 51.568 34.3227 51.4693 34.7813C50.9067 37.2707 49.928 39.6453 48.5573 41.7973C48.3067 42.188 48.364 42.704 48.6933 43.0373L50.9907 45.34C49.4067 47.512 47.5067 49.408 45.3347 50.9907L43.0373 48.688C42.704 48.36 42.1827 48.3027 41.792 48.5573C39.6413 49.9267 37.2707 50.9187 34.7867 51.4747C34.328 51.5733 34.0053 51.98 34 52.448V55.672C32.6773 55.8853 31.344 55.9893 30 55.9947C28.656 55.9893 27.328 55.8853 26.0053 55.672L26 52.448C26 51.9787 25.672 51.5733 25.2187 51.4747C22.7293 50.9187 20.364 49.928 18.2133 48.5573C17.8173 48.3027 17.2973 48.36 16.964 48.688L14.6667 50.9893C12.5 49.4053 10.5933 47.5107 9.01067 45.3387L11.312 43.036C11.64 42.7027 11.6933 42.1867 11.4427 41.796C10.0733 39.6453 9.09333 37.2693 8.536 34.78C8.432 34.3227 8.02133 33.9947 7.552 34H4.38533C4.17733 32.6773 4.00533 31.3493 4 30.0053C4.00533 28.6613 4.12 27.3227 4.33333 25.9947H7.552C8.02133 26 8.432 25.6773 8.536 25.224C9.09333 22.7347 10.0733 20.36 11.4427 18.208C11.6973 17.812 11.64 17.292 11.312 16.964L9.01067 14.656C10.5933 12.484 12.4787 10.588 14.6507 9.00533L16.964 11.3067C17.2973 11.64 17.8173 11.6973 18.2133 11.448C20.364 10.0787 22.7293 9.088 25.2187 8.53067C25.672 8.42667 26 8.02667 26 7.55733V4.39067C27.328 4.17733 28.656 4.00533 30 4C31.344 4 32.6773 4.16667 34 4.37467V7.54667C34 8.02133 34.3227 8.42667 34.7813 8.53067C37.276 9.084 39.6507 10.0627 41.8027 11.432C42.1987 11.6827 42.7147 11.6253 43.048 11.2973L45.236 9.10933C47.408 10.6933 49.3093 12.5933 50.892 14.76L48.7093 16.9533C48.376 17.2867 48.3187 17.8027 48.5693 18.1973C49.9333 20.3493 50.924 22.724 51.476 25.2133C51.58 25.672 51.9813 25.9947 52.4493 25.9947H55.6267C55.828 27.3227 56 28.656 56 30C55.9947 31.344 55.828 32.672 55.6147 34Z" fill="#282928"/>
<path d="M29.9453 29.1159H29.9973C30.5599 29.1159 30.9918 29.5525 30.9918 30.1265C30.9918 30.6951 30.5599 31.137 29.9973 31.137C29.4348 31.137 28.9922 30.6951 28.9922 30.1265C28.9922 29.574 29.4041 29.1429 29.9453 29.1159ZM29.9973 18C23.3841 18 18 23.4367 18 30.1265C18 31.7945 18.3333 33.3952 18.9425 34.8477C19.5517 36.2948 20.4261 37.6058 21.5099 38.6999C21.9005 39.1 22.535 39.1 22.9256 38.6999C23.3162 38.3051 23.3162 37.6678 22.9256 37.2676C22.0204 36.3568 21.2913 35.2735 20.786 34.0622C20.2808 32.8576 19.9996 31.521 19.9996 30.1265C19.9996 24.5321 24.4626 20.0265 29.9973 20.0265C32.4035 20.0265 34.6056 20.874 36.3293 22.2955L31.289 27.3953C30.8985 27.2053 30.4612 27.0948 29.9973 27.0948C28.3524 27.0948 27.0033 28.4638 27.0033 30.1265C27.0033 31.7837 28.3524 33.1581 29.9973 33.1581C31.6423 33.1581 32.9967 31.7837 32.9967 30.1265C32.9967 29.6576 32.8874 29.221 32.6994 28.8262C32.7047 28.8208 32.7047 28.8208 32.7047 28.8208L37.7463 23.7264C39.1513 25.4686 39.9991 27.6944 39.9991 30.1265C39.9991 31.521 39.7125 32.8576 39.2073 34.0635C38.7021 35.2735 37.9729 36.3581 37.0678 37.2689C36.6772 37.6691 36.6772 38.3064 37.0678 38.7012C37.4583 39.096 38.0889 39.096 38.4795 38.7012C39.5632 37.6058 40.4483 36.2961 41.0522 34.849C41.6614 33.3966 42 31.7959 42 30.1278C42 27.1434 40.9269 24.4176 39.1566 22.3009L39.7032 21.7484C40.0938 21.3536 40.0938 20.7123 39.7032 20.3175C39.3126 19.9227 38.6767 19.9227 38.2862 20.3175L37.7343 20.8699C35.6467 19.0846 32.9447 18 29.9973 18Z" fill="#282928"/>
</svg>
