<svg width="60" height="60" viewBox="0 0 60 60" fill="none" xmlns="http://www.w3.org/2000/svg">
<path d="M30 42.5C33.0236 42.5 35.5458 44.6471 36.1249 47.4998L55 47.5V50L36.1247 50.0015C35.545 52.8535 33.0232 55 30 55C26.9768 55 24.455 52.8535 23.8753 50.0015L5 50V47.5L23.8751 47.4998C24.4543 44.6471 26.9764 42.5 30 42.5ZM30 45C27.9289 45 26.25 46.6789 26.25 48.75C26.25 50.8211 27.9289 52.5 30 52.5C32.0711 52.5 33.75 50.8211 33.75 48.75C33.75 46.6789 32.0711 45 30 45ZM42.5 23.75C45.5236 23.75 48.0458 25.8971 48.6249 28.7498L55 28.75V31.25L48.6247 31.2515C48.045 34.1035 45.5232 36.25 42.5 36.25C39.4768 36.25 36.955 34.1035 36.3753 31.2515L5 31.25V28.75L36.3751 28.7498C36.9543 25.8971 39.4764 23.75 42.5 23.75ZM42.5 26.25C40.4289 26.25 38.75 27.9289 38.75 30C38.75 32.0711 40.4289 33.75 42.5 33.75C44.5711 33.75 46.25 32.0711 46.25 30C46.25 27.9289 44.5711 26.25 42.5 26.25ZM17.5 5C20.5236 5 23.0458 7.14708 23.6249 9.99977L55 10V12.5L23.6247 12.5015C23.045 15.3535 20.5232 17.5 17.5 17.5C14.4768 17.5 11.955 15.3535 11.3753 12.5015L5 12.5V10L11.3751 9.99977C11.9543 7.14708 14.4764 5 17.5 5ZM17.5 7.5C15.4289 7.5 13.75 9.17893 13.75 11.25C13.75 13.3211 15.4289 15 17.5 15C19.5711 15 21.25 13.3211 21.25 11.25C21.25 9.17893 19.5711 7.5 17.5 7.5Z" fill="#282928"/>
</svg>
