<svg width="60" height="60" viewBox="0 0 60 60" fill="none" xmlns="http://www.w3.org/2000/svg">
<rect width="60" height="60" rx="30" fill="#FDBC33"/>
<path d="M45.0339 29.0918C43.4392 29.096 41.6987 28.5205 40.7056 27.3594C39.7071 28.5233 37.9702 29.103 36.3717 29.0918C36.1957 29.0918 36.0198 29.0863 35.8438 29.0698V33.9537C35.8493 35.3783 36.3423 36.7582 37.2408 37.8638C38.1393 38.9694 39.3892 39.7342 40.7826 40.0309C42.1408 39.7018 43.3495 38.9271 44.2158 37.8305C45.0821 36.7339 45.556 35.3787 45.5619 33.9812V29.0698C45.3804 29.0863 45.2044 29.0918 45.0339 29.0918ZM44.1265 32.2157L40.0841 35.6201C39.9803 35.7059 39.8488 35.751 39.7142 35.7469C39.5796 35.7429 39.4511 35.69 39.3526 35.5981L37.2572 33.6347C37.1507 33.5348 37.0883 33.3966 37.0837 33.2507C37.079 33.1048 37.1326 32.9629 37.2325 32.8565C37.3324 32.75 37.4705 32.6875 37.6165 32.6829C37.7624 32.6783 37.9042 32.7318 38.0107 32.8317L39.7486 34.4652L43.417 31.3743C43.529 31.2838 43.672 31.2408 43.8153 31.2545C43.9586 31.2682 44.0909 31.3376 44.1837 31.4476C44.2765 31.5577 44.3225 31.6998 44.3118 31.8434C44.3011 31.9869 44.2346 32.1206 44.1265 32.2157Z" fill="#282928"/>
<path d="M34.7435 33.9539V28.4541C34.7452 28.3583 34.7714 28.2646 34.8195 28.1818C34.8676 28.0991 34.9361 28.03 35.0185 27.9811C35.1343 27.9125 35.2714 27.889 35.4035 27.9151C37.1788 28.2052 39.2542 27.7 40.1498 26.2542L40.1498 17.9439C40.1487 17.6773 40.0423 17.422 39.8538 17.2334C39.6653 17.0449 39.4099 16.9386 39.1433 16.9375H20.444C20.1774 16.9386 19.922 17.0449 19.7335 17.2334C19.5449 17.422 19.4386 17.6773 19.4375 17.9439V43.056C19.4386 43.3226 19.5449 43.578 19.7335 43.7665C19.922 43.9551 20.1774 44.0614 20.444 44.0625H39.1433C39.4099 44.0614 39.6653 43.9551 39.8538 43.7665C40.0423 43.578 40.1487 43.3226 40.1498 43.056V41.0101C38.6012 40.5867 37.234 39.6674 36.2576 38.393C35.2812 37.1186 34.7493 35.5593 34.7435 33.9539ZM25.4378 23.8287C25.4382 23.683 25.4963 23.5434 25.5993 23.4403C25.7024 23.3373 25.842 23.2792 25.9878 23.2788H28.0007V21.3428C28.0011 21.1971 28.0592 21.0574 28.1623 20.9544C28.2653 20.8513 28.4049 20.7933 28.5507 20.7928H31.0366C31.1089 20.7926 31.1805 20.8066 31.2474 20.8342C31.3142 20.8617 31.3749 20.9022 31.4261 20.9534C31.4772 21.0045 31.5177 21.0652 31.5452 21.132C31.5728 21.1989 31.5868 21.2705 31.5866 21.3428V23.2788H33.605C33.7507 23.2792 33.8904 23.3373 33.9934 23.4403C34.0965 23.5434 34.1546 23.683 34.155 23.8287V26.3696C34.1546 26.5154 34.0965 26.655 33.9934 26.7581C33.8904 26.8611 33.7507 26.9192 33.605 26.9196H31.5866V28.8555C31.5868 28.9278 31.5728 28.9995 31.5452 29.0663C31.5177 29.1332 31.4772 29.1939 31.4261 29.245C31.3749 29.2961 31.3142 29.3366 31.2474 29.3642C31.1805 29.3917 31.1089 29.4058 31.0366 29.4055H28.5507C28.4049 29.4051 28.2653 29.347 28.1623 29.244C28.0592 29.1409 28.0011 29.0013 28.0007 28.8555V26.9196H25.9878C25.842 26.9192 25.7024 26.8611 25.5993 26.7581C25.4963 26.655 25.4382 26.5154 25.4378 26.3696V23.8287ZM22.0169 31.3305H33.781C33.8534 31.3303 33.9251 31.3443 33.992 31.3719C34.0589 31.3994 34.1197 31.4399 34.1709 31.491C34.2222 31.5421 34.2629 31.6028 34.2906 31.6696C34.3183 31.7364 34.3326 31.8081 34.3326 31.8805C34.3326 31.9528 34.3183 32.0245 34.2906 32.0913C34.2629 32.1581 34.2222 32.2188 34.1709 32.2699C34.1197 32.321 34.0589 32.3615 33.992 32.389C33.9251 32.4166 33.8534 32.4307 33.781 32.4304H22.0169C21.8728 32.4278 21.7355 32.3686 21.6346 32.2658C21.5336 32.1629 21.477 32.0246 21.477 31.8805C21.477 31.7363 21.5336 31.598 21.6346 31.4951C21.7355 31.3923 21.8728 31.3331 22.0169 31.3305ZM22.0169 35.2188H33.66C33.8058 35.2188 33.9457 35.2768 34.0489 35.3799C34.152 35.4831 34.21 35.6229 34.21 35.7688C34.21 35.9147 34.152 36.0545 34.0489 36.1577C33.9457 36.2608 33.8058 36.3188 33.66 36.3188H22.0169C21.8728 36.3161 21.7356 36.2569 21.6346 36.1541C21.5337 36.0512 21.4772 35.9129 21.4772 35.7688C21.4772 35.6247 21.5337 35.4864 21.6346 35.3835C21.7356 35.2807 21.8728 35.2215 22.0169 35.2188ZM34.8425 40.2071H22.0169C21.8728 40.2044 21.7356 40.1453 21.6346 40.0424C21.5337 39.9396 21.4772 39.8012 21.4772 39.6571C21.4772 39.513 21.5337 39.3747 21.6347 39.2718C21.7356 39.169 21.8729 39.1099 22.0169 39.1072H34.8425C34.9868 39.1094 35.1245 39.1684 35.2258 39.2713C35.3271 39.3742 35.3839 39.5128 35.3839 39.6572C35.3839 39.8015 35.3271 39.9401 35.2258 40.043C35.1245 40.1459 34.9868 40.2049 34.8425 40.2071Z" fill="#282928"/>
<path d="M40.2101 26.1484C40.1832 26.1831 40.1639 26.2231 40.1535 26.2657C40.1431 26.3084 40.1417 26.3527 40.1495 26.3959C40.15 26.3098 40.1707 26.225 40.2101 26.1484Z" fill="#282928"/>
</svg>
