<svg width="60" height="60" viewBox="0 0 60 60" fill="none" xmlns="http://www.w3.org/2000/svg">
<path d="M41.1869 28H9.81304C7.70552 28 6 29.7162 6 31.8368V55.1633C6 57.2839 7.70552 59 9.81304 59H41.1869C43.2835 59 45 57.2839 45 55.1633V31.8368C45 29.7162 43.2836 28 41.1869 28ZM12.5941 40.7563C12.5941 37.6301 15.1036 35.0832 18.1997 35.0832C25.6129 35.3545 25.621 46.1529 18.1996 46.4186C15.1036 46.4186 12.5941 43.8826 12.5941 40.7563ZM32.4635 50.7254C28.3859 54.2632 22.4652 54.2707 18.3953 50.7254C17.939 50.3318 17.8847 49.6432 18.2758 49.1841C18.6669 48.7359 19.3513 48.6812 19.8075 49.0748C23.0666 51.8949 27.7922 51.8949 31.0404 49.0748C32.1224 48.1511 33.524 49.7832 32.4635 50.7254ZM32.6591 46.4186C29.563 46.4186 27.0535 43.8826 27.0535 40.7563C27.3153 33.2532 37.9906 33.2439 38.2538 40.7564C38.2538 43.8826 35.7443 46.4186 32.6591 46.4186Z" fill="#282928"/>
<path d="M0 43.4945C0 46.3359 1.62189 48.7933 4 50V37C1.62189 38.1958 0 40.6532 0 43.4945Z" fill="#282928"/>
<path d="M47 37V50C52.3343 47.4517 52.3323 39.5468 47 37Z" fill="#282928"/>
<path d="M23.9509 24.0753V26H26.0599V24.0753C30.5168 22.8131 29.6995 16.0519 25.0053 16C20.3043 16.0544 19.4733 22.8133 23.9509 24.0753Z" fill="#282928"/>
<path d="M21 41.0049C20.8728 36.9973 15.1205 36.9994 15 41.005C15.1237 44.9983 20.8707 44.9984 21 41.0049Z" fill="#282928"/>
<path d="M32.502 38C27.8378 38.0987 27.8275 43.8996 32.5021 44C37.1722 43.8746 37.1597 38.1225 32.502 38Z" fill="#282928"/>
<path d="M56.3806 1.00001H35.6199C33.6223 1.00001 32.0005 2.65513 32.0005 4.69385V24.9058C31.9717 25.8566 33.184 26.372 33.8371 25.684C33.8371 25.6841 37.3384 22.1108 37.3384 22.1108H56.3806C58.3782 22.1108 60 20.4447 60 18.417V4.69384C60 2.65511 58.3782 1.00001 56.3806 1.00001ZM38.6486 7.20394H41.3659C42.7774 7.23087 42.7772 9.37628 41.3659 9.39613H38.6486C37.2387 9.37642 37.2359 7.23103 38.6486 7.20394ZM53.3519 15.896H38.6486C37.2424 15.8698 37.2341 13.7316 38.6487 13.7038C38.6486 13.7038 53.3519 13.7038 53.3519 13.7038C54.7581 13.7299 54.7664 15.868 53.3519 15.896ZM53.3519 9.39613H46.94C46.3493 9.39613 45.866 8.91385 45.866 8.30004C45.866 7.69713 46.3493 7.20394 46.94 7.20394H53.3519C54.7622 7.23051 54.7641 9.37616 53.3519 9.39613Z" fill="#282928"/>
</svg>
