<svg width="60" height="60" viewBox="0 0 60 60" fill="none" xmlns="http://www.w3.org/2000/svg">
<path d="M40.3117 14.8346C40.3117 14.3668 40.6915 13.9875 41.1599 13.9875H46.0352C46.5036 13.9875 46.8833 14.3668 46.8833 14.8346C46.8833 15.3024 46.5036 15.6816 46.0352 15.6816H41.1599C40.6914 15.6816 40.3117 15.3025 40.3117 14.8346ZM57 19.6479V27.4545C57 30.5757 54.4577 33.1148 51.3326 33.1148H38.6697L37.2634 35.8249C36.9534 36.4224 36.3661 36.7791 35.6922 36.7791H20.7024C20.2415 36.7791 19.8234 36.5444 19.5839 36.151C19.3446 35.7577 19.3282 35.2789 19.5403 34.8702L20.451 33.1148H8.66739C6.47767 33.1148 4.69622 34.8941 4.69622 37.0811V44.8877C4.69622 47.0747 6.47767 48.8539 8.66739 48.8539H10.1378L11.544 46.1439C11.8541 45.5464 12.4414 45.1897 13.1152 45.1897H28.105C28.5657 45.1897 28.9838 45.4244 29.2232 45.8177C29.4627 46.2111 29.4792 46.6898 29.2671 47.0984L28.3563 48.8539H36.3306C36.7524 45.2272 39.8452 42.4021 43.5878 42.4021C47.6174 42.4021 50.8957 45.6764 50.8957 49.701C50.8957 53.7256 47.6174 57 43.5878 57C39.8452 57 36.7524 54.175 36.3306 50.5482H27.4772L26.0709 53.2582C25.7608 53.8557 25.1735 54.2124 24.4997 54.2124H9.50998C9.04904 54.2124 8.63092 53.9776 8.39154 53.5841C8.15227 53.1911 8.13584 52.7125 8.34776 52.3039L9.25873 50.5482H8.66739C5.54232 50.5482 3 48.009 3 44.8878V37.0812C3 33.96 5.54232 31.4208 8.66739 31.4208H21.3302L22.7364 28.7108C23.0465 28.1133 23.6339 27.7566 24.3077 27.7566H39.2975C39.7584 27.7566 40.1764 27.9913 40.4158 28.3844C40.6553 28.778 40.6717 29.2567 40.4597 29.6653L39.5489 31.4208H51.3327C53.5224 31.4208 55.3039 29.6416 55.3039 27.4546V19.648C55.3039 17.461 53.5224 15.6817 51.3327 15.6817H49.8623L48.456 18.3918C48.1462 18.9893 47.5587 19.346 46.8848 19.346H31.8949C31.4339 19.346 31.0158 19.1112 30.7764 18.7177C30.5372 18.3246 30.5207 17.8458 30.7328 17.4372L31.6437 15.6816H26.6987V16.6681C26.6987 17.1359 26.319 17.5152 25.8506 17.5152H24.6797C24.4544 18.3432 24.1258 19.135 23.6978 19.881L24.5263 20.7085C24.6853 20.8673 24.7747 21.0828 24.7747 21.3075C24.7747 21.5322 24.6853 21.7476 24.5263 21.9065L21.93 24.4995C21.5988 24.8304 21.0619 24.8304 20.7307 24.4995L19.9022 23.672C19.1555 24.0994 18.3628 24.4276 17.5334 24.6527V25.8223C17.5334 26.2901 17.1537 26.6694 16.6853 26.6694H13.0135C12.5452 26.6694 12.1654 26.2901 12.1654 25.8223V24.6528C11.3363 24.4277 10.5436 24.0995 9.79675 23.672L8.96815 24.4996C8.80913 24.6584 8.59339 24.7477 8.36843 24.7477C8.14347 24.7477 7.92773 24.6584 7.76871 24.4996L5.17243 21.9066C4.84114 21.5758 4.84125 21.0395 5.17243 20.7087L6.00093 19.8812C5.57306 19.1355 5.24452 18.3437 5.01914 17.5155H3.84811C3.37974 17.5155 3 17.1362 3 16.6685V13.0011C3 12.5333 3.37974 12.1541 3.84811 12.1541H5.01914C5.24442 11.326 5.57306 10.5343 6.00104 9.78833L5.17254 8.96075C5.01352 8.80193 4.92415 8.58646 4.92415 8.36178C4.92415 8.13709 5.01352 7.92162 5.17254 7.7628L7.76882 5.16985C8.1 4.83907 8.63696 4.83907 8.96815 5.16985L9.79665 5.99721C10.5433 5.56987 11.3361 5.24164 12.1654 5.01653V3.84706C12.1654 3.37927 12.5452 3 13.0135 3H16.6852C17.1536 3 17.5333 3.37927 17.5333 3.84706V5.01642C18.3625 5.24142 19.1551 5.56966 19.9021 5.99711L20.7306 5.16964C20.8896 5.01081 21.1053 4.92155 21.3303 4.92155C21.5553 4.92155 21.771 5.01081 21.93 5.16964L24.5263 7.76269C24.6853 7.92152 24.7747 8.13699 24.7747 8.36167C24.7747 8.58635 24.6853 8.80182 24.5263 8.96065L23.6978 9.78801C24.1257 10.5337 24.4543 11.3255 24.6797 12.154H25.8506C26.319 12.154 26.6987 12.5332 26.6987 13.001V13.9874H32.5228L33.929 11.2775C34.239 10.68 34.8264 10.3232 35.5002 10.3232H50.49C50.9509 10.3232 51.369 10.558 51.6084 10.9513C51.8478 11.3448 51.8642 11.8237 51.6519 12.2324L50.7412 13.9875H51.3325C54.4577 13.9875 57 16.5267 57 19.6479ZM25.0024 13.8482H24.0084C23.604 13.8482 23.2558 13.5629 23.1767 13.1668C22.9594 12.0789 22.536 11.0583 21.9179 10.1336C21.6934 9.79765 21.7376 9.34998 22.0236 9.06441L22.7271 8.36178L21.3302 6.96656L20.6267 7.6692C20.3408 7.95498 19.8928 7.99902 19.5563 7.77487C18.6297 7.15736 17.608 6.73436 16.5194 6.51762C16.1227 6.43864 15.8371 6.09092 15.8371 5.68687V4.69412H13.8616V5.68687C13.8616 6.09081 13.576 6.43853 13.1794 6.51752C12.0903 6.73447 11.0685 7.15747 10.1426 7.77477C9.80619 7.99913 9.35807 7.95487 9.07204 7.6692L8.36854 6.96656L6.97159 8.36178L7.6751 9.06452C7.96102 9.35008 8.00533 9.79765 7.7809 10.1336C7.16263 11.0589 6.73921 12.0794 6.5222 13.1667C6.44311 13.5629 6.09496 13.8482 5.69042 13.8482H4.69622V15.8212H5.69042C6.09486 15.8212 6.44301 16.1064 6.5222 16.5026C6.73932 17.5904 7.16284 18.6109 7.7809 19.5358C8.00544 19.8717 7.96112 20.3193 7.6751 20.605L6.97149 21.3077L8.36832 22.7029L9.07194 22.0002C9.35796 21.7145 9.80608 21.6704 10.1424 21.8945C11.0688 22.512 12.0906 22.935 13.1792 23.1517C13.5759 23.2307 13.8615 23.5784 13.8615 23.9825V24.9754H15.837V23.9825C15.837 23.5786 16.1226 23.2308 16.5193 23.1517C17.6084 22.9349 18.6302 22.5119 19.5562 21.8946C19.8925 21.6703 20.3407 21.7145 20.6267 22.0002L21.3303 22.7029L22.7271 21.3078L22.0236 20.6052C21.7377 20.3196 21.6934 19.872 21.9178 19.5361C22.5361 18.6106 22.9596 17.5901 23.1766 16.503C23.2557 16.1068 23.6039 15.8215 24.0084 15.8215H25.0025V13.8482H25.0024ZM49.8531 12.0175H35.5002C35.4638 12.0175 35.4516 12.0249 35.4349 12.0572L32.5318 17.6518H46.8847C46.9211 17.6518 46.9333 17.6444 46.9499 17.6122L49.8531 12.0175ZM40.0909 50.1621L42.1712 52.1874C42.3361 52.348 42.5497 52.4279 42.7631 52.4279C42.9816 52.4279 43.1999 52.344 43.3657 52.177L47.0951 48.4172C47.4247 48.0848 47.4223 47.5485 47.0895 47.2193C46.7568 46.8901 46.2199 46.8925 45.8902 47.2249L42.7528 50.3879L41.2749 48.949C40.9394 48.6225 40.4025 48.6293 40.0756 48.9644C39.7487 49.2993 39.7555 49.8356 40.0909 50.1621ZM10.1468 52.5182H24.4997C24.5361 52.5182 24.5482 52.5108 24.565 52.4785L27.4681 46.8838H13.1152C13.0788 46.8838 13.0666 46.8912 13.0499 46.9235L10.1468 52.5182ZM38.6606 29.4507H24.3077C24.2713 29.4507 24.2591 29.4581 24.2424 29.4904L21.3394 35.085H35.6922C35.7286 35.085 35.7407 35.0776 35.7575 35.0454L38.6606 29.4507ZM14.8494 8.27389C11.2273 8.27389 8.28065 11.217 8.28065 14.8346C8.28065 18.4522 11.2274 21.3952 14.8494 21.3952C18.4713 21.3952 21.4181 18.452 21.4181 14.8346C21.4182 11.217 18.4714 8.27389 14.8494 8.27389ZM36.3497 15.6816H37.3071C37.7755 15.6816 38.1552 15.3024 38.1552 14.8346C38.1552 14.3668 37.7755 13.9875 37.3071 13.9875H36.3497C35.8813 13.9875 35.5016 14.3668 35.5016 14.8346C35.5016 15.3024 35.8812 15.6816 36.3497 15.6816ZM25.1572 33.1148H26.1147C26.5831 33.1148 26.9628 32.7356 26.9628 32.2678C26.9628 31.8 26.5831 31.4207 26.1147 31.4207H25.1572C24.6888 31.4207 24.3091 31.8 24.3091 32.2678C24.3091 32.7356 24.6887 33.1148 25.1572 33.1148ZM14.9222 48.854H13.9647C13.4963 48.854 13.1166 49.2333 13.1166 49.7011C13.1166 50.1689 13.4963 50.5482 13.9647 50.5482H14.9222C15.3906 50.5482 15.7703 50.1689 15.7703 49.7011C15.7703 49.2333 15.3906 48.854 14.9222 48.854ZM23.6503 48.854H18.7748C18.3065 48.854 17.9267 49.2333 17.9267 49.7011C17.9267 50.1689 18.3065 50.5482 18.7748 50.5482H23.6503C24.1187 50.5482 24.4984 50.1689 24.4984 49.7011C24.4984 49.2333 24.1187 48.854 23.6503 48.854ZM29.9674 33.1148H34.8427C35.3111 33.1148 35.6908 32.7356 35.6908 32.2678C35.6908 31.8 35.3111 31.4207 34.8427 31.4207H29.9674C29.499 31.4207 29.1192 31.8 29.1192 32.2678C29.1192 32.7356 29.4989 33.1148 29.9674 33.1148Z" fill="#282928"/>
</svg>
