<svg width="60" height="60" viewBox="0 0 60 60" fill="none" xmlns="http://www.w3.org/2000/svg">
<path d="M57.1855 5.625H46.0574L42.8699 2.175C42.7829 2.0803 42.6771 2.00473 42.5593 1.95308C42.4414 1.90144 42.3142 1.87485 42.1855 1.875H14.0606C13.8119 1.875 13.5735 1.97377 13.3976 2.14959C13.2218 2.3254 13.1231 2.56386 13.1231 2.8125V16.6406C9.86418 17.6421 7.01233 19.6622 4.98639 22.4042C2.96045 25.1463 1.86719 28.4657 1.86719 31.875C1.86719 35.2843 2.96045 38.6037 4.98639 41.3458C7.01233 44.0878 9.86418 46.1079 13.1231 47.1094V53.4375C13.1231 53.6861 13.2218 53.9246 13.3976 54.1004C13.5735 54.2762 13.8119 54.375 14.0606 54.375H22.4981V57.1875C22.4981 57.4361 22.5968 57.6746 22.7726 57.8504C22.9485 58.0262 23.1869 58.125 23.4356 58.125H57.1855C57.4342 58.125 57.6726 58.0262 57.8485 57.8504C58.0243 57.6746 58.123 57.4361 58.123 57.1875V6.5625C58.123 6.31386 58.0243 6.0754 57.8485 5.89959C57.6726 5.72377 57.4342 5.625 57.1855 5.625ZM43.123 5.2125L51.2981 14.0625H43.123V5.2125ZM3.74805 31.875C3.74805 29.0937 4.5728 26.3749 6.11801 24.0623C7.66322 21.7497 9.85948 19.9473 12.4291 18.8829C14.9987 17.8186 17.8262 17.5401 20.554 18.0827C23.2819 18.6253 25.7876 19.9646 27.7542 21.9313C29.7209 23.898 31.0602 26.4037 31.6028 29.1315C32.1454 31.8594 31.867 34.6869 30.8026 37.2565C29.7382 39.8261 27.9358 42.0223 25.6233 43.5675C23.3107 45.1128 20.5919 45.9375 17.8106 45.9375C14.0823 45.933 10.5081 44.45 7.87179 41.8138C5.23553 39.1775 3.75252 35.6032 3.74805 31.875ZM14.9981 52.5V47.55C15.9262 47.7185 16.8672 47.8063 17.8106 47.8125C20.4066 47.8144 22.9631 47.1769 25.2543 45.9563L31.8074 52.5H14.9981ZM24.3731 56.25V54.375H33.6824L35.5668 56.25H24.3731ZM40.8918 54.9562C40.3598 55.4705 39.6489 55.758 38.909 55.758C38.1691 55.758 37.4581 55.4705 36.9262 54.9562L26.9043 44.9437C28.4533 43.8635 29.799 42.5178 30.8793 40.9688L40.8918 50.9906C41.1559 51.2489 41.3658 51.5573 41.5091 51.8978C41.6524 52.2383 41.7262 52.604 41.7262 52.9734C41.7262 53.3429 41.6524 53.7085 41.5091 54.049C41.3658 54.3895 41.1559 54.698 40.8918 54.9562ZM31.8918 39.3187C33.1794 36.8914 33.8169 34.1722 33.7422 31.4255C33.6676 28.6789 32.8833 25.9983 31.4658 23.6445C30.0482 21.2907 28.0456 19.3439 25.6528 17.9934C23.2599 16.6428 20.5582 15.9346 17.8106 15.9375C16.8672 15.9437 15.9262 16.0315 14.9981 16.2V3.75H41.248V15C41.248 15.1231 41.2723 15.245 41.3194 15.3588C41.3665 15.4725 41.4356 15.5759 41.5226 15.6629C41.6097 15.75 41.713 15.819 41.8268 15.8661C41.9405 15.9133 42.0624 15.9375 42.1855 15.9375H52.498V52.5H43.5543C43.4504 51.4282 42.9803 50.425 42.223 49.6594L31.8918 39.3187ZM56.248 56.25H42.2512C42.7643 55.7222 43.1436 55.0793 43.3574 54.375H53.4355C53.6842 54.375 53.9226 54.2762 54.0985 54.1004C54.2743 53.9246 54.373 53.6861 54.373 53.4375V15C54.3744 14.7627 54.2837 14.5342 54.1199 14.3625L47.7918 7.5H56.248V56.25Z" fill="#282928"/>
<path d="M18.75 6.5625H24.375V8.4375H18.75V6.5625Z" fill="#282928"/>
<path d="M27.1875 6.5625H38.4375V8.4375H27.1875V6.5625Z" fill="#282928"/>
<path d="M18.75 11.25H38.4375V13.125H18.75V11.25Z" fill="#282928"/>
<path d="M33.75 18.75H50.625V20.625H33.75V18.75Z" fill="#282928"/>
<path d="M33.75 23.4375H50.625V25.3125H33.75V23.4375Z" fill="#282928"/>
<path d="M35.625 28.125H50.625V30H35.625V28.125Z" fill="#282928"/>
<path d="M35.625 32.8125H39.375V34.6875H35.625V32.8125Z" fill="#282928"/>
<path d="M41.25 32.8125H50.625V34.6875H41.25V32.8125Z" fill="#282928"/>
<path d="M30 31.875C30 29.4645 29.2852 27.1082 27.946 25.104C26.6069 23.0998 24.7034 21.5377 22.4765 20.6152C20.2495 19.6928 17.799 19.4514 15.4348 19.9217C13.0707 20.3919 10.8991 21.5527 9.19464 23.2571C7.49019 24.9616 6.32944 27.1332 5.85918 29.4973C5.38893 31.8615 5.63028 34.312 6.55272 36.539C7.47517 38.7659 9.03727 40.6694 11.0415 42.0085C13.0457 43.3477 15.402 44.0625 17.8125 44.0625C21.0437 44.0588 24.1415 42.7736 26.4263 40.4888C28.7111 38.204 29.9963 35.1062 30 31.875ZM7.50001 31.875C7.50001 29.8354 8.10482 27.8416 9.23798 26.1457C10.3711 24.4498 11.9817 23.128 13.8661 22.3475C15.7504 21.567 17.8239 21.3627 19.8244 21.7607C21.8248 22.1586 23.6623 23.1407 25.1045 24.583C26.5468 26.0252 27.5289 27.8627 27.9269 29.8631C28.3248 31.8636 28.1205 33.9371 27.34 35.8214C26.5595 37.7058 25.2377 39.3164 23.5418 40.4495C21.8459 41.5827 19.8521 42.1875 17.8125 42.1875C15.0785 42.1843 12.4573 41.0968 10.524 39.1635C8.59076 37.2302 7.50323 34.6091 7.50001 31.875Z" fill="#282928"/>
</svg>
