<svg width="60" height="60" viewBox="0 0 60 60" fill="none" xmlns="http://www.w3.org/2000/svg">
<path d="M30.1185 1.33203C23.8785 1.33203 18.7852 6.41203 18.7852 12.6654C18.7852 18.9187 23.8652 23.9987 30.1185 23.9987C36.3718 23.9987 41.4518 18.9187 41.4518 12.6654C41.4518 6.41203 36.3585 1.33203 30.1185 1.33203ZM26.5318 16.5854C26.3985 16.7187 26.2118 16.7987 26.0252 16.7987C25.8518 16.7987 25.6652 16.732 25.5185 16.5854L22.3718 13.4387C22.2385 13.3054 22.1585 13.1187 22.1585 12.932C22.1585 12.7454 22.2252 12.5587 22.3718 12.4254L25.4785 9.33203C25.7585 9.05203 26.1985 9.05203 26.4785 9.33203C26.7585 9.61203 26.7585 10.052 26.4785 10.332L23.8918 12.932L26.5318 15.572C26.8118 15.8654 26.8118 16.3054 26.5318 16.5854ZM31.9052 10.0654L29.3585 16.4654C29.2385 16.7454 28.9852 16.9054 28.7052 16.9054C28.6252 16.9054 28.5318 16.892 28.4518 16.8654C28.0918 16.732 27.9185 16.3054 28.0518 15.9454L30.5985 9.54536C30.7318 9.18536 31.1585 9.01203 31.5185 9.14536C31.8785 9.29203 32.0518 9.70537 31.9052 10.0654ZM37.8518 13.4387L34.7052 16.5854C34.5718 16.7187 34.3852 16.7987 34.1985 16.7987C34.0118 16.7987 33.8385 16.732 33.6918 16.5854C33.4118 16.3054 33.4118 15.8654 33.6918 15.5854L36.3318 12.9454L33.7318 10.3587C33.4518 10.0787 33.4518 9.6387 33.7318 9.3587C34.0118 9.0787 34.4518 9.0787 34.7318 9.3587L37.8385 12.452C37.9718 12.5854 38.0518 12.772 38.0518 12.9587C38.0652 13.1187 37.9852 13.3054 37.8518 13.4387Z" fill="#282928"/>
<path d="M30.8267 25.3711V30.0511L30.6134 29.8378C30.4801 29.7044 30.2934 29.6244 30.1067 29.6244C29.9201 29.6244 29.7334 29.6911 29.6001 29.8378L29.3867 30.0511V25.3711C29.6134 25.3844 29.8534 25.3978 30.0934 25.3978C30.3467 25.3978 30.6001 25.3978 30.8267 25.3711Z" fill="#282928"/>
<path d="M27.1055 34.3516L30.1126 31.3445L33.1197 34.3516L30.1126 37.3587L27.1055 34.3516Z" fill="#282928"/>
<path d="M43.0938 52.293V58.6663H57.2537V52.293H43.0938ZM54.4271 55.8396H45.9337C45.5337 55.8396 45.2271 55.5196 45.2271 55.133C45.2271 54.733 45.5471 54.4263 45.9337 54.4263H54.4271C54.8271 54.4263 55.1337 54.7463 55.1337 55.133C55.1337 55.5196 54.8138 55.8396 54.4271 55.8396Z" fill="#282928"/>
<path d="M50.8807 34.3583V38.145H49.4674V35.065H34.4141L34.6274 34.8517C34.7607 34.7183 34.8407 34.5317 34.8407 34.345C34.8407 34.1583 34.7741 33.985 34.6274 33.8383L34.4141 33.625H50.1741C50.5741 33.6517 50.8807 33.9583 50.8807 34.3583Z" fill="#282928"/>
<path d="M43.0938 39.5586V45.9319H57.2537V39.5586H43.0938ZM54.4271 43.0919H45.9337C45.5337 43.0919 45.2271 42.7719 45.2271 42.3853C45.2271 41.9853 45.5471 41.6786 45.9337 41.6786H54.4271C54.8271 41.6786 55.1337 41.9986 55.1337 42.3853C55.1337 42.7853 54.8138 43.0919 54.4271 43.0919Z" fill="#282928"/>
<path d="M49.4648 47.332H50.8782V50.8787H49.4648V47.332Z" fill="#282928"/>
<path d="M2.74609 52.293V58.6663H16.9061V52.293H2.74609ZM14.0661 55.8396H5.57276C5.17276 55.8396 4.86609 55.5196 4.86609 55.133C4.86609 54.733 5.18609 54.4263 5.57276 54.4263H14.0661C14.4661 54.4263 14.7728 54.7463 14.7728 55.133C14.7861 55.5196 14.4661 55.8396 14.0661 55.8396Z" fill="#282928"/>
<path d="M9.12109 47.332H10.5344V50.8787H9.12109V47.332Z" fill="#282928"/>
<path d="M25.6121 34.8523L25.8255 35.0657H10.5321V38.1457H9.10547V34.359C9.10547 33.959 9.42547 33.6523 9.81213 33.6523H25.8121L25.5988 33.8657C25.4655 33.999 25.3855 34.1857 25.3855 34.3723C25.4121 34.5457 25.4788 34.7323 25.6121 34.8523Z" fill="#282928"/>
<path d="M2.74609 39.5586V45.9319H16.9061V39.5586H2.74609ZM14.0661 43.0919H5.57276C5.17276 43.0919 4.86609 42.7719 4.86609 42.3853C4.86609 41.9853 5.18609 41.6786 5.57276 41.6786H14.0661C14.4661 41.6786 14.7728 41.9986 14.7728 42.3853C14.7861 42.7853 14.4661 43.0919 14.0661 43.0919Z" fill="#282928"/>
<path d="M30.8274 38.6523V48.799C30.6007 48.759 30.3607 48.759 30.1207 48.759C29.8807 48.759 29.6407 48.7723 29.4141 48.799V38.6523L29.6274 38.8657C29.7607 38.999 29.9474 39.079 30.1341 39.079C30.3207 39.079 30.4941 39.0123 30.6407 38.8657L30.8274 38.6523Z" fill="#282928"/>
<path d="M30.1189 50.1719C27.7722 50.1719 25.8789 52.0652 25.8789 54.4119C25.8789 56.7585 27.7722 58.6519 30.1189 58.6519C32.4656 58.6519 34.3589 56.7585 34.3589 54.4119C34.3722 52.0785 32.4522 50.1719 30.1189 50.1719ZM30.1189 56.5452C28.9589 56.5452 27.9989 55.5852 27.9989 54.4252C27.9989 53.2652 28.9589 52.3052 30.1189 52.3052C31.2789 52.3052 32.2389 53.2652 32.2389 54.4252C32.2389 55.5852 31.2922 56.5452 30.1189 56.5452Z" fill="#282928"/>
<path d="M30.1207 55.1321C30.511 55.1321 30.8274 54.8157 30.8274 54.4254C30.8274 54.0351 30.511 53.7188 30.1207 53.7188C29.7304 53.7188 29.4141 54.0351 29.4141 54.4254C29.4141 54.8157 29.7304 55.1321 30.1207 55.1321Z" fill="#282928"/>
</svg>
