<svg width="60" height="60" viewBox="0 0 60 60" fill="none" xmlns="http://www.w3.org/2000/svg">
<path d="M55.7219 35.9265L53.8063 34.8112C54.128 33.1977 54.2908 31.582 54.2908 30C54.2908 28.395 54.1306 26.7778 53.8143 25.184L55.7219 24.0734C56.3127 23.7295 56.7354 23.1741 56.9119 22.5097C57.0884 21.8453 56.9979 21.1512 56.6567 20.5555L51.4399 11.4444C51.0988 10.8487 50.5481 10.4225 49.8891 10.2445C49.2301 10.0665 48.5419 10.1578 47.951 10.5018L46.0418 11.6133C43.6303 9.47397 40.7921 7.8183 37.7709 6.78816V4.57534C37.7709 3.15529 36.6252 2 35.2169 2H24.7833C23.3749 2 22.2292 3.15529 22.2292 4.57534V6.78827C19.2241 7.81425 16.3899 9.47211 13.9694 11.6198L12.049 10.5018C11.4581 10.1578 10.7698 10.0664 10.1109 10.2445C9.45194 10.4226 8.90124 10.8487 8.56009 11.4444L3.34329 20.5555C3.00213 21.1512 2.9116 21.8453 3.0881 22.5097C3.2646 23.1741 3.68727 23.7295 4.27807 24.0734L6.19373 25.1887C5.87224 26.8022 5.70932 28.4179 5.70932 30C5.70932 31.6048 5.86952 33.222 6.18579 34.8159L4.27818 35.9265C3.05854 36.6365 2.63924 38.2146 3.34329 39.4445L8.56009 48.5556C9.26425 49.7853 10.8293 50.2082 12.049 49.4982L13.9581 48.3867C16.3697 50.526 19.2078 52.1817 22.2292 53.2119V55.4247C22.2292 56.8447 23.3749 58 24.7833 58H35.2169C36.6252 58 37.7709 56.8447 37.7709 55.4247V53.2117C40.7761 52.1858 43.6104 50.5279 46.0308 48.3803L47.9511 49.4982C49.1706 50.2082 50.7359 49.7853 51.44 48.5556L56.6568 39.4445C57.3609 38.2146 56.9416 36.6365 55.7219 35.9265ZM55.2449 38.6226L50.0281 47.7336C49.7735 48.1785 49.2073 48.3314 48.7662 48.0745L46.3326 46.6578C46.0233 46.4777 45.6337 46.5216 45.3716 46.7661C42.8835 49.0865 39.8899 50.8372 36.7146 51.829C36.3734 51.9357 36.1407 52.2539 36.1407 52.6141V55.4247C36.1407 55.9383 35.7263 56.3562 35.2169 56.3562H24.7833C24.2739 56.3562 23.8594 55.9383 23.8594 55.4247V52.6142C23.8594 52.254 23.6268 51.9358 23.2856 51.8292C20.0907 50.8311 17.0935 49.0826 14.6176 46.7728C14.4631 46.6287 14.2643 46.5542 14.0638 46.5542C13.924 46.5542 13.7835 46.5904 13.6565 46.6643L11.2339 48.0745C10.7927 48.3313 10.2266 48.1784 9.97199 47.7336L4.75519 38.6226C4.50055 38.1778 4.65227 37.6069 5.09331 37.35L7.5139 35.9408C7.823 35.7609 7.98004 35.3992 7.90147 35.0481C7.52857 33.3816 7.33957 31.6831 7.33957 30C7.33957 28.3452 7.5314 26.6483 7.90984 24.9565C7.9883 24.6055 7.83126 24.2437 7.52227 24.0639L5.09331 22.6499C4.87963 22.5255 4.72683 22.3246 4.66292 22.0843C4.59912 21.8439 4.63184 21.5929 4.75519 21.3774L9.97199 12.2663C10.0953 12.0508 10.2946 11.8967 10.533 11.8323C10.7713 11.7679 11.0204 11.801 11.234 11.9254L13.6677 13.3421C13.977 13.5223 14.3665 13.4782 14.6286 13.2338C17.1168 10.9134 20.1103 9.16274 23.2856 8.17085C23.6269 8.06422 23.8596 7.74597 23.8596 7.38575V4.57534C23.8596 4.0617 24.274 3.64384 24.7834 3.64384H35.217C35.7264 3.64384 36.1408 4.0617 36.1408 4.57534V7.38575C36.1408 7.74597 36.3735 8.06422 36.7146 8.17085C39.9094 9.16877 42.9066 10.9173 45.3827 13.2272C45.6448 13.4718 46.0344 13.5157 46.3437 13.3357L48.7663 11.9254C48.9801 11.801 49.2291 11.7679 49.4673 11.8323C49.7056 11.8968 49.9049 12.0508 50.0283 12.2663L55.2451 21.3774C55.3685 21.5929 55.4013 21.8439 55.3374 22.0843C55.2735 22.3246 55.1207 22.5255 54.907 22.6499L52.4864 24.0591C52.1773 24.239 52.0203 24.6008 52.0989 24.9518C52.4717 26.6182 52.6608 28.3166 52.6608 30C52.6608 31.6548 52.4689 33.3517 52.0905 35.0434C52.012 35.3944 52.1691 35.7561 52.4781 35.936L54.907 37.35C55.3479 37.6069 55.4997 38.1778 55.2449 38.6226Z" fill="#282928"/>
<path d="M30 13C20.6261 13 13 20.6262 13 30C13 39.3738 20.6261 47 30 47C39.3739 47 47 39.3738 47 30C47 20.6262 39.3739 13 30 13ZM30 45.3168C21.5543 45.3168 14.6832 38.4457 14.6832 30C14.6832 21.5543 21.5543 14.6832 30 14.6832C38.4457 14.6832 45.3168 21.5543 45.3168 30C45.3168 38.4457 38.4457 45.3168 30 45.3168Z" fill="#282928"/>
<path d="M32.9444 26H29.8333C29.3731 26 29 26.3401 29 26.7595V33.2405C29 33.6599 29.3731 34 29.8333 34C30.2936 34 30.6667 33.6599 30.6667 33.2405V31.5696H32.9444C34.6293 31.5696 36 30.3204 36 28.7848C36 27.2492 34.6293 26 32.9444 26ZM32.9444 30.0506H30.6667V27.519H32.9444C33.7103 27.519 34.3333 28.0868 34.3333 28.7848C34.3333 29.4828 33.7103 30.0506 32.9444 30.0506Z" fill="#282928"/>
<path d="M25.2419 26.4928C25.1182 26.1964 24.803 26 24.4507 26H23.5494C23.1972 26 22.8818 26.1963 22.7582 26.4928L20.0541 32.9736C19.8901 33.3663 20.1116 33.8041 20.5486 33.9514C20.9855 34.0988 21.4726 33.8997 21.6365 33.507L22.1068 32.3795H25.8932L26.3636 33.5069C26.4908 33.8118 26.8128 33.9999 27.1549 33.9999C27.2535 33.9999 27.3537 33.9843 27.4514 33.9514C27.8884 33.8042 28.1099 33.3663 27.9459 32.9736L25.2419 26.4928ZM22.7406 30.8606L24.0001 27.8423L25.2595 30.8606H22.7406Z" fill="#282928"/>
<path d="M38 26C37.4477 26 37 26.3401 37 26.7595V33.2405C37 33.6599 37.4477 34 38 34C38.5523 34 39 33.6599 39 33.2405V26.7595C39 26.3401 38.5523 26 38 26Z" fill="#282928"/>
<path d="M35.6723 11.3967C36.3421 11.5549 37.0098 11.7386 37.6567 11.9427C37.78 11.9816 37.9081 12 38.0343 12C38.4095 12 38.7664 11.8368 38.9227 11.5648C39.1314 11.2014 38.9031 10.7814 38.4127 10.6267C37.7104 10.4052 36.9856 10.2057 36.2583 10.034C35.7507 9.91401 35.2077 10.1219 35.0458 10.4982C34.884 10.8744 35.1646 11.2767 35.6723 11.3967Z" fill="#282928"/>
<path d="M12.7012 39.378C12.4615 39.0265 11.9112 38.8969 11.4722 39.0887C11.033 39.2806 10.8712 39.7211 11.1108 40.0727C11.4867 40.6242 11.9027 41.1668 12.3474 41.6853C12.523 41.89 12.8065 42 13.0949 42C13.2716 42 13.4501 41.9587 13.6068 41.8726C14.0193 41.6458 14.124 41.1943 13.8408 40.8642C13.431 40.3864 13.0475 39.8864 12.7012 39.378Z" fill="#282928"/>
<path d="M28.2442 49.4151C23.8135 49.0485 19.6079 47.2048 16.402 44.2236C16.0739 43.9185 15.5505 43.9267 15.2329 44.2416C14.9153 44.5566 14.9235 45.0593 15.2516 45.3643C18.7299 48.5988 23.2937 50.5992 28.1022 50.997C28.1263 50.999 28.1502 51 28.174 51C28.5986 51 28.9598 50.6878 28.9969 50.2742C29.036 49.8375 28.699 49.4528 28.2442 49.4151Z" fill="#282928"/>
<path d="M42.1866 13.1429C41.8407 12.8877 41.3687 12.9836 41.1323 13.357C40.896 13.7306 40.9848 14.2403 41.3306 14.4956C44.8548 17.0966 47.4041 20.9671 48.5088 25.3938C48.6001 25.7593 48.9063 26 49.2408 26C49.3061 26 49.3726 25.9908 49.4386 25.9716C49.8432 25.8539 50.0827 25.4043 49.9737 24.9675C48.7749 20.1637 46.0094 15.9644 42.1866 13.1429Z" fill="#282928"/>
</svg>
