<svg width="60" height="60" viewBox="0 0 60 60" fill="none" xmlns="http://www.w3.org/2000/svg">
<path d="M16.2274 55.0006C13.351 55.0006 10.4745 53.9057 8.28476 51.7159C3.90508 47.3363 3.90508 40.2101 8.28476 35.8305L16.5728 27.5424C17.1449 26.9702 18.0726 26.9702 18.6448 27.5424C19.217 28.1146 19.217 29.0422 18.6448 29.6144L10.3567 37.9025C7.11968 41.1396 7.11968 46.4067 10.3567 49.6439C13.5939 52.881 18.8611 52.8809 22.0981 49.6439L30.3862 41.3558C30.9583 40.7836 31.886 40.7836 32.4582 41.3558C33.0304 41.928 33.0304 42.8556 32.4582 43.4278L24.1701 51.7159C21.9803 53.9057 19.1039 55.0006 16.2274 55.0006Z" fill="#282928"/>
<path d="M42.3917 32.8874C42.0168 32.8874 41.6418 32.7444 41.3558 32.4582C40.7836 31.886 40.7836 30.9584 41.3558 30.3862L49.6439 22.0981C52.8809 18.861 52.8809 13.5939 49.6439 10.3567C46.4067 7.11959 41.1395 7.11968 37.9025 10.3567L29.6144 18.6448C29.0423 19.217 28.1146 19.217 27.5424 18.6448C26.9702 18.0726 26.9702 17.145 27.5424 16.5728L35.8305 8.28476C40.2101 3.90508 47.3363 3.90508 51.7159 8.28476C56.0955 12.6643 56.0955 19.7906 51.7159 24.1701L43.4278 32.4582C43.1417 32.7444 42.7667 32.8874 42.3917 32.8874Z" fill="#282928"/>
<path d="M20.2307 41.2311C19.8557 41.2311 19.4808 41.0881 19.1948 40.8019C18.6226 40.2297 18.6226 39.3021 19.1948 38.7299L38.7299 19.1948C39.302 18.6226 40.2297 18.6226 40.8019 19.1948C41.3741 19.7669 41.3741 20.6946 40.8019 21.2668L21.2668 40.8019C20.9807 41.088 20.6057 41.2311 20.2307 41.2311Z" fill="#282928"/>
<path d="M15.9128 15.9128C16.3705 15.4555 16.3705 14.7134 15.9128 14.2557L10.9415 9.28438C10.4837 8.82708 9.74215 8.82708 9.28438 9.28438C8.82708 9.74215 8.82708 10.4842 9.28438 10.9419L14.2557 15.9132C14.7139 16.3705 15.4555 16.3705 15.9128 15.9128Z" fill="#282928"/>
<path d="M4.45657 19.6875C3.80975 19.6875 3.28516 20.2121 3.28516 20.8589C3.28516 21.5062 3.80975 22.0308 4.45657 22.0308H11.4873C12.1342 22.0308 12.6588 21.5062 12.6588 20.8589C12.6588 20.2121 12.1342 19.6875 11.4873 19.6875H4.45657Z" fill="#282928"/>
<path d="M19.6875 4.10547V11.1358C19.6875 11.7826 20.2121 12.3077 20.8589 12.3077C21.5062 12.3077 22.0308 11.7826 22.0308 11.1358V4.10547C22.0308 3.45819 21.5062 2.93359 20.8589 2.93359C20.2121 2.93359 19.6875 3.45819 19.6875 4.10547Z" fill="#282928"/>
<path d="M44.0855 44.0852C43.6277 44.5425 43.6277 45.2845 44.0855 45.7423L49.0568 50.7136C49.2857 50.9424 49.5855 51.0569 49.8854 51.0569C50.9194 51.0569 51.4546 49.7976 50.7139 49.0565L45.7426 44.0852C45.2848 43.6279 44.5433 43.6279 44.0855 44.0852Z" fill="#282928"/>
<path d="M40.1953 55.8975V48.8667C40.1953 48.2199 39.6703 47.6953 39.0234 47.6953C38.3762 47.6953 37.8516 48.2199 37.8516 48.8667V55.8975C37.8516 56.5443 38.3762 57.0689 39.0234 57.0689C39.6703 57.0689 40.1953 56.5443 40.1953 55.8975Z" fill="#282928"/>
<path d="M55.8975 40.1953C56.5443 40.1953 57.0689 39.6703 57.0689 39.0234C57.0689 38.3762 56.5443 37.8516 55.8975 37.8516H48.8667C48.2199 37.8516 47.6953 38.3762 47.6953 39.0234C47.6953 39.6703 48.2199 40.1953 48.8667 40.1953H55.8975Z" fill="#282928"/>
</svg>
