<svg width="60" height="60" viewBox="0 0 60 60" fill="none" xmlns="http://www.w3.org/2000/svg">
<path d="M9.60488 14.8113C11.4596 14.8113 13.0137 13.5103 13.4099 11.7736H15.8292C16.0575 11.7736 16.2814 11.866 16.4428 12.0279L17.6705 13.2551C17.8402 13.4248 18.0619 13.5094 18.2841 13.5094C18.5063 13.5094 18.7285 13.4248 18.8977 13.2551C19.2367 12.9162 19.2367 12.3668 18.8977 12.0279L17.6705 10.8006C17.1788 10.3085 16.5248 10.0377 15.8292 10.0377H13.4099C13.0137 8.30101 11.4596 7 9.60488 7C7.45156 7 5.69922 8.75191 5.69922 10.9057C5.69922 13.0594 7.45156 14.8113 9.60488 14.8113ZM9.60488 8.73583C10.8013 8.73583 11.7747 9.70921 11.7747 10.9056C11.7747 12.1021 10.8013 13.0755 9.60488 13.0755C8.40846 13.0755 7.43507 12.1021 7.43507 10.9056C7.43507 9.70921 8.40844 8.73583 9.60488 8.73583Z" fill="#282928"/>
<path d="M18.5384 45.8758L16.4424 47.9718C16.281 48.1328 16.0575 48.2252 15.8279 48.2252H13.4099C13.0137 46.4885 11.4596 45.1875 9.60488 45.1875C7.45156 45.1875 5.69922 46.9394 5.69922 49.0932C5.69922 51.2469 7.45156 52.9988 9.60488 52.9988C11.4596 52.9988 13.0137 51.6978 13.4099 49.9611H15.8279C16.5144 49.9611 17.1853 49.6834 17.6696 49.1991L19.7657 47.103C20.1046 46.7641 20.1046 46.2147 19.7657 45.8758C19.4272 45.5368 18.8769 45.5368 18.5384 45.8758ZM9.60488 51.263C8.40844 51.263 7.43507 50.2896 7.43507 49.0932C7.43507 47.8967 8.40844 46.9233 9.60488 46.9233C10.8013 46.9233 11.7747 47.8967 11.7747 49.0932C11.7747 50.2896 10.8013 51.263 9.60488 51.263Z" fill="#282928"/>
<path d="M6.13223 33.9051C8.28555 33.9051 10.0379 32.1532 10.0379 29.9994C10.0379 27.8457 8.28555 26.0938 6.13223 26.0938C3.9789 26.0938 2.22656 27.8457 2.22656 29.9994C2.22656 32.1532 3.9789 33.9051 6.13223 33.9051ZM6.13223 27.8296C7.32866 27.8296 8.30204 28.803 8.30204 29.9994C8.30204 31.1959 7.32866 32.1692 6.13223 32.1692C4.93579 32.1692 3.96241 31.1959 3.96241 29.9994C3.96241 28.803 4.93579 27.8296 6.13223 27.8296Z" fill="#282928"/>
<path d="M41.7155 13.5094C41.9377 13.5094 42.1594 13.4248 42.3291 13.2551L43.5568 12.0279C43.7182 11.866 43.9417 11.7736 44.1704 11.7736H46.5897C46.9859 13.5103 48.5399 14.8113 50.3947 14.8113C52.548 14.8113 54.3004 13.0594 54.3004 10.9057C54.3004 8.75191 52.548 7 50.3947 7C48.5399 7 46.9859 8.30103 46.5897 10.0377H44.1704C43.4747 10.0377 42.8212 10.3085 42.3295 10.8002L41.1018 12.0279C40.7629 12.3668 40.7629 12.9162 41.1018 13.2551C41.2711 13.4248 41.4933 13.5094 41.7155 13.5094ZM50.3947 8.73583C51.5911 8.73583 52.5645 9.70921 52.5645 10.9056C52.5645 12.1021 51.5911 13.0755 50.3947 13.0755C49.1983 13.0755 48.2249 12.1021 48.2249 10.9056C48.2249 9.70921 49.1983 8.73583 50.3947 8.73583Z" fill="#282928"/>
<path d="M50.3955 45.1875C48.5407 45.1875 46.9867 46.4885 46.5905 48.2252H44.1724C43.9429 48.2252 43.7194 48.1328 43.5579 47.9718L41.4619 45.8758C41.1234 45.5368 40.5731 45.5368 40.2347 45.8758C39.8957 46.2147 39.8957 46.7641 40.2347 47.103L42.3307 49.199C42.815 49.6833 43.4863 49.9611 44.1724 49.9611H46.5905C46.9867 51.6978 48.5407 52.9988 50.3954 52.9988C52.5488 52.9988 54.3011 51.2469 54.3011 49.0931C54.3011 46.9394 52.5488 45.1875 50.3955 45.1875ZM50.3955 51.263C49.199 51.263 48.2256 50.2896 48.2256 49.0932C48.2256 47.8967 49.199 46.9233 50.3955 46.9233C51.5919 46.9233 52.5653 47.8967 52.5653 49.0932C52.5653 50.2896 51.5919 51.263 50.3955 51.263Z" fill="#282928"/>
<path d="M49.9609 29.9994C49.9609 32.1532 51.7133 33.9051 53.8666 33.9051C56.0199 33.9051 57.7723 32.1532 57.7723 29.9994C57.7723 27.8457 56.0199 26.0938 53.8666 26.0938C51.7133 26.0938 49.9609 27.8457 49.9609 29.9994ZM56.0364 29.9994C56.0364 31.1959 55.063 32.1692 53.8666 32.1692C52.6702 32.1692 51.6968 31.1959 51.6968 29.9994C51.6968 28.803 52.6702 27.8296 53.8666 27.8296C55.063 27.8296 56.0364 28.803 56.0364 29.9994Z" fill="#282928"/>
<path d="M12.207 20.5986V28.764C12.207 35.1858 15.6431 41.2014 21.1749 44.4635L29.5586 49.408C29.6944 49.4879 29.8472 49.5282 29.9995 49.5282C30.1518 49.5282 30.3046 49.4879 30.4404 49.408L38.8241 44.4635C44.3558 41.2014 47.7919 35.1858 47.7919 28.764V20.5986C47.7919 19.6604 47.2846 18.7916 46.4675 18.3307L31.9189 10.1236C30.7134 9.44317 29.286 9.44317 28.0809 10.1236L13.5315 18.3307C12.7143 18.7916 12.207 19.6604 12.207 20.5986ZM13.9429 20.5986C13.9429 20.2857 14.1121 19.9963 14.3842 19.8426L28.9332 11.6355C29.2765 11.442 29.6454 11.3396 29.9995 11.3396C30.3536 11.3396 30.7225 11.442 31.0658 11.6355L45.6148 19.8431C45.8869 19.9967 46.0561 20.2861 46.0561 20.5986V28.764C46.0561 34.5739 42.9472 40.0171 37.9423 42.9685L29.9995 47.6527L22.0567 42.9685C17.0518 40.0171 13.9429 34.5739 13.9429 28.764V20.5986Z" fill="#282928"/>
<path d="M25.6607 41.2816H34.3399C37.2115 41.2816 39.5475 38.9456 39.5475 36.0741V28.6967C39.5475 26.7825 37.99 25.225 36.0758 25.225H35.6418V23.4892C35.6418 20.3785 33.1109 17.8477 30.0003 17.8477C26.8897 17.8477 24.3588 20.3785 24.3588 23.4892V25.225H23.9248C22.0106 25.225 20.4531 26.7825 20.4531 28.6967V36.0741C20.4532 38.9456 22.7892 41.2816 25.6607 41.2816ZM26.0947 23.4892C26.0947 21.3354 27.847 19.5835 30.0003 19.5835C32.1536 19.5835 33.906 21.3354 33.906 23.4892V25.225H26.0947V23.4892ZM22.189 28.6967C22.189 27.7394 22.9675 26.9609 23.9248 26.9609H36.0758C37.0331 26.9609 37.8116 27.7394 37.8116 28.6967V36.0741C37.8116 37.9883 36.2541 39.5458 34.3399 39.5458H25.6607C23.7465 39.5458 22.189 37.9883 22.189 36.0741V28.6967Z" fill="#282928"/>
<path d="M29.1303 34.6221V36.9438C29.1303 37.4229 29.5192 37.8117 29.9983 37.8117C30.4774 37.8117 30.8662 37.4229 30.8662 36.9438V34.6221C31.876 34.2636 32.6021 33.3015 32.6021 32.1702C32.6021 30.7342 31.4343 29.5664 29.9983 29.5664C28.5623 29.5664 27.3945 30.7342 27.3945 32.1702C27.3945 33.3011 28.1205 34.2636 29.1303 34.6221ZM29.9983 31.3022C30.4769 31.3022 30.8662 31.6915 30.8662 32.1702C30.8662 32.6488 30.477 33.0381 29.9983 33.0381C29.5196 33.0381 29.1303 32.6488 29.1303 32.1702C29.1303 31.6915 29.5196 31.3022 29.9983 31.3022Z" fill="#282928"/>
</svg>
