<svg width="60" height="60" viewBox="0 0 60 60" fill="none" xmlns="http://www.w3.org/2000/svg">
<g clip-path="url(#clip0_6723_1753)">
<path d="M12.605 37.9125C12.6017 39.583 11.9371 41.1843 10.7566 42.3663C9.57603 43.5482 7.97554 44.2147 6.305 44.22C4.6336 44.216 3.03182 43.5501 1.85019 42.368C0.668556 41.1859 0.00330109 39.5839 0 37.9125C0.00462365 36.2422 0.670542 34.6417 1.8521 33.4611C3.03366 32.2804 4.63469 31.6158 6.305 31.6125H12.605V37.9125ZM15.7825 37.9125C15.7871 36.2426 16.4527 34.6425 17.6337 33.4619C18.8147 32.2814 20.4151 31.6165 22.085 31.6125C23.7549 31.6165 25.3553 32.2814 26.5363 33.4619C27.7173 34.6425 28.3829 36.2426 28.3875 37.9125V53.695C28.3835 55.3655 27.7183 56.9666 26.5373 58.1481C25.3563 59.3295 23.7555 59.9954 22.085 60C20.4145 59.9954 18.8137 59.3295 17.6327 58.1481C16.4517 56.9666 15.7865 55.3655 15.7825 53.695V37.9125ZM22.085 12.605C20.4153 12.6004 18.8153 11.9352 17.6344 10.7548C16.4536 9.57442 15.7878 7.97467 15.7825 6.305C15.7865 4.63446 16.4517 3.03344 17.6327 1.85195C18.8137 0.670459 20.4145 0.00462103 22.085 0C23.7555 0.00462103 25.3563 0.670459 26.5373 1.85195C27.7183 3.03344 28.3835 4.63446 28.3875 6.305V12.605H22.085ZM22.085 15.7825C23.7551 15.7871 25.3555 16.4526 26.5364 17.6336C27.7174 18.8145 28.3829 20.4149 28.3875 22.085C28.3829 23.7551 27.7174 25.3555 26.5364 26.5364C25.3555 27.7174 23.7551 28.3829 22.085 28.3875H6.305C4.63446 28.3835 3.03344 27.7183 1.85195 26.5373C0.670459 25.3563 0.00462103 23.7555 0 22.085C0.00462103 20.4145 0.670459 18.8137 1.85195 17.6327C3.03344 16.4517 4.63446 15.7865 6.305 15.7825H22.085ZM47.39 22.085C47.3946 20.4145 48.0605 18.8137 49.2419 17.6327C50.4234 16.4517 52.0245 15.7865 53.695 15.7825C55.3655 15.7865 56.9666 16.4517 58.1481 17.6327C59.3295 18.8137 59.9954 20.4145 60 22.085C59.9954 23.7555 59.3295 25.3563 58.1481 26.5373C56.9666 27.7183 55.3655 28.3835 53.695 28.3875H47.39V22.085ZM44.22 22.085C44.2154 23.756 43.5492 25.3571 42.3672 26.5382C41.1851 27.7193 39.5835 28.3842 37.9125 28.3875C36.2426 28.3829 34.6425 27.7173 33.4619 26.5363C32.2814 25.3553 31.6165 23.7549 31.6125 22.085V6.305C31.6158 4.63469 32.2804 3.03366 33.4611 1.8521C34.6417 0.670542 36.2422 0.00462365 37.9125 0C39.5839 0.00330109 41.1859 0.668556 42.368 1.85019C43.5501 3.03182 44.216 4.6336 44.22 6.305V22.085ZM37.9125 47.39C39.5839 47.3933 41.1859 48.0586 42.368 49.2402C43.5501 50.4218 44.216 52.0236 44.22 53.695C44.216 55.3664 43.5501 56.9682 42.368 58.1498C41.1859 59.3314 39.5839 59.9967 37.9125 60C36.2422 59.9954 34.6417 59.3295 33.4611 58.1479C32.2804 56.9663 31.6158 55.3653 31.6125 53.695V47.39H37.9125ZM37.9125 44.22C36.2418 44.2154 34.6409 43.5491 33.4602 42.367C32.2795 41.1849 31.6151 39.5832 31.6125 37.9125C31.6165 36.2429 32.2815 34.6427 33.4621 33.4621C34.6427 32.2815 36.2429 31.6165 37.9125 31.6125H53.695C55.3653 31.6158 56.9663 32.2804 58.1479 33.4611C59.3295 34.6417 59.9954 36.2422 60 37.9125C59.9967 39.5839 59.3314 41.1859 58.1498 42.368C56.9682 43.5501 55.3664 44.216 53.695 44.22H37.9125Z" fill="#282928"/>
</g>
<defs>
<clipPath id="clip0_6723_1753">
<rect width="60" height="60" fill="white"/>
</clipPath>
</defs>
</svg>
