<svg width="60" height="60" viewBox="0 0 60 60" fill="none" xmlns="http://www.w3.org/2000/svg">
<rect width="60" height="60" rx="30" fill="#FDBC33"/>
<path d="M42.7355 35.298V25.7039C43.9418 25.451 44.8504 24.3792 44.8504 23.099C44.8504 21.6313 43.6564 20.4372 42.1886 20.4372C41.4067 20.4372 40.7025 20.7762 40.2151 21.3149L32.0247 16.5366C32.1127 16.2725 32.1612 15.9903 32.1612 15.6969C32.1612 14.2292 30.9672 13.0352 29.4994 13.0352C28.0317 13.0352 26.8376 14.2292 26.8376 15.6969C26.8376 15.9903 26.886 16.2725 26.9742 16.5366L18.7837 21.3149C18.2963 20.7762 17.5922 20.4372 16.8102 20.4372C15.3425 20.4372 14.1484 21.6313 14.1484 23.099C14.1484 24.3793 15.0571 25.4511 16.2633 25.7039V35.298C15.0571 35.551 14.1484 36.6228 14.1484 37.9031C14.1484 39.3707 15.3425 40.5648 16.8102 40.5648C17.5922 40.5648 18.2963 40.2259 18.7837 39.6872L26.9742 44.4655C26.8861 44.7296 26.8376 45.0118 26.8376 45.3052C26.8376 46.7728 28.0317 47.9669 29.4994 47.9669C30.9672 47.9669 32.1612 46.7729 32.1612 45.3052C32.1612 45.0118 32.1128 44.7296 32.0247 44.4655L40.2151 39.6872C40.7025 40.2259 41.4067 40.5648 42.1886 40.5648C43.6564 40.5648 44.8504 39.3708 44.8504 37.9031C44.8504 36.6228 43.9418 35.551 42.7355 35.298ZM39.5269 37.903C39.5269 38.1964 39.5753 38.4785 39.6634 38.7427L31.473 43.521C30.9856 42.9823 30.2815 42.6433 29.4995 42.6433C28.7175 42.6433 28.0134 42.9823 27.526 43.521L19.3355 38.7427C19.4236 38.4785 19.4721 38.1964 19.4721 37.903C19.4721 36.6227 18.5634 35.5509 17.3572 35.298V25.7039C18.5634 25.451 19.4721 24.3792 19.4721 23.099C19.4721 22.8056 19.4237 22.5234 19.3355 22.2593L27.526 17.481C28.0134 18.0196 28.7175 18.3586 29.4995 18.3586C30.2815 18.3586 30.9856 18.0196 31.473 17.481L39.6634 22.2593C39.5754 22.5234 39.5269 22.8056 39.5269 23.099C39.5269 24.3793 40.4356 25.4511 41.6418 25.7039V35.298C40.4355 35.551 39.5269 36.6228 39.5269 37.903Z" fill="#282928"/>
<path d="M30.0469 39.2778L37.1733 35.2056C37.3438 35.1083 37.4489 34.927 37.4489 34.7308V26.7344L30.0469 30.8237V39.2778Z" fill="#282928"/>
<path d="M21.5508 34.732C21.5508 34.9282 21.6559 35.1095 21.8263 35.2068L28.9528 39.279V30.8203L21.5508 26.6094V34.732Z" fill="#282928"/>
<path d="M29.7725 21.5681C29.6044 21.4721 29.3979 21.4721 29.2298 21.5681L22.082 25.6526L29.505 29.8755L37.0326 25.7169L29.7725 21.5681Z" fill="#282928"/>
</svg>
