<svg width="60" height="60" viewBox="0 0 60 60" fill="none" xmlns="http://www.w3.org/2000/svg">
<g clip-path="url(#clip0_6723_1751)">
<path d="M29.86 8.16668e-05C21.9278 0.0370991 14.3331 3.21414 8.73724 8.83622C3.14139 14.4583 -8.63726e-05 22.0678 1.78109e-09 30.0001C1.7811e-09 37.9566 3.1607 45.5872 8.7868 51.2133C14.4129 56.8394 22.0435 60.0001 30 60.0001C37.9565 60.0001 45.5871 56.8394 51.2132 51.2133C56.8393 45.5872 60 37.9566 60 30.0001C60 22.0436 56.8393 14.413 51.2132 8.78688C45.5871 3.16079 37.9565 8.16668e-05 30 8.16668e-05C29.9533 -2.72223e-05 29.9067 -2.72223e-05 29.86 8.16668e-05ZM42.265 18.0601C42.515 18.0551 43.0675 18.1176 43.4275 18.4101C43.6667 18.6178 43.8193 18.9078 43.855 19.2226C43.895 19.4551 43.945 19.9876 43.905 20.4026C43.455 25.1476 41.5 36.6576 40.505 41.9701C40.085 44.2201 39.2575 44.9726 38.455 45.0451C36.715 45.2076 35.3925 43.8951 33.705 42.7901C31.065 41.0576 29.5725 39.9801 27.01 38.2901C24.0475 36.3401 25.9675 35.2651 27.655 33.5151C28.0975 33.0551 35.7725 26.0726 35.9225 25.4401C35.94 25.3601 35.9575 25.0651 35.7825 24.9101C35.6075 24.7551 35.3475 24.8076 35.16 24.8501C34.895 24.9101 30.6775 27.7001 22.5075 33.2126C21.3075 34.0376 20.225 34.4376 19.2525 34.4126C18.1825 34.3926 16.1225 33.8101 14.59 33.3126C12.71 32.7001 11.2175 32.3776 11.3475 31.3401C11.415 30.8001 12.16 30.2476 13.58 29.6826C22.325 25.8726 28.155 23.3601 31.075 22.1476C39.405 18.6826 41.1375 18.0801 42.265 18.0601Z" fill="#282928"/>
</g>
<defs>
<clipPath id="clip0_6723_1751">
<rect width="60" height="60" fill="white"/>
</clipPath>
</defs>
</svg>
