<svg width="60" height="60" viewBox="0 0 60 60" fill="none" xmlns="http://www.w3.org/2000/svg">
<g clip-path="url(#clip0_6723_1757)">
<path fill-rule="evenodd" clip-rule="evenodd" d="M57.918 19.006C59.262 22.41 60 26.12 60 30C60 33.88 59.262 37.59 57.918 40.994C53.476 39.636 48.326 38.59 42.714 37.952C42.9 35.394 43 32.732 43 30C43 27.268 42.9 24.606 42.714 22.048C48.326 21.41 53.476 20.364 57.918 19.006ZM2.082 40.994C0.738001 37.59 0 33.88 0 30C0 26.12 0.738001 22.41 2.082 19.006C6.524 20.364 11.674 21.41 17.286 22.048C17.1 24.606 17 27.268 17 30C17 32.732 17.1 35.394 17.286 37.952C11.674 38.59 6.524 39.636 2.082 40.994ZM38.736 37.576C35.912 37.362 32.99 37.248 30 37.248C27.01 37.248 24.088 37.362 21.264 37.576C21.092 35.14 21 32.604 21 30C21 27.396 21.092 24.86 21.264 22.424C24.088 22.638 27.01 22.752 30 22.752C32.99 22.752 35.912 22.638 38.736 22.424C38.908 24.86 39 27.396 39 30C39 32.604 38.908 35.14 38.736 37.576ZM56.076 44.834C52.26 51.526 45.942 56.608 38.4 58.806C40.16 54.596 41.544 48.828 42.318 42.156C47.364 42.728 52.016 43.644 56.076 44.834ZM33.396 59.81C32.282 59.936 31.148 60 30 60C28.852 60 27.718 59.936 26.604 59.81C26.158 59.07 25.732 58.22 25.326 57.276C23.66 53.402 22.376 48.028 21.654 41.784C24.354 41.582 27.144 41.478 30 41.478C32.856 41.478 35.646 41.582 38.346 41.784C37.624 48.028 36.34 53.402 34.674 57.276C34.268 58.22 33.842 59.07 33.396 59.81ZM21.6 58.806C14.058 56.608 7.74 51.526 3.924 44.834C7.984 43.644 12.636 42.728 17.682 42.156C18.456 48.828 19.84 54.596 21.6 58.806ZM3.924 15.166C7.74 8.474 14.058 3.392 21.6 1.194C19.84 5.404 18.456 11.172 17.682 17.844C12.636 17.272 7.984 16.356 3.924 15.166ZM26.604 0.190002C27.718 0.0640024 28.852 0 30 0C31.148 0 32.282 0.0640024 33.396 0.190002C33.842 0.930002 34.268 1.78 34.674 2.724C36.34 6.598 37.624 11.972 38.346 18.216C35.646 18.418 32.856 18.522 30 18.522C27.144 18.522 24.354 18.418 21.654 18.216C22.376 11.972 23.66 6.598 25.326 2.724C25.732 1.78 26.158 0.930002 26.604 0.190002ZM38.4 1.194C45.942 3.392 52.26 8.474 56.076 15.166C52.016 16.356 47.364 17.272 42.318 17.844C41.544 11.172 40.16 5.404 38.4 1.194Z" fill="#282928"/>
</g>
<defs>
<clipPath id="clip0_6723_1757">
<rect width="60" height="60" fill="white"/>
</clipPath>
</defs>
</svg>
