<svg width="60" height="60" viewBox="0 0 60 60" fill="none" xmlns="http://www.w3.org/2000/svg">
<g clip-path="url(#clip0_6723_1749)">
<path d="M43.6781 35.9551C42.9356 35.5826 39.2831 33.7876 38.6031 33.5376C37.9206 33.2901 37.4256 33.1676 36.9281 33.9126C36.4356 34.6551 35.0106 36.3276 34.5781 36.8226C34.1456 37.3201 33.7106 37.3801 32.9681 37.0101C32.2256 36.6351 29.8306 35.8526 26.9931 33.3226C24.7856 31.3526 23.2931 28.9201 22.8606 28.1751C22.4281 27.4326 22.8156 27.0301 23.1856 26.6601C23.5206 26.3276 23.9306 25.7926 24.3006 25.3601C24.6731 24.9251 24.7956 24.6151 25.0456 24.1176C25.2931 23.6226 25.1706 23.1901 24.9831 22.8176C24.7956 22.4451 23.3106 18.7876 22.6931 17.3001C22.0881 15.8526 21.4756 16.0501 21.0206 16.0251C20.5881 16.0051 20.0931 16.0001 19.5956 16.0001C19.1006 16.0001 18.2956 16.1851 17.6156 16.9301C16.9356 17.6726 15.0156 19.4701 15.0156 23.1276C15.0156 26.7826 17.6781 30.3151 18.0481 30.8126C18.4206 31.3076 23.2881 38.8126 30.7406 42.0301C32.5131 42.7951 33.8956 43.2526 34.9756 43.5926C36.7556 44.1601 38.3756 44.0801 39.6531 43.8876C41.0806 43.6751 44.0481 42.0901 44.6681 40.3551C45.2881 38.6201 45.2881 37.1326 45.1006 36.8226C44.9156 36.5126 44.4231 36.3276 43.6781 35.9551ZM30.1231 54.4626H30.1131C25.6875 54.463 21.3433 53.2731 17.5356 51.0176L16.6331 50.4826L7.28063 52.9376L9.77563 43.8176L9.18813 42.8826C6.71422 38.9433 5.40548 34.3843 5.41312 29.7326C5.41562 16.1076 16.5031 5.0226 30.1331 5.0226C36.7331 5.0226 42.9381 7.5976 47.6031 12.2676C49.9048 14.5591 51.7292 17.2844 52.9706 20.2857C54.2121 23.287 54.846 26.5047 54.8356 29.7526C54.8281 43.3776 43.7431 54.4626 30.1231 54.4626ZM51.1556 8.7201C48.4011 5.94741 45.1237 3.74894 41.5133 2.2521C37.903 0.755262 34.0315 -0.0101906 30.1231 0.000102444C13.7356 0.000102444 0.398125 13.3376 0.390625 29.7301C0.390625 34.9701 1.75812 40.0851 4.36062 44.5926L0.140625 60.0001L15.9031 55.8651C20.2621 58.2399 25.1467 59.4845 30.1106 59.4851H30.1231C46.5081 59.4851 59.8481 46.1476 59.8556 29.7526C59.8677 25.8458 59.105 21.9754 57.6117 18.3652C56.1184 14.755 53.924 11.4768 51.1556 8.7201Z" fill="#282928"/>
</g>
<defs>
<clipPath id="clip0_6723_1749">
<rect width="60" height="60" fill="white"/>
</clipPath>
</defs>
</svg>
