<svg width="60" height="60" viewBox="0 0 60 60" fill="none" xmlns="http://www.w3.org/2000/svg">
<path d="M33.75 11.25H27.1875C26.6693 11.25 26.25 11.6698 26.25 12.1875C26.25 12.7052 26.6693 13.125 27.1875 13.125H33.75C34.2682 13.125 34.6875 12.7052 34.6875 12.1875C34.6875 11.6698 34.2682 11.25 33.75 11.25Z" fill="#282928"/>
<path d="M38.4375 11.25H37.5C36.9818 11.25 36.5625 11.6698 36.5625 12.1875C36.5625 12.7052 36.9818 13.125 37.5 13.125H38.4375C38.9557 13.125 39.375 12.7052 39.375 12.1875C39.375 11.6698 38.9557 11.25 38.4375 11.25Z" fill="#282928"/>
<path d="M43.125 11.25H42.1875C41.6693 11.25 41.25 11.6698 41.25 12.1875C41.25 12.7052 41.6693 13.125 42.1875 13.125H43.125C43.6432 13.125 44.0625 12.7052 44.0625 12.1875C44.0625 11.6698 43.6432 11.25 43.125 11.25Z" fill="#282928"/>
<path d="M28.125 30.9375H29.0625C29.5807 30.9375 30 30.5177 30 30C30 29.4823 29.5807 29.0625 29.0625 29.0625H28.125C27.6068 29.0625 27.1875 29.4823 27.1875 30C27.1875 30.5177 27.6068 30.9375 28.125 30.9375Z" fill="#282928"/>
<path d="M23.4375 30.9375H24.375C24.8932 30.9375 25.3125 30.5177 25.3125 30C25.3125 29.4823 24.8932 29.0625 24.375 29.0625H23.4375C22.9193 29.0625 22.5 29.4823 22.5 30C22.5 30.5177 22.9193 30.9375 23.4375 30.9375Z" fill="#282928"/>
<path d="M27.1875 46.875H26.25C25.7318 46.875 25.3125 47.2948 25.3125 47.8125C25.3125 48.3302 25.7318 48.75 26.25 48.75H27.1875C27.7057 48.75 28.125 48.3302 28.125 47.8125C28.125 47.2948 27.7057 46.875 27.1875 46.875Z" fill="#282928"/>
<path d="M31.875 46.875H30.9375C30.4193 46.875 30 47.2948 30 47.8125C30 48.3302 30.4193 48.75 30.9375 48.75H31.875C32.3932 48.75 32.8125 48.3302 32.8125 47.8125C32.8125 47.2948 32.3932 46.875 31.875 46.875Z" fill="#282928"/>
<path d="M47.8125 38.4375C42.9599 38.4375 38.9571 42.1441 38.4851 46.875H36.5625V43.125C36.5625 42.0909 35.7211 41.25 34.6875 41.25H14.0625C13.0289 41.25 12.1875 42.0909 12.1875 43.125V46.8513C8.01235 46.6065 4.6875 43.1421 4.6875 38.9062C4.6875 34.5122 8.26264 30.9375 12.6562 30.9375H18.75V34.6875C18.75 35.7216 19.5914 36.5625 20.625 36.5625H41.25C42.2836 36.5625 43.125 35.7216 43.125 34.6875V30.9375H47.3438C52.7719 30.9375 57.1875 26.5215 57.1875 21.0938C57.1875 15.8243 53.0223 11.5209 47.8125 11.2737V7.5C47.8125 6.46591 47.0041 5.625 46.0098 5.625H25.2402C24.2459 5.625 23.4375 6.46591 23.4375 7.5V11.25H21.5625V10.3125C21.5625 9.83963 21.21 9.44092 20.7413 9.38232L19.3735 9.21112L20.2194 8.12256C20.5096 7.74948 20.4767 7.21847 20.1425 6.88431L17.4911 4.23293C17.1561 3.89876 16.626 3.86581 16.2524 4.15557L15.1639 5.00244L14.9927 3.63373C14.9341 3.16452 14.5349 2.8125 14.0625 2.8125H10.3125C9.84008 2.8125 9.44092 3.16452 9.38232 3.63373L9.21113 5.00244L8.12256 4.15558C7.74903 3.86581 7.21894 3.89877 6.88385 4.23294L4.23248 6.88431C3.89831 7.21848 3.86536 7.74948 4.15558 8.12256L5.00152 9.21112L3.63373 9.38232C3.16498 9.44092 2.8125 9.83962 2.8125 10.3125V14.0625C2.8125 14.5354 3.16406 14.9341 3.63373 14.9927L5.00152 15.1639L4.15558 16.2524C3.86536 16.6255 3.89832 17.1565 4.23248 17.4907L6.88386 20.1425C7.21894 20.4776 7.74903 20.5096 8.12257 20.2199L9.21113 19.373L9.38233 20.7413C9.44092 21.2105 9.84008 21.5625 10.3125 21.5625H14.0625C14.5349 21.5625 14.9341 21.2105 14.9927 20.7413L15.1639 19.373L16.2524 20.2199C16.626 20.5096 17.1561 20.4776 17.4912 20.1425L20.1425 17.4907C20.4767 17.1565 20.5097 16.6255 20.2194 16.2524L19.3735 15.1639L20.7413 14.9927C21.2109 14.9341 21.5625 14.5354 21.5625 14.0625V13.125H23.4375V16.875C23.4375 17.9091 24.2459 18.75 25.2402 18.75H46.0098C47.0041 18.75 47.8125 17.9091 47.8125 16.875V13.1487C51.9876 13.3935 55.3125 16.8579 55.3125 21.0938C55.3125 25.4878 51.7374 29.0625 47.3438 29.0625H43.125V25.3125C43.125 24.2784 42.2836 23.4375 41.25 23.4375H20.625C19.5914 23.4375 18.75 24.2784 18.75 25.3125V29.0625H12.6562C7.22809 29.0625 2.8125 33.4785 2.8125 38.9062C2.8125 44.1757 6.97769 48.4791 12.1875 48.7263V52.5C12.1875 53.5341 13.0289 54.375 14.0625 54.375H34.6875C35.7211 54.375 36.5625 53.5341 36.5625 52.5V48.75H38.4851C38.9571 53.4809 42.9599 57.1875 47.8125 57.1875C52.9816 57.1875 57.1875 52.982 57.1875 47.8125C57.1875 42.643 52.9816 38.4375 47.8125 38.4375ZM19.6875 13.2349L17.5049 13.5081C17.1707 13.5498 16.8842 13.7682 16.7551 14.0794C16.626 14.3912 16.6745 14.7478 16.8814 15.0137L18.2318 16.75L16.7505 18.2318L15.0137 16.881C14.7482 16.6745 14.3912 16.6255 14.079 16.7551C13.7677 16.8842 13.5498 17.1703 13.5077 17.5049L13.2349 19.6875H11.1401L10.8673 17.5049C10.8252 17.1703 10.6073 16.8842 10.296 16.7551C9.98564 16.6255 9.62767 16.6731 9.36125 16.881L7.62449 18.2318L6.14317 16.75L7.49357 15.0137C7.70048 14.7478 7.749 14.3912 7.61992 14.0794C7.49082 13.7682 7.20427 13.5498 6.8701 13.5081L4.6875 13.2349V11.1401L6.87012 10.8673C7.20429 10.8257 7.49085 10.6073 7.61993 10.296C7.74903 9.98427 7.7005 9.62767 7.49359 9.36172L6.14318 7.62497L7.62451 6.14364L9.36127 7.49451C9.62768 7.70141 9.98474 7.74994 10.296 7.62039C10.6073 7.4913 10.8252 7.2052 10.8673 6.87058L11.1401 4.68751H13.2349L13.5077 6.87057C13.5498 7.20519 13.7677 7.4913 14.079 7.62038C14.3903 7.74902 14.7473 7.70095 15.0137 7.4945L16.7505 6.14363L18.2318 7.62496L16.8814 9.36172C16.6745 9.62767 16.626 9.98427 16.7551 10.296C16.8842 10.6073 17.1707 10.8256 17.5049 10.8673L19.6875 11.1401V13.2349ZM25.3125 16.875L25.2777 12.3602C25.2889 12.3022 25.3125 12.2488 25.3125 12.1875C25.3125 12.1213 25.2879 12.0633 25.2749 12.001L25.2402 7.5H45.9375L45.932 16.875H25.3125ZM20.625 25.3125H41.25V34.6875H20.625L20.6245 30.0023C20.6245 30.0015 20.625 30.0008 20.625 30C20.625 29.9992 20.6245 29.9985 20.6245 29.9977L20.625 25.3125ZM14.0625 52.5V43.125H34.6875L34.6884 47.808C34.6884 47.8096 34.6875 47.8109 34.6875 47.8125C34.6875 47.8141 34.6884 47.8154 34.6884 47.817L34.6893 52.5H14.0625ZM47.8125 55.3125C43.6771 55.3125 40.3125 51.9479 40.3125 47.8125C40.3125 43.6771 43.6771 40.3125 47.8125 40.3125C51.9479 40.3125 55.3125 43.6771 55.3125 47.8125C55.3125 51.9479 51.9479 55.3125 47.8125 55.3125Z" fill="#282928"/>
<path d="M12.1875 8.4375C10.1193 8.4375 8.4375 10.1198 8.4375 12.1875C8.4375 14.2552 10.1193 15.9375 12.1875 15.9375C14.2557 15.9375 15.9375 14.2552 15.9375 12.1875C15.9375 10.1198 14.2557 8.4375 12.1875 8.4375ZM12.1875 14.0625C11.1539 14.0625 10.3125 13.2216 10.3125 12.1875C10.3125 11.1534 11.1539 10.3125 12.1875 10.3125C13.2211 10.3125 14.0625 11.1534 14.0625 12.1875C14.0625 13.2216 13.2211 14.0625 12.1875 14.0625Z" fill="#282928"/>
<path d="M50.842 44.3997L46.8118 49.2359L44.7253 47.149C44.3591 46.7828 43.7659 46.7828 43.3997 47.149C43.0334 47.5148 43.0334 48.1085 43.3997 48.4747L46.2122 51.2876C46.3879 51.4639 46.6269 51.5623 46.875 51.5623C46.8887 51.5623 46.9034 51.5618 46.9171 51.5614C47.1808 51.5495 47.4262 51.4273 47.5955 51.2249L52.283 45.5999C52.6144 45.2021 52.5604 44.6112 52.1631 44.2797C51.7639 43.9479 51.1734 44.0028 50.842 44.3997Z" fill="#282928"/>
<path d="M32.8125 30.9375H38.4375C38.9557 30.9375 39.375 30.5177 39.375 30C39.375 29.4823 38.9557 29.0625 38.4375 29.0625H32.8125C32.2943 29.0625 31.875 29.4823 31.875 30C31.875 30.5177 32.2943 30.9375 32.8125 30.9375Z" fill="#282928"/>
<path d="M22.5 46.875H16.875C16.3568 46.875 15.9375 47.2948 15.9375 47.8125C15.9375 48.3302 16.3568 48.75 16.875 48.75H22.5C23.0182 48.75 23.4375 48.3302 23.4375 47.8125C23.4375 47.2948 23.0182 46.875 22.5 46.875Z" fill="#282928"/>
</svg>
