<svg xmlns="http://www.w3.org/2000/svg" width="60" height="60" fill="none"><g clip-path="url(#a)"><path fill="#282928" d="M16.005 37.748H50.22a4.89 4.89 0 0 0 4.764-3.743l4.98-20.434a1.406 1.406 0 0 0-1.366-1.739H12.754l-1.98-8.312a1.406 1.406 0 0 0-1.367-1.08H3.52a1.406 1.406 0 0 0 0 2.812h4.776l1.567 6.58H1.398a1.406 1.406 0 1 0 0 2.813h55.41L52.25 33.339a2.06 2.06 0 0 1-2.032 1.596H16.005a5.44 5.44 0 0 0-5.433 5.432 5.44 5.44 0 0 0 5.433 5.432h.508a6.13 6.13 0 0 0-3.744 5.641 6.13 6.13 0 0 0 6.122 6.122 6.13 6.13 0 0 0 6.122-6.122 6.13 6.13 0 0 0-3.744-5.64h26.956a6.13 6.13 0 0 0-3.744 5.64 6.13 6.13 0 0 0 6.122 6.122 6.13 6.13 0 0 0 6.122-6.122 6.13 6.13 0 0 0-3.744-5.64h2.01a1.406 1.406 0 0 0 0-2.813H16.005a2.623 2.623 0 0 1-2.62-2.62 2.623 2.623 0 0 1 2.62-2.62M18.89 54.75a3.313 3.313 0 0 1-3.31-3.31 3.313 3.313 0 0 1 3.31-3.309 3.313 3.313 0 0 1 3.31 3.31 3.313 3.313 0 0 1-3.31 3.309m31.712 0a3.313 3.313 0 0 1-3.31-3.31 3.313 3.313 0 0 1 3.31-3.309 3.313 3.313 0 0 1 3.31 3.31 3.313 3.313 0 0 1-3.31 3.309M10.001 22.346a1.406 1.406 0 0 1 0-2.813h17.177a1.406 1.406 0 0 1 0 2.813zm9.388 7.7H2.362a1.406 1.406 0 0 1 0-2.812h17.027a1.406 1.406 0 0 1 0 2.813"/></g><defs><clipPath id="a"><path fill="#fff" d="M0 0h60v60H0z"/></clipPath></defs></svg>