<svg xmlns="http://www.w3.org/2000/svg" width="60" height="60" fill="none"><path fill="#282928" d="M26.25 56.25h7.5a.938.938 0 0 0 0-1.875h-7.5a.938.938 0 0 0 0 1.875M26.25 5.625a.937.937 0 1 0 0-1.875.937.937 0 0 0 0 1.875M30 5.625a.937.937 0 1 0 0-1.875.937.937 0 0 0 0 1.875M33.75 5.625a.937.937 0 1 0 0-1.875.937.937 0 0 0 0 1.875"/><path fill="#282928" d="M46.875 3.75c0-2.07-1.664-3.75-3.718-3.75H16.843c-2.054 0-3.718 1.68-3.718 3.75v22.261A3.96 3.96 0 0 1 15 25.454V9.375h30v16.08c.687.029 1.328.228 1.875.556zM45 7.5H15V3.75c0-1.034.827-1.875 1.843-1.875h26.315c1.015 0 1.842.84 1.842 1.875zM13.125 33.988V56.25c0 2.071 1.664 3.75 3.718 3.75h26.315c2.053 0 3.718-1.679 3.718-3.75V33.99a3.97 3.97 0 0 1-1.875.556v16.08H15v-16.08a3.97 3.97 0 0 1-1.875-.557M45 52.5v3.75c0 1.034-.827 1.875-1.843 1.875H16.843c-1.016 0-1.843-.84-1.843-1.875V52.5z"/><path fill="#282928" d="M30 22.5a7.5 7.5 0 1 0 0 15 7.5 7.5 0 0 0 0-15m0 13.125A5.63 5.63 0 0 1 24.375 30 5.63 5.63 0 0 1 30 24.375 5.63 5.63 0 0 1 35.625 30 5.63 5.63 0 0 1 30 35.625"/><path fill="#282928" d="M46.875 29.063c0-1.036-.746-1.875-1.667-1.875H42.82a13 13 0 0 0-1.767-4.263l1.69-1.69c.652-.651.585-1.772-.147-2.505l-1.326-1.325a1.98 1.98 0 0 0-1.387-.596 1.56 1.56 0 0 0-1.117.448l-1.69 1.69a13 13 0 0 0-4.263-1.767v-2.389c0-.92-.839-1.666-1.874-1.666h-1.875c-1.036 0-1.875.746-1.875 1.667v2.389c-1.54.336-2.977.943-4.263 1.767l-1.69-1.69c-.3-.301-.7-.449-1.117-.449-.486 0-.993.202-1.388.596l-1.325 1.326c-.733.732-.799 1.853-.148 2.504l1.69 1.69a13 13 0 0 0-1.767 4.263h-2.389c-.92 0-1.666.839-1.666 1.875v1.875c0 1.035.746 1.875 1.667 1.875h2.389c.336 1.539.943 2.976 1.767 4.262l-1.69 1.69c-.652.651-.585 1.772.147 2.505l1.326 1.325c.394.395.902.596 1.387.596a1.56 1.56 0 0 0 1.117-.448l1.69-1.69a13 13 0 0 0 4.263 1.767v2.389c0 .92.84 1.666 1.875 1.666h1.875c1.035 0 1.875-.746 1.875-1.666v-2.39a13 13 0 0 0 4.262-1.767l1.69 1.691c.301.3.701.448 1.118.448.485 0 .992-.202 1.387-.596l1.326-1.325c.732-.733.798-1.854.147-2.505l-1.69-1.69a13 13 0 0 0 1.767-4.263h2.39c.92 0 1.666-.839 1.666-1.874zM45 30.938h-3.69l-.323 1.475a11.1 11.1 0 0 1-1.513 3.65l-.815 1.27 1.068 1.067 1.543 1.543-1.326 1.326-1.544-1.543-1.066-1.067-1.271.814a11.1 11.1 0 0 1-3.65 1.514l-1.475.323V45h-1.875v-3.69l-1.476-.323a11.1 11.1 0 0 1-3.65-1.513l-1.27-.815-1.068 1.068-1.543 1.543-1.325-1.326 1.542-1.544 1.068-1.066-.815-1.271a11.1 11.1 0 0 1-1.514-3.65l-.322-1.475H15v-1.875h3.69l.322-1.476a11.1 11.1 0 0 1 1.514-3.65l.815-1.27-1.068-1.068-1.543-1.543 1.325-1.325h.001l1.543 1.542 1.067 1.068 1.271-.815a11.1 11.1 0 0 1 3.65-1.514l1.476-.322V15h1.875v3.69l1.475.322c1.297.284 2.525.793 3.65 1.514l1.27.815 1.067-1.068 1.543-1.543 1.326 1.325v.001L39.726 21.6l-1.067 1.067.814 1.271a11.1 11.1 0 0 1 1.514 3.65l.323 1.476H45z"/></svg>