<svg xmlns="http://www.w3.org/2000/svg" width="60" height="60" fill="none"><g fill="#282928" clip-path="url(#a)"><path d="m59.698 23.08-11.083-9.614a.877.877 0 0 0-1.451.662v5.006l-4.433.001h-.02a16.67 16.67 0 0 0-8.455 2.06V12.78h5.487a.876.876 0 0 0 .654-1.46L30.655.383a.876.876 0 0 0-1.309 0l-9.742 10.938a.877.877 0 0 0 .654 1.459h5.487v3.859a.877.877 0 0 0 1.753 0v-4.735a.876.876 0 0 0-.877-.877h-4.408L30 2.284l7.788 8.743H33.38a.876.876 0 0 0-.877.877v10.408q-.924.673-1.761 1.48a16.4 16.4 0 0 0-3.244 4.35v-7.997a.876.876 0 1 0-1.753 0v12.304a16.64 16.64 0 0 0-8.454-2.06l-.02.001-4.435-.001v-5.006a.876.876 0 0 0-1.451-.662L.302 34.335a.876.876 0 0 0 0 1.324l3.414 2.96a.876.876 0 1 0 1.148-1.324l-2.65-2.299 8.87-7.693v3.961c0 .484.391.877.875.877l5.322.002h.016l.03-.001c4.031-.088 7.837 1.39 10.714 4.165 2.847 2.745 4.427 6.409 4.46 10.33v2.077c0 .484.393.876.877.876h.001a.877.877 0 0 0 .877-.876v-1.95l-.001-.128V35.51a7.84 7.84 0 0 1 2.427-5.687 8.07 8.07 0 0 1 5.824-2.269h.019l4.639-.001v5.803a.876.876 0 0 0 1.45.662l11.084-9.614a.877.877 0 0 0 0-1.324m-10.781 8.355v-4.759a.877.877 0 0 0-.876-.876l-5.508.002a9.84 9.84 0 0 0-7.068 2.759 9.58 9.58 0 0 0-2.963 6.949v3.902a16.4 16.4 0 0 0-3.244-4.366 17 17 0 0 0-1.644-1.394c.416-3.288 1.913-6.254 4.345-8.6 2.877-2.774 6.681-4.256 10.723-4.164h.038l5.32-.002a.876.876 0 0 0 .877-.876V16.05l8.869 7.693z"/><path d="M33.38 51.344a.876.876 0 0 0-.877.876v5.936h-5.005V46.765a9.58 9.58 0 0 0-2.963-6.949 9.83 9.83 0 0 0-7.068-2.76l-5.507-.001a.876.876 0 0 0-.877.876v4.76l-3.57-3.097a.877.877 0 0 0-1.148 1.324l5.02 4.355a.877.877 0 0 0 1.45-.662v-5.803l4.64.002h.019a8.08 8.08 0 0 1 5.824 2.268 7.84 7.84 0 0 1 2.427 5.687v12.268c0 .484.392.876.876.876h6.758a.876.876 0 0 0 .877-.876V52.22a.876.876 0 0 0-.876-.876"/></g><defs><clipPath id="a"><path fill="#fff" d="M0 0h60v60H0z"/></clipPath></defs></svg>