<svg xmlns="http://www.w3.org/2000/svg" width="60" height="60" fill="none"><path fill="#282928" d="M41.374 58.594H17.22a5.507 5.507 0 0 1-5.501-5.501V6.673a5.507 5.507 0 0 1 5.501-5.501h24.154a5.507 5.507 0 0 1 5.501 5.501v46.42a5.51 5.51 0 0 1-5.501 5.5M17.22 3.516a3.16 3.16 0 0 0-3.157 3.157v46.42a3.16 3.16 0 0 0 3.157 3.157h24.154a3.16 3.16 0 0 0 3.157-3.157V6.673a3.16 3.16 0 0 0-3.157-3.157z"/><path fill="#282928" d="M45.703 10.547H12.891a1.172 1.172 0 0 1 0-2.344h32.812a1.172 1.172 0 0 1 0 2.344M45.703 51.563H12.891a1.172 1.172 0 0 1 0-2.344h32.812a1.172 1.172 0 0 1 0 2.343M19.922 21.094c-.3 0-.6-.114-.829-.343l-2.343-2.344a1.17 1.17 0 0 1 0-1.657l2.343-2.344a1.172 1.172 0 0 1 1.658 1.657l-1.516 1.515 1.515 1.515a1.172 1.172 0 0 1-.828 2M30.469 21.094a1.172 1.172 0 0 1-.829-2l1.515-1.516-1.515-1.515a1.172 1.172 0 0 1 1.657-1.657l2.344 2.344c.458.457.458 1.2 0 1.657l-2.343 2.344a1.17 1.17 0 0 1-.83.343M23.437 22.266a1.172 1.172 0 0 1-1.047-1.696l3.515-7.031a1.172 1.172 0 0 1 2.097 1.048l-3.516 7.031c-.205.41-.62.648-1.05.648M32.813 29.297H18.75a1.172 1.172 0 0 1 0-2.344h14.063a1.172 1.172 0 0 1 0 2.344M32.813 33.984H18.75a1.172 1.172 0 0 1 0-2.343h14.063a1.172 1.172 0 0 1 0 2.343M39.844 38.672H18.75a1.172 1.172 0 0 1 0-2.344h21.094a1.172 1.172 0 0 1 0 2.344M39.844 43.36H18.75a1.172 1.172 0 0 1 0-2.344h21.094a1.172 1.172 0 0 1 0 2.343M55.664 10.547a1.758 1.758 0 1 0 0-3.516 1.758 1.758 0 0 0 0 3.516M5.273 48.047a1.758 1.758 0 1 0 0-3.516 1.758 1.758 0 0 0 0 3.516M2.344 24.61a1.172 1.172 0 1 0 0-2.344 1.172 1.172 0 0 0 0 2.343M52.734 25.781a1.172 1.172 0 1 0 0-2.343 1.172 1.172 0 0 0 0 2.343M8.203 11.719a1.172 1.172 0 1 0 0-2.344 1.172 1.172 0 0 0 0 2.344M53.906 50.39a1.172 1.172 0 1 0 0-2.343 1.172 1.172 0 0 0 0 2.344"/></svg>