<svg xmlns="http://www.w3.org/2000/svg" width="60" height="60" fill="none"><path fill="#282928" d="m46.365 6.306-1.478 1.64a.898.898 0 0 0 .665 1.496c.245 0 .489-.1.666-.295l1.478-1.64a.896.896 0 1 0-1.331-1.2M41.074 4.867v2.194a.896.896 0 0 0 1.793 0V4.867a.896.896 0 1 0-1.793 0M36.29 6.26a.896.896 0 0 0-.024 1.268l1.55 1.61a.894.894 0 0 0 1.267.024.896.896 0 0 0 .025-1.268l-1.55-1.61a.897.897 0 0 0-1.267-.024M10.388 55.94q.653.084 1.291.082c3.65 0 6.825-1.898 8.033-2.723 1.206.824 4.383 2.723 8.032 2.723q.638.002 1.291-.081c5.098-.66 8.604-5.22 8.75-5.413a.895.895 0 0 0-.16-1.245c-.086-.068-2.115-1.647-4.96-2.524a.896.896 0 1 0-.53 1.714c1.54.474 2.832 1.195 3.604 1.686-1.13 1.213-3.711 3.589-6.933 4.004-2.52.324-4.957-.605-6.572-1.45 2.037-.444 4.888-1.44 6.946-3.687 3.471-3.792 3.209-9.54 3.197-9.782-.027-.49-.471-.88-.927-.848-.116.004-2.887.116-5.743 1.415a.895.895 0 0 0-.444 1.187.894.894 0 0 0 1.187.444c1.581-.719 3.162-1.03 4.128-1.162-.078 1.653-.515 5.128-2.718 7.535-1.731 1.89-4.225 2.75-6.01 3.141 1.217-1.697 2.707-4.405 2.707-7.515 0-5.14-4.074-9.202-4.248-9.371a.895.895 0 0 0-1.256 0c-.174.17-4.247 4.232-4.247 9.371 0 3.11 1.49 5.818 2.706 7.515-1.785-.39-4.278-1.25-6.01-3.14-2.194-2.398-2.635-5.88-2.715-7.535.966.131 2.544.442 4.126 1.162a.897.897 0 0 0 .743-1.631c-2.857-1.3-5.627-1.413-5.744-1.416H7.88a.896.896 0 0 0-.895.848c-.012.243-.274 5.99 3.196 9.782 2.074 2.265 4.955 3.26 6.995 3.698-1.614.843-4.042 1.764-6.556 1.44-3.223-.416-5.805-2.793-6.935-4.006.765-.484 2.037-1.195 3.555-1.67a.895.895 0 1 0-.534-1.71c-2.818.879-4.823 2.438-4.907 2.505a.896.896 0 0 0-.16 1.245c.145.194 3.652 4.754 8.75 5.413m9.293-19.891c1.058 1.271 3.082 4.129 3.082 7.391 0 3.25-2.026 6.116-3.084 7.391-1.058-1.27-3.082-4.128-3.082-7.39 0-3.251 2.025-6.117 3.084-7.392"/><path fill="#282928" d="M4.495 43.515a.894.894 0 0 0-1.203.397.894.894 0 0 0 .396 1.203l1.317.663a.894.894 0 0 0 1.203-.396.894.894 0 0 0-.397-1.203zM12.627 35.202a.894.894 0 0 0-.483 1.171l.575 1.384a.894.894 0 0 0 1.171.483.894.894 0 0 0 .483-1.171l-.575-1.384a.895.895 0 0 0-1.171-.483M33.94 45.824a.9.9 0 0 0 .403-.097l1.3-.656a.897.897 0 0 0-.809-1.6l-1.3.657a.897.897 0 0 0 .406 1.696M25.503 35.669l-.57 1.368a.896.896 0 1 0 1.653.69l.57-1.368a.895.895 0 1 0-1.653-.69"/><path fill="#282928" d="M51.791 38.777a6.78 6.78 0 0 0 2.431-5.207c0-3.096-2.103-5.703-4.955-6.483a5.08 5.08 0 0 0 1.474-3.581 5.1 5.1 0 0 0-3.249-4.747 4.05 4.05 0 0 0 1.073-2.735c0-2.25-1.831-4.08-4.081-4.08H39.46c-2.25 0-4.08 1.83-4.08 4.08 0 1.056.413 2.01 1.072 2.735a5.1 5.1 0 0 0-3.25 4.747c0 1.395.565 2.66 1.475 3.58-2.85.78-4.955 3.388-4.955 6.484 0 .965.2 1.897.594 2.768a.897.897 0 0 0 1.633-.739 4.94 4.94 0 0 1 4.5-6.966h11.047a4.94 4.94 0 0 1 4.935 4.936c0 2.66-2.077 4.832-4.678 4.968H34.722a.896.896 0 0 0 0 1.793h1.663c.023.002.043.013.065.013h11.047c.087 0 .171-.01.257-.013h2.04a6.96 6.96 0 0 1 6.953 6.952c0 3.834-3.119 6.954-6.953 6.954H36.136a.896.896 0 1 0 0 1.792h13.659c4.821 0 8.745-3.923 8.745-8.746 0-4.133-2.887-7.597-6.748-8.505m-12.33-25.042h5.023a2.293 2.293 0 0 1 2.289 2.29 2.293 2.293 0 0 1-2.29 2.289h-5.022a2.293 2.293 0 0 1-2.289-2.29 2.293 2.293 0 0 1 2.29-2.29m-1.158 6.463h7.34a3.31 3.31 0 0 1 3.306 3.307 3.31 3.31 0 0 1-3.307 3.307h-7.34a3.31 3.31 0 0 1-3.306-3.306 3.31 3.31 0 0 1 3.307-3.308"/><path fill="#282928" d="M52.906 47.429a.896.896 0 0 0 1.792 0c0-3.1-2.425-5.183-6.036-5.183a.896.896 0 1 0 0 1.793c2.617-.001 4.244 1.298 4.244 3.39M48.929 34.111a.896.896 0 0 0 1.792 0c0-2.37-1.838-3.963-4.575-3.963a.896.896 0 0 0 0 1.793c1.742-.001 2.783.81 2.783 2.17M44.845 23.126c.235 0 .798.042.936.43a.895.895 0 1 0 1.69-.598c-.36-1.017-1.342-1.624-2.625-1.624a.896.896 0 0 0-.002 1.791M43.909 16.128c.183 0 .229.052.256.164a.805.805 0 1 0 1.565-.383c-.206-.848-.921-1.395-1.821-1.395a.808.808 0 0 0 0 1.614"/></svg>