<svg xmlns="http://www.w3.org/2000/svg" width="50" height="50" fill="none"><g clip-path="url(#a)"><path fill="#000" fill-rule="evenodd" d="M38.343 50c-1.319 0-2.402-.879-2.754-2.08h-6.004c0 .615.175 1.7-.762 1.7h-7.674c-.908 0-.762-1.085-.762-1.7h-6.005A2.83 2.83 0 0 1 11.658 50a2.825 2.825 0 0 1-2.84-2.841 2.825 2.825 0 0 1 2.84-2.841 2.83 2.83 0 0 1 2.724 2.08h6.005c0-2.08-.088-1.7 3.837-1.7v-3.251H2.96c-.41 0-.732-.352-.732-.762V4.13c0-.44.322-.762.732-.762h2.607V.762c0-.41.322-.762.761-.762 1.729 0 16.726-.059 17.077.059l.264.175L35.59 12.156a.75.75 0 0 1 .235.556v5.038c4.217 2.52 5.623 7.997 3.25 12.186l1.172 1.171c.293-.293.762-.263 1.055.03l6.268 6.239a.743.743 0 0 1 0 1.054l-3.368 3.368a.743.743 0 0 1-1.055 0l-6.268-6.268a.734.734 0 0 1 0-1.025l-1.054-1.055v3.896c0 .41-.323.762-.762.762h-2.578v2.577c0 .41-.351.762-.761.762h-5.976v3.251c3.925 0 3.837-.38 3.837 1.7h6.005c.352-1.202 1.436-2.08 2.754-2.08a2.844 2.844 0 0 1 2.84 2.84A2.844 2.844 0 0 1 38.344 50M34.77 18.893c-1.2-.527-2.167-.879-3.515-.879-6.532 0-10.047 8.026-5.272 12.771 2.929 2.93 7.703 2.841 10.545 0 3.573-3.573 2.606-9.578-1.758-11.892m-.469-1.846v-3.573H23.14a.775.775 0 0 1-.761-.762V1.523H7.089v35.062H34.3v-2.637c-3.222 1.172-6.97.352-9.402-2.108-5.683-5.654-1.582-15.35 6.356-15.35a8.9 8.9 0 0 1 3.046.557M31.254 30.64c-4.57 0-6.883-5.566-3.632-8.788 3.222-3.222 8.787-.937 8.787 3.632 0 2.812-2.343 5.156-5.155 5.156m0-8.788c-3.222 0-4.833 3.925-2.578 6.21 2.285 2.285 6.21.644 6.21-2.578 0-1.962-1.64-3.632-3.632-3.632m6.356 9.989-.644.615.966.966 1.26-1.26-.996-.966zm1.934 4.217 2.284-2.284-1.054-1.055-2.285 2.285zm5.36.791-2.285 2.285 1.054 1.054 2.285-2.284zm-4.277.293.908.908 2.285-2.255-.937-.937zM19.89 5.243H9.58c-.996 0-.996-1.523 0-1.523h10.31c.996 0 .996 1.523 0 1.523m0 11.394H9.58c-.996 0-.996-1.494 0-1.494h10.31c.996 0 .996 1.494 0 1.494m0-3.778H9.58c-.996 0-.996-1.523 0-1.523h10.31c.996 0 .996 1.523 0 1.523m0-3.808H9.58c-.996 0-.996-1.523 0-1.523h10.31c.996 0 .996 1.523 0 1.523m4.013 2.9h9.344l-9.344-9.344zm-9.227 13.298c-.85 0-.761-.908-.761-1.494H10.37a.756.756 0 0 1-.762-.761v-2.988c0-.41.322-.762.761-.762h3.545c0-.468-.117-1.113.41-1.406.234-.117.556-.088.79.059l4.307 2.988a.739.739 0 0 1 0 1.23l-4.306 2.988a.87.87 0 0 1-.44.146m-3.573-3.017h3.573c.44 0 .762.38.762.79l2.226-1.522-2.226-1.523c0 .41-.322.79-.762.79h-3.573zm3.573 13.24a.87.87 0 0 1-.44-.147L9.93 32.367c-.44-.322-.44-.967 0-1.26l4.306-2.988c.498-.322 1.2.03 1.2.645v.732h3.545c.41 0 .762.322.762.733v2.987c0 .41-.352.762-.762.762h-3.544c0 .586.088 1.494-.762 1.494m-2.987-3.75 2.226 1.553c0-.44.293-.82.761-.82h3.544V30.99h-3.544c-.468 0-.761-.351-.761-.79zM5.566 4.892H3.72v35.032h27.241v-1.816H6.327a.756.756 0 0 1-.761-.762zM28.09 47.188v-.967h-6.18v1.904h6.18zm-16.433-1.347c-.732 0-1.347.585-1.347 1.318 0 .732.615 1.318 1.347 1.318.733 0 1.318-.586 1.318-1.318s-.585-1.318-1.318-1.318m26.685 0c-.733 0-1.319.585-1.319 1.318 0 .732.586 1.318 1.319 1.318.732 0 1.318-.586 1.318-1.318s-.586-1.318-1.318-1.318" clip-rule="evenodd"/></g><defs><clipPath id="a"><path fill="#fff" d="M0 0h50v50H0z"/></clipPath></defs></svg>