<svg xmlns="http://www.w3.org/2000/svg" width="50" height="50" fill="none"><g fill="#000" clip-path="url(#a)"><path d="M49.219 20.313V3.125A2.347 2.347 0 0 0 46.875.781H17.188a2.347 2.347 0 0 0-2.344 2.344v3.934a12 12 0 0 0-.781-.028C6.739 7.031.78 12.99.78 20.313c0 6.245 4.339 11.483 10.157 12.894v2.73c0 .42.119.808.313 1.15a2.34 2.34 0 0 0-1.095 1.975v6.25a3.91 3.91 0 0 0 3.906 3.907 3.91 3.91 0 0 0 3.907-3.907v-6.25c0-.831-.44-1.56-1.095-1.975a2.32 2.32 0 0 0 .314-1.15v-2.73a13.3 13.3 0 0 0 7.744-5.296l.579 1.125a12 12 0 0 0-.718 1.741l-2.137.685v5.827l2.136.684q.293.91.718 1.742l-1.025 1.991 4.12 4.12 1.992-1.024a11.9 11.9 0 0 0 1.741.718l.686 2.136h5.828l.684-2.136a11.7 11.7 0 0 0 1.741-.718l1.992 1.025 4.12-4.12-1.025-1.991c.283-.553.524-1.137.718-1.742l2.137-.686v-5.827l-2.136-.684a12 12 0 0 0-.718-1.742l1.024-1.991-4.12-4.12-1.99 1.024a12 12 0 0 0-1.742-.718l-.185-.574h7.523a2.347 2.347 0 0 0 2.344-2.343m-32.031 2.343h5.13a8.55 8.55 0 0 1-8.256 6.25c-4.738 0-8.593-3.855-8.593-8.593 0-4.739 3.855-8.594 8.593-8.594q.375.002.782.044v8.55a2.347 2.347 0 0 0 2.344 2.343m-.782 22.657a2.347 2.347 0 0 1-2.343 2.343 2.347 2.347 0 0 1-2.344-2.343v-6.25c0-.432.35-.782.781-.782h3.125c.431 0 .781.35.781.782zm-.781-9.376c0 .432-.35.782-.781.782H13.28a.78.78 0 0 1-.781-.782v-2.443c.513.06 1.033.1 1.563.1.528 0 1.048-.042 1.562-.103zm-1.562-3.906c-6.462 0-11.72-5.257-11.72-11.718S7.6 8.593 14.062 8.593q.37.001.78.034v1.564a10 10 0 0 0-.78-.035c-5.6 0-10.157 4.557-10.157 10.157s4.557 10.156 10.157 10.156a10.11 10.11 0 0 0 9.865-7.813h1.6c-1.097 5.402-5.873 9.375-11.465 9.375m13.048-9.375h5.412l-.184.574a11.58 11.58 0 0 0-1.741.718l-1.992-1.025-2.176 2.176q.454-1.171.68-2.443m11.189 1.84.404.115c.772.218 1.507.521 2.185.9l.366.205 1.714-.882 2.51 2.509-.883 1.714.205.366c.38.678.683 1.414.9 2.186l.115.404 1.84.588v3.547l-1.84.59-.114.403a10 10 0 0 1-.9 2.186l-.206.365.882 1.715-2.509 2.51-1.714-.883-.366.204c-.677.38-1.412.683-2.185.902l-.404.114-.588 1.84h-3.548l-.589-1.84-.404-.115a10 10 0 0 1-2.185-.9l-.366-.205-1.715.882-2.509-2.509.883-1.715-.206-.365a10.2 10.2 0 0 1-.9-2.186l-.114-.404-1.84-.588v-3.547l1.84-.59.114-.403c.22-.774.522-1.509.9-2.186l.206-.365-.883-1.715 2.51-2.509 1.714.882.366-.204c.678-.38 1.413-.684 2.185-.901l.404-.114.588-1.84h3.548zm-5.276-3.402H17.188a.78.78 0 0 1-.782-.782V3.125c0-.43.35-.781.782-.781h29.687c.431 0 .781.35.781.781v17.188c0 .43-.35.78-.781.78H33.024"/><path d="M42.188 3.906a3.91 3.91 0 0 0-3.907 3.907c0 .437.09.851.222 1.244l-3.473 2.027a3.11 3.11 0 0 0-2.218-.928c-.753 0-1.435.278-1.974.724l-3.719-2.704a3.1 3.1 0 0 0 .225-1.145 3.13 3.13 0 0 0-3.125-3.125 3.13 3.13 0 0 0-3.125 3.125c0 1.046.52 1.969 1.312 2.536l-2.032 5.283c-.02 0-.04-.006-.061-.006a2.347 2.347 0 0 0-2.344 2.344 2.347 2.347 0 0 0 2.343 2.343 2.347 2.347 0 0 0 2.344-2.343c0-.711-.324-1.341-.825-1.772l2.037-5.296c.116.014.23.036.35.036.754 0 1.435-.278 1.976-.723l3.718 2.704c-.14.355-.224.74-.224 1.144a3.13 3.13 0 0 0 3.125 3.125 3.13 3.13 0 0 0 3.124-3.125c0-.293-.053-.572-.13-.843l3.483-2.031a3.88 3.88 0 0 0 2.898 1.312 3.91 3.91 0 0 0 3.906-3.906 3.91 3.91 0 0 0-3.907-3.907M20.312 17.97a.782.782 0 1 1 .002-1.564.782.782 0 0 1-.002 1.564m3.907-9.375a1.565 1.565 0 0 1-1.563-1.563 1.563 1.563 0 1 1 1.563 1.563m8.593 6.25a1.563 1.563 0 1 1 0-3.124 1.563 1.563 0 0 1 .001 3.124m9.376-4.688a2.347 2.347 0 0 1-2.344-2.344 2.347 2.347 0 0 1 2.343-2.343 2.347 2.347 0 0 1 2.344 2.343 2.347 2.347 0 0 1-2.343 2.344m-3.908 7.812h1.563v1.562H38.28zm3.125 0h1.563v1.562h-1.563zm3.125 0h1.563v1.562H44.53zm-6.25-3.125h7.813v1.562H38.28zM8.594 20.313H7.03a7.04 7.04 0 0 0 7.032 7.03v-1.562a5.475 5.475 0 0 1-5.47-5.468m32.814 14.062h-1.562a3.91 3.91 0 0 1-3.907 3.906v1.563a5.476 5.476 0 0 0 5.47-5.469"/><path d="M27.344 34.375c0 4.738 3.855 8.594 8.593 8.594 4.739 0 8.594-3.856 8.594-8.594s-3.855-8.594-8.593-8.594c-4.739 0-8.594 3.856-8.594 8.594m8.593-7.031a7.04 7.04 0 0 1 7.032 7.031 7.04 7.04 0 0 1-7.032 7.031 7.04 7.04 0 0 1-7.03-7.031 7.04 7.04 0 0 1 7.03-7.031"/></g><defs><clipPath id="a"><path fill="#fff" d="M0 0h50v50H0z"/></clipPath></defs></svg>