<svg xmlns="http://www.w3.org/2000/svg" width="50" height="50" fill="none"><g fill="#000" clip-path="url(#a)"><path d="M21.179 39.004h-.694l-.087-.208.491-.491c.47-.47.47-1.234 0-1.704l-1.537-1.537a1.2 1.2 0 0 0-.852-.353c-.322 0-.625.125-.852.352l-.491.491a6 6 0 0 0-.208-.086v-.694c0-.665-.54-1.205-1.205-1.205H13.57c-.665 0-1.205.54-1.205 1.205v.694q-.105.04-.209.086l-.49-.49a1.2 1.2 0 0 0-.852-.353c-.322 0-.625.125-.852.352l-1.538 1.538c-.47.47-.47 1.234 0 1.704l.49.49q-.044.105-.085.209h-.694c-.665 0-1.205.54-1.205 1.205v2.174c0 .665.54 1.205 1.205 1.205h.694q.04.105.086.209l-.49.49c-.228.228-.354.53-.354.852s.126.625.353.852l1.538 1.538c.47.47 1.234.47 1.704 0l.49-.491q.104.045.209.086v.694c0 .665.54 1.205 1.205 1.205h2.174c.664 0 1.205-.54 1.205-1.205v-.694q.105-.04.208-.086l.49.49c.47.47 1.235.47 1.705 0l1.537-1.537c.228-.227.353-.53.353-.852s-.125-.624-.353-.852l-.49-.49.086-.209h.694c.664 0 1.205-.54 1.205-1.205v-2.174c0-.665-.54-1.205-1.205-1.205m-.26 3.12h-.615a1.21 1.21 0 0 0-1.135.8q-.076.212-.17.414a1.21 1.21 0 0 0 .236 1.367l.435.434-1.17 1.17-.435-.435a1.21 1.21 0 0 0-1.367-.236q-.202.095-.414.17a1.21 1.21 0 0 0-.8 1.135v.615h-1.655v-.615a1.21 1.21 0 0 0-.8-1.134q-.211-.076-.414-.171a1.21 1.21 0 0 0-1.367.236l-.435.435-1.17-1.17.435-.434a1.21 1.21 0 0 0 .237-1.367 5 5 0 0 1-.171-.414 1.21 1.21 0 0 0-1.135-.8h-.615v-1.655h.615a1.21 1.21 0 0 0 1.135-.8 5 5 0 0 1 .17-.414 1.21 1.21 0 0 0-.236-1.367l-.435-.435 1.17-1.17.435.435a1.21 1.21 0 0 0 1.367.236q.202-.095.413-.17a1.21 1.21 0 0 0 .801-1.135v-.615h1.655v.615c0 .507.321.962.8 1.134q.211.077.414.171c.46.216 1.01.121 1.367-.236l.434-.435 1.17 1.17-.434.434a1.21 1.21 0 0 0-.237 1.368q.095.201.171.413c.172.479.628.8 1.134.8h.616z"/><path d="M16.262 38.631a1.2 1.2 0 0 0-.852-.353h-1.502c-.322 0-.625.126-.852.353l-1.062 1.062c-.228.228-.353.53-.353.852v1.502c0 .322.125.625.353.853l1.062 1.062c.227.227.53.352.852.352h1.502a1.2 1.2 0 0 0 .852-.352l1.062-1.063c.227-.227.353-.53.353-.852v-1.502a1.2 1.2 0 0 0-.353-.852zm-.05 3.309-.91.91h-1.287l-.91-.91v-1.287l.91-.91h1.287l.91.91zm8.685-1.376h-.977a.732.732 0 1 0 0 1.464h.976a.732.732 0 1 0 0-1.465m3.419.001h-.977a.732.732 0 1 0 0 1.464h.976a.732.732 0 1 0 0-1.465m6.836.001h-.976a.732.732 0 1 0 0 1.464h.976a.732.732 0 1 0 0-1.465m-3.418.001h-.976a.732.732 0 1 0 0 1.464h.976a.732.732 0 1 0 0-1.465m-26.128.001h-3.36a.78.78 0 0 1-.78-.78V14.96c0-.43.35-.78.78-.78h6.525l-1.19 1.191a.732.732 0 0 0 1.035 1.036l2.441-2.441a.73.73 0 0 0 0-1.036l-2.441-2.442a.732.732 0 0 0-1.036 1.036l1.191 1.191H2.244A2.247 2.247 0 0 0 0 14.96v24.825a2.247 2.247 0 0 0 2.244 2.244h3.36a.732.732 0 1 0 0-1.465M38.369 14.18h3.562c.43 0 .78.35.78.78v5.25a2.935 2.935 0 0 0-2.198 2.837c0 1.363.935 2.51 2.197 2.837v5.409l-1.19-1.191a.732.732 0 0 0-1.037 1.035l2.442 2.442a.73.73 0 0 0 1.036 0l2.441-2.442a.732.732 0 1 0-1.036-1.035l-1.19 1.19v-5.408a2.935 2.935 0 0 0 2.197-2.837 2.935 2.935 0 0 0-2.198-2.837v-5.25a2.247 2.247 0 0 0-2.244-2.245H38.37a.732.732 0 0 0 0 1.465m6.538 8.867c0 .808-.657 1.465-1.464 1.465a1.467 1.467 0 0 1-1.465-1.465c0-.808.657-1.465 1.465-1.465.807 0 1.465.657 1.465 1.465M43.44 34.738a6.52 6.52 0 0 0-6.27 4.635.732.732 0 1 0 1.4.429 5.07 5.07 0 0 1 4.87-3.6 5.1 5.1 0 0 1 5.094 5.094 5.1 5.1 0 0 1-5.094 5.094 5.07 5.07 0 0 1-4.87-3.6.732.732 0 1 0-1.4.43 6.52 6.52 0 0 0 6.27 4.635A6.566 6.566 0 0 0 50 41.296a6.566 6.566 0 0 0-6.559-6.558"/><path d="M42.842 43.99c.194 0 .38-.077.518-.214l3.482-3.482a.732.732 0 0 0-1.036-1.036l-2.964 2.964-1.728-1.728a.732.732 0 1 0-1.036 1.035l2.246 2.247a.73.73 0 0 0 .518.214M7.865 24.586a.73.73 0 0 0-.732.733v2.94h-.686a.732.732 0 1 0 0 1.465h10.861a.732.732 0 1 0 0-1.465h-.686v-1.441a.732.732 0 0 0-1.465 0v1.441h-1.21v-4.44a.732.732 0 0 0-1.464 0v4.44h-1.21v-2.19a.732.732 0 1 0-1.465 0v2.19h-1.21v-2.94a.73.73 0 0 0-.733-.733"/><path d="M36.1 7.546 24.893 1.075a.73.73 0 0 0-.733 0l-11.207 6.47a.73.73 0 0 0-.367.635v9.35H4.927a1.46 1.46 0 0 0-1.458 1.458v5.035a.732.732 0 1 0 1.465 0v-1.799h13.783l.006 8.736-13.79.007V27.44a.732.732 0 1 0-1.464 0v3.526a1.46 1.46 0 0 0 1.458 1.458h13.796a1.46 1.46 0 0 0 1.459-1.458v-5.038l3.978 2.297a.73.73 0 0 0 .733 0l3.148-1.817a.732.732 0 0 0-.732-1.269l-2.05 1.183v-11.25l9.743-5.625v11.25l-4.733 2.733A.732.732 0 1 0 31 24.699l5.1-2.943a.73.73 0 0 0 .366-.635V8.18a.73.73 0 0 0-.367-.634M18.717 20.76H4.932l-.005-1.766 13.79-.006zm5.077 5.563-3.613-2.085v-5.25a1.46 1.46 0 0 0-1.458-1.459h-4.672V9.45l9.743 5.624zm.732-12.518L14.784 8.18l9.742-5.625L34.27 8.18z"/></g><defs><clipPath id="a"><path fill="#fff" d="M0 0h50v50H0z"/></clipPath></defs></svg>