<svg xmlns="http://www.w3.org/2000/svg" width="50" height="50" fill="none"><g clip-path="url(#a)"><path fill="#000" d="M32.03 13.312a.78.78 0 0 1-.782.78h-1.452a.781.781 0 1 1 0-1.562h1.453c.43 0 .78.35.78.782m-.782 5.063H19.834a.781.781 0 1 0 0 1.563h11.414a.781.781 0 1 0 0-1.563M16.064 8.249h2.504a.781.781 0 1 0 0-1.562h-2.504a.781.781 0 1 0 0 1.562m7.214 0h7.97a.781.781 0 1 0 0-1.562h-7.97a.781.781 0 1 0 0 1.562m-2.844 15.97h-1.998a.781.781 0 1 0 0 1.562h1.998a.781.781 0 1 0 0-1.562m-4.352 5.843a.781.781 0 1 0 0 1.563h2.51a.781.781 0 1 0 0-1.562zm-2.072-15.97h11.565a.781.781 0 1 0 0-1.562H14.01a.781.781 0 1 0 0 1.563M6.394 31.626h5.31a.781.781 0 1 0 0-1.562h-5.31a.781.781 0 1 0 0 1.562m14.203 10.126H6.394a.781.781 0 1 0 0 1.563h14.203a.781.781 0 1 0 0-1.563M6.394 37.47h3.625a.781.781 0 1 0 0-1.563H6.394a.781.781 0 1 0 0 1.563m24.854 4.281h-5.306a.781.781 0 1 0 0 1.563h5.306a.781.781 0 1 0 0-1.563m-10.557-5.844h-6.859a.781.781 0 1 0 0 1.563h6.86a.781.781 0 1 0 0-1.563M6.394 25.781h2.761a.781.781 0 1 0 0-1.562H6.394a.781.781 0 1 0 0 1.562m0-11.688h3.69a.781.781 0 1 0 0-1.563h-3.69a.781.781 0 1 0 0 1.563m0 5.845h9.472a.781.781 0 1 0 0-1.563H6.394a.781.781 0 1 0 0 1.563m6.644 4.28a.781.781 0 1 0 0 1.563h1.333a.781.781 0 1 0 0-1.562zm36.432 21.93a2.808 2.808 0 0 1-2.818 2.818 2.8 2.8 0 0 1-1.994-.823l-6.66-6.66a.95.95 0 0 1-.28-.675.95.95 0 0 1 .234-.625l-.842-.842v8.057a2.506 2.506 0 0 1-2.503 2.503H3.034a2.506 2.506 0 0 1-2.503-2.503v-36.88c0-.68.254-1.29.734-1.77L9.182.831a2.45 2.45 0 0 1 1.77-.733h23.655A2.506 2.506 0 0 1 37.11 2.6v19.49a10.43 10.43 0 0 1 4.508 8.585c0 2.18-.673 4.207-1.82 5.883l.89.89a.953.953 0 0 1 1.298.045l6.66 6.66a2.8 2.8 0 0 1 .824 1.995m-10.655-8.363q-.255.273-.526.526l.766.765.525-.525zM31.179 21.8c-4.895 0-8.877 3.982-8.877 8.877 0 4.894 3.982 8.877 8.877 8.877 4.894 0 8.877-3.983 8.877-8.877 0-4.896-3.983-8.877-8.877-8.877M3.199 9.023h5.486a.774.774 0 0 0 .773-.773V2.765zM35.548 47.4v-7.245c-1.33.615-2.81.96-4.37.96-5.755 0-10.439-4.682-10.439-10.44 0-5.755 4.683-10.439 10.44-10.439 1.56 0 3.039.344 4.369.96V2.601a.94.94 0 0 0-.94-.94H11.02V8.25a2.34 2.34 0 0 1-2.336 2.336h-6.59V47.4c0 .519.423.94.941.94h31.573a.943.943 0 0 0 .94-.94m3.984-6.59.753.753 1.78-1.78-.753-.753zm8.375 5.34c0-.339-.13-.654-.366-.89l-4.372-4.372-1.78 1.779 4.373 4.372c.236.236.551.366.89.366a1.25 1.25 0 0 0 1.255-1.256M31.18 22.774c4.355 0 7.9 3.544 7.9 7.9s-3.545 7.9-7.9 7.9-7.9-3.545-7.9-7.9 3.544-7.9 7.9-7.9m0 1.563a6.344 6.344 0 0 0-6.337 6.337 6.344 6.344 0 0 0 6.337 6.337 6.344 6.344 0 0 0 6.337-6.337 6.344 6.344 0 0 0-6.337-6.337"/></g><defs><clipPath id="a"><path fill="#fff" d="M0 0h50v50H0z"/></clipPath></defs></svg>