<svg xmlns="http://www.w3.org/2000/svg" width="102.81" height="102.81"><g transform="translate(-3788.38 -5957)"><path fill="#4d4d4d" d="M3889.973 6013.379c-1.654-1.362-1.378-2.547.256-3.671 1.25-.86 1.312-1.788.007-2.628-1.942-1.249-1.718-2.505-.123-3.85 1.128-.952.983-1.781-.32-2.406-2-.961-2.232-2.243-.742-3.86.974-1.057.839-1.867-.548-2.342-1.993-.682-2.63-1.83-1.319-3.673.927-1.3.511-2.069-.944-2.393-1.924-.428-2.688-1.395-1.646-3.294.8-1.459.348-2.288-1.294-2.416-2.024-.157-2.66-1.2-1.95-3.045.631-1.642.008-2.3-1.62-2.217-1.881.094-2.671-.679-2.279-2.6.29-1.425-.03-2.443-1.829-2.093-2.181.423-2.914-.642-2.692-2.643.2-1.762-.658-2.178-2.143-1.651-2.056.73-2.785-.267-2.855-2.116-.064-1.691-.789-2.169-2.332-1.45-1.774.826-2.859.308-3.118-1.686-.234-1.8-1.128-2.139-2.617-1.215-1.576.978-2.619.667-3.118-1.213-.486-1.832-1.531-1.994-2.939-.876-1.362 1.082-2.42.888-3.084-.785-.771-1.942-1.92-1.834-3.176-.524s-2.193.969-3.015-.436c-1.01-1.729-2.073-1.66-3.256-.148-.9 1.15-1.91 1.445-2.9.087-1.378-1.9-2.534-1.394-3.562.31-.8 1.334-1.683 1.3-2.685.247-1.552-1.626-2.681-1.185-3.479.734-.654 1.572-1.637 1.491-2.785.577-1.465-1.166-2.581-1.089-3.1.9-.461 1.777-1.439 2.111-2.963 1.2-1.495-.9-2.541-.719-2.772 1.228-.229 1.927-1.291 2.385-2.945 1.628-1.874-.857-2.487.009-2.531 1.739-.047 1.846-1 2.351-2.655 1.816-1.842-.6-2.513.161-2.3 1.959.232 1.969-.743 2.612-2.549 2.318-1.587-.259-2.324.335-1.964 1.969.442 2.006-.373 2.846-2.368 2.739-1.517-.081-2.091.575-1.557 2.084.606 1.711.429 2.975-1.791 3.134-1.7.121-2.211.964-1.383 2.547.808 1.545.651 2.675-1.35 3.066-1.719.336-2.252 1.276-1.17 2.838.964 1.392.876 2.472-.913 3.071-1.861.623-2.112 1.683-.762 3.1 1.377 1.45.644 2.409-.756 3.162-1.494.8-1.825 1.725-.395 2.888 1.6 1.3 1.376 2.418-.242 3.5-1.343.9-1.386 1.9-.009 2.789 1.859 1.2 1.586 2.415.115 3.678-1.217 1.045-1 1.884.339 2.568 1.826.933 2.143 2.122.71 3.694-.987 1.083-.946 1.963.589 2.5 1.849.642 2.542 1.719 1.261 3.511q-1.445 2.023 1.007 2.547c1.8.388 2.643 1.281 1.593 3.143-.862 1.53-.371 2.414 1.35 2.553 1.929.157 2.533 1.145 1.874 2.9-.64 1.705-.077 2.423 1.7 2.349 1.711-.071 2.648.584 2.157 2.468-.293 1.564.052 2.585 1.945 2.2 2.134-.43 2.757.68 2.565 2.539-.2 1.895.724 2.231 2.285 1.741 1.661-.522 2.634-.058 2.663 1.8.031 2 .96 2.558 2.741 1.693 1.8-.876 2.443.111 2.731 1.675.285 1.544.9 2.434 2.568 1.359s2.741-.747 3.277 1.272c.374 1.41 1.175 2.1 2.578.928 1.6-1.335 2.792-.993 3.564.924.67 1.664 1.635 1.493 2.719.421 1.266-1.252 2.377-1.443 3.37.334.926 1.657 2 1.6 3.086.123 1.117-1.509 2.248-1.24 3.24.081 1.24 1.652 2.233 1.153 3.081-.291.962-1.637 2.029-1.536 3.2-.313 1.372 1.43 2.314.943 2.994-.643.7-1.628 1.719-1.915 3.084-.8 1.625 1.327 2.556.712 3.033-1.071.45-1.684 1.4-2.046 2.82-1.124 1.679 1.088 2.642.64 2.922-1.3.258-1.784 1.188-2.273 2.795-1.549 1.673.755 2.575.362 2.62-1.6.043-1.863.944-2.566 2.789-1.907 1.755.627 2.36-.179 2.176-1.864-.2-1.821.449-2.791 2.43-2.43 1.692.309 2.469-.328 2.083-2.08-.419-1.9.366-2.7 2.256-2.615 1.589.072 2.289-.525 1.642-2.2-.7-1.822-.122-2.9 1.929-3.056 1.613-.123 2.106-.914 1.321-2.409-.859-1.637-.669-2.813 1.406-3.219 1.648-.323 2.2-1.206 1.1-2.677-1.3-1.733-.543-2.74 1.178-3.359 1.6-.575 1.737-1.466.66-2.644-1.36-1.488-1.167-2.636.651-3.528 1.45-.714 1.702-1.637.385-2.721"/><ellipse cx="45.144" cy="45.167" fill="#f4f9fc" rx="45.144" ry="45.167" transform="translate(3794.641 5963.238)"/><path fill="#4d4d4d" stroke="rgba(0,0,0,0)" stroke-miterlimit="10" d="M3826.124 6040.758a35.137 35.137 0 0 1 0-64.706 35.11 35.11 0 0 1 38.475 57.181 35.12 35.12 0 0 1-38.475 7.525Zm-21.075-32.353a34.736 34.736 0 1 0 34.736-34.753 34.783 34.783 0 0 0-34.736 34.753Zm1.57 0a33.166 33.166 0 1 1 33.166 33.183 33.174 33.174 0 0 1-33.166-33.183Z"/><path fill="#fff" stroke="rgba(0,0,0,0)" stroke-miterlimit="10" d="M3861.085 6026.491a.6.6 0 0 1-.284-.512.53.53 0 0 1 .164-.391.53.53 0 0 1 .378-.161.7.7 0 0 1 .308.069 7 7 0 0 1 .563.434 1.48 1.48 0 0 0 .907.4.82.82 0 0 0 .631-.291 1.06 1.06 0 0 0 .264-.739 1.93 1.93 0 0 0-.477-1.256 2.5 2.5 0 0 0-1.4-.793v-.174a3.3 3.3 0 0 0 .785-.307 1.16 1.16 0 0 0 .378-.432 1.2 1.2 0 0 0 .159-.589.96.96 0 0 0-.3-.708 1.02 1.02 0 0 0-.748-.3 1.4 1.4 0 0 0-1.183.736l-.184-.065a3 3 0 0 1 .917-1.248 2.03 2.03 0 0 1 1.245-.418 1.62 1.62 0 0 1 1.156.427 1.33 1.33 0 0 1 .455 1 1.36 1.36 0 0 1-.211.718 1.84 1.84 0 0 1-.663.609 2.36 2.36 0 0 1 .886.7 1.7 1.7 0 0 1 .306 1.042 2.4 2.4 0 0 1-.763 1.793 2.82 2.82 0 0 1-2.045.739 2.15 2.15 0 0 1-1.244-.283Zm-9.374.03a2.3 2.3 0 0 1-.7-.711 3.4 3.4 0 0 1-.382-.9 5.8 5.8 0 0 1-.215-1.572 6.3 6.3 0 0 1 .309-2.019 2.4 2.4 0 0 1 .77-1.166 1.69 1.69 0 0 1 2.19 0 2.3 2.3 0 0 1 .748 1.076 6 6 0 0 1 .333 2.034 6.1 6.1 0 0 1-.284 1.885 2.6 2.6 0 0 1-.455.88 2.3 2.3 0 0 1-.649.544 1.67 1.67 0 0 1-1.67-.048Zm.527-6.31a1.04 1.04 0 0 0-.249.614q-.063.44-.064 3.071a12 12 0 0 0 .1 1.92.86.86 0 0 0 .214.472.55.55 0 0 0 .367.12.44.44 0 0 0 .374-.16 1.6 1.6 0 0 0 .238-.859l.02-2.138q0-1.771-.02-2.064a1.85 1.85 0 0 0-.238-.935.48.48 0 0 0-.4-.159.47.47 0 0 0-.342.118Zm-20 6.31a2.3 2.3 0 0 1-.7-.711 3.4 3.4 0 0 1-.383-.9 5.8 5.8 0 0 1-.213-1.571 6.3 6.3 0 0 1 .308-2.019 2.4 2.4 0 0 1 .77-1.166 1.69 1.69 0 0 1 2.19 0 2.3 2.3 0 0 1 .748 1.076 6 6 0 0 1 .333 2.034 6.1 6.1 0 0 1-.284 1.885 2.6 2.6 0 0 1-.455.88 2.3 2.3 0 0 1-.649.544 1.66 1.66 0 0 1-1.67-.048Zm.526-6.31a1.05 1.05 0 0 0-.248.614q-.065.44-.065 3.071a12 12 0 0 0 .1 1.92.87.87 0 0 0 .214.472.55.55 0 0 0 .368.12.44.44 0 0 0 .373-.16 1.58 1.58 0 0 0 .239-.859l.02-2.138q0-1.771-.02-2.064a1.85 1.85 0 0 0-.239-.935.48.48 0 0 0-.4-.159.47.47 0 0 0-.341.118Zm-5.82 6.31a2.3 2.3 0 0 1-.7-.711 3.4 3.4 0 0 1-.382-.9 5.8 5.8 0 0 1-.214-1.571 6.3 6.3 0 0 1 .309-2.019 2.4 2.4 0 0 1 .77-1.166 1.69 1.69 0 0 1 2.189 0 2.3 2.3 0 0 1 .749 1.076 6 6 0 0 1 .333 2.034 6.1 6.1 0 0 1-.283 1.885 2.6 2.6 0 0 1-.455.88 2.3 2.3 0 0 1-.649.544 1.67 1.67 0 0 1-1.67-.048Zm.527-6.31a1.04 1.04 0 0 0-.249.614q-.063.44-.064 3.071a12 12 0 0 0 .1 1.92.86.86 0 0 0 .214.472.55.55 0 0 0 .367.12.44.44 0 0 0 .373-.16 1.58 1.58 0 0 0 .239-.859l.02-2.138q0-1.771-.02-2.064a1.85 1.85 0 0 0-.239-.935.48.48 0 0 0-.4-.159.47.47 0 0 0-.34.118Zm-5.675 6.559 1.834-5.565h-1.4a2.8 2.8 0 0 0-1.233.213 1.13 1.13 0 0 0-.477.562h-.186l.488-2.093h4.016l-2.262 6.883Zm20.48-.257a.831.831 0 1 1 .584.241.8.8 0 0 1-.585-.241Zm13.829.117v-.184h.179a1.4 1.4 0 0 0 .617-.1.5.5 0 0 0 .248-.274 3 3 0 0 0 .065-.811v-3.5a2.2 2.2 0 0 0-.045-.584.43.43 0 0 0-.167-.2.5.5 0 0 0-.281-.082 1.6 1.6 0 0 0-.617.159l-.089-.18 2.48-1.133h.164v5.514a3.5 3.5 0 0 0 .054.794.52.52 0 0 0 .229.281 1.1 1.1 0 0 0 .556.11h.155v.19Zm-11.1 0v-.11a22 22 0 0 0 2.215-2.924 3.2 3.2 0 0 0 .394-1.466 1.22 1.22 0 0 0-.323-.867 1.04 1.04 0 0 0-.79-.346 1.31 1.31 0 0 0-1.188.765l-.184-.065a2.76 2.76 0 0 1 .815-1.412 1.9 1.9 0 0 1 1.263-.457 1.86 1.86 0 0 1 .934.238 1.73 1.73 0 0 1 .661.653 1.6 1.6 0 0 1 .238.779 2.8 2.8 0 0 1-.367 1.342 12.8 12.8 0 0 1-2.196 2.57h1.457a3.3 3.3 0 0 0 .7-.045.57.57 0 0 0 .266-.152 2 2 0 0 0 .273-.45h.179l-.379 1.947Zm-8.375 0v-.184h.184a1.4 1.4 0 0 0 .617-.1.5.5 0 0 0 .248-.274 3 3 0 0 0 .065-.811v-3.5a2.2 2.2 0 0 0-.045-.584.43.43 0 0 0-.167-.2.5.5 0 0 0-.281-.082 1.6 1.6 0 0 0-.617.159l-.089-.18 2.48-1.133h.164v5.514a3.4 3.4 0 0 0 .055.794.5.5 0 0 0 .229.281 1.1 1.1 0 0 0 .556.11h.154v.19Zm-21.683 0v-.11a22 22 0 0 0 2.214-2.924 3.2 3.2 0 0 0 .39-1.466 1.22 1.22 0 0 0-.323-.867 1.04 1.04 0 0 0-.79-.346 1.31 1.31 0 0 0-1.188.765l-.185-.065a2.76 2.76 0 0 1 .815-1.412 1.9 1.9 0 0 1 1.263-.457 1.86 1.86 0 0 1 .934.238 1.73 1.73 0 0 1 .661.653 1.6 1.6 0 0 1 .239.779 2.8 2.8 0 0 1-.363 1.343 12.8 12.8 0 0 1-2.2 2.569h1.461a3.3 3.3 0 0 0 .7-.045.57.57 0 0 0 .266-.152 2 2 0 0 0 .274-.45h.179l-.38 1.947Zm27.334-3.374a.828.828 0 1 1 .584.241.8.8 0 0 1-.584-.241Zm-9.309-8.6a12 12 0 0 1-2.1-.861 2.76 2.76 0 0 0-1.16-.352 1.3 1.3 0 0 0-.807.352 2.45 2.45 0 0 0-.69 1.073h-.543v-9h.542a11.1 11.1 0 0 0 2.489 5.794 5.38 5.38 0 0 0 3.972 2 3.37 3.37 0 0 0 2.621-1.073 3.6 3.6 0 0 0 .976-2.5 3.8 3.8 0 0 0-.374-1.635 5 5 0 0 0-1.139-1.5 17 17 0 0 0-2.7-1.855 23 23 0 0 1-3.905-2.725 8.1 8.1 0 0 1-1.828-2.515 7.24 7.24 0 0 1-.639-3.061 7.13 7.13 0 0 1 1.747-4.868 5.6 5.6 0 0 1 4.4-2 6.3 6.3 0 0 1 1.88.282 8.5 8.5 0 0 1 1.681.782 3.5 3.5 0 0 0 1.387.572.72.72 0 0 0 .6-.281 3.6 3.6 0 0 0 .417-1.355h.441l.161 7.949h-.6a8.74 8.74 0 0 0-2.093-4.81 4.86 4.86 0 0 0-3.6-1.82 3.05 3.05 0 0 0-2.371.958 3.18 3.18 0 0 0-.874 2.206 3.1 3.1 0 0 0 .309 1.408 5.6 5.6 0 0 0 1.365 1.635 30 30 0 0 0 3.177 2.058 14.5 14.5 0 0 1 4.713 3.886 7.45 7.45 0 0 1 1.2 4.186 7.4 7.4 0 0 1-1.937 5.144 6.37 6.37 0 0 1-4.941 2.155 6.7 6.7 0 0 1-1.777-.23Zm13.361-4.15a14.3 14.3 0 0 1-2.319-8.176 13.18 13.18 0 0 1 3.018-8.854 8.78 8.78 0 0 1 7.42-3.334 9.06 9.06 0 0 1 7.731 3.323 13.27 13.27 0 0 1 2.973 8.845 14.43 14.43 0 0 1-2.217 7.984 9.32 9.32 0 0 1-8.3 4.573 9.44 9.44 0 0 1-8.306-4.362Zm4.14-15.9a21 21 0 0 0-1.16 7.878q0 6.1 1.792 9.022a3.9 3.9 0 0 0 3.494 2.039 3.7 3.7 0 0 0 2.525-.879 7.4 7.4 0 0 0 2.012-3.6 23.7 23.7 0 0 0 .72-6.445 25.4 25.4 0 0 0-.734-7.078 7.05 7.05 0 0 0-1.872-3.313 3.94 3.94 0 0 0-2.621-.967q-2.731.004-4.156 3.345Zm-36.059 19.715v-.651h.661a2.4 2.4 0 0 0 1.4-.369 1.57 1.57 0 0 0 .588-.844 8.7 8.7 0 0 0 .151-2.217v-15.685a9.4 9.4 0 0 0-.161-2.286 1.67 1.67 0 0 0-.653-.8 2.3 2.3 0 0 0-1.325-.339h-.661v-.656h10.41v.656h-.66a2.4 2.4 0 0 0-1.4.37 1.63 1.63 0 0 0-.6.844 8.6 8.6 0 0 0-.162 2.216v15.68a9 9 0 0 0 .172 2.29 1.7 1.7 0 0 0 .661.8 2.3 2.3 0 0 0 1.329.343h.661v.651Z"/><path stroke="rgba(0,0,0,0)" stroke-miterlimit="10" d="m3835.696 6051.357.29-5.953 4.18.2-.046.946-3.175-.155-.076 1.575 2.851.14-.043.894-2.852-.139-.077 1.592 3.278.16-.047.945Zm5.5-5.739 1-.111 3.929 4.044-.486-4.424 1-.111.655 5.925-1.084.12-3.83-3.952.478 4.322-1 .111Zm-8.8 5.322 1.041-4.538-2.946 3.565-.548-.126-1.094-4.494-1.041 4.538-.98-.225 1.333-5.81 1.528.351.915 4.051 2.59-3.245 1.52.349-1.334 5.808Zm16.95-5.684-1.742.476-.243-.888 4.461-1.217.242.888-1.742.477 1.327 4.861-.97.265Zm-28.3 2.022 2.343-5.48 3.847 1.647-.373.869-2.922-1.25-.62 1.45 2.624 1.123-.352.824-2.613-1.123-.627 1.465 3.017 1.291-.372.87Zm35.365-.006.228-.96a2.84 2.84 0 0 0 2.028-.132 1.28 1.28 0 0 0 .6-.53.66.66 0 0 0 .013-.623.62.62 0 0 0-.48-.361 2.8 2.8 0 0 0-.983.1 8 8 0 0 1-1.022.184 2.3 2.3 0 0 1-.7-.04 1.44 1.44 0 0 1-1.019-.865 1.5 1.5 0 0 1-.029-1.409 2.42 2.42 0 0 1 1.133-1.062 3.6 3.6 0 0 1 1.1-.337 3 3 0 0 1 1.105.041l-.143.918a2 2 0 0 0-.815-.032 2.8 2.8 0 0 0-.867.259 1.3 1.3 0 0 0-.565.481.6.6 0 0 0-.011.61.63.63 0 0 0 .5.371 4.2 4.2 0 0 0 1.256-.163 3.3 3.3 0 0 1 1.514-.056 1.47 1.47 0 0 1 .941.85 1.57 1.57 0 0 1 .036 1.4 2.35 2.35 0 0 1-1.161 1.111 3.6 3.6 0 0 1-1.608.385 4 4 0 0 1-1.042-.14Zm-39.146-2.037a3.04 3.04 0 0 1-1.416-1.908 3.16 3.16 0 0 1 2.349-3.739 3.02 3.02 0 0 1 2.331.408 3.13 3.13 0 0 1 1.419 1.769l-.861.362a2.1 2.1 0 0 0-.378-.724 2.7 2.7 0 0 0-.637-.533 2.12 2.12 0 0 0-1.6-.307 2.1 2.1 0 0 0-.711 3.842 2.58 2.58 0 0 0 1.4.439l.866-1.39.853.533-1.076 1.74a2.6 2.6 0 0 1-.714.1 3.46 3.46 0 0 1-1.825-.592Zm44.906-2.783-3.856-1.743.911-.617 2.867 1.335-.172-3.158.91-.617.187 4.229 1.319 1.946-.847.574Zm-49.171-.225.444-1.414-2.245-1.966-1.342.627-.808-.707 5.9-2.756.808.707-1.948 6.215Zm-.882-3.81 1.629 1.426.8-2.561Zm53.956 2.065a2.84 2.84 0 0 0 1.921-.663 1.3 1.3 0 0 0 .437-.67.65.65 0 0 0-.156-.6.62.62 0 0 0-.558-.222 2.8 2.8 0 0 0-.923.355 8 8 0 0 1-.937.448 2.3 2.3 0 0 1-.681.146 1.44 1.44 0 0 1-1.211-.564 1.5 1.5 0 0 1-.4-1.352 2.44 2.44 0 0 1 .814-1.333 3.6 3.6 0 0 1 .971-.615 3 3 0 0 1 1.076-.253l.1.924a2 2 0 0 0-.795.185 2.7 2.7 0 0 0-.767.479 1.3 1.3 0 0 0-.419.613.6.6 0 0 0 .15.591.63.63 0 0 0 .579.226 4.2 4.2 0 0 0 1.169-.489 3.3 3.3 0 0 1 1.444-.455 1.48 1.48 0 0 1 1.132.572 1.56 1.56 0 0 1 .4 1.336 2.34 2.34 0 0 1-.827 1.39 3.63 3.63 0 0 1-2.492.933Zm-58.7-3.643 1.246-5.363-3.379 2.742-.634-.781 4.623-3.758.635.78-1.272 5.494 3.453-2.806.634.78-4.623 3.758Zm60.957-3.266-1.177 1.372-.7-.6 3.01-3.506.7.6-1.184 1.371 3.82 3.284-.655.763Zm1.589-3.381 2.272-3.515.794.514-1.726 2.67 1.324.857 1.551-2.4.752.486-1.551 2.4 1.338.867 1.782-2.757.794.514-2.327 3.6Zm-66.695 1.116.89-1.181-1.462-2.6-1.473.138-.527-.938 6.48-.63.526.937-3.908 5.211Zm.439-3.881 1.06 1.888 1.609-2.147Zm69.081-1.585.6-1.447 4.146-.213-2.751-3.11.6-1.439 5.494 2.3-.388.928-4.292-1.8 3.01 3.516-.218.519-4.612.314 4.292 1.8-.389.928Zm-73.053-1.463 4.41-1.483-4.58-.655-.179-.533 3.258-3.281-4.411 1.482-.32-.954 5.648-1.9.5 1.488-2.974 2.9 4.119.512.5 1.48-5.648 1.9Zm80.139-5.192a2.83 2.83 0 0 0 1.175-1.66 1.3 1.3 0 0 0-.034-.8.66.66 0 0 0-.479-.4.62.62 0 0 0-.582.145 2.8 2.8 0 0 0-.544.826 8 8 0 0 1-.5.91 2.3 2.3 0 0 1-.47.516 1.44 1.44 0 0 1-1.313.247 1.5 1.5 0 0 1-1.112-.866 2.43 2.43 0 0 1-.112-1.551 3.6 3.6 0 0 1 .432-1.066 2.9 2.9 0 0 1 .728-.832l.622.689a2 2 0 0 0-.539.614 2.8 2.8 0 0 0-.344.835 1.3 1.3 0 0 0 .016.742.6.6 0 0 0 .467.394.63.63 0 0 0 .6-.154 4.3 4.3 0 0 0 .665-1.078 3.3 3.3 0 0 1 .909-1.211 1.48 1.48 0 0 1 1.254-.2 1.57 1.57 0 0 1 1.106.851 2.34 2.34 0 0 1 .136 1.612 3.62 3.62 0 0 1-1.482 2.21Zm-1.22-18.154-2.306.466-.2-1 2.306-.466 3.094-2.888.218 1.078-2.334 2.134 2.979 1.059.218 1.077Zm-81.231-.48.194-.986 5.846 1.147-.194.987Zm.625-3.183.318-.955 5.314-1.878-4.222-1.41.318-.955 5.647 1.886-.34 1.035-5.19 1.834 4.124 1.37-.318.955Zm81.79-2.412-4.755 1.661-.332-.95 4.756-1.662-.6-1.706.868-.3 1.523 4.363-.868.3Zm-6.55-2.748 5.4-2.525.427.911-5.4 2.526Zm-72.509-2.2 1.838-3.523.827.442-1.37 2.628 1.451.757 1.222-2.343.824.43-1.222 2.344 2.174 1.135-.465.892Zm71.471.154.957-2.264-.693-1.125-1.7 1.052-.528-.856 5.071-3.13 1.163 1.887a3.2 3.2 0 0 1 .633 1.9 1.76 1.76 0 0 1-.946 1.275 1.73 1.73 0 0 1-2.256-.12l-1.028 2.475Zm1.039-3.867.658 1.066a1.84 1.84 0 0 0 .833.849 1.07 1.07 0 0 0 .883-.184.9.9 0 0 0 .516-.689 2.1 2.1 0 0 0-.4-1.072l-.671-1.088Zm-67.571.62a2.95 2.95 0 0 1-1.223-2.039 3.27 3.27 0 0 1 2.668-3.579 2.95 2.95 0 0 1 2.3.59 2.95 2.95 0 0 1 1.226 2.038 3.27 3.27 0 0 1-2.666 3.584 3 3 0 0 1-.494.04 2.97 2.97 0 0 1-1.812-.63Zm1.541-4.631a2.09 2.09 0 0 0-1.787 2.4 2.23 2.23 0 0 0 2.453 1.83 2.09 2.09 0 0 0 1.787-2.4 2.235 2.235 0 0 0-2.158-1.848 2 2 0 0 0-.296.023Zm62.252 2.641a2.72 2.72 0 0 1-2.388-2.735 2.65 2.65 0 0 1 1.029-1.837l2.517-2.2.661.758-2.485 2.17a1.92 1.92 0 0 0-.707 1.16 1.525 1.525 0 0 0 1.456 1.67 1.92 1.92 0 0 0 1.246-.544l2.483-2.165.661.759-2.518 2.2a2.73 2.73 0 0 1-1.793.776q-.079-.004-.162-.012Zm-60.977-6.283 1.608-1.524a3.2 3.2 0 0 1 1.734-1.008 1.76 1.76 0 0 1 1.44.666 1.73 1.73 0 0 1 .344 2.235l2.621.5-.929.88-2.41-.476-.959.909 1.377 1.454-.73.692Zm3.252-1.525a2.1 2.1 0 0 0-.967.616l-.928.879 1.465 1.548.909-.862a1.84 1.84 0 0 0 .661-.989 1.06 1.06 0 0 0-.361-.827.98.98 0 0 0-.688-.372 1 1 0 0 0-.092.008Zm51.93 2.894a3.08 3.08 0 0 1-1.178-2.1 2.95 2.95 0 0 1 .709-2.265 2.98 2.98 0 0 1 2.108-1.131 3.15 3.15 0 0 1 2.334.773 3 3 0 0 1 1.134 2.261l-.938.133a2.8 2.8 0 0 0-.259-.953 2.25 2.25 0 0 0-.585-.691 2.12 2.12 0 0 0-1.542-.513 1.97 1.97 0 0 0-1.422.762 2.06 2.06 0 0 0-.493 1.559 1.98 1.98 0 0 0 .729 1.39 2.1 2.1 0 0 0 .8.434 3.1 3.1 0 0 0 .96.068l.077.925a4 4 0 0 1-.531.041 2.92 2.92 0 0 1-1.904-.693Zm-49.963-6.129 1.32-.847 3.533 2.181-.506-4.123 1.313-.842 3.215 5.017-.846.543-2.512-3.92.481 4.6-.473.3-3.975-2.354 2.511 3.919-.846.543Zm43.32 1.524 3.039-5.126 3.6 2.137-.482.814-2.736-1.624-.8 1.356 2.452 1.462-.456.769-2.457-1.46-.81 1.371 2.821 1.675-.482.814Zm-33.7-6.89 1-.4 4.644 4.564-1 .4-1.054-1.038-2.771 1.1-.052 1.483-1 .4Zm.85 3.616 2.011-.8-1.911-1.882Zm29.932 2.033a3.63 3.63 0 0 1-1.921-1.84l.873-.46a2.84 2.84 0 0 0 1.432 1.444 1.3 1.3 0 0 0 .792.1.66.66 0 0 0 .476-.4.62.62 0 0 0-.042-.6 2.8 2.8 0 0 0-.72-.678 9 9 0 0 1-.81-.65 2.3 2.3 0 0 1-.427-.552 1.44 1.44 0 0 1-.018-1.337 1.5 1.5 0 0 1 1.043-.947 2.4 2.4 0 0 1 1.545.157 3.6 3.6 0 0 1 .975.608 3 3 0 0 1 .7.861l-.787.5a2 2 0 0 0-.511-.637 2.8 2.8 0 0 0-.764-.483 1.33 1.33 0 0 0-.733-.111.6.6 0 0 0-.467.392.63.63 0 0 0 .047.62 4.3 4.3 0 0 0 .948.841 3.3 3.3 0 0 1 1.037 1.1 1.47 1.47 0 0 1-.023 1.269 1.56 1.56 0 0 1-1.028.944 2 2 0 0 1-.575.085 2.7 2.7 0 0 1-1.042-.226Zm-24.95-6.63-1.754.433-.221-.895 4.486-1.107.221.895-1.754.433 1.206 4.892-.976.241Zm18.555 4.5-2.592-4.854-.734 4.287-.991-.17 1.006-5.873.991.169 2.66 4.972.75-4.387.992.17-1.006 5.876Zm-14.504-6.274 1-.14.833 5.9-1 .14Zm3.794 4.682a2.95 2.95 0 0 1-.94-2.184 2.95 2.95 0 0 1 .87-2.215 3.267 3.267 0 0 1 4.465-.072 2.95 2.95 0 0 1 .939 2.184 2.95 2.95 0 0 1-.868 2.215 3.08 3.08 0 0 1-2.218.919h-.061a3.06 3.06 0 0 1-2.186-.847Zm2.163-4.397a2 2 0 0 0-1.485.655 2.12 2.12 0 0 0-.585 1.541 2.12 2.12 0 0 0 .635 1.52 2.09 2.09 0 0 0 2.991-.048 2.12 2.12 0 0 0 .584-1.541 2.12 2.12 0 0 0-.634-1.52 2 2 0 0 0-1.469-.608Z"/></g></svg>