<svg xmlns="http://www.w3.org/2000/svg" width="102.81" height="102.81"><g transform="translate(-3668 -5957)"><path fill="#4d4d4d" d="M3769.593 6013.378c-1.654-1.362-1.378-2.546.256-3.671 1.25-.861 1.312-1.788.007-2.628-1.942-1.249-1.718-2.5-.123-3.85 1.128-.952.983-1.781-.32-2.406-2-.96-2.232-2.243-.742-3.86.974-1.057.839-1.867-.548-2.342-1.993-.682-2.63-1.83-1.319-3.673.927-1.3.511-2.069-.944-2.393-1.924-.428-2.688-1.395-1.646-3.294.8-1.459.348-2.288-1.294-2.416-2.024-.157-2.66-1.2-1.95-3.045.631-1.643.008-2.3-1.62-2.217-1.881.094-2.671-.679-2.279-2.6.29-1.424-.03-2.443-1.829-2.094-2.181.423-2.914-.642-2.692-2.643.2-1.762-.658-2.178-2.143-1.651-2.056.73-2.785-.267-2.855-2.116-.064-1.691-.789-2.169-2.332-1.451-1.774.826-2.859.308-3.118-1.686-.234-1.8-1.128-2.139-2.617-1.215-1.576.978-2.619.666-3.118-1.213-.486-1.832-1.531-1.994-2.939-.876-1.362 1.081-2.42.888-3.084-.785-.771-1.942-1.92-1.834-3.176-.524s-2.193.969-3.015-.436c-1.01-1.729-2.073-1.66-3.256-.148-.9 1.15-1.91 1.445-2.9.088-1.378-1.9-2.534-1.394-3.562.31-.8 1.334-1.683 1.3-2.685.247-1.552-1.626-2.681-1.185-3.479.734-.654 1.572-1.637 1.491-2.785.577-1.465-1.166-2.581-1.088-3.1.9-.461 1.777-1.439 2.111-2.963 1.2-1.495-.9-2.541-.719-2.772 1.228-.229 1.926-1.291 2.385-2.945 1.628-1.874-.857-2.487.009-2.531 1.739-.047 1.845-1 2.351-2.655 1.816-1.842-.6-2.513.161-2.3 1.959.232 1.969-.743 2.612-2.549 2.318-1.587-.258-2.324.336-1.964 1.969.442 2.006-.373 2.846-2.368 2.739-1.517-.081-2.091.574-1.557 2.084.606 1.711.429 2.975-1.791 3.134-1.7.121-2.211.965-1.383 2.547.808 1.545.651 2.675-1.35 3.066-1.719.336-2.252 1.276-1.17 2.839.964 1.392.876 2.472-.913 3.071-1.861.623-2.112 1.683-.762 3.1 1.377 1.45.644 2.409-.756 3.162-1.494.8-1.825 1.726-.395 2.888 1.6 1.3 1.376 2.418-.242 3.5-1.343.9-1.386 1.9-.009 2.788 1.859 1.2 1.586 2.415.115 3.678-1.217 1.045-1 1.884.339 2.567 1.826.933 2.143 2.122.71 3.694-.987 1.083-.946 1.963.589 2.5 1.849.642 2.542 1.719 1.261 3.511q-1.445 2.023 1.007 2.546c1.8.388 2.643 1.281 1.593 3.143-.862 1.53-.371 2.413 1.35 2.553 1.929.157 2.533 1.145 1.874 2.9-.64 1.705-.077 2.423 1.7 2.349 1.711-.071 2.648.583 2.157 2.468-.293 1.564.052 2.585 1.945 2.2 2.134-.43 2.757.68 2.565 2.539-.2 1.895.724 2.231 2.285 1.741 1.661-.522 2.634-.058 2.663 1.8.031 2 .96 2.558 2.741 1.693 1.8-.876 2.443.111 2.731 1.675.285 1.544.9 2.434 2.568 1.359s2.741-.746 3.277 1.273c.374 1.41 1.175 2.1 2.578.928 1.6-1.335 2.792-.993 3.564.924.67 1.664 1.635 1.493 2.719.421 1.266-1.252 2.377-1.443 3.37.334.926 1.657 2 1.6 3.086.123 1.117-1.509 2.248-1.24 3.24.081 1.24 1.652 2.233 1.154 3.081-.291.962-1.637 2.029-1.537 3.2-.313 1.372 1.43 2.314.943 2.994-.643.7-1.628 1.719-1.915 3.084-.8 1.625 1.327 2.556.712 3.033-1.071.45-1.684 1.4-2.046 2.82-1.124 1.679 1.088 2.642.64 2.922-1.3.258-1.784 1.188-2.273 2.795-1.549 1.673.754 2.575.362 2.62-1.6.043-1.862.944-2.565 2.789-1.907 1.755.627 2.36-.179 2.176-1.863-.2-1.821.449-2.791 2.43-2.43 1.692.309 2.469-.328 2.083-2.08-.419-1.9.366-2.7 2.256-2.616 1.589.072 2.289-.525 1.642-2.2-.7-1.822-.122-2.9 1.929-3.056 1.613-.123 2.106-.914 1.321-2.409-.859-1.637-.669-2.813 1.406-3.219 1.648-.322 2.2-1.206 1.1-2.676-1.3-1.733-.543-2.74 1.178-3.359 1.6-.574 1.737-1.465.66-2.644-1.36-1.488-1.167-2.636.651-3.529 1.45-.712 1.702-1.635.385-2.719"/><ellipse cx="45.144" cy="45.167" fill="#f4f9fc" rx="45.144" ry="45.167" transform="translate(3674.261 5963.238)"/><path fill="#4d4d4d" stroke="rgba(0,0,0,0)" stroke-miterlimit="10" d="M3705.745 6040.758a35.137 35.137 0 0 1 0-64.706 35.11 35.11 0 0 1 38.476 57.181 35.12 35.12 0 0 1-38.476 7.525Zm-21.075-32.353a34.736 34.736 0 1 0 34.736-34.753 34.784 34.784 0 0 0-34.736 34.753Zm1.57 0a33.166 33.166 0 1 1 33.166 33.182 33.174 33.174 0 0 1-33.166-33.182Z"/><path stroke="rgba(0,0,0,0)" stroke-miterlimit="10" d="m3715.317 6051.357.29-5.953 4.18.2-.047.945-3.175-.155-.074 1.582 2.852.139-.044.895-2.851-.139-.077 1.592 3.277.159-.046.946Zm5.506-5.739 1-.111 3.928 4.044-.49-4.424 1-.111.655 5.924-1.084.121-3.832-3.951.478 4.322-1 .112Zm-8.8 5.323 1.041-4.538-2.952 3.565-.548-.126-1.093-4.494-1.041 4.538-.98-.226 1.333-5.809 1.528.351.916 4.051 2.589-3.246 1.52.349-1.333 5.81Zm16.948-5.684-1.743.476-.242-.888 4.456-1.218.242.888-1.742.476 1.328 4.861-.97.266Zm-28.295 2.019 2.343-5.48 3.847 1.646-.375.874-2.92-1.251-.62 1.451 2.625 1.123-.352.824-2.625-1.124-.626 1.466 3.018 1.291-.372.87Zm35.366 0 .228-.96a2.83 2.83 0 0 0 2.028-.132 1.28 1.28 0 0 0 .6-.53.66.66 0 0 0 .009-.624.62.62 0 0 0-.479-.361 2.8 2.8 0 0 0-.984.1 8 8 0 0 1-1.022.185 2.3 2.3 0 0 1-.695-.04 1.44 1.44 0 0 1-1.02-.865 1.5 1.5 0 0 1-.029-1.409 2.42 2.42 0 0 1 1.133-1.063 3.6 3.6 0 0 1 1.1-.337 3 3 0 0 1 1.103.036l-.143.919a2 2 0 0 0-.816-.033 2.8 2.8 0 0 0-.866.259 1.3 1.3 0 0 0-.565.481.6.6 0 0 0-.011.61.63.63 0 0 0 .5.371 4.2 4.2 0 0 0 1.256-.162 3.3 3.3 0 0 1 1.514-.057 1.48 1.48 0 0 1 .941.851 1.56 1.56 0 0 1 .036 1.4 2.34 2.34 0 0 1-1.169 1.115 3.6 3.6 0 0 1-1.609.386 4 4 0 0 1-1.04-.14Zm-39.151-2.04a3.04 3.04 0 0 1-1.417-1.908 3.16 3.16 0 0 1 2.349-3.74 3.03 3.03 0 0 1 2.331.409 3.12 3.12 0 0 1 1.419 1.769l-.861.367a2.1 2.1 0 0 0-.378-.723 2.7 2.7 0 0 0-.643-.534 2.12 2.12 0 0 0-1.6-.307 2.1 2.1 0 0 0-.711 3.841 2.6 2.6 0 0 0 1.4.44l.866-1.39.853.532-1.077 1.73a2.6 2.6 0 0 1-.715.1 3.45 3.45 0 0 1-1.816-.586Zm44.9-2.783-3.856-1.742.911-.617 2.867 1.332-.172-3.158.91-.617.187 4.23 1.319 1.948-.847.574Zm-49.171-.225.444-1.414-2.245-1.965-1.341.626-.808-.707 5.9-2.756.808.707-1.948 6.215Zm-.881-3.809 1.629 1.426.8-2.561Zm53.952 2.064a2.84 2.84 0 0 0 1.922-.663 1.3 1.3 0 0 0 .437-.67.66.66 0 0 0-.156-.6.62.62 0 0 0-.558-.222 2.8 2.8 0 0 0-.923.355 8 8 0 0 1-.937.447 2.3 2.3 0 0 1-.681.146 1.44 1.44 0 0 1-1.211-.564 1.5 1.5 0 0 1-.4-1.352 2.43 2.43 0 0 1 .812-1.324 3.6 3.6 0 0 1 .971-.616 3 3 0 0 1 1.076-.252l.1.923a2 2 0 0 0-.795.184 2.7 2.7 0 0 0-.767.479 1.3 1.3 0 0 0-.419.613.6.6 0 0 0 .15.591.63.63 0 0 0 .579.226 4.2 4.2 0 0 0 1.169-.489 3.3 3.3 0 0 1 1.445-.455 1.47 1.47 0 0 1 1.132.572 1.57 1.57 0 0 1 .4 1.337 2.35 2.35 0 0 1-.828 1.39 3.62 3.62 0 0 1-2.492.933Zm-58.7-3.642 1.245-5.365-3.373 2.745-.635-.78 4.623-3.758.634.78-1.27 5.493 3.452-2.807.634.781-4.623 3.758Zm60.957-3.265-1.177 1.372-.7-.6 3.01-3.506.7.6-1.177 1.372 3.821 3.283-.656.763Zm1.588-3.38 2.273-3.52.794.514-1.726 2.67 1.324.857 1.551-2.4.751.487-1.551 2.4 1.337.867 1.783-2.757.794.514-2.328 3.6Zm-66.69 1.112.889-1.184-1.462-2.6-1.473.143-.527-.936 6.48-.63.526.936-3.907 5.207Zm.438-3.885 1.06 1.888 1.609-2.147Zm69.081-1.584.6-1.447 4.145-.214-2.756-3.1.6-1.439 5.494 2.3-.388.928-4.292-1.8 3.023 3.509-.218.519-4.612.314 4.292 1.8-.389.928Zm-73.052-1.463 4.41-1.483-4.58-.655-.179-.533 3.258-3.282-4.411 1.488-.32-.954 5.647-1.9.5 1.487-2.973 2.9 4.119.513.5 1.479-5.647 1.9Zm80.139-5.193a2.84 2.84 0 0 0 1.175-1.659 1.3 1.3 0 0 0-.035-.8.65.65 0 0 0-.478-.4.62.62 0 0 0-.583.145 2.8 2.8 0 0 0-.544.826 8 8 0 0 1-.5.91 2.3 2.3 0 0 1-.47.515 1.44 1.44 0 0 1-1.313.248 1.5 1.5 0 0 1-1.111-.866 2.43 2.43 0 0 1-.112-1.55 3.6 3.6 0 0 1 .432-1.066 3 3 0 0 1 .728-.833l.622.69a2 2 0 0 0-.539.613 2.8 2.8 0 0 0-.344.836 1.3 1.3 0 0 0 .016.742.6.6 0 0 0 .467.393.63.63 0 0 0 .6-.153 4.3 4.3 0 0 0 .665-1.078 3.3 3.3 0 0 1 .909-1.212 1.47 1.47 0 0 1 1.254-.188 1.56 1.56 0 0 1 1.106.85 2.35 2.35 0 0 1 .137 1.613 3.63 3.63 0 0 1-1.482 2.21Zm-53.61-44.447a1.66 1.66 0 0 1-.984-.5l-.114.059a3.07 3.07 0 0 1-2.4.074 2.95 2.95 0 0 1-1.7-1.663 2.95 2.95 0 0 1-.041-2.378 3.08 3.08 0 0 1 1.7-1.695 3.07 3.07 0 0 1 2.4-.073 2.94 2.94 0 0 1 1.7 1.659 3.025 3.025 0 0 1-.669 3.426.88.88 0 0 0 .824.062 1.3 1.3 0 0 0 .517-.408 1.2 1.2 0 0 0 .258-.594l.839.5a2.28 2.28 0 0 1-1.248 1.391 1.9 1.9 0 0 1-.767.156 2 2 0 0 1-.315-.016Zm-3.171-5.253a2 2 0 0 0-1.124 1.172 2.12 2.12 0 0 0 .044 1.646 2.12 2.12 0 0 0 1.165 1.165 2.087 2.087 0 0 0 2.748-1.184 2.12 2.12 0 0 0-.045-1.647 2.12 2.12 0 0 0-1.168-1.165 2.1 2.1 0 0 0-.8-.166 2.1 2.1 0 0 0-.82.179Zm31.145 4.64.942-2.155-.585-4.192 1.007.441.4 3.137 2.578-1.832 1.007.441-3.474 2.413-.942 2.156Zm-4.75-1.629 1.373-4.849-1.738-.492.25-.886 4.44 1.259-.251.886-1.739-.492-1.367 4.848Zm-20-.513a2.66 2.66 0 0 1-1.137-1.771l-.758-3.256.98-.228.745 3.215a1.93 1.93 0 0 0 .691 1.17 1.524 1.524 0 0 0 2.158-.5 1.92 1.92 0 0 0 .106-1.355l-.744-3.216.984-.228.755 3.256a2.66 2.66 0 0 1-.241 2.092 2.48 2.48 0 0 1-1.614 1.087 3 3 0 0 1-.68.082 2.35 2.35 0 0 1-1.248-.348Zm16.325-.275 1.036-5.87.991.174-1.033 5.866Zm-9.358-6.311 1.071-.07 3.006 5.777-1.071.07-.683-1.314-2.977.194-.507 1.391-1.072.07Zm-.306 3.7 2.16-.14-1.239-2.379Zm5.011 2.12.461-5.939 1 .077-.387 4.991 2.711.211-.074.952Z"/><path fill="#fff" stroke="rgba(0,0,0,0)" stroke-miterlimit="10" d="M3738.875 6026.45a.65.65 0 0 1-.325-.52.55.55 0 0 1 .17-.4.54.54 0 0 1 .4-.173 1.1 1.1 0 0 1 .414.084 4.4 4.4 0 0 1 .716.44 2.6 2.6 0 0 0 .55.3 1 1 0 0 0 .366.063.97.97 0 0 0 .73-.314 1.05 1.05 0 0 0 .3-.754 1.72 1.72 0 0 0-.922-1.5 4.3 4.3 0 0 0-2.324-.576q-.142 0-.424.005l1.269-3.575h3.324l-.528 1.351h-2.8l-.266.707a4.42 4.42 0 0 1 2.779.9 2.16 2.16 0 0 1 .8 1.706 2.56 2.56 0 0 1-1.418 2.244 3.26 3.26 0 0 1-1.481.338 2.32 2.32 0 0 1-1.33-.326Zm-10.112.062a2.5 2.5 0 0 1-.729-.748 3.6 3.6 0 0 1-.4-.949 6 6 0 0 1-.226-1.654 6.7 6.7 0 0 1 .325-2.126 2.52 2.52 0 0 1 .811-1.229 1.78 1.78 0 0 1 2.306-.005 2.44 2.44 0 0 1 .787 1.134 6.3 6.3 0 0 1 .351 2.142 6.4 6.4 0 0 1-.3 1.985 2.7 2.7 0 0 1-.479.927 2.4 2.4 0 0 1-.683.573 1.76 1.76 0 0 1-1.759-.05Zm.555-6.645a1.1 1.1 0 0 0-.262.647q-.068.463-.068 3.233a12.3 12.3 0 0 0 .105 2.021.9.9 0 0 0 .225.5.57.57 0 0 0 .387.126.47.47 0 0 0 .392-.167 1.66 1.66 0 0 0 .251-.906l.022-2.252q0-1.864-.022-2.174a1.93 1.93 0 0 0-.251-.984.5.5 0 0 0-.424-.168.5.5 0 0 0-.355.125Zm-21.061 6.645a2.5 2.5 0 0 1-.733-.748 3.7 3.7 0 0 1-.4-.949 6.1 6.1 0 0 1-.225-1.654 6.6 6.6 0 0 1 .325-2.126 2.52 2.52 0 0 1 .81-1.228 1.78 1.78 0 0 1 2.306-.005 2.44 2.44 0 0 1 .787 1.134 6.3 6.3 0 0 1 .351 2.142 6.4 6.4 0 0 1-.3 1.985 2.7 2.7 0 0 1-.479.927 2.4 2.4 0 0 1-.683.573 1.76 1.76 0 0 1-1.759-.05Zm.555-6.645a1.1 1.1 0 0 0-.262.647q-.067.463-.067 3.233a12.3 12.3 0 0 0 .1 2.021.9.9 0 0 0 .225.5.57.57 0 0 0 .387.126.47.47 0 0 0 .392-.167 1.66 1.66 0 0 0 .251-.906l.022-2.252q0-1.864-.022-2.174a1.93 1.93 0 0 0-.251-.984.5.5 0 0 0-.424-.168.5.5 0 0 0-.351.125Zm-6.129 6.645a2.5 2.5 0 0 1-.733-.748 3.7 3.7 0 0 1-.4-.949 6.1 6.1 0 0 1-.225-1.654 6.7 6.7 0 0 1 .325-2.126 2.52 2.52 0 0 1 .811-1.229 1.78 1.78 0 0 1 2.306-.005 2.44 2.44 0 0 1 .788 1.134 6.3 6.3 0 0 1 .351 2.142 6.4 6.4 0 0 1-.3 1.985 2.7 2.7 0 0 1-.479.927 2.4 2.4 0 0 1-.683.573 1.76 1.76 0 0 1-1.759-.05Zm.551-6.644a1.1 1.1 0 0 0-.262.647q-.068.463-.068 3.233a12.3 12.3 0 0 0 .1 2.021.9.9 0 0 0 .225.5.57.57 0 0 0 .387.126.47.47 0 0 0 .392-.167 1.66 1.66 0 0 0 .251-.906l.022-2.252q0-1.864-.022-2.174a1.93 1.93 0 0 0-.251-.984.5.5 0 0 0-.424-.168.5.5 0 0 0-.35.124Zm-7.543 6.762a4.6 4.6 0 0 0 1.473-.586 3 3 0 0 0 .958-.959 3.8 3.8 0 0 0 .495-1.314 3 3 0 0 1-.553.233 1.7 1.7 0 0 1-.479.065 1.75 1.75 0 0 1-1.342-.581 2.26 2.26 0 0 1-.536-1.592 2.85 2.85 0 0 1 .29-1.286 2.15 2.15 0 0 1 3.128-.872 2.5 2.5 0 0 1 .885 1.032 3.5 3.5 0 0 1 .329 1.54 4.6 4.6 0 0 1-.536 2.147 4.07 4.07 0 0 1-1.6 1.647 5.3 5.3 0 0 1-2.512.672Zm1.717-6.665a2.3 2.3 0 0 0-.2 1.178 4.06 4.06 0 0 0 .346 2 .69.69 0 0 0 .607.356 1.3 1.3 0 0 0 .539-.167q.053-.586.052-1.031a6.9 6.9 0 0 0-.22-1.776 1.34 1.34 0 0 0-.372-.67.5.5 0 0 0-.34-.116.46.46 0 0 0-.412.223Zm21.418 6.543a.84.84 0 0 1-.254-.616.85.85 0 0 1 .254-.618.87.87 0 0 1 1.236 0 .85.85 0 0 1 .254.618.83.83 0 0 1-.257.616.876.876 0 0 1-1.233 0Zm14.563.122v-.2h.189a1.46 1.46 0 0 0 .649-.1.54.54 0 0 0 .262-.288 3.2 3.2 0 0 0 .067-.854v-3.682a2.3 2.3 0 0 0-.047-.615.44.44 0 0 0-.175-.21.5.5 0 0 0-.3-.086 1.7 1.7 0 0 0-.649.167l-.094-.188 2.611-1.194h.173v5.807a3.6 3.6 0 0 0 .059.836.54.54 0 0 0 .24.3 1.14 1.14 0 0 0 .586.115h.163v.192Zm-11.687 0v-.115a23 23 0 0 0 2.332-3.085 3.3 3.3 0 0 0 .411-1.544 1.29 1.29 0 0 0-.34-.913 1.1 1.1 0 0 0-.833-.365 1.38 1.38 0 0 0-1.251.806l-.194-.067a2.9 2.9 0 0 1 .859-1.488 2 2 0 0 1 1.329-.482 1.97 1.97 0 0 1 .984.251 1.8 1.8 0 0 1 .7.688 1.66 1.66 0 0 1 .251.82 2.96 2.96 0 0 1-.387 1.414 13.4 13.4 0 0 1-2.309 2.7h1.534a3.5 3.5 0 0 0 .735-.047.6.6 0 0 0 .28-.16 2 2 0 0 0 .288-.473h.188l-.4 2.052Zm-8.819 0v-.2h.189a1.46 1.46 0 0 0 .649-.1.54.54 0 0 0 .262-.288 3.2 3.2 0 0 0 .068-.854v-3.682a2.3 2.3 0 0 0-.047-.615.44.44 0 0 0-.176-.21.5.5 0 0 0-.3-.086 1.7 1.7 0 0 0-.649.167l-.094-.188 2.611-1.194h.173v5.807a3.6 3.6 0 0 0 .058.836.54.54 0 0 0 .241.3 1.14 1.14 0 0 0 .586.115h.163v.192Zm5.951-3.555a.872.872 0 1 1 .616.254.84.84 0 0 1-.616-.254Zm-6.24-8.42a12 12 0 0 1-2.1-.861 2.75 2.75 0 0 0-1.159-.352 1.3 1.3 0 0 0-.808.352 2.44 2.44 0 0 0-.689 1.073h-.544v-9h.54a11.1 11.1 0 0 0 2.489 5.794 5.38 5.38 0 0 0 3.972 2 3.37 3.37 0 0 0 2.621-1.072 3.6 3.6 0 0 0 .977-2.5 3.8 3.8 0 0 0-.374-1.635 5 5 0 0 0-1.139-1.5 17 17 0 0 0-2.7-1.855 23 23 0 0 1-3.905-2.726 8.1 8.1 0 0 1-1.828-2.515 7.2 7.2 0 0 1-.639-3.06 7.13 7.13 0 0 1 1.746-4.863 5.59 5.59 0 0 1 4.405-2.005 6.3 6.3 0 0 1 1.875.282 8.5 8.5 0 0 1 1.681.782 3.5 3.5 0 0 0 1.388.572.72.72 0 0 0 .6-.282 3.6 3.6 0 0 0 .416-1.354h.441l.161 7.949h-.6a8.75 8.75 0 0 0-2.092-4.81 4.86 4.86 0 0 0-3.605-1.821 3.05 3.05 0 0 0-2.371.958 3.18 3.18 0 0 0-.874 2.207 3.1 3.1 0 0 0 .309 1.408 5.6 5.6 0 0 0 1.365 1.635 30 30 0 0 0 3.181 2.058 14.5 14.5 0 0 1 4.713 3.886 7.45 7.45 0 0 1 1.2 4.186 7.41 7.41 0 0 1-1.937 5.144 6.36 6.36 0 0 1-4.941 2.154 6.7 6.7 0 0 1-1.777-.229Zm13.361-4.15a14.3 14.3 0 0 1-2.321-8.175 13.2 13.2 0 0 1 3.017-8.854 8.79 8.79 0 0 1 7.421-3.335 9.06 9.06 0 0 1 7.731 3.324 13.27 13.27 0 0 1 2.973 8.846 14.43 14.43 0 0 1-2.217 7.983 9.32 9.32 0 0 1-8.3 4.573 9.44 9.44 0 0 1-8.306-4.362Zm4.14-15.9a21 21 0 0 0-1.16 7.879q0 6.1 1.792 9.022a3.89 3.89 0 0 0 3.494 2.039 3.7 3.7 0 0 0 2.525-.879 7.4 7.4 0 0 0 2.012-3.6 23.7 23.7 0 0 0 .72-6.445 25.4 25.4 0 0 0-.734-7.078 7.04 7.04 0 0 0-1.874-3.313 3.93 3.93 0 0 0-2.621-.968q-2.731.005-4.156 3.345Zm-36.061 19.716v-.651h.661a2.4 2.4 0 0 0 1.4-.37 1.56 1.56 0 0 0 .588-.843 8.7 8.7 0 0 0 .151-2.216v-15.686a9.4 9.4 0 0 0-.161-2.286 1.67 1.67 0 0 0-.653-.8 2.3 2.3 0 0 0-1.325-.339h-.661v-.655h10.41v.655h-.66a2.4 2.4 0 0 0-1.4.37 1.63 1.63 0 0 0-.6.844 8.6 8.6 0 0 0-.162 2.216v15.681a9 9 0 0 0 .172 2.289 1.7 1.7 0 0 0 .661.8 2.3 2.3 0 0 0 1.329.343h.661v.651Z"/></g></svg>