<svg xmlns="http://www.w3.org/2000/svg" width="60" height="60" fill="none"><path fill="#282928" d="M18 54v-2h2.1a5.91 5.91 0 0 1 3.9-4.51V45H9a3 3 0 0 1-3-3V19a3 3 0 0 1 3-3h2V7a1 1 0 0 1 1-1h36a1 1 0 0 1 1 1v9h2a3 3 0 0 1 3 3v23a3 3 0 0 1-3 3h-2.59l4.96 4.95-1.41 1.41-4.95-4.95-.71.71a1.002 1.002 0 0 1-.71.29h-.12a1 1 0 0 1-.74-.48L43.57 45H36v2.49A5.91 5.91 0 0 1 39.9 52H42v2H18Zm4.16-2h15.68c-.35-1.2-1.43-3-4.84-3v-2h1v-2h-8v2h4v2h-3c-3.41 0-4.49 1.8-4.84 3Zm23.63-7.2 1.01-1.01-2.54-1.53 1.53 2.54Zm-3.93-6.31 7.07 4.24a1 1 0 0 1 .28.27H51a1 1 0 0 0 1-1V19a1 1 0 0 0-1-1h-2v16h1v2H10v-2h1V18H9a1 1 0 0 0-1 1v23a1 1 0 0 0 1 1h33.37l-1.88-3.14a1 1 0 0 1 1.37-1.37ZM13 34h34V14H13v20Zm0-22h34V8H13v4Zm-3 30a1 1 0 0 1-1-1v-3h2v2h2v2h-3Zm14-10a1 1 0 0 1-1-1v-8h-3a1.002 1.002 0 0 1-1-1v-5a1 1 0 0 1 1-1h20a1 1 0 0 1 1 1v5a1 1 0 0 1-1 1h-3v8a1 1 0 0 1-1 1H24Zm7-11.14V30h4v-8a1 1 0 0 1 1-1h3v-3h-5.14A4 4 0 0 1 31 20.86ZM21 21h3a1 1 0 0 1 1 1v8h4v-9.14A4 4 0 0 1 26.14 18H21v3Zm7.98-2.3a2 2 0 0 0 2.74-.7h-3.44a2 2 0 0 0 .7.7ZM23 11V9h2v2h-2Zm-4 0V9h2v2h-2Zm-4 0V9h2v2h-2Z"/></svg>