<svg xmlns="http://www.w3.org/2000/svg" width="60" height="60" fill="none"><path fill="#282928" d="M30.506 55a4.065 4.065 0 0 1-2.894-1.222 4.217 4.217 0 0 1-1.203-2.947V40.417h-8.196c-2.174 0-4.246-1.705-4.719-3.87l-.775-3.556-.957.9a1.018 1.018 0 0 1-.737.281 1.007 1.007 0 0 1-.715-.334 1.046 1.046 0 0 1-.27-.753 1.058 1.058 0 0 1 .334-.725l1.831-1.721-1.502-6.89h2.095l1.145 5.255 5.589-5.254h3.016l-8.09 7.606 1.033 4.739c.265 1.215 1.51 2.238 2.722 2.238h16.392c1.212 0 2.479-1.022 2.756-2.223l1.079-4.68-8.17-7.68h3.016l5.69 5.35 1.233-5.35h2.102l-1.608 6.973 1.74 1.637a1.039 1.039 0 0 1 .339.726 1.06 1.06 0 0 1-.27.756 1.023 1.023 0 0 1-.718.334 1.006 1.006 0 0 1-.738-.286l-.89-.837-.814 3.532c-.494 2.143-2.586 3.831-4.748 3.831h-6.15v4.167h22.5v-31.25h-22.5V17.5h14.332a2.001 2.001 0 0 1 1.44.61 2.103 2.103 0 0 1 .591 1.471v2.088a2.096 2.096 0 0 1-.592 1.469 2.02 2.02 0 0 1-1.44.612H10.033a1.999 1.999 0 0 1-1.441-.61A2.103 2.103 0 0 1 8 21.669V19.58a2.096 2.096 0 0 1 .593-1.469 2.02 2.02 0 0 1 1.439-.612h16.377V9.168c0-.547.106-1.09.312-1.596a4.15 4.15 0 0 1 .888-1.353 4.08 4.08 0 0 1 1.329-.903A4.026 4.026 0 0 1 30.506 5h18.397a4.065 4.065 0 0 1 2.894 1.222A4.22 4.22 0 0 1 53 9.168v41.663a4.24 4.24 0 0 1-.311 1.597 4.173 4.173 0 0 1-.888 1.353c-.38.387-.833.694-1.33.903-.497.21-1.03.317-1.568.316H30.506Zm-2.051-4.169c.002.553.22 1.083.604 1.473.384.391.904.611 1.447.613h18.397a2.041 2.041 0 0 0 1.45-.609 2.086 2.086 0 0 0 .602-1.477v-4.164h-22.5v4.164Zm-18.41-29.167h32.728v-2.079H10.046v2.08Zm40.91-10.414V9.168a2.114 2.114 0 0 0-.604-1.473 2.038 2.038 0 0 0-1.448-.612H30.506a2.012 2.012 0 0 0-1.45.61 2.073 2.073 0 0 0-.446.676 2.118 2.118 0 0 0-.155.8v2.081h22.5ZM37.247 50.833a.59.59 0 0 1-.432-.176.612.612 0 0 1-.178-.438v-.855a.633.633 0 0 1 .183-.433.611.611 0 0 1 .427-.181h4.916a.59.59 0 0 1 .432.176.612.612 0 0 1 .179.438v.855a.633.633 0 0 1-.183.433.611.611 0 0 1-.428.181h-4.916Z"/></svg>