<svg xmlns="http://www.w3.org/2000/svg" width="60" height="60" fill="none"><path fill="#282928" d="M8.322 54A2.325 2.325 0 0 1 6 51.677V28.452a2.325 2.325 0 0 1 2.322-2.322h.774V7.548A1.55 1.55 0 0 1 10.646 6h30.967a1.55 1.55 0 0 1 1.549 1.548v7.742h4.645v1.04a.774.774 0 0 0 1.321.548l.736-.735 3.284 3.284-.736.735a.774.774 0 0 0 .548 1.322H54v4.645h-1.04a.776.776 0 0 0-.548 1.322l.736.736-.696.696v22.794A2.325 2.325 0 0 1 50.129 54H8.322Zm35.935-1.548h5.552l-2.776-2.777-2.776 2.777Zm-36.709-24v23.225a.775.775 0 0 0 .775.775h33.29v-21.49l-.508.508-3.284-3.284.508-.509H8.322a.775.775 0 0 0-.774.775Zm40.737 2.115a.763.763 0 0 0-.478.716V48.26l3.097 3.097V30.43l-1.04 1.04-.735-.736a.738.738 0 0 0-.535-.23.817.817 0 0 0-.31.062Zm-5.123 20.79 3.097-3.097V32.323h-3.097v19.034Zm.114-22.22a2.28 2.28 0 0 1 1.38 1.638h1.656a2.329 2.329 0 0 1 3.514-1.455l1.17-1.171a2.33 2.33 0 0 1 1.456-3.514v-1.656a2.33 2.33 0 0 1-1.456-3.514l-1.17-1.17a2.329 2.329 0 0 1-3.514-1.456h-1.656a2.33 2.33 0 0 1-3.514 1.455l-1.17 1.17a2.328 2.328 0 0 1-1.456 3.515v1.656a2.329 2.329 0 0 1 1.455 3.514l1.171 1.17a2.267 2.267 0 0 1 1.231-.363c.31 0 .616.062.902.181ZM26.129 15.29a1.55 1.55 0 0 1 1.549 1.549v9.29h9.29v-4.645h1.04a.775.775 0 0 0 .548-1.322l-.735-.735 3.284-3.284.508.509v-2.91H10.645v12.387h1.549v-9.29a1.55 1.55 0 0 1 1.548-1.549h12.387ZM13.742 26.13h12.387v-9.29H13.742v9.29Zm-3.097-13.936h30.968V7.549H10.645v4.646ZM35.42 48.581a2.322 2.322 0 1 1 4.644 0 2.322 2.322 0 0 1-4.644 0Zm1.549 0a.775.775 0 1 0 1.55 0 .775.775 0 0 0-1.55 0Zm-7.742 0a2.322 2.322 0 1 1 4.645 0 2.322 2.322 0 0 1-4.645 0Zm1.548 0a.775.775 0 1 0 1.55 0 .775.775 0 0 0-1.55 0ZM16.84 33.87v-.142a2.322 2.322 0 1 1 1.548 0v.142a6.194 6.194 0 1 0 12.387 0v-.142a2.322 2.322 0 1 1 1.549 0v.142a7.743 7.743 0 1 1-15.484 0Zm13.935-2.322a.774.774 0 1 0 1.55 0 .774.774 0 0 0-1.55 0Zm-13.935 0a.774.774 0 1 0 1.549 0 .774.774 0 0 0-1.55 0Zm24.774-7.742a3.87 3.87 0 0 1 7.668-.755 3.87 3.87 0 1 1-7.668.755Zm1.549 0a2.323 2.323 0 1 0 4.646 0 2.323 2.323 0 0 0-4.646 0Zm-13.936.774v-1.549h6.194v1.549h-6.194Zm0-3.097v-1.549h6.194v1.549h-6.194Zm4.645-3.097V16.84h4.645v1.548h-4.645Zm-4.645 0V16.84h3.097v1.548h-3.097Zm-10.839-7.742V9.097h1.549v1.548h-1.549Zm-3.097 0V9.097h1.549v1.548h-1.55Zm-3.096 0V9.097h1.548v1.548h-1.549Z"/></svg>