<svg xmlns="http://www.w3.org/2000/svg" width="60" height="60" fill="none"><path fill="#282928" d="M13.87 54c-.294 0-.576-.115-.784-.32a1.082 1.082 0 0 1 0-1.542c.207-.205.49-.32.784-.32h9.978v-5.454H7.808a2.835 2.835 0 0 1-1.984-.81A2.745 2.745 0 0 1 5 43.6V15.31c0-.734.297-1.436.824-1.954a2.835 2.835 0 0 1 1.985-.81h9.532l.963-1.422V7.091c0-.29.117-.567.325-.771.208-.205.49-.32.784-.32h22.174c.294 0 .576.115.784.32.208.204.325.482.325.77v4.034l.963 1.421h9.532a2.839 2.839 0 0 1 1.985.81c.527.519.823 1.221.824 1.954V43.6c0 .733-.297 1.435-.824 1.953a2.83 2.83 0 0 1-1.985.81H37.152v5.455h9.978c.294 0 .576.115.784.32a1.082 1.082 0 0 1 0 1.543 1.12 1.12 0 0 1-.784.319H13.87Zm12.195-2.182h8.87v-5.454h-8.87v5.454ZM7.217 43.6a.59.59 0 0 0 .592.581H53.19a.597.597 0 0 0 .418-.17.578.578 0 0 0 .174-.411v-3.782H7.217V43.6Zm0-28.29v22.326h46.566V15.31a.578.578 0 0 0-.174-.411.597.597 0 0 0-.418-.17h-8.054l1.772 2.615a1.083 1.083 0 0 1-.302 1.584 1.124 1.124 0 0 1-.583.164h-3.328v15.273c0 .289-.117.566-.325.771-.208.205-.49.32-.784.32H19.413c-.294 0-.576-.115-.784-.32a1.082 1.082 0 0 1-.325-.771V19.09h-3.326c-.2 0-.397-.054-.57-.156a1.099 1.099 0 0 1-.406-.42 1.076 1.076 0 0 1 .054-1.12l1.807-2.668H7.81a.596.596 0 0 0-.418.17.578.578 0 0 0-.174.412Zm22.174 17.963h11.087V19.09H20.522v14.182h6.652V31.18l-1.066-6.294-.728-1.433h-1.532c-.294 0-.576-.114-.784-.319a1.082 1.082 0 0 1 0-1.543c.208-.204.49-.32.784-.32h2.217a1.118 1.118 0 0 1 .992.604l.802 1.578h9.293a1.124 1.124 0 0 1 .846.386 1.086 1.086 0 0 1 .248.885l-1.109 6.545a1.086 1.086 0 0 1-.377.653 1.12 1.12 0 0 1-.716.259H29.39v1.09ZM29.221 30h5.883l.74-4.364h-7.362l.74 4.364ZM17.05 16.91h26.9l-2.956-4.364H20.006l-.74 1.09h7.908c.294 0 .576.115.784.32a1.082 1.082 0 0 1 0 1.543c-.208.204-.49.32-.784.32h-9.385l-.74 1.09Zm3.472-6.546h19.956V8.182H20.522v2.182Zm11.087 5.454c-.294 0-.576-.115-.784-.32a1.082 1.082 0 0 1 0-1.542c.208-.205.49-.32.784-.32h3.326c.294 0 .576.115.784.32a1.082 1.082 0 0 1 0 1.543c-.208.204-.49.32-.784.32h-3.326Z"/></svg>