<svg xmlns="http://www.w3.org/2000/svg" width="60" height="60" fill="none"><path fill="#282928" d="M9.52 53.999a5.56 5.56 0 0 1-3.9-1.599A5.426 5.426 0 0 1 4 48.545v-37.09a5.426 5.426 0 0 1 1.619-3.856A5.56 5.56 0 0 1 9.52 6h41.958a5.56 5.56 0 0 1 3.903 1.599A5.426 5.426 0 0 1 57 11.454v37.091a5.426 5.426 0 0 1-1.618 3.856A5.56 5.56 0 0 1 51.479 54l-41.958-.001Zm-3.312-5.455c.002.868.351 1.7.972 2.313a3.338 3.338 0 0 0 2.34.96h41.96a3.338 3.338 0 0 0 2.34-.96 3.26 3.26 0 0 0 .972-2.313V16.91H6.208v31.636Zm48.584-33.817v-3.273a3.258 3.258 0 0 0-.972-2.312 3.338 3.338 0 0 0-2.34-.96H9.52a3.338 3.338 0 0 0-2.34.96 3.258 3.258 0 0 0-.972 2.313v3.272h48.584ZM41.864 47.135l-3.826-3.78-.97.96a3.34 3.34 0 0 1-2.343.955 3.34 3.34 0 0 1-2.342-.956l-.623-.617a1.121 1.121 0 0 0-1.275-.205l-1.57.774a3.341 3.341 0 0 1-3.822-.613l-3.425-3.384-1.429 1.412a1.111 1.111 0 0 1-1.562 0 1.085 1.085 0 0 1 0-1.543l1.43-1.411-2.532-2.5a1.085 1.085 0 0 1 0-1.543 1.111 1.111 0 0 1 1.561 0l2.53 2.5 2.082-2.057-3.636-3.591a2.141 2.141 0 0 1-.654-1.539 2.123 2.123 0 0 1 .66-1.536l4.412-4.359a2.236 2.236 0 0 1 1.556-.624c.58 0 1.139.226 1.553.629l3.624 3.596 2.09-2.065-2.53-2.5a1.09 1.09 0 0 1-.324-.772 1.079 1.079 0 0 1 .324-.77 1.111 1.111 0 0 1 1.56 0l2.532 2.5 1.429-1.412a1.105 1.105 0 0 1 .783-.327 1.115 1.115 0 0 1 .786.32 1.09 1.09 0 0 1 .323.776 1.08 1.08 0 0 1-.331.774l-1.429 1.411 3.425 3.384a3.25 3.25 0 0 1 .928 1.79 3.232 3.232 0 0 1-.307 1.987l-.784 1.55a1.073 1.073 0 0 0 .207 1.26l.626.617c.62.614.968 1.447.968 2.314 0 .868-.348 1.7-.968 2.314l-.97.959 3.825 3.78a1.084 1.084 0 0 1 0 1.542 1.111 1.111 0 0 1-1.561 0Zm-8.544-4.98.625.617a1.112 1.112 0 0 0 1.562 0l3.502-3.46a1.085 1.085 0 0 0 0-1.543l-.624-.617a3.233 3.233 0 0 1-.62-3.776l.784-1.552a1.073 1.073 0 0 0-.208-1.26l-3.425-3.383-11.688 11.546 3.425 3.383a1.115 1.115 0 0 0 1.274.206l1.57-.775a3.344 3.344 0 0 1 3.823.614ZM21.676 30.008l3.634 3.576 4.39-4.337-3.628-3.605-4.396 4.366Z"/></svg>