<svg xmlns="http://www.w3.org/2000/svg" width="60" height="60" fill="none"><path fill="#282928" d="M40.312 52.915a3.086 3.086 0 1 1 6.17 0 3.086 3.086 0 0 1-6.17 0Zm1.642 0a1.443 1.443 0 1 0 2.887 0 1.443 1.443 0 0 0-2.887 0Zm-19.852 0a3.086 3.086 0 1 1 6.172 0 3.086 3.086 0 0 1-6.172 0Zm1.643 0a1.443 1.443 0 1 0 2.886 0 1.443 1.443 0 0 0-2.886 0Zm-2.613-4.342a2.476 2.476 0 0 1-2.408-1.945l-5.273-24.484H6.463a2.463 2.463 0 1 1 0-4.927h8.977a2.477 2.477 0 0 1 2.408 1.945l5.274 24.485h20.075a.821.821 0 1 1 0 1.642H22.459a.822.822 0 0 1-.803-.649l-5.413-25.132a.825.825 0 0 0-.802-.648h-2.368v1.642h1.04a.822.822 0 0 1 .803.648l5.413 25.133a.826.826 0 0 0 .803.648H48.72a.821.821 0 1 0 0-1.642h-2.896a.82.82 0 0 1 0-1.643h2.896a2.464 2.464 0 0 1 0 4.927H21.133ZM5.643 19.68a.822.822 0 0 0 .821.82h4.968v-1.64H6.463a.822.822 0 0 0-.821.82Zm19.616 22.18a.822.822 0 0 1-.802-.648l-4.173-19.361a.82.82 0 0 1 .802-.995h7.257a10.442 10.442 0 0 1-.227-.592h-2.247a.822.822 0 0 1-.82-.821v-5.161a.823.823 0 0 1 .82-.821h2.247c.132-.382.287-.756.464-1.12l-1.589-1.589a.822.822 0 0 1 0-1.16l3.65-3.65a.82.82 0 0 1 1.161 0L33.39 7.53c.364-.176.738-.331 1.12-.464V4.821A.821.821 0 0 1 35.33 4h5.161a.82.82 0 0 1 .821.821v2.246c.383.133.756.288 1.12.464l1.59-1.589a.821.821 0 0 1 1.16 0l3.65 3.65a.821.821 0 0 1 0 1.161l-1.589 1.588c.176.364.331.738.464 1.12h2.246a.82.82 0 0 1 .821.822v5.16a.82.82 0 0 1-.82.822h-2.248c-.069.2-.145.397-.227.592h7.7a.821.821 0 0 1 .8 1.006l-4.466 19.362a.822.822 0 0 1-.8.636H25.258Zm.664-1.642H50.06l4.088-17.72H22.102l3.82 17.72Zm.767-21.596h2.029a.82.82 0 0 1 .79.599c.16.565.375 1.114.643 1.636h3.199a6.053 6.053 0 0 1-.449-.576l-.012-.019a5.713 5.713 0 0 1-.143-.222l-.042-.068a6.624 6.624 0 0 1-.1-.175l-.007-.012a6.028 6.028 0 0 1-.147-.283l-.023-.05a6.42 6.42 0 0 1-.087-.193l-.033-.078a5.695 5.695 0 0 1-.073-.184l-.027-.071a6.45 6.45 0 0 1-.085-.252l-.012-.04a6.318 6.318 0 0 1-.063-.22l-.02-.085a7.309 7.309 0 0 1-.046-.193l-.003-.015-.013-.064a6.234 6.234 0 0 1-.048-.268l-.005-.034a6.329 6.329 0 0 1-.03-.24l-.008-.084a6.093 6.093 0 0 1-.016-.202l-.005-.087a6.147 6.147 0 0 1 .024-.898 6.065 6.065 0 0 1 12.09.9l-.004.082c-.004.07-.01.137-.016.203l-.008.087a5.87 5.87 0 0 1-.031.245l-.003.022a6.218 6.218 0 0 1-.049.274l-.014.064-.003.017a5.426 5.426 0 0 1-.044.19l-.022.085a7.566 7.566 0 0 1-.06.215l-.013.043c-.027.087-.056.17-.085.253l-.028.072a7.238 7.238 0 0 1-.07.182l-.035.082a5.752 5.752 0 0 1-.086.19l-.024.05a6.093 6.093 0 0 1-.147.284l-.008.015a5.634 5.634 0 0 1-.256.42l-.028.043-.012.018a6.022 6.022 0 0 1-.448.576h3.198a8.68 8.68 0 0 0 .642-1.635.82.82 0 0 1 .791-.6h2.028v-3.518h-2.028a.82.82 0 0 1-.79-.6 8.688 8.688 0 0 0-.794-1.913.822.822 0 0 1 .135-.984l1.435-1.434L44.6 7.684 43.167 9.12a.821.821 0 0 1-.983.135 8.69 8.69 0 0 0-1.914-.793.821.821 0 0 1-.6-.791V5.642h-3.519V7.67a.821.821 0 0 1-.599.79 8.693 8.693 0 0 0-1.914.794.82.82 0 0 1-.983-.135L31.22 7.685l-2.488 2.488 1.434 1.434a.822.822 0 0 1 .135.983 8.693 8.693 0 0 0-.793 1.914.821.821 0 0 1-.79.6h-2.029v3.519Zm6.823-2.213a4.536 4.536 0 0 0-.018.659l.004.063.01.147.007.061a3.4 3.4 0 0 0 .023.18l.004.031c.008.056.02.121.033.186l.012.056c.01.048.021.095.033.14l.016.062c.013.053.028.105.044.156l.008.03c.02.066.042.127.064.188l.02.054.05.13.025.059.063.139.014.03.09.178.025.043c.025.045.049.087.074.128l.03.05.083.13.017.026.006.008.01.015a4.467 4.467 0 0 0 1.746 1.497l.006.002h3.798l.007-.003a4.35 4.35 0 0 0 .215-.11l.02-.011a4.465 4.465 0 0 0 1.51-1.375l.013-.018.022-.033c.027-.04.054-.083.08-.127l.033-.053c.024-.04.048-.081.07-.124l.026-.045c.03-.056.06-.113.088-.17l.017-.038c.022-.046.043-.092.063-.139l.024-.058c.019-.044.036-.088.052-.132l.02-.055c.022-.059.043-.12.062-.182l.01-.032.044-.158.016-.062a4.24 4.24 0 0 0 .031-.138l.013-.058c.012-.063.024-.126.034-.19l.003-.022c.01-.063.017-.123.023-.183l.006-.064a6.01 6.01 0 0 0 .012-.148l.003-.058a4.52 4.52 0 0 0-.017-.661 4.422 4.422 0 0 0-8.799 0l.002-.001Zm1.825.447a2.573 2.573 0 1 1 5.147-.002 2.573 2.573 0 0 1-5.147.003v-.001Zm1.642 0a.93.93 0 1 0 1.862 0 .93.93 0 0 0-1.862 0Z"/></svg>