<svg xmlns="http://www.w3.org/2000/svg" width="23.183" height="26.733"><path fill-rule="evenodd" d="M18.901 7.31H4.281a.277.277 0 0 1-.313-.313V5.744a.3.3 0 0 1 .313-.313h14.62a.3.3 0 0 1 .313.313v1.253a.277.277 0 0 1-.313.313M4.595 6.683h13.993v-.627H4.595Z"/><path fill-rule="evenodd" d="M20.154 6.057H3.028a.34.34 0 0 1-.313-.314V.313A.34.34 0 0 1 3.028 0h17.126a.34.34 0 0 1 .313.313v5.43a.34.34 0 0 1-.313.314M3.342 5.43h16.5V.627h-16.5Z"/><path fill-rule="evenodd" d="M5.59 4.125a1.1 1.1 0 1 1 1.1-1.1 1.07 1.07 0 0 1-1.1 1.1m0-1.566a.47.47 0 1 0 .47.47.47.47 0 0 0-.47-.47M8.723 4.125a1.1 1.1 0 1 1 1.1-1.1 1.07 1.07 0 0 1-1.1 1.1m0-1.566a.47.47 0 1 0 .47.47.47.47 0 0 0-.47-.47M11.856 4.125a1.1 1.1 0 0 1 0-2.193 1.1 1.1 0 0 1 0 2.193m0-1.566a.47.47 0 1 0 .47.47.47.47 0 0 0-.47-.47M18.378 3.916a.34.34 0 0 1-.313-.313V2.454a.34.34 0 0 1 .313-.313.3.3 0 0 1 .313.313v1.149a.3.3 0 0 1-.313.313M16.916 3.916a.34.34 0 0 1-.313-.313V2.454a.34.34 0 0 1 .313-.313.3.3 0 0 1 .313.313v1.149a.3.3 0 0 1-.313.313M15.454 3.916a.34.34 0 0 1-.313-.313V2.454a.34.34 0 0 1 .313-.313.3.3 0 0 1 .313.313v1.149a.3.3 0 0 1-.313.313M20.154 12.792H3.028a.34.34 0 0 1-.313-.309V7.001a.34.34 0 0 1 .313-.313h17.126a.34.34 0 0 1 .313.313v5.482a.34.34 0 0 1-.313.309m-16.813-.627h16.5V7.309h-16.5Z"/><path fill-rule="evenodd" d="M5.59 10.86a1.115 1.115 0 0 1-1.1-1.145 1.1 1.1 0 0 1 2.193 0A1.115 1.115 0 0 1 5.59 10.86m0-1.619a.47.47 0 0 0-.47.47.473.473 0 1 0 .94 0 .47.47 0 0 0-.47-.469ZM8.723 10.86a1.115 1.115 0 0 1-1.1-1.145 1.1 1.1 0 0 1 2.193 0 1.115 1.115 0 0 1-1.093 1.145m0-1.619a.47.47 0 0 0-.47.47.473.473 0 1 0 .94 0 .47.47 0 0 0-.47-.469ZM11.856 10.86a1.115 1.115 0 0 1-1.1-1.145 1.1 1.1 0 0 1 1.1-1.1 1.123 1.123 0 0 1 0 2.245m0-1.619a.47.47 0 0 0-.47.47.473.473 0 1 0 .94 0 .47.47 0 0 0-.47-.469ZM18.378 10.599a.3.3 0 0 1-.313-.313v-1.1a.3.3 0 0 1 .313-.313.277.277 0 0 1 .313.313v1.1a.277.277 0 0 1-.313.313M16.916 10.599a.3.3 0 0 1-.313-.313v-1.1a.3.3 0 0 1 .313-.313.277.277 0 0 1 .313.313v1.1a.277.277 0 0 1-.313.313M15.454 10.599a.3.3 0 0 1-.313-.313v-1.1a.3.3 0 0 1 .313-.313.277.277 0 0 1 .313.313v1.1a.277.277 0 0 1-.313.313M11.591 19.058a.3.3 0 0 1-.313-.313v-6.266a.314.314 0 0 1 .627 0v6.266a.3.3 0 0 1-.314.313"/><path fill-rule="evenodd" d="M3.29 20.833c-.209 0-.313-.1-.313-.261-.157-2.4.313-4.073 1.462-5.117a7.5 7.5 0 0 1 3.6-1.41c1.462-.313 2.767-.574 3.289-1.723a.27.27 0 0 1 .365-.157.29.29 0 0 1 .157.418c-.627 1.41-2.193 1.775-3.655 2.036a7.26 7.26 0 0 0-3.342 1.305c-.992.888-1.41 2.4-1.253 4.595a.34.34 0 0 1-.31.314"/><path fill-rule="evenodd" d="M19.893 20.833a.34.34 0 0 1-.313-.313c.157-2.193-.261-3.707-1.253-4.595a7.26 7.26 0 0 0-3.342-1.305c-1.462-.261-3.028-.627-3.655-2.036a.29.29 0 0 1 .157-.418.27.27 0 0 1 .366.157c.522 1.149 1.827 1.41 3.289 1.723a7.5 7.5 0 0 1 3.6 1.41c1.149 1.044 1.619 2.715 1.462 5.117.002.155-.102.26-.311.26M3.289 26.733a3.263 3.263 0 1 1 3.237-3.237 3.265 3.265 0 0 1-3.237 3.237m0-5.9A2.637 2.637 0 1 0 5.9 23.496a2.674 2.674 0 0 0-2.611-2.663M11.591 24.958a3.263 3.263 0 1 1 3.237-3.237 3.253 3.253 0 0 1-3.237 3.237m0-5.9a2.63 2.63 0 0 0-2.611 2.663 2.611 2.611 0 1 0 5.221 0 2.63 2.63 0 0 0-2.61-2.663"/><path fill-rule="evenodd" d="M19.893 26.733a3.263 3.263 0 1 1 3.289-3.237 3.253 3.253 0 0 1-3.289 3.237m0-5.9a2.637 2.637 0 1 0 2.663 2.663 2.664 2.664 0 0 0-2.663-2.663"/></svg>