<svg xmlns="http://www.w3.org/2000/svg" width="26.733" height="26.734"><path d="M14.529 26.734H2.906A2.915 2.915 0 0 1 0 23.827V2.906A2.913 2.913 0 0 1 2.906 0h11.623a2.914 2.914 0 0 1 2.906 2.906v3a6.4 6.4 0 0 0-1.162.218V2.906a1.747 1.747 0 0 0-1.744-1.743H2.906a1.747 1.747 0 0 0-1.744 1.743v18.015h15.11v-2.633a6.4 6.4 0 0 0 1.162.218v5.322a2.915 2.915 0 0 1-2.905 2.906m-13.367-4.65v1.743a1.75 1.75 0 0 0 1.743 1.744h11.624a1.75 1.75 0 0 0 1.744-1.744v-1.743Zm6.392-18.6H6.393a.582.582 0 1 1 0-1.163h1.162a.582.582 0 0 1 0 1.163Zm-3.487 0H2.906a.582.582 0 1 1 0-1.163h1.162a.582.582 0 1 1 0 1.163Z"/><path d="M22.214 12.204a4.2 4.2 0 1 0-4.2 4.2 4.2 4.2 0 0 0 4.2-4.2m-7.233 0a3.035 3.035 0 1 1 3.035 3.035 3.035 3.035 0 0 1-3.035-3.035"/><path d="M14.144 17.926a6.909 6.909 0 0 0 7.744-11.443 7.02 7.02 0 0 0-7.741 0 6.907 6.907 0 0 0 0 11.446Zm-1.875-5.722a5.67 5.67 0 0 1 .982-3.217 5.748 5.748 0 1 1 7.978 7.982 5.84 5.84 0 0 1-6.433 0 5.7 5.7 0 0 1-1.545-1.549 5.67 5.67 0 0 1-.983-3.216Z"/><path d="M14.144 17.926a6.909 6.909 0 0 0 7.744-11.443 7.02 7.02 0 0 0-7.741 0 6.907 6.907 0 0 0 0 11.446Zm-1.875-5.722a5.67 5.67 0 0 1 .982-3.217 5.748 5.748 0 1 1 7.978 7.982 5.84 5.84 0 0 1-6.433 0 5.7 5.7 0 0 1-1.545-1.549 5.67 5.67 0 0 1-.983-3.216Z"/><path d="M22.214 12.204a4.2 4.2 0 1 0-4.2 4.2 4.2 4.2 0 0 0 4.2-4.2m-7.233 0a3.035 3.035 0 1 1 3.035 3.035 3.035 3.035 0 0 1-3.035-3.035"/><path d="M18.597 18.528V15.82a.581.581 0 1 0-1.162 0v2.708a.581.581 0 1 0 1.162 0M18.597 8.589V5.877a.581.581 0 1 0-1.162 0v2.712a.581.581 0 1 0 1.162 0M24.34 12.785a.581.581 0 0 0 0-1.162h-2.708a.581.581 0 0 0 0 1.162Z"/><path fill="#fff" d="M9.88 12.205a3.62 3.62 0 0 0 2.893 3.544 6.33 6.33 0 0 1 0-7.088 3.62 3.62 0 0 0-2.893 3.544"/><path d="M13.258 8.339a.58.58 0 0 0-.6-.249 4.2 4.2 0 0 0 0 8.227.6.6 0 0 0 .115.012.581.581 0 0 0 .48-.909 5.75 5.75 0 0 1 0-6.431.58.58 0 0 0 .005-.65m-1.77 6.138a3.032 3.032 0 0 1 0-4.547 7 7 0 0 0 0 4.547"/><path fill="#fff" d="M26.148 12.205a3.62 3.62 0 0 0-2.893-3.544 6.33 6.33 0 0 1 0 7.088 3.62 3.62 0 0 0 2.893-3.544"/><path d="M22.775 16.069a.58.58 0 0 0 .485.26.6.6 0 0 0 .115-.012 4.2 4.2 0 0 0 0-8.227.58.58 0 0 0-.6.249.58.58 0 0 0 .005.649 5.75 5.75 0 0 1 0 6.431.58.58 0 0 0-.005.65m1.77-6.141a3.032 3.032 0 0 1 0 4.547 7 7 0 0 0 0-4.547"/><path fill="#fff" d="M21.56 17.448a6.33 6.33 0 0 1-7.088 0 3.617 3.617 0 0 0 7.088 0"/><path d="M22.13 17.562a.581.581 0 0 0-.9-.594 5.85 5.85 0 0 1-6.43 0 .581.581 0 0 0-.9.594 4.2 4.2 0 0 0 8.227 0Zm-1.84 1.171a3.033 3.033 0 0 1-4.548 0 7.06 7.06 0 0 0 4.548 0"/><path fill="#fff" d="M18.016 4.068a3.62 3.62 0 0 0-3.544 2.893 6.33 6.33 0 0 1 7.088 0 3.62 3.62 0 0 0-3.544-2.893"/><path d="M14.801 7.44a5.85 5.85 0 0 1 6.43 0 .581.581 0 0 0 .9-.594 4.2 4.2 0 0 0-8.227 0 .581.581 0 0 0 .9.594Zm3.215-2.791a3.04 3.04 0 0 1 2.274 1.026 7 7 0 0 0-4.548 0 3.04 3.04 0 0 1 2.274-1.026M14.4 12.785a.581.581 0 1 0 0-1.162h-2.712a.581.581 0 1 0 0 1.162Z"/></svg>