<svg xmlns="http://www.w3.org/2000/svg" width="25.989" height="25.929"><path d="M23.292 17.419c.263 3.616.681 5.293-4.091 5.317a.84.84 0 0 0-.948.89v1.909a.394.394 0 0 1-.788 0v-1.909a1.6 1.6 0 0 1 1.735-1.678c1.871 0 3.2-.4 3.316-.986a15.3 15.3 0 0 0-.042-3.744.4.4 0 0 1 .249-.419 18 18 0 0 0 2.122-1.009c.3-.173.328-.334.337-.387a1.13 1.13 0 0 0-.324-.774 10.2 10.2 0 0 1-2.317-3.939C22.4-.579 6.9-3.079 3.261 7.589a.394.394 0 1 1-.75-.241C6.394-4.1 23.054-1.514 23.323 10.566a10.1 10.1 0 0 0 2.137 3.554c1.602 1.943-.823 2.696-2.168 3.299m-8.977-5.281a.4.4 0 0 1 .116.279v13.118a.394.394 0 0 1-.394.394H.394A.394.394 0 0 1 0 25.535v-2.886c.006-.6.933-.341 1.574-.394v-7.079c-.641-.059-1.569.207-1.574-.4V8.743a.394.394 0 0 1 .394-.394h9.97a.4.4 0 0 1 .278.116Zm-.672.443-2.885-2.888v2.2a.394.394 0 0 1-.787 0V9.137H8.265v2.755a.394.394 0 1 1-.787 0V9.137H5.773v2.755a.394.394 0 1 1-.788 0V9.137H3.28v2.755a.394.394 0 1 1-.787 0V9.137H.788v5.247c.641.056 1.566-.212 1.573.4v7.871c-.007.606-.927.339-1.573.394v2.1h12.859Zm-3.541 1.8a1.445 1.445 0 0 1 1.442 1.443V21.6a1.445 1.445 0 0 1-1.444 1.443H5.908A1.445 1.445 0 0 1 4.46 21.6v-5.773a1.446 1.446 0 0 1 1.448-1.443Zm0 .788H5.908a.657.657 0 0 0-.656.656V21.6a.657.657 0 0 0 .656.656H10.1a.657.657 0 0 0 .656-.656v-5.773a.657.657 0 0 0-.656-.651Z"/></svg>