<svg xmlns="http://www.w3.org/2000/svg" width="24.951" height="26.733"><path d="M11.139 12.921v7.129a.446.446 0 0 0 .446.446h5.347a.446.446 0 0 0 .446-.446v-7.129a3.119 3.119 0 0 0-6.238 0Zm5.347 0v6.681h-4.455v-6.683a2.228 2.228 0 1 1 4.455 0Zm0 0"/><path d="M12.475 12.921v1.337a.446.446 0 0 0 .446.446h2.673a.446.446 0 0 0 .446-.446v-1.337a1.782 1.782 0 0 0-3.564 0Zm2.673 0v.891h-1.782v-.891a.891.891 0 1 1 1.782 0M12.921 15.594h2.673v.891h-2.673ZM12.921 17.376h2.673v.891h-2.673ZM5.347 4.01h.891v.891h-.891ZM7.129 4.01h.891v.891h-.891ZM8.911 4.01h.891v.891h-.891ZM10.693 4.01h.891v.891h-.891Zm0 0"/><path d="M23.169 15.149a8.93 8.93 0 0 0-6.238-8.5V2.228A2.23 2.23 0 0 0 14.7 0H2.228A2.23 2.23 0 0 0 0 2.228v22.277a2.23 2.23 0 0 0 2.228 2.228H14.7a2.23 2.23 0 0 0 2.228-2.228v-.856a8.93 8.93 0 0 0 6.241-8.5m-.891 0a8.02 8.02 0 1 1-8.02-8.02 8.02 8.02 0 0 1 8.019 8.02ZM5.347.891h6.238v.891a.446.446 0 0 1-.446.446H5.792a.446.446 0 0 1-.446-.446ZM16.04 24.505a1.337 1.337 0 0 1-1.34 1.337H2.228a1.337 1.337 0 0 1-1.337-1.337V2.228A1.337 1.337 0 0 1 2.228.891h2.227v.891a1.337 1.337 0 0 0 1.337 1.337h5.347a1.337 1.337 0 0 0 1.337-1.337V.891H14.7a1.337 1.337 0 0 1 1.34 1.337v4.188a8.911 8.911 0 1 0 0 17.466Zm0 0"/><path d="m7.043 7.244.683-.573.573.683-.683.573ZM5.78 8.617l.573-.683.683.573-.573.683ZM4.775 10.188l.446-.772.772.446-.446.772ZM4.057 11.91l.3-.837.837.3-.3.837ZM3.649 13.731l.155-.878.877.155-.155.878ZM3.564 14.703h.891v.891h-.891ZM3.65 16.566l.877-.155.155.878-.877.155ZM4.057 18.387l.837-.3.3.837-.837.3ZM4.774 20.11l.772-.446.446.772-.772.446ZM5.78 21.68l.683-.573.573.683-.683.573ZM7.043 23.054l.573-.683.683.573-.573.683ZM8.525 24.189l.446-.772.772.446-.446.772ZM21.48 8.506l.683-.573.573.683-.683.573ZM22.524 9.862l.772-.446.446.772-.772.446ZM23.316 11.377l.837-.3.3.837-.837.305ZM23.833 13.007l.877-.155.155.878-.877.155ZM24.06 14.703h.891v.891h-.891ZM23.833 17.29l.155-.878.878.155-.155.878ZM23.317 18.92l.3-.837.837.3-.3.837ZM22.524 20.436l.446-.772.772.446-.446.772ZM21.484 21.794l.573-.682.683.573-.573.683ZM20.941 3.564h.891v-.891h.891v-.891h-.891V.891h-.891v.891h-.891v.891h.891ZM17.822 4.455h2.673v.891h-2.673ZM20.05 6.238h2.673v.891H20.05ZM20.495 23.169h-.891v.891h-.891v.891h.891v.891h.891v-.891h.891v-.891h-.891Zm0 0"/></svg>