<svg xmlns="http://www.w3.org/2000/svg" width="18.476" height="18.476"><path d="M18.115 7.803a.361.361 0 1 1 .352-.282.364.364 0 0 1-.352.282"/><path d="M18.115 6.177a.36.36 0 0 0 .361-.361V1.133A1.134 1.134 0 0 0 17.343 0H5.709a1.134 1.134 0 0 0-1.133 1.133v6.814H1.133A1.134 1.134 0 0 0 0 9.079v8.264a1.134 1.134 0 0 0 1.133 1.133H9.4a1.134 1.134 0 0 0 1.133-1.133V13.9h6.814a1.134 1.134 0 0 0 1.133-1.133V9.08a.361.361 0 1 0-.722 0v3.687a.41.41 0 0 1-.411.411H5.956l2.42-2.42a.361.361 0 1 0-.51-.51L5.3 12.814V1.133a.41.41 0 0 1 .409-.411h11.535L15.3 2.668a.361.361 0 0 0 .51.51l1.946-1.946v4.584a.36.36 0 0 0 .361.361ZM9.808 17.343a.41.41 0 0 1-.411.411H1.133a.41.41 0 0 1-.411-.411V9.079a.41.41 0 0 1 .411-.411h3.443v4.1A1.134 1.134 0 0 0 5.709 13.9h4.1z"/><path d="M9.714 10.6a.36.36 0 0 1-.255-.106L7.948 8.983a.36.36 0 0 1 0-.51l2.895-2.895-.76-.76a.361.361 0 0 1 .2-.612l4.2-.662a.36.36 0 0 1 .413.413l-.662 4.2a.361.361 0 0 1-.612.2l-.76-.76-2.895 2.895a.36.36 0 0 1-.253.108m-1-1.872 1 1 2.895-2.895a.36.36 0 0 1 .51 0l.513.513.474-3.012-3.012.474.513.513a.36.36 0 0 1 0 .51Z"/></svg>