<svg xmlns="http://www.w3.org/2000/svg" width="27.612" height="26.733"><path d="M6.798 20.667h1.088v4.518a1.544 1.544 0 0 0 1.548 1.548h8.785a1.544 1.544 0 0 0 1.548-1.548v-4.518c.335-.042 5.229.586 7.781-3.933a.38.38 0 0 0 0-.418.44.44 0 0 0-.377-.209h-.837V2.217A2.17 2.17 0 0 0 24.16 0H3.493a2.23 2.23 0 0 0-2.217 2.217v13.932H.439a.44.44 0 0 0-.377.209.38.38 0 0 0 0 .418 7.79 7.79 0 0 0 6.736 3.891m6.61-16.4-.586-.544a.415.415 0 1 0-.544.628l1.3 1.171a.39.39 0 0 0 .544 0l1.3-1.171a.415.415 0 1 0-.544-.628l-.628.544V2.51h8.493a1.125 1.125 0 0 1 1.13 1.13v12.467h-4.1v-5.564a1.544 1.544 0 0 0-1.548-1.548H9.434a1.544 1.544 0 0 0-1.548 1.548v5.564h-4.1V3.64a1.135 1.135 0 0 1 1.172-1.13h8.451Zm5.523 18.743H8.723V12.425h10.25c-.042 3.682-.042 6.736-.042 10.584Zm0-11.463H8.723v-1a.705.705 0 0 1 .711-.711h8.785a.705.705 0 0 1 .711.711Zm0 13.68a.705.705 0 0 1-.711.711H9.434a.705.705 0 0 1-.711-.711v-1.381h10.25v1.381Zm.837-5.4v-2.884h6.652c-2.259 3.263-5.731 2.8-6.652 2.887ZM2.113 2.217a1.393 1.393 0 0 1 1.38-1.38h20.709a1.385 1.385 0 0 1 1.339 1.381v13.931h-.837V3.64a1.964 1.964 0 0 0-1.966-1.966H4.958A1.973 1.973 0 0 0 2.95 3.64v12.467h-.837Zm5.773 14.768v2.887H6.798a6.8 6.8 0 0 1-5.564-2.887Z"/><path d="M12.488 25.311h2.719a.419.419 0 0 0 0-.837h-2.719a.419.419 0 1 0 0 .837M14.119 15.605a.39.39 0 0 0-.544 0l-1.339 1.13a.415.415 0 1 0 .544.628l.586-.544v3.429a.419.419 0 1 0 .837 0v-3.43l.586.544a.415.415 0 1 0 .544-.628Z"/></svg>