<svg xmlns="http://www.w3.org/2000/svg" width="64" height="54"><path d="M20 27a3 3 0 0 0 3-3v-6a1 1 0 0 0-2 0v6a1 1 0 0 1-2 0 1 1 0 0 0-2 0 3 3 0 0 0 3 3M35.052 26.316a1 1 0 0 0 1.9 0l2-6a1.001 1.001 0 1 0-1.9-.633L36 22.837l-1.052-3.154a1.001 1.001 0 1 0-1.9.633l2 6ZM27.5 22a2.5 2.5 0 0 0 0 5h.5a3 3 0 0 0 1.287-.3A1 1 0 0 0 31 26v-5a2 2 0 0 0-2-2h-3a1 1 0 0 0 0 2h3v1Zm.5 3h-.5a.5.5 0 0 1 0-1H29a1 1 0 0 1-1 1M43.5 22a2.5 2.5 0 0 0 0 5h.5a3 3 0 0 0 1.287-.3A1 1 0 0 0 47 26v-5a2 2 0 0 0-2-2h-3a1 1 0 0 0 0 2h3v1Zm.5 3h-.5a.5.5 0 0 1 0-1H45a1 1 0 0 1-1 1"/><path d="M63 44h-4V11a3 3 0 0 0-3-3h-5V3a3 3 0 0 0-3-3H16a3 3 0 0 0-3 3v5H8a3 3 0 0 0-3 3v33H1a1 1 0 0 0-1 1v5a4 4 0 0 0 4 4h56a4 4 0 0 0 4-4v-5a1 1 0 0 0-1-1m-7-34a1 1 0 0 1 1 1v33h-2V13a1 1 0 0 0-1-1h-3v-2Zm-5 34V14h2v30ZM15 3a1 1 0 0 1 1-1h32a1 1 0 0 1 1 1v41H15Zm11 43h12v1a1 1 0 0 1-1 1H27a1 1 0 0 1-1-1Zm-15-2V14h2v30ZM7 11a1 1 0 0 1 1-1h5v2h-3a1 1 0 0 0-1 1v31H7Zm55 39a2 2 0 0 1-2 2H4a2 2 0 0 1-2-2v-4h22v1a3 3 0 0 0 3 3h10a3 3 0 0 0 3-3v-1h22Z"/></svg>