<svg xmlns="http://www.w3.org/2000/svg" width="44.992" height="71.039"><path d="M36.704 0H8.288A8.3 8.3 0 0 0 0 8.288v54.464a8.3 8.3 0 0 0 8.288 8.288h28.416a8.3 8.3 0 0 0 8.288-8.288V8.288A8.3 8.3 0 0 0 36.704 0m5.92 62.752a5.927 5.927 0 0 1-5.92 5.92H8.288a5.927 5.927 0 0 1-5.92-5.92v-1.184h40.256zm0-3.552H2.368V11.84h40.256zm0-49.728H2.368V8.288a5.927 5.927 0 0 1 5.92-5.92h28.416a5.927 5.927 0 0 1 5.92 5.92z"/><path d="M23.68 4.736h-7.1a1.184 1.184 0 0 0 0 2.368h7.1a1.184 1.184 0 0 0 0-2.368M28.416 4.736a1.184 1.184 0 1 0 0 2.368 1.25 1.25 0 0 0 .841-.343l.142-.177a1 1 0 0 0 .106-.213.7.7 0 0 0 .07-.213 1.5 1.5 0 0 0 .024-.237 1.184 1.184 0 0 0-1.183-1.185M17.76 66.304h9.472a1.184 1.184 0 1 0 0-2.368H17.76a1.184 1.184 0 1 0 0 2.368M6.342 38.44l3.851 1.318a13 13 0 0 0 .612 1.467L9.01 44.88a2.375 2.375 0 0 0 .451 2.725l.955.954a2.37 2.37 0 0 0 2.723.451l3.656-1.8a13 13 0 0 0 1.467.612l1.315 3.849a2.37 2.37 0 0 0 2.244 1.608h1.35a2.37 2.37 0 0 0 2.244-1.607l1.315-3.85a13 13 0 0 0 1.467-.611l3.656 1.8a2.37 2.37 0 0 0 2.723-.451l.956-.956a2.37 2.37 0 0 0 .45-2.724l-1.795-3.655a13 13 0 0 0 .612-1.467l3.851-1.314a2.37 2.37 0 0 0 1.606-2.245V34.85a2.37 2.37 0 0 0-1.606-2.245l-3.851-1.314a13 13 0 0 0-.612-1.467l1.795-3.655a2.375 2.375 0 0 0-.451-2.725l-.955-.954a2.37 2.37 0 0 0-2.723-.451l-3.656 1.8a13 13 0 0 0-1.467-.612l-1.315-3.849a2.37 2.37 0 0 0-2.244-1.62h-1.35a2.37 2.37 0 0 0-2.244 1.607l-1.315 3.85a13 13 0 0 0-1.467.611l-3.656-1.8a2.37 2.37 0 0 0-2.723.451l-.956.956a2.37 2.37 0 0 0-.45 2.724l1.795 3.655a13 13 0 0 0-.612 1.467l-3.851 1.314a2.37 2.37 0 0 0-1.606 2.252v1.349a2.37 2.37 0 0 0 1.606 2.246m29.082-4.438 2.464.843v1.354l-2.461.84a12 12 0 0 0-.003-3.037m-12.253 16.91h-1.354l-.84-2.46a12 12 0 0 0 3.037 0Zm9.725-4.03-2.342-1.15a13 13 0 0 0 2.152-2.152l1.151 2.346Zm.006-22.723.955.96-1.15 2.342a13 13 0 0 0-2.152-2.152Zm-11.081-4.031h1.354l.84 2.46a12 12 0 0 0-3.037 0Zm.675 4.736a10.656 10.656 0 1 1-10.66 10.656 10.656 10.656 0 0 1 10.66-10.656m-10.4-.706 2.342 1.15a13 13 0 0 0-2.152 2.152l-1.151-2.346Zm.189 19.421a13 13 0 0 0 2.152 2.152l-2.347 1.15-.955-.96Zm-5.177-8.738 2.461-.84a12 12 0 0 0 0 3.037l-2.464-.843Z"/><path d="m13.371 36.357 3.552 3.552a1.184 1.184 0 0 0 1.674-1.674l-2.715-2.715 2.715-2.715a1.184 1.184 0 1 0-1.674-1.674l-3.552 3.552a1.184 1.184 0 0 0 0 1.674M26.08 39.381a1.184 1.184 0 0 0 1.986.528l3.552-3.552a1.183 1.183 0 0 0 0-1.674l-3.552-3.552a1.184 1.184 0 0 0-1.674 1.674l2.715 2.715-2.715 2.715a1.18 1.18 0 0 0-.312 1.146M21.692 42.565a1.18 1.18 0 0 0 .781-.892l2.368-11.84a1.184 1.184 0 0 0-2.322-.465l-2.368 11.84a1.184 1.184 0 0 0 1.54 1.357Z"/></svg>