<svg xmlns="http://www.w3.org/2000/svg" width="65.163" height="62.822"><path d="M64 54.676h-1.164V23.259a4.66 4.66 0 0 0-4.655-4.655h-5.818a1.164 1.164 0 0 0 0 2.327h5.818a2.33 2.33 0 0 1 2.327 2.327v31.419H38.4a1.16 1.16 0 0 0-.823.341l-.823.823h-8.345c-.426-.379-1-1.219-1.645-1.164H9.309a1.164 1.164 0 0 0 0 2.327h16.973c.425.339 1 1.248 1.645 1.164h9.309c.648.078 1.224-.806 1.645-1.164h23.808a4.66 4.66 0 0 1-4.507 3.491h-51.2a4.66 4.66 0 0 1-4.508-3.491h1.017a1.163 1.163 0 0 0 1.164-1.164V23.259a2.33 2.33 0 0 1 2.327-2.327H12.8a1.164 1.164 0 0 0 0-2.328H6.982a4.66 4.66 0 0 0-4.655 4.655v31.418H1.164A1.163 1.163 0 0 0 0 55.84a6.99 6.99 0 0 0 6.982 6.982h51.2a6.99 6.99 0 0 0 6.982-6.982A1.163 1.163 0 0 0 64 54.677Z"/><path d="M46.545 20.68a1.163 1.163 0 0 0 1.164-1.164V9.211a1.22 1.22 0 0 0-.582-1.008L33.163.142a1.37 1.37 0 0 0-.8-.122A4 4 0 0 0 32 .142L18.036 8.203a1.6 1.6 0 0 0-.38.373 1.35 1.35 0 0 0-.2.635v16.124a1.16 1.16 0 0 0 .582 1.008l13.964 8.062a1.16 1.16 0 0 0 .982.075q.093-.036.182-.075l13.964-8.062a1.164 1.164 0 0 0-1.164-2.016l-12.221 7.055V17.945c2.878-1.666 8.781-5.067 11.636-6.719v8.29a1.163 1.163 0 0 0 1.164 1.164m-6.982-8.782L27.927 5.18l4.654-2.687L44.217 9.21l-4.655 2.688Zm-6.981 4.031L20.945 9.211l4.654-2.687 11.636 6.718Zm-12.8-4.7 11.636 6.719v13.434l-11.637-6.719ZM39.904 48.517a1.163 1.163 0 0 0 1.645 0l3.491-3.491a1.163 1.163 0 0 0 0-1.645l-3.491-3.491a1.164 1.164 0 0 0-1.645 1.645l2.668 2.668-2.668 2.668a1.163 1.163 0 0 0 0 1.645ZM25.259 39.89a1.163 1.163 0 0 0-1.645 0l-3.491 3.491a1.163 1.163 0 0 0 0 1.645l3.491 3.491a1.164 1.164 0 0 0 1.645-1.645l-2.668-2.668 2.668-2.668a1.163 1.163 0 0 0 0-1.646M33.286 40.193l-3.491 6.982a1.164 1.164 0 0 0 2.082 1.041l3.494-6.983a1.164 1.164 0 0 0-2.082-1.041Z"/></svg>