<svg xmlns="http://www.w3.org/2000/svg" width="55.079" height="55.079"><path d="M41.314 39.026a6.887 6.887 0 0 1-6.88-6.88v-2.293a1.146 1.146 0 0 1 1.146-1.147 2.16 2.16 0 0 0 2.294-2.293 1.147 1.147 0 1 1 2.293 0s.362 2.293 6.88 2.293a1.147 1.147 0 0 1 1.147 1.147v2.293a6.887 6.887 0 0 1-6.88 6.88m-4.587-8.142v1.262a4.587 4.587 0 1 0 9.174 0v-1.171c-3.452-.149-5.421-.973-6.543-1.885a4.12 4.12 0 0 1-2.627 1.794Zm0 0"/><path d="M48.2 33.292h-1.147v-6.88a5.734 5.734 0 1 0-11.467 0v6.88h-1.15a1.147 1.147 0 0 1-1.147-1.147v-5.733a8.027 8.027 0 1 1 16.054 0v5.733a1.147 1.147 0 0 1-1.143 1.147M42.465 36.732h2.294v3.44h-2.294ZM37.879 36.732h2.293v3.44h-2.293Zm0 0"/><path d="M52.785 55.077H29.851a1.147 1.147 0 0 1-1.147-1.146v-6.88a8.036 8.036 0 0 1 8.027-8.027h2.293a1.146 1.146 0 0 1 1.119.9l1.175 5.284 1.174-5.284a1.146 1.146 0 0 1 1.119-.9h2.293a8.036 8.036 0 0 1 8.027 8.027v6.88a1.147 1.147 0 0 1-1.146 1.146m-21.788-2.293h20.641v-5.733a5.74 5.74 0 0 0-5.734-5.734h-1.376l-2.094 9.423a1.147 1.147 0 0 1-2.238 0l-2.089-9.423h-1.376a5.74 5.74 0 0 0-5.733 5.734Zm0 0"/><path d="M42.465 53.932h-2.293v-3.44a1.15 1.15 0 0 1 .43-.9l4.952-3.961-2.924-4.873 1.965-1.181 3.44 5.734a1.146 1.146 0 0 1-.266 1.49l-5.3 4.237Zm0 0"/><path d="m40.602 51.388-5.733-4.587a1.15 1.15 0 0 1-.266-1.491l3.44-5.734 1.965 1.181-2.924 4.873 4.952 3.961ZM29.851 32.145h-13.76a16.071 16.071 0 1 1 11.148-4.512l3.3 2.448a1.147 1.147 0 0 1-.688 2.064M16.091 2.33a13.761 13.761 0 0 0 0 27.521H26.38l-1.645-1.219a1.147 1.147 0 0 1-.036-1.815A13.755 13.755 0 0 0 16.091 2.33m0 0"/><path d="m10.693 21.488-4.587-4.587a1.147 1.147 0 0 1 0-1.621l4.587-4.592 1.621 1.621-3.776 3.779 3.776 3.776ZM21.486 21.488l-1.621-1.621 3.778-3.779-3.776-3.777 1.621-1.621 4.587 4.587a1.147 1.147 0 0 1 0 1.621ZM13.833 20.401l2.29-9.175 2.225.556-2.29 9.174ZM16.091 55.078H3.477a3.44 3.44 0 0 1-3.44-3.44v-24.08H2.33v24.081a1.147 1.147 0 0 0 1.147 1.147h12.614a1.147 1.147 0 0 0 1.147-1.147v-2.293a1.147 1.147 0 0 1 1.146-1.147h2.966l-3.776-3.776a1.15 1.15 0 0 1-.336-.81v-9.175h2.293v8.7l5.4 5.4a1.147 1.147 0 0 1-.81 1.958h-4.59v1.146a3.44 3.44 0 0 1-3.44 3.44ZM47.052 17.237a1.15 1.15 0 0 1-.811-.336l-5.4-5.4h-7.552V9.21h8.027a1.15 1.15 0 0 1 .81.336l3.776 3.776v-2.966a1.147 1.147 0 0 1 1.147-1.146h4.587a1.147 1.147 0 0 0 1.146-1.147V3.476a1.146 1.146 0 0 0-1.146-1.146H28.704V.036h22.935a3.44 3.44 0 0 1 3.44 3.44v4.587a3.44 3.44 0 0 1-3.44 3.44h-3.44v4.587a1.15 1.15 0 0 1-.708 1.06 1.1 1.1 0 0 1-.439.087m0 0"/><path d="M8.063 34.438h5.734v2.294H8.063ZM5.77 39.025h8.027v2.293H5.77ZM5.77 43.612h8.027v2.293H5.77ZM5.77 48.199h8.027v2.294H5.77ZM33.292 4.623h17.2v2.293h-17.2Zm0 0"/></svg>