<svg xmlns="http://www.w3.org/2000/svg" width="62.822" height="62.822"><path d="M62.133 26.99 53.1 22.418l3.176-9.592a1.25 1.25 0 0 0-.3-1.284l-4.697-4.688A1.27 1.27 0 0 0 50 6.548l-9.6 3.166L35.832.689A1.25 1.25 0 0 0 34.711 0h-6.6a1.25 1.25 0 0 0-1.121.69l-4.565 9.023-9.6-3.164a1.27 1.27 0 0 0-1.281.305l-4.69 4.688a1.25 1.25 0 0 0-.3 1.283l3.176 9.592L.689 26.99A1.26 1.26 0 0 0 0 28.111v6.6a1.26 1.26 0 0 0 .689 1.121l9.018 4.563L6.549 50a1.25 1.25 0 0 0 .3 1.281l4.688 4.688a1.26 1.26 0 0 0 1.281.305l9.6-3.164 4.566 9.023a1.25 1.25 0 0 0 1.121.69h6.6a1.25 1.25 0 0 0 1.121-.69l4.574-9.026 9.6 3.166a1.26 1.26 0 0 0 1.282-.305l4.688-4.688a1.26 1.26 0 0 0 .3-1.281l-3.159-9.6 9.019-4.563a1.26 1.26 0 0 0 .689-1.121v-6.6a1.26 1.26 0 0 0-.689-1.121Zm-1.824 6.948-8.938 4.522a1.26 1.26 0 0 0-.609.68l-.225.566a1.25 1.25 0 0 0-.019.837l3.127 9.506-3.595 3.594-9.484-3.126a1.27 1.27 0 0 0-.786 0 6 6 0 0 0-.382.146c-.069.028-.137.058-.21.081a1.26 1.26 0 0 0-.727.627l-4.522 8.937h-5.056l-4.522-8.937a1.25 1.25 0 0 0-.727-.625q-.107-.038-.209-.083a7 7 0 0 0-.383-.146 1.27 1.27 0 0 0-.787 0l-9.484 3.126-3.594-3.595 3.123-9.506a1.26 1.26 0 0 0-.017-.835l-.229-.571a1.26 1.26 0 0 0-.608-.677l-8.933-4.521v-5.055l8.937-4.521a1.26 1.26 0 0 0 .608-.677 5 5 0 0 1 .2-.45 1.26 1.26 0 0 0 .069-.957l-3.149-9.507 3.593-3.594 9.484 3.123a1.26 1.26 0 0 0 .787 0 6 6 0 0 0 .383-.146q.102-.043.209-.082a1.25 1.25 0 0 0 .727-.626l4.522-8.937h5.055l4.522 8.941a1.26 1.26 0 0 0 .727.627q.109.037.21.081.186.077.382.146a1.26 1.26 0 0 0 .786 0l9.485-3.127 3.593 3.594-3.143 9.506a1.25 1.25 0 0 0 .071.96 5 5 0 0 1 .2.446 1.26 1.26 0 0 0 .609.68l8.938 4.521Zm0 0"/><path d="M31.412 14.863A16.541 16.541 0 1 0 47.96 31.41a16.56 16.56 0 0 0-16.548-16.547m0 30.569A14.028 14.028 0 1 1 45.446 31.41a14.04 14.04 0 0 1-14.034 14.022m0 0"/><path d="M22.08 32.597c0 1.544-.538 1.953-1.45 1.953a2.4 2.4 0 0 1-.854-.151l-.152.83a3.3 3.3 0 0 0 1.088.187c1.357 0 2.387-.643 2.387-2.737v-5.275h-1.018ZM26.877 27.405l-2.678 7.883h1.052l.819-2.48h2.795l.843 2.48h1.087l-2.689-7.883Zm-.6 4.608.772-2.28c.151-.479.28-.959.4-1.426h.024c.117.456.233.923.41 1.439l.771 2.268ZM35.921 27.405l-1.333 3.9c-.352 1.029-.679 2.023-.9 2.935h-.024c-.21-.924-.5-1.883-.842-2.947l-1.23-3.888h-1.1l2.573 7.883h1.127l2.819-7.883ZM39.28 27.405l-2.678 7.883h1.053l.819-2.48h2.795l.842 2.48h1.088l-2.69-7.883Zm-.6 4.608.772-2.28c.151-.479.28-.959.4-1.426h.024c.117.456.233.923.41 1.439l.771 2.268Zm0 0"/></svg>