<svg xmlns="http://www.w3.org/2000/svg" width="65.284" height="65.284"><path d="M63.922 0H42.163a1.36 1.36 0 0 0-1.36 1.36v36.722h-6.237l1.758-1.758A1.36 1.36 0 0 0 34.4 34.4c-4.3 4.3-4.161 4.136-4.287 4.348a1 1 0 0 0-.061.116 1 1 0 0 0-.049.119 1 1 0 0 0-.038.126 1 1 0 0 0-.027.138 1.2 1.2 0 0 0 0 .391 1 1 0 0 0 .027.138 1 1 0 0 0 .038.126 1 1 0 0 0 .049.119 1 1 0 0 0 .061.115c.123.208-.033.027 4.287 4.348a1.36 1.36 0 0 0 1.924-1.924l-1.758-1.76h6.237v23.124a1.36 1.36 0 0 0 1.36 1.36h21.759a1.36 1.36 0 0 0 1.36-1.36V1.36A1.36 1.36 0 0 0 63.922 0m-20.4 10.881h19.041V13.6H43.522Zm19.041-8.16v5.44H43.522V2.72ZM43.522 62.564V16.321h19.041v46.243Z"/><path d="M30.883 26.8c4.331-4.332 4.163-4.14 4.288-4.35a1 1 0 0 0 .061-.116 1.4 1.4 0 0 0 .087-.247 1 1 0 0 0 .027-.14c0-.018.006-.037.008-.055a1.36 1.36 0 0 0-.223-.89c-.107-.16.159.123-4.249-4.286a1.36 1.36 0 1 0-1.924 1.924l1.76 1.76h-6.237V1.36A1.36 1.36 0 0 0 23.121 0H1.36A1.36 1.36 0 0 0 0 1.36v62.564a1.36 1.36 0 0 0 1.36 1.36h21.761a1.36 1.36 0 0 0 1.36-1.36v-40.8h6.237L28.96 24.88a1.36 1.36 0 1 0 1.923 1.92M2.72 10.881h19.041V13.6H2.72Zm19.041-8.16v5.44H2.72V2.72Zm0 59.843H2.72V16.321h19.041Z"/><path d="M5.44 19.041h2.72v2.72H5.44ZM10.881 19.041h2.72v2.72h-2.72ZM16.321 19.041h2.72v2.72h-2.72ZM46.243 19.041h2.72v2.72h-2.72ZM51.683 19.041h2.72v2.72h-2.72ZM57.123 19.041h2.72v2.72h-2.72ZM14.961 57.123h-6.8v-6.8a1.36 1.36 0 1 0-2.72 0v8.16a1.36 1.36 0 0 0 1.36 1.36h8.16a1.36 1.36 0 1 0 0-2.72M55.764 57.123h-6.8v-6.8a1.36 1.36 0 0 0-2.72 0v8.16a1.36 1.36 0 0 0 1.36 1.36h8.16a1.36 1.36 0 0 0 0-2.72"/></svg>