<svg xmlns="http://www.w3.org/2000/svg" width="34.506" height="54.483"><path d="M28.15 0H6.356A6.364 6.364 0 0 0 0 6.356v41.771a6.364 6.364 0 0 0 6.356 6.356h21.793a6.364 6.364 0 0 0 6.356-6.356V6.356A6.364 6.364 0 0 0 28.15 0m4.54 48.127a4.546 4.546 0 0 1-4.54 4.54H6.356a4.546 4.546 0 0 1-4.54-4.54v-.908H32.69zm0-2.724H1.816V9.081H32.69V45.4Zm0-38.138H1.816v-.909a4.546 4.546 0 0 1 4.54-4.54h21.793a4.546 4.546 0 0 1 4.54 4.54z"/><path d="M18.161 3.632h-5.448a.908.908 0 0 0 0 1.816h5.448a.908.908 0 0 0 0-1.816M21.794 3.632a.908.908 0 1 0 0 1.816.96.96 0 0 0 .645-.263l.109-.136a.7.7 0 0 0 .082-.164.6.6 0 0 0 .054-.164 1 1 0 0 0 .019-.181.91.91 0 0 0-.909-.908M13.621 50.851h7.264a.908.908 0 1 0 0-1.816h-7.264a.908.908 0 1 0 0 1.816M4.864 29.481l2.953 1.008a10 10 0 0 0 .469 1.125l-1.376 2.8a1.82 1.82 0 0 0 .346 2.09l.732.732a1.82 1.82 0 0 0 2.088.346l2.8-1.377a10 10 0 0 0 1.125.469l1.008 2.952a1.82 1.82 0 0 0 1.721 1.233h1.036a1.82 1.82 0 0 0 1.721-1.232l1.009-2.953a10 10 0 0 0 1.125-.469l2.8 1.377a1.82 1.82 0 0 0 2.088-.346l.733-.733a1.82 1.82 0 0 0 .345-2.089l-1.377-2.8a10 10 0 0 0 .469-1.125l2.953-1.008a1.82 1.82 0 0 0 1.232-1.722v-1.035a1.82 1.82 0 0 0-1.232-1.722l-2.953-1.008a10 10 0 0 0-.469-1.125l1.376-2.8a1.82 1.82 0 0 0-.346-2.09l-.732-.732a1.82 1.82 0 0 0-2.088-.346l-2.8 1.377a10 10 0 0 0-1.125-.469l-1.008-2.952a1.82 1.82 0 0 0-1.716-1.238h-1.039a1.82 1.82 0 0 0-1.721 1.232l-1.009 2.953a10 10 0 0 0-1.125.469l-2.8-1.377a1.82 1.82 0 0 0-2.088.346l-.733.733a1.82 1.82 0 0 0-.345 2.089l1.377 2.8a10 10 0 0 0-.469 1.125l-2.953 1.008a1.82 1.82 0 0 0-1.234 1.727v1.035a1.82 1.82 0 0 0 1.232 1.722m22.3-3.4 1.89.647v1.038l-1.887.644a9.2 9.2 0 0 0 .001-2.332Zm-9.4 12.969h-1.038l-.645-1.887a9.2 9.2 0 0 0 2.329 0Zm7.459-3.091-1.8-.882a10 10 0 0 0 1.651-1.65l.882 1.8Zm0-17.427.732.736-.882 1.8a10 10 0 0 0-1.65-1.65Zm-8.5-3.092h1.038l.644 1.887a9.2 9.2 0 0 0-2.329 0Zm.518 3.632a8.173 8.173 0 1 1-8.173 8.173 8.173 8.173 0 0 1 8.185-8.176Zm-7.977-.541 1.8.882a10 10 0 0 0-1.651 1.65l-.882-1.8Zm.145 14.895a10 10 0 0 0 1.65 1.65l-1.8.882-.732-.736Zm-3.971-6.7 1.887-.644a9.2 9.2 0 0 0 0 2.329l-1.89-.647Z"/><path d="m10.255 27.884 2.724 2.724a.908.908 0 0 0 1.284-1.284l-2.082-2.082 2.082-2.082a.908.908 0 1 0-1.284-1.284L10.255 26.6a.91.91 0 0 0 0 1.284M20.004 30.203a.908.908 0 0 0 1.523.4l2.724-2.724a.91.91 0 0 0 0-1.284l-2.724-2.724a.908.908 0 0 0-1.284 1.284l2.082 2.082-2.082 2.082a.91.91 0 0 0-.239.884M16.636 32.644a.91.91 0 0 0 .6-.684l1.816-9.081a.908.908 0 1 0-1.781-.356l-1.816 9.081a.908.908 0 0 0 1.181 1.041Z"/></svg>