<svg xmlns="http://www.w3.org/2000/svg" width="47.998" height="48"><path d="M37 26a11.01 11.01 0 0 0-10.574 8H8v-3h17a1 1 0 0 0 0-2H3a1 1 0 0 1-1-1v-8a1 1 0 0 1 1-1h32a1 1 0 0 1 1 1v3a1 1 0 0 0 2 0v-3a3 3 0 0 0-3-3h-3v-3h3a3 3 0 0 0 3-3V3a3 3 0 0 0-3-3H3a3 3 0 0 0-3 3v8a3 3 0 0 0 3 3h3v3H3a3 3 0 0 0-3 3v8a3 3 0 0 0 3 3h3v3H3a3 3 0 0 0-3 3v8a3 3 0 0 0 3 3h32a.97.97 0 0 0 .453-.122A10.994 10.994 0 1 0 37 26M2 11V3a1 1 0 0 1 1-1h32a1 1 0 0 1 1 1v8a1 1 0 0 1-1 1H3a1 1 0 0 1-1-1m6 3h22v3H8ZM3 46a1 1 0 0 1-1-1v-8a1 1 0 0 1 1-1h23.051c-.03.33-.051.662-.051 1a10.99 10.99 0 0 0 4.7 9Zm34 0a9 9 0 1 1 9-9 9 9 0 0 1-9 9"/><path d="m43.707 36.293-2-2a1 1 0 1 0-1.414 1.414L41.586 37l-1.293 1.293a1 1 0 1 0 1.414 1.414l2-2a1 1 0 0 0 0-1.414M33.707 34.293a1 1 0 0 0-1.414 0l-2 2a1 1 0 0 0 0 1.414l2 2a1 1 0 1 0 1.414-1.414L32.414 37l1.293-1.293a1 1 0 0 0 0-1.414M38.316 33.051a1 1 0 0 0-1.264.633l-2 6a1 1 0 0 0 1.9.632l2-6a1 1 0 0 0-.636-1.265M31 6h2a1 1 0 0 0 0-2h-2a1 1 0 0 0 0 2M31 21a1 1 0 0 0 0 2h2a1 1 0 0 0 0-2Z"/></svg>