<svg xmlns="http://www.w3.org/2000/svg" width="60" height="60"><path d="M57 6H18V3a1 1 0 0 0-.1-.447l-1-2A1 1 0 0 0 16 0h-2a1 1 0 0 0-.9.553l-1 2A1 1 0 0 0 12 3v3.382l-3 1.5-3-1.5V3a1 1 0 0 0-.1-.447l-1-2A1 1 0 0 0 4 0H2a1 1 0 0 0-.895.553l-1 2A1 1 0 0 0 0 3v8a1 1 0 0 0 .293.707L4 15.414v29.172L.293 48.293A1 1 0 0 0 0 49v8a1 1 0 0 0 .1.447l1 2A1 1 0 0 0 2 60h2a1 1 0 0 0 .895-.553l1-2A1 1 0 0 0 6 57v-3.382l3-1.5 3 1.5V57a1 1 0 0 0 .1.447l1 2A1 1 0 0 0 14 60h2a1 1 0 0 0 .9-.553l1-2A1 1 0 0 0 18 57v-3h39a3 3 0 0 0 3-3V9a3 3 0 0 0-3-3m-39.293 5.707A1 1 0 0 0 18 11V8h39a1 1 0 0 1 1 1v5H15.414ZM16 56.764 15.382 58h-.764L14 56.764V53a1 1 0 0 0-.553-.9l-4-2a1 1 0 0 0-.894 0l-4 2A1 1 0 0 0 4 53v3.764L3.382 58h-.764L2 56.764v-7.35l3.707-3.707A1 1 0 0 0 6 45V15a1 1 0 0 0-.293-.707L2 10.586v-7.35L2.618 2h.764L4 3.236V7a1 1 0 0 0 .553.9l4 2a1 1 0 0 0 .894 0l4-2A1 1 0 0 0 14 7V3.236L14.618 2h.764L16 3.236v7.35l-3.707 3.707A1 1 0 0 0 12 15v30a1 1 0 0 0 .293.707L16 49.414ZM57 52H18v-3a1 1 0 0 0-.293-.707L14 44.586V16h44v35a1 1 0 0 1-1 1"/><path d="M44 10h2v2h-2zM48 10h2v2h-2zM52 10h2v2h-2zM38.364 27.565 32 33.929l-1.414-1.415a3 3 0 0 0-4.243 4.243l3.536 3.536a3 3 0 0 0 4.242 0l8.485-8.485a3 3 0 1 0-4.242-4.243m2.828 2.829-8.485 8.485a1 1 0 0 1-1.414 0l-3.536-3.536a1 1 0 0 1 1.415-1.414l2.121 2.121a1 1 0 0 0 1.414 0l7.071-7.071a1 1 0 1 1 1.414 1.415"/><path d="M34 19a15 15 0 1 0 15 15 15 15 0 0 0-15-15m0 28a13 13 0 1 1 13-13 13 13 0 0 1-13 13"/></svg>