<svg xmlns="http://www.w3.org/2000/svg" width="52" height="62"><path d="M23 56h6v2h-6Z"/><path d="M1 48h8v9a5.006 5.006 0 0 0 5 5h24a5.006 5.006 0 0 0 5-5v-9h8a1 1 0 0 0 1-1V17a1 1 0 0 0-1-1h-8V5a5.006 5.006 0 0 0-5-5H14a5.006 5.006 0 0 0-5 5v11H1a1 1 0 0 0-1 1v30a1 1 0 0 0 1 1m21-20h8v14h-8Zm20 14h-2v-5a1 1 0 0 0-1-1h-4a1 1 0 0 0-1 1v5h-2V22h10Zm-4 0h-2v-4h2Zm-18 0h-2v-5a1 1 0 0 0-1-1h-4a1 1 0 0 0-1 1v5h-2V22h10Zm-4 0h-2v-4h2Zm28 2v2H8v-2Zm-6 16H14a3 3 0 0 1-3-3v-3h30v3a3 3 0 0 1-3 3m3-8H11v-4h30ZM31.719 2l-.5 2H20.781l-.5-2ZM11 5a3 3 0 0 1 3-3h4.22l.81 3.243A1 1 0 0 0 20 6h12a1 1 0 0 0 .97-.757L33.78 2H38a3 3 0 0 1 3 3v11H30.535l-3.7-5.555a1.04 1.04 0 0 0-1.664 0L21.465 16H11ZM2 18h20a1 1 0 0 0 .832-.445L26 12.8l3.168 4.752A1 1 0 0 0 30 18h20v28h-4v-3a1 1 0 0 0-1-1h-1V21a1 1 0 0 0-1-1H31a1 1 0 0 0-1 1v5h-8v-5a1 1 0 0 0-1-1H9a1 1 0 0 0-1 1v21H7a1 1 0 0 0-1 1v3H2Z"/><path d="M12 24h2v2h-2ZM16 24h2v2h-2ZM12 28h2v2h-2ZM16 28h2v2h-2ZM12 32h2v2h-2ZM16 32h2v2h-2ZM34 24h2v2h-2ZM38 24h2v2h-2ZM34 28h2v2h-2ZM38 28h2v2h-2ZM34 32h2v2h-2ZM38 32h2v2h-2ZM24 30h4v2h-4ZM24 34h4v2h-4ZM24 38h4v2h-4Z"/></svg>