<svg xmlns="http://www.w3.org/2000/svg" width="50" height="53.432"><path d="M47.71 43.83V14.718a4.48 4.48 0 0 0-4.52-4.43H42V4.432A4.663 4.663 0 0 0 37.143.004H14a4.66 4.66 0 0 0-4.857 4.428v5.856H6.81a4.48 4.48 0 0 0-4.52 4.43V43.83A4 4 0 0 0 0 47.432v5a1 1 0 0 0 1 1h48a1 1 0 0 0 1-1v-5a4 4 0 0 0-2.29-3.602m-17.994 3.031h-9.43v-1.429h9.429ZM4.29 39.69a1 1 0 0 0 .139.028h9.142a1 1 0 1 0 0-2h-2.457a1 1 0 0 0 .029-.143V7.783H40v29.792a1 1 0 0 0 .029.143h-8.172a1 1 0 1 0 0 2h13.714a1 1 0 0 0 .139-.028v3.738H4.29Zm38.9-27.4a2.48 2.48 0 0 1 2.52 2.43v23.026a1 1 0 0 0-.139-.028h-3.6a1 1 0 0 0 .029-.143V12.288ZM14 2.004h23.143A2.67 2.67 0 0 1 40 4.432v1.351H11.143V4.432A2.67 2.67 0 0 1 14 2.004M6.81 12.288h2.333v25.287a1 1 0 0 0 .028.143H4.429a1 1 0 0 0-.139.028V14.718a2.48 2.48 0 0 1 2.52-2.43M48 51.432H2v-4a2 2 0 0 1 2-2h14.286v1.429a2 2 0 0 0 2 2h9.428a2 2 0 0 0 2-2v-1.429H46a2 2 0 0 1 2 2Z"/><path d="M26.143 37.718h-6.857a1 1 0 0 0 0 2h6.857a1 1 0 0 0 0-2M29.287 19.827a1 1 0 0 0 1.414 0l3.43-3.428a1 1 0 0 0 0-1.414L30.7 11.556a1 1 0 1 0-1.414 1.414l2.722 2.722-2.721 2.726a1 1 0 0 0 0 1.409M20.145 19.827a1 1 0 0 0 1.414-1.409l-2.722-2.721 2.722-2.722a1 1 0 1 0-1.414-1.414l-3.429 3.429a1 1 0 0 0 0 1.414ZM23.262 20.826a1 1 0 0 0 1.309-.534l3.548-8.426a1 1 0 0 0-1.844-.775l-3.547 8.427a1 1 0 0 0 .534 1.308M36.429 27.432H22.857a1 1 0 0 0 0 2h13.572a1 1 0 0 0 0-2M14.714 24.861h21.715a1 1 0 0 0 0-2H14.714a1 1 0 1 0 0 2M37.429 33.004a1 1 0 0 0-1-1H14.714a1 1 0 1 0 0 2h21.715a1 1 0 0 0 1-1"/></svg>