<svg xmlns="http://www.w3.org/2000/svg" width="74.841" height="78.857"><path d="M25.117 34.4h-8.343a1.27 1.27 0 0 0-1.272 1.272v26.646a1.27 1.27 0 0 0 1.272 1.271h8.347a1.27 1.27 0 0 0 1.272-1.272v-26.64a1.27 1.27 0 0 0-1.276-1.277m-1.272 26.646h-5.8v-24.1h5.8Zm11.372 1.272a1.27 1.27 0 0 1-1.272 1.272h-1.677a1.27 1.27 0 0 1-1.272-1.272V39.156a1.27 1.27 0 0 1 1.272-1.272h8.347a1.27 1.27 0 0 1 1.272 1.272v4.189a1.272 1.272 0 1 1-2.544 0v-2.918h-5.8v20.619h.4a1.27 1.27 0 0 1 1.274 1.272m12.55-38.862h8.347a1.27 1.27 0 0 1 1.272 1.272v11.4a1.272 1.272 0 1 1-2.544 0V26h-5.8v11.686a1.272 1.272 0 1 1-2.544 0V24.728a1.27 1.27 0 0 1 1.269-1.272M9.618 44.739H1.274a1.27 1.27 0 0 0-1.272 1.272v16.306a1.27 1.27 0 0 0 1.272 1.272h8.347a1.27 1.27 0 0 0 1.272-1.272V46.011a1.27 1.27 0 0 0-1.275-1.272M8.347 61.046h-5.8V47.283h5.8Zm37.281-47.124a1.27 1.27 0 0 1 1.156-1.378l5.045-.442a1.272 1.272 0 0 1 1.375 1.408l-.563 5.033a1.272 1.272 0 1 1-2.528-.283l.157-1.4-12.925 13.035a1.27 1.27 0 0 1-1.3.314l-14.852-4.815L6.227 37.047a1.272 1.272 0 0 1-1.563-2.007l15.5-12.068a1.27 1.27 0 0 1 1.173-.206l14.754 4.782 12.5-12.609-1.586.139a1.27 1.27 0 0 1-1.378-1.156Zm27.669 56.354a1.27 1.27 0 0 1-.874 1.572l-3.256.929a1.272 1.272 0 0 1-1.62-1.177l-.121-3.383a1.272 1.272 0 0 1 2.51-.33 17.079 17.079 0 0 0-23.3-23.425 1.273 1.273 0 1 1-1.28-2.2 19.628 19.628 0 0 1 26.675 27.093 1.27 1.27 0 0 1 1.266.921m-7.755 4.185a1.27 1.27 0 0 1-.459 1.739 19.628 19.628 0 0 1-26.679-27.092 1.271 1.271 0 0 1-.392-2.493l3.256-.929a1.272 1.272 0 0 1 1.62 1.178l.121 3.383a1.27 1.27 0 0 1-1.225 1.317h-.046a1.27 1.27 0 0 1-1.239-.988A17.079 17.079 0 0 0 63.802 74a1.273 1.273 0 0 1 1.739.461Zm2.483-12.371a1.27 1.27 0 0 0 .815-1.187V57.56a1.27 1.27 0 0 0-.815-1.187l-1.443-.555a11.8 11.8 0 0 0-.915-2.207l.628-1.414a1.27 1.27 0 0 0-.263-1.416l-2.364-2.364a1.27 1.27 0 0 0-1.416-.263l-1.415.628a11.8 11.8 0 0 0-2.206-.915l-.557-1.443a1.27 1.27 0 0 0-1.187-.815h-3.342a1.27 1.27 0 0 0-1.187.815l-.556 1.444a11.8 11.8 0 0 0-2.206.915l-1.415-.628a1.27 1.27 0 0 0-1.416.263l-2.364 2.364a1.27 1.27 0 0 0-.263 1.416l.628 1.415a11.8 11.8 0 0 0-.915 2.207l-1.444.556a1.27 1.27 0 0 0-.815 1.187V60.9a1.27 1.27 0 0 0 .815 1.187l1.443.556a11.8 11.8 0 0 0 .915 2.207l-.628 1.414a1.27 1.27 0 0 0 .263 1.416l2.364 2.364a1.27 1.27 0 0 0 1.416.263l1.415-.628a11.8 11.8 0 0 0 2.206.915l.556 1.444a1.27 1.27 0 0 0 1.187.815h3.343a1.27 1.27 0 0 0 1.187-.813l.556-1.443a11.8 11.8 0 0 0 2.207-.915l1.414.628a1.27 1.27 0 0 0 1.416-.263l2.364-2.364a1.27 1.27 0 0 0 .263-1.416l-.628-1.415a11.8 11.8 0 0 0 .915-2.206Zm-1.729-2.06-1.232.474a1.27 1.27 0 0 0-.78.892 9.3 9.3 0 0 1-1.125 2.714 1.27 1.27 0 0 0-.079 1.183l.536 1.208-1.129 1.129-1.207-.536a1.27 1.27 0 0 0-1.183.079 9.3 9.3 0 0 1-2.715 1.127 1.27 1.27 0 0 0-.893.78l-.474 1.231h-1.6l-.474-1.232a1.27 1.27 0 0 0-.892-.78 9.3 9.3 0 0 1-2.714-1.125 1.27 1.27 0 0 0-1.183-.079l-1.207.536-1.126-1.131.536-1.207a1.27 1.27 0 0 0-.079-1.183 9.3 9.3 0 0 1-1.126-2.71 1.27 1.27 0 0 0-.776-.9l-1.231-.474v-1.6l1.231-.466a1.27 1.27 0 0 0 .78-.893 9.3 9.3 0 0 1 1.12-2.714 1.27 1.27 0 0 0 .079-1.183l-.536-1.208 1.129-1.129 1.208.536a1.27 1.27 0 0 0 1.183-.079 9.3 9.3 0 0 1 2.714-1.125 1.27 1.27 0 0 0 .893-.78l.474-1.232h1.6l.474 1.232a1.27 1.27 0 0 0 .893.78 9.3 9.3 0 0 1 2.714 1.125 1.27 1.27 0 0 0 1.183.079l1.208-.536 1.129 1.129-.536 1.207a1.27 1.27 0 0 0 .079 1.183 9.3 9.3 0 0 1 1.125 2.715 1.27 1.27 0 0 0 .78.893l1.231.474Zm-11.079-7.9a7.1 7.1 0 1 0 7.1 7.1 7.11 7.11 0 0 0-7.1-7.1m0 11.66a4.558 4.558 0 1 1 4.557-4.558 4.563 4.563 0 0 1-4.557 4.558M30.974 21.681a10.841 10.841 0 1 0-10.841-10.84 10.853 10.853 0 0 0 10.841 10.84m0-19.137a8.3 8.3 0 1 1-8.3 8.3 8.306 8.306 0 0 1 8.3-8.3m-1.272 8.3V5.156a1.272 1.272 0 1 1 2.544 0v4.951l3.478 2.008a1.272 1.272 0 1 1-1.272 2.2l-4.118-2.373a1.27 1.27 0 0 1-.636-1.101Zm-21.65 1.918a1.272 1.272 0 0 1 0 2.544h-1.66a1.272 1.272 0 0 1 0-2.544Zm4.377 0h5.611a1.272 1.272 0 1 1 0 2.544h-5.615a1.272 1.272 0 1 1 0-2.544Zm.791-3.835a1.272 1.272 0 1 1 0-2.544h3.425a1.272 1.272 0 0 1 0 2.544ZM2.187 20.409a1.27 1.27 0 0 1 1.272-1.272h9.138a1.272 1.272 0 0 1 0 2.544H3.459a1.27 1.27 0 0 1-1.272-1.272m14.592 0a1.27 1.27 0 0 1 1.272-1.272h1.771a1.272 1.272 0 1 1 0 2.544h-1.771a1.27 1.27 0 0 1-1.277-1.272ZM15.391 1.272A1.27 1.27 0 0 1 16.663 0h4.667a1.272 1.272 0 0 1 0 2.544h-4.667a1.27 1.27 0 0 1-1.272-1.272m-10.276 0A1.27 1.27 0 0 1 6.388 0h6.578a1.272 1.272 0 0 1 0 2.544H6.388a1.27 1.27 0 0 1-1.272-1.272ZM2.186 7.651a1.27 1.27 0 0 1 1.272-1.272H8.48a1.272 1.272 0 1 1 0 2.544H3.459a1.27 1.27 0 0 1-1.272-1.272Z"/></svg>