<svg xmlns="http://www.w3.org/2000/svg" width="66.003" height="66.003"><path d="M57.2 41.8H39.6a1.1 1.1 0 1 1 0-2.2h17.6a6.6 6.6 0 1 0 0-13.2c-.026 0-.381.046-.407.046a1.04 1.04 0 0 1-.928-.409 1.1 1.1 0 0 1-.2-.992A10.983 10.983 0 0 0 45.1 11a10.9 10.9 0 0 0-4.88 1.153 1.12 1.12 0 0 1-.9.037 1.1 1.1 0 0 1-.625-.642 14.295 14.295 0 0 0-18.265-8.5 1.101 1.101 0 0 1-.748-2.072A16.5 16.5 0 0 1 40.321 9.7a13 13 0 0 1 4.779-.9A13.214 13.214 0 0 1 58.3 22a13 13 0 0 1-.2 2.246 8.8 8.8 0 0 1-.9 17.554m-42.9 0H11a10.982 10.982 0 0 1-1.826-21.814 16.49 16.49 0 0 1 2.691-13.065A1.1 1.1 0 1 1 13.654 8.2a14.29 14.29 0 0 0-2.042 12.43 1.1 1.1 0 0 1-1 1.415A8.782 8.782 0 0 0 11 39.6h3.3a1.1 1.1 0 1 1 0 2.2"/><path d="M40.701 66.001h-17.6a5.506 5.506 0 0 1-5.5-5.5v-39.6a5.506 5.506 0 0 1 5.5-5.5h17.6a5.506 5.506 0 0 1 5.5 5.5v15.405a1.1 1.1 0 0 1-2.2 0V20.901a3.3 3.3 0 0 0-3.3-3.3h-17.6a3.3 3.3 0 0 0-3.3 3.3v39.6a3.3 3.3 0 0 0 3.3 3.3h17.6a3.3 3.3 0 0 0 3.3-3.3v-19.8a1.1 1.1 0 0 1 2.2 0v19.8a5.506 5.506 0 0 1-5.5 5.5M16.093 5.241a1.09 1.09 0 0 1-.856-.4 1.073 1.073 0 0 1 .147-1.527c.013-.009.048-.037.062-.046a1.11 1.11 0 0 1 1.536.209 1.09 1.09 0 0 1-.174 1.52 1.15 1.15 0 0 1-.715.244"/><path d="M34.101 22.001h-4.4a1.1 1.1 0 1 1 0-2.2h4.4a1.1 1.1 0 1 1 0 2.2m-2.199 33.001a1.1 1.1 0 0 1-1.1-1.1v-8.8a5.506 5.506 0 0 1 5.5-5.5h4.4a1.1 1.1 0 1 1 0 2.2h-4.4a3.3 3.3 0 0 0-3.3 3.3v8.8a1.1 1.1 0 0 1-1.1 1.1"/><path d="M31.901 55.003a1.1 1.1 0 0 1-.779-.321l-3.3-3.3a1.1 1.1 0 0 1 1.555-1.555l2.524 2.52 2.521-2.521a1.1 1.1 0 1 1 1.555 1.555l-3.3 3.3a1.09 1.09 0 0 1-.776.322m22.001-4.511a1.01 1.01 0 0 1-1.1-.99v-.22a1.1 1.1 0 1 1 2.2 0 1.2 1.2 0 0 1-1.1 1.21m0 4.4a1.01 1.01 0 0 1-1.1-.99v-.22a1.1 1.1 0 0 1 2.2 0 1.2 1.2 0 0 1-1.1 1.21m0 4.4a1.01 1.01 0 0 1-1.1-.99v-.22a1.1 1.1 0 0 1 2.2 0 1.2 1.2 0 0 1-1.1 1.21M9.9 50.492a1.01 1.01 0 0 1-1.1-.99v-.22a1.1 1.1 0 0 1 2.2 0 1.2 1.2 0 0 1-1.1 1.21m0 4.4a1.01 1.01 0 0 1-1.1-.99v-.22a1.1 1.1 0 0 1 2.2 0 1.2 1.2 0 0 1-1.1 1.21m0 4.4a1.01 1.01 0 0 1-1.1-.99v-.22a1.1 1.1 0 0 1 2.2 0 1.2 1.2 0 0 1-1.1 1.21"/></svg>