<svg xmlns="http://www.w3.org/2000/svg" width="66" height="66.003"><path d="m17.895 7.419-3.327-1.015c-.189-.058-.384-.1-.568-.175a1.263 1.263 0 0 1-.826-1.53 1.216 1.216 0 0 1 1.505-.853c.938.236 1.86.538 2.788.816 1.308.392 2.616.781 3.921 1.183a1.284 1.284 0 0 1 .994 1.812q-.967 3.261-1.967 6.512a1.259 1.259 0 1 1-2.4-.7c.352-1.22.727-2.432 1.093-3.648l-.15-.144c-1.1.82-2.242 1.588-3.291 2.469a26.7 26.7 0 0 0-7.9 11.159c-.343.9-.993 1.257-1.723.966s-.963-.963-.608-1.888A29.43 29.43 0 0 1 17.248 7.859c.177-.119.35-.24.647-.44m30.236 51.168 3.36 1.033c.105.032.214.054.318.088a1.276 1.276 0 0 1 1.015 1.589 1.29 1.29 0 0 1-1.76.811c-1.373-.4-2.741-.829-4.112-1.243-.8-.242-1.606-.468-2.4-.723a1.253 1.253 0 0 1-.945-1.729q.977-3.328 2-6.644a1.224 1.224 0 0 1 1.577-.917 1.25 1.25 0 0 1 .806 1.69c-.349 1.183-.707 2.363-1.058 3.545-.011.037.011.084.038.252.914-.647 1.812-1.224 2.646-1.883a26.76 26.76 0 0 0 8.586-11.693c.236-.622.576-1.108 1.305-1.124a1.235 1.235 0 0 1 1.119 1.789 50 50 0 0 1-2.447 5.047 28.4 28.4 0 0 1-9.483 9.7c-.165.107-.311.231-.565.412m8.236-39.428a26.1 26.1 0 0 0-8.929-9.03 54 54 0 0 0-4.848-2.4c-.894-.421-1.226-1.247-.709-1.963a1.35 1.35 0 0 1 1.733-.339 29.6 29.6 0 0 1 14.6 11.929c.089.142.2.271.375.513.359-1.168.686-2.233 1.012-3.3.064-.211.106-.43.188-.633a1.28 1.28 0 0 1 1.511-.764 1.2 1.2 0 0 1 .868 1.435c-.262 1.045-.6 2.072-.9 3.106-.371 1.245-.737 2.492-1.122 3.733a1.22 1.22 0 0 1-1.661.952q-3.394-.981-6.772-2.021a1.249 1.249 0 1 1 .767-2.375c.638.172 1.269.369 1.9.557zM7.418 48.099c-.408 1.343-.779 2.537-1.134 3.736a1.264 1.264 0 1 1-2.406-.733c.307-1.08.655-2.149.98-3.224.332-1.1.645-2.2.99-3.291a1.27 1.27 0 0 1 1.771-.975q3.328.976 6.643 2a1.233 1.233 0 0 1 .9 1.534 1.25 1.25 0 0 1-1.672.843c-1.1-.317-2.195-.652-3.292-.977-.14-.041-.285-.065-.524-.118a25.4 25.4 0 0 0 3.754 4.884 27.1 27.1 0 0 0 9.7 6.394c.1.04.206.078.307.121a1.255 1.255 0 1 1-.9 2.33c-1.355-.579-2.725-1.147-4.015-1.854A29.07 29.07 0 0 1 7.833 48.723c-.103-.162-.212-.323-.415-.624m25.61 7.696h3.643a1.27 1.27 0 0 1 1.438 1.421q.022 3.676 0 7.352a1.26 1.26 0 0 1-1.43 1.428q-3.643.012-7.286 0c-1.063 0-1.507-.436-1.511-1.48q-.013-3.61.009-7.22c.007-1.081.458-1.5 1.558-1.5l3.579-.001m2.527 7.65v-5.122h-5.11v5.122Zm30.443-30.412v3.637a1.273 1.273 0 0 1-1.409 1.446q-3.7.021-7.407 0a1.265 1.265 0 0 1-1.387-1.405q-.01-3.67 0-7.341a1.29 1.29 0 0 1 1.447-1.481q3.638-.02 7.275 0c1.036 0 1.471.462 1.477 1.511.007 1.212 0 2.425 0 3.637Zm-7.682 2.53h5.12v-5.117h-5.12ZM32.995.003c1.237 0 2.473-.008 3.709 0a1.254 1.254 0 0 1 1.41 1.381q.027 3.709 0 7.418a1.264 1.264 0 0 1-1.4 1.4q-3.742.013-7.484 0a1.223 1.223 0 0 1-1.333-1.315q-.027-3.775 0-7.551a1.22 1.22 0 0 1 1.39-1.325c1.235-.016 2.471-.007 3.708-.008m2.576 2.555h-5.126V7.65h5.126ZM10.202 32.996c0 1.236.008 2.473 0 3.709a1.267 1.267 0 0 1-1.386 1.41q-3.676.025-7.352 0C.457 38.109.01 37.642.007 36.647q-.01-3.676 0-7.352a1.23 1.23 0 0 1 1.318-1.4q3.775-.041 7.551 0a1.245 1.245 0 0 1 1.327 1.4c.004 1.228-.002 2.464-.001 3.701m-7.67 2.567h5.115V30.45H2.532Z"/></svg>