<svg xmlns="http://www.w3.org/2000/svg" width="72" height="72"><path fill="none" d="M0 0h72v72H0z"/><path d="M.029 39.48c.095-.637.169-1.279.287-1.912A18.71 18.71 0 0 1 16.67 22.295a17.04 17.04 0 0 1 10.281 2.127 29.8 29.8 0 0 1 7.248 5.788c.619.65 1.2 1.34 1.822 2.045.084-.1.176-.2.265-.3a33.1 33.1 0 0 1 7.589-6.828 18.24 18.24 0 0 1 7.615-2.819 17.2 17.2 0 0 1 8.667 1.185 18.37 18.37 0 0 1 11.354 13.1c.21.832.281 1.7.419 2.549.015.092.046.181.069.272v2.807a2.4 2.4 0 0 0-.068.312 17.2 17.2 0 0 1-1.53 5.877 18.41 18.41 0 0 1-13.764 10.8c-.631.125-1.274.193-1.911.288h-2.591c-.21-.032-.419-.069-.63-.1a18.4 18.4 0 0 1-7.156-2.542 32.2 32.2 0 0 1-8.087-7.118c-.08-.1-.165-.186-.258-.291-.11.128-.188.218-.265.31a35.6 35.6 0 0 1-5.361 5.251 20.6 20.6 0 0 1-8.473 4.15c-.665.139-1.341.225-2.013.336h-2.59c-.305-.046-.61-.1-.916-.136a19.9 19.9 0 0 1-10.991-5.133C3.914 52.833-.398 48.403.029 39.48m34.673-5.66c-.2-.249-.434-.539-.673-.821a29.7 29.7 0 0 0-7.438-6.506 15.2 15.2 0 0 0-9.41-2.262 16.673 16.673 0 0 0-6.434 31.26 15.3 15.3 0 0 0 11.506 1.54 18.8 18.8 0 0 0 7.181-3.813 39.6 39.6 0 0 0 9-10.711 41 41 0 0 1 4.227-5.938 23.8 23.8 0 0 1 5.685-4.98 9.68 9.68 0 0 1 6.491-1.455 10.77 10.77 0 0 1 9.281 10 10.5 10.5 0 0 1-5.461 10.1 9.76 9.76 0 0 1-6.288 1.331 10.4 10.4 0 0 1-4.857-2.025 27 27 0 0 1-5.461-5.134c-.461-.58-.919-1.161-1.335-1.686-1.116 1.653-2.235 3.307-3.343 4.97a.36.36 0 0 0 .048.328c.408.5.825 1 1.257 1.48a29.2 29.2 0 0 0 6.612 5.611 15.52 15.52 0 0 0 11.065 2.145 16.68 16.68 0 0 0 13.457-19.031 16.18 16.18 0 0 0-9.031-12.287 15.3 15.3 0 0 0-10.4-1.434 17.8 17.8 0 0 0-7.123 3.443 38.9 38.9 0 0 0-9.661 11.213 41.3 41.3 0 0 1-3.854 5.5 25.3 25.3 0 0 1-5.687 5.2 9.87 9.87 0 0 1-7.068 1.657 10.805 10.805 0 0 1-9.02-12.1 10.5 10.5 0 0 1 6.051-8.3 9.8 9.8 0 0 1 5.582-1 11.14 11.14 0 0 1 5.111 2.153 29 29 0 0 1 6.384 6.484c.075.1.154.2.207.266Zm-24.856 7.5a8.61 8.61 0 0 0 5.132 7.517 7.7 7.7 0 0 0 4.65.727 9.6 9.6 0 0 0 4.137-1.9 28.8 28.8 0 0 0 6.282-6.625c.137-.19.058-.3-.05-.436-.866-1.086-1.692-2.208-2.607-3.252a19.2 19.2 0 0 0-5.227-4.344 7.44 7.44 0 0 0-4.994-.866c-4.243.762-7.279 4.379-7.32 9.185Zm31.994-.488a27.4 27.4 0 0 0 7.03 7.237 7.6 7.6 0 0 0 6.329 1.391 8.824 8.824 0 0 0 3.269-15.787 7.96 7.96 0 0 0-6.214-1.538 8.85 8.85 0 0 0-3.495 1.532 28 28 0 0 0-6.916 7.172Z"/><path d="M36.301 9.18a1.25 1.25 0 0 1 .732 1.136c.02.39.347.616.662.8a5.7 5.7 0 0 0 2.5.723c.907.063 1.821.042 2.732.052.781.009 1.147.368 1.148 1.142 0 2.423-.03 4.846.013 7.268a5.5 5.5 0 0 1-1.05 3.328 17 17 0 0 1-3.6 3.646c-.906.707-1.861 1.352-2.8 2.017a.984.984 0 0 1-1.178.037 26.3 26.3 0 0 1-5.763-4.786 6.6 6.6 0 0 1-1.691-3.2 3.6 3.6 0 0 1-.043-.572v-7.736c0-.773.368-1.126 1.146-1.145 1.077-.027 2.162-.006 3.227-.136a7.8 7.8 0 0 0 1.968-.629 1.11 1.11 0 0 0 .735-1.057 1.08 1.08 0 0 1 .693-.887Zm-6.349 4.673c-.008.142-.019.236-.019.33 0 2.087.015 4.174-.007 6.26a3.2 3.2 0 0 0 .523 1.8 8 8 0 0 0 .494.707 22 22 0 0 0 4.923 4.276.4.4 0 0 0 .363-.046c.922-.687 1.853-1.365 2.742-2.094a12.3 12.3 0 0 0 2.495-2.674 3.15 3.15 0 0 0 .638-1.764q-.007-3.184 0-6.369v-.424a13.1 13.1 0 0 0-12.148 0ZM14.079 38.689a18 18 0 0 1 1.86.012 1.62 1.62 0 0 1 1.495 1.5 1.9 1.9 0 0 1-1.079 2.1 4.8 4.8 0 0 1-2.276.176Zm.866 3.125a1.27 1.27 0 0 0 1.408-.561 1.56 1.56 0 0 0-.1-1.569 1.21 1.21 0 0 0-1.307-.29Zm3.734-.44c.139.507.555.616 1.493.413l.131.585a2.5 2.5 0 0 1-1.607.085 1.42 1.42 0 0 1-.752-1.991 1.37 1.37 0 0 1 1.862-.692 1.44 1.44 0 0 1 .609 1.6Zm.939-.617c0-.3-.115-.5-.421-.513-.333-.018-.483.183-.533.513Zm1.011-1.028c.929-.08.931-.081 1.168.733.1.343.192.688.309 1.106.141-.519.289-.97.383-1.432.069-.344.221-.495.576-.436a3 3 0 0 0 .477 0c-.2.541-.382 1.044-.567 1.546-.112.3-.249.6-.335.908-.074.266-.21.327-.479.352-.431.039-.6-.13-.719-.524-.232-.749-.53-1.48-.813-2.253m31.227.318a1.828 1.828 0 0 1-2.3 1.948 1.6 1.6 0 0 1-1.225-1.052 2.3 2.3 0 0 1-.035-1.618 1.828 1.828 0 0 1 3.558.721Zm-.882 0a6 6 0 0 0-.238-.805.73.73 0 0 0-.713-.455.77.77 0 0 0-.72.449 1.79 1.79 0 0 0-.024 1.621.78.78 0 0 0 .772.484.76.76 0 0 0 .714-.511 7 7 0 0 0 .209-.784Zm1.445-.842h.689l.1.276c.713-.468 1.259-.461 1.693.009a1.76 1.76 0 0 1 .063 2.073 1.217 1.217 0 0 1-1.683.236v1.276h-.864Zm.841 1.389h.024v.215a.51.51 0 0 0 .432.535.47.47 0 0 0 .589-.39 1.8 1.8 0 0 0-.046-.828.6.6 0 0 0-.472-.276.68.68 0 0 0-.431.3 1.1 1.1 0 0 0-.096.444m4.214-.733a3.4 3.4 0 0 0-.6-.095c-.107 0-.212.1-.318.162a1 1 0 0 0 .212.252 5 5 0 0 0 .429.178.83.83 0 0 1 .542.848.85.85 0 0 1-.734.775 4.6 4.6 0 0 1-.995 0c-.281-.023-.449-.16-.3-.479a1.4 1.4 0 0 0 .066-.237 5 5 0 0 0 .74.147c.116.007.24-.106.36-.165a1.3 1.3 0 0 0-.249-.3c-.148-.1-.334-.13-.488-.22a.8.8 0 0 1 .022-1.441 1.54 1.54 0 0 1 1.287-.051.3.3 0 0 1 .12.239 1.8 1.8 0 0 1-.094.387"/><path d="M34.213 18.034a7 7 0 0 0-.967-.072.48.48 0 0 0-.362.268c-.025.106.113.3.23.38a4.6 4.6 0 0 0 .652.293 1.12 1.12 0 0 1 .782 1.162 1.16 1.16 0 0 1-1 1.03 2.5 2.5 0 0 1-1.628-.185l.16-.658c.348.057.68.128 1.016.161a.443.443 0 0 0 .539-.311c.069-.284-.146-.4-.361-.5a8 8 0 0 1-.778-.361.98.98 0 0 1-.522-.987 1.05 1.05 0 0 1 .679-.9 2.3 2.3 0 0 1 1.41-.079c.266.054.379.171.25.444a2 2 0 0 0-.1.315m3.358 1.949h-1.8c.412.728 1.009.462 1.562.432.025.083.046.173.078.259.085.233.019.376-.238.391a6 6 0 0 1-1.137.036 1.15 1.15 0 0 1-1.014-.936 1.52 1.52 0 0 1 .485-1.625 1.315 1.315 0 0 1 1.451-.161 1.39 1.39 0 0 1 .613 1.604m-.777-.615c-.018-.322-.154-.516-.469-.53-.275-.012-.451.2-.459.53Zm3.317 1.047.094.575a1.7 1.7 0 0 1-1.942-.325 1.59 1.59 0 0 1-.033-1.815 1.69 1.69 0 0 1 1.974-.467l-.109.568c-.983.011-1.252.192-1.221.8.03.565.341.739 1.237.664"/></svg>