<svg xmlns="http://www.w3.org/2000/svg" width="50" height="50"><path fill="none" d="M0 0h50v50H0z"/><path d="M36.928 46.968h-9.406a1.7 1.7 0 0 1-.566 0H10.949a3.3 3.3 0 0 1-1.239-.095 10.3 10.3 0 0 1-8.277-5.545l-.013.009a6 6 0 0 1-.984-2.373 1.4 1.4 0 0 1-.056-.216 5.3 5.3 0 0 1-.293-1.966l-.022-.225a3.2 3.2 0 0 1 .054-1.515 5.6 5.6 0 0 1 .349-1.929.74.74 0 0 1 .159-.506 1.44 1.44 0 0 1 .315-.792l.073.063-.073-.126a.5.5 0 0 1 .159-.316l.007.011a1.04 1.04 0 0 1 .342-.643.75.75 0 0 1 .286-.506 3 3 0 0 1 .222-.316c.1-.19.127-.38.318-.506.1-.127.222-.221.318-.348l.038.034-.007-.034.108-.134-.013-.024.349-.348c.063-.285.318-.348.508-.506l.038.021a1.05 1.05 0 0 1 .489-.458l-.019-.037.19-.158.508-.348h.018l.459-.286.064.021-.024-.02c.222-.158.508-.538.7-.063.159.443 1.08.854.286 1.55l-.03-.064v.064l-.476.316v-.007l-.48.323-.039-.042.007.042-.313.283v.065a.93.93 0 0 1-.508.475q-.008-.054-.02-.106l-.012.074a.5.5 0 0 1-.34.314l.023.034-.3.36.016.02-.35.475a1 1 0 0 0 0-.134q-.012.065-.029.134l-.127.19c-.032.126-.032.253-.191.285l-.286.569a1.7 1.7 0 0 1-.349.822c-.062.123-.093.245-.153.368a.8.8 0 0 1-.2.581v-.006.069a.77.77 0 0 1-.159.633l-.031 2.911-.049-.048.017.048.372 1.514-.031.037c.161.882.889 1.483 1.206 2.3l-.012.025a10 10 0 0 0 5.951 3.771.5.5 0 0 0 .093.059 1 1 0 0 1-.061-.059c2.382.095 4.764.087 7.146.079 1.588-.005 3.176-.01 4.764.015a8 8 0 0 1 .889.063 1 1 0 0 0 .118.05 1 1 0 0 1-.118-.082q3.24-.095 6.479 0 .088.033.178.055a46 46 0 0 1 3.982.008.22.22 0 0 0 .187.107.5.5 0 0 1-.187-.17 35 35 0 0 1 3.652 0q.008.016.018.031a14.8 14.8 0 0 0 5.1-.98l2.636-1.645.008.008c0-.013-.006-.026-.008-.04l1.525-1.611.953-1.518.071.042-.039-.074.648-1.291-.013-.038a14.2 14.2 0 0 0 .731-3.448h.032v-.19l-.061-1.52-.476-2.183a1.3 1.3 0 0 1-.065-.2c-.357-.764-.738-1.527-1.093-2.291l-.017-.006-.985-1.328q0-.022.006-.043l-.006.011-1.81-1.645-.014-.026-.018.026-1.338-.816-.011-.022-.941-.484-.011-.033-.021.033-.476-.19-.008-.014.008.046a3.8 3.8 0 0 1-1.016-.316L39 23.214a3.9 3.9 0 0 1-1.309-.16l-.058-.032h-.926q-.06-.011-.118-.026l.054.026h-.476q-.079.022-.156.04l.187-.008a1.3 1.3 0 0 1-.741.138 3 3 0 0 0-.434.02c-.159.19-.413.126-.667.158l-1.175.317a1.67 1.67 0 0 1-.812.315l.019.033a.28.28 0 0 1-.318.158l-.075-.009-.624.325-.008-.01.008.041a.57.57 0 0 1-.508.316c-.123.276-.425.344-.645.491l.01.015-.349.317-.039-.005.007.005c-.188.249-.53.345-.661.65l.026.014c-.127.316-.476.411-.667.664-.6.38-.794-.221-1.048-.506-.127-.19-.73-.474-.127-.822a.76.76 0 0 1 .478-.654v-.011a1.18 1.18 0 0 1 .826-.664l.084.13q-.011-.064-.02-.13l.289-.287v-.029a.54.54 0 0 1 .508-.348 1.02 1.02 0 0 1 .667-.475l.051.026-.051-.057c.222-.1.381-.316.667-.348l.034.028a.9.9 0 0 1 .6-.34v-.036a.48.48 0 0 1 .35-.126 2.27 2.27 0 0 1 1.175-.475l.508-.158h.476c.318-.253.667-.158.985-.221a5.84 5.84 0 0 1 3.525-.158v.006l.035-.006a.8.8 0 0 1 .635.221l.089.04-.089-.072a1.66 1.66 0 0 1 1.175.126h-.026l.058.032a.92.92 0 0 1 .635.158 1.6 1.6 0 0 1 .851.311l.038.005c.286.316.794.127 1.048.538a9.06 9.06 0 0 1 3.516 2.614l.01-.02a.5.5 0 0 1 .318.348l-.06.05.06-.018a10.8 10.8 0 0 1 1.969 2.973 4 4 0 0 1 .508 1.329 11.4 11.4 0 0 1 .54 6.01 1.46 1.46 0 0 1-.135.773.07.07 0 0 1-.024.049 4.2 4.2 0 0 1-.689 2.075L49 38.9a4.5 4.5 0 0 1-.826 1.708l-.09-.035.058.067a4.9 4.9 0 0 1-.962 1.436 7.7 7.7 0 0 1-1.706 1.79v-.007.039a7 7 0 0 1-2.318 1.455 8.9 8.9 0 0 1-3.656 1.394.2.2 0 0 1-.014-.037 1.44 1.44 0 0 1-.97.132l-.014-.011.014.043-.445.032-.143.011a2.4 2.4 0 0 1-.619.084 2.3 2.3 0 0 1-.381-.033m-2.308-.125h.053l-.048-.037zm-20.209-.065a.2.2 0 0 1-.014.063h.014v-.127h-.037a1 1 0 0 1 .037.065Zm13.275-.029.032-.034h.057l-.057-.035h-.078a1 1 0 0 1 .046.07Zm12.109-.285h.214a1.4 1.4 0 0 1-.2-.015Zm-29.4-1.173a.3.3 0 0 0 .035-.043l-.02-.019a1 1 0 0 1-.016.062ZM.1 35.158l.015-.115Q.11 35.1.1 35.158m8.971.707a1.6 1.6 0 0 1-.317-.886 2.7 2.7 0 0 1-.318-1.2l-.159-.822a1 1 0 0 1-.159-.664l.036-.059-.036.028a5 5 0 0 0-.023-.6h-.004a7.3 7.3 0 0 1 0-3.321l.029.019v-.051l.073-.047-.073.016-.064.032c.064-.348-.063-.7.191-1.012a1.27 1.27 0 0 1 .134-.78 1 1 0 0 1 .025-.074.9.9 0 0 1 .049-.429 1.4 1.4 0 0 1 .078-.267 1.26 1.26 0 0 1 .222-.569.4.4 0 0 1 .013.066c0-.03.011-.063.019-.1a1.12 1.12 0 0 1 .286-.854h.008a2.9 2.9 0 0 1 .5-1.267v.021l.028-.052a1.2 1.2 0 0 1 .318-.664 3.9 3.9 0 0 1 .826-1.455q0 .02.006.038.011-.033.026-.07a7.6 7.6 0 0 1 1.27-1.676 13.6 13.6 0 0 1 4.32-3.606l.062-.022a5.8 5.8 0 0 1 1.621-.8l.794-.348.041.01a5.2 5.2 0 0 1 1.429-.48h-.009a.96.96 0 0 1 .7-.158 5.3 5.3 0 0 1 1.969-.348l.132-.045a3.6 3.6 0 0 1 1.424-.081l.01.022.022-.022h1.143a3.2 3.2 0 0 1 1.334.126h.127a1.65 1.65 0 0 1 .937.17 1.7 1.7 0 0 0 .873.178l-.124.115c.052-.027.1-.055.155-.084.25 0 .469 0 .537.3l.067-.016.413.032a.56.56 0 0 1 .667.316l.318.032.508.158.667.316a.39.39 0 0 1 .287.157l-.025.03.057-.03a1.06 1.06 0 0 1 .667.348l-.017.019.049-.019c.413.032.667.379.985.664a2.07 2.07 0 0 1 1.175.822l-.008.022c.1.087.26.175.23.263-.063.538-1.239 1.012-1.747.7l.021-.007-1.323-.816-.812-.5-.046.023a1.5 1.5 0 0 1-.826-.348l.008-.006-.04.006a.5.5 0 0 1-.317-.158c-.18 0-.357.021-.477-.159l-.349-.032-.54-.256a.3.3 0 0 1-.1-.029l-.032-.032a1 1 0 0 0-.2-.007.53.53 0 0 1-.471-.151c-.072-.006-.146 0-.219 0a.73.73 0 0 1-.573-.15h-.034a3 3 0 0 0-.452-.014 1.4 1.4 0 0 1-.882-.176l-1.629-.031q-.012.014-.023.031l-.9.029h-.053a1.35 1.35 0 0 1-.715.121 3 3 0 0 0-.3.005l.019-.018-.05.018-1.652.348a.57.57 0 0 1-.508.127 1 1 0 0 1-.113-.041 1 1 0 0 0 .081.073l-1.764.678-.014.018-2 1.139a27 27 0 0 0-2.763 2.309L12.6 21.378l-.048.019.017.013-.826 1.328L11.108 24l-.069.038a1.25 1.25 0 0 1-.281.627l-.019.028.051-.028a2.6 2.6 0 0 1-.349.98l-.03.014.03.018a.24.24 0 0 1-.032.158 2.8 2.8 0 0 1-.318 1.139l-.062.039.062-.008a1.48 1.48 0 0 1-.159.822v.158c0 .316 0 .664-.032.98l-.012.015.043-.015v3.163c.281.559.133 1.209.307 1.8h.01c.413 1.107.254 1.518-.794 2.024a.4.4 0 0 1-.187.053.2.2 0 0 1-.192-.139Zm18.6-22.245c0-.014-.045-.041-.074-.031a.4.4 0 0 1 .079.032Zm14.747 6.461a.994.994 0 0 1 .381-1.36c.381-.19.762-.348 1.112-.538a15.5 15.5 0 0 1 2.541-1.455c.222-.126.413-.253.635-.379a.888.888 0 0 1 1.429.221c.349.6.1 1.012-.413 1.328a3 3 0 0 1-.318.127l-2.318 1.328c-.54.348-1.112.7-1.683 1.012a1.55 1.55 0 0 1-.663.194.78.78 0 0 1-.699-.478Zm-35.729.475a1.2 1.2 0 0 1-.731-.253l-3.97-2.278c-.572-.348-1.016-.791-.6-1.455.381-.7.953-.506 1.493-.19 1.366.791 2.731 1.55 4.1 2.341a.973.973 0 0 1 .572 1.17.8.8 0 0 1-.795.667Zm28.397-7.813a.848.848 0 0 1-.386-1.266c.19-.348.413-.7.6-1.044l.052.041-.02-.041 1.143-1.993c.286-.506.54-1.012.858-1.487a.83.83 0 0 1 1.207-.316.886.886 0 0 1 .381 1.2c0 .032-.032.063-.063.095-.286.475-.54.949-.826 1.392a15.4 15.4 0 0 1-1.132 1.995h-.033c-.19.347-.348.726-.57 1.073a.93.93 0 0 1-.757.483.87.87 0 0 1-.454-.132m-21.66-.543c-.635-1.139-1.27-2.246-1.905-3.385q.008-.035.018-.066a10 10 0 0 1-.558-.915.886.886 0 0 1 .381-1.2.85.85 0 0 1 1.207.316c.445.727.794 1.455 1.207 2.151.445.728.89 1.455 1.3 2.183a.94.94 0 0 1-.286 1.423.96.96 0 0 1-.467.132 1.1 1.1 0 0 1-.897-.639m10.8-2.594v-.06l-.032.033c-.381-.6-.127-1.265-.159-1.93 0-1.17 0-2.341-.032-3.543A1.34 1.34 0 0 1 24.7 3h.476a1.39 1.39 0 0 1 .7 1.36c-.032 1.423 0 2.847 0 4.27a1.24 1.24 0 0 1-.13.819v.066c-.267.349-.507.523-.763.523a1.16 1.16 0 0 1-.759-.427Z"/></svg>