<svg xmlns="http://www.w3.org/2000/svg" width="72" height="72"><path fill="#101010" d="M67.199 58.533c-.456-.3-.92-.587-1.38-.879l-.769-.481-.248-.174-.769-.49-.915-.6c-.976-.626-1.95-1.257-2.93-1.877a1.136 1.136 0 0 0-1.4 0 1.12 1.12 0 0 0-.291 1.368 1.8 1.8 0 0 0 .762.667l.155.1 1.6 1 .25.159.668.434a.46.46 0 0 0 .261.157c.134.179.4.214.529.462l-.527.045h-1.178l-1.675-.006-.09.006h-.924l-1.674-.001c-.111-.005-.223-.016-.334-.016h-9.707c-.1 0-.223.056-.319-.084q.177-.114.352-.22a17.56 17.56 0 0 0 8.369-17.955c-1.208-6.873-5.2-11.524-11.733-13.976-.315-.118-.375-.225-.168-.479a1 1 0 0 0 .087-.143 8.2 8.2 0 0 1 15.109 3.23 4.5 4.5 0 0 1 .039 1.225c-.665-.854-1.263-1.629-1.869-2.4a1.113 1.113 0 1 0-1.766 1.346q1.689 2.2 3.4 4.375a1.48 1.48 0 0 0 2.352-.09c.443-.646.876-1.3 1.313-1.951q1.05-1.568 2.1-3.141a1.07 1.07 0 0 0 0-1.262 1.05 1.05 0 0 0-1.1-.464 1.23 1.23 0 0 0-.847.629c-.427.645-.861 1.287-1.328 1.983a2 2 0 0 1-.068-.235 10.25 10.25 0 0 0-3.4-6.691c-.208-.191-.14-.293 0-.473a7.3 7.3 0 0 0 1.518-5.876 7.39 7.39 0 0 0-7.859-6.094 10.8 10.8 0 0 0-2.175.483c.222-.607.432-1.137.61-1.677a1.09 1.09 0 0 0-.673-1.4 1.076 1.076 0 0 0-1.391.613q-1.052 2.765-2.055 5.548a1.053 1.053 0 0 0 .787 1.393q2.352.438 4.716.805a1.08 1.08 0 0 0 1.229-.942 1.116 1.116 0 0 0-.928-1.25c-.22-.042-.443-.063-.662-.111a18 18 0 0 1-1.741-.337c.03-.051.035-.067.045-.074a5.151 5.151 0 0 1 6.7 7.708c-.179.195-.3.166-.494.069a9.6 9.6 0 0 0-4.076-1.045 10.26 10.26 0 0 0-9.828 5.742.4.4 0 0 1-.513.246 17.72 17.72 0 0 0-18.195 8.7c-.1.166-.163.328-.417.351a8.2 8.2 0 1 1 .2-16.3 7.3 7.3 0 0 1 2.709.842c-.961.145-1.815.269-2.667.4a1.127 1.127 0 0 0-1.024 1.211 1.085 1.085 0 0 0 1.279.98q2.726-.364 5.443-.789a1.084 1.084 0 0 0 .826-1.593c-.891-1.838-1.8-3.666-2.708-5.5a1.04 1.04 0 0 0-.8-.614 1.1 1.1 0 0 0-1.208 1.552c.289.618.6 1.228.9 1.842-.126.067-.212-.012-.3-.041a10.7 10.7 0 0 0-5.382-.4 10.417 10.417 0 0 0 1.53 20.647c.36.02.367.106.263.407a17.5 17.5 0 0 0-.9 7.362 22 22 0 0 0 .457 2.77l-2.043-1.547a1.116 1.116 0 1 0-1.37 1.748q2.536 1.937 5.082 3.863a1.107 1.107 0 0 0 1.84-.621q.839-2.9 1.66-5.81a1.119 1.119 0 1 0-2.144-.593c-.213.739-.415 1.481-.635 2.218-.035.118 0 .292-.19.351a15.8 15.8 0 0 1-.387-5.875 15.489 15.489 0 1 1 18.456 17.092 26.4 26.4 0 0 1-5.337.326q-11.533-.026-23.068-.005c-.471 0-.944.074-1.413.045-1.581-.1-3.163-.032-4.744-.037a1.075 1.075 0 0 0-1.065 1.122 1.1 1.1 0 0 0 1.079 1.075c.322.013.644 0 .966 0h55.574c-.156.109-.2.144-.247.172-1.129.675-2.261 1.345-3.386 2.027a1.11 1.11 0 1 0 1.112 1.918c.33-.184.65-.386.974-.58l6.055-3.619a1.119 1.119 0 0 0 .078-1.996"/><path fill="#101010" d="M43.486 35.42a5.57 5.57 0 0 0-10.3-1.368 4.95 4.95 0 0 0-.644 2.035c0 .109-.007.218-.011.327a2.1 2.1 0 0 0 .006.68 4 4 0 0 0 .009.376 5.574 5.574 0 1 0 10.942-2.05Zm-4.723 4.784a3.55 3.55 0 0 1-4.2-3c-.009-.079 0-.159-.005-.239a1.3 1.3 0 0 1 0-.432q-.002-.103.007-.208a3.1 3.1 0 0 1 .409-1.293 3.54 3.54 0 1 1 3.8 5.176Z"/><path fill="#101010" d="M28.508 49.375a1.11 1.11 0 0 0 .678 1.148 1.1 1.1 0 0 0 1.509-1.129 6.45 6.45 0 0 1 4.857-6.12 12.1 12.1 0 0 1 4.051-.153 6.14 6.14 0 0 1 4.449 2.481 6.32 6.32 0 0 1 1.335 3.856 1.1 1.1 0 0 0 2.136.393 2.7 2.7 0 0 0 .061-.676 8.65 8.65 0 0 0-5.235-7.6.52.52 0 0 0-.606.041 6.07 6.07 0 0 1-7.346.006.53.53 0 0 0-.6-.074 9 9 0 0 0-2.043 1.229 8.55 8.55 0 0 0-3.246 6.598"/><path fill="none" d="M0 0h72v72H0z"/></svg>