<svg xmlns="http://www.w3.org/2000/svg" width="50" height="50"><defs><clipPath id="a"><path fill="#fff" d="M-.769.07h50v38h-50z"/></clipPath></defs><path fill="none" d="M0 0h50v50H0z"/><g clip-path="url(#a)" transform="translate(.769 5.93)"><path fill="#282928" d="M22.707 35.896c6.29-1.111 11.485-2.031 11.544-2.043l.108-.023-5.938-7.064c-3.266-3.885-5.938-7.079-5.938-7.1 0-.035 6.132-16.922 6.166-16.982.012-.02 4.184 7.185 10.115 17.465l10.173 17.635.077.135H11.27ZM.059 33.74c0-.01 2.8-4.868 6.218-10.795l6.218-10.777 7.246-6.082c3.985-3.344 7.256-6.085 7.269-6.09a1.3 1.3 0 0 1-.117.293l-7.867 16.879-7.728 16.576-5.619.007c-3.091.004-5.62-.001-5.62-.011"/></g></svg>