<svg xmlns="http://www.w3.org/2000/svg" width="78.859" height="73.728"><path d="M47.577 28.759a9.407 9.407 0 0 0-16.294 0L13.467 59.617a9.407 9.407 0 0 0 8.146 14.111h35.632a9.407 9.407 0 0 0 8.148-14.111ZM63.19 67.752a6.8 6.8 0 0 1-5.944 3.432H21.613a6.864 6.864 0 0 1-5.944-10.3l17.817-30.853a6.864 6.864 0 0 1 11.888 0L63.19 60.888a6.8 6.8 0 0 1 0 6.864m-23.76-7.925a4 4 0 1 0 4 4 4 4 0 0 0-4-4m0 5.457a1.457 1.457 0 1 1 1.457-1.457 1.46 1.46 0 0 1-1.457 1.457m0-7.784a3.39 3.39 0 0 0 3.4-3.279l.538-14.909a3.4 3.4 0 0 0-3.4-3.524h-1.076a3.4 3.4 0 0 0-3.4 3.524l.538 14.909a3.39 3.39 0 0 0 3.4 3.279m-1.156-18.906a.79.79 0 0 1 .617-.262h1.077a.86.86 0 0 1 .857.889l-.538 14.909a.855.855 0 0 1-.857.827.855.855 0 0 1-.857-.827l-.538-14.909a.79.79 0 0 1 .24-.626Zm40.419 3.021a1.76 1.76 0 0 0-1.611-1.029h-2.069V22.335a1.27 1.27 0 0 0-1.272-1.272H66.58a1.27 1.27 0 0 0-1.272 1.272v18.252h-2.065a1.774 1.774 0 0 0-1.353 2.923l6.919 8.15a1.77 1.77 0 0 0 1.352.626 1.77 1.77 0 0 0 1.352-.626l6.92-8.15a1.76 1.76 0 0 0 .258-1.894Zm-8.53 7.707-5.257-6.192h1.674a1.27 1.27 0 0 0 1.272-1.272V23.607h4.622v18.251a1.27 1.27 0 0 0 1.272 1.272h1.674Zm-52.935-4.926a1.76 1.76 0 0 0-1.615-1.03h-2.061V25.115a1.27 1.27 0 0 0-1.272-1.272H5.113a1.27 1.27 0 0 0-1.272 1.272v18.251H1.778a1.774 1.774 0 0 0-1.353 2.923l6.919 8.15a1.77 1.77 0 0 0 1.353.626 1.77 1.77 0 0 0 1.353-.626l6.919-8.149a1.76 1.76 0 0 0 .259-1.894m-8.531 7.706L3.44 45.91h1.673a1.27 1.27 0 0 0 1.272-1.272V26.387h4.628v18.251a1.27 1.27 0 0 0 1.272 1.272h1.674Zm16.488-25.446a1.774 1.774 0 0 0 2.706 0l6.922-8.149a1.774 1.774 0 0 0-1.353-2.923h-2.067V1.273A1.27 1.27 0 0 0 30.121.001h-7.166a1.27 1.27 0 0 0-1.272 1.272v14.311h-2.064a1.774 1.774 0 0 0-1.353 2.923Zm-2.23-8.528a1.27 1.27 0 0 0 1.272-1.272V2.544h4.622v14.312a1.27 1.27 0 0 0 1.272 1.272h1.674l-5.257 6.192-5.257-6.192Zm31.608 11a1.774 1.774 0 0 0 2.706 0l6.919-8.155a1.774 1.774 0 0 0-1.353-2.923h-2.064V3.74a1.27 1.27 0 0 0-1.272-1.267h-7.166a1.27 1.27 0 0 0-1.272 1.272v14.308h-2.065a1.774 1.774 0 0 0-1.352 2.92Zm-2.23-8.528a1.27 1.27 0 0 0 1.272-1.272V5.012h4.622v14.313a1.27 1.27 0 0 0 1.272 1.272h1.674l-5.26 6.191-5.257-6.192Z"/></svg>