<svg xmlns="http://www.w3.org/2000/svg" width="76.312" height="76.312"><path d="M38.156 0a7.631 7.631 0 1 0 7.631 7.631A7.63 7.63 0 0 0 38.156 0m0 12.719a5.087 5.087 0 1 1 5.087-5.087 5.087 5.087 0 0 1-5.087 5.087m5.087 3.815h-.3l-.268.134a10.14 10.14 0 0 1-9.038 0l-.268-.134h-.3a6.367 6.367 0 0 0-6.36 6.359v7.631a3.816 3.816 0 0 0 3.816 3.816h15.262a3.816 3.816 0 0 0 3.816-3.816v-7.631a6.367 6.367 0 0 0-6.36-6.359m3.816 13.99a1.27 1.27 0 0 1-1.272 1.272H30.525a1.27 1.27 0 0 1-1.272-1.272v-7.631a3.816 3.816 0 0 1 3.545-3.805 12.73 12.73 0 0 0 10.717 0 3.816 3.816 0 0 1 3.545 3.805Zm17.806 11.447a7.631 7.631 0 1 0 7.631 7.631 7.63 7.63 0 0 0-7.631-7.631m0 12.719a5.087 5.087 0 1 1 5.087-5.087 5.087 5.087 0 0 1-5.087 5.087m5.087 3.816h-.3l-.268.127a10.14 10.14 0 0 1-9.038 0l-.268-.127h-.3a6.367 6.367 0 0 0-6.36 6.359v7.631a3.816 3.816 0 0 0 3.816 3.816h15.262a3.816 3.816 0 0 0 3.816-3.816v-7.631a6.367 6.367 0 0 0-6.36-6.359m3.816 13.99a1.27 1.27 0 0 1-1.272 1.272H57.234a1.27 1.27 0 0 1-1.272-1.272v-7.631a3.816 3.816 0 0 1 3.545-3.805 12.73 12.73 0 0 0 10.717 0 3.816 3.816 0 0 1 3.545 3.805ZM11.447 41.971a7.631 7.631 0 1 0 7.631 7.631 7.63 7.63 0 0 0-7.631-7.631m0 12.719a5.087 5.087 0 1 1 5.087-5.087 5.087 5.087 0 0 1-5.087 5.087m5.087 3.816h-.3l-.268.127a10.14 10.14 0 0 1-9.038 0l-.269-.127h-.3A6.367 6.367 0 0 0 0 64.865v7.631a3.816 3.816 0 0 0 3.816 3.816h15.262a3.816 3.816 0 0 0 3.816-3.816v-7.631a6.367 6.367 0 0 0-6.36-6.359m3.816 13.99a1.27 1.27 0 0 1-1.272 1.272H3.816a1.27 1.27 0 0 1-1.272-1.272v-7.631a3.816 3.816 0 0 1 3.545-3.805 12.73 12.73 0 0 0 10.717 0 3.816 3.816 0 0 1 3.545 3.805Zm30.424-7.904a1.27 1.27 0 0 0-1.669-.672 28.2 28.2 0 0 1-18.141 1.249l1.19-.35a1.272 1.272 0 0 0-.715-2.442l-5.087 1.492c-.019 0-.033.022-.051.028a1.3 1.3 0 0 0-.328.182 1 1 0 0 0-.127.08 1.2 1.2 0 0 0-.312.432 1.3 1.3 0 0 0-.1.525 4 4 0 0 0 .127.509c.008.018 0 .038.014.056l2.544 4.867a1.273 1.273 0 1 0 2.256-1.178l-1.035-1.979a30.6 30.6 0 0 0 20.756-1.129 1.27 1.27 0 0 0 .678-1.67m21.349-31.151a1.27 1.27 0 0 0-1.8 0l-1.8 1.8a30.48 30.48 0 0 0-18.424-25.183 1.272 1.272 0 1 0-1 2.34 27.94 27.94 0 0 1 16.823 22.478l-1.435-1.435a1.273 1.273 0 0 0-1.8 1.8l3.816 3.816a1.27 1.27 0 0 0 1.8 0l3.816-3.816a1.27 1.27 0 0 0 .004-1.8M27.944 11.014a1 1 0 0 0-.033-.22c0-.011-.014-.019-.019-.032s0-.022 0-.032a1.2 1.2 0 0 0-.12-.176 1.3 1.3 0 0 0-.145-.21 1.2 1.2 0 0 0-.248-.169 1 1 0 0 0-.142-.1l-5.088-2.326a1.272 1.272 0 0 0-1.056 2.312l2.634 1.2A30.48 30.48 0 0 0 7.631 38.157a1.272 1.272 0 1 0 2.544 0A27.94 27.94 0 0 1 23.94 14.063l-.92 1.922a1.27 1.27 0 0 0 .594 1.7 1.25 1.25 0 0 0 .551.127 1.27 1.27 0 0 0 1.145-.721l2.544-5.307a.06.06 0 0 1 .01-.039 1.2 1.2 0 0 0 .069-.27 1.3 1.3 0 0 0 .048-.21 1.3 1.3 0 0 0-.037-.251"/></svg>