<svg xmlns="http://www.w3.org/2000/svg" width="60" height="60" fill="none"><path fill="#282928" d="M47.8 10.2C42.51 4.914 35.48 2 28 2S13.49 4.913 8.2 10.2C2.914 15.49 0 22.52 0 30s2.913 14.51 8.2 19.8C13.49 55.087 20.52 58 28 58a28.03 28.03 0 0 0 17.927-6.492l-1.051-1.26A26.4 26.4 0 0 1 28 56.36c-7.04 0-13.66-2.741-18.639-7.72S1.641 37.04 1.641 30s2.741-13.66 7.72-18.639S20.96 3.641 28 3.641s13.66 2.741 18.639 7.72S54.359 22.96 54.359 30a26.4 26.4 0 0 1-6.105 16.869l1.26 1.05A28.03 28.03 0 0 0 56 30c0-7.48-2.913-14.51-8.2-19.8"/><path fill="#282928" d="M35.383 30c0-4.07-3.312-7.383-7.383-7.383S20.617 25.93 20.617 30 23.93 37.383 28 37.383 35.383 34.07 35.383 30m-13.125 0A5.75 5.75 0 0 1 28 24.258 5.75 5.75 0 0 1 33.742 30 5.75 5.75 0 0 1 28 35.742 5.75 5.75 0 0 1 22.258 30m23.797 19.246 1.147-1.173 1.172 1.147-1.146 1.173zm.5-15.816-1.614-.297c-1.371 7.466-7.445 13.06-14.831 13.964l1.564-1.564-1.16-1.16-3.674 3.674 3.673 3.673 1.16-1.16-1.787-1.788c8.281-.824 15.14-7.022 16.669-15.343M9.445 26.57l1.614.297c1.372-7.466 7.445-13.06 14.832-13.964l-1.564 1.563 1.16 1.16 3.674-3.673-3.674-3.674-1.16 1.16 1.788 1.788c-8.282.825-15.141 7.022-16.67 15.343m21.688-13.511c7.466 1.371 13.06 7.445 13.964 14.832l-1.564-1.564-1.16 1.16 3.674 3.674 3.673-3.674-1.16-1.16-1.788 1.788c-.824-8.282-7.022-15.141-15.343-16.67zm4.25-6.137h1.64v1.64h-1.64zm3.281 1.641h1.64v1.64h-1.64zM7.437 33.674l1.788-1.788c.825 8.281 7.022 15.14 15.344 16.669l.296-1.614C17.399 45.57 11.805 39.496 10.9 32.11l1.564 1.563 1.16-1.16L9.95 28.84l-3.674 3.673z"/></svg>