<svg xmlns="http://www.w3.org/2000/svg" width="60" height="60" fill="none"><path fill="#282928" d="M55.313 22.565V20.69a2.89 2.89 0 0 0-.882-2.08 2.92 2.92 0 0 0-2.118-.798A70 70 0 0 0 42 18.862l-1.237.244a10.838 10.838 0 0 0-21.507-.478v.487a69 69 0 0 0-11.569-1.303 2.915 2.915 0 0 0-3 2.906v1.875a4.69 4.69 0 0 0-3.75 4.594v26.25a4.69 4.69 0 0 0 4.688 4.688h48.75a4.69 4.69 0 0 0 4.688-4.688v-26.25a4.69 4.69 0 0 0-3.75-4.622M21.13 18.89a9.01 9.01 0 0 1 7.847-7.584A9 9 0 0 1 30 11.25a8.86 8.86 0 0 1 5.962 2.287 8.962 8.962 0 0 1-.525 13.8 6.38 6.38 0 0 0-2.578 5.082 1.34 1.34 0 0 1-1.33 1.33h-.591v-6.562a.94.94 0 0 0-.216-.6L27.309 22.5h5.11l-1.678 1.678a.938.938 0 0 0 1.322 1.322l3.28-3.282a.937.937 0 0 0-.656-1.593h-9.374a.938.938 0 0 0-.722 1.537l4.471 5.363v6.225h-.59a1.34 1.34 0 0 1-1.34-1.35 6.4 6.4 0 0 0-2.588-5.072 8.92 8.92 0 0 1-3.413-8.438ZM6.562 20.718a1.04 1.04 0 0 1 1.079-1.03c3.887.107 7.758.553 11.568 1.33a10.7 10.7 0 0 0 4.229 7.791 4.55 4.55 0 0 1 1.875 3.6 3.215 3.215 0 0 0 3.159 3.216h3.056a3.224 3.224 0 0 0 3.216-3.244 4.51 4.51 0 0 1 1.875-3.563 10.74 10.74 0 0 0 4.2-7.8l1.556-.309a68 68 0 0 1 9.984-1.022.98.98 0 0 1 .76.3 1.02 1.02 0 0 1 .31.74v29.804a1.03 1.03 0 0 1-.985 1.031 62.1 62.1 0 0 0-21.507 4.153v-16.34h.938a.938.938 0 0 0 0-1.875h-3.75a.938.938 0 0 0 0 1.875h.938v16.35a61.9 61.9 0 0 0-21.507-4.163 1.03 1.03 0 0 1-.994-1.031zm-3.75 32.72v-26.25a2.81 2.81 0 0 1 1.876-2.645v25.988A2.925 2.925 0 0 0 7.5 53.437a64.4 64.4 0 0 1 17.353 2.813H5.625a2.81 2.81 0 0 1-2.813-2.813Zm54.376 0a2.81 2.81 0 0 1-2.813 2.812H35.138A64.4 64.4 0 0 1 52.5 53.437a2.925 2.925 0 0 0 2.813-2.906V24.515a2.81 2.81 0 0 1 1.874 2.672v26.25Z"/><path fill="#282928" d="M10.248 25.312c1.238.084 2.484.197 3.703.347h.113a.94.94 0 0 0 .112-1.875 72 72 0 0 0-3.797-.356.94.94 0 1 0-.122 1.875l-.009.01Zm0 3.872c2.287.15 4.565.416 6.825.797h.16a.941.941 0 0 0 .159-1.875 69 69 0 0 0-7.013-.825.94.94 0 1 0-.122 1.875zm-.871 5.568a.94.94 0 0 0 .872.994 63.3 63.3 0 0 1 14.775 2.69.939.939 0 0 0 .562-1.79 65.2 65.2 0 0 0-15.215-2.812.94.94 0 0 0-.994.918m16.218 6.498a65.3 65.3 0 0 0-15.216-2.813.938.938 0 0 0-.767 1.558.94.94 0 0 0 .645.318 63.3 63.3 0 0 1 14.775 2.7.937.937 0 0 0 .563-1.763m0 4.688a65.2 65.2 0 0 0-15.216-2.813.94.94 0 0 0-.122 1.875 63.3 63.3 0 0 1 14.766 2.813.98.98 0 1 0 .572-1.876Zm9.091-7.445a1 1 0 0 0 .282 0 63.3 63.3 0 0 1 14.774-2.7.94.94 0 1 0-.121-1.875 65.2 65.2 0 0 0-15.216 2.813.947.947 0 0 0 .281 1.874zm0 4.567a1 1 0 0 0 .282 0 63.3 63.3 0 0 1 14.774-2.748.938.938 0 1 0-.121-1.874 65.3 65.3 0 0 0-15.216 2.812.948.948 0 0 0 .281 1.875v-.066Zm0 4.753a1 1 0 0 0 .282 0 63.3 63.3 0 0 1 14.774-2.7.94.94 0 1 0-.121-1.875 65.2 65.2 0 0 0-15.216 2.7.948.948 0 1 0 .281 1.875M30 6.563a.937.937 0 0 0 .938-.938v-3.75a.938.938 0 0 0-1.875 0v3.75a.94.94 0 0 0 .937.938m6.627 2.747a.94.94 0 0 0 .665-.272l2.653-2.653a.937.937 0 0 0-1.322-1.322l-2.662 2.644a.937.937 0 0 0 .666 1.603m-13.922-.272a.938.938 0 0 0 1.322-1.322l-2.644-2.662a.937.937 0 0 0-1.322 1.321z"/></svg>