<svg xmlns="http://www.w3.org/2000/svg" width="60" height="60" fill="none"><path fill="#FDBC33" d="M26.608 2.335c-.756.167-2.32.725-3.466 1.257-5.417 2.625-8.712 8.8-7.874 14.748a14.4 14.4 0 0 0 3.937 8.125c2.82 2.935 6.173 4.33 10.335 4.36 4.105 0 7.485-1.425 10.333-4.358 8.602-8.967 2.765-23.685-9.635-24.3-1.23-.055-2.85 0-3.63.168m7.817 5.59c2.263.837 4.915 3.435 5.445 5.362.533 1.983.25 4.55-.725 6.368-2.15 3.937-7.04 6.815-9.973 5.865-1.34-.448-3.125-2.485-4.105-4.638-2.117-4.722-2.817-8.8-1.84-10.7 1.48-2.875 6.788-3.937 11.2-2.26zM10.268 29.65C3.171 31.94-1.016 38.645.211 45.85c1.2 7.15 7.933 12.485 15.083 11.925 5.083-.363 9.413-3.1 11.702-7.4 1.258-2.4 1.703-4.19 1.703-7.038 0-5.112-2.427-9.497-6.842-12.235-3.1-1.955-8.126-2.57-11.59-1.45zm6.09 4.497c6.842 1.118 10.555 6.843 7.875 12.205-1.09 2.15-3.38 4.33-5.725 5.448-1.593.725-2.095.837-3.575.725-2.57-.168-3.716-1.2-5.113-4.693-1.675-4.105-2.375-9.02-1.535-10.612 1.032-1.928 2.793-2.905 6.033-3.325.167 0 1.06.112 2.04.252m24.604-4.357c-8.35 2.932-12.092 12.205-8.182 20.192 1.087 2.235 3.657 4.86 5.95 6.063 5.89 3.1 12.26 2.177 16.95-2.488 7.625-7.54 4.75-20.192-5.445-23.767-2.597-.92-6.675-.92-9.272 0m8.548 4.945c2.96.95 5.92 3.712 6.59 6.2.447 1.647.195 4.022-.558 5.585-1.37 2.822-4.775 5.362-8.127 6.032-4.525.895-6.843-2.205-7.875-10.475-.617-4.997.75-7.287 4.775-7.9 1.675-.252 3.125-.115 5.195.558"/></svg>