<svg xmlns="http://www.w3.org/2000/svg" width="60" height="60" fill="none"><path fill="#282928" d="M32.979 14.605a.86.86 0 0 1-.862-.862V8.102a.862.862 0 0 1 1.724 0v5.641a.86.86 0 0 1-.862.862m-5.953 0a.86.86 0 0 1-.862-.862V8.102a.862.862 0 0 1 1.723 0v5.641a.86.86 0 0 1-.861.862"/><path fill="#282928" d="M30.005 58.434c-12.648 0-22.939-10.264-22.939-22.88 0-12.613 10.29-22.874 22.939-22.874 12.645 0 22.932 10.261 22.932 22.874 0 12.616-10.287 22.88-22.932 22.88m0-44.031c-11.698 0-21.215 9.488-21.215 21.15 0 11.667 9.517 21.158 21.215 21.158 11.694 0 21.209-9.49 21.209-21.157 0-11.663-9.515-21.151-21.21-21.151"/><path fill="#282928" d="M30.006 17.214a.86.86 0 0 1-.861-.862v-2.711a.862.862 0 0 1 1.723 0v2.711a.86.86 0 0 1-.862.862m-.004 41.123a.86.86 0 0 1-.861-.862v-2.711a.862.862 0 0 1 1.723 0v2.711a.86.86 0 0 1-.862.862m-9.628-38.55a.86.86 0 0 1-.747-.43l-1.359-2.349a.86.86 0 1 1 1.492-.862l1.36 2.348a.861.861 0 0 1-.746 1.293M40.991 55.4a.86.86 0 0 1-.746-.43l-1.36-2.349a.86.86 0 1 1 1.492-.862l1.36 2.348a.86.86 0 0 1-.746 1.293M13.325 26.816a.86.86 0 0 1-.43-.115l-2.354-1.356a.862.862 0 0 1 .86-1.493l2.354 1.355a.862.862 0 0 1-.43 1.609m35.707 20.562a.86.86 0 0 1-.43-.115l-2.354-1.356a.862.862 0 0 1 .86-1.493l2.354 1.356a.862.862 0 0 1-.43 1.608M10.744 36.419H8.026a.862.862 0 0 1 0-1.724h2.718a.862.862 0 0 1 0 1.724m41.23-.002h-2.718a.862.862 0 0 1 0-1.724h2.718a.862.862 0 0 1 0 1.724M10.972 47.378a.862.862 0 0 1-.43-1.608l2.353-1.356a.861.861 0 1 1 .86 1.493l-2.354 1.356a.86.86 0 0 1-.429.115m35.707-20.56a.861.861 0 0 1-.431-1.609l2.354-1.356a.862.862 0 0 1 .86 1.494l-2.354 1.356a.86.86 0 0 1-.43.114M19.013 55.4a.861.861 0 0 1-.745-1.293l1.36-2.348a.861.861 0 1 1 1.492.863l-1.36 2.348a.86.86 0 0 1-.747.43M39.63 19.787a.86.86 0 0 1-.745-1.293l1.36-2.349a.86.86 0 1 1 1.491.863l-1.36 2.348a.86.86 0 0 1-.745.43M36.254 8.962H23.746a3.707 3.707 0 0 1-3.707-3.699 3.707 3.707 0 0 1 3.706-3.699h12.51a3.707 3.707 0 0 1 3.706 3.699c0 2.04-1.663 3.7-3.707 3.7M23.746 3.288a1.98 1.98 0 0 0-1.984 1.975c0 1.09.89 1.976 1.983 1.976h12.51a1.98 1.98 0 0 0 1.982-1.976c0-1.089-.89-1.975-1.983-1.975zm.172 37.239a.86.86 0 0 1-.609-.252l-4.11-4.108a.86.86 0 0 1 0-1.219l4.11-4.108a.861.861 0 1 1 1.218 1.219l-3.5 3.499 3.5 3.497a.862.862 0 0 1-.61 1.472m12.167 0a.86.86 0 0 1-.609-1.472l3.501-3.497-3.5-3.5a.861.861 0 1 1 1.218-1.218l4.11 4.108a.86.86 0 0 1 0 1.22l-4.11 4.107a.86.86 0 0 1-.61.252m-8.41 1.702a.861.861 0 0 1-.8-1.182l4.651-11.619a.862.862 0 0 1 1.6.64l-4.65 11.62a.86.86 0 0 1-.8.54"/></svg>