<svg xmlns="http://www.w3.org/2000/svg" width="60" height="60" fill="none"><path fill="#282928" d="m51.177 23.651-4.823-.467a20.7 20.7 0 0 0-2.45-5.85l3.075-3.731a.924.924 0 0 0-.057-1.239l-5.217-5.246a.913.913 0 0 0-1.233-.058l-3.714 3.093a21 21 0 0 0-5.815-2.464l-.465-4.856A.92.92 0 0 0 29.565 2h-7.13a.92.92 0 0 0-.912.833l-.466 4.856a21 21 0 0 0-5.815 2.463L11.528 7.06a.913.913 0 0 0-1.232.058l-5.217 5.247a.925.925 0 0 0-.058 1.239l3.074 3.731a20.7 20.7 0 0 0-2.45 5.85l-4.822.468A.915.915 0 0 0 0 24.57v7.437a.914.914 0 0 0 .823.917l4.826.468a21.3 21.3 0 0 0 2.449 5.846L5.02 42.971a.925.925 0 0 0 .098 1.279l3.958 3.519a.913.913 0 0 0 1.358-.164l5.688-8.205a.925.925 0 0 0-.104-1.178c-5.457-5.487-5.457-14.383 0-19.87a13.92 13.92 0 0 1 19.761 0c5.457 5.488 5.457 14.383 0 19.87a.925.925 0 0 0-.095 1.19l5.888 8.205a.914.914 0 0 0 1.35.151l3.958-3.518a.925.925 0 0 0 .099-1.278l-3.076-3.735a21.3 21.3 0 0 0 2.45-5.846l4.823-.468a.914.914 0 0 0 .823-.917v-7.438a.915.915 0 0 0-.823-.917Zm-1.01 7.518-4.647.45a.915.915 0 0 0-.804.719 19.5 19.5 0 0 1-2.71 6.468.925.925 0 0 0 .061 1.092l2.935 3.563-2.535 2.253-4.85-6.76c5.616-6.23 5.436-15.895-.54-21.904-6.163-6.197-16.191-6.197-22.354 0-5.98 6.012-6.157 15.684-.532 21.913l-4.671 6.74-2.522-2.243 2.934-3.562a.93.93 0 0 0 .061-1.093 19.5 19.5 0 0 1-2.712-6.467.91.91 0 0 0-.801-.718l-4.647-.451v-5.763l4.647-.451a.91.91 0 0 0 .805-.723 18.9 18.9 0 0 1 2.707-6.458.93.93 0 0 0-.059-1.097l-2.969-3.604 4.038-4.06 3.584 2.985a.91.91 0 0 0 1.086.061 19.3 19.3 0 0 1 6.433-2.727.92.92 0 0 0 .714-.81l.448-4.679h5.466l.449 4.678a.92.92 0 0 0 .714.811 19.3 19.3 0 0 1 6.432 2.727.91.91 0 0 0 1.087-.06l3.584-2.985 4.037 4.06-2.968 3.603a.93.93 0 0 0-.058 1.096 18.9 18.9 0 0 1 2.708 6.46.91.91 0 0 0 .802.722l4.647.45z"/><path fill="#282928" d="M29.367 44.26V30.41c2.43-1.329 4.027-3.85 4.027-6.447 0-3.55-2.146-6.134-5.741-6.914-.3-.065-.613.008-.846.197a.89.89 0 0 0-.332.763l.319 3.87c-.805.4-1.766.4-2.572.002l.343-3.893a.89.89 0 0 0-.35-.782 1 1 0 0 0-.88-.17c-3.287.9-5.335 3.575-5.335 6.98 0 3.126 1.734 5.654 4.627 6.75v13.797c-2.05 1.144-4.024 3.466-3.993 6.42 0 3.521 2.122 6.124 5.67 6.964.302.07.62 0 .858-.189a.89.89 0 0 0 .34-.767l-.317-3.87c.805-.4 1.766-.4 2.572-.002l-.343 3.893a.89.89 0 0 0 .35.782c.246.19.575.254.88.17 3.27-.897 5.323-3.558 5.356-6.954 0-3.126-1.756-5.654-4.633-6.75m.103 11.386.256-2.917a.89.89 0 0 0-.376-.801l-.036-.027a4.91 4.91 0 0 0-5.732.036.89.89 0 0 0-.364.787l.247 3c-1.857-.874-2.896-2.547-2.896-4.75-.025-2.399 1.762-4.29 3.438-5.034a.9.9 0 0 0 .55-.826V30.12a.915.915 0 0 0-.68-.873c-2.435-.695-3.945-2.7-3.945-5.23 0-2.04.959-3.725 2.576-4.663l-.256 2.917a.89.89 0 0 0 .378.802l.035.026a4.91 4.91 0 0 0 5.753-.051.89.89 0 0 0 .344-.772l-.25-3.033c1.894.84 2.953 2.504 2.953 4.722 0 2.066-1.429 4.152-3.475 5.071a.91.91 0 0 0-.55.824v15.047a.92.92 0 0 0 .685.873c2.435.696 3.947 2.7 3.947 5.223-.02 2.03-.987 3.709-2.602 4.644Z"/></svg>