<svg xmlns="http://www.w3.org/2000/svg" width="64" height="64" fill="none"><g fill="#fff" clip-path="url(#a)"><path d="M51.475 26.667h3.2c.589 0 1.067-.477 1.067-1.066v-3.2a1.067 1.067 0 0 0-2.134 0v2.133h-2.133a1.067 1.067 0 0 0 0 2.133M26.382 22.4a4.267 4.267 0 1 0 0-8.533 4.267 4.267 0 0 0 0 8.534m0-6.4a2.133 2.133 0 1 1 0 4.267 2.133 2.133 0 0 1 0-4.267"/><path d="M3.082 22.046a3.181 3.181 0 0 0 4.47-1.792l8.387-.13-1.463 1.21a1.066 1.066 0 0 0-.247 1.356l1.994 3.443.044 4.8h-5.324a1 1 0 0 0-.185.038 3.2 3.2 0 1 0 0 2.058q.091.028.185.038h6.4a1.066 1.066 0 0 0 1.067-1.076l-.05-5.407 3.414-1.28q.348.225.705.412l.72 4.325c.086.514.531.89 1.053.89h.558v5.334h-3.2c-.59 0-1.067.477-1.067 1.066v15.56l-9.287 9.288A1.067 1.067 0 0 0 12.01 64h34.133a1.066 1.066 0 0 0 .754-1.82l-7.154-7.155v-5.663l2.388-3.978c4.03 2.432 6.465 3.683 7.212 3.683h6.4c.59 0 1.067-.478 1.067-1.067v-5.958l1.82-1.82c.199-.2.312-.472.313-.755v-3.2h1.558a2.134 2.134 0 0 0 1.95-3L59.135 25.8a8.3 8.3 0 0 0 1.941-5.351A18.52 18.52 0 0 0 50.783 3.794L47.69 2.245a1.066 1.066 0 0 0-1.343.335l-.447.62h-7.223V1.067C38.676.477 38.2 0 37.61 0H26.943c-.589 0-1.067.478-1.067 1.067v4.266H24.25c-.522 0-.968.377-1.053.892l-.72 4.323a9 9 0 0 0-.705.412l-4.108-1.54a1.066 1.066 0 0 0-1.298.466l-1.076 1.864c-.027 0-.05-.017-.077-.017H8.81V8.337a3.2 3.2 0 1 0-2.134 0V12.8c0 .59.478 1.067 1.067 1.067h6.384c-.098.393.037.807.349 1.066l3.383 2.786q.002.118-.006.237l-10.306.16a3.2 3.2 0 1 0-4.465 3.93m4.661 11.02a1.067 1.067 0 1 1 0-2.133 1.067 1.067 0 0 1 0 2.134m0-28.8a1.067 1.067 0 1 1 0 2.134 1.067 1.067 0 0 1 0-2.133m19.2 26.667h1.572c.521 0 .966-.376 1.052-.89l.72-4.325q.358-.185.705-.411l4.11 1.539a1.066 1.066 0 0 0 1.298-.465l.451-.781h5.025a1 1 0 0 0 .232-.047l1.902 2.535v1.779h-4.267V32h2.461l-2.857 1.142a1.07 1.07 0 0 0-.67.991v2.134H26.942zm11.59-17.352-.45-.781h2.727v4.267H35.7l2.587-2.134c.4-.33.504-.902.245-1.352M40.81 19.2v4.267h-2.727l.45-.781a1.066 1.066 0 0 0-.245-1.353L35.7 19.2zm-7.154 26.354 3.954 3.954v.625h-6.4V38.4h2.133v6.4c0 .283.113.554.313.754m-6.762 14.18h.05v-.056l4.002-4.575c.17-.195.264-.445.264-.703v-2.133h2.133v9.6h-8.32zm-12.31 2.133 7.78-7.78c.2-.2.312-.47.312-.754V38.4h6.4v15.599l-2.133 2.438V51.2H24.81v7.68l-2.618 2.987zm28.984 0h-8.092v-9.6h2.134v3.2c0 .282.112.554.312.754zm-5.105-14.52-2.987-2.987V38.4h3.2v4.267c0 .367.19.709.502.904.397.25.757.47 1.132.7zm9.085-42.786 2.28 1.142a16.4 16.4 0 0 1 9.115 14.746 6.18 6.18 0 0 1-1.82 4.397c-.313.312-.4.784-.222 1.187l3.6 8.1h-2.625c-.589 0-1.066.478-1.066 1.067v3.2h-.184a6.17 6.17 0 0 1-4.395-1.82 1.067 1.067 0 0 0-1.509 1.508 8.27 8.27 0 0 0 4.678 2.346l-.411.412c-.2.2-.313.471-.313.754v5.333l-5.232.007a57 57 0 0 1-7.12-3.936l-.005-.006h-.007a190 190 0 0 1-1.502-.922v-7.22l4.662-1.865c.405-.162.671-.554.671-.991v-4.267c0-.23-.075-.455-.214-.64l-2.986-3.982V11.009zM28.01 2.133h8.533v2.134c0 .589.478 1.066 1.067 1.066h6.765l-3.366 4.714c-.13.18-.2.397-.2.62h-3.958l-.451-.781a1.066 1.066 0 0 0-1.298-.465l-4.106 1.539a9 9 0 0 0-.704-.412l-.725-4.324a1.066 1.066 0 0 0-1.052-.89h-.505zM16.529 13.867l1.23-2.134 3.788 1.42c.34.127.721.073 1.012-.144a6.4 6.4 0 0 1 1.298-.757c.334-.144.572-.447.631-.806l.664-3.98h2.46l.663 3.981c.06.359.298.662.632.806a6.5 6.5 0 0 1 1.298.757c.29.217.671.271 1.011.144l3.79-1.42 1.228 2.133-3.12 2.567c-.28.231-.425.59-.381.95a5.7 5.7 0 0 1 0 1.5c-.044.361.1.72.38.95l3.12 2.566-1.228 2.133-3.789-1.42a1.07 1.07 0 0 0-1.01.145 6.5 6.5 0 0 1-1.3.757 1.07 1.07 0 0 0-.63.805l-.664 3.98H25.15l-.662-3.98a1.07 1.07 0 0 0-.63-.806 6.4 6.4 0 0 1-1.299-.757 1.07 1.07 0 0 0-1.012-.145l-3.79 1.421L16.53 22.4l3.12-2.568.054-.058q.03-.03.06-.062a1 1 0 0 0 .191-.294l.007-.012q.067-.177.068-.368l.008-.046c0-.013-.006-.023-.007-.036v-.074a5.7 5.7 0 0 1 0-1.5 1.07 1.07 0 0 0-.382-.95zM3.595 18.712c.127-.254.352-.446.623-.533a1.067 1.067 0 0 1 .653 2.027 1.067 1.067 0 0 1-1.343-.69 1.06 1.06 0 0 1 .067-.803"/><path d="M24.809 42.666h2.133v2.133h-2.133zM24.809 46.934h2.133v2.133h-2.133zM31.209 29.867h2.133v2.134H31.21zM35.475 29.867h2.133v2.134h-2.133zM45.076 10.666h2.133v4.267h-2.133zM45.076 17.066h2.133V19.2h-2.133zM45.076 21.334h2.133v2.133h-2.133z"/></g><defs><clipPath id="a"><path fill="#fff" d="M0 0h64v64H0z"/></clipPath></defs></svg>