<svg xmlns="http://www.w3.org/2000/svg" width="64" height="64" fill="none"><g fill="#fff" clip-path="url(#a)"><path d="M3.842 34.29a3.84 3.84 0 0 0 3.836 3.837 3.84 3.84 0 0 0 3.746-4.664l5.511-2.76a3.83 3.83 0 0 0 2.904 1.333c2.976 0 4.82-3.26 3.29-5.806l6.907-6.918a3.83 3.83 0 0 0 4.868-.791l5.512 2.76c-.532 2.408 1.312 4.665 3.745 4.665 3.318 0 5.073-3.954 2.84-6.413l8.041-12.08c2.5.887 5.117-.982 5.117-3.617A3.84 3.84 0 0 0 56.322 0a3.84 3.84 0 0 0-3.836 3.836c0 .99.377 1.895.996 2.576l-8.04 12.081a3.83 3.83 0 0 0-4.184 1.113l-5.512-2.76A3.84 3.84 0 0 0 32 12.182c-2.976 0-4.821 3.259-3.291 5.806l-6.907 6.918c-2.859-1.711-6.437.828-5.71 4.121l-5.51 2.76C8.27 29.11 3.841 30.74 3.841 34.292m52.48-32.415c1.082 0 1.962.88 1.962 1.961 0 1.082-.88 1.962-1.962 1.962a1.964 1.964 0 0 1-1.961-1.962c0-1.081.88-1.961 1.961-1.961m-12.16 18.273c1.08 0 1.96.88 1.96 1.961s-.88 1.961-1.96 1.961A1.964 1.964 0 0 1 42.2 22.11c0-1.082.88-1.961 1.961-1.961M32 14.057c1.082 0 1.962.88 1.962 1.961 0 1.082-.88 1.962-1.962 1.962a1.964 1.964 0 0 1-1.961-1.962c0-1.081.88-1.961 1.961-1.961M19.84 26.238c1.08 0 1.96.88 1.96 1.962s-.88 1.961-1.96 1.961a1.964 1.964 0 0 1-1.962-1.961c0-1.082.88-1.962 1.961-1.962M7.677 36.252a1.964 1.964 0 0 1-1.961-1.961c0-1.082.88-1.961 1.961-1.961 1.082 0 1.962.88 1.962 1.96 0 1.082-.88 1.962-1.962 1.962"/><path d="M62.338 62.124h-1.16v-20.6a.937.937 0 1 0-1.875 0v20.6h-5.964V15.418h5.964v21.73a.937.937 0 1 0 1.875 0V15.265c0-.949-.772-1.721-1.721-1.721h-6.271c-.95 0-1.721.772-1.721 1.722v46.86h-2.448V33.622c0-.95-.772-1.722-1.721-1.722h-.948a.937.937 0 1 0 0 1.875h.794v28.348H41.18V33.776h.794a.937.937 0 1 0 0-1.875h-.948c-.95 0-1.721.772-1.721 1.722v28.501h-2.448V27.48c0-.95-.772-1.722-1.721-1.722h-6.27c-.95 0-1.722.772-1.722 1.722v34.645h-2.448v-22.41c0-.95-.772-1.722-1.721-1.722h-6.27c-.95 0-1.722.772-1.722 1.722v22.41h-2.448v-16.32c0-.949-.772-1.721-1.721-1.721H4.542c-.95 0-1.722.772-1.722 1.721v16.32H1.66a.937.937 0 1 0 0 1.875h60.678a.937.937 0 1 0 0-1.875m-57.643 0V45.958h5.964v16.166zm12.161 0V39.867h5.964v22.257zm12.161 0V27.632h5.964v34.492z"/></g><defs><clipPath id="a"><path fill="#fff" d="M0 0h64v64H0z"/></clipPath></defs></svg>