<svg xmlns="http://www.w3.org/2000/svg" width="64" height="64" fill="none"><path fill="#fff" d="M61.969 39.086V24.851h-9.25a22 22 0 0 0-1.046-2.52l6.542-6.542L48.15 5.722 41.61 12.26a22 22 0 0 0-2.525-1.041v-9.25H24.851v9.25c-.858.295-1.701.645-2.52 1.046l-6.542-6.543L5.722 15.79l6.543 6.542c-.402.819-.752 1.662-1.046 2.52h-9.25v14.235h9.25c.294.858.644 1.702 1.046 2.52L5.722 48.15 15.79 58.215l6.542-6.542c.819.401 1.662.75 2.52 1.046v9.25h14.235v-9.246c.851-.293 1.695-.644 2.521-1.05l6.542 6.542L58.215 48.15l-6.542-6.542c.401-.82.752-1.663 1.046-2.52zm-6.24 9.063-7.58 7.58-6.209-6.209-.573.303a20 20 0 0 1-3.42 1.424l-.618.191v8.773h-10.72v-8.778c-1.874-.58-2.579-.84-4.612-1.913l-6.208 6.21-7.58-7.581 6.208-6.209c-1.074-2.035-1.332-2.737-1.913-4.611H3.727v-10.72h8.777c.575-1.856.836-2.57 1.913-4.612L8.209 15.79l7.58-7.58 6.208 6.208.574-.303a20 20 0 0 1 3.419-1.419l.619-.191V3.727h10.72v8.777l.618.191c1.199.372 2.35.848 3.425 1.414l.574.303 6.203-6.204 7.58 7.58-6.208 6.21c.93 1.761 1.245 2.452 1.913 4.61h8.777v10.72h-8.777c-.254.82-.654 2.225-1.611 4.038l-.303.574z"/><path fill="#fff" d="m10.01 48.001 4.1-4.099 1.242 1.243-4.1 4.1zM28.746 38.694l2.189-2.19-1.244-1.242-2.188 2.19a7.757 7.757 0 0 1-10.963 0 7.7 7.7 0 0 1-2.27-5.482c0-2.07.806-4.017 2.27-5.481 3.023-3.023 7.94-3.023 10.963 0l9.948 9.949a6.325 6.325 0 0 0 8.936 0 6.314 6.314 0 0 0 0-8.936 6.32 6.32 0 0 0-8.936 0l-2.189 2.19 1.244 1.242 2.188-2.189a4.53 4.53 0 0 1 3.225-1.333 4.553 4.553 0 0 1 4.56 4.558 4.53 4.53 0 0 1-1.335 3.224 4.565 4.565 0 0 1-6.45 0l-9.948-9.948c-3.708-3.708-9.741-3.708-13.45 0a9.505 9.505 0 0 0 0 13.448c3.712 3.711 9.738 3.711 13.45 0"/><path fill="#fff" d="M48.645 25.244c-3.708-3.708-9.741-3.708-13.449 0l-2.189 2.189 1.243 1.243 2.19-2.19c3.021-3.022 7.94-3.022 10.962 0 3.022 3.023 3.022 7.941 0 10.963-3.022 3.023-7.94 3.023-10.963 0L26.49 27.5a6.325 6.325 0 0 0-8.935 0 6.326 6.326 0 0 0 0 8.936 6.325 6.325 0 0 0 8.935 0l2.189-2.19-1.243-1.242-2.189 2.189a4.566 4.566 0 0 1-6.45 0 4.566 4.566 0 0 1 0-6.45 4.566 4.566 0 0 1 6.45 0l9.95 9.95c3.71 3.709 9.742 3.705 13.448 0 3.707-3.708 3.707-9.741 0-13.45M21.485 42.451l-1.243 1.243c6.481 6.48 16.97 6.48 23.451 0l-1.243-1.243c-5.794 5.794-15.171 5.794-20.965 0M43.695 16.807l-1.244-1.243 1.243-1.243 1.243 1.243zm2.071-2.071-1.243-1.244 1.243-1.243 1.243 1.244zm2.071-2.072-1.243-1.243 1.632-1.632 1.244 1.243zM42.45 21.487a14.815 14.815 0 0 0-16.424-3.104l-.703-1.61c6.044-2.641 13.37-1.528 18.37 3.471zm-20.965 0-1.243-1.243c.437-.436.901-.853 1.382-1.237l1.098 1.372c-.43.344-.845.717-1.237 1.108m2.126-1.766-.992-1.45a17 17 0 0 1 1.588-.96l.823 1.552c-.486.258-.963.547-1.419.858"/></svg>