<svg xmlns="http://www.w3.org/2000/svg" width="64" height="64" fill="none"><path fill="#fff" d="m62.581 56.186-7-5A1 1 0 0 0 54 52v2h-6V43a1 1 0 0 0-.649-.937L40 39.307V32a1 1 0 0 0-1-1H25a1 1 0 0 0-1 1v7.307l-7.351 2.756A1 1 0 0 0 16 43v11H2a1 1 0 0 0-1 1v4a1 1 0 0 0 1 1h52v2a1 1 0 0 0 1.581.814l7-5a1 1 0 0 0 0-1.628M40 41.443l6 2.25V54h-6zM26 33h12v21h-2v-3a4 4 0 1 0-8 0v3h-2zm8 18v3h-4v-3a2 2 0 0 1 4 0m-16-7.307 6-2.25V54h-6zm38 16.364V59a1 1 0 0 0-1-1H3v-2h52a1 1 0 0 0 1-1v-1.057L60.279 57zM33 29v-8.183a3 3 0 1 0-2 0V29zm-1-12a1 1 0 1 1 0 2.002 1 1 0 0 1 0-2.001M27 29v-4a1 1 0 0 0-.4-.8l-1.749-1.313c.095-.287.145-.586.15-.888a3.007 3.007 0 1 0-1.34 2.5l1.34 1V29zm-5-6a1 1 0 1 1 0-2 1 1 0 0 1 0 2M37 25v4h2v-3.5l1.339-1a3.12 3.12 0 1 0-1.19-1.608L37.4 24.2a1 1 0 0 0-.4.8m5-4a1 1 0 1 1 0 2 1 1 0 0 1 0-2"/><path fill="#fff" d="M28.5 35h2v2h-2zM33.5 35h2v2h-2zM28.5 39h2v2h-2zM33.5 39h2v2h-2zM28.5 43h2v2h-2zM33.5 43h2v2h-2z"/><path fill="#fff" d="m2.868 27.79 2.35.781a27.031 27.031 0 0 0 0 6.869l-2.349.769a2.01 2.01 0 0 0-1.28 2.521l1.858 5.7a2 2 0 0 0 2.524 1.3l2.35-.764a27 27 0 0 0 3.425 4.9l1.506-1.316a25 25 0 0 1-3.185-4.559A2.026 2.026 0 0 0 7.7 43.05l-2.347.76-1.859-5.7 2.347-.769a1.99 1.99 0 0 0 1.36-2.17 25 25 0 0 1 0-6.349 1.99 1.99 0 0 0-1.36-2.162l-2.35-.77 1.858-5.71 2.351.771A2.03 2.03 0 0 0 10.08 20a24.6 24.6 0 0 1 3.728-5.142 1.99 1.99 0 0 0 .171-2.553l-1.452-2 4.853-3.528 1.457 2.01a2.015 2.015 0 0 0 2.484.615 24.4 24.4 0 0 1 6.034-1.969A2.01 2.01 0 0 0 29 5.47V3h6v2.47a2.01 2.01 0 0 0 1.647 1.963A24.4 24.4 0 0 1 42.7 9.41a2.01 2.01 0 0 0 2.473-.633l1.454-2L51.47 10.3l-1.442 1.99a1.994 1.994 0 0 0 .165 2.563 24.7 24.7 0 0 1 3.74 5.161 2.03 2.03 0 0 0 2.37.933l2.346-.76 1.86 5.7-2.348.769a1.99 1.99 0 0 0-1.363 2.17c.27 2.108.27 4.241 0 6.349a1.99 1.99 0 0 0 1.362 2.162l2.35.77-1.858 5.71-2.352-.768a2.034 2.034 0 0 0-2.38.951 25 25 0 0 1-3.173 4.538l1.506 1.316a26.8 26.8 0 0 0 3.426-4.908l2.356.772a2 2 0 0 0 2.516-1.292l1.861-5.7a2.005 2.005 0 0 0-1.28-2.515l-2.35-.781q.22-1.708.218-3.43c0-1.15-.072-2.3-.218-3.44l2.348-.769a2.01 2.01 0 0 0 1.281-2.521l-1.859-5.695a2 2 0 0 0-2.524-1.295l-2.349.762a26.7 26.7 0 0 0-4.039-5.565l1.446-2a2 2 0 0 0-.439-2.8L47.8 5.164A1.994 1.994 0 0 0 45 5.6l-1.459 2A26.2 26.2 0 0 0 37 5.47V3a2 2 0 0 0-2-2h-6a2 2 0 0 0-2 2l-.014 2.467A26.4 26.4 0 0 0 20.45 7.6l-1.445-1.99a1.995 1.995 0 0 0-2.8-.449l-4.856 3.523a2 2 0 0 0-.438 2.793l1.442 2.006A26.5 26.5 0 0 0 8.32 19.05l-2.356-.772a2 2 0 0 0-2.516 1.292l-1.86 5.7a2.005 2.005 0 0 0 1.28 2.52"/><path fill="#fff" d="M52.428 40.173A21.8 21.8 0 0 0 54 32a22 22 0 0 0-44 0c-.006 2.8.528 5.575 1.572 8.173l1.856-.747A19.8 19.8 0 0 1 12 32a20 20 0 1 1 40 0 19.8 19.8 0 0 1-1.428 7.426z"/></svg>