<svg xmlns="http://www.w3.org/2000/svg" width="64" height="64" fill="none"><path fill="#fff" d="M55.153 46.716a3.95 3.95 0 0 0-3.843 3.06H32.286V48.77c0-.961-.687-1.799-1.632-1.991a15.3 15.3 0 0 1-3.561-1.199 15.14 15.14 0 0 1-7.786-8.686 15.14 15.14 0 0 1 .638-11.647c2.081-4.339 5.983-7.38 10.706-8.342a2.045 2.045 0 0 0 1.635-1.993v-1.197H51.31a3.95 3.95 0 0 0 3.843 3.062 3.95 3.95 0 0 0 3.944-3.945 3.95 3.95 0 0 0-3.944-3.944 3.95 3.95 0 0 0-3.843 3.062H32.286V7.16h8.43a3.95 3.95 0 0 0 3.843 3.062 3.95 3.95 0 0 0 3.944-3.945 3.95 3.95 0 0 0-3.944-3.944 3.95 3.95 0 0 0-3.844 3.062h-8.43V4.034a2.035 2.035 0 0 0-2.301-2.016 30.6 30.6 0 0 0-7.33 1.945 2.726 2.726 0 0 0-1.427 3.723l1.59 3.277c.218.451.054 1-.374 1.249a22.8 22.8 0 0 0-5.258 4.21.96.96 0 0 1-1.294.089l-2.853-2.257a2.737 2.737 0 0 0-3.954.606 30.6 30.6 0 0 0-4.065 8.505 2.75 2.75 0 0 0 .259 2.172c.38.65 1.02 1.119 1.755 1.285l3.548.803a.96.96 0 0 1 .743 1.062 22.8 22.8 0 0 0 .027 6.736.963.963 0 0 1-.737 1.075l-3.548.822c-.734.17-1.37.642-1.747 1.294a2.75 2.75 0 0 0-.248 2.173 30.5 30.5 0 0 0 4.112 8.489 2.75 2.75 0 0 0 1.859 1.152 2.74 2.74 0 0 0 2.1-.57L16 47.568a.965.965 0 0 1 1.3.087c.327.347.756.74 1.277 1.167a.883.883 0 0 0 1.12-1.366 12 12 0 0 1-1.11-1.01 2.74 2.74 0 0 0-3.69-.255l-2.86 2.288a.97.97 0 0 1-1.404-.21 28.7 28.7 0 0 1-3.873-7.997.97.97 0 0 1 .705-1.232l3.548-.822a2.736 2.736 0 0 0 2.083-3.063 21 21 0 0 1-.024-6.213c.202-1.393-.72-2.727-2.102-3.04L7.422 25.1a.968.968 0 0 1-.711-1.228 28.8 28.8 0 0 1 3.83-8.014.97.97 0 0 1 1.402-.219l2.853 2.257c1.11.878 2.729.758 3.685-.274a21 21 0 0 1 4.85-3.884 2.736 2.736 0 0 0 1.074-3.545l-1.589-3.278a.963.963 0 0 1 .499-1.315 28.8 28.8 0 0 1 6.907-1.832.267.267 0 0 1 .299.265v10.878a.27.27 0 0 1-.223.262c-5.269 1.075-9.622 4.468-11.945 9.31a16.9 16.9 0 0 0-.711 12.996 16.9 16.9 0 0 0 8.687 9.692 17 17 0 0 0 3.972 1.337.27.27 0 0 1 .22.261v11.197a.267.267 0 0 1-.298.266 28.2 28.2 0 0 1-6.76-1.779.963.963 0 0 1-.505-1.312l.006-.011 1.79-3.878a2.24 2.24 0 0 0-.828-2.815 64 64 0 0 1-1.714-1.128.883.883 0 1 0-.995 1.46c.559.38 1.152.77 1.761 1.158.195.124.27.376.173.585l-1.788 3.872a2.73 2.73 0 0 0 1.444 3.708 30 30 0 0 0 7.183 1.89 2.02 2.02 0 0 0 1.601-.484c.442-.387.695-.945.695-1.531v-1.871h8.43a3.95 3.95 0 0 0 3.843 3.06 3.95 3.95 0 0 0 3.944-3.943 3.95 3.95 0 0 0-3.944-3.944 3.95 3.95 0 0 0-3.844 3.061h-8.429v-4.787H51.31a3.95 3.95 0 0 0 3.843 3.06 3.95 3.95 0 0 0 3.944-3.943 3.95 3.95 0 0 0-3.944-3.944m0-36.063a2.18 2.18 0 0 1 2.178 2.178 2.18 2.18 0 0 1-2.178 2.179 2.18 2.18 0 0 1-2.179-2.179 2.18 2.18 0 0 1 2.179-2.178M44.559 4.1a2.18 2.18 0 0 1 2.178 2.178 2.18 2.18 0 0 1-2.178 2.179 2.18 2.18 0 0 1-2.179-2.179A2.18 2.18 0 0 1 44.558 4.1m0 50.934a2.18 2.18 0 0 1 2.178 2.179 2.18 2.18 0 0 1-2.178 2.178 2.18 2.18 0 0 1-2.179-2.178 2.18 2.18 0 0 1 2.178-2.179m10.594-2.196a2.18 2.18 0 0 1-2.179-2.178 2.18 2.18 0 0 1 2.179-2.178 2.18 2.18 0 0 1 2.178 2.178 2.18 2.18 0 0 1-2.178 2.178"/><path fill="#fff" d="M33.014 28.97a.883.883 0 1 0 0-1.765h-3.198a.883.883 0 0 0-.882.883v7.587c0 .488.395.883.883.883h3.197a.883.883 0 1 0 0-1.766h-2.315v-2.028h2.079a.883.883 0 1 0 0-1.765h-2.079V28.97zM42.851 30.043c0-1.584-1.34-2.873-2.986-2.873h-2.037a.883.883 0 0 0-.883.883v7.657a.883.883 0 1 0 1.766 0v-2.364l2.594 2.947a.88.88 0 0 0 1.246.08.883.883 0 0 0 .08-1.246l-2.025-2.3c1.29-.319 2.245-1.446 2.245-2.784m-2.986 1.107-1.142.004c-.003-.406-.005-.855-.005-1.111 0-.217 0-.682-.002-1.107h1.15c.66 0 1.22.507 1.22 1.107s-.56 1.107-1.22 1.107M46.143 35.71a.883.883 0 1 0 1.765 0v-2.448c.448-.002.96-.005 1.25-.005 1.701 0 3.085-1.365 3.085-3.043s-1.384-3.044-3.086-3.044h-2.132a.883.883 0 0 0-.882.886zm3.014-6.774c.716 0 1.32.585 1.32 1.278 0 .692-.604 1.278-1.32 1.278l-1.239.004-.007-2.56z"/><path fill="#fff" d="M38.752 22.418H32.23c-5.283 0-9.58 4.298-9.58 9.58 0 5.283 4.297 9.58 9.58 9.58h16.007c5.282 0 9.58-4.297 9.58-9.58 0-5.282-4.297-9.58-9.58-9.58h-5.955a.883.883 0 1 0 0 1.766h5.955c4.309 0 7.815 3.505 7.815 7.814s-3.506 7.815-7.815 7.815H32.23c-4.31 0-7.815-3.506-7.815-7.815s3.506-7.814 7.815-7.814h6.52a.883.883 0 1 0 0-1.766"/></svg>