<svg xmlns="http://www.w3.org/2000/svg" width="64" height="64" fill="none"><g fill="#fff" clip-path="url(#a)"><path d="M15.3 23.73a.875.875 0 0 0-.876-.875A9.74 9.74 0 0 0 4.7 32.584a.875.875 0 1 0 1.75 0 7.986 7.986 0 0 1 7.976-7.977.875.875 0 0 0 .874-.876M22.906 5.035a5.084 5.084 0 0 0-5.078 5.078.875.875 0 0 0 1.75 0 3.329 3.329 0 0 1 6.657 0 .875.875 0 0 0 1.75 0 5.084 5.084 0 0 0-5.079-5.078M17.94 17.828h.374a4.31 4.31 0 0 1 4.305 4.305v2.828a4.31 4.31 0 0 1-4.305 4.305.875.875 0 1 0 0 1.75 6.06 6.06 0 0 0 6.055-6.055v-2.828a6.06 6.06 0 0 0-6.055-6.055h-.375a.875.875 0 1 0 0 1.75M23.5 39.828a.875.875 0 1 0 0-1.75h-5a5.07 5.07 0 0 1-5.062-5.062.875.875 0 0 0-1.75 0 6.82 6.82 0 0 0 6.812 6.812zM26.688 50.203a6.257 6.257 0 0 1-6.25-6.25.875.875 0 0 0-1.75 0 8.01 8.01 0 0 0 8 8 .875.875 0 1 0 0-1.75M14.273 48.382a2.68 2.68 0 0 1-2.25-3.042.874.874 0 1 0-1.73-.26 4.43 4.43 0 0 0 3.72 5.033q.066.01.131.01a.874.874 0 0 0 .129-1.741M23.125 57.621a3.755 3.755 0 0 1-3.75-3.75.875.875 0 1 0-1.75 0 5.506 5.506 0 0 0 5.5 5.5.875.875 0 1 0 0-1.75"/><path d="M60.53 35.204c-.615 0-1.22.166-1.75.48l-11.35-11.35a.88.88 0 0 0-.618-.257H32.875v-5.415h24.303a3.469 3.469 0 1 0 0-1.75H32.875v-3.916h13.937a.88.88 0 0 0 .619-.257l3.75-3.75a3.475 3.475 0 1 0-1.3-1.174l-3.431 3.43H32.875V9.924a9.97 9.97 0 0 0-19.908-.772 8.63 8.63 0 0 0-7.374 8.535 8.5 8.5 0 0 0 .572 3.075A14.424 14.424 0 0 0 5.84 44.18a8.62 8.62 0 0 0 7.127 10.58 9.969 9.969 0 0 0 19.908-.773v-.156h9.575l3.729 4.74a3.484 3.484 0 1 0 1.343-1.123l-3.96-5.033a.88.88 0 0 0-.687-.334h-10v-5.25h9.24a3.469 3.469 0 1 0 0-1.75h-9.24v-5.25h14.74a3.469 3.469 0 1 0 0-1.75h-14.74v-5.25h5.26a3.47 3.47 0 1 0-.044-1.75h-5.216v-5.25H46.45l11.092 11.092a3.465 3.465 0 1 0 2.99-1.717zm0-19.136a1.719 1.719 0 1 1 .002 3.438 1.719 1.719 0 0 1-.001-3.438M52.78 4.193a1.719 1.719 0 1 1 0 3.437 1.719 1.719 0 0 1 0-3.437m-2.062 56.386a1.718 1.718 0 1 1-3.436 0 1.718 1.718 0 0 1 3.436 0m-5.25-16.344a1.719 1.719 0 1 1 .001 3.438 1.719 1.719 0 0 1 0-3.438m5.5-7a1.719 1.719 0 1 1 .001 3.438 1.719 1.719 0 0 1 0-3.438m-9.503-7.084a1.719 1.719 0 1 1 .001 3.437 1.719 1.719 0 0 1 0-3.437m-10.34 23.834a8.219 8.219 0 0 1-16.438.02v-.04a.875.875 0 0 0-.828-.875 6.873 6.873 0 0 1-6.177-9 .875.875 0 0 0-.343-.996 12.676 12.676 0 0 1 .383-21.27.875.875 0 0 0 .323-1.126 6.865 6.865 0 0 1 5.815-9.88.875.875 0 0 0 .828-.875v-.04a8.219 8.219 0 0 1 16.438.02zM60.53 40.392a1.72 1.72 0 1 1 0-3.439 1.72 1.72 0 0 1 0 3.439"/><path d="M57.938 22.578a3.47 3.47 0 1 0 0 6.939 3.47 3.47 0 0 0 0-6.939m0 5.188a1.719 1.719 0 1 1-.001-3.438 1.719 1.719 0 0 1 .001 3.438M57.938 46.354a3.47 3.47 0 1 0 0 6.938 3.47 3.47 0 0 0 0-6.939m0 5.187a1.719 1.719 0 1 1-.001-3.438 1.719 1.719 0 0 1 .001 3.438"/></g><defs><clipPath id="a"><path fill="#fff" d="M0 0h64v64H0z"/></clipPath></defs></svg>