<svg xmlns="http://www.w3.org/2000/svg" width="64" height="64" fill="none"><path fill="#fff" d="M33 8h-6a1 1 0 0 1 0-2h6a1 1 0 0 1 0 2M41 62H19c-2.758 0-5-2.244-5-5V43a1 1 0 0 1 2 0v14c0 1.654 1.346 3 3 3h22c1.654 0 3-1.346 3-3V23a1 1 0 0 1 2 0v34c0 2.756-2.242 5-5 5"/><path fill="#fff" d="M45 10a1 1 0 0 1-1-1V7c0-1.654-1.346-3-3-3H19c-1.654 0-3 1.346-3 3v2a1 1 0 0 1-2 0V7c0-2.756 2.242-5 5-5h22c2.758 0 5 2.244 5 5v2a1 1 0 0 1-1 1M29 50h-8a1 1 0 0 1 0-2h8a1 1 0 0 1 0 2M35 54H21a1 1 0 0 1 0-2h14a1 1 0 0 1 0 2M39 46H21a1 1 0 0 1 0-2h18a1 1 0 0 1 0 2M18 28c-2.758 0-5-2.244-5-5s2.242-5 5-5 5 2.244 5 5-2.242 5-5 5m0-8c-1.654 0-3 1.346-3 3s1.346 3 3 3 3-1.346 3-3-1.346-3-3-3M18 40c-3.507 0-6.873-1.324-9.477-3.724a1 1 0 0 1-.292-.974A6.955 6.955 0 0 1 15 30h6a6.96 6.96 0 0 1 6.772 5.3 1 1 0 0 1-.292.974C24.875 38.676 21.509 40 18 40m-7.653-4.786c4.324 3.602 10.984 3.602 15.308 0A4.96 4.96 0 0 0 21 32h-6a4.96 4.96 0 0 0-4.654 3.214"/><path fill="#fff" d="M18 40c-7.718 0-14-6.28-14-14s6.282-14 14-14 14 6.28 14 14-6.282 14-14 14m0-26c-6.618 0-12 5.382-12 12s5.382 12 12 12 12-5.382 12-12-5.382-12-12-12M9 45.9c-.552 0-1-.347-1-.9v-.2a1 1 0 0 1 2 0c0 .553-.448 1.1-1 1.1M9 49.9c-.552 0-1-.347-1-.9v-.2a1 1 0 0 1 2 0c0 .553-.448 1.1-1 1.1M9 53.9c-.552 0-1-.347-1-.9v-.2a1 1 0 0 1 2 0c0 .553-.448 1.1-1 1.1M48.68 54H47a1 1 0 0 1 0-2h.874l.49-2.27c.08-.376.37-.67.742-.76a9.6 9.6 0 0 0 2.734-1.142 1 1 0 0 1 1.058.01l1.98 1.266 1.226-1.236-1.266-1.964a1 1 0 0 1-.014-1.062 9.5 9.5 0 0 0 1.14-2.734c.09-.372.382-.66.756-.744l2.278-.506v-1.714l-2.278-.506a1 1 0 0 1-.756-.744 9.6 9.6 0 0 0-1.14-2.734 1 1 0 0 1 .012-1.06l1.268-1.982-1.224-1.224-1.982 1.268a1 1 0 0 1-1.058.01 9.6 9.6 0 0 0-2.734-1.142 1 1 0 0 1-.742-.76l-.49-2.27H47a1 1 0 0 1 0-2h1.68a1 1 0 0 1 .976.79l.534 2.466c.732.222 1.45.522 2.142.896l2.148-1.374c.396-.25.914-.198 1.246.136l2.362 2.36c.332.332.388.85.134 1.246l-1.374 2.148q.562 1.043.896 2.146l2.47.548c.458.102.784.508.784.976v3.32a1 1 0 0 1-.784.976l-2.47.548a11.5 11.5 0 0 1-.896 2.144l1.372 2.128a.996.996 0 0 1-.13 1.246l-2.362 2.38a1 1 0 0 1-1.248.138l-2.148-1.374a11.6 11.6 0 0 1-2.142.896l-.534 2.466a1 1 0 0 1-.976.794"/><path fill="#fff" d="M49.106 45.536a1 1 0 0 1-.422-1.906A4.02 4.02 0 0 0 51 40a4.004 4.004 0 0 0-5.554-3.686 1 1 0 1 1-.78-1.84A5.9 5.9 0 0 1 47 34c3.308 0 6 2.692 6 6a6.02 6.02 0 0 1-3.472 5.442 1 1 0 0 1-.422.094M52 20H40c-2.206 0-4-1.794-4-4s1.794-4 4-4h12c2.206 0 4 1.794 4 4s-1.794 4-4 4m-12-6c-1.104 0-2 .898-2 2s.896 2 2 2h12c1.104 0 2-.898 2-2s-.896-2-2-2z"/></svg>