<svg xmlns="http://www.w3.org/2000/svg" width="64" height="64" fill="none"><path fill="#fff" d="M27.443 13.962c-1.94-1.745-4.558-2.521-7.176-2.23-4.363.581-7.757 4.072-7.757 8.242v.194c.097 1.649.97 6.982 7.272 8.049.582.096 1.067.193 1.649.193 2.133 0 4.17-.775 5.818-2.133a8 8 0 0 0 3.006-6.206c0-2.424-.97-4.558-2.812-6.11M25.99 24.726a7.22 7.22 0 0 1-5.916 1.551c-4.751-.776-5.527-4.655-5.624-6.303v-.097c0-3.2 2.618-5.915 6.012-6.303 2.037-.29 4.17.388 5.722 1.745 1.357 1.261 2.133 2.91 2.133 4.655 0 1.843-.873 3.588-2.327 4.752"/><path fill="#fff" d="m33.843 35.2 3.782-3.589c.388-.29.388-.873.097-1.26l-2.715-3.782c.387-.776.775-1.552.97-2.328l4.848-.872c.484-.097.775-.485.775-.97v-5.042c0-.485-.388-.873-.775-.97l-4.946-.873c-.29-.776-.582-1.551-1.066-2.327l2.715-3.782c.29-.388.194-.97-.097-1.26-.097-.097-3.588-3.297-3.88-3.491-.29-.194-.58-.291-.969-.194-.097 0-.29.097-.388.194L28.51 6.98c-.096.097-.193.097-.29.194a11.4 11.4 0 0 0-2.328-.873l-.97-4.557c-.096-.485-.484-.776-.97-.776H18.62c-.485 0-.873.388-.97.872l-.97 4.461c-.872.291-1.745.582-2.521.97-2.133-1.358-3.297-2.037-3.976-2.424l-.194-.194v.097c-.582-.291-.678-.194-.97-.097 0 .097-.193.194-.193.29L5.14 8.339a.937.937 0 0 0 0 1.358c.29.388 1.163 1.552 1.842 2.521l.776 1.26c-.388.777-.776 1.552-.97 2.328l-4.848.873c-.485.097-.776.485-.776.97v5.042c0 .388.194.679.485.873.194.097.29.194.485.097l4.751.775c.194.582.485 1.358 1.067 2.328-1.358 1.94-2.133 3.006-2.521 3.685l-.194.194c-.291.581-.291.678-.097.97.097.193.194.29.388.387.678.582 3.49 3.2 3.685 3.394.29.194.581.29.97.194.096 0 .29-.097.387-.194l3.976-2.618q1.163.582 2.327.873l.97 4.557c.097.485.485.776.97.776h5.333c.485 0 .873-.291.97-.776l.97-4.557c.872-.291 1.745-.582 2.52-.97l4.17 2.618c.194.29.679.194 1.067-.097m-5.721-4.462c-.97.582-2.037.97-3.2 1.261-.388.097-.68.388-.68.776l-.969 4.267h-3.782l-.872-4.364c-.097-.388-.388-.679-.68-.776-1.066-.29-2.133-.679-3.005-1.164a.88.88 0 0 0-.97 0L9.988 33.26c-.582-.291-1.454-1.067-2.715-2.23.873-1.261 2.521-3.588 2.521-3.686.194-.29.194-.775 0-1.066-.678-1.164-.97-1.843-1.26-2.618l-.097-.388c-.097-.291-.388-.582-.776-.582l-4.655-.776V18.52l4.655-.872c.388-.097.679-.388.776-.68.194-.678.582-1.745 1.163-2.714.388-.291.485-.582 0-1.261 0-.097-.097-.097-.097-.194-.193-.388-.581-.776-.97-1.454L7.08 9.21c.485-.485 1.26-1.163 2.327-2.23l.291-.194c1.261.776 3.88 2.424 3.976 2.521a.88.88 0 0 0 .97 0c.97-.485 2.036-.97 3.2-1.26.388-.097.679-.388.679-.776l.97-4.364h3.781l.873 4.364c.097.388.388.679.679.776 1.066.29 1.94.581 2.909 1.066.29.194.775.291 1.066 0l3.976-2.521c.485.485 1.358 1.26 2.618 2.424l-2.618 3.685c-.194.291-.194.776 0 1.067.582.97 1.067 1.94 1.358 2.909.097.388.388.582.776.679l4.654.775v3.394l-4.654.873c-.388.097-.68.291-.776.679-.097 1.163-.582 2.133-1.164 3.006-.194.29-.194.776 0 1.067l2.618 3.587-2.618 2.425-3.879-2.425c-.29-.096-.678-.194-.97 0M54.594 45.962c-.678-3.394-3.782-5.915-7.175-5.915a7.366 7.366 0 0 0-7.37 7.37v.096c0 2.23.97 4.17 2.715 5.625 1.358 1.067 3.006 1.648 4.654 1.648 1.358 0 2.619-.388 3.88-1.066 2.617-1.552 3.878-4.655 3.296-7.758m-4.363 6.11c-1.552.969-4.073 1.357-6.206-.389-1.261-1.066-1.94-2.521-1.94-4.17v-.096a5.42 5.42 0 0 1 5.43-5.43c2.522 0 4.752 1.842 5.334 4.266.388 2.909-1.067 4.848-2.618 5.818"/><path fill="#fff" d="M62.838 45.284c0-.485-.291-.873-.776-.97l-3.588-.679c-.194-.582-.388-1.164-.679-1.648l1.94-3.007c.29-.387.194-.872-.097-1.26-1.455-1.358-2.23-2.23-2.715-2.618a.21.21 0 0 0-.195-.194c-.484-.388-.581-.388-.872-.291-.194 0-.291.097-.388.194-.485.29-1.843 1.26-2.715 1.842l-.097.097a4.3 4.3 0 0 0-1.552-.582l-.678-3.588c-.098-.484-.485-.775-.97-.775h-4.073c-.485 0-.873.388-.97.872l-.678 3.491c-.582.194-1.164.388-1.649.68-.873-.583-2.812-1.843-3.006-2.037-.485-.291-1.067-.194-1.358.194l-1.648 1.842-.194.194-.194.194-.097.097-.097.097-.582.582c-.29.29-.387.872-.097 1.26 0 .097 1.358 2.037 2.037 3.006-.291.582-.485 1.164-.679 1.746l-3.49.582c-.486.097-.777.485-.777.97v4.072c.097.582.194.679.485.873.097.097.291.097.485.097l3.394.582c.194.485.388.97.679 1.648-.485.679-1.26 1.843-1.649 2.521l-.29.485c-.292.485-.195 1.067.29 1.358l2.812 2.715c.291.194.582.29.97.29.097 0 .291-.096.388-.193l2.909-2.037c.485.194.97.485 1.551.582l.68 3.588c.096.485.484.776.969.776h3.879c.485 0 .872-.29.97-.776l.678-3.588c.582-.194 1.164-.388 1.649-.678l3.006 2.036c.388.29.873.194 1.26-.097l2.813-2.91c.29-.29.387-.872.096-1.26l-2.036-3.006c.291-.582.485-1.066.679-1.745l3.49-.68c.486-.096.777-.484.777-.969zM57.6 49.259c-.388.097-.678.388-.776.679-.193.873-.581 1.648-.97 2.327-.193.291-.193.68 0 1.067l1.94 2.812-1.745 1.745-2.812-1.939c-.291-.194-.68-.194-1.067 0-.679.388-1.552.776-2.327.97-.388.097-.582.388-.68.776l-.58 3.394h-2.425l-.679-3.297c-.097-.388-.388-.68-.679-.776a9 9 0 0 1-2.23-.873c-.29-.194-.679-.194-1.067.097l-2.812 1.94-1.745-1.746c.678-.97 1.842-2.715 1.842-2.812.194-.291.194-.679 0-1.067-.485-.872-.679-1.454-.873-2.036l-.097-.291c0-.485-.29-.776-.678-.776l-3.297-.582v-2.424l3.297-.679c.388-.097.678-.388.775-.775.097-.485.485-1.455.873-2.23 0-.098.097-.098.097-.195.097-.29.194-.388-.097-.97 0-.096-.097-.096-.194-.193-.29-.485-.776-1.26-1.745-2.619l.097-.096.097-.097 1.648-1.649c.582.485 1.552 1.067 2.812 1.94.291.193.68.193 1.067 0 .679-.388 1.455-.776 2.327-.97.388-.097.582-.388.679-.776l.679-3.297h2.424l.679 3.297c.097.388.29.679.679.776.775.194 1.357.485 2.036.776.388.387.776.29 1.164 0 .388-.291.097-.097.097-.097.194-.097.29-.194.484-.291.582-.388 1.552-1.067 2.134-1.552l1.745 1.746-1.842 2.812c-.194.29-.194.678 0 1.066.388.776.776 1.552.97 2.328.096.388.387.581.775.678l3.297.582v2.424zM27.152 57.019c-8.728-.194-16-6.691-17.358-15.128l1.552 1.552a.937.937 0 0 0 1.357 0 .94.94 0 0 0 0-1.358l-3.49-3.394a.937.937 0 0 0-1.358 0L4.46 42.182a.937.937 0 0 0 0 1.358.937.937 0 0 0 1.357 0l1.94-1.94a20.1 20.1 0 0 0 19.394 17.455c.582 0 .97-.485.97-.97 0-.678-.388-1.066-.97-1.066M62.06 26.181a.937.937 0 0 0-1.357 0l-1.843 1.843c.291-9.697-6.497-18.328-16.097-20.267-.485-.097-1.066.291-1.066.873-.097.485.29.97.775 1.066 8.63 1.746 14.74 9.504 14.546 18.23l-1.843-1.745a.937.937 0 0 0-1.357 0 .937.937 0 0 0 0 1.358l3.394 3.394c.194.194.388.29.678.29s.485-.096.68-.29l3.393-3.394c.485-.388.485-.97.097-1.358"/></svg>