<svg xmlns="http://www.w3.org/2000/svg" width="64" height="64" fill="none"><g fill="#fff" clip-path="url(#a)"><path d="M16.438 44.75c1.347-.406 2.58.569 2.62.601l.714.6 1.207-1.435-.718-.603c-.081-.068-2.017-1.664-4.364-.957-1.165.35-1.99 1.266-2.15 2.39a2.66 2.66 0 0 0 1.186 2.633q.063.04.13.07c.052.024 1.275.568 2.654 1.077.916.338 1.385.853 1.284 1.414-.102.57-.778 1.162-1.734 1.162-.937 0-1.84-.38-2.416-1.016l-.63-.694-1.389 1.259.63.695c.925 1.02 2.348 1.63 3.805 1.63 1.765 0 3.305-1.163 3.58-2.707.21-1.173-.332-2.71-2.48-3.502a48 48 0 0 1-2.461-.995.79.79 0 0 1-.304-.76c.028-.192.165-.659.836-.861M30.773 53.576v-9.011h-1.875v1.071a4.06 4.06 0 0 0-2.212-.653A4.09 4.09 0 0 0 22.6 49.07a4.09 4.09 0 0 0 4.086 4.087 4.06 4.06 0 0 0 2.212-.653v1.072zm-4.087-2.294a2.214 2.214 0 0 1-2.212-2.212c0-1.22.993-2.212 2.212-2.212s2.212.993 2.212 2.212-.992 2.212-2.212 2.212M40.822 53.576v-9.011h-1.875v1.071a4.06 4.06 0 0 0-2.212-.653 4.09 4.09 0 0 0-4.087 4.087 4.09 4.09 0 0 0 4.087 4.087 4.06 4.06 0 0 0 2.212-.653v1.072zm-4.087-2.294a2.214 2.214 0 0 1-2.212-2.212c0-1.22.993-2.212 2.212-2.212s2.212.993 2.212 2.212-.992 2.212-2.212 2.212M47.157 51.702c-.936 0-1.84-.38-2.415-1.016l-.63-.694-1.39 1.259.63.695c.926 1.02 2.348 1.63 3.805 1.63 1.766 0 3.305-1.163 3.581-2.707.21-1.173-.332-2.71-2.481-3.502a48 48 0 0 1-2.46-.995.79.79 0 0 1-.304-.76c.028-.192.164-.659.835-.861 1.347-.407 2.578.566 2.62.6l.715.6 1.206-1.435-.718-.603c-.08-.068-2.017-1.664-4.364-.957-1.165.35-1.989 1.266-2.15 2.39a2.66 2.66 0 0 0 1.187 2.633q.062.04.13.07c.051.024 1.275.568 2.654 1.077.916.338 1.384.853 1.284 1.414-.102.57-.779 1.162-1.735 1.162M43.031 55.957h1.875v1.875h-1.875z"/><path d="M64 34.591a9.81 9.81 0 0 0-3.396-7.43 9.83 9.83 0 0 0-6.798-2.39 6.5 6.5 0 0 0-1.691-3.836 6.491 6.491 0 0 0-7.542-1.47 15 15 0 0 0-4.38-8.93A15.02 15.02 0 0 0 29.57 6.167c-3.544 0-7.05 1.393-9.873 3.923l1.251 1.396c2.48-2.22 5.54-3.444 8.622-3.444 3.508 0 6.813 1.358 9.307 3.825a13.16 13.16 0 0 1 3.928 9.252l.024 2.002 1.522-1.3a4.6 4.6 0 0 1 2.994-1.104 4.56 4.56 0 0 1 3.391 1.487 4.57 4.57 0 0 1 1.205 3.514l-.098 1.176 1.168-.17a7.97 7.97 0 0 1 6.368 1.855 7.94 7.94 0 0 1 2.747 6.011c0 2.083-.81 4.015-2.283 5.44-1.27 1.23-2.925 1.99-4.73 2.188a4.695 4.695 0 0 0-4.58-3.698H13.468a4.696 4.696 0 0 0-4.534 3.495 10.37 10.37 0 0 1-4.763-3.297 10.33 10.33 0 0 1-2.297-6.488c0-5.338 3.521-8.494 6.817-9.667 1.98-.705 4.074-.82 6.057-.334 2.12.52 3.996 1.722 5.425 3.475l1.454-1.184a12.06 12.06 0 0 0-5.284-3.758c.13-2.846 1.307-5.668 3.356-8.013l-1.412-1.233c-2.23 2.553-3.553 5.62-3.791 8.746-2.084-.388-4.294-.228-6.434.534-2.308.822-4.28 2.26-5.706 4.159C.815 27.012 0 29.528 0 32.23c0 2.785.964 5.509 2.715 7.669a12.25 12.25 0 0 0 6.066 4.032v9.212a4.693 4.693 0 0 0 4.688 4.688h27.687v-1.875H13.47a2.816 2.816 0 0 1-2.813-2.813v-9.936a2.816 2.816 0 0 1 2.813-2.812H50.53a2.816 2.816 0 0 1 2.813 2.812v9.936a2.816 2.816 0 0 1-2.813 2.813h-3.75v1.875h3.75a4.693 4.693 0 0 0 4.688-4.688v-9.052c4.993-.5 8.781-4.513 8.781-9.5"/><path d="M38.592 18.486h1.875v1.875h-1.875zM36.717 14.736h1.875v1.875h-1.875z"/></g><defs><clipPath id="a"><path fill="#fff" d="M0 0h64v64H0z"/></clipPath></defs></svg>