<svg xmlns="http://www.w3.org/2000/svg" width="64" height="64" fill="none"><path fill="#fff" d="M19.026 42.576a6.43 6.43 0 0 1-5.856-3.787.71.71 0 0 1 .649-1.004h3.255v-3.257H13.82a.71.71 0 0 1-.649-1.004 6.43 6.43 0 0 1 5.856-3.788 6.43 6.43 0 0 1 5.647 3.368h16.262a5.67 5.67 0 0 1 4.787-2.625 5.69 5.69 0 0 1 5.178 3.35.71.71 0 0 1-.648 1.003h-2.74v2.648h2.74a.71.71 0 0 1 .648 1.004 5.69 5.69 0 0 1-5.178 3.35 5.67 5.67 0 0 1-4.787-2.626H24.673a6.43 6.43 0 0 1-5.647 3.368m-3.957-3.366a5.01 5.01 0 0 0 3.957 1.945 5.01 5.01 0 0 0 4.558-2.948.71.71 0 0 1 .648-.42h17.111c.262 0 .503.144.627.376a4.25 4.25 0 0 0 3.754 2.25 4.26 4.26 0 0 0 3.248-1.508h-2.169a.71.71 0 0 1-.711-.71v-4.071c0-.393.319-.711.711-.711h2.169a4.26 4.26 0 0 0-3.248-1.508 4.25 4.25 0 0 0-3.754 2.25.71.71 0 0 1-.627.376h-17.11a.71.71 0 0 1-.65-.42 5.01 5.01 0 0 0-4.557-2.948 5 5 0 0 0-3.957 1.945h2.716c.393 0 .712.319.712.712v4.679a.71.71 0 0 1-.712.71zM55.868 59.358a.711.711 0 0 1 0-1.422 2.48 2.48 0 0 0 2.477-2.478 2.48 2.48 0 0 0-2.477-2.477H8.206a2.48 2.48 0 0 0-2.477 2.477 2.48 2.48 0 0 0 2.477 2.478.711.711 0 0 1 0 1.422c-2.15 0-3.9-1.75-3.9-3.9s1.75-3.9 3.9-3.9h47.662c2.15 0 3.9 1.75 3.9 3.9s-1.75 3.9-3.9 3.9"/><path fill="#fff" d="M42.557 55.828H21.514c-1.162 0-2.09-.764-2.423-1.994l-.373-1.378a.711.711 0 0 1 1.373-.371l.372 1.378c.095.352.359.943 1.051.943h21.043c.693 0 .956-.59 1.051-.943l.373-1.378a.71.71 0 1 1 1.372.371l-.372 1.378c-.331 1.23-1.26 1.994-2.424 1.994"/><path fill="#fff" d="M52.593 52.982a.711.711 0 0 1 0-1.422 2.44 2.44 0 0 0 2.438-2.437V23.197a2.44 2.44 0 0 0-2.438-2.436H11.48a2.44 2.44 0 0 0-2.437 2.436v25.926a2.44 2.44 0 0 0 2.437 2.436.711.711 0 0 1 0 1.423 3.863 3.863 0 0 1-3.859-3.859V23.196a3.863 3.863 0 0 1 3.859-3.858h41.113c2.128 0 3.86 1.73 3.86 3.858v25.926a3.866 3.866 0 0 1-3.86 3.86"/><path fill="#fff" d="M51.861 50.297H12.212a1.91 1.91 0 0 1-1.905-1.906V23.93c0-1.05.854-1.906 1.905-1.906h39.65c1.052 0 1.906.855 1.906 1.906v24.462a1.91 1.91 0 0 1-1.907 1.906M12.212 23.446a.49.49 0 0 0-.483.483v24.462a.49.49 0 0 0 .483.484h39.65a.49.49 0 0 0 .484-.484V23.93a.49.49 0 0 0-.483-.483zM62.757 59.36H1.317a.711.711 0 0 1 0-1.422h61.44a.711.711 0 0 1 0 1.422M44.839 20.76a.71.71 0 0 1-.711-.712V16.56c-.009-.023-.077-.08-.21-.103l-2.667-.442a.71.71 0 0 1-.56-.48 9 9 0 0 0-.536-1.29.71.71 0 0 1 .056-.736l1.576-2.2c.077-.108.085-.196.08-.215L39.31 8.538c-.023-.01-.111-.002-.22.076l-2.2 1.576a.71.71 0 0 1-.736.055 9 9 0 0 0-1.289-.535.71.71 0 0 1-.48-.56l-.443-2.67c-.021-.13-.078-.199-.095-.209h-3.615c-.025.009-.08.077-.103.21l-.442 2.67a.71.71 0 0 1-.48.56c-.44.143-.874.322-1.29.534a.71.71 0 0 1-.736-.055l-2.2-1.576c-.108-.077-.197-.085-.215-.08l-2.557 2.557c-.01.023-.003.111.075.22l1.578 2.2a.71.71 0 0 1 .055.736c-.21.416-.391.848-.535 1.289a.71.71 0 0 1-.56.48l-2.668.443c-.131.021-.2.078-.21.095v3.496a.711.711 0 0 1-1.422 0v-3.489c0-.75.575-1.368 1.399-1.505l2.252-.372q.13-.348.285-.686l-1.33-1.857c-.487-.678-.455-1.523.075-2.054l2.553-2.553c.53-.53 1.375-.561 2.054-.075l1.857 1.33q.338-.155.686-.285l.373-2.252c.136-.824.755-1.398 1.504-1.398h3.61c.75 0 1.37.574 1.505 1.398l.372 2.252q.348.13.686.285l1.857-1.33c.678-.486 1.523-.455 2.054.075l2.553 2.553c.53.53.561 1.376.075 2.054l-1.33 1.857q.155.338.285.686l2.252.373c.824.136 1.398.755 1.398 1.504v3.489a.71.71 0 0 1-.71.71"/><path fill="#fff" d="M25.687 20.76a.71.71 0 0 1-.687-.53 7.285 7.285 0 0 1 7.037-9.144 7.285 7.285 0 0 1 7.037 9.145.712.712 0 0 1-1.375-.363 5.86 5.86 0 0 0-5.662-7.358 5.863 5.863 0 0 0-5.662 7.358.71.71 0 0 1-.689.892"/></svg>