<svg xmlns="http://www.w3.org/2000/svg" width="64" height="64" fill="none"><path fill="#fff" d="M56.32 9.747a2.297 2.297 0 0 0 2.298-2.298A2.297 2.297 0 0 0 56.32 5.15a2.297 2.297 0 0 0-2.298 2.299 2.303 2.303 0 0 0 2.298 2.298m0-2.958a.67.67 0 0 1 0 1.338.66.66 0 0 1-.67-.669c0-.378.301-.669.67-.669"/><path fill="#fff" d="M58.87 1.436H11.626a3.265 3.265 0 0 0-3.258 3.258v4.974H5.13a3.265 3.265 0 0 0-3.258 3.259V53.78a3.265 3.265 0 0 0 3.258 3.258h21.654v4.713a.82.82 0 0 0 .814.814H42.9a.82.82 0 0 0 .815-.814v-4.713h8.659a3.265 3.265 0 0 0 3.258-3.258v-4.975h3.239a3.265 3.265 0 0 0 3.258-3.258V4.694a3.265 3.265 0 0 0-3.258-3.258M9.997 4.694c0-.902.737-1.63 1.63-1.63H58.87c.902 0 1.629.738 1.629 1.63v7.146H29.585l-3.636-3.772a1.5 1.5 0 0 0-1.067-.455h-8.01a1.49 1.49 0 0 0-1.483 1.483v2.744H9.997zM5.13 55.419c-.902 0-1.629-.737-1.629-1.63V12.926c0-.901.737-1.629 1.63-1.629h3.238v34.26a3.265 3.265 0 0 0 3.258 3.258h17.688c.32.62.465 1.319.407 2.036h-1.26c-.932 0-1.678.757-1.678 1.678v2.89zm29.314-17.057a.92.92 0 0 1 .805-.476.91.91 0 0 1 .912.912.92.92 0 0 1-.456.795c-.31.184-.679.165-1.057-.048-.049-.03-.097-.068-.116-.117-.31-.494-.185-.882-.088-1.066m-.01-1.95a2.52 2.52 0 0 0-1.405 1.164c-.466.834-.408 1.852.135 2.725.175.271.408.495.689.66.446.252.93.387 1.406.387.446 0 .882-.116 1.27-.34a2.57 2.57 0 0 0 1.26-2.2 2.54 2.54 0 0 0-1.725-2.395v-4.19l7.204 13.004c-.01.01-.019.03-.048.039-2.55.66-4.218 3.045-4.083 5.585H31.37c.146-2.55-1.532-4.935-4.13-5.663l7.195-12.965zm7.651 24.524H28.412l.048-8.465h13.576c.029 0 .048.02.048.048zm11.918-7.156c0 .902-.737 1.629-1.63 1.629h-8.658v-2.89c0-.93-.757-1.677-1.678-1.677h-1.26a3.85 3.85 0 0 1 .407-2.037h12.819zm4.868-6.594H42.763a3.5 3.5 0 0 1 .854-.35 1.73 1.73 0 0 0 1.144-.979 1.66 1.66 0 0 0-.078-1.464l-8.34-15.02a1.23 1.23 0 0 0-1.085-.65c-.466.01-.883.242-1.106.64l-8.349 15.03a1.68 1.68 0 0 0-.068 1.474c.204.485.62.834 1.135.97.31.077.582.203.853.349H11.626c-.902 0-1.629-.737-1.629-1.63V13.47h5.527a1.49 1.49 0 0 0 1.484-1.484V9.242h7.806l3.637 3.772c.28.29.669.456 1.066.456H60.5v32.077c0 .902-.727 1.639-1.63 1.639"/><path fill="#fff" d="M50.773 9.747a2.297 2.297 0 0 0 2.298-2.298 2.297 2.297 0 0 0-2.298-2.299 2.297 2.297 0 0 0-2.298 2.299 2.297 2.297 0 0 0 2.298 2.298m0-2.958a.67.67 0 0 1 0 1.338.66.66 0 0 1-.67-.669c0-.378.301-.669.67-.669M45.216 9.747a2.297 2.297 0 0 0 2.298-2.298 2.297 2.297 0 0 0-2.298-2.299 2.297 2.297 0 0 0-2.298 2.299 2.297 2.297 0 0 0 2.298 2.298m0-2.958a.67.67 0 0 1 0 1.338.66.66 0 0 1-.669-.669c0-.378.3-.669.67-.669M50.948 20.568a3.24 3.24 0 0 0-.892 1.716H38.662v-1.28a1.58 1.58 0 0 0-1.58-1.58h-3.676a1.58 1.58 0 0 0-1.58 1.58v1.28H20.44a3.23 3.23 0 0 0-.892-1.726c-1.231-1.212-3.336-1.192-4.538.01-.611.611-.94 1.416-.94 2.27 0 .862.339 1.677.94 2.268.61.63 1.425.95 2.269.95.533 0 1.076-.126 1.59-.387a2.86 2.86 0 0 0 1.28-1.32q.102-.217.175-.436h7.903c-4.296 2.095-7.535 6.032-8.66 10.784h-1.26a1.58 1.58 0 0 0-1.58 1.58v3.675c0 .873.707 1.58 1.58 1.58h3.675a1.58 1.58 0 0 0 1.58-1.58v-3.675a1.58 1.58 0 0 0-1.58-1.58h-.737c1.358-5.12 5.46-9.135 10.609-10.376v.349c0 .873.707 1.58 1.58 1.58h3.675a1.58 1.58 0 0 0 1.58-1.58v-.35c5.14 1.242 9.242 5.257 10.61 10.377h-.67a1.58 1.58 0 0 0-1.58 1.58v3.675c0 .873.708 1.58 1.58 1.58h3.675a1.58 1.58 0 0 0 1.581-1.58v-3.675a1.58 1.58 0 0 0-1.58-1.58h-1.329a16.22 16.22 0 0 0-8.66-10.784h7.923c.155.447.407.854.747 1.193.61.63 1.425.95 2.269.95.533 0 1.076-.126 1.59-.387a2.86 2.86 0 0 0 1.28-1.32c.63-1.328.407-2.772-.591-3.79-1.27-1.203-3.375-1.193-4.587.01m-32.281 3.093c-.117.233-.31.437-.543.553-.844.427-1.571.155-1.969-.262-.3-.29-.465-.688-.465-1.115 0-.417.165-.814.465-1.125.3-.3.698-.465 1.125-.465.417 0 .824.165 1.115.456.504.523.601 1.25.272 1.958m3.297 16.243-3.627.048-.049-3.626h3.627zm30.312 0-3.626.048-.049-3.626h3.627zM33.464 24.68l-.02-1.222a.8.8 0 0 0 .01-.272v-.01c0-.028.02-.048.02-.077 0-.049-.02-.087-.03-.126l-.028-1.91h3.626l.03 1.91c-.01.048-.03.087-.03.136 0 .029.01.048.02.077v.01a.8.8 0 0 0 .02.349l.019 1.096zm21.15-1.019c-.117.233-.311.437-.544.553-.843.427-1.57.155-1.968-.262-.3-.29-.466-.688-.466-1.115 0-.417.165-.814.466-1.125.3-.3.698-.465 1.125-.465.417 0 .824.165 1.115.456.504.523.601 1.25.271 1.958"/></svg>