<svg xmlns="http://www.w3.org/2000/svg" width="64" height="64" fill="none"><path fill="#fff" d="M25.911 50.92a.98.98 0 1 0 0-1.96.98.98 0 0 0 0 1.96"/><path fill="#fff" d="M60.083 27.86H50.59v-1.6c.94-.242 1.852-.591 2.715-1.076l2.037 1.231c.242.146.514.223.785.223.388 0 .776-.155 1.067-.446l1.377-1.377a1.51 1.51 0 0 0 .223-1.852l-1.232-2.036c.437-.786.786-1.61 1.028-2.473l2.308-.572a1.504 1.504 0 0 0 1.144-1.464v-1.95c0-.697-.475-1.299-1.144-1.464l-2.308-.572a11 11 0 0 0-1.028-2.472l1.232-2.037a1.51 1.51 0 0 0-.223-1.852l-1.377-1.387a1.51 1.51 0 0 0-1.852-.223l-2.037 1.232a11.5 11.5 0 0 0-2.472-1.028l-.573-2.308a1.495 1.495 0 0 0-1.464-1.144h-1.959c-.698 0-1.3.475-1.464 1.144l-.572 2.308c-.863.242-1.687.582-2.473 1.028L40.292 4.46a1.51 1.51 0 0 0-1.852.223l-1.377 1.377a1.5 1.5 0 0 0-.223 1.853L38.07 9.95c-.446.785-.785 1.61-1.028 2.473l-2.307.572a1.495 1.495 0 0 0-1.145 1.464v1.949c0 .048.02.087.02.126H3.919a2.68 2.68 0 0 0-2.677 2.677v32.96a2.68 2.68 0 0 0 2.677 2.676h14.138v2.589h-3.268a2.68 2.68 0 0 0-2.676 2.676v1.95c0 .397.33.727.727.727h47.243a2.68 2.68 0 0 0 2.677-2.677V30.537a2.68 2.68 0 0 0-2.677-2.677m-12.17-11.316h-4.877a4.8 4.8 0 0 1-.145-1.106 4.933 4.933 0 0 1 4.926-4.926 4.933 4.933 0 0 1 4.926 4.926 4.88 4.88 0 0 1-2.153 4.054v-.272a2.68 2.68 0 0 0-2.676-2.676M35.086 14.41l2.724-.67a.73.73 0 0 0 .534-.543 9.6 9.6 0 0 1 1.192-2.86.71.71 0 0 0 0-.757L38.092 7.11l1.454-1.387 2.405 1.455a.71.71 0 0 0 .756 0 9.7 9.7 0 0 1 2.861-1.193.74.74 0 0 0 .543-.534l.727-2.773 2.008.039.669 2.725a.73.73 0 0 0 .543.533 9.6 9.6 0 0 1 2.86 1.193.71.71 0 0 0 .757 0l2.472-1.445 1.387 1.455L56.08 9.58a.73.73 0 0 0 0 .757c.552.892.95 1.852 1.192 2.86a.74.74 0 0 0 .534.543l2.773.728-.039 2.007-2.725.669a.73.73 0 0 0-.533.543 9.6 9.6 0 0 1-1.193 2.86.71.71 0 0 0 0 .757l1.445 2.473-1.454 1.386-2.405-1.454a.73.73 0 0 0-.757 0 9.5 9.5 0 0 1-2.337 1.037V21.15c2.202-1.067 3.608-3.249 3.608-5.721 0-3.52-2.861-6.381-6.381-6.381s-6.38 2.86-6.38 6.38q.002.554.106 1.106h-6.235a.66.66 0 0 0-.262-.126zM3.919 53.392a1.23 1.23 0 0 1-1.222-1.222v-5.682h26.22v6.904zm24.998 1.455v2.589h-9.406v-2.59zm-15.35 6.487v-1.222c0-.669.553-1.221 1.222-1.221h14.138v1.221c0 .446.116.854.31 1.222zm15.35-30.798v14.488H2.697V19.22c0-.679.552-1.222 1.222-1.222h43.995c.669 0 1.221.553 1.221 1.222v8.64H31.595a2.68 2.68 0 0 0-2.677 2.677m32.388 29.576a1.23 1.23 0 0 1-1.222 1.222h-28.49a1.23 1.23 0 0 1-1.221-1.222V35.754h30.933zm0-25.813H30.372v-3.753c0-.679.553-1.222 1.222-1.222h28.49c.678 0 1.221.553 1.221 1.222z"/><path fill="#fff" d="M10.659 25.592a.73.73 0 0 0-1.028 0l-3.297 3.297a.73.73 0 0 0 0 1.028l3.297 3.297a.72.72 0 0 0 .514.213.72.72 0 0 0 .514-.213.73.73 0 0 0 0-1.028l-2.783-2.783 2.783-2.783a.714.714 0 0 0 0-1.028M20.635 25.592a.73.73 0 0 0-1.028 0 .73.73 0 0 0 0 1.028l2.783 2.783-2.783 2.783a.73.73 0 0 0 0 1.028.72.72 0 0 0 .514.213.72.72 0 0 0 .514-.213l3.297-3.297a.726.726 0 0 0 0-1.028zM18.367 22.468a.74.74 0 0 0-.97.35l-5.856 12.557a.73.73 0 0 0 .66 1.037.73.73 0 0 0 .659-.416l5.857-12.558a.727.727 0 0 0-.35-.97M33.544 54.74h9.348c.397 0 .727-.33.727-.728a.733.733 0 0 0-.727-.727h-9.348a.733.733 0 0 0-.728.727c0 .398.33.728.728.728M33.544 58.89h4.47c.398 0 .727-.33.727-.727a.733.733 0 0 0-.727-.727h-4.47a.733.733 0 0 0-.728.727c0 .397.33.727.728.727M58.134 53.285h-9.348a.733.733 0 0 0-.727.727c0 .398.33.728.727.728h9.348c.397 0 .727-.33.727-.728a.733.733 0 0 0-.727-.727M53.256 57.436h-4.47a.733.733 0 0 0-.727.727c0 .397.33.727.727.727h4.47c.398 0 .727-.33.727-.727a.733.733 0 0 0-.727-.727M32.844 49.999c.01.048.01.106.03.145v.01c.038.077.087.145.135.203.02.02.03.03.049.04a1 1 0 0 0 .155.106c.02.01.048.02.068.029.077.029.165.048.252.048h24.591c.088 0 .175-.019.252-.048.02-.01.049-.02.068-.03a1 1 0 0 0 .155-.106c.02-.02.04-.029.049-.039a.6.6 0 0 0 .136-.203v-.01c.02-.039.02-.087.029-.126.01-.049.029-.097.029-.155V38.915c0-.049-.02-.097-.03-.155-.009-.039-.009-.087-.028-.126v-.01c-.01-.03-.04-.049-.059-.078-.029-.048-.058-.106-.106-.145a.4.4 0 0 0-.107-.068.6.6 0 0 0-.136-.078c-.048-.019-.106-.019-.155-.029-.038-.01-.068-.019-.116-.019H33.543c-.04 0-.068.02-.107.02-.058.01-.117.01-.165.029-.049.019-.078.048-.116.077-.04.03-.078.049-.117.078a.44.44 0 0 0-.106.155c-.02.029-.04.048-.049.077v.01c-.02.049-.02.097-.029.145-.01.049-.03.088-.03.136v10.958c-.009.02.01.068.02.106m4.121-.864 8.873-3.946 8.873 3.947zm20.442-.397-9.775-4.354 9.775-4.354zm-2.696-9.086-8.873 3.947-8.873-3.947zm-20.441.388 9.774 4.354-9.774 4.354zM33.806 30.828a.975.975 0 1 0 0 1.95.975.975 0 1 0 0-1.95M37.315 30.828a.975.975 0 1 0 0 1.95.975.975 0 1 0 0-1.95M40.825 30.828a.975.975 0 1 0 0 1.95.975.975 0 1 0 0-1.95"/></svg>