<svg xmlns="http://www.w3.org/2000/svg" width="60" height="60" fill="none"><g fill="#FDBC33" clip-path="url(#a)"><path d="M48.817 45.016q-3.096 0-5.573-1.355-2.477-1.394-3.91-3.909-1.392-2.515-1.393-5.806 0-3.29 1.432-5.805 1.471-2.516 3.987-3.87 2.516-1.395 5.612-1.394 3.096 0 5.612 1.393 2.516 1.355 3.948 3.87 1.47 2.517 1.471 5.807 0 3.29-1.51 5.805a10.3 10.3 0 0 1-4.025 3.91q-2.515 1.353-5.65 1.354m0-4.722q1.47 0 2.748-.697 1.316-.735 2.09-2.167.775-1.433.775-3.483 0-3.058-1.626-4.684-1.587-1.664-3.91-1.664-2.32 0-3.908 1.664-1.548 1.626-1.548 4.683t1.509 4.722q1.548 1.626 3.87 1.626M30.876 20.67q-1.432 0-2.4-.89-.93-.929-.93-2.284t.93-2.245q.968-.93 2.4-.929 1.431 0 2.36.93.968.889.968 2.244 0 1.354-.968 2.284-.929.89-2.36.89m2.67 2.554v21.443h-5.419V23.224zM9.444 17.648q4.257 0 7.47 1.665 3.251 1.665 4.993 4.76 1.78 3.058 1.78 7.122t-1.78 7.122Q20.165 41.335 16.914 43q-3.213 1.665-7.47 1.664H0V17.648zm-.194 22.41q4.258 0 6.58-2.322t2.323-6.54q0-4.22-2.323-6.58-2.322-2.4-6.58-2.4H5.42v17.842z"/></g><defs><clipPath id="a"><path fill="#fff" d="M0 0h60v60H0z"/></clipPath></defs></svg>