<svg xmlns="http://www.w3.org/2000/svg" width="60" height="60" fill="none"><path fill="#282928" d="M53.563 49.875a.94.94 0 0 1-.938-.937v-30a.94.94 0 0 0-.937-.938H8.563a.94.94 0 0 0-.938.938v30a.938.938 0 0 1-1.875 0v-30a2.816 2.816 0 0 1 2.813-2.813h43.125a2.816 2.816 0 0 1 2.812 2.813v30c0 .517-.42.937-.937.937"/><path fill="#282928" d="M23.673 40.83a.93.93 0 0 1-.617-.233l-5.735-5.017a.94.94 0 0 1-.321-.706.94.94 0 0 1 .32-.705l5.736-5.017a.936.936 0 0 1 1.322.088c.343.39.302.98-.088 1.324l-4.927 4.31 4.927 4.313a.938.938 0 0 1-.617 1.643M27.566 43.494a.937.937 0 0 1-.889-1.234L31.796 26.9a.936.936 0 1 1 1.78.593l-5.12 15.36a.94.94 0 0 1-.89.642M36.579 40.83a.936.936 0 0 1-.617-1.644l4.927-4.31-4.927-4.313a.938.938 0 0 1 1.233-1.412l5.736 5.017a.94.94 0 0 1 0 1.412l-5.735 5.018a.92.92 0 0 1-.617.232M53.563 57.375H6.688A4.693 4.693 0 0 1 2 52.688c0-.518.42-.938.938-.938h20.625a.938.938 0 0 1 0 1.875H4.035A2.82 2.82 0 0 0 6.688 55.5h46.875a2.82 2.82 0 0 0 2.65-1.875H36.689a.938.938 0 0 1 0-1.875h20.624c.518 0 .938.42.938.938a4.693 4.693 0 0 1-4.687 4.687M41.375 18a.94.94 0 0 1-.938-.937v-2.565l-1.908-.42a.94.94 0 0 1-.711-.698 8.3 8.3 0 0 0-.977-2.359.93.93 0 0 1 .013-.99L37.91 8.38l-.977-.976-1.652 1.057a.93.93 0 0 1-.99.011 7.8 7.8 0 0 0-2.342-.956.94.94 0 0 1-.714-.714l-.422-1.926h-1.376l-.422 1.926a.94.94 0 0 1-.715.714 7.8 7.8 0 0 0-2.341.956.94.94 0 0 1-.99-.011l-1.652-1.058-.977.977 1.055 1.652a.94.94 0 0 1 .014.99 7.8 7.8 0 0 0-.957 2.344.94.94 0 0 1-.716.713l-2.662.58a.93.93 0 0 1-1.114-.715.933.933 0 0 1 .716-1.114l2.098-.46a9.6 9.6 0 0 1 .74-1.801l-1.158-1.812a.936.936 0 0 1 .126-1.168l2.044-2.044a.94.94 0 0 1 1.168-.127l1.81 1.159a9.6 9.6 0 0 1 1.805-.74l.459-2.1A.93.93 0 0 1 28.681 3h2.886c.44 0 .821.308.915.737l.46 2.1c.608.178 1.212.426 1.803.739l1.811-1.16a.94.94 0 0 1 1.168.128l2.044 2.044a.936.936 0 0 1 .126 1.168l-1.16 1.812q.467.876.749 1.801l2.09.46a.935.935 0 0 1 .74.915v3.319c0 .517-.42.937-.938.937"/><path fill="#282928" d="M25.807 17.953a.94.94 0 0 1-.863-.572 5.632 5.632 0 0 1 5.18-7.819 5.632 5.632 0 0 1 5.185 7.814.94.94 0 0 1-1.228.5.94.94 0 0 1-.5-1.228 3.754 3.754 0 0 0-3.456-5.21 3.754 3.754 0 0 0-3.456 5.212.937.937 0 0 1-.862 1.303M40.438 48a.94.94 0 0 1-.938-.937c0-.518.42-1.032.938-1.032.517 0 .937.327.937.844v.188c0 .517-.42.937-.937.937M44.188 48a.94.94 0 0 1-.938-.937c0-.518.42-1.032.938-1.032.517 0 .937.327.937.844v.188c0 .517-.42.937-.937.937M47.938 48a.94.94 0 0 1-.938-.937c0-.518.42-1.032.938-1.032.517 0 .937.327.937.844v.188c0 .517-.42.937-.937.937"/></svg>