<svg xmlns="http://www.w3.org/2000/svg" width="60" height="60" fill="none"><path fill="#282928" fill-rule="evenodd" d="M10.945 28.057a1.97 1.97 0 0 1 1.968 1.966 1.968 1.968 0 0 1-3.934 0c0-1.083.882-1.966 1.966-1.966M23.63 15.551c1.085 0 1.967.881 1.967 1.965a1.97 1.97 0 0 1-1.967 1.966 1.97 1.97 0 0 1-1.967-1.966c0-1.084.882-1.965 1.967-1.965m12.7 12.506a1.97 1.97 0 0 1 1.967 1.966 1.97 1.97 0 0 1-1.968 1.965 1.97 1.97 0 0 1-1.967-1.965 1.97 1.97 0 0 1 1.967-1.966M49.01 15.551c1.084 0 1.967.881 1.967 1.965a1.97 1.97 0 0 1-1.967 1.966 1.97 1.97 0 0 1-1.968-1.966c0-1.084.883-1.965 1.968-1.965M10.945 33.804c2.95 0 4.743-3.225 3.253-5.713l7.455-7.352a3.77 3.77 0 0 0 3.953 0l7.468 7.354c-1.486 2.495.31 5.711 3.254 5.711 2.94 0 4.746-3.212 3.253-5.713l7.454-7.352c2.504 1.537 5.76-.265 5.76-3.223a3.787 3.787 0 0 0-3.784-3.78c-2.94 0-4.746 3.21-3.253 5.712l-7.454 7.351a3.77 3.77 0 0 0-3.954.001l-7.467-7.355c1.489-2.493-.31-5.71-3.254-5.71-2.938 0-4.745 3.208-3.253 5.713l-7.455 7.351c-2.498-1.535-5.76.261-5.76 3.224a3.79 3.79 0 0 0 3.784 3.781m35.108 18.38v-25.14h5.965v25.14zm-12.69 0V38.62h5.964v13.563zm-12.692 0V29.24h5.967v22.943zm-12.69 0v-10.86h5.965v10.86zm7.784-3.716h3.088v3.716h-3.088zm12.69 0h3.09v3.716h-3.09zm12.69 0h3.09v3.716h-3.09zM4.783 46.652h1.38v-6.235a.91.91 0 0 1 .91-.908h7.783a.91.91 0 0 1 .909.908v6.235h3.088V28.333c0-.503.408-.908.91-.908h7.783c.502 0 .91.405.91.908v18.319h3.088v-8.94c0-.501.407-.908.91-.908h7.782c.504 0 .91.407.91.908v8.94h3.089V26.136c0-.502.407-.908.91-.908h7.782c.502 0 .91.406.91.908v20.516h1.38a2.35 2.35 0 0 0 2.35-2.349V10.164a2.353 2.353 0 0 0-2.35-2.348H4.783a2.354 2.354 0 0 0-2.352 2.348v34.14a2.353 2.353 0 0 0 2.352 2.348m54.308 5.532h-5.254v-3.716h1.38a4.17 4.17 0 0 0 4.169-4.165V10.164A4.17 4.17 0 0 0 55.216 6H4.784a4.17 4.17 0 0 0-4.17 4.164v34.14a4.17 4.17 0 0 0 4.17 4.164h1.38v3.716H.91a.908.908 0 1 0 0 1.816H59.09a.909.909 0 0 0 0-1.816" clip-rule="evenodd"/></svg>