<svg xmlns="http://www.w3.org/2000/svg" width="60" height="60" fill="none"><path fill="#282928" d="m55.864 38.154-3.02-.604-6.12-3.671a14.07 14.07 0 0 0-7.234-2.004h-8.976c-2.339.002-4.64.585-6.698 1.697L7.87 42.21a10.34 10.34 0 0 0-5.093 6.566l-.874 3.497a.938.938 0 0 0 .91 1.164h5.704a5.624 5.624 0 0 0 11.09 0h20.785a5.624 5.624 0 0 0 11.09 0h.08a6.57 6.57 0 0 0 6.563-6.562v-5.963a2.82 2.82 0 0 0-2.26-2.758m-47.676 6.05c.16.172.25.4.25.635V45a.94.94 0 0 1-.938.938H6.255a8.4 8.4 0 0 1 1.933-1.734m5.874 12.046a3.75 3.75 0 1 1 0-7.5 3.75 3.75 0 0 1 0 7.5m31.876 0a3.75 3.75 0 1 1 0-7.5 3.75 3.75 0 0 1 0 7.5m10.312-9.375a4.693 4.693 0 0 1-4.687 4.688h-.08a5.624 5.624 0 0 0-11.09 0H19.607a5.624 5.624 0 0 0-11.09 0H4.012l.583-2.332q.185-.73.496-1.419H7.5A2.815 2.815 0 0 0 10.313 45v-.16a2.8 2.8 0 0 0-.474-1.564l14.87-8.055a12.2 12.2 0 0 1 5.805-1.471h8.976c2.209 0 4.376.6 6.27 1.737l6.258 3.754a1 1 0 0 0 .298.116l2.189.438-1.181 1.18a2.8 2.8 0 0 0-.824 1.99v.16a2.816 2.816 0 0 0 2.813 2.813h.937zm0-2.812h-.937a.94.94 0 0 1-.938-.938v-.16a.93.93 0 0 1 .275-.664l1.58-1.58q.02.095.02.191z"/><path fill="#282928" d="M15 51.563h-1.875v1.874H15zM46.875 51.563H45v1.874h1.875zM45.932 37.237a10.3 10.3 0 0 0-5.537-1.612h-9.736c-1.825 0-3.618.485-5.196 1.405l-9.06 5.285a.938.938 0 0 0 .472 1.748h27.069a3.702 3.702 0 0 0 1.987-6.826m-11.245 4.95H20.344l6.065-3.538A8.45 8.45 0 0 1 30.66 37.5h4.028zm11.011-1.316a1.77 1.77 0 0 1-1.754 1.316h-7.382V37.5h3.833c1.605 0 3.176.457 4.53 1.32a1.77 1.77 0 0 1 .773 2.051M34.688 45.938h-3.75v1.874h3.75zM42.188 22.5a4.687 4.687 0 1 0 0-9.374 4.687 4.687 0 0 0 0 9.374m0-7.5a2.813 2.813 0 1 1 0 5.625 2.813 2.813 0 0 1 0-5.625"/><path fill="#282928" d="m37.2 8.888-1.438-.881a.94.94 0 0 0-1.153.136l-2.09 2.09a.94.94 0 0 0-.137 1.154l.88 1.437a1.475 1.475 0 0 1-.914 2.208l-1.63.39a.94.94 0 0 0-.718.912v2.957a.94.94 0 0 0 .719.912l1.629.39a1.477 1.477 0 0 1 .915 2.208l-.881 1.437a.94.94 0 0 0 .136 1.153l2.09 2.09a.94.94 0 0 0 1.154.137l1.437-.88a1.475 1.475 0 0 1 2.208.914l.39 1.63a.94.94 0 0 0 .912.718h2.957a.94.94 0 0 0 .912-.719l.39-1.629a1.477 1.477 0 0 1 2.208-.915l1.437.881a.94.94 0 0 0 1.153-.136l2.09-2.09a.94.94 0 0 0 .137-1.154l-.88-1.437a1.475 1.475 0 0 1 .914-2.208l1.63-.39a.94.94 0 0 0 .718-.912v-2.957a.94.94 0 0 0-.719-.912l-1.629-.39a1.477 1.477 0 0 1-.915-2.208l.881-1.437a.94.94 0 0 0-.136-1.153l-2.09-2.09a.94.94 0 0 0-1.154-.137l-1.437.88a1.476 1.476 0 0 1-2.208-.914l-.39-1.63a.94.94 0 0 0-.912-.718H40.71a.94.94 0 0 0-.912.719l-.39 1.629a1.476 1.476 0 0 1-2.208.915m2.054 1.837A3.36 3.36 0 0 0 41.23 8.41l.218-.91h1.479l.218.91a3.352 3.352 0 0 0 5.01 2.076l.808-.495 1.046 1.046-.495.808a3.35 3.35 0 0 0 2.076 5.01l.91.218v1.479l-.91.218a3.352 3.352 0 0 0-2.076 5.01l.494.808-1.045 1.046-.808-.495a3.35 3.35 0 0 0-5.01 2.076l-.218.91h-1.479l-.218-.91a3.352 3.352 0 0 0-5.01-2.076l-.808.495-1.046-1.046.495-.808a3.35 3.35 0 0 0-2.076-5.01l-.91-.218v-1.479l.91-.218a3.352 3.352 0 0 0 2.076-5.01l-.494-.808 1.045-1.046.808.495a3.36 3.36 0 0 0 3.034.239M9.737 23.25c.416.415.69.948.786 1.527l.74 4.44a.94.94 0 0 0 .925.783h7.5a.94.94 0 0 0 .924-.783l.74-4.44c.096-.579.37-1.113.786-1.526l1.313-1.314a9.555 9.555 0 0 0-6.756-16.312H15.18a9.556 9.556 0 0 0-6.756 16.312zm9.156 4.875h-5.911l-.47-2.812h6.85zM15.18 7.5h1.515a7.68 7.68 0 0 1 5.43 13.111l-1.313 1.314a4.7 4.7 0 0 0-1.014 1.512h-7.721a4.7 4.7 0 0 0-1.014-1.512L9.75 20.61A7.68 7.68 0 0 1 15.18 7.5"/><path fill="#282928" d="M14.063 17.812c.67 0 1.327-.18 1.903-.52l3.059 3.058 1.325-1.326-3.058-3.059a3.75 3.75 0 1 0-3.23 1.847m0-5.625a1.874 1.874 0 1 1 0 3.749 1.874 1.874 0 0 1 0-3.749M55.687 35.432l1.835.386a28.3 28.3 0 0 0-.779-14.546l-1.782.58a26.44 26.44 0 0 1 .726 13.58M30 3.75a26.2 26.2 0 0 1 8.146 1.288l.581-1.782a28.26 28.26 0 0 0-18.426.336l.646 1.76A26.2 26.2 0 0 1 30 3.75M6.095 40.861a26.34 26.34 0 0 1-.535-20.46l-1.745-.686a28.21 28.21 0 0 0 .574 21.923z"/></svg>