<svg xmlns="http://www.w3.org/2000/svg" width="60" height="60" fill="none"><path fill="#282928" d="m56.13 45.256-3.052-15.32v-8.839a.94.94 0 0 0-.937-.937h-3.274a21.1 21.1 0 0 0-2.587-6.241l2.317-2.317a.937.937 0 0 0 0-1.325l-5.678-5.678a.94.94 0 0 0-1.325 0l-2.317 2.316a21.1 21.1 0 0 0-6.24-2.587V1.055a.94.94 0 0 0-.938-.938h-8.03a.94.94 0 0 0-.937.938v3.273a21.1 21.1 0 0 0-6.241 2.587L14.575 4.6a.937.937 0 0 0-1.326 0l-5.677 5.678a.94.94 0 0 0 0 1.325l2.316 2.317a21.1 21.1 0 0 0-2.587 6.24H4.027a.94.94 0 0 0-.937.938v8.839L.038 45.256c-.1.505.002 1.02.289 1.45s.723.722 1.228.823l5 .996a1.93 1.93 0 0 0 2.272-1.518l.002-.012 11.78 11.78c.74.74 1.71 1.11 2.682 1.11a3.78 3.78 0 0 0 3.67-2.836l1.575 1.575a3.77 3.77 0 0 0 2.683 1.108 3.77 3.77 0 0 0 2.682-1.108 3.77 3.77 0 0 0 .989-1.73 3.77 3.77 0 0 0 2.571 1.002 3.77 3.77 0 0 0 2.683-1.108 3.77 3.77 0 0 0 1.1-2.938 3.79 3.79 0 0 0 2.94-1.101c.991-.992 1.336-2.47.94-3.79l2.174-2.173.044.221a1.936 1.936 0 0 0 2.273 1.518l4.998-.996c.505-.1.942-.393 1.229-.823s.39-.945.289-1.45M8.057 22.035a.94.94 0 0 0 .919-.755 19.3 19.3 0 0 1 2.89-6.97.94.94 0 0 0-.118-1.184L9.56 10.94l4.352-4.351 2.187 2.187a.94.94 0 0 0 1.183.117 19.3 19.3 0 0 1 6.971-2.89.94.94 0 0 0 .754-.919v-3.09h6.154v3.09c0 .447.316.832.755.92a19.3 19.3 0 0 1 6.97 2.89c.372.247.867.198 1.183-.118l2.188-2.187 4.351 4.352-2.187 2.187a.94.94 0 0 0-.117 1.183 19.3 19.3 0 0 1 2.89 6.97.94.94 0 0 0 .919.755h3.09v2.369a1.9 1.9 0 0 0-1.23-.164l-4.998.996a1.935 1.935 0 0 0-1.518 2.272l.038.19a12.6 12.6 0 0 1-2.333.545c.243-1.021.37-2.069.37-3.131 0-7.415-6.033-13.447-13.448-13.447-7.414 0-13.447 6.032-13.447 13.447q0 .834.103 1.659h-2.026a1.935 1.935 0 0 0-1.52-1.535l-4.999-.996a1.9 1.9 0 0 0-1.23.164v-2.37zm15.602 4.736h-7.027a12 12 0 0 1-.12-1.66c0-6.38 5.192-11.571 11.573-11.571 6.38 0 11.572 5.19 11.572 11.572 0 1.085-.151 2.153-.446 3.184-2.01-.152-4.256-.98-6.779-3.061-2.086-1.721-4.805-1.777-6.766-.14zM6.92 46.686l-4.998-.996a.06.06 0 0 1-.036-.025.06.06 0 0 1-.01-.042l3.885-19.5a.06.06 0 0 1 .025-.035.06.06 0 0 1 .032-.01h.01l5 .997a.06.06 0 0 1 .044.067L6.988 46.641a.06.06 0 0 1-.068.045m35.937 4.737a1.92 1.92 0 0 1-2.713 0l-8.505-8.504a.937.937 0 0 0-1.325 1.326l8.504 8.504c.36.36.558.842.558 1.356a1.904 1.904 0 0 1-1.915 1.916c-.515 0-.996-.199-1.356-.559l-8.986-8.986a.938.938 0 0 0-1.326 1.326l6.782 6.783a1.92 1.92 0 0 1 0 2.713c-.36.36-.842.559-1.356.559s-.997-.199-1.357-.559l-7.264-7.264a.938.938 0 0 0-1.326 1.325l3.376 3.377c.36.36.559.842.559 1.357a1.903 1.903 0 0 1-1.916 1.915c-.514 0-.996-.199-1.356-.559L9.27 44.784l3.215-16.138h8.928l-2.45 2.046c-1.132.944-1.618 2.234-1.334 3.537l2.034 9.317a.937.937 0 0 0 1.14.71c2.46-.605 4.104-1.792 5.03-3.627.797-1.582.962-3.46 1.122-5.276q.031-.36.065-.724l.001-.006c.36-.092 1.8.25 3.991 2.242l12.236 12.414c.32.72.168 1.585-.391 2.144M44.03 47.4 32.329 35.53l-.036-.035c-2.36-2.15-4.59-3.128-5.964-2.616-.659.246-1.086.806-1.172 1.537l-.003.023-.067.75c-.293 3.321-.51 5.795-3.808 6.972l-1.818-8.331c-.17-.778.288-1.353.703-1.7l6.702-5.596c1.247-1.04 3.004-.982 4.372.147 5.083 4.194 9.344 3.9 12.625 2.868l2.994 15.025zm10.252-1.736a.06.06 0 0 1-.035.025l-4.999.996a.06.06 0 0 1-.068-.045l-3.884-19.5a.06.06 0 0 1 .045-.067l4.999-.996a.06.06 0 0 1 .042.01q.02.014.025.035l3.885 19.5a.06.06 0 0 1-.01.042"/></svg>