<svg xmlns="http://www.w3.org/2000/svg" width="60" height="60" fill="none"><path fill="#282928" d="M47.613 11.708a3.9 3.9 0 0 0 3.894-3.895 3.9 3.9 0 0 0-3.895-3.894 3.9 3.9 0 0 0-3.894 3.894 3.9 3.9 0 0 0 3.894 3.895m0-6.148a2.256 2.256 0 0 1 2.254 2.253 2.257 2.257 0 0 1-2.254 2.255 2.257 2.257 0 0 1-2.255-2.255 2.256 2.256 0 0 1 2.255-2.253M4.91 19.312c0-4.12 3.353-7.473 7.473-7.473s7.472 3.352 7.472 7.473c0 .822-.422 1.97-2.435 2.767a.82.82 0 0 1-1.065-.46.82.82 0 0 1 .46-1.065c.523-.208 1.4-.644 1.4-1.242a5.84 5.84 0 0 0-5.832-5.832 5.84 5.84 0 0 0-5.832 5.832c0 .598.877 1.034 1.4 1.241a.82.82 0 1 1-.605 1.526c-2.013-.797-2.436-1.945-2.436-2.767m35.229 0c0-4.12 3.352-7.473 7.472-7.473s7.473 3.352 7.473 7.473c0 .822-.423 1.97-2.435 2.767a.82.82 0 0 1-1.065-.46.82.82 0 0 1 .46-1.065c.523-.208 1.4-.644 1.4-1.242a5.84 5.84 0 0 0-5.832-5.832 5.84 5.84 0 0 0-5.832 5.832c0 .598.876 1.034 1.398 1.241a.82.82 0 1 1-.604 1.526c-2.013-.797-2.435-1.945-2.435-2.767m-18.714-.456c0-4.726 3.846-8.572 8.572-8.572 4.727 0 8.572 3.846 8.572 8.572 0 .992-.554 2.363-3.192 3.26a.82.82 0 0 1-1.04-.512.82.82 0 0 1 .512-1.041c.625-.213 2.08-.804 2.08-1.707a6.94 6.94 0 0 0-6.932-6.931 6.94 6.94 0 0 0-6.931 6.931c0 .903 1.454 1.494 2.08 1.707a.82.82 0 0 1-.529 1.553c-2.638-.896-3.192-2.267-3.192-3.26m37.303 19.586c-.41-1.205-1.385-2.08-2.748-2.463-1.464-.411-3.366-.279-5.654.395L39.935 39.43a4.35 4.35 0 0 0-2.78-2.283l-7.393-1.975c-5.404-3.78-8.298-2.69-12.552-.606a561 561 0 0 1-7.165 3.431l-.19-.434a2.53 2.53 0 0 0-3.326-1.296l-3.96 1.738A2.5 2.5 0 0 0 1.226 39.4a2.5 2.5 0 0 0 .045 1.934l7.083 16.103a2.53 2.53 0 0 0 3.325 1.296l3.96-1.737a2.5 2.5 0 0 0 1.342-1.395 2.5 2.5 0 0 0-.045-1.934l-.69-1.572 3.533-1.721a3.9 3.9 0 0 1 2.912-.25l8.31 2.405a6.7 6.7 0 0 0 1.882.253c2.212 0 4.53-.904 6.48-1.664l.504-.196 15.587-6.02c2.53-.977 4.09-4.056 3.274-6.46M15.453 55.006a.88.88 0 0 1-.471.487l-3.96 1.737a.885.885 0 0 1-1.165-.453L2.773 40.674a.88.88 0 0 1 .455-1.166l3.96-1.737a.886.886 0 0 1 1.165.454l7.083 16.102a.88.88 0 0 1 .017.679m39.41-11.634-15.586 6.02-.51.197c-2.282.89-5.122 1.998-7.31 1.364l-8.309-2.405a5.55 5.55 0 0 0-4.086.35l-3.477 1.694-4.879-11.091a562 562 0 0 0 7.226-3.461c3.967-1.944 6.259-2.802 11.003.557a.8.8 0 0 0 .262.123l7.534 2.013a2.72 2.72 0 0 1 1.922 3.323 2.72 2.72 0 0 1-3.323 1.922l-10.012-2.675a.82.82 0 1 0-.424 1.585l10.013 2.675c1.12.3 2.293.143 3.302-.441a4.32 4.32 0 0 0 2.03-2.642c.13-.492.172-.987.134-1.468l10.417-3.065c3.437-1.011 5.825-.629 6.385 1.023.532 1.566-.613 3.746-2.312 4.402M29.998 9.86a4.41 4.41 0 0 0 4.403-4.403 4.41 4.41 0 0 0-4.403-4.402 4.41 4.41 0 0 0-4.403 4.402 4.41 4.41 0 0 0 4.403 4.403m0-7.165a2.765 2.765 0 0 1 2.763 2.762 2.766 2.766 0 0 1-2.763 2.763 2.766 2.766 0 0 1-2.762-2.763 2.765 2.765 0 0 1 2.762-2.762m-17.614 9.013a3.9 3.9 0 0 0 3.895-3.895 3.9 3.9 0 0 0-3.895-3.894A3.9 3.9 0 0 0 8.49 7.813a3.9 3.9 0 0 0 3.895 3.895m0-6.148a2.256 2.256 0 0 1 2.254 2.253 2.257 2.257 0 0 1-2.254 2.255 2.257 2.257 0 0 1-2.254-2.255 2.256 2.256 0 0 1 2.254-2.253m42.554 18.03a.82.82 0 0 0-.73-.566l-4.266-.26-1.566-3.977a.82.82 0 0 0-1.527 0l-1.566 3.977-4.266.26a.82.82 0 0 0-.472 1.452l3.298 2.718-1.07 4.138a.82.82 0 0 0 1.235.897l3.604-2.296 3.605 2.296a.82.82 0 0 0 1.235-.897l-1.07-4.138 3.297-2.718a.82.82 0 0 0 .258-.886m-5.004 2.67a.82.82 0 0 0-.272.84l.68 2.626-2.289-1.458a.82.82 0 0 0-.881 0l-2.289 1.458.68-2.627a.82.82 0 0 0-.273-.838l-2.094-1.726 2.709-.165a.82.82 0 0 0 .713-.519l.994-2.524.995 2.524a.82.82 0 0 0 .713.519l2.708.165zM19.71 23.59a.82.82 0 0 0-.73-.566l-4.266-.26-1.566-3.977a.82.82 0 0 0-1.526 0l-1.566 3.977-4.266.26a.82.82 0 0 0-.472 1.452l3.298 2.718-1.07 4.138a.82.82 0 0 0 1.235.897l3.604-2.296 3.604 2.296a.82.82 0 0 0 1.235-.897l-1.07-4.138 3.298-2.718a.82.82 0 0 0 .258-.886m-5.003 2.67a.82.82 0 0 0-.273.84l.68 2.626-2.288-1.458a.82.82 0 0 0-.882 0l-2.288 1.458.68-2.627a.82.82 0 0 0-.273-.838l-2.094-1.726 2.709-.165a.82.82 0 0 0 .713-.519l.994-2.524.994 2.524a.82.82 0 0 0 .713.519l2.709.165zm22.617-2.67a.82.82 0 0 0-.73-.566l-4.266-.26-1.566-3.977a.82.82 0 0 0-1.526 0l-1.566 3.977-4.266.26a.82.82 0 0 0-.472 1.452l3.298 2.718-1.07 4.138a.82.82 0 0 0 1.235.897l3.604-2.296 3.605 2.296a.82.82 0 0 0 1.235-.897l-1.07-4.138 3.297-2.718a.82.82 0 0 0 .258-.886m-5.003 2.67a.82.82 0 0 0-.273.84l.68 2.626-2.288-1.458a.82.82 0 0 0-.882 0l-2.288 1.458.68-2.627a.82.82 0 0 0-.273-.838l-2.094-1.726 2.709-.165a.82.82 0 0 0 .713-.519l.994-2.524.994 2.524a.82.82 0 0 0 .714.519l2.708.165z"/></svg>