<svg xmlns="http://www.w3.org/2000/svg" width="60" height="60" fill="none"><path fill="#282928" d="M38.344 20.68a.88.88 0 0 0 .879-.88v-1.153a.879.879 0 1 0-1.758 0V19.8c0 .486.393.88.879.88M30.77 20.68a.88.88 0 0 0 .879-.88v-1.153a.879.879 0 1 0-1.758 0V19.8c0 .486.393.88.879.88M34.548 27.662c1.7 0 3.084-1.384 3.084-3.084a.879.879 0 1 0-1.758 0 1.327 1.327 0 0 1-2.65 0 .879.879 0 1 0-1.76 0c0 1.7 1.384 3.084 3.084 3.084"/><path fill="#282928" d="M54.571 47.133a.88.88 0 0 0 .879-.879v-2.726a5.79 5.79 0 0 0-4.01-5.517l-10.87-3.424V31.09c2.537-1.873 3.785-4.937 3.677-8.037 2.017.155 4.214-1.04 4.214-3.328V17.89c0-.879-.343-1.679-.902-2.274.012-.057.018-2.508.018-2.508a.879.879 0 1 0-1.758 0v1.454H33.514a2.64 2.64 0 0 1-2.637-2.637v-7.53a2.64 2.64 0 0 1 2.637-2.637h5.967a6.345 6.345 0 0 1 6.338 6.338v1.181a.879.879 0 1 0 1.758 0V8.096C47.577 3.632 43.945 0 39.48 0h-5.967a4.4 4.4 0 0 0-4.328 3.64h-1.474a6.16 6.16 0 0 0-6.153 6.153s.005 5.743.012 5.788a3.32 3.32 0 0 0-.934 2.31v1.834c0 2.252 2.187 3.5 4.214 3.328-.193 3.083 1.178 6.193 3.676 8.037v3.532l-7.907 2.956a4.4 4.4 0 0 0-1.942 1.435l-5.093 6.61v-2.942c0-.794-.353-1.506-.91-1.99v-3.64c0-1.489-1.21-2.7-2.699-2.7a2.7 2.7 0 0 0-2.699 2.7v2.993c-1.851 0-2.73 1.039-2.73 2.637v7.406c0 1.168.765 2.162 1.82 2.506v3.017c0 4.228 5.46 6.065 8.088 2.477l4.653-5.622v6.656c0 .486.394.879.88.879H54.57a.88.88 0 0 0 .879-.879v-9.036a.879.879 0 1 0-1.758 0v8.157h-5.523V46.58a.879.879 0 1 0-1.758 0v.711H20.866v-.907a.879.879 0 1 0-1.757 0v3.324l-6.036 7.291c-1.439 1.737-4.948 1.79-4.948-1.39v-2.885h2.792v.94a.879.879 0 1 0 1.758 0v-1.587c.558-.484.911-1.197.911-1.99v-1.584l6.485-8.418c.3-.39.704-.688 1.165-.861l8.028-3 4.756 3.58c.344.26.797.2 1.114-.041l4.724-3.558 11.045 3.48a4.03 4.03 0 0 1 2.789 3.843v2.726c0 .486.394.879.879.879m-8.16 1.916v5.558h-15.09a.879.879 0 1 0 0 1.758h15.09v1.877H20.866v-1.877h6.626a.879.879 0 1 0 0-1.758h-6.626v-5.558zM9.035 37.051a.942.942 0 0 1 1.882 0v2.994H9.035zm-2.73 5.63a.88.88 0 0 1 .879-.878h3.765a.88.88 0 0 1 .879.879v1.003H9.066a.879.879 0 1 0 0 1.758h2.762v1.883H9.066a.879.879 0 1 0 0 1.758h2.762v1.003c0 .586-.356.84-.879.878l-3.765.001a.88.88 0 0 1-.88-.879zm40.398-22.956c0 .866-.704 1.57-1.57 1.57h-.886V16.32h.886c.866 0 1.57.704 1.57 1.57zM23.317 9.793a4.4 4.4 0 0 1 4.395-4.395h1.407v6.527a2.64 2.64 0 0 1-2.636 2.637h-3.166zm.648 11.502c-.866 0-1.57-.704-1.57-1.57V17.89c0-.866.704-1.57 1.57-1.57h.886v4.975zm2.644 2.531v-7.51a4.4 4.4 0 0 0 3.39-1.757 4.39 4.39 0 0 0 3.515 1.76h8.975v7.507c0 9.659-15.88 9.648-15.88 0m12.204 8.278v2.686l-4.264 3.212-4.264-3.213v-2.684c2.096 1.257 6.276 1.179 8.528 0M9.355 25.121q.622.516 1.243 0l3.64-3.64a.879.879 0 1 0-1.243-1.243l-3.018 3.019-1.2-1.199a.88.88 0 0 0-1.242 1.243z"/><path fill="#282928" d="M7.184 30.881h7.405a2.64 2.64 0 0 0 2.637-2.637v-1.003h2.762c.928-.008 1.338-.716.625-1.497l-3.387-3.425v-5.204a2.64 2.64 0 0 0-2.637-2.636H7.184a2.64 2.64 0 0 0-2.637 2.636v11.13a2.64 2.64 0 0 0 2.637 2.636m-.88-13.766a.88.88 0 0 1 .88-.878h7.405a.88.88 0 0 1 .88.878v5.565c0 .231.09.453.253.618l2.16 2.185h-1.535a.88.88 0 0 0-.879.879v1.882a.88.88 0 0 1-.879.88H7.184a.88.88 0 0 1-.88-.88z"/></svg>