<svg xmlns="http://www.w3.org/2000/svg" width="60" height="60" fill="none"><g fill="#282928" clip-path="url(#a)"><path d="M27.58 24.367a.88.88 0 0 0-.823.568l-3.336 8.804a.879.879 0 1 0 1.643.623l.61-1.61h3.81l.61 1.61a.879.879 0 0 0 1.644-.623L28.4 24.935a.88.88 0 0 0-.822-.568m-1.24 6.627 1.24-3.268 1.238 3.268zM33.707 25.246v8.804a.879.879 0 1 0 1.758 0v-8.804a.879.879 0 1 0-1.758 0M30 10.915a.88.88 0 0 0 .88-.879V5.822a2.98 2.98 0 0 0 2.098-2.845A2.98 2.98 0 0 0 30 0a2.98 2.98 0 0 0-2.977 2.977c0 1.336.885 2.469 2.099 2.845v4.214c0 .486.393.88.878.88m-1.219-7.938a1.22 1.22 0 0 1 2.439 0A1.22 1.22 0 0 1 30 4.197a1.22 1.22 0 0 1-1.219-1.22M44.453 2.674a2.98 2.98 0 0 0-2.844 2.098h-3.382a2.35 2.35 0 0 0-2.348 2.349v4.829a.879.879 0 1 0 1.758 0V7.12c0-.325.265-.59.59-.59h3.382a2.98 2.98 0 0 0 2.844 2.098 2.98 2.98 0 0 0 2.977-2.977 2.98 2.98 0 0 0-2.977-2.977m0 4.196a1.22 1.22 0 0 1 0-2.438c.672 0 1.22.547 1.22 1.219a1.22 1.22 0 0 1-1.22 1.22M15.547 8.628a2.98 2.98 0 0 0 2.845-2.098h3.38c.327 0 .592.265.592.59v4.83a.879.879 0 1 0 1.758 0V7.12a2.35 2.35 0 0 0-2.35-2.348h-3.38a2.98 2.98 0 0 0-2.845-2.098A2.98 2.98 0 0 0 12.57 5.65a2.98 2.98 0 0 0 2.977 2.977m0-4.196c.673 0 1.22.547 1.22 1.219a1.22 1.22 0 0 1-1.22 1.22 1.22 1.22 0 0 1 0-2.44M30 49.084a.88.88 0 0 0-.878.879v4.214a2.98 2.98 0 0 0-2.099 2.845A2.98 2.98 0 0 0 30 59.999a2.98 2.98 0 0 0 2.978-2.977 2.98 2.98 0 0 0-2.099-2.845v-4.214a.88.88 0 0 0-.879-.879m1.22 7.938a1.22 1.22 0 0 1-1.22 1.22 1.22 1.22 0 0 1-1.219-1.22 1.22 1.22 0 0 1 2.439 0M44.453 51.37a2.98 2.98 0 0 0-2.844 2.099h-3.382a.59.59 0 0 1-.59-.591v-4.83a.879.879 0 1 0-1.758 0v4.83a2.35 2.35 0 0 0 2.349 2.349h3.38a2.98 2.98 0 0 0 2.845 2.098 2.98 2.98 0 0 0 2.977-2.977 2.98 2.98 0 0 0-2.977-2.977m0 4.197a1.22 1.22 0 0 1 0-2.439 1.22 1.22 0 0 1 0 2.439M15.547 57.325a2.98 2.98 0 0 0 2.845-2.098h3.38a2.35 2.35 0 0 0 2.35-2.35V48.05a.879.879 0 1 0-1.758 0v4.829c0 .326-.265.59-.591.59h-3.381a2.98 2.98 0 0 0-2.845-2.098 2.98 2.98 0 0 0-2.977 2.978 2.98 2.98 0 0 0 2.977 2.977m0-4.197a1.22 1.22 0 0 1 0 2.439 1.22 1.22 0 0 1 0-2.439M2.977 32.978a2.98 2.98 0 0 0 2.845-2.099h4.214a.879.879 0 1 0 0-1.757H5.822a2.98 2.98 0 0 0-2.845-2.099A2.98 2.98 0 0 0 0 30.001a2.98 2.98 0 0 0 2.977 2.977m0-4.197a1.22 1.22 0 0 1 0 2.439A1.22 1.22 0 0 1 1.757 30c0-.672.548-1.219 1.22-1.219M4.774 18.394v3.38a2.35 2.35 0 0 0 2.349 2.35h4.829a.879.879 0 0 0 0-1.758h-4.83a.59.59 0 0 1-.59-.591v-3.381a2.98 2.98 0 0 0 2.098-2.845 2.98 2.98 0 0 0-2.977-2.977 2.98 2.98 0 0 0-2.977 2.977c0 1.336.884 2.47 2.098 2.845m.879-4.064a1.22 1.22 0 0 1 0 2.438 1.22 1.22 0 0 1 0-2.438M11.952 35.877h-4.83a2.35 2.35 0 0 0-2.348 2.349v3.38a2.98 2.98 0 0 0-2.098 2.845 2.98 2.98 0 0 0 2.977 2.977 2.98 2.98 0 0 0 2.977-2.977 2.98 2.98 0 0 0-2.098-2.844v-3.381c0-.326.265-.591.59-.591h4.83a.879.879 0 1 0 0-1.758m-5.08 8.574a1.22 1.22 0 0 1-1.22 1.22 1.22 1.22 0 0 1-1.218-1.22c0-.672.547-1.22 1.219-1.22s1.22.548 1.22 1.22M57.024 27.023a2.98 2.98 0 0 0-2.845 2.099h-4.214a.879.879 0 1 0 0 1.758h4.214a2.98 2.98 0 0 0 2.845 2.098A2.98 2.98 0 0 0 60 30a2.98 2.98 0 0 0-2.977-2.978m0 4.197a1.22 1.22 0 0 1-1.22-1.22 1.22 1.22 0 0 1 2.439 0 1.22 1.22 0 0 1-1.22 1.22M55.229 21.775v-3.381a2.98 2.98 0 0 0 2.098-2.845 2.98 2.98 0 0 0-2.977-2.977 2.98 2.98 0 0 0-2.977 2.977c0 1.336.884 2.47 2.098 2.845v3.38c0 .327-.265.592-.591.592h-4.83a.879.879 0 0 0 0 1.758h4.83a2.35 2.35 0 0 0 2.348-2.35m-2.099-6.226a1.22 1.22 0 0 1 2.439 0 1.22 1.22 0 0 1-1.22 1.22 1.22 1.22 0 0 1-1.219-1.22M52.88 35.877h-4.83a.879.879 0 1 0 0 1.758h4.83c.326 0 .59.265.59.59v3.382a2.98 2.98 0 0 0-2.097 2.844 2.98 2.98 0 0 0 2.977 2.977 2.98 2.98 0 0 0 2.977-2.977 2.98 2.98 0 0 0-2.099-2.844v-3.381a2.35 2.35 0 0 0-2.348-2.349m2.689 8.574a1.22 1.22 0 0 1-1.22 1.22 1.22 1.22 0 0 1-1.219-1.22 1.22 1.22 0 0 1 2.438 0"/><path d="M40.686 28.83a.88.88 0 0 0 .879-.88v-1.958c0-1.646-.886-3.18-2.312-4.003l-6.943-4.008a4.63 4.63 0 0 0-4.622 0l-6.943 4.008a4.64 4.64 0 0 0-2.311 4.003v8.018c0 1.646.885 3.18 2.31 4.003l6.944 4.008a4.6 4.6 0 0 0 2.311.617 4.6 4.6 0 0 0 2.311-.617l6.943-4.008a4.64 4.64 0 0 0 2.312-4.003v-1.958a.879.879 0 1 0-1.758 0v1.958c0 1.02-.55 1.97-1.433 2.48L31.432 40.5c-.883.51-1.98.51-2.864 0l-6.943-4.009a2.87 2.87 0 0 1-1.432-2.48v-8.018c0-1.02.549-1.97 1.432-2.48l6.943-4.009c.884-.51 1.98-.51 2.864 0l6.943 4.009a2.87 2.87 0 0 1 1.433 2.48v1.958c0 .486.393.88.879.88"/><path d="M18.694 18.435a8.75 8.75 0 0 0-4.362 7.556v8.017a8.75 8.75 0 0 0 4.362 7.555l6.943 4.008A8.7 8.7 0 0 0 30 46.738a8.7 8.7 0 0 0 4.362-1.166l6.943-4.008a8.75 8.75 0 0 0 4.362-7.555V25.99a8.75 8.75 0 0 0-4.362-7.556l-1.779-1.026a.879.879 0 1 0-.878 1.522l1.778 1.027a6.99 6.99 0 0 1 3.483 6.032v8.018a6.99 6.99 0 0 1-3.483 6.032l-6.943 4.009a6.99 6.99 0 0 1-6.966 0l-6.943-4.009a6.99 6.99 0 0 1-3.483-6.032V25.99a6.99 6.99 0 0 1 3.483-6.032l6.943-4.009a6.99 6.99 0 0 1 6.966 0l1.612.931a.88.88 0 0 0 .88-1.522l-1.613-.931a8.75 8.75 0 0 0-8.724 0z"/></g><defs><clipPath id="a"><path fill="#fff" d="M0 0h60v60H0z"/></clipPath></defs></svg>