<svg xmlns="http://www.w3.org/2000/svg" width="60" height="60" fill="none"><g fill="#282928" clip-path="url(#a)"><path d="M31.588 0H3.686A3.69 3.69 0 0 0 0 3.686v30.3a.88.88 0 1 0 1.758 0V9.428h31.758V50.57H1.758V38.068a.88.88 0 1 0-1.758 0v18.246A3.69 3.69 0 0 0 3.686 60h27.902a3.69 3.69 0 0 0 3.687-3.686V3.686A3.69 3.69 0 0 0 31.588 0M1.758 7.67V3.686a1.93 1.93 0 0 1 1.928-1.928h27.902a1.93 1.93 0 0 1 1.928 1.928V7.67zm29.83 50.572H3.686a1.93 1.93 0 0 1-1.928-1.928V52.33h31.758v3.984a1.93 1.93 0 0 1-1.928 1.928"/><path d="M19.053 54.406h-2.834a.88.88 0 1 0 0 1.758h2.834a.88.88 0 1 0 0-1.758M13.931 5.88a1.166 1.166 0 1 0 0-2.331 1.166 1.166 0 0 0 0 2.331M22.508 3.836h-4.871a.879.879 0 1 0 0 1.758h4.871a.88.88 0 1 0 0-1.758M26.864 13.153v-.538a.88.88 0 1 0-1.759 0v.538a.88.88 0 1 0 1.759 0M28.684 14.032a.88.88 0 0 0 .879-.88v-1.074a.88.88 0 1 0-1.758 0v1.075c0 .486.393.879.879.879M32.258 13.153V11.54a.88.88 0 1 0-1.758 0v1.612a.88.88 0 1 0 1.758 0M8.48 28.624h6.343c.872 0 1.582-.71 1.582-1.582v-6.343c0-.872-.71-1.582-1.582-1.582H8.48c-.872 0-1.582.71-1.582 1.582v6.343c0 .872.71 1.582 1.582 1.582m.177-7.749h5.99v5.99h-5.99zM18.871 20.7v6.342c0 .872.71 1.582 1.582 1.582h6.343c.872 0 1.582-.71 1.582-1.582v-1.438a.88.88 0 1 0-1.759 0v1.262h-5.99v-5.99h5.99v.684a.88.88 0 1 0 1.759 0v-.86c0-.873-.71-1.583-1.582-1.583h-6.343c-.872 0-1.582.71-1.582 1.582M6.898 39.3c0 .872.71 1.581 1.582 1.581h6.343c.872 0 1.582-.71 1.582-1.581v-6.343c0-.872-.71-1.582-1.582-1.582H8.48c-.872 0-1.582.71-1.582 1.582zm1.759-6.167h5.99v5.99h-5.99zM19.75 37.007h2.995v2.995a.88.88 0 1 0 1.758 0v-2.995h2.995a.879.879 0 1 0 0-1.758h-2.995v-2.995a.88.88 0 1 0-1.758 0v2.995H19.75a.88.88 0 1 0 0 1.758"/></g><defs><clipPath id="a"><path fill="#fff" d="M0 0h60v60H0z"/></clipPath></defs></svg>