<svg xmlns="http://www.w3.org/2000/svg" width="60" height="60" fill="none"><g fill="#282928" clip-path="url(#a)"><path d="m57.79 36.35-2.07-1.195c.349-1.729.524-3.46.524-5.155 0-1.72-.173-3.452-.514-5.16l2.06-1.19a2.74 2.74 0 0 0 1.286-1.675 2.74 2.74 0 0 0-.276-2.094l-5.636-9.762a2.74 2.74 0 0 0-1.675-1.286 2.74 2.74 0 0 0-2.094.276l-2.062 1.19a26.4 26.4 0 0 0-8.936-5.169V2.76A2.76 2.76 0 0 0 35.637 0H24.367a2.76 2.76 0 0 0-2.76 2.76v2.37a26.4 26.4 0 0 0-8.923 5.177l-2.075-1.198a2.74 2.74 0 0 0-2.094-.276A2.74 2.74 0 0 0 6.84 10.12l-5.636 9.762a2.74 2.74 0 0 0-.276 2.094 2.74 2.74 0 0 0 1.286 1.675l2.07 1.195A26.2 26.2 0 0 0 3.758 30c0 1.72.173 3.452.515 5.16l-2.061 1.19a2.763 2.763 0 0 0-1.01 3.77l5.636 9.761a2.76 2.76 0 0 0 3.77 1.01l2.062-1.19a26.4 26.4 0 0 0 8.935 5.169v2.37a2.76 2.76 0 0 0 2.76 2.76h11.272a2.76 2.76 0 0 0 2.759-2.76v-2.37a26.4 26.4 0 0 0 8.924-5.177l2.074 1.198a2.76 2.76 0 0 0 3.77-1.01l5.636-9.762a2.763 2.763 0 0 0-1.01-3.77m-.515 2.889L51.64 49a1 1 0 0 1-1.363.366l-2.63-1.518a.88.88 0 0 0-1.038.116c-2.688 2.486-5.922 4.361-9.352 5.424a.88.88 0 0 0-.62.841v3.012a1 1 0 0 1-.998.998H24.366a1 1 0 0 1-.998-.998V54.23a.88.88 0 0 0-.62-.842 24.6 24.6 0 0 1-9.365-5.417.88.88 0 0 0-1.038-.116l-2.617 1.51A1 1 0 0 1 8.364 49L2.728 39.24a1 1 0 0 1 .366-1.364l2.615-1.51a.88.88 0 0 0 .418-.956A24.6 24.6 0 0 1 5.52 30c0-1.773.208-3.591.616-5.404a.88.88 0 0 0-.418-.956l-2.624-1.515a1 1 0 0 1-.465-.606 1 1 0 0 1 .1-.757L8.363 11a1 1 0 0 1 .606-.465 1 1 0 0 1 .758.1l2.629 1.517a.88.88 0 0 0 1.038-.116c2.688-2.486 5.922-4.362 9.353-5.424a.88.88 0 0 0 .62-.842V2.76a1 1 0 0 1 .998-.999h11.272a1 1 0 0 1 .998.998V5.77a.88.88 0 0 0 .62.842 24.6 24.6 0 0 1 9.364 5.417.88.88 0 0 0 1.039.116l2.617-1.51c.23-.134.5-.17.757-.1.258.069.473.234.606.465l5.636 9.762c.134.23.17.5.1.757a1 1 0 0 1-.465.606l-2.615 1.51a.88.88 0 0 0-.419.956c.403 1.786.607 3.605.607 5.409 0 1.773-.207 3.591-.616 5.404a.88.88 0 0 0 .419.956l2.624 1.515a1 1 0 0 1 .365 1.364"/><path d="M30.004 12.21c-9.81 0-17.79 7.98-17.79 17.79 0 9.808 7.98 17.788 17.79 17.788 9.808 0 17.788-7.98 17.788-17.788 0-9.81-7.98-17.79-17.789-17.79m0 33.817c-8.838 0-16.028-7.19-16.028-16.027s7.19-16.028 16.027-16.028S46.031 21.162 46.031 30s-7.19 16.027-16.027 16.027"/><path d="M33.29 25.361h-3.288a.88.88 0 0 0-.88.881v7.515a.88.88 0 1 0 1.76 0v-1.938h2.407a3.233 3.233 0 0 0 3.23-3.229 3.233 3.233 0 0 0-3.23-3.229m0 4.697h-2.408v-2.935h2.407c.81 0 1.468.658 1.468 1.467a1.47 1.47 0 0 1-1.468 1.468M25.19 25.933a.88.88 0 0 0-.825-.572h-.94a.88.88 0 0 0-.824.572l-2.818 7.514a.88.88 0 0 0 1.649.619l.49-1.307h3.946l.49 1.307a.881.881 0 0 0 1.65-.619zm-2.607 5.064 1.312-3.5 1.313 3.5zM38.455 25.361a.88.88 0 0 0-.88.881v7.515a.88.88 0 1 0 1.76 0v-7.515a.88.88 0 0 0-.88-.88M36.301 10.251c.611.195 1.22.421 1.81.672a.877.877 0 0 0 1.156-.465.88.88 0 0 0-.466-1.155 22 22 0 0 0-1.965-.73.88.88 0 0 0-.535 1.678M11.795 39.91a.88.88 0 0 0-1.547.844c.366.67.77 1.328 1.203 1.958a.88.88 0 1 0 1.451-.997 21 21 0 0 1-1.107-1.805M28.2 50.647a20.75 20.75 0 0 1-12.613-5.758.88.88 0 0 0-1.225 1.265 22.5 22.5 0 0 0 13.686 6.248l.077.003a.88.88 0 0 0 .074-1.758M42.675 11.423a.88.88 0 0 0-.994 1.454 20.75 20.75 0 0 1 8.333 11.716.881.881 0 0 0 1.7-.459 22.5 22.5 0 0 0-9.04-12.71"/></g><defs><clipPath id="a"><path fill="#fff" d="M0 0h60v60H0z"/></clipPath></defs></svg>