<svg xmlns="http://www.w3.org/2000/svg" width="60" height="60" fill="none"><g clip-path="url(#a)"><path fill="#282928" d="M10.5 24.633v2.402a1.05 1.05 0 0 0 1.055 1.055h3.386a1.05 1.05 0 0 0 1.055-1.055v-2.402c.727-.211 1.418-.492 2.074-.856l1.7 1.7c.386.41 1.09.41 1.488 0l2.39-2.391c.2-.2.305-.469.305-.75s-.105-.55-.305-.738l-1.699-1.7a9.4 9.4 0 0 0 .856-2.074h2.39c.575 0 1.055-.469 1.055-1.055v-3.386c0-.574-.469-1.055-1.055-1.055h-2.414a10 10 0 0 0-.855-2.074l1.699-1.7c.2-.199.305-.468.305-.738 0-.28-.106-.55-.305-.738l-2.379-2.39c-.387-.41-1.101-.41-1.488 0l-1.7 1.699a9.4 9.4 0 0 0-2.074-.856V3.117c0-.574-.468-1.054-1.054-1.054h-3.387c-.574 0-1.055.468-1.055 1.054v2.414c-.726.211-1.418.492-2.074.856l-1.687-1.7a1.076 1.076 0 0 0-1.489 0l-2.39 2.391c-.41.387-.41 1.102 0 1.488l1.699 1.7a9.4 9.4 0 0 0-.856 2.074H1.277a1.05 1.05 0 0 0-1.054 1.055v3.386c0 .575.468 1.055 1.054 1.055H3.68c.21.727.492 1.418.855 2.074l-1.7 1.7c-.41.386-.41 1.1 0 1.488l2.392 2.39c.398.399 1.09.399 1.488 0l1.7-1.699c.667.352 1.358.633 2.085.844m-4.523-.235-2.063-2.062 2.25-2.25a9.5 9.5 0 0 1-1.476-3.55H1.511v-2.907h3.187a9.5 9.5 0 0 1 1.477-3.55l-2.262-2.25 2.063-2.063 2.25 2.25a9.5 9.5 0 0 1 3.55-1.477V3.363h2.907v3.188a9.5 9.5 0 0 1 3.55 1.476l2.25-2.25 2.063 2.063-2.238 2.238a9.5 9.5 0 0 1 1.476 3.55h3.176v2.907h-3.188a9.5 9.5 0 0 1-1.476 3.55l2.25 2.25-2.063 2.063-2.238-2.25a9.6 9.6 0 0 1-3.55 1.477v3.188h-2.907v-3.188a9.5 9.5 0 0 1-3.55-1.477zm12.562-9.316c-.27-7.02-10.336-7.02-10.605 0 .27 7.02 10.336 7.02 10.605 0m-9.316 0c.187-5.309 7.84-5.309 8.027 0-.187 5.309-7.84 5.309-8.027 0m45.609 10.313V.762a.65.65 0 0 0-.645-.645H47.04a.65.65 0 0 0-.645.645v29.12l-2.425 1.29V14.977a.65.65 0 0 0-.645-.645h-7.148a.65.65 0 0 0-.645.645v16.03c-.62-.163-1.511 0-2.144.071V20.953a.65.65 0 0 0-.645-.644h-7.148a.65.65 0 0 0-.645.644V32.11a4.4 4.4 0 0 0-1.898.809L14.6 39.27c-.609-1.055-2.097-1.43-3.081-.657l-3.352 2.52a2.06 2.06 0 0 0-.457 2.824l6.352 14.977c.351.62 1.054.949 1.722.949.445 0 .902-.14 1.3-.446l6.036-5.425c.926-.668 1.102-2.075.375-2.942l1.7-1.289a7.26 7.26 0 0 1 3.304-1.383l7.16-1.066a11.35 11.35 0 0 0 5.473-2.414l17.426-14.145c3.07-2.578-.223-7.335-3.727-5.378M47.684 1.406h5.859v24.668c-1.312.703-4.582 2.45-5.86 3.13zM36.832 15.621h5.86v16.242l-4.36 2.32c-.059-1.054-.645-2.027-1.5-2.624zM26.25 21.598h5.86v9.633c-.587.07-5.426.656-5.86.714zM22.3 53.016l-6.034 5.425a.764.764 0 0 1-1.043-.105L8.895 43.383c-.293-.375-.34-.914.07-1.23l3.351-2.52a.78.78 0 0 1 1.09.152c.293.387 3.422 4.559 3.809 5.063l5.285 7.03a.804.804 0 0 1-.2 1.138m35.438-23.239L40.313 43.922a10.04 10.04 0 0 1-4.852 2.133L28.3 47.12a8.6 8.6 0 0 0-3.89 1.629l-1.7 1.29c-1.828-2.427-5.496-7.313-7.324-9.74l8.449-6.35c.527-.41 1.184-.598 1.84-.645 1.758-.211 7.195-.88 8.87-1.078 2.942-.246 3.446 3.96.54 4.406l-7.324.89c-.832.118-.68 1.371.152 1.278l7.313-.89a3.46 3.46 0 0 0 2.8-2.122c4.793-2.555 12.774-6.82 17.508-9.34 2.11-1.09 4.067 1.805 2.203 3.328"/></g><defs><clipPath id="a"><path fill="#fff" d="M0 0h60v60H0z"/></clipPath></defs></svg>