<svg xmlns="http://www.w3.org/2000/svg" width="60" height="60" fill="none"><path fill="#282928" d="M11.288 40.59a.82.82 0 0 1 .82-.82H31.94a.82.82 0 0 1 0 1.641H12.108a.82.82 0 0 1-.82-.82m.82-5.26h14.488a.82.82 0 0 0 0-1.641H12.108a.82.82 0 1 0 0 1.64m33.577 11.982v9.733c0 1.048-.852 1.9-1.9 1.9H30.71c-1.048 0-1.9-.852-1.9-1.9v-5.944a30 30 0 0 1-6.786.763 31 31 0 0 1-2.892-.135L9 58.798a.82.82 0 0 1-1.268-.858l2.034-8.763c-5.469-2.682-8.711-6.991-8.711-11.627 0-3.18 1.48-6.184 4.283-8.69 2.681-2.398 6.33-4.128 10.55-5.004a.82.82 0 0 1 .334 1.606c-3.882.806-7.36 2.447-9.79 4.62-2.445 2.186-3.737 4.769-3.737 7.468 0 4.144 3.125 8.04 8.36 10.422a.82.82 0 0 1 .458.932l-1.7 7.326 8.629-6.02a.82.82 0 0 1 .554-.143c.996.103 2.015.156 3.028.156 2.34 0 4.62-.273 6.786-.81v-2.102c0-1.047.852-1.9 1.9-1.9h6.448c2.708-2.236 4.195-5.019 4.195-7.861 0-3.037-1.683-5.982-4.739-8.291a.82.82 0 0 1 .99-1.309c3.476 2.627 5.39 6.036 5.39 9.6 0 2.812-1.203 5.544-3.425 7.861h4.215c1.048 0 1.901.853 1.901 1.9m-1.64 0c0-.141-.12-.26-.26-.26H30.71c-.14 0-.26.119-.26.26v9.733c0 .14.12.26.26.26h13.075c.14 0 .26-.12.26-.26zm-3.637 4.866a.82.82 0 0 1-.41.71l-4.68 2.703a.82.82 0 0 1-1.231-.71v-5.405a.82.82 0 0 1 1.23-.71l4.681 2.702a.82.82 0 0 1 .41.71m-2.46 0-2.22-1.281v2.563zm15.644-42.55c.139 0 .28-.035.41-.11l3.167-1.829a.82.82 0 1 0-.82-1.42L53.18 8.098a.82.82 0 0 0 .41 1.53m-5.281-3.7a.82.82 0 0 0 1.12-.3l1.93-3.343a.82.82 0 0 0-1.42-.82l-1.93 3.342a.82.82 0 0 0 .3 1.12m5.135 8.893c0 .453.367.82.82.82h3.859a.82.82 0 1 0 0-1.64h-3.859a.82.82 0 0 0-.82.82m-34.754 9.002A6.25 6.25 0 0 1 21.618 20l4.29-2.477a.82.82 0 0 1 .855.02c4.41-3.3 7.886-7.12 9.878-10.86l-.075-.13A3.375 3.375 0 0 1 37.8 1.948a3.376 3.376 0 0 1 4.605 1.234l3.348 5.797a3.78 3.78 0 0 1 5.001 1.467 3.78 3.78 0 0 1-1.23 5.064l3.347 5.798c.449.778.567 1.686.334 2.558-.234.872-.79 1.599-1.568 2.048a3.34 3.34 0 0 1-2.558.334 3.35 3.35 0 0 1-2.048-1.568l-.075-.13c-4.197-.145-9.194.936-14.213 3.068l5.923 7.972a1.904 1.904 0 0 1-.241 2.556l-1.303 1.182a1.92 1.92 0 0 1-1.468.487 1.89 1.89 0 0 1-1.33-.747l-6.196-8.291-.216.124a6.23 6.23 0 0 1-3.125.841 6.4 6.4 0 0 1-1.65-.218 6.25 6.25 0 0 1-3.823-2.926 6.25 6.25 0 0 1-.622-4.775m18.657 12.745-5.78-7.779-2.01 1.161 6.08 8.136a.24.24 0 0 0 .173.096c.044.005.13.001.207-.07l1.303-1.181a.266.266 0 0 0 .027-.363m9.226-26.164 2.126 3.682a2.136 2.136 0 0 0 .632-2.82 2.137 2.137 0 0 0-2.758-.862m-8.588-4.671 10.465 18.126c.23.398.603.684 1.052.804a1.72 1.72 0 0 0 2.116-1.222c.12-.448.06-.915-.17-1.312L40.985 4.002a1.73 1.73 0 0 0-2.365-.634c-.398.23-.683.604-.803 1.052s-.06.915.17 1.313M27.663 18.92l4.207 7.287c4.92-2.12 9.855-3.273 14.132-3.31L37.595 8.336c-2.17 3.685-5.637 7.384-9.932 10.585m-6.928 8.857a4.62 4.62 0 0 0 2.827 2.162 4.62 4.62 0 0 0 3.53-.459l3.58-2.067-4.653-8.06-3.58 2.068a4.62 4.62 0 0 0-2.162 2.827 4.62 4.62 0 0 0 .458 3.53m-15.18-17.24a4.99 4.99 0 0 1 4.983-4.982 4.99 4.99 0 0 1 4.982 4.983 4.99 4.99 0 0 1-4.982 4.982 4.99 4.99 0 0 1-4.983-4.982m1.64 0c0 1.843 1.5 3.343 3.343 3.343s3.342-1.5 3.342-3.342-1.5-3.342-3.342-3.342a3.346 3.346 0 0 0-3.342 3.342m-6.14.867V9.671c0-.766.623-1.389 1.389-1.389.678 0 .946-.519 1.012-.678s.243-.715-.237-1.194a1.38 1.38 0 0 1-.406-.983c0-.37.144-.72.406-.982L4.444 3.22a1.39 1.39 0 0 1 1.965 0c.48.48 1.036.302 1.195.236s.678-.333.678-1.012c0-.766.623-1.39 1.39-1.39h1.732c.766 0 1.389.624 1.389 1.39 0 .679.519.946.678 1.012s.715.243 1.194-.236a1.39 1.39 0 0 1 1.965 0l1.225 1.225c.263.262.407.61.407.982 0 .371-.144.72-.407.983-.48.48-.302 1.035-.236 1.194s.333.678 1.012.678c.766 0 1.39.623 1.39 1.39v1.732a1.39 1.39 0 0 1-1.39 1.39c-.679 0-.946.518-1.012.677s-.244.715.236 1.195a1.39 1.39 0 0 1 0 1.965l-1.225 1.225a1.38 1.38 0 0 1-.982.407 1.38 1.38 0 0 1-.983-.407c-.48-.48-1.035-.303-1.194-.237s-.678.334-.678 1.012a1.39 1.39 0 0 1-1.39 1.39H9.672a1.39 1.39 0 0 1-1.389-1.39c0-.68-.518-.947-.677-1.013a1.075 1.075 0 0 0-1.195.238 1.38 1.38 0 0 1-.983.407 1.38 1.38 0 0 1-.982-.407L3.22 16.63a1.38 1.38 0 0 1-.407-.983c0-.37.144-.72.407-.982.48-.48.302-1.036.236-1.195s-.333-.678-1.012-.678c-.766 0-1.39-.623-1.39-1.389m1.64-.24a2.69 2.69 0 0 1 2.277 1.68 2.69 2.69 0 0 1-.422 2.797l.885.885a2.69 2.69 0 0 1 2.798-.424 2.69 2.69 0 0 1 1.679 2.278h1.251a2.69 2.69 0 0 1 1.68-2.276 2.69 2.69 0 0 1 2.797.422l.886-.885a2.69 2.69 0 0 1-.423-2.798 2.69 2.69 0 0 1 2.277-1.68V9.913a2.69 2.69 0 0 1-2.277-1.68 2.69 2.69 0 0 1 .422-2.797l-.885-.885a2.69 2.69 0 0 1-2.797.422 2.69 2.69 0 0 1-1.68-2.277H9.912a2.69 2.69 0 0 1-1.68 2.277 2.69 2.69 0 0 1-2.797-.422l-.885.885a2.69 2.69 0 0 1 .422 2.797 2.69 2.69 0 0 1-2.277 1.68zm56.186 21.81c-.29 2.428-1.458 4.74-2.128 5.9-.67 1.162-2.088 3.328-4.047 4.794-1.27.95-2.549 1.428-3.788 1.428-.865 0-1.711-.233-2.521-.701l-.295-.17a2.09 2.09 0 0 1-.978-1.277 2.09 2.09 0 0 1 .209-1.594l1.178-2.04a2.104 2.104 0 0 1 2.87-.77l.691.4a.45.45 0 0 0 .577-.095 15.6 15.6 0 0 0 1.764-2.48c.526-.912.952-1.843 1.266-2.768a.45.45 0 0 0-.206-.547l-.691-.399a2.09 2.09 0 0 1-.978-1.276 2.09 2.09 0 0 1 .209-1.594l1.177-2.04a2.104 2.104 0 0 1 2.87-.77l.296.17c1.97 1.138 2.844 3.154 2.525 5.828m-3.346-4.408-.294-.17a.46.46 0 0 0-.63.169l-1.178 2.04a.46.46 0 0 0-.045.35c.032.119.108.218.214.28l.691.398a2.08 2.08 0 0 1 .94 2.495 17.2 17.2 0 0 1-1.4 3.06 17.2 17.2 0 0 1-1.95 2.742 2.08 2.08 0 0 1-2.631.435l-.691-.4a.461.461 0 0 0-.63.169l-1.177 2.04a.46.46 0 0 0-.045.35c.032.12.107.219.213.28l.295.17c1.397.807 2.871.604 4.507-.62 1.788-1.338 3.119-3.453 3.608-4.3.49-.847 1.655-3.057 1.92-5.275.242-2.028-.32-3.406-1.717-4.213"/></svg>