<svg xmlns="http://www.w3.org/2000/svg" width="52" height="39.521"><path d="M23.245 27.041H7.28a1.04 1.04 0 0 1 0-2.08h15.965a1.04 1.04 0 0 1 0 2.08M23.245 14.56H7.28a1.04 1.04 0 1 1 0-2.08h15.965a1.04 1.04 0 0 1 0 2.08M21.84 20.801H1.04a1.04 1.04 0 1 1 0-2.08h20.8a1.04 1.04 0 0 1 0 2.08M32.24 23.818a4.059 4.059 0 1 1 4.16-4.058 3.983 3.983 0 0 1-4.16 4.058m0-6.036a1.981 1.981 0 1 0 2.08 1.978 1.913 1.913 0 0 0-2.08-1.979Z"/><path d="M34.446 18.593a1.04 1.04 0 0 1-.735-1.775l5.883-5.883a1.04 1.04 0 0 1 1.471 1.471l-5.883 5.883a1.04 1.04 0 0 1-.736.304M28.563 24.478a1.04 1.04 0 0 1-.735-1.775l1.472-1.472a1.04 1.04 0 0 1 1.471 1.471L29.3 24.173a1.04 1.04 0 0 1-.737.305M32.24 39.521a1.04 1.04 0 0 1-1.04-1.04V35.36a1.04 1.04 0 0 1 2.08 0v3.12a1.04 1.04 0 0 1-1.04 1.041M45.477 34.037a1.04 1.04 0 0 1-.735-.3l-2.206-2.207a1.04 1.04 0 0 1 1.471-1.47l2.205 2.2a1.04 1.04 0 0 1-.735 1.775ZM43.27 9.77a1.04 1.04 0 0 1-.735-1.775l2.206-2.207a1.04 1.04 0 1 1 1.47 1.472l-2.206 2.207a1.04 1.04 0 0 1-.735.303M32.24 5.2a1.04 1.04 0 0 1-1.04-1.04V1.04a1.04 1.04 0 0 1 2.08 0v3.12a1.04 1.04 0 0 1-1.04 1.04M50.96 20.801h-3.12a1.04 1.04 0 1 1 0-2.08h3.12a1.04 1.04 0 1 1 0 2.08M24.74 8.32H13.52a1.04 1.04 0 1 1 0-2.08h11.22a1.04 1.04 0 1 1 0 2.08M24.74 33.28H13.52a1.04 1.04 0 0 1 0-2.08h11.22a1.04 1.04 0 0 1 0 2.08"/><path d="M32.176 39.5a19.6 19.6 0 0 1-8.988-2.176 1.04 1.04 0 1 1 .953-1.849 17.681 17.681 0 1 0 0-31.432 1.04 1.04 0 1 1-.953-1.849A19.755 19.755 0 1 1 32.176 39.5"/></svg>