<svg xmlns="http://www.w3.org/2000/svg" width="60" height="60" fill="none"><g fill="#282928" clip-path="url(#a)"><path d="M25.853 51.815V36.469a.957.957 0 0 0-.958-.957h-6.383a.957.957 0 1 0 0 1.915h5.426v14.388a4.155 4.155 0 0 0-3.192 4.036A4.153 4.153 0 0 0 24.896 60a4.153 4.153 0 0 0 4.148-4.149 4.155 4.155 0 0 0-3.191-4.036m-.958 6.27a2.237 2.237 0 0 1-2.234-2.234 2.237 2.237 0 0 1 2.234-2.234 2.237 2.237 0 0 1 2.234 2.234 2.237 2.237 0 0 1-2.234 2.234M36.063 51.815V36.469a.957.957 0 0 0-.957-.957h-6.383a.957.957 0 1 0 0 1.915h5.426v14.388a4.155 4.155 0 0 0-3.192 4.036A4.153 4.153 0 0 0 35.106 60a4.154 4.154 0 0 0 4.149-4.149 4.155 4.155 0 0 0-3.192-4.036m-.957 6.27a2.237 2.237 0 0 1-2.234-2.234 2.237 2.237 0 0 1 2.234-2.234 2.237 2.237 0 0 1 2.234 2.234 2.237 2.237 0 0 1-2.234 2.234M52.342 45.32a4.155 4.155 0 0 0-4.036 3.19h-2.028V36.47a.957.957 0 0 0-.957-.958h-6.383a.957.957 0 1 0 0 1.915h5.425v12.041c0 .529.429.958.958.958h2.985a4.155 4.155 0 0 0 4.036 3.191 4.153 4.153 0 0 0 4.15-4.149 4.153 4.153 0 0 0-4.15-4.149m0 6.382a2.237 2.237 0 0 1-2.234-2.234 2.237 2.237 0 0 1 2.234-2.234 2.237 2.237 0 0 1 2.234 2.234 2.237 2.237 0 0 1-2.234 2.234"/><path d="M57.72 20.624a10.4 10.4 0 0 0-4.993-3.394 18 18 0 0 0-5.341-11.976A18 18 0 0 0 34.625 0a18.14 18.14 0 0 0-15.456 8.654c-.8-.252-1.63-.38-2.48-.38-3.912 0-7.275 2.761-8.086 6.524C3.58 16.101 0 20.68 0 25.928c0 6.34 5.158 11.499 11.499 11.499h2.224V48.51h-2.027a4.155 4.155 0 0 0-4.036-3.192 4.154 4.154 0 0 0-4.15 4.15 4.154 4.154 0 0 0 4.15 4.148 4.155 4.155 0 0 0 4.036-3.191h2.985a.957.957 0 0 0 .957-.958V36.47a.957.957 0 0 0-.957-.957h-3.182c-5.285 0-9.584-4.3-9.584-9.584 0-4.56 3.242-8.514 7.708-9.4a.96.96 0 0 0 .764-.814c.412-3.15 3.12-5.525 6.301-5.525.875 0 1.724.176 2.523.521a.957.957 0 0 0 1.218-.415 16.23 16.23 0 0 1 14.196-8.38c8.857 0 16.128 7.205 16.208 16.061.004.443.31.824.742.924a8.37 8.37 0 0 1 6.51 8.196c0 4.64-3.775 8.416-8.415 8.416h-.521a.957.957 0 1 0 0 1.915h.52c5.697 0 10.331-4.635 10.331-10.33 0-2.349-.81-4.648-2.28-6.473M7.66 51.702a2.237 2.237 0 0 1-2.234-2.234 2.237 2.237 0 0 1 2.234-2.234 2.237 2.237 0 0 1 2.234 2.234 2.237 2.237 0 0 1-2.234 2.234"/><path d="M46.683 18.971h.009a.96.96 0 0 0 .949-.966 12.9 12.9 0 0 0-.885-4.587.958.958 0 0 0-1.784.697c.488 1.249.742 2.563.754 3.907a.96.96 0 0 0 .957.95M43.185 11.074a.955.955 0 0 0 1.348.129.957.957 0 0 0 .128-1.348c-2.493-3.018-6.15-4.75-10.036-4.75a.957.957 0 1 0 0 1.915c3.312 0 6.432 1.478 8.56 4.054"/></g><defs><clipPath id="a"><path fill="#fff" d="M0 0h60v60H0z"/></clipPath></defs></svg>