<svg xmlns="http://www.w3.org/2000/svg" width="35" height="35" fill="none"><g clip-path="url(#a)"><mask id="b" width="35" height="35" x="0" y="0" maskUnits="userSpaceOnUse" style="mask-type:luminance"><path fill="#fff" d="M34.973 0H0v35h34.973z"/></mask><g fill="#282928" mask="url(#b)"><path d="M34.243 13.057H2.15a.73.73 0 0 0-.73.73v17.56A3.656 3.656 0 0 0 5.07 35h26.256a3.656 3.656 0 0 0 3.647-3.657V13.788a.73.73 0 0 0-.73-.731m-.73 18.29a2.194 2.194 0 0 1-2.187 2.194H5.069a2.194 2.194 0 0 1-2.186-2.194V14.52h30.63z"/><path d="M34.948 6.383 33.704 1.66A2.2 2.2 0 0 0 31.091.053L1.704 7.046A2.19 2.19 0 0 0 .066 9.718l1.374 5.448a.728.728 0 1 0 1.414-.358l-.08-.317 31.63-7.207a.733.733 0 0 0 .544-.9M2.416 13.071 1.48 9.363a.733.733 0 0 1 .551-.894l29.39-6.99a.7.7 0 0 1 .16-.02.74.74 0 0 1 .711.563l1.052 4z"/><path d="M8.33 13.181a.737.737 0 0 0-.983.328L4.421 19.36a.733.733 0 0 0 1.311.654l2.926-5.85a.733.733 0 0 0-.328-.983M15.607 13.182a.735.735 0 0 0-.982.328l-2.928 5.85a.732.732 0 1 0 1.31.655l2.925-5.851a.733.733 0 0 0-.327-.982zM22.9 13.181a.736.736 0 0 0-.982.328L18.99 19.36a.73.73 0 1 0 1.31.654l2.925-5.85a.733.733 0 0 0-.325-.983M30.175 13.182a.735.735 0 0 0-.982.328l-2.926 5.85a.732.732 0 1 0 1.31.655l2.925-5.851a.733.733 0 0 0-.327-.982"/><path d="M34.242 18.95H2.148a.731.731 0 0 0 0 1.462h32.093a.731.731 0 1 0 0-1.463M9.228 11.854 4.19 6.816A.731.731 0 1 0 3.156 7.85l5.038 5.04a.735.735 0 0 0 .924.09.732.732 0 0 0 .11-1.126M16.349 10.248 11.307 5.21a.731.731 0 1 0-1.034 1.034l5.04 5.038a.733.733 0 1 0 1.036-1.034M23.475 8.624l-5.035-5.04a.73.73 0 1 0-1.03 1.034l5.035 5.04a.735.735 0 0 0 1.034 0 .73.73 0 0 0 0-1.034zM30.586 7l-5.035-5.04A.734.734 0 0 0 24.517 3l5.035 5.04A.733.733 0 1 0 30.586 7"/></g></g><defs><clipPath id="a"><path fill="#fff" d="M0 0h34.973v35H0z"/></clipPath></defs></svg>