<svg xmlns="http://www.w3.org/2000/svg" width="60" height="60" fill="none"><path fill="#282928" d="M44.313 56.928h-1.764v-6.046a2.04 2.04 0 0 0-2.036-2.036h-.118V47.4c0-1.09-.891-1.972-1.973-1.972h-.01c-4.481-4.246-4.008-12.446-3.745-14.91h2.2c1 0 1.818-.818 1.818-1.818v-7.036c0-1-.818-1.818-1.818-1.818h-1.472c-1 0-1.819.818-1.819 1.818v1.754h-.936v-1.754c0-1-.818-1.818-1.818-1.818h-1.6c-1 0-1.818.818-1.818 1.818v1.754h-.937v-1.754c0-1-.818-1.818-1.818-1.818h-1.473c-1 0-1.818.818-1.818 1.818V28.7c0 1 .818 1.818 1.818 1.818h2.2c.264 2.464.746 10.655-3.745 14.91h-.01c-1.09 0-1.972.89-1.972 1.972v1.446h-.118a2.04 2.04 0 0 0-2.037 2.036v6.046h-1.772a.854.854 0 1 0 0 1.709h28.636a.854.854 0 0 0 .855-.855c0-.473-.428-.854-.9-.854M23.049 28.69v-7.036a.1.1 0 0 1 .1-.1h1.473a.1.1 0 0 1 .1.1v2.082c0 .763.618 1.381 1.382 1.381h1.6c.763 0 1.381-.618 1.381-1.381v-2.082a.1.1 0 0 1 .1-.1h1.6a.1.1 0 0 1 .1.1v2.082c0 .763.619 1.381 1.382 1.381h1.6c.764 0 1.382-.618 1.382-1.381v-2.082a.1.1 0 0 1 .1-.1h1.473a.1.1 0 0 1 .1.1v7.036a.1.1 0 0 1-.1.1H23.13c-.037.01-.082-.036-.082-.1m4.036 1.818h5.837c-.273 2.673-.627 10.064 3.163 14.91H23.922c3.79-4.846 3.436-12.237 3.163-14.91M21.331 47.4c0-.145.118-.263.264-.263h16.818c.145 0 .263.118.263.263v1.446H21.331zm-2.164 9.528v-6.046c0-.182.146-.327.327-.327h21.019c.181 0 .327.145.327.327v6.046z"/><path fill="#282928" d="M37.72 52.88H22.285a.854.854 0 1 0 0 1.71h15.437a.854.854 0 1 0 0-1.71M51.502 20.536h-2.527a19.6 19.6 0 0 0-2.291-5.527l1.8-1.8a2.3 2.3 0 0 0 0-3.228l-3.3-3.29c-.428-.437-1-.673-1.61-.673h-.008a2.27 2.27 0 0 0-1.619.673l-1.79 1.79a19.6 19.6 0 0 0-5.528-2.3V3.645a2.29 2.29 0 0 0-2.29-2.282h-4.655a2.29 2.29 0 0 0-2.291 2.282v2.536a19.3 19.3 0 0 0-5.527 2.3l-1.791-1.79a2.283 2.283 0 0 0-3.228 0l-3.309 3.3a2.3 2.3 0 0 0 0 3.227l1.8 1.8a19.4 19.4 0 0 0-2.29 5.527H8.492a2.29 2.29 0 0 0-2.282 2.282v4.664a2.29 2.29 0 0 0 2.282 2.281h2.536A19.4 19.4 0 0 0 13.32 35.3l-1.79 1.79a2.25 2.25 0 0 0-.674 1.619c0 .609.237 1.182.673 1.618l3.3 3.3c.864.864 2.373.864 3.236 0l1.81-1.81.218.128a.85.85 0 0 0 1.172-.3.85.85 0 0 0-.3-1.173l-.272-.163a9 9 0 0 1-.482-.291.85.85 0 0 0-1.073.109l-2.282 2.282a.58.58 0 0 1-.809 0l-3.3-3.3a.58.58 0 0 1-.172-.41c0-.154.063-.3.172-.408l2.273-2.282a.854.854 0 0 0 .11-1.073 17.8 17.8 0 0 1-2.574-6.21.855.855 0 0 0-.836-.68H8.493a.57.57 0 0 1-.573-.574v-4.654a.57.57 0 0 1 .573-.573h3.227c.41 0 .755-.282.836-.682a17.8 17.8 0 0 1 2.573-6.2.865.865 0 0 0-.109-1.072L12.738 12a.58.58 0 0 1 0-.81l3.3-3.3a.565.565 0 0 1 .81 0l2.281 2.282c.291.291.736.337 1.082.11a17.8 17.8 0 0 1 6.2-2.582.855.855 0 0 0 .682-.837V3.645a.57.57 0 0 1 .573-.573h4.654a.57.57 0 0 1 .573.573v3.218c0 .41.282.755.682.837 2.209.454 4.3 1.327 6.209 2.581a.84.84 0 0 0 1.072-.109l2.273-2.281c.11-.11.227-.191.41-.173.154 0 .29.054.4.173l3.3 3.29a.593.593 0 0 1 0 .819l-2.283 2.281a.84.84 0 0 0-.109 1.073c1.255 1.91 2.118 4 2.573 6.21.082.4.436.681.836.681h3.21a.57.57 0 0 1 .572.573v4.663a.57.57 0 0 1-.572.573h-3.21a.85.85 0 0 0-.836.682 17.7 17.7 0 0 1-2.573 6.21.855.855 0 0 0 .11 1.08l2.272 2.274a.59.59 0 0 1 .01.809l-3.31 3.3a.54.54 0 0 1-.4.163.6.6 0 0 1-.409-.163l-2.273-2.282a.854.854 0 0 0-1.081-.11c-.164.11-.337.21-.5.3l-.264.155a.85.85 0 0 0-.3 1.173.856.856 0 0 0 1.173.3l.272-.127 1.8 1.809a2.27 2.27 0 0 0 1.618.673h.01a2.27 2.27 0 0 0 1.609-.673l3.309-3.3a2.31 2.31 0 0 0 0-3.227l-1.791-1.791a19.4 19.4 0 0 0 2.29-5.537h2.528a2.29 2.29 0 0 0 2.29-2.281v-4.673a2.32 2.32 0 0 0-2.308-2.282"/><path fill="#282928" d="M22.72 35.773a.854.854 0 0 0-.145-1.2c-2.91-2.3-4.582-5.728-4.582-9.419 0-6.609 5.382-11.99 12-11.99s12 5.381 12 11.99c0 3.691-1.664 7.128-4.573 9.419a.855.855 0 1 0 1.055 1.345 13.65 13.65 0 0 0 5.227-10.764c0-7.554-6.155-13.709-13.718-13.709-7.564 0-13.718 6.146-13.718 13.71 0 4.218 1.909 8.136 5.227 10.763a.903.903 0 0 0 1.227-.145"/></svg>