<svg xmlns="http://www.w3.org/2000/svg" width="60" height="60" fill="none" viewBox="0 0 60 60">
  <path fill="#282928" d="M49.864 37.837h-.003c1.395-1.555 2.123-3.865 2.123-6.095a6.23 6.23 0 0 0-12.462 0c0 1.783.52 3.692 1.39 5.104a7.1 7.1 0 0 0 .732.991h-.005a6.871 6.871 0 0 0-4.04 1.303 9.837 9.837 0 0 0-1.6-.133h-1.047a9.392 9.392 0 0 0 1.674-1.992c1.293-2.031 2.034-4.702 2.034-7.329a8.66 8.66 0 1 0-17.318 0c0 2.525.734 5.223 1.963 7.22a9.383 9.383 0 0 0 1.735 2.1H24a9.975 9.975 0 0 0-1.6.134 6.872 6.872 0 0 0-4.04-1.303h-.004c.271-.308.516-.64.73-.99.871-1.413 1.39-3.321 1.39-5.104a6.23 6.23 0 0 0-12.458 0c0 2.23.729 4.54 2.122 6.095h-.005c-3.646 0-6.612 2.784-6.612 6.206v7.195a.938.938 0 0 0 .938.937h10.324v5.949a.937.937 0 0 0 .938.938h28.555a.937.937 0 0 0 .937-.938v-5.949h10.326a.938.938 0 0 0 .938-.937v-7.196c0-3.422-2.967-6.206-6.615-6.206Zm-8.466-6.095a4.356 4.356 0 0 1 8.711 0c0 2.357-1.183 6.095-4.357 6.095-3.172 0-4.355-3.738-4.355-6.095Zm-11.4-8.842a6.793 6.793 0 0 1 6.786 6.786l-.002.147c-2.613-.298-4.868-.88-7.913-3.267a.938.938 0 0 0-1.064-.064l-4.576 2.771A6.792 6.792 0 0 1 30 22.9Zm-5.097 13.022c-.783-1.271-1.331-2.882-1.562-4.524l4.89-2.961c3.18 2.359 5.668 2.958 8.387 3.264-.26 1.579-.807 3.103-1.573 4.306-.87 1.368-2.453 3-5.045 3-2.12 0-3.836-1.038-5.097-3.085Zm-15.01-4.18a4.355 4.355 0 0 1 8.709 0c0 2.357-1.182 6.095-4.354 6.095S9.892 34.1 9.892 31.742Zm-4.494 18.56v-6.259c0-2.388 2.125-4.33 4.736-4.33h8.225c.505 0 1.007.074 1.49.222-3.001 1.423-5.065 4.338-5.065 7.696v2.67H5.398Zm37.941 6.886h-4.752v-5.78a.938.938 0 0 0-1.875 0v5.78H23.29v-5.78a.938.938 0 0 0-1.875 0v5.78h-4.756V47.63c0-3.721 3.293-6.75 7.34-6.75h12c4.048 0 7.34 3.029 7.34 6.75v9.556ZM54.604 50.3h-9.39v-2.67c0-3.359-2.063-6.273-5.065-7.696a5.091 5.091 0 0 1 1.49-.223h8.225c2.614 0 4.74 1.943 4.74 4.331V50.3ZM24.79 12.1l-.731 5.074a.937.937 0 0 0 1.342.974l4.598-2.264 4.602 2.265a.938.938 0 0 0 1.342-.975l-.731-5.074 3.575-3.676a.937.937 0 0 0-.512-1.577l-5.054-.875-2.393-4.535a.938.938 0 0 0-1.658 0l-2.39 4.535-5.053.875a.938.938 0 0 0-.512 1.577L24.79 12.1Zm2.765-4.36a.937.937 0 0 0 .67-.486l1.774-3.37 1.778 3.37a.939.939 0 0 0 .67.487l3.756.65-2.657 2.732a.936.936 0 0 0-.256.787l.544 3.771L30.414 14a.938.938 0 0 0-.829 0l-3.417 1.683.544-3.77a.94.94 0 0 0-.256-.788l-2.657-2.732 3.756-.65ZM7.39 13.682l-.502 3.494a.938.938 0 0 0 1.342.975l3.166-1.56 3.164 1.56a.938.938 0 0 0 1.342-.975l-.502-3.493 2.462-2.53a.937.937 0 0 0-.512-1.577l-3.479-.602-1.645-3.12a.937.937 0 0 0-1.658-.001l-1.649 3.12-3.476.603a.937.937 0 0 0-.512 1.577l2.459 2.53Zm2.303-2.94a.936.936 0 0 0 .669-.485L11.396 8.3l1.031 1.957a.937.937 0 0 0 .67.486l2.18.378-1.543 1.586a.938.938 0 0 0-.256.787l.315 2.189-1.982-.977a.938.938 0 0 0-.83 0l-1.985.978.315-2.19a.938.938 0 0 0-.256-.787L7.514 11.12l2.179-.378Zm34.906 2.94-.502 3.494a.937.937 0 0 0 1.342.975l3.167-1.56 3.167 1.56a.938.938 0 0 0 1.342-.976l-.506-3.492 2.462-2.529a.937.937 0 0 0-.512-1.578l-3.479-.602-1.645-3.12a.938.938 0 0 0-1.658-.001l-1.649 3.12-3.476.603a.937.937 0 0 0-.512 1.577l2.459 2.53Zm2.303-2.94a.939.939 0 0 0 .669-.486L48.605 8.3l1.03 1.957a.937.937 0 0 0 .67.486l2.181.378-1.543 1.586a.938.938 0 0 0-.256.788l.316 2.188-1.984-.978a.939.939 0 0 0-.828 0l-1.986.978.315-2.189a.939.939 0 0 0-.256-.787l-1.542-1.587 2.18-.378Z"/>
</svg>
