<svg width="60" height="60" viewBox="0 0 60 60" fill="none" xmlns="http://www.w3.org/2000/svg">
<path d="M46.259 39.0332C42.2749 39.0332 39.0332 42.2749 39.0332 46.259C39.0332 50.2431 42.2749 53.4848 46.259 53.4848C50.2431 53.4848 53.4848 50.2431 53.4848 46.259C53.4848 42.2749 50.2431 39.0332 46.259 39.0332ZM46.259 51.6784C43.2702 51.6784 40.8397 49.2478 40.8397 46.259C40.8397 43.2702 43.2702 40.8397 46.259 40.8397C49.2478 40.8397 51.6784 43.2702 51.6784 46.259C51.6784 49.2478 49.2478 51.6784 46.259 51.6784Z" fill="#282928"/>
<path d="M46.2594 42.6465C44.2669 42.6465 42.6465 44.2669 42.6465 46.2594C42.6465 48.2519 44.2669 49.8723 46.2594 49.8723C48.2519 49.8723 49.8723 48.2519 49.8723 46.2594C49.8723 44.2669 48.2519 42.6465 46.2594 42.6465ZM46.2594 48.0658C45.2631 48.0658 44.4529 47.2556 44.4529 46.2594C44.4529 45.2631 45.2631 44.4529 46.2594 44.4529C47.2556 44.4529 48.0658 45.2631 48.0658 46.2594C48.0658 47.2556 47.2556 48.0658 46.2594 48.0658Z" fill="#282928"/>
<path d="M56.1732 41.9022L56.9283 40.3225L52.1918 35.5878L50.6129 36.3428C50.4711 36.2805 50.3293 36.2209 50.1875 36.1658L49.6067 34.5156H42.9093L42.3267 36.1649C42.1849 36.2209 42.0431 36.2796 41.9013 36.3419L40.3225 35.5869L35.5859 40.3216L36.341 41.9013C36.2787 42.0413 36.22 42.184 36.164 42.3267L34.5156 42.9084V49.6067L36.1649 50.1884C36.2209 50.3311 36.2796 50.4729 36.3419 50.6138L35.5869 52.1936L40.3234 56.9283L41.9022 56.1732C42.044 56.2355 42.1858 56.2951 42.3276 56.3502L42.9084 57.9995H49.6058L50.1884 56.3502C50.3302 56.2942 50.472 56.2355 50.6138 56.1732L52.1927 56.9283L56.9292 52.1936L56.1741 50.6138C56.2364 50.4738 56.2951 50.3311 56.3511 50.1884L57.9995 49.6067V42.9084L56.3502 42.3267C56.2942 42.184 56.2355 42.0422 56.1732 41.9022ZM56.193 48.3278L54.9358 48.7712L54.7939 49.1849C54.6747 49.5327 54.5302 49.8813 54.3631 50.22L54.1698 50.6138L54.7461 51.8196L51.8178 54.7479L50.6129 54.1707L50.22 54.364C49.8759 54.5329 49.5281 54.6774 49.1849 54.7948L48.7712 54.9358L48.3278 56.193H44.1865L43.743 54.9348L43.3293 54.7939C42.9861 54.6765 42.6383 54.532 42.2942 54.3631L41.9013 54.1698L40.6964 54.747L37.7681 51.8187L38.3444 50.6129L38.1511 50.2191C37.984 49.8804 37.8395 49.5318 37.7203 49.184L37.5785 48.7703L36.3221 48.3278V44.1874L37.5794 43.7439L37.7212 43.3302C37.8404 42.9825 37.9849 42.6338 38.152 42.2951L38.3453 41.9013L37.769 40.6955L40.6973 37.7672L41.9022 38.3444L42.2951 38.1511C42.6392 37.9822 42.987 37.8377 43.3302 37.7203L43.7439 37.5794L44.1874 36.3221H48.3287L48.7721 37.5803L49.1858 37.7212C49.529 37.8386 49.8768 37.9831 50.2209 38.152L50.6138 38.3453L51.8187 37.7681L54.747 40.6964L54.1707 41.9022L54.364 42.296C54.5311 42.6347 54.6756 42.9834 54.7948 43.3311L54.9367 43.7448L56.193 44.1874V48.3278Z" fill="#282928"/>
<path d="M55.2903 11.0323H36.3226V7.41935C36.3226 3.86155 27.6895 2 19.1613 2C10.633 2 2 3.86155 2 7.41935V34.5161C2 38.0739 10.633 39.9355 19.1613 39.9355C27.6895 39.9355 36.3226 38.0739 36.3226 34.5161V29.0968H43.5484V30C43.5484 31.4939 44.7641 32.7097 46.2581 32.7097C47.1053 32.7097 47.9155 32.305 48.4258 31.6258L50.3226 29.0968H55.2903C56.7843 29.0968 58 27.881 58 26.3871V13.7419C58 12.248 56.7843 11.0323 55.2903 11.0323ZM19.1613 3.80645C29.0968 3.80645 34.5161 6.19368 34.5161 7.41935C34.5161 8.64503 29.0968 11.0323 19.1613 11.0323C9.22581 11.0323 3.80645 8.64503 3.80645 7.41935C3.80645 6.19368 9.22581 3.80645 19.1613 3.80645ZM3.80645 9.96916C6.77445 11.8578 12.9868 12.8387 19.1613 12.8387C25.3357 12.8387 31.5481 11.8578 34.5161 9.96916V11.1985C33.4675 11.5724 32.7097 12.5659 32.7097 13.7419V17.9618C29.9187 19.2471 24.7071 20.0645 19.1613 20.0645C9.22581 20.0645 3.80645 17.6773 3.80645 16.4516V9.96916ZM3.80645 19.0014C6.77445 20.8901 12.9868 21.871 19.1613 21.871C24.568 21.871 29.5628 21.1375 32.7097 19.9191V26.3871C32.7097 26.5849 32.7341 26.7764 32.7738 26.9624C30.009 28.2703 24.8191 29.0968 19.1613 29.0968C9.22581 29.0968 3.80645 26.7095 3.80645 25.4839V19.0014ZM19.1613 38.129C9.22581 38.129 3.80645 35.7418 3.80645 34.5161V28.0337C6.77445 29.9223 12.9868 30.9032 19.1613 30.9032C25.2635 30.9032 30.7343 29.9919 33.7448 28.5006C33.9751 28.684 34.2334 28.8294 34.5161 28.9297V34.5161C34.5161 35.7418 29.0968 38.129 19.1613 38.129ZM56.1935 26.3871C56.1935 26.8857 55.788 27.2903 55.2903 27.2903H49.4194L46.9815 30.5419C46.8108 30.7686 46.5408 30.9032 46.2581 30.9032C45.7604 30.9032 45.3548 30.4986 45.3548 30V27.2903H35.4194C34.9217 27.2903 34.5161 26.8857 34.5161 26.3871V13.7419C34.5161 13.2434 34.9217 12.8387 35.4194 12.8387H55.2903C55.788 12.8387 56.1935 13.2434 56.1935 13.7419V26.3871Z" fill="#282928"/>
<path d="M14.7182 14.6477C14.1509 14.6008 13.5593 14.5439 12.9532 14.4707L12.7383 16.2645C13.3669 16.3395 13.9802 16.4 14.57 16.4488L14.7182 14.6477Z" fill="#282928"/>
<path d="M11.2038 14.2267C10.6285 14.1337 10.0486 14.0271 9.47235 13.9043L9.0957 15.6719C9.70267 15.8011 10.3114 15.9131 10.9157 16.0106L11.2038 14.2267Z" fill="#282928"/>
<path d="M7.76785 13.4896C7.1925 13.3307 6.63611 13.1536 6.11224 12.9648L5.49805 14.6638C6.06527 14.8688 6.66682 15.0594 7.28643 15.231L7.76785 13.4896Z" fill="#282928"/>
<path d="M11.2038 23.258C10.6285 23.165 10.0486 23.0584 9.47235 22.9355L9.0957 24.7032C9.70267 24.8323 10.3114 24.9443 10.9157 25.0419L11.2038 23.258Z" fill="#282928"/>
<path d="M7.76785 22.5228C7.1925 22.3639 6.63611 22.1868 6.11224 21.998L5.49805 23.697C6.06527 23.902 6.66682 24.0926 7.28643 24.2642L7.76785 22.5228Z" fill="#282928"/>
<path d="M14.7182 23.6809C14.1509 23.634 13.5593 23.5771 12.9532 23.5039L12.7383 25.2977C13.3669 25.3727 13.9802 25.4332 14.57 25.482L14.7182 23.6809Z" fill="#282928"/>
<path d="M5.49805 32.7263C6.06527 32.9313 6.66682 33.1219 7.28643 33.2935L7.76785 31.5521C7.1925 31.3932 6.63611 31.2161 6.11224 31.0273L5.49805 32.7263Z" fill="#282928"/>
<path d="M12.7383 34.329C13.3669 34.4039 13.9802 34.4644 14.57 34.5132L14.7182 32.7122C14.1509 32.6652 13.5593 32.6083 12.9532 32.5352L12.7383 34.329Z" fill="#282928"/>
<path d="M9.0957 33.7364C9.70267 33.8655 10.3114 33.9775 10.9157 34.0751L11.2038 32.2912C10.6285 32.1982 10.0486 32.0916 9.47235 31.9688L9.0957 33.7364Z" fill="#282928"/>
<path d="M52.5803 20.0658H50.7739V23.6787H48.9674V18.2594H47.161V23.6787H45.3545V20.0658H43.5481V23.6787H41.7416V16.4529H39.9352V23.6787H38.1287V14.6465H36.3223V25.4852H54.3868V23.6787H52.5803V20.0658Z" fill="#282928"/>
<path d="M10.1289 43.5488H26.387V45.3553H10.1289V43.5488Z" fill="#282928"/>
<path d="M10.1289 47.1602H11.9354V48.9666H10.1289V47.1602Z" fill="#282928"/>
<path d="M13.7422 47.1602H26.3873V48.9666H13.7422V47.1602Z" fill="#282928"/>
<path d="M10.1289 50.7734H26.387V52.5799H10.1289V50.7734Z" fill="#282928"/>
</svg>
