<svg width="60" height="60" viewBox="0 0 60 60" fill="none" xmlns="http://www.w3.org/2000/svg">
<path d="M44.0458 40.2189C44.1799 40.0849 44.2684 39.9121 44.2988 39.7249C44.3292 39.5378 44.2999 39.3459 44.2152 39.1763L42.8896 36.5244C43.2166 35.8735 43.4941 35.1989 43.7196 34.5063L46.5382 33.5669C46.7181 33.5069 46.8745 33.3919 46.9853 33.2381C47.0961 33.0843 47.1558 32.8995 47.1558 32.71V30.8584C50.1832 30.6278 53.0035 29.2328 55.0241 26.9663C57.0446 24.6998 58.1082 21.7383 57.9913 18.704C57.8744 15.6697 56.5861 12.7988 54.3971 10.6946C52.2081 8.59031 49.2888 7.41646 46.2526 7.41964H26.7576L27.9253 6.25177L26.6483 4.97461L23.9389 7.68429C23.7696 7.85367 23.6744 8.08336 23.6744 8.32287C23.6744 8.56237 23.7696 8.79207 23.9389 8.96145L26.6483 11.6711L27.9253 10.394L26.7576 9.22609H46.2526C48.8099 9.22401 51.2695 10.2085 53.1191 11.9746C54.9688 13.7407 56.0661 16.1522 56.1825 18.7071C56.2989 21.262 55.4254 23.7634 53.7439 25.6904C52.0625 27.6173 49.7026 28.8214 47.1558 29.0519V27.2906C47.1558 27.101 47.0962 26.9163 46.9854 26.7625C46.8746 26.6087 46.7182 26.4936 46.5384 26.4337L43.7197 25.4943C43.4942 24.8017 43.2168 24.127 42.8897 23.4762L44.2153 20.8243C44.3 20.6547 44.3293 20.4628 44.2989 20.2756C44.2685 20.0885 44.18 19.9157 44.0459 19.7816L40.2138 15.9496C40.0797 15.8157 39.9069 15.7274 39.7199 15.697C39.5329 15.6666 39.341 15.6957 39.1714 15.7802L36.5202 17.1059C35.8695 16.7783 35.1949 16.5005 34.5022 16.2751L33.5621 13.4565C33.5023 13.2766 33.3873 13.1202 33.2336 13.0094C33.0799 12.8985 32.8952 12.8389 32.7057 12.839H27.2869C27.0974 12.8389 26.9127 12.8985 26.7589 13.0094C26.6052 13.1202 26.4903 13.2766 26.4305 13.4565L25.4903 16.2751C24.7976 16.5005 24.123 16.7783 23.4724 17.1059L20.8213 15.7802C20.6517 15.6955 20.4598 15.6662 20.2726 15.6966C20.0855 15.727 19.9127 15.8155 19.7787 15.9496L15.9466 19.7816C15.8125 19.9157 15.724 20.0885 15.6936 20.2756C15.6632 20.4628 15.6925 20.6547 15.7773 20.8243L17.1028 23.4762C16.7758 24.127 16.4984 24.8017 16.273 25.4943L13.4542 26.4337C13.2744 26.4936 13.118 26.6087 13.0072 26.7625C12.8964 26.9163 12.8368 27.101 12.8368 27.2906V29.1428C9.81076 29.3751 6.99241 30.7709 4.97343 33.0371C2.95444 35.3033 1.89184 38.2636 2.00871 41.2966C2.12558 44.3296 3.41283 47.1993 5.60021 49.3034C7.78759 51.4075 10.705 52.5822 13.7399 52.5809H33.2348L32.067 53.7488L33.3441 55.026L36.0535 52.3163C36.2228 52.1469 36.3179 51.9172 36.3179 51.6777C36.3179 51.4382 36.2228 51.2085 36.0535 51.0391L33.3441 48.3294L32.067 49.6066L33.2348 50.7745H13.7399C11.1826 50.7766 8.72308 49.7921 6.87339 48.026C5.02371 46.2599 3.92644 43.8483 3.81005 41.2934C3.69367 38.7385 4.56714 36.2372 6.2486 34.3102C7.93005 32.3832 10.2899 31.1792 12.8368 30.9487V32.71C12.8368 32.8995 12.8964 33.0843 13.0072 33.2381C13.118 33.3919 13.2744 33.5069 13.4542 33.5669L16.273 34.5063C16.4984 35.1989 16.7758 35.8736 17.1028 36.5244L15.7773 39.1763C15.6925 39.3459 15.6632 39.5378 15.6936 39.7249C15.724 39.9121 15.8125 40.0849 15.9466 40.2189L19.7787 44.051C19.9128 44.1849 20.0856 44.2732 20.2727 44.3036C20.4598 44.334 20.6516 44.3049 20.8213 44.2203L23.4724 42.8946C24.1231 43.2221 24.7977 43.4997 25.4903 43.725L26.4305 46.5441C26.4903 46.724 26.6052 46.8804 26.7589 46.9912C26.9127 47.1021 27.0974 47.1617 27.2869 47.1616H32.7057C32.8952 47.1617 33.0799 47.1021 33.2336 46.9912C33.3873 46.8804 33.5023 46.724 33.5621 46.5441L34.5022 43.725C35.1949 43.4997 35.8695 43.2221 36.5202 42.8946L39.1714 44.2203C39.3411 44.3045 39.5329 44.3334 39.7198 44.303C39.9068 44.2726 40.0795 44.1845 40.2138 44.051L44.0458 40.2189ZM39.3971 42.3134L36.9135 41.0715C36.7828 41.0062 36.6382 40.9736 36.4921 40.9764C36.346 40.9792 36.2028 41.0174 36.0747 41.0877C35.2701 41.5274 34.4198 41.8777 33.539 42.1325C33.399 42.1735 33.271 42.2477 33.1659 42.349C33.0609 42.4502 32.9819 42.5754 32.9357 42.7138L32.0547 45.3551H27.9377L27.0571 42.7138C27.011 42.5754 26.932 42.4502 26.827 42.349C26.7219 42.2477 26.5939 42.1735 26.4539 42.1325C25.5731 41.8777 24.7228 41.5274 23.9182 41.0877C23.7902 41.0174 23.6469 40.9791 23.5009 40.9763C23.3548 40.9735 23.2102 41.0061 23.0795 41.0715L20.5959 42.3134L17.6846 39.4021L18.9264 36.9182C18.9915 36.7875 19.0241 36.6431 19.0213 36.4971C19.0185 36.3511 18.9805 36.208 18.9105 36.0799C18.4714 35.2749 18.1212 34.4244 17.8662 33.5435C17.8254 33.4033 17.7512 33.2751 17.65 33.1699C17.5488 33.0646 17.4235 32.9855 17.285 32.9393L14.6434 32.0586V27.9416L17.285 27.061C17.4235 27.0147 17.5488 26.9356 17.65 26.8304C17.7512 26.7251 17.8254 26.5969 17.8662 26.4567C18.1212 25.5759 18.4714 24.7254 18.9105 23.9203C18.9805 23.7922 19.0185 23.6491 19.0213 23.5031C19.0241 23.3572 18.9915 23.2127 18.9264 23.082L17.6846 20.5982L20.5959 17.6868L23.0795 18.9288C23.2103 18.9939 23.3548 19.0265 23.5009 19.0237C23.6469 19.0208 23.7901 18.9827 23.9182 18.9125C24.7228 18.4728 25.5731 18.1225 26.4539 17.8677C26.5939 17.8268 26.7219 17.7525 26.827 17.6513C26.932 17.5501 27.011 17.4249 27.0571 17.2865L27.9377 14.6445H32.0547L32.9353 17.2865C32.9814 17.4249 33.0604 17.5501 33.1655 17.6513C33.2705 17.7525 33.3986 17.8268 33.5386 17.8677C34.4194 18.1225 35.2696 18.4728 36.0742 18.9125C36.2024 18.9827 36.3456 19.0208 36.4916 19.0236C36.6377 19.0265 36.7823 18.9939 36.913 18.9288L39.3966 17.6868L42.308 20.5982L41.0662 23.082C41.001 23.2127 40.9684 23.3572 40.9712 23.5031C40.9739 23.6491 41.012 23.7922 41.082 23.9203C41.5211 24.7254 41.8713 25.5758 42.1262 26.4567C42.1671 26.5969 42.2413 26.7251 42.3425 26.8304C42.4437 26.9356 42.569 27.0147 42.7075 27.061L45.3492 27.9416V32.059L42.7075 32.9396C42.569 32.9858 42.4437 33.065 42.3425 33.1702C42.2413 33.2754 42.1671 33.4037 42.1262 33.5439C41.8713 34.4247 41.5211 35.2752 41.082 36.0802C41.012 36.2083 40.9739 36.3515 40.9712 36.4975C40.9684 36.6434 41.001 36.7879 41.0662 36.9185L42.308 39.4024L39.3971 42.3134Z" fill="#282928"/>
<path d="M29.9973 21.8711C28.3897 21.8711 26.8182 22.3479 25.4816 23.2411C24.1449 24.1343 23.1031 25.4039 22.4879 26.8893C21.8727 28.3747 21.7117 30.0091 22.0253 31.586C22.339 33.1629 23.1131 34.6114 24.2498 35.7482C25.3866 36.8851 26.8349 37.6593 28.4116 37.973C29.9883 38.2866 31.6226 38.1256 33.1078 37.5104C34.5931 36.8951 35.8625 35.8532 36.7557 34.5164C37.6488 33.1796 38.1255 31.6079 38.1255 30.0001C38.1231 27.8449 37.2659 25.7787 35.7421 24.2547C34.2183 22.7307 32.1523 21.8735 29.9973 21.8711ZM29.9973 36.3227C28.747 36.3227 27.5247 35.9519 26.4851 35.2572C25.4454 34.5624 24.6351 33.575 24.1566 32.4197C23.6781 31.2644 23.5529 29.9931 23.7969 28.7667C24.0408 27.5402 24.6429 26.4136 25.5271 25.5294C26.4112 24.6452 27.5376 24.043 28.764 23.799C29.9903 23.5551 31.2614 23.6803 32.4166 24.1588C33.5718 24.6374 34.5591 25.4477 35.2538 26.4875C35.9485 27.5272 36.3192 28.7496 36.3192 30.0001C36.3173 31.6764 35.6506 33.2834 34.4654 34.4687C33.2803 35.654 31.6734 36.3208 29.9973 36.3227Z" fill="#282928"/>
<path d="M2.90313 14.6452H19.1595C19.399 14.6452 19.6287 14.55 19.7981 14.3806C19.9675 14.2112 20.0626 13.9815 20.0626 13.7419V2.90323C20.0626 2.66368 19.9675 2.43394 19.7981 2.26455C19.6287 2.09516 19.399 2 19.1595 2H2.90313C2.66361 2 2.43389 2.09516 2.26452 2.26455C2.09515 2.43394 2 2.66368 2 2.90323V13.7419C2 13.9815 2.09515 14.2112 2.26452 14.3806C2.43389 14.55 2.66361 14.6452 2.90313 14.6452ZM3.80626 3.80645H18.2564V12.8387H3.80626V3.80645Z" fill="#282928"/>
<path d="M57.0911 45.3555H40.8348C40.5952 45.3555 40.3655 45.4506 40.1962 45.62C40.0268 45.7894 39.9316 46.0191 39.9316 46.2587V57.0974C39.9316 57.337 40.0268 57.5667 40.1962 57.7361C40.3655 57.9055 40.5952 58.0006 40.8348 58.0006H57.0911C57.3307 58.0006 57.5604 57.9055 57.7297 57.7361C57.8991 57.5667 57.9943 57.337 57.9943 57.0974V46.2587C57.9943 46.0191 57.8991 45.7894 57.7297 45.62C57.5604 45.4506 57.3307 45.3555 57.0911 45.3555ZM56.188 56.1942H41.7379V47.1619H56.188V56.1942Z" fill="#282928"/>
<path d="M5.61328 5.61328H16.4509V7.41973H5.61328V5.61328Z" fill="#282928"/>
<path d="M5.61328 9.22461H16.4509V11.0311H5.61328V9.22461Z" fill="#282928"/>
<path d="M43.5449 48.9688H54.3825V50.7752H43.5449V48.9688Z" fill="#282928"/>
<path d="M43.5449 52.5801H54.3825V54.3865H43.5449V52.5801Z" fill="#282928"/>
<path d="M29.0944 31.4322L27.0233 29.3611L25.7461 30.6383L28.4558 33.348C28.6252 33.5173 28.8548 33.6124 29.0944 33.6124C29.3339 33.6124 29.5636 33.5173 29.7329 33.348L34.2491 28.8319L32.9719 27.5547L29.0944 31.4322Z" fill="#282928"/>
</svg>
