<svg width="60" height="60" viewBox="0 0 60 60" fill="none" xmlns="http://www.w3.org/2000/svg">
<path d="M54.1455 6H5.85447C4.83165 6.00157 3.85127 6.40764 3.12859 7.12903C2.4059 7.85043 2 8.82818 2 9.8476V50.1524C2 51.1718 2.4059 52.1496 3.12859 52.871C3.85127 53.5924 4.83165 53.9984 5.85447 54H54.1455C55.1683 53.9984 56.1487 53.5924 56.8714 52.871C57.5941 52.1496 58 51.1718 58 50.1524V9.8476C58 8.82818 57.5941 7.85043 56.8714 7.12903C56.1487 6.40764 55.1683 6.00157 54.1455 6ZM56.2664 50.1524C56.2664 50.7136 56.0431 51.2518 55.6456 51.6492C55.248 52.0466 54.7086 52.2706 54.1455 52.2721H5.85447C5.29144 52.2706 4.752 52.0466 4.35444 51.6492C3.95687 51.2518 3.73361 50.7136 3.73362 50.1524V14.2355H56.2664V50.1524ZM56.2664 12.5077H3.73362V9.8476C3.73361 9.28644 3.95687 8.74817 4.35444 8.35081C4.752 7.95345 5.29144 7.72943 5.85447 7.72786H54.1455C54.7086 7.72943 55.248 7.95345 55.6456 8.35081C56.0431 8.74817 56.2664 9.28644 56.2664 9.8476V12.5077Z" fill="#282928"/>
<path d="M21.0923 28.1007L31.3213 31.3248C31.4057 31.353 31.4943 31.3671 31.5834 31.3664C31.7666 31.3669 31.9452 31.3098 32.0939 31.2032C32.2426 31.0966 32.3538 30.9459 32.4115 30.7726C32.7658 29.6445 32.9466 28.4693 32.9476 27.2872C32.9398 24.2268 31.7152 21.2942 29.5423 19.1318C27.3693 16.9694 24.4251 15.7535 21.3545 15.7503C21.241 15.7472 21.128 15.7663 21.022 15.8067C20.916 15.8471 20.819 15.9079 20.7366 15.9856C20.6541 16.0634 20.5879 16.1565 20.5416 16.2598C20.4953 16.3631 20.4699 16.4745 20.4668 16.5875V27.2753C20.4673 27.4619 20.5285 27.6432 20.6413 27.7921C20.7542 27.9409 20.9124 28.0492 21.0923 28.1007ZM22.2183 17.4901C23.6158 17.6133 24.9709 18.0322 26.1931 18.7189C27.4153 19.4055 28.4765 20.344 29.3058 21.4719C30.1352 22.5997 30.7137 23.8909 31.0027 25.2592C31.2917 26.6275 31.2845 28.0416 30.9817 29.4069L22.2183 26.6459V17.4901Z" fill="#282928"/>
<path d="M17.9838 41.2106C20.4491 41.2185 22.8521 40.4394 24.8407 38.9873C26.8294 37.5352 28.2993 35.4865 29.0349 33.1413C29.07 33.0338 29.0833 32.9203 29.0741 32.8075C29.0649 32.6948 29.0334 32.585 28.9813 32.4844C28.9292 32.3839 28.8576 32.2947 28.7707 32.222C28.6838 32.1492 28.5832 32.0944 28.4749 32.0607L18.8476 29.0265V18.9681C18.843 18.7429 18.7499 18.5285 18.5884 18.3708C18.4269 18.2132 18.2099 18.125 17.9838 18.125C14.9091 18.125 11.9603 19.3424 9.78619 21.5093C7.61205 23.6762 6.39062 26.6152 6.39062 29.6797C6.39062 32.7442 7.61205 35.6831 9.78619 37.8501C11.9603 40.017 14.9091 41.2344 17.9838 41.2344V41.2106ZM17.114 19.8647V29.6559C17.1135 29.8385 17.1708 30.0166 17.2778 30.1648C17.3847 30.313 17.5359 30.4237 17.7098 30.4813L27.0749 33.4501C26.3999 35.0561 25.309 36.4545 23.9137 37.5022C22.5184 38.5499 20.8688 39.2093 19.1338 39.4129C17.3988 39.6165 15.6407 39.357 14.0394 38.6609C12.4381 37.9649 11.0511 36.8573 10.0203 35.4515C8.9896 34.0457 8.35213 32.3922 8.17317 30.6601C7.99421 28.9281 8.2802 27.1798 9.00185 25.5942C9.7235 24.0085 10.8549 22.6424 12.2803 21.6357C13.7057 20.629 15.3738 20.0178 17.114 19.8647Z" fill="#282928"/>
<path d="M31.416 50.2244H37.5522V38.9844H31.416V50.2244ZM33.1496 40.7241H35.8186V48.4965H33.1496V40.7241Z" fill="#282928"/>
<path d="M39.4473 50.2242H45.5775V36.0332H39.4473V50.2242ZM41.1809 37.7551H43.8498V48.4963H41.1809V37.7551Z" fill="#282928"/>
<path d="M47.4727 50.2245H53.6088V31.7168H47.4727V50.2245ZM49.2063 33.4447H51.8752V48.4966H49.2063V33.4447Z" fill="#282928"/>
<path d="M38.7031 15.7266H52.7448V17.4544H38.7031V15.7266Z" fill="#282928"/>
<path d="M38.7031 20.5898H52.7448V22.3177H38.7031V20.5898Z" fill="#282928"/>
<path d="M7.25391 43.6328H21.2956V45.3607H7.25391V43.6328Z" fill="#282928"/>
<path d="M7.25391 48.4961H21.2956V50.2239H7.25391V48.4961Z" fill="#282928"/>
<path d="M7.25391 8.83789H11.4479V10.5657H7.25391V8.83789Z" fill="#282928"/>
<path d="M38.7031 25.8555H52.7448V27.5833H38.7031V25.8555Z" fill="#282928"/>
</svg>
