<svg width="60" height="60" viewBox="0 0 60 60" fill="none" xmlns="http://www.w3.org/2000/svg">
<path d="M4.49554 53.1702V44.017H24.1058C24.4337 44.012 24.7464 43.8752 24.9765 43.6361C25.2065 43.397 25.3353 43.0749 25.3351 42.7395C25.3348 42.404 25.2055 42.0821 24.9751 41.8434C24.7447 41.6046 24.4317 41.4683 24.1039 41.4638H4.49554V31.2511H27.9184C28.246 31.2487 28.5596 31.1146 28.7914 30.8778C29.0232 30.641 29.1547 30.3204 29.1575 29.9853C29.1603 29.6501 29.0342 29.3273 28.8064 29.0864C28.5786 28.8456 28.2674 28.706 27.9399 28.6979H4.49554V18.4851H41.7665V22.2842C41.7764 22.616 41.9123 22.9308 42.1452 23.1619C42.3781 23.393 42.6898 23.5222 43.0143 23.5222C43.3387 23.5222 43.6504 23.393 43.8834 23.1619C44.1163 22.9308 44.2521 22.616 44.262 22.2842V6.82979C44.2612 5.81431 43.8666 4.84067 43.1648 4.12262C42.4629 3.40457 41.5113 3.00081 40.5187 3H5.74332C4.75053 3 3.7984 3.40349 3.09639 4.12172C2.39438 4.83994 2 5.81406 2 6.82979V53.1702C2.00077 54.1857 2.3954 55.1594 3.09724 55.8774C3.79908 56.5955 4.75076 56.9992 5.74332 57H29.2638C29.5947 57 29.9121 56.8655 30.1461 56.6261C30.3801 56.3867 30.5116 56.062 30.5116 55.7234C30.5116 55.3848 30.3801 55.0601 30.1461 54.8207C29.9121 54.5813 29.5947 54.4468 29.2638 54.4468H5.74332C5.41239 54.4468 5.09501 54.3123 4.86101 54.0729C4.62701 53.8335 4.49554 53.5088 4.49554 53.1702ZM4.49554 6.82979C4.49497 6.66198 4.52685 6.49571 4.58935 6.34056C4.65185 6.18541 4.74374 6.04444 4.85972 5.92578C4.9757 5.80712 5.11348 5.71311 5.26513 5.64916C5.41678 5.58522 5.57929 5.5526 5.74332 5.55319H40.5187C40.6827 5.55261 40.8452 5.58523 40.9969 5.64918C41.1485 5.71313 41.2863 5.80714 41.4023 5.9258C41.5183 6.04445 41.6102 6.18542 41.6727 6.34056C41.7352 6.49571 41.7671 6.66198 41.7665 6.82979V15.9319H4.49554V6.82979ZM22.0037 12.099H9.52612C9.1994 12.0925 8.88821 11.9552 8.6594 11.7165C8.43059 11.4778 8.30241 11.1568 8.3024 10.8225C8.30238 10.4881 8.43054 10.1671 8.65934 9.92843C8.88814 9.68972 9.19932 9.55235 9.52604 9.54582H22.0038C22.3304 9.5525 22.6414 9.68994 22.8701 9.92862C23.0987 10.1673 23.2268 10.4882 23.2268 10.8224C23.2268 11.1566 23.0987 11.4775 22.8701 11.7162C22.6414 11.9549 22.3303 12.0923 22.0037 12.099ZM29.9961 12.8797C29.4722 12.8719 28.9723 12.6534 28.6044 12.2716C28.2366 11.8898 28.0304 11.3752 28.0304 10.8391C28.0304 10.3029 28.2366 9.78836 28.6044 9.40651C28.9722 9.02466 29.4721 8.80621 29.996 8.79839C30.5198 8.80641 31.0195 9.02493 31.3872 9.40674C31.7548 9.78854 31.9609 10.303 31.9609 10.839C31.961 11.3749 31.7549 11.8894 31.3873 12.2712C31.0196 12.653 30.5199 12.8716 29.9961 12.8797ZM36.235 12.8797C35.711 12.8719 35.2111 12.6534 34.8433 12.2716C34.4755 11.8898 34.2693 11.3752 34.2693 10.8391C34.2692 10.3029 34.4754 9.78836 34.8432 9.40651C35.2111 9.02466 35.7109 8.80621 36.2349 8.79839C36.7587 8.80641 37.2584 9.02493 37.6261 9.40674C37.9937 9.78854 38.1998 10.303 38.1998 10.839C38.1998 11.3749 37.9938 11.8894 37.6261 12.2712C37.2585 12.653 36.7588 12.8716 36.235 12.8797ZM22.0036 22.3118C22.3304 22.3183 22.6416 22.4556 22.8704 22.6943C23.0992 22.933 23.2274 23.254 23.2274 23.5883C23.2274 23.9227 23.0992 24.2437 22.8704 24.4824C22.6416 24.7211 22.3304 24.8584 22.0037 24.865H9.52612C9.1994 24.8585 8.88821 24.7211 8.6594 24.4824C8.43059 24.2437 8.30241 23.9227 8.3024 23.5884C8.30238 23.2541 8.43054 22.9331 8.65934 22.6944C8.88814 22.4557 9.19932 22.3183 9.52604 22.3118H22.0036ZM31.9906 23.6049C31.983 24.1409 31.7695 24.6524 31.3963 25.0287C31.0231 25.405 30.5201 25.616 29.9961 25.616C29.4721 25.616 28.9691 25.4051 28.5959 25.0288C28.2226 24.6525 28.0091 24.141 28.0015 23.605C28.0088 23.0687 28.2221 22.5569 28.5954 22.1803C28.9686 21.8036 29.4718 21.5925 29.996 21.5925C30.5202 21.5925 31.0234 21.8036 31.3967 22.1802C31.77 22.5568 31.9833 23.0686 31.9906 23.6049ZM38.2295 23.6049C38.2218 24.1409 38.0083 24.6524 37.6351 25.0287C37.2619 25.405 36.759 25.616 36.2349 25.616C35.7109 25.616 35.208 25.4051 34.8347 25.0288C34.4615 24.6525 34.248 24.141 34.2403 23.605C34.2476 23.0687 34.461 22.5569 34.8342 22.1803C35.2075 21.8036 35.7106 21.5925 36.2349 21.5925C36.7591 21.5925 37.2623 21.8036 37.6355 22.1802C38.0088 22.5568 38.2222 23.0686 38.2295 23.6049ZM22.0037 35.0777C22.3304 35.0842 22.6416 35.2216 22.8704 35.4603C23.0992 35.6989 23.2274 36.0199 23.2274 36.3543C23.2274 36.6886 23.0993 37.0096 22.8705 37.2483C22.6417 37.487 22.3305 37.6244 22.0038 37.6309H9.52612C9.1994 37.6244 8.88821 37.487 8.6594 37.2484C8.43059 37.0097 8.30241 36.6887 8.3024 36.3543C8.30238 36.02 8.43054 35.699 8.65934 35.4603C8.88814 35.2216 9.19932 35.0842 9.52604 35.0777H22.0037ZM22.0037 47.8437C22.3304 47.8502 22.6416 47.9875 22.8704 48.2262C23.0992 48.4649 23.2274 48.7859 23.2274 49.1202C23.2274 49.4546 23.0993 49.7756 22.8705 50.0143C22.6417 50.253 22.3305 50.3903 22.0038 50.3969H9.52612C9.1994 50.3904 8.88821 50.253 8.6594 50.0143C8.43059 49.7756 8.30241 49.4546 8.3024 49.1203C8.30238 48.786 8.43054 48.465 8.65934 48.2263C8.88814 47.9876 9.19932 47.8502 9.52604 47.8437H22.0037ZM55.6292 37.9915H53.6078C53.4232 37.4161 53.1938 36.8569 52.9216 36.3191L54.3565 34.8638C54.7962 34.4063 55.0436 33.791 55.0459 33.1494C55.0483 32.5078 54.8053 31.8906 54.369 31.4298L52.7968 29.8213C52.3509 29.3675 51.7475 29.1128 51.1185 29.1128C50.4896 29.1128 49.8862 29.3675 49.4403 29.8213L48.0053 31.2894C47.4795 31.015 46.9328 30.7845 46.3708 30.6V28.5191C46.3715 27.9232 46.1564 27.348 45.767 26.9048C45.3775 26.4615 44.8414 26.1816 44.262 26.1191C44.221 26.0744 41.8954 26.0989 41.7665 26.0936C41.1402 26.0981 40.5411 26.3556 40.0994 26.8098C39.6578 27.2641 39.4093 27.8784 39.4082 28.5191C39.3772 28.5007 39.4305 30.54 39.4082 30.6C38.8246 30.737 38.2992 31.11 37.7487 31.2511L36.3512 29.8213C35.9052 29.3675 35.3019 29.1128 34.6729 29.1128C34.044 29.1128 33.4406 29.3675 32.9947 29.8213L31.5972 31.2511C31.3419 31.4686 31.1335 31.738 30.9851 32.0422C30.8368 32.3464 30.7517 32.6787 30.7353 33.0182C30.7189 33.3578 30.7715 33.6971 30.8897 34.0147C31.008 34.3324 31.1894 34.6215 31.4225 34.8638L32.8574 36.3191C32.5895 36.8589 32.3602 37.4178 32.1711 37.9915H30.1497C29.5215 37.9934 28.9196 38.2495 28.4754 38.704C28.0312 39.1585 27.7808 39.7743 27.779 40.417V42.6894C27.7793 43.3325 28.0292 43.9493 28.4737 44.4041C28.9182 44.8589 29.5211 45.1146 30.1497 45.1149H32.1711C32.3557 45.6903 32.5852 46.2495 32.8574 46.7872L31.4225 48.2553C30.9789 48.7115 30.73 49.3289 30.73 49.9723C30.73 50.6158 30.9789 51.2331 31.4225 51.6894L32.9947 53.2979C33.4492 53.7345 34.0494 53.9776 34.6729 53.9776C35.2965 53.9776 35.8966 53.7345 36.3512 53.2979L37.7861 51.817C38.3087 52.0891 38.851 52.3196 39.4082 52.5064V54.5745C39.4137 55.216 39.6653 55.8297 40.1087 56.2833C40.5521 56.737 41.1519 56.9943 41.779 57H44C44.3114 57.0001 44.6197 56.9375 44.9074 56.8157C45.1951 56.6938 45.4565 56.5152 45.6767 56.2899C45.8969 56.0646 46.0715 55.7972 46.1906 55.5028C46.3097 55.2085 46.3709 54.893 46.3708 54.5745V52.5064C46.9308 52.3274 47.4737 52.0967 47.9929 51.817L49.4403 53.2979C49.8908 53.7443 50.494 53.9928 51.1211 53.9904C51.7482 53.988 52.3496 53.7349 52.7968 53.2851L54.3565 51.6894C54.8 51.2331 55.049 50.6158 55.049 49.9723C55.049 49.3289 54.8 48.7115 54.3565 48.2553L52.9216 46.7872C53.1938 46.2495 53.4233 45.6902 53.6078 45.1149H55.6292C55.9406 45.115 56.249 45.0524 56.5367 44.9306C56.8244 44.8087 57.0858 44.6301 57.3059 44.4048C57.5261 44.1795 57.7007 43.9121 57.8198 43.6177C57.9389 43.3234 58.0001 43.0079 58 42.6894V40.417C57.9982 39.7743 57.7478 39.1584 57.3036 38.704C56.8594 38.2495 56.2574 37.9934 55.6292 37.9915ZM55.5045 42.5617H53.4831C52.9835 42.5684 52.4988 42.7361 52.0978 43.0409C51.6968 43.3457 51.4 43.7722 51.2496 44.2596C50.7405 45.6682 49.7507 47.2311 51.075 48.5106L52.4973 49.966L51.1123 51.3957L49.6774 49.9277C49.3213 49.5661 48.861 49.3312 48.3645 49.2577C47.868 49.1841 47.3615 49.2758 46.9198 49.5192C45.6123 50.0996 43.817 50.5704 43.8753 52.3788L43.8752 54.4468H41.9037C41.9631 53.4999 41.917 52.5491 41.7665 51.6128C41.4215 50.2895 39.9151 50.0678 38.8717 49.5192C38.4301 49.2753 37.9235 49.1834 37.4269 49.2569C36.9302 49.3305 36.4699 49.5657 36.1141 49.9277L34.6667 51.3957L33.2692 49.966L34.7041 48.4979C36.0133 47.2311 35.0647 45.6595 34.5292 44.2596C34.3806 43.7711 34.0842 43.3436 33.6829 43.0384C33.2815 42.7333 32.7959 42.5664 32.2959 42.5617H30.2745V40.5447H32.2959C32.7969 40.5442 33.2846 40.3789 33.6867 40.0731C34.0889 39.7674 34.3843 39.3375 34.5294 38.8468C35.0552 37.4585 36.018 35.8546 34.704 34.6085L33.2692 33.1404L34.6667 31.7106L36.1016 33.1787C37.3399 34.5181 38.8758 33.5477 40.2442 32.9998C40.722 32.8484 41.1403 32.5454 41.4387 32.1346C41.737 31.7238 41.8999 31.2266 41.9037 30.7149V28.6468H43.8752V30.7149C43.8785 31.2268 44.0412 31.7243 44.3396 32.1352C44.638 32.5461 45.0567 32.849 45.5348 33C46.9014 33.5472 48.4415 34.5184 49.6774 33.1786L51.1123 31.7106L52.5098 33.1404L51.0749 34.6085C49.7561 35.8779 50.7323 37.4427 51.2498 38.8468C51.3979 39.3355 51.6942 39.7634 52.0956 40.0686C52.497 40.3738 52.9829 40.5405 53.4831 40.5447H55.5045V42.5617ZM42.8923 34.3846C33.4943 34.6903 33.4965 48.6316 42.8925 48.9358C52.2903 48.6301 52.2882 34.6888 42.8923 34.3846ZM42.8923 46.3826C41.6771 46.3687 40.5162 45.8651 39.6616 44.9809C38.8071 44.0968 38.3278 42.9035 38.3278 41.6601C38.3278 40.4167 38.8071 39.2235 39.6617 38.3394C40.5163 37.4553 41.6772 36.9516 42.8925 36.9378C44.1073 36.9523 45.2677 37.4562 46.1217 38.3402C46.9758 39.2243 47.4548 40.4172 47.4548 41.6603C47.4548 42.9033 46.9757 44.0962 46.1216 44.9802C45.2675 45.8643 44.1072 46.3682 42.8923 46.3826Z" fill="#282928"/>
</svg>
