<svg width="60" height="60" viewBox="0 0 60 60" fill="none" xmlns="http://www.w3.org/2000/svg">
<path d="M41.4509 19.8274L50.9777 10.3006C51.913 10.9197 53.045 11.1694 54.1539 11.0012C55.2629 10.8329 56.2699 10.2589 56.9796 9.39025C57.6892 8.52164 58.051 7.42042 57.9948 6.30017C57.9385 5.17992 57.4682 4.12049 56.6751 3.32735C55.8819 2.53422 54.8225 2.06391 53.7023 2.00765C52.582 1.95139 51.4808 2.31319 50.6122 3.02287C49.7436 3.73255 49.1695 4.73953 49.0013 5.8485C48.8331 6.95748 49.0827 8.08941 49.7018 9.02475L40.175 18.5516C37.6068 16.2608 34.3392 14.9061 30.9035 14.7076V10.962C31.999 10.7384 32.9724 10.116 33.6351 9.21551C34.2977 8.31498 34.6024 7.20049 34.49 6.08809C34.3776 4.9757 33.8562 3.94465 33.0269 3.19485C32.1975 2.44505 31.1193 2.0299 30.0012 2.0299C28.8832 2.0299 27.8049 2.44505 26.9756 3.19485C26.1462 3.94465 25.6248 4.9757 25.5124 6.08809C25.4 7.20049 25.7047 8.31498 26.3674 9.21551C27.03 10.116 28.0034 10.7384 29.0989 10.962V14.7085C25.6632 14.907 22.3957 16.2617 19.8274 18.5525L10.3006 9.02475C10.9197 8.08941 11.1694 6.95748 11.0012 5.8485C10.8329 4.73953 10.2589 3.73255 9.39025 3.02287C8.52164 2.31319 7.42042 1.95139 6.30017 2.00765C5.17992 2.06391 4.12049 2.53422 3.32735 3.32735C2.53422 4.12049 2.06391 5.17992 2.00765 6.30017C1.95139 7.42042 2.31319 8.52164 3.02287 9.39025C3.73255 10.2589 4.73953 10.8329 5.8485 11.0012C6.95748 11.1694 8.08941 10.9197 9.02475 10.3006L18.5516 19.8274C16.2608 22.3957 14.9061 25.6632 14.7076 29.0989H10.962C10.7384 28.0034 10.116 27.03 9.21551 26.3674C8.31498 25.7047 7.20049 25.4 6.08809 25.5124C4.9757 25.6248 3.94465 26.1462 3.19485 26.9756C2.44505 27.8049 2.0299 28.8832 2.0299 30.0012C2.0299 31.1193 2.44505 32.1975 3.19485 33.0269C3.94465 33.8562 4.9757 34.3776 6.08809 34.49C7.20049 34.6024 8.31498 34.2977 9.21551 33.6351C10.116 32.9724 10.7384 31.999 10.962 30.9035H14.7085C14.907 34.3392 16.2617 37.6068 18.5525 40.175L9.02475 49.7018C8.08941 49.0827 6.95748 48.8331 5.8485 49.0013C4.73953 49.1695 3.73255 49.7436 3.02287 50.6122C2.31319 51.4808 1.95139 52.582 2.00765 53.7023C2.06391 54.8225 2.53422 55.8819 3.32735 56.6751C4.12049 57.4682 5.17992 57.9385 6.30017 57.9948C7.42042 58.051 8.52164 57.6892 9.39025 56.9796C10.2589 56.2699 10.8329 55.2629 11.0012 54.1539C11.1694 53.045 10.9197 51.913 10.3006 50.9777L19.8274 41.4509C22.3957 43.7417 25.6632 45.0964 29.0989 45.2948V49.0404C28.0034 49.264 27.03 49.8864 26.3674 50.7869C25.7047 51.6875 25.4 52.802 25.5124 53.9143C25.6248 55.0267 26.1462 56.0578 26.9756 56.8076C27.8049 57.5574 28.8832 57.9725 30.0012 57.9725C31.1193 57.9725 32.1975 57.5574 33.0269 56.8076C33.8562 56.0578 34.3776 55.0267 34.49 53.9143C34.6024 52.802 34.2977 51.6875 33.6351 50.7869C32.9724 49.8864 31.999 49.264 30.9035 49.0404V45.2948C34.3392 45.0964 37.6068 43.7417 40.175 41.4509L49.7018 50.9777C49.0827 51.913 48.8331 53.045 49.0013 54.1539C49.1695 55.2629 49.7436 56.2699 50.6122 56.9796C51.4808 57.6892 52.582 58.051 53.7023 57.9948C54.8225 57.9385 55.8819 57.4682 56.6751 56.6751C57.4682 55.8819 57.9385 54.8225 57.9948 53.7023C58.051 52.582 57.6892 51.4808 56.9796 50.6122C56.2699 49.7436 55.2629 49.1695 54.1539 49.0013C53.045 48.8331 51.913 49.0827 50.9777 49.7018L41.4509 40.175C43.7417 37.6068 45.0964 34.3392 45.2948 30.9035H49.0404C49.264 31.999 49.8864 32.9724 50.7869 33.6351C51.6875 34.2977 52.802 34.6024 53.9143 34.49C55.0267 34.3776 56.0578 33.8562 56.8076 33.0269C57.5574 32.1975 57.9725 31.1193 57.9725 30.0012C57.9725 28.8832 57.5574 27.8049 56.8076 26.9756C56.0578 26.1462 55.0267 25.6248 53.9143 25.5124C52.802 25.4 51.6875 25.7047 50.7869 26.3674C49.8864 27.03 49.264 28.0034 49.0404 29.0989H45.2948C45.0964 25.6632 43.7417 22.3957 41.4509 19.8274ZM6.54063 32.7082C6.00524 32.7082 5.48187 32.5494 5.03671 32.252C4.59155 31.9545 4.24458 31.5318 4.0397 31.0371C3.83481 30.5425 3.7812 29.9982 3.88565 29.4731C3.9901 28.948 4.24792 28.4657 4.6265 28.0871C5.00508 27.7085 5.48742 27.4507 6.01252 27.3462C6.53763 27.2418 7.08191 27.2954 7.57655 27.5003C8.07119 27.7052 8.49396 28.0521 8.79141 28.4973C9.08886 28.9425 9.24762 29.4658 9.24762 30.0012C9.24762 30.7192 8.96242 31.4077 8.45476 31.9153C7.9471 32.423 7.25857 32.7082 6.54063 32.7082ZM53.4618 27.2942C53.9972 27.2942 54.5206 27.453 54.9657 27.7504C55.4109 28.0479 55.7578 28.4707 55.9627 28.9653C56.1676 29.4599 56.2212 30.0042 56.1168 30.5293C56.0123 31.0544 55.7545 31.5368 55.3759 31.9153C54.9974 32.2939 54.515 32.5517 53.9899 32.6562C53.4648 32.7606 52.9205 32.707 52.4259 32.5021C51.9312 32.2973 51.5085 31.9503 51.211 31.5051C50.9136 31.06 50.7548 30.5366 50.7548 30.0012C50.7548 29.2833 51.04 28.5947 51.5477 28.0871C52.0553 27.5794 52.7439 27.2942 53.4618 27.2942ZM53.4618 3.83364C53.9972 3.83364 54.5206 3.9924 54.9657 4.28985C55.4109 4.5873 55.7578 5.01007 55.9627 5.50471C56.1676 5.99935 56.2212 6.54363 56.1168 7.06874C56.0123 7.59384 55.7545 8.07618 55.3759 8.45476C54.9974 8.83334 54.515 9.09116 53.9899 9.19561C53.4648 9.30006 52.9205 9.24645 52.4259 9.04156C51.9312 8.83668 51.5085 8.48972 51.211 8.04455C50.9136 7.59939 50.7548 7.07602 50.7548 6.54063C50.7548 5.82269 51.04 5.13416 51.5477 4.6265C52.0553 4.11884 52.7439 3.83364 53.4618 3.83364ZM27.2942 6.54063C27.2942 6.00524 27.453 5.48187 27.7504 5.03671C28.0479 4.59155 28.4707 4.24458 28.9653 4.0397C29.4599 3.83481 30.0042 3.7812 30.5293 3.88565C31.0544 3.9901 31.5368 4.24792 31.9153 4.6265C32.2939 5.00508 32.5517 5.48742 32.6562 6.01252C32.7606 6.53763 32.707 7.08191 32.5021 7.57655C32.2973 8.07119 31.9503 8.49396 31.5051 8.79141C31.06 9.08886 30.5366 9.24762 30.0012 9.24762C29.2833 9.24762 28.5947 8.96242 28.0871 8.45476C27.5794 7.9471 27.2942 7.25857 27.2942 6.54063ZM6.54063 9.24762C6.00524 9.24762 5.48187 9.08886 5.03671 8.79141C4.59155 8.49396 4.24458 8.07119 4.0397 7.57655C3.83481 7.08191 3.7812 6.53763 3.88565 6.01252C3.9901 5.48742 4.24792 5.00508 4.6265 4.6265C5.00508 4.24792 5.48742 3.9901 6.01252 3.88565C6.53763 3.7812 7.08191 3.83481 7.57655 4.0397C8.07119 4.24458 8.49396 4.59155 8.79141 5.03671C9.08886 5.48187 9.24762 6.00524 9.24762 6.54063C9.24762 7.25857 8.96242 7.9471 8.45476 8.45476C7.9471 8.96242 7.25857 9.24762 6.54063 9.24762ZM6.54063 56.1688C6.00524 56.1688 5.48187 56.01 5.03671 55.7126C4.59155 55.4151 4.24458 54.9924 4.0397 54.4977C3.83481 54.0031 3.7812 53.4588 3.88565 52.9337C3.9901 52.4086 4.24792 51.9263 4.6265 51.5477C5.00508 51.1691 5.48742 50.9113 6.01252 50.8068C6.53763 50.7024 7.08191 50.756 7.57655 50.9609C8.07119 51.1658 8.49396 51.5127 8.79141 51.9579C9.08886 52.403 9.24762 52.9264 9.24762 53.4618C9.24762 54.1797 8.96242 54.8683 8.45476 55.3759C7.9471 55.8836 7.25857 56.1688 6.54063 56.1688ZM32.7082 53.4618C32.7082 53.9972 32.5494 54.5206 32.252 54.9657C31.9545 55.4109 31.5318 55.7578 31.0371 55.9627C30.5425 56.1676 29.9982 56.2212 29.4731 56.1168C28.948 56.0123 28.4657 55.7545 28.0871 55.3759C27.7085 54.9974 27.4507 54.515 27.3462 53.9899C27.2418 53.4648 27.2954 52.9205 27.5003 52.4259C27.7052 51.9312 28.0521 51.5085 28.4973 51.211C28.9425 50.9136 29.4658 50.7548 30.0012 50.7548C30.7192 50.7548 31.4077 51.04 31.9153 51.5477C32.423 52.0553 32.7082 52.7439 32.7082 53.4618ZM53.4618 50.7548C53.9972 50.7548 54.5206 50.9136 54.9657 51.211C55.4109 51.5085 55.7578 51.9312 55.9627 52.4259C56.1676 52.9205 56.2212 53.4648 56.1168 53.9899C56.0123 54.515 55.7545 54.9974 55.3759 55.3759C54.9974 55.7545 54.515 56.0123 53.9899 56.1168C53.4648 56.2212 52.9205 56.1676 52.4259 55.9627C51.9312 55.7578 51.5085 55.4109 51.211 54.9657C50.9136 54.5206 50.7548 53.9972 50.7548 53.4618C50.7548 52.7439 51.04 52.0553 51.5477 51.5477C52.0553 51.04 52.7439 50.7548 53.4618 50.7548ZM30.0012 43.5362C27.3243 43.5362 24.7074 42.7424 22.4816 41.2551C20.2558 39.7679 18.521 37.654 17.4966 35.1808C16.4721 32.7076 16.2041 29.9862 16.7263 27.3607C17.2486 24.7352 18.5377 22.3235 20.4306 20.4306C22.3235 18.5377 24.7352 17.2486 27.3607 16.7263C29.9862 16.2041 32.7076 16.4721 35.1808 17.4966C37.654 18.521 39.7679 20.2558 41.2551 22.4816C42.7424 24.7074 43.5362 27.3243 43.5362 30.0012C43.5321 33.5897 42.1048 37.03 39.5674 39.5674C37.03 42.1048 33.5897 43.5321 30.0012 43.5362Z" fill="#282928"/>
<path d="M38.406 24.6321L30.285 21.9251C30.0999 21.8635 29.8998 21.8635 29.7147 21.9251L21.5938 24.6321C21.414 24.692 21.2577 24.8069 21.1469 24.9606C21.0361 25.1143 20.9765 25.299 20.9766 25.4884V34.5117C20.9765 34.7012 21.0361 34.8859 21.1469 35.0396C21.2577 35.1933 21.414 35.3082 21.5938 35.3681L29.7147 38.0751C29.8998 38.1367 30.0999 38.1367 30.285 38.0751L38.406 35.3681C38.5857 35.3082 38.7421 35.1933 38.8528 35.0396C38.9636 34.8859 39.0232 34.7012 39.0232 34.5117V25.4884C39.0232 25.299 38.9636 25.1143 38.8528 24.9606C38.7421 24.8069 38.5857 24.692 38.406 24.6321ZM29.9999 23.7298L35.2677 25.4884L29.9999 27.2444L24.7321 25.4884L29.9999 23.7298ZM22.7812 26.7382L29.0975 28.8433V35.9636L22.7812 33.8585V26.7382ZM30.9022 35.9636V28.846L37.2185 26.7409V33.8612L30.9022 35.9636Z" fill="#282928"/>
</svg>
