<svg width="60" height="60" viewBox="0 0 60 60" fill="none" xmlns="http://www.w3.org/2000/svg">
<path d="M1.95 40.8819C1.98281 41.2944 2.28187 41.6366 2.68687 41.7238L5.95406 42.4288C6.06937 42.9856 6.21562 43.535 6.39281 44.0713L3.91969 46.3119C3.61313 46.5894 3.525 47.0356 3.70313 47.4097C4.155 48.3603 4.65844 49.2388 5.19938 50.0206C5.43375 50.36 5.86313 50.5063 6.25781 50.3797L9.43313 49.3569C9.81281 49.7825 10.2169 50.1866 10.6425 50.5663L9.61969 53.7416C9.49312 54.1344 9.63844 54.5647 9.97875 54.8C10.7606 55.3409 11.6391 55.8444 12.5897 56.2963C12.9647 56.4744 13.41 56.3853 13.6875 56.0797L15.9281 53.6066C16.4653 53.7828 17.0147 53.93 17.5716 54.0453L18.2766 57.3125C18.3638 57.7166 18.7059 58.0156 19.1175 58.0494C19.6163 58.0888 20.1159 58.1244 20.625 58.1244C21.1341 58.1244 21.6337 58.0888 22.1325 58.0494C22.545 58.0166 22.8872 57.7175 22.9744 57.3125L23.6794 54.0453C24.2362 53.93 24.7866 53.7838 25.3228 53.6066L27.5634 56.0797C27.8419 56.3863 28.2881 56.4753 28.6613 56.2963C29.6119 55.8444 30.4903 55.34 31.2722 54.8C31.6125 54.5647 31.7578 54.1344 31.6313 53.7416L30.6084 50.5663C31.0341 50.1866 31.4381 49.7825 31.8178 49.3578L34.9931 50.3806C35.3859 50.5081 35.8163 50.3619 36.0516 50.0216C36.5925 49.2397 37.0959 48.3613 37.5478 47.4106C37.7259 47.0366 37.6378 46.5903 37.3312 46.3128L34.8581 44.0722C35.0344 43.535 35.1816 42.9856 35.2969 42.4288L38.5641 41.7238C38.9681 41.6366 39.2672 41.2944 39.3009 40.8828C39.3394 40.3831 39.375 39.8834 39.375 39.3744C39.375 38.8653 39.3394 38.3656 39.3 37.8669C39.2672 37.4544 38.9681 37.1122 38.5631 37.025L35.2959 36.32C35.1806 35.7631 35.0344 35.2128 34.8572 34.6766L37.3303 32.4359C37.6369 32.1584 37.725 31.7122 37.5469 31.3381C37.095 30.3875 36.5906 29.5091 36.0506 28.7272C35.8153 28.3869 35.385 28.2406 34.9922 28.3681L31.8169 29.3909C31.4372 28.9653 31.0331 28.5613 30.6075 28.1816L31.6303 25.0063C31.7569 24.6134 31.6116 24.1831 31.2712 23.9478C30.4894 23.4069 29.6109 22.9034 28.6603 22.4516C28.2853 22.2725 27.84 22.3616 27.5625 22.6681L25.3219 25.1413C24.7847 24.965 24.2353 24.8178 23.6784 24.7025L22.9734 21.4353C22.8862 21.0313 22.5441 20.7322 22.1325 20.6984C21.1341 20.6178 20.115 20.6197 19.1166 20.6984C18.7041 20.7313 18.3619 21.0303 18.2747 21.4353L17.5697 24.7025C17.0128 24.8178 16.4634 24.9641 15.9272 25.1413L13.6866 22.6681C13.4091 22.3616 12.9638 22.2734 12.5888 22.4516C11.6381 22.9034 10.7597 23.4069 9.97781 23.9478C9.6375 24.1831 9.49219 24.6134 9.61875 25.0063L10.6416 28.1816C10.2159 28.5613 9.81187 28.9653 9.43219 29.3909L6.25781 28.3681C5.86406 28.2406 5.43375 28.3869 5.19938 28.7272C4.65844 29.5091 4.155 30.3875 3.70313 31.3381C3.525 31.7122 3.61313 32.1584 3.91969 32.4359L6.39281 34.6766C6.21656 35.2138 6.06937 35.7631 5.95406 36.32L2.68687 37.025C2.28281 37.1122 1.98375 37.4544 1.95 37.8659C1.91062 38.3656 1.875 38.8653 1.875 39.3744C1.875 39.8834 1.91062 40.3831 1.95 40.8819ZM3.76969 38.7097L6.95906 38.0206C7.33594 37.9391 7.62469 37.6353 7.68656 37.2547C7.82719 36.3903 8.05406 35.5419 8.36063 34.7319C8.4975 34.3719 8.39906 33.9641 8.11313 33.7053L5.70469 31.5228C5.91469 31.1206 6.13406 30.7353 6.36094 30.3706L9.45094 31.3663C9.81656 31.4834 10.2197 31.3663 10.4644 31.0681C11.0175 30.3913 11.6419 29.7678 12.3188 29.2138C12.6169 28.97 12.7359 28.5678 12.6169 28.2003L11.6212 25.1103C11.9859 24.8825 12.3703 24.6631 12.7734 24.4541L14.9559 26.8634C15.2156 27.1494 15.6244 27.2478 15.9834 27.1109C16.7916 26.8044 17.64 26.5775 18.5053 26.4369C18.8859 26.375 19.1897 26.0863 19.2712 25.7094L19.9594 22.52C20.4009 22.4966 20.85 22.4956 21.2897 22.52L21.9788 25.7094C22.0603 26.0863 22.3641 26.375 22.7447 26.4369C23.6091 26.5775 24.4575 26.8044 25.2675 27.1109C25.6256 27.2478 26.0344 27.1503 26.2941 26.8634L28.4766 24.455C28.8787 24.665 29.2641 24.8844 29.6288 25.1113L28.6331 28.2013C28.515 28.5688 28.6331 28.97 28.9313 29.2147C29.6081 29.7678 30.2316 30.3922 30.7856 31.0691C31.0303 31.3681 31.4325 31.4872 31.7991 31.3672L34.8891 30.3716C35.1169 30.7363 35.3363 31.1206 35.5453 31.5228L33.1359 33.7053C32.85 33.9641 32.7516 34.3719 32.8884 34.7328C33.195 35.5409 33.4219 36.3894 33.5625 37.2547C33.6244 37.6353 33.9131 37.9391 34.29 38.0206L37.4794 38.7088C37.4916 38.9291 37.5 39.1513 37.5 39.3744C37.5 39.5975 37.4925 39.8197 37.4803 40.0391L34.2909 40.7281C33.9141 40.8097 33.6253 41.1134 33.5634 41.4941C33.4228 42.3584 33.1959 43.2069 32.8894 44.0169C32.7525 44.3769 32.8509 44.7847 33.1369 45.0434L35.5453 47.2259C35.3353 47.6281 35.1159 48.0134 34.8891 48.3781L31.7991 47.3825C31.4306 47.2625 31.0303 47.3816 30.7856 47.6806C30.2334 48.3556 29.6091 48.98 28.9313 49.535C28.6331 49.7788 28.515 50.1809 28.6331 50.5475L29.6288 53.6375C29.2641 53.8653 28.8797 54.0847 28.4775 54.2938L26.295 51.8844C26.0363 51.5984 25.6284 51.5019 25.2675 51.6369C24.4594 51.9434 23.6109 52.1703 22.7456 52.3109C22.365 52.3728 22.0612 52.6616 21.9797 53.0384L21.2916 56.2278C20.85 56.2513 20.4009 56.2522 19.9612 56.2278L19.2722 53.0384C19.1906 52.6616 18.8869 52.3728 18.5062 52.3109C17.6419 52.1703 16.7934 51.9434 15.9834 51.6369C15.6244 51.5 15.2156 51.5975 14.9569 51.8844L12.7744 54.2928C12.3722 54.0828 11.9869 53.8634 11.6222 53.6366L12.6178 50.5466C12.7359 50.1791 12.6178 49.7778 12.3197 49.5331C11.6428 48.98 11.0194 48.3556 10.4653 47.6788C10.2206 47.3797 9.8175 47.2616 9.45187 47.3806L6.36187 48.3763C6.13406 48.0116 5.91469 47.6272 5.70562 47.2241L8.115 45.0416C8.40094 44.7828 8.49938 44.375 8.3625 44.0141C8.05594 43.2059 7.82906 42.3575 7.68844 41.4922C7.62656 41.1116 7.33781 40.8078 6.96094 40.7263L3.76969 40.04C3.75844 39.8197 3.75 39.5975 3.75 39.3744C3.75 39.1513 3.7575 38.9291 3.76969 38.7097Z" fill="#282928"/>
<path d="M50.8303 15.2198C51.1828 15.1092 51.4378 14.8008 51.48 14.4333C51.5362 13.9598 51.5625 13.5314 51.5625 13.1245C51.5625 12.7177 51.5362 12.2892 51.4809 11.8158C51.4387 11.4483 51.1838 11.1398 50.8313 11.0292L48.2316 10.2127C48.1537 9.99984 48.0675 9.79078 47.9728 9.58641L49.2328 7.17234C49.4034 6.84516 49.3659 6.44766 49.1372 6.15703C48.5944 5.47078 47.97 4.84641 47.2819 4.30172C46.9912 4.07203 46.5938 4.03547 46.2666 4.20516L43.8506 5.46516C43.6462 5.37141 43.4372 5.28516 43.2244 5.20734L42.4078 2.60766C42.2972 2.25516 41.9887 2.00016 41.6212 1.95797C40.6725 1.84734 39.9516 1.84734 39.0028 1.95797C38.6353 2.00016 38.3269 2.25516 38.2162 2.60766L37.3997 5.20734C37.1869 5.28516 36.9778 5.37141 36.7734 5.46609L34.3594 4.20609C34.0322 4.03641 33.6356 4.07297 33.3441 4.30172C32.6578 4.84453 32.0334 5.46891 31.4888 6.15703C31.2591 6.44766 31.2216 6.84422 31.3922 7.17234L32.6512 9.58641C32.5575 9.79078 32.4713 9.99984 32.3934 10.2127L29.7938 11.0292C29.4413 11.1398 29.1862 11.4483 29.1441 11.8158C29.0887 12.2892 29.0625 12.7177 29.0625 13.1245C29.0625 13.5314 29.0887 13.9598 29.1441 14.4333C29.1862 14.8008 29.4413 15.1092 29.7938 15.2198L32.3934 16.0364C32.4713 16.2492 32.5575 16.4583 32.6522 16.6627L31.3922 19.0767C31.2216 19.4039 31.2591 19.8014 31.4878 20.092C32.0306 20.7783 32.655 21.4027 33.3431 21.9473C33.6328 22.177 34.0312 22.2136 34.3584 22.0439L36.7725 20.7848C36.9769 20.8786 37.1859 20.9648 37.3987 21.0427L38.2153 23.6423C38.3259 23.9948 38.6344 24.2498 39.0019 24.292C39.4772 24.3483 39.9056 24.3745 40.3125 24.3745C40.7194 24.3745 41.1478 24.3483 41.6212 24.293C41.9887 24.2508 42.2972 23.9958 42.4078 23.6433L43.2244 21.0436C43.4372 20.9658 43.6462 20.8795 43.8506 20.7848L46.2647 22.0448C46.5919 22.2155 46.9894 22.1789 47.28 21.9492C47.9662 21.4064 48.5906 20.782 49.1353 20.0939C49.365 19.8033 49.4025 19.4067 49.2319 19.0786L47.9719 16.6645C48.0666 16.4602 48.1528 16.2511 48.2306 16.0383L50.8303 15.2198ZM47.2116 14.3911C46.9153 14.4848 46.6847 14.7183 46.5947 15.0164C46.4672 15.4402 46.2984 15.848 46.0941 16.2295C45.9469 16.5033 45.9441 16.8323 46.0884 17.107L47.2781 19.387C47.0559 19.6336 46.8206 19.8689 46.575 20.0902L44.295 18.9005C44.0194 18.7561 43.6903 18.7598 43.4175 18.9061C43.0359 19.1105 42.6281 19.2792 42.2044 19.4067C41.9072 19.4958 41.6728 19.7273 41.5791 20.0236L40.8066 22.4836C40.4644 22.5042 40.1616 22.5042 39.8184 22.4836L39.0459 20.0236C38.9522 19.7273 38.7187 19.4967 38.4206 19.4067C37.9959 19.2792 37.5881 19.1105 37.2084 18.9061C36.9347 18.7589 36.6056 18.7561 36.33 18.9005L34.05 20.0902C33.8034 19.868 33.5681 19.6327 33.3469 19.387L34.5366 17.107C34.68 16.8323 34.6781 16.5023 34.5309 16.2295C34.3266 15.848 34.1578 15.4402 34.0303 15.0164C33.9412 14.7192 33.7097 14.4848 33.4134 14.3911L30.9534 13.6186C30.9422 13.447 30.9375 13.283 30.9375 13.1245C30.9375 12.9661 30.9422 12.802 30.9534 12.6305L33.4134 11.858C33.7097 11.7642 33.9403 11.5308 34.0303 11.2327C34.1578 10.808 34.3266 10.4002 34.5309 10.0205C34.6781 9.74672 34.6809 9.41766 34.5366 9.14203L33.3469 6.86203C33.5691 6.61547 33.8044 6.38016 34.05 6.15891L36.33 7.34859C36.6047 7.49203 36.9347 7.48922 37.2075 7.34297C37.5891 7.13859 37.9969 6.96984 38.4206 6.84234C38.7178 6.75328 38.9522 6.52172 39.0459 6.22547L39.8184 3.76547C40.1606 3.74484 40.4634 3.74484 40.8066 3.76547L41.5791 6.22547C41.6728 6.52172 41.9063 6.75234 42.2044 6.84234C42.6291 6.96984 43.0369 7.13859 43.4166 7.34297C43.6903 7.49016 44.0194 7.49297 44.295 7.34859L46.575 6.15891C46.8216 6.38109 47.0569 6.61641 47.2781 6.86203L46.0884 9.14203C45.945 9.41672 45.9469 9.74672 46.0941 10.0195C46.2984 10.4011 46.4672 10.8089 46.5947 11.2327C46.6838 11.5298 46.9153 11.7642 47.2116 11.858L49.6716 12.6305C49.6828 12.802 49.6875 12.9661 49.6875 13.1245C49.6875 13.283 49.6828 13.447 49.6716 13.6186L47.2116 14.3911Z" fill="#282928"/>
<path d="M57.4331 32.778L55.8225 32.2062C55.7306 31.9446 55.6256 31.6887 55.5066 31.4402L56.2387 29.898C56.3916 29.5774 56.3494 29.1987 56.13 28.9193C55.6613 28.3202 55.1194 27.7774 54.5184 27.3068C54.2381 27.0874 53.8575 27.0462 53.5388 27.198L51.9956 27.9302C51.7481 27.8121 51.4922 27.7062 51.2306 27.6152L50.6578 26.0046C50.5387 25.6699 50.2397 25.4309 49.8872 25.3877C49.0519 25.2874 48.4472 25.2874 47.6119 25.3877C47.2594 25.4299 46.9603 25.669 46.8413 26.0046L46.2694 27.6152C46.0078 27.7071 45.7519 27.8121 45.5034 27.9312L43.9612 27.199C43.6425 27.0471 43.2628 27.0893 42.9825 27.3077C42.3834 27.7765 41.8406 28.3184 41.37 28.9193C41.1516 29.1987 41.1094 29.5784 41.2613 29.899L41.9934 31.4421C41.8753 31.6896 41.7694 31.9455 41.6784 32.2071L40.0678 32.7799C39.7331 32.899 39.4941 33.198 39.4509 33.5505C39.3994 33.9659 39.375 34.338 39.375 34.6868C39.375 35.0355 39.3994 35.4068 39.45 35.824C39.4922 36.1765 39.7312 36.4755 40.0669 36.5946L41.6775 37.1665C41.7694 37.428 41.8744 37.684 41.9934 37.9324L41.2613 39.4746C41.1084 39.7952 41.1506 40.174 41.37 40.4534C41.8387 41.0524 42.3806 41.5952 42.9816 42.0659C43.2609 42.2843 43.6416 42.3265 43.9612 42.1746L45.5044 41.4424C45.7519 41.5605 46.0078 41.6665 46.2694 41.7574L46.8422 43.368C46.9613 43.7027 47.2603 43.9418 47.6128 43.9849C48.03 44.0374 48.4012 44.0618 48.75 44.0618C49.0988 44.0618 49.47 44.0374 49.8872 43.9868C50.2397 43.9446 50.5387 43.7055 50.6578 43.3699L51.2297 41.7593C51.4913 41.6674 51.7472 41.5624 51.9956 41.4434L53.5378 42.1755C53.8575 42.3284 54.2381 42.2871 54.5166 42.0668C55.1156 41.598 55.6584 41.0562 56.1291 40.4552C56.3475 40.1759 56.3897 39.7962 56.2378 39.4755L55.5056 37.9324C55.6238 37.6849 55.7297 37.429 55.8206 37.1674L57.4312 36.5946C57.7659 36.4755 58.005 36.1765 58.0481 35.824C58.1006 35.4068 58.125 35.0355 58.125 34.6868C58.125 34.338 58.1006 33.9668 58.05 33.5496C58.0078 33.1962 57.7688 32.898 57.4331 32.778ZM56.2406 35.029L54.7547 35.5568C54.4669 35.659 54.2466 35.8952 54.165 36.1896C54.0422 36.6349 53.8669 37.0596 53.6447 37.4524C53.4947 37.7177 53.4834 38.0402 53.6137 38.3159L54.2869 39.7343C54.1312 39.9049 53.9681 40.068 53.7984 40.2227L52.38 39.5496C52.1063 39.4193 51.7828 39.4305 51.5166 39.5805C51.1228 39.8037 50.6981 39.978 50.2547 40.1009C49.9603 40.1824 49.7241 40.4027 49.6209 40.6905L49.0931 42.1765C48.8663 42.1887 48.6356 42.1887 48.4088 42.1765L47.8809 40.6905C47.7788 40.4027 47.5425 40.1824 47.2481 40.1009C46.8028 39.978 46.3781 39.8027 45.9853 39.5805C45.72 39.4315 45.3984 39.4202 45.1219 39.5496L43.7034 40.2227C43.5328 40.0671 43.3697 39.904 43.215 39.7343L43.8881 38.3159C44.0194 38.0402 44.0072 37.7177 43.8572 37.4524C43.6341 37.0587 43.4597 36.634 43.3369 36.1905C43.2553 35.8962 43.035 35.6599 42.7472 35.5568L41.2613 35.029C41.2538 34.9155 41.25 34.8021 41.25 34.6868C41.25 34.5715 41.2537 34.4571 41.2594 34.3446L42.7453 33.8159C43.0331 33.7137 43.2534 33.4774 43.3341 33.183C43.4578 32.7368 43.6331 32.313 43.8553 31.9202C44.0053 31.6549 44.0166 31.3324 43.8863 31.0568L43.2131 29.6384C43.3688 29.4677 43.5319 29.3046 43.7016 29.1499L45.12 29.823C45.3956 29.9543 45.7181 29.943 45.9834 29.7921C46.3772 29.569 46.8019 29.3946 47.2453 29.2718C47.5397 29.1902 47.7759 28.9699 47.8791 28.6821L48.4069 27.1962C48.6337 27.184 48.8644 27.184 49.0912 27.1962L49.6191 28.6821C49.7212 28.9699 49.9575 29.1902 50.2519 29.2718C50.6972 29.3946 51.1219 29.5699 51.5147 29.7921C51.7809 29.943 52.1025 29.9543 52.3781 29.823L53.7966 29.1499C53.9672 29.3055 54.1303 29.4687 54.285 29.6384L53.6119 31.0568C53.4806 31.3324 53.4928 31.6549 53.6428 31.9202C53.8659 32.314 54.0403 32.7387 54.1631 33.1821C54.2447 33.4765 54.465 33.7127 54.7528 33.8159L56.2387 34.3437C56.2462 34.458 56.25 34.5715 56.25 34.6868C56.25 34.8021 56.2463 34.9155 56.2406 35.029Z" fill="#282928"/>
<path d="M20.625 49.6875C26.3109 49.6875 30.9375 45.0609 30.9375 39.375C30.9375 33.6891 26.3109 29.0625 20.625 29.0625C14.9391 29.0625 10.3125 33.6891 10.3125 39.375C10.3125 45.0609 14.9391 49.6875 20.625 49.6875ZM20.625 30.9375C25.2769 30.9375 29.0625 34.7231 29.0625 39.375C29.0625 44.0269 25.2769 47.8125 20.625 47.8125C15.9731 47.8125 12.1875 44.0269 12.1875 39.375C12.1875 34.7231 15.9731 30.9375 20.625 30.9375Z" fill="#282928"/>
<path d="M1.89648 23.7748L3.33648 24.9757C7.6293 19.8279 13.9302 16.8757 20.6259 16.8757C21.103 16.8757 21.5793 16.9029 22.0555 16.9329L20.9005 18.0879L22.2262 19.4135L25.0387 16.601C25.4052 16.2345 25.4052 15.642 25.0387 15.2754L22.2262 12.4629L20.9005 13.7885L22.1746 15.0626C21.659 15.0298 21.1424 15.0007 20.6259 15.0007C13.3734 15.0007 6.54648 18.1985 1.89648 23.7748Z" fill="#282928"/>
<path d="M40.3125 8.4375C37.7278 8.4375 35.625 10.5403 35.625 13.125C35.625 15.7097 37.7278 17.8125 40.3125 17.8125C42.8972 17.8125 45 15.7097 45 13.125C45 10.5403 42.8972 8.4375 40.3125 8.4375ZM40.3125 15.9375C38.7619 15.9375 37.5 14.6756 37.5 13.125C37.5 11.5744 38.7619 10.3125 40.3125 10.3125C41.8631 10.3125 43.125 11.5744 43.125 13.125C43.125 14.6756 41.8631 15.9375 40.3125 15.9375Z" fill="#282928"/>
<path d="M48.75 30.9375C46.6819 30.9375 45 32.6194 45 34.6875C45 36.7556 46.6819 38.4375 48.75 38.4375C50.8181 38.4375 52.5 36.7556 52.5 34.6875C52.5 32.6194 50.8181 30.9375 48.75 30.9375ZM48.75 36.5625C47.7159 36.5625 46.875 35.7216 46.875 34.6875C46.875 33.6534 47.7159 32.8125 48.75 32.8125C49.7841 32.8125 50.625 33.6534 50.625 34.6875C50.625 35.7216 49.7841 36.5625 48.75 36.5625Z" fill="#282928"/>
<path d="M57.371 4.70633L52.6835 3.76883C52.1735 3.66571 51.6813 3.99664 51.5801 4.50383L50.6426 9.19133L52.481 9.55977L52.9863 7.03602C53.8948 8.92602 54.3748 11.0091 54.3748 13.1251C54.3748 16.3576 53.3079 19.397 51.2904 21.9141L52.7538 23.087C55.0085 20.2735 56.2498 16.7363 56.2498 13.1251C56.2498 10.6698 55.6826 8.24914 54.6035 6.06477L57.0035 6.54477L57.371 4.70633Z" fill="#282928"/>
</svg>
