<svg xmlns="http://www.w3.org/2000/svg" width="61" height="61" fill="none"><path fill="#282928" d="m44.812 15.584 1.24-1.24a1.025 1.025 0 0 0-1.45-1.449l-2.965 2.965a1.027 1.027 0 0 0 0 1.45l2.965 2.965a1.02 1.02 0 0 0 .725.3 1.032 1.032 0 0 0 .724-1.75l-1.188-1.189a12.82 12.82 0 0 1 12.289 12.787c-.706 17.002-24.926 16.992-25.627 0A14.88 14.88 0 0 0 16.661 15.56c-19.419.759-19.848 28.342-.473 29.703l-1.24 1.24a1.023 1.023 0 0 0 0 1.45 1.025 1.025 0 0 0 1.45-.001l2.965-2.965a1.025 1.025 0 0 0 0-1.45l-2.965-2.965a1.025 1.025 0 0 0-1.45 1.45l1.19 1.188c-16.609-1.303-16.157-24.953.524-25.6a12.83 12.83 0 0 1 12.813 12.813 14.88 14.88 0 0 0 14.864 14.864c19.419-.759 19.848-28.343.473-29.703"/><path fill="#282928" d="M24.864 28.014h-.637a8 8 0 0 0-1.69-2.93l.322-.56a1.724 1.724 0 0 0-.63-2.34l-1.208-.699a1.72 1.72 0 0 0-2.344.627l-.32.553a8 8 0 0 0-3.383-.002c-.296-.564-.685-1.218-1.363-1.356-.841-.317-1.82.51-2.511.87a1.72 1.72 0 0 0-.629 2.345l.32.554a7.96 7.96 0 0 0-1.694 2.927h-.642a1.72 1.72 0 0 0-1.717 1.717v1.394a1.72 1.72 0 0 0 1.717 1.716h.638a8 8 0 0 0 1.69 2.93l-.323.56a1.724 1.724 0 0 0 .63 2.34l1.208.698a1.72 1.72 0 0 0 2.345-.626l.319-.553a8 8 0 0 0 3.384.003l.32.557a1.72 1.72 0 0 0 2.345.626c.652-.432 1.863-.848 2.01-1.74a2.26 2.26 0 0 0-.493-1.858 7.95 7.95 0 0 0 1.695-2.927h.641a1.72 1.72 0 0 0 1.717-1.716V29.73a1.72 1.72 0 0 0-1.717-1.716m-.333 2.776c-.766.01-1.902-.193-2.102.821a5.88 5.88 0 0 1-1.862 3.215c-.783.67-.03 1.575.338 2.233l-.63.364c-.332-.524-.673-1.52-1.437-1.463a6.7 6.7 0 0 1-4.038.05c-.971-.345-1.38.76-1.765 1.406l-.63-.364c.37-.658 1.115-1.566.34-2.233a5.9 5.9 0 0 1-1.858-3.218c-.193-1.01-1.346-.812-2.099-.82v-.727c.767-.01 1.903.193 2.102-.821a5.88 5.88 0 0 1 1.862-3.215c.783-.671.03-1.576-.339-2.233l.632-.364.548.952a1.02 1.02 0 0 0 1.213.459 5.9 5.9 0 0 1 3.716.003c.969.34 1.378-.76 1.762-1.408l.631.365c-.37.658-1.116 1.566-.34 2.231a5.84 5.84 0 0 1 1.858 3.22 1.024 1.024 0 0 0 1.004.822h1.094z"/><path fill="#282928" d="M16.664 25.94a4.485 4.485 0 0 0 0 8.969 4.485 4.485 0 0 0 0-8.97Zm0 6.919a2.435 2.435 0 0 1 0-4.87 2.435 2.435 0 0 1 0 4.87m21.271 1.838a1.025 1.025 0 0 0 1.45-1.45l-2.825-2.824 2.825-2.824a1.025 1.025 0 1 0-1.45-1.45l-3.549 3.55a1.023 1.023 0 0 0 0 1.45zm11.357 0a1.026 1.026 0 0 0 1.45 0l3.549-3.549a1.025 1.025 0 0 0 0-1.45l-3.549-3.548a1.024 1.024 0 1 0-1.45 1.45l2.825 2.823-2.825 2.824a1.025 1.025 0 0 0 0 1.45m-5.289 1.298 2.66-10.645a1.025 1.025 0 0 0-1.987-.497l-2.661 10.645a1.025 1.025 0 0 0 1.988.497"/></svg>