<svg xmlns="http://www.w3.org/2000/svg" width="50" height="50" fill="none"><path fill="#000" d="M7.792 35.089c-3.16 0-5.73-2.57-5.73-5.73V20.07c0-3.16 2.57-5.73 5.73-5.73a.708.708 0 0 1 0 1.415 4.32 4.32 0 0 0-4.314 4.315v9.29a4.32 4.32 0 0 0 4.314 4.313.708.708 0 0 1 0 1.416M25.595 17.519a.71.71 0 0 1-.708-.708V7.839a4.326 4.326 0 0 0-4.32-4.32c-1.15 0-2.232.449-3.048 1.264a4.33 4.33 0 0 0-1.264 3.056.708.708 0 0 1-1.415 0c0-1.522.595-2.962 1.676-4.054a5.7 5.7 0 0 1 4.05-1.681 5.74 5.74 0 0 1 5.736 5.735v8.972c0 .39-.317.707-.707.707"/><path fill="#000" d="M10.736 17.55a.7.7 0 0 1-.202-.03A5.93 5.93 0 0 1 6.32 11.87a5.9 5.9 0 0 1 5.895-5.895 5.9 5.9 0 0 1 5.895 5.894.708.708 0 0 1-1.416 0c0-2.47-2.009-4.479-4.479-4.479s-4.48 2.01-4.48 4.48a4.5 4.5 0 0 0 3.202 4.294.708.708 0 0 1-.201 1.387M19.726 47.896A5.733 5.733 0 0 1 14 42.17a.708.708 0 0 1 1.415 0 4.316 4.316 0 0 0 4.311 4.311 4.25 4.25 0 0 0 3.045-1.262 4.25 4.25 0 0 0 1.267-3.05v-9.075a.708.708 0 0 1 1.415 0v9.076a5.66 5.66 0 0 1-1.681 4.05 5.65 5.65 0 0 1-4.046 1.676"/><path fill="#000" d="M10.87 44.503a5.9 5.9 0 0 1-5.893-5.894 5.9 5.9 0 0 1 5.894-5.895.708.708 0 0 1 0 1.415c-2.47 0-4.48 2.01-4.48 4.48s2.01 4.479 4.48 4.479a4.46 4.46 0 0 0 4.168-2.836.708.708 0 0 1 1.317.52 5.86 5.86 0 0 1-5.485 3.731M25.593 33.896a4.75 4.75 0 0 1-3.07-1.125.708.708 0 0 1 .916-1.08c.6.509 1.365.79 2.154.79a3.337 3.337 0 0 0 3.333-3.334v-8.293a3.337 3.337 0 0 0-3.333-3.334c-.857 0-1.671.325-2.294.914a.708.708 0 0 1-.972-1.027 4.73 4.73 0 0 1 3.266-1.302 4.754 4.754 0 0 1 4.748 4.749v8.293a4.754 4.754 0 0 1-4.748 4.749"/><path fill="#000" d="M39.652 30.707a.7.7 0 0 1-.5-.207l-2.415-2.415a1.03 1.03 0 0 0-.726-.302h-6.378a.708.708 0 0 1 0-1.415h6.378c.642 0 1.272.26 1.727.717l2.415 2.414a.707.707 0 0 1-.5 1.208M29.934 12.359h-4.34a.708.708 0 0 1 0-1.416h4.34c.27 0 .537-.109.733-.3l3.936-3.936a.707.707 0 1 1 1.001 1l-3.943 3.944a2.5 2.5 0 0 1-1.727.707M33.587 23.189a.71.71 0 0 1-.708-.708v-3.49c0-.655.264-1.287.724-1.734l1.368-1.378a.707.707 0 1 1 1.004.996l-1.377 1.387a1 1 0 0 0-.304.728v3.491c0 .39-.317.707-.707.707"/><path fill="#000" d="M36.617 8.514a2.944 2.944 0 0 1-2.941-2.94c0-1.622 1.32-2.942 2.941-2.942s2.94 1.32 2.94 2.941c0 1.622-1.319 2.94-2.94 2.94m0-4.467c-.842 0-1.526.685-1.526 1.526S35.775 7.1 36.617 7.1c.841 0 1.526-.685 1.526-1.526s-.685-1.526-1.526-1.526M39.218 23.188h-9.585a.708.708 0 0 1 0-1.415h9.585c.287 0 .561-.12.754-.328l3.106-3.342a.708.708 0 0 1 1.036.963l-3.104 3.34a2.44 2.44 0 0 1-1.792.782"/><path fill="#000" d="M45 19.782a2.944 2.944 0 0 1-2.941-2.94c0-1.622 1.319-2.942 2.94-2.942 1.622 0 2.941 1.32 2.941 2.941 0 1.622-1.32 2.94-2.94 2.94m0-4.466c-.842 0-1.526.684-1.526 1.525s.684 1.526 1.525 1.526 1.526-.685 1.526-1.526-.684-1.526-1.526-1.526M41.304 34.457a2.944 2.944 0 0 1-2.94-2.94c0-1.622 1.319-2.941 2.94-2.941s2.94 1.319 2.94 2.94c0 1.622-1.319 2.941-2.94 2.941m0-4.466c-.841 0-1.526.684-1.526 1.525 0 .842.685 1.526 1.526 1.526s1.526-.684 1.526-1.526c0-.84-.685-1.525-1.526-1.525M36.913 17.6a2.944 2.944 0 0 1-2.94-2.941c0-1.622 1.319-2.94 2.94-2.94 1.622 0 2.941 1.319 2.941 2.94s-1.32 2.94-2.94 2.94m0-4.467c-.84 0-1.525.685-1.525 1.526s.684 1.526 1.525 1.526c.842 0 1.526-.685 1.526-1.526s-.684-1.526-1.526-1.526M32.483 43.537a.7.7 0 0 1-.5-.207l-1.387-1.387a2.46 2.46 0 0 1-.717-1.727v-3.49a.708.708 0 0 1 1.415 0v3.49c0 .27.11.535.302.727l1.387 1.386a.707.707 0 0 1-.5 1.208"/><path fill="#000" d="M40.605 41.33a.7.7 0 0 1-.518-.226l-3.114-3.349a1.03 1.03 0 0 0-.755-.321H24.747a.708.708 0 0 1 0-1.415h11.471c.684 0 1.319.273 1.788.768l3.117 3.353a.708.708 0 0 1-.518 1.19"/><path fill="#000" d="M42.003 45.306a2.944 2.944 0 0 1-2.94-2.94c0-1.622 1.319-2.942 2.94-2.942 1.622 0 2.941 1.32 2.941 2.941s-1.32 2.94-2.94 2.94m0-4.467c-.84 0-1.525.685-1.525 1.526s.684 1.526 1.525 1.526 1.526-.685 1.526-1.526-.685-1.526-1.526-1.526M33.913 47.488a2.944 2.944 0 0 1-2.94-2.94 2.944 2.944 0 0 1 2.94-2.942 2.944 2.944 0 0 1 2.942 2.942c0 1.621-1.32 2.94-2.942 2.94m0-4.466c-.84 0-1.525.684-1.525 1.526 0 .84.684 1.525 1.525 1.525.842 0 1.527-.684 1.527-1.525 0-.842-.685-1.526-1.527-1.526M14.703 29.663a.71.71 0 0 1-.707-.707v-5.843a1.934 1.934 0 0 0-1.931-1.93 1.934 1.934 0 0 0-1.931 1.93v5.843a.708.708 0 0 1-1.415 0v-5.843a3.35 3.35 0 0 1 3.346-3.346 3.35 3.35 0 0 1 3.346 3.346v5.843c0 .39-.317.707-.708.707"/><path fill="#000" d="M14.703 25.886H9.426a.708.708 0 0 1 0-1.415h5.277a.708.708 0 0 1 0 1.415M18.801 29.661a.71.71 0 0 1-.707-.707v-8.236a.708.708 0 0 1 1.415 0v8.236c0 .39-.317.707-.708.707"/><path fill="#000" d="M20.281 21.425h-2.964a.708.708 0 0 1 0-1.415h2.964a.708.708 0 0 1 0 1.415M20.281 29.661h-2.964a.708.708 0 0 1 0-1.415h2.964a.708.708 0 0 1 0 1.415"/></svg>