<svg xmlns="http://www.w3.org/2000/svg" width="50" height="50" fill="none"><path fill="#000" d="M48.982 28.588c-.409-2.418-1.629-3.957-2.609-5.193-.879-1.109-1.575-1.987-1.587-3.199.505-6.185-.96-11.337-4.241-14.9-1.54-1.67-3.46-2.961-5.71-3.834C32.506.557 29.81.098 26.826.098c-7.14 0-12.973 3.396-16.087 9.337-5.384.11-9.73 4.526-9.73 9.936 0 3.927 2.289 7.328 5.602 8.942l-.288 1.075-.057-.016a.78.78 0 0 0-.957.553L2.954 38.71c-.187.698-.09 1.43.274 2.059a2.7 2.7 0 0 0 2.35 1.359c.47 0 .935-.124 1.355-.366a2.7 2.7 0 0 0 1.266-1.647l2.354-8.785a.78.78 0 0 0-.553-.957l-.058-.016.288-1.074a10 10 0 0 0 1.263.01 18.3 18.3 0 0 0 4.557 4.938c.236 4.966-1.126 8.863-2.127 11.725-.439 1.254-.784 2.244-.898 3.056a.78.78 0 0 0 .774.888h.002l21.363-.04c.43-.002.78-.351.78-.782 0-1.956-.64-3.691-1.155-5.086-.87-2.36-.864-2.807.037-3.202.516-.227 2.072.151 3.32.455 2.344.569 4.767 1.156 5.882-.231a.8.8 0 0 0 .152-.312c.557-2.389 1.084-3.145 1.431-3.646.309-.445.6-.864.6-1.787a.78.78 0 0 0-.308-.621q-.771-.588-1.091-.898c.32-.137.801-.292.998-.355a.78.78 0 0 0 .54-.74l.017-2.796 1.989-.375a.78.78 0 0 0 .626-.896M8.842 31.68l-.24.896-2.227-.596.24-.897zM6.69 39.71c-.079.295-.27.543-.538.698a1.145 1.145 0 0 1-1.57-.42 1.15 1.15 0 0 1-.118-.874l1.507-5.624 2.226.597zm1.745-9.757-.603-.161.243-.906q.298.09.603.162zM2.57 19.371c0-4.619 3.758-8.377 8.377-8.377s8.377 3.758 8.377 8.377-3.758 8.377-8.377 8.377-8.377-3.759-8.377-8.377m13.853 8.29a10 10 0 0 0 2.093-1.855v1.942h-2.093zm29.023.783a.78.78 0 0 0-.636.763l-.017 2.878c-.889.305-1.593.642-1.715 1.357-.13.761.482 1.363 1.542 2.188-.04.176-.127.3-.29.534-.404.582-1.01 1.454-1.618 3.964-.649.46-2.767-.055-4.195-.401-1.78-.432-3.318-.805-4.316-.368-1.088.477-1.632 1.27-1.616 2.363.012.838.349 1.754.74 2.812.417 1.133.882 2.394 1.018 3.766l-19.565.038c.157-.54.378-1.173.62-1.865 1.01-2.886 2.534-7.247 2.192-12.702a.78.78 0 0 0-.325-.587 16.7 16.7 0 0 1-4.06-4.134 10 10 0 0 0 1.655-.545v.022c0 .432.35.782.782.782h3.655c.431 0 .781-.35.781-.782v-5.233a9.9 9.9 0 0 0 .809-3.924 9.9 9.9 0 0 0-.737-3.754l13.292-7.674-.376 1.106a.781.781 0 0 0 1.48.504l1.046-3.073a.78.78 0 0 0-.588-1.019l-3.185-.63a.781.781 0 0 0-.303 1.531l1.145.227-13.217 7.632a9.96 9.96 0 0 0-6.986-4.674c2.911-5.027 8.084-7.886 14.367-7.886 5.474 0 9.703 1.58 12.572 4.694 2.982 3.24 4.306 7.994 3.83 13.747l-.003.064c0 1.771.934 2.951 1.924 4.2.835 1.052 1.695 2.136 2.13 3.734zM25.68 18.157h-3.656a.78.78 0 0 0-.78.782v9.59c0 .431.349.78.78.78h3.656c.431 0 .78-.349.78-.78v-9.59a.78.78 0 0 0-.78-.782m-.782 9.59h-2.092V19.72h2.092zm13.548-16.282h-3.655a.78.78 0 0 0-.781.781v16.282c0 .432.35.782.781.782h3.655c.432 0 .782-.35.782-.782V12.246a.78.78 0 0 0-.782-.781m-.781 16.282h-2.093v-14.72h2.093zm-5.602-12.936h-3.655a.78.78 0 0 0-.781.78v12.937c0 .432.35.782.781.782h3.655c.432 0 .782-.35.782-.782V15.592a.78.78 0 0 0-.782-.782m-.78 12.936h-2.094V16.373h2.093zm-20.336-15.97c-4.186 0-7.593 3.407-7.593 7.593 0 4.187 3.406 7.593 7.593 7.593 4.188 0 7.593-3.406 7.594-7.593-.001-4.186-3.407-7.593-7.594-7.593m0 13.624a6.04 6.04 0 0 1-6.031-6.03 6.037 6.037 0 0 1 6.031-6.03 6.04 6.04 0 0 1 6.032 6.031 6.04 6.04 0 0 1-6.032 6.03"/></svg>