<svg xmlns="http://www.w3.org/2000/svg" width="100" height="60" fill="none"><path fill="#282928" d="M79.234 39.34V20.644h5.65l3.393 12.754 3.355-12.754h5.663V39.34h-3.508V24.622l-3.711 14.719H86.44l-3.7-14.719v14.719zM57.922 30.105q0-2.857.854-4.796a8.9 8.9 0 0 1 1.735-2.563q1.11-1.135 2.423-1.684 1.748-.74 4.03-.74 4.133 0 6.608 2.564 2.487 2.564 2.487 7.13 0 4.527-2.462 7.091-2.461 2.55-6.581 2.551-4.17 0-6.633-2.538-2.46-2.55-2.461-7.015m3.89-.128q0 3.177 1.467 4.822 1.468 1.632 3.724 1.632t3.699-1.62q1.454-1.632 1.454-4.884 0-3.215-1.416-4.796-1.402-1.582-3.737-1.582t-3.763 1.607q-1.428 1.594-1.428 4.822M37.332 30.105q0-2.857.855-4.796a8.9 8.9 0 0 1 1.734-2.563q1.11-1.135 2.424-1.684 1.747-.74 4.03-.74 4.132 0 6.607 2.564 2.487 2.564 2.487 7.13 0 4.527-2.462 7.091-2.46 2.55-6.581 2.551-4.17 0-6.632-2.538-2.462-2.55-2.462-7.015m3.89-.128q0 3.177 1.467 4.822 1.468 1.632 3.724 1.632t3.7-1.62q1.453-1.632 1.453-4.884 0-3.215-1.416-4.796-1.402-1.582-3.737-1.582t-3.762 1.607q-1.43 1.594-1.429 4.822M21.969 39.342V20.797h3.775v15.395h9.388v3.15zM2.742 20.643h7.474q2.22 0 3.304.19a4.75 4.75 0 0 1 1.951.766 4.75 4.75 0 0 1 1.442 1.569q.573.969.573 2.181 0 1.315-.714 2.41a4.35 4.35 0 0 1-1.913 1.646q1.71.498 2.627 1.696.92 1.2.919 2.82 0 1.274-.6 2.486a5 5 0 0 1-1.62 1.926q-1.02.714-2.525.88-.945.102-4.553.128H2.742zm3.776 3.112v4.323h2.474q2.206 0 2.742-.063.969-.116 1.518-.663.561-.562.561-1.467 0-.868-.485-1.403-.471-.549-1.415-.663-.561-.064-3.227-.064zm0 7.436v5h3.494q2.04 0 2.59-.115.841-.153 1.364-.74.536-.6.536-1.594 0-.843-.408-1.429-.409-.586-1.186-.855-.765-.267-3.342-.267z"/></svg>