<svg xmlns="http://www.w3.org/2000/svg" width="61" height="60" fill="none"><g fill="#282928" clip-path="url(#a)"><path d="M23.305 23.438a3.6 3.6 0 0 1 2.518 0v.505a2.77 2.77 0 0 0 2.77 2.765h1.746a2.77 2.77 0 0 0 2.77-2.765v-2.06a2.77 2.77 0 0 0-2.77-2.764h-1.746a2.77 2.77 0 0 0-2.756 2.49 5.25 5.25 0 0 0-2.546 0 2.77 2.77 0 0 0-2.756-2.49H18.79a2.77 2.77 0 0 0-2.77 2.765v2.059a2.77 2.77 0 0 0 2.77 2.765h1.746a2.77 2.77 0 0 0 2.77-2.765zm4.276-1.554a1.01 1.01 0 0 1 1.012-1.007h1.746a1.01 1.01 0 0 1 1.011 1.007v2.06a1.01 1.01 0 0 1-1.011 1.006h-1.746a1.01 1.01 0 0 1-1.012-1.007v-2.06Zm-6.035 2.06a1.01 1.01 0 0 1-1.01 1.006h-1.747a1.01 1.01 0 0 1-1.011-1.007v-2.06a1.01 1.01 0 0 1 1.011-1.006h1.746a1.01 1.01 0 0 1 1.011 1.007zm3.017 14.384a3.59 3.59 0 0 0-3.59 3.584 3.591 3.591 0 0 0 7.18 0 3.59 3.59 0 0 0-3.59-3.584m0 5.41a1.83 1.83 0 0 1-1.832-1.826c0-1.007.822-1.826 1.832-1.826a1.83 1.83 0 0 1 1.833 1.826 1.83 1.83 0 0 1-1.833 1.825Z"/><path d="m32.004 43.134-.352-.203a7.2 7.2 0 0 0 0-2.035l.354-.204a1.457 1.457 0 0 0 .531-1.98l-1.21-2.088a1.453 1.453 0 0 0-1.98-.527l-.354.204a7.2 7.2 0 0 0-1.77-1.02v-.405c0-.8-.652-1.45-1.452-1.45h-2.414c-.8 0-1.452.65-1.452 1.45v.405a7.2 7.2 0 0 0-1.769 1.02l-.354-.203a1.453 1.453 0 0 0-1.982.528l-1.205 2.084a1.44 1.44 0 0 0-.147 1.1c.1.375.34.688.676.883l.353.203a7.2 7.2 0 0 0 0 2.035l-.355.204a1.44 1.44 0 0 0-.674.883c-.1.375-.047.765.146 1.097l1.205 2.084c.193.337.507.577.882.678.375.1.766.05 1.1-.143l.356-.206a7.2 7.2 0 0 0 1.768 1.02v.406c0 .8.652 1.45 1.452 1.45h2.414c.8 0 1.452-.65 1.452-1.45v-.405a7.2 7.2 0 0 0 1.769-1.02l.354.203c.335.195.726.246 1.101.145.376-.1.689-.342.88-.676l1.206-2.084c.195-.334.247-.724.147-1.099a1.44 1.44 0 0 0-.676-.884m-2.188-2.481a5.4 5.4 0 0 1 0 2.522.88.88 0 0 0 .417.968l.625.36-.9 1.554-.628-.362a.88.88 0 0 0-1.043.123 5.45 5.45 0 0 1-2.191 1.263.88.88 0 0 0-.631.843v.722h-1.802v-.722a.88.88 0 0 0-.63-.843 5.5 5.5 0 0 1-2.193-1.264.88.88 0 0 0-1.041-.122l-.63.362-.898-1.554.625-.36a.88.88 0 0 0 .416-.968 5.4 5.4 0 0 1 0-2.522.88.88 0 0 0-.416-.969l-.625-.36.897-1.551.63.363a.88.88 0 0 0 1.043-.124 5.44 5.44 0 0 1 2.192-1.263.88.88 0 0 0 .63-.843v-.722h1.802v.722c0 .39.256.733.63.843a5.4 5.4 0 0 1 2.19 1.262.88.88 0 0 0 1.044.125l.631-.363.9 1.55-.628.361a.88.88 0 0 0-.416.969"/><path d="M58.944 32.064c-3.535-5.565-10.95-7.224-16.529-3.698a12 12 0 0 0-2.768 2.412 2.65 2.65 0 0 0-1.847-.746h-1.142a15 15 0 0 0 1.062-2.149c1.784-.048 3.285-.838 4.182-2.227.892-1.381.997-3.137.268-4.474-.671-1.233-1.906-1.95-3.5-2.05l.49-3.396c.49-3.39-.377-6.52-2.509-9.054-1.828-2.171-4.55-3.835-7.666-4.685-2.854-.778-5.794-.816-8.28-.105-2.64.755-4.557 2.268-5.568 4.39-4.114 1.26-6.023 4.688-5.246 9.469l.55 3.384c-1.585.103-2.813.82-3.481 2.048-.729 1.337-.624 3.093.267 4.473.897 1.39 2.398 2.18 4.182 2.228.284.716.64 1.436 1.062 2.148h-1.143a2.656 2.656 0 0 0-2.654 2.651v8.697l-1.91.673C1.417 43.932.798 48.431.798 51.651v5.386c0 .87.707 1.578 1.576 1.578h44.383a1.58 1.58 0 0 0 1.579-1.578V51.65c0-.44-.012-.853-.037-1.25l.073.005a11.93 11.93 0 0 0 6.869-1.85.88.88 0 0 0-.94-1.486 10.2 10.2 0 0 1-11.465-.345.9.9 0 0 0-.472-.165l-5.906-.279 2.268-5.441a.9.9 0 0 0 .053-.5 10.135 10.135 0 0 1 4.576-10.488c4.761-3.01 11.09-1.594 14.106 3.155 2.27 3.568 2.079 8.23-.475 11.604a.88.88 0 0 0 1.401 1.062c2.996-3.957 3.22-9.426.558-13.609Zm-20.409-8.107v-3.071c.994.055 1.714.445 2.091 1.137.425.78.346 1.832-.2 2.68-.3.463-.94 1.158-2.14 1.365.163-.72.25-1.428.25-2.11Zm-29.83.746c-.548-.848-.626-1.9-.202-2.68.377-.691 1.098-1.081 2.09-1.137v3.071c0 .683.087 1.39.25 2.111-1.2-.207-1.84-.902-2.139-1.365Zm2.922-9.234c-.46-2.826-.074-6.438 4.37-7.604a.88.88 0 0 0 .59-.517c1.671-4.081 7.27-4.928 11.935-3.655 4.707 1.284 9.861 5.142 8.898 11.791l-.279 1.93c-1.344-1.912-2.576-2.31-5.359-2.316H17.266c-2.788.006-3.966.386-5.316 2.357zM6.159 53.774V55.1c0 .639.173 1.239.473 1.755H2.555V51.65c0-4.385 1.433-6.76 4.793-7.94l1.326-.467v8.795h-.777c-.958 0-1.738.778-1.738 1.735ZM41.211 55.1a1.76 1.76 0 0 1-1.762 1.755H9.68A1.76 1.76 0 0 1 7.919 55.1v-1.304H41.21zm-.752-6.87 1.566.074a12 12 0 0 0 4.494 1.885c.038.454.058.936.058 1.461v5.205h-4.08c.3-.517.472-1.116.472-1.755v-1.327c0-.957-.779-1.735-1.737-1.735h-.773zm-2.654-14.455a11.9 11.9 0 0 0-.801 6.625l-2.653 6.361a.88.88 0 0 0 .77 1.217l3.58.169v3.89H10.43V32.684c0-.493.403-.893.897-.893H22.08a.879.879 0 1 0 0-1.758h-7.523c-1.406-2.036-2.206-4.23-2.206-6.075V20.22c1.739-3.228 2.2-3.358 4.917-3.363h14.51c2.697.005 3.238.103 4.998 3.364v3.736c0 1.845-.8 4.039-2.206 6.075h-8.398a.879.879 0 1 0 0 1.758H37.8c.33 0 .63.187.787.465q-.444.728-.782 1.521Z"/><path d="M44.546 35.17a.88.88 0 0 0-1.207.297l-1.716 2.839a.88.88 0 0 0-.008.896l1.716 2.952a.879.879 0 1 0 1.52-.883l-1.454-2.502 1.446-2.392a.88.88 0 0 0-.297-1.207m4.68.118-2.554 6.406a.88.88 0 1 0 1.633.65l2.554-6.405a.88.88 0 0 0-1.633-.65Zm5.238.179a.88.88 0 1 0-1.505.91l1.447 2.392-1.455 2.502a.879.879 0 0 0 1.52.883l1.716-2.952a.88.88 0 0 0-.007-.896z"/></g><defs><clipPath id="a"><path fill="#fff" d="M.797 0h60v60h-60z"/></clipPath></defs></svg>