<svg xmlns="http://www.w3.org/2000/svg" width="61" height="60" fill="none"><g fill="#282928" clip-path="url(#a)"><path d="M49.339 26.227H52.3a.987.987 0 0 0 .988-.987v-2.962a.987.987 0 0 0-1.975 0v1.975H49.34a.987.987 0 0 0 0 1.974Zm-23.226-3.948a3.949 3.949 0 1 0 0-7.899 3.949 3.949 0 0 0 0 7.899m0-5.924a1.975 1.975 0 1 1 0 3.95 1.975 1.975 0 0 1 0-3.95"/><path d="M4.547 21.95a2.944 2.944 0 0 0 4.136-1.659l7.764-.12-1.354 1.12a.986.986 0 0 0-.228 1.256l1.844 3.186.04 4.443h-4.926a1 1 0 0 0-.171.035 2.961 2.961 0 1 0 0 1.904 1 1 0 0 0 .17.035h5.924a.986.986 0 0 0 .987-.996l-.045-5.003 3.159-1.185q.321.21.652.381l.667 4.003c.08.475.491.824.974.824h.517v4.936h-2.962a.987.987 0 0 0-.987.987v14.401l-8.596 8.596a.987.987 0 0 0 .698 1.685H44.4a.986.986 0 0 0 .699-1.685l-6.622-6.621v-5.241l2.21-3.682c3.73 2.25 5.984 3.408 6.675 3.408h5.923a.987.987 0 0 0 .988-.987v-5.514l1.684-1.685a1 1 0 0 0 .29-.699v-2.961h1.442a1.975 1.975 0 0 0 1.805-2.776l-3.07-6.91a7.67 7.67 0 0 0 1.797-4.953 17.14 17.14 0 0 0-9.526-15.415l-2.863-1.433a.99.99 0 0 0-1.244.31l-.413.573H37.49V2.534a.987.987 0 0 0-.987-.987h-9.872a.987.987 0 0 0-.987.987v3.949h-1.507a.99.99 0 0 0-.974.825l-.666 4.002q-.332.172-.653.38l-3.802-1.424a.99.99 0 0 0-1.201.43l-.996 1.725c-.025 0-.046-.015-.071-.015H9.849V9.263a2.961 2.961 0 1 0-1.975 0v4.13c0 .545.442.987.987.987h5.909a.98.98 0 0 0 .323.988l3.13 2.578q.001.109-.005.22l-9.538.146a2.961 2.961 0 1 0-4.133 3.638m4.314 10.2a.987.987 0 1 1 0-1.974.987.987 0 0 1 0 1.974m0-26.654a.987.987 0 1 1 0 1.974.987.987 0 0 1 0-1.974m17.77 24.68h1.455a.99.99 0 0 0 .974-.824l.667-4.003a8 8 0 0 0 .651-.38l3.804 1.424a.99.99 0 0 0 1.201-.43l.418-.723h4.65a1 1 0 0 0 .215-.044l1.76 2.347v1.646h-3.949v1.974h2.278l-2.644 1.057a.99.99 0 0 0-.62.917v1.975H26.63v-4.936Zm10.727-16.06-.417-.723h2.524v3.95h-4.728l2.394-1.975a.99.99 0 0 0 .227-1.252m2.107 5.2v3.95H36.94l.417-.723a.99.99 0 0 0-.227-1.252l-2.394-1.974h4.728Zm-6.622 24.391 3.66 3.66v.578H30.58V37.086h1.974v5.923c0 .262.104.513.29.698ZM26.586 56.83h.045v-.05l3.705-4.235a1 1 0 0 0 .244-.65V49.92h1.974v8.885h-7.7zm-11.393 1.975 7.2-7.2a.99.99 0 0 0 .29-.698v-13.82h5.922v14.436l-1.974 2.257v-4.847h-1.974v7.108l-2.423 2.764zm26.825 0h-7.49V49.92h1.975v2.962c0 .261.104.512.29.697l5.224 5.226Zm-4.725-13.438-2.764-2.764v-5.517h2.961v3.949c0 .34.176.657.464.837.368.231.7.435 1.048.649l-1.71 2.846ZM45.7 5.768l2.11 1.057a15.18 15.18 0 0 1 8.436 13.648 5.72 5.72 0 0 1-1.685 4.069.99.99 0 0 0-.204 1.098l3.331 7.497h-2.43a.987.987 0 0 0-.986.988v2.961h-.17a5.71 5.71 0 0 1-4.068-1.685.987.987 0 0 0-1.396 1.396 7.65 7.65 0 0 0 4.33 2.172l-.382.38a.99.99 0 0 0-.289.699v4.936l-4.842.006a52.5 52.5 0 0 1-6.59-3.643l-.004-.005h-.007q-.698-.425-1.39-.854v-6.682l4.315-1.726a.99.99 0 0 0 .62-.917v-3.949a1 1 0 0 0-.197-.592l-2.764-3.685V11.735zM27.618 3.521h7.898v1.975c0 .545.442.987.987.987h6.262l-3.116 4.362a.98.98 0 0 0-.184.574H35.8l-.418-.723a.99.99 0 0 0-1.201-.43l-3.8 1.424a8 8 0 0 0-.652-.38l-.67-4.003a.99.99 0 0 0-.974-.824h-.468V3.52Zm-10.625 10.86 1.138-1.975 3.506 1.314a.99.99 0 0 0 .936-.133 6 6 0 0 1 1.202-.701.99.99 0 0 0 .584-.745l.614-3.684h2.277l.614 3.684a.99.99 0 0 0 .584.746q.642.28 1.202.7a.99.99 0 0 0 .936.134l3.506-1.315 1.138 1.974-2.888 2.377a.99.99 0 0 0-.353.88c.061.46.061.927 0 1.387a.99.99 0 0 0 .353.88l2.888 2.374-1.138 1.975-3.506-1.314a.99.99 0 0 0-.936.133q-.56.421-1.202.7a.99.99 0 0 0-.584.746l-.614 3.683h-2.278l-.612-3.684a.99.99 0 0 0-.584-.745 6 6 0 0 1-1.201-.7.99.99 0 0 0-.937-.134l-3.507 1.315-1.138-1.975 2.888-2.376.05-.054a1 1 0 0 0 .232-.33l.006-.011a1 1 0 0 0 .063-.34l.008-.043c0-.012-.006-.021-.007-.034v-.067a5.4 5.4 0 0 1 0-1.389.99.99 0 0 0-.353-.88zM5.022 18.864a.98.98 0 0 1 .576-.493.987.987 0 0 1 .605 1.875.987.987 0 0 1-1.242-.637.98.98 0 0 1 .06-.745Z"/><path d="M24.656 41.035h1.975v1.975h-1.975zm0 3.949h1.975v1.975h-1.975zm5.922-15.794h1.975v1.974h-1.975v-1.975Zm3.953 0h1.975v1.974H34.53v-1.975Zm8.883-17.772h1.974v3.949h-1.974zm0 5.926h1.974v1.974h-1.974zm0 3.947h1.974v1.974h-1.974z"/></g><defs><clipPath id="a"><path fill="#fff" d="M.195 0h60v60h-60z"/></clipPath></defs></svg>