<svg xmlns="http://www.w3.org/2000/svg" width="100" height="60" fill="none"><path fill="#282928" d="M78.273 24.558A14.95 14.95 0 0 0 76.99 12.28a15.12 15.12 0 0 0-16.283-7.253A14.95 14.95 0 0 0 49.431 0a15.12 15.12 0 0 0-14.42 10.467 14.95 14.95 0 0 0-9.996 7.25 15.12 15.12 0 0 0 1.86 17.727 14.95 14.95 0 0 0 1.284 12.278 15.12 15.12 0 0 0 16.283 7.252A14.94 14.94 0 0 0 55.717 60a15.12 15.12 0 0 0 14.426-10.474 14.96 14.96 0 0 0 9.996-7.251 15.12 15.12 0 0 0-1.864-17.721zM55.72 56.079a11.2 11.2 0 0 1-7.198-2.602c.092-.05.251-.137.354-.201l11.948-6.9c.611-.347.986-.998.983-1.7V27.83l5.05 2.916c.053.026.09.079.097.139v13.948c-.008 6.203-5.031 11.232-11.234 11.245M31.562 45.761a11.2 11.2 0 0 1-1.34-7.534c.088.052.243.148.354.212l11.948 6.9a1.95 1.95 0 0 0 1.963 0l14.586-8.423v5.831a.19.19 0 0 1-.072.156l-12.077 6.973c-5.38 3.098-12.25 1.257-15.36-4.115zm-3.144-26.08a11.2 11.2 0 0 1 5.852-4.93c0 .103-.006.285-.006.413v13.802a1.94 1.94 0 0 0 .98 1.699l14.587 8.42-5.05 2.916a.18.18 0 0 1-.17.015l-12.08-6.979c-5.368-3.109-7.209-9.977-4.115-15.354zm41.487 9.654-14.586-8.422 5.05-2.914a.18.18 0 0 1 .17-.015l12.079 6.973c5.378 3.107 7.22 9.987 4.114 15.364a11.24 11.24 0 0 1-5.85 4.928V31.034a1.94 1.94 0 0 0-.975-1.699zm5.025-7.564a16 16 0 0 0-.354-.212l-11.948-6.9a1.95 1.95 0 0 0-1.963 0l-14.586 8.423V17.25a.19.19 0 0 1 .071-.155l12.077-6.968c5.38-3.103 12.257-1.256 15.359 4.125a11.24 11.24 0 0 1 1.34 7.52zM43.334 32.165l-5.052-2.916a.18.18 0 0 1-.097-.139V15.162c.004-6.21 5.042-11.243 11.252-11.24 2.627 0 5.17.923 7.189 2.603-.092.049-.25.137-.354.2l-11.948 6.901a1.94 1.94 0 0 0-.983 1.699l-.007 16.836zm2.743-5.914 6.497-3.752 6.497 3.75v7.502l-6.497 3.75-6.497-3.75z"/></svg>