<svg xmlns="http://www.w3.org/2000/svg" width="60" height="60" fill="none"><path fill="#282928" d="M30.968 23.683v2.34c0 .879.716 1.595 1.595 1.595h.325v4.639l-1.805 1.805a.85.85 0 0 0-.247.597v1.873a.845.845 0 0 0 1.69 0v-1.523l1.804-1.805a.85.85 0 0 0 .248-.597v-4.99h.325c.88 0 1.595-.715 1.595-1.595v-2.339c0-.88-.716-1.595-1.595-1.595h-2.34c-.88 0-1.595.716-1.595 1.595m1.69.094h2.15v2.151h-2.15v-2.15Zm-12.063-2.882c-.88 0-1.595.715-1.595 1.595v2.847c0 .88.715 1.595 1.595 1.595h2.847c.88 0 1.595-.716 1.595-1.595V22.49c0-.88-.715-1.595-1.595-1.595zm2.753 4.348h-2.659v-2.66h2.659zm-.785-9.954v1.728c0 .88.715 1.595 1.595 1.595h1.728c.88 0 1.595-.716 1.595-1.595v-1.728c0-.88-.716-1.596-1.595-1.596h-1.728c-.88 0-1.596.716-1.596 1.596Zm1.689.094h1.54v1.54h-1.54zM9.48 31.83c0-.88-.715-1.596-1.594-1.596H6.158c-.88 0-1.596.716-1.596 1.596v1.727c0 .88.716 1.596 1.596 1.596h1.728c.88 0 1.595-.716 1.595-1.596zm-1.688 1.634h-1.54v-1.54h1.54zm5.842 4.921h-2.832c-.88 0-1.595.715-1.595 1.595v2.832c0 .88.716 1.595 1.595 1.595h2.832c.88 0 1.595-.715 1.595-1.595V39.98c0-.88-.715-1.595-1.595-1.595m-.094 4.333h-2.644v-2.644h2.644z"/><path fill="#282928" d="M49.676 24.672c0-.774-.048-1.556-.143-2.325a.845.845 0 0 0-1.677.206c.087.701.13 1.414.13 2.119 0 4.761-1.903 9.189-5.36 12.467-2.392 2.269-4.314 5.1-5.587 8.215h-.96v-4.729l3.782-3.781a.84.84 0 0 0 .247-.597v-2.129c.773-.008 1.4-.64 1.4-1.415v-1.845c0-.781-.635-1.416-1.416-1.416h-1.846c-.78 0-1.415.635-1.415 1.416v1.845c0 .781.635 1.416 1.415 1.416h.173v1.778l-3.782 3.781a.85.85 0 0 0-.247.598v5.078h-1.866V40.13a.845.845 0 1 0-1.689 0v5.224h-2.794v-10.5h.325c.88 0 1.595-.715 1.595-1.595V30.92c0-.88-.715-1.595-1.595-1.595h-2.34c-.879 0-1.595.715-1.595 1.595v2.34c0 .879.716 1.594 1.596 1.594h.325v10.5h-1.789a24.4 24.4 0 0 0-4.256-6.812.844.844 0 1 0-1.269 1.115 22.8 22.8 0 0 1 3.808 5.972 2.9 2.9 0 0 0-1.67 2.627 2.905 2.905 0 0 0 2.76 2.898v1.205a2.46 2.46 0 0 0 1.643 2.316 4.845 4.845 0 0 0 4.786 4.132h.876a4.845 4.845 0 0 0 4.786-4.132 2.46 2.46 0 0 0 1.643-2.316v-1.205a2.905 2.905 0 0 0 2.76-2.898 2.9 2.9 0 0 0-1.674-2.629c1.182-2.75 2.908-5.247 5.033-7.263 3.796-3.6 5.887-8.463 5.887-13.692m-11.156 6.46h1.299v1.298h-1.3v-1.299Zm-12.4-.118h2.152v2.151h-2.151v-2.15Zm5.121 26.104h-.876a3.154 3.154 0 0 1-3.033-2.305h6.943a3.155 3.155 0 0 1-3.034 2.304Zm6.288-7.65h-2.785a.845.845 0 1 0 0 1.69h1.236v1.2a.766.766 0 0 1-.765.766H26.39a.766.766 0 0 1-.765-.765v-1.201h5.518a.845.845 0 0 0 0-1.69h-7.066a1.213 1.213 0 1 1 .006-2.425h13.445-.008l.088.005a1.213 1.213 0 0 1 1.132 1.208c0 .669-.544 1.213-1.212 1.213ZM13.615 24.67c0-3.622 1.122-7.09 3.246-10.03a.844.844 0 1 0-1.37-.99 18.7 18.7 0 0 0-3.565 11.02 18.86 18.86 0 0 0 4.611 12.359.84.84 0 0 0 1.192.084.845.845 0 0 0 .084-1.191 17.17 17.17 0 0 1-4.198-11.251ZM26.399 8.034a1 1 0 0 0 .207-.026 17 17 0 0 1 4.235-.52c.879.002 1.761.071 2.623.205a.844.844 0 1 0 .26-1.669 19 19 0 0 0-2.88-.225 18.7 18.7 0 0 0-4.651.572.845.845 0 0 0 .206 1.663m-7.359 4.73h3.293c.88 0 1.595-.715 1.595-1.595V7.877c0-.88-.715-1.596-1.595-1.596h-3.292c-.88 0-1.596.716-1.596 1.596v3.292c0 .88.716 1.595 1.596 1.595Zm.095-4.793h3.104v3.104h-3.105V7.971Zm30.063 33.334h-3.646c-.88 0-1.595.715-1.595 1.595v3.646c0 .88.716 1.595 1.595 1.595h3.646c.88 0 1.595-.715 1.595-1.595V42.9c0-.88-.715-1.595-1.595-1.595m-.094 5.147h-3.458v-3.458h3.458zm4.546-12.309h-2.145c-.88 0-1.595.715-1.595 1.595v2.145c0 .88.716 1.595 1.595 1.595h2.145c.88 0 1.595-.716 1.595-1.596v-2.144c0-.88-.715-1.595-1.595-1.595m-.094 3.646H51.6v-1.957h1.957v1.957ZM12.103 6.43h1.986c.88 0 1.595-.715 1.595-1.595V2.849c0-.88-.715-1.595-1.595-1.595h-1.986c-.88 0-1.595.715-1.595 1.595v1.986c0 .88.716 1.595 1.595 1.595m.094-3.487h1.798v1.798h-1.798zM6.923 13.229H8.47c.88 0 1.596-.716 1.596-1.596v-1.546c0-.88-.716-1.595-1.596-1.595H6.923c-.88 0-1.595.716-1.595 1.595v1.546c0 .88.716 1.596 1.595 1.596m.094-3.048h1.358v1.359H7.017zm42.289-3.702h-6.625a.845.845 0 0 0-.845.844v6.626c0 .466.378.845.845.845h6.625a.844.844 0 0 0 .845-.845V7.323a.845.845 0 0 0-.845-.844m-.844 6.625h-4.937V8.168h4.937z"/><path fill="#282928" d="M54.59 11.48a.845.845 0 1 0 0-1.689h-1.06V7.454h1.062a.845.845 0 1 0 0-1.69H53.53v-.038A2.63 2.63 0 0 0 50.902 3.1h-.038V2.038a.845.845 0 1 0-1.69 0V3.1h-2.336V2.038a.845.845 0 1 0-1.69 0V3.1h-2.337V2.038a.845.845 0 1 0-1.69 0V3.1h-.037a2.63 2.63 0 0 0-2.627 2.626v.038h-1.062a.845.845 0 1 0 0 1.69h1.062V9.79h-1.062a.844.844 0 1 0 0 1.69h1.062v2.337h-1.062a.845.845 0 1 0 0 1.689h1.062v.038a2.63 2.63 0 0 0 2.627 2.626h.038v1.062a.844.844 0 1 0 1.689 0V18.17h2.337v1.062a.845.845 0 1 0 1.69 0V18.17h2.337v1.062a.844.844 0 1 0 1.69 0V18.17h.037a2.63 2.63 0 0 0 2.627-2.626v-.038h1.062a.845.845 0 1 0 0-1.69h-1.062V11.48h1.062Zm-2.75 4.065c0 .517-.42.937-.938.937h-9.818a.94.94 0 0 1-.938-.937V5.726c0-.517.42-.937.938-.937h9.818c.517 0 .938.42.938.937z"/></svg>