<svg xmlns="http://www.w3.org/2000/svg" width="61" height="61" fill="none"><path fill="#282928" d="M30.499 27.912a6.62 6.62 0 0 0-6.612 6.611 6.62 6.62 0 0 0 6.612 6.612 6.62 6.62 0 0 0 6.612-6.612 6.62 6.62 0 0 0-6.612-6.61Zm0 11.348a4.743 4.743 0 0 1-4.737-4.738 4.74 4.74 0 0 1 4.737-4.736 4.743 4.743 0 0 1 4.737 4.736A4.743 4.743 0 0 1 30.5 39.26Zm17.159-7.99a5.864 5.864 0 0 0-5.857 5.856 5.865 5.865 0 0 0 5.857 5.858 5.864 5.864 0 0 0 5.858-5.858 5.864 5.864 0 0 0-5.858-5.856m0 9.839a3.986 3.986 0 0 1-3.982-3.983 3.985 3.985 0 0 1 3.982-3.981 3.986 3.986 0 0 1 3.983 3.981 3.987 3.987 0 0 1-3.983 3.983m3.175 2.832h-6.355c-1.364 0-2.667.37-3.834 1.042a8.79 8.79 0 0 0-6.478-2.833h-7.332a8.79 8.79 0 0 0-6.478 2.834 7.65 7.65 0 0 0-3.834-1.043h-6.355c-4.296 0-7.792 3.495-7.792 7.79v4.829c0 .518.42.937.938.937h54.374a.937.937 0 0 0 .938-.937v-4.828c0-4.296-3.496-7.791-7.792-7.791M19.17 46.588c-.174.301-.334.61-.47.929q-.014.034-.027.068a9 9 0 0 0-.327.941q-.029.094-.054.188a9 9 0 0 0-.203 1.001q-.013.102-.024.205c-.042.354-.07.71-.07 1.071v4.631H4.25v-3.89a5.923 5.923 0 0 1 5.917-5.916h6.355c.953 0 1.873.227 2.705.663-.021.035-.036.073-.057.109m21.96 9.034H19.87v-4.631c0-.419.044-.83.115-1.236a6.9 6.9 0 0 1 1.304-2.985 6.95 6.95 0 0 1 5.546-2.745h7.332c2.186 0 4.207 1 5.544 2.744a6.92 6.92 0 0 1 1.421 4.222v4.631Zm15.62 0H43.004v-4.631c0-.36-.028-.717-.07-1.07q-.011-.104-.025-.207a9 9 0 0 0-.203-1q-.027-.096-.055-.19a9 9 0 0 0-.325-.936q-.014-.037-.029-.073a9 9 0 0 0-.47-.926c-.02-.036-.034-.075-.056-.111a5.8 5.8 0 0 1 2.705-.663h6.356a5.923 5.923 0 0 1 5.916 5.916v3.891ZM13.342 31.27a5.864 5.864 0 0 0-5.858 5.856 5.865 5.865 0 0 0 5.858 5.858 5.864 5.864 0 0 0 5.857-5.858 5.864 5.864 0 0 0-5.857-5.856m0 9.839a3.986 3.986 0 0 1-3.983-3.983 3.985 3.985 0 0 1 3.983-3.981 3.986 3.986 0 0 1 3.982 3.981 3.987 3.987 0 0 1-3.982 3.983m24.72-32.472-3.745-.544a.28.28 0 0 1-.212-.154l-1.674-3.393a2.14 2.14 0 0 0-1.933-1.202c-.827 0-1.568.46-1.934 1.202L26.889 7.94a.28.28 0 0 1-.21.152l-3.746.544a2.14 2.14 0 0 0-1.739 1.467 2.14 2.14 0 0 0 .545 2.208l2.71 2.642a.28.28 0 0 1 .082.248l-.64 3.73c-.14.815.188 1.622.856 2.109.67.486 1.54.548 2.272.164l3.348-1.76a.29.29 0 0 1 .261 0l3.35 1.76a2.15 2.15 0 0 0 2.271-.162 2.14 2.14 0 0 0 .856-2.108l-.64-3.73a.28.28 0 0 1 .081-.248l2.712-2.642a2.14 2.14 0 0 0 .544-2.208 2.14 2.14 0 0 0-1.74-1.467l.001-.003Zm-.113 2.333-2.71 2.64a2.15 2.15 0 0 0-.621 1.91l.64 3.73a.27.27 0 0 1-.11.273.27.27 0 0 1-.296.022l-3.351-1.763a2.16 2.16 0 0 0-2.005.001l-3.348 1.762a.27.27 0 0 1-.297-.022.27.27 0 0 1-.11-.274l.64-3.73a2.15 2.15 0 0 0-.62-1.907l-2.71-2.642a.27.27 0 0 1-.071-.287.27.27 0 0 1 .226-.192l3.745-.543a2.15 2.15 0 0 0 1.622-1.18l1.675-3.394c.129-.257.375-.257.504 0l1.674 3.394c.314.637.92 1.077 1.623 1.18l3.744.543c.143.02.203.117.227.192a.27.27 0 0 1-.07.287zm17.428 2.934a1.92 1.92 0 0 0-1.562-1.317l-3.111-.478-1.372-2.779a1.92 1.92 0 0 0-1.734-1.078 1.92 1.92 0 0 0-1.734 1.078l-1.417 2.812-3.068.445a1.92 1.92 0 0 0-1.56 1.317 1.92 1.92 0 0 0 .489 1.982l2.237 2.215-.525 3.056c-.126.73.17 1.456.77 1.892a1.92 1.92 0 0 0 2.036.147l2.8-1.442 2.741 1.442a1.92 1.92 0 0 0 2.037-.147c.6-.436.896-1.16.77-1.892l-.506-3.107 2.217-2.162a1.92 1.92 0 0 0 .49-1.983h.002Zm-1.799.64-2.217 2.162a1.94 1.94 0 0 0-.558 1.713l.525 3.055.924-.159-1.011.221-2.743-1.443a1.95 1.95 0 0 0-1.8 0l-2.743 1.442-.087-.062.526-3.056a1.94 1.94 0 0 0-.558-1.71l-2.218-2.164.031-.102 3.069-.445a1.94 1.94 0 0 0 1.455-1.058l1.425-2.812c.037 0 .045.018.053.033l1.372 2.78c.283.57.826.964 1.457 1.057l3.066.445.135-.927zM19.62 12.587l-3.111-.478-1.372-2.779a1.92 1.92 0 0 0-1.734-1.078c-.742 0-1.407.413-1.735 1.078l-1.416 2.812-3.068.445a1.92 1.92 0 0 0-1.56 1.317 1.92 1.92 0 0 0 .489 1.982l2.236 2.215-.525 3.056c-.125.73.171 1.456.771 1.892a1.92 1.92 0 0 0 2.035.147l2.8-1.442 2.742 1.442a1.92 1.92 0 0 0 2.036-.147c.601-.436.897-1.16.77-1.892l-.505-3.107 2.217-2.162c.531-.518.72-1.278.49-1.983a1.92 1.92 0 0 0-1.562-1.317zm-.237 1.957-2.217 2.162a1.94 1.94 0 0 0-.558 1.713l.525 3.055.923-.159-1.01.221-2.742-1.442a1.94 1.94 0 0 0-1.801 0l-2.744 1.442-.087-.063.526-3.055a1.94 1.94 0 0 0-.558-1.71l-2.218-2.163.032-.103 3.069-.445a1.94 1.94 0 0 0 1.455-1.059l1.425-2.811c.036 0 .045.018.053.033l1.372 2.78c.283.57.825.964 1.457 1.057l3.066.445.135-.927-.102 1.03h-.001Z"/></svg>