<svg xmlns="http://www.w3.org/2000/svg" width="61" height="61" fill="none"><g fill="#282928" clip-path="url(#a)"><path d="M45.075 59.048V41.764l2.548-8.984c.207-.73.37-1.469.486-2.198a.79.79 0 0 0-1.56-.249 18 18 0 0 1-.445 2.016l-2.608 9.196v17.503a.79.79 0 1 0 1.58 0ZM38.098 43.12a.79.79 0 0 0-1.113.088L32.2 48.82H16.233a2.34 2.34 0 0 1-2.337-2.339v-8.878l-3.25-.772a1.08 1.08 0 0 1-.755-.644 1.07 1.07 0 0 1 .082-.987l2.686-4.326a.79.79 0 0 0-1.342-.833l-2.685 4.325a2.64 2.64 0 0 0-.201 2.422 2.64 2.64 0 0 0 1.848 1.58l2.038.483v7.63a3.92 3.92 0 0 0 3.916 3.918h9.477v8.65a.79.79 0 1 0 1.579 0v-8.65h5.64l5.258-6.166a.79.79 0 0 0-.089-1.114Zm-28.07-24.315a21 21 0 0 0-.231 3.004.875.875 0 0 0 .879.884h12.988a.79.79 0 0 0 .79-.79 6.054 6.054 0 0 1 6.047-6.047 6.055 6.055 0 0 1 6.048 6.047c0 .437.354.79.79.79h12.987a.87.87 0 0 0 .624-.26.87.87 0 0 0 .256-.623 21 21 0 0 0-.23-3.004.88.88 0 0 0-.575-.7l-3.585-1.274a17 17 0 0 0-1.192-2.875l1.632-3.437a.88.88 0 0 0-.086-.9 20.8 20.8 0 0 0-4.387-4.384.88.88 0 0 0-.898-.086l-3.436 1.632a17 17 0 0 0-2.874-1.192l-1.276-3.587a.88.88 0 0 0-.697-.574 21 21 0 0 0-6.2 0 .88.88 0 0 0-.697.576L25.43 5.59c-.991.308-1.956.709-2.876 1.193L19.12 5.15a.88.88 0 0 0-.9.087 20.7 20.7 0 0 0-4.383 4.381.88.88 0 0 0-.088.902l1.633 3.437a17 17 0 0 0-1.194 2.875l-3.584 1.275a.88.88 0 0 0-.575.698ZM30.5 14.276c-3.938 0-7.19 3.002-7.586 6.837h-1.511c.458-4.61 4.38-8.24 9.097-8.24s8.64 3.63 9.099 8.24h-1.513c-.396-3.835-3.647-6.837-7.586-6.837m-18.969 5.176 3.519-1.251a.88.88 0 0 0 .55-.585c.32-1.111.77-2.193 1.335-3.215a.88.88 0 0 0 .024-.801l-1.604-3.375a19.1 19.1 0 0 1 3.468-3.467l3.374 1.604A.88.88 0 0 0 23 8.336a15.5 15.5 0 0 1 3.214-1.334.88.88 0 0 0 .584-.549l1.252-3.52a19.5 19.5 0 0 1 4.903 0l1.253 3.522a.88.88 0 0 0 .583.547c1.119.323 2.2.772 3.212 1.334a.88.88 0 0 0 .803.026l3.375-1.604a19.2 19.2 0 0 1 3.468 3.467L44.044 13.6a.88.88 0 0 0 .026.801 15.5 15.5 0 0 1 1.332 3.214.88.88 0 0 0 .55.585l3.52 1.252q.105.826.14 1.661h-8.426a10.65 10.65 0 0 0-3.141-6.718 10.66 10.66 0 0 0-7.544-3.101 10.66 10.66 0 0 0-7.542 3.1 10.65 10.65 0 0 0-3.14 6.72h-8.426q.033-.832.14-1.662Z"/><path d="M5.937 31.144a.84.84 0 0 0 .882.087.83.83 0 0 0 .469-.753v-1.61H28.52a.84.84 0 0 0 .84-.839v-6.126a.79.79 0 0 0-1.58 0v5.386H6.548a.84.84 0 0 0-.84.84v.849l-3.153-2.42 3.153-2.421v.874c0 .464.377.84.84.84h17.999a.79.79 0 0 0 0-1.58H7.287v-1.634a.83.83 0 0 0-.468-.753.83.83 0 0 0-.882.087L.83 25.89a.84.84 0 0 0-.329.666c0 .26.123.51.328.667l5.109 3.92Zm54.235-5.252-5.108-3.92a.84.84 0 0 0-.883-.089.84.84 0 0 0-.468.754v1.635h-17.26a.79.79 0 1 0 0 1.579h18a.84.84 0 0 0 .839-.84v-.874l3.154 2.42-3.154 2.42v-.848a.84.84 0 0 0-.84-.84H33.22v-5.386a.79.79 0 1 0-1.58 0v6.126c0 .463.377.84.84.84h21.233v1.609a.84.84 0 0 0 1.35.666l5.11-3.922a.85.85 0 0 0 .327-.665.85.85 0 0 0-.328-.665"/></g><defs><clipPath id="a"><path fill="#fff" d="M.5.42h60v60H.5z"/></clipPath></defs></svg>