<svg xmlns="http://www.w3.org/2000/svg" width="61" height="61" fill="none"><path fill="#282928" d="M28.8 8.064a4.97 4.97 0 0 0-4.964 4.964 4.97 4.97 0 0 0 4.964 4.964 4.97 4.97 0 0 0 4.963-4.964A4.97 4.97 0 0 0 28.8 8.064m0 8.232a3.27 3.27 0 0 1-3.268-3.268A3.27 3.27 0 0 1 28.8 9.76a3.27 3.27 0 0 1 3.268 3.268 3.27 3.27 0 0 1-3.268 3.268m-9.01 39.087c.403-2.683.43-6.734-3.982-10.938-3.934-3.75-6.1-8.754-6.1-14.091 0-3.3.565-6.41 1.634-8.997l-1.568-.648c-1.17 2.83-1.762 6.075-1.762 9.645 0 5.806 2.353 11.246 6.626 15.319 1.995 1.9 4.192 4.692 3.475 9.457l-.636 4.23H32.26v-1.696H19.446z"/><path fill="#282928" d="m52.41 37.041-2.354-6.83c-.028-10.112-3.03-15.64-9.704-17.81v-1.785l-2.464-.247a9.4 9.4 0 0 0-.78-1.882l1.569-1.917-3.414-3.414-1.917 1.569a9.4 9.4 0 0 0-1.882-.78l-.247-2.465H26.39l-.246 2.465a9.4 9.4 0 0 0-1.883.78l-1.917-1.569-3.413 3.414 1.568 1.917a9.4 9.4 0 0 0-.78 1.882l-2.464.247v1.867c-2.84 1.346-5.091 3.552-6.696 6.566l1.496.797c1.288-2.419 3.035-4.247 5.2-5.455v1.052l2.464.246a9.4 9.4 0 0 0 .78 1.883l-1.568 1.917 3.413 3.413 1.917-1.568a9.4 9.4 0 0 0 1.883.78l.246 2.464h4.827l.247-2.464a9.4 9.4 0 0 0 1.882-.78l1.917 1.568 3.414-3.413-1.569-1.917a9.4 9.4 0 0 0 .78-1.883l2.465-.246v-1.25c2.454.894 4.214 2.279 5.484 4.302 1.698 2.705 2.523 6.584 2.523 11.859v.142l2.448 7.098c.322.932.626 1.813.406 2.244-.116.228-.434.424-.945.58l-4.017 1.23-.176 8.098c-.016.695-.34 1.396-.849 1.83-.26.222-.685.47-1.235.395l-6.64-.91v6.603H33.96v1.696h5.087v-6.355l4.715.646c.914.125 1.826-.154 2.566-.785.878-.75 1.417-1.901 1.443-3.083l.15-6.873 2.845-.87c.981-.3 1.622-.77 1.96-1.433.545-1.072.127-2.283-.315-3.566ZM38.658 13.908l-2.137.214-.133.599a7.7 7.7 0 0 1-1.025 2.474l-.33.517 1.36 1.663-1.243 1.243-1.662-1.36-.517.33a7.7 7.7 0 0 1-2.475 1.025l-.599.133-.213 2.136h-1.758l-.214-2.136-.599-.133a7.7 7.7 0 0 1-2.474-1.026l-.518-.33-1.662 1.36-1.243-1.242 1.36-1.663-.33-.517a7.7 7.7 0 0 1-1.025-2.475l-.133-.598-2.136-.214V12.15l2.136-.213.133-.6c.196-.88.54-1.712 1.026-2.474l.329-.517-1.36-1.662 1.243-1.243L24.12 6.8l.518-.33a7.7 7.7 0 0 1 2.474-1.025l.6-.133.213-2.137h1.758l.213 2.137.6.133c.879.195 1.712.54 2.474 1.025l.517.33 1.662-1.36 1.243 1.243-1.36 1.662.33.517a7.7 7.7 0 0 1 1.025 2.475l.133.599 2.137.213z"/><path fill="#282928" d="M37.852 44.074a8.7 8.7 0 0 0 1.65-.684l1.77 1.447 3.217-3.218-1.447-1.769a8.7 8.7 0 0 0 .684-1.65L46 37.972v-4.55l-2.274-.228a8.7 8.7 0 0 0-.684-1.65l1.447-1.769-3.218-3.218-1.768 1.448a8.7 8.7 0 0 0-1.65-.684l-.228-2.274h-4.55l-.228 2.273a8.7 8.7 0 0 0-1.65.684l-1.77-1.447-3.217 3.218 1.447 1.769a8.7 8.7 0 0 0-.684 1.65l-2.274.227v4.551l2.274.228q.256.86.684 1.65l-1.447 1.77 3.218 3.218 1.768-1.448a8.7 8.7 0 0 0 1.65.684l.228 2.274h4.55zm-1.567-1.367-.195 1.944h-1.48l-.195-1.944-.599-.133a7 7 0 0 1-2.243-.93l-.518-.33-1.513 1.238-1.047-1.047 1.237-1.513-.33-.517a7 7 0 0 1-.929-2.244l-.133-.599-1.944-.194v-1.482l1.944-.194.133-.6c.177-.797.49-1.552.93-2.243l.33-.518-1.238-1.512 1.047-1.048 1.513 1.238.518-.33a7 7 0 0 1 2.243-.93l.599-.132.194-1.945h1.482l.194 1.945.6.133c.797.177 1.552.49 2.243.93l.518.33 1.512-1.238 1.048 1.047-1.238 1.513.33.517c.44.69.752 1.446.93 2.244l.133.599 1.944.194v1.482l-1.945.194-.133.6a7 7 0 0 1-.93 2.243l-.329.517 1.238 1.513-1.048 1.048-1.513-1.238-.517.33a7 7 0 0 1-2.244.93l-.598.132Z"/><path fill="#282928" d="M35.349 31.078a4.623 4.623 0 0 0-4.618 4.618 4.623 4.623 0 0 0 4.617 4.618 4.623 4.623 0 0 0 4.619-4.618 4.623 4.623 0 0 0-4.618-4.618m0 7.54a2.926 2.926 0 0 1-2.923-2.922 2.926 2.926 0 0 1 2.922-2.922 2.926 2.926 0 0 1 2.923 2.922 2.926 2.926 0 0 1-2.922 2.922m-22.951-9.964v1.695h1.782c.11.54.324 1.044.618 1.488l-1.26 1.261 1.198 1.2 1.261-1.262c.445.295.948.51 1.488.62v1.78h1.696v-1.78a4.2 4.2 0 0 0 1.488-.62l1.261 1.261 1.2-1.199-1.262-1.26c.295-.445.51-.948.62-1.489h1.78v-1.695h-1.78a4.2 4.2 0 0 0-.62-1.489l1.261-1.26-1.199-1.2-1.26 1.261a4.2 4.2 0 0 0-1.489-.619v-1.78h-1.696v1.78c-.54.11-1.043.324-1.488.62l-1.26-1.262-1.2 1.2 1.261 1.26a4.2 4.2 0 0 0-.618 1.489zm5.935-1.696a2.546 2.546 0 0 1 2.544 2.543 2.546 2.546 0 0 1-2.544 2.544A2.546 2.546 0 0 1 15.79 29.5a2.546 2.546 0 0 1 2.543-2.543Zm23.429-8.804h1.695v1.696h-1.695zm1.695 3.393h1.696v1.696h-1.696z"/></svg>