<svg xmlns="http://www.w3.org/2000/svg" width="50" height="50" fill="none"><g fill="#000" clip-path="url(#a)"><path d="M41.145 26.562v-2.656a2.78 2.78 0 0 1 .966-2.135 9.86 9.86 0 0 0 .191-14.835A9.47 9.47 0 0 0 34.84 4.56a9.71 9.71 0 0 0-8.49 8.738 9.87 9.87 0 0 0 3.389 8.453 2.82 2.82 0 0 1 .99 2.15v2.66a3.91 3.91 0 0 0 3.906 3.908h2.605a3.91 3.91 0 0 0 3.906-3.907m-10.393-6a8.3 8.3 0 0 1-2.849-7.115 8.145 8.145 0 0 1 7.11-7.335q.465-.051.931-.052a7.9 7.9 0 0 1 5.317 2.041 8.298 8.298 0 0 1-.16 12.478 4.3 4.3 0 0 0-1.335 2.077h-7.661a4.37 4.37 0 0 0-1.353-2.093m1.538 3.657h7.293v1.562H32.29zm.144 3.125h7.005a2.34 2.34 0 0 1-2.2 1.562h-2.605a2.34 2.34 0 0 1-2.2-1.562M35.156.781h1.563v2.7h-1.563zM26.004 5.286l1.13-1.08 1.85 1.937-1.13 1.08zM42.91 6.077l1.906-1.882 1.098 1.112-1.906 1.882zM22.832 12.787h2.702v1.562h-2.702z"/><path d="M46.563 13.281h2.656v1.563h-2.657zM40.436 18.525a6.2 6.2 0 0 0 1.725-2.89.78.78 0 0 0-.374-.885l-.56-.313a5 5 0 0 0 0-.75l.56-.312a.78.78 0 0 0 .374-.885 6.2 6.2 0 0 0-1.72-2.892.78.78 0 0 0-.92-.116l-.559.348a5.3 5.3 0 0 0-.736-.415v-.62a.78.78 0 0 0-.579-.755 6.7 6.7 0 0 0-1.792-.227 6.6 6.6 0 0 0-1.627.23.78.78 0 0 0-.58.754v.618q-.369.168-.7.399l-.591-.33a.78.78 0 0 0-.92.116 6.2 6.2 0 0 0-1.723 2.89.78.78 0 0 0 .374.885l.56.312a5 5 0 0 0 0 .75l-.56.313a.78.78 0 0 0-.374.884 6.2 6.2 0 0 0 1.72 2.892.78.78 0 0 0 .92.116l.558-.348q.351.237.737.416v.62a.78.78 0 0 0 .579.755c.558.15 1.133.227 1.712.227h.08a6.6 6.6 0 0 0 1.627-.23.78.78 0 0 0 .58-.755v-.617q.367-.168.7-.4l.59.33a.78.78 0 0 0 .92-.115m-.746-1.578a1.54 1.54 0 0 0-1.602.053 4 4 0 0 1-.556.31 1.49 1.49 0 0 0-.868 1.358v.027a4.8 4.8 0 0 1-1.453 0v-.027a1.49 1.49 0 0 0-.868-1.358 4 4 0 0 1-.556-.31 1.54 1.54 0 0 0-1.601-.053l-.06.033a4.7 4.7 0 0 1-.71-1.181l.457-.256a.78.78 0 0 0 .387-.83 3.3 3.3 0 0 1 0-1.302.78.78 0 0 0-.387-.829l-.457-.255c.177-.427.418-.825.713-1.18l.056.03a1.54 1.54 0 0 0 1.602-.052 4 4 0 0 1 .556-.31 1.49 1.49 0 0 0 .868-1.358V9.43a4.8 4.8 0 0 1 1.453 0v.027a1.49 1.49 0 0 0 .868 1.358q.292.133.556.31a1.54 1.54 0 0 0 1.6.053l.061-.033c.294.356.533.755.71 1.182l-.458.255a.78.78 0 0 0-.386.827c.086.431.086.875 0 1.307a.78.78 0 0 0 .386.827l.458.255a4.6 4.6 0 0 1-.712 1.18z"/><path d="M35.938 10.938a3.125 3.125 0 1 0 0 6.25 3.125 3.125 0 0 0 0-6.25m0 4.687a1.563 1.563 0 1 1 0-3.125 1.563 1.563 0 0 1 0 3.125M3.125 37.5c.014 0 .028-.004.042-.004l.799 2.127a2.328 2.328 0 0 0 2.279 3.985l1.357 1.752a2.32 2.32 0 0 0-.325 2.568 2.343 2.343 0 1 0 4.059-2.33l2.03-1.966c.225.075.46.115.697.118a2.344 2.344 0 0 0 2.339-2.3l5.197-1.732a2.336 2.336 0 1 0 2.836-3.55l.341-3.43A2.338 2.338 0 1 0 22.82 28.6l-3.367-2.248q.075-.28.078-.57a2.338 2.338 0 0 0-4.672-.146L8.153 27.55a2.34 2.34 0 1 0-3.587 2.982l-1.16 2.31a2 2 0 0 0-.282-.029 2.344 2.344 0 1 0 0 4.688m2.344 4.688a.78.78 0 1 1 0-1.562.78.78 0 0 1 0 1.562m3.906 5.468a.782.782 0 1 1 0-1.563.782.782 0 0 1 0 1.563m.696-3.007a2.1 2.1 0 0 0-1.103-.077l-1.507-1.947q.127-.208.208-.437h4.194q.09.261.239.495zm1.792-4.024H7.669a2.3 2.3 0 0 0-.176-.378l1.77-2.145c.423.178.89.225 1.34.134.358.425 1.027 1.218 1.548 1.823a2.3 2.3 0 0 0-.288.566m-2.488-4.687a.781.781 0 1 1 1.562 0 .781.781 0 0 1-1.562 0m4.688 6.25a.78.78 0 1 1 0-1.562.78.78 0 0 1 0 1.562m-.173-3.108q-.232.016-.454.078a204 204 0 0 1-1.478-1.74 2.1 2.1 0 0 0 .513-1.764l2.313-1.157q.134.13.286.237zm7.208-.843-5.197 1.733a2.4 2.4 0 0 0-.503-.485l1.181-4.346c.386-.027.76-.149 1.087-.356l3.557 2.765a2.3 2.3 0 0 0-.125.69m3.12-8.55a.78.78 0 1 1 0 1.562.78.78 0 0 1 0-1.561m0 8.594a.782.782 0 1 1-1.562 0 .782.782 0 0 1 1.563 0m-.996-5.7-.342 3.43c-.249.061-.486.162-.702.3l-3.557-2.765q.1-.3.117-.616l3.595-1.082c.231.314.536.566.889.733M21.953 29.9q-.056.223-.066.452l-3.595 1.082a2.35 2.35 0 0 0-.867-.721l.296-2.654c.314-.074.608-.213.865-.407zM17.188 25a.78.78 0 1 1 0 1.561.78.78 0 0 1 0-1.561m0 7.813a.78.78 0 1 1-1.562 0 .78.78 0 0 1 1.562 0m-1.904-5.675c.228.318.532.574.885.744l-.297 2.654c-.481.115-.914.38-1.235.756l-5.932-2.276zm-7.265 3.289 6.05 2.32c0 .023-.007.043-.007.066q.006.143.03.283l-2.313 1.157a2.2 2.2 0 0 0-1.961-.625L7.83 30.625q.1-.094.188-.198M6.25 28.125a.78.78 0 1 1 0 1.562.78.78 0 0 1 0-1.562m-.281 3.096q.14.023.281.029c.039 0 .075-.01.114-.012l2.067 3.126a2.3 2.3 0 0 0-.466.765c-.59-.052-1.543-.155-2.526-.268a2.33 2.33 0 0 0-.631-1.33zm-.863 5.175c1.41.167 2.291.264 2.845.305q.063.18.155.348L6.31 39.225a2.3 2.3 0 0 0-.841-.163c-.015 0-.028.005-.042.005l-.8-2.127c.187-.156.349-.34.479-.544m-1.981-2.021a.78.78 0 1 1 0 1.562.78.78 0 0 1 0-1.562M31.25 35.938h-3.906V37.5h3.906a5.475 5.475 0 0 0 5.469-5.469v-.781h-1.563v.781a3.91 3.91 0 0 1-3.906 3.907"/></g><defs><clipPath id="a"><path fill="#fff" d="M0 0h50v50H0z"/></clipPath></defs></svg>