<svg xmlns="http://www.w3.org/2000/svg" width="50" height="50" fill="none"><path fill="#000" fill-rule="evenodd" d="M26.963 28.236q.02 0 .041-.002a.89.89 0 0 0 .772-.517l1.31-2.814.263-.08a.46.46 0 0 1 .294 0l.263.08 1.31 2.815a.894.894 0 0 0 1.587.072l.615-1.058 1.205.21a.89.89 0 0 0 .866-.337.89.89 0 0 0 .1-.924l-1.262-2.712.229-.098a2.06 2.06 0 0 0 1.241-2.15l-.115-.964a.46.46 0 0 1 .051-.29l.438-.867a2.06 2.06 0 0 0-.431-2.445l-.708-.665a.46.46 0 0 1-.147-.255l-.222-.945a2.06 2.06 0 0 0-1.902-1.596l-.308-.017v-2.09c0-.324-.199-.613-.5-.73l-1.355-.521a9.7 9.7 0 0 0-.86-2.073l.59-1.328a.78.78 0 0 0-.161-.87l-1.998-1.997a.78.78 0 0 0-.87-.161l-1.328.59a9.7 9.7 0 0 0-2.072-.86l-.522-1.355a.78.78 0 0 0-.729-.5h-2.825a.78.78 0 0 0-.729.5l-.522 1.355a9.7 9.7 0 0 0-2.072.86l-1.328-.59a.78.78 0 0 0-.87.161l-1.998 1.998a.78.78 0 0 0-.161.87l.59 1.328a9.7 9.7 0 0 0-.86 2.072l-1.355.522a.78.78 0 0 0-.5.729v2.825c0 .323.199.613.5.729l1.355.521c.206.723.493 1.417.86 2.073l-.59 1.328a.78.78 0 0 0 .161.87l1.998 1.997a.78.78 0 0 0 .87.162l1.328-.59c.656.366 1.35.654 2.072.859l.522 1.355c.116.302.406.501.729.501h2.825a.78.78 0 0 0 .729-.5l.202-.525c.213.291.504.528.857.68l.229.097-1.263 2.712a.89.89 0 0 0 .101.924.89.89 0 0 0 .866.337l1.205-.21.614 1.057a.89.89 0 0 0 .775.446m6.188-3.137a.78.78 0 0 0-.81.377l-.247.425-.364-.78c.471-.131.891-.43 1.176-.865l.173-.265.556 1.192zm-.01-10.453.222.946c.096.41.293.75.6 1.038l.708.664c.171.161.212.391.106.601l-.438.867a2 2 0 0 0-.209 1.18l.116.965a.494.494 0 0 1-.306.528l-.892.383a2 2 0 0 0-.918.77l-.532.813a.49.49 0 0 1-.573.208l-.93-.28a2 2 0 0 0-.6-.092q-.296 0-.599.091l-.93.281a.494.494 0 0 1-.573-.208l-.531-.813a2 2 0 0 0-.918-.77l-.893-.383a.494.494 0 0 1-.305-.528l.115-.965a2 2 0 0 0-.208-1.18l-.438-.867a.49.49 0 0 1 .106-.6l.708-.665a2 2 0 0 0 .6-1.038l.025-.108.001-.006.195-.832a.49.49 0 0 1 .467-.392l.97-.054a2 2 0 0 0 1.126-.41l.778-.582a.494.494 0 0 1 .61 0l.777.582a2 2 0 0 0 1.127.41l.97.054a.49.49 0 0 1 .467.392m-7.88-1.651a2.06 2.06 0 0 0-.932 1.295l-.146.624a4.15 4.15 0 0 1-2.948 1.23A4.15 4.15 0 0 1 17.09 12a4.15 4.15 0 0 1 4.145-4.145 4.15 4.15 0 0 1 4.026 5.14m-2.128 6.952a.78.78 0 0 0-.549.479l-.472 1.229H20.36l-.473-1.23a.78.78 0 0 0-.549-.479 8.1 8.1 0 0 1-2.379-.986.78.78 0 0 0-.727-.05l-1.204.536-1.24-1.239.536-1.204a.78.78 0 0 0-.05-.727 8.1 8.1 0 0 1-.986-2.38.78.78 0 0 0-.48-.548l-1.228-.473v-1.752l1.229-.473a.78.78 0 0 0 .48-.548c.2-.841.531-1.642.986-2.38a.78.78 0 0 0 .049-.726l-.535-1.205 1.239-1.239 1.204.535a.78.78 0 0 0 .727-.049 8.1 8.1 0 0 1 2.38-.986.78.78 0 0 0 .548-.48l.473-1.228h1.752l.473 1.229c.092.24.297.42.548.48.84.199 1.641.531 2.38.986.219.135.49.153.726.048l1.204-.535 1.24 1.24-.535 1.203a.78.78 0 0 0 .048.727c.455.738.787 1.539.987 2.38a.78.78 0 0 0 .48.548l1.228.473v.95l-.154-.116a2.06 2.06 0 0 0-2.482 0l-.778.582a.46.46 0 0 1-.277.101l-.295.016q.038-.325.038-.657a5.714 5.714 0 0 0-5.708-5.708A5.714 5.714 0 0 0 15.528 12a5.714 5.714 0 0 0 5.707 5.708c.464 0 .922-.059 1.365-.168-.021.357.05.722.22 1.061l.439.867c.05.1.064.179.05.29l-.017.148q-.08.022-.16.042m2.708 5.152-.484.084.556-1.192.173.265c.285.435.705.733 1.176.864l-.364.78-.247-.424a.78.78 0 0 0-.81-.377m.016-6.731a3.643 3.643 0 0 0 3.639 3.64 3.643 3.643 0 0 0 3.64-3.64 3.643 3.643 0 0 0-3.64-3.64 3.643 3.643 0 0 0-3.64 3.64m5.716 0a2.08 2.08 0 0 1-2.077 2.077 2.08 2.08 0 0 1-2.077-2.077 2.08 2.08 0 0 1 2.077-2.077 2.08 2.08 0 0 1 2.077 2.077m15.208 15.87c1.23-1.23 1.855-2.78 1.807-4.485l-.468-16.509c-.043-1.538-1.579-2.917-3.235-2.917h-.047c-.812.013-3.456.458-3.437 5.63l.034 8.968q.003.54-.118 1.036a3.3 3.3 0 0 0-.443-.548c-1.118-1.118-2.95-1.13-4.173-.028a1 1 0 0 0-.073.076c-1.457 1.722-3.24 3.225-4.674 4.433-.5.421-.972.819-1.358 1.167-1.577 1.422-1.787 3.398-1.785 5.143l.01 6.567-.751-.006h-.017c-.506 0-.983.196-1.346.552-.367.36-.572.841-.576 1.353l-.021 2.499a1.924 1.924 0 0 0 1.905 1.938l12.978.112h.017a1.924 1.924 0 0 0 1.922-1.906l.021-2.498a1.925 1.925 0 0 0-1.905-1.939l-1.505-.013v-1.386zm-5.39 10.563-.022 2.499a.365.365 0 0 1-.36.356h-.002l-12.978-.111a.365.365 0 0 1-.357-.363l.021-2.498a.36.36 0 0 1 .109-.253.36.36 0 0 1 .25-.104h.004l12.978.111a.365.365 0 0 1 .357.363m-11.007-2.017-.01-6.583c-.002-1.47.15-2.971 1.268-3.98.367-.33.808-.702 1.319-1.132 1.466-1.236 3.288-2.772 4.822-4.575.612-.523 1.458-.524 1.986.004.64.64.44 1.327.106 1.833-.845.97-1.693 1.794-2.582 2.658-.384.372-.78.758-1.191 1.169a.781.781 0 1 0 1.105 1.104q.604-.601 1.175-1.153c.848-.824 1.66-1.612 2.479-2.533a.8.8 0 0 0 .157-.156q.05-.067.096-.134.25-.289.503-.6c.934-1.15 1.386-2.389 1.38-3.787l-.033-8.968c-.01-2.524.7-4.042 1.898-4.061.82-.012 1.676.692 1.696 1.398l.468 16.51c.036 1.282-.418 2.404-1.35 3.336L38.21 40.6a.78.78 0 0 0-.229.553v1.696zm-1.847 2.876a.776.776 0 1 1 1.443.573.776.776 0 0 1-1.443-.573m-5.243-2.343a1.9 1.9 0 0 0-1.363-.552l-.751.006.01-6.567c.002-1.745-.208-3.721-1.785-5.143a57 57 0 0 0-1.358-1.167c-1.433-1.208-3.217-2.711-4.674-4.433a1 1 0 0 0-.073-.076c-1.222-1.102-3.055-1.09-4.173.028a3.3 3.3 0 0 0-.443.548 4.3 4.3 0 0 1-.119-1.036l.035-8.968c.02-5.172-2.626-5.616-3.437-5.63-1.67-.028-3.239 1.364-3.282 2.917l-.468 16.51c-.048 1.704.576 3.255 1.806 4.485l7.239 7.238v1.386l-1.505.013a1.924 1.924 0 0 0-1.905 1.939l.021 2.498a1.925 1.925 0 0 0 1.922 1.906h.017l12.978-.112a1.925 1.925 0 0 0 1.906-1.938l-.022-2.499a1.9 1.9 0 0 0-.576-1.353m-11.273-2.163a.78.78 0 0 0-.23-.553l-7.467-7.467c-.931-.932-1.385-2.054-1.35-3.337l.468-16.509c.02-.7.86-1.399 1.674-1.399h.022c1.199.02 1.909 1.538 1.9 4.062l-.035 8.968c-.005 1.398.446 2.637 1.38 3.788q.255.31.503.6l.097.133q.07.09.157.156c.818.92 1.63 1.71 2.479 2.533.38.369.773.75 1.175 1.153a.781.781 0 1 0 1.105-1.105c-.41-.41-.808-.796-1.192-1.169-.889-.863-1.736-1.687-2.581-2.657-.333-.506-.534-1.193.106-1.833.528-.528 1.374-.527 1.986-.004 1.534 1.803 3.356 3.339 4.822 4.575.51.43.952.802 1.318 1.132 1.119 1.009 1.271 2.509 1.269 3.98l-.01 6.583-7.597.066zm9.951 6.39-12.978.112a.363.363 0 0 1-.362-.356L8.61 44.8a.364.364 0 0 1 .357-.363l12.978-.11h.003a.358.358 0 0 1 .36.356l.02 2.498a.364.364 0 0 1-.356.363m-.508-1.884a.776.776 0 1 1-1.443.573.776.776 0 0 1 1.443-.573" clip-rule="evenodd"/></svg>