<svg xmlns="http://www.w3.org/2000/svg" width="64" height="64" fill="none"><path fill="#282928" fill-rule="evenodd" d="M48 2a2 2 0 0 1 1.95 1.557l1.107 4.866a6 6 0 0 0 4.52 4.52l4.867 1.107a2 2 0 0 1 0 3.9l-4.867 1.107a6 6 0 0 0-4.52 4.52l-1.107 4.866a2 2 0 0 1-3.9 0l-1.107-4.866a6 6 0 0 0-4.52-4.52l-4.867-1.107a2 2 0 0 1 0-3.9l4.867-1.107a6 6 0 0 0 4.52-4.52l1.107-4.866A2 2 0 0 1 48 2m0 6.638C47.875 11.472 43.346 16 40.638 16c2.414 0 6.943 4.529 7.362 7.362.206-2.588 4.735-7.116 7.362-7.362-3.034 0-7.563-4.528-7.362-7.362" clip-rule="evenodd"/><path fill="#282928" d="M2 23.25c0-.69.895-1.25 2-1.25h22c1.105 0 2 .56 2 1.25s-.895 1.25-2 1.25H4c-1.105 0-2-.56-2-1.25M4 34c-1.105 0-2 .56-2 1.25s.895 1.25 2 1.25h56c1.105 0 2-.56 2-1.25S61.105 34 60 34zM2 47.25c0-.69.895-1.25 2-1.25h56c1.105 0 2 .56 2 1.25s-.895 1.25-2 1.25H4c-1.105 0-2-.56-2-1.25M4 58c-1.105 0-2 .56-2 1.25s.895 1.25 2 1.25h56c1.105 0 2-.56 2-1.25S61.105 58 60 58z"/></svg>