<svg xmlns="http://www.w3.org/2000/svg" width="100" height="60" fill="none"><path fill="#282928" d="M37.71 39.996a3.43 3.43 0 0 0-3.425 3.42 3.43 3.43 0 0 0 3.425 3.425 3.43 3.43 0 0 0 3.165-4.735 3.4 3.4 0 0 0-.747-1.108 3.38 3.38 0 0 0-2.418-1.002M39.546 12.436a3.43 3.43 0 0 0-3.425 3.424 3.43 3.43 0 0 0 3.425 3.425 3.43 3.43 0 0 0 3.42-3.425 3.425 3.425 0 0 0-3.42-3.424M35.955 28.698a3.43 3.43 0 0 0-3.425-3.425 3.43 3.43 0 0 0-3.42 3.425 3.43 3.43 0 0 0 3.424 3.42 3.425 3.425 0 0 0 3.42-3.42"/><path fill="#282928" d="M37.708 46.842a3.43 3.43 0 0 1-3.425-3.425 3.43 3.43 0 0 1 4.735-3.163c.415.172.792.426 1.108.745a3.38 3.38 0 0 1 1.006 2.418 3.43 3.43 0 0 1-3.424 3.425m0-8.925a5.497 5.497 0 1 0 5.496 5.496 5.46 5.46 0 0 0-1.61-3.894 5.5 5.5 0 0 0-3.895-1.61M29.11 28.698a3.43 3.43 0 0 1 3.421-3.425 3.43 3.43 0 0 1 3.425 3.425 3.425 3.425 0 0 1-3.42 3.42 3.43 3.43 0 0 1-3.426-3.42m8.926 0a5.496 5.496 0 1 0-10.993 0 5.496 5.496 0 0 0 10.993 0M39.547 19.283a3.43 3.43 0 0 1-3.424-3.425 3.43 3.43 0 0 1 3.424-3.425 3.425 3.425 0 0 1 0 6.85m0-8.926a5.497 5.497 0 1 0 0 10.994 5.497 5.497 0 0 0 0-10.994"/><path fill="#282928" d="M75.454 33.5a19.84 19.84 0 0 0-10.693-3.107 20.34 20.34 0 0 0-20.22 20.413c0 1.52.168 3.034.5 4.516a25.4 25.4 0 0 1-13.192-7.014 25.715 25.715 0 0 1 0-36.324A25.52 25.52 0 0 1 50.03 4.462a25.52 25.52 0 0 1 18.18 7.522 25.64 25.64 0 0 1 7.282 21.521zM50.009 2.396a27.58 27.58 0 0 0-19.631 8.13 27.795 27.795 0 0 0 0 39.267 27.5 27.5 0 0 0 15.944 7.86h.135a1.04 1.04 0 0 0 1.02-.831c.034-.17.026-.347-.026-.514a18.6 18.6 0 0 1-.846-5.496 18.257 18.257 0 0 1 18.139-18.333 17.84 17.84 0 0 1 10.824 3.653 1.044 1.044 0 0 0 1.649-.63 27.73 27.73 0 0 0-7.61-24.984 27.6 27.6 0 0 0-19.598-8.122"/></svg>