<svg xmlns="http://www.w3.org/2000/svg" width="100" height="60" fill="none"><path fill="#282928" d="M63.77 2.37c-.79.185-2.526 1.08-3.42 1.764-1.698 1.29-3.04 2.829-3.633 4.184-.17.408-.368.75-.434.75s-.487-.145-.92-.316c-1.224-.487-2.58-.645-4.646-.566-2.197.08-3.526.421-5.5 1.408-.736.355-1.408.658-1.486.658-.08 0-.487-.276-.908-.631-4.066-3.33-7.645-5.408-8.659-5.027-.802.303-1.065 1.908-.67 4.08.381 2.104 1.197 3.723 2.592 5.157 1.144 1.171 1.5 1.303 3.579 1.395l1.697.066-.079.408c-.053.223-.118.736-.158 1.144-.105.974.119 1.21 1.434 1.5 1.658.369 1.856.79.566 1.198-.697.223-.724.25-.855.829-.079.329-.448 2.158-.816 4.052-.776 3.908-.776 3.948.184 4.382 1.21.553 2.632.224 4.29-1 .46-.342 1.158-.79 1.526-1 2.355-1.276 5.869-1.921 8.487-1.566.658.092 1.237.145 1.263.105.04-.039.25-1.092.46-2.342.409-2.368.817-4.42 1.317-6.592l.29-1.263 1.223-.684c1.513-.83 2.671-1.671 3.132-2.277 1.026-1.342 2.184-5.263 2.21-7.434.013-1.342-.25-2.026-.882-2.316-.486-.237-.447-.237-1.184-.066M56.204 17.7c0 .052-.144.355-.329.697-.54.96-1.605 1.526-2.526 1.316a6 6 0 0 0-1.145-.119c-.605 0-.631-.013-.552-.329.04-.17.197-.513.342-.763.25-.42.316-.447 1.224-.54a68 68 0 0 0 1.67-.197c.974-.144 1.316-.157 1.316-.065M56.942 26.278c-.25.763-4.263 3.724-8.263 6.092l-1.408.829.026 6.316c.04 8.197-.092 9.46-1.566 15.632a137 137 0 0 0-.579 2.526c0 .04.158.079.343.079.407 0 6.302-2.737 7.776-3.605l1.053-.632 1.263-2.592c.684-1.421 1.881-3.855 2.631-5.421L59.6 42.66l-.974-3.869c-1.316-5.263-1.54-6.724-1.526-10.092.013-1.46-.013-2.658-.04-2.658-.026 0-.079.105-.118.237"/></svg>