<svg xmlns="http://www.w3.org/2000/svg" width="60" height="60" fill="none"><path fill="#282928" d="M56.819 45.39H22.54l-1.282-4.78h28.099c.466 0 .933-.35 1.05-.7l7.578-19.004c.117-.35.117-.816-.117-1.05-.233-.35-.583-.466-.932-.466h-5.247c-.7-8.395-7.579-14.924-15.974-14.924H35.6c-8.162 0-15.274 6.296-15.857 14.924h-4.314L11.464 4.816c-.117-.583-.583-.933-1.166-.933H3.185c-.7 0-1.165.466-1.165 1.166s.466 1.166 1.165 1.166h6.297L20.558 46.79c.117.466.583.816 1.166.816h2.332c-.583.816-.933 1.865-.933 3.031 0 2.915 2.449 5.364 5.363 5.364s5.364-2.449 5.364-5.364c0-1.166-.35-2.098-.933-3.031h12.709c-.583.816-.933 1.865-.933 3.031 0 2.915 2.449 5.364 5.364 5.364s5.363-2.449 5.363-5.364c0-1.166-.35-2.098-.933-3.031h2.332c.7 0 1.166-.467 1.166-1.166 0-.7-.583-1.05-1.166-1.05M49.24 19.274h-4.897c0-1.166-.116-2.448-.35-3.498h4.431c.467 1.05.7 2.332.816 3.498m-5.246 5.83q.35-1.749.35-3.498h4.896c-.116 1.283-.35 2.449-.816 3.498zm3.38 2.332c-1.398 2.448-3.614 4.314-6.179 5.48 1.05-1.516 1.866-3.381 2.332-5.48zm0-13.991h-3.847c-.583-2.216-1.399-4.081-2.332-5.48 2.565 1.049 4.78 3.031 6.18 5.48M36.882 7.03c1.75.7 3.382 3.031 4.314 6.413h-4.314zm0 8.744h4.78q.35 1.575.35 3.498h-5.246v-3.498zm0 5.83h5.247c0 1.283-.233 2.449-.35 3.498h-4.78v-3.498zm0 5.83h4.314c-.932 3.381-2.565 5.713-4.314 6.413zM34.55 7.03v6.413h-4.314c.933-3.382 2.566-5.714 4.314-6.413m-4.896 18.072c-.234-1.05-.35-2.332-.35-3.498h5.246v3.498zm4.896 2.332v6.413c-1.748-.7-3.38-3.032-4.314-6.413zm-6.762 0c.583 2.215 1.4 4.08 2.332 5.48-2.565-1.166-4.78-3.148-6.18-5.48zm-4.897-2.332c-.35-1.166-.7-2.332-.816-3.498h4.897c0 1.166.116 2.449.35 3.498zm6.413-5.83c0-1.282.233-2.448.35-3.498h4.78v3.498zm.816-11.426c-1.05 1.516-1.866 3.381-2.332 5.48h-3.848c1.4-2.332 3.615-4.314 6.18-5.48m-7.229 7.928h4.43c-.233 1.166-.233 2.332-.35 3.498h-4.896c.116-1.166.35-2.448.816-3.498m-2.332 22.503-4.547-16.673h3.73c.584 8.512 7.696 14.808 15.858 14.924h.116c8.162 0 15.274-6.412 15.857-14.924h3.498l-6.646 16.673zm7.812 15.507c-1.632 0-3.032-1.399-3.032-3.031s1.4-3.032 3.032-3.032 3.031 1.4 3.031 3.032-1.399 3.031-3.031 3.031m21.453 0c-1.632 0-3.031-1.399-3.031-3.031s1.399-3.032 3.031-3.032 3.032 1.4 3.032 3.032-1.283 3.031-3.032 3.031"/></svg>