<svg xmlns="http://www.w3.org/2000/svg" width="60" height="60" fill="none"><path fill="#282928" d="M27.188 7.5h-5.625a.938.938 0 0 1 0-1.875h5.625a.938.938 0 0 1 0 1.875M34.688 58.125H14.061a4.693 4.693 0 0 1-4.687-4.687V40.312a.938.938 0 0 1 1.875 0v13.126a2.816 2.816 0 0 0 2.813 2.812h20.624a2.816 2.816 0 0 0 2.813-2.812V21.562a.938.938 0 0 1 1.875 0v31.876a4.693 4.693 0 0 1-4.687 4.687"/><path fill="#282928" d="M38.438 9.375a.94.94 0 0 1-.938-.937V6.562a2.816 2.816 0 0 0-2.812-2.812H14.061a2.816 2.816 0 0 0-2.812 2.813v1.875a.938.938 0 0 1-1.875 0V6.562a4.693 4.693 0 0 1 4.688-4.687h20.624a4.693 4.693 0 0 1 4.688 4.688v1.875c0 .517-.42.937-.937.937M23.438 46.875h-7.5a.938.938 0 0 1 0-1.875h7.5a.938.938 0 0 1 0 1.875M29.063 50.625H15.938a.938.938 0 0 1 0-1.875h13.125a.938.938 0 0 1 0 1.875M32.813 43.125H15.936a.938.938 0 0 1 0-1.875h16.876a.938.938 0 0 1 0 1.875M13.125 26.25a4.693 4.693 0 0 1-4.687-4.687 4.693 4.693 0 0 1 4.687-4.688 4.693 4.693 0 0 1 4.688 4.688 4.693 4.693 0 0 1-4.688 4.687m0-7.5a2.816 2.816 0 0 0-2.812 2.813 2.816 2.816 0 0 0 2.812 2.812 2.816 2.816 0 0 0 2.813-2.812 2.816 2.816 0 0 0-2.813-2.813M13.125 37.5a13.1 13.1 0 0 1-8.886-3.491.94.94 0 0 1-.274-.913 6.52 6.52 0 0 1 6.347-4.971h5.625a6.524 6.524 0 0 1 6.349 4.969.94.94 0 0 1-.274.913c-2.443 2.252-5.599 3.493-8.887 3.493m-7.176-4.487c4.054 3.377 10.297 3.377 14.351 0A4.65 4.65 0 0 0 15.937 30h-5.625a4.65 4.65 0 0 0-4.363 3.013"/><path fill="#282928" d="M13.125 37.5C5.889 37.5 0 31.613 0 24.375S5.89 11.25 13.125 11.25 26.25 17.137 26.25 24.375 20.36 37.5 13.125 37.5m0-24.375c-6.204 0-11.25 5.046-11.25 11.25s5.046 11.25 11.25 11.25 11.25-5.046 11.25-11.25-5.046-11.25-11.25-11.25M4.688 43.031c-.518 0-.938-.326-.938-.843V42a.938.938 0 0 1 1.875 0c0 .517-.42 1.031-.937 1.031M4.688 46.781c-.518 0-.938-.326-.938-.843v-.188a.938.938 0 0 1 1.875 0c0 .517-.42 1.031-.937 1.031M4.688 50.531c-.518 0-.938-.326-.938-.843V49.5a.938.938 0 0 1 1.875 0c0 .517-.42 1.031-.937 1.031M41.888 50.625h-1.575a.938.938 0 0 1 0-1.875h.819l.46-2.128a.93.93 0 0 1 .695-.713 9 9 0 0 0 2.563-1.07.94.94 0 0 1 .992.01l1.856 1.186 1.15-1.159-1.187-1.841a.94.94 0 0 1-.014-.996 9 9 0 0 0 1.07-2.563.94.94 0 0 1 .708-.697l2.136-.475v-1.607l-2.136-.474a.94.94 0 0 1-.709-.697 9 9 0 0 0-1.069-2.564.93.93 0 0 1 .012-.993l1.188-1.858-1.147-1.148-1.858 1.189a.93.93 0 0 1-.992.01 9 9 0 0 0-2.563-1.071.93.93 0 0 1-.696-.713l-.46-2.128h-.819a.938.938 0 0 1 0-1.875h1.576c.44 0 .823.31.915.74l.5 2.313c.686.208 1.36.489 2.008.84l2.014-1.289a.94.94 0 0 1 1.168.128l2.215 2.212a.936.936 0 0 1 .125 1.169L49.545 32.5c.35.65.632 1.324.84 2.012l2.316.514c.429.096.735.476.735.915v3.112a.94.94 0 0 1-.735.915l-2.316.514c-.208.688-.49 1.361-.84 2.01l1.286 1.995c.24.37.19.857-.122 1.168l-2.214 2.232a.94.94 0 0 1-1.17.129l-2.014-1.288c-.65.35-1.322.632-2.008.84l-.5 2.312a.936.936 0 0 1-.915.744"/><path fill="#282928" d="M42.289 42.69a.937.937 0 0 1-.396-1.787 3.77 3.77 0 0 0 2.172-3.403 3.754 3.754 0 0 0-5.207-3.456.937.937 0 1 1-.731-1.725 5.6 5.6 0 0 1 2.188-.444A5.63 5.63 0 0 1 45.94 37.5a5.65 5.65 0 0 1-3.255 5.102.9.9 0 0 1-.396.088M45 18.75H33.75A3.754 3.754 0 0 1 30 15a3.754 3.754 0 0 1 3.75-3.75H45A3.754 3.754 0 0 1 48.75 15 3.754 3.754 0 0 1 45 18.75m-11.25-5.625A1.877 1.877 0 0 0 31.875 15c0 1.033.84 1.875 1.875 1.875H45A1.877 1.877 0 0 0 46.875 15c0-1.033-.84-1.875-1.875-1.875z"/></svg>