<svg xmlns="http://www.w3.org/2000/svg" width="60" height="60" fill="none"><g fill="#282928" clip-path="url(#a)"><path d="M51.563 42.193v-3.755a4.693 4.693 0 0 0-4.688-4.688h-7.892a26.4 26.4 0 0 0 2.089-5.032l3.562-2.85a3.464 3.464 0 0 0-2.05-6.168l2.088-5.743A9.704 9.704 0 0 0 35.554.937h-7.96a31.75 31.75 0 0 0-16.84 4.83.938.938 0 0 0 .2 1.688l2.26.75a2.407 2.407 0 0 1 1.474 3.177 4.28 4.28 0 0 0 .145 3.505l2.417 4.83a3.458 3.458 0 0 0-1.883 6.15l3.563 2.851c.52 1.745 1.22 3.431 2.087 5.032h-7.892a4.693 4.693 0 0 0-4.687 4.688v3.755a12.2 12.2 0 0 0-7.5 11.245v4.687a.937.937 0 0 0 .937.938h56.25a.94.94 0 0 0 .938-.938v-4.687a12.2 12.2 0 0 0-7.5-11.245M37.5 19.688h-5.625a.94.94 0 0 0-.937.937v.938h-1.875v-.938a.94.94 0 0 0-.938-.937h-8.437v-1.374l5.851-3.9a7.65 7.65 0 0 1 4.255-1.289 9.57 9.57 0 0 0 5.961-2.092l1.532-1.225 1.608 2.413a8.4 8.4 0 0 1 1.417 4.68v2.787zm-.937 1.875v2.812a.94.94 0 0 1-.938.938H33.75a.94.94 0 0 1-.937-.938v-2.812zm-9.376 0v2.812a.94.94 0 0 1-.937.938h-1.875a.94.94 0 0 1-.937-.938v-2.812zm16.876 1.593a1.59 1.59 0 0 1-.599 1.245l-1.7 1.36c.248-1.387.385-2.79.408-4.198h.297a1.594 1.594 0 0 1 1.593 1.593M16.428 12.08a4.28 4.28 0 0 0-2.62-5.652l-.287-.094a29.9 29.9 0 0 1 14.073-3.52h7.96a7.828 7.828 0 0 1 7.356 10.5l-.814 2.24a10.3 10.3 0 0 0-1.641-4.376L38.28 7.913a.94.94 0 0 0-1.366-.211l-2.33 1.868a7.7 7.7 0 0 1-4.79 1.68 9.5 9.5 0 0 0-5.295 1.603l-6.27 4.18a1 1 0 0 0-.159.136l-1.56-3.12a2.4 2.4 0 0 1-.082-1.97m.109 12.324a1.593 1.593 0 0 1 .994-2.84h.295c.023 1.408.16 2.813.407 4.2zm3.166-2.84h1.86v2.812a2.81 2.81 0 0 0 2.812 2.813h1.875a2.81 2.81 0 0 0 2.813-2.813v-.937h1.875v.937a2.81 2.81 0 0 0 2.812 2.813h1.875a2.81 2.81 0 0 0 2.813-2.813v-2.812h1.86a24.55 24.55 0 0 1-3.48 12.187H23.182a24.55 24.55 0 0 1-3.48-12.187m-6.578 14.062h33.75a2.81 2.81 0 0 1 2.813 2.813v18.75H10.313v-18.75a2.81 2.81 0 0 1 2.812-2.813M2.813 53.438a10.33 10.33 0 0 1 5.624-9.181v12.93H2.814zm54.375 3.75h-5.626V44.257a10.33 10.33 0 0 1 5.626 9.18z"/><path d="M30 54.375a3.75 3.75 0 1 0 0-7.5 3.75 3.75 0 0 0 0 7.5m0-5.625a1.875 1.875 0 1 1 0 3.75 1.875 1.875 0 0 1 0-3.75M23.712 45.662l1.326-1.326-3.088-3.087 3.088-3.087-1.326-1.326-3.75 3.75a.937.937 0 0 0 0 1.326zM36.287 45.662l3.75-3.75a.94.94 0 0 0 0-1.326l-3.75-3.75-1.326 1.326 3.087 3.087-3.087 3.087zM32.064 36.939l-5.626 7.499 1.5 1.125 5.626-7.5z"/></g><defs><clipPath id="a"><path fill="#fff" d="M0 0h60v60H0z"/></clipPath></defs></svg>