<svg xmlns="http://www.w3.org/2000/svg" width="512" height="512" fill="none"><path fill="#282928" d="M256.001 151.83c-70.001 0-125.581 54.809-126.532 124.779-.375 27.595 7.984 53.844 23.82 75.715q.326.408.611.846a129 129 0 0 0 12.816 14.868c13.215 13.156 23.309 28.554 29.927 45.303h28.468V312.235a34 34 0 0 1-12.515 2.381c-18.867 0-34.217-15.35-34.217-34.217 0-18.868 15.35-34.218 34.217-34.218s34.217 15.35 34.217 34.218V413.34h18.374V280.398c0-18.868 15.35-34.218 34.217-34.218s34.217 15.35 34.217 34.218c0 18.867-15.35 34.217-34.217 34.217a34 34 0 0 1-12.515-2.381V413.34h28.53c6.617-16.805 16.636-32.223 29.552-44.992a128.5 128.5 0 0 0 13.109-15.161c.235-.362.487-.713.763-1.043 15.395-21.353 23.702-46.904 23.702-73.772-.002-69.775-56.768-126.542-126.544-126.542"/><path fill="#282928" d="M311.919 280.398c0-6.901-5.614-12.516-12.515-12.516s-12.515 5.615-12.515 12.516 5.614 12.515 12.515 12.515c6.901.001 12.515-5.613 12.515-12.515M205.69 456.478h100.624c.284-7.229 1.171-14.4 2.628-21.436H203.107a131.7 131.7 0 0 1 2.583 21.436M224.012 479.012C224.012 496.65 238.362 511 256 511s31.987-14.35 31.987-31.987v-.832h-63.975zM200.08 280.398c0 6.901 5.614 12.515 12.515 12.515s12.515-5.614 12.515-12.515-5.614-12.516-12.515-12.516-12.515 5.615-12.515 12.516"/><path fill="#282928" d="M396.957 88.812a10.85 10.85 0 0 1-9.137-7.914C374.992 33.855 331.941 1 283.127 1c-37.983 0-73.706 20.291-93.228 52.953a10.854 10.854 0 0 1-12.38 4.842 87 87 0 0 0-24.605-3.54c-50.299 0-91.055 43.141-86.45 94.708a10.85 10.85 0 0 1-6.505 10.927A97.63 97.63 0 0 0 1 250.574c0 53.849 43.81 97.659 97.659 97.659h26.501c-11.699-21.822-17.739-46.379-17.392-71.92 1.106-81.307 66.871-146.186 148.232-146.186 81.742 0 148.245 66.502 148.245 148.245 0 24.737-6.011 48.52-17.336 69.713C455.877 344.878 511 287.769 511 218.021c0-65.618-49.028-121.166-114.043-129.209"/></svg>