<svg xmlns="http://www.w3.org/2000/svg" width="512" height="416" fill="none"><path fill="#282928" d="M110.88 346.88c.8.16 1.6.16 2.4.16h13.76v-74.08c0-21.12 16.48-38.56 37.28-39.84 4-47.04 43.68-84.16 91.68-84.16s87.68 37.12 91.68 84.16c20.8 1.279 37.28 18.72 37.28 39.84v74.08h13.76c.8 0 1.6 0 2.4-.16 54.08-8 94.88-55.521 94.88-110.561 0-59.04-46.08-107.519-104.16-111.679-3.36-30.4-16.96-58.72-39.2-80.96-25.92-25.92-60.32-40-96.64-40-70.08 0-128 52.96-135.84 120.96C62.08 128.8 16 177.279 16 236.319c0 55.04 40.8 102.561 94.88 110.561"/><path fill="#282928" d="M255.999 172.96c-37.44 0-68 30.559-68 68v16h-20.96c-8.8 0-16 7.2-16 16v123.359c0 8.96 7.2 16 16 16h177.92c8.8 0 16-7.04 16-16V272.96c0-8.8-7.2-16-16-16h-20.96v-16c0-37.441-30.559-68-68-68m36 84h-72v-16c0-19.84 16.16-36 36-36s36 16.16 36 36z"/></svg>