<svg xmlns="http://www.w3.org/2000/svg" width="65.835" height="66.003"><path d="M32.917 19.162a6.387 6.387 0 1 0-6.387-6.388 6.394 6.394 0 0 0 6.387 6.388m0-10.646a4.258 4.258 0 1 1-4.258 4.258 4.263 4.263 0 0 1 4.258-4.258M56.338 29.016l-9.5 13.567h5.594a20.29 20.29 0 0 1-19.518 14.9 20.08 20.08 0 0 1-16.183-8.091l-.461-.613-8.328 2.781.735 1.151a28.64 28.64 0 0 0 24.241 13.292 28.94 28.94 0 0 0 28.25-23.42h4.667Zm3.019 11.438-.139.9a26.784 26.784 0 0 1-26.3 22.518 26.5 26.5 0 0 1-21.677-11.165l4.262-1.422a22.17 22.17 0 0 0 17.412 8.331 22.416 22.416 0 0 0 21.91-17.886l.259-1.276h-4.153l5.407-7.724 5.408 7.724Z"/><path d="M18.993 25.55h-5.592a20.4 20.4 0 0 1 6.742-10.327v.5l2.794.764q.137.366.3.728l-1.437 2.52 1.563 1.562h-2.16V51.1h23.42V21.291h-2.16l1.563-1.563-1.437-2.52q.168-.363.3-.728l2.794-.763v-.512a20.2 20.2 0 0 1 3.408 3.532l.461.613 8.332-2.78-.735-1.151A28.8 28.8 0 0 0 41.745 3.535l-1.874-1.873L37.353 3.1a9 9 0 0 0-.729-.3L35.859 0h-5.883l-.764 2.794q-.368.14-.729.3l-2.518-1.433-1.89 1.889a28.91 28.91 0 0 0-19.408 22H0l9.5 13.567Zm23.505-2.13v25.55H23.336V23.42h2.16l.468.467 2.518-1.438q.361.168.729.3l.764 2.8h5.883l.764-2.794q.368-.14.729-.3l2.518 1.438.468-.468Zm12.095-7.994-4.265 1.422a22.4 22.4 0 0 0-4.636-4.3V9.833l-2.794-.764a15 15 0 0 0-.3-.729l1.023-1.806a26.67 26.67 0 0 1 10.97 8.892ZM26.321 4.317l2.107 1.2.517-.275a8.4 8.4 0 0 1 1.457-.609l.559-.171.639-2.336h2.634l.639 2.335.559.171a8.5 8.5 0 0 1 1.457.609l.517.275 2.107-1.2 1.863 1.862-1.2 2.107.274.517a8.4 8.4 0 0 1 .608 1.458l.172.558 2.335.641v2.633l-2.335.64-.172.558a8.5 8.5 0 0 1-.609 1.46l-.273.516 1.2 2.107-1.863 1.862-2.107-1.2-.517.275a8.4 8.4 0 0 1-1.457.609l-.559.171-.639 2.335H31.6l-.639-2.335-.559-.171a8.5 8.5 0 0 1-1.457-.609l-.517-.275-2.107 1.2-1.863-1.862 1.2-2.107-.273-.516a8.5 8.5 0 0 1-.609-1.46l-.172-.558-2.335-.641v-2.633l2.335-.64.172-.558a8.5 8.5 0 0 1 .611-1.46l.274-.517-1.2-2.107ZM6.478 27.679l.139-.9A26.75 26.75 0 0 1 22.221 6.543l1.025 1.8a9 9 0 0 0-.3.729l-2.794.763v2.737A22.5 22.5 0 0 0 11.01 26.4l-.259 1.277h4.153L9.497 35.4 4.09 27.679Z"/><path d="M38.24 44.712h-2.129v-6.388h-2.129v6.387h-2.13v-4.258h-2.129v4.258h-4.258v2.129h14.9V36.195H38.24ZM25.465 27.679h2.129v2.129h-2.129ZM29.724 27.679H40.37v2.129H29.724ZM25.465 31.937h14.9v2.129h-14.9Z"/></svg>