<svg xmlns="http://www.w3.org/2000/svg" width="50" height="50"><path fill="none" d="M0 0h50v50H0z"/><g fill="#282928"><path d="M31.727 16.254h1.525l4.346-4.451.213-1.89a19.4 19.4 0 0 0-8.743-4.543 19.1 19.1 0 0 0-9.8.379 19.46 19.46 0 0 0-8.383 5.2 20.13 20.13 0 0 0-4.859 8.72 2.3 2.3 0 0 1 1.525-.094l8.693-1.468s.442-.75.671-.7a10.66 10.66 0 0 1 14.843-1.153Z"/><path d="M43.79 19.672a20.13 20.13 0 0 0-5.9-9.746l-6.1 6.247a11.1 11.1 0 0 1 2.98 3.935 11.3 11.3 0 0 1 1 4.873v1.109a5.3 5.3 0 0 1 2.078.423 5.4 5.4 0 0 1 1.761 1.205 5.6 5.6 0 0 1 1.177 1.8 5.68 5.68 0 0 1 0 4.255 5.6 5.6 0 0 1-1.177 1.8 5.4 5.4 0 0 1-1.761 1.205 5.3 5.3 0 0 1-2.078.423H24.91l-1.083 1.124v6.68l1.083 1.109h10.858a13.9 13.9 0 0 0 8.44-2.784 14.46 14.46 0 0 0 5.156-7.387 14.8 14.8 0 0 0-.16-9.079 14.42 14.42 0 0 0-5.414-7.192"/><path d="M14.037 46.05h10.858v-8.9H14.037a5.3 5.3 0 0 1-2.242-.5l-1.525.484-4.376 4.449-.381 1.562a13.83 13.83 0 0 0 8.524 2.905"/><path d="M14.037 17.173a13.9 13.9 0 0 0-8.19 2.742 14.44 14.44 0 0 0-5.109 7.1 14.8 14.8 0 0 0-.128 8.823 14.47 14.47 0 0 0 4.9 7.257l6.3-6.45a5.45 5.45 0 0 1-2.042-1.643 5.6 5.6 0 0 1-1.064-2.426 5.7 5.7 0 0 1 .158-2.654 5.6 5.6 0 0 1 1.344-2.276 5.4 5.4 0 0 1 2.222-1.376 5.3 5.3 0 0 1 2.592-.162 5.4 5.4 0 0 1 2.369 1.089 5.54 5.54 0 0 1 1.6 2.091l6.3-6.45a14.2 14.2 0 0 0-4.978-4.186 13.8 13.8 0 0 0-6.274-1.479"/></g></svg>