<svg xmlns="http://www.w3.org/2000/svg" width="60.561" height="66.003"><path d="M35.836 66.003h-11.11a1.133 1.133 0 0 1-1.133-1.133v-7.862a22 22 0 0 1-3.632-1.507l-5.562 5.562a1.133 1.133 0 0 1-1.6 0l-7.857-7.857a1.133 1.133 0 0 1 0-1.6l5.561-5.561a22 22 0 0 1-1.507-3.633H1.133A1.133 1.133 0 0 1 0 41.279v-5.555a1.133 1.133 0 0 1 1.133-1.133h58.3a1.133 1.133 0 0 1 1.133 1.133v5.555a1.133 1.133 0 0 1-1.133 1.133h-7.867a22 22 0 0 1-1.506 3.633l5.561 5.561a1.133 1.133 0 0 1 0 1.6l-7.857 7.857a1.133 1.133 0 0 1-1.6 0l-5.561-5.562a22 22 0 0 1-3.633 1.507v7.862a1.133 1.133 0 0 1-1.134 1.133m-9.977-2.266h8.844v-7.578a1.13 1.13 0 0 1 .837-1.093 20 20 0 0 0 4.7-1.952 1.13 1.13 0 0 1 1.365.181l5.36 5.361 6.255-6.25-5.361-5.36a1.13 1.13 0 0 1-.181-1.365 20 20 0 0 0 1.949-4.7 1.13 1.13 0 0 1 1.093-.837h7.578v-3.29H2.266v3.289h7.576a1.13 1.13 0 0 1 1.093.837 20 20 0 0 0 1.949 4.7 1.13 1.13 0 0 1-.181 1.365l-5.36 5.36 6.255 6.253 5.36-5.36a1.13 1.13 0 0 1 1.365-.186 20 20 0 0 0 4.7 1.949 1.13 1.13 0 0 1 .837 1.093Z"/><path d="M30.28 50.399a14.69 14.69 0 0 1-14.676-14.676 1.133 1.133 0 0 1 1.133-1.133h27.087a1.133 1.133 0 0 1 1.133 1.133A14.69 14.69 0 0 1 30.28 50.399M17.924 36.855a12.412 12.412 0 0 0 24.719 0Z"/><path d="M24.793 36.851H4.233A1.133 1.133 0 0 1 3.1 35.718V1.133A1.133 1.133 0 0 1 4.233 0h20.56a1.133 1.133 0 0 1 1.133 1.133v34.585a1.133 1.133 0 0 1-1.133 1.133M5.366 34.585H23.66V2.266H5.366Z"/><path d="M18.1 36.851h-7.167A1.133 1.133 0 0 1 9.8 35.718v-7.715a1.133 1.133 0 0 1 1.133-1.133H18.1a1.133 1.133 0 0 1 1.133 1.133v7.715a1.133 1.133 0 0 1-1.133 1.133m-6.028-2.266h4.895v-5.449h-4.9Z"/><path d="M20.311 29.136h-11.6a1.133 1.133 0 1 1 0-2.266h11.6a1.133 1.133 0 1 1 0 2.266M20.677 23.795H8.354a1.133 1.133 0 0 1-1.133-1.133v-5.561a1.133 1.133 0 0 1 1.133-1.133h12.322a1.133 1.133 0 0 1 1.133 1.133v5.561a1.133 1.133 0 0 1-1.132 1.133m-11.19-2.267h10.056v-3.294H9.487Z"/><path d="M14.513 23.795a1.133 1.133 0 0 1-1.133-1.133v-5.561a1.133 1.133 0 1 1 2.266 0v5.561a1.133 1.133 0 0 1-1.133 1.133M20.677 13.172H8.354a1.133 1.133 0 0 1-1.133-1.133V6.48a1.133 1.133 0 0 1 1.133-1.133h12.322a1.133 1.133 0 0 1 1.133 1.133v5.559a1.133 1.133 0 0 1-1.132 1.133m-11.19-2.266h10.056V7.613H9.487Z"/><path d="M14.513 13.172a1.133 1.133 0 0 1-1.133-1.133V6.48a1.133 1.133 0 1 1 2.266 0v5.559a1.133 1.133 0 0 1-1.133 1.133M56.327 36.854H24.793a1.133 1.133 0 0 1-1.133-1.133V16.437a1.133 1.133 0 0 1 1.133-1.133h31.534a1.133 1.133 0 0 1 1.133 1.133v19.281a1.133 1.133 0 0 1-1.133 1.136m-30.4-2.266h29.268V17.57H25.926Z"/><path d="M32.203 25.248h-2.089a3.068 3.068 0 1 1 0-6.135h2.089a3.068 3.068 0 1 1 0 6.135m-2.089-3.861a.8.8 0 1 0 0 1.6h2.089a.8.8 0 1 0 0-1.6ZM32.203 33.041h-2.089a3.068 3.068 0 1 1 0-6.135h2.089a3.068 3.068 0 1 1 0 6.135m-2.089-3.864a.8.8 0 1 0 0 1.6h2.089a.8.8 0 1 0 0-1.6ZM41.612 25.248h-2.095a3.068 3.068 0 1 1 0-6.135h2.095a3.068 3.068 0 1 1 0 6.135m-2.095-3.861a.8.8 0 1 0 0 1.6h2.095a.8.8 0 0 0 0-1.6ZM41.612 33.041h-2.095a3.068 3.068 0 1 1 0-6.135h2.095a3.068 3.068 0 1 1 0 6.135m-2.095-3.864a.8.8 0 1 0 0 1.6h2.095a.8.8 0 0 0 0-1.6ZM51.009 25.248h-2.088a3.068 3.068 0 1 1 0-6.135h2.091a3.068 3.068 0 1 1 0 6.135Zm-2.088-3.861a.8.8 0 0 0 0 1.6h2.091a.8.8 0 0 0 0-1.6ZM51.009 33.041h-2.088a3.068 3.068 0 1 1 0-6.135h2.091a3.068 3.068 0 1 1 0 6.135Zm-2.088-3.864a.8.8 0 0 0 0 1.6h2.091a.8.8 0 0 0 0-1.6ZM48.5 17.57H24.79a1.133 1.133 0 0 1-1.133-1.133v-11.2a1.133 1.133 0 0 1 1.133-1.133H48.5a1.133 1.133 0 0 1 1.133 1.133v11.2A1.133 1.133 0 0 1 48.5 17.57m-22.577-2.266H47.37V6.365H25.926Z"/><path d="M34.291 14.48h-4.532a1.133 1.133 0 0 1-1.133-1.133V8.323a1.133 1.133 0 0 1 1.133-1.133h4.532a1.133 1.133 0 0 1 1.133 1.133v5.024a1.133 1.133 0 0 1-1.133 1.133m-3.4-2.266h2.266V9.456h-2.266ZM43.539 14.48h-4.532a1.133 1.133 0 0 1-1.133-1.133V8.323a1.133 1.133 0 0 1 1.133-1.133h4.532a1.133 1.133 0 0 1 1.133 1.133v5.024a1.133 1.133 0 0 1-1.133 1.133m-3.4-2.266h2.266V9.456h-2.266Z"/></svg>