<svg xmlns="http://www.w3.org/2000/svg" width="50" height="50" fill="none"><path fill="#000" fill-rule="evenodd" d="M25.838 17.192c.409.043.723.36.76.77l.106 1.134a.767.767 0 0 0 1.26.515l.87-.734a.846.846 0 0 1 1.082-.014c.442.353.846.753 1.203 1.193a.846.846 0 0 1-.006 1.082l-.727.877a.767.767 0 0 0 .526 1.255l1.135.096c.41.035.73.347.776.755.062.563.065 1.132.006 1.695a.846.846 0 0 1-.769.76l-1.135.106a.767.767 0 0 0-.515 1.26l.734.87c.265.314.271.76.015 1.082a8 8 0 0 1-1.194 1.204.846.846 0 0 1-1.082-.006l-.877-.728a.766.766 0 0 0-1.254.526l-.097 1.136a.846.846 0 0 1-.755.775 8 8 0 0 1-1.695.006.846.846 0 0 1-.76-.769l-.106-1.134a.767.767 0 0 0-1.26-.516l-.87.734a.846.846 0 0 1-1.081.015 8 8 0 0 1-1.204-1.194.846.846 0 0 1 .006-1.082l.727-.876a.767.767 0 0 0-.526-1.255l-1.135-.097a.846.846 0 0 1-.776-.755 8 8 0 0 1-.006-1.695.846.846 0 0 1 .77-.76l1.134-.106a.767.767 0 0 0 .515-1.259l-.734-.87a.846.846 0 0 1-.015-1.082 8 8 0 0 1 1.194-1.204.846.846 0 0 1 1.082.006l.877.727a.767.767 0 0 0 1.255-.525l.096-1.136a.846.846 0 0 1 .755-.775 8 8 0 0 1 1.695-.007m-2.031-5.84L22.355 9.31a1.17 1.17 0 0 1 0-1.359l1.382-1.943C13.824 6.67 5.987 14.92 5.987 25c0 4.893 1.847 9.354 4.88 12.726h9.066C14.885 35.705 11.32 30.77 11.32 25c0-7.159 5.489-13.033 12.488-13.648m1.215 27.35H1.779a.196.196 0 0 0-.195.195v4.942c0 .107.088.195.195.195h24.046c10.2 0 18.231-8.843 18.231-19.034 0-9.698-7.303-17.85-16.91-18.917a.195.195 0 0 1-.173-.194V3.756a.195.195 0 0 0-.354-.113L23.15 8.518a.19.19 0 0 0 0 .227l3.469 4.875c.11.155.354.077.354-.113v-1.844c0-.12.107-.212.226-.193 6.62 1.056 11.525 6.791 11.525 13.53 0 7.567-6.135 13.702-13.702 13.702m6.716 5.332c3.11-1.06 5.848-2.927 8.019-5.332h4.603a.196.196 0 0 0 .196-.196v-2.014c0-.19.244-.267.354-.113l3.468 4.876c.05.069.05.157 0 .226l-3.468 4.876a.195.195 0 0 1-.354-.114V44.23a.196.196 0 0 0-.196-.195zm-6.716-22.558a3.524 3.524 0 1 0 0 7.047 3.524 3.524 0 0 0 0-7.047" clip-rule="evenodd"/></svg>