<svg xmlns="http://www.w3.org/2000/svg" width="50" height="50" fill="none"><path fill="#000" fill-rule="evenodd" d="M11.573 35.033c-4.328-5.804-4.472-13.743-.321-19.69a16.8 16.8 0 0 1 7.742-6.08.635.635 0 0 1 .46 1.185c-5.956 2.3-9.954 8.134-9.954 14.517 0 3.483 1.178 6.88 3.326 9.61l.166-2.283a.636.636 0 0 1 1.27.094l-.305 4.027a.633.633 0 0 1-.856.548l-3.78-1.417a.64.64 0 0 1-.372-.817.64.64 0 0 1 .82-.372zm10.569 6.065c0 .2-.092.388-.253.508l-3.228 2.423a.636.636 0 0 1-.764-1.016l1.706-1.28H3.165a.64.64 0 0 1-.638-.635c0-.351.288-.635.638-.635h16.438l-1.706-1.28a.636.636 0 0 1 .764-1.016l3.228 2.423a.63.63 0 0 1 .253.508m25.329 0c0 .2-.098.388-.253.508l-3.234 2.423a.637.637 0 0 1-.89-.128.64.64 0 0 1 .127-.888l1.711-1.28h-7.65a.633.633 0 0 1-.632-.635c0-.351.281-.635.632-.635h7.65l-1.711-1.28a.64.64 0 0 1-.127-.89.637.637 0 0 1 .89-.126l3.234 2.423c.155.12.253.307.253.508m-20.947.632c8.68-.747 15.364-8.026 15.364-16.765 0-9.492-7.88-17.135-17.392-16.82l1.545-1.158a.63.63 0 0 0 .127-.89.637.637 0 0 0-.89-.126L22.05 8.394a.636.636 0 0 0 0 1.016l3.227 2.423a.64.64 0 0 0 .385.127c.59 0 .876-.771.38-1.144l-1.85-1.386c8.933-.49 16.427 6.627 16.427 15.535 0 8.004-6.238 14.813-14.204 15.5a.635.635 0 1 0 .11 1.265m1.86-18.778c.225.27.19.67-.08.894l-3.785 3.151a.636.636 0 0 1-.855-.039l-1.89-1.89a.637.637 0 0 1 0-.899.64.64 0 0 1 .902.001l1.476 1.48 3.337-2.78a.637.637 0 0 1 .896.082m-4.307 10.097a8.2 8.2 0 0 0 2.292-.047.63.63 0 0 1 .574.205l1.293 1.447 1.82-.798-.19-1.929a.64.64 0 0 1 .236-.562 8.1 8.1 0 0 0 1.591-1.651.63.63 0 0 1 .552-.264l1.93.113.723-1.853-1.493-1.227a.65.65 0 0 1-.23-.568 8.3 8.3 0 0 0-.046-2.29.64.64 0 0 1 .201-.577l1.448-1.288-.799-1.822-1.924.192a.63.63 0 0 1-.563-.241 8.2 8.2 0 0 0-1.654-1.587.64.64 0 0 1-.264-.552l.115-1.933-1.856-.724-1.223 1.497a.63.63 0 0 1-.569.229 8 8 0 0 0-2.291.047.63.63 0 0 1-.575-.205l-1.286-1.447-1.827.798.195 1.928a.64.64 0 0 1-.24.563 8 8 0 0 0-1.592 1.65.63.63 0 0 1-.551.264l-1.93-.113-.724 1.854 1.494 1.227a.62.62 0 0 1 .23.568 8.3 8.3 0 0 0 .045 2.29.64.64 0 0 1-.2.576l-1.448 1.289.798 1.821 1.925-.19a.63.63 0 0 1 .562.24 8.2 8.2 0 0 0 1.654 1.587.64.64 0 0 1 .265.552l-.115 1.933 1.855.724 1.223-1.498a.64.64 0 0 1 .57-.228m3.515 2.794c.184.205.477.27.73.159l2.665-1.168a.64.64 0 0 0 .379-.645l-.207-2.047c.5-.421.953-.891 1.35-1.405l2.056.12a.63.63 0 0 0 .626-.403l1.063-2.711a.64.64 0 0 0-.19-.722l-1.591-1.305a9.6 9.6 0 0 0-.04-1.946l1.533-1.368a.635.635 0 0 0 .161-.728l-1.166-2.667a.64.64 0 0 0-.643-.378l-2.05.204q-.632-.748-1.402-1.35l.12-2.052a.64.64 0 0 0-.407-.629l-2.711-1.06a.64.64 0 0 0-.724.19l-1.298 1.59a9.5 9.5 0 0 0-1.947.04l-1.373-1.537a.63.63 0 0 0-.73-.16l-2.664 1.169a.64.64 0 0 0-.38.644l.208 2.047c-.5.42-.948.892-1.35 1.404l-2.05-.12a.64.64 0 0 0-.632.404l-1.057 2.712a.64.64 0 0 0 .184.722l1.59 1.303c-.051.649-.04 1.301.04 1.947l-1.533 1.368a.635.635 0 0 0-.16.73l1.165 2.666a.64.64 0 0 0 .65.377l2.044-.203q.63.749 1.407 1.35l-.12 2.052a.63.63 0 0 0 .402.629l2.71 1.06c.255.1.548.023.725-.19l1.303-1.59a9.4 9.4 0 0 0 1.948-.04zm-4.296-6.4a4.847 4.847 0 0 0 6.272-2.748c.973-2.49-.25-5.3-2.745-6.271a4.84 4.84 0 0 0-6.272 2.747 4.847 4.847 0 0 0 2.745 6.272m7.455-2.285a6.113 6.113 0 0 0-3.469-7.916 6.106 6.106 0 0 0-7.915 3.468c-1.223 3.14.328 6.69 3.47 7.916 3.104 1.212 6.674-.293 7.914-3.468" clip-rule="evenodd"/></svg>