<svg xmlns="http://www.w3.org/2000/svg" width="60" height="60" fill="none"><g fill="#282928" clip-path="url(#a)"><path d="M17.183 31.033a.88.88 0 0 0-.74.999c2.72 15.45 24.402 15.44 27.115 0a.879.879 0 1 0-1.739-.26c-2.324 13.477-21.316 13.47-23.637 0a.88.88 0 0 0-1-.739M30.001 16.293c-6.679 0-12.553 5.042-13.553 11.648a.879.879 0 1 0 1.738.263c2.376-13.448 21.208-13.435 23.63 0a.874.874 0 0 0 1.001.738c.48-.073.792-.518.737-1-.724-6.457-6.187-11.649-13.553-11.649"/><path d="M57.301 27.301c-1.18 0-2.187.762-2.552 1.82h-2.03v-2.053c0-.4-.27-.75-.659-.851l-4.442-1.146a18.2 18.2 0 0 0-1.674-4.044l2.33-3.95a.88.88 0 0 0-.135-1.069l-1.452-1.452 1.435-1.435q1.628.735 3.091-.517a2.7 2.7 0 0 0 0-3.817 2.7 2.7 0 0 0-3.817 0 2.7 2.7 0 0 0-.517 3.091l-1.435 1.435-1.452-1.452a.88.88 0 0 0-1.069-.135l-3.95 2.33c-.376-.222-.982-.162-1.238.322-.515.86.917 1.887 1.687 1.454l3.808-2.246 3.185 3.184-2.247 3.808a.88.88 0 0 0 .004.9 16.4 16.4 0 0 1 1.875 4.526c.077.314.32.56.633.64l4.282 1.105v4.502l-4.282 1.105a.88.88 0 0 0-.633.64 16.4 16.4 0 0 1-1.875 4.526.88.88 0 0 0-.004.9l2.246 3.808-3.184 3.184-3.808-2.246a.88.88 0 0 0-.9.004 16.4 16.4 0 0 1-4.526 1.875.88.88 0 0 0-.64.633l-1.105 4.281H27.75l-1.105-4.281a.88.88 0 0 0-.64-.633 16.4 16.4 0 0 1-4.526-1.875.88.88 0 0 0-.9-.004l-3.808 2.246-3.184-3.184 2.246-3.808a.88.88 0 0 0-.004-.9 16.4 16.4 0 0 1-1.874-4.526.88.88 0 0 0-.634-.64l-4.281-1.105V27.75l4.281-1.105a.88.88 0 0 0 .633-.64 16.4 16.4 0 0 1 1.875-4.526.88.88 0 0 0 .004-.9l-2.246-3.808 3.184-3.184 3.808 2.246a.88.88 0 0 0 .9-.004 16.4 16.4 0 0 1 4.526-1.875.88.88 0 0 0 .64-.633l1.105-4.281h4.503l1.104 4.281c.17.827 2.25 1.282 2.46.243.18-.702-.339-1.1-.887-1.181L33.784 7.94a.88.88 0 0 0-.85-.66h-2.054V5.252C33.716 4.226 33.054.06 30 0c-3.055.06-3.716 4.227-.879 5.251v2.03h-2.053c-.4 0-.75.27-.85.659l-1.147 4.442a18.2 18.2 0 0 0-4.044 1.674l-3.95-2.33a.88.88 0 0 0-1.068.135l-1.453 1.452-1.435-1.435a2.7 2.7 0 0 0-.517-3.091 2.7 2.7 0 0 0-3.817 0 2.7 2.7 0 0 0 0 3.817q1.463 1.252 3.092.517l1.435 1.435-1.453 1.452a.88.88 0 0 0-.135 1.068l2.33 3.951a18.2 18.2 0 0 0-1.674 4.043L7.94 26.217c-.388.1-.66.45-.66.85v2.054H5.25C4.227 26.284.06 26.946 0 30c.06 3.055 4.226 3.716 5.251.879h2.03v2.053c0 .4.271.75.66.851l4.44 1.146a18.2 18.2 0 0 0 1.675 4.044l-2.33 3.95a.88.88 0 0 0 .135 1.069l1.452 1.451-1.435 1.436a2.7 2.7 0 0 0-3.091.517 2.7 2.7 0 0 0 0 3.817q1.908 1.578 3.817 0a2.7 2.7 0 0 0 .517-3.092l1.435-1.435 1.453 1.453a.88.88 0 0 0 1.068.135l3.95-2.33c1.276.719 2.632 1.28 4.044 1.674l1.146 4.442c.1.388.45.66.851.66h2.053v2.029C26.284 55.774 26.945 59.94 30 60c3.055-.06 3.715-4.226.879-5.25v-2.03h2.053c.4 0 .751-.272.851-.66l1.146-4.442a18.2 18.2 0 0 0 4.044-1.674l3.95 2.33a.88.88 0 0 0 1.069-.135l1.452-1.452 1.435 1.435a2.7 2.7 0 0 0 .517 3.091q1.909 1.58 3.817 0a2.7 2.7 0 0 0 0-3.817 2.7 2.7 0 0 0-3.091-.517l-1.435-1.435 1.452-1.452a.88.88 0 0 0 .135-1.068l-2.33-3.951a18.2 18.2 0 0 0 1.674-4.043l4.442-1.147c.388-.1.66-.45.66-.85v-2.054h2.029c1.025 2.838 5.192 2.175 5.25-.879.001-1.488-1.21-2.699-2.698-2.699M48.64 10.03q.666-.55 1.331 0a.942.942 0 1 1-1.331 0M30 1.758c.519 0 .941.422.941.941-.044 1.246-1.838 1.245-1.882 0 0-.519.422-.941.941-.941M10.03 11.36q-.552-.666 0-1.331.665-.55 1.33 0a.94.94 0 0 1 .002 1.33l-.002.002a.94.94 0 0 1-1.33-.001M2.699 30.94A.94.94 0 0 1 1.758 30c.044-1.246 1.838-1.245 1.882 0a.94.94 0 0 1-.941.941m8.662 19.03c-.367.366-.987.387-1.331 0-.338-.381-.372-.962 0-1.332.392-.39.962-.362 1.333.002a.94.94 0 0 1-.002 1.33M30 58.241a.94.94 0 0 1-.941-.94c.044-1.246 1.838-1.246 1.882 0a.94.94 0 0 1-.941.94m19.97-9.603a.942.942 0 0 1-1.33 1.331.94.94 0 0 1 .002-1.333q.665-.547 1.328.002m7.331-17.698A.94.94 0 0 1 56.36 30c.044-1.246 1.838-1.245 1.882 0a.94.94 0 0 1-.94.941"/><path d="m22.578 33.953.465-1.222h3.179l.46 1.22a.879.879 0 1 0 1.645-.622l-2.71-7.178-.009-.023a1.04 1.04 0 0 0-.966-.648 1.04 1.04 0 0 0-.973.67l-2.734 7.177c-.173.453.037 1.018.508 1.134.404.1.93.011 1.135-.508m2.062-5.415.919 2.435h-1.847zM39.125 33.641v-7.28c-.04-1.164-1.718-1.163-1.758 0v7.28c.04 1.164 1.718 1.163 1.758 0M30.723 34.519a.88.88 0 0 0 .878-.88v-2.287c.416-.003.882-.005 1.149-.005 3.94-.148 3.938-5.72 0-5.867H30.7a.88.88 0 0 0-.855.816v.006l-.002 7.338c0 .485.393.879.878.879m2.027-7.28c.659 0 1.216.538 1.216 1.175s-.557 1.175-1.216 1.175c-.265 0-.725.002-1.14.005l-.006-2.356z"/></g><defs><clipPath id="a"><path fill="#fff" d="M0 0h60v60H0z"/></clipPath></defs></svg>