<svg xmlns="http://www.w3.org/2000/svg" width="38" height="37" fill="none"><g clip-path="url(#a)"><mask id="b" width="37" height="37" x="1" y="0" maskUnits="userSpaceOnUse" style="mask-type:luminance"><path fill="#fff" d="M37.132 0H1v36.132h36.132z"/></mask><g fill="#000" mask="url(#b)"><path d="M19.064 4.78a3.189 3.189 0 1 0 0 6.377 3.189 3.189 0 0 0 0-6.378m0 4.783a1.6 1.6 0 1 1 0-3.2 1.6 1.6 0 0 1 0 3.2"/><path d="M36.311 14.78a.817.817 0 0 0 .821-.818v-3.284a.82.82 0 0 0-.4-.706L20.667.432 20.645.42a3.19 3.19 0 0 0-3.18.01L1.4 9.974a.82.82 0 0 0-.4.706v3.284a.82.82 0 0 0 .821.819h2.464v14.78A3.29 3.29 0 0 0 1 32.849v2.463a.82.82 0 0 0 .821.82h34.49a.82.82 0 0 0 .821-.82v-2.463a3.29 3.29 0 0 0-3.285-3.284V14.78zm-.821 18.067v1.643H2.642v-1.643A1.644 1.644 0 0 1 4.285 31.2h29.562a1.645 1.645 0 0 1 1.642 1.647zM5.927 29.563V14.78h3.285v14.782zm4.927 0V14.78h4.927v14.782zm6.569 0V14.78h3.285v14.782zm4.927 0V14.78h4.927v14.782zm6.569 0V14.78H32.2v14.782zM2.642 13.139v-2l15.637-9.29a1.56 1.56 0 0 1 1.561-.006l15.65 9.3v2z"/></g></g><defs><clipPath id="a"><path fill="#fff" d="M.5 0h37v37H.5z"/></clipPath></defs></svg>