<svg xmlns="http://www.w3.org/2000/svg" width="50" height="50" fill="none"><path fill="#000" d="M40.6 9.3c0-4.6-3.7-8.3-8.3-8.3S24 4.7 24 9.3c0 4.7 3.7 10.4 8.3 10.4s8.3-5.7 8.3-10.4m-14.5 0c0-3.5 2.8-6.3 6.3-6.3s6.3 2.8 6.3 6.3c0 3.7-3 8.4-6.3 8.4-3.2.1-6.3-4.7-6.3-8.4M46 33.8v-1c-.1-6.4-5.3-11.6-11.7-11.6H30c-3.1 0-6.1 1.2-8.3 3.4-1.8 1.8-2.9 4.1-3.3 6.5-1.2-.5-2.8-2.1-6.3-2.6V27c0-1.1-.9-2-2-2H3c-1.1 0-2 .9-2 2v20c0 1.1.9 2 2 2h7.2c1.1 0 2-.9 2-2v-.6c1.2.4 2.4.7 3.7.7h15.4c5.3 0 7.9-2.7 15.6-6.3 1.9-1 2.6-3.3 1.6-5.2-.5-.9-1.5-1.5-2.5-1.8m-22.8-7.7c1.8-1.8 4.3-2.9 6.9-2.9h4.3c5.3 0 9.6 4.3 9.7 9.6v1c-.3.1-.5.2-.8.3l-8 2.9c-.5.2-1.3.4-2.1.5v-.8c0-2.7-2.2-4.9-4.9-4.9h-4.8c-1.1 0-2.1 0-3.1-.1.3-2.1 1.2-4.1 2.8-5.6M3 47V27h7.2v20zm43-8c-7.8 3.7-10 6-14.6 6H15.9c-1.3 0-2.6-.3-3.7-.8V30.7c2.2.3 3.6 1.3 4.2 1.7 2.2 1.5 4.4 1.5 7 1.5h4.7c1.6 0 2.9 1.3 2.9 2.9v1.1c-2.3.3-4.8.5-6.4.5-.6 0-1 .4-1 1s.4 1 1 1c2.5 0 8.3-.4 11.2-1.4l8.2-3s.1 0 .1-.1c1-.5 2.2-.2 2.7.7s.1 2-.8 2.4"/></svg>