<svg xmlns="http://www.w3.org/2000/svg" width="60" height="60" fill="none"><path fill="#282928" d="M54.374 32.812a2.82 2.82 0 0 0-2.652 1.875h-9.535v-3.75h3.91a2.812 2.812 0 1 0 0-1.875h-3.91v-3.75h9.535a2.812 2.812 0 1 0 0-1.875h-9.535v-2.813a2.813 2.813 0 0 0-2.813-2.812h-2.812v-2.424l3.475-3.476a.94.94 0 0 0 .275-.663V8.277a2.813 2.813 0 1 0-1.875 0v2.584l-3.475 3.476a.94.94 0 0 0-.275.662v2.813h-3.75v-3.91a2.812 2.812 0 1 0-1.875 0v3.91h-3.75v-2.813a.94.94 0 0 0-.275-.662l-3.475-3.476V8.277a2.813 2.813 0 1 0-1.875 0v2.972a.94.94 0 0 0 .275.663l3.475 3.476v2.424h-2.813a2.813 2.813 0 0 0-2.812 2.812v2.813H8.277a2.813 2.813 0 1 0 0 1.875h9.535v3.75h-3.91a2.812 2.812 0 1 0 0 1.875h3.91v3.75H8.277a2.813 2.813 0 1 0 0 1.875h9.535v2.812a2.813 2.813 0 0 0 2.812 2.813h2.813v2.424l-3.475 3.476a.94.94 0 0 0-.275.662v2.973a2.812 2.812 0 1 0 1.875 0v-2.584l3.475-3.476a.94.94 0 0 0 .275-.663v-2.812h3.75v3.91a2.812 2.812 0 1 0 1.875 0v-3.91h3.75v2.812a.94.94 0 0 0 .275.663l3.475 3.476v2.584a2.812 2.812 0 1 0 1.875 0V48.75a.94.94 0 0 0-.275-.662l-3.475-3.476v-2.424h2.812a2.813 2.813 0 0 0 2.813-2.813v-2.812h9.535a2.813 2.813 0 1 0 2.652-3.75Zm-5.625-3.75a.938.938 0 1 1 0 1.875.938.938 0 0 1 0-1.875m5.625-5.625a.938.938 0 1 1 0 1.875.938.938 0 0 1 0-1.875m-15-18.75a.937.937 0 1 1 0 1.875.937.937 0 0 1 0-1.875M30 10.312a.938.938 0 1 1 0 1.875.938.938 0 0 1 0-1.875m-9.375-3.75a.938.938 0 1 1 0-1.875.938.938 0 0 1 0 1.875m-15 18.75a.938.938 0 1 1 0-1.875.938.938 0 0 1 0 1.875m5.625 5.625a.938.938 0 1 1 0-1.875.938.938 0 0 1 0 1.875m-5.625 5.625a.938.938 0 1 1 0-1.875.938.938 0 0 1 0 1.875m15 18.75a.938.938 0 1 1 0-1.875.938.938 0 0 1 0 1.875M30 49.687a.938.938 0 1 1 0-1.875.938.938 0 0 1 0 1.875m9.375 3.75a.938.938 0 1 1 0 1.875.938.938 0 0 1 0-1.875m.938-14.063a.94.94 0 0 1-.938.938h-18.75a.937.937 0 0 1-.937-.938v-18.75a.937.937 0 0 1 .937-.937h18.75a.937.937 0 0 1 .938.937zm14.062-2.812a.938.938 0 1 1 0-1.875.938.938 0 0 1 0 1.875"/></svg>