<svg xmlns="http://www.w3.org/2000/svg" width="50" height="50" fill="none"><g clip-path="url(#a)"><path fill="#000" d="M20.657 35.092c.488.261 1.04.31 1.543.176a2.11 2.11 0 0 0 1.842 1.083c.578 0 1.141-.238 1.545-.669l.237.137a2 2 0 0 0 1.565.19c.536-.15.997-.515 1.265-1.001.122-.223.2-.46.234-.7.218.009.44-.018.656-.08a2.06 2.06 0 0 0 1.489-1.776 2.08 2.08 0 0 0 1.75-1.073c.234-.425.3-.9.222-1.349a2.06 2.06 0 0 0 1.274-2.009l.864-.36.032.083a1.607 1.607 0 0 0 2.076.916l1.68-.652c.4-.154.715-.456.888-.848.173-.393.183-.829.029-1.228L36.463 17.2a1.607 1.607 0 0 0-2.077-.916l-1.68.652a1.607 1.607 0 0 0-.917 2.076l.16.41-.693.37c-.392.204-.846.036-1.615-.278-1.179-.482-2.766-1.13-4.838.076-1.503-.808-2.815-.5-3.797-.271-.816.191-1.3.287-1.763.027l-.056-.029-.798-.368.162-.364c.172-.392.182-.828.027-1.228a1.6 1.6 0 0 0-.846-.889l-1.65-.729a1.606 1.606 0 0 0-2.116.82l-3.786 8.566a1.6 1.6 0 0 0-.028 1.227c.155.4.456.716.847.889l1.649.729a1.607 1.607 0 0 0 2.116-.819l.057-.128c.476.21.633.275.708.303.07.07.135.418.17.605.04.218.085.453.164.682l-.387.722a2.1 2.1 0 0 0-.157 1.609 2.1 2.1 0 0 0 1.729 1.48q.003.3.092.596a2.105 2.105 0 0 0 2.748 1.368c.19.29.451.534.769.704m.737-1.377a.55.55 0 0 1-.289-.469l1.093-2.117a.56.56 0 0 1 .615-.066c.2.107.31.333.283.557l-1.018 1.955a.55.55 0 0 1-.684.14m2.392 1.009a.56.56 0 0 1-.289-.49l.98-1.885a.56.56 0 0 1 .615-.067q.109.058.18.156a.56.56 0 0 1 .046.588l-.788 1.472a.557.557 0 0 1-.744.226m3.499-.469a.53.53 0 0 1-.318.25.47.47 0 0 1-.364-.041l-.216-.124.308-.577q.091-.17.147-.351l.148.083a1 1 0 0 0 .09.06.52.52 0 0 1 .205.7m5.985-15.863 1.681-.651.014-.003c.017 0 .035.011.04.027l3.386 8.732c.002.004.006.015-.001.032a.04.04 0 0 1-.023.023l-1.68.651a.045.045 0 0 1-.055-.024l-3.386-8.732a.045.045 0 0 1 .024-.055m-4.22 2.568c.878.359 1.874.766 2.936.213l.531-.284 2.06 5.315-.952.398a2 2 0 0 0-.404-.299l-4.47-2.548c-1.288-.734-2.674-.172-3.898.323-1.501.608-2.487.942-3.422.161 1.07-.679 1.994-1.41 2.756-2.18a7.4 7.4 0 0 1 1.07-.909c1.59-1.09 2.66-.653 3.793-.19m-15.77 5.58-1.649-.728c-.004-.002-.015-.007-.021-.024s-.002-.028 0-.032l3.786-8.566c.006-.015.024-.025.04-.025q.008 0 .015.004l1.65.728c.003.002.014.007.02.024.007.017.002.028 0 .032l-3.785 8.566a.045.045 0 0 1-.056.021m2.173-.947 2.305-5.215.748.346c1.005.55 1.988.32 2.857.116.686-.16 1.31-.306 1.989-.149q-.139.13-.276.268c-.82.83-1.864 1.616-3.101 2.338a.935.935 0 0 0-.268 1.383c1.873 2.409 4.104 1.506 5.732.846 1.188-.48 1.95-.748 2.538-.414l4.47 2.549a.54.54 0 0 1 .22.234.502.502 0 0 1-.319.712.5.5 0 0 1-.378-.041c-1.14-.639-2.089-1.171-3.07-1.733a.781.781 0 0 0-.777 1.356 389 389 0 0 0 3.082 1.74.52.52 0 0 1 .208.697.52.52 0 0 1-.694.202h-.002l-4.041-2.275a.781.781 0 1 0-.767 1.362l3.214 1.808a1 1 0 0 0 .09.06.52.52 0 0 1 .207.698.51.51 0 0 1-.691.203h-.002l-2.307-1.307a2.11 2.11 0 0 0-1.939-.694 2.11 2.11 0 0 0-2.28-1.22 2.105 2.105 0 0 0-2.01-1.244 2.107 2.107 0 0 0-3.113-1.233c-.145-.444-.41-.892-.982-1.114-.06-.024-.226-.094-.643-.279m1.627 5.224a.55.55 0 0 1-.265-.326.55.55 0 0 1 .04-.419l.82-1.534a.55.55 0 0 1 .745-.226c.245.131.352.44.246.696l-1.032 1.786a.55.55 0 0 1-.554.023m1.821 2.076a.55.55 0 0 1-.265-.326.55.55 0 0 1 .04-.418l.242-.454 1.056-1.826a.55.55 0 0 1 .559-.025c.2.107.311.334.283.558l-1.168 2.261a.555.555 0 0 1-.747.23M16.464 18.4a.56.56 0 1 1-1.12-.052.56.56 0 0 1 1.12.052m17.42.524a.561.561 0 0 1 1.12 0 .561.561 0 0 1-1.12 0M8.743 33.292c-4.39 0-7.963 3.572-7.963 7.963s3.573 7.964 7.964 7.964c4.39 0 7.963-3.573 7.963-7.964 0-4.39-3.572-7.963-7.963-7.963m0 14.364c-3.529 0-6.4-2.871-6.4-6.4s2.871-6.402 6.4-6.402 6.402 2.872 6.402 6.401-2.872 6.401-6.401 6.401M48.719 7.078l-.827-.318a7 7 0 0 0-.523-1.264l.36-.81a.78.78 0 0 0-.162-.87l-1.382-1.382a.78.78 0 0 0-.87-.161l-.81.36a7 7 0 0 0-1.264-.524l-.318-.827a.78.78 0 0 0-.729-.5H40.24a.78.78 0 0 0-.73.5l-.318.827q-.657.199-1.263.524l-.81-.36a.78.78 0 0 0-.87.161l-1.382 1.382a.78.78 0 0 0-.162.87l.36.81a7 7 0 0 0-.524 1.263l-.826.319a.78.78 0 0 0-.501.729v1.955c0 .323.199.612.5.729l.827.318q.2.657.524 1.263l-.36.81a.78.78 0 0 0 .162.87l1.382 1.382a.78.78 0 0 0 .87.162l.81-.36q.606.324 1.263.523l.318.827c.116.302.406.5.73.5h1.954a.78.78 0 0 0 .73-.5l.317-.826q.657-.2 1.264-.524l.81.36a.78.78 0 0 0 .87-.162l1.382-1.382a.78.78 0 0 0 .161-.87l-.36-.81q.325-.606.524-1.263l.827-.318a.78.78 0 0 0 .5-.73V7.807a.78.78 0 0 0-.5-.73m-1.062 2.147-.696.268a.78.78 0 0 0-.48.548 5.4 5.4 0 0 1-.653 1.576.78.78 0 0 0-.048.727l.303.683-.624.623-.682-.303a.78.78 0 0 0-.727.049 5.4 5.4 0 0 1-1.576.653.78.78 0 0 0-.548.48l-.268.695h-.882l-.268-.696a.78.78 0 0 0-.548-.479 5.4 5.4 0 0 1-1.576-.653.78.78 0 0 0-.727-.05l-.682.304-.624-.623.303-.683a.78.78 0 0 0-.049-.726 5.4 5.4 0 0 1-.653-1.577.78.78 0 0 0-.48-.548l-.695-.268v-.882l.695-.268a.78.78 0 0 0 .48-.548 5.4 5.4 0 0 1 .653-1.576.78.78 0 0 0 .05-.727l-.304-.682.624-.624.682.304a.78.78 0 0 0 .727-.05 5.4 5.4 0 0 1 1.576-.653.78.78 0 0 0 .548-.479l.268-.696h.882l.268.696c.092.24.297.42.548.48a5.4 5.4 0 0 1 1.576.653.78.78 0 0 0 .727.048l.682-.303.624.624-.303.682a.78.78 0 0 0 .048.727c.302.489.522 1.019.654 1.576a.78.78 0 0 0 .48.548l.695.268zm-6.44-5.152a4.717 4.717 0 0 0-4.712 4.711 4.717 4.717 0 0 0 4.712 4.712 4.717 4.717 0 0 0 4.711-4.712 4.717 4.717 0 0 0-4.711-4.711m0 7.86a3.153 3.153 0 0 1-3.15-3.149 3.153 3.153 0 0 1 3.15-3.149 3.153 3.153 0 0 1 3.149 3.15 3.153 3.153 0 0 1-3.15 3.148M4.926 30.565A20.9 20.9 0 0 1 4.175 25C4.174 13.516 13.516 4.174 25 4.174q1.453 0 2.885.199l-.303-.268a.781.781 0 1 1 1.035-1.17l2.53 2.237a.78.78 0 0 1-.27 1.326L27.675 7.57a.781.781 0 1 1-.496-1.481l.5-.167A19 19 0 0 0 25 5.736C14.378 5.736 5.736 14.378 5.736 25c0 1.747.234 3.479.696 5.148a.781.781 0 1 1-1.505.417m40.167-11.062c.487 1.783.733 3.633.733 5.497 0 11.484-9.342 20.826-20.826 20.826q-1.044 0-2.081-.103l.311.255a.781.781 0 0 1-.988 1.21l-2.616-2.137a.781.781 0 0 1 .218-1.336l3.158-1.196a.781.781 0 1 1 .554 1.46l-.494.188q.965.097 1.938.097c10.622 0 19.264-8.642 19.264-19.264 0-1.726-.229-3.436-.679-5.085a.781.781 0 1 1 1.508-.412m-32.51 21.774a.78.78 0 0 1-.78.777h-.005l-3.058-.018a.78.78 0 0 1-.777-.78v-3.448a.781.781 0 0 1 1.563 0v2.67l2.28.013c.432.003.78.355.777.786"/></g><defs><clipPath id="a"><path fill="#fff" d="M0 0h50v50H0z"/></clipPath></defs></svg>