<svg xmlns="http://www.w3.org/2000/svg" width="37" height="33" fill="none"><mask id="a" width="35" height="33" x="1" y="0" maskUnits="userSpaceOnUse" style="mask-type:luminance"><path fill="#fff" d="M36 0H1v32.387h35z"/></mask><g fill="#000" mask="url(#a)"><path d="M21.34 26.393a3 3 0 1 1 0 6 3 3 0 0 1 0-6m0 4.32a1.324 1.324 0 1 0 0-2.648 1.324 1.324 0 0 0 0 2.648M10.484 26.393a3 3 0 1 1 0 5.999 3 3 0 0 1 0-6m0 4.32a1.324 1.324 0 1 0 0-2.649 1.324 1.324 0 0 0 0 2.649M9.888 10.04h11.99a.837.837 0 0 1 0 1.672H9.888a.837.837 0 0 1 0-1.673M10.546 14.508h10.685a.837.837 0 0 1 0 1.673H10.546a.837.837 0 0 1 0-1.673"/><path d="M1.386 6.244a1.7 1.7 0 0 1 1.332-.638h26.769l.54-2.645a1.73 1.73 0 0 1 1-1.24L34.8.071a.855.855 0 0 1 1.13.45.87.87 0 0 1-.447 1.14l-3.771 1.65-4.16 20.345a1.73 1.73 0 0 1-1.683 1.383H5.281a.866.866 0 1 1 0-1.732H25.87l.505-2.475H5.122A1.73 1.73 0 0 1 3.44 19.45L1.035 7.685a1.74 1.74 0 0 1 .351-1.44M5.122 19.1H26.73l2.4-11.76H2.72z"/></g></svg>