<svg xmlns="http://www.w3.org/2000/svg" width="39" height="29" fill="none"><mask id="a" width="37" height="29" x="1" y="0" maskUnits="userSpaceOnUse" style="mask-type:luminance"><path fill="#fff" d="M38 0H1v28.153h37z"/></mask><g mask="url(#a)"><path fill="#000" d="M36.771 7.683 22.022.478a6.04 6.04 0 0 0-4.7 0L2.229 7.683A1.82 1.82 0 0 0 1 9.293c0 .38.17 1.06 1.229 1.61l1.229.594v6.78a2.08 2.08 0 0 0-1.314 1.908 2.1 2.1 0 0 0 1.271 1.907L1.509 28.15h5.34l-1.907-6.058a2.053 2.053 0 0 0-.042-3.814v-6.061l2.246 1.1v8.816c.003.137.048.27.127.38a15.4 15.4 0 0 0 12.206 5.637 15.3 15.3 0 0 0 12.164-5.637.7.7 0 0 0 .127-.381v-8.771l5-2.458A1.82 1.82 0 0 0 38 9.293a1.9 1.9 0 0 0-1.229-1.61m-6.357 14.24a14.17 14.17 0 0 1-10.935 4.916 14.17 14.17 0 0 1-10.935-4.916v-8.01l8.773 4.2c.736.317 1.53.476 2.331.466a5.16 5.16 0 0 0 2.373-.51l8.393-4.118zm5.764-12.206-5.086 2.5a.49.49 0 0 0-.466.254l-9.2 4.45a4.7 4.7 0 0 1-3.56 0L6.552 11.497 19.563 9.97a.66.66 0 1 0-.127-1.314l-15.088 1.78-1.526-.72a.86.86 0 0 1-.466-.381c0-.042.085-.212.466-.381L17.91 1.708a4.4 4.4 0 0 1 1.738-.34 4.3 4.3 0 0 1 1.78.34l14.749 7.205c.381.17.466.339.466.424-.12.165-.28.296-.465.38"/></g></svg>