<svg xmlns="http://www.w3.org/2000/svg" width="50" height="50" fill="none"><path fill="#000" d="M41.217 34.837a1.02 1.02 0 0 1 .96-.759h1.218a.78.78 0 0 0 .767-.632c.243-1.238.367-2.497.37-3.758a.78.78 0 0 0-.782-.782h-7.812V18.75a.78.78 0 0 0-.567-.751l-4.902-1.4V12.5a.78.78 0 0 0-.782-.781h-9.375a.78.78 0 0 0-.78.781v4.098l-4.903 1.4a.78.78 0 0 0-.566.752v10.156H6.25a.78.78 0 0 0-.781.782c.002 1.261.126 2.52.369 3.759a.78.78 0 0 0 .767.631h1.217a1.02 1.02 0 0 1 .961.76c.293.92.665 1.814 1.11 2.67a1.025 1.025 0 0 1-.143 1.22l-.866.865a.78.78 0 0 0-.095.99 19.5 19.5 0 0 0 5.316 5.316.78.78 0 0 0 .989-.096l.866-.866a1.03 1.03 0 0 1 1.218-.143c.857.446 1.752.817 2.673 1.11a1.02 1.02 0 0 1 .758.96v1.218a.78.78 0 0 0 .632.767c2.482.493 5.036.493 7.518 0a.78.78 0 0 0 .632-.767v-1.217a1.02 1.02 0 0 1 .758-.96 17 17 0 0 0 2.673-1.11 1.03 1.03 0 0 1 1.218.142l.866.866a.78.78 0 0 0 .989.096 19.5 19.5 0 0 0 5.316-5.317.78.78 0 0 0-.095-.989l-.866-.865a1.024 1.024 0 0 1-.143-1.219c.445-.857.817-1.751 1.11-2.672M30.469 18.223l3.906 1.116v9.567h-3.906zm-9.375-4.942h7.812v15.625h-1.562v-3.125a.78.78 0 0 0-.782-.781h-3.125a.783.783 0 0 0-.78.781v3.125h-1.563zm4.687 13.282v2.343H24.22v-2.343zm-10.156-7.224 3.906-1.116v10.683h-3.906zM35.76 30.47a10.787 10.787 0 0 1-21.52 0zm3.968 3.895a15.4 15.4 0 0 1-1.008 2.425 2.59 2.59 0 0 0 .425 3.043l.403.403a18 18 0 0 1-4 4l-.403-.403a2.59 2.59 0 0 0-3.044-.424c-.778.404-1.59.742-2.425 1.007a2.59 2.59 0 0 0-1.848 2.45v.563a17.7 17.7 0 0 1-5.656 0v-.563a2.59 2.59 0 0 0-1.848-2.45 15.3 15.3 0 0 1-2.425-1.007 2.59 2.59 0 0 0-3.044.424l-.403.403a18 18 0 0 1-4-4l.403-.403a2.59 2.59 0 0 0 .425-3.043 15.4 15.4 0 0 1-1.008-2.425 2.59 2.59 0 0 0-2.45-1.848H7.26a18 18 0 0 1-.21-2.047h5.629a12.346 12.346 0 0 0 24.644 0h5.63q-.05 1.029-.211 2.047h-.563a2.59 2.59 0 0 0-2.45 1.848M25.781 10.938V5.325a2.344 2.344 0 1 0-1.562 0v5.613zM25 2.344a.782.782 0 1 1 0 1.563.782.782 0 0 1 0-1.563"/><path fill="#000" d="M32.813 10.938v5.468h1.562v-5.145l1.34-1.34c.312.153.656.233 1.004.235a2.344 2.344 0 1 0-2.344-2.344c.002.349.082.692.235 1.005l-1.569 1.568a.78.78 0 0 0-.228.553m3.906-3.907a.781.781 0 1 1 0 1.563.781.781 0 0 1 0-1.563M13.281 5.469a2.343 2.343 0 1 0 0 4.687 2.3 2.3 0 0 0 1.004-.235l1.34 1.34v5.145h1.563v-5.468a.78.78 0 0 0-.23-.553L15.39 8.817c.153-.313.233-.656.235-1.005a2.346 2.346 0 0 0-2.344-2.343m0 3.125a.781.781 0 1 1 0-1.563.781.781 0 0 1 0 1.563M5.47 14.063a2.344 2.344 0 1 0 1.624 4.026l2.282 1.143V25h1.562v-6.25a.78.78 0 0 0-.43-.698l-2.723-1.365q.023-.14.028-.28a2.346 2.346 0 0 0-2.343-2.344m0 3.124a.78.78 0 1 1 0-1.561.78.78 0 0 1 0 1.562M9.375 26.563h1.563v1.562H9.375zM46.875 16.406a2.343 2.343 0 1 0-4.687 0q.005.141.028.281l-2.722 1.365a.78.78 0 0 0-.431.698V25h1.562v-5.768l2.282-1.143a2.339 2.339 0 0 0 3.968-1.683m-3.125 0a.78.78 0 1 1 1.562 0 .78.78 0 0 1-1.562 0M39.063 26.563h1.562v1.562h-1.562zM22.656 15.625h4.688v1.563h-4.688zM22.656 18.75h4.688v1.563h-4.688zM22.656 21.875h4.688v1.563h-4.688zM31.25 20.313h2.344v1.562H31.25zM31.25 23.438h2.344V25H31.25zM16.406 20.313h2.344v1.562h-2.344zM16.406 23.438h2.344V25h-2.344z"/></svg>