<svg xmlns="http://www.w3.org/2000/svg" width="50" height="50" fill="none"><g fill="#000" clip-path="url(#a)"><path d="M18.925 14.788a1.6 1.6 0 0 0 .224 1.558c.338.44.732.833 1.17 1.171a1.6 1.6 0 0 0 1.56.224l.093-.037q.435.219.9.372l.04.095a1.6 1.6 0 0 0 1.262.943c.548.07 1.103.07 1.652 0a1.6 1.6 0 0 0 1.261-.943l.041-.095a6.6 6.6 0 0 0 .9-.372l.093.037a1.6 1.6 0 0 0 1.559-.224c.439-.338.832-.731 1.17-1.17a1.6 1.6 0 0 0 .225-1.559l-.038-.094q.219-.435.372-.9l.095-.04a1.6 1.6 0 0 0 .943-1.262c.07-.548.07-1.103 0-1.651a1.6 1.6 0 0 0-.943-1.258l-.095-.04a6.6 6.6 0 0 0-.372-.9l.038-.094a1.6 1.6 0 0 0-.224-1.558A6.4 6.4 0 0 0 29.68 5.82a1.6 1.6 0 0 0-1.559-.224l-.094.037q-.435-.219-.899-.372l-.04-.095a1.6 1.6 0 0 0-1.262-.943 6.7 6.7 0 0 0-1.652 0 1.6 1.6 0 0 0-1.258.943l-.04.095q-.464.153-.9.372l-.094-.037a1.6 1.6 0 0 0-1.558.224c-.44.338-.833.731-1.17 1.17a1.6 1.6 0 0 0-.225 1.559l.037.094q-.22.435-.371.9l-.095.04a1.6 1.6 0 0 0-.944 1.262 6.5 6.5 0 0 0 0 1.651 1.6 1.6 0 0 0 .944 1.258l.095.04q.152.465.371.9zm.681-3.872a.83.83 0 0 0 .477-.552c.115-.438.29-.859.518-1.25a.84.84 0 0 0 .053-.728L20.469 8q.187-.244.406-.462.207-.188.386-.402l.456.181a.83.83 0 0 0 .728-.053 5 5 0 0 1 1.25-.518.83.83 0 0 0 .552-.476l.137-.4A5 5 0 0 1 25 5.833q.28.015.557-.012l.194.452a.83.83 0 0 0 .552.477c.438.115.859.29 1.25.517a.83.83 0 0 0 .728.054l.38-.185q.245.188.462.405.188.208.403.387l-.182.456a.84.84 0 0 0 .053.727c.229.392.402.812.518 1.25a.84.84 0 0 0 .476.553l.4.137a4.8 4.8 0 0 1 .007 1.192l-.405.174a.83.83 0 0 0-.477.553c-.115.438-.289.858-.517 1.25a.83.83 0 0 0-.053.727l.185.381a5 5 0 0 1-.406.462q-.209.188-.387.402l-.456-.181a.83.83 0 0 0-.727.053 5 5 0 0 1-1.25.517.83.83 0 0 0-.553.477l-.136.4q-.307.04-.616.042a4 4 0 0 0-.558.012l-.193-.452a.83.83 0 0 0-.553-.477 5 5 0 0 1-1.25-.517.83.83 0 0 0-.725-.054l-.38.185a5 5 0 0 1-.462-.405 4 4 0 0 0-.403-.387l.182-.456a.83.83 0 0 0-.053-.727 5 5 0 0 1-.518-1.25.83.83 0 0 0-.476-.553l-.4-.137a5 5 0 0 1-.045-.616q.015-.278-.011-.557z"/><path d="M25 15a3.333 3.333 0 1 0 0-6.666A3.333 3.333 0 0 0 25 15m0-5a1.667 1.667 0 1 1 0 3.335A1.667 1.667 0 0 1 25 10"/><path d="M5 40a1.42 1.42 0 0 0 .828 1.311l18.565 8.557a1.48 1.48 0 0 0 1.225-.002l18.563-8.555a1.432 1.432 0 0 0-.008-2.593l-3.513-1.619 3.521-1.621a1.432 1.432 0 0 0-.007-2.594l-3.507-1.616 3.5-1.612a1.428 1.428 0 0 0 0-2.593L31.765 21.35q.316-.398.705-.723a11.668 11.668 0 1 0-14.82.097q.336.275.6.62L5.833 27.063a1.428 1.428 0 0 0 0 2.593l3.5 1.612-3.5 1.615a1.432 1.432 0 0 0 0 2.598L9.347 37.1l-3.514 1.617A1.41 1.41 0 0 0 5 40m24.167-10a.833.833 0 0 1-.834.833h-6.666a.834.834 0 0 1 0-1.667h6.666a.833.833 0 0 1 .834.833M30 27.5H20a.833.833 0 1 1 0-1.667h10a.833.833 0 0 1 0 1.666M15 11.665a10 10 0 1 1 16.404 7.68 6.01 6.01 0 0 0-2.237 4.593v.227h-8.333v-.083a5.93 5.93 0 0 0-2.135-4.65A9.95 9.95 0 0 1 15 11.667m3.992 11.17c.115.406.173.825.175 1.247v.24a2.486 2.486 0 0 0 .183 4.75 2.493 2.493 0 0 0 2.317 3.426h6.666a2.492 2.492 0 0 0 2.317-3.43 2.486 2.486 0 0 0 .184-4.75v-.38A4 4 0 0 1 31 22.833l12 5.526-18 8.286L7 28.36zm-7.667 9.348 13.064 6.014a1.45 1.45 0 0 0 1.224 0l13.066-6.014 4.333 2L25 42.48 6.991 34.183zm.009 5.834 13.06 6.017a1.48 1.48 0 0 0 1.225-.002l13.048-6.016 4.339 2L25 48.314 6.992 40.017z"/></g><defs><clipPath id="a"><path fill="#fff" d="M0 0h50v50H0z"/></clipPath></defs></svg>