<svg xmlns="http://www.w3.org/2000/svg" width="50" height="50" fill="none"><path fill="#000" d="M26.087 36.564h-2.175a1.4 1.4 0 0 1-1.398-1.398c0-.85-.55-1.38-1.065-1.593s-1.278-.227-1.878.373a1.4 1.4 0 0 1-.99.41c-.373 0-.724-.146-.988-.41l-1.538-1.538a1.4 1.4 0 0 1 0-1.978c.6-.599.585-1.363.372-1.878-.214-.514-.743-1.065-1.591-1.065a1.4 1.4 0 0 1-1.399-1.398v-2.175a1.4 1.4 0 0 1 1.399-1.399c.848 0 1.377-.55 1.59-1.064.214-.515.228-1.279-.371-1.878a1.4 1.4 0 0 1-.41-.99c0-.373.146-.724.41-.988l1.538-1.538a1.4 1.4 0 0 1 .989-.41c.373 0 .724.146.989.41.599.6 1.363.585 1.878.372.514-.214 1.065-.743 1.065-1.591a1.4 1.4 0 0 1 1.398-1.398h2.175a1.4 1.4 0 0 1 1.398 1.398c0 .848.55 1.377 1.065 1.59s1.28.228 1.878-.371a1.4 1.4 0 0 1 1.978 0l1.538 1.538c.264.264.41.615.41.989 0 .373-.145.724-.41.989-.6.6-.585 1.363-.372 1.878.214.514.743 1.064 1.591 1.064a1.4 1.4 0 0 1 1.399 1.399v2.175a1.4 1.4 0 0 1-1.399 1.398c-.847 0-1.377.55-1.59 1.065s-.228 1.28.371 1.878a1.4 1.4 0 0 1 0 1.978l-1.538 1.538a1.4 1.4 0 0 1-1.977 0c-.6-.6-1.364-.585-1.879-.372-.514.214-1.065.744-1.065 1.591a1.4 1.4 0 0 1-1.398 1.399m-5.317-4.498c.401 0 .808.08 1.203.244a3.04 3.04 0 0 1 1.908 2.855c0 .017.014.031.03.031h2.176a.03.03 0 0 0 .031-.03c0-1.273.732-2.367 1.91-2.855a3.04 3.04 0 0 1 3.367.669.03.03 0 0 0 .044 0l1.539-1.539a.03.03 0 0 0 0-.044c-.9-.9-1.156-2.19-.669-3.368a3.04 3.04 0 0 1 2.855-1.909.03.03 0 0 0 .03-.03v-2.176a.03.03 0 0 0-.03-.031 3.04 3.04 0 0 1-2.855-1.91 3.04 3.04 0 0 1 .669-3.367.03.03 0 0 0 .009-.022.03.03 0 0 0-.01-.022l-1.538-1.539a.03.03 0 0 0-.044 0c-.9.9-2.19 1.156-3.368.669a3.04 3.04 0 0 1-1.909-2.855.03.03 0 0 0-.03-.03h-2.176a.03.03 0 0 0-.031.03 3.04 3.04 0 0 1-1.91 2.855 3.04 3.04 0 0 1-3.367-.669.03.03 0 0 0-.022-.009q-.02.002-.022.01l-1.539 1.538c-.002.002-.009.009-.009.022s.007.019.01.022c.9.9 1.155 2.19.668 3.368a3.04 3.04 0 0 1-2.855 1.909.03.03 0 0 0-.03.03v2.176c0 .017.014.031.03.031 1.273 0 2.367.732 2.855 1.91a3.04 3.04 0 0 1-.669 3.367.03.03 0 0 0 0 .044l1.539 1.539c.003.002.009.009.022.009s.019-.007.022-.01a3.05 3.05 0 0 1 2.166-.913M25 31.001c-3.309 0-6-2.691-6-6 0-3.308 2.691-6 6-6 3.308 0 6 2.692 6 6 0 3.309-2.692 6-6 6m0-10.632a4.64 4.64 0 0 0-4.633 4.633A4.64 4.64 0 0 0 25 29.633a4.64 4.64 0 0 0 4.632-4.632A4.64 4.64 0 0 0 25 20.369"/><path fill="#000" d="M44.115 47.718a.683.683 0 0 1-.683-.683v-2.1H25c-10.992 0-19.935-8.942-19.935-19.934 0-4.714 1.677-9.288 4.721-12.88a.68.68 0 0 1 .522-.242h6.003a.683.683 0 0 1 .392 1.244A14.51 14.51 0 0 0 10.51 25c0 7.989 6.5 14.489 14.49 14.489h18.431v-2.1a.684.684 0 0 1 1.193-.456l4.322 4.822a.684.684 0 0 1 0 .913l-4.322 4.822a.68.68 0 0 1-.51.227M10.628 13.246a18.58 18.58 0 0 0-4.196 11.755c0 10.238 8.33 18.567 18.568 18.567h19.116c.377 0 .683.306.683.684v.996l2.72-3.035-2.72-3.036v.996a.684.684 0 0 1-.683.684H25c-8.743 0-15.856-7.113-15.856-15.856 0-4.502 1.92-8.767 5.216-11.755zM5.885 47.718a.68.68 0 0 1-.51-.227l-4.322-4.822a.684.684 0 0 1 0-.913l4.322-4.822a.684.684 0 0 1 1.193.457v2.099H9.09c.187 0 .365.076.495.211a21.4 21.4 0 0 0 5.122 3.953.684.684 0 0 1-.33 1.281H6.568v2.1a.684.684 0 0 1-.683.683M2.48 42.212l2.72 3.036v-.996c0-.378.307-.684.684-.684h6.11A22.7 22.7 0 0 1 8.8 40.857H5.884a.684.684 0 0 1-.683-.684v-.996zm37.212-4.09H33.69a.683.683 0 0 1-.392-1.243A14.51 14.51 0 0 0 39.488 25c0-7.99-6.499-14.49-14.488-14.49H6.568v2.1a.683.683 0 0 1-1.193.456L1.053 8.245a.684.684 0 0 1 0-.912L5.375 2.51a.684.684 0 0 1 1.193.456v2.099H25c10.992 0 19.935 8.943 19.935 19.935 0 4.713-1.677 9.287-4.721 12.88a.68.68 0 0 1-.522.242m-4.052-1.367h3.732a18.58 18.58 0 0 0 4.196-11.754c0-10.239-8.33-18.568-18.568-18.568H5.884a.684.684 0 0 1-.683-.683v-.996L2.48 7.789l2.72 3.035v-.996c0-.377.306-.683.683-.683H25c8.743 0 15.856 7.113 15.856 15.856 0 4.501-1.92 8.767-5.216 11.754m8.475-23.46a.68.68 0 0 1-.683-.684v-2.1H40.91a.68.68 0 0 1-.494-.211 21.4 21.4 0 0 0-5.123-3.952.683.683 0 0 1 .33-1.282h7.809v-2.1a.684.684 0 0 1 1.193-.455l4.322 4.822a.684.684 0 0 1 0 .912l-4.322 4.822a.68.68 0 0 1-.51.228M41.2 9.145h2.916c.377 0 .683.306.683.683v.996l2.72-3.035-2.72-3.035v.996a.684.684 0 0 1-.683.683h-6.11A22.7 22.7 0 0 1 41.2 9.145"/></svg>