<svg xmlns="http://www.w3.org/2000/svg" width="50" height="50" fill="none"><g clip-path="url(#a)"><path fill="#000" fill-rule="evenodd" d="M25 11.369c7.528 0 13.63 6.102 13.63 13.63S32.528 38.63 25 38.63c-7.53 0-13.631-6.101-13.631-13.63 0-7.528 6.102-13.63 13.63-13.63m9.39 21.202a12 12 0 0 0 2.671-7.572c0-6.662-5.4-12.061-12.062-12.061s-12.061 5.399-12.061 12.061c0 2.868 1 5.502 2.67 7.572a9.78 9.78 0 0 1 6.233-6.592 5.32 5.32 0 0 1-2.163-4.276c0-2.928 2.394-5.321 5.321-5.321 2.928 0 5.321 2.393 5.321 5.32a5.32 5.32 0 0 1-2.162 4.276 9.78 9.78 0 0 1 6.232 6.593m-17.478 1.378A12.02 12.02 0 0 0 25 37.061c3.112 0 5.948-1.178 8.087-3.112-.606-3.922-3.997-6.925-8.087-6.925s-7.48 3.003-8.087 6.925M25 25.455a3.763 3.763 0 0 0 3.753-3.752 3.763 3.763 0 0 0-3.753-3.753 3.763 3.763 0 0 0-3.752 3.753 3.763 3.763 0 0 0 3.752 3.752m22.732.329h-4.504l.627.744a.785.785 0 0 1-1.2 1.01l-1.713-2.033a.784.784 0 0 1 0-1.011l1.714-2.034a.785.785 0 0 1 1.2 1.01l-.628.745h5.302c.432 0 .784.351.784.784 0 11.81-8.439 21.665-19.61 23.858a.785.785 0 0 1-.303-1.539c10.203-2.003 17.968-10.837 18.331-21.534M24.215 6.772V1.47c0-.433.351-.784.784-.784 11.81 0 21.665 8.438 23.858 19.61a.785.785 0 0 1-1.539.302C45.315 10.396 36.481 2.631 25.784 2.268v4.504l.744-.628a.785.785 0 0 1 1.01 1.2l-2.033 1.714a.784.784 0 0 1-1.011 0L22.46 7.344a.785.785 0 0 1 1.01-1.2zM2.268 24.215h4.504l-.628-.744a.785.785 0 0 1 1.2-1.011l1.714 2.034a.784.784 0 0 1 0 1.01L7.344 27.54a.785.785 0 0 1-1.2-1.011l.628-.744H1.47a.785.785 0 0 1-.784-.785c0-11.81 8.438-21.664 19.61-23.858a.785.785 0 0 1 .302 1.54C10.396 4.683 2.631 13.516 2.268 24.214m21.947 23.516v-4.504l-.744.627a.785.785 0 0 1-1.011-1.2l2.034-1.713a.784.784 0 0 1 1.01 0l2.035 1.714a.785.785 0 0 1-1.011 1.2l-.744-.628v5.302a.785.785 0 0 1-.785.784c-11.81 0-21.664-8.439-23.858-19.61a.785.785 0 0 1 1.54-.303c2.003 10.203 10.836 17.968 21.534 18.331" clip-rule="evenodd"/></g><defs><clipPath id="a"><path fill="#fff" d="M0 0h50v50H0z"/></clipPath></defs></svg>