<svg xmlns="http://www.w3.org/2000/svg" width="38" height="37" fill="none"><g clip-path="url(#a)"><mask id="b" width="37" height="37" x="1" y="0" maskUnits="userSpaceOnUse" style="mask-type:luminance"><path fill="#fff" d="M37.182 0H1v36.173h36.182z"/></mask><g fill="#000" mask="url(#b)"><path d="M9.94 36.174h5.36a1.19 1.19 0 0 0 1.2-1.185v-.168a31 31 0 0 0-.166-4.486 5.85 5.85 0 0 0-2.094-3.436c-.085-.06-.856-.573-4.106-2.73L6.9 22.026a2 2 0 0 0-1.67-.241c-.124-1.181-.19-1.781-.468-4.348l-.188-1.724a1.81 1.81 0 0 0-1.422-1.557 1.8 1.8 0 0 0-.737.005A1.85 1.85 0 0 0 1 16.003c.039 4.618.039 4.678.06 6.07l.023 2.248a5.86 5.86 0 0 0 .756 2.913 7.3 7.3 0 0 0 1.926 2.112l.4.337A764 764 0 0 0 8.54 33.42a.59.59 0 0 1 .208.452v1.1a1.19 1.19 0 0 0 1.192 1.2m-5-7.4-.406-.345a6.2 6.2 0 0 1-1.655-1.784 4.7 4.7 0 0 1-.6-2.342l-.024-2.246c-.017-1.392-.018-1.452-.06-6.066a.66.66 0 0 1 .47-.668.58.58 0 0 1 .47.096.62.62 0 0 1 .255.426l.187 1.719c.33 3.033.36 3.317.545 5.066a1.994 1.994 0 0 0 .479 2.636l6.244 4.728a.601.601 0 0 0 1.003-.55.6.6 0 0 0-.284-.401l-6.237-4.73a.8.8 0 0 1-.16-1.1.6.6 0 0 0 .077-.1.82.82 0 0 1 1-.09l3.23 2.147 4.04 2.682a4.7 4.7 0 0 1 1.648 2.722c.14 1.41.186 2.83.138 4.247v.163H9.94v-1.1a1.78 1.78 0 0 0-.627-1.363c-1.121-.951-2.73-2.33-4.373-3.74zM35.764 14.16a1.76 1.76 0 0 0-1.413.294 1.82 1.82 0 0 0-.746 1.266l-.127 1.155c-.333 3.052-.4 3.649-.532 4.915a1.99 1.99 0 0 0-1.67.238l-3.341 2.218c-3.16 2.1-3.91 2.594-4.014 2.67a5.8 5.8 0 0 0-2.074 3.417 30.4 30.4 0 0 0-.171 4.49v.166a1.19 1.19 0 0 0 1.192 1.185h5.364a1.19 1.19 0 0 0 1.192-1.192v-1.1a.6.6 0 0 1 .207-.452c1.122-.954 2.733-2.331 4.377-3.743l.4-.34a7.3 7.3 0 0 0 1.929-2.11 5.86 5.86 0 0 0 .756-2.913l.026-2.243c.017-1.395.018-1.452.06-6.073a1.85 1.85 0 0 0-1.415-1.847m.165 7.9-.027 2.244c.007.82-.2 1.627-.6 2.343a6.2 6.2 0 0 1-1.652 1.782l-.41.347c-1.641 1.41-3.251 2.788-4.372 3.74a1.78 1.78 0 0 0-.628 1.36v1.1h-5.364v-.154q-.07-2.132.146-4.252a4.68 4.68 0 0 1 1.624-2.7c.1-.07 1.3-.87 3.952-2.627l3.335-2.221a.8.8 0 0 1 .435-.131.82.82 0 0 1 .577.238q.03.046.07.086a.8.8 0 0 1-.16 1.1l-6.246 4.727a.6.6 0 1 0 .719.95l6.248-4.73a1.99 1.99 0 0 0 .48-2.632c.2-1.848.22-2.06.608-5.627l.125-1.15a.62.62 0 0 1 .479-.532.6.6 0 0 1 .246.002.66.66 0 0 1 .47.668c-.038 4.617-.04 4.674-.056 6.068z"/><path d="M31.81 12.517a12.724 12.724 0 0 0-25.445 0 12.724 12.724 0 0 0 25.445 0m-24.233 0a11.512 11.512 0 0 1 23.021 0 11.512 11.512 0 0 1-23.02 0"/><path d="M21.526 19.67v-4.173a.6.6 0 0 1 .61-.6h4.268a1.81 1.81 0 0 0 1.83-1.788v-1.188a1.81 1.81 0 0 0-1.83-1.788h-4.268a.6.6 0 0 1-.61-.6V5.364a1.81 1.81 0 0 0-1.829-1.788h-1.22a1.81 1.81 0 0 0-1.829 1.788v4.172a.6.6 0 0 1-.61.6H11.77a1.81 1.81 0 0 0-1.829 1.785v1.192a1.81 1.81 0 0 0 1.83 1.788h4.27a.6.6 0 0 1 .61.6v4.172a1.81 1.81 0 0 0 1.83 1.788h1.218a1.81 1.81 0 0 0 1.827-1.792m-3.658 0v-4.173a1.81 1.81 0 0 0-1.827-1.788h-4.27a.6.6 0 0 1-.61-.6v-1.188a.6.6 0 0 1 .61-.6h4.27a1.81 1.81 0 0 0 1.83-1.788V5.364a.6.6 0 0 1 .61-.6h1.218a.6.6 0 0 1 .61.6v4.172a1.77 1.77 0 0 0 .536 1.264c.347.337.81.525 1.293.524h4.268a.6.6 0 0 1 .61.6v1.192a.6.6 0 0 1-.61.6h-4.27a1.81 1.81 0 0 0-1.829 1.788v4.172a.6.6 0 0 1-.61.6h-1.22a.6.6 0 0 1-.609-.607"/></g></g><defs><clipPath id="a"><path fill="#fff" d="M.5 0h37v37H.5z"/></clipPath></defs></svg>