<svg xmlns="http://www.w3.org/2000/svg" width="50" height="50" fill="none"><g fill="#000" clip-path="url(#a)"><path d="m28.579 21.078-6.078 6.077-1.077-1.077a.833.833 0 0 0-1.178 1.178l1.666 1.667a.833.833 0 0 0 1.179 0l6.666-6.667a.833.833 0 0 0-1.178-1.178"/><path d="M38.334 26.666h-.116a13.25 13.25 0 0 0-14.884-14.884v-.116a11.667 11.667 0 1 0-18.927 9.117c.014.014.033.021.047.035a11.7 11.7 0 0 0 3.538 1.916q.025.01.051.02c1.17.384 2.393.58 3.624.579h.116a13.25 13.25 0 0 0 14.884 14.884v.116a11.65 11.65 0 0 0 4.407 9.117c.013.014.033.021.047.034a11.7 11.7 0 0 0 3.537 1.917q.025.01.052.02a11.55 11.55 0 0 0 7.25 0q.026-.01.052-.02a11.6 11.6 0 0 0 3.536-1.917c.015-.013.034-.02.048-.035a11.656 11.656 0 0 0-7.262-20.783m0 13.333a4.146 4.146 0 0 1-3.917-5.573 13.4 13.4 0 0 0 1.722-2.123 4.1 4.1 0 0 1 2.195-.637 4.167 4.167 0 0 1 0 8.333M1.667 11.667c0-5.523 4.478-10 10-10s10 4.477 10 10c0 .156-.005.3-.01.442a13.3 13.3 0 0 0-4.841 2.391c-.45-.34-.947-.61-1.476-.804a5.833 5.833 0 1 0-7.343 0 5.84 5.84 0 0 0-3.763 4.638 9.95 9.95 0 0 1-2.567-6.667m5.834-2.5a4.167 4.167 0 1 1 8.333 0 4.167 4.167 0 0 1-8.333 0m4.166 12.5a10 10 0 0 1-2.5-.329v-2.17a.833.833 0 0 0-1.666 0v1.582a10 10 0 0 1-1.667-.973v-.61A4.17 4.17 0 0 1 10.001 15h3.333c.776 0 1.536.219 2.193.633a13.3 13.3 0 0 0-3.417 6.023q-.212.01-.443.011M13.334 25c0-6.444 5.223-11.667 11.667-11.667 6.443 0 11.666 5.223 11.666 11.667 0 6.443-5.223 11.666-11.666 11.666C18.56 36.66 13.34 31.44 13.334 25m15 13.333c0-.156.005-.3.01-.442a13.2 13.2 0 0 0 4.168-1.883 5.82 5.82 0 0 0 2.155 4.353A5.84 5.84 0 0 0 30.901 45a9.95 9.95 0 0 1-2.567-6.667m7.5 9.667v-2.167a.833.833 0 0 0-1.667 0v1.583a10 10 0 0 1-1.666-.973v-.61a4.17 4.17 0 0 1 4.166-4.167h3.334a4.17 4.17 0 0 1 4.166 4.167v.606a10 10 0 0 1-1.666.977v-1.583a.833.833 0 0 0-1.667 0v2.166a9.66 9.66 0 0 1-5 0m9.933-3a5.84 5.84 0 0 0-3.766-4.639A5.833 5.833 0 0 0 38.334 30a6 6 0 0 0-1.017.099q.348-.858.575-1.755A9.983 9.983 0 0 1 45.767 45M29.756 1.076a.833.833 0 0 0-1.178 0l-2.5 2.5a.833.833 0 0 0 0 1.178l2.5 2.5a.833.833 0 0 0 1.178-1.178L28.72 5.039C39.266 5.695 47.487 14.432 47.5 25a.833.833 0 1 0 1.667 0c-.014-11.515-9.021-21.013-20.519-21.636l1.108-1.109a.833.833 0 0 0 0-1.178M2.5 25a.833.833 0 0 0-1.666 0c.014 11.514 9.021 21.012 20.52 21.635l-1.11 1.108a.833.833 0 1 0 1.18 1.179l2.5-2.5a.833.833 0 0 0 0-1.178l-2.5-2.5a.833.833 0 0 0-1.18 1.178l1.038 1.037C10.736 44.303 2.514 35.566 2.5 24.999"/></g><defs><clipPath id="a"><path fill="#fff" d="M0 0h50v50H0z"/></clipPath></defs></svg>