<svg xmlns="http://www.w3.org/2000/svg" width="39" height="28" fill="none"><mask id="a" width="37" height="28" x="1" y="0" maskUnits="userSpaceOnUse" style="mask-type:luminance"><path fill="#fff" d="M38 0H1v27.08h37z"/></mask><g mask="url(#a)"><path fill="#000" d="M26.95 23.929H13.281a3.688 3.688 0 0 1-6.066 2.264 3.7 3.7 0 0 1-1.234-2.264h-4.37a.623.623 0 0 1-.616-.631V3.146a.624.624 0 0 1 .616-.628h23.433a.62.62 0 0 1 .616.628v3.777h6.168a.61.61 0 0 1 .517.29l5.552 8.82a.65.65 0 0 1 .1.337v6.928a.62.62 0 0 1-.38.58.6.6 0 0 1-.238.05h-3.137a3.69 3.69 0 0 1-6.064 2.261 3.7 3.7 0 0 1-1.236-2.26zm1.18-.631a2.469 2.469 0 0 0 4.23 1.677 2.468 2.468 0 0 0-1.76-4.195 2.5 2.5 0 0 0-2.47 2.516zm-20.962 0a2.47 2.47 0 0 0 1.559 2.241 2.464 2.464 0 0 0 3.329-1.832 2.466 2.466 0 0 0-2.424-2.927 2.5 2.5 0 0 0-2.464 2.516zm29.6-.629v-1.258h-1.853v-1.26h1.853v-3.6l-.116-.186h-9.136a.62.62 0 0 1-.439-.186.62.62 0 0 1-.178-.443V10.07a.62.62 0 0 1 .617-.629h4.778l-.795-1.264h-5.833v14.486h1.284a3.688 3.688 0 0 1 7.3 0zm-12.334 0v-1.258H13.952v-1.26h10.482V6.296H3.467V5.038h20.967v-1.26h-22.2v16.375H5.32v1.26H2.234v1.258h3.754a3.686 3.686 0 0 1 6.064-2.26c.67.58 1.11 1.382 1.236 2.26zm3.7-7.559h7.728l-2.794-4.437v.031h-4.934zm1.853 8.818v-1.26h1.232v1.26zm-20.968 0v-1.26h1.233v1.26zm-5.55-22.67V-.004h8.633v1.26zm-2.466 0V-.004h1.232v1.26z"/></g></svg>