<svg xmlns="http://www.w3.org/2000/svg" width="41" height="38" fill="none"><g clip-path="url(#a)"><mask id="b" width="40" height="38" x="1" y="0" maskUnits="userSpaceOnUse" style="mask-type:luminance"><path fill="#fff" d="M40.168 0H1v37.063h39.168z"/></mask><g fill="#000" mask="url(#b)"><path d="M11.496 23.59a.783.783 0 1 0-.782-1.358.783.783 0 0 0 .782 1.358"/><path d="m8.52 28.87 3.947 6.664a3.18 3.18 0 0 0 4.281 1.119 3.013 3.013 0 0 0 1.151-4.175l-2.35-3.971 2.035-1.146a.754.754 0 0 0 .288-1.044l-1.023-1.72 15.01-2.871a2.288 2.288 0 0 0 1.904-3.43l-2.6-4.4 1.665-2.458a.75.75 0 0 0 .024-.8l-1.566-2.647a.79.79 0 0 0-.727-.38l-3.015.175-2.895-4.89a2.34 2.34 0 0 0-2.006-1.146h-.03a2.35 2.35 0 0 0-1.979 1.057L10.4 15.524 3.741 19.27a5.28 5.28 0 0 0-2.008 7.307 5.56 5.56 0 0 0 6.786 2.292m8.018 4.373a1.51 1.51 0 0 1-.574 2.087 1.59 1.59 0 0 1-2.14-.559l-3.918-6.619 2.714-1.528zm-1.777-6.059-.784-1.323 1.357-.764.784 1.323zm15.4-18.026 1.082 1.83-.965 1.425L28.41 9.26zm-8.216-5.512a.794.794 0 0 1 1.346.015l9.115 15.394a.765.765 0 0 1-.66 1.146 3 3 0 0 0-.43.071L21.677 3.99c.2-.254.229-.279.269-.343m-1.311 1.638 9.058 15.3-13.672 2.612-4.156-7.02zM3.09 25.813a3.74 3.74 0 0 1-.526-1.906 3.82 3.82 0 0 1 1.96-3.31l6.108-3.439 3.919 6.617-6.109 3.436a3.98 3.98 0 0 1-5.352-1.4z"/><path d="M9.304 24.032a.784.784 0 0 0-1.07-.287l-1.357.784a.785.785 0 0 1-1.07-.287.784.784 0 1 0-1.357.784 2.354 2.354 0 0 0 3.211.86l1.357-.784a.784.784 0 0 0 .286-1.07M39.002 3.428l-4.366 2.43a.785.785 0 0 0 .762 1.37l4.366-2.43a.784.784 0 0 0-.762-1.37M38.544 11.273l-3.028-.811a.784.784 0 1 0-.406 1.514l3.028.81a.783.783 0 0 0 .406-1.513M31.13.58l-.813 3.029a.783.783 0 0 0 1.153.896.78.78 0 0 0 .361-.49l.812-3.028A.784.784 0 1 0 31.13.58"/></g></g><defs><clipPath id="a"><path fill="#fff" d="M.5 0h40v38H.5z"/></clipPath></defs></svg>