<svg xmlns="http://www.w3.org/2000/svg" width="50" height="50" fill="none"><g fill="#000" clip-path="url(#a)"><path d="M22.58 36.291v-3.226a2.42 2.42 0 0 0-2.419-2.42v-1.612a2.42 2.42 0 0 0 2.42-2.42v-3.225a2.42 2.42 0 0 0-2.42-2.42v-1.613a2.42 2.42 0 0 0 2.42-2.419V13.71a2.42 2.42 0 0 0-2.42-2.419H2.42A2.42 2.42 0 0 0 0 13.711v3.225a2.42 2.42 0 0 0 2.42 2.42v1.612A2.42 2.42 0 0 0 0 23.388v3.226a2.42 2.42 0 0 0 2.42 2.419v1.613A2.42 2.42 0 0 0 0 33.066v3.225a2.42 2.42 0 0 0 2.42 2.42H20.16a2.42 2.42 0 0 0 2.42-2.42M1.614 16.936V13.71c0-.445.361-.806.806-.806h17.742c.445 0 .807.361.807.806v3.226a.807.807 0 0 1-.807.807H2.42a.807.807 0 0 1-.806-.807m2.42 2.42h14.515v1.612H4.032zm-2.42 7.258v-3.226c0-.445.361-.807.806-.807h17.742c.445 0 .807.362.807.807v3.226a.807.807 0 0 1-.807.806H2.42a.807.807 0 0 1-.806-.806m2.42 2.419h14.515v1.613H4.032zm-2.42 7.258v-3.226c0-.445.361-.806.806-.806h17.742c.445 0 .807.361.807.806v3.226a.807.807 0 0 1-.807.806H2.42a.807.807 0 0 1-.806-.806M50 16.936V13.71a2.42 2.42 0 0 0-2.419-2.419H29.84a2.42 2.42 0 0 0-2.42 2.42v3.225a2.42 2.42 0 0 0 2.42 2.42v1.612a2.42 2.42 0 0 0-2.42 2.42v3.226a2.42 2.42 0 0 0 2.42 2.419v1.613a2.42 2.42 0 0 0-2.42 2.42v3.225a2.42 2.42 0 0 0 2.42 2.42h17.742a2.42 2.42 0 0 0 2.42-2.42v-3.226a2.42 2.42 0 0 0-2.42-2.42v-1.612a2.42 2.42 0 0 0 2.42-2.42v-3.225a2.42 2.42 0 0 0-2.42-2.42v-1.613a2.42 2.42 0 0 0 2.42-2.419m-20.967 0V13.71c0-.445.361-.806.806-.806h17.742c.445 0 .807.361.807.806v3.226a.807.807 0 0 1-.807.807H29.84a.807.807 0 0 1-.806-.807m19.355 16.13v3.225a.807.807 0 0 1-.807.806H29.84a.807.807 0 0 1-.806-.806v-3.226c0-.445.361-.806.806-.806h17.742c.445 0 .807.361.807.806m-2.42-2.42H31.452v-1.613h14.516zm2.42-7.258v3.226a.807.807 0 0 1-.807.806H29.84a.807.807 0 0 1-.806-.806v-3.226c0-.445.361-.807.806-.807h17.742c.445 0 .807.362.807.807m-2.42-2.42H31.452v-1.613h14.516zM36.29 3.226v-.964l4.124 2.577-4.124 2.576v-.963a.806.806 0 0 0-.806-.807H9.677v1.613h25v1.613a.807.807 0 0 0 1.234.684l6.452-4.032a.807.807 0 0 0 0-1.368L35.91.123a.807.807 0 0 0-1.234.684V2.42H8.064v1.612h27.42c.446 0 .806-.36.806-.806M13.71 46.774v.964L9.585 45.16l4.123-2.577v.964c0 .446.36.807.807.807h25.806v-1.613h-25v-1.613a.807.807 0 0 0-1.234-.684l-6.452 4.032a.808.808 0 0 0 0 1.368l6.453 4.032a.806.806 0 0 0 1.233-.684v-1.612h26.613v-1.613h-27.42a.806.806 0 0 0-.806.806M41.936 42.742h1.612v1.613h-1.613zM45.162 42.742h1.613v1.613h-1.613zM6.451 5.645h1.613v1.612H6.451zM3.227 5.645h1.612v1.612H3.227z"/></g><defs><clipPath id="a"><path fill="#fff" d="M0 0h50v50H0z"/></clipPath></defs></svg>