<svg xmlns="http://www.w3.org/2000/svg" width="50" height="50" fill="none"><g clip-path="url(#a)"><path fill="#000" fill-rule="evenodd" d="M4.897 11.66A3.287 3.287 0 0 1 .785 8.481 3.286 3.286 0 0 1 4.07 5.197a3.286 3.286 0 0 1 2.054 5.847l.961 1.849h3.653V4.887A4.113 4.113 0 0 1 14.836.785h20.328a4.113 4.113 0 0 1 4.101 4.102v8.006h3.652l.961-1.85a3.286 3.286 0 0 1 2.054-5.847 3.286 3.286 0 0 1 3.285 3.285 3.286 3.286 0 0 1-4.112 3.18l-1.162 2.235a.69.69 0 0 1-.609.37h-4.069v9.117h3.455a3.286 3.286 0 0 1 6.497.686 3.286 3.286 0 0 1-6.497.687h-3.455v9.117h4.07c.255 0 .49.143.608.37l1.184 2.279a3.287 3.287 0 0 1 4.09 3.185 3.286 3.286 0 0 1-3.285 3.284 3.286 3.286 0 0 1-2.036-5.86l-.979-1.885h-3.652v9.869a4.113 4.113 0 0 1-4.102 4.102H14.836a4.113 4.113 0 0 1-4.1-4.102v-9.87H7.085l-.979 1.885a3.286 3.286 0 0 1-2.036 5.86 3.286 3.286 0 0 1-3.284-3.283 3.286 3.286 0 0 1 4.09-3.185l1.183-2.279a.69.69 0 0 1 .61-.37h4.069v-9.117H7.282a3.286 3.286 0 0 1-6.497-.686 3.286 3.286 0 0 1 6.497-.687h3.455v-9.117h-4.07a.69.69 0 0 1-.609-.37zm32.996 33.455V4.887a2.737 2.737 0 0 0-2.73-2.73H14.836a2.736 2.736 0 0 0-2.727 2.73v40.228c0 1.5 1.228 2.729 2.726 2.729h20.329a2.737 2.737 0 0 0 2.728-2.729M44.02 24.07a1.913 1.913 0 1 0 3.826-.002 1.913 1.913 0 0 0-3.825.002m-38.039 0a1.913 1.913 0 0 0-3.823 0 1.913 1.913 0 0 0 3.823 0m28.524 2.37c-1.393 0-2.092 1.688-1.107 2.672a1.356 1.356 0 0 1 0 1.916l-1.438 1.439a1.356 1.356 0 0 1-1.916 0c-.985-.985-2.672-.286-2.672 1.106 0 .75-.607 1.354-1.354 1.354h-2.034a1.353 1.353 0 0 1-1.354-1.354c0-1.394-1.687-2.092-2.672-1.106a1.354 1.354 0 0 1-1.915 0l-1.44-1.439a1.356 1.356 0 0 1 0-1.916c.985-.984.287-2.671-1.106-2.671a1.354 1.354 0 0 1-1.354-1.355v-2.033c0-.748.606-1.355 1.354-1.355 1.393 0 2.092-1.687 1.107-2.672a1.354 1.354 0 0 1 0-1.914l1.44-1.44a1.354 1.354 0 0 1 1.914 0c.985.985 2.672.287 2.672-1.106 0-.748.606-1.354 1.354-1.354h2.034c.747 0 1.354.606 1.354 1.354 0 1.393 1.687 2.091 2.672 1.106a1.356 1.356 0 0 1 1.916 0l1.438 1.44a1.354 1.354 0 0 1 0 1.915c-.985.984-.286 2.671 1.106 2.671.75 0 1.355.607 1.355 1.354v2.034c0 .748-.604 1.355-1.355 1.355m-18.99-3.37v1.998c2.597.015 3.897 3.157 2.072 5.002L19 31.483c1.848-1.826 4.987-.526 5.002 2.072H26c.014-2.595 3.156-3.897 5.002-2.072l1.413-1.413c-1.826-1.845-.524-4.987 2.071-5.002v-1.997c-2.595-.015-3.896-3.156-2.072-5.002l-1.412-1.413c-1.846 1.825-4.988.525-5.002-2.072h-1.998c-.015 2.596-3.156 3.897-5.001 2.072l-1.414 1.413c1.825 1.846.525 4.987-2.072 5.002m9.486 6.574a5.584 5.584 0 0 1-5.573-5.574A5.584 5.584 0 0 1 25 18.497a5.584 5.584 0 0 1 5.574 5.573 5.585 5.585 0 0 1-5.574 5.574m0-1.373a4.21 4.21 0 0 0 4.201-4.2 4.21 4.21 0 0 0-4.2-4.202A4.21 4.21 0 0 0 20.8 24.07a4.21 4.21 0 0 0 4.2 4.201m-1.857 16.207a.687.687 0 0 1 0-1.372h3.713a.687.687 0 0 1 0 1.372zM4.07 37.795a1.913 1.913 0 0 0 0 3.823 1.913 1.913 0 0 0 0-3.823M45.932 6.569a1.913 1.913 0 0 0 0 3.824 1.913 1.913 0 0 0 0-3.824m0 31.226a1.913 1.913 0 1 0 .002 3.825 1.913 1.913 0 0 0-.002-3.825M4.07 6.569a1.913 1.913 0 0 0 0 3.824 1.913 1.913 0 0 0 0-3.824" clip-rule="evenodd"/></g><defs><clipPath id="a"><path fill="#fff" d="M0 0h50v50H0z"/></clipPath></defs></svg>