<svg xmlns="http://www.w3.org/2000/svg" width="50" height="50" fill="none"><g clip-path="url(#a)"><path fill="#000" fill-rule="evenodd" d="M23.604 43.418h-2.787a.784.784 0 0 1-.78-.867 14.65 14.65 0 0 1 2.74-7.087l-.069-.662a1.98 1.98 0 0 1 1.971-2.187h.83a14.7 14.7 0 0 1 5.262-2.678 7.84 7.84 0 0 1-3.928-6.786c0-4.312 3.516-7.828 7.831-7.828 4.312 0 7.829 3.516 7.829 7.828a7.84 7.84 0 0 1-3.928 6.786 14.7 14.7 0 0 1 5.263 2.678h.829a1.98 1.98 0 0 1 1.971 2.186l-.069.663a14.65 14.65 0 0 1 2.74 7.087.785.785 0 0 1-.78.867h-2.785l-.084.808h1.918c.433 0 .785.35.785.784v3.519a.784.784 0 0 1-.785.784h-25.81a.784.784 0 0 1-.785-.784V45.01c0-.433.351-.784.785-.784h1.92zm-.564-5.423a13 13 0 0 0-1.32 3.855h1.72zm5.283-5.38h12.701a13.1 13.1 0 0 0-6.35-1.633c-2.303 0-4.469.593-6.351 1.633m17.984 5.38-.4 3.855h1.72a13 13 0 0 0-1.32-3.854m-2.224 6.23.995-9.586a.413.413 0 0 0-.411-.455H24.679a.413.413 0 0 0-.41.456l.996 9.586zm-9.409-14.811c3.449 0 6.26-2.814 6.26-6.263s-2.812-6.26-6.26-6.26c-3.45 0-6.262 2.812-6.262 6.26s2.812 6.263 6.262 6.263m-12.122 18.33h24.242v-1.95H22.552zm12.122-5.802c-1.761 0-3.114-1.224-3.114-2.588 0-1.367 1.353-2.588 3.114-2.588 1.762 0 3.112 1.221 3.112 2.588 0 1.364-1.35 2.588-3.112 2.588m0-1.569c.453 0 .866-.134 1.164-.365.22-.171.379-.394.379-.654s-.158-.484-.379-.654c-.298-.231-.711-.365-1.164-.365s-.867.134-1.166.365c-.22.17-.38.394-.38.654s.16.483.38.654c.299.23.713.365 1.166.365M13.43 29.592a.785.785 0 0 1 1.569 0v10.617h3.575a.785.785 0 0 1 0 1.568h-4.36a.784.784 0 0 1-.784-.784zm3.91-26.666c.925.255 1.813.623 2.648 1.097l1.7-.756a.78.78 0 0 1 .873.162l2.438 2.438c.23.23.294.576.162.872l-.753 1.7c.475.836.843 1.726 1.098 2.653l1.734.667a.78.78 0 0 1 .503.732v3.449c0 .324-.2.615-.503.731l-1.734.668a11.7 11.7 0 0 1-1.098 2.648l.753 1.701a.78.78 0 0 1-.162.872l-2.438 2.438a.78.78 0 0 1-.872.162l-1.7-.753c-.833.475-1.724.843-2.65 1.098l-.667 1.734a.78.78 0 0 1-.731.503H12.49a.78.78 0 0 1-.732-.503l-.667-1.734a11.7 11.7 0 0 1-2.652-1.098l-1.7.753a.78.78 0 0 1-.873-.162L3.429 22.56a.78.78 0 0 1-.162-.873l.756-1.7a11.7 11.7 0 0 1-1.1-2.648l-1.735-.668a.78.78 0 0 1-.502-.731V12.49c0-.324.2-.615.502-.732l1.735-.667c.257-.927.626-1.817 1.1-2.652l-.756-1.7a.78.78 0 0 1 .162-.873l2.438-2.438a.78.78 0 0 1 .873-.162l1.7.756a11.6 11.6 0 0 1 2.649-1.098l.67-1.737a.78.78 0 0 1 .732-.502h3.449c.324 0 .615.2.732.503zm-1.32.94-.618-1.612h-2.372l-.622 1.613a.78.78 0 0 1-.55.48c-1.044.249-2.04.661-2.954 1.225a.78.78 0 0 1-.73.049l-1.578-.702L4.92 6.595l.702 1.577a.78.78 0 0 1-.05.73 10.1 10.1 0 0 0-1.227 2.96.78.78 0 0 1-.481.549l-1.609.619v2.37l1.609.62c.24.093.42.298.48.548a10.1 10.1 0 0 0 1.228 2.956c.137.22.155.494.05.73l-.702 1.578 1.677 1.676 1.577-.698a.78.78 0 0 1 .728.048c.915.56 1.911.977 2.959 1.225.252.06.458.24.55.482l.62 1.608h2.37l.62-1.608a.78.78 0 0 1 .55-.482 10 10 0 0 0 2.954-1.223.78.78 0 0 1 .73-.05l1.577.698 1.677-1.677-.698-1.577a.78.78 0 0 1 .048-.728 10.2 10.2 0 0 0 1.225-2.955.78.78 0 0 1 .482-.551l1.608-.62v-2.37l-1.608-.62a.78.78 0 0 1-.482-.55 10 10 0 0 0-1.224-2.957.78.78 0 0 1-.05-.73l.7-1.577-1.677-1.677-1.577.702a.78.78 0 0 1-.73-.05 10 10 0 0 0-2.954-1.223.78.78 0 0 1-.551-.482m-1.805 1.603a8.747 8.747 0 0 1 8.745 8.745 8.747 8.747 0 0 1-8.745 8.745 8.747 8.747 0 0 1-8.745-8.745 8.746 8.746 0 0 1 8.745-8.745m0 1.568a7.178 7.178 0 0 0 0 14.353 7.178 7.178 0 0 0 0-14.353m-.785 2.448a.785.785 0 0 1 1.569 0v4.276l3.032 1.752a.785.785 0 0 1-.785 1.358l-3.424-1.978a.78.78 0 0 1-.392-.68z" clip-rule="evenodd"/></g><defs><clipPath id="a"><path fill="#fff" d="M0 0h50v50H0z"/></clipPath></defs></svg>