<svg xmlns="http://www.w3.org/2000/svg" width="60" height="60" fill="none"><path fill="#282928" d="M51.518 8.07h-6.552a.751.751 0 0 0 0 1.504h6.552a.751.751 0 0 0 0-1.504M41.243 9.574h.799a.751.751 0 0 0 0-1.504h-.799a.751.751 0 0 0 0 1.504M41.243 13.107h10.273a.751.751 0 0 0 0-1.503H41.243a.751.751 0 0 0 0 1.503M43.963 48.855c0-3.003-1.001-5.949-2.825-8.33l.139-2.566a3.056 3.056 0 0 0-3.052-3.225h-8.22a1.44 1.44 0 0 1-.607-1.172v-2.099c1.275-.825 2.17-1.766 2.827-2.886h1.453a3.054 3.054 0 0 0 3.049-3.052V19.91c0-.947-.547-1.784-1.366-2.18v-3.94a3.255 3.255 0 0 0-3.25-3.254h-.083a.093.093 0 0 1-.093-.093 3.255 3.255 0 0 0-3.25-3.254h-7.952c-3.948 0-7.16 3.216-7.16 7.168v3.373a2.42 2.42 0 0 0-1.365 2.18v2.855a2.424 2.424 0 0 0 2.42 2.423h.97c.25 2.125 1.246 4.065 2.805 5.414q.55.475 1.134.852v2.108c0 .468-.23.903-.61 1.172H10.71a3.056 3.056 0 0 0-3.052 3.225l.14 2.567a13.74 13.74 0 0 0-2.826 8.33v2.831a2.37 2.37 0 0 0 1.765 3.943h35.462a2.37 2.37 0 0 0 1.764-3.943zm-1.502 0v2.054a2 2 0 0 0-.262-.015h-1.623L41 43.076a12.2 12.2 0 0 1 1.461 5.78m-7.313-29.312q.076.17.077.367v2.855a.92.92 0 0 1-.918.92h-.893V20.85l.463-.162c.572-.2 1.022-.62 1.27-1.146m-5.014 8.71H28.25a.552.552 0 0 1 0-1.102h1.884a.552.552 0 0 1 0 1.102m3.544-1.18h-.759a9 9 0 0 0 .434-1.885h.954c.325 0 .635-.064.918-.181v.518a1.55 1.55 0 0 1-1.547 1.549M15.076 14.358c0-3.123 2.537-5.664 5.657-5.664h7.952a1.75 1.75 0 0 1 1.748 1.75c0 .88.716 1.597 1.595 1.597h.084a1.75 1.75 0 0 1 1.748 1.75v4.807a.71.71 0 0 1-.477.672l-1.578.55a.097.097 0 0 1-.13-.092l.003-2.987c.01-2.18-2.03-4.082-4.887-3.163-1.437.462-3.215.46-4.647 0-2.827-.91-4.896.958-4.887 3.16l.003 2.99a.097.097 0 0 1-.129.093l-1.578-.55a.71.71 0 0 1-.478-.673zm-1.366 8.409V19.91q.002-.196.077-.367c.249.526.7.947 1.272 1.146l.463.162v2.834h-.893a.92.92 0 0 1-.919-.92m3.327 1.554c-.025-.988-.01-2.038-.014-2.998q.07.006.14.006a1.6 1.6 0 0 0 1.6-1.603l-.004-2.992c-.006-1.22 1.088-2.316 2.925-1.725 1.742.56 3.831.559 5.567 0 1.75-.563 2.93.428 2.925 1.728l-.002 2.99a1.6 1.6 0 0 0 1.738 1.596v3.059a7.4 7.4 0 0 1-.31 1.887 2.04 2.04 0 0 0-1.468-.621H28.25a2.056 2.056 0 0 0 0 4.11h.954c-1.387 1.084-2.964 1.65-4.697 1.678-3.791-.03-7.362-2.834-7.47-7.115m4.002 9.242v-1.315a9.1 9.1 0 0 0 3.466.692h.017a9.2 9.2 0 0 0 3.375-.686v1.31c0 .41.086.807.244 1.17h-7.347a2.9 2.9 0 0 0 .245-1.17M7.936 43.076l.118 2.187a.751.751 0 1 0 1.5-.081l-.396-7.304a1.554 1.554 0 0 1 1.552-1.64h27.516c.889 0 1.6.744 1.552 1.64l-.706 13.016H27.297a4.6 4.6 0 0 1 1.125-2.328l.021-.025c2.273-2.545 1.593-6.527-1.345-8.198-.754-.429-1.712.106-1.712.995v3.411a.284.284 0 0 1-.283.284h-1.271a.284.284 0 0 1-.283-.284v-3.411c0-.887-.956-1.425-1.712-.995-2.946 1.676-3.613 5.659-1.343 8.201l.02.022a4.6 4.6 0 0 1 1.124 2.328H9.863l-.12-2.223a.75.75 0 1 0-1.5.081l.116 2.142H6.737q-.135 0-.263.015v-2.054c0-2.02.511-4.012 1.462-5.78m15.22 7.818a6.1 6.1 0 0 0-1.526-3.334l-.018-.02a3.84 3.84 0 0 1 .435-5.524v2.733c0 .985.8 1.787 1.785 1.787h1.271c.984 0 1.785-.802 1.785-1.787v-2.733a3.84 3.84 0 0 1 .434 5.525l-.017.019a6.1 6.1 0 0 0-1.525 3.334zm19.043 3.233H6.736a.865.865 0 0 1 0-1.73h35.462a.865.865 0 0 1 0 1.73"/><path fill="#282928" d="M54.885 9.514c.414 0 .75-.336.75-.752V7.307a2.94 2.94 0 0 0-2.934-2.938H40.07a2.94 2.94 0 0 0-2.934 2.938v6.324a2.94 2.94 0 0 0 2.935 2.939c.289 0 .524.235.524.525v3.91c0 .565.365 1.046.909 1.197a1.23 1.23 0 0 0 1.394-.558l2.886-4.82a.53.53 0 0 1 .45-.255h6.466a2.94 2.94 0 0 0 2.935-2.938v-1.354a.751.751 0 1 0-1.502 0v1.354c0 .791-.643 1.435-1.433 1.435h-6.466c-.708 0-1.373.377-1.738.985l-2.4 4.007v-2.963a2.03 2.03 0 0 0-2.026-2.03c-.79 0-1.433-.643-1.433-1.434V7.307c0-.79.643-1.434 1.433-1.434h12.63c.79 0 1.433.643 1.433 1.434v1.455c0 .416.336.752.75.752"/></svg>