<svg xmlns="http://www.w3.org/2000/svg" width="38" height="27" fill="none"><g clip-path="url(#a)"><mask id="b" width="38" height="27" x="0" y="0" maskUnits="userSpaceOnUse" style="mask-type:luminance"><path fill="#fff" d="M37.71 0H.5v26.665h37.21z"/></mask><g mask="url(#b)"><path fill="#000" d="M4.936 15.85a.65.65 0 0 0-.32.852l1.464 3.141a.65.65 0 0 0 .858.32l11.055-5.165-1 10.47a.65.65 0 0 0 .214.546c.484.401 1.088.63 1.717.65q.26 0 .514-.065a3.3 3.3 0 0 0 2.064-2.399l4.35-12.882 8.62-4.019c2.536-1.183 3.843-3.583 2.965-5.456A3.3 3.3 0 0 0 34.895.067a6.03 6.03 0 0 0-3.55.547l-9.943 4.662-10.691-4.18a3.3 3.3 0 0 0-3.16.045 2.65 2.65 0 0 0-.97 2.1.65.65 0 0 0 .28.514l7.2 4.95-4.124 1.95-6.913-1.757a.65.65 0 0 0-.722.312l-1.723 3.1a.65.65 0 0 0 .338.917l5.118 2.114zM7.914 2.916c.038-.273.177-.523.39-.7.37-.267 1.047-.228 1.95.11l9.52 3.713-4.342 2.027zm-5.852 9.39 1.13-2.009 6.653 1.652a.65.65 0 0 0 .429-.039l21.628-10.1a4.75 4.75 0 0 1 2.777-.442 2.04 2.04 0 0 1 1.587 1.027c.546 1.171-.527 2.881-2.341 3.726l-7.497 3.513.455-1.346a.661.661 0 0 0-1.255-.416l-5.352 15.924c-.32.9-.715 1.444-1.158 1.561a1.1 1.1 0 0 1-.793-.149l1.3-13.656a.653.653 0 0 0-1.3-.123l-.2 2.087-11.16 5.2-.915-1.95 1.833-.859a.65.65 0 0 0 0-1.19z"/></g></g><defs><clipPath id="a"><path fill="#fff" d="M0 0h38v27H0z"/></clipPath></defs></svg>