<svg xmlns="http://www.w3.org/2000/svg" width="60" height="60" fill="none"><path fill="#282928" d="M50.426 11.31a1.93 1.93 0 1 0 0-3.86 1.93 1.93 0 1 0 0 3.86m0-2.484a.563.563 0 1 1-.002 1.126.563.563 0 0 1 .002-1.126"/><path fill="#282928" d="M52.569 4.328H12.885a2.743 2.743 0 0 0-2.736 2.737v4.178h-2.72A2.743 2.743 0 0 0 4.69 13.98v34.316a2.743 2.743 0 0 0 2.737 2.736h18.188v3.96c0 .374.31.683.684.683h12.854c.374 0 .684-.31.684-.684v-3.959h7.273a2.743 2.743 0 0 0 2.737-2.736v-4.179h2.72a2.743 2.743 0 0 0 2.738-2.736V7.064a2.743 2.743 0 0 0-2.737-2.737ZM11.517 7.065c0-.758.62-1.368 1.368-1.368H52.57c.757 0 1.368.619 1.368 1.368v6.003H27.97l-3.054-3.169a1.25 1.25 0 0 0-.896-.382h-6.728c-.684 0-1.246.562-1.246 1.246v2.305h-4.529zM7.428 49.672a1.37 1.37 0 0 1-1.368-1.368V13.98c0-.757.619-1.368 1.368-1.368h2.72v28.777a2.743 2.743 0 0 0 2.737 2.736h14.857c.269.522.391 1.108.342 1.71h-1.058a1.41 1.41 0 0 0-1.41 1.41v2.427zm24.623-14.327a.78.78 0 0 1 .676-.4c.424 0 .766.343.766.767a.77.77 0 0 1-.383.667c-.26.155-.57.139-.888-.04a.23.23 0 0 1-.098-.098c-.26-.416-.154-.741-.073-.896m-.008-1.637c-.497.17-.92.505-1.181.977-.391.7-.342 1.556.114 2.289.146.228.342.415.578.554.375.212.782.326 1.181.326a2.14 2.14 0 0 0 1.067-.285 2.15 2.15 0 0 0 1.06-1.85 2.13 2.13 0 0 0-1.45-2.011v-3.519l6.051 10.923c-.008.008-.016.024-.04.032-2.143.554-3.544 2.558-3.43 4.692H29.47c.122-2.142-1.287-4.146-3.47-4.757l6.044-10.89zm6.426 20.599H26.985l.04-7.11H38.43c.024 0 .04.015.04.04zm10.01-6.011a1.37 1.37 0 0 1-1.367 1.368h-7.274v-2.427a1.41 1.41 0 0 0-1.41-1.41H37.37a3.24 3.24 0 0 1 .342-1.71H48.48zm4.09-5.539h-13.53c.22-.122.457-.228.717-.293.432-.114.782-.416.962-.823.17-.399.146-.847-.066-1.23l-7.005-12.617a1.04 1.04 0 0 0-.912-.545 1.07 1.07 0 0 0-.928.537l-7.013 12.625a1.4 1.4 0 0 0-.057 1.238c.17.408.521.7.953.815.26.065.488.17.716.293h-13.52a1.37 1.37 0 0 1-1.369-1.368V14.436h4.643c.684 0 1.246-.562 1.246-1.246v-2.305h6.557l3.054 3.168c.236.245.562.383.896.383h26.024V41.38c0 .758-.61 1.377-1.368 1.377"/><path fill="#282928" d="M45.766 11.31a1.93 1.93 0 0 0 1.93-1.93 1.93 1.93 0 1 0-1.93 1.93m0-2.484a.563.563 0 1 1-.002 1.126.563.563 0 0 1 .002-1.126m-4.668 2.484a1.93 1.93 0 1 0 0-3.86 1.93 1.93 0 1 0 0 3.86m0-2.484a.563.563 0 1 1-.002 1.126.563.563 0 0 1 .002-1.126m4.816 11.573c-.4.399-.652.904-.75 1.441h-9.57v-1.075c0-.733-.595-1.328-1.328-1.328h-3.087c-.733 0-1.328.595-1.328 1.328v1.075H20.29a2.7 2.7 0 0 0-.75-1.45c-1.034-1.018-2.801-1.001-3.811.009a2.67 2.67 0 0 0-.79 1.906c0 .724.285 1.409.79 1.906a2.63 2.63 0 0 0 1.906.798c.447 0 .904-.106 1.335-.326a2.4 2.4 0 0 0 1.075-1.108 3 3 0 0 0 .147-.366h6.639c-3.609 1.76-6.33 5.066-7.274 9.057h-1.06c-.732 0-1.327.595-1.327 1.328v3.087c0 .733.595 1.328 1.328 1.328h3.087c.733 0 1.328-.595 1.328-1.328v-3.087c0-.733-.595-1.328-1.328-1.328h-.62a12.22 12.22 0 0 1 8.912-8.715v.293c0 .733.594 1.328 1.327 1.328h3.087c.733 0 1.328-.595 1.328-1.328v-.293c4.317 1.042 7.762 4.415 8.91 8.715h-.561c-.733 0-1.328.595-1.328 1.328v3.087c0 .733.595 1.328 1.328 1.328h3.087c.733 0 1.328-.595 1.328-1.328v-3.087c0-.733-.595-1.328-1.328-1.328h-1.116a13.63 13.63 0 0 0-7.274-9.057h6.655c.13.374.342.716.627 1.002a2.63 2.63 0 0 0 1.906.798c.448 0 .904-.106 1.336-.326a2.4 2.4 0 0 0 1.075-1.108c.53-1.116.342-2.33-.497-3.184-1.067-1.01-2.834-1.002-3.852.008Zm-27.116 2.598c-.097.195-.26.366-.456.464-.708.359-1.32.13-1.653-.22a1.3 1.3 0 0 1-.391-.936c0-.35.138-.685.39-.945.253-.253.587-.391.946-.391.35 0 .692.138.936.383.424.44.505 1.05.228 1.645m2.77 13.643-3.047.04-.04-3.045h3.046l.04 3.005Zm25.461 0-3.046.04-.04-3.045h3.046zM31.228 23.852l-.016-1.026a.7.7 0 0 0 .008-.228v-.008c0-.025.016-.041.016-.066 0-.04-.016-.073-.024-.105l-.025-1.605h3.046l.025 1.605c-.008.04-.025.073-.025.114 0 .024.009.04.017.065v.008a.7.7 0 0 0 .016.293l.016.92zm17.764-.855c-.097.195-.26.366-.456.464-.708.359-1.32.13-1.653-.22a1.3 1.3 0 0 1-.391-.936c0-.35.138-.685.39-.945.253-.253.587-.391.946-.391.35 0 .692.138.936.383.424.44.505 1.05.228 1.645"/></svg>