<svg xmlns="http://www.w3.org/2000/svg" width="60" height="60" fill="none"><path fill="#282928" d="M57.568 36.082h-4.75v-6.14c0-.694-.463-1.157-1.158-1.157H31.158v-4.981h4.75c1.39 0 2.432-1.042 2.432-2.432v-11.7c0-1.39-1.043-2.432-2.433-2.432H24.093c-1.39 0-2.433 1.043-2.433 2.433v11.814c0 1.39 1.043 2.433 2.433 2.433h4.749v4.865H8.34c-.695 0-1.159.463-1.159 1.158v6.139H2.432C1.042 36.082 0 37.124 0 38.514V50.33c0 1.39 1.042 2.432 2.432 2.432h11.815c1.39 0 2.433-1.042 2.433-2.432V38.514c0-1.39-1.043-2.432-2.433-2.432H9.498v-4.98h19.344v4.98h-4.75c-1.39 0-2.432 1.042-2.432 2.432V50.33c0 1.39 1.043 2.432 2.433 2.432h11.814c1.39 0 2.433-1.042 2.433-2.432V38.514c0-1.39-1.043-2.432-2.433-2.432h-4.749v-4.98h19.344v4.98h-4.75c-1.39 0-2.431 1.042-2.431 2.432V50.33c0 1.39 1.042 2.432 2.432 2.432h11.815c1.39 0 2.432-1.042 2.432-2.432V38.514c0-1.39-1.158-2.432-2.432-2.432m-43.205 2.432c-.116-.116 0-.116 0 0V50.33c0 .116 0 .116-.116.116H2.432c-.115 0-.115 0-.115-.116V38.514c0-.116 0-.116.115-.116zm21.66 0c-.116-.116 0-.116 0 0V50.33c0 .116 0 .116-.116.116H24.093c-.116 0-.116 0-.116-.116V38.514c0-.116 0-.116.116-.116zM23.977 21.371c0 .116.116.116 0 0V9.674c0-.116 0-.116.116-.116h11.814c.116 0 .116 0 .116.116v11.814c0 .116 0 .116-.116.116l-11.93-.232Zm33.706 28.842c-.115.116 0 .116 0 0l-11.93.116c-.116 0-.116 0-.116-.116V38.514c0-.116 0-.116.116-.116h11.815c.115 0 .115 0 .115.116z"/></svg>