<svg xmlns="http://www.w3.org/2000/svg" width="60" height="60" fill="none"><path fill="#282928" d="M56.046 25.886c-.474-1.332-1.973-5.052-5.084-8.808-2.24-2.705-4.852-4.861-7.765-6.41-2.357-1.253-4.913-2.104-7.635-2.55a4.625 4.625 0 0 0-4.597-4.167 4.625 4.625 0 0 0-4.596 4.165 24.8 24.8 0 0 0-7.086 2.269c-2.848 1.421-5.425 3.416-7.658 5.928-.704.79.522 1.882 1.226 1.09 3.906-4.393 8.746-6.995 14.423-7.767h.013c5.113-.7 10.522.035 15.107 2.463 2.72 1.44 5.164 3.451 7.266 5.978a29.4 29.4 0 0 1 4.6 7.734H7.67a29.4 29.4 0 0 1 3.193-5.89c.604-.861-.732-1.813-1.343-.94-2.142 3.055-3.241 5.802-3.634 6.905A2.574 2.574 0 0 0 3.93 28.38a2.57 2.57 0 0 0 2.57 2.57h12.387l-7.17 9.224H2.82a.82.82 0 0 0-.82.82v14.232c0 .239.109.458.279.61a.81.81 0 0 0 .638.205l9.298-1.1a.82.82 0 0 0 .724-.814V51.08l19.477-4.811a3 3 0 0 0 1.608-.857l9.935-10.957a3.025 3.025 0 0 0 .543-3.505H55.43A2.57 2.57 0 0 0 58 28.38a2.574 2.574 0 0 0-1.954-2.494M33.596 7.869a29.6 29.6 0 0 0-5.171-.008q-.18.014-.36.03a2.98 2.98 0 0 1 2.9-2.3c1.409 0 2.593.984 2.9 2.3zM11.299 53.398l-7.657.905V41.815h7.657zm31.49-20.091-.03.03-9.933 10.955a1.37 1.37 0 0 1-.72.366l-.057.012-19.11 4.72v-8.114l7.735-9.95c.45-.579 1.454-.436 1.918.024.476.473.544 1.215.16 1.765-.076.109-4.291 6.586-4.296 6.594-.35.539.054 1.264.69 1.264H30.81a.82.82 0 0 0 .578-.238l9.457-9.385a1.39 1.39 0 0 1 1.95.007 1.38 1.38 0 0 1-.008 1.95ZM24.303 30.95h4.768l-8.384 8.32s3.331-5.105 3.41-5.217a3.01 3.01 0 0 0 .206-3.103m1.244 8.383h-2.594l8.044-7.983c.26-.258.605-.4.971-.4a1.39 1.39 0 0 1 1.241.78zM35.92 31.35c.26-.258.605-.4.971-.4.525 0 1.015.307 1.241.78l-7.661 7.603h-2.595zm19.51-2.041H6.498a.93.93 0 0 1 0-1.858H55.43a.93.93 0 0 1 0 1.858"/></svg>