<svg xmlns="http://www.w3.org/2000/svg" width="36.687" height="34.219"><path d="m14.001 13.739-.325 2.675a.61.61 0 0 0 .607.685h8.123a.61.61 0 0 0 .607-.685l-.324-2.65a4.38 4.38 0 0 0-2.454-3.555c.072-.065.147-.119.215-.192a7.36 7.36 0 0 0 1.623-4.541 5.04 5.04 0 0 0 .888-3.777c-.088-.618-.321-1.407-.926-1.657a1.2 1.2 0 0 0-1.222.375 2.25 2.25 0 0 1-2.306.532c-1.451-.4-4-.342-4.678 1.52a2.93 2.93 0 0 0 .784 3.048 7.36 7.36 0 0 0 1.623 4.5c.068.073.144.127.215.192A4.36 4.36 0 0 0 14 13.742Zm.979-10.853c.352-.973 2.085-1.065 3.2-.757a3.44 3.44 0 0 0 3.4-.757l.044-.035a3.8 3.8 0 0 1 .164 1.433 2.85 2.85 0 0 1-.708 1.987c-1.765 1.412-3.53-.565-3.6-.649a.61.61 0 0 0-.463-.212 1 1 0 0 0-.074 0 .61.61 0 0 0-.471.33 1 1 0 0 1-.547.568.45.45 0 0 1-.346-.065 1.72 1.72 0 0 1-.6-1.847Zm2.15 6.292a5.96 5.96 0 0 1-1.26-3.148 1.6 1.6 0 0 0 .349-.047 1.83 1.83 0 0 0 .886-.539 4.26 4.26 0 0 0 2.631 1.051 3.1 3.1 0 0 0 1.043-.18 5.77 5.77 0 0 1-1.22 2.862 1.68 1.68 0 0 1-1.182.589h-.032l-.032-.002a1.68 1.68 0 0 1-1.182-.589Zm1.215 1.809a3.16 3.16 0 0 1 3.129 2.9l.242 1.991h-6.744l.241-2.014a3.155 3.155 0 0 1 3.131-2.877ZM6.382 21.455a6.382 6.382 0 1 0 6.382 6.382 6.38 6.38 0 0 0-6.382-6.382m0 11.541a5.159 5.159 0 1 1 5.159-5.159 5.16 5.16 0 0 1-5.159 5.159M30.305 21.455a6.382 6.382 0 1 0 6.382 6.382 6.38 6.38 0 0 0-6.382-6.382m0 11.541a5.159 5.159 0 1 1 5.159-5.159 5.16 5.16 0 0 1-5.159 5.159"/><path d="M6.382 25.918a.655.655 0 0 1 .654.654.612.612 0 1 0 1.223 0 1.87 1.87 0 0 0-1.266-1.766v-.452a.612.612 0 0 0-1.223 0v.452a1.872 1.872 0 0 0 .611 3.643.654.654 0 1 1-.654.654.612.612 0 1 0-1.223 0 1.87 1.87 0 0 0 1.266 1.766v.452a.612.612 0 0 0 1.223 0v-.452a1.872 1.872 0 0 0-.611-3.643.654.654 0 0 1 0-1.309ZM32.526 25.762l-3.017 3.016-1.336-1.371a.612.612 0 1 0-.875.855l1.766 1.814a.61.61 0 0 0 .434.184.6.6 0 0 0 .432-.179l3.454-3.454a.612.612 0 1 0-.865-.865ZM22.191 29.86a11.1 11.1 0 0 1-7.695 0 .611.611 0 1 0-.428 1.145 12.27 12.27 0 0 0 8.55 0 .611.611 0 1 0-.428-1.145ZM6.726 20.161a.61.61 0 0 0 .611-.611 11.03 11.03 0 0 1 4.65-8.986.612.612 0 1 0-.707-1 12.26 12.26 0 0 0-5.165 9.981.61.61 0 0 0 .611.611ZM29.35 19.545a.612.612 0 1 0 1.223 0 12.26 12.26 0 0 0-5.166-9.984.612.612 0 1 0-.707 1 11.03 11.03 0 0 1 4.65 8.986Z"/></svg>