<svg xmlns="http://www.w3.org/2000/svg" width="35.958" height="34.219"><path d="M17.269 24.551a3.612 3.612 0 1 0-3.611-3.612 3.616 3.616 0 0 0 3.611 3.612m0-6.2a2.592 2.592 0 1 1-2.592 2.592 2.6 2.6 0 0 1 2.592-2.596Zm-5.655 6.4a.93.93 0 0 0 .273.66l.913.913a.934.934 0 0 0 1.32 0 .919.919 0 0 1 1.569.65.935.935 0 0 0 .934.934h1.291a.935.935 0 0 0 .934-.934.92.92 0 0 1 1.569-.65.933.933 0 0 0 1.32 0l.913-.913a.934.934 0 0 0 0-1.32.92.92 0 0 1 .65-1.569.935.935 0 0 0 .934-.934v-1.294a.935.935 0 0 0-.934-.934.92.92 0 0 1-.65-1.569.934.934 0 0 0 0-1.32l-.913-.913a.935.935 0 0 0-1.32 0 .92.92 0 0 1-1.569-.65.935.935 0 0 0-.934-.934h-1.29a.935.935 0 0 0-.934.934.92.92 0 0 1-1.569.65.935.935 0 0 0-1.32 0l-.913.913a.934.934 0 0 0 0 1.32.92.92 0 0 1-.65 1.569.935.935 0 0 0-.934.934v1.291a.935.935 0 0 0 .934.934.92.92 0 0 1 .65 1.569.93.93 0 0 0-.273.66Zm-.291-3.247v-1.126a1.939 1.939 0 0 0 1.344-3.246l.795-.795a1.939 1.939 0 0 0 3.245-1.344h1.124a1.939 1.939 0 0 0 3.245 1.344l.795.795a1.939 1.939 0 0 0 1.344 3.246v1.124a1.939 1.939 0 0 0-1.344 3.246l-.795.795a1.939 1.939 0 0 0-3.245 1.344h-1.123a1.939 1.939 0 0 0-3.246-1.344l-.795-.795a1.939 1.939 0 0 0-1.344-3.246ZM35.808 32.15l-1.92 1.92a.51.51 0 0 1-.721-.721l1.051-1.051h-9.324a.51.51 0 0 1 0-1.019h9.324l-1.051-1.051a.51.51 0 0 1 .721-.721l1.921 1.921a.51.51 0 0 1 0 .721Zm-18.539.149H.51a.51.51 0 0 1 0-1.019h16.76a10.35 10.35 0 0 0 10.336-10.067l-1.047 1.047a.51.51 0 1 1-.721-.721l1.711-1.711a10.34 10.34 0 0 0-20.617.838l1.047-1.047a.51.51 0 0 1 .721.721l-1.712 1.712a10.26 10.26 0 0 0 4.048 7.14.51.51 0 1 1-.615.813 11.5 11.5 0 0 1-3.283-3.921 11.2 11.2 0 0 1-1.162-3.905L4.139 20.34a.51.51 0 0 1 .721-.721l1.054 1.054a11.36 11.36 0 0 1 14-10.781 6.361 6.361 0 1 1 11.5-4.893l.775-1.11a.51.51 0 1 1 .835.584L31.473 6.7a.51.51 0 0 1-.709.126l-2.227-1.555a.51.51 0 1 1 .584-.835l1.331.93a5.34 5.34 0 1 0-8.506 5.224 11.39 11.39 0 0 1 6.615 9.112L30.4 21.54a.51.51 0 1 1-.721.721l-1.054-1.054a11.37 11.37 0 0 1-11.356 11.092"/></svg>