<svg xmlns="http://www.w3.org/2000/svg" width="36.193" height="35"><path fill-rule="evenodd" d="M36.193 15.882a6.45 6.45 0 0 0-4.376-6.091 9.026 9.026 0 0 0-11.613-7.242A9.926 9.926 0 0 0 3.632 9.927v.166a6.423 6.423 0 0 0 .222 11.674v11.5a1.73 1.73 0 0 0 1.725 1.727h25.325a1.73 1.73 0 0 0 1.727-1.727v-11.64a6.43 6.43 0 0 0 3.562-5.745m-4.724 1.375H5.022v-2.623a.56.56 0 0 1 .558-.558h25.324a.56.56 0 0 1 .561.558Zm-.565 16.576H5.581a.56.56 0 0 1-.558-.56V18.427h26.446v14.846a.56.56 0 0 1-.565.56m1.727-13.548v-5.651a1.73 1.73 0 0 0-1.727-1.725H5.581a1.727 1.727 0 0 0-1.725 1.725v5.831a5.257 5.257 0 0 1 .6-9.46.58.58 0 0 0 .361-.574 9 9 0 0 1-.014-.5 8.76 8.76 0 0 1 14.851-6.3.58.58 0 0 0 .6.13 7.858 7.858 0 0 1 10.45 6.541.58.58 0 0 0 .427.5 5.256 5.256 0 0 1 1.5 9.483M14.142 4.114a.583.583 0 0 1-.583.583 5.236 5.236 0 0 0-5.229 5.23.584.584 0 1 1-1.167 0 6.4 6.4 0 0 1 6.4-6.4.583.583 0 0 1 .579.587m-5.37 11.552a.668.668 0 1 1-.668-.668.67.67 0 0 1 .668.668m2.565 0a.668.668 0 1 1-.668-.668.67.67 0 0 1 .668.668m2.565 0a.668.668 0 1 1-.668-.668.67.67 0 0 1 .67.668Zm11.451 6.71h-3.355v-2.608a.583.583 0 0 0-.583-.583h-6.338a.583.583 0 0 0-.583.583v2.608h-3.356a.583.583 0 0 0-.583.583v6.338a.583.583 0 0 0 .583.583h3.355v2.607a.583.583 0 0 0 .583.583h6.338a.583.583 0 0 0 .583-.583v-2.606h3.355a.583.583 0 0 0 .583-.583V22.96a.583.583 0 0 0-.582-.584m-13.631 6.338v-5.171h6.524a.584.584 0 0 0 0-1.167H15.66v-2.025h5.171v5.194h-5.754a.583.583 0 0 0-.583.583v2.586zm13.048 0h-6.524a.584.584 0 1 0 0 1.167h2.586v2.023H15.66v-5.192h5.754a.583.583 0 0 0 .583-.583v-2.586h2.772Zm-7.076-7.351a.657.657 0 1 1-.658-.656.66.66 0 0 1 .657.656Zm1.1 9.529a.657.657 0 1 1 .656.656.66.66 0 0 1-.652-.656Z"/></svg>