<svg xmlns="http://www.w3.org/2000/svg" width="44.378" height="40.476"><path d="M22.188 31.766A26.35 26.35 0 0 1 3.5 24.023L.2 20.73a.7.7 0 0 1 0-.982l3.294-3.294a26.413 26.413 0 0 1 37.385 0l3.294 3.294a.69.69 0 0 1 0 .979l-3.294 3.294a26.37 26.37 0 0 1-18.692 7.746ZM1.673 20.238l2.8 2.8a25.047 25.047 0 0 0 35.423 0l2.8-2.8-2.8-2.8a25.075 25.075 0 0 0-35.42 0Z"/><path d="M22.188 28.289a8.049 8.049 0 1 1 5.691-2.358 8 8 0 0 1-5.691 2.358m0-14.711a6.662 6.662 0 1 0 6.662 6.662 6.67 6.67 0 0 0-6.662-6.664Z"/><path d="M22.188 24.444a4.207 4.207 0 1 1 4.207-4.207 4.21 4.21 0 0 1-4.207 4.207m0-7.026a2.82 2.82 0 1 0 2.82 2.82 2.824 2.824 0 0 0-2.82-2.82M22.173 10.094a.69.69 0 0 1-.693-.693V5.795a.694.694 0 1 1 1.387 0v3.607a.694.694 0 0 1-.694.692"/><path d="M22.173 6.489a2.074 2.074 0 1 1 2.074-2.074 2.076 2.076 0 0 1-2.074 2.074m0-2.762a.688.688 0 1 0 .688.688.69.69 0 0 0-.688-.688M13.425 4.149a2.074 2.074 0 1 1 2.074-2.074 2.076 2.076 0 0 1-2.074 2.074m0-2.762a.688.688 0 1 0 .688.688.69.69 0 0 0-.688-.688"/><path d="M15.942 10.859a.69.69 0 0 1-.693-.693V8.097l-2.181-1.326a.69.69 0 0 1-.332-.592v-2.73a.694.694 0 0 1 1.387 0v2.34l2.181 1.326a.69.69 0 0 1 .332.592v2.459a.694.694 0 0 1-.694.693M30.921 4.149a2.074 2.074 0 1 1 2.074-2.074 2.076 2.076 0 0 1-2.074 2.074m0-2.762a.688.688 0 1 0 .688.688.69.69 0 0 0-.688-.688"/><path d="M28.405 10.862a.69.69 0 0 1-.693-.693V7.716a.7.7 0 0 1 .332-.592l2.181-1.326V3.461a.694.694 0 0 1 1.387 0v2.727a.69.69 0 0 1-.332.592l-2.181 1.326v2.056a.693.693 0 0 1-.694.7M22.173 35.373a.69.69 0 0 1-.693-.693v-3.605a.694.694 0 1 1 1.387 0v3.605a.69.69 0 0 1-.694.693"/><path d="M22.173 38.136a2.074 2.074 0 1 1 2.074-2.074 2.076 2.076 0 0 1-2.074 2.074m0-2.762a.688.688 0 1 0 .688.688.69.69 0 0 0-.688-.688M30.922 40.477a2.074 2.074 0 1 1 2.074-2.074 2.076 2.076 0 0 1-2.074 2.074m0-2.762a.688.688 0 1 0 .688.688.69.69 0 0 0-.688-.688"/><path d="M30.922 37.719a.69.69 0 0 1-.693-.693v-2.337l-2.181-1.326a.69.69 0 0 1-.332-.592v-2.453a.694.694 0 0 1 1.387 0v2.063l2.181 1.326a.69.69 0 0 1 .332.592v2.727a.694.694 0 0 1-.694.693M13.425 40.476a2.074 2.074 0 1 1 2.074-2.074 2.076 2.076 0 0 1-2.074 2.074m0-2.762a.688.688 0 1 0 .688.688.69.69 0 0 0-.688-.688"/><path d="M13.425 37.713a.69.69 0 0 1-.693-.693v-2.727a.69.69 0 0 1 .332-.592l2.181-1.326v-2.069a.694.694 0 0 1 1.387 0v2.459a.7.7 0 0 1-.332.592l-2.181 1.326v2.337a.69.69 0 0 1-.694.693"/></svg>