<svg xmlns="http://www.w3.org/2000/svg" width="31.246" height="25.199"><path d="M30.742 17.135h-2.52V1.512A1.51 1.51 0 0 0 26.71 0H4.536a1.51 1.51 0 0 0-1.512 1.512v15.623H.5a.504.504 0 0 0 0 1.008h30.242a.504.504 0 1 0 0-1.008m-3.528 0H4.032V1.512a.5.5 0 0 1 .5-.5H26.71a.5.5 0 0 1 .5.5ZM25.703 20.159H8.537l-.126.025h-.05L4.329 22.2a.5.5 0 0 0 0 .9l4.032 2.016a.5.5 0 0 0 .207.086h17.135a1.51 1.51 0 0 0 1.512-1.512v-2.019a1.51 1.51 0 0 0-1.512-1.512M6.552 23.122l-.887-.443.887-.443Zm2.52.358-.6.6-.907-.454v-1.895l.907-.454.6.6Zm14.615-1.305h-2.52a.504.504 0 0 0 0 1.008h2.52v1.008h-13.9l.151-.146a.5.5 0 0 0 .146-.358v-.5h6.048a.504.504 0 0 0 0-1.008h-6.053v-.5a.5.5 0 0 0-.146-.358l-.151-.146h13.9Zm2.52 1.512a.5.5 0 0 1-.5.5h-1.012v-3.02h1.008a.5.5 0 0 1 .5.5Z"/><path d="M18.139 23.183h1.008a.504.504 0 0 0 0-1.008h-1.008a.504.504 0 1 0 0 1.008M15.624 2.016a7.056 7.056 0 1 0 7.056 7.056 7.056 7.056 0 0 0-7.056-7.056m0 13.1a6.05 6.05 0 0 1-3.956-1.473 4.032 4.032 0 0 1 7.9 0 6.05 6.05 0 0 1-3.944 1.473m-1.512-7.247a1.512 1.512 0 1 1 1.512 1.512 1.51 1.51 0 0 1-1.512-1.509Zm6.274 4.914a5.04 5.04 0 0 0-3.024-3.089 2.52 2.52 0 1 0-3.457 0 5.04 5.04 0 0 0-3.024 3.089 6.048 6.048 0 1 1 9.525 0Z"/></svg>