<svg xmlns="http://www.w3.org/2000/svg" width="33" height="35"><path d="M32.742 13.129a5.74 5.74 0 0 0-5.5-4.1h-6.669V7.308a.567.567 0 0 1 .561-.575h4.8a3.3 3.3 0 0 0 2.874-1.7l.836.383.173 1.444a.56.56 0 0 0 .55.493.3.3 0 0 0 .069-.006.56.56 0 0 0 .481-.627l-.149-1.207 1.185-.145a.564.564 0 1 0-.132-1.12l-1.591.2-1.043-.488a3.5 3.5 0 0 0 .057-.6 3.3 3.3 0 0 0-.658-2 3 3 0 0 0-.315-.377A3.26 3.26 0 0 0 25.93 0h-6.371a5.3 5.3 0 0 0-1.282.16 5.22 5.22 0 0 0-3.887 5.079v3.784H5.747A5.8 5.8 0 0 0 0 14.853v14.319A5.8 5.8 0 0 0 5.747 35h21.5A5.8 5.8 0 0 0 33 29.172V14.86a5.6 5.6 0 0 0-.258-1.73ZM27.298 1.637a1.71 1.71 0 0 1-2.307-.5h.933a2.16 2.16 0 0 1 1.374.5m-11.8 3.61a4.11 4.11 0 0 1 3.054-3.987 4 4 0 0 1 1.007-.128h4.184a2.835 2.835 0 0 0 4.224 1.416 2.2 2.2 0 0 1 .16.818 2.225 2.225 0 0 1-2.2 2.24H21.13a1.687 1.687 0 0 0-1.671 1.7V9.03h-3.958Zm16.182 8.219a4.5 4.5 0 0 1 .206 1.358H17.424a.3.3 0 0 1-.246-.139l-2.673-4.525h12.748a4.62 4.62 0 0 1 4.43 3.309ZM27.247 33.88H5.753a4.68 4.68 0 0 1-4.643-4.708V14.86a4.68 4.68 0 0 1 4.642-4.707h7.459l3.011 5.1a1 1 0 0 0 .114.168 1.4 1.4 0 0 0 1.094.539h14.471v13.212a4.69 4.69 0 0 1-4.654 4.708"/><path d="M27.973 14.018a1.663 1.663 0 1 0-1.66-1.666 1.663 1.663 0 0 0 1.66 1.666m0-2.206a.537.537 0 1 1-.534.534.537.537 0 0 1 .534-.534M24.093 14.151a1.663 1.663 0 1 0-1.66-1.666 1.663 1.663 0 0 0 1.66 1.666m0-2.2a.537.537 0 1 1-.534.534.537.537 0 0 1 .534-.534M20.16 14.29a1.663 1.663 0 1 0-1.66-1.666 1.663 1.663 0 0 0 1.66 1.666m0-2.2a.537.537 0 1 1-.534.534.53.53 0 0 1 .534-.534M4.121 14.29H11.4a.563.563 0 1 0 0-1.126H4.121a.56.56 0 0 0-.563.563.567.567 0 0 0 .563.563M10.245 16.391a.56.56 0 0 0-.563-.563H4.127a.563.563 0 1 0 0 1.126h5.555a.564.564 0 0 0 .563-.563M29.732 19.114h-5.4a.563.563 0 1 0 0 1.126h5.4a.563.563 0 0 0 0-1.126M24.328 23.502h4.127a.563.563 0 0 0 0-1.126h-4.127a.563.563 0 1 0 0 1.126M29.732 25.638h-5.4a.563.563 0 1 0 0 1.126h5.4a.563.563 0 1 0 0-1.126M28.455 28.9h-4.127a.563.563 0 1 0 0 1.126h4.127a.56.56 0 0 0 .563-.563.567.567 0 0 0-.563-.563M15.797 17.117a6.62 6.62 0 0 0-5.88 3.61 5.23 5.23 0 0 0-3.686 5v4.411a3.08 3.08 0 0 0 .917 2.211 3.132 3.132 0 0 0 5.346-2.211v-.731a6.588 6.588 0 1 0 3.3-12.288Zm0 1.126a5.45 5.45 0 0 1 4.4 2.244h-8.73c-.029 0-.052.006-.081.006a5.47 5.47 0 0 1 4.405-2.252Zm-4.423 11.9a2 2 0 0 1-3.425 1.41 1.97 1.97 0 0 1-.586-1.41v-4.412a4.116 4.116 0 0 1 3.095-3.988 4 4 0 0 1 1.021-.128h9.374a5.44 5.44 0 0 1-.133 4.475h-7.65a1.7 1.7 0 0 0-1.7 1.7Zm4.423-.975a5.44 5.44 0 0 1-3.3-1.115v-.266a.57.57 0 0 1 .569-.575h6.919a5.46 5.46 0 0 1-4.191 1.956Z"/></svg>