<svg width="60" height="60" viewBox="0 0 60 60" fill="none" xmlns="http://www.w3.org/2000/svg">
<path d="M30.0587 32.687C27.5586 32.687 25.1146 33.4284 23.0359 34.8174C20.9571 36.2063 19.3369 38.1806 18.3802 40.4903C17.4234 42.8001 17.1731 45.3418 17.6609 47.7938C18.1486 50.2459 19.3525 52.4983 21.1204 54.2661C22.8882 56.0339 25.1406 57.2378 27.5926 57.7256C30.0447 58.2133 32.5863 57.963 34.8961 57.0063C37.2059 56.0495 39.1801 54.4293 40.5691 52.3506C41.9581 50.2718 42.6994 47.8278 42.6994 45.3277C42.696 41.9763 41.3631 38.7631 38.9932 36.3932C36.6234 34.0234 33.4102 32.6905 30.0587 32.687ZM40.847 44.4244H30.9618V34.5386C33.5112 34.7548 35.9019 35.8658 37.711 37.675C39.52 39.4842 40.6308 41.875 40.8468 44.4244H40.847ZM29.1558 43.1477L23.0693 37.0612C24.7851 35.6055 26.9134 34.723 29.1558 34.5375V43.1477ZM19.224 45.3273C19.2231 42.7665 20.1335 40.2889 21.7924 38.3379L28.7817 45.3273L21.7926 52.3162C20.1336 50.3655 19.2231 47.8881 19.224 45.3273ZM30.0585 56.1618C27.4976 56.1626 25.02 55.252 23.0691 53.593L30.4322 46.2302H40.8466C40.6187 48.9358 39.3838 51.4574 37.3862 53.2964C35.3885 55.1354 32.7736 56.158 30.0584 56.1618H30.0585Z" fill="#282928"/>
<path d="M48.1163 32.8533V28.1732C48.1165 28.0546 48.0932 27.9371 48.0478 27.8275C48.0025 27.718 47.9358 27.6185 47.8518 27.5348L44.5048 24.1878V21.8526C45.8068 21.8544 47.0658 21.387 48.0512 20.536C49.0365 19.6851 49.6822 18.5076 49.87 17.2192C50.0578 15.9309 49.775 14.618 49.0735 13.5212C48.372 12.4244 47.2988 11.6171 46.0505 11.2473C45.2385 10.9982 44.3781 10.95 43.5433 11.1066C43.6787 10.0272 43.592 8.9314 43.2886 7.88664C42.4293 4.86588 39.7828 2.53193 36.7048 2.07945C34.9752 1.82634 33.2101 2.1335 31.6677 2.95597C30.1254 3.77844 28.8868 5.07303 28.1332 6.65023C27.2385 6.05801 26.2077 5.70326 25.138 5.6194C24.0682 5.53554 22.9948 5.72532 22.0186 6.17087C21.0425 6.61642 20.1958 7.30308 19.5583 8.16619C18.9209 9.0293 18.5135 10.0405 18.3747 11.1045C17.5509 10.9565 16.7039 11.0015 15.9004 11.236C15.0969 11.4705 14.3586 11.888 13.7436 12.4558C13.1286 13.0235 12.6536 13.7261 12.3558 14.5084C12.058 15.2907 11.9456 16.1313 12.0273 16.9643C12.2253 19.0373 13.6761 20.768 15.614 21.4906V24.1874L12.2667 27.5343C12.1824 27.6179 12.1155 27.7173 12.0699 27.8269C12.0243 27.9365 12.0009 28.054 12.0011 28.1727V32.8529C11.3987 33.0658 10.8909 33.4849 10.5676 34.0361C10.2443 34.5872 10.1263 35.2349 10.2343 35.8647C10.3424 36.4944 10.6696 37.0657 11.1581 37.4776C11.6466 37.8894 12.265 38.1153 12.904 38.1153C13.543 38.1153 14.1614 37.8894 14.6499 37.4776C15.1384 37.0657 15.4656 36.4944 15.5737 35.8647C15.6817 35.2349 15.5637 34.5872 15.2404 34.0361C14.9171 33.4849 14.4093 33.0658 13.8069 32.8529V28.5466L17.1538 25.1996C17.2379 25.1159 17.3045 25.0164 17.3499 24.9069C17.3953 24.7973 17.4186 24.6799 17.4184 24.5613V21.8433C17.4832 21.845 17.5475 21.8526 17.6123 21.8526H19.2241V29.2417C18.6217 29.4547 18.114 29.8738 17.7907 30.4249C17.4674 30.9761 17.3493 31.6238 17.4574 32.2535C17.5654 32.8833 17.8926 33.4546 18.3812 33.8664C18.8697 34.2783 19.4881 34.5042 20.127 34.5042C20.766 34.5042 21.3844 34.2783 21.8729 33.8664C22.3615 33.4546 22.6887 32.8833 22.7967 32.2535C22.9048 31.6238 22.7867 30.9761 22.4634 30.4249C22.1401 29.8738 21.6324 29.4547 21.0299 29.2417V21.8526H26.4472C27.6441 21.8513 28.7917 21.3753 29.6382 20.529C30.4846 19.6827 30.9608 18.5352 30.9622 17.3382V17.2099C31.8133 16.9902 32.5551 16.4676 33.0484 15.74C33.5418 15.0125 33.7529 14.13 33.6421 13.258C33.5313 12.386 33.1063 11.5843 32.4468 11.0032C31.7872 10.4221 30.9383 10.1015 30.0593 10.1015C29.1803 10.1015 28.3314 10.4221 27.6718 11.0032C27.0123 11.5843 26.5873 12.386 26.4765 13.258C26.3658 14.13 26.5768 15.0125 27.0702 15.74C27.5635 16.4676 28.3053 16.9902 29.1564 17.2099V17.3382C29.1556 18.0563 28.8699 18.7448 28.3621 19.2526C27.8543 19.7604 27.1659 20.0461 26.4477 20.0469H17.6126C15.6627 20.0469 13.9985 18.6176 13.8243 16.7929C13.7732 16.2896 13.8289 15.7812 13.9878 15.301C14.1466 14.8207 14.405 14.3794 14.7461 14.0058C15.2594 13.4496 15.9332 13.0671 16.6739 12.9114C17.4145 12.7556 18.1853 12.8344 18.8792 13.1368C19.0236 13.1953 19.1807 13.2156 19.3353 13.1957C19.4899 13.1758 19.6368 13.1163 19.7617 13.0231C19.8897 12.9279 19.9917 12.802 20.0582 12.657C20.1247 12.5119 20.1536 12.3525 20.1421 12.1933C20.1346 12.1043 20.1276 12.0139 20.1276 11.9208C20.127 11.0219 20.3951 10.1433 20.8973 9.39778C21.3995 8.65223 22.113 8.07373 22.9463 7.73649C23.7796 7.39925 24.6946 7.31865 25.574 7.50503C26.4534 7.69141 27.257 8.13626 27.8818 8.78254C27.9924 8.89632 28.131 8.979 28.2837 9.02225C28.4363 9.0655 28.5977 9.0678 28.7515 9.02893C28.9054 8.99005 29.0462 8.91137 29.16 8.80078C29.2738 8.69019 29.3565 8.5516 29.3997 8.39894C29.8249 6.9185 30.7731 5.64279 32.0681 4.80895C33.3632 3.97511 34.9169 3.63988 36.4406 3.86555C38.8288 4.21645 40.8818 6.03066 41.5501 8.37991C41.9174 9.64382 41.8734 10.9917 41.4245 12.229C41.3627 12.4029 41.3556 12.5915 41.4042 12.7695C41.4528 12.9475 41.5548 13.1064 41.6964 13.2247C41.838 13.343 42.0124 13.4151 42.1962 13.4313C42.3801 13.4475 42.5644 13.407 42.7245 13.3153C43.1436 13.0677 43.6096 12.9099 44.0929 12.8519C44.5761 12.7939 45.0662 12.837 45.532 12.9785C46.3641 13.2247 47.0796 13.7625 47.5474 14.4934C48.0152 15.2242 48.204 16.0992 48.0791 16.958C47.9543 17.8167 47.5241 18.6017 46.8675 19.1691C46.2109 19.7364 45.3719 20.0482 44.5041 20.0472H33.6703C32.4735 20.0486 31.326 20.5246 30.4797 21.3709C29.6334 22.2172 29.1573 23.3647 29.156 24.5616V24.6898C28.3049 24.9096 27.5631 25.4322 27.0697 26.1598C26.5764 26.8873 26.3653 27.7698 26.4761 28.6418C26.5868 29.5138 27.0118 30.3155 27.6714 30.8966C28.331 31.4777 29.1798 31.7983 30.0589 31.7983C30.9379 31.7983 31.7868 31.4777 32.4463 30.8966C33.1059 30.3155 33.5309 29.5138 33.6417 28.6418C33.7524 27.7698 33.5413 26.8873 33.048 26.1598C32.5546 25.4322 31.8129 24.9096 30.9618 24.6898V24.5616C30.9626 23.8435 31.2483 23.155 31.7561 22.6473C32.2639 22.1395 32.9523 21.8538 33.6704 21.853H39.0877V29.2417C38.4853 29.4547 37.9775 29.8738 37.6542 30.4249C37.3309 30.9761 37.2129 31.6238 37.3209 32.2535C37.429 32.8833 37.7562 33.4546 38.2447 33.8664C38.7332 34.2783 39.3516 34.5042 39.9906 34.5042C40.6296 34.5042 41.248 34.2783 41.7365 33.8664C42.225 33.4546 42.5522 32.8833 42.6603 32.2535C42.7683 31.6238 42.6503 30.9761 42.327 30.4249C42.0036 29.8738 41.4959 29.4547 40.8935 29.2417V21.8526H42.6993V24.5616C42.6991 24.6802 42.7223 24.7976 42.7677 24.9072C42.8131 25.0168 42.8798 25.1163 42.9638 25.2L46.3107 28.5469V32.8536C45.7083 33.0666 45.2006 33.4857 44.8773 34.0368C44.554 34.588 44.4359 35.2357 44.544 35.8654C44.652 36.4952 44.9792 37.0665 45.4677 37.4783C45.9563 37.8902 46.5747 38.1161 47.2136 38.1161C47.8526 38.1161 48.471 37.8902 48.9595 37.4783C49.4481 37.0665 49.7753 36.4952 49.8833 35.8654C49.9914 35.2357 49.8733 34.588 49.55 34.0368C49.2267 33.4857 48.719 33.0666 48.1165 32.8536L48.1163 32.8533ZM12.9042 36.2985C12.7256 36.2985 12.5511 36.2456 12.4026 36.1464C12.2541 36.0472 12.1384 35.9062 12.0701 35.7412C12.0017 35.5762 11.9838 35.3946 12.0187 35.2195C12.0535 35.0444 12.1395 34.8835 12.2658 34.7572C12.392 34.6309 12.5529 34.5449 12.7281 34.5101C12.9032 34.4753 13.0848 34.4931 13.2497 34.5615C13.4147 34.6298 13.5557 34.7456 13.6549 34.894C13.7542 35.0425 13.8071 35.2171 13.8071 35.3957C13.807 35.6351 13.7119 35.8647 13.5426 36.034C13.3733 36.2033 13.1437 36.2985 12.9042 36.2985ZM20.1273 32.6871C19.9487 32.6871 19.7741 32.6341 19.6256 32.5349C19.4772 32.4357 19.3614 32.2947 19.2931 32.1297C19.2248 31.9647 19.2069 31.7832 19.2417 31.608C19.2766 31.4329 19.3625 31.272 19.4888 31.1457C19.6151 31.0195 19.776 30.9335 19.9511 30.8986C20.1263 30.8638 20.3078 30.8817 20.4728 30.95C20.6378 31.0184 20.7788 31.1341 20.878 31.2826C20.9772 31.431 21.0302 31.6056 21.0302 31.7842C21.0301 32.0236 20.9349 32.2533 20.7656 32.4226C20.5962 32.5919 20.3667 32.687 20.1273 32.6871ZM28.2532 13.7266C28.2532 13.3695 28.3591 13.0204 28.5575 12.7234C28.7559 12.4264 29.038 12.195 29.3679 12.0583C29.6979 11.9216 30.061 11.8859 30.4113 11.9555C30.7616 12.0252 31.0833 12.1972 31.3359 12.4498C31.5884 12.7023 31.7604 13.0241 31.8301 13.3743C31.8997 13.7246 31.864 14.0877 31.7273 14.4177C31.5906 14.7476 31.3592 15.0297 31.0622 15.2281C30.7653 15.4265 30.4161 15.5324 30.059 15.5324C29.5802 15.532 29.1211 15.3416 28.7825 15.003C28.444 14.6645 28.2535 14.2054 28.2531 13.7266H28.2532ZM31.8647 28.1726C31.8647 28.5298 31.7588 28.8789 31.5603 29.1759C31.3619 29.4728 31.0799 29.7043 30.7499 29.8409C30.42 29.9776 30.0569 30.0134 29.7066 29.9437C29.3563 29.874 29.0345 29.702 28.782 29.4495C28.5294 29.197 28.3575 28.8752 28.2878 28.5249C28.2181 28.1746 28.2539 27.8115 28.3905 27.4816C28.5272 27.1516 28.7587 26.8696 29.0556 26.6712C29.3526 26.4727 29.7017 26.3668 30.0589 26.3668C30.5377 26.3673 30.9967 26.5577 31.3352 26.8963C31.6737 27.2349 31.8641 27.6939 31.8646 28.1727L31.8647 28.1726ZM39.9906 32.687C39.812 32.687 39.6375 32.634 39.489 32.5348C39.3405 32.4356 39.2248 32.2946 39.1564 32.1296C39.0881 31.9646 39.0702 31.7831 39.1051 31.6079C39.1399 31.4328 39.2259 31.2719 39.3522 31.1456C39.4784 31.0194 39.6393 30.9334 39.8144 30.8985C39.9896 30.8637 40.1711 30.8816 40.3361 30.9499C40.5011 31.0183 40.6421 31.134 40.7413 31.2825C40.8405 31.4309 40.8935 31.6055 40.8935 31.7841C40.8934 32.0236 40.7983 32.2532 40.6289 32.4225C40.4596 32.5919 40.23 32.687 39.9905 32.6871L39.9906 32.687ZM47.2136 36.2984C47.0351 36.2984 46.8605 36.2455 46.712 36.1463C46.5635 36.0471 46.4478 35.906 46.3795 35.7411C46.3111 35.5761 46.2933 35.3945 46.3281 35.2194C46.3629 35.0443 46.4489 34.8834 46.5752 34.7571C46.7015 34.6308 46.8623 34.5448 47.0375 34.51C47.2126 34.4752 47.3942 34.493 47.5592 34.5614C47.7241 34.6297 47.8652 34.7454 47.9644 34.8939C48.0636 35.0424 48.1165 35.217 48.1165 35.3955C48.1165 35.635 48.0213 35.8647 47.8519 36.034C47.6826 36.2034 47.4529 36.2985 47.2134 36.2985L47.2136 36.2984Z" fill="#282928"/>
</svg>
