<svg width="60" height="60" viewBox="0 0 60 60" fill="none" xmlns="http://www.w3.org/2000/svg">
<path d="M52.3559 7.47705H6.70919C5.74244 7.47884 4.8159 7.86413 4.13294 8.54836C3.44998 9.23258 3.0664 10.1598 3.06641 11.1266V49.3505C3.0664 50.3173 3.44998 51.2445 4.13294 51.9287C4.8159 52.613 5.74244 52.9983 6.70919 53.0001H52.3559C53.3226 52.9983 54.2492 52.613 54.9322 51.9287C55.6151 51.2445 55.9987 50.3173 55.9987 49.3505V11.1266C55.9987 10.1598 55.6151 9.23258 54.9322 8.54836C54.2492 7.86413 53.3226 7.47884 52.3559 7.47705ZM54.3601 49.3505C54.3604 49.8828 54.1495 50.3934 53.7738 50.7704C53.3981 51.1474 52.8881 51.3599 52.3559 51.3614H6.70919C6.17714 51.3599 5.66739 51.1475 5.2917 50.7708C4.91601 50.394 4.70504 49.8837 4.70504 49.3516V15.2878H54.3601V49.3505ZM54.3601 13.6492H4.70504V11.1266C4.70474 10.5941 4.91574 10.0833 5.2917 9.70632C5.66767 9.3293 6.17788 9.11688 6.71032 9.11569H52.3559C52.888 9.11717 53.3977 9.32957 53.7734 9.70632C54.1491 10.0831 54.3601 10.5934 54.3601 11.1255V13.6492Z" fill="#282928"/>
<path d="M21.116 28.4362L30.7881 31.4942C30.8679 31.5204 30.9515 31.5337 31.0355 31.5335C31.2094 31.5352 31.3793 31.4817 31.5208 31.3806C31.6623 31.2796 31.768 31.1362 31.8228 30.9712C32.1573 29.9012 32.3283 28.7868 32.33 27.6658C32.3226 24.7618 31.164 21.9793 29.1083 19.9282C27.0525 17.8771 24.2674 16.7248 21.3634 16.724C21.2562 16.721 21.1494 16.7391 21.0492 16.7774C20.949 16.8157 20.8573 16.8734 20.7794 16.9471C20.7015 17.0208 20.6388 17.1092 20.5951 17.2072C20.5513 17.3051 20.5273 17.4107 20.5244 17.518V27.6546C20.5239 27.8323 20.5814 28.0053 20.6882 28.1474C20.7949 28.2895 20.9451 28.3929 21.116 28.4418V28.4362ZM22.1799 18.3738C23.5008 18.4908 24.7816 18.8882 25.9368 19.5394C27.092 20.1907 28.095 21.0808 28.8789 22.1504C29.6628 23.2199 30.2096 24.4444 30.4828 25.7421C30.7559 27.0397 30.7492 28.3807 30.4631 29.6756L22.1799 27.0574V18.3738Z" fill="#282928"/>
<path d="M18.1758 40.8695C20.5054 40.8771 22.7762 40.1388 24.6558 38.7627C26.5355 37.3865 27.9252 35.4448 28.6217 33.2218C28.655 33.1198 28.6677 33.0122 28.659 32.9052C28.6503 32.7982 28.6205 32.694 28.5712 32.5987C28.5219 32.5034 28.4542 32.4188 28.3719 32.3499C28.2896 32.2809 28.1945 32.2291 28.092 32.1972L18.9923 29.3147V19.7753C18.9879 19.5617 18.9 19.3583 18.7473 19.2088C18.5947 19.0594 18.3895 18.9757 18.1758 18.9757C15.2888 19.0049 12.5299 20.1723 10.4987 22.2242C8.46752 24.2761 7.32813 27.0467 7.32813 29.9339C7.32812 32.8211 8.46752 35.5916 10.4987 37.6435C12.5299 39.6954 15.2888 40.8628 18.1758 40.892V40.8695ZM17.3537 20.6256V29.9108C17.352 30.0847 17.4055 30.2546 17.5066 30.3961C17.6076 30.5375 17.751 30.6433 17.916 30.6981L26.7683 33.5097C26.1303 35.033 25.0992 36.3594 23.7802 37.3532C22.4613 38.347 20.902 38.9725 19.2619 39.1657C17.6218 39.3589 15.9598 39.1128 14.446 38.4527C12.9323 37.7926 11.6211 36.7421 10.6467 35.4087C9.67231 34.0754 9.06968 32.5071 8.90051 30.8644C8.73133 29.2216 9.00169 27.5634 9.6839 26.0595C10.3661 24.5555 11.4357 23.2599 12.7831 22.3051C14.1306 21.3503 15.7075 20.7707 17.3526 20.6256H17.3537ZM30.8733 49.4181H36.6732V38.7585H30.8733V49.4181ZM32.5119 40.4118H35.0345V47.7828H32.5119V40.4118ZM38.4648 49.4181H44.259V35.9592H38.4648V49.4181ZM40.1034 37.5922H42.626V47.7794H40.1034V37.5922ZM46.0495 49.4215H51.8494V31.8655H46.0495V49.4215ZM47.6881 33.5075H50.2107V47.7794H47.6881V33.5075ZM37.7607 16.7005H51.0317V18.3391H37.7607V16.7005ZM37.7607 21.3127H51.0317V22.9514H37.7607V21.3127ZM8.03361 43.1672H21.3046V44.8058H8.03361V43.1672ZM8.03361 47.7794H21.3046V49.4181H8.03361V47.7794ZM8.03361 10.1685H11.9981V11.8071H8.03361V10.1685ZM37.7607 26.3074H51.0317V27.946H37.7607V26.3074Z" fill="#282928"/>
</svg>
