<svg width="60" height="60" viewBox="0 0 60 60" fill="none" xmlns="http://www.w3.org/2000/svg">
<path fill-rule="evenodd" clip-rule="evenodd" d="M23.7863 14.7317V14.4298C23.7863 11.7059 24.797 9.07909 26.6225 7.05868C26.9166 6.73368 27.2051 6.41382 27.4659 6.12573C27.7862 5.77128 28.1772 5.48798 28.6137 5.29408C29.0502 5.10018 29.5225 5 30.0001 5C30.4776 5 30.9499 5.10018 31.3864 5.29408C31.8229 5.48798 32.2139 5.77128 32.5343 6.12573L33.3771 7.05868C35.2027 9.07905 36.2135 11.7059 36.2135 14.4298V14.7317H49.2605C50.7982 14.7317 52.2728 15.343 53.3601 16.431C54.4474 17.5191 55.0582 18.9948 55.0582 20.5336V42.3064C55.0582 43.8451 54.4474 45.3209 53.3601 46.4089C52.2728 47.497 50.7982 48.1083 49.2605 48.1083H35.658V52.9915H40.1199C40.386 52.9915 40.6413 53.0973 40.8294 53.2856C41.0176 53.474 41.1234 53.7294 41.1234 53.9957C41.1234 54.2621 41.0176 54.5175 40.8294 54.7059C40.6413 54.8942 40.386 55 40.1199 55H19.8798C19.6136 55 19.3584 54.8942 19.1702 54.7059C18.982 54.5175 18.8763 54.2621 18.8763 53.9957C18.8763 53.7294 18.982 53.474 19.1702 53.2856C19.3584 53.0973 19.6136 52.9915 19.8798 52.9915H24.3417V48.1083H10.7391C9.20153 48.1081 7.727 47.4967 6.63977 46.4087C5.55254 45.3207 4.94164 43.8451 4.94141 42.3064L4.94141 20.5336C4.94164 18.9949 5.55254 17.5193 6.63977 16.4313C7.727 15.3432 9.20153 14.7319 10.7391 14.7317H23.7863ZM26.349 48.1083V52.9915H33.6512V48.1083H26.349ZM53.0511 41.9641H6.94844V42.3064C6.94854 43.3124 7.34792 44.2771 8.05874 44.9885C8.76956 45.6998 9.73361 46.0995 10.7389 46.0996H49.2605C50.2658 46.0995 51.2298 45.6998 51.9406 44.9885C52.6515 44.2771 53.0508 43.3124 53.0509 42.3064L53.0511 41.9641ZM14.0217 39.9556H25.1937V31.6892H22.3008C21.7727 31.6891 21.2506 31.5777 20.7685 31.3621C20.2864 31.1464 19.8551 30.8315 19.5028 30.4378C19.1506 30.0442 18.8852 29.5806 18.724 29.0774C18.5629 28.5741 18.5096 28.0425 18.5675 27.5173C18.5672 27.5156 18.5672 27.5138 18.5675 27.5121C18.6683 26.5979 19.1007 25.7525 19.7827 25.136L23.7858 21.5156V16.7404H10.7391C9.73381 16.7404 8.7697 17.1401 8.05883 17.8514C7.34795 18.5628 6.94854 19.5276 6.94844 20.5336V39.9553H12.0257V23.6852L10.2503 25.4625C10.0632 25.6498 9.80937 25.7551 9.5447 25.7551C9.28004 25.7552 9.02619 25.65 8.83901 25.4628C8.65182 25.2755 8.54663 25.0215 8.54657 24.7567C8.54651 24.4918 8.65159 24.2378 8.83869 24.0505L12.3183 20.5689C12.4109 20.4761 12.5209 20.4026 12.6419 20.3524C12.763 20.3022 12.8927 20.2764 13.0237 20.2764C13.1548 20.2764 13.2845 20.3022 13.4055 20.3524C13.5266 20.4026 13.6366 20.4761 13.7292 20.5689L17.2083 24.0505C17.3921 24.2384 17.4944 24.4913 17.4929 24.7542C17.4915 25.0172 17.3865 25.269 17.2007 25.4549C17.0149 25.6408 16.7633 25.7459 16.5006 25.7473C16.2378 25.7487 15.9851 25.6464 15.7973 25.4625L14.0217 23.6852V39.9556ZM27.1519 39.9556H32.8484V31.6892H27.1519V39.9556ZM47.9739 39.9556H53.0511V20.5336C53.051 19.5276 52.6516 18.5628 51.9407 17.8515C51.2299 17.1401 50.2658 16.7405 49.2605 16.7404H36.2135V21.5158L40.2167 25.1361C40.8983 25.7529 41.3306 26.5982 41.4318 27.5123C41.4315 27.514 41.4315 27.5157 41.4318 27.5174C41.4898 28.0427 41.4365 28.5743 41.2753 29.0776C41.1141 29.5809 40.8487 30.0445 40.4964 30.4382C40.144 30.8318 39.7127 31.1467 39.2306 31.3623C38.7484 31.5779 38.2262 31.6893 37.6981 31.6893H34.806V39.9553H45.9784V23.6852L44.2028 25.4625C44.1103 25.5557 44.0002 25.6298 43.8791 25.6805C43.7579 25.7311 43.6279 25.7573 43.4965 25.7575C43.3652 25.7578 43.2351 25.7321 43.1137 25.6819C42.9923 25.6318 42.882 25.5581 42.7891 25.4652C42.6962 25.3723 42.6226 25.2619 42.5724 25.1404C42.5222 25.019 42.4965 24.8888 42.4967 24.7574C42.4969 24.6259 42.5231 24.4958 42.5736 24.3745C42.6242 24.2532 42.6982 24.1431 42.7913 24.0505L46.2704 20.5689C46.4576 20.3817 46.7115 20.2765 46.9761 20.2765C47.2408 20.2765 47.4946 20.3817 47.6819 20.5689L51.1609 24.0505C51.2552 24.1428 51.3303 24.253 51.3818 24.3745C51.4332 24.4961 51.4601 24.6267 51.4608 24.7587C51.4615 24.8907 51.4361 25.0216 51.3859 25.1437C51.3357 25.2658 51.2619 25.3768 51.1686 25.4701C51.0753 25.5635 50.9644 25.6374 50.8424 25.6876C50.7204 25.7378 50.5896 25.7633 50.4577 25.7625C50.3258 25.7618 50.1953 25.7349 50.0738 25.6834C49.9523 25.6319 49.8423 25.5568 49.75 25.4625L47.9739 23.6852V39.9556ZM25.744 22.3857V14.4298C25.7438 12.1914 26.5745 10.0329 28.0749 8.37287C28.3684 8.04736 28.6568 7.72801 28.9177 7.43941C29.0545 7.28811 29.2215 7.16717 29.4079 7.08441C29.5943 7.00164 29.7959 6.95888 29.9998 6.95888C30.2037 6.95888 30.4054 7.00164 30.5917 7.08441C30.7781 7.16717 30.9451 7.28811 31.0819 7.43941L31.9253 8.37287C33.4256 10.0329 34.2565 12.1914 34.2567 14.4298V22.3857C34.2567 22.3857 37.6059 25.4144 38.9047 26.5894C39.231 26.8847 39.4379 27.2894 39.4861 27.727C39.4861 27.7291 39.4861 27.7307 39.4871 27.7322C39.5149 27.9837 39.4894 28.2383 39.4122 28.4793C39.3351 28.7204 39.208 28.9424 39.0393 29.1309C38.8705 29.3195 38.664 29.4703 38.4331 29.5735C38.2022 29.6768 37.9521 29.7301 37.6992 29.7301H22.3008C22.0479 29.7301 21.7979 29.6767 21.5671 29.5734C21.3362 29.4701 21.1297 29.3193 20.9611 29.1307C20.7924 28.9422 20.6654 28.7202 20.5882 28.4792C20.5111 28.2382 20.4856 27.9837 20.5134 27.7322V27.727C20.5615 27.2893 20.7686 26.8844 21.0953 26.5894C22.3942 25.4144 25.7433 22.3857 25.7433 22.3857H25.744Z" fill="#282928"/>
</svg>
