<svg xmlns="http://www.w3.org/2000/svg" width="28.552" height="31.517"><path d="M27.514 11.507h-1.876v-.211a.953.953 0 0 0-.952-.952h-3.7a.462.462 0 1 0 0 .925h3.7a.03.03 0 0 1 .028.028v5.637a.462.462 0 0 0 .925 0v-4.5h1.878a.113.113 0 0 1 .113.113v16.13a1.92 1.92 0 0 1-1.919 1.919H2.845a1.92 1.92 0 0 1-1.919-1.919v-16.13a.113.113 0 0 1 .113-.113h1.94v15.812a1.184 1.184 0 0 0 1.182 1.182h20.292a1.184 1.184 0 0 0 1.182-1.182v-9.339a.463.463 0 0 0-.925 0v6.652h-7.48a3.38 3.38 0 0 0-2.461 1.064v-5.98a.463.463 0 0 0-.925 0v5.98a3.38 3.38 0 0 0-2.459-1.064h-2.1a.462.462 0 1 0 0 .925h2.1a2.464 2.464 0 0 1 2.42 2.019H4.162a.26.26 0 0 1-.258-.258v-1.761h3.407a.463.463 0 1 0 0-.925H3.905V11.296a.03.03 0 0 1 .028-.028h3.7a.463.463 0 1 0 0-.925h-3.7a.953.953 0 0 0-.952.952v.211H1.038A1.04 1.04 0 0 0 0 12.544v16.13a2.847 2.847 0 0 0 2.843 2.843h22.866a2.847 2.847 0 0 0 2.843-2.843v-16.13a1.04 1.04 0 0 0-1.038-1.037M17.231 26.483h7.48v1.761a.26.26 0 0 1-.258.258h-9.642a2.464 2.464 0 0 1 2.42-2.019"/><path d="M8.144 6.488a.463.463 0 0 0 .5-.417 5.686 5.686 0 1 1 10.311 3.813l-.011.017-2.959 4.606a.46.46 0 0 0-.073.25v.6a.22.22 0 0 1-.22.22h-.03l.295-5h.527a1.37 1.37 0 0 0 1.367-1.367v-.055a1.367 1.367 0 0 0-2.731-.08l-.034.579h-1.621l-.034-.579a1.367 1.367 0 0 0-2.731.08v.056a1.37 1.37 0 0 0 1.367 1.367h.527l.294 4.995a.22.22 0 0 1-.189-.217v-.6a.46.46 0 0 0-.073-.25l-2.957-4.6-.011-.017a5.6 5.6 0 0 1-.89-1.993.462.462 0 1 0-.9.207 6.6 6.6 0 0 0 1.03 2.311l2.88 4.483v.463a1.15 1.15 0 0 0 .683 1.047v.782a1.494 1.494 0 0 0 1.492 1.492h.715a1.494 1.494 0 0 0 1.492-1.492v-.788a1.15 1.15 0 0 0 .683-1.047v-.463l2.88-4.483A6.611 6.611 0 1 0 7.73 5.984a.46.46 0 0 0 .417.5Zm7.9 2.641a.442.442 0 0 1 .883.026v.056a.443.443 0 0 1-.442.442h-.472Zm-3.977.524a.443.443 0 0 1-.442-.442v-.056a.442.442 0 0 1 .883-.026l.031.524Zm2.965.925-.294 5h-.923l-.294-5Zm.2 6.606a.57.57 0 0 1-.567.567h-.715a.57.57 0 0 1-.567-.567v-.683h1.85v.684ZM22.407 3.512a.46.46 0 0 0 .3-.115l1.009-.886a.464.464 0 0 0-.61-.7l-1.009.886a.462.462 0 0 0 .305.81ZM22.101 6.3l1.009.886a.462.462 0 1 0 .61-.695l-1.009-.886a.462.462 0 1 0-.61.695M4.896 2.511l1.009.886a.464.464 0 1 0 .61-.7l-1.009-.878a.462.462 0 0 0-.61.695ZM5.201 7.301a.46.46 0 0 0 .3-.115L6.51 6.3a.464.464 0 1 0-.61-.7l-1.009.886a.462.462 0 0 0 .305.81ZM10.218 16.038a.46.46 0 0 0-.462-.462H5.202a.463.463 0 0 0 0 .925h4.554a.46.46 0 0 0 .462-.463M11.164 17.922H6.037a.462.462 0 0 0 0 .925h5.127a.462.462 0 1 0 0-.925M11.164 20.18H6.037a.463.463 0 0 0 0 .925h5.127a.462.462 0 1 0 0-.925M11.164 22.432H6.037a.463.463 0 0 0 0 .925h5.127a.462.462 0 1 0 0-.925M23.877 16.038a.46.46 0 0 0-.462-.462h-4.554a.463.463 0 0 0 0 .925h4.554a.46.46 0 0 0 .462-.463M22.58 17.922h-5.127a.462.462 0 0 0 0 .925h5.127a.462.462 0 0 0 0-.925M22.58 20.18h-5.127a.463.463 0 0 0 0 .925h5.127a.462.462 0 1 0 0-.925M22.58 22.432h-5.127a.463.463 0 0 0 0 .925h5.127a.462.462 0 1 0 0-.925"/></svg>