<svg xmlns="http://www.w3.org/2000/svg" width="25.713" height="30.858"><path d="M21.548 21.085h-1.874l.771-3.329a1.061 1.061 0 0 0-1.9-.852l-3.948 5.57a1.076 1.076 0 0 0 .88 1.7h1.874l-.771 3.328a1.05 1.05 0 0 0 .594 1.205 1.1 1.1 0 0 0 .442.1 1.05 1.05 0 0 0 .86-.449l3.949-5.567a1.076 1.076 0 0 0-.879-1.7Zm-3.922 6.685-.044-.04.919-3.96a.514.514 0 0 0-.5-.628h-2.52l-.04-.075 3.956-5.582.044.04-.92 3.96a.514.514 0 0 0 .5.628h2.52l.04.075Z"/><path d="M21.717 15.557a25.6 25.6 0 0 1-2.3-3.137 1.517 1.517 0 0 0-.9-2.04V5.048A1.539 1.539 0 0 0 18 2.057h-1.029v-.514A1.543 1.543 0 0 0 15.428 0h-2.057a1.543 1.543 0 0 0-1.543 1.543v.514H1.543a1.539 1.539 0 0 0-.514 2.991v5.33a1.5 1.5 0 0 0-.569.356A1.5 1.5 0 0 0 0 11.828a1.54 1.54 0 0 0 1.029 1.448v5.33a1.5 1.5 0 0 0-.569.356A1.5 1.5 0 0 0 0 20.056 1.54 1.54 0 0 0 1.029 21.5v5.33a1.5 1.5 0 0 0-.569.356 1.5 1.5 0 0 0-.46 1.1 1.543 1.543 0 0 0 1.543 1.543H14.59a7.53 7.53 0 0 0 3.923 1.029c4.306 0 7.2-2.972 7.2-7.4 0-2.976-2.123-5.592-3.996-7.901M17.485 5.143v5.143H2.057V5.143Zm-4.628-3.6a.514.514 0 0 1 .514-.514h2.057a.514.514 0 0 1 .514.514v.514h-3.085ZM1.543 3.086H18a.515.515 0 0 1 0 1.029H1.543a.515.515 0 0 1 0-1.029m-.356 8.376a.5.5 0 0 1 .356-.148H18a.514.514 0 0 1 .514.514.97.97 0 0 0-.843.5l-.01.014H1.543a.514.514 0 0 1-.514-.514.5.5 0 0 1 .158-.367Zm11.888 7.052H2.057v-5.143H17a43 43 0 0 1-1.689 2.186c-.757.934-1.554 1.919-2.236 2.956ZM1.186 19.69a.5.5 0 0 1 .356-.148h10.91a11 11 0 0 0-.5 1.029H1.543a.514.514 0 0 1-.514-.514.5.5 0 0 1 .158-.367Zm10.4 1.909a6.8 6.8 0 0 0-.274 1.86 8.4 8.4 0 0 0 .633 3.283H2.057V21.6ZM1.029 28.285a.5.5 0 0 1 .158-.367.5.5 0 0 1 .356-.148h10.933a6.5 6.5 0 0 0 .808 1.029H1.543a.514.514 0 0 1-.514-.514m17.485 1.543c-3.691 0-6.171-2.559-6.171-6.368 0-2.612 1.915-4.972 3.766-7.254a26 26 0 0 0 2.405-3.28 26 26 0 0 0 2.4 3.28c1.852 2.282 3.766 4.642 3.766 7.254 0 3.808-2.48 6.367-6.167 6.367Z"/></svg>