<svg xmlns="http://www.w3.org/2000/svg" width="29.313" height="30.865"><path d="M17.999 8.238h-.514V6.695a.514.514 0 0 0-.514-.514h-.514V4.638a.514.514 0 0 0-.514-.514h-.514V2.581H14.4v1.543h-.514a.514.514 0 0 0-.514.514v1.543h-.514a.514.514 0 0 0-.514.514v1.543h-.514a.514.514 0 0 0-.514.514v9.257a.514.514 0 0 0 .514.514h6.171a.514.514 0 0 0 .514-.514V8.752a.514.514 0 0 0-.516-.514m-3.6-3.086h1.029v1.029H14.4ZM13.37 7.209h3.086v1.029h-3.085Zm1.029 10.285v-1.542a.515.515 0 0 1 1.029 0v1.543Zm3.086 0h-1.028v-1.542a1.543 1.543 0 1 0-3.086 0v1.543h-1.028V9.266h5.143Z"/><path d="M13.371 10.295H14.4v1.029h-1.029ZM15.428 10.295h1.029v1.029h-1.029ZM13.371 12.352H14.4v1.029h-1.029ZM15.428 12.352h1.029v1.029h-1.029Z"/><path d="M21.429 2.498A9.767 9.767 0 0 0 7.28 15.87a13.04 13.04 0 0 1 3 8.186v.123a.5.5 0 0 0 .054.23l.46.92v3.979a1.56 1.56 0 0 0 1.556 1.556h5.116a1.56 1.56 0 0 0 1.556-1.556v-3.979l.463-.92a.5.5 0 0 0 .051-.23v-.124a12.98 12.98 0 0 1 2.994-8.172 9.64 9.64 0 0 0 2.149-6.1 9.79 9.79 0 0 0-3.256-7.282Zm-3.43 26.816a.53.53 0 0 1-.528.528h-5.115a.53.53 0 0 1-.528-.528v-3.592h6.171Zm3.736-14.07a14.2 14.2 0 0 0-3.221 8.817l-.318.638h-6.564l-.318-.636a14.06 14.06 0 0 0-3.231-8.828 8.742 8.742 0 1 1 13.652.011ZM0 2.581h1.029V3.61H0ZM2.057 2.581h1.029V3.61H2.057ZM1.029 1.552h1.029v1.029H1.029Z"/><path d="M1.029 3.609h1.029v1.029H1.029ZM25.713 1.552h1.029v1.029h-1.029ZM27.77 1.552h1.029v1.029H27.77Z"/><path d="M26.742.524h1.029v1.029h-1.029ZM26.742 2.581h1.029V3.61h-1.029ZM3.6 20.066v.257a1.2 1.2 0 0 0-.686 1.113 1.15 1.15 0 0 0 1.085 1.2h.219a.21.21 0 0 1 .067.173.26.26 0 0 1-.057.172h-.217a.2.2 0 0 1-.068-.174v-.141H2.915v.137a1.2 1.2 0 0 0 .686 1.114v.257h1.028v-.257a1.2 1.2 0 0 0 .686-1.113 1.15 1.15 0 0 0-1.085-1.2h-.218a.21.21 0 0 1-.067-.173.26.26 0 0 1 .057-.172h.217a.2.2 0 0 1 .068.174v.137h1.029v-.137a1.2 1.2 0 0 0-.687-1.114v-.253Z"/><path d="M.514 22.123a3.6 3.6 0 1 0 3.6-3.6 3.6 3.6 0 0 0-3.6 3.6m6.171 0a2.571 2.571 0 1 1-2.571-2.571 2.57 2.57 0 0 1 2.571 2.571M25.199 25.208v.257a1.2 1.2 0 0 0-.686 1.113 1.15 1.15 0 0 0 1.085 1.2h.219a.21.21 0 0 1 .067.173.26.26 0 0 1-.057.172h-.218a.2.2 0 0 1-.068-.174v-.141h-1.027v.137a1.2 1.2 0 0 0 .686 1.114v.257h1.028v-.257a1.2 1.2 0 0 0 .686-1.113 1.15 1.15 0 0 0-1.085-1.2h-.218a.21.21 0 0 1-.067-.173.26.26 0 0 1 .057-.172h.218a.2.2 0 0 1 .068.174v.137h1.029v-.137a1.2 1.2 0 0 0-.687-1.114v-.253Z"/><path d="M22.113 27.265a3.6 3.6 0 1 0 3.6-3.6 3.6 3.6 0 0 0-3.6 3.6m6.171 0a2.571 2.571 0 1 1-2.571-2.571 2.57 2.57 0 0 1 2.571 2.571"/></svg>