<svg xmlns="http://www.w3.org/2000/svg" width="28.519" height="27.551"><path d="M26.46 10.024H2.059A2.06 2.06 0 0 1 0 7.965v-.7a2.05 2.05 0 0 1 1.262-1.9L14.053 0h.413l12.791 5.369a2.05 2.05 0 0 1 1.262 1.9v.7a2.06 2.06 0 0 1-2.059 2.055m-12.2-8.953L1.675 6.353a.99.99 0 0 0-.608.914v.7a.99.99 0 0 0 .991.991h24.4a.99.99 0 0 0 .991-.991v-.7a.99.99 0 0 0-.608-.914Z"/><path d="M8.329 12.806H4.178a1.593 1.593 0 0 1-1.591-1.591V9.49h1.068v1.724a.524.524 0 0 0 .524.524H8.33a.524.524 0 0 0 .524-.524V9.49h1.068v1.724a1.593 1.593 0 0 1-1.593 1.592"/><path d="M7.539 12.271h1.067v8.5H7.539ZM3.899 12.271h1.067v8.5H3.899ZM24.342 12.806H20.19a1.593 1.593 0 0 1-1.591-1.591V9.49h1.068v1.724a.524.524 0 0 0 .524.524h4.151a.524.524 0 0 0 .524-.524V9.49h1.066v1.724a1.593 1.593 0 0 1-1.59 1.592"/><path d="M9.92 23.553H8.852v-1.724a.524.524 0 0 0-.524-.524h-4.15a.524.524 0 0 0-.524.524v1.724H2.587v-1.724a1.593 1.593 0 0 1 1.591-1.591h4.151a1.593 1.593 0 0 1 1.591 1.591ZM25.932 23.553h-1.067v-1.724a.524.524 0 0 0-.523-.524H20.19a.524.524 0 0 0-.524.524v1.724h-1.067v-1.724a1.593 1.593 0 0 1 1.591-1.591h4.152a1.593 1.593 0 0 1 1.591 1.591Z"/><path d="M23.552 12.271h1.067v8.5h-1.067ZM19.912 12.271h1.07v8.5h-1.07ZM26.46 27.549H2.059A2.06 2.06 0 0 1 0 25.49v-.411a2.06 2.06 0 0 1 2.059-2.057h24.4a2.06 2.06 0 0 1 2.059 2.059v.411a2.06 2.06 0 0 1-2.059 2.059Zm-24.4-3.461a.99.99 0 0 0-.991.991v.411a.99.99 0 0 0 .991.991h24.4a.99.99 0 0 0 .991-.991v-.411a.99.99 0 0 0-.991-.991ZM14.849 19.984a2 2 0 0 1-.283-.02l-2.084-.3.153-1.057 2.084.3a.876.876 0 0 0 .251-1.734l-1.575-.246a1.944 1.944 0 0 1 .563-3.846l2.084.3-.156 1.059-2.084-.3a.876.876 0 0 0-.251 1.734l1.575.246a1.944 1.944 0 0 1-.28 3.867Z"/><path d="M13.726 12.271h1.067v1.378h-1.067ZM13.726 19.42h1.067v1.355h-1.067Z"/></svg>