<svg xmlns="http://www.w3.org/2000/svg" width="33.001" height="35"><path d="M32.435 28.035h-4.352a.565.565 0 0 1 0-1.129h3.788v-20.1h-4.815a.565.565 0 0 1 0-1.129h5.38a.565.565 0 0 1 .565.565v21.229a.565.565 0 0 1-.566.564M4.917 28.035H.565A.565.565 0 0 1 0 27.471V6.24a.565.565 0 0 1 .565-.565h5.38a.565.565 0 0 1 0 1.129H1.129v20.1h3.788a.565.565 0 0 1 0 1.129ZM23.859 9.923H10.436a.565.565 0 0 1-.565-.565V.565A.565.565 0 0 1 10.436 0h13.423a.565.565 0 0 1 .565.565v8.794a.564.564 0 0 1-.565.564M11 8.794h12.3V1.129H11Z"/><path d="m11.845 5.629 3.406 1.754v-.926l-2.259-1.132 2.26-1.131v-.926l-3.407 1.753ZM15.73 7.502h.888l1.963-5.081h-.9ZM19.039 3.267v.925l2.275 1.132-2.275 1.132v.925l3.406-1.747v-.621ZM26.045 35H6.896a.577.577 0 0 1-.588-.565v-5.2a.577.577 0 0 1 .588-.565h19.149a.577.577 0 0 1 .588.565v5.2a.577.577 0 0 1-.588.565m-18.56-1.129h17.976v-4.068H7.485Z"/><path d="M10.156 32.239h-.813a.565.565 0 0 1 0-1.129h.813a.565.565 0 0 1 0 1.129M12.881 32.239h-.813a.565.565 0 0 1 0-1.129h.813a.565.565 0 0 1 0 1.129M15.606 32.239h-.832a.565.565 0 0 1 0-1.129h.832a.565.565 0 0 1 0 1.129M26.045 26.461H6.896a.577.577 0 0 1-.588-.565v-4.892a.577.577 0 0 1 .588-.565h19.149a.577.577 0 0 1 .588.565v4.892a.577.577 0 0 1-.588.565m-18.56-1.129h17.976v-3.764H7.485Z"/><path d="M10.156 24.024h-.813a.565.565 0 0 1 0-1.129h.813a.565.565 0 0 1 0 1.129M12.881 24.024h-.813a.565.565 0 0 1 0-1.129h.813a.565.565 0 0 1 0 1.129M15.606 24.024h-.832a.565.565 0 0 1 0-1.129h.832a.565.565 0 0 1 0 1.129"/></svg>