<svg xmlns="http://www.w3.org/2000/svg" width="29.118" height="29.691"><path d="M28.634 8.252h-1.106a5.735 5.735 0 0 0-5.17-8.246 5.7 5.7 0 0 0-4.059 1.676l-.61.61-.61-.61a5.744 5.744 0 0 0-9.228 6.571H6.745a.466.466 0 0 0 0 .931h1.673a6 6 0 0 0 .54.621l8.4 8.4a.466.466 0 0 0 .658 0l8.4-8.4a6 6 0 0 0 .542-.621h1.673a.466.466 0 1 0 0-.931ZM9.614 2.34a4.82 4.82 0 0 1 6.807 0l.939.939a.466.466 0 0 0 .658 0l.94-.944a4.78 4.78 0 0 1 3.4-1.4 4.816 4.816 0 0 1 4.11 7.317h-3.417a.47.47 0 0 0-.371.184l-1.141 1.5-1.776-3.65a.466.466 0 0 0-.834-.007l-1.676 3.3-1.644-4.9a.466.466 0 0 0-.888.017L13.34 9.384l-.96-.987a.47.47 0 0 0-.334-.141H8.911a4.82 4.82 0 0 1 .7-5.912Zm8.075 14.882L9.65 9.183h2.2l1.378 1.417a.466.466 0 0 0 .78-.193l1.188-4.034 1.527 4.552a.466.466 0 0 0 .856.063l1.757-3.453 1.7 3.489a.47.47 0 0 0 .373.26h.049a.47.47 0 0 0 .371-.184l1.459-1.918h2.44Zm8.431-.149a2.4 2.4 0 0 0-1.836.239L17.8 21.056a2.63 2.63 0 0 0-1.927-2.3l-7.282-1.982a1 1 0 0 0-.061-.012 3.88 3.88 0 0 0-2.962.791l-1.978 1.51-.092-.342a.9.9 0 0 0-1.1-.634l-1.733.464a.9.9 0 0 0-.634 1.1l2.512 9.375a.9.9 0 0 0 1.1.634l1.733-.464a.9.9 0 0 0 .633-1.1l-.1-.378a3.55 3.55 0 0 1 3.17-.744l4.171.956a4.8 4.8 0 0 0 1.064.127 3.84 3.84 0 0 0 1.96-.531l10.431-6.022a2.418 2.418 0 0 0-.584-4.431ZM3.437 28.749.943 19.442l1.665-.446 2.494 9.307Zm22.8-8.052L15.808 26.72a3.1 3.1 0 0 1-2.35.3l-4.171-.956a4.36 4.36 0 0 0-3.636.692l-1.8-6.721 2.283-1.749a2.94 2.94 0 0 1 2.244-.611l7.251 1.974a1.7 1.7 0 0 1-.891 3.273l-3.89-1.057a.466.466 0 1 0-.245.9l3.89 1.059a2.626 2.626 0 0 0 3.143-1.6l7.114-4.107a1.489 1.489 0 0 1 1.489 2.578Z"/></svg>