<svg width="60" height="60" viewBox="0 0 60 60" fill="none" xmlns="http://www.w3.org/2000/svg">
<path d="M7.34378 37.2955L11.4072 39.1018V50.2887C11.4072 50.4671 11.4589 50.6417 11.556 50.7913C11.6531 50.9409 11.7916 51.0591 11.9545 51.1317L28.5557 58.5091C28.6735 58.5613 28.801 58.5882 28.9298 58.5882C29.0587 58.5882 29.1862 58.5613 29.304 58.5091L45.9052 51.1298C46.0681 51.0572 46.2066 50.939 46.3037 50.7894C46.4008 50.6398 46.4525 50.4652 46.4525 50.2868V39.1018L50.5161 37.2959C50.6367 37.2424 50.7444 37.1635 50.8319 37.0648C50.9194 36.966 50.9847 36.8496 51.0233 36.7235C51.062 36.5973 51.0731 36.4643 51.0559 36.3335C51.0388 36.2026 50.9937 36.077 50.9238 35.9651L46.3138 28.5863C46.2167 28.4302 46.075 28.3068 45.9071 28.2321L35.0787 23.42C34.6623 22.1166 33.8424 20.9793 32.7375 20.1723C31.6326 19.3653 30.2998 18.9304 28.9315 18.9303C27.5633 18.9302 26.2304 19.3649 25.1253 20.1718C24.0203 20.9786 23.2003 22.1158 22.7837 23.4191L11.9551 28.2312C11.787 28.3058 11.6453 28.4292 11.5484 28.5854L6.93688 35.9632C6.86701 36.0752 6.82195 36.2009 6.80475 36.3318C6.78755 36.4626 6.7986 36.5957 6.83716 36.7219C6.87572 36.8482 6.94089 36.9647 7.02828 37.0636C7.11567 37.1626 7.22326 37.2416 7.34378 37.2955ZM13.2524 39.9213L23.9454 44.6739C24.1485 44.764 24.3773 44.7778 24.5898 44.7128C24.8023 44.6477 24.9842 44.5081 25.102 44.3197L28.009 39.6676V56.2468L13.2517 49.6874L13.2524 39.9213ZM28.9313 35.4424L14.6011 29.0742L22.4839 25.5704C22.5306 27.2491 23.2303 28.8433 24.4341 30.0141C25.6379 31.1849 27.251 31.8401 28.9302 31.8402C30.6095 31.8403 32.2226 31.1854 33.4266 30.0147C34.6306 28.8441 35.3305 27.25 35.3775 25.5713L43.2603 29.0742L28.9313 35.4424ZM44.6096 49.6892L29.853 56.2468V39.6675L32.76 44.3196C32.8779 44.508 33.0597 44.6476 33.2722 44.7127C33.4847 44.7777 33.7135 44.7639 33.9166 44.6738L44.6096 39.9212V49.6892ZM48.7982 36.0411L33.9 42.6632L30.2754 36.8647L45.1754 30.2436L48.7982 36.0411ZM28.9307 20.7745C29.8428 20.7745 30.7344 21.045 31.4928 21.5517C32.2511 22.0584 32.8422 22.7787 33.1912 23.6213C33.5403 24.464 33.6316 25.3912 33.4536 26.2858C33.2757 27.1803 32.8364 28.002 32.1915 28.6469C31.5465 29.2919 30.7248 29.731 29.8303 29.9089C28.9357 30.0869 28.0085 29.9955 27.1658 29.6464C26.3232 29.2974 25.603 28.7063 25.0963 27.9479C24.5896 27.1895 24.3192 26.2979 24.3192 25.3858C24.3207 24.1632 24.807 22.9911 25.6715 22.1266C26.536 21.2621 27.7081 20.7759 28.9307 20.7745ZM12.6864 30.2427L27.5864 36.8638L23.9618 42.6623L9.06275 36.0402L12.6864 30.2427ZM39.0758 20.7742C40.3526 20.7742 41.6008 20.3956 42.6625 19.6862C43.7242 18.9768 44.5516 17.9685 45.0403 16.7889C45.5289 15.6092 45.6567 14.3111 45.4076 13.0588C45.1585 11.8065 44.5437 10.6561 43.6408 9.75327C42.7379 8.8504 41.5876 8.23553 40.3353 7.98643C39.0829 7.73733 37.7849 7.86517 36.6052 8.35381C35.4255 8.84244 34.4173 9.66991 33.7079 10.7316C32.9985 11.7932 32.6199 13.0414 32.6199 14.3183C32.6219 16.0299 33.3028 17.6707 34.513 18.881C35.7233 20.0913 37.3642 20.7721 39.0758 20.7742ZM39.0758 9.70667C39.9879 9.70662 40.8795 9.97704 41.6378 10.4837C42.3962 10.9904 42.9873 11.7106 43.3364 12.5532C43.6855 13.3959 43.7768 14.3231 43.5989 15.2177C43.421 16.1122 42.9819 16.9339 42.3369 17.5789C41.692 18.2238 40.8704 18.6631 39.9758 18.841C39.0813 19.019 38.154 18.9277 37.3114 18.5787C36.4687 18.2297 35.7485 17.6386 35.2417 16.8803C34.735 16.1219 34.4645 15.2304 34.4645 14.3183C34.4659 13.0957 34.9522 11.9237 35.8167 11.0592C36.6811 10.1947 37.8532 9.70842 39.0758 9.707V9.70667ZM21.5525 18.0075C23.1942 18.0075 24.799 17.5207 26.1641 16.6086C27.5291 15.6965 28.593 14.4001 29.2213 12.8834C29.8495 11.3666 30.0139 9.69765 29.6936 8.08748C29.3733 6.47731 28.5827 4.99828 27.4219 3.83742C26.261 2.67655 24.7819 1.886 23.1718 1.56573C21.5616 1.24547 19.8926 1.40986 18.3759 2.03813C16.8591 2.66641 15.5628 3.73034 14.6507 5.09539C13.7386 6.46043 13.2518 8.06529 13.2518 9.707C13.2543 11.9077 14.1297 14.0175 15.6858 15.5736C17.2419 17.1297 19.3518 18.005 21.5525 18.0075ZM21.5525 3.25088C22.8293 3.25088 24.0775 3.62951 25.1392 4.33889C26.2008 5.04828 27.0283 6.05655 27.5169 7.23621C28.0056 8.41588 28.1334 9.71394 27.8843 10.9663C27.6352 12.2186 27.0204 13.3689 26.1175 14.2718C25.2146 15.1747 24.0643 15.7895 22.8119 16.0386C21.5596 16.2877 20.2616 16.1599 19.0819 15.6713C17.9022 15.1826 16.894 14.3552 16.1846 13.2935C15.4752 12.2318 15.0966 10.9836 15.0966 9.70678C15.0987 7.99522 15.7795 6.35437 16.9898 5.14412C18.2 3.93388 19.8409 3.25295 21.5525 3.25088Z" fill="#282928"/>
<path d="M28.9309 27.2306C29.052 27.2306 29.1719 27.2067 29.2838 27.1604C29.3957 27.114 29.4973 27.0461 29.5829 26.9604L31.4275 25.1158L30.1234 23.8116L28.8138 25.1213L26.6755 23.6964L25.6527 25.231L28.42 27.0757C28.5711 27.1769 28.749 27.2308 28.9309 27.2306ZM39.0761 15.2408H41.843V13.3962H39.9985V10.6293H38.1539V14.3184C38.1538 14.4396 38.1776 14.5595 38.224 14.6714C38.2703 14.7833 38.3382 14.885 38.4239 14.9707C38.5095 15.0564 38.6112 15.1243 38.7231 15.1706C38.835 15.217 38.955 15.2408 39.0761 15.2408ZM22.0137 10.6293H25.2416V8.78467H21.5526C21.4094 8.78465 21.2682 8.81795 21.1402 8.88192C21.0121 8.94589 20.9007 9.03879 20.8147 9.15326L18.0479 12.8427L19.5236 13.9495L22.0137 10.6293Z" fill="#282928"/>
</svg>
