<svg xmlns="http://www.w3.org/2000/svg" width="30.318" height="30.344"><path d="M11.592 24.956h-1.465v-2.977a4.07 4.07 0 0 0-1.834-3.4v-6.847a3.9 3.9 0 0 0 1.566-2.043l10.138-2.838a4 4 0 0 0 .783.72v5.506a2.4 2.4 0 0 0 .076.542l-1.508.7a.6.6 0 0 0-.344.536v2.378a.6.6 0 0 0 .336.53l1.194.594a.591.591 0 1 0 .524-1.059l-.87-.431v-1.63l1.222-.568a2.384 2.384 0 0 0 3.533 0l1.224.568v1.635l-.868.431a.591.591 0 1 0 .525 1.059l1.194-.594a.6.6 0 0 0 .333-.53V14.86a.6.6 0 0 0-.347-.536l-1.5-.7a11 11 0 0 0 .07-1.137V7.571a4.162 4.162 0 1 0-5.963-5.54L8.592 5.115a4.161 4.161 0 1 0-5.037 6.617v6.844a4.16 4.16 0 0 0-1.775 3.403v3.142A2.74 2.74 0 0 0 0 27.656a2.69 2.69 0 0 0 2.68 2.688h8.917a2.694 2.694 0 1 0 0-5.388ZM23.18 14.268a1.21 1.21 0 0 1-1.214-1.191v-.021h2.427v.021a1.21 1.21 0 0 1-1.213 1.191m1.214-2.4h-2.426V8.144a4.3 4.3 0 0 0 2.427 0ZM23.18 1.185a2.975 2.975 0 1 1-2.97 2.975 2.975 2.975 0 0 1 2.97-2.975m-3.815 4.616-9.263 2.594a4.1 4.1 0 0 0-.643-2.294l9.637-2.7a4.14 4.14 0 0 0 .269 2.4M2.97 8.321a2.975 2.975 0 1 1 2.975 2.98 2.975 2.975 0 0 1-2.975-2.98m1.769 3.98a4.1 4.1 0 0 0 2.368 0v5.7a4.17 4.17 0 0 0-2.368 0Zm-1.776 9.678a2.956 2.956 0 0 1 2.967-2.944h.029a2.97 2.97 0 0 1 2.983 2.944v2.977H2.963Zm8.629 7.18H2.68a1.51 1.51 0 0 1 0-3.019h8.917a1.51 1.51 0 0 1 0 3.019Z"/><path d="M5.945 20.213a1.781 1.781 0 1 0 1.781 1.781 1.78 1.78 0 0 0-1.781-1.781m0 2.378a.6.6 0 1 1 .6-.6.6.6 0 0 1-.6.6M5.945 10.102a1.781 1.781 0 1 0-1.781-1.781 1.78 1.78 0 0 0 1.781 1.781m0-2.378a.6.6 0 1 1-.6.6.6.6 0 0 1 .6-.6M23.184 5.941a1.781 1.781 0 1 0-1.781-1.781 1.78 1.78 0 0 0 1.781 1.781m0-2.378a.6.6 0 1 1-.6.6.6.6 0 0 1 .6-.6M29.723 26.727h-1.776v-2.95a.6.6 0 0 0-.6-.6h-1.47v-2.969a.6.6 0 0 0-.61-.583h-4.161a.606.606 0 0 0-.616.583v2.969h-1.464a.61.61 0 0 0-.608.6v2.95h-1.77a.615.615 0 0 0-.6.612v2.378a.623.623 0 0 0 .6.622h13.078a.62.62 0 0 0 .592-.622v-2.378a.61.61 0 0 0-.6-.612Zm-2.96 0h-2.96v-2.368h2.963Zm-5.092-5.921h3.019v2.368h-3.024Zm-2.072 3.552h3.019v2.369h-3.019Zm9.532 4.8h-11.9v-1.243h11.9Z"/></svg>