<svg xmlns="http://www.w3.org/2000/svg" width="26.809" height="26.811"><path d="M13.167 22.66a.523.523 0 1 0 .153.37.52.52 0 0 0-.153-.37"/><path d="M15.655 17.83v-3.853a.524.524 0 0 0-.719-.486l-9.022 3.634H3.007a3.008 3.008 0 0 0 0 6.015h.346v3.144a.524.524 0 0 0 .524.524h2.137a.524.524 0 0 0 .524-.524v-2.888l8.4 3.377a.524.524 0 0 0 .719-.486v-3.853a2.359 2.359 0 0 0 0-4.6ZM5.491 25.76H4.399v-2.621h1.09v2.621Zm0-3.668H3.007a1.96 1.96 0 1 1 0-3.92h2.484Zm9.116 3.417-8.069-3.245v-4.261l5.73-2.307v5.2a.524.524 0 0 0 1.047 0v-5.618l1.292-.521Zm1.047-4.175v-2.407a1.312 1.312 0 0 1 0 2.407M22.486 19.623h-2.964a.524.524 0 0 0 0 1.047h2.964a.524.524 0 1 0 0-1.047M20.055 15.786a.524.524 0 0 0-.741 0l-1.023 1.023a.524.524 0 1 0 .741.741l1.023-1.023a.524.524 0 0 0 0-.741M20.093 23.717l-1.057-1.057a.524.524 0 0 0-.741.74l1.057 1.057a.524.524 0 0 0 .74-.74Z"/><path d="M24.713 0h-9.739a2.1 2.1 0 0 0-2.094 2.094V2.3h-8.8a1.26 1.26 0 0 0-1.254 1.26v8.273a1.26 1.26 0 0 0 1.257 1.257h.543v1.61a.524.524 0 0 0 .894.37l1.976-1.976h10.4a1.26 1.26 0 0 0 1.257-1.257v-1.575h5.562a2.1 2.1 0 0 0 2.094-2.094V2.094A2.1 2.1 0 0 0 24.713 0m-6.609 11.833a.21.21 0 0 1-.209.209H7.278a.52.52 0 0 0-.37.153L5.673 13.43v-.865a.524.524 0 0 0-.524-.524H4.084a.21.21 0 0 1-.209-.209V3.56a.21.21 0 0 1 .209-.209h8.8v4.817a2.1 2.1 0 0 0 2.094 2.094h3.13Zm7.656-3.665a1.05 1.05 0 0 1-1.047 1.047h-9.739a1.05 1.05 0 0 1-1.048-1.047V2.094a1.05 1.05 0 0 1 1.047-1.047h9.739a1.05 1.05 0 0 1 1.047 1.047Z"/><path d="M21.943 4.678 18.36 2.609a.524.524 0 0 0-.785.453V7.2a.524.524 0 0 0 .785.453l3.583-2.069a.524.524 0 0 0 0-.907Zm-3.322 1.615V3.969l2.013 1.162ZM11.232 5.498H5.996a.524.524 0 1 0 0 1.047h5.236a.524.524 0 1 0 0-1.047M11.597 8.583a.523.523 0 1 0 .153.37.52.52 0 0 0-.153-.37M9.267 8.43H5.995a.524.524 0 1 0 0 1.047h3.272a.524.524 0 1 0 0-1.047"/></svg>