<svg xmlns="http://www.w3.org/2000/svg" width="21.78" height="24.751"><g fill-rule="evenodd"><path d="M21.298 9.991H4.804L20.645 5.4a.484.484 0 0 0 .33-.6l-.829-2.862A2.71 2.71 0 0 0 17.558 0a2.7 2.7 0 0 0-.745.106L1.94 4.415A2.7 2.7 0 0 0 .105 7.747l.81 2.8v11.514a2.693 2.693 0 0 0 2.69 2.69h5.809a.484.484 0 0 0 0-.967H3.605a1.725 1.725 0 0 1-1.723-1.723v-6.579h18.931v6.579a1.725 1.725 0 0 1-1.723 1.723h-5.809a.483.483 0 1 0 0 .967h5.809a2.693 2.693 0 0 0 2.69-2.69V10.475a.483.483 0 0 0-.483-.483Zm-8.524 4.524 2.054-3.557h2.67l-2.054 3.557Zm-3.788 0 2.054-3.557h2.671l-2.054 3.557Zm-3.788 0 2.054-3.557h2.67l-2.054 3.557Zm1.8-6.258-3.439-3.3 2.577-.746a.5.5 0 0 0 .063.075l3.439 3.3-2.577.746a.5.5 0 0 0-.063-.075m6.478-6.083 3.439 3.3-2.577.746a.5.5 0 0 0-.063-.075l-3.439-3.3 2.572-.745a.5.5 0 0 0 .064.074ZM9.833 3.228l3.439 3.3-2.574.75a.5.5 0 0 0-.063-.075L7.198 3.9l2.577-.746a.5.5 0 0 0 .058.074m7.249-2.193a1.7 1.7 0 0 1 .476-.068 1.73 1.73 0 0 1 1.66 1.244l.695 2.4-1.94.562a.5.5 0 0 0-.064-.075L14.47 1.8ZM1.181 6.169a1.7 1.7 0 0 1 1.028-.825l.289-.083a.5.5 0 0 0 .063.075l3.437 3.303-4.27 1.237-.695-2.4a1.7 1.7 0 0 1 .148-1.31Zm.7 4.789h4.253L4.08 14.515h-2.2Zm14.679 3.557 2.054-3.557h2.2v3.557Zm0 0"/><path d="M14.69 19.584a.48.48 0 0 0-.242-.419l-4.247-2.452a.483.483 0 0 0-.725.419v4.9a.483.483 0 0 0 .725.418l4.247-2.452a.48.48 0 0 0 .242-.414m-4.247 1.615V17.97l2.8 1.615ZM11.347 23.784a.483.483 0 1 0 .483.483.483.483 0 0 0-.483-.483m0 0"/></g></svg>