<svg xmlns="http://www.w3.org/2000/svg" width="35" height="34.998"><path d="M32.177 5.645h-1.129V4.516A4.52 4.52 0 0 0 26.532 0H8.468a4.52 4.52 0 0 0-4.516 4.516v1.129H2.823A2.826 2.826 0 0 0 0 8.468V25.4a2.826 2.826 0 0 0 2.823 2.823h10.725v2.258H12.38a3.926 3.926 0 0 0-3.913 3.952.565.565 0 0 0 .565.565h16.9a.565.565 0 0 0 .565-.558 3.91 3.91 0 0 0-3.912-3.958h-1.133v-2.256h10.725A2.826 2.826 0 0 0 35 25.4V8.468a2.826 2.826 0 0 0-2.823-2.823M5.081 4.516a3.39 3.39 0 0 1 3.387-3.387h18.064a3.39 3.39 0 0 1 3.387 3.387v12.419a3.39 3.39 0 0 1-3.387 3.387H8.468a3.39 3.39 0 0 1-3.387-3.387ZM2.823 6.774h1.129v10.161a4.52 4.52 0 0 0 4.516 4.516h18.064a4.52 4.52 0 0 0 4.516-4.516V6.774h1.129a1.694 1.694 0 0 1 1.694 1.694v14.113H1.129V8.468a1.694 1.694 0 0 1 1.694-1.694M24.56 32.44a2.77 2.77 0 0 1 .755 1.431H9.646a2.79 2.79 0 0 1 2.734-2.258h10.2a2.77 2.77 0 0 1 1.98.827m-4.238-1.956h-5.645v-2.258h5.645ZM32.177 27.1H2.823a1.694 1.694 0 0 1-1.694-1.7v-1.69h32.742v1.69a1.694 1.694 0 0 1-1.694 1.7"/><path d="M15.626 25.045h3.795v.759h-3.795zM12.702 17.5h4.234v1.132a.565.565 0 0 0 .348.522.6.6 0 0 0 .216.043.56.56 0 0 0 .4-.165l2.823-2.823a.565.565 0 0 0 0-.8L17.9 12.586a.565.565 0 0 0-.964.4v1.129h-4.234a.847.847 0 0 1 0-1.694h3.1a.565.565 0 0 0 .565-.565V9.597a.565.565 0 0 0-.56-.565h-3.1a4.234 4.234 0 0 0 0 8.468Zm0-7.339h2.54v1.129h-2.54a1.976 1.976 0 1 0 0 3.952h4.8a.565.565 0 0 0 .565-.565v-.331l1.46 1.46-1.46 1.46v-.334a.565.565 0 0 0-.565-.565h-4.8a3.105 3.105 0 1 1 0-6.21ZM17.101 8.867a.565.565 0 0 0 .964-.4V7.339h4.234a.847.847 0 0 1 0 1.694h-3.1a.565.565 0 0 0-.565.565v2.26a.565.565 0 0 0 .565.565h3.1a4.234 4.234 0 1 0 0-8.468h-4.234V2.823a.565.565 0 0 0-.964-.4l-2.823 2.823a.565.565 0 0 0 0 .8Zm-.165-4.682v.331a.565.565 0 0 0 .565.565h4.8a3.105 3.105 0 1 1 0 6.21h-2.54v-1.133h2.54a1.976 1.976 0 0 0 0-3.952h-4.8a.565.565 0 0 0-.565.565v.331l-1.46-1.46Z"/></svg>