<svg xmlns="http://www.w3.org/2000/svg" width="37.494" height="40.476"><path d="M7.442 23.021h22.611a7.442 7.442 0 0 0 1.013-14.814 7.6 7.6 0 0 0-12.474-5.2 6.759 6.759 0 0 0-12.219 5.21 7.442 7.442 0 0 0 1.07 14.806Zm6.55-1.175a4.756 4.756 0 0 1 9.511 0v.188h-9.5v-.188Zm10.5.188v-.188a5.743 5.743 0 1 0-11.486 0v.188H7.442q-.23 0-.457-.018v-1.58a.345.345 0 0 1 .344-.344h2.033a1.31 1.31 0 0 0 1.264-.916 8.5 8.5 0 0 1 .492-1.186 1.31 1.31 0 0 0-.246-1.542L9.435 15.01a.34.34 0 0 1-.1-.243.34.34 0 0 1 .1-.243l1.992-1.992a.345.345 0 0 1 .486 0l1.438 1.438a1.31 1.31 0 0 0 1.539.245 8.5 8.5 0 0 1 1.186-.492 1.31 1.31 0 0 0 .916-1.264v-2.033a.345.345 0 0 1 .344-.344h2.818a.344.344 0 0 1 .344.344v2.033a1.31 1.31 0 0 0 .916 1.264 8.5 8.5 0 0 1 1.186.492 1.31 1.31 0 0 0 1.542-.246l1.438-1.438a.344.344 0 0 1 .486 0l1.992 1.992a.345.345 0 0 1 0 .486l-1.438 1.438a1.31 1.31 0 0 0-.246 1.542 8.5 8.5 0 0 1 .492 1.186 1.31 1.31 0 0 0 1.264.916h2.033a.344.344 0 0 1 .344.344v1.579c-.151.011-.3.018-.457.018ZM7.029 9.139a.494.494 0 0 0 .439-.642 5.771 5.771 0 0 1 10.579-4.485.493.493 0 0 0 .782.114A6.57 6.57 0 0 1 23.49 2.2a6.644 6.644 0 0 1 6.607 6.463.494.494 0 0 0 .455.481 6.454 6.454 0 0 1 .941 12.725v-1.432a1.333 1.333 0 0 0-1.331-1.331h-2.029a.33.33 0 0 1-.327-.236 9.5 9.5 0 0 0-.55-1.324.33.33 0 0 1 .063-.4l1.438-1.438a1.333 1.333 0 0 0 0-1.882l-1.992-1.992a1.33 1.33 0 0 0-1.882 0l-1.438 1.438a.334.334 0 0 1-.4.063 9.6 9.6 0 0 0-1.324-.55.33.33 0 0 1-.236-.327v-2.031A1.333 1.333 0 0 0 20.156 9.1h-2.818a1.333 1.333 0 0 0-1.331 1.331v2.029a.33.33 0 0 1-.236.327 9.5 9.5 0 0 0-1.324.55.334.334 0 0 1-.4-.063l-1.437-1.44a1.333 1.333 0 0 0-1.882 0l-1.992 1.992a1.333 1.333 0 0 0 0 1.882l1.438 1.438a.33.33 0 0 1 .063.4 9.5 9.5 0 0 0-.55 1.324.33.33 0 0 1-.327.236H7.328a1.333 1.333 0 0 0-1.331 1.331v1.432a6.453 6.453 0 0 1 1.032-12.73m6.964 19.3a.5.5 0 0 0 .137-.349l-.07-4.133a.494.494 0 0 0-.987.016l.067 3.931-2.623 2.752a2.659 2.659 0 1 0 .715.681Zm-4.919 6.116a1.67 1.67 0 1 1 1.67-1.67 1.67 1.67 0 0 1-1.67 1.668Zm-2.229-8.717a.5.5 0 0 0 .139-.344v-1.531a.494.494 0 0 0-.987 0v1.329l-1.257 1.3a2.661 2.661 0 1 0 .708.688Zm-3.569 4.638a1.67 1.67 0 1 1 1.67-1.67 1.67 1.67 0 0 1-1.669 1.668Zm30.941-4.327a2.64 2.64 0 0 0-1.465.442l-1.255-1.3v-1.328a.494.494 0 0 0-.987 0v1.529a.5.5 0 0 0 .139.343l1.4 1.441a2.656 2.656 0 1 0 2.173-1.13Zm0 4.327A1.67 1.67 0 1 1 35.89 28.8a1.67 1.67 0 0 1-1.672 1.674Zm-5.8-.248a2.64 2.64 0 0 0-1.445.429L24.354 27.9l.067-3.931a.493.493 0 0 0-.485-.5h-.008a.494.494 0 0 0-.494.485l-.07 4.133a.5.5 0 0 0 .136.349l2.762 2.9a2.655 2.655 0 1 0 2.159-1.112Zm0 4.327a1.67 1.67 0 1 1 1.67-1.67 1.67 1.67 0 0 1-1.667 1.668Zm-4.271-2.121v-.014q.002-.021-.007-.041v-.016c0-.014-.008-.027-.013-.041v-.012l-.023-.05-.006-.009-.024-.038-.01-.013q-.012-.017-.026-.033l-.01-.012-.037-.036-.046-.035h-.009q-.018-.011-.037-.021l-.018-.009-.016-.008-4.61-1.95v-6.12a.494.494 0 1 0-.987 0v6.12l-4.611 1.952-.016.008-.017.008-.037.021h-.009l-.046.035-.037.036-.01.012q-.014.016-.026.033l-.01.013-.024.038-.006.009-.023.05v.012c0 .013-.009.027-.013.041v.016l-.007.041V37.9a.49.49 0 0 0 .3.455l4.913 2.08.049.018h.008l.055.012h.079a.4.4 0 0 0 .063 0h.016l.055-.012h.008l.049-.018 4.913-2.08a.49.49 0 0 0 .3-.455v-5.468Zm-5.4 1.6L15.1 32.491l3.646-1.543 3.644 1.541Zm-4.418-.8 3.926 1.666v4.339l-3.926-1.662Zm8.838 4.34-3.926 1.662V34.9l3.926-1.662Z"/></svg>