<svg xmlns="http://www.w3.org/2000/svg" width="35" height="35"><path d="M34.271 13.854h-2.654a14.5 14.5 0 0 0-1.56-3.755l1.881-1.881a.72.72 0 0 0 .211-.518.75.75 0 0 0-.211-.518L27.81 3.055a.726.726 0 0 0-1.028 0L24.9 4.936a14.2 14.2 0 0 0-3.755-1.56V.729A.73.73 0 0 0 20.417 0h-5.834a.73.73 0 0 0-.729.729v2.654a14.6 14.6 0 0 0-3.755 1.56l-1.881-1.88a.726.726 0 0 0-1.028 0L3.063 7.19a.72.72 0 0 0-.211.518.75.75 0 0 0 .211.518l1.881 1.881a14.5 14.5 0 0 0-1.56 3.755H.729a.73.73 0 0 0-.729.729v5.833a.73.73 0 0 0 .729.729h2.654a14.5 14.5 0 0 0 1.56 3.755l-1.88 1.882a.72.72 0 0 0-.211.518.75.75 0 0 0 .211.518l4.127 4.127a.726.726 0 0 0 1.028 0l1.882-1.882a14.2 14.2 0 0 0 3.755 1.56v2.64a.73.73 0 0 0 .729.729h5.833a.73.73 0 0 0 .729-.729v-2.654a14.6 14.6 0 0 0 3.755-1.56l1.881 1.881a.726.726 0 0 0 1.028 0l4.127-4.127a.72.72 0 0 0 .211-.518.75.75 0 0 0-.211-.518l-1.881-1.881a14.5 14.5 0 0 0 1.56-3.755h2.654a.73.73 0 0 0 .73-.73v-5.833a.73.73 0 0 0-.729-.722m-.729 5.833h-2.5a.73.73 0 0 0-.715.576 13.1 13.1 0 0 1-1.808 4.346.73.73 0 0 0 .095.911l1.772 1.772-3.092 3.092-1.773-1.764a.73.73 0 0 0-.911-.095 13.1 13.1 0 0 1-4.346 1.808.72.72 0 0 0-.576.707v2.5h-4.375v-2.5a.73.73 0 0 0-.576-.715 12.9 12.9 0 0 1-4.346-1.808.73.73 0 0 0-.911.095l-1.772 1.772-3.092-3.092 1.765-1.772a.73.73 0 0 0 .095-.911 13.1 13.1 0 0 1-1.808-4.346.72.72 0 0 0-.707-.576h-2.5v-4.374h2.5a.73.73 0 0 0 .715-.576 13.1 13.1 0 0 1 1.808-4.346.73.73 0 0 0-.095-.911L4.617 7.708l3.092-3.092 1.772 1.765a.73.73 0 0 0 .911.095 13.1 13.1 0 0 1 4.346-1.808.73.73 0 0 0 .576-.715V1.458h4.375v2.5a.73.73 0 0 0 .576.715 12.9 12.9 0 0 1 4.346 1.808.74.74 0 0 0 .911-.095l1.772-1.772 3.092 3.092-1.766 1.773a.73.73 0 0 0-.095.911 13.1 13.1 0 0 1 1.808 4.346.73.73 0 0 0 .715.576h2.494Z"/><path d="M21.211 10.077a5.831 5.831 0 0 0-8.772 7.394 9.8 9.8 0 0 1 1.426 4.863v.27a.73.73 0 0 0 .729.729h.729v.729a2.188 2.188 0 0 0 4.375 0v-.729h.729a.73.73 0 0 0 .729-.729v-.27a8.5 8.5 0 0 1 1.269-4.608 5.9 5.9 0 0 0 .911-3.143 5.83 5.83 0 0 0-2.122-4.506Zm-2.982 13.985a.729.729 0 1 1-1.458 0v-.729h1.458Zm2.953-7.124a9.8 9.8 0 0 0-1.488 4.936h-4.4a11.4 11.4 0 0 0-1.6-5.123 4.4 4.4 0 0 1-.5-3.011 4.34 4.34 0 0 1 3.413-3.449 4.385 4.385 0 0 1 5.265 4.295 4.34 4.34 0 0 1-.69 2.352"/></svg>