<svg xmlns="http://www.w3.org/2000/svg" width="35" height="35"><path d="M34.417 20V6.417a1.75 1.75 0 0 0-1.75-1.75h-5.291a1 1 0 0 0-.058-.092c-.2-.247-.439-.5-.748-.821-.308-.3-.566-.536-.8-.732a1.27 1.27 0 0 0-1.342-.193l-1.686.719a10.6 10.6 0 0 0-2.38-.987l-.679-1.7A1.3 1.3 0 0 0 18.608.05a12.4 12.4 0 0 0-2.21 0 1.3 1.3 0 0 0-1.078.816l-.678 1.7a10.6 10.6 0 0 0-2.38.987l-1.683-.723a1.27 1.27 0 0 0-1.336.185A12 12 0 0 0 7.69 4.563c-.027.031-.041.068-.064.1H2.333a1.75 1.75 0 0 0-1.75 1.75V20A1.16 1.16 0 0 0 0 21v11.667A2.333 2.333 0 0 0 2.333 35h30.334A2.333 2.333 0 0 0 35 32.667V21a1.16 1.16 0 0 0-.583-1M33.25 6.417v13.416h-1.274a1.75 1.75 0 0 0-1.643-1.167h-3.294l-.254-.6a10.6 10.6 0 0 0 .986-2.38l1.7-.68a1.3 1.3 0 0 0 .811-1.072 11 11 0 0 0 .05-1.107 11 11 0 0 0-.049-1.1 1.31 1.31 0 0 0-.814-1.08l-1.7-.677a10.6 10.6 0 0 0-.984-2.37l.715-1.688c.011-.025.012-.052.022-.078h5.141a.583.583 0 0 1 .583.582Zm-7 14a.583.583 0 0 1 .583-.583h3.5a.583.583 0 0 1 .583.583v2.333a.583.583 0 0 1-.583.583h-3.5a.583.583 0 0 1-.583-.583Zm-17-15.829c.284-.277.518-.491.748-.68a.13.13 0 0 1 .122-.008l1.955.835A.58.58 0 0 0 12.6 4.7a9.4 9.4 0 0 1 2.608-1.083.58.58 0 0 0 .4-.35L16.4 1.3a.14.14 0 0 1 .107-.088 11 11 0 0 1 1.99 0 .14.14 0 0 1 .1.085l.787 1.972a.58.58 0 0 0 .4.35A9.4 9.4 0 0 1 22.4 4.7a.58.58 0 0 0 .53.037l1.952-.837a.13.13 0 0 1 .134.013c.22.182.455.4.729.664.277.283.491.518.681.748a.13.13 0 0 1 .006.126L25.6 7.408a.58.58 0 0 0 .037.53 9.4 9.4 0 0 1 1.083 2.608.58.58 0 0 0 .35.4l1.97.786a.14.14 0 0 1 .088.107 10 10 0 0 1 .043.991 10 10 0 0 1-.044 1 .14.14 0 0 1-.085.1l-1.971.788a.58.58 0 0 0-.35.4 9.4 9.4 0 0 1-1.083 2.61.58.58 0 0 0-.037.53l.292.687a1.75 1.75 0 0 0-.7.886h-3.508a8.167 8.167 0 1 0-8.37 0H9.809a1.75 1.75 0 0 0-.7-.886l.291-.685a.58.58 0 0 0-.037-.53 9.4 9.4 0 0 1-1.081-2.61.58.58 0 0 0-.35-.4l-1.97-.786a.14.14 0 0 1-.087-.107 10 10 0 0 1-.043-.991 10 10 0 0 1 .044-1 .14.14 0 0 1 .085-.1l1.972-.788a.58.58 0 0 0 .35-.4 9.4 9.4 0 0 1 1.083-2.61.58.58 0 0 0 .037-.53l-.834-1.955a.13.13 0 0 1 .013-.134c.183-.219.4-.457.664-.731Zm8.25 15.245a7 7 0 1 1 7-7 7 7 0 0 1-7 7m-13.417.583a.583.583 0 0 1 .583-.583h3.5a.583.583 0 0 1 .583.583v2.334a.583.583 0 0 1-.583.583h-3.5a.583.583 0 0 1-.583-.583ZM2.333 5.833h5.141a1 1 0 0 0 .022.078L8.215 7.6a10.6 10.6 0 0 0-.986 2.38l-1.7.678a1.3 1.3 0 0 0-.811 1.072 11 11 0 0 0-.05 1.108 11 11 0 0 0 .049 1.1 1.31 1.31 0 0 0 .814 1.08l1.7.677a10.6 10.6 0 0 0 .986 2.379l-.254.6h-3.3a1.75 1.75 0 0 0-1.643 1.167H1.75V6.417a.583.583 0 0 1 .583-.584m31.5 26.833a1.167 1.167 0 0 1-1.167 1.167H2.333a1.167 1.167 0 0 1-1.167-1.167V21h1.75v1.75a1.75 1.75 0 0 0 1.75 1.75h3.5a1.75 1.75 0 0 0 1.75-1.75V21h15.167v1.75a1.75 1.75 0 0 0 1.75 1.75h3.5a1.75 1.75 0 0 0 1.75-1.75V21h1.75Z"/><path d="M17.5 8.167a4.667 4.667 0 1 0 4.667 4.667A4.667 4.667 0 0 0 17.5 8.167m0 8.167a3.5 3.5 0 1 1 3.5-3.5 3.5 3.5 0 0 1-3.5 3.5M5.833 22.167H7A.584.584 0 1 0 7 21H5.833a.584.584 0 1 0 0 1.167M28 22.167h1.167a.584.584 0 0 0 0-1.167H28a.584.584 0 1 0 0 1.167M13.307 24.745a.583.583 0 0 0-.813-.135l-4.083 2.917a.583.583 0 0 0 0 .949l4.083 2.917a.583.583 0 0 0 .678-.949L9.754 28l3.418-2.442a.583.583 0 0 0 .135-.813M26.589 27.526l-4.083-2.917a.583.583 0 1 0-.678.949L25.246 28l-3.418 2.442a.583.583 0 1 0 .678.948l4.083-2.917a.583.583 0 0 0 0-.948ZM19.348 24.176l-4.667 7a.583.583 0 1 0 .971.647l4.667-7a.583.583 0 0 0-.971-.647"/></svg>