<svg width="60" height="60" viewBox="0 0 60 60" fill="none" xmlns="http://www.w3.org/2000/svg">
<path fill-rule="evenodd" clip-rule="evenodd" d="M29.5588 16.5489C29.4514 16.5476 29.3458 16.5221 29.2501 16.4743C29.1544 16.4265 29.071 16.3577 29.0065 16.2733C28.942 16.1888 28.8981 16.091 28.878 15.9872C28.858 15.8834 28.8624 15.7765 28.891 15.6746L30.6515 9.22094C30.6959 9.05051 30.8072 8.90441 30.961 8.81478C31.1149 8.72515 31.2986 8.69933 31.4718 8.743C31.645 8.78667 31.7934 8.89625 31.8845 9.04764C31.9756 9.19903 32.0018 9.37983 31.9574 9.55026L30.2265 16.0404C30.1851 16.1843 30.0979 16.3113 29.9777 16.4028C29.8575 16.4943 29.7107 16.5455 29.5588 16.5489ZM48.2299 36.8032H10.1296C9.40261 36.8047 8.70541 37.0874 8.18848 37.5904C7.67155 38.0934 7.37637 38.7763 7.36665 39.4916V50.9346C7.36859 51.2897 7.4416 51.6409 7.58152 51.9682C7.72144 52.2955 7.92552 52.5925 8.1821 52.8421C8.43868 53.0918 8.74273 53.2893 9.07688 53.4233C9.41104 53.5572 9.76874 53.6251 10.1296 53.623H49.8704C50.2295 53.624 50.5851 53.5551 50.917 53.4203C51.2489 53.2855 51.5504 53.0876 51.8043 52.8377C52.0582 52.5879 52.2594 52.2911 52.3963 51.9645C52.5332 51.6379 52.6032 51.2879 52.6023 50.9346V39.4945C52.6003 38.7821 52.3119 38.0994 51.8 37.5957C51.2881 37.0919 50.5944 36.808 49.8704 36.8061L48.2299 36.8032ZM47.5621 35.4583V13.7993H41.8542C41.0906 13.7947 40.3597 13.4942 39.8198 12.9628C39.2799 12.4315 38.9745 11.7122 38.9698 10.9608V5.34494H17.7786C16.3588 5.35303 14.9999 5.91367 13.9987 6.90444C12.9975 7.89521 12.4353 9.23561 12.4349 10.6329V35.4612L47.5621 35.4583ZM48.9287 13.2295V35.4612H49.8704C50.9605 35.4604 52.0067 35.8841 52.7804 36.6398C53.5541 37.3955 53.9926 38.4218 54 39.4945V50.9375C53.9992 52.0152 53.5636 53.0485 52.789 53.8103C52.0144 54.5721 50.9641 55 49.869 55H10.1296C9.03445 54.9996 7.98431 54.5713 7.20995 53.8093C6.4356 53.0472 6.00039 52.0137 6 50.936V39.4945C6.00743 38.4218 6.44588 37.3955 7.2196 36.6398C7.99333 35.8841 9.03946 35.4604 10.1296 35.4612H11.0713V10.6329C11.0705 8.87906 11.7758 7.19635 13.033 5.95319C14.2901 4.71003 15.9965 4.00771 17.7786 4L39.6687 4C39.861 4.00648 40.0445 4.08098 40.1855 4.20983L48.6859 12.5753C48.7824 12.6534 48.8557 12.7557 48.8982 12.8713C48.9406 12.9869 48.9507 13.1117 48.9273 13.2325L48.9287 13.2295ZM40.3661 6.33143V10.9608C40.3684 11.3465 40.5252 11.7158 40.8023 11.9886C41.0795 12.2614 41.4548 12.4156 41.8468 12.4179H46.5849L40.3661 6.33143ZM42.5871 31.607H18.3561C18.1765 31.5989 18.007 31.5229 17.8828 31.395C17.7587 31.267 17.6894 31.0969 17.6894 30.92C17.6894 30.7431 17.7587 30.5729 17.8828 30.445C18.007 30.317 18.1765 30.2411 18.3561 30.2329H42.5826C42.7622 30.2411 42.9317 30.317 43.0559 30.445C43.1801 30.5729 43.2494 30.7431 43.2494 30.92C43.2494 31.0969 43.1801 31.267 43.0559 31.395C42.9317 31.5229 42.7622 31.5989 42.5826 31.607H42.5871ZM42.5871 26.3788H18.3561C18.2637 26.383 18.1714 26.3688 18.0847 26.3369C17.9981 26.305 17.9189 26.2562 17.852 26.1933C17.785 26.1304 17.7318 26.0549 17.6954 25.9712C17.659 25.8875 17.6402 25.7974 17.6402 25.7063C17.6402 25.6153 17.659 25.5252 17.6954 25.4415C17.7318 25.3578 17.785 25.2822 17.852 25.2194C17.9189 25.1565 17.9981 25.1076 18.0847 25.0758C18.1714 25.0439 18.2637 25.0296 18.3561 25.0339H42.5826C42.7637 25.0339 42.9373 25.1046 43.0653 25.2306C43.1933 25.3566 43.2652 25.5274 43.2652 25.7056C43.2652 25.8838 43.1933 26.0546 43.0653 26.1806C42.9373 26.3066 42.7637 26.3773 42.5826 26.3773L42.5871 26.3788ZM42.5871 21.1797H18.3561C18.1765 21.1716 18.007 21.0956 17.8828 20.9677C17.7587 20.8397 17.6894 20.6696 17.6894 20.4927C17.6894 20.3157 17.7587 20.1456 17.8828 20.0177C18.007 19.8897 18.1765 19.8138 18.3561 19.8056H42.5826C42.7622 19.8138 42.9317 19.8897 43.0559 20.0177C43.1801 20.1456 43.2494 20.3157 43.2494 20.4927C43.2494 20.6696 43.1801 20.8397 43.0559 20.9677C42.9317 21.0956 42.7622 21.1716 42.5826 21.1797H42.5871ZM20.9369 50.4289C20.8447 50.4305 20.7531 50.4138 20.6676 50.3798C20.582 50.3458 20.5044 50.2952 20.4391 50.231C20.3739 50.1668 20.3225 50.0904 20.2879 50.0062C20.2534 49.9221 20.2364 49.8319 20.238 49.7412V40.6894C20.2397 40.601 20.2592 40.5138 20.2953 40.4328C20.3315 40.3519 20.3835 40.2787 20.4485 40.2177C20.5134 40.1566 20.59 40.1087 20.6738 40.0769C20.7577 40.0451 20.8471 40.0299 20.9369 40.0322H25.1879C25.6423 40.0229 26.0941 40.103 26.5167 40.2677C26.9394 40.4324 27.3243 40.6785 27.6491 40.9915C27.9738 41.3045 28.2318 41.6781 28.408 42.0905C28.5841 42.5029 28.6749 42.9458 28.6749 43.3931C28.6749 43.8405 28.5841 44.2833 28.408 44.6957C28.2318 45.1081 27.9738 45.4818 27.6491 45.7948C27.3243 46.1078 26.9394 46.3539 26.5167 46.5186C26.0941 46.6833 25.6423 46.7633 25.1879 46.754H21.6343V49.7412C21.6324 49.9227 21.5583 50.0964 21.428 50.2249C21.2977 50.3534 21.1214 50.4267 20.9369 50.4289ZM21.6358 45.3829H25.1893C25.7289 45.3829 26.2464 45.1719 26.6279 44.7965C27.0094 44.421 27.2238 43.9117 27.2238 43.3807C27.2238 42.8497 27.0094 42.3405 26.6279 41.965C26.2464 41.5896 25.7289 41.3786 25.1893 41.3786H21.6358V45.3829ZM35.6309 50.4319C35.5387 50.4334 35.4471 50.4167 35.3616 50.3827C35.2761 50.3487 35.1984 50.2981 35.1332 50.2339C35.068 50.1697 35.0166 50.0933 34.982 50.0091C34.9475 49.925 34.9305 49.8348 34.9321 49.7441V46.1887L31.6154 41.077C31.5655 41.0025 31.5311 40.919 31.514 40.8314C31.4969 40.7437 31.4975 40.6536 31.5158 40.5662C31.5341 40.4788 31.5697 40.3958 31.6205 40.3219C31.6714 40.248 31.7366 40.1848 31.8123 40.1357C31.8881 40.0866 31.9729 40.0527 32.0619 40.0359C32.151 40.019 32.2425 40.0196 32.3314 40.0376C32.4202 40.0556 32.5045 40.0907 32.5796 40.1407C32.6547 40.1908 32.719 40.255 32.7688 40.3295L35.6221 44.7519L38.4753 40.3295C38.576 40.179 38.7334 40.074 38.9128 40.0376C39.0921 40.0013 39.2788 40.0366 39.4318 40.1357C39.5848 40.2348 39.6914 40.3897 39.7284 40.5662C39.7653 40.7427 39.7295 40.9265 39.6287 41.077L36.3195 46.1857V49.7412C36.3176 49.9213 36.2448 50.0936 36.1163 50.2219C35.9879 50.3502 35.8139 50.4244 35.6309 50.4289V50.4319ZM34.0526 16.4294C33.9168 16.4262 33.7849 16.3842 33.673 16.3084C33.5612 16.2326 33.4742 16.1264 33.4226 16.0028C33.3711 15.8791 33.3573 15.7433 33.3829 15.6121C33.4086 15.4808 33.4725 15.3598 33.5669 15.2637L36.3298 12.5447L33.5654 9.79651C33.4418 9.66873 33.3738 9.49843 33.376 9.32199C33.3781 9.14554 33.4503 8.97692 33.5771 8.85214C33.7039 8.72737 33.8753 8.65632 34.0546 8.65416C34.2338 8.65201 34.4069 8.71893 34.5367 8.84063L37.8149 12.0376C37.9318 12.1762 37.9958 12.3507 37.9958 12.5308C37.9958 12.711 37.9318 12.8855 37.8149 13.0241L34.5382 16.2196C34.4099 16.3486 34.2359 16.4238 34.0526 16.4294ZM26.7973 16.4294C26.614 16.4238 26.44 16.3486 26.3117 16.2196L23.0616 13.0226C22.9302 12.891 22.8566 12.7139 22.8566 12.5294C22.8566 12.3449 22.9302 12.1678 23.0616 12.0361L26.3102 8.83917C26.44 8.71747 26.6131 8.65056 26.7924 8.65271C26.9717 8.65486 27.143 8.72591 27.2698 8.85069C27.3966 8.97546 27.4688 9.14408 27.471 9.32053C27.4732 9.49698 27.4052 9.66727 27.2815 9.79506L24.5186 12.5447L27.2815 15.2637C27.3759 15.3598 27.4398 15.4808 27.4655 15.6121C27.4911 15.7433 27.4773 15.8791 27.4258 16.0028C27.3743 16.1264 27.2872 16.2326 27.1754 16.3084C27.0635 16.3842 26.9331 16.4262 26.7973 16.4294Z" fill="#282928"/>
</svg>
