<svg xmlns="http://www.w3.org/2000/svg" width="44.638" height="35"><path fill-rule="evenodd" d="M22.491 7.545a.68.68 0 0 1-.676.678h-.083a.678.678 0 0 1 0-1.356h.083a.676.676 0 0 1 .676.678m-.344 10.679a.675.675 0 0 1 .676-.672h.082a.676.676 0 1 1 0 1.351h-.079a.676.676 0 0 1-.676-.678Zm-6.928-7.476v4.274h3.519v-2.138a.676.676 0 0 1 .676-.678h5.133V5.693h-4.269v3.7h1.529a.676.676 0 1 1 0 1.351ZM25.9 12.885a.676.676 0 0 1-.676.678H20.09v6.516h4.269v-3.7h-1.533a.676.676 0 1 1 0-1.351h6.589v-4.281H25.9Zm-11.357 3.487h4.195v4.382a.676.676 0 0 0 .676.678h5.622a.676.676 0 0 0 .676-.678v-4.383h4.383a.676.676 0 0 0 .676-.678v-5.614a.676.676 0 0 0-.676-.678H25.9V5.014a.676.676 0 0 0-.674-.678h-5.624a.676.676 0 0 0-.676.678v4.382h-4.383a.676.676 0 0 0-.676.678v5.619a.676.676 0 0 0 .676.678Zm24.641 17.271H5.455a4.106 4.106 0 0 1-4.046-3.425h16.3l.667 2.057a.68.68 0 0 0 .643.467h6.607a.68.68 0 0 0 .643-.467l.667-2.057h16.29a4.106 4.106 0 0 1-4.046 3.425Zm-13.672-3.424h-6.386l.38 1.168h5.626ZM5.006 12.343v16.525h34.626V12.342a1.52 1.52 0 0 0-1.52-1.516h-3.077v13.6H36.7a.675.675 0 1 1 0 1.35H7.938a.676.676 0 1 1 0-1.351h1.665v-13.6H6.526a1.52 1.52 0 0 0-1.519 1.516Zm7.1-10.992a1.156 1.156 0 0 0-1.154 1.157v21.921h22.73V2.507a1.156 1.156 0 0 0-1.156-1.157Zm32.331 27.716a.66.66 0 0 0-.478-.2h-2.975V12.342a2.88 2.88 0 0 0-2.872-2.872h-3.077V2.507A2.51 2.51 0 0 0 32.526 0H12.109a2.51 2.51 0 0 0-2.506 2.507V9.47H6.526a2.88 2.88 0 0 0-2.872 2.872v16.527H.676a.676.676 0 0 0-.676.678A5.463 5.463 0 0 0 5.455 35h33.729a5.463 5.463 0 0 0 5.454-5.454.67.67 0 0 0-.198-.479Z"/></svg>