<svg xmlns="http://www.w3.org/2000/svg" width="35" height="35"><path fill-rule="evenodd" d="M8.333 0A.834.834 0 0 0 7.5.833v18.334a.834.834 0 0 0 .833.833h8.333v6.667h-2.5a.834.834 0 0 0-.833.833V30h-5v-2.5a.834.834 0 0 0-.833-.833H.833A.834.834 0 0 0 0 27.5v6.667A.834.834 0 0 0 .833 35H7.5a.834.834 0 0 0 .833-.833v-2.5h5v2.5a.834.834 0 0 0 .833.833h6.667a.834.834 0 0 0 .833-.833v-2.5h5v2.5A.834.834 0 0 0 27.5 35h6.667a.834.834 0 0 0 .833-.833V27.5a.834.834 0 0 0-.833-.833H27.5a.834.834 0 0 0-.833.833V30h-5v-2.5a.834.834 0 0 0-.833-.833h-2.5V20h8.333a.834.834 0 0 0 .833-.833V.833A.834.834 0 0 0 26.667 0Zm.833 1.667h10.32l-.833 1.667H9.167Zm12.181 0h4.486v1.666h-5.319ZM9.167 5h16.666v13.333H9.167Zm5 3.333a.83.83 0 0 0-.589.244l-2.5 2.5a.83.83 0 0 0 0 1.178l2.5 2.5a.833.833 0 0 0 1.178-1.178l-1.911-1.911 1.911-1.911a.833.833 0 0 0-.589-1.423Zm6.667 0a.833.833 0 0 0-.589 1.423l1.911 1.911-1.911 1.911a.833.833 0 0 0 1.178 1.178l2.5-2.5a.83.83 0 0 0 0-1.178l-2.5-2.5a.83.83 0 0 0-.59-.245Zm-2.5 1.25a.83.83 0 0 0-.688.371l-1.667 2.5a.834.834 0 1 0 1.387.925l1.667-2.5a.833.833 0 0 0-.7-1.3ZM1.667 28.333h5v5h-5Zm13.333 0h5v5h-5Zm13.333 0h5v5h-5Z"/></svg>