<svg xmlns="http://www.w3.org/2000/svg" width="35" height="35"><path d="M33.8 7.312h-1.079V1.628A1.63 1.63 0 0 0 31.093 0H3.907a1.63 1.63 0 0 0-1.628 1.628v5.684H1.2A1.2 1.2 0 0 0 0 8.508v19.141a1.2 1.2 0 0 0 1.2 1.2h10.659l-1.5 2.8H8.272a.855.855 0 0 0-.854.854v1.643a.855.855 0 0 0 .854.854h4.67a.513.513 0 0 0 0-1.025h-4.5v-1.3H26.4v1.3H15.334a.513.513 0 1 0 0 1.025H26.57a.855.855 0 0 0 .854-.854V32.5a.855.855 0 0 0-.854-.854h-1.927l-1.5-2.8H33.8a1.2 1.2 0 0 0 1.2-1.2V8.508a1.2 1.2 0 0 0-1.2-1.2ZM14.1 31.648a6.07 6.07 0 0 1 6.81 0Zm9.384 0H22.5a7.08 7.08 0 0 0-10 0h-.98l1.5-2.8h8.956Zm10.495-6.286h-9.246a.513.513 0 0 0 0 1.025h9.242v1.262a.17.17 0 0 1-.171.171H1.2a.17.17 0 0 1-.171-.171v-1.262h21.312a.513.513 0 0 0 0-1.025H1.025V8.508a.17.17 0 0 1 .175-.171h1.079v2.155a.513.513 0 0 0 1.025 0V5.376h22.411a.513.513 0 1 0 0-1.025H3.3V1.628a.6.6 0 0 1 .6-.6h27.193a.6.6 0 0 1 .6.6v2.723h-3.585a.513.513 0 1 0 0 1.025H31.7v17.239a.6.6 0 0 1-.6.6h-6.4v-1.669a.73.73 0 0 0-.636-.723l-.627-.08a6 6 0 0 0-.325-.784l.387-.5a.73.73 0 0 0-.062-.961l-1.684-1.684a.73.73 0 0 0-.961-.062l-.5.387a6 6 0 0 0-.784-.325l-.081-.627a.73.73 0 0 0-.723-.636h-2.395a.73.73 0 0 0-.723.636l-.08.627a6 6 0 0 0-.784.325l-.5-.387a.73.73 0 0 0-.961.061L11.575 18.5a.73.73 0 0 0-.061.961l.387.5a6 6 0 0 0-.325.784l-.627.081a.73.73 0 0 0-.636.723v1.672h-6.4a.6.6 0 0 1-.6-.6v-9.737a.513.513 0 0 0-1.025 0v9.731a1.63 1.63 0 0 0 1.628 1.628h27.177a1.63 1.63 0 0 0 1.628-1.628V8.337H33.8a.17.17 0 0 1 .171.171v16.853ZM17.5 18.525a4.21 4.21 0 0 0-4.184 4.693h-1.979v-1.411l.556-.071a.73.73 0 0 0 .605-.514 5.2 5.2 0 0 1 .393-.948.73.73 0 0 0-.064-.792l-.343-.444 1.316-1.317.444.343a.73.73 0 0 0 .792.064 5.2 5.2 0 0 1 .949-.393.73.73 0 0 0 .514-.605l.071-.556h1.86l.071.556a.73.73 0 0 0 .514.605 5.2 5.2 0 0 1 .948.393.73.73 0 0 0 .792-.064l.444-.343 1.316 1.316-.343.444a.73.73 0 0 0-.064.792 5 5 0 0 1 .393.948.73.73 0 0 0 .606.514l.556.071v1.411h-1.979a4.206 4.206 0 0 0-4.184-4.692m3.187 4.212a3 3 0 0 1-.036.481h-6.3a3 3 0 0 1-.037-.481 3.187 3.187 0 0 1 6.373 0"/><path d="M10.786 13.281a.513.513 0 1 0 .725-.725l-1.523-1.523 1.523-1.523a.513.513 0 0 0-.725-.725L8.9 10.671a.513.513 0 0 0 0 .725ZM23.488 13.281a.513.513 0 0 0 .725 0l1.886-1.886a.513.513 0 0 0 0-.725l-1.886-1.886a.513.513 0 1 0-.725.725l1.523 1.523-1.523 1.523a.513.513 0 0 0 0 .726M19.352 11.046l-.005 2.166a.513.513 0 0 0 .511.514.513.513 0 0 0 .513-.511l.005-2.168 1.356-2.083a.513.513 0 1 0-.859-.559l-1.009 1.551-1.02-1.563a.513.513 0 1 0-.859.561ZM14.139 13.727a.513.513 0 0 0 .513-.513v-1.461h.749a1.8 1.8 0 1 0 0-3.592h-1.262a.513.513 0 0 0-.513.513v4.54a.513.513 0 0 0 .513.513m.513-4.54h.749a.771.771 0 1 1 0 1.541h-.749Z"/><circle cx=".513" cy=".513" r=".513" transform="translate(4.642 2.175)"/><circle cx=".513" cy=".513" r=".513" transform="translate(6.975 2.175)"/><circle cx=".513" cy=".513" r=".513" transform="translate(9.307 2.175)"/></svg>