<svg xmlns="http://www.w3.org/2000/svg" width="27.999" height="40.476"><path d="M26.359 10.485H14.503V7.727h8.178a.5.5 0 0 0 .5-.5V4.948a2.5 2.5 0 1 0-1.008 0v1.771h-7.675v-1.8h1.416a.5.5 0 0 0 .5-.5V.579a.5.5 0 0 0-.5-.5H12.08a.5.5 0 0 0-.5.5v3.839a.5.5 0 0 0 .5.5h1.416v1.8H6.102V4.975h1.773a.5.5 0 0 0 .437-.756L6.035.276a.5.5 0 0 0-.873 0L2.885 4.219a.5.5 0 0 0 .437.756h1.773v2.248a.5.5 0 0 0 .5.5h7.9v2.759H1.64A1.64 1.64 0 0 0 0 12.122v5.548a1.64 1.64 0 0 0 1.64 1.64h11.856v3.54c-3.088.086-6.056.967-6.056 2.575v12.47c0 1.7 3.3 2.582 6.56 2.582s6.56-.887 6.56-2.582V25.424c0-1.608-2.969-2.488-6.056-2.575v-3.54H26.36a1.64 1.64 0 0 0 1.64-1.64v-5.545a1.64 1.64 0 0 0-1.641-1.639M21.19 2.5a1.491 1.491 0 1 1 1.491 1.491A1.493 1.493 0 0 1 21.19 2.5m-8.607-1.416h2.832v2.832h-2.832Zm-6.986.453 1.4 2.431H4.194Zm8.4 37.933c-3.592 0-5.552-1.04-5.552-1.575v-2.716a14.09 14.09 0 0 0 11.1 0v2.715c.007.535-1.953 1.575-5.545 1.575Zm0-4.157c-3.592 0-5.552-1.04-5.552-1.575v-2.716a14.09 14.09 0 0 0 11.1 0v2.715c.007.535-1.953 1.575-5.545 1.575Zm0-4.156c-3.592 0-5.552-1.04-5.552-1.575v-2.716a14.09 14.09 0 0 0 11.1 0v2.715c.007.534-1.953 1.575-5.545 1.575Zm5.552-5.731c0 .534-1.96 1.575-5.552 1.575s-5.552-1.04-5.552-1.575 1.96-1.575 5.552-1.575 5.555 1.039 5.555 1.573Zm7.439-7.754a.633.633 0 0 1-.632.632H1.64a.633.633 0 0 1-.632-.632v-5.547a.633.633 0 0 1 .632-.632h24.72a.633.633 0 0 1 .632.632v5.545Zm-11.072-5.2H12.08a.5.5 0 0 0-.5.5v3.839a.5.5 0 0 0 .5.5h3.839a.5.5 0 0 0 .5-.5v-3.833a.5.5 0 0 0-.5-.504Zm-.5 3.839h-2.832v-2.83h2.832Zm-9.381-3.639a.5.5 0 0 0-.873 0l-2.277 3.943a.5.5 0 0 0 .437.756h4.552a.5.5 0 0 0 .437-.756Zm-1.84 3.691 1.4-2.431 1.4 2.431ZM22.682 12.4a2.5 2.5 0 1 0 2.5 2.5 2.5 2.5 0 0 0-2.5-2.5m0 3.991a1.491 1.491 0 1 1 1.491-1.491 1.493 1.493 0 0 1-1.491 1.49Zm-3.823 12.265a.5.5 0 0 1-.3.645 9 9 0 0 1-.517.167.5.5 0 0 1-.14.02.5.5 0 0 1-.139-.988c.159-.046.312-.1.456-.147a.5.5 0 0 1 .64.301Zm-2.034.585a.5.5 0 0 1-.427.57 17 17 0 0 1-2.4.164.504.504 0 0 1 0-1.008 16 16 0 0 0 2.256-.154.5.5 0 0 1 .571.426Zm2.034 3.666a.5.5 0 0 1-.3.645 8 8 0 0 1-.517.167.5.5 0 0 1-.14.02.5.5 0 0 1-.139-.988c.16-.046.313-.1.456-.147a.5.5 0 0 1 .64.302Zm-2.034.586a.5.5 0 0 1-.427.57 17 17 0 0 1-2.4.164.504.504 0 0 1 0-1.008 16 16 0 0 0 2.256-.154.5.5 0 0 1 .57.427Zm2.034 3.666a.5.5 0 0 1-.3.645 9 9 0 0 1-.517.167.5.5 0 0 1-.14.02.5.5 0 0 1-.139-.988c.159-.046.312-.1.456-.147a.5.5 0 0 1 .644.3Zm-2.034.585a.5.5 0 0 1-.427.57 17 17 0 0 1-2.4.164.504.504 0 0 1 0-1.008 16 16 0 0 0 2.256-.154.5.5 0 0 1 .571.428"/></svg>