<svg xmlns="http://www.w3.org/2000/svg" width="31.82" height="35"><g transform="translate(-2 -1)"><path d="M31.556 7.364h-7.283V3.475A2.48 2.48 0 0 0 21.8 1H4.475A2.48 2.48 0 0 0 2 3.475v30.05A2.48 2.48 0 0 0 4.475 36H21.8a2.48 2.48 0 0 0 2.475-2.475v-3.889h7.283a2.265 2.265 0 0 0 2.262-2.262V9.626a2.265 2.265 0 0 0-2.262-2.262Zm.671 2.262v.92h-7.91a.56.56 0 0 1-.5-.312l-.64-1.279h8.383a.67.67 0 0 1 .667.671M17.418 2.591l-.8 1.591H9.651l-.8-1.591ZM21.8 34.409H4.475a.887.887 0 0 1-.885-.885v-.706h19.092v.706a.886.886 0 0 1-.882.885m.885-3.182H3.591V3.475a.887.887 0 0 1 .885-.885h2.6l1.372 2.744a.8.8 0 0 0 .711.439h7.955a.8.8 0 0 0 .711-.439L19.2 2.591h2.6a.886.886 0 0 1 .885.885v3.888H12.217a2.265 2.265 0 0 0-2.262 2.262v17.748a2.265 2.265 0 0 0 2.262 2.262h10.465Zm8.874-3.182H12.217a.67.67 0 0 1-.671-.671V9.626a.67.67 0 0 1 .671-.671H21.4l.994 1.989a2.14 2.14 0 0 0 1.928 1.193h7.91v15.237a.67.67 0 0 1-.671.671Z"/><path d="M14.959 18.268a.8.8 0 0 0 1.125-1.125l-1.028-1.029 1.028-1.028a.8.8 0 0 0-1.125-1.125l-1.591 1.591a.8.8 0 0 0 0 1.125ZM18.348 18.416a.8.8 0 0 0 1.068-.356l1.593-3.183a.8.8 0 0 0-1.424-.711l-1.591 3.182a.8.8 0 0 0 .354 1.068M22.914 18.268a.8.8 0 0 0 1.125 0l1.591-1.591a.8.8 0 0 0 0-1.125l-1.591-1.591a.8.8 0 0 0-1.125 1.125l1.028 1.028-1.028 1.028a.8.8 0 0 0 0 1.126M13.936 23.273h7.95a.8.8 0 1 0 0-1.591h-7.95a.8.8 0 1 0 0 1.591M28.25 24.864H13.936a.8.8 0 1 0 0 1.591H28.25a.8.8 0 1 0 0-1.591"/><circle cx="1" cy="1" r="1" transform="translate(18.364 10)"/><ellipse cx=".5" cy="1" rx=".5" ry="1" transform="translate(14.364 10)"/></g></svg>