<svg xmlns="http://www.w3.org/2000/svg" width="35.003" height="35"><path d="M34.268 4.377A.73.73 0 0 0 35 3.648 3.515 3.515 0 0 0 31.618 0H3.646A3.65 3.65 0 0 0 0 3.648v27.707A3.65 3.65 0 0 0 3.646 35h27.706A3.65 3.65 0 0 0 35 31.355V6.565a.73.73 0 0 0-.729-.729H4.375a.729.729 0 1 0 0 1.458h29.164v24.061a2.187 2.187 0 0 1-2.187 2.187H3.646a2.187 2.187 0 0 1-2.187-2.187V3.648a2.187 2.187 0 0 1 2.187-2.187h27.7a2.08 2.08 0 0 1 2.192 2.187.73.73 0 0 0 .73.729"/><path d="M5.833 2.915H4.375a.729.729 0 1 0 0 1.458h1.458a.729.729 0 0 0 0-1.458M10.207 2.915H8.749a.729.729 0 0 0 0 1.458h1.458a.729.729 0 0 0 0-1.458M31.352 2.915h-1.454a.729.729 0 1 0 0 1.458h1.458a.729.729 0 0 0 0-1.458ZM19.686 15.314h-1.458a.729.729 0 1 0 0 1.458h.729v10.205a1.373 1.373 0 0 1-1.458 1.458h-6.562a.729.729 0 1 0 0 1.458h6.562a2.835 2.835 0 0 0 2.916-2.751v-11.1a.73.73 0 0 0-.729-.729ZM12.395 19.693h-1.459a.73.73 0 0 0-.729.729v.825l-4.52-3.013 4.52-3.013v.825a.73.73 0 0 0 .729.729h1.458a.729.729 0 0 0 0-1.458h-.728v-1.458a.729.729 0 0 0-1.134-.607L3.97 17.627a.73.73 0 0 0 0 1.213l6.562 4.375a.729.729 0 0 0 1.134-.607V21.15h.729a.729.729 0 0 0 0-1.458Z"/><path d="M24.061 10.939h-6.562a2.835 2.835 0 0 0-2.916 2.751v11.103a.73.73 0 0 0 .729.729h1.454a.729.729 0 0 0 0-1.458h-.729V13.856a1.373 1.373 0 0 1 1.458-1.458h6.562a.729.729 0 1 0 0-1.458ZM31.229 22.201a.7.7 0 0 0-.2-.2l-6.562-4.375a.729.729 0 0 0-1.134.607v1.458h-.729a.729.729 0 0 0 0 1.458h1.458a.73.73 0 0 0 .729-.729v-.825l4.52 3.013-4.52 3.013v-.825a.73.73 0 0 0-.729-.729h-1.458a.729.729 0 0 0 0 1.458h.729v1.458a.729.729 0 0 0 1.134.607l6.562-4.375a.73.73 0 0 0 .2-1.014M28.435 10.939h-1.458a.729.729 0 1 0 0 1.458h1.458a.729.729 0 0 0 0-1.458M8.02 28.438H6.562a.729.729 0 0 0 0 1.458H8.02a.729.729 0 0 0 0-1.458"/></svg>