<svg xmlns="http://www.w3.org/2000/svg" width="30.199" height="30.199"><g fill-rule="evenodd"><path d="M25.336 0a4.87 4.87 0 0 0-4.258 2.517h-17.3A3.78 3.78 0 0 0 0 6.291v20.132a3.78 3.78 0 0 0 3.775 3.775h20.132a3.78 3.78 0 0 0 3.775-3.775v-17.3A4.862 4.862 0 0 0 25.336 0m0 1.258a3.606 3.606 0 1 1-3.606 3.605 3.6 3.6 0 0 1 3.606-3.605M3.776 3.775H20.6a4.857 4.857 0 0 0 5.828 5.828v16.821a2.5 2.5 0 0 1-2.517 2.517H3.775a2.5 2.5 0 0 1-2.517-2.517V6.291a2.5 2.5 0 0 1 2.517-2.517Z"/><path d="M12.533 5.303a.629.629 0 0 0-.413 1.086l1.288 1.215A8.808 8.808 0 0 0 8.681 23.54a.629.629 0 1 0 .737-1.019 7.549 7.549 0 0 1 4.169-13.664l-1.467 1.385a.629.629 0 1 0 .864.914l2.526-2.384a.63.63 0 0 0 0-.914l-2.526-2.385a.63.63 0 0 0-.451-.171Zm5.62 3.533a.63.63 0 0 0-.312 1.162 7.55 7.55 0 0 1-3.692 13.945l1.459-1.376a.629.629 0 1 0-.864-.914l-2.526 2.384a.63.63 0 0 0 0 .914l2.526 2.384a.629.629 0 1 0 .864-.914l-1.3-1.224a8.809 8.809 0 0 0 4.2-16.265.63.63 0 0 0-.355-.1ZM25.337 6.272a.629.629 0 1 0 .629.629.63.63 0 0 0-.629-.629M25.336 2.169a.63.63 0 0 0-.629.629v2.066a.629.629 0 0 0 1.258 0V2.798a.63.63 0 0 0-.629-.629"/></g></svg>