<svg xmlns="http://www.w3.org/2000/svg" width="50.501" height="49.75"><path d="M46.577 19.52a3.33 3.33 0 0 0-1.846-5.681l-11.05-1.606a.67.67 0 0 1-.5-.364L28.238 1.857a3.33 3.33 0 0 0-5.973 0L17.323 11.87a.67.67 0 0 1-.5.364L5.773 13.84a3.33 3.33 0 0 0-1.846 5.681l8 7.794a.67.67 0 0 1 .192.59l-1.893 11.004a3.331 3.331 0 0 0 4.832 3.511l9.883-5.2a.67.67 0 0 1 .62 0l9.883 5.2a3.331 3.331 0 0 0 4.832-3.511l-1.887-11.005a.67.67 0 0 1 .192-.59Zm-10.814 8.834 1.888 11.006a.666.666 0 0 1-.966.7l-9.883-5.2a3.33 3.33 0 0 0-3.1 0l-9.883 5.2a.666.666 0 0 1-.966-.7l1.89-11.006a3.33 3.33 0 0 0-.958-2.948l-8-7.794a.666.666 0 0 1 .369-1.136l11.05-1.606a3.33 3.33 0 0 0 2.508-1.822l4.942-10.012a.666.666 0 0 1 1.195 0l4.942 10.013a3.33 3.33 0 0 0 2.507 1.822l11.045 1.605a.666.666 0 0 1 .369 1.136l-8 7.794a3.33 3.33 0 0 0-.949 2.948M40.813 1.856a1.33 1.33 0 0 0-1.861.295l-1.414 1.946a1.332 1.332 0 0 0 2.155 1.566l1.414-1.946a1.33 1.33 0 0 0-.294-1.861M12.957 4.09l-1.414-1.947a1.332 1.332 0 0 0-2.155 1.566l1.414 1.946a1.332 1.332 0 1 0 2.155-1.566ZM4.888 29.888a1.33 1.33 0 0 0-1.679-.855l-2.288.741a1.332 1.332 0 1 0 .823 2.534l2.288-.743a1.33 1.33 0 0 0 .856-1.677M25.251 44.679a1.33 1.33 0 0 0-1.332 1.332v2.406a1.332 1.332 0 1 0 2.664 0v-2.406a1.33 1.33 0 0 0-1.332-1.332M49.58 29.778l-2.288-.744a1.332 1.332 0 0 0-.823 2.534l2.288.743a1.332 1.332 0 0 0 .823-2.534Z"/></svg>