<svg xmlns="http://www.w3.org/2000/svg" width="25.491" height="25.492"><path d="M21.774 22.306h-8.5a.53.53 0 0 1-.52-.427l-1.062-5.311a.53.53 0 0 1 .11-.441.53.53 0 0 1 .41-.194h10.472l.7-2.784a.531.531 0 0 1 1.03.257l-2.124 8.5a.53.53 0 0 1-.515.4Zm-8.061-1.059h7.647l1.062-4.249h-9.559ZM15.932 25.492a1.062 1.062 0 1 1 1.062-1.062 1.06 1.06 0 0 1-1.062 1.062M20.18 25.492a1.062 1.062 0 1 1 1.062-1.062 1.06 1.06 0 0 1-1.062 1.062M24.96 9.56H.531a.531.531 0 0 1 0-1.062H24.96a.531.531 0 1 1 0 1.062"/><path d="M23.898 9.56H1.593a.53.53 0 0 1-.531-.597l.951-7.562a1.6 1.6 0 0 1 1.58-1.4h18.3a1.6 1.6 0 0 1 1.58 1.4l.946 7.567a.53.53 0 0 1-.527.6ZM2.194 8.501h21.1l-.871-6.97a.53.53 0 0 0-.527-.465H3.593a.53.53 0 0 0-.531.462Z"/><path d="M6.904 9.56a1 1 0 0 1-.066 0 .53.53 0 0 1-.465-.597L7.439.466a.531.531 0 0 1 1.054.135l-1.062 8.5a.53.53 0 0 1-.527.465ZM12.746 9.56a.53.53 0 0 1-.531-.531V.532a.531.531 0 1 1 1.062 0v8.5a.53.53 0 0 1-.531.528M18.587 9.56a.53.53 0 0 1-.527-.465L16.994.601a.533.533 0 0 1 1.058-.135l1.062 8.5a.53.53 0 0 1-.461.593 1 1 0 0 1-.066.001"/><path d="M10.09 23.368H4.779a2.66 2.66 0 0 1-2.655-2.655V9.029a.53.53 0 0 1 .531-.531h20.181a.531.531 0 1 1 0 1.062H3.186v11.153a1.6 1.6 0 0 0 1.593 1.593h5.311a.531.531 0 0 1 0 1.062"/><path d="M9.028 19.12H6.904a1.6 1.6 0 0 1-1.593-1.593V14.34a1.6 1.6 0 0 1 1.593-1.593h3.187a.531.531 0 1 1 0 1.062H6.904a.53.53 0 0 0-.531.531v3.187a.53.53 0 0 0 .531.531h2.124a.531.531 0 0 1 0 1.062"/></svg>