<svg width="60" height="60" viewBox="0 0 60 60" fill="none" xmlns="http://www.w3.org/2000/svg">
<path d="M53.5993 30.093L37.1609 19.2777C36.6707 18.4393 36.0383 17.6925 35.292 17.071L36.2555 13.3126H44.7768C44.9615 13.3126 45.1419 13.2572 45.2948 13.1538C45.4477 13.0503 45.5661 12.9034 45.6348 12.732L49.3301 3.49376C49.3861 3.35357 49.4069 3.20179 49.3907 3.05169C49.3745 2.90159 49.3218 2.75774 49.2372 2.63272C49.1526 2.50769 49.0386 2.40531 48.9053 2.3345C48.7719 2.2637 48.6233 2.22664 48.4723 2.22656H11.5191C11.3682 2.22661 11.2196 2.26363 11.0862 2.33438C10.9529 2.40514 10.8389 2.50746 10.7543 2.63243C10.6697 2.75739 10.6169 2.90118 10.6007 3.05124C10.5844 3.20129 10.6052 3.35304 10.6611 3.49322L14.3564 12.7315C14.4251 12.9028 14.5435 13.0497 14.6964 13.1532C14.8494 13.2567 15.0297 13.312 15.2144 13.3121H23.7357L24.6992 17.0705C23.9529 17.6922 23.3206 18.4391 22.8304 19.2777L6.39207 30.093C6.22212 30.2051 6.09392 30.3701 6.02736 30.5625C5.96081 30.7549 5.95962 30.9639 6.02398 31.1571L10.6432 45.0145C10.7045 45.1985 10.8222 45.3586 10.9796 45.4719C11.137 45.5853 11.3261 45.6462 11.5201 45.646H15.2154C15.3507 45.646 15.4844 45.6163 15.6069 45.5589C15.7295 45.5016 15.838 45.418 15.9247 45.3142C16.0115 45.2103 16.0743 45.0887 16.1089 44.9578C16.1435 44.827 16.1489 44.6901 16.1248 44.557L14.3894 35.0115L23.879 29.0862C24.6151 29.8948 25.5043 30.5494 26.4952 31.0121C27.486 31.4748 28.5588 31.7363 29.6514 31.7816C30.744 31.8269 31.8347 31.6551 32.8604 31.276C33.8862 30.897 34.8266 30.3182 35.6271 29.5733L45.5961 35.0499L43.8675 44.5575C43.8434 44.6907 43.8488 44.8275 43.8834 44.9584C43.9179 45.0892 43.9808 45.2108 44.0676 45.3147C44.1543 45.4186 44.2628 45.5021 44.3854 45.5595C44.5079 45.6168 44.6416 45.6465 44.7769 45.6465H48.4722C48.6662 45.6467 48.8553 45.5858 49.0127 45.4724C49.1701 45.3591 49.2878 45.1991 49.3491 45.015L53.9683 31.1576C54.0327 30.9643 54.0315 30.7551 53.9647 30.5626C53.898 30.3701 53.7696 30.205 53.5993 30.093ZM12.8773 33.777C12.7204 33.8749 12.5965 34.0177 12.5217 34.1868C12.4468 34.356 12.4244 34.5437 12.4574 34.7257L14.1075 43.7988H12.1849L8.00105 31.2468L21.7935 22.1718C21.4788 24.0389 21.8287 25.9571 22.7823 27.5928L12.8773 33.777ZM24.4527 11.4648H15.8401L12.8836 4.07426H47.1077L44.1513 11.4649L24.4527 11.4648ZM34.3478 13.3125L33.6535 16.0197C32.5169 15.4543 31.2647 15.16 29.9953 15.16C28.7258 15.16 27.4736 15.4543 26.337 16.0197L25.6436 13.3125H34.3478ZM29.9957 29.9414C28.7167 29.9414 27.4664 29.5621 26.403 28.8516C25.3395 28.141 24.5107 27.131 24.0212 25.9494C23.5317 24.7677 23.4037 23.4675 23.6532 22.213C23.9027 20.9586 24.5186 19.8064 25.423 18.902C26.3274 17.9976 27.4797 17.3817 28.7341 17.1321C29.9885 16.8826 31.2888 17.0107 32.4704 17.5001C33.6521 17.9896 34.6621 18.8185 35.3726 19.8819C36.0832 20.9454 36.4625 22.1956 36.4625 23.4747C36.4606 25.1892 35.7786 26.8329 34.5663 28.0452C33.3539 29.2576 31.7102 29.9395 29.9957 29.9414ZM47.8065 43.7988H45.884L47.534 34.7257C47.5686 34.5351 47.5424 34.3385 47.4591 34.1636C47.3758 33.9888 47.2396 33.8446 47.0698 33.7513L36.8682 28.1477C38.0721 26.4048 38.5491 24.2613 38.198 22.1724L51.9905 31.2475L47.8065 43.7988Z" fill="#282928"/>
<path d="M29.996 19.7793C29.2652 19.7793 28.5507 19.996 27.9431 20.4021C27.3354 20.8081 26.8617 21.3852 26.582 22.0604C26.3024 22.7356 26.2292 23.4786 26.3717 24.1954C26.5143 24.9123 26.8662 25.5707 27.383 26.0875C27.8998 26.6043 28.5582 26.9562 29.275 27.0988C29.9919 27.2414 30.7348 27.1683 31.4101 26.8886C32.0853 26.6089 32.6624 26.1353 33.0685 25.5276C33.4745 24.92 33.6913 24.2055 33.6913 23.4747C33.6903 22.4949 33.3006 21.5556 32.6078 20.8628C31.9151 20.17 30.9758 19.7804 29.996 19.7793ZM29.996 25.3223C29.6306 25.3223 29.2734 25.2139 28.9695 25.0109C28.6657 24.8078 28.4288 24.5193 28.289 24.1817C28.1491 23.844 28.1125 23.4725 28.1838 23.1141C28.2551 22.7557 28.4311 22.4265 28.6895 22.1681C28.9479 21.9097 29.2771 21.7337 29.6356 21.6624C29.994 21.5911 30.3655 21.6277 30.7031 21.7675C31.0407 21.9074 31.3293 22.1442 31.5323 22.4481C31.7354 22.7519 31.8437 23.1091 31.8437 23.4746C31.8432 23.9645 31.6484 24.4341 31.302 24.7806C30.9556 25.127 30.4859 25.3218 29.996 25.3223ZM42.0058 35.4844H17.9863C17.7413 35.4844 17.5063 35.5817 17.3331 35.755C17.1598 35.9282 17.0625 36.1632 17.0625 36.4082V56.7324C17.0625 56.8537 17.0864 56.9739 17.1328 57.086C17.1792 57.198 17.2473 57.2999 17.333 57.3857C17.4188 57.4715 17.5207 57.5395 17.6327 57.586C17.7448 57.6324 17.865 57.6563 17.9863 57.6563H42.0059C42.2509 57.6563 42.4858 57.559 42.6591 57.3857C42.8323 57.2125 42.9297 56.9775 42.9297 56.7325V36.4082C42.9296 36.1632 42.8323 35.9282 42.659 35.755C42.4858 35.5817 42.2508 35.4844 42.0058 35.4844ZM28.1483 37.3321H31.8436V41.0274H28.1483V37.3321ZM41.082 55.8086H18.9101V37.3321H26.3007V41.9513C26.3007 42.1963 26.3981 42.4313 26.5713 42.6045C26.7446 42.7778 26.9795 42.8751 27.2245 42.8751H32.7675C33.0125 42.8751 33.2475 42.7778 33.4207 42.6045C33.594 42.4313 33.6913 42.1963 33.6913 41.9513V37.3321H41.082V55.8086Z" fill="#282928"/>
</svg>
