<svg xmlns="http://www.w3.org/2000/svg" width="43.95" height="40.476"><path fill-rule="evenodd" d="m7.271 11.288-1.419 1.689a.66.66 0 0 1-.965.062l-.719-.678a.667.667 0 0 1 .914-.971l.2.191.965-1.156a.667.667 0 1 1 1.021.858Zm0 17.178-1.419 1.695a.66.66 0 0 1-.965.056l-.718-.673a.66.66 0 0 1-.028-.937.67.67 0 0 1 .943-.034l.2.191.965-1.15a.665.665 0 1 1 1.021.853Zm0-8.589-1.419 1.694a.667.667 0 0 1-.965.056l-.718-.673a.667.667 0 1 1 .914-.971l.2.191.965-1.156a.667.667 0 0 1 1.021.858Zm.589 10.878v-3.669a.39.39 0 0 0-.387-.387H3.804a.39.39 0 0 0-.387.387v3.669a.39.39 0 0 0 .387.387h3.669a.39.39 0 0 0 .387-.387m-.387-5.394H3.804a1.72 1.72 0 0 0-1.717 1.722v3.669a1.72 1.72 0 0 0 1.717 1.722h3.669a1.726 1.726 0 0 0 1.722-1.722v-3.666a1.726 1.726 0 0 0-1.722-1.725m.387-3.2v-3.664a.39.39 0 0 0-.387-.393H3.804a.39.39 0 0 0-.387.393v3.664a.39.39 0 0 0 .387.387h3.669a.39.39 0 0 0 .387-.387m-.387-5.391H3.804a1.72 1.72 0 0 0-1.717 1.722v3.669a1.717 1.717 0 0 0 1.717 1.717h3.669a1.72 1.72 0 0 0 1.722-1.717v-3.665a1.726 1.726 0 0 0-1.722-1.722Zm.387-3.2V9.902a.39.39 0 0 0-.387-.387H3.804a.39.39 0 0 0-.387.387v3.669a.393.393 0 0 0 .387.393h3.669a.393.393 0 0 0 .387-.393Zm-.387-5.386H3.804a1.717 1.717 0 0 0-1.717 1.717v3.67a1.72 1.72 0 0 0 1.717 1.722h3.669a1.726 1.726 0 0 0 1.722-1.722V9.902a1.72 1.72 0 0 0-1.722-1.717Zm9.122 3.551a.666.666 0 0 1-.668.668h-4.718a.665.665 0 1 1 0-1.33h4.718a.664.664 0 0 1 .668.663Zm0 8.595a.664.664 0 0 1-.668.662h-4.718a.665.665 0 1 1 0-1.33h4.718a.666.666 0 0 1 .668.669Zm0 8.589a.666.666 0 0 1-.668.668h-4.718a.668.668 0 1 1 0-1.335h4.718a.67.67 0 0 1 .668.668ZM42.443 8.246a.665.665 0 1 1 1.3-.269 9.78 9.78 0 0 1-14.649 10.362.665.665 0 0 1-1.273-.034c-.058-.215-.393-1.36-.393-1.5l.034-.236.107-.2.028-.034.151-.129.168-.073a.02.02 0 0 0 .017-.006l.168-.017 1.408.028a.665.665 0 0 1 .432 1.161 8.46 8.46 0 0 0 12.5-9.049Zm-17.86 3.715a.665.665 0 0 0 .651.527.658.658 0 0 0 .651-.8 8.457 8.457 0 0 1 12.5-9.049.665.665 0 0 0 .432 1.161l1.4.028a.7.7 0 0 0 .309-.067.005.005 0 0 1 .006-.006l.185-.14a.01.01 0 0 0 .011-.011.1.1 0 0 0 .017-.022.01.01 0 0 0 .011-.011l.039-.051a.67.67 0 0 0 .1-.449l-.387-1.442a.665.665 0 0 0-1.273-.034 9.787 9.787 0 0 0-14.652 10.366m10.726-1.683a1.188 1.188 0 1 0-1.453.836 1.187 1.187 0 0 0 1.454-.837Zm-.494-2.743a2.52 2.52 0 1 0 1.778 3.086 2.525 2.525 0 0 0-1.777-3.087Zm4.774 4.28.191-.729-.78-.5a.69.69 0 0 1-.3-.567 4.4 4.4 0 0 0-.168-1.262.67.67 0 0 1 .151-.623l.623-.7-.376-.651-.914.2a.67.67 0 0 1-.612-.185 4.4 4.4 0 0 0-1.01-.774.67.67 0 0 1-.337-.544l-.051-.931-.724-.2-.511.78a.66.66 0 0 1-.567.3 4.8 4.8 0 0 0-1.257.168.66.66 0 0 1-.623-.146l-.7-.623-.651.376.191.909a.67.67 0 0 1-.185.617 4.7 4.7 0 0 0-.774 1 .66.66 0 0 1-.544.342l-.931.045-.2.729.785.5a.67.67 0 0 1 .3.567 4.6 4.6 0 0 0 .163 1.262.64.64 0 0 1-.146.623l-.623.7.376.651.914-.2a.67.67 0 0 1 .612.185 4.5 4.5 0 0 0 1.01.774.67.67 0 0 1 .337.544l.051.931.724.2.511-.78a.65.65 0 0 1 .567-.3 4.8 4.8 0 0 0 1.257-.168.68.68 0 0 1 .628.146l.69.623.651-.376-.191-.909a.66.66 0 0 1 .185-.617 4.6 4.6 0 0 0 .774-1 .66.66 0 0 1 .544-.342Zm.314-3.058.712-.791a.67.67 0 0 0 .078-.78l-.858-1.487a.655.655 0 0 0-.712-.32l-1.043.224a7 7 0 0 0-.713-.555l-.056-1.06a.67.67 0 0 0-.494-.606l-1.661-.449a.66.66 0 0 0-.729.281l-.583.892a6 6 0 0 0-.892.118l-.791-.707a.66.66 0 0 0-.78-.084l-1.492.858a.67.67 0 0 0-.314.718l.219 1.038a5.7 5.7 0 0 0-.551.714l-1.06.056a.67.67 0 0 0-.611.494l-.443 1.661a.67.67 0 0 0 .281.729l.892.578a6 6 0 0 0 .118.9l-.712.791a.67.67 0 0 0-.078.78l.858 1.487a.67.67 0 0 0 .712.32l1.043-.224a5.6 5.6 0 0 0 .713.55l.056 1.066a.67.67 0 0 0 .494.606l1.661.449a.68.68 0 0 0 .735-.281l.578-.9a5 5 0 0 0 .892-.118l.791.712a.66.66 0 0 0 .78.084l1.492-.858a.67.67 0 0 0 .314-.718l-.219-1.038a5.7 5.7 0 0 0 .55-.718l1.06-.056a.67.67 0 0 0 .611-.494l.443-1.661a.67.67 0 0 0-.281-.729l-.892-.578a6 6 0 0 0-.118-.9Zm.988 28.836-.387 1.431a.664.664 0 0 1-1.273.034 9.784 9.784 0 0 1-14.647-10.363.665.665 0 1 1 1.3.275 8.456 8.456 0 0 0 12.5 9.043.666.666 0 0 1 .432-1.161l1.5-.017a.6.6 0 0 1 .325.135q.008.01.017.011l.067.067.028.034c.006.006.006.006.006.011a.64.64 0 0 1 .129.494Zm2.85-4.915a9.783 9.783 0 0 0-14.647-10.356.666.666 0 0 0-1.273.028l-.37 1.363a.68.68 0 0 0 .067.516l.045.056c0 .006 0 .006.006.011a.7.7 0 0 0 .224.179l.213.067 1.5-.017a.666.666 0 0 0 .437-1.164 8.456 8.456 0 0 1 12.5 9.043.665.665 0 1 0 1.3.269ZM39 30.078l.78-.511-.191-.724-.931-.051a.66.66 0 0 1-.544-.337 4.7 4.7 0 0 0-.774-1.01.65.65 0 0 1-.185-.612l.191-.914-.651-.376-.69.623a.68.68 0 0 1-.628.152 4.4 4.4 0 0 0-1.257-.168.67.67 0 0 1-.567-.3l-.51-.789-.724.2-.051.931a.66.66 0 0 1-.337.544 4.7 4.7 0 0 0-1.01.774.65.65 0 0 1-.612.185l-.914-.191-.376.651.623.69a.65.65 0 0 1 .146.628 4.5 4.5 0 0 0-.163 1.257.67.67 0 0 1-.3.567l-.785.511.2.724.931.051a.66.66 0 0 1 .544.337 4.8 4.8 0 0 0 .774 1.01.65.65 0 0 1 .185.612l-.191.914.651.376.7-.628a.66.66 0 0 1 .623-.146 4.4 4.4 0 0 0 1.257.168.66.66 0 0 1 .567.3l.511.78.724-.191.051-.931a.66.66 0 0 1 .337-.544 4.7 4.7 0 0 0 1.01-.774.65.65 0 0 1 .612-.185l.914.191.376-.651-.623-.69a.68.68 0 0 1-.152-.628 4.4 4.4 0 0 0 .168-1.257.67.67 0 0 1 .3-.567Zm1.75-2.048a.67.67 0 0 0-.612-.494l-1.06-.056a5.6 5.6 0 0 0-.55-.712l.219-1.043a.66.66 0 0 0-.314-.712l-1.49-.862a.68.68 0 0 0-.78.084l-.791.713a6 6 0 0 0-.892-.118l-.578-.892a.67.67 0 0 0-.735-.281l-1.661.443a.68.68 0 0 0-.494.612l-.056 1.06a5.6 5.6 0 0 0-.712.55l-1.043-.219a.66.66 0 0 0-.712.314l-.858 1.492a.67.67 0 0 0 .079.78l.713.791a6 6 0 0 0-.118.892l-.892.578a.675.675 0 0 0-.281.735l.443 1.661a.68.68 0 0 0 .612.494l1.06.051a5.7 5.7 0 0 0 .55.718l-.219 1.043a.66.66 0 0 0 .314.712l1.492.864a.68.68 0 0 0 .78-.084l.791-.713a6 6 0 0 0 .892.118l.583.892a.67.67 0 0 0 .729.281l1.661-.443a.68.68 0 0 0 .494-.612l.056-1.06a6 6 0 0 0 .712-.55l1.043.219a.66.66 0 0 0 .712-.314l.858-1.492a.67.67 0 0 0-.079-.78l-.712-.791a6 6 0 0 0 .118-.892l.892-.583a.67.67 0 0 0 .281-.729Zm-6.283 3.8a1.187 1.187 0 1 0-1.453-.842 1.19 1.19 0 0 0 1.455.849Zm.954-3.332a2.52 2.52 0 1 0-.606 4.617 2.53 2.53 0 0 0 .606-4.617m-16.952 5.768V6.39a.75.75 0 0 0-.746-.746h-2.587A1.11 1.11 0 0 1 14.025 6.8H5.773a1.11 1.11 0 0 1-1.111-1.156H2.076a.75.75 0 0 0-.746.746v27.877a.746.746 0 0 0 .746.746h15.647a.746.746 0 0 0 .746-.747M5.991 3.243h2.5a.664.664 0 0 0 .668-.662v-.5a.743.743 0 0 1 1.487 0v.5a.664.664 0 0 0 .668.662h2.5V5.47H5.991Zm19.535 22.456a.666.666 0 0 0-.668-.668h-1.915v-9.4h1.913a.668.668 0 0 0 0-1.335h-2.573a.666.666 0 0 0-.668.668v4.741h-1.817V6.39a2.08 2.08 0 0 0-2.076-2.076h-2.586v-1.29a1.113 1.113 0 0 0-1.111-1.111h-2.059a2.074 2.074 0 0 0-4.135 0H5.773a1.113 1.113 0 0 0-1.111 1.111v1.29H2.076A2.08 2.08 0 0 0 0 6.39v27.877a2.08 2.08 0 0 0 2.076 2.081h15.647a2.08 2.08 0 0 0 2.076-2.081V21.038h1.818V25.7a.664.664 0 0 0 .668.662h2.575a.664.664 0 0 0 .667-.662Z"/></svg>