<svg xmlns="http://www.w3.org/2000/svg" width="28.148" height="34.219"><path d="M27.596 17.67h-8.3a.552.552 0 1 1 0-1.1h8.3a.552.552 0 1 1 0 1.1M8.6 17.67H.552a.552.552 0 1 1 0-1.1H8.6a.552.552 0 1 1 0 1.1M11.704 5.425a.52.52 0 0 0-.285-.3.55.55 0 0 0-.426 0l-2.165.886a.661.661 0 0 0 0 1.235l2.165.886a.55.55 0 0 0 .426 0 .52.52 0 0 0 .285-.3.506.506 0 0 0-.305-.634l-1.448-.561 1.448-.561a.506.506 0 0 0 .305-.634ZM14.858 4.113a.5.5 0 0 0-.477.327l-1.62 4.493a.47.47 0 0 0 .065.441.5.5 0 0 0 .412.2h.011a.5.5 0 0 0 .478-.328l1.61-4.493a.47.47 0 0 0-.066-.441.5.5 0 0 0-.413-.199M19.319 6.001l-2.164-.881a.55.55 0 0 0-.426 0 .52.52 0 0 0-.275.279l-.01.025a.506.506 0 0 0 .306.633l1.447.561-1.447.561a.506.506 0 0 0-.305.634.52.52 0 0 0 .285.3.55.55 0 0 0 .426 0l2.164-.886a.661.661 0 0 0 0-1.235Zm0 0"/><path d="M26.321 21.422h-6.978a.552.552 0 0 1 0-1.1h6.978a.706.706 0 0 0 .724-.685V1.781a.7.7 0 0 0-.716-.678H1.819a.7.7 0 0 0-.715.678V19.64a.7.7 0 0 0 .715.678h6.739a.552.552 0 1 1 0 1.1H1.819A1.8 1.8 0 0 1 0 19.64V1.781A1.8 1.8 0 0 1 1.819 0h24.51a1.8 1.8 0 0 1 1.819 1.781v17.852a1.81 1.81 0 0 1-1.827 1.789m0 0"/><path d="M21.206 34.219H6.942a.55.55 0 0 1-.552-.551c0-.187.005-.863.005-.863a7 7 0 0 1 .1-1.2 7 7 0 0 1 .174-.728 4 4 0 0 1 .126-.442 7.7 7.7 0 0 1 1.681-2.7 10.2 10.2 0 0 1 2.454-1.736l.541-.791a8.2 8.2 0 0 1-1.311-1.621 13 13 0 0 1-.845-1.532 2.11 2.11 0 0 1-1.466-1.408 2.06 2.06 0 0 1 .4-1.9l-.05-.312a4.95 4.95 0 0 1 .188-2.424 5 5 0 0 1 .108-.275.55.55 0 0 1 .151-.2l.3-.252a1.77 1.77 0 0 1 .687-2.024 6 6 0 0 1 4.7-1.436 5.56 5.56 0 0 1 3.478 1.169 5.4 5.4 0 0 1 1.783 2.679 6.15 6.15 0 0 1 .194 2.757v.029a7 7 0 0 1-.035.268 2.16 2.16 0 0 1 .293 1.874 2.11 2.11 0 0 1-1.461 1.58 14 14 0 0 1-.792 1.488 8.2 8.2 0 0 1-1.119 1.479l1.273 1.216a8 8 0 0 1 1.733 1.374 7.7 7.7 0 0 1 1.681 2.7 12.7 12.7 0 0 1 .4 3.236.55.55 0 0 1-.552.552Zm-13.709-1.1h13.145a9.6 9.6 0 0 0-.328-2.318 6.6 6.6 0 0 0-1.438-2.3 7 7 0 0 0-1.546-1.215.5.5 0 0 1-.1-.078l-1.757-1.677a.552.552 0 0 1 .056-.845 5.6 5.6 0 0 0 1.323-1.594 13 13 0 0 0 .853-1.648.55.55 0 0 1 .551-.332c.239.022.59-.295.723-.794a1 1 0 0 0-.163-.979.55.55 0 0 1-.2-.525 7 7 0 0 0 .07-.473v-.029a5.1 5.1 0 0 0-.147-2.3 4.3 4.3 0 0 0-1.421-2.157 4.44 4.44 0 0 0-2.809-.928h-.061a4.87 4.87 0 0 0-3.865 1.141.6.6 0 0 1-.087.074.71.71 0 0 0-.212 1.018.56.56 0 0 1-.117.707l-.311.26-.2.167-.033.089a3.8 3.8 0 0 0-.137 1.888l.061.377c.006.035.016.079.025.123l.009.043a.55.55 0 0 1-.174.525.96.96 0 0 0-.3.989 1.02 1.02 0 0 0 .865.7.55.55 0 0 1 .436.324 12 12 0 0 0 .882 1.642 6.1 6.1 0 0 0 1.445 1.663.55.55 0 0 1 .134.759l-.9 1.32a.55.55 0 0 1-.225.19A9.8 9.8 0 0 0 9.278 28.5a6.65 6.65 0 0 0-1.439 2.3 4 4 0 0 0-.1.343q.002.013-.007.028a5.8 5.8 0 0 0-.232 1.64s-.002.137-.003.304Zm0 0"/><path d="M14.085 28.283a7.6 7.6 0 0 1-3.32-1.381.552.552 0 0 1 .707-.844 6.5 6.5 0 0 0 2.632 1.118 5.56 5.56 0 0 0 2.665-1.139.62.62 0 0 1 .691-.1l-.537.965.273-.48.262.484-.09.058a7.2 7.2 0 0 1-3.279 1.316Zm0 0"/><path d="M14.074 26.105a4.7 4.7 0 0 1-1.449-.231 8 8 0 0 1-.36-.129l-.031-.012a.552.552 0 0 1-.537-.856.74.74 0 0 1 .958-.165c.081.031.184.07.318.114a3.52 3.52 0 0 0 2.191 0 4 4 0 0 0 .419-.174.57.57 0 0 1 .491-.019.552.552 0 0 1-.01 1.013 5 5 0 0 1-.554.228 4.6 4.6 0 0 1-1.436.231m0 0"/></svg>