<svg xmlns="http://www.w3.org/2000/svg" width="41.078" height="29.16"><path d="M24.717 20.535H2.946A2.956 2.956 0 0 1 0 17.577V2.958A2.955 2.955 0 0 1 2.946 0h27.029a2.956 2.956 0 0 1 2.946 2.958v8.809a.622.622 0 1 1-1.245 0V2.958a1.71 1.71 0 0 0-1.701-1.71H2.946a1.71 1.71 0 0 0-1.7 1.714V17.58a1.71 1.71 0 0 0 1.7 1.714h21.771a.622.622 0 1 1 0 1.245Z"/><path d="M12.44 13.659a.62.62 0 0 1-.444-.187l-2.713-2.769a.62.62 0 0 1 0-.871l2.713-2.769a.622.622 0 0 1 .889.871l-2.286 2.333 2.286 2.333a.622.622 0 0 1-.445 1.058ZM20.475 13.659a.622.622 0 0 1-.444-1.058l2.286-2.333-2.286-2.333a.622.622 0 0 1 .889-.871l2.713 2.769a.62.62 0 0 1 0 .871l-2.713 2.769a.62.62 0 0 1-.445.186M14.925 14.807a.622.622 0 0 1-.579-.85l3.07-7.831a.623.623 0 0 1 1.159.455l-3.07 7.831a.62.62 0 0 1-.58.395M32.26 29.161a.6.6 0 0 1-.3-.076c-6.068-3.314-8.377-7.211-8.52-14.379a.622.622 0 0 1 .758-.62c2.067.461 5.79.729 7.5-2.666a.622.622 0 0 1 1.111 0c1.714 3.394 5.438 3.127 7.5 2.666a.622.622 0 0 1 .758.62c-.143 7.168-2.452 11.065-8.52 14.379a.6.6 0 0 1-.3.076Zm-7.549-13.709c.271 6.112 2.313 9.437 7.549 12.375 5.236-2.939 7.278-6.263 7.549-12.375-3.311.537-5.985-.373-7.549-2.552-1.564 2.177-4.239 3.086-7.549 2.551Z"/><path d="M31.22 22.971a.62.62 0 0 1-.441-.183l-1.469-1.476a.622.622 0 1 1 .882-.878l1.028 1.033 3.109-3.123a.622.622 0 1 1 .882.878l-3.548 3.566a.62.62 0 0 1-.443.183"/></svg>