<svg xmlns="http://www.w3.org/2000/svg" width="29.162" height="28.541"><path d="M12.279 9.448a.581.581 0 1 1 1.116-.321l2.593 9.012a.581.581 0 0 1-1.116.321ZM17.75 11.827a.581.581 0 1 1 .835-.807l2.322 2.4a.58.58 0 0 1 0 .807l-2.322 2.4a.581.581 0 1 1-.835-.807l1.932-2ZM9.915 11.021a.581.581 0 1 1 .835.807l-1.932 2 1.932 2a.581.581 0 0 1-.835.807l-2.322-2.4a.58.58 0 0 1 0-.807Z"/><path fill-rule="evenodd" d="M22.029-.002a2.9 2.9 0 0 1 2.9 2.9v20.62h3.649a.58.58 0 0 1 .581.581v1.54a2.9 2.9 0 0 1-2.9 2.9H6.908a2.77 2.77 0 0 1-2.77-2.77V2.65a1.489 1.489 0 0 0-2.977 0v2.023h1.58a.581.581 0 0 1 0 1.161H.58a.58.58 0 0 1-.581-.581v-2.6a2.65 2.65 0 0 1 2.65-2.655ZM9.097 23.518h14.675V2.898a1.74 1.74 0 0 0-1.742-1.742H4.842a2.64 2.64 0 0 1 .457 1.488v23.127a1.609 1.609 0 1 0 3.217 0v-1.673a.58.58 0 0 1 .581-.58m.581 2.253a2.76 2.76 0 0 1-.515 1.609h17.1a1.74 1.74 0 0 0 1.742-1.742v-.959H9.677Z"/></svg>