<svg xmlns="http://www.w3.org/2000/svg" width="27.425" height="30.854"><path d="M24.876.221a.527.527 0 1 0-.858.613 12.63 12.63 0 0 1 0 14.685.527.527 0 0 0 .12.736.527.527 0 0 0 .735-.122 13.69 13.69 0 0 0 0-15.912ZM3.285.099a.527.527 0 0 0-.735.122 13.69 13.69 0 0 0 0 15.912.527.527 0 0 0 .858-.613 12.63 12.63 0 0 1 0-14.685.527.527 0 0 0-.123-.736"/><path d="M6.639 2.682a.527.527 0 0 0-.094-.74.527.527 0 0 0-.738.092 9.98 9.98 0 0 0 0 12.282.527.527 0 0 0 .832-.648 8.92 8.92 0 0 1 0-10.986M20.88 1.942a.527.527 0 0 0-.092.738 8.92 8.92 0 0 1 0 10.986.527.527 0 0 0 .832.648 9.98 9.98 0 0 0 0-12.282.53.53 0 0 0-.74-.09M17.552 4.566a5.255 5.255 0 0 1 0 7.217.53.53 0 0 0 .022.746.527.527 0 0 0 .746-.023 6.31 6.31 0 0 0 0-8.662.528.528 0 1 0-.774.717ZM9.488 12.672a.527.527 0 0 0 .385-.889 5.255 5.255 0 0 1 0-7.217.528.528 0 0 0-.763-.729l-.006.006a6.31 6.31 0 0 0 0 8.662.53.53 0 0 0 .384.167"/><path d="m20.554 30.196-5.136-20.027a2.637 2.637 0 1 0-3.41 0L6.873 30.196a.527.527 0 0 0 .379.642.5.5 0 0 0 .131.016.53.53 0 0 0 .511-.4l.176-.686a1 1 0 0 0 .086-.033l9.86-5.19 1.515 5.907a.53.53 0 0 0 .512.4.5.5 0 0 0 .131-.016.527.527 0 0 0 .38-.642Zm-5.085-15.581-2.868-2.51.363-1.415a2.37 2.37 0 0 0 1.5 0Zm-1.756-8.022a1.582 1.582 0 1 1-1.582 1.582 1.58 1.58 0 0 1 1.582-1.582m-1.406 6.657 3.177 2.781-4.694 3.131ZM8.42 28.409l1.894-7.384 6.435 3Zm2.674-8.184 4.965-3.31 1.639 6.392Z"/></svg>