<svg xmlns="http://www.w3.org/2000/svg" width="30.855" height="30.82"><path d="M15.718 13.225c-.048.145.048.289.145.434l1.784 1.784a.5.5 0 0 0 .82-.241l1.589-6.268a42 42 0 0 0 6.219 4.821v2.121a.482.482 0 1 0 .964 0v-1.642a1.31 1.31 0 0 0 1.446-.048c.241-.241.386-.627.048-1.446h1.639a.482.482 0 1 0 0-.964h-2.12a42 42 0 0 0-4.821-6.219l6.267-1.591a.513.513 0 0 0 .241-.82l-1.784-1.78a.67.67 0 0 0-.434-.145l-7.375 1.254c-1.4-1.2-4.194-3.375-5.5-2.073s.868 4.1 2.073 5.5Zm1.977.916-1.013-1.012 1.06-6.412c.482.482.868.916 1.446 1.446Zm9.93-11.956 1.012 1.012-5.93 1.543q-.686-.759-1.445-1.446Zm-12.1-1.157c1.591-1.594 12.148 9.98 12.438 12.438-2.266-.241-14.125-10.7-12.438-12.438"/><path d="M.483 13.27h2.218v6.123H.965a.455.455 0 0 0-.482.482v7.039a.455.455 0 0 0 .482.482h7.473v1.014a.967.967 0 0 0 .964.964h1.687a1.966 1.966 0 0 0 1.88 1.446 2.01 2.01 0 0 0 1.88-1.446h10.124a1.924 1.924 0 0 0 1.88 1.446 1.966 1.966 0 0 0 1.88-1.446h1.158a.967.967 0 0 0 .964-.964v-3.326a.9.9 0 0 0-.1-.337l-2.748-3.177a1.02 1.02 0 0 0-.723-.337h-3.516v-2.947a.967.967 0 0 0-.964-.964H11.957v-4.531a.455.455 0 0 0-.482-.482H9.401V5.752a.455.455 0 0 0-.481-.482H.483a.455.455 0 0 0-.482.482v7.039a.455.455 0 0 0 .482.479m26.318 16.587a.964.964 0 1 1 .964-.964.964.964 0 0 1-.964.964m-.53-7.617h1.012l2.073 2.362h-3.033V22.24Zm-2.555 0h1.543v2.844a.455.455 0 0 0 .482.482h4.15v2.844h-1.206a1.924 1.924 0 0 0-1.88-1.446 1.966 1.966 0 0 0-1.88 1.446H23.72ZM8.438 26.434H1.447v-6.075h2.989v1.35a.482.482 0 0 0 .964 0v-1.35h2.989v6.074Zm5.5 2.459a.964.964 0 1 1-.964-.964.964.964 0 0 1 .964.964m8.822-10.558V28.41h-7.959a1.924 1.924 0 0 0-1.88-1.446 1.966 1.966 0 0 0-1.88 1.446H9.354V18.335Zm-11.767-5.014v4.049H9.401a.967.967 0 0 0-.964.964v1.061H3.665v-6.074h3.182v1.3a.482.482 0 1 0 .964 0v-1.3ZM.965 6.234h3.23v1.35a.482.482 0 1 0 .964 0v-1.35h3.23v6.074H.965Z"/><path d="M12.728 25.133a.455.455 0 0 0 .482-.482v-4a.482.482 0 1 0-.964 0v4a.455.455 0 0 0 .482.482M16.103 26.097a.455.455 0 0 0 .482-.482v-4.966a.482.482 0 0 0-.964 0v4.966a.455.455 0 0 0 .482.482M19.477 27.061a.455.455 0 0 0 .482-.482v-5.93a.482.482 0 0 0-.964 0v5.93a.455.455 0 0 0 .482.482"/></svg>