<svg xmlns="http://www.w3.org/2000/svg" width="30.267" height="28.199"><path d="M1.895 21.389h3.887v6.2a.605.605 0 0 0 1.033.428l6.633-6.633h14.924a1.9 1.9 0 0 0 1.895-1.895V1.895A1.9 1.9 0 0 0 28.372 0H1.895A1.9 1.9 0 0 0 0 1.895v17.6a1.9 1.9 0 0 0 1.895 1.895ZM1.211 1.895a.685.685 0 0 1 .684-.684h26.477a.685.685 0 0 1 .684.684v17.6a.685.685 0 0 1-.684.684H13.198a.6.6 0 0 0-.428.177l-5.777 5.777v-5.349a.605.605 0 0 0-.605-.605H1.895a.685.685 0 0 1-.684-.684Z"/><path d="M16.392 14.454h-4.7a.605.605 0 0 0 0 1.211h2.839v.7a.605.605 0 1 0 1.211 0v-.7h.65a2.788 2.788 0 1 0 0-5.576h-2.52a1.577 1.577 0 1 1 0-3.154h4.7a.605.605 0 1 0 0-1.211h-2.833v-.7a.605.605 0 1 0-1.211 0v.7h-.656a2.788 2.788 0 1 0 0 5.576h2.52a1.578 1.578 0 1 1 0 3.155Z"/></svg>