<svg xmlns="http://www.w3.org/2000/svg" width="61" height="60" fill="none"><path fill="#282928" d="M43.25 32.606a6.6 6.6 0 0 0-3.633 1.083 6.45 6.45 0 0 0-2.407 2.885 6.33 6.33 0 0 0-.373 3.715 6.4 6.4 0 0 0 1.79 3.292 6.57 6.57 0 0 0 3.346 1.76 6.64 6.64 0 0 0 3.777-.366 6.5 6.5 0 0 0 2.934-2.369 6.36 6.36 0 0 0 1.101-3.572 6.38 6.38 0 0 0-1.916-4.544 6.6 6.6 0 0 0-4.62-1.885m0 10.982a4.7 4.7 0 0 1-2.573-.767 4.57 4.57 0 0 1-1.706-2.044 4.5 4.5 0 0 1-.264-2.631 4.53 4.53 0 0 1 1.267-2.332 4.66 4.66 0 0 1 2.37-1.247 4.7 4.7 0 0 1 2.676.26c.846.344 1.57.928 2.078 1.677.51.749.78 1.63.78 2.53a4.52 4.52 0 0 1-1.355 3.22 4.68 4.68 0 0 1-3.274 1.338z"/><path fill="#282928" d="M58.14 35.844h-3.694a11 11 0 0 0-.99-2.343l2.607-2.565a.93.93 0 0 0 0-1.324l-3.234-3.188a.96.96 0 0 0-.675-.275.96.96 0 0 0-.674.274l-2.61 2.567a11.6 11.6 0 0 0-2.377-.967v-3.635c0-.024-.012-.045-.014-.069V8.913a3.5 3.5 0 0 0-1.051-2.492 3.62 3.62 0 0 0-2.534-1.033H5.5c-.951 0-1.864.37-2.538 1.031a3.5 3.5 0 0 0-1.056 2.494v29.755a3.5 3.5 0 0 0 1.054 2.498 3.63 3.63 0 0 0 2.54 1.036h22.78a1 1 0 0 0 .081.016h3.695c.24.816.572 1.602.992 2.344l-2.609 2.566a.93.93 0 0 0 0 1.326l3.234 3.182a.96.96 0 0 0 1.348 0l2.61-2.566c.754.411 1.553.738 2.382.974v3.626c0 .248.1.487.28.663a.96.96 0 0 0 .673.274h4.574a.96.96 0 0 0 .674-.274.93.93 0 0 0 .28-.663v-3.622a11.5 11.5 0 0 0 2.377-.974l2.61 2.566a.96.96 0 0 0 1.348 0l3.234-3.182a.93.93 0 0 0 0-1.325l-2.607-2.563c.42-.744.753-1.533.991-2.352h3.694a.96.96 0 0 0 .674-.274.93.93 0 0 0 .279-.663v-4.5a.93.93 0 0 0-.28-.662.96.96 0 0 0-.673-.274M5.5 7.262h37.395c.445 0 .872.174 1.186.483.315.31.492.73.493 1.167v4.19H3.813v-4.19c.002-.44.18-.86.497-1.168a1.7 1.7 0 0 1 1.19-.482M3.813 38.667v-23.69h40.76v8.474h-3.615a.96.96 0 0 0-.674.274.93.93 0 0 0-.28.663v3.634c-.828.234-1.627.558-2.382.967l-2.61-2.567a.96.96 0 0 0-1.349.001l-3.233 3.188a.93.93 0 0 0 0 1.325l2.608 2.565a11.3 11.3 0 0 0-.991 2.344h-3.69a.96.96 0 0 0-.674.275.93.93 0 0 0-.279.663v3.544H5.5c-.447 0-.876-.175-1.193-.486a1.65 1.65 0 0 1-.495-1.174m53.375 1.675h-3.484a.96.96 0 0 0-.6.208.94.94 0 0 0-.332.532 9.2 9.2 0 0 1-1.315 3.118.925.925 0 0 0 .124 1.175l2.461 2.42-1.886 1.856-2.46-2.42a.965.965 0 0 0-1.19-.126 9.7 9.7 0 0 1-3.167 1.297.96.96 0 0 0-.54.328.93.93 0 0 0-.21.588v3.418H41.91v-3.418a.93.93 0 0 0-.211-.588.96.96 0 0 0-.54-.328 9.7 9.7 0 0 1-3.167-1.297.965.965 0 0 0-1.19.126l-2.46 2.42-1.886-1.857 2.46-2.42a.93.93 0 0 0 .127-1.17 9.3 9.3 0 0 1-1.318-3.123.94.94 0 0 0-.333-.532.96.96 0 0 0-.599-.208H29.31v-2.625h3.483a.96.96 0 0 0 .598-.207.94.94 0 0 0 .333-.531 9.4 9.4 0 0 1 1.32-3.116.925.925 0 0 0-.128-1.17l-2.461-2.42 1.888-1.863 2.459 2.419a.96.96 0 0 0 1.19.125 9.7 9.7 0 0 1 3.168-1.288.96.96 0 0 0 .539-.328.93.93 0 0 0 .21-.588v-3.423h2.677v3.426a.93.93 0 0 0 .211.588.96.96 0 0 0 .54.328 9.7 9.7 0 0 1 3.167 1.288.965.965 0 0 0 1.19-.125l2.459-2.42 1.888 1.863-2.46 2.421a.93.93 0 0 0-.126 1.175 9.2 9.2 0 0 1 1.317 3.11c.046.21.163.397.333.531a.96.96 0 0 0 .598.208h3.483z"/><path fill="#282928" d="M9.446 21.066h7.234a.96.96 0 0 0 .674-.274.93.93 0 0 0 0-1.326.96.96 0 0 0-.674-.275H9.446a.96.96 0 0 0-.674.275.93.93 0 0 0 0 1.326.96.96 0 0 0 .674.274m12.994 2.653H9.446a.96.96 0 0 0-.674.274.93.93 0 0 0 0 1.326.96.96 0 0 0 .674.275H22.44a.96.96 0 0 0 .674-.275.93.93 0 0 0 0-1.326.96.96 0 0 0-.674-.274m-8.294 6.203c-.729 0-1.44.21-2.047.608a3.64 3.64 0 0 0-1.358 1.625 3.57 3.57 0 0 0-.21 2.093 3.6 3.6 0 0 0 1.006 1.855 3.7 3.7 0 0 0 1.885.992 3.74 3.74 0 0 0 2.128-.205 3.67 3.67 0 0 0 1.653-1.334 3.6 3.6 0 0 0 .62-2.013 3.6 3.6 0 0 0-1.077-2.558 3.72 3.72 0 0 0-2.6-1.063m0 5.368c-.352 0-.695-.101-.988-.292a1.75 1.75 0 0 1-.655-.784 1.72 1.72 0 0 1 .382-1.904 1.803 1.803 0 0 1 1.936-.38c.324.132.602.355.797.643a1.726 1.726 0 0 1-.22 2.204 1.8 1.8 0 0 1-1.252.513"/></svg>