<svg xmlns="http://www.w3.org/2000/svg" width="60" height="60" fill="none"><path fill="#282928" d="M43.075 39.486 30.99 14.834a1.098 1.098 0 0 0-1.974 0L16.931 39.486c-.185.378-.138.828.123 1.16l6.82 8.695h-2a2.86 2.86 0 0 0-2.857 2.853v4.39c0 .848.69 1.537 1.538 1.537H39.45c.848 0 1.538-.689 1.538-1.537v-4.39a2.86 2.86 0 0 0-2.856-2.853h-2.024l6.843-8.694c.261-.332.308-.782.123-1.16m-4.942 12.05a.66.66 0 0 1 .659.658v3.732H21.214v-3.732a.66.66 0 0 1 .66-.659zm-4.818-2.195h-6.65l-7.457-9.508L30.003 17.81l10.795 22.02z"/><path fill="#282928" d="M34.384 40.31a4.375 4.375 0 0 0-3.284-3.97v-7.824a1.099 1.099 0 0 0-2.197 0v7.823a4.37 4.37 0 0 0-2.2 1.347 4.37 4.37 0 0 0-1.094 2.899 4.38 4.38 0 0 0 4.67 4.381 4.37 4.37 0 0 0 3.02-1.476 4.36 4.36 0 0 0 1.084-3.179m-2.732 1.728a2.23 2.23 0 0 1-2.429.6 2.205 2.205 0 0 1-1.413-2.06 2.2 2.2 0 0 1 1.48-2.066 2.22 2.22 0 0 1 2.454.737c.63.818.59 2.015-.092 2.79"/><path fill="#282928" d="M56.536 25.414h-1.709c-.155-1.819-.712-5.648-2.689-9.513-1.538-3.008-4.136-6.372-8.482-8.514h5.807A4.35 4.35 0 0 0 51.37 9.98a4.35 4.35 0 0 0 3.315.558 4.36 4.36 0 0 0 2.743-1.94 4.36 4.36 0 0 0 .56-3.313 4.36 4.36 0 0 0-1.944-2.74 4.37 4.37 0 0 0-3.316-.559 4.36 4.36 0 0 0-2.743 1.942 4.38 4.38 0 0 0-.541 1.263H34.397V3.436c0-.848-.69-1.537-1.538-1.537h-5.712a1.54 1.54 0 0 0-1.539 1.537v1.81H10.547a4.4 4.4 0 0 0-4.275-3.375 4.4 4.4 0 0 0-4.395 4.39 4.397 4.397 0 0 0 4.395 4.39 4.4 4.4 0 0 0 4.233-3.21h5.825c-4.361 2.141-6.967 5.505-8.508 8.513-1.982 3.867-2.54 7.695-2.698 9.515H3.388c-.848 0-1.538.688-1.538 1.536v5.708c0 .847.69 1.536 1.538 1.536H9.1a1.54 1.54 0 0 0 1.538-1.536v-5.708c0-.848-.69-1.536-1.538-1.536H7.334c.165-1.7.702-5.116 2.443-8.514 1.418-2.765 3.347-4.964 5.735-6.536 2.751-1.81 6.143-2.803 10.096-2.956v1.68c0 .847.69 1.536 1.539 1.536h5.712c.848 0 1.538-.689 1.538-1.536V7.409c3.923.153 7.291 1.137 10.026 2.932 2.38 1.561 4.305 3.745 5.722 6.492 1.757 3.406 2.302 6.865 2.47 8.58h-1.792a1.54 1.54 0 0 0-1.538 1.537v5.708c0 .847.69 1.536 1.538 1.536h5.713a1.54 1.54 0 0 0 1.538-1.536V26.95c0-.848-.69-1.536-1.538-1.536m-4.69-20.32a2.225 2.225 0 0 1 2.324-.978 2.21 2.21 0 0 1 1.7 1.788c.15.9-.286 1.823-1.084 2.267a2.22 2.22 0 0 1-2.59-.315 2.22 2.22 0 0 1-.35-2.761c.31-.495-.311.493 0 0M6.272 8.457a2.2 2.2 0 0 1-2.198-2.194 2.198 2.198 0 0 1 4.395 0c0 1.21-.985 2.194-2.197 2.194m2.17 19.208v4.39H4.047v-4.39zM32.2 8.484h-4.394v-4.39H32.2zm23.677 23.515h-4.395v-4.39h4.395z"/><path fill="#282928" d="M30.005 25.222a1.098 1.098 0 1 1 0-2.195 1.098 1.098 0 1 1 0 2.195"/></svg>