<svg xmlns="http://www.w3.org/2000/svg" width="60" height="60" fill="none"><g clip-path="url(#a)"><path fill="#282928" d="M4.687 33.748a3.75 3.75 0 0 0 3.617-2.812H15v3.883a3.742 3.742 0 1 0 3.687 6.148l7.677 4.094a3.686 3.686 0 0 0 2.698 4.492v2.141a3.75 3.75 0 1 0 1.875 0v-2.141a3.686 3.686 0 0 0 2.699-4.494l7.676-4.092A3.739 3.739 0 1 0 45 34.82v-3.883h6.696a3.75 3.75 0 1 0 0-1.875H45v-3.883a3.742 3.742 0 1 0-3.687-6.148l-7.677-4.094q.108-.43.114-.875a3.75 3.75 0 0 0-2.812-3.617V8.303a3.75 3.75 0 1 0-1.875 0v2.141a3.75 3.75 0 0 0-2.813 3.617c.003.295.041.59.114.876l-7.676 4.093A3.74 3.74 0 1 0 15 25.178v3.883H8.304a3.743 3.743 0 1 0-3.617 4.687m50.626-5.625a1.875 1.875 0 1 1 0 3.751 1.875 1.875 0 0 1 0-3.75M31.875 55.311a1.875 1.875 0 1 1-3.75 0 1.875 1.875 0 0 1 3.75 0M30 47.81a1.874 1.874 0 1 1 0-3.749 1.874 1.874 0 0 1 0 3.749m-1.875-18.75a1.875 1.875 0 1 1 3.75 0 1.875 1.875 0 0 1-3.75 0m17.813 9.375a1.875 1.875 0 1 1-3.75 0 1.875 1.875 0 0 1 3.75 0m-1.876-18.75a1.875 1.875 0 1 1 0 3.75 1.875 1.875 0 0 1 0-3.75m-.937 5.492v9.641a3.75 3.75 0 0 0-2.812 3.617c.002.295.04.59.114.876l-7.677 4.093a3.73 3.73 0 0 0-1.812-1.086v-9.641a3.75 3.75 0 0 0 2.812-3.617 3.7 3.7 0 0 0-.114-.877l7.677-4.092a3.73 3.73 0 0 0 1.812 1.086m-15-20.492a1.874 1.874 0 1 1 3.749 0 1.874 1.874 0 0 1-3.749 0m1.875 7.5a1.875 1.875 0 1 1 0 3.75 1.875 1.875 0 0 1 0-3.75m-10.427 8.5 7.676-4.094a3.71 3.71 0 0 0 5.5 0l7.678 4.093a3.4 3.4 0 0 0 0 1.753L32.75 26.53a3.71 3.71 0 0 0-5.5 0l-7.677-4.095a3.4 3.4 0 0 0 0-1.752zm6.791 7.5a3.685 3.685 0 0 0 2.698 4.492v9.641a3.73 3.73 0 0 0-1.812 1.087l-7.677-4.093a3.687 3.687 0 0 0-2.698-4.494v-9.641a3.73 3.73 0 0 0 1.813-1.088zM14.063 21.56a1.875 1.875 0 1 1 3.749 0 1.875 1.875 0 0 1-3.75 0m1.874 15a1.875 1.875 0 1 1 0 3.75 1.875 1.875 0 0 1 0-3.75m-11.25-8.438a1.875 1.875 0 1 1 0 3.75 1.875 1.875 0 0 1 0-3.75"/></g><defs><clipPath id="a"><path fill="#fff" d="M0 0h60v60H0z"/></clipPath></defs></svg>