<svg xmlns="http://www.w3.org/2000/svg" width="60" height="60" fill="none"><path fill="#282928" d="M3.75 7.5h4.512a3.75 3.75 0 0 1 3.75 3.137l.488 3.275L14.85 35h-1.1a6.25 6.25 0 0 0 0 12.5h1.95A4.9 4.9 0 0 0 15 50a5 5 0 1 0 10 0 4.9 4.9 0 0 0-.7-2.5h20.15a4.9 4.9 0 0 0-.7 2.5 5 5 0 1 0 5-5h-35a3.75 3.75 0 0 1 0-7.5h30.5a7.5 7.5 0 0 0 7.112-5.125L57.5 14.15a1.25 1.25 0 0 0-1.25-1.65H14.813l-.388-2.275A6.25 6.25 0 0 0 8.262 5H3.75a1.25 1.25 0 0 0 0 2.5M22.5 50a2.5 2.5 0 1 1-5 0 2.5 2.5 0 0 1 5 0m28.75 0a2.5 2.5 0 1 1-5 0 2.5 2.5 0 0 1 5 0M42.5 35H35v-5h7.5zm-25.687-5H22.5v5h-5.125zM25 30h7.5v5H25zm10-2.5v-5h7.5v5zm0-7.5v-5h7.5v5zm-2.5 0H25v-5h7.5zm0 2.5v5H25v-5zm-10 5h-5.962l-.563-5H22.5zm26.487 4.075A5 5 0 0 1 45 35v-5h4.513zm1.338-4.012A1.4 1.4 0 0 0 50 27.5h-5v-5h7.013zm2.5-7.563H45v-5h9.513zM22.5 15v5h-6.8l-.55-5z"/></svg>