<svg xmlns="http://www.w3.org/2000/svg" width="60" height="60" fill="none"><path fill="#282928" d="M12.804 8.89h-2.007v1.807h2.007zm36.401 0h-2.008v1.807h2.008zM12.804 49.305h-2.007v1.806h2.007zm36.401 0h-2.008v1.806h2.008z"/><path fill="#282928" d="M58 25.942v-9.7h-9.7v4.046h-3.285l-3.176 1.834-10.934-6.312V11.7h3.945V2h-9.7v9.7h3.948v4.109l-10.937 6.313-3.176-1.834H11.7v-4.046H2v9.7h9.7v-3.847h2.8l2.758 1.591v12.629L14.5 37.906h-2.8V34.06H2v9.7h9.7v-4.046h3.285l3.175-1.834 10.938 6.315V48.3h-3.947V58h9.7v-9.7h-3.946v-4.108l10.935-6.313 3.175 1.834h3.286v4.046H58v-9.7h-9.7v3.847h-2.8l-2.757-1.591V23.686l2.756-1.591H48.3v3.847zM26.957 3.807h6.087v6.086h-6.087zM9.893 24.135H3.807V18.05h6.086zm0 17.817H3.807v-6.086h6.086zm23.15 14.242h-6.086v-6.087h6.087zm17.064-20.328h6.087v6.086h-6.087zM30 28.957l-10.033-5.792L30 17.374l10.033 5.79zM19.064 24.73l10.034 5.793v11.586l-10.034-5.792zm11.841 17.377V30.52l10.03-5.79.002 11.585zM50.107 18.05h6.087v6.086h-6.087z"/></svg>