<svg xmlns="http://www.w3.org/2000/svg" width="60" height="60" fill="none"><g fill="#282928" clip-path="url(#a)"><path d="M55.839 23.68H45.303a3.16 3.16 0 0 0-3.16 3.16v21.072a3.16 3.16 0 0 0 3.16 3.16H55.84a3.16 3.16 0 0 0 3.16-3.16V26.84a3.16 3.16 0 0 0-3.16-3.16M44.249 30h12.644v14.75H44.25zm1.054-4.214H55.84a1.054 1.054 0 0 1 1.054 1.053v1.054H44.25V26.84a1.054 1.054 0 0 1 1.053-1.053M55.84 48.965H45.303a1.054 1.054 0 0 1-1.053-1.053v-1.054h12.643v1.054a1.053 1.053 0 0 1-1.054 1.053"/><path d="M53.732 32.11h-6.321a1.054 1.054 0 0 0-1.054 1.053v4.214a1.053 1.053 0 0 0 1.054 1.054h6.321a1.054 1.054 0 0 0 1.054-1.054v-4.214a1.053 1.053 0 0 0-1.054-1.054m-1.053 4.214h-4.214v-2.107h4.214zm-4.214 4.212H47.41a1.054 1.054 0 0 0 0 2.107h1.054a1.054 1.054 0 0 0 0-2.107m5.268 0H52.68a1.054 1.054 0 1 0 0 2.107h1.053a1.053 1.053 0 1 0 0-2.107M18.965 20.517h5.268a1.053 1.053 0 1 0 0-2.107h-5.268a1.054 1.054 0 0 0 0 2.107M29.5 18.41h-1.054a1.054 1.054 0 1 0 0 2.107H29.5a1.054 1.054 0 0 0 0-2.107m-10.535 6.322h1.053a1.054 1.054 0 0 0 0-2.107h-1.053a1.054 1.054 0 0 0 0 2.107M29.5 22.625h-5.268a1.054 1.054 0 0 0 0 2.107H29.5a1.054 1.054 0 1 0 0-2.107m-10.535 6.322H29.5a1.054 1.054 0 0 0 0-2.107H18.965a1.054 1.054 0 0 0 0 2.107m14.75-2.107v2.106A1.053 1.053 0 0 1 32.66 30a1.054 1.054 0 0 0 0 2.107 3.16 3.16 0 0 0 3.16-3.16v-2.108a2.107 2.107 0 0 1 2.108-2.107 1.054 1.054 0 1 0 0-2.107 2.107 2.107 0 0 1-2.107-2.107V18.41a3.16 3.16 0 0 0-3.161-3.161 1.054 1.054 0 0 0 0 2.107 1.054 1.054 0 0 1 1.054 1.054v2.107a4.22 4.22 0 0 0 1.453 3.16 4.22 4.22 0 0 0-1.453 3.161m-18.964-6.32V18.41a1.054 1.054 0 0 1 1.054-1.054 1.054 1.054 0 1 0 0-2.107 3.16 3.16 0 0 0-3.16 3.16v2.108a2.107 2.107 0 0 1-2.108 2.107 1.054 1.054 0 0 0 0 2.107 2.107 2.107 0 0 1 2.107 2.107v2.107a3.16 3.16 0 0 0 3.16 3.161 1.054 1.054 0 1 0 0-2.107 1.053 1.053 0 0 1-1.053-1.054V26.84a4.22 4.22 0 0 0-1.454-3.16 4.22 4.22 0 0 0 1.454-3.161"/><path d="M2.107 11.037h44.25v10.536h2.107V9.983a1.054 1.054 0 0 0-1.053-1.053H1.054A1.054 1.054 0 0 0 0 9.983v33.714a1.053 1.053 0 0 0 1.054 1.054h17.5l-1.402 4.214h-1.348a1.053 1.053 0 1 0 0 2.107H32.66a1.054 1.054 0 0 0 0-2.107h-1.349l-1.401-4.214h10.125v-2.107H2.107V38.43h37.929v-2.108H2.107zm25.58 33.714 1.402 4.214h-9.714l1.401-4.214z"/></g><defs><clipPath id="a"><path fill="#fff" d="M0 0h60v60H0z"/></clipPath></defs></svg>