<svg xmlns="http://www.w3.org/2000/svg" width="60" height="60" fill="none"><path fill="#282928" d="M48.101 31.027a.879.879 0 1 0-.317 1.728 10.46 10.46 0 0 1 8.573 10.294c0 5.08-3.638 9.325-8.445 10.27q-.015 0-.029.003c-.66.128-1.33.193-1.991.193-5.771 0-10.466-4.695-10.466-10.466 0-5.12 3.687-9.398 8.573-10.294a.879.879 0 1 0-.317-1.728 12.2 12.2 0 0 0-6.995 3.98l-5.464-2.116v-3.05a9.47 9.47 0 0 0 3.656-6.394c2.353-.104 4.106-1.988 4.106-4.227a4.2 4.2 0 0 0-1.06-2.79v-3.858C37.927 5.64 32.287 0 25.356 0c-6.933 0-12.573 5.64-12.573 12.572v3.957c-.685.758-1.058 1.696-1.058 2.691 0 2.237 1.749 4.122 4.106 4.227a9.36 9.36 0 0 0 3.863 6.54v2.903L7.342 37.68l-.017.006C7.108 37.775 2 39.943 2 45.913V58.01C2 59.107 2.893 60 3.991 60h42.957a1.984 1.984 0 0 0 1.98-1.981V54.89c5.277-1.354 9.187-6.15 9.187-11.842a12.22 12.22 0 0 0-10.014-12.022M33.793 35.77l-3.166 6.346-3.897-2.768 3.893-4.806zm-6.068 6.441-.905 1.362h-2.717l-.905-1.362 2.263-1.608zm-6.274-9.04V30.98c1.188.511 2.596.81 4.028.81 1.38 0 2.745-.303 3.986-.882v2.274l-4.004 4.942zm14.926-12.095c-.4.344-.892.549-1.429.602v-4.917c2.251.218 3.037 2.932 1.429 4.315m-20.616.602c-1.351-.134-2.279-1.216-2.279-2.459 0-1.245 1.082-2.221 2.279-2.418zm.029-6.653c-.41.037-.897.158-1.25.296v-2.75c0-5.963 4.851-10.814 10.814-10.814s10.814 4.851 10.814 10.814v2.673a4.4 4.4 0 0 0-1.22-.247c0-1.056.129-.756-2.934-4.041-.245-.263-.532-.648-1.14-.776a1.67 1.67 0 0 0-1.26.238c-3.454 2.256-7.789 3.523-11.952 3.25-1.017-.067-1.716.512-1.872 1.357m1.729 7.293v-6.897c4.472.3 9.191-1.024 12.998-3.493 1.588 1.706 2.443 2.592 2.673 2.889 0 8.768.002 7.208-.005 7.694-.102 4.143-3.499 7.518-7.706 7.518-4.68 0-7.96-3.608-7.96-7.71m2.775 12.227 3.894 4.806-3.893 2.765-3.166-6.346zm-8.4 23.696V47.787a.879.879 0 1 0-1.757 0v10.455H3.99a.233.233 0 0 1-.233-.233V45.914c0-4.729 3.994-6.5 4.23-6.6l7.494-2.906 3.297 6.607c.215.432.607.747 1.076.864.856.214 1.366-.264 1.908-.648l.944 1.42-2.3 13.591zm27.14 0h-8.518l-.788-4.661a.879.879 0 1 0-1.734.293l.74 4.368h-6.545l2.185-12.91h2.175l.751 4.44a.879.879 0 1 0 1.733-.293l-.817-4.829.943-1.42.554.394a1.65 1.65 0 0 0 2.43-.609l3.297-6.606.15.058a12.2 12.2 0 0 0-1.922 6.583c0 4.2 2.13 7.912 5.367 10.114zm8.137-.223c0 .123-.1.223-.223.223h-6.155v-4.085a12.15 12.15 0 0 0 6.378 1.05z"/></svg>