<svg xmlns="http://www.w3.org/2000/svg" width="60" height="60" fill="none"><path fill="#282928" d="M26.625 11.438h2.531v3.374a.843.843 0 1 0 1.688 0v-3.374h2.531a.844.844 0 0 0 .844-.844v-6.75A.844.844 0 0 0 33.375 3h-6.75a.844.844 0 0 0-.844.844v6.75a.844.844 0 0 0 .844.844m.844-6.75h5.062V9.75H27.47zM33.375 48.563h-2.531v-3.376a.843.843 0 1 0-1.688 0v3.376h-2.531a.844.844 0 0 0-.844.843v6.75a.844.844 0 0 0 .844.844h6.75a.844.844 0 0 0 .844-.844v-6.75a.844.844 0 0 0-.844-.843m-.844 6.75H27.47V50.25h5.062zM56.158 3H46.033a.844.844 0 0 0-.844.844v9.775l-5.66 5.66a.844.844 0 0 0 1.194 1.192l5.659-5.658h9.776a.844.844 0 0 0 .843-.844V3.844A.844.844 0 0 0 56.158 3m-.844 10.125h-8.438V4.688h8.438zM29.578 17.457l-10.125 5.906a.88.88 0 0 0-.422.729v11.813a.84.84 0 0 0 .422.728l10.125 5.907a.84.84 0 0 0 .85 0l10.126-5.907a.84.84 0 0 0 .415-.729V24.093a.88.88 0 0 0-.422-.729l-10.125-5.906a.84.84 0 0 0-.844 0m-8.86 8.104 8.438 4.922v9.859L20.72 35.42zm10.126 14.78v-9.858l8.437-4.922v9.86zM30 29.022l-8.451-4.929L30 19.162l8.451 4.93zM56.156 25.781h-6.75a.844.844 0 0 0-.843.844v2.531H43.5a.843.843 0 1 0 0 1.688h5.063v2.531a.844.844 0 0 0 .843.844h6.75a.844.844 0 0 0 .844-.844v-6.75a.844.844 0 0 0-.844-.844m-.843 6.75H50.25V27.47h5.063zM3.844 34.219h6.75a.844.844 0 0 0 .844-.844v-2.531H16.5a.843.843 0 1 0 0-1.688h-5.062v-2.531a.844.844 0 0 0-.844-.844h-6.75a.844.844 0 0 0-.844.844v6.75a.844.844 0 0 0 .844.844m.844-6.75H9.75v5.062H4.688zM3.844 14.813h9.775l5.66 5.658a.844.844 0 0 0 1.192-1.192l-5.658-5.66V3.844A.844.844 0 0 0 13.969 3H3.844A.844.844 0 0 0 3 3.844v10.125a.844.844 0 0 0 .844.844m.844-10.125h8.437v8.437H4.688zM56.158 45.189h-9.776l-5.66-5.66a.844.844 0 0 0-1.192 1.194l5.659 5.659v9.776a.843.843 0 0 0 .844.843h10.125a.843.843 0 0 0 .843-.843V46.033a.843.843 0 0 0-.843-.844m-.844 10.125h-8.438v-8.438h8.438zM19.279 39.53l-5.66 5.659H3.844a.843.843 0 0 0-.844.844v10.125a.844.844 0 0 0 .844.843h10.125a.844.844 0 0 0 .844-.843v-9.776l5.658-5.66a.844.844 0 0 0-1.192-1.192m-6.154 15.784H4.688v-8.438h8.437z"/></svg>