<svg xmlns="http://www.w3.org/2000/svg" width="60" height="60" fill="none"><path fill="#282928" d="M56.56 49.585 44.237 37.262a.934.934 0 0 0-1.32 0l-.57.569-2.06-2.06a21.1 21.1 0 0 0 4.131-12.562C44.418 11.514 34.904 2 23.21 2S2 11.514 2 23.21c0 11.694 9.514 21.208 21.21 21.208 4.697 0 9.041-1.536 12.56-4.13l2.06 2.06-.568.57a.933.933 0 0 0 0 1.32L49.585 56.56A4.9 4.9 0 0 0 53.072 58c1.321 0 2.56-.511 3.488-1.44A4.9 4.9 0 0 0 58 53.072c0-1.32-.511-2.559-1.44-3.487M3.867 23.209c0-10.665 8.677-19.342 19.342-19.342 10.666 0 19.343 8.677 19.343 19.342 0 10.666-8.677 19.343-19.343 19.343-10.665 0-19.342-8.677-19.342-19.343M37.23 39.108a21 21 0 0 0 1.878-1.877l1.92 1.92-1.877 1.877zm6.347.134 1.347 1.346-4.336 4.336-1.347-1.347zM55.24 55.24a3.04 3.04 0 0 1-2.167.893 3.04 3.04 0 0 1-2.168-.893l-8.997-8.996 4.336-4.336 8.996 8.997c.576.576.893 1.346.893 2.167 0 .822-.317 1.592-.893 2.168M23.21 6.717c-9.095 0-16.493 7.398-16.493 16.492s7.398 16.493 16.492 16.493 16.493-7.399 16.493-16.493S32.303 6.717 23.209 6.717m0 31.118c-8.066 0-14.627-6.56-14.627-14.626 0-8.064 6.561-14.626 14.626-14.626s14.626 6.562 14.626 14.626-6.56 14.626-14.626 14.626m7.371-22.698c-.758 0-1.471.295-2.008.832l-8.17 8.17-2.349-2.954a2.82 2.82 0 0 0-2.222-1.072c-.638 0-1.264.22-1.764.617a2.82 2.82 0 0 0-1.053 1.898 2.82 2.82 0 0 0 .598 2.087l4.236 5.332a2.85 2.85 0 0 0 2.316 1.19c.757 0 1.469-.295 2.005-.831l10.42-10.42a2.844 2.844 0 0 0 0-4.017 2.82 2.82 0 0 0-2.009-.832m.689 3.529-10.42 10.42a.96.96 0 0 1-.685.285.97.97 0 0 1-.803-.418l-.035-.046-4.253-5.353a.96.96 0 0 1-.204-.714.96.96 0 0 1 .36-.65.967.967 0 0 1 1.363.155l2.999 3.775a.934.934 0 0 0 1.39.08l8.91-8.911a.97.97 0 0 1 .69-.286.975.975 0 0 1 .689 1.662"/></svg>