<svg xmlns="http://www.w3.org/2000/svg" width="60" height="60" fill="none"><path fill="#282928" d="M57.125 52.05H54.15V19.675c0-.262-.087-.525-.35-.7l-8.4-6.65v-9.45A.877.877 0 0 0 44.525 2H15.388a.877.877 0 0 0-.876.875v9.45l-8.4 6.65c-.175.175-.35.438-.35.7V52.05H2.876a.877.877 0 0 0-.875.875v4.2c0 .438.35.875.875.875h54.25c.438 0 .875-.35.875-.875v-4.2c0-.525-.35-.875-.875-.875m-4.638-32.025V52.05H45.4V14.425zM16.264 3.663h27.474V52.05h-7.612V37.963a.877.877 0 0 0-.875-.876H24.663a.877.877 0 0 0-.875.875V52.05h-7.526zm18.2 48.387h-8.925V38.838h8.924zM7.512 20.025l7.087-5.6V52.05H7.513zm48.825 36.313H3.663V53.8H56.25v2.538z"/><path fill="#282928" d="M19.84 22h20.32c.42 0 .84-.312.84-.78v-4.44c0-.39-.336-.78-.84-.78H19.84c-.42 0-.84.312-.84.78v4.44c0 .468.42.78.84.78m.84-4.442h18.64v2.962H20.68zM19.84 33h20.32c.42 0 .84-.364.84-.91v-5.18c0-.456-.336-.91-.84-.91H19.84c-.42 0-.84.364-.84.91v5.18c0 .455.42.91.84.91m.84-5.273h18.64v3.455H20.68zM19.84 13h20.32c.42 0 .84-.364.84-.91V6.91c0-.455-.336-.91-.84-.91H19.84c-.42 0-.84.364-.84.91v5.18c0 .546.42.91.84.91m.84-5.182h18.64v3.455H20.68zM12.111 42H9.89C9.444 42 9 42.4 9 43s.356 1 .889 1h2.222c.445 0 .889-.4.889-1s-.444-1-.889-1M12.111 26H9.89C9.444 26 9 26.4 9 27c0 .5.356 1 .889 1h2.222c.445 0 .889-.4.889-1s-.444-1-.889-1M47.889 44h2.222c.445 0 .889-.4.889-1s-.356-1-.889-1H47.89c-.445 0-.889.4-.889 1s.444 1 .889 1M47.889 28h2.222c.445 0 .889-.4.889-1 0-.5-.356-1-.889-1H47.89c-.445 0-.889.4-.889 1s.444 1 .889 1M12.111 32H9.89c-.445 0-.889.2-.889.5 0 .25.356.5.889.5h2.222c.445 0 .889-.2.889-.5s-.444-.5-.889-.5M47.889 33h2.222c.445 0 .889-.2.889-.5 0-.25-.356-.5-.889-.5H47.89c-.445 0-.889.2-.889.5s.444.5.889.5M12.111 37H9.89C9.444 37 9 37.4 9 38s.356 1 .889 1h2.222c.445 0 .889-.4.889-1s-.444-1-.889-1M47.889 39h2.222c.445 0 .889-.4.889-1s-.356-1-.889-1H47.89c-.445 0-.889.4-.889 1s.444 1 .889 1M12.111 48H9.89C9.444 48 9 48.4 9 49s.356 1 .889 1h2.222c.445 0 .889-.4.889-1s-.444-1-.889-1M12.111 21H9.89C9.444 21 9 21.4 9 22s.356 1 .889 1h2.222c.445 0 .889-.4.889-1s-.444-1-.889-1M47.889 50h2.222c.445 0 .889-.4.889-1s-.356-1-.889-1H47.89c-.445 0-.889.4-.889 1s.444 1 .889 1M47.889 23h2.222c.445 0 .889-.4.889-1s-.356-1-.889-1H47.89c-.445 0-.889.4-.889 1s.444 1 .889 1"/></svg>