<svg xmlns="http://www.w3.org/2000/svg" width="60" height="60" fill="none"><path fill="#282928" d="M23.14 6.796c0-.518.42-.936.936-.936h14.547a.936.936 0 1 1 0 1.872H24.077a.936.936 0 0 1-.937-.936m-3.57.936h.59a.937.937 0 0 0 0-1.872h-.59a.936.936 0 1 0 0 1.872m-3.222 0h.591a.937.937 0 0 0 0-1.872h-.591a.936.936 0 1 0 0 1.872m-3.223 0h.592a.937.937 0 0 0 0-1.872h-.592a.936.936 0 1 0 0 1.872m17.25 7.15H13.978a.936.936 0 1 0 0 1.873h16.397a.937.937 0 0 0 0-1.873m7.398 0h-2.787a.936.936 0 1 0 0 1.873h2.787a.936.936 0 1 0 0-1.873m-7.398 6.055H13.978a.936.936 0 1 0 0 1.873h16.397a.937.937 0 0 0 0-1.873m7.398 0h-2.787a.936.936 0 1 0 0 1.873h2.787a.936.936 0 1 0 0-1.873m-7.398 6.056H13.978a.936.936 0 1 0 0 1.873h16.397a.937.937 0 0 0 0-1.873m7.398 0h-2.787a.936.936 0 1 0 0 1.873h2.787a.936.936 0 1 0 0-1.873M60 27.96v26.236a3.81 3.81 0 0 1-3.804 3.807h-12.6a3.81 3.81 0 0 1-3.804-3.807v-3.2H31.43l1.837 5.132h3.526a.937.937 0 0 1 0 1.873H14.956a.937.937 0 0 1 0-1.873h3.528l1.835-5.131H4.206A4.21 4.21 0 0 1 0 46.79V15.429a4.21 4.21 0 0 1 4.206-4.202h4.608V5.181a3.187 3.187 0 0 1 3.182-3.185h27.761a3.19 3.19 0 0 1 3.183 3.185v6.046h4.608a4.21 4.21 0 0 1 4.202 4.202v8.724h4.448A3.81 3.81 0 0 1 60 27.959M42.939 13.101v2.216h3.498c.517 0 .936.42.936.936v7.9h2.5v-8.724a2.33 2.33 0 0 0-2.328-2.328zm2.56 11.052V17.19h-2.562v7.02a4 4 0 0 1 .658-.058zM8.814 30.847V17.19H6.248v27.843h33.544V34.028l-.036.001h-27.76a3.187 3.187 0 0 1-3.182-3.183m32.25-5.725v-13.53H10.687v19.255a1.31 1.31 0 0 0 1.31 1.309h27.796V27.96a4 4 0 0 1 .023-.403l.002-.023.023-.177q0-.007.003-.013.015-.094.035-.185v-.005c.174-.8.599-1.506 1.187-2.032M10.687 5.182v4.537h30.379V5.18c0-.723-.587-1.312-1.31-1.312h-27.76a1.313 1.313 0 0 0-1.309 1.312M29.44 50.996h-7.131l-1.835 5.132h10.803zm10.353-1.874v-2.216H5.313a.937.937 0 0 1-.937-.936V16.253c0-.518.42-.936.936-.936h3.502V13.1H4.206a2.333 2.333 0 0 0-2.332 2.328v31.362a2.335 2.335 0 0 0 2.332 2.332zm18.333-21.164a1.934 1.934 0 0 0-1.93-1.934h-12.6c-.39 0-.752.118-1.057.318l-.014.01a2 2 0 0 0-.57.593l-.007.011a2 2 0 0 0-.097.18l-.011.025q-.02.045-.04.09l-.024.068-.036.113q-.015.048-.025.097-.008.03-.013.059a2 2 0 0 0-.023.153l-.004.041a2 2 0 0 0-.008.174v26.236c0 1.066.866 1.933 1.93 1.933h12.6c1.064 0 1.93-.867 1.93-1.933V27.959m-12.386 1.16h8.314a.936.936 0 1 0 0-1.872h-8.315a.936.936 0 1 0 0 1.872m4.762 23.917h-1.213a.936.936 0 1 0 0 1.873h1.213a.937.937 0 0 0 0-1.873m5.82-18.628v4.82c0 .518-.419.936-.936.936H44.407a.937.937 0 0 1-.936-.936v-4.82c0-.518.42-.937.936-.937h10.98a.935.935 0 0 1 .936.937m-1.873.936h-9.106v2.946h9.106zm-5.704 13.34h-4.338a.936.936 0 0 1-.936-.936v-4.82c0-.517.42-.936.936-.936h4.338c.518 0 .937.42.937.937v4.82c0 .516-.42.936-.937.936m-.936-4.82h-2.465v2.947h2.465zm7.576-1.471h-2.893a.936.936 0 1 0 0 1.873h2.893a.936.936 0 1 0 0-1.873m0 4.016h-2.893a.936.936 0 1 0 0 1.873h2.893a.936.936 0 1 0 0-1.873"/></svg>