<svg xmlns="http://www.w3.org/2000/svg" width="50.146" height="60"><path d="M48.352 16.767H46.79a6.4 6.4 0 0 0-4.695-5.85C37.111-1.629 22.231-1.846 14.842 2.727a16.52 16.52 0 0 0-6.7 8.191 6.4 6.4 0 0 0-4.695 5.85H1.794a1.8 1.8 0 0 0-1.795 1.794v6.156a1.8 1.8 0 0 0 1.795 1.794H3.45a6.4 6.4 0 0 0 4.712 5.845 24.74 24.74 0 0 0 6.5 10.693 16.8 16.8 0 0 1-.968 5.712 16.44 16.44 0 0 1-8.96 9.613A.854.854 0 0 0 5.093 60h40.053a.854.854 0 0 0 .362-1.627 16.44 16.44 0 0 1-8.96-9.613 16.8 16.8 0 0 1-.968-5.712 24.74 24.74 0 0 0 6.493-10.692 6.4 6.4 0 0 0 4.712-5.845h1.562a1.8 1.8 0 0 0 1.794-1.794v-6.156a1.8 1.8 0 0 0-1.789-1.794M3.442 24.8c-1.549-.035-1.734.077-1.734-.087.039-6.342-.083-6.242.087-6.242h1.647ZM25.12 1.729c7.082 0 12.366 3.169 15.024 8.961H10.096c2.658-5.79 7.942-8.961 15.024-8.961m16.786 56.564H8.333a18.13 18.13 0 0 0 7.993-13.84 15.07 15.07 0 0 0 17.585-.018 18.13 18.13 0 0 0 7.995 13.858M18.083 43.535c-3.469-2.138-6.281-5.909-8.048-10.958h10.122a2.753 2.753 0 0 0 2.75-2.749 1.13 1.13 0 0 1 1.127-1.128h2.171a1.13 1.13 0 0 1 1.127 1.127 2.753 2.753 0 0 0 2.75 2.749h10.123c-4.309 12.309-14.215 15.6-22.122 10.959m26.99-17.343a4.67 4.67 0 0 1-4.665 4.663H30.083a1.03 1.03 0 0 1-1.028-1.027 2.853 2.853 0 0 0-2.85-2.849h-2.171a2.853 2.853 0 0 0-2.85 2.849 1.03 1.03 0 0 1-1.028 1.027H9.829a4.67 4.67 0 0 1-4.665-4.663v-9.117a4.67 4.67 0 0 1 4.665-4.663h30.582a4.67 4.67 0 0 1 4.662 4.663Zm3.279-1.392h-1.554v-6.325c1.447.034 1.641-.077 1.641.087-.04 6.338.083 6.238-.087 6.238M7.504 21.9a.854.854 0 0 0-.854.854V24.1a.854.854 0 0 0 1.708 0v-1.346a.853.853 0 0 0-.854-.854m2.833-8.059a3.565 3.565 0 0 0-3.687 3.685v2.5a.854.854 0 0 0 1.708 0v-2.5a1.86 1.86 0 0 1 1.979-1.978.854.854 0 1 0 0-1.707"/><path d="M14.345 17.4h1.736a.335.335 0 0 1 .36.264l1.784 5.1a.3.3 0 0 1 .008.08.16.16 0 0 1-.056.1.16.16 0 0 1-.12.048h-1.484a.3.3 0 0 1-.312-.2l-.188-.52h-1.72l-.192.528a.3.3 0 0 1-.312.2h-1.476a.2.2 0 0 1-.128-.048.17.17 0 0 1-.048-.1.3.3 0 0 1 .008-.08l1.784-5.1a.335.335 0 0 1 .356-.272m.416 3.312h.9l-.456-1.488Zm9.345 2.024a.2.2 0 0 1 .024.1.18.18 0 0 1-.176.16h-1.64a.35.35 0 0 1-.344-.216l-.688-1.528h-.328v1.528a.22.22 0 0 1-.216.216h-1.565a.22.22 0 0 1-.216-.216v-5.164a.22.22 0 0 1 .216-.216h2.368a2.8 2.8 0 0 1 1.8.52 1.77 1.77 0 0 1 .648 1.48 1.71 1.71 0 0 1-.864 1.512Zm-3.152-3.848v.848h.584a.34.34 0 0 0 .272-.112.46.46 0 0 0 .1-.3.5.5 0 0 0-.1-.3.3.3 0 0 0-.272-.136Zm6.785-2.176h1.072a.15.15 0 0 1 .12.056.14.14 0 0 1 .056.1.2.2 0 0 1-.016.088l-2.7 6.472a.35.35 0 0 1-.352.24h-1.051a.18.18 0 0 1-.128-.056.14.14 0 0 1-.048-.1.2.2 0 0 1 .016-.088l2.68-6.472a.36.36 0 0 1 .352-.24Zm5.59.688h1.488a.15.15 0 0 1 .12.056.13.13 0 0 1 .056.1.3.3 0 0 1-.008.08l-1.5 5.1a.335.335 0 0 1-.36.264h-1.828a.335.335 0 0 1-.36-.264l-1.5-5.1a.3.3 0 0 1-.008-.08.14.14 0 0 1 .048-.1.18.18 0 0 1 .128-.056h1.488a.335.335 0 0 1 .36.264l.76 2.976.76-2.976a.335.335 0 0 1 .356-.264m7.533 5.336a.2.2 0 0 1 .024.1.18.18 0 0 1-.176.16h-1.637a.35.35 0 0 1-.344-.216l-.688-1.528h-.328v1.528a.22.22 0 0 1-.216.216h-1.571a.22.22 0 0 1-.216-.216v-5.164a.22.22 0 0 1 .216-.216h2.368a2.8 2.8 0 0 1 1.8.52 1.77 1.77 0 0 1 .648 1.48 1.71 1.71 0 0 1-.864 1.512Zm-3.152-3.848v.848h.584a.34.34 0 0 0 .272-.112.46.46 0 0 0 .1-.3.5.5 0 0 0-.1-.3.3.3 0 0 0-.272-.136Z"/></svg>