<svg xmlns="http://www.w3.org/2000/svg" width="60" height="60" fill="none"><g fill="#282928" clip-path="url(#a)"><path d="M54.933 29.509h.058a1 1 0 0 0 1-.943C56 28.379 56 28.19 56 28a27.8 27.8 0 0 0-3.73-13.934c-.01-.021-.01-.045-.021-.066s-.033-.032-.046-.052A28.2 28.2 0 0 0 42.052 3.8c-.02-.014-.031-.034-.052-.046s-.045-.012-.066-.022a27.89 27.89 0 0 0-27.856 0c-.026.012-.053.012-.078.026s-.041.04-.065.058A28 28 0 0 0 11.064 5.7a1.004 1.004 0 0 0 1.212 1.6 27 27 0 0 1 1.869-1.294l.989 1.714a1 1 0 0 0 1.732-1l-.994-1.722A25.7 25.7 0 0 1 27 2.04V4a1 1 0 0 0 2 0V2.026a25.8 25.8 0 0 1 11.12 2.983l-.986 1.708a1 1 0 1 0 1.732 1l.984-1.7a26.2 26.2 0 0 1 8.138 8.138l-1.7.984a1 1 0 1 0 1 1.732l1.707-.986A25.8 25.8 0 0 1 54 28q.002.224-.008.452a1 1 0 0 0 .94 1.056M44 28c-8.837 0-16 7.163-16 16s7.163 16 16 16 16-7.163 16-16c-.01-8.832-7.168-15.99-16-16m0 30a14 14 0 1 1 14-14c-.008 7.729-6.271 13.992-14 14"/><path d="M30.125 8.893A2.94 2.94 0 0 0 28 8a3 3 0 0 0-3 3v14.382a3.96 3.96 0 0 0-.973 2.346l-6.734 6.734a3.001 3.001 0 0 0 4.244 4.245l6.735-6.734A3.965 3.965 0 0 0 31 25.383V11a2.92 2.92 0 0 0-.874-2.107M28 10c.27 0 .527.11.712.306.187.183.291.433.288.694v13.142a3.6 3.6 0 0 0-2 0V11a1 1 0 0 1 1-1m-7.877 27.293a1.026 1.026 0 0 1-1.416 0 1.016 1.016 0 0 1 0-1.415l5.86-5.859a4 4 0 0 0 1.415 1.416zM28 30a2 2 0 1 1 0-4 2 2 0 0 1 0 4"/><path d="M3.813 42.081a28.2 28.2 0 0 0 10.135 10.12c.02.013.03.033.052.045a1 1 0 0 0 .1.04A27.8 27.8 0 0 0 28 56c.189 0 .378 0 .567-.012a1 1 0 0 0 .94-1.055 1.024 1.024 0 0 0-1.054-.94C28.3 54 28.153 54 28 54a25.8 25.8 0 0 1-12.12-3.008l.986-1.708a1 1 0 0 0-1.732-1l-.984 1.7a26.2 26.2 0 0 1-8.138-8.134l1.7-.984a1 1 0 1 0-1-1.732l-1.707.986A25.8 25.8 0 0 1 2.025 29H4a1 1 0 1 0 0-2H2.04a25.7 25.7 0 0 1 2.953-11.128l1.722.994a1 1 0 1 0 1-1.732L6 14.144q.6-.957 1.294-1.869a1 1 0 1 0-1.59-1.21 28 28 0 0 0-1.9 2.87c-.017.023-.043.038-.058.065s-.014.053-.027.08a27.89 27.89 0 0 0 0 27.854c.01.021.01.045.022.066a1 1 0 0 0 .072.081M48 39.5a1 1 0 1 0 2 0 5.67 5.67 0 0 0-5-5.417V34a1 1 0 1 0-2 0v.083a5.67 5.67 0 0 0-5 5.417 5.67 5.67 0 0 0 5 5.417v6.959a3.62 3.62 0 0 1-3-3.376 1 1 0 1 0-2 0 5.67 5.67 0 0 0 5 5.417V54a1 1 0 1 0 2 0v-.083a5.434 5.434 0 0 0 0-10.834v-6.959a3.62 3.62 0 0 1 3 3.376m-8 0a3.62 3.62 0 0 1 3-3.376v6.752a3.62 3.62 0 0 1-3-3.376m8 9a3.62 3.62 0 0 1-3 3.376v-6.752a3.62 3.62 0 0 1 3 3.376"/></g><defs><clipPath id="a"><path fill="#fff" d="M0 0h60v60H0z"/></clipPath></defs></svg>