<svg xmlns="http://www.w3.org/2000/svg" width="60" height="60"><defs><clipPath id="a"><path d="M0 0h60v60H0z"/></clipPath></defs><g clip-path="url(#a)"><path d="M28.975 46.328v1.4H3.031V10.457h25.944v10.665a2.54 2.54 0 0 1 1.086-.235h1.946V5.662a3.5 3.5 0 0 0-3.466-3.457H3.457A3.466 3.466 0 0 0 0 5.662v48.674a3.46 3.46 0 0 0 3.457 3.457h25.084a3.473 3.473 0 0 0 3.466-3.457v-7.66h-1.729a2.54 2.54 0 0 1-1.303-.348M13.793 5.462h4.412a.869.869 0 0 1 0 1.737h-4.412a.869.869 0 0 1 0-1.737m5.081 48.492h-5.75a.869.869 0 1 1 0-1.737h5.75a.869.869 0 0 1 0 1.737"/><path d="M21.361 24.09a.87.87 0 0 0 1.228-.006l3.63-3.664a.87.87 0 0 0 0-1.222l-3.63-3.664a.868.868 0 1 0-1.234 1.222l3.024 3.053-3.024 3.053a.87.87 0 0 0 .006 1.228M10.641 15.528a.867.867 0 0 0-1.228.006L5.783 19.2a.87.87 0 0 0 0 1.222l3.629 3.664a.869.869 0 0 0 1.234-1.222l-3.023-3.056 3.024-3.053a.87.87 0 0 0-.006-1.227M17.4 13.074 12.3 25.9a.868.868 0 1 0 1.614.641l5.1-12.829a.868.868 0 0 0-1.614-.641ZM41.479 31.8l-1.908-.216a8.4 8.4 0 0 0-.975-2.317v-.008l1.128-1.59a.91.91 0 0 0-.1-1.171l-1.364-1.365a.91.91 0 0 0-1.213-.068l-1.5 1.2a8.4 8.4 0 0 0-2.333-.944l-.325-1.934a.91.91 0 0 0-.9-.76h-1.932a.91.91 0 0 0-.905.809l-.216 1.915a8.6 8.6 0 0 0-2.317.975l-1.6-1.134a.91.91 0 0 0-1.173.1l-1.361 1.365a.91.91 0 0 0-.068 1.21l1.2 1.506a8.2 8.2 0 0 0-.952 2.333l-1.926.325a.91.91 0 0 0-.76.9v1.931a.91.91 0 0 0 .808.905l1.9.215a8.6 8.6 0 0 0 .982 2.325v.008l-1.123 1.575a.91.91 0 0 0 .1 1.173l1.366 1.366a.91.91 0 0 0 1.211.069l1.5-1.2a8.5 8.5 0 0 0 2.325.944l.325 1.933a.91.91 0 0 0 .9.76h1.937a.91.91 0 0 0 .905-.809l.216-1.915a8.2 8.2 0 0 0 2.317-.975l1.6 1.134a.91.91 0 0 0 1.173-.1l1.361-1.366a.91.91 0 0 0 .068-1.21l-1.191-1.5a8.6 8.6 0 0 0 .944-2.34l1.926-.325a.91.91 0 0 0 .759-.9v-1.93a.91.91 0 0 0-.809-.899m-10.34 5.725a3.745 3.745 0 1 1 3.737-3.745 3.745 3.745 0 0 1-3.737 3.745"/></g></svg>