<svg width="60" height="60" viewBox="0 0 60 60" fill="none" xmlns="http://www.w3.org/2000/svg">
<path d="M18 54V52H20.1C20.292 50.9701 20.7543 50.0096 21.4396 49.2172C22.1249 48.4247 23.0085 47.8286 24 47.49V45H9C8.20435 45 7.44129 44.6839 6.87868 44.1213C6.31607 43.5587 6 42.7956 6 42V19C6 18.2044 6.31607 17.4413 6.87868 16.8787C7.44129 16.3161 8.20435 16 9 16H11V7.00003C11 6.73481 11.1054 6.48047 11.2929 6.29293C11.4804 6.10539 11.7348 6.00002 12 6H48C48.2652 6.00002 48.5196 6.10539 48.7071 6.29293C48.8946 6.48047 49 6.73481 49 7.00003V16H51C51.7956 16 52.5587 16.3161 53.1213 16.8787C53.6839 17.4413 54 18.2044 54 19V42C54 42.7956 53.6839 43.5587 53.1213 44.1213C52.5587 44.6839 51.7956 45 51 45H48.41L53.3699 49.95L51.9599 51.36L47.0099 46.41L46.2999 47.12C46.2065 47.2126 46.0956 47.2859 45.9738 47.3357C45.8519 47.3854 45.7215 47.4107 45.5899 47.4099H45.4699C45.318 47.3918 45.1724 47.3391 45.0441 47.2559C44.9158 47.1727 44.8084 47.0612 44.7299 46.9299L43.57 45H36V47.49C36.9915 47.8286 37.8751 48.4247 38.5604 49.2172C39.2457 50.0097 39.708 50.9702 39.9 52.0001H42V54H18ZM22.1601 52H37.84C37.49 50.8 36.41 49 32.9999 49V47H33.9999V45H26V47.0002H30V49.0001H27C23.5899 49 22.51 50.8 22.1601 52ZM45.7901 44.8L46.8 43.7901L44.2599 42.2601L45.7901 44.8ZM41.8601 38.49L48.9301 42.73C49.0402 42.8008 49.1353 42.8926 49.2101 43H51C51.2652 43 51.5196 42.8946 51.7071 42.7071C51.8946 42.5196 52 42.2652 52 42V19C52 18.7348 51.8946 18.4805 51.7071 18.2929C51.5196 18.1054 51.2652 18 51 18H49V34H50.0001V36H10V34H11V18H9C8.73477 18 8.4804 18.1054 8.29284 18.2929C8.10528 18.4804 7.9999 18.7348 7.99988 19V42C7.99992 42.2652 8.10532 42.5196 8.29287 42.7071C8.48043 42.8946 8.73478 42.9999 9 42.9999H42.37L40.4901 39.86C40.3768 39.6689 40.3304 39.4456 40.3582 39.2253C40.3859 39.005 40.4862 38.8002 40.6432 38.6432C40.8002 38.4861 41.0051 38.3859 41.2254 38.3581C41.4457 38.3304 41.669 38.3769 41.86 38.4901L41.8601 38.49ZM13 33.9999H47.0001V14H13V33.9999ZM13 12H47.0001V7.99997H13V12ZM10 42C9.73481 42 9.48044 41.8946 9.2929 41.7071C9.10536 41.5196 9 41.2652 9 41V38H11V40H13V42H10ZM24 32.0001C23.7348 32 23.4804 31.8947 23.2929 31.7071C23.1054 31.5196 23 31.2652 23 31V23.0001H20C19.8686 23.0001 19.7386 22.9742 19.6172 22.924C19.4959 22.8737 19.3857 22.8001 19.2928 22.7072C19.1999 22.6143 19.1262 22.5041 19.076 22.3827C19.0257 22.2614 18.9998 22.1314 18.9998 22V17.0001C18.9999 16.7348 19.1052 16.4805 19.2928 16.2929C19.4804 16.1054 19.7347 16 20 16H40C40.1314 16 40.2614 16.0259 40.3827 16.0761C40.5041 16.1264 40.6143 16.2 40.7072 16.2929C40.8001 16.3858 40.8737 16.496 40.924 16.6174C40.9742 16.7387 41.0001 16.8687 41.0001 17.0001V22C41.0001 22.1314 40.9742 22.2614 40.924 22.3827C40.8737 22.5041 40.8001 22.6143 40.7072 22.7072C40.6143 22.8001 40.5041 22.8737 40.3827 22.924C40.2614 22.9742 40.1314 23.0001 40 23.0001H37V31C37 31.2652 36.8946 31.5196 36.7071 31.7071C36.5196 31.8947 36.2652 32 36 32.0001H24ZM31 20.86V30H35V22C35 21.7348 35.1053 21.4804 35.2929 21.2929C35.4804 21.1054 35.7348 21 36 21H39V18H33.86C33.6804 18.6879 33.3208 19.3155 32.8181 19.8182C32.3154 20.3208 31.6878 20.6805 30.9999 20.86H31ZM21 21H24C24.1313 21 24.2614 21.0258 24.3827 21.0761C24.504 21.1263 24.6143 21.2 24.7072 21.2929C24.8 21.3857 24.8737 21.496 24.9239 21.6173C24.9742 21.7387 25 21.8687 25 22V30H29.0001V20.86C28.3122 20.6805 27.6846 20.3209 27.1819 19.8182C26.6791 19.3155 26.3195 18.6879 26.1399 18H21V21ZM28.9795 18.6994C29.2054 18.8334 29.4554 18.9216 29.7154 18.959C29.9754 18.9964 30.2402 18.9822 30.4946 18.9173C30.7491 18.8523 30.9883 18.7379 31.1986 18.5805C31.4088 18.4231 31.586 18.2259 31.72 18H28.2801C28.4509 18.288 28.6914 18.5285 28.9794 18.6994H28.9795ZM23 11V9H24.9999V11H23ZM19 11V9H21V11H19ZM15 11V9H17V11H15Z" fill="#282928"/>
</svg>
