<svg width="60" height="60" viewBox="0 0 60 60" fill="none" xmlns="http://www.w3.org/2000/svg">
<path d="M30.5057 55C29.4204 54.9985 28.3798 54.5589 27.612 53.7776C26.8442 52.9963 26.4116 51.9369 26.4092 50.8314V40.4168H18.2133C16.0395 40.4168 13.9667 38.7121 13.4943 36.5469L12.7186 32.9912L11.7619 33.8905C11.6635 33.9847 11.5477 34.0581 11.4212 34.1064C11.2948 34.1548 11.1602 34.1772 11.0253 34.1723C10.8903 34.1674 10.7576 34.1353 10.6349 34.0779C10.5121 34.0205 10.4018 33.9389 10.3102 33.8379C10.2186 33.7368 10.1475 33.6183 10.1011 33.4891C10.0547 33.3599 10.0339 33.2226 10.0399 33.0852C10.0459 32.9478 10.0785 32.8129 10.1359 32.6884C10.1933 32.5639 10.2744 32.4522 10.3744 32.3598L12.2051 30.6386L10.7025 23.7499H12.7977L13.9434 29.0037L19.532 23.7499H22.5477L14.4573 31.3563L15.491 36.0948C15.7562 37.3096 17.0012 38.3334 18.2133 38.3334H34.605C35.8171 38.3334 37.0838 37.3108 37.3612 36.1096L38.4396 31.4303L30.2706 23.7504H33.2861L38.9766 29.1007L40.2095 23.7508H42.3106L40.7027 30.7234L42.4429 32.3596C42.5438 32.4517 42.6258 32.5634 42.6839 32.6881C42.7421 32.8128 42.7754 32.9481 42.7818 33.086C42.7882 33.2239 42.7676 33.3618 42.7213 33.4915C42.6749 33.6213 42.6037 33.7403 42.5117 33.8418C42.4198 33.9432 42.3089 34.0251 42.1856 34.0825C42.0624 34.1399 41.9291 34.1719 41.7936 34.1764C41.6581 34.1809 41.5231 34.1579 41.3964 34.1088C41.2697 34.0597 41.1539 33.9854 41.0556 33.8903L40.1655 33.0535L39.3515 36.5853C38.8576 38.728 36.7657 40.4165 34.604 40.4165H28.4548V44.5832H50.9547V13.3334H28.4548V17.5001H42.7857C43.0535 17.5001 43.3187 17.554 43.566 17.6587C43.8133 17.7634 44.0378 17.9169 44.2266 18.1103C44.4155 18.3037 44.5649 18.5333 44.6663 18.7857C44.7678 19.0382 44.8192 19.3086 44.8177 19.5813V21.6689C44.819 22.2193 44.6058 22.7477 44.2247 23.1379C43.8437 23.5282 43.3261 23.7483 42.7857 23.7499H10.032C9.76416 23.75 9.49899 23.6961 9.2517 23.5914C9.00441 23.4866 8.77989 23.3332 8.59105 23.1397C8.40221 22.9463 8.25278 22.7168 8.15135 22.4643C8.04992 22.2119 7.9985 21.9415 8.00003 21.6687V19.5811C7.9986 19.0307 8.21185 18.5023 8.59289 18.112C8.97394 17.7217 9.49158 17.5015 10.032 17.4999H26.4092V9.1684C26.4089 8.62058 26.5146 8.07807 26.7205 7.57193C26.9263 7.0658 27.2281 6.60597 27.6086 6.21879C27.9891 5.8316 28.4409 5.52466 28.938 5.31552C29.4351 5.10639 29.9679 4.99917 30.5057 5H48.9034C49.9888 5.00152 51.0293 5.44104 51.7971 6.22233C52.5649 7.00361 52.9975 8.06297 53 9.1684V50.8314C53.0003 51.3792 52.8945 51.9217 52.6887 52.4279C52.4829 52.934 52.1811 53.3939 51.8006 53.7811C51.4201 54.1683 50.9683 54.4752 50.4712 54.6844C49.974 54.8936 49.4413 55.0008 48.9034 55H30.5057ZM28.4548 50.8314C28.4573 51.3843 28.6743 51.9138 29.0586 52.3045C29.4428 52.6951 29.9631 52.9151 30.506 52.9166H48.9034C49.1727 52.9175 49.4395 52.8641 49.6884 52.7596C49.9374 52.6552 50.1637 52.5017 50.3543 52.3079C50.5449 52.1142 50.696 51.884 50.7991 51.6306C50.9021 51.3773 50.955 51.1056 50.9547 50.8314V46.667H28.4548V50.8314ZM10.0455 21.6643H42.7728V19.5852H10.0455V21.6643ZM50.9551 11.2498V9.1684C50.9526 8.6154 50.7355 8.08585 50.3511 7.69525C49.9668 7.30465 49.4464 7.08469 48.9034 7.08336H30.5057C30.2365 7.08257 29.9698 7.13594 29.7209 7.2404C29.4719 7.34486 29.2457 7.49835 29.0552 7.69208C28.8646 7.8858 28.7135 8.11593 28.6105 8.36928C28.5075 8.62262 28.4546 8.89419 28.4548 9.1684V11.2501L50.9551 11.2498ZM37.2473 50.8333C37.1674 50.8347 37.088 50.8198 37.0138 50.7895C36.9397 50.7592 36.8722 50.7142 36.8153 50.657C36.7584 50.5998 36.7133 50.5317 36.6826 50.4565C36.6519 50.3813 36.6363 50.3007 36.6366 50.2193V49.3635C36.6401 49.2004 36.7059 49.0452 36.8199 48.9306C36.9339 48.8161 37.0872 48.7512 37.2473 48.7497H42.1631C42.243 48.7483 42.3224 48.7632 42.3965 48.7935C42.4707 48.8237 42.5382 48.8687 42.5951 48.9259C42.652 48.9831 42.6971 49.0512 42.7278 49.1264C42.7585 49.2015 42.7741 49.2821 42.7738 49.3635V50.2193C42.7703 50.3824 42.7046 50.5377 42.5906 50.6523C42.4766 50.7669 42.3233 50.8318 42.1631 50.8333H37.2473Z" fill="#282928"/>
</svg>
