<svg width="60" height="60" viewBox="0 0 60 60" fill="none" xmlns="http://www.w3.org/2000/svg">
<path d="M40.3118 52.9146C40.3118 52.3044 40.4928 51.7079 40.8318 51.2005C41.1708 50.6931 41.6527 50.2976 42.2165 50.0641C42.7803 49.8306 43.4006 49.7695 43.9992 49.8886C44.5977 50.0076 45.1474 50.3015 45.5789 50.733C46.0104 51.1645 46.3043 51.7143 46.4233 52.3128C46.5423 52.9113 46.4812 53.5316 46.2477 54.0954C46.0141 54.6592 45.6187 55.1411 45.1113 55.4801C44.6039 55.8191 44.0073 56 43.3971 56C42.5791 55.999 41.7949 55.6737 41.2165 55.0952C40.6381 54.5168 40.3127 53.7326 40.3118 52.9146ZM41.9539 52.9146C41.9539 53.2001 42.0386 53.4791 42.1972 53.7165C42.3558 53.9538 42.5812 54.1388 42.845 54.248C43.1087 54.3572 43.3989 54.3858 43.6789 54.3301C43.9588 54.2744 44.216 54.1369 44.4178 53.935C44.6197 53.7332 44.7571 53.476 44.8128 53.196C44.8685 52.916 44.8399 52.6258 44.7306 52.3621C44.6213 52.0984 44.4363 51.873 44.199 51.7144C43.9616 51.5558 43.6825 51.4712 43.3971 51.4712C43.0144 51.4717 42.6476 51.6239 42.377 51.8945C42.1065 52.1651 41.9543 52.532 41.9539 52.9146ZM22.1024 52.9146C22.1024 52.3044 22.2833 51.7078 22.6223 51.2004C22.9614 50.693 23.4433 50.2975 24.0071 50.0639C24.5709 49.8304 25.1913 49.7693 25.7898 49.8883C26.3883 50.0074 26.9381 50.3013 27.3696 50.7328C27.8011 51.1643 28.095 51.7141 28.2141 52.3126C28.3331 52.9111 28.272 53.5315 28.0385 54.0953C27.8049 54.6591 27.4094 55.141 26.902 55.48C26.3946 55.8191 25.798 56 25.1878 56C24.3698 55.999 23.5855 55.6737 23.0071 55.0952C22.4287 54.5168 22.1033 53.7326 22.1024 52.9146ZM23.7446 52.9146C23.7446 53.2001 23.8292 53.4791 23.9878 53.7165C24.1464 53.9538 24.3719 54.1388 24.6356 54.248C24.8993 54.3572 25.1895 54.3858 25.4695 54.3301C25.7495 54.2744 26.0066 54.1369 26.2085 53.9351C26.4103 53.7332 26.5478 53.476 26.6034 53.1961C26.6591 52.9161 26.6305 52.6259 26.5213 52.3622C26.4121 52.0985 26.2271 51.873 25.9897 51.7145C25.7524 51.5559 25.4733 51.4712 25.1879 51.4712C24.8052 51.4716 24.4383 51.6238 24.1677 51.8944C23.8971 52.165 23.745 52.5319 23.7446 52.9146ZM21.1325 48.5729C20.5699 48.5705 20.0249 48.3766 19.5873 48.0231C19.1496 47.6697 18.8453 47.1778 18.7245 46.6283L13.4507 22.1437H6.46321C5.80992 22.1437 5.1834 21.8842 4.72146 21.4223C4.25952 20.9603 4 20.3338 4 19.6805C4 19.0273 4.25952 18.4007 4.72146 17.9388C5.1834 17.4769 5.80992 17.2173 6.46321 17.2173H15.4402C16.0027 17.2198 16.5477 17.4137 16.9853 17.7671C17.423 18.1206 17.7273 18.6125 17.8481 19.162L23.122 43.6466H43.197C43.4148 43.6466 43.6236 43.7331 43.7776 43.8871C43.9315 44.0411 44.018 44.2499 44.018 44.4677C44.018 44.6854 43.9315 44.8943 43.7776 45.0482C43.6236 45.2022 43.4148 45.2887 43.197 45.2887H22.4586C22.2709 45.2886 22.0889 45.2242 21.9429 45.1063C21.7969 44.9883 21.6957 44.8239 21.6562 44.6404L16.2429 19.5078C16.2027 19.3247 16.1013 19.1607 15.9554 19.0429C15.8096 18.9251 15.628 18.8605 15.4406 18.8596H13.0728V20.5017H14.1138C14.3015 20.5018 14.4835 20.5662 14.6295 20.6841C14.7755 20.802 14.8766 20.9664 14.9162 21.1498L20.3295 46.2826C20.3698 46.4657 20.4712 46.6296 20.617 46.7474C20.7628 46.8652 20.9444 46.9298 21.1318 46.9307H48.7201C48.9379 46.9307 49.1467 46.8442 49.3007 46.6902C49.4547 46.5362 49.5412 46.3274 49.5412 46.1096C49.5412 45.8918 49.4547 45.683 49.3007 45.529C49.1467 45.375 48.9379 45.2885 48.7201 45.2885H45.8243C45.6066 45.2885 45.3978 45.202 45.2438 45.048C45.0898 44.8941 45.0033 44.6852 45.0033 44.4675C45.0033 44.2497 45.0898 44.0409 45.2438 43.8869C45.3978 43.7329 45.6066 43.6464 45.8243 43.6464H48.7201C49.3734 43.6464 49.9999 43.906 50.4619 44.3679C50.9238 44.8298 51.1833 45.4564 51.1833 46.1096C51.1833 46.7629 50.9238 47.3894 50.4619 47.8514C49.9999 48.3133 49.3734 48.5728 48.7201 48.5728L21.1325 48.5729ZM5.64197 19.6806C5.64218 19.8983 5.72875 20.107 5.88268 20.261C6.03661 20.4149 6.24532 20.5015 6.463 20.5017H11.4308V18.8596H6.463C6.24532 18.8598 6.03661 18.9464 5.88268 19.1003C5.72875 19.2542 5.64218 19.463 5.64197 19.6806ZM25.2583 41.8613C25.0707 41.8612 24.8887 41.7968 24.7427 41.6789C24.5967 41.561 24.4956 41.3967 24.456 41.2132L20.2828 21.8515C20.257 21.7318 20.2583 21.6078 20.2867 21.4887C20.315 21.3695 20.3696 21.2582 20.4466 21.1629C20.5235 21.0676 20.6208 20.9907 20.7312 20.9378C20.8417 20.885 20.9626 20.8575 21.0851 20.8574H28.3419C28.2602 20.6623 28.1845 20.4647 28.1147 20.2647H25.8683C25.7605 20.2647 25.6537 20.2435 25.5541 20.2023C25.4545 20.161 25.364 20.1005 25.2877 20.0243C25.2115 19.948 25.151 19.8575 25.1098 19.7579C25.0685 19.6583 25.0473 19.5515 25.0473 19.4437V14.2828C25.0473 14.175 25.0685 14.0682 25.1097 13.9685C25.151 13.8689 25.2114 13.7784 25.2877 13.7021C25.3639 13.6259 25.4545 13.5654 25.5541 13.5241C25.6537 13.4829 25.7605 13.4616 25.8683 13.4617H28.1147C28.2474 13.0797 28.4023 12.7057 28.5786 12.3418L26.9902 10.7533C26.914 10.6771 26.8535 10.5866 26.8122 10.487C26.7709 10.3873 26.7497 10.2806 26.7497 10.1728C26.7497 10.0649 26.7709 9.95819 26.8122 9.85858C26.8535 9.75897 26.914 9.66847 26.9902 9.59223L30.6398 5.94289C30.716 5.86661 30.8065 5.8061 30.9062 5.76482C31.0058 5.72354 31.1126 5.70229 31.2204 5.70229C31.3283 5.70229 31.4351 5.72354 31.5347 5.76482C31.6344 5.8061 31.7249 5.86661 31.8011 5.94289L33.3895 7.53133C33.7534 7.35493 34.1273 7.19995 34.5093 7.06719V4.82103C34.5093 4.60332 34.5957 4.39452 34.7496 4.24055C34.9036 4.08658 35.1123 4.00005 35.33 4H40.4914C40.5992 3.99997 40.706 4.02119 40.8056 4.06244C40.9052 4.10369 40.9957 4.16417 41.072 4.24041C41.1482 4.31666 41.2087 4.40718 41.25 4.5068C41.2912 4.60643 41.3124 4.7132 41.3124 4.82103V7.06719C41.6945 7.19977 42.0684 7.35468 42.4323 7.53113L44.0214 5.94248C44.1754 5.78853 44.3842 5.70204 44.6019 5.70204C44.8197 5.70204 45.0285 5.78853 45.1825 5.94248L48.8316 9.59193C48.9856 9.74592 49.0721 9.95476 49.0721 10.1725C49.0721 10.3903 48.9856 10.5991 48.8316 10.7531L47.243 12.3415C47.4193 12.7054 47.5742 13.0794 47.7069 13.4614H49.9533C50.0611 13.4613 50.1679 13.4826 50.2675 13.5238C50.3672 13.5651 50.4577 13.6256 50.5339 13.7018C50.6102 13.7781 50.6707 13.8686 50.7119 13.9682C50.7531 14.0679 50.7744 14.1747 50.7743 14.2825V19.4436C50.7743 19.5514 50.7531 19.6582 50.7118 19.7578C50.6706 19.8574 50.6101 19.9479 50.5339 20.0242C50.4576 20.1004 50.3671 20.1609 50.2675 20.2022C50.1679 20.2434 50.0611 20.2646 49.9533 20.2646H47.7062C47.637 20.4647 47.5609 20.6622 47.4793 20.8573H55.1791C55.3026 20.8574 55.4245 20.8852 55.5357 20.9389C55.6469 20.9925 55.7446 21.0706 55.8215 21.1672C55.8984 21.2639 55.9524 21.3766 55.9797 21.497C56.007 21.6175 56.0068 21.7425 55.979 21.8628L51.5127 41.2248C51.4709 41.4057 51.3691 41.5672 51.2238 41.6828C51.0785 41.7984 50.8983 41.8613 50.7126 41.8613H25.2583ZM25.9215 40.2191H50.0595L54.1471 22.4996H22.1021L25.9215 40.2191ZM26.6895 18.6226H28.7178C28.8969 18.6225 29.0711 18.6811 29.2138 18.7893C29.3566 18.8975 29.46 19.0493 29.5085 19.2218C29.6671 19.7874 29.8825 20.3356 30.1513 20.858H33.3496C33.1973 20.6846 33.0551 20.5027 32.9236 20.3131C32.9159 20.3029 32.9084 20.2928 32.9013 20.2819L32.889 20.2633C32.8824 20.2538 32.8739 20.2409 32.8656 20.228C32.8214 20.1616 32.7831 20.1021 32.7462 20.0418C32.7327 20.0204 32.7185 19.9966 32.7042 19.9728C32.6692 19.9139 32.6359 19.8561 32.6035 19.7976L32.5971 19.7863C32.5879 19.7701 32.5788 19.7539 32.5701 19.7374C32.5287 19.6609 32.4888 19.5828 32.4504 19.5038L32.427 19.453C32.3965 19.3883 32.3676 19.3247 32.3397 19.2601L32.3066 19.1817C32.2807 19.119 32.2569 19.0589 32.2342 18.9981L32.2072 18.927C32.1767 18.8422 32.1484 18.759 32.122 18.6749L32.1104 18.6358C32.0869 18.558 32.0665 18.4863 32.0475 18.4141L32.0262 18.3302C32.0102 18.2657 31.9957 18.2014 31.9815 18.1367L31.9784 18.1222C31.9737 18.1008 31.969 18.0794 31.9648 18.0578C31.9471 17.9692 31.9309 17.88 31.917 17.7902L31.9123 17.7558C31.9013 17.681 31.8908 17.599 31.8819 17.5164L31.8738 17.4322C31.8673 17.3633 31.8623 17.2969 31.8582 17.2298L31.8532 17.1426C31.8492 17.0512 31.8463 16.9574 31.8463 16.8631C31.8463 16.6564 31.8567 16.4499 31.8775 16.2443C32.031 14.7511 32.7328 13.3679 33.8472 12.3622C34.9615 11.3565 36.4093 10.7998 37.9103 10.7998C39.4114 10.7998 40.8592 11.3565 41.9735 12.3622C43.0879 13.3679 43.7897 14.7511 43.9432 16.2443C43.9639 16.4501 43.9743 16.6569 43.9744 16.8638C43.9744 16.9582 43.9716 17.0519 43.9675 17.1452L43.9629 17.2265C43.9586 17.2976 43.9534 17.3636 43.9475 17.4296L43.9388 17.5171C43.9301 17.5989 43.9197 17.6809 43.9076 17.762L43.9048 17.7843C43.8901 17.8801 43.8738 17.9692 43.8562 18.0577C43.8519 18.0795 43.8471 18.1009 43.8425 18.1222L43.8389 18.1386C43.8256 18.2014 43.8108 18.2656 43.7948 18.3296L43.7734 18.4141C43.7543 18.4862 43.734 18.558 43.7124 18.6293L43.7 18.6717C43.6726 18.759 43.6443 18.8422 43.6146 18.925L43.5874 18.9972C43.5641 19.0593 43.5405 19.1191 43.5163 19.1787C43.5055 19.2051 43.4937 19.2329 43.482 19.2605C43.4547 19.3241 43.4257 19.3878 43.3958 19.451L43.3721 19.5018C43.3331 19.5822 43.2931 19.6601 43.2516 19.737C43.2429 19.7532 43.2339 19.7695 43.2246 19.7855L43.2166 19.7997C43.1861 19.8551 43.1527 19.9132 43.1184 19.9706C43.1036 19.9954 43.0892 20.0191 43.0747 20.0425C43.0387 20.101 43.0005 20.1606 42.9613 20.2194C42.9494 20.2377 42.941 20.2508 42.9329 20.2626L42.9208 20.2811C42.9131 20.2921 42.9054 20.3029 42.8974 20.3136C42.7663 20.5027 42.6244 20.6842 42.4725 20.8571H45.6706C45.9396 20.3352 46.155 19.7874 46.3134 19.222C46.3618 19.0495 46.4652 18.8976 46.608 18.7895C46.7507 18.6813 46.9249 18.6227 47.104 18.6228H49.1322V15.1038H47.104C46.9249 15.1038 46.7507 15.0453 46.608 14.9371C46.4653 14.8289 46.3619 14.677 46.3135 14.5046C46.1264 13.8372 45.8601 13.1946 45.5203 12.5905C45.4324 12.4343 45.398 12.2536 45.4223 12.0761C45.4467 11.8985 45.5285 11.7338 45.6552 11.6071L47.0897 10.1728L44.6014 7.68448L43.1669 9.11875C43.0402 9.24536 42.8755 9.32706 42.698 9.35141C42.5205 9.37575 42.3399 9.34142 42.1837 9.25363C41.5796 8.91388 40.9371 8.64762 40.2698 8.46052C40.0973 8.41213 39.9454 8.30868 39.8372 8.16593C39.729 8.02318 39.6705 7.84897 39.6705 7.66986V5.64206H36.1512V7.67016C36.1512 7.84927 36.0927 8.02347 35.9845 8.16622C35.8763 8.30896 35.7244 8.41242 35.552 8.46083C34.8845 8.64797 34.2419 8.91426 33.6377 9.25403C33.4815 9.34191 33.3009 9.37627 33.1234 9.35188C32.9459 9.32749 32.7812 9.24569 32.6546 9.11895L31.2202 7.68469L28.7319 10.173L30.1664 11.607C30.293 11.7338 30.3747 11.8984 30.3991 12.0759C30.4234 12.2534 30.3891 12.434 30.3013 12.5902C29.9615 13.1943 29.6953 13.837 29.5081 14.5044C29.4597 14.6768 29.3563 14.8287 29.2135 14.9369C29.0708 15.0451 28.8966 15.1036 28.7175 15.1036H26.6895V18.6226ZM33.5116 16.41C33.4965 16.5597 33.4887 16.7123 33.4887 16.8633C33.4887 16.9323 33.491 17.0006 33.4941 17.0686L33.4975 17.1321C33.5006 17.1791 33.5043 17.2292 33.5089 17.2792L33.5148 17.3401C33.5214 17.4011 33.5288 17.4611 33.5377 17.5205L33.5417 17.551C33.5504 17.6068 33.562 17.6721 33.5753 17.7368L33.5874 17.7929C33.5976 17.8412 33.6084 17.8875 33.6199 17.9336L33.6356 17.9953C33.6494 18.0478 33.664 18.0996 33.6797 18.1512L33.6885 18.1809C33.7088 18.2467 33.7297 18.3079 33.7518 18.3688L33.7721 18.4231C33.7882 18.4661 33.8054 18.5098 33.8228 18.5533L33.8475 18.6117C33.8678 18.6584 33.8888 18.7046 33.9104 18.7507L33.9244 18.7812C33.9558 18.8463 33.9853 18.9031 34.0149 18.9589L34.0391 19.0018C34.064 19.0469 34.0879 19.0886 34.1127 19.13L34.1432 19.1798C34.171 19.2249 34.1981 19.2675 34.2263 19.3096L34.2434 19.3357C34.2448 19.3379 34.2468 19.3409 34.2491 19.3444C34.2528 19.3493 34.2563 19.3545 34.2598 19.3594C34.6504 19.9283 35.1676 20.399 35.7707 20.7345C35.7776 20.7383 35.7845 20.7423 35.791 20.7462C35.7915 20.7466 35.792 20.7469 35.7926 20.7471C35.86 20.7842 35.9327 20.8215 36.0047 20.8559L36.011 20.8585H39.8095L39.8163 20.8555C39.8874 20.8213 39.96 20.7844 40.0307 20.7454C40.0374 20.7414 40.0439 20.7377 40.0504 20.7339C40.6535 20.3985 41.1707 19.9278 41.5613 19.3589L41.5736 19.3415L41.5955 19.3083C41.623 19.2677 41.6502 19.2246 41.6767 19.1814L41.7088 19.1284C41.7328 19.0884 41.7568 19.0467 41.7799 19.0044L41.8055 18.9589C41.8358 18.9028 41.8648 18.846 41.8927 18.7886L41.9098 18.7512C41.9317 18.7048 41.9527 18.6588 41.9727 18.6123L41.997 18.5543C42.0155 18.5096 42.0329 18.4656 42.0494 18.4216L42.0698 18.3668C42.091 18.3082 42.1118 18.2468 42.1307 18.185L42.1402 18.1525C42.1563 18.0998 42.1707 18.0478 42.1847 17.9954L42.2006 17.9331C42.2118 17.8878 42.2225 17.8416 42.2324 17.7949L42.2449 17.7368C42.2574 17.6742 42.269 17.6112 42.2789 17.5476L42.282 17.5246C42.2915 17.4617 42.2988 17.4017 42.3053 17.3418L42.3114 17.278C42.3156 17.2305 42.3195 17.1803 42.3227 17.1298L42.3258 17.072C42.3289 17.0018 42.3313 16.9335 42.3313 16.8645C42.3313 16.7131 42.3236 16.5617 42.3084 16.411C42.1963 15.3223 41.6845 14.3138 40.8719 13.5806C40.0593 12.8474 39.0037 12.4416 37.9092 12.4416C36.8147 12.4416 35.7591 12.8474 34.9466 13.5806C34.134 14.3138 33.6221 15.3223 33.51 16.411L33.5116 16.41ZM35.3375 16.8569C35.3375 16.348 35.4884 15.8505 35.7712 15.4273C36.054 15.0042 36.4559 14.6744 36.9261 14.4796C37.3963 14.2849 37.9137 14.234 38.4129 14.3333C38.912 14.4326 39.3705 14.6777 39.7304 15.0375C40.0903 15.3974 40.3353 15.8559 40.4346 16.3551C40.5339 16.8542 40.4829 17.3716 40.2882 17.8418C40.0934 18.312 39.7636 18.7139 39.3405 18.9967C38.9173 19.2794 38.4198 19.4304 37.9109 19.4304C37.2287 19.4297 36.5747 19.1584 36.0922 18.6762C35.6098 18.1939 35.3383 17.54 35.3374 16.8578L35.3375 16.8569ZM36.9795 16.8569C36.9795 17.0411 37.0341 17.2212 37.1365 17.3743C37.2388 17.5275 37.3843 17.6468 37.5545 17.7173C37.7246 17.7878 37.9119 17.8063 38.0926 17.7703C38.2732 17.7344 38.4392 17.6457 38.5694 17.5154C38.6997 17.3852 38.7884 17.2193 38.8243 17.0386C38.8602 16.8579 38.8418 16.6707 38.7713 16.5005C38.7008 16.3303 38.5814 16.1849 38.4283 16.0825C38.2751 15.9802 38.0951 15.9256 37.9109 15.9256C37.6639 15.9258 37.4271 16.0241 37.2524 16.1988C37.0778 16.3735 36.9796 16.6103 36.9794 16.8573L36.9795 16.8569Z" fill="#282928"/>
</svg>
