<svg width="60" height="60" viewBox="0 0 60 60" fill="none" xmlns="http://www.w3.org/2000/svg">
<g clip-path="url(#clip0_3744_727)">
<path d="M30 0C13.4315 0 0 13.4315 0 30C0 46.5685 13.4315 60 30 60C46.5685 60 60 46.5685 60 30C59.9813 13.4392 46.5608 0.018737 30 0ZM30 58C14.536 58 2 45.464 2 30C2 14.536 14.536 2 30 2C45.464 2 58 14.536 58 30C57.9824 45.4567 45.4567 57.9824 30 58Z" fill="#282928"/>
<path d="M30 4C15.6406 4 4 15.6406 4 30C4 44.3594 15.6406 56 30 56C44.3594 56 56 44.3594 56 30C55.9835 15.6475 44.3526 4.01653 30 4ZM30 54C16.7452 54 6 43.2548 6 30C6 16.7452 16.7452 6 30 6C43.2548 6 54 16.7452 54 30C53.9846 43.2484 43.2484 53.9846 30 54Z" fill="#282928"/>
<path d="M30 21C33.3137 21 36 18.3137 36 15C36 11.6863 33.3137 9 30 9C26.6863 9 24 11.6863 24 15C24.0033 18.3123 26.6877 20.9967 30 21ZM30 11C32.2091 11 34 12.7909 34 15C34 17.2091 32.2091 19 30 19C27.7909 19 26 17.2091 26 15C26 12.7909 27.7909 11 30 11Z" fill="#282928"/>
<path d="M43.9268 22.0098H43.9108L33.4108 22.9528C33.0528 22.9855 32.6944 23.0018 32.3358 23.0018H27.6638C27.3058 23.0018 26.9481 22.9858 26.5908 22.9538L16.0728 22.0098C14.4209 21.88 12.9766 23.1139 12.8468 24.7658C12.717 26.4177 13.9509 27.862 15.6028 27.9918L24.0898 28.7618C24.6047 28.8084 24.9993 29.2398 24.9998 29.7568V32.0568C25.0001 32.5568 24.9065 33.0524 24.7238 33.5178L19.9118 45.7728C19.241 47.2883 19.9258 49.0606 21.4413 49.7313C22.9567 50.4021 24.729 49.7173 25.3998 48.2018L29.9858 36.9888L34.6148 48.2318C35.3051 49.7092 37.0491 50.3647 38.5415 49.7076C40.034 49.0505 40.7283 47.3216 40.1048 45.8148L35.2758 33.5148C35.0935 33.05 34.9999 32.5551 34.9998 32.0558V29.7558C35.0003 29.2388 35.3948 28.8074 35.9098 28.7608L44.3828 27.9918C46.0349 27.8659 47.2722 26.4245 47.1463 24.7723C47.0204 23.1202 45.5789 21.8839 43.9268 22.0098ZM44.2158 26.0018L35.7288 26.7718C34.1809 26.905 32.9941 28.2033 32.9998 29.7568V32.0568C32.9994 32.8074 33.1402 33.5513 33.4148 34.2498L38.2608 46.5888C38.4963 47.0884 38.2823 47.6843 37.7828 47.9198C37.2832 48.1554 36.6873 47.9414 36.4518 47.4418L31.8328 36.2288C31.5264 35.4866 30.8027 35.0024 29.9998 35.0024C29.1968 35.0024 28.4731 35.4866 28.1668 36.2288L23.5608 47.4118C23.4176 47.7522 23.0985 47.9859 22.7308 48.0198C22.3631 48.0536 22.0067 47.8822 21.8037 47.5737C21.6007 47.2653 21.5842 46.8701 21.7608 46.5458L26.5898 34.2458C26.8625 33.548 27.0016 32.8051 26.9998 32.0558V29.7558C27.0065 28.2015 25.8194 26.9021 24.2708 26.7688L15.7698 26.0018C15.2175 25.9629 14.8013 25.4836 14.8403 24.9313C14.8792 24.379 15.3585 23.9629 15.9108 24.0018L26.4108 24.9448C26.8268 24.9822 27.2438 25.0008 27.6618 25.0008H32.3338C32.7518 25.0008 33.1688 24.9822 33.5848 24.9448L44.0798 24.0018C44.3441 23.9809 44.6058 24.0664 44.8067 24.2394C45.0076 24.4123 45.1311 24.6584 45.1498 24.9228C45.1715 25.1903 45.0848 25.4553 44.9091 25.6583C44.7335 25.8612 44.4836 25.985 44.2158 26.0018Z" fill="#282928"/>
</g>
<defs>
<clipPath id="clip0_3744_727">
<rect width="60" height="60" fill="white"/>
</clipPath>
</defs>
</svg>
