<svg width="60" height="60" viewBox="0 0 60 60" fill="none" xmlns="http://www.w3.org/2000/svg">
<path fill-rule="evenodd" clip-rule="evenodd" d="M8.92695 18.3472C9.81177 18.3472 10.5288 19.0648 10.5288 19.9458C10.5288 20.8282 9.81177 21.546 8.92695 21.546C8.04214 21.546 7.32507 20.8284 7.32507 19.9458C7.32507 19.0649 8.04214 18.3472 8.92695 18.3472ZM17.074 8.76659C17.9512 8.76659 18.6682 9.48357 18.6682 10.3653C18.6682 11.2463 17.9512 11.9639 17.074 11.9639C16.1891 11.9639 15.4721 11.2463 15.4721 10.3653C15.4721 9.48357 16.189 8.76659 17.074 8.76659ZM28.379 14.2635C29.2638 14.2635 29.9808 14.9805 29.9808 15.8623C29.9808 16.7447 29.2638 17.4625 28.379 17.4625C27.5018 17.4625 26.7847 16.7447 26.7847 15.8623C26.7846 14.9805 27.5018 14.2635 28.379 14.2635ZM37.2963 5.39697C38.1811 5.39697 38.8982 6.11394 38.8982 6.99558C38.8982 7.87802 38.1811 8.59432 37.2963 8.59432C36.4191 8.59432 35.702 7.87815 35.702 6.99558C35.702 6.11381 36.4191 5.39697 37.2963 5.39697ZM49.3565 1.81825C50.2337 1.81825 50.9508 2.53602 50.9508 3.41846C50.9508 4.30023 50.2337 5.0172 49.3565 5.0172C48.4717 5.0172 47.7546 4.30023 47.7546 3.41846C47.7545 2.53589 48.4716 1.81825 49.3565 1.81825ZM8.92695 23.3636C11.6656 23.3636 13.291 20.2849 11.7494 18.026L15.6322 13.4634C17.0067 14.1071 18.6414 13.7535 19.637 12.6221L25.0225 15.2406C24.6262 17.3409 26.2503 19.2807 28.379 19.2807C30.9951 19.2807 32.6256 16.4675 31.3616 14.1857L35.6029 9.96181C37.8234 11.23 40.7137 9.70281 40.7137 6.92993L46.4577 5.22604C47.0604 6.19161 48.1359 6.83545 49.3564 6.83545C51.2405 6.83545 52.7738 5.30236 52.7738 3.41846C52.7738 1.53376 51.2405 0 49.3564 0C47.4624 0 45.939 1.51508 45.939 3.48411L40.1948 5.18721C39.5923 4.2223 38.5166 3.57859 37.2962 3.57859C34.6633 3.57859 33.045 6.4322 34.3211 8.67359L30.0723 12.896C28.6668 12.0852 26.8965 12.392 25.8158 13.6069L20.4303 10.9869C20.8272 8.88963 19.2043 6.94834 17.0738 6.94834C14.3054 6.94834 12.7266 10.0622 14.2437 12.2851L10.3686 16.8477C8.08751 15.7978 5.50939 17.4634 5.50939 19.9459C5.50952 21.8305 7.04281 23.3636 8.92695 23.3636ZM55.1768 38.882C55.1768 39.557 54.6277 40.1069 53.9564 40.1069H6.04362C5.36472 40.1069 4.81541 39.557 4.81541 38.882V34.6207C4.81541 33.9457 5.36459 33.3965 6.04362 33.3965H11.0249V36.8966C11.0249 37.3917 11.4291 37.8066 11.9327 37.8066L48.0599 37.805C48.5633 37.805 48.9676 37.3977 48.9676 36.8966V33.3965H53.9565C54.6278 33.3965 55.177 33.9456 55.177 34.6207V38.882H55.1768ZM45.1151 49.1428L38.9821 49.1375C39.5313 46.8997 39.8441 44.4573 39.9051 41.9252H47.1366C46.9994 44.5238 46.2823 46.9729 45.1151 49.1428ZM35.0613 57.4214C36.6162 55.6697 37.7316 53.3228 38.4787 50.9559L43.9864 50.9597C41.8198 53.9931 38.6922 56.2972 35.0613 57.4214ZM15.9983 50.939L21.5135 50.9421C22.2796 53.3321 23.3623 55.6456 24.9386 57.4214C21.2924 56.2941 18.1648 53.9839 15.9983 50.939ZM20.0946 41.9252C20.1556 44.4528 20.4684 46.8905 21.01 49.1245L14.8693 49.1192C13.7098 46.9553 12.9927 44.5162 12.863 41.9252H20.0946ZM29.1265 49.1307L22.8942 49.1253C22.3296 46.95 21.9788 44.5024 21.91 41.9253H29.1339L29.1265 49.1307ZM30.8199 49.1315L30.8275 41.9253H38.0819C38.021 44.5063 37.67 46.9569 37.0978 49.1361L30.8199 49.1315ZM30.8123 58.0911C33.1466 57.5702 35.2214 54.848 36.5564 50.9544L30.82 50.9498L30.8123 58.0911ZM29.1188 58.0758L29.1265 50.9481L23.4435 50.9442C24.7632 54.8076 26.8075 57.5183 29.1188 58.0758ZM12.8479 29.2275L12.8403 35.9882L17.051 35.9867V29.1328H12.9395C12.8937 29.1328 12.8479 29.177 12.8479 29.2275ZM18.9581 21.1059H22.9705C23.0239 21.1059 23.0696 21.1509 23.0696 21.2005V35.9867H18.8666V21.2005C18.8666 21.151 18.9123 21.1059 18.9581 21.1059ZM29.0883 31.6407H24.8852V35.9867H29.0883V31.6407ZM31.003 24.6175C30.9496 24.6175 30.9114 24.6625 30.9114 24.7121V35.9867H35.1069V24.7121C35.1069 24.6626 35.0688 24.6175 35.0154 24.6175H31.003ZM41.1333 29.1328H36.9302V35.9867H41.1333V29.1328ZM42.9487 16.1849C42.9487 16.1338 42.9945 16.0903 43.0403 16.0903H47.0604C47.1062 16.0903 47.1519 16.1338 47.1519 16.1849V35.9867H42.9489V16.1849H42.9487ZM53.9563 31.5789H48.9674V16.1849C48.9674 15.1293 48.113 14.2719 47.0603 14.2719H43.0401C41.9874 14.2719 41.133 15.1293 41.133 16.1849V27.3146H36.9299V24.7121C36.9299 23.6573 36.0679 22.7993 35.0152 22.7993H31.0029C29.9502 22.7993 29.0882 23.6573 29.0882 24.7121V29.8223H24.8851V21.2005C24.8851 20.1457 24.0307 19.2877 22.9704 19.2877H18.958C17.9053 19.2877 17.0509 20.1457 17.0509 21.2005V27.3145H12.9393C11.8866 27.3145 11.0246 28.1725 11.0246 29.2273V31.5788H6.04362C4.3654 31.5788 3 32.9432 3 34.6206V38.8818C3 40.559 4.3654 41.9251 6.04362 41.9251H11.0401C11.5131 51.9724 19.8355 60 29.9962 60C40.1645 60 48.4869 51.9724 48.9599 41.9251H53.9564C55.6346 41.9251 57 40.559 57 38.8818V34.6206C57 32.9434 55.6345 31.5789 53.9563 31.5789Z" fill="#282928"/>
</svg>
