<svg width="60" height="60" viewBox="0 0 60 60" fill="none" xmlns="http://www.w3.org/2000/svg">
<g clip-path="url(#clip0_3744_1098)">
<path d="M51.5625 6.5625C52.0803 6.5625 52.5 6.14277 52.5 5.625C52.5 5.10723 52.0803 4.6875 51.5625 4.6875C51.0447 4.6875 50.625 5.10723 50.625 5.625C50.625 6.14277 51.0447 6.5625 51.5625 6.5625Z" fill="#282928"/>
<path d="M47.8125 6.5625C48.3303 6.5625 48.75 6.14277 48.75 5.625C48.75 5.10723 48.3303 4.6875 47.8125 4.6875C47.2947 4.6875 46.875 5.10723 46.875 5.625C46.875 6.14277 47.2947 6.5625 47.8125 6.5625Z" fill="#282928"/>
<path d="M44.0625 6.5625C44.5803 6.5625 45 6.14277 45 5.625C45 5.10723 44.5803 4.6875 44.0625 4.6875C43.5447 4.6875 43.125 5.10723 43.125 5.625C43.125 6.14277 43.5447 6.5625 44.0625 6.5625Z" fill="#282928"/>
<path d="M34.6875 6.5625C35.2053 6.5625 35.625 6.14277 35.625 5.625C35.625 5.10723 35.2053 4.6875 34.6875 4.6875C34.1697 4.6875 33.75 5.10723 33.75 5.625C33.75 6.14277 34.1697 6.5625 34.6875 6.5625Z" fill="#282928"/>
<path d="M25.3125 18.75H5.625C5.1075 18.75 4.6875 19.17 4.6875 19.6875V50.625C4.6875 51.1425 5.1075 51.5625 5.625 51.5625H25.3125C25.83 51.5625 26.25 51.1425 26.25 50.625V19.6875C26.25 19.17 25.83 18.75 25.3125 18.75ZM24.375 20.625V35.2369L22.2253 33.0872C22.0406 32.9025 21.7913 32.8041 21.5259 32.8134C21.2653 32.8228 21.0197 32.9419 20.85 33.1397L15.8841 38.9334L12.8503 35.8997C12.6666 35.7159 12.4059 35.6166 12.1566 35.6259C11.8969 35.6344 11.6531 35.7506 11.4825 35.9456L6.5625 41.5678V20.625H24.375ZM6.5625 49.6875V44.415L12.2334 37.9341L15.2747 40.9753C15.4594 41.16 15.7003 41.2547 15.9741 41.2491C16.2347 41.2397 16.4803 41.1206 16.65 40.9228L21.6159 35.1291L24.375 37.8881V49.6875H6.5625Z" fill="#282928"/>
<path d="M59.5181 40.5619C58.8947 37.4634 57.7256 34.3781 56.25 32.2313V5.625C56.25 3.04031 54.1472 0.9375 51.5625 0.9375H4.6875C2.10281 0.9375 0 3.04031 0 5.625V51.5625C0 54.1472 2.10281 56.25 4.6875 56.25H35.9691L37.6706 58.665C37.8478 58.9153 38.1347 59.0625 38.4375 59.0625C38.4656 59.0625 38.4938 59.0616 38.5209 59.0587L41.6869 58.7747C41.9794 58.7484 42.2438 58.5862 42.3994 58.3359C42.555 58.0866 42.5841 57.7781 42.4781 57.5034L41.9953 56.25H51.5625C53.2538 56.25 54.7837 55.3444 55.6144 53.9072C55.7344 53.9222 55.8534 53.9409 55.9725 53.9409C56.1609 53.9409 56.3475 53.9222 56.5331 53.8847C58.1428 53.5613 59.3044 51.8906 59.8031 49.1794C60.2494 46.7578 60.1481 43.6969 59.5181 40.5619ZM54.375 5.625V8.4375H44.0625C41.4778 8.4375 39.375 6.33469 39.375 3.75V2.8125H51.5625C53.1131 2.8125 54.375 4.07437 54.375 5.625ZM4.6875 2.8125H37.5V3.75C37.5 7.36875 40.4438 10.3125 44.0625 10.3125H54.375V14.0625H1.875V5.625C1.875 4.07437 3.13687 2.8125 4.6875 2.8125ZM4.6875 54.375C3.13687 54.375 1.875 53.1131 1.875 51.5625V15.9375H54.375V30.1922C53.5022 29.5416 52.5731 29.2341 51.6169 29.4272C50.0166 29.7487 49.0144 31.3003 48.5016 33.4453C45.7078 35.4909 42.6638 37.1531 39.4519 38.4347C39.4322 38.19 39.3375 37.9566 39.1491 37.7944C38.9297 37.605 38.6363 37.5262 38.3522 37.5853L33.8278 38.4947C31.9716 38.8678 30.3713 39.9422 29.3222 41.5191C28.2731 43.0959 27.9009 44.9869 28.2741 46.8441C28.6472 48.7003 29.7216 50.3016 31.2984 51.3497C31.8722 51.7312 32.4891 52.02 33.1294 52.2197L34.6491 54.3759L4.6875 54.375ZM51.1838 45.1603C50.9063 44.2744 50.6634 43.3453 50.4703 42.3806C50.2687 41.3794 50.1375 40.4353 50.0522 39.5419C50.1966 39.4856 50.34 39.4406 50.4853 39.4116C52.0613 39.0947 53.5941 40.1184 53.9091 41.6897C54.0628 42.4509 53.91 43.2272 53.4797 43.8731C53.0494 44.52 52.3931 44.9606 51.6309 45.1134C51.4866 45.1425 51.3375 45.1566 51.1838 45.1603ZM30.1125 46.4728C29.5462 43.6537 31.3781 40.8994 34.1972 40.3322L37.5675 39.6544C37.5609 41.4038 37.7306 43.1531 38.0756 44.8716C38.4206 46.5881 38.9391 48.2681 39.6225 49.8806L36.2522 50.5575C33.4378 51.1266 30.6797 49.2928 30.1125 46.4728ZM41.0578 48.4041C40.5703 47.1375 40.1813 45.8334 39.9141 44.5031C39.6459 43.1681 39.5006 41.8116 39.4612 40.4531C42.5175 39.2944 45.42 37.785 48.1331 35.9662C47.9897 38.0859 48.1734 40.4728 48.6319 42.7509C49.1091 45.1256 49.8506 47.3428 50.7684 49.1756C47.5716 48.5503 44.3147 48.2916 41.0578 48.4041ZM38.8922 57.1434L35.6325 52.5169C35.9625 52.4972 36.2925 52.4634 36.6216 52.3969L38.3662 52.0462L40.2816 57.0187L38.8922 57.1434ZM51.5625 54.375H41.2734L40.2319 51.6713L41.1469 51.4875C41.4309 51.4303 41.6728 51.2456 41.8013 50.9869C41.9119 50.7638 41.91 50.5116 41.8331 50.2791C45.2888 50.2191 48.7369 50.5772 52.1025 51.3834C52.6678 52.1503 53.2575 52.755 53.8556 53.1806C53.3362 53.9175 52.4916 54.375 51.5625 54.375ZM57.9591 48.8409C57.6234 50.6634 56.9353 51.8916 56.1628 52.0472C55.3875 52.2009 54.2813 51.3347 53.2678 49.7841C52.74 48.9769 52.2581 48.0216 51.8306 46.9687C51.8859 46.9594 51.9459 46.9631 52.0003 46.9519C53.2528 46.6997 54.3328 45.9759 55.0406 44.9119C55.7484 43.8478 55.9988 42.5728 55.7475 41.3194C55.2272 38.7338 52.7025 37.0519 50.1159 37.5731C50.0597 37.5844 50.0034 37.6078 49.9472 37.6219C49.9069 33.8672 50.8912 31.485 51.9862 31.2656C52.0453 31.2534 52.1072 31.2478 52.1719 31.2478C53.7188 31.2478 56.4366 34.7494 57.6797 40.9322C58.2638 43.8384 58.3631 46.6472 57.9591 48.8409Z" fill="#282928"/>
<path d="M9.375 30.9375C9.8925 30.9375 10.3125 30.5175 10.3125 30V29.0625H12.1875V30C12.1875 30.5175 12.6075 30.9375 13.125 30.9375C13.6425 30.9375 14.0625 30.5175 14.0625 30V25.3125C14.0625 23.7619 12.8006 22.5 11.25 22.5C9.69937 22.5 8.4375 23.7619 8.4375 25.3125V30C8.4375 30.5175 8.8575 30.9375 9.375 30.9375ZM11.25 24.375C11.7666 24.375 12.1875 24.7959 12.1875 25.3125V27.1875H10.3125V25.3125C10.3125 24.7959 10.7334 24.375 11.25 24.375Z" fill="#282928"/>
<path d="M16.875 30.9375H18.2812C20.6072 30.9375 22.5 29.0447 22.5 26.7188C22.5 24.3928 20.6072 22.5 18.2812 22.5H16.875C16.3575 22.5 15.9375 22.92 15.9375 23.4375V30C15.9375 30.5175 16.3575 30.9375 16.875 30.9375ZM17.8125 24.375H18.2812C19.5731 24.375 20.625 25.4269 20.625 26.7188C20.625 28.0106 19.5731 29.0625 18.2812 29.0625H17.8125V24.375Z" fill="#282928"/>
<path d="M30 20.625H50.625C51.1425 20.625 51.5625 20.205 51.5625 19.6875C51.5625 19.17 51.1425 18.75 50.625 18.75H30C29.4825 18.75 29.0625 19.17 29.0625 19.6875C29.0625 20.205 29.4825 20.625 30 20.625Z" fill="#282928"/>
<path d="M30 25.3125H50.625C51.1425 25.3125 51.5625 24.8925 51.5625 24.375C51.5625 23.8575 51.1425 23.4375 50.625 23.4375H30C29.4825 23.4375 29.0625 23.8575 29.0625 24.375C29.0625 24.8925 29.4825 25.3125 30 25.3125Z" fill="#282928"/>
<path d="M30 30H42.1875C42.705 30 43.125 29.58 43.125 29.0625C43.125 28.545 42.705 28.125 42.1875 28.125H30C29.4825 28.125 29.0625 28.545 29.0625 29.0625C29.0625 29.58 29.4825 30 30 30Z" fill="#282928"/>
</g>
<defs>
<clipPath id="clip0_3744_1098">
<rect width="60" height="60" fill="white"/>
</clipPath>
</defs>
</svg>
