<svg width="60" height="60" viewBox="0 0 60 60" fill="none" xmlns="http://www.w3.org/2000/svg">
<path fill-rule="evenodd" clip-rule="evenodd" d="M43.0391 7.63137C42.1364 6.91172 42.6032 5.44513 43.7635 5.39301L47.5807 5.20537C47.9592 4.20995 48.9382 1.63431 48.9382 1.63431C49.3458 0.554189 50.8825 0.554189 51.2901 1.63431L52.6476 5.20537C53.7112 5.25772 56.4576 5.39266 56.4608 5.39289C57.6252 5.44513 58.092 6.91172 57.1925 7.62878L54.2124 10.0252C54.492 11.0543 55.2139 13.7092 55.2135 13.7083C55.5231 14.8192 54.2853 15.7252 53.3175 15.0975C53.3165 15.0968 53.3154 15.0961 53.3144 15.0954L50.1144 13.0012L46.9176 15.0952C46.9165 15.096 46.9153 15.0968 46.9141 15.0975C45.9498 15.723 44.7136 14.8212 45.0134 13.7135L45.0136 13.7124C45.0136 13.7124 45.738 11.0482 46.0161 10.0252C45.1872 9.35878 43.0415 7.63337 43.0391 7.63137ZM45.5168 7.1989C46.4398 7.94101 47.5168 8.80713 47.5166 8.8069C47.9181 9.1229 48.0812 9.61642 47.9506 10.1128C47.9499 10.1152 47.9493 10.1177 47.9486 10.1202L47.2736 12.6029C48.2646 11.9537 49.4213 11.1961 49.4202 11.1968C49.8518 10.9103 50.3741 10.9098 50.806 11.1954L52.9542 12.6014L52.2798 10.1202C52.2791 10.1177 52.2785 10.1152 52.2778 10.1128C52.1471 9.61619 52.3105 9.12231 52.7114 8.80725L54.7115 7.1989L52.1411 7.07254L52.1391 7.07242C51.6291 7.04631 51.2106 6.7456 51.028 6.26301L50.1142 3.85913L49.2009 6.26172C49.0178 6.7456 48.5993 7.04631 48.0893 7.07242L48.0873 7.07254L45.5168 7.1989ZM21.8049 53.9444C20.4792 53.7007 19.2908 53.054 18.3741 52.1372C17.1899 50.953 16.4572 49.3209 16.4572 47.5248C16.4572 45.7287 17.1899 44.0965 18.3741 42.9123C18.8651 42.4215 19.436 42.0074 20.0639 41.691C19.1807 38.0331 15.4364 22.523 14.686 19.4149H11.8309C10.4853 19.4149 9.39435 18.324 9.39435 16.9783C9.39435 15.6327 10.4853 14.5417 11.8309 14.5417H15.2464C16.2091 14.5417 17.1009 14.8683 17.8145 15.427L17.8161 15.4283C18.5265 15.9871 19.0504 16.7802 19.2793 17.7194L19.2798 17.7214C19.7636 19.726 20.2475 21.7308 20.7313 23.7356H54.4267C55.7724 23.7356 56.8633 24.8265 56.8633 26.1722C56.8633 26.4728 56.8082 26.7655 56.7075 27.0312L52.8098 39.665C52.3811 41.0604 51.5376 42.2177 50.4402 43.0294L50.4389 43.0303C49.33 43.8476 47.9752 44.3132 46.5198 44.3132H34.9758C34.6292 45.2214 33.7476 45.8685 32.7198 45.8685H22.984C22.5308 45.8685 22.1185 46.0584 21.818 46.3589C21.8174 46.3595 21.8168 46.3601 21.8161 46.3607C21.5164 46.6588 21.3304 47.0727 21.3304 47.5248C21.3304 47.977 21.5164 48.3908 21.8161 48.689C21.8168 48.6896 21.8174 48.6902 21.818 48.6908C22.1185 48.9912 22.5308 49.1811 22.984 49.1811H23.5215C24.5741 48.148 26.0169 47.5111 27.6084 47.5111C29.1996 47.5111 30.6425 48.148 31.6951 49.1811H41.6228C42.6754 48.148 44.1182 47.5111 45.7095 47.5111C48.934 47.5111 51.5434 50.1205 51.5434 53.3449C51.5434 56.5663 48.934 59.1788 45.7095 59.1788C42.7274 59.1788 40.2671 56.9398 39.9181 54.0516H33.3998C33.0508 56.9398 30.5905 59.1788 27.6084 59.1788C24.5894 59.1788 22.1052 56.8843 21.8049 53.9444ZM21.1856 25.618C21.5307 27.0478 21.8758 28.4776 22.2208 29.9075H28.9154V25.618H21.1856ZM22.6751 31.7898C23.0249 33.2396 23.3748 34.6895 23.7247 36.1392H28.9154V31.7898H22.6751ZM24.1791 38.0216C24.4185 39.0137 24.6579 40.0058 24.8974 40.998H28.9154V38.0216H24.1791ZM30.7978 40.998H32.7198C33.7008 40.998 34.5486 41.5876 34.9252 42.4309H36.9553V38.0216H30.7978V40.998ZM22.2691 50.9897C21.5841 50.8468 20.9685 50.5029 20.488 50.0229C19.8452 49.3831 19.448 48.4948 19.448 47.5248C19.448 46.5549 19.8452 45.6664 20.488 45.0268C21.1306 44.3848 22.0152 43.9862 22.984 43.9862H32.7198C33.0115 43.9862 33.2506 43.7497 33.2506 43.4581V43.4569V43.4085C33.2506 43.1168 33.0115 42.8803 32.7198 42.8803H24.1564C23.7216 42.8803 23.3434 42.5825 23.2414 42.16C21.3111 34.1624 19.3807 26.1622 17.4504 18.1647C17.3249 17.6507 17.0416 17.2144 16.6531 16.9084C16.2621 16.6027 15.7736 16.4241 15.2464 16.4241H11.8309C11.5248 16.4241 11.2767 16.6722 11.2767 16.9783C11.2767 17.2844 11.5248 17.5325 11.8309 17.5325H15.2464C15.5388 17.5325 15.7851 17.6317 15.9712 17.778C16.1585 17.9251 16.314 18.1472 16.3809 18.4148C16.3815 18.4172 16.3821 18.4197 16.3827 18.4222L22.0805 42.0231C22.194 42.4936 21.9322 42.9735 21.4752 43.1328C20.8027 43.367 20.1975 43.751 19.7052 44.2434C18.8625 45.0861 18.3395 46.2468 18.3395 47.5248C18.3395 48.8029 18.8625 49.9636 19.7052 50.8063C20.3048 51.406 21.0675 51.844 21.9195 52.0456C22.0028 51.6792 22.1205 51.3262 22.2691 50.9897ZM38.8376 42.4309H44.9951V38.0216H38.8376V42.4309ZM46.8774 42.4177C47.7815 42.3509 48.6205 42.032 49.3215 41.5155C50.1048 40.936 50.7045 40.1082 51.0104 39.1123L51.0107 39.1111L51.3468 38.0216H46.8774V42.4177ZM51.9276 36.1392L53.2694 31.7898H46.8774V36.1392H51.9276ZM53.8502 29.9075L54.9186 26.4444C54.9261 26.4201 54.9346 26.3961 54.9441 26.3724C54.9687 26.3108 54.9809 26.2423 54.9809 26.1722C54.9809 25.8661 54.7328 25.618 54.4267 25.618H46.8774V29.9075H53.8502ZM44.9951 25.618H38.8376V29.9075H44.9951V25.618ZM36.9553 25.618H30.7978V29.9075H36.9553V25.618ZM32.9795 51.0635C33.1292 51.4156 33.2453 51.7856 33.3238 52.1692H39.9941C40.0726 51.7856 40.1887 51.4156 40.3384 51.0635H32.9795ZM30.7978 31.7898V36.1392H36.9553V31.7898H30.7978ZM38.8376 36.1392H44.9951V31.7898H38.8376V36.1392ZM45.7095 49.3935C43.5276 49.3935 41.7581 51.1609 41.7581 53.3449C41.7581 55.5269 43.5276 57.2964 45.7095 57.2964C47.8936 57.2964 49.6611 55.5269 49.6611 53.3449C49.6611 51.1609 47.8936 49.3935 45.7095 49.3935ZM45.7095 50.4108C47.332 50.4108 48.6438 51.7225 48.6438 53.3449C48.6438 54.9638 47.3324 56.2765 45.7095 56.2765C44.0904 56.2765 42.778 54.9642 42.778 53.3449C42.778 51.7222 44.0906 50.4108 45.7095 50.4108ZM45.7095 52.2931C45.1296 52.2931 44.6604 52.7637 44.6604 53.3449C44.6604 53.9245 45.13 54.3942 45.7095 54.3942C46.2908 54.3942 46.7614 53.9249 46.7614 53.3449C46.7614 52.7634 46.2912 52.2931 45.7095 52.2931ZM27.6084 49.3935C25.4264 49.3935 23.6568 51.1609 23.6568 53.3449C23.6568 55.5269 25.4264 57.2964 27.6084 57.2964C29.7902 57.2964 31.5598 55.5269 31.5598 53.3449C31.5598 51.1609 29.7902 49.3935 27.6084 49.3935ZM27.6084 50.4108C29.2273 50.4108 30.5399 51.7222 30.5399 53.3449C30.5399 54.9642 29.2276 56.2765 27.6084 56.2765C25.9855 56.2765 24.6741 54.9638 24.6741 53.3449C24.6741 51.7225 25.9859 50.4108 27.6084 50.4108ZM27.6084 52.2931C27.0267 52.2931 26.5565 52.7634 26.5565 53.3449C26.5565 53.9249 27.0271 54.3942 27.6084 54.3942C28.1879 54.3942 28.6575 53.9245 28.6575 53.3449C28.6575 52.7637 28.1882 52.2931 27.6084 52.2931ZM38.6702 5.73384L31.5396 18.0843C31.3884 18.3464 31.1202 18.5197 30.8192 18.5502C30.518 18.5805 30.2207 18.4643 30.02 18.2377L27.8852 15.8275L24.6259 21.4727C24.3662 21.9225 23.7901 22.0769 23.3402 21.8171C22.8904 21.5574 22.736 20.9814 22.9958 20.5315L26.9082 13.7548C27.0595 13.4928 27.3276 13.3194 27.6288 13.289C27.9299 13.2585 28.2272 13.3748 28.4279 13.6014L30.5628 16.0116L36.9909 4.87784L36.1656 5.09889C35.6639 5.23337 35.1473 4.93513 35.0129 4.43337C34.8785 3.93172 35.1767 3.41513 35.6784 3.28066L38.7656 2.45348C39.2678 2.3189 39.7839 2.6169 39.9184 3.11901L40.7456 6.20631C40.88 6.70795 40.5819 7.22454 40.0801 7.35901C39.5784 7.49337 39.0619 7.19525 38.9274 6.69348L38.6702 5.73384ZM13.3985 26.8487C13.9179 26.8487 14.3396 27.2703 14.3396 27.7898C14.3396 28.3092 13.9179 28.731 13.3985 28.731H3.82588C3.30647 28.731 2.88471 28.3092 2.88471 27.7898C2.88471 27.2703 3.30647 26.8487 3.82588 26.8487H13.3985ZM15.4069 31.5702C15.9264 31.5702 16.3481 31.992 16.3481 32.5114C16.3481 33.0309 15.9264 33.4525 15.4069 33.4525H0.941176C0.421765 33.4525 0 33.0309 0 32.5114C0 31.992 0.421765 31.5702 0.941176 31.5702H15.4069ZM16.6105 36.2918C17.1299 36.2918 17.5516 36.7136 17.5516 37.233C17.5516 37.7524 17.1299 38.1742 16.6105 38.1742H3.40329C2.88388 38.1742 2.46212 37.7524 2.46212 37.233C2.46212 36.7136 2.88388 36.2918 3.40329 36.2918H16.6105Z" fill="#282928"/>
</svg>
