<svg width="60" height="60" viewBox="0 0 60 60" fill="none" xmlns="http://www.w3.org/2000/svg">
<g clip-path="url(#clip0_3742_816)">
<path d="M30.0399 38.6547C25.2147 38.6547 21.2891 34.8074 21.2891 30.0776C21.2891 25.3477 25.2147 21.5 30.0399 21.5C30.7241 21.5 31.5578 21.6684 31.5026 22.5442C31.4499 23.3803 30.6921 23.4355 30.0399 23.4355C26.2816 23.4355 23.2245 26.4152 23.2245 30.0776C23.2245 33.74 26.2816 36.7192 30.0399 36.7192C33.7981 36.7192 36.8552 33.7395 36.8552 30.0776C36.8552 29.0073 36.6026 27.9863 36.1042 27.0423C35.8545 26.57 36.0355 25.9845 36.5078 25.7348C36.98 25.4852 37.5665 25.6652 37.8157 26.1389C38.4534 27.3466 38.7907 28.7087 38.7907 30.0776C38.7907 34.8074 34.8655 38.6547 30.0399 38.6547Z" fill="#282928"/>
<path d="M34.6548 24.9181C34.4589 24.9181 34.261 24.8586 34.0897 24.7352C33.8337 24.5508 33.5618 24.382 33.2816 24.2334C32.8089 23.9833 32.6289 23.3983 32.8785 22.9255C33.1282 22.4537 33.7137 22.2723 34.1864 22.5229C34.5455 22.7131 34.8939 22.9289 35.2219 23.1655C35.9652 23.7012 35.5723 24.9181 34.6548 24.9181Z" fill="#282928"/>
<path d="M56.3586 14.8094L56.3242 10.6079C56.3199 10.0761 55.8873 9.64841 55.3565 9.64841C55.3536 9.64841 55.3511 9.64841 55.3482 9.64841C54.814 9.65276 54.3839 10.0897 54.3882 10.6239L54.3984 11.8989C48.5886 4.9805 39.2823 0.484375 30.3558 0.484375C21.1255 0.484375 12.5813 4.61857 6.9176 11.8258C6.5876 12.2458 6.66066 12.8541 7.08066 13.1841C7.50115 13.5145 8.10937 13.4415 8.43986 13.021C13.7344 6.28357 21.7226 2.41986 30.3558 2.41986C39.0336 2.41986 48.096 6.95179 53.4911 13.8503H50.8352C50.301 13.8503 49.8674 14.2834 49.8674 14.8181C49.8674 15.3523 50.301 15.7858 50.8352 15.7858H55.3908C55.7029 15.7853 56.3586 15.4374 56.3586 14.8094Z" fill="#282928"/>
<path d="M58.0343 19.2414C57.8407 18.744 57.2794 18.4972 56.7815 18.6912C56.2836 18.8848 56.0368 19.4461 56.2309 19.9445C57.4478 23.0669 58.0647 26.3625 58.0647 29.74C58.0647 40.3517 50.6726 50.5416 40.1397 54.9288L40.8607 53.8256C41.153 53.3785 41.0272 52.7785 40.5801 52.4867C40.1325 52.195 39.533 52.3198 39.2402 52.7674L36.9322 56.2987C36.6109 56.7888 36.8175 57.4774 37.3517 57.7135L41.2401 59.4283C42.3815 59.9291 43.163 58.1616 42.021 57.6574L40.3667 56.9282C45.4449 54.9119 50.0484 51.5587 53.513 47.3108C57.7575 42.1062 60.0002 36.0308 60.0002 29.74C60.0002 26.1211 59.3388 22.5893 58.0343 19.2414C59.3388 22.5893 57.8402 18.7435 58.0343 19.2414Z" fill="#282928"/>
<path d="M31.5038 57.0363C31.123 57.0513 30.7403 57.059 30.3556 57.059C15.0769 57.059 2.64672 44.8035 2.64672 29.7387C2.64672 27.0735 3.76688 23.7401 4.8343 20.9264L5.68785 22.815C6.20317 23.954 7.96495 23.1532 7.45204 22.0185L5.64769 18.0266C5.42559 17.5359 4.81446 17.3187 4.33253 17.5596L0.534626 19.4617C0.0565611 19.7008 -0.136503 20.2824 0.102529 20.76C0.342045 21.238 0.924625 21.4321 1.40124 21.1916L2.95979 20.4111C1.85559 23.3385 0.711722 26.8088 0.711722 29.7382C0.711722 45.8695 14.0099 58.9935 30.3561 58.9935C30.7664 58.9935 31.1748 58.9848 31.5808 58.9688C32.1149 58.948 32.5306 58.4975 32.5093 57.9638C32.488 57.4301 32.0366 57.0159 31.5038 57.0363C32.0366 57.0159 31.1235 57.0513 31.5038 57.0363Z" fill="#282928"/>
<path d="M31.549 49.3486C30.5991 49.3486 27.7835 49.3597 27.3451 49.173C26.5903 48.8517 25.9748 48.0325 25.9748 47.1925V45.2647C24.5164 44.8825 23.1078 44.2873 21.8324 43.5146L20.4775 44.8665C19.6269 45.7065 18.1767 45.5657 17.3604 44.7847C16.9617 44.403 15.4095 42.8178 15.0504 42.4007C14.2849 41.5109 14.3019 40.1318 15.1385 39.2967L16.502 37.9365C15.7046 36.5778 15.123 35.1499 14.792 33.7375H12.8837C11.6938 33.7375 10.7106 32.7601 10.6453 31.5809C10.6148 31.0297 10.6293 28.8064 10.6453 28.2528C10.6782 27.1123 11.6009 26.0168 12.8043 26.0168H14.7388C15.1216 24.5628 15.7172 23.1581 16.4914 21.887L15.139 20.5375C14.2927 19.6912 14.4393 18.2347 15.2208 17.4218C15.6035 17.0241 17.1925 15.4747 17.6101 15.1172C18.5004 14.3551 19.8795 14.372 20.7156 15.2052L22.0811 16.5678C23.4432 15.7714 24.8754 15.1907 26.2922 14.8597V12.8793C26.2922 11.6889 27.2735 10.7091 28.4512 10.6433C29.0033 10.6128 31.232 10.6259 31.787 10.6433C32.9933 10.681 33.9461 11.6667 33.9461 12.8793V14.807C35.4045 15.1893 36.813 15.7839 38.0885 16.5572L39.4433 15.2052C40.292 14.3623 41.7461 14.508 42.5604 15.2875C42.9591 15.6693 44.5114 17.2539 44.8699 17.671C45.6354 18.5614 45.6185 19.9399 44.7814 20.7751L43.4183 22.1352C44.2158 23.4934 44.7969 24.9209 45.1283 26.3338H47.0367C48.199 26.3338 49.2282 27.1936 49.3472 28.3704C49.4048 28.9399 49.3714 31.2494 49.3549 31.8189C49.322 32.9599 48.4003 34.0544 47.1959 34.0544H45.2614C44.8787 35.5085 44.283 36.9126 43.5088 38.1847L44.8612 39.5338C45.708 40.3805 45.5609 41.837 44.7795 42.6499C44.3967 43.0476 42.8082 44.5965 42.3901 44.9541C41.4993 45.7167 40.1212 45.7007 39.2846 44.8665L37.9191 43.5039C36.557 44.2999 35.1253 44.881 33.708 45.212V47.1131C33.708 48.2541 32.7277 49.3486 31.549 49.3486ZM27.9098 47.1155C27.9306 47.2138 27.9998 47.4131 28.2127 47.4131H31.4725C31.5717 47.3923 31.7725 47.3236 31.7725 47.1126V44.4184C31.7725 43.9457 32.1146 43.5417 32.5816 43.4643C34.2311 43.1899 35.944 42.4989 37.5354 41.4668C37.9182 41.2186 38.4228 41.2718 38.7456 41.5936L40.6516 43.4957C40.8049 43.6491 41.0106 43.5586 41.1074 43.5015L43.4261 41.2651C43.5645 41.1272 43.4807 40.9312 43.4237 40.8334L41.5878 39.0015C41.2574 38.672 41.2095 38.1538 41.4732 37.7691C42.452 36.3412 43.189 34.608 43.548 32.8878C43.6419 32.4393 44.0372 32.118 44.4954 32.118H47.1199C47.2187 32.0976 47.4195 32.0294 47.4195 31.8184V28.5639C47.3798 28.368 47.2511 28.2688 47.0367 28.2688H44.3362C43.863 28.2688 43.4595 27.9272 43.3816 27.4602C43.1072 25.8155 42.4148 24.1075 41.3807 22.5199C41.1306 22.1362 41.1838 21.6301 41.508 21.3064L43.414 19.4043C43.5645 19.2543 43.4759 19.0515 43.4198 18.9552L41.1785 16.6418C41.0382 16.5025 40.8388 16.5867 40.7396 16.6438L38.9033 18.4762C38.5743 18.8047 38.058 18.8526 37.6743 18.5899C36.2435 17.6139 34.5054 16.878 32.7804 16.5194C32.3314 16.4265 32.0096 16.0302 32.0096 15.572V12.8778C32.0096 12.6915 31.8795 12.5773 31.7861 12.5773H28.5262C28.427 12.5981 28.2262 12.6668 28.2262 12.8778V15.6514C28.2262 16.1241 27.8841 16.5281 27.4172 16.6055C25.7682 16.8799 24.0553 17.5704 22.4633 18.6025C22.0806 18.8517 21.5764 18.798 21.2537 18.4757L19.3477 16.5741C19.1948 16.4212 18.9887 16.5112 18.8919 16.5678L16.5732 18.8043C16.4348 18.9422 16.5185 19.1381 16.5756 19.2359L18.4114 21.0683C18.7419 21.3983 18.7898 21.916 18.5261 22.3007C17.5477 23.7276 16.8108 25.4614 16.4512 27.1815C16.3574 27.6301 15.962 27.9514 15.5038 27.9514H12.8808C12.7816 27.9726 12.5808 28.0409 12.5808 28.2523V31.5039C12.6016 31.6022 12.6708 31.8015 12.8837 31.8015H15.5841C16.0574 31.8015 16.4609 32.1436 16.5388 32.6101C16.8132 34.2543 17.5051 35.9628 18.5396 37.5509C18.7898 37.9346 18.7366 38.4407 18.4124 38.7644L16.5064 40.666C16.3559 40.8165 16.4445 41.0193 16.5006 41.1155L18.7419 43.4289C18.8822 43.5688 19.0816 43.4846 19.1808 43.4265L21.017 41.5941C21.3456 41.2655 21.8624 41.2176 22.2466 41.4804C23.6769 42.4568 25.4145 43.1928 27.1399 43.5514C27.589 43.6443 27.9107 44.0405 27.9107 44.4988V47.1155H27.9098Z" fill="#282928"/>
</g>
<defs>
<clipPath id="clip0_3742_816">
<rect width="60" height="60" fill="white"/>
</clipPath>
</defs>
</svg>
