<svg width="60" height="60" viewBox="0 0 60 60" fill="none" xmlns="http://www.w3.org/2000/svg">
<path d="M30 1.875C29.73 1.87446 29.4735 1.99074 29.295 2.19362L22.7344 9.69573C22.2007 10.3022 22.6316 11.2559 23.4393 11.254H26.2628L26.3251 15.9527C26.3322 16.4707 26.7556 16.8851 27.2736 16.8792C27.7942 16.8737 28.2117 16.4459 28.2019 15.9252L28.125 10.3055C28.1179 9.79294 27.7037 9.3789 27.1912 9.37711H25.5084L30 4.24264L34.4916 9.37711H32.8107C32.2927 9.37898 31.8748 9.80035 31.8768 10.3183L31.8915 15.938C31.8894 16.4587 32.312 16.8813 32.8327 16.8792C33.3505 16.8774 33.7686 16.456 33.7665 15.938L33.7518 11.254H36.5607C37.3685 11.2559 37.8013 10.3022 37.2674 9.69573L30.7068 2.19362C30.5282 1.99074 30.2702 1.87446 30 1.875ZM10.3089 8.43774C10.0877 8.43984 9.86963 8.52021 9.69729 8.67213L2.19547 15.233C1.76818 15.6066 1.76818 16.2712 2.19547 16.6448L9.69729 23.2057C10.3036 23.7396 11.2573 23.3069 11.2555 22.4989V19.69H14.9982C16.053 19.6898 16.8714 20.51 16.8714 21.5651V34.6869C16.8693 35.2076 17.2938 35.6301 17.8143 35.6281C18.3323 35.6263 18.7502 35.2049 18.7482 34.6869V21.5651C18.7482 19.5037 17.0594 17.8145 14.9982 17.8149H10.3125C9.79736 17.8167 9.38049 18.2335 9.37868 18.7488V20.4371L4.24441 15.938L9.37868 11.4408V13.1291C9.38047 13.6443 9.79736 14.0611 10.3125 14.063H16.8714C20.0036 14.0628 22.4982 16.5573 22.4982 19.69V28.126C22.4982 30.0074 23.1979 31.7322 24.3494 33.0517C21.2549 34.4062 18.7478 36.8425 17.2998 39.8836C16.5345 38.7457 15.5037 37.806 14.2914 37.1552C14.739 36.4365 14.9982 35.5907 14.9982 34.6869C14.9982 32.109 12.8901 30.001 10.3125 30.001C7.73498 30.001 5.62869 32.109 5.62869 34.6869C5.62869 35.5904 5.88634 36.4367 6.33364 37.1552C3.67443 38.586 1.87686 41.4123 1.87686 44.6537V45.9117C1.87686 48.504 3.97861 50.625 6.56253 50.625H14.0643C14.7301 50.625 15.3627 50.4866 15.9375 50.2349V54.3769C15.9375 55.5026 16.2916 56.6124 17.1497 57.3379C18.008 58.0633 19.2425 58.2936 20.7312 58.0026L29.9945 55.5104L39.2706 58.0026C40.7382 58.2895 41.9866 58.0606 42.8448 57.3379C43.703 56.6151 44.0625 55.5169 44.0625 54.3971V50.2349C44.6386 50.4861 45.2723 50.625 45.9375 50.625H53.4393C56.0233 50.625 58.1231 48.504 58.1231 45.9117V44.6537C58.1231 41.412 56.326 38.5859 53.6664 37.1552C54.1136 36.4367 54.3731 35.5904 54.3731 34.6869C54.3731 32.109 52.2651 30.001 49.6875 30.001C47.11 30.001 44.9945 32.109 44.9945 34.6869C44.9945 35.5913 45.2557 36.438 45.7049 37.1571C44.4941 37.8078 43.4646 38.7468 42.7002 39.8836C41.2519 36.8424 38.7451 34.4062 35.6506 33.0517C36.8026 31.7321 37.5018 30.0078 37.5018 28.126V19.69C37.5018 16.5573 39.9891 14.0628 43.1213 14.063H49.6875C50.2027 14.0612 50.6195 13.6443 50.6213 13.1291V11.4408L55.7574 15.938L50.6213 20.4371V18.7488C50.6195 18.2335 50.2027 17.8167 49.6875 17.8149H44.9945C42.9332 17.8145 41.2537 19.5037 41.2537 21.5651V33.753C41.2554 34.2683 41.6723 34.6851 42.1875 34.6869C42.7027 34.6851 43.1196 34.2683 43.1213 33.753V21.5651C43.1213 20.51 43.9397 19.6898 44.9945 19.69H48.7463V22.4989C48.7444 23.3069 49.6963 23.7396 50.3027 23.2057L57.8045 16.6448C58.2318 16.2712 58.2318 15.6066 57.8045 15.233L50.3027 8.67213C50.027 8.42905 49.6346 8.3698 49.2993 8.52015C48.9616 8.67178 48.7452 9.00681 48.7463 9.37711V12.1879H43.1213C38.9828 12.1877 35.6268 15.551 35.6268 19.69C35.6268 19.69 35.6269 21.5176 35.6268 23.1728C34.2503 21.6113 32.2361 20.6239 30 20.6239C27.763 20.6239 25.7496 21.612 24.3732 23.1746V19.69C24.3732 15.551 21.0117 12.1877 16.8732 12.1879H11.2555V9.37711C11.2565 9.00681 11.0386 8.67178 10.7007 8.52015C10.5749 8.46377 10.4418 8.43648 10.3089 8.43774ZM30.0018 22.4989C33.0796 22.4989 35.6287 25.0079 35.6287 28.126C35.6287 31.244 33.1193 33.753 30.0018 33.753C26.8844 33.753 24.375 31.244 24.375 28.126C24.375 25.0079 26.924 22.4989 30.0018 22.4989ZM10.2777 31.8779C11.8586 31.8779 13.125 33.1224 13.125 34.6869C13.125 36.2514 11.835 37.5032 10.3144 37.5032C8.79374 37.5032 7.50552 36.2514 7.50552 34.6869C7.50552 33.1468 8.72991 31.916 10.2777 31.8779ZM49.6545 31.8779C51.2289 31.8779 52.4981 33.1224 52.4981 34.6869C52.4981 36.2514 51.2244 37.5032 49.6893 37.5032C48.1572 37.5032 46.8732 36.2514 46.8732 34.6869C46.8732 33.1468 48.1125 31.916 49.6545 31.8779ZM25.9515 34.4342C27.1211 35.1889 28.5118 35.6281 30.0018 35.6281C31.4911 35.6281 32.8828 35.19 34.0521 34.436C38.7978 36.098 42.1875 40.5976 42.1875 45.941V54.3971C42.1875 55.1352 41.9763 55.6228 41.64 55.9059C41.3052 56.188 40.7344 56.3748 39.6698 56.1696L33.609 54.5381L37.4689 53.498C39.5058 52.9495 40.7242 50.8306 40.1807 48.792C39.9131 47.7889 39.2676 46.9903 38.4375 46.4994V45.941C38.4357 45.4257 38.0188 45.007 37.5037 45.0052C36.9858 45.0032 36.5643 45.4229 36.5625 45.9501C36.211 45.9501 35.8523 45.9869 35.4968 46.0783L23.4412 49.1766V45.941C23.4394 45.423 23.0179 45.0032 22.5 45.0053C21.9848 45.007 21.5679 45.4257 21.5662 45.941V49.6581L21.3318 49.7186C20.8314 49.8489 20.5304 50.3605 20.6598 50.8612C20.7874 51.361 21.2946 51.6633 21.7951 51.5387L35.9674 47.8984C37.0484 47.6206 38.091 48.2092 38.3752 49.2754C38.6594 50.3416 38.0506 51.3983 36.9855 51.6852L20.3375 56.1696C19.2694 56.3748 18.6985 56.1891 18.3637 55.9059C18.0278 55.6219 17.818 55.1238 17.818 54.377V45.941C17.818 40.597 21.2052 36.0957 25.9515 34.4342ZM12.9309 38.5744C14.5292 39.2723 15.7957 40.5954 16.4301 42.2403C16.1108 43.4192 15.9393 44.6603 15.9393 45.941V48.0303C15.4439 48.4795 14.7939 48.7499 14.0643 48.7499H6.56436C4.99428 48.7499 3.75552 47.5052 3.75552 45.9117V44.6537C3.75552 41.9101 5.37756 39.5877 7.70144 38.5762C8.44901 39.083 9.34866 39.3801 10.3144 39.3801C11.2809 39.3801 12.182 39.082 12.9309 38.5744ZM47.0727 38.5744C47.8219 39.082 48.7227 39.3801 49.6893 39.3801C50.6541 39.3801 51.5532 39.0839 52.3004 38.578C54.6228 39.5904 56.25 41.9116 56.25 44.6537V45.9117C56.25 47.5052 55.0113 48.7499 53.4411 48.7499H45.9393C45.2095 48.7499 44.558 48.4798 44.0625 48.0303V45.9391C44.0625 44.6584 43.893 43.4193 43.5736 42.2403C44.2079 40.5954 45.4754 39.2723 47.0727 38.5744ZM33.75 40.3121C32.4997 40.3121 32.4997 42.1872 33.75 42.1872H36.5625C37.8128 42.1872 37.8128 40.3121 36.5625 40.3121H33.75Z" fill="#282928"/>
</svg>
