<svg width="60" height="60" viewBox="0 0 60 60" fill="none" xmlns="http://www.w3.org/2000/svg">
<path d="M30.0001 27.1202C31.8558 27.1202 33.3601 25.5621 33.3601 23.6402C33.3601 21.7182 31.8558 20.1602 30.0001 20.1602C28.1445 20.1602 26.6401 21.7182 26.6401 23.6402C26.6401 25.5621 28.1445 27.1202 30.0001 27.1202Z" stroke="#282928" stroke-width="1.8" stroke-miterlimit="10" stroke-linecap="round" stroke-linejoin="round"/>
<path d="M35.1603 39.8388C36.4803 39.8388 37.6803 38.7588 37.6803 37.4388C37.6803 32.1588 34.2003 30.7188 30.0003 30.7188C25.8003 30.7188 22.3203 32.0388 22.3203 37.4388C22.3203 38.7588 23.4003 39.8388 24.8403 39.8388H35.1603Z" stroke="#282928" stroke-width="1.8" stroke-miterlimit="10" stroke-linecap="round" stroke-linejoin="round"/>
<path d="M34.0806 39.8414V37.4414" stroke="#282928" stroke-width="1.8" stroke-miterlimit="10" stroke-linecap="round" stroke-linejoin="round"/>
<path d="M26.0405 39.8414V37.4414" stroke="#282928" stroke-width="1.8" stroke-miterlimit="10" stroke-linecap="round" stroke-linejoin="round"/>
<path d="M30.0003 46.0819C38.9473 46.0819 46.2003 38.8826 46.2003 30.0019C46.2003 21.1211 38.9473 13.9219 30.0003 13.9219C21.0533 13.9219 13.8003 21.1211 13.8003 30.0019C13.8003 38.8826 21.0533 46.0819 30.0003 46.0819Z" stroke="#282928" stroke-width="1.8" stroke-miterlimit="10" stroke-linecap="round" stroke-linejoin="round"/>
<path d="M30 13.2027V9.72266" stroke="#282928" stroke-width="1.8" stroke-miterlimit="10" stroke-linecap="round" stroke-linejoin="round"/>
<path d="M30.0003 9.72125C32.0548 9.72125 33.7203 8.05575 33.7203 6.00125C33.7203 3.94675 32.0548 2.28125 30.0003 2.28125C27.9458 2.28125 26.2803 3.94675 26.2803 6.00125C26.2803 8.05575 27.9458 9.72125 30.0003 9.72125Z" stroke="#282928" stroke-width="1.8" stroke-miterlimit="10" stroke-linecap="round" stroke-linejoin="round"/>
<path d="M30 46.8008V50.2808" stroke="#282928" stroke-width="1.8" stroke-miterlimit="10" stroke-linecap="round" stroke-linejoin="round"/>
<path d="M30.0003 57.7212C32.0548 57.7212 33.7203 56.0557 33.7203 54.0012C33.7203 51.9467 32.0548 50.2812 30.0003 50.2812C27.9458 50.2812 26.2803 51.9467 26.2803 54.0012C26.2803 56.0557 27.9458 57.7212 30.0003 57.7212Z" stroke="#282928" stroke-width="1.8" stroke-miterlimit="10" stroke-linecap="round" stroke-linejoin="round"/>
<path d="M46.9199 30H50.3999" stroke="#282928" stroke-width="1.8" stroke-miterlimit="10" stroke-linecap="round" stroke-linejoin="round"/>
<path d="M54.1199 33.7213C56.1744 33.7213 57.8399 32.0557 57.8399 30.0013C57.8399 27.9468 56.1744 26.2812 54.1199 26.2812C52.0654 26.2812 50.3999 27.9468 50.3999 30.0013C50.3999 32.0557 52.0654 33.7213 54.1199 33.7213Z" stroke="#282928" stroke-width="1.8" stroke-miterlimit="10" stroke-linecap="round" stroke-linejoin="round"/>
<path d="M13.0801 30H9.6001" stroke="#282928" stroke-width="1.8" stroke-miterlimit="10" stroke-linecap="round" stroke-linejoin="round"/>
<path d="M5.88016 33.7213C7.93466 33.7213 9.60016 32.0557 9.60016 30.0013C9.60016 27.9468 7.93466 26.2812 5.88016 26.2812C3.82566 26.2812 2.16016 27.9468 2.16016 30.0013C2.16016 32.0557 3.82566 33.7213 5.88016 33.7213Z" stroke="#282928" stroke-width="1.8" stroke-miterlimit="10" stroke-linecap="round" stroke-linejoin="round"/>
<path d="M42.0005 18.1187L47.2805 12.7188" stroke="#282928" stroke-width="1.8" stroke-miterlimit="10" stroke-linecap="round" stroke-linejoin="round"/>
<path d="M52.5607 12.7194C51.1207 14.1594 48.7207 14.1594 47.2807 12.7194C45.8407 11.2794 45.8407 8.87937 47.2807 7.43937C48.7207 5.99938 51.1207 5.99938 52.5607 7.43937C54.0007 8.87937 54.1207 11.2794 52.5607 12.7194Z" stroke="#282928" stroke-width="1.8" stroke-miterlimit="10" stroke-linecap="round" stroke-linejoin="round"/>
<path d="M18.0002 41.8789L12.7202 47.2789" stroke="#282928" stroke-width="1.8" stroke-miterlimit="10" stroke-linecap="round" stroke-linejoin="round"/>
<path d="M12.7204 52.5592C14.1604 51.1192 14.1604 48.7192 12.7204 47.2792C11.2804 45.8392 8.88035 45.8392 7.44035 47.2792C6.00035 48.7192 6.00035 51.1192 7.44035 52.5592C8.88035 53.9992 11.2804 53.9992 12.7204 52.5592Z" stroke="#282928" stroke-width="1.8" stroke-miterlimit="10" stroke-linecap="round" stroke-linejoin="round"/>
<path d="M42.0005 41.8789L47.2805 47.2789" stroke="#282928" stroke-width="1.8" stroke-miterlimit="10" stroke-linecap="round" stroke-linejoin="round"/>
<path d="M47.2807 52.5592C45.8407 51.1192 45.8407 48.7192 47.2807 47.2792C48.7207 45.8392 51.1207 45.8392 52.5607 47.2792C54.0007 48.7192 54.0007 51.1192 52.5607 52.5592C51.1207 53.9992 48.7207 53.9992 47.2807 52.5592Z" stroke="#282928" stroke-width="1.8" stroke-miterlimit="10" stroke-linecap="round" stroke-linejoin="round"/>
<path d="M18.0002 18.1187L12.7202 12.7188" stroke="#282928" stroke-width="1.8" stroke-miterlimit="10" stroke-linecap="round" stroke-linejoin="round"/>
<path d="M7.44039 12.7194C8.88039 14.1594 11.2804 14.1594 12.7204 12.7194C14.1604 11.2794 14.1604 8.87937 12.7204 7.43937C11.2804 5.99938 8.88039 5.99938 7.44039 7.43937C6.00039 8.87937 5.88039 11.2794 7.44039 12.7194Z" stroke="#282928" stroke-width="1.8" stroke-miterlimit="10" stroke-linecap="round" stroke-linejoin="round"/>
</svg>
