<svg width="60" height="60" viewBox="0 0 60 60" fill="none" xmlns="http://www.w3.org/2000/svg">
<g clip-path="url(#clip0_3744_1226)">
<path d="M55.186 4.36328H47.5171C47.0317 4.36328 46.6382 4.7568 46.6382 5.24219C46.6382 5.72758 47.0317 6.12109 47.5171 6.12109H55.186C55.6713 6.12109 56.0649 5.72758 56.0649 5.24219C56.0649 4.7568 55.6715 4.36328 55.186 4.36328Z" fill="#282928"/>
<path d="M43.1621 6.12109H44.0969C44.5823 6.12109 44.9758 5.72758 44.9758 5.24219C44.9758 4.7568 44.5823 4.36328 44.0969 4.36328H43.1621C42.6767 4.36328 42.2832 4.7568 42.2832 5.24219C42.2832 5.72758 42.6767 6.12109 43.1621 6.12109Z" fill="#282928"/>
<path d="M43.1621 10.25H55.186C55.6714 10.25 56.0649 9.85648 56.0649 9.37109C56.0649 8.8857 55.6714 8.49219 55.186 8.49219H43.1621C42.6767 8.49219 42.2832 8.8857 42.2832 9.37109C42.2832 9.85648 42.6767 10.25 43.1621 10.25Z" fill="#282928"/>
<path d="M46.341 52.0421C46.341 48.5312 45.1689 45.087 43.0339 42.3041L43.1968 39.3036C43.3077 37.261 41.6868 35.5329 39.6252 35.5329H30.0043C29.5617 35.2202 29.2932 34.7121 29.2932 34.1635V31.7095C30.7849 30.7448 31.8322 29.6446 32.6016 28.3354H34.3024C36.2701 28.3354 37.8709 26.7346 37.8709 24.7669V18.203C37.8709 17.0959 37.2305 16.1173 36.2727 15.6543V11.0477C36.2727 8.95047 34.5666 7.24422 32.4694 7.24422H32.3708C32.3108 7.24422 32.2621 7.19535 32.2621 7.13547C32.2621 5.03828 30.5558 3.33203 28.4586 3.33203H19.1505C14.5302 3.33203 10.7712 7.09105 10.7712 11.7114V15.6542C9.81352 16.1172 9.17297 17.0958 9.17297 18.2029V21.5411C9.17297 23.103 10.4436 24.3736 12.0055 24.3736H13.1401C13.4338 26.8575 14.599 29.1261 16.4241 30.7032C16.8523 31.0732 17.2951 31.4038 17.7506 31.6991V34.1634C17.7506 34.7104 17.4811 35.2185 17.0365 35.5328H7.41902C5.3734 35.5328 3.7357 37.2449 3.8475 39.3034L4.01039 42.304C1.87535 45.087 0.703242 48.5312 0.703242 52.0421V55.3525C0.26625 55.8422 0 56.4873 0 57.1937C0 58.7205 1.24207 59.9624 2.76879 59.9624H44.2754C45.8021 59.9624 47.0442 58.7204 47.0442 57.1937C47.0442 56.4873 46.778 55.8422 46.341 55.3526V52.0421ZM44.5832 52.0421V54.4424C44.482 54.4312 44.3795 54.425 44.2754 54.425H42.3761L42.8721 45.2855C43.9846 47.3516 44.5832 49.6793 44.5832 52.0421ZM36.023 17.7739C36.0807 17.9061 36.1133 18.0511 36.1133 18.2031V21.5413C36.1133 22.1339 35.6312 22.6161 35.0386 22.6161H33.9934V19.3028L34.535 19.1141C35.2051 18.8807 35.7321 18.3885 36.023 17.7739ZM30.155 27.9572H27.9493C27.5938 27.9572 27.3045 27.668 27.3045 27.3125C27.3045 26.9569 27.5938 26.6677 27.9493 26.6677H30.155C30.5106 26.6677 30.7998 26.9569 30.7998 27.3125C30.7998 27.668 30.5106 27.9572 30.155 27.9572ZM34.3027 26.5777H33.4143C33.6618 25.872 33.8326 25.1328 33.9227 24.3739H35.0386C35.4189 24.3739 35.7817 24.298 36.1133 24.1615V24.7671C36.1133 25.7655 35.301 26.5777 34.3027 26.5777ZM12.5292 11.7116C12.5292 8.06055 15.4997 5.09008 19.1508 5.09008H28.4589C29.5868 5.09008 30.5045 6.00777 30.5045 7.1357C30.5045 8.16496 31.3419 9.00227 32.3711 9.00227H32.4696C33.5975 9.00227 34.5151 9.91996 34.5151 11.0479V16.6686C34.5151 17.0222 34.2907 17.3379 33.9567 17.4543L32.1097 18.0975C32.0353 18.1233 31.9586 18.0696 31.9586 17.9896L31.962 14.497C31.9726 11.948 29.5859 9.72496 26.2418 10.7991C24.5599 11.3396 22.4786 11.3377 20.8023 10.7991C17.4929 9.73551 15.0715 11.9191 15.0821 14.4943L15.0862 17.9898C15.0862 18.0705 15.0077 18.1236 14.9351 18.0975L13.0875 17.4542C12.7535 17.3379 12.5291 17.0221 12.5291 16.6684L12.5292 11.7116ZM10.931 21.5413V18.203C10.931 18.0511 10.9636 17.9059 11.0214 17.7738C11.3123 18.3885 11.8393 18.8807 12.5096 19.1141L13.0512 19.3027V22.6159H12.0059C11.4131 22.6161 10.931 22.1338 10.931 21.5413ZM14.825 23.3587C14.7959 22.2032 14.8138 20.9767 14.8089 19.8538C14.863 19.8585 14.9173 19.8612 14.9715 19.8612C16.0165 19.8612 16.8458 19.0118 16.8441 17.9873L16.84 14.4895C16.834 13.0623 18.1141 11.7814 20.2645 12.4725C22.3027 13.1274 24.7481 13.1254 26.7796 12.4725C28.8284 11.8143 30.2105 12.9732 30.2041 14.4924L30.2007 17.9875C30.1993 19.0769 31.1305 19.9497 32.2354 19.8538V23.4298C32.2098 24.1894 32.0848 24.9307 31.8727 25.6357C31.4361 25.1886 30.8278 24.9098 30.155 24.9098H27.9493C26.6245 24.9098 25.5466 25.9875 25.5466 27.3123C25.5466 28.6371 26.6245 29.7149 27.9493 29.7149H29.066C27.4426 30.9821 25.5966 31.6428 23.5682 31.6764C19.131 31.6409 14.952 28.3628 14.825 23.3587ZM19.5088 34.1636V32.6257C20.7792 33.1518 22.1345 33.4244 23.5658 33.4345H23.572C23.5766 33.4345 23.5812 33.4345 23.5857 33.4343C24.9792 33.4127 26.2985 33.1427 27.5358 32.6329V34.1635C27.5358 34.6434 27.6362 35.1079 27.8211 35.5329H19.2224C19.4079 35.1078 19.5088 34.6431 19.5088 34.1636ZM4.17211 45.2855L4.31086 47.8427C4.33723 48.3275 4.75242 48.7002 5.23605 48.6727C5.72074 48.6464 6.09234 48.2322 6.06609 47.7475L5.60262 39.2084C5.54625 38.1696 6.37055 37.2909 7.41902 37.2909H39.6253C40.6661 37.2909 41.4984 38.1618 41.4417 39.2084L40.6158 54.4251H26.8336C27.0015 53.4211 27.4536 52.4768 28.1501 51.7032L28.1753 51.675C30.8357 48.6987 30.0394 44.0445 26.6006 42.0905C25.7182 41.5892 24.5975 42.2144 24.5975 43.2537V47.2416C24.5975 47.4244 24.4488 47.573 24.266 47.573H22.7782C22.5954 47.573 22.4467 47.4243 22.4467 47.2416V43.2537C22.4467 42.2164 21.3278 41.5881 20.4436 42.0905C16.995 44.0499 16.2149 48.7059 18.8716 51.678L18.8941 51.7032C19.5906 52.4767 20.0427 53.421 20.2106 54.425H6.42855L6.28758 51.8266C6.26133 51.3419 5.84707 50.9698 5.36238 50.9965C4.8777 51.0228 4.50609 51.437 4.53234 51.9217L4.66816 54.425H2.76879C2.66473 54.425 2.56219 54.4313 2.46105 54.4424V52.0421C2.46105 49.6795 3.05977 47.3516 4.17211 45.2855ZM21.9866 54.425C21.8067 52.9848 21.1894 51.6254 20.2008 50.5272L20.1796 50.5034C18.4814 48.6038 18.7089 45.6663 20.689 44.0461V47.2415C20.689 48.3936 21.6262 49.3307 22.7783 49.3307H24.2661C25.4182 49.3307 26.3555 48.3934 26.3555 47.2415V44.0461C28.3225 45.6555 28.5744 48.5909 26.8627 50.5059L26.8437 50.5271C25.855 51.6254 25.2376 52.9848 25.0577 54.425H21.9866ZM44.2754 58.2047H2.76879C2.21133 58.2047 1.75781 57.7512 1.75781 57.1939C1.75781 56.6365 2.21133 56.1829 2.76879 56.1829H44.2754C44.8329 56.1829 45.2864 56.6364 45.2864 57.1939C45.2864 57.7513 44.8329 58.2047 44.2754 58.2047Z" fill="#282928"/>
<path d="M59.1209 6.05004C59.6063 6.05004 59.9998 5.65652 59.9998 5.17113V3.47004C59.9998 1.57605 58.4589 0.0351562 56.5648 0.0351562H41.7827C39.8886 0.0351562 38.3477 1.57605 38.3477 3.47004V10.8632C38.3477 12.7573 39.8886 14.2982 41.7827 14.2982C42.1211 14.2982 42.3965 14.5736 42.3965 14.912V19.4841C42.3965 20.1444 42.824 20.7064 43.4604 20.8826C44.1006 21.0598 44.7545 20.7933 45.0921 20.2303L48.4707 14.5963C48.5809 14.4124 48.7827 14.2982 48.9972 14.2982H56.5649C58.459 14.2982 59.9999 12.7573 59.9999 10.8632V9.2802C59.9999 8.79481 59.6064 8.40129 59.121 8.40129C58.6356 8.40129 58.2421 8.79481 58.2421 9.2802V10.8632C58.2421 11.788 57.4898 12.5404 56.5649 12.5404H48.9971C48.1686 12.5404 47.3891 12.9818 46.963 13.6923L44.1542 18.3763V14.912C44.1542 13.6043 43.0902 12.5404 41.7825 12.5404C40.8577 12.5404 40.1054 11.788 40.1054 10.8632V3.47004C40.1054 2.54531 40.8577 1.79297 41.7825 1.79297H56.5648C57.4896 1.79297 58.242 2.54531 58.242 3.47004V5.17113C58.242 5.65652 58.6355 6.05004 59.1209 6.05004Z" fill="#282928"/>
</g>
<defs>
<clipPath id="clip0_3744_1226">
<rect width="60" height="60" fill="white"/>
</clipPath>
</defs>
</svg>
