<svg width="60" height="60" viewBox="0 0 60 60" fill="none" xmlns="http://www.w3.org/2000/svg">
<path d="M54.4725 1.02734H5.52707C3.0907 1.02734 1.10889 3.00916 1.10889 5.44553V42.6183C1.10889 45.0546 3.0907 47.0364 5.52707 47.0364H21.8453L19.6543 52.4455H16.4998C14.6998 52.4455 13.2362 53.9092 13.2362 55.7092C13.2362 57.5092 14.6998 58.9728 16.4998 58.9728H43.4816C45.2816 58.9728 46.7452 57.5092 46.7452 55.7092C46.7452 53.9092 45.2816 52.4455 43.4816 52.4455H40.3271L38.1362 47.0364H54.4543C56.8907 47.0364 58.8725 45.0546 58.8725 42.6183V5.44553C58.8907 3.00916 56.9089 1.02734 54.4725 1.02734ZM45.1725 55.7092C45.1725 56.6364 44.418 57.3819 43.4998 57.3819H16.5089C15.5816 57.3819 14.8362 56.6273 14.8362 55.7092C14.8362 54.791 15.5907 54.0364 16.5089 54.0364H43.4907C44.418 54.0364 45.1725 54.791 45.1725 55.7092ZM38.6271 52.4455H21.3725L23.5634 47.0364H36.4271L38.6271 52.4455ZM57.2998 42.6183C57.2998 44.1819 56.0271 45.4455 54.4725 45.4455H5.52707C3.96343 45.4455 2.6998 44.1728 2.6998 42.6183V5.44553C2.6998 3.88189 3.97252 2.61825 5.52707 2.61825H54.4634C56.0271 2.61825 57.2907 3.89098 57.2907 5.44553V42.6183H57.2998Z" fill="#282928"/>
<path d="M54.4725 4.64453H5.52705C5.09069 4.64453 4.72705 4.99908 4.72705 5.44453V37.1718C4.72705 37.6082 5.0816 37.9718 5.52705 37.9718H54.4634C54.8998 37.9718 55.2634 37.6173 55.2634 37.1718V5.44453C55.2634 4.99908 54.9089 4.64453 54.4725 4.64453ZM53.6725 36.3809H6.32705V6.23544H53.6725V36.3809Z" fill="#282928"/>
<path d="M29.9999 42.0916C30.502 42.0916 30.909 41.6846 30.909 41.1825C30.909 40.6805 30.502 40.2734 29.9999 40.2734C29.4978 40.2734 29.0908 40.6805 29.0908 41.1825C29.0908 41.6846 29.4978 42.0916 29.9999 42.0916Z" fill="#282928"/>
<path d="M17.6907 26.9176C22.8271 26.9176 27.0089 22.7358 27.0089 17.5994C27.0089 12.4631 22.8271 8.28125 17.6907 8.28125C12.5544 8.28125 8.37256 12.4631 8.37256 17.6085C8.37256 22.7449 12.5544 26.9176 17.6907 26.9176ZM17.6907 25.3267C15.8453 25.3267 14.1544 24.6722 12.8271 23.5903L18.0271 18.3903H25.3816C24.9816 22.2903 21.6816 25.3267 17.6907 25.3267ZM25.3816 16.8085H18.4907V9.91761C22.118 10.2903 25.0089 13.1813 25.3816 16.8085ZM16.8998 9.91761V17.2722L11.6998 22.4722C10.618 21.1449 9.96347 19.4449 9.96347 17.6085C9.96347 13.6085 13.0089 10.3176 16.8998 9.91761Z" fill="#282928"/>
<path d="M29.5544 34.3283H33.918C34.3544 34.3283 34.718 33.9738 34.718 33.5283V25.2102C34.718 24.7738 34.3635 24.4102 33.918 24.4102H29.5544C29.118 24.4102 28.7544 24.7647 28.7544 25.2102V33.5283C28.7544 33.9738 29.1089 34.3283 29.5544 34.3283ZM30.3453 26.0102H33.118V32.7374H30.3453V26.0102Z" fill="#282928"/>
<path d="M41.918 18.9648H37.5544C37.118 18.9648 36.7544 19.3194 36.7544 19.7648V33.5376C36.7544 33.9739 37.1089 34.3376 37.5544 34.3376H41.918C42.3544 34.3376 42.718 33.983 42.718 33.5376V19.7558C42.7089 19.3194 42.3544 18.9648 41.918 18.9648ZM41.118 32.7376H38.3453V20.5558H41.118V32.7376Z" fill="#282928"/>
<path d="M49.918 27.1562H45.5544C45.118 27.1562 44.7544 27.5108 44.7544 27.9562V33.5472C44.7544 33.9835 45.1089 34.3472 45.5544 34.3472H49.918C50.3544 34.3472 50.718 33.9926 50.718 33.5472V27.9562C50.718 27.5108 50.3635 27.1562 49.918 27.1562ZM49.1271 32.7381H46.3544V28.7381H49.1271V32.7381Z" fill="#282928"/>
<path d="M9.17256 30.5102H23.6362C24.0726 30.5102 24.4362 30.1556 24.4362 29.7102C24.4362 29.2647 24.0817 28.9102 23.6362 28.9102H9.17256C8.7362 28.9102 8.37256 29.2647 8.37256 29.7102C8.37256 30.1556 8.7271 30.5102 9.17256 30.5102Z" fill="#282928"/>
<path d="M9.17256 34.3266H17.6907C18.1271 34.3266 18.4907 33.972 18.4907 33.5266C18.4907 33.0811 18.1362 32.7266 17.6907 32.7266H9.17256C8.7362 32.7266 8.37256 33.0811 8.37256 33.5266C8.37256 33.972 8.7271 34.3266 9.17256 34.3266Z" fill="#282928"/>
<path d="M29.5544 20.5533C29.7544 20.5533 29.9635 20.4805 30.1181 20.3169L37.7635 12.6714L44.9908 19.8987C45.2999 20.2078 45.809 20.2078 46.1181 19.8987L50.3908 15.626V16.2169C50.3908 16.6533 50.7453 17.0169 51.1908 17.0169C51.6362 17.0169 51.9908 16.6624 51.9908 16.2169V13.5714C51.9908 13.1351 51.6362 12.7714 51.1908 12.7714H48.5453C48.109 12.7714 47.7453 13.126 47.7453 13.5714C47.7453 14.0169 48.0999 14.3714 48.5453 14.3714H49.409L45.5635 18.2169L38.3362 10.9896C38.0272 10.6805 37.5181 10.6805 37.209 10.9896L28.9999 19.1987C28.6908 19.5078 28.6908 20.0169 28.9999 20.326C29.1453 20.4714 29.3453 20.5533 29.5544 20.5533Z" fill="#282928"/>
</svg>
