<svg width="60" height="60" viewBox="0 0 60 60" fill="none" xmlns="http://www.w3.org/2000/svg">
<g clip-path="url(#clip0_3746_1516)">
<path d="M26.6317 44.0324C25.3634 44.0324 24.3322 43.0022 24.3322 41.7339C24.3322 40.4655 25.3633 39.4353 26.6317 39.4353C27.9001 39.4353 28.9312 40.4655 28.9312 41.7339C28.9312 43.0022 27.9001 44.0324 26.6317 44.0324ZM26.6317 41.3709C26.4313 41.3709 26.2678 41.5335 26.2678 41.7339C26.2678 42.1346 26.9956 42.1346 26.9956 41.7339C26.9956 41.5335 26.8321 41.3709 26.6317 41.3709ZM35.2758 44.0324C34.0075 44.0324 32.9773 43.0022 32.9773 41.7339C32.9773 40.4655 34.0075 39.4353 35.2758 39.4353C36.5442 39.4353 37.5744 40.4655 37.5744 41.7339C37.5744 43.0022 36.5442 44.0324 35.2758 44.0324ZM35.2758 41.3709C35.0754 41.3709 34.9129 41.5335 34.9129 41.7339C34.9129 42.1346 35.6387 42.1346 35.6387 41.7339C35.6387 41.5335 35.4762 41.3709 35.2758 41.3709ZM42.5155 21.96C42.0864 21.4005 41.4343 21.0801 40.7292 21.0801H18.7392L18.1662 18.9375C17.8761 17.8496 16.8875 17.0907 15.7618 17.0907H14.3196C13.7846 17.0907 13.3518 17.5236 13.3518 18.0585C13.3518 18.5934 13.7846 19.0263 14.3196 19.0263H15.7618C16.0123 19.0263 16.2316 19.1955 16.2968 19.4374L20.9194 36.7209C21.2577 37.9874 22.4098 38.872 23.7207 38.872H39.2359C39.7708 38.872 40.2037 38.4392 40.2037 37.9042C40.2037 37.3693 39.7709 36.9364 39.2359 36.9364H23.7207C23.285 36.9364 22.9013 36.6415 22.7888 36.2219L22.436 34.9025H25.6393H34.7711H37.0035C38.7558 34.9025 40.2963 33.7192 40.75 32.0255L42.9068 23.9135C43.0882 23.2312 42.9446 22.5195 42.5155 21.96ZM40.9806 23.1395C41.0165 23.1858 41.0713 23.2831 41.0354 23.4164L40.076 27.0239H36.6766L37.2158 23.0157H40.7292C40.8653 23.0157 40.9447 23.0932 40.9806 23.1395ZM34.7247 27.024H31.1683V23.0157H35.2645L34.7247 27.024ZM29.2327 23.0157V27.024H25.6797L25.1365 23.0157H29.2327ZM23.1831 23.0157L23.7262 27.024H20.3336L19.2597 23.0157H23.1831ZM23.9883 28.9596L24.5313 32.9669H21.9259L20.8523 28.9596H23.9883ZM25.9421 28.9596H29.2327V32.9669H26.4852L25.9421 28.9596ZM31.1683 32.9669V28.9596H34.464L33.9243 32.9669H31.1683ZM37.0035 32.9669H35.877L36.4161 28.9596H39.5613L38.8786 31.5265C38.6518 32.3752 37.8806 32.9669 37.0035 32.9669ZM16.3912 6.54632C16.3912 6.04518 15.9857 5.63965 15.4845 5.63965H5.52859C5.02745 5.63965 4.62192 6.04517 4.62192 6.54632C4.62192 7.04747 5.02744 7.45298 5.52859 7.45298H15.4845C15.9857 7.45298 16.3912 7.04747 16.3912 6.54632ZM43.7327 6.5462C43.7327 7.08071 43.2994 7.51401 42.7649 7.51401C42.2304 7.51401 41.7971 7.08071 41.7971 6.5462C41.7971 6.0117 42.2304 5.57839 42.7649 5.57839C43.2994 5.5784 43.7327 6.01171 43.7327 6.5462ZM46.7576 5.5784C46.2231 5.5784 45.7898 6.01171 45.7898 6.54621C45.7898 7.08072 46.2231 7.51402 46.7576 7.51402C47.2921 7.51402 47.7254 7.08072 47.7254 6.54621C47.7254 6.01171 47.2921 5.5784 46.7576 5.5784ZM50.7503 5.5784C50.2158 5.5784 49.7825 6.01171 49.7825 6.54621C49.7825 7.08072 50.2158 7.51402 50.7503 7.51402C51.2848 7.51402 51.7181 7.08072 51.7181 6.54621C51.7181 6.01171 51.2848 5.5784 50.7503 5.5784ZM59.2914 47.8696L56.3232 45.3672C56.3252 45.3075 56.3344 45.2489 56.3344 45.1891V7.37969C56.3344 4.4734 53.9625 2.10156 51.0563 2.10156H5.27813C2.37189 2.10156 0 4.47341 0 7.37969V45.1891C0 48.0953 2.3719 50.4672 5.27813 50.4672H45.9075L45.9085 54.0923C45.9085 54.873 46.347 55.5629 47.054 55.8937C47.7552 56.2207 48.5699 56.1186 49.1691 55.6215L50.9819 54.115L51.9913 56.2831C52.3031 56.9598 52.8627 57.474 53.5621 57.7291C53.874 57.8426 54.1991 57.8993 54.5204 57.8993C54.9212 57.8993 55.3219 57.8123 55.6962 57.6384C56.371 57.3246 56.8851 56.7651 57.1403 56.0657C57.3955 55.3644 57.3634 54.6064 57.0477 53.9335L56.0402 51.7635L58.3595 51.3496C59.127 51.2116 59.7281 50.6577 59.9304 49.9035C60.1326 49.1512 59.8869 48.3705 59.2914 47.8696ZM1.93124 7.37969C1.93124 5.54217 3.43122 4.04219 5.27813 4.04219H51.0563C52.9031 4.04219 54.4032 5.54217 54.4032 7.37969V9.04841H1.93124V7.37969ZM45.9047 40.8587L45.9069 48.5266H5.27813C3.43122 48.5266 1.93124 47.0265 1.93124 45.1891V10.989H54.4031V43.7484L49.1729 39.3389C48.5737 38.8323 47.7609 38.7303 47.054 39.0573C46.3451 39.3862 45.9047 40.0761 45.9047 40.8587ZM58.0174 49.4442L54.4619 50.0793C54.1669 50.1322 53.9118 50.3193 53.7738 50.5859C53.6339 50.8524 53.6283 51.1681 53.7549 51.4403L55.2936 54.752C55.39 54.9561 55.3994 55.1886 55.3219 55.4022C55.2425 55.6158 55.0856 55.7879 54.8815 55.8843C54.6736 55.9788 54.4391 55.9901 54.2275 55.9107C54.012 55.8332 53.8418 55.6763 53.7455 55.4684L52.2068 52.1605C52.0801 51.8883 51.8344 51.6898 51.5414 51.6236C51.4715 51.6085 51.3996 51.601 51.3297 51.601C51.1067 51.601 50.8874 51.6785 50.7116 51.824L47.8441 54.0923L47.9254 40.8171L58.0439 49.3478L58.0174 49.4442Z" fill="#282928"/>
</g>
<defs>
<clipPath id="clip0_3746_1516">
<rect width="60" height="60" fill="white"/>
</clipPath>
</defs>
</svg>
