<svg width="60" height="60" viewBox="0 0 60 60" fill="none" xmlns="http://www.w3.org/2000/svg">
<path d="M52.0669 20.5997L47.5313 3.66005C47.4676 3.4221 47.3577 3.19901 47.2078 3.00355C47.0579 2.80808 46.871 2.64407 46.6577 2.52087C46.4444 2.39768 46.2089 2.31773 45.9647 2.28557C45.7205 2.25342 45.4723 2.2697 45.2344 2.33349L42.6825 3.01787C42.4656 3.07438 42.2608 3.16967 42.0778 3.29912L36.5859 7.2263L31.8422 3.1613C31.3297 2.72126 30.6765 2.47933 30.0009 2.47933C29.3254 2.47933 28.6722 2.72126 28.1597 3.1613L2.8472 24.9769C2.54118 25.2417 2.29592 25.5694 2.12814 25.9377C1.96035 26.3059 1.87401 26.706 1.87501 27.1107V55.3107C1.87501 56.0566 2.17132 56.772 2.69877 57.2994C3.22622 57.8269 3.94159 58.1232 4.68751 58.1232H55.3125C56.0584 58.1232 56.7738 57.8269 57.3012 57.2994C57.8287 56.772 58.125 56.0566 58.125 55.3107V27.1107C58.1262 26.7056 58.0398 26.3051 57.8718 25.9365C57.7039 25.5679 57.4583 25.24 57.1519 24.9751L52.0669 20.5997ZM56.2303 55.4101L39.1191 41.7169L56.25 28.0079V55.3107C56.2453 55.3442 56.2388 55.3773 56.2303 55.4101ZM3.75001 55.3107V28.0069L20.8856 41.7169L3.7697 55.4101C3.76115 55.3774 3.75457 55.3442 3.75001 55.3107ZM29.4113 37.2947C29.579 37.1636 29.7857 37.0924 29.9986 37.0924C30.2115 37.0924 30.4183 37.1636 30.5859 37.2947L54.2756 56.2482H5.72345L29.4113 37.2947ZM45.7172 4.14474L50.5697 22.2563L48.7584 22.741L43.9059 4.63037L45.7172 4.14474ZM29.0625 14.4357L31.0031 21.6807L25.5656 23.1366C24.6043 23.394 23.58 23.2589 22.7183 22.761C21.8565 22.2632 21.2278 21.4435 20.9705 20.4821C20.7131 19.5207 20.8482 18.4965 21.3461 17.6347C21.8439 16.773 22.6636 16.1443 23.625 15.8869L29.0625 14.4357ZM30.5831 23.7338L32.2819 30.0732C32.346 30.3132 32.3122 30.5689 32.188 30.7841C32.0637 30.9993 31.8591 31.1563 31.6191 31.2207C31.379 31.2848 31.1233 31.251 30.9081 31.1268C30.693 31.0025 30.536 30.7979 30.4716 30.5579L28.7728 24.2194L30.5831 23.7338ZM32.8894 21.4726L30.7997 13.6726L42.2025 5.5163L46.8403 22.8254L32.8894 21.4726ZM29.3859 4.5788C29.5567 4.43003 29.7754 4.34808 30.0019 4.34808C30.2283 4.34808 30.4471 4.43003 30.6178 4.5788L35.0147 8.34662L29.3166 12.4191L23.3634 14.0129C21.9722 14.3625 20.7607 15.2171 19.9645 16.4104C19.1683 17.6038 18.8444 19.0505 19.0556 20.4694C19.1895 21.2391 19.4822 21.9725 19.9152 22.6229C20.3482 23.2732 20.9118 23.8262 21.5703 24.2466C22.2288 24.6671 22.9677 24.9457 23.7398 25.0648C24.5119 25.184 25.3004 25.1409 26.055 24.9385L26.9606 24.6966L28.6341 30.9432C28.7781 31.5243 29.096 32.0476 29.5453 32.4432C29.8927 32.7397 30.3072 32.9472 30.7528 33.0477C31.1984 33.1481 31.6618 33.1385 32.1028 33.0197C32.545 32.902 32.9517 32.6781 33.2878 32.3675C33.6238 32.057 33.879 31.6691 34.0313 31.2376C34.2196 30.6703 34.2311 30.0592 34.0641 29.4854L32.4094 23.3054L47.835 24.8054C48.0587 24.8277 48.2845 24.8093 48.5016 24.751L51.0553 24.0666C51.2946 24.0028 51.5188 23.892 51.7147 23.7405C51.9106 23.589 52.0743 23.4 52.1963 23.1844L55.6078 26.1197L37.6191 40.5188L31.755 35.8266C31.2564 35.4279 30.637 35.2107 29.9986 35.2107C29.3602 35.2107 28.7408 35.4279 28.2422 35.8266L22.3856 40.5141L4.39126 26.1197L29.3859 4.5788Z" fill="#282928"/>
<path d="M51.7652 12.2289C51.8185 12.4284 51.9361 12.6047 52.0999 12.7305C52.2636 12.8563 52.4643 12.9245 52.6708 12.9245C52.7528 12.9245 52.8345 12.9135 52.9136 12.8917L56.5361 11.9214C56.7763 11.857 56.9811 11.6998 57.1054 11.4844C57.2297 11.269 57.2633 11.0131 57.1989 10.7729C57.1345 10.5327 56.9774 10.328 56.762 10.2037C56.5466 10.0794 56.2907 10.0457 56.0505 10.1101L52.428 11.0814C52.188 11.1457 51.9834 11.3028 51.8591 11.5179C51.7348 11.7331 51.701 11.9888 51.7652 12.2289Z" fill="#282928"/>
<path d="M50.6644 7.63933C50.7876 7.63943 50.9097 7.61522 51.0236 7.56808C51.1375 7.52095 51.241 7.45182 51.3281 7.36464L53.9794 4.71339C54.0689 4.62691 54.1403 4.52347 54.1894 4.40909C54.2386 4.29471 54.2644 4.17169 54.2655 4.04721C54.2666 3.92273 54.2429 3.79928 54.1957 3.68406C54.1486 3.56885 54.079 3.46417 53.991 3.37615C53.9029 3.28813 53.7983 3.21851 53.6831 3.17137C53.5678 3.12424 53.4444 3.10052 53.3199 3.1016C53.1954 3.10268 53.0724 3.12854 52.958 3.17768C52.8437 3.22681 52.7402 3.29823 52.6537 3.38777L50.0015 6.03902C49.8705 6.17013 49.7812 6.33716 49.7451 6.51899C49.7089 6.70082 49.7275 6.88929 49.7984 7.06057C49.8693 7.23185 49.9895 7.37825 50.1436 7.48127C50.2977 7.58429 50.479 7.63929 50.6644 7.63933Z" fill="#282928"/>
<path d="M52.6707 17.3237C52.6388 17.4427 52.6306 17.5667 52.6467 17.6888C52.6627 17.8109 52.7027 17.9286 52.7642 18.0352C52.8258 18.1419 52.9077 18.2354 53.0054 18.3103C53.1031 18.3853 53.2146 18.4403 53.3335 18.4722L56.956 19.4425C57.0351 19.4643 57.1168 19.4753 57.1988 19.4753C57.4263 19.4754 57.6461 19.3928 57.8172 19.2428C57.9883 19.0929 58.099 18.8858 58.1287 18.6602C58.1584 18.4347 58.1051 18.206 57.9787 18.0169C57.8523 17.8277 57.6614 17.691 57.4416 17.6322L53.8191 16.6609C53.7002 16.629 53.5761 16.6209 53.4541 16.6369C53.332 16.6529 53.2143 16.6929 53.1076 16.7544C53.001 16.816 52.9075 16.8979 52.8325 16.9956C52.7575 17.0933 52.7026 17.2048 52.6707 17.3237Z" fill="#282928"/>
</svg>
