<svg width="60" height="60" viewBox="0 0 60 60" fill="none" xmlns="http://www.w3.org/2000/svg">
<path d="M58.7618 30.5543L45.2172 19.1178C45.0138 18.947 44.7283 18.9082 44.4874 19.0201C44.2447 19.1325 44.0904 19.3747 44.0904 19.6415V25.9998H38.6393C37.4064 25.9998 36.2171 26.1785 35.0796 26.4852V15.9069H41.438C41.7048 15.9069 41.9474 15.7522 42.0598 15.5104C42.1713 15.2687 42.1338 14.9836 41.9617 14.7797L30.5235 1.23153C30.2629 0.922823 29.7366 0.922823 29.4761 1.23153L18.0387 14.7798C17.8665 14.9836 17.829 15.2687 17.9405 15.5105C18.0529 15.7523 18.2956 15.907 18.5624 15.907H24.9207V26.4845C23.7843 26.1758 22.5937 25.9999 21.3601 25.9999H15.9099V19.6416C15.9099 19.3748 15.7556 19.1326 15.5137 19.0202C15.2702 18.9069 14.9865 18.9462 14.783 19.1179L1.23772 30.5543C1.08342 30.6846 0.994141 30.8763 0.994141 31.078C0.994141 31.2797 1.0833 31.4714 1.23772 31.6017L14.7833 43.0382C15.2294 43.4142 15.91 43.0955 15.91 42.5145V36.1562H21.3602C23.3238 36.1562 24.9217 37.7571 24.9217 39.7247V58.3145C24.9217 58.6928 25.2286 58.9997 25.6069 58.9997H34.3928C34.771 58.9997 35.0779 58.6928 35.0779 58.3145V39.7247C35.0779 37.7571 36.6758 36.1562 38.6394 36.1562H44.0905V42.5145C44.0905 43.0947 44.7701 43.4131 45.2173 43.0382L58.7618 31.6017C58.9161 31.4714 59.0054 31.2797 59.0054 31.078C59.0054 30.8763 58.9162 30.6846 58.7618 30.5543ZM25.6059 14.5366H20.037L29.9998 2.73568L39.9624 14.5366H34.3945C34.0162 14.5366 33.7093 14.8435 33.7093 15.2217V26.9318C32.3508 27.4577 31.0921 28.1839 29.9817 29.0907C28.8777 28.1913 27.6379 27.4558 26.291 26.9307V15.2217C26.291 14.8436 25.9841 14.5366 25.6059 14.5366ZM21.3602 34.7858H15.2249C14.8466 34.7858 14.5397 35.0927 14.5397 35.471V41.0394L2.74095 31.078L14.5397 21.1167V26.6851C14.5397 27.0634 14.8466 27.3703 15.2249 27.3703H21.3602C24.2273 27.3703 26.8556 28.3687 28.9522 30.017C27.1429 31.8243 25.8434 34.1364 25.2639 36.718C24.3611 35.5456 22.9492 34.7858 21.3602 34.7858ZM45.4608 41.0394V35.471C45.4608 35.0927 45.1539 34.7858 44.7756 34.7858H38.6393C35.92 34.7858 33.7075 37.0014 33.7075 39.7247V39.9205V57.6293H26.2919V39.7247C26.2919 32.9123 31.8313 27.3702 38.6393 27.3702H44.7756C45.1539 27.3702 45.4608 27.0633 45.4608 26.685V21.1166L57.2586 31.0779L45.4608 41.0394Z" fill="#282928"/>
</svg>
