<svg width="60" height="60" viewBox="0 0 60 60" fill="none" xmlns="http://www.w3.org/2000/svg">
<g clip-path="url(#clip0_3745_1294)">
<path d="M59.2373 39.8811C58.2837 38.4457 56.5264 37.857 54.9491 38.3127L53.7468 36.504C52.5651 34.7361 50.1632 34.2548 48.3914 35.4318L46.8564 36.4545L45.7533 34.7978C44.5737 33.0279 42.1716 32.5461 40.3977 33.7243L29.3104 41.1083C28.9319 40.9869 28.5241 40.8557 28.0823 40.7119C25.8423 37.935 23.3174 36.3333 20.5732 35.9497C18.0021 35.5903 15.2861 36.2571 12.2714 37.9888L0.637535 43.7462C0.174879 43.9751 -0.0146135 44.5358 0.214371 44.9985C0.443238 45.4611 1.00398 45.6505 1.46664 45.4216L13.1266 39.6513C13.1443 39.6427 13.1616 39.6334 13.1786 39.6237C18.6688 36.4609 22.9937 37.2446 26.7896 42.0899C26.9039 42.2358 27.059 42.3444 27.2351 42.402C28.0037 42.6531 28.6759 42.8681 29.2678 43.0576C30.1888 43.3522 30.9164 43.5852 31.4983 43.791C31.5919 43.824 31.6901 43.8421 31.7893 43.8442L38.4541 43.9918C38.5057 44.0005 38.5578 44.0066 38.6104 44.0066C38.6503 44.0066 38.6903 44.0032 38.7303 43.998L39.5513 44.0162C40.081 44.0282 40.5763 44.2477 40.9458 44.634C41.3152 45.02 41.5118 45.5235 41.4999 46.0519C41.4869 46.6307 41.2204 47.1762 40.7684 47.5481C40.753 47.5608 40.7391 47.5744 40.7247 47.5878C40.3629 47.8604 39.9157 48.0098 39.4641 48.0004L25.2002 47.6828C25.193 47.6827 25.186 47.6825 25.1788 47.6825C24.6723 47.6825 24.2561 48.0874 24.2448 48.5964C24.2334 49.1125 24.6425 49.5402 25.1584 49.5517L39.4239 49.8693C39.4502 49.8698 39.4761 49.8701 39.5022 49.8701C40.3976 49.8701 41.2758 49.5538 41.9691 48.9887L54.919 40.3631C55.8347 39.7548 57.0734 40.0027 57.6805 40.9168C57.974 41.3569 58.0776 41.8879 57.9725 42.4118C57.8672 42.936 57.5666 43.3867 57.1264 43.6801L39.2999 55.5514C36.2856 57.5549 32.8183 57.8194 29.5374 56.2963L17.7616 50.8236C17.5187 50.7108 17.2393 50.7076 16.9939 50.8145L6.27039 55.493C5.79718 55.6995 5.58097 56.2503 5.78746 56.7234C5.99394 57.1968 6.54519 57.413 7.01793 57.2064L17.3556 52.6963L28.7501 57.9916C30.389 58.7524 32.0975 59.1295 33.7926 59.1294C36.0666 59.1293 38.3158 58.4503 40.3356 57.1078L58.1634 45.2359C59.0192 44.6654 59.6025 43.793 59.806 42.7796C60.0092 41.7655 59.8069 40.7357 59.2373 39.8811ZM31.5803 41.8425L41.433 35.2808C42.3486 34.6725 43.589 34.9209 44.1974 35.8341L45.3005 37.491L38.3527 42.1198L31.9793 41.9786C31.8523 41.9344 31.7188 41.889 31.5803 41.8425ZM41.1396 42.5093L47.1006 38.5379C47.1053 38.5349 47.1102 38.5325 47.1149 38.5295C47.1196 38.5263 47.1238 38.5227 47.1285 38.5194L49.427 36.9881C50.3416 36.3805 51.5822 36.6298 52.1912 37.541L53.2939 39.1997L43.3653 45.8129C43.3197 44.8893 42.9461 44.0205 42.297 43.3419C41.9597 42.9893 41.5675 42.7098 41.1396 42.5093ZM12.7011 21.2591L16.5927 22.1398C16.7137 22.4701 16.8487 22.7961 16.9968 23.1157L14.8696 26.4894C14.6368 26.8589 14.6905 27.3402 14.9993 27.6489L18.7911 31.4407C19.0997 31.7496 19.5816 31.8034 19.951 31.5702L23.3246 29.44C23.6427 29.5877 23.9685 29.7231 24.2998 29.8453L25.1808 33.7357C25.2774 34.1617 25.6558 34.464 26.0925 34.464H31.456C31.8928 34.464 32.2716 34.1613 32.3678 33.7352L33.2459 29.8452C33.575 29.7239 33.901 29.589 34.2217 29.4416L37.5981 31.5704C37.9676 31.8034 38.449 31.7494 38.7576 31.4407L42.5493 27.6489C42.8582 27.34 42.912 26.8583 42.6788 26.4889L40.5487 23.1154C40.6964 22.7972 40.8318 22.4713 40.954 22.1402L44.8444 21.2591C45.2704 21.1625 45.5727 20.7841 45.5727 20.3474V14.9839C45.5727 14.5471 45.27 14.1683 44.8439 14.0721L40.9539 13.194C40.8318 12.8631 40.6962 12.5366 40.5482 12.2168L42.6788 8.84227C42.912 8.47277 42.8582 7.99125 42.5493 7.68234L38.7576 3.89051C38.4488 3.5816 37.967 3.52781 37.5977 3.76102L34.2232 5.89172C33.9034 5.74371 33.5769 5.60824 33.2459 5.48613L32.3678 1.59598C32.2716 1.16977 31.893 0.867188 31.456 0.867188H26.0925C25.6559 0.867188 25.2774 1.16953 25.1808 1.59551L24.2998 5.4859C23.9684 5.60812 23.6426 5.74348 23.3246 5.89125L19.951 3.76102C19.5815 3.52781 19.0997 3.5816 18.7911 3.89051L14.9993 7.68234C14.6905 7.99102 14.6368 8.47242 14.8696 8.8418L16.9974 12.2164C16.8489 12.5375 16.7137 12.8644 16.5928 13.1944L12.7018 14.0721C12.2754 14.1682 11.9727 14.5468 11.9727 14.9839V20.3474C11.9726 20.7841 12.2751 21.1627 12.7011 21.2591ZM13.842 15.7314L17.5136 14.9032C17.8374 14.8301 18.0982 14.5909 18.1988 14.2745C18.3815 13.6996 18.6164 13.1314 18.8969 12.5858C19.0482 12.2917 19.0327 11.9396 18.8563 11.6599L16.8493 8.47641L19.5848 5.74078L22.768 7.75078C23.0486 7.92785 23.4018 7.94285 23.6965 7.79063C24.2327 7.51336 24.8004 7.27723 25.384 7.08891C25.6982 6.98742 25.9356 6.72773 26.0085 6.40582L26.8395 2.7368H30.7089L31.5369 6.40535C31.6097 6.72762 31.8473 6.98754 32.1616 7.08902C32.7429 7.27664 33.3125 7.51301 33.8543 7.79168C34.1486 7.94309 34.5009 7.92738 34.7808 7.7509L37.9641 5.7409L40.6993 8.47617L38.6894 11.6595C38.5128 11.9393 38.4972 12.2916 38.6485 12.5858C38.9273 13.1282 39.1637 13.6978 39.3515 14.2788C39.4531 14.5932 39.7129 14.8307 40.035 14.9033L43.7035 15.7314V19.6008L40.0345 20.4319C39.7124 20.5048 39.4528 20.7421 39.3515 21.0561C39.163 21.6395 38.9269 22.2073 38.6495 22.7439C38.4972 23.0385 38.5124 23.3918 38.6894 23.6722L40.6993 26.8554L37.9637 29.591L34.7803 27.5838C34.5018 27.408 34.1514 27.392 33.8581 27.5413C33.3089 27.8204 32.7382 28.0564 32.1616 28.2425C31.8471 28.3441 31.6096 28.6039 31.5369 28.9262L30.7089 32.5948H26.8395L26.0085 28.9257C25.9355 28.6037 25.6981 28.344 25.384 28.2427C24.8004 28.0543 24.2327 27.8182 23.6965 27.5409C23.4019 27.3887 23.0486 27.4038 22.768 27.5808L19.5848 29.5908L16.8493 26.8552L18.8563 23.6716C19.0332 23.3913 19.0483 23.0382 18.8961 22.7437C18.6169 22.204 18.3823 21.6376 18.1989 21.0604C18.0985 20.7442 17.8378 20.505 17.5144 20.4318L13.8421 19.6007V15.7314H13.842ZM28.7726 25.6828C33.1925 25.6828 36.7881 22.0871 36.7881 17.6673C36.7881 13.2458 33.1925 9.64863 28.7726 9.64863C24.3529 9.64863 20.7572 13.2458 20.7572 17.6673C20.7573 22.0871 24.353 25.6828 28.7726 25.6828ZM28.7726 11.5181C32.1616 11.5181 34.9186 14.2766 34.9186 17.6674C34.9186 21.0564 32.1614 23.8134 28.7726 23.8134C25.3838 23.8134 22.6267 21.0562 22.6267 17.6674C22.6267 14.2766 25.3838 11.5181 28.7726 11.5181Z" fill="#282928"/>
</g>
<defs>
<clipPath id="clip0_3745_1294">
<rect width="60" height="60" fill="white"/>
</clipPath>
</defs>
</svg>
