<svg width="60" height="60" viewBox="0 0 60 60" fill="none" xmlns="http://www.w3.org/2000/svg">
<path d="M19.5923 50.8535H3.91324C2.78859 50.8535 1.87371 49.94 1.87371 48.8173V43.7647H18.6789C19.1963 43.7647 19.6157 43.3453 19.6157 42.8279C19.6157 42.3105 19.1963 41.8911 18.6789 41.8911H1.87371V12.0377H30.4116V32.982C30.4116 33.4993 30.831 33.9188 31.3484 33.9188C31.8657 33.9188 32.2852 33.4993 32.2852 32.982V6.77262C32.2852 4.61496 30.5311 2.85938 28.3753 2.85938H3.91324C1.75559 2.85938 0 4.61484 0 6.77262V48.8173C0 50.973 1.75547 52.7271 3.91324 52.7271H19.5923C20.1097 52.7271 20.5291 52.3077 20.5291 51.7903C20.5291 51.2729 20.1097 50.8535 19.5923 50.8535ZM3.91324 4.73297H28.3753C29.4981 4.73297 30.4116 5.64797 30.4116 6.7725V10.164H1.87371V6.77262C1.87371 5.64797 2.78859 4.73297 3.91324 4.73297ZM12.6895 7.4502C12.6895 6.93281 13.1089 6.5134 13.6263 6.5134H18.6589C19.1763 6.5134 19.5957 6.93281 19.5957 7.4502C19.5957 7.96758 19.1763 8.38699 18.6589 8.38699H13.6263C13.1089 8.38699 12.6895 7.96758 12.6895 7.4502ZM16.4793 15.3915C16.2636 15.3091 16.0253 15.3091 15.8096 15.3915L7.20598 18.6836C6.8434 18.8223 6.60387 19.1702 6.60387 19.5585V29.2781C6.60387 29.364 6.61582 29.4496 6.63914 29.5323C7.87395 33.912 10.8845 36.8614 15.8425 38.5493C15.9403 38.5826 16.0424 38.5993 16.1443 38.5993C16.2463 38.5993 16.3484 38.5826 16.4462 38.5493C21.4054 36.8611 24.4147 33.9114 25.6464 29.5317C25.6696 29.4492 25.6814 29.3638 25.6814 29.2781V19.5585C25.6814 19.1702 25.442 18.8224 25.0794 18.6836L16.4793 15.3915ZM23.8078 29.1465C22.759 32.7338 20.2494 35.1984 16.1443 36.6702C12.0398 35.1984 9.52922 32.734 8.47746 29.1462V20.203L16.1442 17.2696L23.8078 20.2029V29.1465ZM40.0566 39.1955C40.0566 39.1954 40.0564 39.1952 40.0563 39.1951C38.2225 36.8698 35.5931 35.3973 32.6528 35.0489C29.7116 34.6998 26.8117 35.5185 24.4869 37.3518C22.1614 39.1842 20.6889 41.8131 20.3404 44.7545C19.9918 47.6963 20.8099 50.5968 22.6434 52.9214C24.8266 55.6923 28.077 57.1386 31.3598 57.1386C33.7625 57.1386 36.1829 56.3633 38.2133 54.7647C43.0121 50.9801 43.8389 43.9957 40.0566 39.1955ZM37.0539 53.2932C33.0615 56.4366 27.2571 55.7496 24.1148 51.7616C22.5912 49.8296 21.9115 47.4193 22.2011 44.9748C22.4906 42.5306 23.7142 40.346 25.6468 38.8232C27.3326 37.4937 29.3421 36.8493 31.339 36.8493C34.0661 36.8493 36.7687 38.0522 38.5853 40.3553L38.585 40.3549C41.7284 44.3442 41.0412 50.1485 37.0539 53.2932ZM15.2075 20.1829V21.2416C13.1811 21.3832 11.5833 22.8189 11.5833 24.5644C11.5833 26.9687 13.6008 27.6414 15.2075 27.8297V30.8261H14.9584C14.0735 30.8261 13.4569 30.2974 13.4569 29.8229C13.4569 29.3055 13.0375 28.8861 12.5201 28.8861C12.0027 28.8861 11.5833 29.3055 11.5833 29.8229C11.5833 31.4091 13.0973 32.6996 14.9584 32.6996H15.2075V33.746C15.2075 34.2634 15.627 34.6828 16.1443 34.6828C16.6617 34.6828 17.0811 34.2634 17.0811 33.746V32.6872C19.1074 32.5457 20.7053 31.11 20.7053 29.3645C20.7053 27.619 19.1074 26.1834 17.0811 26.0418V23.1028H17.3302C18.215 23.1028 18.8317 23.6314 18.8317 24.1059C18.8317 24.6233 19.2511 25.0427 19.7685 25.0427C20.2859 25.0427 20.7053 24.6233 20.7053 24.1059C20.7053 22.5198 19.1912 21.2292 17.3302 21.2292H17.0811V20.1829C17.0811 19.6655 16.6617 19.2461 16.1443 19.2461C15.627 19.2461 15.2075 19.6655 15.2075 20.1829ZM13.457 24.5644C13.457 23.8507 14.2304 23.2386 15.2075 23.1239V25.9355C13.4576 25.6827 13.457 24.979 13.457 24.5644ZM18.8317 29.3645C18.8317 30.0782 18.0584 30.6902 17.0811 30.805V27.9239C18.0584 28.0388 18.8317 28.6508 18.8317 29.3645ZM36.8462 42.4538L30.6908 50.1339C30.5208 50.3462 30.2668 50.4739 29.995 50.4841C29.9832 50.4846 29.9715 50.4848 29.9598 50.4848C29.7006 50.4848 29.4524 50.3774 29.2748 50.1871L25.8966 46.5662C25.5436 46.1879 25.5641 45.5952 25.9425 45.2422C26.3209 44.8894 26.9136 44.9099 27.2665 45.2882L29.906 48.1174L35.3843 41.2822C35.708 40.8785 36.2975 40.8136 36.701 41.1372C37.1048 41.4606 37.1698 42.0502 36.8462 42.4538Z" fill="#282928"/>
</svg>
