<svg width="60" height="60" viewBox="0 0 60 60" fill="none" xmlns="http://www.w3.org/2000/svg">
<path d="M11.6625 24.5642C11.55 24.0579 11.8875 23.5517 12.375 23.4392C12.8812 23.3454 13.3875 23.6642 13.5 24.1704C13.6125 24.6767 13.275 25.1642 12.7687 25.2767C12.7125 25.2954 12.6563 25.2954 12.5813 25.2954C12.15 25.2954 11.7562 24.9954 11.6625 24.5642ZM47.2313 25.2392C46.725 25.1454 46.4062 24.6392 46.5187 24.1329C46.6125 23.6267 47.1187 23.3079 47.625 23.4017C48.1312 23.5142 48.45 24.0204 48.3375 24.5267C48.2438 24.9579 47.8688 25.2579 47.4188 25.2579C47.3625 25.2579 47.3063 25.2579 47.2313 25.2392ZM11.25 20.6642C11.25 20.1392 11.6625 19.7267 12.1875 19.7267C12.7125 19.7267 13.125 20.1392 13.125 20.6642C13.125 21.1704 12.7125 21.6017 12.1875 21.6017C11.6812 21.6017 11.25 21.1892 11.25 20.6642ZM46.875 20.6267C46.875 20.6079 46.875 20.5892 46.875 20.5517C46.875 20.0454 47.2875 19.6142 47.8125 19.6142C48.3188 19.6142 48.75 20.0267 48.75 20.5517V20.5892V20.6267C48.75 21.1517 48.3375 21.5642 47.8125 21.5642C47.2875 21.5642 46.875 21.1517 46.875 20.6267ZM12.375 17.8704C11.8687 17.7767 11.55 17.2704 11.6438 16.7642C11.7563 16.2579 12.2438 15.9392 12.75 16.0517C13.2563 16.1454 13.5938 16.6517 13.4813 17.1579C13.3875 17.5892 12.9937 17.8892 12.5625 17.8892C12.5062 17.8892 12.4312 17.8892 12.375 17.8704ZM46.5 17.0454C46.3875 16.5392 46.7063 16.0517 47.2125 15.9392C47.7188 15.8267 48.225 16.1454 48.3375 16.6517C48.4313 17.1579 48.1125 17.6642 47.6062 17.7767C47.55 17.7767 47.475 17.7954 47.4188 17.7954C46.9688 17.7954 46.5937 17.4954 46.5 17.0454ZM13.3313 14.2704C12.8625 14.0642 12.6375 13.5017 12.8437 13.0329C13.0687 12.5642 13.6125 12.3579 14.0813 12.5642C14.55 12.7704 14.775 13.3142 14.5687 13.8017C14.4 14.1392 14.0625 14.3642 13.7062 14.3642C13.575 14.3642 13.4438 14.3267 13.3313 14.2704ZM45.3937 13.7079C45.1875 13.2392 45.3937 12.6767 45.8625 12.4704C46.3312 12.2454 46.8938 12.4517 47.1 12.9392C47.325 13.4079 47.1 13.9517 46.6313 14.1767C46.5 14.2329 46.3688 14.2517 46.2563 14.2517C45.9 14.2517 45.5437 14.0454 45.3937 13.7079ZM15.0188 10.9517C14.5875 10.6517 14.4938 10.0517 14.8125 9.63918C15.1125 9.22668 15.6938 9.13293 16.1063 9.43293C16.5375 9.73293 16.6312 10.3142 16.3125 10.7454C16.1437 10.9892 15.8438 11.1204 15.5625 11.1204C15.375 11.1204 15.1875 11.0642 15.0188 10.9517ZM43.6125 10.6517C43.3125 10.2392 43.4063 9.65793 43.8188 9.33918C44.2313 9.03918 44.8312 9.13293 45.1312 9.54543C45.4312 9.95793 45.3375 10.5579 44.925 10.8579C44.7562 10.9892 44.5688 11.0454 44.3813 11.0454C44.0813 11.0454 43.8 10.9142 43.6125 10.6517ZM17.3438 8.04543C17.0062 7.67043 17.025 7.07043 17.4187 6.73293C17.7937 6.37668 18.3938 6.41418 18.75 6.78918C19.0875 7.16418 19.0688 7.76418 18.675 8.12043C18.4875 8.27043 18.2625 8.36418 18.0375 8.36418C17.7937 8.36418 17.5313 8.25168 17.3438 8.04543ZM41.25 8.04543C40.8563 7.70793 40.8187 7.10793 41.175 6.71418C41.5125 6.33918 42.1125 6.30168 42.5063 6.65793C42.8813 6.99543 42.9188 7.57668 42.5625 7.97043C42.3938 8.17668 42.1312 8.28918 41.8687 8.28918C41.6437 8.28918 41.4188 8.21418 41.25 8.04543ZM20.2312 5.70168C19.9875 5.25168 20.1375 4.67043 20.5875 4.40793C21.0187 4.14543 21.6 4.29543 21.8625 4.74543C22.125 5.19543 21.975 5.77668 21.525 6.03918C21.375 6.11418 21.2062 6.15168 21.0562 6.15168C20.7187 6.15168 20.4187 6.00168 20.2312 5.70168ZM38.3812 5.98293C37.9312 5.72043 37.7813 5.15793 38.0438 4.70793C38.3063 4.25793 38.8687 4.08918 39.3187 4.35168C39.7687 4.61418 39.9187 5.17668 39.675 5.62668C39.4875 5.94543 39.1687 6.09543 38.85 6.09543C38.7 6.09543 38.5312 6.05793 38.3812 5.98293ZM23.55 3.99543C23.4 3.48918 23.6625 2.96418 24.15 2.81418C24.6375 2.64543 25.1813 2.90793 25.3313 3.39543C25.5 3.90168 25.2375 4.42668 24.7312 4.59543C24.6375 4.61418 24.5437 4.63293 24.45 4.63293C24.0562 4.63293 23.6813 4.38918 23.55 3.99543ZM35.1562 4.55793C34.6688 4.38918 34.4063 3.86418 34.5563 3.37668C34.7063 2.88918 35.25 2.60793 35.7375 2.77668C36.225 2.92668 36.5062 3.45168 36.3375 3.95793C36.2062 4.35168 35.85 4.59543 35.4562 4.59543C35.3625 4.59543 35.25 4.57668 35.1562 4.55793ZM27.15 3.02043C27.0937 2.49543 27.4688 2.04543 27.975 1.98918C28.5 1.93293 28.9688 2.30793 29.0063 2.81418C29.0813 3.33918 28.7062 3.78918 28.1812 3.84543C28.1437 3.84543 28.125 3.84543 28.0875 3.84543C27.6 3.84543 27.2062 3.48918 27.15 3.02043ZM31.7062 3.82668C31.2 3.78918 30.825 3.32043 30.8812 2.81418C30.9187 2.28918 31.3875 1.91418 31.8938 1.97043C32.4188 2.02668 32.7937 2.47668 32.7375 3.00168C32.7 3.48918 32.2875 3.84543 31.8 3.84543C31.7812 3.84543 31.7437 3.84543 31.7062 3.82668Z" fill="#282928"/>
<path d="M27.1874 45.0002C26.6699 45.0002 26.2499 44.5802 26.2499 44.0627V43.1946C26.2499 39.2439 23.5217 35.7996 19.6142 34.8171C19.1117 34.6914 18.808 34.1814 18.9336 33.6789C19.0592 33.1764 19.5674 32.8689 20.0717 32.9983C24.8136 34.1908 28.1249 38.3833 28.1249 43.1946V44.0627C28.1249 44.5802 27.7049 45.0002 27.1874 45.0002Z" fill="#282928"/>
<path d="M16.4288 38.2825C16.1888 38.2825 15.9488 38.1907 15.765 38.0088L7.53937 29.7963C7.36312 29.62 7.26562 29.3819 7.26562 29.1325C7.26562 28.885 7.365 28.645 7.53937 28.4688C10.1194 25.8888 13.2975 26.1082 16.2563 29.0688L20.4825 33.2875C20.85 33.6532 20.85 34.2475 20.4844 34.6132C20.1188 34.9807 19.5244 34.9788 19.1588 34.615L14.9306 30.3963C13.0069 28.4707 11.2106 28.0657 9.58313 29.1888L17.0869 36.6813C17.4525 37.0469 17.4525 37.6413 17.0869 38.0088C16.9088 38.1907 16.6688 38.2825 16.4288 38.2825Z" fill="#282928"/>
<path d="M11.25 47.9681V52.5H13.125V48.75H26.25V52.5H28.125V47.9681C28.125 47.4506 27.6656 46.875 27.1481 46.875H12.1481C11.6269 46.875 11.25 47.4525 11.25 47.9681Z" fill="#282928"/>
<path d="M9.375 57.1875C9.375 57.7031 9.795 58.125 10.3125 58.125C10.83 58.125 11.25 57.7031 11.25 57.1875V52.5H26.25V57.1856C26.25 57.7031 26.67 58.1231 27.1875 58.1231C27.705 58.125 28.125 57.7031 28.125 57.1856V51.7181C28.125 51.2006 27.6656 50.625 27.1481 50.625H10.2731C9.75375 50.625 9.375 51.2006 9.375 51.7181V57.1875Z" fill="#282928"/>
<path d="M32.8125 45.0029C32.295 45.0029 31.875 44.5829 31.875 44.0654V43.1972C31.875 38.386 35.1862 34.1935 39.9281 33.001C40.4306 32.8754 40.9406 33.1791 41.0663 33.6816C41.1919 34.1841 40.8881 34.6941 40.3856 34.8197C36.4781 35.8022 33.75 39.2466 33.75 43.1972V44.0654C33.75 44.5829 33.33 45.0029 32.8125 45.0029Z" fill="#282928"/>
<path d="M43.5712 38.2857C43.3312 38.2857 43.0912 38.1938 42.9074 38.0119C42.5418 37.6444 42.5418 37.0519 42.9074 36.6844L50.4112 29.1919C48.7818 28.0688 46.9893 28.4738 45.0655 30.3994L40.8374 34.6182C40.4718 34.9819 39.8774 34.9838 39.5118 34.6163C39.1462 34.2507 39.1462 33.6563 39.5137 33.2907L43.7418 29.0719C46.7043 26.1113 49.8805 25.8938 52.4587 28.4719C52.6349 28.6482 52.7324 28.8863 52.7324 29.1357C52.7324 29.3851 52.633 29.6232 52.4587 29.7994L44.233 38.0119C44.0512 38.1938 43.8112 38.2857 43.5712 38.2857Z" fill="#282928"/>
<path d="M16.875 45.8688C16.875 45.5801 16.7419 45.3082 16.5169 45.1301L9.84188 39.8988C9.2625 39.4376 8.41313 38.442 8.13938 37.7876L3.75 27.5839L3.72375 18.882C3.82312 18.7057 4.44375 18.3176 5.15062 18.4207C6.23062 18.5651 6.73875 19.722 6.975 20.6632C7.32188 22.0545 7.4025 23.2807 7.47938 24.4395C7.51313 24.9551 7.95188 25.3114 8.47313 25.2739C8.99063 25.2401 9.37875 24.7545 9.345 24.2389C9.26813 23.0782 9.18187 21.7657 8.79562 20.2114C8.04562 17.2189 6.07875 16.3582 4.47375 16.5589C3.19687 16.7164 1.875 17.5751 1.875 18.7414V27.777C1.875 27.9045 1.90125 28.0301 1.95188 28.1482L6.41438 38.5226C6.82688 39.5051 7.88813 40.7407 8.67938 41.3707L15 46.3245V48.7526H16.875V45.8688Z" fill="#282928"/>
<path d="M43.125 45.8674C43.125 45.5787 43.2581 45.3068 43.4831 45.1287L50.1581 39.8974C50.7375 39.4362 51.5869 38.4406 51.8606 37.7862L56.25 27.5824L56.2762 18.8806C56.1769 18.7043 55.5544 18.3162 54.8475 18.4193C53.7675 18.5637 53.2594 19.7187 53.0231 20.6618C52.6762 22.0531 52.5956 23.2793 52.5188 24.4381C52.485 24.9537 52.0462 25.3099 51.525 25.2724C51.0075 25.2387 50.6194 24.7531 50.6531 24.2374C50.73 23.0768 50.8163 21.7643 51.2025 20.2099C51.9506 17.2174 53.9175 16.3568 55.5225 16.5593C56.8031 16.7149 58.125 17.5737 58.125 18.7399V27.7756C58.125 27.9031 58.0987 28.0287 58.0481 28.1468L53.5856 38.5212C53.1731 39.5037 52.1119 40.7393 51.3206 41.3693L45 46.3231V48.7512H43.125V45.8674Z" fill="#282928"/>
<path d="M48.75 47.972V52.5039H46.875V48.7539H33.75V52.5039H31.875V47.972C31.875 47.4545 32.3344 46.8789 32.8519 46.8789H47.8519C48.3731 46.8789 48.75 47.4564 48.75 47.972Z" fill="#282928"/>
<path d="M50.625 57.1914C50.625 57.707 50.205 58.1289 49.6875 58.1289C49.17 58.1289 48.75 57.707 48.75 57.1914V52.5039H33.75V57.1895C33.75 57.707 33.33 58.127 32.8125 58.127C32.295 58.1289 31.875 57.707 31.875 57.1895V51.722C31.875 51.2045 32.3344 50.6289 32.8519 50.6289H49.7269C50.2462 50.6289 50.625 51.2045 50.625 51.722V57.1914Z" fill="#282928"/>
<path d="M27.1876 33.7521C27.0713 33.7521 26.9532 33.7315 26.8407 33.6883C26.4188 33.5196 26.1769 33.0771 26.2669 32.6327L27.9188 24.3771H23.4376C23.0963 24.3771 22.7832 24.1915 22.6163 23.8952C22.4513 23.5971 22.4607 23.2315 22.6426 22.9427L32.0176 7.94271C32.2576 7.55833 32.7413 7.40458 33.1576 7.56958C33.5794 7.73646 33.8194 8.17896 33.7313 8.62521L31.8563 18.0002C31.7551 18.5083 31.2676 18.8421 30.7538 18.7352C30.2457 18.634 29.9176 18.1427 30.0169 17.6327L30.8851 13.2921L25.1288 22.5021H29.0626C29.3419 22.5021 29.6082 22.6277 29.7882 22.8471C29.9663 23.0627 30.0376 23.3515 29.9832 23.6252L29.1151 27.964L35.7694 17.3177C36.0432 16.879 36.6226 16.744 37.0594 17.0215C37.4982 17.2952 37.6332 17.8727 37.3576 18.3115L27.9826 33.3115C27.8082 33.5946 27.5026 33.7521 27.1876 33.7521Z" fill="#282928"/>
</svg>
