<svg width="60" height="60" viewBox="0 0 60 60" fill="none" xmlns="http://www.w3.org/2000/svg">
<g clip-path="url(#clip0_3744_1049)">
<path d="M23.4593 4.38672H14.2832C13.7977 4.38672 13.4043 4.78023 13.4043 5.26562C13.4043 5.75102 13.7977 6.14453 14.2832 6.14453H23.4593C23.9448 6.14453 24.3382 5.75102 24.3382 5.26562C24.3382 4.78023 23.9448 4.38672 23.4593 4.38672Z" fill="#282928"/>
<path d="M7.08057 6.14453H9.7549C10.2404 6.14453 10.6338 5.75102 10.6338 5.26562C10.6338 4.78023 10.2404 4.38672 9.7549 4.38672H7.08057C6.59506 4.38672 6.20166 4.78023 6.20166 5.26562C6.20166 5.75102 6.59518 6.14453 7.08057 6.14453Z" fill="#282928"/>
<path d="M7.08057 10.3594H16.2566C16.7421 10.3594 17.1355 9.96586 17.1355 9.48047C17.1355 8.99508 16.7421 8.60156 16.2566 8.60156H7.08057C6.59506 8.60156 6.20166 8.99508 6.20166 9.48047C6.20166 9.96586 6.59518 10.3594 7.08057 10.3594Z" fill="#282928"/>
<path d="M23.4596 8.60156H20.7852C20.2996 8.60156 19.9062 8.99508 19.9062 9.48047C19.9062 9.96586 20.2996 10.3594 20.7852 10.3594H23.4596C23.9451 10.3594 24.3385 9.96586 24.3385 9.48047C24.3385 8.99508 23.9451 8.60156 23.4596 8.60156Z" fill="#282928"/>
<path d="M54.4062 19.0848C52.4075 19.0848 50.7333 20.4993 50.3288 22.3804H45.5276C45.4794 21.8925 45.3918 21.4045 45.262 20.9205C44.9235 19.6543 44.3265 18.5026 43.5187 17.5198L49.555 11.4776C50.6641 12.5677 52.1281 13.1682 53.6853 13.1682C55.2626 13.1682 56.7449 12.553 57.858 11.437C58.9737 10.3221 59.5883 8.83875 59.5883 7.26035C59.5883 5.68195 58.9737 4.19871 57.8585 3.08426C56.7444 1.9691 55.2624 1.35504 53.6853 1.35504C52.1082 1.35504 50.6262 1.96922 49.5121 3.08426C48.3966 4.19918 47.7823 5.6823 47.7823 7.26035C47.7823 8.25492 48.0268 9.21152 48.4863 10.062C48.4805 10.0673 48.4744 10.072 48.4689 10.0777L42.2744 16.2782C41.8942 15.9668 41.4876 15.6825 41.0535 15.432C38.9661 14.2268 36.5351 13.9073 34.209 14.5321C32.9242 14.8759 31.7788 15.4825 30.814 16.2782L28.0304 13.4919C28.3339 13.0268 28.5112 12.4719 28.5112 11.876V2.96391C28.5111 1.32961 27.1824 0 25.5492 0H5.60232C3.9692 0 2.64041 1.32961 2.64041 2.96391V11.8761C2.64041 13.5104 3.9692 14.84 5.60232 14.84H12.5292C13.0147 14.84 13.4081 14.4465 13.4081 13.9611C13.4081 13.4757 13.0147 13.0822 12.5292 13.0822H5.60232C4.93834 13.0822 4.39822 12.5412 4.39822 11.8761V2.96391C4.39822 2.29887 4.93834 1.75781 5.60232 1.75781H25.5492C26.2131 1.75781 26.7533 2.29887 26.7533 2.96391V11.8761C26.7533 12.5412 26.2131 13.0822 25.5492 13.0822H16.589C16.1035 13.0822 15.7101 13.4757 15.7101 13.9611C15.7101 14.4465 16.1035 14.84 16.589 14.84H25.5492C25.9462 14.84 26.3248 14.7609 26.6711 14.6186L29.5743 17.5246C27.9283 19.5352 27.1649 22.2273 27.6744 24.9291L17.1424 31.0181C17.1415 31.0186 17.141 31.0192 17.1401 31.0195C15.9003 29.5261 14.2358 28.4517 12.3228 27.939C9.88119 27.2845 7.33095 27.6211 5.14248 28.8865C0.623142 31.4998 -0.930998 37.3042 1.67795 41.8248C2.94053 44.0177 4.98099 45.5859 7.42342 46.241C8.23869 46.4597 9.0658 46.5679 9.88775 46.5679C11.5284 46.5679 13.148 46.1367 14.607 45.2932C19.0881 42.7051 20.6521 36.9798 18.1365 32.4741L28.1825 26.666C29.1235 28.9898 30.9701 30.803 33.3281 31.6992V39.7936V40.2592C33.3281 40.7023 33.3036 41.027 33.2719 41.2615C31.4835 38.6718 29.8368 36.758 26.672 37.3086C25.6345 37.4919 24.8491 38.0904 24.5176 38.9508C24.1795 39.828 24.3735 40.8356 25.0499 41.7196L32.437 52.5654C33.8505 54.6445 34.089 55.9111 34.089 57.9639C34.089 59.0866 35.0034 60 36.1273 60H49.9744C51.0985 60 52.0129 59.0866 52.0129 57.9639V54.3791C52.0129 53.0755 52.2849 52.5456 52.6614 51.8123C53.0626 51.0311 53.5619 50.0588 53.7753 48.0749C53.7786 48.0436 53.7803 48.0123 53.7803 47.9809V44.9713C53.7803 44.4859 53.3869 44.0924 52.9014 44.0924C52.4159 44.0924 52.0225 44.4859 52.0225 44.9713V47.933C51.8419 49.5599 51.4635 50.2968 51.0977 51.0094C50.6834 51.8162 50.2551 52.6505 50.2551 54.379V57.9637C50.2551 58.1147 50.1265 58.2421 49.9744 58.2421H36.1272C35.9751 58.2421 35.8467 58.1146 35.8467 57.9637C35.8467 55.6362 35.5441 54.0093 33.8902 51.5763L26.4883 40.7087C26.478 40.6937 26.4672 40.6788 26.4561 40.6644C26.1523 40.2732 26.0436 39.879 26.1577 39.5828C26.2625 39.3111 26.5613 39.1131 26.9756 39.0398C29.0047 38.6865 30.0912 39.7352 31.9078 42.3796C31.9201 42.3976 31.9333 42.4152 31.9469 42.4323C32.6099 43.2578 33.2735 43.5612 33.9187 43.3342C34.726 43.0501 35.0859 42.1017 35.0859 40.2591V39.7935V23.4655C35.0859 22.288 35.8714 21.8702 36.544 21.8702C37.2168 21.8702 38.0023 22.288 38.0023 23.4655V38.623C38.0023 39.1084 38.3957 39.5019 38.8812 39.5019C39.3667 39.5019 39.7601 39.1084 39.7601 38.623V31.5896C39.7601 30.4121 40.5458 29.9944 41.2184 29.9944C41.3805 29.9944 41.549 30.0193 41.7115 30.0727C41.7379 30.0839 41.7646 30.0939 41.7917 30.1024C42.2701 30.2906 42.6767 30.743 42.6767 31.5896V39.7969C42.6767 40.2823 43.0701 40.6758 43.5556 40.6758C44.0411 40.6758 44.4345 40.2823 44.4345 39.7969V33.5816C44.4345 32.4041 45.22 31.9863 45.8928 31.9863C46.5654 31.9863 47.351 32.4041 47.351 33.5816V40.9707C47.351 41.4561 47.7444 41.8496 48.2299 41.8496C48.7154 41.8496 49.1088 41.4561 49.1088 40.9707V35.5736C49.1088 34.3951 49.893 33.977 50.5646 33.977C50.946 33.977 51.3119 34.1155 51.5682 34.3569C51.8694 34.6405 52.022 35.0498 52.022 35.5734V40.9107C52.022 41.3961 52.4154 41.7896 52.901 41.7896C53.3865 41.7896 53.7799 41.3961 53.7799 40.9107V35.5734C53.7799 33.3712 52.1623 32.2191 50.5645 32.2191C50.0214 32.2191 49.4764 32.3527 48.9931 32.615C48.5963 31.0444 47.2376 30.2284 45.8926 30.2284C45.3488 30.2284 44.8029 30.362 44.3191 30.6246C44.1591 29.9904 43.8425 29.4792 43.4331 29.0951C44.6323 27.6782 45.3536 25.9474 45.5294 24.1382H50.3286C50.7333 26.0174 52.4074 27.4304 54.4059 27.4304C56.704 27.4304 58.5738 25.5593 58.5738 23.2593C58.5741 20.9575 56.7044 19.0848 54.4062 19.0848ZM50.7551 4.32727C50.7553 4.32715 50.7555 4.32691 50.7556 4.3268C51.5376 3.5441 52.5781 3.11297 53.6853 3.11297C54.7925 3.11297 55.833 3.5441 56.6154 4.32727C57.399 5.1102 57.8304 6.15188 57.8304 7.26047C57.8304 8.36906 57.3988 9.41086 56.6144 10.1947C55.8325 10.9787 54.7922 11.4105 53.6853 11.4105C52.5783 11.4105 51.5381 10.9788 50.7551 10.1938C49.9716 9.41086 49.5401 8.36918 49.5401 7.26059C49.5401 6.15199 49.9716 5.11008 50.7551 4.32727ZM13.7276 43.7712C13.7274 43.7713 13.7273 43.7713 13.7272 43.7714C11.944 44.8025 9.86689 45.0765 7.87881 44.5432C5.89037 44.01 4.22924 42.7331 3.2008 40.9471C1.0756 37.2645 2.34135 32.5368 6.02232 30.4083C7.20955 29.7219 8.52721 29.3712 9.86267 29.3712C10.5313 29.3712 11.2046 29.4592 11.8679 29.637C13.8574 30.1702 15.5197 31.447 16.5487 33.2326C18.6753 36.9176 17.4097 41.645 13.7276 43.7712ZM43.8136 23.2731C43.8122 25.1221 43.1042 26.9184 41.7979 28.2875C41.6064 28.2538 41.4124 28.2366 41.2185 28.2366C40.7176 28.2366 40.2146 28.3499 39.7603 28.573V23.4655C39.7603 21.2641 38.1424 20.1124 36.5442 20.1124C34.946 20.1124 33.3282 21.2641 33.3282 23.4655V29.7848C31.461 28.8684 30.0739 27.199 29.5212 25.1406C28.4849 21.2637 30.7918 17.2665 34.6644 16.23C36.5371 15.727 38.4943 15.984 40.1747 16.9545C41.8581 17.9263 43.0618 19.496 43.5642 21.3754C43.7297 21.9925 43.8118 22.6179 43.8142 23.2378C43.8141 23.245 43.8132 23.252 43.8132 23.2593C43.8131 23.2639 43.8136 23.2684 43.8136 23.2731ZM54.4062 25.6726C53.0754 25.6726 51.9928 24.59 51.9928 23.2593C51.9928 21.9267 53.0753 20.8426 54.4062 20.8426C55.7353 20.8426 56.8163 21.9267 56.8163 23.2593C56.8163 24.5899 55.7353 25.6726 54.4062 25.6726Z" fill="#282928"/>
<path d="M11.0268 32.7865C9.87895 32.4786 8.67907 32.6365 7.64723 33.232C5.5225 34.4608 4.79278 37.1907 6.02043 39.3173C6.61504 40.3475 7.57481 41.0842 8.72278 41.3917C9.10586 41.4942 9.49446 41.5451 9.88082 41.5451C10.6525 41.5451 11.4146 41.3424 12.1014 40.946C12.1015 40.9459 12.1018 40.9458 12.102 40.9456C14.2259 39.7174 14.9557 36.9889 13.7293 34.8643C13.1347 33.8325 12.175 33.0947 11.0268 32.7865ZM11.2219 39.424C10.5981 39.784 9.87204 39.8799 9.1777 39.6937C8.48325 39.5078 7.9027 39.0619 7.54282 38.4385C6.79938 37.1506 7.24106 35.4976 8.52672 34.754C8.94262 34.5139 9.40364 34.3914 9.87051 34.3914C10.1043 34.3914 10.3396 34.4221 10.5712 34.4843C11.2655 34.6706 11.8462 35.1172 12.2064 35.7425C12.949 37.029 12.5075 38.6805 11.2219 39.424Z" fill="#282928"/>
</g>
<defs>
<clipPath id="clip0_3744_1049">
<rect width="60" height="60" fill="white"/>
</clipPath>
</defs>
</svg>
