<svg width="60" height="60" viewBox="0 0 60 60" fill="none" xmlns="http://www.w3.org/2000/svg">
<path d="M47.4 24.2C53.7966 24.2 59 18.9966 59 12.6C59 6.20339 53.7966 1 47.4 1C42.755 1 38.75 3.75037 36.8993 7.70295L33.793 6.55645C33.8298 6.31855 33.8667 6.08066 33.8667 5.83333C33.8667 3.16839 31.6983 1 29.0333 1C26.3684 1 24.2 3.16839 24.2 5.83333C24.2 8.49827 26.3684 10.6667 29.0333 10.6667C30.7646 10.6667 32.2746 9.74342 33.128 8.37178L36.2291 9.51639C35.9567 10.5005 35.8 11.5309 35.8 12.6C35.8 13.8664 36.0105 15.0823 36.3876 16.2241L25.7562 20.7298C23.8097 17.0496 19.9458 14.5333 15.5 14.5333C14.0594 14.5333 12.685 14.8099 11.411 15.2914L8.73711 9.67215C9.90202 8.78856 10.6667 7.40417 10.6667 5.83333C10.6667 3.16839 8.49827 1 5.83333 1C3.16839 1 1 3.16839 1 5.83333C1 8.49827 3.16839 10.6667 5.83333 10.6667C6.23548 10.6667 6.62111 10.6029 6.99541 10.509L9.66602 16.1226C6.22368 18.1371 3.9 21.8645 3.9 26.1333C3.9 30.143 5.94567 33.6821 9.04674 35.766L7.27861 38.9445C6.81841 38.7996 6.33979 38.7 5.83333 38.7C3.16839 38.7 1 40.8684 1 43.5333C1 46.1983 3.16839 48.3667 5.83333 48.3667C8.49827 48.3667 10.6667 46.1983 10.6667 43.5333C10.6667 42.0696 9.99878 40.7716 8.96839 39.8852L10.7403 36.7001C12.1941 37.3581 13.8027 37.7333 15.5 37.7333C18.1527 37.7333 20.5925 36.8285 22.5489 35.3242L26.3538 39.51C24.4242 41.5825 23.2333 44.3513 23.2333 47.4C23.2333 47.9914 23.2923 48.5677 23.3773 49.1351L18.9008 50.1976C18.1305 48.5503 16.4686 47.4 14.5333 47.4C11.8684 47.4 9.7 49.5684 9.7 52.2333C9.7 54.8983 11.8684 57.0667 14.5333 57.0667C17.1983 57.0667 19.3667 54.8983 19.3667 52.2333C19.3667 52.18 19.352 52.13 19.3511 52.0766L23.8191 51.0174C25.3427 55.6464 29.7003 59 34.8333 59C41.2299 59 46.4333 53.7966 46.4333 47.4C46.4333 45.4166 45.9316 43.5489 45.0499 41.9153L50.7281 38.2233C51.606 39.1125 52.8219 39.6667 54.1667 39.6667C56.8316 39.6667 59 37.4983 59 34.8333C59 32.1684 56.8316 30 54.1667 30C51.5017 30 49.3333 32.1684 49.3333 34.8333C49.3333 35.4578 49.4617 36.0511 49.6784 36.5996L43.9869 40.2996C42.848 38.8355 41.3692 37.6531 39.6667 36.8681L44.3848 23.7884C45.3477 24.048 46.3559 24.2 47.4 24.2ZM29.0333 8.73333C27.4347 8.73333 26.1333 7.43201 26.1333 5.83333C26.1333 4.23465 27.4347 2.93333 29.0333 2.93333C30.632 2.93333 31.9333 4.23465 31.9333 5.83333C31.9333 7.43201 30.632 8.73333 29.0333 8.73333ZM2.93333 5.83333C2.93333 4.23465 4.23465 2.93333 5.83333 2.93333C7.43201 2.93333 8.73333 4.23465 8.73333 5.83333C8.73333 7.43201 7.43201 8.73333 5.83333 8.73333C4.23465 8.73333 2.93333 7.43201 2.93333 5.83333ZM5.83333 46.4333C4.23465 46.4333 2.93333 45.132 2.93333 43.5333C2.93333 41.9347 4.23465 40.6333 5.83333 40.6333C7.43201 40.6333 8.73333 41.9347 8.73333 43.5333C8.73333 45.132 7.43201 46.4333 5.83333 46.4333ZM14.5333 55.1333C12.9347 55.1333 11.6333 53.832 11.6333 52.2333C11.6333 50.6347 12.9347 49.3333 14.5333 49.3333C16.132 49.3333 17.4333 50.6347 17.4333 52.2333C17.4333 53.832 16.132 55.1333 14.5333 55.1333ZM54.1667 31.9333C55.7653 31.9333 57.0667 33.2347 57.0667 34.8333C57.0667 36.432 55.7653 37.7333 54.1667 37.7333C52.568 37.7333 51.2667 36.432 51.2667 34.8333C51.2667 33.2347 52.568 31.9333 54.1667 31.9333ZM41.7071 20.3952C42.1386 18.1593 44.1097 16.4667 46.4333 16.4667H48.3667C50.6903 16.4667 52.6614 18.1593 53.0929 20.3952C51.4937 21.5657 49.5297 22.2667 47.4 22.2667C45.2703 22.2667 43.3063 21.5657 41.7071 20.3952ZM47.4 14.5333C45.8013 14.5333 44.5 13.232 44.5 11.6333C44.5 10.0347 45.8013 8.73333 47.4 8.73333C48.9987 8.73333 50.3 10.0347 50.3 11.6333C50.3 13.232 48.9987 14.5333 47.4 14.5333ZM47.4 2.93333C52.7304 2.93333 57.0667 7.26965 57.0667 12.6C57.0667 15.0167 56.1684 17.2247 54.6963 18.9211C54.0189 17.1374 52.6067 15.7138 50.8471 15.011C51.7028 14.1387 52.2333 12.9479 52.2333 11.6333C52.2333 8.96839 50.0649 6.8 47.4 6.8C44.7351 6.8 42.5667 8.96839 42.5667 11.6333C42.5667 12.9479 43.0972 14.1387 43.9529 15.011C42.1933 15.7138 40.7811 17.1374 40.1037 18.9211C38.6316 17.2247 37.7333 15.0167 37.7333 12.6C37.7333 7.26965 42.0696 2.93333 47.4 2.93333ZM5.83333 26.1333C5.83333 20.803 10.1696 16.4667 15.5 16.4667C20.8304 16.4667 25.1667 20.803 25.1667 26.1333C25.1667 28.5576 24.2628 30.7713 22.783 32.47C22.1081 30.6797 20.693 29.249 18.9286 28.5443C19.7834 27.6721 20.314 26.4812 20.314 25.1667C20.314 22.5017 18.1456 20.3333 15.4806 20.3333C12.8157 20.3333 10.6473 22.5017 10.6473 25.1667C10.6473 26.4812 11.1778 27.6721 12.0336 28.5443C10.2792 29.2438 8.8688 30.6622 8.18911 32.4389C6.72542 30.7444 5.83333 28.5434 5.83333 26.1333ZM12.5806 25.1667C12.5806 23.568 13.882 22.2667 15.4806 22.2667C17.0793 22.2667 18.3806 23.568 18.3806 25.1667C18.3806 26.7653 17.0793 28.0667 15.4806 28.0667C13.882 28.0667 12.5806 26.7653 12.5806 25.1667ZM9.7911 33.9158C10.2268 31.686 12.195 30 14.514 30H16.4473C18.7752 30 20.7501 31.6983 21.1754 33.9412C19.5795 35.1047 17.6217 35.8 15.5 35.8C13.3628 35.8 11.3926 35.0944 9.7911 33.9158ZM29.1244 55.1824C29.5601 52.9527 31.5284 51.2667 33.8473 51.2667H35.7806C38.1086 51.2667 40.0834 52.9649 40.5087 55.2079C38.9129 56.3714 36.955 57.0667 34.8333 57.0667C32.6961 57.0667 30.7259 56.361 29.1244 55.1824ZM34.814 49.3333C33.2153 49.3333 31.914 48.032 31.914 46.4333C31.914 44.8347 33.2153 43.5333 34.814 43.5333C36.4127 43.5333 37.714 44.8347 37.714 46.4333C37.714 48.032 36.4127 49.3333 34.814 49.3333ZM44.5 47.4C44.5 49.8242 43.5961 52.0379 42.1164 53.7367C41.4414 51.9464 40.0263 50.5157 38.262 49.811C39.1168 48.9387 39.6473 47.7479 39.6473 46.4333C39.6473 43.7684 37.4789 41.6 34.814 41.6C32.149 41.6 29.9806 43.7684 29.9806 46.4333C29.9806 47.7479 30.5112 48.9387 31.3669 49.811C29.6125 50.5105 28.2021 51.9289 27.5224 53.7055C26.0588 52.011 25.1667 49.8101 25.1667 47.4C25.1667 42.0696 29.503 37.7333 34.8333 37.7333C40.1637 37.7333 44.5 42.0696 44.5 47.4ZM37.8485 36.2116C36.8856 35.952 35.8774 35.8 34.8333 35.8C32.1807 35.8 29.7409 36.7048 27.7844 38.2091L23.9796 34.0234C25.9091 31.9508 27.1 29.182 27.1 26.1333C27.1 24.8669 26.8895 23.6511 26.5124 22.5093L37.1438 18.0035C38.3347 20.255 40.2458 22.0618 42.5676 23.1319L37.8485 36.2116Z" fill="#282928"/>
</svg>
