<svg width="60" height="60" viewBox="0 0 60 60" fill="none" xmlns="http://www.w3.org/2000/svg">
<g clip-path="url(#clip0_3754_645)">
<path d="M30 16.875C31.6688 16.875 33.3001 16.3802 34.6876 15.453C36.0752 14.5259 37.1566 13.2081 37.7952 11.6664C38.4338 10.1246 38.6009 8.42814 38.2754 6.79143C37.9498 5.15471 37.1462 3.6513 35.9662 2.47129C34.7862 1.29128 33.2828 0.487691 31.6461 0.162128C30.0094 -0.163435 28.3129 0.00365585 26.7711 0.64227C25.2294 1.28088 23.9116 2.36234 22.9845 3.74988C22.0574 5.13742 21.5625 6.76872 21.5625 8.4375C21.565 10.6745 22.4547 12.8192 24.0365 14.401C25.6183 15.9828 27.763 16.8725 30 16.875ZM30 1.875C31.2979 1.875 32.5667 2.25989 33.6459 2.98098C34.7251 3.70208 35.5663 4.727 36.063 5.92614C36.5597 7.12528 36.6896 8.44478 36.4364 9.71778C36.1832 10.9908 35.5582 12.1601 34.6404 13.0779C33.7226 13.9957 32.5533 14.6207 31.2803 14.8739C30.0073 15.1271 28.6878 14.9972 27.4886 14.5005C26.2895 14.0038 25.2646 13.1626 24.5435 12.0834C23.8224 11.0042 23.4375 9.73544 23.4375 8.4375C23.4395 6.69763 24.1315 5.02959 25.3618 3.79931C26.5921 2.56903 28.2601 1.87699 30 1.875Z" fill="#282928"/>
<path d="M28.2433 11.287C28.4191 11.4627 28.6575 11.5615 28.9061 11.5615C29.1547 11.5615 29.3931 11.4627 29.5689 11.287L33.9443 6.91261C34.0338 6.82613 34.1052 6.72268 34.1544 6.60831C34.2035 6.49393 34.2294 6.37091 34.2304 6.24643C34.2315 6.12195 34.2078 5.9985 34.1607 5.88328C34.1135 5.76807 34.0439 5.66339 33.9559 5.57537C33.8679 5.48734 33.7632 5.41773 33.648 5.37059C33.5328 5.32346 33.4093 5.29973 33.2848 5.30082C33.1603 5.3019 33.0373 5.32776 32.9229 5.37689C32.8086 5.42603 32.7051 5.49745 32.6186 5.58699L28.9061 9.29855L27.3818 7.77418C27.2049 7.6034 26.9681 7.50891 26.7223 7.51104C26.4765 7.51318 26.2414 7.61178 26.0676 7.7856C25.8937 7.95942 25.7951 8.19455 25.793 8.44036C25.7909 8.68617 25.8854 8.92299 26.0561 9.0998L28.2433 11.287Z" fill="#282928"/>
<path d="M56.4037 19.8382C56.3824 19.7169 56.3374 19.6009 56.2712 19.4969C56.2051 19.393 56.1191 19.3031 56.0182 19.2323C55.9173 19.1616 55.8034 19.1115 55.6831 19.0849C55.5628 19.0582 55.4384 19.0555 55.3171 19.077L50.7027 19.8898C50.5813 19.9111 50.4652 19.9561 50.3612 20.0223C50.2571 20.0885 50.1672 20.1746 50.0965 20.2756C50.0258 20.3766 49.9757 20.4906 49.9491 20.611C49.9225 20.7314 49.9199 20.8559 49.9415 20.9773L50.1421 22.1126L47.5171 22.571L36.9374 20.9529C35.3881 20.7195 33.8044 20.9204 32.3624 21.5332L29.9999 22.5401L27.644 21.536C26.1997 20.9206 24.6124 20.7202 23.0605 20.9576L12.4762 22.5748L9.85867 22.1135L10.0584 20.9773C10.0799 20.8559 10.0774 20.7314 10.0508 20.611C10.0242 20.4906 9.97406 20.3766 9.90335 20.2756C9.83264 20.1746 9.74269 20.0885 9.63866 20.0223C9.53463 19.9561 9.41856 19.9111 9.2971 19.8898L4.68742 19.077C4.56601 19.0554 4.44154 19.058 4.32113 19.0846C4.20073 19.1112 4.08675 19.1613 3.98573 19.232C3.88471 19.3027 3.79864 19.3926 3.73243 19.4967C3.66623 19.6007 3.6212 19.7168 3.59992 19.8382L0.0139792 40.1473C-0.0076002 40.2687 -0.00501701 40.3932 0.0215808 40.5136C0.0481787 40.634 0.0982686 40.7479 0.168982 40.849C0.239695 40.95 0.329642 41.0361 0.433672 41.1023C0.537702 41.1685 0.65377 41.2135 0.775229 41.2348L5.39054 42.0476C5.51188 42.069 5.63625 42.0663 5.75655 42.0397C5.87685 42.013 5.99071 41.9629 6.09163 41.8922C6.19254 41.8215 6.27853 41.7316 6.34468 41.6276C6.41082 41.5237 6.45582 41.4077 6.4771 41.2863L6.56242 40.7829L7.33679 40.9198C8.05053 42.4919 9.08891 43.8951 10.3837 45.0373C10.334 45.8838 10.575 46.7218 11.0667 47.4127C11.5584 48.1035 12.2714 48.6057 13.0874 48.836C12.6488 49.5645 12.4724 50.4209 12.5874 51.2634C12.7024 52.1059 13.1019 52.8837 13.7196 53.468C14.3374 54.0523 15.1363 54.4078 15.9838 54.4757C16.8314 54.5436 17.6767 54.3198 18.3796 53.8413C18.4728 54.4639 18.723 55.0524 19.1064 55.5516C19.4899 56.0507 19.9942 56.4441 20.5717 56.6946C21.1491 56.9451 21.7809 57.0444 22.4074 56.9833C23.0339 56.9223 23.6345 56.7027 24.1527 56.3454C24.2404 56.9196 24.4618 57.4651 24.799 57.9381C25.1361 58.4111 25.5796 58.7982 26.0938 59.0684C26.608 59.3386 27.1784 59.4842 27.7592 59.4936C28.34 59.5029 28.9148 59.3758 29.4374 59.1223V59.1279L29.8124 59.3773C30.2231 59.6492 30.6833 59.8375 31.1668 59.9315C31.6503 60.0255 32.1476 60.0234 32.6302 59.9252C33.1129 59.827 33.5714 59.6346 33.9798 59.3592C34.3881 59.0837 34.7381 58.7305 35.0099 58.3198C35.4203 57.6949 35.6303 56.9597 35.6118 56.2123C35.9159 56.2951 36.2294 56.3386 36.5446 56.3417C37.04 56.3432 37.5308 56.2463 37.9885 56.0568C38.4461 55.8672 38.8617 55.5887 39.2109 55.2373C39.5602 54.886 39.8362 54.4688 40.023 54.01C40.2099 53.5512 40.3038 53.0598 40.2993 52.5645C40.5977 52.6429 40.9048 52.6839 41.2134 52.6863C41.7081 52.6864 42.198 52.5885 42.6547 52.3983C43.1115 52.2082 43.5261 51.9295 43.8747 51.5784C44.2232 51.2273 44.4989 50.8107 44.6857 50.3526C44.8726 49.8945 44.9669 49.4039 44.9634 48.9092C45.5349 49.0581 46.1336 49.0687 46.7101 48.9402C47.2865 48.8117 47.8241 48.5477 48.2782 48.1701C48.7323 47.7925 49.0899 47.3121 49.3215 46.7688C49.553 46.2255 49.6518 45.6348 49.6096 45.0457C50.9056 43.9017 51.9441 42.4958 52.6565 40.9207L53.4374 40.7876L53.5255 41.2863C53.5468 41.4078 53.5919 41.5239 53.6581 41.6279C53.7243 41.7319 53.8103 41.8219 53.9114 41.8926C54.0124 41.9633 54.1263 42.0134 54.2468 42.04C54.3672 42.0666 54.4916 42.0692 54.613 42.0476L59.2274 41.2348C59.3489 41.2135 59.4649 41.1685 59.569 41.1023C59.673 41.0361 59.7629 40.95 59.8337 40.849C59.9044 40.7479 59.9545 40.634 59.9811 40.5136C60.0077 40.3932 60.0102 40.2687 59.9887 40.1473L56.4037 19.8382ZM4.79335 40.0395L2.02398 39.5501L5.27898 21.0813L8.04929 21.5698L4.79335 40.0395ZM12.6843 46.436C12.3648 46.0552 12.2096 45.563 12.2528 45.0678C12.2961 44.5726 12.5342 44.1148 12.9149 43.7951L16.5065 40.7829C16.8874 40.4632 17.3797 40.3078 17.8752 40.3511C18.3706 40.3943 18.8286 40.6326 19.1484 41.0135C19.4681 41.3944 19.6234 41.8868 19.5802 42.3822C19.5369 42.8777 19.2986 43.3357 18.9177 43.6554L15.3262 46.6695C15.1374 46.8277 14.9193 46.9471 14.6844 47.021C14.4494 47.0949 14.2022 47.1217 13.9569 47.1C13.7115 47.0784 13.4729 47.0086 13.2545 46.8946C13.0362 46.7807 12.8424 46.6249 12.6843 46.436ZM17.5049 52.182C17.3162 52.3403 17.0982 52.4599 16.8633 52.534C16.6284 52.608 16.3812 52.6351 16.1359 52.6137C15.8905 52.5922 15.6518 52.5226 15.4333 52.4089C15.2148 52.2952 15.0209 52.1395 14.8626 51.9509C14.7042 51.7622 14.5846 51.5442 14.5106 51.3093C14.4365 51.0744 14.4094 50.8272 14.4309 50.5818C14.4523 50.3365 14.5219 50.0977 14.6356 49.8793C14.7494 49.6608 14.905 49.4669 15.0937 49.3085L19.4062 45.6926C19.7891 45.3928 20.2735 45.2536 20.7572 45.3043C21.2409 45.355 21.6859 45.5916 21.9984 45.9642C22.311 46.3368 22.4665 46.8162 22.4322 47.3013C22.3979 47.7864 22.1764 48.2392 21.8146 48.5642L17.5049 52.182ZM23.2752 54.6832C23.0866 54.8415 22.8686 54.961 22.6337 55.035C22.3988 55.1091 22.1517 55.1361 21.9063 55.1146C21.661 55.0931 21.4223 55.0235 21.2039 54.9097C20.9855 54.796 20.7916 54.6403 20.6334 54.4517C20.4751 54.263 20.3555 54.045 20.2815 53.8101C20.2075 53.5752 20.1805 53.3281 20.202 53.0828C20.2235 52.8374 20.2931 52.5988 20.4068 52.3803C20.5206 52.1619 20.6762 51.968 20.8649 51.8098L23.7384 49.3995C24.12 49.0862 24.6098 48.9361 25.1015 48.9818C25.5932 49.0275 26.047 49.2652 26.3643 49.6435C26.6817 50.0217 26.8371 50.5099 26.7967 51.0021C26.7563 51.4942 26.5235 51.9505 26.1487 52.272L23.2752 54.6832ZM29.0446 57.1892C28.6631 57.5043 28.1724 57.6558 27.6796 57.6107C27.1867 57.5656 26.7318 57.3275 26.4138 56.9482C26.0958 56.569 25.9407 56.0795 25.9821 55.5864C26.0236 55.0932 26.2584 54.6365 26.6352 54.3157L29.5077 51.9054C29.6963 51.7471 29.9143 51.6274 30.1491 51.5533C30.384 51.4792 30.6311 51.4521 30.8764 51.4735C31.1218 51.4949 31.3605 51.5644 31.5789 51.6781C31.7974 51.7918 31.9913 51.9474 32.1496 52.136C32.3079 52.3247 32.4275 52.5427 32.5015 52.7776C32.5755 53.0124 32.6026 53.2596 32.5811 53.5049C32.5596 53.7503 32.4899 53.989 32.3762 54.2074C32.2624 54.4258 32.1067 54.6197 31.918 54.7779L29.0446 57.1892ZM33.4443 57.2885C33.1958 57.6673 32.8174 57.9422 32.3804 58.0613C31.9433 58.1805 31.4778 58.1357 31.0715 57.9354L33.1237 56.2142C33.3178 56.0519 33.4949 55.8703 33.6524 55.6723C33.7412 55.9391 33.7685 56.2225 33.7325 56.5014C33.6965 56.7803 33.5979 57.0474 33.4443 57.2829V57.2885ZM47.4496 46.3142C47.3137 46.5195 47.1387 46.6961 46.9345 46.8339C46.7304 46.9716 46.5011 47.0677 46.2598 47.1168C46.0184 47.1659 45.7698 47.167 45.5281 47.12C45.2863 47.073 45.0562 46.9789 44.8509 46.8429L37.0312 41.6707C36.9287 41.5964 36.8122 41.5437 36.6887 41.5156C36.5653 41.4876 36.4374 41.4848 36.3129 41.5075C36.1883 41.5302 36.0697 41.5779 35.9641 41.6477C35.8585 41.7176 35.7681 41.808 35.6984 41.9137C35.6287 42.0194 35.5811 42.1381 35.5586 42.2627C35.536 42.3872 35.5389 42.5151 35.567 42.6385C35.5952 42.7619 35.6481 42.8783 35.7225 42.9808C35.7969 43.0832 35.8913 43.1695 35.9999 43.2345L42.2568 47.3754C42.6713 47.6503 42.9596 48.0785 43.0583 48.566C43.157 49.0534 43.0581 49.5601 42.7832 49.9746C42.5083 50.3891 42.0801 50.6774 41.5926 50.7761C41.1052 50.8749 40.5985 50.7759 40.184 50.501L33.928 46.361C33.8238 46.2912 33.7064 46.2434 33.583 46.2204C33.3701 46.1803 33.1499 46.2151 32.9598 46.319C32.7697 46.4229 32.6215 46.5894 32.5403 46.7903C32.4591 46.9911 32.4499 47.2139 32.5144 47.4207C32.5789 47.6276 32.713 47.8057 32.894 47.9248L37.5815 51.0307C37.9934 51.3065 38.2794 51.7343 38.3768 52.2204C38.4741 52.7065 38.375 53.2114 38.1011 53.6247C37.8272 54.0379 37.4008 54.3258 36.9151 54.4255C36.4295 54.5251 35.9241 54.4283 35.5096 54.1563L34.4409 53.4495C34.4667 52.7616 34.301 52.0801 33.9623 51.4808C33.6236 50.8816 33.1252 50.3881 32.5225 50.0555C31.9199 49.7229 31.2367 49.5641 30.5491 49.597C29.8615 49.6298 29.1966 49.8528 28.6284 50.2413C28.5557 49.7539 28.3862 49.286 28.1298 48.8651C27.8735 48.4441 27.5356 48.0788 27.1359 47.7905C26.7362 47.5022 26.2829 47.2968 25.8026 47.1864C25.3223 47.076 24.8248 47.0628 24.3393 47.1476C24.3557 46.2602 24.0504 45.3969 23.4799 44.7171C22.9093 44.0373 22.112 43.5869 21.2352 43.4492C21.5096 42.6751 21.5215 41.8322 21.269 41.0508C21.0166 40.2693 20.5138 39.5927 19.8384 39.1254C19.1631 38.6582 18.3527 38.4263 17.5324 38.4656C16.7121 38.5049 15.9275 38.8132 15.2999 39.3429L11.7084 42.357C11.4573 42.5732 11.2365 42.8223 11.0521 43.0976C10.1139 42.1303 9.37429 40.9884 8.87523 39.7367C8.81612 39.5878 8.71986 39.4565 8.59562 39.3554C8.47138 39.2543 8.32332 39.1868 8.16554 39.1592L6.8896 38.9342L9.53054 23.9576L12.2999 24.446C12.4007 24.4634 12.5038 24.4634 12.6046 24.446L23.3437 22.811C24.5499 22.626 25.7838 22.7819 26.9062 23.261L27.6037 23.5582L23.8602 25.152C23.0192 25.5116 22.3021 26.1101 21.7977 26.8732L18.2699 32.1917C17.8618 32.8163 17.7169 33.5769 17.8668 34.3079C18.0168 35.0388 18.4494 35.681 19.0705 36.0945C20.1078 36.7779 21.3737 37.0223 22.5909 36.774C23.808 36.5257 24.877 35.8049 25.5637 34.7698L27.1734 32.3454L30.5962 31.6451C30.9651 32.7825 31.5917 33.8193 32.4273 34.6747C33.2628 35.53 34.2846 36.1808 35.413 36.5763C35.813 36.719 36.2232 36.8309 36.6402 36.911L46.9199 43.7173C47.3343 43.9916 47.6229 44.4192 47.7222 44.9061C47.8215 45.393 47.7235 45.8995 47.4496 46.3142ZM51.8324 39.161C51.674 39.1886 51.5253 39.2565 51.4007 39.3581C51.2761 39.4597 51.1797 39.5917 51.1209 39.7413C50.6215 40.9989 49.8793 42.1458 48.9365 43.1163C48.6725 42.7365 48.3395 42.4096 47.9549 42.1526L39.9862 36.881C41.0217 36.6741 42.0081 36.2712 42.8924 35.6942L44.3652 34.7285C44.5731 34.5918 44.7181 34.3781 44.7684 34.1344C44.8187 33.8907 44.7701 33.637 44.6334 33.4292C44.4966 33.2213 44.2829 33.0763 44.0392 33.026C43.7955 32.9757 43.5418 33.0243 43.334 33.161L41.8659 34.1267C41.0167 34.6844 40.0494 35.0366 39.0405 35.1556C38.0316 35.2745 37.0089 35.1569 36.0534 34.812C35.174 34.5056 34.3796 33.9956 33.7349 33.3237C33.0901 32.6518 32.6135 31.837 32.3437 30.9457C32.2855 30.7582 32.2368 30.5585 32.1955 30.3607C32.1448 30.1181 32 29.9054 31.7929 29.7693C31.5857 29.6331 31.3331 29.5845 31.0902 29.6342L26.4205 30.5904C26.1776 30.6401 25.9642 30.784 25.8271 30.9907L24.0093 33.7367C23.5971 34.3573 22.9559 34.7895 22.2259 34.9386C21.4959 35.0878 20.7366 34.9418 20.114 34.5326C19.9062 34.3942 19.7614 34.1795 19.7108 33.9351C19.6603 33.6906 19.7081 33.4361 19.844 33.2267L23.3699 27.9092C23.6723 27.4525 24.1014 27.0941 24.6046 26.8779L33.0993 23.2592C34.2223 22.7824 35.4554 22.6263 36.6618 22.8082L47.3962 24.4488C47.4965 24.4643 47.5986 24.4643 47.699 24.4488L50.474 23.9632L53.1093 38.9398L51.8324 39.161ZM55.2074 40.0376L51.9515 21.5688L54.7218 21.0804L57.9768 39.5492L55.2074 40.0376Z" fill="#282928"/>
</g>
<defs>
<clipPath id="clip0_3754_645">
<rect width="60" height="60" fill="white"/>
</clipPath>
</defs>
</svg>
