<svg width="60" height="60" viewBox="0 0 60 60" fill="none" xmlns="http://www.w3.org/2000/svg">
<path d="M17.7885 55.4219H14.0311C13.5445 55.4219 13.1504 55.8165 13.1504 56.3026C13.1504 56.7892 13.5445 57.1833 14.0311 57.1833H17.7885C18.2746 57.1833 18.6692 56.7892 18.6692 56.3026C18.6692 55.8165 18.2746 55.4219 17.7885 55.4219Z" fill="#282928"/>
<path d="M14.9706 4.57788H16.8492C17.3354 4.57788 17.73 4.18329 17.73 3.69714C17.73 3.21054 17.3354 2.81641 16.8492 2.81641H14.9706C14.484 2.81641 14.0898 3.21054 14.0898 3.69714C14.0898 4.18329 14.484 4.57788 14.9706 4.57788Z" fill="#282928"/>
<path d="M43.1506 13.1506H31.8201V2.7594C31.8201 1.23779 30.5823 0 29.0607 0H2.7594C1.23779 0 0 1.23779 0 2.7594V57.2406C0 58.7622 1.23779 60 2.7594 60H29.0607C30.5823 60 31.8201 58.7622 31.8201 57.2406V41.2134H43.1506C44.6722 41.2134 45.91 39.9756 45.91 38.454V15.91C45.91 14.3884 44.6722 13.1506 43.1506 13.1506ZM2.7594 1.76147H29.0607C29.6109 1.76147 30.0586 2.20917 30.0586 2.7594V5.63599H1.76147V2.7594C1.76147 2.20917 2.20917 1.76147 2.7594 1.76147ZM29.0607 58.2385H2.7594C2.20917 58.2385 1.76147 57.7908 1.76147 57.2406V54.364H30.0586V57.2406C30.0586 57.7908 29.6109 58.2385 29.0607 58.2385ZM44.1486 38.454C44.1486 39.0042 43.7009 39.4519 43.1506 39.4519H20.6067C20.4163 39.4519 20.2309 39.5137 20.0784 39.6281L13.9728 44.2076V22.955C13.9728 22.4689 13.5782 22.0743 13.092 22.0743C12.6054 22.0743 12.2113 22.4689 12.2113 22.955V45.9686C12.2113 46.6786 13.0499 47.1011 13.6203 46.6731L20.9001 41.2134H30.0586V52.6025H1.76147V7.39746H30.0586V13.1506H14.9707C13.4491 13.1506 12.2113 14.3884 12.2113 15.91V18.728C12.2113 19.2142 12.6054 19.6088 13.092 19.6088C13.5782 19.6088 13.9728 19.2142 13.9728 18.728V15.91C13.9728 15.3598 14.4205 14.9121 14.9707 14.9121H43.1506C43.7009 14.9121 44.1486 15.3598 44.1486 15.91V38.454Z" fill="#282928"/>
<path d="M36.5751 32.8774H35.698C35.5767 32.8294 34.6378 32.3451 34.6378 29.0615C34.6378 22.5741 31.1432 21.6055 29.0604 21.6055C26.9776 21.6055 23.483 22.5741 23.483 29.0615C23.483 32.3451 22.5442 32.8294 22.4229 32.8774H21.5458C21.0596 32.8774 20.665 33.272 20.665 33.7582C20.665 34.2443 21.0596 34.6389 21.5458 34.6389H26.3029C26.3024 34.6586 26.301 34.6778 26.301 34.6975C26.301 36.2191 27.5388 37.4569 29.0604 37.4569C30.582 37.4569 31.8198 36.2191 31.8198 34.6975C31.8198 34.6778 31.818 34.6586 31.8175 34.6389H36.5751C37.0612 34.6389 37.4558 34.2443 37.4558 33.7582C37.4558 33.272 37.0612 32.8774 36.5751 32.8774ZM30.0583 34.6975C30.0583 35.2477 29.6107 35.6954 29.0604 35.6954C28.5102 35.6954 28.0625 35.2477 28.0625 34.6975C28.0625 34.6778 28.0648 34.6586 28.0662 34.6389H30.0542C30.0556 34.6586 30.0583 34.6778 30.0583 34.6975ZM24.6096 32.8774C24.9776 32.0521 25.2445 30.8399 25.2445 29.0615C25.2445 23.3669 28.1165 23.3669 29.0604 23.3669C30.0043 23.3669 32.8763 23.3669 32.8763 29.0615C32.8763 30.8399 33.1432 32.0521 33.5113 32.8774H24.6096Z" fill="#282928"/>
<path d="M34.6967 21.6055C34.2105 21.6055 33.8159 22.0001 33.8159 22.4862C33.8159 22.9724 34.2105 23.3669 34.6967 23.3669C35.7651 23.3669 36.6339 24.2358 36.6339 25.3042C36.6339 25.7903 37.0285 26.1849 37.5146 26.1849C38.0008 26.1849 38.3954 25.7903 38.3954 25.3042C38.3954 23.2649 36.736 21.6055 34.6967 21.6055Z" fill="#282928"/>
<path d="M34.6967 17.8477C34.2105 17.8477 33.8159 18.2418 33.8159 18.7284C33.8159 19.2145 34.2105 19.6091 34.6967 19.6091C37.8369 19.6091 40.3912 22.1635 40.3912 25.3037C40.3912 25.7899 40.7858 26.1844 41.272 26.1844C41.7586 26.1844 42.1527 25.7899 42.1527 25.3037C42.1527 21.1925 38.8078 17.8477 34.6967 17.8477Z" fill="#282928"/>
<path d="M21.4875 25.3042C21.4875 24.2358 22.3564 23.3669 23.4248 23.3669C23.9109 23.3669 24.3055 22.9724 24.3055 22.4862C24.3055 22.0001 23.9109 21.6055 23.4248 21.6055C21.3855 21.6055 19.7261 23.2649 19.7261 25.3042C19.7261 25.7903 20.1202 26.1849 20.6068 26.1849C21.093 26.1849 21.4875 25.7903 21.4875 25.3042Z" fill="#282928"/>
<path d="M24.3055 18.7284C24.3055 18.2418 23.9109 17.8477 23.4248 17.8477C19.3136 17.8477 15.9688 21.1925 15.9688 25.3037C15.9688 25.7899 16.3629 26.1844 16.8495 26.1844C17.3356 26.1844 17.7302 25.7899 17.7302 25.3037C17.7302 22.1635 20.2845 19.6091 23.4248 19.6091C23.9109 19.6091 24.3055 19.2145 24.3055 18.7284Z" fill="#282928"/>
</svg>
