<svg width="60" height="60" viewBox="0 0 60 60" fill="none" xmlns="http://www.w3.org/2000/svg">
<path fill-rule="evenodd" clip-rule="evenodd" d="M6.58266 31.5793L3.80388 28.476C3.47975 28.1123 3.5139 27.5571 3.88057 27.2347C4.24806 26.9139 4.80905 26.9477 5.13331 27.3114L7.32441 29.7588L10.4715 27.0184L10.5512 26.8824L10.5975 26.9095L13.3809 24.4855C13.7484 24.1647 14.3094 24.1992 14.6328 24.5637C14.9578 24.9282 14.9221 25.4834 14.5531 25.805L7.83323 31.657C7.46628 31.9759 6.90868 31.9438 6.58266 31.5793ZM9.21794 20.7793C5.15458 20.7793 1.85045 24.0502 1.85045 28.0702C1.85045 32.0918 5.15458 35.362 9.21794 35.362C13.2806 35.362 16.5854 32.0919 16.5854 28.0702C16.5854 24.0502 13.2806 20.7793 9.21794 20.7793ZM10.9945 11.9892V19.1945C16.4228 20.2566 19.6892 25.8696 17.8481 31.0525L24.2483 34.7089V19.5626L10.9945 11.9892ZM38.3905 10.4668L34.6407 12.6099L21.3867 5.03632L25.1366 2.89325L38.3905 10.4668ZM26.0242 34.7089L39.2788 27.1368V11.9892L35.5282 14.1323V23.7782C35.5282 24.0923 35.359 24.383 35.084 24.5401L31.1065 26.8131C30.5119 27.1519 29.7747 26.7265 29.7747 26.0527V17.4197L26.0241 19.5627V34.7089H26.0242ZM15.6319 8.32454L28.8865 15.8981L25.1367 18.0411L11.8829 10.4669L15.6319 8.32454ZM31.1065 15.1369L17.4077 7.31014L19.611 6.05072L33.7523 14.1321V23.2709L31.5505 24.531V15.8979C31.5506 15.584 31.3814 15.2939 31.1065 15.1369ZM9.21794 37.1195C12.5707 37.1195 15.5067 35.3237 17.098 32.6531L24.6926 36.9925C24.9658 37.149 25.307 37.1489 25.5802 36.9925L40.6107 28.4046C40.8855 28.2475 41.0549 27.9583 41.0549 27.6442V10.4668C41.0549 10.1535 40.8856 9.86344 40.6107 9.7064L25.5801 1.11778C25.3053 0.96074 24.9674 0.96074 24.6925 1.11778L9.6628 9.7064C9.388 9.86344 9.21862 10.1535 9.21862 10.4668V19.0216C4.17557 19.0216 0.0744007 23.0814 0.0744007 28.0701C0.0745362 33.0611 4.17597 37.1195 9.21794 37.1195ZM43.8911 37.7146L33.8966 47.8639C33.6028 48.27 32.6343 48.3722 32.0821 48.3945L19.6906 48.9196C18.9336 48.9477 18.2063 49.2791 17.8837 49.4863L17.0159 50.0573L14.8636 51.2279L9.72595 44.3111C12.2192 42.1891 14.8309 40.3918 18.476 40.379L29.6078 40.3346C30.4213 40.3258 31.7956 41.7779 30.8036 42.7964C30.49 43.1179 30.0998 43.2667 29.9251 43.2681L24.0753 43.3207C23.5856 43.326 23.1907 43.7228 23.1961 44.2081C23.2003 44.6944 23.5979 45.0805 24.0913 45.0782L29.9426 45.0256C31.1039 45.0137 32.3951 44.0627 32.789 42.8759C33.3455 42.7812 33.9043 42.5407 34.4571 42.1575L43.3369 36.1582C43.5936 36.1199 43.9375 36.1311 44.1136 36.3972C44.289 36.6611 44.2845 37.1675 43.8911 37.7146ZM13.8523 53.6694C14.071 53.5101 14.1203 53.1937 13.9594 52.9774L13.8987 52.8948L7.45585 44.2234C7.29446 44.0063 6.97467 43.9597 6.75665 44.1183L1.97877 47.5942C1.75804 47.7544 1.71021 48.0689 1.87173 48.2862L8.37524 57.0402C8.53622 57.2573 8.85588 57.3055 9.07444 57.1462L13.8523 53.6694ZM45.5994 35.4348C46.2318 36.3892 46.1073 37.7131 45.2836 38.8079C45.26 38.8395 45.2334 38.8688 45.2062 38.8966L35.293 48.9513C34.984 49.3481 34.5656 49.6389 34.0152 49.8357C33.552 50.0137 32.729 50.1278 32.152 50.1506L19.7584 50.6758C19.0057 50.7033 18.473 51.2644 17.9028 51.5805L15.7678 52.7399C15.9766 53.5958 15.6654 54.532 14.9038 55.085L10.126 58.5626C9.12187 59.2945 7.69325 59.0903 6.94473 58.0817L0.440398 49.3285C-0.301487 48.3284 -0.0837317 46.9138 0.925502 46.1786L5.70486 42.701C6.61667 42.0382 7.86494 42.1502 8.64693 42.9122C11.2982 40.6684 14.288 38.6359 18.4684 38.6217L29.5911 38.5773C30.9775 38.5659 32.3486 39.7244 32.7814 41.0667C32.9924 40.9916 33.2142 40.8736 33.4473 40.7122L42.4874 34.6054C42.577 34.5438 42.6788 34.4994 42.7858 34.4754C43.9678 34.201 45.0193 34.5594 45.5994 35.4348Z" fill="#282928"/>
</svg>
