<svg width="60" height="60" viewBox="0 0 60 60" fill="none" xmlns="http://www.w3.org/2000/svg">
<path d="M27.2017 31.0853L31.0839 27.2027C31.1601 27.1266 31.2206 27.0362 31.2618 26.9367C31.3031 26.8372 31.3243 26.7305 31.3243 26.6228C31.3243 26.5151 31.3031 26.4084 31.2618 26.309C31.2206 26.2095 31.1601 26.1191 31.0839 26.043L29.0158 23.9748C29.4409 23.1958 29.7817 22.3737 30.0325 21.5223H32.9556C33.1732 21.5223 33.3818 21.4359 33.5357 21.2821C33.6895 21.1282 33.7759 20.9196 33.7759 20.702V15.212C33.7759 14.9945 33.6895 14.7858 33.5357 14.632C33.3818 14.4781 33.1732 14.3917 32.9556 14.3917H30.039C29.7881 13.5392 29.4461 12.7162 29.019 11.9369L31.0839 9.87156C31.1601 9.79542 31.2206 9.705 31.2619 9.60546C31.3031 9.50593 31.3244 9.39923 31.3244 9.29148C31.3244 9.18373 31.3031 9.07704 31.2619 8.97751C31.2206 8.87797 31.1601 8.78755 31.0839 8.71141L27.2017 4.82875C27.1256 4.75253 27.0352 4.69206 26.9357 4.6508C26.8362 4.60954 26.7296 4.5883 26.6219 4.5883C26.5141 4.5883 26.4075 4.60954 26.308 4.6508C26.2085 4.69206 26.1181 4.75253 26.042 4.82875L23.9767 6.89453C23.1974 6.46748 22.3743 6.12551 21.5219 5.87453V2.95703C21.5219 2.84929 21.5007 2.74259 21.4595 2.64304C21.4183 2.54349 21.3579 2.45303 21.2817 2.37685C21.2055 2.30066 21.1151 2.24024 21.0155 2.19904C20.916 2.15783 20.8093 2.13666 20.7015 2.13672H15.2111C15.1033 2.13666 14.9966 2.15783 14.8971 2.19904C14.7975 2.24024 14.7071 2.30066 14.6309 2.37685C14.5547 2.45303 14.4943 2.54349 14.4531 2.64304C14.4119 2.74259 14.3907 2.84929 14.3908 2.95703V5.87969C13.5396 6.13076 12.7177 6.47174 11.9387 6.89687L9.87107 4.82875C9.79493 4.75251 9.70451 4.69203 9.60497 4.65077C9.50544 4.6095 9.39875 4.58826 9.291 4.58826C9.18325 4.58826 9.07655 4.6095 8.97702 4.65077C8.87748 4.69203 8.78706 4.75251 8.71092 4.82875L4.82826 8.71141C4.75202 8.78755 4.69154 8.87797 4.65028 8.97751C4.60901 9.07704 4.58777 9.18373 4.58777 9.29148C4.58777 9.39923 4.60901 9.50593 4.65028 9.60546C4.69154 9.705 4.75202 9.79542 4.82826 9.87156L6.89545 11.9392C6.47035 12.7183 6.12937 13.5405 5.87826 14.3917H2.95654C2.8488 14.3917 2.7421 14.4128 2.64255 14.454C2.543 14.4952 2.45254 14.5557 2.37636 14.6318C2.30017 14.708 2.23975 14.7985 2.19855 14.898C2.15734 14.9976 2.13617 15.1043 2.13623 15.212V20.702C2.13617 20.8098 2.15734 20.9165 2.19855 21.016C2.23975 21.1156 2.30017 21.206 2.37636 21.2822C2.45254 21.3584 2.543 21.4188 2.64255 21.46C2.7421 21.5012 2.8488 21.5224 2.95654 21.5223H5.87357C6.12468 22.3749 6.4668 23.1979 6.89404 23.9772L4.82826 26.043C4.75204 26.1191 4.69157 26.2095 4.65031 26.309C4.60905 26.4084 4.58781 26.5151 4.58781 26.6228C4.58781 26.7305 4.60905 26.8372 4.65031 26.9367C4.69157 27.0362 4.75204 27.1266 4.82826 27.2027L8.70998 31.0853C8.86394 31.2389 9.07256 31.3252 9.29006 31.3252C9.50756 31.3252 9.71617 31.2389 9.87014 31.0853L11.9354 29.0195C12.715 29.4466 13.5382 29.7887 14.3908 30.04V32.9575C14.3908 33.1751 14.4772 33.3837 14.631 33.5376C14.7849 33.6914 14.9935 33.7778 15.2111 33.7778H20.7015C20.9191 33.7778 21.1278 33.6914 21.2816 33.5376C21.4354 33.3837 21.5219 33.1751 21.5219 32.9575V30.0344C22.373 29.7833 23.195 29.4423 23.9739 29.0172L26.042 31.0853C26.1958 31.239 26.4044 31.3254 26.6219 31.3254C26.8393 31.3254 27.0479 31.239 27.2017 31.0853ZM24.6887 27.4117C24.5585 27.2812 24.388 27.1984 24.2048 27.1768C24.0217 27.1552 23.8366 27.196 23.6795 27.2927C22.6995 27.8952 21.6299 28.3383 20.5108 28.6052C20.3317 28.6482 20.1722 28.7501 20.0581 28.8946C19.9439 29.0391 19.8816 29.2179 19.8812 29.402V32.1348H16.0314V29.4095C16.0311 29.2252 15.9688 29.0463 15.8544 28.9017C15.74 28.7571 15.5803 28.6553 15.4009 28.6127C14.282 28.3451 13.213 27.9002 12.2345 27.295C12.0773 27.198 11.8919 27.1569 11.7084 27.1784C11.525 27.1998 11.3541 27.2825 11.2234 27.4131L9.29076 29.3444L6.5692 26.6219L8.50045 24.6902C8.63094 24.5595 8.71357 24.3887 8.73501 24.2054C8.75644 24.022 8.71542 23.8367 8.61857 23.6795C8.01341 22.7005 7.56888 21.6308 7.30186 20.5113C7.25919 20.3319 7.15736 20.1722 7.01279 20.0578C6.86822 19.9434 6.68933 19.881 6.50498 19.8808H3.77686V16.0319H6.5092C6.6934 16.0316 6.87215 15.9693 7.01669 15.8551C7.16123 15.741 7.26315 15.5815 7.30607 15.4023C7.57268 14.2834 8.01573 13.2141 8.61857 12.2345C8.71502 12.0772 8.75572 11.8921 8.73412 11.7088C8.71253 11.5256 8.62989 11.3549 8.49951 11.2244L6.5692 9.29125L9.29076 6.56969L11.2239 8.50281C11.3543 8.63322 11.5249 8.7159 11.7081 8.7375C11.8913 8.7591 12.0764 8.71837 12.2336 8.62188C13.2135 8.01931 14.2829 7.57628 15.4019 7.30937C15.5809 7.26638 15.7404 7.16443 15.8546 7.01991C15.9687 6.87539 16.031 6.69668 16.0314 6.5125V3.77734H19.8812V6.505C19.8815 6.68935 19.9438 6.86824 20.0582 7.01281C20.1726 7.15738 20.3324 7.25921 20.5117 7.30188C21.6312 7.56881 22.7009 8.01318 23.68 8.61813C23.837 8.71538 24.0224 8.75665 24.2059 8.7352C24.3894 8.71375 24.5602 8.63086 24.6906 8.5L26.6219 6.56875L29.3439 9.29125L27.4126 11.223C27.2822 11.3537 27.1996 11.5246 27.1782 11.708C27.1567 11.8915 27.1977 12.0768 27.2945 12.2341C27.8997 13.2129 28.344 14.2824 28.6108 15.4019C28.6534 15.5812 28.7553 15.741 28.8998 15.8553C29.0444 15.9697 29.2233 16.0321 29.4076 16.0323H32.1353V19.8817H29.4025C29.2182 19.8821 29.0395 19.9445 28.895 20.0587C28.7504 20.173 28.6485 20.3325 28.6056 20.5117C28.3388 21.6307 27.8957 22.7001 27.2931 23.68C27.1965 23.8371 27.1557 24.0222 27.1773 24.2053C27.1989 24.3884 27.2816 24.5589 27.4122 24.6892L29.3439 26.6228L26.6219 29.3444L24.6887 27.4117Z" fill="#282928"/>
<path d="M17.9566 10.8555C16.5521 10.8555 15.1792 11.2719 14.0114 12.0522C12.8436 12.8325 11.9335 13.9415 11.396 15.2391C10.8585 16.5366 10.7179 17.9644 10.9919 19.3419C11.2659 20.7194 11.9422 21.9847 12.9353 22.9778C13.9284 23.9709 15.1937 24.6472 16.5712 24.9212C17.9487 25.1952 19.3765 25.0546 20.674 24.5171C21.9716 23.9797 23.0806 23.0695 23.8609 21.9017C24.6412 20.734 25.0577 19.361 25.0577 17.9566C25.0556 16.0739 24.3067 14.2689 22.9755 12.9377C21.6442 11.6064 19.8392 10.8576 17.9566 10.8555ZM17.9566 23.418C16.8766 23.418 15.8209 23.0977 14.923 22.4978C14.025 21.8978 13.3252 21.0451 12.9118 20.0473C12.4985 19.0496 12.3903 17.9518 12.6009 16.8926C12.8116 15.8334 13.3315 14.8604 14.0951 14.0967C14.8587 13.333 15.8315 12.8129 16.8907 12.6021C17.9499 12.3913 19.0478 12.4993 20.0455 12.9124C21.0433 13.3256 21.8962 14.0253 22.4963 14.9231C23.0964 15.821 23.4168 16.8766 23.417 17.9566C23.4153 19.4042 22.8394 20.7921 21.8158 21.8158C20.7921 22.8394 19.4042 23.4153 17.9566 23.417V23.418Z" fill="#282928"/>
<path d="M57.0439 38.4781H54.1264C53.8755 37.6256 53.5335 36.8026 53.1064 36.0233L55.1718 33.9575C55.248 33.8814 55.3084 33.791 55.3497 33.6915C55.391 33.592 55.4122 33.4854 55.4122 33.3777C55.4122 33.2699 55.391 33.1633 55.3497 33.0638C55.3084 32.9643 55.248 32.8739 55.1718 32.7978L51.2896 28.9161C51.2134 28.8399 51.123 28.7794 51.0235 28.7381C50.9239 28.6968 50.8172 28.6756 50.7095 28.6756C50.6017 28.6756 50.495 28.6968 50.3955 28.7381C50.296 28.7794 50.2056 28.8399 50.1294 28.9161L48.0641 30.9809C47.2848 30.554 46.462 30.2118 45.6097 29.9605V27.043C45.6097 26.8254 45.5233 26.6168 45.3695 26.4629C45.2156 26.3091 45.007 26.2227 44.7894 26.2227H39.2989C39.0814 26.2227 38.8727 26.3091 38.7189 26.4629C38.5651 26.6168 38.4786 26.8254 38.4786 27.043V29.9661C37.6273 30.2171 36.8052 30.5581 36.0261 30.9833L33.9585 28.9161C33.8824 28.8399 33.792 28.7794 33.6925 28.7381C33.593 28.6969 33.4863 28.6756 33.3786 28.6756C33.2709 28.6756 33.1643 28.6969 33.0648 28.7381C32.9653 28.7794 32.8749 28.8399 32.7988 28.9161L28.9161 32.7978C28.7624 32.9516 28.6761 33.1602 28.6761 33.3777C28.6761 33.5951 28.7624 33.8037 28.9161 33.9575L30.9847 36.0256C30.5594 36.8046 30.2186 37.6267 29.968 38.4781H27.0439C26.8264 38.4781 26.6177 38.5646 26.4639 38.7184C26.3101 38.8722 26.2236 39.0809 26.2236 39.2984V44.7884C26.2236 45.006 26.3101 45.2146 26.4639 45.3685C26.6177 45.5223 26.8264 45.6088 27.0439 45.6088H29.9614C30.2124 46.4612 30.5544 47.2843 30.9814 48.0636L28.9161 50.1289C28.7624 50.2828 28.676 50.4914 28.676 50.709C28.676 50.9265 28.7624 51.1352 28.9161 51.2891L32.7988 55.1717C32.8749 55.2479 32.9653 55.3084 33.0648 55.3497C33.1643 55.3909 33.2709 55.4122 33.3786 55.4122C33.4863 55.4122 33.593 55.3909 33.6925 55.3497C33.792 55.3084 33.8824 55.2479 33.9585 55.1717L36.0238 53.1092C36.8031 53.5364 37.6261 53.8783 38.4786 54.1292V57.0467C38.4786 57.1545 38.4997 57.2612 38.5409 57.3607C38.5822 57.4603 38.6426 57.5507 38.7188 57.6269C38.7949 57.7031 38.8854 57.7635 38.985 57.8047C39.0845 57.8459 39.1912 57.8671 39.2989 57.867H44.7889C44.8967 57.8671 45.0034 57.8459 45.1029 57.8047C45.2025 57.7635 45.2929 57.7031 45.3691 57.6269C45.4453 57.5507 45.5057 57.4603 45.5469 57.3607C45.5881 57.2612 45.6093 57.1545 45.6093 57.0467V54.1241C46.4606 53.8729 47.2827 53.5318 48.0618 53.1064L50.1294 55.1741C50.2056 55.2503 50.296 55.3108 50.3955 55.352C50.495 55.3933 50.6017 55.4145 50.7095 55.4145C50.8172 55.4145 50.9239 55.3933 51.0235 55.352C51.123 55.3108 51.2134 55.2503 51.2896 55.1741L55.1718 51.2923C55.248 51.2162 55.3085 51.1258 55.3497 51.0262C55.391 50.9267 55.4122 50.82 55.4122 50.7123C55.4122 50.6045 55.391 50.4978 55.3497 50.3983C55.3085 50.2988 55.248 50.2083 55.1718 50.1322L53.1041 48.0641C53.5292 47.2851 53.8702 46.4632 54.1213 45.612H57.0439C57.1517 45.6121 57.2584 45.5909 57.3579 45.5497C57.4575 45.5085 57.5479 45.4481 57.6241 45.3719C57.7003 45.2957 57.7607 45.2053 57.8019 45.1057C57.8431 45.0062 57.8643 44.8995 57.8643 44.7917V39.2984C57.8643 39.1907 57.8431 39.084 57.8019 38.9844C57.7607 38.8849 57.7003 38.7944 57.6241 38.7183C57.5479 38.6421 57.4575 38.5816 57.3579 38.5404C57.2584 38.4992 57.1517 38.4781 57.0439 38.4781ZM56.2236 43.9686H53.4913C53.3071 43.9689 53.1283 44.0311 52.9838 44.1453C52.8393 44.2595 52.7373 44.419 52.6944 44.5981C52.4275 45.7171 51.9845 46.7865 51.3819 47.7664C51.2855 47.9236 51.2448 48.1087 51.2664 48.2919C51.288 48.4751 51.3706 48.6456 51.501 48.7761L53.4346 50.7097L50.7125 53.4312L48.7794 51.4981C48.6488 51.3679 48.4783 51.2854 48.2952 51.2638C48.1121 51.2422 47.927 51.2828 47.7697 51.3791C46.7896 51.9816 45.72 52.4246 44.601 52.6916C44.4218 52.7345 44.2624 52.8364 44.1482 52.9809C44.034 53.1255 43.9717 53.3042 43.9714 53.4884V56.2208H40.1193V53.4931C40.119 53.3088 40.0566 53.1299 39.9423 52.9853C39.8279 52.8407 39.6681 52.7389 39.4888 52.6962C38.3692 52.4293 37.2996 51.9849 36.3205 51.38C36.1634 51.2828 35.9781 51.2416 35.7946 51.2631C35.6112 51.2845 35.4403 51.3673 35.3099 51.4981L33.3786 53.4294L30.6566 50.7092L32.5878 48.7775C32.7185 48.6469 32.8013 48.476 32.8227 48.2925C32.8442 48.109 32.803 47.9236 32.706 47.7664C32.1012 46.7874 31.657 45.718 31.3902 44.5986C31.3475 44.4192 31.2457 44.2595 31.1011 44.1451C30.9566 44.0307 30.7777 43.9684 30.5933 43.9681H27.8643V40.1187H30.5966C30.7808 40.1183 30.9596 40.056 31.1041 39.9417C31.2487 39.8275 31.3506 39.6679 31.3935 39.4887C31.6603 38.3698 32.1033 37.3003 32.706 36.3205C32.8026 36.1634 32.8434 35.9783 32.8218 35.7952C32.8002 35.612 32.7174 35.4415 32.5869 35.3112L30.6566 33.3777L33.3786 30.6561L35.3118 32.5892C35.4419 32.7199 35.6125 32.8027 35.7957 32.8244C35.9788 32.846 36.164 32.8051 36.321 32.7083C37.301 32.1057 38.3706 31.6627 39.4897 31.3958C39.6688 31.3528 39.8283 31.2508 39.9424 31.1063C40.0566 30.9618 40.1189 30.7831 40.1193 30.5989V27.8661H43.9691V30.5937C43.9694 30.7781 44.0317 30.957 44.1461 31.1016C44.2605 31.2461 44.4202 31.348 44.5996 31.3906C45.7189 31.6578 46.7884 32.1024 47.7674 32.7073C47.9245 32.8046 48.11 32.8458 48.2935 32.8243C48.477 32.8029 48.648 32.72 48.7785 32.5892L50.7097 30.6561L53.4318 33.3781L51.5 35.3098C51.3695 35.4404 51.2868 35.6112 51.2654 35.7946C51.2439 35.978 51.285 36.1633 51.3819 36.3205C51.9868 37.2994 52.431 38.3689 52.6977 39.4883C52.7403 39.6677 52.8421 39.8276 52.9866 39.942C53.1312 40.0565 53.3102 40.1189 53.4946 40.1192H56.2222L56.2236 43.9686Z" fill="#282928"/>
<path d="M42.044 34.9414C40.6395 34.9414 39.2666 35.3579 38.0988 36.1382C36.931 36.9184 36.0209 38.0275 35.4834 39.325C34.9459 40.6226 34.8053 42.0504 35.0793 43.4279C35.3533 44.8053 36.0296 46.0706 37.0227 47.0637C38.0158 48.0568 39.2811 48.7332 40.6586 49.0071C42.0361 49.2811 43.4639 49.1405 44.7614 48.6031C46.059 48.0656 47.168 47.1554 47.9483 45.9877C48.7286 44.8199 49.1451 43.447 49.1451 42.0425C49.143 40.1598 48.3941 38.3549 47.0629 37.0236C45.7316 35.6923 43.9266 34.9435 42.044 34.9414ZM42.044 47.5039C40.964 47.5039 39.9083 47.1837 39.0103 46.5837C38.1123 45.9836 37.4124 45.1308 36.9992 44.1331C36.5859 43.1353 36.4777 42.0374 36.6884 40.9782C36.8991 39.9189 37.4192 38.946 38.1828 38.1823C38.9465 37.4186 39.9195 36.8986 40.9787 36.6879C42.0379 36.4772 43.1358 36.5853 44.1336 36.9986C45.1314 37.4119 45.9842 38.1118 46.5842 39.0098C47.1842 39.9077 47.5044 40.9635 47.5044 42.0434C47.5026 43.491 46.9267 44.8787 45.903 45.9022C44.8793 46.9257 43.4915 47.5014 42.044 47.503V47.5039Z" fill="#282928"/>
<path d="M35.9582 9.77556C40.7243 11.1787 44.8404 14.2226 47.578 18.3687C46.9215 18.963 46.5063 19.778 46.4116 20.6585C46.3169 21.539 46.5492 22.4236 47.0643 23.144C47.5794 23.8644 48.3414 24.3702 49.2053 24.5653C50.0691 24.7604 50.9745 24.631 51.7492 24.2019C52.5239 23.7728 53.1138 23.0738 53.4066 22.2381C53.6995 21.4023 53.6748 20.488 53.3373 19.6692C52.9999 18.8504 52.3732 18.1843 51.5765 17.7975C50.7798 17.4108 49.8687 17.3305 49.0166 17.5718C46.0674 13.049 41.6015 9.72659 36.4218 8.20197C36.3178 8.16921 36.2083 8.15751 36.0997 8.16755C35.9912 8.17759 35.8857 8.20918 35.7895 8.26046C35.6932 8.31175 35.6082 8.3817 35.5393 8.46623C35.4705 8.55076 35.4191 8.64817 35.3884 8.75277C35.3576 8.85737 35.3479 8.96706 35.36 9.07542C35.3721 9.18378 35.4057 9.28864 35.4588 9.38387C35.5119 9.4791 35.5835 9.56279 35.6693 9.63004C35.7551 9.6973 35.853 9.74677 35.9582 9.77556ZM51.9374 21.0335C51.9374 21.4203 51.8227 21.7984 51.6078 22.12C51.3929 22.4416 51.0875 22.6923 50.7302 22.8403C50.3728 22.9883 49.9796 23.027 49.6003 22.9516C49.2209 22.8761 48.8724 22.6899 48.5989 22.4164C48.3254 22.1429 48.1392 21.7944 48.0637 21.4151C47.9883 21.0357 48.027 20.6425 48.175 20.2851C48.323 19.9278 48.5737 19.6224 48.8953 19.4075C49.2169 19.1926 49.595 19.0779 49.9818 19.0779C50.5003 19.0784 50.9974 19.2846 51.3641 19.6512C51.7307 20.0179 51.9369 20.515 51.9374 21.0335Z" fill="#282928"/>
<path d="M24.0417 50.2221C19.2764 48.8186 15.1612 45.7747 12.4242 41.629C13.0808 41.0347 13.4959 40.2197 13.5906 39.3392C13.6853 38.4587 13.453 37.5741 12.9379 36.8537C12.4228 36.1333 11.6608 35.6275 10.797 35.4324C9.93312 35.2373 9.02771 35.3667 8.25302 35.7958C7.47833 36.2249 6.88844 36.9239 6.59561 37.7597C6.30277 38.5954 6.32743 39.5097 6.66489 40.3285C7.00235 41.1473 7.62906 41.8134 8.42576 42.2002C9.22245 42.5869 10.1335 42.6672 10.9856 42.4259C13.9341 46.9484 18.3992 50.2707 23.5781 51.7957C23.6534 51.818 23.7316 51.8292 23.8101 51.829C24.0072 51.8286 24.1974 51.7573 24.3462 51.6281C24.495 51.4989 24.5923 51.3205 24.6203 51.1255C24.6484 50.9305 24.6053 50.7319 24.4989 50.566C24.3926 50.4001 24.2301 50.2781 24.0412 50.2221H24.0417ZM8.06248 38.9642C8.06266 38.5774 8.17752 38.1994 8.39251 37.8779C8.60751 37.5565 8.91301 37.3059 9.27037 37.1581C9.62773 37.0102 10.0209 36.9716 10.4002 37.0472C10.7795 37.1227 11.1279 37.3091 11.4013 37.5826C11.6747 37.8561 11.8608 38.2046 11.9362 38.5839C12.0116 38.9633 11.9728 39.3564 11.8248 39.7137C11.6767 40.071 11.4261 40.3764 11.1045 40.5912C10.7829 40.8061 10.4048 40.9207 10.0181 40.9207C9.49943 40.9202 9.00215 40.7139 8.63548 40.3471C8.26881 39.9802 8.06273 39.4828 8.06248 38.9642Z" fill="#282928"/>
</svg>
