<svg width="60" height="60" viewBox="0 0 60 60" fill="none" xmlns="http://www.w3.org/2000/svg">
<path d="M30 58C14.5608 58 2 45.4392 2 30C2 14.5608 14.5608 2 30 2C45.4392 2 58 14.5608 58 30C58 45.4392 45.4392 58 30 58ZM30 4.8C16.1047 4.8 4.8 16.1047 4.8 30C4.8 43.8953 16.1047 55.2 30 55.2C43.8953 55.2 55.2 43.8953 55.2 30C55.2 16.1047 43.8953 4.8 30 4.8Z" fill="#282928"/>
<path d="M30.8661 46C30.8361 46 30.8066 45.9989 30.776 45.9972C30.1897 45.9594 29.6901 45.5566 29.5288 44.9914L26.3249 33.7933L14.9995 30.4682C14.4371 30.3036 14.0387 29.8034 14.0026 29.2188C13.967 28.6335 14.3019 28.0894 14.8398 27.8569L42.0581 16.1136C42.5821 15.8883 43.189 16.0041 43.5924 16.4074C43.9957 16.8102 44.112 17.4182 43.8861 17.9417L32.1429 45.16C31.922 45.6723 31.4186 46 30.8661 46ZM19.4795 28.885L27.8431 31.3405C28.3004 31.4746 28.6576 31.834 28.7883 32.2924L31.1315 40.4825L39.9452 20.0551L19.4795 28.885Z" fill="#282928"/>
</svg>
