<svg width="60" height="60" viewBox="0 0 60 60" fill="none" xmlns="http://www.w3.org/2000/svg">
<g clip-path="url(#clip0_3744_930)">
<path d="M55.9082 51.6213C58.1644 51.6213 60 49.7857 60 47.5294V5.85938C60 2.62852 57.3715 0 54.1406 0H5.85938C2.62852 0 0 2.62852 0 5.85938V47.5294C0 49.7857 1.83562 51.6213 4.09184 51.6213H5.39062V57.6562H1.17188C0.524648 57.6562 0 58.181 0 58.8281C0 59.4752 0.524648 60 1.17188 60H58.8281C59.4754 60 60 59.4752 60 58.8281C60 58.181 59.4754 57.6562 58.8281 57.6562H54.6094V51.6213H55.9082ZM2.34375 5.85938C2.34375 3.92086 3.92086 2.34375 5.85938 2.34375H54.1406C56.0791 2.34375 57.6562 3.92086 57.6562 5.85938V8.4375H2.46141C2.42168 8.4375 2.38242 8.43961 2.34375 8.44348V5.85938ZM12.8906 57.6562H7.73438V47.1094H12.8906V57.6562ZM26.0156 57.6562H20.8594V34.1522H26.0156V57.6562ZM39.1406 57.6562H33.9844V44.0625H39.1406V57.6562ZM53.4375 30.0586H45.9375C45.2903 30.0586 44.7656 30.5834 44.7656 31.2305V37.1483C44.7656 37.7954 45.2903 38.3202 45.9375 38.3202C46.5847 38.3202 47.1094 37.7954 47.1094 37.1483V32.4023H52.2656V57.6562H47.1094V45.0293C47.1094 44.3822 46.5847 43.8574 45.9375 43.8574C45.2903 43.8574 44.7656 44.3822 44.7656 45.0293V57.6562H41.4844V42.8906C41.4844 42.2435 40.9597 41.7188 40.3125 41.7188H32.8125C32.1653 41.7188 31.6406 42.2435 31.6406 42.8906V57.6562H28.3594V32.9803C28.3594 32.3332 27.8347 31.8084 27.1875 31.8084H19.6875C19.0403 31.8084 18.5156 32.3332 18.5156 32.9803V57.6562H15.2344V45.9375C15.2344 45.2904 14.7097 44.7656 14.0625 44.7656H6.5625C5.91527 44.7656 5.39062 45.2904 5.39062 45.9375V49.2776H4.09184C3.12785 49.2776 2.34375 48.4934 2.34375 47.5294V10.7753C2.38242 10.7791 2.42168 10.7812 2.46141 10.7812H57.6562V47.5294C57.6562 48.4934 56.872 49.2776 55.9082 49.2776H54.6094V31.2305C54.6094 30.5834 54.0847 30.0586 53.4375 30.0586Z" fill="#282928"/>
<path d="M52.5002 4.21875H26.0234C25.3762 4.21875 24.8516 4.74352 24.8516 5.39062C24.8516 6.03773 25.3762 6.5625 26.0234 6.5625H52.5002C53.1474 6.5625 53.6721 6.03773 53.6721 5.39062C53.6721 4.74352 53.1474 4.21875 52.5002 4.21875Z" fill="#282928"/>
<path d="M13.016 4.56211C12.798 4.34414 12.4957 4.21875 12.1875 4.21875C11.8793 4.21875 11.577 4.34402 11.359 4.56211C11.141 4.78008 11.0156 5.08242 11.0156 5.39062C11.0156 5.69883 11.141 6.00117 11.359 6.21902C11.577 6.43711 11.8793 6.5625 12.1875 6.5625C12.4957 6.5625 12.798 6.43711 13.016 6.21902C13.234 6.00117 13.3594 5.69883 13.3594 5.39062C13.3594 5.08242 13.234 4.78008 13.016 4.56211Z" fill="#282928"/>
<path d="M8.32852 4.56211C8.11055 4.34414 7.8082 4.21875 7.5 4.21875C7.1918 4.21875 6.88945 4.34402 6.67148 4.56211C6.45352 4.78008 6.32812 5.08242 6.32812 5.39062C6.32812 5.69883 6.45352 6.00117 6.67148 6.21902C6.88945 6.43711 7.1918 6.5625 7.5 6.5625C7.8082 6.5625 8.11055 6.43711 8.32852 6.21902C8.54648 6.00117 8.67188 5.69883 8.67188 5.39062C8.67188 5.08242 8.54648 4.78008 8.32852 4.56211Z" fill="#282928"/>
<path d="M17.7035 4.56211C17.4855 4.34414 17.1844 4.21875 16.875 4.21875C16.5668 4.21875 16.2645 4.34402 16.0465 4.56211C15.8285 4.78008 15.7031 5.08242 15.7031 5.39062C15.7031 5.69883 15.8285 6.00117 16.0465 6.21902C16.2645 6.43711 16.5668 6.5625 16.875 6.5625C17.1832 6.5625 17.4855 6.43711 17.7035 6.21902C17.9215 6.00117 18.0469 5.69883 18.0469 5.39062C18.0469 5.08242 17.9215 4.78008 17.7035 4.56211Z" fill="#282928"/>
<path d="M46.766 40.4957C46.548 40.2766 46.2457 40.1523 45.9375 40.1523C45.6293 40.1523 45.327 40.2767 45.109 40.4957C44.891 40.7137 44.7656 41.016 44.7656 41.3242C44.7656 41.6324 44.891 41.9348 45.109 42.1527C45.327 42.3706 45.6293 42.4961 45.9375 42.4961C46.2457 42.4961 46.548 42.3707 46.766 42.1527C46.984 41.9348 47.1094 41.6324 47.1094 41.3242C47.1094 41.0148 46.984 40.7137 46.766 40.4957Z" fill="#282928"/>
<path d="M49.6877 15.9297C47.3614 15.9297 45.4689 17.8221 45.4689 20.1484C45.4689 21.0725 45.7683 21.9275 46.2741 22.6232L38.4899 30.4074C37.8858 30.073 37.1919 29.882 36.4538 29.882C35.7888 29.882 35.1595 30.0373 34.5994 30.3126L26.4714 22.1846C26.8058 21.5805 26.9968 20.8865 26.9968 20.1484C26.9968 17.8221 25.1043 15.9297 22.778 15.9297C20.4517 15.9297 18.5593 17.8221 18.5593 20.1484C18.5593 20.9615 18.7911 21.7211 19.1912 22.3659L12.2709 29.286C11.6668 28.9517 10.9728 28.7607 10.2349 28.7607C7.90857 28.7607 6.01611 30.6531 6.01611 32.9794C6.01611 35.3057 7.90857 37.1982 10.2349 37.1982C12.5612 37.1982 14.4536 35.3057 14.4536 32.9794C14.4536 32.2414 14.2626 31.5474 13.9283 30.9433L20.9312 23.9404C21.4893 24.2133 22.116 24.3671 22.778 24.3671C23.516 24.3671 24.2099 24.1761 24.814 23.8417L32.8625 31.89C32.4651 32.5334 32.2351 33.2904 32.2351 34.1005C32.2351 36.4268 34.1275 38.3193 36.4538 38.3193C38.7801 38.3193 40.6726 36.4268 40.6726 34.1005C40.6726 33.3625 40.4815 32.6685 40.1472 32.0644L48.14 24.0716C48.6196 24.2617 49.1415 24.3672 49.6877 24.3672C52.014 24.3672 53.9064 22.4747 53.9064 20.1484C53.9064 17.8221 52.014 15.9297 49.6877 15.9297ZM10.235 34.8546C9.20115 34.8546 8.35998 34.0135 8.35998 32.9796C8.35998 31.9458 9.20115 31.1046 10.235 31.1046C11.2688 31.1046 12.11 31.9458 12.11 32.9796C12.11 34.0135 11.2688 34.8546 10.235 34.8546ZM22.7781 22.0234C21.7443 22.0234 20.9031 21.1823 20.9031 20.1484C20.9031 19.1146 21.7443 18.2734 22.7781 18.2734C23.812 18.2734 24.6531 19.1146 24.6531 20.1484C24.6531 21.1823 23.812 22.0234 22.7781 22.0234ZM36.4539 35.9758C35.4201 35.9758 34.5789 35.1346 34.5789 34.1008C34.5789 33.067 35.4201 32.2258 36.4539 32.2258C37.4878 32.2258 38.3289 33.067 38.3289 34.1008C38.3289 35.1346 37.4878 35.9758 36.4539 35.9758ZM49.6877 22.0234C48.6538 22.0234 47.8127 21.1823 47.8127 20.1484C47.8127 19.1146 48.6538 18.2734 49.6877 18.2734C50.7215 18.2734 51.5627 19.1146 51.5627 20.1484C51.5627 21.1823 50.7215 22.0234 49.6877 22.0234Z" fill="#282928"/>
<path d="M17.3822 15.113C17.1631 14.895 16.8619 14.7695 16.5537 14.7695C16.2443 14.7695 15.942 14.8949 15.724 15.113C15.5061 15.3309 15.3818 15.6332 15.3818 15.9414C15.3818 16.2496 15.5061 16.552 15.724 16.7699C15.9432 16.9879 16.2443 17.1133 16.5537 17.1133C16.8619 17.1133 17.1631 16.988 17.3822 16.7699C17.6002 16.552 17.7256 16.2496 17.7256 15.9414C17.7256 15.6332 17.6002 15.3309 17.3822 15.113Z" fill="#282928"/>
<path d="M12.1875 14.7695H6.5625C5.91527 14.7695 5.39062 15.2943 5.39062 15.9414C5.39062 16.5885 5.91527 17.1133 6.5625 17.1133H12.1875C12.8347 17.1133 13.3594 16.5885 13.3594 15.9414C13.3594 15.2943 12.8347 14.7695 12.1875 14.7695Z" fill="#282928"/>
<path d="M12.1875 20.3945H6.5625C5.91527 20.3945 5.39062 20.9193 5.39062 21.5664C5.39062 22.2135 5.91527 22.7383 6.5625 22.7383H12.1875C12.8347 22.7383 13.3594 22.2135 13.3594 21.5664C13.3594 20.9193 12.8347 20.3945 12.1875 20.3945Z" fill="#282928"/>
</g>
<defs>
<clipPath id="clip0_3744_930">
<rect width="60" height="60" fill="white"/>
</clipPath>
</defs>
</svg>
