<svg width="60" height="60" viewBox="0 0 60 60" fill="none" xmlns="http://www.w3.org/2000/svg">
<path fill-rule="evenodd" clip-rule="evenodd" d="M33.75 49.6877H32.0194C28.3162 49.6877 25.3125 46.6989 25.3125 43.0211C25.3125 39.3433 28.3162 36.3545 32.0194 36.3545C32.1038 36.3545 32.1881 36.3555 32.2725 36.3592C32.2481 36.1005 32.2359 35.838 32.2359 35.5727C32.2359 30.947 36.0141 27.1877 40.6734 27.1877C45.2231 27.1877 48.9347 30.7736 49.1044 35.252C49.3669 35.223 49.6341 35.2089 49.9041 35.2089C53.9259 35.2089 57.1875 38.4545 57.1875 42.4483C57.1875 46.442 53.9259 49.6877 49.9041 49.6877H48.75V56.2502C48.75 56.7677 48.33 57.1877 47.8125 57.1877H34.6875C34.17 57.1877 33.75 56.7677 33.75 56.2502V49.6877ZM48.75 47.8127H49.9041C52.8872 47.8127 55.3125 45.4108 55.3125 42.4483C55.3125 39.4858 52.8872 37.0839 49.9041 37.0839C49.3781 37.0839 48.8691 37.158 48.3881 37.2967C48.0872 37.3839 47.7638 37.3155 47.5238 37.1139C47.2847 36.9124 47.1609 36.6039 47.1956 36.2936C47.2219 36.0564 47.2359 35.8164 47.2359 35.5727C47.2359 31.9783 44.2931 29.0627 40.6734 29.0627C37.0528 29.0627 34.1109 31.9783 34.1109 35.5727C34.1109 36.1427 34.1841 36.6958 34.3228 37.2227C34.4072 37.5424 34.3172 37.8836 34.0847 38.1189C33.8522 38.3552 33.5128 38.4508 33.1912 38.3711C32.8162 38.2783 32.4234 38.2295 32.0194 38.2295C29.3541 38.2295 27.1875 40.3745 27.1875 43.0211C27.1875 45.6677 29.3541 47.8127 32.0194 47.8127H33.75V41.2502C33.75 40.7327 34.17 40.3127 34.6875 40.3127H40.3125C40.83 40.3127 41.25 40.7327 41.25 41.2502C41.25 41.7677 40.83 42.1877 40.3125 42.1877H35.625V47.8127H46.875V42.1877H44.0625C43.545 42.1877 43.125 41.7677 43.125 41.2502C43.125 40.7327 43.545 40.3127 44.0625 40.3127H47.8125C48.33 40.3127 48.75 40.7327 48.75 41.2502V47.8127ZM35.625 49.6877V55.3127H46.875V49.6877H35.625ZM39.375 53.4377C38.8575 53.4377 38.4375 53.0177 38.4375 52.5002C38.4375 51.9827 38.8575 51.5627 39.375 51.5627H43.125C43.6425 51.5627 44.0625 51.9827 44.0625 52.5002C44.0625 53.0177 43.6425 53.4377 43.125 53.4377H39.375ZM39.375 45.9377C38.8575 45.9377 38.4375 45.5177 38.4375 45.0002C38.4375 44.4827 38.8575 44.0627 39.375 44.0627H43.125C43.6425 44.0627 44.0625 44.4827 44.0625 45.0002C44.0625 45.5177 43.6425 45.9377 43.125 45.9377H39.375ZM11.25 30.0002H9.51938C5.81625 30.0002 2.8125 27.0114 2.8125 23.3336C2.8125 19.6558 5.81625 16.667 9.51938 16.667C9.60375 16.667 9.68812 16.668 9.7725 16.6717C9.74812 16.413 9.73594 16.1505 9.73594 15.8852C9.73594 11.2595 13.5141 7.50016 18.1734 7.50016C22.7625 7.50016 26.4984 11.1489 26.6081 15.6808C26.9062 15.7942 27.1397 16.0567 27.1997 16.3933C27.2906 16.9024 26.9503 17.3899 26.4412 17.4808C26.2537 17.5145 26.0691 17.5577 25.8881 17.6092C25.5872 17.6964 25.2638 17.628 25.0238 17.4264C24.7847 17.2249 24.6609 16.9164 24.6956 16.6061C24.7219 16.3689 24.7359 16.1289 24.7359 15.8852C24.7359 12.2908 21.7931 9.37516 18.1734 9.37516C14.5528 9.37516 11.6109 12.2908 11.6109 15.8852C11.6109 16.4552 11.6841 17.0083 11.8228 17.5352C11.9072 17.8549 11.8172 18.1961 11.5847 18.4314C11.3522 18.6677 11.0128 18.7633 10.6913 18.6836C10.3163 18.5908 9.92344 18.542 9.51938 18.542C6.85406 18.542 4.6875 20.687 4.6875 23.3336C4.6875 25.9802 6.85406 28.1252 9.51938 28.1252H11.25V21.5627C11.25 21.0452 11.67 20.6252 12.1875 20.6252H25.3125C25.83 20.6252 26.25 21.0452 26.25 21.5627V28.1252H27.4041C30.3863 28.1252 32.8125 25.7233 32.8125 22.7608C32.8125 20.5792 31.4972 18.7024 29.6137 17.8633C29.1412 17.6533 28.9284 17.0983 29.1394 16.6258C29.3494 16.1533 29.9044 15.9405 30.3769 16.1505C32.9175 17.282 34.6875 19.818 34.6875 22.7608C34.6875 26.7545 31.4259 30.0002 27.4041 30.0002H26.25V36.5627C26.25 37.0802 25.83 37.5002 25.3125 37.5002H12.1875C11.67 37.5002 11.25 37.0802 11.25 36.5627V30.0002ZM24.375 28.1252V22.5002H13.125V28.1252H24.375ZM13.125 30.0002V35.6252H24.375V30.0002H13.125ZM16.875 33.7502C16.3575 33.7502 15.9375 33.3302 15.9375 32.8127C15.9375 32.2952 16.3575 31.8752 16.875 31.8752H20.625C21.1425 31.8752 21.5625 32.2952 21.5625 32.8127C21.5625 33.3302 21.1425 33.7502 20.625 33.7502H16.875ZM16.875 26.2502C16.3575 26.2502 15.9375 25.8302 15.9375 25.3127C15.9375 24.7952 16.3575 24.3752 16.875 24.3752H20.625C21.1425 24.3752 21.5625 24.7952 21.5625 25.3127C21.5625 25.8302 21.1425 26.2502 20.625 26.2502H16.875ZM56.7553 24.3602L50.5866 28.3052C50.3522 28.4552 50.0634 28.4936 49.7981 28.4092C49.5328 28.3258 49.3191 28.128 49.2141 27.8702L46.4456 21.0911C46.3078 20.7545 46.3781 20.3692 46.6247 20.1011C46.8713 19.8339 47.25 19.7336 47.5969 19.8433L49.0463 20.3027C49.1119 19.1017 48.9816 17.9149 48.6778 16.7824C47.7141 13.202 45.0047 10.1702 41.2106 8.96735C37.4081 7.76079 33.4359 8.68516 30.5841 11.0692C30.1997 11.3899 29.6306 11.3524 29.2922 10.983L26.7553 8.21735C26.5837 8.02985 26.4947 7.78048 26.5106 7.52641C26.5256 7.27235 26.6438 7.0361 26.8378 6.8711C31.1241 3.2111 37.1475 1.77766 42.9103 3.60485C49.4278 5.6711 53.8134 11.3364 54.5709 17.7152C54.7397 19.1317 54.7294 20.5839 54.5231 22.0399L56.5331 22.6774C56.88 22.787 57.1322 23.088 57.1791 23.448C57.2269 23.8089 57.0619 24.1642 56.7553 24.3602ZM54.0591 23.8595L53.1816 23.5811C52.7278 23.4377 52.4541 22.9774 52.5441 22.5105C52.8403 20.973 52.8872 19.4327 52.7091 17.9364C52.0359 12.2655 48.1378 7.22923 42.3441 5.39266C37.5525 3.87298 32.5584 4.89016 28.815 7.68954L30.0891 9.07891C33.3478 6.71266 37.6481 5.87079 41.7769 7.17954C46.2028 8.58298 49.3641 12.1192 50.4881 16.2958C50.9512 18.0189 51.0684 19.8508 50.7844 21.6874C50.7422 21.9574 50.5838 22.1964 50.3512 22.3408C50.1188 22.4852 49.8347 22.5199 49.5741 22.4374L48.9384 22.2358L50.5238 26.1199L54.0591 23.8595Z" fill="#282928"/>
</svg>
