<svg width="60" height="60" viewBox="0 0 60 60" fill="none" xmlns="http://www.w3.org/2000/svg">
<g clip-path="url(#clip0_3745_1256)">
<path d="M30.6901 38.7321C30.6489 34.2458 29.1746 30.4514 26.4204 27.7495C23.6176 25.0001 19.7382 23.5911 15.2021 23.6797C10.7898 23.7644 7.00441 25.248 4.25555 27.9702C1.47152 30.727 0 34.5153 0 38.9258C0 43.1647 1.71762 47.136 4.83633 50.1078C7.40754 52.558 7.40754 54.7987 7.40754 56.7848V59.9985H14.2229V58.2407H9.16523V56.7757C9.16523 54.678 9.16523 51.8051 6.04887 48.8353C3.28172 46.1983 1.75781 42.6791 1.75781 38.9258C1.75781 34.9951 3.04922 31.6386 5.49234 29.2193C7.91426 26.821 11.2835 25.5132 15.2359 25.4373C19.2886 25.361 22.7313 26.5931 25.1895 29.0045C27.6387 31.4071 28.9332 34.8378 28.9332 38.9259V39.1176L31.0434 43.7258C31.3382 44.3693 31.3961 45.0551 31.1985 45.5604C31.0366 45.9741 30.7072 46.2799 30.1911 46.4954L27.4286 47.6495L27.295 52.2996C27.2737 53.0398 26.6918 53.6352 25.9965 53.6306L21.0383 53.5861V58.2408H15.9807V59.9986H22.7961V55.3598L25.9807 55.3884C25.9896 55.3885 25.9983 55.3885 26.0073 55.3885C27.6405 55.3884 29.0039 54.031 29.0521 52.35L29.153 48.8341L30.8687 48.1174C31.8204 47.7199 32.5004 47.0571 32.8355 46.2007C33.2087 45.2466 33.138 44.0778 32.6416 42.994L30.6901 38.7321Z" fill="#282928"/>
<path d="M15.2188 46.5312C16.6727 46.5312 17.8555 45.3485 17.8555 43.8945V42.3062C19.4301 41.3929 20.4922 39.6897 20.4922 37.7422C20.4922 34.8344 18.1265 32.4688 15.2188 32.4688C12.311 32.4688 9.94531 34.8344 9.94531 37.7422C9.94531 39.6897 11.0074 41.3928 12.582 42.3062V43.8945C12.582 45.3485 13.7648 46.5312 15.2188 46.5312ZM16.0977 43.8945C16.0977 44.3791 15.7034 44.7734 15.2188 44.7734C14.7341 44.7734 14.3398 44.3792 14.3398 43.8945V42.941C14.6259 42.9891 14.9192 43.0156 15.2188 43.0156C15.5183 43.0156 15.8116 42.9891 16.0977 42.941V43.8945ZM15.2189 34.2267C17.1574 34.2267 18.7345 35.8038 18.7345 37.7423C18.7345 39.6808 17.1574 41.2579 15.2189 41.2579C13.2804 41.2579 11.7032 39.6808 11.7032 37.7423C11.7032 35.8038 13.2804 34.2267 15.2189 34.2267Z" fill="#282928"/>
<path d="M6.57568 42.0898L8.43984 40.2257L9.68262 41.4685L7.81846 43.3326L6.57568 42.0898Z" fill="#282928"/>
<path d="M5.14307 36.8633H7.77979V38.6211H5.14307V36.8633Z" fill="#282928"/>
<path d="M20.7432 41.4688L21.9859 40.226L23.8501 42.0901L22.6073 43.3329L20.7432 41.4688Z" fill="#282928"/>
<path d="M6.57666 33.3906L7.81943 32.1479L9.68359 34.012L8.44082 35.2548L6.57666 33.3906Z" fill="#282928"/>
<path d="M20.7441 34.0117L22.6083 32.1476L23.8511 33.3903L21.9869 35.2545L20.7441 34.0117Z" fill="#282928"/>
<path d="M22.6582 36.8633H25.2949V38.6211H22.6582V36.8633Z" fill="#282928"/>
<path d="M55.7445 4.29415C52.9956 1.572 49.2103 0.0884071 44.7979 0.00368052C39.841 -0.0913586 35.5748 1.65696 32.7852 4.92684L34.1224 6.06767C36.5641 3.20583 40.3424 1.67653 44.7642 1.76102C48.7166 1.83696 52.0857 3.14477 54.5077 5.54302C56.9508 7.96259 58.2422 11.3191 58.2422 15.2498C58.2422 19.0032 56.7183 22.5224 53.951 25.1593C50.8347 28.129 50.8347 31.002 50.8347 33.1088V34.5646H38.9617V29.9099L34.0034 29.9545C33.3085 29.9552 32.7262 29.3636 32.705 28.6233L32.5714 23.9732L29.8088 22.8193C29.2929 22.6038 28.9633 22.2978 28.8015 21.8841C28.6039 21.3788 28.6618 20.693 28.9564 20.0495L31.0667 15.4414V15.2497C31.0667 12.2316 31.7586 9.59981 33.123 7.42751L31.6345 6.49247C30.121 8.90196 29.3394 11.7822 29.3097 15.0561L27.3582 19.3176C26.8619 20.4015 26.7913 21.5703 27.1644 22.5243C27.4993 23.3807 28.1795 24.0435 29.1311 24.4411L30.8468 25.1579L30.9477 28.6736C30.9959 30.3548 32.3591 31.7123 33.9924 31.7122C34.0012 31.7122 34.0101 31.7122 34.019 31.712L37.2036 31.6834V36.3222H52.5926V33.0994C52.5926 31.1225 52.5926 28.8818 55.1636 26.4316C58.2824 23.4597 60 19.4886 60 15.2495C60 10.8393 58.5285 7.05099 55.7445 4.29415Z" fill="#282928"/>
<path d="M39.5078 14.0664C39.5078 16.0141 40.5699 17.7171 42.1445 18.6304V20.2188C42.1445 21.6727 43.3273 22.8555 44.7812 22.8555C46.2351 22.8555 47.418 21.6727 47.418 20.2188V18.6304C48.9926 17.7171 50.0547 16.0141 50.0547 14.0664C50.0547 11.1586 47.689 8.79297 44.7812 8.79297C41.8735 8.79297 39.5078 11.1586 39.5078 14.0664ZM45.66 20.2188C45.66 20.7033 45.2658 21.0977 44.7811 21.0977C44.2964 21.0977 43.9022 20.7033 43.9022 20.2188V19.2652C44.1883 19.3134 44.4816 19.3398 44.7811 19.3398C45.0807 19.3398 45.374 19.3134 45.66 19.2652V20.2188ZM44.7811 10.5508C46.7197 10.5508 48.2968 12.1279 48.2968 14.0664C48.2968 16.0049 46.7197 17.582 44.7811 17.582C42.8426 17.582 41.2655 16.0049 41.2655 14.0664C41.2655 12.1279 42.8426 10.5508 44.7811 10.5508Z" fill="#282928"/>
<path d="M50.3047 17.7969L51.5475 16.5541L53.4116 18.4183L52.1688 19.661L50.3047 17.7969Z" fill="#282928"/>
<path d="M52.2202 13.1875H54.8569V14.9453H52.2202V13.1875Z" fill="#282928"/>
<path d="M36.1382 9.71875L37.381 8.47598L39.2451 10.3401L38.0023 11.5829L36.1382 9.71875Z" fill="#282928"/>
<path d="M50.3052 10.3398L52.1693 8.47568L53.4121 9.71846L51.5479 11.5826L50.3052 10.3398Z" fill="#282928"/>
<path d="M34.7051 13.1875H37.3418V14.9453H34.7051V13.1875Z" fill="#282928"/>
<path d="M36.1372 18.418L38.0014 16.5538L39.2441 17.7966L37.38 19.6607L36.1372 18.418Z" fill="#282928"/>
<path d="M42.144 3.83594H43.9019V5.59375H42.144V3.83594Z" fill="#282928"/>
<path d="M45.6602 3.83594H47.418V5.59375H45.6602V3.83594Z" fill="#282928"/>
<path d="M16.0981 9.60734H21.7356L20.7499 10.593L21.9929 11.8359L25.1004 8.72844L21.9929 5.62109L20.7499 6.86398L21.7356 7.84953H14.3403V20.1639H16.0981V9.60734Z" fill="#282928"/>
<path d="M44.0193 50.3964H38.3819L39.3674 49.4108L38.1246 48.1679L35.0171 51.2754L38.1246 54.3828L39.3674 53.1398L38.3819 52.1543H45.7771V39.8398H44.0193V50.3964Z" fill="#282928"/>
</g>
<defs>
<clipPath id="clip0_3745_1256">
<rect width="60" height="60" fill="white"/>
</clipPath>
</defs>
</svg>
