<svg width="60" height="60" viewBox="0 0 60 60" fill="none" xmlns="http://www.w3.org/2000/svg">
<path d="M47.8125 10.3125C47.0738 10.3125 46.3434 10.4016 45.6244 10.5338C43.0575 4.20375 36.8859 0 30 0C23.1141 0 16.9416 4.20375 14.3756 10.5338C13.6556 10.4016 12.9253 10.3125 12.1875 10.3125C5.4675 10.3125 0 15.78 0 22.5C0 28.4775 4.27219 33.5325 10.1578 34.5197C10.2103 34.5281 10.2619 34.5328 10.3134 34.5328C10.7625 34.5328 11.16 34.2084 11.2369 33.7509C11.3222 33.24 10.9781 32.7562 10.4672 32.6709C5.48813 31.8356 1.875 27.5587 1.875 22.5C1.875 16.8141 6.50156 12.1875 12.1875 12.1875C13.0491 12.1875 13.905 12.2944 14.7356 12.5063C15.9731 12.8156 17.1403 13.3594 18.2044 14.1216C18.6244 14.4244 19.2103 14.3259 19.5122 13.9059C19.8141 13.485 19.7175 12.8991 19.2966 12.5972C18.3347 11.9081 17.2987 11.3728 16.2084 10.9941C18.5475 5.50313 23.9672 1.875 30 1.875C36.0328 1.875 41.4525 5.50313 43.7925 10.9941C42.7013 11.3728 41.6662 11.9081 40.7044 12.5972C40.2834 12.8991 40.1859 13.4841 40.4887 13.9059C40.7897 14.3269 41.3756 14.4244 41.7966 14.1216C42.8606 13.3594 44.0278 12.8156 45.27 12.5053C46.095 12.2944 46.9509 12.1875 47.8125 12.1875C53.4984 12.1875 58.125 16.8141 58.125 22.5C58.125 28.1859 53.4984 32.8125 47.8125 32.8125H45C44.4816 32.8125 44.0625 33.2325 44.0625 33.75C44.0625 34.2675 44.4816 34.6875 45 34.6875H47.8125C54.5325 34.6875 60 29.22 60 22.5C60 15.78 54.5325 10.3125 47.8125 10.3125Z" fill="#282928"/>
<path d="M37.4999 27.1875H16.8749C16.5862 27.1875 16.3134 27.3206 16.1362 27.5484C15.959 27.7763 15.8952 28.0725 15.9655 28.3528L18.778 39.6028C18.883 40.02 19.2571 40.3125 19.6874 40.3125H37.4999C38.0184 40.3125 38.4374 39.8925 38.4374 39.375V28.125C38.4374 27.6075 38.0184 27.1875 37.4999 27.1875ZM36.5624 32.8125H33.7499V29.0625H36.5624V32.8125ZM27.1874 34.6875V38.4375H24.3749V34.6875H27.1874ZM24.3749 32.8125V29.0625H27.1874V32.8125H24.3749ZM29.0624 34.6875H31.8749V38.4375H29.0624V34.6875ZM29.0624 32.8125V29.0625H31.8749V32.8125H29.0624ZM22.4999 29.0625V32.8125H19.0134L18.0759 29.0625H22.4999ZM19.4821 34.6875H22.4999V38.4375H20.4196L19.4821 34.6875ZM33.7499 38.4375V34.6875H36.5624V38.4375H33.7499Z" fill="#282928"/>
<path d="M46.875 22.5V18.75C46.875 18.2325 46.455 17.8125 45.9375 17.8125H41.25C38.6616 17.8125 36.5625 19.9116 36.5625 22.5V23.4375H15.9375C13.8666 23.4375 12.1875 25.1166 12.1875 27.1875V29.1862L15.9694 43.3669C16.0791 43.7775 16.4503 44.0625 16.875 44.0625H36.5625V45.9375H20.625C18.0403 45.9375 15.9375 48.0403 15.9375 50.625C15.9375 50.9484 16.1119 51.2203 16.3612 51.3881C15.8991 52.2197 15.7472 53.2472 16.2506 54.3562C16.6387 55.2131 17.4047 55.8825 18.3131 56.1272C20.5097 56.7206 22.5 55.0725 22.5 52.9688C22.5 52.4634 22.3753 51.99 22.1709 51.5625H33.1416C32.7938 52.29 32.6784 53.1478 33.0094 54.0703C33.4144 55.1972 34.4372 56.0513 35.6231 56.2172C37.6406 56.4994 39.375 54.9328 39.375 52.9688C39.375 52.365 39.1997 51.8072 38.9147 51.3206C40.8047 50.7169 42.1875 48.9637 42.1875 46.875V23.4375H45.9375C46.455 23.4375 46.875 23.0175 46.875 22.5ZM20.625 52.9688C20.625 53.7441 19.9941 54.375 19.2188 54.375C18.4434 54.375 17.8125 53.7441 17.8125 52.9688C17.8125 52.1934 18.4434 51.5625 19.2188 51.5625C19.9941 51.5625 20.625 52.1934 20.625 52.9688ZM36.0938 54.375C35.3184 54.375 34.6875 53.7441 34.6875 52.9688C34.6875 52.1934 35.3184 51.5625 36.0938 51.5625C36.8691 51.5625 37.5 52.1934 37.5 52.9688C37.5 53.7441 36.8691 54.375 36.0938 54.375ZM45 21.5625H41.25C40.7316 21.5625 40.3125 21.9825 40.3125 22.5V46.875C40.3125 48.4256 39.0506 49.6875 37.5 49.6875H17.9728C18.36 48.5962 19.4025 47.8125 20.625 47.8125H37.5C38.0184 47.8125 38.4375 47.3925 38.4375 46.875V43.125C38.4375 42.6075 38.0184 42.1875 37.5 42.1875H17.595L14.0625 28.9397V27.1875C14.0625 26.1534 14.9034 25.3125 15.9375 25.3125H37.5C38.0184 25.3125 38.4375 24.8925 38.4375 24.375V22.5C38.4375 20.9494 39.6994 19.6875 41.25 19.6875H45V21.5625Z" fill="#282928"/>
<path d="M26.5394 6.17071C27.0316 6.01134 27.3016 5.48259 27.1423 4.9904C26.9829 4.49821 26.4569 4.22821 25.961 4.38759C23.4569 5.19852 21.2773 6.72384 19.6554 8.79759C19.3366 9.2054 19.4088 9.79415 19.8166 10.1129C19.9882 10.246 20.1916 10.3116 20.3932 10.3116C20.6726 10.3116 20.9482 10.1879 21.1329 9.95165C22.5223 8.17321 24.3916 6.86634 26.5394 6.17071Z" fill="#282928"/>
<path d="M8.90812 16.8186C9.35625 16.5589 9.50906 15.9852 9.24844 15.5371C8.98969 15.0899 8.41594 14.938 7.96688 15.1958C5.36625 16.7042 3.75 19.5036 3.75 22.5008C3.75 23.2142 3.84 23.9239 4.01625 24.6102C4.12594 25.033 4.50656 25.3133 4.92375 25.3133C5.00156 25.3133 5.08031 25.3039 5.15906 25.2833C5.65969 25.1539 5.96156 24.643 5.83313 24.1414C5.69438 23.608 5.625 23.0558 5.625 22.5008C5.625 20.1692 6.88312 17.9924 8.90812 16.8186Z" fill="#282928"/>
<path d="M49.4531 28.8546C48.9516 28.984 48.6506 29.4959 48.78 29.9965C48.8888 30.4193 49.2694 30.6996 49.6866 30.6996C49.7644 30.6996 49.8431 30.6903 49.9219 30.6696C53.6484 29.7068 56.25 26.3468 56.25 22.4993C56.25 21.7859 56.16 21.0762 55.9838 20.3899C55.8534 19.8893 55.3434 19.5893 54.8409 19.7168C54.3403 19.8462 54.0384 20.3571 54.1669 20.8587C54.3056 21.3921 54.375 21.9443 54.375 22.4993C54.375 25.4918 52.3509 28.1056 49.4531 28.8546Z" fill="#282928"/>
<path d="M30 5.625C30.5178 5.625 30.9375 5.20527 30.9375 4.6875C30.9375 4.16973 30.5178 3.75 30 3.75C29.4822 3.75 29.0625 4.16973 29.0625 4.6875C29.0625 5.20527 29.4822 5.625 30 5.625Z" fill="#282928"/>
<path d="M6.33838 28.125C6.85615 28.125 7.27588 27.7053 7.27588 27.1875C7.27588 26.6697 6.85615 26.25 6.33838 26.25C5.82061 26.25 5.40088 26.6697 5.40088 27.1875C5.40088 27.7053 5.82061 28.125 6.33838 28.125Z" fill="#282928"/>
</svg>
