<svg width="60" height="60" viewBox="0 0 60 60" fill="none" xmlns="http://www.w3.org/2000/svg">
<path d="M8.6489 41.7624C8.52584 41.5502 8.32453 41.3946 8.08814 41.3291C7.85175 41.2636 7.5991 41.2933 7.38436 41.4119C7.16963 41.5305 7.0099 41.7285 6.93943 41.9634C6.86896 42.1984 6.89337 42.4516 7.00741 42.6688C16.7668 60.6683 43.2365 60.6642 52.9924 42.6684C53.1121 42.4507 53.1405 42.1945 53.0714 41.956C53.0023 41.7174 52.8413 41.516 52.6239 41.396C52.4065 41.276 52.1503 41.2472 51.9116 41.3159C51.6729 41.3845 51.4713 41.5451 51.3509 41.7624C49.2457 45.5824 46.1543 48.7677 42.3988 50.9861C38.6434 53.2045 34.3616 54.3747 29.9999 54.3747C25.6382 54.3747 21.3564 53.2045 17.6009 50.9861C13.8455 48.7677 10.7541 45.5824 8.6489 41.7624Z" fill="#282928"/>
<path d="M48.4871 14.137C48.6502 14.3202 48.8787 14.4322 49.1234 14.4489C49.3681 14.4655 49.6097 14.3857 49.7962 14.2263C49.9827 14.067 50.0993 13.8409 50.1211 13.5966C50.1428 13.3522 50.0679 13.1091 49.9125 12.9193C39.8821 0.776387 20.1164 0.777278 10.0871 12.9197C9.93125 13.1094 9.85605 13.3527 9.87767 13.5973C9.89928 13.8419 10.016 14.0682 10.2027 14.2276C10.3894 14.3871 10.6312 14.4669 10.8762 14.4499C11.1211 14.433 11.3496 14.3206 11.5126 14.137C20.8254 2.86435 39.1755 2.86554 48.4871 14.137Z" fill="#282928"/>
<path d="M17.7411 13.4224C17.5468 13.5725 17.4192 13.7929 17.3857 14.0362C17.3522 14.2794 17.4155 14.5261 17.5619 14.7232C17.7083 14.9203 17.9262 15.0522 18.1687 15.0903C18.4113 15.1285 18.6591 15.0701 18.859 14.9275C22.0862 12.548 25.9905 11.2642 30.0001 11.2642C34.0097 11.2643 37.9139 12.548 41.1411 14.9276C41.341 15.0698 41.5887 15.1279 41.831 15.0896C42.0733 15.0512 42.291 14.9194 42.4372 14.7225C42.5835 14.5255 42.6467 14.2791 42.6134 14.036C42.5801 13.7929 42.4528 13.5726 42.2589 13.4223C38.7081 10.8035 34.412 9.39062 30 9.39063C25.5879 9.39063 21.2919 10.8035 17.7411 13.4224Z" fill="#282928"/>
<path d="M30 50.6254C33.1104 50.6318 36.1815 49.9304 38.9808 48.5744C41.7801 47.2184 44.2342 45.2432 46.1573 42.7986C46.3058 42.6031 46.3718 42.3571 46.3411 42.1135C46.3103 41.8699 46.1853 41.6481 45.9928 41.4957C45.8004 41.3432 45.5558 41.2723 45.3116 41.2982C45.0674 41.3241 44.8432 41.4447 44.6869 41.6341C37.4959 51.0626 22.5032 51.0615 15.3132 41.6338C15.1568 41.4445 14.9325 41.3241 14.6884 41.2984C14.4443 41.2726 14.1998 41.3435 14.0074 41.496C13.815 41.6484 13.69 41.8702 13.6593 42.1137C13.6285 42.3572 13.6944 42.6031 13.8429 42.7986C15.7659 45.2433 18.22 47.2184 21.0193 48.5744C23.8185 49.9304 26.8896 50.6318 30 50.6254Z" fill="#282928"/>
<path d="M4.24475 32.4082C3.91506 33.0347 3.75176 33.7353 3.77049 34.443C3.78922 35.1507 3.98934 35.8417 4.3517 36.4499C4.71406 37.0581 5.22651 37.5631 5.83996 37.9164C6.45341 38.2698 7.14732 38.4597 7.85522 38.468L18.2873 38.4681C18.2837 39.0868 18.4021 39.7002 18.6357 40.2732C18.8693 40.8462 19.2136 41.3676 19.6487 41.8075C20.0839 42.2474 20.6015 42.5972 21.1719 42.837C21.7424 43.0768 22.3545 43.2018 22.9733 43.2049L37.0266 43.205C37.6461 43.2046 38.2595 43.0815 38.8312 42.8426C39.4028 42.6038 39.9215 42.2541 40.3572 41.8136C40.793 41.3731 41.1371 40.8507 41.3697 40.2765C41.6023 39.7022 41.7188 39.0876 41.7125 38.4681H52.1447C52.8526 38.4597 53.5465 38.2698 54.1599 37.9164C54.7734 37.5631 55.2858 37.0581 55.6482 36.4499C56.0105 35.8417 56.2106 35.1507 56.2293 34.443C56.248 33.7353 56.0847 33.0346 55.755 32.4081C54.4733 30.0336 52.3511 28.2233 49.8042 27.3321C50.5161 26.7839 51.0928 26.0796 51.4898 25.2736C51.8868 24.4675 52.0937 23.5811 52.0944 22.6825C51.8149 14.8924 40.5998 14.8921 40.3216 22.6826C40.3223 23.5813 40.5292 24.4679 40.9264 25.2741C41.3236 26.0802 41.9004 26.7845 42.6126 27.3327C40.3147 28.142 38.3579 29.7043 37.0599 31.7659C36.0872 31.1127 35.0284 30.598 33.9138 30.2366C34.8036 29.6106 35.5299 28.7799 36.0316 27.8145C36.5332 26.8491 36.7955 25.7773 36.7963 24.6894C36.4788 15.6973 23.522 15.6937 23.2035 24.6895C23.2044 25.7774 23.4666 26.8492 23.9683 27.8146C24.4699 28.7799 25.1962 29.6106 26.086 30.2366C24.971 30.5982 23.9117 31.1131 22.9387 31.7667C21.6384 29.7073 19.6825 28.1456 17.3864 27.3333C18.0988 26.7851 18.6759 26.0807 19.0732 25.2744C19.4705 24.4681 19.6775 23.5814 19.6782 22.6825C19.4083 14.8999 8.18078 14.888 7.90546 22.6826C7.90618 23.5811 8.11301 24.4675 8.51005 25.2736C8.90709 26.0796 9.48375 26.7838 10.1957 27.332C7.64873 28.2233 5.52645 30.0336 4.24475 32.4082ZM42.1966 22.6826C42.2067 21.6253 42.6338 20.6148 43.3849 19.8708C44.1361 19.1267 45.1507 18.7093 46.208 18.7093C47.2653 18.7093 48.2798 19.1268 49.031 19.8708C49.7822 20.6149 50.2092 21.6254 50.2193 22.6826C50.2092 23.7399 49.7821 24.7504 49.0309 25.4944C48.2797 26.2385 47.2652 26.6559 46.2079 26.6558C45.1506 26.6558 44.1361 26.2384 43.3849 25.4944C42.6337 24.7503 42.2066 23.7398 42.1966 22.6826ZM46.2013 28.5686C47.8231 28.5674 49.4148 29.0065 50.8065 29.8391C52.1982 30.6718 53.3377 31.8666 54.1035 33.2963C54.2831 33.6366 54.3723 34.0174 54.3626 34.4022C54.3528 34.7869 54.2445 35.1627 54.0479 35.4936C53.8513 35.8244 53.573 36.0993 53.2398 36.2918C52.9065 36.4843 52.5294 36.588 52.1446 36.593H41.2957C40.6212 35.2052 39.6859 33.9602 38.541 32.9258C39.3348 31.6015 40.457 30.5046 41.799 29.7413C43.141 28.9779 44.6574 28.574 46.2013 28.5686ZM25.0785 24.6894C25.2853 18.1855 34.7155 18.187 34.9213 24.6895C34.7146 31.1939 25.2842 31.1924 25.0785 24.6894ZM39.5008 37.168C39.7279 37.5978 39.8408 38.0787 39.8286 38.5646C39.8164 39.0506 39.6795 39.5252 39.4311 39.943C39.1827 40.3609 38.8311 40.7078 38.41 40.9507C37.989 41.1936 37.5126 41.3242 37.0265 41.3299L22.9732 41.33C22.4853 41.329 22.006 41.2014 21.5822 40.9597C21.1584 40.718 20.8045 40.3705 20.5552 39.9511C20.3059 39.5317 20.1696 39.0548 20.1598 38.567C20.1499 38.0792 20.2668 37.5972 20.499 37.168C24.4281 29.6468 35.5727 29.6474 39.5008 37.168ZM9.78049 22.6825C9.79046 21.6252 10.2175 20.6146 10.9687 19.8704C11.7199 19.1263 12.7345 18.7088 13.7919 18.7088C14.8493 18.7088 15.8639 19.1263 16.6151 19.8705C17.3663 20.6146 17.7933 21.6253 17.8033 22.6826C17.7933 23.74 17.3663 24.7506 16.615 25.4947C15.8638 26.2389 14.8492 26.6563 13.7918 26.6563C12.7344 26.6563 11.7198 26.2388 10.9686 25.4947C10.2174 24.7505 9.79044 23.7399 9.78049 22.6825ZM13.7831 28.5685C15.3294 28.5727 16.8483 28.9762 18.1929 29.7397C19.5375 30.5032 20.6622 31.6009 21.4581 32.9265C20.3135 33.9608 19.3785 35.2056 18.7041 36.593H7.85514C7.47031 36.588 7.09321 36.4843 6.75997 36.2917C6.42673 36.0992 6.14849 35.8244 5.95192 35.4935C5.75534 35.1626 5.647 34.7868 5.63729 34.4021C5.62757 34.0174 5.71679 33.6366 5.89642 33.2962C6.66093 31.8689 7.79804 30.6755 9.18678 29.843C10.5755 29.0105 12.164 28.5701 13.7831 28.5685Z" fill="#282928"/>
</svg>
