<svg width="60" height="60" viewBox="0 0 60 60" fill="none" xmlns="http://www.w3.org/2000/svg">
<g clip-path="url(#clip0_3754_845)">
<path d="M34.6442 26.5342C34.2835 26.2095 33.7277 26.2388 33.4029 26.5994L28.1807 32.3998L26.5952 30.4558C26.2884 30.0797 25.7348 30.0235 25.3586 30.3303C24.9824 30.637 24.9262 31.1907 25.233 31.5668L27.0346 33.7758C27.5906 34.4575 28.6706 34.4831 29.2584 33.8302L34.7092 27.7757C35.0341 27.4148 35.005 26.8591 34.6442 26.5342Z" fill="#282928"/>
<path d="M43.3457 43.2807C44.0817 43.4198 44.8282 43.0769 45.2031 42.4285L45.9642 41.1114C46.2071 40.6911 46.0632 40.1536 45.643 39.9107C45.2229 39.6677 44.6851 39.8116 44.4423 40.2318L43.6711 41.5534L39.8815 40.8397C39.4922 40.7659 39.09 40.8657 38.7777 41.1128C37.694 41.9703 36.4952 42.6629 35.2149 43.1709C34.8449 43.3176 34.5576 43.6158 34.4265 43.989L33.1415 47.628L26.8151 47.6212L25.54 43.9879C25.4091 43.6147 25.122 43.3165 24.752 43.1695C23.4718 42.6611 22.2732 41.9684 21.1894 41.1105C20.8774 40.8635 20.4753 40.7639 20.0864 40.8369L16.286 41.5453L13.1289 36.0676L15.6413 33.1457C15.8992 32.8459 16.0142 32.4484 15.9569 32.0556C15.759 30.6899 15.7591 29.3049 15.9574 27.9399C16.0148 27.5465 15.8999 27.1489 15.6423 26.8495L13.1295 23.9171L16.299 18.4456L20.0893 19.1595C20.4779 19.2322 20.8798 19.133 21.1924 18.8861C22.2761 18.0286 23.4748 17.3362 24.7557 16.8279C25.1255 16.6811 25.4126 16.383 25.5436 16.0101L26.8286 12.371L33.155 12.3779L34.4301 16.0114C34.5612 16.3847 34.8486 16.6828 35.218 16.8294C36.4983 17.3379 37.6969 18.0306 38.7805 18.8884C39.0926 19.1354 39.4946 19.2352 39.8836 19.162L43.684 18.4536L46.8411 23.9314L44.3286 26.8533C44.0708 27.1531 43.9557 27.5506 44.013 27.9434C44.211 29.309 44.2108 30.694 44.0127 32.0587C43.9551 32.4518 44.07 32.8493 44.3277 33.1495L46.8405 36.0818L46.1949 37.1989C45.952 37.6193 46.0959 38.1568 46.5161 38.3996C46.9363 38.6428 47.4739 38.4988 47.7168 38.0785L48.3624 36.9614C48.7374 36.3127 48.6612 35.4948 48.1727 34.9264L45.7765 32.1382C45.9668 30.7198 45.9669 29.2843 45.777 27.8651L48.1741 25.0774C48.6625 24.5091 48.7389 23.6915 48.3643 23.0427L45.2064 17.5746C44.8318 16.9261 44.0858 16.5831 43.3492 16.7219L39.733 17.4019C38.5984 16.5238 37.3542 15.8048 36.0298 15.2616L34.8135 11.7958C34.5655 11.0893 33.8955 10.6143 33.1462 10.6141L26.8286 10.6133C26.0793 10.6133 25.4092 11.0881 25.1611 11.7946L23.9438 15.2601C22.6192 15.8028 21.3748 16.5216 20.2401 17.3993L16.6242 16.7184C15.8879 16.5791 15.1414 16.9221 14.7668 17.5705L11.6073 23.0376C11.2323 23.6864 11.3086 24.5042 11.797 25.0726L14.1933 27.8609C14.003 29.2792 14.0028 30.7149 14.1927 32.134L11.7958 34.9216C11.3072 35.4899 11.2307 36.3075 11.6054 36.9565L14.7634 42.4244C15.1379 43.0729 15.8844 43.4154 16.6206 43.2773L20.2366 42.5971C21.3714 43.4754 22.6157 44.1946 23.9397 44.7374L25.1561 48.2033C25.4042 48.9101 26.0742 49.3849 26.8234 49.3849L33.1407 49.3858H33.1413C33.8903 49.3858 34.5603 48.911 34.8085 48.2045L36.0258 44.7391C37.3502 44.1965 38.5946 43.4778 39.7295 42.5998L43.3457 43.2807Z" fill="#282928"/>
<path d="M29.9849 19.6406C24.2697 19.6406 19.6201 24.2874 19.6201 29.9992C19.6201 35.711 24.2697 40.3579 29.9849 40.3579C35.7001 40.3579 40.3497 35.7111 40.3497 29.9992C40.3496 24.2874 35.7 19.6406 29.9849 19.6406ZM29.9849 38.6C25.239 38.6 21.3779 34.7416 21.3779 29.9991C21.3779 25.2566 25.239 21.3983 29.9849 21.3983C34.7309 21.3983 38.5919 25.2566 38.5919 29.9991C38.5919 34.7416 34.7307 38.6 29.9849 38.6Z" fill="#282928"/>
<path d="M21.6008 53.5811C14.7838 51.1889 9.34353 45.9756 6.67472 39.2782C4.38325 33.5279 4.31611 27.1566 6.48558 21.3383C8.39795 16.2094 11.8996 11.8818 16.4527 8.96902C16.5782 9.74772 17.1 10.4826 17.8374 10.8005C18.9767 11.298 20.512 10.8002 21.0682 9.64272L22.9458 5.73326C23.7492 4.05867 22.8227 1.94146 21.0498 1.39162L16.9031 0.109008C15.6165 -0.288137 14.2459 0.434084 13.8477 1.71962C13.5649 2.63227 13.9002 3.74039 14.6447 4.34179C10.5786 6.75396 7.13702 10.1015 4.62185 14.108C4.3638 14.5191 4.48778 15.0615 4.89899 15.3197C5.31008 15.5775 5.85254 15.4538 6.11058 15.0426C8.78572 10.7812 12.5749 7.31223 17.0685 5.01069C17.7561 4.65843 17.6655 3.61699 16.9275 3.38871L15.9785 3.09516C15.5916 2.93473 15.441 2.64961 15.5268 2.23969C15.6384 1.87923 16.0233 1.67708 16.384 1.78829L20.4788 3.05484C21.417 3.48445 21.6605 4.04167 21.338 5.021L19.5178 8.81093C19.0775 9.40355 18.779 9.2928 18.5581 9.19706C18.208 8.98039 18.1046 8.67804 18.2483 8.29027L18.6101 7.537C18.9694 6.789 18.1401 5.99154 17.4067 6.37966C11.6069 9.44843 7.14347 14.5428 4.83852 20.7242C2.51635 26.9522 2.58854 33.7725 5.04173 39.9289C7.89873 47.0986 13.7221 52.6791 21.0188 55.2398C21.3994 55.4145 21.5391 55.7051 21.4379 56.1114C21.3208 56.4448 20.8943 56.6466 20.5643 56.5302C12.8939 53.8385 6.7721 47.9719 3.76873 40.4346C0.889101 33.2085 1.16695 25.0203 4.49458 17.9933C4.70235 17.5547 4.51509 17.0306 4.07646 16.8229C3.6376 16.6151 3.11365 16.8022 2.90588 17.241C-0.630457 24.7069 -0.923892 33.4076 2.13573 41.0853C5.32731 49.0948 11.8321 55.3287 19.9818 58.1888C21.2244 58.6252 22.6574 57.9434 23.0963 56.6942C23.5383 55.4369 22.8581 54.0222 21.6008 53.5811Z" fill="#282928"/>
<path d="M57.8343 18.9144C54.6427 10.9049 48.1379 4.67095 39.988 1.8109C38.7308 1.36899 37.3154 2.04832 36.8736 3.30549C36.4315 4.56291 37.1119 5.97735 38.3691 6.41856C45.1861 8.8108 50.6263 14.0241 53.2951 20.7215C55.5866 26.4718 55.6538 32.8431 53.4843 38.6614C51.5719 43.7903 48.0703 48.1179 43.5172 51.0307C43.3969 50.2823 42.84 49.5378 42.1605 49.212C40.9464 48.6296 39.4844 49.1436 38.9016 50.3568L37.0239 54.2664C36.2206 55.9409 37.1471 58.0582 38.92 58.608L43.0664 59.8906C44.3289 60.2958 45.4529 59.5324 46.0524 58.444C46.5519 57.5387 46.0732 56.2625 45.3259 55.6584C47.7557 54.2195 49.9549 52.4548 51.8806 50.3963C54.2343 47.8803 56.1281 44.9803 57.5093 41.777C60.6718 34.4437 60.7871 26.3242 57.8343 18.9144ZM55.8954 41.0811C53.2697 47.1705 48.7765 51.9799 42.9015 54.989C42.2139 55.3413 42.3045 56.3827 43.0425 56.611L43.9915 56.9045C44.3502 57.0509 44.507 57.311 44.4619 57.6852C44.0717 58.3439 43.7775 58.2669 43.5787 58.2092L39.4912 56.9447C38.5528 56.5152 38.3092 55.958 38.6319 54.9788L40.4862 51.118C40.6495 50.7777 41.0599 50.6336 41.4006 50.7972C41.7598 51.0127 41.8668 51.3168 41.7216 51.7095L41.3599 52.4629C41.0008 53.2108 41.83 54.0085 42.5633 53.6201C48.3631 50.5514 52.8266 45.4572 55.1315 39.2757C57.4536 33.0477 57.3814 26.2274 54.9283 20.071C52.0713 12.9013 46.2479 7.32077 38.9513 4.76013C38.5707 4.58529 38.4309 4.29478 38.532 3.8885C38.7074 3.50752 38.9987 3.36795 39.4057 3.46979C47.0761 6.16156 53.1979 12.0282 56.2013 19.5655C58.9801 26.5382 58.8715 34.1795 55.8954 41.0811Z" fill="#282928"/>
</g>
<defs>
<clipPath id="clip0_3754_845">
<rect width="60" height="60" fill="white"/>
</clipPath>
</defs>
</svg>
