<svg width="60" height="60" viewBox="0 0 60 60" fill="none" xmlns="http://www.w3.org/2000/svg">
<g clip-path="url(#clip0_3739_700)">
<path d="M31.6942 23.1398C32.1188 23.2368 32.5546 23.0273 32.7441 22.6348C33.259 21.5677 33.652 20.4485 33.9123 19.3082C34.1725 18.1683 34.304 16.9896 34.303 15.8044C34.3028 15.3686 34.0013 14.9908 33.5763 14.8939L31.4375 14.4057C31.3306 13.4376 31.1148 12.4894 30.7927 11.5729L32.5063 10.2063C32.8471 9.93451 32.9548 9.46342 32.7661 9.07061C32.2526 8.00221 31.6226 6.99709 30.8938 6.08326C30.1647 5.16897 29.3249 4.33119 28.3978 3.59303C28.057 3.32162 27.5736 3.32174 27.233 3.5935L25.5165 4.96236C24.6939 4.44299 23.8184 4.02088 22.9011 3.70119V1.50744C22.9011 1.07162 22.6001 0.693574 22.1752 0.596309C19.8646 0.0668555 17.4789 0.0668555 15.169 0.596309C14.7442 0.693691 14.443 1.07162 14.443 1.50744V3.70119C13.5259 4.02064 12.6504 4.44287 11.8275 4.96248L10.1111 3.5935C9.7704 3.32174 9.28712 3.3215 8.94598 3.59303C8.01856 4.33154 7.1788 5.16932 6.45024 6.08326C5.72098 6.99768 5.0911 8.00279 4.57794 9.07072C4.38926 9.46354 4.49696 9.93451 4.83774 10.2063L6.55137 11.5729C6.22922 12.4896 6.01337 13.4378 5.90649 14.4057L3.7677 14.8939C3.3429 14.9908 3.04137 15.3685 3.04102 15.8043C3.03997 16.9895 3.17145 18.1683 3.43172 19.3082C3.69176 20.448 4.08481 21.5671 4.60008 22.6348C4.78934 23.0273 5.22493 23.2369 5.64985 23.1398L7.78864 22.6516C8.30473 23.4741 8.91118 24.2336 9.60012 24.9208L8.64751 26.8989C8.45848 27.2916 8.56571 27.7627 8.90626 28.0347C9.8318 28.7743 10.8355 29.4065 11.8894 29.914C12.9431 30.4215 14.0633 30.8118 15.2187 31.0747C15.2879 31.0903 15.3574 31.098 15.4261 31.098C15.779 31.098 16.1098 30.8972 16.268 30.5687L17.2204 28.591C18.1935 28.7023 19.1506 28.7023 20.1237 28.591L21.0762 30.5687C21.2652 30.9613 21.7008 31.1704 22.1255 31.0745C23.2809 30.8118 24.4011 30.4213 25.4548 29.9139C26.5084 29.4064 27.5121 28.774 28.4378 28.0346C28.7782 27.7627 28.8856 27.2914 28.6965 26.8988L27.7439 24.9207C28.4329 24.2337 29.0393 23.474 29.5554 22.6515L31.6942 23.1398ZM28.28 21.1358C27.6807 22.2183 26.9077 23.1868 25.9823 24.0139C25.6717 24.2915 25.5824 24.741 25.7631 25.1163L26.6802 27.0209C26.0338 27.4836 25.3513 27.8887 24.6435 28.2297C23.9358 28.5705 23.1933 28.8515 22.4285 29.0684L21.5115 27.1642C21.3539 26.8369 21.0239 26.635 20.6698 26.635C20.6181 26.635 20.5658 26.6392 20.5137 26.648C19.8972 26.7522 19.2776 26.8051 18.672 26.8051C18.0663 26.8051 17.4469 26.7522 16.8302 26.648C16.4213 26.5785 16.013 26.789 15.8324 27.1641L14.9154 29.0683C14.1506 28.8513 13.4082 28.5703 12.7006 28.2296C11.9926 27.8886 11.31 27.4835 10.6637 27.0208L11.5809 25.1162C11.7616 24.7409 11.6723 24.2914 11.3617 24.0138C10.4361 23.1863 9.66305 22.218 9.06411 21.1356C8.86255 20.7713 8.44407 20.5843 8.03825 20.677L5.9795 21.1469C5.67212 20.4134 5.42895 19.6577 5.25423 18.8921C5.0795 18.1264 4.97075 17.3401 4.92938 16.546L6.9893 16.0757C7.39583 15.983 7.69161 15.6322 7.71458 15.2158C7.78278 13.9761 8.05782 12.7685 8.53184 11.6262C8.69157 11.2413 8.57708 10.7971 8.25118 10.5372L6.60118 9.22131C6.98274 8.52392 7.42196 7.86264 7.91192 7.24846C8.4013 6.63451 8.94821 6.05912 9.5434 5.53166L11.1968 6.85014C11.5227 7.11006 11.9813 7.12295 12.3212 6.88107C13.3322 6.16213 14.4475 5.62436 15.6359 5.28287C16.0364 5.16768 16.3124 4.80123 16.3124 4.38451V2.27232C17.8788 1.99951 19.4648 1.99951 21.0315 2.27232V4.38486C21.0315 4.80158 21.3075 5.16803 21.7081 5.28322C22.8967 5.62494 24.0118 6.16248 25.0225 6.88143C25.3625 7.1233 25.8213 7.11041 26.147 6.85049L27.8004 5.53201C28.3952 6.05936 28.9424 6.63475 29.4321 7.24881C29.9217 7.86275 30.3608 8.52416 30.7426 9.22166L29.0926 10.5376C28.7667 10.7975 28.6522 11.2416 28.812 11.6266C29.2859 12.7686 29.5608 13.9762 29.6292 15.2163C29.6522 15.6325 29.9481 15.9833 30.3545 16.0761L32.4143 16.5463C32.3729 17.3405 32.2642 18.1267 32.0896 18.8924C31.9147 19.6583 31.6716 20.414 31.3643 21.1472L29.3056 20.6773C28.9 20.5844 28.4817 20.7714 28.28 21.1358Z" fill="#282928"/>
<path d="M21.0313 7.92473H19.6293V6.52258C19.6293 6.00637 19.2108 5.58789 18.6946 5.58789C18.1784 5.58789 17.7599 6.00637 17.7599 6.52258V7.92461H16.3579C14.8117 7.92461 13.5537 9.18262 13.5537 10.7288V13.0656C13.5537 14.8696 15.0213 16.3371 16.8252 16.3371H20.5641C21.3373 16.3371 21.9661 16.9661 21.9661 17.7392V20.076C21.9661 20.5914 21.5467 21.0107 21.0314 21.0107H16.3578C15.8424 21.0107 15.4231 20.5913 15.4231 20.076V19.1413C15.4231 18.6251 15.0046 18.2066 14.4884 18.2066C13.9722 18.2066 13.5537 18.6251 13.5537 19.1413V20.076C13.5537 21.6222 14.8117 22.8802 16.3579 22.8802H17.7599V24.2822C17.7599 24.7984 18.1784 25.2169 18.6946 25.2169C19.2108 25.2169 19.6293 24.7984 19.6293 24.2822V22.8802H21.0313C22.5775 22.8802 23.8355 21.6222 23.8355 20.076V17.7392C23.8355 15.9352 22.368 14.4677 20.564 14.4677H16.8251C16.0519 14.4677 15.4231 13.8387 15.4231 13.0656V10.7289C15.4231 10.2135 15.8425 9.79422 16.3578 9.79422H21.0314C21.5468 9.79422 21.9661 10.2136 21.9661 10.7289V11.6636C21.9661 12.1798 22.3846 12.5983 22.9008 12.5983C23.417 12.5983 23.8355 12.1798 23.8355 11.6636V10.7289C23.8354 9.18262 22.5775 7.92473 21.0313 7.92473Z" fill="#282928"/>
<path d="M56.4954 1.51026C56.3964 1.32757 56.2718 1.16655 56.1067 1.05991C55.6438 0.761081 55.1167 1.03835 54.6636 1.2119C53.9903 1.46983 53.3169 1.72788 52.6436 1.98581C50.972 2.62624 49.3004 3.26667 47.6289 3.9071C47.1679 4.0837 46.7068 4.2603 46.2458 4.43702C45.7638 4.62182 45.5228 5.16229 45.7073 5.6444C45.8923 6.12651 46.433 6.3671 46.9146 6.18288L54.0599 3.44526C51.9282 8.90327 47.1687 16.8964 39.6202 23.9796C29.0673 33.8818 15.6766 39.4409 0.8959 40.0557C0.380158 40.0773 -0.0206233 40.5127 0.000822025 41.0285C0.0217986 41.5311 0.435705 41.9244 0.934103 41.9244C0.947111 41.9244 0.96047 41.9241 0.973595 41.9235C9.24856 41.5792 17.074 39.7648 24.2326 36.5306C30.3034 33.7878 35.9108 30.0237 40.8995 25.3427C48.4809 18.2286 53.3486 10.181 55.641 4.52514L58.1921 11.1841C58.3348 11.5563 58.6893 11.7847 59.0652 11.7847C59.1764 11.7847 59.2895 11.7648 59.3994 11.7226C59.8815 11.5378 60.1226 10.9973 59.938 10.5153C59.4394 9.2137 58.9406 7.9121 58.442 6.6105C58.0637 5.62319 57.6854 4.63577 57.3071 3.64846C57.1387 3.20889 56.9538 2.77237 56.8083 2.32553C56.726 2.07358 56.6364 1.77007 56.4954 1.51026Z" fill="#282928"/>
<path d="M56.5509 20.543H49.0731C47.5269 20.543 46.2689 21.801 46.2689 23.3471V57.932H43.9321V36.9007C43.9321 35.3545 42.6741 34.0965 41.1279 34.0965H33.65C32.1039 34.0965 30.8459 35.3545 30.8459 36.9007V57.932H28.509V43.9111C28.509 42.3649 27.251 41.1069 25.7048 41.1069H18.227C16.6808 41.1069 15.4228 42.3649 15.4228 43.9111V57.932H13.086V46.7153C13.086 45.1691 11.828 43.9111 10.2818 43.9111H2.80418C1.25801 43.9111 0 45.1691 0 46.7153V58.8667C0 59.3829 0.418477 59.8014 0.934687 59.8014H58.4203C58.9365 59.8014 59.355 59.3829 59.355 58.8667V23.3471C59.3551 21.801 58.0971 20.543 56.5509 20.543ZM48.1384 23.3471C48.1384 22.8318 48.5578 22.4125 49.0731 22.4125H56.5509C57.0663 22.4125 57.4856 22.8319 57.4856 23.3471V57.932H48.1384V23.3471ZM32.7155 36.9007C32.7155 36.3853 33.1349 35.966 33.6502 35.966H41.128C41.6434 35.966 42.0627 36.3854 42.0627 36.9007V57.932H32.7155V36.9007ZM17.2924 43.9111C17.2924 43.3957 17.7118 42.9764 18.2271 42.9764H25.705C26.2204 42.9764 26.6396 43.3958 26.6396 43.9111V57.932H17.2924V43.9111ZM2.80418 45.7806H10.282C10.7974 45.7806 11.2167 46.2 11.2167 46.7153V57.932H1.86949V46.7153C1.86949 46.2 2.28891 45.7806 2.80418 45.7806Z" fill="#282928"/>
</g>
<defs>
<clipPath id="clip0_3739_700">
<rect width="60" height="60" fill="white"/>
</clipPath>
</defs>
</svg>
