<svg width="60" height="60" viewBox="0 0 60 60" fill="none" xmlns="http://www.w3.org/2000/svg">
<path d="M11.288 40.5907C11.288 40.1377 11.6552 39.7704 12.1083 39.7704H31.9404C32.3934 39.7704 32.7607 40.1377 32.7607 40.5907C32.7607 41.0438 32.3934 41.411 31.9404 41.411H12.1083C11.6552 41.411 11.288 41.0438 11.288 40.5907ZM12.1083 35.3295H26.5962C27.0492 35.3295 27.4165 34.9622 27.4165 34.5091C27.4165 34.0561 27.0492 33.6888 26.5962 33.6888H12.1083C11.6552 33.6888 11.288 34.0561 11.288 34.5091C11.288 34.9622 11.6552 35.3295 12.1083 35.3295ZM45.685 47.3115V57.0451C45.685 58.093 44.8325 58.9454 43.7846 58.9454H30.7103C29.6624 58.9454 28.81 58.093 28.81 57.0451V51.1014C26.6333 51.607 24.356 51.8637 22.0243 51.8637C21.0578 51.8637 20.0863 51.8184 19.1319 51.7291L9.00012 58.798C8.85914 58.8963 8.69496 58.9456 8.53078 58.9456C8.37035 58.9456 8.21004 58.8987 8.07105 58.8046C7.78992 58.6143 7.65492 58.2704 7.73168 57.9397L9.7657 49.1774C4.29727 46.4947 1.05469 42.1857 1.05469 37.5499C1.05469 34.3706 2.53594 31.3655 5.33824 28.8594C8.01926 26.4619 11.6675 24.7317 15.8888 23.8561C16.3323 23.7643 16.7666 24.0491 16.8586 24.4927C16.9506 24.9363 16.6656 25.3705 16.222 25.4625C12.3396 26.2678 8.86266 27.9086 6.43195 30.0823C3.98742 32.2684 2.69531 34.8506 2.69531 37.5499C2.69531 41.694 5.82012 45.59 11.0542 47.9716C11.4097 48.1334 11.6018 48.5234 11.5134 48.9038L9.8127 56.2304L18.4417 50.21C18.6033 50.0973 18.7998 50.0468 18.9959 50.0668C19.9918 50.1703 21.0107 50.2228 22.0243 50.2228C24.3643 50.2228 26.6435 49.9502 28.81 49.4138V47.3114C28.81 46.2635 29.6624 45.4111 30.7103 45.4111H37.1584C39.8658 43.1747 41.3534 40.3924 41.3534 37.5498C41.3534 34.5125 39.6704 31.5681 36.6145 29.2589C36.2531 28.9857 36.1815 28.4714 36.4546 28.1099C36.7277 27.7485 37.2421 27.6769 37.6036 27.95C41.0796 30.5767 42.994 33.9859 42.994 37.5498C42.994 40.3616 41.7911 43.0939 39.5685 45.4111H43.7845C44.8324 45.4111 45.685 46.2636 45.685 47.3115ZM44.0443 47.3115C44.0443 47.1708 43.9254 47.0518 43.7846 47.0518H30.7103C30.5695 47.0518 30.4506 47.1708 30.4506 47.3115V57.0451C30.4506 57.1859 30.5695 57.3048 30.7103 57.3048H43.7846C43.9254 57.3048 44.0443 57.1859 44.0443 57.0451V47.3115ZM40.4082 52.1782C40.4082 52.4713 40.2519 52.7421 39.9981 52.8886L35.3171 55.5911C35.1902 55.6643 35.0486 55.701 34.907 55.701C34.7654 55.701 34.6237 55.6644 34.4968 55.5911C34.243 55.4446 34.0867 55.1738 34.0867 54.8807V49.4756C34.0867 49.1825 34.243 48.9117 34.4968 48.7652C34.7507 48.6186 35.0633 48.6186 35.3171 48.7652L39.9981 51.4678C40.2519 51.6144 40.4082 51.8851 40.4082 52.1782ZM37.9473 52.1782L35.7273 50.8965V53.4599L37.9473 52.1782ZM53.5916 9.62848C53.7308 9.62848 53.8718 9.59309 54.0011 9.51844L57.1692 7.68938C57.5616 7.46285 57.696 6.96117 57.4695 6.56883C57.243 6.17649 56.7415 6.04207 56.3489 6.2686L53.1807 8.09766C52.7884 8.32418 52.654 8.82586 52.8805 9.21821C53.0324 9.48129 53.3081 9.62848 53.5916 9.62848ZM48.311 5.92746C48.4403 6.00211 48.5812 6.0375 48.7205 6.0375C49.0039 6.0375 49.2797 5.89043 49.4316 5.62723L51.3611 2.28528C51.5876 1.89293 51.4532 1.39125 51.0608 1.16473C50.6685 0.938206 50.1668 1.07262 49.9403 1.46496L48.0108 4.80692C47.7843 5.19926 47.9187 5.70094 48.311 5.92746ZM53.4457 14.8208C53.4457 15.2739 53.813 15.6411 54.266 15.6411H58.125C58.578 15.6411 58.9453 15.2739 58.9453 14.8208C58.9453 14.3678 58.578 14.0005 58.125 14.0005H54.266C53.813 14.0005 53.4457 14.3678 53.4457 14.8208ZM18.692 23.8234C19.1282 22.1953 20.1673 20.8376 21.618 20L25.9088 17.5228C26.0971 17.4139 26.3211 17.3844 26.5312 17.4408C26.6142 17.4631 26.692 17.4983 26.7629 17.5439C31.1725 14.2438 34.6494 10.4232 36.6413 6.68379L36.5658 6.55313C35.6363 4.94321 36.1898 2.87719 37.7998 1.94754C39.4099 1.01813 41.4758 1.57172 42.4054 3.18153L45.7527 8.97926C47.5307 8.05946 49.743 8.69426 50.7541 10.4457C51.7652 12.1971 51.2088 14.4301 49.5234 15.5104L52.8708 21.3081C53.3197 22.0856 53.4382 22.9938 53.2046 23.8657C52.971 24.7375 52.4142 25.4648 51.6367 25.9138C51.1198 26.2123 50.5451 26.3647 49.9617 26.3647C49.6676 26.3647 49.3713 26.3259 49.0792 26.2477C48.2074 26.0141 47.48 25.4572 47.0312 24.6798L46.9557 24.5491C42.7586 24.4055 37.7617 25.4861 32.7431 27.6176L38.666 35.5901C39.2571 36.3858 39.1534 37.4844 38.4247 38.1456L37.1217 39.328C36.7687 39.6482 36.3086 39.8241 35.8364 39.8241C35.7757 39.8241 35.7149 39.8211 35.6541 39.8153C35.1259 39.7643 34.6413 39.492 34.3247 39.068L28.1283 30.7765L27.9121 30.9013C26.9479 31.4579 25.8755 31.7423 24.7867 31.7423C24.2373 31.7423 23.6838 31.6699 23.1379 31.5237C21.5098 31.0875 20.152 30.0483 19.3145 28.5976C18.4768 27.1468 18.2558 25.4514 18.692 23.8234ZM37.3489 36.5684L31.5698 28.7893L29.559 29.9503L35.6389 38.0859C35.6919 38.157 35.7621 38.1775 35.8117 38.1823C35.8561 38.1865 35.9418 38.1832 36.0192 38.1129L37.3221 36.9306C37.4245 36.8377 37.4359 36.6853 37.3489 36.5684ZM46.5752 10.404L48.7009 14.0857C49.6032 13.4603 49.892 12.2337 49.3334 11.2661C48.7747 10.2986 47.568 9.93528 46.5752 10.404ZM37.9866 5.73282L48.4519 23.8594C48.6817 24.2573 49.0552 24.5427 49.5037 24.6628C49.9522 24.7828 50.4183 24.7227 50.8164 24.4929C51.2143 24.2632 51.4997 23.8896 51.6199 23.4411C51.74 22.9927 51.6797 22.5265 51.45 22.1285L40.9846 4.00196C40.6644 3.44731 40.0813 3.13688 39.4827 3.13688C39.1893 3.13688 38.8921 3.21141 38.6202 3.36844C38.2222 3.59813 37.9369 3.97172 37.8168 4.4202C37.6966 4.86868 37.7569 5.33485 37.9866 5.73282ZM27.6626 18.9198L31.8696 26.2068C36.7898 24.0871 41.7255 22.9345 46.0022 22.8976L37.5947 8.33508C35.4245 12.0203 31.9584 15.7186 27.6626 18.9198ZM20.7352 27.7772C21.3536 28.8484 22.3576 29.6161 23.5623 29.9388C24.7669 30.2617 26.0203 30.0988 27.0915 29.4804L30.6718 27.4133L26.0186 19.3536L22.4382 21.4207C21.367 22.0391 20.5995 23.0432 20.2766 24.2479C19.9537 25.4525 20.1168 26.7061 20.7352 27.7772ZM5.55504 10.5377C5.55504 7.79039 7.79016 5.55516 10.5376 5.55516C13.2851 5.55516 15.5202 7.79028 15.5202 10.5377C15.5202 13.2851 13.2851 15.5202 10.5376 15.5202C7.79016 15.5202 5.55504 13.2851 5.55504 10.5377ZM7.19566 10.5377C7.19566 12.3805 8.69484 13.8796 10.5376 13.8796C12.3804 13.8796 13.8796 12.3805 13.8796 10.5377C13.8796 8.69496 12.3804 7.19578 10.5376 7.19578C8.69484 7.19578 7.19566 8.69496 7.19566 10.5377ZM1.05469 11.404V9.67149C1.05469 8.90532 1.67789 8.28211 2.44395 8.28211C3.12246 8.28211 3.39012 7.76344 3.45586 7.60442C3.52172 7.44539 3.69937 6.88934 3.21949 6.40957C2.95711 6.14731 2.8125 5.79844 2.8125 5.42719C2.8125 5.05606 2.95699 4.70707 3.21949 4.44469L4.44445 3.21961C4.98609 2.67785 5.86758 2.67785 6.40934 3.21961C6.88922 3.6995 7.44527 3.52184 7.60418 3.45598C7.7632 3.39012 8.28187 3.12258 8.28187 2.44407C8.28187 1.67789 8.90508 1.05469 9.67113 1.05469H11.4036C12.1697 1.05469 12.7929 1.67789 12.7929 2.44407C12.7929 3.12258 13.3116 3.39012 13.4706 3.45598C13.6295 3.52184 14.1858 3.69926 14.6654 3.21961C15.2072 2.67785 16.0886 2.67785 16.6303 3.21961L17.8554 4.44469C18.1178 4.70707 18.2623 5.05594 18.2623 5.42707C18.2623 5.79821 18.1178 6.14719 17.8553 6.40957C17.3755 6.88934 17.5532 7.44539 17.619 7.60442C17.6849 7.76332 17.9524 8.28211 18.6309 8.28211C19.397 8.28211 20.0202 8.90532 20.0202 9.67149V11.404C20.0202 12.17 19.397 12.7932 18.6309 12.7932C17.9524 12.7932 17.6848 13.3119 17.619 13.4709C17.5532 13.6298 17.3755 14.186 17.8554 14.6658C18.3971 15.2075 18.3971 16.089 17.8554 16.6307L16.6303 17.8557C16.368 18.1181 16.0191 18.2627 15.6479 18.2627C15.2768 18.2627 14.9278 18.1182 14.6654 17.8557C14.1857 17.3761 13.6297 17.5535 13.4706 17.6195C13.3117 17.6854 12.7929 17.9529 12.7929 18.6315C12.7929 19.3976 12.1697 20.0208 11.4036 20.0208H9.67137C8.90531 20.0208 8.28211 19.3976 8.28211 18.6315C8.28211 17.9515 7.76379 17.6839 7.605 17.6182C7.44598 17.5523 6.89039 17.3749 6.40957 17.8559C6.1473 18.1182 5.79832 18.2629 5.42719 18.2629C5.05605 18.2629 4.70695 18.1184 4.44469 17.8559L3.21973 16.6309C2.95734 16.3686 2.81273 16.0197 2.81273 15.6484C2.81273 15.2773 2.95723 14.9283 3.21973 14.6659C3.69949 14.1861 3.52184 13.6301 3.45598 13.4712C3.39012 13.3122 3.12258 12.7935 2.44406 12.7935C1.67789 12.7932 1.05469 12.17 1.05469 11.404ZM2.69531 11.1635C3.71379 11.2522 4.5723 11.8787 4.97168 12.8432C5.37117 13.8076 5.20711 14.8577 4.54957 15.6407L5.43469 16.5258C6.2182 15.8675 7.26855 15.7031 8.23266 16.1024C9.19687 16.5018 9.82312 17.3607 9.91172 18.3803H11.1633C11.252 17.3618 11.8785 16.5033 12.8429 16.1038C13.8073 15.7045 14.8574 15.8684 15.6404 16.5258L16.5255 15.6407C15.868 14.8577 15.7041 13.8076 16.1034 12.8432C16.5029 11.8788 17.3613 11.2522 18.3798 11.1635V9.91196C17.3613 9.82325 16.5028 9.19676 16.1034 8.23231C15.7041 7.26785 15.868 6.21785 16.5254 5.43481L15.6403 4.54969C14.8571 5.20711 13.8071 5.37106 12.8428 4.97168C11.8785 4.57219 11.252 3.71379 11.1633 2.69532H9.91172C9.82301 3.71379 9.19652 4.57231 8.23219 4.97168C7.26773 5.37117 6.21762 5.20711 5.43469 4.54957L4.54957 5.43469C5.20699 6.21785 5.37105 7.26785 4.97156 8.23219C4.5723 9.19676 3.71379 9.82325 2.69531 9.91196V11.1635ZM58.8809 32.9733C58.5913 35.4023 57.4233 37.7132 56.7527 38.8744C56.0822 40.0356 54.6652 42.2025 52.7064 43.6678C51.4364 44.6179 50.1575 45.0957 48.9184 45.0957C48.0531 45.0957 47.207 44.8628 46.3966 44.3948L46.102 44.2247C45.6166 43.9445 45.2694 43.4913 45.1239 42.9484C44.9784 42.4056 45.0526 41.8395 45.3328 41.3542L46.5107 39.3141C47.0899 38.3106 48.3777 37.9656 49.3812 38.5448L50.0721 38.9438C50.2679 39.057 50.4997 39.0186 50.649 38.8486C51.2932 38.1141 51.8865 37.2797 52.4126 36.3686C52.9386 35.4574 53.3646 34.5263 53.6786 33.6013C53.7512 33.3871 53.6685 33.1671 53.4727 33.054L52.7817 32.6552C52.2963 32.375 51.9491 31.9218 51.8036 31.3789C51.6581 30.8361 51.7323 30.2699 52.0125 29.7846L53.1903 27.7445C53.7695 26.7411 55.0573 26.3961 56.0609 26.9753L56.3556 27.1454C58.3266 28.2833 59.1997 30.2985 58.8809 32.9733ZM55.5353 28.5662L55.2407 28.3961C55.0207 28.269 54.7382 28.3447 54.6112 28.5647L53.4334 30.6048C53.3723 30.7106 53.3563 30.8346 53.3884 30.9541C53.4204 31.0737 53.4963 31.1732 53.6021 31.2342L54.2931 31.633C55.1723 32.1408 55.5586 33.1669 55.2322 34.1284C54.8838 35.155 54.4132 36.1846 53.8335 37.1888C53.2539 38.1927 52.5974 39.1151 51.8825 39.9304C51.2129 40.694 50.1313 40.8723 49.2519 40.3647L48.561 39.9659C48.4887 39.9241 48.4096 39.9042 48.3314 39.9042C48.172 39.9042 48.0168 39.9868 47.9314 40.1345L46.7536 42.1746C46.6925 42.2804 46.6765 42.4044 46.7086 42.5239C46.7406 42.6435 46.8165 42.743 46.9223 42.804L47.217 42.9742C48.6139 43.7807 50.088 43.5778 51.7236 42.3541C53.5121 41.0162 54.8428 38.9013 55.3321 38.0541C55.8212 37.2069 56.9875 34.9969 57.2518 32.7791C57.4936 30.7507 56.9321 29.3727 55.5353 28.5662Z" fill="#282928"/>
</svg>
