<svg width="60" height="60" viewBox="0 0 60 60" fill="none" xmlns="http://www.w3.org/2000/svg">
<g clip-path="url(#clip0_3739_684)">
<path d="M19.8398 25.4785H22.308C22.7936 25.4785 23.187 25.085 23.187 24.5996C23.187 24.1142 22.7936 23.7207 22.308 23.7207H19.8398C19.3543 23.7207 18.9609 24.1142 18.9609 24.5996C18.9609 25.085 19.3545 25.4785 19.8398 25.4785Z" fill="#282928"/>
<path d="M16.4932 29.5352C16.4932 30.0205 16.8866 30.4141 17.3721 30.4141H22.3082C22.7937 30.4141 23.1871 30.0205 23.1871 29.5352C23.1871 29.0498 22.7937 28.6562 22.3082 28.6562H17.3721C16.8866 28.6562 16.4932 29.0498 16.4932 29.5352Z" fill="#282928"/>
<path d="M22.3081 33.5918H14.6792C14.1937 33.5918 13.8003 33.9853 13.8003 34.4707C13.8003 34.9561 14.1937 35.3496 14.6792 35.3496H22.3081C22.7936 35.3496 23.187 34.9561 23.187 34.4707C23.187 33.9853 22.7935 33.5918 22.3081 33.5918Z" fill="#282928"/>
<path d="M59.0251 18.4358C59.0241 18.4349 59.0232 18.4338 59.0222 18.433C59.0208 18.4318 59.0193 18.4308 59.0177 18.4295C58.9546 18.3745 58.8889 18.3221 58.8211 18.2729C58.8207 18.2727 58.8204 18.2725 58.82 18.2722C58.4835 18.028 58.0918 17.8557 57.6674 17.7776C57.662 17.7765 57.6565 17.7756 57.6511 17.7746C57.5735 17.7608 53.7802 17.7298 53.7802 17.7298C53.6982 17.3528 53.8039 16.9584 54.0785 16.6841L54.5525 16.2101C55.6784 15.0841 55.6784 13.2521 54.5525 12.1262L47.8743 5.44781C46.7482 4.32188 44.9163 4.32188 43.7902 5.44781L43.3162 5.92172C42.9709 6.26707 42.4354 6.34641 41.9842 6.11918C40.8319 5.53945 39.6294 5.04035 38.4101 4.63582C37.9316 4.47715 37.6102 4.04297 37.6102 3.55547V2.88773C37.61 1.29539 36.3146 0 34.7223 0H25.2776C23.6852 0 22.3898 1.29539 22.3898 2.88773V3.55547C22.3898 4.04297 22.0684 4.47703 21.59 4.6357C20.3706 5.04023 19.1681 5.53922 18.0159 6.11906C17.5644 6.34617 17.0292 6.26695 16.684 5.92172L16.2098 5.44758C15.084 4.32176 13.2518 4.32176 12.1259 5.44758L5.44746 12.1259C4.32164 13.2518 4.32164 15.0839 5.44758 16.2098L5.9216 16.6839C6.26684 17.0291 6.34617 17.5644 6.11918 18.0159C5.53934 19.1682 5.04023 20.3707 4.63582 21.59C4.47715 22.0685 4.04285 22.3898 3.55547 22.3898H2.88785C1.29551 22.39 0 23.6854 0 25.2777V34.7223C0 36.3146 1.29551 37.61 2.88785 37.61H3.55547C4.04285 37.61 4.47703 37.9315 4.63582 38.4098C5.04012 39.6289 5.53922 40.8315 6.11906 41.9839C6.34617 42.4355 6.26695 42.9708 5.92172 43.316L5.44746 43.7902C4.32164 44.9161 4.32164 46.7481 5.44746 47.874L12.1259 54.5523C12.6712 55.0977 13.3965 55.3982 14.1679 55.3982C14.9392 55.3982 15.6645 55.0978 16.21 54.5523L16.684 54.0783C17.0291 53.7332 17.5643 53.6536 18.0159 53.8808C19.1682 54.4605 20.3707 54.9596 21.59 55.3641C22.0684 55.5227 22.3898 55.9569 22.3898 56.4444V57.1121C22.3898 58.7045 23.6852 59.9999 25.2776 59.9999H34.7223C36.3146 59.9999 37.61 58.7045 37.61 57.1121V56.4444C37.61 55.9569 37.9315 55.5229 38.41 55.3642C39.6294 54.9595 40.8319 54.4605 41.9841 53.8808C42.4356 53.6536 42.9708 53.7329 43.316 54.0782L43.79 54.5523C44.3354 55.0977 45.0607 55.3982 45.832 55.3982C46.6035 55.3982 47.3286 55.0978 47.8741 54.5523L54.5524 47.874C55.6782 46.7481 55.6782 44.9161 54.5524 43.7902L54.0783 43.316C53.733 42.9708 53.6537 42.4355 53.8807 41.9841C54.3877 40.9766 54.9887 39.4403 55.402 38.255H57.1505C58.7216 38.255 59.9998 36.9768 59.9998 35.4056V20.5791C60 19.7252 59.622 18.9585 59.0251 18.4358ZM49.5134 27.9923L58.2325 20.4414C58.2382 20.4866 58.2382 35.4981 58.2325 35.5433L49.5134 27.9923ZM45.0436 29.5378C43.5626 30.8204 41.3284 30.8207 39.8471 29.5378L28.2421 19.4875H56.6488L45.0436 29.5378ZM26.6583 35.5432C26.6525 35.4981 26.6525 20.4865 26.6583 20.4412L35.3774 27.9922L26.6583 35.5432ZM52.8354 44.559L53.3094 45.033C53.75 45.4737 53.75 46.1904 53.3094 46.631L46.6311 53.3093C46.4177 53.5227 46.134 53.6402 45.8321 53.6402C45.5304 53.6402 45.2467 53.5227 45.0333 53.3093L44.5591 52.8352C43.6767 51.9526 42.3244 51.7418 41.1941 52.3105C40.118 52.8519 38.9951 53.318 37.8567 53.6957C36.6579 54.0933 35.8523 55.1979 35.8523 56.4444V57.1121C35.8523 57.7352 35.3455 58.2421 34.7224 58.2421H25.2777C24.6547 58.2421 24.1478 57.7352 24.1478 57.1121V56.4444C24.1478 55.198 23.3423 54.0934 22.1435 53.6957C21.005 53.3181 19.8821 52.852 18.8061 52.3106C17.6759 51.7419 16.3236 51.9529 15.441 52.8354L14.9671 53.3094C14.7536 53.5228 14.4698 53.6404 14.168 53.6404C13.8662 53.6404 13.5825 53.5228 13.3691 53.3094L6.6907 46.6311C6.25008 46.1905 6.25008 45.4738 6.69059 45.0332L7.16484 44.559C8.04727 43.6765 8.25809 42.3241 7.68961 41.194C7.14797 40.1176 6.68191 38.9947 6.30434 37.8565C5.90672 36.6578 4.80211 35.8522 3.5557 35.8522H2.88809C2.265 35.8522 1.75805 35.3453 1.75805 34.7223V25.2777C1.75805 24.6546 2.26488 24.1477 2.88809 24.1477H3.5557C4.80211 24.1477 5.90672 23.3422 6.30434 22.1434C6.68203 21.005 7.14809 19.8821 7.68961 18.8059C8.2582 17.6757 8.04738 16.3234 7.16473 15.4409L6.6907 14.9668C6.25008 14.5262 6.25008 13.8094 6.6907 13.3688L13.3691 6.69047C13.8097 6.24973 14.5267 6.2502 14.9671 6.69047L15.4411 7.16461C16.3236 8.04715 17.6761 8.25797 18.8062 7.68937C19.8824 7.14785 21.0052 6.68191 22.1436 6.30422C23.3423 5.90648 24.1479 4.80199 24.1479 3.55547V2.88773C24.1479 2.26465 24.6547 1.75781 25.2778 1.75781H34.7225C35.3455 1.75781 35.8525 2.26465 35.8525 2.88773V3.55547C35.8525 4.80199 36.6579 5.9066 37.8568 6.30422C38.9953 6.68191 40.1182 7.14785 41.1942 7.68937C42.3241 8.25809 43.6767 8.04727 44.5594 7.16461L45.0334 6.69059C45.4739 6.24984 46.1909 6.25008 46.6314 6.69059L53.3096 13.369C53.7503 13.8096 53.7503 14.5263 53.3096 14.967L52.8357 15.441C52.2223 16.0543 51.9342 16.8947 52.0059 17.7296H47.3777C43.3889 12.0902 36.9043 8.72672 30 8.72672C26.2759 8.72672 22.6109 9.70324 19.4016 11.5508C18.9809 11.7929 18.8363 12.3304 19.0784 12.7511C19.3205 13.1719 19.8577 13.3164 20.2786 13.0743C23.2216 11.3801 26.5832 10.4845 30 10.4845C35.9079 10.4845 41.4805 13.1699 45.1734 17.7296C45.1734 17.7296 27.3173 17.7607 27.2396 17.7745C27.2343 17.7755 27.2288 17.7764 27.2234 17.7775C26.7989 17.8556 26.4071 18.0278 26.0706 18.2721C26.0702 18.2723 26.0699 18.2726 26.0695 18.2728C26.0017 18.3221 25.9361 18.3744 25.8729 18.4294C25.8715 18.4305 25.87 18.4316 25.8684 18.4329C25.8674 18.4338 25.8666 18.4349 25.8655 18.4357C25.2687 18.9584 24.8906 19.7251 24.8906 20.5789V35.4055C24.8906 36.9766 26.1688 38.2549 27.7399 38.2549H39.0363C39.5218 38.2549 39.9152 37.8614 39.9152 37.376C39.9152 36.8906 39.5218 36.4971 39.0363 36.4971H28.2417L36.7198 29.155L38.6961 30.8665C39.7648 31.7919 41.105 32.2547 42.4451 32.2547C43.7854 32.2547 45.1255 31.7919 46.1941 30.8665L48.1705 29.155L56.6486 36.4971H43.138C42.6525 36.4971 42.2591 36.8906 42.2591 37.376C42.2591 37.8614 42.6525 38.2549 43.138 38.2549H47.6864C46.2008 41.4363 43.8935 44.1518 40.9693 46.1429C37.7292 48.3492 33.9359 49.5154 29.9998 49.5154C19.2389 49.5154 10.4843 40.7607 10.4843 29.9999C10.4843 24.3697 12.9172 19.0131 17.1591 15.3036C17.5245 14.9841 17.5616 14.4288 17.242 14.0634C16.9225 13.6979 16.3672 13.6609 16.0018 13.9804C11.3786 18.0238 8.72672 23.8627 8.72672 30C8.72672 41.7301 18.2699 51.2733 30 51.2733C34.2905 51.2733 38.4258 50.0017 41.9589 47.5961C45.371 45.2727 48.0134 42.0442 49.6098 38.2552H53.5595C53.2079 39.2569 52.7887 40.2437 52.3105 41.1941C51.7419 42.3243 51.953 43.6766 52.8354 44.559Z" fill="#282928"/>
</g>
<defs>
<clipPath id="clip0_3739_684">
<rect width="60" height="60" fill="white"/>
</clipPath>
</defs>
</svg>
