<svg width="60" height="60" viewBox="0 0 60 60" fill="none" xmlns="http://www.w3.org/2000/svg">
<g clip-path="url(#clip0_3738_666)">
<path d="M55.9228 31.3462C53.1657 28.6014 49.9783 31.1704 49.9783 31.1704V16.721C49.9783 16.2357 49.585 15.8421 49.0998 15.8421C48.6141 15.8421 48.2209 16.2357 48.2209 16.721V32.4068C48.2209 32.4068 44.0301 35.7105 42.2287 36.518V10.5013C42.2287 9.29189 43.2125 8.30815 44.4219 8.30815H46.0277C47.2372 8.30815 48.2209 9.29189 48.2209 10.5013V13.1229C48.2209 13.6086 48.6141 14.0018 49.0998 14.0018C49.585 14.0018 49.9783 13.6086 49.9783 13.1229V10.5013C49.9783 8.32279 48.2063 6.55078 46.0277 6.55078H44.4219C42.2434 6.55078 40.4709 8.32279 40.4709 10.5013V37.2147C39.9468 37.3617 39.4089 37.4615 38.8623 37.5141V18.9851C38.8623 16.7956 37.0812 15.0144 34.8921 15.0144H33.3252C31.1361 15.0144 29.355 16.7956 29.355 18.9851V27.9399L27.7459 28.7941V25.814C27.7459 23.8429 26.1424 22.2394 24.1717 22.2394H21.8133C19.8421 22.2394 18.239 23.8429 18.239 25.814V33.8405L15.3693 35.3635L7.31078 37.6665C5.90864 38.0671 4.73767 38.9854 4.0144 40.2515C3.29067 41.5182 3.09429 42.9931 3.46142 44.4044L4.36276 47.8724C4.48453 48.3421 4.96427 48.6236 5.43439 48.5019C5.90406 48.3796 6.18605 47.8999 6.06382 47.4298L5.16248 43.9622C4.63971 41.9508 5.79557 39.9274 7.79418 39.3566L15.1619 37.2509L20.6995 52.0303C21.0703 53.02 21.0117 55.8435 18.0825 56.884L12.5147 58.1488C10.5742 58.5892 8.6621 57.426 8.16131 55.4997L7.03108 51.1505C6.90886 50.6808 6.42912 50.3988 5.95945 50.5206C5.48933 50.6428 5.2078 51.1226 5.32957 51.5927L6.46025 55.9424C7.09563 58.386 9.26636 60.0005 11.6829 60.0005C13.4586 60.0005 18.472 58.5979 18.472 58.5979C19.9978 58.2518 21.2987 57.2631 22.0408 55.8861C22.6533 54.7499 22.835 53.4425 22.5723 52.197L41.8351 47.481C43.4281 47.0906 44.9405 46.3339 46.2076 45.2925L55.5818 37.5901C58.4396 35.0554 56.7633 32.1825 55.9228 31.3462ZM33.3252 16.7722H34.8921C36.1121 16.7722 37.1045 17.7651 37.1045 18.9851V37.558L31.5587 37.5558C31.0492 37.5512 31.4016 37.2147 31.4296 37.1918L33.0267 35.8982C34.5167 34.6911 35.49 33.0129 35.9189 30.9094C36.1913 29.5751 35.6822 28.2393 34.5914 27.4236C33.5724 26.6618 32.2618 26.5153 31.1128 27.0189V18.9851C31.1128 17.7651 32.1052 16.7722 33.3252 16.7722ZM19.9969 25.814C19.9969 24.8125 20.8117 23.9972 21.8133 23.9972H24.1717C25.1733 23.9972 25.9886 24.8125 25.9886 25.814V29.727L19.9964 32.9076V25.814H19.9969ZM54.4662 36.2324L45.0916 43.9347C44.0268 44.81 42.7561 45.4458 41.4171 45.7736L22.0124 50.5247L16.7939 36.5981L31.6942 28.6888C32.2998 28.367 32.9896 28.4206 33.5385 28.8312C34.0874 29.2418 34.3336 29.8873 34.1968 30.5583C33.8512 32.2516 33.0853 33.5888 31.9203 34.5322L30.3232 35.8263C29.6685 36.3564 29.4273 37.212 29.7084 38.0062C29.9894 38.8 30.7155 39.3136 31.5577 39.3136L37.9614 39.3163H37.966C40.2457 39.3163 42.4366 38.6233 44.3015 37.3118L51.4582 32.2791C52.4603 31.5741 53.8093 31.6986 54.6653 32.5748C55.1584 33.0783 56.1233 34.5748 54.4662 36.2324Z" fill="#282928"/>
<path d="M17.3338 52.5919C17.3338 50.6826 15.7806 49.1289 13.8712 49.1289C11.9619 49.1289 10.4087 50.6826 10.4087 52.5919C10.4087 54.5008 11.9619 56.0545 13.8712 56.0545C15.7806 56.0545 17.3338 54.5008 17.3338 52.5919ZM12.1665 52.5919C12.1665 51.6517 12.931 50.8867 13.8712 50.8867C14.811 50.8867 15.576 51.6517 15.576 52.5919C15.576 53.5317 14.8115 54.2966 13.8712 54.2966C12.931 54.2966 12.1665 53.5317 12.1665 52.5919Z" fill="#282928"/>
<path d="M7.55049 27.5955L20.3267 14.7208L23.2006 16.2072C24.2301 16.7396 25.483 16.5574 26.318 15.7536L33.2724 9.0592C33.2724 9.0592 33.081 12.4975 35.9764 12.4975C37.4669 12.4975 38.68 11.2844 38.68 9.79345V2.70357C38.68 2.69533 38.6795 2.68663 38.6795 2.67793C38.6699 0.828099 37.3172 0 35.9764 0H28.9483C27.4574 0 26.2447 1.21308 26.2447 2.70357C26.2447 5.67539 29.2692 5.40714 29.2692 5.40714L23.9637 10.514L21.0482 9.00609C19.9939 8.46044 18.7236 8.66048 17.8868 9.50277L3.71257 23.7865C2.66246 24.8448 2.66886 26.5601 3.72722 27.6102C4.23717 28.116 5.97852 29.1675 7.55049 27.5955ZM4.95999 25.0247L19.1343 10.741C19.3174 10.557 19.6113 10.2347 20.2407 10.5675L23.7156 12.3647C24.0502 12.5378 24.4576 12.4787 24.7291 12.2173L32.0588 5.16177C32.317 4.91321 32.3985 4.53234 32.2644 4.20001C32.1303 3.86721 31.808 3.64977 31.4491 3.64977H28.9483C28.4269 3.64977 28.0026 3.22542 28.0026 2.70357C28.0026 2.18217 28.4269 1.75782 28.9483 1.75782H35.9764C36.235 1.75782 36.9217 1.75782 36.9217 2.69807C36.9217 2.70586 36.9221 2.71364 36.9221 2.72188V9.79345C36.9221 10.3148 36.4978 10.7392 35.9764 10.7392C35.4546 10.7392 35.0302 10.3148 35.0302 9.79345V6.9933C35.0302 6.64082 34.8196 6.32221 34.4955 6.18442C34.1714 6.04618 33.7961 6.11576 33.542 6.36021L25.099 14.4874C24.8069 14.7685 24.3684 14.8325 24.0086 14.6462L20.5616 12.8632C20.2205 12.687 19.8044 12.7525 19.5339 13.0248L6.30307 26.3573C5.72629 26.9341 5.14355 26.5395 4.96502 26.3623C4.59515 25.9947 4.59286 25.3946 4.95999 25.0247Z" fill="#282928"/>
</g>
<defs>
<clipPath id="clip0_3738_666">
<rect width="60" height="60" fill="white"/>
</clipPath>
</defs>
</svg>
