<svg width="60" height="60" viewBox="0 0 60 60" fill="none" xmlns="http://www.w3.org/2000/svg">
<g clip-path="url(#clip0_3738_674)">
<path d="M30 16.875C31.6688 16.875 33.3001 16.3802 34.6876 15.453C36.0752 14.5259 37.1566 13.2081 37.7952 11.6664C38.4338 10.1246 38.6009 8.42814 38.2754 6.79143C37.9498 5.15471 37.1462 3.6513 35.9662 2.47129C34.7862 1.29128 33.2828 0.487691 31.6461 0.162128C30.0094 -0.163435 28.3129 0.00365585 26.7711 0.64227C25.2294 1.28088 23.9116 2.36234 22.9845 3.74988C22.0574 5.13742 21.5625 6.76872 21.5625 8.4375C21.565 10.6745 22.4547 12.8192 24.0365 14.401C25.6183 15.9828 27.763 16.8725 30 16.875ZM30 1.875C31.2979 1.875 32.5667 2.25989 33.6459 2.98098C34.7251 3.70208 35.5663 4.727 36.063 5.92614C36.5597 7.12528 36.6896 8.44478 36.4364 9.71778C36.1832 10.9908 35.5582 12.1601 34.6404 13.0779C33.7226 13.9957 32.5533 14.6207 31.2803 14.8739C30.0073 15.1271 28.6878 14.9972 27.4886 14.5005C26.2895 14.0038 25.2646 13.1626 24.5435 12.0834C23.8224 11.0042 23.4375 9.73544 23.4375 8.4375C23.4395 6.69763 24.1315 5.02959 25.3618 3.79931C26.5921 2.56903 28.2601 1.87699 30 1.875Z" fill="#282928"/>
<path d="M28.2433 11.287C28.4191 11.4627 28.6575 11.5615 28.9061 11.5615C29.1547 11.5615 29.3931 11.4627 29.5689 11.287L33.9443 6.91261C34.0338 6.82613 34.1052 6.72268 34.1544 6.60831C34.2035 6.49393 34.2294 6.37091 34.2304 6.24643C34.2315 6.12195 34.2078 5.9985 34.1607 5.88328C34.1135 5.76807 34.0439 5.66339 33.9559 5.57537C33.8679 5.48734 33.7632 5.41773 33.648 5.37059C33.5328 5.32346 33.4093 5.29973 33.2848 5.30082C33.1603 5.3019 33.0373 5.32776 32.9229 5.37689C32.8086 5.42603 32.7051 5.49745 32.6186 5.58699L28.9061 9.29855L27.3818 7.77418C27.2049 7.6034 26.9681 7.50891 26.7223 7.51104C26.4765 7.51318 26.2414 7.61178 26.0676 7.7856C25.8937 7.95942 25.7951 8.19455 25.793 8.44036C25.7909 8.68617 25.8854 8.92299 26.0561 9.0998L28.2433 11.287Z" fill="#282928"/>
<path d="M56.4037 19.8363C56.3824 19.7149 56.3374 19.5989 56.2712 19.495C56.2051 19.391 56.1191 19.3011 56.0182 19.2304C55.9173 19.1597 55.8034 19.1096 55.6831 19.0829C55.5628 19.0563 55.4384 19.0536 55.3171 19.075L50.7027 19.8878C50.5813 19.9091 50.4652 19.9541 50.3612 20.0203C50.2571 20.0865 50.1672 20.1726 50.0965 20.2736C50.0258 20.3747 49.9757 20.4886 49.9491 20.609C49.9225 20.7294 49.9199 20.8539 49.9415 20.9753L50.1421 22.1106L47.5171 22.5691L36.9374 20.951C35.3881 20.7176 33.8044 20.9185 32.3624 21.5313L29.9999 22.5381L27.644 21.5341C26.1997 20.9186 24.6124 20.7183 23.0605 20.9556L12.4762 22.5728L9.85867 22.1116L10.0584 20.9753C10.0799 20.8539 10.0774 20.7294 10.0508 20.609C10.0242 20.4886 9.97406 20.3747 9.90335 20.2736C9.83264 20.1726 9.74269 20.0865 9.63866 20.0203C9.53463 19.9541 9.41856 19.9091 9.2971 19.8878L4.68742 19.075C4.56601 19.0534 4.44154 19.056 4.32113 19.0826C4.20073 19.1092 4.08675 19.1593 3.98573 19.23C3.88471 19.3007 3.79864 19.3907 3.73243 19.4947C3.66623 19.5987 3.6212 19.7148 3.59992 19.8363L0.0139792 40.1453C-0.0076002 40.2667 -0.00501701 40.3912 0.0215808 40.5116C0.0481787 40.632 0.0982686 40.746 0.168982 40.847C0.239695 40.948 0.329642 41.0341 0.433672 41.1003C0.537702 41.1665 0.65377 41.2115 0.775229 41.2328L5.39054 42.0456C5.51188 42.0671 5.63625 42.0644 5.75655 42.0377C5.87685 42.0111 5.99071 41.961 6.09163 41.8903C6.19254 41.8196 6.27853 41.7297 6.34468 41.6257C6.41082 41.5217 6.45582 41.4058 6.4771 41.2844L6.56242 40.781L7.33679 40.9178C8.05053 42.4899 9.08891 43.8932 10.3837 45.0353C10.334 45.8818 10.575 46.7199 11.0667 47.4107C11.5584 48.1016 12.2714 48.6037 13.0874 48.8341C12.6488 49.5625 12.4724 50.419 12.5874 51.2615C12.7024 52.1039 13.1019 52.8818 13.7196 53.4661C14.3374 54.0503 15.1363 54.4059 15.9838 54.4738C16.8314 54.5417 17.6767 54.3179 18.3796 53.8394C18.4728 54.4619 18.723 55.0505 19.1064 55.5496C19.4899 56.0488 19.9942 56.4421 20.5717 56.6926C21.1491 56.9431 21.7809 57.0425 22.4074 56.9814C23.0339 56.9203 23.6345 56.7008 24.1527 56.3434C24.2404 56.9176 24.4618 57.4632 24.799 57.9361C25.1361 58.4091 25.5796 58.7963 26.0938 59.0665C26.608 59.3366 27.1784 59.4823 27.7592 59.4916C28.34 59.501 28.9148 59.3738 29.4374 59.1203V59.1259L29.8124 59.3753C30.2231 59.6472 30.6833 59.8356 31.1668 59.9296C31.6503 60.0236 32.1476 60.0214 32.6302 59.9232C33.1129 59.825 33.5714 59.6327 33.9798 59.3572C34.3881 59.0818 34.7381 58.7286 35.0099 58.3178C35.4203 57.6929 35.6303 56.9577 35.6118 56.2103C35.9159 56.2931 36.2294 56.3366 36.5446 56.3397C37.04 56.3412 37.5308 56.2444 37.9885 56.0548C38.4461 55.8652 38.8617 55.5867 39.2109 55.2354C39.5602 54.884 39.8362 54.4669 40.023 54.008C40.2099 53.5492 40.3038 53.0579 40.2993 52.5625C40.5977 52.641 40.9048 52.6819 41.2134 52.6844C41.7081 52.6844 42.198 52.5865 42.6547 52.3964C43.1115 52.2062 43.5261 51.9275 43.8747 51.5764C44.2232 51.2253 44.4989 50.8087 44.6857 50.3506C44.8726 49.8925 44.9669 49.4019 44.9634 48.9072C45.5349 49.0561 46.1336 49.0668 46.7101 48.9383C47.2865 48.8097 47.8241 48.5457 48.2782 48.1681C48.7323 47.7905 49.0899 47.3102 49.3215 46.7668C49.553 46.2235 49.6518 45.6329 49.6096 45.0438C50.9056 43.8998 51.9441 42.4938 52.6565 40.9188L53.4374 40.7856L53.5255 41.2844C53.5468 41.4058 53.5919 41.5219 53.6581 41.6259C53.7243 41.73 53.8103 41.8199 53.9114 41.8906C54.0124 41.9613 54.1264 42.0114 54.2468 42.038C54.3672 42.0646 54.4916 42.0672 54.613 42.0456L59.2274 41.2328C59.3489 41.2115 59.4649 41.1665 59.569 41.1003C59.673 41.0341 59.7629 40.948 59.8337 40.847C59.9044 40.746 59.9545 40.632 59.9811 40.5116C60.0077 40.3912 60.0102 40.2667 59.9887 40.1453L56.4037 19.8363ZM4.79335 40.0375L2.02398 39.5481L5.27898 21.0794L8.04929 21.5678L4.79335 40.0375ZM12.6843 46.4341C12.3648 46.0532 12.2096 45.5611 12.2528 45.0659C12.2961 44.5706 12.5342 44.1128 12.9149 43.7931L16.5065 40.781C16.8874 40.4612 17.3797 40.3059 17.8752 40.3491C18.3706 40.3924 18.8286 40.6307 19.1484 41.0116C19.4681 41.3925 19.6234 41.8848 19.5802 42.3803C19.5369 42.8757 19.2986 43.3337 18.9177 43.6535L15.3262 46.6675C15.1374 46.8257 14.9193 46.9451 14.6844 47.019C14.4494 47.0929 14.2022 47.1198 13.9569 47.0981C13.7115 47.0764 13.4729 47.0066 13.2545 46.8927C13.0362 46.7787 12.8424 46.6229 12.6843 46.4341ZM17.5049 52.18C17.3162 52.3383 17.0982 52.458 16.8633 52.532C16.6284 52.6061 16.3812 52.6332 16.1359 52.6117C15.8905 52.5903 15.6518 52.5207 15.4333 52.407C15.2148 52.2932 15.0209 52.1376 14.8626 51.9489C14.7042 51.7602 14.5846 51.5422 14.5106 51.3073C14.4365 51.0724 14.4094 50.8252 14.4309 50.5799C14.4523 50.3345 14.5219 50.0958 14.6356 49.8773C14.7494 49.6588 14.905 49.4649 15.0937 49.3066L19.4062 45.6906C19.7891 45.3909 20.2735 45.2517 20.7572 45.3023C21.2409 45.353 21.6859 45.5896 21.9984 45.9622C22.311 46.3348 22.4665 46.8143 22.4322 47.2994C22.3979 47.7845 22.1764 48.2373 21.8146 48.5622L17.5049 52.18ZM23.2752 54.6813C23.0866 54.8395 22.8686 54.9591 22.6337 55.0331C22.3988 55.1071 22.1517 55.1341 21.9063 55.1126C21.661 55.0911 21.4223 55.0215 21.2039 54.9078C20.9855 54.794 20.7916 54.6384 20.6334 54.4497C20.4751 54.261 20.3555 54.043 20.2815 53.8082C20.2075 53.5733 20.1805 53.3261 20.202 53.0808C20.2235 52.8355 20.2931 52.5968 20.4068 52.3784C20.5206 52.16 20.6762 51.9661 20.8649 51.8078L23.7384 49.3975C24.12 49.0842 24.6098 48.9341 25.1015 48.9798C25.5932 49.0255 26.047 49.2633 26.3643 49.6415C26.6817 50.0198 26.8371 50.508 26.7967 51.0001C26.7563 51.4922 26.5235 51.9486 26.1487 52.27L23.2752 54.6813ZM29.0446 57.1872C28.6631 57.5024 28.1724 57.6539 27.6796 57.6088C27.1867 57.5636 26.7318 57.3255 26.4138 56.9463C26.0958 56.5671 25.9407 56.0775 25.9821 55.5844C26.0236 55.0913 26.2584 54.6345 26.6352 54.3138L29.5077 51.9034C29.6963 51.7451 29.9143 51.6255 30.1491 51.5513C30.384 51.4772 30.6311 51.4501 30.8764 51.4715C31.1218 51.493 31.3605 51.5625 31.5789 51.6762C31.7974 51.7898 31.9913 51.9454 32.1496 52.1341C32.3079 52.3227 32.4275 52.5407 32.5015 52.7756C32.5755 53.0105 32.6026 53.2576 32.5811 53.503C32.5596 53.7483 32.4899 53.987 32.3762 54.2054C32.2624 54.4238 32.1067 54.6177 31.918 54.7759L29.0446 57.1872ZM33.4443 57.2866C33.1958 57.6654 32.8174 57.9402 32.3804 58.0594C31.9433 58.1785 31.4778 58.1337 31.0715 57.9334L33.1237 56.2122C33.3178 56.0499 33.4949 55.8684 33.6524 55.6703C33.7412 55.9371 33.7685 56.2206 33.7325 56.4994C33.6965 56.7783 33.5979 57.0454 33.4443 57.2809V57.2866ZM47.4496 46.3122C47.3137 46.5176 47.1387 46.6942 46.9345 46.8319C46.7304 46.9696 46.5011 47.0658 46.2598 47.1149C46.0184 47.164 45.7698 47.1651 45.5281 47.1181C45.2863 47.0711 45.0562 46.9769 44.8509 46.841L37.0312 41.6688C36.9287 41.5945 36.8122 41.5417 36.6887 41.5137C36.5653 41.4856 36.4374 41.4829 36.3129 41.5056C36.1883 41.5283 36.0697 41.576 35.9641 41.6458C35.8585 41.7156 35.7681 41.8061 35.6984 41.9118C35.6287 42.0174 35.5811 42.1361 35.5586 42.2607C35.536 42.3853 35.5389 42.5131 35.567 42.6365C35.5952 42.76 35.6481 42.8764 35.7225 42.9788C35.7969 43.0812 35.8913 43.1675 35.9999 43.2325L42.2568 47.3735C42.6713 47.6483 42.9596 48.0766 43.0583 48.564C43.157 49.0515 43.0581 49.5582 42.7832 49.9727C42.5083 50.3872 42.0801 50.6755 41.5926 50.7742C41.1052 50.8729 40.5985 50.7739 40.184 50.4991L33.928 46.3591C33.8238 46.2892 33.7064 46.2414 33.583 46.2185C33.3701 46.1783 33.1499 46.2132 32.9598 46.3171C32.7697 46.421 32.6215 46.5875 32.5403 46.7883C32.4591 46.9892 32.4499 47.212 32.5144 47.4188C32.5789 47.6256 32.713 47.8037 32.894 47.9228L37.5815 51.0288C37.9934 51.3046 38.2794 51.7324 38.3768 52.2185C38.4741 52.7046 38.375 53.2095 38.1011 53.6227C37.8272 54.0359 37.4008 54.3239 36.9151 54.4235C36.4295 54.5232 35.9241 54.4264 35.5096 54.1544L34.4409 53.4475C34.4667 52.7596 34.301 52.0781 33.9623 51.4789C33.6236 50.8796 33.1252 50.3862 32.5225 50.0536C31.9199 49.7209 31.2367 49.5622 30.5491 49.595C29.8615 49.6278 29.1966 49.8509 28.6284 50.2394C28.5557 49.752 28.3862 49.284 28.1298 48.8631C27.8735 48.4422 27.5356 48.0768 27.1359 47.7885C26.7362 47.5002 26.2829 47.2948 25.8026 47.1844C25.3223 47.074 24.8248 47.0608 24.3393 47.1456C24.3557 46.2583 24.0504 45.3949 23.4799 44.7151C22.9093 44.0353 22.112 43.5849 21.2352 43.4472C21.5096 42.6731 21.5215 41.8303 21.269 41.0488C21.0166 40.2673 20.5138 39.5907 19.8384 39.1235C19.1631 38.6562 18.3527 38.4244 17.5324 38.4637C16.7121 38.503 15.9275 38.8113 15.2999 39.341L11.7084 42.355C11.4573 42.5712 11.2365 42.8204 11.0521 43.0956C10.1139 42.1283 9.37429 40.9865 8.87523 39.7347C8.81612 39.5858 8.71986 39.4546 8.59562 39.3535C8.47138 39.2524 8.32332 39.1848 8.16554 39.1572L6.8896 38.9322L9.53054 23.9556L12.2999 24.4441C12.4007 24.4614 12.5038 24.4614 12.6046 24.4441L23.3437 22.8091C24.5499 22.6241 25.7838 22.7799 26.9062 23.2591L27.6037 23.5563L23.8602 25.15C23.0192 25.5097 22.3021 26.1081 21.7977 26.8713L18.2699 32.1897C17.8618 32.8144 17.7169 33.575 17.8668 34.3059C18.0168 35.0369 18.4494 35.679 19.0705 36.0925C20.1078 36.776 21.3737 37.0203 22.5909 36.772C23.808 36.5237 24.877 35.803 25.5637 34.7678L27.1734 32.3435L30.5962 31.6431C30.9651 32.7805 31.5917 33.8173 32.4273 34.6727C33.2628 35.5281 34.2846 36.1789 35.413 36.5744C35.813 36.717 36.2232 36.8289 36.6402 36.9091L46.9199 43.7153C47.3343 43.9896 47.6229 44.4172 47.7222 44.9041C47.8215 45.3911 47.7235 45.8975 47.4496 46.3122ZM51.8324 39.1591C51.674 39.1867 51.5253 39.2545 51.4007 39.3562C51.2761 39.4578 51.1797 39.5898 51.1209 39.7394C50.6215 40.997 49.8793 42.1438 48.9365 43.1144C48.6725 42.7345 48.3395 42.4076 47.9549 42.1506L39.9862 36.8791C41.0217 36.6721 42.0081 36.2693 42.8924 35.6922L44.3652 34.7266C44.5731 34.5898 44.7181 34.3761 44.7684 34.1324C44.8187 33.8887 44.7701 33.6351 44.6334 33.4272C44.4966 33.2193 44.2829 33.0743 44.0392 33.024C43.7955 32.9737 43.5418 33.0223 43.334 33.1591L41.8659 34.1247C41.0167 34.6824 40.0494 35.0347 39.0405 35.1536C38.0316 35.2726 37.0089 35.1549 36.0534 34.81C35.174 34.5036 34.3796 33.9937 33.7349 33.3218C33.0901 32.6499 32.6135 31.835 32.3437 30.9438C32.2855 30.7563 32.2368 30.5566 32.1955 30.3588C32.1448 30.1161 32 29.9035 31.7929 29.7673C31.5857 29.6312 31.3331 29.5826 31.0902 29.6322L26.4205 30.5884C26.1776 30.6381 25.9642 30.7821 25.8271 30.9888L24.0093 33.7347C23.5971 34.3553 22.9559 34.7875 22.2259 34.9367C21.4959 35.0858 20.7366 34.9398 20.114 34.5306C19.9062 34.3923 19.7614 34.1776 19.7108 33.9331C19.6603 33.6887 19.7081 33.4341 19.844 33.2247L23.3699 27.9072C23.6723 27.4506 24.1014 27.0922 24.6046 26.876L33.0993 23.2572C34.2223 22.7805 35.4554 22.6244 36.6618 22.8063L47.3962 24.4469C47.4965 24.4624 47.5986 24.4624 47.699 24.4469L50.474 23.9613L53.1093 38.9378L51.8324 39.1591ZM55.2074 40.0356L51.9515 21.5669L54.7218 21.0785L57.9768 39.5472L55.2074 40.0356Z" fill="#282928"/>
</g>
<defs>
<clipPath id="clip0_3738_674">
<rect width="60" height="60" fill="white"/>
</clipPath>
</defs>
</svg>
