<svg width="60" height="60" viewBox="0 0 60 60" fill="none" xmlns="http://www.w3.org/2000/svg">
<g clip-path="url(#clip0_3744_1163)">
<path d="M52.4795 37.121C53.2357 34.7869 53.6198 32.3525 53.6198 29.8719C53.6198 27.4004 53.2384 24.9747 52.4868 22.6479C54.1398 22.0272 55.6426 21.0334 56.8905 19.7118C59.047 17.4289 60.185 14.4425 60.0953 11.3036C59.9094 4.823 54.4868 -0.297089 48.0053 -0.112152C44.8659 -0.0224303 41.95 1.28449 39.7934 3.56781C38.7044 4.72092 37.8759 6.05348 37.3334 7.49452C35.0062 6.74333 32.5805 6.36201 30.1081 6.36201C27.6343 6.36201 25.2068 6.74424 22.8781 7.49635C21.1986 3.05191 16.9002 -0.117188 11.8749 -0.117188C5.39155 -0.117188 0.117188 5.15717 0.117188 11.64C0.117188 16.6649 3.28675 20.9629 7.73118 22.6419C6.97862 24.971 6.59684 27.3986 6.59684 29.8719C6.59684 32.3525 6.98091 34.7869 7.73713 37.121C3.28949 38.7987 0.117188 43.0985 0.117188 48.1257C0.117188 49.8954 0.500794 51.5969 1.25748 53.1826C1.46668 53.6207 1.99127 53.8065 2.42935 53.5973C2.86698 53.3881 3.05283 52.8635 2.84409 52.4255C2.20093 51.0778 1.875 49.6313 1.875 48.1257C1.875 42.6124 6.36109 38.1267 11.8749 38.1267C17.3891 38.1267 21.8752 42.6124 21.8752 48.1257C21.8752 53.6394 17.3891 58.1251 11.8749 58.1251C9.35991 58.1251 6.95619 57.188 5.10682 55.4865C4.7493 55.1578 4.19312 55.1812 3.8649 55.5383C3.53623 55.8958 3.55912 56.4515 3.91663 56.7802C6.09147 58.7811 8.91771 59.8829 11.8749 59.8829C16.9075 59.8829 21.2114 56.7042 22.8855 52.2497C25.2114 53.0004 27.6366 53.3817 30.1081 53.3817C32.58 53.3817 35.0057 53.0004 37.3316 52.2501C39.0056 56.7046 43.3095 59.8829 48.3422 59.8829C54.8255 59.8829 60.0999 54.6085 60.0999 48.1257C60.0999 43.0985 56.9276 38.7983 52.4795 37.121ZM41.0715 4.77448C42.9053 2.83265 45.386 1.72119 48.0561 1.64475C48.1531 1.642 48.2493 1.64063 48.3463 1.64063C53.7287 1.64063 58.1832 5.93949 58.3379 11.3535C58.4144 14.0232 57.4467 16.5628 55.6129 18.5051C53.7791 20.447 51.2984 21.5584 48.6283 21.6349C48.5313 21.6376 48.4347 21.639 48.3381 21.639C42.9557 21.639 38.5012 17.3401 38.3465 11.9261C38.2696 9.25645 39.2377 6.71632 41.0715 4.77448ZM36.8386 50.5619C34.6729 51.2659 32.4129 51.6239 30.1081 51.6239C27.8041 51.6239 25.5442 51.2659 23.3785 50.5619C23.5446 49.7755 23.633 48.9606 23.633 48.1257C23.633 41.6428 18.3582 36.3689 11.8749 36.3689C11.0349 36.3689 10.2155 36.4582 9.42491 36.6262C8.71492 34.4527 8.35466 32.1845 8.35466 29.8719C8.35466 27.5666 8.71309 25.3057 9.4185 23.1377C10.2109 23.3071 11.0326 23.3968 11.8749 23.3968C13.889 23.3968 15.8762 22.8786 17.6226 21.8985C18.0455 21.6609 18.1961 21.1254 17.9586 20.7019C17.721 20.2785 17.1854 20.1284 16.762 20.3659C15.2779 21.1986 13.5878 21.639 11.8749 21.639C6.36063 21.639 1.875 17.1533 1.875 11.6396C1.875 6.12626 6.36109 1.64063 11.8749 1.64063C17.3891 1.64063 21.8752 6.12626 21.8752 11.64C21.8752 13.9467 21.0709 16.1971 19.6106 17.9773C19.3025 18.3522 19.3575 18.9061 19.7328 19.2142C20.1078 19.5218 20.6616 19.4673 20.9697 19.092C22.6868 16.9986 23.633 14.3518 23.633 11.6396C23.633 10.7977 23.5428 9.97606 23.3739 9.18367C25.5414 8.47825 27.8028 8.11982 30.1081 8.11982C32.4129 8.11982 34.6734 8.47779 36.84 9.18229C36.6482 10.0896 36.5621 11.0257 36.5891 11.9765C36.7717 18.3426 42.0086 23.3972 48.3376 23.3968C48.4507 23.3968 48.5647 23.3954 48.6787 23.3918C49.3992 23.3712 50.1078 23.2856 50.7986 23.1395C51.5035 25.3066 51.8619 27.5675 51.8619 29.8719C51.8619 32.1845 51.5012 34.4527 50.7917 36.6262C50.0011 36.4577 49.1817 36.3689 48.3422 36.3689C41.8589 36.3689 36.5845 41.6428 36.5845 48.1257C36.5845 48.9611 36.6724 49.7759 36.8386 50.5619ZM48.3422 58.1251C42.828 58.1251 38.3423 53.6394 38.3423 48.1261C38.3423 42.6124 42.828 38.1267 48.3422 38.1267C53.8564 38.1267 58.3421 42.6124 58.3421 48.1261C58.3421 53.6394 53.8564 58.1251 48.3422 58.1251Z" fill="#282928"/>
<path d="M17.8597 6.4529C17.5567 6.24691 17.158 6.25011 16.8586 6.4616C16.5592 6.67263 16.2388 6.84887 15.9019 6.98849C14.6943 6.04366 12.9443 6.05465 11.7454 7.09698C11.1224 7.63897 10.7328 8.38833 10.6422 9.19766C9.35265 9.00585 8.18718 8.29586 7.42271 7.2073C7.24052 6.9482 6.93291 6.80767 6.61842 6.83788C6.30302 6.86855 6.02882 7.06631 5.90019 7.35561C5.87501 7.41238 5.28358 8.7637 5.35911 10.4176C5.41679 11.6833 5.86952 13.3148 7.52067 14.5746C6.92604 14.7664 6.29799 14.8552 5.67222 14.83C5.26481 14.814 4.90089 15.079 4.79103 15.4709C4.68116 15.8627 4.85466 16.2788 5.21034 16.4766C6.58912 17.2424 8.06633 17.626 9.50966 17.626C10.8962 17.626 12.2512 17.2717 13.457 16.5626C14.969 15.6732 16.0676 14.3113 16.6641 12.6483C16.6828 12.6062 16.6984 12.5622 16.7108 12.5169C17.0175 11.6137 17.1781 10.6245 17.1781 9.57531C17.1781 9.52954 17.1768 9.4833 17.1749 9.43753C17.6766 8.84609 18.0346 8.14526 18.2195 7.38766C18.3056 7.03152 18.1628 6.6589 17.8597 6.4529ZM15.3933 9.30111C15.4107 9.39267 15.4199 9.48742 15.4199 9.57806C15.4199 10.4396 15.2917 11.2375 15.0477 11.9584C15.0344 11.9914 15.0234 12.0257 15.0143 12.061C14.5579 13.3381 13.727 14.364 12.5657 15.0474C11.5028 15.6732 10.2828 15.9396 9.03954 15.8494C9.32427 15.7084 9.59938 15.5482 9.8626 15.3697C10.1263 15.1903 10.2728 14.8822 10.2444 14.564C10.216 14.2459 10.0173 13.9685 9.72573 13.8389C8.08464 13.1097 7.20711 11.9497 7.11784 10.392C7.09953 10.0729 7.11555 9.76666 7.14989 9.48605C8.35884 10.4963 9.90746 11.0475 11.5238 11.0058C12.0004 10.9935 12.3803 10.6039 12.3803 10.1274V9.59408C12.3803 9.59042 12.3803 9.5863 12.3803 9.58218C12.3743 9.13769 12.5629 8.71517 12.8989 8.42358C13.527 7.87747 14.4819 7.94384 15.028 8.57189C15.1379 8.69778 15.2779 8.78704 15.4308 8.83419C15.3773 8.98159 15.3631 9.14227 15.3933 9.30111Z" fill="#282928"/>
<path d="M45.4502 12.3341H46.6962V17.575C46.6962 18.0603 47.0899 18.4539 47.5751 18.4539C48.0608 18.4539 48.454 18.0603 48.454 17.575V12.3341H49.8113C50.2965 12.3341 50.6902 11.9404 50.6902 11.4552C50.6902 10.9699 50.2965 10.5763 49.8113 10.5763H48.454V8.11716C48.454 7.27304 49.1411 6.58594 49.9857 6.58594H51.1237C51.609 6.58594 52.0026 6.19226 52.0026 5.70703C52.0026 5.22134 51.609 4.82812 51.1237 4.82812H49.9857C48.1721 4.82812 46.6962 6.3035 46.6962 8.11716V10.5763H45.4502C44.965 10.5763 44.5713 10.9699 44.5713 11.4552C44.5713 11.9404 44.965 12.3341 45.4502 12.3341Z" fill="#282928"/>
<path d="M9.8808 52.6726C10.09 52.6726 10.2992 52.6186 10.4855 52.5111L16.468 49.0554C16.8411 48.8402 17.0727 48.4388 17.0727 48.008C17.0727 47.5777 16.8411 47.1763 16.468 46.9611L10.4855 43.5055C10.1129 43.2898 9.64963 43.2898 9.27655 43.5055C8.90347 43.7206 8.67139 44.1221 8.67139 44.5528V51.4637C8.67139 51.8944 8.90347 52.2959 9.27655 52.5111C9.46286 52.6191 9.6716 52.6726 9.8808 52.6726ZM10.4292 45.5031L14.767 48.0085L10.4292 50.5138V45.5031Z" fill="#282928"/>
<path d="M52.1615 41.9023H44.5232C43.1966 41.9023 42.1172 42.9818 42.1172 44.3088V51.9457C42.1172 53.2728 43.1966 54.3522 44.5232 54.3522H52.1615C53.4881 54.3522 54.5675 53.2728 54.5675 51.9457V44.3088C54.5675 42.9818 53.4881 41.9023 52.1615 41.9023ZM52.8096 51.9457C52.8096 52.3037 52.519 52.5943 52.1615 52.5943H44.5232C44.1657 52.5943 43.875 52.3037 43.875 51.9457V44.3088C43.875 43.9513 44.1657 43.6602 44.5232 43.6602H52.1615C52.519 43.6602 52.8096 43.9513 52.8096 44.3088V51.9457Z" fill="#282928"/>
<path d="M48.3419 45.4688C46.8771 45.4688 45.6851 46.6608 45.6851 48.1256C45.6851 49.5905 46.8771 50.782 48.3419 50.782C49.8068 50.782 50.9988 49.5905 50.9988 48.1256C50.9988 46.6608 49.8068 45.4688 48.3419 45.4688ZM48.3419 49.0242C47.8462 49.0242 47.4429 48.6209 47.4429 48.1256C47.4429 47.6299 47.8462 47.2266 48.3419 47.2266C48.8377 47.2266 49.241 47.6299 49.241 48.1256C49.241 48.6209 48.8377 49.0242 48.3419 49.0242Z" fill="#282928"/>
</g>
<defs>
<clipPath id="clip0_3744_1163">
<rect width="60" height="60" fill="white"/>
</clipPath>
</defs>
</svg>
