<svg width="60" height="60" viewBox="0 0 60 60" fill="none" xmlns="http://www.w3.org/2000/svg">
<g clip-path="url(#clip0_3742_823)">
<path d="M24.6516 53.1895L24.4754 54.0506L24.6452 53.1886C24.1691 53.0948 23.7068 53.4047 23.6129 53.8808C23.5191 54.3573 23.829 54.8192 24.3055 54.913C24.3069 54.9135 24.3202 54.9158 24.3216 54.9162C24.3774 54.9268 24.4328 54.9322 24.4877 54.9322C24.9011 54.9322 25.2696 54.6393 25.3497 54.2181C25.4412 53.7411 25.1286 53.2806 24.6516 53.1895Z" fill="#282928"/>
<path d="M31.3712 53.4736L31.4586 54.3479L31.3685 53.4741C30.8855 53.5235 30.5344 53.9552 30.5843 54.4381C30.6305 54.8904 31.0123 55.2273 31.4573 55.2273C31.4875 55.2273 31.5181 55.2255 31.5484 55.2227L31.5726 55.22C32.0533 55.1637 32.3943 54.7302 32.3407 54.2495C32.2867 53.7693 31.8519 53.4233 31.3712 53.4736Z" fill="#282928"/>
<path d="M28.0067 53.5834C28.0067 53.5834 27.9943 53.5829 27.9938 53.5829C27.5095 53.561 27.1049 53.9373 27.0829 54.422C27.0614 54.9068 27.4422 55.3174 27.927 55.3394C27.9407 55.3403 27.954 55.3403 27.9678 55.3403C28.4347 55.3403 28.8238 54.9727 28.8448 54.5012C28.8668 54.0164 28.4919 53.6054 28.0067 53.5834Z" fill="#282928"/>
<path d="M21.4049 52.298L21.3939 52.2939C20.937 52.13 20.439 52.3689 20.2751 52.8258C20.1108 53.2826 20.3534 53.788 20.8102 53.9523C20.9087 53.9876 21.0089 54.0041 21.1073 54.0041C21.4676 54.0041 21.8059 53.7811 21.9345 53.4223C22.0988 52.9654 21.8617 52.4619 21.4049 52.298Z" fill="#282928"/>
<path d="M34.6882 52.8567L34.9047 53.7086L34.6855 52.8577C34.2153 52.9785 33.9324 53.4578 34.0533 53.9279C34.1554 54.3243 34.5124 54.588 34.9038 54.588C34.9766 54.588 35.0503 54.5788 35.124 54.5596C35.1277 54.5587 35.1432 54.5546 35.1473 54.5537C35.6138 54.4264 35.8866 53.9471 35.7621 53.4798C35.6376 53.0128 35.1565 52.735 34.6882 52.8567Z" fill="#282928"/>
<path d="M37.8659 51.7505L38.2143 52.5571L37.8632 51.7514C37.4182 51.9455 37.2145 52.4632 37.4082 52.9082C37.5524 53.2391 37.8755 53.4364 38.2147 53.4364C38.3315 53.4364 38.451 53.4126 38.5649 53.3632C38.5686 53.3614 38.5828 53.3554 38.5865 53.3536C39.0273 53.1545 39.2218 52.6381 39.025 52.1964C38.8282 51.7542 38.309 51.5559 37.8659 51.7505Z" fill="#282928"/>
<path d="M18.048 11.6848C18.189 11.6848 18.3323 11.651 18.4646 11.5805C18.893 11.352 19.0546 10.8197 18.8262 10.3912C18.5978 9.96318 18.0658 9.80068 17.6374 10.0296L17.6268 10.0351C17.1988 10.2635 17.0418 10.7931 17.2702 11.2216C17.4277 11.5173 17.7335 11.6848 18.048 11.6848Z" fill="#282928"/>
<path d="M7.88142 21.5002C8.01188 21.5684 8.1515 21.6009 8.28929 21.6009C8.6056 21.6009 8.91139 21.4297 9.0684 21.1299L9.08396 21.0992C9.2982 20.6634 9.11875 20.1365 8.68296 19.9227C8.25038 19.7094 7.72761 19.8852 7.51063 20.315C7.28633 20.7444 7.45204 21.275 7.88142 21.5002Z" fill="#282928"/>
<path d="M6.64394 24.8049C6.73733 24.8365 6.83208 24.8516 6.92593 24.8516C7.29214 24.8516 7.63408 24.6204 7.75814 24.2542L7.76958 24.2194C7.9124 23.7557 7.65194 23.2636 7.18777 23.1212C6.72771 22.9793 6.23928 23.2348 6.09234 23.6925C5.93807 24.1517 6.18481 24.6497 6.64394 24.8049Z" fill="#282928"/>
<path d="M9.61528 18.4258C9.77138 18.5393 9.95219 18.5942 10.1316 18.5942C10.4031 18.5942 10.6713 18.4683 10.843 18.2321L10.8544 18.2166C11.1364 17.822 11.0444 17.2745 10.6507 16.9925C10.2566 16.7101 9.70729 16.8007 9.42439 17.1944L10.1326 17.7153L9.42165 17.198C9.136 17.5908 9.22298 18.1406 9.61528 18.4258Z" fill="#282928"/>
<path d="M15.0642 13.5833C15.2487 13.5833 15.4346 13.5252 15.5934 13.4043C15.9853 13.1178 16.07 12.568 15.7834 12.1762C15.4964 11.7843 14.9466 11.6996 14.5552 11.9862L14.5332 12.0022C14.1469 12.2956 14.07 12.8481 14.3634 13.235C14.5364 13.4629 14.7987 13.5833 15.0642 13.5833Z" fill="#282928"/>
<path d="M5.85953 38.1373C5.9758 38.515 6.32279 38.7572 6.69815 38.7572C6.78376 38.7572 6.87119 38.7443 6.95725 38.7178C7.41867 38.5763 7.67914 38.0875 7.5409 37.6251C7.4086 37.1637 6.93024 36.8927 6.46469 37.0195C5.9964 37.1472 5.72037 37.6306 5.84809 38.0989C5.85083 38.1081 5.85679 38.1282 5.85953 38.1373Z" fill="#282928"/>
<path d="M12.4088 15.8973C12.6372 15.8973 12.8657 15.8089 13.0382 15.6331C13.3811 15.2898 13.3811 14.7332 13.0382 14.3903C12.6949 14.047 12.1383 14.047 11.7949 14.3903L11.7803 14.405C11.4406 14.7515 11.4475 15.3072 11.794 15.6469C11.9648 15.8144 12.1868 15.8973 12.4088 15.8973Z" fill="#282928"/>
<path d="M6.83083 34.3047C6.76903 33.8273 6.33278 33.4885 5.85488 33.5453C5.37331 33.6029 5.02907 34.0401 5.08629 34.5221L5.09133 34.5574C5.15542 34.9941 5.53032 35.3072 5.95925 35.3072C6.00136 35.3072 6.04439 35.304 6.08788 35.2976C6.56624 35.228 6.89812 34.7831 6.83083 34.3047Z" fill="#282928"/>
<path d="M5.72669 31.7849C5.73585 31.7849 5.74454 31.7853 5.75324 31.7853C6.22657 31.7853 6.6175 31.4086 6.63123 30.9321L6.63215 30.8945C6.63215 30.4088 6.23847 30.0156 5.75324 30.0156C5.27122 30.0156 4.88029 30.4029 4.87434 30.8831C4.86152 31.3674 5.24284 31.7707 5.72669 31.7849Z" fill="#282928"/>
<path d="M5.91949 28.2638C5.97213 28.2729 6.02386 28.2775 6.07558 28.2775C6.49306 28.2775 6.86339 27.9786 6.93984 27.5533C6.94213 27.5405 6.94396 27.5277 6.94579 27.5149C7.01674 27.0347 6.68486 26.5879 6.20421 26.5174C5.72951 26.4469 5.28503 26.7733 5.20858 27.2466C5.12527 27.7236 5.44295 28.1782 5.91949 28.2638Z" fill="#282928"/>
<path d="M47.3788 18.7043C47.5491 18.9515 47.8228 19.0838 48.1021 19.0838C48.2737 19.0838 48.4477 19.0335 48.5997 18.9286C48.9993 18.654 49.1005 18.1065 48.8258 17.7064L48.0952 18.1953L48.823 17.7023C48.5502 17.3004 48.0037 17.1955 47.6022 17.4679C47.2003 17.7403 47.0955 18.2869 47.3678 18.6888L47.3788 18.7043Z" fill="#282928"/>
<path d="M51.867 27.5485C51.3846 27.6026 51.0376 28.0379 51.0921 28.5204L51.0966 28.5584C51.1593 28.9964 51.5356 29.3128 51.9659 29.3128C52.0071 29.3128 52.0492 29.31 52.0914 29.3041C52.5679 29.2358 52.9002 28.7969 52.8384 28.3208C52.783 27.8397 52.3463 27.4945 51.867 27.5485Z" fill="#282928"/>
<path d="M50.3841 25.0688L50.3877 25.0803C50.5003 25.4634 50.8505 25.7115 51.2305 25.7115C51.3124 25.7115 51.3957 25.7001 51.4786 25.6754C51.9446 25.5385 52.211 25.0501 52.0741 24.5841L52.0705 24.5726C51.9336 24.1066 51.4451 23.8402 50.9791 23.9775C50.5136 24.1144 50.2472 24.6028 50.3841 25.0688Z" fill="#282928"/>
<path d="M49.1424 21.782C49.2958 22.0937 49.6094 22.2755 49.9353 22.2755C50.0648 22.2755 50.1967 22.2466 50.3207 22.1853C50.7561 21.971 50.9369 21.4474 50.7222 21.0116L49.9257 21.3828L50.7213 21.0097C50.5153 20.5703 49.9921 20.3812 49.5526 20.5872C49.1131 20.7932 48.9236 21.3164 49.1296 21.7559L49.1424 21.782Z" fill="#282928"/>
<path d="M45.1649 15.96C45.3371 16.1358 45.5646 16.2237 45.7925 16.2237C46.0146 16.2237 46.2366 16.1404 46.4078 15.9724C46.752 15.6355 46.7598 15.0848 46.4279 14.7378C46.0988 14.383 45.544 14.3615 45.1878 14.6902C44.8312 15.0193 44.8093 15.5755 45.1384 15.9321L45.1649 15.96Z" fill="#282928"/>
<path d="M52.1531 31.219C51.6701 31.2067 51.2659 31.5853 51.249 32.0682C51.227 32.5493 51.5964 32.959 52.078 32.986C52.0949 32.9869 52.1109 32.9874 52.1279 32.9874C52.5907 32.9874 52.9784 32.6253 53.0045 32.157L53.0059 32.1208C53.0196 31.6361 52.6378 31.2332 52.1531 31.219Z" fill="#282928"/>
<path d="M39.5449 11.6419L39.566 11.6533C39.6969 11.7229 39.8375 11.7559 39.9757 11.7559C40.2883 11.7559 40.5909 11.5874 40.7498 11.2922C40.9787 10.866 40.8175 10.3331 40.3927 10.1024L39.9675 10.8715L40.39 10.1006C39.9643 9.86713 39.43 10.0232 39.1966 10.449C38.9636 10.8742 39.1192 11.4089 39.5449 11.6419Z" fill="#282928"/>
<path d="M42.5177 13.5685L42.5314 13.579C42.6902 13.6994 42.8766 13.7576 43.062 13.7576C43.3275 13.7576 43.5898 13.6376 43.7628 13.4097C44.0562 13.0228 43.9802 12.4717 43.5939 12.1783L43.5879 12.1742C43.2029 11.8784 42.6513 11.9508 42.3556 12.3357C42.0599 12.7207 42.1327 13.2728 42.5177 13.5685Z" fill="#282928"/>
<path d="M59.4574 44.5229L55.3316 40.3898C54.9805 40.0382 54.5141 39.8446 54.0174 39.8446C53.5212 39.8446 53.0543 40.0382 52.7036 40.3898L52.6079 40.4855L52.3369 40.2145C52.0023 39.8789 51.7432 39.4885 51.5674 39.0632C51.5519 39.0069 51.5313 38.952 51.5047 38.9002C51.3701 38.5221 51.3001 38.1197 51.3001 37.7064V36.5373C51.3802 36.5794 51.4677 36.61 51.5615 36.6261C51.6118 36.6348 51.6617 36.6389 51.7112 36.6389C52.1282 36.6389 52.4972 36.3413 52.5745 35.9184C52.6684 35.4432 52.3603 34.9813 51.8847 34.8861C51.6755 34.8445 51.4686 34.8806 51.2946 34.9749C51.2406 33.7261 50.7302 32.5598 49.8421 31.6699L45.8395 27.6603C44.9413 26.7608 43.747 26.2655 42.4767 26.2655C41.4935 26.2655 40.5569 26.5635 39.7668 27.1151L39.342 26.688V16.6356C39.342 15.4239 38.9021 14.2547 38.1037 13.3442C37.5356 12.697 37.223 11.8657 37.223 11.0032V10.2667H37.2834C38.3079 10.2667 39.1415 9.43312 39.1415 8.40819V2.56164C39.1415 1.53671 38.3079 0.703125 37.2834 0.703125H20.8657C19.8413 0.703125 19.0077 1.53671 19.0077 2.56164V8.40819C19.0077 9.43312 19.8413 10.2667 20.8657 10.2667H21.0012V10.6521C21.0012 11.5997 20.6327 12.4905 19.964 13.1602L18.192 14.9354C17.2517 15.8775 16.734 17.1295 16.734 18.4616V24.1319C16.734 24.9023 16.9189 25.6297 17.2444 26.2742C16.0789 26.3415 14.9926 26.8272 14.1604 27.6603L10.1578 31.6699C9.21751 32.6119 8.69978 33.8644 8.69978 35.196V37.7064C8.69978 38.654 8.33174 39.5448 7.66295 40.2145L7.39516 40.4827C7.39379 40.4836 7.39287 40.4845 7.39195 40.4855L7.29674 40.3898C6.94564 40.0382 6.47918 39.8446 5.9825 39.8446C5.48629 39.8446 5.01937 40.0382 4.66872 40.3898L0.542449 44.5229C-0.180816 45.2476 -0.180816 46.4268 0.542449 47.1514L1.95556 48.5664C2.29843 48.9101 2.85507 48.9106 3.19839 48.5677C3.54171 48.2244 3.54263 47.6682 3.1993 47.3244L1.78665 45.909C1.74682 45.8692 1.74682 45.8047 1.78665 45.7648L5.91292 41.6317C5.95137 41.5933 6.01409 41.5928 6.05254 41.6317L6.76985 42.3504H6.77031L16.5651 52.1621L17.6623 53.2616C17.7021 53.3015 17.7021 53.366 17.6623 53.4058L13.5365 57.539C13.4976 57.5779 13.4349 57.5779 13.3964 57.539L5.6877 49.817C5.34484 49.4732 4.7882 49.4727 4.44488 49.8156C4.1011 50.1589 4.10064 50.7151 4.4435 51.0589L12.1527 58.7809C12.5033 59.1324 12.9703 59.3261 13.4669 59.3261C13.9631 59.3261 14.4296 59.1324 14.7807 58.7809L18.9065 54.6477C19.6298 53.9236 19.6298 52.7444 18.9065 52.0197L18.8617 51.9749L19.3821 51.4535C19.99 50.8442 20.7975 50.478 21.6558 50.4226C22.8639 50.3443 24.0005 49.8289 24.8561 48.9715L28.6463 45.173C29.7395 44.8859 30.5905 43.9956 30.8216 42.8805C31.2112 43.0659 31.6465 43.1702 32.1061 43.1702C33.7591 43.1702 35.104 41.824 35.104 40.1687V38.0818C35.4821 38.2543 35.9019 38.3514 36.3441 38.3514C37.9971 38.3514 39.3415 37.0051 39.3415 35.3498V29.1801L42.0451 31.8969C42.2167 32.0695 42.4424 32.1556 42.6681 32.1556C42.8924 32.1556 43.1167 32.0704 43.2883 31.8997C43.6321 31.5573 43.6335 31.0011 43.2911 30.6568L41.0371 28.3918C41.4733 28.1515 41.965 28.0233 42.4767 28.0233C43.2769 28.0233 44.0295 28.3355 44.5953 28.9027L48.5979 32.9118C49.2068 33.522 49.5423 34.3331 49.5423 35.196V37.7064C49.5423 39.1232 50.093 40.4548 51.0927 41.4564L51.3656 41.7297L50.0907 43.0068L42.3801 50.7307L41.9503 50.2999C41.9457 50.2958 41.9416 50.2912 41.937 50.2871L41.8615 50.2111C40.9515 49.2997 39.7425 48.7517 38.458 48.6684C37.6766 48.6176 36.9415 48.2844 36.3853 47.7277L33.4973 44.8553C33.153 44.5129 32.5964 44.5142 32.254 44.8585C31.912 45.2027 31.9134 45.7593 32.2576 46.1013L35.1438 48.9715C35.9994 49.8289 37.136 50.3443 38.3445 50.4226C39.2024 50.478 40.0098 50.8442 40.6178 51.453L40.6603 51.4956C40.6832 51.5217 40.7075 51.5459 40.7331 51.5688L41.1382 51.9744L41.0934 52.0197C40.3701 52.7444 40.3701 53.9231 41.0934 54.6477L45.2192 58.7809C45.5703 59.1324 46.0368 59.3261 46.5334 59.3261C47.0296 59.3261 47.4966 59.1324 47.8477 58.7809L59.4574 47.1509C60.1807 46.4263 60.1807 45.2476 59.4574 44.5229ZM51.8893 35.7833L51.8728 35.7806L51.7126 35.7481L51.8893 35.7833ZM23.6119 47.7296C23.0584 48.2844 22.3233 48.6176 21.5423 48.6684C20.2574 48.7517 19.0484 49.2997 18.1384 50.2111L17.6198 50.7307L17.1528 50.2628C17.1469 50.2569 17.1409 50.2505 17.135 50.245L8.63432 41.7297L8.90715 41.4564C9.9069 40.4548 10.4576 39.1232 10.4576 37.7064V35.196C10.4576 34.3331 10.7927 33.522 11.402 32.9118L15.4046 28.9027C15.9704 28.3355 16.723 28.0233 17.5232 28.0233C18.0363 28.0233 18.5298 28.1524 18.9674 28.3946L16.7097 30.6559C16.3669 30.9992 16.3673 31.5559 16.7106 31.8987C16.8823 32.07 17.1071 32.1556 17.3318 32.1556C17.557 32.1556 17.7823 32.0695 17.9539 31.8978L20.6506 29.1961V40.1687C20.6506 41.824 21.9955 43.1702 23.6485 43.1702C24.1145 43.1702 24.5558 43.0631 24.9494 42.8727C25.128 43.7438 25.6846 44.4781 26.439 44.8965L23.6119 47.7296ZM37.5842 35.3503C37.5842 36.036 37.0275 36.594 36.3441 36.594C35.6602 36.594 35.104 36.036 35.104 35.3503V25.5464C35.104 25.0611 34.7108 24.6675 34.2251 24.6675C33.7394 24.6675 33.3462 25.0611 33.3462 25.5464V40.1691C33.3462 40.8549 32.79 41.4124 32.1061 41.4124C31.4923 41.4124 30.9828 40.9629 30.8843 40.3747V25.5363C30.8843 25.0506 30.4911 24.6574 30.0054 24.6574C29.8493 24.6574 29.7024 24.6986 29.5751 24.77C29.2973 24.9179 29.1082 25.2099 29.1082 25.5464V40.1687C29.1082 40.2804 29.1146 40.3898 29.1265 40.4983V42.2694C29.1265 42.9551 28.5704 43.5131 27.8865 43.5131C27.203 43.5131 26.6468 42.9551 26.6468 42.2694V25.5258C26.6468 25.0405 26.2532 24.6469 25.7679 24.6469C25.2822 24.6469 24.8886 25.0405 24.8886 25.5258V40.1687C24.8886 40.8544 24.3324 41.4124 23.6489 41.4124C22.965 41.4124 22.4089 40.8544 22.4089 40.1687V23.8197C22.4089 23.334 22.0152 22.9403 21.53 22.9403C21.0443 22.9403 20.6511 23.334 20.6511 23.8197V26.8437C20.5774 26.8675 20.5059 26.9009 20.4396 26.9448C19.3029 26.5177 18.4918 25.4182 18.4918 24.1319V18.4616C18.4918 17.5987 18.8273 16.7875 19.4362 16.1773L21.2082 14.4021C22.2084 13.4006 22.7591 12.0689 22.7591 10.6521V10.2667H24.526C25.0117 10.2667 25.4049 9.87303 25.4049 9.3878C25.4049 8.90212 25.0117 8.5089 24.526 8.5089H20.8657C20.8104 8.5089 20.7655 8.46358 20.7655 8.40819V2.56164C20.7655 2.50625 20.8104 2.46093 20.8657 2.46093H37.283C37.3388 2.46093 37.3837 2.50625 37.3837 2.56164V8.40819C37.3837 8.46404 37.3388 8.5089 37.283 8.5089H28.6523C28.1671 8.5089 27.7734 8.90212 27.7734 9.3878C27.7734 9.87303 28.1671 10.2667 28.6523 10.2667H35.4652V11.0032C35.4652 12.2923 35.9326 13.5351 36.7817 14.5038C37.299 15.0934 37.5842 15.8505 37.5842 16.6356V35.3503ZM58.2132 45.909L46.6035 57.539C46.5842 57.5586 46.5609 57.5683 46.5334 57.5683C46.5064 57.5683 46.4831 57.5586 46.4634 57.539L42.3376 53.4058C42.2977 53.366 42.2977 53.3015 42.3376 53.2616L43.0018 52.596L43.0022 52.5956L49.7419 45.8445L53.9474 41.6317C53.9858 41.5928 54.0485 41.5928 54.087 41.6317L58.2132 45.7648C58.2531 45.8047 58.2531 45.8692 58.2132 45.909Z" fill="#282928"/>
<path d="M23.6486 4.54688C23.1327 4.54688 22.7129 4.96756 22.7129 5.48437C22.7129 6.00165 23.1327 6.42187 23.6486 6.42187C24.1649 6.42187 24.5847 6.00165 24.5847 5.48437C24.5847 4.96756 24.1649 4.54688 23.6486 4.54688Z" fill="#282928"/>
<path d="M54.3048 44.6133C53.7884 44.6133 53.3687 45.034 53.3687 45.5508C53.3687 46.0676 53.7884 46.4883 54.3048 46.4883C54.8207 46.4883 55.2404 46.0676 55.2404 45.5508C55.2404 45.034 54.8207 44.6133 54.3048 44.6133Z" fill="#282928"/>
<path d="M14.6467 53.5781C14.6467 53.0613 14.2269 52.6406 13.711 52.6406C13.1947 52.6406 12.7749 53.0613 12.7749 53.5781C12.7749 54.0949 13.1947 54.5156 13.711 54.5156C14.2269 54.5156 14.6467 54.0949 14.6467 53.5781Z" fill="#282928"/>
</g>
<defs>
<clipPath id="clip0_3742_823">
<rect width="60" height="60" fill="white"/>
</clipPath>
</defs>
</svg>
