<svg width="60" height="60" viewBox="0 0 60 60" fill="none" xmlns="http://www.w3.org/2000/svg">
<g clip-path="url(#clip0_3742_803)">
<path d="M41.4565 17.5486V11.1502C41.4565 10.6639 41.0621 10.2695 40.5758 10.2695C40.0895 10.2695 39.6951 10.6639 39.6951 11.1502V17.5492C38.435 17.9291 37.5144 19.1007 37.5144 20.4838C37.5144 21.1171 37.7073 21.7061 38.0374 22.1951L35.6222 24.9064C35.3285 25.236 35.3281 25.7494 35.6228 26.0787C35.9686 26.4652 36.5921 26.4653 36.9372 26.0779L39.4002 23.313C39.7626 23.4645 40.16 23.5485 40.5767 23.5485C42.2654 23.5485 43.6392 22.1737 43.6392 20.4838C43.6394 19.0998 42.7178 17.9279 41.4565 17.5486ZM40.577 21.7873C39.8594 21.7873 39.2757 21.2025 39.2757 20.4838C39.2757 19.7651 39.8594 19.1805 40.577 19.1805C41.2945 19.1805 41.8782 19.7651 41.8782 20.4838C41.8782 21.2025 41.2945 21.7873 40.577 21.7873Z" fill="#282928"/>
<path d="M40.6111 1.05859C32.0828 1.05859 24.823 6.59887 22.2347 14.2725C21.8009 14.2754 21.3693 14.4155 21.0149 14.6909L19.2755 16.0424C18.9839 15.9065 18.6866 15.783 18.3852 15.6727L18.1099 13.4855C17.9837 12.4826 17.1267 11.7264 16.1164 11.7264H12.9313C11.9211 11.7264 11.0641 12.4826 10.9379 13.4855L10.6627 15.6727C10.3614 15.783 10.0639 15.9065 9.7725 16.0424L8.03309 14.6909C7.23481 14.0706 6.0941 14.1423 5.37973 14.8574L3.12738 17.112C2.41359 17.8265 2.34199 18.9673 2.96109 19.7655L4.31191 21.5076C4.17574 21.7998 4.05223 22.098 3.94195 22.4001L1.75781 22.6757C0.755742 22.802 0 23.6595 0 24.6702V27.8587C0 28.8693 0.755742 29.7268 1.75781 29.8532L3.94195 30.1287C4.05223 30.4309 4.17586 30.7289 4.31191 31.0212L2.96109 32.7633C2.34211 33.5615 2.41359 34.7023 3.12738 35.4168L5.37973 37.6714C6.09422 38.3866 7.23492 38.4582 8.03297 37.8379L9.77238 36.4864C10.0639 36.6223 10.3612 36.7458 10.6625 36.8561L10.9378 39.0433C11.064 40.0462 11.921 40.8024 12.9312 40.8024H14.9121C14.9057 40.8701 14.902 40.9386 14.902 41.0078V44.573C14.902 45.6508 15.7079 46.5652 16.7766 46.7L19.2819 47.016C19.4167 47.3912 19.57 47.761 19.7406 48.1226L18.1911 50.1209C17.531 50.9721 17.6073 52.1887 18.3686 52.9506L20.8869 55.4716C21.6488 56.2341 22.8652 56.3104 23.7162 55.6492L25.7114 54.0989C26.0722 54.2695 26.4411 54.4227 26.8155 54.5575L27.1313 57.0663C27.2659 58.1356 28.1798 58.9421 29.2569 58.9421H32.8184C33.8955 58.9421 34.8094 58.1356 34.944 57.0663L35.2597 54.5575C35.6343 54.4227 36.003 54.2696 36.364 54.0989L38.3592 55.6492C39.2102 56.3104 40.4264 56.2341 41.1885 55.4716L43.7068 52.9506C44.4681 52.1886 44.5443 50.972 43.8843 50.1209L42.3347 48.1226C42.5053 47.7611 42.6586 47.3912 42.7934 47.016L45.2987 46.7C46.3673 46.5652 47.1732 45.6509 47.1732 44.573V41.0078C47.1732 40.1911 46.71 39.469 46.0209 39.1081C49.3501 38.1428 52.3779 36.291 54.7903 33.7027C58.1501 30.0988 60 25.3981 60 20.4666C60 9.76504 51.3021 1.05859 40.6111 1.05859ZM12.6854 38.8233L12.3411 36.0882C12.2979 35.7447 12.0574 35.4584 11.7265 35.3564C11.1613 35.1824 10.6079 34.9526 10.0819 34.6735C9.77566 34.5109 9.40254 34.5432 9.12879 34.756L6.95238 36.447C6.85418 36.5234 6.71379 36.5145 6.62578 36.4264L4.37344 34.1718C4.28484 34.0832 4.27594 33.9415 4.35281 33.8424L6.04219 31.6636C6.2543 31.3901 6.28652 31.0177 6.12445 30.7118C5.84555 30.1853 5.61598 29.6312 5.44195 29.0651C5.34023 28.7342 5.05395 28.4935 4.71035 28.4502L1.97801 28.1056C1.85426 28.09 1.76098 27.9837 1.76098 27.8584V24.67C1.76098 24.5447 1.85426 24.4386 1.97801 24.4229L4.71035 24.0782C5.05395 24.0348 5.34023 23.7943 5.44195 23.4632C5.61586 22.8972 5.84555 22.3431 6.12445 21.8165C6.28641 21.5106 6.25418 21.1382 6.04219 20.8648L4.35281 18.6862C4.27594 18.587 4.28473 18.4455 4.37344 18.3568L6.62578 16.1021C6.71379 16.0141 6.85406 16.0053 6.95238 16.0816L9.12879 17.7726C9.40242 17.9853 9.77543 18.0175 10.0819 17.8551C10.6079 17.5759 11.1613 17.3461 11.7266 17.172C12.0574 17.0702 12.2979 16.7839 12.3411 16.4404L12.6854 13.7052C12.701 13.581 12.8067 13.4874 12.9313 13.4874H16.1164C16.241 13.4874 16.3468 13.581 16.3624 13.7052L16.7066 16.4404C16.7498 16.7839 16.9903 17.0702 17.3211 17.1721C17.8863 17.3461 18.4398 17.5761 18.966 17.8552C19.2722 18.0177 19.6454 17.9854 19.9191 17.7727L21.6446 16.432C21.3686 17.7339 21.2221 19.0833 21.2221 20.4665C21.2221 23.7771 22.0764 27.0291 23.6667 29.8966C22.8184 29.2752 21.6346 29.3611 20.8873 30.1093L18.3689 32.6302C17.7032 33.2966 17.5614 34.3108 17.978 35.1241C17.7607 35.2094 17.5418 35.2885 17.3214 35.3563C16.9905 35.4583 16.7501 35.7446 16.7068 36.088L16.3627 38.8232C16.3471 38.9473 16.2414 39.0409 16.1168 39.0409H12.9315C12.8068 39.0411 12.7011 38.9474 12.6854 38.8233ZM18.3853 36.8557C18.6128 36.7723 18.8386 36.681 19.0617 36.5822L19.7409 37.4581C19.5703 37.8198 19.4169 38.1896 19.2821 38.5648L18.1522 38.7073L18.3853 36.8557ZM45.4127 44.573C45.4127 44.7653 45.2693 44.9286 45.0791 44.9526L42.024 45.3379C41.6804 45.3813 41.3943 45.6218 41.2924 45.9529C41.0959 46.592 40.8367 47.2177 40.5218 47.8123C40.3598 48.1182 40.3921 48.4906 40.6041 48.764L42.493 51.2002C42.611 51.3523 42.5974 51.5697 42.4614 51.7059L39.943 54.2268C39.8075 54.3623 39.5916 54.3759 39.4404 54.2586L37.0068 52.3676C36.7329 52.1549 36.36 52.1226 36.0537 52.2851C35.4598 52.6002 34.8349 52.8597 34.1966 53.0563C33.8658 53.1582 33.6252 53.4446 33.582 53.788L33.1971 56.8463C33.1731 57.0371 33.0105 57.1809 32.8189 57.1809H29.2575C29.0659 57.1809 28.9032 57.037 28.8792 56.8463L28.4943 53.7879C28.451 53.4445 28.2105 53.1582 27.8797 53.0562C27.2414 52.8597 26.6166 52.6002 26.0225 52.285C25.7196 52.1242 25.3403 52.157 25.0695 52.3675L22.6359 54.2584C22.4846 54.376 22.2687 54.3623 22.1333 54.2267L19.615 51.7057C19.4789 51.5697 19.4653 51.3522 19.5833 51.2001L21.4723 48.764C21.6843 48.4905 21.7165 48.1182 21.5545 47.8123C21.2396 47.2175 20.9803 46.5919 20.7839 45.953C20.6822 45.622 20.3959 45.3814 20.0523 45.338L16.9972 44.9527C16.807 44.9287 16.6636 44.7655 16.6636 44.5731V41.0079C16.6636 40.8155 16.807 40.6524 16.9972 40.6284L20.0523 40.243C20.3959 40.1997 20.6822 39.9591 20.7839 39.628C20.9803 38.9891 21.2395 38.3635 21.5545 37.7685C21.7165 37.4627 21.6843 37.0904 21.4721 36.8168L19.5832 34.3809C19.4653 34.2288 19.4789 34.0113 19.6148 33.8752L22.1332 31.3543C22.2686 31.2188 22.4846 31.2052 22.6358 31.3226L25.0693 33.2134C25.3431 33.4261 25.7162 33.4584 26.0224 33.2959C26.6163 32.9808 27.2412 32.7212 27.8796 32.5247C28.2104 32.4229 28.4509 32.1365 28.4941 31.793L28.8791 28.7348C28.9031 28.544 29.0657 28.4002 29.2574 28.4002H32.8188C33.0104 28.4002 33.173 28.5441 33.197 28.7348L33.5818 31.7931C33.6251 32.1366 33.8655 32.4229 34.1965 32.5248C34.8349 32.7215 35.4598 32.9809 36.0536 33.2961C36.3598 33.4585 36.733 33.4263 37.0068 33.2136L39.4404 31.3226C39.5917 31.2052 39.8077 31.2188 39.943 31.3544L42.4614 33.8753C42.5973 34.0114 42.6109 34.2289 42.493 34.381L40.6041 36.817C40.392 37.0905 40.3597 37.4628 40.5217 37.7686C40.8366 38.3634 41.0959 38.989 41.2923 39.6282C41.394 39.9591 41.6803 40.1998 42.0239 40.2432L45.0791 40.6285C45.2693 40.6525 45.4127 40.8156 45.4127 41.008V44.573ZM53.5028 32.5019C50.6134 35.602 46.7542 37.5393 42.5768 38.0032C42.5007 37.8198 42.4202 37.6381 42.3354 37.4583L43.5416 35.9027C46.7428 35.2952 49.7316 33.6689 51.9893 31.2925C52.3243 30.9399 52.31 30.3824 51.9574 30.0475C51.6048 29.7126 51.0475 29.7269 50.7124 30.0794C48.9701 31.9134 46.7379 33.2434 44.3187 33.9148C44.2677 33.4431 44.0636 32.9868 43.7074 32.6303L41.1891 30.1094C40.4271 29.3468 39.2108 29.2703 38.3598 29.9317L36.3646 31.482C36.0038 31.3115 35.6348 31.1582 35.2603 31.0234L34.9446 28.5147C34.81 27.4454 33.8961 26.6389 32.8189 26.6389H29.2575C28.8919 26.6389 28.5462 26.7336 28.2423 26.8981C27.2141 24.9196 26.6734 22.7187 26.6734 20.4666C26.6734 12.7729 32.9258 6.51367 40.611 6.51367C48.2961 6.51367 54.5487 12.7729 54.5487 20.4666C54.5487 22.9095 53.9091 25.3129 52.699 27.4168C52.4565 27.8384 52.6017 28.3766 53.0234 28.6192C53.445 28.8617 53.9834 28.7165 54.2258 28.2948C55.5893 25.9241 56.31 23.2172 56.31 20.4666C56.31 11.8018 49.2675 4.75246 40.6111 4.75246C31.9547 4.75246 24.9122 11.8018 24.9122 20.4666C24.9122 23.314 25.6795 26.0894 27.1311 28.5194L26.816 31.0234C26.73 31.0544 26.6442 31.0866 26.5588 31.1195C24.2491 28.0674 22.9834 24.3105 22.9834 20.4666C22.9834 10.7362 30.8911 2.81992 40.6111 2.81992C50.331 2.81992 58.2388 10.7362 58.2388 20.4666C58.2388 24.9509 56.5568 29.2251 53.5028 32.5019Z" fill="#282928"/>
<path d="M31.0383 36.1484C27.3784 36.1484 24.4009 39.1286 24.4009 42.7918C24.4009 44.4636 25.0236 46.0612 26.1541 47.2904C26.4834 47.6484 27.0405 47.6717 27.3984 47.3424C27.7564 47.0131 27.7796 46.456 27.4504 46.0981C26.6196 45.1948 26.1621 44.0206 26.1621 42.7918C26.1621 40.0998 28.3495 37.9096 31.0383 37.9096C33.727 37.9096 35.9144 40.0998 35.9144 42.7918C35.9144 45.4838 33.727 47.6738 31.0383 47.6738C30.7069 47.6738 30.3759 47.6404 30.0548 47.5747C29.5785 47.4773 29.113 47.7842 29.0154 48.2607C28.9178 48.7372 29.2249 49.2025 29.7013 49.3002C30.1385 49.3898 30.5884 49.4352 31.0381 49.4352C34.698 49.4352 37.6755 46.455 37.6755 42.7918C37.6758 39.1286 34.6981 36.1484 31.0383 36.1484Z" fill="#282928"/>
<path d="M20.553 26.2649C20.553 22.9375 17.8483 20.2305 14.5238 20.2305C14.0375 20.2305 13.6431 20.6248 13.6431 21.1111C13.6431 21.5975 14.0374 21.9918 14.5238 21.9918C16.8772 21.9918 18.7918 23.9087 18.7918 26.265C18.7918 28.6213 16.8772 30.5383 14.5238 30.5383C12.1704 30.5383 10.256 28.6213 10.256 26.265C10.256 25.0033 10.809 23.8124 11.7731 22.9976C12.1446 22.6837 12.1912 22.1281 11.8772 21.7566C11.5633 21.3851 11.0077 21.3385 10.6362 21.6524C9.27521 22.8026 8.49463 24.4838 8.49463 26.265C8.49463 29.5925 11.1993 32.2995 14.5238 32.2995C17.8483 32.2995 20.553 29.5923 20.553 26.2649Z" fill="#282928"/>
</g>
<defs>
<clipPath id="clip0_3742_803">
<rect width="60" height="60" fill="white"/>
</clipPath>
</defs>
</svg>
