<svg xmlns="http://www.w3.org/2000/svg" width="60" height="60" fill="none"><path fill="#282928" d="M12.45 17.57v2.002c0 .62.24 1.204.68 1.643.438.438 1.022.68 1.642.68h8.663v4.58a2.864 2.864 0 0 0 2.866 2.866h5.678a.82.82 0 1 0 0-1.64H26.3a1.224 1.224 0 0 1-1.225-1.226v-4.769c0-3.864 3.149-7.15 7.15-7.15h3.993c3.987 0 7.15 3.274 7.15 7.15v4.77c0 .675-.55 1.225-1.225 1.225h-6.337a.82.82 0 1 0 0 1.64h6.337a2.87 2.87 0 0 0 2.866-2.866v-4.58h8.663a2.326 2.326 0 0 0 2.323-2.323V17.57c0-3.024-2.021-5.583-4.783-6.402a4.81 4.81 0 0 0 1.469-3.463 4.834 4.834 0 0 0-4.83-4.83 4.835 4.835 0 0 0-4.828 4.83c0 1.357.564 2.585 1.468 3.463a6.67 6.67 0 0 0-3.822 2.96 8.7 8.7 0 0 0-2.482-.989 6.27 6.27 0 0 0 2.313-4.86 6.284 6.284 0 0 0-6.276-6.277 6.284 6.284 0 0 0-6.277 6.277c0 1.958.902 3.709 2.311 4.861-.885.204-1.72.54-2.482.99a6.67 6.67 0 0 0-3.822-2.961 4.81 4.81 0 0 0 1.468-3.463 4.834 4.834 0 0 0-4.829-4.829 4.834 4.834 0 0 0-4.829 4.829c0 1.358.564 2.585 1.47 3.464-2.763.818-4.784 3.377-4.784 6.4M47.852 4.518a3.19 3.19 0 0 1 3.188 3.189 3.19 3.19 0 0 1-3.188 3.188 3.19 3.19 0 0 1-3.189-3.188 3.19 3.19 0 0 1 3.189-3.189m-1.467 8.018h2.933a5.04 5.04 0 0 1 5.036 5.036v2a.683.683 0 0 1-.682.683h-8.785a8.8 8.8 0 0 0-2.883-5.158 5.03 5.03 0 0 1 4.381-2.561m-16.8-4.257a4.64 4.64 0 0 1 4.636-4.636 4.64 4.64 0 0 1 4.637 4.636 4.64 4.64 0 0 1-4.637 4.637 4.64 4.64 0 0 1-4.636-4.637m-8.994-3.76a3.19 3.19 0 0 1 3.189 3.188 3.19 3.19 0 0 1-3.189 3.188 3.19 3.19 0 0 1-3.188-3.188 3.19 3.19 0 0 1 3.188-3.189Zm-1.466 8.017h2.933c1.83 0 3.49.988 4.38 2.56a8.8 8.8 0 0 0-2.882 5.16h-8.785a.68.68 0 0 1-.482-.2.68.68 0 0 1-.2-.483V17.57a5.04 5.04 0 0 1 5.036-5.036Zm36.482 28.283c-.705-1.473-1.915-2.28-3.498-2.333-1.166-.037-.326-.166-14.978 4.169-.033-1.247-.616-2.743-2.588-3.53-1.31-.524-2.43-.975-3.395-1.364-4.9-1.975-5.933-2.391-7.746-2.422l-.035-.001c-6.216.02-7.49.07-10.73 1.52a28.4 28.4 0 0 0-4.71 2.68 9.1 9.1 0 0 1-2.83 1.343l-3.761 1.034A1.82 1.82 0 0 0 0 43.668V56.18a1.818 1.818 0 0 0 2.463 1.7l5.491-2.085a.82.82 0 0 0-.582-1.534l-5.491 2.085a.17.17 0 0 1-.164-.02.17.17 0 0 1-.076-.146V43.668c0-.08.053-.15.13-.171l3.761-1.034A10.8 10.8 0 0 0 8.87 40.88a26.7 26.7 0 0 1 4.438-2.525c2.939-1.315 4.025-1.357 10.047-1.377h.002c1.52.024 2.384.372 7.178 2.304.966.39 2.087.841 3.4 1.365 2.1.838 1.441 2.648 1.441 2.887l-.01.032c-.048.163-.517 1.582-2.086 1.197a2853 2853 0 0 0-8.003-1.937.82.82 0 0 0-.385 1.595c.057.014 5.651 1.36 7.998 1.936 1.805.442 3.209-.418 3.882-1.886 14.011-4.145 13.393-3.96 13.502-4.001 1.05-.41 2.946-.82 3.847 1.044.917 2.106-1.165 3.34-1.648 3.592l-17.82 7.882-.02.01-.024.011c-2.407 1.234-4.766.656-5.687.341l-5.093-2.033c-2.516-1.004-5.655-.986-8.836.05l-.037.014-4.005 1.52a.82.82 0 0 0 .582 1.534l3.987-1.513c2.77-.9 5.576-.929 7.701-.08l5.111 2.04.037.013c1.104.38 3.99 1.1 6.968-.415.032-.015 17.833-7.888 17.865-7.904 1.496-.768 3.69-2.84 2.416-5.734l-.011-.025Z"/></svg>