<svg xmlns="http://www.w3.org/2000/svg" width="60" height="60" fill="none"><path fill="#FDBC33" d="M21.9 39H7v17a2 2 0 0 0 2 2h20V32.662l-4.521 5.166A3.43 3.43 0 0 1 21.9 39M35.521 37.83 31 32.661V58h20a2 2 0 0 0 2-2V39H38.1a3.43 3.43 0 0 1-2.579-1.17M46.592 27.118a1 1 0 0 1 .6-.69l3.54-1.413a.29.29 0 0 0 .182-.218 18 18 0 0 0 0-3.583.3.3 0 0 0-.186-.231L47.19 19.57a1 1 0 0 1-.6-.69 17 17 0 0 0-1.948-4.7 1 1 0 0 1-.064-.91l1.5-3.507a.28.28 0 0 0-.017-.278 21 21 0 0 0-2.537-2.54.28.28 0 0 0-.29-.03l-3.508 1.5a1 1 0 0 1-.91-.063 17 17 0 0 0-4.7-1.95 1 1 0 0 1-.688-.6l-1.414-3.54a.29.29 0 0 0-.218-.182c-1.191-.11-2.39-.11-3.581 0a.29.29 0 0 0-.23.186l-1.412 3.538a1 1 0 0 1-.688.6 17 17 0 0 0-4.7 1.95 1 1 0 0 1-.91.063l-3.507-1.5a.27.27 0 0 0-.276.018 21 21 0 0 0-2.54 2.538.28.28 0 0 0-.03.29l1.5 3.509a1 1 0 0 1-.064.91 17 17 0 0 0-1.948 4.7 1 1 0 0 1-.6.689l-3.54 1.414a.29.29 0 0 0-.182.218 18 18 0 0 0 0 3.583.3.3 0 0 0 .186.23l3.537 1.413a1 1 0 0 1 .6.689q.244.958.6 1.882h2.25a15 15 0 1 1 27.486 0h2.25q.352-.925.594-1.883"/><path fill="#FDBC33" d="M52.79 31.01 32.2 31l4.821 5.511A1.44 1.44 0 0 0 38.1 37h19.87zM21.902 37a1.44 1.44 0 0 0 1.079-.489L27.8 31H7.232l-5.22 5.952z"/></svg>