<svg xmlns="http://www.w3.org/2000/svg" width="60" height="60" fill="none"><path fill="#282928" d="M6.668 13.2a.933.933 0 1 0 0-1.866.933.933 0 0 0 0 1.867Zm0 1.866a.933.933 0 0 0-.934.934v1.866a.933.933 0 1 0 1.867 0V16a.933.933 0 0 0-.933-.934m0 10.268a.933.933 0 1 0 0-1.867.933.933 0 0 0 0 1.867m0 5.599a.933.933 0 0 0 .933-.934v-1.866a.933.933 0 1 0-1.867 0v1.866c0 .516.418.934.934.934m0 6.533a.933.933 0 1 0 0-1.866.933.933 0 0 0 0 1.866m0 1.868a.933.933 0 0 0-.934.933v1.867a.933.933 0 1 0 1.867 0v-1.867a.933.933 0 0 0-.933-.933"/><path fill="#282928" d="M54.267 16.933H41.2V6.667C41.2 2.053 22.4 2 21.6 2S2 2.053 2 6.667V44c0 4.614 18.8 4.667 19.6 4.667.908 0 1.85-.019 2.8-.047v1.913h-3.733A1.867 1.867 0 0 0 18.8 52.4v1.867A3.733 3.733 0 0 0 22.533 58h26.134a3.733 3.733 0 0 0 3.733-3.733V24.4h3.733A1.867 1.867 0 0 0 58 22.533v-1.866a3.733 3.733 0 0 0-3.733-3.734m-26.134 0a3.733 3.733 0 0 0-3.733 3.734v.885a89 89 0 0 1-2.8.048c-10.996 0-17.267-1.806-17.733-2.83V8.871c4.768 2.426 17.088 2.462 17.733 2.462s12.965-.036 17.733-2.462v8.062zM3.867 30.903v-9.898c4.768 2.425 17.088 2.462 17.733 2.462.908 0 1.85-.019 2.8-.047v10.267c-.951.029-1.893.047-2.8.047-10.996 0-17.267-1.807-17.733-2.83ZM21.6 3.867c10.887 0 17.145 1.773 17.718 2.8-.573 1.026-6.83 2.8-17.718 2.8-11.013 0-17.288-1.813-17.733-2.747v-.018c.445-1.023 6.72-2.835 17.733-2.835m0 42.933c-10.996 0-17.267-1.806-17.733-2.83V33.138C8.635 35.564 20.955 35.6 21.6 35.6c.908 0 1.85-.019 2.8-.047v11.2c-.951.028-1.893.047-2.8.047m-.933 7.467V52.4h24.266v1.709c.001.712.192 1.41.553 2.024H22.533a1.867 1.867 0 0 1-1.866-1.866m29.866 0a1.85 1.85 0 0 1-.547 1.319 1.9 1.9 0 0 1-1.457.547A1.987 1.987 0 0 1 46.8 54.11V52.4c0-1.03-.836-1.867-1.867-1.867H26.267V20.667c0-1.031.835-1.867 1.866-1.867h22.92a3.7 3.7 0 0 0-.52 1.867zM52.4 22.533v-1.866a1.867 1.867 0 1 1 3.733 0v1.866z"/><path fill="#282928" d="M40.686 31.96a.933.933 0 0 0-1.252.418L35.7 39.845a.934.934 0 1 0 1.67.834l3.734-7.467a.934.934 0 0 0-.418-1.252m-6.224.258a.933.933 0 0 0-1.312-.146l-4.667 3.733a.933.933 0 0 0 0 1.458l4.667 3.733a.934.934 0 1 0 1.167-1.457l-3.757-3.005 3.756-3.004a.933.933 0 0 0 .146-1.312m9.188-.146a.934.934 0 1 0-1.167 1.458l3.757 3.004-3.756 3.005a.934.934 0 1 0 1.167 1.457l4.666-3.733a.933.933 0 0 0 0-1.458z"/></svg>