<svg xmlns="http://www.w3.org/2000/svg" width="60" height="60"><defs><clipPath id="a"><path d="M0 0h60v60H0z"/></clipPath></defs><g fill="#282928" fill-rule="evenodd" clip-path="url(#a)"><path d="M21.561 35.711h11.454a.854.854 0 0 0 0-1.708H21.561a.854.854 0 0 0 0 1.708"/><path d="M28.764 34.828v20.557a.854.854 0 0 0 1.708 0V34.828a.854.854 0 0 0-1.708 0M10.516 3.117a6.022 6.022 0 1 0 6.023 6.022 6.025 6.025 0 0 0-6.023-6.022m0 1.708A4.314 4.314 0 1 1 6.202 9.14a4.317 4.317 0 0 1 4.314-4.315M49.626 3.117a6.022 6.022 0 1 0 6.022 6.022 6.025 6.025 0 0 0-6.022-6.022m0 1.708a4.314 4.314 0 1 1-4.315 4.315 4.316 4.316 0 0 1 4.315-4.315M15.223 27.338a.85.85 0 0 0 .765.474l.317-.062 7.862-3.143a2.361 2.361 0 1 1 1.753 4.384l-10.384 4.156a2.36 2.36 0 0 1-2.752-.758.854.854 0 0 0-1.532.518v4.288a.854.854 0 0 0 .755.848l6.911.8a3.237 3.237 0 0 1 2.866 3.216v13.33a.854.854 0 1 0 1.708 0v-13.33a4.945 4.945 0 0 0-4.378-4.912l-6.155-.711v-1.789a4.06 4.06 0 0 0 3.21.081l10.384-4.15a4.069 4.069 0 0 0-3.02-7.556l-7.193 2.875-4.132-6.763a4.07 4.07 0 0 0-2.629-1.859l-.1-.021a4.067 4.067 0 0 0-4.9 3.671c-.501 6.607-1.51 19.847-1.51 19.847v.065a4.945 4.945 0 0 0 4.371 4.91l6.162.8v8.84a.854.854 0 1 0 1.708 0v-9.59a.854.854 0 0 0-.745-.847l-6.922-.893a3.24 3.24 0 0 1-2.866-3.181s1.506-19.817 1.506-19.817a2.36 2.36 0 0 1 2.842-2.13l.1.021a2.36 2.36 0 0 1 1.526 1.079l4.42 7.236q.025.04.052.078Z"/><path d="m8.444 28.614 2.744 4.492a4.07 4.07 0 0 0 4.982 1.656.854.854 0 0 0-.634-1.586 2.36 2.36 0 0 1-2.891-.961l-2.744-4.492a.854.854 0 0 0-1.457.89ZM43.008 27.191 34.74 28.36a4.069 4.069 0 1 0 1.14 8.057l10.168-1.438a4 4 0 0 0 1.131-.332v1.783l-6.155.711a4.945 4.945 0 0 0-4.378 4.912v13.33a.854.854 0 1 0 1.708 0v-13.33a3.237 3.237 0 0 1 2.866-3.216l6.909-.8a.853.853 0 0 0 .759-.848V32.9a.854.854 0 0 0-1.532-.518 2.36 2.36 0 0 1-1.545.9L35.643 34.72a2.361 2.361 0 0 1-.662-4.675l8.664-1.225-.117.008.729-.409 4.62-7.562a3.02 3.02 0 0 1 2.8-1.436h.047a3.02 3.02 0 0 1 2.789 2.872l.848 18.552a3.24 3.24 0 0 1-2.866 3.2l-6.778.783a.853.853 0 0 0-.755.836l-.133 9.7a.854.854 0 1 0 1.708.023l.122-8.949 6.032-.7a4.945 4.945 0 0 0 4.378-4.912v-.039l-.848-18.573a4.726 4.726 0 0 0-4.366-4.5h-.047a4.73 4.73 0 0 0-4.389 2.249ZM38.135 5.683a2.56 2.56 0 0 0-2.561-2.561H23.662A2.56 2.56 0 0 0 21.1 5.683V16.53a1.423 1.423 0 0 0 2.358 1.073l2.624-2.287a.86.86 0 0 1 .561-.21h8.931a2.56 2.56 0 0 0 2.562-2.561zM22.808 15.905V5.683a.854.854 0 0 1 .854-.854h11.912a.854.854 0 0 1 .854.854v6.867a.854.854 0 0 1-.854.854h-8.929a2.56 2.56 0 0 0-1.683.63Z"/><path d="M25.814 8.407h7.737a.854.854 0 1 0 0-1.708h-7.737a.854.854 0 1 0 0 1.708M25.817 11.52h3.8a.854.854 0 0 0 0-1.708h-3.8a.854.854 0 1 0 0 1.708M43.483 35.377l2.566-.363a4.07 4.07 0 0 0 2.9-1.907l2.744-4.492a.854.854 0 0 0-1.457-.89l-2.744 4.492a2.36 2.36 0 0 1-1.684 1.107l-2.565.363a.854.854 0 1 0 .239 1.691Z"/></g></svg>