<svg xmlns="http://www.w3.org/2000/svg" width="60" height="60"><defs><clipPath id="a"><path d="M0 0h60v60H0z"/></clipPath></defs><g fill="#282928" clip-path="url(#a)"><path d="M54.269 33.548a3.46 3.46 0 0 0 0-6.83 24.44 24.44 0 0 0-6.35-13.25l3.972-3.977a3.464 3.464 0 1 0-1.117-1.12l-3.976 3.976a24.44 24.44 0 0 0-13.25-6.35 3.46 3.46 0 0 0-6.83 0 24.44 24.44 0 0 0-13.25 6.35L9.491 8.371a3.464 3.464 0 1 0-1.12 1.12l3.976 3.976a24.44 24.44 0 0 0-6.35 13.25 3.46 3.46 0 0 0 0 6.83 24.44 24.44 0 0 0 6.35 13.25l-3.976 3.977a3.464 3.464 0 1 0 1.12 1.117l3.976-3.976a24.44 24.44 0 0 0 13.25 6.35 3.46 3.46 0 0 0 6.83 0 24.44 24.44 0 0 0 13.25-6.35l3.977 3.976a3.464 3.464 0 1 0 1.117-1.117l-3.976-3.976a24.44 24.44 0 0 0 6.35-13.25ZM30.133 50.255a3.47 3.47 0 0 0-3.3 2.429A22.94 22.94 0 0 1 7.582 33.436a3.46 3.46 0 0 0 0-6.606A22.94 22.94 0 0 1 26.83 7.582a3.46 3.46 0 0 0 6.606 0A22.94 22.94 0 0 1 52.684 26.83a3.46 3.46 0 0 0 0 6.606 22.94 22.94 0 0 1-19.248 19.248 3.47 3.47 0 0 0-3.303-2.429m25.458-20.122a1.875 1.875 0 1 1-1.875-1.875 1.88 1.88 0 0 1 1.875 1.875M53.715 4.675a1.875 1.875 0 1 1-1.875 1.876 1.88 1.88 0 0 1 1.875-1.875Zm-23.582 0a1.875 1.875 0 1 1-1.875 1.876 1.88 1.88 0 0 1 1.875-1.875ZM4.676 6.551a1.875 1.875 0 1 1 1.875 1.875 1.88 1.88 0 0 1-1.875-1.875m0 23.582a1.875 1.875 0 1 1 1.875 1.875 1.88 1.88 0 0 1-1.875-1.875m1.875 25.458a1.875 1.875 0 1 1 1.875-1.875 1.88 1.88 0 0 1-1.875 1.875m23.582 0a1.875 1.875 0 1 1 1.875-1.875 1.88 1.88 0 0 1-1.875 1.875m25.458-1.876a1.875 1.875 0 1 1-1.875-1.875 1.88 1.88 0 0 1 1.875 1.875"/><path d="M45.684 35.835a.793.793 0 0 0-1.038.421 15.8 15.8 0 0 1-1.943 3.369 21.4 21.4 0 0 0-4.109-2.111 30.4 30.4 0 0 0 .859-6.588h6.408a16 16 0 0 1-.213 1.925.79.79 0 0 0 .645.916 1 1 0 0 0 .137.012.79.79 0 0 0 .78-.657 17.5 17.5 0 0 0 .257-2.989 17.25 17.25 0 0 0-3.933-10.982q-.013-.021-.027-.043a.8.8 0 0 0-.115-.128 17.323 17.323 0 0 0-27.954 1.964.792.792 0 1 0 1.343.841q.371-.593.788-1.143a21.4 21.4 0 0 0 4.107 2.11 30.4 30.4 0 0 0-.859 6.588h-6.411a15.7 15.7 0 0 1 .848-4.377.794.794 0 1 0-1.5-.52 17.33 17.33 0 0 0 2.978 16.672q.013.022.027.042a1 1 0 0 0 .115.128 17.326 17.326 0 0 0 29.231-4.409.79.79 0 0 0-.421-1.041m-8.592 1.159a23.7 23.7 0 0 0-6.166-1.023v-5.045h6.942a28.8 28.8 0 0 1-.777 6.068Zm-22.686-6.069h6.408a30.4 30.4 0 0 0 .859 6.588 21.4 21.4 0 0 0-4.1 2.106 15.66 15.66 0 0 1-3.167-8.694m7.993 0h6.942v5.045a23.7 23.7 0 0 0-6.166 1.023 29 29 0 0 1-.776-6.068m6.942 6.63v8.239c-1.68-.362-3.269-1.866-4.54-4.329a19 19 0 0 1-1.2-2.946 22 22 0 0 1 5.74-.964m1.584 8.239v-8.239a22 22 0 0 1 5.739.963 19 19 0 0 1-1.2 2.946c-1.27 2.464-2.859 3.968-4.539 4.33m4.54-26.993a19 19 0 0 1 1.2 2.946 22 22 0 0 1-5.739.963v-8.234c1.679.357 3.268 1.862 4.539 4.325m-6.124-4.325v8.239a22 22 0 0 1-5.739-.963 19 19 0 0 1 1.2-2.946c1.27-2.468 2.859-3.973 4.539-4.33m1.584 9.824a23.7 23.7 0 0 0 6.166-1.023 29 29 0 0 1 .776 6.069h-6.942Zm14.935 5.045h-6.408a30.4 30.4 0 0 0-.859-6.588 21.4 21.4 0 0 0 4.1-2.106 15.66 15.66 0 0 1 3.167 8.689Zm-4.193-9.916a19.8 19.8 0 0 1-3.508 1.8 20.3 20.3 0 0 0-1.282-3.153 13.3 13.3 0 0 0-2.038-2.971 15.8 15.8 0 0 1 6.828 4.319Zm-23.08-.007a15.6 15.6 0 0 1 6.85-4.323 13.2 13.2 0 0 0-2.045 2.979 20.4 20.4 0 0 0-1.287 3.148 19.8 19.8 0 0 1-3.517-1.808Zm4.59 3.854a23.7 23.7 0 0 0 6.166 1.023v5.045h-6.942a29 29 0 0 1 .776-6.068m-4.576 17.569a19.8 19.8 0 0 1 3.508-1.8 20.3 20.3 0 0 0 1.287 3.148 13.3 13.3 0 0 0 2.038 2.971 15.8 15.8 0 0 1-6.832-4.322Zm16.235 4.324a13.3 13.3 0 0 0 2.04-2.974 20.4 20.4 0 0 0 1.287-3.148 19.8 19.8 0 0 1 3.518 1.8 15.7 15.7 0 0 1-6.848 4.318Z"/></g></svg>