<svg xmlns="http://www.w3.org/2000/svg" width="60" height="60"><defs><clipPath id="a"><path d="M0 0h60v60H0z"/></clipPath></defs><g clip-path="url(#a)"><path fill="#282928" d="M16.614 23.51a.91.91 0 0 1-.908-.908v-3.286a.9.9 0 0 1 .359-.722 3.6 3.6 0 0 0 1.456-2.888v-2.723a3.63 3.63 0 1 0-7.261 0v2.723a3.6 3.6 0 0 0 1.456 2.888.9.9 0 0 1 .359.724v3.287a.908.908 0 1 1-1.815 0v-2.861a5.38 5.38 0 0 1-1.814-4.039v-2.722a5.446 5.446 0 0 1 10.891 0v2.723a5.39 5.39 0 0 1-1.815 4.039v2.859a.91.91 0 0 1-.908.908Z"/><path fill="#282928" d="M14.703 21.06a.907.907 0 0 1-.18-1.8 3.65 3.65 0 0 0 2.9-3.56.908.908 0 0 1 1.815 0 5.465 5.465 0 0 1-4.349 5.335 1 1 0 0 1-.183.02ZM19.898 24.933a.9.9 0 0 1-.358-.074l-3.401-1.461a.907.907 0 0 1 .715-1.668l3.4 1.461a.908.908 0 0 1-.358 1.743ZM8.446 35.921a.9.9 0 0 1-.376-.082L4.6 34.261a2.73 2.73 0 0 1-1.6-2.48v-2.516a6.32 6.32 0 0 1 3.837-5.827l3.97-1.723a.907.907 0 1 1 .722 1.665l-3.973 1.725a4.52 4.52 0 0 0-2.741 4.16v2.516a.91.91 0 0 0 .532.828l3.474 1.583a.908.908 0 0 1-.376 1.733ZM17.411 14.634a7.9 7.9 0 0 1-5-1.8.906.906 0 1 1 1.138-1.41 6 6 0 0 0 3.966 1.4 3.63 3.63 0 0 0-7.257.163v.671a.908.908 0 1 1-1.812 0v-.675a5.446 5.446 0 0 1 10.891 0v.635a.91.91 0 0 1-.764.9 7 7 0 0 1-1.162.12ZM48.831 23.511a.91.91 0 0 1-.908-.908v-3.287a.9.9 0 0 1 .359-.722 3.6 3.6 0 0 0 1.456-2.888v-2.723a3.63 3.63 0 0 0-7.261 0v2.723a3.6 3.6 0 0 0 1.456 2.888.9.9 0 0 1 .359.724v3.287a.908.908 0 0 1-1.815 0v-2.859a5.38 5.38 0 0 1-1.814-4.039v-2.722a5.446 5.446 0 0 1 10.891 0v2.723a5.39 5.39 0 0 1-1.815 4.039v2.859a.91.91 0 0 1-.908.905"/><path fill="#282928" d="M47.022 21.06a.907.907 0 0 1-.18-1.8 3.65 3.65 0 0 0 2.9-3.56.908.908 0 0 1 1.815 0 5.465 5.465 0 0 1-4.349 5.335 1 1 0 0 1-.186.025M40.368 24.819a.908.908 0 0 1-.358-1.743l3.135-1.347a.907.907 0 0 1 .715 1.668l-3.135 1.347a.9.9 0 0 1-.357.075M51.554 35.921a.908.908 0 0 1-.376-1.733l3.474-1.579a.91.91 0 0 0 .532-.828v-2.516a4.51 4.51 0 0 0-2.735-4.157L48.47 23.38a.907.907 0 1 1 .722-1.665l3.973 1.724a6.32 6.32 0 0 1 3.834 5.825v2.516a2.73 2.73 0 0 1-1.6 2.48l-3.474 1.579a.9.9 0 0 1-.376.082ZM32.366 11.922a10.72 10.72 0 0 1-6.748-2.242.907.907 0 1 1 1.212-1.348c1.79 1.608 6.077 2.449 8.533 1.131a.908.908 0 1 1 .859 1.6 8.24 8.24 0 0 1-3.855.86ZM29.986 28.412a5.34 5.34 0 0 1-4.992-3.592.907.907 0 0 1 1.721-.574 3.55 3.55 0 0 0 3.271 2.349 3.71 3.71 0 0 0 3.345-2.407.908.908 0 0 1 1.712.6 5.51 5.51 0 0 1-5.057 3.624"/><path fill="#282928" d="M47.243 35.672a.91.91 0 0 1-.908-.908v-.506a6.35 6.35 0 0 0-4.222-5.986l-7.571-2.686a2.72 2.72 0 0 1-1.82-2.564V20.79a.908.908 0 1 1 1.815 0v2.232a.9.9 0 0 0 .608.85l7.577 2.688a8.16 8.16 0 0 1 5.433 7.7v.508a.906.906 0 0 1-.908.906ZM12.756 35.672a.91.91 0 0 1-.908-.908v-.49a8.19 8.19 0 0 1 5.449-7.716l7.551-2.65a.91.91 0 0 0 .61-.851v-2.269a.908.908 0 1 1 1.815 0v2.269a2.72 2.72 0 0 1-1.825 2.564l-7.549 2.648a6.37 6.37 0 0 0-4.24 6v.49a.907.907 0 0 1-.903.913"/><path fill="#282928" d="M30 22.966a.908.908 0 1 1 0-1.815c1.884 0 5.446-1.706 5.446-8.168V10.26a5.446 5.446 0 1 0-10.891 0v2.723c0 3.129.837 5.524 2.418 6.923a.907.907 0 0 1-1.2 1.36c-1.386-1.224-3.034-3.653-3.034-8.284V10.26a7.261 7.261 0 0 1 14.521 0v2.723c0 7.9-4.748 9.983-7.261 9.983ZM43.6 51.562a.907.907 0 0 1-.4-1.721l4.489-2.224a.9.9 0 0 1 .8 0l2.933 1.454-.477-3.238a.9.9 0 0 1 .25-.766l2.293-2.343-3.231-.55a.91.91 0 0 1-.652-.474l-1.517-2.9-1.519 2.9a.91.91 0 0 1-.652.474l-3.229.55 2.294 2.338a.908.908 0 1 1-1.3 1.269l-3.5-3.581a.907.907 0 0 1 .5-1.528l4.494-.766 2.115-4.037a.908.908 0 0 1 1.608 0l2.113 4.037 4.5.766a.907.907 0 0 1 .5 1.528l-3.189 3.258.664 4.509a.91.91 0 0 1-.365.866.9.9 0 0 1-.937.078l-4.084-2.024-4.094 2.025a.9.9 0 0 1-.407.1M24.693 56.496a.907.907 0 0 1-.9-1.04l.8-5.415-3.826-3.914a.907.907 0 0 1 .5-1.528l5.4-.918 2.538-4.848a.946.946 0 0 1 1.61 0l2.538 4.848 5.4.918a.907.907 0 0 1 .5 1.528l-3.828 3.914.8 5.415a.91.91 0 0 1-.365.866.9.9 0 0 1-.937.078l-4.906-2.431-4.9 2.431a.9.9 0 0 1-.4.1Zm-1.421-10.4 2.93 3a.91.91 0 0 1 .25.766l-.61 4.144 3.756-1.861a.9.9 0 0 1 .8 0l3.754 1.861-.606-4.144a.9.9 0 0 1 .25-.766l2.931-3-4.133-.7a.91.91 0 0 1-.652-.474L30 41.21l-1.942 3.712a.91.91 0 0 1-.652.474ZM16.547 51.563a.9.9 0 0 1-.4-.094L12.06 49.44l-4.086 2.023a.909.909 0 0 1-1.3-.946l.664-4.509-3.191-3.255a.907.907 0 0 1 .5-1.528l4.5-.766 2.115-4.037a.908.908 0 0 1 1.608 0l2.107 4.041 4.494.766a.907.907 0 0 1 .5 1.528l-3.5 3.58a.908.908 0 1 1-1.3-1.269l2.291-2.343-3.229-.55a.91.91 0 0 1-.652-.474l-1.517-2.9-1.519 2.9a.91.91 0 0 1-.652.474l-3.231.55 2.29 2.338a.91.91 0 0 1 .25.766l-.477 3.234 2.935-1.454a.9.9 0 0 1 .8 0l4.487 2.224a.91.91 0 0 1 .412 1.216.92.92 0 0 1-.812.514"/></g></svg>