<svg xmlns="http://www.w3.org/2000/svg" width="60" height="60"><defs><clipPath id="a"><path d="M0 0h60v60H0z"/></clipPath></defs><g fill="#282928" clip-path="url(#a)"><path d="M37.962 28.656a4 4 0 1 0 4 4 4 4 0 0 0-4-4m0 6a2 2 0 1 1 2-2 2 2 0 0 1-2 2"/><path d="M51.6 19.202h-.972a5 5 0 0 0 .072-.9 6.307 6.307 0 0 0-6.3-6.3 6.2 6.2 0 0 0-3.7 1.206 9.9 9.9 0 0 0-4.428-2.628A6.31 6.31 0 0 0 30 4.802a6.2 6.2 0 0 0-3.7 1.206 9.9 9.9 0 0 0-16.964 5.994H8.4a5.4 5.4 0 0 0 0 10.8h9.315a5.386 5.386 0 0 0 5.085 7.2h7.992l-.108.027a.9.9 0 0 0-.684.873v.9H7.5a2.69 2.69 0 0 0-2.4 1.476 2.76 2.76 0 0 0-.3 1.224v17.1h-.792a.9.9 0 0 0-.882 1.053l.414 2.3a.3.3 0 0 0 .018.1 2.72 2.72 0 0 0 2.592 1.947h31.5a2.72 2.72 0 0 0 2.592-1.944.3.3 0 0 0 .018-.1l.414-2.3a.9.9 0 0 0-.882-1.053H39V40.802h.9a.9.9 0 0 0 .873-.684l.153-.6.531.324a.9.9 0 0 0 1.1-.135l2.543-2.55a.9.9 0 0 0 .135-1.1l-.324-.531.6-.153a.9.9 0 0 0 .689-.871v-3.6a.9.9 0 0 0-.684-.873l-.108-.027H51.6a5.4 5.4 0 1 0 0-10.8m-32.814 1.8H8.4a3.6 3.6 0 1 1 0-7.2h1.8a.9.9 0 0 0 .9-.9 8.1 8.1 0 0 1 14.409-5.076.92.92 0 0 0 .657.333.9.9 0 0 0 .675-.261 4.493 4.493 0 0 1 7.569 2.349 8 8 0 0 0-.81-.045 9.92 9.92 0 0 0-9.864 9H22.8a5.4 5.4 0 0 0-4.014 1.8M6.6 34.502a1 1 0 0 1 .1-.4.89.89 0 0 1 .8-.5H30v.9a.9.9 0 0 0 .684.873l.6.153-.324.531a.9.9 0 0 0 .135 1.1l2.55 2.543a.9.9 0 0 0 1.1.135l.531-.324.153.6a.9.9 0 0 0 .873.684h.9v10.805H24.6a.9.9 0 0 0-.9.9h-3.6a.9.9 0 0 0-.9-.9H6.6ZM38.5 54.59a.91.91 0 0 1-.855.612H6.15a.91.91 0 0 1-.855-.612l-.207-1.188H18.3a.9.9 0 0 0 .9.9h5.4a.9.9 0 0 0 .9-.9h13.212Zm5.9-20.788-1.1.27a.9.9 0 0 0-.612.531.92.92 0 0 0 .054.81l.585.972-1.548 1.548-.972-.585a.92.92 0 0 0-.807-.056.9.9 0 0 0-.531.612l-.269 1.098H37l-.27-1.1a.9.9 0 0 0-.531-.612.92.92 0 0 0-.81.054l-.972.585-1.548-1.548.585-.972a.92.92 0 0 0 .054-.81.9.9 0 0 0-.612-.531l-1.1-.27v-2.196l1.1-.27a.9.9 0 0 0 .612-.531.92.92 0 0 0-.054-.81l-.585-.972 1.548-1.548.972.576a.89.89 0 0 0 .81.063.9.9 0 0 0 .531-.612l.27-1.096h2.2l.27 1.1a.9.9 0 0 0 .53.61.89.89 0 0 0 .81-.063l.972-.576 1.548 1.548-.585.972a.92.92 0 0 0-.054.81.9.9 0 0 0 .612.531l1.1.27Zm7.2-5.6h-6.543l-2.5-2.5a.9.9 0 0 0-1.1-.135l-.531.324-.153-.6a.9.9 0 0 0-.873-.689h-3.6a.9.9 0 0 0-.873.684l-.153.6-.531-.324a.9.9 0 0 0-1.1.135l-2.5 2.5H22.8a3.6 3.6 0 0 1 0-7.2h1.8a.9.9 0 0 0 .9-.9 8.1 8.1 0 0 1 14.409-5.076.92.92 0 0 0 .657.333.9.9 0 0 0 .675-.261 4.5 4.5 0 0 1 7.659 3.209 4.7 4.7 0 0 1-.261 1.5.91.91 0 0 0 .108.819.93.93 0 0 0 .738.378H51.6a3.6 3.6 0 1 1 0 7.2Z"/><path d="M50 42.537a3 3 0 0 1-3 3h-8v2h8a5.006 5.006 0 0 0 5-5v-12h-2ZM20.931 41.554h2v2h-2zM24.517 41.554h2v2h-2zM17.345 41.554h2v2h-2z"/></g></svg>