<svg xmlns="http://www.w3.org/2000/svg" width="60" height="60"><defs><clipPath id="a"><path d="M0 0h60v60H0z"/></clipPath></defs><g clip-path="url(#a)"><path fill="#282928" fill-rule="evenodd" d="M52.039 20.087a24.17 24.17 0 0 1-29.865 32.758l1.421 2.46a.766.766 0 0 1-.281 1.045.765.765 0 0 1-1.045-.28l-2.518-4.36a.77.77 0 0 1-.076-.581.76.76 0 0 1 .357-.464l4.359-2.518a.765.765 0 1 1 .765 1.326l-3.011 1.738a22.635 22.635 0 0 0 28.5-30.5.767.767 0 0 1 1.4-.628ZM50.185 3H48.43a1.22 1.22 0 0 0-1.036 1.206.768.768 0 0 1-1.311.543 1.22 1.22 0 0 0-1.726 0l-.979.979a1.22 1.22 0 0 0 0 1.726.769.769 0 0 1-.544 1.311 1.22 1.22 0 0 0-1.22 1.22v1.386a1.22 1.22 0 0 0 1.22 1.22.769.769 0 0 1 .544 1.311 1.22 1.22 0 0 0 0 1.725l.979.98a1.22 1.22 0 0 0 1.726 0 .768.768 0 0 1 1.311.543 1.22 1.22 0 0 0 1.22 1.22H50a1.22 1.22 0 0 0 1.22-1.22.769.769 0 0 1 1.311-.543 1.22 1.22 0 0 0 1.726 0l.98-.98a1.223 1.223 0 0 0 0-1.726.768.768 0 0 1 .543-1.311A1.22 1.22 0 0 0 57 11.37V9.985a1.22 1.22 0 0 0-1.22-1.22.768.768 0 0 1-.543-1.311 1.223 1.223 0 0 0 0-1.726l-.98-.98a1.22 1.22 0 0 0-1.726 0 .769.769 0 0 1-1.311-.543A1.22 1.22 0 0 0 50.185 3M7.96 39.884a.767.767 0 0 0 1.4-.627 22.639 22.639 0 0 1 28.5-30.5l-3.015 1.742a.765.765 0 0 0 .765 1.325l4.36-2.517a.765.765 0 0 0 .28-1.045l-2.517-4.36a.765.765 0 0 0-1.326.765l1.421 2.46A24.167 24.167 0 0 0 7.96 39.884m2.732 11.972a2.563 2.563 0 1 1 2.563-2.563 2.566 2.566 0 0 1-2.563 2.563m0-6.656a4.093 4.093 0 1 0 4.094 4.093 4.1 4.1 0 0 0-4.094-4.093m6.162 4.5v-.8a2.3 2.3 0 0 1-1.519-3.671l-.57-.569a2.3 2.3 0 0 1-3.671-1.521h-.8a2.3 2.3 0 0 1-3.671 1.521l-.568.569A2.3 2.3 0 0 1 4.534 48.9v.8a2.3 2.3 0 0 1 1.521 3.671l.564.566a2.3 2.3 0 0 1 3.671 1.52h.8a2.3 2.3 0 0 1 3.675-1.52l.57-.569a2.3 2.3 0 0 1 1.519-3.67Zm.311-2.315a.769.769 0 0 1-.543-1.311 1.22 1.22 0 0 0 0-1.726l-.979-.98a1.22 1.22 0 0 0-1.726 0 .769.769 0 0 1-1.31-.543 1.22 1.22 0 0 0-1.22-1.22H10a1.22 1.22 0 0 0-1.221 1.22.769.769 0 0 1-1.311.543 1.22 1.22 0 0 0-1.726 0l-.979.98a1.22 1.22 0 0 0 0 1.726.769.769 0 0 1-.543 1.311A1.22 1.22 0 0 0 3 48.605v1.386a1.22 1.22 0 0 0 1.22 1.22.769.769 0 0 1 .543 1.311 1.22 1.22 0 0 0 0 1.726l.979.98a1.22 1.22 0 0 0 1.726 0 .767.767 0 0 1 1.311.543A1.22 1.22 0 0 0 10 56.991h1.385a1.22 1.22 0 0 0 1.22-1.22.769.769 0 0 1 1.311-.543 1.22 1.22 0 0 0 1.726 0l.979-.98a1.22 1.22 0 0 0 0-1.725.769.769 0 0 1 .543-1.311 1.22 1.22 0 0 0 1.22-1.22V48.6a1.22 1.22 0 0 0-1.22-1.22Zm32.143-34.148a2.563 2.563 0 1 1 2.563-2.563 2.566 2.566 0 0 1-2.563 2.563m0-6.656a4.093 4.093 0 1 1-4.094 4.093 4.1 4.1 0 0 1 4.094-4.089Zm6.162 4.5a2.3 2.3 0 0 0-1.525 3.67l-.568.569a2.3 2.3 0 0 0-3.667 1.517h-.8a2.3 2.3 0 0 0-3.671-1.52l-.568-.569a2.3 2.3 0 0 0-1.526-3.668v-.8a2.3 2.3 0 0 0 1.521-3.671l.568-.569a2.3 2.3 0 0 0 3.671-1.52h.8a2.3 2.3 0 0 0 3.676 1.517l.564.568a2.3 2.3 0 0 0 1.52 3.671ZM30 36.096a6.11 6.11 0 1 0-6.11-6.11 6.117 6.117 0 0 0 6.11 6.11m0-13.75a7.64 7.64 0 1 0 7.64 7.64A7.65 7.65 0 0 0 30 22.345Zm13.369 6.035a3.933 3.933 0 0 1-2.78-6.712.176.176 0 0 0 0-.247l-2.025-2.025a.175.175 0 0 0-.247 0 3.933 3.933 0 0 1-6.712-2.78.176.176 0 0 0-.175-.175h-2.861a.175.175 0 0 0-.175.175 3.933 3.933 0 0 1-6.712 2.78.176.176 0 0 0-.247 0l-2.024 2.024a.174.174 0 0 0 0 .247 3.934 3.934 0 0 1-2.781 6.712.175.175 0 0 0-.175.175v2.861a.175.175 0 0 0 .175.175 3.933 3.933 0 0 1 2.781 6.712.174.174 0 0 0 0 .247l2.024 2.024a.17.17 0 0 0 .123.051.17.17 0 0 0 .124-.051 3.88 3.88 0 0 1 2.754-1.162 4 4 0 0 1 1.53.31 3.87 3.87 0 0 1 2.427 3.632.175.175 0 0 0 .175.175h2.861a.176.176 0 0 0 .175-.175 3.933 3.933 0 0 1 6.711-2.78.175.175 0 0 0 .247 0l2.025-2.024a.176.176 0 0 0 0-.247 3.933 3.933 0 0 1 2.78-6.712.175.175 0 0 0 .175-.175v-2.861a.175.175 0 0 0-.174-.175Zm-1.7-8.042-2.024-2.024a1.71 1.71 0 0 0-2.411 0 2.4 2.4 0 0 1-4.1-1.7 1.71 1.71 0 0 0-1.706-1.705h-2.859a1.707 1.707 0 0 0-1.705 1.705 2.4 2.4 0 0 1-4.1 1.7 1.71 1.71 0 0 0-2.411 0l-2.024 2.022a1.7 1.7 0 0 0 0 2.412 2.4 2.4 0 0 1-1.7 4.1 1.707 1.707 0 0 0-1.705 1.705v2.861a1.707 1.707 0 0 0 1.705 1.705 2.4 2.4 0 0 1 1.7 4.1 1.7 1.7 0 0 0 0 2.412l2.023 2.024a1.707 1.707 0 0 0 2.411 0 2.4 2.4 0 0 1 4.1 1.7 1.707 1.707 0 0 0 1.705 1.705h2.861a1.71 1.71 0 0 0 1.706-1.705 2.4 2.4 0 0 1 4.1-1.7 1.706 1.706 0 0 0 2.411 0l2.025-2.019a1.707 1.707 0 0 0 0-2.411 2.4 2.4 0 0 1 1.7-4.1 1.71 1.71 0 0 0 1.706-1.705v-2.866a1.71 1.71 0 0 0-1.706-1.705 2.4 2.4 0 0 1-1.7-4.1 1.706 1.706 0 0 0-.001-2.413Z"/></g></svg>