<svg xmlns="http://www.w3.org/2000/svg" width="60" height="60" fill="none"><path fill="#282928" d="M54.425 6H43.071a.794.794 0 0 0 0 1.588h11.354c.599 0 1.086.486 1.086 1.085v4.133l-51.02-.011V8.673c0-.599.486-1.085 1.085-1.085h33.772a.794.794 0 1 0 0-1.588H5.576a2.676 2.676 0 0 0-2.673 2.673v42.653C2.902 52.8 4.101 54 5.574 54h48.85a2.676 2.676 0 0 0 2.673-2.673V8.673C57.098 7.199 55.9 6 54.425 6m1.085 45.326c0 .599-.487 1.085-1.085 1.085H20.269v-23.44a.794.794 0 0 0-1.588 0v23.43H5.576a1.087 1.087 0 0 1-1.086-1.084V14.394h14.191v10.94a.794.794 0 0 0 1.588 0v-10.94H55.51z"/><path fill="#282928" d="M11.25 16.686H8.554a.794.794 0 1 0 0 1.587h2.696a.794.794 0 1 0 0-1.587M11.25 20.664H8.554a.794.794 0 1 0 0 1.588h2.696a.794.794 0 1 0 0-1.588M11.25 24.643H8.554a.794.794 0 1 0 0 1.587h2.696a.794.794 0 1 0 0-1.587M11.25 28.621H8.554a.794.794 0 1 0 0 1.588h2.696a.794.794 0 1 0 0-1.588M11.25 32.598H8.554a.794.794 0 1 0 0 1.587h2.696a.794.794 0 1 0 0-1.587M11.25 36.576H8.554a.794.794 0 1 0 0 1.588h2.696a.794.794 0 0 0 0-1.588M11.25 40.553H8.554a.794.794 0 1 0 0 1.587h2.696a.794.794 0 0 0 0-1.587M11.25 44.531H8.554a.794.794 0 1 0 0 1.588h2.696a.794.794 0 1 0 0-1.588M11.25 48.51H8.554a.794.794 0 1 0 0 1.587h2.696a.794.794 0 0 0 0-1.587M28.243 26.173a.793.793 0 0 0 1.03-.444l3.165-7.956a.794.794 0 1 0-1.475-.587l-3.164 7.956a.794.794 0 0 0 .444 1.03M34.32 25.742a.793.793 0 0 0 1.085-.289l2.125-3.668a.8.8 0 0 0-.008-.808l-2.124-3.525a.794.794 0 1 0-1.36.82l1.883 3.123-1.89 3.262c-.22.38-.09.865.289 1.085M24.831 25.453a.793.793 0 1 0 1.374-.796l-1.89-3.262 1.883-3.123a.794.794 0 0 0-1.36-.82l-2.124 3.525a.8.8 0 0 0-.008.808zM23.393 30.209h18.014a.794.794 0 1 0 0-1.588H23.393a.794.794 0 1 0 0 1.588M23.393 34.185h3.518a.794.794 0 1 0 0-1.587h-3.518a.794.794 0 1 0 0 1.587M34.578 32.598h-3.519a.794.794 0 1 0 0 1.587h3.518a.794.794 0 1 0 0-1.587M36.13 38.164h3.518a.794.794 0 0 0 0-1.588H36.13a.794.794 0 1 0 0 1.588M39.648 44.531H36.13a.794.794 0 0 0 0 1.588h3.518a.794.794 0 1 0 0-1.588M23.393 50.097h9.426a.794.794 0 0 0 0-1.587h-9.426a.794.794 0 1 0 0 1.587M23.393 38.164h9.426a.794.794 0 0 0 0-1.588h-9.426a.794.794 0 1 0 0 1.588M42.96 38.164h9.426a.794.794 0 0 0 0-1.588H42.96a.794.794 0 1 0 0 1.588M23.393 42.14h2.125a.794.794 0 0 0 0-1.587h-2.125a.794.794 0 0 0 0 1.587M45.884 40.553H28.72a.794.794 0 1 0 0 1.587h17.164a.794.794 0 0 0 0-1.587M23.393 46.119h9.426a.794.794 0 1 0 0-1.588h-9.426a.794.794 0 0 0 0 1.588"/></svg>