<svg xmlns="http://www.w3.org/2000/svg" width="60" height="60" fill="none"><path fill="#282928" fill-rule="evenodd" d="M47.55 38.746H12.451a3.18 3.18 0 0 1-3.179-3.178V6.778a3.18 3.18 0 0 1 3.179-3.176h35.097a3.18 3.18 0 0 1 3.178 3.177v28.789a3.18 3.18 0 0 1-3.178 3.178M12.451 5.006c-.978 0-1.772.796-1.772 1.773v28.789c0 .977.794 1.772 1.772 1.772h35.097c.978 0 1.772-.795 1.772-1.772V6.778c0-.977-.794-1.771-1.772-1.771z" clip-rule="evenodd"/><path fill="#282928" fill-rule="evenodd" d="M50.024 12.346H9.977a.704.704 0 0 1 0-1.406h40.047a.704.704 0 0 1 0 1.406M16.65 8.677h-1.341a.702.702 0 1 1 0-1.406h1.34a.703.703 0 1 1 0 1.406M21.104 8.677h-1.341a.702.702 0 1 1 0-1.406h1.341a.703.703 0 1 1 0 1.406M25.56 8.677h-1.341a.702.702 0 1 1 0-1.406h1.34a.703.703 0 1 1 0 1.406M22.053 30.314a.7.7 0 0 1-.497-.205l-4.77-4.77a.7.7 0 0 1 0-.995l4.77-4.77a.703.703 0 0 1 .994.995l-4.273 4.272 4.273 4.274a.701.701 0 0 1-.497 1.199M37.948 30.314a.701.701 0 0 1-.497-1.199l4.272-4.273-4.272-4.273a.703.703 0 0 1 .994-.994l4.769 4.77a.705.705 0 0 1 0 .994l-4.77 4.77a.7.7 0 0 1-.496.205M27.245 30.315a.702.702 0 0 1-.607-1.055l5.506-9.54a.704.704 0 0 1 1.218.703l-5.508 9.54a.7.7 0 0 1-.61.352" clip-rule="evenodd"/><path fill="#282928" fill-rule="evenodd" d="M57.032 50.11H2.97a.703.703 0 0 1-.702-.702V15.525c0-.698.567-1.265 1.265-1.265h6.444a.703.703 0 1 1 0 1.405H3.673v33.04H56.33v-33.04h-6.305a.703.703 0 1 1 0-1.405h6.444c.699 0 1.266.567 1.266 1.265v33.883a.703.703 0 0 1-.703.703" clip-rule="evenodd"/><path fill="#282928" fill-rule="evenodd" d="M56.14 56.4H3.86a3.85 3.85 0 0 1-3.846-3.848v-3.144c0-.388.315-.703.703-.703h58.568c.388 0 .702.315.702.703v3.144A3.85 3.85 0 0 1 56.14 56.4M1.42 50.11v2.441a2.445 2.445 0 0 0 2.44 2.443h52.28a2.445 2.445 0 0 0 2.442-2.441V50.11z" clip-rule="evenodd"/><path fill="#282928" fill-rule="evenodd" d="M35.443 53.106H24.557a.704.704 0 0 1-.703-.704v-2.994c0-.388.315-.703.703-.703h10.886c.388 0 .704.315.704.703v2.994a.704.704 0 0 1-.704.703M25.26 51.698h9.482v-1.588H25.26zM52.147 53.255h-8.2a.703.703 0 1 1 0-1.405h8.2a.702.702 0 1 1 0 1.405M16.054 53.255h-8.2a.702.702 0 1 1 0-1.405h8.2a.703.703 0 1 1 0 1.405M49.854 44.72H10.147a.703.703 0 1 1 0-1.405h39.707a.703.703 0 1 1 0 1.406" clip-rule="evenodd"/></svg>