<svg xmlns="http://www.w3.org/2000/svg" width="60" height="60"><defs><clipPath id="a"><path d="M0 0h60v60H0z"/></clipPath></defs><g clip-path="url(#a)"><path fill="#282928" fill-rule="evenodd" d="M24.286 20.928a.63.63 0 0 1-.448-.186l-3.36-3.36a.634.634 0 0 1 0-.894l3.36-3.36a.634.634 0 0 1 .9.894l-2.914 2.913 2.914 2.913a.633.633 0 0 1-.447 1.08ZM35.482 20.927a.633.633 0 0 1-.447-1.08l2.91-2.912-2.913-2.913a.632.632 0 0 1 .894-.894l3.36 3.36a.63.63 0 0 1 0 .894l-3.36 3.36a.63.63 0 0 1-.447.186ZM27.944 20.928a.6.6 0 0 1-.315-.085.63.63 0 0 1-.232-.863l3.881-6.72a.632.632 0 1 1 1.094.631l-3.879 6.721a.63.63 0 0 1-.549.316M30.606 47.009h-1.442a1.134 1.134 0 0 1-1.12-1.07l-.144-1.807a8 8 0 0 1-2.089-.867L24.43 44.44a1.2 1.2 0 0 1-.77.288 1.1 1.1 0 0 1-.779-.322l-1.023-1.02a1.134 1.134 0 0 1-.035-1.549l1.176-1.381a7.9 7.9 0 0 1-.867-2.089l-1.808-.144a1.135 1.135 0 0 1-1.07-1.12v-1.442a1.134 1.134 0 0 1 1.07-1.12l1.808-.144a7.9 7.9 0 0 1 .866-2.089l-1.175-1.381a1.135 1.135 0 0 1 .035-1.549l1.019-1.019a1.1 1.1 0 0 1 .779-.323 1.2 1.2 0 0 1 .77.288l1.381 1.175a8 8 0 0 1 2.089-.865l.145-1.808a1.133 1.133 0 0 1 1.119-1.07h1.442a1.134 1.134 0 0 1 1.12 1.07l.145 1.808a8 8 0 0 1 2.088.865l1.381-1.175a1.2 1.2 0 0 1 .77-.288 1.1 1.1 0 0 1 .779.323l1.02 1.019a1.134 1.134 0 0 1 .034 1.549l-1.175 1.381a8 8 0 0 1 .865 2.089l1.808.145a1.133 1.133 0 0 1 1.07 1.119v1.442a1.134 1.134 0 0 1-1.07 1.12l-1.807.145a7.9 7.9 0 0 1-.867 2.088l1.175 1.382a1.133 1.133 0 0 1-.034 1.548l-1.02 1.02a1.1 1.1 0 0 1-.779.322 1.2 1.2 0 0 1-.769-.288l-1.382-1.175a8 8 0 0 1-2.088.865l-.145 1.808a1.134 1.134 0 0 1-1.115 1.071m-1.308-1.264h1.174l.175-2.18a.63.63 0 0 1 .511-.57 6.7 6.7 0 0 0 2.5-1.036.63.63 0 0 1 .765.042l1.666 1.418.83-.831-1.417-1.666a.63.63 0 0 1-.042-.765 6.7 6.7 0 0 0 1.037-2.5.63.63 0 0 1 .57-.511l2.179-.175v-1.174l-2.18-.175a.63.63 0 0 1-.57-.511 6.7 6.7 0 0 0-1.036-2.5.634.634 0 0 1 .041-.765l1.418-1.666-.831-.831-1.665 1.418a.634.634 0 0 1-.765.042 6.7 6.7 0 0 0-2.5-1.037.63.63 0 0 1-.511-.57l-.175-2.179h-1.174l-.175 2.179a.63.63 0 0 1-.511.57 6.7 6.7 0 0 0-2.5 1.036.63.63 0 0 1-.764-.041l-1.666-1.418-.83.831 1.417 1.666a.63.63 0 0 1 .042.764 6.6 6.6 0 0 0-1.037 2.5.63.63 0 0 1-.57.511l-2.179.176v1.174l2.18.175a.63.63 0 0 1 .57.511 6.7 6.7 0 0 0 1.036 2.5.63.63 0 0 1-.041.764l-1.419 1.666.831.831L25.348 42a.63.63 0 0 1 .765-.041 6.6 6.6 0 0 0 2.5 1.036.634.634 0 0 1 .511.57Z"/><path fill="#282928" fill-rule="evenodd" d="M29.884 41.818a5.436 5.436 0 1 1 5.436-5.435 5.44 5.44 0 0 1-5.436 5.435m0-9.607a4.171 4.171 0 1 0 4.172 4.172 4.176 4.176 0 0 0-4.172-4.172"/><path fill="#282928" fill-rule="evenodd" d="M42.394 56.951H17.38a3.38 3.38 0 0 1-3.376-3.376V6.381a3.38 3.38 0 0 1 3.376-3.38h25.018a3.38 3.38 0 0 1 3.372 3.38v47.2a3.38 3.38 0 0 1-3.376 3.37M17.38 4.265a2.114 2.114 0 0 0-2.116 2.116v47.2a2.113 2.113 0 0 0 2.112 2.112h25.018a2.114 2.114 0 0 0 2.112-2.112v-47.2a2.115 2.115 0 0 0-2.112-2.112H17.38Z"/><path fill="#282928" fill-rule="evenodd" d="M45.138 10.663H14.633a.632.632 0 1 1 0-1.264h30.506a.632.632 0 0 1 0 1.264ZM45.138 50.553H14.633a.632.632 0 1 1 0-1.264h30.506a.632.632 0 0 1 0 1.264ZM31.649 53.753h-3.527a.633.633 0 0 1 0-1.265h3.527a.633.633 0 0 1 0 1.265M31.649 7.464h-3.527a.633.633 0 0 1 0-1.265h3.527a.633.633 0 0 1 0 1.265"/></g></svg>