<svg xmlns="http://www.w3.org/2000/svg" width="60" height="60" fill="none"><g fill="#282928" clip-path="url(#a)"><path d="M26.65 3.146h29.815v1.759H26.65zM11.683 56.387a2.64 2.64 0 0 0 2.637-2.638 2.64 2.64 0 0 0-2.637-2.638 2.64 2.64 0 0 0-2.638 2.638 2.64 2.64 0 0 0 2.638 2.638m0-3.517a.88.88 0 0 1 0 1.758.88.88 0 0 1 0-1.758M56.522 27.549H37.18v12.309h19.342zm-1.758 10.55H38.938v-8.792h15.826z"/><path d="M60.04 48.727V-.117H11.39v19.46H2.697A2.64 2.64 0 0 0 .06 21.98v35.168a2.64 2.64 0 0 0 2.637 2.637H20.28a2.64 2.64 0 0 0 2.638-2.637V39.857H34.25V27.548H22.918V25.79h33.604V9.964H14.907v9.378H13.15V8.167H58.28v38.802H36.836l-11.82 4.708 11.82 4.709H58.28v3.497h1.758v-5.255H38.99l2.68-2.95-2.68-2.95zm-38.88 8.421a.88.88 0 0 1-.88.879H2.696a.88.88 0 0 1-.88-.879V49.47H21.16zm-9.476-18.942a4.186 4.186 0 0 1 4.18 4.181v5.324H7.503v-5.324a4.186 4.186 0 0 1 4.182-4.18M9.017 33.81a2.64 2.64 0 0 1 2.637-2.638 2.64 2.64 0 0 1 2.638 2.638 2.64 2.64 0 0 1-2.638 2.638 2.64 2.64 0 0 1-2.637-2.638m12.142 13.901h-3.536v-5.324a5.94 5.94 0 0 0-3.125-5.229 4.39 4.39 0 0 0 1.552-3.348 4.4 4.4 0 0 0-4.396-4.396 4.4 4.4 0 0 0-4.396 4.396c0 1.35.613 2.561 1.575 3.368a5.94 5.94 0 0 0-3.089 5.21v5.323H1.817V28.017h19.342zm11.332-18.404v8.792h-9.573v-8.792zM16.665 11.723h38.099v12.309H22.918V21.98a2.64 2.64 0 0 0-2.638-2.638h-3.615zM20.28 21.1a.88.88 0 0 1 .88.879v4.279H1.816V21.98a.88.88 0 0 1 .88-.88zm12.328 31.708-2.84-1.132 2.84-1.131zm6.686-1.132-2.53 2.787-2.397-.955v-3.664l2.397-.954zM58.281 6.408H13.15V1.641H58.28z"/><path d="M5.236 22.8h1.759v1.76H5.236zM8.752 22.8h9.378v1.76H8.752zM18.658 3.146h1.759v1.759h-1.759zM22.176 3.146h1.758v1.759h-1.758zM15.143 3.146H16.9v1.759h-1.758zM41.303 13.637H52.83v1.758H41.303zM35.715 17.115h13.598v1.759H35.715zM51.072 17.115h1.759v1.759h-1.759zM38.059 20.633h14.77v1.758H38.06zM31.025 20.633h1.759v1.758h-1.759zM34.543 20.633h1.758v1.758h-1.758zM51.229 41.732h1.758v1.76h-1.759zM40.678 41.732h1.758v1.76h-1.758zM44.195 41.732h1.759v1.76h-1.759zM47.71 41.732h1.76v1.76h-1.76z"/></g><defs><clipPath id="a"><path fill="#fff" d="M0 0h59.883v60H0z"/></clipPath></defs></svg>