<svg xmlns="http://www.w3.org/2000/svg" width="60" height="60"><defs><clipPath id="a"><path d="M0 0h60v60H0z"/></clipPath></defs><g fill="#282928" clip-path="url(#a)"><path d="m36.319 8.385 2.368-3.947a.948.948 0 1 0-1.626-.976l-2.5 4.165a13.96 13.96 0 0 0-9.5 0l-2.495-4.165a.948.948 0 1 0-1.626.976l2.368 3.947a14.23 14.23 0 0 0-7.721 12.636.95.95 0 0 0 .948.948h26.552a.95.95 0 0 0 .948-.948 14.23 14.23 0 0 0-7.716-12.636m-18.8 11.688a12.329 12.329 0 0 1 24.586 0Z"/><path d="M36.43 13.779h-1.25a.625.625 0 0 0-.625.625v1.25a.625.625 0 0 0 .625.625h1.251a.625.625 0 0 0 .623-.625v-1.25a.626.626 0 0 0-.624-.625M24.446 13.779h-1.251a.625.625 0 0 0-.625.625v1.25a.625.625 0 0 0 .625.625h1.251a.625.625 0 0 0 .625-.625v-1.25a.625.625 0 0 0-.625-.625M43.087 22.917H16.535a.95.95 0 0 0-.948.948v19.13a4.587 4.587 0 0 0 4.584 4.58h1.106v5.7a3.794 3.794 0 0 0 7.587 0v-5.7h1.9v5.7a3.794 3.794 0 0 0 7.587 0v-5.7h1.106a4.587 4.587 0 0 0 4.584-4.58V23.866a.95.95 0 0 0-.954-.949m-.948 20.078a2.69 2.69 0 0 1-2.688 2.683H37.4a.95.95 0 0 0-.948.948v6.644a1.9 1.9 0 0 1-3.793 0v-6.643a.95.95 0 0 0-.948-.948h-3.795a.95.95 0 0 0-.948.948v6.644a1.9 1.9 0 0 1-3.793 0v-6.644a.95.95 0 0 0-.948-.948h-2.055a2.69 2.69 0 0 1-2.685-2.683V24.817h24.654ZM48.305 22.917a3.325 3.325 0 0 0-3.319 3.324v13.27a3.32 3.32 0 1 0 6.639 0v-13.27a3.325 3.325 0 0 0-3.32-3.324m1.423 16.593a1.423 1.423 0 1 1-2.845 0V26.241a1.423 1.423 0 1 1 2.845 0ZM11.319 22.917A3.325 3.325 0 0 0 8 26.241v13.27a3.32 3.32 0 1 0 6.639 0v-13.27a3.325 3.325 0 0 0-3.32-3.324m1.423 16.593a1.423 1.423 0 1 1-2.845 0V26.241a1.423 1.423 0 1 1 2.845 0Z"/></g></svg>