<svg xmlns="http://www.w3.org/2000/svg" width="60" height="60"><defs><clipPath id="a"><path d="M0 0h60v60H0z"/></clipPath></defs><g fill="#282928" clip-path="url(#a)"><path d="m40.602 23.039-10.607-6.128a.97.97 0 0 0-.964 0l-10.607 6.133a.97.97 0 0 0-.482.834V36.12a.96.96 0 0 0 .482.834l10.607 6.128a1 1 0 0 0 .483.125.97.97 0 0 0 .482-.13l10.607-6.128a.96.96 0 0 0 .482-.834V23.873a.96.96 0 0 0-.482-.834Zm-11.088-4.175 8.716 5.033-8.716 4.986-8.678-5Zm-9.643 6.682 8.678 5.009v10.02l-8.678-5.009Zm10.606 15.029V30.556l8.678-4.971v9.975ZM27.102 7.739l1.447-1.444v7.309a.964.964 0 0 0 1.929 0V6.288l1.446 1.446a.967.967 0 1 0 1.369-1.364l-3.1-3.091a.964.964 0 0 0-1.36 0l-3.1 3.091a.968.968 0 0 0 1.369 1.369M31.924 52.254l-1.446 1.445v-7.308a.964.964 0 0 0-1.928 0v7.314l-1.447-1.446a.967.967 0 1 0-1.369 1.364l3.1 3.1a.964.964 0 0 0 1.36 0l3.1-3.1a.968.968 0 1 0-1.369-1.369ZM15.799 20.963l-6.335-3.659 1.982-.53a.964.964 0 1 0-.482-1.861L6.73 16.045a.96.96 0 0 0-.6.448 1 1 0 0 0-.1.733l1.138 4.233a.964.964 0 0 0 .931.714 1 1 0 0 0 .251-.034.964.964 0 0 0 .68-1.181l-.53-1.982 6.335 3.655a.963.963 0 0 0 .964-1.668M51.857 38.531a.964.964 0 0 0-1.861.482l.53 1.985-6.335-3.635a.964.964 0 0 0-.964 1.668l6.335 3.659-1.982.53a.964.964 0 0 0 .246 1.895 1 1 0 0 0 .251-.034l4.233-1.133a.97.97 0 0 0 .588-.448 1 1 0 0 0 .1-.733ZM14.835 37.36 8.5 41.014l.53-1.982a.964.964 0 1 0-1.861-.482l-1.138 4.215a1 1 0 0 0 .1.733.97.97 0 0 0 .588.448l4.233 1.133a1 1 0 0 0 .251.034.964.964 0 0 0 .246-1.895l-1.982-.53 6.335-3.659a.964.964 0 0 0-.964-1.668ZM43.716 22.761a.96.96 0 0 0 .482-.13l6.335-3.655-.53 1.982a.964.964 0 0 0 .68 1.181 1 1 0 0 0 .251.034.964.964 0 0 0 .931-.714l1.138-4.233a1 1 0 0 0-.1-.733.97.97 0 0 0-.588-.448l-4.233-1.133a.964.964 0 1 0-.482 1.861l1.982.53-6.355 3.659a.964.964 0 0 0 .482 1.8Z"/></g></svg>