<svg xmlns="http://www.w3.org/2000/svg" width="60" height="60" fill="none"><g fill="#282928" clip-path="url(#a)"><path d="M26.25 9.375h2.813v3.75a.938.938 0 0 0 1.875 0v-3.75h2.812a.937.937 0 0 0 .938-.937v-7.5A.94.94 0 0 0 33.75 0h-7.5a.94.94 0 0 0-.937.938v7.5a.94.94 0 0 0 .937.937m.938-7.5h5.625V7.5h-5.626zM33.75 50.625h-2.812v-3.75a.938.938 0 0 0-1.875 0v3.75H26.25a.94.94 0 0 0-.937.938v7.5a.94.94 0 0 0 .937.937h7.5a.94.94 0 0 0 .938-.937v-7.5a.94.94 0 0 0-.938-.938m-.937 7.5h-5.626V52.5h5.625zM59.063 0h-11.25a.94.94 0 0 0-.938.938v10.861l-6.288 6.288a.937.937 0 0 0 1.326 1.326l6.288-6.288h10.862a.94.94 0 0 0 .937-.937V.938A.94.94 0 0 0 59.063 0m-.938 11.25H48.75V1.875h9.375zM29.531 16.065l-11.25 6.563a.97.97 0 0 0-.468.81v13.125a.94.94 0 0 0 .468.81l11.25 6.562a.94.94 0 0 0 .945 0l11.25-6.562a.94.94 0 0 0 .462-.81V23.438a.97.97 0 0 0-.47-.81l-11.25-6.563a.94.94 0 0 0-.937 0m-9.843 9.005 9.375 5.468v10.955l-9.375-5.469zm11.25 16.423V30.538l9.375-5.468v10.954zM30 28.914l-9.39-5.476L30 17.96l9.39 5.477zM59.063 25.313h-7.5a.94.94 0 0 0-.938.937v2.813H45a.938.938 0 0 0 0 1.875h5.625v2.812a.94.94 0 0 0 .938.938h7.5A.94.94 0 0 0 60 33.75v-7.5a.94.94 0 0 0-.937-.937m-.938 7.5H52.5v-5.626h5.625zM.938 34.688h7.5a.94.94 0 0 0 .937-.938v-2.812H15a.938.938 0 0 0 0-1.875H9.375V26.25a.937.937 0 0 0-.937-.937h-7.5A.94.94 0 0 0 0 26.25v7.5a.94.94 0 0 0 .938.938m.937-7.5H7.5v5.625H1.875zM.938 13.125h10.861l6.288 6.288a.937.937 0 0 0 1.326-1.326L13.125 11.8V.938A.94.94 0 0 0 12.188 0H.938A.94.94 0 0 0 0 .938v11.25a.94.94 0 0 0 .938.937m.937-11.25h9.375v9.375H1.875zM59.063 46.875H48.2l-6.288-6.288a.937.937 0 0 0-1.326 1.326l6.288 6.288v10.862a.94.94 0 0 0 .938.937h11.25a.94.94 0 0 0 .937-.937v-11.25a.94.94 0 0 0-.937-.938m-.938 11.25H48.75V48.75h9.375zM18.087 40.587 11.8 46.875H.938a.94.94 0 0 0-.938.938v11.25A.94.94 0 0 0 .938 60h11.25a.94.94 0 0 0 .937-.937V48.2l6.288-6.288a.937.937 0 0 0-1.326-1.326M11.25 58.125H1.875V48.75h9.375z"/></g><defs><clipPath id="a"><path fill="#fff" d="M0 0h60v60H0z"/></clipPath></defs></svg>