<svg xmlns="http://www.w3.org/2000/svg" width="60" height="60"><defs><clipPath id="a"><path d="M0 0h60v60H0z"/></clipPath></defs><g clip-path="url(#a)"><path fill="#282928" d="M42.122 23.672a3.29 3.29 0 0 0-3.284-3.284H21.162a3.29 3.29 0 0 0-3.284 3.284v12.1a3.29 3.29 0 0 0 3.284 3.284H31.7l4.468 4.644a.871.871 0 0 0 1.5-.6v-4.048h1.171a3.29 3.29 0 0 0 3.284-3.284Zm-1.742 12.1a1.544 1.544 0 0 1-1.542 1.542H36.8a.87.87 0 0 0-.871.871v2.752l-3.229-3.36a.87.87 0 0 0-.628-.268h-10.91a1.544 1.544 0 0 1-1.542-1.542v-12.1a1.544 1.544 0 0 1 1.542-1.542h17.676a1.544 1.544 0 0 1 1.542 1.542Zm-2.96-9.841a.87.87 0 0 1-.871.871H23.667a.871.871 0 1 1 0-1.742h12.882a.87.87 0 0 1 .871.871m0 3.83a.87.87 0 0 1-.871.871H23.667a.871.871 0 1 1 0-1.742h12.882a.87.87 0 0 1 .871.871m0 3.83a.87.87 0 0 1-.871.871H23.667a.871.871 0 0 1 0-1.742h12.882a.87.87 0 0 1 .871.87Zm13.915 14.6a4.13 4.13 0 0 0 1.27-2.98q0-.205-.02-.406a27.03 27.03 0 0 0 1.689-26.635h.62a.87.87 0 0 0 .866-.964 7.31 7.31 0 0 0-4.425-5.968A4.139 4.139 0 1 0 44.461 7.2a27.02 27.02 0 0 0-28.822-.064 4.14 4.14 0 1 0-6.886 3.991 7.31 7.31 0 0 0-4.425 5.968.87.87 0 0 0 .866.964h.586A27.03 27.03 0 0 0 7.4 44.784a4 4 0 0 0-.021.423 4.13 4.13 0 0 0 1.27 2.98 7.31 7.31 0 0 0-4.425 5.968.87.87 0 0 0 .866.964h12.863a.865.865 0 0 0 .812-.56A27.1 27.1 0 0 0 30 57a26.7 26.7 0 0 0 11.224-2.439.87.87 0 0 0 .811.557h12.859a.87.87 0 0 0 .866-.964 7.31 7.31 0 0 0-4.425-5.968Zm-2.87-.581a2.4 2.4 0 1 1 2.4-2.4 2.4 2.4 0 0 1-2.4 2.4m5.375-31.181H43.09a5.58 5.58 0 0 1 5.372-4.029 5.58 5.58 0 0 1 5.377 4.024ZM48.464 5.856a2.4 2.4 0 0 1 0 4.8 2.4 2.4 0 0 1 0-4.8M9.225 8.143a2.4 2.4 0 1 1 2.4 2.4 2.4 2.4 0 0 1-2.4-2.4m2.4 4.141A5.58 5.58 0 0 1 17 16.313H6.249a5.58 5.58 0 0 1 5.372-4.029Zm-2.5 32.922a2.4 2.4 0 1 1 2.4 2.4 2.4 2.4 0 0 1-2.4-2.399Zm-2.976 8.169a5.58 5.58 0 0 1 5.372-4.029 5.58 5.58 0 0 1 5.379 4.03Zm12.282-.92a7.32 7.32 0 0 0-4.037-4.269 4.138 4.138 0 1 0-6.2-5.436 25.29 25.29 0 0 1-.453-24.7h10.312a.87.87 0 0 0 .866-.964 7.31 7.31 0 0 0-4.425-5.968 4.14 4.14 0 0 0 1.123-1.889 25.27 25.27 0 0 1 28.836.049 4.14 4.14 0 0 0 1.141 1.95 7.31 7.31 0 0 0-4.425 5.972.87.87 0 0 0 .866.964h10.284A25.29 25.29 0 0 1 51.8 42.76a4.138 4.138 0 1 0-6.208 5.426 7.32 7.32 0 0 0-4.048 4.3l-.006-.012A25 25 0 0 1 30 55.258a25.3 25.3 0 0 1-11.569-2.8Zm24.659.92a5.58 5.58 0 0 1 5.372-4.029 5.58 5.58 0 0 1 5.372 4.029Z"/></g></svg>