<svg xmlns="http://www.w3.org/2000/svg" width="60" height="60"><defs><clipPath id="a"><path d="M0 0h60v60H0z"/></clipPath></defs><g clip-path="url(#a)"><path fill="#282928" d="M56.358 25.291h-2.994v-2.994a.64.64 0 0 0-.642-.642H38.779a9.548 9.548 0 1 0-17.558 0H7.278a.64.64 0 0 0-.642.642v2.993H3.642a.64.64 0 0 0-.642.642v30.1a.64.64 0 0 0 .642.642h52.716a.64.64 0 0 0 .642-.642v-30.1a.64.64 0 0 0-.642-.642ZM52.08 22.94v28.815H33.636a4.26 4.26 0 0 0-2.993 1.225V35.63h2.255a1.12 1.12 0 0 0 1.119-1.119v-2.113a1.224 1.224 0 0 0 1.212-1.222v-3.221a23.4 23.4 0 0 1 2.2-3.942q.313-.486.653-1.023l.028-.047h13.97Zm-18.136 5.528v2.646h-7.888v-2.646Zm-6.336-9.367H26.34a1.268 1.268 0 1 1 1.268-1.268Zm1.285 8.082v-6.8h2.214v6.8Zm-1.625 5.215h5.464v1.947h-5.464ZM30 9.636A8.266 8.266 0 0 1 37 22.3q-.337.532-.647 1.014a26 26 0 0 0-2.192 3.868h-1.769v-6.8h1.268a2.553 2.553 0 1 0-2.553-2.553v1.268h-2.214v-1.264a2.551 2.551 0 1 0-2.553 2.553h1.268v6.8h-1.764a26 26 0 0 0-2.192-3.868 122 122 0 0 1-.647-1.014 8.266 8.266 0 0 1 7-12.665Zm2.392 9.464v-1.267a1.267 1.267 0 1 1 1.268 1.268ZM7.92 22.94h13.965l.028.047q.34.538.653 1.023a23.5 23.5 0 0 1 2.2 3.941v3.225a1.224 1.224 0 0 0 1.219 1.222v2.113a1.12 1.12 0 0 0 1.119 1.119h2.255v17.347a4.26 4.26 0 0 0-2.995-1.222H7.92zM4.285 55.387V26.575h2.351v25.819a.64.64 0 0 0 .642.642h19.086a3 3 0 0 1 2.921 2.351zm51.431 0h-25a3 3 0 0 1 2.923-2.351h19.083a.64.64 0 0 0 .642-.642V26.576h2.351v28.811ZM19.104 8.422a.643.643 0 1 1 .909-.909l1.742 1.742a.643.643 0 0 1-.453 1.1.64.64 0 0 1-.452-.187zm-8.519 18.51a.64.64 0 0 1 .638-.642h9.653a.643.643 0 0 1 0 1.285H11.23a.646.646 0 0 1-.647-.642Zm31.075-8.523a.64.64 0 0 1 .641-.642h2.469a.643.643 0 0 1 0 1.285h-2.469a.644.644 0 0 1-.644-.642Zm-12.3-12.3V3.642a.643.643 0 1 1 1.285 0v2.467a.643.643 0 1 1-1.285 0m9.125 20.823a.64.64 0 0 1 .638-.642h9.653a.643.643 0 1 1 0 1.285h-9.64a.646.646 0 0 1-.651-.643m.664-16.767-.912-.905 1.748-1.747a.643.643 0 0 1 .909.909ZM14.59 18.41a.64.64 0 0 1 .642-.642h2.466a.643.643 0 0 1 0 1.285h-2.465a.64.64 0 0 1-.643-.643m4.047 20.084a3.643 3.643 0 1 0 3.648 3.643 3.647 3.647 0 0 0-3.643-3.643Zm0 6a2.359 2.359 0 1 1 2.358-2.359 2.36 2.36 0 0 1-2.357 2.361Zm19.848-13.899a.64.64 0 0 1 .638-.642h9.653a.643.643 0 1 1 0 1.285h-9.64a.646.646 0 0 1-.651-.643m-27.26.642a.646.646 0 0 1-.647-.642.64.64 0 0 1 .638-.642h9.653a.643.643 0 0 1 0 1.285Zm13.716 8.884h-.188a6.4 6.4 0 0 0-.367-.886l.13-.13a1.123 1.123 0 0 0 0-1.592l-1.267-1.267a1.133 1.133 0 0 0-1.585 0l-.134.134a6 6 0 0 0-.883-.366v-.189a1.125 1.125 0 0 0-1.125-1.122h-1.777a1.124 1.124 0 0 0-1.122 1.122v.189a6.4 6.4 0 0 0-.885.366l-.135-.135a1.124 1.124 0 0 0-1.586 0l-1.263 1.263a1.12 1.12 0 0 0-.329.8 1.1 1.1 0 0 0 .328.787l.134.135a6.4 6.4 0 0 0-.367.887h-.189a1.124 1.124 0 0 0-1.122 1.122v1.786a1.125 1.125 0 0 0 1.12 1.13h.189a6.3 6.3 0 0 0 .366.884l-.128.129a1.123 1.123 0 0 0 0 1.592l1.264 1.263a1.124 1.124 0 0 0 1.586 0l.135-.135a6.4 6.4 0 0 0 .885.366v.189a1.125 1.125 0 0 0 1.122 1.125h1.786a1.127 1.127 0 0 0 1.125-1.125v-.188a6 6 0 0 0 .883-.366l.138.138a1.133 1.133 0 0 0 1.585 0l.632-.632.632-.632a1.123 1.123 0 0 0 0-1.589l-.134-.134a6.4 6.4 0 0 0 .366-.884h.188a1.127 1.127 0 0 0 1.125-1.125v-1.787a1.125 1.125 0 0 0-1.125-1.122Zm-.156 2.75h-.51a.64.64 0 0 0-.624.489 5.1 5.1 0 0 1-.6 1.454.64.64 0 0 0 .093.791l.363.363-1.035 1.035-.363-.363a.64.64 0 0 0-.789-.094 5 5 0 0 1-1.452.6.64.64 0 0 0-.493.625v.515h-1.468v-.515a.64.64 0 0 0-.493-.625 5.1 5.1 0 0 1-1.457-.6.64.64 0 0 0-.787.1l-.361.361-1.034-1.04.362-.364a.64.64 0 0 0 .093-.787 5 5 0 0 1-.6-1.453.64.64 0 0 0-.625-.492h-.512v-1.465h.512a.64.64 0 0 0 .625-.493 5.1 5.1 0 0 1 .6-1.457.64.64 0 0 0-.094-.786l-.362-.364 1.034-1.034.361.361a.64.64 0 0 0 .787.1 5.1 5.1 0 0 1 1.457-.6.64.64 0 0 0 .493-.625v-.512h1.464v.512a.64.64 0 0 0 .493.625 5 5 0 0 1 1.452.6.64.64 0 0 0 .789-.094l.363-.363 1.035 1.035-.363.363a.64.64 0 0 0-.094.789 5.1 5.1 0 0 1 .6 1.458.64.64 0 0 0 .624.49h.516v1.464Zm11.952-6.621-1.262 1.262a1.12 1.12 0 0 0-.329.8 1.1 1.1 0 0 0 .328.787l.134.135a6.5 6.5 0 0 0-.366.886h-.19a1.124 1.124 0 0 0-1.122 1.122v1.786a1.125 1.125 0 0 0 1.121 1.127h.191a6.4 6.4 0 0 0 .365.884l-.129.13a1.123 1.123 0 0 0 0 1.592l1.264 1.263a1.13 1.13 0 0 0 1.59 0l.132-.133a6.4 6.4 0 0 0 .884.366v.189a1.125 1.125 0 0 0 1.122 1.125h1.789a1.125 1.125 0 0 0 1.122-1.125v-.191a6.4 6.4 0 0 0 .884-.366l.137.138a1.13 1.13 0 0 0 1.585 0l.632-.632.632-.632a1.12 1.12 0 0 0 .329-.8 1.1 1.1 0 0 0-.328-.787l-.134-.135a6.4 6.4 0 0 0 .367-.886h.191a1.125 1.125 0 0 0 1.122-1.125v-1.786a1.124 1.124 0 0 0-1.122-1.122h-.191a6.5 6.5 0 0 0-.366-.886l.129-.13a1.123 1.123 0 0 0 0-1.592l-1.263-1.265a1.13 1.13 0 0 0-1.59 0l-.132.133a6.4 6.4 0 0 0-.884-.366v-.189a1.124 1.124 0 0 0-1.122-1.122h-1.79a1.124 1.124 0 0 0-1.122 1.122v.189a6.4 6.4 0 0 0-.884.366l-.137-.138a1.13 1.13 0 0 0-1.585 0Zm1.153 1.384a.64.64 0 0 0 .789.1 5.1 5.1 0 0 1 1.457-.6.64.64 0 0 0 .493-.625v-.512h1.464v.512a.64.64 0 0 0 .493.625 5.1 5.1 0 0 1 1.457.6.64.64 0 0 0 .789-.1l.359-.361 1.035 1.035-.362.364a.64.64 0 0 0-.094.786 5.2 5.2 0 0 1 .6 1.46.64.64 0 0 0 .624.49h.512v1.464h-.512a.64.64 0 0 0-.624.489 5.2 5.2 0 0 1-.6 1.456.64.64 0 0 0 .093.787l.362.364-1.035 1.035-.359-.361a.64.64 0 0 0-.789-.1 5.1 5.1 0 0 1-1.457.6.64.64 0 0 0-.493.625v.515h-1.463v-.515a.64.64 0 0 0-.493-.625 5.1 5.1 0 0 1-1.457-.6.64.64 0 0 0-.789.1l-.359.361-1.035-1.035.362-.364a.64.64 0 0 0 .093-.787 5.2 5.2 0 0 1-.6-1.456.64.64 0 0 0-.624-.489h-.512v-1.466h.512a.64.64 0 0 0 .624-.49 5.2 5.2 0 0 1 .6-1.46.64.64 0 0 0-.094-.786l-.362-.364 1.035-1.035.359.361Zm3.472 8.147a3.643 3.643 0 1 0-3.643-3.643 3.646 3.646 0 0 0 3.644 3.642Zm0-6a2.359 2.359 0 1 1-2.358 2.358 2.36 2.36 0 0 1 2.359-2.361Z"/></g></svg>