<svg xmlns="http://www.w3.org/2000/svg" width="60" height="60"><defs><clipPath id="a"><path d="M0 0h60v60H0z"/></clipPath></defs><g fill="#282928" clip-path="url(#a)"><path d="M51.78 16.821h-9.327a.808.808 0 1 0 0 1.616h9.327a.808.808 0 0 0 0-1.616M42.453 14.687h6.964a.808.808 0 0 0 0-1.616h-6.964a.808.808 0 1 0 0 1.616M27.989 27.977h-7.93a5.36 5.36 0 0 0-5.25 5.448v8.3a5.36 5.36 0 0 0 5.25 5.448h19.338a5.36 5.36 0 0 0 5.25-5.448v-8.3a5.36 5.36 0 0 0-5.25-5.448h-7.83a.808.808 0 0 0 0 1.616H39.4a3.77 3.77 0 0 1 3.694 3.832v8.3a3.77 3.77 0 0 1-3.694 3.832H20.059a3.77 3.77 0 0 1-3.694-3.832v-8.3a3.77 3.77 0 0 1 3.694-3.832h7.93a.808.808 0 0 0 0-1.616"/><path d="M57 16.102v-.347a8.694 8.694 0 0 0-8.61-8.757h-3.3a8.64 8.64 0 0 0-8.118 5.838 31 31 0 0 0-3.328-.561v-.149a3.915 3.915 0 1 0-7.828 0v.155a27.04 27.04 0 0 0-12.04 4.228 15.94 15.94 0 0 0-7.407 13.63v1.58a4.36 4.36 0 0 0-2.251 1.763 7.85 7.85 0 0 0 0 8.076 4.24 4.24 0 0 0 3.6 1.985h2.37v.171a9.6 9.6 0 0 0 2.77 6.77 9.23 9.23 0 0 0 6.621 2.8h.021l8.494-.012a.806.806 0 0 0 0-1.611l-8.495.012a7.68 7.68 0 0 1-5.519-2.33 7.98 7.98 0 0 1-2.3-5.631V32.35a11.427 11.427 0 0 1 11.305-11.512h13.5a11 11 0 0 1 1.434.091 8.8 8.8 0 0 0 1.341 1.6l.019 2.628a.95.95 0 0 0 .369.826.9.9 0 0 0 .541.178 1.1 1.1 0 0 0 .4-.076l.024-.01 2.924-1.2.025-.011h1.512a11.57 11.57 0 0 1 2.726 7.445v11.404a7.98 7.98 0 0 1-2.306 5.631 7.68 7.68 0 0 1-5.5 2.33h-.015l-8.332-.012a.806.806 0 0 0 0 1.611l8.332.012h.018a9.23 9.23 0 0 0 6.621-2.8 9.6 9.6 0 0 0 2.77-6.77v-.171h2.372a4.24 4.24 0 0 0 3.6-1.985 7.85 7.85 0 0 0 0-8.076 4.37 4.37 0 0 0-2.207-1.747v-1.6a16.2 16.2 0 0 0-1.137-6.09A8.77 8.77 0 0 0 57 16.102m-46.912 25.83H7.716c-2.153 0-3.134-2.29-3.134-4.418a5.75 5.75 0 0 1 .842-3.124 2.65 2.65 0 0 1 2.292-1.274h2.372Zm18.853-22.7h-5.956a13.01 13.01 0 0 0-12.87 12.27H7.951v-1.364a14.39 14.39 0 0 1 6.709-12.287 25.57 25.57 0 0 1 11.549-3.992 3.94 3.94 0 0 0 2.732 2.166Zm.792-4.73A2.3 2.3 0 0 1 28 13.713a2.38 2.38 0 0 1-.6-1.576v-.009a2.332 2.332 0 1 1 4.664 0v.005a2.38 2.38 0 0 1-.6 1.578 2.31 2.31 0 0 1-1.731.791m6.75 4.73h-5.96v-3.2a3.94 3.94 0 0 0 2.736-2.172 30 30 0 0 1 3.324.546 9 9 0 0 0-.1 1.357v.339a8.8 8.8 0 0 0 .577 3.137 12 12 0 0 0-.575-.013Zm12.868 12.27a13.2 13.2 0 0 0-2.283-6.644h1.323a8.4 8.4 0 0 0 2.116-.267 14.5 14.5 0 0 1 1.055 5.546v1.365Zm4.692 2.885a5.75 5.75 0 0 1 .842 3.124c0 2.128-.981 4.418-3.134 4.418H49.38v-8.814h2.372a2.65 2.65 0 0 1 2.291 1.274Zm-2.713-11.8a6.8 6.8 0 0 1-1.539.513 7 7 0 0 1-1.4.143H43.4a1.05 1.05 0 0 0-.5.141l-2.052.846-.015-1.987a.83.83 0 0 0-.184-.6 1 1 0 0 0-.055-.061l-.045-.042a7.2 7.2 0 0 1-2.49-5.443v-.347a7 7 0 0 1 .064-.967 7.115 7.115 0 0 1 6.963-6.179h3.3a7.1 7.1 0 0 1 7.027 7.146v.352a7.16 7.16 0 0 1-4.088 6.49Z"/><path d="M26.867 40.809a.81.81 0 0 0-.018 1.142 4.087 4.087 0 0 0 5.9 0 .808.808 0 0 0-1.16-1.124 2.47 2.47 0 0 1-3.581 0 .81.81 0 0 0-1.141-.018M19.89 35.704a3.308 3.308 0 1 0 3.308-3.306 3.31 3.31 0 0 0-3.308 3.306m5 0a1.693 1.693 0 1 1-1.693-1.691 1.694 1.694 0 0 1 1.694 1.691ZM39.912 35.704a3.31 3.31 0 1 0-3.308 3.306 3.31 3.31 0 0 0 3.308-3.306m-5 0a1.694 1.694 0 1 1 1.7 1.691 1.7 1.7 0 0 1-1.7-1.691"/></g></svg>