<svg xmlns="http://www.w3.org/2000/svg" width="60" height="60"><defs><clipPath id="a"><path d="M0 0h60v60H0z"/></clipPath></defs><g clip-path="url(#a)"><path fill="#282928" d="M21.763 15.695a1.19 1.19 0 0 0 .388 1.3l3.48 2.8-1.171 4.309a1.2 1.2 0 0 0 1.81 1.315l3.736-2.446 3.735 2.446a1.2 1.2 0 0 0 1.81-1.315l-1.17-4.309 3.48-2.8a1.2 1.2 0 0 0-.691-2.128l-4.46-.217-1.585-4.172a1.2 1.2 0 0 0-2.237 0l-1.585 4.175-4.46.217a1.19 1.19 0 0 0-1.08.825m5.942.625a1.2 1.2 0 0 0 1.06-.77l1.242-3.27 1.242 3.27a1.2 1.2 0 0 0 1.06.77l3.493.17-2.726 2.191a1.2 1.2 0 0 0-.4 1.247l.918 3.375-2.926-1.916a1.2 1.2 0 0 0-1.311 0l-2.926 1.916.91-3.374a1.2 1.2 0 0 0-.405-1.247l-2.725-2.191Zm1.459-9.355V3.872a.843.843 0 1 1 1.686 0v3.093a.843.843 0 1 1-1.686 0m5.132 4.994a.843.843 0 0 1 .062-1.19l3.447-3.1a.843.843 0 1 1 1.128 1.253l-3.447 3.1a.843.843 0 0 1-1.19-.062Zm-13.279-4.23a.843.843 0 0 1 1.19-.062l3.447 3.1a.843.843 0 0 1-1.128 1.253l-3.447-3.1a.843.843 0 0 1-.062-1.191m19.8 9.27 3.48 2.8-1.171 4.309a1.2 1.2 0 0 0 1.815 1.311l3.736-2.446 3.734 2.446a1.2 1.2 0 0 0 1.81-1.315l-1.171-4.309 3.48-2.8a1.2 1.2 0 0 0-.691-2.128l-4.46-.217-1.585-4.172a1.2 1.2 0 0 0-2.238 0l-1.585 4.174-4.46.217a1.2 1.2 0 0 0-.692 2.128Zm5.553-.677a1.2 1.2 0 0 0 1.061-.771l1.241-3.27 1.241 3.27a1.2 1.2 0 0 0 1.061.771l3.493.17-2.726 2.189a1.2 1.2 0 0 0-.4 1.248l.918 3.375-2.926-1.916a1.2 1.2 0 0 0-1.311 0l-2.926 1.916.918-3.375a1.2 1.2 0 0 0-.405-1.247l-2.726-2.191Zm-42.89.677 3.48 2.8-1.168 4.305a1.2 1.2 0 0 0 1.81 1.315l3.739-2.446 3.736 2.446a1.2 1.2 0 0 0 1.81-1.315l-1.171-4.309 3.48-2.8a1.2 1.2 0 0 0-.691-2.128l-4.464-.215-1.584-4.174a1.2 1.2 0 0 0-2.238 0l-1.584 4.174-4.46.217a1.2 1.2 0 0 0-.692 2.128Zm5.561-.679a1.2 1.2 0 0 0 1.061-.771l1.239-3.269 1.241 3.27a1.2 1.2 0 0 0 1.061.771l3.493.17-2.726 2.191a1.2 1.2 0 0 0-.405 1.247l.918 3.375-2.93-1.917a1.2 1.2 0 0 0-1.311 0l-2.926 1.916.918-3.374a1.2 1.2 0 0 0-.405-1.247L5.541 16.49Zm47.8 31.478a9.67 9.67 0 0 0-3.42-4.842 9.6 9.6 0 0 0-2.5-1.347 5.267 5.267 0 1 0-6.495 0 9.5 9.5 0 0 0-4.218 3.008 12.56 12.56 0 0 0-6.484-4.691 6.756 6.756 0 1 0-7.445 0 12.55 12.55 0 0 0-6.484 4.691 9.5 9.5 0 0 0-4.218-3.009 5.267 5.267 0 1 0-6.495 0 9.6 9.6 0 0 0-2.5 1.347 9.67 9.67 0 0 0-3.42 4.842 2.78 2.78 0 0 0 .433 2.532 2.78 2.78 0 0 0 2.288 1.156h11.652v1.521a3.973 3.973 0 0 0 3.968 3.968h17.006a3.973 3.973 0 0 0 3.969-3.968v-1.524h11.651a2.843 2.843 0 0 0 2.712-3.684M47.68 33.883a3.581 3.581 0 1 1-3.581 3.581 3.585 3.585 0 0 1 3.581-3.581m-22.744.4a5.071 5.071 0 1 1 5.073 5.071h-.006a5.076 5.076 0 0 1-5.068-5.071Zm-12.6-.405a3.581 3.581 0 1 1-3.581 3.581 3.585 3.585 0 0 1 3.578-3.576Zm5.305 15.918H5.884a1.1 1.1 0 0 1-.931-.471 1.1 1.1 0 0 1-.174-1.029 7.91 7.91 0 0 1 14.075-2.132 12.5 12.5 0 0 0-1.213 3.632m23.147 3.207a2.286 2.286 0 0 1-2.283 2.283H21.504a2.285 2.285 0 0 1-2.283-2.283v-2.318a10.825 10.825 0 0 1 10.783-9.64h.006a10.826 10.826 0 0 1 10.783 9.64Zm14.273-3.674a1.1 1.1 0 0 1-.931.47H42.368a12.5 12.5 0 0 0-1.209-3.632A7.91 7.91 0 0 1 55.234 48.3a1.1 1.1 0 0 1-.173 1.029"/></g></svg>