<svg xmlns="http://www.w3.org/2000/svg" width="60" height="60"><defs><clipPath id="a"><path d="M0 0h60v60H0z"/></clipPath></defs><g fill="#282928" clip-path="url(#a)"><path d="M52.701 25.005a.674.674 0 0 0-.935.185l-6.065 9.05-2.7-5.1a1.03 1.03 0 0 0-.914-.551H17.909a1.03 1.03 0 0 0-.914.551l-2.7 5.1-6.065-9.05a.674.674 0 1 0-1.12.75l6.579 9.817v12.532a.674.674 0 0 0 1.348 0V36.222H44.96v14.824a.607.607 0 0 1-.606.606H15.648a.607.607 0 0 1-.606-.606V47.48a.674.674 0 0 0-1.348 0v3.566a1.956 1.956 0 0 0 1.954 1.959h28.705a1.956 1.956 0 0 0 1.954-1.954V35.753l6.579-9.817a.674.674 0 0 0-.185-.935Zm-37.215 9.87 2.612-4.941h23.803l2.612 4.941Z"/><path d="M19.954 23.984h7.731l1.575 2.465a.885.885 0 0 0 1.483 0l1.575-2.465h7.729a2.31 2.31 0 0 0 2.307-2.307V9.307A2.31 2.31 0 0 0 40.047 7h-3.562a.674.674 0 0 0 0 1.348h3.562a.96.96 0 0 1 .959.959v12.37a.96.96 0 0 1-.959.959h-7.883a1.07 1.07 0 0 0-.9.494l-1.262 1.976-1.262-1.977a1.07 1.07 0 0 0-.9-.494h-7.883a.96.96 0 0 1-.959-.959V9.307a.96.96 0 0 1 .959-.959h18.4a.674.674 0 0 0 0-1.348h-18.4a2.31 2.31 0 0 0-2.31 2.307v12.37a2.31 2.31 0 0 0 2.307 2.307M29.148 45.723a1.034 1.034 0 0 0 1.033-1.033v-4.312a1.034 1.034 0 0 0-1.033-1.034h-8.266a1.034 1.034 0 0 0-1.034 1.033v4.313a1.034 1.034 0 0 0 1.033 1.033Zm-7.951-5.031h7.637v3.684h-7.637ZM33.055 41.096h3.276a.674.674 0 0 0 0-1.348h-3.275a.674.674 0 0 0-.001 1.348M33.055 43.208h5.57a.674.674 0 0 0 0-1.348h-5.57a.674.674 0 0 0 0 1.348M33.055 45.32h5.57a.674.674 0 0 0 0-1.348h-5.57a.674.674 0 0 0 0 1.348"/><path d="M33.93 18.489a.674.674 0 0 0 1.348 0v-1.85l2.421 2.335a.674.674 0 0 0 .936-.97l-2.848-2.748 2.616-2.4a.674.674 0 0 0-.912-.992l-2.212 2.033v-1.62a.674.674 0 0 0-1.348 0Z"/><path d="M27.57 18.391a.7.7 0 0 0 .686.772c.052 0 1.268 0 1.754-.013 4.066-.075 4.068-7.426-.062-7.363h-1.707a.674.674 0 0 0-.674.675Zm2.381-5.257c2.39-.033 2.326 4.631.038 4.668-.243 0-.685.008-1.062.01-.006-1.744-.005-2.876-.009-4.677ZM23.998 17.816a2.27 2.27 0 0 1-1.666-.7.674.674 0 0 0-1 .9c1.406 1.623 4.688 1.6 5.177-.76a2.24 2.24 0 0 0-1.74-2.461c-.779-.288-1.5-.6-1.709-.691a.53.53 0 0 1-.2-.508.72.72 0 0 1 .566-.582 2.17 2.17 0 0 1 1.8.414.674.674 0 0 0 .864-1.034 3.51 3.51 0 0 0-3.057-.67 2.08 2.08 0 0 0-1.511 1.68 1.87 1.87 0 0 0 .835 1.854 1 1 0 0 0 .093.051c.036.016.888.4 1.849.75.3.109.976.422.88.96a1.15 1.15 0 0 1-1.181.797"/></g></svg>