<svg xmlns="http://www.w3.org/2000/svg" width="60" height="60" fill="none"><g clip-path="url(#a)"><path fill="#282928" d="M33 6h-6a1 1 0 0 1 0-2h6a1 1 0 0 1 0 2m8 54H19c-2.758 0-5-2.244-5-5V21a1 1 0 0 1 2 0v34c0 1.654 1.346 3 3 3h22c1.654 0 3-1.346 3-3V21a1 1 0 0 1 2 0v34c0 2.756-2.242 5-5 5"/><path fill="#282928" d="M45 28a1 1 0 0 1-1-1V5c0-1.654-1.346-3-3-3H19c-1.654 0-3 1.346-3 3v22a1 1 0 0 1-2 0V5c0-2.756 2.242-5 5-5h22c2.758 0 5 2.244 5 5v22a1 1 0 0 1-1 1m6-17.9c-.552 0-1-.348-1-.9V9a1 1 0 0 1 2 0c0 .552-.448 1.1-1 1.1m0 4c-.552 0-1-.348-1-.9V13a1 1 0 0 1 2 0c0 .552-.448 1.1-1 1.1m0 4c-.552 0-1-.348-1-.9V17a1 1 0 0 1 2 0c0 .552-.448 1.1-1 1.1M9 43.897c-.552 0-1-.348-1-.9v-.2a1 1 0 0 1 2 0c0 .552-.448 1.1-1 1.1m0 4c-.552 0-1-.348-1-.9v-.2a1 1 0 0 1 2 0c0 .552-.448 1.1-1 1.1m0 4c-.552 0-1-.348-1-.9v-.2a1 1 0 0 1 2 0c0 .552-.448 1.1-1 1.1"/><path fill="#282928" d="M47.682 52a1 1 0 0 1-.978-1.21l.66-3.06c.08-.376.37-.67.742-.76a9.6 9.6 0 0 0 2.734-1.142 1 1 0 0 1 1.058.01l1.98 1.266 1.226-1.236-1.266-1.964a1 1 0 0 1-.014-1.062 9.5 9.5 0 0 0 1.14-2.734c.09-.372.382-.66.756-.744l2.28-.506v-1.714l-2.278-.506a1 1 0 0 1-.756-.744 9.6 9.6 0 0 0-1.14-2.734 1 1 0 0 1 .012-1.06l1.268-1.982-1.224-1.224-1.982 1.268a1 1 0 0 1-1.058.01 9.6 9.6 0 0 0-2.734-1.142 1 1 0 0 1-.742-.76L46.874 26H46a1 1 0 0 1 0-2h1.68a1 1 0 0 1 .976.79l.534 2.466c.732.222 1.45.522 2.142.896l2.148-1.374a1 1 0 0 1 1.246.136l2.362 2.36c.332.332.388.85.134 1.246l-1.374 2.148q.562 1.043.896 2.146l2.47.548c.46.102.786.51.786.978v3.32a1 1 0 0 1-.784.976l-2.47.548a11.5 11.5 0 0 1-.896 2.144l1.372 2.128a.996.996 0 0 1-.13 1.246l-2.362 2.38c-.334.334-.852.39-1.248.138l-2.148-1.374a11.6 11.6 0 0 1-2.142.896l-.534 2.466a1 1 0 0 1-.976.792"/><path fill="#282928" d="M48.78 43.156a1 1 0 0 1-.556-1.83A4.01 4.01 0 0 0 49.998 38a4.004 4.004 0 0 0-4.8-3.92 1 1 0 1 1-.402-1.96A6.007 6.007 0 0 1 51.998 38a6 6 0 0 1-2.662 4.986 1 1 0 0 1-.556.17M14 28a6 6 0 0 1-3.324-10.997 1 1 0 0 1 1.108 1.664A4 4 0 0 0 10 22a4.004 4.004 0 0 0 4.784 3.922c.53-.11 1.068.24 1.178.784a.997.997 0 0 1-.784 1.176A6 6 0 0 1 14 28"/><path fill="#282928" d="M14 36h-1.68a1 1 0 0 1-.976-.79l-.534-2.466a11.6 11.6 0 0 1-2.142-.896L6.52 33.222a1 1 0 0 1-1.246-.136l-2.362-2.36a1 1 0 0 1-.134-1.246l1.374-2.148a11.6 11.6 0 0 1-.896-2.146l-2.47-.548A1 1 0 0 1 0 23.66v-3.32a1 1 0 0 1 .784-.976l2.47-.548c.222-.734.522-1.452.896-2.144l-1.37-2.13a.996.996 0 0 1 .13-1.246l2.362-2.38a.996.996 0 0 1 1.248-.138l2.148 1.374a11.6 11.6 0 0 1 2.142-.896l.534-2.466a1 1 0 1 1 1.954.422l-.66 3.06a1 1 0 0 1-.742.76 9.6 9.6 0 0 0-2.736 1.142 1 1 0 0 1-1.058-.01l-1.98-1.266-1.228 1.236 1.266 1.964c.21.322.214.736.014 1.062a9.5 9.5 0 0 0-1.14 2.734c-.09.372-.382.66-.756.744L2 21.142v1.714l2.278.506c.374.084.666.372.756.744a9.6 9.6 0 0 0 1.14 2.734c.2.326.196.738-.012 1.06l-1.268 1.98 1.224 1.224L8.1 29.836a1 1 0 0 1 1.058-.01 9.6 9.6 0 0 0 2.734 1.142c.374.09.662.386.742.76L13.126 34H14a1 1 0 0 1 0 2"/><g clip-path="url(#b)"><path fill="#282928" d="M35.166 38H30.48a.33.33 0 0 1-.236-.098l-4.113-4.134a.334.334 0 0 1 0-.47l4.114-4.126a.34.34 0 0 1 .236-.099h4.686a.335.335 0 0 1 .237.568l-3.873 3.892 3.873 3.898a.333.333 0 0 1-.237.569Zm-4.548-.667h3.747l-3.542-3.564a.333.333 0 0 1 0-.47l3.541-3.558h-3.746l-3.782 3.792zm-5.433-4.636a.33.33 0 0 1-.236-.098l-2.352-2.364a.334.334 0 0 1 0-.47l7.638-7.667a.33.33 0 0 1 .306-.09h4.615a.335.335 0 0 1 .237.567L25.422 32.6a.34.34 0 0 1-.237.098ZM23.304 30l1.882 1.891 9.168-9.217h-3.752z"/></g></g><defs><clipPath id="a"><path fill="#fff" d="M0 0h60v60H0z"/></clipPath><clipPath id="b"><path fill="#fff" d="M21 22h16v16H21z"/></clipPath></defs></svg>