<svg xmlns="http://www.w3.org/2000/svg" width="60" height="60" fill="none"><path fill="#282928" fill-rule="evenodd" d="M34.072 6.636A24 24 0 0 1 40.23 9.19l3.97-1.766a.9.9 0 0 1 1.006.187l5.183 5.183a.9.9 0 0 1 .187 1.005l-1.759 3.97c1.136 1.928 1.994 4 2.553 6.168l4.05 1.559c.349.134.579.47.579.843v7.331c0 .374-.23.71-.579.843l-4.05 1.56a24.2 24.2 0 0 1-2.553 6.158l1.759 3.972a.9.9 0 0 1-.187 1.005l-5.183 5.183a.9.9 0 0 1-1.005.187l-3.97-1.758a23.9 23.9 0 0 1-6.16 2.552l-1.56 4.05a.9.9 0 0 1-.843.579h-7.331a.9.9 0 0 1-.843-.579l-1.559-4.05a24.1 24.1 0 0 1-6.166-2.553l-3.972 1.759a.9.9 0 0 1-1.005-.187L5.61 47.207a.9.9 0 0 1-.187-1.006l1.766-3.97a24 24 0 0 1-2.559-6.16L.58 34.513A.9.9 0 0 1 0 33.67v-7.331c0-.374.23-.709.579-.843l4.051-1.56a24.1 24.1 0 0 1 2.559-6.166L5.423 13.8a.9.9 0 0 1 .187-1.006l5.183-5.183a.9.9 0 0 1 1.006-.187l3.97 1.766a24 24 0 0 1 6.16-2.553l1.566-4.058A.9.9 0 0 1 24.338 2h7.331c.374 0 .71.23.844.58zm-1.518 1.088L31.05 3.806h-6.091l-1.512 3.919a.9.9 0 0 1-.634.553 22.2 22.2 0 0 0-6.506 2.696.9.9 0 0 1-.84.057l-3.834-1.705-4.306 4.306 1.705 3.833c.12.273.1.587-.057.841a22.3 22.3 0 0 0-2.703 6.515.9.9 0 0 1-.554.632l-3.91 1.505v6.091l3.91 1.505a.9.9 0 0 1 .553.632 22.3 22.3 0 0 0 2.704 6.507.9.9 0 0 1 .057.842l-1.705 3.833 4.306 4.306 3.835-1.698a.9.9 0 0 1 .837.056 22.3 22.3 0 0 0 6.514 2.697c.29.069.528.276.635.554l1.505 3.91h6.091l1.505-3.91a.9.9 0 0 1 .634-.554 22 22 0 0 0 6.505-2.695.9.9 0 0 1 .84-.058l3.835 1.699 4.306-4.307-1.698-3.835a.9.9 0 0 1 .056-.837 22.4 22.4 0 0 0 2.697-6.508.9.9 0 0 1 .554-.634l3.91-1.505v-6.091l-3.91-1.505a.9.9 0 0 1-.554-.635 22.1 22.1 0 0 0-2.696-6.512.9.9 0 0 1-.057-.84l1.699-3.834-4.307-4.306-3.833 1.705a.9.9 0 0 1-.841-.057 22.2 22.2 0 0 0-6.506-2.696.9.9 0 0 1-.634-.554Zm5.55 6.929-.127-.45a.904.904 0 0 1 1.737-.496l.884 3.1a.903.903 0 0 1-.836 1.15l-3.22.116a.904.904 0 0 1-.066-1.806l.753-.027a16.5 16.5 0 0 0-7.494-2.715c-9.1-.958-17.252 5.641-18.21 14.74a16.5 16.5 0 0 0 2.151 10.057.904.904 0 0 1-1.561.909 18.3 18.3 0 0 1-2.386-11.155c1.062-10.09 10.104-17.41 20.195-16.347a18.3 18.3 0 0 1 8.18 2.924M18.77 43.76a16.5 16.5 0 0 0 7.495 2.715c9.1.958 17.252-5.641 18.21-14.74a16.5 16.5 0 0 0-2.151-10.057.904.904 0 0 1 1.56-.91 18.3 18.3 0 0 1 2.387 11.156c-1.062 10.09-10.104 17.41-20.195 16.347a18.3 18.3 0 0 1-8.181-2.924l.128.45a.904.904 0 0 1-1.737.496l-.884-3.1a.903.903 0 0 1 .836-1.15l3.22-.116a.904.904 0 0 1 .066 1.806zm9.232-.103c-7.522 0-13.658-6.133-13.658-13.655s6.136-13.659 13.658-13.659 13.655 6.137 13.655 13.659-6.133 13.655-13.655 13.655m0-1.807c6.527 0 11.848-5.321 11.848-11.848S34.529 18.15 28.002 18.15 16.15 23.475 16.15 30.002 21.475 41.85 28.002 41.85m-1.678-12.006 5.56-5.618.002-.002a2.796 2.796 0 0 1 3.949-.011 2.795 2.795 0 0 1 .012 3.947c-2.516 2.54-5.014 5.094-7.541 7.622a2.796 2.796 0 0 1-3.953 0l-4.19-4.194a2.795 2.795 0 0 1-.001-3.95l.002-.002a2.796 2.796 0 0 1 3.952 0zm-.635 1.92-2.85-2.851a.989.989 0 0 0-1.398 1.398l4.19 4.193a.99.99 0 0 0 1.397 0c2.526-2.525 5.021-5.078 7.535-7.615a.99.99 0 0 0-.002-1.395.987.987 0 0 0-1.394.004l-6.198 6.262a.903.903 0 0 1-1.28.003Z" clip-rule="evenodd"/></svg>