<svg xmlns="http://www.w3.org/2000/svg" width="60" height="60" fill="none"><g fill="#282928" clip-path="url(#a)"><path d="M26.173 32.649a.9.9 0 0 0-.326-.011 2.16 2.16 0 0 1-1.909-2.14.95.95 0 0 0-1.899 0 4.06 4.06 0 0 0 2.987 3.91v.95a.95.95 0 0 0 1.899 0v-.892a4.054 4.054 0 0 0-.83-8.023 2.156 2.156 0 1 1 2.155-2.156.95.95 0 1 0 1.899 0 4.06 4.06 0 0 0-3.224-3.97v-.864a.95.95 0 0 0-1.9 0v.923a4.055 4.055 0 0 0 1.07 7.965 2.154 2.154 0 0 1 .078 4.308"/><path d="M12.324 27.466c0 7.605 6.165 13.77 13.77 13.77s13.768-6.165 13.768-13.77-6.164-13.769-13.769-13.769c-7.6.009-13.76 6.168-13.769 13.77Zm13.77-11.87c6.555 0 11.87 5.314 11.87 11.87s-5.315 11.87-11.87 11.87c-6.557 0-11.87-5.314-11.87-11.87.007-6.552 5.317-11.862 11.87-11.87"/><path d="m44.543 43.574-7.438 3.515A6.06 6.06 0 0 0 31.94 43.9l-6.866-.188a7.25 7.25 0 0 1-3.121-.806l-.699-.362a12.32 12.32 0 0 0-11.415.012l.044-1.583A.95.95 0 0 0 8.96 40l-7.53-.208a.95.95 0 0 0-.975.924L0 57.236a.95.95 0 0 0 .923.976l7.53.207h.026a.95.95 0 0 0 .95-.923l.021-.79 1.956-1.048a3.36 3.36 0 0 1 2.504-.274l11.681 3.278q.03.008.062.015a12.67 12.67 0 0 0 7.86-.89 1 1 0 0 0 .117-.065L50.566 46.77a.95.95 0 0 0 .311-1.265 4.797 4.797 0 0 0-6.334-1.93ZM1.925 56.341l.402-14.625 5.631.155-.402 14.625zm30.732-.249a10.77 10.77 0 0 1-6.584.735l-11.649-3.27a5.25 5.25 0 0 0-3.914.428l-1 .535.268-9.723a10.44 10.44 0 0 1 10.603-.566l.699.362a9.2 9.2 0 0 0 3.942 1.018l6.867.19a4.165 4.165 0 0 1 3.958 3.318l-10.229-.283a.95.95 0 0 0-.052 1.899l11.288.31h.026a.95.95 0 0 0 .949-.923 6 6 0 0 0-.092-1.232l7.629-3.605.022-.01a2.9 2.9 0 0 1 3.28.46l-16.01 10.356Zm-5.613-45.065v-9.02a.95.95 0 0 0-1.9 0v9.02a.95.95 0 0 0 1.9 0m7.121-.002V6.752a.95.95 0 0 0-1.9 0v4.273a.95.95 0 0 0 1.9 0m-14.243 0V6.752a.95.95 0 0 0-1.899 0v4.273a.95.95 0 0 0 1.9 0Z"/></g><defs><clipPath id="a"><path fill="#fff" d="M0 0h60v60H0z"/></clipPath></defs></svg>