<svg xmlns="http://www.w3.org/2000/svg" width="60" height="60" fill="none"><path fill="#282928" d="M4.691 7.5a2.827 2.827 0 0 0-2.816 2.81v33.75a2.83 2.83 0 0 0 2.816 2.81h50.623a2.824 2.824 0 0 0 2.811-2.81V10.309a2.823 2.823 0 0 0-2.81-2.809h-1.876c-1.278-.028-1.278 1.904 0 1.875h1.875a.91.91 0 0 1 .934.934V37.5H3.75V10.31c0-.536.406-.935.941-.935H53.56c1.278.029 1.278-1.903 0-1.875H4.69ZM3.75 39.377h52.498v4.684a.91.91 0 0 1-.934.934H4.691a.916.916 0 0 1-.941-.934zm28.176 1.873-3.847.002c-1.195.143-1.114 1.836.044 1.868h3.752c1.288.114 1.395-1.844.051-1.87m-7.185 7.423a.94.94 0 0 0-.875.553c-.451.969-1.26 2.1-2.657 3.27h-1.521c-1.542 0-2.81 1.277-2.81 2.819v1.867a.94.94 0 0 0 .934.941h24.374c.52.002.943-.42.94-.94v-1.868a2.835 2.835 0 0 0-2.815-2.818h-1.52c-1.397-1.172-2.206-2.302-2.657-3.27a.938.938 0 1 0-1.7.792c.366.784.924 1.625 1.676 2.478H23.89c.752-.853 1.31-1.694 1.675-2.478a.938.938 0 0 0-.824-1.346m-5.053 5.7H40.31c.535 0 .94.406.94.942v.934H18.755v-.934c0-.536.398-.941.933-.941Z"/><g clip-path="url(#a)"><path fill="#282928" d="M35.708 33h-5.86a.42.42 0 0 1-.294-.123l-5.142-5.167a.417.417 0 0 1 0-.588l5.143-5.157a.42.42 0 0 1 .295-.123h5.858a.418.418 0 0 1 .296.71l-4.842 4.865 4.842 4.871a.416.416 0 0 1-.296.712m-5.686-.833h4.684l-4.427-4.455a.416.416 0 0 1 0-.588l4.426-4.448h-4.682l-4.728 4.74zm-6.79-5.795a.41.41 0 0 1-.296-.123l-2.94-2.955a.42.42 0 0 1 0-.588l9.548-9.583a.42.42 0 0 1 .382-.114h5.77a.418.418 0 0 1 .295.71L23.527 26.25a.42.42 0 0 1-.296.123ZM20.88 23l2.352 2.364 11.46-11.522h-4.69z"/></g><defs><clipPath id="a"><path fill="#fff" d="M18 13h20v20H18z"/></clipPath></defs></svg>