<svg xmlns="http://www.w3.org/2000/svg" width="60" height="60" fill="none"><path fill="#282928" d="M53.104 40.066h-1.836v-1.672a.887.887 0 0 0-.896-.879h-2.187v-21.01h2.187a.887.887 0 0 0 .896-.88v-1.672h1.836c.422 0 .787-.29.876-.694a.874.874 0 0 0-.508-.986L30.368 2.078a.91.91 0 0 0-.736 0L6.528 12.274a.874.874 0 0 0-.508.985.89.89 0 0 0 .876.694h1.836v1.673c0 .485.401.878.896.878h2.187v21.011H9.628a.887.887 0 0 0-.896.879v1.672H6.896a.887.887 0 0 0-.896.879v2.861c0 .485.401.878.896.878h11.285v3.501l-4.407 2.426a3.26 3.26 0 0 0-2.27-.915c-1.783 0-3.234 1.423-3.234 3.171s1.451 3.17 3.235 3.17 3.234-1.422 3.234-3.17q-.001-.375-.086-.725l4.863-2.677a.88.88 0 0 0 .458-.766v-4.015h.578a14.4 14.4 0 0 0 3.055 2.016v2.017l-2.226 3.114a3.3 3.3 0 0 0-1.05-.172c-1.783 0-3.234 1.422-3.234 3.17 0 1.749 1.45 3.171 3.234 3.171s3.235-1.422 3.235-3.17c0-.753-.27-1.445-.718-1.99l2.389-3.342a.87.87 0 0 0 .162-.504v-1.56a14.5 14.5 0 0 0 3.705.715v3.634c-1.349.382-2.339 1.603-2.339 3.046C26.765 56.578 28.216 58 30 58s3.235-1.422 3.235-3.17c0-1.444-.99-2.665-2.339-3.047V48.15a14.5 14.5 0 0 0 3.706-.714v1.56c0 .18.056.356.162.503l2.389 3.342a3.12 3.12 0 0 0-.719 1.99c0 1.748 1.451 3.17 3.235 3.17s3.235-1.422 3.235-3.17c0-1.749-1.452-3.171-3.235-3.171-.367 0-.72.06-1.05.172l-2.225-3.114V46.7a14.4 14.4 0 0 0 3.054-2.016h.578V48.7c0 .318.175.61.458.766l4.863 2.677a3 3 0 0 0-.086.725c0 1.748 1.451 3.17 3.235 3.17s3.234-1.422 3.234-3.17-1.45-3.17-3.234-3.17a3.26 3.26 0 0 0-2.27.913l-4.407-2.425v-3.5h11.285a.887.887 0 0 0 .896-.88v-2.86a.89.89 0 0 0-.896-.879Zm-41.6 14.215c-.795 0-1.442-.634-1.442-1.414s.647-1.414 1.443-1.414c.795 0 1.442.634 1.442 1.414s-.647 1.414-1.442 1.414Zm8.827 1.962c-.795 0-1.442-.634-1.442-1.414s.647-1.413 1.442-1.413c.796 0 1.443.634 1.443 1.413 0 .78-.648 1.414-1.443 1.414m20.78-1.414c0 .78-.647 1.414-1.442 1.414s-1.442-.634-1.442-1.414.647-1.413 1.442-1.413 1.442.634 1.442 1.413m7.385-3.376c.795 0 1.442.634 1.442 1.414s-.647 1.414-1.443 1.414c-.795 0-1.442-.634-1.442-1.414s.647-1.414 1.443-1.414m.98-11.387h-6.487q.188-.39.35-.794h6.137zM21.66 16.504v6.198a14.3 14.3 0 0 0-3.01 2.85v-9.048zm1.793 0h3.25v3.944a14.4 14.4 0 0 0-3.25 1.178zm5.041 0h3.012v3.646a14.7 14.7 0 0 0-3.011 0v-3.646Zm4.804 0h3.25v5.122a14.4 14.4 0 0 0-3.25-1.178zm5.042 0h3.01v9.048a14.3 14.3 0 0 0-3.01-2.85zm8.052 21.011h-2.48c.276-1.086.424-2.221.424-3.39 0-1.993-.427-3.89-1.193-5.609V16.504h3.25v21.011ZM30 3.842l18.93 8.354H11.07zM10.524 13.953h38.952v.794H10.524zm3.084 2.551h3.25v12.012a13.7 13.7 0 0 0-1.193 5.61c0 1.168.147 2.303.422 3.39h-2.48V16.503Zm-3.084 22.768h6.136q.164.405.35.794h-6.486zm-2.732 2.551h10.221q.384.573.821 1.105H7.792zm23.65 13.006c0 .78-.647 1.414-1.442 1.414s-1.442-.634-1.442-1.414.647-1.413 1.442-1.413 1.442.634 1.442 1.413M30 46.42c-6.916 0-12.543-5.515-12.543-12.295S23.084 21.829 30 21.829s12.543 5.516 12.543 12.296S36.916 46.42 30 46.42m22.208-3.492H41.166q.436-.532.82-1.105h10.222zM30 23.64c-5.898 0-10.696 4.703-10.696 10.484S24.102 44.609 30 44.609s10.696-4.703 10.696-10.484S35.898 23.64 30 23.64m0 19.212c-4.91 0-8.904-3.916-8.904-8.728s3.995-8.727 8.904-8.727c4.91 0 8.903 3.915 8.903 8.727S34.91 42.852 30 42.852m3.23-6.67c0 1.397-.999 2.57-2.334 2.865v.542a.89.89 0 0 1-.896.879.887.887 0 0 1-.896-.879v-.507a3.02 3.02 0 0 1-1.959-1.183.867.867 0 0 1 .201-1.227.91.91 0 0 1 1.251.197c.228.309.593.493.977.493h.66c.664 0 1.204-.529 1.204-1.18s-.54-1.18-1.203-1.18h-.47c-1.652 0-2.996-1.317-2.996-2.936 0-1.397 1-2.57 2.335-2.865v-.542c0-.485.401-.879.896-.879s.896.394.896.879v.506a3.02 3.02 0 0 1 1.96 1.184c.29.393.2.943-.202 1.227a.91.91 0 0 1-1.251-.197 1.22 1.22 0 0 0-.977-.493h-.66c-.664 0-1.204.529-1.204 1.18s.54 1.18 1.203 1.18h.47c1.652 0 2.996 1.317 2.996 2.936Z"/></svg>