<svg xmlns="http://www.w3.org/2000/svg" width="60" height="60" fill="none"><path fill="#282928" d="M35.625 12.188h-2.813V9.374a.94.94 0 0 0-.937-.938h-3.75a.937.937 0 0 0-.938.938v2.813h-2.812a.94.94 0 0 0-.938.937v3.75a.94.94 0 0 0 .938.938h2.813v2.812a.94.94 0 0 0 .937.938h3.75a.94.94 0 0 0 .938-.938v-2.813h2.812a.94.94 0 0 0 .938-.937v-3.75a.94.94 0 0 0-.938-.938Zm-.938 3.75h-2.812a.94.94 0 0 0-.938.937v2.813h-1.875v-2.813a.94.94 0 0 0-.937-.938h-2.813v-1.874h2.813a.94.94 0 0 0 .938-.938v-2.813h1.875v2.813a.94.94 0 0 0 .937.938h2.813v1.874Zm21.31 1.274a3.77 3.77 0 0 0-2.953-4.162 3.816 3.816 0 0 0-4.406 2.784l-4.125 11.869a2 2 0 0 0-.179.084l-8.287 4.857a8.45 8.45 0 0 0-4.172 7.275v8.83a.937.937 0 0 0-.938.938v7.5a.94.94 0 0 0 .938.938H45a.94.94 0 0 0 .938-.938v-7.5A.94.94 0 0 0 45 48.75v-2.063a2.85 2.85 0 0 1 .938-2.1l6.337-5.634a4.62 4.62 0 0 0 1.425-2.297l4.069-15.216c.087-.317.13-.645.131-.975a3.77 3.77 0 0 0-1.903-3.253m-5.569-.825a1.98 1.98 0 0 1 2.231-1.5 1.875 1.875 0 0 1 1.491 1.828v.02a3.844 3.844 0 0 0-3.647 2.868l-2.615 8.072a4 4 0 0 0-1.257-.357zM44.063 56.25h-11.25v-5.625h11.25zm11.896-35.297-4.078 15.225a2.8 2.8 0 0 1-.843 1.369L44.69 43.18a4.74 4.74 0 0 0-1.566 3.506v2.063H33.75v-8.831a6.61 6.61 0 0 1 3.244-5.663l8.278-4.847a1.875 1.875 0 0 1 2.569.684c.243.434.31.944.187 1.425a1.87 1.87 0 0 1-.881 1.135l-5.372 3.103a.937.937 0 0 0 .938 1.622l5.371-3.103a3.7 3.7 0 0 0 1.753-2.278c.256-.96.12-1.98-.375-2.841l-.056-.084 2.897-8.935a1.98 1.98 0 0 1 2.231-1.5 1.875 1.875 0 0 1 1.491 1.828 1.6 1.6 0 0 1-.066.488ZM28.127 48.748v-8.83a8.46 8.46 0 0 0-4.172-7.276l-8.288-4.865c-.056-.029-.122-.047-.178-.075l-4.097-11.804a3.85 3.85 0 0 0-4.434-2.85 3.77 3.77 0 0 0-2.953 4.163 3.77 3.77 0 0 0-1.782 4.228l4.079 15.206c.233.895.73 1.698 1.425 2.307l6.328 5.634a2.82 2.82 0 0 1 .947 2.1v2.063a.937.937 0 0 0-.938.937v7.5a.937.937 0 0 0 .938.938h13.125a.94.94 0 0 0 .937-.938v-7.5a.937.937 0 0 0-.937-.938M5.852 16.715a1.875 1.875 0 0 1 1.48-1.828 2.025 2.025 0 0 1 2.27 1.566l3.768 10.865c-.435.048-.86.169-1.256.357l-2.597-8.026a3.89 3.89 0 0 0-3.665-2.915zm9.45 26.466-6.338-5.635a2.8 2.8 0 0 1-.844-1.378L4.033 20.952a2 2 0 0 1-.056-.488 1.875 1.875 0 0 1 1.48-1.828 2.01 2.01 0 0 1 2.26 1.547l2.878 8.887-.056.085a3.76 3.76 0 0 0 .271 4.157c.301.39.678.718 1.107.962l5.372 3.103a.937.937 0 0 0 .938-1.622l-5.372-3.103a1.88 1.88 0 0 1-.882-1.135 1.93 1.93 0 0 1 .188-1.425 1.874 1.874 0 0 1 2.56-.694l8.287 4.857a6.61 6.61 0 0 1 3.244 5.662v8.831h-9.375v-2.062a4.72 4.72 0 0 0-1.575-3.506ZM27.189 56.25H15.94v-5.626h11.25z"/><path fill="#282928" d="M43.265 4.81a9.37 9.37 0 0 0-13.263.002 9.37 9.37 0 0 0-13.262 0 9.38 9.38 0 0 0 0 13.25l12.6 12.6a.937.937 0 0 0 1.326 0l12.6-12.6a9.38 9.38 0 0 0-.001-13.251ZM30.002 28.675 18.065 16.736a7.5 7.5 0 0 1 5.309-12.8 7.42 7.42 0 0 1 5.3 2.201l.665.666a.937.937 0 0 0 1.326 0l.667-.668a7.493 7.493 0 0 1 10.607 0 7.5 7.5 0 0 1 0 10.6L30.002 28.674Z"/></svg>