<svg xmlns="http://www.w3.org/2000/svg" width="60" height="60" fill="none"><path fill="#282928" d="M2.724 26.22h5.033a13.5 13.5 0 0 0 1.278 3.075l-3.563 3.56a.907.907 0 0 0 0 1.284l3.85 3.85a.91.91 0 0 0 1.282 0l3.563-3.563c.968.551 2 .98 3.073 1.277v5.034c0 .5.406.907.907.907h5.444a.907.907 0 0 0 .907-.907v-5.034a13.5 13.5 0 0 0 3.073-1.277l3.563 3.563c.36.34.923.34 1.282 0l3.85-3.85a.907.907 0 0 0 0-1.283l-3.563-3.561c.551-.968.98-2.001 1.278-3.075h5.033a.907.907 0 0 0 .907-.907V19.87a.91.91 0 0 0-.907-.908h-5.033a13.5 13.5 0 0 0-1.278-3.073l3.562-3.561a.91.91 0 0 0 0-1.284l-3.849-3.85a.91.91 0 0 0-1.282 0l-3.563 3.563c-.968-.55-2-.98-3.073-1.277V4.446c0-.5-.406-.907-.907-.907h-5.444a.907.907 0 0 0-.907.907V9.48a13.5 13.5 0 0 0-3.073 1.277l-3.563-3.563a.934.934 0 0 0-1.283 0l-3.85 3.85a.91.91 0 0 0 0 1.284l3.564 3.56c-.552.969-.98 2.001-1.278 3.074H2.724a.907.907 0 0 0-.908.908v5.443c0 .501.407.908.908.908Zm.907-5.443h4.836a.91.91 0 0 0 .886-.713 11.7 11.7 0 0 1 1.59-3.823.91.91 0 0 0-.123-1.132l-3.424-3.423 2.567-2.567 3.423 3.424a.91.91 0 0 0 1.132.123 11.7 11.7 0 0 1 3.823-1.59.91.91 0 0 0 .713-.887V5.354h3.63v4.835c0 .427.296.796.712.887a11.7 11.7 0 0 1 3.824 1.59c.359.23.83.179 1.132-.123l3.423-3.424 2.566 2.567-3.423 3.422a.91.91 0 0 0-.123 1.133 11.7 11.7 0 0 1 1.589 3.824c.091.416.46.713.886.713h4.837v3.63H33.27a.91.91 0 0 0-.886.712 11.7 11.7 0 0 1-1.589 3.822.91.91 0 0 0 .123 1.132l3.424 3.423-2.567 2.568-3.423-3.425a.91.91 0 0 0-1.132-.122 11.7 11.7 0 0 1-3.822 1.59.91.91 0 0 0-.715.886v4.835h-3.629v-4.835a.91.91 0 0 0-.714-.887 11.7 11.7 0 0 1-3.822-1.59.91.91 0 0 0-1.132.123l-3.423 3.425-2.566-2.567 3.423-3.423a.91.91 0 0 0 .123-1.133 11.7 11.7 0 0 1-1.59-3.824.91.91 0 0 0-.886-.712H3.63z"/><path fill="#282928" d="M20.867 29.848a7.258 7.258 0 1 0 0-14.516 7.26 7.26 0 0 0-7.258 7.258 7.266 7.266 0 0 0 7.258 7.258m0-12.701a5.444 5.444 0 1 1-5.443 5.443 5.45 5.45 0 0 1 5.443-5.444Z"/><path fill="#282928" d="M20.867 32.571c5.511 0 9.98-4.468 9.98-9.98 0-5.511-4.469-9.98-9.98-9.98s-9.98 4.469-9.98 9.98a9.99 9.99 0 0 0 9.98 9.98m0-18.145A8.165 8.165 0 1 1 12.7 22.59a8.175 8.175 0 0 1 8.166-8.165ZM53.53 45.272v-7.258c0-.5-.406-.907-.907-.907h-1.815v-7.258a.91.91 0 0 0-.907-.908h-8.165a.907.907 0 0 0-.907.908v7.258h-4.537a.907.907 0 0 0-.907.907v7.258H6.353a4.54 4.54 0 0 0-4.537 4.536v1.815a4.54 4.54 0 0 0 4.537 4.536H53.53a4.54 4.54 0 0 0 4.536-4.536v-1.815a4.54 4.54 0 0 0-4.536-4.536m-1.814 0h-6.351v-6.35h6.35zm-9.073-14.516h6.35v6.35h-6.35zm-5.444 8.165h6.351v6.351H37.2v-6.35Zm19.053 12.702a2.72 2.72 0 0 1-2.722 2.722H6.353a2.72 2.72 0 0 1-2.722-2.722v-1.815a2.72 2.72 0 0 1 2.722-2.721H53.53a2.72 2.72 0 0 1 2.722 2.721z"/><path fill="#282928" d="M29.94 47.994a2.722 2.722 0 1 0 .001 5.444 2.722 2.722 0 0 0 0-5.444Zm0 3.63a.907.907 0 1 1 0-1.815.907.907 0 0 1 0 1.814Zm-9.074-3.63a2.722 2.722 0 1 0 0 5.444 2.722 2.722 0 0 0 0-5.444m0 3.63a.907.907 0 1 1 0-1.815.907.907 0 0 1 0 1.814Zm18.144-3.63a2.722 2.722 0 1 0 .001 5.444 2.722 2.722 0 0 0 0-5.444Zm0 3.63a.907.907 0 1 1 0-1.815.907.907 0 0 1 0 1.814Zm-27.214-3.63a2.722 2.722 0 1 0 0 5.444 2.722 2.722 0 0 0 0-5.444m0 3.63a.907.907 0 1 1 0-1.815.907.907 0 0 1 0 1.814Zm36.289-3.63a2.722 2.722 0 1 0 0 5.444 2.722 2.722 0 0 0 0-5.444m0 3.63a.907.907 0 1 1 0-1.815.907.907 0 0 1 0 1.814Z"/></svg>