<svg xmlns="http://www.w3.org/2000/svg" width="60" height="60" fill="none"><g fill="#282928" clip-path="url(#a)"><path d="M15.679 6.213h3.281a.823.823 0 1 0 0-1.647h-3.28a.823.823 0 1 0 0 1.647Zm13.761-.824a.81.81 0 1 0 0 1.62.81.81 0 0 0 0-1.62"/><path d="M39.838 40.358h-5.202v-1.156h5.202a2.726 2.726 0 0 0 2.723-2.723 2.726 2.726 0 0 0-2.723-2.723H27.807c-1.32 0-2.424.945-2.671 2.193h-6.802a2.544 2.544 0 0 0-2.54 2.541v3.986h-4.207a2.73 2.73 0 0 0-2.596-1.9H6.488A2.726 2.726 0 0 0 3.765 43.3c-.019 1.628 1.506 2.898 3.151 2.722v2.38a2.544 2.544 0 0 0 2.541 2.542h3.067a.823.823 0 1 0 0-1.647H9.457a.896.896 0 0 1-.894-.894v-2.38c1.266.146 2.643-.642 3.024-1.9h13.705a2.73 2.73 0 0 0 2.514 1.68h5.183v7.81a2.843 2.843 0 0 1-2.84 2.84H4.486a2.843 2.843 0 0 1-2.84-2.84V6.385a2.843 2.843 0 0 1 2.84-2.84h3.205l.371 1.94a3.87 3.87 0 0 0 3.793 3.136H22.78a3.87 3.87 0 0 0 3.793-3.136l.371-1.94h3.206a2.843 2.843 0 0 1 2.84 2.84v24.1a.823.823 0 1 0 1.646 0v-24.1a4.49 4.49 0 0 0-4.487-4.487H4.486A4.49 4.49 0 0 0 0 6.385v47.228a4.49 4.49 0 0 0 4.486 4.486H30.15a4.49 4.49 0 0 0 4.486-4.486v-7.81h5.202a2.726 2.726 0 0 0 2.723-2.723 2.726 2.726 0 0 0-2.723-2.722M8.991 44.376H6.488a1.077 1.077 0 0 1 0-2.153h2.503a1.077 1.077 0 0 1 0 2.153M25.268 3.545l-.313 1.63a2.22 2.22 0 0 1-2.175 1.8H11.855a2.22 2.22 0 0 1-2.175-1.8l-.313-1.63h15.9Zm2.539 31.858h12.031a1.077 1.077 0 0 1 0 2.152H27.807a1.077 1.077 0 0 1 0-2.152M17.44 38.49c0-.493.401-.894.894-.894h6.99a2.73 2.73 0 0 0 2.482 1.606h5.183v1.156h-5.182a2.73 2.73 0 0 0-2.655 2.119H17.44zm22.398 5.666H27.807a1.077 1.077 0 0 1 0-2.152h12.031a1.077 1.077 0 0 1 0 2.152"/><path d="M25.294 52.844a2.726 2.726 0 0 0 2.723-2.723 2.726 2.726 0 0 0-2.723-2.723h-6.966a2.726 2.726 0 0 0-2.723 2.723 2.726 2.726 0 0 0 2.723 2.723zm-8.042-2.723c0-.593.483-1.076 1.076-1.076h6.966a1.077 1.077 0 0 1 0 2.153h-6.966a1.077 1.077 0 0 1-1.076-1.077M5.19 13.629a.823.823 0 0 0-.823.823v9.064c-.12 2.605 2.568 4.962 5.326 4.932 2.692.08 5.613-2.246 5.474-4.941v-9.055a.823.823 0 1 0-1.647 0v9.055c.09 1.77-1.864 3.304-3.834 3.295-1.722.06-3.793-1.535-3.672-3.286v-9.064a.823.823 0 0 0-.824-.823m13.09 14.489a.865.865 0 0 0 1.154-.162l4.557-6.044 4.766 6.279c.261.238.571.5 1.153.158a.823.823 0 0 0 .159-1.153l-5.047-6.65 4.309-5.715a.823.823 0 1 0-1.315-.992l-4.029 5.343-4.056-5.345a.823.823 0 0 0-1.312.996l4.338 5.716-4.838 6.416a.823.823 0 0 0 .162 1.153Z"/></g><defs><clipPath id="a"><path fill="#fff" d="M0 0h60v60H0z"/></clipPath></defs></svg>