<svg xmlns="http://www.w3.org/2000/svg" width="60" height="60" fill="none"><path fill="#282928" d="M57.96 22.48a1.79 1.79 0 0 0-.774-1.464 1.96 1.96 0 0 0-1.77-.214l-9.573 3.607v-5.35l.289.195a2.72 2.72 0 0 0 1.575.494 2.796 2.796 0 0 0 1.584-5.098L31.582 2.533a2.8 2.8 0 0 0-1.585-.494c-.566 0-1.118.173-1.584.494L10.703 14.65a2.796 2.796 0 0 0-.736 3.896 2.8 2.8 0 0 0 2.321 1.203 2.8 2.8 0 0 0 1.575-.485l.29-.205v5.592l-9.555-3.83a1.864 1.864 0 0 0-2.563 1.724V47.71c0 1.03.835 1.864 1.864 1.864h.7a2.8 2.8 0 0 0 2.47-1.52L7.85 46.5l1.64.764a2.955 2.955 0 0 0 2.769 3.999 3 3 0 0 0 1.063-.205 3.23 3.23 0 0 0 3.02 2.06c.388 0 .773-.069 1.137-.205a3.26 3.26 0 0 0 3.066 2.162c.336-.002.669-.055.988-.158v.046c.256.698.78 1.264 1.454 1.575a2.796 2.796 0 0 0 3.449-.931l2.209 1.78a3.04 3.04 0 0 0 4.79-1.734c.999.29 2.076.004 2.797-.746a2.8 2.8 0 0 0 .82-1.724q.201.014.401 0a3.42 3.42 0 0 0 3.393-2.927c.37.125.756.191 1.146.196a3.56 3.56 0 0 0 3.57-3.57 3.6 3.6 0 0 0-.28-1.36l5.928-2.47 1.734 3.206a2.8 2.8 0 0 0 2.452 1.454h.699a1.864 1.864 0 0 0 1.864-1.8V22.48Zm-45.15-4.754a.93.93 0 0 1-1.296-.242.93.93 0 0 1-.14-.709.93.93 0 0 1 .383-.587l17.71-12.117a.93.93 0 0 1 1.063 0l17.708 12.117c.419.29.527.863.242 1.286a.93.93 0 0 1-1.295.243L30.529 6.327a.93.93 0 0 0-1.063 0zm17.187-9.507L43.98 17.79v7.55a2.56 2.56 0 0 0-.616 3.225l.932 1.734-2.516.932c-.86.334-1.83.222-2.591-.299l-4.53-3.346v-5.042c0-1.03-.835-1.864-1.864-1.864H27.2c-1.03 0-1.864.834-1.864 1.864v6.086q-.529.736-.932 1.547a22 22 0 0 0-2.992.485q-.824.205-1.668.27a11.4 11.4 0 0 1-3.56-1.034l.447-.932a2.796 2.796 0 0 0-.616-3.356v-7.82l13.982-9.57Zm2.797 18.1a5.38 5.38 0 0 0-5.593.42v-4.194h5.593v3.775ZM4.598 47.712H3.9V22.545l10.607 4.306a.932.932 0 0 1 .466 1.314L5.41 47.217c-.16.3-.47.49-.81.494Zm7.168 1.556a1.1 1.1 0 0 1-.54-1.454l1.062-2.237a1.1 1.1 0 0 1 1.454-.54c.266.117.472.34.569.615.111.272.111.576 0 .848l-1.09 2.237a1.09 1.09 0 0 1-1.455.531m5.024 1.864a1.36 1.36 0 0 1-1.063 0A1.36 1.36 0 0 1 15 50.35a1.43 1.43 0 0 1 0-1.072l1.604-3.43c.154-.337.436-.598.782-.727a1.47 1.47 0 0 1 1.072.037c.337.158.599.443.727.792.145.343.145.73 0 1.072l-1.603 3.393a1.42 1.42 0 0 1-.792.727zm3.169 1.865a1.417 1.417 0 0 1-.69-1.864l1.175-2.49c.157-.334.437-.594.783-.726a1.5 1.5 0 0 1 .484-.084c.204-.004.405.041.588.13.338.152.6.435.727.783.13.35.112.736-.047 1.072l-1.081 2.368-.075.158a1.4 1.4 0 0 1-1.864.69zm3.812 1.752a.93.93 0 0 1-.485-.522.93.93 0 0 1 0-.718l.29-.624.866-1.864a.93.93 0 0 1 .895-.513c.135 0 .269.028.392.084a.93.93 0 0 1 .466 1.249l-1.166 2.526a.93.93 0 0 1-1.258.438zm19.425-6.702a1.696 1.696 0 0 1-2.321.084l-4.53-3.97-1.072-.932a.9.9 0 0 0-.326-.187.7.7 0 0 0-.14 0 .93.93 0 0 0-.56.065 1.1 1.1 0 0 0-.288.224.88.88 0 0 0-.233.653.3.3 0 0 0 0 .083c.03.211.132.405.289.55l4.446 3.896a1.57 1.57 0 0 1-2.144 2.293l-.103-.102-3.728-3.729a.936.936 0 0 0-1.323 1.324l3.728 3.728a1.034 1.034 0 0 1 0 1.473 1.08 1.08 0 0 1-1.482 0l-.802-.81-1.044-1.045a.93.93 0 0 0-1.323 0 .93.93 0 0 0 0 1.324l1.044 1.044c.229.218.357.522.354.838a1.193 1.193 0 0 1-1.864.933l-2.48-1.92.578-1.268a2.796 2.796 0 0 0-1.37-3.728 2.8 2.8 0 0 0-1.584-.215 4 4 0 0 0-.14-.55 3.244 3.244 0 0 0-3.682-2.069 3.253 3.253 0 0 0-4.353-2.666 3.3 3.3 0 0 0-1.202.793 2.8 2.8 0 0 0-1.044-.82 2.964 2.964 0 0 0-3.933 1.444l-.345.764-1.529-.727 6.655-13.254a13.3 13.3 0 0 0 4.4 1.23 10.7 10.7 0 0 0 2.022-.316 32 32 0 0 1 1.669-.317l-1.529 3.43a3.32 3.32 0 0 0 1.566 4.306h.093a3.3 3.3 0 0 0 3.896-.81l3.682-4.102L43.12 45.623a1.697 1.697 0 0 1 .075 2.48v-.057Zm.932-4.091L30.613 32.099a.932.932 0 0 0-1.23 1.398l.335.298-3.673 4.092c-.437.5-1.155.644-1.752.354h-.065a1.473 1.473 0 0 1-.625-1.864l2.163-4.791a9.3 9.3 0 0 1 2.153-2.992 3.52 3.52 0 0 1 4.474-.261l5.676 4.138a4.66 4.66 0 0 0 4.353.578l2.796-1.034 5.099 9.423zm11.287 1.864a.93.93 0 0 1-.82-.448l-9.572-17.71a.73.73 0 0 1-.047-.605.84.84 0 0 1 .503-.485l10.617-4.091v23.367l-.68-.028Z"/><path fill="#282928" d="M29.998 18.816a3.728 3.728 0 1 0 0-7.457 3.728 3.728 0 0 0 0 7.457m0-5.592a1.864 1.864 0 1 1 0 3.728 1.864 1.864 0 0 1 0-3.729Z"/></svg>