<svg xmlns="http://www.w3.org/2000/svg" width="60" height="60" fill="none"><path fill="#FDBC33" d="M19.27 7.165c-5.188 2.327-8.434 6.108-10.267 8.86-1.987 3-2.76 5.483-2.76 5.505v.045c-.574 1.656-1.104 4.252-1.104 4.274-.619 3.177-.332 6.131-.332 6.176.023.201.045.403.067.582a23 23 0 0 1 .309-2.395c.044-.313.861-4.766 3.952-8.301.332-.515 3.909-5.281 10.489-5.281 1.413 0 2.893.224 4.372.671h.044c.089.023 2.032.739 2.738 1.097.663.335 1.833.85 1.855.85h.044c6.338 3.133 11.814 4.14 11.858 4.162q2.352.402 4.24.403c2.517 0 4.328-.56 5.277-1.634.773-.872.685-1.835.685-1.835v-.09c.044-2.326-1.833-4.832-3.423-6.51-1.767-1.88-3.577-3.178-3.6-3.178-4.769-3.58-9.87-5.393-15.213-5.393-5.477.023-9.186 1.97-9.23 1.992m17.312 6.287c.663 0 1.193.537 1.193 1.209 0 .671-.53 1.208-1.193 1.208a1.195 1.195 0 0 1-1.192-1.208c0-.671.53-1.209 1.192-1.209M21.17 8.865c.176 0 .287.045.33.045l7.53 2.372-.286.604-3.6-1.141-3.82-1.208c-.022 0-.022 0-.044-.023-.022 0-.066-.022-.11-.022-.045 0-.11 0-.155.022-.684.18-2.561.85-3.113 1.857-.155.291-.177.582-.089.896 0 .022.398 1.275 1.391 2.573l4.99-.246 3.335-.157-.331.694-8.28.402c-1.237-1.521-1.723-3.043-1.723-3.043-.773-2.461 3.665-3.602 3.665-3.602.089 0 .221-.023.31-.023M47.358 46.1c5.079-2.238 7.243-6.11 7.243-6.11 4.747-6.555 3.135-13.47 3.135-13.47-3.025 6.668-5.785 8.503-5.785 8.503 7.441-11.479.044-18.415.044-18.415 3.025 6.533-.993 14.5-.993 14.5-3.379 7.205-8.17 9.778-8.17 9.778 5.343 1.007 9.274-2.64 9.274-2.64-7.663 8.39-15.965 7.988-15.965 7.988 3.489 3.96 8.722 3.625 8.722 3.625-6.845 1.633-13.27-.671-18.548-5.124a29 29 0 0 1-2.827-2.685s-.795-.85-.95-1.075l-.021-.022c-.11 4.14 4.15 7.988 4.15 7.988-5.343-2.237-7.794-7.093-7.794-7.093s-3.599-6.22-.993-13.314c2.583-7.004 10.29-8.57 10.488-8.615.044.023.067.045.11.045-.044-.022-.066-.045-.11-.067 0 0-1.192-.515-1.877-.85-.684-.336-2.672-1.075-2.672-1.075-1.501-.447-2.914-.648-4.195-.648-6.514 0-9.98 4.99-9.98 4.99-3.07 3.49-3.799 8.01-3.799 8.01-.86 4.319.067 8.861.067 8.861s.088.358.11.515a29 29 0 0 0 2.672 4.968c5.74 8.682 15.06 11.68 15.06 11.68 13.8 4.744 23.229-2.238 23.229-2.238 8.678-6.041 10.422-13.023 10.422-13.023-7.022 5.527-10.047 5.013-10.047 5.013M5.05 36.97s-.552-1.7-.839-4.296v.09c0-.046 0-.09-.022-.157l-.066-.56s-.31-3.043.353-6.377c0 0 .022-.09.044-.224.089-.425.177-.873.287-1.298 0-.022 0-.044.023-.067.198-.872.485-1.924.772-2.774 0 0 3.048-10.137 13.36-14.769 0 0 3.555-1.902 8.92-2.036 0 0-.728-.716-1.192-1.03-2.517-1.7-6.271-2.26-8.545.135-.685.716-1.26 1.499-1.9 2.215-.728.806-1.611 1.477-2.627 1.857-.883.336-1.767.269-2.672.425-.927.157-1.877.493-2.628 1.097-.817.671-1.148 1.566-1.236 2.596-.089.805-.066 1.633-.11 2.439-.111 2.372-.862 3.043-2.54 4.363-.707.537-1.303 1.253-1.744 2.014-1.325 2.372.795 4.833.905 7.227.022.493-.022.985-.199 1.455-.176.515-.53.85-.817 1.275-.397.56-.662 1.231-.552 1.925s.464 1.342.795 1.947c.64 1.074 1.435 2.036 2.274 2.953.045.045.089.09.133.157 0-.023-.022-.045-.022-.067l.066.201a9 9 0 0 0-.22-.716m-.552-2.305c0 .045.022.09.022.112s0 .045.022.09c-.022-.067-.022-.135-.044-.202"/></svg>