<svg xmlns="http://www.w3.org/2000/svg" width="60" height="60" fill="none"><path fill="#282928" fill-rule="evenodd" d="M48.393 26.514c-1.203-.35-2.434-.236-3.595.34l-.88.438v-6.338a4.09 4.09 0 0 0-1.308-2.995c7.845-1.715 12.06-1.039 12.672.439.5 1.197-1.027 4.03-6.889 8.116m2.639 2.97c0 .074-.028.123-.099.152L27.89 39.592a2.556 2.556 0 0 1-3.223-1.068l-2.653-4.594h.028l3.202 2.63a2.75 2.75 0 0 0 3.004.345L45.53 28.32c.928-.462 1.885-.49 2.842-.082l2.561 1.096c.07.03.099.075.099.15m-13.784 7.85.338 8.368c.006.025.045.038.049.006l2.322-9.547-2.71 1.172Zm5.03 11.451V35.158l-.435.19-2.618 10.746a1.644 1.644 0 0 1-1.604 1.27c-.902 0-1.63-.69-1.668-1.594l-.317-7.741-7.092 3.065a4.194 4.194 0 0 1-4.926-1.217 77 77 0 0 1-5.896 1.545v7.363a2.457 2.457 0 0 0 2.456 2.457h19.645a2.46 2.46 0 0 0 2.456-2.457Zm-3.778 6.55h-2.617a.11.11 0 0 1-.106-.104V52.88h2.829v2.352c0 .055-.05.104-.106.104Zm-14.276-.104c0 .055-.05.104-.106.104h-2.617a.11.11 0 0 1-.106-.104V52.88h2.829zM4.719 39.384c-.739-1.785 2.941-6.061 11.364-10.95v11.658c-6.699 1.297-10.745.787-11.364-.708m28.835-6.943 2.526-1.255-8.219-2.408-.02.044zM20.178 18.498a2.456 2.456 0 0 0-2.456 2.456V39.75a75 75 0 0 0 5.01-1.312l-2.33-4.033a1.23 1.23 0 0 1-.126-.942c.144-.544.512-.714.922-.951a1.645 1.645 0 0 1 1.886.156l3.201 2.63c.36.3.817.351 1.239.14l4.313-2.145-4.87-3.088a1.644 1.644 0 0 1-.625-2.087 1.65 1.65 0 0 1 1.984-.91l9.914 2.906 4.039-2.007v-7.152a2.46 2.46 0 0 0-2.456-2.456zm6.79-10.025h6.065v8.388h-6.065zm-1.9-3.807h9.865v2.17h-9.865zm31.727 13.105c-1.731-4.164-12.152-2.048-16.704-.9a4 4 0 0 0-.268-.01h-5.157V8.473h.33a1.58 1.58 0 0 0 1.576-1.576V4.605a1.58 1.58 0 0 0-1.576-1.576h-9.991a1.58 1.58 0 0 0-1.576 1.576v2.292c0 .869.71 1.576 1.576 1.576h.323v8.388h-5.15a4.1 4.1 0 0 0-4.095 4.093v5.594c-4.208 2.377-7.628 4.792-9.914 7.002-2.674 2.582-3.673 4.756-2.963 6.462 1.468 3.527 9.222 2.433 12.877 1.743v7.03a4.097 4.097 0 0 0 3.673 4.072v2.374c0 .96.78 1.74 1.745 1.74h2.617c.964 0 1.745-.78 1.745-1.74V52.88h8.275v2.352c0 .96.781 1.74 1.745 1.74h2.618c.964 0 1.745-.78 1.745-1.74v-2.374a4.103 4.103 0 0 0 3.673-4.072V34.451l7.662-3.312c1.456-.627 1.457-2.686-.007-3.311l-1.379-.59c2.21-1.608 3.92-3.137 5.08-4.554 1.569-1.911 2.076-3.565 1.52-4.913" clip-rule="evenodd"/></svg>