<svg xmlns="http://www.w3.org/2000/svg" width="60" height="60" fill="none"><g clip-path="url(#a)"><path fill="#282928" d="M53.35 56.474H6.65A6.66 6.66 0 0 1 0 49.823V10.188a6.66 6.66 0 0 1 6.65-6.65h46.7a6.66 6.66 0 0 1 6.65 6.65v39.635a6.66 6.66 0 0 1-6.65 6.65ZM6.65 5.518a4.675 4.675 0 0 0-4.669 4.67v39.635a4.675 4.675 0 0 0 4.67 4.67h46.698a4.675 4.675 0 0 0 4.67-4.67V10.188a4.675 4.675 0 0 0-4.67-4.67H6.651Z"/><path fill="#282928" d="M59.01 19.4H.99a.99.99 0 1 1 0-1.982h58.02a.99.99 0 0 1 0 1.981Zm-42.086-4.74a3.14 3.14 0 0 1-3.135-3.135 3.14 3.14 0 0 1 3.135-3.134 3.14 3.14 0 0 1 3.135 3.134 3.14 3.14 0 0 1-3.135 3.135m0-4.288c-.636 0-1.154.517-1.154 1.153a1.155 1.155 0 1 0 1.154-1.154Zm-9.629 4.257a3.14 3.14 0 0 1-3.135-3.135A3.14 3.14 0 0 1 7.295 8.36a3.14 3.14 0 0 1 3.135 3.135 3.14 3.14 0 0 1-3.135 3.135Zm0-4.288c-.636 0-1.154.518-1.154 1.153a1.155 1.155 0 1 0 1.154-1.154Zm19.261 4.348a3.14 3.14 0 0 1-3.134-3.135 3.14 3.14 0 0 1 3.134-3.134 3.14 3.14 0 0 1 3.135 3.134 3.14 3.14 0 0 1-3.135 3.135m0-4.289a1.155 1.155 0 0 0 0 2.308 1.155 1.155 0 0 0 0-2.308"/><g clip-path="url(#b)"><path fill="#282928" d="M36.708 47h-5.86a.42.42 0 0 1-.294-.123l-5.142-5.167a.417.417 0 0 1 0-.588l5.143-5.157a.42.42 0 0 1 .295-.123h5.858a.418.418 0 0 1 .296.71l-4.842 4.865 4.842 4.871a.416.416 0 0 1-.296.712m-5.686-.833h4.684l-4.427-4.455a.416.416 0 0 1 0-.588l4.426-4.448h-4.682l-4.728 4.74zm-6.79-5.795a.41.41 0 0 1-.296-.123l-2.94-2.955a.42.42 0 0 1 0-.588l9.548-9.584a.42.42 0 0 1 .382-.113h5.77a.418.418 0 0 1 .295.71L24.527 40.25a.42.42 0 0 1-.296.123ZM21.88 37l2.352 2.364 11.46-11.521h-4.69z"/></g></g><defs><clipPath id="a"><path fill="#fff" d="M0 0h60v60H0z"/></clipPath><clipPath id="b"><path fill="#fff" d="M19 27h20v20H19z"/></clipPath></defs></svg>