<svg xmlns="http://www.w3.org/2000/svg" width="60" height="60" fill="none"><path fill="#282928" d="M29.75 54.5a3.75 3.75 0 1 1 0-7.5 3.75 3.75 0 0 1 0 7.5m0-5.625a1.875 1.875 0 1 0 0 3.75 1.875 1.875 0 0 0 0-3.75M40.063 51.688h-3.75a.938.938 0 0 1 0-1.876h3.75a.938.938 0 0 1 0 1.876M23.188 51.688h-3.75a.938.938 0 0 1 0-1.876h3.75a.938.938 0 0 1 0 1.876M20.375 7.625a.937.937 0 1 0 0-1.875.937.937 0 0 0 0 1.875M16.625 7.625a.937.937 0 1 0 0-1.875.937.937 0 0 0 0 1.875M24.125 19.813h-3.75A2.81 2.81 0 0 1 17.563 17v-3.75a2.81 2.81 0 0 1 2.812-2.812h3.75a2.81 2.81 0 0 1 2.813 2.812V17a2.81 2.81 0 0 1-2.813 2.813m-3.75-7.5a.94.94 0 0 0-.937.937V17a.94.94 0 0 0 .937.938h3.75a.94.94 0 0 0 .938-.938v-3.75a.94.94 0 0 0-.938-.937zM40.063 36.688h-3.75a2.81 2.81 0 0 1-2.813-2.813v-3.75a2.81 2.81 0 0 1 2.813-2.812h3.75a2.81 2.81 0 0 1 2.812 2.812v3.75a2.81 2.81 0 0 1-2.812 2.813m-3.75-7.5a.94.94 0 0 0-.938.937v3.75a.94.94 0 0 0 .938.938h3.75a.94.94 0 0 0 .937-.938v-3.75a.94.94 0 0 0-.937-.937zM42.875 41.375h-26.25a.938.938 0 0 1 0-1.875h26.25a.938.938 0 0 1 0 1.875M27.875 45.125h-11.25a.938.938 0 0 1 0-1.875h11.25a.938.938 0 0 1 0 1.875"/><path fill="#282928" d="M43.813 58.25H15.686A4.693 4.693 0 0 1 11 53.563V20.75a.938.938 0 0 1 1.875 0v32.813a2.81 2.81 0 0 0 2.813 2.812h28.124a2.81 2.81 0 0 0 2.813-2.812v-9.376a.938.938 0 0 1 1.875 0v9.376a4.693 4.693 0 0 1-4.687 4.687"/><path fill="#282928" d="M47.563 46.375a.94.94 0 0 1-.938-.937V6.688a2.81 2.81 0 0 0-2.812-2.813H15.686a2.81 2.81 0 0 0-2.812 2.813V22A.938.938 0 0 1 11 22V6.688A4.693 4.693 0 0 1 15.688 2h28.124A4.693 4.693 0 0 1 48.5 6.688v38.75a.94.94 0 0 1-.937.937"/><path fill="#282928" d="M41 23.563h-7.5a2.81 2.81 0 0 1-2.812-2.813v-7.5a2.81 2.81 0 0 1 2.812-2.812H41a2.81 2.81 0 0 1 2.813 2.812v5.875a.938.938 0 0 1-1.876 0V13.25a.94.94 0 0 0-.937-.937h-7.5a.94.94 0 0 0-.937.937v7.5a.94.94 0 0 0 .937.938H41a.94.94 0 0 0 .938-.938v-1.875a.938.938 0 0 1 1.874 0v1.875A2.81 2.81 0 0 1 41 23.563M26 36.688h-7.5a2.81 2.81 0 0 1-2.812-2.813V32a.938.938 0 0 1 1.874 0v1.875a.94.94 0 0 0 .938.938H26a.94.94 0 0 0 .938-.938v-7.5a.94.94 0 0 0-.938-.937h-7.5a.94.94 0 0 0-.937.937v5.875a.938.938 0 0 1-1.875 0v-5.875a2.81 2.81 0 0 1 2.812-2.812H26a2.81 2.81 0 0 1 2.813 2.812v7.5A2.81 2.81 0 0 1 26 36.688"/></svg>