<svg xmlns="http://www.w3.org/2000/svg" width="32.403" height="32.403"><path d="M11.267 31.731a.675.675 0 1 1-.675-.675.677.677 0 0 1 .675.675m21.136-8.776a9.46 9.46 0 0 1-9.451 9.451q-.267 0-.531-.016a.7.7 0 0 1-.144.016h-8.985a.675.675 0 0 1 0-1.35h4.8a9.448 9.448 0 0 1 3.51-17.457V1.349H6.751v4.726a.675.675 0 0 1-.675.675H1.35v24.3h6.542a.675.675 0 0 1 0 1.35H.675A.67.67 0 0 1 0 31.725V6.062a.7.7 0 0 1 .05-.24v-.01a1 1 0 0 1 .049-.094l.018-.029.034-.043.039-.049 5.4-5.4q.023-.02.048-.038c.025-.018.03-.026.047-.037L5.71.106a1 1 0 0 1 .1-.053.7.7 0 0 1 .249-.051h16.21a.67.67 0 0 1 .675.675v12.824a9.46 9.46 0 0 1 9.459 9.451Zm-1.351 0a8.11 8.11 0 0 0-8.1-8.1 8.4 8.4 0 0 0-1.35.114 8.1 8.1 0 0 0 0 15.973q.333.056.675.084.334.029.675.03a8.11 8.11 0 0 0 8.1-8.104ZM5.4 2.304l-3.1 3.1h3.1Zm23.29 17.339v6.362a.68.68 0 0 1-.359.6l-5.063 2.682-.025.009-.069.026-.053.02a.65.65 0 0 1-.341 0c-.018 0-.035-.014-.053-.02l-.069-.026-.025-.009-.359-.19-.675-.358-4.029-2.134a.68.68 0 0 1-.359-.6v-6.367a.7.7 0 0 1 .021-.149v-.021a.7.7 0 0 1 .063-.137l.012-.022a.7.7 0 0 1 .088-.118l.017-.018a.7.7 0 0 1 .119-.1l.006-.005.011-.005.047-.027 4.005-1.925.675-.324.382-.184a.68.68 0 0 1 .585 0l5.063 2.433.047.027.012.005.006.005a.7.7 0 0 1 .119.1l.017.018a.7.7 0 0 1 .088.118l.012.022a.7.7 0 0 1 .056.138v.021a.7.7 0 0 1 .02.149v.008Zm-1.35 1.115-3.708 1.932v4.879l3.713-1.967Zm-7.942-1.088 2.2 1.146.675.351.675.351 3.554-1.849-3.55-1.707-.675.324-.675.325Zm-.834 5.932 3.038 1.609.675.358V22.69l-.675-.351-3.038-1.58Zm-5.738-10.751a.675.675 0 0 1-.675-.675v-.736a4.05 4.05 0 0 1-3.319-3.315h-.736a.675.675 0 0 1 0-1.35h.736a4.05 4.05 0 0 1 3.314-3.314v-.736a.675.675 0 1 1 1.35 0v.736a4.05 4.05 0 0 1 3.314 3.314h.736a.675.675 0 0 1 0 1.35h-.736a4.05 4.05 0 0 1-3.314 3.314v.736a.675.675 0 0 1-.67.676m-2.7-5.4a2.7 2.7 0 1 0 2.7-2.7 2.7 2.7 0 0 0-2.7 2.699Zm2.7.675a.675.675 0 1 0-.675-.675.677.677 0 0 0 .675.674Zm-1.35 6.076h-8.1a.675.675 0 0 0 0 1.35h8.1a.675.675 0 1 0 0-1.35m-8.1 4.05h5.4a.675.675 0 1 0 0-1.35h-5.4a.675.675 0 1 0 0 1.35m8.1-1.35a.675.675 0 1 0 .675.675.677.677 0 0 0-.675-.676Zm0 2.7h-8.1a.676.676 0 0 0 0 1.351h8.1a.676.676 0 1 0 0-1.351m0 2.7a.675.675 0 1 0 .675.675.677.677 0 0 0-.675-.675m-2.7 0a.675.675 0 1 0 .675.675.677.677 0 0 0-.676-.675Zm-5.4 1.35h2.7a.675.675 0 0 0 0-1.35h-2.7a.675.675 0 0 0 0 1.35m5.4 1.35h-5.4a.675.675 0 0 0 0 1.35h5.4a.675.675 0 1 0 0-1.35"/></svg>