<svg xmlns="http://www.w3.org/2000/svg" width="20.191" height="28.111"><path d="M8.516 12.93a2.234 2.234 0 1 0 0-3.159 2.226 2.226 0 0 0 0 3.159m.495-2.664a1.534 1.534 0 1 1 0 2.168 1.536 1.536 0 0 1 0-2.168m1.089 4.886a3.8 3.8 0 1 0-2.689-1.112 3.8 3.8 0 0 0 2.689 1.112m-2.195-6a3.1 3.1 0 1 1 0 4.389A3.094 3.094 0 0 1 7.9 9.157Zm11.126-3.94a1.17 1.17 0 0 0-1.11.814h-1.035a.35.35 0 0 0-.35.35v3.562h-.751l-.862-.027a5 5 0 0 0-.4-.965l.594-.632a.44.44 0 0 0-.009-.619l-1.322-1.322V3.515h.64a1.164 1.164 0 1 0 0-.7h-.99a.35.35 0 0 0-.35.35v3.2l-.591.556a5 5 0 0 0-.966-.4l-.026-.867a.44.44 0 0 0-.444-.431h-.613v-2.95a1.164 1.164 0 1 0-.7 0v2.952h-.614a.44.44 0 0 0-.444.431l-.026.867a5 5 0 0 0-.968.4L7.1 6.368v-3.2a.35.35 0 0 0-.35-.35h-.99a1.164 1.164 0 1 0 0 .7h.64v2.863L5.083 7.7a.44.44 0 0 0-.009.619l.594.631a5 5 0 0 0-.4.968l-.858.026h-.755V6.38a.35.35 0 0 0-.35-.35H2.273a1.164 1.164 0 1 0 0 .7h.681v3.562a.35.35 0 0 0 .35.35h.665V11h-1.9a.89.89 0 0 0-.888.888v12.253a.89.89 0 0 0 .888.888h5.9v.978l-.78.405-.074.038a.9.9 0 0 0-.633.792.87.87 0 0 0 .869.869h5.48a.87.87 0 0 0 .869-.869.9.9 0 0 0-.634-.792l-.073-.037-.78-.405v-.978h5.9a.89.89 0 0 0 .888-.888V11.889a.89.89 0 0 0-.888-.888h-1.9v-.358h.665a.35.35 0 0 0 .35-.35V6.73h.681a1.164 1.164 0 1 0 1.109-1.513ZM15.537 2.7a.464.464 0 1 1-.464.464.464.464 0 0 1 .464-.464M10.1.7a.464.464 0 1 1-.464.464A.464.464 0 0 1 10.1.7M4.659 3.629a.464.464 0 1 1 .464-.464.464.464 0 0 1-.468.464ZM1.168 6.845a.464.464 0 1 1 .464-.464.464.464 0 0 1-.468.464Zm3.505 3.791.807-.024a.44.44 0 0 0 .417-.334 4.3 4.3 0 0 1 .471-1.137.44.44 0 0 0-.058-.532l-.553-.588L6.768 7.01l.588.553a.44.44 0 0 0 .531.059 4.3 4.3 0 0 1 1.138-.471.44.44 0 0 0 .334-.417l.024-.807h1.427l.024.807a.44.44 0 0 0 .334.418 4.3 4.3 0 0 1 1.137.471.44.44 0 0 0 .531-.058l.589-.553 1.012 1.012-.553.589a.44.44 0 0 0-.058.531 4.3 4.3 0 0 1 .47 1.136.44.44 0 0 0 .417.335l.808.025v1.431l-.808.025a.44.44 0 0 0-.417.334 4.3 4.3 0 0 1-.47 1.136.44.44 0 0 0 .058.531l.553.589-1.012 1.012-.589-.553a.44.44 0 0 0-.531-.058 4.3 4.3 0 0 1-1.136.47.44.44 0 0 0-.335.417l-.025.808H9.378l-.025-.808a.44.44 0 0 0-.334-.416 4.3 4.3 0 0 1-1.137-.471.44.44 0 0 0-.531.058l-.588.553-1.011-1.011.553-.588a.44.44 0 0 0 .059-.531 4.3 4.3 0 0 1-.471-1.138.44.44 0 0 0-.417-.335l-.807-.024v-1.435Zm7.037 15.9.968.5.081.041a.9.9 0 0 1 .248.155v.012a.17.17 0 0 1-.169.169h-5.48a.17.17 0 0 1-.169-.169v-.012a.9.9 0 0 1 .248-.155l.081-.041.968-.5a.35.35 0 0 0 .188-.31V25.03h2.843v1.191a.35.35 0 0 0 .189.31Zm6.415-2.2H2.07a.19.19 0 0 1-.188-.188V22.8H18.31v1.339a.19.19 0 0 1-.189.191Zm0-12.629a.19.19 0 0 1 .188.188V22.1H1.882V11.889a.19.19 0 0 1 .188-.188h1.9v.614a.44.44 0 0 0 .431.444l.867.026a5 5 0 0 0 .4.968l-.594.631a.44.44 0 0 0 .009.619l1.362 1.362a.44.44 0 0 0 .618.009l.631-.594a5 5 0 0 0 .966.4l.027.867a.44.44 0 0 0 .444.431h1.927a.44.44 0 0 0 .444-.43l.027-.867a5 5 0 0 0 .965-.4l.632.594a.44.44 0 0 0 .618-.01L15.107 15a.44.44 0 0 0 .009-.618l-.594-.632a5 5 0 0 0 .4-.965l.867-.027a.44.44 0 0 0 .43-.444V11.7h1.9Zm.906-4.856a.464.464 0 1 1 .464-.464.464.464 0 0 1-.468.458ZM11.043 18.97a1.17 1.17 0 0 0-1.17-1.17h-.991a.35.35 0 0 0-.35.35v3.281a.35.35 0 1 0 .7 0V20.14h.425l.723 1.447a.35.35 0 0 0 .313.194.34.34 0 0 0 .156-.037.35.35 0 0 0 .156-.469l-.626-1.251a1.17 1.17 0 0 0 .664-1.054m-1.812-.47h.642a.47.47 0 0 1 0 .94h-.642Zm-3.863 1.2v.19a1.2 1.2 0 0 0 1.2 1.2h.026a1.2 1.2 0 0 0 .682-.215.35.35 0 1 1 .4.574 1.9 1.9 0 0 1-1.084.342h-.026a1.9 1.9 0 0 1-1.9-1.9V19.7a1.9 1.9 0 0 1 1.9-1.9h.026a1.9 1.9 0 0 1 1.084.341.35.35 0 1 1-.4.574 1.2 1.2 0 0 0-.682-.215h-.026a1.2 1.2 0 0 0-1.199 1.2Zm10.155-1.55v3.281a.35.35 0 1 1-.7 0v-2.158l-.891 1.291a.35.35 0 0 1-.576 0l-.891-1.291v2.157a.35.35 0 1 1-.7 0v-3.28a.35.35 0 0 1 .637-.2l1.241 1.8 1.241-1.8a.35.35 0 0 1 .639.2"/></svg>