<svg xmlns="http://www.w3.org/2000/svg" width="32.007" height="30"><path fill-rule="evenodd" d="M29.3 11.165a1.721 1.721 0 1 0-.636-.833l-1.485.774a.52.52 0 0 0-.278.458v2.919h-.469v-2.918a.52.52 0 0 0-.278-.458l-1.485-.774a1.727 1.727 0 1 0-.636.833l1.366.712v2.606H22.84a.516.516 0 0 0-.516.516 6.321 6.321 0 0 1-12.641 0 .516.516 0 0 0-.516-.516H6.61v-2.606l1.366-.712a1.721 1.721 0 1 0-.636-.833l-1.485.774a.52.52 0 0 0-.278.458v2.919h-.469v-2.919a.52.52 0 0 0-.278-.458l-1.485-.774a1.727 1.727 0 1 0-.636.833l1.366.712v2.606H1.52A.516.516 0 0 0 1 15v1.96a.52.52 0 0 0 .331.482l2.149.827a12.9 12.9 0 0 0 1.356 3.271L3.9 23.65a.52.52 0 0 0 .107.575l2.772 2.772a.52.52 0 0 0 .575.107l2.107-.936a12.9 12.9 0 0 0 3.27 1.356l.827 2.15a.52.52 0 0 0 .482.331h3.92a.52.52 0 0 0 .482-.331l.827-2.149a12.9 12.9 0 0 0 3.271-1.356l2.106.935a.52.52 0 0 0 .575-.107L28 24.221a.52.52 0 0 0 .1-.571l-.936-2.107a12.9 12.9 0 0 0 1.356-3.27l2.15-.827a.52.52 0 0 0 .33-.486V15a.516.516 0 0 0-.516-.516h-2.553v-2.606Zm.987-2.1a.691.691 0 1 1-.691.691.69.69 0 0 1 .688-.693Zm-7.24 1.381a.691.691 0 1 1 .691-.691.69.69 0 0 1-.694.69ZM8.963 9.063a.691.691 0 1 1-.691.691.69.69 0 0 1 .691-.691m-7.24 1.381a.691.691 0 1 1 .691-.691.69.69 0 0 1-.691.692Zm28.248 6.161-2.069.8a.52.52 0 0 0-.317.362 11.8 11.8 0 0 1-1.438 3.468.52.52 0 0 0-.032.48l.9 2.028-2.271 2.271-2.027-.9a.52.52 0 0 0-.48.032 11.8 11.8 0 0 1-3.469 1.438.52.52 0 0 0-.362.317l-.8 2.069H14.4l-.8-2.069a.52.52 0 0 0-.362-.317 11.8 11.8 0 0 1-3.468-1.438.52.52 0 0 0-.48-.032l-2.028.9-2.271-2.271.9-2.027a.52.52 0 0 0-.032-.48 11.8 11.8 0 0 1-1.438-3.469.52.52 0 0 0-.317-.362l-2.069-.8v-1.09h6.632a7.353 7.353 0 0 0 14.67 0h6.632Zm-20-9.551a1.73 1.73 0 0 0 1.643-1.204h1.312v4.73h-.274a1.073 1.073 0 0 0-1.071 1.07v6.7a1.073 1.073 0 0 0 1.071 1.071h6.7a1.073 1.073 0 0 0 1.074-1.071v-6.7a1.073 1.073 0 0 0-1.071-1.071h-.274V5.85h1.312a1.723 1.723 0 1 0 0-1.032h-1.828a.516.516 0 0 0-.516.516v5.246H16.52V3.37a1.723 1.723 0 1 0-1.032 0v7.21h-1.529V5.331a.516.516 0 0 0-.516-.516h-1.829A1.723 1.723 0 1 0 9.97 7.05ZM22.039 4.64a.691.691 0 1 1-.691.691.69.69 0 0 1 .69-.69ZM16 1.033a.691.691 0 1 1-.691.691.69.69 0 0 1 .691-.691m3.394 10.617v6.7a.04.04 0 0 1-.039.039h-6.7a.04.04 0 0 1-.039-.039v-6.7a.04.04 0 0 1 .039-.039h6.7a.04.04 0 0 1 .039.039M9.97 4.641a.691.691 0 1 1-.691.691.69.69 0 0 1 .691-.691m4.308 12.6h3.452a.516.516 0 0 0 .516-.516v-3.451a.516.516 0 0 0-.516-.516h-3.452a.516.516 0 0 0-.516.516v3.452a.516.516 0 0 0 .516.516Zm.516-3.452h2.419v2.421h-2.419Zm1.873 1.21a.664.664 0 1 1-.667-.663.665.665 0 0 1 .667.664Z"/></svg>