<svg xmlns="http://www.w3.org/2000/svg" width="27.112" height="27.111"><path d="M13.375 2.226A7.56 7.56 0 0 0 7.881.003 8.014 8.014 0 0 0 .002 7.882a7.606 7.606 0 0 0 7.72 7.721l3.837-.045-.045 3.838a7.605 7.605 0 0 0 7.635 7.718h.084a8.024 8.024 0 0 0 7.879-7.879 7.6 7.6 0 0 0-7.721-7.721l-3.837.045.048-3.838a7.57 7.57 0 0 0-2.223-5.494Zm6.027 10.19a6.693 6.693 0 0 1 6.806 6.8 7.12 7.12 0 0 1-6.986 6.988 6.7 6.7 0 0 1-6.807-6.801l.045-3.86 2.138-.028-.033 3.773a4.61 4.61 0 0 0 4.631 4.662h.028a4.78 4.78 0 0 0 4.723-4.716 4.61 4.61 0 0 0-4.624-4.664h-.038l-4.234.036-3.041.039-4.3.053A6.7 6.7 0 0 1 .902 7.891 7.11 7.11 0 0 1 7.892.903a6.693 6.693 0 0 1 6.8 6.806l-.047 3.86-2.141.028.036-3.776a4.616 4.616 0 0 0-4.658-4.657 4.78 4.78 0 0 0-4.718 4.718 4.613 4.613 0 0 0 4.63 4.662h.028l4.234-.036 3.043-.039Zm-3.93 6.879.03-3.792 3.79-.033a3.74 3.74 0 0 1 2.666 1.084 3.7 3.7 0 0 1 1.084 2.666 3.88 3.88 0 0 1-3.826 3.823h-.023a3.707 3.707 0 0 1-3.724-3.75ZM11.64 7.818l-.038 3.793-3.789.033h-.021A3.71 3.71 0 0 1 4.067 7.89a3.88 3.88 0 0 1 3.822-3.822h.029a3.71 3.71 0 0 1 3.722 3.748Z"/><path d="M6.21 10a.13.13 0 0 1-.087-.036.12.12 0 0 1-.039-.09L6.1 9.82l1.442-3.87a.2.2 0 0 1 .21-.15h.654a.206.206 0 0 1 .21.15l1.446 3.87a.2.2 0 0 1 .006.054.12.12 0 0 1-.036.09.12.12 0 0 1-.084.036h-.522a.18.18 0 0 1-.12-.036.16.16 0 0 1-.054-.078l-.282-.732H7.188l-.282.732a.174.174 0 0 1-.174.114Zm2.55-1.536L8.076 6.61 7.4 8.464Zm9.852 12.907a.14.14 0 0 1-.1-.042.14.14 0 0 1-.042-.1v-3.914a.14.14 0 0 1 .04-.105.14.14 0 0 1 .1-.039h.564a.14.14 0 0 1 .1.039.14.14 0 0 1 .039.105v3.912a.14.14 0 0 1-.039.1.14.14 0 0 1-.1.042Z"/></svg>