<svg xmlns="http://www.w3.org/2000/svg" width="33.666" height="33.666"><path d="m33.179 20.838-1.4-.328a10 10 0 0 0-.284-1.061l1.045-.98a.56.56 0 0 0 .128-.641 11.3 11.3 0 0 0-1.121-1.928.56.56 0 0 0-.619-.209l-1.36.413a10 10 0 0 0-.782-.782l.414-1.36a.56.56 0 0 0-.209-.618q-.453-.327-.936-.607V2.806A2.81 2.81 0 0 0 25.25 0H2.806A2.81 2.81 0 0 0 0 2.806v14.588A2.81 2.81 0 0 0 2.806 20.2h5.933L6.9 25.25H3.928a.56.56 0 0 0-.561.561 2.81 2.81 0 0 0 2.806 2.806H13.1c.082.124.155.254.242.374a.56.56 0 0 0 .619.209l1.36-.413a10 10 0 0 0 .782.782l-.414 1.36a.56.56 0 0 0 .209.618 11 11 0 0 0 1.931 1.119.56.56 0 0 0 .641-.128l.98-1.046a9 9 0 0 0 1.062.284l.328 1.4a.56.56 0 0 0 .492.431 11.2 11.2 0 0 0 2.229.001.56.56 0 0 0 .492-.431l.328-1.4a9 9 0 0 0 1.062-.284l.98 1.046a.56.56 0 0 0 .641.128 11.2 11.2 0 0 0 1.93-1.119.56.56 0 0 0 .209-.619l-.414-1.36a10 10 0 0 0 .782-.782l1.36.414a.56.56 0 0 0 .619-.209 11.3 11.3 0 0 0 1.118-1.931.56.56 0 0 0-.128-.641l-1.045-.98a10 10 0 0 0 .284-1.062l1.4-.328a.56.56 0 0 0 .431-.491 11.194 11.194 0 0 0-.001-2.229.56.56 0 0 0-.43-.491ZM2.806 1.122H25.25a1.685 1.685 0 0 1 1.683 1.683v9.382a.56.56 0 0 0-.513.163l-.98 1.05a9 9 0 0 0-1.062-.284l-.328-1.4a.56.56 0 0 0-.492-.431 11 11 0 0 0-2.23 0 .56.56 0 0 0-.492.431l-.328 1.4a9 9 0 0 0-1.062.284l-.98-1.046a.56.56 0 0 0-.641-.128 11.2 11.2 0 0 0-1.93 1.119.56.56 0 0 0-.209.619l.192.628H4.489V7.855H10.1V6.733H4.489V3.367h19.077V10.1h1.122V2.806a.56.56 0 0 0-.561-.561H3.928a.56.56 0 0 0-.561.561v11.783H1.122V2.806a1.685 1.685 0 0 1 1.684-1.684m12.905 14.589c-.13.13-.269.253-.391.391l-1.285-.391ZM1.122 17.394v-1.683h12.462a.55.55 0 0 0-.242.186 11.3 11.3 0 0 0-1.118 1.931.56.56 0 0 0 .128.641l.65.609H2.806a1.685 1.685 0 0 1-1.683-1.683Zm8.81 2.806h3.254q-.04.152-.074.31l-1.4.328a.56.56 0 0 0-.431.491 11.21 11.21 0 0 0 .001 2.23.56.56 0 0 0 .431.491l1.4.328c.061.295.145.584.233.871H8.1Zm-3.76 7.294a1.69 1.69 0 0 1-1.587-1.122H12.4l-.051.048a.56.56 0 0 0-.128.641c.067.148.15.289.223.434Zm26.353-4.443-1.362.318a.56.56 0 0 0-.426.455 8.4 8.4 0 0 1-.422 1.577.56.56 0 0 0 .142.607l1.013.95a10 10 0 0 1-.608 1.049l-1.319-.4a.56.56 0 0 0-.6.18 8.5 8.5 0 0 1-1.161 1.161.56.56 0 0 0-.18.6l.4 1.319a10 10 0 0 1-1.049.608l-.949-1.014a.56.56 0 0 0-.607-.141 8.4 8.4 0 0 1-1.578.422.56.56 0 0 0-.455.426l-.318 1.362a10 10 0 0 1-1.214 0l-.318-1.362a.56.56 0 0 0-.455-.426 8.5 8.5 0 0 1-1.578-.422.56.56 0 0 0-.607.141l-.949 1.014a10 10 0 0 1-1.05-.608l.4-1.319a.56.56 0 0 0-.18-.6 8.5 8.5 0 0 1-1.161-1.161.56.56 0 0 0-.6-.18l-1.319.4a10 10 0 0 1-.608-1.049l1.014-.95a.56.56 0 0 0 .142-.607 8.4 8.4 0 0 1-.422-1.578.56.56 0 0 0-.426-.455l-1.362-.318a10 10 0 0 1-.001-1.214l1.362-.318a.56.56 0 0 0 .426-.455 8.4 8.4 0 0 1 .422-1.577.56.56 0 0 0-.141-.607l-1.014-.95a10 10 0 0 1 .608-1.049l1.319.4a.56.56 0 0 0 .6-.18 8.5 8.5 0 0 1 1.166-1.16.56.56 0 0 0 .18-.6l-.4-1.319a10 10 0 0 1 1.049-.608l.949 1.014a.56.56 0 0 0 .607.141 8.4 8.4 0 0 1 1.578-.422.56.56 0 0 0 .455-.426l.318-1.362a10 10 0 0 1 1.214 0l.318 1.362a.56.56 0 0 0 .455.426 8.5 8.5 0 0 1 1.578.422.56.56 0 0 0 .607-.141l.949-1.014a10 10 0 0 1 1.05.608l-.4 1.319a.56.56 0 0 0 .18.6 8.5 8.5 0 0 1 1.159 1.16.56.56 0 0 0 .6.18l1.319-.4a10 10 0 0 1 .608 1.049l-1.014.95a.56.56 0 0 0-.142.607 8.4 8.4 0 0 1 .422 1.578.56.56 0 0 0 .426.455l1.362.318q.02.31.02.608c0 .298-.01.4-.022.606"/><path d="M26.371 22.444a3.928 3.928 0 1 0-3.928 3.928 3.93 3.93 0 0 0 3.928-3.928m-3.928 2.806a2.806 2.806 0 1 1 2.806-2.806 2.81 2.81 0 0 1-2.805 2.805Zm-4.548-6.093-.908-.658a6.7 6.7 0 0 0-.618 1.037l1.012.485a5.6 5.6 0 0 1 .514-.864m4.28-2.317-.053-1.121a7 7 0 0 0-1.2.164l.252 1.094a5.7 5.7 0 0 1 1.001-.137m4.45.326-.7.879a5.7 5.7 0 0 1 .731.694l.842-.742a7 7 0 0 0-.873-.831m-9.587 6.782-1.082.3a6.6 6.6 0 0 0 .426 1.13l1.011-.489a5.6 5.6 0 0 1-.355-.941m2.735-6.44-.536-.986a7 7 0 0 0-1 .668l.7.875a5.6 5.6 0 0 1 .837-.557Zm8.193 5.938 1.1.2a7 7 0 0 0 .107-1.2v-.024l-1.122.024a5.7 5.7 0 0 1-.085 1m-5.264 4.604.05 1.121a7 7 0 0 0 1.2-.162l-.25-1.094a5.7 5.7 0 0 1-1 .135m4.284-2.31.907.66a6.7 6.7 0 0 0 .619-1.036l-1.011-.487a5.7 5.7 0 0 1-.515.863m.862-4.81 1.082-.3a6.6 6.6 0 0 0-.429-1.13l-1.006.492a5.5 5.5 0 0 1 .353.938m-2.741 6.455.532.988a6.7 6.7 0 0 0 1.006-.666l-.7-.876a5.7 5.7 0 0 1-.838.555Zm-5.303 1.255a6.7 6.7 0 0 0 1.15.371l.246-1.095a5.5 5.5 0 0 1-.956-.309Zm-1.58-2.498-.844.74a7 7 0 0 0 .874.833l.7-.878a5.6 5.6 0 0 1-.728-.694Zm6.848-9.899a6.7 6.7 0 0 0-1.15-.369l-.246 1.095a5.5 5.5 0 0 1 .956.307Zm-8.152 5.21-1.1-.2a7 7 0 0 0-.1 1.188v.012l1.122-.012a6 6 0 0 1 .078-.988m3.115-16.239-.793.793 1.287 1.287h-7.062a2.81 2.81 0 0 0-2.806 2.806v3.367h1.122V10.1a1.685 1.685 0 0 1 1.684-1.679h7.062l-1.287 1.287.793.793 2.244-2.244a.56.56 0 0 0 0-.793ZM5.611 4.489h1.122v1.122H5.611Zm2.244 0h1.122v1.122H7.855Zm2.245 0h1.122v1.122H10.1Z"/></svg>