<svg xmlns="http://www.w3.org/2000/svg" width="60" height="60" fill="none"><path fill="#282928" d="M11.151 37.705c4.586 11.052 20.105 11.068 24.698 0 .533-1.285-.41-2.705-1.783-2.705H12.934c-1.377 0-2.315 1.422-1.783 2.705m1.783-1.107h21.132c.246 0 .424.254.327.488-4.046 9.75-17.735 9.763-21.786 0a.355.355 0 0 1 .327-.488m.674-8.356c0-1.503 1.298-2.726 2.892-2.726s2.892 1.223 2.892 2.726c0 .419.36.758.804.758s.804-.34.804-.758C21 25.902 18.981 24 16.5 24S12 25.903 12 28.242c0 .419.36.758.804.758s.804-.34.804-.758m14 0c0-1.503 1.298-2.726 2.892-2.726s2.892 1.223 2.892 2.726c0 .419.36.758.804.758s.804-.34.804-.758C35 25.902 32.981 24 30.5 24S26 25.903 26 28.242c0 .419.36.758.804.758s.804-.34.804-.758"/><path fill="#282928" d="M26.486 7.356a.794.794 0 0 0 .254-1.089.78.78 0 0 0-1.08-.255 20.1 20.1 0 0 0-6.789 7.062C10.472 15.25 4.016 22.934 4 32.437a20.08 20.08 0 0 0 8.18 16.233.55.55 0 0 1 .164.714 20.6 20.6 0 0 1-3.927 4.885c-1.151 1.056-.21 2.982 1.326 2.704 2.91-.527 7.173-1.723 10.957-4.429.215-.153.489-.218.772-.184a19.7 19.7 0 0 0 10.652-1.648.793.793 0 0 0 .39-1.047.783.783 0 0 0-1.04-.392 18.16 18.16 0 0 1-9.813 1.517 2.65 2.65 0 0 0-1.87.465c-3.526 2.521-7.525 3.65-10.284 4.153a22.2 22.2 0 0 0 4.194-5.23 2.133 2.133 0 0 0-.596-2.786C8.377 43.918 5.56 38.328 5.57 32.44c.017-10.157 8.234-18.421 18.317-18.421 10.1 0 18.316 8.278 18.316 18.454 0 5.95-2.874 11.568-7.688 15.03a.795.795 0 0 0-.183 1.103.78.78 0 0 0 1.095.184 20 20 0 0 0 4.86-4.998c3.534 2.248 7.336 3.286 9.97 3.763 1.534.278 2.478-1.646 1.326-2.703a20.6 20.6 0 0 1-3.927-4.886.55.55 0 0 1 .164-.714A20.07 20.07 0 0 0 56 23.02C55.976 8.934 42.02-.61 29.094 4.307a.79.79 0 0 0-.457 1.019.783.783 0 0 0 1.012.46C41.63 1.23 54.409 10.212 54.43 23.023c.01 5.888-2.807 11.477-7.535 14.952a2.133 2.133 0 0 0-.596 2.786 22.2 22.2 0 0 0 4.194 5.23c-2.494-.455-6.068-1.436-9.372-3.54a20.16 20.16 0 0 0 2.652-9.979c0-12.097-10.653-21.588-22.785-19.826a18.5 18.5 0 0 1 5.498-5.29"/></svg>