<svg xmlns="http://www.w3.org/2000/svg" width="34.946" height="37.478"><path d="M17.343 27.158c-5.44 0-10.665-2.662-15.545-7.923a.62.62 0 0 1-.166-.419v-.173a.62.62 0 0 1 .166-.419c5-5.4 10.388-8.059 15.982-7.917 9.02.24 15.28 7.627 15.538 7.942a.62.62 0 0 1 .142.394v.173a.62.62 0 0 1-.142.394c-.265.314-6.518 7.7-15.538 7.942q-.215.007-.437.006M3.019 18.73c4.658 4.9 9.618 7.307 14.725 7.19 7.443-.191 13.08-5.8 14.362-7.19-1.282-1.386-6.913-7-14.362-7.19-5.114-.142-10.067 2.286-14.725 7.19"/><path d="M17.553 27.158a8.7 8.7 0 0 1-8.921-8.428 8.694 8.694 0 0 1 8.921-8.428 8.69 8.69 0 0 1 8.915 8.428 8.693 8.693 0 0 1-8.915 8.428m0-15.625a7.464 7.464 0 0 0-7.689 7.2 7.464 7.464 0 0 0 7.689 7.2 7.46 7.46 0 0 0 7.683-7.2 7.46 7.46 0 0 0-7.683-7.2m-9.845 3.044a.62.62 0 0 1-.616-.616V9.888h-3.2a.616.616 0 1 1 0-1.232h3.816a.62.62 0 0 1 .616.616v4.689a.62.62 0 0 1-.616.616"/><path d="M2.255 11.528A2.255 2.255 0 1 1 4.51 9.273a2.256 2.256 0 0 1-2.255 2.255m0-3.278a1.023 1.023 0 1 0 1.023 1.023A1.024 1.024 0 0 0 2.255 8.25m6.13-.746a2.255 2.255 0 1 1 2.255-2.26 2.256 2.256 0 0 1-2.255 2.26m0-3.278a1.023 1.023 0 1 0 1.023 1.018 1.024 1.024 0 0 0-1.023-1.018m9.168.284a2.255 2.255 0 1 1 2.255-2.255 2.256 2.256 0 0 1-2.255 2.255m0-3.284a1.023 1.023 0 1 0 1.023 1.023 1.024 1.024 0 0 0-1.023-1.023"/><path d="M12.667 12.236a.62.62 0 0 1-.616-.616V5.871h-2.027a.616.616 0 1 1 0-1.232h2.643a.62.62 0 0 1 .616.616v6.364a.62.62 0 0 1-.616.617m4.886-.702a.62.62 0 0 1-.616-.616V3.894a.616.616 0 0 1 1.232 0v7.03a.613.613 0 0 1-.616.61m9.685 3.043a.62.62 0 0 1-.616-.616V9.272a.62.62 0 0 1 .616-.616h3.814a.616.616 0 1 1 0 1.232h-3.2v4.073a.62.62 0 0 1-.614.616"/><path d="M32.691 11.528a2.255 2.255 0 1 1 2.255-2.255 2.256 2.256 0 0 1-2.255 2.255m0-3.278a1.023 1.023 0 1 0 1.023 1.023 1.024 1.024 0 0 0-1.023-1.023m-6.13-.746a2.255 2.255 0 1 1 2.255-2.26 2.256 2.256 0 0 1-2.255 2.26m0-3.278a1.023 1.023 0 1 0 1.023 1.018 1.024 1.024 0 0 0-1.023-1.018"/><path d="M22.279 12.291a.62.62 0 0 1-.616-.616V5.249a.62.62 0 0 1 .616-.616h2.643a.616.616 0 0 1 0 1.232h-2.027v5.8a.62.62 0 0 1-.616.626m8.773 16.525h-3.814a.62.62 0 0 1-.616-.616v-4.689a.616.616 0 1 1 1.232 0v4.072h3.2a.616.616 0 0 1 0 1.232Z"/><path d="M32.691 30.454a2.255 2.255 0 1 1 2.255-2.255 2.256 2.256 0 0 1-2.255 2.255m0-3.278a1.023 1.023 0 1 0 1.023 1.023 1.024 1.024 0 0 0-1.023-1.023m-6.13 7.302a2.255 2.255 0 1 1 2.255-2.255 2.256 2.256 0 0 1-2.255 2.255m0-3.278a1.023 1.023 0 1 0 1.023 1.023 1.024 1.024 0 0 0-1.023-1.023m-9.168 6.278a2.255 2.255 0 1 1 2.255-2.255 2.256 2.256 0 0 1-2.255 2.255m0-3.284a1.023 1.023 0 1 0 1.023 1.023 1.024 1.024 0 0 0-1.023-1.023"/><path d="M24.916 32.839h-2.637a.62.62 0 0 1-.616-.616v-6.371a.616.616 0 1 1 1.232 0v5.754h2.027a.616.616 0 1 1-.006 1.232Zm-7.523 1.355a.62.62 0 0 1-.616-.616v-7.024a.616.616 0 0 1 1.232 0v7.03a.613.613 0 0 1-.616.61m-9.685-5.378H3.894a.616.616 0 0 1 0-1.232h3.2v-4.073a.616.616 0 1 1 1.232 0V28.2a.62.62 0 0 1-.618.616"/><path d="M2.255 30.454a2.255 2.255 0 1 1 2.255-2.255 2.256 2.256 0 0 1-2.255 2.255m0-3.278a1.023 1.023 0 1 0 1.023 1.023 1.024 1.024 0 0 0-1.023-1.023m6.13 7.302a2.255 2.255 0 1 1 2.255-2.255 2.256 2.256 0 0 1-2.255 2.255m0-3.278a1.023 1.023 0 1 0 1.023 1.023A1.024 1.024 0 0 0 8.385 31.2"/><path d="M12.667 32.839h-2.643a.616.616 0 1 1 0-1.232h2.027v-5.8a.616.616 0 0 1 1.232 0v6.42a.62.62 0 0 1-.616.612m4.726-9.938a4.177 4.177 0 1 1 4.393-4.171 4.293 4.293 0 0 1-4.393 4.171m0-7.1a2.947 2.947 0 1 0 3.161 2.933 3.06 3.06 0 0 0-3.161-2.937Z"/></svg>