<svg xmlns="http://www.w3.org/2000/svg" width="34.666" height="34.666"><path d="M29.686 22.366a2.18 2.18 0 0 0-1.6.618 2.237 2.237 0 0 0 1.492 3.853h.053a2.237 2.237 0 0 0 .055-4.471m.72 3.045a1.17 1.17 0 0 1-.8.309 1.118 1.118 0 0 1 .025-2.236h.027a1.118 1.118 0 0 1 .746 1.927Z"/><path d="M30.193 20.164v-2.552l.671-.5A9.505 9.505 0 0 0 25.161 0H0v24.6h8.992a2.8 2.8 0 0 0 .949 1.657l7.842 6.6A7.67 7.67 0 0 0 28.86 31.6l2.026-2.7a4.474 4.474 0 0 0-.693-8.734Zm-4.543 6.473-1.223 1.583a2.21 2.21 0 0 1-1.738.854 2.2 2.2 0 0 1-1.276-.409l-2.981-2.129a9.2 9.2 0 0 1 7.123-5.124l1.1-.137q-.054.044-.106.092a4.47 4.47 0 0 0-.9 5.27ZM15.723 24.6h2.552a10 10 0 0 0-.769 1.274Zm3.287-10.063h1.118a2.24 2.24 0 0 0 2.237-2.237h-1.118a1.12 1.12 0 0 1-1.118 1.118H19.01V11.4l-.585-.292a.96.96 0 0 1-.533-.863 1 1 0 0 1 .026-.221l.915-3.89q.064-.275.151-.538h5.058A1.674 1.674 0 0 1 25.7 7.1a3.905 3.905 0 0 0 .017 7.053v2.619h-5.029A1.68 1.68 0 0 1 19.01 15.1Zm5.59-3.914a2.8 2.8 0 1 1 2.8 2.8 2.8 2.8 0 0 1-2.8-2.8m4.473 7.269v2.236h-2.235l-1.422.173a10.2 10.2 0 0 0-1.932.437v-2.846Zm4.473-8.387a8.43 8.43 0 0 1-3.355 6.709l-.745.559h-2.608v-2.281a3.914 3.914 0 1 0-.051-7.73 2.8 2.8 0 0 0-2.744-2.289h-4.57a6.47 6.47 0 0 1 5.688-3.355 8.4 8.4 0 0 1 8.386 8.387ZM9 23.483H1.118V1.118h20.067a7.6 7.6 0 0 0-3.441 4.755l-.915 3.891a2 2 0 0 0-.055.476 2.07 2.07 0 0 0 1.118 1.846V15.1a2.8 2.8 0 0 0 2.8 2.8h1.677v3.293a10.4 10.4 0 0 0-3.176 2.3h-4.72a2.788 2.788 0 0 0-5.467 0Zm1.659 1.92a1.67 1.67 0 0 1-.6-1.283v-.078a1.678 1.678 0 0 1 3.355 0v.288l7.344 5.245a3 3 0 0 0 .382.231l-1.17 3.133a6.6 6.6 0 0 1-1.466-.931Zm10.361 7.919 1.187-3.166a3.4 3.4 0 0 0 .481.037 3.3 3.3 0 0 0 1.044-.174l1.746 2.909a6.47 6.47 0 0 1-4.458.394m6.945-2.394a6.5 6.5 0 0 1-1.516 1.445l-1.728-2.883a3.3 3.3 0 0 0 .592-.587l1.007-1.3.079.091a4.44 4.44 0 0 0 2.967 1.371Zm3.985-3.9a3.355 3.355 0 1 1-2.319-5.781h.08a3.355 3.355 0 0 1 2.239 5.781"/><path d="M7.827 13.418a5.591 5.591 0 1 0-5.591-5.591 5.6 5.6 0 0 0 5.591 5.591M3.393 8.386H5.67a2.23 2.23 0 0 0 1.6 1.6v2.277a4.48 4.48 0 0 1-3.877-3.877m4.434-1.677a1.118 1.118 0 1 1-1.118 1.118 1.12 1.12 0 0 1 1.118-1.118m.559 5.553V9.984a2.23 2.23 0 0 0 1.6-1.6h2.277a4.48 4.48 0 0 1-3.877 3.878m3.875-4.994H9.984a2.23 2.23 0 0 0-1.6-1.6V3.393a4.48 4.48 0 0 1 3.878 3.875ZM7.268 3.393V5.67a2.23 2.23 0 0 0-1.6 1.6H3.393a4.48 4.48 0 0 1 3.875-3.877M2.236 14.537h13.419v1.118H2.236Zm12.301 2.237h1.118v1.118h-1.118Zm-12.301 0h11.182v1.118H2.236Zm0 2.236h13.419v1.118H2.236Zm0 2.237h6.709v1.118H2.236Zm26.839-10.624a1.677 1.677 0 1 0-1.677 1.677 1.68 1.68 0 0 0 1.677-1.677m-2.236 0a.559.559 0 1 1 .559.559.56.56 0 0 1-.56-.559Z"/><circle transform="translate(21 8.103)"/></svg>