<svg xmlns="http://www.w3.org/2000/svg" width="31.077" height="30"><path d="M5.288 23.75a1.682 1.682 0 0 1-1.654-1.973l.22-1.248h-.877a.478.478 0 1 1 0-.956h1.447a.478.478 0 0 1 .471.561l-.318 1.809a.724.724 0 0 0 .838.839l6.489-1a.478.478 0 1 1 .146.945l-6.48 1a1.6 1.6 0 0 1-.282.023"/><path d="M12.342 28.807a.48.48 0 0 1-.45-.316l-2.094-5.807a.478.478 0 1 1 .9-.324l2.094 5.807a.478.478 0 0 1-.45.64m-7.903-9.926H2.356a.478.478 0 0 1-.471-.563c.122-.678.251-1.464.3-1.861-.193-.059-.5-.126-.7-.171-.849-.187-1.361-.3-1.472-.745-.095-.38.171-.681 1.109-1.669a9 9 0 0 0 1.409-1.7 6.6 6.6 0 0 0-.529-2.078c-.66-2.409 1.11-5.494 2.069-6.618a11.27 11.27 0 0 1 8-3.474 11.04 11.04 0 0 1 6.419 2.054.478.478 0 0 1-.553.78 10.1 10.1 0 0 0-5.865-1.88 10.3 10.3 0 0 0-7.3 3.165c-.885 1.04-2.373 3.807-1.866 5.667a7 7 0 0 1 .573 2.495c-.058.522-.668 1.2-1.664 2.247-.209.22-.465.489-.649.7.174.045.376.089.525.122.887.2 1.472.325 1.472.871 0 .243-.137 1.084-.243 1.7h1.513a.478.478 0 1 1 0 .956Z"/><path d="M13.031 17.674a4.89 4.89 0 0 1-4.884-4.884 4.673 4.673 0 0 1 4.884-4.884 5.1 5.1 0 0 1 1.627.278l4.751-4.751a.48.48 0 0 1 .679 0l.165.161a8.53 8.53 0 0 1 2.742 5.069.478.478 0 1 1-.946.143 7.54 7.54 0 0 0-2.3-4.367l-4.638 4.638a.48.48 0 0 1-.543.094 4.05 4.05 0 0 0-1.539-.312 3.76 3.76 0 0 0-3.928 3.928 3.929 3.929 0 0 0 7.223 2.139.478.478 0 1 1 .8.521 4.87 4.87 0 0 1-4.093 2.227"/><path d="M13.032 15.145a2.36 2.36 0 0 1-1.716-.742 2.355 2.355 0 1 1 3.9-2.486.65.65 0 0 0 .61.4h4.169a.478.478 0 1 1 0 .956h-4.169a1.62 1.62 0 0 1-1.5-1 1.4 1.4 0 0 0-1.389-.877 1.414 1.414 0 0 0-1.306 1.306 1.4 1.4 0 0 0 1.972 1.368.478.478 0 0 1 .391.873 2.3 2.3 0 0 1-.962.202m3.471-4.401a.478.478 0 0 1-.337-.817l2.439-2.424a.478.478 0 0 1 .674.678l-2.439 2.424a.48.48 0 0 1-.337.139m7.243 3.309a3.2 3.2 0 0 1 1.591.426l4.149 2.4a3.19 3.19 0 0 1 1.591 2.756v4.791a3.19 3.19 0 0 1-1.591 2.756l-4.149 2.4a3.18 3.18 0 0 1-3.182 0l-4.149-2.4a3.19 3.19 0 0 1-1.591-2.756V19.63a3.19 3.19 0 0 1 1.591-2.756l4.149-2.4a3.2 3.2 0 0 1 1.591-.421m0 14.99a2.23 2.23 0 0 0 1.113-.3l4.149-2.4a2.23 2.23 0 0 0 1.113-1.928V19.63a2.23 2.23 0 0 0-1.113-1.928l-4.149-2.4a2.23 2.23 0 0 0-2.226 0l-4.149 2.4a2.23 2.23 0 0 0-1.113 1.928v4.791a2.23 2.23 0 0 0 1.113 1.928l4.149 2.4a2.23 2.23 0 0 0 1.113.295Z"/><path d="M21.1 24.36a.48.48 0 0 1-.358-.161l-1.647-1.855a.48.48 0 0 1 .027-.663l1.943-1.855a.478.478 0 0 1 .66.692l-1.61 1.537 1.341 1.511a.478.478 0 0 1-.357.8Zm4.995 0a.478.478 0 0 1-.33-.824l1.581-1.51-1.581-1.51a.478.478 0 1 1 .66-.692l1.939 1.857a.48.48 0 0 1 0 .692l-1.943 1.855a.48.48 0 0 1-.326.132m-3.367.001a.478.478 0 0 1-.436-.674l1.662-3.711a.478.478 0 0 1 .873.391l-1.662 3.711a.48.48 0 0 1-.437.283M25.33 9.216h-2.808a.478.478 0 1 1 0-.956h2.558l.913-1.312a.478.478 0 1 1 .785.546l-1.055 1.517a.48.48 0 0 1-.393.205m2.978 2.174H22.69a.478.478 0 1 1 0-.956h5.618a.478.478 0 1 1 0 .956"/><path d="M29.362 9.38a1.534 1.534 0 0 1 1.533 1.532 1.534 1.534 0 0 1-1.533 1.533 1.534 1.534 0 0 1-1.532-1.533 1.534 1.534 0 0 1 1.532-1.532m0 2.108a.577.577 0 0 0 .576-.576.577.577 0 0 0-.576-.576.577.577 0 0 0-.576.576.577.577 0 0 0 .576.576m-2.411-6.716a1.534 1.534 0 0 1 1.533 1.532 1.534 1.534 0 0 1-1.533 1.533 1.534 1.534 0 0 1-1.532-1.533 1.534 1.534 0 0 1 1.532-1.532m0 2.108a.577.577 0 0 0 .576-.576.577.577 0 0 0-.576-.576.577.577 0 0 0-.576.576.577.577 0 0 0 .576.576m-10.04-.111a.48.48 0 0 1-.388-.2 5.63 5.63 0 0 0-4.547-2.323.478.478 0 0 1 0-.956 6.59 6.59 0 0 1 5.321 2.718.478.478 0 0 1-.387.759Z"/></svg>