<svg xmlns="http://www.w3.org/2000/svg" width="25.998" height="25.998"><path d="M16.938 0H1.97A1.97 1.97 0 0 0 0 1.97v18.907a1.97 1.97 0 0 0 1.97 1.97h5.515a.394.394 0 0 0 0-.788H1.97a1.183 1.183 0 0 1-1.182-1.182V1.97A1.183 1.183 0 0 1 1.97.788h14.968A1.183 1.183 0 0 1 18.12 1.97v6.7a.394.394 0 0 0 .788 0v-6.7A1.97 1.97 0 0 0 16.938 0"/><path d="M13.787 9.454H9.848a1.183 1.183 0 0 0-1.182 1.182v3.9a1.182 1.182 0 0 0 2.363 0v-2.719h2.757a1.182 1.182 0 1 0 0-2.363Zm0 1.576h-3.151a.394.394 0 0 0-.394.394v3.112a.394.394 0 0 1-.788 0v-3.9a.394.394 0 0 1 .394-.394h3.939a.394.394 0 1 1 0 .788m0 12.605h-2.758v-2.718a1.182 1.182 0 0 0-2.363 0v3.9a1.183 1.183 0 0 0 1.182 1.182h3.939a1.182 1.182 0 1 0 0-2.363Zm0 1.576H9.848a.394.394 0 0 1-.394-.394v-3.9a.394.394 0 0 1 .788 0v3.112a.394.394 0 0 0 .394.394h3.151a.394.394 0 1 1 0 .788M24.816 9.454h-3.86a1.182 1.182 0 1 0 0 2.363h2.678v2.718a1.182 1.182 0 1 0 2.363 0v-3.9a1.183 1.183 0 0 0-1.181-1.181m.394 5.081a.394.394 0 1 1-.788 0v-3.111a.394.394 0 0 0-.394-.394h-3.072a.394.394 0 1 1 0-.788h3.86a.394.394 0 0 1 .394.394Zm-.394 5.2a1.183 1.183 0 0 0-1.182 1.182v2.718h-2.678a1.182 1.182 0 1 0 0 2.363h3.86a1.183 1.183 0 0 0 1.182-1.182v-3.9a1.183 1.183 0 0 0-1.182-1.181m.394 5.081a.394.394 0 0 1-.394.394h-3.86a.394.394 0 0 1 0-.788h3.072a.394.394 0 0 0 .394-.394v-3.111a.394.394 0 1 1 .788 0Z"/><path d="M20.089 22.847h2.363a.394.394 0 0 0 .394-.394v-9.454a.394.394 0 0 0-.394-.394h-2.363a.394.394 0 0 0-.394.394v9.454a.394.394 0 0 0 .394.394m.394-9.454h1.576v8.666h-1.576Zm-5.909 5.121h-2.363a.394.394 0 0 0-.394.394v3.545a.394.394 0 0 0 .394.394h2.363a.394.394 0 0 0 .394-.394v-3.545a.394.394 0 0 0-.394-.394m-.394 3.545h-1.575v-2.757h1.576Zm4.333-5.909H16.15a.394.394 0 0 0-.394.394v5.906a.394.394 0 0 0 .394.394h2.363a.394.394 0 0 0 .394-.394v-5.906a.394.394 0 0 0-.394-.394m-.394 5.909h-1.575v-5.121h1.576ZM13.787 2.363H5.121a1.182 1.182 0 1 0 0 2.363h8.666a1.182 1.182 0 1 0 0-2.363m0 1.576H5.121a.394.394 0 1 1 0-.788h8.666a.394.394 0 1 1 0 .788M2.757 6.697h7.484a.394.394 0 0 0 0-.788H2.757a.394.394 0 0 0 0 .788m5.121.787H3.545a.394.394 0 0 0 0 .788h4.333a.394.394 0 0 0 0-.788M6.696 9.848a.394.394 0 0 0 0-.788H3.545a.394.394 0 0 0 0 .788Zm.788.788H2.757a.394.394 0 0 0 0 .788h4.727a.394.394 0 1 0 0-.788m.394 5.514a.394.394 0 0 0-.394-.394H3.151a.394.394 0 1 0 0 .788h4.333a.394.394 0 0 0 .394-.394m-1.97 1.182h-1.97a.394.394 0 1 0 0 .788h1.97a.394.394 0 1 0 0-.788m0 1.576h-1.97a.394.394 0 0 0 0 .788h1.97a.394.394 0 0 0 0-.788"/></svg>