<svg xmlns="http://www.w3.org/2000/svg" width="60" height="60" fill="none"><path fill="#282928" d="M45.994 21.767a.84.84 0 0 0-.521-.876l-6.07-2.445a20.9 20.9 0 0 1-6.267-3.899l-2.57-2.329a.843.843 0 0 0-1.132 0l-2.57 2.33a20.9 20.9 0 0 1-6.267 3.898l-6.07 2.445a.84.84 0 0 0-.521.876l.569 4.898c1.045 8.994 6.398 17.024 14.685 22.03l.303.184a.85.85 0 0 0 .874 0l.302-.184c8.288-5.007 13.641-13.036 14.686-22.03zm-2.241 4.704c-.98 8.426-5.989 15.964-13.753 20.705-7.764-4.74-12.773-12.279-13.753-20.705l-.495-4.26 5.475-2.206a22.6 22.6 0 0 0 6.768-4.212L30 13.976l2.005 1.817a22.6 22.6 0 0 0 6.768 4.212l5.475 2.205z"/><path fill="#282928" d="M29.909 56c4.213 0 8.363-1.033 12.091-3.01l-.782-1.488a24.1 24.1 0 0 1-15.391 2.467 24.2 24.2 0 0 1-13.703-7.477A24.542 24.542 0 0 1 9.402 16.9L7.989 16A26.2 26.2 0 0 0 4.01 29.152a26.24 26.24 0 0 0 3.214 13.361 26 26 0 0 0 9.513 9.862A25.8 25.8 0 0 0 29.908 56m.184-50.317a24.12 24.12 0 0 1 12.322 3.39 24.33 24.33 0 0 1 8.9 9.226 24.54 24.54 0 0 1 3.006 12.5A24.5 24.5 0 0 1 50.6 43.1l1.413.899a26.235 26.235 0 0 0-2.912-31.633 25.87 25.87 0 0 0-14.647-7.993A25.76 25.76 0 0 0 18 7.009l.782 1.489a24.15 24.15 0 0 1 11.31-2.815"/><path fill="#282928" d="M35.6 22H24.4a2.403 2.403 0 0 0-2.4 2.4V26c.002.592.224 1.163.624 1.6A2.38 2.38 0 0 0 22 29.2v1.6c.002.592.224 1.163.624 1.6A2.38 2.38 0 0 0 22 34v1.6a2.403 2.403 0 0 0 2.4 2.4h11.2a2.403 2.403 0 0 0 2.4-2.4V34a2.38 2.38 0 0 0-.624-1.6c.4-.437.622-1.008.624-1.6v-1.6a2.38 2.38 0 0 0-.624-1.6c.4-.437.622-1.008.624-1.6v-1.6a2.403 2.403 0 0 0-2.4-2.4m.8 13.6a.8.8 0 0 1-.8.8H24.4a.8.8 0 0 1-.8-.8V34a.8.8 0 0 1 .8-.8h11.2a.8.8 0 0 1 .8.8zm0-4.8a.8.8 0 0 1-.8.8H24.4a.8.8 0 0 1-.8-.8v-1.6a.8.8 0 0 1 .8-.8h11.2a.8.8 0 0 1 .8.8zm0-4.8a.8.8 0 0 1-.8.8H24.4a.8.8 0 0 1-.8-.8v-1.6a.8.8 0 0 1 .8-.8h11.2a.8.8 0 0 1 .8.8z"/><path fill="#282928" d="M24 24h2v2h-2zm5 0h7v2h-7zm-5 5h2v2h-2zm5 0h7v2h-7zm-5 5h2v2h-2zm5 0h7v2h-7zm14.875 18h5.25a.877.877 0 0 0 .875-.875v-5.25a.877.877 0 0 0-.875-.875h-5.25a.877.877 0 0 0-.875.875v5.25a.877.877 0 0 0 .875.875m.875-5.25h3.5v3.5h-3.5zM10.875 15h5.25a.877.877 0 0 0 .875-.875v-5.25A.876.876 0 0 0 16.125 8h-5.25a.875.875 0 0 0-.875.875v5.25a.876.876 0 0 0 .875.875m.875-5.25h3.5v3.5h-3.5z"/></svg>