<svg xmlns="http://www.w3.org/2000/svg" width="33.266" height="30"><path d="M22.913 20.45H.919a.567.567 0 0 1-.565-.565V.565A.567.567 0 0 1 .919 0h21.994a.567.567 0 0 1 .565.565v19.32a.563.563 0 0 1-.565.565M1.485 19.32h20.859V1.13H1.485Z"/><path d="M.92 15.916a.57.57 0 0 1-.413-.181.56.56 0 0 1 .028-.8l8.4-7.853a.56.56 0 0 1 .78.011l4.73 4.639 3.935-3.754a.57.57 0 0 1 .792.006l4.15 4.133a.566.566 0 1 1-.8.8l-3.76-3.743-3.93 3.749a.565.565 0 0 1-.786-.006L9.314 8.281l-8.01 7.482a.55.55 0 0 1-.384.153"/><path d="M32.7 30H10.706a.567.567 0 0 1-.565-.565V19.89a.566.566 0 1 1 1.131 0v8.98h20.863V10.681h-9.214a.566.566 0 0 1 0-1.131h9.781a.567.567 0 0 1 .565.565v19.32A.563.563 0 0 1 32.7 30M5.306 6.463a1.874 1.874 0 1 1 1.877-1.871 1.874 1.874 0 0 1-1.877 1.871m0-2.618a.744.744 0 1 0 .746.746.74.74 0 0 0-.746-.746m24.924 3.63a.56.56 0 0 1-.548-.435c-1.035-4.461-4.467-4.6-4.5-4.6a.56.56 0 0 1-.548-.582.566.566 0 0 1 .577-.548c.045 0 4.342.17 5.575 5.473a.565.565 0 0 1-.424.678 1 1 0 0 1-.13.011Z"/><path d="M30.23 7.475a.6.6 0 0 1-.254-.062l-2.7-1.368a.564.564 0 0 1 .509-1.006l2.12 1.074.8-2.262a.567.567 0 0 1 1.069.379l-1.012 2.867a.58.58 0 0 1-.322.339.6.6 0 0 1-.21.039M6.619 29.406h-.017c-.045 0-4.342-.17-5.575-5.473a.566.566 0 0 1 1.1-.254c1.032 4.427 4.368 4.588 4.511 4.597a.566.566 0 0 1-.017 1.131Z"/><path d="M.563 27.24a.5.5 0 0 1-.187-.034.567.567 0 0 1-.345-.724l1.012-2.867a.58.58 0 0 1 .322-.339.55.55 0 0 1 .464.023l2.698 1.369a.564.564 0 0 1-.511 1.006l-2.12-1.08-.8 2.262a.57.57 0 0 1-.537.384ZM14.008 30a.567.567 0 0 1-.565-.565v-4.2a.566.566 0 1 1 1.131 0v4.2a.56.56 0 0 1-.566.565"/><path d="M14.008 25.805a1.781 1.781 0 1 1 1.781-1.781 1.78 1.78 0 0 1-1.781 1.781m0-2.431a.65.65 0 1 0 .65.65.643.643 0 0 0-.65-.65m4.704 1.272a.567.567 0 0 1-.565-.565v-4.2a.566.566 0 1 1 1.131 0v4.2a.563.563 0 0 1-.566.565"/><path d="M18.713 27.083a1.781 1.781 0 1 1 1.781-1.781 1.78 1.78 0 0 1-1.781 1.781m0-2.437a.65.65 0 1 0 .65.65.65.65 0 0 0-.65-.645ZM32.7 25.861h-7.893a.566.566 0 0 1 0-1.131H32.7a.566.566 0 0 1 0 1.131"/><path d="M23.592 27.083a1.781 1.781 0 1 1 1.781-1.781 1.78 1.78 0 0 1-1.781 1.781m0-2.437a.65.65 0 1 0 .65.65.65.65 0 0 0-.65-.645Zm5.795-3.635a.567.567 0 0 1-.565-.565V10.115a.566.566 0 1 1 1.131 0v10.33a.567.567 0 0 1-.566.566"/><path d="M29.387 23.441a1.781 1.781 0 1 1 1.781-1.781 1.78 1.78 0 0 1-1.781 1.781m0-2.431a.65.65 0 1 0 .65.65.647.647 0 0 0-.65-.65m-3.065-5.162a.567.567 0 0 1-.565-.565V10.12a.566.566 0 1 1 1.131 0v5.165a.567.567 0 0 1-.566.563"/><path d="M26.317 18.279a1.781 1.781 0 1 1 1.781-1.781 1.78 1.78 0 0 1-1.781 1.781m0-2.431a.65.65 0 1 0 .65.65.65.65 0 0 0-.65-.65"/></svg>