<svg xmlns="http://www.w3.org/2000/svg" width="25.915" height="25"><path d="M8.428 10.626a.392.392 0 1 0 .648-.441 2.22 2.22 0 0 0-3.094-.628.4.4 0 0 0 .437.652 1.446 1.446 0 0 1 2.008.417Zm-1.693 5.741a1.446 1.446 0 0 1-1.118-1.717.4.4 0 0 0-.765-.126 2.22 2.22 0 0 0 1.741 2.634h.077a.4.4 0 0 0 .073-.777Zm2.161-1.681a.4.4 0 1 0-.773.117 2.22 2.22 0 0 0 2.187 1.931 2 2 0 0 0 .324-.02.393.393 0 1 0-.113-.777 1.45 1.45 0 0 1-1.624-1.251Z"/><path d="M24.425 15.306a1.48 1.48 0 0 0-1.421 1.085h-1.356l-2.057-2.361a.4.4 0 0 0-.3-.134h-5.475v-2.781h5.479a.4.4 0 0 0 .3-.134l2.057-2.361h1.356a1.482 1.482 0 1 0 0-.786h-1.537a.4.4 0 0 0-.3.134l-2.057 2.361h-5.3V8.856h5.137a.38.38 0 0 0 .3-.138l1.433-1.684a.38.38 0 0 0 .093-.255V5.211a1.47 1.47 0 1 0-.786 0v1.434l-1.22 1.425h-4.955V6.191h1.794a.4.4 0 0 0 .332-.17l.5-.81a1.5 1.5 0 0 0 .4.065 1.482 1.482 0 1 0-1.471-1.494 1.45 1.45 0 0 0 .4 1l-.4.624h-1.555V2.37a.3.3 0 0 0 0-.085A3.41 3.41 0 0 0 10.577 0a3.45 3.45 0 0 0-3.114 2.025 3.413 3.413 0 0 0-4.43 3.255 3.2 3.2 0 0 0 .13.927 3.43 3.43 0 0 0-1.96 4.916 3.114 3.114 0 0 0 .733 5.341 3.422 3.422 0 0 0 2.506 5.228 3.114 3.114 0 0 0 4.529 2.652 3.1 3.1 0 0 0 1.915.656 3.14 3.14 0 0 0 2.911-2 .4.4 0 0 0 0-.093.2.2 0 0 0 0-.049v-3.244h1.574l.4.624a1.45 1.45 0 0 0-.4 1 1.482 1.482 0 1 0 1.482-1.478 1.5 1.5 0 0 0-.4.065l-.51-.846a.4.4 0 0 0-.332-.186h-1.795v-1.839h4.955l1.215 1.425v1.409a1.49 1.49 0 1 0 .786 0v-1.579a.38.38 0 0 0-.093-.255l-1.433-1.676a.38.38 0 0 0-.3-.138h-5.13v-1.458h5.3l2.055 2.361a.4.4 0 0 0 .3.134h1.535a1.478 1.478 0 1 0 1.421-1.871Zm0-7.787a.7.7 0 1 1-.7.7.7.7 0 0 1 .7-.7m-4.737-3.737a.7.7 0 1 1 .692.692.7.7 0 0 1-.692-.692m-2.834-.7a.7.7 0 1 1-.491.2.7.7 0 0 1 .491-.2m-3.827 2.716v1.843a2.2 2.2 0 0 0-2.2.142.393.393 0 0 0 .437.652 1.4 1.4 0 0 1 1.761.154v3.733a2.17 2.17 0 0 0-2.2.146.4.4 0 0 0 .441.652 1.39 1.39 0 0 1 1.757.146v9.5A2.324 2.324 0 0 1 9.65 23.87a2.195 2.195 0 0 0 .5-2.62.4.4 0 1 0-.7.348 1.44 1.44 0 0 1-.679 1.928.5.5 0 0 0-.085.069 2.32 2.32 0 0 1-3.466-1.964c.688-.2 1.988-.7 2.178-1.676a.392.392 0 0 0-.765-.166c-.117.583-1.34 1.016-1.826 1.122a2.632 2.632 0 0 1-1.919-4.393.4.4 0 0 0-.215-.664 2.328 2.328 0 0 1-.749-4.284 1.437 1.437 0 0 1 2 .4.393.393 0 1 0 .648-.445 2.22 2.22 0 0 0-2.733-.81 2.62 2.62 0 0 1 1.62-3.766 1.74 1.74 0 0 0 1.478.838 1.7 1.7 0 0 0 .6-.105.4.4 0 1 0-.266-.734.96.96 0 0 1-1.217-.578.2.2 0 0 0 0-.036 2.628 2.628 0 0 1 3.5-3.434h.081a1.71 1.71 0 0 1 1.28 2.166.4.4 0 0 0 .312.458H9.3a.4.4 0 0 0 .4-.32 2.5 2.5 0 0 0-1.45-2.952A2.65 2.65 0 0 1 10.614.77a2.62 2.62 0 0 1 2.457 1.7Zm3.827 14.727a.7.7 0 1 1-.7.692.7.7 0 0 1 .7-.692m4.219.692a.7.7 0 1 1-.7-.692.7.7 0 0 1 .7.692m3.348-3.737a.7.7 0 1 1 .692-.7.7.7 0 0 1-.692.7"/></svg>