<svg xmlns="http://www.w3.org/2000/svg" width="100" height="60" fill="none"><path fill="#282928" d="M63.061 10.065c-4.92 0-8.765 3.705-12.247 8.412-4.784-6.091-8.785-8.412-13.573-8.412C27.479 10.065 20 22.768 20 36.215c0 8.414 4.07 13.721 10.89 13.721 4.907 0 8.436-2.313 14.71-13.281l4.415-7.8q.944 1.524 1.992 3.29l2.943 4.95c5.73 9.59 8.924 12.841 14.71 12.841 6.643 0 10.34-5.38 10.34-13.969 0-14.079-7.648-25.902-16.939-25.902m-22.245 23.62c-5.087 7.974-6.847 9.762-9.68 9.762-2.914 0-4.646-2.56-4.646-7.122 0-9.762 4.867-19.744 10.669-19.744 3.142 0 5.767 1.815 9.789 7.573-3.819 5.857-6.132 9.531-6.132 9.531m19.2-1.004-3.519-5.867a120 120 0 0 0-2.744-4.275c3.17-4.894 5.785-7.333 8.896-7.333 6.462 0 11.632 9.515 11.632 21.201 0 4.455-1.46 7.04-4.483 7.04-2.897 0-4.281-1.914-9.783-10.766"/></svg>