<svg xmlns="http://www.w3.org/2000/svg" width="100" height="60" fill="none"><g clip-path="url(#a)"><path fill="#000" d="M42.66 20.174h2.095l.865 3.05.296 1.19h.055l.292-1.19.869-3.05h2.095v8.606h-1.69v-2.664l.002-.14c.014-1.018.177-2.97.266-3.858h-.04l-.678 2.31-.686 2.073h-.97l-.698-2.073-.632-2.31h-.046l.021.206c.102 1.005.246 2.889.246 3.792v2.664H42.66zm8.349 6.973h2.061v-5.34h-2.061v-1.633h6.119v1.633h-2.06v5.34h2.06v1.633h-6.119zm7.805.549 1.146-1.338c.667.533 1.49.898 2.346.898.848 0 1.24-.32 1.24-.74 0-.62-.526-.77-1.36-1.111l-1.15-.479c-.978-.362-1.87-1.093-1.87-2.346 0-1.425 1.316-2.564 3.234-2.564 1.061 0 2.134.388 2.93 1.126l-1.006 1.228c-.621-.435-1.171-.672-2.034-.672-.657 0-1.104.266-1.104.768 0 .518.592.708 1.438 1.017l1.08.446c1.155.423 1.885 1.126 1.885 2.34 0 1.43-1.23 2.67-3.415 2.67a5.161 5.161 0 0 1-3.36-1.243m10.507-5.889h-2.646v-1.633h7.289v1.633h-2.646v6.973h-1.997zm8.002-.087h.974c1.05 0 1.612.286 1.612 1.135 0 .843-.563 1.283-1.612 1.283h-.974zm4.968 7.06-1.996-3.443c.942-.415 1.573-1.217 1.573-2.482 0-2.027-1.508-2.668-3.352-2.68h-3.194v8.605h2.001v-3.096h1.049l1.685 3.096zm3.315-3.564.21-.793.684-2.775h.054c.152.648.332 1.348.504 2.008l.408 1.56zm2.792 3.564h2.118l-2.749-8.606h-2.394l-2.749 8.606h2.044l.539-2.047h2.656zm3.678-8.606h1.993v6.973h3.929v1.633h-5.922zM44.981 39.022l.209-.792.685-2.776h.054c.151.649.332 1.348.504 2.008l.408 1.56zm2.791 3.568h2.119l-2.75-8.61h-2.395l-2.75 8.61h2.045l.539-2.048h2.657zm3.238-1.637h2.061v-5.34h-2.06V33.98h6.118v1.634h-2.06v5.34h2.06v1.633H51.01zm7.895 2.49h6.538v1.483h-6.538zM30.813 15H25.05v5.622h5.762z"/><path fill="#CFCFCF" d="M33.688 15h-5.762v5.622h5.762z"/><path fill="#000" d="M7.762 15H2v5.622h5.762z"/><path fill="#000" d="M7.762 20.621H2v5.622h5.762z"/><path fill="#000" d="M7.762 26.242H2v5.622h5.762zm0 5.623H2v5.622h5.762z"/><path fill="#000" d="M7.762 37.486H2v5.622h5.762z"/><path fill="#CFCFCF" d="M10.645 15H4.883v5.622h5.762z"/><path fill="#AFAFAF" d="M33.688 20.621h-5.762v5.622h5.762zm-23.043 0H4.883v5.622h5.762z"/><path fill="#000" d="M25.051 20.621H19.29v5.622h5.762z"/><path fill="#AFAFAF" d="M27.926 20.621h-5.762v5.622h5.762zm-11.519 0h-5.762v5.622h5.762z"/><path fill="#8C8C8C" d="M22.168 26.242h-5.762v5.622h5.762z"/><path fill="#8C8C8C" d="M27.926 26.244h-5.762v5.622h5.762zm-11.519 0h-5.762v5.622h5.762z"/><path fill="#000" d="M19.286 31.865h-5.763v5.622h5.763z"/><path fill="#747474" d="M22.168 31.865h-5.762v5.622h5.762z"/><path fill="#8C8C8C" d="M33.688 26.244h-5.762v5.622h5.762zm-23.043 0H4.883v5.622h5.762z"/><path fill="#000" d="M30.813 31.865H25.05v5.622h5.762z"/><path fill="#747474" d="M33.688 31.865h-5.762v5.622h5.762z"/><path fill="#000" d="M30.813 37.486H25.05v5.622h5.762z"/><path fill="#747474" d="M10.645 31.865H4.883v5.622h5.762z"/><path fill="#595959" d="M33.688 37.486h-5.762v5.622h5.762zm-23.043 0H4.883v5.622h5.762z"/></g><defs><clipPath id="a"><path fill="#fff" d="M2 15h96v30H2z"/></clipPath></defs></svg>