<svg xmlns="http://www.w3.org/2000/svg" width="31.421" height="31.42"><path d="M29.326 11.521h-8.379V2.095A2.1 2.1 0 0 0 18.853 0H2.095A2.1 2.1 0 0 0 0 2.095v12.044a2.1 2.1 0 0 0 2.095 2.095h1.047v2.32a1.34 1.34 0 0 0 .743 1.215 1.25 1.25 0 0 0 1.327-.137l4.394-3.4h.868v9.426a2.1 2.1 0 0 0 2.095 2.095h9.247l4.394 3.4a1.25 1.25 0 0 0 1.326.137 1.34 1.34 0 0 0 .743-1.215v-2.32h1.047a2.1 2.1 0 0 0 2.095-2.095V13.616a2.1 2.1 0 0 0-2.095-2.095m-19.9 3.666a.52.52 0 0 0-.321.11l-4.534 3.508a.2.2 0 0 1-.225.025.29.29 0 0 1-.157-.275v-2.844a.524.524 0 0 0-.524-.524h-1.57a1.047 1.047 0 0 1-1.047-1.047V2.095a1.047 1.047 0 0 1 1.047-1.048h16.758A1.047 1.047 0 0 1 19.9 2.095v12.044a1.047 1.047 0 0 1-1.047 1.047Zm4.713 1.047h1.047v1.047a.524.524 0 0 1-1.047 0Zm16.234 9.426a1.047 1.047 0 0 1-1.047 1.047h-1.571a.524.524 0 0 0-.524.524v2.844a.29.29 0 0 1-.157.275.2.2 0 0 1-.224-.025l-4.535-3.509a.52.52 0 0 0-.32-.109h-9.427a1.047 1.047 0 0 1-1.047-1.047v-9.426h1.571v1.047a1.571 1.571 0 0 0 3.142 0v-1.047h2.095v2.095a.524.524 0 0 0 1.047 0V16.16a2.1 2.1 0 0 0 1.571-2.02v-1.572h8.379a1.047 1.047 0 0 1 1.047 1.047Z"/><path d="M8.379 5.761a.524.524 0 0 0-.524.524v3.142a.524.524 0 1 0 1.047 0V6.285a.524.524 0 0 0-.523-.524m-2.094-.524a.524.524 0 0 0-.524.524V9.95a.524.524 0 1 0 1.047 0V5.761a.524.524 0 0 0-.523-.524m10.996 3.142V7.332a.524.524 0 0 0-1.047 0v1.047a.524.524 0 1 0 1.047 0M3.666 7.332v1.047a.524.524 0 1 0 1.047 0V7.332a.524.524 0 0 0-1.047 0m8.903-1.571a.524.524 0 0 0-.524.524v3.142a.524.524 0 1 0 1.047 0V6.285a.524.524 0 0 0-.523-.524m2.617 4.189V5.761a.524.524 0 0 0-1.047 0V9.95a.524.524 0 1 0 1.047 0m-4.712-6.284a.524.524 0 0 0-.524.524v7.332a.524.524 0 0 0 1.047 0V4.19a.524.524 0 0 0-.523-.524M3.666 5.76a.524.524 0 0 0 .524-.524V4.189a.524.524 0 0 1 .524-.524H5.76a.524.524 0 0 0 0-1.047H4.713a1.57 1.57 0 0 0-1.571 1.571v1.047a.524.524 0 0 0 .524.524m12.568-3.142h-1.047a.524.524 0 1 0 0 1.047h1.047a.524.524 0 0 1 .524.524v1.047a.524.524 0 0 0 1.047 0V4.189a1.57 1.57 0 0 0-1.571-1.571M5.76 12.045H4.713a.524.524 0 0 1-.524-.524v-1.047a.524.524 0 0 0-1.047 0v1.047a1.57 1.57 0 0 0 1.571 1.571H5.76a.524.524 0 0 0 0-1.047M17.281 9.95a.524.524 0 0 0-.524.524v1.047a.524.524 0 0 1-.524.524h-1.046a.524.524 0 0 0 0 1.047h1.047a1.57 1.57 0 0 0 1.571-1.571v-1.047a.524.524 0 0 0-.524-.524m9.951 3.666a1.57 1.57 0 0 0-1.571 1.571v2.095a1.571 1.571 0 1 0 3.142 0v-2.095a1.57 1.57 0 0 0-1.571-1.571m.524 3.666a.524.524 0 1 1-1.047 0v-2.095a.524.524 0 1 1 1.047 0Zm-4.714-3.666a1.57 1.57 0 0 0-1.571 1.571v2.095a1.571 1.571 0 1 0 3.142 0v-2.095a1.57 1.57 0 0 0-1.571-1.571m.524 3.666a.524.524 0 1 1-1.047 0v-2.095a.524.524 0 1 1 1.047 0ZM18.853 19.9a1.57 1.57 0 0 0-1.571 1.571v2.095a1.571 1.571 0 1 0 3.142 0v-2.095a1.57 1.57 0 0 0-1.571-1.571m.524 3.666a.524.524 0 0 1-1.047 0v-2.095a.524.524 0 0 1 1.047 0ZM14.663 19.9a1.57 1.57 0 0 0-1.571 1.571v2.095a1.571 1.571 0 1 0 3.142 0v-2.095a1.57 1.57 0 0 0-1.571-1.571m.524 3.666a.524.524 0 1 1-1.047 0v-2.095a.524.524 0 0 1 1.047 0Zm7.855-3.666a.524.524 0 0 0-.524.524v4.189a.524.524 0 1 0 1.047 0v-4.189a.524.524 0 0 0-.523-.524m4.19 0a.524.524 0 0 0-.524.524v4.189a.524.524 0 0 0 1.047 0v-4.189a.524.524 0 0 0-.523-.524"/></svg>