<svg xmlns="http://www.w3.org/2000/svg" width="100" height="60" fill="none"><path fill="#282928" d="M49.997 59.941c2.593 0 4.693-2.1 4.693-4.692V14.58h-9.385V55.25c0 2.592 2.1 4.692 4.692 4.692"/><path fill="#959595" d="M68.696 29.419c-5.06-5.056-12.62-6.08-18.696-3.078L70.088 46.43c.829.83 2.256.5 2.608-.614 1.768-5.596.434-11.958-4-16.396"/><path fill="#767676" d="M31.303 29.419c5.06-5.056 12.619-6.08 18.696-3.078L29.91 46.43c-.83.83-2.257.5-2.609-.614-1.767-5.596-.434-11.958 4-16.396"/><path fill="#868686" d="M67.206 13.828c-7.993 0-14.778 5.24-17.206 12.514h31.769c1.302 0 2.17-1.377 1.58-2.538-3.02-5.925-9.112-9.976-16.143-9.976"/><path fill="#B5B5B5" d="M53.317 5.327c-5.655 5.655-6.746 14.152-3.32 21.015L72.462 3.876c.923-.922.563-2.51-.676-2.913-6.327-2.053-13.5-.606-18.47 4.364"/><path fill="#969696" d="M46.68 5.327c5.654 5.655 6.745 14.152 3.32 21.015L27.534 3.876c-.923-.922-.563-2.51.677-2.913C34.538-1.09 41.71.357 46.68 5.327"/><path fill="#7D7D7D" d="M32.792 13.828c7.993 0 14.778 5.24 17.206 12.514H18.23c-1.303 0-2.17-1.377-1.58-2.538 3.019-5.925 9.111-9.976 16.142-9.976"/></svg>