<svg xmlns="http://www.w3.org/2000/svg" width="100" height="60" fill="none"><g clip-path="url(#a)"><path fill="#282928" d="M97.52 18.345v-1.614h-2.076v-2.509l-.07.02-1.95.577-.038.011v1.901h-3.078v-1.059c0-.493.115-.87.34-1.122.223-.249.543-.375.95-.375q.442 0 .903.198l.076.033v-1.7l-.036-.012c-.285-.1-.672-.15-1.153-.15a3.48 3.48 0 0 0-1.635.38 2.75 2.75 0 0 0-1.122 1.071 3.1 3.1 0 0 0-.397 1.572v1.164h-1.446v1.614h1.446v6.799h2.075v-6.799h3.077v4.32c0 1.78.869 2.682 2.584 2.682.281 0 .578-.032.88-.095.309-.063.519-.127.642-.196l.027-.015v-1.63l-.084.055a1.5 1.5 0 0 1-.417.175 1.6 1.6 0 0 1-.41.068c-.402 0-.699-.105-.883-.311-.187-.208-.281-.572-.281-1.081v-3.972zm-15.365 5.364c-.753 0-1.347-.241-1.766-.716-.42-.478-.634-1.158-.634-2.023 0-.892.213-1.59.635-2.076.418-.482 1.006-.727 1.748-.727.72 0 1.292.234 1.702.695.412.464.622 1.157.622 2.06 0 .913-.197 1.615-.585 2.084-.385.466-.965.703-1.722.703m.092-7.18c-1.437 0-2.578.406-3.392 1.208-.813.801-1.225 1.911-1.225 3.298 0 1.317.402 2.377 1.196 3.148.794.773 1.874 1.164 3.21 1.164 1.394 0 2.512-.413 3.325-1.225s1.226-1.911 1.226-3.266c0-1.338-.387-2.405-1.15-3.172s-1.837-1.156-3.19-1.156m-7.963 0c-.977 0-1.785.24-2.403.717-.621.479-.936 1.106-.936 1.866 0 .395.068.746.201 1.044q.204.448.62.782c.275.218.7.448 1.262.68.472.189.825.347 1.048.473q.33.184.462.366.129.177.129.476c0 .566-.439.84-1.34.84-.335 0-.717-.067-1.135-.2a4.3 4.3 0 0 1-1.161-.568l-.087-.06v1.929l.032.014c.293.13.664.241 1.1.328a6.09 6.09 0 0 0 1.175.131c1.06 0 1.914-.242 2.537-.721.628-.482.946-1.125.946-1.911 0-.567-.172-1.053-.509-1.446-.335-.389-.916-.746-1.727-1.061-.646-.25-1.06-.459-1.23-.618q-.248-.232-.249-.648c0-.245.103-.44.315-.6q.322-.24.883-.24c.346 0 .7.052 1.051.156q.53.156.918.41l.085.057v-1.83l-.032-.013a4.7 4.7 0 0 0-.933-.251 6 6 0 0 0-1.022-.103m-8.749 7.18c-.752 0-1.346-.241-1.765-.716-.42-.478-.634-1.158-.634-2.023 0-.892.213-1.59.635-2.076.418-.482 1.006-.727 1.748-.727.719 0 1.292.234 1.702.695.412.464.621 1.157.621 2.06 0 .913-.196 1.615-.584 2.084-.386.466-.965.703-1.723.703m.093-7.18c-1.437 0-2.579.406-3.392 1.208s-1.225 1.911-1.225 3.298c0 1.317.402 2.377 1.196 3.148.794.773 1.874 1.164 3.21 1.164 1.393 0 2.512-.413 3.325-1.225s1.226-1.911 1.226-3.266c0-1.338-.387-2.405-1.15-3.172s-1.837-1.156-3.19-1.156m-7.767 1.659v-1.457h-2.05v8.413h2.05V20.84c0-.731.172-1.332.51-1.787.336-.448.782-.676 1.326-.676q.278 0 .617.088.334.087.478.186l.086.06v-1.994l-.034-.014c-.19-.078-.46-.118-.802-.118-.515 0-.976.16-1.37.474-.347.277-.598.656-.79 1.129zm-5.72-1.66c-.94 0-1.78.195-2.492.579a3.96 3.96 0 0 0-1.644 1.632c-.375.697-.565 1.51-.565 2.418 0 .794.184 1.524.549 2.167a3.8 3.8 0 0 0 1.533 1.497c.653.349 1.407.526 2.241.526.974 0 1.806-.188 2.473-.559l.027-.015v-1.81l-.087.06c-.302.213-.64.383-1.002.505a3.1 3.1 0 0 1-.983.184c-.804 0-1.45-.243-1.918-.722-.47-.48-.708-1.153-.708-2 0-.854.249-1.544.738-2.054.488-.509 1.135-.766 1.922-.766.674 0 1.33.22 1.952.655l.086.06v-1.91l-.028-.015q-.353-.19-.949-.31a6 6 0 0 0-1.145-.119m-6.113.203h-2.05v8.413h2.05zm-1.003-3.584q-.509 0-.874.33a1.076 1.076 0 0 0-.366.826c0 .322.122.595.363.81.238.213.533.321.877.321q.517 0 .88-.321a1.04 1.04 0 0 0 .367-.81q-.001-.475-.356-.816a1.25 1.25 0 0 0-.891-.34M39.91 16.11v9.034h2.091v-11.74h-2.895l-3.68 8.72-3.57-8.72h-3.013v11.74h1.965V16.11h.068l3.77 9.034h1.484l3.712-9.033z"/><path fill="#717272" d="M12.119 18.796H2.476v-9.31h9.641z"/><path fill="#4C5262" d="M22.763 18.796H13.12v-9.31h9.642z"/><path fill="#282928" d="M12.118 29.075H2.477v-9.31h9.641z"/><path fill="#717272" d="M22.763 29.075H13.12v-9.31h9.642z"/></g><path fill="#282928" d="M66.234 50.353 71.5 43.33q.457-.602.706-1.246.26-.654.26-1.215v-.02q0-.904-.53-1.403-.53-.498-1.506-.498-.924 0-1.496.55-.57.54-.696 1.537v.01h-2.191v-.01q.186-1.298.758-2.212a3.87 3.87 0 0 1 1.496-1.402q.914-.489 2.108-.488 1.35 0 2.306.467a3.2 3.2 0 0 1 1.454 1.34q.498.882.499 2.129v.01q0 .799-.333 1.673a7.2 7.2 0 0 1-.924 1.682l-4.373 5.941h5.713v2.015h-8.517zm-3.102-4.581v2.014h-6.98v-2.014zm-12.53-8.682h2.118v2.119h-2.118zm0 4.32h2.118v10.781h-2.118zm-12.098-4.32h2.119v15.1h-2.12zm6.543 8.568q0-1.142-.592-1.765t-1.662-.623q-1.038 0-1.61.54-.56.54-.56 1.526l-.218-2.077q.498-.955 1.298-1.475a3.2 3.2 0 0 1 1.786-.53q1.755 0 2.711 1.154.966 1.142.966 3.24v6.543h-2.119zm-18.71-1.339h4.83a2.24 2.24 0 0 0 1.204-.322q.52-.323.8-.914.29-.593.29-1.36 0-.78-.29-1.372a2.1 2.1 0 0 0-.8-.914 2.2 2.2 0 0 0-1.205-.332h-4.83V37.09h4.758q1.35 0 2.378.581 1.027.571 1.59 1.62.57 1.05.57 2.431t-.57 2.43a3.95 3.95 0 0 1-1.59 1.61q-1.028.572-2.379.572h-4.756zm-1.09-7.23h2.118v15.102h-2.119z"/><defs><clipPath id="a"><path fill="#fff" d="M2.477 7.809h95.046V30.75H2.477z"/></clipPath></defs></svg>