<svg xmlns="http://www.w3.org/2000/svg" width="26.968" height="25.426"><path fill-rule="evenodd" d="M4.217 16.607a2.517 2.517 0 1 1-.859-.512l.582-.978a9 9 0 1 1 14.994-9.369l1.533-1.7a2.522 2.522 0 1 1 .75.661l-1.936 2.147a9.03 9.03 0 0 1-.859 6.489l7.814 7.813a2.5 2.5 0 0 1-3.536 3.536l-7.813-7.813a9.01 9.01 0 0 1-10.208-1.052zM18.171 6.594a8 8 0 1 0-13.7 7.622l2.214-3.724a2.523 2.523 0 1 1 4.1-1.969 3 3 0 0 1-.014.265l1.82 1.059a2.52 2.52 0 0 1 3.156-.574Zm-.3 7.619a9.1 9.1 0 0 1-2.121 2.122l1.352 1.351 2.121-2.121ZM5.2 14.955a8 8 0 0 0 13.247-7.173l-1.933 2.142a2.523 2.523 0 1 1-4.4.8l-1.65-.96a2.526 2.526 0 0 1-2.886 1.189l-2.38 4Zm12.615 3.438 5.593 5.594a1.5 1.5 0 1 0 2.121-2.121l-5.593-5.594ZM1 18.477a1.524 1.524 0 1 0 1.523-1.524A1.524 1.524 0 0 0 1 18.477M20.953 2.523A1.524 1.524 0 1 0 22.477 1a1.525 1.525 0 0 0-1.524 1.523M10.225 3a.5.5 0 0 1-.053-1 7 7 0 0 1 5.321 2.041.5.5 0 0 1-.708.707A5.99 5.99 0 0 0 10.225 3M6.744 8.523A1.524 1.524 0 1 0 8.267 7a1.524 1.524 0 0 0-1.523 1.523M13 11.477a1.524 1.524 0 1 0 1.523-1.524A1.524 1.524 0 0 0 13 11.477"/></svg>