<svg xmlns="http://www.w3.org/2000/svg" width="31.219" height="30"><path d="M13.225 23.744h-.433l-.054-.13.306-.306a.753.753 0 0 0 0-1.064l-.96-.96a.75.75 0 0 0-1.064 0l-.306.306-.13-.054v-.433a.753.753 0 0 0-.752-.752H8.474a.753.753 0 0 0-.752.752v.433l-.13.054-.306-.306a.75.75 0 0 0-.532-.22.75.75 0 0 0-.532.22l-.96.96a.753.753 0 0 0 0 1.064l.306.306-.054.13h-.433a.753.753 0 0 0-.752.752v1.357a.753.753 0 0 0 .752.752h.433l.054.13-.306.306a.75.75 0 0 0 0 1.064l.96.96a.753.753 0 0 0 1.064 0l.306-.306.13.054v.433a.753.753 0 0 0 .752.752h1.357a.753.753 0 0 0 .752-.752v-.433l.13-.054.306.306a.753.753 0 0 0 1.064 0l.96-.96a.75.75 0 0 0 0-1.064l-.306-.306q.028-.064.054-.13h.433a.753.753 0 0 0 .752-.752v-1.357a.753.753 0 0 0-.751-.752m-.162 1.948h-.384a.755.755 0 0 0-.708.5 3 3 0 0 1-.107.258.76.76 0 0 0 .148.853l.271.271-.73.73-.271-.271a.76.76 0 0 0-.853-.148 3 3 0 0 1-.259.107.755.755 0 0 0-.5.708v.384H8.636v-.381a.755.755 0 0 0-.5-.708 3 3 0 0 1-.259-.107.76.76 0 0 0-.854.148l-.271.271-.73-.73.271-.271a.76.76 0 0 0 .148-.853 3 3 0 0 1-.107-.258.76.76 0 0 0-.708-.5h-.384v-1.033h.384a.755.755 0 0 0 .708-.5q.047-.132.107-.258a.76.76 0 0 0-.148-.854l-.271-.271.73-.73.271.271a.76.76 0 0 0 .854.148q.126-.059.258-.107a.755.755 0 0 0 .5-.708v-.384h1.033v.384a.755.755 0 0 0 .5.708q.133.047.258.107a.755.755 0 0 0 .853-.148l.271-.271.73.73-.271.271a.76.76 0 0 0-.148.854q.059.125.107.258a.755.755 0 0 0 .708.5h.384v1.033Z"/><path d="M10.153 23.511a.75.75 0 0 0-.532-.22h-.938a.75.75 0 0 0-.532.22l-.663.663a.75.75 0 0 0-.22.532v.938a.75.75 0 0 0 .22.532l.663.663a.75.75 0 0 0 .532.22h.938a.75.75 0 0 0 .532-.22l.663-.663a.75.75 0 0 0 .22-.532v-.938a.75.75 0 0 0-.22-.532Zm-.031 2.066-.568.568h-.8l-.568-.568v-.8l.568-.568h.8l.568.568Zm5.423-.859h-.61a.458.458 0 0 0 0 .915h.61a.458.458 0 0 0 0-.915m2.134 0h-.61a.458.458 0 0 0 0 .915h.61a.458.458 0 0 0 0-.915m4.268 0h-.61a.458.458 0 0 0 0 .915h.61a.458.458 0 0 0 0-.915m-2.134 0h-.61a.458.458 0 0 0 0 .915h.61a.458.458 0 1 0 0-.915m-16.313 0H1.4a.487.487 0 0 1-.487-.487v-15.5a.487.487 0 0 1 .487-.487h4.075l-.744.744a.457.457 0 0 0 .647.647L6.9 8.11a.457.457 0 0 0 0-.647L5.376 5.939a.457.457 0 1 0-.647.647l.744.744H1.4A1.4 1.4 0 0 0 0 8.73v15.5a1.4 1.4 0 0 0 1.4 1.4h2.1a.458.458 0 0 0 0-.915ZM23.956 8.244h2.224a.487.487 0 0 1 .487.487v3.278a1.83 1.83 0 0 0 0 3.543v3.373l-.744-.744a.457.457 0 1 0-.647.647l1.524 1.524a.457.457 0 0 0 .647 0l1.524-1.524a.457.457 0 0 0-.647-.647l-.744.744v-3.377a1.83 1.83 0 0 0 0-3.543V8.727a1.4 1.4 0 0 0-1.4-1.4h-2.224a.458.458 0 0 0 0 .915Zm4.083 5.536a.915.915 0 1 1-.915-.915.916.916 0 0 1 .915.915m-.914 7.3a4.07 4.07 0 0 0-3.916 2.894.458.458 0 0 0 .875.268 3.18 3.18 0 1 1 0 1.866.458.458 0 0 0-.875.268 4.1 4.1 0 1 0 3.916-5.3Z"/><path d="M26.751 26.858a.46.46 0 0 0 .323-.134l2.174-2.174a.457.457 0 1 0-.647-.647l-1.851 1.851-1.077-1.08a.457.457 0 1 0-.647.647l1.4 1.4a.46.46 0 0 0 .325.137M4.911 14.742a.457.457 0 0 0-.457.457v1.836h-.428a.458.458 0 0 0 0 .915h6.781a.458.458 0 1 0 0-.915h-.428v-.9a.458.458 0 0 0-.915 0v.9h-.755v-2.772a.458.458 0 0 0-.915 0v2.772h-.755v-1.368a.458.458 0 0 0-.915 0v1.368h-.755v-1.836a.457.457 0 0 0-.458-.457"/><path d="m22.54 4.099-7-4.04a.46.46 0 0 0-.457 0l-7 4.04a.46.46 0 0 0-.229.4v5.838H3.076a.91.91 0 0 0-.911.911v3.144a.458.458 0 1 0 .915 0v-1.125h8.606v5.455h-8.61v-2.2a.458.458 0 1 0-.915 0v2.2a.91.91 0 0 0 .911.911h8.614a.91.91 0 0 0 .911-.911V15.58l2.484 1.434a.46.46 0 0 0 .457 0l1.966-1.135a.457.457 0 1 0-.457-.792l-1.28.739V8.799l6.083-3.512v7.024l-2.955 1.706a.457.457 0 1 0 .457.792l3.184-1.838a.46.46 0 0 0 .229-.4V4.499a.46.46 0 0 0-.229-.4Zm-10.854 8.253H3.078v-1.1h8.61Zm3.17 3.474-2.256-1.3v-3.28a.91.91 0 0 0-.911-.911H8.773V5.29l6.083 3.509v7.024Zm.457-7.817L9.23 4.499 15.313.987l6.084 3.512Z"/></svg>