<svg xmlns="http://www.w3.org/2000/svg" width="60" height="60" fill="none"><path fill="#282928" fill-rule="evenodd" d="M51.954 33.753a3.76 3.76 0 0 1-3.754-3.754 3.76 3.76 0 0 1 3.754-3.753 3.757 3.757 0 0 1 3.753 3.753 3.757 3.757 0 0 1-3.753 3.754m5.525-3.754a5.53 5.53 0 0 0-5.525-5.526A5.533 5.533 0 0 0 46.426 30a5.53 5.53 0 0 0 3.966 5.3C48.01 44.488 39.574 51.067 30 51.067a21.04 21.04 0 0 1-17.556-9.422.886.886 0 1 0-1.477.98A22.8 22.8 0 0 0 30 52.84c10.488 0 19.639-7.169 22.164-17.318A5.53 5.53 0 0 0 57.479 30M8.05 33.753a3.76 3.76 0 0 1-3.755-3.754 3.76 3.76 0 0 1 3.754-3.753 3.76 3.76 0 0 1 3.754 3.753 3.76 3.76 0 0 1-3.754 3.754m5.526-3.754a5.53 5.53 0 0 0-3.966-5.3C11.992 15.512 20.428 8.933 30 8.933a21.04 21.04 0 0 1 17.557 9.422.887.887 0 0 0 1.477-.98A22.81 22.81 0 0 0 30 7.16c-10.488 0-19.638 7.168-22.163 17.319a5.53 5.53 0 0 0-5.316 5.52 5.533 5.533 0 0 0 5.527 5.527 5.533 5.533 0 0 0 5.527-5.527m27.037 2.064c0 5.646-5.493 9.276-10.612 12.794-5.096-3.526-10.612-7.118-10.612-12.794V21.366c2.358-.317 4.729-1.257 6.904-2.72l1.592 2.202-3.004 14.818a.828.828 0 0 0 .22.746l4.307 4.395a.83.83 0 0 0 1.187 0l4.306-4.395a.83.83 0 0 0 .221-.746l-3.003-14.818 1.59-2.202c2.176 1.463 4.548 2.403 6.904 2.72zM28.753 16.688q.655-.609 1.247-1.272a19.942 19.942 0 0 0 2.37 2.244l-1.812 2.51a.83.83 0 0 0-.141.652l2.987 14.741L30 39.037l-3.403-3.474 2.988-14.74a.83.83 0 0 0-.141-.653l-1.813-2.51q.575-.461 1.122-.972m3.628-1.215c2.586 2.41 5.796 3.974 8.807 4.289.62.064 1.086.583 1.086 1.206v11.095c0 6.727-6.227 10.642-11.802 14.487a.83.83 0 0 1-.943 0c-5.575-3.845-11.802-7.76-11.802-14.487V20.967a1.21 1.21 0 0 1 1.087-1.205c3.892-.405 7.876-2.845 10.54-6.15a.83.83 0 0 1 1.294 0c.526.653 1.11 1.279 1.733 1.86" clip-rule="evenodd"/></svg>