<svg xmlns="http://www.w3.org/2000/svg" width="34.666" height="34.666"><path fill-rule="evenodd" d="M4.763 2.69h1.812a.6.6 0 0 1 .6.6v2.37a12 12 0 0 0-1.047 2.131.6.6 0 0 0-.149-.019H1.793A1.81 1.81 0 0 0 0 9.6v5.344a.6.6 0 1 0 1.2 0V9.6a.616.616 0 0 1 .6-.633h3.956a12.05 12.05 0 0 0-.229 4.875.6.6 0 0 0 1.181-.188 11 11 0 0 1-.118-1.1h3.583a13.7 13.7 0 0 0 .953 4.468A13.8 13.8 0 0 0 8.8 18.509a10.7 10.7 0 0 1-1.681-3.158.6.6 0 1 0-1.134.378 12 12 0 0 0 1.183 2.521v2.072a.6.6 0 0 1-.6.6H6.5a2.391 2.391 0 1 0 0 1.2h.075a1.794 1.794 0 0 0 1.793-1.793v-.464a11.947 11.947 0 0 0 17.931 0v.464a1.794 1.794 0 0 0 1.793 1.793h.075a2.391 2.391 0 1 0 0-1.2h-.075a.6.6 0 0 1-.6-.6v-2.071a11.98 11.98 0 0 0 1.416-9.285h3.983a.58.58 0 0 1 .4.179.65.65 0 0 1 .181.454V25.1H31.08a.6.6 0 0 0 0 1.2h2.391v1.758a.65.65 0 0 1-.181.454.58.58 0 0 1-.417.179H1.793a.58.58 0 0 1-.417-.179.65.65 0 0 1-.181-.454V26.3h27.494a.6.6 0 1 0 0-1.2H1.2v-5.376a.6.6 0 1 0-1.2 0v8.332a1.85 1.85 0 0 0 .519 1.287 1.78 1.78 0 0 0 1.274.542h11.954v3.586h-1.2a.6.6 0 1 0 0 1.2h9.563a.6.6 0 1 0 0-1.2h-1.2v-3.586h11.963a1.78 1.78 0 0 0 1.274-.542 1.85 1.85 0 0 0 .519-1.287V9.6a1.85 1.85 0 0 0-.519-1.287 1.78 1.78 0 0 0-1.229-.541h-4.229a.6.6 0 0 0-.149.019 12 12 0 0 0-1.047-2.131V3.287a.6.6 0 0 1 .6-.6H29.9a2.39 2.39 0 1 0 .155-1.2h-1.963a1.793 1.793 0 0 0-1.792 1.8v.763a11.947 11.947 0 0 0-17.931 0v-.763a1.793 1.793 0 0 0-1.794-1.793H4.608a2.391 2.391 0 1 0 .155 1.2Zm10.179 27.2v3.586h4.782v-3.591h-4.782ZM2.988 28.092h.6a.6.6 0 1 0 0-1.2h-.6a.6.6 0 1 0 0 1.2m1.2-5.379a1.2 1.2 0 1 1 1.2-1.2 1.2 1.2 0 0 1-1.204 1.199Zm26.3 0a1.2 1.2 0 1 1 1.2-1.2 1.2 1.2 0 0 1-1.206 1.199Zm-18.866-4.6a12.6 12.6 0 0 0-2.032 1.3 10.75 10.75 0 0 0 5.474 3.056 13.8 13.8 0 0 1-3.448-4.357Zm11.434 0a13.8 13.8 0 0 1-3.443 4.359 10.75 10.75 0 0 0 5.474-3.056 12.6 12.6 0 0 0-2.031-1.3Zm-6.315-1.363a12.5 12.5 0 0 0-4.03.868 12.6 12.6 0 0 0 4.03 4.635Zm1.2 0v5.5a12.6 12.6 0 0 0 4.03-4.635 12.5 12.5 0 0 0-4.04-.866ZM0 16.735v1.2a.6.6 0 1 0 1.2 0v-1.2a.6.6 0 0 0-1.2 0m28.075-4.184h-3.582a13.7 13.7 0 0 1-.953 4.468 13.8 13.8 0 0 1 2.322 1.489 10.7 10.7 0 0 0 2.213-5.957m-11.34 3v-3H11.37a12.5 12.5 0 0 0 .846 3.974 13.7 13.7 0 0 1 4.519-.972Zm6.561-3h-5.365v3a13.7 13.7 0 0 1 4.519.973 12.5 12.5 0 0 0 .85-3.972ZM25.862 5.4a13.8 13.8 0 0 1-2.322 1.488 13.7 13.7 0 0 1 .953 4.468h3.583A10.7 10.7 0 0 0 25.862 5.4M8.8 5.4a10.7 10.7 0 0 0-2.213 5.957h3.583a13.7 13.7 0 0 1 .953-4.468A13.7 13.7 0 0 1 8.8 5.4m13.65 1.982a13.7 13.7 0 0 1-4.519.973v3H23.3a12.5 12.5 0 0 0-.85-3.973m-10.234 0a12.5 12.5 0 0 0-.846 3.974h5.365v-3a13.7 13.7 0 0 1-4.519-.974m4.519-5.727a12.6 12.6 0 0 0-4.03 4.635 12.5 12.5 0 0 0 4.03.868Zm1.2 0v5.5a12.5 12.5 0 0 0 4.03-.868 12.6 12.6 0 0 0-4.034-4.632Zm-2.872-.218a10.75 10.75 0 0 0-5.474 3.056 12.6 12.6 0 0 0 2.031 1.3 13.8 13.8 0 0 1 3.439-4.356Zm4.548 0A13.8 13.8 0 0 1 23.05 5.8a12.6 12.6 0 0 0 2.031-1.3 10.74 10.74 0 0 0-5.474-3.056ZM32.275 1.2a1.2 1.2 0 1 1-1.2 1.2 1.2 1.2 0 0 1 1.2-1.2M3.586 2.391a1.2 1.2 0 1 1-1.2-1.2 1.2 1.2 0 0 1 1.2 1.2"/></svg>