<svg xmlns="http://www.w3.org/2000/svg" width="35.855" height="27.355"><path d="M16.059 11.061a.56.56 0 1 0 1.12 0 3.3 3.3 0 0 0-2.958-3.137v-1.09a.56.56 0 1 0-1.12 0v1.09a3.3 3.3 0 0 0-2.958 3.137 2.69 2.69 0 0 0 1.176 2.406 5.3 5.3 0 0 0 1.782.662v4.163a2.15 2.15 0 0 1-1.838-2 .56.56 0 1 0-1.12 0A3.3 3.3 0 0 0 13.1 19.43v1.09a.56.56 0 0 0 1.12 0v-1.09a3.3 3.3 0 0 0 2.958-3.137A2.69 2.69 0 0 0 16 13.887a5.3 5.3 0 0 0-1.782-.662V9.061a2.154 2.154 0 0 1 1.838 2Zm-4.795 0a2.154 2.154 0 0 1 1.838-2v3.916c-1.182-.292-1.838-.667-1.838-1.916m4.795 5.233a2.154 2.154 0 0 1-1.838 2v-3.916c1.179.292 1.838.669 1.838 1.916m19.741.816a.56.56 0 0 0-.508-.324h-3.411V4.841a.56.56 0 0 0-.56-.56h-7.733a13.679 13.679 0 1 0-.067 18.862l3.379 4.013a.56.56 0 0 0 .857 0l7.962-9.45a.56.56 0 0 0 .081-.596m-16.86.6 2.064 2.451A9.795 9.795 0 1 1 13.659 3.88a9.845 9.845 0 0 1 9.123 6.239v6.669H19.37a.56.56 0 0 0-.428.922Zm-5.281 8.528a12.557 12.557 0 1 1 9.123-21.173v2.621a10.924 10.924 0 1 0-1.048 13.34l1.059 1.257a12.53 12.53 0 0 1-9.133 3.955Zm13.671-.309-3.551-4.219-3.2-3.8h2.77a.56.56 0 0 0 .56-.56V5.401h6.851v11.945a.56.56 0 0 0 .56.56h2.77Z"/></svg>