<svg xmlns="http://www.w3.org/2000/svg" width="33.066" height="37.666"><path d="M30.85 7.576V4.358a2.214 2.214 0 1 0-1.1 0v2.884a7 7 0 0 0-1.114-.042 4.97 4.97 0 0 0-4.966-4.986h-1.184A2.764 2.764 0 0 0 19.781 0h-6.665a2.764 2.764 0 0 0-2.7 2.216H9.23A4.97 4.97 0 0 0 4.263 7.2a7 7 0 0 0-1.112.04V4.358a2.214 2.214 0 1 0-1.1 0v3.215A3.87 3.87 0 0 0 .264 9.3a.552.552 0 1 0 .98.507 2.76 2.76 0 0 1 2.462-1.5h.556v5.544h-.556a2.77 2.77 0 0 1-2.631-1.9.552.552 0 0 0-1.047.348 3.87 3.87 0 0 0 3.679 2.653h.556a4.97 4.97 0 0 0 4.966 4.986h3.9v1.488a1.65 1.65 0 0 0-1.164-.225 9.37 9.37 0 0 0-7.7 9.23v5.578a1.657 1.657 0 0 0 1.655 1.655h16.826a.552.552 0 1 0 0-1.1h-2.422V35.45h1.112a.552.552 0 0 0 0-1.1h-1.11v-1.669h.653a.56.56 0 0 1 .39.161l.461.461a1.67 1.67 0 0 0 1.171.485h.193a1.66 1.66 0 1 0 0-1.1H23a.56.56 0 0 1-.39-.161l-.461-.461a1.67 1.67 0 0 0-1.171-.485h-.882a2.78 2.78 0 0 0-1.16-1.298v-1.021a1.66 1.66 0 1 0-1.1 0v.666a3 3 0 0 0-.27-.013h-2.152a3 3 0 0 0-.352.013V27.6a1.66 1.66 0 1 0-1.1 0v2.683a2.78 2.78 0 0 0-1.157 1.294h-1.342a.552.552 0 0 0 0 1.1h1.11v1.666h-.653a.56.56 0 0 1-.39-.161l-.461-.461a1.67 1.67 0 0 0-1.171-.486h-.194a1.66 1.66 0 1 0 0 1.1h.193a.56.56 0 0 1 .39.162l.461.461a1.67 1.67 0 0 0 1.171.485h.653v1.112H5.918a.55.55 0 0 1-.552-.552v-5.571a8.266 8.266 0 0 1 6.793-8.144.55.55 0 0 1 .417.1 6.52 6.52 0 0 0 3.871.877 6.52 6.52 0 0 0 3.872-.877.55.55 0 0 1 .417-.1 8.266 8.266 0 0 1 6.793 8.144v5.578a.55.55 0 0 1-.552.552h-1.656a.552.552 0 1 0 0 1.1h1.658a1.657 1.657 0 0 0 1.657-1.651v-5.579a9.37 9.37 0 0 0-7.7-9.23 1.65 1.65 0 0 0-1.164.225v-1.488h3.9a4.97 4.97 0 0 0 4.964-4.986h.556a3.875 3.875 0 0 0 1.66-7.377Zm-1.662-5.362a1.11 1.11 0 1 1 1.11 1.11 1.11 1.11 0 0 1-1.11-1.11m-27.7 0a1.11 1.11 0 1 1 1.11 1.11 1.11 1.11 0 0 1-1.109-1.11Zm23.27 30.467a.556.556 0 1 1-.556.556.557.557 0 0 1 .556-.556m-6.371-5.54a.556.556 0 1 1-.556.556.557.557 0 0 1 .557-.556Zm-3.878-1.662a.556.556 0 1 1-.556.556.557.557 0 0 1 .557-.556Zm-6.373 8.868a.556.556 0 1 1 .556-.556.557.557 0 0 1-.556.556m5.538-1.673a1.657 1.657 0 0 1 1.662-1.655h2.233a1.657 1.657 0 0 1 1.655 1.655v3.889h-5.547ZM13.116 1.1h6.664a1.66 1.66 0 0 1 1.563 1.112h-9.79A1.66 1.66 0 0 1 13.116 1.1m5.551 20.822a10.6 10.6 0 0 1-4.437 0v-1.983h4.437Zm8.863-6.953a3.867 3.867 0 0 1-3.863 3.863H9.23a3.867 3.867 0 0 1-3.863-3.863V7.182A3.867 3.867 0 0 1 9.23 3.32h14.438a3.867 3.867 0 0 1 3.863 3.863Zm1.66-1.123h-.554V8.305h.556a2.772 2.772 0 0 1 0 5.544Z"/><path d="M24.257 8.825a.55.55 0 0 0-.326.709 4.435 4.435 0 0 1-4.158 5.976h-6.648a4.434 4.434 0 0 1 0-8.868h6.648a4.44 4.44 0 0 1 2.819 1.011.552.552 0 1 0 .7-.852 5.55 5.55 0 0 0-3.52-1.263h-6.648a5.538 5.538 0 0 0 0 11.075h6.648a5.54 5.54 0 0 0 5.193-7.463.55.55 0 0 0-.708-.325"/><path d="M15.978 8.173a.68.68 0 0 0-1.26.014l-2.108 5.462a.552.552 0 1 0 1.03.4l.389-1.007h2.628l.384 1.006a.552.552 0 0 0 1.031-.394Zm-1.523 3.762.894-2.317.886 2.317Zm4.763-3.627v5.54a.552.552 0 1 0 1.1 0v-5.54a.552.552 0 1 0-1.1 0"/></svg>