<svg xmlns="http://www.w3.org/2000/svg" width="60" height="60" fill="none"><path fill="#282928" fill-rule="evenodd" d="M54.299 37.599c-.569-1.43-2-.986-3.11-.47l-2.833 1.063c-4.601 1.415-9.07 4.165-13.91 4.455-.816 2.56-3.918 1.355-5.822 1.098-1.451-.293-2.952-.438-4.433-.304-1.013.083-2.266.467-3.122-.25.024-.038.053-.06.054-.123.02-.043.077-.03.081-.1.045-.129.197-.122.247-.274 2.02-1.279 4.482-1.33 6.774-.769 1.508.087 3.35 1.318 4.735.768.028-.047.097-.008.146-.006.137-.047.249-.128.376-.199.085-.061.213-.094.26-.2.04-.041.028-.137.091-.148-.137-.556.237-1.139-.075-1.694a1.84 1.84 0 0 0-1.226-1.045c-2.354-.733-5.034-1.535-7.399-2.277-3.08-1.45-5.953.547-8.74 1.769-1.365.306-2.728.772-4.124.91.07 3.67.14 7.477.134 11.155 3.99-.435 8.028-.305 12.01.195 4.085.758 7.56 1.656 11.5-.31 4.608-2.195 8.984-5.534 13.316-8.232 1.275-.972 5.765-3.113 5.07-5.012m-42.037 1.868c.126 0 .314-.064.417-.044-.086.113-.346.152-.011.126l-.401.12zm7.906-3.436c-.037-.07-.098-.144-.098-.207.108.019.204.145.112-.05q.079.094.162.183-.09.035-.176.074m-.006-.723C10.302 17.4 40.425 7.962 42.284 28.287c.133 4.969-2.82 9.441-7.125 11.763-.778-2.242-3.51-2.245-5.413-2.947-2.878-.676-6.328-2.588-9.271-1.2-.1-.203-.182-.398-.313-.595m25.885 2.016a2 2 0 0 0-.053-.128.6.6 0 0 1 .112-.145c-.002.085-.027.166-.026.25.055-.05.02-.063.037-.149l-.004.008.002-.089.059.103.017-.025-.014.03.044.076-.1.04.056-.116-.003-.005c-.075.146-.044.116-.127.15m9.698 2.196c-.628 1.06-1.645 1.833-2.605 2.622-6.103 3.734-11.92 8.802-18.76 11.165-3.49 1.181-7.117.025-10.547-.692-3.765-.763-7.65-.718-11.416-1.383.623 4.694-3.078 3.39-6.203 3.655-2.015-.077-2.424-1.742-2.288-3.443-.047-2.415.034-4.986.054-7.393.17-1.426-.321-7.481 2.232-6.256-1.23.406-.722 1.868-.744 2.856.098 2.379.336 4.746.244 7.136.018 1.288.012 3.564.018 4.838 0 .444.498.517.842.476 1.204-.01 2.547.022 3.74-.002.41-.043.458-.466.423-.802.093-4.237.169-8.53.192-12.767-.02-.353.115-.758-.127-1.048-.469-.396-1.355-.243-1.953-.295-.873-.032-1.8.047-2.635-.23.133-.063.289-.05.433-.078-.153-.034-.028-.051.017-.121-.043-.044-.134-.024-.188-.053 2.006-.252 5.976-1.617 5.788 1.737 1.22-.458 2.57-.728 3.772-1.253 1.403-.605 2.676-1.508 4.088-2.138C8.037 20.785 33.766 5.579 42.599 22.333c3.595 6.478.357 16.582-7.34 18.04q.09.36.095.736c3.392-.542 7.369-2.675 10.653-3.77l-.096-.152c2.548-5.517-.439-3.13 5.712-5.618.945-.28.662-1.348.66-2.095-.036-.99-.057-1.994-.067-2.99.044-.669-.588-.852-1.11-.99-1.067-.334-2.76-.877-3.818-1.212-.624-.291-.548-1.178-.837-1.73-.25-.581-.486-1.176-.782-1.74-.164-.395-.61-.818-.375-1.265.686-1.367 1.403-2.773 2.076-4.15.129-.302.013-.645-.238-.846l-2.028-2c-.837-.783-1.048-1.47-2.22-.678l-3.494 1.788c-.737.287-1.713-.706-2.484-.884-.675-.43-2.09-.395-2.404-1.117a204 204 0 0 0-1.211-3.599c-.191-.435-.19-1.182-.82-1.162-1.276.002-2.727.014-4.004.01-.306-.032-.616.101-.705.407-.31.956-.639 1.974-.943 2.927-.304.642-.243 1.706-1.007 1.982a17.3 17.3 0 0 0-3.67 1.565.88.88 0 0 1-.84.017c-.078-.032-3.973-1.999-4-2.01-.45-.3-.735.144-1.031.432l-1.701 1.716c-.157.254-1.167.913-.96 1.308.492 1.08 1.569 3.07 2.094 4.165.353.879-.582 1.618-.812 2.43-.492.766-.477 2.349-1.33 2.692-.793.387-4.874 1.163-4.742 1.88.007 1.15-.052 2.613-.053 3.754-.028.449-.04.963.511 1.088 1.4.527 2.804 1.085 4.219 1.6.416.196.332.762.479 1.134.27 1.072.693 2.119 1.116 3.137-.18.682-.901 1.101-1.268 1.765.224-.623.439-1.088.634-1.68-.656-1.146-1.285-2.183-1.613-3.452-1.505-.485-3.072-.817-4.532-1.435-1.319-.74-.965-2.418-1.069-3.679-.56-5.02 1.502-4.115 5.338-5.651a18.3 18.3 0 0 1 1.317-3.187c-.409-.797-1.076-2.096-1.491-2.909-1.036-1.575-.745-2.885.698-4.055 4.034-4.382 3.699-3.169 8.588-.86a18 18 0 0 1 3.151-1.309c1.425-3.655.633-5.932 5.49-5.493 4.897-.535 4.235 1.786 5.601 5.49 1.09.345 2.143.8 3.145 1.34l3.497-1.754c1.642-.992 2.89.385 3.932 1.521.878 1.077 2.495 1.902 2.404 3.473-.31 1.495-1.548 3.176-2.147 4.572a18.5 18.5 0 0 1 1.331 3.266c4.046 1.55 5.946.6 5.35 5.839.027 1.327.171 3.162-1.462 3.575-1.373.405-2.747.815-4.094 1.31-.417 1.14-.809 2.33-1.468 3.358 2.587-.665 6.24-3.659 8.64-1.457 1.02.955 1.361 2.554.681 3.8m-34.358-5.97c.026.046.002.13.079.091-.036.076-.101.126-.105.216.423-.007.6-.481.962-.596 1.057-1.066 2.306-1.966 3.355-3.074.712.76 1.437 1.582 2.166 2.328 1.051 1.297 1.97-.396 2.742-1.075 2.057-2.081 4.242-4.14 6.041-6.448-.039.279.024.583.137.813q.036.03.028.064c-.007.03.052.053.057.082.027.17.075.357.138.499.13.047.076.114.175.152.063.012.033.033.067.051.059.01.07.027.095.044 1.455-.322 1.08-2.156.997-3.26.061-.848-.726-1.148-1.44-.91-.96.055-2.152-.063-2.785.808.057.043-.006.125.026.176-.03.03-.05.023-.068.078.09.298.21.092.3.222.023.096.123-.042.183.009.127.094.301.06.422.132.231.113.597.05.88.098-2.725 1.875-4.865 4.557-7.177 6.901-.553-.5-1.328-1.292-1.862-1.814-.426-.385-1.009-1.183-1.59-.575-1.43 1.551-3.07 3.086-3.932 5.02.043 0 .062-.047.109-.032m24.517 3.652v-.024l.007.009zm.182-.116a.7.7 0 0 1-.025.204l.004-.193c.012.012.025.01.02-.011" clip-rule="evenodd"/></svg>