<svg xmlns="http://www.w3.org/2000/svg" width="33.658" height="32.403"><path d="M1.907 6.747a.494.494 0 0 1 .494-.494h2.824a.494.494 0 0 1 0 .988H2.4a.494.494 0 0 1-.494-.494Zm8.82 1.962H2.4a.494.494 0 0 0 0 .988h8.326a.494.494 0 1 0 0-.988Zm0 2.456H2.4a.494.494 0 1 0 0 .988h8.326a.494.494 0 1 0 0-.988Zm.316 6.421v7.474a.494.494 0 0 1-.494.494h-2.59a.494.494 0 0 1-.494-.494v-7.474a.494.494 0 0 1 .494-.494h2.59a.494.494 0 0 1 .494.494m-.988.494h-1.6v6.48h1.6Zm-4.14 3.242v3.738a.494.494 0 0 1-.494.494h-2.59a.494.494 0 0 1-.494-.494v-3.737a.494.494 0 0 1 .494-.494H5.42a.494.494 0 0 1 .494.494Zm-.988.494h-1.6v2.744h1.6Zm28.732 3.2a.494.494 0 0 1-.494.494h-.913l.678.739a.494.494 0 0 1-.364.828h-3.135a.5.5 0 0 1-.35-.145l-1.417-1.422h-.529a7.406 7.406 0 0 1-14.215 2.36H.494A.494.494 0 0 1 0 27.373V3.317a.494.494 0 0 1 .494-.494h2.172V.494A.494.494 0 0 1 3.16 0H22.8a.494.494 0 0 1 .494.494v18a7.42 7.42 0 0 1 3.839 6.02h.527l1.418-1.422a.5.5 0 0 1 .35-.145h3.134a.494.494 0 0 1 .364.828l-.678.739h.913a.494.494 0 0 1 .494.494Zm-30-22.19h11.468a.5.5 0 0 1 .351.146l5.01 5.049a.5.5 0 0 1 .143.348v9.277a7.4 7.4 0 0 1 1.679.4V.988H3.654Zm11.967 5.049h3.33l-3.33-3.356Zm-3.043 19.004a7.4 7.4 0 0 1 .01-3.8v-9.05a.494.494 0 0 1 .494-.494h2.59a.494.494 0 0 1 .494.494v4.486a7.36 7.36 0 0 1 3.472-.921V8.86h-4.516a.494.494 0 0 1-.494-.494V3.811H.988v23.068Zm2.6-12.359h-1.6v6.377a7.5 7.5 0 0 1 1.6-1.73Zm10.961 10.986h-1.7a4.725 4.725 0 1 1 0-.988h1.7a6.418 6.418 0 1 0 0 .988m-2.69-.988a3.738 3.738 0 1 0 0 .988h-1.723a2.049 2.049 0 1 1 .008-.988Zm-3.842.494a.494.494 0 0 1 .494-.494h.586a1.06 1.06 0 1 0-.017.988h-.569a.494.494 0 0 1-.494-.494m11.83 1.073-.678-.739-.008-.009-.017-.02-.013-.017-.014-.021-.012-.019-.012-.021-.01-.02-.01-.022q-.002-.011-.008-.021c-.006-.01-.005-.015-.008-.023s0-.015-.006-.022 0-.016-.005-.024 0-.017 0-.025v-.161q-.001-.012.005-.024l.006-.022.008-.024.008-.021.01-.023.01-.02c0-.007.008-.014.012-.021l.012-.019.014-.021.013-.017.017-.02.008-.009.678-.739h-1.805l-1.07 1.073 1.07 1.073Z"/></svg>