<svg xmlns="http://www.w3.org/2000/svg" width="29.645" height="30"><path d="M14.007 26.744a.611.611 0 1 0 .61.611.61.61 0 0 0-.61-.611M12.028 26.744a.611.611 0 1 0 .61.611.61.61 0 0 0-.61-.611M28.11 0H16.782a1.573 1.573 0 0 0-1.535 1.6v8a1.57 1.57 0 0 0 1.53 1.6l2.088.022-.01 1.912a.536.536 0 0 0 .928.368l2.143-2.3h6.185a1.573 1.573 0 0 0 1.535-1.6v-8a1.573 1.573 0 0 0-1.535-1.6Zm.464 9.607a.5.5 0 0 1-.464.533h-6.418a.54.54 0 0 0-.392.171l-1.367 1.468.006-1.073a.536.536 0 0 0-.53-.539l-2.626-.028a.5.5 0 0 1-.464-.533v-8a.5.5 0 0 1 .464-.533h11.328a.5.5 0 0 1 .464.533Z"/><path d="M26.163 2.67H18.81a.536.536 0 0 0 0 1.071h7.353a.536.536 0 0 0 0-1.071M26.163 4.95H18.81a.536.536 0 0 0 0 1.071h7.353a.536.536 0 0 0 0-1.071M22.486 7.297h-3.677a.536.536 0 1 0 0 1.071h3.677a.536.536 0 0 0 0-1.071M9.944 10.327a3.53 3.53 0 0 0-3.525 3.524v1.4a3.53 3.53 0 0 0 3.525 3.525h6.537a3.523 3.523 0 0 0 3.524-3.525.536.536 0 1 0-1.071 0 2.45 2.45 0 0 1-2.453 2.453H9.944a2.456 2.456 0 0 1-2.453-2.453v-1.4a2.456 2.456 0 0 1 2.453-2.453h3.7a.536.536 0 1 0 0-1.071Z"/><path d="M8.935 14.438a1.47 1.47 0 1 0 1.47-1.512 1.493 1.493 0 0 0-1.47 1.512m1.868 0a.4.4 0 1 1-.4-.44.42.42 0 0 1 .4.44M15.375 15.949a1.512 1.512 0 1 0-1.47-1.512 1.493 1.493 0 0 0 1.47 1.512m0-1.952a.442.442 0 1 1-.4.44.42.42 0 0 1 .4-.44"/><path d="M23.379 12.736H21.83a.536.536 0 0 0-.536.536v6.7a1.156 1.156 0 0 1-1.154 1.154H6.284a1.156 1.156 0 0 1-1.154-1.154v-8.684a3.546 3.546 0 0 1 3.542-3.542h4.763a.536.536 0 0 0 0-1.071H8.672a4.62 4.62 0 0 0-4.614 4.614v1.447H3.049a1.6 1.6 0 0 0-.488.079V9.167a2.08 2.08 0 0 0 1.486-2.013 2.022 2.022 0 1 0-4.042 0A2.08 2.08 0 0 0 1.49 9.167v8.066a1.543 1.543 0 0 0 1.541 1.541h1.031v1.2A2.23 2.23 0 0 0 6.288 22.2h.9a6.78 6.78 0 0 0-3.125 5.707v1.558a.536.536 0 0 0 .536.536H21.83a.536.536 0 0 0 .536-.536v-1.629a6.71 6.71 0 0 0-3.075-5.637h.85a2.23 2.23 0 0 0 2.226-2.226v-1.2h1.031a1.543 1.543 0 0 0 1.541-1.541v-2.936a1.56 1.56 0 0 0-1.559-1.559ZM1.072 7.153a.952.952 0 1 1 .95 1.017.986.986 0 0 1-.95-1.017m1.956 10.55a.47.47 0 0 1-.47-.47v-2.937a.49.49 0 0 1 .488-.488h1.013v3.9Zm12.63 4.5a5.6 5.6 0 0 1 1.686.258l-1.52 1.844a.48.48 0 0 1-.373.176h-4.927a.49.49 0 0 1-.39-.2l-1.265-1.729a5.7 5.7 0 0 1 1.969-.35Zm5.637 5.637v1.086H5.13v-1.02a5.71 5.71 0 0 1 2.757-4.884l1.382 1.889a1.56 1.56 0 0 0 1.255.637h4.925a1.55 1.55 0 0 0 1.2-.566l1.719-2.086a5.64 5.64 0 0 1 2.924 4.94Zm2.572-10.6a.47.47 0 0 1-.47.47h-1.031v-3.9h1.013a.49.49 0 0 1 .488.488Z"/><path d="M16.31 26.819a.536.536 0 1 0 0 1.071h2.148a.536.536 0 0 0 0-1.071ZM9.797 26.819H7.649a.536.536 0 1 0 0 1.071h2.148a.536.536 0 0 0 0-1.071"/></svg>