<svg xmlns="http://www.w3.org/2000/svg" width="30" height="30"><path fill-rule="evenodd" d="M1.792 23.913H1.38A1.384 1.384 0 0 1 0 22.533v-2.688a1.384 1.384 0 0 1 1.38-1.38h.412v-2.056a.484.484 0 0 1 .484-.484h4.555a4.291 4.291 0 0 1 7.917 0H19.3a.484.484 0 0 1 .484.484v2.055h.416a1.384 1.384 0 0 1 1.38 1.38v2.689a1.384 1.384 0 0 1-1.38 1.38h-.412v2.354a.484.484 0 0 1-.484.484h-2.13v1.14A2.114 2.114 0 0 1 15.065 30H6.514a2.114 2.114 0 0 1-2.108-2.108v-1.14h-2.13a.484.484 0 0 1-.484-.484Zm0-4.481H1.38a.413.413 0 0 0-.412.412v2.689a.413.413 0 0 0 .412.412h.412Zm6.117-3.507h5.762a3.323 3.323 0 0 0-5.762 0m11.878 3.507v3.513h.413a.413.413 0 0 0 .412-.412v-2.688a.413.413 0 0 0-.412-.412Zm-3.581 7.319H5.374v1.14a1.144 1.144 0 0 0 1.14 1.14h8.551a1.144 1.144 0 0 0 1.14-1.14ZM2.76 16.893v8.89h16.06v-8.89Zm1.416.932H17.4a.484.484 0 0 1 .484.484v6.059a.484.484 0 0 1-.484.484H4.176a.484.484 0 0 1-.484-.484v-6.059a.484.484 0 0 1 .484-.484m.484.968v5.091h12.26v-5.091Zm2.546.65a1.9 1.9 0 1 1-1.9 1.9 1.9 1.9 0 0 1 1.899-1.9Zm0 .968a.928.928 0 1 0 .928.928.93.93 0 0 0-.929-.928Zm7.169-.968a1.9 1.9 0 1 1-1.9 1.9 1.9 1.9 0 0 1 1.9-1.9m0 .968a.928.928 0 1 0 .928.928.93.93 0 0 0-.928-.928M30 10.3a2.12 2.12 0 0 1-2.117 2.115h-7.232l-3.693 2.455a.484.484 0 0 1-.738-.518l.474-1.94h-.765a2.12 2.12 0 0 1-2.117-2.112V2.117A2.12 2.12 0 0 1 15.929 0h11.954A2.12 2.12 0 0 1 30 2.117Zm-.968 0V2.117A1.15 1.15 0 0 0 27.883.968H15.929a1.15 1.15 0 0 0-1.149 1.149V10.3a1.15 1.15 0 0 0 1.149 1.147h1.381a.484.484 0 0 1 .47.6l-.326 1.334 2.783-1.852a.5.5 0 0 1 .268-.081h7.378a1.15 1.15 0 0 0 1.149-1.148m-1.02-4.148a.484.484 0 0 1 0 .968H24.92a.484.484 0 1 1 0-.968Zm0-1.684a.484.484 0 0 1 0 .968H26.17a.484.484 0 1 1 0-.968Zm0 3.368a.484.484 0 0 1 0 .968h-4.445a.484.484 0 1 1 0-.968Zm-9.028-5.288a3.729 3.729 0 1 1-3.729 3.729 3.73 3.73 0 0 1 3.729-3.729M21.1 4.5a2.76 2.76 0 0 0-4.613.607l2.433.652Zm-1.07 4.333a2.764 2.764 0 0 0 1.551-3.5l-2.05 1.187Zm-3.8-2.792q-.01.117-.01.236a2.763 2.763 0 0 0 2.761 2.761h.1l-.511-2.369Z"/></svg>