<svg xmlns="http://www.w3.org/2000/svg" width="35.549" height="28.959"><path d="M22.346 11.694a3.377 3.377 0 1 0-3.367-3.368 3.32 3.32 0 0 0 3.367 3.368m0-1.224a2.17 2.17 0 0 1-2.143-2.143 2.3 2.3 0 0 1 .245-.98l1.469 1.469a.56.56 0 0 0 .429.184h2.02a2.17 2.17 0 0 1-2.02 1.469Zm2.02-2.755h-1.775l-1.286-1.224a1.8 1.8 0 0 1 .98-.245 2.114 2.114 0 0 1 2.082 1.468Z"/><path d="M22.346 14.143a5.816 5.816 0 1 0-5.816-5.817 5.775 5.775 0 0 0 5.816 5.817m0-10.408a4.592 4.592 0 1 1-4.592 4.592 4.625 4.625 0 0 1 4.592-4.593Z"/><path d="m35.143 24.245-4.286-7.408a.9.9 0 0 0-.367-.306.7.7 0 0 0-.49.061l-.306.184-1.47-2.576A8.312 8.312 0 0 0 22.347 0a8.4 8.4 0 0 0-8.326 7.714h-3.613a.578.578 0 0 0-.612.612v17.143H8.082V2.755a.578.578 0 0 0-.612-.612H2.939a.578.578 0 0 0-.612.612v22.714H.612a.612.612 0 1 0 0 1.224h24.123a.612.612 0 1 0 0-1.224H22.9v-8.816a11.4 11.4 0 0 0 1.531-.245l1.469 2.571-.306.184a.68.68 0 0 0-.245.857l4.286 7.408a3.06 3.06 0 0 0 2.694 1.531 2.76 2.76 0 0 0 1.531-.429l.122-.061a3.126 3.126 0 0 0 1.163-4.224Zm-12.8-23.02a7.1 7.1 0 1 1-7.1 7.1 7.107 7.107 0 0 1 7.104-7.101ZM17.2 14.939v10.53h-1.71V13.1a9.7 9.7 0 0 0 1.71 1.839M3.551 25.469v-22.1H6.8v22.1Zm7.469 0V8.939h3a12 12 0 0 0 .245 1.469v15.061Zm7.408 0v-9.8a7.4 7.4 0 0 0 3.245.918v8.877Zm7.224-9.49a8.3 8.3 0 0 0 1.592-.918l1.347 2.388-1.591.918Zm7.714 11.388-.122.061a1.95 1.95 0 0 1-2.571-.673L26.694 19.9l3-1.714L30 18l4.041 6.857a1.77 1.77 0 0 1-.674 2.51Z"/></svg>