<svg xmlns="http://www.w3.org/2000/svg" width="37.477" height="37.478"><path d="M34.356 18.114V.625A.625.625 0 0 0 33.731 0H3.748a.625.625 0 0 0-.624.625v17.49a.625.625 0 0 0 .624.624h29.983a.625.625 0 0 0 .625-.625m-1.25-.624H4.373V1.249h28.733Zm0 0"/><path d="M9.995 11.244h1.872v4.372a.625.625 0 0 0 .625.625h12.493a.625.625 0 0 0 .624-.625v-4.372h1.874a.625.625 0 0 0 .441-1.067l-2.5-2.5a.63.63 0 0 0-.441-.183h-2.5V5.622a.625.625 0 0 0-.624-.625h-5a.625.625 0 0 0-.625.625v1.874h-3.748a.63.63 0 0 0-.442.183l-2.5 2.5a.625.625 0 0 0 .442 1.066Zm10.619 3.748h-7.5v-3.748h5.622a.63.63 0 0 0 .442-.183l1.432-1.432Zm4.114-6.247 1.249 1.249h-1.981l-1.249-1.249Zm-2.861.886 1.432 1.432a.63.63 0 0 0 .441.183h.625v3.745h-2.498Zm-4.373-3.382h3.748v1.249h-3.748Zm-4.739 2.5h6.979l-1.249 1.249h-6.979ZM18.739 2.499h1.249v1.249h-1.249ZM21.238 2.499h1.249v1.249h-1.249ZM23.295 3.931l1.249-1.249.884.883-1.249 1.249ZM16.241 2.499h1.249v1.249h-1.249ZM13.305 3.565l.883-.883 1.249 1.249-.884.884ZM5.001 36.853a.625.625 0 0 0 .625.625h6.246a.625.625 0 0 0 .625-.625v-6.615l4.5-4.574a1.95 1.95 0 0 0 0-2.757 1.99 1.99 0 0 0-2.763.006l-2.633 2.698h-.476a1.9 1.9 0 0 0 .115-.625v-2.5a1.874 1.874 0 0 0-1.87-1.875H8.12a1.874 1.874 0 0 0-1.874 1.874v2.5a1.8 1.8 0 0 0 .115.625H5.88l-2.552-2.552a1.95 1.95 0 0 0-2.757 2.753l4.43 4.43zm6.247-.624h-5v-2.5h5ZM7.496 22.486a.625.625 0 0 1 .624-.624h1.25a.625.625 0 0 1 .625.624v2.5a.625.625 0 0 1-.625.625H8.12a.625.625 0 0 1-.624-.625Zm-6.042 2.445a.7.7 0 0 1 .991-.991l2.735 2.735a.63.63 0 0 0 .441.183h6.246a.62.62 0 0 0 .447-.188l2.806-2.88a.715.715 0 0 1 .99 0 .7.7 0 0 1 0 .989l-4.685 4.761a.62.62 0 0 0-.178.436v2.5h-5v-2.5a.62.62 0 0 0-.183-.442ZM24.91 36.853a.625.625 0 0 0 .625.625h6.246a.625.625 0 0 0 .625-.625v-6.615l4.5-4.574a1.953 1.953 0 0 0 0-2.757 1.99 1.99 0 0 0-2.763.006l-2.627 2.7h-.473a1.9 1.9 0 0 0 .115-.625v-2.5a1.874 1.874 0 0 0-1.874-1.874h-1.253a1.874 1.874 0 0 0-1.874 1.874v2.5a1.9 1.9 0 0 0 .114.625h-.48l-2.552-2.552a1.95 1.95 0 0 0-2.757 2.757l4.426 4.426v6.613Zm6.246-.624h-5v-2.5h5Zm-3.748-13.742a.625.625 0 0 1 .625-.624h1.252a.625.625 0 0 1 .624.624v2.5a.625.625 0 0 1-.624.625h-1.254a.625.625 0 0 1-.624-.625Zm-6.041 2.447a.7.7 0 0 1 .991-.991l2.735 2.735a.62.62 0 0 0 .442.183h6.246a.63.63 0 0 0 .447-.187l2.805-2.88a.716.716 0 0 1 .99 0 .7.7 0 0 1 0 .994l-4.685 4.76a.63.63 0 0 0-.179.437v2.5h-5v-2.5a.62.62 0 0 0-.183-.442Zm0 0"/></svg>