<svg xmlns="http://www.w3.org/2000/svg" width="23.377" height="24.156"><path d="M15.585 6.624a.4.4 0 0 0 .275-.114l4.561-4.561h.69a1.169 1.169 0 1 0 0-.779h-.851a.4.4 0 0 0-.275.114l-4.562 4.56h-.618v-.39a1.169 1.169 0 0 0-2.338 0v1.17H10.48a1.95 1.95 0 0 0-1.909-1.558 1.93 1.93 0 0 0-1.271.483L3.694 2.8a1.9 1.9 0 0 0 .2-.847 1.971 1.971 0 1 0-.677 1.464l3.608 2.749a2 2 0 0 0-.162.457H3.857a1.948 1.948 0 1 0-1.909 2.338 1.93 1.93 0 0 0 1.271-.484l1.4 1.068-1.4 1.068a1.948 1.948 0 1 0 0 2.928l1.4 1.068-1.4 1.068a1.944 1.944 0 1 0-1.271 3.412 1.95 1.95 0 0 0 1.909-1.558h2.806a2 2 0 0 0 .162.457l-3.606 2.756a1.971 1.971 0 1 0 .475.618L7.3 18.608a1.937 1.937 0 0 0 3.18-1.075h1.987v.779a1.169 1.169 0 1 0 2.338 0h.618l4.561 4.561a.4.4 0 0 0 .275.114h.851a1.169 1.169 0 1 0 0-.779h-.69l-4.56-4.561a.4.4 0 0 0-.275-.114h-.779v-1.169h1.787l3 3a.4.4 0 0 0 .275.114h1.241a1.169 1.169 0 1 0 0-.779h-1.077l-3-3a.4.4 0 0 0-.275-.114h-1.952v-1.169h3.345l1.45 1.444a.4.4 0 0 0 .275.114h1.241a1.169 1.169 0 1 0 0-.779h-1.084l-1.444-1.444a.4.4 0 0 0-.275-.114h-3.508v-1.169h6.306a1.169 1.169 0 1 0 0-.779h-6.306V10.52h3.507a.4.4 0 0 0 .275-.114l1.444-1.444h1.079a1.169 1.169 0 1 0 0-.779h-1.239a.4.4 0 0 0-.271.117l-1.449 1.44h-3.346V8.572h1.948a.4.4 0 0 0 .275-.114l3-3h1.079a1.169 1.169 0 1 0 0-.779h-1.236a.4.4 0 0 0-.275.114l-3 3h-1.791V6.624Zm6.624-5.455a.39.39 0 1 1-.39.39.39.39 0 0 1 .389-.39Zm0 21.039a.39.39 0 1 1-.39.39.39.39 0 0 1 .389-.39Zm0-3.507a.39.39 0 1 1-.39.39.39.39 0 0 1 .389-.391Zm0-3.507a.39.39 0 1 1-.39.39.39.39 0 0 1 .389-.384Zm0-3.507a.39.39 0 1 1-.39.39.39.39 0 0 1 .389-.388Zm0-3.507a.39.39 0 1 1-.39.39.39.39 0 0 1 .389-.388Zm0-3.507a.39.39 0 1 1-.39.39.39.39 0 0 1 .389-.388ZM10.48 7.4h1.987v4.286H10.48a1.95 1.95 0 0 0-1.909-1.558 1.93 1.93 0 0 0-1.271.484L5.9 9.546l1.4-1.069a1.93 1.93 0 0 0 1.271.484A1.95 1.95 0 0 0 10.48 7.4M7.4 12.078a1.169 1.169 0 1 1 1.169 1.169A1.17 1.17 0 0 1 7.4 12.078m1.169-6.234A1.169 1.169 0 1 1 7.4 7.013a1.17 1.17 0 0 1 1.172-1.169ZM1.948 3.117a1.169 1.169 0 1 1 1.169-1.169 1.17 1.17 0 0 1-1.169 1.169m0 5.065a1.169 1.169 0 1 1 1.169-1.169 1.17 1.17 0 0 1-1.169 1.169m1.746-.322a2 2 0 0 0 .163-.46h2.806a2 2 0 0 0 .162.457l-1.565 1.2Zm3.131 3.372a2 2 0 0 0-.162.457H3.857a2 2 0 0 0-.162-.457l1.565-1.2Zm-4.877 2.015a1.169 1.169 0 1 1 1.169-1.169 1.17 1.17 0 0 1-1.169 1.169m1.746-.322a2 2 0 0 0 .162-.457h2.807a2 2 0 0 0 .162.457l-1.565 1.2Zm2.969 3.829H3.857a2 2 0 0 0-.162-.457L5.26 15.1l1.565 1.2a2 2 0 0 0-.162.454m-4.715 1.558a1.169 1.169 0 1 1 1.169-1.169 1.17 1.17 0 0 1-1.169 1.169m0 5.065a1.169 1.169 0 1 1 1.169-1.169 1.17 1.17 0 0 1-1.169 1.169m6.624-5.065a1.169 1.169 0 1 1 1.169-1.169 1.17 1.17 0 0 1-1.169 1.169m1.909-1.558A1.95 1.95 0 0 0 8.572 15.2a1.93 1.93 0 0 0-1.271.484L5.9 14.611l1.4-1.068a1.93 1.93 0 0 0 1.271.484 1.95 1.95 0 0 0 1.909-1.558h1.987v4.286Zm3.546 1.558a.39.39 0 1 1-.779 0V5.455a.39.39 0 1 1 .779 0Z"/><path d="M10.909 8.572h.779v.779h-.779ZM10.909 10.13h.779v.779h-.779ZM10.909 13.247h.779v.779h-.779ZM10.909 14.805h.779v.779h-.779Z"/></svg>