<svg xmlns="http://www.w3.org/2000/svg" width="60" height="60" fill="none"><g clip-path="url(#a)"><path fill="#282928" d="M57 51h-4.812a5.985 5.985 0 0 0-10.376 0h-6.624a6.03 6.03 0 0 0-2.832-2.517L38.333 44H49a5.006 5.006 0 0 0 5-5V13.071l5.122-5.122a3.016 3.016 0 0 0 0-4.245L56.3.89A2.97 2.97 0 0 0 54.183 0h-.009a2.98 2.98 0 0 0-2.126.886l-.088.087A5 5 0 0 0 49 0H11a5.006 5.006 0 0 0-5 5v34a5.006 5.006 0 0 0 5 5h10.667l5.977 4.483A6.03 6.03 0 0 0 24.812 51h-6.624a5.985 5.985 0 0 0-10.376 0H3a3 3 0 0 0-3 3 2.92 2.92 0 0 0 .873 2.107A2.94 2.94 0 0 0 3 57h4.812a5.985 5.985 0 0 0 10.376 0h6.624a5.986 5.986 0 0 0 10.376 0h6.624a5.986 5.986 0 0 0 10.376 0H57a3 3 0 0 0 3-3 3.015 3.015 0 0 0-3-3M3 55a.98.98 0 0 1-.713-.307A.96.96 0 0 1 2 54a1 1 0 0 1 1-1h4.09a5.6 5.6 0 0 0 0 2zm10 3a4 4 0 1 1 0-8 4 4 0 0 1 0 8m5.91-3a5.6 5.6 0 0 0 0-2h5.18a5.6 5.6 0 0 0 0 2zm5.157-34H17a1 1 0 0 1-1-1V10a1 1 0 0 1 1-1h10a1 1 0 0 1 1 1v4.548A8.98 8.98 0 0 0 24.067 21m5.441-5.059A6.87 6.87 0 0 1 33 15a6.97 6.97 0 0 1 3.862 1.172 2.5 2.5 0 0 0-.355.874l-.84 3.976a3.42 3.42 0 0 0-2.567 1.555l-3.557 5.495a6.98 6.98 0 0 1-.035-12.131m5.273 7.72c.132-.201.314-.364.53-.472a1.7 1.7 0 0 0 2.06 1.492l.447-.1 5.952 9.2a1.41 1.41 0 0 1 .054 1.461A1.44 1.44 0 0 1 42.54 36H29.46a1.44 1.44 0 0 1-1.284-.758 1.41 1.41 0 0 1 .053-1.459zm2.59-1.024.928-4.4 3.468 3.469zm6.2-1.959-4.242-4.241 8.485-8.485 4.241 4.241zm7.067-15.555 4.241 4.241-1.415 1.415-4.24-4.241zM54.174 2a.85.85 0 0 1 .7.3L57.7 5.115a1.007 1.007 0 0 1 0 1.419L56.293 7.95l-4.24-4.241 1.41-1.409a1 1 0 0 1 .711-.3M22 42H11a3 3 0 0 1-3-3V5a3 3 0 0 1 3-3h38a3 3 0 0 1 1.507.426L38.24 14.692A8.87 8.87 0 0 0 30 13.534V10a3 3 0 0 0-3-3H17a3 3 0 0 0-3 3v10a3 3 0 0 0 3 3h7.074a8.95 8.95 0 0 0 4.38 6.756L26.55 32.7a3.38 3.38 0 0 0-.129 3.5 3.46 3.46 0 0 0 3.04 1.8h13.08a3.46 3.46 0 0 0 3.04-1.8 3.38 3.38 0 0 0-.13-3.5l-5.536-8.553 3.056-.647a2.6 2.6 0 0 0 1.322-.72L52 15.071V39a3 3 0 0 1-3 3H38a1 1 0 0 0-.6.2L30 47.75l-7.4-5.55a1 1 0 0 0-.6-.2m8 16a4 4 0 1 1 0-8 4 4 0 0 1 0 8m5.91-3a5.6 5.6 0 0 0 0-2h5.18a5.6 5.6 0 0 0 0 2zM47 58a4 4 0 1 1 0-8 4 4 0 0 1 0 8m10-3h-4.09a5.6 5.6 0 0 0 0-2H57a.98.98 0 0 1 .713.307A.96.96 0 0 1 58 54a1 1 0 0 1-1 1"/></g><defs><clipPath id="a"><path fill="#fff" d="M0 0h60v60H0z"/></clipPath></defs></svg>