<svg xmlns="http://www.w3.org/2000/svg" width="30.423" height="26.007"><path d="M21.126 0H9.297A1.97 1.97 0 0 0 7.33 1.967v1.924a1.97 1.97 0 0 0 1.967 1.967h11.828a1.97 1.97 0 0 0 1.967-1.967V1.967A1.97 1.97 0 0 0 21.126 0m.75 3.891a.75.75 0 0 1-.75.75H9.297a.75.75 0 0 1-.75-.75V1.967a.75.75 0 0 1 .75-.75h11.828a.75.75 0 0 1 .75.75v1.924ZM21.126 10.075H9.297a1.97 1.97 0 0 0-1.967 1.967v1.925a1.97 1.97 0 0 0 1.967 1.966h11.828a1.97 1.97 0 0 0 1.967-1.966v-1.925a1.97 1.97 0 0 0-1.966-1.967m.75 3.892a.75.75 0 0 1-.75.749H9.297a.75.75 0 0 1-.75-.749v-1.925a.75.75 0 0 1 .75-.75h11.828a.75.75 0 0 1 .75.75v1.925ZM21.126 20.149H9.297a1.97 1.97 0 0 0-1.967 1.967v1.925a1.97 1.97 0 0 0 1.967 1.965h11.828a1.97 1.97 0 0 0 1.967-1.967v-1.923a1.97 1.97 0 0 0-1.966-1.967m.75 3.892a.75.75 0 0 1-.75.75H9.297a.75.75 0 0 1-.75-.75v-1.924a.75.75 0 0 1 .75-.75h11.828a.75.75 0 0 1 .75.75v1.925ZM28.456 2.32h-3.623a.609.609 0 0 0 0 1.217h3.623a.75.75 0 0 1 .75.75v7.358a.75.75 0 0 1-.75.75h-1.891l.469-.506a.609.609 0 1 0-.893-.827l-1.415 1.528a1 1 0 0 0-.046.074v.007a.6.6 0 0 0-.06.089q.002.01-.007.021a1 1 0 0 0-.023.1.6.6 0 0 0-.019.105s0 .007 0 .012v.011a1 1 0 0 0 .019.1.6.6 0 0 0 .023.1q-.002.01.007.023a1 1 0 0 0 .054.08l.015.023a1 1 0 0 0 .041.068l.015.017 1.4 1.511a.609.609 0 0 0 .893-.827l-.468-.506h1.89a1.97 1.97 0 0 0 1.967-1.967V4.287a1.97 1.97 0 0 0-1.971-1.967M5.59 12.395H1.967A1.97 1.97 0 0 0 0 14.362v7.359a1.97 1.97 0 0 0 1.967 1.967h1.89l-.469.506a.609.609 0 0 0 .893.827L5.7 23.495a1 1 0 0 0 .043-.071l.013-.029a1 1 0 0 0 .051-.074q-.002-.01.007-.023a.6.6 0 0 0 .023-.106 1 1 0 0 0 .019-.1s0-.007 0-.012v-.012a1 1 0 0 0-.019-.1.6.6 0 0 0-.023-.106q.002-.011-.007-.022a1 1 0 0 0-.056-.083l-.007-.01a1 1 0 0 0-.047-.077l-1.415-1.535a.609.609 0 0 0-.893.827l.469.506H1.967a.75.75 0 0 1-.75-.748v-7.358a.75.75 0 0 1 .75-.75h3.622a.609.609 0 0 0 .001-1.217M6.176 2.813a.6.6 0 0 0-.023-.105q.002-.01-.007-.023a1 1 0 0 0-.054-.079l-.012-.018a1 1 0 0 0-.044-.072L4.621.987a.609.609 0 0 0-.893.827l.469.506H.608a.609.609 0 0 0 0 1.217H4.2l-.469.506a.609.609 0 0 0 .893.827l1.412-1.528a1 1 0 0 0 .048-.08 1 1 0 0 0 .06-.089q-.002-.011.007-.021a.6.6 0 0 0 .023-.106 1 1 0 0 0 .019-.1s0-.007 0-.012v-.012a.6.6 0 0 0-.02-.1Z"/></svg>