<svg xmlns="http://www.w3.org/2000/svg" width="60" height="60" fill="none"><path fill="#282928" d="M52.554 46.056 40.59 34.092a18.6 18.6 0 1 0-6.498 6.498l11.964 11.964a3.6 3.6 0 0 0 5.088 0l1.41-1.41a3.6 3.6 0 0 0 0-5.088M8.4 24.6a16.2 16.2 0 1 1 32.4 0 16.2 16.2 0 0 1-32.4 0m42.456 24.846-1.41 1.41a1.2 1.2 0 0 1-1.692 0L36.102 39.204a19 19 0 0 0 3.102-3.102l11.652 11.652a1.2 1.2 0 0 1 0 1.692M33.6 20.4v3a.6.6 0 1 1-1.2 0v-1.554l-6.174 6.18a.6.6 0 0 1-.852 0l-3.174-3.18-4.974 4.98a.6.6 0 0 1-.984-.196.6.6 0 0 1 .132-.656l5.4-5.4a.6.6 0 0 1 .852 0l3.174 3.18L31.554 21H30a.6.6 0 1 1 0-1.2h3a.6.6 0 0 1 .6.6m-18 10.8a.6.6 0 1 1-1.2 0 .6.6 0 0 1 1.2 0"/></svg>