<svg xmlns="http://www.w3.org/2000/svg" width="60" height="60" fill="none"><path fill="#282928" d="m56.656 30.551-1.97-.64c-.046-.014-.065-.03-.087-.085a14 14 0 0 0-.353-.856c-.02-.045-.02-.067.004-.116l.94-1.852a1.95 1.95 0 0 0-.355-2.263l-2.136-2.142a1.94 1.94 0 0 0-2.253-.353l-1.843.943c-.053.027-.076.025-.125.002a13 13 0 0 0-.848-.353c-.057-.022-.073-.042-.086-.083l-.64-1.98a1.94 1.94 0 0 0-1.847-1.346h-3.016a1.91 1.91 0 0 0-1.846 1.345l-.641 1.977c-.015.045-.031.067-.08.086q-.427.158-.86.355c-.044.02-.066.023-.113 0l-1.849-.947a1.94 1.94 0 0 0-2.256.357L32.26 24.74a1.95 1.95 0 0 0-.352 2.26l.942 1.851c.024.046.024.07 0 .122q-.19.419-.354.858c-.015.041-.03.062-.08.079l-1.976.641a1.95 1.95 0 0 0-.935.66q-.037-.034-.075-.073l-1.749-1.83v-1.195c.581-.378 1.13-.815 1.636-1.311 1.775-1.738 2.86-4 3.1-6.437a3.77 3.77 0 0 0 2.84-3.674c0-.94-.345-1.8-.912-2.463v-3.87C34.345 4.647 29.71 0 24.015 0h-5.913a4.49 4.49 0 0 0-4.434 3.83 4.495 4.495 0 0 0-3.935 4.458v5.94a3.78 3.78 0 0 0-.912 2.465 3.77 3.77 0 0 0 2.84 3.675 10.4 10.4 0 0 0 3.1 6.436c.506.496 1.055.934 1.636 1.31v1.195l-1.75 1.83a2.5 2.5 0 0 1-1.245.735L5.96 33.838c-1.697.447-2.915 1.746-3.256 3.474L.085 50.638a4.5 4.5 0 0 0 .932 3.728A4.47 4.47 0 0 0 4.485 56h35.112a4.46 4.46 0 0 0 3.467-1.635 4.5 4.5 0 0 0 .932-3.729l-.439-2.23h1.502a1.94 1.94 0 0 0 1.848-1.346l.638-1.975c.018-.055.038-.07.086-.088q.428-.161.853-.354c.046-.022.07-.022.113 0l1.85.947a1.94 1.94 0 0 0 2.256-.357l2.135-2.14c.594-.602.735-1.51.352-2.26l-.94-1.848c-.027-.054-.025-.077-.002-.125.13-.285.248-.574.351-.851.022-.057.044-.073.085-.087l1.974-.644A1.92 1.92 0 0 0 58 35.426v-3.024c0-.847-.54-1.59-1.344-1.85M14.215 5.613h.311c.5 0 .906-.407.906-.908v-.212a2.677 2.677 0 0 1 2.67-2.677h5.913c4.698 0 8.52 3.833 8.52 8.543v2.697a3.8 3.8 0 0 0-1.108-.153v-.438c0-1.051-.392-1.995-1.133-2.729a3.73 3.73 0 0 0-2.733-1.112c-4.09.035-7.512-.334-10.458-1.131a1 1 0 0 0-.167-.029c-.929-.072-2.216.256-3.077 2.225-.433.988-.677 2.19-.868 3.235a3.7 3.7 0 0 0-1.446.132V8.289a2.677 2.677 0 0 1 2.67-2.676m-.79 13.939a.91.91 0 0 0-.88-.885 1.96 1.96 0 0 1-1.911-1.974 1.974 1.974 0 0 1 2.736-1.821.904.904 0 0 0 1.235-.675l.091-.513c.397-2.236.88-4.414 2.03-4.414h.002c3.085.824 6.637 1.207 10.853 1.168a1.92 1.92 0 0 1 1.44.587c.4.397.595.867.595 1.439v1.51c0 .295.143.57.383.741.24.17.548.213.825.114.208-.074.43-.113.653-.113 1.086 0 1.97.885 1.97 1.975 0 1.075-.84 1.942-1.912 1.974a.907.907 0 0 0-.879.885c-.119 4.641-3.984 8.417-8.616 8.417-4.633 0-8.497-3.774-8.616-8.415m8.616 10.234c1.33 0 2.625-.254 3.831-.734v1.043a3.84 3.84 0 0 1-3.831 3.842 3.84 3.84 0 0 1-3.832-3.842v-1.043c1.207.48 2.502.734 3.832.734M11 54.184 9.154 38.748c-.009-.071.007-.103.043-.143.045-.05.076-.063.14-.063h25.406c.065 0 .097.014.141.063.036.04.05.072.043.143L33.08 54.184zm30.664-.973a2.66 2.66 0 0 1-2.068.973h-4.693l1.822-15.22a1.98 1.98 0 0 0-.49-1.57 1.95 1.95 0 0 0-1.491-.67H9.337c-.585 0-1.1.232-1.491.67-.385.433-.56.99-.49 1.57l1.82 15.22H4.485a2.662 2.662 0 0 1-2.622-3.197l2.62-13.324c.207-1.045.914-1.8 1.941-2.07l7.439-1.964a4.33 4.33 0 0 0 2.094-1.236l.672-.703c.689 2.344 2.854 4.06 5.412 4.06s4.723-1.716 5.411-4.06l.671.7a4.33 4.33 0 0 0 2.095 1.236l7.44 1.964c1.027.27 1.734 1.026 1.94 2.07l.106.542.007.036 1.855 9.431q0 .008.003.017l.65 3.299a2.69 2.69 0 0 1-.554 2.226m-2.29-19.294c0-2.31 1.872-4.19 4.174-4.19a4.189 4.189 0 0 1 0 8.376 4.1 4.1 0 0 1-2.135-.587l-.04-.205c-.247-1.251-.956-2.276-1.973-2.917a5 5 0 0 1-.026-.477m16.814 1.51c0 .067-.028.104-.091.125l-1.978.645a1.93 1.93 0 0 0-1.218 1.176q-.135.366-.3.728a1.93 1.93 0 0 0 .032 1.702l.944 1.855c.019.036.037.091-.023.152l-2.129 2.134c-.063.063-.119.046-.155.026l-1.854-.948a1.9 1.9 0 0 0-1.69-.032c-.24.11-.486.212-.724.301-.57.208-.987.642-1.18 1.227l-.64 1.979q-.029.09-.124.09H43.2l-1.36-6.92c.549.164 1.123.25 1.711.25 3.303 0 5.99-2.693 5.99-6.003 0-3.312-2.687-6.006-5.99-6.006-3.225 0-5.861 2.573-5.98 5.78l-6.025-1.59 1.435-.465a1.9 1.9 0 0 0 1.216-1.176c.092-.245.194-.492.302-.73a1.92 1.92 0 0 0-.032-1.7l-.945-1.856c-.018-.036-.036-.092.024-.152l2.129-2.134c.063-.063.118-.046.155-.027l1.856.95a1.91 1.91 0 0 0 1.687.03c.246-.113.485-.212.738-.306a1.93 1.93 0 0 0 1.167-1.222l.642-1.981c.02-.063.058-.09.125-.09h3.015q.096-.002.125.09l.641 1.985a1.92 1.92 0 0 0 1.173 1.22c.244.092.49.195.727.302a1.91 1.91 0 0 0 1.697-.031l1.85-.948c.036-.018.092-.036.152.024l2.128 2.134c.063.064.046.12.026.157l-.938 1.85a1.9 1.9 0 0 0-.038 1.701q.166.361.304.734c.212.568.644.986 1.22 1.176l1.975.64q.091.029.09.125v3.029zM22.04 43.435a2.925 2.925 0 0 0-2.916 2.928 2.924 2.924 0 0 0 2.916 2.923 2.926 2.926 0 0 0 0-5.851m0 4.035a1.109 1.109 0 0 1 0-2.218 1.109 1.109 0 0 1 0 2.218"/></svg>