<svg xmlns="http://www.w3.org/2000/svg" width="60" height="60" fill="none"><g clip-path="url(#a)"><path fill="#282928" d="M8.794 18.479c.238.137.499.206.76.206.262 0 .524-.07.764-.208l3.768-2.175c.477-.276.763-.769.763-1.32 0-.55-.286-1.043-.763-1.319l-3.768-2.175a1.51 1.51 0 0 0-1.524-.001 1.51 1.51 0 0 0-.761 1.32v4.351c0 .552.284 1.045.76 1.32m.645-5.672c0-.017 0-.069.058-.103a.1.1 0 0 1 .057-.016q.03 0 .06.018l3.769 2.175c.014.009.06.034.06.101a.11.11 0 0 1-.06.102l-3.769 2.175a.11.11 0 0 1-.117.002c-.058-.034-.058-.086-.058-.103zM3.047 22.83h15.262a3.05 3.05 0 0 0 3.047-3.047v-9.6a3.05 3.05 0 0 0-3.047-3.048H3.047A3.05 3.05 0 0 0 0 10.182v9.601a3.05 3.05 0 0 0 3.047 3.047m-1.64-12.648c0-.904.735-1.64 1.64-1.64H18.31c.905 0 1.64.736 1.64 1.64v9.601c0 .905-.735 1.64-1.64 1.64H3.047c-.905 0-1.64-.735-1.64-1.64zM36.81 32.25a.7.7 0 0 0-.673-.521l-3.202-.028-2.381-8.886a2.49 2.49 0 0 0-1.168-1.518 2.49 2.49 0 0 0-1.898-.252 2.49 2.49 0 0 0-1.519 1.168 2.49 2.49 0 0 0-.252 1.898l.275 1.025c-1.051 1.94-4.73 7.364-14.137 10.391-1.724.555-3.522 1.005-5.261 1.44-.877.22-1.784.447-2.675.686a5.22 5.22 0 0 0-3.226 2.51C-.01 41.419-.185 42.9.2 44.338c.669 2.497 2.805 4.114 5.179 4.113.455 0 .92-.06 1.384-.184q.162-.043.323-.087l4.686 8.114a2.73 2.73 0 0 0 3.728 1 2.7 2.7 0 0 0 1.27-1.658 2.7 2.7 0 0 0-.271-2.07l-3.984-6.9a52 52 0 0 1 2.183-.526c9.662-2.083 15.56.776 17.44 1.931l.273 1.024a2.51 2.51 0 0 0 3.067 1.77 2.506 2.506 0 0 0 1.77-3.066l-2.38-8.885 2.758-1.626a.7.7 0 0 0 .323-.788zM6.399 46.908c-2.121.569-4.248-.721-4.841-2.935-.29-1.08-.161-2.19.362-3.122a3.83 3.83 0 0 1 2.363-1.84c.88-.236 1.78-.462 2.652-.68 1.528-.382 3.101-.776 4.646-1.245l2.1 7.84c-1.57.366-3.13.811-4.644 1.244-.864.247-1.758.502-2.638.738m8.882 7.359c.175.304.221.66.13 1.003a1.31 1.31 0 0 1-1.618.934 1.31 1.31 0 0 1-.804-.614l-4.504-7.801.938-.267q.836-.24 1.688-.478zm-.223-9.637-2.137-7.976c5.967-2.047 10.888-5.554 13.577-9.629l5.133 19.155c-4.367-2.184-10.382-2.761-16.573-1.55m20.056 4.876a1.1 1.1 0 0 1-1.344-.776l-6.694-24.983a1.1 1.1 0 0 1 .111-.831 1.09 1.09 0 0 1 1.496-.401c.255.147.437.383.512.664l6.695 24.983a1.1 1.1 0 0 1-.776 1.344m-.624-12.003-1.178-4.393 2.278.02.862 3.217zm5.845-12.929-2.487 4.308a.703.703 0 1 1-1.218-.703l2.488-4.308a.703.703 0 0 1 1.217.703m3.801 18.028-4.308-2.487a.703.703 0 1 1 .703-1.218l4.309 2.487a.703.703 0 0 1-.704 1.218m-3.335-9.872 4.805-1.287a.703.703 0 1 1 .364 1.358l-4.806 1.288a.703.703 0 0 1-.364-1.358M53.958 0H36.835a3.703 3.703 0 0 0-3.699 3.699v8.708c0 2.039 1.66 3.698 3.699 3.698h1.83v4.017a.703.703 0 0 0 1.15.544l5.546-4.56h8.597c2.04 0 3.699-1.66 3.699-3.7V3.7c0-2.04-1.66-3.699-3.7-3.699m2.292 12.406a2.295 2.295 0 0 1-2.292 2.293h-8.85a.7.7 0 0 0-.446.16l-4.59 3.775v-3.232a.703.703 0 0 0-.703-.703h-2.534a2.295 2.295 0 0 1-2.292-2.293V3.7a2.295 2.295 0 0 1 2.292-2.293h17.123A2.295 2.295 0 0 1 56.25 3.7zm-2.879-7.65a.703.703 0 0 1-.703.704H38.124a.703.703 0 0 1 0-1.406h14.544c.389 0 .703.314.703.703m0 6.592a.703.703 0 0 1-.703.703h-7.56a.703.703 0 0 1 0-1.406h7.56c.389 0 .703.315.703.703m0-3.295a.703.703 0 0 1-.703.703H38.124a.703.703 0 0 1 0-1.407h14.544c.389 0 .703.315.703.704m.084 36c-1.225 0-2.376.58-3.163 1.541-.787-.961-1.938-1.54-3.163-1.54-2.317 0-4.202 2.021-4.202 4.507 0 2.078 2.463 4.729 5.206 7.49.444.447.828.834 1.114 1.142a1.43 1.43 0 0 0 1.045.463 1.43 1.43 0 0 0 1.045-.462c.286-.31.67-.696 1.114-1.143 2.743-2.761 5.205-5.412 5.205-7.49 0-2.486-1.885-4.508-4.201-4.508M51.454 55.06c-.454.456-.847.851-1.15 1.18l-.011.01-.014-.011a49 49 0 0 0-1.15-1.18c-1.675-1.687-4.795-4.827-4.795-6.498 0-1.71 1.254-3.102 2.795-3.102 1.065 0 2.054.689 2.518 1.754a.703.703 0 0 0 1.29 0c.464-1.065 1.453-1.754 2.518-1.754 1.541 0 2.795 1.392 2.795 3.102 0 1.67-3.12 4.811-4.796 6.499"/></g><defs><clipPath id="a"><path fill="#fff" d="M0 0h60v60H0z"/></clipPath></defs></svg>