<svg xmlns="http://www.w3.org/2000/svg" width="60" height="60" fill="none"><path fill="#282928" d="M8.947 10h20.106a.95.95 0 0 0 .67-.3c.178-.187.277-.438.277-.7s-.1-.513-.276-.7a.95.95 0 0 0-.671-.3H8.947a.95.95 0 0 0-.67.3A1.02 1.02 0 0 0 8 9c0 .262.1.513.276.7a.95.95 0 0 0 .671.3M5.958 16h19.084a.97.97 0 0 0 .678-.3 1.013 1.013 0 0 0 0-1.4.97.97 0 0 0-.678-.3H5.958a.97.97 0 0 0-.678.3 1.01 1.01 0 0 0 0 1.4c.179.187.422.295.678.3M5.97 23h26.06a.98.98 0 0 0 .687-.298 1.01 1.01 0 0 0 0-1.404.98.98 0 0 0-.687-.298H5.97a.98.98 0 0 0-.687.298 1.01 1.01 0 0 0 0 1.404.98.98 0 0 0 .686.298M5.95 29h22.1a.96.96 0 0 0 .673-.3c.178-.187.277-.438.277-.7s-.1-.513-.277-.7a.96.96 0 0 0-.674-.3H5.951a.96.96 0 0 0-.674.3A1.02 1.02 0 0 0 5 28c0 .262.1.513.277.7s.42.295.674.3M5.97 35h26.06a.98.98 0 0 0 .687-.298 1.01 1.01 0 0 0 0-1.404.98.98 0 0 0-.687-.298H5.97a.98.98 0 0 0-.687.298 1.01 1.01 0 0 0 0 1.404.98.98 0 0 0 .686.298M33 40a1.01 1.01 0 0 0-.288-.707.98.98 0 0 0-.695-.293H5.987a.97.97 0 0 0-.698.292A1 1 0 0 0 5 40a1.01 1.01 0 0 0 .29.708.98.98 0 0 0 .696.292h26.03a.97.97 0 0 0 .696-.293A1 1 0 0 0 33 40"/><path fill="#282928" d="m51.87 53.23-9.01-29.528c-.072-.325-.87-1.095-1.054-1.357V9.28a2.57 2.57 0 0 0-.737-1.825 2.52 2.52 0 0 0-1.806-.744h-2.12V4.569a2.57 2.57 0 0 0-.738-1.824A2.51 2.51 0 0 0 34.6 2H2.544a2.5 2.5 0 0 0-1.807.744A2.54 2.54 0 0 0 0 4.57v46.102a2.57 2.57 0 0 0 .737 1.824 2.52 2.52 0 0 0 1.807.745h2.12v2.141a2.57 2.57 0 0 0 .737 1.825 2.52 2.52 0 0 0 1.807.744h32.055a2.5 2.5 0 0 0 1.806-.744 2.54 2.54 0 0 0 .737-1.825v-4.59l1.552 5.088a3 3 0 0 0 1.074 1.526c.51.38 1.125.587 1.759.59.694.08 3.036-.874 3.717-1.016a2.98 2.98 0 0 0 1.747-1.465 3.03 3.03 0 0 0 .215-2.284M37.015 19.81l3.101 3.616.062.072-3.722 1.158zm2.813-10.53v10.758l-2.686-3.132V8.709h2.12a.55.55 0 0 1 .526.35q.042.106.04.22M1.978 50.67V4.57a.56.56 0 0 1 .348-.532.6.6 0 0 1 .218-.04h32.055a.55.55 0 0 1 .526.35q.04.107.04.221c-.007 1.998.003 11.811 0 14.024l-.85 7.354c.217 1.04.5 2.066.849 3.07v21.654a.56.56 0 0 1-.347.53.55.55 0 0 1-.218.04c-1.426.032-31.707-.022-32.055 0a.55.55 0 0 1-.526-.35.6.6 0 0 1-.04-.22m37.85 4.711a.56.56 0 0 1-.347.531.6.6 0 0 1-.218.04H7.208a.55.55 0 0 1-.526-.35.6.6 0 0 1-.04-.22V53.24H34.6a2.5 2.5 0 0 0 1.806-.745 2.54 2.54 0 0 0 .737-1.824V35.502l2.686 8.803zm9.496-.312-2.838.882a.98.98 0 0 1-1.054-.317 1 1 0 0 1-.183-.343l-8.715-28.568 4.73-1.472 8.715 28.567c.077.254.051.528-.072.762a1 1 0 0 1-.583.49"/></svg>