<svg xmlns="http://www.w3.org/2000/svg" width="60" height="60" fill="none"><path fill="#282928" d="M56.813 41.115a4.4 4.4 0 0 0-2.727-2.012 4.39 4.39 0 0 0-3.344.508q-.436.264-.794.61l-3.353-2.017v-16.93l3.353-2.02a4.46 4.46 0 0 0 3.07 1.248q.535 0 1.068-.13a4.4 4.4 0 0 0 2.725-2.01c.612-1.01.793-2.2.51-3.347a4.4 4.4 0 0 0-2.01-2.725 4.39 4.39 0 0 0-3.346-.51 4.4 4.4 0 0 0-2.726 2.01 4.39 4.39 0 0 0-.46 3.522l-3.317 1.999-14.331-8.635v-5.81l1.958 1.958a1.13 1.13 0 0 0 1.602 0 1.133 1.133 0 0 0 0-1.602L30.8 1.329c-.414-.414-1.198-.463-1.603 0l-3.895 3.893a1.133 1.133 0 1 0 1.602 1.603l1.962-1.96v5.81l-14.332 8.636-3.32-2a4.4 4.4 0 0 0-.456-3.518 4.4 4.4 0 0 0-2.725-2.012 4.4 4.4 0 0 0-3.35.508 4.43 4.43 0 0 0-1.502 6.072 4.4 4.4 0 0 0 2.726 2.01q.533.131 1.07.13a4.427 4.427 0 0 0 3.07-1.25l3.354 2.023v16.908a1.133 1.133 0 1 0 2.266 0V22.639l13.199 7.949v15.566l-13.199-7.95v-3.378a1.133 1.133 0 1 0-2.266 0v3.378l-3.354 2.018a4.4 4.4 0 0 0-.792-.61 4.4 4.4 0 0 0-3.348-.508 4.4 4.4 0 0 0-2.726 2.01 4.427 4.427 0 0 0 4.852 6.58 4.4 4.4 0 0 0 2.725-2.011 4.4 4.4 0 0 0 .457-3.518l3.32-1.998 14.33 8.632v6.343l-1.961-1.962a1.133 1.133 0 1 0-1.602 1.603l3.895 3.895c.471.471 1.122.385 1.603 0l3.893-3.896a1.133 1.133 0 0 0-1.603-1.601l-1.958 1.96v-6.342l14.331-8.632 3.316 1.996-.048.175a4.39 4.39 0 0 0 .508 3.344 4.4 4.4 0 0 0 2.727 2.012q.532.13 1.068.13c.796 0 1.58-.216 2.276-.638a4.4 4.4 0 0 0 2.012-2.727 4.39 4.39 0 0 0-.508-3.344M8.816 44.513a2.14 2.14 0 0 1-1.328.98 2.159 2.159 0 1 1-.517-4.254 2.16 2.16 0 0 1 1.845 3.273M51.18 14.961a2.14 2.14 0 0 1 1.848-1.044c.388 0 .77.106 1.112.313.494.297.842.77.98 1.329.139.559.05 1.137-.249 1.631a2.14 2.14 0 0 1-1.329.981 2.13 2.13 0 0 1-1.629-.248l-.002-.001a2.14 2.14 0 0 1-.98-1.33 2.14 2.14 0 0 1 .249-1.63m-21.182 6.806c.625 0 1.133-.508 1.133-1.133v-7.312l12.135 7.311-13.268 7.992-13.269-7.992 12.136-7.311v7.312c0 .625.507 1.133 1.133 1.133M8.083 17.923a2.14 2.14 0 0 1-1.633.248 2.15 2.15 0 0 1-1.33-.982 2.14 2.14 0 0 1-.246-1.631c.138-.56.486-1.031.98-1.33a2.15 2.15 0 0 1 1.633-.247 2.159 2.159 0 0 1 .596 3.942M44.33 38.204l-13.198 7.95V30.587l13.198-7.95zm10.792 5.712a2.14 2.14 0 0 1-.983 1.33 2.13 2.13 0 0 1-1.63.248 2.14 2.14 0 0 1-1.33-.983 2.14 2.14 0 0 1-.248-1.63 2.14 2.14 0 0 1 .981-1.328l.002-.002a2.14 2.14 0 0 1 1.63-.248c.56.139 1.031.487 1.33.983.298.492.386 1.07.248 1.63"/></svg>