<svg xmlns="http://www.w3.org/2000/svg" width="60" height="60" fill="none"><path fill="#282928" d="M51.96 32.7v-7.52a.851.851 0 1 0-1.702 0v6.818A12.7 12.7 0 0 0 46 31.37V19.436a.85.85 0 0 0-.851-.852h-.337l3.317-3.526 3.317 3.526h-.337a.85.85 0 0 0-.85.852v7.256a.851.851 0 1 0 1.702 0v-6.405h1.455c.723.024 1.133-.924.62-1.434l-5.287-5.62a.856.856 0 0 0-1.24 0l-5.286 5.62c-.514.51-.104 1.458.62 1.434h1.455v6.387a12.45 12.45 0 0 0-4.52-4.446V11.885h1.456c.723.024 1.133-.924.62-1.434l-5.287-5.62a.856.856 0 0 0-1.24 0l-5.287 5.62c-.513.51-.103 1.458.62 1.434h1.455v8.809c-1.62.2-3.147.712-4.518 1.48v-4.29h1.455c.723.024 1.133-.924.62-1.435l-5.287-5.62a.856.856 0 0 0-1.24 0l-5.287 5.62c-.513.51-.103 1.459.62 1.435h1.455v11.673a10.954 10.954 0 0 0-4.519.437V10.547h1.455c.724.024 1.134-.924.62-1.434l-5.286-5.62a.856.856 0 0 0-1.24 0l-5.287 5.62c-.513.51-.103 1.458.62 1.434h1.455v11.816a.851.851 0 1 0 1.703 0V9.696a.85.85 0 0 0-.852-.851h-.337l3.318-3.527L14.9 8.845h-.337a.85.85 0 0 0-.851.85v20.998a11.07 11.07 0 0 0-4.259 3.87V20.935a.851.851 0 1 0-1.702 0v18.752l-.009.116C3.852 40.653 1 44.136 1 48.185c0 4.732 3.85 8.582 8.582 8.582h26.179a.851.851 0 0 0 0-1.703H9.582a6.89 6.89 0 0 1-6.88-6.88c0-3.443 2.572-6.374 5.982-6.819a.85.85 0 0 0 .74-.896c.005-5.117 4.169-9.279 9.287-9.279a9.3 9.3 0 0 1 3.287.6c.48.197 1.064-.136 1.14-.65a10.64 10.64 0 0 1 10.511-8.838c5.635 0 10.313 4.402 10.65 10.022.086 1.058 1.279.739 2 .744 6.065 0 10.999 4.934 10.999 10.998 0 6.065-4.934 10.999-10.999 10.999H29.5a.851.851 0 1 0 0 1.702h16.8c7.003 0 12.701-5.697 12.701-12.7 0-4.97-2.87-9.282-7.04-11.367M35.948 6.656l3.317 3.526h-.337a.85.85 0 0 0-.85.852v10.385a12.3 12.3 0 0 0-4.259-.818v-9.567a.85.85 0 0 0-.851-.852h-.337zM21.665 29.892l-.03-.008V17.032a.85.85 0 0 0-.85-.851h-.337l3.317-3.527 3.317 3.527h-.337a.85.85 0 0 0-.851.851v6.29a12.3 12.3 0 0 0-4.23 6.57"/><path fill="#282928" d="M33.078 39.625a.851.851 0 0 0 0-1.703H29.09a.85.85 0 0 0-.85.851v9.46c0 .471.38.852.85.852h3.987a.851.851 0 0 0 0-1.702h-3.135v-3.028h2.84a.851.851 0 1 0 0-1.703h-2.84v-3.028zM22.989 47.427c-1.044 0-2.052-.425-2.696-1.136a.852.852 0 0 0-1.262 1.144c.962 1.06 2.441 1.695 3.958 1.695 1.816 0 3.399-1.192 3.68-2.771.326-1.823-1.107-3.043-2.556-3.578a51 51 0 0 1-2.657-1.074 1 1 0 0 1-.397-.967c.07-.487.443-.877 1-1.044 1.531-.462 2.915.648 2.943.67a.851.851 0 0 0 1.092-1.305c-.084-.071-2.094-1.728-4.527-.995-1.189.358-2.03 1.29-2.193 2.432a2.7 2.7 0 0 0 1.201 2.669 1 1 0 0 0 .119.064c.054.024 1.36.605 2.83 1.147 1.055.39 1.59 1.002 1.47 1.681-.119.663-.861 1.368-2.005 1.368M46.018 43.504a5.63 5.63 0 0 0-5.625-5.625 5.63 5.63 0 0 0-5.625 5.625 5.63 5.63 0 0 0 5.625 5.625 5.63 5.63 0 0 0 5.625-5.625m-9.548 0a3.927 3.927 0 0 1 3.923-3.923 3.927 3.927 0 0 1 3.922 3.923 3.927 3.927 0 0 1-3.922 3.923 3.927 3.927 0 0 1-3.923-3.923"/></svg>