<svg xmlns="http://www.w3.org/2000/svg" width="60" height="60" fill="none"><path fill="#282928" d="m47.407 39.119-.04.013-14.094 4.961c-.276-1.354-1.072-2.73-2.475-3.356l-9.522-4.258c-2.32-1.037-4.32-.632-5.97-.098l-5.903 1.912-.274-.939a1.78 1.78 0 0 0-2.207-1.208l-4.642 1.36a1.783 1.783 0 0 0-1.21 2.207l4.97 17.005a1.78 1.78 0 0 0 2.207 1.211l4.65-1.36a1.78 1.78 0 0 0 1.202-2.206l-.367-1.255 1.79-.47 8.187 2.997c1.229.449 2.508.857 3.815.857.89.006 1.77-.204 2.562-.61l18.224-9.32.018-.01q.244-.131.515-.268c1.386-.709 3.481-1.78 2.641-4.651-.55-1.883-2.38-3.01-4.077-2.514M12.564 54.955a.2.2 0 0 1-.115.094l-4.644 1.36a.2.2 0 0 1-.244-.134L2.591 39.27a.2.2 0 0 1 .13-.243h.003l4.646-1.361a.2.2 0 0 1 .146.017.2.2 0 0 1 .093.114L12.58 54.81a.19.19 0 0 1-.017.145m35.56-10.082c-.18.091-.364.186-.543.283l-18.214 9.315c-1.483.756-2.942.47-5.114-.325l-8.42-3.082a.8.8 0 0 0-.472-.023l-2.073.545-3.44-11.772 5.944-1.926c1.96-.634 3.362-.623 4.838.037l9.522 4.258c.97.432 1.648 1.662 1.65 2.99l.001.01v.012c0 .38-.07.757-.203 1.113-.625 1.652-2.243 1.712-3.439 1.261l-6.409-2.406a.79.79 0 0 0-.999 1.07.8.8 0 0 0 .443.414l6.409 2.406c.58.225 1.197.343 1.82.349 1.652 0 3.043-.913 3.656-2.53.137-.363.228-.742.271-1.127l14.517-5.11c.842-.233 1.798.423 2.096 1.443.451 1.54-.321 2.018-1.841 2.795M30.767 17.155c-2.05.31-3.892 1.292-5.387 2.884-1.662 1.77-2.802 4.237-3.212 6.946l-.433 2.867a4.35 4.35 0 0 0 1.033 3.592c2.059 2.395 9.563 2.581 11.825 2.581h.006c1.662 0 10.058-.125 12.17-2.58a4.35 4.35 0 0 0 1.033-3.593l-.433-2.866c-.41-2.71-1.55-5.177-3.212-6.947-1.495-1.591-3.336-2.573-5.387-2.885q.536-.445.979-.983c1.417-1.722 2.166-4.15 2.166-7.019a7.16 7.16 0 0 0-2.093-5.057 7.144 7.144 0 0 0-12.2 5.057c0 2.87.75 5.297 2.166 7.019q.443.539.979.984m15.036 10.068.434 2.867a2.78 2.78 0 0 1-.668 2.32l-.001.001c-.866 1.008-4.912 2.03-10.97 2.03h-.007c-5.227 0-9.595-.834-10.623-2.03a2.77 2.77 0 0 1-.669-2.321l.434-2.867c.646-4.276 3.518-8.591 8.479-8.591h5.112c4.961 0 7.833 4.314 8.479 8.59M34.768 3.585A5.57 5.57 0 0 1 38.7 5.217a5.58 5.58 0 0 1 1.632 3.935c0 5.424-2.884 7.895-5.564 7.895s-5.563-2.47-5.563-7.895a5.576 5.576 0 0 1 5.563-5.567M6.403 40.172a.793.793 0 1 1-1.536.385l-.003-.013A.793.793 0 0 1 6.4 40.16zm39.346-29.33v6.853a.792.792 0 0 0 1.583 0V10.84a2.515 2.515 0 0 0 1.726-2.39 2.52 2.52 0 0 0-1.726-2.389v-1.37a.793.793 0 0 0-1.583 0v1.37A2.515 2.515 0 0 0 44.5 9.926c.31.43.747.75 1.25.915m.792-3.324a.933.933 0 1 1 0 1.865.933.933 0 0 1 0-1.865m-34.136 15.49a2.277 2.277 0 0 1 2.275 2.277.792.792 0 1 0 1.583 0 2.28 2.28 0 0 1 2.275-2.276.793.793 0 1 0 0-1.585 2.277 2.277 0 0 1-2.275-2.277.793.793 0 1 0-1.583 0 2.28 2.28 0 0 1-2.275 2.277.79.79 0 0 0-.566 1.356.8.8 0 0 0 .566.229m3.067-1.52c.209.274.454.519.727.728q-.411.316-.728.729a4 4 0 0 0-.727-.729q.411-.316.728-.728M57.274 6.991v-2.3a.793.793 0 1 0-1.584 0v2.3a2.515 2.515 0 0 0-1.725 2.39 2.52 2.52 0 0 0 1.725 2.39v5.924a.792.792 0 1 0 1.584 0V11.77a2.515 2.515 0 0 0 1.249-3.863 2.5 2.5 0 0 0-1.25-.916m-.792 3.323a.933.933 0 1 1 0-1.866.933.933 0 0 1 0 1.866m-38.677 4.64a3.003 3.003 0 0 1 3.001 3.004.792.792 0 1 0 1.583 0 3.01 3.01 0 0 1 3.004-3.003.791.791 0 0 0 0-1.585 3.006 3.006 0 0 1-3.004-3.006.794.794 0 0 0-1.096-.74.79.79 0 0 0-.487.74 3.01 3.01 0 0 1-3 3.006.792.792 0 1 0 0 1.585M21.6 12.94c.327.48.741.896 1.221 1.223-.48.327-.894.741-1.221 1.222a4.6 4.6 0 0 0-1.22-1.222c.48-.327.893-.742 1.22-1.223m30.705-1.292V4.692a.792.792 0 1 0-1.583 0v6.956a2.518 2.518 0 0 0-1.248 3.866c.309.429.746.75 1.248.916v1.265a.793.793 0 1 0 1.583 0V16.43a2.518 2.518 0 0 0 1.248-3.865c-.31-.43-.746-.75-1.248-.917m-.792 3.326a.933.933 0 0 1-.918-1.117.936.936 0 1 1 .918 1.117"/></svg>