<svg xmlns="http://www.w3.org/2000/svg" width="60" height="60" fill="none"><path fill="#282928" d="M46.68 43.773a.82.82 0 1 0 0-1.64.82.82 0 0 0 0 1.64M49.578 43.773a.82.82 0 1 0 0-1.64.82.82 0 0 0 0 1.64M52.477 43.773a.82.82 0 1 0 0-1.64.82.82 0 0 0 0 1.64"/><path fill="#282928" d="M55.143 8.493H43.4C40.266 4.54 35.425 2 30 2c-5.424 0-10.266 2.54-13.4 6.493H4.857a2.464 2.464 0 0 0-2.46 2.46v33.052a3.01 3.01 0 0 0 3.007 3.008H22.9v4.807H10.556c-.754 0-1.368.613-1.368 1.367v3.446c0 .754.614 1.367 1.367 1.367h38.89c.753 0 1.367-.613 1.367-1.367v-3.446c0-.754-.614-1.367-1.368-1.367h-8.24a.82.82 0 1 0 0 1.64h7.967v2.9H10.829v-2.9h30.546a.82.82 0 1 0 0-1.64H37.1v-4.807h17.496a3.01 3.01 0 0 0 3.008-3.008V10.953a2.464 2.464 0 0 0-2.461-2.46m-11.301 3.734a15.3 15.3 0 0 1 1.59 6.048h-6.548a31.3 31.3 0 0 0-.722-6.048zm-7.828 15.378c-1.169 3.687-3.056 6.3-5.194 6.84v-6.84zm-5.194-1.641v-6.048h6.422c-.055 2.15-.33 4.2-.773 6.048zm5.624 5.004c.507-1.023.94-2.153 1.296-3.363h5.154a15.52 15.52 0 0 1-8.357 6.265c.696-.783 1.337-1.754 1.907-2.902m1.718-5.004c.424-1.892.671-3.935.722-6.048h6.549a15.3 15.3 0 0 1-1.591 6.048zm4.732-15.378H37.74a21 21 0 0 0-1.296-3.363c-.57-1.148-1.211-2.12-1.907-2.902a15.52 15.52 0 0 1 8.357 6.265M30.82 3.746c2.138.539 4.026 3.153 5.194 6.84H30.82zM30 17.975a.82.82 0 0 0 .82-.82v-4.93h5.649c.444 1.85.718 3.899.773 6.049H30.82v-1.181a.82.82 0 1 0-1.64 0v1.181h-6.422c.056-2.15.33-4.2.773-6.048h5.649v4.93c0 .452.367.82.82.82m-7.74 9.629c.356 1.21.789 2.34 1.296 3.363.57 1.148 1.211 2.12 1.907 2.902a15.52 15.52 0 0 1-8.357-6.265zm-6.102-1.641a15.3 15.3 0 0 1-1.59-6.048h6.548c.05 2.113.299 4.156.722 6.048zm7.828 1.64h5.194v6.842c-2.138-.54-4.026-3.154-5.194-6.841m-.455-1.64a29.3 29.3 0 0 1-.773-6.048h6.422v6.048zM29.18 3.745v6.84h-5.194c1.168-3.686 3.057-6.3 5.194-6.84m-3.717.576c-.696.782-1.337 1.754-1.907 2.902a21 21 0 0 0-1.296 3.363h-5.154a15.52 15.52 0 0 1 8.357-6.265m-3.625 7.906a31.3 31.3 0 0 0-.722 6.048h-6.549a15.3 15.3 0 0 1 1.592-6.048zM35.46 51.82H24.541v-4.807h10.918zM55.963 39.16H18.734a.82.82 0 1 0 0 1.641h37.229v3.203c0 .754-.613 1.367-1.367 1.367H5.404a1.37 1.37 0 0 1-1.367-1.367v-3.203h20.87a.82.82 0 1 0 0-1.64H4.036V10.952c0-.452.368-.82.82-.82h10.591a17 17 0 0 0-2.543 8.962c0 9.427 7.669 17.096 17.095 17.096s17.095-7.67 17.095-17.096c0-3.284-.931-6.354-2.543-8.962h10.59c.453 0 .82.368.82.82z"/><path fill="#282928" d="M12.732 34.703h-5.25a.82.82 0 0 0 0 1.64h5.25a.82.82 0 0 0 0-1.64M7.482 33.5h1.97a.82.82 0 0 0 0-1.64h-1.97a.82.82 0 0 0 0 1.64M52.545 34.703h-2.188a.82.82 0 1 0 0 1.64h2.188a.82.82 0 1 0 0-1.64M52.545 31.86h-2.188a.82.82 0 1 0 0 1.64h2.188a.82.82 0 1 0 0-1.64M52.545 29.016h-2.188a.82.82 0 1 0 0 1.64h2.188a.82.82 0 1 0 0-1.64"/></svg>