<svg xmlns="http://www.w3.org/2000/svg" width="60" height="60" fill="none"><path fill="#282928" d="M24.022 54.61h-.646a5 5 0 0 1-1.763-.32c-6.222-2.328-11.222-6.1-14.86-11.213-2.857-4.015-4.839-8.814-5.89-14.265-1.734-8.99-.33-16.784-.27-17.111a5.01 5.01 0 0 1 3.008-3.726L21.76.389A5 5 0 0 1 23.7 0c.669 0 1.321.13 1.939.389l18.158 7.586a5.01 5.01 0 0 1 3.007 3.726c.061.327 1.465 8.121-.269 17.111-1.05 5.45-3.032 10.25-5.89 14.265-3.638 5.113-8.638 8.886-14.86 11.213a5 5 0 0 1-1.762.32m-.323-52.735c-.42 0-.83.082-1.217.244L4.324 9.705a3.15 3.15 0 0 0-1.886 2.337c-.058.313-1.401 7.769.266 16.415 1 5.185 2.876 9.738 5.577 13.533 3.417 4.802 8.124 8.35 13.989 10.544.355.133.727.2 1.106.2h.645q.572 0 1.106-.2c5.866-2.194 10.572-5.742 13.99-10.544 2.7-3.795 4.576-8.348 5.576-13.533 1.667-8.646.325-16.102.267-16.415a3.15 3.15 0 0 0-1.887-2.337L24.915 2.119a3.1 3.1 0 0 0-1.216-.244"/><path fill="#282928" d="M24.021 50.516h-.645a1 1 0 0 1-.329-.06c-5.443-2.036-9.803-5.317-12.96-9.752-2.514-3.534-4.266-7.796-5.205-12.667-.83-4.306-.86-8.306-.737-10.903.133-2.822.46-4.613.474-4.687a.94.94 0 0 1 .56-.695l18.158-7.586a.94.94 0 0 1 .723 0l18.158 7.586a.94.94 0 0 1 .56.694c.014.075.341 1.866.474 4.688.122 2.597.093 6.597-.737 10.903-.94 4.871-2.691 9.133-5.206 12.667-3.156 4.435-7.516 7.716-12.96 9.753a1 1 0 0 1-.328.06m-.474-1.875h.303c9.153-3.48 14.813-10.53 16.823-20.959 1.29-6.687.592-12.68.34-14.401L23.698 6.047 6.384 13.281a41 41 0 0 0-.369 3.998c-.114 2.496-.082 6.337.719 10.458 2.02 10.399 7.676 17.43 16.813 20.904"/><path fill="#282928" d="M28.218 38.908H19.18a4.406 4.406 0 0 1-4.402-4.401v-7.344a4.406 4.406 0 0 1 4.402-4.401h9.037a4.406 4.406 0 0 1 4.4 4.401v7.344a4.406 4.406 0 0 1-4.4 4.401M19.18 24.637a2.53 2.53 0 0 0-2.527 2.526v7.344a2.53 2.53 0 0 0 2.527 2.526h9.037a2.53 2.53 0 0 0 2.526-2.526v-7.344a2.53 2.53 0 0 0-2.526-2.526zm4.518 7.318a2.6 2.6 0 0 1-2.597-2.597 2.6 2.6 0 0 1 2.597-2.598 2.6 2.6 0 0 1 2.598 2.598 2.6 2.6 0 0 1-2.598 2.597m0-3.32a.723.723 0 1 0 .002 1.447.723.723 0 0 0-.002-1.447"/><path fill="#282928" d="M29.538 24.64a.94.94 0 0 1-.938-.938V20.83c0-2.702-2.198-4.9-4.9-4.9a4.906 4.906 0 0 0-4.901 4.9v2.872a.938.938 0 0 1-1.875 0V20.83c0-1.81.705-3.511 1.984-4.79a6.73 6.73 0 0 1 4.791-1.985c1.81 0 3.512.704 4.792 1.984a6.73 6.73 0 0 1 1.984 4.791v2.872c0 .518-.42.937-.937.937M23.7 34.755a.94.94 0 0 1-.938-.937V31.02a.938.938 0 0 1 1.875 0v2.798c0 .517-.42.937-.938.937"/></svg>