<svg xmlns="http://www.w3.org/2000/svg" width="60" height="60" fill="none"><path fill="#282928" d="M7.5 5.625h1.875V7.5H7.5zM11.25 5.625h1.875V7.5H11.25zM15 5.625h1.875V7.5H15zM8.438 26.25h15a.94.94 0 0 0 .937-.937v-9.375a.94.94 0 0 0-.937-.938h-15a.94.94 0 0 0-.938.938v9.375a.937.937 0 0 0 .938.937m.937-9.375H22.5v7.5H9.375zM31.875 15.938h15v1.874h-15zM28.125 19.688H45v1.875H28.125zM28.125 23.438H41.25v1.875H28.125zM11.25 30h24.375v1.875H11.25zM7.5 33.75h24.375v1.875H7.5zM7.5 37.5h20.625v1.875H7.5zM7.5 41.25h20.625v1.875H7.5zM7.5 45h20.625v1.875H7.5zM7.5 30h1.875v1.875H7.5z"/><path fill="#282928" d="M53.438 7.5H52.5v-.937a4.69 4.69 0 0 0-4.687-4.688H6.563a4.687 4.687 0 0 0-4.688 4.688v41.25A4.69 4.69 0 0 0 6.563 52.5H7.5v.938a4.69 4.69 0 0 0 4.688 4.687h41.25a4.69 4.69 0 0 0 4.687-4.687v-41.25A4.69 4.69 0 0 0 53.438 7.5m-1.679 14.569 3.985 3.984-2.653 2.653-3.985-3.984zM34.81 40.922 35.55 39l3.263 3.263-1.922.74zm.17 2.812-1.473.572.572-1.472zm2.858-5.09-1.321-1.322 11.268-11.269 1.322 1.322zm12.6-9.938 1.322 1.322-11.268 11.269-1.322-1.322zM3.75 6.563A2.82 2.82 0 0 1 6.563 3.75h41.25a2.82 2.82 0 0 1 2.812 2.813v2.812H3.75zm2.813 44.062a2.82 2.82 0 0 1-2.813-2.812V11.25h46.875v9.31L34.528 36.655a1 1 0 0 0-.215.328l-3.31 8.616a.927.927 0 0 0 .872 1.275q.175 0 .337-.066l8.616-3.309a.95.95 0 0 0 .328-.216l9.469-9.468v13.996a2.82 2.82 0 0 1-2.812 2.813zm49.687 2.813a2.82 2.82 0 0 1-2.812 2.812h-41.25a2.82 2.82 0 0 1-2.813-2.812V52.5h38.438a4.69 4.69 0 0 0 4.687-4.687V31.94l3.75-3.75zm0-29.532-3.75-3.75v-3.281h3.75zm0-8.906H52.5V9.375h.938a2.82 2.82 0 0 1 2.812 2.813z"/><path fill="#282928" d="M28.125 15.938H30v1.874h-1.875z"/></svg>