<svg xmlns="http://www.w3.org/2000/svg" width="50" height="50" fill="none"><path fill="#000" fill-rule="evenodd" d="M38.232 34.686c1.256-.726 2.772.378 2.432 1.72-.11.417-.37.763-.745.977-.41.242-1.011.606-1.704 1.022-1.797 1.08-4.505 2.715-6.949 4.026-3.69 1.976-4.944 2.23-5.36 2.207-3.68-.208-7.445-.898-11.135-.347v-6.82c.86-.053 1.87-.145 2.893-.37.617-.136 1.89-.729 3.102-1.323 2.467-1.21 2.715-1.092 4.822-.63 1.144.25 4.539.881 4.552 2.01.006.248-.052.485-.174.699a.7.7 0 0 0-.115.104 1.55 1.55 0 0 1-1.282.508l-5.978-.48a.683.683 0 0 0-.74.63.677.677 0 0 0 .63.734l5.978.485c.081.006.156.006.237.006.74 0 1.461-.284 2.004-.792zm-19.65-24.524c0-3.535 2.882-6.412 6.417-6.412s6.417 2.876 6.417 6.411a6.425 6.425 0 0 1-6.417 6.417 6.425 6.425 0 0 1-6.417-6.416m-5.18 36.018c0 .035-.035.07-.075.07h-2.334a.075.075 0 0 1-.07-.07v-9.923c0-.04.035-.075.07-.075h2.333c.04 0 .075.035.075.075zm-2.155-17.206a6.425 6.425 0 0 1-6.417-6.417c0-3.535 2.882-6.411 6.417-6.411s6.417 2.876 6.417 6.41a6.425 6.425 0 0 1-6.417 6.418m21.088-6.418c0-3.534 2.882-6.41 6.416-6.411 3.54 0 6.417 2.876 6.418 6.411a6.42 6.42 0 0 1-6.417 6.417 6.425 6.425 0 0 1-6.418-6.417m1.282 5.851a7.78 7.78 0 0 0 5.135 1.935c4.291 0 7.785-3.489 7.785-7.786 0-4.291-3.494-7.786-7.786-7.786s-7.786 3.495-7.785 7.786c0 1.837.64 3.524 1.703 4.858l-2.991 2.859a.7.7 0 0 0-.214.497V34.8c-.937-.41-2.122-.674-3.02-.872l-.757-.167V17.918a7.79 7.79 0 0 0 7.098-7.757c0-4.291-3.495-7.786-7.786-7.786-4.292 0-7.786 3.495-7.786 7.787a7.79 7.79 0 0 0 7.099 7.756v15.59c-1.253-.174-1.993.023-3.777.86V30.77c0-.19-.076-.37-.214-.497l-2.998-2.859a7.74 7.74 0 0 0 1.71-4.858c0-4.291-3.495-7.785-7.786-7.785-4.298 0-7.786 3.494-7.786 7.786a7.79 7.79 0 0 0 7.786 7.786c1.964 0 3.76-.734 5.135-1.936l2.778 2.657v3.957c-.745.352-1.444.664-1.79.74-.907.201-1.82.288-2.611.334a1.436 1.436 0 0 0-1.433-1.282h-2.333c-.791 0-1.438.647-1.438 1.444v9.923c0 .797.647 1.444 1.438 1.444h2.333c.798 0 1.444-.647 1.444-1.444v-.497c2.514-.424 4.99-.19 7.78.063 1.058.093 2.15.197 3.276.26 2.23.063 7.872-3.285 13.093-6.429.693-.416 1.288-.774 1.687-1.005a2.92 2.92 0 0 0 1.045-4.054c-.843-1.386-2.692-1.843-4.107-1.017l-6.035 3.5c-.04-.548-.295-.993-.67-1.351v-4.586zm-22.37-2.991c1.41-.751 2.922-2.541 2.922-3.962 0-1.283-1.6-1.842-2.408-.907a.676.676 0 0 1-1.028 0c-.817-.935-2.409-.376-2.409.907 0 1.42 1.514 3.211 2.923 3.962m1.548-6.706c-.555 0-1.098.168-1.548.48-1.779-1.232-4.297.035-4.297 2.264 0 2.143 2.079 4.5 4.02 5.354a.7.7 0 0 0 .554 0c1.94-.855 4.02-3.212 4.02-5.355a2.75 2.75 0 0 0-2.75-2.743m10.858-6.186 4.09-2.362-4.09-2.357zM29.8 10.16a.7.7 0 0 0-.341-.595L23.312 6.02a.686.686 0 0 0-1.028.595v7.099c0 .529.574.851 1.028.589l6.146-3.547a.69.69 0 0 0 .34-.595m6.746 11.442v3.685h3.847a1.844 1.844 0 0 0 1.842-1.843 1.844 1.844 0 0 0-1.842-1.842h-.844a.685.685 0 0 1-.687-.687v-1.681a.44.44 0 0 0-.439-.439.44.44 0 0 0-.433.439v1.68a.69.69 0 0 1-.687.688zm-.687 5.054h4.534a3.212 3.212 0 0 0 0-6.423h-.156v-.999a1.812 1.812 0 0 0-3.622 0v1h-.756a.684.684 0 0 0-.688.68v5.06c0 .376.307.682.688.682" clip-rule="evenodd"/></svg>