<svg xmlns="http://www.w3.org/2000/svg" width="50" height="50" fill="none"><path fill="#000" d="M44.53 34.375h-1.562v-6.25a1.56 1.56 0 0 0-1.563-1.562h-1.562a1.563 1.563 0 0 0-1.563 1.562v6.25H37.5V23.438a1.563 1.563 0 0 0-1.562-1.563h-1.563a1.56 1.56 0 0 0-1.562 1.563v10.937h-.782v-8.594a1.56 1.56 0 0 0-1.562-1.562h-1.563a1.563 1.563 0 0 0-1.562 1.562v8.594a.78.78 0 0 1-.782-.781v-12.5a.781.781 0 1 0-1.562 0v12.5a2.347 2.347 0 0 0 2.344 2.343H44.53a.781.781 0 1 0 0-1.562m-15.625 0v-8.594h1.563v8.594zm5.469 0-.001-10.937h1.564v10.937zm5.469 0-.001-6.25h1.563v6.25zm-3.907-23.437a.78.78 0 0 1 .782-.782h7.031a.782.782 0 0 1 0 1.563h-7.031a.78.78 0 0 1-.782-.781m-2.343 0a.78.78 0 1 1 1.561 0 .78.78 0 0 1-1.561 0m2.343 3.124a.78.78 0 0 1 .782-.78h7.031a.782.782 0 0 1 0 1.562h-7.031a.78.78 0 0 1-.782-.781m0 3.126a.78.78 0 0 1 .782-.782h7.031a.782.782 0 0 1 0 1.563h-7.031a.78.78 0 0 1-.782-.782m-2.343-3.125a.78.78 0 1 1 1.561 0 .78.78 0 0 1-1.561 0m0 3.124a.78.78 0 1 1 1.561 0 .78.78 0 0 1-1.561 0m12.5-11.718H7.03a2.346 2.346 0 0 0-2.343 2.343v10.196a2.722 2.722 0 0 0 0 5.39v3.665a10.147 10.147 0 1 0 16.032 12h25.374a2.346 2.346 0 0 0 2.343-2.344V7.813a2.346 2.346 0 0 0-2.343-2.344M3.905 20.703a1.172 1.172 0 1 1 2.344 0 1.172 1.172 0 0 1-2.344 0m7.032 5.118v8.087l-7.124 3.836a8.587 8.587 0 0 1 7.124-11.923m1.562 0a8.6 8.6 0 0 1 7.773 7.773h-7.773zm-.781 17.148a8.59 8.59 0 0 1-7.16-3.851l7.357-3.962h8.357a8.603 8.603 0 0 1-8.554 7.813m35.156-6.25a.78.78 0 0 1-.781.781H21.377A10.14 10.14 0 0 0 6.249 25.83v-2.667a2.73 2.73 0 0 0 1.563-2.46 2.7 2.7 0 0 0-.28-1.18l3.954-3.515a2.74 2.74 0 0 0 2.453.187l3.443 2.718a2.732 2.732 0 1 0 5.054-.056l4.516-3.73a2.726 2.726 0 1 0-.975-1.221l-4.535 3.746a2.735 2.735 0 0 0-3.088.037l-3.182-2.511a2.734 2.734 0 1 0-4.737-.326L6.48 18.368a3 3 0 0 0-.23-.125V7.813a.78.78 0 0 1 .781-.782h39.063a.78.78 0 0 1 .781.782zM13.718 14.5a1.172 1.172 0 1 1-1.657-1.658 1.172 1.172 0 0 1 1.657 1.658m7.032 6.25a1.172 1.172 0 1 1-1.657-1.657 1.172 1.172 0 0 1 1.657 1.656m6.936-8.689a1.172 1.172 0 1 1 1.657 1.657 1.172 1.172 0 0 1-1.657-1.657"/></svg>