<svg xmlns="http://www.w3.org/2000/svg" width="37" height="29" fill="none"><g clip-path="url(#a)"><mask id="b" width="37" height="29" x="0" y="0" maskUnits="userSpaceOnUse" style="mask-type:luminance"><path fill="#fff" d="M0 0h37v28.153H0z"/></mask><g mask="url(#b)"><path fill="#282928" d="M1.229 7.683 15.978.478a6.04 6.04 0 0 1 4.7 0l15.093 7.205A1.82 1.82 0 0 1 37 9.293c0 .38-.17 1.06-1.229 1.61l-1.229.594v6.78a2.08 2.08 0 0 1 1.314 1.908 2.1 2.1 0 0 1-1.271 1.907l1.906 6.059h-5.34l1.907-6.058a2.054 2.054 0 0 1 .042-3.814v-6.061l-2.246 1.1v8.816a.7.7 0 0 1-.127.38 15.4 15.4 0 0 1-12.206 5.637 15.3 15.3 0 0 1-12.164-5.637.7.7 0 0 1-.127-.381v-8.771l-5-2.458A1.82 1.82 0 0 1 0 9.293a1.9 1.9 0 0 1 1.229-1.61m6.357 14.24a14.17 14.17 0 0 0 10.935 4.916 14.17 14.17 0 0 0 10.935-4.916v-8.01l-8.773 4.2a5.7 5.7 0 0 1-2.331.466 5.16 5.16 0 0 1-2.373-.51l-8.393-4.118zM1.822 9.717l5.086 2.5a.49.49 0 0 1 .466.254l9.2 4.45c1.14.466 2.42.466 3.56 0l11.314-5.42-13.011-1.53a.66.66 0 0 1 .127-1.314l15.088 1.78 1.526-.72a.86.86 0 0 0 .466-.381c0-.042-.085-.212-.466-.381L20.09 1.708a4.4 4.4 0 0 0-1.738-.34 4.3 4.3 0 0 0-1.78.34l-14.749 7.2c-.381.17-.466.339-.466.424.118.167.279.3.465.385"/></g></g><defs><clipPath id="a"><path fill="#fff" d="M37 0H0v28.153h37z"/></clipPath></defs></svg>