<svg xmlns="http://www.w3.org/2000/svg" width="36.182" height="36.173"><defs><clipPath id="a"><path d="M.5 0h36.182v36.173H.5z"/></clipPath></defs><g clip-path="url(#a)" transform="translate(-.5)"><path d="M9.441 36.173H14.8a1.19 1.19 0 0 0 1.2-1.185v-.168a31 31 0 0 0-.167-4.486A5.85 5.85 0 0 0 13.74 26.9c-.085-.06-.855-.573-4.106-2.73L6.4 22.025a2 2 0 0 0-1.669-.241 936 936 0 0 0-.468-4.348l-.188-1.724a1.81 1.81 0 0 0-.746-1.26 1.76 1.76 0 0 0-1.413-.292A1.85 1.85 0 0 0 .5 16c.04 4.62.04 4.68.061 6.073l.023 2.247a5.86 5.86 0 0 0 .756 2.913 7.3 7.3 0 0 0 1.926 2.112l.4.337a764 764 0 0 0 4.375 3.738.59.59 0 0 1 .208.452v1.1a1.19 1.19 0 0 0 1.192 1.2Zm-5-7.4-.407-.345a6.2 6.2 0 0 1-1.655-1.784 4.7 4.7 0 0 1-.6-2.342l-.024-2.246c-.017-1.392-.018-1.452-.06-6.066a.66.66 0 0 1 .47-.668.7.7 0 0 1 .132-.014.6.6 0 0 1 .338.11.62.62 0 0 1 .255.426l.187 1.719c.33 3.033.361 3.317.545 5.066a1.994 1.994 0 0 0 .478 2.636l6.245 4.728a.6.6 0 1 0 .719-.951l-6.238-4.73a.8.8 0 0 1-.16-1.1.6.6 0 0 0 .077-.1.82.82 0 0 1 1-.089l3.23 2.146 4.041 2.682a4.7 4.7 0 0 1 1.647 2.722 32 32 0 0 1 .139 4.247v.163H9.441v-1.1a1.78 1.78 0 0 0-.628-1.363c-1.121-.951-2.73-2.329-4.373-3.739ZM35.264 14.16a1.76 1.76 0 0 0-1.413.293 1.82 1.82 0 0 0-.746 1.266l-.127 1.155c-.333 3.052-.4 3.649-.532 4.915a1.99 1.99 0 0 0-1.669.238l-3.342 2.218c-3.159 2.1-3.909 2.594-4.014 2.671a5.8 5.8 0 0 0-2.074 3.416 30.4 30.4 0 0 0-.171 4.49v.166a1.19 1.19 0 0 0 1.192 1.185h5.364a1.19 1.19 0 0 0 1.192-1.192v-1.1a.6.6 0 0 1 .207-.452c1.122-.954 2.733-2.331 4.377-3.743l.4-.34a7.3 7.3 0 0 0 1.929-2.109 5.86 5.86 0 0 0 .756-2.914l.026-2.243c.017-1.4.018-1.452.06-6.073a1.85 1.85 0 0 0-1.415-1.847m.165 7.9L35.4 24.3a4.7 4.7 0 0 1-.6 2.343 6.2 6.2 0 0 1-1.652 1.782l-.409.347c-1.642 1.41-3.252 2.788-4.373 3.74a1.78 1.78 0 0 0-.628 1.36v1.1h-5.362v-.154a32 32 0 0 1 .146-4.252 4.68 4.68 0 0 1 1.624-2.7c.1-.069 1.3-.87 3.952-2.627l3.335-2.221a.8.8 0 0 1 .435-.131.82.82 0 0 1 .577.238 1 1 0 0 0 .07.086.8.8 0 0 1-.159 1.1l-6.247 4.727a.6.6 0 1 0 .719.951l6.248-4.73a1.99 1.99 0 0 0 .481-2.633c.2-1.848.219-2.06.607-5.627l.125-1.15a.62.62 0 0 1 .255-.43.57.57 0 0 1 .47-.1.66.66 0 0 1 .471.668c-.039 4.617-.04 4.674-.057 6.068Z"/><path d="M31.31 12.517a12.724 12.724 0 0 0-25.445 0 12.724 12.724 0 0 0 25.445 0m-24.233 0a11.512 11.512 0 0 1 23.021 0 11.512 11.512 0 0 1-23.021 0"/><path d="M21.026 19.669V15.5a.6.6 0 0 1 .61-.6H25.9a1.81 1.81 0 0 0 1.829-1.788v-1.191a1.81 1.81 0 0 0-1.829-1.788h-4.264a.6.6 0 0 1-.61-.6V5.364A1.81 1.81 0 0 0 19.2 3.576h-1.22a1.81 1.81 0 0 0-1.829 1.788v4.172a.6.6 0 0 1-.61.6H11.27a1.81 1.81 0 0 0-1.829 1.785v1.192A1.81 1.81 0 0 0 11.27 14.9h4.271a.6.6 0 0 1 .61.6v4.172a1.81 1.81 0 0 0 1.829 1.788h1.22a1.81 1.81 0 0 0 1.827-1.792Zm-3.658 0V15.5a1.81 1.81 0 0 0-1.827-1.788H11.27a.6.6 0 0 1-.61-.6v-1.191a.6.6 0 0 1 .61-.6h4.271a1.81 1.81 0 0 0 1.829-1.788V5.364a.6.6 0 0 1 .61-.6h1.22a.6.6 0 0 1 .61.6v4.172a1.77 1.77 0 0 0 .536 1.264 1.85 1.85 0 0 0 1.293.524h4.268a.6.6 0 0 1 .61.6v1.192a.6.6 0 0 1-.61.6h-4.27a1.81 1.81 0 0 0-1.83 1.784v4.172a.6.6 0 0 1-.61.6h-1.22a.6.6 0 0 1-.609-.607Z"/></g></svg>