<svg xmlns="http://www.w3.org/2000/svg" width="60" height="60" fill="none"><path fill="#282928" d="M36.09 35.945a2.414 2.414 0 0 0-3.419 0l-9.518 9.519c-2.372 2.372-6.136 2.563-8.572.436a6.21 6.21 0 0 1-2.119-4.664c0-1.645.637-3.2 1.81-4.363l9.663-9.664a2.414 2.414 0 0 0 0-3.418l-4.545-4.546c-.919-.918-2.51-.918-3.419 0l-3.2 3.2-6.727 6.728c-6.8 6.8-6.8 17.872.01 24.681a17.4 17.4 0 0 0 12.336 5.1 17.4 17.4 0 0 0 12.336-5.1l6.727-6.727 3.2-3.2c.455-.455.71-1.063.71-1.709s-.255-1.255-.71-1.71zM16.908 20.173c.209-.21.49-.319.772-.319s.555.11.764.319l4.546 4.545c.427.427.427 1.11 0 1.536l-2.737 2.737-6.082-6.082zM29.77 52.9c-6.281 6.282-16.509 6.282-22.8-.01C.69 46.61.69 36.383 6.971 30.1l6.255-6.255 6.082 6.082-5.991 5.991a7.47 7.47 0 0 0-2.2 5.31 7.5 7.5 0 0 0 2.573 5.663c2.954 2.59 7.518 2.373 10.39-.5l5.846-5.846 6.082 6.082zm9.928-9.927-2.737 2.736-6.082-6.082 2.737-2.736a1.09 1.09 0 0 1 1.536 0l4.546 4.545a1.08 1.08 0 0 1 0 1.537M29.025 21.527c3.391 0 6.555-1.672 8.464-4.481a10.3 10.3 0 0 0 1.773-5.755c0-5.645-4.591-10.236-10.237-10.236-5.645 0-10.236 4.59-10.236 10.236a10.245 10.245 0 0 0 10.236 10.236m0-1.336a8.9 8.9 0 0 1-7.072-3.518 8.86 8.86 0 0 1 6.972-3.518c.037 0 .064.009.1.009s.064-.01.1-.01a8.86 8.86 0 0 1 6.973 3.519 8.9 8.9 0 0 1-7.073 3.518m-2.672-9.782a3.28 3.28 0 0 1-.564-1.818 3.243 3.243 0 0 1 3.236-3.236 3.244 3.244 0 0 1 3.237 3.236c0 .646-.191 1.282-.564 1.818a3.26 3.26 0 0 1-2.609 1.41h-.127a3.23 3.23 0 0 1-2.61-1.41m2.672-8.027c4.91 0 8.9 3.99 8.9 8.9 0 1.473-.381 2.9-1.072 4.19a10.17 10.17 0 0 0-5.055-3.272 4.56 4.56 0 0 0 1.79-3.618 4.567 4.567 0 0 0-4.563-4.564 4.58 4.58 0 0 0-4.572 4.573c0 .918.272 1.8.79 2.573.282.409.619.754 1 1.045a10.17 10.17 0 0 0-5.054 3.273 8.87 8.87 0 0 1-1.073-4.19c0-4.91 4-8.91 8.91-8.91M50.162 23.582c-4.91 0-8.9 3.99-8.9 8.9 0 1.782.536 3.518 1.536 5.01a8.9 8.9 0 0 0 7.364 3.89 8.9 8.9 0 0 0 8.9-8.91c.009-4.9-3.991-8.89-8.9-8.89m-7.564 8.9c0-4.173 3.391-7.573 7.573-7.573s7.572 3.4 7.572 7.573c0 1.2-.3 2.373-.836 3.436a8.84 8.84 0 0 0-4.145-2.681c.282-.237.536-.51.745-.819.455-.672.691-1.454.691-2.263a4.02 4.02 0 0 0-4.018-4.018 4.02 4.02 0 0 0-3.318 6.281c.209.31.463.582.745.819a8.9 8.9 0 0 0-4.145 2.69 7.34 7.34 0 0 1-.864-3.445m7.564.364h-.055a2.67 2.67 0 0 1-2.163-1.164 2.696 2.696 0 0 1 2.227-4.21c1.482 0 2.69 1.21 2.69 2.692 0 .536-.163 1.063-.463 1.509a2.7 2.7 0 0 1-2.173 1.173zm0 7.209a7.58 7.58 0 0 1-5.973-2.937 7.52 7.52 0 0 1 5.882-2.936c.027 0 .054.01.082.01.027 0 .054-.01.081-.01a7.55 7.55 0 0 1 5.882 2.936 7.48 7.48 0 0 1-5.954 2.937M43.617 17.163a7.32 7.32 0 0 0 5.846 2.882 7.33 7.33 0 0 0 5.854-2.891c.091-.118.164-.227.236-.336a7.36 7.36 0 0 0 1.282-4.137c0-4.063-3.309-7.372-7.372-7.372-4.064 0-7.373 3.309-7.373 7.372 0 1.473.445 2.91 1.273 4.137.081.118.163.227.254.345m5.846 1.555c-1.719 0-3.31-.71-4.446-1.955a6 6 0 0 1 4.446-1.954c1.709 0 3.3.709 4.445 1.954a6 6 0 0 1-4.445 1.955m1.709-6.146c-.382.564-1.028.9-1.71.9a2.07 2.07 0 0 1-2.073-2.064c0-1.136.928-2.063 2.064-2.063s2.064.927 2.064 2.064c.01.418-.109.818-.345 1.163m-1.71-5.927c3.328 0 6.037 2.71 6.037 6.045 0 1.046-.291 2.055-.81 2.973a7.2 7.2 0 0 0-2.89-1.79q.259-.246.464-.546c.381-.573.59-1.227.59-1.91 0-1.872-1.527-3.4-3.4-3.4a3.407 3.407 0 0 0-3.4 3.4 3.34 3.34 0 0 0 1.055 2.446 7.36 7.36 0 0 0-2.89 1.8 6 6 0 0 1-.81-2.973c.018-3.336 2.727-6.045 6.055-6.045"/><path fill="#282928" d="M30.562 34.128a.6.6 0 0 0 .254.054c.264 0 .51-.154.618-.409l1.8-4.31a.67.67 0 0 0-.063-.626.68.68 0 0 0-.555-.3H29.99l1.255-3.246a.664.664 0 0 0-.382-.863.664.664 0 0 0-.864.381l-1.6 4.146a.65.65 0 0 0 .073.618c.127.182.327.29.545.29h2.6l-1.418 3.383a.687.687 0 0 0 .364.882M9.506 15.072a.668.668 0 0 0 1.091-.136l1.2-2.3 2.346 2.818a.67.67 0 0 0 .509.236c.154 0 .3-.054.427-.154a.673.673 0 0 0 .09-.937l-2.98-3.59a.68.68 0 0 0-.583-.237.67.67 0 0 0-.518.354L9.87 13.455l-2.291-2.618a.67.67 0 0 0-.936-.064.687.687 0 0 0-.073.954zM47.67 47.445l-2.527.718.318-3.464a.67.67 0 0 0-.6-.727.67.67 0 0 0-.727.6l-.409 4.427a.68.68 0 0 0 .236.573c.173.136.4.19.61.127l2.5-.709-.437 3.636c-.045.364.218.7.582.737h.082a.67.67 0 0 0 .663-.591l.555-4.636a.67.67 0 0 0-.227-.582.77.77 0 0 0-.619-.11"/></svg>