<svg xmlns="http://www.w3.org/2000/svg" width="37" height="28" fill="none"><g clip-path="url(#a)"><mask id="b" width="37" height="28" x="0" y="0" maskUnits="userSpaceOnUse" style="mask-type:luminance"><path fill="#fff" d="M37 0H0v27.08h37z"/></mask><g mask="url(#b)"><path fill="#282928" d="M25.95 23.93H12.281a3.687 3.687 0 0 1-7.3 0H.612A.62.62 0 0 1 0 23.3V3.147a.62.62 0 0 1 .616-.629h23.43a.62.62 0 0 1 .615.629v3.777h6.168a.61.61 0 0 1 .517.291l5.554 8.818a.65.65 0 0 1 .1.338V23.3a.623.623 0 0 1-.617.631h-3.14a3.688 3.688 0 0 1-7.3 0zm1.181-.631a2.469 2.469 0 1 0 2.47-2.518 2.5 2.5 0 0 0-2.47 2.518m-20.963 0a2.466 2.466 0 1 0 2.464-2.518 2.5 2.5 0 0 0-2.464 2.518m29.6-.629v-1.258h-1.853v-1.26h1.853v-3.6l-.115-.186h-9.137a.623.623 0 0 1-.616-.629v-5.666a.62.62 0 0 1 .616-.629h4.778L30.5 8.178h-5.834v14.486h1.284a3.688 3.688 0 0 1 7.3 0zm-12.334 0v-1.258H12.952v-1.26h10.482V6.3H2.467V5.039h20.967v-1.26h-22.2v16.375H4.32v1.26H1.234v1.258h3.754a3.688 3.688 0 0 1 7.3 0zm3.7-7.559h7.73l-2.795-4.437v.026h-4.935zm1.854 8.817v-1.26h1.231v1.26zm-20.969 0v-1.26h1.233v1.26zM2.47 1.259V0H11.1v1.26zM0 1.259V0h1.235v1.26z"/></g></g><defs><clipPath id="a"><path fill="#fff" d="M0 0h37v27.08H0z"/></clipPath></defs></svg>