<svg xmlns="http://www.w3.org/2000/svg" width="60" height="60" fill="none"><path fill="#282928" d="M59 26.708v6.584a3.027 3.027 0 0 1-3.024 3.024h-4.449a22.3 22.3 0 0 1-1.84 4.438l3.147 3.148a3.03 3.03 0 0 1 0 4.276l-4.656 4.656-.083.08a.903.903 0 0 1-1.28-.049.906.906 0 0 1 .082-1.313l4.655-4.655a1.213 1.213 0 0 0 0-1.714l-3.636-3.635a.91.91 0 0 1-.14-1.101 20.5 20.5 0 0 0 2.184-5.265c.104-.4.464-.679.877-.679h5.139c.668 0 1.211-.543 1.211-1.211v-6.584c0-.668-.543-1.211-1.211-1.211h-5.139a.906.906 0 0 1-.877-.68 20.5 20.5 0 0 0-2.184-5.264.91.91 0 0 1 .14-1.101l3.636-3.636a1.213 1.213 0 0 0 0-1.713l-4.655-4.655a1.2 1.2 0 0 0-.857-.353c-.325 0-.63.125-.857.353l-3.635 3.635a.906.906 0 0 1-1.101.14 20.5 20.5 0 0 0-5.265-2.183.906.906 0 0 1-.679-.878V4.024c0-.668-.543-1.211-1.211-1.211h-6.584c-.668 0-1.211.543-1.211 1.21v5.14c0 .412-.28.773-.68.877a20.5 20.5 0 0 0-5.264 2.183.906.906 0 0 1-1.1-.14l-3.636-3.635a1.2 1.2 0 0 0-.857-.353c-.326 0-.63.125-.857.353l-4.655 4.655a1.213 1.213 0 0 0 0 1.714l3.635 3.635c.292.292.35.745.14 1.1a20.5 20.5 0 0 0-2.183 5.265.906.906 0 0 1-.878.68H4.024c-.668 0-1.211.543-1.211 1.21v6.585c0 .668.543 1.211 1.21 1.211h5.14c.412 0 .773.28.877.68a20.5 20.5 0 0 0 2.183 5.264.906.906 0 0 1-.14 1.1l-3.635 3.636a1.213 1.213 0 0 0 0 1.714l4.655 4.655.034.032a.906.906 0 0 1-1.232 1.33l-.085-.082-4.654-4.654a3.03 3.03 0 0 1 0-4.276l3.148-3.148a22.3 22.3 0 0 1-1.841-4.438h-4.45A3.027 3.027 0 0 1 1 33.292v-6.584a3.027 3.027 0 0 1 3.024-3.024h4.449a22.3 22.3 0 0 1 1.84-4.438l-3.147-3.148a3.03 3.03 0 0 1 0-4.276l4.656-4.656a3 3 0 0 1 2.138-.883c.81 0 1.569.314 2.138.883l3.148 3.148a22.3 22.3 0 0 1 4.438-1.841v-4.45A3.027 3.027 0 0 1 26.708 1h6.584a3.027 3.027 0 0 1 3.024 3.024v4.449a22.3 22.3 0 0 1 4.438 1.84l3.148-3.147c.57-.57 1.329-.883 2.138-.883.81 0 1.569.314 2.138.883l4.656 4.656a3.03 3.03 0 0 1 0 4.276l-3.148 3.148a22.3 22.3 0 0 1 1.841 4.438h4.449A3.027 3.027 0 0 1 59 26.708M41.035 39.45a.905.905 0 0 0 1.27-.177 15.27 15.27 0 0 0 3.101-9.274c0-8.495-6.91-15.406-15.406-15.406-8.495 0-15.406 6.91-15.406 15.406 0 3.377 1.072 6.584 3.102 9.273a.906.906 0 0 0 1.446-1.092A13.48 13.48 0 0 1 16.406 30c0-7.496 6.098-13.594 13.594-13.594S43.594 22.504 43.594 30c0 2.98-.946 5.81-2.736 8.181a.906.906 0 0 0 .177 1.27m1.825 2.914a9.65 9.65 0 0 1 2.558 6.542v9.187c0 .5-.406.906-.907.906H15.49a.906.906 0 0 1-.907-.906v-9.187c0-2.424.909-4.747 2.558-6.542a9.67 9.67 0 0 1 6.248-3.101.906.906 0 0 1 .931.584l1.649 4.402 1.227 3.222.642-3.403-1.901-3.507a.906.906 0 0 1 .796-1.338h6.536a.906.906 0 0 1 .796 1.338l-1.901 3.507.642 3.403 1.229-3.226 1.647-4.398a.906.906 0 0 1 .93-.584 9.67 9.67 0 0 1 6.249 3.101M28.956 57.187l-4.684-12.296-1.397-3.73c-3.684.667-6.48 3.945-6.48 7.746v8.28zM30 54.838l1.572-4.127-1.25-6.621a.9.9 0 0 1 .094-.6l1.33-2.453h-3.491l1.33 2.453c.098.183.132.395.093.6l-1.25 6.62zm13.605-5.93c0-3.8-2.796-7.08-6.48-7.746l-1.395 3.725-4.686 12.301h12.561zM30 21.767c4.605 0 8.352 3.746 8.352 8.352S34.605 38.47 30 38.47s-8.352-3.746-8.352-8.351 3.747-8.352 8.352-8.352m0 1.812a6.547 6.547 0 0 0-6.54 6.54A6.547 6.547 0 0 0 30 36.658a6.547 6.547 0 0 0 6.54-6.54A6.547 6.547 0 0 0 30 23.58"/></svg>