<svg xmlns="http://www.w3.org/2000/svg" width="60" height="60" fill="none"><path fill="#282928" d="M13.68 7.541a5.477 5.477 0 0 0-5.47 5.471 5.474 5.474 0 0 0 5.47 5.468 5.475 5.475 0 0 0 5.471-5.468 5.48 5.48 0 0 0-5.47-5.47m0 9.298a3.833 3.833 0 0 1-3.83-3.827c0-2.11 1.718-3.83 3.83-3.83a3.835 3.835 0 0 1 3.83 3.83 3.83 3.83 0 0 1-3.83 3.827m37.171 27.143c-4.157 0-7.54 3.382-7.54 7.54s3.383 7.54 7.54 7.54c4.158 0 7.54-3.382 7.54-7.54s-3.382-7.54-7.54-7.54m0 13.44a5.906 5.906 0 0 1-5.9-5.9c0-3.253 2.647-5.9 5.9-5.9s5.9 2.647 5.9 5.9-2.646 5.9-5.9 5.9m-21.84-11.534H14.63c-1.18 0-2.14.96-2.14 2.14v2.674h-.435c-4.858 0-8.81-3.951-8.81-8.807s3.952-8.81 8.81-8.81h8.7v2.675c0 1.18.96 2.139 2.139 2.139h14.207c1.18 0 2.14-.96 2.14-2.14v-6.988a2.14 2.14 0 0 0-2.14-2.136H22.895a2.14 2.14 0 0 0-2.14 2.136v2.674h-8.7c-5.762 0-10.45 4.688-10.45 10.45 0 5.763 4.688 10.447 10.45 10.447h.436v2.675c0 1.179.96 2.139 2.14 2.139h14.38a2.14 2.14 0 0 0 2.135-2.14v-6.989a2.14 2.14 0 0 0-2.136-2.139m-6.614-17.117c0-.273.223-.495.498-.495h14.207c.275 0 .499.222.499.495v6.989a.5.5 0 0 1-.499.498H22.895a.5.5 0 0 1-.498-.498zm7.109 26.246c0 .27-.227.498-.496.498H14.63a.505.505 0 0 1-.498-.498v-6.99c0-.27.228-.498.498-.498h14.38c.269 0 .496.228.496.498zM44.1 34.729a.82.82 0 0 0 0-1.16l-.483-.483h4.325c5.762 0 10.45-4.687 10.45-10.447s-4.688-10.447-10.45-10.447h-.436V9.518c0-1.18-.96-2.14-2.139-2.14h-14.21a2.14 2.14 0 0 0-2.137 2.14v2.674h-3.268v-.628a.82.82 0 0 0-.477-.745l-1.964-.905-.629-1.523.747-2.032a.82.82 0 0 0-.19-.863L21.193 3.45a.82.82 0 0 0-.864-.19l-2.03.75-1.52-.631-.91-1.965a.82.82 0 0 0-.744-.476h-2.893a.82.82 0 0 0-.745.476L10.58 3.38l-1.522.63-2.03-.749a.82.82 0 0 0-.865.19L4.118 5.496a.82.82 0 0 0-.19.864l.75 2.031-.629 1.523-1.966.905a.82.82 0 0 0-.477.745v2.893c0 .32.186.611.476.745l1.967.908.629 1.52-.75 2.031a.82.82 0 0 0 .19.864l2.046 2.046c.226.226.564.3.864.19l2.03-.75 1.523.632.906 1.964a.82.82 0 0 0 .745.477h2.893a.82.82 0 0 0 .745-.476l.908-1.965 1.52-.631 2.03.749c.301.11.638.037.865-.19l2.046-2.046a.82.82 0 0 0 .19-.863l-.746-2.031.628-1.52 1.965-.909a.82.82 0 0 0 .476-.745v-.624h3.269v2.674c0 1.178.958 2.136 2.135 2.136h14.211a2.14 2.14 0 0 0 2.14-2.136v-2.674h.435c4.857 0 8.81 3.95 8.81 8.806s-3.953 8.806-8.81 8.806H43.62l.48-.479a.82.82 0 1 0-1.16-1.161l-1.883 1.88a.82.82 0 0 0 0 1.16l1.883 1.884a.82.82 0 0 0 1.16 0M24.111 13.933l-1.78.822a.82.82 0 0 0-.413.431l-.874 2.113a.82.82 0 0 0-.012.597l.676 1.84-1.304 1.303-1.839-.678a.82.82 0 0 0-.598.012l-2.113.877a.82.82 0 0 0-.43.413l-.823 1.78h-1.844l-.82-1.779a.82.82 0 0 0-.43-.414l-2.117-.877a.82.82 0 0 0-.598-.012l-1.839.678-1.304-1.303.68-1.84a.82.82 0 0 0-.012-.597l-.874-2.113a.82.82 0 0 0-.414-.43l-1.783-.824V12.09l1.782-.82a.82.82 0 0 0 .415-.432l.874-2.116a.82.82 0 0 0 .011-.597l-.679-1.84 1.304-1.303 1.84.679a.82.82 0 0 0 .597-.012l2.116-.877a.82.82 0 0 0 .431-.414l.82-1.779h1.844l.823 1.78a.82.82 0 0 0 .43.413l2.113.877a.82.82 0 0 0 .598.012l1.84-.679 1.303 1.304-.676 1.84a.82.82 0 0 0 .012.596l.874 2.116a.82.82 0 0 0 .414.432l1.779.82zm21.755 2.574a.497.497 0 0 1-.499.495h-14.21a.496.496 0 0 1-.496-.495v-6.99c0-.274.222-.498.495-.498h14.211c.275 0 .499.224.499.498zM41.26 50.942a.82.82 0 0 1 0 1.16l-1.88 1.883a.82.82 0 0 1-1.16.001.82.82 0 0 1-.002-1.16l.483-.484h-5.157a.82.82 0 0 1 0-1.64h5.157l-.483-.484a.82.82 0 1 1 1.161-1.159zm2.588-36.452a.82.82 0 0 1-.82.82h-9.53a.82.82 0 1 1 0-1.64h9.53a.82.82 0 0 1 .82.82m0-2.956a.82.82 0 0 1-.82.82h-5.956a.82.82 0 1 1 0-1.64h5.956a.82.82 0 0 1 .82.82m-11.171 0a.82.82 0 0 1 .82-.82h.728a.82.82 0 0 1 0 1.64h-.728a.82.82 0 0 1-.82-.82m-8.265 22.21a.82.82 0 0 1 .82-.82h9.53a.82.82 0 1 1 0 1.64h-9.53a.82.82 0 0 1-.82-.82m3.575-2.957a.82.82 0 0 1 .82-.82h5.956a.82.82 0 1 1 0 1.64h-5.956a.82.82 0 0 1-.82-.82m-3.575 0a.82.82 0 0 1 .82-.82h.728a.82.82 0 1 1 0 1.64h-.727a.82.82 0 0 1-.82-.82M27.406 53a.82.82 0 0 1-.82.82h-9.534a.82.82 0 1 1 0-1.64h9.534a.82.82 0 0 1 .82.82m0-2.956a.82.82 0 0 1-.82.82H20.63a.82.82 0 1 1 0-1.64h5.956a.82.82 0 0 1 .82.82m-11.174 0a.82.82 0 0 1 .82-.82h.73a.82.82 0 1 1 0 1.64h-.73a.82.82 0 0 1-.82-.82m37.732-.705a.82.82 0 0 1-.023 1.16l-3.362 3.229a.82.82 0 0 1-1.148-.012l-1.681-1.68a.82.82 0 0 1 1.16-1.16l1.112 1.112 2.782-2.672a.82.82 0 0 1 1.16.023"/></svg>