<svg xmlns="http://www.w3.org/2000/svg" width="60" height="60" fill="none"><path fill="#000" d="M58.125 3.75H1.875a.937.937 0 0 0-.937.938v43.125a.937.937 0 0 0 .937.937h19.688v2.813H18.75a.94.94 0 0 0-.89.64l-.937 2.813a.94.94 0 0 0 .89 1.234h24.375a.937.937 0 0 0 .889-1.234l-.937-2.812a.94.94 0 0 0-.89-.642h-2.812V48.75h19.687a.94.94 0 0 0 .938-.937V4.688a.94.94 0 0 0-.938-.938M40.574 53.438l.313.937H19.113l.313-.937zm-17.136-1.876V48.75h13.125v2.813zm33.75-4.687H2.813v-2.812h54.375zm0-4.687H2.813V5.624h54.375z"/><path fill="#000" d="M26.25 28.125a.94.94 0 0 0 .938-.937v-1.875h1.875v1.875a.938.938 0 0 0 1.875 0v-5.625a.94.94 0 0 0-.938-.938h-3.75a.94.94 0 0 0-.937.938v5.625a.94.94 0 0 0 .937.937m2.813-5.625v.938h-1.875V22.5zM33.75 28.125a.94.94 0 0 0 .938-.937v-5.625a.938.938 0 0 0-1.876 0v5.625a.94.94 0 0 0 .938.937"/><path fill="#000" d="M11.25 27.188a2.82 2.82 0 0 0 2.652-1.875h4.848v.937a.94.94 0 0 0 .938.938h2.355q.15.42.343.824l-1.05 1.05h-4.46a.94.94 0 0 0-.938.938v2.813h-.161a2.813 2.813 0 1 0 0 1.874h1.098a.94.94 0 0 0 .938-.937v-2.812h2.846a1 1 0 0 0 .06.066l2.652 2.652a.94.94 0 0 0 1.326 0l1.667-1.666q.402.193.824.342v2.355a.94.94 0 0 0 .937.938h3.75a.94.94 0 0 0 .938-.937v-2.356q.42-.15.824-.343l1.667 1.667a.94.94 0 0 0 1.326 0l2.652-2.652a1 1 0 0 0 .06-.067h2.846v2.813a.94.94 0 0 0 .937.938h1.1a2.812 2.812 0 1 0 0-1.876h-.162V30a.94.94 0 0 0-.938-.937h-4.46l-1.05-1.051q.193-.404.342-.825h2.356a.94.94 0 0 0 .937-.937v-.937h4.85a2.812 2.812 0 1 0 0-1.875h-4.85V22.5a.94.94 0 0 0-.937-.937h-2.356q-.148-.422-.342-.825l1.05-1.05h4.46a.94.94 0 0 0 .938-.938v-2.812h.161a2.812 2.812 0 1 0 0-1.876h-1.099a.94.94 0 0 0-.937.938v2.813h-2.846l-.06-.067-2.652-2.652a.94.94 0 0 0-1.326 0l-1.667 1.666a8 8 0 0 0-.824-.342v-2.355a.94.94 0 0 0-.938-.938h-3.75a.94.94 0 0 0-.937.938v2.355q-.421.15-.824.343l-1.667-1.667a.94.94 0 0 0-1.326 0l-2.652 2.652a1 1 0 0 0-.06.067h-2.846V15a.94.94 0 0 0-.938-.937h-1.098a2.813 2.813 0 1 0 0 1.874h.16v2.813a.94.94 0 0 0 .938.938h4.46l1.051 1.05a8 8 0 0 0-.343.825h-2.355a.94.94 0 0 0-.938.937v.938h-4.848a2.813 2.813 0 1 0-2.652 3.75m1.875 7.5a.937.937 0 1 1 0-1.875.937.937 0 0 1 0 1.874m33.75-1.876a.937.937 0 1 1 0 1.875.937.937 0 0 1 0-1.874m1.875-9.374a.937.937 0 1 1 0 1.874.937.937 0 0 1 0-1.875m-1.875-9.375a.937.937 0 1 1 0 1.874.937.937 0 0 1 0-1.874m-33.75 1.874a.937.937 0 1 1 0-1.874.937.937 0 0 1 0 1.874m7.5 7.5h2.112a.94.94 0 0 0 .908-.703c.153-.594.39-1.163.702-1.69a.94.94 0 0 0-.144-1.14l-1.495-1.495 1.326-1.326 1.495 1.495a.94.94 0 0 0 1.14.144 6.5 6.5 0 0 1 1.69-.703.94.94 0 0 0 .704-.908V15h1.875v2.111a.94.94 0 0 0 .704.908c.594.154 1.163.39 1.69.703a.94.94 0 0 0 1.14-.145l1.495-1.494 1.325 1.326-1.494 1.495a.94.94 0 0 0-.144 1.14c.312.527.549 1.096.702 1.69a.94.94 0 0 0 .908.703h2.111v1.875h-2.111a.94.94 0 0 0-.908.704 6.5 6.5 0 0 1-.702 1.69.94.94 0 0 0 .144 1.14l1.494 1.495-1.325 1.326-1.495-1.495a.94.94 0 0 0-1.14-.144 6.5 6.5 0 0 1-1.69.703.94.94 0 0 0-.704.908v2.111h-1.875v-2.111a.94.94 0 0 0-.704-.908 6.5 6.5 0 0 1-1.69-.703.94.94 0 0 0-1.14.145l-1.495 1.494-1.326-1.326 1.495-1.495a.94.94 0 0 0 .144-1.14 6.5 6.5 0 0 1-.702-1.69.94.94 0 0 0-.908-.703h-2.112zm-9.375 0a.937.937 0 1 1 0 1.875.937.937 0 0 1 0-1.875"/></svg>