<svg xmlns="http://www.w3.org/2000/svg" width="60" height="60" fill="none"><path fill="#000" d="M50.625 11.25h-2.812V5.625A4.693 4.693 0 0 0 43.125.938h-26.25a4.693 4.693 0 0 0-4.687 4.687v5.625H9.375a.94.94 0 0 0-.937.938V41.25a.937.937 0 0 0 .937.938h2.813v12.187a4.693 4.693 0 0 0 4.687 4.688h26.25a4.693 4.693 0 0 0 4.688-4.688V42.188h2.812a.94.94 0 0 0 .938-.938V12.188a.94.94 0 0 0-.938-.938M14.063 5.625a2.815 2.815 0 0 1 2.812-2.812h26.25a2.815 2.815 0 0 1 2.813 2.812v5.625H14.061zm-3.75 7.5h39.375v5.625H10.313zm35.625 41.25a2.815 2.815 0 0 1-2.813 2.813h-26.25a2.815 2.815 0 0 1-2.812-2.813v-4.687h31.874zm0-6.562H14.061v-5.626h31.876zm3.75-7.5H10.313V20.625h39.375z"/><path fill="#000" d="M46.875 16.875a.937.937 0 1 0 0-1.875.937.937 0 0 0 0 1.875M43.125 16.875a.937.937 0 1 0 0-1.875.937.937 0 0 0 0 1.875M39.375 16.875a.937.937 0 1 0 0-1.875.937.937 0 0 0 0 1.875M30 56.25a2.813 2.813 0 1 0 0-5.625 2.813 2.813 0 0 0 0 5.625m0-3.75a.937.937 0 1 1 0 1.875.937.937 0 0 1 0-1.875M37.5 54.375h3.75a.938.938 0 0 0 0-1.875H37.5a.938.938 0 0 0 0 1.875M18.75 54.375h3.75a.938.938 0 0 0 0-1.875h-3.75a.938.938 0 0 0 0 1.875M33.75 4.688h-7.5a.937.937 0 0 0 0 1.875h7.5a.937.937 0 0 0 0-1.875M37.5 6.563a.937.937 0 1 0 0-1.875.937.937 0 0 0 0 1.875M22.306 35.35a.937.937 0 0 0 1.325-1.325L19.607 30l4.024-4.024a.938.938 0 0 0-1.325-1.326l-4.688 4.687a.94.94 0 0 0 0 1.326zM36.368 35.35a.937.937 0 0 0 1.326 0l4.687-4.687a.94.94 0 0 0 0-1.326l-4.687-4.687a.937.937 0 0 0-1.326 1.326L40.393 30l-4.025 4.025a.94.94 0 0 0 0 1.325M26.819 37.425a.937.937 0 0 0 1.23-.493l5.626-13.125a.938.938 0 0 0-1.724-.739l-5.625 13.125a.94.94 0 0 0 .492 1.232"/></svg>