<svg xmlns="http://www.w3.org/2000/svg" width="60" height="60" fill="none"><path fill="#000" d="M58.125 18.75c0-9.305-7.57-16.875-16.875-16.875S24.375 9.445 24.375 18.75c0 1.432.199 2.813.535 4.142l-1.67 1.115a2.8 2.8 0 0 0-1.677-.57c-.631 0-1.209.217-1.679.57l-4.04-2.699c.055-.22.094-.446.094-.683a2.816 2.816 0 0 0-2.813-2.812 2.816 2.816 0 0 0-2.812 2.812c0 .237.038.463.093.683l-4.04 2.699a2.8 2.8 0 0 0-1.678-.57 2.816 2.816 0 0 0-2.813 2.813 2.816 2.816 0 0 0 2.813 2.813A2.816 2.816 0 0 0 7.5 26.25c0-.237-.038-.463-.094-.683l4.04-2.699c.47.353 1.048.57 1.679.57.63 0 1.208-.217 1.678-.57l4.04 2.699c-.055.22-.093.446-.093.683a2.816 2.816 0 0 0 2.813 2.813 2.816 2.816 0 0 0 2.812-2.813c0-.237-.038-.463-.094-.683l1.217-.813c2.104 5.497 6.993 9.613 12.94 10.617v4.004H37.5a.937.937 0 0 0-.937.938v13.124a4.693 4.693 0 0 0 4.687 4.688 4.693 4.693 0 0 0 4.688-4.687V40.312a.937.937 0 0 0-.938-.937h-.937v-4.004c7.967-1.345 14.062-8.276 14.062-16.621M4.688 27.188a.938.938 0 0 1 0-1.875.938.938 0 0 1 0 1.875m8.437-5.625a.938.938 0 0 1 0-1.875.938.938 0 0 1 0 1.875m8.438 5.625a.938.938 0 0 1 0-1.875.938.938 0 0 1 0 1.875m5.538-3.504 1.22-.816c.47.353 1.048.57 1.679.57.63 0 1.208-.217 1.678-.57l4.04 2.699c-.055.22-.093.446-.093.683a2.816 2.816 0 0 0 2.813 2.813 2.816 2.816 0 0 0 2.812-2.813c0-.433-.106-.838-.282-1.205l7.782-7.782v4.3h1.875V15a.937.937 0 0 0-.937-.937h-6.563v1.874h4.3l-7.783 7.783a2.8 2.8 0 0 0-1.205-.282c-.63 0-1.208.216-1.678.569l-4.04-2.699c.055-.22.093-.446.093-.683A2.816 2.816 0 0 0 30 17.813a2.816 2.816 0 0 0-2.812 2.812c0 .237.038.463.093.683l-.72.481a15 15 0 0 1-.311-3.039c0-8.27 6.73-15 15-15s15 6.73 15 15-6.73 15-15 15c-6.54 0-12.102-4.215-14.149-10.066m1.962-3.059a.938.938 0 0 1 1.875 0 .938.938 0 0 1-1.875 0m10.312 5.625a.938.938 0 0 1-1.875 0 .938.938 0 0 1 1.875 0m4.688 27.188a2.816 2.816 0 0 1-2.813 2.812 2.816 2.816 0 0 1-2.812-2.812V41.25h5.624zm-1.876-14.063h-1.874v-3.798c.312.018.62.048.937.048s.625-.03.938-.048z"/><path fill="#000" d="m31.268 23.941-1.663.867a13.2 13.2 0 0 0 4.648 5.047l1-1.585a11.3 11.3 0 0 1-3.985-4.329M54.376 18.75c0-7.238-5.888-13.125-13.125-13.125a13.07 13.07 0 0 0-12.774 10.097l1.825.431A11.2 11.2 0 0 1 41.25 7.5c6.203 0 11.25 5.047 11.25 11.25S47.454 30 41.25 30c-.58 0-1.163-.044-1.733-.132l-.285 1.853c.664.102 1.342.154 2.018.154 7.237 0 13.125-5.887 13.125-13.125M1.875 1.875H7.5V3.75H1.875zM9.375 1.875H22.5V3.75H9.375zM1.875 5.625h12.188V7.5H1.874zM15.938 5.625H22.5V7.5h-6.562zM1.875 9.375H3.75v1.875H1.875zM5.625 9.375h5.625v1.875H5.625zM13.125 9.375H22.5v1.875h-9.375zM1.875 13.125h6.563V15H1.875zM10.313 13.125H22.5V15H10.313zM33.75 46.875a.937.937 0 0 0-.937-.937h-4.688v-3.75a.937.937 0 0 0-.937-.938H22.5V37.5a.937.937 0 0 0-.937-.937h-4.688v-3.75a.937.937 0 0 0-.937-.938h-5.626a.937.937 0 0 0-.937.938v8.437H4.688a.937.937 0 0 0-.938.938V56.25H1.875v1.875h33.75V56.25H33.75zm-28.125-3.75h3.75V56.25h-3.75zm5.625-.937V33.75H15v22.5h-3.75zm5.625-3.75h3.75V56.25h-3.75zm5.625 4.687h3.75V56.25H22.5zm5.625 13.125v-8.437h3.75v8.437z"/></svg>