<svg xmlns="http://www.w3.org/2000/svg" width="60" height="60" fill="none"><g fill="#000" clip-path="url(#a)"><path d="M31.862 21.409a.94.94 0 0 0-.925-.784h-1.875a.94.94 0 0 0-.924.784l-.938 5.625a.94.94 0 0 0 .262.816l1.875 1.875a.935.935 0 0 0 1.325 0l1.875-1.875a.93.93 0 0 0 .262-.816zM30 27.737l-.871-.871.727-4.366h.287l.727 4.366z"/><path d="M51.563 48.834v-6.647a2.816 2.816 0 0 0-2.813-2.812H30.938v-5.673c8.867-.49 15.937-7.84 15.937-16.827C46.875 7.57 39.305 0 30 0S13.125 7.57 13.125 16.875c0 8.988 7.07 16.337 15.938 16.827v5.673H11.25a2.816 2.816 0 0 0-2.812 2.813v6.646c-2.656.448-4.688 2.76-4.688 5.541A5.63 5.63 0 0 0 9.375 60 5.63 5.63 0 0 0 15 54.375c0-2.782-2.032-5.093-4.687-5.54v-6.648c0-.517.42-.937.937-.937h17.813v7.584c-2.656.45-4.688 2.76-4.688 5.541A5.63 5.63 0 0 0 30 60a5.63 5.63 0 0 0 5.625-5.625c0-2.782-2.032-5.093-4.687-5.54V41.25H48.75c.517 0 .938.42.938.938v6.646c-2.656.45-4.688 2.76-4.688 5.541A5.63 5.63 0 0 0 50.625 60a5.63 5.63 0 0 0 5.625-5.625c0-2.782-2.032-5.093-4.687-5.54M22.5 29.845v-2.657c0-4.136 3.365-7.5 7.5-7.5s7.5 3.364 7.5 7.5v2.657a14.9 14.9 0 0 1-7.5 2.03c-2.734 0-5.291-.747-7.5-2.03m2.813-16.72A4.693 4.693 0 0 1 30 8.438a4.693 4.693 0 0 1 4.688 4.687A4.693 4.693 0 0 1 30 17.813a4.693 4.693 0 0 1-4.687-4.688M15 16.875c0-8.27 6.73-15 15-15s15 6.73 15 15c0 4.724-2.201 8.94-5.625 11.69v-1.378c0-3.867-2.354-7.194-5.705-8.625a6.56 6.56 0 0 0 2.892-5.437A6.57 6.57 0 0 0 30 6.563a6.57 6.57 0 0 0-6.562 6.562 6.56 6.56 0 0 0 2.892 5.438c-3.35 1.43-5.705 4.757-5.705 8.625v1.378C17.201 25.814 15 21.599 15 16.875m-1.875 37.5a3.754 3.754 0 0 1-3.75 3.75 3.754 3.754 0 0 1-3.75-3.75 3.754 3.754 0 0 1 3.75-3.75 3.754 3.754 0 0 1 3.75 3.75m20.625 0a3.754 3.754 0 0 1-3.75 3.75 3.754 3.754 0 0 1-3.75-3.75 3.754 3.754 0 0 1 3.75-3.75 3.754 3.754 0 0 1 3.75 3.75m16.875 3.75a3.754 3.754 0 0 1-3.75-3.75 3.754 3.754 0 0 1 3.75-3.75 3.754 3.754 0 0 1 3.75 3.75 3.754 3.754 0 0 1-3.75 3.75"/></g><defs><clipPath id="a"><path fill="#fff" d="M0 0h60v60H0z"/></clipPath></defs></svg>