<svg xmlns="http://www.w3.org/2000/svg" width="60" height="60" fill="none"><g fill="#000" clip-path="url(#a)"><path d="M23.46 4.387h-9.177a.879.879 0 1 0 0 1.758h9.176a.879.879 0 1 0 0-1.758M7.08 6.145h2.674a.879.879 0 1 0 0-1.758H7.08a.879.879 0 1 0 0 1.758M7.08 10.357h9.176a.879.879 0 1 0 0-1.757H7.08a.879.879 0 1 0 0 1.757M23.46 8.6h-2.675a.879.879 0 1 0 0 1.757h2.675a.879.879 0 1 0 0-1.757"/><path d="M54.406 19.085a4.18 4.18 0 0 0-4.077 3.295h-4.801a9.1 9.1 0 0 0-2.01-4.86l6.037-6.042a5.85 5.85 0 0 0 4.13 1.69c1.578 0 3.06-.615 4.173-1.731a5.87 5.87 0 0 0 1.73-4.177 5.87 5.87 0 0 0-1.73-4.176 5.86 5.86 0 0 0-4.173-1.729 5.86 5.86 0 0 0-4.173 1.73 5.87 5.87 0 0 0-1.73 4.175c0 .995.245 1.952.704 2.802l-.017.016-6.195 6.2a9 9 0 0 0-1.22-.846 8.95 8.95 0 0 0-6.845-.9 9 9 0 0 0-3.395 1.746l-2.784-2.786c.304-.465.481-1.02.481-1.616V2.964A2.966 2.966 0 0 0 25.55 0H5.602A2.966 2.966 0 0 0 2.64 2.964v8.912a2.966 2.966 0 0 0 2.962 2.964h6.927a.879.879 0 1 0 0-1.758H5.602a1.206 1.206 0 0 1-1.204-1.206V2.964c0-.665.54-1.206 1.204-1.206H25.55c.664 0 1.204.54 1.204 1.206v8.912c0 .665-.54 1.206-1.204 1.206h-8.96a.879.879 0 1 0 0 1.758h8.96c.397 0 .776-.08 1.122-.221l2.903 2.906a9.04 9.04 0 0 0-1.9 7.404l-10.532 6.09h-.002a9.4 9.4 0 0 0-4.817-3.08 9.4 9.4 0 0 0-7.18.948C.622 31.5-.932 37.304 1.677 41.825a9.4 9.4 0 0 0 5.745 4.416 9.405 9.405 0 0 0 7.184-.948c4.481-2.588 6.045-8.313 3.53-12.819l10.046-5.808a8.96 8.96 0 0 0 5.145 5.033v8.56c0 .443-.024.768-.056 1.002-1.788-2.59-3.435-4.503-6.6-3.952-1.038.183-1.823.781-2.154 1.642-.338.877-.145 1.885.532 2.769l7.387 10.845c1.413 2.08 1.652 3.346 1.652 5.399A2.04 2.04 0 0 0 36.127 60h13.847a2.04 2.04 0 0 0 2.039-2.036v-3.585c0-1.303.272-1.833.648-2.567.402-.78.9-1.753 1.114-3.737a1 1 0 0 0 .005-.094v-3.01a.879.879 0 1 0-1.758 0v2.962c-.18 1.627-.558 2.364-.924 3.076-.415.807-.843 1.642-.843 3.37v3.585a.283.283 0 0 1-.28.278H36.126a.283.283 0 0 1-.28-.278c0-2.328-.303-3.955-1.957-6.388L26.488 40.71l-.032-.045c-.304-.39-.412-.785-.298-1.081.104-.272.403-.47.818-.543 2.029-.353 3.115.695 4.932 3.34l.039.052c.663.826 1.326 1.13 1.972.902.807-.284 1.167-1.232 1.167-3.075V23.466c0-1.178.785-1.596 1.458-1.596s1.458.418 1.458 1.595v15.158a.879.879 0 1 0 1.758 0V31.59c0-1.178.786-1.596 1.458-1.596a1.6 1.6 0 0 1 .574.108c.478.189.885.641.885 1.488v8.207a.879.879 0 1 0 1.758 0v-6.215c0-1.178.785-1.596 1.458-1.596s1.458.418 1.458 1.596v7.389a.879.879 0 1 0 1.758 0v-5.397c0-1.179.784-1.597 1.456-1.597.381 0 .747.139 1.003.38.301.284.454.693.454 1.216v5.338a.879.879 0 1 0 1.758 0v-5.338c0-2.202-1.618-3.354-3.215-3.354-.544 0-1.089.134-1.572.396-.397-1.57-1.755-2.387-3.1-2.387a3.3 3.3 0 0 0-1.574.397 3.1 3.1 0 0 0-.886-1.53 9 9 0 0 0 2.096-4.957h4.8a4.18 4.18 0 0 0 4.077 3.292 4.174 4.174 0 0 0 4.168-4.17 4.175 4.175 0 0 0-4.168-4.175m-3.65-14.758a4.11 4.11 0 0 1 2.93-1.214c1.106 0 2.147.431 2.93 1.214A4.12 4.12 0 0 1 57.83 7.26a4.12 4.12 0 0 1-1.216 2.935 4.1 4.1 0 0 1-2.929 1.216 4.1 4.1 0 0 1-2.93-1.217A4.12 4.12 0 0 1 49.54 7.26a4.12 4.12 0 0 1 1.215-2.934M13.727 43.771a7.65 7.65 0 0 1-5.85.772 7.65 7.65 0 0 1-4.677-3.596c-2.125-3.683-.86-8.41 2.821-10.539a7.65 7.65 0 0 1 5.846-.771 7.65 7.65 0 0 1 4.68 3.596c2.127 3.685.862 8.412-2.82 10.538m30.086-20.498a7.27 7.27 0 0 1-2.016 5.015 3.34 3.34 0 0 0-2.038.285v-5.108c0-2.2-1.618-3.353-3.216-3.353s-3.216 1.152-3.216 3.354v6.319a7.23 7.23 0 0 1-3.807-4.644c-1.036-3.877 1.27-7.874 5.143-8.911a7.2 7.2 0 0 1 5.51.724 7.22 7.22 0 0 1 3.39 4.421c.166.617.248 1.243.25 1.863v.035m10.592 2.4a2.416 2.416 0 0 1 0-4.83 2.416 2.416 0 0 1 0 4.83"/><path d="M11.026 32.788a4.42 4.42 0 0 0-3.38.446 4.46 4.46 0 0 0-1.626 6.085 4.42 4.42 0 0 0 2.702 2.075 4.431 4.431 0 0 0 3.379-.446 4.46 4.46 0 0 0 1.628-6.082 4.42 4.42 0 0 0-2.703-2.078m.195 6.638c-.623.36-1.35.456-2.044.27a2.68 2.68 0 0 1-1.635-1.255 2.7 2.7 0 0 1 .984-3.685 2.68 2.68 0 0 1 2.045-.27 2.7 2.7 0 0 1 .65 4.94"/></g><defs><clipPath id="a"><path fill="#fff" d="M0 0h60v60H0z"/></clipPath></defs></svg>