<svg xmlns="http://www.w3.org/2000/svg" width="64" height="64" fill="none"><path fill="#57AAA6" fill-rule="evenodd" d="M25.71 37.972a.875.875 0 1 1 0-1.75h5.056a.875.875 0 0 1 0 1.75zm3.771 10.722h8.73v11.431c0 .483.391.875.874.875h20.189a.875.875 0 0 0 .875-.875V44.843c0-3.648-2.676-6.737-6.214-7.32 3.599-2.847 3.92-8.196.67-11.446a7.67 7.67 0 0 0-10.85 0c-3.25 3.25-2.93 8.598.67 11.445a7.46 7.46 0 0 0-5.805 4.895h-3.242l3.067-11.018c.206-.64-.254-1.178-.821-1.178H34.42v-3.5c0-3.706-2.76-6.83-6.373-7.346 3.2-2.695 3.413-7.549.452-10.51a7.14 7.14 0 0 0-10.096 0c-2.96 2.961-2.747 7.815.452 10.51-3.613.515-6.373 3.64-6.373 7.346v13.441h-2.104a.875.875 0 0 0-.875.875l.01 1.38H5.741c-1.043 0-1.893.85-1.893 1.893v2.49c0 1.044.85 1.894 1.893 1.894h1.96v11.431c0 .483.392.875.875.875h5.141a.875.875 0 0 0 .875-.875v-3.033h14.014a.875.875 0 0 0 .875-.875zm-14.889 6.648v-6.648h13.139v6.648zm-5.14-6.648h3.39V59.25h-3.39zm.716-4.527a3.4 3.4 0 0 0 2.737 1.386h20.938v-.003a.87.87 0 0 0 .84-.64l.208-.743h3.35q-.03.334-.03.676v2.101H5.74a.146.146 0 0 1-.143-.144v-2.49c0-.077.066-.143.143-.143zm23.202-1.042a1 1 0 0 1 .038-.136l3.066-11.018H21.687l-3.293 11.832H33.18zm-.7-12.904v-3.5c0-3.117-2.553-5.67-5.669-5.67h-7.1c-3.116 0-5.67 2.553-5.67 5.67v13.441h3.364l2.588-9.298a.87.87 0 0 1 .841-.64v-.003zM17.108 41.912l-.526 1.89h-3.677a1.66 1.66 0 0 1-1.471-.903c-.186-.364-.181-.605-.181-.987zm36.26-14.598a5.923 5.923 0 1 1-8.377 8.375 5.923 5.923 0 0 1 8.376-8.375M27.26 10.103a5.389 5.389 0 1 1-7.621 7.62 5.389 5.389 0 0 1 7.621-7.62M37.511 3h19.286a2.994 2.994 0 0 1 2.988 2.988v6.488a2.994 2.994 0 0 1-2.988 2.988h-5.951l-6.82 4.243a.873.873 0 0 1-1.332-.801l.007-3.442h-5.19a2.994 2.994 0 0 1-2.988-2.988V5.988A2.994 2.994 0 0 1 37.511 3m19.286 1.75c.68 0 1.238.559 1.238 1.238v6.488c0 .68-.559 1.238-1.238 1.238H50.6a.87.87 0 0 0-.506.161l-5.653 3.517.006-2.803a.87.87 0 0 0-.872-.871v-.004h-6.063a1.244 1.244 0 0 1-1.238-1.238V5.988c0-.68.559-1.238 1.238-1.238zM39.05 8.842a.875.875 0 1 1 0-1.75h12.48a.875.875 0 0 1 0 1.75zm0 2.866a.875.875 0 1 1 0-1.75H53.2a.875.875 0 1 1 0 1.75zm.91 47.542V44.843c0-3.117 2.553-5.67 5.67-5.67h7.1c3.116 0 5.669 2.553 5.669 5.67V59.25z" clip-rule="evenodd"/></svg>