<svg xmlns="http://www.w3.org/2000/svg" width="64" height="64" fill="none"><g fill="#D0513E" clip-path="url(#a)"><path d="M54.52 55.561H15.2c-1.44 0-2.61-1.17-2.61-2.61v-1.89c0-.27.22-.49.49-.49h18.7l7.03-13.69c.08-.16.25-.27.44-.27h24.26c.17 0 .33.09.42.23.09.15.1.33.02.48l-8.98 17.97c-.09.16-.26.27-.45.27m-23.69-.99h23.39l8.49-16.98H39.55l-7.03 13.69zm-17.26-3.02v1.4c0 .9.73 1.63 1.63 1.63h14.52l1.55-3.03z"/><path d="M13.079 53.441h-7.3c-2.43 0-4.4-1.98-4.4-4.4v-4.94a.49.49 0 0 1 .98 0v4.93c0 1.89 1.53 3.42 3.42 3.42h7.3c.27 0 .49.22.49.49a.5.5 0 0 1-.49.5"/><path d="M35.13 45.625c-.26 0-.48-.2-.49-.46-.54-8.95-3.77-13.81-9.88-14.82-1.07 3.57-4.41 5.12-7.4 5.08-2.88-.05-6.1-1.65-7.01-5.14-5.2.21-9.36 4.5-9.36 9.74v3.58h7.22v-4.78a.49.49 0 0 1 .98 0v5.27c0 .27-.22.49-.49.49H.49c-.27.02-.49-.2-.49-.48v-4.07c0-5.92 4.82-10.74 10.74-10.74.23 0 .44.17.48.39.7 3.44 3.75 4.71 6.16 4.75 2.73.07 5.75-1.41 6.54-4.76.06-.25.28-.41.54-.38 6.83.91 10.58 6.23 11.16 15.8.02.27-.19.5-.46.52-.01.01-.02.01-.03.01"/><path d="M19.58 51.551a.49.49 0 0 1-.49-.49v-.88c0-1.29-1.05-2.34-2.34-2.34H7.47a.49.49 0 0 1-.49-.49v-3.25a.49.49 0 0 1 .98 0v2.74h8.78c1.83 0 3.33 1.49 3.33 3.33v.88c0 .28-.22.5-.49.5M35.052 44.604h-8.64a.49.49 0 0 1-.49-.49v-5.03a.49.49 0 0 1 .98 0v4.54h8.15a.49.49 0 0 1 0 .98"/><path d="M27.85 51.551a.49.49 0 0 1-.49-.49v-6.96a.49.49 0 0 1 .98 0v6.95c0 .28-.22.5-.49.5M17.48 31.254c-3.56 0-6.5-2.89-6.57-6.45l-.01-.27c-1.24-.84-2.07-1.82-2.47-2.93v-.01a.4.4 0 0 1-.02-.1l-.35-2.89c-.21-1.82.33-3.61 1.48-4.93 2.49-2.83 6.21-4.07 11.09-3.69.44.03.87-.08 1.2-.34l1.43-1.09c.1-.08.24-.12.37-.1s.25.09.33.19c2.96 3.97 2.99 8.42.1 10.92v5.12c-.01 3.62-2.96 6.57-6.58 6.57m-8.05-9.79c.38.9 1.11 1.68 2.22 2.38.14.09.22.24.23.41l.01.53c.05 3.02 2.56 5.48 5.59 5.48a5.6 5.6 0 0 0 5.59-5.59v-5.16c-2.09-2.19-3.94-3.17-5.43-2.95-1.28.19-2.43 1.29-3.4 3.27a.48.48 0 0 1-.29.25.5.5 0 0 1-.38-.03c-.82-.43-1.59-.53-2.28-.29-1.02.35-1.64 1.3-1.86 1.7m9.53-10.57c-3.77 0-6.69 1.15-8.68 3.43-.97 1.11-1.42 2.62-1.24 4.17l.18 1.57c.41-.47.99-.96 1.74-1.22.82-.28 1.7-.23 2.6.14 1.09-2.02 2.41-3.15 3.92-3.38 1.82-.27 3.82.73 6.1 3.05 2.2-2.09 2.15-5.68-.14-9.01l-1.02.78c-.52.4-1.18.59-1.87.54-.54-.05-1.07-.07-1.59-.07"/><path d="M15.01 35.024c-.09 0-.18-.02-.26-.07a.5.5 0 0 1-.16-.68c.72-1.17.21-3.18-.04-3.86a.48.48 0 0 1 .29-.63c.25-.1.54.03.63.29.04.12 1.08 2.91-.04 4.73-.1.14-.26.22-.42.22M22.27 33.772c-.08 0-.17-.02-.24-.06-1.83-1.04-1.26-4.23-1.23-4.37.05-.27.3-.44.57-.39s.44.31.39.57c-.13.73-.26 2.75.75 3.33.24.13.32.43.18.67-.08.16-.25.25-.42.25M37.301 28.884c-.06 0-.11-.01-.17-.03a.497.497 0 0 1-.29-.63c.31-.83.1-1.54-.67-2.24-.45-.41-.61-1.03-.42-1.59l.18-.5c.2-.59.76-.99 1.39-.99h.74c.51 0 .99-.26 1.23-.68.53-.9.47-2.27-.13-3.13-.22-.32-.66-.47-1.07-.36l-.48.13c-.54.19-1.21 0-1.66-.51-.42-.47-.53-1.09-.28-1.6.14-.3.21-.54.21-.76 0-.31-.08-.56-.25-.79-.15-.2-.56-.34-.82-.29l-.49.1a.5.5 0 0 1-.58-.38c-.05-.27.12-.53.38-.58l.49-.1c.63-.13 1.43.15 1.81.65.3.39.45.86.45 1.38 0 .37-.1.75-.31 1.19-.11.23.07.46.12.52.15.16.4.31.63.23l.51-.14c.81-.22 1.67.08 2.14.74.84 1.18.91 2.95.18 4.2-.42.72-1.22 1.16-2.08 1.16h-.74c-.21 0-.39.13-.46.33l-.18.5c-.07.19-.01.39.15.54 1.05.96 1.37 2.1.92 3.31-.07.2-.25.32-.45.32M44.001 30.533h-.04a.5.5 0 0 1-.46-.53c.05-.71.25-1.39.59-2.02.39-.73.54-1.56.45-2.38l-.04-.32c-.02-.21-.03-.36-.03-.52 0-1.37.24-3.24 2.33-3.75.47-.11.98-.13 1.54-.06 1.26.18 1.75-.02 1.93-.21.17-.17.21-.49.12-.93-.61-2.66 1.56-4.04 1.76-4.16.2-.13.47-.09.63.09.18.2.17.51-.03.69-.03.02-.06.05-.09.06-.07.04-1.78 1.06-1.31 3.11.15.79.03 1.39-.37 1.81-.51.54-1.39.7-2.78.51-.44-.06-.83-.05-1.18.04-1.12.27-1.58 1.08-1.58 2.79 0 .13.01.26.02.4l.04.34a5.1 5.1 0 0 1-.56 2.95c-.27.51-.43 1.06-.47 1.63 0 .26-.21.46-.47.46M45.402 16.11c-.48 0-.97-.06-1.46-.17-.61-.14-1.17-.55-1.51-1.12l-.48-.78c-.16-.26-.26-.53-.31-.81-.09-.51-.46-.82-.76-.99-.44-.26-.79-.65-1.03-1.15l-.36-.8c-.11-.25 0-.54.24-.65s.54 0 .65.24l.36.8c.14.31.36.55.62.71.68.39 1.12.98 1.23 1.68.03.15.09.31.18.47l.48.78c.21.35.54.59.89.67.64.15 1.27.19 1.87.11.33-.04.66-.24.91-.54.38-.46.9-.77 1.47-.88l2.58-.5c.27-.05.53.12.58.39s-.12.53-.39.58l-2.58.5c-.35.06-.66.25-.89.53-.41.5-.96.82-1.54.89-.25.02-.5.04-.75.04"/><path d="M42.94 30.58c-5.91 0-10.72-4.81-10.72-10.72S37.03 9.14 42.94 9.14s10.72 4.81 10.72 10.72-4.81 10.72-10.72 10.72m0-20.45c-5.37 0-9.74 4.37-9.74 9.74s4.37 9.74 9.74 9.74 9.73-4.37 9.73-9.74-4.36-9.74-9.73-9.74M47.021 51.953h-.05l-1.47-.17a.6.6 0 0 1-.37-.21.6.6 0 0 1-.11-.41l.05-.47c-.3-.13-.59-.29-.85-.48l-.38.3a.57.57 0 0 1-.4.11.6.6 0 0 1-.37-.21l-.91-1.16a.57.57 0 0 1-.11-.4c.02-.13.1-.29.21-.37l.37-.29c-.12-.3-.21-.62-.26-.94l-.47-.05c-.27-.03-.5-.33-.48-.6l.17-1.48c.03-.27.35-.51.6-.48l.48.06c.13-.3.29-.59.48-.85l-.3-.38c-.17-.21-.13-.59.08-.76l1.17-.92c.1-.08.27-.13.4-.11s.29.1.37.21l.29.37c.3-.12.62-.21.94-.26l.06-.48c.01-.13.1-.28.2-.36s.27-.14.4-.12l1.47.17c.13.02.29.1.37.21.08.1.13.27.11.4l-.06.47c.3.13.58.29.85.48l.38-.3c.21-.17.59-.12.76.09l.92 1.17c.08.1.13.27.11.4s-.1.29-.2.37l-.38.3c.12.3.21.62.26.94l.48.06c.13.02.28.1.37.21.08.1.13.28.11.41l-.17 1.46c-.02.13-.1.28-.2.36a.65.65 0 0 1-.4.12l-.48-.06c-.13.3-.29.59-.48.85l.3.38c.08.1.13.27.11.4s-.1.29-.21.37l-1.16.91c-.21.17-.6.12-.76-.09l-.3-.38c-.3.12-.62.21-.94.26l-.06.48c-.01.13-.1.28-.2.36-.07.06-.22.11-.34.11m-.96-1.11.59.07.05-.38c.03-.23.26-.46.5-.48.44-.04.87-.16 1.27-.36.21-.1.52-.04.66.14l.24.31.47-.37-.24-.3c-.14-.18-.14-.5.01-.68.29-.35.51-.73.65-1.16.07-.22.34-.4.58-.37l.38.05.07-.59-.38-.05a.595.595 0 0 1-.48-.5c-.04-.44-.16-.87-.36-1.27-.1-.21-.03-.52.15-.67l.3-.24-.37-.47-.3.24c-.18.14-.51.14-.69-.01-.34-.29-.73-.5-1.15-.65-.22-.07-.4-.35-.37-.58l.05-.38-.59-.07-.05.38c-.03.23-.26.46-.5.48-.44.04-.87.16-1.27.36-.21.11-.53.03-.68-.16l-.23-.29-.47.37.24.3c.15.19.14.51-.02.69-.28.34-.5.72-.64 1.15a.62.62 0 0 1-.58.37l-.38-.05-.07.59.38.05c.23.03.46.26.48.5.04.44.16.87.36 1.27.11.21.03.53-.16.67l-.29.23.37.47.3-.24c.18-.14.51-.14.68.01.35.29.73.51 1.16.65.22.07.39.35.37.58z"/><path d="M46.88 49.102c-.1 0-.2-.01-.31-.02a2.605 2.605 0 0 1-1.31-4.63c.55-.43 1.22-.62 1.92-.54.69.08 1.31.43 1.74.97a2.606 2.606 0 0 1-2.04 4.22m-.01-4.22c-.36 0-.71.12-1 .35-.34.27-.56.65-.61 1.08-.1.89.53 1.69 1.42 1.8s1.69-.53 1.8-1.42c.1-.89-.53-1.69-1.42-1.8-.06-.01-.13-.01-.19-.01"/></g><defs><clipPath id="a"><path fill="#fff" d="M0 0h64v64H0z"/></clipPath></defs></svg>