<svg xmlns="http://www.w3.org/2000/svg" width="60" height="60" fill="none"><g fill="#000" clip-path="url(#a)"><path d="M25.43 42.773a1.172 1.172 0 1 0-.001-2.344 1.172 1.172 0 0 0 0 2.344"/><path d="M.46 45.477 14.524 59.54c.458.457 1.2.457 1.657 0l7.735-7.735c.457-.458.457-1.2 0-1.657l-.344-.343h16.893c1.483 0 2.9-.556 3.99-1.57l14.218-13.324a4.55 4.55 0 0 0 1.121-4.996 4.51 4.51 0 0 0-2.795-2.62 4.51 4.51 0 0 0-3.803.464l-3.156 2.071c-.022-6.352-3.861-13.126-9.146-16.176A3.524 3.524 0 0 0 39.34 8q-.087-.028-.173-.054l3.016-5.42a1.17 1.17 0 0 0-.696-1.694 24 24 0 0 0-6.682-.948c-2.27 0-4.52.319-6.682.947a1.173 1.173 0 0 0-.697 1.696l3.017 5.419-.176.055a3.523 3.523 0 0 0-2.24 4.44c.151.458.39.866.693 1.213-5.364 3.095-9.15 9.939-9.15 16.23q.001.257.01.509a14.4 14.4 0 0 0-5.691 3.053l-3.562 3.116-.475-.475a1.17 1.17 0 0 0-1.657 0L.46 43.82a1.17 1.17 0 0 0 0 1.657m29.755-42.76c1.501-.326 3.04-.49 4.59-.49s3.088.164 4.59.49l-2.611 4.69a14.3 14.3 0 0 0-3.958 0zm.783 7.51a12.13 12.13 0 0 1 7.61-.002c.615.203.95.868.748 1.481a1.165 1.165 0 0 1-1.041.804 11.46 11.46 0 0 0-7.02-.002h-.001a1.17 1.17 0 0 1-1.04-.801 1.175 1.175 0 0 1 .744-1.48m.649 4.634a9.14 9.14 0 0 1 6.174-.05c5.445 1.873 9.874 8.634 9.874 15.072 0 .546-.034 1.066-.102 1.552l-5.632 3.695a4.66 4.66 0 0 0-3.64-1.732h-2.344v-1.373a3.52 3.52 0 0 0 2.343-3.314 3.52 3.52 0 0 0-3.515-3.516 1.173 1.173 0 0 1-1.172-1.172c0-.646.526-1.171 1.172-1.171.415 0 .853.212 1.267.612a1.172 1.172 0 0 0 1.63-1.684c-.595-.576-1.19-.901-1.725-1.079v-1.365a1.172 1.172 0 1 0-2.344 0v1.373a3.52 3.52 0 0 0-2.344 3.314 3.52 3.52 0 0 0 3.516 3.516 1.173 1.173 0 0 1 0 2.344c-.501 0-1.041-.315-1.522-.887a1.172 1.172 0 0 0-1.794 1.509c.626.745 1.363 1.264 2.144 1.526v1.367h-.39c-.576 0-.835-.375-1.24-.637a14.5 14.5 0 0 0-8.637-2.878q-.726 0-1.451.074v-.074c0-6.348 4.365-13.086 9.732-15.022M15.432 35.208a12.06 12.06 0 0 1 7.934-2.981c2.59 0 5.158.855 7.23 2.408.299.175 1.13 1.107 2.646 1.107h5.078a2.34 2.34 0 0 1 2.344 2.344 2.346 2.346 0 0 1-2.344 2.344h-8.203a1.172 1.172 0 1 0 0 2.343h8.203a4.693 4.693 0 0 0 4.62-5.482l11.507-7.55a2.177 2.177 0 0 1 3.17 1.045c.338.844.126 1.79-.544 2.411L42.856 46.521a3.5 3.5 0 0 1-2.392.94H21.227l-9.239-9.24zm-6.409 3.363L21.43 50.977l-6.077 6.077L2.946 44.648z"/></g><defs><clipPath id="a"><path fill="#fff" d="M0 0h60v60H0z"/></clipPath></defs></svg>