<svg xmlns="http://www.w3.org/2000/svg" width="50" height="50" fill="none"><path fill="#000" d="M25.653 27.288a.8.8 0 0 0-.281-.01 1.865 1.865 0 0 1-1.65-1.849.82.82 0 0 0-1.64 0 3.51 3.51 0 0 0 2.58 3.379v.82a.82.82 0 0 0 1.64 0v-.77a3.502 3.502 0 0 0-.718-6.93 1.862 1.862 0 1 1 1.863-1.863.82.82 0 0 0 1.64 0 3.51 3.51 0 0 0-2.785-3.428v-.747a.82.82 0 1 0-1.64 0v.797a3.502 3.502 0 0 0 .922 6.88 1.86 1.86 0 0 1 .069 3.721"/><path fill="#000" d="M13.691 22.81c0 6.568 5.325 11.893 11.893 11.893s11.893-5.325 11.893-11.893-5.324-11.893-11.893-11.893c-6.565.007-11.885 5.328-11.893 11.893m11.893-10.253c5.663 0 10.253 4.59 10.253 10.253 0 5.662-4.59 10.253-10.253 10.253-5.662 0-10.252-4.59-10.252-10.253.006-5.66 4.593-10.246 10.252-10.253"/><path fill="#000" d="m41.52 36.725-6.424 3.035a5.23 5.23 0 0 0-4.461-2.753l-5.93-.163a6.3 6.3 0 0 1-2.696-.696l-.604-.312a10.64 10.64 0 0 0-9.86.01l.038-1.367a.82.82 0 0 0-.797-.843l-6.504-.179a.82.82 0 0 0-.842.798l-.393 14.271a.82.82 0 0 0 .798.843l6.503.179h.022a.82.82 0 0 0 .82-.798l.02-.683 1.689-.904a2.9 2.9 0 0 1 2.163-.237l10.089 2.832.053.013a10.942 10.942 0 0 0 6.789-.769 1 1 0 0 0 .102-.056l14.628-9.462a.82.82 0 0 0 .269-1.093 4.143 4.143 0 0 0-5.471-1.666M4.71 47.752l.347-12.632 4.864.133-.348 12.633zm26.544-.215a9.3 9.3 0 0 1-5.687.635l-10.061-2.825a4.54 4.54 0 0 0-3.381.37l-.864.463.232-8.4a9.02 9.02 0 0 1 9.158-.488l.604.313a7.9 7.9 0 0 0 3.404.88l5.932.162a3.6 3.6 0 0 1 3.418 2.867l-8.834-.244a.82.82 0 0 0-.046 1.64l9.75.268h.023a.82.82 0 0 0 .82-.798 5.2 5.2 0 0 0-.08-1.064l6.59-3.113.019-.01a2.51 2.51 0 0 1 2.833.398zM26.406 8.612V.82a.82.82 0 0 0-1.64 0v7.792a.82.82 0 0 0 1.64 0M32.554 8.611v-3.69a.82.82 0 0 0-1.64 0v3.69a.82.82 0 0 0 1.64 0M20.254 8.611v-3.69a.82.82 0 0 0-1.64 0v3.69a.82.82 0 0 0 1.64 0"/></svg>