<svg xmlns="http://www.w3.org/2000/svg" width="60" height="60" fill="none"><path fill="#000" d="M52.65 33.11a.94.94 0 0 0-.937.937v7.921a.94.94 0 0 1-.938.938H6.563a.94.94 0 0 1-.938-.938V13.75a.94.94 0 0 1 .938-.937h19.621a.938.938 0 0 0 0-1.876H6.563A2.815 2.815 0 0 0 3.75 13.75v28.218a2.816 2.816 0 0 0 2.813 2.813h18.17v2.87a9 9 0 0 1-.291 2.236c-10.031.6-13.655 3.215-13.822 3.34a.938.938 0 0 0 1.119 1.505c.043-.031 4.403-3.096 16.929-3.096 13.4.065 16.297 3.065 17.485 3.279a.944.944 0 0 0 .563-1.687c-.167-.126-3.791-2.74-13.823-3.34a22.2 22.2 0 0 1-.29-5.107h18.172a2.815 2.815 0 0 0 2.813-2.813v-7.92a.94.94 0 0 0-.938-.938M26.382 49.797a10.8 10.8 0 0 0 .226-2.145v-2.871h4.12a27 27 0 0 0 .226 5.016 74 74 0 0 0-4.573 0"/><path fill="#000" d="M54.404 17.1a.14.14 0 0 1-.122-.088c-.307-1.635-1.122-2.747-1.562-3.98a2.01 2.01 0 0 0-.12-2.728l-1.574-1.575a2.007 2.007 0 0 0-2.73-.12 22.4 22.4 0 0 0-3.977-1.561.14.14 0 0 1-.09-.127 2.01 2.01 0 0 0-2.013-1.843h-2.227a2.01 2.01 0 0 0-2.01 1.811c.002.066-.032.145-.092.158-1.35.325-2.643.86-3.829 1.583a.13.13 0 0 1-.15-.022 2.01 2.01 0 0 0-2.728.12l-1.575 1.576a2.01 2.01 0 0 0-.12 2.727c-.437 1.228-1.257 2.355-1.562 3.981a.14.14 0 0 1-.125.088 2.01 2.01 0 0 0-1.843 2.013v2.227a2.01 2.01 0 0 0 1.847 2.013.13.13 0 0 1 .12.089c.31 1.636 1.127 2.752 1.564 3.98a2.01 2.01 0 0 0 .12 2.727l1.575 1.576a2.01 2.01 0 0 0 2.726.119.135.135 0 0 1 .151-.022 13.3 13.3 0 0 0 3.831 1.584c.058.012.09.095.092.159a2.007 2.007 0 0 0 2.008 1.81h2.227a2.01 2.01 0 0 0 2.013-1.848.14.14 0 0 1 .09-.12 22.4 22.4 0 0 0 3.978-1.565 2.01 2.01 0 0 0 2.728-.117l1.576-1.576a2.01 2.01 0 0 0 .119-2.728c.438-1.229 1.258-2.353 1.562-3.98a.14.14 0 0 1 .126-.088 2.01 2.01 0 0 0 1.843-2.013v-2.227a2.01 2.01 0 0 0-1.847-2.013m-.028 4.24a.145.145 0 0 1-.137.145 2.005 2.005 0 0 0-1.78 1.518 11.4 11.4 0 0 1-1.36 3.29 2 2 0 0 0 .184 2.333.144.144 0 0 1-.008.197L49.699 30.4a.147.147 0 0 1-.197.007 2.01 2.01 0 0 0-2.332-.185 11.4 11.4 0 0 1-3.289 1.362 2 2 0 0 0-1.52 1.783.146.146 0 0 1-.145.134h-2.227a.16.16 0 0 1-.15-.172 2 2 0 0 0-1.512-1.745 11.4 11.4 0 0 1-3.29-1.362 2.01 2.01 0 0 0-2.335.186.144.144 0 0 1-.196-.008l-1.575-1.576a.145.145 0 0 1-.008-.197 2 2 0 0 0 .184-2.334 11.4 11.4 0 0 1-1.36-3.288 2 2 0 0 0-1.784-1.519.144.144 0 0 1-.133-.145v-2.227a.146.146 0 0 1 .137-.145 2 2 0 0 0 1.78-1.517 11.4 11.4 0 0 1 1.36-3.29 2 2 0 0 0-.184-2.335.145.145 0 0 1 .008-.196l1.575-1.576a.144.144 0 0 1 .196-.01 2 2 0 0 0 2.334.187 11.4 11.4 0 0 1 3.29-1.362 2 2 0 0 0 1.514-1.745.157.157 0 0 1 .15-.17h2.226a.145.145 0 0 1 .145.136 2.005 2.005 0 0 0 1.518 1.78c1.161.279 2.271.737 3.29 1.36a2 2 0 0 0 2.334-.184.145.145 0 0 1 .196.008l1.576 1.576a.145.145 0 0 1 .01.196 2 2 0 0 0-.187 2.333 11.4 11.4 0 0 1 1.362 3.292 2 2 0 0 0 1.783 1.517.145.145 0 0 1 .133.145z"/><path fill="#000" d="M41.102 11.348a8.879 8.879 0 1 0 8.878 8.878 8.89 8.89 0 0 0-8.878-8.878m0 15.882a7.004 7.004 0 1 1 7.003-7.004 7.01 7.01 0 0 1-7.003 7.004M13.405 30.855a.94.94 0 0 0-1.326 0L8.913 34.02a.936.936 0 0 0 0 1.325l3.166 3.166a.939.939 0 0 0 1.6-.663.94.94 0 0 0-.274-.662l-2.503-2.503 2.503-2.504a.935.935 0 0 0 0-1.325M23.157 37.187a.937.937 0 0 0 1.326 1.325l3.166-3.166a.94.94 0 0 0 0-1.325l-3.166-3.166a.938.938 0 0 0-1.326 1.325l2.503 2.503zM18.163 31.29l-1.582 6.333a.934.934 0 0 0 .682 1.136.936.936 0 0 0 1.136-.682l1.582-6.332a.937.937 0 0 0-1.818-.454"/></svg>