<svg xmlns="http://www.w3.org/2000/svg" width="50" height="50" fill="none"><g fill="#000" clip-path="url(#a)"><path d="M28.337 22.578a3.363 3.363 0 0 0-3.354-3.364 3.363 3.363 0 0 0-3.354 3.364 3.37 3.37 0 0 0 2.502 3.254l.017 3.564c.003.471.385.839.855.839h.004a.84.84 0 0 0 .85-.842l-.016-3.563a3.37 3.37 0 0 0 2.496-3.252m-3.354 1.655a1.65 1.65 0 0 1-1.645-1.655c0-.912.738-1.655 1.645-1.655s1.644.743 1.644 1.655-.737 1.655-1.644 1.655"/><path d="M46.792 21.582c-1.473 0-2.716.96-3.092 2.35h-5.753c.338-1.603.583-3.206.774-4.915h4.174c.472 0 .802-.35.802-.821v-8.163a3.198 3.198 0 0 0-.81-6.294c-1.77 0-3.229 1.438-3.229 3.205 0 1.47 1.047 2.71 2.33 3.087v7.277h-3.09c.124-1.282.223-2.663.315-4.024.037-.546-.455-.962-.984-.88-1.015.194-2.041.34-3.077.34-3.439 0-6.599-1.559-9.61-4.72q-.64-.546-1.262.024c-3.196 3.75-7.632 5.31-12.508 4.356-.532-.104-1.054.334-1.017.88.094 1.382.192 2.742.313 4.024H8.227V10.03c1.282-.377 2.34-1.617 2.34-3.087a3.214 3.214 0 0 0-3.213-3.205 3.204 3.204 0 0 0-3.202 3.205 3.18 3.18 0 0 0 2.365 3.09v8.161c0 .473.365.822.837.822h3.887c.189 1.71.43 3.312.762 4.915H6.3a3.17 3.17 0 0 0-3.092-2.35A3.21 3.21 0 0 0 0 24.786a3.21 3.21 0 0 0 3.208 3.205c1.473 0 2.716-.961 3.092-2.35h6.11c.458 1.713 1.105 3.302 1.826 4.915H7.354c-.472 0-.837.35-.837.821v8.591a3.18 3.18 0 0 0-2.362 3.088 3.206 3.206 0 0 0 3.203 3.205 3.216 3.216 0 0 0 3.215-3.205 3.166 3.166 0 0 0-2.347-3.088v-7.703h6.988c2.19 3.419 5.318 5.827 9.483 7.38q.302.09.604.001c4.127-1.578 7.234-4.07 9.416-7.381h7.27v7.703c-1.282.375-2.327 1.617-2.327 3.088 0 1.767 1.453 3.205 3.222 3.205a3.193 3.193 0 0 0 3.188-3.205 3.19 3.19 0 0 0-2.373-3.088v-8.59c0-.473-.33-.822-.802-.822h-7.194c.734-1.608 1.38-3.204 1.837-4.915H43.7a3.17 3.17 0 0 0 3.092 2.35A3.21 3.21 0 0 0 50 24.786a3.21 3.21 0 0 0-3.208-3.204m-5.39-14.638a1.499 1.499 0 0 1 2.997 0 1.499 1.499 0 0 1-2.998 0m-35.552 0a1.499 1.499 0 0 1 2.998 0 1.499 1.499 0 0 1-2.998 0M3.208 26.28c-.826 0-1.499-.67-1.499-1.495a1.499 1.499 0 0 1 2.998 0c0 .825-.672 1.495-1.499 1.495m5.644 16.775a1.499 1.499 0 0 1-2.997 0 1.499 1.499 0 0 1 2.997 0m35.542 0a1.499 1.499 0 0 1-2.997 0 1.499 1.499 0 0 1 2.997 0M12.536 14.258c4.612.595 9.323-.842 12.428-4.395 3.36 3.258 7.74 5.177 12.469 4.389-.8 10.984-2.446 19.677-12.44 23.66-10.002-3.89-11.652-12.614-12.457-23.654m34.256 12.023c-.827 0-1.5-.67-1.5-1.495a1.499 1.499 0 0 1 2.999 0c0 .825-.673 1.495-1.5 1.495"/></g><defs><clipPath id="a"><path fill="#fff" d="M0 0h50v50H0z"/></clipPath></defs></svg>