<svg xmlns="http://www.w3.org/2000/svg" width="60" height="60" fill="none"><g fill="#000" clip-path="url(#a)"><path d="M45 60c-.165 0-.33-.032-.485-.097C43.92 59.651 30 53.636 30 41.341V30.893c0-.537.343-1.012.85-1.185l13.75-4.642c.26-.088.542-.088.8 0l13.75 4.642c.508.17.85.648.85 1.185v10.448c0 12.295-13.92 18.31-14.515 18.562-.155.065-.32.098-.485.098M32.5 31.794v9.548c0 9.46 10.138 14.895 12.5 16.032 2.36-1.14 12.5-6.597 12.5-16.032v-9.548L45 27.571z"/><path d="M43.75 47.5q-.035 0-.067-.002a1.24 1.24 0 0 1-.907-.467l-5-6.25a1.25 1.25 0 0 1 .195-1.758 1.26 1.26 0 0 1 1.757.195l4.125 5.158 7.763-7.76a1.25 1.25 0 0 1 1.767 1.767l-8.75 8.75a1.25 1.25 0 0 1-.882.368M46.25 20H8.75C3.925 20 0 16.075 0 11.25S3.925 2.5 8.75 2.5h37.5c4.825 0 8.75 3.925 8.75 8.75S51.075 20 46.25 20M8.75 5a6.255 6.255 0 0 0-6.25 6.25 6.255 6.255 0 0 0 6.25 6.25h37.5a6.255 6.255 0 0 0 6.25-6.25A6.255 6.255 0 0 0 46.25 5z"/><path d="M11.25 15a3.755 3.755 0 0 1-3.75-3.75 3.755 3.755 0 0 1 3.75-3.75A3.755 3.755 0 0 1 15 11.25 3.755 3.755 0 0 1 11.25 15m0-5c-.687 0-1.25.563-1.25 1.25s.563 1.25 1.25 1.25 1.25-.562 1.25-1.25S11.938 10 11.25 10M23.75 15A3.755 3.755 0 0 1 20 11.25a3.755 3.755 0 0 1 3.75-3.75 3.755 3.755 0 0 1 3.75 3.75A3.755 3.755 0 0 1 23.75 15m0-5c-.687 0-1.25.563-1.25 1.25s.563 1.25 1.25 1.25S25 11.938 25 11.25 24.438 10 23.75 10M23.75 35h-15C3.925 35 0 31.075 0 26.25c0-2.335.91-4.53 2.565-6.185A8.69 8.69 0 0 1 8.75 17.5h37.5c1.955 0 3.797.628 5.32 1.815a1.25 1.25 0 1 1-1.538 1.973A6.1 6.1 0 0 0 46.25 20H8.75a6.22 6.22 0 0 0-4.417 1.832A6.2 6.2 0 0 0 2.5 26.25a6.255 6.255 0 0 0 6.25 6.25h15a1.25 1.25 0 0 1 0 2.5"/><path d="M11.25 30a3.755 3.755 0 0 1-3.75-3.75 3.755 3.755 0 0 1 3.75-3.75A3.755 3.755 0 0 1 15 26.25 3.755 3.755 0 0 1 11.25 30m0-5c-.687 0-1.25.563-1.25 1.25s.563 1.25 1.25 1.25 1.25-.562 1.25-1.25S11.938 25 11.25 25M23.75 30A3.755 3.755 0 0 1 20 26.25a3.755 3.755 0 0 1 3.75-3.75 3.755 3.755 0 0 1 3.75 3.75A3.755 3.755 0 0 1 23.75 30m0-5c-.687 0-1.25.563-1.25 1.25s.563 1.25 1.25 1.25S25 26.938 25 26.25 24.438 25 23.75 25M23.75 50h-15C3.925 50 0 46.075 0 41.25c0-2.335.91-4.53 2.565-6.185A8.69 8.69 0 0 1 8.75 32.5h15a1.25 1.25 0 0 1 0 2.5h-15a6.22 6.22 0 0 0-4.417 1.833A6.2 6.2 0 0 0 2.5 41.25a6.255 6.255 0 0 0 6.25 6.25h15a1.25 1.25 0 0 1 0 2.5"/><path d="M11.25 45a3.755 3.755 0 0 1-3.75-3.75 3.755 3.755 0 0 1 3.75-3.75A3.755 3.755 0 0 1 15 41.25 3.755 3.755 0 0 1 11.25 45m0-5c-.687 0-1.25.563-1.25 1.25s.563 1.25 1.25 1.25 1.25-.562 1.25-1.25S11.938 40 11.25 40M23.75 45A3.755 3.755 0 0 1 20 41.25a3.755 3.755 0 0 1 3.75-3.75 3.755 3.755 0 0 1 3.75 3.75A3.755 3.755 0 0 1 23.75 45m0-5c-.687 0-1.25.563-1.25 1.25s.563 1.25 1.25 1.25S25 41.938 25 41.25 24.438 40 23.75 40"/></g><defs><clipPath id="a"><path fill="#fff" d="M0 0h60v60H0z"/></clipPath></defs></svg>