<svg xmlns="http://www.w3.org/2000/svg" width="60" height="60" fill="none"><path stroke="#000" stroke-linecap="round" stroke-linejoin="round" stroke-miterlimit="10" stroke-width="2" d="M34.44 42.84c.12.72.24 1.56.36 2.28.12.96-.72 1.68-1.56 1.56-.72-.12-1.56-.24-2.28-.36-.36-.12-.6 0-.84.12H30c-.24.12-.48.36-.72.6-.36.6-.84 1.32-1.32 1.8-.6.72-1.68.72-2.28 0-.48-.6-.96-1.2-1.32-1.8-.12-.24-.36-.48-.72-.6h-.12c-.24-.12-.6-.12-.84-.12-.72.12-1.56.24-2.28.36-.96.12-1.68-.72-1.56-1.56.12-.72.24-1.56.36-2.28.12-.36 0-.6-.12-.84v-.12c-.12-.24-.36-.48-.6-.72-.48-.36-1.08-.84-1.68-1.32-.72-.6-.72-1.68 0-2.28.6-.48 1.2-.96 1.8-1.32.24-.12.48-.36.6-.72v-.12c.12-.24.12-.6.12-.84-.12-.72-.24-1.56-.36-2.28-.12-.96.72-1.68 1.56-1.56.72.12 1.56.24 2.28.36.36.12.6 0 .84-.12h.12c.24-.12.48-.36.72-.6.36-.6.84-1.32 1.32-1.8.6-.72 1.68-.72 2.28 0 .48.6.96 1.2 1.32 1.8.12.24.36.48.72.6h.12c.24.12.6.12.84.12.72-.12 1.56-.24 2.28-.36.96-.12 1.68.72 1.56 1.56-.12.72-.24 1.56-.36 2.28-.12.36 0 .6.12.84v.12c.12.24.36.48.6.72.6.36 1.32.84 1.8 1.32.72.6.72 1.68 0 2.28-.6.48-1.2.96-1.8 1.32-.24.12-.48.36-.6.72V42c-.24.24-.24.48-.24.84"/><path stroke="#000" stroke-linecap="round" stroke-linejoin="round" stroke-miterlimit="10" stroke-width="2" d="M26.88 42.48a3.72 3.72 0 1 0 0-7.44 3.72 3.72 0 0 0 0 7.44M49.2 51.238c.12.36.12.72.12 1.08 0 .48-.36.84-.72.72-.36 0-.72-.12-1.08-.12h-.36c-.12 0-.24.12-.36.24-.24.24-.36.6-.6.84-.24.36-.84.36-1.08 0-.24-.24-.48-.6-.6-.84-.12-.12-.24-.24-.36-.24s-.24-.12-.36 0c-.36.12-.72.12-1.08.12-.48 0-.84-.36-.72-.72 0-.36.12-.72.12-1.08v-.36c0-.12-.12-.24-.24-.36-.24-.24-.6-.36-.84-.6-.36-.24-.36-.84 0-1.08.24-.24.6-.48.84-.6.12-.12.24-.24.24-.36s.12-.24 0-.36c-.12-.36-.12-.72-.12-1.08 0-.48.36-.84.72-.72.36 0 .72.12 1.08.12h.36c.12 0 .24-.12.36-.24.24-.24.36-.6.6-.84.24-.36.84-.36 1.08 0 .24.24.48.6.6.84.12.12.24.24.36.24s.24.12.36 0c.36-.12.72-.12 1.08-.12.48 0 .84.36.72.72 0 .36-.12.72-.12 1.08v.36c0 .12.12.24.24.36.24.24.6.36.84.6.36.24.36.84 0 1.08-.24.24-.6.48-.84.6-.12.12-.24.24-.24.36-.12 0-.12.24 0 .36"/><path stroke="#000" stroke-linecap="round" stroke-linejoin="round" stroke-miterlimit="10" stroke-width="2" d="M53.64 57.84H6.36c-2.4 0-4.32-1.92-4.32-4.32V6.36c0-2.4 1.92-4.32 4.32-4.32h47.16c2.4 0 4.32 1.92 4.32 4.32v47.16c.12 2.4-1.92 4.32-4.2 4.32M2.158 13.318h55.8"/><path stroke="#000" stroke-linecap="round" stroke-linejoin="round" stroke-miterlimit="10" stroke-width="2" d="M12.599 17.639v2.52c0 1.2-.96 2.16-2.16 2.16s-2.16-.96-2.16-2.16v-2.52c-1.8.84-2.88 2.88-2.64 5.04.36 2.16 2.04 3.84 4.2 4.08 2.88.36 5.4-1.92 5.4-4.8 0-1.92-1.08-3.6-2.64-4.32M12.72 54.24v-2.52c0-1.2-.96-2.16-2.16-2.16s-2.16.96-2.16 2.16v2.52c-1.8-.84-3-2.88-2.64-5.04s2.04-3.72 4.08-4.08c2.88-.36 5.4 1.92 5.4 4.8.12 1.92-.96 3.6-2.52 4.32M8.398 45.598v-19.44M12.598 26.158v19.44M44.4 20.52c-2.16.48-3.96 2.16-4.44 4.32-.36 1.68 0 3.36.84 4.68.36.48.6.96.84 1.56.48 1.2.72 2.52.72 3.84v.36h6.48v-.36c0-1.68.36-3.36 1.2-4.8.12-.24.24-.36.36-.6.72-.96 1.08-2.04 1.08-3.36 0-3.6-3.36-6.36-7.08-5.64M47.4 35.28v1.68c0 .96-.84 1.8-1.8 1.8s-1.8-.84-1.8-1.8v-1.68zM45.6 17.758v-.36M54.12 26.28h.36M36.84 26.28h.24M41.4 18.838l-.24-.24M53.04 21.958l.24-.12M37.92 30.719l.36-.24M38.28 21.958l-.36-.12M53.28 30.719l-.24-.24M49.92 18.838l.12-.24M45.6 35.279v-7.32M44.04 27.959h3.12M9.48 9.958a2.28 2.28 0 1 0 0-4.56 2.28 2.28 0 0 0 0 4.56M17.64 9.958a2.28 2.28 0 1 0 0-4.56 2.28 2.28 0 0 0 0 4.56M25.678 9.958a2.28 2.28 0 1 0 0-4.56 2.28 2.28 0 0 0 0 4.56"/></svg>