<svg xmlns="http://www.w3.org/2000/svg" width="60" height="60" fill="none"><path fill="#000" d="M57.188 30.938H31.875V5.625a.936.936 0 0 0-.937-.937H4.688A2.816 2.816 0 0 0 1.874 7.5v32.813a2.816 2.816 0 0 0 2.813 2.812h19.687v7.5h-2.812a.936.936 0 0 0-.938.938v3.75a.936.936 0 0 0 .938.937h16.875a.936.936 0 0 0 .937-.937v-3.75a.936.936 0 0 0-.937-.938h-2.813v-7.5h19.688a2.816 2.816 0 0 0 2.812-2.812v-8.438a.936.936 0 0 0-.937-.937M4.688 6.563H30v3.75H3.75V7.5a.94.94 0 0 1 .938-.937M37.5 54.375h-15V52.5h15zm-3.75-3.75h-7.5v-7.5h2.813v2.813a.938.938 0 0 0 1.875 0v-2.813h2.812zm22.5-10.312a.94.94 0 0 1-.937.937H4.688a.94.94 0 0 1-.938-.937V12.186H30v19.688a.936.936 0 0 0 .938.938H56.25z"/><path fill="#000" d="M5.625 9.375a.937.937 0 1 0 0-1.875.937.937 0 0 0 0 1.875M8.438 9.375a.937.937 0 1 0 0-1.875.937.937 0 0 0 0 1.875M11.25 9.375a.937.937 0 1 0 0-1.875.937.937 0 0 0 0 1.875M28.125 15a.936.936 0 0 0-.937-.937h-3.75A.936.936 0 0 0 22.5 15v3.75h-2.812a.936.936 0 0 0-.938.938V22.5h-2.812a.936.936 0 0 0-.938.938v3.75h-2.812a.936.936 0 0 0-.938.937v2.813H8.438a.936.936 0 0 0-.938.937v2.813H5.625v1.874h26.25v-1.874h-3.75zM9.375 32.813h1.875v1.874H9.375zm3.75-3.75H15v5.625h-1.875zm3.75-4.688h1.875v10.313h-1.875zm3.75-3.75H22.5v14.063h-1.875zm3.75 14.063v-18.75h1.875v18.75zM35.625 34.688H33.75v1.874h1.875zM40.313 25.313a2.812 2.812 0 1 0-2.652-3.75H33.75v1.875h3.911a2.82 2.82 0 0 0 2.651 1.875m0-3.75a.937.937 0 1 1 0 1.874.937.937 0 0 1 0-1.875M55.313 4.688a2.82 2.82 0 0 0-2.652 1.875h-2.036a.94.94 0 0 0-.712.327l-4.966 5.794-3.034-3.034a.94.94 0 0 0-.663-.275h-7.5v1.875h7.112l3.475 3.475A.94.94 0 0 0 45 15h4.849a2.812 2.812 0 1 0 0-1.875h-2.81l4.017-4.687h1.605a2.812 2.812 0 1 0 2.651-3.75M52.5 13.125a.937.937 0 1 1 0 1.875.937.937 0 0 1 0-1.875m2.813-4.687a.937.937 0 1 1 0-1.875.937.937 0 0 1 0 1.875"/><path fill="#000" d="M44.063 9.375a2.812 2.812 0 1 0-2.652-3.75H33.75V7.5h7.661a2.82 2.82 0 0 0 2.651 1.875m0-3.75a.937.937 0 1 1 0 1.874.937.937 0 0 1 0-1.874M42.462 17.538a2.813 2.813 0 1 0 1.326-1.326l-1.875-1.875a.94.94 0 0 0-.663-.274h-7.5v1.874h7.112zm3.475 1.212a.937.937 0 1 1-1.874 0 .937.937 0 0 1 1.874 0"/><path fill="#000" d="m48.545 27.773 2.887-3.609a2.814 2.814 0 1 0-1.4-1.253l-2.67 3.34H33.75v1.874h14.063a.94.94 0 0 0 .732-.352m3.955-7.148a.937.937 0 1 1 0 1.873.937.937 0 0 1 0-1.873"/></svg>