<svg xmlns="http://www.w3.org/2000/svg" width="71" height="60" fill="none"><g fill="#000" clip-path="url(#a)"><path d="m40.808 9.535 7.265-4.121c.842-.466.09-1.775-.752-1.294l-7.28 4.122c-.842.481-.075 1.774.767 1.293M47.848 11.385l-5.25 2.045c-.902.346-.511 1.805.391 1.444l5.25-2.03c.902-.346.511-1.805-.392-1.46M37.663 4.692l4.437-3.46c.767-.586-.3-1.654-1.068-1.067l-4.437 3.46c-.767.6.3 1.654 1.068 1.067M14.74 24.442a2.65 2.65 0 0 1-.24-2.03 2.59 2.59 0 0 1 1.249-1.61l.676-.376-.752-1.309-.662.376a4.12 4.12 0 0 0-1.97 2.512 4.17 4.17 0 0 0 .391 3.174z"/><path d="M68.995 31.782a1.173 1.173 0 0 0 1.173-1.173V18.86a1.17 1.17 0 0 0-.421-.902h-.015a1.2 1.2 0 0 0-.737-.256h-8.138v1.504h5.957l-7.01 4.407a.75.75 0 0 1-.752 0l-7.024-4.422h6.107v-1.504h-8.288a1.16 1.16 0 0 0-1.063.675c-.073.156-.11.326-.11.498v.527H38.22l-1.504-2.648a5.144 5.144 0 0 0-1.79-9.01 5 5 0 0 0-3.219.166l-3.625-6.392a1.31 1.31 0 0 0-1.78-.49 1.3 1.3 0 0 0-.476.475l-6.693 11.386a4.6 4.6 0 0 1-1.715 1.685l-5.069 2.872a6.45 6.45 0 0 0-2.12 1.956H6.407A2.723 2.723 0 0 0 3.7 22.095v31.106H1.068A1.07 1.07 0 0 0 0 54.269v3.264a2.48 2.48 0 0 0 2.467 2.466H11.4v-1.504H2.467a.963.963 0 0 1-.963-.962v-2.828h60.933v2.828a.96.96 0 0 1-.963.962h-47.35V60h47.35a2.467 2.467 0 0 0 2.467-2.467v-3.264a1.05 1.05 0 0 0-1.053-1.068h-2.632v-3.79h8.739a1.173 1.173 0 0 0 1.173-1.174V36.475a1.175 1.175 0 0 0-1.173-1.173h-8.74v-3.52zm-9.567-6.558a2.23 2.23 0 0 0 1.174-.346l8.062-5.084v10.484H50.178V19.794l8.062 5.084c.356.225.768.345 1.188.346M34.52 9.19a3.625 3.625 0 0 1 2.542 4.467 3.66 3.66 0 0 1-1.098 1.76l-1.76-3.099L32.46 9.22a3.57 3.57 0 0 1 2.06-.03m-7.58-6.633 6.422 11.326 2.075 3.655 3.415 6.031h-2.347L25.751 4.587zM13.085 18.74l5.069-2.873a6.1 6.1 0 0 0 2.271-2.226l4.437-7.566 9.898 17.463-8.77-.075a6.3 6.3 0 0 0-3.068.797h-.03l-4.527 2.557h.015l-.542.316a4.828 4.828 0 0 1-4.753-8.393m9.25 7.58 4.453 7.852-1.158.046a2.15 2.15 0 0 1-1.97-1.114l-3.235-5.7zm46.328 21.585H50.178v-11.1h18.486zm-9.912-12.604h-8.905a1.17 1.17 0 0 0-1.173 1.173v11.762a1.174 1.174 0 0 0 1.173 1.173h8.905v3.79H5.204V22.096a1.203 1.203 0 0 1 1.204-1.203h3.068c-.045.12-.075.24-.12.361a6.347 6.347 0 0 0 9.235 7.205l.527-.316 3.234 5.716a3.68 3.68 0 0 0 3.203 1.865h.136l1.399-.045a1.34 1.34 0 0 0 1.128-.707 1.31 1.31 0 0 0 0-1.324l-4.573-8.062h.015a4.8 4.8 0 0 1 2.316-.602l13.222.105a1.26 1.26 0 0 0 1.128-.646 1.28 1.28 0 0 0 .015-1.294l-1.279-2.241h9.612v9.717a1.173 1.173 0 0 0 1.173 1.173h8.905z"/><path d="M56.737 45.816a1.91 1.91 0 0 0 1.91 0l3.129-1.805a1.91 1.91 0 0 0 0-3.31l-3.129-1.804a1.9 1.9 0 0 0-1.91 0 1.85 1.85 0 0 0-.948 1.64v3.624a1.88 1.88 0 0 0 .948 1.655m.556-5.28a.41.41 0 0 1 .196-.346.5.5 0 0 1 .21-.06q.107.002.196.06l3.129 1.82a.38.38 0 0 1 .21.346.39.39 0 0 1-.21.346l-3.129 1.805a.406.406 0 0 1-.602-.346zM9.477 42.086h22.908v1.504H9.477zM9.477 47.41h6.573v1.504H9.477zM18.56 47.41H32.4v1.504H18.56z"/></g><defs><clipPath id="a"><path fill="#fff" d="M0 0h70.168v60H0z"/></clipPath></defs></svg>