<svg xmlns="http://www.w3.org/2000/svg" width="60" height="60" fill="none"><g fill="#000" clip-path="url(#a)"><path d="m58.67 52.674-6.563-4.687a.937.937 0 0 0-1.482.763v1.875H45V40.313a.94.94 0 0 0-.608-.879L37.5 36.85V30a.94.94 0 0 0-.937-.937H23.437A.94.94 0 0 0 22.5 30v6.85l-6.892 2.584a.94.94 0 0 0-.608.879v10.312H1.875a.94.94 0 0 0-.937.938v3.75a.937.937 0 0 0 .937.937h48.75v1.875a.937.937 0 0 0 1.482.763l6.563-4.687a.937.937 0 0 0 0-1.527M37.5 38.853l5.625 2.11v9.662H37.5zm-13.125-7.916h11.25v19.688H33.75v-2.812a3.75 3.75 0 1 0-7.5 0v2.812h-1.875zm7.5 16.876v2.812h-3.75v-2.812a1.875 1.875 0 1 1 3.75 0m-15-6.85 5.625-2.11v11.772h-5.625zM52.5 56.302v-.99a.94.94 0 0 0-.937-.938H2.813V52.5h48.75a.94.94 0 0 0 .937-.937v-.991l4.012 2.865zM30.938 27.187v-7.672a2.812 2.812 0 1 0-1.875 0v7.672zM30 15.937a.938.938 0 1 1 0 1.876.938.938 0 0 1 0-1.876M25.312 27.188v-3.75a.94.94 0 0 0-.375-.75l-1.64-1.23c.089-.269.136-.55.14-.832a2.82 2.82 0 1 0-1.255 2.343l1.255.938v3.281zm-4.687-5.625a.938.938 0 1 1 0-1.875.938.938 0 0 1 0 1.875M34.688 23.437v3.75h1.874v-3.281l1.256-.938a2.923 2.923 0 1 0-1.116-1.506l-1.64 1.225a.94.94 0 0 0-.374.75m4.687-3.75a.937.937 0 1 1 0 1.875.937.937 0 0 1 0-1.875"/><path d="M26.719 32.813h1.875v1.874h-1.875zM31.406 32.813h1.875v1.874h-1.875zM26.719 36.563h1.875v1.874h-1.875zM31.406 36.563h1.875v1.874h-1.875zM26.719 40.313h1.875v1.874h-1.875zM31.406 40.313h1.875v1.874h-1.875z"/><path d="m2.69 26.053 2.202.732a25.34 25.34 0 0 0 0 6.44l-2.2.72A1.884 1.884 0 0 0 1.49 36.31l1.743 5.344a1.874 1.874 0 0 0 2.366 1.219l2.202-.716a25.3 25.3 0 0 0 3.212 4.593l1.412-1.233a23.5 23.5 0 0 1-2.986-4.274 1.9 1.9 0 0 0-2.22-.883l-2.2.713-1.743-5.344 2.2-.72a1.87 1.87 0 0 0 1.274-2.035 23.4 23.4 0 0 1 0-5.952 1.866 1.866 0 0 0-1.274-2.027l-2.203-.722 1.742-5.353 2.204.723a1.906 1.906 0 0 0 2.23-.892 23 23 0 0 1 3.496-4.82 1.87 1.87 0 0 0 .16-2.394l-1.36-1.875 4.55-3.308 1.365 1.885a1.89 1.89 0 0 0 2.329.576 22.9 22.9 0 0 1 5.657-1.846 1.88 1.88 0 0 0 1.542-1.84V2.813h5.625v2.315a1.88 1.88 0 0 0 1.544 1.84c1.964.368 3.872.991 5.675 1.854a1.885 1.885 0 0 0 2.318-.594l1.363-1.875 4.54 3.303-1.351 1.866a1.87 1.87 0 0 0 .154 2.403 23.2 23.2 0 0 1 3.506 4.838 1.9 1.9 0 0 0 2.222.875l2.2-.713 1.743 5.344-2.2.721a1.87 1.87 0 0 0-1.278 2.034 23.4 23.4 0 0 1 0 5.953 1.866 1.866 0 0 0 1.276 2.026l2.204.722-1.742 5.353-2.205-.72a1.906 1.906 0 0 0-2.231.892 23.4 23.4 0 0 1-2.975 4.254l1.412 1.234a25 25 0 0 0 3.212-4.601l2.208.724a1.875 1.875 0 0 0 2.359-1.212l1.745-5.343a1.88 1.88 0 0 0-1.201-2.358l-2.202-.732q.206-1.601.204-3.216 0-1.618-.204-3.225l2.2-.72a1.884 1.884 0 0 0 1.202-2.364l-1.743-5.34a1.875 1.875 0 0 0-2.366-1.213l-2.203.714a25 25 0 0 0-3.786-5.217l1.356-1.875a1.875 1.875 0 0 0-.412-2.625L44.813 4.84a1.87 1.87 0 0 0-2.625.409L40.82 7.125a24.5 24.5 0 0 0-6.132-1.997V2.813A1.875 1.875 0 0 0 32.813.937h-5.625a1.875 1.875 0 0 0-1.875 1.876l-.012 2.312a24.7 24.7 0 0 0-6.129 2l-1.354-1.866a1.87 1.87 0 0 0-2.625-.42L10.64 8.14a1.875 1.875 0 0 0-.41 2.619l1.351 1.88a24.9 24.9 0 0 0-3.78 5.22l-2.208-.724a1.875 1.875 0 0 0-2.36 1.21L1.49 23.692a1.88 1.88 0 0 0 1.201 2.362"/><path d="M49.151 37.662A20.4 20.4 0 0 0 50.625 30a20.625 20.625 0 0 0-41.25 0 20.4 20.4 0 0 0 1.474 7.662l1.74-.7A18.5 18.5 0 0 1 11.25 30a18.75 18.75 0 0 1 37.5 0 18.5 18.5 0 0 1-1.339 6.962z"/></g><defs><clipPath id="a"><path fill="#fff" d="M0 0h60v60H0z"/></clipPath></defs></svg>