<svg xmlns="http://www.w3.org/2000/svg" width="50" height="50" fill="none"><g fill="#000" clip-path="url(#a)"><path d="M1.563 42.972H2.75q.123.346.28.678l-.84.84a.78.78 0 0 0 0 1.104l2.215 2.215a.804.804 0 0 0 1.104 0l.841-.841q.332.157.677.28v1.19c0 .43.35.78.782.78h3.13c.432 0 .782-.35.782-.78v-1.192q.346-.122.675-.28l.843.843a.78.78 0 0 0 1.105 0l2.214-2.214a.78.78 0 0 0 0-1.104l-.844-.844q.158-.33.279-.674h1.194c.432 0 .782-.35.782-.782v-3.13a.78.78 0 0 0-.782-.782h-1.193a7 7 0 0 0-.28-.674l.845-.844a.78.78 0 0 0 0-1.105l-2.215-2.214a.804.804 0 0 0-1.104 0l-.843.843a7 7 0 0 0-.675-.28v-1.193a.78.78 0 0 0-.781-.78H7.809a.78.78 0 0 0-.78.78v1.19a7 7 0 0 0-.678.28l-.84-.841a.78.78 0 0 0-1.106 0l-2.214 2.214a.78.78 0 0 0 0 1.104l.84.84q-.158.333-.281.68H1.563a.78.78 0 0 0-.782.78v3.132c0 .43.35.78.782.78m.78-3.131h.984a.78.78 0 0 0 .757-.586c.127-.493.322-.965.58-1.402a.78.78 0 0 0-.12-.95l-.696-.695 1.109-1.11.696.697a.78.78 0 0 0 .95.12 5.4 5.4 0 0 1 1.4-.578.78.78 0 0 0 .586-.757v-.986h1.569v.987c0 .356.24.667.585.756.494.129.964.324 1.4.581.306.18.698.131.95-.12l.698-.7 1.109 1.11-.7.7a.78.78 0 0 0-.12.949c.256.435.45.906.578 1.4.089.344.4.585.756.585h.992v1.569h-.99a.78.78 0 0 0-.756.586 5.5 5.5 0 0 1-.578 1.4.78.78 0 0 0 .12.948l.7.7-1.11 1.109-.698-.7a.78.78 0 0 0-.95-.121 5.4 5.4 0 0 1-1.4.58.78.78 0 0 0-.585.757v.986H8.591v-.986a.78.78 0 0 0-.586-.756 5.4 5.4 0 0 1-1.401-.579.78.78 0 0 0-.95.12l-.695.697-1.11-1.11.696-.695a.78.78 0 0 0 .12-.95 5.4 5.4 0 0 1-.58-1.4.78.78 0 0 0-.757-.587h-.984z"/><path d="M9.375 44.531a3.91 3.91 0 0 0 3.906-3.906 3.91 3.91 0 0 0-3.906-3.906 3.91 3.91 0 0 0-3.906 3.906 3.91 3.91 0 0 0 3.906 3.906m0-6.25a2.347 2.347 0 0 1 2.344 2.344 2.347 2.347 0 0 1-2.344 2.344 2.347 2.347 0 0 1-2.344-2.344 2.347 2.347 0 0 1 2.344-2.344M49.177 4.895a.78.78 0 0 0-.623-.524l-2.826-.431-1.271-2.709a.781.781 0 0 0-1.415 0l-1.271 2.708-2.827.431a.781.781 0 0 0-.441 1.318l2.068 2.12-.49 3.003a.782.782 0 0 0 1.15.81l2.518-1.392 2.519 1.392a.79.79 0 0 0 .828-.045.78.78 0 0 0 .321-.765l-.49-3.003 2.069-2.12a.78.78 0 0 0 .181-.793M45.533 7a.78.78 0 0 0-.211.671l.293 1.804-1.489-.823a.78.78 0 0 0-.756 0l-1.489.823.294-1.804A.78.78 0 0 0 41.963 7l-1.282-1.314 1.736-.265a.78.78 0 0 0 .589-.44l.743-1.58.741 1.58c.111.235.332.4.59.44l1.735.265zM37.015 10.216a1.57 1.57 0 0 0-1.204.313l-6.13 4.795a3.88 3.88 0 0 0 .43-2.12 3.88 3.88 0 0 0-1.372-2.656 3.88 3.88 0 0 0-2.849-.908 3.89 3.89 0 0 0-2.656 1.372 3.866 3.866 0 0 0 .136 5.167 3.87 3.87 0 0 0-2.25 1.533l-6.155 8.402a1.55 1.55 0 0 0-.074 1.676c.306.53.871.826 1.486.777l1.872-.158a1.55 1.55 0 0 0 1.124-.628l3.717-4.89.28 3.336-1.845 12.663c-.697.143-1.397.271-2.101.37l.216 1.546a35.3 35.3 0 0 0 7.191-1.791 35.3 35.3 0 0 0 10.87-6.374l.175-.052-.024-.081a36.5 36.5 0 0 0 5.753-6.272.78.78 0 0 0-.446-1.213l-1.205-.301 4.387-2.437 1.036 4.663-1.034-.345a.78.78 0 0 0-.9.311l-.13.195c-9.82 14.953-20.737 18.578-28.167 18.986l.085 1.56c7.737-.425 19.058-4.142 29.185-19.38l1.774.59a.78.78 0 0 0 1.01-.91l-1.563-7.03a.78.78 0 0 0-1.142-.514l-7.031 3.906a.78.78 0 0 0 .19 1.44l1.989.498a35.3 35.3 0 0 1-4.284 4.603l-1.393-4.673a1.56 1.56 0 0 0-.783-.915l-3.211-1.673-.503-3.819 7.153-5.45a1.56 1.56 0 0 0 .345-2.122l-.903-1.327a1.56 1.56 0 0 0-1.05-.663m-10.993.982a2.326 2.326 0 0 1 1.71.545c.477.403.77.969.822 1.593a2.33 2.33 0 0 1-.544 1.71c-.404.478-.97.77-1.594.823a2.32 2.32 0 0 1-1.71-.545 2.33 2.33 0 0 1-.823-1.594 2.346 2.346 0 0 1 2.139-2.532m1.061 26.042 1.626-9.382 2.872 1.394 1.698 4.765a33.5 33.5 0 0 1-6.196 3.223m3.08-18.43a.78.78 0 0 0-.3.724l.613 4.67a.78.78 0 0 0 .414.591l3.585 1.853 1.587 5.326q-.694.565-1.454 1.12l-1.564-4.39a1.56 1.56 0 0 0-.766-.83l-3.818-1.873a.779.779 0 0 0-1.114.568L25.39 37.852c-.736.244-1.48.47-2.232.663l1.772-12.15a1 1 0 0 0 .005-.178l-.46-5.45a.78.78 0 0 0-1.4-.406l-4.957 6.522-1.883.172 6.156-8.401a2.34 2.34 0 0 1 1.723-.993l2.432-.205h.002l3.114-.263a.8.8 0 0 0 .416-.164l6.697-5.239.903 1.327zM3.125 1.563h1.563v1.562H3.125zM4.688 3.125H6.25v1.563H4.688zM1.563 3.125h1.562v1.563H1.563zM3.125 4.688h1.563V6.25H3.125zM9.375 3.906h1.563V5.47H9.375zM10.938 5.469H12.5V7.03h-1.562zM7.813 5.469h1.562V7.03H7.813zM9.375 7.031h1.563v1.563H9.375zM45.313 43.75h1.562v1.563h-1.562zM46.875 45.313h1.563v1.562h-1.563zM43.75 45.313h1.563v1.562H43.75zM45.313 46.875h1.562v1.563h-1.562z"/></g><defs><clipPath id="a"><path fill="#fff" d="M0 0h50v50H0z"/></clipPath></defs></svg>