<svg xmlns="http://www.w3.org/2000/svg" width="60" height="60" fill="none"><path fill="#000" d="M57.188 56.25H52.5V28.125a.94.94 0 0 0-.937-.937h-5.626a.94.94 0 0 0-.937.937V56.25h-1.875V35.625a.94.94 0 0 0-.937-.937h-5.626a.94.94 0 0 0-.937.937V56.25H33.75V32.813a.94.94 0 0 0-.937-.938h-5.626a.94.94 0 0 0-.937.938V56.25h-1.875V36.563a.94.94 0 0 0-.937-.938h-5.625a.94.94 0 0 0-.938.938V56.25H15V40.313a.94.94 0 0 0-.937-.938H8.436a.94.94 0 0 0-.937.938V56.25H2.813a.938.938 0 0 0 0 1.875h54.375a.938.938 0 0 0 0-1.875m-47.813 0v-15h3.75v15zm9.375 0V37.5h3.75v18.75zm9.375 0v-22.5h3.75v22.5zm9.375 0V36.563h3.75V56.25zm9.375 0V29.063h3.75V56.25z"/><path fill="#000" d="M4.688 38.438a.9.9 0 0 0 .368-.076l4.127-1.77a2.81 2.81 0 0 0 4.877-2.019l4.453-1.78a2.81 2.81 0 0 0 4.922-1.97l4.453-1.78a2.808 2.808 0 0 0 4.38-.196l4.298 1.29a2.812 2.812 0 1 0 5.382-1.27l5.261-4.953a2.81 2.81 0 0 0 3.981-3.747l3.185-2.997v.642a.938.938 0 0 0 1.875 0V15a.94.94 0 0 0-.937-.937H52.5a.937.937 0 1 0 0 1.874h.449l-3.189 3.001a2.812 2.812 0 0 0-3.691 3.474l-5.407 5.089a2.806 2.806 0 0 0-3.556.84l-4.297-1.29a2.812 2.812 0 0 0-5.618.25l-4.453 1.782a2.811 2.811 0 0 0-4.922 1.969l-4.453 1.78a2.811 2.811 0 0 0-4.919 2.038l-4.126 1.768a.938.938 0 0 0 .37 1.8M48.75 20.625a.937.937 0 1 1 0 1.875.937.937 0 0 1 0-1.875m-9.375 8.438a.937.937 0 1 1 0 1.874.937.937 0 0 1 0-1.875M30 26.25a.937.937 0 1 1 0 1.875.937.937 0 0 1 0-1.875M20.625 30a.937.937 0 1 1 0 1.875.937.937 0 0 1 0-1.875m-9.375 3.75a.937.937 0 1 1 0 1.875.937.937 0 0 1 0-1.875"/><path fill="#000" d="M21.612 25.096a.938.938 0 0 0 1.199-1.441 11.3 11.3 0 0 1-2.011-2.177h4.106q.244 1.121.573 2.229a.937.937 0 1 0 1.797-.538 28 28 0 0 1-.449-1.691h6.344a29 29 0 0 1-.449 1.691.937.937 0 1 0 1.797.538q.33-1.106.573-2.23h4.11q-.63.888-1.414 1.641a.937.937 0 1 0 1.298 1.353 13.01 13.01 0 0 0 4.038-9.47A13.15 13.15 0 0 0 32.45 2.106a13.125 13.125 0 0 0-10.838 22.99m-1.584-5.493a1 1 0 0 0-.277.041 11.2 11.2 0 0 1-.963-3.706h5.435q.057 1.842.335 3.665zM20.31 9.29h4.44c-.301 1.575-.477 3.17-.526 4.773h-5.435a11.2 11.2 0 0 1 1.52-4.773m20.9 4.773h-5.435a30.5 30.5 0 0 0-.526-4.773h4.44a11.2 11.2 0 0 1 1.52 4.773m-7.31 0h-7.8c.052-1.604.24-3.2.561-4.773h6.677c.32 1.573.509 3.17.562 4.773m-7.444 5.54a28.5 28.5 0 0 1-.357-3.665h7.8a29 29 0 0 1-.357 3.665zm13.515 0h-4.53q.278-1.823.335-3.665h5.435a11.2 11.2 0 0 1-.957 3.709 1 1 0 0 0-.283-.044M38.3 7.415h-3.472a30 30 0 0 0-.927-2.966A11.3 11.3 0 0 1 38.3 7.415m-6.645-3.542c.489 1.152.9 2.336 1.233 3.542h-5.777c.333-1.206.744-2.39 1.233-3.542a11.3 11.3 0 0 1 3.312 0m-5.556.575a30 30 0 0 0-.929 2.967h-3.472a11.3 11.3 0 0 1 4.4-2.967"/></svg>