<svg xmlns="http://www.w3.org/2000/svg" width="60" height="60" fill="none"><path fill="#000" d="M56.139 10.728H27.46V3.325a2.273 2.273 0 0 0-2.27-2.27H3.325a2.273 2.273 0 0 0-2.27 2.27V17.17a2.273 2.273 0 0 0 2.27 2.271h6.715c.487 3.234-1.125 5.135-1.195 5.216a.82.82 0 0 0 .714 1.36c3.958-.496 5.886-2.458 6.807-4.017a7.9 7.9 0 0 0 .956-2.559h2.318v16.432a3.53 3.53 0 0 0 3.525 3.524h10.422c-.057 1.888-.498 3.76-1.001 4.943h-2.097a2.47 2.47 0 0 0-2.466 2.466 2.47 2.47 0 0 0 2.466 2.466h17.608a2.47 2.47 0 0 0 2.466-2.466 2.47 2.47 0 0 0-2.466-2.466h-2.105c-.528-1.202-.999-3.08-1.074-4.943H55.42a3.53 3.53 0 0 0 3.524-3.524V13.535a2.81 2.81 0 0 0-2.806-2.807M16.597 17.8a.824.824 0 0 0-.82.8c-.006.183-.18 4.068-4.684 5.428.535-1.259.975-3.166.426-5.588a.82.82 0 0 0-.8-.64H3.325a.63.63 0 0 1-.63-.63V3.325a.63.63 0 0 1 .63-.63H25.19a.63.63 0 0 1 .63.63V17.17a.63.63 0 0 1-.63.63zm8.593 1.641a2.273 2.273 0 0 0 2.271-2.27v-4.802H56.14c.643 0 1.166.523 1.166 1.166v18.843H21.28V19.44zm23.732 27.365c0 .455-.37.825-.825.825H30.489a.827.827 0 0 1 0-1.651h17.608c.455 0 .825.37.825.826m-4.696-2.467h-9.881c.507-1.439.835-3.255.883-4.942h8.05c.062 1.67.415 3.487.948 4.942m11.195-6.583H23.165a1.886 1.886 0 0 1-1.884-1.883v-1.854h36.024v1.854a1.886 1.886 0 0 1-1.884 1.883M41.6 35.887a.82.82 0 0 1-.82.82h-2.974a.82.82 0 0 1 0-1.64h2.974a.82.82 0 0 1 .82.82M12.21 42.69c-6.15 0-11.155 5.004-11.155 11.155 0 1.184.653 2.834 3.766 3.98 1.963.723 4.587 1.121 7.39 1.121 5.552 0 11.154-1.577 11.154-5.1 0-6.152-5.004-11.156-11.155-11.156m0 14.616c-5.335 0-9.515-1.52-9.515-3.46 0-5.247 4.269-9.515 9.515-9.515s9.515 4.268 9.515 9.514c0 1.94-4.18 3.46-9.515 3.46m5.598-21.325a5.603 5.603 0 0 0-5.598-5.596 5.603 5.603 0 0 0-5.597 5.596 5.603 5.603 0 0 0 5.597 5.597 5.603 5.603 0 0 0 5.598-5.597m-9.554 0a3.96 3.96 0 0 1 3.956-3.955 3.96 3.96 0 0 1 3.957 3.955 3.96 3.96 0 0 1-3.957 3.956 3.96 3.96 0 0 1-3.956-3.956m14.548-21.476a.82.82 0 0 1-.82.82H6.534a.82.82 0 0 1 0-1.64h15.448a.82.82 0 0 1 .82.82m0-8.512a.82.82 0 0 1-.82.82H6.534a.82.82 0 1 1 0-1.64h15.448a.82.82 0 0 1 .82.82m0 4.256a.82.82 0 0 1-.82.82H6.534a.82.82 0 1 1 0-1.64h15.448a.82.82 0 0 1 .82.82"/></svg>