<svg xmlns="http://www.w3.org/2000/svg" width="60" height="60" fill="none"><path fill="#000" d="M57.101 15.545H41.67a1.846 1.846 0 0 0-1.844 1.843v9.772c0 1.017.828 1.844 1.844 1.844h4.527c.23 2.037-.769 3.23-.812 3.28a.82.82 0 0 0 .715 1.358c2.89-.36 4.304-1.804 4.982-2.951a5.8 5.8 0 0 0 .666-1.687H57.1a1.846 1.846 0 0 0 1.844-1.844v-9.772a1.846 1.846 0 0 0-1.844-1.844m.204 11.615c0 .11-.093.203-.204.203h-6.065a.82.82 0 0 0-.82.804c0 .007-.031.815-.547 1.69q-.706 1.19-2.115 1.75c.297-.902.47-2.124.134-3.605a.82.82 0 0 0-.8-.639h-5.219a.206.206 0 0 1-.203-.203v-9.772c0-.11.093-.203.203-.203h15.432c.11 0 .204.093.204.203zM33.25 36.506a5.49 5.49 0 0 0 5.483 5.483 5.49 5.49 0 0 0 5.484-5.483 5.49 5.49 0 0 0-5.484-5.483 5.49 5.49 0 0 0-5.483 5.483m5.483-3.843a3.847 3.847 0 0 1 3.843 3.843 3.847 3.847 0 0 1-3.843 3.843 3.847 3.847 0 0 1-3.843-3.843 3.847 3.847 0 0 1 3.843-3.843m0 10.373c-6.016 0-10.91 4.894-10.91 10.91 0 1.161.64 2.781 3.69 3.904 1.918.706 4.482 1.095 7.22 1.095 5.43 0 10.91-1.545 10.91-5 0-6.015-4.894-10.909-10.91-10.909m0 14.269c-5.198 0-9.27-1.476-9.27-3.36 0-5.11 4.159-9.268 9.27-9.268s9.27 4.158 9.27 9.269c0 1.883-4.072 3.359-9.27 3.359M30.4 31.109a2.98 2.98 0 0 0-2.978-2.978 2.98 2.98 0 0 0-2.863 2.158h-1.003v-3.284h2.63a.82.82 0 0 0 .82-.82v-5.769h5.29a2.98 2.98 0 0 0 2.863 2.158 2.98 2.98 0 0 0 2.979-2.978 2.98 2.98 0 0 0-2.979-2.978 2.98 2.98 0 0 0-2.862 2.158h-5.291v-5.769a.82.82 0 0 0-.82-.82h-2.63V8.903h1.003a2.98 2.98 0 0 0 2.863 2.158A2.98 2.98 0 0 0 30.4 8.083a2.98 2.98 0 0 0-2.978-2.978 2.98 2.98 0 0 0-2.863 2.158h-1.823a.82.82 0 0 0-.82.82v4.104h-1.5V6.895a2.98 2.98 0 0 0 2.158-2.862 2.98 2.98 0 0 0-2.978-2.978 2.98 2.98 0 0 0-2.978 2.978c0 1.357.913 2.505 2.158 2.862v5.292h-1.5V8.083a.82.82 0 0 0-.82-.82h-1.823a2.98 2.98 0 0 0-2.862-2.158 2.98 2.98 0 0 0-2.979 2.978 2.98 2.98 0 0 0 2.979 2.978 2.98 2.98 0 0 0 2.862-2.158h1.003v3.284h-2.629a.82.82 0 0 0-.82.82v5.769H6.895a2.98 2.98 0 0 0-2.862-2.158 2.98 2.98 0 0 0-2.978 2.978 2.98 2.98 0 0 0 2.978 2.978 2.98 2.98 0 0 0 2.862-2.158h5.292v3.57H4.033a.82.82 0 0 0-.82.82v18.318a2.98 2.98 0 0 0-2.158 2.862 2.98 2.98 0 0 0 2.978 2.979 2.98 2.98 0 0 0 2.978-2.979 2.98 2.98 0 0 0-2.158-2.862V25.626h7.334v.56c0 .452.367.82.82.82h2.63v3.283h-1.004a2.98 2.98 0 0 0-2.862-2.158 2.98 2.98 0 0 0-2.979 2.978 2.98 2.98 0 0 0 2.979 2.978 2.98 2.98 0 0 0 2.862-2.157h1.824a.82.82 0 0 0 .82-.82v-4.104h1.499v5.29a2.98 2.98 0 0 0-2.158 2.863 2.98 2.98 0 0 0 2.978 2.979 2.98 2.98 0 0 0 2.979-2.979 2.98 2.98 0 0 0-2.158-2.862v-5.291h1.499v4.103c0 .453.367.82.82.82h1.823a2.98 2.98 0 0 0 2.863 2.159 2.98 2.98 0 0 0 2.978-2.979m4.76-12.85c.737 0 1.337.6 1.337 1.337 0 .738-.6 1.338-1.338 1.338a1.34 1.34 0 0 1-1.337-1.338c0-.738.6-1.337 1.337-1.337M27.421 6.745c.737 0 1.337.6 1.337 1.338 0 .737-.6 1.338-1.337 1.338a1.34 1.34 0 0 1-1.338-1.338c0-.738.6-1.338 1.338-1.338m-9.163-2.712c0-.738.6-1.338 1.337-1.338.738 0 1.338.6 1.338 1.338 0 .737-.6 1.338-1.338 1.338a1.34 1.34 0 0 1-1.337-1.338M11.77 9.42a1.34 1.34 0 0 1-1.338-1.338c0-.738.6-1.338 1.338-1.338.737 0 1.337.6 1.337 1.338 0 .737-.6 1.338-1.337 1.338M4.033 20.934a1.34 1.34 0 0 1-1.338-1.338c0-.738.6-1.337 1.338-1.337s1.338.6 1.338 1.337c0 .738-.6 1.338-1.338 1.338m1.338 25.053c0 .737-.6 1.337-1.338 1.337a1.34 1.34 0 0 1-1.338-1.337c0-.738.6-1.338 1.338-1.338s1.338.6 1.338 1.337m6.4-13.54a1.34 1.34 0 0 1-1.338-1.338c0-.737.6-1.337 1.338-1.337.737 0 1.337.6 1.337 1.337 0 .738-.6 1.338-1.337 1.338m9.163 2.712c0 .738-.6 1.338-1.338 1.338a1.34 1.34 0 0 1-1.337-1.338c0-.737.6-1.337 1.337-1.337.738 0 1.338.6 1.338 1.337m-7.107-21.332h11.538v11.538H13.827zm13.595 18.62a1.34 1.34 0 0 1-1.338-1.338c0-.737.6-1.337 1.338-1.337.737 0 1.337.6 1.337 1.337 0 .738-.6 1.338-1.337 1.338m28.235-10.173a.82.82 0 0 1-.82.82H43.934a.82.82 0 1 1 0-1.64h10.903a.82.82 0 0 1 .82.82m0-3.004a.82.82 0 0 1-.82.82H43.934a.82.82 0 0 1 0-1.64h10.903a.82.82 0 0 1 .82.82m0 6.008a.82.82 0 0 1-.82.82H43.934a.82.82 0 1 1 0-1.64h10.903a.82.82 0 0 1 .82.82"/></svg>