<svg xmlns="http://www.w3.org/2000/svg" width="60" height="60" fill="none"><path fill="#000" d="M52.703 14.39h-.03v-.803a.82.82 0 0 0-.82-.82h-4.759v-3.11h.917a2.41 2.41 0 0 0 2.258 1.583 2.407 2.407 0 0 0 2.404-2.404 2.407 2.407 0 0 0-2.404-2.404c-1.038 0-1.921.661-2.258 1.584h-1.737a.82.82 0 0 0-.82.82v3.93H42.27a.82.82 0 0 0-.82.821c0 4.597-3.74 8.337-8.338 8.337s-8.337-3.74-8.337-8.337a.82.82 0 0 0-.82-.82h-3.183v-3.93a.82.82 0 0 0-.82-.821h-1.738a2.41 2.41 0 0 0-2.257-1.584 2.407 2.407 0 0 0-2.405 2.404 2.407 2.407 0 0 0 2.405 2.404c1.037 0 1.92-.661 2.257-1.584h.917v3.11h-4.758a.82.82 0 0 0-.82.821v.885a3.97 3.97 0 0 0-3.16 3.883v12.704q-.078-.059-.149-.13a1.495 1.495 0 0 0-2.112 0l-1.448 1.45a1.48 1.48 0 0 0-.438 1.056c0 .399.156.774.438 1.055.427.428.544 1.017.312 1.577s-.731.894-1.336.894c-.823 0-1.493.67-1.493 1.493v2.05c0 .823.67 1.493 1.493 1.493.605 0 1.104.334 1.336.894s.115 1.149-.312 1.576a1.48 1.48 0 0 0-.438 1.056c0 .399.156.774.438 1.056l1.448 1.449c.582.582 1.53.582 2.112 0a1.41 1.41 0 0 1 1.577-.314c.56.232.894.732.894 1.337 0 .823.67 1.493 1.493 1.493h2.049c.823 0 1.493-.67 1.493-1.493 0-.604.334-1.103.894-1.335a1.41 1.41 0 0 1 1.577.312c.582.582 1.53.582 2.111 0l.567-.566h3.715c-.05 2.3-.596 4.602-1.214 6.014h-2.526a2.737 2.737 0 0 0-2.734 2.735 2.74 2.74 0 0 0 2.734 2.734h20.476a2.74 2.74 0 0 0 2.734-2.734 2.737 2.737 0 0 0-2.734-2.734h-2.534c-.647-1.437-1.23-3.745-1.301-6.015h12.352a3.97 3.97 0 0 0 3.965-3.965V17.521a3.134 3.134 0 0 0-3.13-3.131m-2.434-6.318a.765.765 0 1 1-.002 1.53.765.765 0 0 1 .002-1.53M15.957 9.6a.764.764 0 1 1 .002-1.53.764.764 0 0 1-.002 1.53m-.763 4.807h7.974c.419 5.12 4.72 9.158 9.945 9.158s9.526-4.038 9.945-9.158h7.974v1.054c0 .226-.184.41-.41.41-2.046 0-3.803 1.176-4.587 3.068s-.372 3.967 1.074 5.413c.16.16.16.42 0 .58l-2.65 2.65c-.16.161-.421.161-.581.001-1.446-1.446-3.52-1.858-5.413-1.074-1.892.784-3.068 2.541-3.068 4.587 0 .226-.184.41-.41.41h-3.748a.41.41 0 0 1-.41-.41c0-2.048-1.176-3.806-3.067-4.59a5 5 0 0 0-1.933-.39c-1.279 0-2.518.504-3.48 1.467-.161.16-.422.16-.582 0l-2.65-2.65a.41.41 0 0 1 0-.581c1.446-1.446 1.858-3.52 1.074-5.413-.784-1.892-2.541-3.068-4.587-3.068a.41.41 0 0 1-.41-.41zm-1.525 1.728c.28.8 1.04 1.377 1.935 1.377 1.637 0 2.66 1.062 3.071 2.055s.44 2.468-.718 3.625c-.8.8-.8 2.101 0 2.9l2.65 2.651c.8.8 2.101.8 2.901 0 1.16-1.16 2.633-1.132 3.626-.721s2.054 1.435 2.054 3.074c0 1.13.92 2.051 2.051 2.051h3.748c1.13 0 2.051-.92 2.051-2.051 0-1.637 1.062-2.66 2.055-3.071s2.467-.439 3.625.718c.8.8 2.101.8 2.9 0l2.65-2.65c.8-.8.8-2.101 0-2.901-1.156-1.157-1.129-2.631-.717-3.625.411-.993 1.434-2.055 3.07-2.055.934 0 1.722-.627 1.97-1.481h.112c.821 0 1.49.668 1.49 1.49v22.046H26.298v-1.113c0-.823-.67-1.493-1.493-1.493a1.41 1.41 0 0 1-1.336-.894 1.41 1.41 0 0 1 .312-1.576c.282-.282.438-.657.438-1.056 0-.4-.155-.774-.437-1.056l-1.45-1.45a1.495 1.495 0 0 0-2.111 0 1.41 1.41 0 0 1-1.577.313 1.41 1.41 0 0 1-.894-1.336c0-.823-.67-1.493-1.493-1.493h-2.05c-.822 0-1.492.67-1.492 1.493 0 .524-.252.968-.682 1.229v-12.78c0-1.042.689-1.926 1.635-2.22m7.606 30.631a3.04 3.04 0 0 0-3.258-.566 3.04 3.04 0 0 0-1.903 2.704h-1.761a3.04 3.04 0 0 0-1.903-2.706 3.04 3.04 0 0 0-3.259.568l-1.245-1.245a3.04 3.04 0 0 0 .566-3.258 3.04 3.04 0 0 0-2.704-1.904V38.6a3.04 3.04 0 0 0 2.704-1.904 3.04 3.04 0 0 0-.566-3.258l1.245-1.245a3.04 3.04 0 0 0 3.258.566 3.04 3.04 0 0 0 1.904-2.704h1.76a3.04 3.04 0 0 0 1.904 2.704c1.13.468 2.366.25 3.258-.566l1.246 1.245a3.04 3.04 0 0 0-.566 3.258 3.04 3.04 0 0 0 2.703 1.903v1.761a3.04 3.04 0 0 0-2.703 1.904 3.04 3.04 0 0 0 .566 3.258zm23.17 9.445c0 .603-.491 1.094-1.094 1.094H22.875a1.095 1.095 0 0 1 0-2.187h20.476c.603 0 1.094.49 1.094 1.093m-5.405-2.734H27.17c.634-1.723 1.042-3.96 1.085-6.015h9.62c.061 2.032.499 4.27 1.165 6.015m12.828-7.656H24.19q.03-.146.03-.298c0-.399-.156-.774-.437-1.056a1.41 1.41 0 0 1-.313-1.576c.232-.56.731-.895 1.336-.895.569 0 1.064-.32 1.316-.789h28.07v2.29a2.327 2.327 0 0 1-2.324 2.324m-16.206-2.307a.82.82 0 0 1-.82.82h-3.458a.82.82 0 1 1 0-1.64h3.458a.82.82 0 0 1 .82.82m-15.71-37.65c1.037 0 1.92-.662 2.257-1.585h3.503v9.308c0 4.08 3.32 7.4 7.401 7.4s7.4-3.32 7.4-7.4V4.28h3.504a2.41 2.41 0 0 0 2.257 1.584 2.407 2.407 0 0 0 2.404-2.404 2.407 2.407 0 0 0-2.404-2.404c-1.038 0-1.921.661-2.258 1.584h-4.323a.82.82 0 0 0-.82.82v9.308h-4.94v-1.674a2.41 2.41 0 0 0 1.584-2.257 2.407 2.407 0 0 0-2.404-2.404 2.407 2.407 0 0 0-2.404 2.404c0 1.037.661 1.92 1.584 2.257v1.674h-4.94V3.459a.82.82 0 0 0-.82-.82h-4.324a2.41 2.41 0 0 0-2.257-1.584 2.407 2.407 0 0 0-2.404 2.404 2.407 2.407 0 0 0 2.404 2.404m26.322-3.169a.765.765 0 0 1 0 1.528.765.765 0 0 1 0-1.528M33.113 8.072a.765.765 0 1 1-.002 1.53.765.765 0 0 1 .002-1.53m5.702 6.335a5.77 5.77 0 0 1-5.702 4.94 5.77 5.77 0 0 1-5.702-4.94zM19.952 2.695a.764.764 0 1 1-.001 1.53.764.764 0 0 1 .001-1.53m-4.719 30.957a5.834 5.834 0 0 0-5.827 5.827 5.834 5.834 0 0 0 5.827 5.827 5.834 5.834 0 0 0 5.827-5.827 5.834 5.834 0 0 0-5.827-5.827m0 10.013a4.19 4.19 0 0 1-4.186-4.186 4.19 4.19 0 0 1 4.186-4.187 4.19 4.19 0 0 1 4.187 4.187 4.19 4.19 0 0 1-4.187 4.186"/></svg>