<svg xmlns="http://www.w3.org/2000/svg" width="64" height="64" fill="none"><path fill="#D99047" d="M46.636 39.028a7.404 7.404 0 1 1-7.405 7.403 7.403 7.403 0 0 1 7.405-7.403m3.997 3.405a5.657 5.657 0 0 0-7.997 0 5.65 5.65 0 0 0 0 7.994 5.65 5.65 0 0 0 7.997 0 5.65 5.65 0 0 0 0-7.994m-5.01-10.537h2.024c1.077 0 1.952.875 1.952 1.948 0 .2-.032.823.04.914q.035.048.11.068a12 12 0 0 1 2.89 1.2q.134.076.245-.034c.592-.591 1.007-1.126 1.935-1.126.5 0 1 .19 1.38.57l1.434 1.43a1.96 1.96 0 0 1 0 2.76c-.135.132-.606.56-.62.67a.2.2 0 0 0 .029.132 12.1 12.1 0 0 1 1.201 2.891c.025.1.093.15.195.15.84 0 1.506-.09 2.165.57.354.353.57.843.57 1.378v2.026a1.953 1.953 0 0 1-1.949 1.953v-.004h-.786v.004c-.102 0-.17.05-.195.145a12 12 0 0 1-1.201 2.895c-.05.085-.039.17.035.24.591.596 1.126 1.007 1.126 1.94 0 .5-.191.998-.57 1.378l-1.431 1.432a1.953 1.953 0 0 1-2.76 0c-.131-.132-.56-.603-.67-.62a.22.22 0 0 0-.131.032c-.908.525-1.878.929-2.892 1.198-.098.028-.148.096-.148.195 0 .84.085 1.51-.57 2.168a1.96 1.96 0 0 1-1.383.57h-2.024a1.954 1.954 0 0 1-1.952-1.952c0-.199.035-.819-.039-.914a.2.2 0 0 0-.11-.067 12 12 0 0 1-2.891-1.198c-.089-.054-.17-.039-.245.033-.591.595-1.003 1.126-1.935 1.126-.5 0-.999-.188-1.379-.57l-1.435-1.431a1.953 1.953 0 0 1 0-2.757c.135-.135.606-.563.62-.673a.2.2 0 0 0-.029-.128 12.5 12.5 0 0 1-.826-1.732H20.004c-2.495 4.865-8.603 6.593-13.27 3.717a9.4 9.4 0 0 1-3.468-3.777.876.876 0 0 1 .78-1.265v-.007h5.042l2.955-2.945-2.955-2.943H4.046a.872.872 0 0 1-.748-1.325 9.4 9.4 0 0 1 3.438-3.718 9.37 9.37 0 0 1 11.84 1.661V35.23c0-3.735 2.382-7.058 5.847-8.235v-4.772a2.62 2.62 0 0 1-2.267-2.59v-.461A11.297 11.297 0 0 1 32.41 3.14c5.318 0 9.92 3.713 11.04 8.918a11.25 11.25 0 0 1-.785 7.112c-.043.202.212 1.328-.765 2.31a2.6 2.6 0 0 1-1.868.765v4.683c2.356.777 4.189 2.714 5.081 5.032a2 2 0 0 1 .51-.065m-12.81 17.057a1.96 1.96 0 0 1-.716-1.51v-2.026c0-.603.276-1.148.716-1.506H19.452a.87.87 0 0 1-.825-.59 7.66 7.66 0 0 0-2.799-3.28 7.634 7.634 0 0 0-10.197 1.693h3.816v.004c.224 0 .446.085.616.255 1.279 1.273 2.559 2.544 3.838 3.824.34.34.336.892-.004 1.232l-3.788 3.77a.87.87 0 0 1-.662.305H5.629a7.638 7.638 0 0 0 12.997-1.587.875.875 0 0 1 .825-.585h13.362zm2.594-6.792.127-.327q.303-.727.695-1.406.075-.133-.032-.245c-.595-.591-1.13-1.006-1.13-1.935 0-.5.191-.999.57-1.381l1.499-1.489c.818-.712 1.96-.676 2.692.056.135.132.564.607.674.62a.2.2 0 0 0 .127-.028 12 12 0 0 1 2.892-1.202q.148-.039.148-.195h.004v-.786h-.004q0-.25.064-.485c-.375-1.417-1.159-2.682-2.207-3.592-1.045-.91-2.353-1.45-3.74-1.447h-1.544c0 .39-.021.638-.379.91l-2.994 2.474v2.98a.875.875 0 0 1-1.75 0v-3.005l-2.775-2.522a.88.88 0 0 1-.283-.65h-.004v-.173l-1.68.004c-.276.014-.659.11-.933.17a6.77 6.77 0 0 0-3.37 2.08 7 7 0 0 0-1.75 4.641v6.931h3.678v-7.277a.872.872 0 1 1 1.746 0v7.277h9.659zm12.239-8.52h-2.024a.205.205 0 0 0-.203.203h-.003v.787h.003c0 .888-.59 1.655-1.446 1.885-.875.233-1.694.573-2.47 1.02a1.946 1.946 0 0 1-2.356-.305l-.556-.56a.205.205 0 0 0-.284 0l-1.431 1.435c-.358.353.946.697 1.108 1.966.057.415-.025.844-.245 1.23a10 10 0 0 0-.595 1.201l-.428 1.265a1.944 1.944 0 0 1-1.882 1.449h-.79a.203.203 0 0 0-.198.199v2.026c0 .504 1.168-.17 2.175.602.56.43.662.933.846 1.563q.127.383.276.751l.595 1.201a1.95 1.95 0 0 1-.309 2.357l-.556.556a.2.2 0 0 0 0 .284l1.431 1.43c.354.358.702-.945 1.967-1.112.415-.053.843.03 1.23.248.78.45 1.597.79 2.47 1.024a1.94 1.94 0 0 1 1.446 1.88v.787c0 .11.092.203.202.203h2.024c.504 0-.17-1.17.603-2.175a1.95 1.95 0 0 1 1.048-.695 10.2 10.2 0 0 0 2.467-1.024 1.95 1.95 0 0 1 2.356.309l.556.556a.2.2 0 0 0 .284 0l1.435-1.431c.354-.354-.946-.702-1.113-1.967a1.93 1.93 0 0 1 .248-1.23q.33-.573.591-1.2.25-.606.429-1.27a1.94 1.94 0 0 1 1.885-1.446v.004h.786v-.004c.11 0 .199-.092.199-.202v-2.027c0-.5-1.169.17-2.173-.598a1.96 1.96 0 0 1-.697-1.05 10 10 0 0 0-.429-1.264l-.591-1.201a1.944 1.944 0 0 1 .305-2.357l.56-.556a.207.207 0 0 0 0-.284l-1.435-1.435c-.354-.353-.701.947-1.966 1.113a1.93 1.93 0 0 1-1.23-.248 10.2 10.2 0 0 0-2.47-1.02 1.95 1.95 0 0 1-1.447-1.885v-.786a.2.2 0 0 0-.198-.201m-7.367-18.268c.592.05 1.13.301 1.542.684.996-5.804-3.465-11.165-9.412-11.165-5.942 0-10.403 5.361-9.407 11.161a2.6 2.6 0 0 1 1.421-.67v-.439q-.181-1.916.599-3.557.78-1.643 2.534-2.976c6.267-4.77 14.3 2.043 12.723 6.962m-.227 1.74h-.865v3.384h.865a.87.87 0 0 0 .865-.865v-1.655a.87.87 0 0 0-.865-.864m-4.935-5.917c.099.623-.029.457.467 1.49.45.93 1.967 1.772 3.054 2.077.925-3.302-5.141-8.681-10.024-4.964-1.533 1.167-2.473 2.583-2.48 4.425 1.163.192 2.37-.05 3.47-.488 1.832-.738 3.344-2.003 3.925-2.884.44-.67 1.467-.436 1.588.344m-1.103 2.242q-.093-.191-.166-.351c-1.64 1.506-4.061 2.802-6.462 2.937v3.104c0 2.708 2.232 5.999 5.025 5.999 1.6 0 2.98-1.095 3.847-2.37a13 13 0 0 1-1.842-.216 2.51 2.51 0 0 1-3.788.272c-1.576-1.576-.454-4.287 1.775-4.287a2.51 2.51 0 0 1 2.505 2.33c.744.132 1.489.188 2.211.157.205-.62.32-1.261.32-1.885v-2.93c-1.362-.531-2.843-1.549-3.425-2.76m-1.073 7.063a.762.762 0 1 0-1.076 1.08.762.762 0 0 0 1.076-1.08m-7.307-3.388h-.865a.87.87 0 0 0-.865.865v1.655c0 .475.39.865.865.865h.865zm.674 5.134h-.135v4.355l1.885-.01v-1.705c-.12-.128-.241-.255-.354-.39a8.8 8.8 0 0 1-1.396-2.25m11.973.504a8.5 8.5 0 0 1-2.038 2.618v1.21c.578 0 1.481-.022 2.038.013zm-3.788 3.702c-1.555.645-3.196.546-4.684-.241v1.914l2.215 2.016 2.47-2.041v-1.648"/></svg>