<svg xmlns="http://www.w3.org/2000/svg" width="60" height="60" fill="none"><path fill="#000" d="M34.114 1.164a24.92 24.92 0 0 0-21.74 12.701h-.322a.94.94 0 0 0-.937.938v1.628q-.195.465-.373.938H8.867a.94.94 0 0 0-.938.937v18.84H1.875a.94.94 0 0 0-.937.938V57.9c0 .518.42.938.937.938h34.727c.518 0 .938-.42.938-.937v-7.075a24.9 24.9 0 0 0 15.052-7.95 24.9 24.9 0 0 0 6.47-16.763c0-13.757-11.191-24.949-24.948-24.949m14.993 24.011a28.9 28.9 0 0 0-3.117-12.192c1.889-.614 3.658-1.387 5.249-2.317a22.98 22.98 0 0 1 5.928 14.51zM12.99 15.74h7.85v1.629h-7.85zm9.725.798q.587-1.554 1.357-3.017c2.885.756 5.985 1.168 9.105 1.237v10.417H25.9v-6.869a.94.94 0 0 0-.937-.937h-2.249zm22.359-5.213a29.3 29.3 0 0 0-6.912-7.93 23.02 23.02 0 0 1 11.719 5.888c-1.468.818-3.087 1.499-4.807 2.042M35.052 3.447a27.2 27.2 0 0 1 8.178 8.398c-2.603.651-5.382 1.01-8.178 1.075zm-1.876.002v9.47c-2.786-.064-5.554-.42-8.149-1.066a27.44 27.44 0 0 1 8.15-8.404m-10.021 7.876c-1.726-.545-3.35-1.228-4.823-2.05a23.03 23.03 0 0 1 11.734-5.88 29.4 29.4 0 0 0-6.911 7.93M37.54 39.469c1.959.167 3.851.477 5.635.917a27.1 27.1 0 0 1-5.635 6.532zm-1.875-7.248H25.9v-.79h9.764zM25.9 29.556V27.05h7.275v2.506zm0 4.54h.744v21.14a.938.938 0 0 0 1.875 0v-21.14h1.154v21.14a.938.938 0 0 0 1.875 0v-21.14h1.154v21.14a.938.938 0 0 0 1.875 0v-21.14h1.087v22.867H25.9zm19.169 6.818c1.764.552 3.396 1.24 4.846 2.048a22.94 22.94 0 0 1-11.758 5.872 29.2 29.2 0 0 0 6.912-7.92m-7.53-3.326v-7.094a.94.94 0 0 0-.938-.938h-1.55V27.05h12.174a27.3 27.3 0 0 1-3.091 11.647 38.4 38.4 0 0 0-6.595-1.11M35.05 25.175V14.758c3.13-.07 6.238-.483 9.13-1.244a27 27 0 0 1 3.051 11.661zM16.976 10.658c1.595.935 3.37 1.71 5.264 2.326q-.223.438-.432.883l-.03-.002h-3.925v-1.652a.938.938 0 0 0-1.875 0v1.652h-1.423a23 23 0 0 1 2.42-3.207m7.05 8.586v37.719h-2.04V46.812c0-1.547-1.35-2.806-3.01-2.806h-4.121c-1.66 0-3.01 1.259-3.01 2.806v10.15h-2.04V19.245zM20.11 56.963h-6.39V46.812c0-.505.52-.93 1.135-.93h4.12c.616 0 1.135.425 1.135.93zM7.93 39.02v17.942H2.812V39.021zm43.343 2.557c-1.573-.923-3.353-1.708-5.284-2.337a29.3 29.3 0 0 0 3.114-12.191h8.065a23.02 23.02 0 0 1-5.895 14.528M12.013 26.6h9.804c.518 0 .938-.42.938-.937v-3.6a.94.94 0 0 0-.938-.937h-9.803a.94.94 0 0 0-.938.937v3.6c0 .517.42.937.938.937m.938-3.6h7.929v1.725H12.95zm-.937 11.99h3.738c.518 0 .938-.42.938-.937v-3.738a.94.94 0 0 0-.938-.938h-3.738a.937.937 0 0 0-.938.938v3.738c0 .518.42.938.938.938m.937-3.738h1.864v1.864H12.95zm8.866-1.875h-3.739a.94.94 0 0 0-.937.938v3.738c0 .518.42.938.937.938h3.739c.518 0 .937-.42.937-.938v-3.738a.937.937 0 0 0-.937-.938m-.938 3.739h-1.863v-1.864h1.863zm-8.865 7.94h3.738c.518 0 .938-.42.938-.938V36.38a.94.94 0 0 0-.938-.937h-3.738a.94.94 0 0 0-.938.938v3.738c0 .518.42.938.938.938m.937-3.739h1.864v1.864H12.95zm8.866-1.875h-3.739a.94.94 0 0 0-.937.938v3.738c0 .518.42.938.937.938h3.739c.518 0 .937-.42.937-.938V36.38a.937.937 0 0 0-.937-.937m-.938 3.739h-1.863v-1.864h1.863z"/></svg>