<svg xmlns="http://www.w3.org/2000/svg" width="50" height="50" fill="none"><path fill="#000" d="M25.457 22.657h-4.9a.78.78 0 0 0-.78.782v19.465c0 .431.35.781.78.781h4.9c.431 0 .781-.35.781-.78V23.438a.78.78 0 0 0-.781-.782m-.781 19.466h-3.337V24.22h3.337zM16.36 27.8h-4.9a.78.78 0 0 0-.78.78v14.324c0 .431.35.781.78.781h4.9c.431 0 .781-.35.781-.78V28.58a.78.78 0 0 0-.781-.782m-.781 14.323h-3.337V29.362h3.337zm-8.316-9.4h-4.9a.78.78 0 0 0-.78.782v9.399c0 .431.35.781.78.781h4.9c.431 0 .78-.35.78-.781v-9.399a.78.78 0 0 0-.78-.781m-.782 9.4H3.145v-7.837H6.48zM1.848 29.647a.782.782 0 0 1-.257-1.52c11.767-4.097 22.12-10.055 30.803-17.72l-1.716.094a.782.782 0 0 1-.085-1.56l3.918-.213a.78.78 0 0 1 .816.893l-.566 3.883a.781.781 0 0 1-1.546-.226l.253-1.734c-8.845 7.816-19.386 13.888-31.363 18.06a.8.8 0 0 1-.257.043M36.206 5.732l2.006 1.613-.675 2.483a.99.99 0 0 0 .376 1.07.995.995 0 0 0 1.135.028l2.153-1.41 2.153 1.41c.35.23.796.219 1.134-.027a.99.99 0 0 0 .377-1.07l-.675-2.484 2.006-1.612a.99.99 0 0 0 .324-1.088.99.99 0 0 0-.901-.689l-2.57-.125-.914-2.406A.99.99 0 0 0 41.2.78a.99.99 0 0 0-.934.644l-.913 2.406-2.57.125a.99.99 0 0 0-.902.69.99.99 0 0 0 .324 1.086m3.592-.358a1 1 0 0 0 .885-.644l.518-1.363.518 1.364a1 1 0 0 0 .885.643l1.456.07-1.136.914a1 1 0 0 0-.338 1.04l.382 1.408-1.22-.8a1 1 0 0 0-1.094 0l-1.22.8.382-1.407a1 1 0 0 0-.338-1.041l-1.136-.913zm8.638 30.684-1.327-.511a9.5 9.5 0 0 0-.841-2.029l.577-1.3a.78.78 0 0 0-.161-.87l-1.964-1.963a.8.8 0 0 0-.288-.182V14.187a.78.78 0 0 0-.781-.781h-4.9a.78.78 0 0 0-.78.781v12.945h-1.467a.78.78 0 0 0-.729.5l-.44 1.144v-9.963a.78.78 0 0 0-.781-.781h-4.9a.78.78 0 0 0-.78.781v16.126q-.109.3-.197.608l-1.327.51a.78.78 0 0 0-.5.73v2.777c0 .324.199.613.5.73l1.327.51q.087.308.196.609v1.491c0 .263.13.495.33.637l-.262.592a.78.78 0 0 0 .161.87l1.964 1.963a.78.78 0 0 0 .87.162l1.3-.578c.643.358 1.322.64 2.029.841l.51 1.327c.116.302.406.5.73.5h2.777c.323 0 .613-.198.729-.5l.51-1.326a9.5 9.5 0 0 0 2.03-.842l1.3.578a.78.78 0 0 0 .869-.162l1.964-1.964a.78.78 0 0 0 .161-.87l-.577-1.3a9.5 9.5 0 0 0 .84-2.028l1.328-.51a.78.78 0 0 0 .5-.73v-2.777a.78.78 0 0 0-.5-.73m-5.567-21.09v14.69l-.32.143a9.5 9.5 0 0 0-2.027-.841l-.511-1.327a.78.78 0 0 0-.478-.458V14.969zm-9.096 4.626v9.93q-.273.13-.537.277l-1.3-.578a.78.78 0 0 0-.87.162l-.63.63v-10.42zm13.6 19.434-1.2.462a.78.78 0 0 0-.479.548 8 8 0 0 1-.968 2.336.78.78 0 0 0-.049.726l.523 1.177-1.206 1.205-1.175-.522a.78.78 0 0 0-.727.049 8 8 0 0 1-2.337.968.78.78 0 0 0-.548.48l-.462 1.2h-1.704l-.462-1.2a.78.78 0 0 0-.548-.48 8 8 0 0 1-2.336-.968.78.78 0 0 0-.727-.05l-1.176.523-1.206-1.205.523-1.176a.78.78 0 0 0-.05-.727 8 8 0 0 1-.968-2.336.78.78 0 0 0-.48-.548l-1.199-.462v-1.705l1.2-.462a.78.78 0 0 0 .48-.548 8 8 0 0 1 .968-2.336.78.78 0 0 0 .049-.727l-.523-1.176 1.206-1.205 1.176.522a.78.78 0 0 0 .727-.048 8 8 0 0 1 2.336-.969.78.78 0 0 0 .548-.48l.462-1.2h1.705l.461 1.2a.78.78 0 0 0 .549.48 8 8 0 0 1 2.335.969c.22.134.492.153.727.048l1.176-.522 1.206 1.205-.522 1.176a.78.78 0 0 0 .049.727c.446.724.772 1.51.968 2.336.06.25.239.456.48.548l1.199.462zm-9.48-6.478a5.63 5.63 0 0 0-5.626 5.626 5.63 5.63 0 0 0 5.626 5.625 5.63 5.63 0 0 0 5.625-5.625 5.63 5.63 0 0 0-5.625-5.626m0 9.688a4.07 4.07 0 0 1-4.063-4.062 4.07 4.07 0 0 1 4.063-4.063 4.067 4.067 0 0 1 4.063 4.063 4.07 4.07 0 0 1-4.063 4.062"/></svg>