<svg xmlns="http://www.w3.org/2000/svg" width="60" height="60" fill="none"><path fill="#000" d="m39.154 51.341-4.467-2.233v-3.72a2.263 2.263 0 0 0-3.863-1.6l-2.15 2.15h-4.468l-1.648-8.241 1.14-1.71 2.032 1.355a.938.938 0 0 0 1.457-.78V30h1.875v-1.875h-3.311a5.6 5.6 0 0 0 1.436-3.75v-3.842A6.24 6.24 0 0 0 30 15.322v-1.26a.94.94 0 0 0-.937-.937H18.598a4.535 4.535 0 0 0-3.774 7.051l1.114 1.67v6.279H9.773a7.898 7.898 0 0 0-7.217 11.106l1.194 2.687v16.207h1.875V46.136l1.851 4.166a8.45 8.45 0 0 0 7.71 5.01h12.939v2.813H30v-2.812h8.216a2.096 2.096 0 0 0 .938-3.972M20.456 38.437h.338l1.5 7.5h-3.338zm.605-1.874h-.872l-1.076-1.616 1.512-1.008 1.512 1.008zM15.938 30h.549l2.667 2.667-3.216 2.144zm1.874-1.437a5.6 5.6 0 0 0 4.33 1.407l-1.517 1.517-2.812-2.813zm7.5 6.248-3.216-2.144L24.764 30h.55zM18.599 15h9.527v.322a4.365 4.365 0 0 1-7.453 3.087l-1.259-1.26a.938.938 0 0 0-1.501.244l-1.153 2.305-.375-.562A2.66 2.66 0 0 1 18.598 15m-.785 6.784 1.194-2.389.34.34a6.25 6.25 0 0 0 5.965 1.632v3.008a3.75 3.75 0 1 1-7.5 0zM9.773 30h4.29v6.563a.938.938 0 0 0 1.457.78l2.032-1.356 1.14 1.71-1.648 8.24h-.527l-4.428-8.856-1.678.838 1.479 2.957-5.224 2.985-2.397-5.392A6.023 6.023 0 0 1 9.773 30m28.443 23.438h-23.03A6.57 6.57 0 0 1 9.19 49.54L7.43 45.583l5.299-3.027 2.369 4.738a.94.94 0 0 0 .838.519h13.126a.94.94 0 0 0 .663-.275l2.424-2.424a.39.39 0 0 1 .663.274v4.3a.94.94 0 0 0 .518.838l4.984 2.492a.22.22 0 0 1-.099.42"/><path fill="#000" d="M56.25 24.375H31.875a.94.94 0 0 0-.937.938V41.25h1.875v-15h7.5v2.813h-5.626v1.875h5.626v4.687a.937.937 0 0 0 1.457.78l2.292-1.528 2.293 1.528a.938.938 0 0 0 1.458-.78v-4.687h7.5v20.625H42.187v1.874H56.25a.94.94 0 0 0 .938-.937V25.313a.94.94 0 0 0-.938-.938m-10.312 9.498-1.355-.903a.94.94 0 0 0-1.04 0l-1.355.903V26.25h3.75zm1.874-4.81V26.25h7.5v2.813z"/><path fill="#000" d="M43.125 47.813H45v1.874h-1.875zM45.938 47.813h1.874v1.874h-1.874zM48.75 47.813h1.875v1.874H48.75zM51.563 47.813h1.874v1.874h-1.874zM45.938 44.063h3.75v1.874h-3.75zM51.563 44.063h1.874v1.874h-1.874zM55.313 1.875H34.686a2.816 2.816 0 0 0-2.812 2.813v12.187a2.816 2.816 0 0 0 2.813 2.813h.937v1.875a.937.937 0 0 0 1.42.803l4.465-2.678h13.803a2.816 2.816 0 0 0 2.812-2.813V4.688a2.816 2.816 0 0 0-2.812-2.813m.937 15a.94.94 0 0 1-.937.938H41.25a.94.94 0 0 0-.482.133l-3.268 1.96V18.75a.94.94 0 0 0-.937-.937h-1.876a.94.94 0 0 1-.937-.938V4.688a.94.94 0 0 1 .938-.938h20.624a.94.94 0 0 1 .938.938z"/><path fill="#000" d="M36.563 5.625h2.812V7.5h-2.812zM41.25 5.625h6.563V7.5H41.25zM36.563 9.375h9.374v1.875h-9.374zM47.813 9.375h5.624v1.875h-5.624zM36.563 13.125h5.624V15h-5.624zM44.063 13.125h9.374V15h-9.374z"/></svg>