<svg xmlns="http://www.w3.org/2000/svg" width="60" height="60" fill="none"><g clip-path="url(#a)"><path fill="#000" d="M1.331 60h14.454a1.333 1.333 0 0 0 1.332-1.331V44.215a1.333 1.333 0 0 0-1.332-1.332H1.331A1.333 1.333 0 0 0 0 44.215v14.453A1.333 1.333 0 0 0 1.331 60m5.57-15.71h3.316v4.158l-1.307-.754a.7.7 0 0 0-.703 0l-1.306.754zm-5.495 0h4.088v5.376a.703.703 0 0 0 1.055.61l2.01-1.161 2.01 1.16a.704.704 0 0 0 1.054-.61V44.29h4.088v14.305H1.406zm6.542 13.107a.703.703 0 0 1-.703.703H2.903a.703.703 0 0 1 0-1.407h4.342a.703.703 0 0 1 .703.704m0-1.872a.703.703 0 0 1-.703.703H2.903a.703.703 0 0 1 0-1.406h4.342a.703.703 0 0 1 .703.703M37.228 60a1.333 1.333 0 0 0 1.33-1.331V44.215a1.333 1.333 0 0 0-1.33-1.332H22.772a1.333 1.333 0 0 0-1.332 1.332v14.453A1.333 1.333 0 0 0 22.773 60zm-8.886-15.71h3.316v4.158l-1.306-.754a.7.7 0 0 0-.704 0l-1.306.754zm-5.494 0h4.088v5.376a.702.702 0 0 0 1.054.61L30 49.114l2.01 1.16a.704.704 0 0 0 1.054-.61V44.29h4.088v14.305H22.848zm6.542 13.107a.703.703 0 0 1-.703.703h-4.343a.703.703 0 0 1 0-1.407h4.343a.703.703 0 0 1 .703.704m0-1.872a.703.703 0 0 1-.703.703h-4.343a.703.703 0 0 1 0-1.406h4.343a.703.703 0 0 1 .703.703M60 58.669V44.215a1.333 1.333 0 0 0-1.331-1.332H44.215a1.333 1.333 0 0 0-1.332 1.332v14.453A1.333 1.333 0 0 0 44.215 60h14.453A1.333 1.333 0 0 0 60 58.669m-10.217-14.38H53.1v4.16l-1.307-.755a.7.7 0 0 0-.703 0l-1.306.754zm8.81 14.305H44.29V44.289h4.088v5.377a.703.703 0 0 0 1.055.61l2.01-1.161 2.01 1.16a.704.704 0 0 0 1.054-.61V44.29h4.088zm-7.762-1.197a.703.703 0 0 1-.703.703h-4.343a.703.703 0 1 1 0-1.407h4.343a.703.703 0 0 1 .703.704m0-1.872a.703.703 0 0 1-.703.703h-4.343a.703.703 0 1 1 0-1.406h4.343a.704.704 0 0 1 .703.703m-36.62-42.16a.7.7 0 0 0-.61.696v4.675a.7.7 0 0 0 .61.697l2.842.38a13.3 13.3 0 0 0 1.38 3.325l-1.743 2.28a.7.7 0 0 0 .062.923l3.305 3.306a.704.704 0 0 0 .924.061l2.28-1.742c1.04.608 2.16 1.072 3.325 1.379l.38 2.842a.7.7 0 0 0 .697.61h4.674a.7.7 0 0 0 .697-.61l.38-2.842a13.3 13.3 0 0 0 3.326-1.379l2.279 1.742a.7.7 0 0 0 .924-.061l3.305-3.306a.704.704 0 0 0 .061-.924l-1.742-2.28a13.3 13.3 0 0 0 1.379-3.325l2.842-.38a.7.7 0 0 0 .61-.696V14.06a.7.7 0 0 0-.61-.697l-2.842-.38a13.3 13.3 0 0 0-1.378-3.325l1.742-2.28a.7.7 0 0 0-.062-.923L39.944 3.15a.7.7 0 0 0-.925-.061L36.74 4.83a13.3 13.3 0 0 0-3.325-1.379L33.034.61a.7.7 0 0 0-.697-.61h-4.674a.7.7 0 0 0-.697.61l-.38 2.842c-1.166.307-2.284.77-3.325 1.38l-2.28-1.743a.7.7 0 0 0-.924.061l-3.305 3.306a.704.704 0 0 0-.062.924l1.742 2.279a13.3 13.3 0 0 0-1.379 3.326zm4.098.407c.3-1.342.83-2.621 1.568-3.781a.7.7 0 0 0-.035-.804l-1.66-2.172 2.434-2.435 2.173 1.66a.7.7 0 0 0 .803.036 11.9 11.9 0 0 1 3.781-1.568.7.7 0 0 0 .544-.593l.361-2.709h3.444l.361 2.709a.7.7 0 0 0 .544.593c1.341.3 2.62.83 3.78 1.568a.7.7 0 0 0 .804-.036l2.173-1.66 2.435 2.435-1.66 2.173a.7.7 0 0 0-.036.803 11.9 11.9 0 0 1 1.568 3.781.7.7 0 0 0 .593.544l2.708.361v3.444l-2.708.362a.7.7 0 0 0-.593.543c-.3 1.342-.83 2.62-1.568 3.78a.7.7 0 0 0 .035.804l1.66 2.173-2.434 2.435-2.172-1.66a.7.7 0 0 0-.804-.036 11.9 11.9 0 0 1-3.781 1.568.7.7 0 0 0-.544.593l-.361 2.708h-3.444l-.361-2.708a.7.7 0 0 0-.544-.594c-1.341-.3-2.62-.83-3.78-1.567a.7.7 0 0 0-.804.035l-2.173 1.66-2.435-2.435 1.66-2.172a.7.7 0 0 0 .036-.803 11.9 11.9 0 0 1-1.568-3.781.7.7 0 0 0-.593-.544l-2.708-.361v-3.444l2.708-.362a.7.7 0 0 0 .593-.543M30 22.82a6.422 6.422 0 1 0-6.422-6.422A6.43 6.43 0 0 0 30 22.82m0-11.438a5.016 5.016 0 1 1 0 10.032 5.016 5.016 0 0 1 0-10.032M8.559 36.493h20.738v-2.075a.703.703 0 1 1 1.406 0v2.076h20.738a.703.703 0 0 1 .704.703v3.933a.703.703 0 0 1-1.407 0V37.9H30.703v3.23a.704.704 0 0 1-1.406 0V37.9H9.262v3.23a.703.703 0 0 1-1.407 0v-3.933a.703.703 0 0 1 .704-.703"/></g><defs><clipPath id="a"><path fill="#fff" d="M0 0h60v60H0z"/></clipPath></defs></svg>