<svg xmlns="http://www.w3.org/2000/svg" width="60" height="60" fill="none"><path fill="#000" d="M53.416 25.382h-.356c-.026 0-.128.017-.148 0-.016-.014-.01-.08-.01-.106l-.014-.249a21.745 21.745 0 0 0-1.145-5.845.915.915 0 0 0-1.73.595q.303.89.522 1.803h-2.852a1.975 1.975 0 0 0-1.974 1.973v1.829H34.83v-1.83a1.975 1.975 0 0 0-1.973-1.972H26.25a1.975 1.975 0 0 0-1.973 1.973v1.829h-9.965v-1.83a1.975 1.975 0 0 0-1.973-1.972H9.493a20.13 20.13 0 0 1 10.28-13.104l.729 2.383a.915.915 0 1 0 1.75-.534l-1.456-4.766a.09.09 0 0 1 .014-.082c.028-.038.063-.038.074-.038a1 1 0 0 0 .203-.022c.787-.18 1.585-.334 2.385-.467v9.251a.915.915 0 1 0 1.83 0V2.337c0-.28.227-.507.507-.507h8.403c.28 0 .507.227.507.507v11.864a.915.915 0 1 0 1.83 0v-9.25c.8.132 1.598.287 2.384.466a1 1 0 0 0 .19.022c.012.002.067.01.088.038.027.037.017.071.014.082l-1.385 4.534a.915.915 0 1 0 1.75.534l.657-2.153a20.3 20.3 0 0 1 8.16 7.783.914.914 0 1 0 1.582-.918 22.15 22.15 0 0 0-9.199-8.642l.185-.603c.18-.59.073-1.21-.294-1.705a1.96 1.96 0 0 0-1.423-.775 42 42 0 0 0-2.71-.518v-.76A2.34 2.34 0 0 0 34.212 0h-8.403a2.34 2.34 0 0 0-2.337 2.337v.76c-.907.143-1.813.315-2.706.516a1.9 1.9 0 0 0-1.427.776 1.9 1.9 0 0 0-.293 1.705l.184.602A21.96 21.96 0 0 0 7.477 22.24a1 1 0 0 0-.022.09 22 22 0 0 0-.34 3.053h-.51c-1.751 0-3.175 1.416-3.175 3.157v7.916c0 .882.624 1.643 1.484 1.81l4.592.888a21.2 21.2 0 0 0 1.946 4.694l-2.62 3.878a1.846 1.846 0 0 0 .224 2.335l4.305 4.305a1.846 1.846 0 0 0 2.335.224l3.877-2.62a21.2 21.2 0 0 0 4.695 1.945l.889 4.593A1.846 1.846 0 0 0 26.966 60h6.088c.881 0 1.642-.628 1.81-1.493l.38-1.966a.915.915 0 0 0-1.796-.348l-.38 1.967a.013.013 0 0 1-.014.01h-6.088a.013.013 0 0 1-.013-.01l-.998-5.157a.91.91 0 0 0-.677-.714 19.3 19.3 0 0 1-5.27-2.184.92.92 0 0 0-.983.026l-4.354 2.941a.013.013 0 0 1-.016-.001l-4.305-4.305a.013.013 0 0 1-.002-.017l2.942-4.353c.199-.295.209-.678.026-.983a19.3 19.3 0 0 1-2.185-5.27.92.92 0 0 0-.713-.677l-5.155-.997q-.002 0-.004-.014v-2.13h9.286c.476 8.118 7.23 14.577 15.465 14.577S45 42.443 45.475 34.325h9.266v2.146l-5.138.994a.91.91 0 0 0-.714.677 19.3 19.3 0 0 1-2.184 5.27.92.92 0 0 0 .026.984l2.941 4.353a.013.013 0 0 1-.001.017l-4.305 4.305a.012.012 0 0 1-.017.001l-4.353-2.941a.92.92 0 0 0-.983-.026 19.3 19.3 0 0 1-5.27 2.184.915.915 0 1 0 .442 1.775 21.2 21.2 0 0 0 5.262-2.095l3.877 2.62c.73.492 1.712.399 2.336-.224l4.305-4.306a1.846 1.846 0 0 0 .223-2.334l-2.62-3.878a21.2 21.2 0 0 0 1.946-4.694l4.593-.89c.862-.166 1.464-.91 1.464-1.808v-7.916a3.16 3.16 0 0 0-3.155-3.157m-5.877-1.83c0-.078.065-.143.144-.143h3.204a20 20 0 0 1 .185 1.924l.003.049h-3.536zm-21.433 0c0-.078.064-.143.143-.143h6.607c.08 0 .144.065.144.144v1.829h-6.894zM8.988 24.725l.007-.091q.052-.616.141-1.224h3.202c.079 0 .143.065.143.144v1.829H8.946q.015-.33.042-.658m45.753 7.772H24.06a.915.915 0 1 0 0 1.83h19.582c-.473 7.107-6.405 12.746-13.63 12.746S16.851 41.433 16.38 34.325h2.983a.915.915 0 1 0 0-1.83H5.259V28.54c0-.732.604-1.327 1.345-1.327h46.812c.731 0 1.325.595 1.325 1.327z"/></svg>