<svg xmlns="http://www.w3.org/2000/svg" width="60" height="60" fill="none"><g fill="#000" clip-path="url(#a)"><path d="M59.76 53.315a1.18 1.18 0 0 0-.033-1.47l-2.581-3.056a1.172 1.172 0 1 0-1.791 1.512l.953 1.128H44.847V20.21l5.207-5.207 2.823 2.823c.723.724 2 .192 2-.829V4.667c0-.644-.537-1.167-1.178-1.171H41.437c-1.018.005-1.544 1.345-.822 2.067l2.915 2.915-5.146 5.147H26.848a1.172 1.172 0 0 0 0 2.344h9.192L22.235 29.774H7.042V15.97h9.477a1.172 1.172 0 0 0 0-2.344H7.042V4.792l1.128.952a1.172 1.172 0 0 0 1.512-1.79L6.626 1.372a1.185 1.185 0 0 0-1.512 0L2.058 3.954a1.17 1.17 0 0 0-.139 1.652 1.183 1.183 0 0 0 1.652.139l1.127-.953V51.43H1.172a1.172 1.172 0 0 0 0 2.344h3.526v3.954a1.172 1.172 0 0 0 2.344 0v-3.954h49.265l-.952 1.127a1.17 1.17 0 0 0 .139 1.652c.488.412 1.24.349 1.651-.139l2.582-3.056zM28.698 36.359l13.804-13.804v28.874H28.698zm-2.344 2.344v12.726H13.628zm-6.463-6.585L7.042 44.966V32.118zM7.042 48.282 46.017 9.307c.457-.458.457-1.2 0-1.658l-1.76-1.803h8.277v8.321l-1.65-1.65a1.184 1.184 0 0 0-1.658 0L10.313 51.428h-3.27z"/><path d="M20.794 15.246c.408.976 1.85.928 2.192-.072.345-1.01-.796-1.928-1.71-1.382a1.18 1.18 0 0 0-.482 1.454"/></g><defs><clipPath id="a"><path fill="#fff" d="M0 0h60v60H0z"/></clipPath></defs></svg>