<svg xmlns="http://www.w3.org/2000/svg" width="60" height="60" fill="none"><path fill="#000" d="M58.125 46.875H41.438l-2.25-13.406 18.937 4.218zM42.938 45H56.25v-5.812l-14.812-3.282z"/><path fill="#000" d="M58.125 50.625H40.031c-1.406 0-2.531-.937-2.812-2.344l-2.25-12.843c-.094-.47-.469-.75-.938-.75h-3.093v-1.876h3.093c1.407 0 2.532.938 2.813 2.344L39.094 48c.093.469.468.75.937.75h18.094zM41.25 58.125c-1.594 0-2.812-1.219-2.812-2.812 0-1.594 1.218-2.813 2.812-2.813s2.813 1.219 2.813 2.813c0 1.593-1.22 2.812-2.813 2.812m0-3.75c-.562 0-.937.375-.937.938s.374.937.937.937.938-.375.938-.937-.376-.938-.938-.938M55.313 58.125c-1.594 0-2.813-1.219-2.813-2.812 0-1.594 1.219-2.813 2.813-2.813 1.593 0 2.812 1.219 2.812 2.813 0 1.593-1.219 2.812-2.812 2.812m0-3.75c-.563 0-.938.375-.938.938s.375.937.938.937.937-.375.937-.937-.375-.938-.937-.938"/><path fill="#000" d="M46.688 1.875H5.813L1.874 18.656v1.032c0 2.437 1.594 4.5 3.75 5.25v29.437H41.25V52.5H24.375V29.063H11.25V52.5H7.5V25.313c1.969 0 3.656-1.032 4.688-2.532 1.03 1.5 2.718 2.532 4.687 2.532s3.656-1.032 4.688-2.532c1.03 1.5 2.718 2.532 4.687 2.532s3.656-1.032 4.688-2.532c1.03 1.5 2.718 2.532 4.687 2.532s3.656-1.032 4.688-2.532c1.03 1.5 2.718 2.532 4.687 2.532v10.406l1.875.843V24.938c2.156-.75 3.75-2.813 3.75-5.25v-1.032zM13.124 30.938H22.5V52.5h-9.375zm-5.625-7.5a3.76 3.76 0 0 1-3.75-3.75h7.5a3.76 3.76 0 0 1-3.75 3.75m3.844-5.625H4.03L7.313 3.75h5.718zm5.531 5.625a3.76 3.76 0 0 1-3.75-3.75h7.5a3.76 3.76 0 0 1-3.75 3.75m3.844-5.625h-7.407L15 3.75h6.656zM23.344 3.75h5.718l.844 14.063H22.5zm2.906 19.688a3.76 3.76 0 0 1-3.75-3.75H30a3.76 3.76 0 0 1-3.75 3.75m5.531-5.625-.75-14.063h6.657l1.687 14.063zm3.844 5.625a3.76 3.76 0 0 1-3.75-3.75h7.5a3.76 3.76 0 0 1-3.75 3.75m5.531-5.625L39.47 3.75h5.718l3.282 14.063zM45 23.438a3.76 3.76 0 0 1-3.75-3.75h7.5a3.76 3.76 0 0 1-3.75 3.75"/></svg>