<svg xmlns="http://www.w3.org/2000/svg" width="60" height="60" fill="none"><g fill="#000" clip-path="url(#a)"><path d="M59.121 52.607h-3.818v-32a3.7 3.7 0 0 0-3.697-3.697H40.334a.879.879 0 0 0 0 1.758h11.272c1.07 0 1.94.87 1.94 1.94v31.999h-3.01q.07-.498.07-1c0-4.11-3.344-7.454-7.455-7.454-.552 0-1.104.063-1.648.188a5.56 5.56 0 0 0-4.927-3.007c-.682 0-1.344.125-1.968.366A4.643 4.643 0 0 0 30 37.577a4.643 4.643 0 0 0-4.608 4.123 5.4 5.4 0 0 0-1.968-.366 5.56 5.56 0 0 0-4.927 3.007 7.3 7.3 0 0 0-1.648-.188c-4.111 0-7.455 3.344-7.455 7.454q0 .502.07 1h-3.01v-32c0-1.07.87-1.939 1.94-1.939h11.273a.879.879 0 0 0 0-1.758H8.394a3.7 3.7 0 0 0-3.697 3.697v32H.879a.88.88 0 0 0-.879.879v1.879a2.76 2.76 0 0 0 2.758 2.757h54.484A2.76 2.76 0 0 0 60 55.365v-1.88a.88.88 0 0 0-.879-.878m-.879 2.758c0 .551-.448 1-1 1H2.758c-.552 0-1-.45-1-1v-1H13.09a.879.879 0 0 0 0-1.758h-1.85a5.6 5.6 0 0 1-.09-1 5.703 5.703 0 0 1 5.698-5.697c.625 0 1.252.107 1.862.319a.88.88 0 0 0 1.119-.547 3.81 3.81 0 0 1 3.594-2.59c.889 0 1.733.315 2.44.91a.879.879 0 0 0 1.405-.936 2.8 2.8 0 0 1-.148-.853A2.88 2.88 0 0 1 30 39.335a2.88 2.88 0 0 1 2.879 2.878c0 .26-.047.532-.148.853a.879.879 0 0 0 1.404.936 3.76 3.76 0 0 1 2.44-.91 3.81 3.81 0 0 1 3.595 2.59.88.88 0 0 0 1.12.547 5.7 5.7 0 0 1 1.861-.319 5.703 5.703 0 0 1 5.697 5.697q0 .502-.09 1h-31.91a.879.879 0 0 0 0 1.758h41.394z"/><path d="M18.705 27.714a3.7 3.7 0 0 0-.857 2.367v2.737a.88.88 0 0 0 1.31.766l6.26-3.532q.356.654.758 1.285l-.787 3.147a.88.88 0 0 0 .853 1.092h7.515a.88.88 0 0 0 .853-1.092l-.787-3.147q.4-.632.758-1.285l6.26 3.532a.878.878 0 0 0 1.31-.766v-2.737c0-.863-.304-1.704-.857-2.367l-4.172-5.005c.22-1.305.332-2.637.332-3.982 0-3.205-.62-6.303-1.844-9.208a22.6 22.6 0 0 0-4.994-7.387.88.88 0 0 0-1.233 0 22.6 22.6 0 0 0-4.994 7.387 23.6 23.6 0 0 0-1.844 9.208c0 1.343.112 2.672.331 3.976zm.9 3.6V30.08c0-.453.16-.894.45-1.241l3.294-3.954c.33 1.232.757 2.433 1.282 3.592zm7.762 2.504.5-2h4.264l.5 2zm12.577-4.978c.29.347.449.788.449 1.241v1.232l-5.026-2.835q.788-1.742 1.282-3.592zM29.999 4.018a21 21 0 0 1 3.619 5.376H26.38a21 21 0 0 1 3.618-5.376m-4.35 7.134h8.701a22 22 0 0 1 1.346 7.575c0 4.042-1.087 7.95-3.15 11.334h-5.095c-2.061-3.384-3.149-7.292-3.149-11.334 0-2.61.468-5.18 1.346-7.575"/><path d="M33.697 17.789A3.7 3.7 0 0 0 30 14.092a3.7 3.7 0 0 0-3.697 3.697A3.7 3.7 0 0 0 30 21.486a3.7 3.7 0 0 0 3.697-3.697m-5.637 0c0-1.07.87-1.94 1.94-1.94s1.939.87 1.939 1.94-.87 1.939-1.94 1.939-1.938-.87-1.938-1.94"/></g><defs><clipPath id="a"><path fill="#fff" d="M0 0h60v60H0z"/></clipPath></defs></svg>