<svg xmlns="http://www.w3.org/2000/svg" width="50" height="50" fill="none"><g clip-path="url(#a)"><path fill="#000" d="m45.452 18.847-3.117-.469a17.5 17.5 0 0 0-2.389-5.762l1.874-2.537a2.02 2.02 0 0 0-.197-2.643l-1.877-1.877a2.02 2.02 0 0 0-2.643-.198l-2.537 1.874a17.5 17.5 0 0 0-5.763-2.388l-.468-3.118A2.02 2.02 0 0 0 26.326 0h-2.654a2.02 2.02 0 0 0-2.009 1.73l-.468 3.117a17.5 17.5 0 0 0-5.763 2.388l-2.537-1.874a2.02 2.02 0 0 0-2.643.198L8.375 7.436a2.02 2.02 0 0 0-.197 2.643l1.874 2.537a17.5 17.5 0 0 0-2.388 5.762l-3.118.469a2.02 2.02 0 0 0-1.73 2.008v2.655c0 1.013.728 1.857 1.73 2.008l3.118.469a17.5 17.5 0 0 0 2.388 5.762l-1.874 2.537a2.02 2.02 0 0 0 .197 2.643l1.877 1.877c.717.717 1.828.8 2.643.198l2.537-1.874c.74.474 1.516.893 2.317 1.252q-.162.246-.334.486a3.4 3.4 0 0 0-.637 1.983v.93a2.44 2.44 0 0 0-1.743 2.338c0 .368.083.717.23 1.03a2.46 2.46 0 0 0-1.92 2.396v1.721c0 .405.328.734.733.734H35.92a.734.734 0 0 0 .733-.734v-1.721c0-1.17-.822-2.151-1.92-2.396a2.4 2.4 0 0 0 .23-1.03 2.44 2.44 0 0 0-1.744-2.337v-.931c0-.715-.22-1.401-.636-1.983q-.172-.24-.334-.486c.801-.359 1.577-.778 2.317-1.252l2.537 1.874a2.024 2.024 0 0 0 2.643-.198l1.877-1.877c.716-.716.8-1.828.197-2.643l-1.874-2.537a17.5 17.5 0 0 0 2.388-5.762l3.118-.469a2.02 2.02 0 0 0 1.73-2.009v-2.654a2.02 2.02 0 0 0-1.73-2.008M35.186 47.545v.987H14.812v-.987c0-.545.443-.988.988-.988h18.398c.545 0 .988.443.988.988m-1.69-3.426c0 .535-.436.97-.972.97h-15.05a.972.972 0 0 1 0-1.941h3.411a.734.734 0 0 0 0-1.468h-2.639v-.83c0-.406.126-.796.362-1.127a16.05 16.05 0 0 0 3.02-9.4v-.914h6.742v.915a16.05 16.05 0 0 0 3.02 9.4c.236.33.362.72.362 1.127v.83H23.82a.734.734 0 0 0 0 1.467h8.704c.536 0 .971.435.971.97m-8.497-22.426h-5.805a.95.95 0 0 1-.948-.948v-4.22q.002-.015.017-.016h1.88q.016.001.017.016v1.63c0 .775.631 1.406 1.407 1.406h.97c.776 0 1.407-.631 1.407-1.407v-1.629q.001-.015.017-.016h2.077q.015.001.017.016v1.63c0 .775.63 1.406 1.406 1.406h.97c.776 0 1.407-.631 1.407-1.407v-1.629q.002-.015.017-.016h1.88q.016.001.017.016v4.22a.95.95 0 0 1-.948.948h-2.87a.734.734 0 0 0 0 1.468h1.443a.997.997 0 0 1 0 1.99h-8.755a.997.997 0 0 1 0-1.99h4.377a.734.734 0 1 0 0-1.468m3.371 4.926v1.322h-6.742V26.62zm17.344-3.11a.56.56 0 0 1-.48.558l-3.626.545a.73.73 0 0 0-.612.59 16.1 16.1 0 0 1-2.55 6.156.73.73 0 0 0 .015.85l2.179 2.95a.56.56 0 0 1-.055.734l-1.877 1.877a.56.56 0 0 1-.733.054l-2.95-2.179a.73.73 0 0 0-.85-.015 16.3 16.3 0 0 1-2.676 1.479q-.6-1.15-.988-2.378a13.7 13.7 0 0 0 5.717-4.691 13.6 13.6 0 0 0 2.475-7.857c0-7.556-6.148-13.703-13.704-13.703-1.422 0-2.824.217-4.167.645a.734.734 0 0 0 .446 1.398 12.2 12.2 0 0 1 3.721-.576c6.747 0 12.236 5.49 12.236 12.237 0 2.527-.764 4.952-2.209 7.014a12.2 12.2 0 0 1-4.888 4.092c-.198-.968-.3-1.96-.3-2.965v-.915h.541a.734.734 0 0 0 0-1.468h-.54v-1.365a2.47 2.47 0 0 0 2-2.42c0-.403-.098-.784-.27-1.12a2.42 2.42 0 0 0 1.65-2.29v-4.22c0-.82-.665-1.485-1.484-1.485h-1.88c-.819 0-1.485.666-1.485 1.484v1.568h-.848v-1.568c0-.818-.666-1.484-1.484-1.484H23.96c-.819 0-1.485.666-1.485 1.484v1.568h-.848v-1.568c0-.818-.666-1.484-1.485-1.484h-1.88c-.818 0-1.484.666-1.484 1.484v4.22a2.42 2.42 0 0 0 1.65 2.291 2.45 2.45 0 0 0-.27 1.12c0 1.2.863 2.203 2.001 2.42v1.365h-.541a.734.734 0 0 0 0 1.468h.541v.915c0 1.006-.102 1.998-.3 2.965a12.2 12.2 0 0 1-4.888-4.092 12.16 12.16 0 0 1-2.209-7.014c0-2.16.57-4.284 1.65-6.14a12.3 12.3 0 0 1 4.34-4.385.734.734 0 1 0-.75-1.261 13.8 13.8 0 0 0-4.86 4.908 13.7 13.7 0 0 0-1.848 6.878c0 2.83.856 5.547 2.475 7.856a13.7 13.7 0 0 0 5.717 4.69 14.5 14.5 0 0 1-.987 2.379 16.3 16.3 0 0 1-2.676-1.48.73.73 0 0 0-.85.016l-2.95 2.18a.56.56 0 0 1-.734-.055l-1.877-1.877a.56.56 0 0 1-.055-.733l2.18-2.95a.73.73 0 0 0 .015-.85 16.1 16.1 0 0 1-2.55-6.157.73.73 0 0 0-.613-.59l-3.626-.545a.56.56 0 0 1-.48-.557v-2.655a.56.56 0 0 1 .48-.557l3.626-.545a.73.73 0 0 0 .612-.59 16.1 16.1 0 0 1 2.551-6.156.73.73 0 0 0-.015-.85l-2.18-2.95a.56.56 0 0 1 .055-.734l1.877-1.876a.56.56 0 0 1 .733-.055l2.95 2.179a.73.73 0 0 0 .85.016 16.1 16.1 0 0 1 6.156-2.551.73.73 0 0 0 .59-.613l.546-3.626a.56.56 0 0 1 .557-.48h2.654a.56.56 0 0 1 .557.48l.545 3.626a.73.73 0 0 0 .59.613 16.1 16.1 0 0 1 6.157 2.55c.257.177.599.17.85-.015l2.95-2.18a.56.56 0 0 1 .733.056l1.877 1.876a.56.56 0 0 1 .055.734l-2.18 2.95a.73.73 0 0 0-.015.85 16.1 16.1 0 0 1 2.551 6.156.73.73 0 0 0 .612.59l3.626.546a.56.56 0 0 1 .48.557z"/></g><defs><clipPath id="a"><path fill="#fff" d="M0 0h50v50H0z"/></clipPath></defs></svg>