<svg xmlns="http://www.w3.org/2000/svg" width="60" height="60" fill="none"><g fill="#000" clip-path="url(#a)"><path d="M38.276 15.592a2.933 2.933 0 0 0 2.93-2.93 2.933 2.933 0 0 0-2.93-2.93 2.933 2.933 0 0 0-2.93 2.93c0 .66.22 1.27.59 1.76l-4.814 6.726a2.92 2.92 0 0 0-2.907.64l-3.208-1.82q.065-.299.066-.616a2.933 2.933 0 0 0-2.93-2.93 2.933 2.933 0 0 0-2.864 3.546l-3.209 1.82a2.92 2.92 0 0 0-1.994-.786 2.933 2.933 0 0 0-2.93 2.93 2.933 2.933 0 0 0 2.93 2.93 2.933 2.933 0 0 0 2.864-3.546l3.209-1.82a2.92 2.92 0 0 0 3.988 0l3.208 1.82a2.93 2.93 0 0 0 2.864 3.546 2.933 2.933 0 0 0 2.93-2.93c0-.66-.22-1.27-.589-1.76l4.814-6.726c.287.094.594.146.912.146m0-4.102c.646 0 1.172.526 1.172 1.172s-.526 1.172-1.172 1.172a1.173 1.173 0 0 1 0-2.344m-24.2 13.614a1.173 1.173 0 0 1 0-2.344 1.173 1.173 0 0 1 0 2.344m8.066-4.58a1.173 1.173 0 0 1-1.171-1.172c0-.646.525-1.172 1.171-1.172a1.173 1.173 0 0 1 0 2.344m8.067 4.58a1.173 1.173 0 0 1 0-2.344 1.173 1.173 0 0 1 0 2.344"/><path d="M49.078 44.174H2.486a.73.73 0 0 1-.728-.729V7.185a.73.73 0 0 1 .728-.728H6.63a.879.879 0 1 0 0-1.758H2.486A2.49 2.49 0 0 0 0 7.185v36.26a2.49 2.49 0 0 0 2.486 2.486h6.06v1.935a2 2 0 0 0 1.999 1.998h8.797l-4.141 8.086a.879.879 0 1 0 1.564.801l4.552-8.887h9.718l4.552 8.887a.879.879 0 1 0 1.564-.801l-4.141-8.086h8.798a2 2 0 0 0 1.998-1.998v-1.934h5.272a.879.879 0 0 0 0-1.758m-7.03 3.692a.24.24 0 0 1-.24.24H10.544a.24.24 0 0 1-.24-.24v-1.934h31.743zM10.145 6.458h39.72a.73.73 0 0 1 .729.728v8.357a.879.879 0 1 0 1.758 0V7.186A2.49 2.49 0 0 0 49.865 4.7H31.054V2.973c0-1.216-.99-2.205-2.205-2.205h-5.346c-1.216 0-2.206.989-2.206 2.205V4.7H10.146a.879.879 0 1 0 0 1.758m12.91-3.485c0-.247.2-.448.448-.448h5.346c.246 0 .447.201.447.448V4.7h-6.24z"/><path d="M12.293 31.356a.88.88 0 0 0-.879.878v7.767c0 .485.394.879.879.879h3.566a.88.88 0 0 0 .879-.88v-7.766a.88.88 0 0 0-.88-.879zm2.687 7.766h-1.808v-6.009h1.808zM20.36 26.863a.88.88 0 0 0-.88.88V40c0 .486.394.879.88.879h3.565a.88.88 0 0 0 .879-.879V27.742a.88.88 0 0 0-.879-.879zm2.686 12.258h-1.808v-10.5h1.808zM28.426 31.356a.88.88 0 0 0-.88.878v7.767c0 .485.394.879.88.879h3.565a.88.88 0 0 0 .88-.88v-7.766a.88.88 0 0 0-.88-.879zm2.687 7.766h-1.808v-6.009h1.808zM36.494 36.541a.88.88 0 0 0-.879.879V40c0 .486.394.879.88.879h3.565a.879.879 0 1 0 0-1.758h-2.687V37.42a.88.88 0 0 0-.879-.879M59.552 45.001l-5.042-8.733a11.4 11.4 0 0 0 2.704-4.88c.794-2.964.387-6.06-1.148-8.717C52.9 17.185 45.86 15.3 40.375 18.467c-5.485 3.167-7.372 10.206-4.204 15.692a11.41 11.41 0 0 0 6.975 5.352c.99.265 1.994.396 2.992.396.872 0 1.739-.1 2.587-.298l5.041 8.733a3.342 3.342 0 0 0 5.787-3.34M43.6 37.813a9.67 9.67 0 0 1-5.908-4.533c-2.683-4.646-1.085-10.609 3.561-13.291a9.736 9.736 0 0 1 13.291 3.561 9.67 9.67 0 0 1 .972 7.383 9.67 9.67 0 0 1-4.533 5.908 9.67 9.67 0 0 1-7.383.972m13.85 10.23a1.585 1.585 0 0 1-2.163-.58l-4.85-8.402a11.7 11.7 0 0 0 2.74-1.584l4.852 8.403c.14.241.213.515.213.79a1.59 1.59 0 0 1-.792 1.373"/><path d="M54.087 30.89a8.32 8.32 0 0 0-.416-6.024.879.879 0 1 0-1.59.749 6.56 6.56 0 0 1 .327 4.755 6.57 6.57 0 0 1-2.997 3.75 6.54 6.54 0 0 1-4.998.657 6.54 6.54 0 0 1-4-3.069 6.594 6.594 0 0 1 2.412-8.998 6.58 6.58 0 0 1 7.271.452.879.879 0 1 0 1.06-1.401 8.33 8.33 0 0 0-9.21-.573 8.3 8.3 0 0 0-3.889 5.067 8.3 8.3 0 0 0 .834 6.332 8.3 8.3 0 0 0 5.067 3.888 8.295 8.295 0 0 0 6.332-.834 8.32 8.32 0 0 0 3.797-4.75"/></g><defs><clipPath id="a"><path fill="#fff" d="M0 0h60v60H0z"/></clipPath></defs></svg>