<svg xmlns="http://www.w3.org/2000/svg" width="64" height="64" fill="none"><g fill="#61527F" fill-rule="evenodd" clip-path="url(#a)" clip-rule="evenodd"><path d="M21.925 39.15H35.48a1.01 1.01 0 0 0 0-2.021H21.925a1.01 1.01 0 0 0 0 2.02"/><path d="M30.453 38.14v24.328a1.01 1.01 0 0 0 2.021 0V38.14a1.011 1.011 0 0 0-2.02 0M8.814.521A7.13 7.13 0 0 0 1.688 7.65a7.13 7.13 0 0 0 7.126 7.127 7.13 7.13 0 0 0 7.128-7.127A7.13 7.13 0 0 0 8.814.521m0 2.022a5.11 5.11 0 0 1 5.107 5.106 5.11 5.11 0 0 1-5.107 5.106A5.11 5.11 0 0 1 3.71 7.649a5.11 5.11 0 0 1 5.105-5.106M55.186.521A7.13 7.13 0 0 0 48.06 7.65a7.13 7.13 0 0 0 7.127 7.127 7.13 7.13 0 0 0 7.127-7.127A7.13 7.13 0 0 0 55.186.521m0 2.022a5.11 5.11 0 0 1 5.106 5.106 5.11 5.11 0 0 1-5.106 5.106 5.11 5.11 0 0 1-5.106-5.106 5.11 5.11 0 0 1 5.106-5.106M14.384 29.277c.167.337.513.56.905.56l.375-.072 9.305-3.72a2.796 2.796 0 0 1 3.632 1.558 2.796 2.796 0 0 1-1.558 3.631l-12.288 4.912a2.794 2.794 0 0 1-3.257-.896 1.01 1.01 0 0 0-1.814.613v5.075c0 .513.385.944.894 1.003l8.18.945a3.83 3.83 0 0 1 3.392 3.806v15.776a1.01 1.01 0 0 0 2.02 0V46.692a5.85 5.85 0 0 0-5.18-5.814l-7.285-.841v-2.11a4.8 4.8 0 0 0 3.8.096l12.289-4.912a4.82 4.82 0 0 0 2.683-6.258 4.817 4.817 0 0 0-6.258-2.684l-8.513 3.403-4.89-8.004a4.81 4.81 0 0 0-3.112-2.2l-.12-.026a4.815 4.815 0 0 0-5.795 4.345L.003 45.176 0 45.252a5.85 5.85 0 0 0 5.173 5.813l7.292.942v10.461a1.01 1.01 0 0 0 2.021 0v-11.35a1.01 1.01 0 0 0-.881-1.002l-8.192-1.057a3.83 3.83 0 0 1-3.392-3.765L3.803 21.84a2.793 2.793 0 0 1 3.363-2.52l.12.025A2.8 2.8 0 0 1 9.09 20.62l5.231 8.564q.03.048.062.092"/><path d="m6.36 30.746 3.246 5.316a4.815 4.815 0 0 0 5.897 1.96 1.01 1.01 0 0 0-.75-1.876 2.794 2.794 0 0 1-3.422-1.138l-3.247-5.316a1.012 1.012 0 0 0-1.725 1.054M47.36 29.102l-9.785 1.384a4.817 4.817 0 0 0-4.094 5.442 4.82 4.82 0 0 0 5.442 4.093l12.035-1.703c.468-.066.918-.199 1.337-.392v2.11l-7.283.84a5.85 5.85 0 0 0-5.182 5.815v15.776a1.01 1.01 0 0 0 2.021 0V46.691a3.83 3.83 0 0 1 3.392-3.807l8.177-.944h-.002a1.01 1.01 0 0 0 .898-1.004v-5.075a1.01 1.01 0 0 0-1.813-.613 2.8 2.8 0 0 1-1.829 1.07L38.64 38.018a2.795 2.795 0 0 1-.782-5.533l10.254-1.45-.14.01.863-.484 5.468-8.95c.7-1.144 1.98-1.8 3.317-1.7l.056.005a3.573 3.573 0 0 1 3.3 3.399l1.003 21.957a3.83 3.83 0 0 1-3.392 3.784l-8.021.927a1.01 1.01 0 0 0-.894.99l-.158 11.479a1.012 1.012 0 0 0 2.021.028l.145-10.592 7.14-.824a5.853 5.853 0 0 0 5.18-5.86l-1.005-21.981a5.593 5.593 0 0 0-5.167-5.323q-.029-.001-.056-.004a5.6 5.6 0 0 0-5.194 2.662zM41.544 3.553A3.03 3.03 0 0 0 38.513.521H24.414a3.03 3.03 0 0 0-3.031 3.032v12.843a1.684 1.684 0 0 0 2.79 1.27l3.105-2.706c.185-.16.42-.249.664-.249h10.57a3.03 3.03 0 0 0 3.032-3.031zm-18.14 12.103V3.553c0-.558.452-1.01 1.01-1.01h14.099a1.01 1.01 0 0 1 1.01 1.01v8.127a1.01 1.01 0 0 1-1.01 1.01h-10.57c-.733 0-1.44.265-1.993.746z"/><path d="M26.964 6.78h9.156a1.01 1.01 0 0 0 0-2.02h-9.156a1.01 1.01 0 0 0 0 2.02M26.964 10.466h4.502a1.011 1.011 0 0 0 0-2.02h-4.502a1.01 1.01 0 0 0 0 2.02M47.922 38.749l3.037-.43a4.82 4.82 0 0 0 3.435-2.257l3.247-5.316a1.011 1.011 0 0 0-1.725-1.053l-3.247 5.315a2.8 2.8 0 0 1-1.993 1.31l-3.037.43a1.012 1.012 0 0 0 .283 2"/></g><defs><clipPath id="a"><path fill="#fff" d="M0 0h64v64H0z"/></clipPath></defs></svg>