<svg xmlns="http://www.w3.org/2000/svg" width="60" height="60" fill="none"><path fill="#000" d="M29.76 13.597a5.133 5.133 0 1 0-5.133-5.133 5.14 5.14 0 0 0 5.132 5.133m0-8.419a3.287 3.287 0 1 1-3.287 3.286 3.295 3.295 0 0 1 3.286-3.286M11.151 48a4.024 4.024 0 1 0-3.997-4.024A4.016 4.016 0 0 0 11.151 48m0-6.203a2.179 2.179 0 1 1-2.15 2.179 2.17 2.17 0 0 1 2.15-2.17zM11.077 48.582a7.145 7.145 0 0 0-7.108 7.163.923.923 0 0 0 .923.923h12.37a.923.923 0 0 0 .922-.923 7.144 7.144 0 0 0-7.108-7.163m-5.179 6.24a5.261 5.261 0 0 1 10.375 0zM26.068 43.986a4.006 4.006 0 1 0 8.013-.037 4.006 4.006 0 0 0-8.013.037m6.157 0a2.16 2.16 0 1 1-2.16-2.179 2.17 2.17 0 0 1 2.16 2.179M30 48.582a7.145 7.145 0 0 0-7.107 7.163.923.923 0 0 0 .923.923h12.369a.923.923 0 0 0 .923-.923A7.145 7.145 0 0 0 30 48.582m-5.187 6.24a5.261 5.261 0 0 1 10.375 0zM44.983 43.986a4.006 4.006 0 1 0 8.011-.037 4.006 4.006 0 0 0-8.011.037m6.156 0a2.16 2.16 0 1 1-2.16-2.179 2.17 2.17 0 0 1 2.16 2.179M48.922 48.582a7.145 7.145 0 0 0-7.107 7.163.923.923 0 0 0 .923.923h12.369a.923.923 0 0 0 .923-.923 7.144 7.144 0 0 0-7.108-7.163m-5.187 6.24a5.262 5.262 0 0 1 10.375 0zM11.076 39.075a.923.923 0 0 0 .923-.923v-3.693a.83.83 0 0 1 .84-.83h15.923v4.735a.923.923 0 0 0 1.846 0v-4.772h16.616a.84.84 0 0 1 .84.84v3.904a.923.923 0 1 0 1.846 0v-3.904a2.686 2.686 0 0 0-2.686-2.687H30.609v-6.461h7.513a.923.923 0 0 0 .923-.923 9.379 9.379 0 0 0-18.757 0 .923.923 0 0 0 .924.923h7.541v6.462h-15.83a2.68 2.68 0 0 0-2.77 2.676v3.693a.92.92 0 0 0 .923.96m18.59-22.21a7.54 7.54 0 0 1 7.478 6.61h-14.99a7.54 7.54 0 0 1 7.513-6.61"/></svg>