<svg xmlns="http://www.w3.org/2000/svg" width="60" height="60" fill="none"><path fill="#000" d="M28.43 26.01a6.626 6.626 0 1 0 6.626 6.627 6.634 6.634 0 0 0-6.627-6.626m0 11.378a4.752 4.752 0 1 1 0-9.503 4.752 4.752 0 0 1 0 9.503m30.42-4.633-.005-.01q0-.002-.003-.005a1.7 1.7 0 0 0-.623-.621l-6.132-3.54a1.67 1.67 0 0 0-1.687 0l-.248.142v-2.589a7.7 7.7 0 0 0 3.566-1.996 7.46 7.46 0 0 0 2.28-5.356v-2.05a1 1 0 0 0-.006-.102l-.002-.011a1 1 0 0 0-.061-.237l-.003-.008a1 1 0 0 0-.053-.107l-.012-.02a1 1 0 0 0-.06-.088l-.008-.011L46.328 4.24a.94.94 0 0 0-.734-.354h-.005l-25.381.146h-.004l-8.38.049a.94.94 0 0 0-.708.33L1.16 16.122l-.003.005a1 1 0 0 0-.072.097l-.012.021a1 1 0 0 0-.05.095l-.008.014a1 1 0 0 0-.04.114q-.004.01-.006.02a1 1 0 0 0-.02.098l-.005.028a1 1 0 0 0-.007.116v2.05a7.58 7.58 0 0 0 6.635 7.512V48.48h-1.93a3.816 3.816 0 0 0 0 7.633h45.573a3.816 3.816 0 1 0 0-7.633h-1.063v-2.96l.247.142a1.67 1.67 0 0 0 1.688 0l6.131-3.54a1.67 1.67 0 0 0 .844-1.461V33.58c.001-.289-.072-.573-.213-.825m-7.606-2.499 4.984 2.878-4.742 2.653-5.173-2.684zm-5.945 10.296V34.69l5.25 2.723-.169 6.073zm3.028-16.075a5.716 5.716 0 0 1-5.698-5.644l-.002-.019.002-.035v-1.112h11.494v1.112c0 3.089-2.654 5.698-5.796 5.698M35.633 5.82c.811 3.968 2.144 7.31 3.972 9.973H17.038c1.816-2.644 3.142-5.958 3.955-9.888zM16.085 18.78v-1.112h11.397v1.112a5.698 5.698 0 0 1-11.397.062l-.001-.022zm13.272 0v-1.112h11.397v1.112a5.699 5.699 0 0 1-11.397.077l-.002-.027zm23.76-2.987H41.941c-2.035-2.52-3.511-5.87-4.395-9.984l7.599-.044zM12.266 5.954l6.808-.039c-.887 4.064-2.354 7.38-4.371 9.877h-10.8zM2.812 18.78v-1.112H14.21v1.112a5.699 5.699 0 0 1-11.397 0m50.344 33.517a1.943 1.943 0 0 1-1.941 1.941H5.642a1.941 1.941 0 1 1 0-3.882h45.573a1.944 1.944 0 0 1 1.94 1.941m-15.71-3.816h-2.495v-.377a.938.938 0 0 0-1.874 0v.377H23.78v-.377a.938.938 0 0 0-1.875 0v.377h-2.495v-.512a6.17 6.17 0 0 1 6.163-6.163h5.711a6.17 6.17 0 0 1 6.162 6.163zm10.83 0h-8.955v-.512a8.046 8.046 0 0 0-8.037-8.038h-5.711a8.046 8.046 0 0 0-8.038 8.037v.513H9.45V26.292a7.59 7.59 0 0 0 5.7-3.87 7.568 7.568 0 0 0 13.273-.003 7.565 7.565 0 0 0 13.27.002 7.6 7.6 0 0 0 6.586 3.93v3.453l-4.01 2.315a1.7 1.7 0 0 0-.585.559l-.015.025-.033.056-.005.008-.002.006a1.7 1.7 0 0 0-.204.807v7.08a1.67 1.67 0 0 0 .844 1.462l4.01 2.315zm3.981-5.081.167-5.989 4.763-2.664v5.806z"/></svg>