<svg width="105" height="31" viewBox="0 0 105 31" fill="none" xmlns="http://www.w3.org/2000/svg">
<path d="M27.5439 0.746765H32.265V30.2532H27.5439V0.746765ZM48.7886 20.8406C48.7886 25.3563 44.9918 25.7162 43.8622 25.7162C41.0403 25.7162 40.5268 23.0748 40.5268 21.4815V10.1888H35.8058V21.4579C35.8058 24.2551 36.6839 26.5637 38.223 28.1028C39.5826 29.4635 41.6197 30.2071 43.8268 30.2071C45.3918 30.2071 47.6084 29.7196 48.7886 28.6421V30.2532H53.5096V10.1888H48.7886V20.8406ZM62.9517 3.1073H58.2306V10.1888H54.6898V14.9098H58.2306V30.2532H62.9517V14.9098H66.4924V10.1888H62.9517V3.1073ZM81.36 24.254C80.3321 25.1781 78.9748 25.6903 77.4853 25.6903C74.2019 25.6903 71.7906 23.279 71.7906 19.9684C71.7906 16.6578 74.1251 14.3481 77.4853 14.3481C78.9488 14.3481 80.3321 14.8354 81.3861 15.7596L82.1024 16.3757L85.2856 13.1937L84.489 12.4749C82.6158 10.7837 80.1291 9.83471 77.4841 9.83471C71.5829 9.83471 67.2974 14.093 67.2974 19.9436C67.2974 25.7694 71.6856 30.1799 77.4841 30.1799C80.1786 30.1799 82.6914 29.2311 84.5409 27.5126L85.3104 26.7938L82.0777 23.6143L81.36 24.254ZM102.136 11.9379C100.776 10.5783 99.1831 9.83471 96.9761 9.83471C95.411 9.83471 93.6383 10.3222 92.458 11.3986V0.746765H87.737V30.2532H92.458V19.2C92.458 14.6844 95.6659 14.3256 96.7954 14.3256C99.6174 14.3256 99.5396 16.9682 99.5396 18.5592V30.2532H104.261V18.5839C104.261 15.7867 103.676 13.4782 102.136 11.9379Z" fill="#112A36"/>
<path d="M77.3289 16.608C78.234 16.608 79.1023 16.9676 79.7423 17.6078C80.3825 18.2478 80.7421 19.1161 80.7421 20.0214C80.7421 20.9265 80.3825 21.7948 79.7423 22.4349C79.1023 23.075 78.234 23.4346 77.3289 23.4346C76.4236 23.4346 75.5553 23.075 74.9153 22.4349C74.2751 21.7948 73.9155 20.9265 73.9155 20.0214C73.9155 19.1161 74.2751 18.2478 74.9153 17.6078C75.5553 16.9676 76.4236 16.608 77.3289 16.608Z" fill="#E62415"/>
<path d="M20.9341 22.8422C19.1389 24.6893 16.7006 25.6901 14.1346 25.6901C8.87548 25.6901 5.05146 21.5593 5.05146 15.8894C5.05146 10.1934 8.87548 6.06246 14.1346 6.06246C16.6758 6.06246 19.087 7.06219 20.9094 8.88446L21.6269 9.60325L24.7829 6.44725L24.0902 5.72845C21.4736 3.03402 17.9328 1.57281 14.1346 1.57281C6.38632 1.57281 0.561768 7.73021 0.561768 15.9141C0.561768 24.0732 6.4123 30.2058 14.1346 30.2058C17.9587 30.2058 21.4995 28.7187 24.1161 26.0242L24.8089 25.3054L21.6788 22.0987L20.9341 22.8422Z" fill="#112A36"/>
</svg>
