<svg width="153" height="31" viewBox="0 0 153 31" fill="none" xmlns="http://www.w3.org/2000/svg">
<path fill-rule="evenodd" clip-rule="evenodd" d="M152.145 9.26847C152.145 9.14042 152.054 8.9939 151.944 8.93892C151.687 8.79247 151.302 8.70121 150.514 8.70121C148.735 8.70121 147.177 9.57956 146.499 11.062V9.26847C146.499 9.12196 146.371 8.9939 146.206 8.9939H143.566C143.419 8.9939 143.291 9.10382 143.291 9.26847V21.4205C143.291 21.5668 143.419 21.6948 143.584 21.6948L146.371 21.6951C146.517 21.6951 146.646 21.5668 146.646 21.4205V15.9486C146.646 13.5144 148.351 12.3065 150.532 12.3065C151.045 12.3065 151.559 12.3977 151.815 12.4895C151.999 12.5445 152.164 12.4161 152.164 12.2149V9.25007L152.145 9.26847ZM134.4 8.68281C138.305 8.68281 141.22 11.3731 141.22 15.3443C141.22 19.2975 138.305 22.0059 134.419 22.0059C130.532 22.0059 127.636 19.3159 127.636 15.3443C127.618 11.3731 130.514 8.68281 134.4 8.68281ZM134.4 18.712C136.306 18.712 137.773 17.3758 137.773 15.3443C137.773 13.3129 136.306 11.9588 134.4 11.9588C132.512 11.9588 131.045 13.3129 131.045 15.3443C131.064 17.3758 132.53 18.712 134.4 18.712ZM118.965 8.68281C122.87 8.68281 125.766 11.3731 125.766 15.3443C125.766 19.2975 122.852 22.0059 118.983 22.0059C115.079 22.0059 112.164 19.3159 112.164 15.3443C112.164 11.3731 115.06 8.68281 118.965 8.68281ZM118.965 18.712C120.871 18.712 122.338 17.3758 122.338 15.3443C122.338 13.3129 120.871 11.9588 118.983 11.9588C117.095 11.9588 115.628 13.3129 115.628 15.3443C115.61 17.3942 117.076 18.7302 118.965 18.712ZM109.818 3.92432C109.964 3.92432 110.092 4.03423 110.092 4.19888V21.4205C110.092 21.5668 109.982 21.6948 109.818 21.6948L107.03 21.6951C106.884 21.6951 106.756 21.5668 106.756 21.4205V19.9199C105.821 21.2375 104.391 22.0244 102.558 22.0244C99.423 22.0244 96.8016 19.6454 96.8016 15.3445C96.8016 11.0439 99.423 8.66461 102.503 8.66461C104.483 8.66461 105.895 9.59795 106.756 10.8241V4.19914C106.756 4.05263 106.884 3.90618 107.049 3.90618L109.818 3.92432ZM103.548 18.7667C105.417 18.7667 106.866 17.4492 106.866 15.3627C106.866 13.2582 105.417 11.9588 103.548 11.9588C101.659 11.9588 100.23 13.3129 100.23 15.3627C100.23 17.4308 101.659 18.7667 103.548 18.7667ZM94.9685 17.8699C94.9685 20.7617 92.8787 22.0059 89.5056 22.0059C87.1958 22.0059 85.1793 21.3656 84.0429 20.0846C83.951 19.9746 83.951 19.8281 84.0429 19.7185L85.6375 17.6138C85.7476 17.4673 85.9491 17.4673 86.0592 17.5954C86.9024 18.474 88.2222 19.0048 89.8356 19.0048C90.7705 19.0048 91.5403 18.7483 91.5403 18.0346C91.5403 17.3393 90.8438 17.1928 88.7174 16.7354C86.8474 16.3509 84.5192 15.4907 84.5192 12.7273C84.5192 10.1468 86.5542 8.68281 89.8539 8.68281C92.0353 8.68281 93.5936 9.34159 94.6935 10.3849C94.8036 10.4945 94.8036 10.6592 94.7119 10.7693L93.1901 12.7641C93.0987 12.8921 92.9153 12.9103 92.7871 12.8188C92.0537 12.1418 90.8072 11.7389 89.5788 11.7389C88.5523 11.7389 87.9656 12.0685 87.9656 12.6176C87.9656 13.2582 88.6624 13.4045 90.8989 13.8805C93.1169 14.3562 94.9685 15.198 94.9685 17.8699ZM82.1363 17.8699C82.1363 20.7617 80.0465 22.0059 76.6734 22.0059C74.3452 22.0059 72.3474 21.3656 71.1922 20.0846C71.1188 19.9746 71.1188 19.8281 71.1922 19.7185L72.8055 17.632C72.8969 17.4857 73.1171 17.4857 73.227 17.6138C74.0704 18.4922 75.3902 19.0229 77.0034 19.0229C77.9383 19.0229 78.7083 18.7667 78.7083 18.053C78.7083 17.3577 78.0118 17.2111 75.8852 16.7536C74.0154 16.3693 71.6873 15.5091 71.6873 12.7454C71.6873 10.165 73.7035 8.70121 77.0218 8.70121C79.2031 8.70121 80.7617 9.35999 81.8613 10.4032C81.9714 10.4945 81.9714 10.6775 81.8797 10.7872L80.3582 12.7641C80.2667 12.8921 80.065 12.9103 79.9548 12.8188C79.2217 12.1418 77.9749 11.7389 76.7468 11.7389C75.72 11.7389 75.1336 12.0685 75.1336 12.6176C75.1336 13.2582 75.8301 13.4045 78.0668 13.8805C80.2667 14.3562 82.1179 15.198 82.1363 17.8699ZM63.3095 8.71934C66.9943 8.71934 68.8457 10.3483 68.8457 13.8805V21.4571C68.8457 21.6036 68.7174 21.7316 68.5524 21.7316H65.766C65.6195 21.7316 65.4912 21.622 65.4912 21.4571V20.0112C64.8495 21.0363 63.5848 21.9878 61.6047 21.9878C59.0931 21.9878 57.3334 20.3773 57.3334 18.0346C57.3334 15.7287 59.0567 14.2647 61.3849 14.0451L64.8495 13.7337C65.3076 13.679 65.4912 13.5325 65.4912 13.2217V13.0202C65.4912 12.2881 64.7944 11.7573 63.2913 11.7573C62.0815 11.7573 60.8165 12.105 60.2667 13.1301C60.1932 13.2764 60.0099 13.2948 59.8816 13.2033L57.8651 11.7389C57.755 11.6658 57.7183 11.5012 57.7918 11.3913C58.6716 9.61616 60.6698 8.73774 63.3095 8.73774V8.71934ZM65.4912 16.5706V16.0582L62.3746 16.4427C61.3481 16.589 60.8165 17.1196 60.8165 17.8337C60.8165 18.6571 61.4579 19.1877 62.6127 19.1877C64.3727 19.1877 65.5094 17.9614 65.4912 16.5706ZM55.0601 4.19888V21.4205C55.0601 21.5852 54.9318 21.7132 54.7853 21.7132H51.9804C51.8339 21.7132 51.6872 21.5852 51.6872 21.4205V4.19888C51.6872 4.05263 51.8155 3.92457 51.9622 3.92457L54.7669 3.92432C54.9318 3.92432 55.0601 4.05263 55.0601 4.19888ZM48.6441 8.97577C48.7906 8.97577 48.9376 9.10382 48.9376 9.26847V20.853C48.9376 24.129 47.3792 27.0939 42.063 27.0939C39.625 27.0939 37.9383 26.3983 36.6551 25.282C36.5634 25.2088 36.545 25.044 36.7102 24.7697L37.9567 22.6466C38.0302 22.5004 38.2317 22.4635 38.36 22.5916C39.3681 23.4884 40.5048 23.9641 41.9347 23.9641C44.7578 23.9641 45.6376 22.5185 45.6376 20.6884V19.8831C44.8126 21.0726 43.4012 21.8229 41.5864 21.8229C38.2133 21.8229 35.6467 19.517 35.6467 15.2895C35.6467 11.0434 38.3416 8.68255 41.4945 8.68255C43.4378 8.68255 44.9045 9.61615 45.6195 10.7691V9.2866C45.6195 9.14016 45.7477 8.9939 45.9127 8.9939L48.6441 8.97577ZM42.3931 18.7483C44.281 18.7483 45.6742 17.4308 45.6742 15.3443C45.6742 13.2398 44.281 11.9404 42.3931 11.9404C40.4864 11.9404 39.0749 13.2948 39.0749 15.3443C39.0749 17.3942 40.5046 18.7483 42.3931 18.7483Z" fill="#0DAB40"/>
<path fill-rule="evenodd" clip-rule="evenodd" d="M16.339 25.9954H0.403906C0.403906 28.3167 2.18067 30.1856 4.38988 30.1856H16.339C18.5388 30.1856 20.3156 28.3068 20.3156 25.9954V8.7621C20.3156 8.68335 20.2499 8.60495 20.1747 8.60495H16.4799C16.4046 8.60495 16.339 8.67364 16.339 8.7621V25.9954ZM16.339 0.814455C18.5388 0.814455 20.3156 2.69322 20.3156 5.01462H4.38056V22.2477C4.38056 22.3265 4.31475 22.4052 4.23017 22.4052H0.5355C0.460238 22.4052 0.38501 22.3362 0.38501 22.2477V5.01462C0.38501 2.69322 2.16191 0.814455 4.37121 0.814455H16.339Z" fill="#0DAB40"/>
</svg>
