<svg width="157" height="25" viewBox="0 0 157 25" fill="none" xmlns="http://www.w3.org/2000/svg">
<path d="M10.0947 8.94004C10.0947 8.94004 8.80358 8.80742 8.80358 9.99481V15.2691H17.3301V16.852C17.3301 16.852 17.3555 17.6428 16.555 17.6428H8.80358V24.5H18.1051C18.1051 24.5 23.7371 23.6029 23.7891 17.6428V8.94004H10.0947ZM23.53 0.5H6.7362C0.663606 1.9766 0.535156 7.11948 0.535156 7.11948V24.5H6.99531V8.67599C6.99531 7.33082 8.28646 7.09432 8.28646 7.09432H23.5311L23.53 0.5ZM45.7009 19.5264C45.258 19.8314 44.9303 20.0554 44.6988 20.1983C43.8705 20.7275 43.0811 21.1355 42.349 21.4612C41.2894 21.9091 40.3448 22.1331 39.4977 22.1331C36.5888 22.1331 34.1802 21.2166 32.2336 19.3628C30.2869 17.5091 29.3257 15.188 29.3257 12.3777C29.3257 9.6691 30.1927 7.32629 31.9457 5.32969C33.6986 3.3343 35.818 2.35598 38.3228 2.35598C39.3637 2.35598 40.4799 2.53881 41.6359 2.92737C43.1386 3.4154 44.3522 4.14911 45.3156 5.10572L43.6391 7.02002C42.9271 6.30801 42.0025 5.77777 40.9228 5.45206C40.1145 5.20745 39.2286 5.08628 38.2453 5.08628C36.4924 5.08628 35.0085 5.81772 33.8337 7.26463C32.6588 8.73085 32.062 10.4623 32.062 12.4989C32.062 14.516 32.7352 16.1651 34.084 17.4897C35.4326 18.8132 37.1468 19.4852 39.2275 19.4852C40.0945 19.4852 40.9815 19.1995 41.8862 18.6508C42.638 18.06 43.0234 17.7743 43.0422 17.7537V13.5789H37.417L38.2254 10.9721H45.7009V19.5264ZM62.6929 14.4337C62.6929 16.4497 61.9998 18.2017 60.6123 19.668C59.2248 21.1343 57.5106 21.8886 55.4687 21.8886C53.5807 21.8886 51.9241 21.1549 50.4979 19.7092C49.0717 18.2635 48.3785 16.5115 48.3785 14.4543C48.3785 12.4178 49.0539 10.6657 50.4015 9.15829C51.7491 7.6508 53.4069 6.91829 55.3524 6.91829C57.5106 6.91829 59.2635 7.63148 60.6311 9.07719C61.9998 10.4828 62.6929 12.2749 62.6929 14.4337ZM60.053 14.4748C60.053 13.1103 59.6101 11.9492 58.7242 11.012C57.8384 10.0543 56.7399 9.58573 55.4299 9.58573C54.1975 9.58573 53.1566 10.0748 52.2896 11.0532C51.4225 12.0303 50.9984 13.1503 50.9984 14.4132C50.9984 15.7377 51.4413 16.8577 52.3084 17.7949C53.1754 18.7321 54.2551 19.22 55.5639 19.22C56.7787 19.22 57.8185 18.7514 58.7054 17.8143C59.6101 16.8772 60.053 15.7571 60.053 14.4748ZM79.4534 14.4337C79.4534 16.4497 78.7602 18.2017 77.3727 19.668C75.9853 21.1343 74.2711 21.8886 72.2292 21.8886C70.3413 21.8886 68.6847 21.1549 67.2585 19.7092C65.8333 18.2635 65.1389 16.5115 65.1389 14.4543C65.1389 12.4178 65.8145 10.6657 67.1621 9.15829C68.5107 7.6508 70.1674 6.91829 72.113 6.91829C74.2711 6.91829 76.0241 7.63148 77.3916 9.07719C78.7602 10.4828 79.4534 12.2749 79.4534 14.4337ZM76.8136 14.4748C76.8136 13.1103 76.3706 11.9492 75.4848 11.012C74.5989 10.0543 73.5005 9.58573 72.1905 9.58573C70.958 9.58573 69.9171 10.0748 69.05 11.0532C68.183 12.0303 67.7589 13.1503 67.7589 14.4132C67.7589 15.7377 68.2019 16.8577 69.07 17.7949C69.9359 18.7321 71.0155 19.22 72.3256 19.22C73.5392 19.22 74.5789 18.7514 75.466 17.8143C76.3706 16.8772 76.8136 15.7571 76.8136 14.4748ZM94.9627 21.4806L92.5354 21.868V19.4441L92.0149 20.0543C91.5565 20.4975 91.0371 20.8684 90.4735 21.1549C89.6464 21.5486 88.7456 21.7503 87.8348 21.7457C85.9468 21.7457 84.3279 21.0325 83.0179 19.5857C81.7079 18.1388 81.0535 16.4292 81.0535 14.4337C81.0535 12.3766 81.7079 10.6052 82.9992 9.13766C84.2903 7.67024 85.8693 6.93773 87.7573 6.93773C88.8369 6.93773 89.7804 7.12056 90.5699 7.48741C91.1291 7.75253 91.6108 8.09888 92.0149 8.52739C92.15 8.71034 92.2851 8.91368 92.4202 9.09652V2.74227L95.0003 2.35491L94.9627 21.4806ZM92.6893 14.6166C92.6893 13.1914 92.2265 11.9891 91.283 11.012C90.3396 10.0132 89.2788 9.52515 88.0663 9.52515C86.7175 9.52515 85.639 9.99374 84.8107 10.9309C84.0389 11.8257 83.6347 12.9263 83.6347 14.2097C83.6347 15.6554 84.0389 16.8566 84.8484 17.7937C85.6567 18.7309 86.6788 19.1994 87.9312 19.1994C89.1636 19.1994 90.2432 18.772 91.2066 17.8966C92.1889 16.9994 92.6893 15.9 92.6893 14.6166ZM108.583 5.39147H101.359V10.4623H106.964V13.0692H101.359V21.4612L98.5461 21.8886V2.76291H108.024L108.583 5.39147ZM114.382 3.90342L112.648 6.16394L110.991 3.90342L112.744 1.66341L114.382 3.90342ZM113.861 21.4806L111.28 21.8475V7.69195L113.861 7.28514V21.4806ZM125.516 7.14226L124.303 10.0337C124.144 10.0086 123.983 9.99529 123.821 9.99374C123.571 9.99374 123.321 10.0142 123.069 10.0543C122.818 10.0943 122.549 10.1972 122.261 10.34C121.722 10.5846 121.259 11.1137 120.855 11.908C120.408 12.8094 120.175 13.8084 120.179 14.8212V21.4612L117.6 21.8886V7.69195L119.988 7.244V10.1972C120.296 9.68747 120.624 9.17881 120.931 8.64976C121.374 8.11939 121.895 7.73309 122.473 7.50804C122.78 7.38687 123.339 7.28395 124.186 7.20285C124.996 7.14226 125.459 7.10112 125.516 7.14226ZM144.742 21.4806L142.161 21.868V12.1525C142.161 11.2554 141.968 10.604 141.583 10.1972C141.197 9.7892 140.62 9.58573 139.867 9.58573C138.963 9.58573 138.269 9.9731 137.807 10.7469C137.498 11.2761 137.325 11.8463 137.325 12.4166V21.46L134.744 21.9492V12.2131C134.744 11.3582 134.552 10.7057 134.184 10.2589C133.8 9.80971 133.299 9.58573 132.644 9.58573H132.393C131.487 9.58573 130.832 9.9731 130.428 10.7674C130.12 11.3584 129.965 12.1114 129.965 13.028V21.46L127.288 21.9492V7.69195L129.696 7.26463V9.07719C129.965 8.64856 130.235 8.30234 130.487 8.0588C131.18 7.38687 131.989 7.05997 132.894 7.05997C133.915 7.05997 134.665 7.22348 135.186 7.5697C135.629 7.85546 136.053 8.42459 136.477 9.2394C137.363 7.79368 138.615 7.05997 140.273 7.05997C141.851 7.05997 143.028 7.56971 143.797 8.60861C144.434 9.46349 144.742 10.7263 144.742 12.3766V21.4806ZM156.535 17.1834C156.535 18.4863 156.093 19.5663 155.206 20.4017C154.32 21.2566 153.203 21.6646 151.853 21.6646C150.832 21.6646 149.926 21.42 149.098 20.9309C148.271 20.4429 147.655 19.892 147.249 19.2406L149.061 17.5709C149.195 17.7742 149.311 17.9366 149.426 18.0588C150.101 18.772 150.91 19.1389 151.853 19.1389C152.509 19.1389 153.029 18.956 153.394 18.6097C153.78 18.2635 153.954 17.7743 153.954 17.1423C153.954 16.4303 153.511 15.9412 152.625 15.676C150.871 15.1262 149.926 14.8212 149.792 14.7594C148.984 14.3319 148.405 13.884 148.038 13.3743C147.634 12.7834 147.422 12.0098 147.422 11.012C147.422 9.7892 147.866 8.772 148.733 7.95719C149.599 7.14226 150.639 6.75489 151.833 6.75489C152.74 6.75489 153.587 6.95824 154.358 7.38688C155.129 7.81432 155.687 8.26227 156.015 8.79263L154.474 10.5229C154.241 10.2837 153.991 10.0658 153.723 9.87149C153.105 9.42342 152.509 9.19944 151.951 9.19944C151.41 9.19944 150.968 9.32168 150.621 9.5651C150.215 9.87149 150.004 10.3194 150.004 10.9103C150.004 11.4806 150.197 11.908 150.603 12.1732C150.949 12.3971 151.681 12.6417 152.836 12.9057C153.992 13.1914 154.878 13.6805 155.514 14.3731C156.228 15.1057 156.535 16.0223 156.535 17.1834Z" fill="#3A7AF3"/>
</svg>
