<svg width="160" height="35" viewBox="0 0 160 35" fill="none" xmlns="http://www.w3.org/2000/svg">
<path d="M33.4352 17.8646C33.4352 16.7271 33.3331 15.6333 33.1435 14.5833H18.0352V20.7958H26.6685C26.2893 22.7937 25.1518 24.4854 23.4456 25.6229V29.6625H28.6518C31.6852 26.8625 33.4352 22.75 33.4352 17.8646Z" fill="#4285F4"/>
<path d="M18.0352 33.5417C22.3664 33.5417 25.9977 32.1125 28.6519 29.6625L23.4456 25.6229C22.0164 26.5854 20.1935 27.1687 18.0352 27.1687C13.8644 27.1687 10.3206 24.3542 9.05186 20.5625H3.71436V24.7042C6.35394 29.9396 11.7644 33.5417 18.0352 33.5417Z" fill="#34A853"/>
<path d="M9.05174 20.5479C8.73091 19.5854 8.54132 18.5646 8.54132 17.5C8.54132 16.4354 8.73091 15.4146 9.05174 14.4521V10.3104H3.71424C2.62049 12.4688 1.99341 14.9042 1.99341 17.5C1.99341 20.0958 2.62049 22.5313 3.71424 24.6896L7.87049 21.4521L9.05174 20.5479Z" fill="#FBBC05"/>
<path d="M18.0352 7.84581C20.3977 7.84581 22.4977 8.66248 24.1748 10.2375L28.7685 5.64373C25.9831 3.0479 22.3664 1.45831 18.0352 1.45831C11.7644 1.45831 6.35394 5.0604 3.71436 10.3104L9.05186 14.4521C10.3206 10.6604 13.8644 7.84581 18.0352 7.84581Z" fill="#EA4335"/>
<path d="M151.185 26.5197C149.385 26.5197 147.809 26.1124 146.459 25.2977C145.108 24.4831 144.058 23.3791 143.307 21.9857C142.557 20.5923 142.182 19.0489 142.182 17.3553C142.182 15.5975 142.557 14.0433 143.307 12.6928C144.079 11.3208 145.119 10.2382 146.426 9.44506C147.756 8.65189 149.235 8.25531 150.864 8.25531C152.236 8.25531 153.436 8.4804 154.465 8.93058C155.516 9.38075 156.405 10.0024 157.134 10.7956C157.863 11.5888 158.42 12.4998 158.806 13.5288C159.192 14.5364 159.385 15.6296 159.385 16.8087C159.385 17.1088 159.364 17.4196 159.321 17.7412C159.299 18.0628 159.246 18.3414 159.16 18.5772H145.655V15.3617H156.781L154.787 16.873C154.98 15.8869 154.926 15.008 154.626 14.2362C154.347 13.4645 153.876 12.8536 153.211 12.4034C152.568 11.9532 151.786 11.7281 150.864 11.7281C149.985 11.7281 149.203 11.9532 148.517 12.4034C147.831 12.8321 147.305 13.4752 146.941 14.3327C146.598 15.1688 146.469 16.187 146.555 17.3875C146.469 18.4593 146.609 19.4133 146.973 20.2493C147.359 21.0639 147.916 21.6963 148.645 22.1465C149.395 22.5967 150.253 22.8218 151.218 22.8218C152.182 22.8218 152.997 22.6181 153.661 22.2108C154.347 21.8035 154.883 21.2569 155.269 20.5709L158.678 22.243C158.335 23.079 157.799 23.8186 157.07 24.4617C156.341 25.1048 155.473 25.6086 154.465 25.973C153.479 26.3374 152.386 26.5197 151.185 26.5197Z" fill="#6A6A6A"/>
<path d="M134.788 26.1337V1.79199H139V26.1337H134.788Z" fill="#6A6A6A"/>
<path d="M122.3 33.208C120.993 33.208 119.781 32.9936 118.667 32.5649C117.552 32.1362 116.587 31.5359 115.773 30.7642C114.979 30.0139 114.401 29.1243 114.036 28.0953L117.959 26.6161C118.216 27.4307 118.72 28.0846 119.471 28.5776C120.242 29.0921 121.186 29.3493 122.3 29.3493C123.158 29.3493 123.908 29.1886 124.551 28.867C125.216 28.5455 125.73 28.0738 126.095 27.4522C126.459 26.8519 126.641 26.1231 126.641 25.2656V21.2783L127.445 22.243C126.845 23.2934 126.041 24.0866 125.033 24.6225C124.026 25.1584 122.879 25.4264 121.593 25.4264C119.964 25.4264 118.506 25.0512 117.22 24.3009C115.933 23.5506 114.926 22.5217 114.197 21.214C113.468 19.9063 113.104 18.4379 113.104 16.8087C113.104 15.158 113.468 13.6896 114.197 12.4034C114.926 11.1172 115.923 10.1096 117.188 9.38076C118.452 8.63046 119.889 8.25531 121.496 8.25531C122.804 8.25531 123.951 8.53399 124.937 9.09135C125.945 9.62728 126.781 10.4097 127.445 11.4387L126.866 12.4998V8.64118H130.854V25.2656C130.854 26.7876 130.478 28.1489 129.728 29.3493C128.999 30.5498 127.992 31.493 126.706 32.179C125.441 32.865 123.972 33.208 122.3 33.208ZM122.107 21.5355C123.008 21.5355 123.79 21.3426 124.455 20.9567C125.141 20.5494 125.677 19.9921 126.062 19.2847C126.448 18.5772 126.641 17.7626 126.641 16.8408C126.641 15.9405 126.438 15.1366 126.03 14.4292C125.644 13.7003 125.108 13.1322 124.423 12.7249C123.758 12.3176 122.986 12.114 122.107 12.114C121.228 12.114 120.435 12.3176 119.728 12.7249C119.02 13.1322 118.463 13.7003 118.056 14.4292C117.67 15.1366 117.477 15.9405 117.477 16.8408C117.477 17.7412 117.67 18.5451 118.056 19.2525C118.463 19.9599 119.01 20.5173 119.696 20.9246C120.403 21.3319 121.207 21.5355 122.107 21.5355Z" fill="#6A6A6A"/>
<path d="M101.388 26.5197C99.673 26.5197 98.1081 26.1231 96.6933 25.3299C95.2999 24.5367 94.1852 23.4542 93.3491 22.0822C92.5345 20.7102 92.1272 19.1453 92.1272 17.3875C92.1272 15.6296 92.5345 14.0647 93.3491 12.6928C94.1852 11.3208 95.2999 10.2382 96.6933 9.44506C98.0867 8.65189 99.6516 8.25531 101.388 8.25531C103.103 8.25531 104.657 8.65189 106.051 9.44506C107.444 10.2382 108.548 11.3208 109.363 12.6928C110.199 14.0433 110.617 15.6082 110.617 17.3875C110.617 19.1453 110.199 20.7102 109.363 22.0822C108.527 23.4542 107.412 24.5367 106.018 25.3299C104.625 26.1231 103.082 26.5197 101.388 26.5197ZM101.388 22.661C102.331 22.661 103.157 22.4359 103.864 21.9857C104.593 21.5355 105.161 20.9139 105.568 20.1207C105.997 19.3061 106.211 18.395 106.211 17.3875C106.211 16.3585 105.997 15.4582 105.568 14.6864C105.161 13.8932 104.593 13.2716 103.864 12.8214C103.157 12.3498 102.331 12.114 101.388 12.114C100.423 12.114 99.5766 12.3498 98.8477 12.8214C98.1188 13.2716 97.54 13.8932 97.1113 14.6864C96.704 15.4582 96.5003 16.3585 96.5003 17.3875C96.5003 18.395 96.704 19.3061 97.1113 20.1207C97.54 20.9139 98.1188 21.5355 98.8477 21.9857C99.5766 22.4359 100.423 22.661 101.388 22.661Z" fill="#6A6A6A"/>
<path d="M80.4117 26.5197C78.6967 26.5197 77.1318 26.1231 75.717 25.3299C74.3236 24.5367 73.2088 23.4542 72.3728 22.0822C71.5582 20.7102 71.1509 19.1453 71.1509 17.3875C71.1509 15.6296 71.5582 14.0647 72.3728 12.6928C73.2088 11.3208 74.3236 10.2382 75.717 9.44506C77.1104 8.65189 78.6753 8.25531 80.4117 8.25531C82.1266 8.25531 83.6808 8.65189 85.0742 9.44506C86.4676 10.2382 87.5716 11.3208 88.3862 12.6928C89.2223 14.0433 89.6403 15.6082 89.6403 17.3875C89.6403 19.1453 89.2223 20.7102 88.3862 22.0822C87.5502 23.4542 86.4355 24.5367 85.0421 25.3299C83.6487 26.1231 82.1052 26.5197 80.4117 26.5197ZM80.4117 22.661C81.3549 22.661 82.1802 22.4359 82.8876 21.9857C83.6165 21.5355 84.1846 20.9139 84.5919 20.1207C85.0206 19.3061 85.235 18.395 85.235 17.3875C85.235 16.3585 85.0206 15.4582 84.5919 14.6864C84.1846 13.8932 83.6165 13.2716 82.8876 12.8214C82.1802 12.3498 81.3549 12.114 80.4117 12.114C79.447 12.114 78.6002 12.3498 77.8714 12.8214C77.1425 13.2716 76.5637 13.8932 76.135 14.6864C75.7277 15.4582 75.524 16.3585 75.524 17.3875C75.524 18.395 75.7277 19.3061 76.135 20.1207C76.5637 20.9139 77.1425 21.5355 77.8714 21.9857C78.6002 22.4359 79.447 22.661 80.4117 22.661Z" fill="#6A6A6A"/>
<path d="M57.5935 26.5196C55.8785 26.5196 54.2922 26.2088 52.8345 25.5871C51.3767 24.9654 50.1012 24.0972 49.008 22.9825C47.9147 21.8678 47.0572 20.5601 46.4355 19.0595C45.8353 17.5589 45.5352 15.919 45.5352 14.1397C45.5352 12.3604 45.8246 10.7205 46.4034 9.21992C47.0036 7.69789 47.8396 6.39024 48.9115 5.29695C50.0048 4.18222 51.2803 3.32474 52.738 2.7245C54.1957 2.10283 55.7821 1.79199 57.497 1.79199C59.212 1.79199 60.7447 2.08139 62.0953 2.66019C63.4672 3.23899 64.6248 4.01072 65.5681 4.97539C66.5113 5.91862 67.1866 6.95832 67.5939 8.09448L63.703 9.9595C63.2529 8.71615 62.4918 7.70861 61.42 6.93688C60.3481 6.16515 59.0405 5.77928 57.497 5.77928C55.9964 5.77928 54.6673 6.13299 53.5097 6.84041C52.3736 7.54784 51.4839 8.52322 50.8408 9.76657C50.2191 11.0099 49.9083 12.4676 49.9083 14.1397C49.9083 15.8118 50.2299 17.2802 50.873 18.545C51.5375 19.7884 52.4486 20.7638 53.6062 21.4712C54.7638 22.1786 56.0929 22.5323 57.5935 22.5323C58.8154 22.5323 59.9408 22.2965 60.9698 21.8249C61.9988 21.3318 62.8241 20.6459 63.4458 19.7669C64.0675 18.8666 64.3783 17.8055 64.3783 16.5835V14.7507L66.3719 16.4871H57.497V12.7892H68.7515V15.2009C68.7515 17.0444 68.4406 18.6737 67.8189 20.0885C67.1973 21.5033 66.3505 22.6931 65.2787 23.6578C64.2282 24.601 63.0385 25.3191 61.7094 25.8122C60.3803 26.2838 59.0083 26.5196 57.5935 26.5196Z" fill="#6A6A6A"/>
</svg>
