<svg xmlns="http://www.w3.org/2000/svg" width="60" height="60" fill="none"><path fill="#282928" d="M6.96 14.202h7.9c.456 0 .82.364.82.82v7.899c0 .457-.364.82-.82.82h-7.9a.815.815 0 0 1-.82-.82v-7.898c0-.457.364-.82.82-.82m7.067 1.64H7.781v6.247h6.246zm36.399-3.198 5.004 3.632c.304.223.41.61.293.95l-1.91 5.87a.83.83 0 0 1-.774.563h-6.2a.82.82 0 0 1-.796-.62l-1.898-5.848a.81.81 0 0 1 .304-.915l5.016-3.644c.281-.211.68-.2.96.012m1.535 3.14-2.027-1.476-4.055 2.941 1.547 4.758h5.015l1.547-4.758zm-9.633 12.809a.81.81 0 0 1 1.149-.14.82.82 0 0 1 .152 1.148 17.8 17.8 0 0 1-3.492 3.398.815.815 0 0 1-1.149-.187.826.826 0 0 1 .188-1.149 16.3 16.3 0 0 0 3.152-3.07m-6.305 4.84a.814.814 0 0 1 .633 1.5 17.3 17.3 0 0 1-5.906 1.347.814.814 0 1 1-.07-1.629 15.7 15.7 0 0 0 5.343-1.218m-8.941.972a.813.813 0 0 1 .656.95.813.813 0 0 1-.949.656 17.35 17.35 0 0 1-9.691-5.379l.093 1.101a.816.816 0 1 1-1.628.13l-.317-3.868a.82.82 0 0 1 1.207-.785l3.457 1.64c.41.188.586.68.387 1.09a.81.81 0 0 1-1.09.387l-.223-.105a15.65 15.65 0 0 0 8.098 4.183M42.656 6.198a.816.816 0 1 1 1.63-.129l.316 3.868a.82.82 0 0 1-1.207.785l-3.458-1.64a.81.81 0 0 1-.386-1.09.81.81 0 0 1 1.09-.387l.21.105a15.8 15.8 0 0 0-8.097-4.172.813.813 0 0 1-.656-.949.813.813 0 0 1 .949-.656 17.44 17.44 0 0 1 9.691 5.39zM17.508 9.34a.81.81 0 0 1-1.149.14.82.82 0 0 1-.152-1.148 18 18 0 0 1 3.492-3.398.815.815 0 0 1 1.149.187.815.815 0 0 1-.188 1.149 16.3 16.3 0 0 0-3.152 3.07m6.305-4.84a.82.82 0 0 1-1.067-.433.82.82 0 0 1 .434-1.067 17.3 17.3 0 0 1 5.906-1.348.814.814 0 1 1 .07 1.63 15.8 15.8 0 0 0-5.343 1.218m6.105 8.906a5.57 5.57 0 0 1 5.566 5.567 5.57 5.57 0 0 1-5.566 5.566 5.57 5.57 0 0 1-5.566-5.566 5.57 5.57 0 0 1 5.566-5.567m2.777 2.79a3.91 3.91 0 0 0-5.543 0c-1.523 1.535-1.535 4.019 0 5.542a3.91 3.91 0 0 0 5.543 0c1.524-1.535 1.524-4.02 0-5.542m-4.488-9.223h3.41c.457 0 .82.363.82.82v1.57c.868.235 1.7.575 2.473 1.032l1.113-1.114a.83.83 0 0 1 1.16 0l2.426 2.415a.83.83 0 0 1 0 1.16l-1.113 1.113c.445.773.797 1.605 1.031 2.473h1.57c.458 0 .821.363.821.82v3.422c0 .468-.375.832-.89.82h-1.5a10 10 0 0 1-1.032 2.473l1.113 1.113a.83.83 0 0 1 0 1.16l-2.414 2.414a.83.83 0 0 1-1.16 0l-1.113-1.113a10 10 0 0 1-2.473 1.031v1.57c0 .457-.363.82-.82.82h-3.41a.815.815 0 0 1-.82-.82v-1.57c-.41-.105-.891-.27-1.278-.433-.41-.176-.82-.375-1.207-.598l-1.113 1.113a.83.83 0 0 1-1.16 0l-2.414-2.414a.83.83 0 0 1 0-1.16l1.113-1.113a10 10 0 0 1-1.02-2.473h-1.57a.815.815 0 0 1-.82-.82V17.26c0-.457.363-.82.82-.82h1.57c.106-.387.27-.903.434-1.278.176-.41.375-.82.598-1.207l-1.114-1.113a.83.83 0 0 1 0-1.16l2.414-2.414a.83.83 0 0 1 1.16 0l1.114 1.113a10 10 0 0 1 2.472-1.031V7.792a.805.805 0 0 1 .809-.82m2.602 1.64h-1.782v1.36a.824.824 0 0 1-.668.855 8.3 8.3 0 0 0-1.617.48 8.5 8.5 0 0 0-1.441.774.797.797 0 0 1-1.078-.07l-.996-.996-1.254 1.254.996.996a.83.83 0 0 1 .093 1.043 8 8 0 0 0-.796 1.488 8 8 0 0 0-.47 1.559.813.813 0 0 1-.808.726h-1.406v1.781h1.406c.387 0 .727.282.809.668.105.563.27 1.102.48 1.618q.317.755.774 1.441a.82.82 0 0 1-.07 1.078l-.997.996 1.254 1.254.996-.996a.83.83 0 0 1 1.043-.094c.47.317.961.586 1.489.809.504.21 1.02.363 1.558.469.41.046.727.398.727.808v1.407h1.781v-1.407c0-.387.281-.726.668-.808a8.3 8.3 0 0 0 1.617-.48 8.5 8.5 0 0 0 1.442-.774.82.82 0 0 1 1.078.07l.996.996 1.254-1.254-.996-.996a.83.83 0 0 1-.094-1.043 8.25 8.25 0 0 0 1.289-3.105.83.83 0 0 1 .809-.668H40.3V18.07h-1.407a.826.826 0 0 1-.808-.669 8.3 8.3 0 0 0-.48-1.617 8.5 8.5 0 0 0-.774-1.441.82.82 0 0 1 .07-1.078l.996-.996-1.289-1.254-.996.996a.82.82 0 0 1-1.043.105 8.7 8.7 0 0 0-1.488-.808 8 8 0 0 0-1.57-.469.824.824 0 0 1-.727-.82V8.612zM6.105 42.304l4.395-.035c.902 0 1.664.691 1.816 1.57l10.02-5.766c.012-.011.035-.011.047-.023 2.46-1.23 4.406-1.195 5.59-.563 1.008.54 1.558 1.547 1.418 2.672-.153 1.16-1.055 2.426-2.836 3.27-1.594.867-3.047 1.7-4.102 2.379-.34.21-.621.386-.844.504.797.047 2.285.129 4.055.28.961.095 1.98.165 2.988.235a50 50 0 0 0 2.754-.949c.996-.375 1.735-.668 1.84-.738l6.445-4.559.036-.023c1.734-1.114 4.066-1.36 5.296-.2.329.305.54.692.598 1.137 1.7-.633 3.785-.48 4.734.75.293.375.434.809.41 1.29-.046.726-.503 1.511-1.535 2.226-.597.41-1.628 1.148-2.824 1.992-4.699 3.34-12.023 8.531-14.765 9.328-.047.012-.094.024-.141.024-1.969.21-15.117.14-19.371.199-.305.62-.95 1.008-1.664 1.02l-4.395.035c-1.02 0-1.84-.88-1.84-1.876.036-4.113.012-8.238.012-12.351.012-1.031.844-1.816 1.863-1.828m4.383 1.605-4.383.035c-.117 0-.222.07-.222.188-.012 4.02-.176 8.379-.012 12.352 0 .117.106.246.211.246 1.453 0 2.918-.024 4.383-.035.129 0 .223-.07.223-.212l.011-11.238v-1.09c0-.105-.094-.246-.21-.246m22.547 3.106c.832 0 2.59-.012 2.942-.211l7.57-4.23c.34-.352.48-.633.457-.833-.047-.492-1.676-.902-3.387.2l-6.422 4.535c-.14.105-.562.304-1.16.539m-9.926-7.5-10.77 6.187-.01 9.961c3.585-.047 18.058-.011 18.948-.187 2.532-.785 9.621-5.824 14.203-9.07 1.079-.762 2.004-1.43 2.848-2.005.82-.562 1.172-1.101.34-1.453-.68-.304-1.77-.28-2.895.258l-8.976 5.016c-1.524.855-9.176.187-11.25 0-2.145-.2-4.043-.48-5.098-.785-.035.011-.082.011-.129.011a.806.806 0 0 1-.832-.797c-.011-.609.797-1.37 2.11-2.226 1.078-.703 2.566-1.559 4.207-2.45.023-.011.047-.034.082-.046 1.23-.586 1.84-1.348 1.922-1.992.058-.457-.165-.809-.563-1.02-.82-.398-2.215-.351-4.137.598"/></svg>