<svg xmlns="http://www.w3.org/2000/svg" width="60" height="60" fill="none"><g clip-path="url(#a)"><path fill="#282928" d="M58.535 49.453h-1.172V15.095A4.4 4.4 0 0 0 52.97 10.7h-8.706C42.46 4.525 36.749 0 30 0c-1.789 0-3.538.315-5.2.936a.879.879 0 0 0 .616 1.646A13 13 0 0 1 30 1.758c7.222 0 13.097 5.875 13.097 13.097 0 7.194-5.855 13.097-13.097 13.097-7.247 0-13.097-5.897-13.097-13.097 0-4.078 1.86-7.899 5.152-10.413a.879.879 0 1 0-1.067-1.397c-2.576 1.969-4.389 4.643-5.258 7.656H7.03a4.4 4.4 0 0 0-4.394 4.394v34.358H1.465C.657 49.453 0 50.11 0 50.918v4.049A5.04 5.04 0 0 0 5.033 60h49.934A5.04 5.04 0 0 0 60 54.967v-4.049c0-.808-.657-1.465-1.465-1.465M52.97 12.458a2.64 2.64 0 0 1 2.636 2.637v34.358h-1.757v-33.89a1.35 1.35 0 0 0-1.348-1.347h-7.66a15 15 0 0 0-.18-1.758zM4.395 15.095a2.64 2.64 0 0 1 2.636-2.637h8.306a15 15 0 0 0-.177 1.758H7.5a1.35 1.35 0 0 0-1.348 1.348v33.89H4.395zm53.847 39.872a3.28 3.28 0 0 1-3.275 3.275H5.033a3.28 3.28 0 0 1-3.275-3.275V51.21h22.33v1.465c0 1.13.92 2.05 2.05 2.05h7.724c1.13 0 2.05-.92 2.05-2.05V51.21h7.922a.879.879 0 0 0 0-1.758H7.91v-33.48h7.277C15.761 23.645 22.186 29.71 30 29.71s14.239-6.066 14.813-13.736h7.277v33.48h-4.155a.879.879 0 0 0 0 1.757h10.307zm-32.397-2.291V51.21h8.31v1.465a.293.293 0 0 1-.293.293h-7.724a.293.293 0 0 1-.293-.293m24.597-9.164c.62-.839-.018-2.066-1.04-2.057H42.87a.41.41 0 0 1-.41-.41v-2.927c0-.226.184-.41.41-.41h6.533c1.027.009 1.653-1.227 1.04-2.057a8.43 8.43 0 0 0-6.75-3.407 8.38 8.38 0 0 0-6.96 3.706H23.001a8.38 8.38 0 0 0-6.96-3.706 8.43 8.43 0 0 0-6.75 3.407c-.61.824-.008 2.067 1.04 2.057h6.532c.226 0 .41.184.41.41v2.927c0 .226-.184.41-.41.41H10.33c-1.056-.011-1.658 1.22-1.04 2.057a8.43 8.43 0 0 0 6.75 3.407c2.8 0 5.396-1.384 6.96-3.706h13.731a8.38 8.38 0 0 0 6.96 3.706 8.43 8.43 0 0 0 6.75-3.407m-6.75 1.65a6.62 6.62 0 0 1-5.537-2.983c-.3-.453-.8-.724-1.337-.724H22.917c-.539 0-1.039.27-1.338.724a6.62 6.62 0 0 1-5.538 2.982c-1.793 0-3.459-.7-4.696-1.948h5.519a2.17 2.17 0 0 0 2.168-2.168v-2.927a2.17 2.17 0 0 0-2.168-2.168h-5.52A6.56 6.56 0 0 1 16.042 34a6.62 6.62 0 0 1 5.538 2.983c.3.453.8.723 1.338.723h13.9c.539 0 1.039-.27 1.338-.723a6.62 6.62 0 0 1 5.538-2.983c1.794 0 3.46.7 4.697 1.949h-5.52a2.17 2.17 0 0 0-2.168 2.168v2.927a2.17 2.17 0 0 0 2.168 2.168h5.52a6.56 6.56 0 0 1-4.697 1.948M21.21 10.911a5.05 5.05 0 0 0 2.645 4.42v1.584q.001.498.088.971a4.99 4.99 0 0 0-2.733 4.468.879.879 0 0 0 1.757 0c0-1.165.608-2.21 1.57-2.788a5.52 5.52 0 0 0 4.833 2.863h1.262a5.52 5.52 0 0 0 4.834-2.863 3.24 3.24 0 0 1 1.569 2.788.879.879 0 0 0 1.758 0 4.99 4.99 0 0 0-2.733-4.468 5.5 5.5 0 0 0 .087-.971v-1.584a5.05 5.05 0 0 0 2.645-4.42.879.879 0 0 0-1.757 0c0 .862-.35 1.674-.932 2.273a5.52 5.52 0 0 0-2.332-3.848 5.01 5.01 0 0 0 2.343-4.24.879.879 0 0 0-1.758 0 3.26 3.26 0 0 1-3.257 3.256h-2.196a3.26 3.26 0 0 1-3.257-3.257.879.879 0 0 0-1.758 0c0 1.784.937 3.352 2.343 4.24a5.52 5.52 0 0 0-2.332 3.85 3.27 3.27 0 0 1-.931-2.274.879.879 0 0 0-1.758 0m4.403 2.956a3.76 3.76 0 0 1 3.757-3.757h1.262a3.76 3.76 0 0 1 3.757 3.757v3.047a3.76 3.76 0 0 1-3.757 3.757H29.37a3.76 3.76 0 0 1-3.757-3.757z"/></g><defs><clipPath id="a"><path fill="#fff" d="M0 0h60v60H0z"/></clipPath></defs></svg>