<svg xmlns="http://www.w3.org/2000/svg" width="60" height="60" fill="none"><path fill="#282928" d="M5.648 50.543v3.117c0 .305.247.54.54.54h3.117c.293 0 .539-.247.539-.54v-3.117a.545.545 0 0 0-.54-.54H6.188a.545.545 0 0 0-.539.54M4.242 53.66v-3.117c0-1.078.88-1.945 1.946-1.945h3.117c1.078 0 1.945.879 1.945 1.945v.855h33.082c3.012-.046 5.836-1.406 7.781-3.421a11.22 11.22 0 0 0 3.176-7.84c0-.387.316-.703.703-.703s.703.316.703.703c0 6.832-5.414 12.433-12.27 12.656H11.239v.855a1.95 1.95 0 0 1-1.945 1.946H6.188a1.923 1.923 0 0 1-1.946-1.934m22.781-22.793a4.804 4.804 0 1 1 0 9.61 4.804 4.804 0 0 1-4.804-4.805 4.804 4.804 0 0 1 4.804-4.805m2.403 2.403c-2.133-2.133-5.801-.61-5.801 2.402 0 3.023 3.668 4.535 5.8 2.402a3.4 3.4 0 0 0 0-4.804m-3.844-7.723h2.871c.387 0 .703.316.703.703v1.313c.727.187 1.43.48 2.075.855l.925-.926a.693.693 0 0 1 .996 0l2.04 2.04a.693.693 0 0 1 0 .995l-.926.938a8.2 8.2 0 0 1 .855 2.074h1.324c.387 0 .703.316.703.703v2.883c0 .41-.316.727-.761.703h-1.254a8.2 8.2 0 0 1-.856 2.074l.926.926a.693.693 0 0 1 0 .996l-2.039 2.016a.714.714 0 0 1-.996 0l-.926-.938a8.2 8.2 0 0 1-2.074.856v1.312a.705.705 0 0 1-.703.703h-2.883a.705.705 0 0 1-.703-.703v-1.312a8.2 8.2 0 0 1-2.074-.856l-.926.938a.714.714 0 0 1-.996 0l-2.04-2.04a.693.693 0 0 1 0-.995l.927-.926a8.2 8.2 0 0 1-.856-2.074H17.59a.705.705 0 0 1-.703-.703v-2.883c0-.387.316-.703.703-.703h1.324a8.2 8.2 0 0 1 .855-2.075l-.925-.937a.693.693 0 0 1 0-.996l2.039-2.04a.694.694 0 0 1 .996 0l.926.927a8.4 8.4 0 0 1 2.074-.856V26.25c0-.387.316-.703.703-.703m2.18 1.406h-1.477v1.137a.706.706 0 0 1-.574.726c-.844.165-1.875.563-2.578 1.055-.281.211-.68.2-.926-.058l-.832-.832-1.043 1.042.832.832c.234.235.281.61.082.891-.48.703-.937 1.723-1.078 2.567a.7.7 0 0 1-.703.62h-1.172v1.477h1.172c.328 0 .62.235.691.574.164.844.563 1.887 1.055 2.578.21.282.2.68-.059.926l-.832.832 1.043 1.043.832-.832a.69.69 0 0 1 .89-.082c.704.48 1.724.95 2.567 1.078.352.047.621.34.621.703v1.172h1.477V43.23c0-.328.234-.62.574-.69.844-.165 1.887-.563 2.578-1.056a.71.71 0 0 1 .926.059l.832.832 1.043-1.043-.832-.832a.69.69 0 0 1-.082-.89 6.8 6.8 0 0 0 1.078-2.614.695.695 0 0 1 .692-.574h1.172v-1.477h-1.172a.71.71 0 0 1-.692-.574c-.164-.844-.562-1.887-1.054-2.578a.7.7 0 0 1 .058-.926l.832-.832-1.043-1.043-.832.832a.69.69 0 0 1-.89.082c-.704-.48-1.723-.937-2.567-1.078a.7.7 0 0 1-.621-.703v-1.172zm22.3-8.273h-3l-3.292 3.293v3.55c.808.586 1.535 1.301 2.156 2.098.093.059 3.539.305 6.715 3.235a.69.69 0 0 1 .035.984.69.69 0 0 1-.985.035 11.3 11.3 0 0 0-2.894-1.945 11.6 11.6 0 0 0-3.305-.961.72.72 0 0 1-.527-.293 8.82 8.82 0 0 0-5.203-3.469.72.72 0 0 1-.48-.387c-2.368-5.05-7.489-8.32-13.114-8.32a.705.705 0 0 1-.703-.703v-4.195a.72.72 0 0 1 .21-.504l3.692-3.692a.7.7 0 0 1 .504-.21h3.281c0-.868-.105-1.56.575-2.227a1.93 1.93 0 0 1 1.37-.574h3.118c1.078 0 1.945.878 1.945 1.945v3.117a1.95 1.95 0 0 1-1.945 1.945h-3.117a1.95 1.95 0 0 1-1.946-1.945v-.855h-3l-3.293 3.293v3.234a15.87 15.87 0 0 1 13.524 8.812 9.7 9.7 0 0 1 1.969.739v-3a.7.7 0 0 1 .21-.504l3.692-3.692a.7.7 0 0 1 .504-.21h3.281c0-.868-.105-1.56.574-2.227a1.95 1.95 0 0 1 1.383-.563h3.117c1.078 0 1.946.88 1.946 1.946v3.117a1.95 1.95 0 0 1-1.946 1.945h-3.117a1.95 1.95 0 0 1-1.945-1.945v-.867zm5.602.855v-3.117a.545.545 0 0 0-.539-.54h-3.117a.545.545 0 0 0-.54.54v3.117c0 .293.247.54.54.54h3.117c.293 0 .54-.247.54-.54M38.766 9.457V6.34a.54.54 0 0 0-.54-.54H35.11a.545.545 0 0 0-.539.54v3.117c0 .293.246.54.54.54h3.117a.545.545 0 0 0 .539-.54M9.938 14.543h3.28c.2 0 .376.082.505.21l3.691 3.692a.695.695 0 0 1-.105 1.078 14.6 14.6 0 0 0-4.055 4.887 14.4 14.4 0 0 0-1.57 6.176.7.7 0 0 1-.282.539 11.24 11.24 0 0 0-4.511 9.012.705.705 0 0 1-.703.703.705.705 0 0 1-.704-.703c0-3.88 1.793-7.535 4.805-9.926a15.8 15.8 0 0 1 5.578-11.32l-2.941-2.942H9.938v.856a1.95 1.95 0 0 1-1.946 1.945H4.875a1.95 1.95 0 0 1-1.945-1.945v-3.117c0-1.079.879-1.946 1.945-1.946h3.117c1.078 0 1.946.88 1.946 1.945zm-5.602-.855v3.117c0 .304.246.539.539.539h3.117c.305 0 .54-.258.54-.54v-3.116a.55.55 0 0 0-.54-.551H4.875a.55.55 0 0 0-.54.55m33.281 13.78a6.24 6.24 0 0 1 5.79 3.774c4.886-.176 9 3.797 9 8.73 0 4.723-3.762 8.59-8.462 8.731h-.035l-25.37.012a8.74 8.74 0 0 1-8.743-8.742 8.72 8.72 0 0 1 4.71-7.746c-.679-6.973 4.806-13.008 11.813-13.008 5.192-.012 9.739 3.363 11.297 8.25m2.684 2.18a4.9 4.9 0 0 0-3.117-.761.694.694 0 0 1-.762-.516c-1.195-4.535-5.344-7.758-10.113-7.758-6.364 0-11.239 5.625-10.36 11.918a.69.69 0 0 1-.41.739c-4.676 2.085-5.836 8.25-2.191 11.894a7.32 7.32 0 0 0 5.18 2.145h25.37a7.33 7.33 0 0 0 5.04-2.227 7.337 7.337 0 0 0-.317-10.512 7.42 7.42 0 0 0-5.625-1.898.71.71 0 0 1-.727-.48 4.8 4.8 0 0 0-1.968-2.544"/></svg>