<svg xmlns="http://www.w3.org/2000/svg" width="60" height="60" fill="none"><path fill="#282928" d="M52.567 7.574C47.51 6.81 42.486 4.669 37.635 1.207a.82.82 0 0 0-.476-.152h-14.32a.82.82 0 0 0-.477.152c-4.85 3.462-9.874 5.604-14.931 6.367a3.145 3.145 0 0 0-2.693 3.129v19.266c0 3.397.818 6.82 2.43 10.173 1.449 3.013 3.502 5.903 6.101 8.592 4.707 4.866 10.882 8.673 16.517 10.183a.8.8 0 0 0 .425 0c5.636-1.51 11.81-5.317 16.517-10.183 2.6-2.689 4.653-5.579 6.101-8.592 1.613-3.353 2.43-6.776 2.43-10.173V10.703a3.145 3.145 0 0 0-2.692-3.13m1.052 22.395c0 13.41-13.889 24.59-23.62 27.306-9.732-2.715-23.62-13.897-23.62-27.306V10.703c0-.76.545-1.393 1.296-1.507 5.24-.79 10.429-2.977 15.425-6.5h13.797c4.997 3.523 10.185 5.71 15.425 6.5a1.514 1.514 0 0 1 1.296 1.507zM51.3 10.69c-4.999-.882-9.948-2.973-14.71-6.213a.8.8 0 0 0-.462-.142H23.87a.82.82 0 0 0-.462.142c-4.762 3.24-9.71 5.33-14.71 6.213a.82.82 0 0 0-.677.808v18.47c0 2.986.75 6.014 2.227 9.001 1.29 2.607 3.1 5.125 5.38 7.482.28.288.57.579.865.863a.82.82 0 0 0 1.301-.961 13.45 13.45 0 0 1-1.463-6.134V29.537h27.337v10.684a13.45 13.45 0 0 1-1.463 6.133.82.82 0 0 0 1.301.961c.294-.284.585-.574.864-.862 2.28-2.358 4.09-4.876 5.381-7.483 1.478-2.986 2.228-6.015 2.228-9.001v-18.47a.82.82 0 0 0-.678-.808M40.486 27.897H36.65v-5.57a6.105 6.105 0 0 0-6.098-6.099h-1.107a6.105 6.105 0 0 0-6.098 6.099v5.57h-3.835V22.88c0-5.783 4.704-10.487 10.487-10.487s10.487 4.704 10.487 10.487zm-5.476 0H24.988v-5.57c0-2.458 2-4.458 4.457-4.458h1.107c2.458 0 4.458 2 4.458 4.458zm15.327 2.072c0 4.41-1.877 9.058-5.334 13.304a15.3 15.3 0 0 0 .305-3.053V28.718a.82.82 0 0 0-.82-.82h-2.361V22.88c0-6.687-5.44-12.128-12.128-12.128S17.87 16.192 17.87 22.88v5.017H15.51a.82.82 0 0 0-.82.82V40.22q0 1.557.304 3.052c-3.457-4.246-5.334-8.894-5.334-13.304V12.18c4.924-.972 9.784-3.057 14.46-6.203h11.757c4.677 3.146 9.537 5.23 14.46 6.203zM30 32.664a4.835 4.835 0 0 0-4.83 4.829c0 1.339.545 2.595 1.508 3.505v4.814a3.326 3.326 0 0 0 3.322 3.322 3.326 3.326 0 0 0 3.322-3.322V41a4.8 4.8 0 0 0 1.507-3.505 4.835 4.835 0 0 0-4.83-4.83m1.99 7.32a.82.82 0 0 0-.309.641v5.188c0 .927-.754 1.68-1.681 1.68a1.683 1.683 0 0 1-1.681-1.68v-5.188a.82.82 0 0 0-.309-.64 3.18 3.18 0 0 1-1.199-2.492A3.19 3.19 0 0 1 30 34.305a3.19 3.19 0 0 1 3.189 3.189c0 .974-.438 1.882-1.2 2.492"/></svg>