<svg xmlns="http://www.w3.org/2000/svg" width="60" height="60" fill="none"><path fill="#282928" d="m49.169 46.628.025-.051a.752.752 0 0 1 1.353.657l-.025.051a.752.752 0 1 1-1.353-.657M47.736 12.02v14.308l.52-.228a2.104 2.104 0 0 1 2.77 1.077l1.251 2.843a2.104 2.104 0 0 1-1.077 2.77l-3.464 1.525v8.492a1.67 1.67 0 0 1 1.095.13l4.643 2.28a1.68 1.68 0 0 1 .766 2.243l-4.835 9.849a1.677 1.677 0 0 1-2.243.766l-4.643-2.28a1.68 1.68 0 0 1-.852-2.026H6.21a.75.75 0 0 1-.752-.752V7.396a5.65 5.65 0 0 1 5.644-5.644h39.768c.14 0 .277.04.395.113 1.74.345 3.277 1.717 3.277 4.041v5.362a.75.75 0 0 1-.752.752zm2.651-8.738c-1.32 0-2.65.811-2.65 2.624v4.61h5.3v-4.61c0-1.813-1.33-2.624-2.65-2.624m-15.15 39.533c.804 4.739.832 4.901 7.304 9.132l3.548-7.226c-.77-.522-1.52-1.313-1.792-2.14l-1.933-5.9-3.35 1.474 1.35 5.706a.752.752 0 0 1-1.463.346l-1.657-6.999a1.536 1.536 0 0 0-1.809-1.159 1.52 1.52 0 0 0-1.15 1.807c.462 2.075.734 3.674.952 4.96m12.7 1.551-4.834 9.849a.175.175 0 0 0 .078.23l4.643 2.28a.175.175 0 0 0 .231-.079l4.835-9.849a.174.174 0 0 0-.079-.23l-4.643-2.28a.175.175 0 0 0-.23.079m-1.704-9.389-2.487 1.095 1.98 6.04c.114.288.287.55.507.77zm1.045-6.804-8.576 3.775-.004.002-8.285 3.647 1.733 3.938.88-.387q-.097-.465-.208-.965a3.025 3.025 0 0 1 2.29-3.602 3.044 3.044 0 0 1 3.547 2.089l8.035-3.537.003-.001 3.902-1.717a.6.6 0 0 0 .307-.789l-1.252-2.843a.6.6 0 0 0-.788-.307zM23.33 20.289H12.31v9.142h4.55a9.84 9.84 0 0 1 6.463-.345zm-8.596 12.338a8.277 8.277 0 0 0 5.118 14.098 8.28 8.28 0 0 0 8.647-5.8l-2.736-.299a.752.752 0 0 1-.525-1.192l1.76-2.4.02-.025 1.267-1.581a8.3 8.3 0 0 0-4.539-4.605 8.32 8.32 0 0 0-6.429.05l-.009.004a8.3 8.3 0 0 0-2.574 1.75m15.814 7.01-1.315-2.988-1.033 1.288-.98 1.336zm1.79-6.53 4.238-1.866-.807-.359c-.873-.385-1.697-.75-2.433-1.135-1.154-.603-1.97-.041-2.316.623-.419.8-.287 1.897.951 2.545zm13.895-6.117V5.906c0-1.099.343-1.985.89-2.65H11.1a4.145 4.145 0 0 0-4.14 4.14v44.87h33.333c-2.364-1.576-3.784-2.633-4.685-3.741-1.172-1.441-1.415-2.868-1.855-5.458-.118-.7-.253-1.495-.427-2.409l-1.252.55a.75.75 0 0 1-.379.067l-.02-.002-1.659-.182a9.782 9.782 0 1 1-15.654-10.156h-2.805a.75.75 0 0 1-.752-.752V19.537a.754.754 0 0 1 .752-.752h12.525a.75.75 0 0 1 .752.753l-.01 10.122a9.84 9.84 0 0 1 4.643 4.71l1.18-.52c-1.478-1.128-1.639-2.88-.96-4.177.72-1.378 2.444-2.252 4.344-1.258.693.362 1.495.716 2.344 1.092.67.295 1.358.601 2.032.927zm-3.845-16.86v4.762a.75.75 0 0 1-.752.752H11.558a.75.75 0 0 1-.752-.751V10.13a.75.75 0 0 1 .752-.752h30.078a.75.75 0 0 1 .752.752m-1.504.752H12.31v3.259h28.574zm.752 12.39H27.75a.753.753 0 0 0-.29 1.45.8.8 0 0 0 .29.054h13.885a.751.751 0 0 0 0-1.503m0-4.487H39.48a.751.751 0 1 0 0 1.504h2.156a.753.753 0 1 0 0-1.504M27.75 20.29h8.78a.751.751 0 0 0 0-1.504h-8.78a.753.753 0 1 0 0 1.504M16.655 39.217l2.831 2.227a.75.75 0 0 0 1.033-.1l4.107-4.742a.751.751 0 1 0-1.137-.985l-3.637 4.201-2.268-1.783a.752.752 0 0 0-.93 1.182"/></svg>