<svg xmlns="http://www.w3.org/2000/svg" width="60" height="60" fill="none"><g fill="#282928" clip-path="url(#a)"><path d="M57.95 44.83h-.302l.015-31.335c.001-.704-.272-1.366-.77-1.865a2.62 2.62 0 0 0-1.865-.773l-3.83-.003h-.001a.879.879 0 0 0 0 1.758l3.83.003c.235 0 .456.091.622.257a.87.87 0 0 1 .257.621L55.89 44.83h-2.298V27.213a3.24 3.24 0 0 0-3.238-3.24h-6.45V12.61l3.19.002a.879.879 0 0 0 0-1.758l-3.19-.002v-5.21a2.65 2.65 0 0 0-2.65-2.649H2.65A2.653 2.653 0 0 0 0 5.642v29.963a2.653 2.653 0 0 0 2.34 2.63l-.004 6.595h-.285c-.548 0-1.063.213-1.448.599A2.03 2.03 0 0 0 0 46.88a4.4 4.4 0 0 0 4.395 4.395h3.198a.879.879 0 1 0 0-1.758H4.395a2.64 2.64 0 0 1-2.637-2.637.291.291 0 0 1 .293-.293h30.402v2.93H11.694a.879.879 0 0 0 0 1.758h20.759v2.492a3.243 3.243 0 0 0 3.239 3.24h14.664a3.24 3.24 0 0 0 3.237-3.24v-2.492h2.012A4.4 4.4 0 0 0 60 46.88c0-1.131-.92-2.05-2.05-2.05M1.757 35.604V5.642c0-.492.4-.892.892-.892h38.606c.491 0 .891.4.891.892v18.332h-1.64V7.27a.88.88 0 0 0-.879-.88H13.111a.879.879 0 1 0 0 1.759h25.638v15.825h-3.057a3.243 3.243 0 0 0-3.24 3.239v5.885H5.157V8.148H9.01a.879.879 0 1 0 0-1.757H4.277a.88.88 0 0 0-.879.879v26.707c0 .485.394.879.88.879h28.175v1.64H2.65a.893.893 0 0 1-.892-.892m50.078 18.162c0 .817-.664 1.482-1.48 1.482H35.692a1.483 1.483 0 0 1-1.481-1.482v-9.739a.879.879 0 1 0-1.758 0v.802H4.093l.004-6.576h28.356v1.672a.879.879 0 1 0 1.758 0V27.213c0-.817.664-1.481 1.48-1.481h14.664c.817 0 1.48.664 1.48 1.48zm3.77-4.25h-2.013v-2.93h4.356c.162 0 .293.131.293.293a2.64 2.64 0 0 1-2.636 2.637"/><path d="M21.954 29.125c4.817 0 8.735-3.918 8.735-8.735s-3.918-8.736-8.735-8.736-8.735 3.919-8.735 8.736 3.918 8.735 8.735 8.735m0-15.713a6.986 6.986 0 0 1 6.978 6.978 6.985 6.985 0 0 1-6.978 6.977 6.985 6.985 0 0 1-6.977-6.977 6.985 6.985 0 0 1 6.977-6.978"/><path d="M20.749 23.738a.88.88 0 0 0 1.35-.044l4.033-5.175a.879.879 0 1 0-1.387-1.08l-3.383 4.342-1.767-1.99a.879.879 0 0 0-1.315 1.167zM41.45 28.791h3.146a.879.879 0 1 0 0-1.758h-3.147a.879.879 0 1 0 0 1.758M43.022 33.488a7.01 7.01 0 0 0-7.002 7.002 7.01 7.01 0 0 0 7.002 7.002 7.01 7.01 0 0 0 7.002-7.002 7.01 7.01 0 0 0-7.002-7.002m0 12.246a5.25 5.25 0 0 1-5.245-5.244 5.25 5.25 0 0 1 5.245-5.244 5.25 5.25 0 0 1 5.244 5.244 5.25 5.25 0 0 1-5.244 5.244"/><path d="M46.096 38.065a.88.88 0 0 0-1.234.153l-2.266 2.908-1.083-1.22a.879.879 0 1 0-1.315 1.168l1.785 2.01a.88.88 0 0 0 1.35-.044l2.916-3.742a.88.88 0 0 0-.153-1.233"/></g><defs><clipPath id="a"><path fill="#fff" d="M0 0h60v60H0z"/></clipPath></defs></svg>