<svg xmlns="http://www.w3.org/2000/svg" width="60" height="60" fill="none"><path fill="#282928" d="M34.077 26.844c0-.518.42-.938.938-.938h7.248a.938.938 0 0 1 0 1.875h-7.248a.94.94 0 0 1-.938-.937M30.93 51.385c-3.656-1.58-5.32-.508-6.534.275-.671.432-1.047.657-1.615.612-1.227-.095-1.772-.457-2.403-.875-1.505-.999-2.824-1.54-7.263-.04a.938.938 0 1 0 .601 1.777c3.9-1.32 4.662-.814 5.626-.175.705.467 1.582 1.049 3.294 1.182q.145.012.284.012c1.07 0 1.822-.485 2.491-.917 1.094-.704 2.038-1.313 4.775-.13a.937.937 0 1 0 .744-1.72M9.963 6.941a.756.756 0 1 0-1.512-.07c-.046.994 1.466 1.064 1.512.07m24.281-.049a.757.757 0 1 0 0 1.514.757.757 0 0 0 0-1.514m14.22 51.574a2.08 2.08 0 0 1-1.453.596H5.88a2.074 2.074 0 0 1-2.071-2.071V19.293l-1.177-.52a2.05 2.05 0 0 1-1.046-2.703l2.223-5.03V3.01c0-1.142.93-2.071 2.071-2.071h34.765c.561 0 1.068.21 1.465.606l6.367 6.368c.397.397.607.903.607 1.464V31.46c5.53 1.942 9.508 7.216 9.508 13.402 0 6.415-4.276 11.85-10.128 13.604M42.05 4.138V7.97h3.83zM3.39 17.058l2.227.985a.17.17 0 0 0 .133.001.17.17 0 0 0 .097-.09l5.113-11.569a.177.177 0 0 0-.089-.23L8.643 5.17a.2.2 0 0 0-.067-.015.18.18 0 0 0-.163.104L3.3 16.828a.177.177 0 0 0 .09.23M35.114 6.041a.18.18 0 0 0-.165-.111.2.2 0 0 0-.061.011l-2.27.88a.17.17 0 0 0-.095.093.17.17 0 0 0-.005.133L37.09 18.84a.17.17 0 0 0 .093.095c.03.014.079.026.133.005l2.27-.88a.17.17 0 0 0 .095-.093.17.17 0 0 0 .005-.133zm-3.409 4.095-.835.447c-1.384.72-2.702.182-3.865-.293-1.56-.638-3.034-1.24-5.233.269a10 10 0 0 0-1.463 1.24c-1.054 1.065-2.34 2.076-3.832 3.012 1.352 1.227 2.783.748 4.86-.093 1.628-.658 3.472-1.405 5.16-.443l6.039 3.442q.32.183.576.439l1.465-.611zM19.5 9.98c-1.038-.303-1.973-.085-2.947.143-1.153.27-2.46.576-3.778-.148l-1.123-.518-3.209 7.26c.644.285.893.391.981.425.787.306 1.123.956 1.302 1.574a2.73 2.73 0 0 1 4.182 1.609 2.73 2.73 0 0 1 2.733 1.692 2.73 2.73 0 0 1 1.835.269c.58.31 1.009.803 1.243 1.378a2.73 2.73 0 0 1 2.62.9l3.131 1.772a.8.8 0 0 0 .607.066.8.8 0 0 0 .487-.387.82.82 0 0 0-.326-1.102 1 1 0 0 1-.115-.077l-4.346-2.445a.938.938 0 1 1 .92-1.635l5.461 3.074a.81.81 0 0 0 1.097-.32.82.82 0 0 0-.325-1.1 505 505 0 0 1-4.163-2.35.938.938 0 0 1 .932-1.627c1.32.756 2.605 1.477 4.148 2.34a.78.78 0 0 0 .6.067.8.8 0 0 0 .491-.388.8.8 0 0 0 .014-.737.85.85 0 0 0-.345-.368l-6.038-3.441c-.9-.513-2.117-.02-3.528.551-2.166.877-5.13 2.077-7.604-1.106a1.145 1.145 0 0 1 .327-1.693c1.68-.981 3.097-2.05 4.212-3.177q.261-.262.524-.5m4.743 17.25-.335-.19a2.7 2.7 0 0 1-.231.595l-.47.88.39.223c.173.1.38.124.582.067a.83.83 0 0 0 .5-.394.82.82 0 0 0-.322-1.105 1 1 0 0 1-.114-.076m-13.918-3.925a.853.853 0 0 0 1.307.458l1.416-2.45a.87.87 0 0 0-.387-1.088.86.86 0 0 0-1.165.352l-1.109 2.073a.85.85 0 0 0-.062.655m2.46 2.804a.85.85 0 0 0 .415.51.866.866 0 0 0 1.167-.36l1.586-3.07a.87.87 0 0 0-.44-.896.86.86 0 0 0-.898.056l-1.44 2.493-.328.612a.85.85 0 0 0-.063.655m3.78 1.619c.365.195.817.1 1.075-.218l1.392-2.676a.87.87 0 0 0-.44-.894.87.87 0 0 0-.98.122l-1.499 2.903c0 .316.171.612.453.763m3.232 1.363a.86.86 0 0 0 1.164-.353l1.063-1.987a.87.87 0 0 0-.07-.92.84.84 0 0 0-.283-.244.87.87 0 0 0-.981.123l-1.345 2.584a.87.87 0 0 0 .452.797m17.547 28.098c-3.76-2.16-6.445-5.99-7.032-10.47H10.628a.938.938 0 0 1 0-1.875H30.19c.002-1.55.254-3.04.717-4.437h-20.28a.938.938 0 0 1 0-1.875h21.055a14.3 14.3 0 0 1 3.462-4.437H10.628a.938.938 0 0 1 0-1.875H37.93a14.22 14.22 0 0 1 9.277-1.275v-21.1H41.68c-.83 0-1.505-.675-1.505-1.504V2.813H5.88a.2.2 0 0 0-.196.196v3.79l1.015-2.297c.22-.5.624-.884 1.135-1.082a2.04 2.04 0 0 1 1.568.036l2.227.984a2.05 2.05 0 0 1 1.046 2.703l-.264.598 1.182.545q.034.016.066.035c.663.372 1.335.24 2.467-.024 1.392-.326 3.098-.725 5.103.386 2.778-1.644 4.908-.775 6.487-.13 1.07.439 1.704.672 2.28.372l1.027-.55-.252-.65a2.04 2.04 0 0 1 .037-1.568 2.03 2.03 0 0 1 1.133-1.084l2.27-.88a2.04 2.04 0 0 1 1.568.037c.501.221.886.624 1.084 1.133l4.572 11.793c.197.51.184 1.066-.037 1.567a2.04 2.04 0 0 1-1.133 1.085l-2.27.88a2.04 2.04 0 0 1-1.568-.037 2.04 2.04 0 0 1-1.084-1.133l-.087-.225-1.355.565a2.665 2.665 0 0 1-1.732 2.716 2.66 2.66 0 0 1-.27 1.84 2.69 2.69 0 0 1-2.355 1.389h-.013a2.668 2.668 0 0 1-1.935 2.4 2.7 2.7 0 0 1-.957.098c-.035.346-.139.69-.316 1.013a2.71 2.71 0 0 1-2.361 1.396c-.453 0-.898-.117-1.298-.347l-.403-.231c-.526.6-1.284.934-2.062.934a2.728 2.728 0 0 1-2.429-1.484 2.725 2.725 0 0 1-3.133-1.193 2.73 2.73 0 0 1-3.647-1.737 2.8 2.8 0 0 1-.118-.877 2.716 2.716 0 0 1-2.341-1.927c-.212-.7-.14-1.44.204-2.083l.545-1.02a6 6 0 0 1-.233-.953c-.067-.358-.158-.847-.3-.903-.1-.038-.324-.131-1.061-.458l-.124.28c-.221.5-.624.884-1.136 1.082-.24.094-.492.14-.742.14v37.058a.2.2 0 0 0 .196.197zm19.372-12.326c0-6.796-5.53-12.325-12.325-12.325-6.796 0-12.325 5.53-12.325 12.325 0 6.796 5.529 12.325 12.325 12.325s12.325-5.529 12.325-12.325m-1.086 0c0 6.197-5.042 11.24-11.24 11.24-6.196 0-11.238-5.043-11.238-11.24s5.042-11.238 11.239-11.238S55.63 38.665 55.63 44.862m-1.875 0c0-5.163-4.201-9.363-9.364-9.363s-9.364 4.2-9.364 9.363c0 5.164 4.2 9.364 9.364 9.364 5.163 0 9.364-4.2 9.364-9.364m-4.466 1.746-3.96-2.287v-5.579a.938.938 0 0 0-1.876 0v6.12c0 .335.179.645.47.812l4.428 2.557a.937.937 0 1 0 .938-1.624"/></svg>