<svg xmlns="http://www.w3.org/2000/svg" width="60" height="60" fill="none"><path fill="#282928" d="m55.094 48.396-6.74-6.74v-.001h-.002l-3.209-3.21A22.36 22.36 0 0 0 48.75 26.25c0-12.406-10.093-22.5-22.5-22.5s-22.5 10.093-22.5 22.5c0 12.405 10.094 22.5 22.5 22.5 4.493 0 8.68-1.33 12.196-3.608l3.209 3.21.002.001 6.74 6.74a3.93 3.93 0 0 0 2.8 1.156c1.04 0 2.057-.422 2.79-1.156l1.11-1.108a3.98 3.98 0 0 0-.003-5.59M5.625 26.249c0-11.373 9.252-20.625 20.626-20.625 11.372 0 20.624 9.252 20.624 20.625s-9.252 20.625-20.624 20.625c-11.374 0-20.626-9.252-20.626-20.625m38.419 13.748 2.321 2.32-4.046 4.047-2.322-2.321a22.7 22.7 0 0 0 4.047-4.046m9.724 12.664-1.107 1.106c-.779.78-2.165.773-2.939 0l-6.078-6.077 4.047-4.047 6.075 6.076c.805.811.805 2.133.002 2.942"/><path fill="#282928" d="M38.44 27.187h-4.818a12.8 12.8 0 0 0-.93-3.384l1.724-1c.692-.388 1.188-1.074 1.362-1.891l.768-3.853c.242-1.215-1.597-1.584-1.839-.367l-.766 3.842a.93.93 0 0 1-.454.64l-1.685.977a8.6 8.6 0 0 0-1.8-2.005v-2.334a3.7 3.7 0 0 0-.78-2.262c.165-.375.386-1.641 1.576-2.832l.804-.805c.876-.876-.448-2.204-1.326-1.326l-.804.805c-1.322 1.322-1.772 2.855-1.816 2.949a3.7 3.7 0 0 0-1.404-.279c-.497 0-.97.103-1.404.279-.044-.094-.443-1.575-1.816-2.949l-.805-.805c-.876-.876-2.204.448-1.326 1.326l.805.805c1.19 1.19 1.408 2.449 1.575 2.831a3.7 3.7 0 0 0-.78 2.263v2.333a8.6 8.6 0 0 0-1.8 2.005l-1.698-.983a.92.92 0 0 1-.44-.622l-.768-3.853a.937.937 0 1 0-1.839.367l.77 3.865c.172.805.667 1.49 1.348 1.872l1.737 1.007a12.8 12.8 0 0 0-.93 3.384h-4.818c-1.24 0-1.24 1.875 0 1.875h4.688c0 1.48.232 2.886.643 4.16l-2.245 1.163c-.692.389-1.188 1.074-1.362 1.892l-.767 3.853c-.243 1.212 1.593 1.598 1.838.366l.766-3.842c.06-.282.217-.507.414-.619l2.071-1.072c1.359 2.663 3.603 4.412 6.143 4.412s4.784-1.748 6.141-4.412l2.043 1.057a.92.92 0 0 1 .44.622l.769 3.853c.245 1.233 2.08.845 1.838-.366l-.77-3.866a2.83 2.83 0 0 0-1.386-1.893L33.11 33.22c.41-1.274.643-2.68.643-4.16h4.687c1.24.001 1.24-1.874 0-1.874m-14.063-9.375c0-1.044.867-1.875 1.875-1.875s1.875.832 1.875 1.875v1.277a5.6 5.6 0 0 0-1.875-.34 5.6 5.6 0 0 0-1.875.34zm-3.75 11.25c0-3.329 1.534-7.51 4.687-8.31v16.62c-2.656-.672-4.687-4.138-4.687-8.31m6.562 8.311V20.752c3.16.8 4.688 4.97 4.688 8.31 0 4.172-2.032 7.638-4.688 8.311"/></svg>