<svg xmlns="http://www.w3.org/2000/svg" width="60" height="60" fill="none"><g fill="#282928" clip-path="url(#a)"><path d="m7.219 40.359-2.203.712-1.875-5.737-1.782.58 1.875 5.729c.15.478.488.872.928 1.097s.947.272 1.435.112L7.8 42.14a25.4 25.4 0 0 0 3.788 5.222l-1.36 1.875c-.3.403-.422.9-.347 1.387.075.497.347.938.75 1.238l4.547 3.3c.413.3.91.422 1.406.337a1.83 1.83 0 0 0 1.22-.75l1.368-1.865a24.5 24.5 0 0 0 6.131 1.996v2.316a1.88 1.88 0 0 0 1.875 1.875h5.625a1.88 1.88 0 0 0 1.875-1.875v-2.315a24.7 24.7 0 0 0 6.14-2.007l1.35 1.866c.291.412.723.675 1.22.76a1.83 1.83 0 0 0 1.406-.338l4.547-3.3c.412-.3.675-.74.75-1.238a1.87 1.87 0 0 0-.338-1.387l-1.35-1.885a24.4 24.4 0 0 0 3.778-5.221l2.203.721c.478.15.985.113 1.435-.112.45-.235.778-.619.928-1.097l1.875-5.737-1.781-.582-1.875 5.747-2.203-.722c-.844-.281-1.772.094-2.232.89a23.2 23.2 0 0 1-3.497 4.82c-.628.665-.693 1.678-.159 2.39l1.36 1.875-4.547 3.3-1.37-1.884a1.885 1.885 0 0 0-2.324-.581 23 23 0 0 1-5.653 1.846c-.891.17-1.547.938-1.547 1.838v2.316h-5.625v-2.316c0-.9-.647-1.678-1.547-1.838a22.8 22.8 0 0 1-5.672-1.856c-.825-.375-1.781-.14-2.316.59l-1.359 1.876-4.547-3.3 1.35-1.866a1.85 1.85 0 0 0-.16-2.4 23.2 23.2 0 0 1-3.505-4.837c-.45-.778-1.379-1.153-2.222-.872z"/><path d="M30 49.688c8.653 0 16.2-5.541 18.778-13.782l-1.79-.562c-2.335 7.453-9.16 12.468-16.997 12.468-7.838 0-14.663-5.006-16.997-12.468l-1.79.562c2.577 8.24 10.124 13.782 18.777 13.782zM.938 31.875h58.125v1.875H.938zM55.313 30V16.875a.94.94 0 0 0-.938-.937h-7.5V1.874a.94.94 0 0 0-.937-.937h-11.25a.94.94 0 0 0-.938.937v9.375h-7.5V7.5a.93.93 0 0 0-.337-.722l-5.625-4.687a.935.935 0 0 0-1.2 0l-5.626 4.687a.93.93 0 0 0-.337.722V15h-7.5a.94.94 0 0 0-.937.938V30h1.875V16.875h6.562V30H15V7.94l4.688-3.909 4.687 3.91V30h1.875V13.125h7.5V30h1.875V2.813H45V30h1.875V17.813h6.563V30z"/><path d="M37.5 5.625h1.875V7.5H37.5zM41.25 5.625h1.875V7.5H41.25zM37.5 10.313h1.875v1.874H37.5zM41.25 10.313h1.875v1.874H41.25zM37.5 15h1.875v1.875H37.5zM41.25 15h1.875v1.875H41.25zM16.875 9.375H22.5v1.875h-5.625zM16.875 14.063H22.5v1.874h-5.625z"/></g><defs><clipPath id="a"><path fill="#fff" d="M0 0h60v60H0z"/></clipPath></defs></svg>