<svg xmlns="http://www.w3.org/2000/svg" width="60" height="60" fill="none"><path stroke="#282928" stroke-linecap="round" stroke-linejoin="round" stroke-miterlimit="10" stroke-width="1.5" d="M45.729 20.637V5.365a3.26 3.26 0 0 0-3.273-3.273h-25a3.26 3.26 0 0 0-3.272 3.273V21M45.729 34.184v20.454a3.26 3.26 0 0 1-3.273 3.273h-25a3.26 3.26 0 0 1-3.272-3.273V34.184"/><path stroke="#282928" stroke-linecap="round" stroke-linejoin="round" stroke-miterlimit="10" stroke-width="1.5" d="M24.637 2.092c1.09 0 2.09.545 2.636 1.454 1.273 1.91 4.091 1.91 5.364 0 .545-.909 1.636-1.454 2.636-1.454M14.273 46.455a3.26 3.26 0 0 0 3.273 3.273h25a3.26 3.26 0 0 0 3.273-3.273M30 55.182a1.364 1.364 0 1 0 0-2.727 1.364 1.364 0 0 0 0 2.727M4.132 29.168a2.09 2.09 0 1 0-.452-4.158 2.09 2.09 0 0 0 .452 4.158M7.182 35.314a2.09 2.09 0 1 0-.929-4.077 2.09 2.09 0 0 0 .929 4.077M6.812 23.092a2.09 2.09 0 1 0-.184-4.178 2.09 2.09 0 0 0 .184 4.177"/><path stroke="#282928" stroke-linecap="round" stroke-linejoin="round" stroke-miterlimit="10" stroke-width="1.5" d="M4.132 29.168a2.09 2.09 0 1 0-.452-4.158 2.09 2.09 0 0 0 .452 4.158M7.182 35.314a2.09 2.09 0 1 0-.929-4.077 2.09 2.09 0 0 0 .929 4.077M6.812 23.092a2.09 2.09 0 1 0-.184-4.178 2.09 2.09 0 0 0 .184 4.177M6 27.092h10.455"/><path stroke="#282928" stroke-linecap="round" stroke-linejoin="round" stroke-miterlimit="10" stroke-width="1.5" d="m8.184 31.818 1.636-1.636h6.636M8.184 22.455l1.636 1.546h6.636M6 27.092h10.455"/><path stroke="#282928" stroke-linecap="round" stroke-linejoin="round" stroke-miterlimit="10" stroke-width="1.5" d="m8.184 31.818 1.636-1.636h6.636M8.184 22.455l1.636 1.546h6.636M56.308 29.162a2.09 2.09 0 1 0-.452-4.157 2.09 2.09 0 0 0 .452 4.157M53.74 23.039a2.09 2.09 0 1 0-.928-4.077 2.09 2.09 0 0 0 .928 4.077M53.35 35.385a2.09 2.09 0 1 0-.183-4.178 2.09 2.09 0 0 0 .184 4.178"/><path stroke="#282928" stroke-linecap="round" stroke-linejoin="round" stroke-miterlimit="10" stroke-width="1.5" d="M56.308 29.162a2.09 2.09 0 1 0-.452-4.157 2.09 2.09 0 0 0 .452 4.157M53.74 23.039a2.09 2.09 0 1 0-.928-4.077 2.09 2.09 0 0 0 .928 4.077M53.35 35.385a2.09 2.09 0 1 0-.183-4.178 2.09 2.09 0 0 0 .184 4.178M54.001 27.092H43.547"/><path stroke="#282928" stroke-linecap="round" stroke-linejoin="round" stroke-miterlimit="10" stroke-width="1.5" d="m51.82 22.455-1.637 1.546h-6.636M51.82 31.818l-1.637-1.636h-6.636M54.001 27.092H43.547"/><path stroke="#282928" stroke-linecap="round" stroke-linejoin="round" stroke-miterlimit="10" stroke-width="1.5" d="m51.82 22.455-1.637 1.546h-6.636M51.82 31.818l-1.637-1.636h-6.636M36.456 22.546v9.182c0 1-.818 1.909-1.91 1.909h-9.09c-1 0-1.91-.819-1.91-1.91v-9.181c0-1 .82-1.91 1.91-1.91h9.09c1.092 0 1.91.91 1.91 1.91"/><path stroke="#282928" stroke-linecap="round" stroke-linejoin="round" stroke-miterlimit="10" stroke-width="1.5" d="M26.777 30.316v-6.454h6.455v6.454zM26.637 20.637v-2.545M30 20.637v-2.545M33.363 20.637v-2.545M26.637 36.182v-2.545M30 36.182v-2.545M33.363 36.182v-2.545M36.457 23.729h2.636M36.457 27.092h2.636M36.457 30.547h2.636M20.91 23.729h2.637M20.91 27.092h2.637M20.91 30.547h2.637"/></svg>