<svg xmlns="http://www.w3.org/2000/svg" width="60" height="60" fill="none"><path fill="#282928" d="M55.038 43.4a.937.937 0 0 0-1.326 0L50.9 46.212a.937.937 0 0 0 0 1.326l2.812 2.812a.937.937 0 0 0 1.326 0l2.812-2.812a.937.937 0 0 0 0-1.326zm-.663 4.962-1.487-1.487 1.487-1.487 1.487 1.487zM45.663 49.025a.937.937 0 0 0-1.326 0l-2.812 2.812a.937.937 0 0 0 0 1.326l2.812 2.812a.937.937 0 0 0 1.326 0l2.812-2.812a.937.937 0 0 0 0-1.326zM45 53.987 43.513 52.5 45 51.013l1.487 1.487zM39.65 27.85a.937.937 0 0 0 1.325 0c.439-.444.753-.996.91-1.6h1.24a.938.938 0 0 0 0-1.875h-1.24a3.54 3.54 0 0 0-.91-1.6.937.937 0 0 0-1.325 1.326 1.717 1.717 0 0 1 0 2.424.937.937 0 0 0 0 1.326M49.413 26.525a.937.937 0 0 0-1.326 0 3.54 3.54 0 0 0-.91 1.6h-1.24a.938.938 0 0 0 0 1.875h1.24c.158.604.471 1.156.91 1.6a.937.937 0 0 0 1.326-1.326 1.717 1.717 0 0 1 0-2.424.937.937 0 0 0 0-1.326"/><path fill="#282928" d="M50.236 21.594a4.653 4.653 0 0 0-7.11-1.89 4.65 4.65 0 0 0-2.813-.954 4.71 4.71 0 0 0-4.44 3.199 3.72 3.72 0 0 0-2.122 3.363c0 .483.095.961.281 1.407-.3.71-.366 1.499-.187 2.25q.049.208.12.41a.938.938 0 1 0 1.764-.64 1.803 1.803 0 0 1 .16-1.552.94.94 0 0 0 0-.937 1.84 1.84 0 0 1 1.047-2.71.94.94 0 0 0 .632-.695 2.824 2.824 0 0 1 2.745-2.22c.699.004 1.37.275 1.875.757V22.5a.938.938 0 0 0 1.875 0v-1.118a2.74 2.74 0 0 1 1.875-.757 2.8 2.8 0 0 1 2.56 1.676l-.453.519a.938.938 0 1 0 1.412 1.235l.515-.588a2.806 2.806 0 0 1 2.529 2.783 2.73 2.73 0 0 1-.632 1.748.94.94 0 0 0-.005 1.185 2.766 2.766 0 0 1-.772 4.174.94.94 0 0 0-.469.81v1.458h-.436l-.463-.695a8.45 8.45 0 0 0-3.344-2.914l-1.067-.516a.94.94 0 0 0-.766-.023 5.4 5.4 0 0 1-1.421.398.938.938 0 0 0 0 1.875 5.8 5.8 0 0 0 1.738-.386l.702.34a6.6 6.6 0 0 1 2.6 2.266l.742 1.113a.94.94 0 0 0 .78.417h1.875a.937.937 0 0 0 .938-.937v-1.895a4.69 4.69 0 0 0 1.875-3.73 4.57 4.57 0 0 0-.642-2.344 4.55 4.55 0 0 0 .642-2.344 4.694 4.694 0 0 0-4.14-4.656M36.837 9.1a.937.937 0 0 0 1.326 0l2.812-2.812a.937.937 0 0 0 0-1.326l-2.812-2.813a.937.937 0 0 0-1.326 0l-2.812 2.813a.937.937 0 0 0 0 1.326zm.663-4.962 1.487 1.487L37.5 7.112l-1.487-1.487zM49.962 12.85a.937.937 0 0 0 1.326 0l2.812-2.812a.937.937 0 0 0 0-1.326l-2.812-2.813a.937.937 0 0 0-1.326 0L47.15 8.712a.937.937 0 0 0 0 1.326zm.663-4.962 1.487 1.487-1.487 1.487-1.487-1.487z"/><path fill="#282928" d="M42.515 39.12a2.81 2.81 0 0 0-2.047-3.412l.406-2.433a2.813 2.813 0 0 0-5.531-1.014l-2.734 12.666-4.297-5.853a8.47 8.47 0 0 0-6.8-3.449H18.75v-.444a9.41 9.41 0 0 0 6.365-7.056h1.135a2.813 2.813 0 0 0 2.813-2.812v-3.75a2.81 2.81 0 0 0-2.813-2.813h-.937v-1.968a4.696 4.696 0 0 0 3.75-4.594V6.563a.937.937 0 0 0-1.357-.84l-2.167 1.085a6.6 6.6 0 0 1-2.935.692H11.25a4.693 4.693 0 0 0-4.687 4.688V26.25a9.34 9.34 0 0 0 2.812 6.684v2.691H6.563a4.693 4.693 0 0 0-4.688 4.688v16.875a.937.937 0 0 0 .938.937h20.625a.937.937 0 0 0 .937-.937V46.736l4.236 5.296a6.254 6.254 0 0 0 10.892-2.188zm-5.335-6.495a.938.938 0 0 1 1.844.342l-.573 3.441a.94.94 0 0 0 .924 1.092h.41a.937.937 0 0 1 .91 1.165l-.176.71H35.83zm-9.992-11.062v3.75a.937.937 0 0 1-.938.937h-9.375a.937.937 0 0 1-.937-.937v-3.75a.94.94 0 0 1 .937-.938h9.375a.94.94 0 0 1 .938.938m-15 0a.94.94 0 0 1 .937-.938h1.11c-.111.3-.17.618-.172.938v3.75c.003.32.061.637.172.937h-1.11a.937.937 0 0 1-.937-.937zm.937-2.813a2.81 2.81 0 0 0-2.64 1.875H8.438v-.549l2.376-2.377a2.8 2.8 0 0 1 1.99-.824h10.634v1.875zM8.438 22.5h1.874v1.875H8.439zm0-10.312a2.81 2.81 0 0 1 2.812-2.813h11.354a8.5 8.5 0 0 0 3.774-.89l.81-.405v4.108A2.81 2.81 0 0 1 24.375 15H12.803a4.66 4.66 0 0 0-3.315 1.373l-1.05 1.05zm0 14.062h2.047a2.81 2.81 0 0 0 2.64 1.875h10.07A7.5 7.5 0 0 1 8.439 26.25m7.5 9.375q.47 0 .937-.05v.988a2.812 2.812 0 1 1-5.625 0v-2.206a9.3 9.3 0 0 0 4.688 1.268M37.7 49.326a4.377 4.377 0 0 1-7.626 1.532l-5.906-7.381a.938.938 0 0 0-1.668.586V56.25H9.375V45.938a.937.937 0 0 0-1.875 0V56.25H3.75V40.313A2.81 2.81 0 0 1 6.563 37.5h2.906a4.687 4.687 0 0 0 9.187 0h2.857a6.59 6.59 0 0 1 5.292 2.682l5.486 7.482a.937.937 0 0 0 1.668-.334l1.466-6.08h4.582z"/><path fill="#282928" d="M55.313 15h-22.5A2.81 2.81 0 0 0 30 17.813v20.625c0 .493.13.978.375 1.406A.939.939 0 0 0 32 38.906a.93.93 0 0 1-.125-.468V17.812a.94.94 0 0 1 .938-.937h22.5a.94.94 0 0 1 .937.938v20.625a.94.94 0 0 1-.937.937H45a.938.938 0 0 0 0 1.875h10.313a2.81 2.81 0 0 0 2.812-2.812V17.812A2.81 2.81 0 0 0 55.313 15"/></svg>