<svg xmlns="http://www.w3.org/2000/svg" width="60" height="60" fill="none"><path fill="#282928" d="M55.26 51.552c-.056-1.463-.67-2.767-1.729-3.669L38.013 34.635a17.76 17.76 0 0 0 2.468-9.053c0-4.675-1.804-8.936-4.754-12.124l1.212-1.212 4.054.211.037.002a.7.7 0 0 0 .497-.207l4.702-4.702a.702.702 0 0 0-.46-1.2l-3.734-.194-.194-3.733a.703.703 0 0 0-1.2-.46L35.94 6.664a.7.7 0 0 0-.205.533l.212 4.055-1.212 1.211A17.82 17.82 0 0 0 22.608 7.71c-9.856 0-17.874 8.018-17.874 17.874s8.018 17.873 17.874 17.873a17.76 17.76 0 0 0 9.051-2.468l13.248 15.518c.903 1.057 2.207 1.672 3.67 1.73q.115.004.23.004c1.657 0 3.344-.704 4.55-1.91 1.26-1.26 1.972-3.048 1.904-4.779M41.64 7.545l2.476.129-3.363 3.364-2.476-.129zm-1.124-3.471.13 2.476-3.365 3.364-.129-2.476zM6.141 25.584c0-9.08 7.387-16.468 16.467-16.468 4.288 0 8.197 1.648 11.13 4.343l-3.348 3.348a11.7 11.7 0 0 0-7.08-2.937v-2.371a.704.704 0 0 0-1.405 0v2.37c-5.912.352-10.66 5.1-11.011 11.011H8.523a.704.704 0 0 0 0 1.407h2.37c.352 5.912 5.1 10.66 11.012 11.01v2.371a.704.704 0 0 0 1.406 0v-2.37c5.912-.352 10.66-5.1 11.01-11.011h2.372a.704.704 0 0 0 0-1.407h-2.371a11.7 11.7 0 0 0-2.938-7.079l3.348-3.348a16.4 16.4 0 0 1 4.343 11.13c0 9.08-7.388 16.468-16.467 16.468-9.08 0-16.467-7.388-16.467-16.467m24.447.703h2.324c-.347 5.136-4.465 9.255-9.602 9.602v-2.324a.704.704 0 0 0-1.406 0v2.324c-5.137-.347-9.256-4.466-9.603-9.602h2.324a.704.704 0 0 0 0-1.407h-2.324c.347-5.136 4.465-9.255 9.603-9.602v2.324a.704.704 0 0 0 1.406 0v-2.324a10.3 10.3 0 0 1 6.083 2.524l-3.93 3.93a4.77 4.77 0 0 0-2.856-.946 4.803 4.803 0 0 0-4.798 4.798 4.803 4.803 0 0 0 4.798 4.797 4.804 4.804 0 0 0 4.797-4.797 4.77 4.77 0 0 0-.945-2.857l3.929-3.93a10.3 10.3 0 0 1 2.524 6.083h-2.324a.704.704 0 0 0 0 1.407M26 25.584a3.395 3.395 0 0 1-3.391 3.391 3.395 3.395 0 0 1-3.392-3.391 3.395 3.395 0 0 1 3.392-3.392c.68 0 1.316.203 1.848.55l-2.345 2.345a.703.703 0 0 0 .994.993l2.345-2.344c.347.531.55 1.167.55 1.848m11.246 10.244 3.79 3.234-4.947 4.947-3.235-3.79a18 18 0 0 0 4.392-4.39m15.117 19.51c-.99.989-2.383 1.545-3.73 1.494-.754-.03-1.827-.269-2.655-1.238l-8.973-10.512 5.104-5.103 10.512 8.973c.969.827 1.207 1.9 1.237 2.655.052 1.347-.507 2.741-1.495 3.73"/></svg>