<svg xmlns="http://www.w3.org/2000/svg" width="60" height="60" fill="none"><path fill="#282928" d="M44.091 53.545h-6.575a.879.879 0 0 0 0 1.758h6.575a.879.879 0 0 0 0-1.758M45.97 49.787h-6.575a.879.879 0 0 0 0 1.758h6.575a.879.879 0 0 0 0-1.758M6.516 10.213h4.697a.879.879 0 0 0 0-1.758H6.516a.879.879 0 0 0 0 1.758M12.091 13.092a.88.88 0 0 0-.878-.88H6.516a.879.879 0 0 0 0 1.759h4.697a.88.88 0 0 0 .878-.88M27.184 10.213h4.697a.879.879 0 0 0 0-1.758h-4.697a.879.879 0 0 0 0 1.758M32.76 13.092a.88.88 0 0 0-.88-.88h-4.696a.879.879 0 0 0 0 1.759h4.697a.88.88 0 0 0 .879-.88"/><path fill="#282928" d="M57.864 4.954 53.167.257A.88.88 0 0 0 52.545 0H45.03a1.82 1.82 0 0 0-1.818 1.818v15.03a1.82 1.82 0 0 0 1.818 1.819h4.758v2.878a1 1 0 0 1-1 1H32.613a2.77 2.77 0 0 0-1.734-1.734v-2.144h4.757a1.82 1.82 0 0 0 1.819-1.819V5.576a.88.88 0 0 0-.258-.622L32.5.257A.88.88 0 0 0 31.88 0h-7.515a1.82 1.82 0 0 0-1.819 1.818v15.03a1.82 1.82 0 0 0 1.819 1.819h4.757v2.144a2.77 2.77 0 0 0-1.734 1.734H11.212a1 1 0 0 1-1-1v-2.878h4.758a1.82 1.82 0 0 0 1.818-1.818V5.576a.88.88 0 0 0-.257-.622L11.834.257A.88.88 0 0 0 11.212 0H3.697A1.82 1.82 0 0 0 1.88 1.818v15.03a1.82 1.82 0 0 0 1.818 1.819h4.758v2.878a2.76 2.76 0 0 0 2.757 2.758h16.175a2.77 2.77 0 0 0 1.734 1.734v5.894a1.92 1.92 0 0 1-1.203-.56l-2.107-2.107a3.67 3.67 0 0 0-2.614-1.082H14.97a3.7 3.7 0 0 0-3.697 3.697v24.424A3.7 3.7 0 0 0 14.969 60h30.848a3.69 3.69 0 0 0 3.508-2.528l6.46-19.382a1.82 1.82 0 0 0-.25-1.638 1.82 1.82 0 0 0-1.475-.755h-5.333v-.06a3.7 3.7 0 0 0-3.697-3.698H33.758a.879.879 0 0 0 0 1.758H45.03c1.07 0 1.94.87 1.94 1.94v.06H30.88v-9.66a2.77 2.77 0 0 0 1.733-1.734h16.175a2.76 2.76 0 0 0 2.758-2.758v-2.878h4.757a1.82 1.82 0 0 0 1.818-1.819V5.576a.88.88 0 0 0-.257-.622M32.758 3.001l1.696 1.696h-1.636a.06.06 0 0 1-.06-.06zm-8.455 13.848V1.819a.06.06 0 0 1 .06-.061H31v2.878a1.82 1.82 0 0 0 1.818 1.819h2.879v10.394a.06.06 0 0 1-.06.06H24.363a.06.06 0 0 1-.06-.06M12.091 3l1.696 1.696h-1.635a.06.06 0 0 1-.06-.06zM3.637 16.849V1.819a.06.06 0 0 1 .06-.061h6.636v2.878a1.82 1.82 0 0 0 1.819 1.819h2.878v10.394a.06.06 0 0 1-.06.06H3.697a.06.06 0 0 1-.06-.06M30 22.424a1 1 0 0 1 1 .999v.003a1.001 1.001 0 1 1-1-1.001M54.11 37.48a.06.06 0 0 1 .008.054l-6.461 19.382a1.94 1.94 0 0 1-1.84 1.326H14.97c-.55 0-1.046-.23-1.399-.6l6.287-18.861a1.94 1.94 0 0 1 1.84-1.326H54.06c.01 0 .031 0 .05.025m-32.412-1.783a3.69 3.69 0 0 0-3.507 2.528l-5.16 15.48V31.879c0-1.07.87-1.94 1.939-1.94h8.227c.518 0 1.005.202 1.37.569l2.107 2.106a3.67 3.67 0 0 0 2.447 1.079v2.004zM53.424 3l1.697 1.696h-1.636a.06.06 0 0 1-.06-.06zm2.88 13.908H45.03a.06.06 0 0 1-.061-.06V1.819a.06.06 0 0 1 .06-.061h6.637v2.878a1.82 1.82 0 0 0 1.818 1.819h2.879v10.394a.06.06 0 0 1-.06.06"/><path fill="#282928" d="M52.545 8.455h-4.697a.879.879 0 0 0 0 1.758h4.697a.879.879 0 0 0 0-1.758M52.545 12.213h-4.697a.879.879 0 0 0 0 1.758h4.697a.879.879 0 1 0 0-1.758"/></svg>