<svg xmlns="http://www.w3.org/2000/svg" width="60" height="60" fill="none"><path fill="#282928" d="M32.813 43.125H26.25V30.938a.94.94 0 0 0-.937-.938h-15a.94.94 0 0 0-.938.938v12.187H2.813a.94.94 0 0 0-.938.938v13.124a.937.937 0 0 0 .938.938h30a.94.94 0 0 0 .937-.937V44.062a.94.94 0 0 0-.937-.937M24.374 45h1.875v3.75h-1.875zm-7.5-13.125h1.875v3.75h-1.875zm-5.625 0H15v4.688a.94.94 0 0 0 .938.937h3.75a.94.94 0 0 0 .937-.937v-4.688h3.75v11.25H11.25zM9.375 45h1.875v3.75H9.375zM3.75 45H7.5v4.688a.937.937 0 0 0 .938.937h3.75a.94.94 0 0 0 .937-.937V45h3.75v11.25H3.75zm28.125 11.25H18.75V45h3.75v4.688a.94.94 0 0 0 .938.937h3.75a.94.94 0 0 0 .937-.937V45h3.75z"/><path fill="#282928" d="M57.188 1.875H21.563a.937.937 0 0 0-.938.938v2.812h-2.812a.937.937 0 0 0-.938.938v21.562h1.875V7.5H52.5v48.75H35.625v1.875h17.813a.94.94 0 0 0 .937-.937v-2.813h2.813a.94.94 0 0 0 .937-.937V2.813a.94.94 0 0 0-.937-.938M56.25 52.5h-1.875V6.563a.94.94 0 0 0-.937-.938H22.5V3.75h33.75z"/><path fill="#282928" d="M31.875 30h18.75v1.875h-18.75zM31.875 33.75h18.75v1.875h-18.75zM31.875 37.5h18.75v1.875h-18.75zM39.375 41.25h11.25v1.875h-11.25zM39.375 45h11.25v1.875h-11.25zM39.375 48.75h11.25v1.875h-11.25zM39.375 52.5h11.25v1.875h-11.25zM35.625 9.375a9.375 9.375 0 1 0 0 18.75 9.375 9.375 0 0 0 0-18.75m0 16.875a7.5 7.5 0 1 1 0-15 7.5 7.5 0 0 1 0 15"/><path fill="#282928" d="M36.563 12.188h-1.876v1.874h-1.874a.94.94 0 0 0-.938.938v3.75a.94.94 0 0 0 .938.938H37.5v1.875h-5.625v1.875h2.813v1.875h1.874v-1.875h1.876a.94.94 0 0 0 .937-.938v-3.75a.94.94 0 0 0-.937-.937H33.75v-1.875h5.625v-1.876h-2.812zM28.125 30H30v1.875h-1.875zM28.125 33.75H30v1.875h-1.875zM28.125 37.5H30v1.875h-1.875zM35.625 41.25H37.5v1.875h-1.875zM35.625 45H37.5v1.875h-1.875zM35.625 48.75H37.5v1.875h-1.875zM35.625 52.5H37.5v1.875h-1.875z"/></svg>