<svg xmlns="http://www.w3.org/2000/svg" width="60" height="60" fill="none"><path fill="#282928" fill-rule="evenodd" d="M53.85 4.105H6.15a4.397 4.397 0 0 0-4.392 4.393V41.04a4.397 4.397 0 0 0 4.392 4.392h17.952l-.887 6.077h-3.913c-1.21 0-2.193.983-2.193 2.193s.984 2.192 2.193 2.192h21.397c1.21 0 2.193-.983 2.193-2.192s-.983-2.193-2.193-2.193h-3.936l-.887-6.077H53.85a4.397 4.397 0 0 0 4.392-4.392V8.498a4.397 4.397 0 0 0-4.392-4.393M6.15 5.512h47.7a2.99 2.99 0 0 1 2.986 2.986v28.967H3.164V8.498A2.99 2.99 0 0 1 6.15 5.512m35.336 48.19a.787.787 0 0 1-.787.787H19.302a.787.787 0 0 1 0-1.573h21.397c.433 0 .787.353.787.787M35.34 51.51H24.635l.887-6.077h8.931zm18.509-7.483H6.15a2.99 2.99 0 0 1-2.986-2.986v-2.168h53.672v2.168a2.99 2.99 0 0 1-2.986 2.986m-7.25-3.08a1.224 1.224 0 0 1 0 .94 1.235 1.235 0 0 1-1.61.67 1.2 1.2 0 0 1-.399-.266l-.002-.002a1.3 1.3 0 0 1-.267-.401 1.223 1.223 0 0 1 0-.94q.095-.229.266-.4l.002-.002a1.23 1.23 0 0 1 .87-.362q.25.002.47.095.23.095.4.266l.002.002c.114.113.206.249.268.4m-15.49-9.84c0 .389.316.704.704.704h22.42a.704.704 0 0 0 0-1.406H53.19V17.473a.704.704 0 0 0-.703-.703h-3.22a.704.704 0 0 0-.703.703v12.933h-.668v-7.643a.704.704 0 0 0-.703-.703h-3.22a.704.704 0 0 0-.704.703v7.643h-.668v-5.5a.704.704 0 0 0-.703-.703h-3.22a.704.704 0 0 0-.703.703v5.5h-.668v-2.903a.704.704 0 0 0-.703-.703h-3.218a.704.704 0 0 0-.703.703v2.903h-.87a.7.7 0 0 0-.703.702m18.862-12.93h1.814v12.229h-1.814zm-5.294 5.288h1.814v6.94h-1.814zm-5.294 2.143h1.814v4.797h-1.814zm-5.294 2.597h1.814v2.2H34.09zm-1.765-3.852a.703.703 0 0 1 .587-.803l1.865-.29 2.82-3.536a.7.7 0 0 1 .46-.259l3.075-.39 2.1-2.8a.7.7 0 0 1 .458-.273l2.531-.38 1.153-1.804-.755.213a.704.704 0 0 1-.383-1.353l2.444-.693a.706.706 0 0 1 .868.484l.693 2.443a.704.704 0 0 1-1.354.384l-.242-.857-1.411 2.208a.7.7 0 0 1-.49.316l-2.562.385-2.105 2.806a.7.7 0 0 1-.474.276l-3.087.391-2.812 3.526a.7.7 0 0 1-.442.257l-2.137.332a.694.694 0 0 1-.8-.582m-25.42.197H15.4a3.03 3.03 0 0 0 2.939 2.32 3.03 3.03 0 0 0 2.939-2.32h8.494c.534 0 1.005-.209 1.364-.605a1.8 1.8 0 0 0 .468-1.416 13.3 13.3 0 0 0-4.286-8.535 13.3 13.3 0 0 0-8.98-3.477 13.3 13.3 0 0 0-8.978 3.477 13.3 13.3 0 0 0-4.287 8.535c-.053.53.11 1.02.469 1.416.358.395.83.605 1.364.605m11.434.913a1.62 1.62 0 0 1-1.617-1.617c0-.892.725-1.617 1.617-1.617s1.617.725 1.617 1.617-.726 1.617-1.617 1.617M6.472 22.666a11.87 11.87 0 0 1 2.94-6.751l1.61 1.608a.702.702 0 1 0 .993-.994l-1.608-1.608a11.88 11.88 0 0 1 7.23-2.977v2.257a.704.704 0 0 0 1.406 0v-2.257c2.764.16 5.282 1.25 7.228 2.977l-1.608 1.608a.704.704 0 0 0 .497 1.2.7.7 0 0 0 .497-.206l1.609-1.608a11.88 11.88 0 0 1 2.94 6.75.4.4 0 0 1-.111.336.4.4 0 0 1-.322.143h-8.494a3.03 3.03 0 0 0-1.158-1.737l1.595-4.239a.703.703 0 0 0-1.316-.495l-1.576 4.19a3.027 3.027 0 0 0-3.423 2.282H6.906A.4.4 0 0 1 6.584 23a.4.4 0 0 1-.112-.335M27.9 28.332a.704.704 0 0 1-.703.703H9.814a.704.704 0 0 1 0-1.407h17.382c.389 0 .703.315.703.704m0 3.426a.704.704 0 0 1-.703.703H9.814a.704.704 0 0 1 0-1.406h17.382c.389 0 .703.314.703.703m21.89 9.189q.092.222.094.47-.002.248-.095.47a1.235 1.235 0 0 1-1.609.67 1.2 1.2 0 0 1-.4-.266l-.002-.002a1.3 1.3 0 0 1-.267-.401 1.223 1.223 0 0 1 0-.94c.062-.151.154-.287.266-.4l.002-.002c.114-.112.25-.204.401-.267a1.224 1.224 0 0 1 .94 0q.228.095.4.266l.002.002c.114.113.205.249.267.4m3.19 0a1.227 1.227 0 0 1-.67 1.61 1.223 1.223 0 0 1-.94 0 1.2 1.2 0 0 1-.4-.266l-.002-.002a1.23 1.23 0 0 1-.362-.87c0-.165.034-.325.095-.471q.095-.229.266-.4l.002-.002c.114-.112.25-.204.401-.267a1.225 1.225 0 0 1 .94 0q.228.095.4.266l.002.002c.112.113.204.249.267.4" clip-rule="evenodd"/></svg>