<svg xmlns="http://www.w3.org/2000/svg" width="60" height="60" fill="none"><path fill="#282928" d="M54.01 10.57H35.57c.483-1.105.814-2.21.978-3.29a.7.7 0 0 0-.44-.76c-3.09-1.209-7.152-1.204-11.433.015-2.414.687-4.514 1.737-6.332 3.172-2.209-.574-4.447-.293-6.343.806-.032.018-.061.04-.093.057H5.99a4.24 4.24 0 0 0-4.231 4.233V50.15a4.237 4.237 0 0 0 4.231 4.232h48.023a4.237 4.237 0 0 0 4.231-4.232V14.803a4.24 4.24 0 0 0-4.232-4.232M35.055 7.636c-.377 1.793-1.257 3.662-2.565 5.481l-3.464-5.999c2.229-.222 4.288-.051 6.03.518m-9.995.253a24 24 0 0 1 2.462-.562l4.036 6.991a24 24 0 0 1-1.72 1.85c-3.096 3-6.695 4.555-11.001 4.752l-.066.002-3.362-5.824q.017-.029.035-.055c2.324-3.634 5.47-5.973 9.616-7.154m-6.083 14.429a19 19 0 0 0 4.244-.675c-.596 1.408-1.59 2.555-2.887 3.3a6.5 6.5 0 0 1-3.47.863 6.1 6.1 0 0 0 2.113-3.488M17.007 10.88A19 19 0 0 0 14.3 14.22a6.1 6.1 0 0 0-4.078.087 6.5 6.5 0 0 1 2.484-2.575c1.293-.751 2.784-1.038 4.301-.85m39.829 39.27a2.83 2.83 0 0 1-2.825 2.825H5.989a2.83 2.83 0 0 1-2.825-2.825V14.803a2.83 2.83 0 0 1 2.825-2.826h4.182a8.23 8.23 0 0 0-1.98 3.792.702.702 0 0 0 1.15.686q.34-.298.736-.527a4.6 4.6 0 0 1 4.024-.286l3.544 6.138a4.6 4.6 0 0 1-3.083 3.716.701.701 0 0 0 .019 1.337 8.5 8.5 0 0 0 2.5.383 7.9 7.9 0 0 0 3.955-1.055c1.901-1.092 3.264-2.89 3.871-5.09 2.152-.857 4.111-2.15 5.912-3.898 1.7-1.647 3.07-3.412 4.057-5.197h19.137a2.83 2.83 0 0 1 2.825 2.825v35.35zM34.52 47.797h-1.585V29.929a.704.704 0 0 0-.703-.703h-6.15a.704.704 0 0 0-.704.703v17.868h-1.283V35.25a.704.704 0 0 0-.703-.704h-6.18a.704.704 0 0 0-.704.704v12.546h-1.347v-9.482a.704.704 0 0 0-.704-.703h-6.18a.704.704 0 0 0-.703.703v9.482H6.32a.704.704 0 0 0 0 1.406h28.199a.704.704 0 0 0 0-1.406m-7.736-17.165h4.745v17.165h-4.745zm-8.87 5.322h4.775v11.843h-4.774zM8.98 39.018h4.774v8.779H8.98zM7.082 23.786a.703.703 0 0 1 .257-.96l6.121-3.534a.703.703 0 1 1 .703 1.219l-6.12 3.533a.704.704 0 0 1-.96-.258m16.869-7.022q.432.116.867.115c.576 0 1.146-.151 1.66-.448a3.3 3.3 0 0 0 1.55-2.021 3.3 3.3 0 0 0-.332-2.527 3.3 3.3 0 0 0-2.021-1.551 3.3 3.3 0 0 0-2.527.333 3.3 3.3 0 0 0-1.552 2.021 3.3 3.3 0 0 0 .333 2.527 3.3 3.3 0 0 0 2.022 1.551m-.996-3.713c.132-.496.45-.911.896-1.169a1.9 1.9 0 0 1 1.46-.192c.495.132.91.451 1.166.896.257.446.325.964.192 1.46-.132.495-.45.91-.896 1.168a1.91 1.91 0 0 1-1.459.192 1.9 1.9 0 0 1-1.167-.897 1.91 1.91 0 0 1-.192-1.458M11.89 23.643l3.06-1.767a.703.703 0 0 1 .703 1.219l-3.06 1.767a.704.704 0 0 1-.703-1.219m-3.241-4.21a.704.704 0 0 1 .257-.96l3.06-1.767a.704.704 0 0 1 .703 1.218l-3.06 1.768a.702.702 0 0 1-.96-.258m35.238 9.743h-4.545a.704.704 0 0 0-.703.703v4.544c0 .388.316.703.703.703h4.545a.704.704 0 0 0 .703-.703V29.88a.7.7 0 0 0-.703-.703m-.703 4.544h-3.139v-3.138h3.139zm10.452-2.748a.704.704 0 0 1-.703.703h-6.06a.704.704 0 0 1 0-1.406h6.06c.388 0 .703.315.703.703m-7.466 2.357c0-.388.315-.703.703-.703h3.935a.704.704 0 0 1 0 1.406h-3.935a.703.703 0 0 1-.703-.703m-2.283 2.885h-4.545a.704.704 0 0 0-.703.703v4.544c0 .388.316.704.703.704h4.545a.704.704 0 0 0 .703-.703v-4.545a.7.7 0 0 0-.703-.703m-.703 4.544h-3.139V37.62h3.139zm10.452-2.748a.704.704 0 0 1-.703.703h-6.06a.704.704 0 0 1 0-1.406h6.06c.388 0 .703.315.703.703m-7.466 2.357c0-.388.315-.703.703-.703h3.935a.704.704 0 0 1 0 1.406h-3.935a.7.7 0 0 1-.703-.703m-2.283 2.885h-4.545a.704.704 0 0 0-.703.703V48.5c0 .388.316.703.703.703h4.545a.704.704 0 0 0 .703-.703v-4.545a.703.703 0 0 0-.703-.703m-.703 4.545h-3.139v-3.139h3.139zm10.452-2.747a.704.704 0 0 1-.703.703h-6.06a.704.704 0 0 1 0-1.406h6.06c.388 0 .703.314.703.703m-2.125 2.355a.704.704 0 0 1-.703.703h-3.935a.704.704 0 0 1 0-1.406h3.935c.388 0 .703.315.703.703M38.64 15.891c0-.388.316-.703.703-.703h2.8a.704.704 0 0 1 0 1.406h-2.8a.704.704 0 0 1-.703-.703m15.853 0a.704.704 0 0 1-.703.703h-8.434a.704.704 0 0 1 0-1.406h8.434c.388 0 .703.315.703.703m0 3.811a.704.704 0 0 1-.703.703H39.343a.704.704 0 0 1 0-1.406H53.79c.388 0 .703.314.703.703m0 3.81a.704.704 0 0 1-.703.703h-3.367a.704.704 0 0 1 0-1.406h3.367c.388 0 .703.315.703.703m-15.853 0c0-.388.316-.703.703-.703h7.867a.704.704 0 0 1 0 1.406h-7.867a.703.703 0 0 1-.703-.703"/></svg>