<svg xmlns="http://www.w3.org/2000/svg" width="60" height="60" fill="none"><g fill="#282928" clip-path="url(#a)"><path d="M52.474 52.06a1.17 1.17 0 0 0-1.586.483 9.64 9.64 0 0 1-8.515 5.113c-5.253 0-9.654-4.443-9.644-9.656.006-5.17 4.398-9.632 9.644-9.632a9.63 9.63 0 0 1 8.522 5.127 1.172 1.172 0 0 0 2.07-1.1 11.97 11.97 0 0 0-10.592-6.371c-1.594 0-3.115.313-4.508.88.05-.655.067-1.311.06-1.968V7.976a4.516 4.516 0 0 0-4.51-4.51 4.517 4.517 0 0 0-4.49 4.076l-1.6-4.267C26.385.77 23.543-.588 21.014.245c-2.694.884-4.15 3.91-3.162 6.567l5.054 14.114a17 17 0 0 0-2.471-.156c-4.11-.119-7.768 1.518-10.163 2.761q-.038.02-.075.042c-1.526.94-2.363 2.382-2.42 4.171v.038c0 .458.06.904.178 1.327H6.813c-.648 0-1.172.525-1.172 1.172v9.45c0 1.829.748 3.602 2.056 4.877l6.297 7.837c.881 1.122 1.323 2.583 1.15 3.825l-.311 2.408a1.172 1.172 0 1 0 2.325.3l.31-2.397c.26-1.87-.352-3.96-1.636-5.59l-.007-.01-6.347-7.9a1 1 0 0 0-.106-.114 4.49 4.49 0 0 1-1.387-3.236v-8.278h.025c.799 0 1.586.203 2.279.586a4.72 4.72 0 0 1 2.433 4.126v1.945c0 .318.13.623.358.844l2.731 2.636c1.31 1.266 3.059 1.907 5.197 1.907h.05c4.056-.173 7.033-3.227 7.24-7.427l.001-.057c0-4.19-3.304-7.473-7.53-7.493-2.603-.166-4.984.337-6.888 1.456-.78.44-1.675.445-2.458.012a2.49 2.49 0 0 1-1.302-2.188c.036-.983.44-1.686 1.27-2.21 3.473-1.795 6.246-2.56 8.991-2.477h.035c1.296 0 2.365.085 3.987.515l.01.004c.017.004 1.69.453 2.82 1.187a1.171 1.171 0 1 0 1.278-1.965c-.976-.633-2.182-1.078-2.894-1.308L20.056 6.014c-.474-1.333.34-3.099 1.69-3.542 1.275-.42 2.91.36 3.384 1.626l8.121 21.66c1.155 3.08 2.276 6.215 2.33 9.54a19.4 19.4 0 0 1-.233 2.999 11.96 11.96 0 0 0-4.576 6.688c-.419 1.605-.499 3.3-.235 4.938v8.905a1.172 1.172 0 1 0 2.344 0v-3.502A11.97 11.97 0 0 0 42.373 60c4.437 0 8.493-2.435 10.583-6.354a1.17 1.17 0 0 0-.482-1.586M15.046 32.01l.016-.009c1.507-.888 3.44-1.282 5.591-1.14q.04.002.077.002c2.92 0 5.21 2.247 5.225 5.121-.158 2.965-2.152 5.038-4.972 5.17-1.498-.005-2.69-.426-3.543-1.25l-2.374-2.291v-1.448a7.05 7.05 0 0 0-1.056-3.712 5 5 0 0 0 1.036-.442m16.202-18.274v-5.76a2.17 2.17 0 0 1 2.166-2.167 2.17 2.17 0 0 1 2.167 2.167v17.286l-.141-.344z"/><path d="m46.311 43.974-5.88 5.88-2-1.999a1.173 1.173 0 0 0-1.658 1.658L39.6 52.34a1.17 1.17 0 0 0 1.658 0l6.71-6.71a1.172 1.172 0 0 0-1.658-1.657M54.337 47.784c-.208-1.026-1.619-1.275-2.155-.373-.543.913.363 2.048 1.373 1.714.554-.184.897-.767.782-1.342"/></g><defs><clipPath id="a"><path fill="#fff" d="M0 0h60v60H0z"/></clipPath></defs></svg>