<svg xmlns="http://www.w3.org/2000/svg" width="60" height="60" fill="none"><path fill="#282928" fill-rule="evenodd" d="M23.132 22.522a.835.835 0 0 1 0-1.668.835.835 0 0 1 0 1.668m0-3.271a2.44 2.44 0 0 0-2.436 2.437 2.44 2.44 0 0 0 2.436 2.436 2.44 2.44 0 0 0 2.437-2.436 2.44 2.44 0 0 0-2.437-2.437m-.833-8.822c.278-.273.553-.283.92-.283.528 0 1.005.347.942.798l-.858 6.153c-.03.068-.31.067-.34 0l-.859-6.153c-.018-.131-.013-.31.195-.515m-.923 6.9c.115.82.863 1.424 1.768 1.424.882 0 1.632-.613 1.745-1.425l.86-6.163c.201-1.445-1.038-2.622-2.53-2.622h-.174c-1.491 0-2.73 1.178-2.529 2.622zm-9.455 6.235a1.03 1.03 0 0 0 .894 1.549H33.45c.8 0 1.294-.858.894-1.55L24.027 5.698a1.026 1.026 0 0 0-1.79 0zm23.811-.802-3.557-6.161a6.35 6.35 0 0 1 3.222-.867 6.414 6.414 0 0 1 6.406 6.407 6.414 6.414 0 0 1-6.406 6.407 6.37 6.37 0 0 1-4.49-1.832h2.543c2.028 0 3.297-2.195 2.282-3.954m-3.029-11.076a.8.8 0 0 0 .563-.527l.797-2.448h2.667l.796 2.448c.084.26.297.46.563.527.98.253 1.92.643 2.793 1.16.236.14.528.149.773.024l2.293-1.169 1.888 1.887-1.17 2.295a.8.8 0 0 0 .025.771c.517.874.907 1.814 1.16 2.795a.8.8 0 0 0 .527.561l2.449.796v2.67l-2.45.794a.8.8 0 0 0-.527.563c-.252.98-.642 1.92-1.159 2.794a.8.8 0 0 0-.024.772l1.17 2.294-1.889 1.887-2.293-1.168a.8.8 0 0 0-.773.023c-.873.517-1.813.907-2.793 1.16a.8.8 0 0 0-.563.527l-.796 2.448h-2.667l-.797-2.447a.8.8 0 0 0-.563-.529c-.979-.251-1.92-.64-2.793-1.16a.8.8 0 0 0-.772-.022l-2.294 1.168-1.888-1.887 1.17-2.294a.8.8 0 0 0-.025-.773q-.262-.444-.48-.91h3.2a7.96 7.96 0 0 0 6.576 3.435c4.416 0 8.01-3.594 8.01-8.01 0-4.418-3.594-8.01-8.01-8.01a7.95 7.95 0 0 0-4.024 1.082l-1.39-2.41a10.8 10.8 0 0 1 2.72-1.117m-19.888 15.03h11.06q.274.687.627 1.34l-1.238 2.428a.8.8 0 0 0 .147.93l2.71 2.71a.8.8 0 0 0 .931.148l2.43-1.238c.762.415 1.564.748 2.394.993l.841 2.593c.108.33.416.553.763.553h3.832a.8.8 0 0 0 .763-.553l.841-2.593c.831-.245 1.633-.578 2.395-.993l2.43 1.239a.8.8 0 0 0 .93-.148l2.71-2.71a.8.8 0 0 0 .147-.931l-1.237-2.429c.413-.762.747-1.564.993-2.394l2.59-.842a.8.8 0 0 0 .555-.761v-3.834a.8.8 0 0 0-.555-.761l-2.592-.843a12.3 12.3 0 0 0-.991-2.394l1.237-2.43a.8.8 0 0 0-.147-.93l-2.71-2.709a.8.8 0 0 0-.93-.148l-2.43 1.237a12.3 12.3 0 0 0-2.395-.992l-.841-2.592a.8.8 0 0 0-.763-.553H33.48a.8.8 0 0 0-.762.553l-.842 2.592c-.83.245-1.632.578-2.394.992l-.563-.286-3.504-6.067c-1.017-1.757-3.551-1.755-4.565 0l-10.317 17.87c-1.015 1.756.253 3.953 2.282 3.953m36.465 11.9c1.815-1.856 2.044-2.626 2.072-2.803-.303-.346-.646-.406-1.446-.399-.273.002-1.243.215-4.376 2.138-2.054 1.26-4.36 2.839-6.045 3.991-.875.598-1.63 1.116-2.12 1.43a4.65 4.65 0 0 1-2.662.761l-.499-.007c-.589 1.157-1.9 1.872-3.147 1.418l-4.708-1.712-2.11.31a.8.8 0 1 1-.232-1.586l2.309-.34a.8.8 0 0 1 .39.04l4.897 1.782c.544.197 1.137-.35 1.278-.915l.043-.169a1.18 1.18 0 0 0-.666-1.379l-7.074-3.215a2.21 2.21 0 0 0-2.028.068l-8.411 4.529 3.858 8.175c3.971-1.838 5.386-1.636 7.447-1.13 1.352.333 3.033.746 6.68.227 1.897-.27 6.438-2.924 11.046-6.453 2.181-1.671 4.136-3.363 5.504-4.76M17.72 53.162a.78.78 0 0 1-.41.45l-2.444 1.137a.797.797 0 0 1-1.052-.388l-5.1-10.807a.79.79 0 0 1 .386-1.046l2.443-1.137a.8.8 0 0 1 1.053.388l5.1 10.808a.77.77 0 0 1 .025.595m34.937-18.286c-.791-.996-1.758-1.07-2.765-1.064-1.817.015-6.387 3.04-11.312 6.409-.864.59-1.61 1.102-2.082 1.405-.662.425-1.18.513-1.94.504a2.8 2.8 0 0 0-1.636-2.413l-7.075-3.215a3.81 3.81 0 0 0-3.451.116l-8.336 4.49-.015-.033a2.403 2.403 0 0 0-3.177-1.157l-2.444 1.136a2.397 2.397 0 0 0-1.159 3.183l5.1 10.808a2.404 2.404 0 0 0 3.177 1.158l2.444-1.136a2.39 2.39 0 0 0 1.277-2.873c3.672-1.705 4.726-1.447 6.405-1.034 1.485.366 3.332.82 7.288.257 2.49-.356 7.324-3.425 11.015-6.18 3.696-2.757 7.95-6.47 8.807-8.62.348-.874.128-1.429-.121-1.741" clip-rule="evenodd"/></svg>