<svg xmlns="http://www.w3.org/2000/svg" width="60" height="60" fill="none"><path fill="#282928" d="M50.724 28.423V3.851a2.58 2.58 0 0 0-2.58-2.58h-36.29a2.58 2.58 0 0 0-2.58 2.58v24.571a2.58 2.58 0 0 0 2.58 2.58h12.444v4.087h-2.55a.563.563 0 1 0 0 1.126h3.11l.003.001H30l8.25.002a.563.563 0 1 0 0-1.127H35.7v-4.089h12.445a2.58 2.58 0 0 0 2.58-2.579m-40.323 0V24.61c.414.283.914.449 1.452.449h36.29c.538 0 1.04-.166 1.453-.45v3.813c0 .802-.651 1.453-1.453 1.453h-36.29a1.452 1.452 0 0 1-1.452-1.452m1.453-26.025h36.29c.801 0 1.453.652 1.453 1.453v18.624l-.001.004c0 .801-.651 1.453-1.453 1.453h-36.29a1.454 1.454 0 0 1-1.452-1.445V3.851c0-.801.652-1.453 1.453-1.453m22.72 32.692h-9.149v-4.088h9.148z"/><path fill="#282928" d="M24.189 19.547a.56.56 0 0 0 .796 0l1.705-1.705a.563.563 0 0 0 0-.796l-1.705-1.705a.563.563 0 1 0-.796.796l1.306 1.307-1.306 1.306a.563.563 0 0 0 0 .797M16.577 19.547a.56.56 0 0 0 .796 0 .563.563 0 0 0 0-.797l-1.306-1.306 1.306-1.307a.563.563 0 1 0-.796-.796l-1.705 1.705a.563.563 0 0 0 0 .796zM19.264 21.087a.564.564 0 0 0 .742-.292l2.583-5.922a.563.563 0 1 0-1.033-.45l-2.583 5.922a.564.564 0 0 0 .29.742M20.782 7.114a.563.563 0 0 0 .563-.564v-.823a.563.563 0 1 0-1.126 0v.823c0 .312.252.564.563.564M20.782 12.279a.563.563 0 0 0 .563-.563V9.28a.563.563 0 1 0-1.126 0v2.435c0 .312.252.564.563.564M19.005 55.82a6.215 6.215 0 0 0-6.209-6.209h-2.341a6.216 6.216 0 0 0-6.209 6.209 2.91 2.91 0 0 0 2.908 2.908h8.942a2.91 2.91 0 0 0 2.909-2.908m-13.632 0a5.087 5.087 0 0 1 5.082-5.082h2.341a5.087 5.087 0 0 1 5.082 5.082c0 .982-.8 1.781-1.782 1.781H7.154c-.982 0-1.781-.8-1.781-1.781M15.978 43.294c0-2.401-1.951-4.354-4.35-4.354a4.36 4.36 0 0 0-4.355 4.354c0 2.4 1.954 4.353 4.354 4.353s4.351-1.953 4.351-4.353m-7.578 0a3.23 3.23 0 0 1 3.227-3.228 3.23 3.23 0 0 1 3.225 3.228 3.23 3.23 0 0 1-3.225 3.226A3.23 3.23 0 0 1 8.4 43.294M37.38 55.82a6.215 6.215 0 0 0-6.209-6.209H28.83a6.215 6.215 0 0 0-6.208 6.209 2.91 2.91 0 0 0 2.908 2.908h8.942a2.91 2.91 0 0 0 2.908-2.908m-13.632 0a5.087 5.087 0 0 1 5.081-5.082h2.342a5.087 5.087 0 0 1 5.082 5.082c0 .982-.8 1.781-1.782 1.781H25.53c-.982 0-1.781-.8-1.781-1.781M34.353 43.294c0-2.401-1.952-4.354-4.35-4.354a4.36 4.36 0 0 0-4.355 4.354c0 2.4 1.954 4.353 4.354 4.353s4.351-1.953 4.351-4.353m-7.578 0a3.23 3.23 0 0 1 3.227-3.228 3.23 3.23 0 0 1 3.225 3.228 3.23 3.23 0 0 1-3.225 3.226 3.23 3.23 0 0 1-3.227-3.226M43.904 58.728h8.942a2.91 2.91 0 0 0 2.909-2.908 6.216 6.216 0 0 0-6.209-6.209h-2.342a6.215 6.215 0 0 0-6.208 6.209 2.91 2.91 0 0 0 2.908 2.908m3.3-7.99h2.342a5.087 5.087 0 0 1 5.082 5.082c0 .982-.8 1.781-1.782 1.781h-8.942c-.982 0-1.781-.8-1.781-1.781a5.09 5.09 0 0 1 5.081-5.082M44.023 43.294c0 2.4 1.954 4.353 4.354 4.353s4.351-1.953 4.351-4.353c0-2.401-1.952-4.354-4.35-4.354a4.36 4.36 0 0 0-4.355 4.354m7.579 0a3.23 3.23 0 0 1-3.225 3.226 3.23 3.23 0 0 1-3.227-3.226 3.23 3.23 0 0 1 3.227-3.228 3.23 3.23 0 0 1 3.225 3.228M41.423 6.95h3.31a.563.563 0 1 0 0-1.126h-3.31a.563.563 0 1 0 0 1.127M31.583 6.95h.004l7.742-.054a.564.564 0 0 0-.004-1.126h-.004l-7.742.054a.564.564 0 0 0 .004 1.127M31.583 10.498h3.31a.563.563 0 1 0 0-1.127h-3.31a.563.563 0 1 0 0 1.127M44.735 9.371l-7.742-.055h-.004a.563.563 0 0 0-.004 1.127l7.742.055h.004a.563.563 0 0 0 .004-1.127M44.733 12.916h-3.31a.563.563 0 1 0 0 1.127h3.31a.563.563 0 1 0 0-1.127M31.583 14.043h.004l7.742-.055a.564.564 0 0 0-.004-1.127h-.004l-7.742.055a.564.564 0 0 0 .004 1.127M44.733 16.463h-3.31a.563.563 0 1 0 0 1.127h3.31a.563.563 0 1 0 0-1.127M31.583 17.588h.004l7.742-.055a.563.563 0 0 0 .56-.567.57.57 0 0 0-.568-.56l-7.742.055a.563.563 0 0 0 .004 1.127M44.733 20.008h-3.31a.563.563 0 1 0 0 1.127h3.31a.563.563 0 1 0 0-1.127M31.583 21.135h.004l7.742-.055a.563.563 0 0 0-.004-1.127h-.004l-7.742.055a.563.563 0 0 0 .004 1.127"/></svg>