<svg xmlns="http://www.w3.org/2000/svg" width="60" height="60" fill="none"><g clip-path="url(#a)"><path fill="#282928" fill-rule="evenodd" d="M38.422 25.896a.795.795 0 0 1-.803-.803V15.045a.798.798 0 0 1 1.26-.651l7.114 5.024a.803.803 0 0 1 0 1.301l-7.114 5.038a.8.8 0 0 1-.457.139m17.772 8.775H43.419v4.083h7.377c.443 0 .803.36.803.803v1.951a2.76 2.76 0 0 1-2.755 2.755H28.581a2.753 2.753 0 0 1-2.754-2.755v-1.951a.8.8 0 0 1 .789-.803h7.39V34.67h-9.77v17.384a2.47 2.47 0 0 1-2.464 2.464H2.464A2.47 2.47 0 0 1 0 52.055V17.37a2.47 2.47 0 0 1 2.464-2.464h14.962v-5.62a3.804 3.804 0 0 1 3.806-3.806h34.962A3.813 3.813 0 0 1 60 9.287v21.578a3.82 3.82 0 0 1-3.806 3.806m-31.959-1.606h31.959c1.218 0 2.2-.996 2.2-2.2V9.287a2.21 2.21 0 0 0-2.2-2.215H21.232a2.22 2.22 0 0 0-2.215 2.215v5.62c.596 0 2.672-.098 3.364.082a2.46 2.46 0 0 1 1.854 2.38zM2.464 16.512a.86.86 0 0 0-.858.858v3.225H22.63V17.37a.86.86 0 0 0-.858-.858zm-.858 5.674v25.052H22.63V22.186zm0 26.658v3.21c0 .485.387.873.858.873h19.308c.47 0 .858-.388.858-.872v-3.211zm7.529-29.495H6.81c-1.052 0-1.052-1.592 0-1.592h2.325c1.052 0 1.052 1.592 0 1.592m6.131 0h-3.75c-1.052 0-1.052-1.592 0-1.592h3.75c1.052 0 1.052 1.592 0 1.592m-.9 32.332H9.87c-1.052 0-1.052-1.591 0-1.591h4.498c1.052 0 1.052 1.591 0 1.591m-2.241-9.384c-4.194 0-7.6-3.39-7.6-7.585 0-4.18 3.406-7.585 7.6-7.585 4.18 0 7.584 3.405 7.584 7.585a7.587 7.587 0 0 1-7.584 7.585m0-13.578c-3.308 0-5.994 2.7-5.994 5.993a5.996 5.996 0 0 0 5.994 5.993c3.294 0 5.979-2.685 5.979-5.993 0-3.294-2.685-5.993-5.98-5.993m-1.91 10.104a.79.79 0 0 1-.803-.789v-6.63a.798.798 0 0 1 1.26-.65l4.691 3.308a.79.79 0 0 1 0 1.3l-4.692 3.323a.77.77 0 0 1-.457.138m.802-5.882v3.543l2.506-1.772zm16.402 7.418c0 .803-.208 2.312 1.162 2.312h20.263c1.357 0 1.15-1.509 1.15-2.312zm8.18-1.605h6.214V34.67H35.6zm17.73-9.453H29.3a.803.803 0 0 1-.803-.803V11.64c0-.443.36-.803.803-.803h24.028c.443 0 .803.36.803.803v16.858c0 .443-.36.802-.803.802M30.09 27.694h22.45V12.442H30.09zm9.121-11.114v6.976l4.941-3.488z" clip-rule="evenodd"/></g><defs><clipPath id="a"><path fill="#fff" d="M0 0h60v60H0z"/></clipPath></defs></svg>