<svg xmlns="http://www.w3.org/2000/svg" width="60" height="60" fill="none"><path fill="#282928" fill-rule="evenodd" d="M36.46 41.962a.823.823 0 0 1-.822.823H24.693a.823.823 0 0 1 0-1.645h10.945c.454 0 .822.368.822.822m20.142 1.24a.823.823 0 0 0-.555-1.55l-2.962 1.061A26.2 26.2 0 0 0 56.35 30C56.35 15.438 44.56 3.65 30 3.65a26.2 26.2 0 0 0-14.736 4.502.823.823 0 0 0 .921 1.364A24.6 24.6 0 0 1 30 5.296c13.622 0 24.705 11.081 24.705 24.704 0 4.392-1.148 8.647-3.335 12.405l-1.277-3.566a.822.822 0 0 0-1.549.555l1.845 5.15a.82.82 0 0 0 1.064.502zm-11.645 7.503a.82.82 0 0 0-1.142-.22A24.6 24.6 0 0 1 30 54.704C16.377 54.704 5.294 43.621 5.294 30c0-4.393 1.148-8.648 3.335-12.405l1.278 3.565a.822.822 0 1 0 1.549-.555l-1.847-5.15a.82.82 0 0 0-1.063-.502L3.397 16.8a.821.821 0 1 0 .555 1.549l2.96-1.06A26.2 26.2 0 0 0 3.649 30C3.648 44.56 15.44 56.35 30 56.35a26.2 26.2 0 0 0 14.735-4.503.82.82 0 0 0 .222-1.142M37.34 29.848c0 4.198-3.417 7.615-7.616 7.616-4.2 0-7.616-3.417-7.616-7.616 0-4.2 3.416-7.617 7.615-7.617a7.6 7.6 0 0 1 5.806 2.694l-5.657 6.147-3.118-3.28a.824.824 0 0 0-1.163-.03.824.824 0 0 0-.03 1.163l3.724 3.918c.327.345.88.34 1.201-.01l5.988-6.505a7.56 7.56 0 0 1 .866 3.52m2.753-9.88a.82.82 0 0 1 1.161-.05.82.82 0 0 1 .048 1.162l-3.657 3.974c.85 1.4 1.34 3.04 1.34 4.794 0 5.106-4.155 9.26-9.261 9.26-5.107 0-9.262-4.154-9.262-9.26 0-5.107 4.155-9.262 9.261-9.262a9.24 9.24 0 0 1 6.926 3.121zm2.838 16.865c1.836-5.818 1.715-12.754 1.545-18.965-5.084-.842-10.274-2.611-14.478-5.08-4.206 2.47-9.394 4.238-14.48 5.08-.168 6.211-.287 13.148 1.549 18.967C19.09 43.244 23.323 47.45 30 49.688c6.677-2.238 10.908-6.445 12.932-12.855m2.47-20.486c-5.247-.78-10.697-2.618-14.975-5.22a.82.82 0 0 0-.856 0c-4.25 2.592-9.75 4.446-14.976 5.22a.82.82 0 0 0-.7.792c-.18 6.512-.384 13.894 1.604 20.19 2.22 7.035 6.88 11.616 14.247 14.007q.253.083.508 0C37.62 48.945 42.28 44.363 44.5 37.33c1.987-6.297 1.783-13.678 1.603-20.19a.82.82 0 0 0-.701-.792" clip-rule="evenodd"/></svg>