<svg xmlns="http://www.w3.org/2000/svg" width="60" height="60" fill="none"><path fill="#282928" d="M33.653 54.084H.47A.47.47 0 0 1 0 53.615v-41.48c0-.26.21-.469.469-.469h8.775a.469.469 0 0 1 0 .938H.938v40.543h32.247V12.604h-8.307a.469.469 0 1 1 0-.938h8.775c.26 0 .47.21.47.469v41.48c0 .26-.21.469-.47.469"/><path fill="#282928" d="M24.876 15.59H9.242a.47.47 0 0 1-.469-.469V9.148c0-.259.21-.469.47-.469h4.616a3.24 3.24 0 0 1 3.2-2.765 3.24 3.24 0 0 1 3.2 2.765h4.617c.259 0 .469.21.469.47v5.973c0 .258-.21.468-.469.468m-15.165-.937h14.696V9.617h-4.582a.47.47 0 0 1-.47-.469 2.3 2.3 0 0 0-2.296-2.296 2.3 2.3 0 0 0-2.297 2.296c0 .26-.21.469-.468.469H9.71zM29.781 50.95H4.34a.469.469 0 0 1 0-.938H29.78a.469.469 0 0 1 0 .937M9.097 47.411H6a.47.47 0 0 1-.469-.469V39.79c0-.259.21-.469.469-.469h3.097c.26 0 .469.21.469.47v7.152c0 .26-.21.47-.469.47m-2.628-.937h2.16v-6.216h-2.16zM15.437 47.41H12.34a.47.47 0 0 1-.469-.469v-9.734c0-.259.21-.469.469-.469h3.097c.259 0 .469.21.469.469v9.734c0 .26-.21.469-.469.469m-2.628-.937h2.16v-8.797h-2.16zM21.78 47.412h-3.096a.47.47 0 0 1-.47-.47V38.02c0-.26.21-.47.47-.47h3.097c.259 0 .469.21.469.47v8.923c0 .259-.21.468-.47.468m-2.628-.938h2.16v-7.986h-2.16zM28.12 47.41h-3.097a.47.47 0 0 1-.468-.468V32.377c0-.259.21-.469.468-.469h3.098c.259 0 .469.21.469.469v14.565c0 .258-.21.468-.47.468m-2.628-.937h2.16V32.846h-2.16zM9.097 23.168H6a.47.47 0 0 1-.469-.47v-3.096c0-.26.21-.47.469-.47h3.097c.26 0 .469.21.469.47v3.097c0 .259-.21.468-.469.468M6.47 22.23h2.16v-2.16h-2.16zM9.097 28.92H6a.47.47 0 0 1-.469-.47v-3.096c0-.26.21-.47.469-.47h3.097c.26 0 .469.21.469.47v3.097c0 .258-.21.468-.469.468m-2.628-.938h2.16v-2.16h-2.16zM9.097 34.671H6a.47.47 0 0 1-.469-.468v-3.098c0-.258.21-.468.469-.468h3.097c.26 0 .469.21.469.468v3.098c0 .258-.21.468-.469.468m-2.628-.937h2.16v-2.16h-2.16zM26.575 21.62H11.789a.469.469 0 1 1 0-.938h14.786a.469.469 0 0 1 0 .937M26.575 27.371H11.789a.469.469 0 0 1 0-.937h14.786a.469.469 0 0 1 0 .937M20.233 33.123h-8.444a.469.469 0 1 1 0-.937h8.444a.469.469 0 0 1 0 .937M48.255 29.408c-6.478 0-11.747-5.27-11.747-11.747s5.27-11.747 11.747-11.747c.258 0 .468.21.468.469v2.16a.469.469 0 0 1-.937 0V6.862c-5.744.246-10.34 4.996-10.34 10.799 0 5.96 4.848 10.809 10.809 10.809 5.803 0 10.552-4.597 10.799-10.34h-1.681a.469.469 0 0 1 0-.938h2.16c.258 0 .468.21.468.469 0 6.477-5.27 11.747-11.746 11.747"/><path fill="#282928" d="M57.372 18.13h-9.118a.47.47 0 0 1-.469-.469V8.543c0-.259.21-.469.469-.469 5.286 0 9.587 4.3 9.587 9.587 0 .259-.21.469-.469.469m-8.65-.938h8.169c-.236-4.397-3.771-7.932-8.168-8.168zM48.255 54.085c-6.478 0-11.747-5.27-11.747-11.746 0-6.478 5.27-11.747 11.746-11.747 6.478 0 11.747 5.27 11.747 11.747s-5.27 11.746-11.746 11.746m0-22.556c-5.96 0-10.81 4.85-10.81 10.81s4.85 10.808 10.81 10.808 10.809-4.849 10.809-10.808c0-5.96-4.85-10.81-10.81-10.81"/><path fill="#282928" d="M48.253 52.164c-5.419 0-9.827-4.409-9.827-9.827s4.408-9.827 9.827-9.827 9.827 4.408 9.827 9.827-4.409 9.827-9.827 9.827m0-18.717c-4.902 0-8.89 3.988-8.89 8.89s3.988 8.89 8.89 8.89c4.901 0 8.89-3.988 8.89-8.89s-3.989-8.89-8.89-8.89"/><path fill="#282928" d="M48.254 42.806c-2.175 0-3.945-1.425-3.945-3.177 0-1.751 1.77-3.176 3.945-3.176S52.2 37.878 52.2 39.63a.469.469 0 0 1-.938 0c0-1.234-1.35-2.238-3.008-2.238s-3.008 1.004-3.008 2.238c0 1.235 1.35 2.24 3.008 2.24a.469.469 0 1 1 0 .937"/><path fill="#282928" d="M48.254 48.222c-2.175 0-3.945-1.425-3.945-3.177a.469.469 0 1 1 .937 0c0 1.235 1.35 2.24 3.008 2.24 1.659 0 3.008-1.005 3.008-2.24 0-1.234-1.35-2.238-3.008-2.238a.469.469 0 0 1 0-.938c2.175 0 3.946 1.425 3.946 3.176s-1.77 3.177-3.946 3.177M49.055 37.464a.47.47 0 0 1-.47-.468v-2.18a.469.469 0 0 1 .938 0v2.18c0 .258-.21.468-.468.468M47.453 37.464a.47.47 0 0 1-.469-.468v-2.18a.469.469 0 0 1 .938 0v2.18c0 .258-.21.468-.469.468"/><path fill="#282928" d="M49.055 50.327a.47.47 0 0 1-.47-.469V47.68a.469.469 0 0 1 .938 0v2.178c0 .26-.21.47-.468.47M47.453 50.327a.47.47 0 0 1-.469-.469V47.68a.469.469 0 1 1 .938 0v2.178c0 .26-.21.47-.469.47"/></svg>