<svg xmlns="http://www.w3.org/2000/svg" width="60" height="60" fill="none"><g fill="#282928" clip-path="url(#a)"><path d="M10.77 8.855a.88.88 0 0 0 0 1.243l3.409 3.41a.88.88 0 0 0 .62.257h3.707a.879.879 0 0 0 0-1.758h-3.342l-3.152-3.152a.88.88 0 0 0-1.243 0M13.922 20.604v.612a.879.879 0 1 0 1.758 0v-.613a.879.879 0 1 0-1.758 0M15.68 5.167v-.612a.879.879 0 1 0-1.758 0v.612a.879.879 0 1 0 1.758 0M7.081 13.764a.879.879 0 1 0 0-1.758H6.47a.879.879 0 1 0 0 1.758zM20.258 8.306c.225 0 .45-.086.621-.257l.433-.433a.879.879 0 0 0-1.242-1.243l-.434.433a.879.879 0 0 0 .622 1.5M8.285 19.398a.876.876 0 0 0 1.243 0l.433-.433a.879.879 0 1 0-1.243-1.243l-.433.433a.88.88 0 0 0 0 1.243M8.722 8.049a.876.876 0 0 0 1.243 0 .88.88 0 0 0 0-1.243l-.433-.433a.879.879 0 1 0-1.243 1.243z"/><path d="M55.25 11.039h-8.69a.879.879 0 1 0 0 1.758h8.69c.506 0 .916.41.916.916v21.613c0 .505-.41.916-.915.916h-3.847a.88.88 0 0 0-.879.88v3.546L46.357 36.5a.88.88 0 0 0-.622-.258H31.844v-5.566a3.343 3.343 0 0 0-3.34-3.34h-6.332V13.714c0-.505.411-.916.916-.916h19.37a.879.879 0 1 0 0-1.758H27.552C26.654 4.806 21.277 0 14.8 0A12.886 12.886 0 0 0 2.09 10.754a.879.879 0 1 0 1.734.289A11.135 11.135 0 0 1 14.8 1.758c5.507 0 10.089 4.021 10.971 9.28H23.09a2.677 2.677 0 0 0-2.674 2.675v3.766a.878.878 0 0 0-.78 1.486l.434.433c.1.1.22.17.346.212v2.877a11.06 11.06 0 0 1-5.616 1.527 11.11 11.11 0 0 1-10.955-9.168.879.879 0 0 0-1.73.308A12.86 12.86 0 0 0 14.8 25.77c2.012 0 3.916-.465 5.615-1.291v2.856H8.73a3.343 3.343 0 0 0-3.34 3.34v13.739a.879.879 0 1 0 1.759 0v-13.74c0-.871.709-1.58 1.58-1.58h19.776c.872 0 1.581.709 1.581 1.58v19.776c0 .871-.71 1.58-1.581 1.58h-6.963a.88.88 0 0 0-.621.258l-5.869 5.869v-5.247a.88.88 0 0 0-.879-.88H8.73c-.872 0-1.582-.709-1.582-1.58v-1.935a.879.879 0 1 0-1.757 0v1.935A3.343 3.343 0 0 0 8.73 53.79h4.564v4.51a1.694 1.694 0 0 0 1.701 1.7c.441 0 .874-.173 1.2-.498l5.712-5.712h6.598a3.343 3.343 0 0 0 3.339-3.34V38H45.37l4.492 4.492a1.41 1.41 0 0 0 1.545.307c.531-.22.875-.734.875-1.31V38h2.968c1.474 0 2.673-1.2 2.673-2.674V13.713c0-1.474-1.2-2.674-2.673-2.674"/><path d="M51.003 18.416H27.332a.879.879 0 1 0 0 1.758h23.671a.879.879 0 1 0 0-1.758M40.944 24.52a.88.88 0 0 0-.879-.88H27.333a.879.879 0 1 0 0 1.758h12.734a.88.88 0 0 0 .878-.878M51.006 23.64h-6.693a.879.879 0 1 0 0 1.758h6.693a.879.879 0 1 0 0-1.757M34.516 30.623h16.488a.879.879 0 1 0 0-1.758H34.516a.879.879 0 1 0 0 1.758M20.497 41.907a4.844 4.844 0 0 0-1.572-9.302 4.8 4.8 0 0 0-3.624 1.305 4.86 4.86 0 0 0-1.528 3.53.879.879 0 0 0 1.758 0c0-.86.346-1.66.974-2.25a3.07 3.07 0 0 1 2.312-.83c1.521.095 2.788 1.36 2.882 2.882a3.1 3.1 0 0 1-1.884 3.045 3.4 3.4 0 0 0-2.076 3.145c0 .485.394.875.88.875a.88.88 0 0 0 .878-.882 1.64 1.64 0 0 1 1-1.518M18.617 46.098a.88.88 0 0 0-.879.879v.675a.879.879 0 1 0 1.758 0v-.675a.88.88 0 0 0-.879-.88"/></g><defs><clipPath id="a"><path fill="#fff" d="M0 0h60v60H0z"/></clipPath></defs></svg>