<svg xmlns="http://www.w3.org/2000/svg" width="60" height="60" fill="none"><path fill="#282928" d="M27.997 45.006h4.006a.88.88 0 1 0 0-1.76h-4.006a.88.88 0 1 0 0 1.76M36.664 27.013l1.772-2.332a.88.88 0 0 0-1.401-1.064l-.106.139c-.405-3.575-3.446-6.363-7.128-6.363a7.14 7.14 0 0 0-5.012 2.04.88.88 0 0 0 1.23 1.26 5.39 5.39 0 0 1 3.782-1.54 5.42 5.42 0 0 1 5.386 4.852l-.295-.389a.88.88 0 0 0-1.402 1.065l1.773 2.332a.88.88 0 0 0 1.4 0M25.808 26.172a.88.88 0 0 0 .7-1.412l-1.773-2.332a.88.88 0 0 0-1.4 0l-1.773 2.331a.88.88 0 0 0 1.401 1.065l.106-.139c.405 3.575 3.446 6.363 7.128 6.363a7.14 7.14 0 0 0 5.012-2.041.88.88 0 1 0-1.23-1.26 5.39 5.39 0 0 1-3.782 1.542 5.423 5.423 0 0 1-5.386-4.853l.295.388a.88.88 0 0 0 .702.348"/><path fill="#282928" d="M30.002 13.047c-6.437 0-11.674 5.237-11.674 11.674s5.237 11.673 11.674 11.673c3.844 0 7.441-1.893 9.623-5.063a.88.88 0 0 0-1.45-.998 9.92 9.92 0 0 1-8.173 4.301c-5.467 0-9.914-4.447-9.914-9.913s4.447-9.914 9.914-9.914 9.914 4.447 9.914 9.914a10 10 0 0 1-.23 2.128.88.88 0 1 0 1.72.377c.179-.818.27-1.661.27-2.505 0-6.437-5.238-11.674-11.674-11.674"/><path fill="#282928" d="M56.149 6.29H51.55V4.23c0-1.179-.96-2.138-2.139-2.138H27.967a.88.88 0 1 0 0 1.76H49.41c.21 0 .38.17.38.379v3.981H10.209V4.231c0-.21.17-.38.38-.38h13.267a.88.88 0 1 0 0-1.76H10.59c-1.18 0-2.14.96-2.14 2.14v2.06H3.851A3.855 3.855 0 0 0 0 10.14V44.93a3.855 3.855 0 0 0 3.851 3.852h19.566c-.065 2.008-.266 5.482-.717 7.365h-3.05a.88.88 0 1 0 0 1.76h20.7a.88.88 0 1 0 0-1.76H37.3c-.451-1.882-.651-5.357-.717-7.365h19.566a3.855 3.855 0 0 0 3.85-3.851V10.14a3.855 3.855 0 0 0-3.85-3.85m-4.599 5.796h2.603a.42.42 0 0 1 .419.419v26.964H51.55zM10.21 9.972h39.58v29.497H10.21zm-8.45.17c0-1.153.938-2.091 2.091-2.091H8.45v2.275H5.848c-1.202 0-2.18.977-2.18 2.179V39.47H1.76zm6.69 1.944v27.383H5.428V12.505a.42.42 0 0 1 .42-.42zM24.5 56.147c.466-2.279.626-5.755.677-7.365h9.646c.05 1.61.21 5.086.676 7.365zm33.74-11.216a2.093 2.093 0 0 1-2.091 2.09H3.851a2.093 2.093 0 0 1-2.091-2.09V41.23h56.48zm0-5.461h-1.909V12.505a2.18 2.18 0 0 0-2.179-2.179H51.55V8.051h4.599c1.153 0 2.091.938 2.091 2.09z"/></svg>