<svg xmlns="http://www.w3.org/2000/svg" width="60" height="60" fill="none"><path fill="#282928" d="M16.875 50.625H6.563a2.81 2.81 0 0 1-2.813-2.812V11.25a2.813 2.813 0 0 1 2.813-2.812h3.75a.937.937 0 0 1 0 1.874h-3.75a.94.94 0 0 0-.938.938v36.563a.937.937 0 0 0 .938.937h10.312a.938.938 0 0 1 0 1.875M38.438 19.688a.94.94 0 0 1-.938-.938v-7.5a.94.94 0 0 0-.937-.937h-3.75a.938.938 0 0 1 0-1.876h3.75a2.81 2.81 0 0 1 2.812 2.813v7.5a.94.94 0 0 1-.937.938M28.125 13.125H15a2.81 2.81 0 0 1-2.812-2.812V8.437A2.81 2.81 0 0 1 15 5.626h13.125a2.81 2.81 0 0 1 2.813 2.813v1.874a2.81 2.81 0 0 1-2.813 2.813M15 7.5a.937.937 0 0 0-.937.938v1.874a.94.94 0 0 0 .937.938h13.125a.94.94 0 0 0 .938-.937V8.437a.94.94 0 0 0-.938-.937z"/><path fill="#282928" d="M25.313 7.5h-7.5a.937.937 0 0 1-.938-.937V4.688a2.81 2.81 0 0 1 2.813-2.813h3.75a2.81 2.81 0 0 1 2.812 2.813v1.875a.94.94 0 0 1-.937.937M18.75 5.625h5.625v-.937a.94.94 0 0 0-.937-.938h-3.75a.937.937 0 0 0-.938.938zM32.814 47.813a10.313 10.313 0 1 1 5.156-19.24.938.938 0 0 1-.937 1.621 8.45 8.45 0 1 0 3.087 3.094.937.937 0 0 1 1.623-.938 10.314 10.314 0 0 1-8.93 15.462"/><path fill="#282928" d="M32.813 55.313a17.813 17.813 0 1 1 9.898-32.617.94.94 0 0 1 0 1.562.94.94 0 0 1-1.045-.005 15.956 15.956 0 1 0 4.393 4.394.938.938 0 1 1 1.558-1.044 17.806 17.806 0 0 1-14.804 27.71"/><path fill="#282928" d="M32.813 31.875a.94.94 0 0 1-.938-.937V17.813a.938.938 0 0 1 1.875 0v13.125a.94.94 0 0 1-.937.937M26.25 38.438H13.125a.938.938 0 0 1 0-1.876H26.25a.938.938 0 0 1 0 1.876M32.813 58.125a.94.94 0 0 1-.938-.937V44.062a.938.938 0 0 1 1.875 0v13.126a.94.94 0 0 1-.937.937M52.5 38.438H39.375a.938.938 0 0 1 0-1.876H52.5a.938.938 0 0 1 0 1.876M32.812 38.437a.936.936 0 0 1-.662-1.6l10.975-10.975v-5.237c0-.249.099-.487.275-.663l5.625-5.625a.937.937 0 0 1 1.6.663v4.687h4.687a.936.936 0 0 1 .663 1.6l-5.625 5.626a.94.94 0 0 1-.663.274H44.45L33.475 38.163a.94.94 0 0 1-.663.274m13.513-13.125H49.3l3.75-3.75h-2.974zM45 21.012v2.975l3.75-3.75v-2.974zM11.25 18.75H9.375a.938.938 0 0 1 0-1.875h1.875a.938.938 0 0 1 0 1.875M29.063 18.75H15a.938.938 0 0 1 0-1.875h14.063a.938.938 0 0 1 0 1.875M11.25 27.188H9.375a.938.938 0 0 1 0-1.875h1.875a.938.938 0 0 1 0 1.875M16.875 27.188H15a.938.938 0 0 1 0-1.875h1.875a.938.938 0 0 1 0 1.875"/></svg>