<svg xmlns="http://www.w3.org/2000/svg" width="60" height="60" fill="none"><path fill="#282928" fill-rule="evenodd" d="M33.592 28.258a.755.755 0 0 1-.057 1.07l-5.156 4.653a.754.754 0 0 1-1.041-.027l-2.94-2.935a.763.763 0 0 1 0-1.073.76.76 0 0 1 1.074 0l2.428 2.426 4.619-4.17a.76.76 0 0 1 1.073.056m15.269 19.484-2.37 2.366c-.013.018-.051.018-.07 0l-6.81-6.812v-.07l2.363-2.366.07.001 6.817 6.812a.05.05 0 0 1 0 .07M29.51 52.746v-9.547a13.17 13.17 0 0 0 8.043-3.325l1.636 1.633-.652.647a1.58 1.58 0 0 0 0 2.215l.926.926zm-.76-11.04c3.002 0 5.998-1.14 8.28-3.424 4.567-4.566 4.567-11.997 0-16.563-4.576-4.576-11.983-4.579-16.56 0-4.568 4.566-4.568 11.997 0 16.563a11.67 11.67 0 0 0 8.28 3.424m-.754 11.044V43.2a13.2 13.2 0 0 1-8.6-3.846c-5.155-5.157-5.155-13.55 0-18.707a13.13 13.13 0 0 1 8.6-3.852V7.368c-4.842 3.864-10.693 6.082-16.873 6.249v20.219c0 4.053 1.693 7.552 4.766 9.85zM29.51 7.368v9.427a13.13 13.13 0 0 1 8.592 3.852c4.984 4.978 5.156 12.967.525 18.155l1.629 1.634.651-.648a1.56 1.56 0 0 1 2.21 0l1.15 1.15c1.38-2.01 2.109-4.446 2.109-7.102v-20.22c-6.182-.166-12.018-2.382-16.866-6.248M49.934 46.6l-4.574-4.574c1.66-2.305 2.536-5.121 2.536-8.19V12.869a.757.757 0 0 0-.76-.758c-6.51 0-12.86-2.465-17.875-6.938a.76.76 0 0 0-1.01 0C23.23 9.646 16.88 12.111 10.37 12.111a.76.76 0 0 0-.76.758v20.966c0 4.543 1.903 8.474 5.366 11.066l13.32 9.968c.27.202.638.202.907 0l11.346-8.49 4.804 4.802c.611.611 1.602.609 2.211 0l2.37-2.366a1.575 1.575 0 0 0 0-2.215M34.908 36.155c3.392-3.394 3.392-8.915 0-12.309-3.392-3.39-8.912-3.397-12.31 0-3.393 3.394-3.393 8.915 0 12.31 3.392 3.393 8.911 3.393 12.31 0m1.067-13.38c-3.98-3.986-10.464-3.986-14.45 0-3.987 3.984-3.987 10.467 0 14.452 3.985 3.984 10.468 3.986 14.45 0 3.986-3.985 3.986-10.468 0-14.453" clip-rule="evenodd"/></svg>