<svg xmlns="http://www.w3.org/2000/svg" width="60" height="60" fill="none"><g fill="#282928" clip-path="url(#a)"><path d="M56.999.002H3a3.1 3.1 0 0 0-3 3.182v43.634a3.1 3.1 0 0 0 3 3.182h17.381l-2 4h-3.381a3 3 0 0 0 0 6h29.998a3 3 0 0 0 0-6h-3.382l-2-4H57a3.1 3.1 0 0 0 3-3.182V3.184a3.1 3.1 0 0 0-3-3.182M3 2.002h53.998a1.117 1.117 0 0 1 1 1.182V42H2V3.184a1.117 1.117 0 0 1 1-1.182M45.999 57a1 1 0 0 1-1 1H15.001a1 1 0 1 1 0-2h29.998a1 1 0 0 1 1 1m-6.617-3H20.618l2-4h14.764zm17.617-6H3a1.117 1.117 0 0 1-1-1.182V44H58v2.818a1.117 1.117 0 0 1-1 1.182"/><path d="M29.999 23.002a6 6 0 1 0-6.007-6 6.01 6.01 0 0 0 6.007 6m0-10a4 4 0 1 1-4.007 4c.005-2.21 1.797-4 4.007-4"/><path d="M19.608 13.86A2 2 0 0 0 18 15.823v2.36a2 2 0 0 0 1.607 1.96l.959.192q.176.502.405.982l-.541.812a2.01 2.01 0 0 0 .25 2.524l1.67 1.669a2.01 2.01 0 0 0 2.523.25l.819-.546q.476.225.973.4l.194.968A2 2 0 0 0 28.819 29h2.36a2 2 0 0 0 1.961-1.607l.194-.969q.497-.174.973-.4l.82.546a2.01 2.01 0 0 0 2.523-.25l1.67-1.67c.67-.675.775-1.73.249-2.523l-.541-.812q.226-.48.4-.982l.958-.192a2 2 0 0 0 1.613-1.96v-2.36a2 2 0 0 0-1.607-1.962l-.958-.191a10 10 0 0 0-.407-.982l.542-.812a2.01 2.01 0 0 0-.25-2.524l-1.67-1.67a2.006 2.006 0 0 0-2.523-.25l-.819.547q-.476-.226-.973-.4l-.194-.968a2 2 0 0 0-1.96-1.608h-2.36a2 2 0 0 0-1.961 1.607l-.194.969q-.497.174-.973.4l-.82-.546a2.01 2.01 0 0 0-2.523.25l-1.669 1.67a2.01 2.01 0 0 0-.25 2.523l.542.812q-.23.48-.407.982zm1.927 1.654a1 1 0 0 0 .765-.706 8 8 0 0 1 .7-1.7 1 1 0 0 0-.041-1.043l-.868-1.3 1.67-1.67 1.307.873a.99.99 0 0 0 1.04.041 8 8 0 0 1 1.692-.694 1 1 0 0 0 .707-.767l.313-1.546h2.36l.31 1.546a1 1 0 0 0 .707.767 8 8 0 0 1 1.691.694.99.99 0 0 0 1.04-.041l1.308-.872 1.67 1.668-.869 1.3A1 1 0 0 0 37 13.11c.298.538.533 1.109.7 1.7a1 1 0 0 0 .765.706l1.535.306v2.36l-1.536.306a1 1 0 0 0-.765.706 8 8 0 0 1-.7 1.7 1 1 0 0 0 .041 1.044l.868 1.3-1.67 1.67-1.306-.873a1 1 0 0 0-1.04-.042 8 8 0 0 1-1.692.7 1 1 0 0 0-.707.765l-.312 1.543h-2.36l-.31-1.547a1 1 0 0 0-.707-.765 8 8 0 0 1-1.692-.7 1 1 0 0 0-1.04.042l-1.308.872-1.67-1.67.869-1.3a1 1 0 0 0 .038-1.04 8 8 0 0 1-.7-1.7 1 1 0 0 0-.765-.707L20 18.181v-2.36zM8 39h43.998a3 3 0 0 0 0-6H8a3 3 0 0 0 0 6m44.998-3a1 1 0 0 1-1 1h-13v-2h13a1 1 0 0 1 1 1M8 35h28.999v2h-29a1 1 0 0 1 0-2"/><path fill-rule="evenodd" d="m45.706 17.71.272-.273a15.84 15.84 0 0 1-4.661 10.857 1 1 0 1 0 1.414 1.416 17.84 17.84 0 0 0 5.249-12.308l.312.313a1 1 0 0 0 1.413-1.415l-2-2a1 1 0 0 0-1.413 0l-2 2a1 1 0 0 0 1.414 1.415zM12.292 19.709a1 1 0 0 0 1.414 0l2-2a1 1 0 0 0-1.414-1.414l-.272.272a15.84 15.84 0 0 1 4.661-10.856 1 1 0 0 0-1.414-1.417 17.84 17.84 0 0 0-5.249 12.313l-.312-.312a1 1 0 0 0-1.414 1.414z" clip-rule="evenodd"/></g><defs><clipPath id="a"><path fill="#fff" d="M0 0h60v60H0z"/></clipPath></defs></svg>