<svg xmlns="http://www.w3.org/2000/svg" width="60" height="60" fill="none"><path fill="#282928" d="M57.328 42.094a3.757 3.757 0 0 0-5.119-1.378l-9.14 5.278a3.73 3.73 0 0 0-2.119-1.528l-13.988-3.741a6.5 6.5 0 0 0-3.29-.028l-4.922 1.228v-1.612a.94.94 0 0 0-.937-.938h-7.5a.94.94 0 0 0-.938.938v.937H2.813a.94.94 0 0 0-.938.938v13.124a.937.937 0 0 0 .938.938h6.562v.938a.937.937 0 0 0 .938.937h7.5a.94.94 0 0 0 .937-.937v-1.294l1.21.6a6.6 6.6 0 0 0 2.934.694h14.034a6.5 6.5 0 0 0 3.281-.882l15.75-9.093a3.76 3.76 0 0 0 1.37-5.12M9.375 54.375H3.75v-11.25h5.625zm7.5 1.875H11.25v-15h5.625zm38.147-10.66-15.75 9.094a4.67 4.67 0 0 1-2.344.629H22.894a4.64 4.64 0 0 1-2.1-.497l-2.044-1.022v-9.938l5.372-1.34a4.65 4.65 0 0 1 2.353.018l13.987 3.75a1.867 1.867 0 0 1 .45 3.432 1.83 1.83 0 0 1-1.415.187l-11.184-3a.942.942 0 0 0-.488 1.819l11.184 2.99a3.67 3.67 0 0 0 2.84-.375 3.73 3.73 0 0 0 1.754-2.278c.104-.413.139-.84.103-1.265l9.44-5.447a1.9 1.9 0 0 1 2.55.684 1.875 1.875 0 0 1-.674 2.56"/><path fill="#282928" d="M14.063 55.313a.94.94 0 0 0 .937-.938v-.937a.938.938 0 0 0-1.875 0v.937a.94.94 0 0 0 .938.938M43.125 15.938h-3.516l-.168-.394 2.493-2.485a.945.945 0 0 0 0-1.33L37.96 7.752a.945.945 0 0 0-1.33 0l-2.485 2.494-.394-.169V6.563a.94.94 0 0 0-.937-.938h-5.626a.937.937 0 0 0-.937.938v3.515l-.394.169-2.484-2.494a.945.945 0 0 0-1.331 0l-3.975 3.975a.945.945 0 0 0 0 1.331l2.493 2.485-.168.393h-3.516a.94.94 0 0 0-.937.938V22.5a.94.94 0 0 0 .937.938h3.516l.168.393-2.493 2.485a.97.97 0 0 0-.272.665c.003.248.1.486.272.666l3.975 3.975c.178.173.417.27.665.272a1 1 0 0 0 .666-.272l2.484-2.494.394.169v3.515a.94.94 0 0 0 .938.938h5.625a.94.94 0 0 0 .937-.937v-3.516l.394-.169 2.484 2.494a.98.98 0 0 0 1.331 0l3.975-3.975a1 1 0 0 0 .272-.666.97.97 0 0 0-.272-.665l-2.493-2.485.168-.393h3.516a.94.94 0 0 0 .938-.938v-5.625a.94.94 0 0 0-.938-.937m-.937 5.624h-3.244a.94.94 0 0 0-.89.647 7.4 7.4 0 0 1-.573 1.36.95.95 0 0 0 .16 1.115l2.306 2.297-2.653 2.653-2.297-2.306a.95.95 0 0 0-1.116-.16 7.4 7.4 0 0 1-1.36.573.94.94 0 0 0-.646.89v3.244h-3.75v-3.244a.94.94 0 0 0-.647-.89 7.4 7.4 0 0 1-1.36-.572.95.95 0 0 0-1.115.16l-2.297 2.305-2.653-2.653 2.306-2.297a.95.95 0 0 0 .16-1.115 7.4 7.4 0 0 1-.572-1.36.94.94 0 0 0-.89-.646h-3.244v-3.75h3.243a.94.94 0 0 0 .89-.647q.219-.709.573-1.36a.95.95 0 0 0-.16-1.115l-2.306-2.297 2.653-2.653 2.297 2.306a.95.95 0 0 0 1.116.16 7.4 7.4 0 0 1 1.36-.573.94.94 0 0 0 .646-.89V7.5h3.75v3.244a.94.94 0 0 0 .647.89c.47.145.926.337 1.36.572a.95.95 0 0 0 1.115-.16l2.297-2.305 2.653 2.653-2.306 2.297a.95.95 0 0 0-.16 1.115q.354.651.572 1.36a.94.94 0 0 0 .89.646h3.245z"/><path fill="#282928" d="M35.625 19.688a5.625 5.625 0 1 0-11.25 0 5.625 5.625 0 0 0 11.25 0m-9.375 0a3.75 3.75 0 1 1 7.5 0 3.75 3.75 0 0 1-7.5 0"/><path fill="#282928" d="M51.563 21.563h-1.876a19.688 19.688 0 0 0-39.374 0H8.437a5.625 5.625 0 1 0 0 11.25h4.688a.94.94 0 0 0 .938-.938V22.5a.94.94 0 0 0-.938-.937h-.937a17.813 17.813 0 0 1 35.625 0h-.938a.94.94 0 0 0-.937.937v9.375a.94.94 0 0 0 .937.938h.938v2.812a.94.94 0 0 1-.938.938h-6.731a2.82 2.82 0 0 0-2.644-1.876h-1.875a2.812 2.812 0 1 0 0 5.626H37.5a2.82 2.82 0 0 0 2.644-1.876h6.731a2.82 2.82 0 0 0 2.813-2.812v-2.812h1.874a5.625 5.625 0 1 0 0-11.25M8.438 30.938a3.75 3.75 0 0 1 0-7.5zm3.75 0h-1.876v-7.5h1.876zm25.312 7.5h-1.875a.938.938 0 0 1 0-1.876H37.5a.938.938 0 0 1 0 1.876m12.188-7.5h-1.876v-7.5h1.876zm1.874 0v-7.5a3.75 3.75 0 1 1 0 7.5"/></svg>