<svg xmlns="http://www.w3.org/2000/svg" width="60" height="60" fill="none"><g fill="#282928" clip-path="url(#a)"><path d="m7.315 20.949 2.73 1.56a1.46 1.46 0 0 0 1.454.002l3.373-1.928 3.371 1.927a1.46 1.46 0 0 0 1.454 0l3.372-1.928 3.372 1.927a1.46 1.46 0 0 0 1.453.002l3.373-1.928 3.37 1.926a1.46 1.46 0 0 0 1.454.002l3.374-1.929 3.375 1.93a1.47 1.47 0 0 0 1.45 0l2.734-1.563a1.35 1.35 0 0 0 .679-1.17v-8.427a.879.879 0 0 0-1.758 0v8.189l-2.381 1.36-3.372-1.927a1.46 1.46 0 0 0-1.453-.002l-3.374 1.929-3.371-1.927a1.46 1.46 0 0 0-1.452-.002l-3.374 1.929-3.372-1.927a1.46 1.46 0 0 0-1.453-.001L18.97 20.9l-3.372-1.927a1.46 1.46 0 0 0-1.453-.001L10.773 20.9l-2.38-1.36V3.594c0-.67-.184-1.298-.505-1.836h36.22c1.013 0 1.837.824 1.837 1.836v3.657a.879.879 0 0 0 1.758 0V3.594A3.6 3.6 0 0 0 44.108 0H4.798a3.6 3.6 0 0 0-3.595 3.594v8.994c0 .808.657 1.465 1.465 1.465h3.968v5.726c0 .482.26.93.679 1.17M2.96 12.295v-8.7c0-1.013.824-1.837 1.837-1.837 1.014 0 1.838.824 1.838 1.836v8.701zM37.246 46.914h3.338a.879.879 0 0 0 0-1.758h-3.338a.879.879 0 0 0 0 1.758M15.535 37.08h13.62a.879.879 0 0 0 0-1.758h-13.62a.879.879 0 1 0 0 1.758M15.535 41.826H20a.879.879 0 1 0 0-1.758h-4.464a.879.879 0 1 0 0 1.758"/><path d="M15.535 7.795h11.633a.879.879 0 0 0 0-1.758H15.535a.879.879 0 1 0 0 1.758M38.8 10.13H15.536a.879.879 0 1 0 0 1.759h23.266a.879.879 0 0 0 0-1.758M38.8 14.225H15.536a.879.879 0 1 0 0 1.757h23.266a.879.879 0 0 0 0-1.757M58.252 30.05l-6.029-4.83a1.44 1.44 0 0 0-1.54-.177 1.44 1.44 0 0 0-.825 1.312v1.72h-2.154v-3.05a1.232 1.232 0 0 0-1.841-1.068l-2.298 1.314-3.372-1.927a1.46 1.46 0 0 0-1.453-.001l-3.373 1.928-3.372-1.927a1.46 1.46 0 0 0-1.452-.001l-3.374 1.928-3.371-1.927a1.46 1.46 0 0 0-1.454-.001l-3.372 1.928-3.372-1.927a1.46 1.46 0 0 0-1.453 0l-3.372 1.927L8.48 23.96a1.233 1.233 0 0 0-1.843 1.067v5.678a.879.879 0 0 0 1.758 0v-4.769l1.652.945a1.46 1.46 0 0 0 1.453.001l3.373-1.928 3.371 1.927a1.46 1.46 0 0 0 1.454.001l3.372-1.928 3.372 1.927a1.46 1.46 0 0 0 1.453.001l3.373-1.928 3.37 1.927a1.46 1.46 0 0 0 1.454.001l3.374-1.928 3.371 1.927a1.46 1.46 0 0 0 1.453.001l1.656-.946v2.141h-3.59c-.937 0-1.7.762-1.7 1.7v2.82c0 .936.763 1.698 1.7 1.698h3.59v5.774h-2.353v-2.123a2.15 2.15 0 0 0-2.148-2.147h-5.058a2.15 2.15 0 0 0-2.147 2.147v2.122h-8.058c-.838 0-1.52.683-1.52 1.521v9.283H8.394V34.805a.879.879 0 0 0-1.758 0v16.36c0 .807.657 1.464 1.465 1.464h16.56v5.85c0 .838.681 1.52 1.52 1.52h25.469c.838 0 1.52-.682 1.52-1.52v-16.89c0-.84-.681-1.522-1.52-1.522h-3.947v-5.773h2.154v1.72c0 .565.316 1.068.825 1.313a1.44 1.44 0 0 0 1.54-.176l6.029-4.83c.346-.278.545-.692.545-1.136s-.198-.858-.545-1.136m-22.254 7.895a.39.39 0 0 1 .39-.39h5.057a.39.39 0 0 1 .39.39v2.122h-5.837zM26.42 58.24v-8.975a4.6 4.6 0 0 0 2.876 1.005h1.186v2.066c0 .84.682 1.521 1.52 1.521h2.474c.838 0 1.52-.682 1.52-1.52V50.27h5.843v2.066c0 .84.682 1.521 1.52 1.521h2.473c.84 0 1.521-.682 1.521-1.52V50.27h1.186a4.6 4.6 0 0 0 2.876-1.004v8.974zm5.82-7.97h1.999v1.83h-2zm11.356 0h2v1.83h-2zm7.819-4.633a2.88 2.88 0 0 1-2.876 2.876H29.295a2.88 2.88 0 0 1-2.876-2.876v-3.813h24.995zm.201-10.253v-1.15c0-.936-.762-1.699-1.699-1.699h-7.502v-2.702h7.502c.937 0 1.7-.762 1.7-1.7v-1.149l5.242 4.2z"/></g><defs><clipPath id="a"><path fill="#fff" d="M0 0h60v60H0z"/></clipPath></defs></svg>