<svg xmlns="http://www.w3.org/2000/svg" width="60" height="60" fill="none"><g clip-path="url(#a)"><path fill="#282928" d="M45.766 39.574a18.2 18.2 0 0 0 2.153-5.196h2.7c.518 0 .938-.42.938-.937v-6.882a.94.94 0 0 0-.938-.937h-2.7a18.2 18.2 0 0 0-2.153-5.196l1.91-1.91a.937.937 0 0 0 0-1.326l-4.866-4.866a.937.937 0 0 0-1.326 0l-1.91 1.91a18.2 18.2 0 0 0-5.196-2.153v-2.7a.94.94 0 0 0-.937-.938h-6.882a.94.94 0 0 0-.937.938v2.7a18.2 18.2 0 0 0-5.196 2.153l-1.91-1.91a.94.94 0 0 0-1.326 0l-4.866 4.866a.94.94 0 0 0 0 1.326l1.91 1.91a18.2 18.2 0 0 0-2.153 5.196h-2.7a.94.94 0 0 0-.938.937v6.882c0 .518.42.937.938.937h2.7a18.2 18.2 0 0 0 2.153 5.196l-1.91 1.91a.937.937 0 0 0 0 1.326l4.866 4.866a.937.937 0 0 0 1.326 0l1.91-1.91a18.2 18.2 0 0 0 5.196 2.153v2.7c0 .518.42.938.937.938h6.882c.518 0 .937-.42.937-.938v-2.7a18.2 18.2 0 0 0 5.196-2.153l1.91 1.91a.94.94 0 0 0 1.326 0l4.866-4.866a.94.94 0 0 0 0-1.326zm-3.619 6.113-1.78-1.78a.94.94 0 0 0-1.183-.116 16.4 16.4 0 0 1-5.926 2.456.94.94 0 0 0-.755.92v2.515h-5.006v-2.515a.94.94 0 0 0-.755-.92 16.4 16.4 0 0 1-5.926-2.456.94.94 0 0 0-1.183.117l-1.78 1.78-3.54-3.54 1.78-1.78a.94.94 0 0 0 .116-1.184 16.4 16.4 0 0 1-2.456-5.926.94.94 0 0 0-.92-.755h-2.515v-5.007h2.515a.94.94 0 0 0 .92-.754 16.4 16.4 0 0 1 2.456-5.926.94.94 0 0 0-.117-1.184l-1.78-1.78 3.54-3.54 1.78 1.78a.94.94 0 0 0 1.184.117 16.4 16.4 0 0 1 5.926-2.456.94.94 0 0 0 .755-.92v-2.515h5.006v2.516c0 .447.316.832.755.919a16.4 16.4 0 0 1 5.926 2.456c.372.249.867.2 1.183-.116l1.78-1.78 3.54 3.54-1.78 1.78a.94.94 0 0 0-.116 1.184 16.4 16.4 0 0 1 2.456 5.926.94.94 0 0 0 .92.754h2.515v5.007h-2.516a.94.94 0 0 0-.919.754 16.4 16.4 0 0 1-2.456 5.926.94.94 0 0 0 .117 1.184l1.78 1.78zM30 18.377c-6.41 0-11.624 5.214-11.624 11.623 0 6.41 5.215 11.624 11.624 11.624S41.624 36.409 41.624 30 36.409 18.376 30 18.376m-1.621 21.235v-7.397a.94.94 0 0 0-.938-.938h-1.975L30 25.41l4.534 5.867h-1.975a.94.94 0 0 0-.938.938v7.396a10 10 0 0 1-1.62.138 10 10 0 0 1-1.622-.137m5.117-.514v-5.946h1.563a1.61 1.61 0 0 0 1.454-.907 1.6 1.6 0 0 0-.174-1.698l-5.06-6.548A1.6 1.6 0 0 0 30 23.371c-.504 0-.97.229-1.28.628l-5.059 6.548a1.6 1.6 0 0 0-.174 1.698c.275.56.832.907 1.454.907h1.563v5.946c-3.653-1.408-6.253-4.954-6.253-9.098 0-5.375 4.374-9.749 9.749-9.749s9.749 4.374 9.749 9.749c0 4.144-2.6 7.69-6.253 9.098m21.93 10.971a.937.937 0 0 1-.859 1.01l-4.025.323-.075.003a.937.937 0 0 1-.934-1.013l.323-4.024a.938.938 0 0 1 1.869.15l-.103 1.283A27.85 27.85 0 0 0 58.008 30a27.84 27.84 0 0 0-4.991-15.96.938.938 0 0 1 1.54-1.07A29.7 29.7 0 0 1 59.883 30a29.7 29.7 0 0 1-7.107 19.342l1.641-.132a.94.94 0 0 1 1.01.86M8.276 13.482l.102-1.283A27.85 27.85 0 0 0 1.992 30a27.84 27.84 0 0 0 4.991 15.96.938.938 0 1 1-1.54 1.07A29.7 29.7 0 0 1 .117 30a29.7 29.7 0 0 1 7.107-19.342l-1.641.132a.937.937 0 1 1-.15-1.869l4.024-.323a.937.937 0 0 1 1.01 1.01l-.323 4.024a.937.937 0 1 1-1.869-.15m4.46-6.734a.94.94 0 0 1 .235-1.305A29.7 29.7 0 0 1 30 .117a29.7 29.7 0 0 1 19.342 7.107l-.132-1.641a.937.937 0 1 1 1.869-.15l.323 4.025a.937.937 0 0 1-1.01 1.01l-4.024-.324a.937.937 0 0 1 .15-1.869l1.283.103A27.85 27.85 0 0 0 30 1.992a27.84 27.84 0 0 0-15.96 4.991.94.94 0 0 1-1.304-.235m34.528 46.504a.94.94 0 0 1-.235 1.305A29.7 29.7 0 0 1 30 59.883a29.7 29.7 0 0 1-19.342-7.107l.132 1.641a.937.937 0 1 1-1.869.15l-.323-4.025a.937.937 0 0 1 1.01-1.01l4.024.324a.937.937 0 1 1-.15 1.869l-1.283-.103A27.85 27.85 0 0 0 30 58.008a27.84 27.84 0 0 0 15.96-4.991.94.94 0 0 1 1.304.235"/></g><defs><clipPath id="a"><path fill="#fff" d="M0 0h60v60H0z"/></clipPath></defs></svg>