<svg xmlns="http://www.w3.org/2000/svg" width="60" height="60" fill="none"><path fill="#282928" d="M56.342 3.107H45.036a.879.879 0 0 0 0 1.758h11.306c1.048 0 1.9.853 1.9 1.9v33.396H1.758V6.765c0-1.047.852-1.9 1.9-1.9h37.276a.879.879 0 0 0 0-1.758H3.658A3.66 3.66 0 0 0 0 6.765v36.183a3.66 3.66 0 0 0 3.658 3.658h8.414a.879.879 0 0 0 0-1.758H3.658c-1.048 0-1.9-.852-1.9-1.9v-1.03h56.484v1.03c0 1.048-.852 1.9-1.9 1.9H16.135a.879.879 0 0 0 0 1.758h5.532l-.868 5.015h-1.604a2.64 2.64 0 0 0-2.637 2.637 2.64 2.64 0 0 0 2.637 2.636h21.61a2.64 2.64 0 0 0 2.637-2.636 2.64 2.64 0 0 0-2.637-2.637h-1.604l-.868-5.015h18.01A3.66 3.66 0 0 0 60 42.948V6.765a3.66 3.66 0 0 0-3.658-3.658M37.417 51.621h-2.392a.879.879 0 0 0 0 1.758h5.78a.88.88 0 0 1 0 1.758h-21.61a.88.88 0 0 1 0-1.758h11.727a.879.879 0 0 0 0-1.758h-8.34l.869-5.015H36.55z"/><path fill="#282928" d="M47.546 25.346a.88.88 0 0 0-.783.48l-4.148 8.152-3.5-6.88a.879.879 0 0 0-1.567 0l-1.898 3.73h-3.029a.879.879 0 0 0 0 1.758h3.569c.33 0 .633-.186.783-.48l1.358-2.67 3.5 6.879a.879.879 0 0 0 1.567 0l4.148-8.152 2.006 3.942c.15.295.453.48.783.48h3.569a.879.879 0 0 0 0-1.757h-3.03l-2.545-5.002a.88.88 0 0 0-.783-.48M32.621 22.743h4.56a.88.88 0 0 0 .88-.88v-9.252a.88.88 0 0 0-.88-.879h-4.56a.88.88 0 0 0-.879.88v9.252c0 .485.394.879.88.879m.879-9.253h2.803v7.495H33.5zM45.573 14.246h-4.561a.88.88 0 0 0-.88.879v6.738c0 .486.394.88.88.88h4.56a.88.88 0 0 0 .88-.88v-6.738a.88.88 0 0 0-.88-.879m-.88 6.738h-2.802v-4.98h2.803zM53.905 22.742a.88.88 0 0 0 .878-.879V10.291a.88.88 0 0 0-.878-.879h-4.561a.88.88 0 0 0-.88.879v11.572c0 .486.394.88.88.88zM50.223 11.17h2.803v9.814h-2.803zM26.004 19.356H6.082a.879.879 0 0 0 0 1.757h19.922a.879.879 0 0 0 0-1.758M6.082 25.781h3.565a.879.879 0 0 0 0-1.758H6.082a.879.879 0 0 0 0 1.758M26.005 24.023h-12.33a.879.879 0 0 0 0 1.758h12.33a.879.879 0 0 0 0-1.758M26.004 9.412H6.082a.879.879 0 0 0 0 1.758h19.922a.879.879 0 0 0 0-1.758M6.082 15.84h12.354a.879.879 0 0 0 0-1.758H6.082a.879.879 0 0 0 0 1.758M26.005 14.082h-3.54a.879.879 0 0 0 0 1.758h3.54a.879.879 0 0 0 0-1.758M26.883 29.516a.88.88 0 0 0-.88-.88H6.083a.879.879 0 0 0 0 1.759h19.922a.88.88 0 0 0 .879-.88M6.082 33.28a.879.879 0 0 0 0 1.757h9.375a.879.879 0 0 0 0-1.758z"/></svg>