<svg xmlns="http://www.w3.org/2000/svg" width="60" height="60" fill="none"><path fill="#282928" d="M47.804 25.173h2.924a.97.97 0 0 0 .974-.965V21.31a.97.97 0 0 0-.974-.965.97.97 0 0 0-.975.965v1.931h-1.949a.97.97 0 0 0-.974.966.97.97 0 0 0 .974.965ZM24.882 21.31c2.153 0 3.898-1.73 3.898-3.862 0-2.133-1.745-3.862-3.898-3.862s-3.898 1.73-3.898 3.862c0 2.133 1.745 3.862 3.898 3.862Zm0-5.793a1.94 1.94 0 0 1 1.949 1.931 1.94 1.94 0 0 1-1.949 1.931 1.94 1.94 0 0 1-1.949-1.931 1.94 1.94 0 0 1 1.95-1.931Z"/><path fill="#282928" d="M3.597 20.99c.412.212.87.322 1.335.321 1.24 0 2.343-.78 2.747-1.943l7.663-.117-1.337 1.095a.959.959 0 0 0-.225 1.228l1.821 3.116.04 4.345h-4.863a.859.859 0 0 0-.169.034 2.926 2.926 0 0 0-3.244-1.926A2.904 2.904 0 0 0 4.918 30a2.904 2.904 0 0 0 2.447 2.858 2.926 2.926 0 0 0 3.244-1.927.866.866 0 0 0 .17.034h5.846c.26 0 .509-.103.692-.286a.96.96 0 0 0 .282-.688l-.045-4.893 3.118-1.159c.212.136.427.26.645.373l.657 3.914a.972.972 0 0 0 .962.806h.51v4.828h-2.924a.97.97 0 0 0-.974.965V48.91l-8.484 8.407a.959.959 0 0 0-.212 1.052c.151.36.507.596.9.596h31.182c.394 0 .75-.235.9-.596a.96.96 0 0 0-.21-1.052l-6.536-6.476v-5.126l2.181-3.6c3.68 2.2 5.906 3.333 6.588 3.333h5.847a.97.97 0 0 0 .974-.966V39.09l1.663-1.647a.97.97 0 0 0 .286-.684v-2.896h1.424c.66 0 1.274-.33 1.634-.879.36-.548.415-1.239.147-1.836l-3.03-6.759a7.462 7.462 0 0 0 1.774-4.844c.022-6.39-3.625-12.237-9.403-15.075l-2.826-1.402a.98.98 0 0 0-1.228.303l-.408.56h-6.598v-1.93a.97.97 0 0 0-.974-.966h-9.745a.97.97 0 0 0-.974.966v3.862h-1.487a.972.972 0 0 0-.962.807l-.657 3.913a7.864 7.864 0 0 0-.645.373l-3.752-1.393a.978.978 0 0 0-1.186.42l-.982 1.688c-.026 0-.046-.015-.071-.015H8.829V8.582a2.893 2.893 0 0 0 1.907-3.22 2.915 2.915 0 0 0-2.881-2.408 2.915 2.915 0 0 0-2.882 2.407 2.893 2.893 0 0 0 1.907 3.22v4.04a.97.97 0 0 0 .975.966h5.832a.95.95 0 0 0 .318.965l3.091 2.522c0 .07 0 .143-.006.215l-9.415.143a2.924 2.924 0 0 0-2.963-1.911 2.914 2.914 0 0 0-2.654 2.314 2.888 2.888 0 0 0 1.539 3.155Zm4.258 9.976a.97.97 0 0 1-.975-.965.97.97 0 0 1 .975-.966.97.97 0 0 1 .974.966.97.97 0 0 1-.974.965Zm0-26.069a.97.97 0 0 1 .974.966.97.97 0 0 1-.974.965.97.97 0 0 1-.975-.965.97.97 0 0 1 .975-.966Zm17.54 24.138h1.436a.97.97 0 0 0 .96-.806l.66-3.914c.215-.112.431-.237.642-.373l3.755 1.393a.978.978 0 0 0 1.185-.42l.413-.707h4.59a.897.897 0 0 0 .212-.043l1.737 2.295v1.61h-3.897V30h2.248l-2.61 1.035a.966.966 0 0 0-.613.897v1.93H25.395v-4.827Zm10.587-15.707-.41-.707h2.49v3.862h-4.666l2.362-1.93a.96.96 0 0 0 .224-1.225Zm2.08 5.087v3.861h-2.49l.41-.706a.96.96 0 0 0-.224-1.224l-2.363-1.931h4.667ZM31.527 42.27l3.612 3.579v.566h-5.847V35.793h1.95v5.793a.96.96 0 0 0 .284.682ZM25.35 55.103h.044v-.05l3.658-4.141a.961.961 0 0 0 .24-.636v-1.931h1.95v8.69H23.64l1.71-1.932Zm-11.245 1.931 7.106-7.041a.961.961 0 0 0 .286-.683V35.794h5.846v14.12l-1.948 2.207V47.38h-1.95v6.952l-2.39 2.703h-6.95Zm26.477 0H33.19v-8.69h1.949v2.897a.96.96 0 0 0 .285.683l5.158 5.11Zm-4.664-13.142-2.728-2.704v-5.395h2.923v3.862c0 .333.173.642.458.819.363.226.692.425 1.035.634l-1.688 2.784Zm8.3-38.73L46.3 6.198c5.116 2.513 8.345 7.69 8.326 13.348a5.565 5.565 0 0 1-1.663 3.98.959.959 0 0 0-.202 1.074l3.289 7.333h-2.398a.97.97 0 0 0-.975.965v2.897h-.167a5.666 5.666 0 0 1-4.016-1.648.981.981 0 0 0-1.366.011.96.96 0 0 0-.012 1.354 7.58 7.58 0 0 0 4.274 2.124l-.376.373a.96.96 0 0 0-.285.682v4.828l-4.78.006a51.95 51.95 0 0 1-6.504-3.563l-.005-.005h-.006c-.459-.276-.919-.556-1.373-.835v-6.536l4.26-1.687a.966.966 0 0 0 .612-.897V26.14a.96.96 0 0 0-.195-.58l-2.728-3.604V10.999l4.206-5.835Zm-17.85-2.197h7.796v1.931a.97.97 0 0 0 .975.966h6.18l-3.075 4.266a.95.95 0 0 0-.182.561h-3.616l-.413-.706a.978.978 0 0 0-1.185-.421l-3.75 1.393a7.695 7.695 0 0 0-.644-.373l-.662-3.914a.972.972 0 0 0-.961-.806h-.462V2.966Zm-10.487 10.62 1.123-1.93 3.46 1.285c.312.115.66.066.925-.13a5.86 5.86 0 0 1 1.186-.686.966.966 0 0 0 .577-.729l.606-3.602h2.247l.607 3.603c.054.324.271.6.576.729.421.182.82.412 1.186.685a.98.98 0 0 0 .924.13l3.461-1.285 1.123 1.93-2.85 2.325a.961.961 0 0 0-.349.86c.06.45.06.907 0 1.358a.963.963 0 0 0 .348.86l2.85 2.322-1.122 1.931-3.461-1.285a.98.98 0 0 0-.924.13 5.921 5.921 0 0 1-1.186.686.966.966 0 0 0-.576.729l-.607 3.602h-2.248l-.604-3.603a.967.967 0 0 0-.577-.729 5.839 5.839 0 0 1-1.185-.685.982.982 0 0 0-.925-.131l-3.462 1.286-1.123-1.931 2.85-2.324a.753.753 0 0 0 .05-.053.94.94 0 0 0 .229-.323l.006-.01a.947.947 0 0 0 .062-.333.334.334 0 0 0 .008-.042c0-.011-.006-.02-.007-.033v-.066c-.06-.45-.06-.907 0-1.358a.964.964 0 0 0-.348-.86l-2.85-2.322ZM4.065 17.974a.961.961 0 0 1 .57-.483.976.976 0 0 1 1.167.64.963.963 0 0 1-.571 1.195.977.977 0 0 1-1.226-.624.95.95 0 0 1 .06-.728Z"/><path fill="#282928" d="M23.445 39.656h1.95v1.931h-1.95v-1.93Zm0 3.862h1.95v1.93h-1.95v-1.93Zm5.846-15.448h1.949v1.931h-1.95v-1.93Zm3.899 0h1.948v1.931H33.19v-1.93Zm8.769-17.38h1.949v3.862h-1.949V10.69Zm0 5.794h1.949v1.931h-1.949v-1.93Zm0 3.862h1.949v1.93h-1.949v-1.93Z"/></svg>