<svg xmlns="http://www.w3.org/2000/svg" width="60" height="60" fill="none"><path fill="#282928" d="M46.259 39.033c-3.984 0-7.226 3.242-7.226 7.226s3.242 7.226 7.226 7.226 7.226-3.242 7.226-7.226-3.242-7.226-7.226-7.226Zm0 12.645a5.425 5.425 0 0 1-5.42-5.419c0-2.989 2.431-5.42 5.42-5.42s5.42 2.431 5.42 5.42-2.431 5.42-5.42 5.42Z"/><path fill="#282928" d="M46.26 42.647a3.617 3.617 0 0 0-3.613 3.612 3.617 3.617 0 0 0 3.612 3.613 3.617 3.617 0 0 0 3.613-3.613 3.617 3.617 0 0 0-3.613-3.612Zm0 5.419c-.997 0-1.807-.81-1.807-1.807 0-.996.81-1.806 1.806-1.806.997 0 1.807.81 1.807 1.806 0 .997-.81 1.807-1.807 1.807Z"/><path fill="#282928" d="m56.173 41.902.755-1.58-4.736-4.734-1.58.755a10.646 10.646 0 0 0-.425-.177l-.58-1.65h-6.698l-.582 1.649c-.142.056-.284.115-.426.177l-1.579-.755-4.736 4.735.755 1.58c-.062.14-.121.282-.177.425l-1.648.581v6.699l1.649.581c.056.143.115.285.177.426l-.755 1.58 4.736 4.734 1.58-.755c.141.063.283.122.425.177l.58 1.65h6.698l.582-1.65c.142-.056.284-.114.426-.177l1.579.755 4.736-4.734-.755-1.58c.062-.14.121-.283.177-.426L58 49.607v-6.699l-1.649-.581a10.289 10.289 0 0 0-.177-.425Zm.02 6.426-1.257.443-.142.414a8.79 8.79 0 0 1-.43 1.035l-.194.394.576 1.206-2.928 2.928-1.205-.577-.393.193a8.884 8.884 0 0 1-1.035.43l-.414.142-.443 1.257h-4.142l-.443-1.258-.414-.141a8.884 8.884 0 0 1-1.035-.43l-.393-.194-1.205.577-2.928-2.928.576-1.206-.193-.394a8.79 8.79 0 0 1-.43-1.035l-.142-.414-1.257-.442v-4.14l1.257-.444.142-.414c.12-.347.264-.696.431-1.035l.193-.394-.576-1.206 2.928-2.928 1.205.577.393-.193a8.884 8.884 0 0 1 1.035-.43l.414-.142.443-1.257h4.142l.443 1.258.414.141c.343.118.69.262 1.035.431l.393.193 1.205-.577 2.928 2.928-.576 1.206.193.394c.167.339.312.687.43 1.035l.143.414 1.256.442v4.14Zm-.903-37.296H36.323V7.42C36.323 3.862 27.689 2 19.16 2 10.633 2 2 3.862 2 7.42v27.096c0 3.558 8.633 5.42 17.161 5.42 8.528 0 17.162-1.862 17.162-5.42v-5.42h7.225V30a2.713 2.713 0 0 0 2.71 2.71c.847 0 1.657-.405 2.168-1.084l1.897-2.53h4.967A2.713 2.713 0 0 0 58 26.388V13.742a2.713 2.713 0 0 0-2.71-2.71ZM19.161 3.806c9.936 0 15.355 2.388 15.355 3.613 0 1.226-5.42 3.613-15.355 3.613S3.806 8.645 3.806 7.42s5.42-3.613 15.355-3.613ZM3.806 9.97c2.968 1.889 9.18 2.87 15.355 2.87 6.175 0 12.387-.981 15.355-2.87v1.23a2.706 2.706 0 0 0-1.806 2.543v4.22c-2.791 1.285-8.003 2.102-13.549 2.102-9.935 0-15.355-2.387-15.355-3.612V9.969Zm0 9.032c2.968 1.89 9.18 2.87 15.355 2.87 5.407 0 10.402-.733 13.549-1.952v6.468c0 .198.024.39.064.575-2.765 1.308-7.955 2.135-13.613 2.135-9.935 0-15.355-2.388-15.355-3.613V19ZM19.161 38.13c-9.935 0-15.355-2.387-15.355-3.613v-6.482c2.968 1.888 9.18 2.87 15.355 2.87 6.102 0 11.573-.912 14.584-2.403.23.183.488.328.771.429v5.586c0 1.226-5.42 3.613-15.355 3.613Zm37.032-11.742a.904.904 0 0 1-.903.903h-5.87l-2.439 3.252A.904.904 0 0 1 45.354 30v-2.71H35.42a.904.904 0 0 1-.903-.903V13.742c0-.499.406-.903.903-.903h19.87c.498 0 .904.404.904.903v12.645Z"/><path fill="#282928" d="M14.718 14.648a47.03 47.03 0 0 1-1.765-.177l-.215 1.794c.629.075 1.242.135 1.832.184l.148-1.801Zm-3.514-.421c-.575-.093-1.155-.2-1.732-.323l-.376 1.768c.607.13 1.215.241 1.82.339l.288-1.784Zm-3.436-.737a22.823 22.823 0 0 1-1.656-.525l-.614 1.699c.567.205 1.169.395 1.788.567l.482-1.741Zm3.436 9.768a35.39 35.39 0 0 1-1.732-.322l-.376 1.767c.607.13 1.215.241 1.82.339l.288-1.784Zm-3.436-.735a22.823 22.823 0 0 1-1.656-.525l-.614 1.699c.567.205 1.169.396 1.788.567l.482-1.741Zm6.95 1.157a47.03 47.03 0 0 1-1.765-.176l-.215 1.794c.629.075 1.242.135 1.832.184l.148-1.801Zm-9.22 9.046c.567.205 1.169.396 1.788.568l.482-1.742a22.823 22.823 0 0 1-1.656-.525l-.614 1.7Zm7.24 1.603c.629.075 1.242.135 1.832.184l.148-1.8a47.453 47.453 0 0 1-1.765-.178l-.215 1.794Zm-3.642-.593c.607.13 1.215.242 1.82.34l.288-1.785a36.76 36.76 0 0 1-1.732-.322l-.376 1.767Zm43.484-13.67h-1.806v3.613h-1.807v-5.42h-1.806v5.42h-1.806v-3.613h-1.807v3.613h-1.806v-7.226h-1.807v7.226H38.13v-9.032h-1.807v10.838h18.065V23.68H52.58v-3.613ZM10.129 43.549h16.258v1.806H10.129V43.55Zm0 3.611h1.806v1.807H10.13V47.16Zm3.613 0h12.645v1.807H13.742V47.16Zm-3.613 3.613h16.258v1.807H10.129v-1.807Z"/></svg>