<svg xmlns="http://www.w3.org/2000/svg" width="60" height="60" fill="none"><g fill="#282928" clip-path="url(#a)"><path d="M32.788 37.166a.882.882 0 0 0-.882-.882h-7.082l-.001-12.04 12.04-.001v12.04h-8.198a.882.882 0 0 0 0 1.765h9.08a.888.888 0 0 0 .883-.884l-.002-13.804a.882.882 0 0 0-.882-.881H23.941a.883.883 0 0 0-.882.883l.001 13.804c0 .487.395.882.882.882h7.964a.882.882 0 0 0 .882-.882Z"/><path d="M55.815 22.647c0-4.322-3.267-7.893-7.46-8.38v-.703C48.355 6.084 42.27 0 34.791 0c-2.763 0-5.421.826-7.688 2.388a13.551 13.551 0 0 0-4.669 5.578h-8.593a4.757 4.757 0 0 0-4.75 4.751c0 1.172.427 2.246 1.133 3.075-3.642.559-6.44 3.713-6.44 7.51 0 4.188 3.407 7.596 7.596 7.596h2.78a.882.882 0 1 0 0-1.764h-2.78a5.84 5.84 0 0 1-5.833-5.833 5.84 5.84 0 0 1 5.833-5.833h2.615a.882.882 0 1 0 0-1.764h-.154a2.99 2.99 0 0 1-2.987-2.987 2.99 2.99 0 0 1 2.987-2.987h11.821a.882.882 0 1 0 0-1.764H24.4a11.741 11.741 0 0 1 10.392-6.202c6.507 0 11.8 5.294 11.8 11.8v.644h-3.233a.882.882 0 1 0 0 1.765h4.018a6.682 6.682 0 0 1 6.675 6.674 6.682 6.682 0 0 1-6.675 6.675h-.117a.882.882 0 1 0 0 1.764h.117c4.653 0 8.439-3.785 8.439-8.439Z"/><path d="M30.61 9.73a.882.882 0 1 0 0-1.765h-1.19a.882.882 0 1 0 0 1.764h1.189Zm.292 47.442a.882.882 0 0 0-.883.882v1.064a.882.882 0 1 0 1.765 0v-1.064a.882.882 0 0 0-.882-.882Z"/><path d="M42.171 52.014c-.62 0-1.199.172-1.695.469l-2.834-2.834v-8.073h.101a4.417 4.417 0 0 0 4.412-4.412v-.218h1.576a.882.882 0 0 0 0-1.765h-1.576v-4.094h1.576a.882.882 0 1 0 0-1.765h-1.576v-4.095h1.576a.882.882 0 0 0 0-1.764h-1.576v-.101a4.417 4.417 0 0 0-4.412-4.412h-.219v-1.576a.882.882 0 1 0-1.764 0v1.576h-4.095v-1.576a.882.882 0 1 0-1.764 0v1.576h-4.095v-1.576a.882.882 0 1 0-1.764 0v1.576h-.101a4.417 4.417 0 0 0-4.412 4.412v.219h-1.576a.882.882 0 1 0 0 1.764h1.576v4.095h-1.576a.882.882 0 1 0 0 1.764h1.576v4.094h-1.576a.882.882 0 1 0 0 1.765h1.576v.1a4.417 4.417 0 0 0 4.412 4.413h.219v8.072l-2.834 2.834a3.288 3.288 0 0 0-1.695-.468 3.312 3.312 0 0 0-3.309 3.308 3.312 3.312 0 0 0 3.309 3.309 3.312 3.312 0 0 0 3.308-3.309 3.29 3.29 0 0 0-.394-1.564l3.12-3.12a.883.883 0 0 0 .259-.624v-8.438h4.095v12.403a.882.882 0 1 0 1.764 0V41.576h4.095v8.438c0 .234.093.458.258.624l3.12 3.12a3.288 3.288 0 0 0-.393 1.565 3.312 3.312 0 0 0 3.308 3.308 3.312 3.312 0 0 0 3.308-3.308 3.312 3.312 0 0 0-3.308-3.309Zm-22.54 4.853a1.546 1.546 0 0 1-1.544-1.544c0-.852.692-1.545 1.544-1.545.851 0 1.544.693 1.544 1.544 0 .852-.693 1.545-1.544 1.545Zm1.662-19.703V23.362a2.65 2.65 0 0 1 2.648-2.648h13.802a2.65 2.65 0 0 1 2.648 2.648v13.802a2.65 2.65 0 0 1-2.648 2.648H23.941a2.65 2.65 0 0 1-2.648-2.648Zm20.878 19.703a1.546 1.546 0 0 1-1.544-1.544c0-.852.693-1.545 1.544-1.545.851 0 1.544.693 1.544 1.544 0 .852-.693 1.545-1.544 1.545ZM12.955 42.193a.882.882 0 0 0-.882.883v2.929l-3.63 3.629a2.24 2.24 0 1 0 1.248 1.248l3.888-3.888a.882.882 0 0 0 .258-.624v-3.294a.882.882 0 0 0-.882-.883Zm-.001-7.185a.882.882 0 0 0-.882.882v3.426a.882.882 0 1 0 1.764 0V35.89a.882.882 0 0 0-.882-.882Zm-4.962 4.018v-5.433a.882.882 0 1 0-1.764 0v5.432a1.758 1.758 0 0 0 .882 3.282 1.76 1.76 0 0 0 .882-3.282Zm45.964 10.446a2.23 2.23 0 0 0-.832.162l-3.63-3.63V35.89a.882.882 0 1 0-1.764 0v10.48a.88.88 0 0 0 .259.624l3.887 3.887a2.24 2.24 0 1 0 2.08-1.409Zm.501-16.762a.882.882 0 0 0-.882.883v5.432a1.758 1.758 0 0 0 .882 3.282 1.76 1.76 0 0 0 .882-3.282v-5.432a.882.882 0 0 0-.882-.882Z"/></g><defs><clipPath id="a"><path fill="#fff" d="M0 0h60v60H0z"/></clipPath></defs></svg>