<svg xmlns="http://www.w3.org/2000/svg" width="60" height="60" fill="none"><path fill="#282928" d="M44.046 40.219a.903.903 0 0 0 .17-1.043l-1.326-2.652c.327-.65.604-1.325.83-2.018l2.818-.94a.903.903 0 0 0 .618-.856v-1.852a11.735 11.735 0 0 0-.903-23.438H26.758l1.167-1.168-1.277-1.277-2.71 2.71a.903.903 0 0 0 0 1.276l2.71 2.71 1.277-1.277-1.167-1.168h19.495a9.931 9.931 0 0 1 9.93 9.481 9.934 9.934 0 0 1-9.027 10.345V27.29a.903.903 0 0 0-.618-.857l-2.818-.94a14.468 14.468 0 0 0-.83-2.018l1.325-2.652a.904.904 0 0 0-.17-1.042l-3.831-3.832a.904.904 0 0 0-1.043-.17l-2.65 1.326a14.388 14.388 0 0 0-2.019-.83l-.94-2.82a.902.902 0 0 0-.856-.617h-5.42a.902.902 0 0 0-.856.617l-.94 2.82a14.22 14.22 0 0 0-2.018.83l-2.65-1.326a.904.904 0 0 0-1.043.17l-3.832 3.832a.904.904 0 0 0-.17 1.042l1.326 2.652a14.458 14.458 0 0 0-.83 2.018l-2.819.94a.903.903 0 0 0-.617.857v1.852A11.734 11.734 0 0 0 2.009 41.297a11.737 11.737 0 0 0 11.73 11.284h19.496l-1.168 1.168 1.277 1.277 2.71-2.71a.903.903 0 0 0 0-1.277l-2.71-2.71-1.277 1.278 1.168 1.168H13.74A9.931 9.931 0 0 1 6.249 34.31a9.932 9.932 0 0 1 6.588-3.361v1.761a.904.904 0 0 0 .617.857l2.819.94c.225.692.503 1.367.83 2.017l-1.326 2.652a.903.903 0 0 0 .17 1.043l3.832 3.832a.904.904 0 0 0 1.042.17l2.651-1.326c.651.327 1.326.605 2.018.83l.94 2.82a.902.902 0 0 0 .857.617h5.419a.901.901 0 0 0 .856-.618l.94-2.819a14.386 14.386 0 0 0 2.018-.83l2.651 1.325a.906.906 0 0 0 1.043-.169l3.832-3.832Zm-4.649 2.094-2.483-1.242a.904.904 0 0 0-.84.017c-.804.44-1.654.79-2.535 1.044a.903.903 0 0 0-.603.582l-.881 2.641h-4.117l-.88-2.641a.903.903 0 0 0-.604-.581 12.574 12.574 0 0 1-2.536-1.045.903.903 0 0 0-.838-.017l-2.484 1.242-2.911-2.91 1.241-2.485a.905.905 0 0 0-.015-.838 12.6 12.6 0 0 1-1.045-2.536.903.903 0 0 0-.581-.605l-2.642-.88v-4.117l2.642-.881a.904.904 0 0 0 .581-.604 12.64 12.64 0 0 1 1.044-2.537.906.906 0 0 0 .016-.838l-1.241-2.484 2.91-2.911 2.485 1.242a.907.907 0 0 0 .838-.016c.805-.44 1.655-.79 2.536-1.045a.903.903 0 0 0 .603-.581l.88-2.642h4.118l.88 2.642a.902.902 0 0 0 .604.58c.88.255 1.73.606 2.535 1.046a.905.905 0 0 0 .839.016l2.484-1.242 2.911 2.911-1.242 2.484a.905.905 0 0 0 .016.838c.44.805.79 1.656 1.044 2.537a.905.905 0 0 0 .582.604l2.641.88v4.118l-2.641.88a.903.903 0 0 0-.582.605c-.255.88-.605 1.731-1.044 2.536a.905.905 0 0 0-.016.839l1.242 2.483-2.91 2.911Z"/><path fill="#282928" d="M29.997 21.871a8.127 8.127 0 0 0-5.747 13.877A8.128 8.128 0 0 0 38.126 30a8.139 8.139 0 0 0-8.129-8.129Zm0 14.452A6.322 6.322 0 1 1 36.32 30a6.33 6.33 0 0 1-6.322 6.323ZM2.903 14.645H19.16a.903.903 0 0 0 .904-.903V2.903A.903.903 0 0 0 19.16 2H2.902A.903.903 0 0 0 2 2.903v10.839a.903.903 0 0 0 .903.903Zm.903-10.839h14.45v9.033H3.806V3.806Zm53.285 41.549H40.835a.903.903 0 0 0-.903.904v10.838a.903.903 0 0 0 .903.904H57.09a.903.903 0 0 0 .903-.904V46.26a.903.903 0 0 0-.903-.904Zm-.903 10.84h-14.45v-9.033h14.45v9.032Z"/><path fill="#282928" d="M5.613 5.613h10.838V7.42H5.613V5.613Zm0 3.612h10.838v1.806H5.613V9.225Zm37.932 39.744h10.837v1.806H43.546V48.97Zm0 3.611h10.837v1.806H43.546V52.58ZM29.094 31.432l-2.07-2.07-1.278 1.276 2.71 2.71a.903.903 0 0 0 1.277 0l4.516-4.516-1.277-1.277-3.878 3.877Z"/></svg>