<svg xmlns="http://www.w3.org/2000/svg" width="60" height="60" fill="none"><path fill="#282928" d="M4.496 53.17v-9.153h19.61c.328-.005.64-.142.87-.38a1.299 1.299 0 0 0 0-1.794 1.234 1.234 0 0 0-.872-.38H4.496V31.252h23.422a1.23 1.23 0 0 0 .873-.373c.232-.237.364-.558.366-.893a1.293 1.293 0 0 0-.35-.899 1.235 1.235 0 0 0-.867-.388H4.496V18.485h37.27v3.8c.01.331.146.646.38.877a1.23 1.23 0 0 0 1.738 0 1.29 1.29 0 0 0 .378-.878V6.83a3.87 3.87 0 0 0-1.097-2.707A3.704 3.704 0 0 0 40.519 3H5.743a3.7 3.7 0 0 0-2.647 1.122A3.875 3.875 0 0 0 2 6.83v46.34a3.87 3.87 0 0 0 1.097 2.707A3.704 3.704 0 0 0 5.743 57h23.52c.332 0 .65-.135.883-.374a1.293 1.293 0 0 0 0-1.805 1.234 1.234 0 0 0-.882-.374H5.744c-.332 0-.649-.135-.883-.374a1.292 1.292 0 0 1-.365-.903Zm0-46.34a1.298 1.298 0 0 1 .364-.904 1.242 1.242 0 0 1 .883-.373H40.52a1.22 1.22 0 0 1 .883.373 1.274 1.274 0 0 1 .364.904v9.102H4.496V6.83Zm17.508 5.269H9.526a1.235 1.235 0 0 1-.867-.383 1.292 1.292 0 0 1-.357-.893c0-.335.129-.656.357-.895.23-.238.54-.376.867-.382h12.478c.326.007.637.144.866.383a1.293 1.293 0 0 1 0 1.788 1.24 1.24 0 0 1-.866.382Zm7.992.78a1.974 1.974 0 0 1-1.392-.607 2.065 2.065 0 0 1-.574-1.433c0-.536.207-1.05.574-1.432a1.98 1.98 0 0 1 1.392-.609 1.973 1.973 0 0 1 1.391.609c.368.382.574.896.574 1.432 0 .536-.206 1.05-.574 1.432-.367.382-.867.6-1.39.609Zm6.239 0a1.973 1.973 0 0 1-1.392-.607 2.065 2.065 0 0 1-.574-1.433c0-.536.206-1.05.574-1.432a1.98 1.98 0 0 1 1.392-.609 1.973 1.973 0 0 1 1.391.609c.368.382.574.896.574 1.432 0 .536-.206 1.05-.574 1.432-.367.382-.867.6-1.391.609Zm-14.231 9.433c.326.006.638.144.866.382.23.239.357.56.357.894 0 .335-.128.656-.357.894a1.23 1.23 0 0 1-.866.383H9.526a1.235 1.235 0 0 1-.867-.383 1.292 1.292 0 0 1-.357-.894c0-.334.129-.655.357-.894.23-.238.54-.376.867-.382h12.478Zm9.987 1.293a2.064 2.064 0 0 1-.595 1.424 1.972 1.972 0 0 1-1.4.587c-.524 0-1.027-.21-1.4-.587A2.064 2.064 0 0 1 28 23.605a2.07 2.07 0 0 1 .594-1.425 1.971 1.971 0 0 1 1.401-.587c.524 0 1.027.21 1.4.587.374.377.587.889.595 1.425Zm6.239 0a2.064 2.064 0 0 1-.595 1.424 1.972 1.972 0 0 1-1.4.587c-.524 0-1.027-.21-1.4-.587a2.064 2.064 0 0 1-.595-1.424 2.07 2.07 0 0 1 .594-1.425 1.972 1.972 0 0 1 1.4-.587c.525 0 1.028.21 1.401.587.374.377.587.889.595 1.425ZM22.004 35.078c.326.006.638.144.866.382.23.239.357.56.357.894 0 .335-.128.656-.357.894-.228.239-.54.376-.866.383H9.526a1.235 1.235 0 0 1-.867-.383 1.292 1.292 0 0 1-.357-.894c0-.334.129-.655.357-.894.23-.238.54-.376.867-.382h12.478Zm0 12.766c.326.006.638.143.866.382.23.239.357.56.357.894 0 .335-.128.656-.357.894-.228.239-.54.376-.866.383H9.526a1.235 1.235 0 0 1-.867-.383 1.292 1.292 0 0 1-.357-.894c0-.334.129-.655.357-.894.23-.238.54-.376.867-.382h12.478Zm33.625-9.852h-2.021a11.446 11.446 0 0 0-.686-1.673l1.434-1.455c.44-.458.688-1.073.69-1.715a2.488 2.488 0 0 0-.677-1.72l-1.572-1.608a2.353 2.353 0 0 0-1.678-.708c-.63 0-1.233.255-1.679.708l-1.435 1.468a10.843 10.843 0 0 0-1.634-.689v-2.08c0-.597-.215-1.172-.604-1.615a2.338 2.338 0 0 0-1.505-.786c-.041-.045-2.367-.02-2.495-.025a2.349 2.349 0 0 0-1.668.716 2.459 2.459 0 0 0-.69 1.71c-.032-.02.022 2.02 0 2.08-.584.137-1.11.51-1.66.651l-1.398-1.43a2.353 2.353 0 0 0-1.678-.708c-.629 0-1.232.255-1.678.708l-1.398 1.43a2.45 2.45 0 0 0-.612.791 2.504 2.504 0 0 0 .438 2.822l1.434 1.455c-.267.54-.497 1.099-.686 1.672H30.15a2.35 2.35 0 0 0-1.675.713 2.461 2.461 0 0 0-.696 1.713v2.272c0 .644.25 1.26.695 1.715a2.34 2.34 0 0 0 1.676.71h2.021c.185.576.414 1.136.686 1.673l-1.434 1.468a2.464 2.464 0 0 0-.693 1.717c0 .644.249 1.261.692 1.717l1.573 1.609c.454.436 1.054.68 1.678.68.623 0 1.224-.244 1.678-.68l1.435-1.481c.523.272 1.065.503 1.622.69v2.068c.006.641.257 1.255.7 1.708A2.365 2.365 0 0 0 41.78 57H44a2.338 2.338 0 0 0 1.677-.71c.22-.225.395-.493.514-.787.119-.294.18-.61.18-.928v-2.069a9.552 9.552 0 0 0 1.622-.689l1.447 1.48a2.37 2.37 0 0 0 1.681.693 2.376 2.376 0 0 0 1.676-.705l1.56-1.596a2.464 2.464 0 0 0 .692-1.717c0-.643-.249-1.26-.693-1.717l-1.434-1.468c.272-.538.501-1.097.686-1.672h2.021a2.342 2.342 0 0 0 1.677-.71A2.442 2.442 0 0 0 58 42.689v-2.272a2.461 2.461 0 0 0-.696-1.713 2.351 2.351 0 0 0-1.675-.712Zm-.124 4.57h-2.022a2.34 2.34 0 0 0-1.385.479 2.429 2.429 0 0 0-.848 1.219c-.51 1.408-1.5 2.971-.175 4.25l1.422 1.456-1.385 1.43-1.435-1.468a2.32 2.32 0 0 0-1.313-.67 2.294 2.294 0 0 0-1.444.261c-1.308.58-3.103 1.051-3.045 2.86v2.068h-1.971a12.74 12.74 0 0 0-.138-2.834c-.344-1.324-1.85-1.545-2.894-2.094a2.292 2.292 0 0 0-2.758.409l-1.447 1.468-1.398-1.43 1.435-1.468c1.31-1.267.36-2.838-.175-4.238a2.416 2.416 0 0 0-.846-1.222 2.327 2.327 0 0 0-1.387-.476h-2.021v-2.017h2.02a2.3 2.3 0 0 0 1.392-.472 2.39 2.39 0 0 0 .842-1.226c.526-1.389 1.489-2.992.175-4.239l-1.435-1.468 1.398-1.43 1.435 1.469c1.238 1.34 2.774.369 4.142-.18a2.359 2.359 0 0 0 1.195-.864 2.46 2.46 0 0 0 .465-1.42v-2.068h1.971v2.068c.004.512.166 1.01.465 1.42.298.411.717.714 1.195.865 1.366.547 2.907 1.518 4.142.179l1.435-1.468 1.398 1.43-1.435 1.468c-1.319 1.269-.343 2.834.175 4.238.148.489.444.916.846 1.222.401.305.887.471 1.387.476h2.022v2.017Zm-12.613-8.177c-9.398.305-9.396 14.247 0 14.55 9.398-.305 9.396-14.246 0-14.55Zm0 11.998a4.566 4.566 0 0 1-3.23-1.402 4.78 4.78 0 0 1-1.334-3.32c0-1.244.48-2.438 1.334-3.322a4.565 4.565 0 0 1 3.23-1.401 4.566 4.566 0 0 1 3.23 1.402 4.78 4.78 0 0 1 1.333 3.32 4.78 4.78 0 0 1-1.333 3.32 4.565 4.565 0 0 1-3.23 1.403Z"/></svg>