<svg xmlns="http://www.w3.org/2000/svg" width="60" height="60" fill="none"><path fill="#282928" d="M54.145 6H5.855a3.867 3.867 0 0 0-2.726 1.129A3.841 3.841 0 0 0 2 9.848v40.304a3.84 3.84 0 0 0 1.129 2.719A3.867 3.867 0 0 0 5.854 54h48.291a3.867 3.867 0 0 0 2.726-1.129A3.841 3.841 0 0 0 58 50.152V9.848a3.84 3.84 0 0 0-1.129-2.719A3.867 3.867 0 0 0 54.145 6Zm2.121 44.152c0 .562-.223 1.1-.62 1.497a2.13 2.13 0 0 1-1.5.623H5.853a2.13 2.13 0 0 1-1.5-.623 2.116 2.116 0 0 1-.62-1.497V14.236h52.532v35.916Zm0-37.644H3.734v-2.66c0-.562.223-1.1.62-1.497a2.13 2.13 0 0 1 1.5-.623h48.291a2.13 2.13 0 0 1 1.5.623c.398.397.621.935.621 1.497v2.66Z"/><path fill="#282928" d="m21.092 28.1 10.23 3.225a.872.872 0 0 0 1.09-.552c.354-1.128.535-2.304.536-3.486a11.547 11.547 0 0 0-3.406-8.155 11.625 11.625 0 0 0-8.188-3.382.867.867 0 0 0-.812.51.859.859 0 0 0-.075.327v10.688a.86.86 0 0 0 .625.826Zm1.126-10.61a9.887 9.887 0 0 1 3.975 1.229 9.853 9.853 0 0 1 3.113 2.753 9.817 9.817 0 0 1 1.676 7.935l-8.764-2.761V17.49Z"/><path fill="#282928" d="M17.984 41.21a11.565 11.565 0 0 0 6.857-2.223 11.502 11.502 0 0 0 4.194-5.846.852.852 0 0 0-.56-1.08l-9.627-3.035V18.968a.86.86 0 0 0-.864-.843 11.613 11.613 0 0 0-8.198 3.384 11.535 11.535 0 0 0-3.395 8.17c0 3.065 1.221 6.004 3.395 8.171a11.613 11.613 0 0 0 8.198 3.384v-.023Zm-.87-21.345v9.79a.865.865 0 0 0 .596.826l9.365 2.97a9.832 9.832 0 0 1-3.161 4.051 9.878 9.878 0 0 1-9.875 1.159 9.854 9.854 0 0 1-4.019-3.21 9.808 9.808 0 0 1-1.018-9.857 9.834 9.834 0 0 1 3.278-3.958 9.88 9.88 0 0 1 4.834-1.771Zm14.302 30.359h6.136v-11.24h-6.136v11.24Zm1.734-9.5h2.669v7.773h-2.67v-7.773Zm6.297 9.5h6.13v-14.19h-6.13v14.19Zm1.734-12.469h2.669v10.741h-2.67v-10.74Zm6.292 12.469h6.136V31.717h-6.136v18.508Zm1.733-16.78h2.67v15.053h-2.67V33.445ZM38.703 15.727h14.042v1.727H38.703v-1.727Zm0 4.863h14.042v1.728H38.703V20.59ZM7.254 43.633h14.042v1.728H7.254v-1.728Zm0 4.863h14.042v1.728H7.254v-1.728Zm0-39.658h4.194v1.728H7.254V8.838Zm31.449 17.017h14.042v1.728H38.703v-1.727Z"/></svg>