<svg xmlns="http://www.w3.org/2000/svg" width="60" height="60" fill="none"><g clip-path="url(#a)"><path fill="#282928" d="M47.176 6.708 43.72 3.252a1.36 1.36 0 0 0-1.797-.11L40.005 4.64a14.026 14.026 0 0 0-2.558-1.06l-.297-2.413a1.36 1.36 0 0 0-1.349-1.193h-4.887a1.36 1.36 0 0 0-1.35 1.193l-.296 2.413a14.03 14.03 0 0 0-2.558 1.06l-1.916-1.497a1.36 1.36 0 0 0-1.798.11L19.54 6.709a1.36 1.36 0 0 0-.11 1.798l1.497 1.916a14.03 14.03 0 0 0-1.06 2.559l-2.413.296a1.36 1.36 0 0 0-1.194 1.349v4.887a1.36 1.36 0 0 0 1.194 1.349l2.413.297a14.03 14.03 0 0 0 1.06 2.558l-1.497 1.917a1.36 1.36 0 0 0 .11 1.797l3.456 3.456a1.36 1.36 0 0 0 1.797.11l1.917-1.497c.071.039.144.075.217.113a2.273 2.273 0 0 0 .8 3.51 3.444 3.444 0 0 0 3.429 3.178h4.402a3.444 3.444 0 0 0 3.43-3.178 2.274 2.274 0 0 0 .8-3.51c.072-.038.145-.074.216-.113l1.917 1.497a1.36 1.36 0 0 0 1.797-.11l3.457-3.456a1.36 1.36 0 0 0 .11-1.797l-1.497-1.917c.437-.815.792-1.672 1.06-2.558l2.413-.297a1.36 1.36 0 0 0 1.193-1.348v-4.888a1.36 1.36 0 0 0-1.192-1.35l-2.414-.296a14.033 14.033 0 0 0-1.06-2.558l1.497-1.916a1.36 1.36 0 0 0-.11-1.798ZM38.03 31.931h-9.343a.872.872 0 1 1 0-1.745h9.343a.873.873 0 0 1 0 1.745Zm-4.672-14.2a.762.762 0 1 1 0-1.524.762.762 0 0 1 0 1.524Zm4.235 10.82v.23h-1.156v-7.21l1.048-.584a1.71 1.71 0 1 0-.539-1.31l-1.39.776-.02.01c-.418.22-.505.54-.505.769v7.549h-.97v-9.763a2.168 2.168 0 1 0-1.406 0v9.763h-.97v-7.55c0-.228-.087-.548-.505-.768l-1.41-.786a1.713 1.713 0 1 0-.539 1.31l1.048.585v7.209h-1.156v-.229a2.143 2.143 0 0 0-.952-1.797 9.246 9.246 0 1 1 10.374 0 2.143 2.143 0 0 0-.952 1.797Zm.756-8.81a.305.305 0 1 1 .61 0 .305.305 0 0 1-.61 0Zm-9.981 0a.305.305 0 1 1-.61 0 .305.305 0 0 1 .61 0Zm7.192 15.154h-4.403a2.035 2.035 0 0 1-1.974-1.558h8.352a2.036 2.036 0 0 1-1.975 1.557Zm8.834-24.97a.703.703 0 0 0-.054.785c.562.97.993 2.01 1.281 3.092a.703.703 0 0 0 .594.518l2.834.348v4.804l-2.834.348a.703.703 0 0 0-.594.517 12.614 12.614 0 0 1-1.281 3.092.703.703 0 0 0 .054.786l1.758 2.252-3.397 3.396-2.251-1.758a.703.703 0 0 0-.785-.054c-.232.134-.469.26-.71.38a.72.72 0 0 1 .327-.514 10.652 10.652 0 1 0-11.954 0 .722.722 0 0 1 .327.514c-.24-.12-.478-.246-.71-.38a.703.703 0 0 0-.785.054l-2.252 1.758-3.396-3.396 1.758-2.252a.703.703 0 0 0 .054-.785 12.576 12.576 0 0 1-1.281-3.092.703.703 0 0 0-.594-.517l-2.835-.349v-4.804l2.835-.348a.703.703 0 0 0 .594-.518 12.617 12.617 0 0 1 1.28-3.092.703.703 0 0 0-.054-.785l-1.758-2.252 3.397-3.397 2.251 1.759a.703.703 0 0 0 .786.054c.97-.563 2.009-.994 3.092-1.282a.703.703 0 0 0 .517-.594l.348-2.834h4.805l.348 2.834a.703.703 0 0 0 .517.594 12.64 12.64 0 0 1 3.092 1.282.703.703 0 0 0 .785-.054l2.252-1.759 3.397 3.397-1.758 2.251ZM25.627 50.216h16.328a4.241 4.241 0 0 0 3.379-1.6l10.048-12.262a3.901 3.901 0 0 0-5.4-5.629l-7.991 7.51a3.419 3.419 0 0 0-2.713-1.338H28.8a14.025 14.025 0 0 0-16.906 2.596 2.277 2.277 0 0 0-2.885.272L4.104 44.67a2.277 2.277 0 0 0 0 3.216L15.58 59.361a2.277 2.277 0 0 0 3.216 0l4.904-4.904a2.275 2.275 0 0 0 .247-2.92l1.066-1.066a.82.82 0 0 1 .614-.254Zm-2.921 3.246-4.904 4.904a.871.871 0 0 1-1.228 0L5.1 46.892a.869.869 0 0 1 0-1.228l4.904-4.904a.869.869 0 0 1 1.227 0l11.476 11.475a.87.87 0 0 1 0 1.228Zm.271-2.944-10.06-10.06a12.616 12.616 0 0 1 15.352-2.247c.106.06.226.092.348.092h10.662a2.018 2.018 0 0 1 0 4.036h-8.163a.703.703 0 1 0 0 1.406h8.162a3.422 3.422 0 0 0 3.341-4.17l8.328-7.827a2.494 2.494 0 0 1 3.433 3.619.664.664 0 0 0-.059.064L44.246 47.726a2.841 2.841 0 0 1-2.291 1.085H25.627a2.23 2.23 0 0 0-1.608.666l-1.042 1.042Zm-6.035 1.659a1.89 1.89 0 1 0 0 3.779 1.89 1.89 0 0 0 0-3.78Zm0 2.372a.483.483 0 1 1 0-.965.483.483 0 0 1 0 .965Z"/></g><defs><clipPath id="a"><path fill="#fff" d="M0 0h60v60H0z"/></clipPath></defs></svg>