<svg xmlns="http://www.w3.org/2000/svg" width="60" height="60" fill="none"><path fill="#282928" d="m41.45 19.827 9.528-9.526a4.525 4.525 0 1 0-1.276-1.276l-9.527 9.527a15.25 15.25 0 0 0-9.271-3.844v-3.746a4.512 4.512 0 1 0-1.805 0v3.747a15.25 15.25 0 0 0-9.272 3.843l-9.526-9.527A4.525 4.525 0 1 0 9.025 10.3l9.527 9.526a15.25 15.25 0 0 0-3.844 9.272h-3.746a4.511 4.511 0 1 0 0 1.805h3.747a15.25 15.25 0 0 0 3.843 9.271l-9.527 9.527a4.525 4.525 0 1 0 1.276 1.276l9.526-9.527a15.25 15.25 0 0 0 9.272 3.844v3.745a4.511 4.511 0 1 0 1.805 0v-3.745a15.25 15.25 0 0 0 9.271-3.844l9.527 9.527a4.525 4.525 0 1 0 1.276-1.276l-9.527-9.527a15.25 15.25 0 0 0 3.844-9.271h3.745a4.512 4.512 0 1 0 0-1.805h-3.745a15.25 15.25 0 0 0-3.844-9.272ZM6.54 32.708a2.707 2.707 0 1 1 0-5.415 2.707 2.707 0 0 1 0 5.415Zm46.922-5.414a2.707 2.707 0 1 1 0 5.414 2.707 2.707 0 0 1 0-5.414Zm0-23.46a2.707 2.707 0 1 1 0 5.413 2.707 2.707 0 0 1 0-5.413ZM27.294 6.54a2.707 2.707 0 1 1 5.415 0 2.707 2.707 0 0 1-5.415 0ZM6.541 9.248a2.707 2.707 0 1 1 0-5.414 2.707 2.707 0 0 1 0 5.414Zm0 46.92a2.707 2.707 0 1 1 0-5.414 2.707 2.707 0 0 1 0 5.415Zm26.167-2.706a2.707 2.707 0 1 1-5.414 0 2.707 2.707 0 0 1 5.414 0Zm20.754-2.707a2.707 2.707 0 1 1 0 5.414 2.707 2.707 0 0 1 0-5.414Zm-23.46-7.219a13.535 13.535 0 1 1 13.534-13.535 13.55 13.55 0 0 1-13.535 13.535Z"/><path fill="#282928" d="m38.406 24.632-8.121-2.707a.903.903 0 0 0-.57 0l-8.121 2.707a.902.902 0 0 0-.617.856v9.024a.902.902 0 0 0 .617.856l8.12 2.707a.903.903 0 0 0 .571 0l8.121-2.707a.902.902 0 0 0 .617-.856v-9.024a.903.903 0 0 0-.617-.856ZM30 23.73l5.268 1.758L30 27.244l-5.268-1.756L30 23.73Zm-7.219 3.008 6.317 2.105v7.12l-6.317-2.105v-7.12Zm8.121 9.226v-7.118l6.316-2.105v7.12l-6.316 2.103Z"/></svg>