<svg xmlns="http://www.w3.org/2000/svg" width="60" height="60" fill="none"><path fill="#282928" d="M10.723 15.645a3.696 3.696 0 0 0 3.596-2.872h2.286c.216 0 .428.088.58.24l1.16 1.16a.817.817 0 0 0 1.16 0 .82.82 0 0 0 0-1.16l-1.16-1.16a2.443 2.443 0 0 0-1.74-.72H14.32a3.696 3.696 0 0 0-3.596-2.871 3.696 3.696 0 0 0-3.692 3.691 3.696 3.696 0 0 0 3.692 3.692Zm0-5.743c1.13 0 2.05.92 2.05 2.051 0 1.13-.92 2.05-2.05 2.05-1.131 0-2.051-.92-2.051-2.05s.92-2.05 2.05-2.05Zm8.443 35.104-1.98 1.981a.827.827 0 0 1-.582.24H14.32a3.696 3.696 0 0 0-3.596-2.871 3.696 3.696 0 0 0-3.692 3.69 3.696 3.696 0 0 0 3.692 3.692 3.696 3.696 0 0 0 3.596-2.87h2.285c.65 0 1.283-.263 1.741-.721l1.981-1.981a.82.82 0 1 0-1.16-1.16Zm-8.443 5.092a2.053 2.053 0 0 1-2.051-2.051c0-1.13.92-2.05 2.05-2.05 1.132 0 2.051.92 2.051 2.05s-.92 2.05-2.05 2.05ZM7.441 33.691A3.696 3.696 0 0 0 11.133 30a3.696 3.696 0 0 0-3.692-3.691A3.696 3.696 0 0 0 3.75 30a3.696 3.696 0 0 0 3.691 3.691Zm0-5.742c1.131 0 2.051.92 2.051 2.051 0 1.13-.92 2.05-2.05 2.05-1.131 0-2.051-.92-2.051-2.05s.92-2.05 2.05-2.05Zm33.633-13.535c.21 0 .42-.08.58-.24l1.16-1.16a.824.824 0 0 1 .58-.24h2.287a3.695 3.695 0 0 0 3.596 2.87 3.696 3.696 0 0 0 3.692-3.69 3.696 3.696 0 0 0-3.692-3.692 3.696 3.696 0 0 0-3.596 2.87h-2.287c-.657 0-1.275.257-1.74.722l-1.16 1.16a.82.82 0 0 0 .58 1.4Zm8.203-4.512c1.131 0 2.051.92 2.051 2.051 0 1.13-.92 2.05-2.05 2.05-1.132 0-2.051-.92-2.051-2.05s.92-2.05 2.05-2.05Zm0 34.453a3.696 3.696 0 0 0-3.596 2.872h-2.285a.827.827 0 0 1-.581-.24l-1.981-1.981a.82.82 0 1 0-1.16 1.16l1.98 1.98a2.478 2.478 0 0 0 1.742.721h2.285a3.696 3.696 0 0 0 3.596 2.871 3.696 3.696 0 0 0 3.692-3.691 3.696 3.696 0 0 0-3.692-3.691Zm0 5.743c-1.13 0-2.05-.92-2.05-2.051 0-1.13.92-2.05 2.05-2.05 1.131 0 2.051.92 2.051 2.05s-.92 2.05-2.05 2.05ZM48.867 30a3.696 3.696 0 0 0 3.692 3.691A3.696 3.696 0 0 0 56.25 30a3.696 3.696 0 0 0-3.691-3.691A3.696 3.696 0 0 0 48.867 30Zm5.742 0c0 1.13-.92 2.05-2.05 2.05-1.131 0-2.051-.92-2.051-2.05s.92-2.05 2.05-2.05c1.131 0 2.051.92 2.051 2.05Zm-41.425-8.885v7.718c0 6.07 3.247 11.755 8.476 14.838l7.923 4.673a.823.823 0 0 0 .834 0l7.923-4.673a17.295 17.295 0 0 0 8.476-14.838v-7.718c0-.887-.48-1.708-1.251-2.143l-13.75-7.757a3.65 3.65 0 0 0-3.628 0l-13.752 7.757a2.464 2.464 0 0 0-1.251 2.143Zm1.64 0c0-.296.16-.57.417-.714l13.751-7.757a2.07 2.07 0 0 1 1.008-.28c.335 0 .683.097 1.008.28l13.75 7.757a.821.821 0 0 1 .418.714v7.718a15.648 15.648 0 0 1-7.669 13.425L30 46.685l-7.507-4.427a15.649 15.649 0 0 1-7.669-13.425v-7.718Z"/><path fill="#282928" d="M25.898 40.664h8.204a4.927 4.927 0 0 0 4.922-4.922V28.77a3.285 3.285 0 0 0-3.282-3.282h-.41v-1.64A5.338 5.338 0 0 0 30 18.516a5.338 5.338 0 0 0-5.332 5.332v1.64h-.41a3.285 3.285 0 0 0-3.281 3.282v6.972a4.927 4.927 0 0 0 4.921 4.922Zm.41-16.816A3.696 3.696 0 0 1 30 20.156a3.696 3.696 0 0 1 3.691 3.692v1.64H26.31v-1.64Zm-3.69 4.922c0-.905.735-1.641 1.64-1.641h11.484c.905 0 1.64.736 1.64 1.64v6.973a3.285 3.285 0 0 1-3.28 3.281h-8.203a3.285 3.285 0 0 1-3.282-3.28v-6.974Z"/><path fill="#282928" d="M29.18 34.368v2.194a.82.82 0 0 0 1.64 0v-2.194a2.463 2.463 0 0 0 1.64-2.317A2.463 2.463 0 0 0 30 29.59a2.463 2.463 0 0 0-2.46 2.46 2.459 2.459 0 0 0 1.64 2.318ZM30 31.23a.821.821 0 1 1-.002 1.643A.821.821 0 0 1 30 31.23Z"/></svg>