<svg xmlns="http://www.w3.org/2000/svg" width="60" height="60" fill="none"><path fill="#282928" d="M3.928 26.265a.938.938 0 0 1 .577-1.193c14.78-5.147 28-12.391 39.322-21.54h-2.904a.938.938 0 0 1 0-1.876l5.511.002a.937.937 0 0 1 .919 1.122l-1.09 5.403a.938.938 0 1 1-1.838-.371L44.992 5c-11.487 9.28-24.891 16.625-39.87 21.841a.937.937 0 0 1-1.194-.576Zm55.134 14.076v4.069a.937.937 0 0 1-.6.875l-2.04.785a13.74 13.74 0 0 1-1.293 3.117l.888 2a.938.938 0 0 1-.193 1.043l-2.878 2.877a.938.938 0 0 1-1.043.194l-1.999-.888a13.73 13.73 0 0 1-3.117 1.292l-.785 2.04a.937.937 0 0 1-.875.6h-4.07a.937.937 0 0 1-.874-.6l-.786-2.04a13.73 13.73 0 0 1-3.116-1.292l-2 .888a.938.938 0 0 1-1.043-.194l-2.877-2.877a.937.937 0 0 1-.194-1.044l.888-1.999a13.732 13.732 0 0 1-1.13-2.575H1.876a.938.938 0 0 1 0-1.875H4.6V32.474c0-.518.42-.938.938-.938h6.88c.518 0 .938.42.938.938v12.263h4.021v-19.18c0-.517.42-.937.938-.937h6.88c.518 0 .938.42.938.938v19.179h1.05a.93.93 0 0 1-.061-.327v-4.069c0-.388.239-.736.6-.875l2.04-.785a13.74 13.74 0 0 1 1.293-3.117l-.888-2a.935.935 0 0 1-.013-.724V18.335c0-.517.42-.937.938-.937h6.88c.518 0 .938.42.938.937v10.857c.162-.051.324-.1.488-.146l.785-2.04c.14-.362.487-.6.875-.6h1.873V11.838c0-.518.42-.938.937-.938h6.88c.519 0 .938.42.938.938v17.708l.217-.097a.937.937 0 0 1 1.044.194l2.877 2.877a.94.94 0 0 1 .194 1.044l-.888 1.999a13.74 13.74 0 0 1 1.292 3.117l2.04.785c.362.14.6.487.6.875ZM44.806 26.405h.322c.387 0 .735.239.874.6l.786 2.041c1.054.292 2.067.709 3.024 1.242V12.776h-5.006v13.63ZM32.03 19.273v11.58l1.209-1.209a.937.937 0 0 1 1.043-.194l2 .888c.247-.14.499-.272.754-.397V19.273H32.03ZM19.252 44.737h5.006V26.495h-5.006v18.242Zm-12.777 0h5.006V33.41H6.475v11.326Zm50.712-3.752-1.89-.728a.937.937 0 0 1-.575-.657 11.873 11.873 0 0 0-1.444-3.484.938.938 0 0 1-.058-.872l.822-1.852-1.966-1.967-1.853.823a.937.937 0 0 1-.872-.058 11.875 11.875 0 0 0-3.483-1.444.937.937 0 0 1-.657-.575l-.728-1.89h-2.781l-.728 1.89a.937.937 0 0 1-.658.575c-1.23.293-2.402.779-3.482 1.444a.937.937 0 0 1-.872.058l-1.853-.823-1.967 1.967.823 1.853a.938.938 0 0 1-.059.872 11.876 11.876 0 0 0-1.444 3.482.937.937 0 0 1-.575.658l-1.89.728v2.781l1.89.728c.288.11.503.357.575.657a11.872 11.872 0 0 0 1.444 3.484.94.94 0 0 1 .059.872l-.823 1.852 1.967 1.967 1.853-.823a.936.936 0 0 1 .872.059 11.87 11.87 0 0 0 3.482 1.443.94.94 0 0 1 .658.575l.727 1.89h2.782l.727-1.89a.937.937 0 0 1 .658-.574 11.87 11.87 0 0 0 3.483-1.444.938.938 0 0 1 .872-.059l1.852.823 1.967-1.967-.823-1.853a.938.938 0 0 1 .059-.872 11.88 11.88 0 0 0 1.444-3.482.937.937 0 0 1 .575-.658l1.89-.728v-2.781Zm-4.976 1.39c0 5.029-4.09 9.12-9.119 9.12-5.028 0-9.119-4.091-9.119-9.12 0-5.028 4.091-9.118 9.12-9.118 5.027 0 9.118 4.09 9.118 9.119Zm-1.875 0c0-3.994-3.25-7.243-7.244-7.243-3.994 0-7.244 3.25-7.244 7.244 0 3.994 3.25 7.243 7.244 7.243 3.995 0 7.244-3.25 7.244-7.243Zm-3.756-.917-2.55-.015V38.45a.938.938 0 0 0-1.875 0v3.927c0 .515.416.934.932.937l3.483.02h.005a.938.938 0 0 0 .005-1.875Z"/></svg>