<svg xmlns="http://www.w3.org/2000/svg" width="60" height="60" fill="none"><path fill="#282928" fill-rule="evenodd" d="M33.862 50.276H32.08c-3.814 0-6.908-3.078-6.908-6.866 0-3.787 3.094-6.866 6.908-6.866.087 0 .174.001.26.005a8.641 8.641 0 0 1-.037-.81c0-4.764 3.89-8.635 8.69-8.635 4.685 0 8.508 3.693 8.682 8.305.27-.03.546-.044.824-.044 4.142 0 7.501 3.342 7.501 7.455 0 4.113-3.359 7.456-7.501 7.456H49.31v6.759a.966.966 0 0 1-.965.965H34.828a.966.966 0 0 1-.966-.965v-6.759Zm15.448-1.931h1.19c3.072 0 5.57-2.474 5.57-5.525 0-3.05-2.498-5.524-5.57-5.524-.542 0-1.066.076-1.561.219a.965.965 0 0 1-1.229-1.033 6.75 6.75 0 0 0 .042-.743c0-3.702-3.03-6.704-6.759-6.704-3.728 0-6.758 3.002-6.758 6.704 0 .587.075 1.157.218 1.7a.964.964 0 0 1-1.165 1.182 5.019 5.019 0 0 0-1.207-.146c-2.745 0-4.977 2.21-4.977 4.935 0 2.726 2.232 4.935 4.977 4.935h1.782v-6.759c0-.533.433-.965.966-.965h5.793a.966.966 0 0 1 0 1.93h-4.828v5.794H47.38v-5.793h-2.896a.966.966 0 0 1 0-1.931h3.862c.533 0 .965.432.965.965v6.759Zm-13.517 1.931v5.793H47.38v-5.793H35.793Zm3.862 3.862a.966.966 0 0 1 0-1.93h3.862a.966.966 0 0 1 0 1.93h-3.862Zm0-7.724a.966.966 0 0 1 0-1.931h3.862a.966.966 0 0 1 0 1.931h-3.862ZM10.69 30H8.907C5.094 30 2 26.922 2 23.134c0-3.787 3.094-6.865 6.907-6.865.087 0 .174 0 .261.004a8.64 8.64 0 0 1-.038-.81c0-4.763 3.891-8.635 8.69-8.635 4.726 0 8.574 3.757 8.687 8.425a.966.966 0 0 1-.172 1.854 5.748 5.748 0 0 0-.57.132.965.965 0 0 1-1.228-1.033c.027-.245.042-.492.042-.743 0-3.701-3.031-6.704-6.759-6.704-3.729 0-6.759 3.002-6.759 6.704 0 .587.076 1.157.219 1.7a.964.964 0 0 1-1.166 1.182 5.019 5.019 0 0 0-1.207-.145c-2.745 0-4.976 2.209-4.976 4.934 0 2.726 2.231 4.935 4.976 4.935h1.783v-6.758c0-.534.432-.966.965-.966h13.517c.533 0 .966.433.966.966v6.758h1.188c3.072 0 5.57-2.473 5.57-5.525 0-2.246-1.354-4.18-3.294-5.043a.965.965 0 0 1 .786-1.764c2.617 1.165 4.44 3.777 4.44 6.807 0 4.113-3.36 7.456-7.502 7.456h-1.188v6.759a.966.966 0 0 1-.966.965H11.655a.966.966 0 0 1-.965-.965V30Zm13.517-1.93v-5.794H12.62v5.793h11.586ZM12.62 30v5.793h11.586V30H12.62Zm3.862 3.862a.966.966 0 0 1 0-1.93h3.862a.966.966 0 0 1 0 1.93h-3.862Zm0-7.724a.966.966 0 0 1 0-1.93h3.862a.966.966 0 0 1 0 1.93h-3.862Zm41.072-1.946-6.353 4.063a.964.964 0 0 1-1.414-.448l-2.85-6.982a.965.965 0 0 1 1.185-1.285l1.492.473a11.557 11.557 0 0 0-.379-3.626 11.583 11.583 0 0 0-7.69-8.048 11.58 11.58 0 0 0-10.944 2.165.966.966 0 0 1-1.331-.09l-2.613-2.848a.966.966 0 0 1 .085-1.386C31.158 2.41 37.361.934 43.296 2.816c6.712 2.128 11.23 7.963 12.01 14.532a17.217 17.217 0 0 1-.05 4.454l2.07.657a.964.964 0 0 1 .229 1.733Zm-2.777-.516-.904-.287a.965.965 0 0 1-.656-1.102c.305-1.584.353-3.17.17-4.711-.694-5.84-4.708-11.027-10.675-12.919-4.935-1.565-10.078-.517-13.933 2.366l1.312 1.43a13.502 13.502 0 0 1 12.037-1.955c4.558 1.445 7.814 5.087 8.971 9.388a13.46 13.46 0 0 1 .306 5.553.969.969 0 0 1-1.247.772l-.655-.207 1.633 4 3.641-2.328Z" clip-rule="evenodd"/></svg>