<svg xmlns="http://www.w3.org/2000/svg" width="60" height="60" fill="none"><path fill="#282928" d="M58.036 37.102a.937.937 0 0 0-.848-.54h-4.687V26.25a.938.938 0 0 0-.938-.938h-7.5a.937.937 0 0 0-.937.938v10.313h-4.688a.938.938 0 0 0-.72 1.537l9.374 11.25a.939.939 0 0 0 1.442 0l9.375-11.25a.937.937 0 0 0 .127-.998ZM47.813 47.286l-7.373-8.849h3.623a.938.938 0 0 0 .938-.937V27.187h5.625V37.5a.938.938 0 0 0 .937.938h3.623l-7.373 8.848ZM13.342 25.913a.935.935 0 0 0 1.44 0l9.375-11.25a.938.938 0 0 0-.72-1.538H18.75V2.812a.938.938 0 0 0-.938-.937h-7.5a.937.937 0 0 0-.937.938v10.312H4.687a.938.938 0 0 0-.72 1.537l9.375 11.25ZM10.312 15a.938.938 0 0 0 .938-.938V3.75h5.625v10.313a.937.937 0 0 0 .937.937h3.624l-7.374 8.848L6.69 15h3.623ZM30 16.875a10.312 10.312 0 1 0 10.313 10.313A10.319 10.319 0 0 0 30 16.874Zm0 18.75a8.437 8.437 0 1 1 8.438-8.438A8.45 8.45 0 0 1 30 35.626Z"/><path fill="#282928" d="M32.813 25.313v-.938a.938.938 0 0 0-.938-.938h-3.75a.938.938 0 0 0-.938.938v.938a.938.938 0 0 0 .938.937h3.75a2.821 2.821 0 0 1 2.813 2.813V30a2.821 2.821 0 0 1-2.813 2.813h-.938v.937h-1.875v-.938h-.937A2.821 2.821 0 0 1 25.312 30h1.875a.938.938 0 0 0 .938.938h3.75a.938.938 0 0 0 .938-.938v-.938a.938.938 0 0 0-.938-.937h-3.75a2.821 2.821 0 0 1-2.813-2.813v-.937a2.821 2.821 0 0 1 2.813-2.813h.938v-.937h1.875v.938h.937a2.821 2.821 0 0 1 2.813 2.812v.938h-1.876Zm14.84 26.409A3.749 3.749 0 0 0 45 50.625h-8.184c.06-.255.09-.516.093-.778a3.758 3.758 0 0 0-1.575-3.066l-12.272-9.093a.932.932 0 0 0-.693-.179l-6.497.928H9.375V37.5a.937.937 0 0 0-.938-.938H2.814a.938.938 0 0 0-.938.938v15a.937.937 0 0 0 .938.938h5.624a.938.938 0 0 0 .938-.938v-.938h5.306l8.185 6.366a.959.959 0 0 0 .572.197H45a3.75 3.75 0 0 0 2.653-6.403ZM7.5 51.562H3.75V38.438H7.5v13.124ZM45 56.25H23.756l-8.184-6.366a.901.901 0 0 0-.572-.197H9.375v-9.374h6.563a.62.62 0 0 0 .13-.01l6.179-.881 11.99 8.878a1.863 1.863 0 0 1 .797 1.547c.002.383-.116.756-.337 1.069a1.875 1.875 0 0 1-2.606.459l-7.529-5.269-1.068 1.538 7.518 5.269a3.755 3.755 0 0 0 4.782-.413H45a1.89 1.89 0 0 1 1.875 1.875A1.88 1.88 0 0 1 45 56.25Z"/></svg>