<svg xmlns="http://www.w3.org/2000/svg" width="60" height="60" fill="none"><path fill="#282928" d="M1.95 40.882a.937.937 0 0 0 .737.842l3.267.705c.115.557.262 1.106.439 1.642l-2.473 2.24a.937.937 0 0 0-.217 1.099c.452.95.955 1.829 1.496 2.61a.937.937 0 0 0 1.059.36l3.175-1.023c.38.425.784.83 1.21 1.21L9.62 53.741a.937.937 0 0 0 .359 1.058c.782.54 1.66 1.044 2.61 1.496a.938.938 0 0 0 1.098-.216l2.241-2.473c.537.176 1.087.323 1.644.438l.705 3.267a.936.936 0 0 0 .84.737c.5.04.999.075 1.508.075.51 0 1.009-.035 1.508-.075a.937.937 0 0 0 .841-.736l.705-3.268a14.822 14.822 0 0 0 1.644-.438l2.24 2.473a.936.936 0 0 0 1.098.216 18.84 18.84 0 0 0 2.611-1.496.938.938 0 0 0 .36-1.058l-1.024-3.176c.426-.38.83-.784 1.21-1.208l3.175 1.023a.936.936 0 0 0 1.059-.36 18.75 18.75 0 0 0 1.496-2.61.937.937 0 0 0-.217-1.098l-2.473-2.24c.176-.538.324-1.087.439-1.644l3.267-.705a.939.939 0 0 0 .737-.841c.038-.5.074-1 .074-1.509 0-.509-.036-1.008-.075-1.507a.937.937 0 0 0-.737-.842l-3.267-.705a14.816 14.816 0 0 0-.439-1.643l2.473-2.241a.937.937 0 0 0 .217-1.098 18.846 18.846 0 0 0-1.496-2.61.936.936 0 0 0-1.059-.36l-3.175 1.023c-.38-.426-.784-.83-1.21-1.21l1.023-3.175a.937.937 0 0 0-.359-1.058 18.74 18.74 0 0 0-2.61-1.496.935.935 0 0 0-1.099.216l-2.24 2.473a15.079 15.079 0 0 0-1.644-.438l-.705-3.268a.939.939 0 0 0-.84-.737 19.062 19.062 0 0 0-3.016 0 .937.937 0 0 0-.842.737l-.705 3.268c-.557.115-1.107.261-1.643.438l-2.24-2.473a.937.937 0 0 0-1.098-.216c-.95.451-1.83.955-2.611 1.496a.938.938 0 0 0-.36 1.058l1.024 3.176c-.426.38-.83.783-1.21 1.209l-3.174-1.023a.935.935 0 0 0-1.059.36c-.54.781-1.044 1.66-1.496 2.61a.937.937 0 0 0 .217 1.098l2.473 2.24a15.09 15.09 0 0 0-.439 1.644l-3.267.705a.939.939 0 0 0-.737.84c-.04.5-.075 1-.075 1.51 0 .508.036 1.008.075 1.507Zm1.82-2.172 3.19-.69a.938.938 0 0 0 .727-.765c.14-.865.367-1.713.674-2.523a.937.937 0 0 0-.248-1.027l-2.408-2.182c.21-.402.43-.788.656-1.152l3.09.995a.94.94 0 0 0 1.013-.298 13.18 13.18 0 0 1 1.855-1.854.937.937 0 0 0 .298-1.014l-.996-3.09c.365-.227.75-.447 1.152-.656l2.183 2.41a.939.939 0 0 0 1.027.247 13.01 13.01 0 0 1 2.522-.674.938.938 0 0 0 .766-.728l.688-3.189c.442-.023.891-.024 1.33 0l.69 3.19a.938.938 0 0 0 .766.727c.864.14 1.712.367 2.522.674a.936.936 0 0 0 1.027-.248l2.183-2.408c.402.21.787.43 1.152.656l-.996 3.09a.938.938 0 0 0 .298 1.014 13.18 13.18 0 0 1 1.855 1.854.934.934 0 0 0 1.013.298l3.09-.995c.228.364.447.749.656 1.15l-2.41 2.183a.938.938 0 0 0-.247 1.028c.307.808.534 1.656.675 2.522.061.38.35.684.727.766l3.19.688c.012.22.02.442.02.665 0 .223-.008.446-.02.665l-3.19.69a.938.938 0 0 0-.727.765c-.14.864-.367 1.713-.674 2.523a.936.936 0 0 0 .248 1.026l2.408 2.183c-.21.402-.43.787-.656 1.152l-3.09-.995a.933.933 0 0 0-1.013.298 13.267 13.267 0 0 1-1.855 1.854.937.937 0 0 0-.298 1.013l.996 3.09c-.365.227-.75.447-1.152.656l-2.182-2.41a.94.94 0 0 0-1.028-.247c-.808.306-1.656.533-2.521.674a.938.938 0 0 0-.766.727l-.688 3.19c-.442.023-.891.024-1.33 0l-.69-3.19a.938.938 0 0 0-.766-.727 13.073 13.073 0 0 1-2.523-.674.935.935 0 0 0-1.026.247l-2.183 2.409c-.402-.21-.787-.43-1.152-.656l.996-3.09a.939.939 0 0 0-.298-1.014 13.185 13.185 0 0 1-1.855-1.854.936.936 0 0 0-1.013-.298l-3.09.995a16.363 16.363 0 0 1-.656-1.152l2.409-2.182a.938.938 0 0 0 .248-1.028 13.008 13.008 0 0 1-.675-2.522.938.938 0 0 0-.727-.766L3.77 40.04a11.992 11.992 0 0 1 0-1.33Zm47.06-23.49a.937.937 0 0 0 .65-.787c.056-.473.083-.902.083-1.309 0-.406-.027-.835-.082-1.308a.937.937 0 0 0-.65-.787l-2.6-.816a8.16 8.16 0 0 0-.258-.627l1.26-2.414a.94.94 0 0 0-.096-1.015 11.351 11.351 0 0 0-1.855-1.855.94.94 0 0 0-1.015-.097l-2.416 1.26a8.53 8.53 0 0 0-.627-.258l-.816-2.6a.937.937 0 0 0-.787-.649 10.37 10.37 0 0 0-2.618 0 .937.937 0 0 0-.787.65l-.816 2.6a8.15 8.15 0 0 0-.627.258l-2.414-1.26a.942.942 0 0 0-1.015.096 11.345 11.345 0 0 0-1.855 1.855.938.938 0 0 0-.097 1.015l1.26 2.414c-.095.205-.18.414-.259.627l-2.6.816a.937.937 0 0 0-.649.787 11.27 11.27 0 0 0-.081 1.308c0 .407.026.836.081 1.31a.937.937 0 0 0 .65.786l2.6.816c.077.213.163.422.258.627l-1.26 2.414a.94.94 0 0 0 .096 1.015c.543.686 1.167 1.31 1.855 1.855a.94.94 0 0 0 1.015.097l2.415-1.26c.204.095.413.18.626.259l.816 2.6c.11.352.42.607.787.649.475.056.904.082 1.31.082.407 0 .836-.026 1.31-.081a.937.937 0 0 0 .786-.65l.816-2.6c.213-.077.422-.163.627-.258l2.414 1.26a.938.938 0 0 0 1.015-.096 11.353 11.353 0 0 0 1.855-1.855.938.938 0 0 0 .097-1.015l-1.26-2.415c.095-.204.18-.413.259-.626l2.6-.818Zm-3.618-.829a.94.94 0 0 0-.617.625 6.605 6.605 0 0 1-.5 1.214.935.935 0 0 0-.007.877l1.19 2.28a9.578 9.578 0 0 1-.703.703l-2.28-1.19a.937.937 0 0 0-.878.006 6.568 6.568 0 0 1-1.213.5.94.94 0 0 0-.625.618l-.772 2.46c-.343.02-.645.02-.989 0l-.772-2.46a.94.94 0 0 0-.625-.617 6.513 6.513 0 0 1-1.213-.5.937.937 0 0 0-.878-.006l-2.28 1.19a9.539 9.539 0 0 1-.703-.704l1.19-2.28a.938.938 0 0 0-.006-.877 6.605 6.605 0 0 1-.5-1.214.94.94 0 0 0-.618-.625l-2.46-.772a7.56 7.56 0 0 1 0-.989l2.46-.772a.94.94 0 0 0 .617-.625 6.52 6.52 0 0 1 .5-1.213.937.937 0 0 0 .007-.878l-1.19-2.28c.222-.247.457-.482.703-.703l2.28 1.19a.94.94 0 0 0 .878-.006 6.568 6.568 0 0 1 1.213-.5.94.94 0 0 0 .625-.618l.772-2.46c.343-.02.645-.02.989 0l.772 2.46a.94.94 0 0 0 .625.617c.425.128.833.297 1.213.501.273.147.602.15.878.006l2.28-1.19c.247.222.482.457.703.703l-1.19 2.28a.938.938 0 0 0 .006.878c.204.381.373.789.5 1.213a.94.94 0 0 0 .618.625l2.46.772a7.558 7.558 0 0 1 0 .989l-2.46.772Zm10.221 18.387-1.61-.572a7.622 7.622 0 0 0-.316-.766l.732-1.542c.153-.32.11-.7-.109-.979a9.429 9.429 0 0 0-1.612-1.612.938.938 0 0 0-.98-.109l-1.542.732a7.504 7.504 0 0 0-.765-.315l-.573-1.61a.94.94 0 0 0-.77-.617 8.64 8.64 0 0 0-2.276 0 .936.936 0 0 0-.77.617l-.573 1.61a7.6 7.6 0 0 0-.766.316l-1.542-.732a.938.938 0 0 0-.978.109 9.436 9.436 0 0 0-1.613 1.611.94.94 0 0 0-.109.98l.732 1.543a7.504 7.504 0 0 0-.315.765l-1.61.573a.94.94 0 0 0-.617.77 9.198 9.198 0 0 0-.076 1.137c0 .349.024.72.075 1.137a.936.936 0 0 0 .617.77l1.61.572c.092.262.197.518.316.766l-.732 1.543a.933.933 0 0 0 .109.978 9.436 9.436 0 0 0 1.612 1.613c.279.218.66.26.98.109l1.542-.733c.248.118.504.224.765.315l.573 1.611a.94.94 0 0 0 .77.617c.418.052.79.077 1.138.077.349 0 .72-.025 1.137-.075a.937.937 0 0 0 .77-.617l.573-1.61a7.61 7.61 0 0 0 .766-.317l1.542.733c.32.152.7.111.979-.11a9.44 9.44 0 0 0 1.612-1.61.94.94 0 0 0 .109-.98l-.732-1.544c.118-.247.224-.503.315-.765l1.61-.572a.94.94 0 0 0 .617-.771c.053-.417.077-.788.077-1.137s-.024-.72-.075-1.137a.938.938 0 0 0-.617-.772Zm-1.192 2.251-1.486.528a.938.938 0 0 0-.59.633 5.58 5.58 0 0 1-.52 1.262.94.94 0 0 0-.031.864l.673 1.418c-.156.17-.319.334-.489.489l-1.418-.673a.94.94 0 0 0-.863.03 5.584 5.584 0 0 1-1.262.52.94.94 0 0 0-.634.59l-.528 1.486a6.402 6.402 0 0 1-.684 0l-.528-1.486a.937.937 0 0 0-.633-.59 5.582 5.582 0 0 1-1.263-.52.945.945 0 0 0-.863-.03l-1.419.673a7.5 7.5 0 0 1-.488-.489l.673-1.418a.937.937 0 0 0-.03-.864 5.58 5.58 0 0 1-.521-1.261.941.941 0 0 0-.59-.634l-1.486-.528a5.173 5.173 0 0 1-.002-.684l1.486-.53a.935.935 0 0 0 .59-.632c.123-.446.298-.87.52-1.263a.94.94 0 0 0 .031-.863l-.673-1.419c.156-.17.319-.333.489-.488l1.418.673c.276.131.598.12.863-.03a5.584 5.584 0 0 1 1.262-.521.941.941 0 0 0 .634-.59l.528-1.486c.227-.012.457-.012.684 0l.528 1.486a.937.937 0 0 0 .633.59c.445.123.87.298 1.263.52a.934.934 0 0 0 .863.031l1.419-.673c.17.155.333.319.488.488l-.673 1.419a.937.937 0 0 0 .03.863c.224.394.398.819.521 1.262.082.294.302.53.59.634l1.486.528a5.219 5.219 0 0 1 .002.685Z"/><path fill="#282928" d="M20.625 49.688c5.686 0 10.313-4.627 10.313-10.313 0-5.686-4.627-10.313-10.313-10.313-5.686 0-10.313 4.627-10.313 10.313 0 5.686 4.627 10.313 10.313 10.313Zm0-18.75c4.652 0 8.438 3.785 8.438 8.437 0 4.652-3.786 8.438-8.438 8.438-4.652 0-8.438-3.786-8.438-8.438 0-4.652 3.786-8.438 8.438-8.438ZM1.896 23.775l1.44 1.2a22.454 22.454 0 0 1 17.29-8.1c.477 0 .953.028 1.43.058L20.9 18.088l1.325 1.325 2.813-2.812a.937.937 0 0 0 0-1.326l-2.813-2.812-1.325 1.326 1.274 1.274a24.413 24.413 0 0 0-1.55-.062 24.326 24.326 0 0 0-18.729 8.774ZM40.313 8.438a4.693 4.693 0 0 0-4.688 4.687 4.693 4.693 0 0 0 4.688 4.688A4.693 4.693 0 0 0 45 13.125a4.693 4.693 0 0 0-4.688-4.688Zm0 7.5a2.816 2.816 0 0 1-2.813-2.813 2.816 2.816 0 0 1 2.813-2.813 2.816 2.816 0 0 1 2.812 2.813 2.816 2.816 0 0 1-2.813 2.813Zm8.437 15a3.754 3.754 0 0 0-3.75 3.75 3.754 3.754 0 0 0 3.75 3.75 3.754 3.754 0 0 0 3.75-3.75 3.754 3.754 0 0 0-3.75-3.75Zm0 5.625a1.877 1.877 0 0 1-1.875-1.876 1.875 1.875 0 1 1 1.875 1.876Zm8.621-31.857-4.688-.937a.935.935 0 0 0-1.103.735l-.937 4.687 1.838.369.505-2.524a14.066 14.066 0 0 1 1.389 6.09c0 3.232-1.067 6.271-3.085 8.788l1.464 1.173a15.983 15.983 0 0 0 3.496-9.962c0-2.455-.567-4.876-1.647-7.06l2.4.48.368-1.839Z"/></svg>