<svg xmlns="http://www.w3.org/2000/svg" width="60" height="60" fill="none"><path fill="#282928" fill-rule="evenodd" d="M47.926 54.15h-35.85a.704.704 0 0 1-.703-.703V6.553c0-.388.315-.703.703-.703h35.85c.388 0 .703.315.703.703V30.71a.703.703 0 0 1-1.106.575l-1.291-.904-2.013 1.408a.705.705 0 0 1-.464.124L41.31 31.7l-1.039 2.225a.7.7 0 0 1-.34.34l-2.226 1.038.214 2.447a.696.696 0 0 1-.124.465l-1.408 2.012 1.408 2.012c.095.134.14.3.124.464l-.214 2.447 2.227 1.038c.15.069.27.19.34.34l1.038 2.225 2.447-.213a.706.706 0 0 1 .463.124l2.013 1.409 1.291-.905a.705.705 0 0 1 1.106.575v3.705a.703.703 0 0 1-.703.702Zm-35.148-1.405h34.446v-1.653l-.59.414a.706.706 0 0 1-.806 0l-2.205-1.545-2.682.235a.702.702 0 0 1-.698-.403l-1.138-2.44-2.44-1.138a.704.704 0 0 1-.404-.699l.236-2.68-1.545-2.206a.701.701 0 0 1 0-.807l1.545-2.205-.236-2.683a.702.702 0 0 1 .403-.697l2.441-1.138 1.138-2.44a.705.705 0 0 1 .698-.404l2.682.236 2.206-1.545a.705.705 0 0 1 .806 0l.59.414V7.255H12.777v45.49Z" clip-rule="evenodd"/><path fill="#282928" fill-rule="evenodd" d="M44.77 17.837H15.232a.702.702 0 0 1-.702-.701v-7.008c0-.388.314-.702.702-.702H44.77c.388 0 .702.314.702.702v7.008a.702.702 0 0 1-.702.701Zm-28.834-1.405h28.13v-5.601h-28.13v5.601Zm4.812 12.723a4.75 4.75 0 0 1-2.365-.635 4.742 4.742 0 0 1-1.733-6.47 4.754 4.754 0 0 1 4.106-2.37c.826 0 1.644.22 2.365.635a4.71 4.71 0 0 1 2.207 2.877 4.707 4.707 0 0 1-.474 3.594 4.753 4.753 0 0 1-4.106 2.37Zm.008-8.07a3.347 3.347 0 0 0-2.89 1.666 3.335 3.335 0 0 0 2.882 5c1.19 0 2.296-.64 2.89-1.667a3.308 3.308 0 0 0 .332-2.529 3.336 3.336 0 0 0-3.214-2.47Z" clip-rule="evenodd"/><path fill="#282928" fill-rule="evenodd" d="M19.506 26.083c-.028 0-.055-.002-.082-.004a.706.706 0 0 1-.528-.347l-.839-1.454a.703.703 0 1 1 1.217-.702l.488.846 2.726-1.574a.703.703 0 0 1 .702 1.216l-3.334 1.924a.69.69 0 0 1-.35.095Zm23.777.737H29.877a.704.704 0 0 1 0-1.406h13.406a.702.702 0 1 1 0 1.405Zm0-3.397H29.877a.703.703 0 1 1 0-1.405h13.406a.703.703 0 0 1 0 1.405ZM20.749 39.865a4.74 4.74 0 0 1-2.365-.635 4.702 4.702 0 0 1-2.207-2.876 4.701 4.701 0 0 1 .474-3.594 4.753 4.753 0 0 1 4.106-2.37c.827 0 1.644.22 2.364.636a4.707 4.707 0 0 1 2.208 2.877 4.708 4.708 0 0 1-.474 3.594 4.752 4.752 0 0 1-4.106 2.368Zm.008-8.07a3.347 3.347 0 0 0-2.89 1.667 3.306 3.306 0 0 0-.333 2.528c.231.86.782 1.578 1.553 2.024a3.325 3.325 0 0 0 4.552-1.22c.445-.77.563-1.669.332-2.528a3.336 3.336 0 0 0-3.214-2.47Z" clip-rule="evenodd"/><path fill="#282928" fill-rule="evenodd" d="M19.506 36.793a.7.7 0 0 1-.593-.326c-.133-.21 0 0-.001 0v-.002h-.002v-.001a.22.22 0 0 1-.012-.023l-.84-1.454a.703.703 0 0 1 1.216-.703l.488.846 2.725-1.572a.702.702 0 1 1 .703 1.216l-3.334 1.924a.774.774 0 0 1-.104.05h-.001a.666.666 0 0 1-.245.045Zm17.624.734h-7.253a.703.703 0 1 1 0-1.404h7.254a.703.703 0 1 1 0 1.404Zm2.595-3.393h-9.848a.704.704 0 0 1 0-1.406h9.848a.702.702 0 1 1 0 1.406Zm-18.977 16.44a4.738 4.738 0 0 1-4.098-7.106 4.735 4.735 0 0 1 6.471-1.733 4.703 4.703 0 0 1 2.207 2.876 4.701 4.701 0 0 1-.473 3.594 4.753 4.753 0 0 1-4.107 2.37Zm.009-8.07c-1.19 0-2.296.638-2.89 1.667a3.305 3.305 0 0 0-.333 2.528 3.336 3.336 0 0 0 3.215 2.47 3.347 3.347 0 0 0 2.89-1.666 3.308 3.308 0 0 0 .332-2.53 3.313 3.313 0 0 0-1.553-2.022 3.325 3.325 0 0 0-1.661-.447Z" clip-rule="evenodd"/><path fill="#282928" fill-rule="evenodd" d="M19.506 47.501a.701.701 0 0 1-.61-.351l-.839-1.455a.702.702 0 1 1 1.217-.702l.488.847 2.725-1.574a.703.703 0 0 1 .703 1.216l-3.334 1.925a.701.701 0 0 1-.35.094Zm20.457.736H29.877a.703.703 0 1 1 0-1.405h10.086a.703.703 0 0 1 0 1.405Zm-2.877-3.394h-7.209a.703.703 0 1 1 0-1.406h7.21a.703.703 0 0 1 0 1.406ZM33.8 59.97a.706.706 0 0 1-.35-.093l-10.084-5.822a.702.702 0 0 1 .352-1.31h13.444a.701.701 0 0 1 .608 1.053l-3.36 5.822a.708.708 0 0 1-.61.35Zm-7.46-5.82 7.203 4.159 2.402-4.159H26.34Zm-14.264-6.722a.697.697 0 0 1-.352-.095l-9.322-5.381a.704.704 0 0 1-.257-.96l9.322-16.146a.702.702 0 0 1 1.31.35v21.529a.701.701 0 0 1-.701.703Zm-8.363-6.342 7.66 4.423V27.818l-7.66 13.268Zm44.932-9.169a.7.7 0 0 1-.402-.128l-.72-.504a.703.703 0 0 1-.3-.575V13.275a.701.701 0 0 1 1.054-.608l9.322 5.381a.704.704 0 0 1 .257.96L50.678 31.44a.702.702 0 0 1-.547.35l-1.424.124a.563.563 0 0 1-.062.003Zm-.016-1.573.21.148.805-.07 6.644-11.508-7.66-4.423v15.854ZM36.285 7.256H22.84a.701.701 0 0 1-.608-1.053L25.591.38a.697.697 0 0 1 .234-.242.688.688 0 0 1 .361-.109h.016c.139 0 .269.04.378.11l10.018 5.785a.702.702 0 0 1-.313 1.331ZM24.057 5.85h9.604l-7.203-4.159-2.401 4.159Zm20.799 37.585a.701.701 0 0 1-.496-1.199l5.013-5.013a.703.703 0 0 1 .994.994l-5.014 5.013a.699.699 0 0 1-.497.205Z" clip-rule="evenodd"/><path fill="#282928" fill-rule="evenodd" d="M44.856 43.435a.701.701 0 0 1-.497-.205l-2.264-2.265a.702.702 0 1 1 .993-.994l2.265 2.266a.703.703 0 0 1-.497 1.198Z" clip-rule="evenodd"/><path fill="#282928" fill-rule="evenodd" d="M46.23 47.525c-4.025 0-7.3-3.274-7.3-7.3 0-4.025 3.275-7.3 7.3-7.3 4.026 0 7.3 3.275 7.3 7.3 0 4.026-3.274 7.3-7.3 7.3Zm0-13.195a5.903 5.903 0 0 0-5.895 5.895 5.903 5.903 0 0 0 5.895 5.896 5.902 5.902 0 0 0 5.895-5.896 5.902 5.902 0 0 0-5.895-5.895Z" clip-rule="evenodd"/><path fill="#282928" fill-rule="evenodd" d="M46.231 51.632a.702.702 0 0 1-.403-.127l-2.206-1.544-2.682.234a.702.702 0 0 1-.697-.403l-1.138-2.44-2.441-1.137a.705.705 0 0 1-.403-.699l.235-2.681-1.544-2.206a.701.701 0 0 1 0-.806l1.544-2.205-.235-2.683a.704.704 0 0 1 .403-.697l2.44-1.138 1.139-2.44a.702.702 0 0 1 .697-.403l2.682.234 2.206-1.544a.705.705 0 0 1 .806 0l2.206 1.544 2.68-.234a.704.704 0 0 1 .7.402l1.137 2.441 2.44 1.138a.7.7 0 0 1 .403.697l-.234 2.683 1.544 2.205a.706.706 0 0 1 0 .806l-1.544 2.206.234 2.681a.701.701 0 0 1-.403.699l-2.44 1.137-1.138 2.44a.704.704 0 0 1-.698.403l-2.681-.234-2.206 1.544a.708.708 0 0 1-.403.127Zm-2.415-3.096a.7.7 0 0 1 .403.128l2.012 1.408 2.012-1.408a.708.708 0 0 1 .464-.126l2.447.215 1.038-2.227c.07-.149.19-.27.339-.339l2.227-1.038-.215-2.447a.703.703 0 0 1 .126-.464l1.408-2.012-1.408-2.012a.705.705 0 0 1-.126-.464l.215-2.447-2.227-1.038a.701.701 0 0 1-.339-.34L51.154 31.7l-2.447.213a.703.703 0 0 1-.464-.124l-2.012-1.409-2.012 1.409a.706.706 0 0 1-.464.124l-2.447-.213-1.038 2.225a.7.7 0 0 1-.34.34l-2.227 1.038.215 2.447a.705.705 0 0 1-.124.464l-1.41 2.012 1.41 2.012a.701.701 0 0 1 .124.464l-.215 2.447 2.227 1.038c.15.07.27.19.34.34l1.038 2.226 2.447-.215.06-.002Z" clip-rule="evenodd"/></svg>