<svg xmlns="http://www.w3.org/2000/svg" width="60" height="60" fill="none"><path fill="#282928" d="M30.785 32.745a.9.9 0 0 0-.338-.011 2.24 2.24 0 0 1-1.979-2.22.984.984 0 0 0-1.968 0 4.21 4.21 0 0 0 3.096 4.055v.984a.984.984 0 0 0 1.968 0v-.924a4.202 4.202 0 0 0-.861-8.316 2.235 2.235 0 1 1 2.235-2.235.984.984 0 0 0 1.968 0 4.21 4.21 0 0 0-3.342-4.114v-.896a.984.984 0 0 0-1.968 0v.956a4.203 4.203 0 0 0 1.107 8.256 2.233 2.233 0 0 1 .082 4.465"/><path fill="#282928" d="M16.43 27.373c0 7.882 6.39 14.272 14.271 14.272s14.272-6.39 14.272-14.272-6.39-14.271-14.272-14.271c-7.878.008-14.262 6.393-14.271 14.271M30.7 15.07c6.795 0 12.303 5.508 12.303 12.303S37.495 39.676 30.7 39.676s-12.303-5.508-12.303-12.303c.008-6.792 5.512-12.295 12.303-12.303"/><path fill="#282928" d="m49.825 44.07-7.71 3.642a6.28 6.28 0 0 0-5.353-3.303l-7.117-.196a7.5 7.5 0 0 1-3.235-.835l-.724-.375a12.77 12.77 0 0 0-11.832.012l.046-1.64a.984.984 0 0 0-.957-1.011l-7.804-.215a.984.984 0 0 0-1.011.957l-.471 17.126a.984.984 0 0 0 .956 1.01l7.805.215h.027c.533 0 .97-.424.984-.957l.022-.82 2.028-1.085a3.48 3.48 0 0 1 2.595-.284l12.107 3.398.064.016a13.131 13.131 0 0 0 8.146-.923 1 1 0 0 0 .123-.067l17.554-11.354a.985.985 0 0 0 .322-1.311 4.97 4.97 0 0 0-6.565-2M5.65 57.302l.418-15.158 5.836.16-.417 15.16zm31.854-.257a11.16 11.16 0 0 1-6.824.761l-12.074-3.39a5.44 5.44 0 0 0-4.057.445l-1.036.555.277-10.08a10.82 10.82 0 0 1 10.99-.585l.725.375a9.5 9.5 0 0 0 4.085 1.055l7.118.196a4.32 4.32 0 0 1 4.102 3.44l-10.601-.293a.985.985 0 0 0-.055 1.968l11.7.322h.027a.984.984 0 0 0 .983-.958 6.2 6.2 0 0 0-.095-1.276l7.908-3.737.023-.01a3.01 3.01 0 0 1 3.4.476zm-5.817-46.711V.984a.984.984 0 0 0-1.968 0v9.35a.984.984 0 1 0 1.968 0m7.379-.001V5.904a.984.984 0 0 0-1.968 0v4.429a.984.984 0 0 0 1.968 0m-14.762 0V5.904a.984.984 0 0 0-1.968 0v4.429a.984.984 0 0 0 1.968 0"/></svg>