<svg xmlns="http://www.w3.org/2000/svg" width="60" height="60" fill="none"><g fill="#282928" clip-path="url(#a)"><path d="M30 0a30 30 0 1 0 30 30A30.034 30.034 0 0 0 30 0m0 58.125A28.125 28.125 0 1 1 58.125 30 28.157 28.157 0 0 1 30 58.125"/><path d="M30 4.688A25.34 25.34 0 0 0 4.688 30a.94.94 0 0 0 .937.938h5.625a.938.938 0 0 0 0-1.875H6.586A23.3 23.3 0 0 1 7.943 22.1l1.714.692a.937.937 0 1 0 .702-1.739l-1.715-.692a23.5 23.5 0 0 1 4.147-6.245l1.962 1.963a.937.937 0 0 0 1.326-1.326l-1.962-1.962a23.5 23.5 0 0 1 5.871-3.978l.724 1.705a.937.937 0 1 0 1.726-.733l-.723-1.703a23.3 23.3 0 0 1 7.348-1.496v4.664a.938.938 0 0 0 1.875 0V6.586c2.377.092 4.726.548 6.965 1.351l-.695 1.72a.937.937 0 1 0 1.739.702l.692-1.714a23.5 23.5 0 0 1 6.247 4.143l-1.965 1.965a.937.937 0 1 0 1.326 1.326l1.965-1.966a23.5 23.5 0 0 1 3.974 5.876l-1.704.723a.936.936 0 1 0 .733 1.726l1.705-.724a23.3 23.3 0 0 1 1.494 7.349H48.75a.938.938 0 0 0 0 1.875h4.664a23.3 23.3 0 0 1-1.35 6.966l-1.72-.696a.937.937 0 1 0-.703 1.739l1.715.692a23.5 23.5 0 0 1-4.147 6.244l-1.962-1.962a.938.938 0 0 0-1.326 1.326l1.963 1.962a23.5 23.5 0 0 1-5.875 3.971l-.721-1.698a.938.938 0 1 0-1.726.733l.722 1.7a23.3 23.3 0 0 1-7.346 1.499V48.75a.938.938 0 0 0-1.875 0v5.625a.94.94 0 0 0 .937.938 25.312 25.312 0 1 0 0-50.625"/><path d="M31.276 32.598c2.959 2.958 8.288 8.285 8.487 8.488a1.86 1.86 0 0 0 .844-.478 15.001 15.001 0 1 0-25.594-11.269 1.883 1.883 0 0 0 1.786 1.955h.09a1.87 1.87 0 0 0 1.87-1.777A8.908 8.908 0 0 1 36.562 30a8.8 8.8 0 0 1-1.05 4.186l-2.914-2.911a2.908 2.908 0 1 0-1.322 1.323m-3.62-13.38a10.786 10.786 0 0 0-10.768 10.2 13.124 13.124 0 1 1 23.028 9.174l-3.03-3.03a10.777 10.777 0 0 0-9.23-16.343M28.975 30a1.023 1.023 0 1 1 2.046 0 1.023 1.023 0 0 1-2.046 0M15 37.031a4.22 4.22 0 1 0 0 8.439 4.22 4.22 0 0 0 0-8.439m0 6.563a2.344 2.344 0 1 1 0-4.688 2.344 2.344 0 0 1 0 4.688m9.375-5.625a3.282 3.282 0 1 0 0 6.563 3.282 3.282 0 0 0 0-6.563m0 4.687a1.407 1.407 0 1 1 0-2.813 1.407 1.407 0 0 1 0 2.813"/></g><defs><clipPath id="a"><path fill="#fff" d="M0 0h60v60H0z"/></clipPath></defs></svg>