<svg xmlns="http://www.w3.org/2000/svg" width="60" height="60" fill="none"><path fill="#282928" fill-rule="evenodd" d="m35.159 16.5-1.575.24.581-1.484zm-3.116-.185-.442 1.126a.796.796 0 0 0 .86 1.077l4.297-.65a.797.797 0 0 0 .504-1.283l-2.713-3.398a.796.796 0 0 0-1.361.206l-.553 1.408a15.42 15.42 0 0 0-14.66 5.535c-4.33 5.386-4.538 13.064-.506 18.668a.796.796 0 0 0 1.291-.928c-3.616-5.027-3.429-11.913.455-16.743a13.76 13.76 0 0 1 12.828-5.018M24.84 43.5l1.574-.238-.58 1.483zm16.581-22.685a.794.794 0 0 1 1.109.182c4.032 5.604 3.824 13.282-.506 18.668a15.42 15.42 0 0 1-14.66 5.535l-.552 1.407a.795.795 0 0 1-1.361.207l-2.713-3.397a.797.797 0 0 1 .502-1.284l4.298-.65a.796.796 0 0 1 .86 1.077l-.44 1.125a13.744 13.744 0 0 0 12.827-5.017c3.883-4.832 4.07-11.716.455-16.743a.794.794 0 0 1 .181-1.11M30 23.505a6.48 6.48 0 0 1 4.62 1.934l-5.16 5.41-2.088-2.642a.796.796 0 0 0-1.248.986l2.656 3.36c.3.38.867.406 1.2.056l5.62-5.893c.568.963.896 2.086.896 3.284A6.5 6.5 0 0 1 30 36.495 6.5 6.5 0 0 1 23.505 30 6.5 6.5 0 0 1 30 23.505m0 14.58c-4.457 0-8.085-3.626-8.085-8.085 0-4.458 3.628-8.086 8.085-8.086a8.06 8.06 0 0 1 5.717 2.373l1.124-1.179a.796.796 0 0 1 1.152 1.098l-1.26 1.322a8.04 8.04 0 0 1 1.354 4.473c0 4.458-3.628 8.084-8.087 8.084m0 16.525c20.027-6.654 19.771-25.517 19.31-42.365C42.538 11.156 35.58 8.787 30 5.481c-5.578 3.307-12.536 5.675-19.307 6.764-.462 16.848-.72 35.71 19.307 42.365m20.88-43.072a.79.79 0 0 0-.677-.764c-6.936-1.026-14.126-3.467-19.789-6.9a.8.8 0 0 0-.827 0c-5.635 3.428-12.872 5.877-19.788 6.9a.796.796 0 0 0-.68.764c-.235 8.537-.5 18.214 2.097 26.443 2.887 9.15 8.952 15.11 18.54 18.223.16.053.33.053.49 0 9.587-3.112 15.651-9.073 18.54-18.223 2.597-8.23 2.33-17.906 2.095-26.443" clip-rule="evenodd"/></svg>