<svg xmlns="http://www.w3.org/2000/svg" width="60" height="60" fill="none"><path fill="#282928" d="M51.032 24.038h-1.875v19.408H10.84v-3.11h17.33v-1.875H10.84V24.037H8.965v21.284h42.067z"/><path fill="#282928" d="M54.783 47.196V15.812A2.816 2.816 0 0 0 51.971 13h-1.676c-.986-5.203-5.56-9.152-11.046-9.152-6.204 0-11.25 5.047-11.25 11.25 0 1.608.345 3.135.955 4.52a9.35 9.35 0 0 1-8.203 4.855c-5.169 0-9.375-4.206-9.375-9.375 0-5.17 4.206-9.375 9.375-9.375 2.27 0 4.46.82 6.165 2.311l1.235-1.411a11.24 11.24 0 0 0-7.4-2.775c-5.486 0-10.06 3.949-11.046 9.152H8.029a2.816 2.816 0 0 0-2.812 2.812v31.384H1.875v4.27a4.693 4.693 0 0 0 4.688 4.687h46.875a4.693 4.693 0 0 0 4.687-4.688v-4.27zM39.25 5.723c5.169 0 9.375 4.205 9.375 9.375s-4.206 9.375-9.375 9.375c-5.17 0-9.375-4.206-9.375-9.375 0-5.17 4.206-9.375 9.375-9.375m17 45.742a2.816 2.816 0 0 1-2.812 2.813H6.563a2.816 2.816 0 0 1-2.813-2.813v-2.394h17.117v.728a2.816 2.816 0 0 0 2.812 2.812h12.642a2.816 2.816 0 0 0 2.812-2.812v-.728h2.697v-1.875H7.092V15.812c0-.517.42-.937.937-.937h1.484c-.002.075-.012.147-.012.223 0 6.203 5.047 11.25 11.25 11.25 3.735 0 7.167-1.832 9.253-4.855 2.033 2.93 5.416 4.855 9.245 4.855 6.203 0 11.25-5.047 11.25-11.25 0-.076-.01-.148-.012-.223h1.484c.517 0 .937.42.937.937v31.384h-8.404v1.875H56.25zm-33.508-2.394h14.516v.728c0 .517-.42.937-.937.937H23.679a.94.94 0 0 1-.937-.937z"/><path fill="#282928" d="M23.96 11.113h1.876v7.969H23.96zm-8.292 0v5.075a3.367 3.367 0 0 0 3.363 3.363 3.367 3.367 0 0 0 3.362-3.363v-5.075h-1.875v5.075a1.49 1.49 0 0 1-1.487 1.488 1.49 1.49 0 0 1-1.488-1.488v-5.075zm19.597 8.672a3.367 3.367 0 0 0 3.363-3.363v-5.074h-1.875v5.074a1.49 1.49 0 0 1-1.488 1.488 1.49 1.49 0 0 1-1.488-1.488v-5.074h-1.875v5.074a3.367 3.367 0 0 0 3.363 3.363m5.855-.396 1.887-2.668 1.886 2.668 1.53-1.082-2.268-3.21 2.268-3.208-1.53-1.082-1.886 2.667-1.886-2.667-1.531 1.082 2.269 3.209-2.27 3.209zM30 38.46h3.337v1.876H30z"/></svg>