<svg xmlns="http://www.w3.org/2000/svg" width="60" height="60" fill="none"><path fill="#282928" fill-rule="evenodd" d="m18.846 8.548-1.273 1.848a1.3 1.3 0 0 1-.697.506l-2.15.64a2.698 2.698 0 0 0-1.374 4.226l1.364 1.782c.18.234.274.523.266.818l-.056 2.243a2.698 2.698 0 0 0 3.595 2.612l2.116-.746c.279-.099.582-.099.86 0l2.117.746a2.698 2.698 0 0 0 3.595-2.612l-.056-2.243a1.3 1.3 0 0 1 .266-.818l1.364-1.782a2.697 2.697 0 0 0-1.373-4.226l-2.151-.64a1.3 1.3 0 0 1-.697-.506L23.29 8.548a2.7 2.7 0 0 0-4.443 0m-.117 2.645 1.273-1.848a1.294 1.294 0 0 1 2.13 0l1.274 1.848c.35.507.862.88 1.452 1.055l2.151.64a1.294 1.294 0 0 1 .658 2.026l-1.364 1.782a2.7 2.7 0 0 0-.554 1.707l.056 2.244a1.295 1.295 0 0 1-1.724 1.252l-2.116-.747a2.7 2.7 0 0 0-1.795 0l-2.116.747a1.294 1.294 0 0 1-1.724-1.253l.057-2.243a2.7 2.7 0 0 0-.555-1.707l-1.364-1.782a1.294 1.294 0 0 1 .658-2.026l2.15-.64a2.7 2.7 0 0 0 1.453-1.055" clip-rule="evenodd"/><path fill="#282928" fill-rule="evenodd" d="M3.745 19.522h11.928l.03-.004c.131-.02.659-.133.673-.69l.01-.425a2.7 2.7 0 0 0-.555-1.707l-1.364-1.782a1.294 1.294 0 0 1 .659-2.026l2.15-.64c.47-.14.892-.404 1.22-.763a.703.703 0 0 0-.518-1.176H3.745a.7.7 0 0 0-.702.702v7.809c0 .387.314.702.702.702m22.004-1.106v-.013a2.7 2.7 0 0 1 .554-1.707l1.364-1.782a1.294 1.294 0 0 0-.658-2.026l-2.151-.64a2.7 2.7 0 0 1-1.22-.763.703.703 0 0 1 .518-1.176H38.39c.388 0 .703.314.703.702v7.809a.7.7 0 0 1-.703.702H26.461s-.686-.057-.702-.695zm2.094-6.703h9.844v6.404H27.171c.035-.205.12-.4.248-.567l1.363-1.782a2.698 2.698 0 0 0-.94-4.055m-13.551 0a2.696 2.696 0 0 0-.94 4.055l1.364 1.782c.128.167.213.362.248.567H4.447v-6.404zm25.48 22.186a2.91 2.91 0 0 0-2.91-2.91h-2.818a2.91 2.91 0 0 0-2.91 2.91v2.818a2.91 2.91 0 0 0 2.91 2.91h2.818a2.91 2.91 0 0 0 2.91-2.91zm-1.404 0v2.818a1.506 1.506 0 0 1-1.506 1.505h-2.818a1.506 1.506 0 0 1-1.506-1.505v-2.818a1.506 1.506 0 0 1 1.506-1.506h2.818a1.505 1.505 0 0 1 1.506 1.506m11.959 10.845a2.91 2.91 0 0 0-2.91-2.91h-2.818a2.91 2.91 0 0 0-2.91 2.91v2.818a2.91 2.91 0 0 0 2.91 2.91h2.818a2.91 2.91 0 0 0 2.91-2.91zm-1.405 0v2.818a1.506 1.506 0 0 1-1.505 1.506h-2.818a1.505 1.505 0 0 1-1.506-1.506v-2.818a1.506 1.506 0 0 1 1.506-1.505h2.818a1.506 1.506 0 0 1 1.505 1.505m-9.15 0a2.91 2.91 0 0 0-2.91-2.91h-2.818a2.91 2.91 0 0 0-2.91 2.91v2.818a2.91 2.91 0 0 0 2.91 2.91h2.818a2.91 2.91 0 0 0 2.91-2.91zm-1.404 0v2.818a1.505 1.505 0 0 1-1.506 1.506h-2.818a1.506 1.506 0 0 1-1.506-1.506v-2.818a1.507 1.507 0 0 1 1.506-1.505h2.818a1.506 1.506 0 0 1 1.506 1.505m11.959-10.845a2.91 2.91 0 0 0-2.91-2.91h-2.818a2.91 2.91 0 0 0-2.91 2.91v2.818a2.91 2.91 0 0 0 2.91 2.91h2.818a2.91 2.91 0 0 0 2.91-2.91zm-1.405 0v2.818a1.506 1.506 0 0 1-1.505 1.505h-2.818a1.506 1.506 0 0 1-1.506-1.505v-2.818a1.505 1.505 0 0 1 1.506-1.506h2.818a1.505 1.505 0 0 1 1.505 1.506" clip-rule="evenodd"/><path fill="#282928" fill-rule="evenodd" d="M40.73 24.578c-8.915 0-16.152 7.237-16.152 16.152 0 8.914 7.237 16.152 16.152 16.152 8.914 0 16.152-7.238 16.152-16.152S49.644 24.578 40.73 24.578m0 1.405c8.139 0 14.747 6.608 14.747 14.747S48.869 55.477 40.73 55.477c-8.14 0-14.747-6.608-14.747-14.747 0-8.14 6.608-14.747 14.747-14.747" clip-rule="evenodd"/><path fill="#282928" fill-rule="evenodd" d="M24.58 40.986c.138 8.797 7.321 15.896 16.15 15.896 8.915 0 16.152-7.237 16.152-16.152 0-8.914-7.237-16.151-16.152-16.151q-.83 0-1.638.082V8.94a5.9 5.9 0 0 0-5.9-5.898H8.943a5.9 5.9 0 0 0-5.899 5.899v26.145a5.9 5.9 0 0 0 5.899 5.899zm1.409-.682a.7.7 0 0 0-.702-.723H8.942a4.494 4.494 0 0 1-4.495-4.494V8.942a4.494 4.494 0 0 1 4.495-4.495h24.25a4.494 4.494 0 0 1 4.495 4.495v16.515a.702.702 0 0 0 .808.694q1.096-.166 2.235-.168c8.14 0 14.747 6.608 14.747 14.747 0 8.14-6.608 14.747-14.747 14.747S25.983 48.87 25.983 40.73q0-.213.006-.426" clip-rule="evenodd"/><path fill="#282928" fill-rule="evenodd" d="M26.193 36.536a.7.7 0 0 0 .544-.47 14.75 14.75 0 0 1 3.236-5.42.7.7 0 0 0 .161-.68 5.035 5.035 0 0 0-4.824-3.595h-8.484a5.033 5.033 0 0 0-5.033 5.033v.177a5.033 5.033 0 0 0 5.033 5.032h8.484q.452 0 .883-.077m-.641-1.335q-.12.008-.242.008h-8.484a3.63 3.63 0 0 1-3.629-3.628v-.177a3.63 3.63 0 0 1 3.629-3.628h8.484c1.508 0 2.8.919 3.348 2.227a16.2 16.2 0 0 0-3.106 5.198m9.198 7.335v7.234a.703.703 0 0 0 1.404 0v-7.234a.702.702 0 0 0-1.404 0" clip-rule="evenodd"/><path fill="#282928" fill-rule="evenodd" d="M31.835 46.856h7.234a.702.702 0 0 0 0-1.405h-7.234a.702.702 0 0 0 0 1.405" clip-rule="evenodd"/></svg>