<svg xmlns="http://www.w3.org/2000/svg" width="60" height="60" fill="none"><path fill="#282928" d="M1.088 54.815a.92.92 0 0 0 .028 1.04.95.95 0 0 0 .768.404c.066 0 .132 0 .207-.019l8.615-1.912a17.8 17.8 0 0 0 8.063 1.931c9.722 0 17.644-7.837 17.794-17.531 4.218 1.143 8.84.712 12.759-1.275l8.615 1.903c.066.019.132.019.207.019.3 0 .59-.15.769-.404a.95.95 0 0 0 .028-1.04l-3.516-5.56a17.82 17.82 0 0 0 3.656-10.818c0-9.825-7.987-17.813-17.812-17.813s-17.644 7.838-17.794 17.522a17.7 17.7 0 0 0-4.706-.647C8.925 20.625.938 28.612.938 38.437c0 3.91 1.293 7.725 3.665 10.819zM41.25 5.625c8.784 0 15.938 7.153 15.938 15.937 0 3.703-1.294 7.313-3.657 10.153a.93.93 0 0 0-.075 1.097l2.672 4.219-6.75-1.49a.97.97 0 0 0-.647.084c-3.74 1.987-8.25 2.371-12.262 1.115-.638-6.76-5.082-12.431-11.157-14.85 0-.112-.009-.225-.009-.337 0-8.785 7.153-15.938 15.938-15.938zM2.813 38.437c0-8.784 7.153-15.937 15.937-15.937s15.938 7.153 15.938 15.937c0 8.785-7.154 15.938-15.938 15.938a15.9 15.9 0 0 1-7.49-1.875.93.93 0 0 0-.441-.113c-.066 0-.132 0-.207.019l-6.75 1.49 2.672-4.218a.94.94 0 0 0-.065-1.097 15.95 15.95 0 0 1-3.657-10.163z"/><path fill="#282928" d="M33.75 15h15v1.875h-15zM33.75 20.625h15V22.5h-15zM37.5 26.25h11.25v1.875H37.5zM12.808 40.313h3.394l.984 3.75h1.94l-2.774-10.547a.94.94 0 0 0-.91-.703h-1.875a.95.95 0 0 0-.91.703L9.884 44.063h1.94zm1.481-5.626h.431l.985 3.75h-2.4zM27.617 42.188h-2.344v-7.5h2.344v-1.876h-6.562v1.876h2.343v7.5h-2.343v1.874h6.562z"/></svg>