<svg xmlns="http://www.w3.org/2000/svg" width="60" height="60" fill="none"><g clip-path="url(#a)"><path fill="#282928" d="M22.499 57.035h5.52a.89.89 0 1 0 0-1.781h-5.52a.89.89 0 1 0 0 1.781m4.148-27.832a.903.903 0 0 0-.902.902v1.758c0 .492.398.903.902.903a.895.895 0 0 0 .902-.903v-1.758a.895.895 0 0 0-.902-.902m0 4.524a.903.903 0 0 0-.902.902v1.758c0 .492.398.902.902.902a.895.895 0 0 0 .902-.902v-1.758a.903.903 0 0 0-.902-.902M17.26 23.32l1.594.692a.906.906 0 0 0 1.184-.469.9.9 0 0 0-.469-1.184l-1.594-.691a.9.9 0 0 0-1.183.469.91.91 0 0 0 .468 1.183m4.09 1.77 1.594.691a.906.906 0 0 0 1.184-.469.9.9 0 0 0-.47-1.183l-1.593-.692a.9.9 0 0 0-1.184.47c-.199.456.012.984.47 1.183m5.66.48-.855-.375a.898.898 0 0 0-1.23 1.043l-.352.153a.898.898 0 0 0 .351 1.722c.118 0 .247-.023.364-.07l.586-.258c.152.27.445.445.773.445a.903.903 0 0 0 .902-.902v-.937a.9.9 0 0 0-.539-.82m-4.523-13.922h5.52a.89.89 0 1 0 0-1.78h-5.52a.89.89 0 1 0 0 1.78m-3.844 18.317a.9.9 0 0 0-1.183-.469l-1.711.75a.898.898 0 0 0 .351 1.723 1 1 0 0 0 .363-.07l1.711-.75a.895.895 0 0 0 .47-1.184m33.364 9.258a.89.89 0 1 0 0-1.782h-.786a.89.89 0 1 0 0 1.782zm-8.18 6.117h5.098a.89.89 0 1 0 0-1.781h-5.098a.89.89 0 1 0 0 1.78m0-6.106h5.098a.89.89 0 1 0 0-1.78h-5.098a.89.89 0 1 0 0 1.78m7.406 6.106h.785a.89.89 0 1 0 0-1.781h-.785a.89.89 0 1 0 0 1.78m-32.285-2.836-1.559.691a.893.893 0 0 0-.457 1.184c.223.492.785.656 1.184.457l1.558-.691a.893.893 0 0 0 .457-1.184c-.187-.457-.726-.656-1.183-.457m24.879-.211h.785a.89.89 0 1 0 0-1.781h-.785a.89.89 0 1 0 0 1.781m9.07-.902a.89.89 0 0 0-.89-.891h-5.098a.89.89 0 1 0 0 1.781h5.098a.89.89 0 0 0 .89-.89M23.05 28.043a.9.9 0 0 0-1.184-.469l-1.711.75a.898.898 0 0 0 .351 1.723c.118 0 .247-.024.364-.07l1.71-.75a.9.9 0 0 0 .47-1.184m34.617-27A3.58 3.58 0 0 0 55.147 0L36.34.012a3.57 3.57 0 0 0-3.563 3.562v2.942l-19.09.011a3.456 3.456 0 0 0-3.457 3.457v11.954l-8.39 3.668a.92.92 0 0 0-.504.562c-.047.14-.047-.703-.036 13.957 0 .363.211.68.54.82l8.39 3.668v11.93A3.456 3.456 0 0 0 13.686 60l23.485-.012c.539 0 1.043-.129 1.5-.34a3.46 3.46 0 0 0 1.957-3.117v-8.074h11.449a.89.89 0 1 0 0-1.781h-11.45l-.011-29.004c.07 0 .129-.012.2-.012l14.32-.012c.949 0 1.84-.375 2.519-1.043a3.56 3.56 0 0 0 1.043-2.52l.012-10.522c0-.95-.375-1.84-1.043-2.52M10.24 42.644l-7.125-3.117V27.832l7.125 3.129zm.012-13.652-5.836-2.555 5.836-2.543zm28.617 27.54a1.67 1.67 0 0 1-1.664 1.687c-25.243 0-23.567.011-23.66-.012a1.68 1.68 0 0 1-1.512-1.664V54.07l26.836-.011zm.012-4.22-26.836.012-.012-6.926c1.945.844 2.203 1.102 2.765.903l.856-.375c.457-.2.656-.727.457-1.184a.893.893 0 0 0-1.184-.457l-.492.223-2.402-1.067V31.758l1.02.445c.117.047.234.07.363.07.351 0 .68-.199.82-.539a.9.9 0 0 0-.469-1.183l-1.71-.75c-.012 0-.012-.012-.024-.012v-6.68l2.262-1.066c.351.14.527.281.832.281.984 0 1.253-1.336.363-1.722l-.856-.375c-.011 0-.363-.153-.75.023l-1.863.879V9.996c0-.926.75-1.676 1.676-1.676l19.09-.011v13.148c0 .34.187.633.492.785h.012c.375.152.691.082.914-.129l4.113-3.504c.164-.14.352-.27.54-.386l.01 28.465h-9.784L25.31 41.25c.574.375 1.102-.117 1.7-.316a.9.9 0 0 0 .538-.82v-.938a.905.905 0 0 0-.914-.903c-.504.012-.89.446-.89.938v.316l-.317.141a.9.9 0 0 0-.515 1.008l-1.969-2.848a.885.885 0 0 0-1.23-.223.887.887 0 0 0-.223 1.243l1.371 1.957-1.43.633a.893.893 0 0 0-.457 1.183c.223.492.785.656 1.184.457l1.558-.691a.7.7 0 0 0 .176-.106l4.02 5.801a.9.9 0 0 0 .726.387h10.254v3.843zM57.057 14.11a1.898 1.898 0 0 1-1.898 1.898l-14.32.012c-1.84 0-3.012.833-3.586 1.325l-2.813 2.39-.012-16.16a1.91 1.91 0 0 1 1.91-1.91l18.81-.012c.503 0 .983.2 1.347.563.363.363.562.844.562 1.348zM50.132 3.785H47.87a.815.815 0 0 0-.82.82v8.438c0 .457.363.82.82.82s.82-.363.82-.82v-2.707h.996l1.98 3.14a.82.82 0 0 0 .692.387.73.73 0 0 0 .434-.129.82.82 0 0 0 .258-1.136l-1.618-2.567a3.03 3.03 0 0 0 1.735-2.742V6.82a3.036 3.036 0 0 0-3.035-3.035m1.394 3.504c0 .774-.633 1.395-1.395 1.395h-1.44V5.426h1.44c.774 0 1.395.633 1.395 1.394zM42.76 4.301a.83.83 0 0 0-.773-.528c-.328 0-.645.2-.773.528l-3.247 8.355a.827.827 0 0 0 .762 1.125c.328 0 .645-.199.762-.527l.902-2.32h3.176l.902 2.32a.82.82 0 0 0 .762.527.827.827 0 0 0 .762-1.125zm-1.722 4.98.949-2.437.95 2.437z"/></g><defs><clipPath id="a"><path fill="#fff" d="M0 0h60v60H0z"/></clipPath></defs></svg>