<svg xmlns="http://www.w3.org/2000/svg" width="60" height="60" fill="none"><g fill="#282928" clip-path="url(#a)"><path d="M46.002 28.138V3a3 3 0 0 0-3-3H3.004a3 3 0 0 0-3 3V39a3 3 0 0 0 3 3h25.138a15.993 15.993 0 1 0 17.86-13.86M3.004 2h39.998a1 1 0 0 1 1 1v5H2.004V3a1 1 0 0 1 1-1m-1 36.999v-29h15.999v30h-15a1 1 0 0 1-1-1m17.999 1v-30h23.999v18a16.01 16.01 0 0 0-15.472 12zm23.999 17.999a13.998 13.998 0 0 1-9.9-23.899 14 14 0 0 1 23.9 9.9c-.009 7.728-6.272 13.99-14 13.999"/><path d="M44 31.998c-6.628 0-12 5.373-12 12s5.372 12 12 12c6.627 0 11.999-5.373 11.999-12-.007-6.625-5.376-11.993-12-12m0 22c-5.523 0-10-4.478-10-10s4.477-10 10-10 9.999 4.477 9.999 10c-.006 5.52-4.48 9.993-10 10M5.004 6h1a1 1 0 0 0 0-2h-1a1 1 0 0 0 0 2M10 6h1a1 1 0 1 0 0-2h-1a1 1 0 1 0 0 2M15 6h1a1 1 0 1 0 0-2h-1a1 1 0 1 0 0 2M6.004 14h-1a1 1 0 0 0 0 2h1a1 1 0 0 0 0-2M10 16h5a1 1 0 0 0 0-2h-5a1 1 0 0 0 0 2M6.004 18h-1a1 1 0 0 0 0 2h1a1 1 0 0 0 0-2M15 18h-5a1 1 0 1 0 0 2h5a1 1 0 0 0 0-2M6.004 22h-1a1 1 0 0 0 0 2h1a1 1 0 0 0 0-2M15 22h-5a1 1 0 1 0 0 2h5a1 1 0 0 0 0-2M6.004 26h-1a1 1 0 0 0 0 2h1a1 1 0 0 0 0-2M15 26h-5a1 1 0 1 0 0 2h5a1 1 0 0 0 0-2M6.004 29.998h-1a1 1 0 0 0 0 2h1a1 1 0 0 0 0-2M15 29.998h-5a1 1 0 1 0 0 2h5a1 1 0 0 0 0-2M6.004 33.998h-1a1 1 0 0 0 0 2h1a1 1 0 0 0 0-2M15 33.998h-5a1 1 0 1 0 0 2h5a1 1 0 0 0 0-2M27.706 15.293a1 1 0 0 0-1.414 0l-4 4a1 1 0 0 0 0 1.414l4 4a1 1 0 0 0 1.414-1.415L24.414 20l3.292-3.293a1 1 0 0 0 0-1.414M36.293 24.706a1 1 0 0 0 1.414 0l4-4a1 1 0 0 0 0-1.414l-4-4a1 1 0 0 0-1.414 1.414L39.585 20l-3.292 3.293a1 1 0 0 0 0 1.414M33.242 15.03a1 1 0 0 0-1.212.727l-2 8a1 1 0 0 0 1.939.486l2-8a1 1 0 0 0-.727-1.213"/><path d="M47.292 40.29 41 46.583l-1.293-1.293a1 1 0 0 0-1.414 1.414l2 2a1 1 0 0 0 1.414 0l7-7a1 1 0 0 0-1.414-1.414"/></g><defs><clipPath id="a"><path fill="#fff" d="M0 0h60v60H0z"/></clipPath></defs></svg>