<svg xmlns="http://www.w3.org/2000/svg" width="60" height="60" fill="none"><g fill="#282928" clip-path="url(#a)"><path d="M30.003.934c-12.416 0-22.5 10.09-22.5 22.505s10.084 22.499 22.5 22.499c12.415 0 22.498-10.084 22.498-22.499S42.418.934 30.003.934m0 1.875c11.401 0 20.623 9.228 20.623 20.63s-9.221 20.623-20.623 20.623S9.379 34.842 9.379 23.44c0-11.402 9.222-20.63 20.624-20.63"/><path d="M30.001 6.56c-9.309 0-16.872 7.571-16.872 16.88S20.692 40.312 30 40.312s16.872-7.564 16.872-16.872S39.31 6.56 30.001 6.56m0 1.876c8.296 0 14.997 6.708 14.997 15.004S38.297 38.437 30 38.437 14.997 31.735 14.997 23.44 21.706 8.436 30.001 8.436M12.278 36.324 3.474 51.57a.938.938 0 0 0 .996 1.384l8.97-1.771 2.947 8.657a.937.937 0 0 0 1.703.166l8.623-14.934-1.627-.941-7.591 13.142-2.547-7.475a.94.94 0 0 0-1.066-.616l-7.75 1.53 7.764-13.447zM47.725 36.324l-1.62.941 7.766 13.447-7.751-1.53a.94.94 0 0 0-1.066.616l-2.547 7.475-7.592-13.142-1.626.94 8.623 14.935a.937.937 0 0 0 1.703-.166l2.948-8.657 8.969 1.771a.939.939 0 0 0 .996-1.384z"/><path d="M30 12.996c-.664 0-.778.291-.954.47-1.025 1.185-2.403 3.623-2.914 4.43-1.723.431-3.554.787-5.107 1.398-.225.112-.535.135-.74.768-.206.633.029.829.145 1.052.755 1.265 2.901 3.642 3.315 4.138-.105 1.888-.365 3.589-.25 5.288.038.248-.04.55.499.94.538.392.804.23 1.052.188 1.476-.358 4.126-1.54 4.955-1.869 1.663.632 3.316 1.447 4.955 1.869.248.041.514.204 1.052-.187s.461-.693.498-.941c.126-1.463-.206-4.645-.249-5.288.958-1.12 1.984-2.321 2.886-3.474.515-.56.725-1.154.574-1.716-.15-.563-.515-.656-.74-.768-1.656-.656-3.41-.97-5.107-1.398-.977-1.49-1.834-3.124-2.914-4.43-.176-.179-.29-.47-.955-.47m0 2.277c.824 1.202 1.515 2.424 2.299 3.62.126.178.17.3.47.518s.421.219.63.284c1.402.374 2.77.679 4.152 1.066-.878 1.162-1.835 2.19-2.727 3.308-.13.175-.23.25-.346.602-.114.353-.078.474-.076.692.07 1.452.205 2.847.27 4.284-1.556-.539-3.219-1.412-4.671-1.723-.37 0-.471.075-.678.145-1.36.513-2.648 1.073-3.993 1.578.046-1.459.203-2.853.27-4.284.002-.218.038-.34-.077-.692-.114-.353-.215-.427-.346-.602-.889-1.12-1.942-2.31-2.726-3.308 1.396-.413 2.772-.694 4.152-1.066.208-.065.33-.066.63-.284s.344-.34.47-.519c.495-.728.977-1.545 1.398-2.235.323-.525.637-1.014.9-1.384"/></g><defs><clipPath id="a"><path fill="#fff" d="M0 0h60v60H0z"/></clipPath></defs></svg>