<svg xmlns="http://www.w3.org/2000/svg" width="60" height="60" fill="none"><g fill="#282928" clip-path="url(#a)"><path d="M27.656 57.305h4.688a.879.879 0 0 0 0-1.758h-4.688a.88.88 0 0 0 0 1.758"/><path d="M57.363 13.418a2.64 2.64 0 0 0-2.485 1.758H47.52V4.395A4.4 4.4 0 0 0 43.125 0h-26.25a4.4 4.4 0 0 0-4.395 4.395V7.46a.88.88 0 0 0 1.758 0V5.742h31.524v9.434h-6.094a.88.88 0 0 0-.879.879v3.841l-7.981-5.714a1.4 1.4 0 0 0-1.618.001l-7.217 5.168v-2.92a2.64 2.64 0 0 0 1.758-2.486 2.64 2.64 0 0 0-2.637-2.636 2.64 2.64 0 0 0-2.637 2.636c0 1.146.735 2.123 1.758 2.486v4.178l-3.753 2.688a1.12 1.12 0 0 0-.466.905v2.952c0 .614.5 1.114 1.113 1.114h2.558v12.315a.88.88 0 0 0 .879.879h8.575v6.292H14.238V11.21a.879.879 0 1 0-1.758 0v36.543H5.123a2.64 2.64 0 0 0-2.485-1.758A2.64 2.64 0 0 0 0 48.633a2.64 2.64 0 0 0 2.637 2.636 2.64 2.64 0 0 0 2.485-1.757h7.358v6.093A4.4 4.4 0 0 0 16.876 60h26.25a4.4 4.4 0 0 0 4.395-4.395v-3.144a.879.879 0 1 0-1.758 0v.39H14.238v-3.34H30a.88.88 0 0 0 .879-.878v-7.171h8.575a.88.88 0 0 0 .88-.879V28.268h2.557c.614 0 1.113-.5 1.113-1.114v-2.952c0-.358-.174-.697-.465-.905l-2.992-2.142v-4.221h5.215V48.75a.879.879 0 1 0 1.758 0V16.934h7.358a2.64 2.64 0 0 0 2.485 1.757A2.64 2.64 0 0 0 60 16.055a2.64 2.64 0 0 0-2.637-2.637M43.125 1.758a2.6 2.6 0 0 1 .462.041l.034.006q.1.02.2.047l.034.01q.098.028.195.063l.025.01q.1.039.195.085l.006.003a3 3 0 0 1 .375.223l.026.019a3 3 0 0 1 .328.283l.02.021q.072.075.138.155l.008.01q.066.08.125.166l.01.014q.057.085.108.175l.016.027a2.6 2.6 0 0 1 .18.399l.01.031a2.6 2.6 0 0 1 .108.428l.002.01H14.27l.002-.007a3 3 0 0 1 .107-.432l.01-.03q.034-.095.076-.188l.014-.032q.042-.09.091-.18l.015-.026q.051-.09.11-.176l.009-.012q.06-.087.125-.168l.008-.01a2.6 2.6 0 0 1 .304-.312l.026-.022a2.6 2.6 0 0 1 .353-.255l.017-.01q.09-.055.187-.101l.006-.003q.095-.046.195-.085l.025-.01q.096-.035.195-.064l.034-.01q.099-.026.2-.046l.034-.006a2.4 2.4 0 0 1 .462-.041zM21.094 13.066a.88.88 0 1 1-.002 1.76.88.88 0 0 1 .002-1.76M2.637 49.512a.88.88 0 1 1 .001-1.76.88.88 0 0 1-.001 1.76m43.125 5.097v.996a2.64 2.64 0 0 1-2.637 2.637h-26.25a2.64 2.64 0 0 1-2.637-2.636v-.997zM42.246 26.51H39.69c-.614 0-1.114.5-1.114 1.113v8.565H37.53a.879.879 0 1 0 0 1.758h1.046v1.758h-17.15v-1.758h12.364a.879.879 0 1 0 0-1.758H21.425v-8.565c0-.614-.5-1.113-1.114-1.113h-2.557v-1.977L30 15.765l9.165 6.562.015.011 3.066 2.195zm15.117-9.576a.88.88 0 1 1 .002-1.76.88.88 0 0 1-.002 1.76"/><path d="M33.215 29.506a5.3 5.3 0 0 0-3.21-1.072 5.3 5.3 0 0 0-3.218 1.078.879.879 0 0 0 1.059 1.402 3.55 3.55 0 0 1 2.159-.723c.784 0 1.528.249 2.153.719a.878.878 0 1 0 1.057-1.404"/><path d="M34.474 27.23a7.38 7.38 0 0 0-4.47-1.494c-1.632 0-3.18.52-4.48 1.5a.879.879 0 1 0 1.06 1.403 5.63 5.63 0 0 1 3.42-1.145 5.63 5.63 0 0 1 3.413 1.14.879.879 0 1 0 1.057-1.404"/><path d="M35.685 25.023a9.37 9.37 0 0 0-5.681-1.9c-2.073 0-4.04.66-5.69 1.906a.879.879 0 1 0 1.06 1.402 7.62 7.62 0 0 1 4.63-1.55c1.683 0 3.282.534 4.623 1.545a.878.878 0 1 0 1.058-1.403M30.879 32.615a.879.879 0 1 1-1.758 0 .879.879 0 0 1 1.758 0"/></g><defs><clipPath id="a"><path fill="#fff" d="M0 0h60v60H0z"/></clipPath></defs></svg>