<svg xmlns="http://www.w3.org/2000/svg" width="60" height="60" fill="none"><g fill="#282928" clip-path="url(#a)"><path d="M57.21 0H30.71a.879.879 0 1 0 0 1.758H57.21c.569 0 1.032.463 1.032 1.032V7.46H1.758V2.79c0-.569.463-1.032 1.032-1.032h23.82a.879.879 0 1 0 0-1.758H2.79A2.793 2.793 0 0 0 0 2.79v25.095a.879.879 0 1 0 1.758 0V9.216h56.484v40.815c0 .57-.463 1.032-1.032 1.032H35.663a.879.879 0 1 0 0 1.758H57.21a2.793 2.793 0 0 0 2.79-2.79V2.79A2.793 2.793 0 0 0 57.21 0"/><path d="M31.56 51.063h-6.595a1.5 1.5 0 0 0 .746-.408l1.707-1.707a1.52 1.52 0 0 0 .447-1.081c0-.293-.083-.573-.236-.815L29.406 45a17.7 17.7 0 0 0 9.545 2.77c8.98 0 16.587-6.711 17.695-15.61a.879.879 0 1 0-1.744-.216c-.999 8.02-7.857 14.068-15.952 14.068-8.634.176-16.249-7.441-16.074-16.075 0-8.864 7.211-16.075 16.074-16.075 8.157 0 15.021 6.1 15.966 14.19a.88.88 0 0 0 1.746-.203C55.614 18.872 48 12.104 38.95 12.104a17.77 17.77 0 0 0-12.333 4.964h-8.775a.879.879 0 1 0 0 1.758h7.17a18 18 0 0 0-1.904 2.93h-5.266a.879.879 0 1 0 0 1.758h4.473a17.7 17.7 0 0 0-.898 3.167h-3.575a.879.879 0 1 0 0 1.758h3.34q-.064.741-.064 1.497c0 3.41.956 6.692 2.769 9.545l-2.053 1.776a1.53 1.53 0 0 0-1.896.212l-1.706 1.706a1.52 1.52 0 0 0-.382 1.53c-.162.147-7.198 6.214-7.34 6.359H2.79c-.569 0-1.032-.464-1.032-1.033V31.987a.879.879 0 1 0-1.758 0V50.03a2.793 2.793 0 0 0 2.79 2.79h6.503a5.2 5.2 0 0 0-.403 1.819 5.2 5.2 0 0 0 1.512 3.845 5.2 5.2 0 0 0 3.845 1.512 5.2 5.2 0 0 0 3.726-1.785l4.665-5.39h8.923a.879.879 0 1 0 0-1.759m-6.652-10.14a17.9 17.9 0 0 0 3.056 3.056l-1.555 1.798-3.3-3.299zm-8.264 16.139a3.38 3.38 0 0 1-2.46 1.178 3.37 3.37 0 0 1-2.54-.998 3.38 3.38 0 0 1-.998-2.539 3.38 3.38 0 0 1 1.179-2.46l7.137-6.175 3.857 3.857zm2.993-12.805 1.383-1.383 4.993 4.993-1.383 1.383z"/><path d="M12.223 32.889a.88.88 0 0 0 .879-.88V13.26a.879.879 0 1 0-1.758 0v18.75c0 .486.393.88.879.88M11.344 46.785a.879.879 0 1 0 1.758 0V37.41a.879.879 0 1 0-1.758 0zM4.93 14.139h3.998a.879.879 0 1 0 0-1.758H4.93a.879.879 0 1 0 0 1.758M4.93 18.826h3.998a.879.879 0 1 0 0-1.758H4.93a.879.879 0 1 0 0 1.758M4.93 23.514h3.998a.879.879 0 1 0 0-1.758H4.93a.879.879 0 1 0 0 1.758M4.93 32.889h3.998a.879.879 0 1 0 0-1.758H4.93a.879.879 0 1 0 0 1.758M4.93 42.977h3.998a.879.879 0 1 0 0-1.758H4.93a.879.879 0 1 0 0 1.758M4.93 47.664h3.998a.879.879 0 1 0 0-1.758H4.93a.879.879 0 1 0 0 1.758M20.073 14.139a.879.879 0 1 0 0-1.758H15.5a.879.879 0 1 0 0 1.758zM38.952 15.732c-7.83 0-14.202 6.372-14.202 14.203s6.371 14.202 14.202 14.202 14.203-6.371 14.203-14.202-6.372-14.203-14.203-14.203m-4.814 11.9h17.044a12.5 12.5 0 0 1 .184 3.168h-7.923a.879.879 0 1 0 0 1.757h7.675a12.4 12.4 0 0 1-1.154 3.168H34.139a.879.879 0 1 0 0 1.758h14.7c-2.275 2.974-5.86 4.896-9.886 4.896-6.862 0-12.444-5.582-12.444-12.444 0-2.694.86-5.19 2.32-7.23h6.836a.879.879 0 1 0 0-1.757h-5.312a12.4 12.4 0 0 1 8.6-3.458c5.441 0 10.077 3.51 11.764 8.384H34.138a.879.879 0 1 0 0 1.758"/><path d="M34.137 32.559h5.203a.879.879 0 1 0 0-1.758h-5.203a.879.879 0 1 0 0 1.758M4.93 5.486a.879.879 0 1 0 0-1.757.879.879 0 0 0 0 1.757M8.93 5.486a.879.879 0 1 0 0-1.757.879.879 0 0 0 0 1.757M12.926 5.486a.879.879 0 1 0 0-1.757.879.879 0 0 0 0 1.757"/></g><defs><clipPath id="a"><path fill="#fff" d="M0 0h60v60H0z"/></clipPath></defs></svg>