<svg xmlns="http://www.w3.org/2000/svg" width="60" height="60" fill="none"><path fill="#282928" d="M55.532 4.899H27.877v-1.98A1.913 1.913 0 0 0 25.974 1H10.43c-1.05 0-1.904.86-1.904 1.918v1.98H4.468C2.556 4.899 1 6.468 1 8.395v35.54c0 1.927 1.556 3.495 3.468 3.495h18l-2.94 6.026h-3.886c-1.517 0-2.751 1.244-2.751 2.772 0 1.53 1.234 2.773 2.751 2.773h28.716c1.517 0 2.751-1.244 2.751-2.773 0-1.528-1.234-2.772-2.751-2.772H40.47l-2.94-6.026h18c1.913 0 3.469-1.568 3.469-3.495V8.394c0-1.927-1.556-3.495-3.468-3.495m-1.684 5.192v15.213H30.853V10.091zM30.853 27.023h22.995v15.214H30.853zm-1.706 15.214H6.153V10.091h2.373v3.129c0 1.057.854 1.918 1.904 1.918h9.843l3.082 3.794c.26.32.62.495.992.495q.168 0 .335-.048c.535-.156.894-.637.894-1.197v-3.044h.398c1.05 0 1.903-.86 1.903-1.919v-3.128h1.27zM10.232 2.918c0-.108.09-.199.198-.199h15.544c.107 0 .197.091.197.2v10.3c0 .109-.09.2-.197.2h-1.251a.856.856 0 0 0-.853.86v2.573l-2.533-3.118a.85.85 0 0 0-.66-.315H10.43a.2.2 0 0 1-.198-.2zm35.171 53.31a1.05 1.05 0 0 1-1.045 1.053H15.642a1.05 1.05 0 0 1-1.045-1.053c0-.581.469-1.054 1.045-1.054h28.716a1.05 1.05 0 0 1 1.045 1.053m-6.832-2.773H21.43l2.94-6.026h11.26zm18.723-9.52c0 .978-.79 1.775-1.762 1.775H4.468a1.77 1.77 0 0 1-1.762-1.776V8.394c0-.98.79-1.776 1.762-1.776h4.058v1.754H5.3a.856.856 0 0 0-.853.86v33.865c0 .474.381.859.853.859h49.4a.856.856 0 0 0 .854-.86V9.231a.856.856 0 0 0-.853-.86H27.877V6.619h27.655c.972 0 1.762.796 1.762 1.776zM45.326 33.652c.415-.59.66-1.307.66-2.081a3.637 3.637 0 0 0-7.271 0c0 .774.244 1.491.66 2.081a4.84 4.84 0 0 0-2.767 4.367v2.13c0 .644.52 1.168 1.159 1.168h9.167c.638 0 1.158-.524 1.158-1.168v-2.13a4.84 4.84 0 0 0-2.766-4.367m-2.976-3.991c1.064 0 1.93.857 1.93 1.91s-.866 1.91-1.93 1.91a1.92 1.92 0 0 1-1.93-1.91c0-1.053.866-1.91 1.93-1.91m4.036 9.937h-8.072V38.02c0-1.563 1.17-2.883 2.693-3.077a3.62 3.62 0 0 0 2.687 0c1.522.194 2.692 1.514 2.692 3.077zm-8.619-15.214h9.167c.639 0 1.158-.524 1.158-1.167v-2.13a4.84 4.84 0 0 0-2.766-4.367c.415-.59.66-1.308.66-2.082a3.636 3.636 0 0 0-7.271 0c0 .774.244 1.492.66 2.082a4.84 4.84 0 0 0-2.767 4.366v2.13c0 .644.52 1.168 1.159 1.168M42.35 12.73c1.064 0 1.93.857 1.93 1.91 0 1.054-.866 1.91-1.93 1.91a1.92 1.92 0 0 1-1.93-1.91c0-1.053.866-1.91 1.93-1.91m-4.036 8.358c0-1.562 1.17-2.883 2.693-3.076a3.62 3.62 0 0 0 2.686 0c1.523.193 2.693 1.514 2.693 3.076v1.58h-8.072zM21.597 24.81a5.28 5.28 0 0 0 1.377-3.56c0-2.928-2.388-5.31-5.324-5.31s-5.324 2.382-5.324 5.31c0 1.368.522 2.617 1.377 3.56a7.25 7.25 0 0 0-4.762 6.8v3.423a1.35 1.35 0 0 0 1.345 1.355h14.728a1.35 1.35 0 0 0 1.344-1.355v-3.422a7.25 7.25 0 0 0-4.761-6.801m-3.947-7.151c1.995 0 3.618 1.61 3.618 3.59s-1.623 3.592-3.618 3.592-3.618-1.611-3.618-3.591 1.623-3.591 3.618-3.591m7.003 17.01H10.647V31.61c0-2.822 2.148-5.196 4.918-5.476.64.273 1.345.424 2.085.424s1.444-.151 2.085-.424c2.77.28 4.917 2.654 4.917 5.475zm-13.324-26.6c0-.475.382-.86.853-.86h12.04c.47 0 .852.385.852.86s-.381.86-.852.86h-12.04a.856.856 0 0 1-.853-.86m0-3.105c0-.475.382-.86.853-.86h12.04c.47 0 .852.385.852.86s-.381.86-.852.86h-12.04a.856.856 0 0 1-.853-.86m0 6.21c0-.475.382-.86.853-.86h12.04c.47 0 .852.385.852.86 0 .474-.381.859-.852.859h-12.04a.856.856 0 0 1-.853-.86"/></svg>