<svg xmlns="http://www.w3.org/2000/svg" width="60" height="60" fill="none"><path fill="#282928" d="m56.675 36.093-1.986-1.147a25.18 25.18 0 0 0 .502-4.947c0-1.651-.166-3.314-.494-4.953l1.978-1.142a2.63 2.63 0 0 0 1.234-1.609 2.63 2.63 0 0 0-.264-2.01l-5.41-9.37a2.63 2.63 0 0 0-1.608-1.233 2.63 2.63 0 0 0-2.01.264l-1.98 1.143a25.3 25.3 0 0 0-8.577-4.962V3.852a2.65 2.65 0 0 0-2.648-2.649h-10.82a2.65 2.65 0 0 0-2.648 2.649v2.275a25.35 25.35 0 0 0-8.565 4.97l-1.992-1.15a2.63 2.63 0 0 0-2.01-.265 2.63 2.63 0 0 0-1.607 1.234l-5.41 9.37a2.63 2.63 0 0 0-.265 2.01 2.63 2.63 0 0 0 1.234 1.608l1.987 1.146a25 25 0 0 0-.503 4.948c0 1.65.167 3.314.494 4.953L3.33 36.093a2.65 2.65 0 0 0-.97 3.618l5.41 9.37a2.65 2.65 0 0 0 3.618.97l1.98-1.144a25.4 25.4 0 0 0 8.577 4.963v2.275a2.65 2.65 0 0 0 2.649 2.649h10.819a2.65 2.65 0 0 0 2.648-2.649V53.87a25.35 25.35 0 0 0 8.566-4.968l1.991 1.15a2.65 2.65 0 0 0 3.618-.97l5.41-9.37a2.65 2.65 0 0 0-.97-3.618m-.494 2.773-5.41 9.37a.96.96 0 0 1-1.309.35L46.94 47.13a.845.845 0 0 0-.997.112c-2.58 2.386-5.684 4.187-8.977 5.207a.845.845 0 0 0-.595.807v2.89c0 .529-.43.958-.958.958h-10.82a.96.96 0 0 1-.957-.958v-2.89a.845.845 0 0 0-.595-.807 23.6 23.6 0 0 1-8.989-5.2.845.845 0 0 0-.997-.112l-2.512 1.45a.96.96 0 0 1-1.308-.35l-5.41-9.37a.96.96 0 0 1 .35-1.309l2.51-1.449a.845.845 0 0 0 .403-.918A23.6 23.6 0 0 1 6.505 30c0-1.702.199-3.447.591-5.187a.845.845 0 0 0-.402-.918L4.175 22.44a.95.95 0 0 1-.447-.582.95.95 0 0 1 .096-.727l5.41-9.37a.95.95 0 0 1 .581-.446.95.95 0 0 1 .727.095l2.524 1.457c.32.186.725.14.996-.111 2.58-2.386 5.685-4.187 8.978-5.207a.845.845 0 0 0 .595-.807v-2.89a.96.96 0 0 1 .958-.958h10.82a.96.96 0 0 1 .957.958v2.89c0 .37.241.698.595.807a23.6 23.6 0 0 1 8.989 5.2.845.845 0 0 0 .996.112l2.512-1.45a.95.95 0 0 1 .727-.096.95.95 0 0 1 .582.446l5.41 9.37c.128.221.162.48.096.727a.95.95 0 0 1-.447.582l-2.51 1.449a.845.845 0 0 0-.402.918c.387 1.714.583 3.46.583 5.192 0 1.701-.199 3.446-.591 5.186a.85.85 0 0 0 .401.918l2.52 1.454a.96.96 0 0 1 .35 1.309"/><path fill="#282928" d="M30.002 12.922c-9.415 0-17.074 7.66-17.074 17.074s7.66 17.075 17.074 17.075 17.074-7.66 17.074-17.075-7.659-17.074-17.074-17.074m0 32.458c-8.482 0-15.384-6.901-15.384-15.384 0-8.482 6.902-15.384 15.384-15.384 8.483 0 15.384 6.902 15.384 15.384 0 8.483-6.901 15.384-15.384 15.384"/><path fill="#282928" d="M33.157 25.547h-3.155a.845.845 0 0 0-.846.845v7.213a.845.845 0 0 0 1.69 0v-1.86h2.311c1.71 0 3.1-1.39 3.1-3.099s-1.39-3.1-3.1-3.1m0 4.508h-2.31v-2.818h2.31a1.41 1.41 0 0 1 1.409 1.41 1.41 1.41 0 0 1-1.409 1.408m-7.773-3.959a.845.845 0 0 0-.791-.548h-.902a.845.845 0 0 0-.791.548l-2.705 7.213a.845.845 0 0 0 1.583.594l.47-1.255h3.787l.47 1.255a.845.845 0 1 0 1.584-.594zm-2.502 4.862 1.26-3.36 1.26 3.36zm15.235-5.41a.845.845 0 0 0-.845.845v7.213a.845.845 0 1 0 1.69 0v-7.213a.845.845 0 0 0-.845-.845m-2.069-14.506a19.71 19.71 0 0 1 1.738.646.84.84 0 0 0 1.109-.447.845.845 0 0 0-.447-1.109 22 22 0 0 0-1.887-.7.845.845 0 0 0-.513 1.61M12.529 39.51a.845.845 0 0 0-1.484.81c.35.643.739 1.276 1.154 1.88a.844.844 0 1 0 1.393-.957c-.382-.557-.74-1.14-1.063-1.732M28.27 49.816a19.9 19.9 0 0 1-12.106-5.527.845.845 0 1 0-1.176 1.214A21.6 21.6 0 0 0 28.125 51.5q.037.003.073.003a.845.845 0 0 0 .072-1.687m13.896-37.649a.845.845 0 0 0-.954 1.396 19.92 19.92 0 0 1 7.999 11.245.846.846 0 0 0 1.632-.44 21.6 21.6 0 0 0-8.677-12.201"/></svg>