<svg xmlns="http://www.w3.org/2000/svg" width="60" height="60" fill="none"><path fill="#282928" d="M30 11a19 19 0 1 0 19 19 19.02 19.02 0 0 0-19-19m0 36.1A17.1 17.1 0 1 1 47.1 30 17.12 17.12 0 0 1 30 47.1"/><path fill="#282928" d="M58.855 27.264a2.71 2.71 0 0 0-2.258-2.335l-3.077-.503a23.9 23.9 0 0 0-2.95-7.106l1.817-2.538a2.71 2.71 0 0 0-.056-3.262 24 24 0 0 0-1.837-2.017 27 27 0 0 0-2.03-1.852 2.69 2.69 0 0 0-3.239-.037l-2.542 1.82a23.9 23.9 0 0 0-7.106-2.95l-.504-3.076a2.71 2.71 0 0 0-2.347-2.26 25.4 25.4 0 0 0-5.463 0 2.71 2.71 0 0 0-2.334 2.257l-.504 3.079a23.9 23.9 0 0 0-7.106 2.95l-2.538-1.817a2.696 2.696 0 0 0-3.262.05q-1.05.863-2.007 1.826a24 24 0 0 0-1.854 2.037 2.7 2.7 0 0 0-.046 3.248l1.82 2.542a23.9 23.9 0 0 0-2.95 7.106l-3.076.503a2.71 2.71 0 0 0-2.261 2.347 25.8 25.8 0 0 0 0 5.465 2.71 2.71 0 0 0 2.258 2.332l3.077.503a23.9 23.9 0 0 0 2.95 7.106l-1.806 2.527a2.71 2.71 0 0 0 .047 3.273A27 27 0 0 0 9.508 50.5q.963.983 2.03 1.852a2.664 2.664 0 0 0 3.239.038l2.541-1.82a23.9 23.9 0 0 0 7.106 2.95l.504 3.075a2.706 2.706 0 0 0 2.347 2.261c1.816.193 3.647.193 5.463 0a2.71 2.71 0 0 0 2.334-2.258l.504-3.077a23.9 23.9 0 0 0 7.106-2.95l2.538 1.818a2.67 2.67 0 0 0 3.274-.061q1.053-.857 2.005-1.825a28 28 0 0 0 1.852-2.038 2.696 2.696 0 0 0 .038-3.238l-1.82-2.542a23.9 23.9 0 0 0 2.95-7.106l3.076-.503a2.71 2.71 0 0 0 2.261-2.347 26 26 0 0 0 0-5.45zm-1.92 5.25a.78.78 0 0 1-.652.647l-3.722.61a.97.97 0 0 0-.79.759 22 22 0 0 1-3.175 7.65.97.97 0 0 0 .022 1.093l2.21 3.093a.765.765 0 0 1 .01.895 25 25 0 0 1-1.706 1.873 23 23 0 0 1-1.85 1.688.76.76 0 0 1-.933 0l-3.073-2.2a.97.97 0 0 0-1.092-.022 22 22 0 0 1-7.651 3.176.97.97 0 0 0-.76.79l-.61 3.722a.76.76 0 0 1-.631.648 23.68 23.68 0 0 1-5.05 0 .76.76 0 0 1-.644-.651l-.61-3.722a.97.97 0 0 0-.759-.79 22 22 0 0 1-7.648-3.178.97.97 0 0 0-1.092.022l-3.076 2.202a.76.76 0 0 1-.897.027 22 22 0 0 1-1.884-1.715 25 25 0 0 1-1.688-1.851.77.77 0 0 1 0-.93l2.199-3.075a.97.97 0 0 0 .022-1.092 22 22 0 0 1-3.175-7.65.97.97 0 0 0-.79-.76l-3.723-.61a.78.78 0 0 1-.648-.631c-.18-1.678-.18-3.37 0-5.049a.76.76 0 0 1 .651-.645l3.722-.61a.97.97 0 0 0 .79-.758 22 22 0 0 1 3.174-7.648.97.97 0 0 0-.022-1.092l-2.202-3.08a.77.77 0 0 1-.018-.907 22 22 0 0 1 1.706-1.873 25 25 0 0 1 1.85-1.688.77.77 0 0 1 .933 0l3.073 2.2a.97.97 0 0 0 1.092.022 22 22 0 0 1 7.651-3.176.97.97 0 0 0 .76-.79l.609-3.722a.76.76 0 0 1 .632-.648 23.7 23.7 0 0 1 5.05 0 .76.76 0 0 1 .644.651l.61 3.722a.97.97 0 0 0 .759.79 22 22 0 0 1 7.648 3.177.97.97 0 0 0 1.092-.023l3.076-2.202a.77.77 0 0 1 .909-.017q.985.81 1.883 1.715.896.877 1.686 1.852a.77.77 0 0 1-.013.92l-2.199 3.074a.97.97 0 0 0-.022 1.092 22 22 0 0 1 3.175 7.65.97.97 0 0 0 .79.76l3.723.61a.76.76 0 0 1 .65.638 23.8 23.8 0 0 1 0 5.04z"/><path fill="#282928" d="M20 25a2 2 0 0 1 2 2 1 1 0 0 0 2 0 4 4 0 1 0-8 0v6a4 4 0 1 0 8 0 1 1 0 0 0-2 0 2 2 0 0 1-4 0v-6a2 2 0 0 1 2-2m13.179-1.984a1 1 0 0 0-1.116.632L30 29.152l-2.063-5.5A1 1 0 0 0 26 24v12a1 1 0 0 0 2 0v-6.485l1.063 2.837a1 1 0 0 0 1.874 0L32 29.515V36a1 1 0 0 0 2 0V24a1 1 0 0 0-.821-.984M36 27a4 4 0 0 0 4 4 2 2 0 1 1-2 2 1 1 0 0 0-2 0 4 4 0 1 0 4-4 2 2 0 1 1 2-2 1 1 0 0 0 2 0 4 4 0 1 0-8 0"/></svg>