<svg xmlns="http://www.w3.org/2000/svg" width="60" height="60" fill="none"><g fill="#000" clip-path="url(#a)"><path d="M32.813 42.188h1.874v1.874h-1.874zM25.313 42.188h1.875v1.874h-1.875zM29.063 42.188h1.875v1.874h-1.875zM30 17.813c-5.17 0-9.375 4.205-9.375 9.375 0 5.169 4.206 9.375 9.375 9.375 5.17 0 9.375-4.206 9.375-9.376S35.169 17.813 30 17.813m0 16.875c-.293 0-.922-.96-1.37-2.813h2.74c-.448 1.853-1.077 2.813-1.37 2.813M28.295 30a21 21 0 0 1-.151-1.875h3.714c-.025.678-.08 1.3-.15 1.875zM30 19.688c.293 0 .922.959 1.37 2.812h-2.74c.448-1.853 1.077-2.812 1.37-2.812m1.705 4.687c.073.576.126 1.197.151 1.875h-3.714c.025-.678.08-1.3.15-1.875zm-5.437 1.875h-3.703a7.4 7.4 0 0 1 .487-1.875h3.355c-.069.616-.117 1.244-.14 1.875m-3.703 1.875h3.703c.022.63.07 1.26.14 1.875h-3.356a7.5 7.5 0 0 1-.487-1.875m11.167 0h3.703A7.4 7.4 0 0 1 36.948 30h-3.355c.069-.616.117-1.244.14-1.875m0-1.875c-.022-.63-.07-1.26-.14-1.875h3.356c.24.592.405 1.22.487 1.875zm2.113-3.75h-2.549c-.18-.862-.412-1.66-.705-2.342a7.53 7.53 0 0 1 3.254 2.342m-8.436-2.342c-.293.682-.525 1.48-.705 2.342h-2.55a7.53 7.53 0 0 1 3.255-2.342m-3.254 11.717h2.549c.18.862.412 1.66.705 2.342a7.53 7.53 0 0 1-3.254-2.342m8.436 2.342c.293-.682.525-1.48.705-2.342h2.55a7.53 7.53 0 0 1-3.255 2.342"/><path d="M59.063 14.779V9.597l-2.461-.673a9 9 0 0 0-.269-.641l1.266-2.22-3.664-3.662-2.217 1.267a10 10 0 0 0-.642-.269L50.403.938h-5.18l-.674 2.46q-.324.122-.642.269L41.69 2.4l-3.664 3.663 1.266 2.219a10 10 0 0 0-.269.641l-2.46.673v.716H23.437V.938H.938v18.75h3.75v10.801A8.43 8.43 0 0 0 .938 37.5v.18a8.47 8.47 0 0 0 1.85 5.273l1.9 2.376v1.546a4.693 4.693 0 0 0 4.688 4.688 4.696 4.696 0 0 0 4.593-3.75h6.394l-1.407 5.624h-3.017a2.816 2.816 0 0 0-2.813 2.813v2.813h33.75V56.25a2.816 2.816 0 0 0-2.812-2.812h-3.018l-1.407-5.626h10.987a4.696 4.696 0 0 0 4.593-3.75h1.032a2.816 2.816 0 0 0 2.813-2.812v-7.5a2.816 2.816 0 0 0-2.813-2.812h-.937v-10.34l2.286-2.287-1.266-2.219q.147-.319.269-.641zm-9.376 14.833-1.761-1.763a2.29 2.29 0 0 0-1.6-.662 2.266 2.266 0 0 0-2.264 2.264v1.486h-.937a2.816 2.816 0 0 0-2.812 2.813v4.688H17.777a9 9 0 0 0 .035-.757V37.5c0-4.336-3.287-7.914-7.5-8.382v-9.43h13.126v-3.75h15.789c.022.051.041.103.065.154l-1.266 2.22 3.664 3.662 2.217-1.267q.318.147.642.269l.673 2.462h4.465zM21.564 16.909l-5.955-4.331a5 5 0 0 0 .33-.39l5.624-7.5zm-7.125-5.846a2.82 2.82 0 0 1-2.25 1.124c-.88 0-1.723-.42-2.25-1.124l-6.189-8.25h16.876zm-6 1.125q.154.205.33.39l-5.956 4.33V4.689zm1.972 1.515a4.7 4.7 0 0 0 1.777.36c.616 0 1.218-.13 1.778-.36l5.652 4.11H4.757zm26.153-1.515v1.874H23.437v-1.874zm-30 7.5h1.875v9.43a8.4 8.4 0 0 0-1.876.437zM4.25 41.78a6.6 6.6 0 0 1-1.439-4.1V37.5a6.57 6.57 0 0 1 6.563-6.562 6.57 6.57 0 0 1 6.563 6.562v.18c0 1.485-.511 2.942-1.439 4.1l-1.824 2.282h-2.363V40.14a2.81 2.81 0 0 0 1.876-2.64 2.816 2.816 0 0 0-2.813-2.812A2.816 2.816 0 0 0 6.563 37.5c0 1.22.786 2.252 1.875 2.64v3.922H6.075zM8.438 37.5a.938.938 0 0 1 1.874 0 .938.938 0 0 1-1.874 0m.937 12.188a2.816 2.816 0 0 1-2.812-2.813v-.937h5.625v.937a2.816 2.816 0 0 1-2.813 2.813M45 56.25v.938H15v-.938c0-.517.42-.937.938-.937h28.124c.517 0 .938.42.938.937m-5.888-2.812H20.888l1.407-5.626h15.41zm11.513-7.5H14.063v-.609l1.9-2.376a8.4 8.4 0 0 0 1.421-2.64h22.929v.938a2.816 2.816 0 0 0 2.812 2.812h10.14a2.81 2.81 0 0 1-2.64 1.874m6.563-12.188v7.5c0 .517-.421.938-.938.938H43.125a.94.94 0 0 1-.937-.938v-7.5c0-.517.42-.937.937-.937h2.813V29.45c0-.316.437-.498.662-.275l3.637 3.637h6.013c.517 0 .938.42.938.937m-5.626-2.812V20.773q.079-.031.156-.065l1.72.982v9.247zm3.57-17.028-.152.49c-.133.431-.313.864-.537 1.286l-.24.455 1.059 1.855-1.64 1.64-1.856-1.06-.456.242c-.417.222-.85.403-1.283.537l-.492.15-.563 2.058h-2.32l-.562-2.056-.492-.151a7.5 7.5 0 0 1-1.283-.537l-.456-.241-1.855 1.059-1.64-1.64 1.058-1.855-.24-.455a7.5 7.5 0 0 1-.537-1.285l-.152-.491-2.056-.565v-2.318l2.056-.564.152-.49c.133-.431.313-.864.537-1.286l.24-.455-1.059-1.855 1.64-1.64 1.856 1.06.456-.242c.417-.222.85-.403 1.283-.537l.492-.15.563-2.056h2.32l.562 2.055.492.151c.434.135.866.315 1.283.537l.456.242 1.855-1.06 1.64 1.64-1.058 1.855.24.455c.224.422.404.855.537 1.285l.152.491 2.056.565v2.318z"/><path d="M47.813 6.563a5.63 5.63 0 0 0-5.626 5.625 5.63 5.63 0 0 0 5.626 5.624 5.63 5.63 0 0 0 5.624-5.625 5.63 5.63 0 0 0-5.624-5.624m0 9.375a3.754 3.754 0 0 1-3.75-3.75 3.754 3.754 0 0 1 3.75-3.75 3.754 3.754 0 0 1 3.75 3.75 3.754 3.754 0 0 1-3.75 3.75M44.063 38.438h7.5v1.874h-7.5zM53.438 38.438h1.874v1.874h-1.874zM44.063 34.688h11.25v1.874h-11.25z"/></g><defs><clipPath id="a"><path fill="#fff" d="M0 0h60v60H0z"/></clipPath></defs></svg>