<svg xmlns="http://www.w3.org/2000/svg" width="60" height="60" fill="none"><g clip-path="url(#a)"><path fill="#000" d="M48.052 37.042c-6.07 0-11.01 4.94-11.01 11.01 0 6.071 4.94 11.01 11.01 11.01 6.071 0 11.01-4.939 11.01-11.01s-4.939-11.01-11.01-11.01m0 20.146c-5.037 0-9.135-4.099-9.135-9.136s4.098-9.135 9.135-9.135c5.038 0 9.136 4.098 9.136 9.135 0 5.038-4.099 9.136-9.136 9.136m3.357-7.198a.937.937 0 0 1-1.281.343l-2.544-1.469a.94.94 0 0 1-.47-.812v-3.81a.938.938 0 0 1 1.876 0v3.269l2.075 1.198a.94.94 0 0 1 .344 1.281m-4.294-9.088v-.87a.937.937 0 1 1 1.875 0v.87a.938.938 0 0 1-1.875 0m5.33 2.757a.94.94 0 0 1 0-1.326l.615-.614a.938.938 0 0 1 1.326 1.326l-.615.614a.935.935 0 0 1-1.325 0m1.941 9.401a.937.937 0 1 1-1.326 1.326l-.615-.615a.937.937 0 1 1 1.326-1.325zm-10.727-.614a.937.937 0 0 1 0 1.325l-.614.615a.934.934 0 0 1-1.326 0 .937.937 0 0 1 0-1.326l.614-.614a.94.94 0 0 1 1.326 0m0-10.113a.937.937 0 1 1-1.326 1.326l-.614-.614a.937.937 0 1 1 1.326-1.326zm13.35 5.72c0 .517-.42.937-.937.937h-.87a.938.938 0 0 1 0-1.875h.87c.518 0 .938.42.938.937m-8.02 7.15v.869a.938.938 0 0 1-1.874 0v-.87a.938.938 0 0 1 1.875 0m-8.087-6.213h-.87a.938.938 0 0 1 0-1.875h.87a.938.938 0 0 1 0 1.875M7.807 14.884a.938.938 0 0 1 1.82-.453c.29 1.164 1.491 1.554 2.43 1.529.822-.02 1.585-.302 1.947-.72.195-.226.268-.487.227-.821-.068-.563-.406-1.25-2.426-1.582-2.944-.484-3.63-2.014-3.689-3.213-.08-1.659 1.07-3.046 2.861-3.452l.034-.008v-.59a.937.937 0 1 1 1.875 0v.582c1.178.243 2.307.977 2.892 2.37a.937.937 0 1 1-1.729.725c-.49-1.169-1.688-1.47-2.657-1.25-.707.16-1.446.646-1.403 1.532.015.305.054 1.114 2.12 1.454 2.433.4 3.774 1.478 3.983 3.206.105.86-.127 1.646-.67 2.274-.573.663-1.489 1.123-2.536 1.295v.56a.938.938 0 0 1-1.875 0v-.575c-1.602-.305-2.832-1.372-3.204-2.863m4.14 8.074c6.072 0 11.011-4.939 11.011-11.01S18.02.938 11.948.938.938 5.877.938 11.948s4.939 11.01 11.01 11.01m0-20.145c5.038 0 9.136 4.098 9.136 9.135s-4.098 9.135-9.135 9.135-9.135-4.098-9.135-9.135 4.098-9.135 9.135-9.135M39.6 37.469a.94.94 0 0 0 .194-1.043l-.608-1.37a10.4 10.4 0 0 0 .886-2.136l1.398-.538c.362-.14.6-.487.6-.875v-3.014a.94.94 0 0 0-.6-.875l-1.397-.537a10.4 10.4 0 0 0-.887-2.138l.608-1.37a.94.94 0 0 0-.194-1.043l-2.13-2.13a.94.94 0 0 0-1.044-.194l-1.37.608a10.4 10.4 0 0 0-2.136-.886l-.538-1.398a.94.94 0 0 0-.875-.6h-3.014a.94.94 0 0 0-.874.6l-.538 1.398c-.744.215-1.46.511-2.137.886l-1.37-.608a.94.94 0 0 0-1.044.194l-2.13 2.13a.94.94 0 0 0-.194 1.044l.608 1.37a10.4 10.4 0 0 0-.886 2.136l-1.398.538a.94.94 0 0 0-.6.875v3.014c0 .387.238.735.6.875l1.397.537c.216.744.512 1.46.887 2.138l-.608 1.37a.94.94 0 0 0 .194 1.043l2.13 2.13a.94.94 0 0 0 1.044.194l1.37-.608c.678.374 1.393.671 2.136.886l.538 1.398c.14.362.487.6.875.6h3.014a.94.94 0 0 0 .875-.6l.537-1.398c.744-.215 1.46-.511 2.138-.886l1.37.608c.354.158.768.08 1.043-.194zm-3 .35-1.22-.541a.94.94 0 0 0-.872.059A8.6 8.6 0 0 1 32 38.377a.94.94 0 0 0-.658.575l-.479 1.243h-1.726l-.479-1.244a.94.94 0 0 0-.658-.575 8.6 8.6 0 0 1-2.507-1.04.94.94 0 0 0-.872-.058l-1.22.541-1.22-1.22.541-1.219a.94.94 0 0 0-.059-.872A8.6 8.6 0 0 1 21.624 32a.94.94 0 0 0-.575-.658l-1.243-.48v-1.725l1.244-.479a.94.94 0 0 0 .575-.658c.21-.886.56-1.73 1.04-2.508a.94.94 0 0 0 .058-.872l-.541-1.219 1.22-1.22 1.22.541a.94.94 0 0 0 .872-.058A8.6 8.6 0 0 1 28 21.624a.94.94 0 0 0 .658-.575l.479-1.244h1.726l.479 1.244a.94.94 0 0 0 .658.575 8.6 8.6 0 0 1 2.507 1.04c.264.162.59.184.872.058l1.22-.542 1.22 1.22-.541 1.22a.94.94 0 0 0 .059.872c.479.778.828 1.622 1.04 2.508.071.3.286.547.575.658l1.243.479v1.726l-1.244.479a.94.94 0 0 0-.575.658 8.6 8.6 0 0 1-1.04 2.507.94.94 0 0 0-.058.872l.541 1.22zM30 23.348A6.66 6.66 0 0 0 23.348 30 6.66 6.66 0 0 0 30 36.652 6.66 6.66 0 0 0 36.652 30 6.66 6.66 0 0 0 30 23.348m0 11.429A4.78 4.78 0 0 1 25.223 30 4.78 4.78 0 0 1 30 25.223 4.78 4.78 0 0 1 34.777 30 4.78 4.78 0 0 1 30 34.777M23.99 8.05a.94.94 0 0 1 .702-1.125C35.7 4.382 47.029 10.037 51.63 20.374a23.55 23.55 0 0 1 1.96 11.665l.88-.909a.937.937 0 1 1 1.347 1.304L52.9 35.448a.938.938 0 0 1-1.469-.154l-2.226-3.556a.937.937 0 0 1 1.589-.995l.899 1.436a21.7 21.7 0 0 0-1.776-11.042C45.68 11.617 35.249 6.409 25.114 8.752a.94.94 0 0 1-1.124-.702m12.02 43.9a.94.94 0 0 1-.701 1.125 23.5 23.5 0 0 1-5.303.606c-9.174 0-17.774-5.378-21.636-14.055A23.56 23.56 0 0 1 6.411 27.96l-.881.91a.937.937 0 1 1-1.347-1.305L7.1 24.553a.937.937 0 0 1 1.468.154l2.226 3.556a.938.938 0 0 1-1.589.995l-.899-1.436a21.7 21.7 0 0 0 1.777 11.043C14.32 48.382 24.75 53.59 34.887 51.248a.937.937 0 0 1 1.124.702"/></g><defs><clipPath id="a"><path fill="#fff" d="M0 0h60v60H0z"/></clipPath></defs></svg>