<svg xmlns="http://www.w3.org/2000/svg" width="60" height="60" fill="none"><path fill="#000" d="M57.448 8.047 49.01 2.422a.469.469 0 0 0-.729.39v3.282H30.234A25.08 25.08 0 0 0 5.156 31.172v11.953h.938V31.172c0-13.311 10.83-24.14 24.14-24.14H48.75a.47.47 0 0 0 .469-.47V3.688l7.124 4.75-7.124 4.749v-2.874a.47.47 0 0 0-.469-.47H30.469c-11.89 0-21.563 9.674-21.563 21.563v11.719h.938V31.406c0-11.372 9.252-20.625 20.625-20.625H48.28v3.281a.47.47 0 0 0 .729.39l8.438-5.625a.47.47 0 0 0 0-.78"/><path fill="#000" d="M31.875 45.469c8.53 0 15.469-6.94 15.469-15.469s-6.94-15.469-15.469-15.469h-3.75c-8.53 0-15.469 6.94-15.469 15.469s6.94 15.469 15.469 15.469zm1.872-1.058a15.54 15.54 0 0 0 6.302-4.567h2.505a14.5 14.5 0 0 1-8.807 4.567m9.602-5.505h-2.583a15.4 15.4 0 0 0 1.943-3.75h2.751a14.5 14.5 0 0 1-2.111 3.75m2.432-4.687h-2.772c.346-1.222.54-2.481.577-3.75h2.812a14.5 14.5 0 0 1-.617 3.75m.617-4.688h-2.812a15.4 15.4 0 0 0-.577-3.75h2.772c.37 1.218.577 2.479.617 3.75m-3.05-8.437a14.5 14.5 0 0 1 2.112 3.75H42.71a15.4 15.4 0 0 0-1.944-3.75zm-.794-.938h-2.505a15.54 15.54 0 0 0-6.302-4.567 14.5 14.5 0 0 1 8.807 4.567M13.594 30a14.531 14.531 0 1 1 14.531 14.531A14.547 14.547 0 0 1 13.594 30"/><path fill="#000" d="M53.906 28.828c0 13.311-10.83 24.14-24.14 24.14H11.25a.47.47 0 0 0-.469.47v2.874l-7.123-4.75 7.123-4.749v2.874a.47.47 0 0 0 .469.47h18.281c11.89 0 21.563-9.674 21.563-21.563V16.875h-.938v11.719c0 11.372-9.252 20.625-20.625 20.625H11.72v-3.282a.47.47 0 0 0-.729-.39l-8.438 5.626a.47.47 0 0 0 0 .78l8.438 5.624a.468.468 0 0 0 .729-.39v-3.28h18.047a25.08 25.08 0 0 0 25.078-25.079V16.875h-.938z"/><path fill="#000" d="M31.406 30.938a7.98 7.98 0 0 0-5.625-7.617v-1.372a1.405 1.405 0 0 0-.468-2.73h-3.75a1.404 1.404 0 0 0-.47 2.73v1.372a7.97 7.97 0 1 0 10.313 7.616m-9.843-10.782h3.75a.469.469 0 1 1 0 .938h-3.75a.469.469 0 0 1 0-.938m3.28 1.875v1.065a7.9 7.9 0 0 0-2.812 0V22.03zm3.22 14.195a7 7 0 0 1-4.157 1.725v-2.326h-.937v2.326a7 7 0 0 1-4.157-1.725l1.207-1.207-.663-.663-1.207 1.207a7 7 0 0 1-1.725-4.157h2.326v-.937h-2.326a7 7 0 0 1 1.725-4.157l1.207 1.207.663-.663-1.207-1.207a7.01 7.01 0 0 1 9.252 0l-1.208 1.207.663.663 1.207-1.207a7 7 0 0 1 1.726 4.157h-2.327v.937h2.327a7 7 0 0 1-1.726 4.157l-1.207-1.207-.663.663z"/><path fill="#000" d="m22.968 30.743-2.675 2.676.663.662 2.812-2.812a.47.47 0 0 0 .138-.331v-5.625h-.938zM33.283 30.937a9.75 9.75 0 0 1-3.088 7.159l.644.681a11 11 0 0 0 1.5-1.747h4.225v-.937h-3.648c.326-.598.595-1.226.8-1.875h3.786v-.938h-3.535q.203-.927.243-1.875h4.23v-.937h-4.23a10.8 10.8 0 0 0-.493-2.813h5.66v-.937H33.37a10.6 10.6 0 0 0-1.032-1.875h6.101v-.938h-6.825a11 11 0 0 0-.775-.81l-.644.682a9.75 9.75 0 0 1 3.088 7.16M41.25 30.469h-1.875v.937h1.875zM39.375 36.094H37.5v.937h1.875z"/></svg>