<svg xmlns="http://www.w3.org/2000/svg" width="60" height="60" fill="none"><g fill="#000" fill-rule="evenodd" clip-path="url(#a)" clip-rule="evenodd"><path d="M31.512 26.895h-3.025c-3.65 0-6.62-2.97-6.62-6.62v-5.964a.655.655 0 1 1 1.31 0v5.965a5.315 5.315 0 0 0 5.31 5.31h3.025a5.315 5.315 0 0 0 5.31-5.31V14.31a.655.655 0 1 1 1.31 0v5.965c0 3.65-2.97 6.62-6.62 6.62M39.722 13.3a.655.655 0 0 1-.656-.655V10.38c0-5.001-4.067-9.07-9.068-9.07s-9.07 4.069-9.07 9.07v2.266a.656.656 0 0 1-1.31 0V10.38C19.618 4.656 24.273 0 29.998 0c5.723 0 10.378 4.656 10.378 10.379v2.266a.655.655 0 0 1-.654.655"/><path d="M38.13 18.086c.214.172.504.325.859.325.98 0 1.808-1.205 1.808-2.63 0-1.14-.523-2.163-1.276-2.51-.514-.107-.906-.077-1.11.087-.237.192-.284.622-.28.948zm.859 1.635c-.726 0-1.43-.318-1.986-.894a.66.66 0 0 1-.183-.454v-4.061c-.008-.889.25-1.554.769-1.973.543-.439 1.31-.55 2.278-.332a.6.6 0 0 1 .107.034c1.276.53 2.133 2.033 2.133 3.74 0 2.173-1.4 3.94-3.118 3.94"/><path d="M22.524 14.967a.657.657 0 0 1-.638-.812c.11-.443.148-.973.183-1.484.074-1.033.149-2.102.849-2.695.37-.314.854-.445 1.44-.39 2.162.202 7.243-.787 8.96-1.36.454-.151.935-.105 1.395.131 1.885.973 3.241 5.276 3.39 5.764a.655.655 0 0 1-1.253.382c-.5-1.637-1.685-4.439-2.739-4.982-.186-.096-.3-.078-.378-.052-1.853.617-7.136 1.643-9.496 1.42q-.334-.03-.472.085c-.28.238-.338 1.062-.389 1.79-.04.566-.082 1.152-.218 1.704a.65.65 0 0 1-.634.499"/><path d="M20.477 13.272c-.755.346-1.276 1.368-1.276 2.51 0 1.424.827 2.629 1.808 2.629.353 0 .644-.153.857-.325v-3.774c.004-.332-.043-.762-.282-.954-.201-.164-.594-.194-1.107-.086m.532 6.449c-1.72 0-3.118-1.767-3.118-3.94 0-1.707.855-3.21 2.131-3.74a.6.6 0 0 1 .108-.034c.968-.219 1.734-.107 2.279.333.517.417.775 1.083.767 1.978v4.054c0 .17-.066.334-.183.455-.554.576-1.26.894-1.984.894M48.76 43.726a.655.655 0 0 1-.655-.655v-1.922c0-5.803-4.473-10.607-10.152-11.126 1.38 5.111-5.053 9.397-5.345 9.588a.655.655 0 0 1-1.013-.584c.103-1.858-.963-3.453-1.596-4.229-.633.776-1.7 2.37-1.597 4.23a.657.657 0 0 1-1.014.583c-.29-.19-6.725-4.477-5.345-9.588-5.68.52-10.15 5.323-10.15 11.126v1.921a.655.655 0 0 1-1.311 0v-1.92c0-6.844 5.566-12.443 12.41-12.484h.003a.657.657 0 0 1 .594.932c-1.602 3.44 1.822 6.791 3.573 8.21.406-2.566 2.294-4.376 2.386-4.463a.654.654 0 0 1 .9 0c.092.087 1.98 1.897 2.387 4.461 1.749-1.422 5.17-4.776 3.572-8.208a.656.656 0 0 1 .598-.932c6.843.04 12.41 5.64 12.41 12.483v1.921a.655.655 0 0 1-.655.655"/><path d="M24.116 28.71c-.713 1-1.025 2.049-.93 3.136.229 2.58 2.612 4.857 3.977 5.962.256-1.626 1.11-2.95 1.725-3.722-3.367-1.48-4.443-3.803-4.772-5.375m3.632 11.008a.65.65 0 0 1-.359-.107c-.208-.137-5.133-3.408-5.507-7.649-.169-1.92.61-3.707 2.316-5.315a.656.656 0 0 1 1.1.55c0 .005-.007.071-.009.184-.015.952.298 4.186 4.93 5.822a.655.655 0 0 1 .23 1.094c-.02.02-2.192 2.115-2.046 4.73a.657.657 0 0 1-.655.691"/><path d="M31.111 34.085c.613.772 1.467 2.094 1.725 3.72 1.364-1.106 3.75-3.389 3.975-5.962.096-1.087-.217-2.136-.928-3.133-.329 1.572-1.406 3.893-4.772 5.375m1.138 5.633a.653.653 0 0 1-.654-.692c.146-2.63-2.025-4.71-2.046-4.73a.657.657 0 0 1 .232-1.094c4.63-1.636 4.942-4.87 4.929-5.823-.003-.116-.01-.181-.01-.183a.66.66 0 0 1 .36-.659.65.65 0 0 1 .74.11c1.706 1.607 2.485 3.395 2.315 5.315-.373 4.24-5.298 7.511-5.507 7.648a.65.65 0 0 1-.359.108"/><path d="M35.362 28.025a.655.655 0 0 1-.655-.655V24.81a.655.655 0 1 1 1.31 0v2.559a.654.654 0 0 1-.655.655M24.647 28.025a.655.655 0 0 1-.655-.655V24.81a.655.655 0 0 1 1.31 0v2.559a.655.655 0 0 1-.655.655M12.058 50.541l1.874 1.357c.23.166.327.464.239.734l-.72 2.198 1.87-1.363a.655.655 0 0 1 .77 0l1.87 1.363-.719-2.198a.65.65 0 0 1 .239-.734l1.874-1.357-2.314.006a.66.66 0 0 1-.624-.455l-.71-2.2-.71 2.2a.66.66 0 0 1-.625.455zm7.156 6.67a.65.65 0 0 1-.386-.127l-3.12-2.277-3.123 2.277a.655.655 0 0 1-1.01-.732l1.202-3.672-3.131-2.267a.657.657 0 0 1 .384-1.186l3.866.008 1.188-3.677a.655.655 0 0 1 1.245 0l1.188 3.677 3.864-.008a.656.656 0 0 1 .386 1.186l-3.131 2.267 1.202 3.672a.66.66 0 0 1-.624.86M26.351 50.541l1.874 1.357c.23.166.327.464.238.734l-.719 2.198 1.87-1.363a.66.66 0 0 1 .772 0l1.868 1.363-.719-2.198a.65.65 0 0 1 .239-.734l1.874-1.357-2.313.006h-.002a.66.66 0 0 1-.623-.455l-.71-2.2-.71 2.2a.66.66 0 0 1-.625.455q.001 0 0 0zm7.157 6.67a.65.65 0 0 1-.386-.127L30 54.808l-3.122 2.277a.655.655 0 0 1-1.009-.732l1.201-3.672-3.13-2.267a.655.655 0 0 1 .385-1.186l3.864.008 1.188-3.677a.655.655 0 0 1 1.247 0l1.185 3.677 3.866-.008a.655.655 0 0 1 .385 1.186l-3.131 2.267 1.201 3.672a.66.66 0 0 1-.622.86M44.293 53.342c.135 0 .27.042.386.125l1.868 1.363-.719-2.198a.65.65 0 0 1 .239-.734l1.874-1.357-2.313.006h-.002a.655.655 0 0 1-.622-.455l-.71-2.2-.712 2.2a.655.655 0 0 1-.624.455q.001 0 0 0l-2.314-.006 1.874 1.357c.23.166.327.464.238.734l-.719 2.198 1.87-1.363a.66.66 0 0 1 .386-.125m-3.508 3.87a.655.655 0 0 1-.623-.86l1.201-3.672-3.13-2.267a.655.655 0 0 1 .383-1.186l3.866.008 1.188-3.677a.655.655 0 0 1 1.246 0l1.188 3.677 3.864-.008h.001a.655.655 0 0 1 .384 1.186l-3.13 2.267 1.2 3.672a.655.655 0 0 1-1.009.733l-3.12-2.278-3.123 2.277a.65.65 0 0 1-.386.127"/><path d="M12.505 43.626c-4.152 0-7.531 3.38-7.531 7.531 0 4.154 3.379 7.533 7.531 7.533h34.986c4.153 0 7.533-3.379 7.533-7.533 0-4.152-3.38-7.53-7.533-7.53zM47.491 60H12.505c-4.874 0-8.84-3.967-8.84-8.843 0-4.874 3.966-8.84 8.84-8.84h34.986c4.876 0 8.843 3.966 8.843 8.84 0 4.876-3.967 8.843-8.843 8.843"/></g><defs><clipPath id="a"><path fill="#fff" d="M0 0h60v60H0z"/></clipPath></defs></svg>