<svg xmlns="http://www.w3.org/2000/svg" width="60" height="60" fill="none"><path fill="#000" d="M18.69 38.76h4.938c.453 0 .82.369.82.82v4.497a.82.82 0 0 1-.82.82H18.69a.82.82 0 0 1-.82-.82V39.58a.82.82 0 0 1 .82-.82m4.118 1.64h-3.302v2.857h3.302zM9.927 38.76h4.94c.454 0 .82.369.82.82v4.497c0 .455-.366.82-.82.82h-4.94a.82.82 0 0 1-.82-.82V39.58a.82.82 0 0 1 .82-.82m4.121 1.64h-3.3v2.857h3.302V40.4zm4.313-3.79a.823.823 0 0 1-.82-.82c0-.451.369-.82.82-.82h5.703a.82.82 0 0 1 0 1.64zm-8.434 0a.823.823 0 0 1-.82-.82c0-.451.369-.82.82-.82h5.74c.451 0 .82.369.82.82 0 .452-.369.82-.82.82zm8.434-5.484a.82.82 0 0 1 0-1.64h7.494a.82.82 0 0 1 0 1.64zm-8.434 0a.82.82 0 0 1 0-1.64h5.74a.82.82 0 0 1 0 1.64zm8.434-5.481a.82.82 0 0 1 0-1.64h9.424a.82.82 0 0 1 0 1.64zm-8.434 0a.82.82 0 0 1 0-1.64h5.74a.82.82 0 0 1 0 1.64zm13.47-7.733a.819.819 0 1 1-1.475-.711l2.972-6.17a.82.82 0 0 1 1.476 0l2.97 6.17a.818.818 0 1 1-1.473.71l-.954-1.973h-2.567zm2.235-4.637-.494 1.023h.987zm-8.879 2.59a.82.82 0 0 1 0-1.158.816.816 0 0 1 1.16 0l.63.628c.805-1.376-.186-3.126-1.797-3.126-1.847 0-2.777 2.242-1.472 3.551a2.09 2.09 0 0 0 1.93.558zm2.973.651.525.525a.826.826 0 0 1 0 1.162.82.82 0 0 1-1.159 0l-.617-.62c-2.459 1.289-5.448-.493-5.448-3.296a3.723 3.723 0 0 1 3.72-3.72c3.062 0 4.806 3.512 2.98 5.949m-8.46-8.863h19.92a2.42 2.42 0 0 1 2.415 2.415v8.873a2.42 2.42 0 0 1-2.415 2.415h-19.92A2.42 2.42 0 0 1 8.85 18.94v-8.873a2.42 2.42 0 0 1 2.415-2.415m19.92 1.642h-19.92a.78.78 0 0 0-.774.773v8.873c0 .422.349.773.773.773h19.92a.78.78 0 0 0 .774-.773v-8.873a.78.78 0 0 0-.773-.773m4.376 31.255a.82.82 0 0 1 1.02-1.282l2.318 1.843 4.107-7.132a.82.82 0 0 1 1.115-.302.817.817 0 0 1 .3 1.116l-4.649 8.059a.82.82 0 0 1-1.15.13zm3.942 9.966c-9.444-4.95-9.424-5.937-9.222-15.802q.032-1.392.053-3.013a.82.82 0 0 1 .692-.797c3.192-.514 6.118-2.093 8.25-4.514a.82.82 0 0 1 1.236.004c2.106 2.412 5.079 4.003 8.248 4.51a.82.82 0 0 1 .687.824c.013 1.07.033 2.07.053 2.986.203 9.87.223 10.853-9.23 15.809a.81.81 0 0 1-.767-.007m-7.587-15.77c-.183 8.817-.203 9.816 7.976 14.129 8.179-4.311 8.159-5.312 7.976-14.128-.013-.728-.03-1.505-.044-2.352-3.006-.621-5.783-2.097-7.932-4.266-2.15 2.17-4.927 3.645-7.933 4.266-.014.847-.03 1.624-.043 2.352M39.504 53.9a113 113 0 0 1-3.92-2.13l-2.142 5.163a.82.82 0 0 1-1.532-.047l-1.62-4.29-4.924 2.123a.821.821 0 0 1-1.046-1.142l1.937-4.469H8.102a3.62 3.62 0 0 1-3.614-3.614V6.68a3.62 3.62 0 0 1 3.614-3.614H37.1a3.62 3.62 0 0 1 3.614 3.614v16.553a18 18 0 0 0 4.657 3.658 18.7 18.7 0 0 0 5.98 2.042.82.82 0 0 1 .687.824c.017 1.392.047 2.69.07 3.88.107 5.115.173 8.367-.588 10.85l3.947 9.09a.821.821 0 0 1-1.047 1.143l-4.922-2.122-1.621 4.29a.82.82 0 0 1-1.532.046l-2.146-5.159a115 115 0 0 1-3.926 2.133.81.81 0 0 1-.768-.008m-5.341-2.973c-2.465-1.521-4.023-2.85-4.996-4.429l-2.555 5.9 3.817-1.645a.82.82 0 0 1 1.09.466l1.202 3.179zm-5.9-6.448c-.757-2.48-.691-5.734-.585-10.842.027-1.199.053-2.5.07-3.907a.814.814 0 0 1 .689-.797 18.7 18.7 0 0 0 5.979-2.042 18 18 0 0 0 4.657-3.658V6.68a1.98 1.98 0 0 0-1.974-1.973H8.102A1.98 1.98 0 0 0 6.13 6.68v38.817c0 1.082.89 1.973 1.973 1.973h18.865zm22.353 2.028c-.974 1.575-2.532 2.9-4.996 4.421l1.445 3.471 1.202-3.18a.82.82 0 0 1 1.09-.464l3.817 1.644zM29.313 33.67c-.239 11.603-.262 12.882 10.58 18.59 10.842-5.708 10.819-6.986 10.58-18.59-.02-1-.044-2.073-.06-3.243-4.003-.787-7.697-2.757-10.52-5.676-2.823 2.92-6.518 4.89-10.52 5.676-.018 1.171-.04 2.243-.06 3.243"/></svg>