<svg xmlns="http://www.w3.org/2000/svg" width="60" height="60" fill="none"><path fill="#282928" fill-rule="evenodd" d="M56.172 29.341h-2.806c-.187 0-.37.022-.548.056l-2.791-6.537c-1.302-3.895-5.029-6.463-8.046-6.463H18.428c-3.017 0-6.683 2.267-7.737 6.463l-2.573 6.56a3 3 0 0 0-.68-.079H4.63c-1.855 0-3.36-.093-3.36 2.044v1.421c0 2.137 1.505 2.449 3.36 2.449h2.68v8.034c0 .066.005.129.007.194-.002.059-.008.114-.008.175v4.752c0 2.63 1.816 4.763 4.055 4.763h2.607c2.24 0 4.055-2.133 4.055-4.763v-.482h24.835v.482c0 2.63 1.815 4.763 4.054 4.763h2.607c2.24 0 4.055-2.133 4.055-4.763V35.255h2.594c1.855 0 3.36-.312 3.36-2.449v-1.421c0-2.137-1.504-2.044-3.36-2.044ZM16.847 44.025a4.253 4.253 0 1 1 0-8.506 4.253 4.253 0 0 1 0 8.506m27.421 0a4.253 4.253 0 1 1 0-8.506 4.253 4.253 0 0 1 0 8.506m1.236-11.551s-8.339-.749-15.2-.749c-6.862 0-14.93.749-14.93.749-2.535 0-4.884 1.014-4.244-1.757l2.38-6.369c1.115-3.456 3.61-5.43 6.145-5.43h20.813c2.535 0 5.505 2.416 6.465 5.43l2.543 6.37c.912 2.77-1.437 1.756-3.972 1.756m4.086-15.589.974-4.055 4.056-.974-4.056-.974-.974-4.056-.974 4.056-4.056.974 4.056.974zm5.687 1.477.534 2.02.533-2.02 2.02-.533-2.02-.534-.533-2.02-.534 2.02-2.02.534zM3.022 24.84l.533-2.019 2.02-.533-2.02-.534-.533-2.02-.533 2.02-2.02.534 2.02.533z" clip-rule="evenodd"/></svg>