<svg xmlns="http://www.w3.org/2000/svg" width="60" height="60" fill="none"><g fill="#282928" clip-path="url(#a)"><path d="M46.84 12.781a19.9 19.9 0 0 0-7.04-9.083A19.77 19.77 0 0 0 28.243 0a19.9 19.9 0 0 0-15.097 6.932.879.879 0 1 0 1.333 1.147 18.15 18.15 0 0 1 13.764-6.321c7.618 0 14.482 4.817 17.08 11.986.17.472.624.79 1.13.79h.002c6.5 0 11.787 5.295 11.787 11.804 0 3.032-1.147 5.914-3.229 8.114a.879.879 0 1 0 1.277 1.209A13.5 13.5 0 0 0 60 26.338c0-7.349-5.867-13.35-13.16-13.557M30.82 53.678v-1.881a.879.879 0 1 0-1.758 0v1.88a3.23 3.23 0 0 0-2.343 3.1A3.226 3.226 0 0 0 29.94 60a3.226 3.226 0 0 0 3.223-3.223 3.23 3.23 0 0 0-2.344-3.1Zm-.879 4.564a1.466 1.466 0 0 1-1.464-1.465c0-.807.657-1.465 1.464-1.465.808 0 1.465.658 1.465 1.465 0 .808-.657 1.465-1.465 1.465m-7.382-12.949a.88.88 0 0 0-.88.879v4.746c0 .42-.341.762-.761.762H19.33a3.23 3.23 0 0 0-3.1-2.344 3.226 3.226 0 0 0-3.222 3.223 3.226 3.226 0 0 0 3.223 3.222 3.23 3.23 0 0 0 3.1-2.343h1.587c1.39 0 2.52-1.13 2.52-2.52v-4.746a.88.88 0 0 0-.88-.879Zm-6.329 8.73a1.466 1.466 0 0 1-1.464-1.464c0-.808.657-1.465 1.464-1.465.808 0 1.465.657 1.465 1.465 0 .807-.657 1.464-1.465 1.464"/><path d="M50.918 42.773a3.23 3.23 0 0 0-3.1 2.344h-1.587a.763.763 0 0 1-.762-.762v-4.513a160 160 0 0 0 2.3-.009 13.4 13.4 0 0 0 4.997-1.496.879.879 0 1 0-.82-1.554 11.7 11.7 0 0 1-4.318 1.298c-.196.003-1.298.005-3.037.004h-.002c-6.975 0-24.185-.025-34.2-.042-1.675-.003-3.258-.455-4.579-1.307A8.82 8.82 0 0 1 1.758 29.3a8.81 8.81 0 0 1 7.34-8.715c.557-.095.973-.577.989-1.146.079-2.88.81-5.618 2.172-8.138a.879.879 0 0 0-1.546-.836 19.7 19.7 0 0 0-2.366 8.475A10.56 10.56 0 0 0 0 29.3c0 3.618 1.816 6.95 4.857 8.912 1.604 1.036 3.516 1.585 5.529 1.59l4.028.006v4.547c0 .42-.342.762-.762.762h-1.587a3.23 3.23 0 0 0-3.1-2.344 3.226 3.226 0 0 0-3.223 3.222 3.226 3.226 0 0 0 3.223 3.223 3.23 3.23 0 0 0 3.1-2.344h1.587c1.39 0 2.52-1.13 2.52-2.52V39.81l5.508.009v2.25a.879.879 0 0 0 1.758 0v-2.248l5.625.008v7.866a.879.879 0 0 0 1.757 0V39.83l5.625.007v11.08a2.52 2.52 0 0 0 2.52 2.519h1.587a3.23 3.23 0 0 0 3.1 2.344 3.226 3.226 0 0 0 3.223-3.223 3.226 3.226 0 0 0-3.223-3.223 3.23 3.23 0 0 0-3.1 2.344h-1.587a.763.763 0 0 1-.762-.762V39.84l5.507.003v4.513c0 1.39 1.131 2.52 2.52 2.52h1.588a3.23 3.23 0 0 0 3.1 2.343 3.226 3.226 0 0 0 3.223-3.223 3.226 3.226 0 0 0-3.223-3.222ZM8.965 47.46A1.466 1.466 0 0 1 7.5 45.995a1.466 1.466 0 0 1 2.93.001c0 .807-.657 1.464-1.465 1.464m34.687 3.633c.808 0 1.465.657 1.465 1.465s-.657 1.465-1.465 1.465a1.466 1.466 0 0 1-1.465-1.465c0-.808.658-1.465 1.465-1.465m7.266-3.633a1.466 1.466 0 0 1-1.465-1.465 1.466 1.466 0 0 1 2.93.001c0 .807-.657 1.464-1.465 1.464"/><path d="M39.596 25.404a6.05 6.05 0 0 0 1.782-4.302 6.09 6.09 0 0 0-6.085-6.086 6.08 6.08 0 0 0-6.085 6.086 4.906 4.906 0 0 1-4.909 4.908 4.914 4.914 0 0 1-4.909-4.909 4.906 4.906 0 0 1 6.03-4.78l-.739.41.57 1.029 2.198-1.219-.28-2.497-1.168.131.125 1.122a6.082 6.082 0 0 0-7.912 5.804 6.09 6.09 0 0 0 6.085 6.086 6.08 6.08 0 0 0 6.085-6.085c0-1.312.51-2.544 1.438-3.472a4.88 4.88 0 0 1 3.47-1.437 4.914 4.914 0 0 1 4.91 4.909c0 3.145-2.93 5.504-6.03 4.78l.739-.41-.57-1.029-2.198 1.218.28 2.498 1.168-.131-.125-1.122a6.07 6.07 0 0 0 6.13-1.502"/></g><defs><clipPath id="a"><path fill="#fff" d="M0 0h60v60H0z"/></clipPath></defs></svg>