<svg xmlns="http://www.w3.org/2000/svg" width="60" height="60" fill="none"><g fill="#282928" clip-path="url(#a)"><path d="M22.5 25C15.607 25 10 19.392 10 12.5S15.607 0 22.5 0 35 5.607 35 12.5 29.392 25 22.5 25m0-22.5c-5.515 0-10 4.485-10 10s4.485 10 10 10 10-4.485 10-10-4.485-10-10-10m-1.25 50h-20C.56 52.5 0 51.94 0 51.25v-10C0 35.047 5.048 30 11.25 30h15a1.25 1.25 0 0 1 0 2.5h-15c-4.825 0-8.75 3.925-8.75 8.75V50h18.75a1.25 1.25 0 0 1 0 2.5M42.5 50a6.26 6.26 0 0 1-6.25-6.25 6.26 6.26 0 0 1 6.25-6.25 6.26 6.26 0 0 1 6.25 6.25A6.26 6.26 0 0 1 42.5 50m0-10a3.755 3.755 0 0 0-3.75 3.75 3.755 3.755 0 0 0 3.75 3.75 3.755 3.755 0 0 0 3.75-3.75A3.755 3.755 0 0 0 42.5 40"/><path d="M44.493 60h-3.988a2.49 2.49 0 0 1-2.487-2.253l-.318-3.178a11.7 11.7 0 0 1-2.162-1.257l-2.92 1.318a2.487 2.487 0 0 1-3.193-1.03l-1.992-3.453a2.494 2.494 0 0 1 .705-3.28l2.572-1.85a10 10 0 0 1-.085-1.268c0-.45.035-.882.085-1.267l-2.572-1.85a2.494 2.494 0 0 1-.705-3.28l1.992-3.452a2.49 2.49 0 0 1 3.193-1.03l2.92 1.317q1.025-.75 2.162-1.258l.318-3.177a2.49 2.49 0 0 1 2.487-2.25h3.988c1.29 0 2.36.968 2.487 2.253l.318 3.177c.76.337 1.482.76 2.162 1.258l2.92-1.318a2.495 2.495 0 0 1 3.193 1.03l1.992 3.453a2.494 2.494 0 0 1-.705 3.28l-2.572 1.85c.05.387.085.817.085 1.267s-.035.883-.085 1.267l2.572 1.85a2.494 2.494 0 0 1 .705 3.28l-1.99 3.45a2.49 2.49 0 0 1-3.192 1.03l-2.92-1.317q-1.025.75-2.163 1.258l-.32 3.18A2.49 2.49 0 0 1 44.493 60m-8.78-9.388c.287 0 .572.1.802.292a9.3 9.3 0 0 0 2.783 1.618c.45.165.767.572.815 1.05l.395 3.927h3.987l.393-3.927a1.25 1.25 0 0 1 .815-1.05 9.4 9.4 0 0 0 2.782-1.617c.37-.308.88-.378 1.315-.18l3.61 1.63 1.993-3.453-3.195-2.295c-.39-.28-.583-.76-.503-1.233a9.3 9.3 0 0 0 .168-1.62c0-.554-.075-1.092-.168-1.62-.082-.472.113-.95.503-1.232l3.195-2.295-1.993-3.453-3.61 1.628a1.25 1.25 0 0 1-1.317-.18 9.2 9.2 0 0 0-2.783-1.617 1.25 1.25 0 0 1-.815-1.05l-.392-3.936h-3.988l-.392 3.928a1.25 1.25 0 0 1-.815 1.05 9.4 9.4 0 0 0-2.783 1.617c-.367.308-.877.38-1.315.18l-3.61-1.63-1.992 3.453 3.195 2.295c.39.28.582.76.502 1.232-.092.528-.167 1.066-.167 1.62 0 .556.075 1.093.167 1.62.083.473-.112.95-.502 1.233l-3.195 2.295 1.992 3.452 3.61-1.627q.249-.105.513-.105"/></g><defs><clipPath id="a"><path fill="#fff" d="M0 0h60v60H0z"/></clipPath></defs></svg>