<svg xmlns="http://www.w3.org/2000/svg" width="60" height="60" fill="none"><g fill="#282928" fill-rule="evenodd" clip-path="url(#a)" clip-rule="evenodd"><path d="M20.713 36.594H33.21a.932.932 0 0 0 0-1.864H20.713a.932.932 0 0 0 0 1.864"/><path d="M28.578 35.662v22.43a.932.932 0 0 0 1.863 0v-22.43a.932.932 0 0 0-1.863 0M8.627.979a6.575 6.575 0 0 0-6.57 6.57 6.574 6.574 0 0 0 6.57 6.572A6.574 6.574 0 0 0 15.2 7.55 6.575 6.575 0 0 0 8.627.979m0 1.863a4.71 4.71 0 0 1 4.708 4.708 4.71 4.71 0 0 1-4.708 4.707A4.71 4.71 0 0 1 3.92 7.55a4.71 4.71 0 0 1 4.707-4.708M51.38.979a6.575 6.575 0 0 0-6.571 6.57 6.574 6.574 0 0 0 6.571 6.572 6.574 6.574 0 0 0 6.57-6.571A6.574 6.574 0 0 0 51.38.979m0 1.863a4.71 4.71 0 0 1 4.707 4.708 4.71 4.71 0 0 1-4.707 4.707 4.71 4.71 0 0 1-4.708-4.707 4.71 4.71 0 0 1 4.708-4.708M13.761 27.49a.93.93 0 0 0 .835.517l.346-.067 8.578-3.43a2.58 2.58 0 0 1 3.349 1.437 2.58 2.58 0 0 1-1.436 3.348l-11.33 4.528a2.576 2.576 0 0 1-3.002-.827.932.932 0 0 0-1.672.566v4.678c0 .474.354.871.824.926l7.54.87a3.533 3.533 0 0 1 3.128 3.51v14.545a.932.932 0 0 0 1.863 0V43.546a5.396 5.396 0 0 0-4.777-5.36l-6.715-.776v-1.945a4.43 4.43 0 0 0 3.502.089l11.33-4.529a4.44 4.44 0 0 0 2.475-5.77 4.44 4.44 0 0 0-5.77-2.475l-7.848 3.138-4.509-7.38a4.44 4.44 0 0 0-2.869-2.028l-.11-.023a4.44 4.44 0 0 0-5.344 4.005L.503 42.148a5.395 5.395 0 0 0 4.766 5.43l6.723.868v9.645a.932.932 0 0 0 1.864 0V47.627a.93.93 0 0 0-.813-.925l-7.553-.974a3.533 3.533 0 0 1-3.127-3.471l1.644-21.624a2.574 2.574 0 0 1 3.1-2.323l.11.023a2.58 2.58 0 0 1 1.665 1.177l4.823 7.895q.027.045.056.085"/><path d="m6.365 28.845 2.994 4.901a4.44 4.44 0 0 0 5.436 1.807.931.931 0 0 0-.691-1.73 2.576 2.576 0 0 1-3.155-1.048l-2.994-4.902a.933.933 0 0 0-1.59.972m37.798-1.515-9.02 1.276a4.44 4.44 0 0 0-3.775 5.017 4.44 4.44 0 0 0 5.018 3.774l11.095-1.57c.431-.06.846-.184 1.233-.362v1.945L42 38.186a5.396 5.396 0 0 0-4.777 5.36v14.545a.932.932 0 0 0 1.863 0V43.546a3.533 3.533 0 0 1 3.127-3.51l7.539-.87h-.002a.93.93 0 0 0 .828-.926v-4.679a.93.93 0 0 0-1.672-.565 2.58 2.58 0 0 1-1.685.986l-11.095 1.57a2.576 2.576 0 0 1-.722-5.102l9.454-1.337-.128.009.795-.446 5.04-8.252a3.29 3.29 0 0 1 3.11-1.563 3.294 3.294 0 0 1 3.044 3.134l.924 20.244a3.533 3.533 0 0 1-3.127 3.489l-7.395.854a.93.93 0 0 0-.825.913l-.145 10.583a.933.933 0 0 0 1.863.026l.134-9.765 6.582-.76a5.396 5.396 0 0 0 4.776-5.403L58.58 21.91a5.157 5.157 0 0 0-4.764-4.907q-.026-.001-.051-.004a5.16 5.16 0 0 0-4.79 2.454l-4.81 7.877Zm-5.36-23.557A2.795 2.795 0 0 0 36.008.98H23.01a2.795 2.795 0 0 0-2.795 2.794v11.841a1.553 1.553 0 0 0 2.573 1.171l2.862-2.495a.93.93 0 0 1 .613-.23h9.745a2.794 2.794 0 0 0 2.795-2.794zM22.078 14.932V3.773c0-.514.417-.931.932-.931h12.998a.93.93 0 0 1 .932.931v7.493a.93.93 0 0 1-.932.932h-9.745c-.676 0-1.328.244-1.837.687z"/><path d="M25.361 6.75h8.442a.932.932 0 0 0 0-1.863h-8.442a.932.932 0 0 0 0 1.863m0 3.398h4.151a.932.932 0 0 0 0-1.863h-4.15a.932.932 0 0 0 0 1.863ZM44.68 36.223l2.8-.396a4.44 4.44 0 0 0 3.166-2.081l2.994-4.901a.932.932 0 0 0-1.59-.971l-2.994 4.9a2.58 2.58 0 0 1-1.838 1.208l-2.799.396a.933.933 0 0 0 .261 1.845"/></g><defs><clipPath id="a"><path fill="#fff" d="M0 0h60v60H0z"/></clipPath></defs></svg>