<svg xmlns="http://www.w3.org/2000/svg" width="60" height="60" fill="none"><g fill="#282928" clip-path="url(#a)"><path d="M60 34.3v-8.6h-5.798a24.24 24.24 0 0 0-3.912-9.91l3.964-3.963-6.081-6.08-3.89 3.89A24.24 24.24 0 0 0 34.3 5.459V0h-8.6v5.5c-3.642.668-7 2.144-9.882 4.237l-3.99-3.99-6.082 6.08 4.105 4.105A24.2 24.2 0 0 0 6.035 25.7H0v8.6h6.22a24.3 24.3 0 0 0 4.056 9.343l-4.53 4.53 6.081 6.08 4.6-4.599a24.2 24.2 0 0 0 9.273 3.807V60h8.6v-6.498a24.2 24.2 0 0 0 9.368-3.753l4.505 4.505 6.08-6.081-4.392-4.393a24.3 24.3 0 0 0 4.156-9.48zM30.111 47.356c-9.731 0-17.648-7.918-17.648-17.652 0-9.733 7.917-17.651 17.648-17.651S47.76 19.971 47.76 29.704s-7.917 17.652-17.649 17.652"/><path d="M24.828 28.1c-.508 0-.985.197-1.344.556a1.89 1.89 0 0 0-.556 1.343c0 .508.197.985.556 1.344.36.358.836.556 1.343.556.508 0 .985-.198 1.344-.556l1.343-1.344-1.343-1.343a1.9 1.9 0 0 0-1.343-.556m9.002 3.243c.358.358.836.556 1.343.556s.984-.198 1.343-.556a1.9 1.9 0 0 0 .557-1.344c0-.507-.198-.984-.557-1.343a1.9 1.9 0 0 0-1.343-.556c-.508 0-.985.197-1.343.556l-1.344 1.343z"/><path d="M30.111 15.568c-7.793 0-14.133 6.342-14.133 14.136 0 7.795 6.34 14.136 14.133 14.136s14.133-6.34 14.133-14.136c0-7.794-6.34-14.136-14.133-14.136m1.232 10.603a5.38 5.38 0 0 1 3.83-1.586 5.38 5.38 0 0 1 3.829 1.586A5.38 5.38 0 0 1 40.588 30a5.38 5.38 0 0 1-1.586 3.828 5.38 5.38 0 0 1-3.83 1.587 5.38 5.38 0 0 1-3.829-1.587L30 32.486l-1.343 1.343a5.38 5.38 0 0 1-3.83 1.587 5.38 5.38 0 0 1-3.829-1.587A5.38 5.38 0 0 1 19.412 30a5.38 5.38 0 0 1 1.586-3.83 5.38 5.38 0 0 1 3.83-1.585 5.38 5.38 0 0 1 3.829 1.586L30 27.514z"/></g><defs><clipPath id="a"><path fill="#fff" d="M0 0h60v60H0z"/></clipPath></defs></svg>