<svg xmlns="http://www.w3.org/2000/svg" width="60" height="60" fill="none"><g clip-path="url(#a)"><path fill="#282928" d="M2.5 2.5a2.5 2.5 0 0 0 0 5h4.448a1.73 1.73 0 0 1 1.645 1.186l8.243 24.732a6.1 6.1 0 0 1 .132 3.403l-.679 2.72c-.996 3.984 2.105 7.959 6.211 7.959h30a2.5 2.5 0 0 0 0-5h-30c-.974 0-1.598-.799-1.362-1.743l.511-2.044a1.6 1.6 0 0 1 1.554-1.213H50a2.5 2.5 0 0 0 2.373-1.709l6.665-20a2.5 2.5 0 0 0-2.373-3.291H16.387a1.73 1.73 0 0 1-1.646-1.186L12.373 4.21A2.5 2.5 0 0 0 10 2.5zM20 50a5 5 0 1 0 0 10 5 5 0 0 0 0-10m30 0a5 5 0 1 0 0 10 5 5 0 0 0 0-10"/></g><defs><clipPath id="a"><path fill="#fff" d="M0 0h60v60H0z"/></clipPath></defs></svg>