<svg xmlns="http://www.w3.org/2000/svg" width="60" height="60" fill="none"><path fill="#282928" fill-rule="evenodd" d="m29.147 2 17.828 9.581-7.151 3.843-.009.005-10.668 5.733-10.668-5.733-.009-.005-7.152-3.843zM58 44.722V8.836H45.818l3.366 1.81h6.08c.512 0 .93.418.93.935v30.396a.934.934 0 0 1-.93.936H4.738a.935.935 0 0 1-.933-.936V11.581c0-.517.419-.935.933-.935H9.11l3.366-1.81H2v35.886zm-16.624 9.04h-22.75c1.614-2.301 2.547-4.628 2.881-7.169h16.987c.334 2.54 1.267 4.868 2.882 7.168Zm5.701 3.054V58H12.924v-1.184c0-.653.53-1.184 1.181-1.184h31.792c.65 0 1.18.531 1.18 1.184M18.964 26.124l8.933 4.802c.41.22.83.329 1.25.329s.841-.11 1.25-.33l8.934-4.8v1.237l-8.419 4.525c-1.139.612-2.392.612-3.53 0l-8.418-4.525zm9.741-3.076-9.74-5.236v6.19l9.814 5.275c.272.145.464.145.736 0l9.816-5.275v-6.19l-9.743 5.236a.93.93 0 0 1-.883 0m19.312-1.89v-8.014l-6.82 3.665v11.113a.94.94 0 0 1-.492.824l-8.911 4.79a5.6 5.6 0 0 1-2.647.688 5.6 5.6 0 0 1-2.647-.688l-8.91-4.79a.94.94 0 0 1-.493-.824V16.809L9.11 12.516H5.67v28.526h48.66V12.516h-4.446v8.642l1.242.718a.94.94 0 0 1 .466.81v4.979a.937.937 0 0 1-.933.935.9.9 0 0 1-.466-.126l-1.242-.718-1.241.718a.932.932 0 0 1-1.4-.81v-4.978c0-.334.178-.643.466-.81l1.242-.719Zm1.708 2.068v2.819l-.308-.179a.93.93 0 0 0-.934 0l-.308.178v-2.818l.775-.448z" clip-rule="evenodd"/></svg>