<svg xmlns="http://www.w3.org/2000/svg" width="60" height="60" fill="none"><path fill="#282928" d="M1.95 40.882a.94.94 0 0 0 .737.842l3.267.705q.173.837.439 1.642l-2.473 2.24a.94.94 0 0 0-.217 1.099c.452.95.955 1.829 1.496 2.61a.94.94 0 0 0 1.059.36l3.175-1.023q.57.639 1.21 1.21L9.62 53.741a.94.94 0 0 0 .359 1.058c.782.54 1.66 1.044 2.61 1.496a.94.94 0 0 0 1.098-.216l2.241-2.473q.807.265 1.644.438l.705 3.267a.94.94 0 0 0 .84.737c.5.04.999.075 1.508.075.51 0 1.009-.035 1.508-.075a.94.94 0 0 0 .841-.736l.705-3.268a15 15 0 0 0 1.644-.438l2.24 2.473a.94.94 0 0 0 1.098.216 19 19 0 0 0 2.611-1.496.94.94 0 0 0 .36-1.058l-1.024-3.176q.64-.571 1.21-1.208l3.175 1.023a.94.94 0 0 0 1.059-.36 19 19 0 0 0 1.496-2.61.94.94 0 0 0-.217-1.098l-2.473-2.24q.265-.808.439-1.644l3.267-.705a.94.94 0 0 0 .737-.841c.038-.5.074-1 .074-1.509s-.036-1.008-.075-1.507a.94.94 0 0 0-.737-.842l-3.267-.705a15 15 0 0 0-.439-1.643l2.473-2.241a.94.94 0 0 0 .217-1.098 19 19 0 0 0-1.496-2.61.94.94 0 0 0-1.059-.36l-3.175 1.023q-.57-.64-1.21-1.21l1.023-3.175a.94.94 0 0 0-.359-1.058 19 19 0 0 0-2.61-1.496.935.935 0 0 0-1.099.216l-2.24 2.473a15 15 0 0 0-1.644-.438l-.705-3.268a.94.94 0 0 0-.84-.737 19 19 0 0 0-3.016 0 .94.94 0 0 0-.842.737l-.705 3.268q-.837.172-1.643.438l-2.24-2.473a.94.94 0 0 0-1.098-.216c-.95.451-1.83.955-2.611 1.496a.94.94 0 0 0-.36 1.058l1.024 3.176q-.64.57-1.21 1.209l-3.174-1.023a.935.935 0 0 0-1.059.36c-.54.781-1.044 1.66-1.496 2.61a.94.94 0 0 0 .217 1.098l2.473 2.24a15 15 0 0 0-.439 1.644l-3.267.705a.94.94 0 0 0-.737.84c-.04.5-.075 1-.075 1.51 0 .508.036 1.008.075 1.507Zm1.82-2.172 3.19-.69a.94.94 0 0 0 .727-.765c.14-.865.367-1.713.674-2.523a.94.94 0 0 0-.248-1.027l-2.408-2.182q.316-.604.656-1.152l3.09.995a.94.94 0 0 0 1.013-.298 13 13 0 0 1 1.855-1.854.94.94 0 0 0 .298-1.014l-.996-3.09q.548-.342 1.152-.656l2.183 2.41a.94.94 0 0 0 1.027.247 13 13 0 0 1 2.522-.674.94.94 0 0 0 .766-.728l.688-3.189c.442-.023.891-.024 1.33 0l.69 3.19a.94.94 0 0 0 .766.727c.864.14 1.712.367 2.522.674a.94.94 0 0 0 1.027-.248l2.183-2.408q.604.316 1.152.656l-.996 3.09a.94.94 0 0 0 .298 1.014 13 13 0 0 1 1.855 1.854.93.93 0 0 0 1.013.298l3.09-.995q.342.547.656 1.15l-2.41 2.183a.94.94 0 0 0-.247 1.028c.307.808.534 1.656.675 2.522.061.38.35.684.727.766l3.19.688q.019.33.02.665-.001.335-.02.665l-3.19.69a.94.94 0 0 0-.727.765c-.14.864-.367 1.713-.674 2.523a.94.94 0 0 0 .248 1.026l2.408 2.183q-.316.604-.656 1.152l-3.09-.995a.93.93 0 0 0-1.013.298 13.3 13.3 0 0 1-1.855 1.854.94.94 0 0 0-.298 1.013l.996 3.09q-.548.341-1.152.656l-2.182-2.41a.94.94 0 0 0-1.028-.247c-.808.306-1.656.533-2.521.674a.94.94 0 0 0-.766.727l-.688 3.19c-.442.023-.891.024-1.33 0l-.69-3.19a.94.94 0 0 0-.766-.727 13 13 0 0 1-2.523-.674.935.935 0 0 0-1.026.247l-2.183 2.409q-.604-.316-1.152-.656l.996-3.09a.94.94 0 0 0-.298-1.014 13 13 0 0 1-1.855-1.854.94.94 0 0 0-1.013-.298l-3.09.995a16 16 0 0 1-.656-1.152l2.409-2.182a.94.94 0 0 0 .248-1.028 13 13 0 0 1-.675-2.522.94.94 0 0 0-.727-.766L3.77 40.04a12 12 0 0 1 0-1.33m47.06-23.49a.94.94 0 0 0 .65-.787c.056-.473.083-.902.083-1.309s-.027-.835-.082-1.308a.94.94 0 0 0-.65-.787l-2.6-.816a8 8 0 0 0-.258-.627l1.26-2.414a.94.94 0 0 0-.096-1.015 11.4 11.4 0 0 0-1.855-1.855.94.94 0 0 0-1.015-.097l-2.416 1.26a9 9 0 0 0-.627-.258l-.816-2.6a.94.94 0 0 0-.787-.649 10.4 10.4 0 0 0-2.618 0 .94.94 0 0 0-.787.65l-.816 2.6a8 8 0 0 0-.627.258l-2.414-1.26a.94.94 0 0 0-1.015.096 11.4 11.4 0 0 0-1.855 1.855.94.94 0 0 0-.097 1.015l1.26 2.414q-.141.307-.259.627l-2.6.816a.94.94 0 0 0-.649.787 11 11 0 0 0-.081 1.308c0 .407.026.836.081 1.31a.94.94 0 0 0 .65.786l2.6.816q.115.32.258.627l-1.26 2.414a.94.94 0 0 0 .096 1.015c.543.686 1.167 1.31 1.855 1.855a.94.94 0 0 0 1.015.097l2.415-1.26q.306.142.626.259l.816 2.6c.11.352.42.607.787.649.475.056.904.082 1.31.082s.836-.026 1.31-.081a.94.94 0 0 0 .786-.65l.816-2.6q.32-.116.627-.258l2.414 1.26a.94.94 0 0 0 1.015-.096 11.4 11.4 0 0 0 1.855-1.855.94.94 0 0 0 .097-1.015l-1.26-2.415q.141-.306.259-.626zm-3.618-.829a.94.94 0 0 0-.617.625 6.6 6.6 0 0 1-.5 1.214.94.94 0 0 0-.007.877l1.19 2.28a10 10 0 0 1-.703.703l-2.28-1.19a.94.94 0 0 0-.878.006 6.6 6.6 0 0 1-1.213.5.94.94 0 0 0-.625.618l-.772 2.46c-.343.02-.645.02-.989 0l-.772-2.46a.94.94 0 0 0-.625-.617 6.5 6.5 0 0 1-1.213-.5.94.94 0 0 0-.878-.006l-2.28 1.19a10 10 0 0 1-.703-.704l1.19-2.28a.94.94 0 0 0-.006-.877 6.6 6.6 0 0 1-.5-1.214.94.94 0 0 0-.618-.625l-2.46-.772a8 8 0 0 1 0-.989l2.46-.772a.94.94 0 0 0 .617-.625 6.5 6.5 0 0 1 .5-1.213.94.94 0 0 0 .007-.878l-1.19-2.28q.334-.371.703-.703l2.28 1.19a.94.94 0 0 0 .878-.006 6.6 6.6 0 0 1 1.213-.5.94.94 0 0 0 .625-.618l.772-2.46c.343-.02.645-.02.989 0l.772 2.46a.94.94 0 0 0 .625.617c.425.128.833.297 1.213.501.273.147.602.15.878.006l2.28-1.19q.371.334.703.703l-1.19 2.28a.94.94 0 0 0 .006.878c.204.381.373.789.5 1.213a.94.94 0 0 0 .618.625l2.46.772a8 8 0 0 1 0 .989zm10.221 18.387-1.61-.572a8 8 0 0 0-.316-.766l.732-1.542c.153-.32.11-.7-.109-.979a9.4 9.4 0 0 0-1.612-1.612.94.94 0 0 0-.98-.109l-1.542.732a8 8 0 0 0-.765-.315l-.573-1.61a.94.94 0 0 0-.77-.617 8.6 8.6 0 0 0-2.276 0 .94.94 0 0 0-.77.617l-.573 1.61a8 8 0 0 0-.766.316l-1.542-.732a.94.94 0 0 0-.978.109 9.4 9.4 0 0 0-1.613 1.611.94.94 0 0 0-.109.98l.732 1.543a8 8 0 0 0-.315.765l-1.61.573a.94.94 0 0 0-.617.77 9 9 0 0 0-.076 1.137c0 .349.024.72.075 1.137a.94.94 0 0 0 .617.77l1.61.572q.138.394.316.766l-.732 1.543a.93.93 0 0 0 .109.978 9.4 9.4 0 0 0 1.612 1.613c.279.218.66.26.98.109l1.542-.733q.373.178.765.315l.573 1.611a.94.94 0 0 0 .77.617c.418.052.79.077 1.138.077.349 0 .72-.025 1.137-.075a.94.94 0 0 0 .77-.617l.573-1.61a8 8 0 0 0 .766-.317l1.542.733c.32.152.7.111.979-.11a9.4 9.4 0 0 0 1.612-1.61.94.94 0 0 0 .109-.98l-.732-1.544q.178-.371.315-.765l1.61-.572a.94.94 0 0 0 .617-.771c.053-.417.077-.788.077-1.137s-.024-.72-.075-1.137a.94.94 0 0 0-.617-.772m-1.192 2.251-1.486.528a.94.94 0 0 0-.59.633 5.6 5.6 0 0 1-.52 1.262.94.94 0 0 0-.031.864l.673 1.418q-.234.256-.489.489l-1.418-.673a.94.94 0 0 0-.863.03 5.6 5.6 0 0 1-1.262.52.94.94 0 0 0-.634.59l-.528 1.486a6 6 0 0 1-.684 0l-.528-1.486a.94.94 0 0 0-.633-.59 5.6 5.6 0 0 1-1.263-.52.95.95 0 0 0-.863-.03l-1.419.673a8 8 0 0 1-.488-.489l.673-1.418a.94.94 0 0 0-.03-.864 5.6 5.6 0 0 1-.521-1.261.94.94 0 0 0-.59-.634l-1.486-.528a5 5 0 0 1-.002-.684l1.486-.53a.94.94 0 0 0 .59-.632c.123-.446.298-.87.52-1.263a.94.94 0 0 0 .031-.863l-.673-1.419q.234-.255.489-.488l1.418.673c.276.131.598.12.863-.03a5.6 5.6 0 0 1 1.262-.521.94.94 0 0 0 .634-.59l.528-1.486q.342-.018.684 0l.528 1.486a.94.94 0 0 0 .633.59c.445.123.87.298 1.263.52a.93.93 0 0 0 .863.031l1.419-.673q.255.233.488.488l-.673 1.419a.94.94 0 0 0 .03.863c.224.394.398.819.521 1.262.082.294.302.53.59.634l1.486.528a5 5 0 0 1 .002.685"/><path fill="#282928" d="M20.625 49.688c5.686 0 10.313-4.627 10.313-10.313s-4.627-10.313-10.313-10.313-10.313 4.627-10.313 10.313 4.627 10.313 10.313 10.313m0-18.75c4.652 0 8.438 3.785 8.438 8.437s-3.786 8.438-8.438 8.438-8.438-3.786-8.438-8.438 3.786-8.438 8.438-8.438ZM1.896 23.775l1.44 1.2a22.45 22.45 0 0 1 17.29-8.1c.477 0 .953.028 1.43.058L20.9 18.088l1.325 1.325 2.813-2.812a.937.937 0 0 0 0-1.326l-2.813-2.812-1.325 1.326 1.274 1.274a24 24 0 0 0-1.55-.062 24.33 24.33 0 0 0-18.729 8.774ZM40.313 8.438a4.693 4.693 0 0 0-4.688 4.687 4.693 4.693 0 0 0 4.688 4.688A4.693 4.693 0 0 0 45 13.125a4.693 4.693 0 0 0-4.688-4.688Zm0 7.5a2.816 2.816 0 0 1-2.813-2.813 2.816 2.816 0 0 1 2.813-2.813 2.816 2.816 0 0 1 2.812 2.813 2.816 2.816 0 0 1-2.813 2.813Zm8.437 15a3.754 3.754 0 0 0-3.75 3.75 3.754 3.754 0 0 0 3.75 3.75 3.754 3.754 0 0 0 3.75-3.75 3.754 3.754 0 0 0-3.75-3.75m0 5.625a1.877 1.877 0 0 1-1.875-1.876 1.875 1.875 0 1 1 1.875 1.876m8.621-31.857-4.688-.937a.935.935 0 0 0-1.103.735l-.937 4.687 1.838.369.505-2.524a14.1 14.1 0 0 1 1.389 6.09c0 3.232-1.067 6.271-3.085 8.788l1.464 1.173a15.98 15.98 0 0 0 3.496-9.962c0-2.455-.567-4.876-1.647-7.06l2.4.48z"/></svg>