<svg xmlns="http://www.w3.org/2000/svg" width="60" height="60" fill="none"><path fill="#282928" d="M57.946 11.696a2.72 2.72 0 0 0-1.61-1.982l-17.77-7.498a2.67 2.67 0 0 0-2.947.574L30 8.176l-5.6-5.37a2.68 2.68 0 0 0-2.966-.59L3.664 9.713a2.744 2.744 0 0 0-.883 4.44l4.458 4.649-4.449 4.641a2.742 2.742 0 0 0 .875 4.447L7.6 29.552V47.08a2.72 2.72 0 0 0 1.68 2.505l19.647 8.18c.34.156.708.235 1.081.234.355 0 .705-.075 1.027-.222l19.685-8.192a2.72 2.72 0 0 0 1.68-2.505V29.55l3.935-1.66a2.744 2.744 0 0 0 .884-4.44l-4.458-4.65 4.449-4.64a2.74 2.74 0 0 0 .736-2.465ZM30 27.116l-19.127-8.314L30 10.487l19.127 8.315L30 27.117ZM3.885 12.06a.85.85 0 0 1 .506-.627l17.77-7.5a.84.84 0 0 1 .932.203l5.252 5.04-19.588 8.51-4.638-4.836a.87.87 0 0 1-.234-.79m0 13.484a.87.87 0 0 1 .243-.8l4.629-4.822 19.584 8.514-5.27 5.053a.83.83 0 0 1-.91.187L4.39 26.175a.85.85 0 0 1-.506-.631Zm6.12 22.322a.85.85 0 0 1-.538-.785V30.338l11.966 5.05a2.7 2.7 0 0 0 2.08.01c.326-.135.62-.334.868-.585l4.686-4.492v25.48l-19.062-7.936Zm40.528-.785a.85.85 0 0 1-.535.783l-19.065 7.939V30.324l4.667 4.48a2.68 2.68 0 0 0 2.966.59l11.967-5.055zm5.582-21.538a.85.85 0 0 1-.506.627l-17.77 7.5a.84.84 0 0 1-.928-.202l-5.252-5.04 19.584-8.506 4.638 4.836a.86.86 0 0 1 .234.786Zm-.242-12.684-4.63 4.827-19.585-8.514 5.27-5.053a.82.82 0 0 1 .912-.186l17.77 7.496a.85.85 0 0 1 .505.627.88.88 0 0 1-.242.804z"/><path fill="#282928" d="M25.766 15.293A.73.73 0 0 0 25.2 15a.73.73 0 0 0-.566.293l-2.4 3.005c-.15.188-.234.443-.234.708 0 .266.084.52.234.708l2.4 3.005a.73.73 0 0 0 .563.281.73.73 0 0 0 .559-.293 1.14 1.14 0 0 0 .234-.7 1.15 1.15 0 0 0-.224-.704l-1.835-2.297 1.835-2.297c.15-.187.234-.442.234-.708s-.084-.52-.234-.708m12 2.987-2.394-3a.72.72 0 0 0-.561-.28.73.73 0 0 0-.558.293 1.14 1.14 0 0 0-.233.698c-.002.262.078.515.224.704l1.83 2.293-1.83 2.293a1 1 0 0 0-.18.324 1.22 1.22 0 0 0-.005.774q.061.186.175.328a.8.8 0 0 0 .262.218.66.66 0 0 0 .617-.006.8.8 0 0 0 .26-.224l2.393-3a1.14 1.14 0 0 0 .234-.707c0-.265-.084-.52-.234-.707Zm-6.452-3.229a1 1 0 0 0-1.264.632l-1.999 6a1 1 0 0 0 1.9.632l1.998-6a1 1 0 0 0-.635-1.264"/></svg>