<svg xmlns="http://www.w3.org/2000/svg" width="60" height="60" fill="none"><path fill="#282928" d="M46.363 32A17.73 17.73 0 0 1 45 41v.001l4.408 5.574a1.14 1.14 0 0 0 1.623.156c3.959-3.335 6.578-8.15 6.966-13.567.045-.63-.473-1.164-1.119-1.164zM35 2.121v13.924A18.76 18.76 0 0 1 43.918 24h12.947c.64 0 1.159-.524 1.134-1.156C57.54 11.008 47.992 1.594 36.182 1A1.125 1.125 0 0 0 35 2.121m-7.608 50.162c-10.226.107-18.677-8.288-18.76-18.642-.083-10.435 8.278-18.953 18.565-18.953V9.14c0-.65-.536-1.169-1.176-1.139C12.652 8.623 2 19.795 2 33.486 2 47.604 13.42 59.09 27.362 59a24.86 24.86 0 0 0 14.155-4.519c.53-.37.641-1.117.247-1.633l-3.355-4.388a18.33 18.33 0 0 1-11.017 3.823"/><path fill="#282928" d="M12 33.5C12 42.047 18.953 49 27.5 49 36.046 49 43 42.048 43 33.5 43 24.954 36.046 18 27.5 18 18.953 18 12 24.953 12 33.5m17.222-10.297v1.643c1.765 0 3.327.75 4.43 1.925a1.722 1.722 0 0 1-2.514 2.355c-.493-.526-1.166-.831-1.846-.837h-3.723a1.744 1.744 0 1 0 .002 3.49h3.86a5.194 5.194 0 0 1 5.188 5.187c0 2.673-2.056 5.19-5.397 5.19v1.641a1.722 1.722 0 1 1-3.444 0v-1.641c-1.212 0-2.407-.132-3.807-1.102a1.722 1.722 0 0 1 1.963-2.83c.413.29.926.482 1.437.488h4.06a1.746 1.746 0 0 0 0-3.49h-3.86a5.195 5.195 0 0 1-5.19-5.188c0-2.681 2.064-5.188 5.397-5.188v-1.643a1.722 1.722 0 0 1 3.444 0"/></svg>