<svg xmlns="http://www.w3.org/2000/svg" width="60" height="60" fill="none"><g fill="#282928" clip-path="url(#a)"><path d="M49.328 12.422C49.328 5.638 43.808 0 37.023 0c-2.643 0-5.113 1.131-7.03 3.167C28.074 1.131 25.604 0 22.96 0c-6.784 0-12.305 5.638-12.305 12.422 0 6.823 5.008 10.346 10.806 14.426 2.392 1.683 4.865 3.423 7.378 5.603l1.15 1 1.152-.998c2.841-2.458 5.543-4.383 7.926-6.08 5.732-4.08 10.26-7.304 10.26-13.951Zm-14.062 5.273H31.75v3.516h-3.516v-3.516H24.72V14.18h3.515v-3.516h3.516v3.516h3.516zm22.617-1.617c-3.586 0-4.512 16.664-4.582 17.016-.357 2.442-2.077 6.056-4.982 8.233l-7.614 5.528-2.108-2.816 7.614-5.526c3.016-2.261 4.39-6.122.621-6.122-3.376 0-9.686 3.908-11.557 5.459a9.74 9.74 0 0 0-3.525 7.504V60h10.547c0-1.688.914-3.527 2.32-5.285 1.477-1.934 3.586-3.903 5.766-5.906 4.148-3.903 8.449-7.91 9.011-11.989.334-2.739.612-7.437.598-11.625-.015-4.689-.412-8.965-2.11-9.117ZM24.297 37.524c-4.957-3.41-8.718-5.133-11.144-5.133-3.77 0-2.395 3.86.621 6.122l7.614 5.526-2.108 2.816-7.614-5.528c-2.905-2.177-4.625-5.791-4.982-8.233-.07-.352-.996-17.016-4.582-17.016-1.969.176-2.18 5.906-2.074 11.39.07 4.009.387 7.91.562 9.352.563 4.078 4.864 8.086 9.012 11.989 2.18 2.004 4.289 3.972 5.766 5.906 1.406 1.758 2.32 3.597 2.32 5.285h10.547V45.424a9.9 9.9 0 0 0-3.938-7.9"/></g><defs><clipPath id="a"><path fill="#fff" d="M0 0h60v60H0z"/></clipPath></defs></svg>