<svg xmlns="http://www.w3.org/2000/svg" width="60" height="60" fill="none"><g clip-path="url(#a)"><path fill="#282928" d="M15.962 60h28.074a.937.937 0 0 0 .938-.938v-6.057A13.957 13.957 0 0 0 31.65 39.078a8.547 8.547 0 1 0-3.302 0 13.96 13.96 0 0 0-13.323 13.925v6.059a.937.937 0 0 0 .937.937ZM29.07 40.94h1.858l1.35 9.734L30 53.392l-2.28-2.718zm-5.743-10.247A6.673 6.673 0 1 1 30 37.365a6.68 6.68 0 0 1-6.672-6.672ZM16.9 53.004a12.08 12.08 0 0 1 10.259-11.93l-1.354 9.754a.94.94 0 0 0 .21.732l3.266 3.894a.937.937 0 0 0 1.437 0l3.265-3.894a.94.94 0 0 0 .21-.732l-1.353-9.753a12.08 12.08 0 0 1 10.258 11.93v5.12h-3.96v-6.524a.938.938 0 0 0-1.875 0v6.524H22.736v-6.524a.938.938 0 0 0-1.875 0v6.524h-3.96zm3.19-45.871a.938.938 0 0 0-.53 1.63l4.806 4.32-1.347 6.32a.938.938 0 0 0 1.386 1.007l5.593-3.234 5.594 3.234a.938.938 0 0 0 1.386-1.007l-1.347-6.32 4.804-4.32a.938.938 0 0 0-.529-1.63l-6.426-.672L30.856.557a.937.937 0 0 0-1.713 0L26.518 6.46l-6.427.672Zm7.92.585 1.988-4.473 1.989 4.473a.94.94 0 0 0 .759.551l4.868.51-3.64 3.272a.94.94 0 0 0-.29.893l1.02 4.787-4.237-2.45a.94.94 0 0 0-.939 0l-4.237 2.45 1.02-4.788a.94.94 0 0 0-.29-.892l-3.638-3.273 4.868-.509a.94.94 0 0 0 .759-.551m31.406 7.726a.94.94 0 0 0-.794-.643l-6.426-.671-2.625-5.905a.937.937 0 0 0-1.714 0l-2.624 5.905-6.427.671a.938.938 0 0 0-.53 1.63l4.806 4.32-1.347 6.32a.938.938 0 0 0 1.386 1.007l5.594-3.234 5.593 3.235a.937.937 0 0 0 1.387-1.007l-1.347-6.32 4.805-4.32a.94.94 0 0 0 .263-.988M52.69 19.72a.94.94 0 0 0-.29.893l1.02 4.787-4.237-2.45a.94.94 0 0 0-.938 0l-4.238 2.45 1.02-4.787a.94.94 0 0 0-.29-.893L41.1 16.447l4.869-.509a.94.94 0 0 0 .759-.552l1.988-4.472 1.989 4.473a.94.94 0 0 0 .759.551l4.868.51-3.64 3.272ZM4.67 28.025a.94.94 0 0 0 1.02.053l5.594-3.234 5.594 3.235a.937.937 0 0 0 1.386-1.007l-1.347-6.32 4.805-4.32a.938.938 0 0 0-.53-1.63l-6.426-.672-2.625-5.905a.937.937 0 0 0-1.713 0L7.802 14.13l-6.427.671a.938.938 0 0 0-.53 1.63l4.805 4.32-1.347 6.32a.94.94 0 0 0 .366.954ZM3.668 16.447l4.867-.51a.94.94 0 0 0 .76-.55l1.988-4.473 1.988 4.473a.94.94 0 0 0 .76.551l4.868.51-3.64 3.272a.94.94 0 0 0-.29.893l1.02 4.787-4.237-2.45a.94.94 0 0 0-.938 0L6.576 25.4l1.02-4.787a.94.94 0 0 0-.29-.893z"/></g><defs><clipPath id="a"><path fill="#fff" d="M0 0h60v60H0z"/></clipPath></defs></svg>