<svg xmlns="http://www.w3.org/2000/svg" width="60" height="60" fill="none"><path fill="#282928" d="M41.25 28.125a.94.94 0 0 0 .938-.938v-1.875a.94.94 0 0 0-.938-.937.94.94 0 0 0-.938.938v1.875a.94.94 0 0 0 .938.937m-3.75 0a.94.94 0 0 0 .938-.938v-1.875a.94.94 0 0 0-.938-.937.94.94 0 0 0-.938.938v1.875a.94.94 0 0 0 .938.937m-3.75 0a.94.94 0 0 0 .938-.938v-1.875a.94.94 0 0 0-.938-.937.94.94 0 0 0-.938.938v1.875a.94.94 0 0 0 .938.937m-14.062 0a1.875 1.875 0 1 0 0-3.75 1.875 1.875 0 0 0 0 3.75m5.625 0a1.875 1.875 0 1 0 0-3.75 1.875 1.875 0 0 0 0 3.75"/><path fill="#282928" d="M45 13.125c-.666 0-1.322.056-1.997.16A13.1 13.1 0 0 0 30 1.874a13.1 13.1 0 0 0-13.003 11.41 12 12 0 0 0-1.997-.16c-7.237 0-13.125 5.887-13.125 13.125a13.08 13.08 0 0 0 8.081 12.112.94.94 0 0 0 1.228-.506.945.945 0 0 0-.506-1.228A11.215 11.215 0 0 1 3.76 26.241c0-6.207 5.044-11.25 11.25-11.25.854 0 1.716.103 2.625.318a.96.96 0 0 0 .779-.159.95.95 0 0 0 .375-.703c.29-6 5.212-10.706 11.221-10.706s10.932 4.706 11.222 10.706c.01.281.15.534.375.703a.93.93 0 0 0 .778.16c.91-.216 1.772-.32 2.625-.32 6.207 0 11.25 5.044 11.25 11.25a11.23 11.23 0 0 1-6.918 10.388.942.942 0 0 0 .356 1.81.8.8 0 0 0 .356-.076 13.095 13.095 0 0 0 8.081-12.112c0-7.238-5.887-13.125-13.125-13.125zm-3.75 30a.94.94 0 0 0 .938-.938v-1.874a.94.94 0 0 0-.938-.938.94.94 0 0 0-.938.938v1.874a.94.94 0 0 0 .938.938m-3.75 0a.94.94 0 0 0 .938-.938v-1.874a.94.94 0 0 0-.938-.938.94.94 0 0 0-.938.938v1.874a.94.94 0 0 0 .938.938m-3.75 0a.94.94 0 0 0 .938-.938v-1.874a.94.94 0 0 0-.938-.938.94.94 0 0 0-.938.938v1.874a.94.94 0 0 0 .938.938m-14.062 0a1.875 1.875 0 1 0 0-3.75 1.875 1.875 0 0 0 0 3.75m5.625 0a1.875 1.875 0 1 0 0-3.75 1.875 1.875 0 0 0 0 3.75"/><path fill="#282928" d="M49.688 50.625c-1.744 0-3.197 1.2-3.62 2.813h-11.38a1.88 1.88 0 0 0-1.876-1.876h-1.874v-3.75h13.125A2.82 2.82 0 0 0 46.874 45v-7.5a2.82 2.82 0 0 0-2.813-2.813v-1.874A2.82 2.82 0 0 0 46.876 30v-7.5a2.82 2.82 0 0 0-2.813-2.813H15.939a2.82 2.82 0 0 0-2.813 2.813V30a2.82 2.82 0 0 0 2.813 2.813v1.874a2.82 2.82 0 0 0-2.813 2.813V45a2.82 2.82 0 0 0 2.813 2.813h13.124v3.75h-1.875a1.88 1.88 0 0 0-1.875 1.874h-11.38c-.423-1.612-1.876-2.812-3.62-2.812a3.75 3.75 0 0 0-3.75 3.75 3.75 3.75 0 0 0 3.75 3.75c1.744 0 3.197-1.2 3.62-2.813h11.38a1.88 1.88 0 0 0 1.875 1.876h5.625a1.88 1.88 0 0 0 1.876-1.876h11.38c.423 1.613 1.876 2.813 3.62 2.813a3.75 3.75 0 0 0 3.75-3.75 3.75 3.75 0 0 0-3.75-3.75ZM15 30v-7.5a.94.94 0 0 1 .938-.938h28.124A.94.94 0 0 1 45 22.5V30a.94.94 0 0 1-.938.938H15.939A.94.94 0 0 1 15 30m2.813 2.813h24.375v1.874H17.811v-1.874ZM15 45v-7.5a.94.94 0 0 1 .938-.938h28.124A.94.94 0 0 1 45 37.5V45a.94.94 0 0 1-.938.938H15.939A.94.94 0 0 1 15 45m-4.688 11.25a1.88 1.88 0 0 1-1.874-1.875 1.88 1.88 0 0 1 1.874-1.875 1.88 1.88 0 0 1 1.876 1.875 1.88 1.88 0 0 1-1.876 1.875m16.876-.938v-1.874h5.625v1.875zm22.5.938a1.88 1.88 0 0 1-1.876-1.875 1.88 1.88 0 0 1 1.876-1.875 1.88 1.88 0 0 1 1.874 1.875 1.88 1.88 0 0 1-1.874 1.875"/></svg>