<svg xmlns="http://www.w3.org/2000/svg" width="60" height="60" fill="none"><path fill="#282928" d="M57.284 4.418c.949 0 1.716-.764 1.716-1.71C59 1.765 58.233 1 57.284 1H29.716C28.767 1 28 1.764 28 2.709s.767 1.709 1.716 1.709h8.58v10.367h-1.717c-.455 0-.891.18-1.213.501l-6.863 6.836c-.322.32-.503.754-.503 1.208v6.836c0 .453.181.887.503 1.208L33.148 36v-4.833l-1.716-1.709v-5.42l5.858-5.835h12.42l5.858 5.835v5.42l-1.716 1.709V36l4.645-4.626c.322-.32.503-.755.503-1.208V23.33c0-.454-.181-.888-.503-1.208l-6.863-6.836a1.72 1.72 0 0 0-1.213-.5h-1.716V4.417h8.58ZM52.09 45H7.91C4.156 45 1 48.134 1 52s3.156 7 6.91 7h44.18c3.754 0 6.91-3.134 6.91-7s-3.156-7-6.91-7M9.61 53.75c-.94 0-1.7-.784-1.7-1.75 0-.967.76-1.75 1.7-1.75.938 0 1.699.783 1.699 1.75 0 .966-.761 1.75-1.7 1.75Zm6.796 0c-.938 0-1.699-.784-1.699-1.75 0-.967.76-1.75 1.7-1.75.938 0 1.698.783 1.698 1.75 0 .966-.76 1.75-1.699 1.75m6.797 0c-.938 0-1.7-.784-1.7-1.75 0-.967.762-1.75 1.7-1.75.939 0 1.7.783 1.7 1.75 0 .966-.761 1.75-1.7 1.75m6.797 0c-.939 0-1.7-.784-1.7-1.75 0-.967.761-1.75 1.7-1.75.938 0 1.7.783 1.7 1.75 0 .966-.762 1.75-1.7 1.75m6.797 0c-.939 0-1.7-.784-1.7-1.75 0-.967.761-1.75 1.7-1.75.938 0 1.7.783 1.7 1.75 0 .966-.762 1.75-1.7 1.75m6.797 0c-.939 0-1.7-.784-1.7-1.75 0-.967.761-1.75 1.7-1.75.938 0 1.699.783 1.699 1.75 0 .966-.76 1.75-1.7 1.75Zm6.797 0c-.939 0-1.7-.784-1.7-1.75 0-.967.761-1.75 1.7-1.75.938 0 1.699.783 1.699 1.75 0 .966-.761 1.75-1.7 1.75ZM21.375 28h-9.75c-.898 0-1.625.776-1.625 1.735V42h13V29.735c0-.959-.727-1.735-1.625-1.735"/><path fill="#282928" d="M49.264 28H38.736c-.959 0-1.735.776-1.735 1.735V42h14V29.735c0-.959-.776-1.735-1.736-1.735Z"/></svg>