<svg xmlns="http://www.w3.org/2000/svg" width="60" height="60" fill="none"><path fill="#282928" d="m36.188 24.189-4.632 3.468A2.8 2.8 0 0 0 30 27.19 2.82 2.82 0 0 0 27.187 30 2.82 2.82 0 0 0 30 32.813a2.82 2.82 0 0 0 2.813-2.812c0-.29-.057-.572-.141-.834l4.64-3.479a.94.94 0 0 0 .188-1.312.94.94 0 0 0-1.313-.188Z"/><path fill="#282928" d="m55.903 22.022-3.966-.722a.83.83 0 0 1-.572-.403.8.8 0 0 1-.047-.703l1.791-4.65a2.69 2.69 0 0 0-.61-2.878L47.326 7.49a2.69 2.69 0 0 0-2.879-.61l-4.65 1.79a.84.84 0 0 1-.703-.046.81.81 0 0 1-.403-.572l-.722-3.956a2.7 2.7 0 0 0-2.653-2.222h-10.65a2.7 2.7 0 0 0-2.653 2.222l-.722 3.956a.83.83 0 0 1-.403.572.8.8 0 0 1-.703.047l-4.65-1.79a2.69 2.69 0 0 0-2.878.609L7.48 12.666a2.7 2.7 0 0 0-.61 2.878l1.791 4.65a.84.84 0 0 1-.047.703.81.81 0 0 1-.572.403l-3.956.722a2.7 2.7 0 0 0-2.222 2.653v10.65c0 1.303.938 2.419 2.222 2.653l3.966.722a.83.83 0 0 1 .572.403.8.8 0 0 1 .046.703l-1.79 4.65a2.69 2.69 0 0 0 .61 2.878l5.174 5.175a2.69 2.69 0 0 0 2.878.61l4.65-1.79a.84.84 0 0 1 .703.046.8.8 0 0 1 .404.572l.721 3.956a2.7 2.7 0 0 0 2.654 2.222h10.65a2.7 2.7 0 0 0 2.653-2.222l.722-3.965a.83.83 0 0 1 .403-.572.8.8 0 0 1 .703-.047l4.65 1.79c.994.385 2.128.15 2.878-.609l5.175-5.175c.75-.75.994-1.884.61-2.878l-1.791-4.65a.84.84 0 0 1 .047-.703.81.81 0 0 1 .572-.403l3.956-.722a2.7 2.7 0 0 0 2.222-2.653v-10.65a2.7 2.7 0 0 0-2.222-2.654zm-7.388 10.79a18.68 18.68 0 0 1-6.019 11.129c-.103.093-.206.197-.309.28-.281.245-.581.47-.872.695a17 17 0 0 1-.506.375c-.272.197-.553.375-.834.553-.216.131-.432.272-.647.393a19 19 0 0 1-1.575.816c-.263.122-.516.235-.788.338-.29.112-.581.225-.881.318-.253.085-.506.178-.76.253-.328.094-.665.179-.993.254-.235.056-.478.121-.713.168a16 16 0 0 1-1.172.178c-.206.029-.403.066-.609.085-.6.056-1.21.094-1.828.094s-1.228-.038-1.828-.094c-.206-.019-.403-.056-.61-.084a16 16 0 0 1-1.171-.179c-.244-.047-.478-.112-.713-.168a17 17 0 0 1-.994-.254c-.253-.075-.506-.168-.759-.253-.3-.103-.59-.206-.881-.318-.263-.103-.525-.225-.788-.338a19 19 0 0 1-1.575-.816l-.647-.393c-.28-.178-.562-.357-.834-.553-.169-.122-.337-.253-.506-.375-.3-.225-.59-.45-.872-.694l-.31-.281a18.68 18.68 0 0 1-6.018-11.129A18.6 18.6 0 0 1 11.268 30c0-10.34 8.41-18.75 18.75-18.75s18.75 8.41 18.75 18.75c0 .956-.093 1.894-.234 2.813h-.019Z"/><path fill="#282928" d="M13.125 30c0 .957.103 1.894.253 2.813h3.15c.572 0 1.04-.506 1.04-1.125 0-.694.066-1.36.16-2.025l-4.453-1.716c-.084.675-.14 1.36-.14 2.063zm.479-3.938 4.49 1.735c.319-1.163.797-2.25 1.378-3.263l-3.984-3.075a16.8 16.8 0 0 0-1.875 4.603zm2.916-6.169 4.003 3.084a12.9 12.9 0 0 1 3-2.803l-2.27-4.584a17 17 0 0 0-4.733 4.303m12.542-6.741a16.7 16.7 0 0 0-6.15 1.547l2.26 4.575a11.6 11.6 0 0 1 3.89-1.031v-5.09Zm8.025 1.558a16.9 16.9 0 0 0-6.15-1.538v5.062a11.5 11.5 0 0 1 3.891 1.041zm1.651.89-2.26 4.584a13.1 13.1 0 0 1 3.01 2.793l4.003-3.093a17.2 17.2 0 0 0-4.744-4.294zm5.792 5.85-3.993 3.084c.516.88.928 1.837 1.247 2.85l4.519-1.744a16.7 16.7 0 0 0-1.763-4.19zm-2.315 7.771c.14.797.215 1.622.215 2.466 0 .619.46 1.125 1.041 1.125h3.15c.16-.919.253-1.856.253-2.813q0-1.28-.197-2.503z"/></svg>