<svg xmlns="http://www.w3.org/2000/svg" width="60" height="60" fill="none"><path fill="#282928" d="M58.475 24.782a.82.82 0 0 0-.807-.674h-5.551a22.7 22.7 0 0 0-2.313-5.58l3.924-3.924a.82.82 0 0 0 .095-1.046 29 29 0 0 0-7.38-7.381.82.82 0 0 0-1.047.095l-3.925 3.925a22.7 22.7 0 0 0-5.579-2.314v-5.55a.82.82 0 0 0-.674-.808 29.3 29.3 0 0 0-10.436 0 .82.82 0 0 0-.674.807v5.551a22.7 22.7 0 0 0-5.58 2.314l-3.924-3.925a.82.82 0 0 0-1.047-.095 29 29 0 0 0-7.38 7.38.82.82 0 0 0 .095 1.047l3.925 3.925a22.7 22.7 0 0 0-2.314 5.579H2.332a.82.82 0 0 0-.807.674 29.2 29.2 0 0 0 0 10.436.82.82 0 0 0 .807.674h5.551a22.7 22.7 0 0 0 2.314 5.58l-3.925 3.924a.82.82 0 0 0-.095 1.047 29 29 0 0 0 7.38 7.38.82.82 0 0 0 1.047-.095l3.925-3.924a22.7 22.7 0 0 0 5.579 2.313v5.551a.82.82 0 0 0 .674.807 29.2 29.2 0 0 0 10.436 0 .82.82 0 0 0 .674-.807v-5.551a22.7 22.7 0 0 0 5.58-2.313l3.924 3.924c.28.28.72.32 1.047.095a29 29 0 0 0 7.38-7.38.82.82 0 0 0-.095-1.047l-3.925-3.925a22.7 22.7 0 0 0 2.314-5.579h5.551a.82.82 0 0 0 .807-.674 29.2 29.2 0 0 0 0-10.436m-1.5 9.47h-5.498a.82.82 0 0 0-.798.632 21.1 21.1 0 0 1-2.605 6.284.82.82 0 0 0 .117 1.011l3.887 3.887a27.3 27.3 0 0 1-6.012 6.012l-3.887-3.887a.82.82 0 0 0-1.012-.117 21 21 0 0 1-6.284 2.605.82.82 0 0 0-.633.798v5.497a27.7 27.7 0 0 1-8.502 0v-5.497a.82.82 0 0 0-.632-.798 21.1 21.1 0 0 1-6.284-2.605.82.82 0 0 0-1.012.117l-3.886 3.887a27.3 27.3 0 0 1-6.012-6.012l3.887-3.887a.82.82 0 0 0 .117-1.012 21 21 0 0 1-2.605-6.284.82.82 0 0 0-.798-.633H3.025a27.6 27.6 0 0 1 .001-8.502h5.497c.38 0 .711-.26.798-.632a21.1 21.1 0 0 1 2.605-6.284.82.82 0 0 0-.117-1.011l-3.887-3.887a27.3 27.3 0 0 1 6.012-6.012l3.887 3.887a.82.82 0 0 0 1.012.117 21.1 21.1 0 0 1 6.284-2.605.82.82 0 0 0 .633-.798V3.025a27.7 27.7 0 0 1 8.502 0v5.497c0 .38.262.711.632.798 2.222.523 4.336 1.4 6.284 2.605a.82.82 0 0 0 1.011-.117l3.887-3.887a27.3 27.3 0 0 1 6.012 6.011l-3.887 3.888a.82.82 0 0 0-.117 1.012 21.1 21.1 0 0 1 2.605 6.284.82.82 0 0 0 .798.633h5.497a27.6 27.6 0 0 1 0 8.503ZM30 14.33c-8.64 0-15.67 7.029-15.67 15.669S21.36 45.67 30 45.67 45.67 38.64 45.67 30 38.64 14.33 30 14.33m0 29.698c-7.735 0-14.028-6.293-14.028-14.029S22.265 15.971 30 15.971s14.029 6.293 14.029 14.028S37.735 44.028 30 44.028m2.338-19.585L29.247 35.98a.821.821 0 0 1-1.586-.424l3.091-11.536a.82.82 0 0 1 1.586.424ZM25.122 26.6 21.193 30l3.928 3.4a.82.82 0 1 1-1.074 1.24l-4.644-4.02a.82.82 0 0 1 0-1.24l4.644-4.02a.82.82 0 0 1 1.075 1.24m10.83-1.24 4.644 4.02a.82.82 0 0 1 0 1.24l-4.644 4.02a.82.82 0 0 1-1.075-1.24l3.93-3.4-3.928-3.4a.82.82 0 0 1 1.073-1.24"/></svg>