<svg xmlns="http://www.w3.org/2000/svg" width="60" height="60" fill="none"><g clip-path="url(#a)"><path fill="#282928" fill-rule="evenodd" d="M27.964 31.952a.72.72 0 0 0 .766-.67c.212-3.11.873-6.182 1.863-8.65 1.51-3.765 3.41-5.822 5.808-6.284a.718.718 0 0 0 .47-1.106.72.72 0 0 0-.742-.308c-2.918.563-5.166 2.906-6.872 7.163-1.045 2.604-1.742 5.831-1.962 9.087a.72.72 0 0 0 .67.768Zm24.22 15.944H26.656a5.657 5.657 0 0 0-1.6-7.878c-1.972-7.283-.406-19.193 5.06-24.93 2.735-2.872 6.12-3.857 10.06-2.93a.72.72 0 0 0 .69-.21c2.94-3.137 4.813-3.195 7.397-2.944-.905.912-2.021 2.447-2.87 4.945a.72.72 0 0 0 .212.777l11.637 10.015a.85.85 0 0 1 .188 1.069l-2.153 3.816a1.916 1.916 0 0 1-2.566.741l-2.142-1.156a.85.85 0 0 1-.343-1.166l.455-.824a.72.72 0 0 0-.43-1.04l-7.418-2.141a.72.72 0 0 0-.74.216c-1.698 1.93-2.397 3.732-2.078 5.355a1 1 0 0 0 .037.123c1.533 3.923 4.413 5.763 6.954 7.386 3.56 2.275 6.392 4.086 5.176 10.776Zm4.066 6.052H22.296v-4.612H56.25zM59.615 60H18.933v-4.612h40.682zM28.141 9.74a.72.72 0 0 1-1.018 0l-3.705-3.705v15.356a2.416 2.416 0 0 1-2.413 2.412h-15.4a.97.97 0 0 0-.972.973v13.651a3.528 3.528 0 1 1-1.44 0v-13.65a2.416 2.416 0 0 1 2.412-2.413h15.4a.974.974 0 0 0 .973-.973V6.035L18.274 9.74a.72.72 0 1 1-1.02-1.018l4.935-4.934a.72.72 0 0 1 1.018 0l4.934 4.934a.72.72 0 0 1 0 1.018m9.58-2.278a.72.72 0 0 1-1.018 0l-2.608-2.607-2.606 2.607a.72.72 0 1 1-1.02-1.018l2.608-2.607-2.608-2.608A.72.72 0 0 1 31.487.211l2.608 2.608L36.703.21a.721.721 0 0 1 1.017 1.02l-2.607 2.608 2.607 2.607a.72.72 0 0 1 0 1.018ZM11.87 18.674a.72.72 0 0 0 0-1.018l-2.61-2.608 2.608-2.607a.72.72 0 1 0-1.018-1.019L8.243 14.03l-2.607-2.607a.72.72 0 0 0-1.02 1.018l2.608 2.607-2.607 2.608a.72.72 0 0 0 1.019 1.018l2.607-2.607 2.608 2.607a.72.72 0 0 0 1.018 0Zm5.935 19.653a.72.72 0 0 0 0-1.019l-2.608-2.607 2.608-2.608a.72.72 0 0 0-1.018-1.018l-2.607 2.608-2.608-2.608a.72.72 0 0 0-1.018 1.018l2.607 2.608-2.607 2.607a.72.72 0 1 0 1.018 1.019l2.608-2.608 2.607 2.608a.72.72 0 0 0 1.018 0" clip-rule="evenodd"/></g><defs><clipPath id="a"><path fill="#fff" d="M60 0H0v60h60z"/></clipPath></defs></svg>