<svg xmlns="http://www.w3.org/2000/svg" width="72.647" height="72.646"><path d="M36.568 46.239a9.926 9.926 0 1 1 9.857-9.926 9.926 9.926 0 0 1-9.857 9.926m0-17.508a7.582 7.582 0 1 0 7.513 7.582 7.58 7.58 0 0 0-7.513-7.582"/><path d="M39.524 61.132h-5.911a1.17 1.17 0 0 1-1.176-1.172V55.7a19.7 19.7 0 0 1-6.566-2.742l-2.983 3.005a1.19 1.19 0 0 1-1.665 0l-4.179-4.211a1.17 1.17 0 0 1 0-1.651l2.993-3.013a20 20 0 0 1-2.729-6.628h-4.215a1.17 1.17 0 0 1-1.173-1.172v-5.957a1.173 1.173 0 0 1 1.173-1.172h4.217a20 20 0 0 1 2.727-6.628l-2.993-3.015a1.17 1.17 0 0 1 0-1.651l4.179-4.211a1.21 1.21 0 0 1 1.665 0l2.983 3.005a19.7 19.7 0 0 1 6.566-2.742v-4.26a1.173 1.173 0 0 1 1.176-1.169h5.911a1.17 1.17 0 0 1 1.173 1.172v4.26a19.7 19.7 0 0 1 6.566 2.742l2.983-3.005a1.21 1.21 0 0 1 1.665 0l4.179 4.211a1.17 1.17 0 0 1 0 1.651l-2.993 3.012a20 20 0 0 1 2.729 6.628h4.217a1.17 1.17 0 0 1 1.173 1.172v5.957a1.173 1.173 0 0 1-1.173 1.172h-4.216a20 20 0 0 1-2.73 6.628l2.993 3.015a1.17 1.17 0 0 1 0 1.651l-4.179 4.211a1.21 1.21 0 0 1-1.665 0l-2.983-3.007a19.7 19.7 0 0 1-6.566 2.742v4.26a1.173 1.173 0 0 1-1.173 1.172m-4.738-2.344h3.566v-4.059a1.17 1.17 0 0 1 .985-1.157 17.3 17.3 0 0 0 7.377-3.084 1.174 1.174 0 0 1 1.523.121l2.841 2.862 2.528-2.547-2.854-2.875a1.17 1.17 0 0 1-.12-1.509 17.6 17.6 0 0 0 3.062-7.441 1.17 1.17 0 0 1 1.158-.988h4.019v-3.608h-4.019a1.17 1.17 0 0 1-1.158-.988 17.6 17.6 0 0 0-3.062-7.441 1.17 1.17 0 0 1 .12-1.509l2.853-2.877-2.528-2.547-2.84 2.865a1.17 1.17 0 0 1-1.523.121 17.3 17.3 0 0 0-7.377-3.082 1.17 1.17 0 0 1-.985-1.157v-4.059h-3.566v4.059a1.17 1.17 0 0 1-.985 1.157 17.3 17.3 0 0 0-7.377 3.082 1.17 1.17 0 0 1-1.523-.121l-2.841-2.862-2.523 2.544 2.854 2.875a1.17 1.17 0 0 1 .12 1.509 17.6 17.6 0 0 0-3.062 7.441 1.17 1.17 0 0 1-1.158.988h-4.02v3.611h4.019a1.17 1.17 0 0 1 1.158.988 17.6 17.6 0 0 0 3.062 7.441 1.17 1.17 0 0 1-.12 1.509l-2.854 2.875 2.528 2.547 2.841-2.862a1.17 1.17 0 0 1 1.523-.121 17.3 17.3 0 0 0 7.377 3.082 1.17 1.17 0 0 1 .985 1.157Z"/><path d="M68.194 12.45a1.173 1.173 0 0 0-2.345.019l.013 1.585C58.822 5.535 47.55 0 36.733 0a35.67 35.67 0 0 0-28.4 13.969 1.173 1.173 0 0 0 1.853 1.431A33.34 33.34 0 0 1 36.733 2.344c10.527 0 21.522 5.6 28.055 14.119h-3.244a1.173 1.173 0 0 0 0 2.344h5.519a1.187 1.187 0 0 0 1.173-1.182ZM72.647 36.015a36 36 0 0 0-2.38-12.915 1.173 1.173 0 0 0-2.19.839 33.6 33.6 0 0 1 2.224 12.079c0 13.089-8.967 25.655-21.743 31.055l.9-1.407a1.173 1.173 0 0 0-1.967-1.266l-2.8 4.35a1.184 1.184 0 0 0 .506 1.7l4.72 2.111a1.173 1.173 0 0 0 .959-2.139l-2.059-.922c13.964-5.6 23.826-19.254 23.826-33.488ZM38.122 69.658q-.691.028-1.39.028a33.66 33.66 0 0 1-33.569-33.67c0-3.288 1.357-7.394 2.651-10.862l1.031 2.319a1.173 1.173 0 0 0 2.143-.952l-2.186-4.917a1.186 1.186 0 0 0-1.6-.568l-4.6 2.343a1.173 1.173 0 0 0 1.064 2.089l1.893-.963C2.212 28.114.818 32.401.818 36.016a36.006 36.006 0 0 0 35.914 36.015q.746 0 1.485-.03a1.173 1.173 0 0 0-.095-2.343c-.461.02.652-.027 0 0"/></svg>