<svg xmlns="http://www.w3.org/2000/svg" width="36.697" height="36.697"><path d="M36.452 24.967a.76.76 0 0 0-.478-.558l-16.885-6.442a.764.764 0 0 0-.994.974l6.152 16.985a.76.76 0 0 0 .55.485.6.6 0 0 0 .168 0 .76.76 0 0 0 .535-.218l2.866-2.812 2.77 2.717a.764.764 0 0 0 1.07 0l3.94-3.867a.764.764 0 0 0 0-1.093l-2.751-2.694 2.843-2.794a.76.76 0 0 0 .214-.683m-4.685 2.935a.764.764 0 0 0 0 1.093l2.751 2.675-2.847 2.8-2.769-2.72a.764.764 0 0 0-1.072 0l-2.549 2.5-5.18-14.281 14.219 5.442Z"/><path d="M17.041 21.94a3.821 3.821 0 1 1 4.891-4.926.773.773 0 0 0 1.452-.531 5.4 5.4 0 0 0-.737-1.337l1.433-1.452a.764.764 0 0 0-1.078-1.08l-1.454 1.455a5.315 5.315 0 0 0-6.4 0l-1.454-1.455a.764.764 0 0 0-1.078 1.078l1.456 1.456a5.315 5.315 0 0 0 0 6.4l-1.456 1.456a.764.764 0 1 0 1.078 1.078l1.454-1.454a5.4 5.4 0 0 0 1.372.764.8.8 0 0 0 .264.046.764.764 0 0 0 .26-1.483Z"/><path d="M6.116 10.707a5.3 5.3 0 0 0 2.465-1.036l1.425 1.418a.764.764 0 0 0 1.078-1.078L9.651 8.578a5.3 5.3 0 0 0 1-2.457h15.4a5.3 5.3 0 0 0 1.009 2.434l-1.452 1.456a.764.764 0 1 0 1.078 1.078l1.456-1.456a5.35 5.35 0 1 0-2.09-5.04H10.637a5.35 5.35 0 1 0-6.045 6.114v15.345a5.35 5.35 0 1 0 5.044 2.09l1.452-1.456a.764.764 0 0 0-1.078-1.078L8.554 27.06a5.3 5.3 0 0 0-2.438-1.008Zm25.22-9.171a3.821 3.821 0 1 1-3.82 3.821 3.82 3.82 0 0 1 3.824-3.821ZM1.535 5.419A3.821 3.821 0 1 1 5.356 9.24a3.82 3.82 0 0 1-3.821-3.821m3.821 29.743a3.821 3.821 0 1 1 3.821-3.821 3.82 3.82 0 0 1-3.821 3.821"/></svg>