<svg xmlns="http://www.w3.org/2000/svg" width="64.353" height="72.675"><g fill-rule="evenodd"><path d="M39.061 30.931a.86.86 0 0 0-.227-.591 1.65 1.65 0 0 0-1.819 0 .73.73 0 0 0-.273.591v2.455l-.955.409a4.63 4.63 0 0 0-2.092 1.637 4.88 4.88 0 0 0-.227 5.456 4.6 4.6 0 0 0 1.955 1.773l3.956 2a2.53 2.53 0 0 1 1.41 2.273 2.73 2.73 0 0 1-.727 1.864 3.53 3.53 0 0 1-3.865.364 3.2 3.2 0 0 1-.955-1.228c-.091-.091-.136-.227-.227-.273a2.4 2.4 0 0 0-1.591-.045.86.86 0 0 0-.364 1 4.8 4.8 0 0 0 1.182 1.864 6 6 0 0 0 1.546 1l.955.364v2.5a.8.8 0 0 0 .273.591 1.85 1.85 0 0 0 1.819 0 .96.96 0 0 0 .227-.591v-2.5l.955-.364a5.2 5.2 0 0 0 2.137-1.682 4.8 4.8 0 0 0 .227-5.411 5.13 5.13 0 0 0-2-1.819l-3.91-1.955a2.588 2.588 0 0 1-.682-4.138c1.273-1.273 4-1.046 4.774.727a.66.66 0 0 0 .273.409 2.55 2.55 0 0 0 1.546.045.83.83 0 0 0 .409-1 4.7 4.7 0 0 0-1.182-1.864 4.8 4.8 0 0 0-1.546-1l-1-.409Z"/><path d="m46.383 10.015 2.364-6.366c.045-.182-.136-.364-.273-.227-1.819 1.591-3.638 1.955-5.547 1.046a7.136 7.136 0 0 0-10 0c-1.91.909-3.774.546-5.547-1.046-.136-.136-.318.045-.273.227.546 1.455 1.591 4.365 2.364 6.366Zm-19.69 51.7v4.82a29.3 29.3 0 0 0 11.231 2c25.781 0 33.375-25.963 10.094-50.381a4.5 4.5 0 0 1-1.728.364H29.557a4.35 4.35 0 0 1-1.728-.364 53.3 53.3 0 0 0-11.913 18.324c5.047.727 8.73 2.956 8.73 5.547v4.956c3.91.955 6.548 2.91 6.548 5.093v5.184c0 1.819-1.773 3.41-4.5 4.456Zm21.962-50.973a4.21 4.21 0 0 1 1.864 3.5 4.34 4.34 0 0 1-.682 2.319 57.2 57.2 0 0 1 11.868 17.826c2.273 5.684 3.365 12 2.137 18.052A22 22 0 0 1 55.293 65.9c-5.047 3.638-11.231 5.047-17.37 5.047a32.3 32.3 0 0 1-11.959-2.092c-1.682 2.228-6.275 3.82-11.6 3.82-6.82 0-12.368-2.592-12.368-5.775v-5.186c0-1.773 1.773-3.365 4.547-4.456V52.3c-3.91-1-6.548-2.91-6.548-5.093v-5.182c0-3.183 5.5-5.775 12.322-5.775a9 9 0 0 1 1.091.045c2.546-7.412 7.23-14.05 12.6-19.734a4 4 0 0 1-.682-2.319 4.28 4.28 0 0 1 1.819-3.5c-.182-.5-.318-.909-.409-1.182-.637-1.682-1.273-3.365-1.864-5.093a2.554 2.554 0 0 1 4.092-2.819 2.5 2.5 0 0 0 2.637.773 9.46 9.46 0 0 1 12.641 0 2.52 2.52 0 0 0 2.641-.773 2.554 2.554 0 0 1 4.092 2.819Zm-19.1 1.682H46.29a1.842 1.842 0 0 1 0 3.683H29.557a1.842 1.842 0 1 1 0-3.683ZM7.368 59.35c-1.819.591-2.956 1.455-2.956 2.364 0 1.864 4.456 3.365 9.958 3.365 4.683 0 8.594-1.091 9.64-2.592a22.8 22.8 0 0 1-5.138.546c-5.274 0-9.731-1.546-11.504-3.683m1.773-6.593c.955 1.546 4.956 2.683 9.731 2.683 5.456 0 9.912-1.5 9.912-3.365 0-1.228-1.955-2.319-4.865-2.91-1.728 2.228-6.275 3.82-11.6 3.82a24 24 0 0 1-3.183-.227Zm13.1-7.321a19.3 19.3 0 0 1-9.917 2.364 19.43 19.43 0 0 1-9.912-2.364v1.773c0 1.864 4.456 3.365 9.912 3.365 5.5 0 9.912-1.5 9.912-3.365Zm-9.913-6.775c5.5 0 9.912 1.5 9.912 3.365s-4.411 3.365-9.912 3.365c-5.456 0-9.912-1.5-9.912-3.365s4.452-3.365 9.908-3.365Zm16.455 16.824c-2.228 1.455-5.866 2.364-9.912 2.364-4.092 0-7.684-.909-9.958-2.364v1.773c0 1.864 4.456 3.365 9.958 3.365 5.456 0 9.912-1.5 9.912-3.365Zm-4.5 9.64c-2.228 1.455-5.866 2.364-9.912 2.364-4.092 0-7.684-.909-9.958-2.364V66.9c0 1.864 4.456 3.365 9.958 3.365 5.456 0 9.912-1.5 9.912-3.365Z"/></g></svg>