<svg xmlns="http://www.w3.org/2000/svg" width="48.551" height="48.002"><path d="M24.858 33.129h-1.165a2 2 0 0 1-1.966-1.922l-.187-2.735a12.1 12.1 0 0 1-3.757-1.56l-2.065 1.812a1.993 1.993 0 0 1-2.746-.022l-.824-.824a1.993 1.993 0 0 1-.022-2.746l1.8-2.065a12.1 12.1 0 0 1-1.56-3.757l-2.735-.2a1.99 1.99 0 0 1-1.92-1.963v-1.165a2 2 0 0 1 1.922-1.966l2.735-.187a12.1 12.1 0 0 1 1.56-3.757l-1.8-2.065a1.993 1.993 0 0 1 .022-2.746l.824-.824a1.993 1.993 0 0 1 2.746-.022l2.065 1.8a12 12 0 0 1 3.757-1.56l.187-2.735A1.99 1.99 0 0 1 23.693 0h1.164a2 2 0 0 1 1.966 1.922l.187 2.735a12.1 12.1 0 0 1 3.757 1.56L32.833 4.4a1.993 1.993 0 0 1 2.746.022l.824.824a1.993 1.993 0 0 1 .022 2.746l-1.814 2.092a12.1 12.1 0 0 1 1.56 3.757l2.735.187a1.99 1.99 0 0 1 1.922 1.966v1.164a2 2 0 0 1-1.922 1.966l-2.735.187a12.1 12.1 0 0 1-1.56 3.757l1.812 2.065a1.993 1.993 0 0 1-.022 2.746l-.824.824a1.993 1.993 0 0 1-2.746.022l-2.065-1.8a12 12 0 0 1-3.757 1.56l-.187 2.735a2 2 0 0 1-1.966 1.911Zm-7.118-7.458a.5.5 0 0 1 .308.1 10.9 10.9 0 0 0 4.119 1.7.54.54 0 0 1 .439.505l.205 3.154a.906.906 0 0 0 .868.9h1.164a.906.906 0 0 0 .868-.9l.209-3.153a.56.56 0 0 1 .439-.505 10.9 10.9 0 0 0 4.119-1.714.545.545 0 0 1 .67.044l2.384 2.076a.906.906 0 0 0 1.252.022l.824-.824a.906.906 0 0 0-.022-1.252l-2.075-2.383a.56.56 0 0 1-.044-.67 10.9 10.9 0 0 0 1.7-4.119.54.54 0 0 1 .505-.439l3.153-.209a.906.906 0 0 0 .9-.868v-1.165a.906.906 0 0 0-.9-.868l-3.153-.209a.56.56 0 0 1-.505-.439 10.9 10.9 0 0 0-1.714-4.119.545.545 0 0 1 .044-.67l2.076-2.384a.906.906 0 0 0 .022-1.252l-.824-.824a.906.906 0 0 0-1.252.022l-2.362 2.1a.56.56 0 0 1-.67.044 10.9 10.9 0 0 0-4.119-1.7.54.54 0 0 1-.439-.505l-.203-3.157a.906.906 0 0 0-.868-.9h-1.165a.906.906 0 0 0-.868.9l-.209 3.153a.56.56 0 0 1-.439.505 11 11 0 0 0-4.119 1.7.545.545 0 0 1-.67-.044l-2.395-2.076a.906.906 0 0 0-1.252-.022l-.824.824a.906.906 0 0 0 .022 1.252l2.072 2.386a.56.56 0 0 1 .044.67 10.9 10.9 0 0 0-1.7 4.119.54.54 0 0 1-.505.439l-3.153.209a.906.906 0 0 0-.9.868v1.164a.906.906 0 0 0 .9.868l3.153.209a.56.56 0 0 1 .505.439 10.9 10.9 0 0 0 1.714 4.119.545.545 0 0 1-.044.67l-2.074 2.384a.906.906 0 0 0-.022 1.252l.824.824a.906.906 0 0 0 1.252-.022l2.384-2.076a.44.44 0 0 1 .352-.154Z"/><path d="M24.276 26.011a9.447 9.447 0 1 1 9.447-9.447 9.46 9.46 0 0 1-9.447 9.447m0-17.795a8.348 8.348 0 1 0 8.348 8.348 8.36 8.36 0 0 0-8.348-8.346Z"/><path d="M44.586 41.411H3.954A3.96 3.96 0 0 1 0 37.457V13.016a3.96 3.96 0 0 1 3.954-3.954h10.282a.55.55 0 1 1 0 1.1H3.954A2.857 2.857 0 0 0 1.1 13.016v24.44a2.857 2.857 0 0 0 2.856 2.856h40.63a2.857 2.857 0 0 0 2.856-2.856v-24.44a2.857 2.857 0 0 0-2.856-2.854H34.3a.55.55 0 1 1 0-1.1h10.286a3.96 3.96 0 0 1 3.954 3.954v24.44a3.95 3.95 0 0 1-3.954 3.955"/><path d="M28.593 48.002h-8.634a.54.54 0 0 1-.472-.264.53.53 0 0 1-.011-.538 6.21 6.21 0 0 0 0-6.1.55.55 0 0 1 .022-.538.54.54 0 0 1 .472-.264h8.634a.57.57 0 0 1 .472.264.55.55 0 0 1 .022.538 6.21 6.21 0 0 0 0 6.1.55.55 0 0 1-.011.538.63.63 0 0 1-.494.264m-7.777-1.1h6.92a7.1 7.1 0 0 1 .011-5.492h-6.942a7.16 7.16 0 0 1 .011 5.492"/><path d="M31.207 48.004H17.333a.55.55 0 1 1 0-1.1h13.862a.55.55 0 0 1 .011 1.1ZM48 35.459H.549a.55.55 0 0 1 0-1.1H48a.544.544 0 0 1 .549.549.55.55 0 0 1-.549.551M27.768 38.436h-6.986a.55.55 0 0 1 0-1.1h6.986a.544.544 0 0 1 .549.549.55.55 0 0 1-.549.551M25.209 18.86a.56.56 0 0 1-.505-.33l-1.538-3.592a.551.551 0 0 1 1.011-.439l1.033 2.417 1.033-2.417a.551.551 0 0 1 1.011.439l-1.538 3.592a.56.56 0 0 1-.507.33M28.493 18.97a.544.544 0 0 1-.549-.549v-3.7a.55.55 0 1 1 1.1 0v3.7a.55.55 0 0 1-.551.549"/><path d="M29.559 17.29h-1.065a.544.544 0 0 1-.549-.549V14.72a.544.544 0 0 1 .549-.549h1.065a1.56 1.56 0 1 1 0 3.12Zm-.516-1.1h.516a.462.462 0 1 0 0-.923h-.515ZM21.881 18.861a.544.544 0 0 1-.549-.549v-2.263l-.912.912a.544.544 0 0 1-.78 0l-.912-.912v2.263a.55.55 0 0 1-1.1 0V14.72a.55.55 0 0 1 .341-.505.54.54 0 0 1 .593.121l1.461 1.461 1.461-1.461a.546.546 0 0 1 .934.384v3.592a.535.535 0 0 1-.537.549M10.6 32.801H3a.55.55 0 0 1 0-1.1h7.6a.55.55 0 0 1 0 1.1M10.6 30.396H3a.55.55 0 0 1 0-1.1h7.6a.55.55 0 0 1 0 1.1M8.601 27.99h-5.6a.55.55 0 1 1 0-1.1h5.6a.55.55 0 1 1 0 1.1M45.487 32.801h-7.6a.55.55 0 1 1 0-1.1h7.6a.544.544 0 0 1 .549.549.55.55 0 0 1-.549.551M45.487 30.396h-7.6a.55.55 0 1 1 0-1.1h7.6a.544.544 0 0 1 .549.549.55.55 0 0 1-.549.551M45.487 27.99h-5.6a.55.55 0 1 1 0-1.1h5.6a.544.544 0 0 1 .549.549.55.55 0 0 1-.549.551"/></svg>