<svg xmlns="http://www.w3.org/2000/svg" width="72.676" height="72.672"><path d="m28.244 49.381-9.97-7.332a4.6 4.6 0 0 0-1.863-.811 4.83 4.83 0 0 0-4.748 1.692q-.115.141-.217.292l-1.885-1.408a1.2 1.2 0 0 1-.477-.965V29.523a4.542 4.542 0 1 0-9.084 0v17.033a8.24 8.24 0 0 0 .814 3.554 8.1 8.1 0 0 0 2.269 2.863l11.72 9.38a5.9 5.9 0 0 1 2.23 4.642v4.542a1.135 1.135 0 0 0 1.136 1.135h14.762a1.135 1.135 0 0 0 1.136-1.135v-10.22a15.14 15.14 0 0 0-5.823-11.936m3.551 21.025H19.301v-3.407a8.16 8.16 0 0 0-3.083-6.417L4.501 51.198a5.8 5.8 0 0 1-1.637-2.07 5.95 5.95 0 0 1-.592-2.572V29.523a2.271 2.271 0 0 1 4.542 0v11.321a3.49 3.49 0 0 0 1.387 2.783l2.438 1.828a5 5 0 0 0-.033.476 4.78 4.78 0 0 0 1.869 3.814l7.267 5.655a1.135 1.135 0 0 0 1.394-1.792l-7.272-5.658a2.53 2.53 0 0 1-.988-2.019 3.16 3.16 0 0 1 .554-1.582 2.57 2.57 0 0 1 2.54-.889 2.4 2.4 0 0 1 .967.421l9.93 7.3a12.86 12.86 0 0 1 4.926 10.133ZM71.341 26.313a4.54 4.54 0 0 0-7.752 3.21v11.321a1.2 1.2 0 0 1-.476.964l-1.886 1.409c-.068-.1-.141-.2-.217-.292a4.81 4.81 0 0 0-4.706-1.7 4.66 4.66 0 0 0-1.917.828L44.399 49.4a15.13 15.13 0 0 0-5.791 11.917v10.22a1.135 1.135 0 0 0 1.135 1.135h14.765a1.135 1.135 0 0 0 1.135-1.135v-4.542a5.9 5.9 0 0 1 2.231-4.643l11.716-9.378a8.05 8.05 0 0 0 2.268-2.858 8.24 8.24 0 0 0 .818-3.56V29.523a4.5 4.5 0 0 0-1.332-3.21Zm-.939 20.243a6 6 0 0 1-.594 2.579 5.8 5.8 0 0 1-1.636 2.065l-11.717 9.381a8.16 8.16 0 0 0-3.085 6.417v3.407H40.879v-9.084a12.86 12.86 0 0 1 4.9-10.111l9.948-7.316a2.45 2.45 0 0 1 1.02-.437 2.54 2.54 0 0 1 2.062 4.5l-7.267 5.655a1.135 1.135 0 0 0 1.394 1.792l7.263-5.651a4.78 4.78 0 0 0 1.872-3.818 5 5 0 0 0-.024-.484l2.431-1.821a3.49 3.49 0 0 0 1.386-2.783V29.523a2.271 2.271 0 1 1 4.542 0ZM49.964 17.033h-7.949V9.085a1.135 1.135 0 0 0-1.139-1.136h-9.08a1.135 1.135 0 0 0-1.136 1.136v7.949h-7.949a1.135 1.135 0 0 0-1.135 1.135v9.08a1.135 1.135 0 0 0 1.136 1.136h7.949v7.949a1.135 1.135 0 0 0 1.136 1.136h9.079a1.135 1.135 0 0 0 1.136-1.136v-7.946h7.949a1.135 1.135 0 0 0 1.135-1.139v-9.08a1.135 1.135 0 0 0-1.132-1.136m-1.135 9.084h-7.953a1.135 1.135 0 0 0-1.136 1.136v7.949h-6.813v-7.953a1.135 1.135 0 0 0-1.135-1.136h-7.949v-6.809h7.949a1.135 1.135 0 0 0 1.135-1.136V10.22h6.813v7.949a1.135 1.135 0 0 0 1.136 1.136h7.949Z"/><path d="M59.047 22.71a22.71 22.71 0 1 0-22.71 22.71 22.71 22.71 0 0 0 22.71-22.71m-22.71 20.439A20.439 20.439 0 1 1 56.776 22.71a20.44 20.44 0 0 1-20.439 20.439"/></svg>