<svg xmlns="http://www.w3.org/2000/svg" width="72.668" height="72.671"><path d="M33.915 67.827h4.845a1.211 1.211 0 1 0 0-2.422h-4.845a1.211 1.211 0 0 0 0 2.422M15.746 18.168a1.21 1.21 0 0 0 1.211-1.211V9.69h38.759v9.69a1.211 1.211 0 1 0 2.422 0V4.845c0-2.18-2.8-4.845-6.056-4.845H20.591a6.063 6.063 0 0 0-6.058 6.056v10.9a1.21 1.21 0 0 0 1.213 1.212m1.211-12.112a3.634 3.634 0 0 1 3.634-3.634h31.491c2.1 0 3.634 1.7 3.634 2.422v2.423H16.957Z"/><path d="M56.927 53.293a1.21 1.21 0 0 0-1.211 1.211v6.056H16.957v-4.845a1.211 1.211 0 1 0-2.422 0v10.9a6.063 6.063 0 0 0 6.056 6.056h31.491a6.063 6.063 0 0 0 6.056-6.056V54.504a1.21 1.21 0 0 0-1.211-1.211m-1.211 13.323a3.634 3.634 0 0 1-3.634 3.634H20.591a3.634 3.634 0 0 1-3.634-3.634v-3.633h38.759ZM33.915 3.634h-2.422a1.211 1.211 0 0 0 0 2.422h2.422a1.211 1.211 0 0 0 0-2.422M41.182 3.634H38.76a1.211 1.211 0 0 0 0 2.422h2.422a1.211 1.211 0 0 0 0-2.422"/><path d="M72.395 23.446a1.21 1.21 0 0 0-.933-.437H39.67l-.618-4.165a3.66 3.66 0 0 0-3.6-3.1h-5.173v2.422h5.177a1.21 1.21 0 0 1 1.2 1.034l4.232 28.566a3.66 3.66 0 0 0 3.595 3.1h2.977a3.612 3.612 0 0 0 6.822 0h5.291a3.634 3.634 0 1 0 0-2.422h-5.294a3.612 3.612 0 0 0-6.822 0h-2.978a1.22 1.22 0 0 1-1.2-1.034l-.385-2.6h24.929a1.21 1.21 0 0 0 1.189-.987l3.634-19.379a1.21 1.21 0 0 0-.251-.998m-9.411 25a1.211 1.211 0 1 1-1.211 1.211 1.21 1.21 0 0 1 1.211-1.211m-12.112 0a1.211 1.211 0 1 1-1.211 1.211 1.21 1.21 0 0 1 1.211-1.211m15.952-6.056H42.541L40.03 25.433h29.979ZM31.492 36.337a15.746 15.746 0 1 0-15.746 15.746 15.746 15.746 0 0 0 15.746-15.746m-29.069 0A13.323 13.323 0 1 1 15.746 49.66 13.323 13.323 0 0 1 2.423 36.337"/><path d="M16.958 46.026v-1.383a4.835 4.835 0 0 0-1.211-9.518 2.422 2.422 0 1 1 2.422-2.422 1.211 1.211 0 1 0 2.422 0 4.845 4.845 0 0 0-3.634-4.673v-1.383a1.211 1.211 0 0 0-2.422 0v1.388a4.835 4.835 0 0 0 1.211 9.518 2.422 2.422 0 1 1-2.422 2.422 1.211 1.211 0 0 0-2.422 0 4.845 4.845 0 0 0 3.634 4.673v1.383a1.211 1.211 0 1 0 2.422 0ZM43.604 29.069h16.957a1.211 1.211 0 1 0 0-2.422H43.604a1.211 1.211 0 1 0 0 2.422M64.195 29.069h2.422a1.211 1.211 0 1 0 0-2.422h-2.422a1.211 1.211 0 0 0 0 2.422"/></svg>