<svg xmlns="http://www.w3.org/2000/svg" width="30.06" height="29.86"><path d="M16.743 20.298h-3.427a.635.635 0 1 0 0 1.27h3.427a.635.635 0 0 0 0-1.27"/><path d="M27.729.003h-25.4A2.2 2.2 0 0 0 0 2.089v19.286a2.223 2.223 0 0 0 2.331 2.09h8.455v.762a8 8 0 0 1-.3 2.169H7.511a1.37 1.37 0 0 0-1.084.57 1.9 1.9 0 0 0-.376 1.162 1.615 1.615 0 0 0 1.46 1.732h15.04a1.37 1.37 0 0 0 1.084-.569 1.9 1.9 0 0 0 .376-1.163 1.615 1.615 0 0 0-1.46-1.732h-2.9a8 8 0 0 1-.3-2.169v-.762h8.386a2.223 2.223 0 0 0 2.331-2.09V2.089A2.2 2.2 0 0 0 27.729.003m-4.99 28.125a.65.65 0 0 1-.116.392.24.24 0 0 1-.073.069H7.512a.52.52 0 0 1-.192-.462.65.65 0 0 1 .117-.392.24.24 0 0 1 .072-.069h15.038a.52.52 0 0 1 .192.462m-10.943-1.732a9.3 9.3 0 0 0 .26-2.169v-.754h6.016v.755a9.3 9.3 0 0 0 .259 2.169ZM2.331 1.27h25.4a.965.965 0 0 1 1.061.819v16.306H1.27V2.089a.965.965 0 0 1 1.061-.819m25.4 20.925h-25.4a.977.977 0 0 1-1.061-.819v-1.71h27.519v1.71a.977.977 0 0 1-1.06.82Z"/><path d="M4.932 14.409q.388.129.816.238v.794a.635.635 0 0 0 .945.555l1.781-.992h.044a11.7 11.7 0 0 0 3.574-.586 1.64 1.64 0 0 0 1-.889.6.6 0 0 0 .044-.158l.017-.05 1.34 2.133a.636.636 0 0 0 1.076 0l1.34-2.133q.008.022.015.043a.7.7 0 0 0 .046.165 1.65 1.65 0 0 0 1 .892 11.7 11.7 0 0 0 3.568.583l1.825.992a.635.635 0 0 0 .945-.555v-.792q.428-.108.809-.236a1.61 1.61 0 0 0 1-.9 8.1 8.1 0 0 0-.013-6.492 1.61 1.61 0 0 0-.976-.9 10.9 10.9 0 0 0-3.427-.566l-.332.006a10 10 0 0 0-1.113.067 5.712 5.712 0 0 0-10.466 0 10 10 0 0 0-1.113-.067l-.359-.006a10.9 10.9 0 0 0-3.406.569 1.6 1.6 0 0 0-.968.9 8.1 8.1 0 0 0-.012 6.5 1.6 1.6 0 0 0 .994.9Zm16.444-7.584h.21l.145-.006a9.6 9.6 0 0 1 3 .5.35.35 0 0 1 .213.184 6.88 6.88 0 0 1 .014 5.517.35.35 0 0 1-.225.185 11 11 0 0 1-1.184.318.635.635 0 0 0-.5.621v.215l-.98-.546a.64.64 0 0 0-.309-.081h-.21a10.4 10.4 0 0 1-3.172-.52.43.43 0 0 1-.19-.121l-.02-.055c-.037-.092-.065-.184-.1-.276a5.76 5.76 0 0 0 2.686-4.843 5.7 5.7 0 0 0-.1-1.061q.36-.029.732-.029ZM15.03 3.469a4.447 4.447 0 0 1 1.293 8.7.63.63 0 0 0-.367.274l-.927 1.475-.925-1.477a.65.65 0 0 0-.357-.271 4.446 4.446 0 0 1 1.284-8.7ZM5.124 7.497a.34.34 0 0 1 .2-.177 9.6 9.6 0 0 1 2.977-.5l.178.006h.2q.372 0 .732.029a5.68 5.68 0 0 0 2.585 5.9c-.035.094-.063.187-.1.281l-.019.055a.4.4 0 0 1-.184.119 10.4 10.4 0 0 1-3.178.522h-.21a.64.64 0 0 0-.309.081l-.98.546v-.218a.635.635 0 0 0-.5-.621 11 11 0 0 1-1.191-.32.34.34 0 0 1-.216-.177 6.9 6.9 0 0 1 .013-5.527Z"/><path d="M13.863 6.275h2.326a.635.635 0 0 0 0-1.27h-2.326a.635.635 0 1 0 0 1.27M16.194 10.087h-2.331a.635.635 0 1 0 0 1.27h2.326a.635.635 0 0 0 0-1.27ZM12.632 8.816h4.8a.635.635 0 0 0 0-1.27h-4.8a.635.635 0 1 0 0 1.27"/></svg>