<svg xmlns="http://www.w3.org/2000/svg" width="41.833" height="48.002"><path d="M37.633 48.003H4.2a.824.824 0 0 1-.824-.824v-4.984a.824.824 0 0 1 1.648 0v4.16H36.81v-4.16a.824.824 0 0 1 1.648 0v4.984a.824.824 0 0 1-.825.824M37.633 30.301a.824.824 0 0 1-.824-.824V10.724H28.4a.824.824 0 0 1-.824-.824V1.648H5.024v27.831a.824.824 0 0 1-1.648 0V.825A.824.824 0 0 1 4.2.001h24.2a.824.824 0 0 1 .824.824v8.251h8.409a.824.824 0 0 1 .824.824v19.58a.824.824 0 0 1-.824.821"/><path d="M37.634 10.725a.82.82 0 0 1-.577-.237l-9.233-9.076A.824.824 0 0 1 28.98.237l9.232 9.076a.825.825 0 0 1-.579 1.412ZM40.114 43.017h-38.4a1.72 1.72 0 0 1-1.719-1.719V30.373a1.72 1.72 0 0 1 1.719-1.719h38.4a1.72 1.72 0 0 1 1.719 1.719v10.925a1.72 1.72 0 0 1-1.719 1.719m-38.4-12.712a.07.07 0 0 0-.069.07V41.3a.07.07 0 0 0 .069.07h38.4a.07.07 0 0 0 .069-.07V30.375a.07.07 0 0 0-.069-.07ZM27.461 23.908a.824.824 0 0 1-.6-1.393l2.693-2.824-2.693-2.824a.824.824 0 1 1 1.193-1.138l3.237 3.393a.823.823 0 0 1 0 1.137l-3.237 3.393a.82.82 0 0 1-.593.256M14.37 23.908a.82.82 0 0 1-.6-.255l-3.237-3.393a.823.823 0 0 1 0-1.137l3.237-3.393a.824.824 0 1 1 1.193 1.138l-2.693 2.824 2.693 2.824a.824.824 0 0 1-.027 1.166.83.83 0 0 1-.566.226M19.488 24.645a.9.9 0 0 1-.27-.045.824.824 0 0 1-.509-1.049l2.857-8.259a.824.824 0 0 1 1.558.539l-2.857 8.259a.825.825 0 0 1-.779.555"/><path d="M21.527 39.808a.83.83 0 0 1-.752-.486l-2.734-6.084a.824.824 0 1 1 1.5-.676l1.983 4.412 1.983-4.412a.824.824 0 1 1 1.5.676l-2.734 6.084a.82.82 0 0 1-.746.486M16.215 39.806a.824.824 0 0 1-.824-.824v-3.109l-1.051 1.751a.824.824 0 0 1-1.413 0l-1.051-1.751v3.109a.824.824 0 0 1-1.648 0v-6.084a.824.824 0 0 1 1.531-.424l1.875 3.125 1.875-3.125a.824.824 0 0 1 1.531.424v6.084a.82.82 0 0 1-.825.824M26.967 39.601a.824.824 0 0 1-.824-.824v-6.084a.824.824 0 1 1 1.648 0v6.084a.824.824 0 0 1-.824.824"/><path d="M29.211 36.658h-2.244a.824.824 0 1 1 0-1.648h2.244a.746.746 0 0 0 0-1.492h-2.244a.824.824 0 1 1 0-1.648h2.244a2.394 2.394 0 1 1 0 4.788"/></svg>