<svg xmlns="http://www.w3.org/2000/svg" width="40.423" height="48.002"><path d="M36.279 28.457a13 13 0 0 0 0-2.049l3.867-3.526a.86.86 0 0 0 .169-1.056l-5.281-9.349a.856.856 0 0 0-1.021-.39L30.132 13.4l-1.89-1.236A23.36 23.36 0 0 0 22.093.931a3 3 0 0 0-4.452.122 24.7 24.7 0 0 0-5.492 11l-1.975 1.292-3.755-1.258a.86.86 0 0 0-1.02.391L.111 21.826a.86.86 0 0 0 .168 1.056l3.87 3.523a14 14 0 0 0 0 2.054l-3.87 3.523a.86.86 0 0 0-.169 1.056l5.288 9.349a.854.854 0 0 0 1.02.39l4.909-1.655a17 17 0 0 0 1.7 1l1.057 5.2a.86.86 0 0 0 .84.686h10.572a.86.86 0 0 0 .84-.686l1.056-5.194a17 17 0 0 0 1.709-1l4.91 1.655a.855.855 0 0 0 1.02-.39l5.281-9.349a.86.86 0 0 0-.169-1.056zm-5.541-12.614a.75.75 0 0 1 .337.627v5.66l-2.489-1.678a24.5 24.5 0 0 0 .048-5.985Zm-18.63 6.836c.315 1.831.767 3.852 2.913 3.871h10.19a2.52 2.52 0 0 0 2.4-1.728c.231-.531.362-1.536.707-2.42a9.513 9.513 0 0 1-8.021 14.544c-7.152.132-11.878-8.149-8.186-14.267Zm1.788.184h12.5c-.3.789-.215 1.9-1.186 1.973H15.021c-.984-.069-.865-1.18-1.125-1.973m5.05-20.7a1.284 1.284 0 0 1 1.911-.049 21.27 21.27 0 0 1 5.912 19.034h-13.19a23.37 23.37 0 0 1 5.367-18.982Zm-7.188 18.21-2.6 1.754V16.47a.75.75 0 0 1 .337-.627l2.277-1.489a26.8 26.8 0 0 0-.013 6.023Zm22.13 20.55-4.645-1.565a.86.86 0 0 0-.771.114 15 15 0 0 1-2.2 1.29.86.86 0 0 0-.471.6l-1 4.92h-9.173l-1-4.92a.86.86 0 0 0-.471-.6 15 15 0 0 1-2.2-1.29.86.86 0 0 0-.771-.114l-4.645 1.565-4.6-8.137 3.677-3.347c.533-.5.125-1.436.208-2.007-.089-.579.33-1.509-.208-2.013l-3.677-3.348 4.6-8.137 1.837.618a2.44 2.44 0 0 0-.938 1.914v7.273a.863.863 0 0 0 1.336.711l.932-.629a11.192 11.192 0 1 0 21.264.307l.477.322a.863.863 0 0 0 1.337-.711s0-7.273 0-7.273a2.44 2.44 0 0 0-.879-1.863l1.977-.668 4.6 8.137-3.671 3.348c-.536.53-.13 1.341-.208 2.013.08.661-.33 1.482.208 2.007l3.666 3.349-4.6 8.137Z"/><path d="M20.213 12.329a3.571 3.571 0 0 0 0-7.14 3.571 3.571 0 0 0 0 7.14m0-5.426a1.856 1.856 0 0 1 0 3.712 1.856 1.856 0 0 1 0-3.712M20.214 35.106a.857.857 0 0 0 .857-.857v-5.565a.857.857 0 1 0-1.714 0v5.565a.857.857 0 0 0 .857.857M15.93 33.402a.857.857 0 0 0 .857-.857v-3.827a.857.857 0 1 0-1.714 0v3.826a.857.857 0 0 0 .857.858M24.496 33.333a.857.857 0 0 0 .857-.857v-3.827a.857.857 0 0 0-1.714 0v3.826a.857.857 0 0 0 .857.858"/></svg>