<svg xmlns="http://www.w3.org/2000/svg" width="48.003" height="48.002"><g fill="#333"><path d="M23.999 48.002a23.82 23.82 0 0 1-13.567-4.207 21 21 0 0 1-.336-.234l-.116-.083a24 24 0 1 1 28.043 0l-.121.087c-.114.081-.232.166-.351.244a23.8 23.8 0 0 1-13.552 4.193m0-46a22 22 0 0 0-12.856 39.849l.118.084c.094.068.192.138.29.2a21.98 21.98 0 0 0 24.881.01 6 6 0 0 0 .3-.213l.124-.089A22 22 0 0 0 23.999 2.002"/><path d="M36.999 43.972a1 1 0 0 1-1-1V32.045a1 1 0 0 1 2 0v10.927a1 1 0 0 1-1 1M10.999 43.972a1 1 0 0 1-1-1v-17.97h28v3.913a1 1 0 0 1-2 0v-1.913h-24v15.97a1 1 0 0 1-1 1"/><path d="M37.999 27.002h-28v-7a3 3 0 0 1 3-3h11.172a2.98 2.98 0 0 1 2.121.879l3.121 3.121h5.586a3 3 0 0 1 3 3Zm-26-2h24v-1a1 1 0 0 0-1-1h-6.414l-3.707-3.707a1 1 0 0 0-.707-.293H12.999a1 1 0 0 0-1 1ZM27.444 43.258a2 2 0 0 1-.941-.236l-2.232-1.188-2.245 1.168a2 2 0 0 1-2.89-2.124l.44-2.49-1.8-1.774a2 2 0 0 1 1.123-3.412l2.505-.351 1.131-2.263a1.99 1.99 0 0 1 1.788-1.1h.01a1.99 1.99 0 0 1 1.788 1.114l1.108 2.274 2.5.377a2 2 0 0 1 1.091 3.417l-1.821 1.764.415 2.494a2 2 0 0 1-1.972 2.33Zm-3.174-3.425a2 2 0 0 1 .941.235l2.231 1.188-.414-2.495a2 2 0 0 1 .585-1.767l1.819-1.756-2.5-.376a2 2 0 0 1-1.5-1.1l-1.109-2.274-1.13 2.263a2 2 0 0 1-1.512 1.085l-2.5.351 1.8 1.774a2 2 0 0 1 .566 1.774l-.441 2.49 2.246-1.166a2 2 0 0 1 .918-.226"/></g></svg>