<svg xmlns="http://www.w3.org/2000/svg" width="72.653" height="72.676"><path d="M63.422 45.103a28.6 28.6 0 0 0 .009-17.53 14.243 14.243 0 1 0-18.354-18.35 28.6 28.6 0 0 0-17.508 0A14.241 14.241 0 1 0 9.223 27.569a28.6 28.6 0 0 0 .007 17.534A14.26 14.26 0 0 0 .001 58.435a14.1 14.1 0 0 0 1.381 6.125 1.065 1.065 0 1 0 1.919-.917 12.119 12.119 0 1 1 2.74 3.708 1.065 1.065 0 0 0-1.44 1.567 14.24 14.24 0 0 0 22.975-5.487 28.6 28.6 0 0 0 17.5 0 14.241 14.241 0 1 0 18.346-18.328M49.601 5.928a12.03 12.03 0 0 1 8.46-3.791h.352a12.11 12.11 0 1 1 .342 24.218h-.354a12.111 12.111 0 0 1-8.8-20.427m-5.123 55.458a26.47 26.47 0 0 1-16.3 0 14.245 14.245 0 0 0-16.904-16.883 26.46 26.46 0 0 1-.008-16.337 14.26 14.26 0 0 0 9.937-1.5 1.064 1.064 0 1 0-1.042-1.853 12.119 12.119 0 1 1 3.45-2.893 1.064 1.064 0 1 0 1.646 1.35 14.25 14.25 0 0 0 2.912-12 26.47 26.47 0 0 1 16.31 0 14.26 14.26 0 0 0 13.922 17.214q.206.001.413-.006a14.4 14.4 0 0 0 2.568-.306 26.46 26.46 0 0 1 0 16.331 14.246 14.246 0 0 0-16.9 16.879Zm13.933 9.161a12.111 12.111 0 1 1 12.112-12.111 12.11 12.11 0 0 1-12.112 12.111m0 0"/><path d="M21.491 7.959a1.06 1.06 0 0 0-1.213.011 6 6 0 0 1-1.159.638 3.958 3.958 0 0 0-6.371 2.676 5.8 5.8 0 0 1-3.9-2.411 1.065 1.065 0 0 0-1.844.18 9 9 0 0 0-.655 3.709 6.5 6.5 0 0 0 2.618 5.035 6.5 6.5 0 0 1-2.239.309 1.065 1.065 0 0 0-.559 1.994 10.74 10.74 0 0 0 5.207 1.392 9.4 9.4 0 0 0 4.781-1.288 8.9 8.9 0 0 0 3.884-4.741 1 1 0 0 0 .057-.159 11 11 0 0 0 .566-3.563v-.167a6.06 6.06 0 0 0 1.265-2.483 1.07 1.07 0 0 0-.436-1.132Zm-2.987 3.45a2 2 0 0 1 .032.335 9 9 0 0 1-.451 2.883 1 1 0 0 0-.04.124 6.74 6.74 0 0 1-2.966 3.617 7.3 7.3 0 0 1-4.271.971 8.5 8.5 0 0 0 1-.581 1.065 1.065 0 0 0-.166-1.854 4.73 4.73 0 0 1-3.159-4.175 6 6 0 0 1 .039-1.1 7.93 7.93 0 0 0 5.3 1.841 1.065 1.065 0 0 0 1.037-1.064v-.659a1.828 1.828 0 0 1 3.207-1.224 1.06 1.06 0 0 0 .488.318 1.07 1.07 0 0 0-.045.566ZM54.904 15.082h1.509v6.348a1.065 1.065 0 1 0 2.129 0v-6.348h1.644a1.065 1.065 0 1 0 0-2.129h-1.644V9.975a1.857 1.857 0 0 1 1.862-1.855h1.378a1.065 1.065 0 1 0 0-2.129h-1.378a3.99 3.99 0 0 0-3.984 3.984v2.978h-1.516a1.065 1.065 0 1 0 0 2.129M11.827 63.941a1.47 1.47 0 0 0 .732-.2l7.246-4.186a1.464 1.464 0 0 0 0-2.537l-7.246-4.186a1.465 1.465 0 0 0-2.2 1.269v8.371a1.464 1.464 0 0 0 1.465 1.464Zm.664-8.684 5.254 3.034-5.254 3.034ZM63.037 50.896h-9.252a2.92 2.92 0 0 0-2.914 2.915v9.25a2.92 2.92 0 0 0 2.914 2.915h9.252a2.92 2.92 0 0 0 2.914-2.915v-9.25a2.92 2.92 0 0 0-2.914-2.915m.785 12.165a.786.786 0 0 1-.785.786h-9.252a.786.786 0 0 1-.785-.786v-9.25a.786.786 0 0 1 .785-.786h9.252a.786.786 0 0 1 .785.786Zm0 0"/><path d="M58.411 55.214a3.218 3.218 0 1 0 3.218 3.218 3.22 3.22 0 0 0-3.218-3.218m0 4.306a1.089 1.089 0 1 1 1.089-1.088 1.09 1.09 0 0 1-1.089 1.088M44.031 25.281a1.064 1.064 0 0 0-1.065 1.065v.477a31.5 31.5 0 0 1-8.7 3.514 1.23 1.23 0 0 0-.751-.257h-4.87a2.14 2.14 0 0 0-2.135 2.135v5.59a2.137 2.137 0 0 0 2.135 2.135h.974l.369 7.1a1.064 1.064 0 0 0 1.062 1.009h.056a1.065 1.065 0 0 0 1.008-1.118l-.364-6.987h1.768a1.23 1.23 0 0 0 .75-.257 32 32 0 0 1 2.563.732 1.065 1.065 0 1 0 .67-2.021c-.9-.3-1.825-.563-2.753-.786v-5.2a33.8 33.8 0 0 0 8.215-3.143v11.485q-.7-.379-1.417-.723a1.065 1.065 0 0 0-.923 1.919c.793.381 1.577.8 2.34 1.25v.475a1.065 1.065 0 1 0 2.129 0v-17.33a1.064 1.064 0 0 0-1.064-1.065Zm-11.409 12.53-3.983-.006.006-5.6h3.976Zm0 0"/></svg>