<svg xmlns="http://www.w3.org/2000/svg" width="51.656" height="51.656"><path d="M33.361 12.914a5.381 5.381 0 1 0 5.381 5.381 5.38 5.38 0 0 0-5.381-5.381m0 8.609a3.228 3.228 0 1 1 3.228-3.228 3.23 3.23 0 0 1-3.228 3.228M51.656 5.381A5.4 5.4 0 0 0 46.245 0C35.608.3 25.919 5.493 18.026 15.068a22.7 22.7 0 0 0-9.868 2.4 15.34 15.34 0 0 0-8.157 13.74v1.076h10.761a8.6 8.6 0 0 1 8.609 8.609v10.762h1.076A15.34 15.34 0 0 0 34.188 43.5a22.7 22.7 0 0 0 2.4-9.87c9.573-7.893 14.764-17.585 15.068-28.249M9.122 19.392a20.6 20.6 0 0 1 7.139-2.068q-.316.426-.631.861a71 71 0 0 0-6.654 11.947H2.194a13.09 13.09 0 0 1 6.928-10.74m23.142 23.141a13.09 13.09 0 0 1-10.74 6.928V42.68a71 71 0 0 0 11.949-6.655q.436-.313.861-.628a20.6 20.6 0 0 1-2.068 7.139Zm-.045-8.258a68.3 68.3 0 0 1-10.71 6.05 10.757 10.757 0 0 0-10.176-10.176 68.3 68.3 0 0 1 6.05-10.71c5.5-7.668 14.973-16.891 28.892-17.287a3.226 3.226 0 0 1 3.228 3.2c-.4 13.948-9.618 23.426-17.285 28.923Zm-28.49 6.041C1.901 42.144.675 48.669.449 49.959l-.267 1.513 1.513-.272c1.289-.226 7.815-1.451 9.642-3.28a5.383 5.383 0 0 0 0-7.61 5.51 5.51 0 0 0-7.608 0ZM9.815 46.4c-.831.831-4.162 1.789-6.945 2.38.592-2.783 1.55-6.115 2.38-6.945A3.229 3.229 0 1 1 9.817 46.4Z"/></svg>