<svg xmlns="http://www.w3.org/2000/svg" width="72.784" height="72.674"><path d="M37.058 31.186c-.114.341.114.682.341 1.023l4.206 4.206a1.177 1.177 0 0 0 1.932-.568l3.751-14.777c3.978 3.637 10.116 8.752 14.663 11.367v5a1.137 1.137 0 0 0 2.273 0v-3.864c1.137.455 2.5.8 3.41-.114.568-.568.909-1.478.114-3.41h3.865a1.137 1.137 0 1 0 0-2.273h-5c-2.615-4.546-7.731-10.684-11.368-14.663l14.777-3.751a1.21 1.21 0 0 0 .568-1.932l-4.206-4.206a1.6 1.6 0 0 0-1.023-.341L47.97 5.837C44.67 2.995 38.081-2.12 35.012.949s2.046 9.664 4.886 12.96Zm4.66 2.16-2.387-2.387 2.5-15.118c1.137 1.137 2.046 2.16 3.41 3.41ZM65.134 5.157l2.387 2.387-13.981 3.637a48 48 0 0 0-3.41-3.41ZM36.603 2.429c3.751-3.751 28.644 23.529 29.326 29.326-5.342-.568-33.3-25.234-29.326-29.326"/><path d="M1.139 31.3h5.228v14.431H2.275a1.074 1.074 0 0 0-1.137 1.137v16.6a1.074 1.074 0 0 0 1.137 1.137h17.619v2.386a2.28 2.28 0 0 0 2.273 2.273h3.978a4.636 4.636 0 0 0 4.433 3.41 4.74 4.74 0 0 0 4.433-3.41h23.87a4.536 4.536 0 0 0 4.433 3.41 4.636 4.636 0 0 0 4.433-3.41h2.728a2.28 2.28 0 0 0 2.273-2.273v-7.843a2.1 2.1 0 0 0-.227-.8l-6.479-7.5a2.42 2.42 0 0 0-1.705-.8h-8.3v-6.927a2.28 2.28 0 0 0-2.273-2.273H28.191V30.163a1.074 1.074 0 0 0-1.136-1.132h-4.888V13.568a1.074 1.074 0 0 0-1.137-1.137H1.139a1.074 1.074 0 0 0-1.137 1.137v16.6a1.074 1.074 0 0 0 1.137 1.137Zm62.063 39.101a2.273 2.273 0 1 1 2.272-2.27 2.273 2.273 0 0 1-2.272 2.27m-1.25-17.959h2.387l4.888 5.57h-7.163v-5.57Zm-6.024 0h3.637v6.706a1.074 1.074 0 0 0 1.137 1.137h9.775v6.706h-2.843a4.536 4.536 0 0 0-4.432-3.41 4.636 4.636 0 0 0-4.433 3.41h-2.843Zm-36.034 9.889H3.412V48.009h7.047v3.182a1.074 1.074 0 0 0 1.137 1.14 1.074 1.074 0 0 0 1.137-1.137v-3.185h7.047v14.322Zm12.958 5.8a2.273 2.273 0 1 1-2.273-2.273 2.273 2.273 0 0 1 2.273 2.273m20.8-24.9v23.76h-18.75a4.536 4.536 0 0 0-4.433-3.41 4.636 4.636 0 0 0-4.433 3.41h-3.983v-23.76ZM25.918 31.413v9.548h-3.751a2.28 2.28 0 0 0-2.273 2.27v2.5H8.641V31.413h7.5v3.069a1.137 1.137 0 1 0 2.273 0v-3.069ZM2.275 14.704h7.616v3.183a1.074 1.074 0 0 0 1.137 1.137 1.074 1.074 0 0 0 1.137-1.137v-3.183h7.616v14.327H2.275Z"/><path d="M30.01 59.262a1.074 1.074 0 0 0 1.137-1.137v-9.434a1.137 1.137 0 1 0-2.273 0v9.434a1.074 1.074 0 0 0 1.136 1.137M37.967 61.535a1.074 1.074 0 0 0 1.137-1.137V48.691a1.137 1.137 0 1 0-2.273 0v11.707a1.074 1.074 0 0 0 1.136 1.137M45.924 63.808a1.074 1.074 0 0 0 1.137-1.137v-13.98a1.137 1.137 0 1 0-2.273 0v13.981a1.074 1.074 0 0 0 1.136 1.136"/></svg>