<svg xmlns="http://www.w3.org/2000/svg" width="60" height="60" fill="none"><path fill="#282928" d="M11.25 24.063A3.44 3.44 0 0 0 7.813 27.5v6.25c0 1.203 1.874 1.22 1.875 0v-1.562h3.124v1.562c0 1.217 1.876 1.213 1.876 0V27.5a3.44 3.44 0 0 0-3.438-3.437m-1.562 6.25V27.5c0-.862.7-1.562 1.562-1.562s1.563.7 1.563 1.562v2.813zM23.438 27.5A3.44 3.44 0 0 0 20 24.063h-2.5a.94.94 0 0 0-.937.937v8.75c0 1.216 1.875 1.214 1.875 0v-2.812H20a3.44 3.44 0 0 0 3.438-3.438M20 29.063h-1.562v-3.125H20c.862 0 1.563.7 1.563 1.562s-.701 1.563-1.563 1.563M26.25 24.094c-.469-.004-.937.295-.937.907v8.75c0 1.204 1.875 1.215 1.875 0V25c0-.597-.47-.904-.938-.907"/><path fill="#282928" d="M55 6.563H5A3.44 3.44 0 0 0 1.563 10v40A3.44 3.44 0 0 0 5 53.438h50A3.44 3.44 0 0 0 58.438 50V10A3.44 3.44 0 0 0 55 6.563M5 8.438h50c.862 0 1.563.7 1.563 1.562v6.563H3.438V10c0-.862.7-1.562 1.562-1.562m50 43.125H5c-.862 0-1.562-.701-1.562-1.563V18.438h53.125V50c0 .862-.701 1.563-1.563 1.563"/><path fill="#282928" d="M50.723 33.911a2.19 2.19 0 0 0 .801-2.988l-1.608-2.783c-.589-1.013-1.974-1.387-2.988-.801-.821.474-1.885-.145-1.885-1.089a2.19 2.19 0 0 0-2.187-2.187H39.64a2.19 2.19 0 0 0-2.188 2.187c0 .95-1.063 1.563-1.885 1.089-1.031-.595-2.395-.228-2.988.8l-1.608 2.784a2.19 2.19 0 0 0 .801 2.988c.827.478.822 1.703 0 2.178a2.19 2.19 0 0 0-.8 2.988l1.607 2.783c.594 1.028 1.961 1.396 2.988.801.825-.478 1.885.144 1.885 1.089a2.19 2.19 0 0 0 2.188 2.188h3.215a2.19 2.19 0 0 0 2.187-2.188c0-.953 1.06-1.565 1.885-1.089 1.031.594 2.398.233 2.988-.8l1.608-2.784a2.19 2.19 0 0 0-.8-2.988c-.828-.478-.825-1.701 0-2.178m-.937 3.801a.313.313 0 0 1 .115.428l-1.608 2.783a.315.315 0 0 1-.427.115c-2.054-1.187-4.698.356-4.698 2.712 0 .172-.14.313-.312.313H39.64a.313.313 0 0 1-.313-.313c0-2.362-2.645-3.9-4.697-2.712a.314.314 0 0 1-.427-.115l-1.608-2.783a.313.313 0 0 1 .115-.428c2.044-1.19 2.051-4.24 0-5.424a.313.313 0 0 1-.115-.428l1.608-2.783a.313.313 0 0 1 .427-.115c2.055 1.19 4.697-.35 4.697-2.712 0-.172.14-.312.313-.312h3.215c.172 0 .312.14.312.312 0 2.366 2.645 3.9 4.698 2.712a.314.314 0 0 1 .427.115L49.9 31.86c.086.15.034.34-.115.428-2.036 1.185-2.035 4.25 0 5.424"/><path fill="#282928" d="M41.25 30.313A4.693 4.693 0 0 0 36.563 35a4.693 4.693 0 0 0 4.687 4.688A4.693 4.693 0 0 0 45.938 35a4.693 4.693 0 0 0-4.688-4.687m0 7.5A2.816 2.816 0 0 1 38.438 35a2.816 2.816 0 0 1 2.812-2.812A2.816 2.816 0 0 1 44.063 35a2.816 2.816 0 0 1-2.813 2.813M39.999 13.438h12.5c1.199 0 1.223-1.876 0-1.876h-12.5c-1.196 0-1.218 1.876 0 1.876M7.5 13.438a.937.937 0 1 0 0-1.875.937.937 0 0 0 0 1.874M11.25 13.438a.937.937 0 1 0 0-1.875.937.937 0 0 0 0 1.874M15 13.438a.937.937 0 1 0 0-1.875.937.937 0 0 0 0 1.874M13.163 44.338l-3.087-3.087 3.087-3.088c.825-.825-.479-2.172-1.326-1.325l-3.75 3.75a.937.937 0 0 0 0 1.325l3.75 3.75c.83.83 2.21-.44 1.326-1.325M23.162 36.837c-.83-.83-2.182.469-1.325 1.325l3.087 3.088-3.088 3.087c-.834.835.48 2.171 1.326 1.325l3.75-3.75a.937.937 0 0 0 0-1.325zM19.027 36.67c-.442-.159-.976-.039-1.165.534l-2.5 7.5c-.38 1.14 1.394 1.75 1.778.593l2.5-7.5c.178-.536-.171-.97-.613-1.128"/></svg>