<svg xmlns="http://www.w3.org/2000/svg" width="60" height="60" fill="none"><path fill="#282928" d="M52.85.908H21.676c-4.426 0-8.035 3.604-8.035 8.035v2.923l-8.468-.774a2.42 2.42 0 0 0-1.925.686 2.43 2.43 0 0 0-.72 1.915q.176 2.398.345 4.803c.134 1.895.268 3.789.412 5.675a1.903 1.903 0 0 0 2.014 1.773c2.766-.136 5.59-.225 8.342-.308v21.478q-.001.008-.003.016.001.008.003.017v.723c0 .172.077.338.201.45l12.16 10.627a.62.62 0 0 0 .39.142h.012l.117-.003q.009.002.018.004h.002q.012-.002.023-.005l23.051-.493c4.332-.089 7.864-3.692 7.864-8.03V5.535A4.634 4.634 0 0 0 52.85.908M5.24 24.762a.737.737 0 0 1-.776-.68c-.143-1.885-.277-3.777-.411-5.67a1390 1390 0 0 0-.347-4.805 1.25 1.25 0 0 1 1.357-1.336l18.199 1.664c.4.036.7.376.681.773-.065 1.403-.154 2.826-.243 4.248a251 251 0 0 0-.253 4.446.74.74 0 0 1-.702.712q-1.255.062-2.517.111a1.29 1.29 0 0 0-1.178.9l-.802 2.551-1.859-2.38a2.28 2.28 0 0 0-1.789-.873h-.068l-.286.01c-2.956.09-6.014.183-9.006.329m18.465 25.966c-.474-.485-1.148-.686-1.628-.769-.668-.118-1.384-.095-2.077-.065-.325.03-.597-.243-.609-.568a.59.59 0 0 1 .568-.615c.752-.03 1.527-.06 2.32.082.934.16 1.721.545 2.272 1.113.639.657 1.017 1.621 1.065 2.722.041.928-.136 1.822-.308 2.68a.6.6 0 0 1-.58.473c-.041 0-.077-.006-.118-.012a.593.593 0 0 1-.462-.698c.16-.787.32-1.603.29-2.39-.041-.81-.296-1.503-.733-1.953m-5.06-1.242a.59.59 0 0 1-.591.591h-.124a.59.59 0 0 1-.592-.591c0-.326.266-.592.592-.592h.124c.325 0 .592.266.592.592m37.65 1.077c0 3.697-3.012 6.768-6.71 6.845l-22.451.48.021-6.884a4.42 4.42 0 0 0-1.296-3.157 4.42 4.42 0 0 0-3.152-1.308h-7.884v-20.91c.257.051.473.19.634.395l2.213 2.836a.88.88 0 0 0 .85.323.88.88 0 0 0 .684-.601l.975-3.102a.1.1 0 0 1 .096-.073q1.266-.05 2.528-.11a1.92 1.92 0 0 0 1.827-1.843c.065-1.46.158-2.942.25-4.424.09-1.428.18-2.857.245-4.267a1.925 1.925 0 0 0-1.755-2.007l-8.547-.782v-3.03c0-3.782 3.077-6.852 6.852-6.852h31.176c1.9 0 3.444 1.544 3.444 3.443z"/><path fill="#282928" d="M51.866 26.037H24.537a.591.591 0 1 0 0 1.184h27.33a.591.591 0 1 0 0-1.184M51.352 17.863H30.045a.591.591 0 1 0 0 1.184h21.307a.591.591 0 1 0 0-1.184M51.86 10.668a.59.59 0 0 0-.592-.592h-30.06a.591.591 0 1 0 0 1.183h30.06a.59.59 0 0 0 .592-.591M10.873 36.545a.59.59 0 0 0-.592.592v6.144a.591.591 0 1 0 1.184 0v-6.144a.59.59 0 0 0-.592-.592M10.873 33.44a.59.59 0 0 0-.592.591v.589a.591.591 0 1 0 1.184 0v-.589a.59.59 0 0 0-.592-.591M38.554 34.568a8 8 0 0 0-.974.446l-.004.002c-3.16 1.671-4.97 5.1-4.721 8.953.246 3.825 2.447 6.965 5.746 8.194a9.1 9.1 0 0 0 3.172.559c1.545 0 3.09-.372 4.478-1.053.018-.007.036-.01.053-.02.01-.005.015-.014.024-.02 1.674-.837 3.11-2.126 4.018-3.766 1.676-3.03 1.814-6.227.386-9-2.219-4.3-7.457-6.147-12.178-4.295m.46 16.486c-2.855-1.064-4.763-3.808-4.978-7.161-.204-3.167 1.16-5.998 3.586-7.537l3.461 6.605 4.133 7.886c-1.954.813-4.2.952-6.202.207M49.31 47.29c-.705 1.274-1.776 2.306-3.032 3.035l-3.495-6.668c.08-.026.161-.05.238-.09l6.898-3.614c.96 2.282.76 4.862-.609 7.337M19.855 17.664a.592.592 0 0 0 .053-1.181L8.634 15.45a.6.6 0 0 0-.643.536c-.03.325.21.613.535.643l11.275 1.032zM19.855 21.246a.592.592 0 0 0 .053-1.18l-8.516-.78a.592.592 0 1 0-.108 1.18l8.517.778z"/></svg>