<svg xmlns="http://www.w3.org/2000/svg" width="60" height="60" fill="none"><g fill="#282928" clip-path="url(#a)"><path d="M56.456 6.043H3.544A3.544 3.544 0 0 0 0 9.58v40.838a3.544 3.544 0 0 0 3.544 3.538h52.912A3.544 3.544 0 0 0 60 50.418V9.58a3.544 3.544 0 0 0-3.544-3.537M1.25 9.58a2.294 2.294 0 0 1 2.294-2.287h52.912A2.29 2.29 0 0 1 58.75 9.58v3.857H1.25zm11.175 43.126v-2.863a.937.937 0 0 1 .938-.937h13.125a.937.937 0 0 1 .937.937v2.862zm46.325-2.288a2.29 2.29 0 0 1-2.294 2.288H28.675v-2.863a2.193 2.193 0 0 0-2.187-2.187H13.363a2.187 2.187 0 0 0-2.188 2.187v2.862H3.544a2.294 2.294 0 0 1-2.294-2.287V14.687h57.5z"/><path d="M50.263 9.736H50a.625.625 0 1 0 0 1.25h.25a.625.625 0 1 0 0-1.25zM52.988 9.736h-.25a.625.625 0 1 0 0 1.25h.25a.625.625 0 1 0 0-1.25M55.713 9.736h-.256a.625.625 0 0 0 0 1.25h.256a.625.625 0 1 0 0-1.25M20.074 9.736H4.45a.625.625 0 0 0 0 1.25h15.625a.625.625 0 1 0 0-1.25M13.363 30.625h13.125a2.194 2.194 0 0 0 2.188-2.187v-8.594a2.194 2.194 0 0 0-2.188-2.188H13.363a2.187 2.187 0 0 0-2.187 2.188v8.593a2.19 2.19 0 0 0 2.187 2.188m-.937-10.781a.94.94 0 0 1 .937-.938h13.125a.94.94 0 0 1 .938.938v8.593a.94.94 0 0 1-.938.938H13.363a.937.937 0 0 1-.937-.937zM13.363 45.625h13.125a2.194 2.194 0 0 0 2.188-2.187v-8.594a2.194 2.194 0 0 0-2.188-2.188H13.363a2.187 2.187 0 0 0-2.187 2.188v8.593a2.19 2.19 0 0 0 2.187 2.188m-.937-10.781a.94.94 0 0 1 .937-.938h13.125a.94.94 0 0 1 .938.938v8.593a.94.94 0 0 1-.938.938H13.363a.937.937 0 0 1-.937-.937z"/><path d="M14.414 26.874a.63.63 0 0 0 .494-.243l3.069-3.963 1.075 1.606a.626.626 0 0 0 .987.07l1.531-1.726 1.782 2.65a.626.626 0 0 0 1.018 0l1.407-1.875a.625.625 0 0 0-1-.744l-.882 1.17-1.73-2.57a.626.626 0 0 0-.988-.068l-1.538 1.718-1.112-1.65a.624.624 0 0 0-1.025 0l-3.594 4.65a.625.625 0 0 0 .506.975M14.57 42.499h10.707a.625.625 0 1 0 0-1.25h-.275v-2.344a.625.625 0 0 0-1.25 0v2.344h-.97v-4.763a.625.625 0 1 0-1.25 0v4.763h-.98v-1.463a.625.625 0 0 0-1.25 0v1.463h-.988v-3.556a.625.625 0 0 0-1.25 0v3.556h-.987v-4.763a.625.625 0 0 0-1.25 0v4.763h-.257a.625.625 0 0 0 0 1.25M33.2 18.906h10.03a.625.625 0 1 0 0-1.25H33.2a.625.625 0 0 0 0 1.25M43.23 21.174h-5.343a.625.625 0 0 0 0 1.25h5.343a.625.625 0 1 0 0-1.25M33.2 25.938h15a.625.625 0 1 0 0-1.25h-15a.625.625 0 1 0 0 1.25M48.202 28.2h-9.944a.625.625 0 0 0 0 1.25h9.944a.625.625 0 1 0 0-1.25M33.2 32.969h15a.625.625 0 0 0 0-1.25h-15a.625.625 0 1 0 0 1.25M33.2 36.486h15a.625.625 0 1 0 0-1.25h-15a.625.625 0 0 0 0 1.25M48.202 38.75h-6.507a.625.625 0 1 0 0 1.25h6.507a.625.625 0 1 0 0-1.25M33.2 43.512h15a.625.625 0 1 0 0-1.25h-15a.625.625 0 0 0 0 1.25M33.2 47.031h15a.625.625 0 1 0 0-1.25h-15a.625.625 0 0 0 0 1.25M33.2 50.549h5.624a.625.625 0 1 0 0-1.25H33.2a.625.625 0 0 0 0 1.25M45.863 18.906h2.338a.625.625 0 1 0 0-1.25h-2.338a.625.625 0 0 0 0 1.25M45.863 22.424h2.338a.625.625 0 1 0 0-1.25h-2.338a.625.625 0 0 0 0 1.25M33.2 22.424h2.293a.625.625 0 1 0 0-1.25h-2.294a.625.625 0 0 0 0 1.25M33.2 29.45h2.812a.625.625 0 1 0 0-1.25h-2.813a.625.625 0 0 0 0 1.25M33.2 40h6.462a.625.625 0 1 0 0-1.25h-6.463a.625.625 0 1 0 0 1.25M43.99 49.299h-2.92a.625.625 0 0 0 0 1.25h2.92a.625.625 0 1 0 0-1.25"/></g><defs><clipPath id="a"><path fill="#fff" d="M0 0h60v60H0z"/></clipPath></defs></svg>