<svg xmlns="http://www.w3.org/2000/svg" width="60" height="60" fill="none"><path fill="#282928" d="M55.492 33.909V31.86h.26a2.67 2.67 0 0 0 2.666-2.666V17.311a2.67 2.67 0 0 0-2.666-2.666h-.26V9.98q.001-.012.003-.022V5.317A4.62 4.62 0 0 0 50.88.703H8.732A4.62 4.62 0 0 0 4.118 5.32v9.333a2.667 2.667 0 0 0-2.532 2.659v11.884a2.667 2.667 0 0 0 2.532 2.659v2.055a4.62 4.62 0 0 0 4.616 4.611h8.02a.671.671 0 0 0 0-1.341h-8.02a3.276 3.276 0 0 1-3.275-3.27V31.86h20.46a.671.671 0 0 0 0-1.342H4.251c-.73 0-1.324-.594-1.324-1.324V17.31c0-.73.594-1.324 1.324-1.324h51.5c.73 0 1.324.594 1.324 1.324v11.884c0 .73-.594 1.324-1.324 1.324H33.696a.671.671 0 0 0 0 1.342h20.455v2.048a3.274 3.274 0 0 1-3.27 3.27h-8.02a.671.671 0 0 0 0 1.341h8.02a4.617 4.617 0 0 0 4.611-4.611M5.46 10.629h48.692v4.016H5.459zm45.422-8.584a3.275 3.275 0 0 1 3.27 3.274v3.969H5.46V5.317a3.276 3.276 0 0 1 3.273-3.272z"/><path fill="#282928" d="M7.965 5.667c0 1.197.974 2.171 2.17 2.171a2.174 2.174 0 0 0 2.172-2.17 2.174 2.174 0 0 0-2.171-2.172c-1.197 0-2.171.974-2.171 2.171m2.17-.829a.83.83 0 1 1-.829.83.83.83 0 0 1 .83-.83M15.656 7.838c1.197 0 2.17-.974 2.17-2.17a2.174 2.174 0 0 0-2.17-2.172 2.174 2.174 0 0 0-2.172 2.171c0 1.197.974 2.171 2.172 2.171m0-3a.83.83 0 1 1-.002 1.66.83.83 0 0 1 .002-1.66M21.179 7.838a2.174 2.174 0 0 0 2.171-2.17 2.174 2.174 0 0 0-2.171-2.172c-1.197 0-2.171.974-2.171 2.171s.974 2.171 2.17 2.171m0-3a.83.83 0 1 1-.829.83.83.83 0 0 1 .829-.83M34.112 7.709h16.066a2.044 2.044 0 0 0 2.042-2.042 2.044 2.044 0 0 0-2.042-2.042H34.112a2.044 2.044 0 0 0-2.042 2.042c0 1.126.916 2.042 2.042 2.042m0-2.742h16.066a.701.701 0 0 1 0 1.4H34.112a.701.701 0 0 1 0-1.4M18.829 19.084c.459 0 .915.071 1.354.21a.67.67 0 0 0 .408-1.278 5.765 5.765 0 0 0-7.52 5.484 5.765 5.765 0 0 0 7.52 5.485.67.67 0 1 0-.409-1.278 4.422 4.422 0 0 1-5.77-4.206 4.42 4.42 0 0 1 4.417-4.417M34.73 28.764c.37 0 .671-.3.671-.671V17.918a.671.671 0 0 0-1.234-.366l-3.674 5.664-3.673-5.664a.67.67 0 0 0-1.234.366v10.175a.671.671 0 0 0 1.342 0v-7.908l3.002 4.629a.673.673 0 0 0 1.127 0l3.002-4.63v7.909c0 .37.301.67.671.67M42.222 19.084h1.422c1.032 0 1.873.84 1.873 1.873a.671.671 0 0 0 1.342 0 3.22 3.22 0 0 0-3.215-3.215h-1.422a3.22 3.22 0 0 0-3.214 3.215 3.22 3.22 0 0 0 3.214 3.215h1.497c1.032 0 1.873.84 1.873 1.873s-.84 1.873-1.873 1.873h-1.422a1.875 1.875 0 0 1-1.873-1.873.671.671 0 0 0-1.341 0 3.22 3.22 0 0 0 3.214 3.215h1.422a3.22 3.22 0 0 0 3.215-3.215 3.22 3.22 0 0 0-3.215-3.215h-1.497a1.875 1.875 0 0 1-1.872-1.873c0-1.033.84-1.873 1.872-1.873M41.315 49.385a1.913 1.913 0 0 0 1.911-1.91v-3.192a1.913 1.913 0 0 0-1.91-1.91h-1.573a11 11 0 0 0-.43-1.04l1.112-1.112a1.914 1.914 0 0 0 0-2.702l-2.257-2.257a1.914 1.914 0 0 0-2.702 0l-1.112 1.112a11 11 0 0 0-1.039-.43v-1.572a1.913 1.913 0 0 0-1.911-1.911h-3.191c-1.054 0-1.91.857-1.91 1.91v1.573q-.533.188-1.04.43l-1.112-1.111a1.91 1.91 0 0 0-2.702 0l-2.256 2.256a1.913 1.913 0 0 0 0 2.702l1.111 1.112a10 10 0 0 0-.43 1.04h-1.572a1.913 1.913 0 0 0-1.911 1.91v3.191c0 1.054.857 1.91 1.91 1.91h1.573q.188.534.43 1.04l-1.111 1.112a1.91 1.91 0 0 0 0 2.702l2.256 2.257a1.91 1.91 0 0 0 2.702 0l1.112-1.112q.506.242 1.04.43v1.572c0 1.054.856 1.912 1.91 1.912h3.191a1.913 1.913 0 0 0 1.911-1.911v-1.573a10 10 0 0 0 1.04-.43l1.11 1.112a1.913 1.913 0 0 0 2.703 0l2.257-2.257a1.91 1.91 0 0 0 0-2.702l-1.112-1.111q.242-.507.43-1.04zm-3.295 1.644 1.456 1.456a.57.57 0 0 1 0 .804l-2.257 2.257a.583.583 0 0 1-.805 0l-1.456-1.456a.67.67 0 0 0-.793-.116 9 9 0 0 1-1.714.71.67.67 0 0 0-.478.642v2.06a.57.57 0 0 1-.57.569h-3.19a.57.57 0 0 1-.57-.57v-2.059a.67.67 0 0 0-.477-.642 9 9 0 0 1-1.715-.71.67.67 0 0 0-.793.116l-1.456 1.456a.58.58 0 0 1-.805 0l-2.256-2.257a.565.565 0 0 1 0-.804l1.456-1.456a.67.67 0 0 0 .116-.793 9 9 0 0 1-.71-1.715.67.67 0 0 0-.642-.478H18.3a.57.57 0 0 1-.569-.569v-3.19a.57.57 0 0 1 .57-.57h2.059a.67.67 0 0 0 .642-.478 9 9 0 0 1 .71-1.714.67.67 0 0 0-.116-.794l-1.456-1.455a.566.566 0 0 1 0-.805l2.257-2.257a.58.58 0 0 1 .804 0l1.456 1.456a.67.67 0 0 0 .793.116 9 9 0 0 1 1.715-.71.67.67 0 0 0 .478-.642v-2.06a.57.57 0 0 1 .569-.568h3.19a.57.57 0 0 1 .57.569v2.06a.67.67 0 0 0 .478.642 9 9 0 0 1 1.715.71c.26.14.583.093.793-.117l1.455-1.455a.57.57 0 0 1 .805 0l2.256 2.256a.57.57 0 0 1 0 .805l-1.455 1.455a.67.67 0 0 0-.117.794c.293.541.532 1.118.71 1.714a.67.67 0 0 0 .643.478h2.06a.57.57 0 0 1 .568.569v3.191a.57.57 0 0 1-.569.569h-2.06a.67.67 0 0 0-.642.478 9 9 0 0 1-.71 1.715.67.67 0 0 0 .117.793"/><path fill="#282928" d="M29.806 37.861c-4.42 0-8.017 3.597-8.017 8.017s3.597 8.017 8.017 8.017 8.017-3.596 8.017-8.017-3.597-8.017-8.017-8.017m0 14.693a6.68 6.68 0 0 1-6.675-6.676 6.68 6.68 0 0 1 6.675-6.675 6.683 6.683 0 0 1 6.675 6.675 6.68 6.68 0 0 1-6.675 6.676"/></svg>