<svg xmlns="http://www.w3.org/2000/svg" width="60" height="60" fill="none"><path fill="#282928" d="M58.144 49.271h-1.457V22.873A10.5 10.5 0 0 0 60 15.21c0-5.808-4.726-10.534-10.534-10.534-2.46 0-4.852.866-6.739 2.437a.88.88 0 0 0 1.126 1.352 8.8 8.8 0 0 1 5.613-2.03c4.838 0 8.774 3.937 8.774 8.775s-3.936 8.775-8.774 8.775c-4.839 0-8.775-3.936-8.775-8.775a8.7 8.7 0 0 1 .868-3.81.88.88 0 0 0-1.584-.766 10.44 10.44 0 0 0-1.025 5.2h-5.238V4.82a2.495 2.495 0 0 0-2.492-2.492H15.682A2.495 2.495 0 0 0 13.19 4.82v11.014H5.735a2.42 2.42 0 0 0-2.416 2.415v20.753a.88.88 0 1 0 1.76 0V18.25c0-.362.294-.656.656-.656h7.455v2.584H9.528a2.29 2.29 0 0 0-2.287 2.287v21.94a2.29 2.29 0 0 0 2.287 2.287h40.95a2.29 2.29 0 0 0 2.287-2.287v-19.19a10.5 10.5 0 0 0 2.162-.999v25.056H5.08v-6.207a.88.88 0 1 0-1.76 0v6.207H1.84A1.84 1.84 0 0 0 0 51.111v2.697a3.867 3.867 0 0 0 3.863 3.863H56.12a3.867 3.867 0 0 0 3.863-3.863V51.11a1.84 1.84 0 0 0-1.839-1.839M33.712 17.593h5.491c.212.912.543 1.779.975 2.584h-6.466zM27.53 4.088l-.26 1.15a.13.13 0 0 1-.125.1h-7.388a.13.13 0 0 1-.124-.1l-.26-1.15zm-12.58.732c0-.404.328-.732.732-.732h1.886l.348 1.539c.196.865.953 1.47 1.841 1.47h7.387c.888 0 1.645-.604 1.841-1.47l.349-1.54h1.886c.404 0 .733.33.733.733v23.64H14.949zm0 25.4h17.003v2.935a.733.733 0 0 1-.733.732H15.682a.734.734 0 0 1-.733-.732zm36.056 14.184a.53.53 0 0 1-.528.528H9.528A.53.53 0 0 1 9 44.404v-21.94c0-.291.237-.528.528-.528h3.662v11.219a2.495 2.495 0 0 0 2.492 2.492H31.22a2.495 2.495 0 0 0 2.492-2.492V21.936h7.652a10.52 10.52 0 0 0 9.642 3.696zm-23.916 6.63h5.803V52.4H27.09zm31.133 2.774c0 1.16-.944 2.103-2.103 2.103H3.863a2.106 2.106 0 0 1-2.103-2.103V51.11a.08.08 0 0 1 .079-.08l23.492.005v1.5c0 .896.728 1.624 1.623 1.624h6.075c.895 0 1.623-.728 1.623-1.623v-1.501l23.492-.004a.08.08 0 0 1 .08.08z"/><path fill="#282928" d="M46.637 20.134c.347.347.803.52 1.26.52s.912-.173 1.26-.52l6.048-6.049a2.533 2.533 0 0 0 0-3.578 2.533 2.533 0 0 0-3.578 0l-3.73 3.73-.594-.593a2.51 2.51 0 0 0-1.789-.74c-.676 0-1.31.262-1.789.74a2.51 2.51 0 0 0-.74 1.79c0 .675.263 1.31.74 1.788zm-1.668-5.245a.766.766 0 0 1 1.09 0l1.148 1.148c.38.38.999.38 1.38 0l4.284-4.286a.772.772 0 0 1 1.09 1.09l-6.049 6.048a.02.02 0 0 1-.031 0l-2.911-2.911a.77.77 0 0 1-.226-.545c0-.206.08-.399.225-.544M18.977 19.405a1.354 1.354 0 1 0-.434-2.673 1.354 1.354 0 0 0 .434 2.673M24.712 18.589a1.354 1.354 0 1 0-2.502-1.037 1.354 1.354 0 0 0 2.502 1.037M28.14 19.42a1.354 1.354 0 1 0 0-2.707 1.354 1.354 0 0 0 0 2.708"/></svg>