<svg xmlns="http://www.w3.org/2000/svg" width="60" height="60" fill="none"><g fill="#282928" clip-path="url(#a)"><path d="M51 14.625H37v-1a9.01 9.01 0 0 0-9-9H9a9.01 9.01 0 0 0-9 9v12a9.01 9.01 0 0 0 9 9h1v8a1 1 0 0 0 1.707.707l8.707-8.707H23v1a9.01 9.01 0 0 0 9 9h5.586l10.707 10.707A1 1 0 0 0 50 54.625v-10h1a9.01 9.01 0 0 0 9-9v-12a9.01 9.01 0 0 0-9-9m-31 18a1 1 0 0 0-.707.293L12 40.211v-6.586a1 1 0 0 0-1-1H9a7.01 7.01 0 0 1-7-7v-12a7.01 7.01 0 0 1 7-7h19a7.01 7.01 0 0 1 7 7v1h-3a9.01 9.01 0 0 0-9 9v9zm38 3a7.01 7.01 0 0 1-7 7h-2a1 1 0 0 0-1 1v8.586l-9.293-9.293a1 1 0 0 0-.707-.293h-6a7.01 7.01 0 0 1-7-7v-12a7.01 7.01 0 0 1 7-7h19a7.01 7.01 0 0 1 7 7z"/><path d="M53 22.625H30a1 1 0 0 0 0 2h23a1 1 0 0 0 0-2M53 28.625H30a1 1 0 0 0 0 2h23a1 1 0 0 0 0-2M53 34.625H30a1 1 0 0 0 0 2h23a1 1 0 0 0 0-2M6 14.625h21a1 1 0 0 0 0-2H6a1 1 0 0 0 0 2M21 18.625H6a1 1 0 0 0 0 2h15a1 1 0 0 0 0-2M20 24.625H6a1 1 0 0 0 0 2h14a1 1 0 0 0 0-2"/></g><defs><clipPath id="a"><path fill="#fff" d="M0 0h60v60H0z"/></clipPath></defs></svg>