<svg xmlns="http://www.w3.org/2000/svg" width="60" height="60" fill="none"><g fill="#282928" clip-path="url(#a)"><path d="M30 48.75a2.813 2.813 0 1 0 0 5.625 2.813 2.813 0 0 0 0-5.625m0 3.75a.937.937 0 1 1 0-1.875.937.937 0 0 1 0 1.875M29.999 41.25a10.25 10.25 0 0 0-7.29 3.022.937.937 0 0 0 0 1.325l2.652 2.653a.94.94 0 0 0 1.023.2.9.9 0 0 0 .304-.206 4.676 4.676 0 0 1 6.619 0 .94.94 0 0 0 .663.281.94.94 0 0 0 .663-.275l2.653-2.653a.937.937 0 0 0 0-1.325A10.25 10.25 0 0 0 30 41.25m3.93 5.057a6.56 6.56 0 0 0-7.86 0l-1.336-1.336a8.44 8.44 0 0 1 10.532 0z"/><path d="M17.404 38.964a.936.936 0 0 0 0 1.327l2.653 2.653a.94.94 0 0 0 1.325 0 12.186 12.186 0 0 1 17.238 0 .94.94 0 0 0 1.325 0l2.653-2.653a.936.936 0 0 0 0-1.327 17.82 17.82 0 0 0-25.192 0zm21.854 2.014a14.06 14.06 0 0 0-18.516 0l-1.33-1.33a15.946 15.946 0 0 1 21.176 0z"/><path d="M55.313 9.375a3.743 3.743 0 0 0-.938 7.367v2.008a2.81 2.81 0 0 1-2.812 2.813h-9.181a15 15 0 0 0-5.323-4.781l3.32-7.191a2 2 0 0 1 1.809-1.153h2.008a3.75 3.75 0 1 0 0-1.875h-2.008a3.88 3.88 0 0 0-3.511 2.25l-3.32 7.19a14.9 14.9 0 0 0-4.42-.967V8.305a3.75 3.75 0 1 0-1.875 0v6.731a14.9 14.9 0 0 0-4.42.963l-3.319-7.186a3.88 3.88 0 0 0-3.51-2.25h-2.009a3.75 3.75 0 1 0 0 1.875h2.008a2 2 0 0 1 1.81 1.157l3.319 7.19a15 15 0 0 0-5.323 4.778h-9.18a2.81 2.81 0 0 1-2.813-2.813v-2.008a3.75 3.75 0 1 0-1.875 0v2.008a4.693 4.693 0 0 0 4.688 4.688h8.09q-.225.461-.422.937h-.169a10.313 10.313 0 0 0-1.78 20.464 15.937 15.937 0 0 0 31.687 0 10.312 10.312 0 0 0-1.782-20.464h-.168q-.197-.479-.422-.937h8.09a4.693 4.693 0 0 0 4.688-4.688v-2.008a3.743 3.743 0 0 0-.937-7.367m-7.5-3.75a1.875 1.875 0 1 1 0 3.75 1.875 1.875 0 0 1 0-3.75m-35.625 3.75a1.875 1.875 0 1 1 0-3.75 1.875 1.875 0 0 1 0 3.75m-9.375 3.75a1.875 1.875 0 1 1 3.75 0 1.875 1.875 0 0 1-3.75 0m25.312-8.437a1.875 1.875 0 1 1 3.75 0 1.875 1.875 0 0 1-3.75 0M30 57.188a14.063 14.063 0 1 1 14.063-14.063A14.08 14.08 0 0 1 30 57.188M44.063 26.25a8.437 8.437 0 0 1 1.863 16.663 15.929 15.929 0 0 0-31.853 0 8.438 8.438 0 0 1 1.864-16.663c.245 0 .485.017.723.038a.95.95 0 0 0 .965-.625 13.107 13.107 0 0 1 24.75 0 .94.94 0 0 0 .965.625c.238-.02.478-.038.722-.038M55.313 15a1.875 1.875 0 1 1 0-3.75 1.875 1.875 0 0 1 0 3.75"/></g><defs><clipPath id="a"><path fill="#fff" d="M0 0h60v60H0z"/></clipPath></defs></svg>