<svg xmlns="http://www.w3.org/2000/svg" width="60" height="60" fill="none"><path fill="#282928" d="M10.965 6.477A3.97 3.97 0 0 0 7 10.44a3.97 3.97 0 0 0 3.964 3.962 3.97 3.97 0 0 0 3.968-3.962 3.97 3.97 0 0 0-3.968-3.963m0 5.562c-.883 0-1.601-.718-1.601-1.6a1.602 1.602 0 0 1 3.205 0c0 .883-.72 1.6-1.605 1.6M45.628 6.477h-10.48a3.97 3.97 0 0 0-3.964 3.963 3.97 3.97 0 0 0 3.964 3.962h10.48a3.97 3.97 0 0 0 3.965-3.962 3.97 3.97 0 0 0-3.965-3.963m0 5.562h-10.48c-.883 0-1.6-.718-1.6-1.6 0-.881.717-1.599 1.6-1.599h10.48c.883 0 1.6.718 1.6 1.6 0 .881-.717 1.599-1.6 1.599M21.238 6.477a3.97 3.97 0 0 0-3.965 3.963 3.97 3.97 0 0 0 3.965 3.962 3.97 3.97 0 0 0 3.968-3.962 3.97 3.97 0 0 0-3.968-3.963m0 5.562c-.883 0-1.601-.718-1.601-1.6a1.602 1.602 0 0 1 3.205 0c0 .882-.72 1.6-1.604 1.6M19.313 26.068a1.18 1.18 0 0 0-1.424.875l-2.345 9.81a1.182 1.182 0 0 0 2.3.55l2.343-9.811a1.18 1.18 0 0 0-.874-1.424M23.65 37.025a1.18 1.18 0 0 0 1.669-.096l3.313-3.72a1.64 1.64 0 0 0 .004-2.168l-3.318-3.723a1.182 1.182 0 0 0-1.765 1.572l2.88 3.233-2.88 3.233a1.18 1.18 0 0 0 .097 1.669M12.08 27.221a1.18 1.18 0 0 0-1.668.097L7.1 31.038a1.64 1.64 0 0 0-.004 2.166l3.317 3.724a1.18 1.18 0 0 0 1.669.097c.487-.435.53-1.182.096-1.669l-2.88-3.233 2.88-3.233a1.18 1.18 0 0 0-.096-1.669"/><path fill="#282928" d="M57.35 39.79h-.438a12.4 12.4 0 0 0-.891-2.15l.313-.315c.5-.497.776-1.16.777-1.868a2.63 2.63 0 0 0-.774-1.877l-.61-.61V7.8c0-3.525-2.488-6.393-5.546-6.393H5.545C2.487 1.406 0 4.274 0 7.8v33.03c0 3.524 2.487 6.392 5.545 6.392h6.934a1.182 1.182 0 0 0 0-2.364H5.545c-1.724 0-3.181-1.845-3.181-4.029v-21.44h50.999V31.33a3 3 0 0 0-.41-.034h-.004a2.62 2.62 0 0 0-1.865.773l-.32.318a12.5 12.5 0 0 0-2.184-.902v-.42a2.65 2.65 0 0 0-2.65-2.65h-2.138a2.65 2.65 0 0 0-2.646 2.65v.449q-1.11.348-2.134.894l-.306-.306a2.62 2.62 0 0 0-1.869-.776h-.004c-.708 0-1.373.275-1.872.774l-1.511 1.51a2.63 2.63 0 0 0-.775 1.877c.001.708.277 1.371.773 1.864l.327.328a12.5 12.5 0 0 0-.87 2.11h-.45a2.65 2.65 0 0 0-2.646 2.645v2.141q0 .143.015.282h-6.876a1.182 1.182 0 1 0 0 2.363h9.961q.343 1.105.884 2.128l-.32.318a2.65 2.65 0 0 0 .003 3.74l1.512 1.511c.497.5 1.16.776 1.869.777h.004c.708 0 1.373-.275 1.872-.774l.317-.317q1.031.544 2.136.885v.458a2.65 2.65 0 0 0 2.646 2.648h2.142a2.65 2.65 0 0 0 2.646-2.648v-.455a12.5 12.5 0 0 0 2.145-.888l.315.314c.497.5 1.16.776 1.868.777h.005c.708 0 1.372-.275 1.873-.775l1.508-1.51c.5-.497.776-1.161.777-1.87a2.63 2.63 0 0 0-.775-1.876l-.315-.315q.54-1.023.883-2.127h.446A2.65 2.65 0 0 0 60 44.575v-2.14a2.65 2.65 0 0 0-2.65-2.646M2.364 17.024V7.799c0-2.184 1.457-4.03 3.181-4.03h44.636c1.725 0 3.182 1.846 3.182 4.03v9.226zm55.272 27.55c0 .15-.133.282-.286.282H56c-.551 0-1.029.38-1.152.918a10.1 10.1 0 0 1-1.303 3.14 1.18 1.18 0 0 0 .165 1.465l.956.955a.283.283 0 0 1 0 .4l-1.51 1.513a.28.28 0 0 1-.202.082.28.28 0 0 1-.201-.083l-.96-.956a1.18 1.18 0 0 0-1.463-.163c-.971.61-2.032 1.05-3.153 1.305-.538.123-.92.6-.92 1.152v1.361a.29.29 0 0 1-.282.285h-2.142a.29.29 0 0 1-.282-.285v-1.364c0-.552-.383-1.03-.922-1.153a10.1 10.1 0 0 1-3.147-1.303 1.18 1.18 0 0 0-1.462.166l-.956.956a.28.28 0 0 1-.202.082.28.28 0 0 1-.2-.082l-1.514-1.513a.29.29 0 0 1-.001-.398l.96-.956c.392-.39.46-1 .165-1.468a10.1 10.1 0 0 1-1.305-3.138 1.18 1.18 0 0 0-1.152-.918h-1.358a.286.286 0 0 1-.283-.281v-2.141c0-.153.13-.282.282-.282h1.355c.552 0 1.03-.381 1.153-.92.252-1.107.685-2.159 1.288-3.124a1.18 1.18 0 0 0-.166-1.46l-.967-.97a.27.27 0 0 1-.08-.196c0-.044.011-.13.083-.2l1.51-1.51a.28.28 0 0 1 .202-.083c.054 0 .132.014.201.084l.953.949c.392.39 1 .456 1.467.16a10.2 10.2 0 0 1 3.143-1.317c.535-.125.913-.602.913-1.15v-1.351c0-.155.129-.286.282-.286h2.139a.29.29 0 0 1 .286.285v1.331c0 .554.384 1.033.925 1.154a10.1 10.1 0 0 1 3.188 1.314 1.18 1.18 0 0 0 1.462-.163l.964-.96a.27.27 0 0 1 .196-.08c.046 0 .13.01.202.082l1.511 1.51a.283.283 0 0 1-.001.401l-.956.96c-.39.39-.457.998-.163 1.464.612.97 1.052 2.032 1.308 3.157.123.538.6.92 1.152.92h1.345c.153 0 .286.131.286.281z"/><path fill="#282928" d="M44.906 36.287c-3.983 0-7.222 3.239-7.222 7.219 0 3.979 3.24 7.216 7.222 7.216 3.98 0 7.218-3.237 7.218-7.216s-3.238-7.219-7.218-7.219m0 12.071a4.86 4.86 0 0 1-4.859-4.852 4.86 4.86 0 0 1 4.859-4.855 4.86 4.86 0 0 1 4.855 4.855 4.86 4.86 0 0 1-4.855 4.852M17.748 44.857h-.023a1.182 1.182 0 0 0 0 2.364h.023a1.182 1.182 0 0 0 0-2.364"/></svg>