<svg xmlns="http://www.w3.org/2000/svg" width="60" height="60" fill="none"><g fill="#282928" clip-path="url(#a)"><path d="M55.896 41.867 35.58 46.981a3.8 3.8 0 0 0-.966-1.632l-6.472-6.473a4.22 4.22 0 0 0-3.006-1.244h-12.91a4.457 4.457 0 0 0-4.426-3.964H4.451A4.456 4.456 0 0 0 0 38.119v8.959a.882.882 0 0 0 1.763 0v-8.959a2.69 2.69 0 0 1 2.688-2.688H7.8c1.316 0 2.414.95 2.644 2.2.066.353.045-.702.045 16.125A2.69 2.69 0 0 1 7.8 56.445H4.451a2.69 2.69 0 0 1-2.688-2.689v-3.153a.882.882 0 0 0-1.763 0v3.153a4.456 4.456 0 0 0 4.451 4.452H7.8a4.456 4.456 0 0 0 4.452-4.452v-1.56c6.491 1.121 5.095.713 14.769 5.446 1.572.77 3.088 2.23 6.296 2.23 1.71 0 3.377-.48 4.824-1.392l16.764-8.5a.881.881 0 1 0-.797-1.572c-.06.03-16.82 8.525-16.876 8.561a7.3 7.3 0 0 1-3.915 1.14c-2.674 0-3.836-1.225-5.522-2.05-9.836-4.813-8.438-4.425-15.543-5.651V39.394h12.885c.665 0 1.289.259 1.759.729l6.471 6.471c1.275 1.275.418 3.414-1.347 3.414a1.96 1.96 0 0 1-1.396-.578l-5.83-5.832a.882.882 0 0 0-1.247 1.247l5.83 5.832c2.103 2.095 5.721 1.026 6.287-1.9 21.781-5.482 20.579-5.197 20.798-5.197 1.782 0 2.385 2.425.791 3.233a.881.881 0 1 0 .797 1.572c1.298-.658 1.89-1.927 1.89-3.084 0-2.39-2.34-3.863-4.043-3.434"/><path d="M3.133 51.703a2.996 2.996 0 0 0 2.993 2.993 2.996 2.996 0 0 0 2.993-2.993 2.99 2.99 0 0 0-1.811-2.75.881.881 0 1 0-.697 1.62c1.22.524.848 2.36-.485 2.36-.83 0-1.424-.81-1.173-1.603.38-1.197-1.82-1.993-1.82.373M58.82 21.902l-4.25-1.547c.028-.506.028-1.007 0-1.516l4.249-1.547a1.793 1.793 0 0 0 1.073-2.3l-1.444-3.966a1.797 1.797 0 0 0-2.3-1.072l-4.25 1.546a14 14 0 0 0-.974-1.16l2.261-3.917c.495-.857.2-1.957-.657-2.452l-3.655-2.11a1.78 1.78 0 0 0-1.361-.18c-.463.125-.85.422-1.09.837l-2.26 3.914a13 13 0 0 0-1.495-.261l-.785-4.454A1.797 1.797 0 0 0 39.803.262l-4.156.732a1.797 1.797 0 0 0-1.455 2.08l.785 4.451q-.677.343-1.314.76L30.2 5.378a1.793 1.793 0 0 0-2.528.222L24.96 8.832c-.638.76-.54 1.891.22 2.529l3.463 2.905a14 14 0 0 0-.519 1.427h-4.52c-.99 0-1.794.805-1.794 1.794v4.22c0 .99.804 1.795 1.794 1.795h4.52q.22.728.52 1.426l-3.463 2.905a1.797 1.797 0 0 0-.221 2.53l2.712 3.232c.636.758 1.77.857 2.528.221l3.464-2.907q.637.417 1.314.76l-.785 4.452a1.794 1.794 0 0 0 1.455 2.08l4.156.732a1.796 1.796 0 0 0 2.08-1.456l.784-4.453q.757-.09 1.495-.262l2.26 3.914a1.797 1.797 0 0 0 2.452.658l3.655-2.11a1.796 1.796 0 0 0 .656-2.452l-2.261-3.917q.52-.554.975-1.16l4.25 1.546c.93.338 1.96-.139 2.3-1.073l1.443-3.965a1.794 1.794 0 0 0-1.073-2.3m-.584 1.697-1.444 3.966c-.002.004-.004.012-.017.018-.012.006-.02.003-.024.001l-4.88-1.776a.88.88 0 0 0-1.033.337 12 12 0 0 1-1.624 1.933.88.88 0 0 0-.153 1.076l2.597 4.499a.03.03 0 0 1-.011.044l-3.655 2.11a.03.03 0 0 1-.044-.012L45.352 31.3a.88.88 0 0 0-1.008-.406c-.805.233-1.642.38-2.486.435a.88.88 0 0 0-.81.727l-.901 5.116a.033.033 0 0 1-.038.026c-.049-.009-4.19-.721-4.182-.77l.902-5.113a.88.88 0 0 0-.511-.96c-.77-.34-1.504-.765-2.185-1.263a.88.88 0 0 0-1.087.035l-3.98 3.34a.03.03 0 0 1-.044-.004l-2.713-3.233a.033.033 0 0 1 .003-.045l3.978-3.338a.88.88 0 0 0 .224-1.064 11.7 11.7 0 0 1-.863-2.372.88.88 0 0 0-.856-.67h-5.192a.03.03 0 0 1-.032-.033v-4.22c0-.017.014-.032.032-.032h5.192a.88.88 0 0 0 .856-.671c.201-.818.492-1.616.863-2.371a.88.88 0 0 0-.224-1.065l-3.977-3.338a.03.03 0 0 1-.012-.021q.002-.019.008-.024l2.712-3.232c.003-.003.009-.01.022-.012a.03.03 0 0 1 .023.008l3.98 3.339a.88.88 0 0 0 1.087.036c.68-.499 1.416-.924 2.185-1.264a.88.88 0 0 0 .511-.96l-.902-5.112a.03.03 0 0 1 .026-.037l4.156-.733c.005 0 .013-.003.024.005.011.007.013.017.014.02l.901 5.117c.07.4.405.7.81.726.845.056 1.681.202 2.486.435a.88.88 0 0 0 1.009-.405l2.595-4.497c.003-.003.007-.011.02-.014s.02 0 .024.003l3.655 2.11c.015.008.02.028.012.044L49.06 10.04a.88.88 0 0 0 .153 1.076 12 12 0 0 1 1.624 1.933c.226.336.652.475 1.033.336l4.88-1.776a.033.033 0 0 1 .041.02l1.444 3.965c.001.004.004.012-.002.024-.005.013-.014.015-.018.017l-4.88 1.776a.88.88 0 0 0-.575.922c.086.811.093 1.651 0 2.526a.88.88 0 0 0 .574.922l4.881 1.776q.009.001.018.017c.006.012.003.02.002.024"/><path d="m47.946 13.862-9.91 9.909-4.176-4.176a.882.882 0 0 0-1.246 1.246l4.274 4.275a1.623 1.623 0 0 0 2.296 0l10.008-10.008a.881.881 0 1 0-1.246-1.246"/></g><defs><clipPath id="a"><path fill="#fff" d="M0 0h60v60H0z"/></clipPath></defs></svg>