<svg xmlns="http://www.w3.org/2000/svg" width="60" height="60" fill="none"><g fill="#282928" clip-path="url(#a)"><path d="m37.623 43.643-2.229-1.287-.004-.002a.88.88 0 0 0-1.2.33l-1.284 2.223a.879.879 0 1 0 1.523.879l.178-.31a4.6 4.6 0 0 1-1.341 3.235 4.59 4.59 0 0 1-5.215.895.879.879 0 1 0-.758 1.587 6.349 6.349 0 0 0 7.215-1.239 6.35 6.35 0 0 0 1.834-5.02l.402.231a.88.88 0 0 0 .879-1.522M27.149 46.035a.879.879 0 0 0-1.523-.879l-.178.31a4.6 4.6 0 0 1 1.341-3.234 4.59 4.59 0 0 1 5.215-.896.88.88 0 0 0 .758-1.586 6.35 6.35 0 0 0-7.216 1.239 6.35 6.35 0 0 0-1.834 5.02l-.401-.232a.879.879 0 1 0-.88 1.522l2.209 1.275a.88.88 0 0 0 1.23-.325zM39.98 11.8a4.524 4.524 0 0 0-4.52-4.519 4.524 4.524 0 0 0-4.519 4.52 4.524 4.524 0 0 0 4.52 4.518 4.524 4.524 0 0 0 4.518-4.519m-7.28 0a2.764 2.764 0 0 1 2.76-2.76 2.764 2.764 0 0 1 2.761 2.76 2.764 2.764 0 0 1-2.76 2.761 2.764 2.764 0 0 1-2.762-2.76"/><path d="M51.904 0H8.098A2.64 2.64 0 0 0 5.46 2.637v34.706a2.64 2.64 0 0 0 2.637 2.636h4.405a.879.879 0 1 0 0-1.758H8.098a.88.88 0 0 1-.88-.878V2.636a.88.88 0 0 1 .88-.88h43.806a.88.88 0 0 1 .879.88v34.706a.88.88 0 0 1-.88.878H41.782a2.18 2.18 0 0 0-.367-1.882h8.608a.88.88 0 0 0 .878-.879V4.52a.88.88 0 0 0-.878-.879H9.98a.88.88 0 0 0-.879.879v6.687a.879.879 0 1 0 1.758 0V5.398h38.284V22.71l-7.673-6.138a.88.88 0 0 0-1.17.065L35.937 21l-9.076-6.283a.88.88 0 0 0-1.04.029L10.859 26.383V15.307a.879.879 0 1 0-1.758 0V35.46c0 .486.393.88.879.88h8.662a2.18 2.18 0 0 0-.367 1.881h-1.67a.879.879 0 1 0 0 1.758h2.251l.008.023q-.346.702-.598 1.442l-1.553.776a2.19 2.19 0 0 0-1.215 1.965v2.571c0 .838.466 1.59 1.215 1.965l1.553.777q.252.739.598 1.442l-.55 1.647a2.19 2.19 0 0 0 .531 2.249l1.818 1.818a2.19 2.19 0 0 0 2.248.53l1.648-.549q.702.346 1.442.598l.776 1.553A2.19 2.19 0 0 0 28.743 60h2.57c.838 0 1.59-.465 1.966-1.214l.776-1.553q.74-.254 1.442-.598l1.648.55a2.19 2.19 0 0 0 2.248-.532l1.818-1.817a2.19 2.19 0 0 0 .53-2.249l-.548-1.648c.229-.467.429-.95.597-1.441l1.553-.777a2.19 2.19 0 0 0 1.214-1.965v-2.57c0-.839-.465-1.592-1.214-1.966l-1.553-.776a12 12 0 0 0-.597-1.442l.007-.023h10.704a2.64 2.64 0 0 0 2.637-2.636V2.636A2.64 2.64 0 0 0 51.904 0M10.859 28.61 26.39 16.53l13.462 9.32a.88.88 0 0 0 1.001-1.446l-3.448-2.387 3.58-3.58 8.157 6.525v5.18l-4.964-3.436a.88.88 0 0 0-1 1.445l5.964 4.13v2.3h-9.457l-.293-.293a2.19 2.19 0 0 0-2.249-.53l-1.647.548q-.703-.344-1.442-.597l-.777-1.553a2.19 2.19 0 0 0-1.965-1.215h-2.57c-.838 0-1.591.466-1.966 1.215l-.776 1.553q-.74.253-1.442.597l-1.648-.549a2.19 2.19 0 0 0-2.248.531l-.294.293h-9.51zm31.697 15.182c.15.075.244.226.244.393v2.57a.44.44 0 0 1-.243.394l-1.882.94a.88.88 0 0 0-.447.528 10.6 10.6 0 0 1-.763 1.84.88.88 0 0 0-.057.69l.666 1.996a.44.44 0 0 1-.106.45L38.15 55.41a.44.44 0 0 1-.45.106l-1.996-.665a.88.88 0 0 0-.69.057c-.587.31-1.206.567-1.84.763a.88.88 0 0 0-.527.447l-.94 1.881a.44.44 0 0 1-.394.243h-2.57A.44.44 0 0 1 28.35 58l-.941-1.881a.88.88 0 0 0-.527-.447 10.6 10.6 0 0 1-1.84-.763.88.88 0 0 0-.69-.057l-1.996.665a.44.44 0 0 1-.45-.106l-1.818-1.818a.44.44 0 0 1-.106-.45l.666-1.996a.88.88 0 0 0-.057-.69 10.6 10.6 0 0 1-.763-1.84.88.88 0 0 0-.447-.527l-1.881-.94a.44.44 0 0 1-.243-.393v-2.57c0-.169.093-.32.242-.394l1.882-.94a.88.88 0 0 0 .447-.528c.195-.634.452-1.253.763-1.84a.88.88 0 0 0 .057-.69l-.666-1.996a.44.44 0 0 1 .106-.45l1.266-1.266.002-.001.55-.55a.44.44 0 0 1 .45-.106l1.996.665a.88.88 0 0 0 .69-.057 10.6 10.6 0 0 1 1.84-.763.88.88 0 0 0 .527-.447l.94-1.881a.44.44 0 0 1 .394-.243h2.57c.168 0 .318.093.393.243l.94 1.881a.88.88 0 0 0 .528.447c.634.195 1.253.452 1.84.763a.88.88 0 0 0 .69.057l1.996-.666a.44.44 0 0 1 .45.107l1.818 1.817c.118.119.159.291.106.45l-.666 1.997a.88.88 0 0 0 .057.689c.311.587.568 1.206.763 1.84.07.23.232.42.447.527z"/></g><defs><clipPath id="a"><path fill="#fff" d="M0 0h60v60H0z"/></clipPath></defs></svg>