<svg xmlns="http://www.w3.org/2000/svg" width="60" height="60" fill="none"><g fill="#282928" clip-path="url(#a)"><path d="M6.844 17.762a3.33 3.33 0 0 0-3.328 3.328v17.818a3.33 3.33 0 0 0 3.328 3.329 3.33 3.33 0 0 0 3.328-3.329v-4a.879.879 0 1 0-1.758 0v4c0 .866-.704 1.57-1.57 1.57s-1.57-.704-1.57-1.57V21.09c0-.866.704-1.57 1.57-1.57s1.57.704 1.57 1.57v9.685a.879.879 0 0 0 1.758 0V21.09a3.33 3.33 0 0 0-3.328-3.328M53.14 17.764H41.89a3.34 3.34 0 0 0-3.34 3.328 3.34 3.34 0 0 0 3.34 3.328h2.261v14.49a3.34 3.34 0 0 0 3.34 3.328 3.34 3.34 0 0 0 3.341-3.329V24.42h2.307a3.34 3.34 0 0 0 3.34-3.328 3.34 3.34 0 0 0-3.34-3.328m0 4.899h-3.186a.88.88 0 0 0-.879.878V38.91c0 .866-.71 1.57-1.582 1.57a1.58 1.58 0 0 1-1.583-1.57V23.541a.88.88 0 0 0-.879-.878h-3.14a1.58 1.58 0 0 1-1.582-1.571c0-.866.71-1.57 1.582-1.57H53.14c.873 0 1.582.704 1.582 1.57s-.71 1.57-1.582 1.57M31.28 30a5.51 5.51 0 0 0-5.505-5.506A5.51 5.51 0 0 0 20.27 30a5.51 5.51 0 0 0 5.505 5.505A5.51 5.51 0 0 0 31.281 30m-9.253 0a3.75 3.75 0 0 1 3.748-3.748A3.75 3.75 0 0 1 29.523 30a3.75 3.75 0 0 1-3.748 3.748A3.75 3.75 0 0 1 22.027 30M36.26 12.86a20 20 0 0 0-3.018-1.55.879.879 0 1 0-.669 1.626c.953.392 1.88.868 2.755 1.415a1.573 1.573 0 0 1-.836 2.902c-.292 0-.58-.082-.83-.239a15.24 15.24 0 0 0-8.089-2.318c-2.717 0-5.387.724-7.722 2.095a1.56 1.56 0 0 1-1.19.165 1.56 1.56 0 0 1-.96-.725 1.56 1.56 0 0 1-.165-1.19 1.56 1.56 0 0 1 .725-.959 18.4 18.4 0 0 1 12.436-2.261.879.879 0 1 0 .298-1.733 20.163 20.163 0 0 0-13.624 2.478 3.3 3.3 0 0 0-1.536 2.032c-.224.86-.099 1.757.351 2.523a3.3 3.3 0 0 0 2.032 1.536c.86.224 1.757.1 2.523-.35a13.5 13.5 0 0 1 6.832-1.854c2.537 0 5.012.71 7.157 2.051.53.332 1.14.507 1.762.507a3.31 3.31 0 0 0 2.825-1.564 3.33 3.33 0 0 0-1.057-4.586"/><path d="M19.095 23.154a.88.88 0 0 0-1.239.098A10.4 10.4 0 0 0 15.371 30c0 5.737 4.668 10.405 10.405 10.405S36.18 35.737 36.18 30s-4.667-10.404-10.404-10.404c-1.518 0-2.982.32-4.35.95a.879.879 0 1 0 .736 1.596 8.6 8.6 0 0 1 3.614-.788c4.767 0 8.646 3.878 8.646 8.646s-3.879 8.647-8.646 8.647-8.647-3.879-8.647-8.647c0-2.055.733-4.046 2.064-5.607a.88.88 0 0 0-.098-1.24M11.157 10.203c.86.223 1.756.099 2.522-.352a23.27 23.27 0 0 1 11.777-3.194c4.374 0 8.64 1.222 12.337 3.535.53.331 1.14.506 1.763.506a3.31 3.31 0 0 0 2.824-1.563 3.3 3.3 0 0 0 .422-2.512 3.3 3.3 0 0 0-1.479-2.075A29.9 29.9 0 0 0 25.456 0a29.93 29.93 0 0 0-15.148 4.112 3.3 3.3 0 0 0-1.535 2.032 3.3 3.3 0 0 0 .351 2.523 3.3 3.3 0 0 0 2.032 1.536m-.683-3.616a1.56 1.56 0 0 1 .724-.96 28.17 28.17 0 0 1 14.258-3.87c5.293 0 10.458 1.481 14.935 4.281.356.223.604.57.698.98.094.408.023.83-.2 1.185a1.566 1.566 0 0 1-2.164.499 25 25 0 0 0-13.27-3.803A25.03 25.03 0 0 0 12.79 8.336a1.56 1.56 0 0 1-1.19.165 1.56 1.56 0 0 1-.96-.724 1.56 1.56 0 0 1-.165-1.19M14.186 42.878a3.3 3.3 0 0 0-.35 2.523c.223.86.768 1.582 1.535 2.032a20.16 20.16 0 0 0 10.202 2.77c3.787 0 7.483-1.06 10.687-3.064a3.33 3.33 0 0 0 1.056-4.587 3.31 3.31 0 0 0-2.823-1.564 3.3 3.3 0 0 0-1.763.507 13.5 13.5 0 0 1-7.157 2.05 13.5 13.5 0 0 1-6.832-1.852 3.3 3.3 0 0 0-2.523-.351c-.86.224-1.582.77-2.032 1.536m1.516.89a1.56 1.56 0 0 1 1.357-.776c.276 0 .548.073.793.217a15.26 15.26 0 0 0 7.72 2.095c2.868 0 5.666-.802 8.09-2.319a1.564 1.564 0 0 1 2.164.499c.46.734.236 1.705-.498 2.164a18.37 18.37 0 0 1-9.755 2.797c-3.276 0-6.496-.874-9.312-2.528a1.56 1.56 0 0 1-.725-.959 1.56 1.56 0 0 1 .166-1.19"/><path d="M39.556 49.3c-.623 0-1.232.176-1.763.508a23.3 23.3 0 0 1-10.683 3.476.879.879 0 0 0 .124 1.754 25.1 25.1 0 0 0 11.491-3.74 1.564 1.564 0 0 1 2.164.499c.223.355.294.776.2 1.185a1.56 1.56 0 0 1-.698.979 28.13 28.13 0 0 1-14.935 4.28 28.17 28.17 0 0 1-14.258-3.87 1.56 1.56 0 0 1-.724-.958 1.56 1.56 0 0 1 .166-1.19 1.56 1.56 0 0 1 .959-.725 1.56 1.56 0 0 1 1.19.165 25.2 25.2 0 0 0 10.18 3.314.878.878 0 1 0 .175-1.75 23.4 23.4 0 0 1-9.464-3.08 3.3 3.3 0 0 0-2.523-.35 3.3 3.3 0 0 0-2.033 1.535 3.3 3.3 0 0 0-.351 2.523c.223.86.769 1.582 1.535 2.032A29.93 29.93 0 0 0 25.456 60c5.623 0 11.11-1.573 15.867-4.548a3.3 3.3 0 0 0 1.479-2.074c.2-.867.05-1.759-.422-2.513a3.31 3.31 0 0 0-2.824-1.563"/></g><defs><clipPath id="a"><path fill="#fff" d="M0 0h60v60H0z"/></clipPath></defs></svg>