<svg xmlns="http://www.w3.org/2000/svg" width="60" height="60" fill="none"><path fill="#282928" d="M38.002 40.166c-8.09-.003-14.646-6.564-14.643-14.654s6.564-14.646 14.655-14.643c8.087.003 14.642 6.56 14.642 14.649-.012 8.087-6.567 14.639-14.654 14.648m0-28.135c-7.443.003-13.474 6.039-13.47 13.482s6.039 13.474 13.482 13.47c7.44-.003 13.47-6.035 13.47-13.476-.01-7.44-6.041-13.469-13.482-13.477"/><path fill="#282928" d="M38.002 40.167c-2.109 0-4.064-1.579-5.497-4.445-1.369-2.736-2.122-6.362-2.122-10.21 0-3.847.753-7.471 2.122-10.209 1.433-2.865 3.386-4.444 5.497-4.444 2.112 0 4.066 1.579 5.499 4.444 1.367 2.738 2.12 6.363 2.12 10.21 0 3.846-.753 7.473-2.12 10.209-1.433 2.866-3.386 4.445-5.499 4.445m0-28.136c-1.64 0-3.225 1.35-4.453 3.797-1.289 2.578-1.992 6.017-1.992 9.685 0 3.667.71 7.108 1.992 9.685 1.225 2.448 2.804 3.797 4.453 3.797s3.226-1.349 4.453-3.797c1.29-2.578 1.999-6.016 1.999-9.686s-.71-7.107-1.998-9.684c-1.228-2.448-2.808-3.797-4.454-3.797"/><path fill="#282928" d="M38.003 20.983a14 14 0 0 1-10.586-4.829.586.586 0 0 1 .885-.769c4.645 5.358 12.753 5.936 18.111 1.292q.691-.6 1.292-1.292a.586.586 0 0 1 .884.769 14 14 0 0 1-10.586 4.83M27.859 35.842a.586.586 0 0 1-.442-.97c5.07-5.847 13.92-6.477 19.766-1.407q.753.654 1.406 1.406a.586.586 0 0 1-.884.77c-4.645-5.359-12.754-5.937-18.112-1.292q-.691.599-1.291 1.291a.59.59 0 0 1-.443.202M52.064 26.098H23.93a.586.586 0 0 1 0-1.172h28.134a.586.586 0 0 1 0 1.172"/><path fill="#282928" d="M37.996 40.167a.586.586 0 0 1-.586-.586V11.445a.586.586 0 0 1 1.172 0v28.136a.586.586 0 0 1-.586.586"/><path fill="#282928" d="M35.265 60H11.773a4.436 4.436 0 0 1-4.43-4.43V4.43A4.436 4.436 0 0 1 11.774 0h23.492a4.436 4.436 0 0 1 4.43 4.43v7.054a.586.586 0 0 1-1.172 0V4.43a3.26 3.26 0 0 0-3.258-3.258H11.773A3.26 3.26 0 0 0 8.516 4.43v51.14a3.26 3.26 0 0 0 3.257 3.258h23.492a3.26 3.26 0 0 0 3.258-3.258V39.535a.586.586 0 0 1 1.171 0V55.57a4.436 4.436 0 0 1-4.43 4.43"/><path fill="#282928" d="M34.99 57.635H12.098a2.406 2.406 0 0 1-2.404-2.403V4.745A2.406 2.406 0 0 1 12.1 2.344h5.477a.59.59 0 0 1 .547.365l.795 1.986h9.207l.794-1.986a.59.59 0 0 1 .54-.365h5.477a2.406 2.406 0 0 1 2.406 2.4V11.5a.586.586 0 0 1-1.172 0V4.745a1.233 1.233 0 0 0-1.234-1.23h-5.08l-.794 1.986a.59.59 0 0 1-.544.368h-10a.59.59 0 0 1-.545-.368l-.794-1.985h-5.08c-.68 0-1.23.55-1.232 1.229v50.487c.001.68.552 1.23 1.232 1.231h22.89a1.18 1.18 0 0 0 1.181-1.179v-15.76a.586.586 0 0 1 1.172 0v15.76a2.353 2.353 0 0 1-2.353 2.351"/><path fill="#282928" d="M25.284 54.693h-3.526a.586.586 0 0 1 0-1.171h3.53a.586.586 0 0 1 0 1.171z"/></svg>