<svg xmlns="http://www.w3.org/2000/svg" width="60" height="60" fill="none"><path fill="#282928" d="M56.563 26.47a.7.7 0 0 0-.61-.197l-.159.026c-.29-6.643-3.038-12.846-7.792-17.542a26.14 26.14 0 0 0-18.477-7.585c-7.025 0-13.628 2.735-18.596 7.703-4.967 4.967-7.702 11.57-7.702 18.595 0 4.536 1.18 9.016 3.41 12.957a26.4 26.4 0 0 0 8.467 9.033L4.973 57.577a.702.702 0 0 0 .738 1.186l20.65-9.652 5.792 5.793a.7.7 0 0 0 .994 0l18.129-18.13 2.403 2.403a.705.705 0 0 0 1.192-.384l1.89-11.713a.7.7 0 0 0-.198-.61m-51.93 1c0-13.725 11.167-24.892 24.892-24.892 13.34 0 24.371 10.688 24.872 23.946l-1.678.27c-.358-12.484-10.625-22.53-23.194-22.53-12.796 0-23.206 10.41-23.206 23.206a23.23 23.23 0 0 0 11.337 19.944l-1.398 1.12C9.075 44.001 4.633 35.976 4.633 27.47m39.223 1.884 2.463 2.464-13.67 13.672-5.154-5.154a.703.703 0 0 0-.936-.052l-7.722 6.187a21.9 21.9 0 0 1-4.219-3.098l3.425-3.424a.704.704 0 0 0-.995-.995l-3.425 3.425a21.8 21.8 0 0 1-5.886-14.205h4.845a.704.704 0 0 0 0-1.406H7.738a21.73 21.73 0 0 1 5.891-14.199l3.419 3.419a.702.702 0 1 0 .993-.995l-3.418-3.418a21.72 21.72 0 0 1 14.199-5.891v4.844a.704.704 0 0 0 1.406 0V5.684a21.73 21.73 0 0 1 14.198 5.89l-3.418 3.419a.704.704 0 0 0 .497 1.201c.179 0 .36-.069.497-.206l3.418-3.418a21.72 21.72 0 0 1 5.898 14.452l-7.078 1.142a.702.702 0 0 0-.385 1.19m9.846 7.857-1.93-1.93a.705.705 0 0 0-.994 0l-18.13 18.13-5.643-5.643a.7.7 0 0 0-.794-.14l-15.774 7.373 16.51-13.226 5.206 5.207a.7.7 0 0 0 .994 0l14.666-14.666a.7.7 0 0 0 0-.994l-1.989-1.989 9.394-1.515zM40.907 20.087l-8.582 4.955a3.7 3.7 0 0 0-2.8-1.281 3.714 3.714 0 0 0-3.504 4.92l-2.192 1.266a.704.704 0 0 0 .352 1.313c.12 0 .24-.03.35-.094l2.193-1.266a3.7 3.7 0 0 0 2.8 1.281 3.713 3.713 0 0 0 3.505-4.92l8.58-4.954a.704.704 0 0 0-.702-1.22m-11.381 9.686a2.305 2.305 0 0 1-2.303-2.303 2.305 2.305 0 0 1 2.303-2.303 2.305 2.305 0 0 1 2.302 2.303 2.307 2.307 0 0 1-2.302 2.303"/></svg>