<svg xmlns="http://www.w3.org/2000/svg" width="60" height="60" fill="none"><g fill="#282928" clip-path="url(#a)"><path d="M38.25 32H36.09l1.045-7.435a1.374 1.374 0 0 0-.908-1.478c-.63-.23-1.323.003-1.626.49L26.266 34.39a1.66 1.66 0 0 0-.054 1.712c.306.555.896.899 1.54.899h2.163l-1.045 7.436a1.374 1.374 0 0 0 .908 1.478c.166.06.337.089.504.089.466 0 .899-.221 1.122-.58l8.334-10.811a1.66 1.66 0 0 0 .054-1.712 1.75 1.75 0 0 0-1.541-.9m-7.083 10.462.889-6.321a1 1 0 0 0-.99-1.14h-2.751l6.522-8.461-.89 6.32a1 1 0 0 0 .99 1.14h2.752z"/><path d="M57 23h-2c-1.654 0-3 1.346-3 3v3h-2v-9c0-2.206-1.794-4-4-4h-5v-2h6c1.654 0 3-1.346 3-3V9c0-1.654-1.346-3-3-3H27c-1.654 0-3 1.346-3 3v2c0 1.654 1.346 3 3 3h6v2h-5.914c-.934 0-1.843.329-2.56.927l-4.333 3.609a2 2 0 0 1-1.279.464H14c-2.206 0-4 1.794-4 4v4H8v-6c0-1.654-1.346-3-3-3H3c-1.654 0-3 1.346-3 3v20c0 1.654 1.346 3 3 3h2c1.654 0 3-1.346 3-3v-6h2v6c0 2.206 1.794 4 4 4h3.259c.716 0 1.382.386 1.736 1.008l2.273 3.976a4 4 0 0 0 3.473 2.017h17.854a3.99 3.99 0 0 0 3.073-1.439l3.405-4.086A4 4 0 0 0 50 45.915v-8.914h2v3c0 1.654 1.346 3 3 3h2c1.654 0 3-1.346 3-3v-14A3.005 3.005 0 0 0 57 23M6 43a1 1 0 0 1-1 1H3a1 1 0 0 1-1-1V23a1 1 0 0 1 1-1h2a1 1 0 0 1 1 1zm2-8v-4h2v4zm18-24V9a1 1 0 0 1 1-1h20a1 1 0 0 1 1 1v2a1 1 0 0 1-1 1H27a1 1 0 0 1-1-1m9 3h4v2h-4zm13 31.914c0 .467-.165.921-.464 1.28l-3.404 4.086a2 2 0 0 1-1.537.72H24.741a2 2 0 0 1-1.736-1.008l-2.273-3.976a4 4 0 0 0-3.473-2.017H14c-1.103 0-2-.897-2-2v-18c0-1.103.897-2 2-2h4.914c.934 0 1.843-.329 2.56-.927l4.333-3.609a2 2 0 0 1 1.279-.464H46c1.103 0 2 .897 2 2v25.915M50 35v-4h2v4zm8 5a1 1 0 0 1-1 1h-2a1 1 0 0 1-1-1V26a1 1 0 0 1 1-1h2a1 1 0 0 1 1 1z"/></g><defs><clipPath id="a"><path fill="#fff" d="M0 0h60v60H0z"/></clipPath></defs></svg>