<svg xmlns="http://www.w3.org/2000/svg" width="60" height="60" fill="none"><path fill="#282928" d="M51.197 8.053h-5.925a.937.937 0 1 0 0 1.875h5.925a3.18 3.18 0 0 1 3.178 3.178v25.435a3.18 3.18 0 0 1-3.178 3.178c-6.916-.006-42.394 0-42.394 0a3.18 3.18 0 0 1-3.178-3.178V13.106a3.183 3.183 0 0 1 3.178-3.178h32.719a.938.938 0 0 0 0-1.875H8.803a5.06 5.06 0 0 0-5.053 5.053v25.435a5.06 5.06 0 0 0 5.053 5.053h13.259l-2.64 6.478h-4.347a.938.938 0 0 0 0 1.875c2.46-.009 7.388.006 9.844 0a.937.937 0 0 0 0-1.875h-3.471l2.639-6.479h11.826l2.64 6.479h-9.884a.937.937 0 0 0 0 1.875h16.256a.938.938 0 0 0 0-1.875h-4.348l-2.639-6.479h13.259a5.06 5.06 0 0 0 5.053-5.052V13.106a5.06 5.06 0 0 0-5.053-5.053"/><path fill="#282928" d="M21.372 36.714a11.74 11.74 0 0 1-8.502-4.665.938.938 0 0 0-1.495 1.132 13.61 13.61 0 0 0 10.938 5.444.937.937 0 0 0 .937-.938v-2.954a9.83 9.83 0 0 0 8.171-6.033.95.95 0 0 0-.506-1.226l-.905-.375c.205-.709.31-1.443.31-2.182a8.02 8.02 0 0 0-7.073-7.95v-3a.94.94 0 0 0-.938-.938 11.897 11.897 0 0 0-11.84 10.95h-.926a.94.94 0 0 0-.938.938c.069 1.119.13 5.413 1.862 4.838a.935.935 0 0 0 .595-1.185 11.5 11.5 0 0 1-.543-2.714h10.853zm1.878-3.877v-6.514l6.015 2.497a7.94 7.94 0 0 1-6.015 4.017m5.195-7.92c-.002.491-.063.98-.183 1.457l-5.015-2.083v-5.43a6.14 6.14 0 0 1 5.198 6.056m-7.073-9.969v9.032h-9.033a10.03 10.03 0 0 1 9.033-9.032M37.768 15.604a5.5 5.5 0 0 0-.9 2.286h-.852a.938.938 0 0 0 0 1.875h.852c.266 2.083 1.996 4.117 4.1 4.07 1.153.19 4.495-1.74 2.97-3.093a.937.937 0 0 0-1.306.234c-1.255 1.824-3.531.731-3.85-1.21h2.186a.938.938 0 0 0 0-1.876h-2.186c.207-1.067 1.113-2.222 2.186-2.195a2.08 2.08 0 0 1 1.664.983.937.937 0 1 0 1.54-1.071 3.782 3.782 0 0 0-6.404-.003M34.36 37.684a.936.936 0 0 0 .937.937h16.207a.938.938 0 0 0 0-1.875H35.297a.94.94 0 0 0-.938.938M37.848 34.288v-2.014a.938.938 0 0 0-1.875 0v2.014a.937.937 0 0 0 1.875 0M42.176 34.287v-3.673a.937.937 0 0 0-1.875 0v3.673a.938.938 0 0 0 1.875 0M46.504 34.288v-7.096a.938.938 0 0 0-1.875 0v7.096a.938.938 0 0 0 1.875 0M50.828 34.288v-2.014a.938.938 0 0 0-1.875 0v2.014a.938.938 0 0 0 1.875 0"/></svg>