<svg xmlns="http://www.w3.org/2000/svg" width="60" height="60" fill="none"><g fill="#282928" clip-path="url(#a)"><path d="M56 26.999h-1v-4a7.01 7.01 0 0 0-7-7H31v-6.1a5 5 0 1 0-2 0v6.1H12a7.01 7.01 0 0 0-7 7v4H4a4 4 0 0 0-4 4v6a4 4 0 0 0 4 4h1v4a7.01 7.01 0 0 0 7 7v7a1 1 0 0 0 1.555.832l11.5-7.665a1 1 0 0 1 .55-.167H48a7.01 7.01 0 0 0 7-7v-4h1a4 4 0 0 0 4-4v-6a4 4 0 0 0-4-4m-29-22a3 3 0 1 1 6 0 3 3 0 0 1-6 0m-23 34a2 2 0 0 1-2-2v-6a2 2 0 0 1 2-2h1v10zm49 6a5.006 5.006 0 0 1-5 5H25.605a3 3 0 0 0-1.664.5L14 57.13V52a2 2 0 0 0-2-2 5.006 5.006 0 0 1-5-5v-22a5.006 5.006 0 0 1 5-5h36a5.006 5.006 0 0 1 5 5zm5-8a2 2 0 0 1-2 2h-1v-10h1a2 2 0 0 1 2 2z"/><path d="M18 25.998a5 5 0 1 0 5 5 5.006 5.006 0 0 0-5-5m0 8a3 3 0 1 1 0-6 3 3 0 0 1 0 6M42 25.998a5 5 0 1 0 5 5 5.006 5.006 0 0 0-5-5m0 8a3 3 0 1 1 0-6 3 3 0 0 1 0 6M35.542 38.169a1.01 1.01 0 0 0-1.38.287c-.041.063-1.08 1.544-4.16 1.544-3.054 0-4.1-1.456-4.16-1.542a1 1 0 0 0-1.688 1.072c.063.1 1.593 2.47 5.848 2.47s5.785-2.37 5.848-2.47a.993.993 0 0 0-.308-1.361"/></g><defs><clipPath id="a"><path fill="#fff" d="M0 0h60v60H0z"/></clipPath></defs></svg>