<svg xmlns="http://www.w3.org/2000/svg" width="35" height="35" fill="none"><path fill="#fff" fill-rule="evenodd" d="M28.544 6.011a1.51 1.51 0 0 1 1.462-1.136h2.692v.93h-2.692c-.26 0-.49.17-.564.446l-5.19 19.593a1.14 1.14 0 0 1-1.085.86H6.003c-.551 0-.96-.384-1.106-.824l-.007-.02-3.013-12.69-.001-.005a1.143 1.143 0 0 1 1.12-1.387l-.001.465v-.465h24.021l-.246.93H2.993a.214.214 0 0 0-.21.256v-.005l-.453.107.454-.1v-.002l3 12.637-.005-.016-.441.148.452-.108-.006-.024c.046.12.14.174.219.174h17.164c.07 0 .164-.075.18-.143l.001-.01 3.422-12.914h.355v-.93h-.109zM6.446 16.37h16.31v.93H6.445zm1.362 4.909h13.586v.93H7.808zm1.33 7.167a1.402 1.402 0 1 0 0 2.805 1.402 1.402 0 0 0 0-2.805m-.893-.752a2.334 2.334 0 1 1 1.786 4.314 2.334 2.334 0 0 1-1.786-4.314m11.406.752a1.402 1.402 0 1 0 0 2.805 1.402 1.402 0 0 0 0-2.805m-.893-.752a2.334 2.334 0 1 1 1.786 4.312 2.334 2.334 0 0 1-1.786-4.312" clip-rule="evenodd"/><path fill="#fff" fill-rule="evenodd" d="M12.379 2.816h3.526v1.53c.498.145.976.348 1.425.6l1.087-1.087 2.494 2.494-1.086 1.086c.253.45.454.93.597 1.426h1.531v3.061a.465.465 0 0 1-.93 0V9.795h-1.33l-.083-.36a5.8 5.8 0 0 0-.762-1.819l-.2-.315.948-.948-1.18-1.18-.947.948-.314-.199a5.9 5.9 0 0 0-1.818-.762l-.362-.083v-1.33h-1.667v1.36l-.36.084a5.8 5.8 0 0 0-1.818.762l-.32.204-.948-.978-1.175 1.174.948.948-.199.314a5.9 5.9 0 0 0-.763 1.818l-.082.362H7.26v2.131a.465.465 0 0 1-.93 0V8.865h1.53c.144-.498.347-.977.599-1.426L7.372 6.353l2.5-2.5 1.086 1.12q.677-.377 1.42-.594z" clip-rule="evenodd"/><path fill="#fff" fill-rule="evenodd" d="M14.11 6.743a3.873 3.873 0 0 1 3.885 3.886M14.11 6.743a3.87 3.87 0 0 0-3.885 3.885c0 .64.142 1.254.434 1.802a.465.465 0 1 0 .82-.437 2.9 2.9 0 0 1-.325-1.366v-.001a2.943 2.943 0 0 1 2.954-2.953h.003a2.943 2.943 0 0 1 2.954 2.953c0 .398-.075.792-.22 1.162a.465.465 0 1 0 .865.34 4.1 4.1 0 0 0 .285-1.499" clip-rule="evenodd"/></svg>