<svg xmlns="http://www.w3.org/2000/svg" width="60" height="60" fill="none"><path fill="#282928" d="M57.732 3.115a1.12 1.12 0 0 0-.847-.847c-.102-.023-4.421-.9-10.45.647-.052-.004-.097-.024-.15-.02a1.1 1.1 0 0 0-.544.2c-5.705 1.61-12.796 5.438-19.296 14.07-3.037-.296-15.476-.526-20.39 14.7a1.116 1.116 0 0 0 1.83 1.154c.059-.056 5.566-5.178 11.467-3.681-.407.9-.81 1.816-1.203 2.775-.17.417-.074.895.245 1.213l.425.426-2.635 2.637a1.116 1.116 0 0 0 0 1.58l5.846 5.846a1.114 1.114 0 0 0 1.58 0l2.637-2.636.426.426a1.12 1.12 0 0 0 1.213.245c.96-.393 1.877-.797 2.776-1.205 1.494 5.897-3.627 11.41-3.683 11.468a1.12 1.12 0 0 0-.134 1.365 1.12 1.12 0 0 0 1.289.467c15.23-4.918 14.997-17.358 14.7-20.39 8.63-6.499 12.456-13.588 14.068-19.292.107-.16.19-.338.202-.543.003-.054-.017-.1-.021-.153 1.55-6.03.672-10.35.649-10.452m-34.91 38.33-4.267-4.266 1.844-1.846 4.268 4.268zm32.852-37.12c.183 1.325.396 4.294-.468 8.115a9.2 9.2 0 0 1-5.076-2.578 9.13 9.13 0 0 1-2.573-5.068c3.825-.866 6.797-.65 8.117-.468M9.588 29.037c4.373-8.916 11.905-9.833 15.337-9.747-1.59 2.34-3.132 4.995-4.599 7.997-4.196-1.256-8.12.223-10.738 1.75m21.375 21.375c1.527-2.619 3.008-6.543 1.75-10.74 3.003-1.467 5.659-3.007 7.997-4.598.086 3.435-.834 10.967-9.747 15.338m10.148-18.29a1 1 0 0 0-.153.108c-3.53 2.553-7.873 5.02-13.232 7.269l-7.224-7.224c2.246-5.352 4.71-9.688 7.259-13.216.046-.055.087-.11.122-.174C33.804 10.758 40.176 7.028 45.398 5.38a11.35 11.35 0 0 0 3.153 6.062 11.4 11.4 0 0 0 6.07 3.158c-1.648 5.223-5.378 11.598-13.51 17.522"/><path fill="#282928" d="M35.754 15.755a6.014 6.014 0 0 0 0 8.49A6 6 0 0 0 40 26a6 6 0 0 0 4.247-1.754v-.002a6.014 6.014 0 0 0 0-8.49c-2.34-2.338-6.152-2.34-8.492.001m6.793 6.79a3.606 3.606 0 0 1-5.091 0 3.605 3.605 0 0 1 0-5.09A3.6 3.6 0 0 1 40 16.401a3.6 3.6 0 0 1 2.546 1.051 3.61 3.61 0 0 1 0 5.091M9.078 52c.276 0 .552-.106.762-.316l6.844-6.844a1.076 1.076 0 1 0-1.524-1.524L8.316 50.16A1.077 1.077 0 0 0 9.078 52m2 6c.276 0 .552-.106.762-.316l6.844-6.844a1.077 1.077 0 1 0-1.524-1.524l-6.844 6.844a1.077 1.077 0 0 0 .762 1.84m-8.762-8.316a1.075 1.075 0 0 0 1.524 0l6.844-6.844a1.076 1.076 0 1 0-1.524-1.524L2.316 48.16a1.076 1.076 0 0 0 0 1.524"/></svg>