<svg xmlns="http://www.w3.org/2000/svg" width="60" height="60" fill="none"><path fill="#282928" d="M38.39 55.313H21.6a2.84 2.84 0 0 1-2.447-1.36 2.76 2.76 0 0 1-.104-2.719l3.404-6.665a.94.94 0 0 1 .834-.507h13.406c.357 0 .675.197.835.507l3.403 6.665c.44.872.403 1.885-.103 2.72a2.84 2.84 0 0 1-2.447 1.358zm-14.522-9.376-3.14 6.15a.9.9 0 0 0 .037.891.96.96 0 0 0 .844.46h16.79a.98.98 0 0 0 .844-.46.92.92 0 0 0 .038-.89l-3.14-6.15H23.867M29.063 22.5H8.438a1.88 1.88 0 0 1-1.876-1.875V11.25a1.88 1.88 0 0 1 1.875-1.875h20.626a1.88 1.88 0 0 1 1.875 1.875v9.375a1.88 1.88 0 0 1-1.875 1.875M8.438 11.25v9.375h20.624V11.25zm7.5 24.375h-7.5a1.88 1.88 0 0 1-1.876-1.875v-7.5a1.88 1.88 0 0 1 1.875-1.875h7.5a1.88 1.88 0 0 1 1.876 1.875v7.5a1.88 1.88 0 0 1-1.875 1.875m-7.5-9.375v7.5h7.5v-7.5zm20.625 9.375h-7.5a1.88 1.88 0 0 1-1.875-1.875v-7.5a1.88 1.88 0 0 1 1.875-1.875h7.5a1.88 1.88 0 0 1 1.875 1.875v7.5a1.88 1.88 0 0 1-1.875 1.875m-7.5-9.375v7.5h7.5v-7.5zM52.5 35.625H38.438a.94.94 0 0 1-.938-.937.94.94 0 0 1 .938-.938H52.5a.94.94 0 0 1 .938.938.94.94 0 0 1-.938.937m0-4.687H38.438A.94.94 0 0 1 37.5 30a.94.94 0 0 1 .938-.937H52.5a.94.94 0 0 1 .938.937.94.94 0 0 1-.938.938m0-4.688H38.438a.94.94 0 0 1-.938-.937.94.94 0 0 1 .938-.938H52.5a.94.94 0 0 1 .938.938.94.94 0 0 1-.938.937"/><path fill="#282928" d="M53.438 4.688H6.563a4.69 4.69 0 0 0-4.688 4.687V41.25a4.69 4.69 0 0 0 4.688 4.688h46.875a4.69 4.69 0 0 0 4.687-4.688V9.375a4.69 4.69 0 0 0-4.687-4.687m2.812 4.687v29.063H34.688V6.561h18.75a2.82 2.82 0 0 1 2.812 2.813M6.563 6.563h26.25v31.875H3.75V9.375a2.82 2.82 0 0 1 2.813-2.812M56.25 41.25a2.82 2.82 0 0 1-2.812 2.813H6.563A2.82 2.82 0 0 1 3.75 41.25v-.937h52.5z"/><path fill="#282928" d="M49.689 19.687a.94.94 0 0 1-.75-1.5l2.39-3.188-2.39-3.187a.94.94 0 0 1 .187-1.313.94.94 0 0 1 1.313.188l2.812 3.75a.93.93 0 0 1 0 1.125l-2.812 3.75a.95.95 0 0 1-.75.374m-9.376.001a.95.95 0 0 1-.75-.376l-2.813-3.75a.93.93 0 0 1 0-1.124l2.813-3.75a.94.94 0 0 1 1.312-.188c.413.31.497.9.188 1.313l-2.39 3.187 2.39 3.187a.94.94 0 0 1-.75 1.5m3.75.001c-.075 0-.15 0-.225-.029a.937.937 0 0 1-.684-1.134l1.875-7.5a.937.937 0 0 1 1.819.45l-1.875 7.5a.93.93 0 0 1-.91.712"/></svg>