<svg xmlns="http://www.w3.org/2000/svg" width="60" height="60" fill="none"><path fill="#282928" d="M7.148 5.703H8.79v1.64H7.15zm3.282 0h1.64v1.64h-1.64zm1.33 17.285 3.861-3.861-3.861-3.861-1.16 1.16 2.7 2.701-2.7 2.701zm6.326-1.402.015-1.64 24.382.219-.015 1.64zm0-3.281.015-1.641 24.382.22-.015 1.64zm-6.326 15.73 3.861-3.861-3.861-3.861-1.16 1.16 2.7 2.7-2.7 2.702zm6.336-3.043h6.88v1.64h-6.88zm0-3.282h6.88v1.642h-6.88zm17.594 9.954L31.917 41.2l3.771 3.536 1.123-1.197-2.495-2.34 2.495-2.338zm10.14 1.197 2.495 2.339-2.495 2.339 1.122 1.197 3.772-3.536-3.772-3.536zm-7.672 5.069 5.031-6.233 1.277 1.03-5.031 6.233z"/><path fill="#282928" d="M58 44.15v-5.66l-3.316-1.18-1.079-2.604 1.511-3.179-3.46-3.46V6.103A4.106 4.106 0 0 0 47.555 2H42.96v1.64h4.594a2.464 2.464 0 0 1 2.46 2.462v3.01H3.642v-3.01A2.464 2.464 0 0 1 6.1 3.64h35.22V2H6.1A4.106 4.106 0 0 0 2 6.102v32.166a4.106 4.106 0 0 0 4.102 4.101h7.539v-1.64H6.1a2.464 2.464 0 0 1-2.46-2.461V10.753h46.375v17.293l-2.082.99-2.604-1.079-1.18-3.316h-5.66l-1.18 3.316-2.604 1.078-3.179-1.51-4.003 4.003 1.511 3.178-1.078 2.604-3.316 1.18v2.239h-9.36v1.64h9.36v1.782l3.316 1.18 1.078 2.603-1.51 3.18 4.002 4.002 3.18-1.51 2.603 1.078L38.49 58h5.66l1.18-3.316 2.604-1.079 3.18 1.511 4.002-4.003-1.51-3.179 1.078-2.604zm-4.553-.121L51.81 47.98l1.327 2.792-2.365 2.365-2.792-1.327-3.951 1.637-1.036 2.912h-3.346l-1.035-2.912-3.951-1.637-2.792 1.327-2.366-2.365 1.327-2.792-1.636-3.951-2.913-1.036v-3.346l2.913-1.035 1.636-3.951-1.327-2.792 2.366-2.366 2.792 1.327 3.95-1.636 1.037-2.913h3.345l1.036 2.913 3.951 1.636 2.792-1.327 2.365 2.366-1.327 2.792 1.637 3.95 2.912 1.037v3.345z"/></svg>