<svg xmlns="http://www.w3.org/2000/svg" width="60" height="60" fill="none"><g fill="#282928" clip-path="url(#a)"><path d="M10.407 12.656a3.224 3.224 0 0 0-3.22 3.22 3.223 3.223 0 0 0 3.22 3.22 3.223 3.223 0 0 0 3.22-3.22 3.224 3.224 0 0 0-3.22-3.22m0 4.682a1.464 1.464 0 0 1-1.462-1.462c0-.806.656-1.462 1.462-1.462s1.462.656 1.462 1.462-.656 1.462-1.462 1.462m8.268-4.682a3.224 3.224 0 0 0-3.22 3.22 3.223 3.223 0 0 0 3.22 3.22 3.223 3.223 0 0 0 3.22-3.22 3.224 3.224 0 0 0-3.22-3.22m0 4.682a1.464 1.464 0 0 1-1.462-1.462c0-.806.656-1.462 1.462-1.462s1.462.656 1.462 1.462-.656 1.462-1.462 1.462m11.487-1.462a3.224 3.224 0 0 0-3.22-3.22 3.224 3.224 0 0 0-3.22 3.22 3.223 3.223 0 0 0 3.22 3.22 3.223 3.223 0 0 0 3.22-3.22m-3.22 1.462a1.464 1.464 0 0 1-1.462-1.462 1.463 1.463 0 1 1 1.462 1.462"/><path d="M57.303 10.913a5.76 5.76 0 0 0-1.273-6.225c-2.39-2.39-6.332-2.223-8.507.38l-2.905 3.478c-.455-.026 1.869-.009-35.958-.014-4.775 0-8.66 3.885-8.66 8.66V48.86c0 4.776 3.885 8.66 8.66 8.66h42.681c4.775 0 8.659-3.885 8.659-8.66V17.192a8.62 8.62 0 0 0-2.697-6.279m-26.32 16.361a2.4 2.4 0 0 1-1.235-2.185c.04-1.37.527-1.044 2.262-3.653 1.59-2.388 3.016-3.868 7.583-4.885l4.57 4.571c-1.542 6.427-7.677 9.204-13.18 6.152m14.94-5.953 5.12-4.277c0 .05.004.099.004.148v4.27H45.89zm2.949-15.126a4.01 4.01 0 0 1 5.915-.264 4.01 4.01 0 0 1-.265 5.915l-9.343 7.806-4.113-4.113zM1.758 17.192A6.91 6.91 0 0 1 8.66 10.29h34.5l-3.763 4.504c-5.205 1.118-6.997 2.882-8.85 5.669-.24.36-.448.672-.693 1H1.758zm0 31.668V23.22h26.711a4.1 4.1 0 0 0-.477 1.78 4.15 4.15 0 0 0 2.139 3.811c6.008 3.33 12.788.773 15.222-5.59h5.694v25.64a6.91 6.91 0 0 1-6.9 6.902H8.66a6.91 6.91 0 0 1-6.902-6.903m56.484 0a6.91 6.91 0 0 1-6.9 6.903H49.37a8.66 8.66 0 0 0 3.435-6.903V23.22h5.437zm0-27.397h-5.437v-4.27c0-.476-.043-1.001-.133-1.51l2.977-2.488.007-.005c.27-.226.531-.494.72-.718a6.87 6.87 0 0 1 1.866 4.72z"/><path d="M19.932 32.707h-8.858a3.89 3.89 0 0 0-3.886 3.887v8.857a3.89 3.89 0 0 0 3.886 3.887h8.858a3.89 3.89 0 0 0 3.886-3.887v-8.857a3.89 3.89 0 0 0-3.886-3.887m2.129 12.744a2.13 2.13 0 0 1-2.13 2.13h-8.857a2.13 2.13 0 0 1-2.129-2.13v-8.857c0-1.174.955-2.129 2.129-2.129h8.858c1.174 0 2.129.955 2.129 2.129zm7.959-5.704h12.7a3.287 3.287 0 0 0 3.284-3.284 3.287 3.287 0 0 0-3.283-3.283H30.02a3.287 3.287 0 0 0-3.284 3.283 3.287 3.287 0 0 0 3.284 3.283m0-4.81h12.7a1.527 1.527 0 0 1 .001 3.052H30.02a1.527 1.527 0 0 1-1.526-1.526c0-.84.684-1.525 1.526-1.525m15.984 10.647a3.287 3.287 0 0 0-3.283-3.283H30.02a3.287 3.287 0 0 0-3.284 3.283 3.287 3.287 0 0 0 3.284 3.284h12.7a3.287 3.287 0 0 0 3.284-3.284m-3.283 1.526H30.02a1.527 1.527 0 0 1-1.526-1.526c0-.841.684-1.525 1.526-1.525h12.7c.842 0 1.526.684 1.526 1.525s-.684 1.526-1.525 1.526"/></g><defs><clipPath id="a"><path fill="#fff" d="M0 0h60v60H0z"/></clipPath></defs></svg>