<svg width="60" height="60" viewBox="0 0 60 60" fill="none" xmlns="http://www.w3.org/2000/svg">
<mask id="mask0_5921_2487" style="mask-type:luminance" maskUnits="userSpaceOnUse" x="9" y="9" width="42" height="42">
<path d="M50.868 9H9V50.868H50.868V9Z" fill="white"/>
</mask>
<g mask="url(#mask0_5921_2487)">
<path d="M29.9335 14.5371C29.2027 14.5371 28.4882 14.7538 27.8806 15.1599C27.2729 15.5659 26.7992 16.143 26.5195 16.8183C26.2399 17.4935 26.1667 18.2365 26.3093 18.9533C26.4518 19.6701 26.8039 20.3285 27.3206 20.8454C27.8374 21.3622 28.4959 21.7141 29.2127 21.8566C29.9295 21.9992 30.6725 21.926 31.3477 21.6463C32.0229 21.3667 32.5999 20.893 33.0061 20.2853C33.4121 19.6777 33.6288 18.9632 33.6288 18.2324C33.6279 17.2526 33.2383 16.3132 32.5455 15.6204C31.8527 14.9276 30.9133 14.538 29.9335 14.5371ZM29.9335 20.0806C29.5669 20.0806 29.2084 19.9718 28.9035 19.7681C28.5987 19.5644 28.361 19.2748 28.2207 18.9361C28.0804 18.5973 28.0436 18.2245 28.1151 17.8649C28.1867 17.5052 28.3633 17.1749 28.6225 16.9156C28.8819 16.6563 29.2122 16.4797 29.5719 16.4082C29.9315 16.3366 30.3042 16.3734 30.643 16.5137C30.9819 16.654 31.2714 16.8917 31.4751 17.1965C31.6789 17.5014 31.7875 17.8599 31.7875 18.2266C31.7875 18.7183 31.5922 19.1899 31.2446 19.5375C30.8968 19.8852 30.4253 20.0806 29.9335 20.0806Z" fill="#282928"/>
<path d="M49.9167 26.1273C50.0415 26.1276 50.1651 26.1033 50.2805 26.0557C50.3959 26.0082 50.5009 25.9383 50.5892 25.8501C50.6776 25.7619 50.7477 25.6573 50.7956 25.542C50.8433 25.4267 50.868 25.3031 50.868 25.1783V21.3729C50.8683 21.208 50.8258 21.0459 50.7445 20.9025C50.6632 20.7591 50.5461 20.6393 50.4045 20.5548L31.7892 9.50149L31.7637 9.48643C31.2023 9.16552 30.5662 8.99779 29.9195 9.00002C29.2728 9.00226 28.6381 9.17439 28.0788 9.49918L9.4635 20.556C9.32191 20.6405 9.20473 20.7603 9.12347 20.9036C9.0422 21.0471 8.99965 21.2092 9 21.3741V25.1794C9 25.3042 9.02463 25.4278 9.07246 25.5431C9.1203 25.6584 9.19041 25.7631 9.27878 25.8513C9.36715 25.9394 9.47204 26.0093 9.58745 26.0568C9.70286 26.1044 9.82651 26.1288 9.95133 26.1284H12.8065V43.2559C11.7972 43.2569 10.8296 43.6581 10.1159 44.3718C9.40226 45.0855 9.00092 46.0532 9 47.0624V49.9164C9 50.1687 9.10023 50.4108 9.27864 50.5891C9.45705 50.7675 9.69903 50.8678 9.95133 50.8678H49.9167C50.1689 50.8678 50.411 50.7675 50.5893 50.5891C50.7678 50.4108 50.868 50.1687 50.868 49.9164V47.0624C50.8667 46.0534 50.4653 45.0859 49.7517 44.3726C49.0381 43.6592 48.0705 43.258 47.0615 43.2571V26.1273H49.9167ZM48.9653 47.0613V48.9651H10.9027V47.0613C10.9022 46.8109 10.9511 46.5629 11.0466 46.3315C11.142 46.1 11.2822 45.8897 11.459 45.7124C11.6358 45.5352 11.8458 45.3945 12.077 45.2985C12.3083 45.2024 12.5561 45.1529 12.8065 45.1528H47.0615C47.3118 45.1532 47.5595 45.2027 47.7906 45.2988C48.0216 45.3949 48.2316 45.5355 48.4083 45.7128C48.5849 45.89 48.725 46.1003 48.8204 46.3317C48.9157 46.5631 48.9646 46.811 48.9642 47.0613H48.9653ZM14.7092 43.2559V26.1273H18.5157V43.2559H14.7092ZM20.4183 43.2559V26.1273H26.1275V43.2559H20.4183ZM28.0302 43.2559V26.1273H31.8367V43.2559H28.0302ZM33.7393 43.2559V26.1273H39.4485V43.2559H33.7393ZM41.3512 43.2559V26.1273H45.153V43.2559H41.3512ZM10.9027 24.2246V21.9071L29.0221 11.1423C29.2965 10.9827 29.608 10.8981 29.9255 10.8968C30.243 10.8956 30.5552 10.9779 30.8309 11.1353L48.9653 21.9117V24.2292L10.9027 24.2246Z" fill="#282928"/>
</g>
</svg>
