<svg width="60" height="60" viewBox="0 0 60 60" fill="none" xmlns="http://www.w3.org/2000/svg">
<path d="M46.0656 35.8611V16.0492C46.0656 14.1058 44.4843 12.5246 42.541 12.5246H41.1311V11.1148C41.1311 9.94861 40.1825 9 39.0164 9C37.8502 9 36.9016 9.94861 36.9016 11.1148V12.5246H33.3771V11.1148C33.3771 9.94861 32.4284 9 31.2623 9C30.0962 9 29.1475 9.94861 29.1475 11.1148V12.5246H24.918V11.1148C24.918 9.94861 23.9694 9 22.8033 9C21.6371 9 20.6885 9.94861 20.6885 11.1148V12.5246H17.164V11.1148C17.164 9.94861 16.2153 9 15.0492 9C13.883 9 12.9344 9.94861 12.9344 11.1148V12.5246H11.5246C9.58124 12.5246 8 14.1058 8 16.0492V44.2459C8 46.1892 9.58124 47.7705 11.5246 47.7705H35.2264C36.6917 50.2947 39.4179 52 42.541 52C47.2056 52 51 48.2056 51 43.541C51 40.1352 48.973 37.2009 46.0656 35.8611ZM38.3115 11.1148C38.3115 10.7258 38.6274 10.4098 39.0164 10.4098C39.4053 10.4098 39.7213 10.7258 39.7213 11.1148V15.3443C39.7213 15.7332 39.4053 16.0492 39.0164 16.0492C38.6274 16.0492 38.3115 15.7332 38.3115 15.3443V11.1148ZM30.5574 11.1148C30.5574 10.7258 30.8734 10.4098 31.2623 10.4098C31.6512 10.4098 31.9672 10.7258 31.9672 11.1148V15.3443C31.9672 15.7332 31.6512 16.0492 31.2623 16.0492C30.8734 16.0492 30.5574 15.7332 30.5574 15.3443V11.1148ZM22.0984 11.1148C22.0984 10.7258 22.4143 10.4098 22.8033 10.4098C23.1922 10.4098 23.5082 10.7258 23.5082 11.1148V15.3443C23.5082 15.7332 23.1922 16.0492 22.8033 16.0492C22.4143 16.0492 22.0984 15.7332 22.0984 15.3443V11.1148ZM14.3443 11.1148C14.3443 10.7258 14.6603 10.4098 15.0492 10.4098C15.4381 10.4098 15.7541 10.7258 15.7541 11.1148V15.3443C15.7541 15.7332 15.4381 16.0492 15.0492 16.0492C14.6603 16.0492 14.3443 15.7332 14.3443 15.3443V11.1148ZM11.5246 13.9344H12.9344V15.3443C12.9344 16.5104 13.883 17.459 15.0492 17.459C16.2153 17.459 17.164 16.5104 17.164 15.3443V13.9344H20.6885V15.3443C20.6885 16.5104 21.6371 17.459 22.8033 17.459C23.9694 17.459 24.918 16.5104 24.918 15.3443V13.9344H29.1475V15.3443C29.1475 16.5104 30.0962 17.459 31.2623 17.459C32.4284 17.459 33.3771 16.5104 33.3771 15.3443V13.9344H36.9016V15.3443C36.9016 16.5104 37.8502 17.459 39.0164 17.459C40.1825 17.459 41.1311 16.5104 41.1311 15.3443V13.9344H42.541C43.7071 13.9344 44.6558 14.883 44.6558 16.0492V19.5738H9.40984V16.0492C9.40984 14.883 10.3584 13.9344 11.5246 13.9344ZM11.5246 46.3607C10.3584 46.3607 9.40984 45.412 9.40984 44.2459V20.9836H44.6558V35.3603C43.9785 35.185 43.2724 35.082 42.541 35.082C42.0596 35.082 41.5907 35.1317 41.1311 35.2093V31.5574C41.1311 31.1677 40.8159 30.8525 40.4262 30.8525H36.1967C35.8071 30.8525 35.4918 31.1677 35.4918 31.5574V35.7869C35.4918 36.1765 35.8071 36.4918 36.1967 36.4918H37.875C35.5917 38.0081 34.082 40.6003 34.082 43.541C34.082 44.5308 34.2617 45.4771 34.5754 46.3607H11.5246ZM39.7213 35.082H36.9016V32.2623H39.7213V35.082ZM42.541 50.5902C38.6543 50.5902 35.4918 47.4276 35.4918 43.541C35.4918 39.6543 38.6543 36.4918 42.541 36.4918C46.4276 36.4918 49.5902 39.6543 49.5902 43.541C49.5902 47.4276 46.4276 50.5902 42.541 50.5902Z" fill="#282928"/>
<path d="M42.8039 41.9395V37.6504H41.4374V41.9395C41.0307 42.1763 40.7541 42.6119 40.7541 43.1165C40.7541 43.1857 40.7646 43.2521 40.7745 43.3184L38.2773 45.3158L39.1314 46.3833L41.6264 44.3873C41.7801 44.4472 41.9458 44.483 42.1207 44.483C42.8754 44.483 43.4872 43.8712 43.4872 43.1165C43.4872 42.6119 43.2107 42.1763 42.8039 41.9395Z" fill="#282928"/>
<path d="M17.0206 24.3066H14.2875C14.0358 24.3066 13.832 24.5103 13.832 24.7621V27.4952C13.832 27.747 14.0358 27.9507 14.2875 27.9507H17.0206C17.2724 27.9507 17.4761 27.747 17.4761 27.4952V24.7621C17.4761 24.5103 17.2724 24.3066 17.0206 24.3066ZM16.5651 27.0397H14.743V27.4041H16.5651V27.0397Z" fill="#282928"/>
<path d="M24.3097 24.3066H21.5766C21.3248 24.3066 21.1211 24.5103 21.1211 24.7621V27.4952C21.1211 27.747 21.3248 27.9507 21.5766 27.9507H24.3097C24.5615 27.9507 24.7652 27.747 24.7652 27.4952V24.7621C24.7652 24.5103 24.5615 24.3066 24.3097 24.3066ZM23.8541 27.0397H22.0321V27.4041H23.8541V27.0397Z" fill="#282928"/>
<path d="M31.5948 24.3066H28.8618C28.61 24.3066 28.4062 24.5103 28.4062 24.7621V27.4952C28.4062 27.747 28.61 27.9507 28.8618 27.9507H31.5948C31.8466 27.9507 32.0503 27.747 32.0503 27.4952V24.7621C32.0503 24.5103 31.8466 24.3066 31.5948 24.3066ZM31.1393 27.0397H29.3173V27.4041H31.1393V27.0397Z" fill="#282928"/>
<path d="M39.6143 24.3066H36.8813C36.6295 24.3066 36.4258 24.5103 36.4258 24.7621V27.4952C36.4258 27.747 36.6295 27.9507 36.8813 27.9507H39.6143C39.8661 27.9507 40.0698 27.747 40.0698 27.4952V24.7621C40.0698 24.5103 39.8661 24.3066 39.6143 24.3066ZM39.1588 27.0397H37.3368V27.4041H39.1588V27.0397Z" fill="#282928"/>
<path d="M17.0206 31.5938H14.2875C14.0358 31.5938 13.832 31.7975 13.832 32.0493V34.7823C13.832 35.0341 14.0358 35.2378 14.2875 35.2378H17.0206C17.2724 35.2378 17.4761 35.0341 17.4761 34.7823V32.0493C17.4761 31.7975 17.2724 31.5938 17.0206 31.5938ZM16.5651 34.3268H14.743V34.6912H16.5651V34.3268Z" fill="#282928"/>
<path d="M24.3097 31.5938H21.5766C21.3248 31.5938 21.1211 31.7975 21.1211 32.0493V34.7823C21.1211 35.0341 21.3248 35.2378 21.5766 35.2378H24.3097C24.5615 35.2378 24.7652 35.0341 24.7652 34.7823V32.0493C24.7652 31.7975 24.5615 31.5938 24.3097 31.5938ZM23.8541 34.3268H22.0321V34.6912H23.8541V34.3268Z" fill="#282928"/>
<path d="M31.5948 31.5938H28.8618C28.61 31.5938 28.4062 31.7975 28.4062 32.0493V34.7823C28.4062 35.0341 28.61 35.2378 28.8618 35.2378H31.5948C31.8466 35.2378 32.0503 35.0341 32.0503 34.7823V32.0493C32.0503 31.7975 31.8466 31.5938 31.5948 31.5938ZM31.1393 34.3268H29.3173V34.6912H31.1393V34.3268Z" fill="#282928"/>
<path d="M17.0206 39.6094H14.2875C14.0358 39.6094 13.832 39.8131 13.832 40.0649V42.7979C13.832 43.0497 14.0358 43.2534 14.2875 43.2534H17.0206C17.2724 43.2534 17.4761 43.0497 17.4761 42.7979V40.0649C17.4761 39.8131 17.2724 39.6094 17.0206 39.6094ZM16.5651 42.3424H14.743V42.7068H16.5651V42.3424Z" fill="#282928"/>
<path d="M24.3097 39.6094H21.5766C21.3248 39.6094 21.1211 39.8131 21.1211 40.0649V42.7979C21.1211 43.0497 21.3248 43.2534 21.5766 43.2534H24.3097C24.5615 43.2534 24.7652 43.0497 24.7652 42.7979V40.0649C24.7652 39.8131 24.5615 39.6094 24.3097 39.6094ZM23.8541 42.3424H22.0321V42.7068H23.8541V42.3424Z" fill="#282928"/>
<path d="M31.5948 39.6094H28.8618C28.61 39.6094 28.4062 39.8131 28.4062 40.0649V42.7979C28.4062 43.0497 28.61 43.2534 28.8618 43.2534H31.5948C31.8466 43.2534 32.0503 43.0497 32.0503 42.7979V40.0649C32.0503 39.8131 31.8466 39.6094 31.5948 39.6094ZM31.1393 42.3424H29.3173V42.7068H31.1393V42.3424Z" fill="#282928"/>
</svg>
