<svg xmlns="http://www.w3.org/2000/svg" width="60" height="60" fill="none"><path fill="#282928" d="M51.618 18.795C51.265 11.47 44.03 6.53 37.235 8.47c-1.852-3.97-5.911-6.617-10.323-6.617C21.353 1.854 16.5 6 15.706 11.47a9.08 9.08 0 0 0-7.765 7.588c-3.794 1.236-6.353 4.677-6.353 8.736 0 5.03 4.06 9.176 9.177 9.176h4.5c.53 0 .882-.353.882-.882 0-.53-.353-.883-.882-.883h-4.5c-4.059 0-7.412-3.353-7.412-7.411 0-3.353 2.294-6.353 5.559-7.147.353-.089.618-.442.706-.794.353-3.618 3.353-6.442 6.97-6.618a.79.79 0 0 0 .794-.794c.442-4.853 4.589-8.736 9.53-8.736 3.97 0 7.588 2.56 9 6.265.176.441.706.706 1.147.53 6.176-2.295 12.882 2.382 12.882 9v.176c0 .441.353.794.706.882 3.53.618 6.088 3.618 6.088 7.236 0 4.058-3.352 7.411-7.411 7.411h-4.5c-.53 0-.883.353-.883.883s.353.882.883.882h4.5c5.03 0 9.176-4.059 9.176-9.176-.088-4.324-2.912-7.942-6.882-9"/><path fill="#282928" d="M22.588 10.764c.618-1.764 2.294-2.911 4.147-2.911 1.412 0 2.647.617 3.53 1.764.264.353.882.441 1.235.177.353-.265.441-.883.176-1.236-1.147-1.588-3-2.47-4.94-2.47-2.56 0-4.942 1.676-5.824 4.059-.177.44.088.97.53 1.147.44.176.97-.088 1.146-.53M7.5 27.353c0-.53-.353-.882-.882-.882-.53 0-.883.353-.883.882a5.536 5.536 0 0 0 5.56 5.559c.529 0 .882-.353.882-.883 0-.529-.353-.882-.883-.882-2.117 0-3.794-1.764-3.794-3.794"/><path fill="#282928" d="M17.912 19.854v19.765H10.5a3.54 3.54 0 0 0-3.53 3.53v3.705c-1.235.353-2.205 1.588-2.205 2.912 0 1.676 1.411 3.088 3.088 3.088 1.676 0 3.088-1.412 3.088-3.088 0-1.412-.97-2.56-2.206-2.912v-3.706c0-.97.794-1.765 1.765-1.765h7.412v1.324c0 3 5.206 4.676 10.764 4.853v3.706c-1.5.353-2.647 1.764-2.647 3.353a3.54 3.54 0 0 0 3.53 3.53 3.54 3.54 0 0 0 3.53-3.53c0-1.677-1.148-3-2.648-3.441v-3.706c5.912-.089 11.735-1.765 11.735-4.942v-1.323h7.412c.97 0 1.765.794 1.765 1.765v3.706c-1.235.352-2.206 1.588-2.206 2.911 0 1.677 1.412 3.089 3.088 3.089s3.089-1.412 3.089-3.089c0-1.411-.971-2.559-2.206-2.911v-3.706a3.54 3.54 0 0 0-3.53-3.53h-7.412V19.678c0-3.265-6.088-4.942-12.088-4.942s-12.176 1.853-12.176 5.118M9.088 49.766c0 .706-.617 1.323-1.323 1.323s-1.324-.617-1.324-1.323.618-1.324 1.324-1.324c.794 0 1.323.618 1.323 1.324m44.383 0c0 .706-.618 1.323-1.324 1.323s-1.323-.617-1.323-1.323.617-1.324 1.323-1.324c.794 0 1.324.618 1.324 1.324m-13.147-14.47c0 1.323-4.06 3.176-10.324 3.176-6.353 0-10.324-1.853-10.324-3.177v-5.559c2.206 1.5 6.353 2.206 10.324 2.206 4.059 0 8.118-.794 10.324-2.206zm0-8.119c0 1.324-4.06 3.177-10.324 3.177-6.353 0-10.324-1.853-10.324-3.177v-4.676c2.206 1.5 6.265 2.206 10.324 2.206s8.118-.794 10.324-2.206zm-9 27.442a1.77 1.77 0 0 1-1.765 1.764 1.77 1.77 0 0 1-1.765-1.764c0-.97.794-1.765 1.765-1.765s1.764.794 1.764 1.765m9-12c0 1.323-4.06 3.176-10.324 3.176-6.353 0-10.324-1.853-10.324-3.176v-4.677c2.206 1.5 6.353 2.206 10.324 2.206 4.059 0 8.118-.794 10.324-2.206zM30 16.678c6.353 0 10.324 1.852 10.324 3.176 0 1.323-4.06 3.176-10.324 3.176-6.353 0-10.324-1.853-10.324-3.176S23.647 16.677 30 16.677"/><path fill="#282928" d="M24.353 26.03a9 9 0 0 1-1.853-.707c-.44-.176-.97 0-1.147.442-.176.44 0 .97.441 1.147q.927.397 2.118.794c.441.088.97-.177 1.059-.618.176-.441-.088-.882-.618-1.059M24.353 33.707a9 9 0 0 1-1.853-.706c-.44-.176-.97 0-1.147.441-.176.442 0 .971.441 1.148q.927.396 2.118.794c.441.088.97-.177 1.059-.618a.783.783 0 0 0-.618-1.059M24.353 41.295a9 9 0 0 1-1.853-.706c-.44-.176-.97 0-1.147.441-.176.441 0 .97.441 1.147q.927.398 2.118.794c.441.089.97-.176 1.059-.617.176-.441-.088-.883-.618-1.059"/></svg>