<svg xmlns="http://www.w3.org/2000/svg" width="56" height="56"><path d="M28 32a4 4 0 1 0-4-4 4 4 0 0 0 4 4"/><path d="M44 10a12 12 0 0 0-2.518.269 13.984 13.984 0 0 0-26.964 0A12 12 0 1 0 12 34h3.846l.771-1.283-2.344-.588A3 3 0 0 1 12 29.219v-2.438a3 3 0 0 1 2.272-2.91l2.344-.588-1.243-2.07a2.99 2.99 0 0 1 .451-3.664l1.725-1.725a3 3 0 0 1 3.665-.451l2.07 1.242.586-2.342A3 3 0 0 1 26.781 12h2.438a3 3 0 0 1 2.91 2.273l.588 2.342 2.07-1.242a3 3 0 0 1 3.664.451l1.725 1.725a2.99 2.99 0 0 1 .449 3.666l-1.24 2.068 2.344.588A3 3 0 0 1 44 26.781v2.438a3 3 0 0 1-2.273 2.91l-2.342.588.77 1.283H44a12 12 0 0 0 0-24"/><path d="m41.243 25.811-3.794-.949a10 10 0 0 0-.546-1.329l2.009-3.349a1 1 0 0 0-.15-1.222l-1.724-1.724a1 1 0 0 0-1.222-.15L32.467 19.1a10 10 0 0 0-1.329-.546l-.948-3.794a1 1 0 0 0-.97-.757h-2.439a1 1 0 0 0-.97.757l-.949 3.794a10 10 0 0 0-1.329.546l-3.349-2.01a1 1 0 0 0-1.222.15l-1.724 1.724a1 1 0 0 0-.15 1.222l2.01 3.349a10 10 0 0 0-.546 1.329l-3.794.949a1 1 0 0 0-.757.97v2.438a1 1 0 0 0 .757.97l3.794.949a10 10 0 0 0 .546 1.329l-2.01 3.349a1 1 0 0 0 .15 1.222l1.724 1.724a1 1 0 0 0 1.222.15l3.349-2.014a10 10 0 0 0 1.329.546l.949 3.794a1 1 0 0 0 .97.757h2.438a1 1 0 0 0 .97-.757l.948-3.794a10 10 0 0 0 1.329-.546l3.349 2.009a1 1 0 0 0 1.222-.15l1.724-1.724a1 1 0 0 0 .15-1.222L36.9 32.467a10 10 0 0 0 .546-1.329l3.794-.949a1 1 0 0 0 .757-.97v-2.438a1 1 0 0 0-.754-.97M28 34a6 6 0 1 1 6-6 6 6 0 0 1-6 6"/><path d="M28 32a4 4 0 1 0-4-4 4 4 0 0 0 4 4M16.764 48h-5.132a6 6 0 1 0 0 4H18a2 2 0 0 0 1.789-1.105l4-8-3.578-1.789ZM50 44a5.99 5.99 0 0 0-5.632 4h-5.132l-3.447-6.895-3.578 1.789 4 8A2 2 0 0 0 38 52h6.369A5.989 5.989 0 1 0 50 44"/></svg>