<svg xmlns="http://www.w3.org/2000/svg" width="60" height="60"><defs><clipPath id="a"><path d="M0 0h60v60H0z"/></clipPath></defs><g clip-path="url(#a)"><path d="M25.851 51.815V36.469a.957.957 0 0 0-.958-.958h-6.382a.957.957 0 1 0 0 1.915h5.425v14.389a4.149 4.149 0 1 0 1.915 0m-.958 6.27a2.234 2.234 0 1 1 2.234-2.234 2.237 2.237 0 0 1-2.233 2.234ZM36.064 51.815V36.469a.957.957 0 0 0-.958-.958h-6.382a.957.957 0 1 0 0 1.915h5.425v14.389a4.149 4.149 0 1 0 1.915 0m-.958 6.27a2.234 2.234 0 1 1 2.234-2.234 2.237 2.237 0 0 1-2.234 2.234M52.34 45.319a4.155 4.155 0 0 0-4.04 3.192h-2.024V36.469a.957.957 0 0 0-.958-.958h-6.382a.957.957 0 1 0 0 1.915h5.425v12.042a.957.957 0 0 0 .957.957H48.3a4.149 4.149 0 1 0 4.036-5.106Zm0 6.383a2.234 2.234 0 1 1 2.234-2.234A2.237 2.237 0 0 1 52.34 51.7Z"/><path d="M57.72 20.624a10.4 10.4 0 0 0-4.993-3.395 18.126 18.126 0 0 0-33.558-8.575A8.277 8.277 0 0 0 8.6 14.8a11.5 11.5 0 0 0 2.9 22.628h2.225v11.083H11.7a4.149 4.149 0 1 0 0 1.915h2.985a.957.957 0 0 0 .957-.957v-13a.957.957 0 0 0-.957-.957H11.5a9.584 9.584 0 0 1-1.877-18.983.96.96 0 0 0 .763-.815 6.36 6.36 0 0 1 8.824-5 .957.957 0 0 0 1.218-.415 16.211 16.211 0 0 1 30.4 7.681.96.96 0 0 0 .742.924 8.415 8.415 0 0 1-1.9 16.612h-.521a.957.957 0 0 0 0 1.915h.521a10.329 10.329 0 0 0 8.05-16.8ZM7.66 51.7a2.234 2.234 0 1 1 2.234-2.234A2.237 2.237 0 0 1 7.66 51.7"/><path d="M46.684 18.971h.009a.96.96 0 0 0 .949-.971 12.9 12.9 0 0 0-.885-4.587.958.958 0 0 0-1.784.7 11 11 0 0 1 .754 3.908.96.96 0 0 0 .957.95M43.185 11.074a.957.957 0 1 0 1.476-1.22 12.99 12.99 0 0 0-10.036-4.749.957.957 0 0 0 0 1.915 11.08 11.08 0 0 1 8.56 4.054"/></g></svg>