<svg xmlns="http://www.w3.org/2000/svg" width="60" height="60" fill="none"><path fill="#282928" d="M7.482 19.926H5.788a.85.85 0 1 0 0 1.7h1.694a.85.85 0 1 0 0-1.7M7.482 15.846H5.788a.85.85 0 1 0 0 1.7h1.694a.85.85 0 1 0 0-1.7M7.482 24.006H5.788a.85.85 0 1 0 0 1.7h1.694a.85.85 0 1 0 0-1.7M7.482 28.084H5.788a.85.85 0 1 0 0 1.7h1.694a.85.85 0 1 0 0-1.7M7.481 32.164H5.787a.85.85 0 1 0 0 1.7h1.694a.85.85 0 1 0 0-1.7M7.481 36.244H5.787a.85.85 0 0 0 0 1.7h1.694a.85.85 0 1 0 0-1.7M7.481 40.324H5.787a.85.85 0 1 0 0 1.7h1.694a.85.85 0 1 0 0-1.7M23.129 38.857l-1.497-1.497 1.497-1.497a.85.85 0 0 0-1.202-1.202l-2.098 2.098a.85.85 0 0 0 0 1.202l2.098 2.098a.85.85 0 0 0 1.202 0 .85.85 0 0 0 0-1.202M32.236 36.759l-2.098-2.098a.85.85 0 0 0-1.202 1.202l1.497 1.497-1.497 1.496a.85.85 0 0 0 1.202 1.203l2.098-2.098a.85.85 0 0 0 0-1.203M27.41 33.512a.85.85 0 0 0-1.09.508l-2.356 6.473a.85.85 0 0 0 1.598.582l2.356-6.473a.85.85 0 0 0-.508-1.09M6.62 5.178a.9.9 0 0 0-.125-.305.85.85 0 1 0-1.308 1.072.854.854 0 0 0 1.203 0 .86.86 0 0 0 .23-.767M9.27 4.743a.86.86 0 0 0-.602-.249.854.854 0 0 0-.85.85.854.854 0 0 0 .85.85c.224 0 .443-.09.602-.25a.86.86 0 0 0 .25-.6.86.86 0 0 0-.25-.6M12.383 5.178a.9.9 0 0 0-.232-.434.9.9 0 0 0-.275-.185.863.863 0 0 0-.798.078.79.79 0 0 0-.235.236.84.84 0 0 0-.143.472.86.86 0 0 0 .378.706 1 1 0 0 0 .147.078.821.821 0 0 0 .65 0 .8.8 0 0 0 .276-.184.85.85 0 0 0 .232-.767M35.358 4.494H15.09a.85.85 0 1 0 0 1.7h20.268a.85.85 0 1 0 0-1.7M41.823 4.494h-3.476a.85.85 0 1 0 0 1.7h3.476a.85.85 0 1 0 0-1.7M48.772 22.078H37.62a.85.85 0 1 0 0 1.7h11.152a.85.85 0 1 0 0-1.7M44.017 17.998h-3.23a.85.85 0 1 0 0 1.7h3.23a.85.85 0 1 0 0-1.7M52.534 17.998h-5.258a.85.85 0 0 0 0 1.7h5.258a.85.85 0 1 0 0-1.7M37.132 17.998H26.394a.85.85 0 0 0 0 1.7h10.738a.85.85 0 1 0 0-1.7M34.468 22.078h-3.23a.85.85 0 1 0 0 1.7h3.23a.85.85 0 1 0 0-1.7M27.933 22.078h-1.694a.85.85 0 1 0 0 1.7h1.694a.85.85 0 1 0 0-1.7M22.011 22.078h-1.694a.85.85 0 1 0 0 1.7h1.694a.85.85 0 1 0 0-1.7M22.011 17.998h-1.694a.85.85 0 1 0 0 1.7h1.694a.85.85 0 1 0 0-1.7M53.366 22.763a.8.8 0 0 0-.127-.306.8.8 0 0 0-.234-.236.888.888 0 0 0-.638-.126.86.86 0 0 0-.436.232.9.9 0 0 0-.183.276.9.9 0 0 0-.065.325q0 .084.016.167a.84.84 0 0 0 .232.434.9.9 0 0 0 .277.185.856.856 0 0 0 1.032-.314.8.8 0 0 0 .078-.147.833.833 0 0 0 .049-.49"/><path fill="#282928" d="M55.79 30.746h-8.978v-3.06h8.978c1.218 0 2.21-.991 2.21-2.21v-9.18c0-1.218-.991-2.21-2.21-2.21h-2.372a.85.85 0 0 0 0 1.7h2.372c.276 0 .51.234.51.51v9.18c0 .276-.234.51-.51.51H16.45a.517.517 0 0 1-.51-.51v-9.18c0-.276.233-.51.51-.51H49.45a.85.85 0 1 0 0-1.7h-2.64v-9.91A4.18 4.18 0 0 0 42.637.001C1.732.007 4.206-.011 3.871.014A4.18 4.18 0 0 0 .154 3.092c-.212.789-.144.85-.144 11.618a.85.85 0 1 0 1.7 0v-4.021h43.402v3.397H16.45c-1.22 0-2.21.992-2.21 2.21v9.18c0 1.219.99 2.21 2.21 2.21h28.662v3.06H16.45c-1.22 0-2.21.991-2.21 2.21v9.18c0 1.219.99 2.21 2.21 2.21h28.662v.888a2.48 2.48 0 0 1-2.475 2.475H13.533a.85.85 0 1 0 0 1.7h29.103a4.18 4.18 0 0 0 4.176-4.175v-.888h8.978c1.218 0 2.21-.991 2.21-2.21v-9.18c0-1.219-.992-2.21-2.21-2.21M1.71 8.989c.004-4.98-.26-5.662.806-6.638a2.47 2.47 0 0 1 1.67-.65h38.45a2.48 2.48 0 0 1 2.476 2.475V8.99zM56.3 42.136c0 .276-.234.51-.51.51H16.45a.517.517 0 0 1-.51-.51v-9.18c0-.276.233-.51.51-.51h39.34c.276 0 .51.234.51.51z"/><path fill="#282928" d="M9.567 47.71H4.186a2.48 2.48 0 0 1-2.475-2.475V18.678a.85.85 0 1 0-1.7 0v26.557a4.18 4.18 0 0 0 4.175 4.175h5.38a.85.85 0 1 0 0-1.7"/></svg>