<svg width="60" height="60" viewBox="0 0 60 60" fill="none" xmlns="http://www.w3.org/2000/svg">
<path d="M52.6945 6.90234H45.7842C45.3468 6.90234 44.9922 7.25694 44.9922 7.69432C44.9922 8.13169 45.3468 8.48629 45.7842 8.48629H52.6945C53.1319 8.48629 53.4865 8.13169 53.4865 7.69432C53.4865 7.25694 53.132 6.90234 52.6945 6.90234Z" fill="#282928"/>
<path d="M41.8603 8.48629H42.7027C43.14 8.48629 43.4946 8.13169 43.4946 7.69432C43.4946 7.25694 43.14 6.90234 42.7027 6.90234H41.8603C41.423 6.90234 41.0684 7.25694 41.0684 7.69432C41.0684 8.13169 41.423 8.48629 41.8603 8.48629Z" fill="#282928"/>
<path d="M41.8603 12.207H52.6949C53.1323 12.207 53.4869 11.8524 53.4869 11.415C53.4869 10.9776 53.1323 10.623 52.6949 10.623H41.8603C41.423 10.623 41.0684 10.9776 41.0684 11.415C41.0684 11.8524 41.423 12.207 41.8603 12.207Z" fill="#282928"/>
<path d="M44.7246 49.8647C44.7246 46.7011 43.6684 43.5975 41.7446 41.0899L41.8914 38.3861C41.9913 36.5456 40.5307 34.9885 38.6731 34.9885H30.0038C29.605 34.7066 29.3631 34.2489 29.3631 33.7545V31.5432C30.7072 30.6739 31.6509 29.6826 32.3441 28.5029H33.8768C35.6498 28.5029 37.0923 27.0604 37.0923 25.2874V19.3727C37.0923 18.3751 36.5152 17.4933 35.6522 17.0761V12.9251C35.6522 11.0354 34.1148 9.49788 32.225 9.49788H32.1362C32.0822 9.49788 32.0382 9.45385 32.0382 9.39989C32.0382 7.51014 30.5008 5.97266 28.611 5.97266H20.2236C16.0603 5.97266 12.6731 9.35987 12.6731 13.5232V17.076C11.8101 17.4932 11.2329 18.375 11.2329 19.3726V22.3806C11.2329 23.788 12.3779 24.933 13.7853 24.933H14.8077C15.0723 27.1712 16.1222 29.2153 17.7668 30.6364C18.1527 30.9699 18.5517 31.2678 18.9622 31.5339V33.7544C18.9622 34.2473 18.7193 34.7052 18.3186 34.9884H9.65247C7.80919 34.9884 6.33348 36.5311 6.43422 38.386L6.581 41.0898C4.65714 43.5975 3.60097 46.7011 3.60097 49.8647V52.8476C3.2072 53.2889 2.96729 53.8702 2.96729 54.5068C2.96729 55.8825 4.0865 57.0016 5.46221 57.0016H42.8633C44.239 57.0016 45.3582 55.8824 45.3582 54.5068C45.3582 53.8702 45.1183 53.2889 44.7246 52.8478V49.8647ZM43.1406 49.8647V52.0276C43.0495 52.0175 42.9571 52.0119 42.8633 52.0119H41.1518L41.5988 43.7764C42.6012 45.6382 43.1406 47.7356 43.1406 49.8647ZM35.4271 18.986C35.4792 19.1051 35.5085 19.2359 35.5085 19.3728V22.3808C35.5085 22.9148 35.0741 23.3492 34.5401 23.3492H33.5983V20.3637L34.0864 20.1937C34.6902 19.9834 35.165 19.5399 35.4271 18.986ZM30.1396 28.1621H28.1521C27.8317 28.1621 27.571 27.9015 27.571 27.5811C27.571 27.2607 27.8317 27.0001 28.1521 27.0001H30.1396C30.46 27.0001 30.7206 27.2607 30.7206 27.5811C30.7206 27.9015 30.46 28.1621 30.1396 28.1621ZM33.877 26.919H33.0765C33.2995 26.2831 33.4534 25.617 33.5346 24.9332H34.5401C34.8828 24.9332 35.2097 24.8649 35.5085 24.7419V25.2876C35.5085 26.1871 34.7766 26.919 33.877 26.919ZM14.2572 13.5234C14.2572 10.2335 16.9339 7.55681 20.2238 7.55681H28.6112C29.6276 7.55681 30.4545 8.38373 30.4545 9.4001C30.4545 10.3275 31.2091 11.082 32.1364 11.082H32.2252C33.2416 11.082 34.0684 11.909 34.0684 12.9253V17.99C34.0684 18.3087 33.8662 18.5932 33.5653 18.6981L31.901 19.2777C31.8339 19.3009 31.7647 19.2525 31.7647 19.1804L31.7678 16.0332C31.7774 13.7364 29.6267 11.7332 26.6134 12.7011C25.0979 13.1881 23.2224 13.1865 21.712 12.7011C18.7299 11.7427 16.548 13.7103 16.5576 16.0308L16.5613 19.1806C16.5613 19.2533 16.4906 19.3011 16.4251 19.2777L14.7603 18.6979C14.4593 18.5932 14.2571 18.3086 14.2571 17.9899L14.2572 13.5234ZM12.8171 22.3808V19.3727C12.8171 19.2359 12.8464 19.105 12.8985 18.9859C13.1607 19.5399 13.6356 19.9834 14.2396 20.1937L14.7275 20.3636V23.3491H13.7856C13.2515 23.3492 12.8171 22.9147 12.8171 22.3808ZM16.3259 24.0184C16.2996 22.9772 16.3158 21.8721 16.3114 20.8602C16.3602 20.8645 16.409 20.8669 16.4579 20.8669C17.3995 20.8669 18.1468 20.1015 18.1453 19.1783L18.1416 16.0265C18.1362 14.7405 19.2897 13.5862 21.2274 14.2091C23.0639 14.7991 25.2675 14.7973 27.098 14.2091C28.9442 13.6159 30.1896 14.6602 30.1839 16.0291L30.1808 19.1785C30.1795 20.1601 31.0186 20.9466 32.0142 20.8602V24.0825C31.9911 24.767 31.8785 25.435 31.6873 26.0703C31.294 25.6673 30.7458 25.4161 30.1396 25.4161H28.1521C26.9583 25.4161 25.987 26.3873 25.987 27.581C25.987 28.7748 26.9583 29.7459 28.1521 29.7459H29.1583C27.6955 30.8878 26.032 31.4831 24.2043 31.5134C20.206 31.4814 16.4403 28.5276 16.3259 24.0184ZM20.5464 33.7546V32.3689C21.6912 32.8429 22.9124 33.0885 24.2022 33.0976H24.2077C24.2119 33.0976 24.216 33.0976 24.2201 33.0975C25.4757 33.0779 26.6645 32.8346 27.7794 32.3753V33.7545C27.7794 34.1869 27.8699 34.6055 28.0366 34.9885H20.2883C20.4555 34.6054 20.5464 34.1867 20.5464 33.7546ZM6.72672 43.7764L6.85175 46.0806C6.87551 46.5175 7.24963 46.8534 7.68543 46.8286C8.12217 46.8049 8.45702 46.4316 8.43337 45.9949L8.01573 38.3004C7.96494 37.3644 8.70771 36.5725 9.65247 36.5725H38.6732C39.611 36.5725 40.361 37.3573 40.3099 38.3004L39.5657 52.012H27.1467C27.298 51.1073 27.7054 50.2564 28.333 49.5593L28.3557 49.5339C30.7529 46.852 30.0354 42.6581 26.9368 40.8974C26.1416 40.4457 25.1318 41.009 25.1318 41.9456V45.539C25.1318 45.7037 24.9978 45.8376 24.8331 45.8376H23.4924C23.3277 45.8376 23.1937 45.7036 23.1937 45.539V41.9456C23.1937 41.0108 22.1855 40.4447 21.3888 40.8974C18.2813 42.663 17.5783 46.8584 19.9723 49.5366L19.9926 49.5593C20.6201 50.2563 21.0275 51.1072 21.1788 52.0119H8.75998L8.63294 49.6705C8.60929 49.2337 8.23601 48.8985 7.79926 48.9225C7.36252 48.9462 7.02767 49.3195 7.05132 49.7562L7.17371 52.0119H5.46221C5.36844 52.0119 5.27604 52.0176 5.18491 52.0276V49.8647C5.18491 47.7357 5.7244 45.6382 6.72672 43.7764ZM22.7791 52.0119C22.617 50.7142 22.0608 49.4892 21.17 48.4996L21.1508 48.4782C19.6206 46.7665 19.8256 44.1195 21.6099 42.6596V45.5389C21.6099 46.577 22.4544 47.4215 23.4925 47.4215H24.8332C25.8713 47.4215 26.7159 46.5769 26.7159 45.5389V42.6596C28.4883 44.1098 28.7153 46.7549 27.1729 48.4804L27.1558 48.4995C26.2649 49.4892 25.7086 50.7142 25.5465 52.0119H22.7791ZM42.8633 55.4178H5.46221C4.95989 55.4178 4.55123 55.0091 4.55123 54.5069C4.55123 54.0047 4.95989 53.5959 5.46221 53.5959H42.8633C43.3656 53.5959 43.7743 54.0046 43.7743 54.5069C43.7743 55.0092 43.3656 55.4178 42.8633 55.4178Z" fill="#282928"/>
<path d="M56.2405 8.42189C56.6779 8.42189 57.0325 8.0673 57.0325 7.62992V6.09708C57.0325 4.39044 55.644 3.00195 53.9372 3.00195H40.6172C38.9105 3.00195 37.522 4.39044 37.522 6.09708V12.7589C37.522 14.4657 38.9105 15.8542 40.6172 15.8542C40.9222 15.8542 41.1703 16.1023 41.1703 16.4073V20.5271C41.1703 21.1222 41.5555 21.6286 42.129 21.7873C42.7059 21.947 43.2951 21.7068 43.5994 21.1996L46.6437 16.1228C46.7431 15.9571 46.9249 15.8542 47.1181 15.8542H53.9373C55.6441 15.8542 57.0326 14.4657 57.0326 12.7589V11.3325C57.0326 10.8952 56.678 10.5406 56.2406 10.5406C55.8032 10.5406 55.4486 10.8952 55.4486 11.3325V12.7589C55.4486 13.5923 54.7707 14.2702 53.9373 14.2702H47.118C46.3715 14.2702 45.6691 14.668 45.2852 15.3082L42.7542 19.5289V16.4073C42.7542 15.2289 41.7955 14.2702 40.6171 14.2702C39.7837 14.2702 39.1058 13.5923 39.1058 12.7589V6.09708C39.1058 5.26382 39.7837 4.5859 40.6171 4.5859H53.9372C54.7706 4.5859 55.4485 5.26382 55.4485 6.09708V7.62992C55.4485 8.0673 55.8031 8.42189 56.2405 8.42189Z" fill="#282928"/>
</svg>
