<svg width="60" height="60" viewBox="0 0 60 60" fill="none" xmlns="http://www.w3.org/2000/svg">
<path d="M22 4H24V6H22V4Z" fill="#282928"/>
<path d="M6 31H10V33H6V31Z" fill="#282928"/>
<path d="M28 0H6C4.40919 0.00158843 2.88399 0.63424 1.75911 1.75911C0.634239 2.88399 0.00158843 4.40919 0 6V54C0.00158843 55.5908 0.634239 57.116 1.75911 58.2409C2.88399 59.3658 4.40919 59.9984 6 60H28C29.5908 59.9984 31.116 59.3658 32.2409 58.2409C33.3658 57.116 33.9984 55.5908 34 54V6C33.9984 4.40919 33.3658 2.88399 32.2409 1.75911C31.116 0.63424 29.5908 0.00158843 28 0ZM28 58H6C4.93913 58 3.92172 57.5786 3.17157 56.8284C2.42143 56.0783 2 55.0609 2 54V10H30V8H2V6C2 4.93913 2.42143 3.92172 3.17157 3.17157C3.92172 2.42143 4.93913 2 6 2H28C29.0609 2 30.0783 2.42143 30.8284 3.17157C31.5786 3.92172 32 4.93913 32 6V48H4V50H32V54C32 55.0609 31.5786 56.0783 30.8284 56.8284C30.0783 57.5786 29.0609 58 28 58Z" fill="#282928"/>
<path d="M17 51C16.4067 51 15.8266 51.1759 15.3333 51.5056C14.8399 51.8352 14.4554 52.3038 14.2284 52.852C14.0013 53.4001 13.9419 54.0033 14.0576 54.5853C14.1734 55.1672 14.4591 55.7018 14.8787 56.1213C15.2982 56.5409 15.8328 56.8266 16.4147 56.9424C16.9967 57.0581 17.5999 56.9987 18.148 56.7716C18.6962 56.5446 19.1648 56.1601 19.4944 55.6667C19.8241 55.1734 20 54.5933 20 54C20 53.2044 19.6839 52.4413 19.1213 51.8787C18.5587 51.3161 17.7957 51 17 51ZM17 55C16.8022 55 16.6089 54.9414 16.4444 54.8315C16.28 54.7216 16.1518 54.5654 16.0761 54.3827C16.0004 54.2 15.9806 53.9989 16.0192 53.8049C16.0578 53.6109 16.153 53.4327 16.2929 53.2929C16.4327 53.153 16.6109 53.0578 16.8049 53.0192C16.9989 52.9806 17.2 53.0004 17.3827 53.0761C17.5654 53.1518 17.7216 53.28 17.8315 53.4444C17.9414 53.6089 18 53.8022 18 54C18 54.2652 17.8946 54.5196 17.7071 54.7071C17.5196 54.8946 17.2652 55 17 55Z" fill="#282928"/>
<path d="M14 4H20V6H14V4Z" fill="#282928"/>
<path d="M12.7069 24.293L9.41394 21L12.7069 17.707L11.2929 16.293L6.58594 21L11.2929 25.707L12.7069 24.293Z" fill="#282928"/>
<path d="M22.7075 25.707L27.4145 21L22.7075 16.293L21.2935 17.707L24.5865 21L21.2935 24.293L22.7075 25.707Z" fill="#282928"/>
<path d="M13.1997 25.209L18.6137 15.8319L20.3457 16.8319L14.9317 26.209L13.1997 25.209Z" fill="#282928"/>
<path d="M12 31H28V33H12V31Z" fill="#282928"/>
<path d="M6 35H28V37H6V35Z" fill="#282928"/>
<path d="M6 39H28V41H6V39Z" fill="#282928"/>
</svg>
