<svg xmlns="http://www.w3.org/2000/svg" width="60" height="60" fill="none"><path fill="#282928" d="M58.182 49.798h-2.91V19.817a4.44 4.44 0 0 0-4.436-4.437h-2.563a.801.801 0 0 0 0 1.6h2.563a2.85 2.85 0 0 1 2.846 2.846v29.972H6.318V19.817a2.85 2.85 0 0 1 2.846-2.846h2.554a.801.801 0 0 0 0-1.6H9.164a4.44 4.44 0 0 0-4.437 4.437v29.981H1.818c-.436 0-.8.355-.8.8 0 4.546 3.7 8.246 8.246 8.246h41.454c4.545 0 8.246-3.7 8.246-8.246.018-.436-.346-.79-.782-.79m-7.455 7.455H9.273a6.664 6.664 0 0 1-6.61-5.864h54.682c-.4 3.3-3.218 5.864-6.618 5.864"/><path fill="#282928" d="M27.155 55.118h5.69a.801.801 0 0 0 0-1.6h-5.69a.801.801 0 0 0 0 1.6M11.718 20.618a.801.801 0 0 0 0-1.6H9.163c-.436 0-.8.354-.8.8v27.136c0 .436.355.8.8.8h41.682c.437 0 .8-.355.8-.8V19.818c0-.437-.354-.8-.8-.8h-2.563a.801.801 0 0 0 0 1.6h1.772v25.545H9.964V20.618zM19.464 4.617a.935.935 0 0 0-.937.937c0 .518.418.936.937.936a.935.935 0 0 0 .936-.936.935.935 0 0 0-.936-.937M22.663 4.617a.935.935 0 0 0-.936.937.935.935 0 1 0 1.873 0 .935.935 0 0 0-.937-.937M25.864 4.617a.935.935 0 0 0-.937.937c0 .518.418.936.937.936a.935.935 0 0 0 .936-.936.935.935 0 0 0-.936-.937"/><path fill="#282928" d="M24.982 22.208a.8.8 0 0 0 .563.237c.2 0 .41-.073.564-.237a.8.8 0 0 0 0-1.127l-2.427-2.427 2.427-2.428a.8.8 0 0 0 0-1.127.8.8 0 0 0-1.127 0L22 18.081a.8.8 0 0 0 0 1.127zM36.81 28.935c0 .436.354.8.8.8h3.163a.801.801 0 0 0 0-1.6h-3.164a.807.807 0 0 0-.8.8M32.3 28.935c0 .436.354.8.8.8h1.709a.801.801 0 0 0 0-1.6h-1.71a.807.807 0 0 0-.8.8M19.227 29.735h2.855a.801.801 0 0 0 0-1.6h-2.855a.801.801 0 0 0 0 1.6M30 28.145h-5.3a.801.801 0 0 0 0 1.6H30a.801.801 0 0 0 0-1.6M19.227 33.272h3.218a.801.801 0 0 0 0-1.6h-3.218a.801.801 0 0 0 0 1.6M25.136 31.682a.801.801 0 0 0 0 1.6h1.491a.801.801 0 0 0 0-1.6zM40.773 31.682h-5.564a.801.801 0 0 0 0 1.6h5.564a.801.801 0 0 0 0-1.6M28.445 32.472c0 .436.355.8.8.8h3.119a.801.801 0 0 0 0-1.6h-3.119a.813.813 0 0 0-.8.8M40.773 35.217h-3.164a.801.801 0 0 0 0 1.6h3.164a.801.801 0 0 0 0-1.6M34.8 35.217h-1.709a.801.801 0 0 0 0 1.6h1.71a.801.801 0 0 0 0-1.6M19.227 36.809h2.855a.801.801 0 0 0 0-1.6h-2.855a.801.801 0 0 0 0 1.6M30 35.217h-5.3a.801.801 0 0 0 0 1.6H30a.801.801 0 0 0 0-1.6M33.891 22.208a.8.8 0 0 0 .564.236c.2 0 .409-.073.563-.236L38 19.226a.8.8 0 0 0 0-1.128l-2.982-2.981a.8.8 0 0 0-1.127 0 .8.8 0 0 0 0 1.127l2.427 2.427-2.427 2.427c-.31.291-.31.8 0 1.11M27.8 24.935a.9.9 0 0 0 .264.045c.327 0 .636-.209.754-.536l3.873-11.055a.8.8 0 0 0-.491-1.018.8.8 0 0 0-1.018.491l-3.873 11.055a.813.813 0 0 0 .491 1.018"/><path fill="#282928" d="M15.354 40.78h29.291c.436 0 .8-.354.8-.8V1.945c0-.436-.354-.8-.8-.8h-29.29c-.437 0-.8.355-.8.8v38.037c.008.445.363.8.8.8m28.491-1.59h-27.69V9.954h27.7V39.19zM16.155 2.745h27.7v5.618h-27.7z"/></svg>