<svg xmlns="http://www.w3.org/2000/svg" width="60" height="60" fill="none"><path fill="#282928" d="M50.625 32.719v-1.875c.517 0 .938-.42.938-.938v-5.625a.94.94 0 0 0-.938-.937h-5.062l-.182-.704a17.3 17.3 0 0 0-1.913-4.581l-.375-.627 3.594-3.6a.93.93 0 0 0 0-1.313l-3.98-3.988a.95.95 0 0 0-1.314 0l-3.6 3.601-.628-.375a17.4 17.4 0 0 0-4.586-1.913l-.704-.183V4.594a.937.937 0 0 0-.937-.938h-5.625a.937.937 0 0 0-.938.938v5.062l-.704.182a17.4 17.4 0 0 0-4.581 1.912l-.628.375-3.6-3.594a.95.95 0 0 0-1.317 0l-3.982 3.982a.93.93 0 0 0 0 1.318l3.6 3.6-.374.628a17.3 17.3 0 0 0-1.913 4.58l-.184.705H5.625a.937.937 0 0 0-.937.937v5.625c0 .518.42.938.937.938v1.875a2.813 2.813 0 0 1-2.812-2.813v-5.625a2.813 2.813 0 0 1 2.812-2.812h3.627c.387-1.297.91-2.548 1.56-3.734l-2.578-2.578a2.804 2.804 0 0 1 0-3.97l3.985-3.984a2.87 2.87 0 0 1 3.97 0l2.577 2.577A19 19 0 0 1 22.5 8.222V4.594a2.813 2.813 0 0 1 2.813-2.813h5.625a2.813 2.813 0 0 1 2.812 2.813v3.628c1.296.386 2.548.91 3.734 1.56l2.578-2.579a2.87 2.87 0 0 1 3.97 0l3.984 3.983a2.803 2.803 0 0 1 0 3.97l-2.578 2.578a19.2 19.2 0 0 1 1.56 3.735h3.627a2.813 2.813 0 0 1 2.813 2.812v5.625a2.813 2.813 0 0 1-2.813 2.813"/><path fill="#282928" d="M41.25 27.094h-1.875c0-6.213-5.037-11.25-11.25-11.25s-11.25 5.037-11.25 11.25H15c0-7.249 5.876-13.125 13.125-13.125S41.25 19.845 41.25 27.094"/><path fill="#282928" d="M28.125 34.594a5.625 5.625 0 1 1 5.625-5.625 5.63 5.63 0 0 1-5.625 5.625m0-9.375a3.75 3.75 0 1 0 0 7.5 3.75 3.75 0 0 0 0-7.5M44.063 38.344a5.625 5.625 0 1 1 5.624-5.625 5.63 5.63 0 0 1-5.624 5.625m0-9.375a3.75 3.75 0 1 0 0 7.5 3.75 3.75 0 0 0 0-7.5M12.188 38.344a5.625 5.625 0 1 1 5.624-5.625 5.63 5.63 0 0 1-5.625 5.625m0-9.375a3.75 3.75 0 1 0 0 7.5 3.75 3.75 0 0 0 0-7.5"/><path fill="#282928" d="M52.562 40.75a8.34 8.34 0 0 0-4.75-1.469h-7.5a8.4 8.4 0 0 0-1.36.124 8.4 8.4 0 0 0-2.296-2.383 4 4 0 0 0-.432-.28 8.37 8.37 0 0 0-4.349-1.21h-7.5a8.34 8.34 0 0 0-7.074 3.873 8.4 8.4 0 0 0-1.363-.124h-7.5a8.34 8.34 0 0 0-4.747 1.466A8.44 8.44 0 0 0 0 47.72v3.75a6.57 6.57 0 0 0 3.818 5.957 6.36 6.36 0 0 0 2.745.605h9.375v-1.875H7.5V45.844H5.625v10.218a4.4 4.4 0 0 1-1.021-.339 4.7 4.7 0 0 1-2.729-4.254v-3.75a6.57 6.57 0 0 1 2.874-5.425 6.5 6.5 0 0 1 3.689-1.138h7.5c.165 0 .324.018.485.029a8.4 8.4 0 0 0-.485 2.784v9.375a4.693 4.693 0 0 0 4.687 4.687h2.813v-15h-1.875v13.125h-.938a2.813 2.813 0 0 1-2.812-2.812v-9.375a6.56 6.56 0 0 1 6.562-6.563h7.5a6.55 6.55 0 0 1 3.417.965q.143.078.274.175a6.64 6.64 0 0 1 2.102 2.344c.505.947.77 2.005.77 3.079v9.375a2.813 2.813 0 0 1-2.813 2.812h-.937V43.031h-1.876v15h2.813a4.693 4.693 0 0 0 4.688-4.687v-9.375a8.5 8.5 0 0 0-.485-2.784c.161-.011.32-.029.484-.029h7.5a6.5 6.5 0 0 1 3.691 1.14 6.57 6.57 0 0 1 2.872 5.423v3.75a4.69 4.69 0 0 1-2.745 4.261c-.32.152-.658.263-1.005.332V45.844H48.75v10.312h-8.437v1.875h9.374a6.34 6.34 0 0 0 2.73-.598 6.57 6.57 0 0 0 3.833-5.964v-3.75a8.44 8.44 0 0 0-3.688-6.97"/><path fill="#282928" d="M24.375 56.156h7.5v1.875h-7.5z"/></svg>