<svg xmlns="http://www.w3.org/2000/svg" width="60" height="60"><defs><clipPath id="a"><path d="M0 0h60v60H0z"/></clipPath></defs><g clip-path="url(#a)"><path d="M57 7h-1V3a3 3 0 0 0-3-3H7a3 3 0 0 0-3 3v4H3a3 3 0 0 0-3 3v37a3 3 0 0 0 3 3h17.986a6.45 6.45 0 0 1-2.286 4.092H18a2.908 2.908 0 0 0 0 5.816h24a2.908 2.908 0 0 0 0-5.816h-.7A6.45 6.45 0 0 1 39.014 50H57a3 3 0 0 0 3-3V10a3 3 0 0 0-3-3M6 10h48v28a1 1 0 0 1-1 1H7a1 1 0 0 1-1-1Zm0-7a1 1 0 0 1 1-1h46a1 1 0 0 1 1 1v5H6Zm37.092 54A1.09 1.09 0 0 1 42 58.092H18a1.092 1.092 0 0 1 0-2.184h24A1.09 1.09 0 0 1 43.092 57m-4.316-2.908H21.224A9.1 9.1 0 0 0 22.82 50h14.36a9.1 9.1 0 0 0 1.596 4.092M57 48H3a1 1 0 0 1-1-1v-2h4a1 1 0 0 0 0-2H2V10a1 1 0 0 1 1-1h1v29a3 3 0 0 0 3 3h46a3 3 0 0 0 3-3V9h1a1 1 0 0 1 1 1v33H10a1 1 0 0 0 0 2h48v2a1 1 0 0 1-1 1"/><path d="M51 6a1 1 0 1 0-1-1 1 1 0 0 0 1 1M47 6a1 1 0 1 0-1-1 1 1 0 0 0 1 1M43 6a1 1 0 1 0-1-1 1 1 0 0 0 1 1M11 4H9a1 1 0 0 0 0 2h2a1 1 0 0 0 0-2M14 37a1 1 0 0 0 1-1V13a1 1 0 0 0-2 0v23a1 1 0 0 0 1 1M21.293 19.706a1 1 0 0 0 1.414-1.414L20.414 16l2.293-2.293a1 1 0 0 0-1.414-1.414l-3 3a1 1 0 0 0 0 1.414ZM30.293 19.706a1 1 0 0 0 1.414 0l3-3a1 1 0 0 0 0-1.414l-3-3a1 1 0 0 0-1.414 1.414L32.586 16l-2.293 2.293a1 1 0 0 0 0 1.413M24.553 19.9a1 1 0 0 0 1.342-.448l3-6a1 1 0 1 0-1.79-.894l-3 6a1 1 0 0 0 .448 1.342M19 24a1 1 0 0 0 1 1h19a1 1 0 0 0 0-2H20a1 1 0 0 0-1 1M25 29h2a1 1 0 0 0 0-2h-2a1 1 0 0 0 0 2M30 28a1 1 0 0 0 1 1h13a1 1 0 0 0 0-2H31a1 1 0 0 0-1 1M44 31H25a1 1 0 0 0 0 2h19a1 1 0 0 0 0-2M24 35h-4a1 1 0 0 0 0 2h4a1 1 0 0 0 0-2M39 35H28a1 1 0 0 0 0 2h11a1 1 0 0 0 0-2"/></g></svg>