<svg xmlns="http://www.w3.org/2000/svg" width="60" height="60" fill="none"><g fill="#282928" clip-path="url(#a)"><path d="M8.449 22.513a.817.817 0 0 0 1.159 0 .82.82 0 0 0 0-1.16l-1.99-1.99 1.99-1.99a.82.82 0 0 0-1.16-1.158l-2.569 2.57a.82.82 0 0 0 0 1.158zM16.582 19.364l-1.99 1.99a.82.82 0 0 0 1.16 1.16l2.569-2.57a.82.82 0 0 0 0-1.16l-2.57-2.57a.82.82 0 1 0-1.159 1.16zM10.878 22.697q.15.056.3.056a.82.82 0 0 0 .763-.52l2.019-5.139a.82.82 0 1 0-1.526-.6l-2.019 5.14a.82.82 0 0 0 .463 1.063M6.923 27.561h5.521a.82.82 0 0 0 0-1.64H6.923a.82.82 0 1 0 0 1.64M25.16 25.922h-9.706a.82.82 0 0 0 0 1.64h9.707a.82.82 0 1 0 0-1.64M6.923 31.018h2.352a.82.82 0 0 0 0-1.64H6.923a.82.82 0 1 0 0 1.64M22.162 29.379a.82.82 0 1 0 0 1.64h1.432a.82.82 0 1 0 0-1.64zM20.005 30.198a.82.82 0 0 0-.82-.82h-7.034a.82.82 0 1 0 0 1.64h7.035a.82.82 0 0 0 .819-.82M25.374 30.198c0 .453.367.82.82.82h2.682a.82.82 0 1 0 0-1.64h-2.683a.82.82 0 0 0-.819.82M20.91 20.022h2.83a.82.82 0 1 0 0-1.64h-2.83a.82.82 0 1 0 0 1.64M26.91 20.022h17.265a.82.82 0 0 0 0-1.64H26.909a.82.82 0 1 0 0 1.64M41.552 21.988h-6.994a.82.82 0 0 0 0 1.64h6.994a.82.82 0 0 0 0-1.64M31.936 21.988h-2.404a.82.82 0 1 0 0 1.64h2.404a.82.82 0 1 0 0-1.64M20.91 23.628h5.89a.82.82 0 0 0 0-1.64h-5.89a.82.82 0 1 0 0 1.64M19.196 32.807h-5.521a.82.82 0 1 0 0 1.639h5.52a.82.82 0 0 0 0-1.64M11.165 32.807H6.923a.82.82 0 1 0 0 1.639h4.242a.82.82 0 1 0 0-1.64M29.204 32.807h-7.212a.82.82 0 1 0 0 1.639h7.212a.82.82 0 0 0 0-1.64M38.958 28.596h-3.944a.82.82 0 0 0 0 1.64h3.944a.82.82 0 0 0 0-1.64M45.801 30.235h5.568a.82.82 0 0 0 0-1.64H45.8a.82.82 0 1 0 0 1.64M43.018 28.596h-1.276a.82.82 0 1 0 0 1.64h1.276a.82.82 0 0 0 0-1.64M35.014 39.166h3.944a.82.82 0 1 0 0-1.639h-3.944a.82.82 0 0 0 0 1.64M45.801 39.166h5.568a.82.82 0 1 0 0-1.639H45.8a.82.82 0 1 0 0 1.64M41.742 39.166h1.276a.82.82 0 1 0 0-1.639h-1.276a.82.82 0 1 0 0 1.64M38.958 46.459h-3.944a.82.82 0 0 0 0 1.639h3.944a.82.82 0 1 0 0-1.639M51.369 46.459H45.8a.82.82 0 1 0 0 1.639h5.568a.82.82 0 1 0 0-1.639M43.018 46.459h-1.276a.82.82 0 1 0 0 1.639h1.276a.82.82 0 1 0 0-1.639"/><path d="M54.393 2.11H5.607A3.61 3.61 0 0 0 2 5.716v39.656a3.61 3.61 0 0 0 3.607 3.606h13.085a.82.82 0 1 0 0-1.639H5.607a1.97 1.97 0 0 1-1.968-1.968v-3.109H33.5v1.413h-.65c-.89 0-1.612.723-1.612 1.612v2.052H13.675a.82.82 0 0 0 0 1.64h7.88v2.939H19.08a2.997 2.997 0 0 0-2.994 2.994v1.77c0 .753.613 1.366 1.366 1.366h25.034c.753 0 1.366-.613 1.366-1.366v-1.77a2.997 2.997 0 0 0-2.994-2.994h-2.475v-1.036h15.152c.888 0 1.611-.723 1.611-1.612v-.386a3.61 3.61 0 0 0 2.792-3.512L58 5.716a3.61 3.61 0 0 0-3.607-3.607M32.876 40.311v-3.928h20.631v3.928zm2.261-5.568V33.02h16.108v1.724zm16.108 7.207v1.725H35.137V41.95zM23.194 48.98h8.043v.292c0 .889.723 1.612 1.612 1.612h3.895v1.036h-13.55zm17.664 4.58c.747 0 1.355.607 1.355 1.354v1.497H17.725v-1.497c0-.747.608-1.355 1.355-1.355zm12.65-4.316H32.875v-3.928h20.631zm2.79-3.87c0 .793-.473 1.477-1.151 1.788v-1.873c0-.89-.724-1.612-1.612-1.612h-.65v-1.413h3.414zm0-4.748H55.12c.016-.093.027-4.269.027-4.269 0-.889-.724-1.612-1.612-1.612h-.65V33.02h.65c.888 0 1.612-.723 1.612-1.612v-3.983c0-.889-.724-1.612-1.612-1.612h-4.63a.82.82 0 1 0 0 1.639h4.602v3.928H32.876v-3.928h10.93a.82.82 0 1 0 0-1.64H32.849c-.89 0-1.612.724-1.612 1.613v3.983c0 .889.723 1.612 1.612 1.612h.65v1.724h-.65c-.89 0-1.612.724-1.612 1.612 0 0 .01 4.176.027 4.268H3.639V13.258H56.3zm0-29.006H3.7V5.716A1.97 1.97 0 0 1 5.668 3.75H54.33a1.97 1.97 0 0 1 1.968 1.968z"/><path d="M8.044 5.256A2.41 2.41 0 0 0 5.64 7.66a2.41 2.41 0 0 0 2.405 2.405 2.41 2.41 0 0 0 2.406-2.405 2.41 2.41 0 0 0-2.406-2.405m0 3.17a.767.767 0 0 1 0-1.531.767.767 0 0 1 0 1.532M14.168 5.256a2.41 2.41 0 0 0-2.405 2.405 2.41 2.41 0 0 0 2.405 2.405 2.41 2.41 0 0 0 2.405-2.405 2.41 2.41 0 0 0-2.405-2.405m0 3.17a.767.767 0 1 1 .002-1.533.767.767 0 0 1-.002 1.534M20.291 5.256a2.41 2.41 0 0 0-2.405 2.405 2.41 2.41 0 0 0 2.405 2.405 2.41 2.41 0 0 0 2.406-2.405 2.41 2.41 0 0 0-2.406-2.405m0 3.17a.767.767 0 0 1 0-1.531.767.767 0 0 1 0 1.532"/></g><defs><clipPath id="a"><path fill="#fff" d="M2 2h56v56H2z"/></clipPath></defs></svg>