<svg width="60" height="60" viewBox="0 0 60 60" fill="none" xmlns="http://www.w3.org/2000/svg">
<path d="M43.125 1.40625H33.75C32.9733 1.40625 32.3438 2.03585 32.3438 2.8125V5.625C32.3438 6.40165 32.9733 7.03125 33.75 7.03125H43.125C43.9017 7.03125 44.5312 6.40165 44.5312 5.625V2.8125C44.5312 2.03585 43.9017 1.40625 43.125 1.40625Z" fill="#282928"/>
<path d="M15.9375 22.0312H6.5625C6.18954 22.0313 5.83185 22.1794 5.56813 22.4431C5.30441 22.7069 5.15625 23.0645 5.15625 23.4375C5.15625 23.8105 5.30441 24.1681 5.56813 24.4319C5.83185 24.6956 6.18954 24.8437 6.5625 24.8438H15.9375C16.3105 24.8437 16.6681 24.6956 16.9319 24.4319C17.1956 24.1681 17.3438 23.8105 17.3438 23.4375C17.3438 23.0645 17.1956 22.7069 16.9319 22.4431C16.6681 22.1794 16.3105 22.0313 15.9375 22.0312Z" fill="#282928"/>
<path d="M15.4688 34.6875C15.4688 34.3145 15.3206 33.9569 15.0569 33.6931C14.7931 33.4294 14.4355 33.2812 14.0625 33.2812H4.6875C4.31454 33.2812 3.95685 33.4294 3.69313 33.6931C3.42941 33.9569 3.28125 34.3145 3.28125 34.6875C3.28125 35.0605 3.42941 35.4181 3.69313 35.6819C3.95685 35.9456 4.31454 36.0938 4.6875 36.0938H14.0625C14.4355 36.0938 14.7931 35.9456 15.0569 35.6819C15.3206 35.4181 15.4688 35.0605 15.4688 34.6875Z" fill="#282928"/>
<path d="M15 38.9062H8.4375C8.06454 38.9062 7.70685 39.0544 7.44313 39.3181C7.17941 39.5819 7.03125 39.9395 7.03125 40.3125C7.03125 40.6855 7.17941 41.0431 7.44313 41.3069C7.70685 41.5706 8.06454 41.7188 8.4375 41.7188H15C15.373 41.7188 15.7306 41.5706 15.9944 41.3069C16.2581 41.0431 16.4062 40.6855 16.4062 40.3125C16.4062 39.9395 16.2581 39.5819 15.9944 39.3181C15.7306 39.0544 15.373 38.9062 15 38.9062Z" fill="#282928"/>
<path d="M15.4688 29.0625C15.4688 28.6895 15.3206 28.3319 15.0569 28.0681C14.7931 27.8044 14.4355 27.6562 14.0625 27.6562H1.875C1.50204 27.6562 1.14435 27.8044 0.880631 28.0681C0.616908 28.3319 0.46875 28.6895 0.46875 29.0625C0.46875 29.4355 0.616908 29.7931 0.880631 30.0569C1.14435 30.3206 1.50204 30.4688 1.875 30.4688H14.0625C14.4355 30.4688 14.7931 30.3206 15.0569 30.0569C15.3206 29.7931 15.4688 29.4355 15.4688 29.0625Z" fill="#282928"/>
<path d="M38.4375 31.875V15.9375C29.6495 15.9375 22.5 23.087 22.5 31.875C22.5 40.663 29.6495 47.8125 38.4375 47.8125C47.2255 47.8125 54.375 40.663 54.375 31.875H38.4375Z" fill="#282928"/>
<path d="M53.8615 17.5023L55.3693 15.9943C55.5017 15.8641 55.6069 15.709 55.679 15.538C55.7511 15.3669 55.7886 15.1833 55.7893 14.9976C55.7901 14.812 55.7541 14.628 55.6834 14.4564C55.6127 14.2848 55.5087 14.1288 55.3775 13.9975C55.2462 13.8663 55.0903 13.7623 54.9186 13.6916C54.747 13.6209 54.563 13.5849 54.3774 13.5857C54.1917 13.5864 54.0081 13.6239 53.837 13.696C53.666 13.7681 53.5109 13.8733 53.3807 14.0057L51.8113 15.5749C48.789 13.0852 45.1309 11.4898 41.25 10.9687V8.4375H35.625V10.9687C31.7441 11.4896 28.0861 13.0847 25.0637 15.5742L23.4943 14.005C23.3642 13.8726 23.209 13.7674 23.038 13.6953C22.8669 13.6232 22.6833 13.5857 22.4976 13.585C22.312 13.5842 22.1281 13.6202 21.9564 13.6909C21.7848 13.7616 21.6288 13.8656 21.4975 13.9968C21.3663 14.1281 21.2623 14.284 21.1916 14.4557C21.1209 14.6273 21.0849 14.8113 21.0857 14.9969C21.0864 15.1826 21.1239 15.3662 21.196 15.5373C21.2681 15.7083 21.3733 15.8634 21.5057 15.9936L23.0135 17.5016C19.3669 21.3989 17.3399 26.5377 17.3438 31.875C17.3438 43.5061 26.8064 52.9688 38.4375 52.9688C50.0686 52.9688 59.5313 43.5061 59.5313 31.875C59.535 26.538 57.5079 21.3994 53.8615 17.5023ZM38.4375 49.2188C35.0072 49.2188 31.654 48.2016 28.8018 46.2958C25.9497 44.39 23.7267 41.6813 22.414 38.5122C21.1013 35.343 20.7578 31.8558 21.427 28.4914C22.0962 25.127 23.7481 22.0367 26.1736 19.6111C28.5992 17.1855 31.6895 15.5337 35.0539 14.8645C38.4183 14.1953 41.9055 14.5388 45.0747 15.8515C48.2438 17.1642 50.9526 19.3872 52.8583 22.2393C54.7641 25.0915 55.7813 28.4447 55.7813 31.875C55.7813 34.1526 55.3326 36.4079 54.461 38.5122C53.5894 40.6164 52.3119 42.5284 50.7014 44.1389C49.0909 45.7494 47.1789 47.0269 45.0747 47.8985C42.9704 48.7701 40.7151 49.2188 38.4375 49.2188Z" fill="#282928"/>
</svg>
