<svg width="60" height="60" viewBox="0 0 60 60" fill="none" xmlns="http://www.w3.org/2000/svg">
<mask id="mask0_5921_2540" style="mask-type:luminance" maskUnits="userSpaceOnUse" x="9" y="9" width="43" height="42">
<path d="M51.0093 9.17188H9.17188V50.9989H51.0093V9.17188Z" fill="white"/>
</mask>
<g mask="url(#mask0_5921_2540)">
<path d="M19.5099 51H25.7076C25.8888 51.0013 26.0684 50.9667 26.2361 50.8985C26.4038 50.8303 26.5566 50.7297 26.6854 50.6025C26.8143 50.4752 26.9168 50.3238 26.9871 50.157C27.0575 49.99 27.0941 49.8109 27.0952 49.6298V49.4356C27.1576 47.7041 27.0931 45.9703 26.9021 44.2484C26.5906 42.6793 25.7326 41.2715 24.4808 40.2753C24.3825 40.2059 23.4921 39.6127 19.733 37.1186L15.9947 34.6406C15.7127 34.4564 15.3939 34.3361 15.0606 34.288C14.7272 34.2399 14.3874 34.2651 14.0648 34.362C13.9203 32.9964 13.8451 32.3026 13.5225 29.3344L13.3051 27.3409C13.2706 27.0513 13.176 26.7723 13.0275 26.5214C12.879 26.2706 12.6797 26.0535 12.4425 25.8839C12.2095 25.7156 11.9434 25.5985 11.6618 25.5402C11.3802 25.482 11.0894 25.4841 10.8087 25.5463C10.3335 25.6607 9.9119 25.9345 9.61415 26.3221C9.31641 26.7097 9.16053 27.1876 9.17252 27.6762C9.21761 33.016 9.21761 33.0854 9.2419 34.6961L9.26849 37.2944C9.26169 38.4741 9.56301 39.6352 10.1427 40.6627C10.7174 41.615 11.4742 42.4449 12.3697 43.1048L12.8322 43.4945C14.7309 45.126 16.5948 46.7217 17.891 47.8167C17.9668 47.881 18.0276 47.9611 18.0691 48.0515C18.1106 48.1418 18.132 48.24 18.1316 48.3394V49.6113C18.1302 49.7932 18.1648 49.9736 18.2335 50.1419C18.3021 50.3104 18.4034 50.4635 18.5316 50.5927C18.6597 50.7217 18.8121 50.8242 18.98 50.8941C19.1479 50.9641 19.328 51 19.5099 51ZM13.7284 42.4434L13.2577 42.0445C12.4906 41.4892 11.8403 40.7882 11.3441 39.9816C10.8811 39.1546 10.6419 38.2212 10.6503 37.2735L10.6225 34.6765C10.6029 33.0669 10.6017 32.9975 10.5531 27.6623C10.5443 27.4913 10.593 27.3224 10.6916 27.1824C10.7901 27.0423 10.9327 26.9393 11.0966 26.8899C11.1468 26.8793 11.1979 26.874 11.2492 26.8737C11.3896 26.8742 11.5263 26.9187 11.6401 27.0009C11.7205 27.0583 11.7882 27.1316 11.839 27.2165C11.8897 27.3012 11.9224 27.3956 11.9349 27.4935L12.1512 29.4812C12.5327 32.9883 12.5686 33.3167 12.7813 35.339C12.4787 35.8252 12.3677 36.4065 12.4701 36.9699C12.5725 37.5334 12.8809 38.0386 13.3352 38.3871L20.5563 43.8541C20.6272 43.9215 20.7113 43.9733 20.8035 44.0059C20.8957 44.0385 20.9937 44.0512 21.0912 44.0434C21.1886 44.0355 21.2833 44.007 21.3689 43.96C21.4546 43.9129 21.5294 43.8483 21.5884 43.7702C21.6474 43.6923 21.6892 43.6027 21.7111 43.5074C21.7331 43.4121 21.7346 43.3133 21.7156 43.2174C21.6966 43.1214 21.6577 43.0307 21.6011 42.9509C21.5447 42.8711 21.472 42.8041 21.3877 42.7544L14.1747 37.2851C13.985 37.1384 13.8597 36.9238 13.8252 36.6865C13.7907 36.4492 13.8497 36.2078 13.9897 36.0132C14.0236 35.978 14.0535 35.9393 14.0787 35.8975C14.2325 35.7542 14.4298 35.6662 14.6392 35.6475C14.8486 35.6289 15.0583 35.6806 15.235 35.7946L18.9699 38.2761C22.1185 40.3655 23.5557 41.3195 23.6425 41.3773C24.6239 42.1731 25.2974 43.2861 25.5469 44.5247C25.7088 46.1563 25.7624 47.7968 25.7076 49.4356V49.624H19.5099V48.3521C19.5107 48.0524 19.4462 47.7561 19.3208 47.4839C19.1954 47.2117 19.0121 46.9701 18.7837 46.7761C17.4875 45.6764 15.627 44.083 13.7272 42.4526L13.7284 42.4434Z" fill="#282928"/>
<path d="M49.3712 25.546C49.0905 25.484 48.7997 25.4821 48.5181 25.5405C48.2364 25.5989 47.9704 25.7163 47.7374 25.8848C47.4996 26.0553 47.2999 26.2736 47.1515 26.5257C47.0029 26.7777 46.9087 27.058 46.8748 27.3487L46.7279 28.6843C46.3429 32.2133 46.2654 32.9036 46.1128 34.3675C45.7906 34.2692 45.4508 34.2428 45.1173 34.2904C44.7838 34.3379 44.4648 34.4583 44.1829 34.6427L40.3185 37.2074C36.6658 39.6356 35.7985 40.2068 35.6771 40.2959C34.4362 41.2877 33.5865 42.6871 33.2789 44.2458C33.0851 45.9692 33.019 47.7045 33.0812 49.4376V49.6296C33.0834 49.9937 33.2296 50.3422 33.4878 50.5989C33.7461 50.8557 34.0954 50.9998 34.4595 50.9998H40.6619C41.0276 50.9998 41.3782 50.8545 41.6366 50.5961C41.8951 50.3376 42.0403 49.987 42.0403 49.6215V48.3495C42.0399 48.2503 42.0612 48.1521 42.1025 48.0618C42.1438 47.9716 42.2042 47.8914 42.2796 47.8269C43.577 46.7238 45.4398 45.1315 47.3408 43.4988L47.8033 43.1057C48.6999 42.4474 49.4578 41.6187 50.0338 40.667C50.6138 39.6392 50.9151 38.4777 50.908 37.2976L50.938 34.704C50.9577 33.0909 50.9588 33.025 51.0074 27.6817C51.0208 27.1922 50.8655 26.7129 50.5677 26.3241C50.2698 25.9353 49.8474 25.6606 49.3712 25.546ZM49.562 34.6809L49.5308 37.2744C49.5394 38.2225 49.3002 39.1564 48.837 39.9837C48.3417 40.7891 47.6926 41.4893 46.9268 42.0442L46.4539 42.4454C44.5552 44.0758 42.6936 45.6692 41.3974 46.77C41.1695 46.9637 40.9864 47.2047 40.8611 47.4763C40.7356 47.7479 40.6709 48.0435 40.6712 48.3426V49.6145H34.4688V49.4365C34.4152 47.7957 34.4717 46.1531 34.6376 44.5198C34.8838 43.2934 35.5474 42.19 36.5154 41.3978C36.6311 41.318 38.0186 40.3918 41.0852 38.3602L44.9414 35.7921C45.0905 35.693 45.2655 35.6402 45.4444 35.6406C45.6944 35.6408 45.9342 35.7397 46.1116 35.9158C46.1355 35.9513 46.1626 35.9846 46.1926 36.0152C46.3327 36.2097 46.3919 36.451 46.3576 36.6883C46.3233 36.9256 46.1982 37.1403 46.0087 37.2872L38.7853 42.753C38.7011 42.8027 38.6284 42.8697 38.5719 42.9495C38.5154 43.0293 38.4764 43.12 38.4575 43.216C38.4385 43.3119 38.44 43.4107 38.462 43.506C38.4838 43.6013 38.5257 43.6909 38.5846 43.7688C38.6436 43.8469 38.7183 43.9115 38.8041 43.9586C38.8898 44.0056 38.9844 44.0341 39.0819 44.0419C39.1793 44.0498 39.2774 44.0371 39.3695 44.0045C39.4617 43.9719 39.5459 43.9201 39.6167 43.8527L46.8412 38.3833C47.2964 38.0362 47.6057 37.5317 47.7085 36.9687C47.8114 36.4056 47.7005 35.8244 47.3974 35.3388C47.6287 33.2019 47.6507 32.9568 48.0993 28.8323L48.2438 27.5025C48.2557 27.4037 48.2881 27.3084 48.3389 27.2228C48.3896 27.1372 48.4578 27.0631 48.5387 27.0053C48.6156 26.948 48.704 26.9079 48.7978 26.8879C48.8916 26.8681 48.9886 26.8686 49.0822 26.8897C49.2464 26.9389 49.3893 27.0417 49.4879 27.1818C49.5867 27.3218 49.6356 27.491 49.6268 27.6621C49.5817 33.0007 49.5805 33.0667 49.5609 34.6785L49.562 34.6809Z" fill="#282928"/>
<path d="M44.7971 23.6451C44.7378 19.7826 43.1619 16.0984 40.4094 13.3879C37.6571 10.6774 33.949 9.1582 30.086 9.1582C26.2232 9.1582 22.5151 10.6774 19.7627 13.3879C17.0103 16.0984 15.4343 19.7826 15.375 23.6451C15.4343 27.5076 17.0103 31.1918 19.7627 33.9023C22.5151 36.6127 26.2232 38.132 30.086 38.132C33.949 38.132 37.6571 36.6127 40.4094 33.9023C43.1619 31.1918 44.7378 27.5076 44.7971 23.6451ZM16.7764 23.6451C16.8328 20.1524 18.2599 16.8218 20.7498 14.3718C23.2397 11.9217 26.5929 10.5486 30.086 10.5486C33.5792 10.5486 36.9324 11.9217 39.4224 14.3718C41.9123 16.8218 43.3394 20.1524 43.3957 23.6451C43.3394 27.1378 41.9123 30.4685 39.4224 32.9184C36.9324 35.3685 33.5792 36.7416 30.086 36.7416C26.5929 36.7416 23.2397 35.3685 20.7498 32.9184C18.2599 30.4685 16.8328 27.1378 16.7764 23.6451Z" fill="#282928"/>
<path d="M32.9075 31.9152V27.0911C32.9075 26.999 32.9259 26.9078 32.9614 26.8229C32.997 26.7379 33.0491 26.6609 33.1148 26.5964C33.1805 26.5318 33.2583 26.4809 33.3438 26.4468C33.4293 26.4126 33.5208 26.3958 33.6128 26.3973H38.5479C39.1025 26.4034 39.6368 26.1892 40.0334 25.8014C40.4301 25.4137 40.6565 24.8844 40.6628 24.3298V22.9561C40.6565 22.4016 40.4301 21.8722 40.0334 21.4845C39.6368 21.0968 39.1025 20.8825 38.5479 20.8887H33.6128C33.5208 20.8902 33.4293 20.8734 33.3438 20.8392C33.2583 20.8051 33.1805 20.7542 33.1148 20.6896C33.0491 20.625 32.997 20.548 32.9614 20.4631C32.9259 20.3781 32.9075 20.287 32.9075 20.1949V15.3742C32.9011 14.8197 32.6747 14.2903 32.2781 13.9026C31.8815 13.5149 31.3472 13.3006 30.7926 13.3068H29.3819C28.8273 13.3006 28.293 13.5149 27.8964 13.9026C27.4998 14.2903 27.2735 14.8197 27.267 15.3742V20.1983C27.267 20.2904 27.2488 20.3816 27.2131 20.4665C27.1775 20.5515 27.1254 20.6285 27.0598 20.6931C26.9941 20.7576 26.9163 20.8085 26.8308 20.8426C26.7452 20.8769 26.6537 20.8936 26.5617 20.8921H21.6266C21.0726 20.886 20.5388 21.0998 20.1423 21.4868C19.7458 21.8737 19.519 22.4021 19.5117 22.9561V24.3344C19.5181 24.889 19.7445 25.4184 20.1411 25.8061C20.5377 26.1938 21.072 26.408 21.6266 26.4019H26.5652C26.6572 26.4004 26.7487 26.4172 26.8342 26.4514C26.9198 26.4855 26.9976 26.5364 27.0633 26.601C27.1289 26.6656 27.181 26.7426 27.2166 26.8276C27.2522 26.9124 27.2705 27.0037 27.2705 27.0957V31.9198C27.277 32.4744 27.5033 33.0037 27.8999 33.3914C28.2965 33.7791 28.8308 33.9934 29.3854 33.9873H30.7949C31.0698 33.9901 31.3424 33.9386 31.5973 33.8359C31.8522 33.7332 32.0844 33.5814 32.2805 33.389C32.4768 33.1965 32.6331 32.9673 32.7406 32.7144C32.8483 32.4615 32.9049 32.1899 32.9075 31.9152ZM28.6777 31.9152V27.0911C28.6714 26.5369 28.4453 26.008 28.0492 25.6203C27.6531 25.2327 27.1194 25.0181 26.5652 25.0236H21.6266C21.5345 25.0251 21.4431 25.0083 21.3575 24.9741C21.2721 24.94 21.1942 24.8891 21.1286 24.8245C21.0629 24.76 21.0107 24.683 20.9751 24.598C20.9396 24.5131 20.9212 24.4219 20.9212 24.3298V22.9561C20.9212 22.8641 20.9396 22.7729 20.9751 22.688C21.0107 22.603 21.0629 22.526 21.1286 22.4615C21.1942 22.3968 21.2721 22.3459 21.3575 22.3118C21.4431 22.2776 21.5345 22.2608 21.6266 22.2623H26.5652C27.1197 22.2685 27.654 22.0542 28.0507 21.6665C28.4473 21.2788 28.6737 20.7494 28.68 20.1949V15.3742C28.68 15.2822 28.6984 15.191 28.7339 15.106C28.7695 15.0211 28.8217 14.9441 28.8874 14.8795C28.953 14.815 29.0309 14.7641 29.1163 14.7299C29.2019 14.6957 29.2933 14.6789 29.3854 14.6805H30.7949C30.887 14.6789 30.9784 14.6957 31.064 14.7299C31.1496 14.7641 31.2274 14.815 31.2931 14.8795C31.3586 14.9441 31.4108 15.0211 31.4464 15.106C31.482 15.191 31.5003 15.2822 31.5003 15.3742V20.1983C31.501 20.471 31.5561 20.7408 31.6625 20.9918C31.769 21.2427 31.9245 21.4699 32.12 21.6599C32.5204 22.0491 33.0569 22.2666 33.6151 22.2658H38.5502C38.6423 22.2643 38.7338 22.2811 38.8193 22.3153C38.9049 22.3494 38.9827 22.4003 39.0484 22.4649C39.1139 22.5295 39.1661 22.6065 39.2017 22.6915C39.2373 22.7763 39.2556 22.8676 39.2556 22.9596V24.3379C39.2556 24.43 39.2373 24.5212 39.2017 24.6061C39.1661 24.6911 39.1139 24.7681 39.0484 24.8326C38.9827 24.8972 38.9049 24.9481 38.8193 24.9822C38.7338 25.0164 38.6423 25.0332 38.5502 25.0317H33.6128C33.0583 25.0256 32.5239 25.2398 32.1273 25.6275C31.7307 26.0153 31.5044 26.5446 31.4979 27.0992V31.9233C31.4979 32.0153 31.4797 32.1065 31.4441 32.1914C31.4084 32.2764 31.3563 32.3534 31.2907 32.4179C31.2251 32.4826 31.1472 32.5335 31.0617 32.5676C30.9761 32.6018 30.8846 32.6186 30.7926 32.6171H29.3819C29.2893 32.6184 29.1972 32.6012 29.1113 32.5665C29.0254 32.5317 28.9474 32.4801 28.8817 32.4147C28.816 32.3493 28.7642 32.2714 28.7292 32.1856C28.6941 32.0998 28.6767 32.0078 28.6777 31.9152Z" fill="#282928"/>
</g>
</svg>
