<svg xmlns="http://www.w3.org/2000/svg" width="60" height="60"><defs><clipPath id="a"><path d="M0 0h60v60H0z"/></clipPath></defs><g clip-path="url(#a)"><path d="M43.5 19.336h8.559a4.395 4.395 0 1 0 0-5.273H43.5a4.4 4.4 0 0 0-.935-.919v-3.028l3.143-3.143h6.309a4.395 4.395 0 1 0 .092-5.273h-7.49a2.62 2.62 0 0 0-1.864.772l-4.688 4.687a2.62 2.62 0 0 0-.772 1.864v4.209a4.45 4.45 0 0 0-1.519 4.709L32.4 22.472a7.91 7.91 0 1 0-.039 15.069l3.412 4.536a4.38 4.38 0 0 0 1.525 4.691v4.209a2.62 2.62 0 0 0 .772 1.864l4.688 4.688a2.62 2.62 0 0 0 1.864.772h7.49a4.394 4.394 0 1 0-.089-5.273h-6.312l-3.143-3.143v-3.029a4.4 4.4 0 0 0 .935-.919h8.559a4.395 4.395 0 1 0 0-5.273H43.5a4.39 4.39 0 0 0-3.513-1.758h-.006l-3.419-4.545a8 8 0 0 0 .862-1.725h14.639a4.395 4.395 0 1 0 0-5.273h-5.1a.879.879 0 0 0 0 1.758h4.307a4.6 4.6 0 0 0 0 1.758H37.831a8 8 0 0 0 0-1.758h4.913a.879.879 0 1 0 0-1.758h-5.317a8 8 0 0 0-.84-1.69L40 21.094a4.39 4.39 0 0 0 3.5-1.758m12.073-5.273a2.637 2.637 0 1 1-2.634 2.637 2.64 2.64 0 0 1 2.637-2.637ZM44.3 15.82h6.97a4.6 4.6 0 0 0 0 1.758H44.3a4.4 4.4 0 0 0 0-1.758M55.576 1.758a2.637 2.637 0 1 1-2.637 2.637 2.64 2.64 0 0 1 2.637-2.637m0 51.211a2.637 2.637 0 1 1-2.637 2.637 2.64 2.64 0 0 1 2.637-2.637m0-12.3a2.637 2.637 0 1 1-2.637 2.631 2.64 2.64 0 0 1 2.637-2.636ZM44.3 42.422h6.97a4.6 4.6 0 0 0 0 1.758H44.3a4.6 4.6 0 0 0 0-1.758m11.28-15.059A2.637 2.637 0 1 1 52.939 30a2.64 2.64 0 0 1 2.637-2.637ZM39.053 9.023a.87.87 0 0 1 .257-.623L44 3.714a.87.87 0 0 1 .621-.257h6.664a4.4 4.4 0 0 0-.024 1.758h-5.914a.88.88 0 0 0-.621.257L41.068 9.13a.88.88 0 0 0-.257.621v2.631a4.5 4.5 0 0 0-1.758.024Zm-9.082 27.129A6.152 6.152 0 1 1 36.123 30a6.16 6.16 0 0 1-6.152 6.152m14.755 18.376a.88.88 0 0 0 .621.257h5.913a4.5 4.5 0 0 0 .024 1.758h-6.665a.87.87 0 0 1-.619-.258L39.31 51.6a.87.87 0 0 1-.257-.621v-3.385a4.6 4.6 0 0 0 1.758.024v2.631a.88.88 0 0 0 .257.621ZM39.99 40.664a2.637 2.637 0 1 1-2.636 2.636 2.64 2.64 0 0 1 2.636-2.636m-1.89-1.332a4.4 4.4 0 0 0-1.4 1.059L34 36.8a8 8 0 0 0 1.4-1.061Zm-2.669-15.047a8 8 0 0 0-1.4-1.068l2.679-3.593a4.4 4.4 0 0 0 1.408 1.052Zm1.923-7.585a2.637 2.637 0 1 1 2.637 2.637 2.64 2.64 0 0 1-2.637-2.637"/><path d="M27.861 58.242h-1.15a1.48 1.48 0 0 1-1.476-1.477v-2.536a3.23 3.23 0 0 0-2.216-3.069 22 22 0 0 1-2.989-1.239 3.23 3.23 0 0 0-3.741.6l-1.8 1.8a1.477 1.477 0 0 1-2.089 0l-4.687-4.696a1.48 1.48 0 0 1 0-2.089l1.8-1.8a3.23 3.23 0 0 0 .6-3.741 22 22 0 0 1-1.243-2.984 3.23 3.23 0 0 0-3.07-2.217H3.264a1.48 1.48 0 0 1-1.477-1.477v-6.635a1.48 1.48 0 0 1 1.477-1.476H5.8a3.23 3.23 0 0 0 3.07-2.216A22 22 0 0 1 10.108 20a3.23 3.23 0 0 0-.6-3.741l-1.8-1.795a1.48 1.48 0 0 1 0-2.089L12.4 7.684a1.48 1.48 0 0 1 2.089 0l1.8 1.8a3.23 3.23 0 0 0 3.741.6 22 22 0 0 1 2.989-1.239 3.23 3.23 0 0 0 2.217-3.069V3.234a1.48 1.48 0 0 1 1.476-1.477h6.518a1.484 1.484 0 0 1 1.46 1.256.3.3 0 0 1-.018.145l-.891 2.3a.879.879 0 0 0 1.639.642l.891-2.3a2.05 2.05 0 0 0 .117-1.038A3.25 3.25 0 0 0 33.23 0h-6.518a3.24 3.24 0 0 0-3.234 3.234v2.537a1.47 1.47 0 0 1-1.011 1.4 24 24 0 0 0-3.227 1.338 1.47 1.47 0 0 1-1.708-.272l-1.8-1.8a3.24 3.24 0 0 0-4.574 0l-4.689 4.696a3.24 3.24 0 0 0 0 4.574l1.8 1.8a1.47 1.47 0 0 1 .272 1.708A24 24 0 0 0 7.2 22.437a1.47 1.47 0 0 1-1.4 1.011H3.264a3.24 3.24 0 0 0-3.235 3.234v6.635a3.24 3.24 0 0 0 3.234 3.234H5.8a1.47 1.47 0 0 1 1.4 1.011 24 24 0 0 0 1.338 3.228 1.47 1.47 0 0 1-.272 1.71l-1.8 1.8a3.24 3.24 0 0 0 0 4.574l4.692 4.691a3.24 3.24 0 0 0 4.575 0l1.8-1.8a1.47 1.47 0 0 1 1.708-.272 24 24 0 0 0 3.227 1.337 1.47 1.47 0 0 1 1.011 1.4v2.537A3.24 3.24 0 0 0 26.712 60h1.15a.879.879 0 1 0 0-1.758Z"/><path d="M31.07 42.54a2.05 2.05 0 0 0-1.788-1.311 11.309 11.309 0 0 1 0-22.576 2.05 2.05 0 0 0 1.786-1.306l2.87-7.422a.879.879 0 0 0-1.638-.634l-.937 2.422c-.462-.035-.93-.053-1.393-.053A18.36 18.36 0 0 0 11.631 30a18.16 18.16 0 0 0 3.894 11.3.879.879 0 1 0 1.384-1.084A16.4 16.4 0 0 1 13.389 30a16.6 16.6 0 0 1 16.582-16.583q.363 0 .728.016l-1.268 3.279a.29.29 0 0 1-.252.186 13.067 13.067 0 0 0 0 26.085.29.29 0 0 1 .252.186l1.3 3.394a16.57 16.57 0 0 1-11.069-3.576.879.879 0 0 0-1.094 1.376 18.27 18.27 0 0 0 12.824 3.921l3.282 8.555a.3.3 0 0 1 .018.145 1.484 1.484 0 0 1-1.46 1.257h-1.269a.879.879 0 1 0 0 1.758h1.267a3.25 3.25 0 0 0 3.2-2.757 2.05 2.05 0 0 0-.115-1.032Z"/></g></svg>