<svg xmlns="http://www.w3.org/2000/svg" width="60" height="60" fill="none"><path fill="#282928" d="m26.995 31.425-.005-.012-2.29-5.85a.94.94 0 0 0-1.747 0l-2.281 5.828q-.014.033-.027.068l-.897 2.293a.937.937 0 0 0 1.746.683l.672-1.715h3.321l.671 1.715a.938.938 0 0 0 1.747-.683zm-4.096-.58.928-2.368.927 2.368zM33.068 24.969h-2.211a.937.937 0 0 0-.938.937v8.19a.937.937 0 1 0 1.875 0v-2.728h1.274a3.2 3.2 0 0 0 3.192-3.206 3.19 3.19 0 0 0-3.192-3.192zm0 4.523h-1.274v-2.65h1.274c.725 0 1.317.591 1.317 1.318 0 .734-.592 1.332-1.317 1.332M37.948 25.904v8.19a.937.937 0 1 0 1.875 0v-8.19a.937.937 0 1 0-1.875 0"/><path fill="#282928" d="m57.316 24.728-6.106-.845a22 22 0 0 0-1.885-4.557l3.718-4.914a.94.94 0 0 0-.085-1.229l-6.142-6.141a.94.94 0 0 0-1.23-.085l-4.913 3.72a22 22 0 0 0-4.556-1.887l-.846-6.106a.94.94 0 0 0-.928-.809h-8.686a.94.94 0 0 0-.928.81l-.846 6.105a22 22 0 0 0-4.556 1.886l-4.914-3.719a.94.94 0 0 0-1.229.085l-6.141 6.141a.94.94 0 0 0-.086 1.23l3.718 4.913a22 22 0 0 0-1.886 4.557l-6.105.845a.94.94 0 0 0-.809.929v8.686c0 .468.345.864.81.929l6.104.844a22 22 0 0 0 1.886 4.557l-3.718 4.914a.94.94 0 0 0 .086 1.229l6.141 6.142a.94.94 0 0 0 1.23.084l4.914-3.72a22 22 0 0 0 4.555 1.887l.846 6.106c.064.464.46.81.928.81h8.686a.94.94 0 0 0 .928-.81l.846-6.106a22 22 0 0 0 4.556-1.886l4.914 3.719a.94.94 0 0 0 1.229-.084l6.142-6.142a.94.94 0 0 0 .085-1.23l-3.718-4.913a22 22 0 0 0 1.885-4.557l6.106-.844a.94.94 0 0 0 .809-.93v-8.685a.94.94 0 0 0-.81-.93m-1.066 8.797-5.91.818a.94.94 0 0 0-.78.696 20 20 0 0 1-2.164 5.23.94.94 0 0 0 .058 1.043l3.6 4.756-4.986 4.986-4.757-3.599a.94.94 0 0 0-1.044-.059 20 20 0 0 1-5.227 2.165.94.94 0 0 0-.695.779l-.82 5.91h-7.05l-.82-5.91a.94.94 0 0 0-.694-.78 20 20 0 0 1-5.228-2.164.93.93 0 0 0-1.043.06l-4.757 3.598-4.985-4.986 3.599-4.756a.94.94 0 0 0 .058-1.044 20.1 20.1 0 0 1-2.165-5.229.94.94 0 0 0-.78-.696l-5.91-.818v-7.052l5.91-.818a.94.94 0 0 0 .78-.696 20 20 0 0 1 2.165-5.23.94.94 0 0 0-.058-1.043l-3.6-4.756 4.986-4.986 4.756 3.599a.94.94 0 0 0 1.043.059 20.1 20.1 0 0 1 5.229-2.166.935.935 0 0 0 .695-.779l.819-5.91h7.05l.82 5.91a.94.94 0 0 0 .695.78 20.1 20.1 0 0 1 5.227 2.164.94.94 0 0 0 1.044-.06l4.757-3.598 4.985 4.986-3.599 4.756a.94.94 0 0 0-.058 1.044 20.1 20.1 0 0 1 2.164 5.23.94.94 0 0 0 .78.695l5.91.818z"/><path fill="#282928" d="M30 14.791c-8.386 0-15.209 6.822-15.209 15.208s6.822 15.208 15.21 15.208c8.386 0 15.208-6.822 15.208-15.208S38.387 14.791 30 14.791m0 28.541c-7.353 0-13.334-5.981-13.334-13.333S22.647 16.666 30 16.666s13.334 5.981 13.334 13.333S37.353 43.332 30 43.332"/></svg>