<svg xmlns="http://www.w3.org/2000/svg" width="56" height="56.027"><path d="M39.5 23.521 29 29.822v10.16l10.5-6.3ZM16.5 33.681l10.5 6.3V29.822l-10.5-6.3ZM38.561 21.752 28 15.422l-10.56 6.33L28 28.082ZM27 8.09V12a1 1 0 0 0 2 0V8.09a4.107 4.107 0 1 0-2 0M13.98 15.39l2 2.01a1.004 1.004 0 1 0 1.42-1.42l-2.01-2c3.387-5.151-3.49-10.827-7.92-6.51-4.309 4.447 1.34 11.279 6.51 7.92M8.09 29H12a1 1 0 0 0 0-2H8.09a4.107 4.107 0 1 0 0 2M42.02 40.609l-2-2.01a1.004 1.004 0 0 0-1.42 1.42l2.01 2a5.1 5.1 0 0 0-.88 2.87 5.18 5.18 0 0 0 8.8 3.64c4.314-4.457-1.349-11.275-6.51-7.92M47.91 27H44a1 1 0 0 0 0 2h3.91a4.107 4.107 0 1 0 0-2M15.98 38.6l-2 2.01c-5.162-3.355-10.822 3.461-6.51 7.92 4.418 4.321 11.312-1.358 7.92-6.51l2.01-2a1.004 1.004 0 0 0-1.42-1.42M29 47.91V44a1 1 0 0 0-2 0v3.91a4.12 4.12 0 1 0 2 0M40.02 17.4l2-2.01a5.151 5.151 0 1 0-2.29-4.28 5.1 5.1 0 0 0 .88 2.87l-2.01 2a1.004 1.004 0 1 0 1.42 1.42"/></svg>