<svg xmlns="http://www.w3.org/2000/svg" width="60" height="60"><defs><clipPath id="a"><path d="M0 0h60v60H0z"/></clipPath></defs><g clip-path="url(#a)"><path fill-rule="evenodd" d="M34.138 51.724h-1.91a7.356 7.356 0 1 1 0-14.712q.14-.001.279.005-.04-.428-.04-.868a9.311 9.311 0 0 1 18.614-.349 7.992 7.992 0 1 1 .882 15.929H50.69v7.241A1.035 1.035 0 0 1 49.655 60H35.172a1.035 1.035 0 0 1-1.035-1.035Zm16.552-2.069h1.273a5.92 5.92 0 1 0 0-11.839 6 6 0 0 0-1.673.235 1.034 1.034 0 0 1-1.316-1.107 7.238 7.238 0 1 0-14.438-.8 7.1 7.1 0 0 0 .234 1.821 1.034 1.034 0 0 1-1.249 1.267 5.4 5.4 0 0 0-1.293-.156 5.287 5.287 0 1 0 0 10.575h1.91v-7.237a1.035 1.035 0 0 1 1.035-1.035h6.207a1.035 1.035 0 0 1 0 2.069h-5.173v6.207h12.414v-6.206h-3.1a1.035 1.035 0 0 1 0-2.069h4.138a1.035 1.035 0 0 1 1.035 1.035Zm-14.483 2.069v6.207h12.414v-6.207Zm4.138 4.138a1.034 1.034 0 1 1 0-2.069h4.138a1.034 1.034 0 0 1 0 2.069Zm0-8.276a1.035 1.035 0 0 1 0-2.069h4.138a1.035 1.035 0 0 1 0 2.069ZM9.31 30H7.4a7.356 7.356 0 1 1 0-14.712q.14-.001.279.005-.04-.428-.04-.868a9.311 9.311 0 0 1 18.618-.225 1.035 1.035 0 0 1-.184 1.986q-.31.056-.61.142a1.034 1.034 0 0 1-1.316-1.107 7.241 7.241 0 1 0-14.2 1.025 1.034 1.034 0 0 1-1.249 1.267 5.4 5.4 0 0 0-1.298-.156 5.287 5.287 0 1 0 0 10.574h1.91V20.69a1.035 1.035 0 0 1 1.034-1.034h14.484a1.035 1.035 0 0 1 1.035 1.034v7.241h1.273a5.913 5.913 0 0 0 2.438-11.323 1.035 1.035 0 0 1 .842-1.89A7.982 7.982 0 0 1 27.135 30h-1.273v7.241a1.035 1.035 0 0 1-1.035 1.034H10.345a1.035 1.035 0 0 1-1.035-1.033Zm14.483-2.069v-6.207H11.379v6.207ZM11.379 30v6.207h12.414V30Zm4.138 4.138a1.035 1.035 0 0 1 0-2.069h4.138a1.035 1.035 0 1 1 0 2.069Zm0-8.276a1.034 1.034 0 0 1 0-2.069h4.138a1.034 1.034 0 1 1 0 2.069Zm44.006-2.086-6.807 4.354a1.033 1.033 0 0 1-1.515-.48l-3.055-7.48a1.034 1.034 0 0 1 1.27-1.377l1.6.507A12.416 12.416 0 0 0 30.645 9.111a1.035 1.035 0 0 1-1.426-.1l-2.8-3.052a1.034 1.034 0 0 1 .091-1.486 18.622 18.622 0 0 1 30.55 16.743l2.218.7a1.034 1.034 0 0 1 .245 1.857Zm-2.975-.552-.968-.307a1.034 1.034 0 0 1-.7-1.181A16.551 16.551 0 0 0 28.692 5.382L30.1 6.915a14.485 14.485 0 0 1 22.835 13.912 1.035 1.035 0 0 1-1.336.828l-.7-.222 1.749 4.286Z"/></g></svg>