<svg xmlns="http://www.w3.org/2000/svg" width="56" height="56"><path fill-rule="evenodd" d="M31.551.826a8.05 8.05 0 0 0-7.1 0L2.171 11.794a3.872 3.872 0 0 0 0 6.957l22.278 10.968a8.05 8.05 0 0 0 7.1 0l22.28-10.968a3.872 3.872 0 0 0 0-6.957ZM2.3 24.458a1.27 1.27 0 0 1 1.124 0L24.449 34.81a8.05 8.05 0 0 0 7.1 0l21.028-10.352a1.27 1.27 0 0 1 1.124 0l.128.063a3.872 3.872 0 0 1 0 6.957L31.551 42.447a8.05 8.05 0 0 1-7.1 0L2.171 31.478a3.872 3.872 0 0 1 0-6.957Zm1.123 12.728a1.27 1.27 0 0 0-1.124 0l-.128.063a3.872 3.872 0 0 0 0 6.957l22.278 10.968a8.05 8.05 0 0 0 7.1 0l22.28-10.968a3.872 3.872 0 0 0 0-6.957l-.128-.063a1.27 1.27 0 0 0-1.124 0L31.551 47.538a8.05 8.05 0 0 1-7.1 0Z"/></svg>