<svg width="60" height="60" viewBox="0 0 60 60" fill="none" xmlns="http://www.w3.org/2000/svg">
<g clip-path="url(#clip0_1812_600)">
<path d="M36.3587 5.15129C36.4562 5.04737 36.4284 4.92308 36.4123 4.87487C36.3844 4.79023 36.3351 4.74202 36.2655 4.72916L32.6302 4.09918C32.2949 4.04025 32.0067 3.82597 31.8535 3.52062L30.1564 0.112497C30.1424 0.0846406 30.0996 0 30 0C29.9003 0 29.8564 0.0857119 29.8435 0.113568L28.1464 3.52062C27.9932 3.82597 27.7061 4.04025 27.3697 4.09918L23.7355 4.72916C23.6658 4.74202 23.6165 4.79023 23.5876 4.87487C23.5705 4.92308 23.5437 5.04737 23.6412 5.15129L26.2254 7.88765C26.4504 8.1255 26.5543 8.45227 26.5072 8.77584L25.9586 12.5729C25.9372 12.725 26.0197 12.8 26.0551 12.8257C26.1279 12.8761 26.1804 12.8514 26.2104 12.8375L29.505 11.1201C29.8146 10.9594 30.1853 10.9594 30.4949 11.1201L33.7895 12.8375C33.8174 12.8525 33.8688 12.8761 33.9448 12.8257C33.9802 12.8 34.0616 12.7239 34.0413 12.5729L33.4927 8.77584C33.4456 8.45227 33.5495 8.1255 33.7745 7.88765L36.3587 5.15129Z" fill="#282928"/>
<path d="M6.76941 21.396C6.84334 21.4464 6.89477 21.4228 6.92477 21.4078L10.2193 19.6904C10.529 19.5297 10.8997 19.5297 11.2093 19.6904L14.5038 21.4078C14.5317 21.4239 14.5831 21.4464 14.6592 21.396C14.6946 21.3703 14.776 21.2943 14.7556 21.1432L14.2071 17.3462C14.1599 17.0226 14.2639 16.6958 14.4888 16.458L17.0731 13.7216C17.1706 13.6177 17.1427 13.4934 17.1266 13.4452C17.0988 13.3605 17.0495 13.3123 16.9799 13.2995L13.3446 12.6695C13.0092 12.6106 12.721 12.3963 12.5678 12.0909L10.8707 8.68281C10.8568 8.65495 10.8139 8.57031 10.7143 8.57031C10.6147 8.57031 10.5707 8.65602 10.5579 8.68388L8.86079 12.0909C8.70758 12.3963 8.42044 12.6106 8.08402 12.6695L4.44983 13.2995C4.38019 13.3123 4.33091 13.3605 4.30198 13.4452C4.28484 13.4934 4.25805 13.6177 4.35555 13.7216L6.93976 16.458C7.16476 16.6958 7.26868 17.0226 7.22154 17.3462L6.67299 21.1432C6.65156 21.2953 6.73406 21.3703 6.76941 21.396Z" fill="#282928"/>
<path d="M55.6444 13.7236C55.7419 13.6196 55.714 13.4953 55.6979 13.4471C55.6701 13.3625 55.6208 13.3143 55.5511 13.3014L51.9159 12.6714C51.5805 12.6125 51.2923 12.3982 51.1391 12.0929L49.442 8.68476C49.4281 8.65691 49.3852 8.57227 49.2856 8.57227C49.186 8.57227 49.142 8.65798 49.1292 8.68583L47.4321 12.0929C47.2789 12.3982 46.9917 12.6125 46.6553 12.6714L43.0211 13.3014C42.9515 13.3143 42.9022 13.3625 42.8733 13.4471C42.8561 13.4953 42.8293 13.6196 42.9268 13.7236L45.5111 16.4599C45.7361 16.6978 45.84 17.0245 45.7928 17.3481L45.2443 21.1451C45.2228 21.2973 45.3053 21.3723 45.3407 21.398C45.4136 21.4484 45.4671 21.4248 45.4961 21.4098L48.7906 19.6923C49.1002 19.5316 49.471 19.5316 49.7806 19.6923L53.0751 21.4098C53.103 21.4259 53.1544 21.4484 53.2305 21.398C53.2658 21.3723 53.3473 21.2962 53.3269 21.1451L52.7784 17.3481C52.7312 17.0245 52.8351 16.6978 53.0601 16.4599L55.6444 13.7236Z" fill="#282928"/>
<path d="M29.9998 60.0007C31.775 60.0007 33.214 58.5616 33.214 56.7865C33.214 55.0113 31.775 53.5723 29.9998 53.5723C28.2247 53.5723 26.7856 55.0113 26.7856 56.7865C26.7856 58.5616 28.2247 60.0007 29.9998 60.0007Z" fill="#282928"/>
<path d="M33.748 52.968C34.6502 53.853 35.2191 55.0583 35.3176 56.3943C40.5086 53.5026 47.6313 49.2685 52.774 46.1914C44.3174 49.0938 38.0604 51.3234 33.748 52.968Z" fill="#282928"/>
<path d="M28.9282 38.6258V25.7422C21.4648 26.0058 14.6882 29.0057 9.57227 33.7723L18.677 42.8771C21.4487 40.43 25.009 38.8701 28.9282 38.6258Z" fill="#282928"/>
<path d="M12.8568 55.7125C12.8568 51.3712 14.4918 47.4134 17.1617 44.3899L8.05693 35.2852C3.06313 40.6454 0 47.8259 0 55.7125H12.8568Z" fill="#282928"/>
<path d="M31.0713 25.7422V38.6086C34.9144 38.8486 38.5089 40.3754 41.3321 42.8674L50.4272 33.7723C45.3113 29.0067 38.5357 26.0068 31.0713 25.7422Z" fill="#282928"/>
<path d="M42.8452 44.3826C43.4913 45.1154 44.0795 45.9061 44.6002 46.7536C46.878 45.9544 49.3658 45.0919 52.0882 44.1565C53.151 43.7901 54.2535 44.2637 54.7249 45.2697C55.1974 46.2822 54.8428 47.4404 53.8796 48.0243C51.7603 49.2928 49.3036 50.7574 46.7848 52.2435C47.0183 53.377 47.1437 54.5384 47.1437 55.7105H60.0005C60.0005 47.8239 56.9373 40.6434 51.9435 35.2832L42.8463 44.3805L42.8452 44.3826Z" fill="#282928"/>
</g>
<defs>
<clipPath id="clip0_1812_600">
<rect width="60" height="60" fill="white"/>
</clipPath>
</defs>
</svg>
