<svg width="60" height="60" viewBox="0 0 60 60" fill="none" xmlns="http://www.w3.org/2000/svg">
<path d="M21.6151 33.9635L23.1802 35.5263L30.1942 35.5219L31.7526 33.9635C32.1671 33.549 32.7297 33.3158 33.3155 33.3158V20.0526C33.3155 17.6144 35.2983 15.6316 37.7365 15.6316H48.7891V14.5263V11.2105C48.7891 10.6247 48.557 10.0611 48.137 9.65211C47.7281 9.23211 47.1644 9 46.5786 9H6.78914C6.20335 9 5.63967 9.23211 5.23072 9.65211C4.81072 10.0611 4.57861 10.6247 4.57861 11.2105V33.3158H20.0523C20.6381 33.3158 21.2007 33.549 21.6151 33.9635ZM14.8498 12.6396L16.4127 14.2025L14.2021 16.413L12.6393 14.8502L14.8498 12.6396ZM10.4288 17.0607L11.9916 18.6235L9.78109 20.8341L8.21824 19.2712L10.4288 17.0607ZM9.32351 24.7975L19.2709 14.8502L20.8337 16.413L10.8863 26.3604L9.32351 24.7975Z" fill="#282928"/>
<path d="M5.63982 41.0517H33.3156V35.5254L31.7572 37.0838C31.3372 37.5038 30.7735 37.7359 30.1877 37.7359H23.1803C22.5946 37.7359 22.0309 37.5038 21.6109 37.0838L20.0525 35.5254H4.57877H0.157715L3.91561 40.2228C4.33561 40.7422 4.96561 41.0517 5.63982 41.0517Z" fill="#282928"/>
<path d="M37.7369 17.8418C36.5211 17.8418 35.5264 18.8365 35.5264 20.0523V33.3155V35.526V41.0523V43.2628V44.3681C35.5264 45.5839 36.5211 46.5786 37.7369 46.5786H46.579V44.3681H44.3685V42.1576H46.579V35.526C46.579 33.0878 48.5618 31.105 51.0001 31.105H55.4211V29.9997V20.0523C55.4211 18.8365 54.4264 17.8418 53.2106 17.8418H48.7895H37.7369Z" fill="#282928"/>
<path d="M50.9996 33.3164C49.7838 33.3164 48.7891 34.3111 48.7891 35.5269V46.5796V48.7901C48.7891 50.0059 49.7838 51.0006 50.9996 51.0006H57.6312C58.847 51.0006 59.8417 50.0059 59.8417 48.7901V35.5269C59.8417 34.3111 58.847 33.3164 57.6312 33.3164H55.4206H50.9996ZM55.4206 48.7901H53.2101V46.5796H55.4206V48.7901Z" fill="#282928"/>
</svg>
