<svg xmlns="http://www.w3.org/2000/svg" width="60" height="60"><defs><clipPath id="a"><path d="M0 0h60v60H0z"/></clipPath></defs><g clip-path="url(#a)"><path d="M55.186 4.365h-7.669a.879.879 0 0 0 0 1.758h7.669a.879.879 0 0 0 0-1.758M43.162 6.123h.938a.879.879 0 0 0 0-1.758h-.935a.879.879 0 0 0 0 1.758ZM43.162 10.252h12.024a.879.879 0 0 0 0-1.758H43.162a.879.879 0 0 0 0 1.758M46.341 52.044a16.05 16.05 0 0 0-3.307-9.738l.163-3a3.574 3.574 0 0 0-3.572-3.771H30a1.68 1.68 0 0 1-.711-1.369v-2.455a9.96 9.96 0 0 0 3.311-3.374h1.7a3.57 3.57 0 0 0 3.569-3.568V18.2a2.83 2.83 0 0 0-1.6-2.549V11.05a3.81 3.81 0 0 0-3.8-3.8h-.1a.11.11 0 0 1-.109-.109 3.81 3.81 0 0 0-3.8-3.8h-9.31a8.39 8.39 0 0 0-8.379 8.379v3.943a2.83 2.83 0 0 0-1.6 2.549v3.338a2.836 2.836 0 0 0 2.833 2.833h1.136a9.87 9.87 0 0 0 3.284 6.329 12 12 0 0 0 1.326 1v2.464a1.68 1.68 0 0 1-.714 1.37H7.419a3.574 3.574 0 0 0-3.572 3.771l.163 3A16.05 16.05 0 0 0 .7 52.044v3.311a2.767 2.767 0 0 0 2.066 4.61h41.509a2.767 2.767 0 0 0 2.066-4.61Zm-1.758 0v2.4a3 3 0 0 0-.308-.018h-1.9l.5-9.139a14.3 14.3 0 0 1 1.708 6.757m-8.56-34.268a1.1 1.1 0 0 1 .09.429v3.338a1.076 1.076 0 0 1-1.075 1.075h-1.045V19.3l.542-.189a2.6 2.6 0 0 0 1.488-1.335m-5.868 10.183h-2.206a.645.645 0 0 1 0-1.29h2.206a.645.645 0 0 1 0 1.29M34.3 26.58h-.888a10.3 10.3 0 0 0 .508-2.2h1.116a2.8 2.8 0 0 0 1.075-.212v.606A1.813 1.813 0 0 1 34.3 26.58M12.529 11.714a6.63 6.63 0 0 1 6.622-6.622h9.308A2.05 2.05 0 0 1 30.5 7.138 1.87 1.87 0 0 0 32.371 9h.1a2.05 2.05 0 0 1 2.045 2.046v5.624a.83.83 0 0 1-.558.786l-1.848.644a.113.113 0 0 1-.151-.108v-3.493c.011-2.549-2.376-4.772-5.72-3.7a9.34 9.34 0 0 1-5.44 0c-3.309-1.064-5.731 1.12-5.72 3.7v3.5a.113.113 0 0 1-.151.108l-1.848-.643a.83.83 0 0 1-.558-.786Zm-1.6 9.83V18.2a1.1 1.1 0 0 1 .09-.429 2.6 2.6 0 0 0 1.488 1.34l.542.188v3.313h-1.043a1.076 1.076 0 0 1-1.075-1.069Zm3.894 1.817c-.029-1.155-.011-2.382-.016-3.5.054 0 .108.007.163.007a1.87 1.87 0 0 0 1.873-1.874v-3.5c-.006-1.427 1.274-2.708 3.424-2.017a11.07 11.07 0 0 0 6.515 0c2.049-.658 3.431.5 3.424 2.02v3.5a1.87 1.87 0 0 0 2.035 1.866v3.576a8.7 8.7 0 0 1-.363 2.206 2.4 2.4 0 0 0-1.718-.726h-2.211a2.4 2.4 0 1 0 0 4.805h1.117a9 9 0 0 1-5.5 1.962 8.62 8.62 0 0 1-8.741-8.325Zm4.684 10.8v-1.533a10.7 10.7 0 0 0 4.057.809h.02a10.7 10.7 0 0 0 3.95-.8v1.531a3.4 3.4 0 0 0 .285 1.369h-8.6a3.4 3.4 0 0 0 .29-1.371ZM4.172 45.287l.139 2.557a.879.879 0 0 0 1.755-.1L5.6 39.21a1.82 1.82 0 0 1 1.816-1.918h32.209a1.82 1.82 0 0 1 1.816 1.918l-.826 15.217H26.834a5.4 5.4 0 0 1 1.317-2.722l.025-.028a6.245 6.245 0 0 0-1.576-9.585 1.34 1.34 0 0 0-2 1.163v3.988a.33.33 0 0 1-.331.331h-1.491a.33.33 0 0 1-.332-.331v-3.987a1.34 1.34 0 0 0-2-1.163 6.244 6.244 0 0 0-1.572 9.587l.023.025a5.4 5.4 0 0 1 1.316 2.722H6.429l-.141-2.6a.879.879 0 0 0-1.755.1l.136 2.5h-1.9a3 3 0 0 0-.308.018v-2.4a14.3 14.3 0 0 1 1.711-6.758m17.814 9.139a7.15 7.15 0 0 0-1.786-3.9l-.021-.024a4.483 4.483 0 0 1 .509-6.457v3.2a2.09 2.09 0 0 0 2.089 2.089h1.488a2.09 2.09 0 0 0 2.089-2.089v-3.2a4.483 4.483 0 0 1 .507 6.46l-.019.021a7.15 7.15 0 0 0-1.786 3.9Zm22.289 3.78H2.769a1.011 1.011 0 1 1 0-2.022h41.506a1.011 1.011 0 1 1 0 2.022"/><path d="M59.121 6.052A.88.88 0 0 0 60 5.173v-1.7A3.44 3.44 0 0 0 56.565.037H41.783a3.44 3.44 0 0 0-3.435 3.435v7.393a3.44 3.44 0 0 0 3.435 3.435.615.615 0 0 1 .614.614v4.572a1.451 1.451 0 0 0 2.7.746l3.374-5.632a.62.62 0 0 1 .529-.3h7.568A3.44 3.44 0 0 0 60 10.865V9.282a.879.879 0 1 0-1.758 0v1.583a1.68 1.68 0 0 1-1.677 1.677H49a2.38 2.38 0 0 0-2.034 1.152l-2.809 4.684v-3.464a2.374 2.374 0 0 0-2.372-2.372 1.68 1.68 0 0 1-1.677-1.677V3.472a1.68 1.68 0 0 1 1.677-1.677h14.78a1.68 1.68 0 0 1 1.677 1.677v1.7a.88.88 0 0 0 .879.88"/></g></svg>