<svg xmlns="http://www.w3.org/2000/svg" width="60" height="60" fill="none"><g fill="#282928" clip-path="url(#a)"><path d="M8.558 14.285V12.23l1.012-.003c1.514 0 2.745-1.214 2.745-2.707S11.084 6.813 9.57 6.813H7.724a.84.84 0 0 0-.833.833v6.64a.833.833 0 1 0 1.667 0M9.57 8.48c.585 0 1.079.477 1.079 1.04 0 .565-.494 1.041-1.079 1.041l-1.005.003A218 218 0 0 1 8.56 8.48zM19.033 9.372c0-1.411-1.192-2.56-2.657-2.56H14.61a.833.833 0 0 0-.833.834v6.64a.833.833 0 1 0 1.667 0v-1.87l2.131 2.42a.83.83 0 0 0 1.177.075.833.833 0 0 0 .074-1.176l-1.683-1.913c1.092-.317 1.891-1.295 1.891-2.45m-2.657.892-.923.003c-.002-.334-.005-1.439-.005-1.788h.928c.537 0 .99.409.99.893s-.453.892-.99.892M22.505 14.285v-6.64a.833.833 0 1 0-1.667 0v6.64a.833.833 0 1 0 1.667 0M28.377 8.48c.499 0 .979.146 1.387.422a.833.833 0 0 0 .936-1.379 4.1 4.1 0 0 0-2.323-.71 4.16 4.16 0 0 0-4.153 4.153 4.16 4.16 0 0 0 4.153 4.153c.915 0 1.736-.301 2.378-.873.126-.114.24-.232.35-.362a.833.833 0 1 0-1.274-1.075 2 2 0 0 1-.188.196c-.333.297-.76.447-1.266.447a2.49 2.49 0 0 1-2.487-2.486 2.49 2.49 0 0 1 2.487-2.487M36.276 8.54a.833.833 0 1 0 0-1.667h-2.772a.833.833 0 0 0-.833.833v6.58c0 .46.373.833.833.833h2.772a.833.833 0 1 0 0-1.666h-1.938v-1.625h1.733a.833.833 0 1 0 0-1.667h-1.733V8.54zM5.962 18.915c0 .46.373.834.833.834h30.41a.833.833 0 1 0 0-1.667H6.794a.833.833 0 0 0-.833.833M17.003 28.737h10.1a.833.833 0 1 0 0-1.667h-10.1a.833.833 0 1 0 0 1.667M37.204 22.975H17.003a.833.833 0 1 0 0 1.666h20.201a.833.833 0 1 0 0-1.666M17.003 39.29h10.1a.833.833 0 1 0 0-1.667h-10.1a.833.833 0 1 0 0 1.667M37.204 33.527H17.003a.833.833 0 1 0 0 1.667h20.201a.833.833 0 1 0 0-1.667M17.003 48.176a.833.833 0 1 0 0 1.666h10.1a.833.833 0 1 0 0-1.666zM38.037 44.915a.833.833 0 0 0-.833-.833H17.003a.833.833 0 1 0 0 1.667h20.201c.46 0 .833-.373.833-.834M5.962 27.984c0 .74.603 1.343 1.343 1.343h4.256c.74 0 1.343-.603 1.343-1.344v-4.255c0-.74-.603-1.343-1.344-1.343H7.305c-.74 0-1.343.602-1.343 1.343zm1.667-3.933h3.608v3.61H7.63zM5.962 38.538c0 .741.603 1.344 1.343 1.344h4.256c.74 0 1.343-.603 1.343-1.344v-4.255c0-.74-.603-1.343-1.344-1.343H7.305c-.74 0-1.343.602-1.343 1.343zm1.667-3.932h3.608v3.61H7.63zM5.962 49.089c0 .742.603 1.347 1.343 1.347h4.256c.74 0 1.343-.605 1.343-1.347v-4.252c0-.743-.603-1.347-1.344-1.347H7.305c-.74 0-1.343.604-1.343 1.347zm1.667-3.932h3.608v3.612H7.63z"/><path d="M43.167 29.469a.833.833 0 0 0-.834.833v24.423c0 .27-.23.498-.502.498H2.166a.5.5 0 0 1-.5-.498V30.302a.833.833 0 1 0-1.666 0v24.423c0 1.194.971 2.165 2.166 2.165H41.83A2.17 2.17 0 0 0 44 54.724V30.303a.833.833 0 0 0-.833-.833"/><path d="M41.831 0H2.166A2.17 2.17 0 0 0 0 2.166v33.771a.833.833 0 1 0 1.667 0V2.166a.5.5 0 0 1 .499-.5H41.83c.272 0 .502.23.502.5v33.771a.833.833 0 1 0 1.667 0V2.166A2.17 2.17 0 0 0 41.831 0"/></g><defs><clipPath id="a"><path fill="#fff" d="M0 0h60v60H0z"/></clipPath></defs></svg>