<svg xmlns="http://www.w3.org/2000/svg" width="60" height="60" fill="none"><g fill="#282928" fill-rule="evenodd" clip-path="url(#a)" clip-rule="evenodd"><path d="M52.565 56.8a.61.61 0 0 1-.611-.61v-2.32a2.1 2.1 0 0 0-2.096-2.096h-2.191a2.1 2.1 0 0 0-2.096 2.096v2.32a.611.611 0 0 1-1.223 0v-2.32c0-1.83 1.489-3.32 3.319-3.32h2.19a3.323 3.323 0 0 1 3.32 3.32v2.32a.61.61 0 0 1-.612.61"/><path d="M48.762 47.071c-.96 0-1.74.78-1.74 1.74s.78 1.74 1.74 1.74c.959 0 1.74-.78 1.74-1.74s-.781-1.74-1.74-1.74m0 4.702a2.966 2.966 0 0 1-2.963-2.962 2.965 2.965 0 0 1 2.963-2.961 2.965 2.965 0 0 1 2.962 2.96 2.965 2.965 0 0 1-2.962 2.963"/><path d="M44.506 46.504a5.98 5.98 0 0 0-1.763 4.255 5.98 5.98 0 0 0 1.763 4.255 5.98 5.98 0 0 0 4.255 1.763 5.98 5.98 0 0 0 4.256-1.763 5.98 5.98 0 0 0 1.762-4.255c0-1.607-.626-3.119-1.762-4.255a6.024 6.024 0 0 0-8.511 0M48.76 58a7.2 7.2 0 0 1-5.12-2.12 7.2 7.2 0 0 1-2.12-5.12 7.2 7.2 0 0 1 2.12-5.12c2.824-2.824 7.417-2.824 10.24 0a7.2 7.2 0 0 1 2.121 5.12 7.2 7.2 0 0 1-2.12 5.12 7.2 7.2 0 0 1-5.12 2.12M52.565 15.28a.61.61 0 0 1-.611-.612V12.35a2.1 2.1 0 0 0-2.096-2.096h-2.191a2.1 2.1 0 0 0-2.096 2.096v2.32a.61.61 0 1 1-1.223 0v-2.32a3.32 3.32 0 0 1 3.319-3.318h2.19a3.32 3.32 0 0 1 3.32 3.318v2.32a.61.61 0 0 1-.612.61"/><path d="M48.762 5.553c-.96 0-1.74.78-1.74 1.74 0 .959.78 1.74 1.74 1.74.959 0 1.74-.781 1.74-1.74 0-.96-.781-1.74-1.74-1.74m0 4.7a2.965 2.965 0 0 1-2.963-2.96 2.965 2.965 0 0 1 2.963-2.963 2.965 2.965 0 0 1 2.962 2.963 2.965 2.965 0 0 1-2.962 2.96"/><path d="M44.506 4.983a5.98 5.98 0 0 0-1.763 4.255c0 1.607.626 3.12 1.763 4.255a5.98 5.98 0 0 0 4.255 1.763 5.98 5.98 0 0 0 4.256-1.763 5.98 5.98 0 0 0 1.762-4.255c0-1.608-.626-3.12-1.762-4.255a6.024 6.024 0 0 0-8.511 0m4.255 11.496a7.2 7.2 0 0 1-5.12-2.121 7.2 7.2 0 0 1-2.12-5.12c0-1.935.753-3.752 2.12-5.12 2.824-2.824 7.417-2.824 10.24 0a7.2 7.2 0 0 1 2.121 5.12 7.2 7.2 0 0 1-2.12 5.12 7.2 7.2 0 0 1-5.12 2.12M11.044 56.8a.61.61 0 0 1-.612-.61v-2.32a2.1 2.1 0 0 0-2.096-2.096h-2.19a2.1 2.1 0 0 0-2.097 2.096v2.32a.611.611 0 0 1-1.222 0v-2.32c0-1.83 1.488-3.32 3.318-3.32h2.191a3.323 3.323 0 0 1 3.32 3.32v2.32a.61.61 0 0 1-.612.61"/><path d="M7.24 47.071a1.741 1.741 0 0 0 0 3.48c.96 0 1.74-.78 1.74-1.74s-.78-1.74-1.74-1.74m0 4.702a2.965 2.965 0 0 1-2.962-2.962 2.965 2.965 0 0 1 2.963-2.961 2.965 2.965 0 0 1 2.962 2.96 2.965 2.965 0 0 1-2.962 2.963"/><path d="M2.985 46.504a5.98 5.98 0 0 0-1.762 4.255 5.98 5.98 0 0 0 1.762 4.255 5.98 5.98 0 0 0 4.256 1.763 5.98 5.98 0 0 0 4.256-1.763 6.025 6.025 0 0 0 0-8.51 6.024 6.024 0 0 0-8.512 0M7.241 58a7.2 7.2 0 0 1-5.12-2.12A7.2 7.2 0 0 1 0 50.76a7.2 7.2 0 0 1 2.12-5.12c2.824-2.824 7.418-2.824 10.241 0 2.823 2.822 2.823 7.416 0 10.24A7.2 7.2 0 0 1 7.241 58M11.044 15.28a.61.61 0 0 1-.612-.612V12.35a2.1 2.1 0 0 0-2.096-2.096h-2.19a2.1 2.1 0 0 0-2.097 2.096v2.32a.61.61 0 1 1-1.222 0v-2.32a3.32 3.32 0 0 1 3.318-3.318h2.191a3.32 3.32 0 0 1 3.32 3.318v2.32a.61.61 0 0 1-.612.61"/><path d="M7.24 5.553a1.741 1.741 0 0 0 0 3.48 1.741 1.741 0 0 0 0-3.48m0 4.7a2.965 2.965 0 0 1-2.962-2.96A2.965 2.965 0 0 1 7.241 4.33a2.965 2.965 0 0 1 2.962 2.963 2.965 2.965 0 0 1-2.962 2.96"/><path d="M2.985 4.983a5.98 5.98 0 0 0-1.762 4.255c0 1.607.626 3.12 1.762 4.255a5.98 5.98 0 0 0 4.256 1.763 5.98 5.98 0 0 0 4.256-1.763 6.025 6.025 0 0 0 0-8.51 6.024 6.024 0 0 0-8.512 0m4.256 11.496a7.2 7.2 0 0 1-5.12-2.121A7.2 7.2 0 0 1 0 9.238c0-1.935.753-3.752 2.12-5.12 2.824-2.824 7.418-2.824 10.241 0s2.823 7.416 0 10.24a7.2 7.2 0 0 1-5.12 2.12M16.788 19.398a.6.6 0 0 1-.432-.18l-3.675-3.675a.612.612 0 0 1 .865-.864l3.675 3.674a.612.612 0 0 1-.433 1.044"/><path d="M12.965 17.95h-.041a.61.61 0 0 1-.57-.651l.15-2.23a.61.61 0 0 1 .568-.569l2.23-.149a.612.612 0 0 1 .08 1.22l-1.695.114-.112 1.695a.61.61 0 0 1-.61.57M39.214 19.398a.611.611 0 0 1-.432-1.044l3.675-3.675a.613.613 0 0 1 .864.864l-3.674 3.675a.6.6 0 0 1-.433.18"/><path d="M43.037 17.95a.61.61 0 0 1-.61-.57l-.113-1.695-1.695-.114a.611.611 0 0 1 .081-1.22l2.23.15c.305.02.548.263.569.569l.149 2.229a.61.61 0 0 1-.57.65q-.02.002-.041.002M42.889 45.497a.6.6 0 0 1-.433-.18l-3.674-3.674a.611.611 0 0 1 .865-.865l3.674 3.675a.612.612 0 0 1-.432 1.044"/><path d="M40.66 45.645a.611.611 0 0 1-.041-1.222l1.695-.112.114-1.695a.61.61 0 1 1 1.22.08l-.15 2.23a.61.61 0 0 1-.568.57l-2.23.148zM13.114 45.497a.612.612 0 0 1-.432-1.044l3.674-3.675a.612.612 0 0 1 .865.865l-3.675 3.675a.6.6 0 0 1-.432.179"/><path d="m15.343 45.645-.041-.001-2.23-.148a.61.61 0 0 1-.569-.57l-.149-2.23a.61.61 0 1 1 1.22-.08l.113 1.695 1.696.112a.612.612 0 0 1-.04 1.222M32.788 37.446a.61.61 0 0 1-.612-.612v-2.919a2.8 2.8 0 0 0-2.796-2.796h-2.757a2.8 2.8 0 0 0-2.796 2.796v2.92a.611.611 0 0 1-1.223 0v-2.92a4.023 4.023 0 0 1 4.019-4.018h2.757a4.023 4.023 0 0 1 4.019 4.018v2.92a.61.61 0 0 1-.611.61"/><path d="M28.001 25.201a2.35 2.35 0 0 0-2.348 2.348 2.35 2.35 0 0 0 2.348 2.348 2.35 2.35 0 0 0 2.347-2.348 2.35 2.35 0 0 0-2.347-2.348m0 5.919a3.575 3.575 0 0 1-3.57-3.571 3.575 3.575 0 0 1 3.57-3.57 3.575 3.575 0 0 1 3.57 3.57 3.575 3.575 0 0 1-3.57 3.57"/><path d="M28.001 22.27c-1.98 0-3.96.752-5.468 2.26-3.014 3.015-3.014 7.92 0 10.936 3.015 3.014 7.92 3.014 10.935 0 3.015-3.015 3.015-7.921 0-10.936a7.7 7.7 0 0 0-5.467-2.26m0 16.678a8.93 8.93 0 0 1-6.332-2.619c-3.492-3.49-3.492-9.173 0-12.664s9.173-3.49 12.664 0c3.492 3.491 3.492 9.173 0 12.664a8.93 8.93 0 0 1-6.332 2.619"/><path d="M26.442 44.037h3.119V41.63c0-.294.21-.548.5-.601.567-.105 1.13-.256 1.673-.447a.61.61 0 0 1 .733.271l1.204 2.085 2.701-1.56-1.205-2.088a.61.61 0 0 1 .131-.77c.438-.375.85-.788 1.225-1.224a.61.61 0 0 1 .77-.132l2.088 1.205 1.56-2.701-2.086-1.204a.61.61 0 0 1-.27-.733c.191-.543.342-1.106.447-1.673.054-.29.306-.5.6-.5h2.41v-3.12h-2.41a.61.61 0 0 1-.6-.499 11 11 0 0 0-.447-1.673.61.61 0 0 1 .27-.733l2.086-1.204-1.56-2.702-2.088 1.206a.61.61 0 0 1-.77-.132 11.4 11.4 0 0 0-1.225-1.224.61.61 0 0 1-.131-.77l1.205-2.088-2.701-1.56-1.204 2.086a.61.61 0 0 1-.733.271 11 11 0 0 0-1.673-.448.61.61 0 0 1-.5-.601v-2.409h-3.12v2.409a.61.61 0 0 1-.5.6 11 11 0 0 0-1.672.449.61.61 0 0 1-.733-.271l-1.204-2.085-2.702 1.559 1.206 2.089a.61.61 0 0 1-.132.769c-.438.376-.85.787-1.224 1.224a.61.61 0 0 1-.77.132l-2.088-1.206-1.56 2.702 2.085 1.204a.61.61 0 0 1 .271.733 11 11 0 0 0-.447 1.673.61.61 0 0 1-.601.5H13.96v3.119h2.409c.294 0 .547.21.6.5.106.567.257 1.13.448 1.673a.61.61 0 0 1-.27.733l-2.086 1.204 1.56 2.701 2.088-1.205a.61.61 0 0 1 .77.132c.374.436.786.85 1.224 1.224a.61.61 0 0 1 .132.77l-1.206 2.088 2.702 1.56 1.204-2.085a.61.61 0 0 1 .733-.271c.543.19 1.106.342 1.673.447.29.053.5.307.5.6zm3.73 1.223H25.83a.61.61 0 0 1-.611-.611v-2.522a13 13 0 0 1-.873-.233l-1.26 2.184a.61.61 0 0 1-.836.223l-3.76-2.17a.614.614 0 0 1-.224-.836l1.263-2.187q-.33-.307-.638-.638l-2.187 1.264a.614.614 0 0 1-.835-.224l-2.171-3.762a.61.61 0 0 1 .223-.834l2.184-1.26q-.132-.433-.233-.875H13.35a.61.61 0 0 1-.612-.61v-4.343c0-.337.274-.611.612-.611h2.522q.1-.44.233-.872l-2.184-1.262a.613.613 0 0 1-.223-.835l2.17-3.76a.61.61 0 0 1 .836-.224l2.187 1.262q.308-.328.638-.637l-1.263-2.186a.615.615 0 0 1 .224-.836l3.76-2.172a.61.61 0 0 1 .835.225l1.261 2.184q.433-.133.873-.233v-2.523c0-.338.274-.612.611-.612h4.342c.338 0 .612.274.612.612v2.523q.44.1.872.233l1.261-2.184a.61.61 0 0 1 .836-.225l3.76 2.172a.61.61 0 0 1 .224.836l-1.263 2.186q.33.309.638.637l2.187-1.262a.61.61 0 0 1 .835.224l2.171 3.76a.61.61 0 0 1-.224.835l-2.184 1.262q.133.431.233.872h2.523c.338 0 .611.274.611.611v4.342a.61.61 0 0 1-.611.611H40.13q-.1.442-.233.874l2.184 1.261a.61.61 0 0 1 .224.834l-2.17 3.762a.614.614 0 0 1-.836.224l-2.187-1.264q-.308.33-.638.638l1.263 2.187a.61.61 0 0 1-.224.836l-3.76 2.17a.61.61 0 0 1-.836-.223l-1.26-2.184a13 13 0 0 1-.873.233v2.522a.61.61 0 0 1-.612.611"/></g><defs><clipPath id="a"><path fill="#fff" d="M0 0h60v60H0z"/></clipPath></defs></svg>