<svg xmlns="http://www.w3.org/2000/svg" width="60" height="60" fill="none"><path fill="#282928" fill-rule="evenodd" d="M32.247 35.864a.937.937 0 0 0 1.658.123l2.272-3.652 4.222.862a.94.94 0 0 0 .915-.326c.22-.27.272-.64.134-.96l-3.135-7.262.297-.126a3.89 3.89 0 0 0 2.354-4.068q-.058-.483-.107-.87c-.13-1.036-.196-1.557-.126-1.954.07-.398.31-.864.789-1.794q.178-.346.399-.781a3.884 3.884 0 0 0-.818-4.625l-.642-.598c-.768-.71-1.154-1.067-1.356-1.417s-.32-.86-.552-1.88q-.086-.378-.198-.853a3.9 3.9 0 0 0-3.606-3.02l-.878-.045c-1.046-.052-1.57-.078-1.951-.216-.38-.138-.8-.455-1.634-1.086q-.31-.235-.702-.527a3.91 3.91 0 0 0-4.708 0l-.701.527c-.835.631-1.254.948-1.634 1.086s-.906.164-1.952.216l-.877.046a3.9 3.9 0 0 0-3.607 3.019l-.197.854c-.233 1.018-.35 1.53-.552 1.88s-.588.706-1.356 1.416q-.286.265-.643.598a3.884 3.884 0 0 0-.817 4.625q.22.434.399.78c.478.93.718 1.397.788 1.795s.005.918-.125 1.954q-.05.387-.108.87a3.89 3.89 0 0 0 2.354 4.068q.45.19.81.342l.21.088-3.846 8.24a.934.934 0 0 0 1.011 1.317l4.245-.74 2.165 3.717a.938.938 0 0 0 1.661-.076l3.828-8.2c.614-.184.986-.277 1.299-.277.404 0 .907.154 1.908.462l.367.113zm3.666-5.493a.94.94 0 0 0-.985.423l-1.67 2.684-1.593-3.692a3.9 3.9 0 0 0 2.735-1.74q.268-.407.478-.735c.568-.877.853-1.318 1.164-1.578.139-.116.313-.221.55-.339l2.423 5.61zM21.16 34.997l-1.591-2.73a.94.94 0 0 0-.972-.452l-3.12.543 3.046-6.525c.272.27.553.704 1.055 1.478q.211.328.478.736a3.9 3.9 0 0 0 3.522 1.769zm6.068-7.935c-.638 0-1.277.182-2.461.547q-.369.114-.83.253c-.893.27-1.8-.06-2.311-.84q-.264-.403-.473-.725c-1.345-2.078-1.486-2.196-3.77-3.156q-.355-.149-.799-.338a2.01 2.01 0 0 1-1.23-2.126q.058-.478.106-.86c.308-2.453.276-2.634-.855-4.834l-.394-.771a2.005 2.005 0 0 1 .427-2.417l.635-.59c1.818-1.682 1.91-1.84 2.461-4.252q.085-.374.195-.844a2.01 2.01 0 0 1 1.885-1.577q.481-.026.866-.045c2.476-.123 2.65-.186 4.625-1.68q.308-.232.693-.52a2.02 2.02 0 0 1 2.46 0q.386.288.693.52c1.976 1.494 2.149 1.557 4.625 1.68q.384.019.866.045c.932.052 1.672.67 1.885 1.577q.11.47.195.844c.551 2.411.643 2.57 2.46 4.252l.636.59c.68.637.848 1.586.427 2.417q-.219.43-.395.77c-1.13 2.201-1.163 2.382-.854 4.836q.048.381.106.86a2.01 2.01 0 0 1-1.23 2.125q-.444.189-.799.337c-2.285.961-2.425 1.079-3.77 3.156q-.209.324-.473.727a2.015 2.015 0 0 1-2.311.84l-.83-.254c-1.184-.365-1.823-.547-2.461-.547m9.307-12.15c0-5.12-4.175-9.285-9.307-9.285s-9.307 4.165-9.307 9.285 4.175 9.284 9.307 9.284 9.307-4.165 9.307-9.285m-9.307 7.413c-4.098 0-7.432-3.325-7.432-7.413s3.334-7.414 7.432-7.414 7.432 3.326 7.432 7.414-3.334 7.413-7.432 7.413m5.15-9.62-6.404 5.798a.936.936 0 0 1-1.293-.031l-2.637-2.63a.934.934 0 0 1 0-1.323.94.94 0 0 1 1.327 0l2.005 2 5.742-5.199a.94.94 0 0 1 1.325.064.934.934 0 0 1-.065 1.322m17.804 30.653c1.236-1.233 1.864-2.789 1.815-4.499l-.456-16.083c-.045-1.588-1.628-3.01-3.335-3.01h-.049c-.832.013-3.547.46-3.527 5.659l.033 8.736q0 .3-.038.583a4 4 0 0 0-.212-.231c-1.158-1.155-3.053-1.17-4.316-.034a1 1 0 0 0-.088.09c-1.413 1.667-3.148 3.127-4.543 4.299-.49.411-.951.8-1.33 1.14-1.591 1.43-1.804 3.401-1.802 5.14l.008 6.222-.809-.007a2.04 2.04 0 0 0-1.455.588c-.391.384-.61.896-.614 1.442l-.021 2.433a2.03 2.03 0 0 0 .59 1.452c.384.39.897.608 1.444.613L44.15 58h.018c.54 0 1.05-.209 1.437-.588a2.03 2.03 0 0 0 .614-1.442l.021-2.434a2.03 2.03 0 0 0-.59-1.451 2.04 2.04 0 0 0-1.444-.613l-1.043-.009v-1.105zM44.366 53.52l-.021 2.433c0 .059-.03.1-.054.123a.17.17 0 0 1-.124.052l-12.674-.109c-.059 0-.1-.03-.123-.053a.17.17 0 0 1-.052-.124l.021-2.434c0-.059.03-.1.054-.123a.17.17 0 0 1 .122-.052h.002l12.674.109c.096 0 .176.082.175.177m-10.148-2.135-.008-6.24c-.002-1.905.34-2.991 1.181-3.747.356-.32.786-.682 1.283-1.1 1.434-1.206 3.215-2.703 4.72-4.466.527-.44 1.246-.443 1.692.003.476.474.476 1.038.004 1.676-.745.836-1.53 1.593-2.359 2.394-.398.385-.81.782-1.226 1.197a.934.934 0 0 0 .664 1.597c.24 0 .48-.092.663-.274.404-.404.81-.796 1.203-1.175.867-.837 1.686-1.627 2.488-2.53l.628-.766c.939-1.153 1.393-2.397 1.387-3.8l-.033-8.737c-.009-2.316.636-3.765 1.682-3.782h.02c.696 0 1.442.608 1.459 1.193l.457 16.084c.034 1.199-.393 2.25-1.267 3.122l-7.293 7.274a.93.93 0 0 0-.274.662v1.476zM32.24 54.36a.759.759 0 0 1 1.41.56.759.759 0 0 1-1.41-.56m-10.32-2.408a2.04 2.04 0 0 0-1.454-.588l-.809.006.008-6.221c.002-1.74-.21-3.71-1.801-5.14-.38-.341-.842-.73-1.33-1.14-1.395-1.173-3.131-2.633-4.544-4.299a1 1 0 0 0-.088-.09c-1.263-1.136-3.159-1.122-4.316.033a4 4 0 0 0-.212.231 4 4 0 0 1-.038-.583l.034-8.736c.02-5.199-2.696-5.646-3.528-5.66h-.05c-1.706 0-3.289 1.423-3.334 3.011L.003 38.86c-.049 1.71.579 3.265 1.815 4.498l7.018 7v1.105l-1.043.01a2.04 2.04 0 0 0-1.445.612 2.03 2.03 0 0 0-.59 1.452l.022 2.434a2.03 2.03 0 0 0 .614 1.44c.387.38.897.589 1.437.589h.018l12.674-.109a2.04 2.04 0 0 0 1.445-.613 2.03 2.03 0 0 0 .59-1.451l-.022-2.434a2.03 2.03 0 0 0-.614-1.441m-11.21-1.981a.93.93 0 0 0-.274-.662l-7.293-7.275c-.874-.872-1.3-1.922-1.267-3.121l.457-16.084c.017-.59.782-1.203 1.479-1.193 1.046.017 1.69 1.466 1.682 3.781l-.034 8.737c-.005 1.404.449 2.648 1.39 3.803l.602.735.024.03c.802.902 1.62 1.692 2.488 2.529.393.379.799.771 1.203 1.175a.936.936 0 0 0 1.326 0 .934.934 0 0 0 0-1.323c-.415-.415-.827-.812-1.225-1.197-.83-.8-1.614-1.558-2.36-2.394-.471-.638-.47-1.202.005-1.676.446-.446 1.165-.444 1.691-.003 1.506 1.763 3.287 3.26 4.72 4.466.498.418.928.78 1.284 1.1.841.756 1.183 1.842 1.181 3.747l-.008 6.24-7.07.061zm9.92 5.996a.17.17 0 0 1-.124.053l-12.674.109c-.06 0-.1-.028-.124-.051a.17.17 0 0 1-.054-.124l-.02-2.433c-.002-.06.027-.1.05-.124a.17.17 0 0 1 .124-.054l12.674-.109h.001c.058 0 .1.028.123.052a.17.17 0 0 1 .054.123l.02 2.434c.001.058-.027.1-.05.124m-.872-1.607a.759.759 0 0 1-1.409.559.759.759 0 0 1 1.409-.559" clip-rule="evenodd"/></svg>