<svg width="60" height="60" viewBox="0 0 60 60" fill="none" xmlns="http://www.w3.org/2000/svg">
<path d="M50.2744 45.3238C51.0476 45.1547 51.7396 44.726 52.2353 44.109C52.731 43.492 53.0007 42.7239 52.9993 41.9325C52.9977 41.098 52.6923 40.2926 52.1403 39.6667C52.2484 39.3675 52.3035 39.0518 52.3033 38.7337C52.3033 37.9973 52.0107 37.291 51.49 36.7702C50.9692 36.2495 50.263 35.9569 49.5265 35.9569C48.7901 35.9569 48.0838 36.2495 47.5631 36.7702C47.0423 37.291 46.7498 37.9973 46.7498 38.7337C46.7495 39.0518 46.8046 39.3675 46.9127 39.6667C46.3595 40.2918 46.054 41.0978 46.0538 41.9325C46.0524 42.7239 46.322 43.492 46.8178 44.109C47.3135 44.726 48.0055 45.1547 48.7787 45.3238V48.5374H45.5946V17.8527L27.0979 10.2852V17.2455L9.99327 10.2852V48.5226H7.10547V50.0035H52.2736V48.5226H50.2744V45.3238ZM47.5495 41.9325C47.5581 41.6467 47.6287 41.3662 47.7565 41.1105C47.8844 40.8547 48.0665 40.6299 48.2899 40.4516L48.8083 40.0369L48.4529 39.4742C48.3295 39.2793 48.2606 39.0549 48.2535 38.8244C48.2465 38.5939 48.3014 38.3657 48.4126 38.1636C48.5238 37.9615 48.6872 37.793 48.8858 37.6757C49.0843 37.5583 49.3107 37.4964 49.5413 37.4964C49.7719 37.4964 49.9984 37.5583 50.1969 37.6757C50.3954 37.793 50.5588 37.9615 50.6701 38.1636C50.7813 38.3657 50.8362 38.5939 50.8291 38.8244C50.822 39.0549 50.7532 39.2793 50.6298 39.4742L50.2744 40.0369L50.7779 40.4516C51.0412 40.6637 51.2458 40.9395 51.3726 41.253C51.4994 41.5664 51.5439 41.9069 51.5021 42.2425C51.4603 42.5779 51.3334 42.8971 51.1336 43.1698C50.9338 43.4425 50.6675 43.6596 50.3603 43.8005C50.053 43.9415 49.7148 44.0016 49.3777 43.9753C49.0407 43.9488 48.716 43.8367 48.4345 43.6496C48.1529 43.4624 47.9238 43.2065 47.7689 42.906C47.6141 42.6055 47.5386 42.2704 47.5495 41.9325ZM28.5789 12.4918L44.1582 18.8449V45.6496H28.5789V12.4918ZM27.0979 21.0811H24.7285V22.562H27.0979V26.2347H24.7285V27.7157H27.0979V31.3884H24.7285V32.8693H27.0979V37.164H24.7285V38.6449H27.0979V42.7174H20.0636V41.6067H22.2701V40.1258H20.0636V36.2013H22.2701V34.7204H20.0636V30.796H22.2701V29.3151H20.0636V25.4054H22.2701V23.9245H20.0636V20.0296H22.2701V18.5487H20.0636V16.0015L27.0979 18.8597V21.0811ZM17.0277 44.1835V48.5226H15.3839V44.1983L17.0277 44.1835ZM18.5086 44.1835H20.0636V48.5226H18.4642L18.5086 44.1835ZM21.5889 44.1835H23.1883V48.5226H21.5445L21.5889 44.1835ZM18.6271 15.3795V42.7174H11.4742V12.4918L18.6271 15.3795ZM11.4742 44.1983H13.9029V48.5374H11.4742V44.1983ZM24.6248 48.5374V44.1983H27.0979V48.5374H24.6248ZM28.5345 48.5374V47.1454H44.1137V48.5374H28.5345Z" fill="#282928"/>
<path d="M12.9844 22.8438H15.6204V24.3247H12.9844V22.8438Z" fill="#282928"/>
<path d="M12.9844 26.2344H15.6204V27.7153H12.9844V26.2344Z" fill="#282928"/>
<path d="M12.9844 29.627H15.6204V31.1079H12.9844V29.627Z" fill="#282928"/>
<path d="M12.9844 33.0176H15.6204V34.4985H12.9844V33.0176Z" fill="#282928"/>
<path d="M12.9844 36.4082H15.6204V37.8891H12.9844V36.4082Z" fill="#282928"/>
<path d="M38.7656 22.8438H41.4017V24.3247H38.7656V22.8438Z" fill="#282928"/>
<path d="M38.7656 26.2344H41.4017V27.7153H38.7656V26.2344Z" fill="#282928"/>
<path d="M38.7656 29.627H41.4017V31.1079H38.7656V29.627Z" fill="#282928"/>
<path d="M38.7656 33.0176H41.4017V34.4985H38.7656V33.0176Z" fill="#282928"/>
<path d="M38.7656 36.4082H41.4017V37.8891H38.7656V36.4082Z" fill="#282928"/>
<path d="M38.7656 39.8008H41.4017V41.2817H38.7656V39.8008Z" fill="#282928"/>
<path d="M31.2461 22.8438H33.8821V24.3247H31.2461V22.8438Z" fill="#282928"/>
<path d="M31.2461 26.2344H33.8821V27.7153H31.2461V26.2344Z" fill="#282928"/>
<path d="M31.2461 29.627H33.8821V31.1079H31.2461V29.627Z" fill="#282928"/>
<path d="M31.2461 33.0176H33.8821V34.4985H31.2461V33.0176Z" fill="#282928"/>
<path d="M31.2461 36.4082H33.8821V37.8891H31.2461V36.4082Z" fill="#282928"/>
<path d="M31.2461 39.8008H33.8821V41.2817H31.2461V39.8008Z" fill="#282928"/>
<path d="M12.9844 39.8008H15.6204V41.2817H12.9844V39.8008Z" fill="#282928"/>
</svg>
