<svg xmlns="http://www.w3.org/2000/svg" width="60" height="60" fill="none"><path fill="#282928" fill-rule="evenodd" d="M33.508 52.847a26 26 0 0 1-5.988 1.802l-.792.14a1 1 0 0 1-.33 0l-.791-.14C13.08 52.467 3.817 41.471 3.817 28.744v-17.63c0-.376.225-.716.57-.864L26.194.9a.94.94 0 0 1 .741 0l21.81 9.35c.346.148.57.488.57.865v17.629c0 2.435-.338 4.807-.975 7.067 4.575 1.717 7.844 6.14 7.844 11.303 0 6.645-5.418 12.063-12.064 12.063-4.572 0-8.565-2.565-10.611-6.33M46.53 35.29c.589-2.093.902-4.29.902-6.546V11.735L26.564 2.79 5.7 11.735v17.009c0 11.817 8.6 22.025 20.232 24.051h.003l.629.112.628-.111h.003a24.2 24.2 0 0 0 5.546-1.668 12 12 0 0 1-.652-3.072 21.2 21.2 0 0 1-5.35 1.78 1 1 0 0 1-.352 0C16.358 47.927 8.96 39.04 8.96 28.794v-14.48c0-.377.224-.717.57-.865l16.663-7.143a.94.94 0 0 1 .742 0l16.669 7.143c.346.148.57.488.57.865v14.48c0 2.175-.333 4.288-.954 6.287a12.1 12.1 0 0 1 3.311.209M32.111 45.925c.5-5.08 4.176-9.253 9.005-10.498a19.3 19.3 0 0 0 1.175-6.633v-13.86L26.563 8.197l-15.722 6.738v13.86c0 9.286 6.664 17.348 15.723 19.158a19.4 19.4 0 0 0 5.547-2.027m-12.236-9.856h-5.263a.94.94 0 0 1-.941-.941V22.442c0-.52.421-.942.941-.942h5.322c1.03-.751 2.165-1.465 3.063-2.34.823-.8 1.435-1.747 1.435-3.063v-3.851c0-.52.421-.941.94-.941 3.058 0 5.561 2.502 5.561 5.56v2.987a1 1 0 0 1-.009.129 4.2 4.2 0 0 1-.269.969 2.8 2.8 0 0 1 .684-.086h4.572a2.784 2.784 0 0 1 2.777 2.776c0 .516-.143 1-.39 1.414a2.78 2.78 0 0 1 1.163 2.256c0 1.09-.635 2.037-1.553 2.491.169.359.264.758.264 1.18 0 1.029-.565 1.93-1.4 2.41.195.38.306.809.306 1.262A2.784 2.784 0 0 1 34.3 37.43H31.34q-.311 0-.603-.066c-5.018.864-7.916 1.33-10.86-1.294m-.573-12.686h-3.749v10.804h3.75zm8.754 5.111a10 10 0 0 1-1.136.768.942.942 0 0 1-.938-1.632c.982-.564 3.731-2.297 1.953-4.892a.94.94 0 0 1 .11-1.198c.588-.588.92-1.268 1.006-1.76v-2.915a3.69 3.69 0 0 0-2.737-3.555v2.787c0 1.885-.825 3.264-2.004 4.412-.918.895-2.065 1.64-3.125 2.408q.01 9.955.003 11.8c1.399 1.212 2.798 1.53 4.538 1.45.925-.043 1.938-.19 3.08-.381a2.763 2.763 0 0 1 .455-2.969 2.77 2.77 0 0 1-.309-3.25 2.8 2.8 0 0 1-.896-1.073m3.025 7.015a.9.9 0 0 0 .258.038H34.3a.896.896 0 0 0 .894-.894.896.896 0 0 0-.894-.894l-2.352-.002-.606.002h-.004a.896.896 0 0 0-.894.894c0 .392.255.726.607.846zm3.221-3.632h1.094a.896.896 0 0 0 0-1.79h-4.057a.896.896 0 0 0-.004 1.79h.004l.605-.003h.005zm-3.737-3.673h6.12a.896.896 0 0 0 .894-.894.896.896 0 0 0-.894-.894h-6.12a.896.896 0 0 0-.893.894c0 .492.402.894.893.894m5.346-3.67a.896.896 0 0 0 .894-.894.896.896 0 0 0-.894-.894H31.34a.896.896 0 0 0-.894.894c0 .492.402.894.894.894zm8.208 32.76c5.609 0 10.181-4.572 10.181-10.18 0-5.609-4.572-10.185-10.18-10.185-5.61 0-10.185 4.576-10.185 10.185 0 5.608 4.576 10.18 10.184 10.18M42.656 46.76l4.74-4.791.003-.002a2.59 2.59 0 0 1 3.66-.01 2.59 2.59 0 0 1 .012 3.66c-2.195 2.215-4.373 4.443-6.578 6.647a2.59 2.59 0 0 1-3.664 0l-3.655-3.657a2.59 2.59 0 0 1-.002-3.663l.002-.002a2.59 2.59 0 0 1 3.665 0zm-.663 2-2.486-2.486a.709.709 0 0 0-1.002 1.002l3.654 3.657a.71.71 0 0 0 1.003 0c2.203-2.202 4.379-4.428 6.572-6.641a.707.707 0 1 0-1-.998l-5.406 5.462a.94.94 0 0 1-1.335.003" clip-rule="evenodd"/></svg>