<svg width="60" height="60" viewBox="0 0 60 60" fill="none" xmlns="http://www.w3.org/2000/svg">
<path d="M57.5 5H2.5C1.125 5 0 6.125 0 7.5V17.5C0 18.875 1.125 20 2.5 20H57.5C58.875 20 60 18.875 60 17.5V7.5C60 6.125 58.875 5 57.5 5ZM10 16.25C7.9375 16.25 6.25 14.5625 6.25 12.5C6.25 10.4375 7.9375 8.75 10 8.75C12.0625 8.75 13.75 10.4375 13.75 12.5C13.75 14.5625 12.0625 16.25 10 16.25ZM21.25 16.25C19.1875 16.25 17.5 14.5625 17.5 12.5C17.5 10.4375 19.1875 8.75 21.25 8.75C23.3125 8.75 25 10.4375 25 12.5C25 14.5625 23.3125 16.25 21.25 16.25ZM52.5 13.75H35C34.3125 13.75 33.75 13.1875 33.75 12.5C33.75 11.8125 34.3125 11.25 35 11.25H52.5C53.1875 11.25 53.75 11.8125 53.75 12.5C53.75 13.1875 53.1875 13.75 52.5 13.75Z" fill="#282928"/>
<path d="M57.5 22.5H2.5C1.125 22.5 0 23.625 0 25V35C0 36.375 1.125 37.5 2.5 37.5H57.5C58.875 37.5 60 36.375 60 35V25C60 23.625 58.875 22.5 57.5 22.5ZM10 33.75C7.9375 33.75 6.25 32.0625 6.25 30C6.25 27.9375 7.9375 26.25 10 26.25C12.0625 26.25 13.75 27.9375 13.75 30C13.75 32.0625 12.0625 33.75 10 33.75ZM21.25 33.75C19.1875 33.75 17.5 32.0625 17.5 30C17.5 27.9375 19.1875 26.25 21.25 26.25C23.3125 26.25 25 27.9375 25 30C25 32.0625 23.3125 33.75 21.25 33.75ZM52.5 31.25H35C34.3125 31.25 33.75 30.6875 33.75 30C33.75 29.3125 34.3125 28.75 35 28.75H52.5C53.1875 28.75 53.75 29.3125 53.75 30C53.75 30.6875 53.1875 31.25 52.5 31.25Z" fill="#282928"/>
<path d="M57.5 40H2.5C1.125 40 0 41.125 0 42.5V52.5C0 53.875 1.125 55 2.5 55H57.5C58.875 55 60 53.875 60 52.5V42.5C60 41.125 58.875 40 57.5 40ZM10 51.25C7.9375 51.25 6.25 49.5625 6.25 47.5C6.25 45.4375 7.9375 43.75 10 43.75C12.0625 43.75 13.75 45.4375 13.75 47.5C13.75 49.5625 12.0625 51.25 10 51.25ZM21.25 51.25C19.1875 51.25 17.5 49.5625 17.5 47.5C17.5 45.4375 19.1875 43.75 21.25 43.75C23.3125 43.75 25 45.4375 25 47.5C25 49.5625 23.3125 51.25 21.25 51.25ZM52.5 48.75H35C34.3125 48.75 33.75 48.1875 33.75 47.5C33.75 46.8125 34.3125 46.25 35 46.25H52.5C53.1875 46.25 53.75 46.8125 53.75 47.5C53.75 48.1875 53.1875 48.75 52.5 48.75Z" fill="#282928"/>
</svg>
