<svg width="60" height="60" viewBox="0 0 60 60" fill="none" xmlns="http://www.w3.org/2000/svg">
<mask id="mask0_5921_2495" style="mask-type:luminance" maskUnits="userSpaceOnUse" x="9" y="9" width="41" height="42">
<path d="M50.0003 9.02734H9.02734V50.032H50.0003V9.02734Z" fill="white"/>
</mask>
<g mask="url(#mask0_5921_2495)">
<path d="M49.1471 24.3242H11.5494C11.3226 24.3248 11.1054 24.4154 10.9453 24.5759C10.7852 24.7364 10.6953 24.9539 10.6953 25.1806V45.7521C10.695 46.8864 11.1447 47.9746 11.9457 48.7777C12.7467 49.581 13.8336 50.0337 14.968 50.0365H45.7285C46.8629 50.0337 47.9497 49.581 48.7508 48.7777C49.5518 47.9746 50.0015 46.8864 50.0011 45.7521V25.1806C50.0014 25.0683 49.9793 24.9571 49.9366 24.8533C49.8937 24.7494 49.8308 24.6551 49.7515 24.5755C49.6722 24.496 49.578 24.4329 49.4743 24.3897C49.3706 24.3466 49.2594 24.3243 49.1471 24.3242ZM48.293 45.7521C48.293 46.4325 48.0232 47.0853 47.5427 47.5672C47.0622 48.049 46.4102 48.3206 45.7296 48.3225H14.968C14.2879 48.32 13.6365 48.0481 13.1565 47.5663C12.6765 47.0845 12.407 46.4322 12.407 45.7521V26.0382H48.293V45.7521Z" fill="#282928"/>
<path d="M49.9753 16.5055L48.5178 10.9722C48.3531 10.3216 47.9412 9.7609 47.3695 9.40932C46.7977 9.05773 46.1116 8.943 45.4565 9.08952L11.0279 17.2822C10.6945 17.3584 10.3796 17.5003 10.1017 17.6998C9.82387 17.8992 9.58866 18.1522 9.4099 18.4438C9.23114 18.7354 9.11243 19.0597 9.06074 19.3978C9.00906 19.7359 9.02543 20.081 9.1089 20.4127L10.7186 26.7953C10.7646 26.98 10.871 27.1439 11.0209 27.261C11.1708 27.3782 11.3555 27.4419 11.5457 27.442C11.6172 27.4425 11.6885 27.4338 11.7578 27.4163C11.8667 27.3885 11.969 27.3395 12.0589 27.2723C12.1489 27.2049 12.2247 27.1206 12.282 27.024C12.3394 26.9274 12.3771 26.8204 12.3931 26.7092C12.4091 26.598 12.403 26.4848 12.3752 26.3759L12.2815 26.0045L49.3379 17.5611C49.4499 17.5352 49.5555 17.4871 49.6485 17.4197C49.7415 17.3523 49.8201 17.2669 49.8795 17.1686C49.9389 17.0703 49.9781 16.961 49.9945 16.8473C50.011 16.7336 50.0044 16.6178 49.9753 16.5067V16.5055ZM11.8621 24.3409L10.7655 19.9968C10.7375 19.8855 10.7321 19.7698 10.7496 19.6565C10.7671 19.5432 10.8071 19.4345 10.8673 19.3369C10.9275 19.2393 11.0066 19.1547 11.1 19.0881C11.1933 19.0216 11.2991 18.9744 11.411 18.9494L45.8432 10.759C45.9042 10.744 45.9668 10.7365 46.0294 10.7367C46.2222 10.738 46.4088 10.8036 46.5599 10.9231C46.711 11.0426 46.8179 11.2092 46.8636 11.3963L48.0961 16.0826L11.8621 24.3409Z" fill="#282928"/>
<path d="M18.7949 24.4697C18.591 24.3693 18.3557 24.3533 18.1401 24.4252C17.9245 24.4973 17.746 24.6512 17.6432 24.854L14.2153 31.7088C14.1136 31.9124 14.0971 32.1481 14.1693 32.3641C14.2415 32.5799 14.3964 32.7583 14.6001 32.8599C14.8038 32.9614 15.0395 32.978 15.2554 32.9058C15.4712 32.8336 15.6496 32.6786 15.7512 32.475L19.1792 25.6202C19.2805 25.4166 19.2969 25.1812 19.2249 24.9655C19.1528 24.7499 18.9982 24.5715 18.7949 24.4697Z" fill="#282928"/>
<path d="M27.318 24.47C27.1143 24.3694 26.8791 24.3532 26.6636 24.4252C26.4481 24.4972 26.2698 24.6514 26.1675 24.8543L22.7395 31.7091C22.685 31.8102 22.6513 31.9213 22.6405 32.0356C22.6297 32.15 22.642 32.2654 22.6767 32.3749C22.7113 32.4844 22.7676 32.5859 22.8422 32.6732C22.9169 32.7606 23.0083 32.832 23.111 32.8834C23.2137 32.9347 23.3259 32.9649 23.4404 32.972C23.5551 32.9793 23.6701 32.9634 23.7784 32.9253C23.8868 32.8873 23.9865 32.8278 24.0714 32.7505C24.1564 32.6732 24.2249 32.5796 24.2731 32.4753L27.7011 25.6205C27.8024 25.4171 27.819 25.1818 27.7472 24.9661C27.6754 24.7504 27.5211 24.5721 27.318 24.47Z" fill="#282928"/>
<path d="M35.8594 24.4697C35.6557 24.3693 35.4206 24.3533 35.2051 24.4253C34.9898 24.4972 34.8115 24.6513 34.709 24.8539L31.2786 31.7087C31.224 31.8098 31.1904 31.9209 31.1796 32.0353C31.1687 32.1496 31.181 32.265 31.2157 32.3745C31.2504 32.4841 31.3067 32.5855 31.3813 32.6728C31.4559 32.7602 31.5474 32.8317 31.6501 32.883C31.7529 32.9343 31.8649 32.9645 31.9796 32.9717C32.0941 32.9789 32.2091 32.963 32.3174 32.9249C32.4259 32.887 32.5255 32.8275 32.6105 32.7501C32.6955 32.6728 32.764 32.5792 32.8122 32.4749L36.2401 25.6201C36.3416 25.417 36.3586 25.1819 36.2873 24.9663C36.2159 24.7506 36.0621 24.5721 35.8594 24.4697Z" fill="#282928"/>
<path d="M44.3844 24.47C44.1807 24.3694 43.9455 24.3532 43.73 24.4252C43.5146 24.4972 43.3362 24.6514 43.2339 24.8543L39.8059 31.7091C39.7514 31.8102 39.7177 31.9213 39.7069 32.0356C39.6961 32.15 39.7084 32.2654 39.7431 32.3749C39.7778 32.4844 39.834 32.5859 39.9087 32.6732C39.9833 32.7606 40.0747 32.832 40.1774 32.8834C40.2803 32.9347 40.3923 32.9649 40.5069 32.972C40.6215 32.9793 40.7365 32.9634 40.8448 32.9253C40.9532 32.8873 41.0529 32.8278 41.1379 32.7505C41.2228 32.6732 41.2914 32.5796 41.3395 32.4753L44.7675 25.6205C44.8689 25.4171 44.8854 25.1818 44.8137 24.9661C44.7419 24.7504 44.5875 24.5721 44.3844 24.47Z" fill="#282928"/>
<path d="M49.1461 31.2285H11.5484C11.3211 31.2285 11.1031 31.3187 10.9424 31.4795C10.7817 31.6402 10.6914 31.8582 10.6914 32.0855C10.6914 32.3128 10.7817 32.5308 10.9424 32.6914C11.1031 32.8522 11.3211 32.9425 11.5484 32.9425H49.1461C49.3734 32.9425 49.5914 32.8522 49.7521 32.6914C49.9128 32.5308 50.0031 32.3128 50.0031 32.0855C50.0031 31.8582 49.9128 31.6402 49.7521 31.4795C49.5914 31.3187 49.3734 31.2285 49.1461 31.2285Z" fill="#282928"/>
<path d="M19.8412 22.9149L13.9388 17.0126C13.8593 16.9331 13.7649 16.87 13.6609 16.8269C13.557 16.7839 13.4456 16.7617 13.3331 16.7617C13.2207 16.7617 13.1093 16.7839 13.0053 16.8269C12.9014 16.87 12.807 16.9331 12.7275 17.0126C12.6479 17.0921 12.5848 17.1866 12.5418 17.2905C12.4987 17.3944 12.4766 17.5058 12.4766 17.6183C12.4766 17.7308 12.4987 17.8422 12.5418 17.9461C12.5848 18.05 12.6479 18.1445 12.7275 18.224L18.6298 24.1287C18.791 24.2891 19.0092 24.3793 19.2366 24.3794C19.3491 24.3795 19.4604 24.3574 19.5642 24.3141C19.668 24.2709 19.7621 24.2074 19.8412 24.1275C20.0019 23.9667 20.0922 23.7486 20.0922 23.5212C20.0922 23.2938 20.0019 23.0758 19.8412 22.9149Z" fill="#282928"/>
<path d="M28.1817 21.0341L22.2747 15.1317C22.1141 14.9711 21.8962 14.8809 21.669 14.8809C21.4419 14.8809 21.224 14.9711 21.0633 15.1317C20.9027 15.2924 20.8125 15.5103 20.8125 15.7374C20.8125 15.9646 20.9027 16.1825 21.0633 16.3431L26.9692 22.2455C27.0481 22.3278 27.1427 22.3936 27.2474 22.4388C27.352 22.4841 27.4647 22.5081 27.5787 22.5093C27.6927 22.5106 27.8059 22.489 27.9116 22.446C28.0171 22.403 28.1132 22.3393 28.1939 22.2588C28.2746 22.1782 28.3385 22.0824 28.3817 21.9768C28.425 21.8713 28.4466 21.7582 28.4456 21.6441C28.4446 21.5301 28.4209 21.4174 28.3757 21.3127C28.3306 21.2079 28.2639 21.1132 28.1817 21.0341Z" fill="#282928"/>
<path d="M36.5297 19.1304L30.6321 13.2257C30.5544 13.1386 30.4597 13.0683 30.3539 13.0192C30.248 12.97 30.1333 12.943 30.0166 12.9398C29.9 12.9366 29.7839 12.9572 29.6755 13.0005C29.5671 13.0438 29.4687 13.1088 29.3863 13.1915C29.304 13.2741 29.2394 13.3728 29.1966 13.4813C29.1537 13.5899 29.1334 13.7061 29.1372 13.8227C29.1408 13.9394 29.1682 14.054 29.2178 14.1597C29.2673 14.2653 29.3381 14.3597 29.4254 14.4371L35.323 20.3418C35.4843 20.5022 35.7025 20.5923 35.9299 20.5925C36.0423 20.5929 36.1536 20.5709 36.2574 20.5279C36.3611 20.4848 36.4553 20.4216 36.5344 20.3418C36.6942 20.1804 36.7835 19.9622 36.7825 19.7351C36.7817 19.508 36.6908 19.2905 36.5297 19.1304Z" fill="#282928"/>
<path d="M44.861 17.2298L38.9622 11.3251C38.8016 11.1645 38.5838 11.0742 38.3565 11.0742C38.1294 11.0742 37.9116 11.1645 37.7508 11.3251C37.5902 11.4858 37.5 11.7036 37.5 11.9308C37.5 12.158 37.5902 12.3759 37.7508 12.5365L43.6496 18.4412C43.7292 18.5207 43.8237 18.5838 43.9277 18.6269C44.0316 18.6699 44.1429 18.6921 44.2553 18.6921C44.3679 18.6921 44.4793 18.6699 44.5833 18.6269C44.6872 18.5838 44.7815 18.5207 44.861 18.4412C44.9406 18.3616 45.0037 18.2672 45.0467 18.1633C45.0898 18.0593 45.112 17.948 45.112 17.8355C45.112 17.723 45.0898 17.6116 45.0467 17.5077C45.0037 17.4038 44.9406 17.3093 44.861 17.2298Z" fill="#282928"/>
</g>
</svg>
