<svg width="60" height="60" viewBox="0 0 60 60" fill="none" xmlns="http://www.w3.org/2000/svg">
<mask id="mask0_5921_2597" style="mask-type:luminance" maskUnits="userSpaceOnUse" x="7" y="7" width="46" height="46">
<path d="M53 7H7V53H53V7Z" fill="white"/>
</mask>
<g mask="url(#mask0_5921_2597)">
<path d="M46.54 7H41.8638C40.9944 7 40.9944 8.34789 41.8638 8.34789H46.54C48.5825 8.34789 50.2443 10.0036 50.2443 12.0388V27.6358C50.2443 29.671 48.5826 31.3268 46.54 31.3268H44.2968C44.1489 31.3268 44.005 31.3754 43.8874 31.4654L39.7713 34.6139V32.0007C39.7713 31.6285 39.4696 31.3268 39.0973 31.3268H30.895C30.2233 31.3268 29.5778 31.1495 29.0084 30.8124V23.247C29.0084 21.8299 28.2866 20.5779 27.1906 19.8372V12.0388C27.1906 10.0036 28.8524 8.34789 30.895 8.34789H43.0372C43.9065 8.34789 43.9065 7 43.0372 7H30.895C28.1091 7 25.8427 9.2604 25.8427 12.0388V19.2449C25.5341 19.1712 25.2127 19.131 24.8818 19.131H12.5445C10.2692 19.131 8.41797 20.9774 8.41797 23.247V30.099C8.41797 30.9683 9.76586 30.9683 9.76586 30.099V23.247C9.76586 21.7207 11.0123 20.4789 12.5445 20.4789H24.8819C26.414 20.4789 27.6606 21.7207 27.6606 23.247V31.0807C27.6525 31.1402 27.6529 31.2002 27.6606 31.2592V35.5466C27.6606 35.6313 27.6555 35.7157 27.6478 35.7996H26.258C24.7265 35.7996 23.4498 36.9049 23.1851 38.3577C23.1238 38.3808 23.0649 38.4131 23.0103 38.4551L19.996 40.7825V38.9886C19.996 38.6164 19.6944 38.3147 19.3221 38.3147H12.5445C11.0123 38.3147 9.76586 37.0729 9.76586 35.5466V28.7459C9.76586 27.8766 8.41797 27.8766 8.41797 28.7459V35.5466C8.41797 37.8162 10.2692 39.6626 12.5445 39.6626H18.6482V42.1545C18.6482 42.695 19.3047 43.0193 19.7341 42.6879L23.1339 40.0628V47.6447C23.1339 49.3633 24.5355 50.7613 26.2581 50.7613H30.3938V52.334C30.3938 52.8744 31.0502 53.199 31.4796 52.8674L34.2074 50.7613H35.0132C36.7358 50.7613 38.1374 49.3632 38.1374 47.6447V42.8503C38.1374 41.981 36.7895 41.981 36.7895 42.8503V47.6447C36.7895 48.6201 35.9927 49.4134 35.0132 49.4134H33.9774C33.8283 49.4134 33.6835 49.4629 33.5656 49.5539L31.7416 50.9621V50.0873C31.7416 49.7151 31.44 49.4133 31.0677 49.4133H26.258C25.2786 49.4133 24.4817 48.6199 24.4817 47.6446V38.9163C24.4817 37.9409 25.2785 37.1476 26.258 37.1476H35.0132C35.9926 37.1476 36.7895 37.941 36.7895 38.9163V44.0238C36.7895 44.893 38.1374 44.893 38.1374 44.0238V38.9164C38.1374 37.1978 36.7358 35.7998 35.0132 35.7998H29.0008C29.0059 35.7155 29.0085 32.3116 29.0085 32.3116C29.6028 32.5506 30.2399 32.6747 30.895 32.6747H38.4235V35.978C38.4235 36.5172 39.0771 36.8418 39.5069 36.5133L44.5252 32.6747H46.5401C49.3258 32.6747 51.5922 30.4143 51.5922 27.6359V12.0388C51.5921 9.2604 49.3257 7 46.54 7Z" fill="#282928"/>
<path d="M40.4037 11.9797C39.5481 11.7613 38.6761 12.4374 38.6761 13.3216C38.6761 14.2877 38.324 15.2187 37.6851 15.9427L35.8283 18.0439C35.7081 17.8594 35.5003 17.7372 35.2637 17.7372H31.6388C31.2665 17.7372 30.9648 18.039 30.9648 18.4112V26.5672C30.9648 26.9395 31.2665 27.2412 31.6388 27.2412H35.2637C35.5361 27.2412 35.7701 27.0794 35.8764 26.847C36.6103 27.2954 37.4607 27.5378 38.3259 27.5378H44.7322C45.7111 27.5378 46.5187 26.6884 46.4727 25.712C46.4524 25.2796 46.4747 19.4735 46.4747 19.3446C46.4747 18.3838 45.693 17.602 44.7342 17.602L41.4028 17.592L41.5408 17.2654C42.1711 15.7726 42.0673 14.0415 41.2635 12.6346C41.0758 12.3059 40.7704 12.0734 40.4037 11.9797C40.7704 12.0734 40.037 11.8861 40.4037 11.9797C40.7704 12.0734 39.5481 11.7613 40.4037 11.9797ZM34.5898 25.8933H32.3127V19.0852H34.5898V25.8933ZM44.7322 18.9498C44.9498 18.9498 45.1269 19.1268 45.1269 19.3445C45.1269 19.4727 45.1255 19.8207 45.1237 20.2926C45.1138 22.8978 45.1071 25.3651 45.1263 25.7753C45.1333 25.9232 45.0613 26.0219 45.0178 26.0676C44.9426 26.1465 44.8411 26.1899 44.7322 26.1899H38.3259C37.5623 26.1899 36.815 25.9252 36.2213 25.4448L35.9377 25.2151V19.9555L38.6955 16.8348C39.5522 15.864 40.0239 14.6163 40.0239 13.3215C40.0239 13.2834 40.076 13.2735 40.0932 13.3032C40.6901 14.3476 40.767 15.6327 40.2991 16.7409L39.7672 18.0007C39.6794 18.2085 39.7015 18.4463 39.8257 18.6345C39.9503 18.8227 40.1605 18.9361 40.3859 18.9368L44.7322 18.9498Z" fill="#282928"/>
<path d="M14.1857 30.4091C13.8134 30.4091 13.5117 30.7109 13.5117 31.0831C13.5117 31.4553 13.8134 31.757 14.1857 31.757H16.1723L15.8011 34.0016C15.7404 34.3688 15.989 34.7157 16.3561 34.7765C16.3935 34.7827 16.4303 34.7857 16.4668 34.7857C16.7907 34.7857 17.0763 34.5516 17.131 34.2215L17.5384 31.7571H19.1643L18.7931 34.0017C18.7324 34.3689 18.9809 34.7158 19.3481 34.7765C19.3854 34.7827 19.4223 34.7857 19.4588 34.7857C19.7827 34.7857 20.0683 34.5517 20.1229 34.2216L20.5304 31.7572H23.2345C23.6068 31.7572 23.9084 31.4555 23.9084 31.0833C23.9084 30.7111 23.6068 30.4093 23.2345 30.4093H20.7532L21.025 28.7653H23.2345C23.6068 28.7653 23.9084 28.4635 23.9084 28.0913C23.9084 27.7191 23.6068 27.4174 23.2345 27.4174H21.2479L21.619 25.1728C21.6798 24.8057 21.4312 24.4587 21.0641 24.3979C20.6964 24.337 20.3499 24.5857 20.2892 24.9529L19.8818 27.4173H18.2559L18.6271 25.1727C18.6878 24.8055 18.4392 24.4586 18.0721 24.3979C17.704 24.3369 17.3581 24.5856 17.2972 24.9528L16.8898 27.4172H14.1857C13.8134 27.4172 13.5117 27.7189 13.5117 28.0911C13.5117 28.4633 13.8134 28.7651 14.1857 28.7651H16.6669L16.3951 30.4091H14.1857ZM18.0332 28.7651H19.659L19.3871 30.4091H17.7613L18.0332 28.7651Z" fill="#282928"/>
<path d="M30.6299 40.6251C30.0857 40.1771 29.3616 40.0003 28.6354 40.1769C27.7047 40.4029 26.7656 41.2729 26.7656 42.707C26.7656 43.5995 27.0914 44.3743 27.7614 45.0756C28.3088 45.6484 29.0987 46.1931 30.3223 46.8419C30.4211 46.8943 30.5296 46.9205 30.638 46.9205C30.7465 46.9205 30.8549 46.8943 30.9537 46.8419C33.0886 45.7101 34.5103 44.5739 34.5103 42.707C34.5103 41.2651 33.5378 40.404 32.574 40.1902C31.8499 40.0295 31.148 40.2001 30.6299 40.6251ZM33.1623 42.707C33.1623 43.7139 32.4944 44.4586 30.6379 45.4805C28.7814 44.4585 28.1134 43.7138 28.1134 42.707C28.1134 41.9577 28.5473 41.5853 28.9533 41.4867C29.0282 41.4686 29.1083 41.4583 29.1907 41.4583C29.4962 41.4583 29.832 41.5994 30.039 42.0008C30.157 42.2292 30.3955 42.3708 30.6513 42.3655C30.9082 42.3603 31.14 42.2096 31.2486 41.9767C31.4667 41.5093 31.9254 41.427 32.2819 41.5062C32.7077 41.6004 33.1623 41.9655 33.1623 42.707Z" fill="#282928"/>
</g>
</svg>
