<svg xmlns="http://www.w3.org/2000/svg" width="60" height="60" fill="none"><path fill="#282928" d="M28.125 1.875a3.75 3.75 0 0 0-3.752 3.746c0 2.06 1.67 3.754 3.752 3.754a3.755 3.755 0 0 0 3.752-3.754c0-2.06-1.67-3.746-3.752-3.746m0 1.875c1.025 0 1.877.825 1.877 1.871a1.877 1.877 0 1 1-3.754 0c0-1.046.852-1.871 1.877-1.871M21.821 7.5 9.267 13.29c-1.131.497-.372 2.232.786 1.703l12.555-5.791c.875-.391.648-1.722-.331-1.793a.9.9 0 0 0-.456.09m24.377 7.494c1.157.53 1.916-1.206.785-1.703L34.43 7.5a.93.93 0 0 0-.456-.09c-.98.071-1.206 1.402-.33 1.793zm-20.53-2.422c-.7.339-.96.862-1.114 1.232s-.214.58-.408.817-.547.54-1.364.886c-.82.346-1.297.395-1.613.373-.316-.02-.505-.117-.864-.256-.36-.14-.92-.318-1.614-.09-.626.207-1.244.705-1.93 1.4-.743.753-1.192 1.375-1.371 1.944-.217.691-.021 1.248.124 1.604.147.356.244.547.271.859.029.312-.014.791-.346 1.613-.333.822-.634 1.192-.871 1.397-.237.204-.44.267-.79.416-.454.192-.91.461-1.212 1.045-.275.531-.387 1.275-.379 2.31-.007.953.078 1.73.38 2.312.302.584.76.854 1.211 1.045.35.148.542.208.779.412.236.205.549.58.882 1.4.328.807.37 1.283.346 1.594s-.115.5-.256.837c-.17.406-.329.914-.167 1.536.12.457.361.875.751 1.35a13.8 13.8 0 0 0-1.489 3.365 7.45 7.45 0 0 0-2.622-2.37c.701-.82 1.121-1.881 1.121-3.041a4.685 4.685 0 0 0-4.686-4.69 4.69 4.69 0 0 0-4.693 4.69 4.65 4.65 0 0 0 1.126 3.041 7.49 7.49 0 0 0-3.933 6.623v1.1a4.224 4.224 0 0 0 4.217 4.236h6.56c.868 0 1.676-.26 2.348-.714v3.533c0 1.126.354 2.228 1.213 2.954.858.725 2.113.951 3.55.672l.062-.014 9.232-2.485L37.39 58c1.467.287 2.687.09 3.584-.665.859-.722 1.215-1.82 1.215-2.94v-3.543a4.17 4.17 0 0 0 2.347.71h6.56a4.224 4.224 0 0 0 4.217-4.235v-1.1a7.49 7.49 0 0 0-3.933-6.623 4.65 4.65 0 0 0 1.126-3.042c0-2.577-2.09-4.689-4.693-4.689a4.685 4.685 0 0 0-4.685 4.69c0 1.16.42 2.22 1.12 3.04a7.4 7.4 0 0 0-2.625 2.374 13.9 13.9 0 0 0-1.487-3.377c.39-.474.633-.885.752-1.342.162-.622.004-1.13-.166-1.536-.14-.337-.233-.526-.257-.837s.018-.787.346-1.593c.334-.822.646-1.196.883-1.4.237-.205.429-.265.778-.413.453-.191.91-.461 1.212-1.045.302-.582.387-1.359.38-2.31.007-1.037-.104-1.78-.38-2.312-.302-.584-.757-.853-1.212-1.045-.35-.148-.552-.211-.789-.416-.237-.204-.538-.575-.872-1.397s-.373-1.3-.346-1.613c.029-.312.125-.503.271-.859.147-.355.342-.912.125-1.604-.179-.569-.628-1.19-1.372-1.944-.685-.695-1.303-1.192-1.93-1.4-.693-.228-1.253-.049-1.613.09-.36.14-.548.235-.864.257-.316.021-.793-.029-1.613-.374-.817-.345-1.17-.648-1.364-.886-.194-.237-.254-.447-.409-.817s-.413-.893-1.113-1.232c-.607-.294-1.336-.386-2.457-.386-1.122 0-1.85.092-2.457.386m-21.918.55A3.747 3.747 0 0 0 0 16.87a3.753 3.753 0 0 0 3.75 3.754 3.755 3.755 0 0 0 3.752-3.754c0-2.06-1.67-3.746-3.752-3.746m48.75 0a3.75 3.75 0 0 0-3.752 3.747c0 2.06 1.67 3.754 3.752 3.754a3.753 3.753 0 0 0 3.75-3.754 3.747 3.747 0 0 0-3.75-3.746m-22.734 1.133c.129.062.141.163.2.276.105.249.264.756.686 1.272.42.517 1.069 1.006 2.082 1.434 1.01.427 1.813.565 2.477.518s1.155-.278 1.42-.38c.156-.061.235-.096.338-.063.134.045.477.218 1.185.936.675.684.872 1.057.913 1.19.029.11-.017.209-.07.331-.088.215-.343.742-.4 1.405-.058.662.064 1.47.476 2.484.411 1.014.88 1.676 1.384 2.111s1.019.616 1.282.727c.149.064.219.07.276.18s.188.478.18 1.446c.007.912-.103 1.298-.18 1.447-.057.11-.161.13-.276.179-.263.112-.778.292-1.282.727s-.973 1.097-1.384 2.111c-.404.994-.526 1.787-.476 2.443.05.655.264 1.102.393 1.411.055.155.11.242.083.346a1.4 1.4 0 0 1-.084.198 14.1 14.1 0 0 0-5.206-3.933 7.46 7.46 0 0 0 1.844-4.927c0-4.131-3.37-7.5-7.502-7.5s-7.502 3.369-7.502 7.5c0 1.885.69 3.607 1.844 4.927a14.1 14.1 0 0 0-5.206 3.933 1.5 1.5 0 0 1-.084-.198c-.028-.104.028-.19.083-.346.129-.31.343-.755.393-1.411s-.072-1.449-.476-2.443c-.411-1.014-.88-1.676-1.384-2.111s-1.019-.616-1.282-.727c-.115-.049-.219-.069-.276-.18-.077-.148-.187-.534-.18-1.446-.006-.968.123-1.335.18-1.446s.127-.116.276-.18c.264-.111.778-.291 1.282-.726.504-.436.973-1.098 1.384-2.112.412-1.013.534-1.822.476-2.484-.057-.663-.312-1.19-.4-1.405-.051-.122-.1-.22-.07-.331.041-.133.238-.506.914-1.19.708-.718 1.05-.891 1.184-.936.103-.035.182.001.339.063.264.102.755.334 1.42.38.663.046 1.467-.091 2.477-.518 1.012-.428 1.66-.917 2.081-1.433.422-.517.582-1.024.685-1.273.06-.113.072-.214.202-.276.15-.074.645-.195 1.64-.195.996 0 1.49.121 1.64.195m-26.016.743c1.025 0 1.877.825 1.877 1.871a1.877 1.877 0 1 1-3.752 0c0-1.046.85-1.871 1.875-1.871m48.75 0a1.876 1.876 0 1 1-.001 3.749 1.876 1.876 0 0 1 .001-3.75M5.438 22.15a.938.938 0 0 0-.961 1.19l1.648 6.242c.288 1.258 2.18.761 1.813-.476L6.29 22.864a.94.94 0 0 0-.852-.714m45.374 0a.94.94 0 0 0-.852.714l-1.648 6.242c-.367 1.237 1.526 1.734 1.813.476l1.648-6.242a.938.938 0 0 0-.961-1.19m-22.687.35a5.625 5.625 0 1 1 0 11.252 5.625 5.625 0 1 1 0-11.253M8.438 33.748a2.81 2.81 0 0 1 2.808 2.814 2.805 2.805 0 0 1-2.809 2.81 2.812 2.812 0 1 1 0-5.624m39.375 0a2.811 2.811 0 1 1 0 5.625 2.805 2.805 0 0 1-2.81-2.811 2.81 2.81 0 0 1 2.81-2.814M21.564 49.174v-3.247c-.028-1.222-1.848-1.222-1.875 0v3.728l-.234.06c-1.213.31-.75 2.13.463 1.82l14.173-3.64c1.08-.277 2.133.348 2.408 1.377a1.963 1.963 0 0 1-1.39 2.41l-16.644 4.484h-.008c-1.064.205-1.637.018-1.972-.263-.336-.285-.545-.775-.545-1.522v-8.443c0-5.345 3.408-9.855 8.126-11.504a7.5 7.5 0 0 0 8.113.002 12.14 12.14 0 0 1 8.134 11.502v8.456c0 .738-.211 1.226-.548 1.509-.334.282-.907.468-1.972.263l-6.06-1.631 3.86-1.04a3.837 3.837 0 0 0 2.713-4.7 3.8 3.8 0 0 0-1.745-2.308v-.56c-.028-1.222-1.848-1.211-1.875.032a3.7 3.7 0 0 0-1.066.116zm10.313-8.862c-1.223.028-1.223 1.848 0 1.875h2.809c1.222-.029 1.222-1.848 0-1.875zm-25.256.567a4.7 4.7 0 0 0 1.816.368c.636 0 1.27-.14 1.82-.368 2.227.748 3.806 2.876 3.806 5.347v1.1a2.34 2.34 0 0 1-2.348 2.36h-6.56a2.346 2.346 0 0 1-2.343-2.36v-1.1c0-2.475 1.581-4.598 3.81-5.347m39.371 0a4.7 4.7 0 0 0 1.82.37c.637 0 1.276-.131 1.817-.37 2.228.75 3.809 2.872 3.809 5.347v1.1c0 1.293-1.03 2.36-2.343 2.36h-6.56a2.35 2.35 0 0 1-2.347-2.36v-1.1c0-2.471 1.578-4.599 3.804-5.347"/></svg>