<svg width="60" height="60" viewBox="0 0 60 60" fill="none" xmlns="http://www.w3.org/2000/svg">
<path d="M47.8602 17.7739V12.504H55.384C55.6848 12.504 55.963 12.3445 56.1149 12.0849C56.267 11.8253 56.2698 11.5047 56.1227 11.2423L54.5973 8.52409L56.1227 5.80588C56.2698 5.54361 56.2669 5.223 56.1149 4.96338C55.963 4.70386 55.6848 4.54429 55.384 4.54429H47.7048C47.3621 3.64271 46.4893 3 45.4688 3C44.1501 3 43.0774 4.0728 43.0774 5.39135V17.7738C40.1517 17.933 33.9377 18.571 33.9377 21.1038C33.9377 24.4021 44.2885 24.4973 45.4688 24.4973C46.649 24.4973 57 24.4022 57 21.1039C57 18.571 50.786 17.9331 47.8602 17.7739ZM52.8874 8.93884L53.9375 10.81H47.8602V6.23852H53.9375L52.8874 8.10978C52.7429 8.36718 52.7429 8.68133 52.8874 8.93884ZM44.7715 5.39146C44.7715 5.007 45.0843 4.69422 45.4688 4.69422C45.8532 4.69422 46.1661 5.007 46.1661 5.39146V20.2568H44.7715V5.39146ZM52.3962 22.1774C50.4951 22.581 48.0349 22.8033 45.4688 22.8033C42.9026 22.8033 40.4424 22.581 38.5414 22.1774C36.6535 21.7766 35.8912 21.3205 35.6768 21.1042C35.8686 20.9125 36.5072 20.5169 38.0381 20.1446C39.4068 19.8117 41.1712 19.5768 43.0774 19.4701V21.1039C43.0774 21.5717 43.4567 21.9509 43.9245 21.9509H47.0132C47.481 21.9509 47.8602 21.5717 47.8602 21.1039V19.4701C49.7664 19.5768 51.5309 19.8118 52.8996 20.1446C54.4304 20.5169 55.069 20.9125 55.2609 21.1042C55.0465 21.3206 54.2841 21.7766 52.3962 22.1774ZM36.9758 36.4596C35.1946 36.4596 33.6997 37.7055 33.3144 39.3713H18.3126C16.0675 39.3713 14.241 37.5449 14.241 35.2997V33.0767C15.9068 32.6913 17.1527 31.1967 17.1527 29.4153C17.1527 27.6341 15.9068 26.1394 14.241 25.754V24.8881C14.241 23.2685 15.5586 21.9509 17.1782 21.9509H29.8454L29.2334 22.4867C28.8815 22.7949 28.8459 23.3299 29.154 23.682C29.3215 23.8733 29.5559 23.9711 29.7917 23.9711C29.9897 23.9711 30.1886 23.902 30.3493 23.7614L32.657 21.7412C32.8407 21.5803 32.9461 21.348 32.9461 21.1038C32.9461 20.8595 32.8407 20.6273 32.657 20.4664L30.3493 18.4461C29.9972 18.1379 29.4621 18.1734 29.154 18.5255C28.8459 18.8775 28.8815 19.4126 29.2334 19.7208L29.8455 20.2567H17.1782C14.6244 20.2567 12.5469 22.3343 12.5469 24.888V25.7539C10.8809 26.1392 9.63501 27.634 9.63501 29.4153C9.63501 31.1967 10.8809 32.6914 12.5469 33.0767V35.2996C12.5469 38.4788 15.1334 41.0653 18.3126 41.0653H33.3144C33.6367 42.4588 34.7354 43.5574 36.1288 43.8797V47.3118C36.1288 50.1142 33.8488 52.394 31.0464 52.394H10.4202C10.0349 50.7282 8.54008 49.4824 6.75882 49.4824C4.68618 49.4824 3 51.1685 3 53.2412C3 55.3138 4.68618 57 6.75882 57C8.54008 57 10.0349 55.7541 10.4202 54.0882H31.0465C34.7831 54.0882 37.823 51.0484 37.823 47.3119V43.8798C39.4889 43.4945 40.7348 41.9998 40.7348 40.2184C40.7347 38.1456 39.0485 36.4596 36.9758 36.4596ZM11.3291 29.4153C11.3291 28.2769 12.2554 27.3506 13.3938 27.3506C14.5323 27.3506 15.4585 28.2769 15.4585 29.4153C15.4585 30.5538 14.5323 31.48 13.3938 31.48C12.2554 31.48 11.3291 30.5538 11.3291 29.4153ZM6.75882 55.3059C5.62038 55.3059 4.69412 54.3796 4.69412 53.2412C4.69412 52.1027 5.62038 51.1765 6.75882 51.1765C7.89727 51.1765 8.82353 52.1027 8.82353 53.2412C8.82353 54.3796 7.89727 55.3059 6.75882 55.3059ZM36.9758 42.2831C35.8374 42.2831 34.9111 41.3568 34.9111 40.2184C34.9111 39.0799 35.8374 38.1537 36.9758 38.1537C38.1143 38.1537 39.0406 39.0799 39.0406 40.2184C39.0406 41.3568 38.1143 42.2831 36.9758 42.2831Z" fill="#282928"/>
</svg>
