<svg xmlns="http://www.w3.org/2000/svg" width="60" height="60"><defs><clipPath id="a"><path d="M0 0h60v60H0z"/></clipPath></defs><g clip-path="url(#a)"><path d="M24.061 48.453a.955.955 0 1 0-.955-.955.955.955 0 0 0 .955.955"/><path d="M57.39 25.963h-9.259V24.4a11 11 0 0 0 2.648-1.05l1.986 1.2a1.5 1.5 0 0 0 .766.218 1.48 1.48 0 0 0 1.04-.435l1.343-1.343a1.47 1.47 0 0 0 .218-1.807l-1.2-1.986a11.2 11.2 0 0 0 1-2.412l2.251-.558A1.466 1.466 0 0 0 59.3 14.8v-1.9a1.47 1.47 0 0 0-1.116-1.428l-2.251-.558a10.8 10.8 0 0 0-1-2.412l1.2-1.986a1.47 1.47 0 0 0-.218-1.806l-1.344-1.351a1.47 1.47 0 0 0-1.806-.218l-1.986 1.2a11.2 11.2 0 0 0-2.412-1l-.558-2.251a1.46 1.46 0 0 0-1.428-1.117h-1.91a1.47 1.47 0 0 0-1.428 1.116l-.559 2.251a10.7 10.7 0 0 0-2.412 1l-1.986-1.2a1.475 1.475 0 0 0-1.806.218L34.937 4.7a1.46 1.46 0 0 0-.217 1.806l1.2 1.986a10.7 10.7 0 0 0-1 2.412l-2.251.558a1.46 1.46 0 0 0-1.116 1.428v1.9c0 .047.019.085.019.123H2.61A2.616 2.616 0 0 0 0 17.526v32.147a2.616 2.616 0 0 0 2.61 2.61H16.4v2.525h-3.188a2.616 2.616 0 0 0-2.61 2.61v1.9a.714.714 0 0 0 .709.709H57.39A2.615 2.615 0 0 0 60 57.419V28.573a2.616 2.616 0 0 0-2.61-2.61M45.52 14.925h-4.757a4.7 4.7 0 0 1-.142-1.078 4.8 4.8 0 0 1 9.609 0 4.76 4.76 0 0 1-2.1 3.953v-.265a2.616 2.616 0 0 0-2.61-2.61m-12.512-2.08 2.658-.653a.71.71 0 0 0 .52-.53 9.4 9.4 0 0 1 1.163-2.79.69.69 0 0 0 0-.738l-1.41-2.411 1.419-1.352L39.7 5.789a.69.69 0 0 0 .738 0 9.5 9.5 0 0 1 2.79-1.163.72.72 0 0 0 .53-.52l.709-2.7 1.958.038.656 2.656a.71.71 0 0 0 .53.52A9.4 9.4 0 0 1 50.4 5.78a.69.69 0 0 0 .738 0l2.412-1.409 1.35 1.418-1.416 2.346a.71.71 0 0 0 0 .738 9.5 9.5 0 0 1 1.163 2.79.72.72 0 0 0 .52.53l2.7.709-.038 1.958-2.658.653a.71.71 0 0 0-.52.53 9.4 9.4 0 0 1-1.163 2.79.69.69 0 0 0 0 .738l1.412 2.41-1.419 1.353-2.346-1.419a.71.71 0 0 0-.738 0 9.3 9.3 0 0 1-2.279 1.012v-3.509a6.214 6.214 0 1 0-8.928-5.58 6 6 0 0 0 .1 1.078h-6.074a.64.64 0 0 0-.255-.123ZM2.61 50.865a1.2 1.2 0 0 1-1.192-1.192v-5.542h25.575v6.734Zm24.382 1.419v2.525h-9.174v-2.525Zm-14.971 6.327v-1.192a1.2 1.2 0 0 1 1.192-1.192H27v1.192a2.5 2.5 0 0 0 .3 1.192Zm14.972-30.038V42.7H1.419V17.536a1.193 1.193 0 0 1 1.191-1.192h42.91a1.2 1.2 0 0 1 1.192 1.192v8.427H29.6a2.616 2.616 0 0 0-2.607 2.61m31.589 28.846a1.2 1.2 0 0 1-1.192 1.192H29.6a1.2 1.2 0 0 1-1.192-1.192V33.661h30.17Zm0-25.177H28.411v-3.66a1.193 1.193 0 0 1 1.189-1.191h27.79a1.193 1.193 0 0 1 1.192 1.192Z"/><path d="M9.184 23.749a.714.714 0 0 0-1 0l-3.219 3.215a.714.714 0 0 0 0 1l3.216 3.216a.71.71 0 0 0 1 0 .714.714 0 0 0 0-1l-2.712-2.714 2.714-2.714a.7.7 0 0 0 .001-1.003M18.916 23.749a.709.709 0 0 0-1 1l2.714 2.714-2.717 2.717a.714.714 0 0 0 0 1 .71.71 0 0 0 1 0l3.216-3.216a.71.71 0 0 0 0-1ZM16.7 20.7a.72.72 0 0 0-.946.34l-5.71 12.251a.71.71 0 0 0 .341.946.7.7 0 0 0 .3.066.72.72 0 0 0 .643-.407l5.713-12.248a.71.71 0 0 0-.341-.948M31.5 52.18h9.117a.709.709 0 0 0 0-1.419H31.5a.709.709 0 1 0 0 1.419M31.5 56.227h4.36a.709.709 0 0 0 0-1.419H31.5a.709.709 0 1 0 0 1.419M55.489 50.762h-9.118a.709.709 0 0 0 0 1.419h9.117a.709.709 0 1 0 0-1.419ZM50.731 54.809h-4.36a.709.709 0 0 0 0 1.419h4.36a.709.709 0 0 0 0-1.419M30.823 47.555a.6.6 0 0 0 .028.142v.009a1 1 0 0 0 .132.2.2.2 0 0 0 .047.038 1 1 0 0 0 .151.1l.066.028a.7.7 0 0 0 .246.047h23.986a.7.7 0 0 0 .246-.047l.066-.028a1 1 0 0 0 .151-.1c.019-.019.038-.028.047-.038a.6.6 0 0 0 .132-.2V47.7a.6.6 0 0 0 .028-.123.7.7 0 0 0 .028-.151V36.745a1 1 0 0 0-.028-.151.6.6 0 0 0-.028-.123v-.009c-.009-.028-.038-.047-.057-.076a.5.5 0 0 0-.1-.142.4.4 0 0 0-.1-.066.6.6 0 0 0-.132-.076 1 1 0 0 0-.151-.028.4.4 0 0 0-.113-.019H31.5c-.038 0-.066.019-.1.019a1 1 0 0 0-.161.028.5.5 0 0 0-.113.076c-.038.028-.076.047-.114.076a.4.4 0 0 0-.1.151.3.3 0 0 0-.047.076v.009a1 1 0 0 0-.028.142.7.7 0 0 0-.028.132v10.687c-.015.019.004.067.014.104m4.02-.842 8.657-3.849 8.654 3.849Zm19.937-.388-9.533-4.247 9.533-4.247Zm-2.63-8.861-8.65 3.849-8.654-3.849Zm-19.937.378 9.533 4.246-9.533 4.247ZM31.759 28.857a.951.951 0 1 0 .955.946.95.95 0 0 0-.955-.946M35.183 28.857a.951.951 0 1 0 .955.946.95.95 0 0 0-.955-.946M38.607 28.857a.951.951 0 1 0 .955.946.95.95 0 0 0-.955-.946"/></g></svg>