<svg xmlns="http://www.w3.org/2000/svg" width="60" height="60"><defs><clipPath id="a"><path d="M0 0h60v60H0z"/></clipPath></defs><g clip-path="url(#a)"><path fill="#282928" d="M19.164 48.965c-2.06-1.621-4.256-3.175-5.76-5.361a43.4 43.4 0 0 1-7.255-13.021C5.141 27.53 4.8 24.258 3.5 21.322c-1.354-2.133.234-4.46 2.566-5.137 1.037-.2 2.868-1.183.662-.477-1.977 1.451-2.167-1.32-.141-1.495a1.61 1.61 0 0 0 1.422-2.337c-1.485-.969 3.6-2.035 1.042-3.482-2.668-2.878 3.73-3.433 2.152-.161-.375 2.513 4.47-.463 3.345 2.44 1.144 1.393 4.285.317 4.2 2.274 1.665.117 2.24 1.514 3.8 1.621 1.621.73 4.558 1.31 5.108 3.136-1.607 1.271-5.332-2.629-5.507.9.487 5.205.36 10.566 2.264 15.523.9 3 3.082 5.361 5.054 7.7a22.1 22.1 0 0 0 7.051 5.259 29 29 0 0 0 7.236 2.235c1.008-.774 2.795-3.642 4.368-2.435.078 1.363-3.126 2.844-.151 2.7 1.748-.526 2.961 1.349 4.4-.346 1.324 1.573 5.512-1 4.567 2.206-1.276.823-3.136.326-4.416 1.461-2.108-1.052-3.783.94-6.116.691a44.7 44.7 0 0 1-7.854.652c-4.303-.343-8.705-.484-12.798-1.984a26 26 0 0 1-6.588-3.3Zm3.637 1.578a25.7 25.7 0 0 0 6.929 2.313c3.92.545 7.971 1.383 11.905.618-1.782-.8-3.623.312-5.4-.575-2.128.458-4.412-.117-6.574-.4-2.459-1.1-5.113-1.85-7.416-3.272-2.878-1.052 1.49 1.349 2.264 1.544 1.8 1.023-1.977-.526-2.513-.95-1.5-.847-1.7-.667-.151.19.312.18.623.375.95.531Zm-4.29-3.036c2.186.808-.01-1.539-1.008-1.4-.443-.769-1.695-1.256-.813-1.67-1.587.55-1.665-2.094-2.41-1.719-1.68-.531-.652-2.41-2.654-3.564-.18-1.217-1.987-2.269-2.561-4.1-.253-.94-2.04-3.632-.945-1.125a35.4 35.4 0 0 0 3.944 6.549 13.55 13.55 0 0 0 4.246 5.249c.653.628 1.281 1.587 2.201 1.78m-6.3-6.91c.082-.328.403.71.004.003Zm8.911 7.879c.491-.212-.692-.269.004.002Zm1.188.433c-.118-.596-.537.339.004-.002Zm1.485.618c.71-.669-1.087-.42.004.003Zm2.542 1.417c.437-.63-1.369-.237.004.003Zm-4.884-3.4c1.101-.712-1.413-.01.001-.001Zm1.115.555c-.03-.376-.395.165.004-.001Zm5.566 3.472c.9.565 5.225 1.237 2.513.234-.45.096-5.027-1.298-2.509-.235Zm-8.838-6.88c-.084-.376-1.384-.415.004-.001Zm2.59 1.509c.681-.468-1.393-.361.004-.001Zm2.181 1.339c.969-.366-1.568-.366.005-.001Zm-5.829-4c1.052.8 4.236.1 1.607-.482-1.193-.638-3.891-1.071-2.055.385l.448.1Zm7.3 4.46c.447-.743-1.827-.427.009.002Zm-2.22-1.768c2.566.726-2.157-1.626-.633-.268l.341.156Zm4.459 2.576c2.43.022-2.196-.334 0 0m-10.469-6.674c-.092-.452-.599.039 0 0m14.579 8.979c.067-.818-.789.609 0 0m-10.433-6.437c-.143-.428-.757-.019 0 0m-3.915-2.824c1.396-.083-1.911-.613.003 0Zm-4.645-3c-.173-.671-1.516-1.202.003.001Zm12.188 7.732c-.251-.291-.119.064.003.001Zm7.586 4.655c-.021-.442-.414.169.003.001Zm-8.258-5.346c.139-.574-1.185-.175.003.001Zm-5.646-3.585c1.037-.11-1.665-.7 0 0m9.558 5.941c1.617-.641-1.577-.31.001.001Zm-4.968-3.373c1.865.239-2.22-1.271-.409-.136Zm6.481 3.988c1.743-1.042 1.169 2.44 2.956.292 1.763-1.285-1.524 1.592.648.229 1.573-1.052 3.891.5 5.356 1 1.052-.054 2.079.911 3.16.326 2.079-.56-4.071-.833-2.459-1.826-1.9.555-3.311-.662-4.246-1.88-2.138-.492-4.606-1.583-5.673-3.477-.433-.711.628.1-.375-1.062a15.4 15.4 0 0 1-2.79-3.837c-1.032-.55-1.154-2.172-1.256-.054.01-1.334-1.247-2.235-1.553-1.86 0-1.285 1.344-.643.4-1.592-.2-1.334-.872-2.722-1.071-4.227-.312-.726-.044-2.279-1.066-.638-.37 1.738-.122-2.133.458-.857.76-1.3-.273-1.149-.317-.969.5-1.1.312-2.659-.131-2.065.263-1.164.419-4.285-.394-3.73.492-1.217.935-5.57-1.2-3.91a9.1 9.1 0 0 0-3.073.667c2.22 1.222-.224.443-1.13.248-.117 1.135-1.013.643-2.133.652 1.787.219-.872 1.826-1.894 1.2-1.334.638 1.149 2.225.024 2.717.136.74-2.04-.268-1.87 1.441-1.29-.545-.175 2.026.467 1.159 2.2.594 1.548 1.953 1.6 3.238-.36.75-1.768-1.763-.312-1.646-1.149-1.865-1.271-.672-2.22.19-.219.063 2.43 1.232.764 1.811 1.466.229 1.509 1.509 1.807 2.318.881.915.7-1.013 1.753.088-.667-.984-3.53-2.766-1.227-2.2-.015-.988-.419-1.787.292-1.768.7-1.266-.735 3.126.842 1.514.438-.19.545-1.266 1.329.1 1.139 1.12.414 1.933-1.2.906.287.979 2.152 1.324 1.8 2.853.37 1.344.891.847 1.344.769.355 1.3.555.346.575-.278 1.626.351 1.247 1.31 1.753 1.982 1.12.506-1.6-3.428.321-1.183 2.026 1.826.76 2.59-1.057 2.3 1.149-.093 1.519 1.553 2.956 1.495 1.31.623 2.2 3.019-.058 2.021-.784-.706-3.559-1.578-1.29-.234a54 54 0 0 1 5.775 2.766c1.441 1.032 2.069 2.211 2.615 2.444-1.212.579-3.657-.463-1.841-.784-1.135-.2-2.405-.779-1.32.633.92.769 3.267.691 3.691.774-.355.784-.969.847.015.906-1.1.594.351.687.453 1.023Zm-2.24-6.33c-.667-.7-.838-2-.117-.867.363.146 1.176 2.133.114.867Zm7.3 4.636c.41-.03.006.316-.004-.001Zm-8.351-6.345c-.033-1.057.235.813-.003 0Zm-.726-.979c-.845-1.617 1.054.462-.003 0Zm-8.794-6.067c.489-.132.241.842-.003 0Zm7 3.793c.296-1.135.35.954-.006 0Zm-4.942-3.438c-.352-.626.724.589-.006 0Zm4.241 1.359c-.794-1.777.565-.974.175.292Zm-7.314-4.874a5.7 5.7 0 0 1-.755-2.819c.17.852 1.811 3.667.8 1.164-1.11-2.094 1.329.682 1.583 1.2.117.521-.687-.141-.141 1.076-.996-1.386-.587.768-1.493-.621Zm-2.265-1.559c.093-1.358.516.93 0 0m1.01.348c.49-1.024.826 1.43 0 0m-2.444-1.894c-.842-.838-1.451-1.607.039-.521.575.024-1.276-1.753.136-.565 1.493.28.738 2.443-.173 1.089Zm1.285-.034c.49-.479.259.48.003.003Zm.789.253c-.737-1.385.904.587.003.003Zm-1.568-1.5c-2.444-2.177 3.073 1.139.4.4Zm7.01 4.075c-1.062-.633-.282-4.47.078-1.845 1.027-.331-.058 1.354.711 1.339-.117 1.06-.461 1.445-.789.506m2.6 1.534c.097-1.16.214.788-.005-.001Zm-.453-.448c.112-.493.01.583-.005-.001Zm-8.672-5.872c-1.573-2.167 4.567 2.2 1.008.55-.38-.104-.828-.138-1.013-.552Zm5 2.644c-.16-1.828.322.3-.009-.002Zm3.788 2.435c.283-1.044.016.685-.009-.002Zm-8.541-5.906c.935-.2 3.871 1.641 1.174.526-.311-.338-.949-.187-1.183-.528Zm8.02 4c.1-1.87.56-1.115 0 .268Zm-7.328-4.65c.38-.56-1.013-2.522.2-.706.526.414 1.514.7.638.872 1.376 1.212-.341.326-.847-.171Zm6.925 4.063c.263-2.13.229 1.245 0 0m-7.728-6.03c.292-.127.156.385 0 0m1.807 1.076c.467-.979.862 1.086 0 0m5.1 2.834c-.002-.38.095.545-.002 0Zm-.292-.652c-.708-1.749.655.925.002-.001Zm-.433-1.144c-.124-.722.402.905-.003-.001Zm.706-1.149c-.487-.857.614-3.774.735-1.962-.511 1.407-.146 2.2.209.307.662-1.49-.141 2.931-.945 1.656Zm.726-4.339c.211-.259.046.316-.003.004ZM19.835 42.62c-.287-.253.035.161 0 0m2.5 1.266c1.393.36 1.383-.214.127-.385-.677-.628-2.81-1.3-.9-.078.131.317.531.307.774.463Zm-4.939-3.279c.764.575 2.887 1.617 1.091.219.6-.7-1.159-1.076-.575-1.548-1.49-.911-1.174-.828-.131-.8-1.787-.8.258-.74.161-1.149-.691-.136-3.423-1.217-1.816.088-1.636-.833-.39.312-.886.19-1.675-.458 1.49 1.276-.263.842.959.76 2.581 1.948.4.8-.274.416 1.566 1.044 2.019 1.358m2.615 1.5c3.179 1.025-1.557-1.254 0 0m13.39 8.11c.039-.633-.438.54 0 0m1.373.579c.735-.711.029 1.135 1.217-.175.015-.935-.034-1.49-1.363-.351-.365.205-.53 1.066.147.526ZM12.936 37.079c-.229-.886-1.582-.881 0 0m1.466.964c-.548-.905-1.948-.818-.001 0Zm8.361 5.04c.818.726 3.749.531.988.088-.405-.604-2.591-.458-.989-.088Zm11.491 7.095c1.251-1.052-1.218.472 0 0m2.61 1.8c.009-.34-.541.142-.001-.004Zm0-.472c1.397-1.479-1.344.084.004.001ZM9.318 34.055c-1.183-1.69-.735-2.449-1.88-3.832-.219-1.057-1.962-3.452-.9-.915.969 1.485 1.256 3.783 2.78 4.748Zm27.112 16.98c2.561-1.656-1.047-.721 0 0m1.953.764c1.285-1.1-.809-.229 0 0M12.497 35.207c.371-.543-.943-.066 0 0m25.482 16.066c1.242-.8-.287-.677-.224.073ZM21.14 40.663c-.043-.541-.657.044 0 0m1.042.6c-.335-.673-.511.101.001-.001ZM39.97 51.814c1.592-1.149-.964-.219-.331.219Zm-.614-.292c1.298-1.086-1.363.485-.002-.001Zm3.111 2.069c.873-.584-1.056-.184.001 0ZM13.296 34.815c1.164.263 4.655 2.868 2.6.18-1.057-.312-.424-2.892-1.5-2.435.721 1.208.594 1.719-.925.959-1.9-.93-1.071.458-.7.842-.506.122.677.443.526.453Zm-5.308-4.192c.209-.862-1.923-4.748-1.008-1.948.332.589.298 1.699 1.009 1.947Zm9.743 6.009c-.598-.502-.028-.074.001-.001Zm1.475.346c.001-.917-1.63-.376.001-.001Zm12.808 8.067c-.244-.623-.96-.009 0 0m.614.453c-.089-.35-.351.068-.001 0Zm5.079 3.194c.486-.36-.61-.043-.001 0Zm-27.07-17.393c1.398-.54-1.494-.384 0 0m20.252 12.758c-.02-.906-.891.224 0 0m-20.8-14.043c.894-.307-.835-.2-.002 0Zm2.6 1.261c-.016-.297-.274.112-.002 0Zm31.756 19.472c1.154-.234 3.783.589 4.207-.307-1.4-.034-4.845-.988-5.006.224l.307.049Zm-30.93-19.263c.024-.915-.711-.034 0 0m-6.841-4.747c-.312-1.743-1.183-.263 0 0m1.631.409c.019-.56-1.495-.502 0 0m.93.458c-.268-.215-.209.277 0 .003Zm5.872 3.764c.278-.254-.653-.186 0-.001Zm-6.491-4.8c-.162-1.316-1.889-.192.001.003Zm-3.345-2.172c-.048-.605-.326.232 0 .004Zm.5-.375c-.086-.714-.431.096-.003.004Zm2.751 1.641c1.164-.458-2.118-.945-.239-.088ZM45.326 48.4c.745-.681-.944-.209 0 0m4.446 2.307c.297-.88-.75.113 0 0M8.797 24.224c.126-.852-.92.171 0 0m-3.91-2.617c-.209-1.2-.18-3.321 1.831-2.605-2.683.536 1.86 3.335 1.285 1.125 1.13.054 2.206-.667 1.617.429 2.225-.243 3.764-2.172 5.911-1.9a23.6 23.6 0 0 0 5.3-1.062c1.48-.107 2.907-1.7 2.1-2.649a23 23 0 0 0-6.369.526c-2.474.516-4.723 1.49-7.221 1.914-2.435.326.487.9-.209 1.027-1.271.438 1.514.74-.166 1.2-1.037-.2-2.118-.555-1.675-1.646-2.332.3-4.382 1.271-2.537 3.642h.131Zm5.619-2.863c.545-2.016 2.926 1.656.9.268a1.25 1.25 0 0 0-.9-.271Zm.107-.979c.789-.587.419.329 0-.002Zm1 .019c.073-.925 2.293.492.365.331Zm1.368-.555c.505-.586.149.519.003-.002Zm.351-.234c.833-1 4.718-.638 1.875-.1-.753-.574-1.341.342-1.872.098Zm5.074-.779c-.124-2.738 2.525.967.003-.002Zm1.448-.009c.526-1.378 2.045-.555.243-.278.036.144-.057.709-.243.278M8.232 23.518c1.573-.964-1.67-.837 0 0m1.164.321c.55-.584-1.198-.238 0 .001Zm-3.428-2.432c.901-.689-1.062-.26 0 0m46.428 29.048c.025-.803-.686.36 0 0m-4.718-3.218c.136-.93-.604.077 0 0m6.018 3.53c1.256 0 3.808-.39 1.071-.39-.428.064-2.497.054-1.07.39ZM10.418 23.275c1.018-.068 1.592-1.12-.2-1.062-2.771-.287 2.444.95-.355.594-.375.249.531.536.555.468m.9.453c-.111-.653-.32.345-.004 0Zm1.062-2.834c.434-.546-.618-.146-.004 0Zm-3.384-5.648c1.816-.618 4.295-1.31 5.152.3-.872-1.047-.351-2.084.472-.545 1.164 1.553 1.748-.706.988-1.227.862 1.071 1.845 1.578.579.068 1.378-1.656-2.756.219-3.7.2-.448.2-4.665 1.071-3.5 1.2Zm1.058-2.039c1.037-.779 3.579.467 1.948-.774-.157-.143-3.575.942-1.948.774m3.774.156c1.212.029-.521-1.626.92-.876-.239-.774-1.68-.92-2.386-1.227-.395.708.812 2.115 1.47 2.106Zm-3.111-3.428c.422-.562-.732.295.003.003Zm1.539.37c1.953-.258-.5-.838-.394-.019Zm-2.878-2.25c-1.373-1.8 2.586.3 1.188-1.578-1.17-.931-2.3 1.055-1.185 1.581Zm17.632 9.5c.628-1.115-2.6-1.5-.424-.394.208.066.159.47.427.392Z"/></g></svg>