<svg xmlns="http://www.w3.org/2000/svg" width="60" height="60" fill="none"><path fill="#282928" d="M12.09 12.66c0-.39.316-.704.704-.704h.092a.703.703 0 1 1 0 1.406h-.092a.703.703 0 0 1-.703-.703m-2.44.702h.092a.703.703 0 0 0 0-1.406h-.091a.703.703 0 0 0 0 1.406m6.288 0h.091a.703.703 0 0 0 0-1.406h-.091a.703.703 0 0 0 0 1.406m25.926 13.099v11.16a.703.703 0 0 1-.703.704h-4.877v4.877a.703.703 0 0 1-.703.704H24.419a.703.703 0 0 1-.703-.703v-4.878H18.84a.703.703 0 0 1-.703-.703V26.46c0-.389.315-.703.703-.703h4.877V20.88c0-.388.315-.703.703-.703h11.162c.388 0 .703.315.703.703v4.878h4.877c.388 0 .703.314.703.703M23.716 36.919V32.04c0-.388.315-.703.703-.703h10.458v-9.755h-9.755v4.175H30a.703.703 0 0 1 0 1.406H19.542v9.755zm16.742-9.755h-4.174v4.877a.703.703 0 0 1-.703.703H25.122V42.5h9.755v-4.174H30a.703.703 0 0 1 0-1.406h10.458zm-12.115-4.197h-.814a.703.703 0 0 0 0 1.406h.814a.703.703 0 0 0 0-1.406m3.314 18.148h.814a.703.703 0 0 0 0-1.406h-.814a.703.703 0 0 0 0 1.406M55.034 19.93v26.906a2.51 2.51 0 0 1-2.508 2.508H24.085q.061.39.063.797A5.154 5.154 0 0 1 19 55.288H4.486a3.937 3.937 0 0 1-3.9-3.925 3.94 3.94 0 0 1 3.108-3.84 4 4 0 0 1 1.272-3.046V11.68a2.51 2.51 0 0 1 2.508-2.507h32.73a3.65 3.65 0 0 1 1.647-.9 3.93 3.93 0 0 1 2.564.286c.71-2.361 2.997-4.01 5.546-3.833 2.698.19 4.813 2.37 4.998 5.002a5.16 5.16 0 0 1 4.455 5.106 5.16 5.16 0 0 1-4.38 5.095M6.372 11.68v3.06h29.684a3.95 3.95 0 0 1 2.882-2.524 4 4 0 0 1 .299-1.637H7.474c-.608 0-1.102.494-1.102 1.101m16.37 38.46A3.746 3.746 0 0 0 19 46.398a.703.703 0 0 1-.702-.745 3.994 3.994 0 0 0-3.692-4.207 3.993 3.993 0 0 0-4.248 3.646.703.703 0 0 1-1.173.463 2.57 2.57 0 0 0-1.714-.663q-.275 0-.544.062c-.579.137-1.108.539-1.45 1.102a2.53 2.53 0 0 0-.31 1.913.703.703 0 0 1-.676.875 2.526 2.526 0 0 0-2.499 2.519 2.526 2.526 0 0 0 2.5 2.519H19a3.746 3.746 0 0 0 3.741-3.742m30.886-3.304V19.987H39.73a3.94 3.94 0 0 1-3.901-3.841H6.372V43.65q.115-.037.232-.065a3.93 3.93 0 0 1 2.561.285c.71-2.358 2.992-4.007 5.54-3.828 2.695.19 4.807 2.367 4.993 4.996a5.16 5.16 0 0 1 3.953 2.898h28.876c.607 0 1.1-.494 1.1-1.101m4.38-32.002a3.75 3.75 0 0 0-3.747-3.747.703.703 0 0 1-.702-.745 4 4 0 0 0-3.697-4.213 3.997 3.997 0 0 0-4.254 3.65.704.704 0 0 1-1.173.464 2.58 2.58 0 0 0-1.716-.664q-.276 0-.545.063c-.58.137-1.11.539-1.453 1.103a2.53 2.53 0 0 0-.31 1.916.703.703 0 0 1-.676.875 2.53 2.53 0 0 0-2.502 2.522 2.53 2.53 0 0 0 2.502 2.523h14.526a3.75 3.75 0 0 0 3.747-3.747m-6.767-7.63a3.25 3.25 0 0 0-2.82-.214.703.703 0 1 0 .511 1.31 1.85 1.85 0 0 1 1.606.121c.492.284.823.77.909 1.33a.703.703 0 0 0 1.39-.211 3.25 3.25 0 0 0-1.596-2.336M15.984 42.518a3.25 3.25 0 0 0-2.818-.214.703.703 0 1 0 .511 1.31 1.85 1.85 0 0 1 1.604.122c.49.283.821.767.907 1.327a.703.703 0 1 0 1.39-.212 3.25 3.25 0 0 0-1.594-2.333"/></svg>