<svg xmlns="http://www.w3.org/2000/svg" width="60" height="60"><defs><clipPath id="b"><path fill="#282928" d="M0 0h54v54H0z"/></clipPath><clipPath id="a"><path d="M0 0h60v60H0z"/></clipPath></defs><g clip-path="url(#a)"><g fill="#282928" clip-path="url(#b)" transform="translate(3 3)"><path d="M49.667 3.928h-6.9a.791.791 0 0 0 0 1.582h6.9a.791.791 0 0 0 0-1.582M38.846 5.51h.841a.791.791 0 0 0 0-1.582h-.841a.791.791 0 0 0 0 1.582M38.846 9.227h10.826a.791.791 0 0 0 0-1.582H38.846a.791.791 0 0 0 0 1.582M41.707 46.84a14.45 14.45 0 0 0-2.976-8.764l.147-2.7a3.217 3.217 0 0 0-3.214-3.394H27a1.51 1.51 0 0 1-.64-1.233v-2.208a8.96 8.96 0 0 0 2.978-3.037h1.531a3.215 3.215 0 0 0 3.212-3.212v-5.907a2.55 2.55 0 0 0-1.438-2.294V9.945a3.427 3.427 0 0 0-3.423-3.423h-.089a.1.1 0 0 1-.1-.1 3.427 3.427 0 0 0-3.423-3.423h-8.373a7.55 7.55 0 0 0-7.541 7.541v3.548a2.55 2.55 0 0 0-1.438 2.294v3a2.55 2.55 0 0 0 2.544 2.556h1.021a8.88 8.88 0 0 0 2.956 5.7 11 11 0 0 0 1.194.9v2.218a1.51 1.51 0 0 1-.643 1.233H6.677a3.217 3.217 0 0 0-3.214 3.394l.147 2.7A14.45 14.45 0 0 0 .633 46.84v2.979a2.49 2.49 0 0 0 1.859 4.148h37.356a2.49 2.49 0 0 0 1.859-4.149Zm-1.582 0V49a3 3 0 0 0-.277-.016h-1.71l.446-8.225a12.85 12.85 0 0 1 1.541 6.081m-7.7-30.841a1 1 0 0 1 .081.386v3a.97.97 0 0 1-.967.967h-.941v-2.977l.487-.17a2.33 2.33 0 0 0 1.336-1.206Zm-5.286 9.168h-1.985a.58.58 0 1 1 0-1.161h1.985a.58.58 0 1 1 0 1.161m3.733-1.242h-.8a9.3 9.3 0 0 0 .458-1.983h1a2.5 2.5 0 0 0 .967-.191v.545a1.63 1.63 0 0 1-1.625 1.626Zm-19.6-13.379a5.966 5.966 0 0 1 5.959-5.959h8.377a1.843 1.843 0 0 1 1.841 1.841 1.68 1.68 0 0 0 1.68 1.68h.089a1.843 1.843 0 0 1 1.841 1.841v5.059a.75.75 0 0 1-.5.707l-1.662.579a.1.1 0 0 1-.136-.1v-3.143c.01-2.294-2.138-4.295-5.148-3.328a8.4 8.4 0 0 1-4.9 0c-2.978-.957-5.158 1.008-5.148 3.326v3.146a.1.1 0 0 1-.136.1l-1.663-.579a.75.75 0 0 1-.5-.707Zm-1.434 8.843v-3a1 1 0 0 1 .081-.386 2.33 2.33 0 0 0 1.339 1.206l.487.17v2.978h-.941a.97.97 0 0 1-.966-.968m3.5 1.636c-.026-1.04-.01-2.144-.014-3.154.049 0 .1.007.146.007a1.685 1.685 0 0 0 1.685-1.687v-3.148c-.005-1.284 1.147-2.437 3.082-1.815a9.96 9.96 0 0 0 5.864 0c1.844-.592 3.088.451 3.082 1.818v3.146a1.684 1.684 0 0 0 1.831 1.68v3.218a7.8 7.8 0 0 1-.326 1.985 2.15 2.15 0 0 0-1.546-.653h-1.988a2.163 2.163 0 1 0 0 4.325h1.005a8.1 8.1 0 0 1-4.948 1.765 7.756 7.756 0 0 1-7.869-7.487Zm4.215 9.724v-1.382a9.6 9.6 0 0 0 3.651.728h.018a9.7 9.7 0 0 0 3.555-.721v1.378a3.1 3.1 0 0 0 .257 1.233H17.3a3.1 3.1 0 0 0 .258-1.236Zm-13.8 10.01.125 2.3a.791.791 0 0 0 1.58-.086l-.417-7.685a1.636 1.636 0 0 1 1.636-1.721h28.986A1.636 1.636 0 0 1 37.3 35.29l-.743 13.695H24.15a4.86 4.86 0 0 1 1.185-2.45l.023-.025a5.62 5.62 0 0 0-1.417-8.626 1.206 1.206 0 0 0-1.8 1.047v3.589a.3.3 0 0 1-.3.3H20.5a.3.3 0 0 1-.3-.3v-3.589a1.206 1.206 0 0 0-1.8-1.047 5.62 5.62 0 0 0-1.415 8.629l.02.023a4.86 4.86 0 0 1 1.185 2.45H5.786l-.127-2.339a.791.791 0 0 0-1.58.086l.121 2.252H2.492a3 3 0 0 0-.277.016v-2.16a12.86 12.86 0 0 1 1.54-6.082Zm16.033 8.225a6.43 6.43 0 0 0-1.607-3.508l-.019-.021a4.035 4.035 0 0 1 .458-5.812v2.876a1.88 1.88 0 0 0 1.88 1.88h1.339a1.883 1.883 0 0 0 1.88-1.88v-2.875a4.035 4.035 0 0 1 .456 5.814l-.017.019a6.43 6.43 0 0 0-1.607 3.508Zm20.06 3.4H2.492a.91.91 0 1 1 0-1.82h37.356a.91.91 0 1 1 0 1.82Z"/><path d="M53.209 5.447A.79.79 0 0 0 54 4.656V3.125A3.1 3.1 0 0 0 50.908.033h-13.3a3.1 3.1 0 0 0-3.091 3.091v6.654a3.1 3.1 0 0 0 3.091 3.092.553.553 0 0 1 .552.552v4.115a1.306 1.306 0 0 0 2.426.672l3.041-5.071a.56.56 0 0 1 .474-.268h6.811a3.1 3.1 0 0 0 3.091-3.092V8.354a.791.791 0 1 0-1.582 0v1.424a1.51 1.51 0 0 1-1.509 1.509h-6.815a2.15 2.15 0 0 0-1.832 1.038l-2.528 4.216v-3.119a2.137 2.137 0 0 0-2.135-2.134 1.51 1.51 0 0 1-1.507-1.51V3.125a1.51 1.51 0 0 1 1.509-1.509h13.3a1.51 1.51 0 0 1 1.509 1.509v1.53a.79.79 0 0 0 .796.792"/></g></g></svg>