<svg xmlns="http://www.w3.org/2000/svg" width="60" height="60"><defs><clipPath id="a"><path d="M0 0h60v60H0z"/></clipPath></defs><g fill="#282928" clip-path="url(#a)"><path d="M29.646 26.882h-1.069c0 .4 0 1.674.006 2.058h1.063a1.033 1.033 0 1 0 0-2.055ZM39.388 26.924h-1.166v2.4h1.159a1.2 1.2 0 1 0 0-2.395Z"/><path d="m56.203 36.116-5.561-3.215a19.8 19.8 0 0 0 0-5.348l5.563-3.212a1.6 1.6 0 0 0 .584-2.179l-6.409-11.1a1.6 1.6 0 0 0-2.179-.584l-5.566 3.213a20.7 20.7 0 0 0-4.628-2.668V4.601a1.6 1.6 0 0 0-1.6-1.6H23.592a1.6 1.6 0 0 0-1.6 1.6v6.426a20.7 20.7 0 0 0-4.628 2.668l-5.561-3.213a1.6 1.6 0 0 0-2.179.584l-6.409 11.1a1.6 1.6 0 0 0 .584 2.179l5.563 3.212a19.8 19.8 0 0 0 0 5.348l-5.563 3.211a1.6 1.6 0 0 0-.584 2.179l6.409 11.1a1.6 1.6 0 0 0 2.179.584l5.566-3.213a20.7 20.7 0 0 0 4.628 2.668v6.431a1.6 1.6 0 0 0 1.6 1.6H36.41a1.6 1.6 0 0 0 1.6-1.6v-6.431a20.7 20.7 0 0 0 4.628-2.668l5.566 3.213a1.6 1.6 0 0 0 2.179-.584l6.409-11.1a1.6 1.6 0 0 0-.589-2.179m-33.634-7.082a1.2 1.2 0 0 1 0 2.393h-2.54v2.393h2.837a1.2 1.2 0 1 1 0 2.393h-4.033a1.2 1.2 0 0 1-1.2-1.2v-9.569a1.2 1.2 0 0 1 1.2-1.2h4.034a1.2 1.2 0 1 1 0 2.393h-2.838v2.393Zm10.6 5.192a1.2 1.2 0 0 1-1.8 1.581l-3.081-3.5v2.71a1.2 1.2 0 0 1-2.393 0v-9.573a1.2 1.2 0 0 1 1.2-1.2h2.547a3.76 3.76 0 0 1 3.825 3.685 3.71 3.71 0 0 1-2.731 3.53Zm6.1-2.183c-.339 0-.931 0-1.469.005v2.968a1.2 1.2 0 0 1-2.393 0v-9.568a1.2 1.2 0 0 1 1.2-1.2h2.666a3.9 3.9 0 1 1 0 7.8Z"/></g></svg>