<svg xmlns="http://www.w3.org/2000/svg" width="60" height="60" fill="none"><g fill="#282928" clip-path="url(#a)"><path d="M56.776 36.007a3.1 3.1 0 0 0 1.012-2.291v-7.431a3.106 3.106 0 0 0-3.101-3.105h-1.892a24.8 24.8 0 0 0-2.18-5.257l1.338-1.338a3.08 3.08 0 0 0 .908-2.2c-.001-.83-.324-1.607-.908-2.19l-5.254-5.253a3.08 3.08 0 0 0-2.196-.91c-.832 0-1.611.324-2.194.908L40.97 8.278a24.8 24.8 0 0 0-5.257-2.18V4.207a3.106 3.106 0 0 0-3.105-3.102h-7.43a3.106 3.106 0 0 0-3.105 3.102v1.891a24.8 24.8 0 0 0-5.257 2.18L15.479 6.94a3.107 3.107 0 0 0-4.389 0l-5.254 5.255a3.08 3.08 0 0 0-.909 2.191c0 .832.322 1.613.908 2.199l1.338 1.338a24.8 24.8 0 0 0-2.18 5.257H3.101A3.106 3.106 0 0 0 0 26.284v7.432a3.106 3.106 0 0 0 3.101 3.104h1.892a24.8 24.8 0 0 0 2.18 5.258l-1.337 1.336a3.08 3.08 0 0 0-.909 2.196c0 .832.323 1.612.908 2.194l5.254 5.254a3.07 3.07 0 0 0 2.191.91 3.1 3.1 0 0 0 2.199-.908l1.338-1.338a24.8 24.8 0 0 0 5.257 2.18v1.891a3.106 3.106 0 0 0 3.104 3.102h7.431a3.106 3.106 0 0 0 3.105-3.102v-1.892a25 25 0 0 0 3.456-1.272 12.08 12.08 0 0 0 8.716 3.711c1.985 0 3.956-.492 5.7-1.422a.879.879 0 0 0-.828-1.551 10.4 10.4 0 0 1-4.872 1.215c-5.71 0-10.355-4.645-10.355-10.356 0-5.71 4.645-10.356 10.355-10.356s10.356 4.646 10.356 10.356c0 2.54-.93 4.984-2.621 6.884a.879.879 0 1 0 1.313 1.168 12.1 12.1 0 0 0-.158-16.271M46.436 32.2q.137-1.095.137-2.202c0-9.747-7.932-17.678-17.68-17.678-2.892 0-5.761.715-8.3 2.067a.879.879 0 1 0 .826 1.551 15.95 15.95 0 0 1 7.473-1.86c8.78 0 15.923 7.142 15.923 15.92 0 .86-.07 1.721-.206 2.565-5.092 1.433-8.836 6.12-8.836 11.663l.002.135q-1.226.59-2.52.958v-8.986c3.627-1.603 6.023-5.232 6.023-9.218 0-3.329-1.65-6.442-4.415-8.326-.399-.273-1.613-1.103-2.614-.526-.98.564-.879 1.92-.83 2.571q.007.098.01.152v5.524c0 1.44-1.11 2.648-2.537 2.776a2.795 2.795 0 0 1-2.536-2.776v-5.522q.003-.057.01-.154c.05-.652.15-2.007-.828-2.571-1-.577-2.214.253-2.612.525a10.08 10.08 0 0 0-4.416 8.327c0 3.986 2.395 7.615 6.022 9.219v8.98c-6.665-1.9-11.56-8.047-11.56-15.316 0-4.631 2.012-9.023 5.52-12.05a.879.879 0 0 0-1.15-1.331 17.67 17.67 0 0 0-6.127 13.381c0 9.75 7.93 17.682 17.677 17.682 2.465 0 4.829-.492 7.046-1.461a12.05 12.05 0 0 0 2.066 5.004c-1.097.47-2.232.858-3.387 1.154-.389.1-.66.45-.66.852v2.564c0 .741-.605 1.344-1.348 1.344h-7.43a1.347 1.347 0 0 1-1.347-1.344V53.23a.88.88 0 0 0-.662-.852 23 23 0 0 1-6.05-2.509.88.88 0 0 0-1.07.135l-1.814 1.814a1.34 1.34 0 0 1-.953.392h-.001c-.36 0-.697-.139-.949-.392L7.077 46.56a1.33 1.33 0 0 1-.392-.95c0-.361.14-.699.393-.952l1.814-1.813a.88.88 0 0 0 .134-1.07 23 23 0 0 1-2.509-6.051.88.88 0 0 0-.851-.662H3.1c-.74 0-1.343-.604-1.343-1.346v-7.432c0-.742.603-1.346 1.343-1.346h2.565a.88.88 0 0 0 .851-.662 23 23 0 0 1 2.509-6.05.88.88 0 0 0-.134-1.07l-1.814-1.814a1.34 1.34 0 0 1-.393-.955c0-.36.14-.696.393-.948l5.256-5.257a1.33 1.33 0 0 1 .948-.391h.001c.361 0 .7.139.953.392l1.813 1.814a.88.88 0 0 0 1.07.135 23 23 0 0 1 6.051-2.51c.39-.099.662-.45.662-.85V4.206c0-.741.604-1.344 1.346-1.344h7.431c.743 0 1.347.603 1.347 1.344V6.77c0 .402.272.752.661.852a23 23 0 0 1 6.051 2.509.88.88 0 0 0 1.07-.135l1.815-1.815c.252-.252.59-.391.95-.391.361 0 .699.139.952.393l5.256 5.256c.252.251.391.588.392.948 0 .361-.14.7-.393.954l-1.814 1.814a.88.88 0 0 0-.134 1.07 23 23 0 0 1 2.508 6.05c.1.39.45.662.852.662h2.564c.741 0 1.344.604 1.344 1.347v7.43c0 .43-.213.831-.55 1.081a12.06 12.06 0 0 0-9.043-2.596m-20.72 2.718c-3.26-1.207-5.449-4.343-5.449-7.803a8.32 8.32 0 0 1 3.65-6.875c.343-.235.568-.338.7-.383q.04.26-.003.846a4 4 0 0 0-.015.283v5.524c0 2.381 1.86 4.373 4.234 4.535q.06.003.12 0a4.557 4.557 0 0 0 4.233-4.535v-5.524c0-.082-.006-.17-.015-.281q-.044-.588-.001-.85c.13.046.356.15.702.386a8.32 8.32 0 0 1 3.649 6.874c0 3.46-2.19 6.596-5.45 7.803a.88.88 0 0 0-.573.824v9.969a16.2 16.2 0 0 1-5.208-.003v-9.966a.88.88 0 0 0-.574-.824"/><path d="M53.805 38.84a3.02 3.02 0 0 0-4.243.376l-3.06 3.648-.505-.428a3.016 3.016 0 0 0-4.246.352 3.02 3.02 0 0 0 .352 4.244l2.815 2.39a2.95 2.95 0 0 0 2.203.702 2.94 2.94 0 0 0 2.054-1.069l5.003-5.97a3 3 0 0 0 .692-2.2 3 3 0 0 0-1.065-2.045m-.975 3.117-5.004 5.972a1.18 1.18 0 0 1-.854.444 1.19 1.19 0 0 1-.918-.293L43.24 45.69a1.254 1.254 0 0 1 1.62-1.915l1.18 1a.88.88 0 0 0 1.241-.105l3.628-4.326c.444-.53 1.238-.6 1.768-.156.256.214.413.516.442.85a1.25 1.25 0 0 1-.289.918"/></g><defs><clipPath id="a"><path fill="#fff" d="M0 0h60v60H0z"/></clipPath></defs></svg>