<svg xmlns="http://www.w3.org/2000/svg" width="60" height="60"><defs><clipPath id="a"><path d="M0 0h60v60H0z"/></clipPath></defs><g fill="#282928" clip-path="url(#a)"><path d="M39.389 30.432a.79.79 0 0 0 .792-.792v-5.72a.79.79 0 0 0-.514-.742l-9.39-3.521a.8.8 0 0 0-.556 0l-9.39 3.521a.79.79 0 0 0-.514.742v2.543a.792.792 0 0 0 1.584 0v-1.4l7.805 2.927v10.47l-7.805-2.927v-5.366a.792.792 0 1 0-1.584 0v5.915a.79.79 0 0 0 .514.742l9.39 3.521a.78.78 0 0 0 .556 0l9.39-3.521a.79.79 0 0 0 .514-.742v-2.75a.792.792 0 1 0-1.584 0v2.2l-7.805 2.927V27.988l7.805-2.927v4.578a.79.79 0 0 0 .792.793m-9.39-3.838-7.133-2.675 7.133-2.675 7.133 2.675ZM29.212 10.867v5.693a.792.792 0 0 0 1.584 0v-5.693a3.993 3.993 0 1 0-1.584 0m.792-6.323a2.409 2.409 0 1 1-2.409 2.409A2.41 2.41 0 0 1 30 4.544ZM45.24 39.753a5.46 5.46 0 0 0-3.277 1.089l-1.9-1.9a.792.792 0 0 0-1.12 1.12l1.9 1.9a5.485 5.485 0 1 0 4.4-2.209Zm0 9.389a3.9 3.9 0 1 1 3.9-3.9 3.907 3.907 0 0 1-3.9 3.901ZM14.76 20.247a5.46 5.46 0 0 0 3.277-1.089l1.9 1.9a.792.792 0 0 0 1.12-1.12l-1.9-1.9a5.485 5.485 0 1 0-4.4 2.209Zm0-9.389a3.9 3.9 0 1 1-3.9 3.9 3.907 3.907 0 0 1 3.9-3.901ZM30.792 49.133v-5.689a.792.792 0 1 0-1.584 0v5.689a3.993 3.993 0 1 0 1.584 0M30 55.456a2.409 2.409 0 1 1 2.409-2.409A2.41 2.41 0 0 1 30 55.456M53.047 26.012a4 4 0 0 0-3.914 3.2h-5.689a.792.792 0 1 0 0 1.584h5.689a3.993 3.993 0 1 0 3.914-4.785Zm0 6.4a2.409 2.409 0 1 1 2.409-2.409 2.41 2.41 0 0 1-2.409 2.409M10.867 30.792h5.693a.792.792 0 0 0 0-1.584h-5.693a3.993 3.993 0 1 0 0 1.584m-3.914 1.62A2.409 2.409 0 1 1 9.36 30a2.41 2.41 0 0 1-2.407 2.412M39.507 21.286a.8.8 0 0 0 .56-.232l1.9-1.9a5.492 5.492 0 1 0-1.12-1.12l-1.9 1.9a.792.792 0 0 0 .56 1.352m5.734-10.429a3.9 3.9 0 1 1-3.9 3.9 3.907 3.907 0 0 1 3.899-3.9ZM19.934 38.946l-1.9 1.9a5.492 5.492 0 1 0 1.12 1.12l1.9-1.9a.792.792 0 0 0-1.12-1.12m-5.174 10.2a3.9 3.9 0 1 1 3.9-3.9 3.907 3.907 0 0 1-3.9 3.897Z"/></g></svg>