<svg width="60" height="60" viewBox="0 0 60 60" fill="none" xmlns="http://www.w3.org/2000/svg">
<path d="M45.5055 57.3059H39.7776V52.293H20.223V57.3059H14.4999C14.0323 57.3059 13.6523 57.6859 13.6523 58.1534C13.6523 58.621 14.0323 59.0009 14.4999 59.0009H45.5055C45.973 59.0009 46.353 58.621 46.353 58.1534C46.353 57.6859 45.973 57.3059 45.5055 57.3059Z" fill="#282928"/>
<path d="M54.9454 10.2576H36.1022C35.4358 8.21341 32.5061 3.28807 30.3151 1.20241C30.0227 0.93253 29.5481 0.93253 29.2533 1.20241C27.0742 3.27624 24.1363 8.16725 23.4438 10.2576H5.05397C3.38141 10.2576 2.0249 11.613 2.0249 13.2867V47.5688C2.0249 49.2307 3.38141 50.5967 5.05397 50.5967H54.9442C56.6179 50.5967 57.9744 49.2307 57.9744 47.5688V13.2867C57.9756 11.613 56.6191 10.2576 54.9454 10.2576ZM33.5383 14.79C33.5383 16.8579 31.8646 18.5541 29.786 18.5541C27.6944 18.5541 26.0112 16.8591 26.0112 14.79C26.0112 12.7103 27.6956 11.0152 29.786 11.0152C31.8646 11.0152 33.5383 12.7103 33.5383 14.79ZM32.3736 45.4772H27.6376C27.1618 45.4772 26.7901 45.1055 26.7901 44.6297C26.7901 44.1669 27.1618 43.7822 27.6376 43.7822H32.3736C32.8376 43.7822 33.2211 44.168 33.2211 44.6297C33.2211 45.1043 32.8376 45.4772 32.3736 45.4772ZM56.2794 39.6002H3.72113V13.2867C3.72113 12.5505 4.3189 11.9527 5.05515 11.9527H22.9691C22.5844 13.5341 22.3714 15.1629 22.3714 16.7786C22.3714 19.5129 22.9242 22.2378 24.0214 24.8265H35.5281C36.636 22.2378 37.1782 19.4916 37.1782 16.7561C37.1782 15.1392 36.9746 13.5341 36.5899 11.9527H54.9454C55.6816 11.9527 56.2806 12.5505 56.2806 13.2867L56.2794 39.6002Z" fill="#282928"/>
<path d="M26.7664 29.5553C26.9156 29.7518 27.1535 29.8666 27.3997 29.8666H28.929V31.7522C28.929 32.2198 29.309 32.5997 29.7765 32.5997C30.2441 32.5997 30.6241 32.2198 30.6241 31.7522V29.8666H32.1581C32.4031 29.8666 32.6411 29.753 32.7902 29.5553C33.5276 28.5811 34.1692 27.5643 34.7208 26.5215H24.8394C25.3921 27.5655 26.0301 28.5811 26.7664 29.5553Z" fill="#282928"/>
<path d="M19.3754 29.3588C19.5115 29.8678 20.2004 29.9483 20.4715 29.4831C21.1154 28.3882 21.9629 27.4045 22.9584 26.602C21.9747 24.5885 21.2965 22.4543 20.958 20.2598C19.0285 22.9953 18.5527 26.3333 19.3754 29.3588Z" fill="#282928"/>
<path d="M36.6016 26.6133C37.5959 27.4158 38.4327 28.3876 39.0755 29.4956C39.3371 29.9477 40.026 29.8803 40.1728 29.3831C41.0025 26.4251 40.561 23.0232 38.5902 20.2734C38.2516 22.4656 37.5734 24.601 36.6016 26.6133Z" fill="#282928"/>
<path d="M27.0101 31.7344C26.5426 31.7344 26.1626 32.1143 26.1626 32.5819V34.6924C26.1626 35.16 26.5426 35.5399 27.0101 35.5399C27.4777 35.5399 27.8576 35.16 27.8576 34.6924V32.5819C27.8576 32.1143 27.4777 31.7344 27.0101 31.7344Z" fill="#282928"/>
<path d="M32.5946 31.7344C32.127 31.7344 31.7471 32.1143 31.7471 32.5819V33.7171C31.7471 34.1846 32.127 34.5646 32.5946 34.5646C33.0622 34.5646 33.4421 34.1846 33.4421 33.7171V32.5819C33.4433 32.1143 33.0633 31.7344 32.5946 31.7344Z" fill="#282928"/>
</svg>
