<svg width="60" height="60" viewBox="0 0 60 60" fill="none" xmlns="http://www.w3.org/2000/svg">
<path d="M29.999 15C28.8123 15 27.6523 14.6481 26.6656 13.9888C25.6789 13.3295 24.9099 12.3925 24.4557 11.2961C24.0016 10.1997 23.8828 8.99335 24.1143 7.82946C24.3458 6.66557 24.9173 5.59648 25.7564 4.75736C26.5955 3.91825 27.6646 3.3468 28.8285 3.11529C29.9924 2.88378 31.1988 3.0026 32.2951 3.45673C33.3915 3.91085 34.3286 4.67989 34.9878 5.66658C35.6471 6.65328 35.999 7.81331 35.999 9C35.9969 10.5907 35.3641 12.1156 34.2394 13.2403C33.1146 14.3651 31.5897 14.9979 29.999 15ZM29.999 5.10989C29.2296 5.10989 28.4775 5.33804 27.8378 5.76549C27.1981 6.19294 26.6995 6.8005 26.405 7.51132C26.1106 8.22215 26.0336 9.00432 26.1837 9.75892C26.3338 10.5135 26.7043 11.2067 27.2483 11.7507C27.7923 12.2948 28.4855 12.6653 29.2401 12.8154C29.9947 12.9655 30.7769 12.8884 31.4877 12.594C32.1985 12.2996 32.8061 11.801 33.2335 11.1612C33.661 10.5215 33.8891 9.76939 33.8891 9C33.8877 7.96871 33.4774 6.98005 32.7482 6.25082C32.019 5.52159 31.0303 5.11129 29.999 5.10989Z" fill="#282928"/>
<path d="M40.9405 32H19.0588C18.7778 32 18.5082 31.894 18.3094 31.7054C18.1107 31.5168 17.999 31.261 17.999 30.9943V25.192C17.999 20.6752 21.872 17 26.6318 17H33.3662C38.1261 17 41.999 20.6752 41.999 25.192V30.9943C41.999 31.2608 41.8875 31.5164 41.6891 31.705C41.4906 31.8936 41.2214 31.9997 40.9405 32ZM20.1186 29.9886H39.8807V25.192C39.8788 23.5532 39.1918 21.982 37.9705 20.8232C36.7491 19.6645 35.0933 19.0129 33.3662 19.0114H26.6298C24.9034 19.0137 23.2483 19.6657 22.0277 20.8244C20.8071 21.983 20.1206 23.5537 20.1186 25.192V29.9886Z" fill="#282928"/>
<path d="M36.999 32C36.7338 32 36.4795 31.901 36.2919 31.7247C36.1044 31.5485 35.999 31.3095 35.999 31.0602V26.9398C35.999 26.6905 36.1044 26.4515 36.2919 26.2753C36.4795 26.099 36.7338 26 36.999 26C37.2642 26 37.5186 26.099 37.7061 26.2753C37.8937 26.4515 37.999 26.6905 37.999 26.9398V31.0602C37.999 31.3095 37.8937 31.5485 37.7061 31.7247C37.5186 31.901 37.2642 32 36.999 32Z" fill="#282928"/>
<path d="M22.999 32C22.7338 32 22.4795 31.901 22.2919 31.7247C22.1044 31.5485 21.999 31.3095 21.999 31.0602V26.9398C21.999 26.6905 22.1044 26.4515 22.2919 26.2753C22.4795 26.099 22.7338 26 22.999 26C23.2642 26 23.5186 26.099 23.7061 26.2753C23.8937 26.4515 23.999 26.6905 23.999 26.9398V31.0602C23.999 31.3095 23.8937 31.5485 23.7061 31.7247C23.5186 31.901 23.2642 32 22.999 32Z" fill="#282928"/>
<path d="M36.7159 48H25.0572C24.7816 48 24.5172 47.8896 24.3223 47.6931C24.1275 47.4966 24.018 47.2301 24.018 46.9522C24.018 46.6743 24.1275 46.4078 24.3223 46.2113C24.5172 46.0148 24.7816 45.9044 25.0572 45.9044H36.7159C37.308 45.8942 37.8724 45.65 38.2876 45.2242C38.7027 44.7985 38.9354 44.2253 38.9354 43.6283C38.9354 43.0312 38.7027 42.4581 38.2876 42.0323C37.8724 41.6066 37.308 41.3623 36.7159 41.3522H25.0286C24.9305 41.3522 22.5949 41.2704 19.6786 39.9966L19.4954 39.916C16.783 38.7163 14.7903 38.104 13.5731 38.0961C11.6103 38.0837 9.92808 38.489 8.57839 39.2959C8.46106 39.3678 8.33074 39.4156 8.19498 39.4365C8.05921 39.4574 7.92068 39.451 7.78741 39.4175C7.65413 39.3841 7.52874 39.3244 7.4185 39.2418C7.30825 39.1592 7.21534 39.0554 7.14512 38.9364C7.0749 38.8174 7.02878 38.6855 7.00941 38.5485C6.99004 38.4114 6.99782 38.2718 7.03228 38.1377C7.06675 38.0037 7.12723 37.8778 7.21022 37.7675C7.29321 37.6572 7.39707 37.5645 7.51579 37.4949C9.19543 36.4877 11.2362 35.9828 13.5868 36.0004C15.6152 36.0142 18.4068 37.1465 20.33 37.9966L20.5054 38.0738C22.9339 39.1348 24.911 39.2487 25.0773 39.2566H36.7159C37.8567 39.2706 38.946 39.7374 39.7477 40.5558C40.5494 41.3741 40.999 42.478 40.999 43.6283C40.999 44.7786 40.5494 45.8825 39.7477 46.7008C38.946 47.5191 37.8567 47.9859 36.7159 48Z" fill="#282928"/>
<path d="M29.708 57C29.2114 57 28.7122 56.9772 28.2104 56.9316C26.4681 56.7671 24.7644 56.3285 23.1651 55.6327L18.8214 53.7602C17.4991 53.1883 16.1429 52.6941 14.7603 52.2803C13.7754 51.9874 13.2562 51.8826 12.9946 51.8461C10.8738 51.5506 9.24802 51.5577 8.41683 51.8666C8.25821 51.9255 8.08732 51.9458 7.91889 51.9257C7.75047 51.9057 7.58956 51.8459 7.45003 51.7515C7.3105 51.657 7.19654 51.5309 7.11797 51.3838C7.0394 51.2368 6.99858 51.0732 6.99903 50.9073V38.9604C6.99903 38.689 7.10927 38.4288 7.30549 38.2369C7.50172 38.045 7.76786 37.9372 8.04537 37.9372C8.32288 37.9372 8.58902 38.045 8.78525 38.2369C8.98148 38.4288 9.09172 38.689 9.09172 38.9604V49.6455C10.193 49.5266 11.5971 49.5854 13.2902 49.8214C13.7852 49.8898 14.4673 50.0542 15.3705 50.3234C16.8334 50.7608 18.2681 51.2836 19.667 51.889L24.0113 53.7608C25.4045 54.3683 26.889 54.7514 28.4073 54.8953C29.5442 55.0017 30.6904 54.9669 31.8184 54.7917C33.2518 54.5653 35.3622 53.8683 36.1561 53.6061L36.2915 53.5613C44.2254 50.9604 51.4112 43.9685 54.1323 41.0907C54.4546 40.7556 54.6872 40.3479 54.8096 39.9037C54.932 39.4596 54.9404 38.9928 54.834 38.5447C54.6915 37.9634 54.3279 37.1774 52.8277 37.0579C52.1473 37.0067 51.4706 37.1942 50.9187 37.5867L40.8366 44.704C40.7253 44.7854 40.5987 44.8443 40.4639 44.8773C40.3291 44.9104 40.189 44.9168 40.0517 44.8963C39.9143 44.8758 39.7826 44.8288 39.664 44.758C39.5455 44.6872 39.4425 44.594 39.3612 44.4838C39.2799 44.3737 39.2218 44.2488 39.1903 44.1165C39.1589 43.9841 39.1547 43.847 39.178 43.7131C39.2013 43.5791 39.2517 43.4511 39.3261 43.3364C39.4006 43.2217 39.4977 43.1227 39.6117 43.045L49.6945 35.9278C50.649 35.249 51.8197 34.9252 52.9964 35.0146C55.0492 35.1783 56.4238 36.261 56.8666 38.0619C57.0538 38.8371 57.0424 39.6455 56.8332 40.4153C56.6241 41.1851 56.2238 41.8925 55.6679 42.4746C52.8375 45.4746 45.3483 52.7485 36.9553 55.5003L36.8245 55.5438C35.9848 55.8207 33.7548 56.5575 32.1499 56.8081C31.3425 56.9356 30.5259 56.9998 29.708 57Z" fill="#282928"/>
<path d="M5.99963 55C5.20416 54.9991 4.4415 54.6595 3.87897 54.0555C3.31644 53.4516 2.99998 52.6327 2.99902 51.7785V37.2215C2.99902 36.3671 3.31509 35.5477 3.8777 34.9436C4.44031 34.3394 5.20337 34 5.99902 34C6.79467 34 7.55773 34.3394 8.12034 34.9436C8.68295 35.5477 8.99902 36.3671 8.99902 37.2215V51.7785C8.99823 52.6325 8.68198 53.4513 8.11968 54.0553C7.55737 54.6592 6.79493 54.999 5.99963 55ZM5.99963 36.0674C5.71451 36.0676 5.44111 36.1892 5.23939 36.4055C5.03767 36.6219 4.92412 36.9154 4.92364 37.2215V51.7785C4.92364 52.0847 5.03694 52.3785 5.23861 52.595C5.44029 52.8116 5.71382 52.9333 5.99902 52.9333C6.28423 52.9333 6.55776 52.8116 6.75943 52.595C6.96111 52.3785 7.0744 52.0847 7.0744 51.7785V37.2215C7.07409 36.9155 6.96075 36.6222 6.75926 36.4058C6.55777 36.1894 6.28458 36.0677 5.99963 36.0674Z" fill="#282928"/>
</svg>
