<svg width="60" height="60" viewBox="0 0 60 60" fill="none" xmlns="http://www.w3.org/2000/svg">
<mask id="mask0_5921_2695" style="mask-type:luminance" maskUnits="userSpaceOnUse" x="6" y="12" width="48" height="36">
<path d="M53.1084 12H6V47.8444H53.1084V12Z" fill="white"/>
</mask>
<g mask="url(#mask0_5921_2695)">
<path d="M51.5436 21.7792L32.7652 12.6058C31.8183 12.206 30.801 12 29.7732 12C28.7453 12 27.7281 12.206 26.7812 12.6058L7.56476 21.7792C7.12993 21.927 6.74892 22.2008 6.47026 22.5659C6.1916 22.9309 6.0279 23.3707 6 23.8291C6 24.3142 6.21644 25.1787 7.56476 25.8802L9.12953 26.6352V35.2688C8.64111 35.4617 8.22117 35.7955 7.92323 36.228C7.62528 36.6604 7.46282 37.1717 7.45654 37.6968C7.46209 38.2147 7.61798 38.7199 7.90525 39.151C8.19254 39.582 8.59884 39.9203 9.07478 40.1248L6.64806 47.8391H13.4469L11.019 40.126C11.5026 39.927 11.9154 39.5876 12.2041 39.1515C12.4928 38.7155 12.644 38.2029 12.6383 37.68C12.6325 37.1569 12.47 36.6478 12.1718 36.2182C11.8736 35.7886 11.4534 35.4584 10.9655 35.2701V27.5532L13.8251 28.9537V40.1782C13.8292 40.3524 13.8856 40.5215 13.9868 40.6633C15.8656 42.957 18.2404 44.7946 20.9323 46.0375C23.6241 47.2805 26.5631 47.8965 29.5275 47.8391C32.4843 47.8965 35.4154 47.28 38.0988 46.0366C40.782 44.7931 43.147 42.9552 45.0147 40.6621C45.1159 40.5202 45.1722 40.3511 45.1764 40.177V29.0097L51.5424 25.8802C51.9777 25.7325 52.359 25.4586 52.638 25.0932C52.9169 24.728 53.0806 24.2879 53.1084 23.8291C53.0674 23.3746 52.8988 22.941 52.6219 22.5783C52.3451 22.2155 51.9712 21.9385 51.5436 21.7792ZM43.4499 39.9096C41.7277 41.9069 39.5885 43.5023 37.1831 44.5838C34.7778 45.6651 32.1645 46.2061 29.5275 46.1686C26.8904 46.2061 24.2772 45.6651 21.8718 44.5838C19.4664 43.5023 17.3273 41.9069 15.605 39.9096V29.7113L26.7748 35.0587C27.7116 35.4623 28.7227 35.6644 29.7426 35.652C30.7869 35.6793 31.8227 35.4571 32.7639 35.004L43.4499 29.7596V39.9096ZM50.7886 24.3689L44.3131 27.5519C44.1936 27.5426 44.0739 27.5683 43.9686 27.6256C43.8632 27.6831 43.7769 27.7698 43.7198 27.8753L32.0064 33.5411C30.5538 34.1346 28.9264 34.1346 27.4738 33.5411L13.0688 26.6352L29.6344 24.6923C29.7443 24.6817 29.851 24.6495 29.9484 24.5977C30.0458 24.5459 30.1321 24.4753 30.2023 24.3901C30.2724 24.305 30.3251 24.2068 30.3573 24.1012C30.3895 23.9957 30.4006 23.8848 30.3901 23.775C30.3795 23.6651 30.3473 23.5584 30.2955 23.461C30.2436 23.3636 30.1731 23.2773 30.0879 23.2072C30.0028 23.137 29.9046 23.0843 29.799 23.0521C29.6935 23.0198 29.5826 23.0087 29.4727 23.0193L10.2627 25.2869L8.31977 24.3689C8.06974 24.2845 7.8589 24.1121 7.72646 23.8838C7.72646 23.8304 7.83468 23.6139 8.31977 23.3987L27.5298 14.1719C28.2303 13.8788 28.9833 13.7319 29.7426 13.7402C30.5202 13.7215 31.2928 13.8686 32.0089 14.1719L50.7874 23.3453C51.2724 23.5617 51.3807 23.7769 51.3807 23.8851C51.229 24.0953 51.0248 24.2621 50.7886 24.3689Z" fill="#282928"/>
</g>
</svg>
