<svg xmlns="http://www.w3.org/2000/svg" width="60" height="60" fill="none"><path fill="#282928" d="M30 23.333A6.674 6.674 0 0 0 23.333 30 6.674 6.674 0 0 0 30 36.667 6.674 6.674 0 0 0 36.667 30 6.674 6.674 0 0 0 30 23.333m0 11.928c-2.9 0-5.26-2.36-5.26-5.261 0-2.9 2.36-5.26 5.26-5.26s5.26 2.36 5.26 5.26-2.36 5.26-5.26 5.26m8.41 7.214c.454 0 .88-.176 1.202-.497l2.367-2.367c.32-.32.497-.747.497-1.202 0-.453-.176-.88-.497-1.2l-1.709-1.71a.28.28 0 0 1-.054-.338c.26-.511.48-1.047.66-1.59a.28.28 0 0 1 .278-.2h2.415a1.7 1.7 0 0 0 1.698-1.699v-3.348a1.7 1.7 0 0 0-1.698-1.698h-2.415a.28.28 0 0 1-.278-.2c-.178-.544-.4-1.078-.66-1.59a.276.276 0 0 1 .054-.338l1.709-1.709c.32-.32.497-.746.497-1.2s-.176-.88-.497-1.202l-2.367-2.367a1.7 1.7 0 0 0-2.401 0l-1.709 1.709a.276.276 0 0 1-.338.053 11.4 11.4 0 0 0-1.59-.66.28.28 0 0 1-.2-.277V16.43a1.7 1.7 0 0 0-1.698-1.698h-3.348a1.7 1.7 0 0 0-1.698 1.698v2.415a.28.28 0 0 1-.2.278c-.544.178-1.079.4-1.59.66a.28.28 0 0 1-.34-.055l-1.708-1.708a1.7 1.7 0 0 0-1.201-.497c-.455 0-.88.176-1.201.497l-2.368 2.367c-.32.32-.497.747-.497 1.201s.176.88.497 1.201l1.709 1.709a.28.28 0 0 1 .054.339c-.26.51-.48 1.046-.66 1.59a.28.28 0 0 1-.278.2h-2.415a1.7 1.7 0 0 0-1.698 1.698v3.348a1.7 1.7 0 0 0 1.698 1.698h2.415c.135 0 .236.073.278.2.178.544.4 1.079.66 1.591.06.12.04.243-.054.339l-1.709 1.708c-.32.32-.497.747-.497 1.201s.176.88.497 1.202l2.368 2.367c.32.32.746.497 1.2.497.455 0 .88-.176 1.202-.497L24.5 40.27a.28.28 0 0 1 .34-.054c.511.26 1.046.482 1.59.66.127.042.2.143.2.278v2.415a1.7 1.7 0 0 0 1.698 1.698h3.348a1.7 1.7 0 0 0 1.698-1.698v-2.415c0-.135.072-.236.2-.278.543-.178 1.078-.4 1.59-.66a.28.28 0 0 1 .34.054l1.708 1.709c.317.32.744.496 1.198.496m-3.883-3.514a10 10 0 0 1-1.393.578 1.695 1.695 0 0 0-1.169 1.614v2.415c0 .16-.131.292-.292.292h-3.348a.293.293 0 0 1-.291-.292v-2.415c0-.736-.47-1.384-1.169-1.614a10 10 0 0 1-1.393-.578 1.695 1.695 0 0 0-1.969.314l-1.709 1.709a.3.3 0 0 1-.206.084.3.3 0 0 1-.206-.084l-2.367-2.367a.29.29 0 0 1 0-.413l1.708-1.708c.52-.52.647-1.312.315-1.968a10 10 0 0 1-.578-1.393 1.695 1.695 0 0 0-1.614-1.169h-2.415a.293.293 0 0 1-.292-.291v-3.348c0-.161.131-.292.292-.292h2.415c.735 0 1.384-.47 1.614-1.169.157-.476.351-.945.578-1.393a1.69 1.69 0 0 0-.315-1.967l-1.708-1.71a.3.3 0 0 1-.085-.205c0-.046.011-.133.085-.207l2.367-2.367a.3.3 0 0 1 .206-.084.3.3 0 0 1 .206.084l1.71 1.709c.52.52 1.31.647 1.967.314a10 10 0 0 1 1.393-.578 1.695 1.695 0 0 0 1.168-1.614v-2.415c0-.16.132-.292.292-.292h3.348c.16 0 .292.132.292.292v2.415c0 .736.47 1.384 1.168 1.614.477.157.946.352 1.394.578a1.69 1.69 0 0 0 1.967-.314l1.71-1.71a.29.29 0 0 1 .413 0l2.367 2.367a.3.3 0 0 1 .084.207.3.3 0 0 1-.084.206l-1.709 1.708a1.69 1.69 0 0 0-.314 1.968c.227.449.422.918.578 1.393.23.699.878 1.169 1.614 1.169h2.415c.16 0 .292.13.292.291v3.348c0 .161-.132.292-.292.292h-2.415c-.736 0-1.384.469-1.614 1.169a10 10 0 0 1-.578 1.393 1.69 1.69 0 0 0 .314 1.968l1.71 1.708a.29.29 0 0 1 0 .413l-2.367 2.367a.29.29 0 0 1-.413 0l-1.708-1.709a1.7 1.7 0 0 0-1.969-.313m-5.23-26.74V2.46a.704.704 0 0 1 1.406 0v9.76a.704.704 0 0 1-1.406 0M58.242 30a.704.704 0 0 1-.703.703h-9.76a.704.704 0 0 1 0-1.406h9.76c.388 0 .703.315.703.703M30.703 47.78v9.76a.704.704 0 0 1-1.406 0v-9.76a.704.704 0 0 1 1.406 0M12.22 30.703H2.46a.704.704 0 0 1 0-1.406h9.76a.704.704 0 0 1 0 1.406M5.6 23.087a3.39 3.39 0 0 0 3.31-2.682h5.887a.704.704 0 0 0 0-1.407H8.911a3.4 3.4 0 0 0-2.609-2.608V8.648c0-1.116.91-2.026 2.027-2.026h8.062A3.4 3.4 0 0 0 19 9.231v5.825a.704.704 0 0 0 1.406 0V9.23a3.39 3.39 0 0 0 2.682-3.312 3.39 3.39 0 0 0-3.385-3.386 3.39 3.39 0 0 0-3.312 2.683H8.329a3.436 3.436 0 0 0-3.433 3.432v7.743a3.39 3.39 0 0 0-2.682 3.312 3.39 3.39 0 0 0 3.385 3.385M19.702 3.94c1.09 0 1.979.888 1.979 1.98 0 1.09-.888 1.978-1.98 1.978a1.98 1.98 0 0 1-1.979-1.979c0-1.09.889-1.98 1.98-1.98M5.599 17.723c1.091 0 1.98.889 1.98 1.98s-.889 1.979-1.98 1.979a1.98 1.98 0 0 1-1.98-1.98c0-1.09.89-1.979 1.98-1.979m33.995-8.812v5.886a.704.704 0 0 0 1.406 0V8.911a3.4 3.4 0 0 0 2.609-2.609h7.743c1.116 0 2.026.91 2.026 2.027v8.062A3.39 3.39 0 0 0 50.77 19h-6.317a.704.704 0 0 0 0 1.406h6.317a3.39 3.39 0 0 0 3.31 2.682 3.39 3.39 0 0 0 3.386-3.385 3.39 3.39 0 0 0-2.682-3.312V8.329a3.436 3.436 0 0 0-3.432-3.433h-7.743a3.39 3.39 0 0 0-3.312-2.682 3.39 3.39 0 0 0-3.385 3.385 3.39 3.39 0 0 0 2.682 3.312M56.06 19.703c0 1.09-.888 1.979-1.98 1.979a1.98 1.98 0 0 1-1.978-1.98c0-1.09.888-1.979 1.979-1.979 1.09 0 1.98.889 1.98 1.98M40.297 3.62c1.091 0 1.98.888 1.98 1.98 0 1.09-.889 1.979-1.98 1.979a1.98 1.98 0 0 1-1.979-1.98c0-1.09.888-1.979 1.98-1.979m14.104 33.292a3.39 3.39 0 0 0-3.312 2.682h-5.886a.704.704 0 0 0 0 1.407h5.886a3.4 3.4 0 0 0 2.609 2.608v7.743a2.03 2.03 0 0 1-2.026 2.026h-8.063A3.4 3.4 0 0 0 41 50.77v-6.813a.704.704 0 0 0-1.406 0v6.813a3.39 3.39 0 0 0-2.682 3.312 3.39 3.39 0 0 0 3.385 3.386 3.39 3.39 0 0 0 3.312-2.683h8.063a3.436 3.436 0 0 0 3.432-3.432V43.61a3.39 3.39 0 0 0 2.682-3.312 3.39 3.39 0 0 0-3.385-3.385M40.297 56.06a1.98 1.98 0 0 1-1.979-1.98c0-1.09.888-1.978 1.98-1.978 1.09 0 1.979.888 1.979 1.979 0 1.09-.889 1.98-1.98 1.98m14.104-13.783a1.98 1.98 0 0 1-1.98-1.98c0-1.09.889-1.979 1.98-1.979s1.98.888 1.98 1.98c0 1.09-.89 1.979-1.98 1.979m-33.995 8.812v-5.886a.704.704 0 0 0-1.406 0v5.886a3.4 3.4 0 0 0-2.609 2.608H8.648a2.03 2.03 0 0 1-2.026-2.027v-8.062a3.4 3.4 0 0 0 2.609-2.609h6.182a.704.704 0 0 0 0-1.406H9.23a3.39 3.39 0 0 0-3.312-2.683 3.39 3.39 0 0 0-3.386 3.386 3.39 3.39 0 0 0 2.683 3.312v8.062a3.436 3.436 0 0 0 3.432 3.433h7.743a3.39 3.39 0 0 0 3.312 2.682 3.39 3.39 0 0 0 3.385-3.385 3.39 3.39 0 0 0-2.681-3.31M3.94 40.297c0-1.09.888-1.979 1.98-1.979 1.09 0 1.978.888 1.978 1.98 0 1.09-.888 1.979-1.979 1.979a1.98 1.98 0 0 1-1.98-1.98M19.703 56.38a1.98 1.98 0 0 1-1.98-1.98c0-1.09.889-1.979 1.98-1.979s1.979.889 1.979 1.98a1.98 1.98 0 0 1-1.98 1.979"/></svg>