<svg width="60" height="60" viewBox="0 0 60 60" fill="none" xmlns="http://www.w3.org/2000/svg">
<mask id="mask0_5921_2518" style="mask-type:luminance" maskUnits="userSpaceOnUse" x="7" y="13" width="45" height="33">
<path d="M51.9871 13.0801H7.00781V46.0001H51.9871V13.0801Z" fill="white"/>
</mask>
<g mask="url(#mask0_5921_2518)">
<path d="M38.558 42.168H21.9436C21.7912 43.2362 21.2581 44.2141 20.443 44.9211C19.6279 45.6282 18.585 46.0168 17.506 46.0168C16.427 46.0168 15.384 45.6282 14.5689 44.9211C13.7538 44.2141 13.222 43.2362 13.0696 42.168H7.75698C7.65742 42.167 7.55885 42.1467 7.46731 42.1075C7.37577 42.0684 7.29231 42.0114 7.22275 41.9401C7.1532 41.8689 7.09825 41.7845 7.0613 41.692C7.02435 41.5996 7.00659 41.5008 7.00788 41.4012V16.904C7.00675 16.8046 7.02545 16.7054 7.06249 16.6132C7.09953 16.5209 7.15439 16.4373 7.22394 16.3662C7.2935 16.2952 7.37586 16.2378 7.46731 16.1988C7.55876 16.1599 7.65758 16.1404 7.75698 16.1395H36.243C36.3426 16.1399 36.441 16.16 36.5327 16.1988C36.6244 16.2376 36.7075 16.2939 36.7772 16.365C36.8469 16.4362 36.9018 16.5207 36.9386 16.6132C36.9756 16.7056 36.9937 16.8045 36.9921 16.904V21.4948H44.4903C44.6165 21.4953 44.74 21.5278 44.85 21.5898C44.9599 21.6517 45.0523 21.7409 45.1183 21.8486L51.8673 32.5686C51.945 32.6918 51.9865 32.8339 51.9884 32.9794V41.4012C51.9897 41.5008 51.9709 41.5995 51.9338 41.692C51.8967 41.7845 51.842 41.8689 51.7723 41.9401C51.7027 42.0114 51.6194 42.0685 51.5277 42.1075C51.4361 42.1467 51.3377 42.1671 51.2381 42.168H47.4249C47.2706 43.2348 46.7368 44.2108 45.922 44.9164C45.1071 45.6219 44.0652 46.0098 42.9873 46.0098C41.9095 46.0098 40.8675 45.6219 40.0527 44.9164C39.2377 44.2108 38.7052 43.2348 38.5508 42.168H38.558ZM39.9944 41.4012C40.0067 41.9914 40.1931 42.5652 40.5298 43.0501C40.8667 43.5351 41.3392 43.9094 41.8879 44.127C42.4368 44.3444 43.0377 44.3954 43.6153 44.273C44.1928 44.1505 44.7215 43.8611 45.1348 43.4395C45.5482 43.018 45.8275 42.4831 45.9386 41.9034C46.0496 41.3235 45.9864 40.724 45.7581 40.1796C45.5298 39.6351 45.1468 39.17 44.6553 38.8429C44.1638 38.5156 43.586 38.3413 42.9957 38.3407C42.1927 38.3506 41.427 38.6781 40.8646 39.2512C40.3022 39.8243 39.9892 40.5958 39.9944 41.3988V41.4012ZM14.5108 41.4012C14.5232 41.9913 14.7092 42.5654 15.0462 43.0501C15.3832 43.5348 15.8566 43.9085 16.4055 44.1257C16.9544 44.3429 17.5543 44.3934 18.1316 44.2705C18.709 44.1476 19.2371 43.8567 19.65 43.4348C20.0629 43.0129 20.3421 42.4785 20.4525 41.8985C20.5629 41.3187 20.4999 40.7189 20.2709 40.1749C20.0419 39.6307 19.6575 39.1668 19.1656 38.8404C18.6738 38.514 18.0963 38.3403 17.506 38.3407C16.7042 38.3522 15.9396 38.6795 15.3786 39.2524C14.8175 39.8254 14.5055 40.5969 14.5108 41.3988V41.4012ZM50.4937 40.6367V39.1075H48.2417V37.5761H50.4937V33.1991L50.3537 32.9734H39.2466C39.147 32.9727 39.0496 32.9518 38.9581 32.9129C38.8664 32.8741 38.7832 32.8178 38.7135 32.7467C38.6438 32.6757 38.5891 32.5921 38.5521 32.4998C38.515 32.4075 38.4963 32.3085 38.4975 32.2089V25.321C38.4963 25.2215 38.515 25.1225 38.5521 25.0302C38.5891 24.9378 38.6438 24.8543 38.7135 24.7832C38.7832 24.7122 38.8664 24.6547 38.9581 24.6158C39.0496 24.577 39.147 24.5573 39.2466 24.5565H45.0553L44.089 23.0191H36.9981V40.6295H38.5591C38.7135 39.5628 39.2473 38.5879 40.0622 37.8824C40.877 37.1769 41.9177 36.7878 42.9957 36.7878C44.0735 36.7878 45.1154 37.1769 45.9302 37.8824C46.7451 38.5879 47.2789 39.5628 47.4333 40.6295L50.4937 40.6367ZM35.4998 40.6367V39.1075H22.758V37.5761H35.4998V20.7326H10.0114V19.2036H35.4998V17.6721H8.51321V37.5785H12.2647V39.1099H8.51321V40.639H13.0767C13.231 39.5723 13.7635 38.5974 14.5784 37.8919C15.3933 37.1864 16.4353 36.7974 17.5131 36.7974C18.591 36.7974 19.6329 37.1864 20.4478 37.8919C21.2626 38.5974 21.7964 39.5723 21.9507 40.639L35.4998 40.6367ZM39.998 31.448H49.3933L45.9967 26.0535V26.0915H39.998V31.448ZM42.2513 42.1668V40.6355H43.7483V42.1668H42.2513ZM16.7604 42.1668V40.6355H18.2598V42.1668H16.7604ZM10.0138 14.608V13.0742H20.5083V14.6057L10.0138 14.608ZM7.01619 14.608V13.0742H8.5144V14.6057L7.01619 14.608Z" fill="#282928"/>
</g>
</svg>
