<svg width="60" height="60" viewBox="0 0 60 60" fill="none" xmlns="http://www.w3.org/2000/svg">
<path d="M27.3209 36.8727H11.8075C11.2486 36.8727 10.7969 36.42 10.7969 35.8621C10.7969 35.3043 11.2486 34.8516 11.8075 34.8516H27.3209C27.8797 34.8516 28.3315 35.3043 28.3315 35.8621C28.3315 36.42 27.8787 36.8727 27.3209 36.8727Z" fill="#282928"/>
<path d="M27.3209 24.7458H11.8075C11.2486 24.7458 10.7969 24.293 10.7969 23.7352C10.7969 23.1773 11.2486 22.7246 11.8075 22.7246H27.3209C27.8797 22.7246 28.3315 23.1773 28.3315 23.7352C28.3315 24.293 27.8787 24.7458 27.3209 24.7458Z" fill="#282928"/>
<path d="M25.9566 30.8102H5.74496C5.1861 30.8102 4.73438 30.3575 4.73438 29.7996C4.73438 29.2418 5.1861 28.7891 5.74496 28.7891H25.9566C26.5154 28.7891 26.9672 29.2418 26.9672 29.7996C26.9672 30.3575 26.5154 30.8102 25.9566 30.8102Z" fill="#282928"/>
<path d="M36.0619 33.7401C34.0538 33.7401 32.0195 32.3859 32.0195 29.7968C32.0195 27.2077 34.0538 25.8535 36.0619 25.8535C38.0699 25.8535 40.1042 27.2077 40.1042 29.7968C40.1042 32.3859 38.0699 33.7401 36.0619 33.7401ZM36.0619 27.8747C35.1291 27.8747 34.0407 28.3779 34.0407 29.7968C34.0407 31.2157 35.1291 31.7189 36.0619 31.7189C36.9946 31.7189 38.083 31.2157 38.083 29.7968C38.083 28.3779 36.9946 27.8747 36.0619 27.8747Z" fill="#282928"/>
<path d="M38.2022 28.6641C37.9435 28.6641 37.6848 28.565 37.4878 28.368C37.0926 27.9728 37.0926 27.3341 37.4878 26.939L43.2046 21.2221C43.5998 20.827 44.2384 20.827 44.6336 21.2221C45.0287 21.6173 45.0287 22.256 44.6336 22.6511L38.9167 28.368C38.7197 28.565 38.4609 28.6641 38.2022 28.6641Z" fill="#282928"/>
<path d="M32.4913 34.383C32.2326 34.383 31.9739 34.284 31.7768 34.0869C31.3817 33.6928 31.3817 33.0531 31.7768 32.658L33.2058 31.228C33.6009 30.8329 34.2396 30.8329 34.6347 31.228C35.0299 31.6221 35.0299 32.2618 34.6347 32.657L33.2058 34.0869C33.0087 34.284 32.75 34.383 32.4913 34.383Z" fill="#282928"/>
<path d="M36.0614 48.9982C35.5025 48.9982 35.0508 48.5455 35.0508 47.9876V44.9559C35.0508 44.3981 35.5025 43.9453 36.0614 43.9453C36.6202 43.9453 37.0719 44.3981 37.0719 44.9559V47.9876C37.0719 48.5455 36.6202 48.9982 36.0614 48.9982Z" fill="#282928"/>
<path d="M48.9238 43.6698C48.6651 43.6698 48.4064 43.5707 48.2093 43.3737L46.0659 41.2292C45.6707 40.8341 45.6707 40.1944 46.0659 39.8003C46.461 39.4051 47.0997 39.4051 47.4948 39.8003L49.6383 41.9447C50.0334 42.3398 50.0334 42.9795 49.6383 43.3737C49.4402 43.5707 49.1815 43.6698 48.9238 43.6698Z" fill="#282928"/>
<path d="M46.7804 20.0917C46.5217 20.0917 46.2629 19.9926 46.0659 19.7956C45.6707 19.4014 45.6707 18.7617 46.0659 18.3666L48.2093 16.2221C48.6045 15.827 49.2432 15.827 49.6383 16.2221C50.0334 16.6163 50.0334 17.256 49.6383 17.6511L47.4948 19.7956C47.2978 19.9926 47.0391 20.0917 46.7804 20.0917Z" fill="#282928"/>
<path d="M36.0614 15.6506C35.5025 15.6506 35.0508 15.1978 35.0508 14.64V11.6082C35.0508 11.0504 35.5025 10.5977 36.0614 10.5977C36.6202 10.5977 37.0719 11.0504 37.0719 11.6082V14.64C37.0719 15.1978 36.6202 15.6506 36.0614 15.6506Z" fill="#282928"/>
<path d="M54.2533 30.8102H51.2215C50.6627 30.8102 50.2109 30.3575 50.2109 29.7996C50.2109 29.2418 50.6627 28.7891 51.2215 28.7891H54.2533C54.8121 28.7891 55.2638 29.2418 55.2638 29.7996C55.2638 30.3575 54.8121 30.8102 54.2533 30.8102Z" fill="#282928"/>
<path d="M28.7731 18.6833H17.87C17.3111 18.6833 16.8594 18.2305 16.8594 17.6727C16.8594 17.1148 17.3111 16.6621 17.87 16.6621H28.7731C29.332 16.6621 29.7837 17.1148 29.7837 17.6727C29.7837 18.2305 29.332 18.6833 28.7731 18.6833Z" fill="#282928"/>
<path d="M28.7731 42.9372H17.87C17.3111 42.9372 16.8594 42.4844 16.8594 41.9266C16.8594 41.3688 17.3111 40.916 17.87 40.916H28.7731C29.332 40.916 29.7837 41.3688 29.7837 41.9266C29.7837 42.4844 29.332 42.9372 28.7731 42.9372Z" fill="#282928"/>
<path d="M36.0004 48.9789C33.0384 48.9789 30.0461 48.2968 27.267 46.8648C26.7708 46.6091 26.5757 45.9997 26.8314 45.5035C27.0871 45.0073 27.6975 44.8123 28.1926 45.068C36.1196 49.1527 45.994 46.4161 50.673 38.8377C55.3652 31.2372 53.4016 21.1728 46.2032 15.9248C40.9896 12.1251 33.9196 11.5753 28.1926 14.5252C27.6975 14.7808 27.0871 14.5868 26.8314 14.0896C26.5757 13.5934 26.7698 12.984 27.267 12.7284C33.667 9.42984 41.5657 10.0433 47.3937 14.2907C55.4399 20.1561 57.6359 31.4049 52.392 39.8988C48.8035 45.7137 42.4782 48.9789 36.0004 48.9789Z" fill="#282928"/>
</svg>
