<svg width="60" height="60" viewBox="0 0 60 60" fill="none" xmlns="http://www.w3.org/2000/svg">
<path fill-rule="evenodd" clip-rule="evenodd" d="M27.8209 12.7204C26.6876 12.7204 25.7677 13.6572 25.7677 14.8084V17.9959C25.7677 18.2411 25.633 18.4321 25.4043 18.5082C24.7029 18.7418 24.0168 19.0321 23.3561 19.3702C23.1426 19.4799 22.9088 19.4412 22.7424 19.2709L20.5176 17.0151C20.1326 16.6215 19.618 16.4047 19.0678 16.4047C18.5164 16.4047 18.0018 16.6215 17.613 17.0151L14.5356 20.142C14.1456 20.5343 13.9321 21.0595 13.9321 21.617C13.9321 22.1758 14.1456 22.701 14.5356 23.0946L16.7554 25.3491C16.9269 25.522 16.9637 25.7556 16.8545 25.9737C16.5216 26.6421 16.2357 27.3416 16.007 28.0514C15.9295 28.2836 15.7414 28.423 15.5026 28.423H12.3629C11.2296 28.423 10.3046 29.3599 10.3046 30.511V32.7578C5.88165 31.7254 2.56541 27.6952 2.56541 22.8907C2.56541 17.5648 6.66688 13.1269 11.9004 12.7875C12.1342 12.772 12.3477 12.6481 12.4773 12.4519C12.612 12.2558 12.6488 12.008 12.5764 11.7809C12.3058 10.9008 12.166 9.98322 12.166 9.05149C12.166 4.05988 16.1633 0 21.0792 0C24.3484 0 27.3572 1.8183 28.9175 4.74513C29.0318 4.95935 29.2402 5.10647 29.4791 5.1426C29.7179 5.17744 29.9568 5.09614 30.1283 4.92451C32.052 2.97458 34.6084 1.90218 37.3326 1.90218C42.8368 1.90218 47.416 6.44986 47.5354 12.0416C47.5405 12.439 47.8467 12.7655 48.2368 12.7965C53.3928 13.2043 57.4308 17.6384 57.4308 22.8907C57.4308 27.6952 54.1145 31.7254 49.6916 32.7578V30.511C49.6916 29.3599 48.7717 28.423 47.6333 28.423H44.4936C44.2548 28.423 44.068 28.2836 43.9892 28.0514C43.7605 27.3429 43.4746 26.6434 43.1417 25.975C43.0324 25.7556 43.0693 25.522 43.2408 25.3491L45.4605 23.0946C45.8506 22.701 46.0641 22.1758 46.0641 21.617C46.0641 21.0595 45.8506 20.5343 45.4605 20.142L42.3832 17.0151C41.5827 16.2008 40.2778 16.2021 39.4773 17.0151L37.2525 19.2709C37.0861 19.4412 36.8523 19.4799 36.6388 19.3702C35.9845 19.0321 35.2933 18.7418 34.5957 18.5082C34.367 18.4321 34.2273 18.2411 34.2273 17.9959V14.8084C34.2273 13.6572 33.3073 12.7204 32.174 12.7204H27.8209ZM38.3351 20.3652C37.696 21.0156 36.7608 21.1679 35.954 20.7524C35.3619 20.4491 34.7431 20.1884 34.1193 19.9794C33.2616 19.6929 32.7051 18.9147 32.7051 17.9959V14.8084C32.7051 14.5103 32.4662 14.2689 32.1753 14.2689H27.8197C27.5287 14.2689 27.2898 14.5103 27.2898 14.8084V17.9959C27.2898 18.9147 26.7384 19.6929 25.8757 19.9794C25.2518 20.1884 24.633 20.4478 24.046 20.7524C23.2354 21.1679 22.3002 21.0156 21.6598 20.3665L19.4401 18.1107C19.341 18.0088 19.2063 17.9533 19.0653 17.9533C18.9192 17.9533 18.7896 18.0088 18.6905 18.1107L15.608 21.2363C15.5089 21.3382 15.4568 21.4724 15.4568 21.617C15.4568 21.7628 15.5089 21.8983 15.608 21.999L17.8328 24.2547C18.4719 24.9039 18.6181 25.8537 18.2127 26.6744C17.9116 27.2719 17.6562 27.8991 17.4542 28.5353C17.1683 29.4077 16.4047 29.9716 15.5 29.9716H12.3629C12.072 29.9716 11.8331 30.2129 11.8331 30.511V32.9875C12.0669 33.0043 12.3007 33.0159 12.5395 33.0159H21.1364C21.1313 32.9178 21.1313 32.8197 21.1313 32.7204C21.1313 27.7533 25.107 23.7114 29.9987 23.7114C34.8892 23.7114 38.8713 27.7533 38.8713 32.7204C38.8713 32.8197 38.8662 32.9178 38.8662 33.0159H47.463C47.6968 33.0159 47.9357 33.0043 48.1694 32.9875V30.511C48.1694 30.2129 47.9306 29.9716 47.6345 29.9716H44.4949C43.5953 29.9716 42.8266 29.4077 42.5458 28.5353C42.3374 27.8991 42.0833 27.2732 41.7822 26.6744C41.3769 25.8537 41.5217 24.9039 42.1672 24.2547L44.3856 21.999C44.4847 21.8983 44.5368 21.7628 44.5368 21.617C44.5368 21.4724 44.4847 21.3382 44.3856 21.2363L41.3083 18.1107C41.0999 17.9004 40.7619 17.9004 40.5548 18.1107L38.3351 20.3652ZM37.3427 32.7204C37.3427 28.6076 34.0481 25.26 29.9987 25.26C25.9494 25.26 22.6547 28.6076 22.6547 32.7204C22.6547 32.8197 22.6547 32.9178 22.6598 33.0159H37.3377C37.3427 32.9178 37.3427 32.8197 37.3427 32.7204ZM35.6325 49.418L30.7624 47.3248V36.0421C30.7624 35.6136 30.4193 35.2678 29.9987 35.2678C29.5782 35.2678 29.2351 35.6136 29.2351 36.0421V47.3248L24.37 49.4167L29.9987 51.8377L35.6325 49.418ZM29.2351 60V53.1927L23.1744 50.5859V57.3945L29.2351 60ZM30.7624 53.1927V60L36.8231 57.3945V50.5859L30.7624 53.1927ZM21.2355 36.0563L21.3397 42.2222L17.2852 46.5389C16.6461 46.1143 15.8761 45.8679 15.0604 45.8679C12.7937 45.8679 10.9539 47.7378 10.9539 50.0361C10.9539 52.3345 12.7937 54.2044 15.0604 54.2044C17.3208 54.2044 19.1619 52.3345 19.1619 50.0361C19.1619 49.1302 18.876 48.2914 18.3868 47.6074L22.6534 43.061C22.7932 42.9126 22.8669 42.7165 22.8669 42.5126L22.7576 36.0305C22.7526 35.602 22.4044 35.2575 21.9826 35.2691C21.5633 35.2755 21.2253 35.6278 21.2355 36.0563ZM37.2386 36.0305L37.1293 42.5126C37.1293 42.7165 37.2017 42.9126 37.3427 43.0598L41.6043 47.61C41.1215 48.294 40.8356 49.1315 40.8356 50.0361C40.8356 52.3345 42.6805 54.2044 44.9421 54.2044C47.2025 54.2044 49.0436 52.3345 49.0436 50.0361C49.0436 47.7378 47.2038 45.8679 44.9421 45.8679C44.1213 45.8679 43.3514 46.1156 42.7072 46.5402L38.6629 42.2222L38.762 36.0563C38.7722 35.6278 38.4342 35.2755 38.0136 35.2691C38.0085 35.2691 38.0085 35.2691 38.0034 35.2691C37.5867 35.2691 37.2436 35.6072 37.2386 36.0305ZM48.3829 38.9805L50.5404 41.2415C50.0677 41.9202 49.792 42.7462 49.792 43.6366C49.792 45.935 51.6318 47.8049 53.8935 47.8049C56.1589 47.8049 58 45.935 58 43.6366C58 41.3382 56.1602 39.4683 53.8935 39.4683C53.0612 39.4683 52.2823 39.7238 51.6331 40.1613L49.6929 38.1275V36.0434C49.6929 35.6149 49.3498 35.2691 48.9293 35.2691C48.5087 35.2691 48.1707 35.6149 48.1707 36.0434V38.4411C48.1694 38.6424 48.2419 38.836 48.3829 38.9805ZM11.6146 38.9805C11.7543 38.836 11.8331 38.6424 11.8331 38.4411V36.0434C11.8331 35.6149 11.49 35.2691 11.0695 35.2691C10.6489 35.2691 10.3058 35.6149 10.3058 36.0434V38.1275L8.36693 40.16C7.71766 39.7238 6.93751 39.4683 6.10655 39.4683C3.83981 39.4683 2 41.3382 2 43.6366C2 45.935 3.83981 47.8049 6.10655 47.8049C8.36693 47.8049 10.208 45.935 10.208 43.6366C10.208 42.7449 9.9323 41.9177 9.45964 41.2389L11.6146 38.9805Z" fill="#282928"/>
</svg>
