<svg width="60" height="60" viewBox="0 0 60 60" fill="none" xmlns="http://www.w3.org/2000/svg">
<mask id="mask0_5921_2623" style="mask-type:luminance" maskUnits="userSpaceOnUse" x="6" y="13" width="49" height="35">
<path d="M54.79 13H6V47.9633H54.79V13Z" fill="white"/>
</mask>
<g mask="url(#mask0_5921_2623)">
<path d="M11.8163 33.7831C11.6145 33.8779 11.4578 34.0477 11.3796 34.2565C11.3015 34.4652 11.3081 34.6964 11.398 34.9003L13.3163 39.0188C13.4105 39.223 13.5817 39.3817 13.7925 39.46C14.0033 39.5384 14.2366 39.5301 14.4413 39.437L28.9366 32.666L27.6254 46.3943C27.613 46.5272 27.6319 46.6613 27.6806 46.7857C27.7294 46.91 27.8067 47.0212 27.9062 47.1102C28.5415 47.6359 29.3333 47.9357 30.1575 47.9625C30.3847 47.9621 30.6112 47.9335 30.8315 47.8773C31.5099 47.6217 32.1133 47.1998 32.5863 46.6501C33.0591 46.1005 33.3864 45.4408 33.5378 44.7317L39.2416 27.8407L50.5442 22.571C53.8694 21.0198 55.5831 17.8729 54.4319 15.417C54.1102 14.785 53.6379 14.2418 53.0567 13.8357C52.4753 13.4295 51.8029 13.1728 51.0988 13.0883C49.5103 12.8488 47.8866 13.099 46.444 13.8056L33.4067 19.9184L19.3886 14.4363C18.7479 14.0989 18.033 13.9276 17.3091 13.9382C16.5852 13.9487 15.8755 14.1407 15.2451 14.4966C14.8391 14.8298 14.5139 15.2506 14.2938 15.7275C14.0738 16.2044 13.9646 16.725 13.9745 17.2501C13.9789 17.3833 14.0143 17.5137 14.0781 17.6307C14.1418 17.7477 14.2321 17.8482 14.3417 17.9241L23.7824 24.4132L18.3736 26.9701L9.30926 24.6676C9.12844 24.6232 8.93807 24.6392 8.76715 24.713C8.59624 24.7869 8.45415 24.9146 8.36257 25.0767L6.10336 29.1414C6.04546 29.248 6.01098 29.3658 6.00222 29.4868C5.99347 29.6077 6.01064 29.7292 6.05259 29.8431C6.09455 29.9569 6.16031 30.0605 6.2455 30.1467C6.33068 30.2331 6.43332 30.3003 6.54655 30.3438L13.2573 33.1157L11.8163 33.7831ZM15.7211 16.824C15.7717 16.4651 15.9539 16.138 16.2324 15.9061C16.7189 15.556 17.6053 15.6072 18.7907 16.0504L31.2733 20.9189L25.5788 23.5767L15.7211 16.824ZM8.04788 29.1362L9.53085 26.502L18.253 28.6681C18.4409 28.7154 18.6392 28.6973 18.8156 28.617L47.1744 15.3738C48.3017 14.8178 49.5711 14.6157 50.8154 14.7942C51.2454 14.8338 51.6592 14.977 52.0216 15.2115C52.384 15.4461 52.6842 15.7649 52.8965 16.1408C53.6124 17.6763 52.2055 19.9184 49.8269 21.0264L39.9968 25.6327L40.5934 23.8678C40.6292 23.7597 40.6434 23.6457 40.6351 23.5321C40.6268 23.4186 40.5963 23.3078 40.5452 23.2061C40.4941 23.1044 40.4235 23.0137 40.3375 22.9393C40.2513 22.8648 40.1514 22.8081 40.0434 22.7723C39.9352 22.7364 39.8212 22.7223 39.7077 22.7305C39.5941 22.7388 39.4833 22.7693 39.3816 22.8204C39.2798 22.8715 39.1892 22.9421 39.1148 23.0282C39.0403 23.1143 38.9836 23.2143 38.9478 23.3223L31.9303 44.202C31.512 45.382 30.9926 46.0953 30.4118 46.2487C30.053 46.3177 29.6814 46.2478 29.3721 46.0534L31.0765 28.1475C31.0938 27.9237 31.0225 27.702 30.878 27.5302C30.7334 27.3585 30.5271 27.2503 30.3036 27.2292C30.08 27.2081 29.8571 27.2756 29.6829 27.4172C29.5087 27.5588 29.397 27.7631 29.3721 27.9863L29.1097 30.7227L14.478 37.541L13.277 34.9829L15.6804 33.8578C15.8318 33.7912 15.9606 33.682 16.051 33.5435C16.1414 33.405 16.1896 33.2432 16.1896 33.0777C16.1896 32.9122 16.1414 32.7504 16.051 32.6119C15.9606 32.4733 15.8318 32.3641 15.6804 32.2975L8.04788 29.1362Z" fill="#282928"/>
</g>
</svg>
