<svg xmlns="http://www.w3.org/2000/svg" width="60" height="60"><defs><clipPath id="a"><path d="M0 0h60v60H0z"/></clipPath></defs><g fill="#282928" clip-path="url(#a)"><path d="M57 2H3a1 1 0 0 0-1 1v39h56V3a1 1 0 0 0-1-1m-1 36a2 2 0 0 1-2 2H6a2 2 0 0 1-2-2V6a2 2 0 0 1 2-2h48a2 2 0 0 1 2 2Z"/><path d="M44 36.364a1 1 0 0 1-.6-.689 13.7 13.7 0 0 0-1.574-3.794 1 1 0 0 1-.063-.909l1.229-2.872a9.7 9.7 0 0 0-.977-1.128c-.333-.325-.69-.658-1.062-.966l-2.923 1.23a1 1 0 0 1-.909-.063 13.7 13.7 0 0 0-3.794-1.573 1 1 0 0 1-.689-.6l-1.158-2.9a11.8 11.8 0 0 0-2.923-.037L27.364 25a1 1 0 0 1-.689.6 13.7 13.7 0 0 0-3.794 1.574 1 1 0 0 1-.909.063L19.1 26.01a10 10 0 0 0-1.128.977c-.325.333-.659.69-.966 1.062l1.229 2.923a1 1 0 0 1-.063.909 13.7 13.7 0 0 0-1.572 3.794 1 1 0 0 1-.6.689l-2.9 1.158c-.027.157-.039.319-.054.481h5a11.99 11.99 0 0 1 23.9 0h5.019c-.01-.15-.017-.3-.031-.444Z"/><path d="M6 38h5.028q.017-.333.045-.644a2.06 2.06 0 0 1 1.281-1.694l2.434-.972a15.6 15.6 0 0 1 1.41-3.4l-1.029-2.411a2.02 2.02 0 0 1 .3-2.122c.3-.361.645-.742 1.083-1.19.463-.453.844-.8 1.217-1.108a2.01 2.01 0 0 1 2.112-.294L22.3 25.2a15.6 15.6 0 0 1 3.4-1.41l.971-2.431a2.06 2.06 0 0 1 1.706-1.285 18.6 18.6 0 0 1 3.273 0 2.06 2.06 0 0 1 1.694 1.281l.972 2.434a15.6 15.6 0 0 1 3.4 1.41l2.411-1.029a2.02 2.02 0 0 1 2.122.3c.361.3.742.645 1.19 1.083.453.463.8.844 1.108 1.217a2.01 2.01 0 0 1 .294 2.112L43.8 31.3a15.6 15.6 0 0 1 1.41 3.4l2.431.971a2.06 2.06 0 0 1 1.285 1.706c.019.2.032.414.044.631H54V6H6Zm40-22h4a1 1 0 0 1 0 2h-4a1 1 0 0 1 0-2m-7-8a3.01 3.01 0 0 1 2.6 1.5 1 1 0 0 1-1.731 1A1 1 0 1 0 39 12a3 3 0 1 1-2.6 4.5 1 1 0 0 1 1.731-1A1 1 0 1 0 39 14a3 3 0 0 1 0-6M26 9.5a1.5 1.5 0 0 1 2.7-.9l1.3 1.735L31.3 8.6a1.5 1.5 0 0 1 2.7.9V17a1 1 0 0 1-2 0v-6l-.8 1.066a1.544 1.544 0 0 1-2.4 0L28 11v6a1 1 0 0 1-2 0ZM18 11a3 3 0 0 1 6 0 1 1 0 0 1-2 0 1 1 0 0 0-2 0v4a1 1 0 0 0 2 0 1 1 0 0 1 2 0 3 3 0 0 1-6 0Zm-8 5h4a1 1 0 0 1 0 2h-4a1 1 0 0 1 0-2"/><path d="M30 29a10.013 10.013 0 0 0-9.949 9h19.9A10.013 10.013 0 0 0 30 29M24.93 50a6.6 6.6 0 0 1-2.014 4h14.168a6.6 6.6 0 0 1-2.014-4ZM41 56H19a2 2 0 0 0-2 2h26a2 2 0 0 0-2-2M2 47a1 1 0 0 0 1 1h54a1 1 0 0 0 1-1v-3H2Z"/></g></svg>