<svg xmlns="http://www.w3.org/2000/svg" width="60" height="60" fill="none"><path fill="#282928" d="M21.34 58.98c-3.791-1.644-6.37-5.184-6.704-9.242.22-4.174 2.473-7.988 6.042-10.26a4.61 4.61 0 0 0 .364 4.275c.923 1.276 2.52 1.88 4.078 1.568 2.224-.614 3.522-2.88 2.896-5.06a4.1 4.1 0 0 0-1.269-1.972c-2.521-2.014-3.783-5.155-3.33-8.309a8.53 8.53 0 0 1 2.704-4.314c-1.003 2.616 1.808 5.182 3.703 6.458a97 97 0 0 1 9.656 6.484c3.379 2.615 5.217 6.693 4.927 10.875-.76 4.446-3.962 8.12-8.329 9.497C44.813 57.073 53.826 50.258 54 40.592c-.172-7.734-4.876-14.672-12.063-17.833h-.318c.154.377.23.783.22 1.198a5 5 0 0 0 0-.803q.059.48 0 .943c-.547 2.202-2.807 3.55-5.059 3.021a4.2 4.2 0 0 1-2.27-1.423c-2.887-3.625 0-7.75.48-11.745.298-5.096-2.076-9.968-6.289-12.95 2.106 3.446-.703 7.977-2.742 10.554s-4.993 4.493-7.409 6.74a60 60 0 0 0-7.107 7.76c-4.618 5.532-6.428 12.83-4.926 19.824 2.06 6.74 7.772 11.81 14.813 13.122h.039z"/></svg>