<svg xmlns="http://www.w3.org/2000/svg" width="60" height="60"><defs><clipPath id="a"><path d="M0 0h60v60H0z"/></clipPath></defs><g fill="#282928" clip-path="url(#a)"><path d="M35.513 10.2a14.3 14.3 0 0 0-5.942 1.279.785.785 0 0 0-.394 1.049.81.81 0 0 0 1.068.387 12.7 12.7 0 0 1 5.268-1.134A12.256 12.256 0 0 1 39.22 35.8v-4.676a8.21 8.21 0 0 0 1.3-14.428c-.342-.229-1.382-.925-2.254-.431-.854.484-.719 2.258-.719 2.285v4.51a2.22 2.22 0 0 1-2.038 2.188 2.22 2.22 0 0 1-2.038-2.188v-4.507c0-.029.135-1.8-.719-2.288-.873-.494-1.913.2-2.254.43a8.25 8.25 0 0 0-3.71 6.857 8.34 8.34 0 0 0 5.013 7.572V35.8a12.34 12.34 0 0 1-8.82-11.74 12.18 12.18 0 0 1 4.273-9.235.78.78 0 0 0 .076-1.116.815.815 0 0 0-1.136-.075 13.75 13.75 0 0 0-4.823 10.426 14.145 14.145 0 0 0 28.285 0A14.02 14.02 0 0 0 35.513 10.2m-2.1 25.977v-5.584a.79.79 0 0 0-.526-.742 6.76 6.76 0 0 1-4.487-6.3A6.68 6.68 0 0 1 31.41 18a3 3 0 0 1 .481-.272l-.025 5.328a3.82 3.82 0 0 0 3.595 3.771 1 1 0 0 0 .107 0 3.82 3.82 0 0 0 3.595-3.771l-.025-5.328a3 3 0 0 1 .481.272 6.69 6.69 0 0 1 3.006 5.548 6.76 6.76 0 0 1-4.487 6.3.79.79 0 0 0-.526.742v5.579a12.8 12.8 0 0 1-4.193 0Z"/><path d="M54.553 18.973h-1.278a17.8 17.8 0 0 0-1.534-3.623l.907-.887a2.376 2.376 0 0 0 0-3.394l-3.881-3.8a2.486 2.486 0 0 0-3.46 0l-.9.887a18.5 18.5 0 0 0-3.7-1.5V5.4A2.425 2.425 0 0 0 38.258 3H32.77a2.426 2.426 0 0 0-2.448 2.4v1.252a18.6 18.6 0 0 0-3.7 1.5l-.9-.887a2.485 2.485 0 0 0-3.459 0l-3.882 3.8a2.374 2.374 0 0 0 0 3.4l.9.885a18 18 0 0 0-1.532 3.623h-1.273a2.427 2.427 0 0 0-2.449 2.4v5.377a2.43 2.43 0 0 0 2.449 2.4h1.277a18 18 0 0 0 1.532 3.622l-.9.886a2.374 2.374 0 0 0 0 3.4l1.846 1.808c-.885.213-1.872.485-3.02.832l-5.7 1.725a2.04 2.04 0 0 0-1.822-1.112H5.036a2.02 2.02 0 0 0-2.036 2v11.175a2.02 2.02 0 0 0 2.036 2h4.65a2.04 2.04 0 0 0 1.907-1.308l4.99.85a1 1 0 0 0 .139.012.79.79 0 0 0 .136-1.57l-5.136-.87v-9.588l5.957-1.8c1.558-.47 2.8-.8 3.9-1.024a22 22 0 0 1 2.971-.415 30 30 0 0 1 2.073-.061h2.451a2.32 2.32 0 0 1 2.1 2.387 1.77 1.77 0 0 1-.744 1.309 2.87 2.87 0 0 1-1.711.466H26.8a2.47 2.47 0 0 0-.572 4.907l.053.01 6.088 1 .071.008c.361.026.71.068 1.047.108a8.9 8.9 0 0 0 3.213-.035l10.875-2.492h.012c1.243-.3 1.87.252 2.043.874a1.49 1.49 0 0 1-1.191 1.83l-17.063 5a8.3 8.3 0 0 1-4.035.178l-.041-.007-6.519-1.11a.8.8 0 0 0-.931.644.79.79 0 0 0 .656.915l6.5 1.105a9.3 9.3 0 0 0 1.964.2 10.2 10.2 0 0 0 2.867-.409l17.063-5a3.011 3.011 0 1 0-1.7-5.758l-10.87 2.491a7.4 7.4 0 0 1-2.656 0c-.344-.04-.7-.081-1.078-.111l-6.026-.986c-.633-.155-.965-.538-.889-1.028a.9.9 0 0 1 1.028-.753h1.997a4.47 4.47 0 0 0 2.655-.765 2.46 2.46 0 0 0 1.4.436h5.487a2.425 2.425 0 0 0 2.446-2.4v-1.253a18.6 18.6 0 0 0 3.7-1.5l.905.887a2.485 2.485 0 0 0 3.459 0l3.882-3.8a2.376 2.376 0 0 0 0-3.394l-.906-.888a17.8 17.8 0 0 0 1.534-3.62h1.278A2.43 2.43 0 0 0 57 26.751v-5.379a2.426 2.426 0 0 0-2.447-2.399M9.686 53.9h-4.65a.43.43 0 0 1-.426-.418V42.309a.43.43 0 0 1 .426-.418h4.65a.423.423 0 0 1 .426.418v11.177a.423.423 0 0 1-.426.414M55.39 26.75a.83.83 0 0 1-.837.819h-1.892a.8.8 0 0 0-.779.595 16.3 16.3 0 0 1-1.837 4.336.78.78 0 0 0 .122.965l1.341 1.314a.813.813 0 0 1 0 1.158l-3.882 3.8a.85.85 0 0 1-1.184 0l-1.339-1.312a.82.82 0 0 0-.98-.121A17 17 0 0 1 39.7 40.1a.794.794 0 0 0-.607.767v1.856a.827.827 0 0 1-.835.816h-5.487a.8.8 0 0 1-.35-.076 3.4 3.4 0 0 0 .352-1.243 3.887 3.887 0 0 0-3.5-4.086 1 1 0 0 0-.13-.011H26.62a25 25 0 0 0-4.514.344l-2.587-2.535a.81.81 0 0 1 0-1.156l1.339-1.313a.78.78 0 0 0 .124-.964 16.4 16.4 0 0 1-1.834-4.338.8.8 0 0 0-.781-.595h-1.891a.83.83 0 0 1-.839-.819v-5.376a.83.83 0 0 1 .839-.816h1.891a.8.8 0 0 0 .781-.595 16.4 16.4 0 0 1 1.834-4.339.78.78 0 0 0-.124-.964l-1.339-1.312a.81.81 0 0 1 0-1.156l3.881-3.8a.85.85 0 0 1 1.184 0l1.34 1.311a.815.815 0 0 0 .979.12 17 17 0 0 1 4.423-1.8.794.794 0 0 0 .607-.766V5.4a.83.83 0 0 1 .837-.816h5.487a.827.827 0 0 1 .835.816v1.856a.794.794 0 0 0 .608.767 16.9 16.9 0 0 1 4.424 1.8.816.816 0 0 0 .98-.12l1.339-1.313a.853.853 0 0 1 1.185 0l3.879 3.8a.81.81 0 0 1 0 1.157l-1.342 1.313a.78.78 0 0 0-.123.965 16.3 16.3 0 0 1 1.837 4.338.8.8 0 0 0 .779.595h1.892a.83.83 0 0 1 .837.816Z"/></g></svg>