<svg xmlns="http://www.w3.org/2000/svg" width="60" height="60"><defs><clipPath id="a"><path d="M0 0h60v60H0z"/></clipPath></defs><g fill="#282928" clip-path="url(#a)"><path d="M56.324 33.441H50.08v-.517a4.743 4.743 0 1 0-9.485 0v.517h-6.243a.794.794 0 0 0-.795.794v7.038a.794.794 0 0 0 .795.794h1.231a3.214 3.214 0 0 1 3.232 3.076 3.154 3.154 0 0 1-3.153 3.23h-1.31a.794.794 0 0 0-.795.794v7.038a.794.794 0 0 0 .795.794h19.525a3.245 3.245 0 0 0 3.241-3.241V34.235a.794.794 0 0 0-.794-.794m-.795 20.319a1.654 1.654 0 0 1-1.652 1.652h-18.73v-5.449h.516a4.743 4.743 0 0 0 4.738-4.856 4.81 4.81 0 0 0-4.821-4.628h-.437V35.03h6.243a.794.794 0 0 0 .794-.794v-1.312a3.154 3.154 0 1 1 6.307 0v1.311a.794.794 0 0 0 .794.794h6.243Z"/><path d="M36.557 21.3a3.154 3.154 0 0 1 3.229 3.153v1.31a.794.794 0 0 0 .795.795h7.038a.794.794 0 0 0 .794-.795v-9.131a.795.795 0 1 0-1.589 0v8.337h-5.449v-.516a4.743 4.743 0 0 0-4.856-4.742 4.81 4.81 0 0 0-4.628 4.821v.437h-5.449v-6.243a.794.794 0 0 0-.795-.794h-1.31a3.154 3.154 0 1 1 0-6.307h1.311a.794.794 0 0 0 .795-.794V4.587h18.73a1.654 1.654 0 0 1 1.652 1.652v6.685a.795.795 0 1 0 1.589 0V6.239A3.245 3.245 0 0 0 45.172 3H6.123a3.245 3.245 0 0 0-3.241 3.239v39.05a3.245 3.245 0 0 0 3.241 3.241h6.685a.795.795 0 0 0 0-1.589H6.123a1.654 1.654 0 0 1-1.652-1.652v-18.73H9.92V27a4.88 4.88 0 0 0 1.459 3.463 4.67 4.67 0 0 0 3.286 1.357h.09a4.766 4.766 0 0 0 4.65-4.742v-.517h5.449V32.8a.794.794 0 0 0 .795.794h1.332a3.154 3.154 0 1 1 0 6.307h-1.333a.794.794 0 0 0-.795.795v6.243h-8.337a.795.795 0 1 0 0 1.589h9.132a.794.794 0 0 0 .795-.794v-6.242h.539a4.743 4.743 0 1 0 0-9.485h-.539v-5.448h6.243a.794.794 0 0 0 .794-.795v-1.231a3.213 3.213 0 0 1 3.077-3.233M18.61 24.969a.794.794 0 0 0-.794.795v1.311a3.17 3.17 0 0 1-3.092 3.153 3.07 3.07 0 0 1-2.233-.9A3.28 3.28 0 0 1 11.509 27v-1.236a.794.794 0 0 0-.795-.795H4.471V6.239a1.654 1.654 0 0 1 1.652-1.652h18.73v5.449h-.517a4.743 4.743 0 1 0 0 9.485h.517v5.449Z"/></g></svg>