<svg xmlns="http://www.w3.org/2000/svg" width="60" height="60" fill="none"><path fill="#282928" d="M42.446 12.415c-2.92-1.783-5.674-2.483-8.428-4.263C32.314 7.018 29.946 4.32 27.964 2c-.386 3.724-1.543 5.234-2.867 6.312-2.807 2.16-4.57 2.806-6.992 4.103C16.07 13.438 5 19.913 5 33.832S16.948 58 30.22 58C43.49 58 55 48.56 55 34.263s-10.792-20.77-12.554-21.848M8.95 23.035c-.44-.754.166-2.428 2.207-4.638a7 7 0 0 1 .67-.637c2.797-3.059 6.66-5.14 7.865-5.73.547-.27 2.974-1.402 5.45-3.237 1.484-1.134 2.587-2.212 3.085-5.774l.117.411c.64 1.978.542 3.017.542 3.473 0 .486-.278 1.782-1.157 2.43-.386.269-.498.484-.498.539 0 .215.498.378.498.863 0 .594-.273 1.78-3.193 4.64s-7.105 5.395-10.352 6.959c-3.251 1.564-4.79 1.457-5.234.7m33.813 29.89c-.278.27-2.808 1.994-5.781 2.265-2.974.27-6.997.433-9.419-1.725-.386-.378-.273-.919 0-1.134.278-.215.498-.378.825-.378.332 0 .279 0 .445.108 1.098.863 2.754 1.564 6.274 1.564 3.525 0 6-.971 7.104-1.78.498-.377.718-.054.772.16.053.218.166.541-.22.92m-9.638-4.911c.605-.539 1.596-1.402 2.534-1.78s1.43-.323 2.314-.323c.879 0 1.816.053 2.476.483.659.433 1.05 1.404 1.27 1.945.219.538 0 .864-.445 1.079-.386.215-.44.107-.825-.593-.386-.704-.713-1.405-2.642-1.405s-2.534.649-3.471 1.404c-.933.756-1.265 1.024-1.597.594-.327-.433-.22-.864.386-1.404m14.594.433c-1.982-.163-5.947-6.205-8.481-6.313-3.193-.107-10.132 6.528-15.581 6.528-3.306 0-4.297-.486-5.4-1.187-1.65-1.133-2.476-2.86-2.422-5.233.053-4.208 4.077-8.147 9.14-8.2 6.446-.055 10.904 6.258 14.15 6.203 2.754-.053 8.042-5.341 10.63-5.341 2.754 0 3.526 2.805 3.526 4.477 0 1.675-.552 4.696-1.87 6.583-1.324 1.89-2.149 2.59-3.692 2.483"/></svg>