<svg xmlns="http://www.w3.org/2000/svg" width="60" height="60"><defs><clipPath id="b"><path fill="#fff" d="M-.121-.121h56v56h-56z"/></clipPath><clipPath id="a"><path d="M0 0h60v60H0z"/></clipPath></defs><g clip-path="url(#a)"><g clip-path="url(#b)" transform="translate(2.121 2.121)"><path fill="#282928" d="M21.858 25.014h-3.252l-1.041-3.847h3.773Zm-2.769 1.859 1.041 3.847h2.49l-.52-3.847Zm4.647-1.859h3.4v-3.847h-3.921Zm.762 5.706h2.639v-3.847h-3.16Zm4.5 0h2.658l.52-3.847H29Zm0-5.706h3.42l.52-3.847H29Zm4.535 5.706h1.078a1.87 1.87 0 0 0 1.8-1.375l.651-2.472h-3.03Zm4.647-9.554h-3.366l-.52 3.847h3.271l.911-3.457a.32.32 0 0 0-.056-.279.33.33 0 0 0-.242-.11ZM25 39.14c0 .39-.706.39-.706 0a.353.353 0 0 1 .706 0m8.29 0c0 .39-.688.39-.688 0a.353.353 0 0 1 .353-.353.35.35 0 0 1 .334.353Zm0 0c0 .39-.688.39-.688 0a.353.353 0 0 1 .353-.353.35.35 0 0 1 .334.353Zm-8.29 0c0 .39-.706.39-.706 0a.353.353 0 0 1 .706 0m0 0c0 .39-.706.39-.706 0a.353.353 0 0 1 .706 0m8.29 0c0 .39-.688.39-.688 0a.353.353 0 0 1 .353-.353.35.35 0 0 1 .334.353Zm0 0c0 .39-.688.39-.688 0a.353.353 0 0 1 .353-.353.35.35 0 0 1 .334.353Zm-8.29 0c0 .39-.706.39-.706 0a.353.353 0 0 1 .706 0m0 0c0 .39-.706.39-.706 0a.353.353 0 0 1 .706 0m8.29 0c0 .39-.688.39-.688 0a.353.353 0 0 1 .353-.353.35.35 0 0 1 .334.353Zm0 0c0 .39-.688.39-.688 0a.353.353 0 0 1 .353-.353.35.35 0 0 1 .334.353Zm-8.29 0c0 .39-.706.39-.706 0a.353.353 0 0 1 .706 0m0 0c0 .39-.706.39-.706 0a.353.353 0 0 1 .706 0m8.29 0c0 .39-.688.39-.688 0a.353.353 0 0 1 .353-.353.35.35 0 0 1 .334.353Zm0 0c0 .39-.688.39-.688 0a.353.353 0 0 1 .353-.353.35.35 0 0 1 .334.353Zm-8.29 0c0 .39-.706.39-.706 0a.353.353 0 0 1 .706 0M52.248 9.624v31.022L46.9 36.129a2.9 2.9 0 0 0-1.822-.669 2.844 2.844 0 0 0-2.844 2.844v8.29H4.145A4.15 4.15 0 0 1 0 42.446V9.624ZM26.858 39.14a2.212 2.212 0 1 0-2.212 2.212 2.217 2.217 0 0 0 2.212-2.212m8.29 0a2.2 2.2 0 1 0-2.193 2.212 2.213 2.213 0 0 0 2.193-2.212m4.758-18.977a2.18 2.18 0 0 0-1.729-.855H17.063l-.539-2.062a2.39 2.39 0 0 0-2.324-1.767h-1.375a.93.93 0 1 0 0 1.859H14.2a.54.54 0 0 1 .52.39l4.442 16.6a2.77 2.77 0 0 0 2.7 2.063h14.885a.92.92 0 0 0 .929-.929.93.93 0 0 0-.929-.929H21.858a.94.94 0 0 1-.91-.687l-.335-1.264h14a3.72 3.72 0 0 0 3.587-2.754l2.082-7.807a2.14 2.14 0 0 0-.376-1.858M33.289 39.14c0 .39-.688.39-.688 0a.353.353 0 0 1 .353-.353.35.35 0 0 1 .335.353m-8.29 0c0 .39-.706.39-.706 0a.353.353 0 0 1 .706 0m0 0c0 .39-.706.39-.706 0a.353.353 0 0 1 .706 0m8.29 0c0 .39-.688.39-.688 0a.353.353 0 0 1 .353-.353.35.35 0 0 1 .335.353m0 0c0 .39-.688.39-.688 0a.353.353 0 0 1 .353-.353.35.35 0 0 1 .335.353m-8.29 0c0 .39-.706.39-.706 0a.353.353 0 0 1 .706 0m0 0c0 .39-.706.39-.706 0a.353.353 0 0 1 .706 0m8.29 0c0 .39-.688.39-.688 0a.353.353 0 0 1 .353-.353.35.35 0 0 1 .335.353m0 0c0 .39-.688.39-.688 0a.353.353 0 0 1 .353-.353.35.35 0 0 1 .335.353m-8.29 0c0 .39-.706.39-.706 0a.353.353 0 0 1 .706 0m0 0c0 .39-.706.39-.706 0a.353.353 0 0 1 .706 0m8.29 0c0 .39-.688.39-.688 0a.353.353 0 0 1 .353-.353.35.35 0 0 1 .335.353M52.248 6.146v1.619H0V6.146a4.133 4.133 0 0 1 4.145-4.124H48.1a4.133 4.133 0 0 1 4.148 4.124m-37.434-.8a.873.873 0 0 0-.874-.874H4.387a.874.874 0 0 0 0 1.747h9.553a.87.87 0 0 0 .874-.873m26.245 0a.93.93 0 0 0-.929-.929.944.944 0 0 0-.93.929.93.93 0 0 0 .929.929.92.92 0 0 0 .93-.929m3.847 0a.944.944 0 0 0-.929-.929.93.93 0 0 0-.929.929.92.92 0 0 0 .929.929.93.93 0 0 0 .929-.929m3.829 0a.93.93 0 1 0-1.859 0 .93.93 0 1 0 1.859 0M33.289 39.14c0 .39-.688.39-.688 0a.353.353 0 0 1 .353-.353.35.35 0 0 1 .335.353m-8.29 0c0 .39-.706.39-.706 0a.353.353 0 0 1 .706 0m0 0c0 .39-.706.39-.706 0a.353.353 0 0 1 .706 0m0 0c0 .39-.706.39-.706 0a.353.353 0 0 1 .706 0m30.409 6.6-9.715-8.192a.979.979 0 0 0-1.61.749v12.707a.981.981 0 0 0 1.608.754l2.671-2.212 1.478 3.178a1.75 1.75 0 0 0 3.172-1.478l-1.478-3.178 3.415-.611a.981.981 0 0 0 .459-1.711Z"/></g></g></svg>