<svg xmlns="http://www.w3.org/2000/svg" width="60" height="60" fill="none"><path fill="#282928" d="m24.38 44.494 20.575-11.407-9.347-5.228-20.561 11.5zm21.522-23.332-9.358-5.228v10.35l9.36 5.23zm.934-12.03L37.48 14.36l9.355 5.227 9.353-5.23zM18.023 35.596l5.429-3.037V9.757l-9.36 5.231v22.803zm-4.867-32.64-9.355 5.23 9.355 5.23 9.35-5.23zM2.863 9.76v35.256l20.583 11.507V46.068l-10.764-5.915c-.035-.025-.063-.052-.1-.075-.028-.025-.06-.044-.087-.065l-.002-.006a.5.5 0 0 1-.076-.093l-.002-.002a.4.4 0 0 1-.07-.086l-.001-.002h-.006a1 1 0 0 1-.047-.105l-.002-.008q-.022-.042-.043-.097l-.002-.006a1 1 0 0 1-.02-.134v-.003a1 1 0 0 1-.016-.098V14.992l-5.423-3.038zm43.04 35.255v-10.36L25.32 46.068V56.52zm11.22-18.73v-10.35l-9.355 5.23v10.35zm1.842-12.161a.9.9 0 0 1 .035.24v12.445a.9.9 0 0 1-.466.785l-.004.002-10.756 6.017v11.925a.91.91 0 0 1-.464.785l-.004.002L24.85 58.878a.8.8 0 0 1-.159.063l-.006.002-.059.025a.879.879 0 0 1-.484-.002l.006.002a.3.3 0 0 1-.077-.031l.002.002a2 2 0 0 1-.161-.063l.008.004L1.47 46.326A.9.9 0 0 1 1 45.54V8.189q.001-.128.037-.244l-.002.006c.008-.028.026-.048.036-.076a1 1 0 0 1 .059-.145l-.002.005a.4.4 0 0 1 .057-.08l.083-.109.092-.065q.051-.043.102-.082h.002l11.228-6.277a.94.94 0 0 1 .936.002l-.004-.002L24.856 7.4a1 1 0 0 1 .1.08l.095.065c.031.035.05.073.083.11q.034.034.06.077l.003.002q.03.06.056.132l.003.008.031.076a.8.8 0 0 1 .035.226v23.337l9.356-5.23V14.355q0-.123.033-.239l-.002.006c.008-.025.026-.048.032-.077.02-.057.039-.103.063-.149l-.004.008c.017-.029.045-.048.063-.08.029-.036.053-.073.082-.103a.6.6 0 0 1 .089-.067l.002-.002c.035-.025.064-.056.102-.076h.002l11.228-6.28a.94.94 0 0 1 .936.003l-.004-.002 11.228 6.279c.04.024.067.051.104.074.03.025.063.044.09.067.032.034.056.073.085.107a1 1 0 0 1 .06.076l.001.002q.035.064.06.14l.001.005a.3.3 0 0 1 .038.075z"/></svg>