<svg xmlns="http://www.w3.org/2000/svg" width="60" height="60"><defs><clipPath id="b"><path fill="#282928" d="M-.299-.299h54v54h-54z"/></clipPath><clipPath id="a"><path d="M0 0h60v60H0z"/></clipPath></defs><g clip-path="url(#a)"><g fill="#282928" clip-path="url(#b)" transform="translate(3.299 3.299)"><path d="M10.56 25.853a6.138 6.138 0 1 1 6.2-6.138 6.174 6.174 0 0 1-6.2 6.138m0-10.553a4.416 4.416 0 1 0 4.472 4.416A4.45 4.45 0 0 0 10.56 15.3M13.056 42.847H2.251A2.247 2.247 0 0 1 0 40.61v-2.818a10.585 10.585 0 0 1 16.868-8.393.862.862 0 0 1-1.023 1.387 8.862 8.862 0 0 0-14.122 7.006v2.817a.52.52 0 0 0 .529.514h10.8a.862.862 0 1 1 0 1.723ZM51.151 42.197h-10.8a.862.862 0 0 1 0-1.723h10.8a.52.52 0 0 0 .529-.514v-2.817a8.8 8.8 0 0 0-8.84-8.739 8.92 8.92 0 0 0-5.6 1.975.861.861 0 1 1-1.083-1.339 10.65 10.65 0 0 1 6.68-2.358A10.524 10.524 0 0 1 53.4 37.142v2.817a2.247 2.247 0 0 1-2.249 2.238M42.839 25.428a6.138 6.138 0 1 1 6.2-6.138 6.173 6.173 0 0 1-6.2 6.138m0-10.553a4.416 4.416 0 1 0 4.473 4.416 4.45 4.45 0 0 0-4.473-4.416"/><path d="M38.393 45.65H15.011a2.81 2.81 0 0 1-2.817-2.8v-3.958a14.507 14.507 0 0 1 29.013 0v3.963a2.81 2.81 0 0 1-2.814 2.795m-11.69-19.4a12.727 12.727 0 0 0-12.786 12.642v3.963a1.085 1.085 0 0 0 1.094 1.073h23.382a1.085 1.085 0 0 0 1.094-1.073v-3.963a12.726 12.726 0 0 0-12.786-12.639ZM26.401 23.522a7.886 7.886 0 1 1 7.961-7.886 7.933 7.933 0 0 1-7.961 7.886m0-14.049a6.164 6.164 0 1 0 6.238 6.163 6.21 6.21 0 0 0-6.238-6.162Z"/></g></g></svg>