<svg xmlns="http://www.w3.org/2000/svg" width="60" height="60"><defs><clipPath id="a"><path d="M0 0h60v60H0z"/></clipPath></defs><g clip-path="url(#a)"><path fill="#282928" d="M26.856 43.075A2.142 2.142 0 1 1 29 40.933a2.146 2.146 0 0 1-2.144 2.142m0-2.48a.34.34 0 0 0-.34.338c0 .373.679.373.679 0a.34.34 0 0 0-.339-.338m8.068 2.48a2.142 2.142 0 1 1 2.145-2.142 2.145 2.145 0 0 1-2.145 2.142m0-2.48a.34.34 0 0 0-.339.338c0 .373.677.373.677 0a.34.34 0 0 0-.338-.338m6.757-18.09a2.09 2.09 0 0 0-1.667-.82H19.49l-.535-2a2.324 2.324 0 0 0-2.244-1.721h-1.346a.9.9 0 1 0 0 1.8h1.346a.52.52 0 0 1 .5.383l4.314 16.11a2.71 2.71 0 0 0 2.615 2h14.48a.9.9 0 1 0 0-1.8H24.139a.9.9 0 0 1-.87-.666l-.329-1.23h13.6a3.625 3.625 0 0 0 3.5-2.681l2.013-7.56a2.09 2.09 0 0 0-.365-1.821Zm-1.433 1.1a.29.29 0 0 1 .051.258l-.9 3.362h-3.167l.5-3.735h3.279a.29.29 0 0 1 .235.115Zm-5.839 3.62H31.09v-3.736h3.823Zm-5.126-3.735v3.735h-3.315l-.507-3.735Zm-5.646 0 .507 3.735h-3.166l-1-3.735Zm.752 5.539.507 3.735h-2.432l-1-3.735Zm1.824 0h3.071v3.735H26.72Zm4.878 3.735v-3.736h3.076l-.5 3.735Zm5.446 0h-1.052l.5-3.735h2.935l-.637 2.392a1.81 1.81 0 0 1-1.746 1.342ZM17.3 8.141a.845.845 0 0 0-.846-.845H7.16a.845.845 0 1 0 0 1.69h9.292a.845.845 0 0 0 .848-.845m25.519 0a.9.9 0 1 1-.9-.9.9.9 0 0 1 .898.899Zm2.823-.9a.9.9 0 1 0 .9.9.9.9 0 0 0-.902-.902Zm3.727 0a.9.9 0 1 0 .9.9.9.9 0 0 0-.902-.902Zm7.972 39.413-2.77-2.332c0-.056.01-.11.01-.166V8.917a4.933 4.933 0 0 0-4.926-4.919H6.926A4.933 4.933 0 0 0 2 8.917v35.24a4.933 4.933 0 0 0 4.926 4.919h37.921v3.378a1.856 1.856 0 0 0 3.043 1.425l1.692-1.4.942 2.021a2.58 2.58 0 0 0 1.466 1.348 2.6 2.6 0 0 0 1.993-.091 2.595 2.595 0 0 0 1.261-3.453l-.94-2.022 2.165-.386a1.854 1.854 0 0 0 .87-3.243ZM3.8 8.917a3.12 3.12 0 0 1 3.126-3.11h42.726a3.12 3.12 0 0 1 3.124 3.11v1.555H3.8Zm41.042 31.2v7.146H6.926A3.12 3.12 0 0 1 3.8 44.157V12.281h48.976v30.53l-4.882-4.109a1.856 1.856 0 0 0-3.05 1.416Zm11.305 8-3.319.592a.9.9 0 0 0-.66 1.268l1.436 3.086a.79.79 0 0 1 .026.606.793.793 0 0 1-1.021.474.78.78 0 0 1-.45-.412l-1.436-3.083a.9.9 0 0 0-.621-.5 1 1 0 0 0-.2-.021.9.9 0 0 0-.577.208l-2.676 2.114.076-12.372 9.444 7.95Z"/></g></svg>