<svg xmlns="http://www.w3.org/2000/svg" width="60" height="60"><defs><clipPath id="a"><path d="M0 0h60v60H0z"/></clipPath></defs><g clip-path="url(#a)"><path fill="#282928" d="M12.898 3.005a2.71 2.71 0 0 0-2.7 2.7v28.8a.9.9 0 1 0 1.8 0v-22.5h35.999V34.5a.9.9 0 1 0 1.8 0V5.7a2.71 2.71 0 0 0-2.7-2.7Zm0 1.8h34.2a.873.873 0 0 1 .9.9v4.5H12.002v-4.5a.873.873 0 0 1 .9-.9Zm1.8 1.8a.9.9 0 1 0 .9.9.9.9 0 0 0-.898-.9Zm3.6 0a.9.9 0 1 0 .9.9.9.9 0 0 0-.898-.9Zm3.6 0a.9.9 0 1 0 .9.9.9.9 0 0 0-.898-.9Zm12.554 0a.9.9 0 0 0 .042 1.8h10.8a.9.9 0 0 0 0-1.8Zm-28.748 1.8a2.714 2.714 0 0 0-2.7 2.7v32.4a2.716 2.716 0 0 0 2.7 2.7h48.6a2.71 2.71 0 0 0 2.7-2.7v-32.4a2.71 2.71 0 0 0-2.7-2.7h-1.8a.9.9 0 1 0 0 1.8h1.8a.873.873 0 0 1 .9.9v26.1H4.8v-26.1a.88.88 0 0 1 .9-.9h1.797a.9.9 0 1 0 0-1.8Zm27.007 7.184a.9.9 0 0 0-.865.631l-5.4 16.2a.9.9 0 1 0 1.709.571l5.4-16.2a.9.9 0 0 0-.844-1.2Zm3.913 5.2 4.57 3.813-4.57 3.808a.9.9 0 1 0 1.155 1.382l5.395-4.5a.9.9 0 0 0 0-1.382l-5.396-4.505a.92.92 0 0 0-.624-.214.9.9 0 0 0-.531 1.6Zm-13.846-1.6a.9.9 0 0 0-.552.213l-5.4 4.505a.9.9 0 0 0 0 1.382l5.4 4.5a.9.9 0 1 0 1.15-1.382l-4.57-3.807 4.57-3.813a.9.9 0 0 0-.6-1.6ZM4.8 39.005h50.4v4.5a.873.873 0 0 1-.9.9H5.704a.88.88 0 0 1-.9-.9Zm27.049 1.8h-3.693a.9.9 0 0 0 .042 1.793h3.6a.9.9 0 1 0 .051-1.793m-6.9 7.126a.9.9 0 0 0-.84.531 9.3 9.3 0 0 1-2.551 3.139H20.1a2.716 2.716 0 0 0-2.7 2.705v1.793a.9.9 0 0 0 .9.9h23.4a.9.9 0 0 0 .9-.9v-1.794a2.72 2.72 0 0 0-2.7-2.705h-1.461a9.3 9.3 0 0 1-2.551-3.139.9.9 0 1 0-1.631.761 10.2 10.2 0 0 0 1.608 2.378H24.134a10.2 10.2 0 0 0 1.608-2.378.9.9 0 0 0-.791-1.292ZM20.1 53.405h19.8a.885.885 0 0 1 .9.9v.9H19.2v-.9a.88.88 0 0 1 .9-.9"/></g></svg>