<svg xmlns="http://www.w3.org/2000/svg" width="60" height="60"><defs><clipPath id="a"><path d="M0 0h60v60H0z"/></clipPath></defs><g clip-path="url(#a)"><g fill="#282928" transform="translate(-2 -.998)"><path d="M21.462 40.135a13.58 13.58 0 0 0-5.213 10.7v4.083H8.083A4.08 4.08 0 0 1 4 50.832V48.11a9.52 9.52 0 0 1 9.527-9.527h2.722a9.47 9.47 0 0 1 5.213 1.552"/><circle cx="6.125" cy="6.125" r="6.125" transform="translate(42.987 26.864)"/><circle cx="6.125" cy="6.125" r="6.125" transform="translate(8.764 26.864)"/><path d="M60 48.11v2.722a4.08 4.08 0 0 1-4.083 4.083h-8.166v-4.083a13.58 13.58 0 0 0-5.213-10.7 9.47 9.47 0 0 1 5.213-1.549h2.717A9.52 9.52 0 0 1 60 48.11"/><circle cx="7.486" cy="7.486" r="7.486" transform="translate(24.514 25.499)"/><path d="M33.361 39.945h-2.722a10.9 10.9 0 0 0-10.888 10.888v4.083a4.09 4.09 0 0 0 4.083 4.083h16.332a4.09 4.09 0 0 0 4.085-4.083v-4.083a10.9 10.9 0 0 0-10.89-10.888M52.514 21.625l-3.286 1.167a1.407 1.407 0 0 1-1.878-1.365l.1-3.484-2.126-2.763a1.408 1.408 0 0 1 .717-2.209l3.344-.985 1.971-2.876a1.408 1.408 0 0 1 2.322 0l1.971 2.876 3.344.985a1.408 1.408 0 0 1 .717 2.209l-2.126 2.763.1 3.484a1.408 1.408 0 0 1-1.878 1.365ZM11.486 21.625 8.2 22.792a1.407 1.407 0 0 1-1.878-1.365l.1-3.484-2.129-2.763a1.408 1.408 0 0 1 .717-2.209l3.344-.985 1.971-2.876a1.408 1.408 0 0 1 2.322 0l1.971 2.876 3.344.985a1.408 1.408 0 0 1 .717 2.209l-2.126 2.763.1 3.484a1.408 1.408 0 0 1-1.878 1.365ZM32 18.562l-3.894 1.384a1.668 1.668 0 0 1-2.227-1.618l.113-4.131-2.521-3.276a1.67 1.67 0 0 1 .852-2.621l3.965-1.169 2.337-3.409a1.67 1.67 0 0 1 2.753 0l2.337 3.409L39.679 8.3a1.67 1.67 0 0 1 .851 2.619L38.009 14.2l.113 4.131a1.668 1.668 0 0 1-2.227 1.618l-3.894-1.384Z"/></g></g></svg>