<svg xmlns="http://www.w3.org/2000/svg" width="60" height="60"><defs><clipPath id="a"><path d="M0 0h60v60H0z"/></clipPath></defs><g fill="#282928" clip-path="url(#a)"><path d="M54.263 3.041H5.741a2.7 2.7 0 0 0-2.7 2.7v39.54a2.7 2.7 0 0 0 2.7 2.7H23.62a4.83 4.83 0 0 1-3.684 3.613 3.59 3.59 0 0 0-3.415 3.577 1.8 1.8 0 0 0 1.8 1.8h23.361a1.8 1.8 0 0 0 1.8-1.8 3.6 3.6 0 0 0-3.415-3.577 4.78 4.78 0 0 1-3.684-3.613h17.88a2.7 2.7 0 0 0 2.7-2.7V5.741a2.7 2.7 0 0 0-2.7-2.7m-48.522 1.8h48.522a.9.9 0 0 1 .9.9v35.043H4.841V5.741a.9.9 0 0 1 .9-.9m35.941 50.321H18.318a1.8 1.8 0 0 1 1.8-1.8h19.77a1.8 1.8 0 0 1 1.794 1.8m-5.318-3.595h-12.73a5.93 5.93 0 0 0 1.81-3.595h9.112a5.93 5.93 0 0 0 1.81 3.595Zm17.9-5.392H5.741a.9.9 0 0 1-.9-.9v-2.7h50.321v2.7a.9.9 0 0 1-.899.9Z"/><path d="M8.436 38.987h43.132a1.8 1.8 0 0 0 1.8-1.8V8.436a1.8 1.8 0 0 0-1.8-1.8H8.436a1.8 1.8 0 0 0-1.8 1.8V37.19a1.8 1.8 0 0 0 1.8 1.797m10.994-8.114-1.1-2.627c.276-.334.576-.655.868-.954a9 9 0 0 1 1.014-.878l2.581 1.1a.9.9 0 0 0 .817-.057 12.3 12.3 0 0 1 3.409-1.412.9.9 0 0 0 .619-.539l1.072-2.637a10.6 10.6 0 0 1 2.627.033l1.041 2.6a.9.9 0 0 0 .619.539 12.3 12.3 0 0 1 3.409 1.414.9.9 0 0 0 .817.057l2.627-1.1c.334.277.655.576.954.868a9 9 0 0 1 .878 1.014l-1.1 2.581a.9.9 0 0 0 .057.817 12.3 12.3 0 0 1 1.412 3.407.9.9 0 0 0 .539.619l2.637 1.072c.013.127.019.264.028.4h-4.519a10.775 10.775 0 0 0-21.477 0h-4.491c.013-.146.024-.291.049-.432l2.6-1.039a.9.9 0 0 0 .539-.619 12.3 12.3 0 0 1 1.414-3.409.9.9 0 0 0 .054-.817Zm19.506 6.317H21.058a8.986 8.986 0 0 1 17.883 0ZM8.436 8.436h43.132V37.19h-4.519a13 13 0 0 0-.04-.567 1.86 1.86 0 0 0-1.155-1.533l-2.185-.873a14 14 0 0 0-1.267-3.055l.924-2.165a1.81 1.81 0 0 0-.264-1.9 16 16 0 0 0-2.069-2.067 1.81 1.81 0 0 0-1.907-.27l-2.167.925a14 14 0 0 0-3.055-1.267l-.868-2.182a1.85 1.85 0 0 0-1.522-1.151 17 17 0 0 0-2.941 0 1.86 1.86 0 0 0-1.534 1.151l-.873 2.185a14 14 0 0 0-3.055 1.267l-2.159-.926a1.81 1.81 0 0 0-1.9.264 16 16 0 0 0-2.067 2.069 1.81 1.81 0 0 0-.27 1.907l.922 2.171a14 14 0 0 0-1.261 3.051l-2.187.873a1.85 1.85 0 0 0-1.151 1.522q-.026.279-.04.579H8.436Z"/><path d="M21.916 19.216a2.7 2.7 0 0 0 2.7-2.7.9.9 0 0 0-1.8 0 .9.9 0 1 1-1.8 0V12.93a.9.9 0 1 1 1.8 0 .9.9 0 0 0 1.8 0 2.7 2.7 0 1 0-5.4 0v3.59a2.7 2.7 0 0 0 2.7 2.696M27.305 19.216a.9.9 0 0 0 .9-.9V12.93l.719.959a1.387 1.387 0 0 0 2.157 0l.719-.959v5.392a.9.9 0 1 0 1.8 0v-6.744a1.348 1.348 0 0 0-2.426-.809L30 12.33l-1.169-1.561a1.348 1.348 0 0 0-2.426.809v6.74a.9.9 0 0 0 .9.898M38.092 15.622a.9.9 0 1 1-.779 1.348.9.9 0 0 0-1.556.9 2.7 2.7 0 1 0 2.335-4.046.9.9 0 1 1 .779-1.348.9.9 0 0 0 1.556-.9 2.7 2.7 0 1 0-2.335 4.046M15.622 19.219a.9.9 0 0 0 0-1.8h-3.593a.9.9 0 0 0 0 1.8ZM44.379 19.219h3.595a.9.9 0 1 0 0-1.8h-3.595a.9.9 0 0 0 0 1.8"/></g></svg>