<svg xmlns="http://www.w3.org/2000/svg" width="60" height="60"><defs><clipPath id="a"><path d="M0 0h60v60H0z"/></clipPath></defs><g fill="#282928" clip-path="url(#a)"><path d="M2 47.239a3.285 3.285 0 0 0 3.21 3.363h9.123l2.126-2.532a15.2 15.2 0 0 1-1.8-4.232l-3.55-.342a.735.735 0 0 1-.662-.749v-5.486a.735.735 0 0 1 .662-.749l3.541-.343a15.9 15.9 0 0 1 1.8-4.239l-2.267-2.719a.75.75 0 0 1 .048-1.013l3.9-3.871a.76.76 0 0 1 1.018-.048l2.732 2.25a15.5 15.5 0 0 1 4.276-1.789l.344-3.537a.77.77 0 0 1 .753-.694h5.527a.77.77 0 0 1 .753.694l.344 3.544a16 16 0 0 1 4.271 1.79l2.737-2.256a.76.76 0 0 1 1.02.05l3.853 3.87a.75.75 0 0 1 .043 1.009l-2.267 2.715a15.3 15.3 0 0 1 1.8 4.243l3.55.342a.735.735 0 0 1 .661.749v5.486a.733.733 0 0 1-.661.746l-3.494.339a15.8 15.8 0 0 1-1.8 4.234l2.123 2.535h9.076a3.285 3.285 0 0 0 3.21-3.36V16.372H2Z"/><path d="M42.059 47.729a14.3 14.3 0 0 0 2.022-4.75.74.74 0 0 1 .656-.586l3.358-.328v-4.121l-3.4-.328a.73.73 0 0 1-.647-.589 13.8 13.8 0 0 0-2.022-4.741.75.75 0 0 1 .048-.9l2.186-2.613-2.893-2.9-2.631 2.161a.765.765 0 0 1-.895.052 14.6 14.6 0 0 0-4.8-2.005.76.76 0 0 1-.6-.67l-.336-3.396h-4.166l-.331 3.4a.77.77 0 0 1-.6.677 14 14 0 0 0-4.792 2 .765.765 0 0 1-.9-.048l-2.634-2.164-2.934 2.9 2.185 2.609a.75.75 0 0 1 .055.89 14.3 14.3 0 0 0-2.022 4.751.74.74 0 0 1-.657.586l-3.4.328v4.12l3.4.328a.73.73 0 0 1 .647.589 13.8 13.8 0 0 0 2.022 4.741.75.75 0 0 1-.048.9l-2.183 2.61 2.935 2.9 2.634-2.163a.765.765 0 0 1 .895-.052 14.6 14.6 0 0 0 4.8 2.006.765.765 0 0 1 .6.672l.331 3.4h4.163l.331-3.405a.775.775 0 0 1 .6-.68 14 14 0 0 0 4.792-2 .765.765 0 0 1 .9.048l2.634 2.164 2.934-2.9-2.185-2.609a.75.75 0 0 1-.052-.884m-12.054 4.023a11.749 11.749 0 1 1 11.872-11.748 11.8 11.8 0 0 1-11.872 11.748M7.162 5.482a2.01 2.01 0 1 0 1.877 2.005 1.946 1.946 0 0 0-1.877-2.005M15.78 5.482a2.01 2.01 0 1 0 1.877 2.005 1.946 1.946 0 0 0-1.877-2.005"/><path d="M54.79 2H5.21A3.335 3.335 0 0 0 2 5.419v7.364h56V5.419A3.336 3.336 0 0 0 54.79 2m-47.6 9a3.512 3.512 0 1 1 3.4-3.51A3.46 3.46 0 0 1 7.193 11Zm8.594 0a3.512 3.512 0 1 1 3.4-3.51A3.46 3.46 0 0 1 15.787 11Zm8.594 0a3.512 3.512 0 1 1 3.4-3.51A3.46 3.46 0 0 1 24.381 11Z"/><path d="M24.378 5.482a2.01 2.01 0 1 0 1.877 2.005 1.946 1.946 0 0 0-1.877-2.005M30.004 29.761a10.244 10.244 0 1 0 10.26 10.243 10.244 10.244 0 0 0-10.26-10.243m-2.456 13.291a.752.752 0 1 1-.907 1.2l-4.863-3.677a.752.752 0 0 1 0-1.2l4.863-3.677a.752.752 0 1 1 .907 1.2l-4.069 3.077Zm4.025-8.418-1.66 10.967a.753.753 0 0 1-1.488-.226l1.66-10.967a.753.753 0 1 1 1.488.226m6.955 5.341a.75.75 0 0 1-.3.6l-4.863 3.677a.752.752 0 1 1-.907-1.2l4.069-3.077-4.069-3.077a.752.752 0 1 1 .907-1.2l4.863 3.677a.75.75 0 0 1 .3.6"/></g></svg>