<svg xmlns="http://www.w3.org/2000/svg" width="60" height="60"><defs><clipPath id="a"><path d="M0 0h60v60H0z"/></clipPath></defs><g clip-path="url(#a)"><g fill="#282928" transform="translate(-2 -2.25)"><path d="M43.63 15.29a1.01 1.01 0 0 1-.96.71h-2.35v2h2.35a1.01 1.01 0 0 1 .96.71 2.4 2.4 0 0 0 .17.41 1 1 0 0 1-.18 1.17l-.72.71h5.42a4 4 0 1 1 4-4 4 4 0 0 1-4 4h5.42l-.72-.71a1 1 0 0 1-.18-1.17 2.4 2.4 0 0 0 .17-.41 1.01 1.01 0 0 1 .96-.71h2.35v-2h-2.35a1.01 1.01 0 0 1-.96-.71 2.4 2.4 0 0 0-.17-.41 1 1 0 0 1 .18-1.17l1.67-1.66-1.42-1.42-1.66 1.67a1 1 0 0 1-1.17.18 2.4 2.4 0 0 0-.41-.17 1.01 1.01 0 0 1-.71-.96V9h-2v2.35a1.01 1.01 0 0 1-.71.96 2.4 2.4 0 0 0-.41.17 1 1 0 0 1-1.17-.18l-1.66-1.67-1.42 1.42 1.67 1.66a1 1 0 0 1 .18 1.17 2.4 2.4 0 0 0-.17.41M56.319 42.508V30.696h-12a.97.97 0 0 1-.89-.576l-2.11-4.409v20.4l2.68.744a4 4 0 0 1 2.26 1.707l9.75-5.9c.1-.049.21-.102.31-.154M38.52 22.712H23.76l-3 6h14.76Z"/><circle cx="2" cy="2" r="2" transform="translate(46.26 15.841)"/><path d="M22.138 10a6.96 6.96 0 0 0 2.35 5.22 4.95 4.95 0 0 1 1.65 3.71V21h2v-3a1 1 0 0 1 2 0v3h2v-2.07a4.92 4.92 0 0 1 1.66-3.71 7 7 0 0 0-.66-10.97V10a1 1 0 0 1-.45.83l-3 2a.96.96 0 0 1-1.1 0l-3-2a1 1 0 0 1-.45-.83V4.25a6.98 6.98 0 0 0-3 5.75M41.94 22.712l3 6H59.7l-3-6ZM28.917 42.831l10.24 2.889V25.75l-2.11 4.439a.97.97 0 0 1-.89.58h-12v12.357l1.25-.327a6.6 6.6 0 0 1 3.51.032M12 43.25h6v16h-6Z"/><path d="M24.74 58.25h14.97a5 5 0 0 0 2.5-.67l16.8-9.7a2 2 0 0 0 .72-2.73 2.025 2.025 0 0 0-2.72-.73l-10.07 5.81a4.1 4.1 0 0 1-.11 1.35 3.98 3.98 0 0 1-1.87 2.43 3.9 3.9 0 0 1-1.99.54 4 4 0 0 1-1.04-.14L30 51.22a1.004 1.004 0 0 1 .52-1.94l11.93 3.2a1.95 1.95 0 0 0 1.51-.2 1.991 1.991 0 0 0-.48-3.66l-14.92-4a4.96 4.96 0 0 0-2.51-.02l-5.73 1.43v10.6l2.18 1.09a4.96 4.96 0 0 0 2.24.53M4 45.25h6v12H4Z"/></g></g></svg>