<svg xmlns="http://www.w3.org/2000/svg" width="60" height="60" fill="none"><path fill="#282928" d="M49.831 11.772s-.05-.27-.203-.368-.32-.117-.32-.117l-4.814-.358-3.543-3.522a1.1 1.1 0 0 0-.447-.195c-.377-.073-.884.015-.978.037l-1.838.569C36.89 5.46 35.8 3.783 34.431 2.812c-1.012-.715-2.126-1.019-3.324-.928a5 5 0 0 0-.832-.873C28.947-.062 27.234-.23 25.184.514c-6.147 2.232-8.757 10.199-9.697 14.178l-5.358 1.66s-1.261.359-1.557.713c-.326.389-.388 1.441-.388 1.441L3.64 53.556l34.237 6.386 18.484-4zM30.86 9.933l-5.92 1.832c.784-3.071 2.292-6.21 5.173-7.434.599 1.567.764 3.712.747 5.602M25.886 2.45c1.253-.454 2.215-.434 2.938.054-3.862 1.762-5.549 6.2-6.277 10.003l-4.74 1.468c1.06-3.827 3.42-9.833 8.08-11.525m3.318 25.83a10 10 0 0 0-.954-.404 10.4 10.4 0 0 0-2.57-.607 9 9 0 0 0-1.514-.037c-.481.03-.918.116-1.301.253a3.1 3.1 0 0 0-.984.554 2.5 2.5 0 0 0-.638.826c-.15.318-.238.674-.255 1.07q-.019.44.136.848.155.412.484.81c.22.27.5.535.84.807.341.277.744.555 1.209.846.652.418 1.319.888 1.952 1.428a11.4 11.4 0 0 1 1.774 1.871c.53.712.97 1.51 1.267 2.405.298.904.45 1.9.402 2.996-.078 1.794-.471 3.34-1.12 4.622-.643 1.266-1.529 2.26-2.596 2.983-1.044.704-2.253 1.142-3.568 1.317-1.277.17-2.646.095-4.058-.217q-.015-.003-.034-.008l-.033-.006-.033-.009q-.017-.002-.034-.007a13.5 13.5 0 0 1-3.553-1.417c-.499-.29-.95-.602-1.342-.925a6.4 6.4 0 0 1-.973-.981l1.557-5.17c.263.223.585.476.951.731.37.262.786.528 1.231.778.45.252.931.484 1.426.674.502.192 1.018.34 1.53.415.451.066.855.053 1.208-.026.356-.08.66-.228.908-.431.25-.2.443-.457.579-.75.135-.297.212-.629.226-.984a3.2 3.2 0 0 0-.106-1.016 3.3 3.3 0 0 0-.445-.956 5.7 5.7 0 0 0-.826-.957c-.34-.323-.75-.656-1.233-1.01a13 13 0 0 1-1.655-1.448 9.3 9.3 0 0 1-1.292-1.685 7.5 7.5 0 0 1-.816-1.96 7.9 7.9 0 0 1-.229-2.296c.062-1.387.339-2.666.803-3.817a10.1 10.1 0 0 1 1.967-3.106 10.7 10.7 0 0 1 3.075-2.286c1.226-.612 2.627-1.042 4.18-1.245.721-.095 1.413-.14 2.066-.142.664-.003 1.288.037 1.861.11a11 11 0 0 1 1.582.316c.474.134.885.292 1.223.464zM32.91 9.3a30 30 0 0 0-.017-.708q-.105-2.764-.744-4.65c.463.046.884.2 1.269.472 1.072.759 1.843 2.286 2.387 3.99z"/></svg>