<svg xmlns="http://www.w3.org/2000/svg" width="60" height="60"><defs><clipPath id="a"><path d="M0 0h60v60H0z"/></clipPath></defs><g fill="#282928" clip-path="url(#a)"><path d="m34.089 26.649-5.1 5.1-3.177-3.177a.966.966 0 0 0-1.363 1.369l3.855 3.859a.964.964 0 0 0 1.359 0l5.786-5.787a.964.964 0 0 0-1.359-1.364Z"/><path d="M48.265 34.82a5.78 5.78 0 0 0-4.444 2.087l-2.572-1.494a12.53 12.53 0 0 0 0-10.822l2.584-1.485a5.828 5.828 0 1 0-.964-1.663l-2.579 1.48a12.53 12.53 0 0 0-9.38-5.418v-3.017a5.785 5.785 0 1 0-1.928 0v3.018a12.53 12.53 0 0 0-9.371 5.413l-2.574-1.494a5.7 5.7 0 0 0 .376-2.029 5.784 5.784 0 1 0-1.34 3.7l2.569 1.494a12.53 12.53 0 0 0 0 10.827L16.07 36.9a5.821 5.821 0 1 0 .969 1.663l2.574-1.485a12.53 12.53 0 0 0 9.371 5.413v3.017a5.784 5.784 0 1 0 1.928 0v-3.014a12.53 12.53 0 0 0 9.371-5.413l2.569 1.5a5.784 5.784 0 1 0 5.413-3.76Zm0-19.281a3.856 3.856 0 1 1-2.727 1.13 3.86 3.86 0 0 1 2.727-1.13M11.63 23.251a3.856 3.856 0 1 1 2.727-1.129 3.86 3.86 0 0 1-2.727 1.129m0 21.21a3.856 3.856 0 1 1 2.727-1.129 3.86 3.86 0 0 1-2.727 1.129M26.091 8.79a3.856 3.856 0 1 1 1.129 2.727 3.86 3.86 0 0 1-1.129-2.727m7.712 42.419a3.856 3.856 0 1 1-1.129-2.727 3.86 3.86 0 0 1 1.129 2.727M29.949 40.6a10.6 10.6 0 1 1 7.5-3.1 10.6 10.6 0 0 1-7.5 3.1m18.317 3.856a3.856 3.856 0 1 1 2.727-1.129 3.86 3.86 0 0 1-2.728 1.134Z"/></g></svg>