<svg xmlns="http://www.w3.org/2000/svg" width="60" height="60" fill="none"><path fill="#282928" d="M29.999 1C13.984 1 1 13.983 1 29.998 1 46.016 13.984 59 29.999 59 46.016 59 59 46.016 59 29.998 59 13.983 46.016 1 29.999 1m15.64 16.784c-1.342.047-2.269-.755-2.312-1.974-.014-.447.1-.836.408-1.294.299-.586.363-.654.356-.91-.028-.767-1.188-.796-1.505-.78-4.353.144-5.5 6.018-6.43 10.796L35.7 26.14c2.507.366 4.286-.086 5.28-.728 1.397-.907-.392-1.84-.168-2.871.23-1.052 1.186-1.56 1.946-1.58 1.064-.028 1.824 1.077 1.8 2.197-.037 1.853-2.495 4.397-7.41 4.293a17 17 0 0 1-1.663-.119l-.928 5.12c-.83 3.874-1.933 9.17-5.88 13.79-3.39 4.032-6.83 4.656-8.37 4.709-2.883.099-4.793-1.439-4.862-3.49-.066-1.987 1.69-3.073 2.843-3.109 1.538-.05 2.603 1.064 2.644 2.349.04 1.085-.528 1.425-.905 1.63-.25.203-.627.41-.613.856.009.191.214.632.854.611 1.219-.041 2.028-.644 2.593-1.048 2.808-2.338 3.889-6.416 5.304-13.839l.296-1.797c.484-2.415 1.018-5.105 1.835-7.787-1.98-1.49-3.166-3.337-5.828-4.06-1.825-.496-2.938-.075-3.72.915-.926 1.171-.619 2.696.276 3.59l1.48 1.635c1.81 2.094 2.803 3.724 2.429 5.915-.591 3.5-4.762 6.185-9.69 4.67-4.209-1.297-4.995-4.276-4.49-5.918.447-1.444 1.594-1.717 2.716-1.374 1.202.373 1.674 1.834 1.33 2.954-.04.12-.101.323-.226.59-.14.31-.398.58-.51.94-.27.883.937 1.508 1.778 1.767 1.883.58 3.72-.405 4.186-1.928.433-1.4-.453-2.378-.82-2.752l-1.783-1.909c-.815-.909-2.608-3.44-1.734-6.284.337-1.096 1.048-2.259 2.079-3.029 2.177-1.622 4.544-1.889 6.798-1.24 2.916.838 4.318 2.767 6.135 4.256 1.016-2.982 2.426-5.901 4.545-8.366 1.915-2.244 4.486-3.87 7.432-3.97 2.944-.098 5.169 1.237 5.242 3.348.03.9-.486 2.646-2.282 2.706"/></svg>