<svg xmlns="http://www.w3.org/2000/svg" width="60" height="60" fill="none"><path fill="#282928" fill-rule="evenodd" d="M54.407 12.07H5.57c-3.091 0-5.593 2.527-5.569 5.593v18.643a5.59 5.59 0 0 0 5.593 5.592h23.132l10.572 5.887-2.404-5.887h17.514A5.59 5.59 0 0 0 60 36.306V17.663a5.59 5.59 0 0 0-5.593-5.593M4.538 16.387c-.686.05-1.202.295-1.545.761-.343.442-.466 1.006-.392 1.643Q4.77 32.59 6.648 37.41c.49 1.177 1.055 1.741 1.717 1.692 1.03-.073 2.257-1.496 3.704-4.268q1.14-2.355 3.532-7.065c1.325 4.636 3.14 8.12 5.422 10.45.637.662 1.3.957 1.937.908.564-.05 1.006-.344 1.3-.884q.369-.699.295-1.619c-.148-2.232.073-5.347.687-9.345.637-4.121 1.422-7.09 2.379-8.855.196-.368.27-.736.245-1.178a1.92 1.92 0 0 0-.76-1.398c-.466-.368-.981-.54-1.546-.49-.71.048-1.25.392-1.618 1.079-1.521 2.771-2.6 7.26-3.238 13.49-.933-2.354-1.718-5.126-2.33-8.388-.27-1.448-.933-2.134-2.012-2.06q-1.105.073-1.84 1.471L9.15 31.18c-.883-3.557-1.717-7.899-2.477-13.025q-.258-1.914-2.135-1.767m47.27 1.767c1.74.368 3.041 1.3 3.924 2.845.785 1.325 1.177 2.92 1.177 4.833 0 2.526-.637 4.832-1.913 6.941-1.472 2.453-3.385 3.68-5.764 3.68q-.626 0-1.325-.147c-1.742-.368-3.042-1.3-3.925-2.846q-1.177-2.023-1.177-4.857 0-3.79 1.913-6.917c1.496-2.453 3.41-3.68 5.765-3.68q.625 0 1.324.148m-1.031 13.27c.908-.81 1.52-2.011 1.864-3.63.098-.564.172-1.178.172-1.815 0-.712-.147-1.472-.442-2.232-.367-.957-.858-1.472-1.447-1.595-.883-.172-1.741.319-2.55 1.52a7.9 7.9 0 0 0-1.301 2.92 8.5 8.5 0 0 0-.172 1.79c0 .712.147 1.472.442 2.233.368.957.858 1.472 1.447 1.594.613.123 1.276-.147 1.987-.785M40.352 21c-.883-1.545-2.208-2.477-3.925-2.845a6.4 6.4 0 0 0-1.325-.147c-2.354 0-4.268 1.226-5.764 3.679q-1.913 3.127-1.913 6.917 0 2.834 1.177 4.857c.883 1.546 2.183 2.478 3.925 2.846a6.4 6.4 0 0 0 1.325.147c2.379 0 4.292-1.227 5.764-3.68 1.276-2.11 1.913-4.415 1.913-6.941 0-1.914-.392-3.508-1.177-4.833m-3.091 6.795c-.343 1.619-.957 2.82-1.864 3.63-.712.638-1.374.908-1.987.785-.589-.122-1.08-.638-1.447-1.594a6.2 6.2 0 0 1-.442-2.232c0-.613.05-1.227.172-1.791a7.9 7.9 0 0 1 1.3-2.92c.81-1.201 1.668-1.692 2.55-1.52.59.123 1.08.638 1.448 1.595.295.76.442 1.52.442 2.232 0 .637-.05 1.25-.172 1.815" clip-rule="evenodd"/></svg>