<svg xmlns="http://www.w3.org/2000/svg" width="60" height="60" fill="none"><path fill="#282928" d="M29.993 1C14.003 1 1 14.003 1 29.993S14.003 59 29.993 59C45.98 59 59 45.984 59 29.993 59 14.003 45.981 1 29.993 1m0 1.331c15.255 0 27.676 12.406 27.676 27.662 0 15.257-12.42 27.676-27.676 27.676S2.33 45.249 2.33 29.993 14.736 2.33 29.993 2.33m0 2.781c-8.691 0-16.335 4.459-20.783 11.213.583.017 1.13.029 1.597.029 2.602 0 6.642-.31 6.642-.31 1.34-.08 1.487 1.897.148 2.055 0 0-1.34.159-2.84.237l9.053 26.937 5.443-16.316-3.875-10.62a45 45 0 0 1-2.604-.238c-1.34-.078-1.178-2.135.163-2.056 0 0 4.108.311 6.553.311 2.601 0 6.627-.31 6.627-.31 1.342-.08 1.502 1.897.162 2.055 0 0-1.358.159-2.855.237l8.994 26.73 2.485-8.284c1.075-3.44 1.894-5.917 1.894-8.047 0-3.074-1.11-5.206-2.057-6.863-1.26-2.05-2.44-3.78-2.44-5.829 0-2.286 1.728-4.408 4.171-4.408.11 0 .218.009.326.015a24.8 24.8 0 0 0-16.804-6.538m21.833 12.943q.162 1.188.163 2.56c0 2.524-.474 5.37-1.894 8.92L42.507 51.5c7.395-4.312 12.366-12.33 12.366-21.507 0-4.325-1.104-8.394-3.047-11.938m-44.554 1.82a24.75 24.75 0 0 0-2.145 10.118c0 9.846 5.71 18.362 14.008 22.395zm23.164 12.292-7.47 21.685a24.87 24.87 0 0 0 15.295-.384 2.3 2.3 0 0 1-.177-.355z"/></svg>