<svg xmlns="http://www.w3.org/2000/svg" width="60" height="60" fill="none"><g fill="#282928" clip-path="url(#a)"><path d="m53.355 48.092-.888-1.768a.879.879 0 0 0-1.571.79l.888 1.768c.485.964.155 1.874-.315 2.404s-1.334.965-2.35.6l-3.45-1.242a3.88 3.88 0 0 0-3.086.185 3.89 3.89 0 0 0-1.993 2.367l-1.063 3.51c-.313 1.034-1.179 1.467-1.884 1.527-.705.062-1.633-.218-2.118-1.183L29 44.064q.498.023 1.002.024c6.262 0 11.924-2.625 15.94-6.833l3.115 6.199a.879.879 0 1 0 1.57-.79l-3.435-6.837a21.94 21.94 0 0 0 4.853-13.783c0-3.497-.795-6.841-2.363-9.94a22.25 22.25 0 0 0-6.32-7.595.879.879 0 1 0-1.067 1.398c5.08 3.875 7.993 9.757 7.993 16.137 0 11.186-9.1 20.286-20.287 20.286-11.185 0-20.285-9.1-20.285-20.286s9.1-20.286 20.286-20.286c3.145 0 6.16.7 8.958 2.08a.879.879 0 1 0 .777-1.577A21.8 21.8 0 0 0 30.002 0C17.847 0 7.958 9.889 7.958 22.044a21.94 21.94 0 0 0 4.853 13.782L6.65 48.092c-.735 1.464-.517 3.134.57 4.36s2.719 1.642 4.26 1.087l3.45-1.241a2.14 2.14 0 0 1 1.703.102c.535.269.925.733 1.099 1.306l1.064 3.509c.474 1.567 1.783 2.629 3.415 2.77q.18.015.359.015c1.486 0 2.798-.806 3.48-2.161L30 49.972l3.953 7.867c.682 1.356 1.994 2.161 3.48 2.161q.18 0 .36-.016c1.631-.14 2.94-1.201 3.415-2.769l1.063-3.51a2.14 2.14 0 0 1 1.1-1.305 2.14 2.14 0 0 1 1.7-.103l3.452 1.242c1.541.555 3.173.139 4.26-1.087s1.306-2.896.57-4.36M24.477 57.05c-.484.965-1.411 1.244-2.117 1.183-.705-.06-1.57-.494-1.883-1.528l-1.064-3.509a3.88 3.88 0 0 0-1.991-2.367 3.88 3.88 0 0 0-3.087-.185l-3.451 1.242c-1.017.365-1.88-.07-2.35-.6s-.799-1.44-.314-2.405l5.84-11.627a22 22 0 0 0 12.877 6.62l2.08 4.14z"/><path d="M16.381 30.396a.88.88 0 0 0-.221 1.223 16.85 16.85 0 0 0 13.842 7.254c9.28 0 16.83-7.55 16.83-16.83s-7.55-16.83-16.83-16.83-16.83 7.55-16.83 16.83c0 1.996.346 3.95 1.029 5.808a.879.879 0 0 0 1.65-.607 15 15 0 0 1-.921-5.2c0-8.312 6.761-15.073 15.072-15.073s15.073 6.761 15.073 15.072-6.762 15.073-15.073 15.073c-4.944 0-9.578-2.43-12.398-6.499a.88.88 0 0 0-1.223-.222"/><path d="M40.425 21.966a2.58 2.58 0 0 0 .657-2.66 2.58 2.58 0 0 0-2.095-1.766l-4.165-.605a.84.84 0 0 1-.63-.459l-1.863-3.773a2.58 2.58 0 0 0-2.327-1.447 2.58 2.58 0 0 0-2.328 1.447l-1.862 3.773a.84.84 0 0 1-.63.459l-4.165.605a2.58 2.58 0 0 0-2.095 1.766 2.58 2.58 0 0 0 .657 2.66l3.013 2.938c.198.192.288.47.24.741l-.71 4.148a2.58 2.58 0 0 0 1.032 2.538 2.59 2.59 0 0 0 2.733.198l3.725-1.959a.84.84 0 0 1 .78 0l3.724 1.959a2.58 2.58 0 0 0 2.733-.198 2.58 2.58 0 0 0 1.033-2.538l-.712-4.148a.84.84 0 0 1 .241-.741zm-4.24 1.679a2.6 2.6 0 0 0-.747 2.297l.712 4.148a.82.82 0 0 1-.334.82.82.82 0 0 1-.882.063l-3.724-1.958a2.6 2.6 0 0 0-2.416 0l-3.725 1.958a.82.82 0 0 1-.882-.064.82.82 0 0 1-.333-.82l.711-4.147a2.6 2.6 0 0 0-.746-2.297l-3.013-2.937a.82.82 0 0 1-.212-.859c.1-.31.353-.523.676-.57l4.164-.605a2.6 2.6 0 0 0 1.954-1.42l1.863-3.774a.82.82 0 0 1 .75-.466c.327 0 .608.174.752.466l1.862 3.774a2.6 2.6 0 0 0 1.954 1.42l4.165.605c.323.047.575.26.676.57.1.31.022.631-.212.859z"/></g><defs><clipPath id="a"><path fill="#fff" d="M0 0h60v60H0z"/></clipPath></defs></svg>