<svg xmlns="http://www.w3.org/2000/svg" width="60" height="60" fill="none"><path fill="#282928" d="M9.785 20.324h-.143a3.325 3.325 0 0 0-3.316 3.316V38.08c0 1.829 1.49 3.318 3.316 3.318h.145a3.326 3.326 0 0 0 3.316-3.318V23.64a3.33 3.33 0 0 0-3.318-3.316M14.69 43.653a3.05 3.05 0 0 0 3.047 3.043h3.257v7.799a3.326 3.326 0 0 0 3.316 3.32h.143c1.829 0 3.32-1.491 3.32-3.32v-7.799h4.552v7.799a3.33 3.33 0 0 0 3.321 3.32h.14a3.325 3.325 0 0 0 3.319-3.32v-7.799h3.259a3.05 3.05 0 0 0 3.045-3.043V20.856H14.69zM37.7 7.03l2.586-3.994a.55.55 0 1 0-.921-.599l-2.682 4.131a17.5 17.5 0 0 0-6.633-1.287c-2.375 0-4.618.463-6.634 1.287l-2.678-4.13a.55.55 0 0 0-.764-.162.55.55 0 0 0-.162.76l2.59 3.993c-4.669 2.288-7.816 6.6-7.816 11.545 0 .304.019.603.045.9h30.841q.041-.445.043-.9c0-4.946-3.15-9.257-7.816-11.545m-14.8 7.15a1.482 1.482 0 1 1 0-2.963 1.482 1.482 0 1 1 0 2.962m14.298 0a1.482 1.482 0 1 1 0-2.963c.822 0 1.483.658 1.483 1.48s-.66 1.482-1.483 1.482M50.457 20.324h-.138a3.33 3.33 0 0 0-3.321 3.316V38.08a3.33 3.33 0 0 0 3.321 3.318h.14a3.324 3.324 0 0 0 3.316-3.318V23.64a3.327 3.327 0 0 0-3.318-3.316"/></svg>