<svg xmlns="http://www.w3.org/2000/svg" width="61" height="60" fill="none"><path fill="#282928" d="M22.338 9.223c.265.335.415.75.415 1.208v1.102c0 .97-.697 1.782-1.658 1.931l-1.57.247c-.141.309-.247.556-.37.803l.96 1.376c.574.767.486 1.834-.184 2.522l-.75.767c-.67.679-1.799.758-2.557.185l-1.27-.944c-.309.115-.556.203-.811.3l-.291 1.658a1.93 1.93 0 0 1-1.932 1.667h-1.067a1.94 1.94 0 0 1-1.931-1.667l-.247-1.596c-.291-.15-.538-.247-.767-.37l-1.358.952c-.759.573-1.887.485-2.558-.185l-.75-.767-.052-.053v20.75h54.57V12.045a2.825 2.825 0 0 0-2.823-2.822zm21.015 15.582a2.09 2.09 0 0 1-1.79 2.081l-1.808.282c-.088.01-.15.08-.177.15q-.158.435-.344.856c-.035.08-.035.167.018.238l1.102 1.508c.609.838.53 1.984-.202 2.725l-.873.873c-.715.732-1.932.82-2.76.203l-1.456-1.085c-.097-.08-.167-.053-.238-.018a10 10 0 0 1-.829.344.24.24 0 0 0-.15.177l-.273 1.834a2.1 2.1 0 0 1-2.09 1.799h-1.217a2.1 2.1 0 0 1-2.09-1.8l-.273-1.842c-.01-.08-.062-.141-.15-.168-.282-.106-.556-.23-.82-.344-.062-.026-.142-.053-.247.018L25.23 33.72c-.82.608-2.029.529-2.76-.203l-.874-.873a2.1 2.1 0 0 1-.194-2.725l1.103-1.508a.25.25 0 0 0 .017-.238 9 9 0 0 1-.361-.856c-.027-.079-.097-.14-.168-.15l-1.808-.282a2.09 2.09 0 0 1-1.79-2.08v-1.262a2.1 2.1 0 0 1 1.79-2.09l1.808-.273a.2.2 0 0 0 .177-.15c.105-.291.229-.573.361-.856a.23.23 0 0 0-.017-.229l-1.103-1.517a2.1 2.1 0 0 1 .194-2.716l.873-.882c.723-.723 1.94-.82 2.76-.203l1.464 1.085c.097.08.168.053.238.018.265-.124.538-.247.82-.335a.23.23 0 0 0 .15-.177l.283-1.843a2.114 2.114 0 0 1 2.08-1.799h1.218c1.031 0 1.94.767 2.09 1.8l.273 1.842c.018.08.08.141.159.177.273.097.547.22.82.335.062.035.132.053.238-.018l1.455-1.085c.83-.608 2.046-.52 2.76.203l.873.882a2.08 2.08 0 0 1 .203 2.716l-1.11 1.508a.25.25 0 0 0-.019.238q.199.421.344.856a.21.21 0 0 0 .177.15l1.808.273a2.1 2.1 0 0 1 1.79 2.09z"/><path fill="#282928" d="m41.28 23.313-1.799-.273a2.12 2.12 0 0 1-1.666-1.385 8 8 0 0 0-.283-.679 2.12 2.12 0 0 1 .194-2.142l1.103-1.517a.24.24 0 0 0-.018-.291l-.873-.873c-.115-.124-.194-.106-.291-.027l-1.464 1.094a2.11 2.11 0 0 1-2.17.194 6 6 0 0 0-.652-.265 2.12 2.12 0 0 1-1.367-1.675l-.282-1.844a.23.23 0 0 0-.23-.185h-1.216c-.115 0-.203.088-.23.185l-.273 1.844a2.13 2.13 0 0 1-1.376 1.675c-.22.08-.432.168-.652.265a2.13 2.13 0 0 1-2.17-.194l-1.455-1.094c-.105-.08-.185-.097-.3.018l-.864.882c-.088.088-.097.203-.026.29l1.102 1.518a2.07 2.07 0 0 1 .203 2.134c-.115.229-.194.45-.282.687a2.13 2.13 0 0 1-1.667 1.385l-1.808.273c-.114.018-.185.115-.185.23v1.26c0 .115.08.203.185.23l1.808.273a2.14 2.14 0 0 1 1.667 1.385c.088.238.176.458.282.688a2.1 2.1 0 0 1-.203 2.142L22.92 31.03c-.062.089-.053.221.026.291l.865.882c.114.115.194.097.3.018l1.454-1.093a2.07 2.07 0 0 1 1.253-.415c.317 0 .643.08.926.203.22.106.432.194.652.282.732.265 1.261.9 1.376 1.667l.273 1.834a.23.23 0 0 0 .23.194h1.217c.114 0 .202-.088.229-.194l.282-1.834a2.12 2.12 0 0 1 1.367-1.667c.23-.088.44-.176.653-.273a2.16 2.16 0 0 1 2.186.194l1.456 1.093c.105.08.176.097.29-.017l.874-.882a.217.217 0 0 0 .017-.291l-1.102-1.508a2.1 2.1 0 0 1-.194-2.143c.106-.23.194-.45.282-.688a2.1 2.1 0 0 1 1.667-1.384l1.799-.274a.23.23 0 0 0 .194-.23v-1.26a.27.27 0 0 0-.212-.22M30.883 29.46a5.295 5.295 0 0 1-5.291-5.291 5.295 5.295 0 0 1 5.291-5.291 5.295 5.295 0 0 1 5.291 5.29 5.3 5.3 0 0 1-5.29 5.292M30.884 44.178a.935.935 0 0 0-.935.934c0 .512.415.926.935.926a.926.926 0 0 0 .926-.925.94.94 0 0 0-.926-.935M24.173 51.102v5.229h-5.67a.945.945 0 0 0 0 1.887h23.853a.945.945 0 0 0 0-1.887h-4.77v-5.23zM4.102 13.747l-.52-.097v2.055l.829-1.129c-.106-.317-.212-.564-.309-.829"/><path fill="#282928" d="M58.169 40.996H3.599v5.406a2.82 2.82 0 0 0 2.823 2.822h48.925a2.825 2.825 0 0 0 2.822-2.822zM30.884 47.92a2.808 2.808 0 1 1 0-5.618 2.813 2.813 0 0 1 2.804 2.813 2.806 2.806 0 0 1-2.804 2.805M30.883 27.574a3.404 3.404 0 1 0 0-6.808 3.404 3.404 0 0 0 0 6.808M4.33 11.833c.715.114 1.306.6 1.553 1.278.061.194.14.397.238.582.308.653.238 1.411-.185 1.984l-.953 1.314v.097l.759.767.097.01 1.27-.944a1.9 1.9 0 0 1 1.155-.388c.3 0 .59.061.855.185.177.088.37.168.556.238a1.95 1.95 0 0 1 1.27 1.543l.246 1.596c0 .036.036.062.062.062h1.067c.035 0 .062-.026.08-.062l.238-1.596a1.97 1.97 0 0 1 1.27-1.543c.185-.062.379-.15.555-.238a1.98 1.98 0 0 1 2.02.194l1.26.944.768.66-.67-.67.75-.758q.037-.041.008-.097l-.961-1.314a1.96 1.96 0 0 1-.185-1.984c.097-.185.167-.388.247-.582a1.95 1.95 0 0 1 1.543-1.279l1.57-.247c.026 0 .053-.026.053-.061v-1.102q0-.053-.053-.08l-1.57-.238A1.95 1.95 0 0 1 17.7 8.817c-.08-.194-.15-.389-.247-.574a1.96 1.96 0 0 1 .185-1.984l.961-1.314c.018-.026.018-.062-.009-.097l-.75-.758-.66-.759.555.75-1.27.944a1.95 1.95 0 0 1-2.01.194c-.177-.097-.371-.168-.556-.239a1.97 1.97 0 0 1-1.27-1.543l-.238-1.605c-.009-.035-.036-.053-.07-.053h-1.068c-.026 0-.062.018-.062.053l-.246 1.614a1.95 1.95 0 0 1-1.27 1.543q-.277.095-.556.23a1.95 1.95 0 0 1-2.01-.194l-1.27-.944-.768-.653.67.662-.758.767c-.017.026-.026.062 0 .097l.953 1.314c.414.573.485 1.332.185 1.984-.097.185-.168.38-.238.582a1.98 1.98 0 0 1-1.552 1.279l-1.561.238c-.036.009-.07.035-.07.07v1.103a.06.06 0 0 0 .06.062zm7.461-5.574a4.72 4.72 0 0 1 4.71 4.71c0 2.61-2.117 4.726-4.71 4.726a4.727 4.727 0 0 1-4.727-4.727c0-2.592 2.126-4.709 4.727-4.709"/><path fill="#282928" d="M11.79 13.809a2.836 2.836 0 1 0-.01-5.672 2.836 2.836 0 0 0 .01 5.672"/></svg>