<svg xmlns="http://www.w3.org/2000/svg" width="61" height="60" fill="none"><path fill="#282928" d="M12.073 13.376c-.062-2.246-3.343-2.256-3.407 0 .043 2.264 3.366 2.253 3.406 0"/><path fill="#282928" d="m11.92 21.119.354-1.689c.06-.303.273-.566.556-.707.619-.227 1.1-.89 1.8-.647l1.617.536 1.556-2.73-1.273-1.142c-.414-.339-.324-.887-.303-1.364-.023-.474-.11-1.011.303-1.355l1.273-1.152-1.556-2.72-1.618.536c-.702.245-1.182-.424-1.799-.657a1 1 0 0 1-.556-.707l-.354-1.678H8.807L8.463 7.32c-.137.713-.978.827-1.455 1.233a1.02 1.02 0 0 1-.9.131L4.49 8.15l-1.567 2.72 1.273 1.152c.427.334.327.879.314 1.354.01.486.116 1.018-.314 1.365l-1.273 1.142 1.567 2.73 1.617-.536c.692-.242 1.184.416 1.79.647.292.141.494.404.565.707l.344 1.689c.352-.002 3.113 0 3.113 0m-5.276-7.743c.152-4.935 7.294-4.925 7.45 0-.16 4.937-7.295 4.946-7.45 0M34.25 49.39h21.905v-9.916a2.42 2.42 0 0 0-2.416-2.406H36.666a2.414 2.414 0 0 0-2.416 2.406zM31.896 51.414c-.221 1.872 1.05 3.643 3.012 3.64H55.49a3.02 3.02 0 0 0 3.022-3.013v-.627z"/><path fill="#282928" d="M29.793 34.391c1.326-.015 1.335-1.999 0-2.021h-5.166l-.283-2.891h7.733a2.567 2.567 0 0 0 2.558-2.558V14.933a2.57 2.57 0 0 0-2.558-2.568H19.17l-.92.83v.373l.92.819c.548.466 1.25 1.008.798 1.8l-2.385 4.144a1.01 1.01 0 0 1-1.193.454l-1.93-.636c-.102.06-.203.121-.304.172l-.414 2.011a1.015 1.015 0 0 1-.991.809c-.812-.002-2.574.001-3.396 0v3.78a2.56 2.56 0 0 0 2.557 2.558h7.733l-.283 2.89h-5.064c-.556 0-1.011.456-1.011 1.012 0 .566.455 1.01 1.01 1.01zM30.778 46.911a12.22 12.22 0 0 1-6.697-4.263l1.041.24c1.298.275 1.745-1.648.454-1.97l-3.492-.806c-.49-.095-.969.15-1.165.612l-1.154 2.9c-.483 1.225 1.377 1.978 1.877.747l.42-1.054c1.993 2.77 4.9 4.762 8.246 5.56a1.01 1.01 0 1 0 .47-1.966M37.23 23.18a12.26 12.26 0 0 1 7.969 7.73l-1.353-.56c-1.235-.485-1.992 1.341-.772 1.87l3.319 1.37c.45.188.988.021 1.249-.406l1.677-2.742c.671-1.146-1.01-2.177-1.726-1.056l-.497.814a14.29 14.29 0 0 0-9.27-8.953c-1.274-.37-1.862 1.517-.597 1.932"/></svg>