<svg xmlns="http://www.w3.org/2000/svg" width="61" height="60" fill="none"><path fill="#282928" d="M41.278 2.186h.396c.318 3.922-1.18 6.854-3 8.976-1.785 2.108-4.23 4.153-8.185 3.842-.264-3.866 1.236-6.58 3.053-8.698 1.686-1.973 4.776-3.73 7.736-4.12M53.248 43.017v.11c-1.111 3.366-2.696 6.25-4.631 8.928-1.766 2.43-3.93 5.7-7.794 5.7-3.34 0-5.557-2.146-8.98-2.205-3.62-.059-5.61 1.795-8.92 2.262h-1.128c-2.43-.352-4.392-2.277-5.821-4.01-4.214-5.126-7.47-11.745-8.076-20.216v-2.49c.257-6.062 3.203-10.991 7.118-13.38 2.067-1.27 4.908-2.352 8.07-1.869 1.356.21 2.741.675 3.955 1.134 1.15.442 2.59 1.226 3.953 1.185.923-.027 1.841-.509 2.772-.848 2.726-.984 5.398-2.113 8.92-1.583 4.233.64 7.238 2.521 9.094 5.423-3.58 2.279-6.412 5.713-5.928 11.578.43 5.327 3.527 8.444 7.396 10.28"/></svg>