<svg xmlns="http://www.w3.org/2000/svg" width="61" height="60" fill="none"><path fill="#282928" d="M47.28 4.015a2.005 2.005 0 0 0-1.999-2H15.298a2.005 2.005 0 0 0-2 2v3.997H47.28zM30.29 6.013h-4.998a1 1 0 0 1 0-1.998h4.997a1 1 0 1 1 0 1.998m4.997 0h-1a1 1 0 1 1 0-1.998h1a1 1 0 0 1 0 1.998M16.457 13.1l.33 2.539c.23.08.45.18.67.28l2.018-1.56c.338-.26.801-.28 1.16-.05a11.9 11.9 0 0 1 3.358 3.358.99.99 0 0 1-.05 1.16l-1.56 2.019c.1.22.2.44.28.67l2.54.33a1 1 0 0 1 .849.789c.32 1.563.32 3.174 0 4.737a1 1 0 0 1-.85.79l-2.538.33c-.08.23-.18.45-.28.669l1.559 2.019a.99.99 0 0 1 .05 1.16 11.9 11.9 0 0 1-3.358 3.357c-.356.233-.82.217-1.16-.04l-2.019-1.569c-.22.1-.44.2-.67.28l-.329 2.539a1 1 0 0 1-.79.85c-.779.159-1.573.239-2.368.24v11.992h33.98v-1.998c-.795 0-1.588-.081-2.368-.24a1 1 0 0 1-.79-.85l-.33-2.539c-.23-.08-.449-.18-.669-.28l-2.019 1.57c-.339.257-.803.273-1.159.04a11.9 11.9 0 0 1-3.358-3.358 1.01 1.01 0 0 1 .04-1.16l1.569-2.018c-.1-.22-.2-.44-.28-.67l-2.538-.33a1 1 0 0 1-.85-.79 11.8 11.8 0 0 1 0-4.737 1 1 0 0 1 .85-.79l2.538-.33c.08-.23.18-.449.28-.669l-1.57-2.019a1.01 1.01 0 0 1-.04-1.16 11.9 11.9 0 0 1 3.359-3.357c.356-.233.82-.217 1.16.04l2.018 1.569c.22-.1.44-.2.67-.28l.33-2.539a1 1 0 0 1 .79-.85c.779-.159 1.572-.239 2.368-.239V10.012H13.299v1.999c.796 0 1.59.08 2.369.24a1 1 0 0 1 .79.849M13.299 55.986a2.005 2.005 0 0 0 1.999 1.999H45.28a2.005 2.005 0 0 0 1.999-1.999v-3.998H13.299zm15.99-1.999h2a1 1 0 1 1 0 2h-2a1 1 0 0 1 0-2"/><path fill="#282928" d="M17.297 25.004a4 4 0 0 0-3.998-3.998V29a4 4 0 0 0 3.998-3.997M55.764 33.407a1.02 1.02 0 0 1-.83-.7 8.4 8.4 0 0 0-.619-1.509.99.99 0 0 1 .09-1.079l1.49-1.939a9.6 9.6 0 0 0-1.8-1.799l-1.939 1.49a.99.99 0 0 1-1.08.09 8 8 0 0 0-1.508-.62 1 1 0 0 1-.7-.83l-.32-2.428a9.8 9.8 0 0 0-2.538 0l-.32 2.428a1 1 0 0 1-.7.83 8 8 0 0 0-1.509.62.99.99 0 0 1-1.08-.09l-1.938-1.49a9.6 9.6 0 0 0-1.8 1.8l1.49 1.938c.242.31.278.734.09 1.08a8.4 8.4 0 0 0-.62 1.509 1.02 1.02 0 0 1-.83.7l-2.428.32a10 10 0 0 0 0 2.538l2.429.32c.388.053.71.325.83.7q.235.783.619 1.508a.99.99 0 0 1-.09 1.08l-1.49 1.939a9.6 9.6 0 0 0 1.8 1.799l1.939-1.49a1.01 1.01 0 0 1 1.08-.09c.48.256.986.463 1.508.62.374.119.646.441.7.83l.32 2.428c.842.11 1.696.11 2.538 0l.32-2.428c.054-.389.326-.711.7-.83a8.4 8.4 0 0 0 1.509-.62 1.01 1.01 0 0 1 1.08.09l1.938 1.49a9.6 9.6 0 0 0 1.8-1.8l-1.49-1.938a.99.99 0 0 1-.09-1.08c.255-.481.463-.987.62-1.509.118-.374.441-.646.83-.7l2.428-.32c.107-.842.107-1.695 0-2.538zm-8.485 7.586a5.997 5.997 0 1 1 0-11.993 5.997 5.997 0 0 1 0 11.993"/><path fill="#282928" d="M4.813 26.591a1 1 0 0 1 .83.7q.236.784.62 1.51a.99.99 0 0 1-.09 1.079l-1.49 1.938a9.6 9.6 0 0 0 1.8 1.8l1.938-1.49a.99.99 0 0 1 1.08-.09q.721.39 1.509.62a1 1 0 0 1 .7.83l.32 2.428c.842.11 1.695.11 2.538 0l.32-2.428a1 1 0 0 1 .7-.83 7.7 7.7 0 0 0 1.508-.62.99.99 0 0 1 1.08.09l1.939 1.49a9.6 9.6 0 0 0 1.799-1.8l-1.49-1.939a.99.99 0 0 1-.09-1.079q.384-.724.62-1.51a1 1 0 0 1 .83-.699l2.428-.32c.107-.842.107-1.695 0-2.538l-2.428-.32a1 1 0 0 1-.83-.7 8.4 8.4 0 0 0-.62-1.509.99.99 0 0 1 .09-1.08l1.49-1.938a9.6 9.6 0 0 0-1.8-1.799l-1.938 1.49a.99.99 0 0 1-1.08.09 8.4 8.4 0 0 0-1.509-.62 1 1 0 0 1-.7-.83l-.32-2.429a9.8 9.8 0 0 0-2.538 0l-.32 2.429a1 1 0 0 1-.7.83 8.4 8.4 0 0 0-1.508.62.99.99 0 0 1-1.08-.09l-1.939-1.49a9.6 9.6 0 0 0-1.799 1.799l1.49 1.939c.242.31.277.734.09 1.08a8.4 8.4 0 0 0-.62 1.509 1 1 0 0 1-.83.7l-2.428.319a10 10 0 0 0 0 2.538zm8.486-7.585a5.997 5.997 0 1 1 0 11.993 5.997 5.997 0 0 1 0-11.993M43.281 34.998a4 4 0 0 0 3.998 3.998V31a4 4 0 0 0-3.998 3.998"/></svg>