<svg xmlns="http://www.w3.org/2000/svg" width="60" height="60" fill="none"><path fill="#282928" d="M30.001 44.52a13.09 13.09 0 0 0 11.532-7.012H18.47A13.09 13.09 0 0 0 30 44.519M34.006 21.484a2.005 2.005 0 0 0-2.003-2.004h-3.005v4.007h3.005a2.005 2.005 0 0 0 2.003-2.003M20.987 21.645l-.948 2.841h1.895z"/><path fill="#282928" d="M12.972 37.508a13 13 0 0 1-2.987-.36l-3.092 1.274 2.48 6.016 4.228-1.746a1 1 0 0 1 1.202.35 18.4 18.4 0 0 0 4.533 4.532 1 1 0 0 1 .35 1.204l-1.744 4.218 6.01 2.492 1.747-4.221c.18-.434.637-.686 1.1-.603a18.1 18.1 0 0 0 6.398-.01c.463-.082.922.168 1.103.602l1.756 4.229 6.002-2.49-1.746-4.228a1 1 0 0 1 .355-1.205 18.2 18.2 0 0 0 4.53-4.521 1 1 0 0 1 1.201-.35l4.227 1.75 2.494-6.014-2.248-.937c-.113.005-.224.018-.338.018h-6.782a14.996 14.996 0 0 1-27.502 0zM12.973 35.505h37.56a7.512 7.512 0 0 0 0-15.024h-.1c-.425 0-.803-.268-.944-.668a9.5 9.5 0 0 0-9.323-6.336 1.01 1.01 0 0 1-1.006-.642 13.019 13.019 0 0 0-24.339.028 1 1 0 0 1-1.037.642 8 8 0 0 0-.811-.035c-6.085 0-11.018 4.933-11.018 11.018s4.933 11.017 11.018 11.017m24.039-18.029h6.01a1.002 1.002 0 1 1 0 2.004h-2.004v10.016h2.003a1.002 1.002 0 1 1 0 2.003h-6.01a1.002 1.002 0 1 1 0-2.003h2.004V19.48H37.01a1.002 1.002 0 1 1 0-2.004m-9.015 0h4.006a4.006 4.006 0 1 1 0 8.013H29v5.008a1.002 1.002 0 0 1-2.004 0V18.478c0-.553.449-1.002 1.002-1.002m-9.965-4.323c2.206-6.618 7.728-6.694 7.962-6.694a1.002 1.002 0 1 1 .005 2.003c-.195.003-4.334.127-6.066 5.325a1.002 1.002 0 0 1-1.9-.634M16.03 30.18l4.006-12.019c.008-.023.026-.038.035-.06.108-.24.3-.43.54-.539.021-.009.036-.027.059-.034a1 1 0 0 1 .113-.014.84.84 0 0 1 .408 0 1 1 0 0 1 .113.014c.022.007.037.025.059.034.239.108.43.3.54.539.008.022.026.037.034.06l4.006 12.02a1.002 1.002 0 0 1-1.9.633L22.6 26.491h-3.23l-1.441 4.323a1.002 1.002 0 0 1-1.901-.634m-6.9-13.84a1.002 1.002 0 0 1 .856 1.812 7.04 7.04 0 0 0-4.023 6.336 6.9 6.9 0 0 0 1.549 4.377 1.002 1.002 0 1 1-1.556 1.261A8.988 8.988 0 0 1 9.129 16.34"/></svg>