<svg xmlns="http://www.w3.org/2000/svg" width="60" height="60" fill="none"><path fill="#282928" d="M1.2 54.625h11.783a1.2 1.2 0 0 0 1.2-1.2V41.643a1.2 1.2 0 0 0-1.2-1.2h-4.69v-5.68H28.8v5.68h-4.691a1.2 1.2 0 0 0-1.2 1.2v11.782a1.2 1.2 0 0 0 1.2 1.2h11.783a1.2 1.2 0 0 0 1.2-1.2V41.643a1.2 1.2 0 0 0-1.2-1.2H31.2v-5.68h20.509v5.68h-4.692a1.2 1.2 0 0 0-1.2 1.2v11.782a1.2 1.2 0 0 0 1.2 1.2H58.8a1.2 1.2 0 0 0 1.2-1.2V41.643a1.2 1.2 0 0 0-1.2-1.2h-4.691v-6.88a1.2 1.2 0 0 0-1.2-1.2H31.2v-7.307h7.442a1.2 1.2 0 0 0 1.2-1.2V6.575a1.2 1.2 0 0 0-1.2-1.2H21.36a1.2 1.2 0 0 0-1.2 1.2v17.281a1.2 1.2 0 0 0 1.2 1.2h7.44v7.307H7.092a1.2 1.2 0 0 0-1.2 1.2v6.88H1.2a1.2 1.2 0 0 0-1.2 1.2v11.782a1.2 1.2 0 0 0 1.2 1.2m33.492-2.4H25.31v-9.382h9.383zm22.908 0h-9.383v-9.382H57.6zM22.56 7.775H37.44v14.881H22.56zM2.4 42.843h9.383v9.382H2.4z"/></svg>