<svg xmlns="http://www.w3.org/2000/svg" width="60" height="60" fill="none"><path fill="#282928" d="M30 16.875c-7.237 0-13.125 5.888-13.125 13.125S22.763 43.125 30 43.125 43.125 37.237 43.125 30 37.237 16.875 30 16.875m0 24.375c-6.203 0-11.25-5.047-11.25-11.25S23.797 18.75 30 18.75 41.25 23.797 41.25 30 36.203 41.25 30 41.25m22.661-10.312a2.82 2.82 0 0 0 2.651 1.875A2.816 2.816 0 0 0 58.126 30a2.816 2.816 0 0 0-2.812-2.812 2.82 2.82 0 0 0-2.652 1.875H46.85a16.8 16.8 0 0 0-.637-3.75h1.6c.356 0 .68-.201.839-.519l1.616-3.232h2.394a2.82 2.82 0 0 0 2.651 1.875 2.816 2.816 0 0 0 2.813-2.812 2.816 2.816 0 0 0-2.812-2.812 2.82 2.82 0 0 0-2.652 1.875h-2.974c-.355 0-.68.2-.838.518l-1.616 3.232h-1.686a16.9 16.9 0 0 0-3.36-5.098v-5.573l3.232-1.616a.94.94 0 0 0 .519-.838V7.339a2.82 2.82 0 0 0 1.874-2.652A2.816 2.816 0 0 0 45 1.876a2.816 2.816 0 0 0-2.812 2.813c0 1.222.783 2.264 1.874 2.65v2.395l-3.231 1.616a.94.94 0 0 0-.519.838v4.465a17 17 0 0 0-3.75-2.199V7.34a2.82 2.82 0 0 0 1.876-2.652 2.816 2.816 0 0 0-2.813-2.812 2.816 2.816 0 0 0-2.812 2.813c0 1.222.783 2.264 1.874 2.65v6.45a16.8 16.8 0 0 0-3.75-.636V2.812A.94.94 0 0 0 30 1.876h-5.625a.937.937 0 0 0-.937.938v5.661a22.4 22.4 0 0 0-3.7 1.5l-4.075-4.075a.94.94 0 0 0-1.326 0L5.9 14.337a.937.937 0 0 0 0 1.326l4.074 4.074a22.4 22.4 0 0 0-1.5 3.7H3.75a.937.937 0 0 0-.937.938v11.25c0 .518.42.937.937.937h4.724a22.4 22.4 0 0 0 1.5 3.7L5.9 44.338a.937.937 0 0 0 0 1.326l8.437 8.437a.94.94 0 0 0 1.326 0l4.074-4.074a22.4 22.4 0 0 0 3.7 1.5v5.661c0 .518.42.938.938.938H30c.518 0 .938-.42.938-.937v-10.34a16.8 16.8 0 0 0 3.75-.636v6.45a2.82 2.82 0 0 0-1.876 2.65 2.816 2.816 0 0 0 2.813 2.813 2.816 2.816 0 0 0 2.813-2.812 2.82 2.82 0 0 0-1.876-2.652v-7.114a17 17 0 0 0 3.75-2.2v4.465c0 .356.201.68.519.839l3.231 1.616v2.394a2.82 2.82 0 0 0-1.874 2.651A2.816 2.816 0 0 0 45 58.126a2.816 2.816 0 0 0 2.813-2.812 2.82 2.82 0 0 0-1.876-2.652v-2.974c0-.355-.2-.68-.518-.838l-3.231-1.616V41.66a16.9 16.9 0 0 0 3.359-5.097h1.686l1.616 3.231a.94.94 0 0 0 .839.519h2.973a2.82 2.82 0 0 0 2.651 1.874 2.816 2.816 0 0 0 2.813-2.812 2.816 2.816 0 0 0-2.812-2.812 2.82 2.82 0 0 0-2.652 1.874h-2.394l-1.616-3.231a.94.94 0 0 0-.839-.519h-1.6c.348-1.2.565-2.456.636-3.75zm2.651-11.25a.939.939 0 0 1 0 1.875.939.939 0 0 1 0-1.875M45 3.75a.939.939 0 0 1 0 1.875.939.939 0 0 1 0-1.875m-9.375 0a.939.939 0 0 1 0 1.875.939.939 0 0 1 0-1.875m0 52.5a.939.939 0 0 1 0-1.875.939.939 0 0 1 0 1.875m9.375 0a.939.939 0 0 1 0-1.875.939.939 0 0 1 0 1.875m10.313-17.812a.939.939 0 0 1 0 1.874.939.939 0 0 1 0-1.874m0-9.376a.939.939 0 0 1 0 1.875.939.939 0 0 1 0-1.875M15 30c0-8.271 6.729-15 15-15s15 6.729 15 15-6.729 15-15 15-15-6.729-15-15m10.313 26.25v-5.43a.94.94 0 0 0-.694-.906 20.5 20.5 0 0 1-4.599-1.862.94.94 0 0 0-1.117.157L15 52.112 7.888 45l3.903-3.903a.94.94 0 0 0 .157-1.117 20.5 20.5 0 0 1-1.863-4.6.94.94 0 0 0-.905-.693H4.688v-9.374H9.18a.94.94 0 0 0 .906-.694 20.5 20.5 0 0 1 1.862-4.599.94.94 0 0 0-.157-1.117L7.888 15 15 7.888l3.903 3.903a.94.94 0 0 0 1.117.157 20.5 20.5 0 0 1 4.6-1.863.94.94 0 0 0 .692-.905V3.75h3.75v9.402C20.193 13.64 13.126 21.01 13.126 30s7.067 16.36 15.938 16.849v9.401zm9.375-30.937v9.375a.938.938 0 0 1-1.876 0v-9.376a.938.938 0 0 1 1.876 0m-6.603-.27a.937.937 0 0 0-1.796 0l-2.812 9.375a.938.938 0 0 0 1.796.539l.643-2.145h2.543l.643 2.145a.938.938 0 0 0 1.796-.539zm-1.606 5.895.709-2.363.708 2.363z"/></svg>