<svg xmlns="http://www.w3.org/2000/svg" width="60" height="60" fill="none"><path fill="#282928" d="M10.097 32.095c-.449-4.258.45-8.46 2.6-12.15a.875.875 0 0 1 1.511.88 18.12 18.12 0 0 0-2.371 11.087 18.14 18.14 0 0 0 6.672 12.283 18.13 18.13 0 0 0 11.456 4.07q.97 0 1.947-.102a18.2 18.2 0 0 0 8.546-3.19l-1.168-.042a.875.875 0 0 1 .063-1.75l3.528.127a.875.875 0 0 1 .81 1.115l-.968 3.395a.875.875 0 0 1-1.683-.48l.227-.795a19.9 19.9 0 0 1-9.172 3.36q-1.07.112-2.133.112c-4.564 0-8.957-1.548-12.554-4.46a19.88 19.88 0 0 1-7.311-13.46m32.495-17.65a19.88 19.88 0 0 0-14.687-4.348 19.9 19.9 0 0 0-9.171 3.36l.226-.795a.875.875 0 0 0-1.683-.48l-.968 3.395a.875.875 0 0 0 .81 1.114l3.528.127h.032a.875.875 0 0 0 .031-1.749l-1.172-.042a18.17 18.17 0 0 1 8.55-3.19c4.851-.51 9.612.898 13.403 3.968a18.14 18.14 0 0 1 6.672 12.283 18.12 18.12 0 0 1-2.371 11.087.875.875 0 1 0 1.512.88 19.86 19.86 0 0 0 2.6-12.15 19.88 19.88 0 0 0-7.312-13.46m11.615 1.49a.875.875 0 1 0-1.513.88 26.04 26.04 0 0 1 3.409 15.933c-1.515 14.393-14.457 24.87-28.85 23.355a26.1 26.1 0 0 1-13.144-5.212l2.713-.097a.875.875 0 1 0-.063-1.749l-5 .18a.875.875 0 0 0-.81 1.114l1.372 4.812a.875.875 0 0 0 1.683-.48l-.606-2.126a27.86 27.86 0 0 0 13.67 5.298q1.5.157 2.985.157c6.385 0 12.53-2.166 17.562-6.24 5.813-4.705 9.445-11.392 10.228-18.829.627-5.957-.63-11.834-3.636-16.997M3.897 27.251c.734-6.972 4.14-13.241 9.589-17.652s12.29-6.437 19.262-5.703A26.1 26.1 0 0 1 45.89 9.108l-2.713.098a.875.875 0 0 0 .063 1.749l5-.18a.875.875 0 0 0 .81-1.114L47.68 4.849a.875.875 0 1 0-1.683.48l.606 2.126a27.84 27.84 0 0 0-13.671-5.298c-7.437-.783-14.734 1.377-20.546 6.083C6.572 12.945 2.94 19.632 2.157 27.07a27.8 27.8 0 0 0 3.636 16.996.875.875 0 1 0 1.513-.88 26.04 26.04 0 0 1-3.409-15.934m35.512 5.76a10 10 0 0 1-.626 1.51l1.802 2.49a.875.875 0 0 1-.09 1.131l-2.352 2.352a.875.875 0 0 1-1.132.09l-2.49-1.802q-.73.376-1.508.626l-.486 3.034a.875.875 0 0 1-.864.736h-3.326a.875.875 0 0 1-.864-.736l-.486-3.034a10 10 0 0 1-1.509-.626l-2.49 1.802a.875.875 0 0 1-1.131-.09l-2.352-2.352a.875.875 0 0 1-.09-1.132l1.802-2.489a10 10 0 0 1-.626-1.51l-3.033-.485a.875.875 0 0 1-.737-.864v-3.326c0-.43.312-.796.736-.864l3.035-.485q.25-.78.625-1.51l-1.802-2.489a.875.875 0 0 1 .09-1.132l2.352-2.352a.875.875 0 0 1 1.132-.09l2.489 1.802q.729-.376 1.51-.625l.485-3.034a.875.875 0 0 1 .864-.737h3.326c.43 0 .796.313.864.737l.486 3.034q.78.25 1.509.626l2.49-1.803a.875.875 0 0 1 1.131.09l2.352 2.352a.875.875 0 0 1 .09 1.132l-1.802 2.49q.376.729.625 1.509l3.034.485a.875.875 0 0 1 .737.864v3.326c0 .43-.312.796-.737.864zm-2.413 1.126a8 8 0 0 0 .878-2.118.88.88 0 0 1 .71-.647l2.845-.456v-1.834l-2.846-.456a.88.88 0 0 1-.709-.647 8 8 0 0 0-.878-2.119.88.88 0 0 1 .043-.96l1.691-2.334-1.297-1.297-2.335 1.69a.88.88 0 0 1-.96.044 8 8 0 0 0-2.118-.878.88.88 0 0 1-.647-.71l-.456-2.845h-1.834l-.456 2.845a.88.88 0 0 1-.647.71 8 8 0 0 0-2.119.878.88.88 0 0 1-.96-.044l-2.334-1.69-1.297 1.297 1.69 2.335c.205.282.222.66.044.96a8 8 0 0 0-.878 2.118.88.88 0 0 1-.71.647l-2.845.456v1.834l2.845.455c.345.056.623.31.71.648a8 8 0 0 0 .878 2.118c.178.3.161.677-.044.96l-1.69 2.335 1.297 1.297 2.335-1.69a.88.88 0 0 1 .96-.045 8 8 0 0 0 2.118.88.88.88 0 0 1 .647.709l.456 2.845h1.834l.456-2.846a.88.88 0 0 1 .647-.709 8 8 0 0 0 2.118-.879c.3-.177.677-.16.96.044l2.335 1.691 1.297-1.297-1.69-2.335a.88.88 0 0 1-.044-.96M35.79 30A5.796 5.796 0 0 1 30 35.79 5.796 5.796 0 0 1 24.21 30 5.797 5.797 0 0 1 30 24.21 5.796 5.796 0 0 1 35.79 30m-1.75 0A4.044 4.044 0 0 0 30 25.96 4.044 4.044 0 0 0 25.96 30 4.044 4.044 0 0 0 30 34.04 4.044 4.044 0 0 0 34.04 30"/></svg>