<svg xmlns="http://www.w3.org/2000/svg" width="60" height="60" fill="none"><path fill="#282928" d="M16 19h28a1 1 0 0 0 1-1v-8a1 1 0 0 0-1-1H16a1 1 0 0 0-1 1v8a1 1 0 0 0 1 1m1-8h26v6H17zM16 35h10.061a1 1 0 0 0 0-2H17v-6h26v6h-8.957a1 1 0 1 0 0 2H44a1 1 0 0 0 1-1v-8a1 1 0 0 0-1-1H16a1 1 0 0 0-1 1v8a1 1 0 0 0 1 1M16 51h28a1 1 0 0 0 1-1v-8a1 1 0 0 0-1-1H16a1 1 0 0 0-1 1v8a1 1 0 0 0 1 1m1-8h26v6H17zM50 13h-2a1 1 0 0 0 0 2h2a7 7 0 1 1 0 14h-2a1 1 0 0 0 0 2h2a9 9 0 0 0 0-18M10 47h2a1 1 0 0 0 0-2h-2a7 7 0 1 1 0-14h2a1 1 0 0 0 0-2h-2a9 9 0 1 0 0 18M56.707 43.28a1 1 0 0 0-1.414 1.415l.293.293H48a1 1 0 1 0 0 2h7.586l-.293.293a1 1 0 1 0 1.414 1.414l2-2a1 1 0 0 0 0-1.414zM2 14.988h7.586l-.293.293a1 1 0 1 0 1.414 1.414l2-2a1 1 0 0 0 0-1.414l-2-2a1 1 0 0 0-1.414 1.414l.293.293H2a1 1 0 1 0 0 2"/><path fill="#282928" d="M30 35a1 1 0 1 0 0-2 1 1 0 0 0 0 2"/></svg>