<svg xmlns="http://www.w3.org/2000/svg" width="60" height="60" fill="none"><path stroke="#282928" stroke-linecap="round" stroke-linejoin="round" stroke-miterlimit="10" stroke-width="2" d="M24.683 40.647v8.345a3.17 3.17 0 0 1-3.17 3.171H5.654a3.17 3.17 0 0 1-3.17-3.17v-37.19a3.17 3.17 0 0 1 3.17-3.17h15.857a3.17 3.17 0 0 1 3.171 3.17v24.954M2.484 45.969h22.2M12.477 49.082h2.218M35.383 21.558v-9.754a3.17 3.17 0 0 1 3.17-3.171h15.858a3.17 3.17 0 0 1 3.17 3.17v37.19a3.17 3.17 0 0 1-3.17 3.17H38.554a3.17 3.17 0 0 1-3.171-3.17V25.4M35.383 45.969h22.199M45.375 49.082h2.218"/><path stroke="#282928" stroke-linecap="round" stroke-linejoin="round" stroke-miterlimit="10" stroke-width="2" d="M17.89 40.14a2.789 2.789 0 1 0 0-5.578 2.789 2.789 0 0 0 0 5.578"/><path stroke="#282928" stroke-linecap="round" stroke-linejoin="round" stroke-miterlimit="10" stroke-width="2" d="M43.579 21.258H38.05a8.047 8.047 0 0 0-8.047 8.047 8.047 8.047 0 0 1-8.047 8.047h-1.28"/><path stroke="#282928" stroke-linecap="round" stroke-linejoin="round" stroke-miterlimit="10" stroke-width="2" d="m41.402 18.852 2.605 2.407-2.605 2.141"/></svg>