<svg xmlns="http://www.w3.org/2000/svg" width="60" height="60" fill="none"><g fill="#282928" clip-path="url(#a)"><path d="M55.597 5.401H27.065v1.761h28.532a2.645 2.645 0 0 1 2.642 2.642V35.93h-31.35V10.03l-4.404-7.338-4.403 7.338v25.9h-2.935V0h-9.98v35.93H1.76V9.804c0-1.085.68-2.076 1.692-2.466l-.634-1.643A4.43 4.43 0 0 0 0 9.805V42.68a4.41 4.41 0 0 0 4.403 4.403H20.9v6.458h-2.642a3.233 3.233 0 0 0-3.229 3.229V60h29.942v-3.229a3.233 3.233 0 0 0-3.23-3.229H39.1v-6.458h16.497A4.41 4.41 0 0 0 60 42.681V9.804a4.41 4.41 0 0 0-4.403-4.403m-33.112.714L24.8 9.972l-2.315 1.388-2.314-1.388zm-2.642 5.714 2.642 1.585 2.642-1.585v19.404h-5.283zm0 21.165h5.284v2.936h-5.283zm-12.915.822h4.285v-1.761H6.928v-1.761h2.407v-1.762H6.928v-1.76h4.285V25.01H6.928v-1.761h2.407v-1.761H6.928v-1.762h4.285v-1.76H6.928v-1.763h2.407v-1.76H6.928V12.68h4.285V10.92H6.928V9.159h2.407V7.397H6.928V5.636h4.285V3.875H6.928V1.76h6.458V35.93H6.928zm34.814 21.487c.809 0 1.467.659 1.467 1.468v1.468H16.791V56.77c0-.81.658-1.468 1.467-1.468zm-19.08-1.761v-6.458h14.677v6.458zm35.577-10.861a2.645 2.645 0 0 1-2.642 2.642H4.403a2.645 2.645 0 0 1-2.642-2.642v-4.99H58.24z"/><path d="M35.93 8.922v9.98h20.548v-9.98zm18.786 8.22H37.691v-6.459h17.025zM35.93 20.664v6.458h9.393v-6.458zm7.632 4.697H37.69v-2.936h5.87zM47.086 20.664v6.458h9.393v-6.458zm7.632 4.697h-5.87v-2.936h5.87zM33.99 10.683V8.922h-5.283v1.761h1.761v21.722h-1.761v1.761h5.284v-1.76H32.23V10.682zM30.882 40.625h-1.76v1.761h1.76zM34.402 40.625H32.64v1.761h1.76zM27.359 40.625h-1.761v1.761h1.76zM23.367 22.953h-1.762v1.761h1.762zM23.367 26.477h-1.762v2.935h1.762zM23.367 15.324h-1.762v5.871h1.762zM44.44 29.473h-1.76v1.76h1.76zM40.918 29.473h-4.11v1.76h4.11zM52.074 29.473h-4.11v1.76h4.11zM55.597 29.473h-1.761v1.76h1.761z"/></g><defs><clipPath id="a"><path fill="#fff" d="M0 0h60v60H0z"/></clipPath></defs></svg>