<svg xmlns="http://www.w3.org/2000/svg" width="60" height="60" fill="none"><path fill="#282928" d="M23 56.182h-5.09c-.546 0-.91-.364-.91-.91 0-.545.364-.909.91-.909H23c.546 0 .91.364.91.91 0 .545-.364.908-.91.908M17.82 38.728h-5c-.546 0-.91-.363-.91-.909 0-.545.364-.909.91-.909h5c.545 0 .908.364.908.91 0 .545-.363.908-.909.908M18.637 33.275H12.82c-.545 0-.909-.363-.909-.909 0-.545.364-.909.91-.909h5.817c.546 0 .91.364.91.91 0 .545-.364.908-.91.908"/><path fill="#282928" d="M32.362 59.183H8.726c-2.637 0-4.91-2.273-4.91-4.91V5.82C3.816 3.092 5.998.91 8.635.91H32.27a4.89 4.89 0 0 1 4.909 4.91V20c0 .546-.364.91-.909.91-.546 0-.91-.364-.91-.91V5.82c0-1.636-1.454-3.09-3.09-3.09H8.635c-1.637 0-3 1.363-3 3.09v48.455c0 1.636 1.454 3.09 3.09 3.09h23.637c1.636 0 3.09-1.454 3.09-3.09V30.637c0-.545.364-.909.91-.909.545 0 .909.364.909.91v23.636c0 2.636-2.273 4.909-4.91 4.909"/><path fill="#282928" d="M36.272 53.275H4.636c-.546 0-.91-.363-.91-.909 0-.545.364-.909.91-.909h31.636c.546 0 .91.364.91.91 0 .545-.364.908-.91.908M24.635 6.728h-8.273c-2 0-3.546-1.545-3.546-3.545V1.819c0-.545.364-.909.91-.909H27.27c.545 0 .909.364.909.91v1.272c0 2-1.545 3.636-3.545 3.636m-10-4v.455c0 .909.818 1.727 1.727 1.727h8.273c1 0 1.727-.818 1.727-1.818v-.364zM20.91 45.818c-.273 0-.546-.09-.728-.363s-.272-.546-.181-.819c.545-1.727 1-4.181 1.363-6.272.455-2.182.636-3.455.91-3.91 1.181-2.636 2.636-4.181 4.454-4.727 1.545-.363 3.182 0 4.818 1.273 1.273 1.091 3.545 4.091-.818 9.727-3.364 4.364-9.546 5-9.818 5.091M28 31.455c-.181 0-.454 0-.636.09-1.273.364-2.364 1.637-3.273 3.637-.181.364-.454 2.09-.818 3.545-.273 1.546-.636 3.455-1.09 5 1.817-.454 5.181-1.545 7.181-4.09 2.455-3.182 2.91-5.728 1.091-7.182a3.58 3.58 0 0 0-2.454-1"/><path fill="#282928" d="M32.454 36.001c-.182 0-.364-.09-.546-.182-.363-.273-.545-.818-.181-1.273L52.363 5.82c.364-.454.182-1.272-.273-1.636-.454-.273-1.182-.364-1.636.182L28.18 31.183c-.364.364-.909.454-1.273.09-.363-.363-.454-.908-.09-1.272L48.998 3.274c1-1.273 2.818-1.455 4.182-.546 1.273 1.091 1.636 2.91.636 4.182L33.181 35.637c-.182.273-.454.364-.727.364"/><path fill="#282928" d="M41.725 23.364c-.455 0-.819-.273-.91-.728l-1.454-6.727c-.09-.455.182-1 .727-1.091.455-.09 1 .182 1.091.727l1.455 6.728c.09.454-.182 1-.728 1.09zM26.727 22.001H14.272c-.545 0-.909-.364-.909-.909v-7.273c0-.545.364-.909.91-.909h12.454c.545 0 .909.364.909.91v7.272c0 .545-.364.91-.91.91m-11.545-1.818h10.636v-5.455H15.18zM23.637 27.728H12.82c-.545 0-.909-.363-.909-.909 0-.545.364-.909.91-.909h10.817c.546 0 .91.364.91.91 0 .545-.364.908-.91.908M49.183 47.545c-.546 0-.91-.364-.91-.909V25.272c0-.545.364-.909.91-.909.545 0 .909.364.909.91v21.363c0 .545-.364.91-.91.91M54.82 47.548c-.546 0-.91-.363-.91-.909V17.003c0-.546.364-.91.91-.91.545 0 .908.364.908.91v29.636c0 .546-.363.91-.909.91M43.546 47.548c-.546 0-.91-.364-.91-.91V33.73c0-.545.364-.909.91-.909.545 0 .909.364.909.91v12.909c0 .545-.364.909-.91.909"/></svg>