<svg xmlns="http://www.w3.org/2000/svg" width="60" height="60" fill="none"><path fill="#282928" d="M39.375 16.875a.94.94 0 0 0 .663-.275L51.013 5.625h1.66a2.81 2.81 0 0 0 2.64 1.875 2.816 2.816 0 0 0 2.812-2.812 2.816 2.816 0 0 0-2.812-2.813c-1.221 0-2.252.787-2.64 1.875h-2.048a.94.94 0 0 0-.663.275L38.987 15H37.5v-.937a2.816 2.816 0 0 0-2.812-2.813 2.816 2.816 0 0 0-2.813 2.813v2.812h-4.782a4.695 4.695 0 0 0-4.593-3.75c-1.174 0-2.235.45-3.058 1.164l-8.678-6.626c.302-.62.486-1.305.486-2.038A4.693 4.693 0 0 0 6.563.938a4.693 4.693 0 0 0-4.688 4.687 4.693 4.693 0 0 0 4.688 4.688c1.173 0 2.234-.45 3.058-1.165l8.677 6.626c-.17.348-.311.711-.39 1.1h-6.753a4.696 4.696 0 0 0-4.592-3.749 4.693 4.693 0 0 0-4.688 4.688A4.693 4.693 0 0 0 6.563 22.5c1.173 0 2.234-.45 3.058-1.164l3.365 2.57-3.365 2.57a4.65 4.65 0 0 0-3.059-1.163A4.693 4.693 0 0 0 1.875 30a4.693 4.693 0 0 0 4.688 4.688c1.173 0 2.234-.45 3.058-1.165l3.365 2.57-3.365 2.571A4.65 4.65 0 0 0 6.562 37.5a4.693 4.693 0 0 0-4.687 4.688 4.693 4.693 0 0 0 4.688 4.687 4.696 4.696 0 0 0 4.592-3.75h6.752c.08.39.221.752.391 1.1L9.621 50.85a4.65 4.65 0 0 0-3.059-1.163 4.693 4.693 0 0 0-4.687 4.687 4.693 4.693 0 0 0 4.688 4.688 4.693 4.693 0 0 0 4.687-4.688c0-.733-.184-1.418-.486-2.037l8.678-6.626a4.65 4.65 0 0 0 3.058 1.163 4.696 4.696 0 0 0 4.593-3.75h4.782V45a2.816 2.816 0 0 0 2.813 2.813A2.816 2.816 0 0 0 37.5 45h1.487l10.975 10.975a.94.94 0 0 0 .663.275h2.047a2.81 2.81 0 0 0 2.64 1.875 2.816 2.816 0 0 0 2.813-2.812 2.816 2.816 0 0 0-2.812-2.813c-1.221 0-2.252.787-2.64 1.875h-1.66L40.038 43.4a.94.94 0 0 0-.663-.275H37.5v-2.812h4.3l7.225 7.225a.94.94 0 0 0 .663.275h2.984a2.81 2.81 0 0 0 2.64 1.874 2.816 2.816 0 0 0 2.813-2.812 2.816 2.816 0 0 0-2.812-2.812c-1.221 0-2.252.786-2.64 1.874h-2.597l-7.226-7.225a.94.94 0 0 0-.663-.275H37.5v-2.812h8.05l3.475 3.475a.94.94 0 0 0 .663.275h2.984a2.81 2.81 0 0 0 2.64 1.875 2.816 2.816 0 0 0 2.813-2.812 2.816 2.816 0 0 0-2.812-2.813c-1.221 0-2.252.787-2.64 1.875h-2.597L46.6 34.025a.94.94 0 0 0-.663-.275H37.5v-2.812h15.173a2.81 2.81 0 0 0 2.64 1.875A2.816 2.816 0 0 0 58.125 30a2.816 2.816 0 0 0-2.812-2.812c-1.221 0-2.252.786-2.64 1.875H37.5V26.25h8.438a.94.94 0 0 0 .662-.275l3.476-3.475h2.596a2.81 2.81 0 0 0 2.64 1.875 2.816 2.816 0 0 0 2.813-2.812 2.816 2.816 0 0 0-2.812-2.813c-1.221 0-2.252.787-2.64 1.875h-2.986a.94.94 0 0 0-.662.275l-3.476 3.475H37.5v-2.812h4.688a.94.94 0 0 0 .662-.275l7.226-7.225h2.596a2.81 2.81 0 0 0 2.64 1.874 2.816 2.816 0 0 0 2.813-2.812 2.816 2.816 0 0 0-2.812-2.812c-1.221 0-2.252.786-2.64 1.874h-2.986a.94.94 0 0 0-.662.275l-7.226 7.226H37.5v-2.813zM55.313 3.75a.938.938 0 0 1 0 1.875.938.938 0 0 1 0-1.875m0 50.625a.938.938 0 0 1 0 1.875.938.938 0 0 1 0-1.875m0-8.437a.938.938 0 0 1 0 1.874.938.938 0 0 1 0-1.874m0-8.438a.938.938 0 0 1 0 1.875.938.938 0 0 1 0-1.875m0-8.437a.938.938 0 0 1 0 1.875.938.938 0 0 1 0-1.875m0-8.438a.938.938 0 0 1 0 1.875.938.938 0 0 1 0-1.875m0-8.437a.938.938 0 0 1 0 1.874.938.938 0 0 1 0-1.874m-28.22 6.562h4.782v10.313h-4.782a4.695 4.695 0 0 0-4.593-3.75c-1.174 0-2.235.449-3.058 1.164l-3.366-2.57 3.366-2.571A4.65 4.65 0 0 0 22.5 22.5a4.696 4.696 0 0 0 4.593-3.75M19.688 30a2.816 2.816 0 0 1 2.812-2.812A2.816 2.816 0 0 1 25.313 30a2.816 2.816 0 0 1-2.813 2.813A2.816 2.816 0 0 1 19.688 30M22.5 15a2.816 2.816 0 0 1 2.813 2.813 2.816 2.816 0 0 1-2.813 2.812 2.816 2.816 0 0 1-2.812-2.812A2.816 2.816 0 0 1 22.5 15M6.563 8.438A2.816 2.816 0 0 1 3.75 5.624a2.816 2.816 0 0 1 2.813-2.812 2.816 2.816 0 0 1 2.812 2.812 2.816 2.816 0 0 1-2.812 2.813m0 12.187a2.816 2.816 0 0 1-2.813-2.812A2.816 2.816 0 0 1 6.563 15a2.816 2.816 0 0 1 2.812 2.813 2.816 2.816 0 0 1-2.812 2.812m4.201-.775c.17-.348.312-.71.391-1.1h6.752c.08.39.221.752.391 1.1l-3.767 2.877zm7.534 8.113c-.17.348-.311.71-.39 1.1h-6.753a4.6 4.6 0 0 0-.39-1.1l3.766-2.876zm-11.735 4.85A2.816 2.816 0 0 1 3.75 30a2.816 2.816 0 0 1 2.813-2.812A2.816 2.816 0 0 1 9.375 30a2.816 2.816 0 0 1-2.812 2.813m4.201-.776c.17-.348.312-.71.391-1.1h6.752c.08.39.221.752.391 1.1l-3.767 2.877zm7.143 9.213h-6.752a4.6 4.6 0 0 0-.39-1.1l3.766-2.876 3.767 2.876c-.17.348-.311.71-.39 1.1M6.563 45a2.816 2.816 0 0 1-2.813-2.812 2.816 2.816 0 0 1 2.813-2.813 2.816 2.816 0 0 1 2.812 2.813A2.816 2.816 0 0 1 6.563 45m0 12.188a2.816 2.816 0 0 1-2.813-2.813 2.816 2.816 0 0 1 2.813-2.812 2.816 2.816 0 0 1 2.812 2.812 2.816 2.816 0 0 1-2.812 2.813M22.5 45a2.816 2.816 0 0 1-2.812-2.812 2.816 2.816 0 0 1 2.812-2.813 2.816 2.816 0 0 1 2.813 2.813A2.816 2.816 0 0 1 22.5 45m4.593-3.75A4.695 4.695 0 0 0 22.5 37.5c-1.174 0-2.235.45-3.058 1.164l-3.366-2.57 3.366-2.57a4.65 4.65 0 0 0 3.058 1.163 4.696 4.696 0 0 0 4.593-3.75h4.782V41.25zM35.625 45a.938.938 0 0 1-1.875 0V14.063a.938.938 0 0 1 1.875 0z"/><path fill="#282928" d="M28.125 21.563H30v1.875h-1.875zM28.125 25.313H30v1.875h-1.875zM28.125 32.813H30v1.874h-1.875zM28.125 36.563H30v1.874h-1.875z"/></svg>