<svg xmlns="http://www.w3.org/2000/svg" width="60" height="60" fill="none"><path fill="#282928" d="M7 7a1 1 0 1 0 0-2 1 1 0 0 0 0 2M12 7a1 1 0 1 0 0-2 1 1 0 0 0 0 2M16.5 7c.828 0 1.5-.448 1.5-1s-.672-1-1.5-1-1.5.448-1.5 1 .672 1 1.5 1"/><path fill="#282928" d="M54.992 2H5.008A3.006 3.006 0 0 0 2 4.997v25.186c0 .451.367.817.82.817s.82-.366.82-.817V10.24h52.72v7.94c0 .452.367.818.82.818s.82-.366.82-.817V4.996A3.006 3.006 0 0 0 54.992 2M3.641 8.606V4.997c0-.75.613-1.362 1.367-1.362h49.984c.754 0 1.367.611 1.367 1.362v3.61zM57.18 21c-.453 0-.82.37-.82.826v33.145c0 .76-.614 1.377-1.368 1.377H5.008A1.374 1.374 0 0 1 3.64 54.97V33.94a.823.823 0 0 0-.82-.826c-.454 0-.821.37-.821.826v21.031C2 56.641 3.35 58 5.008 58h49.984C56.651 58 58 56.641 58 54.971V21.826a.823.823 0 0 0-.82-.826"/><path fill="#282928" d="M27.179 13H6.82a.82.82 0 0 0-.821.823v39.354c0 .455.368.823.821.823H27.18a.82.82 0 0 0 .821-.823V13.823a.82.82 0 0 0-.821-.823M7.643 17.2l8.432 16.3-8.432 16.3zm.53-2.554h17.655L17 31.712zM17 35.29l8.828 17.065H8.172zm.925-1.789 8.432-16.3v32.6zM32.821 35H53.18a.82.82 0 0 0 .821-.821V13.82a.82.82 0 0 0-.821-.821H32.82a.82.82 0 0 0-.821.821V34.18c0 .453.368.821.821.821m19.536-2.805L44.162 24l8.195-8.195zm-1.162 1.162h-16.39L43 25.162zM43 22.838l-8.195-8.195h16.39zM41.838 24l-8.195 8.195v-16.39zM32.821 39H53.18c.453 0 .821-.448.821-1s-.368-1-.821-1H32.82c-.453 0-.821.448-.821 1s.368 1 .821 1M32.821 43H53.18c.453 0 .821-.448.821-1s-.368-1-.821-1H32.82c-.453 0-.821.448-.821 1s.368 1 .821 1M32.819 47h11.362c.452 0 .819-.224.819-.5s-.367-.5-.819-.5H32.819c-.452 0-.819.224-.819.5s.367.5.819.5"/></svg>