<svg xmlns="http://www.w3.org/2000/svg" width="60" height="60" fill="none"><path fill="#282928" d="M24.266 47.818a.922.922 0 1 0 0-1.845.922.922 0 0 0 0 1.845"/><path fill="#282928" d="M56.451 26.1H47.51v-1.507a10.6 10.6 0 0 0 2.558-1.014l1.918 1.16c.228.137.484.21.74.21.365 0 .73-.146 1.004-.42l1.297-1.297a1.42 1.42 0 0 0 .21-1.745l-1.16-1.918c.411-.74.74-1.516.968-2.33l2.174-.538a1.416 1.416 0 0 0 1.078-1.38v-1.835c0-.658-.447-1.224-1.078-1.38l-2.174-.538a10.4 10.4 0 0 0-.968-2.33l1.16-1.917a1.42 1.42 0 0 0-.21-1.745L53.73 4.27a1.42 1.42 0 0 0-1.744-.21l-1.918 1.16c-.74-.411-1.517-.74-2.33-.968L47.2 2.078A1.41 1.41 0 0 0 45.819 1h-1.845c-.657 0-1.223.448-1.379 1.078l-.539 2.174q-1.22.34-2.329.968L37.81 4.06a1.424 1.424 0 0 0-1.744.21l-1.297 1.297a1.41 1.41 0 0 0-.21 1.744l1.16 1.919c-.42.74-.74 1.516-.969 2.329l-2.174.539a1.41 1.41 0 0 0-1.077 1.379v1.836c0 .045.018.082.018.118H3.548a2.526 2.526 0 0 0-2.52 2.521v31.046a2.526 2.526 0 0 0 2.52 2.521h13.317v2.439h-3.078a2.526 2.526 0 0 0-2.52 2.52v1.837c0 .374.31.684.684.684h44.5a2.526 2.526 0 0 0 2.521-2.52V28.62a2.526 2.526 0 0 0-2.52-2.521M44.988 15.44h-4.594a4.5 4.5 0 0 1-.137-1.04 4.647 4.647 0 0 1 4.64-4.64 4.647 4.647 0 0 1 4.64 4.64 4.6 4.6 0 0 1-2.028 3.817v-.256a2.526 2.526 0 0 0-2.52-2.52m-12.084-2.009 2.567-.63a.68.68 0 0 0 .502-.512 9 9 0 0 1 1.124-2.694.67.67 0 0 0 0-.713l-1.361-2.329 1.37-1.306 2.265 1.37c.22.137.493.137.712 0a9.2 9.2 0 0 1 2.695-1.123.7.7 0 0 0 .511-.503l.685-2.612 1.891.037.63 2.566a.68.68 0 0 0 .512.503c.95.228 1.863.603 2.694 1.123.22.137.493.137.713 0l2.329-1.36 1.306 1.37-1.37 2.264a.69.69 0 0 0 0 .713c.52.84.895 1.744 1.123 2.694a.7.7 0 0 0 .503.512l2.612.685-.037 1.89-2.566.63a.68.68 0 0 0-.502.512 9 9 0 0 1-1.124 2.695.67.67 0 0 0 0 .712l1.361 2.33-1.37 1.305-2.265-1.37a.69.69 0 0 0-.713 0 9 9 0 0 1-2.201.978v-3.389c2.073-1.005 3.398-3.06 3.398-5.389a6.015 6.015 0 0 0-6.01-6.01 6.015 6.015 0 0 0-6.01 6.01c0 .347.036.694.1 1.041h-5.873a.6.6 0 0 0-.246-.118zM3.548 50.15c-.63 0-1.15-.52-1.15-1.151v-5.352h24.697v6.503zm23.547 1.37v2.439h-8.86v-2.439zm-14.459 6.11v-1.15c0-.63.521-1.151 1.151-1.151h13.317v1.15c0 .42.11.804.293 1.151zm14.46-29.008v13.645H2.396V17.961c0-.639.521-1.15 1.151-1.15h41.44c.63 0 1.151.52 1.151 1.15V26.1H29.616a2.526 2.526 0 0 0-2.52 2.52m30.506 27.858c0 .63-.52 1.15-1.15 1.15H29.615c-.63 0-1.15-.52-1.15-1.15V33.535h29.136zm0-24.315H28.465V28.63c0-.64.52-1.151 1.151-1.151h26.835c.64 0 1.151.52 1.151 1.15z"/><path fill="#282928" d="M9.897 23.96a.69.69 0 0 0-.968 0l-3.105 3.106a.69.69 0 0 0 0 .968l3.105 3.106c.137.136.31.2.484.2a.68.68 0 0 0 .484-.2.69.69 0 0 0 0-.969L7.276 27.55l2.621-2.621a.673.673 0 0 0 0-.969M19.296 23.96a.69.69 0 0 0-.968 0 .69.69 0 0 0 0 .969l2.621 2.621-2.621 2.621a.69.69 0 0 0 0 .969c.137.136.31.2.484.2a.68.68 0 0 0 .484-.2l3.105-3.106a.684.684 0 0 0 0-.968zM17.156 21.019a.696.696 0 0 0-.913.329l-5.517 11.828a.688.688 0 0 0 .621.977.69.69 0 0 0 .621-.392l5.517-11.829a.685.685 0 0 0-.329-.913M31.455 51.42h8.805a.69.69 0 0 0 .685-.684.69.69 0 0 0-.685-.685h-8.805a.69.69 0 0 0-.685.685c0 .374.31.685.685.685M31.455 55.327h4.21a.69.69 0 0 0 .685-.685.69.69 0 0 0-.685-.685h-4.21a.69.69 0 0 0-.685.685c0 .375.31.685.685.685M54.615 50.05H45.81a.69.69 0 0 0-.685.686c0 .374.31.685.685.685h8.805a.69.69 0 0 0 .685-.685.69.69 0 0 0-.685-.685M50.02 53.957h-4.21a.69.69 0 0 0-.685.685c0 .375.31.685.685.685h4.21a.69.69 0 0 0 .686-.685.69.69 0 0 0-.685-.685M30.794 46.95c.01.046.01.1.028.137v.01a1 1 0 0 0 .128.191.2.2 0 0 0 .045.037 1 1 0 0 0 .146.1c.019.01.046.019.064.028a.7.7 0 0 0 .238.045h23.163a.7.7 0 0 0 .237-.045c.019-.01.046-.019.064-.028a1 1 0 0 0 .147-.1c.018-.018.036-.028.045-.037a.55.55 0 0 0 .128-.191v-.01c.018-.036.018-.082.028-.118.009-.046.027-.092.027-.146V36.51c0-.045-.018-.09-.027-.146-.01-.036-.01-.082-.028-.118v-.01c-.01-.027-.036-.045-.055-.073-.027-.045-.054-.1-.1-.137-.028-.027-.064-.045-.1-.064a.6.6 0 0 0-.129-.073c-.045-.018-.1-.018-.146-.027-.036-.01-.064-.018-.11-.018H31.453c-.037 0-.064.018-.1.018-.055.01-.11.01-.156.027-.046.019-.073.046-.11.073-.036.028-.073.046-.11.074-.045.036-.072.09-.1.146-.018.027-.036.045-.045.073v.009c-.018.046-.018.091-.028.137-.009.046-.027.082-.027.128V46.85c-.01.018.01.064.018.1m3.882-.812 8.357-3.718 8.358 3.718zm19.254-.375-9.207-4.101 9.207-4.101zm-2.54-8.558-8.357 3.717-8.357-3.717zm-19.253.365 9.207 4.101-9.207 4.101zM31.7 28.895a.918.918 0 1 0 0 1.835.918.918 0 1 0 0-1.836M35.005 28.895a.918.918 0 1 0 0 1.835.918.918 0 1 0 0-1.836M38.313 28.895a.918.918 0 1 0 0 1.835.918.918 0 1 0 0-1.836"/></svg>