<svg xmlns="http://www.w3.org/2000/svg" width="84" height="84"><path d="m71.53 42.071-6.68-10.168a4.5 4.5 0 0 1-.594-2 26.176 26.176 0 0 0-52.253 2.3 30.28 30.28 0 0 0 10.54 22.49 3.5 3.5 0 0 1 1.262 2.6v14.993a2.326 2.326 0 0 0 2.078 2.3l22.49 2a2.26 2.26 0 0 0 2.449-2.3v-10.69a1.3 1.3 0 0 1 1.262-1.262h7.867a4.34 4.34 0 0 0 4.379-4.378v-10.54a.9.9 0 0 1 .891-.891h3.859a2.873 2.873 0 0 0 2.449-4.453Zm-26.942 9.2a3.675 3.675 0 0 1-3.488-2.6h-6.309a1.14 1.14 0 0 1-1.114-1.114v-5.2h-6.309a1.114 1.114 0 1 1 0-2.227h7.422a1.14 1.14 0 0 1 1.114 1.114v5.2h5.27a3.67 3.67 0 0 1 3.488-2.6 3.72 3.72 0 0 1 3.711 3.711 3.79 3.79 0 0 1-3.786 3.711Zm0-13.434a3.675 3.675 0 0 1-3.488-2.6H23.283a1.114 1.114 0 1 1 0-2.227h17.813a3.689 3.689 0 1 1 3.488 4.825Zm0-13.434a3.675 3.675 0 0 1-3.488-2.6h-5.27v5.2a1.14 1.14 0 0 1-1.114 1.114H27.29a1.114 1.114 0 1 1 0-2.227h6.309v-5.2a1.14 1.14 0 0 1 1.114-1.114h6.309a3.681 3.681 0 0 1 7.2 1.114 3.614 3.614 0 0 1-3.636 3.711Z"/><path fill="none" d="M0 0h84v84H0z"/></svg>