<svg xmlns="http://www.w3.org/2000/svg" width="84" height="84"><path fill="none" d="M0 0h84v84H0z"/><path d="M33.105 15.045a1 1 0 0 0-.4.134 1.093 1.093 0 0 0-.268 1.509l2.314 3.454a13.62 13.62 0 0 0-7.109 8.819h29.64a13.62 13.62 0 0 0-7.109-8.819l2.314-3.454a1.093 1.093 0 0 0-.268-1.509 1.1 1.1 0 0 0-1.509.3l-2.549 3.758a16.66 16.66 0 0 0-11.4 0l-2.549-3.756a1.08 1.08 0 0 0-1.107-.436m3.454 8.551a1.61 1.61 0 1 1-1.61 1.61 1.61 1.61 0 0 1 1.61-1.61m11.8 0a1.61 1.61 0 1 1-1.61 1.61 1.607 1.607 0 0 1 1.614-1.61Zm-24.14 7.515A3.22 3.22 0 0 0 21 34.327v15.022a3.22 3.22 0 0 0 3.219 3.219 3.2 3.2 0 0 0 1.073-.2V31.311a3.2 3.2 0 0 0-1.073-.2m3.219 0v23.6a3.225 3.225 0 0 0 3.219 3.219h23.607a3.225 3.225 0 0 0 3.22-3.219v-23.6Zm33.264 0a3.2 3.2 0 0 0-1.073.2v21.056a3.18 3.18 0 0 0 4.292-3.018V34.327a3.22 3.22 0 0 0-3.221-3.216ZM31.73 60.08v4.292a4.292 4.292 0 1 0 8.584 0V60.08Zm12.877 0v4.292a4.292 4.292 0 1 0 8.584 0V60.08Z"/></svg>