<svg xmlns="http://www.w3.org/2000/svg" width="84" height="84" fill="none"><path fill="#000" d="M20 20v44h44V20zm23.957 32.987c0 5.41-2.622 7.214-6.51 7.214a9.8 9.8 0 0 1-2.994-.473l.435-2.89a6.6 6.6 0 0 0 2.2.357c2.047 0 3.288-.92 3.288-4.323V40.286h3.581zm8.34 7.189A11.5 11.5 0 0 1 47 58.896l.793-2.967a9.9 9.9 0 0 0 4.733 1.28c2.264.012 3.543-1.062 3.543-2.661 0-1.6-.972-2.315-3.454-3.25-3.236-1.15-5.295-2.89-5.295-5.691 0-3.21 2.673-5.628 6.933-5.628 1.619-.05 3.227.284 4.694.972l-.857 2.878a8.5 8.5 0 0 0-3.914-.92c-2.277 0-3.236 1.202-3.236 2.353 0 1.509 1.138 2.212 3.747 3.21 3.403 1.28 5.04 3.006 5.04 5.82 0 3.16-2.38 5.884-7.431 5.884"/></svg>