<svg xmlns="http://www.w3.org/2000/svg" width="84" height="84"><path fill="none" d="M0 0h84v84H0z"/><path d="M41.641 60.975a1.3 1.3 0 0 1-.591-.155l-1.86-1.1c-.281-.155-.145-.213-.048-.242a3.4 3.4 0 0 0 .843-.388.16.16 0 0 1 .136.01l1.434.852a.18.18 0 0 0 .174 0l5.6-3.236a.19.19 0 0 0 .087-.155v-6.467a.16.16 0 0 0-.087-.155l-5.6-3.226a.18.18 0 0 0-.174 0l-5.6 3.226a.18.18 0 0 0-.087.155v6.462a.18.18 0 0 0 .087.145l1.531.882c.833.416 1.347-.078 1.347-.562v-6.384a.163.163 0 0 1 .167-.162h.7a.163.163 0 0 1 .165.165v6.384a1.545 1.545 0 0 1-1.657 1.744 2.4 2.4 0 0 1-1.288-.349l-1.469-.844a1.2 1.2 0 0 1-.591-1.017v-6.464a1.16 1.16 0 0 1 .591-1.017l5.6-3.236a1.2 1.2 0 0 1 1.172 0l5.6 3.236a1.2 1.2 0 0 1 .591 1.017v6.462a1.16 1.16 0 0 1-.591 1.017l-5.6 3.236a1.07 1.07 0 0 1-.581.165Zm4.524-6.375c0-1.211-.814-1.531-2.538-1.763-1.744-.232-1.918-.349-1.918-.756 0-.339.145-.785 1.434-.785 1.153 0 1.579.252 1.753 1.027a.156.156 0 0 0 .155.126h.727a.17.17 0 0 0 .116-.046.15.15 0 0 0 .039-.126c-.116-1.337-1-1.957-2.79-1.957-1.6 0-2.548.678-2.548 1.8 0 1.23.949 1.56 2.48 1.715 1.831.184 1.976.446 1.976.8 0 .63-.5.891-1.686.891-1.482 0-1.812-.368-1.918-1.1a.16.16 0 0 0-.165-.136h-.727a.163.163 0 0 0-.165.165c0 .94.513 2.063 2.964 2.063 1.792 0 2.809-.7 2.809-1.918Zm5.28-4.853a1.075 1.075 0 1 1-1.075-1.072 1.066 1.066 0 0 1 1.075 1.071Zm-.174 0a.906.906 0 1 0-.911.911.923.923 0 0 0 .911-.912Zm-.436.6h-.252c-.01-.058-.048-.368-.048-.378-.019-.068-.039-.106-.126-.106H50.2v.484h-.232v-1.212h.417c.145 0 .426 0 .426.32a.284.284 0 0 1-.232.3c.165.01.174.116.2.271a1.4 1.4 0 0 0 .058.32Zm-.271-.852c0-.165-.116-.165-.174-.165h-.19v.339h.184a.163.163 0 0 0 .184-.174ZM24.3 35.689a.7.7 0 0 0-.358-.62L18 31.65a.8.8 0 0 0-.329-.1h-.054a.7.7 0 0 0-.329.1l-5.929 3.42a.72.72 0 0 0-.358.62l.01 9.2a.37.37 0 0 0 .174.31.34.34 0 0 0 .358 0l3.526-2.025a.73.73 0 0 0 .358-.62v-4.3a.72.72 0 0 1 .358-.62l1.5-.862a.7.7 0 0 1 .358-.1.7.7 0 0 1 .357.102l1.5.862a.72.72 0 0 1 .358.62v4.3a.72.72 0 0 0 .358.62l3.526 2.025a.34.34 0 0 0 .358 0 .36.36 0 0 0 .174-.31l.019-9.2Zm32.473-10.046v17.089a.72.72 0 0 1-.358.62l-5.938 3.429a.73.73 0 0 1-.717 0l-5.938-3.429a.72.72 0 0 1-.358-.62v-6.857a.72.72 0 0 1 .358-.62l5.938-3.429a.73.73 0 0 1 .717 0l1.482.849a.254.254 0 0 0 .378-.213v-9.105a.356.356 0 0 1 .533-.31l3.536 1.976a.7.7 0 0 1 .368.62ZM52.317 38.13a.18.18 0 0 0-.087-.155l-2.03-1.181a.2.2 0 0 0-.184 0l-2.039 1.181a.17.17 0 0 0-.087.155v2.354a.18.18 0 0 0 .087.155l2.034 1.172a.18.18 0 0 0 .174 0l2.034-1.172a.17.17 0 0 0 .087-.155V38.13Zm20.324-.068a.72.72 0 0 0 .358-.62v-1.656a.72.72 0 0 0-.358-.62l-5.9-3.429a.73.73 0 0 0-.717 0l-5.938 3.429a.72.72 0 0 0-.358.62v6.859a.7.7 0 0 0 .358.62l5.9 3.362a.71.71 0 0 0 .707 0l3.565-1.986a.355.355 0 0 0 0-.62l-5.977-3.429a.36.36 0 0 1-.184-.31V38.13a.36.36 0 0 1 .184-.31l1.86-1.075a.34.34 0 0 1 .358 0l1.86 1.075a.38.38 0 0 1 .184.31v1.686a.364.364 0 0 0 .542.31zm-7.488.339a.15.15 0 0 0-.068.116v1.318a.14.14 0 0 0 .068.116l1.143.659a.11.11 0 0 0 .136 0l1.143-.659a.15.15 0 0 0 .068-.116v-1.317a.14.14 0 0 0-.068-.116l-1.143-.659a.11.11 0 0 0-.136 0Zm-24.626 4.215v-6.82a.74.74 0 0 0-.378-.62l-5.919-3.41a.73.73 0 0 0-.717 0l-5.918 3.409a.72.72 0 0 0-.378.62v6.82a.75.75 0 0 0 .387.62l5.929 3.41a.7.7 0 0 0 .717 0l5.909-3.41a.72.72 0 0 0 .349-.455 1 1 0 0 0 .019-.165Zm-7.2-12.1-.077.046h.107zm7.382 12.613-.039-.068v.087l.039-.021Z"/></svg>