<svg xmlns="http://www.w3.org/2000/svg" width="84" height="84"><path fill="none" d="M0 0h84v84H0z"/><path d="M52.938 19.004a7.8 7.8 0 0 0-2.664.414 18.1 18.1 0 0 0-5.641 3.306 35 35 0 0 0-2.3 2.078 35 35 0 0 0-2.25-2.028 18.1 18.1 0 0 0-5.63-3.3 6.19 6.19 0 0 0-5.067.248 6.18 6.18 0 0 0-2.748 4.264 18.1 18.1 0 0 0 .043 6.529c.138.858.337 1.758.56 2.675-.841.255-1.659.523-2.416.819a17.6 17.6 0 0 0-5.557 3.23A6.24 6.24 0 0 0 17 41.748a6.23 6.23 0 0 0 2.268 4.507 17.6 17.6 0 0 0 5.557 3.235c.81.316 1.687.6 2.593.871a36 36 0 0 0-.77 3.518 18.1 18.1 0 0 0-.038 6.54 6.2 6.2 0 0 0 2.757 4.281 6.21 6.21 0 0 0 5.087.248 18.1 18.1 0 0 0 5.639-3.3 35 35 0 0 0 2.28-2.056 35 35 0 0 0 2.291 2.067 18.1 18.1 0 0 0 5.632 3.3 6.18 6.18 0 0 0 5.065-.248 6.18 6.18 0 0 0 2.748-4.263 18.1 18.1 0 0 0-.045-6.529 36 36 0 0 0-.772-3.526c.936-.276 1.84-.569 2.675-.894a17.6 17.6 0 0 0 5.557-3.235 6.23 6.23 0 0 0 2.268-4.507 6.24 6.24 0 0 0-2.272-4.518 17.6 17.6 0 0 0-5.557-3.233c-.769-.3-1.6-.572-2.453-.83.226-.923.426-1.829.565-2.692a18.1 18.1 0 0 0 .043-6.538 6.2 6.2 0 0 0-2.759-4.279 5.1 5.1 0 0 0-2.421-.663m-.1 2.246a2.9 2.9 0 0 1 1.395.371 3.94 3.94 0 0 1 1.677 2.798 16.2 16.2 0 0 1-.067 5.71c-.126.782-.308 1.61-.515 2.459a51 51 0 0 0-7.365-1.183 53 53 0 0 0-4.053-4.986 33 33 0 0 1 2.149-1.942 16.2 16.2 0 0 1 4.91-2.912 5.6 5.6 0 0 1 1.868-.315Zm-20.943.006a5.6 5.6 0 0 1 1.875.315 16.2 16.2 0 0 1 4.919 2.914c.689.56 1.394 1.208 2.1 1.9a53 53 0 0 0-4.079 5.034 51 51 0 0 0-7.34 1.19 32 32 0 0 1-.511-2.449 16.2 16.2 0 0 1-.065-5.719 3.96 3.96 0 0 1 1.694-2.811 2.9 2.9 0 0 1 1.406-.374Zm10.473 6.751c.9.978 1.8 2.049 2.69 3.2a63 63 0 0 0-2.664-.058q-1.377.002-2.716.06a50 50 0 0 1 2.69-3.202m.026 5.371c1.5 0 2.963.062 4.386.166a63 63 0 0 1 2.847 4.477 64 64 0 0 1 2.186 4.141 62 62 0 0 1-2.216 4.2 63 63 0 0 1-2.22 3.548 60 60 0 0 1-4.983.209 60 60 0 0 1-5.1-.22 61.37 61.37 0 0 1-4.393-7.686 63 63 0 0 1 2.22-4.212 63 63 0 0 1 2.834-4.453 60 60 0 0 1 4.439-.169Zm7.229.442a48 48 0 0 1 5.115.92 50 50 0 0 1-1.757 4.828 67 67 0 0 0-1.442-2.651 66 66 0 0 0-1.916-3.098Zm-14.575.017a66 66 0 0 0-1.875 3.037c-.518.9-1 1.793-1.463 2.686a50 50 0 0 1-1.744-4.8 47 47 0 0 1 5.082-.922Zm21.874 1.489a31 31 0 0 1 2.231.754 15.7 15.7 0 0 1 4.857 2.797 3.98 3.98 0 0 1 1.55 2.871 3.98 3.98 0 0 1-1.55 2.871 15.7 15.7 0 0 1-4.856 2.8 31 31 0 0 1-2.5.832 55 55 0 0 0-2.382-6.033 53.4 53.4 0 0 0 2.65-6.891Zm-29.092.011a53 53 0 0 0 2.612 6.818 55 55 0 0 0-2.395 6.064 31 31 0 0 1-2.412-.808 15.7 15.7 0 0 1-4.856-2.8 3.98 3.98 0 0 1-1.55-2.871 3.98 3.98 0 0 1 1.55-2.871 15.7 15.7 0 0 1 4.856-2.8c.682-.25 1.425-.498 2.194-.731Zm14.564 1.342a5.518 5.518 0 1 0 5.516 5.517 5.535 5.535 0 0 0-5.516-5.517m0 2.207a3.311 3.311 0 1 1-3.311 3.311 3.294 3.294 0 0 1 3.311-3.311m10.616 5.919a50 50 0 0 1 1.5 4c-1.327.308-2.74.567-4.227.772q.643-1.023 1.263-2.093a62 62 0 0 0 1.464-2.679m-21.274 0c.464.9.947 1.8 1.468 2.7q.611 1.059 1.246 2.069a47 47 0 0 1-4.214-.774c.42-1.29.923-2.627 1.499-3.993ZM29.6 50.939a51 51 0 0 0 6.457 1.08 54.4 54.4 0 0 0 4.736 5.949c-.718.7-1.43 1.358-2.127 1.925a16.2 16.2 0 0 1-4.912 2.91 3.94 3.94 0 0 1-3.263-.056 3.94 3.94 0 0 1-1.679-2.8 16.2 16.2 0 0 1 .065-5.708 33 33 0 0 1 .722-3.298Zm25.553.009a33 33 0 0 1 .729 3.313 16.2 16.2 0 0 1 .065 5.716 3.96 3.96 0 0 1-1.692 2.813 3.96 3.96 0 0 1-3.283.06 16.2 16.2 0 0 1-4.919-2.916 33 33 0 0 1-2.143-1.938 54 54 0 0 0 4.767-5.977 51 51 0 0 0 6.475-1.069Zm-16.217 1.293c1.133.062 2.281.1 3.457.1 1.137 0 2.248-.039 3.345-.1a51 51 0 0 1-3.4 4.128 51 51 0 0 1-3.402-4.128"/></svg>