<svg xmlns="http://www.w3.org/2000/svg" width="84" height="84"><path fill="none" d="M0 0h84v84H0z"/><path d="M40.092 19.001c-3.181-.087-6.514 4.156-8.311 10.686l-5.645 1.84a1 1 0 0 0-.684.822l-3.444 26.81a1 1 0 0 0 .807 1.107l24.068 4.58 1.857-40.68-1.111.361c-.663-2.444-1.9-3.981-3.537-4.33a3.1 3.1 0 0 0-1.44.029 3.75 3.75 0 0 0-1.93-1.15 3.5 3.5 0 0 0-.63-.075m-.119 2a1.5 1.5 0 0 1 .336.029 1.5 1.5 0 0 1 .5.215c-1.985 1.7-3.5 4.917-4.3 6.9l-2.4.781c1.626-5.018 4.136-7.883 5.864-7.923Zm3.936 1.23c.768.317 1.415 1.349 1.82 2.91l-1.024.334a13 13 0 0 0-.797-3.241Zm-1.9.65a11.3 11.3 0 0 1 .766 3.223l-3.73 1.215a14.2 14.2 0 0 1 2.963-4.435Zm8.725 1.485-1.846 40.41 12.58-2.783a1 1 0 0 0 .774-1.127l-4.7-32.621a1 1 0 0 0-.076-.291 1.68 1.68 0 0 0-1.023-.936 1.1 1.1 0 0 0-.291-.052c-.222-.009-2.194-.163-3.033-.229-.686-.7-2-2.043-2.346-2.352zM39.971 34.989a6.55 6.55 0 0 1 3.209.678.5.5 0 0 1 .215.58l-1.512 4.66a.5.5 0 0 1-.715.287 6.5 6.5 0 0 0-2.76-.689c-1.783 0-2.049.912-2.049 1.455 0 .589.773 1.173 1.67 1.846 1.587 1.192 3.76 2.824 3.76 6.1 0 4.1-2.555 6.973-6.213 6.973a8.25 8.25 0 0 1-6.342-2.7.5.5 0 0 1-.088-.453l1.063-3.572a.5.5 0 0 1 .344-.338.51.51 0 0 1 .469.1c.02.018 1.957 1.711 3.492 1.711a1.07 1.07 0 0 0 1.129-1.094c0-.98-.717-1.577-1.625-2.332-1.254-1.042-2.812-2.339-2.812-5.154 0-3.881 2.705-8.057 8.646-8.057Z"/></svg>