<svg xmlns="http://www.w3.org/2000/svg" width="84" height="84"><path fill="none" d="M0 0h84v84H0z"/><path d="M23.3 25a6.3 6.3 0 0 0-6.3 6.3v14.688a6.3 6.3 0 0 0 6.3 6.3h15.29l12.613 6.2a1.049 1.049 0 0 0 1.435-1.25l-2.054-4.952h10.491a6.3 6.3 0 0 0 6.3-6.3V31.3a6.3 6.3 0 0 0-6.3-6.3Zm15.208 4.2a1.5 1.5 0 0 1 .607.123 1.567 1.567 0 0 1 .849 2.054c-1.354 3.251-2.037 8.345-2.037 15.138a1.574 1.574 0 0 1-2.812.972c-1.967-2.5-3.5-6.557-4.493-9.707l-3.768 9.32a1.6 1.6 0 0 1-1.554.98 1.58 1.58 0 0 1-1.427-1.156A85 85 0 0 1 21.2 30.837a1.566 1.566 0 0 1 1.506-1.637 1.54 1.54 0 0 1 1.636 1.5A69.5 69.5 0 0 0 25.8 41.319l3.648-9.039a1.54 1.54 0 0 1 1.586-.976 1.57 1.57 0 0 1 1.41 1.222 61 61 0 0 0 2.529 8.1 33.9 33.9 0 0 1 2.089-10.457 1.58 1.58 0 0 1 1.446-.969m7.444 2.1a4 4 0 0 1 .808.078c2.817.588 4.4 4.234 3.62 8.3a8.63 8.63 0 0 1-3.288 5.546 4.32 4.32 0 0 1-2.4.771 4 4 0 0 1-.783-.078c-2.814-.588-4.4-4.233-3.62-8.3a8.63 8.63 0 0 1 3.288-5.546 4.33 4.33 0 0 1 2.376-.771Zm12.593 0a4 4 0 0 1 .808.078c2.817.588 4.4 4.234 3.62 8.3a8.63 8.63 0 0 1-3.288 5.546 4.32 4.32 0 0 1-2.4.771 4 4 0 0 1-.783-.078c-2.814-.588-4.4-4.233-3.62-8.3a8.63 8.63 0 0 1 3.288-5.546 4.33 4.33 0 0 1 2.375-.771m-12.564 3.145a1.23 1.23 0 0 0-.66.242 5.67 5.67 0 0 0-1.943 3.525c-.5 2.565.366 4.444 1.176 4.612a1.07 1.07 0 0 0 .8-.225 5.67 5.67 0 0 0 1.943-3.525c.493-2.565-.366-4.444-1.177-4.612a.6.6 0 0 0-.139-.017m12.593 0a1.23 1.23 0 0 0-.66.242 5.67 5.67 0 0 0-1.943 3.525c-.5 2.565.366 4.444 1.176 4.612a1.07 1.07 0 0 0 .8-.225 5.67 5.67 0 0 0 1.943-3.525c.493-2.565-.366-4.444-1.177-4.612a.6.6 0 0 0-.139-.017"/></svg>