<svg xmlns="http://www.w3.org/2000/svg" width="84" height="84"><path fill="none" d="M0 0h84v84H0z"/><path d="M42.387 19a23.387 23.387 0 1 0 23.387 23.387A23.413 23.413 0 0 0 42.387 19m0 5.084a18.22 18.22 0 0 1 11.436 4.022 3.59 3.59 0 0 0-1.572 2.994c0 1.627.915 3.051 1.932 4.677a10.05 10.05 0 0 1 1.627 5.491 18.9 18.9 0 0 1-1.525 6.508l-2.034 6.711-7.22-21.557c1.22-.1 2.339-.2 2.339-.2a.817.817 0 0 0-.1-1.627h-.1s-3.254.305-5.389.305c-1.932 0-5.288-.305-5.288-.305h-.1c-1.017 0-1.119 1.627-.1 1.627 0 0 1.017.1 2.135.2l3.152 8.541-4.38 13.118-7.32-21.76c1.22-.1 2.339-.2 2.339-.2a.817.817 0 0 0-.1-1.627h-.1s-2.188.205-4.154.279a18.25 18.25 0 0 1 14.522-7.197m-18.3 18.3a18.3 18.3 0 0 1 .775-5.261l7.549 20.6a18.27 18.27 0 0 1-8.327-15.336Zm12.891 17.49 5.412-15.863 5.781 15.731a18.28 18.28 0 0 1-11.192.131Zm15.889-2.491 5.383-15.606a21.4 21.4 0 0 0 1.413-5.393 18.23 18.23 0 0 1-6.8 21Z"/></svg>