<svg xmlns="http://www.w3.org/2000/svg" width="60" height="60" fill="none"><g clip-path="url(#a)"><path fill="#282928" d="M53.43 39.573A25.1 25.1 0 0 0 55.314 30c0-12.864-9.815-23.75-22.5-25.158V.938l-5.15 3.861C14.758 5.984 4.689 16.996 4.689 30c0 1.05.078 2.105.208 3.144C2.49 35.034.938 37.961.938 41.25c0 3.998 2.29 7.463 5.625 9.174v3.951a2.816 2.816 0 0 0 2.812 2.813h3.75a2.816 2.816 0 0 0 2.813-2.813v-3.348A25.1 25.1 0 0 0 30 55.312h10.8a10.3 10.3 0 0 0 7.95 3.75c5.686 0 10.313-4.626 10.313-10.312 0-4-2.295-7.467-5.632-9.177M31.806 6.63C43.935 7.553 53.438 17.819 53.438 30c0 3.079-.592 6.057-1.745 8.87a10.3 10.3 0 0 0-2.943-.432q-.503.001-.995.05A19.7 19.7 0 0 0 49.687 30c0-10.165-7.618-18.588-17.72-19.59l-1.03-.102v1.88l-5-3.75 5-3.75v1.876zm6.68 41.182H30c-3.282 0-6.455-.9-9.234-2.592.512-1.223.797-2.564.797-3.971 0-.317-.02-.628-.048-.937h18.798v-18.75h-5.626v16.875h-1.874V25.312h-5.626v13.125h-1.875v-9.374h-5.625v6.276a10.31 10.31 0 0 0-7.45-4.352c-.019-.33-.05-.659-.05-.987 0-9.135 6.768-16.672 15.794-17.687l4.831 3.624v-3.53c8.622 1.356 15 8.745 15 17.593 0 3.187-.854 6.297-2.46 9.025-3.736 1.31-6.497 4.705-6.867 8.788m-16.922-9.376v-7.5h1.875v7.5zm9.375 0h-1.875v-11.25h1.875zm5.625 0v-15h1.874v15zM6.563 30c0-10.86 7.585-20.218 17.84-22.755l-1.59 1.193 3.085 2.314C16.873 12.642 10.313 20.546 10.313 30c0 .326.031.654.048.983-1.322.113-2.57.48-3.702 1.047A24 24 0 0 1 6.563 30m-3.75 11.25c0-4.652 3.785-8.437 8.437-8.437s8.438 3.785 8.438 8.437c0 3.665-2.354 6.783-5.625 7.945v-6.242c.294.104.607.172.937.172a2.816 2.816 0 0 0 2.813-2.812A2.816 2.816 0 0 0 15 37.5c-1.22 0-2.252.787-2.64 1.875h-2.22A2.81 2.81 0 0 0 7.5 37.5a2.816 2.816 0 0 0-2.812 2.813A2.816 2.816 0 0 0 7.5 43.125c.33 0 .643-.068.938-.172v6.242c-3.272-1.162-5.626-4.28-5.626-7.945m7.5 0h1.874v8.382q-.462.054-.937.056-.476-.002-.937-.056zm3.75-.937c0-.517.42-.938.937-.938s.938.42.938.938a.939.939 0 0 1-1.875 0m-5.626 0c0 .516-.42.937-.937.937a.94.94 0 0 1-.937-.937c0-.517.42-.938.937-.938s.938.42.938.938m4.688 15h-3.75a.94.94 0 0 1-.937-.938v-3.212c.895.254 1.836.4 2.812.4s1.917-.146 2.813-.4v3.212c0 .517-.421.938-.938.938M30 53.437a23.23 23.23 0 0 1-12.773-3.8 10.4 10.4 0 0 0 2.654-2.76A19.6 19.6 0 0 0 30 49.687h8.485a10.2 10.2 0 0 0 1.092 3.75zM44.126 55.8l.285-2.282a4.38 4.38 0 0 1 4.339-3.83 4.38 4.38 0 0 1 4.339 3.83l.285 2.282a8.38 8.38 0 0 1-4.624 1.389 8.38 8.38 0 0 1-4.624-1.389m2.749-9.861c0-1.035.84-1.876 1.875-1.876 1.034 0 1.875.841 1.875 1.876s-.84 1.874-1.875 1.874a1.877 1.877 0 0 1-1.875-1.874m8.202 8.375-.128-1.027a6.25 6.25 0 0 0-3.44-4.828c.61-.668.991-1.547.991-2.52a3.754 3.754 0 0 0-3.75-3.75 3.754 3.754 0 0 0-3.75 3.75c0 .973.382 1.852.99 2.519a6.26 6.26 0 0 0-3.44 4.828l-.128 1.027a8.4 8.4 0 0 1-2.11-5.562c0-4.652 3.786-8.437 8.438-8.437s8.438 3.785 8.438 8.437a8.4 8.4 0 0 1-2.11 5.563"/></g><defs><clipPath id="a"><path fill="#fff" d="M0 0h60v60H0z"/></clipPath></defs></svg>