<svg xmlns="http://www.w3.org/2000/svg" width="60" height="60" fill="none"><path fill="#282928" d="m23.297 20.495-5.625 17.55a.652.652 0 0 0 .61.862h1.574a.65.65 0 0 0 .624-.469l.88-2.812h7.702l-.107-.174.965 2.986a.65.65 0 0 0 .624.469h1.575a.652.652 0 0 0 .623-.853l-5.625-17.55a.66.66 0 0 0-.623-.469h-2.588a.65.65 0 0 0-.61.46m-.999 12.318L25.2 23.78l2.925 9.033zM39.188 20.04h-1.5a.656.656 0 0 0-.657.655v17.55c0 .363.294.657.657.657h1.5a.656.656 0 0 0 .656-.657v-17.55a.656.656 0 0 0-.657-.656"/><path fill="#282928" d="M31.528 45.938h-13.64a3.825 3.825 0 0 1-3.826-3.826V17.887a3.825 3.825 0 0 1 3.826-3.825h24.224a3.825 3.825 0 0 1 3.825 3.826V30a.97.97 0 0 0 .994.938 5.16 5.16 0 0 1 2.302.534.965.965 0 0 0 1.406-.877V17.888a8.51 8.51 0 0 0-8.527-8.513H17.887a8.51 8.51 0 0 0-8.512 8.513v24.224a8.513 8.513 0 0 0 8.513 8.513h15.609a.97.97 0 0 0 .689-1.655 7.6 7.6 0 0 1-1.74-2.372.99.99 0 0 0-.918-.66"/><path fill="#282928" d="m52.373 47.718 4.247-1.673a.469.469 0 0 0 0-.872L52.373 43.5a5.9 5.9 0 0 1-3.323-3.324l-1.674-4.219a.468.468 0 0 0-.872 0l-1.673 4.22a5.9 5.9 0 0 1-3.324 3.323l-4.218 1.673a.47.47 0 0 0 0 .872l4.218 1.673a5.9 5.9 0 0 1 3.324 3.324l1.673 4.218a.47.47 0 0 0 .7.218.47.47 0 0 0 .172-.218l1.674-4.218a5.9 5.9 0 0 1 3.323-3.324"/></svg>