<svg xmlns="http://www.w3.org/2000/svg" width="60" height="60" fill="none"><path fill="#282928" d="M33.647 17.26c.157 0 .312-.04.45-.115l2.998-1.642a2.92 2.92 0 0 0 1.983.776 2.934 2.934 0 0 0 2.93-2.931 2.934 2.934 0 0 0-2.93-2.93 2.934 2.934 0 0 0-2.885 3.442l-2.786 1.526h-3.613V12.63h2.649a.94.94 0 0 0 .78-.417l1.34-2.005q.367.1.764.101a2.934 2.934 0 0 0 2.93-2.93 2.934 2.934 0 0 0-2.93-2.931 2.934 2.934 0 0 0-2.931 2.93c0 .672.228 1.292.61 1.786l-1.064 1.59h-2.148V6.96a.94.94 0 0 0-.937-.938h-2.483a.937.937 0 0 0-.938.938v1.745a13.4 13.4 0 0 0-3.448 1.43L20.753 8.9a.937.937 0 0 0-1.326 0l-3.512 3.512a.937.937 0 0 0 0 1.325l1.235 1.236a13.4 13.4 0 0 0-1.43 3.448h-1.745a.94.94 0 0 0-.937.937v4.967c0 .518.42.938.937.938h1.746a13.4 13.4 0 0 0 1.429 3.448l-1.235 1.235a.937.937 0 0 0 0 1.325l3.512 3.512a.94.94 0 0 0 1.326 0l1.235-1.235a13.4 13.4 0 0 0 3.448 1.43v1.745c0 .518.42.938.938.938h2.483c.518 0 .937-.42.937-.938v-3.796h2.148l1.063 1.59a2.9 2.9 0 0 0-.61 1.787 2.934 2.934 0 0 0 2.932 2.93 2.934 2.934 0 0 0 2.93-2.93 2.934 2.934 0 0 0-3.694-2.83l-1.34-2.005a.94.94 0 0 0-.78-.417h-2.649v-2.754h3.613l2.786 1.526a2.926 2.926 0 0 0 2.885 3.442 2.934 2.934 0 0 0 2.93-2.93 2.934 2.934 0 0 0-2.93-2.932 2.92 2.92 0 0 0-1.983.776l-2.998-1.642a.94.94 0 0 0-.45-.116h-3.853V22.78h6.508a2.935 2.935 0 0 0 2.776 1.993 2.934 2.934 0 0 0 2.93-2.93 2.934 2.934 0 0 0-2.93-2.931 2.935 2.935 0 0 0-2.776 1.993h-6.508V17.26zm-5.728-4.043c-4.344.47-7.738 4.158-7.738 8.625s3.394 8.155 7.738 8.624v5.32h-.608V34.23a.94.94 0 0 0-.754-.92 11.6 11.6 0 0 1-4.184-1.733.94.94 0 0 0-1.183.117l-1.1 1.1-2.186-2.186 1.1-1.1a.94.94 0 0 0 .117-1.184 11.6 11.6 0 0 1-1.734-4.183.94.94 0 0 0-.92-.754h-1.554v-3.092h1.555a.94.94 0 0 0 .919-.755c.299-1.5.882-2.907 1.734-4.183a.94.94 0 0 0-.117-1.183l-1.1-1.1 2.186-2.187 1.1 1.1a.94.94 0 0 0 1.183.117 11.6 11.6 0 0 1 4.184-1.734.94.94 0 0 0 .754-.92V7.898h.608zm26.364 21.088c-.491-2.902-1.955-4.748-3.131-6.232-1.055-1.33-1.89-2.383-1.904-3.838.606-7.422-1.154-13.604-5.09-17.88-1.846-2.005-4.15-3.553-6.85-4.6C34.51.667 31.275.116 27.694.116c-5.19 0-9.887 1.503-13.585 4.345-3.366 2.588-5.872 6.22-7.247 10.507-1.467 4.573-1.539 9.643-.202 14.277 1.394 4.83 4.192 8.912 8.104 11.833.283 5.959-1.351 10.634-2.552 14.07-.526 1.504-.941 2.693-1.077 3.667a.937.937 0 0 0 .928 1.067h.002l25.637-.05a.94.94 0 0 0 .935-.938c0-2.347-.767-4.43-1.384-6.102-1.044-2.83-1.038-3.37.044-3.843.62-.271 2.486.181 3.985.545 2.812.682 5.72 1.387 7.058-.278a.9.9 0 0 0 .182-.374c.67-2.866 1.3-3.774 1.718-4.376.37-.533.72-1.036.72-2.144a.94.94 0 0 0-.37-.746q-.923-.705-1.31-1.076c.386-.165.962-.35 1.197-.427a.94.94 0 0 0 .65-.886l.02-3.355 2.386-.45a.937.937 0 0 0 .75-1.078m-4.243-.171a.94.94 0 0 0-.764.915l-.02 3.453c-1.067.366-1.911.771-2.058 1.629-.156.913.578 1.635 1.85 2.625-.049.21-.152.36-.348.642-.485.698-1.211 1.744-1.941 4.756-.778.552-3.32-.065-5.035-.481-2.136-.518-3.98-.966-5.178-.44-1.306.57-1.959 1.524-1.94 2.834.014 1.007.419 2.104.887 3.374.502 1.36 1.06 2.872 1.222 4.519l-23.477.046c.187-.647.453-1.408.744-2.239 1.21-3.463 3.04-8.696 2.63-15.242a.94.94 0 0 0-.39-.703c-7.358-5.264-10.473-15.248-7.575-24.28 2.723-8.485 9.843-13.55 19.047-13.55 6.568 0 11.644 1.896 15.085 5.634 3.579 3.887 5.168 9.591 4.597 16.496l-.003.077c0 2.126 1.122 3.541 2.31 5.04 1.001 1.263 2.033 2.563 2.554 4.48z"/></svg>