<svg xmlns="http://www.w3.org/2000/svg" width="60" height="60" fill="none"><g fill="#282928" clip-path="url(#a)"><path d="M4.121 24.846c.647 0 1.172-.525 1.172-1.172V13.29c0-4.368 3.554-7.922 7.922-7.922h15.492l-.992 1.043c-.446.47-.427 1.211.042 1.657.462.44 1.217.42 1.657-.042l2.852-3.001a1.185 1.185 0 0 0 .02-1.637L29.415.366a1.172 1.172 0 1 0-1.7 1.615l.993 1.044H13.215c-5.66 0-10.266 4.605-10.266 10.266v10.383c0 .647.525 1.172 1.172 1.172M23.79 54.635H13.288c-4.368 0-7.922-3.554-7.922-7.922V31.296l1.044.992c.462.44 1.215.422 1.656-.042.446-.469.427-1.21-.042-1.657l-3.023-2.873a1.185 1.185 0 0 0-1.614 0L.364 30.59a1.172 1.172 0 0 0 1.615 1.7l1.044-.993v15.417c0 5.66 4.605 10.266 10.266 10.266h10.5a1.172 1.172 0 0 0 0-2.344M55.731 35.041c-.647 0-1.172.525-1.172 1.172v10.5c0 4.368-3.553 7.922-7.921 7.922H31.296l.992-1.044a1.172 1.172 0 1 0-1.7-1.614l-2.851 3a1.186 1.186 0 0 0-.021 1.637l2.873 3.023a1.18 1.18 0 0 0 1.657.042c.469-.446.488-1.187.042-1.657l-.993-1.044h15.343c5.66 0 10.265-4.605 10.265-10.265v-10.5c0-.647-.524-1.172-1.172-1.172M59.676 27.758a1.17 1.17 0 0 0-1.657-.042l-1.044.992V13.292c0-5.661-4.606-10.267-10.267-10.267H41.75a1.172 1.172 0 0 0 0 2.344h4.958c4.37 0 7.923 3.554 7.923 7.923v15.416l-1.043-.992a1.172 1.172 0 1 0-1.615 1.699l3.023 2.873c.445.423 1.169.424 1.614 0l3.023-2.873c.47-.446.488-1.188.043-1.657M26.533 34.678h-8.42c-.647 0-1.172.524-1.172 1.172v4.97c0 .648.525 1.172 1.172 1.172h8.42c.647 0 1.171-.524 1.171-1.172v-4.97c0-.648-.524-1.172-1.172-1.172m-1.172 4.97h-6.076v-2.626h6.076zM42.072 39.889H36.48a1.172 1.172 0 0 0 0 2.343h5.592a1.172 1.172 0 0 0 0-2.343"/><path d="M15.51 12.756h-.002a3.91 3.91 0 0 0-3.906 3.907v27.505c0 1.61 1.555 3.081 3.142 3.081h30.493c1.538 0 3.16-1.512 3.16-3.081V16.664c-.039-2.126-1.756-3.908-3.907-3.908zM26.806 15.1h6.358v7.616l-.547-.312a1.17 1.17 0 0 0-1.201.023l-1.47.916-1.363-.9a1.18 1.18 0 0 0-1.226-.04l-.552.315zm-2.344 0v4.156H13.944v-2.593c0-.862.702-1.563 1.564-1.563zm20.74 29.805H14.766c-.446-.076-.756-.382-.82-.809V21.6h10.518v3.135c0 .89.99 1.452 1.752 1.018l1.679-.957 1.39.918c.383.252.877.258 1.266.016l1.513-.944 1.692.967c.758.433 1.753-.138 1.753-1.018V21.48h10.546v22.586c-.091.422-.41.738-.85.84M44.688 15.1c.746 0 1.367.809 1.367 1.563v2.472H35.508V15.1zM35.829 5.172c.416.278.975.256 1.37-.05a1.18 1.18 0 0 0 .392-1.292 1.18 1.18 0 0 0-1.112-.805c-.49 0-.935.318-1.103.778-.18.495.01 1.08.453 1.369"/></g><defs><clipPath id="a"><path fill="#fff" d="M0 0h60v60H0z"/></clipPath></defs></svg>