<svg xmlns="http://www.w3.org/2000/svg" width="60" height="60" fill="none"><path fill="#282928" fill-rule="evenodd" d="M10.337 47.269a3.316 3.316 0 0 1-2.913 4.896 3.316 3.316 0 0 1-3.315-3.314 3.316 3.316 0 0 1 4.897-2.913l5.927-5.928v-5.927a.942.942 0 0 1 1.883 0V40.4c0 .25-.1.49-.276.666zm39.33 0-6.204-6.203a.94.94 0 0 1-.275-.666v-6.317a.942.942 0 0 1 1.882 0v5.927l5.928 5.928a3.316 3.316 0 0 1 4.896 2.913 3.316 3.316 0 0 1-3.315 3.314 3.316 3.316 0 0 1-2.913-4.896m-18.724 4.474a3.316 3.316 0 0 1-.941 6.493 3.316 3.316 0 0 1-.942-6.493V40.154a.942.942 0 0 1 1.883 0zm14.22-21.15a2.25 2.25 0 0 0 .14-2.177l-.005-.012a2.28 2.28 0 0 0-2.09-1.334h-.81v-7.061c0-1.5-1.222-2.721-2.722-2.721h-4.5a2.724 2.724 0 0 0-2.72 2.72v7.062h-.812c-.444 0-.862.122-1.217.342l.02-.043.006-.012c.38-.83.255-1.735-.328-2.435l-.012-.013-5.782-6.81-.008-.01a2.24 2.24 0 0 0-1.746-.801c-.704 0-1.292.274-1.747.802l-.008.01-5.782 6.809-.011.013a2.26 2.26 0 0 0-.329 2.435l.006.012a2.28 2.28 0 0 0 2.089 1.334h.81v1.89h-3.51c-4.385 0-7.972-3.586-7.972-7.969 0-3.325 2.064-6.19 4.972-7.383q-.02-.365-.02-.734c0-7.036 5.703-12.741 12.74-12.741 3.44 0 6.564 1.365 8.857 3.584a11.5 11.5 0 0 1 3.881-.671c5.93 0 10.81 4.487 11.433 10.251 3.46.94 5.894 4.104 5.894 7.694 0 4.383-3.587 7.97-7.972 7.97zM22.896 19.319l5.782 6.809c.107.13.131.296.062.449a.42.42 0 0 1-.382.245h-2.694v8.943a.84.84 0 0 1-.838.839h-4.5a.84.84 0 0 1-.839-.839v-8.943h-2.693a.42.42 0 0 1-.382-.245.42.42 0 0 1 .062-.449l5.782-6.809a.4.4 0 0 1 .32-.148c.126 0 .236.051.32.148m14.21 17.137-5.783-6.81a.42.42 0 0 1-.061-.448.42.42 0 0 1 .381-.245h2.694V20.01a.84.84 0 0 1 .838-.839h4.5a.84.84 0 0 1 .84.839v8.943h2.693c.166 0 .311.094.381.245.07.153.046.32-.062.449l-5.782 6.809a.4.4 0 0 1-.32.148.41.41 0 0 1-.32-.148" clip-rule="evenodd"/></svg>