<svg xmlns="http://www.w3.org/2000/svg" width="60" height="60" fill="none"><path fill="#282928" d="M20.625 18.75h11.25v1.875h-11.25zM33.75 18.75h1.875v1.875H33.75zM37.5 18.75h1.875v1.875H37.5zM20.625 26.25h11.25v1.875h-11.25zM33.75 26.25h1.875v1.875H33.75zM37.5 26.25h1.875v1.875H37.5zM20.625 33.75h11.25v1.875h-11.25zM33.75 33.75h1.875v1.875H33.75zM37.5 33.75h1.875v1.875H37.5z"/><path fill="#282928" d="M54.375 40.312a3.76 3.76 0 0 0-3.631 2.813H40.313v-3.75a2.815 2.815 0 0 0 2.812-2.813V33.75h5.625a9.374 9.374 0 1 0-1.529-18.626 17.815 17.815 0 0 0-32.943-3.816 11.25 11.25 0 1 0-1.153 22.441h3.75v2.813a2.816 2.816 0 0 0 2.813 2.813v3.75H9.256a3.75 3.75 0 1 0 0 1.875h11.369a.937.937 0 0 0 .938-.938v-4.687h1.875v7.5h-7.5a.94.94 0 0 0-.938.937v2.932a3.75 3.75 0 1 0 1.875 0V48.75h7.5a.937.937 0 0 0 .938-.938v-8.437h3.75v9.493a3.75 3.75 0 1 0 1.875 0v-9.493h3.75v8.437a.94.94 0 0 0 .937.938h7.5v1.993a3.75 3.75 0 1 0 1.875 0v-2.93a.94.94 0 0 0-.937-.938h-7.5v-7.5h1.874v4.687a.94.94 0 0 0 .938.938h11.369a3.75 3.75 0 1 0 3.631-4.688m-48.75 5.625a1.875 1.875 0 1 1 0-3.75 1.875 1.875 0 0 1 0 3.75m12.188 8.438a1.875 1.875 0 1 1-3.75 0 1.875 1.875 0 0 1 3.75 0M31.874 52.5a1.875 1.875 0 1 1-3.75 0 1.875 1.875 0 0 1 3.75 0m14.063 1.875a1.875 1.875 0 1 1-3.75 0 1.875 1.875 0 0 1 3.75 0M18.75 21.562v-3.75a.94.94 0 0 1 .938-.937h20.625a.94.94 0 0 1 .937.937v3.75a.94.94 0 0 1-.937.938H19.687a.94.94 0 0 1-.937-.938m0 7.5v-3.75a.94.94 0 0 1 .938-.937h20.625a.94.94 0 0 1 .937.937v3.75a.94.94 0 0 1-.937.938H19.687a.94.94 0 0 1-.937-.938m-15-6.562a9.386 9.386 0 0 1 10.91-9.25.94.94 0 0 0 .996-.516 15.941 15.941 0 0 1 29.947 3.693.94.94 0 0 0 1.168.713 7.5 7.5 0 1 1 1.979 14.735h-5.786a2.8 2.8 0 0 0-.557-.938 2.8 2.8 0 0 0 .718-1.875v-3.75a2.8 2.8 0 0 0-.718-1.875 2.8 2.8 0 0 0 .718-1.875v-3.75A2.816 2.816 0 0 0 40.313 15H19.687a2.816 2.816 0 0 0-2.812 2.812v3.75a2.8 2.8 0 0 0 .718 1.875 2.8 2.8 0 0 0-.718 1.875v3.75a2.8 2.8 0 0 0 .718 1.875 2.8 2.8 0 0 0-.557.938h-3.911A9.386 9.386 0 0 1 3.75 22.5m15 14.062v-3.75a.94.94 0 0 1 .938-.937h20.625a.94.94 0 0 1 .937.937v3.75a.94.94 0 0 1-.937.938H19.687a.94.94 0 0 1-.937-.938m35.625 9.375a1.875 1.875 0 1 1 0-3.75 1.875 1.875 0 0 1 0 3.75"/></svg>