<svg xmlns="http://www.w3.org/2000/svg" width="60" height="60" fill="none"><path fill="#282928" d="M42.041 20.978a1 1 0 0 0 1.113-.873C44.11 12.19 37.917 5.25 30 5.25c-7.306 0-13.25 5.944-13.25 13.25S22.694 31.75 30 31.75c4.338 0 8.408-2.129 10.887-5.695a1 1 0 0 0-1.642-1.142A11.27 11.27 0 0 1 30 29.75c-6.203 0-11.25-5.047-11.25-11.25S23.797 7.25 30 7.25c6.706 0 11.984 5.875 11.168 12.615a1 1 0 0 0 .873 1.113"/><path fill="#282928" d="M36.053 45.997h-.214V36.06c7.278-2.425 12.662-9.292 12.662-17.559C48.5 8.3 40.2 0 30 0 19.798 0 11.5 8.3 11.5 18.5c0 10.025 7.968 18.201 17.951 18.493a1 1 0 1 0 .058-2C20.533 34.731 13.5 27.487 13.5 18.5 13.5 9.402 20.902 2 30 2 39.1 2 46.5 9.402 46.5 18.5c0 7.321-4.908 13.844-11.937 15.862a1 1 0 0 0-.724.96v11.675a1 1 0 0 0 1 1h1.214c.458 0 .728.512.47.89l-6.052 8.865a.57.57 0 0 1-.94 0l-6.053-8.864a.569.569 0 0 1 .47-.89h1.214a1 1 0 0 0 1-1V40.77a1 1 0 0 0-2 0v5.226h-.214c-2.062 0-3.285 2.314-2.122 4.018l6.053 8.865c1.017 1.49 3.223 1.496 4.244 0l6.052-8.865c1.162-1.703-.059-4.018-2.122-4.018"/><path fill="#282928" d="M16.34 41.61v-6.104a1 1 0 0 0-2 0v7.01a1 1 0 0 0 1 1h.32a.5.5 0 0 1 .413.783l-3.976 5.823a.5.5 0 0 1-.825 0l-3.976-5.823a.5.5 0 0 1 .413-.782h.32a1 1 0 0 0 1-1V26a1 1 0 0 0-2 0v15.61c-1.631.459-2.354 2.397-1.385 3.816L9.62 51.25c.99 1.45 3.136 1.455 4.13 0l3.975-5.824c.969-1.419.247-3.357-1.386-3.816M52.972 41.61V26a1 1 0 0 0-2 0v16.517a1 1 0 0 0 1 1h.321a.5.5 0 0 1 .413.782l-3.976 5.823a.5.5 0 0 1-.826 0l-3.976-5.823a.5.5 0 0 1 .413-.782h.321a1 1 0 0 0 1-1v-7.011a1 1 0 0 0-2 0v6.104a2.5 2.5 0 0 0-1.385 3.816l3.975 5.824c.99 1.45 3.136 1.455 4.13 0l3.976-5.824c.97-1.422.243-3.358-1.386-3.816M30 28a1 1 0 0 0 1-1v-1.339c2.205-.378 3.865-1.975 3.865-3.881 0-3-2.7-3.548-4.671-3.948-2.34-.474-3.069-.81-3.069-1.987 0-1.066 1.314-1.967 2.87-1.967 1.062 0 2.038.412 2.546 1.075a1 1 0 1 0 1.587-1.217c-.712-.928-1.84-1.557-3.128-1.773v-1.338a1 1 0 0 0-2 0v1.337c-2.21.375-3.875 1.974-3.875 3.883 0 3 2.7 3.548 4.671 3.948 2.34.474 3.07.81 3.07 1.987 0 1.066-1.315 1.967-2.87 1.967-1.063 0-2.038-.412-2.546-1.075a1 1 0 1 0-1.587 1.217c.713.93 1.845 1.56 3.137 1.775V27a1 1 0 0 0 1 1"/></svg>