<svg xmlns="http://www.w3.org/2000/svg" width="60" height="60" fill="none"><path fill="#282928" fill-rule="evenodd" d="M56.377 36.832h1.859a.942.942 0 0 1 0 1.883H36.574a.942.942 0 0 1 0-1.883H38.5v-9.56a.59.59 0 0 1 .588-.589h2.616a.59.59 0 0 1 .588.588v9.561h3.25V23.288c0-.325.264-.588.589-.588h2.615c.325 0 .588.263.588.588v13.544h3.251V19.708c0-.325.264-.589.588-.589h2.616c.325 0 .588.264.588.589zm-18.754 3.765h9.262l1.67 3.77-4.494 4.496-3.816-1.69a20 20 0 0 1-5.87 2.432l-1.499 3.893h-6.358l-1.498-3.893a20.1 20.1 0 0 1-5.878-2.433l-3.815 1.69-4.495-4.494 1.697-3.816a20.1 20.1 0 0 1-2.44-5.871l-3.893-1.498v-6.358l3.893-1.498c.5-2.081 1.32-4.06 2.44-5.878l-1.697-3.816 4.494-4.494 3.816 1.696a20 20 0 0 1 5.872-2.433l1.504-3.899h6.358l1.498 3.9a20 20 0 0 1 5.871 2.432l3.816-1.697 3.958 3.958a67.3 67.3 0 0 1-9.076 5.44 13.2 13.2 0 0 0-9.25-3.78c-7.292 0-13.244 5.951-13.244 13.244s5.952 13.245 13.245 13.245c2.969 0 5.716-.986 7.93-2.648m-8.87-17.962v-1.017a.942.942 0 0 1 1.882 0v1.006c1.583.258 3.078 1.208 3.826 2.987a.942.942 0 0 1-1.736.73c-.779-1.854-2.848-2.246-4.338-1.66-.903.356-1.61 1.097-1.56 2.157.042.847.574 1.342 1.227 1.661.556.272 1.199.427 1.805.526 2.212.362 4.675 1.33 4.996 3.961v.001c.32 2.65-1.96 4.097-4.22 4.402v.994a.942.942 0 0 1-1.882 0v-1.008c-1.967-.302-3.707-1.52-4.22-3.585a.941.941 0 0 1 1.826-.454c.39 1.566 1.955 2.266 3.485 2.23.804-.019 1.697-.225 2.356-.68.527-.362.879-.908.787-1.672-.093-.758-.52-1.249-1.074-1.583-.693-.418-1.56-.617-2.358-.748h-.001c-2.152-.354-4.481-1.395-4.607-3.953-.093-1.935 1.103-3.352 2.75-4a5.4 5.4 0 0 1 1.056-.295m26.32-8.29c-5.284 4.545-10.887 7.949-16.442 10.518a.942.942 0 0 1-.79-1.709c5.372-2.484 10.792-5.77 15.906-10.152l-.353.02a.942.942 0 0 1-.103-1.88l3.034-.167a.94.94 0 0 1 .983 1.075l-.437 3.01a.942.942 0 0 1-1.863-.271zM53.64 46.122C48.452 53.81 39.659 58.87 29.694 58.87 13.76 58.87.824 45.934.824 30c0-15.933 12.936-28.87 28.87-28.87a28.76 28.76 0 0 1 19.21 7.327.942.942 0 0 1-1.253 1.404 26.88 26.88 0 0 0-17.957-6.848C14.799 3.013 2.707 15.106 2.707 30c0 14.895 12.092 26.988 26.987 26.988 9.238 0 17.398-4.652 22.264-11.74l-.693.186a.942.942 0 0 1-.487-1.818l2.954-.791a.94.94 0 0 1 1.152.665l.792 2.954a.942.942 0 0 1-1.819.487z" clip-rule="evenodd"/></svg>