<svg xmlns="http://www.w3.org/2000/svg" width="60" height="60" fill="none"><g fill="#282928" clip-path="url(#a)"><path d="M26.29 27.656h20.624a.937.937 0 1 0 0-1.875H26.29a.938.938 0 0 0 0 1.875"/><path d="M50.625 0H9.375a2.816 2.816 0 0 0-2.812 2.813V45a2.815 2.815 0 0 0 2.812 2.813h2.554a2.82 2.82 0 0 1-.3-1.876H9.374A.94.94 0 0 1 8.438 45V9.375h43.125V45a.94.94 0 0 1-.938.938h-2.858l-1.129 1.858-.002.017h3.989A2.815 2.815 0 0 0 53.438 45V2.813A2.815 2.815 0 0 0 50.625 0m-37.5 5.625a.937.937 0 1 1 0-1.874.937.937 0 0 1 0 1.874m3.75 0a.937.937 0 1 1 0-1.874.937.937 0 0 1 0 1.874m3.75 0a.937.937 0 1 1 0-1.874.937.937 0 0 1 0 1.874m26.25 0H32.813a.937.937 0 0 1 0-1.875h14.062a.937.937 0 0 1 0 1.875"/><path d="M26.29 15.469h20.624a.938.938 0 0 0 0-1.875H26.29a.938.938 0 1 0 0 1.875M26.29 19.219h20.624a.938.938 0 0 0 0-1.875H26.29a.938.938 0 1 0 0 1.875M26.29 22.969h10.312a.938.938 0 0 0 0-1.875H26.289a.938.938 0 1 0 0 1.875M19.688 13.594h-5.625c-1.036 0-1.876.84-1.876 1.875v5.625c0 1.035.84 1.875 1.876 1.875h5.624c1.036 0 1.875-.84 1.875-1.875v-5.625c0-1.036-.839-1.875-1.875-1.875M46.914 29.531h-10.18a17 17 0 0 1 3.25 1.875h6.93a.937.937 0 1 0 0-1.875"/><path d="M46.062 43.327a.936.936 0 0 0-1.149.141 14.992 14.992 0 0 0-29.327-2.608c.088-.01.177-.023.267-.026.554-.017 1.1.13 1.569.424a13.123 13.123 0 0 1 25.624 2.314.935.935 0 0 0-1.565 1.02l1.618 2.758a.928.928 0 0 0 1.61.012l1.668-2.747a.94.94 0 0 0-.315-1.288"/><path d="M22.33 42.147a2.166 2.166 0 0 0-1.705 2.104v1.498a2.165 2.165 0 0 0 1.706 2.104l.066.015q.09.243.2.48l-.038.057a2.17 2.17 0 0 0 .282 2.694l1.06 1.06a2.18 2.18 0 0 0 2.694.282l.057-.037q.237.108.48.2l.014.065a2.165 2.165 0 0 0 2.105 1.706h1.498a2.166 2.166 0 0 0 2.104-1.706l.015-.066q.243-.09.48-.2l.057.038a2.174 2.174 0 0 0 2.695-.283l1.059-1.058a2.166 2.166 0 0 0 .282-2.694l-.037-.058a8 8 0 0 0 .2-.48l.065-.015a2.166 2.166 0 0 0 1.706-2.104V44.25a2.165 2.165 0 0 0-1.706-2.104l-.066-.015a8 8 0 0 0-.2-.48l.038-.057a2.165 2.165 0 0 0-.282-2.694l-1.06-1.06a2.174 2.174 0 0 0-2.693-.282l-.058.037a8 8 0 0 0-.48-.2l-.015-.065a2.166 2.166 0 0 0-2.104-1.706H29.25a2.165 2.165 0 0 0-2.105 1.706l-.014.066a8 8 0 0 0-.48.2l-.057-.038a2.174 2.174 0 0 0-2.695.282l-1.059 1.06a2.166 2.166 0 0 0-.282 2.694l.037.057a8 8 0 0 0-.2.48zm.17 2.104a.28.28 0 0 1 .224-.271l.983-.21a.28.28 0 0 0 .21-.21 6.2 6.2 0 0 1 .765-1.842.28.28 0 0 0-.001-.296l-.548-.846a.28.28 0 0 1 .034-.35l1.06-1.059a.29.29 0 0 1 .35-.034l.845.548a.28.28 0 0 0 .296 0 6.2 6.2 0 0 1 1.842-.764.28.28 0 0 0 .21-.21l.21-.983a.28.28 0 0 1 .271-.224h1.498a.28.28 0 0 1 .271.224l.21.983a.28.28 0 0 0 .21.21 6.2 6.2 0 0 1 1.842.765.28.28 0 0 0 .296-.001l.846-.548a.286.286 0 0 1 .35.034l1.059 1.06a.28.28 0 0 1 .034.35l-.548.845a.28.28 0 0 0 0 .296c.352.569.61 1.191.764 1.842a.28.28 0 0 0 .21.21l.983.21a.28.28 0 0 1 .224.271v1.498a.28.28 0 0 1-.224.271l-.983.21a.28.28 0 0 0-.21.21 6.2 6.2 0 0 1-.765 1.842.28.28 0 0 0 .001.296l.548.846a.28.28 0 0 1-.034.35l-1.06 1.059a.29.29 0 0 1-.35.034l-.845-.548a.28.28 0 0 0-.296 0 6.2 6.2 0 0 1-1.842.764.28.28 0 0 0-.21.21l-.21.983a.28.28 0 0 1-.271.224H29.25a.28.28 0 0 1-.271-.224l-.21-.983a.28.28 0 0 0-.21-.21 6.2 6.2 0 0 1-1.842-.765.28.28 0 0 0-.296.001l-.846.548a.29.29 0 0 1-.35-.034l-1.059-1.06a.28.28 0 0 1-.034-.35l.548-.845a.28.28 0 0 0 0-.296 6.2 6.2 0 0 1-.764-1.842.28.28 0 0 0-.21-.21l-.983-.21a.28.28 0 0 1-.224-.271z"/><path d="M30 48.75a3.75 3.75 0 1 0 0-7.5 3.75 3.75 0 0 0 0 7.5"/><path d="M43.887 49.688a2.8 2.8 0 0 1-1.472-.436 13.12 13.12 0 0 1-25.38-2.236.936.936 0 0 0 1.43-1.187l-1.73-2.691a.937.937 0 0 0-1.608.053l-1.555 2.813a.932.932 0 0 0 1.568 1.004 14.996 14.996 0 0 0 29.114 2.657 3 3 0 0 1-.346.023zM16.307 35.156l.04-.045a17.1 17.1 0 0 1 5.127-4.65.5.5 0 0 1 .088-.066v-2.739a1.876 1.876 0 0 0-1.875-1.875h-5.625a1.877 1.877 0 0 0-1.874 1.875v5.625a1.877 1.877 0 0 0 1.874 1.875z"/></g><defs><clipPath id="a"><path fill="#fff" d="M0 0h60v60H0z"/></clipPath></defs></svg>