<svg xmlns="http://www.w3.org/2000/svg" width="60" height="60" fill="none"><path fill="#282928" d="m44.5 15.004 1.255-1.252A1.034 1.034 0 0 0 45.016 12a1.04 1.04 0 0 0-.73.288l-3.003 2.995a1.035 1.035 0 0 0 0 1.464l3.004 2.995a1.03 1.03 0 0 0 .734.303 1.05 1.05 0 0 0 .949-.643 1.04 1.04 0 0 0-.215-1.124l-1.204-1.2a13 13 0 0 1 8.827 3.964A12.93 12.93 0 0 1 57 29.992c-.715 17.172-25.253 17.161-25.962 0a15 15 0 0 0-4.416-10.61A15.1 15.1 0 0 0 15.98 14.98c-19.674.766-20.108 28.626-.48 30l-1.255 1.252a1.036 1.036 0 0 0-.001 1.465 1.04 1.04 0 0 0 1.47-.001l3.003-2.995a1.035 1.035 0 0 0 0-1.464l-3.004-2.995a1.04 1.04 0 0 0-1.757.737c-.003.27.1.532.289.727l1.204 1.2C-1.376 41.592-.919 17.706 15.98 17.05a13.02 13.02 0 0 1 9.175 3.795 12.94 12.94 0 0 1 3.807 9.147 15 15 0 0 0 4.415 10.61 15.1 15.1 0 0 0 10.643 4.402c19.673-.766 20.108-28.626.48-30"/><path fill="#282928" d="M24.265 27.644h-.641a7.9 7.9 0 0 0-1.705-2.874c.2-.194.352-.43.445-.688a1.8 1.8 0 0 0-.171-1.575 1.9 1.9 0 0 0-.584-.582l-1.219-.683a1.78 1.78 0 0 0-1.309-.16 1.73 1.73 0 0 0-1.046.783l-.32.533a8.5 8.5 0 0 0-3.41 0c-.307-.547-.69-1.188-1.373-1.327-.854-.316-1.832.5-2.531.854-.239.148-.44.346-.588.58a1.8 1.8 0 0 0-.172 1.578c.095.259.249.494.45.686a7.8 7.8 0 0 0-1.715 2.865h-.64a1.78 1.78 0 0 0-1.229.493c-.16.157-.289.343-.376.548a1.65 1.65 0 0 0-.131.647v1.367c.001.446.185.874.51 1.188.326.315.767.491 1.226.49h.64a7.7 7.7 0 0 0 1.705 2.874c-.2.194-.352.429-.446.687a1.8 1.8 0 0 0 .172 1.576c.148.234.347.432.584.581l1.219.684a1.75 1.75 0 0 0 1.308.168c.219-.057.424-.155.603-.29.18-.133.33-.3.444-.492l.32-.542a8.1 8.1 0 0 0 3.41 0l.33.553c.233.383.611.662 1.054.777a1.8 1.8 0 0 0 1.311-.164c1.674-.842 2.844-1.675 1.519-3.528a7.75 7.75 0 0 0 1.715-2.874h.64c.46.001.9-.175 1.226-.49A1.66 1.66 0 0 0 26 30.7v-1.367c0-.222-.044-.442-.131-.646a1.7 1.7 0 0 0-.377-.549 1.7 1.7 0 0 0-.563-.366 1.8 1.8 0 0 0-.664-.127M16 34.407a4.58 4.58 0 0 1-3.172-1.3 4.34 4.34 0 0 1-1.31-3.097c0-1.16.47-2.273 1.31-3.096a4.58 4.58 0 0 1 3.172-1.3 4.58 4.58 0 0 1 3.172 1.3 4.34 4.34 0 0 1 1.311 3.096c0 1.16-.471 2.273-1.31 3.097a4.58 4.58 0 0 1-3.173 1.3"/><path fill="#282928" d="M14 30c.006.532.22 1.041.594 1.416.374.374.88.584 1.406.584s1.032-.21 1.406-.584c.375-.375.588-.883.594-1.416a2.04 2.04 0 0 0-.594-1.416A2 2 0 0 0 16 28c-.526 0-1.032.21-1.406.584A2.04 2.04 0 0 0 14 30M37.437 34.687a.83.83 0 0 0 .644.313.84.84 0 0 0 .638-.329 1.26 1.26 0 0 0 .269-.783 1.27 1.27 0 0 0-.256-.789l-2.522-3.091 2.522-3.092c.172-.21.268-.496.268-.794 0-.297-.096-.583-.268-.793a.84.84 0 0 0-.647-.329.84.84 0 0 0-.648.329l-3.169 3.885a1.2 1.2 0 0 0-.198.364 1.35 1.35 0 0 0 0 .86c.046.135.113.259.198.363zM49.268 34.672a.9.9 0 0 0 .297.243.77.77 0 0 0 .7 0 .9.9 0 0 0 .298-.243l3.169-3.88q.128-.157.198-.363a1.34 1.34 0 0 0 0-.858 1.2 1.2 0 0 0-.198-.363l-3.17-3.88a.9.9 0 0 0-.296-.243.77.77 0 0 0-.7 0 .9.9 0 0 0-.298.243 1.2 1.2 0 0 0-.198.364 1.34 1.34 0 0 0 0 .857c.046.136.113.26.198.364L51.79 30l-2.522 3.087a1.2 1.2 0 0 0-.198.364 1.34 1.34 0 0 0 0 .857q.07.206.198.364M43.714 35.282l2.264-10.093a1.07 1.07 0 0 0-.107-.725.89.89 0 0 0-.532-.435.8.8 0 0 0-.653.105.97.97 0 0 0-.4.584l-2.264 10.093c-.051.248-.013.508.107.725s.31.373.532.435a.8.8 0 0 0 .653-.105.97.97 0 0 0 .4-.584"/></svg>