<svg xmlns="http://www.w3.org/2000/svg" width="60" height="60" fill="none"><path fill="#282928" d="M57.168 29.072a2.83 2.83 0 0 0-2.11-.947H44.352l-1.078-12.431a2.8 2.8 0 0 0-2.803-2.569h-2.972V6.563a4.69 4.69 0 0 0-4.688-4.688H15.936a4.69 4.69 0 0 0-4.687 4.688v6.562H8.277a2.8 2.8 0 0 0-2.803 2.569L2.052 55.069a2.86 2.86 0 0 0 .731 2.147 2.81 2.81 0 0 0 2.072.909h39.038a2.81 2.81 0 0 0 2.072-.91 2.86 2.86 0 0 0 .73-2.146l-.552-6.319h7.293v-1.875h-7.462L45.814 45h7.838a2.82 2.82 0 0 0 2.794-2.466l1.406-11.25a2.81 2.81 0 0 0-.684-2.212m-13.07 17.803h-8.474V45h8.306zM13.125 6.563a2.82 2.82 0 0 1 2.812-2.813h16.875a2.82 2.82 0 0 1 2.813 2.813v6.562h-22.5zM44.577 55.95a.9.9 0 0 1-.684.3H4.855a.9.9 0 0 1-.684-.3.88.88 0 0 1-.244-.713l3.422-39.375A.94.94 0 0 1 8.277 15h2.972v8.438h1.875V15h22.5v8.438h1.875V15h2.972a.94.94 0 0 1 .928.863l1.069 12.262h-8.982l-1.659-4.988a.95.95 0 0 0-.89-.637h-3.75v1.875h3.074l1.632 4.894 1.856 14.85v3.694a.94.94 0 0 0 .937.937h9.572l.563 6.487a.88.88 0 0 1-.244.713"/><path fill="#282928" d="M50.625 54.375a2.813 2.813 0 1 0 0-5.625 2.813 2.813 0 0 0 0 5.625M38.438 54.375a2.813 2.813 0 1 0 0-5.625 2.813 2.813 0 0 0 0 5.625"/></svg>