<svg xmlns="http://www.w3.org/2000/svg" width="60" height="60" fill="none"><path fill="#282928" d="M53.91 26.182c0-14.454-12.182-26-26.728-25.272-13.181.727-23.818 11.636-24 24.909a25.68 25.68 0 0 0 6.091 17 26.23 26.23 0 0 1 6.273 15.454c0 .455.455.818.91.818h24.272c.545 0 .909-.363.909-.909V51h4c2.455 0 4.455-2 4.455-4.454v-6.091h5.818c.272 0 .545-.09.727-.364a.71.71 0 0 0 .182-.727zm-4.728 12.455c-.545 0-.909.363-.909.909v7a2.64 2.64 0 0 1-2.636 2.636h-4.91c-.545 0-.908.364-.908.91v7.181H17.273c-.545-5.818-2.818-11.182-6.636-15.636-3.727-4.364-5.818-10-5.636-15.727.181-12.364 10-22.546 22.272-23.182C40.91 2 52.092 12.818 52.092 26.273v.182l2.636 12.09h-5.546z"/><path fill="#282928" d="M32.002 22.092h-6.91c-.545 0-.908.363-.908.909v6.909c0 .545.363.91.909.91h6.909c.545 0 .909-.365.909-.91V23c0-.454-.455-.908-.91-.908M31.092 29h-5.09V23.91h5.09z"/><path fill="#282928" d="M41.456 21.636c.545 0 .91-.364.91-.91 0-.545-.365-.908-.91-.908h-2.91v-2.546c0-.545-.363-.909-.908-.909h-2.546v-2.909c0-.545-.363-.91-.909-.91-.545 0-.909.365-.909.91v2.91h-3.909v-2.91c0-.545-.364-.91-.909-.91-.546 0-.91.365-.91.91v2.91h-3.908v-2.91c0-.545-.364-.91-.91-.91-.545 0-.908.365-.908.91v2.91h-2.546c-.545 0-.909.363-.909.908v2.546h-2.909c-.545 0-.91.363-.91.909 0 .545.365.909.91.909h2.91v3.909h-2.91c-.545 0-.91.364-.91.909 0 .546.365.91.91.91h2.91v3.908h-2.91c-.545 0-.91.364-.91.91 0 .545.365.908.91.908h2.91v2.546c0 .545.363.909.908.909h2.546v2.909c0 .545.363.91.909.91.545 0 .909-.364.909-.91v-2.91h3.909v2.91c0 .545.363.91.909.91.545 0 .91-.364.91-.91v-2.91h3.908v2.91c0 .545.364.91.91.91.545 0 .908-.364.908-.91v-2.91h2.546c.545 0 .909-.363.909-.908V33.09h2.909c.545 0 .91-.363.91-.909 0-.545-.365-.909-.91-.909h-2.91v-3.909h2.91c.545 0 .91-.363.91-.909 0-.545-.365-.91-.91-.91h-2.91v-3.908zm-21.182 13.09V18.182H36.82v16.546z"/></svg>