<svg xmlns="http://www.w3.org/2000/svg" width="60" height="60" fill="none"><path fill="#282928" d="M17.68 44.098V29.336h6.445v14.762zm-4.18 0v-10.68H7.054v10.68zm25.43-9.743a13.7 13.7 0 0 1 6.43-1.589h.015V17.312H38.93zm-7.144 9.743a13.74 13.74 0 0 1 2.964-6.351V23.919h-6.446V44.1zm-.758 1.641H3.305a.82.82 0 1 0 0 1.64h27.723a.82.82 0 0 0 0-1.64m11.15-35.266 2.52 1.622a.47.47 0 0 0 .494.013.47.47 0 0 0 .241-.431l-.342-9.927a.47.47 0 0 0-.221-.387.46.46 0 0 0-.444-.036l-9.064 3.874a.47.47 0 0 0-.288.398.47.47 0 0 0 .217.442l2.146 1.38c-5.041 7.326-15.305 15.585-30.441 16.934 15.919 3.675 29.121-5.32 35.182-13.882m15.335 36.086c0 6.694-5.46 12.153-12.153 12.153s-12.152-5.46-12.152-12.153 5.459-12.152 12.152-12.152c6.694 0 12.153 5.459 12.153 12.152m-2.208 0c0-5.477-4.467-9.945-9.945-9.945-5.477 0-9.945 4.468-9.945 9.945s4.468 9.945 9.945 9.945 9.945-4.467 9.945-9.945m-4.987-6.118-.372.373a.82.82 0 0 0 1.16 1.16l.372-.373a.82.82 0 1 0-1.16-1.16m2.874 5.298h-.527a.82.82 0 1 0 0 1.64h.527a.82.82 0 1 0 0-1.64m-2.087 5.406a.82.82 0 0 0-1.16 1.16l.373.372a.82.82 0 1 0 1.16-1.16zM48.28 45.94l-2.47-2.14a.818.818 0 0 0-1.07 1.237l.809.701h-7.01a.82.82 0 1 0 0 1.64h7.01l-.81.702a.818.818 0 0 0 1.07 1.236l2.463-2.133a.82.82 0 0 0 .008-1.243m-8.664 5.204-.373.372a.82.82 0 1 0 1.16 1.16l.373-.373a.82.82 0 1 0-1.16-1.16m5.745 1.899a.82.82 0 0 0-.82.82v.527a.82.82 0 0 0 1.64 0v-.527a.82.82 0 0 0-.82-.82m-5.745-11.07a.82.82 0 0 0 1.16-1.16l-.373-.373a.82.82 0 1 0-1.16 1.16zm5.745-1.9a.82.82 0 0 0 .82-.82v-.527a.82.82 0 1 0-1.64 0v.528c0 .453.367.82.82.82"/></svg>