<svg xmlns="http://www.w3.org/2000/svg" width="60" height="60" fill="none"><path fill="#282928" d="M31.305 43.874h-2.61a1.68 1.68 0 0 1-1.679-1.678c0-1.019-.66-1.655-1.277-1.911s-1.534-.272-2.254.448a1.67 1.67 0 0 1-1.187.492c-.448 0-.87-.175-1.186-.492l-1.846-1.846a1.68 1.68 0 0 1 0-2.373c.72-.72.702-1.636.446-2.254-.256-.617-.892-1.277-1.91-1.277a1.68 1.68 0 0 1-1.677-1.678v-2.61a1.68 1.68 0 0 1 1.678-1.679c1.017 0 1.653-.66 1.91-1.278.255-.617.272-1.534-.447-2.253a1.67 1.67 0 0 1-.492-1.187c0-.448.175-.87.492-1.186l1.846-1.846a1.67 1.67 0 0 1 1.186-.492c.448 0 .87.175 1.187.492.719.72 1.636.702 2.253.446s1.278-.892 1.278-1.91a1.68 1.68 0 0 1 1.678-1.677h2.61a1.68 1.68 0 0 1 1.679 1.678c0 1.017.66 1.653 1.278 1.91.617.255 1.534.272 2.253-.447a1.68 1.68 0 0 1 2.373 0l1.846 1.846c.317.317.492.738.492 1.186s-.175.87-.492 1.187c-.72.72-.702 1.636-.446 2.253s.892 1.278 1.91 1.278a1.68 1.68 0 0 1 1.677 1.678v2.61a1.68 1.68 0 0 1-1.678 1.679c-1.017 0-1.653.66-1.91 1.278-.255.617-.272 1.534.447 2.253a1.68 1.68 0 0 1 0 2.373l-1.846 1.846a1.68 1.68 0 0 1-2.373 0c-.72-.72-1.636-.702-2.254-.446-.617.256-1.277.892-1.277 1.91a1.68 1.68 0 0 1-1.678 1.677m-6.381-5.397c.481 0 .97.096 1.443.292a3.65 3.65 0 0 1 2.29 3.427c0 .02.017.037.037.037h2.61c.021 0 .038-.016.038-.037 0-1.527.878-2.84 2.29-3.425a3.65 3.65 0 0 1 4.043.802.037.037 0 0 0 .052 0l1.846-1.846a.037.037 0 0 0 0-.053 3.65 3.65 0 0 1-.802-4.041 3.65 3.65 0 0 1 3.425-2.291c.02 0 .037-.017.037-.037v-2.611a.037.037 0 0 0-.037-.037 3.65 3.65 0 0 1-3.425-2.291 3.65 3.65 0 0 1 .802-4.042.03.03 0 0 0 .011-.026c0-.015-.007-.023-.01-.026l-1.847-1.846a.037.037 0 0 0-.052 0 3.65 3.65 0 0 1-4.042.802 3.65 3.65 0 0 1-2.291-3.426.037.037 0 0 0-.037-.037h-2.61a.037.037 0 0 0-.038.037c0 1.528-.878 2.84-2.29 3.425a3.65 3.65 0 0 1-4.043-.802c-.003-.003-.01-.01-.026-.01-.015 0-.023.007-.026.01l-1.846 1.847a.03.03 0 0 0-.011.026c0 .015.007.023.01.026a3.65 3.65 0 0 1 .803 4.042 3.65 3.65 0 0 1-3.426 2.29.037.037 0 0 0-.037.038v2.61c0 .021.017.038.037.038 1.528 0 2.84.877 3.426 2.29a3.65 3.65 0 0 1-.802 4.042.037.037 0 0 0 0 .053l1.846 1.846c.003.003.01.011.026.011a.03.03 0 0 0 .027-.011 3.66 3.66 0 0 1 2.599-1.096M30 37.2c-3.97 0-7.2-3.23-7.2-7.2s3.23-7.2 7.2-7.2 7.2 3.23 7.2 7.2-3.23 7.2-7.2 7.2m0-12.759A5.565 5.565 0 0 0 24.44 30 5.565 5.565 0 0 0 30 35.558a5.566 5.566 0 0 0 5.559-5.56 5.565 5.565 0 0 0-5.56-5.559"/><path fill="#282928" d="M52.938 57.26a.82.82 0 0 1-.82-.82v-2.52H30C16.81 53.92 6.078 43.19 6.078 30a23.93 23.93 0 0 1 5.666-15.457.82.82 0 0 1 .626-.29h7.203a.82.82 0 0 1 .47 1.492A17.42 17.42 0 0 0 12.613 30c0 9.587 7.8 17.387 17.387 17.387h22.118v-2.519a.82.82 0 0 1 1.432-.547l5.186 5.786a.82.82 0 0 1 0 1.095l-5.186 5.786a.82.82 0 0 1-.612.273M12.754 15.894a22.3 22.3 0 0 0-5.035 14.105C7.719 42.285 17.714 52.28 30 52.28h22.939a.82.82 0 0 1 .82.82v1.196l3.264-3.642-3.264-3.643v1.195a.82.82 0 0 1-.82.82H30c-10.492 0-19.027-8.535-19.027-19.027 0-5.401 2.303-10.52 6.26-14.105zM7.062 57.26a.82.82 0 0 1-.612-.273l-5.186-5.786a.82.82 0 0 1 0-1.095l5.186-5.787a.82.82 0 0 1 1.432.548v2.52h3.026a.82.82 0 0 1 .593.253 25.6 25.6 0 0 0 6.148 4.743.82.82 0 0 1-.397 1.538h-9.37v2.519a.82.82 0 0 1-.82.82m-4.086-6.606 3.265 3.642V53.1a.82.82 0 0 1 .82-.82h7.331a27.3 27.3 0 0 1-3.832-3.254H7.06a.82.82 0 0 1-.82-.82V47.01zm44.655-4.909h-7.204a.82.82 0 0 1-.47-1.492 17.42 17.42 0 0 0 7.43-14.254c0-9.587-7.8-17.386-17.387-17.386H7.882v2.519a.82.82 0 0 1-1.432.547L1.264 9.893a.82.82 0 0 1 0-1.095L6.45 3.01a.82.82 0 0 1 1.432.548v2.519H30c13.19 0 23.922 10.73 23.922 23.921a23.93 23.93 0 0 1-5.666 15.457.82.82 0 0 1-.626.29m-4.863-1.64h4.478a22.3 22.3 0 0 0 5.035-14.106c0-12.285-9.995-22.28-22.281-22.28H7.061a.82.82 0 0 1-.82-.821V5.703L2.977 9.345l3.264 3.642v-1.195a.82.82 0 0 1 .82-.82H30c10.492 0 19.027 8.536 19.027 19.027 0 5.402-2.303 10.52-6.259 14.106m10.17-28.153a.82.82 0 0 1-.82-.82v-2.52h-3.026a.82.82 0 0 1-.593-.254 25.6 25.6 0 0 0-6.148-4.742.82.82 0 0 1 .397-1.538h9.37v-2.52a.82.82 0 0 1 1.432-.547l5.186 5.787a.82.82 0 0 1 0 1.095l-5.186 5.786a.82.82 0 0 1-.612.273m-3.498-4.98h3.499a.82.82 0 0 1 .82.82v1.195l3.264-3.642-3.264-3.642v1.195a.82.82 0 0 1-.82.82h-7.331a27.3 27.3 0 0 1 3.832 3.254"/></svg>