<svg xmlns="http://www.w3.org/2000/svg" width="60" height="60" fill="none"><path fill="#282928" d="M45.172 12.939a5.48 5.48 0 0 0 5.476-5.476 5.48 5.48 0 0 0-5.476-5.476 5.48 5.48 0 0 0-5.475 5.476 5.48 5.48 0 0 0 5.475 5.476m0-9.546a4.074 4.074 0 0 1 4.07 4.07 4.074 4.074 0 0 1-4.07 4.07 4.074 4.074 0 0 1-4.07-4.07 4.074 4.074 0 0 1 4.07-4.07M4.363 26.56h12.572a23.7 23.7 0 0 0-.907 3.904.703.703 0 0 0 .695.805h26.553a.704.704 0 0 0 .696-.805 23.7 23.7 0 0 0-.908-3.904h12.572a.703.703 0 0 0 .696-.804c-1.032-7.076-5.725-12.212-11.16-12.212-2.954 0-5.802 1.54-7.91 4.249-2.142-1.696-4.633-2.661-7.262-2.661-2.63 0-5.12.965-7.262 2.66-2.108-2.709-4.956-4.248-7.91-4.248-5.435 0-10.129 5.136-11.16 12.212a.703.703 0 0 0 .695.804m40.81-11.61c4.528 0 8.487 4.244 9.632 10.204H42.554c-1.032-2.563-2.487-4.759-4.232-6.435 1.861-2.436 4.275-3.769 6.85-3.769M30 16.538c5.894 0 11.035 5.556 12.449 13.325H17.55C18.964 22.094 24.106 16.538 30 16.538M14.827 14.95c2.576 0 4.99 1.333 6.85 3.769-1.744 1.676-3.2 3.872-4.231 6.435H5.195c1.145-5.96 5.104-10.204 9.632-10.204m0-2.011a5.48 5.48 0 0 0 5.476-5.476 5.48 5.48 0 0 0-5.476-5.476 5.48 5.48 0 0 0-5.476 5.476 5.48 5.48 0 0 0 5.476 5.476m0-9.546a4.074 4.074 0 0 1 4.07 4.07 4.074 4.074 0 0 1-4.07 4.07 4.074 4.074 0 0 1-4.07-4.07 4.074 4.074 0 0 1 4.07-4.07M30 13.986a6.766 6.766 0 0 0 6.758-6.758A6.766 6.766 0 0 0 30 .468a6.766 6.766 0 0 0-6.759 6.76A6.766 6.766 0 0 0 30 13.986m0-12.111a5.36 5.36 0 0 1 5.352 5.353A5.36 5.36 0 0 1 30 12.58a5.36 5.36 0 0 1-5.353-5.352A5.36 5.36 0 0 1 30 1.875m25.636 30.614H4.363a.703.703 0 0 0-.703.703c0 7.035 2.74 13.65 7.715 18.625S22.965 59.53 30 59.53s13.65-2.74 18.625-7.714 7.715-11.59 7.715-18.625a.703.703 0 0 0-.704-.703m-50.56 1.406H15.49c.067 4.722.81 9.237 2.145 13.164a26 26 0 0 0-5.205 3.804c-4.39-4.365-7.169-10.347-7.353-16.968M20.815 56.37a19 19 0 0 1-.455-.186 24 24 0 0 1-.422-.182l-.042-.018a25 25 0 0 1-6.442-4.156 24.6 24.6 0 0 1 4.668-3.432 29 29 0 0 0 1.492 3.256c1.355 2.516 2.944 4.47 4.684 5.805a25 25 0 0 1-3.483-1.087m8.482 1.717c-3.16-.323-6.136-2.815-8.445-7.102a28 28 0 0 1-1.48-3.248 24 24 0 0 1 9.925-2.45zm0-14.208a25.4 25.4 0 0 0-10.4 2.525c-1.243-3.733-1.936-8.02-2.002-12.51h12.401zm1.406-9.985h12.401c-.065 4.49-.759 8.777-2.001 12.51a25.4 25.4 0 0 0-10.4-2.525zm0 11.393c3.485.1 6.853.941 9.924 2.45a28 28 0 0 1-1.48 3.248c-2.31 4.287-5.285 6.779-8.444 7.102zm9.4 10.697-.041.019a26 26 0 0 1-.877.367 25 25 0 0 1-3.484 1.087c1.74-1.334 3.33-3.29 4.685-5.805a29 29 0 0 0 1.492-3.255 24.6 24.6 0 0 1 4.667 3.43 25 25 0 0 1-6.442 4.157m7.468-5.122a26 26 0 0 0-5.206-3.804c1.334-3.926 2.078-8.441 2.145-13.164h10.413c-.184 6.62-2.963 12.603-7.352 16.968M24.774 23.035l2.347 1.946-.755 2.955a.703.703 0 0 0 1.057.768L30 27.073l2.576 1.631a.702.702 0 0 0 1.057-.768l-.755-2.955 2.348-1.946a.703.703 0 0 0-.404-1.243l-3.043-.195-1.126-2.834a.703.703 0 0 0-1.307 0l-1.125 2.834-3.044.195a.703.703 0 0 0-.403 1.243m3.98-.063a.7.7 0 0 0 .61-.442L30 20.928l.636 1.602c.1.253.337.425.609.442l1.72.11-1.327 1.1a.7.7 0 0 0-.232.716l.427 1.67-1.457-.922a.7.7 0 0 0-.752 0l-1.457.923.427-1.67a.7.7 0 0 0-.233-.716l-1.327-1.1z"/></svg>