<svg xmlns="http://www.w3.org/2000/svg" width="60" height="60" fill="none"><path fill="#282928" d="M37.975 46.328v1.399H12.031v-37.27h25.944v10.665a2.54 2.54 0 0 1 1.086-.234h1.946V5.662c0-1.859-1.564-3.457-3.466-3.457H12.457A3.466 3.466 0 0 0 9 5.662v48.674a3.46 3.46 0 0 0 3.457 3.457H37.54a3.473 3.473 0 0 0 3.466-3.457v-7.66h-1.729a2.54 2.54 0 0 1-1.303-.348M22.793 5.462h4.412c.487 0 .869.391.869.869a.866.866 0 0 1-.869.868h-4.412a.87.87 0 0 1-.869-.868c0-.478.391-.869.869-.869m5.081 48.492h-5.75a.865.865 0 0 1-.868-.868c0-.478.39-.869.868-.869h5.75c.486 0 .869.39.869.869a.86.86 0 0 1-.869.868"/><path fill="#282928" d="M30.363 24.09a.87.87 0 0 0 1.228-.006l3.63-3.663a.87.87 0 0 0 0-1.223l-3.63-3.664a.869.869 0 0 0-1.234 1.223l3.024 3.052-3.024 3.053a.87.87 0 0 0 .006 1.228M19.64 15.528a.867.867 0 0 0-1.228.005l-3.63 3.664a.87.87 0 0 0 0 1.223l3.63 3.663a.868.868 0 1 0 1.235-1.222l-3.024-3.053 3.023-3.052a.87.87 0 0 0-.006-1.229M26.402 13.074l-5.098 12.83a.868.868 0 1 0 1.614.64l5.098-12.828a.868.868 0 1 0-1.614-.642M50.479 31.801l-1.908-.215a8.4 8.4 0 0 0-.975-2.318v-.007l1.128-1.59a.91.91 0 0 0-.098-1.172l-1.367-1.366a.91.91 0 0 0-1.212-.068L44.55 26.26a8.4 8.4 0 0 0-2.333-.944l-.325-1.933a.91.91 0 0 0-.898-.76h-1.937a.91.91 0 0 0-.906.81l-.216 1.914a8.6 8.6 0 0 0-2.317.975l-1.597-1.135a.91.91 0 0 0-1.172.1l-1.361 1.365a.91.91 0 0 0-.068 1.21l1.198 1.506a8.2 8.2 0 0 0-.952 2.333l-1.926.324a.91.91 0 0 0-.76.899v1.93c0 .464.348.853.809.906l1.9.215c.215.829.545 1.611.982 2.325v.008l-1.126 1.582a.91.91 0 0 0 .098 1.172l1.367 1.367a.91.91 0 0 0 1.21.068l1.505-1.197a8.5 8.5 0 0 0 2.325.944l.326 1.934a.91.91 0 0 0 .898.76h1.937a.91.91 0 0 0 .906-.81l.215-1.915a8.2 8.2 0 0 0 2.318-.974l1.596 1.134a.91.91 0 0 0 1.173-.1l1.362-1.365a.91.91 0 0 0 .068-1.21L47.658 38.2a8.6 8.6 0 0 0 .944-2.34l1.926-.325a.91.91 0 0 0 .76-.898v-1.93a.91.91 0 0 0-.81-.906m-10.341 5.724a3.745 3.745 0 0 1 0-7.49 3.743 3.743 0 0 1 3.737 3.745 3.74 3.74 0 0 1-3.737 3.745"/></svg>