<svg xmlns="http://www.w3.org/2000/svg" width="512" height="512" viewBox="0 0 66 66"><path d="M42.9 17.9c0-.5-.3-.9-.8-1L37 16c-.3-.8-.6-1.6-1.1-2.4l2.8-3.9c.3-.4.2-1-.1-1.3-.1-.1-3.7-3.4-4-3.6s-.6-.3-1-.2c-.2.1-.3.1-.4.2l-3.8 2.4c-.1.1-.2.1-.3.2q-1.2-.6-2.4-.9l-1-4.7c-.1-.5-.5-.8-1-.8h-5.5c-.5 0-.9.4-1 .9l-1 4.6c-.9.3-1.8.6-2.6 1-2.2-1.4-3.4-2.1-4.1-2.5l-.2-.2v.1c-.6-.3-.7-.2-1-.1 0 .1-.2.2-.2.3L5.3 8.6c-.4.4-.4 1 0 1.4.3.4 1.2 1.6 1.9 2.6l.8 1.3c-.4.8-.8 1.6-1 2.4l-5 .9c-.5.1-.8.5-.8 1v5.2c0 .4.2.7.5.9.2.1.3.2.5.1l4.9.9c.2.6.5 1.4 1.1 2.4-1.4 2-2.2 3.1-2.6 3.8-.1 0-.1.1-.2.2-.3.6-.3.7-.1 1 .1.2.2.3.4.4.7.6 3.6 3.3 3.8 3.5.3.2.6.3 1 .2.1 0 .3-.1.4-.2l4.1-2.7q1.2.6 2.4.9l1 4.7c.1.5.5.8 1 .8h5.5c.5 0 .9-.3 1-.8l1-4.7c.9-.3 1.8-.6 2.6-1l4.3 2.7c.4.2.9.2 1.2-.1l3.9-3.7c.4-.3.4-.9.1-1.3l-2.8-3.9c.4-.8.8-1.6 1-2.4l5-.9c.5-.1.8-.5.8-1zM22.1 29.3c-4.9 0-8.8-3.2-9.2-8.5v-.2c0-4.3 3.4-8 8-8.6 5.3-.6 10.3 3.2 10.3 8.6 0 4.8-4.2 8.7-9.1 8.7M64.8 46.7c0-.5-.3-.9-.8-1l-3.7-.7c-.2-.6-.5-1.2-.7-1.7l2.1-3.1c.3-.4.2-.9-.1-1.3-3.1-3-3.4-3.4-4-3.2-.2.1-3.2 2.2-3.3 2.3-.5-.3-1-.5-1.6-.6l-.7-3.7c-.1-.5-.5-.8-1-.8h-4.2c-.5 0-.9.4-1 .9l-.7 3.6c-.6.2-1.2.4-1.7.7-.9-.6-2.9-1.9-3.1-2.1-.5-.3-1.1-.2-1.4.2-.1.1-2.9 3-2.8 2.9-.3.3-.4.9-.1 1.3 0 .1 1.4 2.1 2.1 3.1-.3.6-.5 1.2-.7 1.8l-3.7.7c-.5.1-.8.5-.8 1v4.2c.1.6.2.7.5.9.1.1.3.1.5.1l3.5.7c.2.5.4 1 .7 1.7-.5.7-1.3 1.9-1.7 2.6l-.3.5c-.3.5-.2 1.1.3 1.4l2.9 2.8c.2.2.5.3.7.3h.3c.1 0 .3-.1.4-.2l3-2.1c.5.3 1 .5 1.6.6l.7 3.7c.1.5.5.8 1 .8h4c.5 0 .9-.3 1-.8l.7-3.7c.6-.2 1.2-.4 1.8-.7l3.1 2.1c.4.3.9.2 1.3-.1l2.9-3c.3-.3.4-.9.1-1.3l-2.1-3.1c.3-.6.5-1.2.7-1.8l3.6-.7c.5-.1.8-.5.8-1zm-16 9.8c-3.9 0-7.5-3.2-7.5-7.5 0-3 1.7-5.8 4.4-7 4.8-2 9.7.9 10.6 5.4 1 5-2.9 9.1-7.5 9.1M28 58.8c-9-.2-16.5-6.9-17.9-15.6l1.6 1.6c.4.4 1 .4 1.4 0s.4-1 0-1.4l-3.6-3.5c-.4-.4-1-.4-1.4 0l-3.5 3.6c-.4.4-.4 1 0 1.4s1 .4 1.4 0l2-2c1.3 9.9 9.6 17.7 20 18 .6 0 1-.5 1-1 0-.7-.4-1.1-1-1.1M64 27c-.4-.4-1-.4-1.4 0l-1.9 1.9C61 18.9 54 10 44.1 8c-.5-.1-1.1.3-1.1.9-.1.5.3 1 .8 1.1 8.9 1.8 15.2 9.8 15 18.8L57 27c-.4-.4-1-.4-1.4 0s-.4 1 0 1.4l3.5 3.5c.2.2.4.3.7.3s.5-.1.7-.3l3.5-3.5c.4-.4.4-1 0-1.4"/></svg>