<svg xmlns="http://www.w3.org/2000/svg" data-name="Layer 1" viewBox="0 0 512 512"><path fill-rule="evenodd" d="M221.821 348.349a132.99 132.99 0 0 1-98.791-128.51c0-73.32 59.654-132.972 132.97-132.97s132.972 59.65 132.97 132.97a134 134 0 0 1-2.77 27.055l27.389 15.82c7.124-12.336 16.272-19.038 26.3-19.037a27.948 27.948 0 1 0 0-55.895c-16.4 0-32.542-24.209-38.867-39.467-7.513-18.139-6.851-32.932 1.873-41.65a27.949 27.949 0 0 0-39.53-39.525C353.34 77.164 336 78.11 315.794 69.742c-12.439-5.151-35.952-18.842-35.954-33.794a27.949 27.949 0 0 0-55.9 0c0 16.41-24.207 32.55-39.462 38.871-18.145 7.515-32.933 6.85-41.66-1.867a27.945 27.945 0 0 0-39.518 39.524c11.6 11.6 5.9 40.1-.41 55.339C95.369 185.99 84.436 196 72.113 196a27.949 27.949 0 1 0 0 55.9c16.4 0 32.546 24.21 38.867 39.473 7.514 18.135 6.855 32.923-1.861 41.639a27.946 27.946 0 0 0 39.516 39.527c11.606-11.6 40.1-5.911 55.335.4a64.1 64.1 0 0 1 17.853 10.643v-35.229zm17.324-25.549 26.427 15.255c.412 15.319.1 31.732-.207 47.669-.173 8.639-.346 17.571-.39 26.059a8.66 8.66 0 0 0 4.331 7.557l35.361 20.418a8.66 8.66 0 0 0 12.989-7.362l1.019-63.681 25.1 14.486V504l-104.63-60.4zm8.66-15 104.628-60.4 23.667 13.664-102.419 61.669zm180.466-16.615 28.776 16.615-104.614 60.4L326.1 353l102.168-61.815zm-122.479 53.861a8.67 8.67 0 0 0-4.181 7.277l-1.037 65.066-18.243-10.534c.076-6.843.215-13.912.346-20.8.324-16.2.649-32.879.216-48.643l110.344-66.453 17.907 10.341zM465.709 322.8v120.8L361.093 504V383.2z"/></svg>