<svg xmlns="http://www.w3.org/2000/svg" width="60" height="60" fill="none"><path fill="#282928" fill-rule="evenodd" d="M28.749 52.708c-2.132 0-3.866-1.746-3.866-3.883 0-2.145 1.734-3.891 3.865-3.891s3.866 1.746 3.866 3.89c0 2.138-1.734 3.884-3.865 3.884m0-9.59c-3.13 0-5.676 2.559-5.676 5.707 0 3.14 2.546 5.698 5.676 5.698 3.129 0 5.674-2.558 5.674-5.699 0-3.148-2.546-5.706-5.675-5.706M23.591 4.575c0-.245.21-.46.457-.46h9.168l-4.908 5.668-1.55-1.899a.903.903 0 0 0-1.273-.123.91.91 0 0 0-.126 1.28l2.228 2.726a.898.898 0 0 0 1.382.023l4.932-5.69v7.92c0 .252-.209.459-.456.459h-9.397a.46.46 0 0 1-.457-.46zm.457 11.72h9.397a2.27 2.27 0 0 0 2.266-2.276V4.575a2.3 2.3 0 0 0-.058-.498l2.227-2.574a.91.91 0 0 0-.089-1.279.905.905 0 0 0-1.276.084l-1.972 2.283a2.2 2.2 0 0 0-1.098-.291h-9.397a2.277 2.277 0 0 0-2.266 2.275v9.445a2.27 2.27 0 0 0 2.266 2.274m28.75 5.644c0 .245-.209.46-.456.46h-9.397a.467.467 0 0 1-.456-.46v-9.444c0-.245.208-.46.456-.46h9.168l-4.908 5.668-1.55-1.9a.904.904 0 0 0-1.273-.13.91.91 0 0 0-.126 1.28l2.228 2.734c.169.207.42.33.686.33.027.041.446-.017.696-.307l4.932-5.691zm3.89-13.795a.905.905 0 0 0-1.276.084l-1.973 2.275a2.3 2.3 0 0 0-1.097-.283h-9.397a2.27 2.27 0 0 0-2.266 2.275v9.444a2.27 2.27 0 0 0 2.266 2.275h9.397a2.27 2.27 0 0 0 2.266-2.275v-9.444c0-.17-.022-.337-.058-.498l2.227-2.574a.91.91 0 0 0-.089-1.28M4.9 12.496c0-.245.208-.46.456-.46h9.167l-4.908 5.668-1.548-1.9a.904.904 0 0 0-1.274-.13.913.913 0 0 0-.126 1.28l2.228 2.734c.169.207.42.33.686.33.023.04.442-.014.696-.307l4.932-5.691v7.92c0 .245-.209.46-.456.46H5.355a.467.467 0 0 1-.457-.46zm.456 11.719h9.397a2.27 2.27 0 0 0 2.266-2.275v-9.445c0-.168-.021-.337-.058-.497l2.226-2.574a.91.91 0 0 0-.088-1.28.905.905 0 0 0-1.276.085l-1.973 2.275a2.3 2.3 0 0 0-1.098-.284H5.354a2.27 2.27 0 0 0-2.266 2.276v9.444a2.27 2.27 0 0 0 2.267 2.275m47.182 14.874h-8.63l1.455-2.053 7.125.398c.497.023.872.383.872.827a.83.83 0 0 1-.822.828m-15.758-1.731 3.961 1.654c.467.192.974.046 1.263-.375l6.53-9.207c.161-.237.224-.536.171-.827a1.108 1.108 0 0 0-2.008-.437 2 2 0 0 1-.079.092l-6.12 6.664a.905.905 0 0 1-1.208.115l-5.745-4.335c-1.064-.644-2.736-.996-4.436-.957h-.722c-1.699-.039-3.37.314-4.434.957l-5.745 4.336a.905.905 0 0 1-1.208-.115l-6.12-6.664a1 1 0 0 1-.08-.092 1.1 1.1 0 0 0-.716-.467c-.967-.176-1.68.93-1.113 1.739l6.517 9.191c.299.424.808.572 1.27.383l3.96-1.655c.59-.244 1.251.204 1.251.843v3.094l1.45.314a9 9 0 0 1 1.778-1.034l.694-2.144a1.13 1.13 0 0 1 1.075-.79h3.566c.492 0 .924.315 1.076.79l.694 2.144a9 9 0 0 1 1.777 1.034l1.45-.314V38.2a.912.912 0 0 1 1.25-.842m-.994 10.287a.92.92 0 0 1 .22-.758l1.456-1.624-1.29-2.244-2.13.46a.92.92 0 0 1-.763-.192 7 7 0 0 0-2.025-1.18.9.9 0 0 1-.543-.567l-.672-2.075h-2.58l-.671 2.075a.9.9 0 0 1-.543.567 7 7 0 0 0-2.026 1.18.92.92 0 0 1-.763.191l-2.13-.46-1.29 2.245 1.456 1.624a.92.92 0 0 1 .22.758 7.3 7.3 0 0 0 0 2.351.92.92 0 0 1-.22.759l-1.455 1.624 1.29 2.244 2.13-.452c.269-.061.55.008.762.184.61.506 1.291.904 2.026 1.18.258.1.457.306.543.566l.672 2.084h2.58l.67-2.084a.92.92 0 0 1 .544-.566 7 7 0 0 0 2.026-1.18.89.89 0 0 1 .763-.184l2.13.452 1.289-2.244-1.456-1.624a.91.91 0 0 1-.22-.759 7.3 7.3 0 0 0 0-2.351M4.81 38.263c0-.445.374-.805.872-.828l6.478-.367 1.43 2.022H5.632a.83.83 0 0 1-.822-.827m23.937-17.68a3.67 3.67 0 0 1 3.663 3.677c0 2.168-1.86 3.832-3.918 3.67a3.673 3.673 0 0 1-3.407-3.67 3.67 3.67 0 0 1 3.662-3.676m23.84 15.036-5.984-.337 3.41-4.81c.924-1.314.576-3.171-.736-4.083a2.9 2.9 0 0 0-2.187-.475 2.9 2.9 0 0 0-1.842 1.157l-5.526 6.013-5.128-3.868c-.491-.349-1.444-.717-2.15-.904a5.5 5.5 0 0 0 1.775-4.052c0-3.033-2.454-5.492-5.472-5.492-3.017 0-5.471 2.46-5.471 5.493 0 1.6.685 3.048 1.775 4.051-.704.187-1.66.556-2.15.904l-5.127 3.868-5.527-6.012a2.9 2.9 0 0 0-1.842-1.157 2.9 2.9 0 0 0-2.186.475c-1.325.92-1.655 2.758-.73 4.098l3.429 4.833-5.337.3C4.134 35.696 3 36.86 3 38.262a2.64 2.64 0 0 0 2.631 2.642h10.532c.427.03.865-.038 1.285-.215l2.711-1.126v1.908q-.087.091-.154.206l-1.783 3.103c-.245.428-.19.965.139 1.332l1.504 1.678a9 9 0 0 0 0 2.06L18.36 51.53a1.15 1.15 0 0 0-.139 1.332l1.783 3.103a1.13 1.13 0 0 0 1.215.543l2.198-.474a8.6 8.6 0 0 0 1.778 1.033l.694 2.153c.152.467.584.781 1.076.781h3.565c.492 0 .925-.314 1.076-.782l.693-2.152a9 9 0 0 0 1.78-1.026l2.196.467c.48.1.97-.115 1.216-.544l1.783-3.102a1.15 1.15 0 0 0-.14-1.333l-1.504-1.677c.08-.682.078-1.38 0-2.06l1.504-1.678c.329-.368.385-.904.139-1.333l-1.783-3.102a1 1 0 0 0-.154-.207v-1.907l2.71 1.126c.477.199.977.26 1.457.199q.074.014.15.015h10.883a2.64 2.64 0 0 0 2.63-2.643c.001-1.401-1.133-2.566-2.58-2.642" clip-rule="evenodd"/></svg>