<svg xmlns="http://www.w3.org/2000/svg" width="60" height="60" fill="none"><g clip-path="url(#a)"><path fill="#282928" d="M36.68 60H13.945c-5.17 0-9.375-4.206-9.375-9.375V9.375C4.57 4.205 8.776 0 13.945 0H36.68c5.17 0 9.375 4.205 9.375 9.375v3.647a2.344 2.344 0 1 1-4.688 0V9.375a4.693 4.693 0 0 0-4.687-4.687H13.945a4.693 4.693 0 0 0-4.687 4.687v41.25a4.693 4.693 0 0 0 4.687 4.688H36.68a4.693 4.693 0 0 0 4.687-4.688v-4.439a2.344 2.344 0 1 1 4.688 0v4.439c0 5.17-4.206 9.375-9.375 9.375m-9.024-10.65a2.344 2.344 0 1 0-4.687 0 2.344 2.344 0 0 0 4.687 0M30 10.678a2.344 2.344 0 0 0-2.344-2.344H22.97a2.344 2.344 0 1 0 0 4.688h4.687A2.344 2.344 0 0 0 30 10.678m3.197 31.055c1.065 0 2.116-.701 2.405-1.717l5.323-18.726c.428-1.503-.712-2.995-2.286-2.995a2.37 2.37 0 0 0-2.288 1.717L31.029 38.74c-.427 1.503.595 2.994 2.17 2.994m-6.089-2.83a2.343 2.343 0 0 0-.29-3.302l-5.796-4.86a.8.8 0 0 1-.28-.61c0-.138.037-.4.28-.61l5.796-4.86a2.344 2.344 0 1 0-3.012-3.591l-5.803 4.866-.012.01a5.48 5.48 0 0 0-1.936 4.185c0 1.615.706 3.141 1.936 4.186l.012.01 5.804 4.866a2.339 2.339 0 0 0 3.302-.29m20.588.275 5.68-4.86a5.48 5.48 0 0 0 1.937-4.187c0-1.615-.706-3.14-1.93-4.18l-5.687-4.866a2.344 2.344 0 1 0-3.048 3.561l5.693 4.872c.247.21.284.474.284.613a.8.8 0 0 1-.29.619l-5.687 4.866a2.343 2.343 0 1 0 3.048 3.562"/></g><defs><clipPath id="a"><path fill="#fff" d="M0 0h60v60H0z"/></clipPath></defs></svg>