<svg xmlns="http://www.w3.org/2000/svg" width="60" height="60" fill="none"><path fill="#282928" d="M60 31.967a8.48 8.48 0 0 0-7.708-8.442c-.548-5.345-5.063-9.515-10.553-9.515-.609 0-1.204.054-1.785.153A11.9 11.9 0 0 0 30 8.793a11.9 11.9 0 0 0-9.954 5.37 10.7 10.7 0 0 0-1.785-.153c-5.49 0-10.005 4.17-10.553 9.515a8.478 8.478 0 0 0-3.745 15.619c1.24-5.822 6.421-10.203 12.607-10.203h26.86c6.186 0 11.367 4.38 12.607 10.203A8.47 8.47 0 0 0 60 31.967"/><path fill="#282928" d="M25.606 38.316c-.647 0-1.172.526-1.172 1.172v1.172h2.343v-1.172c0-.646-.525-1.172-1.172-1.172M34.395 38.316c-.647 0-1.172.526-1.172 1.172v1.172h2.343v-1.172c0-.646-.525-1.172-1.172-1.172"/><path fill="#282928" d="M43.43 32.457H16.57c-5.17 0-9.375 4.206-9.375 9.375 0 5.17 4.206 9.375 9.375 9.375h26.86c5.169 0 9.374-4.206 9.374-9.375 0-5.17-4.205-9.375-9.375-9.375M20.266 44.694c-.31 1.737-1.97 2.997-3.945 2.997-1.583 0-3.129-.663-4.136-1.774l1.737-1.574c.57.629 1.467 1.004 2.399 1.004.906 0 1.544-.541 1.637-1.065.125-.697-.818-1.125-1.229-1.277a51 51 0 0 1-2.8-1.135l-.084-.038-.078-.05a2.98 2.98 0 0 1-1.329-2.95c.18-1.253 1.096-2.273 2.39-2.663 2.56-.771 4.67.968 4.758 1.042l-.754.897-.747.903c-.013-.01-1.247-1-2.581-.598-.602.182-.722.586-.746.752a.65.65 0 0 0 .23.61c.329.144 1.4.606 2.552 1.031 2.366.873 2.96 2.58 2.726 3.888m8.854 2.997h-2.344v-4.687h-2.344v4.687H22.09v-8.203a3.52 3.52 0 0 1 3.515-3.515 3.52 3.52 0 0 1 3.516 3.515zm8.789 0h-2.344v-4.687h-2.344v4.687H30.88v-8.203a3.52 3.52 0 0 1 3.515-3.515 3.52 3.52 0 0 1 3.516 3.515zm4.295-7.916c.329.144 1.4.607 2.553 1.032 2.365.872 2.958 2.58 2.725 3.887-.31 1.737-1.97 2.997-3.945 2.997-1.583 0-3.128-.663-4.135-1.774l1.736-1.574c.57.63 1.467 1.005 2.399 1.005.906 0 1.544-.542 1.638-1.066.124-.697-.818-1.125-1.23-1.277a51 51 0 0 1-2.799-1.135l-.085-.038-.077-.05a2.98 2.98 0 0 1-1.33-2.95c.18-1.252 1.096-2.273 2.39-2.663 2.561-.77 4.67.968 4.758 1.042l-.754.897-.747.903c-.013-.01-1.247-1-2.58-.597-.603.18-.723.585-.747.75a.65.65 0 0 0 .23.611"/></svg>