<svg xmlns="http://www.w3.org/2000/svg" width="60" height="60" fill="none"><g fill="#282928" clip-path="url(#a)"><path d="M25.781 50.625a2.344 2.344 0 0 0-2.343 2.344v2.343H4.688v-18.28H7.03a2.344 2.344 0 1 0 0-4.688H2.344A2.344 2.344 0 0 0 0 34.687v22.97A2.344 2.344 0 0 0 2.344 60H25.78a2.344 2.344 0 0 0 2.344-2.344V52.97a2.344 2.344 0 0 0-2.344-2.344"/><path d="M57.656 0h-41.25a2.344 2.344 0 0 0-2.343 2.344v41.25a2.344 2.344 0 0 0 2.343 2.343h41.25A2.344 2.344 0 0 0 60 43.595V2.344A2.344 2.344 0 0 0 57.656 0m-2.343 41.25H18.75V4.688h36.563z"/><path d="M25.313 37.031h7.03a2.344 2.344 0 1 0 0-4.687h-1.372l15.435-15.436v1.373a2.344 2.344 0 1 0 4.688 0V11.25a2.35 2.35 0 0 0-2.341-2.344h-7.034a2.344 2.344 0 1 0 0 4.688h1.373L27.656 29.029v-1.373a2.344 2.344 0 1 0-4.687 0v7.042a2.347 2.347 0 0 0 2.343 2.333"/></g><defs><clipPath id="a"><path fill="#fff" d="M0 0h60v60H0z"/></clipPath></defs></svg>