<svg xmlns="http://www.w3.org/2000/svg" width="60" height="60" fill="none"><g fill="#282928" clip-path="url(#a)"><path d="M30 8.79a1.172 1.172 0 1 0 0-2.345 1.172 1.172 0 0 0 0 2.344M52.383 23.438a1.172 1.172 0 1 0 0-2.344 1.172 1.172 0 0 0 0 2.343M44.18 53.555a1.172 1.172 0 1 0 0-2.344 1.172 1.172 0 0 0 0 2.344M15.82 53.555a1.172 1.172 0 1 0 0-2.344 1.172 1.172 0 0 0 0 2.344M7.617 23.438a1.172 1.172 0 1 0 0-2.344 1.172 1.172 0 0 0 0 2.343"/><path d="M57.625 27.784A7.6 7.6 0 0 0 60 22.266c0-4.2-3.417-7.618-7.617-7.618q-.251.001-.498.018a28 28 0 0 0-14.72-9.636C36.102 2.1 33.291 0 30 0s-6.103 2.1-7.164 5.03a28 28 0 0 0-14.721 9.636 8 8 0 0 0-.498-.018c-4.2 0-7.617 3.418-7.617 7.618 0 2.17.914 4.13 2.375 5.518a28 28 0 0 0-.324 4.267 27.92 27.92 0 0 0 6.533 17.958 7.6 7.6 0 0 0-.38 2.374c0 4.2 3.416 7.617 7.616 7.617 1.781 0 3.42-.616 4.719-1.644 1.288.463 2.616.834 3.957 1.101.56.137 1.272-.296 1.379-.918a1.174 1.174 0 0 0-.92-1.38 26 26 0 0 1-2.702-.696l-.002-.006c.419-.658.74-1.383.942-2.157a23.3 23.3 0 0 0 6.805 1.013h.004c2.318 0 4.607-.342 6.804-1.013h.001c.202.775.524 1.501.944 2.16l-.004.003c-.906.287-1.837.525-2.769.71a1.173 1.173 0 0 0-.922 1.375c.122.59.723 1.058 1.376.924a28 28 0 0 0 4.03-1.116A7.58 7.58 0 0 0 44.18 60c4.2 0 7.617-3.417 7.617-7.617 0-.829-.135-1.626-.38-2.374a27.92 27.92 0 0 0 6.532-17.958c0-1.43-.109-2.862-.324-4.267m.031-5.518a5.28 5.28 0 0 1-5.273 5.273 5.28 5.28 0 0 1-5.274-5.273 5.28 5.28 0 0 1 5.274-5.274 5.28 5.28 0 0 1 5.273 5.274M49.35 15.28a7.6 7.6 0 0 0-2 1.276 23.46 23.46 0 0 0-10.097-6.612 7.6 7.6 0 0 0 .365-2.327V7.6a25.7 25.7 0 0 1 11.732 7.681M30 2.344a5.28 5.28 0 0 1 5.273 5.273A5.28 5.28 0 0 1 30 12.891a5.28 5.28 0 0 1-5.273-5.274A5.28 5.28 0 0 1 30 2.344m-7.617 5.255v.018c0 .811.129 1.593.365 2.327a23.46 23.46 0 0 0-10.097 6.612 7.6 7.6 0 0 0-2-1.276A25.7 25.7 0 0 1 22.383 7.6M7.617 16.992a5.28 5.28 0 0 1 5.274 5.274 5.28 5.28 0 0 1-5.274 5.273 5.28 5.28 0 0 1-5.273-5.273 5.28 5.28 0 0 1 5.273-5.274M4.395 32.051c0-.941.051-1.883.153-2.816a7.6 7.6 0 0 0 2.294.609q-.104 1.1-.104 2.207a23.26 23.26 0 0 0 4.744 14.076 7.7 7.7 0 0 0-1.706 1.628 25.58 25.58 0 0 1-5.381-15.704m6.152 20.332a5.28 5.28 0 0 1 5.273-5.274 5.28 5.28 0 0 1 5.274 5.274 5.28 5.28 0 0 1-5.274 5.273 5.28 5.28 0 0 1-5.273-5.273M30 52.969c-2.254 0-4.464-.356-6.578-1.057-.245-3.981-3.56-7.146-7.602-7.146-.757 0-1.488.112-2.18.32a20.9 20.9 0 0 1-4.428-15.372c3.437-.735 6.022-3.795 6.022-7.448 0-1.418-.39-2.746-1.068-3.884a21.1 21.1 0 0 1 9.654-6.32A7.61 7.61 0 0 0 30 15.233a7.61 7.61 0 0 0 6.18-3.173 21.1 21.1 0 0 1 9.654 6.32 7.57 7.57 0 0 0-1.068 3.885c0 3.653 2.585 6.713 6.023 7.448a20.912 20.912 0 0 1-4.429 15.371 7.6 7.6 0 0 0-2.18-.32c-4.042 0-7.358 3.166-7.602 7.147A20.9 20.9 0 0 1 30 52.97m14.18 4.687a5.28 5.28 0 0 1-5.274-5.273 5.28 5.28 0 0 1 5.274-5.274 5.28 5.28 0 0 1 5.273 5.274 5.28 5.28 0 0 1-5.273 5.273m4.338-11.529a23.26 23.26 0 0 0 4.64-16.283 7.6 7.6 0 0 0 2.294-.61c.102.934.154 1.876.154 2.817 0 5.709-1.901 11.225-5.382 15.704a7.7 7.7 0 0 0-1.706-1.628"/><path d="M29.966 57.656h-.002c-.645 0-1.17.525-1.171 1.171A1.174 1.174 0 0 0 29.961 60h.003c.645 0 1.172-.525 1.173-1.17a1.173 1.173 0 0 0-1.171-1.174M41.719 32.227c0-6.462-5.257-11.72-11.719-11.72s-11.719 5.258-11.719 11.72c0 6.461 5.257 11.718 11.719 11.718s11.719-5.257 11.719-11.718m-21.094 0c0-5.17 4.206-9.375 9.375-9.375 5.17 0 9.375 4.205 9.375 9.375 0 5.169-4.206 9.375-9.375 9.375-5.17 0-9.375-4.206-9.375-9.375"/><path d="M34.688 34.57c0-.647-.525-1.172-1.172-1.172h-7.032a1.172 1.172 0 0 0 0 2.344h7.032c.647 0 1.172-.525 1.172-1.172M26.484 31.055h7.032a1.172 1.172 0 0 0 0-2.344h-7.032a1.172 1.172 0 0 0 0 2.344"/></g><defs><clipPath id="a"><path fill="#fff" d="M0 0h60v60H0z"/></clipPath></defs></svg>