<svg xmlns="http://www.w3.org/2000/svg" width="60" height="60" fill="none"><path fill="#282928" d="M40.837 53.953a2.84 2.84 0 0 1-2.447 1.36H21.61a2.84 2.84 0 0 1-2.448-1.36 2.76 2.76 0 0 1-.103-2.719l1.744-3.422h18.394l1.743 3.422c.45.872.404 1.885-.103 2.72M29.063 9.375H8.438c-1.036 0-1.876.84-1.876 1.875v9.375c0 1.035.84 1.875 1.875 1.875h20.626c1.035 0 1.875-.84 1.875-1.875V11.25c0-1.036-.84-1.875-1.875-1.875M15.938 24.375h-7.5c-1.036 0-1.876.84-1.876 1.875v7.5c0 1.035.84 1.875 1.875 1.875h7.5c1.036 0 1.876-.84 1.876-1.875v-7.5c0-1.035-.84-1.875-1.875-1.875M29.063 24.375h-7.5c-1.036 0-1.875.84-1.875 1.875v7.5c0 1.035.839 1.875 1.875 1.875h7.5c1.035 0 1.875-.84 1.875-1.875v-7.5c0-1.035-.84-1.875-1.875-1.875M52.5 35.625H38.438a.94.94 0 0 1-.938-.937.94.94 0 0 1 .938-.938H52.5a.94.94 0 0 1 .938.938.94.94 0 0 1-.938.937M52.5 30.938H38.438A.94.94 0 0 1 37.5 30a.94.94 0 0 1 .938-.937H52.5a.94.94 0 0 1 .938.937.94.94 0 0 1-.938.938M52.5 26.25H38.438a.94.94 0 0 1-.938-.937.94.94 0 0 1 .938-.938H52.5a.94.94 0 0 1 .938.938.94.94 0 0 1-.938.937"/><path fill="#282928" d="M53.438 4.688H6.563a4.69 4.69 0 0 0-4.688 4.687V41.25a4.69 4.69 0 0 0 4.688 4.688h46.875a4.69 4.69 0 0 0 4.687-4.688V9.375a4.69 4.69 0 0 0-4.687-4.687M3.75 38.438V9.375a2.82 2.82 0 0 1 2.813-2.812h26.25v31.875zm52.5 0H34.688V6.561h18.75a2.82 2.82 0 0 1 2.812 2.813z"/><path fill="#282928" d="M49.687 19.689a.94.94 0 0 1-.75-1.5L51.327 15l-2.39-3.187a.94.94 0 0 1 .187-1.313.94.94 0 0 1 1.313.188l2.812 3.75a.93.93 0 0 1 0 1.124l-2.812 3.75a.95.95 0 0 1-.75.376M40.31 19.689a.95.95 0 0 1-.75-.375l-2.812-3.75a.93.93 0 0 1 0-1.126l2.813-3.75a.94.94 0 0 1 1.312-.187c.413.31.497.9.188 1.313L38.67 15l2.39 3.188a.94.94 0 0 1-.75 1.5M44.062 19.688c-.075 0-.15 0-.225-.028a.937.937 0 0 1-.685-1.134l1.875-7.5a.937.937 0 0 1 1.819.45l-1.875 7.5a.93.93 0 0 1-.91.712"/></svg>