<svg width="60" height="60" viewBox="0 0 60 60" fill="none" xmlns="http://www.w3.org/2000/svg">
<path d="M47.8045 25.1733H50.7278C51.2659 25.1733 51.7022 24.741 51.7022 24.2078V21.3112C51.7022 20.778 51.2659 20.3457 50.7278 20.3457C50.1897 20.3457 49.7534 20.778 49.7534 21.3112V23.2423H47.8045C47.2664 23.2423 46.8301 23.6746 46.8301 24.2078C46.8301 24.741 47.2664 25.1733 47.8045 25.1733Z" fill="#282928"/>
<path d="M24.8821 21.3101C27.0346 21.3101 28.7798 19.5808 28.7798 17.448C28.7798 15.3152 27.0346 13.5859 24.8821 13.5859C22.7291 13.5859 20.9844 15.3152 20.9844 17.448C20.9844 19.5808 22.7291 21.3101 24.8821 21.3101ZM24.8821 15.517C25.9583 15.517 26.8309 16.3816 26.8309 17.448C26.8309 18.5144 25.9583 19.379 24.8821 19.379C23.8054 19.379 22.9332 18.5144 22.9332 17.448C22.9332 16.3816 23.8054 15.517 24.8821 15.517Z" fill="#282928"/>
<path d="M3.59651 20.9904C4.00902 21.2016 4.46721 21.3115 4.93159 21.311C6.17198 21.311 7.27535 20.5308 7.6793 19.3682L15.3424 19.2508L14.0054 20.3455C13.6372 20.6453 13.542 21.1649 13.7804 21.5736L15.6013 24.6903L15.6412 29.0352H10.7781C10.721 29.0408 10.6644 29.0521 10.6092 29.0691C10.1491 27.7269 8.77648 26.9118 7.3648 27.1428C5.95359 27.3738 4.91827 28.583 4.91827 30.0007C4.91827 31.4183 5.95359 32.6276 7.3648 32.8586C8.77648 33.0896 10.1491 32.2744 10.6092 30.9322C10.6644 30.9492 10.721 30.9605 10.7781 30.9662H16.6247C16.8845 30.9662 17.1338 30.8634 17.3165 30.6805C17.4997 30.4976 17.6015 30.2496 17.5991 29.9922L17.5544 25.0986L20.6723 23.9403C20.884 24.076 21.0991 24.2 21.3165 24.3127L21.974 28.2271C22.0525 28.6924 22.4593 29.0337 22.9361 29.0333H23.4457V33.8609H20.5224C19.9843 33.8609 19.548 34.2932 19.548 34.8264V48.9112L11.0636 57.318C10.7848 57.5943 10.7015 58.0096 10.8524 58.3703C11.0032 58.7309 11.3586 58.9662 11.7526 58.9662H42.9342C43.3281 58.9662 43.6835 58.7309 43.8339 58.3703C43.9847 58.0096 43.9015 57.5943 43.6231 57.318L37.0876 50.8423V45.7163L39.2691 42.1158C42.9499 44.3165 45.1752 45.4489 45.8574 45.4489H51.704C52.2421 45.4489 52.6784 45.0166 52.6784 44.4834V39.0901L54.3408 37.4429C54.5231 37.2614 54.6263 37.0158 54.6273 36.7593V33.8627H56.0508C56.7103 33.8627 57.3255 33.5323 57.6852 32.984C58.0444 32.4362 58.1001 31.745 57.8322 31.1477L54.8024 24.3891C55.9524 23.0323 56.5804 21.3167 56.5761 19.545C56.598 13.1546 52.9511 7.30819 47.173 4.46963L44.3468 3.06755C43.9181 2.85587 43.3976 2.98411 43.1193 3.37069L42.711 3.93171H36.1132V2.00067C36.1132 1.46747 35.6769 1.03516 35.1388 1.03516H25.3945C24.8564 1.03516 24.4201 1.46747 24.4201 2.00067V5.86274H22.9332C22.4565 5.86227 22.0492 6.20407 21.9712 6.66985L21.3136 10.5833C21.0962 10.696 20.8807 10.8195 20.6694 10.9558L16.9168 9.56263C16.471 9.39669 15.9695 9.57489 15.7312 9.98363L14.7486 11.6705C14.7234 11.6705 14.703 11.6558 14.6777 11.6558H8.82929V8.58156C10.1715 8.11153 10.9765 6.75141 10.7358 5.36113C10.495 3.97037 9.27844 2.9544 7.85486 2.9544C6.43081 2.9544 5.21421 3.97037 4.97346 5.36113C4.73271 6.75141 5.53822 8.11153 6.88044 8.58156V12.6214C6.88044 13.1546 7.31674 13.5869 7.85486 13.5869H13.6867C13.5972 13.9428 13.7209 14.3176 14.0054 14.5524L17.0962 17.0742C17.0962 17.1449 17.0962 17.217 17.0905 17.2887L7.67549 17.4324C7.233 16.2086 6.02115 15.4265 4.71225 15.5207C3.40334 15.6146 2.31805 16.5612 2.05827 17.8355C1.79801 19.1103 2.42701 20.4002 3.59651 20.9904ZM7.85486 30.9662C7.31674 30.9662 6.88044 30.5339 6.88044 30.0007C6.88044 29.4675 7.31674 29.0352 7.85486 29.0352C8.39299 29.0352 8.82929 29.4675 8.82929 30.0007C8.82929 30.5339 8.39299 30.9662 7.85486 30.9662ZM7.85486 4.89723C8.39299 4.89723 8.82929 5.32954 8.82929 5.86274C8.82929 6.39595 8.39299 6.82826 7.85486 6.82826C7.31674 6.82826 6.88044 6.39595 6.88044 5.86274C6.88044 5.32954 7.31674 4.89723 7.85486 4.89723ZM25.3945 29.0352H26.8309C27.3067 29.0352 27.7131 28.6943 27.7916 28.229L28.4501 24.3146C28.6665 24.2029 28.8821 24.0784 29.0933 23.9421L32.8478 25.3353C33.2936 25.5012 33.7951 25.323 34.0335 24.9143L34.446 24.2076H39.0365C39.1083 24.2019 39.1792 24.1878 39.2477 24.1651L40.9853 26.4601V28.0696H37.0876V30.0007H39.3357L36.726 31.0345C36.3558 31.1812 36.1127 31.5366 36.1132 31.9317V33.8627H25.3945V29.0352ZM35.9824 13.3281L35.5713 12.6214H38.062V16.4834H33.3955L35.7583 14.5524C36.1241 14.2526 36.2183 13.7359 35.9824 13.3281ZM38.062 18.4145V22.2765H35.5713L35.9824 21.5698C36.2183 21.162 36.1241 20.6453 35.7583 20.3455L33.3955 18.4145H38.062ZM31.5265 42.2695L35.1388 45.8487V46.4145H29.2922V35.7938H31.2411V41.5869C31.2411 41.8429 31.3438 42.0885 31.5265 42.2695ZM25.3498 55.1041H25.3945V55.0541L29.0515 50.913C29.2071 50.7367 29.2922 50.5104 29.2922 50.2765V48.3455H31.2411V57.0352H23.6403L25.3498 55.1041ZM14.1049 57.0352L21.2113 49.9937C21.394 49.8126 21.4968 49.567 21.4968 49.311V35.7938H27.3434V49.9135L25.3945 52.1208V47.38H23.4457V54.3319L21.0543 57.0352H14.1049ZM40.5818 57.0352H33.1899V48.3455H35.1388V51.2421C35.1388 51.498 35.2415 51.7437 35.4242 51.9247L40.5818 57.0352ZM35.9181 43.8927L33.1899 41.189V35.7938H36.1132V39.6558C36.1132 39.9887 36.2864 40.298 36.5709 40.4747C36.9344 40.7006 37.2627 40.8995 37.6058 41.1088L35.9181 43.8927ZM44.2174 5.16359L46.3009 6.197C51.4171 8.70979 54.6463 13.8867 54.6273 19.545C54.6316 21.0385 54.0325 22.4717 52.9639 23.5249C52.6789 23.8073 52.5985 24.2344 52.7622 24.5993L56.0508 31.9317H53.6528C53.1147 31.9317 52.6784 32.364 52.6784 32.8972V35.7938H52.5109C51.0036 35.798 49.5577 35.2045 48.4952 34.1456C48.1127 33.7798 47.5051 33.785 47.1292 34.1574C46.7534 34.5298 46.7481 35.1319 47.1173 35.5109C48.2721 36.6589 49.7718 37.4042 51.3909 37.6352L51.015 38.0077C50.8323 38.1887 50.7296 38.4343 50.7296 38.6903V43.5179L45.9497 43.5236C43.6988 42.4921 41.5249 41.3012 39.4457 39.9609L39.4409 39.9562H39.4347C38.976 39.6799 38.516 39.3999 38.062 39.1208V32.5851L42.3213 30.8978C42.6915 30.7512 42.9342 30.3957 42.9342 30.0007V26.1386C42.9342 25.9298 42.8657 25.7266 42.7391 25.5592L40.0109 21.955V10.9991L44.2174 5.16359ZM26.3689 2.96619H34.1643V4.89723C34.1643 5.43043 34.6006 5.86274 35.1388 5.86274H41.3193L38.2443 10.1293C38.1253 10.2929 38.0616 10.489 38.062 10.6903H34.446L34.0335 9.98363C33.7951 9.57489 33.2936 9.39669 32.8478 9.56263L29.0971 10.9558C28.8859 10.8195 28.6704 10.695 28.4539 10.5833L27.7916 6.66891C27.7131 6.2036 27.3067 5.86274 26.8309 5.86274H26.3689V2.96619ZM15.881 13.5869L17.0044 11.6558L20.4648 12.941C20.7755 13.056 21.1238 13.007 21.3893 12.8104C21.7561 12.5365 22.1544 12.3064 22.5754 12.1249C22.8804 11.9953 23.0979 11.7204 23.1521 11.3961L23.7583 7.79378H26.0054L26.6116 11.397C26.6658 11.7214 26.8833 11.9962 27.1883 12.1259C27.6093 12.3079 28.0071 12.5379 28.3744 12.8114C28.6399 13.0079 28.9877 13.057 29.2979 12.9419L32.7593 11.6558L33.8817 13.5869L31.0312 15.9111C30.7753 16.1199 30.6439 16.4443 30.6834 16.771C30.7434 17.2217 30.7434 17.6781 30.6834 18.1288C30.6439 18.4555 30.7753 18.7798 31.0312 18.9892L33.8817 21.311L32.7593 23.2421L29.2979 21.9569C28.9877 21.8419 28.6399 21.8909 28.3744 22.0875C28.0071 22.3609 27.6093 22.591 27.1883 22.773C26.8833 22.9026 26.6658 23.1775 26.6116 23.5018L26.0054 27.1041H23.7573L23.1531 23.5009C23.0988 23.1765 22.8814 22.9017 22.5764 22.772C22.1553 22.5905 21.7571 22.3605 21.3907 22.0865C21.1247 21.89 20.7765 21.8404 20.4658 21.956L17.0044 23.2421L15.881 21.311L18.7315 18.9868C18.7486 18.9703 18.7653 18.9524 18.781 18.934C18.8 18.9161 18.8176 18.8977 18.8348 18.8779C18.908 18.7996 18.967 18.7096 19.0098 18.6115L19.016 18.6007C19.0565 18.4946 19.0779 18.3815 19.0784 18.2678C19.0817 18.2542 19.0845 18.24 19.086 18.2264C19.086 18.2146 19.0803 18.2051 19.0793 18.1934C19.0784 18.1816 19.0793 18.149 19.0793 18.1269C19.0194 17.6762 19.0194 17.2198 19.0793 16.7691C19.1183 16.4424 18.987 16.1181 18.7306 15.9087L15.881 13.5869ZM4.06517 17.9732C4.18126 17.7427 4.3868 17.5687 4.63422 17.4904C5.13285 17.3646 5.64433 17.6446 5.80229 18.1302C5.96025 18.6153 5.70951 19.1386 5.23086 19.3248C4.71843 19.4879 4.16937 19.2088 4.00474 18.7011C3.92719 18.4602 3.9486 18.1985 4.06517 17.9732Z" fill="#282928"/>
<path d="M23.4453 39.6562H25.3942V41.5873H23.4453V39.6562Z" fill="#282928"/>
<path d="M23.4453 43.5176H25.3942V45.4486H23.4453V43.5176Z" fill="#282928"/>
<path d="M29.291 28.0703H31.2399V30.0013H29.291V28.0703Z" fill="#282928"/>
<path d="M33.1895 28.0703H35.1383V30.0013H33.1895V28.0703Z" fill="#282928"/>
<path d="M41.959 10.6895H43.9078V14.5515H41.959V10.6895Z" fill="#282928"/>
<path d="M41.959 16.4844H43.9078V18.4154H41.959V16.4844Z" fill="#282928"/>
<path d="M41.959 20.3457H43.9078V22.2767H41.959V20.3457Z" fill="#282928"/>
</svg>
