<svg width="60" height="60" viewBox="0 0 60 60" fill="none" xmlns="http://www.w3.org/2000/svg">
<g clip-path="url(#clip0_2269_397)">
<path d="M32.7883 37.1657C32.7883 36.6786 32.3934 36.2836 31.9061 36.2836H24.8241L24.8228 24.244L36.8623 24.2429L36.8636 36.2836H28.6653C28.1781 36.2836 27.7832 36.6786 27.7832 37.1657C27.7832 37.6529 28.1781 38.0479 28.6653 38.0479H37.7444C37.9724 38.0479 38.1929 37.9581 38.3573 37.8002C38.5303 37.6339 38.6281 37.4042 38.6281 37.1642L38.6265 23.3605C38.6265 22.8733 38.2316 22.4784 37.7443 22.4785L23.9406 22.4799C23.7067 22.4799 23.4824 22.573 23.3169 22.7383C23.1514 22.9037 23.0586 23.1281 23.0586 23.3622L23.0601 37.1659C23.0601 37.653 23.4551 38.0479 23.9422 38.0479H31.9063C32.3934 38.0479 32.7883 37.6529 32.7883 37.1657Z" fill="#282928"/>
<path d="M55.8148 22.6473C55.8148 18.3254 52.5484 14.754 48.355 14.267V13.5639C48.355 6.08479 42.2703 0 34.7911 0C32.0283 0 29.3699 0.825772 27.1031 2.38781C25.0563 3.79836 23.4526 5.71854 22.4345 7.96556H13.8414C11.2215 7.96556 9.09009 10.0971 9.09009 12.717C9.09009 13.889 9.5175 14.9626 10.2237 15.792C6.58161 16.3507 3.7832 19.5053 3.7832 23.3012C3.7832 27.4903 7.19132 30.8983 11.3803 30.8983H14.1596C14.6469 30.8983 15.0417 30.5033 15.0417 30.0162C15.0417 29.529 14.6469 29.1341 14.1596 29.1341H11.3802C8.16387 29.1341 5.5473 26.5174 5.5473 23.3012C5.5473 20.085 8.16387 17.4683 11.3802 17.4683H13.9953C14.4826 17.4683 14.8774 17.0734 14.8774 16.5862C14.8774 16.0991 14.4826 15.7041 13.9953 15.7041H13.8412C12.1942 15.7041 10.8542 14.3641 10.8542 12.7171C10.8542 11.07 12.1943 9.7299 13.8412 9.7299H25.6623C26.1496 9.7299 26.5444 9.33495 26.5444 8.84779C26.5444 8.36063 26.1496 7.96568 25.6623 7.96568H24.3994C26.4415 4.15909 30.3897 1.76422 34.7912 1.76422C41.2975 1.76422 46.5908 7.05758 46.5908 13.5639V14.2084H43.3576C42.8703 14.2084 42.4754 14.6034 42.4754 15.0905C42.4754 15.5777 42.8703 15.9726 43.3576 15.9726H47.376C51.0564 15.9726 54.0506 18.9669 54.0506 22.6473C54.0506 26.3277 51.0564 29.3219 47.376 29.3219H47.2593C46.772 29.3219 46.3772 29.7168 46.3772 30.204C46.3772 30.6912 46.772 31.0861 47.2593 31.0861H47.376C52.0293 31.0862 55.8148 27.3006 55.8148 22.6473Z" fill="#282928"/>
<path d="M30.6095 9.72906C31.0968 9.72906 31.4917 9.33411 31.4917 8.84695C31.4917 8.35979 31.0968 7.96484 30.6095 7.96484H29.4212C28.9339 7.96484 28.5391 8.35979 28.5391 8.84695C28.5391 9.33411 28.9339 9.72906 29.4212 9.72906H30.6095Z" fill="#282928"/>
<path d="M30.9016 57.1719C30.4144 57.1719 30.0195 57.5668 30.0195 58.054V59.1177C30.0195 59.6049 30.4144 59.9998 30.9016 59.9998C31.3889 59.9998 31.7837 59.6049 31.7837 59.1177V58.054C31.7837 57.5668 31.3888 57.1719 30.9016 57.1719Z" fill="#282928"/>
<path d="M42.171 52.0142C41.5519 52.0142 40.9722 52.1856 40.4761 52.4828L37.6419 49.6488V41.5762H37.743C40.1759 41.5762 42.1551 39.597 42.1551 37.1642V36.9455H43.7306C44.2178 36.9455 44.6127 36.5505 44.6127 36.0634C44.6127 35.5762 44.2178 35.1813 43.7306 35.1813H42.1551V31.0865H43.7306C44.2178 31.0865 44.6127 30.6916 44.6127 30.2044C44.6127 29.7172 44.2178 29.3223 43.7306 29.3223H42.1551V25.2272H43.7306C44.2178 25.2272 44.6127 24.8322 44.6127 24.3451C44.6127 23.8579 44.2178 23.463 43.7306 23.463H42.1551V23.3617C42.1551 20.929 40.1759 18.9497 37.743 18.9497H37.5243V17.3743C37.5243 16.8871 37.1295 16.4922 36.6422 16.4922C36.1549 16.4922 35.7601 16.8871 35.7601 17.3743V18.9497H31.6653V17.3743C31.6653 16.8871 31.2705 16.4922 30.7832 16.4922C30.2959 16.4922 29.9011 16.8871 29.9011 17.3743V18.9497H25.8063V17.3743C25.8063 16.8871 25.4115 16.4922 24.9242 16.4922C24.437 16.4922 24.0421 16.8871 24.0421 17.3743V18.9497H23.941C21.5081 18.9497 19.5289 20.929 19.5289 23.3617V23.5806H17.9535C17.4662 23.5806 17.0714 23.9755 17.0714 24.4627C17.0714 24.9499 17.4662 25.3448 17.9535 25.3448H19.5289V29.4395H17.9535C17.4662 29.4395 17.0714 29.8345 17.0714 30.3217C17.0714 30.8088 17.4662 31.2038 17.9535 31.2038H19.5289V35.2985H17.9535C17.4662 35.2985 17.0714 35.6935 17.0714 36.1806C17.0714 36.6678 17.4662 37.0627 17.9535 37.0627H19.5289V37.1639C19.5289 39.5966 21.5081 41.5758 23.941 41.5758H24.1597V49.6484L21.3256 52.4825C20.8295 52.1853 20.2498 52.0139 19.6306 52.0139C17.8063 52.0139 16.3223 53.4981 16.3223 55.3223C16.3223 57.1465 17.8063 58.6307 19.6306 58.6307C21.455 58.6307 22.939 57.1465 22.939 55.3223C22.939 54.7568 22.7961 54.2241 22.545 53.7581L25.6657 50.6375C25.831 50.4721 25.924 50.2477 25.924 50.0137V41.5757H30.0187V53.9792C30.0187 54.4664 30.4135 54.8613 30.9008 54.8613C31.3881 54.8613 31.7829 54.4664 31.7829 53.9792V41.5761H35.8777V50.0141C35.8777 50.248 35.9706 50.4724 36.136 50.6378L39.2566 53.7585C39.0055 54.2246 38.8626 54.7571 38.8626 55.3226C38.8626 57.1468 40.3467 58.631 42.171 58.631C43.9953 58.631 45.4794 57.1468 45.4794 55.3226C45.4794 53.4984 43.9953 52.0142 42.171 52.0142ZM19.6306 56.8667C18.7792 56.8667 18.0865 56.1739 18.0865 55.3225C18.0865 54.4711 18.7792 53.7784 19.6306 53.7784C20.4821 53.7784 21.1748 54.4711 21.1748 55.3225C21.1748 56.1739 20.4821 56.8667 19.6306 56.8667ZM21.293 37.164V23.3617C21.293 21.9018 22.4809 20.714 23.9409 20.714H37.7432C39.2031 20.714 40.391 21.9018 40.391 23.3617V37.164C40.391 38.624 39.2031 39.8117 37.7432 39.8117H23.9409C22.4809 39.8119 21.293 38.6241 21.293 37.164ZM42.171 56.8667C41.3196 56.8667 40.6268 56.1739 40.6268 55.3225C40.6268 54.4711 41.3196 53.7784 42.171 53.7784C43.0224 53.7784 43.7152 54.4711 43.7152 55.3225C43.7152 56.1739 43.0224 56.8667 42.171 56.8667Z" fill="#282928"/>
<path d="M12.9549 42.1934C12.4676 42.1934 12.0728 42.5883 12.0728 43.0755V46.0048L8.44377 49.6338C8.18632 49.5306 7.90604 49.4724 7.61189 49.4724C6.37435 49.4724 5.37109 50.4757 5.37109 51.7132C5.37109 52.9507 6.37435 53.954 7.61189 53.954C8.84943 53.954 9.85268 52.9507 9.85268 51.7132C9.85268 51.4189 9.79446 51.1388 9.69131 50.8813L13.5787 46.9939C13.7441 46.8285 13.837 46.6041 13.837 46.3702V43.0755C13.837 42.5883 13.4422 42.1934 12.9549 42.1934Z" fill="#282928"/>
<path d="M12.9544 35.0078C12.4671 35.0078 12.0723 35.4028 12.0723 35.8899V39.3164C12.0723 39.8035 12.4671 40.1985 12.9544 40.1985C13.4417 40.1985 13.8365 39.8035 13.8365 39.3164V35.8899C13.8365 35.4028 13.4417 35.0078 12.9544 35.0078Z" fill="#282928"/>
<path d="M7.99182 39.0255V33.593C7.99182 33.1059 7.59699 32.7109 7.10971 32.7109C6.62243 32.7109 6.2276 33.1059 6.2276 33.593V39.0254C5.70316 39.3302 5.34961 39.8966 5.34961 40.5468C5.34961 41.5187 6.13763 42.3068 7.10959 42.3068C8.08156 42.3068 8.86958 41.5187 8.86958 40.5468C8.86958 39.8967 8.51615 39.3303 7.99182 39.0255Z" fill="#282928"/>
<path d="M53.9555 49.4724C53.6612 49.4724 53.3809 49.5306 53.1236 49.6338L49.4947 46.0049V35.8899C49.4947 35.4028 49.0999 35.0078 48.6126 35.0078C48.1253 35.0078 47.7305 35.4028 47.7305 35.8899V46.3703C47.7305 46.6043 47.8234 46.8285 47.9887 46.994L51.876 50.8814C51.773 51.1389 51.7147 51.419 51.7147 51.7133C51.7147 52.9509 52.7179 53.9541 53.9555 53.9541C55.193 53.9541 56.1962 52.9509 56.1962 51.7133C56.1961 50.4757 55.193 49.4724 53.9555 49.4724Z" fill="#282928"/>
<path d="M54.4572 32.7109C53.97 32.7109 53.5751 33.1059 53.5751 33.593V39.0255C53.0508 39.3303 52.6973 39.8967 52.6973 40.5469C52.6973 41.5189 53.4853 42.3069 54.4572 42.3069C55.4292 42.3069 56.2172 41.5189 56.2172 40.5469C56.2172 39.8967 55.8637 39.3303 55.3392 39.0255V33.5932C55.3394 33.1059 54.9445 32.7109 54.4572 32.7109Z" fill="#282928"/>
</g>
<defs>
<clipPath id="clip0_2269_397">
<rect width="60" height="60" fill="white"/>
</clipPath>
</defs>
</svg>
