<svg width="60" height="60" viewBox="0 0 60 60" fill="none" xmlns="http://www.w3.org/2000/svg">
<g clip-path="url(#clip0_2269_395)">
<path d="M47.1762 6.70836L43.72 3.25227C43.4852 3.01806 43.1731 2.87763 42.8421 2.85734C42.5111 2.83706 42.1841 2.93832 41.9225 3.14211L40.0061 4.6393C39.1904 4.20229 38.3334 3.84709 37.4477 3.57887L37.1511 1.16598C37.1105 0.836844 36.9509 0.533914 36.7025 0.314156C36.4542 0.094397 36.1341 -0.0270489 35.8024 -0.0273438H30.915C30.5834 -0.0271165 30.2632 0.0942668 30.0148 0.313981C29.7663 0.533695 29.6067 0.836602 29.5659 1.16574L29.2695 3.57887C28.3838 3.84706 27.5268 4.20222 26.711 4.63918L24.7945 3.14223C24.5331 2.93813 24.2061 2.83667 23.875 2.85693C23.5439 2.8772 23.2317 3.0178 22.9971 3.25227L19.5411 6.70824C19.3067 6.94283 19.166 7.25504 19.1458 7.5861C19.1255 7.91715 19.2269 8.2442 19.431 8.50566L20.9279 10.4223C20.491 11.238 20.1359 12.0949 19.8677 12.9806L17.4547 13.2768C17.1256 13.3175 16.8227 13.4771 16.6029 13.7254C16.3832 13.9738 16.2617 14.2939 16.2614 14.6255V19.5132C16.2618 19.8448 16.3832 20.1649 16.603 20.4132C16.8227 20.6616 17.1255 20.8211 17.4546 20.8619L19.8676 21.1585C20.1358 22.0442 20.491 22.9011 20.9279 23.7168L19.4306 25.6338C19.2265 25.8952 19.125 26.2223 19.1453 26.5533C19.1655 26.8844 19.3061 27.1966 19.5406 27.4312L22.9967 30.8873C23.2313 31.1216 23.5435 31.2621 23.8745 31.2824C24.2054 31.3027 24.5324 31.2013 24.794 30.9975L26.7106 29.5003C26.7823 29.5387 26.8551 29.5754 26.9276 29.6127C26.7063 29.881 26.5496 30.1964 26.4694 30.5348C26.3892 30.8732 26.3877 31.2255 26.465 31.5645C26.5424 31.9036 26.6964 32.2204 26.9154 32.4905C27.1344 32.7607 27.4124 32.977 27.7281 33.1229C27.795 33.9868 28.1852 34.7938 28.8207 35.3828C29.4563 35.9718 30.2905 36.2996 31.157 36.3008H35.5591C36.4257 36.2997 37.2599 35.9719 37.8955 35.3829C38.5311 34.7938 38.9212 33.9868 38.9881 33.1229C39.3038 32.977 39.5818 32.7607 39.8008 32.4905C40.0197 32.2203 40.1738 31.9035 40.2511 31.5645C40.3284 31.2254 40.3269 30.8731 40.2467 30.5347C40.1665 30.1963 40.0097 29.8808 39.7884 29.6125C39.861 29.5753 39.9336 29.5386 40.0055 29.5002L41.9221 30.9975C42.1836 31.2013 42.5106 31.3026 42.8416 31.2823C43.1726 31.262 43.4848 31.1215 43.7195 30.8873L47.1757 27.4312C47.41 27.1965 47.5505 26.8844 47.5707 26.5534C47.591 26.2224 47.4896 25.8954 47.2858 25.6339L45.7887 23.7173C46.2256 22.9016 46.5807 22.0446 46.8489 21.159L49.2622 20.8624C49.5913 20.8216 49.8941 20.662 50.1138 20.4136C50.3335 20.1653 50.455 19.8453 50.4553 19.5137V14.626C50.4552 14.2944 50.3339 13.9743 50.1142 13.7258C49.8946 13.4774 49.5918 13.3177 49.2627 13.2768L46.8493 12.9801C46.5812 12.0945 46.226 11.2375 45.7892 10.4218L47.2861 8.50578C47.49 8.24428 47.5914 7.91728 47.5712 7.58627C47.5509 7.25527 47.4105 6.94306 47.1762 6.70836ZM38.0297 31.9311H28.6875C28.5721 31.9324 28.4576 31.9109 28.3506 31.8676C28.2436 31.8244 28.1462 31.7603 28.0641 31.6792C27.9821 31.5981 27.9169 31.5015 27.8724 31.395C27.828 31.2885 27.8051 31.1742 27.8051 31.0588C27.8051 30.9434 27.828 30.8291 27.8724 30.7226C27.9169 30.6161 27.9821 30.5195 28.0641 30.4384C28.1462 30.3573 28.2436 30.2932 28.3506 30.25C28.4576 30.2068 28.5721 30.1852 28.6875 30.1865H38.0297C38.2593 30.1892 38.4786 30.2823 38.64 30.4456C38.8014 30.6089 38.8919 30.8292 38.8919 31.0588C38.8919 31.2884 38.8014 31.5088 38.64 31.6721C38.4786 31.8354 38.2593 31.9284 38.0297 31.9311ZM33.3585 17.7309C33.2078 17.7309 33.0606 17.6862 32.9353 17.6025C32.81 17.5188 32.7124 17.3999 32.6547 17.2607C32.5971 17.1215 32.582 16.9683 32.6114 16.8206C32.6408 16.6728 32.7133 16.5371 32.8199 16.4306C32.9264 16.324 33.0621 16.2515 33.2099 16.2221C33.3576 16.1927 33.5108 16.2078 33.65 16.2654C33.7892 16.3231 33.9081 16.4207 33.9918 16.546C34.0755 16.6713 34.1202 16.8185 34.1202 16.9692C34.1202 17.1712 34.04 17.3649 33.8971 17.5078C33.7543 17.6506 33.5605 17.7309 33.3585 17.7309ZM37.5933 28.5519V28.7807H36.4372V21.5717L37.4854 20.9871C37.7702 21.2541 38.1379 21.4157 38.5273 21.4448C38.9166 21.4739 39.3042 21.3688 39.6256 21.1471C39.947 20.9253 40.1828 20.6002 40.2937 20.2258C40.4047 19.8515 40.3842 19.4504 40.2355 19.0893C40.0869 18.7283 39.8192 18.4289 39.4768 18.2411C39.1345 18.0534 38.7382 17.9884 38.3538 18.0572C37.9694 18.1259 37.6202 18.3241 37.3641 18.6189C37.108 18.9136 36.9606 19.2872 36.9463 19.6774L35.5556 20.4529L35.5368 20.463C35.1184 20.6832 35.0305 21.0021 35.0305 21.2318V28.7807H34.0611V19.0177C34.5466 18.8513 34.9573 18.518 35.2201 18.0773C35.4829 17.6365 35.5809 17.1168 35.4965 16.6105C35.4121 16.1043 35.1509 15.6445 34.7593 15.3127C34.3678 14.981 33.8712 14.799 33.358 14.799C32.8448 14.799 32.3483 14.981 31.9567 15.3127C31.5651 15.6445 31.3039 16.1043 31.2195 16.6105C31.1352 17.1168 31.2331 17.6365 31.4959 18.0773C31.7588 18.518 32.1694 18.8513 32.6549 19.0177V28.7807H31.6858V21.2318C31.6858 21.0028 31.598 20.6834 31.1797 20.4632L29.7703 19.6773C29.7563 19.2861 29.6088 18.9115 29.3523 18.6158C29.0958 18.3202 28.7458 18.1212 28.3605 18.0522C27.9752 17.9831 27.5779 18.0481 27.2346 18.2363C26.8914 18.4245 26.623 18.7245 26.474 19.0865C26.325 19.4484 26.3045 19.8505 26.4159 20.2258C26.5272 20.601 26.7637 20.9269 27.086 21.149C27.4082 21.3712 27.7969 21.4762 28.1872 21.4468C28.5775 21.4173 28.946 21.2551 29.2313 20.9871L30.2794 21.5717V28.7807H29.1233V28.5523C29.126 28.1972 29.0403 27.847 28.8741 27.5332C28.7078 27.2195 28.4661 26.9519 28.1708 26.7547C26.533 25.6448 25.2945 24.0388 24.6371 22.1728C23.9797 20.3067 23.9383 18.279 24.5188 16.3877C25.0993 14.4963 26.2711 12.841 27.8622 11.6651C29.4532 10.4891 31.3795 9.85454 33.3579 9.85454C35.3363 9.85454 37.2626 10.4891 38.8536 11.6651C40.4447 12.841 41.6165 14.4963 42.197 16.3877C42.7775 18.279 42.7361 20.3067 42.0787 22.1728C41.4213 24.0388 40.1828 25.6448 38.545 26.7547C38.2499 26.952 38.0084 27.2195 37.8423 27.5332C37.6762 27.8469 37.5906 28.1969 37.5933 28.5519ZM38.3494 19.7411C38.3494 19.6809 38.3673 19.622 38.4007 19.5719C38.4342 19.5218 38.4818 19.4827 38.5375 19.4596C38.5931 19.4366 38.6544 19.4305 38.7135 19.4423C38.7726 19.4541 38.8269 19.4831 38.8695 19.5257C38.9121 19.5683 38.9411 19.6226 38.9529 19.6817C38.9647 19.7408 38.9586 19.8021 38.9356 19.8577C38.9125 19.9134 38.8735 19.961 38.8233 19.9945C38.7732 20.028 38.7143 20.0458 38.6541 20.0458C38.5733 20.0458 38.4958 20.0137 38.4386 19.9566C38.3815 19.8994 38.3494 19.8219 38.3494 19.7411ZM28.3677 19.7411C28.3677 19.8014 28.3498 19.8603 28.3164 19.9104C28.2829 19.9605 28.2353 19.9996 28.1796 20.0226C28.1239 20.0457 28.0627 20.0517 28.0036 20.04C27.9445 20.0282 27.8902 19.9992 27.8476 19.9566C27.805 19.914 27.7759 19.8597 27.7642 19.8006C27.7524 19.7415 27.7585 19.6802 27.7815 19.6245C27.8046 19.5689 27.8436 19.5213 27.8937 19.4878C27.9438 19.4543 28.0028 19.4364 28.063 19.4364C28.1438 19.4364 28.2213 19.4685 28.2785 19.5257C28.3356 19.5828 28.3677 19.6603 28.3677 19.7411ZM35.5596 34.8945H31.1575C30.7014 34.8937 30.2589 34.7398 29.9008 34.4574C29.5427 34.175 29.2898 33.7806 29.1826 33.3373H37.5346C37.4274 33.7806 37.1744 34.175 36.8163 34.4574C36.4582 34.7397 36.0157 34.8937 35.5596 34.8945ZM44.3936 9.92434C44.3072 10.035 44.2558 10.1689 44.2462 10.3089C44.2366 10.449 44.2691 10.5887 44.3395 10.7101C44.9022 11.6793 45.3332 12.7191 45.6211 13.8022C45.6572 13.9378 45.733 14.0596 45.8388 14.1517C45.9446 14.2439 46.0756 14.3023 46.2149 14.3195L49.0495 14.6679V19.4718L46.2149 19.8201C46.0756 19.8372 45.9446 19.8956 45.8388 19.9878C45.733 20.08 45.6572 20.2017 45.6211 20.3374C45.3332 21.4204 44.9023 22.4602 44.3397 23.4294C44.2692 23.5508 44.2366 23.6905 44.2462 23.8306C44.2558 23.9706 44.3072 24.1046 44.3936 24.2152L46.1522 26.4665L42.7553 29.8634L40.504 28.1048C40.3934 28.0185 40.2596 27.9673 40.1197 27.9577C39.9798 27.948 39.8402 27.9805 39.7188 28.0508C39.4872 28.1853 39.2501 28.3113 39.0093 28.4311C39.023 28.3268 39.0594 28.2268 39.1159 28.1381C39.1723 28.0494 39.2475 27.9741 39.3361 27.9175C41.2227 26.6387 42.6494 24.7884 43.4065 22.6386C44.1636 20.4887 44.2112 18.1528 43.5423 15.9739C42.8734 13.7951 41.5233 11.8882 39.6903 10.5335C37.8574 9.17883 35.6382 8.44778 33.359 8.44778C31.0798 8.44778 28.8607 9.17883 27.0277 10.5335C25.1947 11.8882 23.8446 13.7951 23.1757 15.9739C22.5068 18.1528 22.5544 20.4887 23.3115 22.6386C24.0686 24.7884 25.4953 26.6387 27.3819 27.9175C27.4706 27.9741 27.5459 28.0494 27.6024 28.1381C27.6589 28.2268 27.6954 28.3269 27.7091 28.4312C27.4685 28.3113 27.2311 28.1851 26.9995 28.0509C26.8781 27.9804 26.7384 27.9479 26.5984 27.9575C26.4583 27.9671 26.3243 28.0184 26.2137 28.1048L23.9625 29.8634L20.5655 26.4665L22.324 24.2152C22.4103 24.1047 22.4615 23.9708 22.4711 23.8309C22.4808 23.691 22.4483 23.5514 22.378 23.4301C21.8154 22.4609 21.3845 21.421 21.0966 20.338C21.0605 20.2023 20.9847 20.0806 20.8788 19.9884C20.773 19.8962 20.642 19.8378 20.5027 19.8207L17.6683 19.4724V14.6679L20.5027 14.3195C20.642 14.3024 20.773 14.244 20.8788 14.1518C20.9847 14.0597 21.0605 13.9379 21.0966 13.8023C21.3843 12.7194 21.8151 11.6796 22.3774 10.7104C22.4479 10.589 22.4804 10.4493 22.4708 10.3093C22.4611 10.1693 22.4098 10.0353 22.3234 9.92469L20.5649 7.67305L23.9619 4.27613L26.2131 6.03465C26.3237 6.12105 26.4577 6.17237 26.5977 6.182C26.7377 6.19163 26.8774 6.15912 26.9988 6.08867C27.9681 5.52604 29.008 5.09507 30.0911 4.80711C30.2267 4.77106 30.3484 4.69525 30.4406 4.58942C30.5328 4.4836 30.5912 4.35262 30.6083 4.21332L30.9565 1.37891H35.7605L36.1089 4.21344C36.126 4.35271 36.1844 4.48367 36.2766 4.58947C36.3688 4.69527 36.4905 4.77107 36.6261 4.80711C37.7092 5.09513 38.749 5.52611 39.7183 6.08867C39.8396 6.159 39.9792 6.19143 40.1191 6.1818C40.259 6.17218 40.3928 6.12093 40.5034 6.03465L42.7547 4.27613L46.1516 7.67305L44.3936 9.92434ZM25.6272 50.217H41.9548C42.6028 50.2263 43.2444 50.0869 43.8302 49.8096C44.4159 49.5323 44.9304 49.1244 45.334 48.6173L55.3824 36.3552C56.1288 35.6389 56.5602 34.6555 56.5816 33.6213C56.603 32.587 56.2126 31.5866 55.4964 30.8401C54.7802 30.0937 53.7968 29.6623 52.7626 29.6409C51.7283 29.6195 50.7279 30.0098 49.9814 30.7261L41.9906 38.2366C41.6714 37.8203 41.2607 37.483 40.7903 37.2509C40.3199 37.0187 39.8023 36.8979 39.2777 36.8979H28.8002C26.0905 35.4056 22.9634 34.851 19.9057 35.3205C16.8481 35.79 14.0314 37.2573 11.8942 39.4938C11.4565 39.197 10.9291 39.0619 10.4026 39.1115C9.87611 39.1612 9.38331 39.3925 9.0088 39.7659L4.1045 44.6702C3.67863 45.097 3.43945 45.6753 3.43945 46.2782C3.43945 46.8812 3.67863 47.4595 4.1045 47.8863L15.5796 59.3615C16.0065 59.7873 16.5848 60.0263 17.1877 60.0263C17.7906 60.0263 18.3688 59.7873 18.7957 59.3615L23.7 54.4571C24.0784 54.0775 24.3107 53.5765 24.3558 53.0424C24.401 52.5083 24.2562 51.9754 23.9469 51.5376L25.0133 50.4712C25.0922 50.3883 25.1876 50.3229 25.2933 50.2791C25.3991 50.2354 25.5128 50.2142 25.6272 50.217ZM22.7058 53.4631L17.8017 58.3672C17.6385 58.5292 17.4179 58.6201 17.188 58.6201C16.9581 58.6201 16.7375 58.5292 16.5743 58.3672L5.0986 46.892C4.93606 46.7291 4.84477 46.5084 4.84477 46.2782C4.84477 46.0481 4.93606 45.8274 5.0986 45.6645L10.003 40.7601C10.1659 40.5976 10.3866 40.5064 10.6167 40.5064C10.8468 40.5064 11.0675 40.5976 11.2304 40.7601L22.7056 52.2354C22.8681 52.3982 22.9594 52.619 22.9595 52.8491C22.9595 53.0792 22.8683 53.2999 22.7058 53.4629V53.4631ZM22.9774 50.5188L12.9174 40.4584C14.8604 38.4274 17.4259 37.1034 20.207 36.6964C22.9881 36.2895 25.8255 36.8229 28.2689 38.212C28.375 38.2724 28.4949 38.3041 28.617 38.3041H39.2786C39.8137 38.3041 40.3269 38.5167 40.7053 38.8951C41.0837 39.2735 41.2963 39.7867 41.2963 40.3218C41.2963 40.857 41.0837 41.3702 40.7053 41.7486C40.3269 42.127 39.8137 42.3396 39.2786 42.3396H31.1159C30.9294 42.3396 30.7505 42.4136 30.6187 42.5455C30.4868 42.6774 30.4127 42.8562 30.4127 43.0427C30.4127 43.2292 30.4868 43.408 30.6187 43.5399C30.7505 43.6717 30.9294 43.7458 31.1159 43.7458H39.2782C39.7913 43.7461 40.2978 43.631 40.7604 43.4091C41.223 43.1872 41.6298 42.864 41.9506 42.4636C42.2714 42.0633 42.4981 41.5959 42.6138 41.096C42.7296 40.5962 42.7315 40.0767 42.6193 39.5761L50.9468 31.749C51.4276 31.2988 52.067 31.057 52.7254 31.0765C53.3838 31.096 54.0078 31.3751 54.4611 31.8529C54.9145 32.3307 55.1605 32.9685 55.1454 33.627C55.1302 34.2855 54.8552 34.9113 54.3804 35.3679C54.3592 35.3878 54.3394 35.4092 54.321 35.4317L44.2464 47.726C43.9745 48.072 43.626 48.35 43.2284 48.5383C42.8307 48.7266 42.3947 48.8198 41.9548 48.8108H25.6272C25.3281 48.8083 25.0316 48.866 24.7554 48.9804C24.4791 49.0949 24.2287 49.2638 24.019 49.477L22.9774 50.5188ZM16.9415 52.1779C16.5678 52.1779 16.2026 52.2887 15.8919 52.4963C15.5813 52.7039 15.3392 52.9989 15.1962 53.3441C15.0532 53.6893 15.0158 54.0691 15.0887 54.4356C15.1616 54.802 15.3415 55.1386 15.6057 55.4028C15.8699 55.667 16.2065 55.8469 16.573 55.9198C16.9394 55.9926 17.3193 55.9552 17.6644 55.8122C18.0096 55.6692 18.3047 55.4271 18.5122 55.1164C18.7198 54.8057 18.8305 54.4405 18.8305 54.0669C18.83 53.566 18.6308 53.0858 18.2766 52.7316C17.9225 52.3775 17.4423 52.1783 16.9415 52.1777V52.1779ZM16.9415 54.5497C16.846 54.5497 16.7526 54.5214 16.6732 54.4683C16.5938 54.4153 16.5319 54.3399 16.4954 54.2516C16.4589 54.1634 16.4493 54.0663 16.4679 53.9727C16.4865 53.879 16.5325 53.793 16.6001 53.7255C16.6676 53.658 16.7536 53.612 16.8473 53.5933C16.9409 53.5747 17.038 53.5843 17.1262 53.6208C17.2144 53.6574 17.2898 53.7192 17.3429 53.7986C17.396 53.878 17.4243 53.9714 17.4243 54.0669C17.4241 54.1948 17.3731 54.3175 17.2826 54.408C17.1921 54.4984 17.0694 54.5493 16.9415 54.5495V54.5497Z" fill="#282928"/>
</g>
<defs>
<clipPath id="clip0_2269_395">
<rect width="60" height="60" fill="white"/>
</clipPath>
</defs>
</svg>
