<svg xmlns="http://www.w3.org/2000/svg" width="60" height="60" fill="none" viewBox="0 0 60 60">
  <g clip-path="url(#a)">
    <path fill="#282928" d="M57.794 26.993a3.883 3.883 0 0 0-4.131.45l-11.8 9.315A4.685 4.685 0 0 0 37.5 33.75H15.843a7.45 7.45 0 0 0-5.303 2.197l-3.04 3.04-1.212-1.212a.936.936 0 0 0-1.326 0L.275 42.462a.936.936 0 0 0 0 1.326l15.937 15.937a.937.937 0 0 0 1.326 0l4.687-4.687a.938.938 0 0 0 0-1.326L21.013 52.5l1.6-1.6a.932.932 0 0 1 .664-.275h12.719c1.8 0 3.54-.648 4.901-1.824l17.749-15.327a3.912 3.912 0 0 0-.852-6.481ZM16.875 57.737 2.263 43.125l3.362-3.362 14.612 14.612-3.362 3.362ZM57.42 32.055 39.673 47.382a5.628 5.628 0 0 1-3.677 1.368h-12.72a2.791 2.791 0 0 0-1.988.824l-1.6 1.6L8.825 40.312l3.04-3.04a5.587 5.587 0 0 1 3.977-1.647H37.5a2.813 2.813 0 1 1 0 5.625H24.375a.938.938 0 0 0 0 1.875H37.5a4.678 4.678 0 0 0 4.638-4.194l12.687-10.017a2.038 2.038 0 0 1 2.595 3.141Z"/>
    <path fill="#282928" d="M18.75 30h28.125a.938.938 0 0 0 .938-.938v-3.75a.938.938 0 0 0-.938-.937H45v-15a.938.938 0 0 0-.938-.938h-4.687a.938.938 0 0 0-.938.938v15h-1.874V14.062a.938.938 0 0 0-.938-.937h-4.688a.938.938 0 0 0-.937.938v10.312h-1.875v-7.5a.938.938 0 0 0-.938-.938H22.5a.938.938 0 0 0-.938.938v7.5h-1.875V.937A.938.938 0 0 0 18.75 0H15a.938.938 0 0 0-.938.938v24.375A4.693 4.693 0 0 0 18.75 30Zm21.563-19.688h2.812v14.063h-2.813V10.312ZM31.874 15h2.813v9.375h-2.813V15Zm-8.438 2.813h2.813v6.562h-2.813v-6.563Zm-7.5-15.938h1.876v23.438a.938.938 0 0 0 .937.937h27.188v1.875H18.75a2.815 2.815 0 0 1-2.813-2.813V1.875Z"/>
    <path fill="#282928" d="m22.499 12.673.046-.001c7.401-.357 14.622-6.437 17.767-9.45v2.403a.938.938 0 0 0 1.875 0V.937A.953.953 0 0 0 41.249 0h-4.687a.938.938 0 0 0 0 1.875h2.432c-2.99 2.845-9.833 8.6-16.54 8.924a.938.938 0 0 0 .045 1.874Z"/>
  </g>
  <defs>
    <clipPath id="a">
      <path fill="#fff" d="M0 0h60v60H0z"/>
    </clipPath>
  </defs>
</svg>
