<svg width="60" height="60" viewBox="0 0 60 60" fill="none" xmlns="http://www.w3.org/2000/svg">
<path fill-rule="evenodd" clip-rule="evenodd" d="M33.8621 50.276H32.0797C28.2659 50.276 25.1724 47.198 25.1724 43.4102C25.1724 39.6225 28.2659 36.5444 32.0797 36.5444C32.1666 36.5444 32.2535 36.5454 32.3404 36.5493C32.3153 36.2828 32.3028 36.0124 32.3028 35.7392C32.3028 30.9753 36.1938 27.1036 40.9924 27.1036C45.6781 27.1036 49.5005 30.7967 49.6753 35.409C49.9457 35.3791 50.2208 35.3646 50.4989 35.3646C54.641 35.3646 58 38.7072 58 42.8203C58 46.9334 54.641 50.276 50.4989 50.276H49.3103V57.0347C49.3103 57.5676 48.8778 58.0002 48.3448 58.0002H34.8276C34.2946 58.0002 33.8621 57.5676 33.8621 57.0347V50.276ZM49.3103 48.345H50.4989C53.5712 48.345 56.069 45.8713 56.069 42.8203C56.069 39.7693 53.5712 37.2956 50.4989 37.2956C49.9572 37.2956 49.433 37.3719 48.9377 37.5148C48.6277 37.6046 48.2946 37.5341 48.0474 37.3265C47.8012 37.1189 47.6738 36.8013 47.7095 36.4817C47.7365 36.2374 47.751 35.9902 47.751 35.7392C47.751 32.0374 44.7203 29.0347 40.9924 29.0347C37.2636 29.0347 34.2338 32.0374 34.2338 35.7392C34.2338 36.3262 34.3091 36.8959 34.452 37.4385C34.5389 37.7678 34.4462 38.1192 34.2068 38.3615C33.9673 38.6049 33.6178 38.7033 33.2866 38.6213C32.9004 38.5257 32.4959 38.4755 32.0797 38.4755C29.3348 38.4755 27.1034 40.6846 27.1034 43.4102C27.1034 46.1359 29.3348 48.345 32.0797 48.345H33.8621V41.5864C33.8621 41.0534 34.2946 40.6209 34.8276 40.6209H40.6207C41.1537 40.6209 41.5862 41.0534 41.5862 41.5864C41.5862 42.1193 41.1537 42.5519 40.6207 42.5519H35.7931V48.345H47.3793V42.5519H44.4828C43.9498 42.5519 43.5172 42.1193 43.5172 41.5864C43.5172 41.0534 43.9498 40.6209 44.4828 40.6209H48.3448C48.8778 40.6209 49.3103 41.0534 49.3103 41.5864V48.345ZM35.7931 50.276V56.0691H47.3793V50.276H35.7931ZM39.6552 54.1381C39.1222 54.1381 38.6897 53.7055 38.6897 53.1726C38.6897 52.6396 39.1222 52.2071 39.6552 52.2071H43.5172C44.0502 52.2071 44.4828 52.6396 44.4828 53.1726C44.4828 53.7055 44.0502 54.1381 43.5172 54.1381H39.6552ZM39.6552 46.414C39.1222 46.414 38.6897 45.9814 38.6897 45.4484C38.6897 44.9155 39.1222 44.4829 39.6552 44.4829H43.5172C44.0502 44.4829 44.4828 44.9155 44.4828 45.4484C44.4828 45.9814 44.0502 46.414 43.5172 46.414H39.6552ZM10.6897 30.0002H8.90731C5.09352 30.0002 2 26.9221 2 23.1344C2 19.3467 5.09352 16.2686 8.90731 16.2686C8.99421 16.2686 9.0811 16.2695 9.168 16.2734C9.1429 16.0069 9.13034 15.7366 9.13034 15.4633C9.13034 10.6995 13.0214 6.82775 17.82 6.82775C22.5462 6.82775 26.3938 10.5855 26.5068 15.2529C26.8138 15.3697 27.0542 15.64 27.116 15.9867C27.2097 16.5109 26.8592 17.013 26.3349 17.1067C26.1418 17.1414 25.9516 17.1858 25.7652 17.2389C25.4553 17.3287 25.1222 17.2582 24.875 17.0507C24.6288 16.8431 24.5014 16.5254 24.5371 16.2058C24.5641 15.9615 24.5786 15.7144 24.5786 15.4633C24.5786 11.7615 21.5479 8.75879 17.82 8.75879C14.0912 8.75879 11.0614 11.7615 11.0614 15.4633C11.0614 16.0504 11.1367 16.62 11.2796 17.1627C11.3665 17.4919 11.2738 17.8433 11.0343 18.0857C10.7949 18.329 10.4454 18.4275 10.1142 18.3454C9.728 18.2498 9.32345 18.1996 8.90731 18.1996C6.16235 18.1996 3.93103 20.4087 3.93103 23.1344C3.93103 25.86 6.16235 28.0691 8.90731 28.0691H10.6897V21.3105C10.6897 20.7775 11.1222 20.345 11.6552 20.345H25.1724C25.7054 20.345 26.1379 20.7775 26.1379 21.3105V28.0691H27.3265C30.3978 28.0691 32.8966 25.5955 32.8966 22.5444C32.8966 20.2977 31.5419 18.3647 29.6022 17.5006C29.1156 17.2843 28.8964 16.7127 29.1137 16.2261C29.3299 15.7395 29.9015 15.5203 30.3881 15.7366C33.0047 16.902 34.8276 19.5137 34.8276 22.5444C34.8276 26.6575 31.4686 30.0002 27.3265 30.0002H26.1379V36.7588C26.1379 37.2918 25.7054 37.7243 25.1724 37.7243H11.6552C11.1222 37.7243 10.6897 37.2918 10.6897 36.7588V30.0002ZM24.2069 28.0691V22.276H12.6207V28.0691H24.2069ZM12.6207 30.0002V35.7933H24.2069V30.0002H12.6207ZM16.4828 33.8622C15.9498 33.8622 15.5172 33.4297 15.5172 32.8967C15.5172 32.3638 15.9498 31.9312 16.4828 31.9312H20.3448C20.8778 31.9312 21.3103 32.3638 21.3103 32.8967C21.3103 33.4297 20.8778 33.8622 20.3448 33.8622H16.4828ZM16.4828 26.1381C15.9498 26.1381 15.5172 25.7055 15.5172 25.1726C15.5172 24.6396 15.9498 24.2071 16.4828 24.2071H20.3448C20.8778 24.2071 21.3103 24.6396 21.3103 25.1726C21.3103 25.7055 20.8778 26.1381 20.3448 26.1381H16.4828ZM57.5549 24.1916L51.2018 28.2545C50.9604 28.409 50.663 28.4486 50.3898 28.3617C50.1166 28.2758 49.8964 28.072 49.7883 27.8065L46.9371 20.8249C46.7952 20.4782 46.8676 20.0814 47.1215 19.8053C47.3754 19.5301 47.7655 19.4268 48.1228 19.5398L49.6154 20.0129C49.683 18.776 49.5488 17.5537 49.236 16.3873C48.2434 12.7 45.4531 9.57755 41.5457 8.33879C37.6295 7.09617 33.5386 8.04817 30.6015 10.5035C30.2057 10.8337 29.6196 10.7951 29.271 10.4147L26.6583 7.56638C26.4817 7.37327 26.3899 7.11644 26.4063 6.85479C26.4218 6.59313 26.5434 6.34982 26.7433 6.17989C31.1577 2.41051 37.3611 0.934238 43.2961 2.81603C50.0084 4.94403 54.5251 10.7787 55.3052 17.348C55.479 18.8069 55.4684 20.3025 55.256 21.802L57.3261 22.4585C57.6833 22.5715 57.943 22.8814 57.9913 23.2522C58.0406 23.6239 57.8706 23.9898 57.5549 24.1916ZM54.7781 23.676L53.8743 23.3893C53.407 23.2415 53.1251 22.7675 53.2178 22.2867C53.5229 20.7032 53.5712 19.1169 53.3877 17.5759C52.6945 11.7355 48.6799 6.54872 42.713 4.65727C37.7782 3.09217 32.6349 4.13975 28.7796 7.02279L30.0917 8.45369C33.4479 6.01672 37.8767 5.14969 42.1288 6.49755C46.687 7.94293 49.9428 11.5849 51.1004 15.8862C51.5774 17.6609 51.6981 19.5475 51.4055 21.4389C51.3621 21.717 51.1989 21.9632 50.9594 22.1119C50.72 22.2606 50.4274 22.2963 50.159 22.2113L49.5044 22.0038L51.1371 26.0039L54.7781 23.676Z" fill="#282928"/>
</svg>
