<svg xmlns="http://www.w3.org/2000/svg" width="60" height="60" fill="none"><path fill="#282928" d="M21.137 14.619a1.28 1.28 0 0 0 .417 1.4l3.743 3.008-1.26 4.633c-.141.52.049 1.061.486 1.379.436.316 1.01.33 1.46.035L30 22.444l4.017 2.63a1.281 1.281 0 0 0 1.46-.036c.438-.316.628-.858.487-1.378l-1.26-4.633 3.742-3.008c.42-.337.585-.887.418-1.4a1.28 1.28 0 0 0-1.161-.888l-4.796-.234-1.704-4.488A1.28 1.28 0 0 0 30 8.179c-.54 0-1.011.326-1.203.83l-1.704 4.489-4.795.233a1.28 1.28 0 0 0-1.161.888m6.388.672c.511-.025.959-.35 1.14-.828L30 10.947l1.335 3.516c.182.478.63.803 1.14.828l3.756.183L33.3 17.83c-.4.32-.57.847-.436 1.34l.987 3.63-3.147-2.06a1.29 1.29 0 0 0-1.409 0L26.15 22.8l.986-3.63a1.29 1.29 0 0 0-.435-1.34l-2.931-2.356zm1.569-10.059V1.906a.906.906 0 0 1 1.812 0v3.326a.906.906 0 0 1-1.812 0m5.519 5.37a.906.906 0 0 1 .067-1.28l3.706-3.338a.906.906 0 1 1 1.212 1.347l-3.706 3.337a.903.903 0 0 1-1.28-.067m-14.278-4.55a.906.906 0 0 1 1.28-.068l3.706 3.337a.906.906 0 0 1-1.213 1.347l-3.706-3.337a.906.906 0 0 1-.067-1.28m21.291 9.967 3.742 3.008-1.26 4.633c-.14.52.05 1.061.486 1.379.437.316 1.01.33 1.461.035l4.017-2.63 4.017 2.63a1.281 1.281 0 0 0 1.46-.036c.437-.316.628-.857.486-1.378l-1.26-4.633 3.743-3.008c.42-.337.584-.887.418-1.4a1.28 1.28 0 0 0-1.161-.888l-4.796-.234-1.704-4.488a1.28 1.28 0 0 0-1.203-.83c-.54 0-1.012.326-1.203.83l-1.704 4.488-4.795.234a1.28 1.28 0 0 0-1.161.888 1.28 1.28 0 0 0 .417 1.4m5.971-.728c.511-.025.959-.35 1.14-.829l1.335-3.515 1.335 3.515c.181.479.629.804 1.14.829l3.756.183-2.93 2.356c-.4.32-.571.847-.437 1.34l.987 3.63-3.147-2.06a1.29 1.29 0 0 0-1.409 0l-3.146 2.06.987-3.63a1.29 1.29 0 0 0-.436-1.34l-2.931-2.356zm-46.115.728 3.742 3.008-1.26 4.633c-.14.52.05 1.061.486 1.379.437.316 1.01.33 1.461.035l4.017-2.63 4.017 2.63a1.281 1.281 0 0 0 1.46-.036c.437-.316.628-.857.486-1.378l-1.26-4.633 3.743-3.008c.42-.337.584-.887.418-1.4a1.28 1.28 0 0 0-1.162-.888l-4.795-.234-1.704-4.488a1.28 1.28 0 0 0-1.203-.83c-.54 0-1.012.326-1.203.83l-1.704 4.488-4.795.234a1.28 1.28 0 0 0-1.161.887 1.28 1.28 0 0 0 .417 1.401m5.97-.728c.512-.025.96-.35 1.141-.829l1.335-3.515 1.335 3.515c.181.479.629.804 1.14.829l3.756.183-2.931 2.356c-.4.32-.57.847-.436 1.34l.987 3.63-3.147-2.06a1.29 1.29 0 0 0-1.409 0L6.077 22.8l.986-3.63a1.29 1.29 0 0 0-.435-1.34l-2.931-2.356zm51.405 33.846a10.4 10.4 0 0 0-3.678-5.207 10.3 10.3 0 0 0-2.687-1.448 5.66 5.66 0 0 0 2.174-4.456 5.67 5.67 0 0 0-5.664-5.663 5.67 5.67 0 0 0-5.663 5.663c0 1.805.85 3.414 2.17 4.452a10.2 10.2 0 0 0-4.535 3.235 13.5 13.5 0 0 0-1.935-2.171 13.45 13.45 0 0 0-5.036-2.873 7.26 7.26 0 0 0 3.262-6.058c0-4.006-3.26-7.265-7.265-7.265s-7.264 3.259-7.264 7.265a7.26 7.26 0 0 0 3.261 6.058 13.45 13.45 0 0 0-5.036 2.873 13.5 13.5 0 0 0-1.935 2.17 10.2 10.2 0 0 0-4.534-3.234 5.66 5.66 0 0 0 2.169-4.452 5.67 5.67 0 0 0-5.663-5.664 5.67 5.67 0 0 0-5.663 5.664c0 1.807.852 3.418 2.174 4.455A10.3 10.3 0 0 0 4.82 43.93a10.4 10.4 0 0 0-3.678 5.206 2.99 2.99 0 0 0 .46 2.719 2.99 2.99 0 0 0 2.46 1.242h12.528v1.636A4.27 4.27 0 0 0 20.858 59h18.284a4.27 4.27 0 0 0 4.267-4.267v-1.635h12.528c.996 0 1.87-.441 2.46-1.243a2.99 2.99 0 0 0 .46-2.718m-9.855-14.962a3.855 3.855 0 0 1 3.851 3.851 3.855 3.855 0 0 1-3.85 3.85 3.855 3.855 0 0 1-3.851-3.85 3.855 3.855 0 0 1 3.85-3.85m-24.454.436A5.46 5.46 0 0 1 30 29.159a5.46 5.46 0 0 1 5.452 5.452 5.46 5.46 0 0 1-5.449 5.452h-.006a5.46 5.46 0 0 1-5.449-5.453m-13.55-.436a3.855 3.855 0 0 1 3.85 3.85 3.855 3.855 0 0 1-3.85 3.851 3.855 3.855 0 0 1-3.85-3.85 3.855 3.855 0 0 1 3.85-3.851m5.71 17.11H4.064c-.417 0-.754-.17-1.001-.506a1.19 1.19 0 0 1-.187-1.106 8.46 8.46 0 0 1 8.123-5.984 8.44 8.44 0 0 1 7.01 3.69 13.4 13.4 0 0 0-1.3 3.906m24.889 3.448a2.457 2.457 0 0 1-2.455 2.454H20.858a2.457 2.457 0 0 1-2.454-2.454V52.24a11.64 11.64 0 0 1 11.593-10.365h.006A11.64 11.64 0 0 1 41.597 52.24zm15.341-3.953a1.19 1.19 0 0 1-1.001.505H43.292a13.4 13.4 0 0 0-1.3-3.905 8.44 8.44 0 0 1 7.01-3.69 8.46 8.46 0 0 1 8.124 5.983c.123.398.06.77-.188 1.106"/></svg>