<svg xmlns="http://www.w3.org/2000/svg" width="60" height="60" fill="none"><path fill="#282928" d="M36.677 37.245a.91.91 0 0 0-.91-.914H33.66a15.2 15.2 0 0 0-1.701-4.122l1.49-1.498a.917.917 0 0 0 0-1.292l-3.994-4.013a.91.91 0 0 0-1.287 0l-1.49 1.498a15 15 0 0 0-4.105-1.709v-2.116a.91.91 0 0 0-.91-.914h-5.65c-.502 0-.91.409-.91.914v2.116A15 15 0 0 0 11 26.904l-1.491-1.498a.907.907 0 0 0-1.287 0L4.227 29.42a.916.916 0 0 0 0 1.292l1.491 1.498a15.2 15.2 0 0 0-1.701 4.122H1.91c-.503 0-.91.409-.91.914v5.675c0 .504.407.914.91.914h2.107a15.2 15.2 0 0 0 1.701 4.122l-1.49 1.497a.917.917 0 0 0 0 1.292l3.994 4.013a.907.907 0 0 0 1.287 0l1.49-1.497a15 15 0 0 0 4.105 1.708v2.117c0 .505.407.914.91.914h5.65c.502 0 .91-.41.91-.914V54.97a15 15 0 0 0 4.103-1.71l1.49 1.499a.907.907 0 0 0 1.288 0l3.995-4.013a.917.917 0 0 0 0-1.293l-1.491-1.497a15.2 15.2 0 0 0 1.7-4.122h2.108c.502 0 .91-.41.91-.914zm-1.82 4.761h-1.925a.91.91 0 0 0-.892.735 13.4 13.4 0 0 1-1.996 4.837.92.92 0 0 0 .114 1.153L31.52 50.1l-2.709 2.72-1.362-1.368a.91.91 0 0 0-1.148-.114 13.3 13.3 0 0 1-4.815 2.005.91.91 0 0 0-.733.896v1.933h-3.83V54.24a.91.91 0 0 0-.732-.897 13.3 13.3 0 0 1-4.815-2.004.91.91 0 0 0-1.148.114L8.865 52.82 6.157 50.1l1.362-1.369a.92.92 0 0 0 .114-1.154 13.4 13.4 0 0 1-1.996-4.836.91.91 0 0 0-.892-.735H2.82v-3.848h1.925a.91.91 0 0 0 .892-.735 13.4 13.4 0 0 1 1.996-4.837.92.92 0 0 0-.114-1.153l-1.362-1.368 2.709-2.72 1.362 1.368a.91.91 0 0 0 1.148.113 13.3 13.3 0 0 1 4.816-2.004.91.91 0 0 0 .732-.896v-1.934h3.83v1.933c0 .436.306.811.732.897a13.3 13.3 0 0 1 4.815 2.005.91.91 0 0 0 1.149-.114l1.362-1.369 2.708 2.72-1.362 1.369a.92.92 0 0 0-.113 1.154 13.4 13.4 0 0 1 1.995 4.836.91.91 0 0 0 .893.735h1.925zM18.84 30.326c-5.356 0-9.713 4.377-9.713 9.756s4.357 9.756 9.713 9.756 9.712-4.376 9.712-9.756-4.357-9.756-9.712-9.756m0 17.684c-4.353 0-7.893-3.556-7.893-7.928s3.54-7.928 7.893-7.928 7.893 3.557 7.893 7.928-3.541 7.928-7.893 7.928m39.251-3.893h-1.006a9.6 9.6 0 0 0-.86-2.087l.71-.715a.916.916 0 0 0 0-1.292l-2.427-2.438a.91.91 0 0 0-1.286 0l-.712.715a9.5 9.5 0 0 0-2.078-.866v-1.01a.91.91 0 0 0-.91-.914h-3.433c-.502 0-.91.41-.91.914v1.01a9.5 9.5 0 0 0-2.077.866l-.712-.715a.907.907 0 0 0-1.287 0l-2.427 2.438a.917.917 0 0 0 0 1.292l.712.715a9.6 9.6 0 0 0-.862 2.087H37.52c-.503 0-.91.41-.91.914v3.448c0 .505.407.914.91.914h1.005q.308 1.094.862 2.087l-.712.715a.917.917 0 0 0 0 1.292l2.427 2.439a.91.91 0 0 0 1.287 0l.712-.715a9.5 9.5 0 0 0 2.078.865v1.01c0 .505.407.914.91.914h3.432c.503 0 .91-.41.91-.914v-1.01a9.5 9.5 0 0 0 2.078-.865l.712.715a.907.907 0 0 0 1.286 0l2.428-2.438a.917.917 0 0 0 0-1.293l-.712-.715c.369-.66.657-1.359.861-2.087h1.006c.503 0 .91-.41.91-.914v-3.448a.91.91 0 0 0-.91-.914m-.91 3.448h-.812a.91.91 0 0 0-.893.736 7.8 7.8 0 0 1-1.159 2.81.92.92 0 0 0 .113 1.153l.576.578-1.141 1.145-.575-.578a.91.91 0 0 0-1.148-.114 7.7 7.7 0 0 1-2.798 1.165.91.91 0 0 0-.732.896v.816h-1.613v-.816a.91.91 0 0 0-.732-.896 7.7 7.7 0 0 1-2.797-1.165.91.91 0 0 0-1.149.114l-.575.578-1.14-1.146.575-.578a.92.92 0 0 0 .113-1.153 7.8 7.8 0 0 1-1.16-2.81.91.91 0 0 0-.891-.735h-.813v-1.62h.812a.91.91 0 0 0 .893-.735 7.8 7.8 0 0 1 1.16-2.81.92.92 0 0 0-.114-1.154l-.575-.577 1.14-1.146.575.578a.91.91 0 0 0 1.149.114 7.7 7.7 0 0 1 2.797-1.165.91.91 0 0 0 .732-.896v-.816h1.613v.816c0 .436.307.81.732.896 1.003.2 1.944.593 2.797 1.165a.91.91 0 0 0 1.149-.114l.575-.578 1.14 1.146-.574.577a.92.92 0 0 0-.114 1.154 7.8 7.8 0 0 1 1.16 2.81.91.91 0 0 0 .892.735h.812zm-9.375-7.096c-3.45 0-6.258 2.82-6.258 6.286s2.807 6.286 6.258 6.286 6.258-2.82 6.258-6.286-2.807-6.286-6.258-6.286m0 10.744c-2.447 0-4.439-2-4.439-4.458s1.992-4.458 4.439-4.458 4.439 2 4.439 4.458-1.992 4.458-4.439 4.458M2.737 10.943h1.331v9.424c0 .945.766 1.715 1.708 1.715h2.99c.94 0 1.707-.77 1.707-1.715v-9.424h1.33c.585 0 1.108-.327 1.366-.855a1.52 1.52 0 0 0-.164-1.603L8.472 2.593A1.5 1.5 0 0 0 7.27 2c-.473 0-.911.216-1.201.593L1.535 8.486a1.52 1.52 0 0 0-.163 1.602c.258.528.781.855 1.365.855M7.27 4.02l3.92 5.096H9.564c-.502 0-.91.409-.91.914v10.224H5.888V10.03a.91.91 0 0 0-.91-.914H3.35zm13.95 6.923h1.332v9.424c0 .945.766 1.715 1.708 1.715h2.99c.94 0 1.707-.77 1.707-1.715v-9.424h1.331c.584 0 1.107-.327 1.365-.855a1.52 1.52 0 0 0-.163-1.603l-4.534-5.892A1.5 1.5 0 0 0 25.755 2c-.474 0-.912.216-1.202.593L20.02 8.485a1.52 1.52 0 0 0-.164 1.603 1.51 1.51 0 0 0 1.365.855m4.535-6.923 3.92 5.096h-1.628c-.502 0-.91.409-.91.914v10.224h-2.765V10.03a.91.91 0 0 0-.91-.914h-1.628zm6.63 13.267c-.502 0-.91.41-.91.914v4.271c0 .505.408.914.91.914h1.413c.264.997.656 1.947 1.172 2.84l-1 1.004a.917.917 0 0 0 0 1.292l3.008 3.02a.91.91 0 0 0 1.286.001l1-1.003c.89.517 1.836.911 2.827 1.177v1.418c0 .505.408.914.91.914h4.253c.502 0 .91-.41.91-.914v-1.418c.992-.266 1.938-.66 2.828-1.177l.999 1.003a.907.907 0 0 0 1.286 0l3.007-3.02a.917.917 0 0 0 0-1.293l-.999-1.003c.516-.894.908-1.845 1.173-2.84h1.412c.502 0 .91-.41.91-.915v-4.271a.91.91 0 0 0-.91-.914h-1.412a11.7 11.7 0 0 0-1.172-2.84l.998-1.004a.917.917 0 0 0 0-1.292l-3.007-3.02a.907.907 0 0 0-1.286 0l-1 1.003a11.6 11.6 0 0 0-2.827-1.178V7.538a.91.91 0 0 0-.91-.914H43c-.502 0-.91.41-.91.914v1.418a11.6 11.6 0 0 0-2.828 1.178l-.999-1.004a.907.907 0 0 0-1.286 0l-3.007 3.02a.917.917 0 0 0 0 1.293l.999 1.003a11.7 11.7 0 0 0-1.172 2.84zm3.027 1.092a9.9 9.9 0 0 1 1.468-3.559.92.92 0 0 0-.113-1.153l-.866-.87 1.72-1.728.866.87a.91.91 0 0 0 1.149.114 9.8 9.8 0 0 1 3.543-1.476.91.91 0 0 0 .732-.896v-1.23h2.433v1.23c0 .436.307.811.732.896 1.27.255 2.462.75 3.544 1.476a.91.91 0 0 0 1.148-.114l.866-.87 1.72 1.728-.865.87a.92.92 0 0 0-.114 1.153 9.9 9.9 0 0 1 1.469 3.56.91.91 0 0 0 .892.735h1.224v2.444h-1.224a.91.91 0 0 0-.892.735 9.9 9.9 0 0 1-1.469 3.56.92.92 0 0 0 .114 1.152l.866.87-1.72 1.729-.867-.87a.91.91 0 0 0-1.148-.114 9.8 9.8 0 0 1-3.544 1.475.91.91 0 0 0-.732.896v1.23h-2.433v-1.23a.91.91 0 0 0-.732-.896 9.8 9.8 0 0 1-3.543-1.475.91.91 0 0 0-1.149.114l-.866.87-1.72-1.729.866-.87a.92.92 0 0 0 .113-1.153 9.9 9.9 0 0 1-1.468-3.56.91.91 0 0 0-.893-.734h-1.224v-2.444h1.224a.91.91 0 0 0 .893-.736m9.716 9.527c4.155 0 7.535-3.396 7.535-7.57 0-4.173-3.38-7.569-7.535-7.569s-7.536 3.396-7.536 7.57c0 4.173 3.38 7.569 7.536 7.569m0-13.31c3.152 0 5.716 2.575 5.716 5.74 0 3.167-2.564 5.742-5.716 5.742s-5.716-2.575-5.716-5.741 2.564-5.742 5.716-5.742"/></svg>