<svg xmlns="http://www.w3.org/2000/svg" width="60" height="60"><defs><clipPath id="a"><path d="M0 0h60v60H0z"/></clipPath></defs><g fill="#282928" clip-path="url(#a)"><path d="M49.932 44.85a16.087 16.087 0 0 0-3.793-21.372V6.596a3.6 3.6 0 0 0-3.596-3.595H6.595A3.6 3.6 0 0 0 3 6.596v34.151a3.6 3.6 0 0 0 3.595 3.595h15.67a16.106 16.106 0 0 0 22.585 5.59l5.932 5.932a3.595 3.595 0 1 0 5.087-5.076ZM6.595 4.801h35.948a1.8 1.8 0 0 1 1.8 1.8v3.59H4.8V6.596a1.8 1.8 0 0 1 1.8-1.8Zm0 37.746a1.8 1.8 0 0 1-1.8-1.8V11.988h39.546v10.278a16.075 16.075 0 0 0-19.247 2.3h-9.512a.9.9 0 1 0 0 1.8h7.894a16 16 0 0 0-1.211 1.8h-4.886a.9.9 0 0 0 0 1.8h3.97a16 16 0 0 0-.629 1.8h-2.442a.9.9 0 0 0 0 1.8h2.041a16 16 0 0 0-.2 1.8h-4.537a.9.9 0 1 0 0 1.8h4.539a16 16 0 0 0 .2 1.8h-2.94a.9.9 0 1 0 0 1.8h3.344a16 16 0 0 0 .629 1.8Zm15.278-6.291a14.379 14.379 0 1 1 14.379 14.377 14.38 14.38 0 0 1-14.379-14.38Zm32.721 18.345a1.83 1.83 0 0 1-2.534 0l-5.721-5.719a16.3 16.3 0 0 0 2.54-2.541l5.721 5.72a1.8 1.8 0 0 1-.005 2.545Z"/><path d="M7.374 8.25h.875a.875.875 0 1 0 0-1.75h-.875a.875.875 0 0 0 0 1.75m4.374 0h.875a.875.875 0 0 0 0-1.75h-.875a.875.875 0 1 0 0 1.75m4.727 0h.875a.875.875 0 1 0 0-1.75h-.875a.875.875 0 1 0 0 1.75m-8.226 5.545h-.875a.875.875 0 1 0 0 1.75h.875a.875.875 0 1 0 0-1.75m0 3.599h-.875a.875.875 0 0 0 0 1.75h.875a.875.875 0 0 0 0-1.75m0 3.598h-.875a.875.875 0 0 0 0 1.75h.875a.875.875 0 0 0 0-1.75m0 3.598h-.875a.875.875 0 1 0 0 1.75h.875a.875.875 0 1 0 0-1.75m0 3.598h-.875a.875.875 0 0 0 0 1.75h.875a.875.875 0 0 0 0-1.75m0 3.598h-.875a.875.875 0 1 0 0 1.75h.875a.875.875 0 1 0 0-1.75m0 3.598h-.875a.875.875 0 0 0 0 1.75h.875a.875.875 0 0 0 0-1.75m0 3.599h-.875a.875.875 0 1 0 0 1.75h.875a.875.875 0 1 0 0-1.75M36.361 8.25h5.249a.875.875 0 1 0 0-1.75h-5.249a.875.875 0 1 0 0 1.75m-24.613 5.786a.875.875 0 0 0-.875.875v22.744a.875.875 0 0 0 1.75 0V14.911a.875.875 0 0 0-.875-.875m3.888 1.509h8.748a.875.875 0 0 0 0-1.75h-8.748a.875.875 0 1 0 0 1.75m.934 2.724a.875.875 0 0 0 .875.875h8.748a.875.875 0 1 0 0-1.75h-8.748a.875.875 0 0 0-.875.875m13.431.875h2.625a.875.875 0 1 0 0-1.75h-2.625a.875.875 0 1 0 0 1.75m-5.554 1.848h-6.125a.875.875 0 0 0 0 1.75h6.125a.875.875 0 0 0 0-1.75m20.796 8.995h-1.75a.875.875 0 1 0 0 1.75h1.75a.875.875 0 0 0 0-1.75m-17.932 1.75h3.5a.875.875 0 1 0 0-1.75h-3.5a.875.875 0 1 0 0 1.75m12.493-1.75h-5.248a.875.875 0 1 0 0 1.75h5.249a.875.875 0 1 0 0-1.75Zm-14.185 5.348h10.5a.875.875 0 1 0 0-1.75h-10.5a.875.875 0 1 0 0 1.75m4.355-7.196h.875a.875.875 0 0 0 0-1.75h-.875a.875.875 0 1 0 0 1.75m15.269 12.643h-1.75a.875.875 0 0 0 0 1.75h1.75a.875.875 0 0 0 0-1.75m-14.447 0h-4.374a.875.875 0 0 0 0 1.75h4.374a.875.875 0 0 0 0-1.75m9.008 0h-5.248a.875.875 0 0 0 0 1.75h5.249a.875.875 0 0 0 0-1.75Zm-10.797-1.849a.875.875 0 1 0 0-1.75h-3.5a.875.875 0 1 0 0 1.75Z"/></g></svg>