<svg xmlns="http://www.w3.org/2000/svg" width="60" height="60" fill="none"><path fill="#282928" d="M54.425 6H43.071a.794.794 0 0 0 0 1.588h11.354c.599 0 1.086.486 1.086 1.085v4.133l-51.02-.011V8.673c0-.599.486-1.085 1.085-1.085h33.772a.794.794 0 1 0 0-1.588H5.576a2.676 2.676 0 0 0-2.673 2.673v42.653A2.675 2.675 0 0 0 5.574 54h48.85a2.676 2.676 0 0 0 2.673-2.673V8.673A2.674 2.674 0 0 0 54.425 6m1.085 45.326c0 .599-.487 1.085-1.085 1.085H20.269v-23.44a.794.794 0 0 0-1.588 0v23.43H5.576a1.087 1.087 0 0 1-1.086-1.084V14.394h14.191v10.94a.794.794 0 0 0 1.588 0v-10.94H55.51z"/><path fill="#282928" d="M11.25 16.686H8.554a.794.794 0 1 0 0 1.587h2.696a.794.794 0 1 0 0-1.587m0 3.978H8.554a.794.794 0 1 0 0 1.588h2.696a.794.794 0 1 0 0-1.588m0 3.979H8.554a.794.794 0 1 0 0 1.587h2.696a.794.794 0 1 0 0-1.587m0 3.978H8.554a.794.794 0 1 0 0 1.588h2.696a.794.794 0 1 0 0-1.588m0 3.977H8.554a.794.794 0 1 0 0 1.587h2.696a.794.794 0 1 0 0-1.587m0 3.978H8.554a.794.794 0 1 0 0 1.588h2.696a.794.794 0 0 0 0-1.588m0 3.977H8.554a.794.794 0 1 0 0 1.587h2.696a.794.794 0 0 0 0-1.587m0 3.978H8.554a.794.794 0 1 0 0 1.588h2.696a.794.794 0 1 0 0-1.588m0 3.979H8.554a.794.794 0 1 0 0 1.587h2.696a.794.794 0 0 0 0-1.587m16.993-22.337a.793.793 0 0 0 1.03-.444l3.165-7.956a.794.794 0 1 0-1.475-.587l-3.164 7.956a.794.794 0 0 0 .444 1.03m6.077-.43a.793.793 0 0 0 1.085-.289l2.125-3.668a.8.8 0 0 0-.008-.808l-2.124-3.525a.794.794 0 1 0-1.36.82l1.883 3.123-1.89 3.262c-.22.38-.09.865.289 1.085m-9.489-.289a.793.793 0 1 0 1.374-.796l-1.89-3.262 1.883-3.123a.794.794 0 0 0-1.36-.82l-2.124 3.525a.8.8 0 0 0-.008.808zm-1.438 4.756h18.014a.794.794 0 1 0 0-1.588H23.393a.794.794 0 1 0 0 1.588m0 3.976h3.518a.794.794 0 1 0 0-1.587h-3.518a.794.794 0 1 0 0 1.587m11.185-1.587h-3.519a.794.794 0 1 0 0 1.587h3.518a.794.794 0 1 0 0-1.587m1.553 5.566h3.518a.794.794 0 0 0 0-1.588H36.13a.794.794 0 1 0 0 1.588m3.518 6.367H36.13a.794.794 0 0 0 0 1.588h3.518a.794.794 0 1 0 0-1.588m-16.255 5.566h9.426a.794.794 0 0 0 0-1.587h-9.426a.794.794 0 1 0 0 1.587m0-11.933h9.426a.794.794 0 0 0 0-1.588h-9.426a.794.794 0 1 0 0 1.588m19.567 0h9.426a.794.794 0 0 0 0-1.588H42.96a.794.794 0 1 0 0 1.588M23.393 42.14h2.125a.794.794 0 0 0 0-1.587h-2.125a.794.794 0 0 0 0 1.587m22.491-1.587H28.72a.794.794 0 1 0 0 1.587h17.164a.794.794 0 0 0 0-1.587m-22.491 5.566h9.426a.794.794 0 1 0 0-1.588h-9.426a.794.794 0 0 0 0 1.588"/></svg>