<svg xmlns="http://www.w3.org/2000/svg" width="60" height="60"><defs><clipPath id="a"><path d="M0 0h60v60H0z"/></clipPath></defs><g clip-path="url(#a)"><g fill="#282928" transform="translate(3 2)"><path d="M51.469 8H2.531A2.53 2.53 0 0 0 0 10.531v27a2.53 2.53 0 0 0 2.531 2.531h21.094v3.375h-1.687a4.224 4.224 0 0 0-4.219 4.219.844.844 0 0 0 .844.844h16.875a.844.844 0 0 0 .844-.844 4.224 4.224 0 0 0-4.219-4.219h-1.688v-3.374h3.906a.844.844 0 0 0 0-1.687H2.531a.844.844 0 0 1-.844-.844v-27a.844.844 0 0 1 .844-.844h48.938a.844.844 0 0 1 .844.844v2.75a.844.844 0 0 0 1.688 0v-2.75A2.53 2.53 0 0 0 51.469 8m-17.02 38.813h-14.9a2.54 2.54 0 0 1 2.387-1.687h10.127a2.54 2.54 0 0 1 2.387 1.688Zm-5.762-6.75v3.375h-3.374v-3.375Z"/><path d="M51 48.5H39a3 3 0 0 1-3-3v-28a3 3 0 0 1 3-3h12a3 3 0 0 1 3 3v28a3 3 0 0 1-3 3m-12-32a1 1 0 0 0-1 1v28a1 1 0 0 0 1 1h12a1 1 0 0 0 1-1v-28a1 1 0 0 0-1-1Z"/><path d="M45 44.079a5 5 0 1 1 5-5 5 5 0 0 1-5 5m0-8a3 3 0 1 0 3 3 3 3 0 0 0-3-3"/><circle cx="1" cy="1" r="1" transform="translate(40.36 20.064)"/><circle cx="1" cy="1" r="1" transform="translate(44 20.064)"/><circle cx="1" cy="1" r="1" transform="translate(47.64 20.064)"/><g transform="translate(0 3)"><circle cx="1" cy="1" r="1" transform="translate(40.36 20.064)"/><circle cx="1" cy="1" r="1" transform="translate(44 20.064)"/><circle cx="1" cy="1" r="1" transform="translate(47.64 20.064)"/></g><g transform="translate(0 6.186)"><circle cx="1" cy="1" r="1" transform="translate(40.36 20.064)"/><circle cx="1" cy="1" r="1" transform="translate(44 20.064)"/><circle cx="1" cy="1" r="1" transform="translate(47.64 20.064)"/></g><g transform="translate(0 9.371)"><circle cx="1" cy="1" r="1" transform="translate(40.36 20.064)"/><circle cx="1" cy="1" r="1" transform="translate(44 20.064)"/><circle cx="1" cy="1" r="1" transform="translate(47.64 20.064)"/></g></g></g></svg>