<svg xmlns="http://www.w3.org/2000/svg" width="60" height="60"><defs><clipPath id="a"><path d="M0 0h60v60H0z"/></clipPath></defs><g fill="#282928" clip-path="url(#a)"><path d="M40.817 23.25a14.3 14.3 0 0 0 .506-3.7c0-9.126-8.596-16.549-19.162-16.549S3 10.424 3 19.549c0 8.243 7.016 15.1 16.16 16.344a14.5 14.5 0 0 0-.483 3.689 15.26 15.26 0 0 0 4.765 10.9l-1.259 5.454a.871.871 0 0 0 1.285.948l4.965-2.9a21.5 21.5 0 0 0 9.406 2.144C48.4 56.13 57 48.707 57 39.582c0-8.229-6.89-15.086-16.183-16.332m-36.075-3.7c0-8.164 7.814-14.806 17.419-14.806s17.42 6.641 17.42 14.805A13.62 13.62 0 0 1 35 29.523a.87.87 0 0 0-.256.834l.917 3.973-3.628-2.119a.87.87 0 0 0-.84-.022 19.7 19.7 0 0 1-9.032 2.167c-9.605 0-17.419-6.642-17.419-14.807Zm33.1 34.839a19.7 19.7 0 0 1-9.032-2.166.87.87 0 0 0-.84.021l-3.628 2.119.917-3.973a.87.87 0 0 0-.259-.835 13.62 13.62 0 0 1-4.58-9.973 12.7 12.7 0 0 1 .507-3.522q.612.036 1.235.038a21.5 21.5 0 0 0 9.406-2.144l4.965 2.9a.871.871 0 0 0 1.287-.953l-1.259-5.454a16.2 16.2 0 0 0 3.7-5.515c8.588 1.013 14.995 7.209 14.995 14.649 0 8.164-7.814 14.806-17.419 14.806Z"/><path d="M15.047 22.021a11.4 11.4 0 0 0 2.2-5.993h1.742v-1.683h-4.211v-2.524h-1.683v2.524H8.889v1.683h6.677a9.7 9.7 0 0 1-1.63 4.632 9.8 9.8 0 0 1-1.4-3.149l-1.635.4a11.4 11.4 0 0 0 1.935 4.11 10 10 0 0 1-1.81 1.464l-1.737 1.083.892 1.43 1.737-1.085a11.6 11.6 0 0 0 2.023-1.626 11.6 11.6 0 0 0 2.026 1.623l1.737 1.085.892-1.43-1.736-1.085a9.8 9.8 0 0 1-1.808-1.46Zm7.341-7.685h13.461v1.683H22.388Zm0 3.488h13.461v1.683H22.388Zm-3.456 3.488h16.826v1.683H18.932Zm14.732 17.419a2.828 2.828 0 0 0-5.578 0l-.565 3.388a1 1 0 0 0-.012.139v4.21h1.683v-3.369h3.365v3.369h1.683v-4.211a1 1 0 0 0-.012-.139Zm-2.789-.68a1.14 1.14 0 0 1 1.13.957l.4 2.409h-3.061l.4-2.408a1.14 1.14 0 0 1 1.131-.958m5.934 6.804h15.143v1.683H36.809Zm0-3.488h15.143v1.683H36.809Zm0-3.488h15.143v1.683H36.809Z"/></g></svg>