<svg xmlns="http://www.w3.org/2000/svg" width="60" height="60"><defs><clipPath id="a"><path d="M0 0h60v60H0z"/></clipPath></defs><g fill="#282928" clip-path="url(#a)"><path d="M30.084 26.977a5 5 0 1 1 5-5 5 5 0 0 1-5 5m0-8.753a3.769 3.769 0 1 0 3.769 3.769 3.777 3.777 0 0 0-3.769-3.769"/><path d="M31.21 31.813h-2.259a.61.61 0 0 1-.614-.614v-1.043a9 9 0 0 1-.823-.221l-.528.908a.606.606 0 0 1-.835.221l-1.952-1.129a.64.64 0 0 1-.282-.368.63.63 0 0 1 .061-.466l.528-.908c-.209-.2-.417-.393-.6-.6l-.908.528a.606.606 0 0 1-.835-.221l-1.129-1.952a.606.606 0 0 1 .221-.835l.908-.528c-.086-.27-.16-.54-.221-.823h-1.043a.61.61 0 0 1-.614-.614v-2.261a.61.61 0 0 1 .614-.614h1.043a9 9 0 0 1 .221-.823l-.908-.528a.64.64 0 0 1-.282-.368.62.62 0 0 1 .061-.466l1.129-1.952a.606.606 0 0 1 .835-.221l.908.528c.2-.209.393-.417.6-.6l-.528-.908a.62.62 0 0 1-.061-.466.58.58 0 0 1 .282-.368l1.952-1.129a.606.606 0 0 1 .835.221l.528.908c.27-.086.54-.16.823-.221v-1.046a.61.61 0 0 1 .614-.614h2.259a.61.61 0 0 1 .614.614v1.043c.282.061.552.135.822.221l.528-.908a.606.606 0 0 1 .835-.221l1.964 1.129a.64.64 0 0 1 .282.368.61.61 0 0 1-.061.466l-.528.908c.209.2.417.393.6.6l.908-.528a.6.6 0 0 1 .835.221l1.129 1.952a.61.61 0 0 1 .061.466.58.58 0 0 1-.282.368l-.908.528c.086.27.16.54.221.823h1.043a.61.61 0 0 1 .614.614v2.259a.61.61 0 0 1-.614.614H38.23a9 9 0 0 1-.221.823l.908.528a.64.64 0 0 1 .282.368.63.63 0 0 1-.061.466l-1.129 1.952a.606.606 0 0 1-.835.221l-.908-.528a7 7 0 0 1-.6.6l.528.908a.61.61 0 0 1 .061.466.58.58 0 0 1-.282.368l-1.964 1.129a.61.61 0 0 1-.467.061.57.57 0 0 1-.368-.282l-.528-.908c-.27.086-.552.16-.822.221v1.043a.624.624 0 0 1-.614.614Zm-1.645-1.228h1.031v-.945a.6.6 0 0 1 .528-.6 7.2 7.2 0 0 0 1.584-.417.63.63 0 0 1 .761.258l.479.823.9-.516-.479-.823a.62.62 0 0 1 .147-.786 7.3 7.3 0 0 0 1.15-1.159.61.61 0 0 1 .786-.147l.823.479.516-.9-.823-.479a.61.61 0 0 1-.258-.761 6.8 6.8 0 0 0 .417-1.584.62.62 0 0 1 .614-.528h.945v-1.024h-.945a.62.62 0 0 1-.614-.528 7.2 7.2 0 0 0-.417-1.584.63.63 0 0 1 .258-.761l.823-.479-.516-.9-.823.479a.62.62 0 0 1-.786-.147 7.3 7.3 0 0 0-1.154-1.154.61.61 0 0 1-.147-.786l.479-.823-.9-.516-.479.823a.614.614 0 0 1-.761.27 7 7 0 0 0-1.584-.417.62.62 0 0 1-.528-.6v-.945h-1.031v.945a.6.6 0 0 1-.528.6 7.2 7.2 0 0 0-1.584.417.62.62 0 0 1-.761-.27l-.479-.823-.9.516.479.823a.62.62 0 0 1-.147.786 7.3 7.3 0 0 0-1.154 1.154.61.61 0 0 1-.786.147l-.823-.479-.516.9.822.479a.61.61 0 0 1 .258.761 6.8 6.8 0 0 0-.417 1.584.62.62 0 0 1-.6.528h-.941v1.031h.945a.6.6 0 0 1 .6.528 7.2 7.2 0 0 0 .417 1.584.63.63 0 0 1-.258.761l-.822.479.516.9.823-.479a.62.62 0 0 1 .786.147 7.3 7.3 0 0 0 1.154 1.154.61.61 0 0 1 .147.786l-.479.823.9.516.479-.823a.61.61 0 0 1 .761-.258 6.8 6.8 0 0 0 1.584.417.62.62 0 0 1 .528.6Z"/><path d="M45.021 34.845H15.14a2.643 2.643 0 0 1-2.639-2.639V5.64a2.643 2.643 0 0 1 2.639-2.639h29.88a2.643 2.643 0 0 1 2.639 2.639v26.554a2.654 2.654 0 0 1-2.638 2.651M15.14 4.229a1.42 1.42 0 0 0-1.412 1.412v26.553a1.41 1.41 0 0 0 1.412 1.407h29.88a1.41 1.41 0 0 0 1.412-1.412V5.64a1.42 1.42 0 0 0-1.412-1.412Z"/><path d="M47.046 10.367H13.115a.614.614 0 0 1 0-1.228h33.931a.61.61 0 0 1 .614.614.616.616 0 0 1-.614.614M17.141 8.501a1.817 1.817 0 1 1 1.817-1.817 1.82 1.82 0 0 1-1.817 1.817m0-2.418a.59.59 0 0 0-.589.589.59.59 0 1 0 1.179 0 .58.58 0 0 0-.59-.59Zm4.223 2.418a1.817 1.817 0 1 1 1.817-1.817 1.82 1.82 0 0 1-1.817 1.817m0-2.418a.59.59 0 0 0-.589.589.589.589 0 1 0 .589-.589m4.211 2.418a1.817 1.817 0 1 1 1.817-1.817 1.82 1.82 0 0 1-1.817 1.817m0-2.418a.59.59 0 0 0-.589.589.59.59 0 1 0 1.179 0 .58.58 0 0 0-.59-.59Zm-6.556 50.944H5.614A.61.61 0 0 1 5 56.413V39.241a.61.61 0 0 1 .614-.614h9.981a.614.614 0 0 1 0 1.228H6.228v15.947h12.178V42.666a.614.614 0 0 1 1.228 0v13.761a.62.62 0 0 1-.615.6"/><path d="M19.02 43.267h-3.425a.61.61 0 0 1-.614-.614v-3.425a.6.6 0 0 1 .381-.565.58.58 0 0 1 .663.135l3.425 3.425a.608.608 0 0 1-.43 1.043Zm-2.811-1.228h1.326l-1.326-1.326Zm.346 3.426H8.069a.614.614 0 1 1 0-1.228h8.486a.614.614 0 1 1 0 1.228m0 2.345H8.069a.614.614 0 0 1 0-1.228h8.486a.614.614 0 0 1 0 1.228m0 2.344H8.069a.614.614 0 0 1 0-1.228h8.486a.614.614 0 0 1 0 1.228m0 2.333H8.069a.614.614 0 0 1 0-1.228h8.486a.614.614 0 0 1 0 1.228m0 2.345H8.069a.614.614 0 0 1 0-1.228h8.486a.614.614 0 0 1 0 1.228m20.228 2.195H23.378a.61.61 0 0 1-.614-.614V39.241a.61.61 0 0 1 .614-.614h9.981a.614.614 0 1 1 0 1.228h-9.367v15.947H36.17V42.666a.614.614 0 0 1 1.228 0v13.761a.62.62 0 0 1-.615.6"/><path d="M36.783 43.267h-3.425a.61.61 0 0 1-.614-.614v-3.425a.618.618 0 0 1 1.056-.43l3.425 3.425a.62.62 0 0 1 .135.675.65.65 0 0 1-.577.369m-2.811-1.228h1.326l-1.326-1.326Zm.347 3.426h-8.483a.614.614 0 1 1 0-1.228h8.483a.614.614 0 1 1 0 1.228m0 2.345h-8.483a.614.614 0 0 1 0-1.228h8.483a.614.614 0 0 1 0 1.228m0 2.344h-8.483a.614.614 0 0 1 0-1.228h8.483a.614.614 0 1 1 0 1.228m0 2.333h-8.483a.614.614 0 0 1 0-1.228h8.483a.614.614 0 1 1 0 1.228m0 2.345h-8.483a.614.614 0 0 1 0-1.228h8.483a.614.614 0 0 1 0 1.228m20.215 2.195H41.129a.61.61 0 0 1-.614-.614V39.241a.61.61 0 0 1 .614-.614h9.981a.614.614 0 0 1 0 1.228h-9.367v15.947h12.178V42.666a.614.614 0 1 1 1.228 0v13.761a.613.613 0 0 1-.615.6"/><path d="M54.535 43.267H51.11a.61.61 0 0 1-.614-.614v-3.425a.618.618 0 0 1 1.056-.43l3.425 3.425a.608.608 0 0 1-.442 1.043Zm-2.8-1.228h1.326l-1.325-1.321Zm.348 3.426H43.6a.614.614 0 1 1 0-1.228h8.483a.614.614 0 1 1 0 1.228m0 2.345H43.6a.614.614 0 0 1 0-1.228h8.483a.614.614 0 0 1 0 1.228m0 2.344H43.6a.614.614 0 0 1 0-1.228h8.483a.614.614 0 0 1 0 1.228m0 2.333H43.6a.614.614 0 0 1 0-1.228h8.483a.614.614 0 0 1 0 1.228m0 2.345H43.6a.614.614 0 0 1 0-1.228h8.483a.614.614 0 0 1 0 1.228M30.08 39.854a.61.61 0 0 1-.614-.614v-5.009a.614.614 0 1 1 1.228 0v5.009a.624.624 0 0 1-.614.614m-6.702 10.3H19.02a.614.614 0 0 1 0-1.228h4.358a.61.61 0 0 1 .614.614.616.616 0 0 1-.614.614m17.751 0h-4.358a.614.614 0 0 1 0-1.228h4.358a.614.614 0 0 1 0 1.228"/></g></svg>