<svg xmlns="http://www.w3.org/2000/svg" width="60" height="60"><defs><clipPath id="a"><path d="M0 0h60v60H0z"/></clipPath></defs><g fill="#282928" clip-path="url(#a)"><path d="M52.538 49.035a.9.9 0 0 1-.9-.9V19.31a.9.9 0 0 0-.9-.9H9.303a.9.9 0 0 0-.9.9v28.824a.9.9 0 1 1-1.8 0V19.31a2.705 2.705 0 0 1 2.7-2.7h41.434a2.705 2.705 0 0 1 2.7 2.7v28.824a.9.9 0 0 1-.899.901"/><path d="M23.822 40.345a.9.9 0 0 1-.593-.223l-5.51-4.82a.9.9 0 0 1 0-1.355l5.51-4.82a.9.9 0 0 1 1.182 1.352l-4.73 4.145 4.73 4.143a.9.9 0 0 1-.593 1.578Zm3.74 2.56a.9.9 0 0 1-.285-.047.9.9 0 0 1-.569-1.138l4.919-14.759a.901.901 0 0 1 1.71.569l-4.919 14.759a.91.91 0 0 1-.856.616m8.657-2.561a.9.9 0 0 1-.593-1.58l4.734-4.141-4.734-4.146a.9.9 0 0 1 1.185-1.356l5.51 4.82a.9.9 0 0 1 0 1.356l-5.51 4.82a.88.88 0 0 1-.593.223Zm16.319 15.892H7.5a4.51 4.51 0 0 1-4.5-4.5.9.9 0 0 1 .9-.9h19.816a.9.9 0 1 1 0 1.8H4.956a2.705 2.705 0 0 0 2.544 1.8h45.038a2.705 2.705 0 0 0 2.547-1.8h-18.76a.9.9 0 0 1 0-1.8h19.816a.9.9 0 0 1 .9.9 4.51 4.51 0 0 1-4.503 4.5M40.829 18.411a.9.9 0 0 1-.9-.9v-2.465l-1.834-.4a.9.9 0 0 1-.683-.67 8 8 0 0 0-.939-2.266.9.9 0 0 1 .013-.951L37.5 9.172l-.938-.942-1.587 1.016a.9.9 0 0 1-.951.011 7.5 7.5 0 0 0-2.25-.919.9.9 0 0 1-.686-.686L30.682 5.8H29.36l-.405 1.85a.9.9 0 0 1-.686.686 7.5 7.5 0 0 0-2.25.919.9.9 0 0 1-.951-.011L23.48 8.23l-.939.939 1.014 1.587a.9.9 0 0 1 .013.951 7.5 7.5 0 0 0-.919 2.252.9.9 0 0 1-.688.685l-2.558.558a.9.9 0 1 1-.382-1.758L21.037 13a9.3 9.3 0 0 1 .712-1.731L20.636 9.53a.9.9 0 0 1 .121-1.122l1.963-1.963a.9.9 0 0 1 1.122-.122l1.74 1.113a9.2 9.2 0 0 1 1.733-.71l.441-2.018A.9.9 0 0 1 28.634 4h2.772a.9.9 0 0 1 .879.708l.441 2.018a9.2 9.2 0 0 1 1.733.71l1.74-1.113a.9.9 0 0 1 1.122.122l1.963 1.963a.9.9 0 0 1 .121 1.122l-1.112 1.74a9.6 9.6 0 0 1 .719 1.73l2.009.441a.9.9 0 0 1 .71.879v3.19a.9.9 0 0 1-.9.9Z"/><path d="M25.873 18.366a.9.9 0 0 1-.829-.549 5.4 5.4 0 1 1 9.958-.005.901.901 0 0 1-1.661-.7 3.6 3.6 0 1 0-6.64 0 .9.9 0 0 1-.829 1.252Zm14.054 28.867a.9.9 0 0 1-.9-.9.98.98 0 0 1 .9-.991.83.83 0 0 1 .9.811v.18a.9.9 0 0 1-.9.9m3.603 0a.9.9 0 0 1-.9-.9.98.98 0 0 1 .9-.991.83.83 0 0 1 .9.811v.18a.9.9 0 0 1-.9.9m3.602 0a.9.9 0 0 1-.9-.9.98.98 0 0 1 .9-.991.83.83 0 0 1 .9.811v.18a.9.9 0 0 1-.9.9"/></g></svg>