<svg xmlns="http://www.w3.org/2000/svg" width="60" height="60"><defs><clipPath id="a"><path d="M0 0h60v60H0z"/></clipPath></defs><g fill="#282928" clip-path="url(#a)"><path d="M50.032 41.328v-3.489a4.36 4.36 0 0 0-4.355-4.355h-7.331a24.6 24.6 0 0 0 1.941-4.674l3.31-2.649a3.217 3.217 0 0 0-1.906-5.73l1.94-5.331A9.015 9.015 0 0 0 35.16 3h-7.395a29.5 29.5 0 0 0-15.646 4.487.871.871 0 0 0 .186 1.568l2.1.7a2.237 2.237 0 0 1 1.369 2.945 3.98 3.98 0 0 0 .135 3.257l2.245 4.486a3.213 3.213 0 0 0-1.749 5.714l3.31 2.649a24.6 24.6 0 0 0 1.939 4.674h-7.331a4.36 4.36 0 0 0-4.355 4.355v3.489A11.34 11.34 0 0 0 3 51.774v4.355a.87.87 0 0 0 .871.871h52.258a.87.87 0 0 0 .871-.871v-4.355a11.34 11.34 0 0 0-6.968-10.446M36.968 20.419h-5.226a.87.87 0 0 0-.871.871v.871h-1.742v-.871a.87.87 0 0 0-.871-.871h-7.839v-1.276l5.437-3.624a7.1 7.1 0 0 1 3.952-1.2 8.9 8.9 0 0 0 5.538-1.943l1.424-1.135 1.494 2.242a7.8 7.8 0 0 1 1.317 4.348v2.589Zm-.868 1.742v2.613a.87.87 0 0 1-.871.871h-1.745a.87.87 0 0 1-.871-.871v-2.613Zm-8.71 0v2.613a.87.87 0 0 1-.871.871h-1.745a.87.87 0 0 1-.871-.871v-2.613Zm15.677 1.481a1.48 1.48 0 0 1-.556 1.157l-1.581 1.262a24.5 24.5 0 0 0 .379-3.9h.275a1.48 1.48 0 0 1 1.481 1.481ZM17.391 13.351A3.98 3.98 0 0 0 14.957 8.1l-.267-.087a27.75 27.75 0 0 1 13.075-3.27h7.395a7.273 7.273 0 0 1 6.834 9.757l-.757 2.082a9.55 9.55 0 0 0-1.524-4.066l-2.021-3.035a.87.87 0 0 0-1.269-.2l-2.164 1.739a7.16 7.16 0 0 1-4.451 1.561 8.84 8.84 0 0 0-4.919 1.489l-5.824 3.883a1 1 0 0 0-.148.127l-1.449-2.9a2.24 2.24 0 0 1-.077-1.829m.1 11.45a1.481 1.481 0 0 1 .924-2.639h.273a24.5 24.5 0 0 0 .379 3.9Zm2.941-2.639h1.728v2.613a2.613 2.613 0 0 0 2.613 2.613h1.742a2.613 2.613 0 0 0 2.613-2.613V23.9h1.742v.871a2.613 2.613 0 0 0 2.613 2.613h1.742a2.613 2.613 0 0 0 2.613-2.613v-2.61h1.728a22.8 22.8 0 0 1-3.232 11.323H23.665a22.8 22.8 0 0 1-3.232-11.323Zm-6.109 13.064h31.354a2.613 2.613 0 0 1 2.613 2.613v17.419H11.71V37.839a2.613 2.613 0 0 1 2.613-2.613M4.742 51.774a9.6 9.6 0 0 1 5.226-8.529v12.013H4.742Zm50.516 3.484h-5.226V43.245a9.6 9.6 0 0 1 5.226 8.529Z"/><path d="M30 52a4 4 0 1 0-4-4 4 4 0 0 0 4 4m0-6a2 2 0 1 1-2 2 2 2 0 0 1 2-2m-5.549-1.119 1.414-1.414-3.293-3.293 3.293-3.293-1.414-1.414-4 4a1 1 0 0 0 0 1.414Zm11.098 0 4-4a1 1 0 0 0 0-1.414l-4-4-1.414 1.414 3.293 3.293-3.293 3.293Z"/><path d="m26.199 43.581 6-8 1.6 1.2-6 8z"/></g></svg>