<svg xmlns="http://www.w3.org/2000/svg" width="60" height="60"><defs><clipPath id="a"><path d="M0 0h60v60H0z"/></clipPath></defs><g fill="#282928" clip-path="url(#a)"><path d="m56.697 12.264-10.347-9A1.12 1.12 0 0 0 45.618 3H19.751a3.9 3.9 0 0 0-4.139 3.6v26.1h2.069V6.6a1.95 1.95 0 0 1 2.069-1.8h24.833v5.4a3.9 3.9 0 0 0 4.139 3.6h6.208v39.6a1.95 1.95 0 0 1-2.069 1.8h-33.11a2.25 2.25 0 0 1-1.379-.458l-1.38 1.341a4.5 4.5 0 0 0 2.76.917h33.111a3.9 3.9 0 0 0 4.139-3.6V12.9a.85.85 0 0 0-.3-.636ZM46.653 10.2V6.073L53.468 12h-4.745a1.95 1.95 0 0 1-2.07-1.8"/><path d="M19 6.603h3.6v1.8H19Zm8.355 0h6.305v1.8h-6.305Zm-8.356 3.603h5.4v1.8h-5.4ZM19 15.6h6.305v1.8H19Zm8.467 0h7.206v1.8h-7.206ZM19 19.2h8.107V21H19Zm7.519 3.599h9.008v1.8h-9.008Zm12.176 0h8.107v1.8h-8.107Zm11.099 0h3.6v1.8h-3.6Zm-30.795 3.6h9.008v1.8h-9.008Zm14.597 0h8.107v1.8h-8.107Zm11.694 0h8.107v1.8H45.29ZM19 29.999h13.512v1.8H19Zm19.695 0h8.107v1.8h-8.107Zm11.099 0h3.6v1.8h-3.6ZM27.298 47.092a.9.9 0 0 0-.9.9v5.4a.9.9 0 0 0 .9.9h5.4a.9.9 0 0 0 .9-.9v-5.4a.9.9 0 0 0-.9-.9Zm4.5 5.4h-3.6v-3.6h3.6Zm4.772.905a.9.9 0 0 0 .9.9h5.4a.9.9 0 0 0 .9-.9v-9.909a.9.9 0 0 0-.9-.9h-5.4a.9.9 0 0 0-.9.9Zm1.8-9.008h3.6v8.107h-3.6Zm9.622 9.909h5.4a.9.9 0 0 0 .9-.9V39.885a.9.9 0 0 0-.9-.9h-5.4a.9.9 0 0 0-.9.9v13.512a.9.9 0 0 0 .9.901m.9-13.512h3.6v11.71h-3.6ZM4.807 44.389a8.117 8.117 0 0 1 7.724-8.1l-1.155 1.155 1.274 1.274 2.7-2.7a.9.9 0 0 0 0-1.274l-2.7-2.7-1.274 1.274 1.172 1.172a9.909 9.909 0 0 0-4.589 18.483l.9-1.559a8.14 8.14 0 0 1-4.052-7.025m18.011.001a9.95 9.95 0 0 0-4.954-8.583l-.9 1.559a8.108 8.108 0 0 1-3.67 15.12l1.155-1.155-1.274-1.274-2.7 2.7a.9.9 0 0 0 0 1.274l2.7 2.7 1.274-1.274-1.172-1.172a9.92 9.92 0 0 0 9.541-9.895"/><path d="M13.547 45.036a.9.9 0 0 0 .264-.637v-4.504h-1.8v4.131l-2.439 2.438 1.274 1.274Z"/></g></svg>