<svg xmlns="http://www.w3.org/2000/svg" width="60" height="60"><defs><clipPath id="a"><path d="M0 0h60v60H0z"/></clipPath></defs><g clip-path="url(#a)"><path fill="#282928" d="M45.993 25.493h-1.409a16.6 16.6 0 0 0-6.205-8.882l-2.44-12.924A.844.844 0 0 0 35.11 3H22.193a.844.844 0 0 0-.829.687L18.921 16.61a16.54 16.54 0 0 0 0 26.779l2.442 12.924a.844.844 0 0 0 .83.687h12.918a.844.844 0 0 0 .829-.687l2.442-12.923a16.6 16.6 0 0 0 6.205-8.882h1.406a1.917 1.917 0 0 0 1.915-1.915v-5.185a1.917 1.917 0 0 0-1.915-1.915m-23.1-20.806h11.519l2.022 10.7a16.53 16.53 0 0 0-15.563 0Zm5.76 10.441a14.89 14.89 0 0 1 14.84 14.028H32.057a.844.844 0 0 0-.815.625l-1.565 5.84L25.733 20.9a.844.844 0 0 0-1.63 0l-2.21 8.256h-8.089a14.89 14.89 0 0 1 14.847-14.027Zm5.76 40.184h-11.52l-2.022-10.7a16.53 16.53 0 0 0 15.563 0Zm-5.76-10.441a14.89 14.89 0 0 1-14.849-14.027h8.733a.844.844 0 0 0 .815-.625l1.565-5.84L28.862 39.1a.844.844 0 0 0 1.63 0l2.212-8.256h10.789a14.89 14.89 0 0 1-14.842 14.027Zm17.571-12.279a.23.23 0 0 1-.228.227H44.97a16.6 16.6 0 0 0 0-5.64h1.023a.23.23 0 0 1 .228.227Z"/></g></svg>