<svg xmlns="http://www.w3.org/2000/svg" width="50" height="50" fill="none"><path fill="#000" d="M45.848 12.46h-.507a14 14 0 0 0-1.25-3.017l.36-.36c.412-.412.64-.962.64-1.547 0-.586-.228-1.136-.64-1.548l-2.4-2.398a2.17 2.17 0 0 0-1.55-.643c-.587 0-1.137.229-1.547.641l-.36.36a14 14 0 0 0-3.017-1.252v-.507A2.19 2.19 0 0 0 33.39 0h-3.394a2.19 2.19 0 0 0-2.19 2.189v.507c-1.05.3-2.061.719-3.018 1.253l-.358-.359a2.17 2.17 0 0 0-1.55-.643c-.587 0-1.137.229-1.547.641l-2.4 2.4a2.17 2.17 0 0 0-.639 1.548c0 .586.227 1.135.64 1.547l.36.36a14 14 0 0 0-1.252 3.017h-.508a2.19 2.19 0 0 0-2.19 2.189v3.396c0 1.207.983 2.19 2.19 2.19h.508a14 14 0 0 0 1.251 3.015l-.36.36a2.17 2.17 0 0 0-.639 1.548c0 .586.227 1.135.64 1.547l2.397 2.398c.412.415.962.643 1.55.643.586 0 1.136-.228 1.547-.64l.36-.36c.958.534 1.968.953 3.019 1.25v.509c0 1.207.982 2.189 2.189 2.189h3.393a2.19 2.19 0 0 0 2.19-2.19v-.508c1.05-.298 2.06-.716 3.016-1.25l.358.357c.412.415.962.643 1.549.643s1.137-.228 1.547-.64l2.403-2.4c.412-.413.639-.962.639-1.548s-.227-1.135-.639-1.547l-.36-.36c.532-.955.95-1.965 1.25-3.017h.507a2.19 2.19 0 0 0 2.189-2.189V14.65c0-1.207-.982-2.19-2.19-2.19M33.624 30.505a.24.24 0 0 1-.236.236h-3.393a.24.24 0 0 1-.236-.236V23.08a.98.98 0 0 0-.637-.916c-2.624-.973-4.387-3.499-4.387-6.284a6.71 6.71 0 0 1 3.16-5.676 7 7 0 0 1-.018.31c-.007.1-.013.178-.013.255v4.61a4.04 4.04 0 0 0 3.763 4.021 1 1 0 0 0 .13 0 4.04 4.04 0 0 0 3.76-4.022V10.77c0-.077-.006-.155-.014-.253a7 7 0 0 1-.017-.312q.096.055.219.14a6.71 6.71 0 0 1 2.94 5.535c0 2.786-1.762 5.311-4.384 6.285a.98.98 0 0 0-.637.915v7.425m12.46-12.46c0 .126-.11.236-.236.236h-1.265a.98.98 0 0 0-.953.761 12.2 12.2 0 0 1-1.592 3.84.98.98 0 0 0 .135 1.213l.897.897c.058.058.067.129.067.166a.23.23 0 0 1-.066.166l-2.406 2.402a.23.23 0 0 1-.164.067.23.23 0 0 1-.166-.069l-.897-.897a.98.98 0 0 0-1.213-.134c-.834.528-1.721.947-2.648 1.257v-4.22c3.03-1.41 5.022-4.482 5.022-7.85a8.66 8.66 0 0 0-3.791-7.148c-.364-.248-1.47-1.004-2.437-.448-.95.547-.855 1.829-.815 2.377l.008.11v4.608a2.08 2.08 0 0 1-1.872 2.068 2.083 2.083 0 0 1-1.875-2.068v-4.602q.001-.044.008-.117c.04-.547.136-1.828-.813-2.375-.967-.558-2.074.198-2.439.447a8.66 8.66 0 0 0-3.791 7.148c0 3.368 1.993 6.44 5.024 7.85v4.22c-.927-.31-1.815-.73-2.651-1.258a.974.974 0 0 0-1.213.135l-.898.9a.23.23 0 0 1-.165.066.23.23 0 0 1-.166-.069l-2.4-2.4a.23.23 0 0 1-.067-.166c0-.037.01-.108.067-.166l.897-.897a.98.98 0 0 0 .135-1.212 12.2 12.2 0 0 1-1.591-3.84.98.98 0 0 0-.953-.762h-1.268a.24.24 0 0 1-.236-.236v-3.397a.24.24 0 0 1 .236-.236h1.268a.98.98 0 0 0 .953-.762c.305-1.36.84-2.651 1.591-3.839a.98.98 0 0 0-.135-1.212l-.897-.897a.23.23 0 0 1-.067-.166c0-.038.01-.108.067-.167l2.402-2.402a.23.23 0 0 1 .165-.067.23.23 0 0 1 .166.07l.897.896a.98.98 0 0 0 1.212.135 12.2 12.2 0 0 1 3.843-1.595.98.98 0 0 0 .761-.952V2.189c0-.128.108-.236.236-.236h3.394c.128 0 .236.108.236.236v1.265c0 .457.316.852.76.953 1.365.308 2.657.844 3.84 1.594a.98.98 0 0 0 1.213-.135l.9-.899a.23.23 0 0 1 .163-.066.23.23 0 0 1 .167.069l2.402 2.4c.059.058.067.129.067.166a.23.23 0 0 1-.067.166l-.897.897a.98.98 0 0 0-.135 1.212 12.2 12.2 0 0 1 1.593 3.84c.1.446.496.762.952.762h1.265c.128 0 .236.108.236.236zM37.38 43a.977.977 0 1 0 1.38 1.38l.004-.002a.975.975 0 0 0-.002-1.38.98.98 0 0 0-1.382.002"/><path fill="#000" d="m41.905 33.539-7.753 3.981a3.6 3.6 0 0 0-2.597-1.105h-5.312c-.297 0-.37-.024-.375-.025a3 3 0 0 1-.288-.254l-.049-.045c-4.297-4.046-7.927-3.79-12.056-2.16-.668.264-.68.264-1.351.293h-1.202a2.6 2.6 0 0 0-2.461-1.779H4.555a2.595 2.595 0 0 0-2.59 2.593V45.29a2.593 2.593 0 0 0 2.59 2.59h3.906c1.145 0 2.12-.746 2.461-1.777h2.198c.194 0 .194 0 .42.064l.31.086 10.107 2.704c.445.12.854.238 1.249.353 1.295.375 2.383.69 3.518.69 1.282 0 2.623-.403 4.386-1.578l.025-.017 1.93-1.376a.976.976 0 1 0-1.134-1.59l-1.917 1.366c-2.559 1.703-3.645 1.388-6.265.629-.403-.117-.82-.238-1.285-.363l-10.107-2.704-.288-.08c-.369-.104-.507-.137-.95-.137h-2.065v-7.97h1.056l.042-.001.055-.003c.819-.035 1.048-.057 1.986-.427 3.625-1.431 6.424-1.601 10.001 1.766l.048.046c.612.574.964.808 2.001.808h5.312a1.66 1.66 0 0 1 1.45.856l.01.017c.127.234.2.502.2.786a1.66 1.66 0 0 1-1.66 1.656h-8.608a.977.977 0 0 0 0 1.953h8.609a3.614 3.614 0 0 0 3.524-4.396l7.717-3.964c.73-.375 1.73-.334 2.225.47.439.71.198 1.652-.56 2.193l-3.386 2.411a.977.977 0 1 0 1.133 1.591l3.386-2.411c1.608-1.147 2.075-3.215 1.089-4.81-.97-1.574-3.024-2.082-4.78-1.181M9.1 45.289a.647.647 0 0 1-.64.637H4.555a.646.646 0 0 1-.637-.637V35.04a.64.64 0 0 1 .637-.64h3.906c.347 0 .64.292.64.64z"/></svg>