<svg xmlns="http://www.w3.org/2000/svg" width="50" height="50" fill="none"><path fill="#000" d="M1.47 33.51a6.015 6.015 0 0 1 6.01-6.008h1.856v-.736a6.763 6.763 0 0 1 8.038-6.632l.125.024c.531.116 3.12.82 4.372 3.796l1.355-.571c-1.306-3.102-3.795-4.192-4.966-4.544a6.7 6.7 0 0 1 1.296-3.564l-1.184-.872a8.15 8.15 0 0 0-1.568 4.169 8 8 0 0 0-.713-.032c-4.288 0-7.82 3.298-8.193 7.49h-.419C3.355 26.03 0 29.387 0 33.51s3.355 7.48 7.48 7.48h23.403v-1.471H7.479a6.015 6.015 0 0 1-6.008-6.009M42.52 26.031h-.256a8.3 8.3 0 0 0-.686-2.626l.989-.99-1.501-1.5a7 7 0 0 0 .3-.724h2.123v-4.707h-2.122a7 7 0 0 0-.301-.724l1.5-1.5L39.24 9.93l-1.501 1.501a7 7 0 0 0-.724-.3V9.01h-4.706v2.122a7 7 0 0 0-.724.3l-1.501-1.5-1.801 1.8A8.3 8.3 0 0 0 25 11.05a8.2 8.2 0 0 0-5.527 2.133l.988 1.09A6.74 6.74 0 0 1 25 12.52c.741 0 1.46.116 2.146.347l-.391.391 1.5 1.501a7 7 0 0 0-.3.724h-2.122v4.707h2.122q.13.369.3.723l-1.5 1.501 3.328 3.328 1.5-1.5q.355.17.725.3v2.122h4.706v-2.122q.37-.13.724-.3l1.501 1.5 1.209-1.208c.249.713.378 1.47.378 2.231v.736h1.694a6.015 6.015 0 0 1 6.009 6.008 6.015 6.015 0 0 1-6.009 6.009H32.355v1.47H42.52c4.125 0 7.48-3.355 7.48-7.479s-3.355-7.479-7.48-7.479m-2.033-3.615-1.248 1.248-1.247-1.247-.49.286c-.444.26-.918.457-1.41.586l-.549.144v1.762h-1.765v-1.762l-.549-.144a5.6 5.6 0 0 1-1.41-.586l-.49-.286-1.246 1.247-1.248-1.248 1.247-1.247-.287-.49a5.6 5.6 0 0 1-.586-1.41l-.143-.549h-1.762v-1.765h1.762l.143-.549c.129-.491.326-.965.586-1.41l.287-.49-1.247-1.246 1.248-1.248 1.247 1.247.49-.287a5.6 5.6 0 0 1 1.41-.585l.548-.144V10.48h1.765v1.762l.55.143c.49.13.965.326 1.409.586l.49.287 1.247-1.247 1.248 1.248-1.247 1.247.287.49c.26.444.456.918.585 1.41l.144.548h1.762v1.765h-1.762l-.144.55a5.6 5.6 0 0 1-.585 1.409l-.287.49z"/><path fill="#000" d="M11.906 36.41c-.897 0-1.763-.365-2.317-.977l-.944.856c.791.874 2.01 1.395 3.26 1.395 1.487 0 2.78-.971 3.01-2.26.265-1.48-.908-2.476-2.094-2.913a43 43 0 0 1-2.238-.906.91.91 0 0 1-.37-.888c.062-.437.396-.787.89-.937 1.331-.4 2.527.567 2.538.577l.818-.978c-.07-.058-1.722-1.422-3.723-.82-.968.292-1.652 1.05-1.785 1.977-.124.862.25 1.69.973 2.163l.043.027.046.02c.046.021 1.137.507 2.367.96.923.341 1.39.885 1.281 1.494-.105.587-.756 1.21-1.755 1.21M38.577 36.41c-.896 0-1.762-.365-2.316-.977l-.945.856c.792.874 2.011 1.395 3.261 1.395 1.486 0 2.78-.971 3.01-2.26.265-1.48-.908-2.476-2.094-2.913a43 43 0 0 1-2.238-.906.91.91 0 0 1-.37-.888c.062-.437.395-.787.89-.937 1.331-.4 2.526.567 2.538.577l.818-.978c-.07-.058-1.722-1.422-3.723-.82-.968.292-1.652 1.05-1.785 1.977-.124.862.25 1.69.973 2.163l.043.027.046.02c.046.021 1.137.507 2.367.96.923.341 1.39.885 1.28 1.494-.104.587-.755 1.21-1.755 1.21M23.963 37.103v-6.444h-1.47v.332a3.56 3.56 0 0 0-2.11-.69 3.583 3.583 0 0 0-3.578 3.58 3.583 3.583 0 0 0 3.579 3.58c.788 0 1.516-.257 2.108-.69v.332zm-3.58-1.114a2.11 2.11 0 0 1-2.107-2.108 2.11 2.11 0 0 1 2.108-2.108 2.11 2.11 0 0 1 2.108 2.108 2.11 2.11 0 0 1-2.108 2.108M33.299 37.103v-6.444h-1.47v.332a3.56 3.56 0 0 0-2.11-.69 3.583 3.583 0 0 0-3.578 3.58 3.583 3.583 0 0 0 3.579 3.58 3.56 3.56 0 0 0 2.108-.69v.332zm-3.58-1.114a2.11 2.11 0 0 1-2.108-2.108 2.11 2.11 0 0 1 2.109-2.108 2.11 2.11 0 0 1 2.108 2.108 2.11 2.11 0 0 1-2.108 2.108M34.663 14.737c-1.71 0-3.1 1.391-3.1 3.1s1.39 3.101 3.1 3.101 3.1-1.39 3.1-3.1-1.39-3.1-3.1-3.1m0 4.73c-.899 0-1.63-.73-1.63-1.63 0-.898.731-1.629 1.63-1.629s1.63.731 1.63 1.63-.731 1.63-1.63 1.63"/></svg>