<svg xmlns="http://www.w3.org/2000/svg" width="50" height="50" fill="none"><path fill="#000" d="m22.365 33.172.3 2.095a.78.78 0 0 0 .773.67h3.125a.78.78 0 0 0 .773-.67l.3-2.095a8.5 8.5 0 0 0 1.28-.53l1.693 1.269a.78.78 0 0 0 1.02-.073l2.21-2.21a.78.78 0 0 0 .072-1.02l-1.27-1.692a8.5 8.5 0 0 0 .53-1.28l2.096-.3a.78.78 0 0 0 .67-.773v-3.125a.78.78 0 0 0-.67-.774l-2.095-.3a8.5 8.5 0 0 0-.53-1.28l1.269-1.693a.78.78 0 0 0-.073-1.02l-2.21-2.21a.776.776 0 0 0-1.02-.072l-1.692 1.27a8.5 8.5 0 0 0-1.28-.53l-.3-2.096a.78.78 0 0 0-.773-.67h-3.125a.78.78 0 0 0-.774.67l-.3 2.095a8.5 8.5 0 0 0-1.28.53l-1.693-1.269a.775.775 0 0 0-1.02.073l-2.21 2.21a.78.78 0 0 0-.072 1.02l1.27 1.692a8.5 8.5 0 0 0-.53 1.28l-2.096.3a.78.78 0 0 0-.67.773v3.125a.78.78 0 0 0 .67.774l2.095.3q.214.661.53 1.28l-1.269 1.693a.78.78 0 0 0 .073 1.02l2.21 2.21a.78.78 0 0 0 1.02.072l1.692-1.27q.619.319 1.28.53m-1.813-2.083-1.556 1.166-1.25-1.25 1.166-1.556a.78.78 0 0 0 .047-.867 7 7 0 0 1-.763-1.84.78.78 0 0 0-.646-.582l-1.925-.275v-1.77l1.924-.274a.78.78 0 0 0 .646-.582 7 7 0 0 1 .764-1.84.78.78 0 0 0-.048-.867l-1.166-1.556 1.25-1.25 1.556 1.166a.78.78 0 0 0 .867.047 7 7 0 0 1 1.84-.763.78.78 0 0 0 .582-.646l.275-1.925h1.77l.274 1.924a.78.78 0 0 0 .582.646 7 7 0 0 1 1.84.764.78.78 0 0 0 .867-.048l1.556-1.166 1.25 1.25-1.166 1.556a.78.78 0 0 0-.047.867 7 7 0 0 1 .763 1.84.78.78 0 0 0 .646.582l1.925.275v1.77l-1.924.274a.78.78 0 0 0-.646.582 7 7 0 0 1-.764 1.84.78.78 0 0 0 .048.867l1.166 1.556-1.25 1.25-1.556-1.166a.78.78 0 0 0-.867-.047 7 7 0 0 1-1.84.763.78.78 0 0 0-.582.646l-.275 1.925h-1.77l-.274-1.924a.78.78 0 0 0-.582-.646 7 7 0 0 1-1.84-.764.78.78 0 0 0-.867.048"/><path fill="#000" d="M25 29.688a4.687 4.687 0 1 0 0-9.375 4.687 4.687 0 0 0 0 9.375m0-7.813a3.125 3.125 0 1 1 0 6.25 3.125 3.125 0 0 1 0-6.25M25 5.469a.78.78 0 0 0 .78-.781v-.676l2.686 2.238-2.686 2.238v-.675A.78.78 0 0 0 25 7.03 18 18 0 0 0 8.597 17.65l1.425.64a16.45 16.45 0 0 1 14.195-9.677v1.544a.782.782 0 0 0 1.282.601l4.688-3.906a.78.78 0 0 0 0-1.202L25.5 1.743a.781.781 0 0 0-1.282.6v1.578A21.185 21.185 0 0 0 5.203 17.698l1.467.542A19.61 19.61 0 0 1 25 5.469M25.001 44.531a.78.78 0 0 0-.78.782v.675l-2.687-2.238 2.686-2.238v.676a.78.78 0 0 0 .781.78 18 18 0 0 0 16.401-10.617l-1.425-.64a16.45 16.45 0 0 1-14.194 9.678v-1.545a.782.782 0 0 0-1.282-.6l-4.688 3.905a.78.78 0 0 0 0 1.202l4.688 3.906a.79.79 0 0 0 .832.107.78.78 0 0 0 .45-.708V46.08a21.185 21.185 0 0 0 19.015-13.776l-1.467-.543a19.61 19.61 0 0 1-18.33 12.771M48.363 24.67a.78.78 0 0 0-.707-.45H46.08A21.19 21.19 0 0 0 32.302 5.205l-.542 1.466a19.61 19.61 0 0 1 12.771 18.329.78.78 0 0 0 .782.78h.675l-2.238 2.687-2.238-2.686h.675A.78.78 0 0 0 42.97 25 18.01 18.01 0 0 0 32.352 8.594l-.641 1.425a16.46 16.46 0 0 1 9.677 14.2h-1.544a.781.781 0 0 0-.601 1.282l3.906 4.688a.78.78 0 0 0 1.202 0l3.906-4.688a.78.78 0 0 0 .106-.832M7.032 25a17.91 17.91 0 0 0 9.801 16.01l.711-1.392A16.35 16.35 0 0 1 8.613 25.78h1.544a.781.781 0 0 0 .601-1.282l-3.906-4.687a.81.81 0 0 0-1.202 0l-3.906 4.687a.781.781 0 0 0 .6 1.282h1.578a21.04 21.04 0 0 0 12.969 18.695l.602-1.442A19.49 19.49 0 0 1 5.47 25a.78.78 0 0 0-.781-.781h-.676l2.238-2.686 2.238 2.686h-.675a.78.78 0 0 0-.782.78"/></svg>