<svg xmlns="http://www.w3.org/2000/svg" width="50" height="50" fill="none"><g fill="#000" clip-path="url(#a)"><path d="M39.063 33.594a5.475 5.475 0 0 0-5.47 5.468 5.475 5.475 0 0 0 5.47 5.47 5.475 5.475 0 0 0 5.468-5.47 5.475 5.475 0 0 0-5.468-5.468m0 9.375a3.91 3.91 0 0 1-3.907-3.907 3.91 3.91 0 0 1 3.907-3.906 3.91 3.91 0 0 1 3.906 3.907 3.91 3.91 0 0 1-3.907 3.906"/><path d="M39.063 36.719a2.347 2.347 0 0 0-2.344 2.343 2.347 2.347 0 0 0 2.343 2.344 2.347 2.347 0 0 0 2.344-2.343 2.347 2.347 0 0 0-2.343-2.344m0 3.125a.783.783 0 0 1-.782-.782.783.783 0 0 1 1.563 0c0 .431-.351.782-.782.782M2.827 20.313h.298V32.03h1.563V18.75H2.827a.483.483 0 0 1-.432-.698l2.642-5.285c.165-.329.699-.329.863 0l2.642 5.285a.483.483 0 0 1-.431.698H6.25v13.281h1.563V20.313h.298a2.047 2.047 0 0 0 1.83-2.96l-2.643-5.284a2.03 2.03 0 0 0-1.83-1.132c-.78 0-1.48.434-1.829 1.131L.997 17.352a2.047 2.047 0 0 0 1.83 2.96M14.577 22.306a2.03 2.03 0 0 0 1.83 1.131c.78 0 1.48-.433 1.829-1.13l2.642-5.284a2.047 2.047 0 0 0-1.83-2.96h-.298V2.342h-1.562v13.282h1.86a.483.483 0 0 1 .433.698l-2.643 5.285c-.165.329-.699.329-.863 0l-2.642-5.285a.483.483 0 0 1 .431-.698h1.861V2.344h-1.562v11.719h-.299a2.047 2.047 0 0 0-1.83 2.96z"/><path d="M45.313.781h-18.75a3.91 3.91 0 0 0-3.907 3.907v21.127a10.2 10.2 0 0 0-7.774 4.656l-.038-.002c-3.177 0-6.042 1.962-7.23 4.86A5.475 5.475 0 0 0 .78 40.625a5.475 5.475 0 0 0 5.47 5.469h25.481l.425.425a2.4 2.4 0 0 0 2.782.445.8.8 0 0 1 .683-.03q.151.066.305.126a.8.8 0 0 1 .465.506 2.4 2.4 0 0 0 2.282 1.653h.779c1.04 0 1.957-.664 2.282-1.653a.8.8 0 0 1 .464-.505 8 8 0 0 0 .307-.126.8.8 0 0 1 .682.03c.929.47 2.046.29 2.782-.446l.55-.55a2.4 2.4 0 0 0 .446-2.782.8.8 0 0 1-.03-.682q.066-.152.126-.305a.8.8 0 0 1 .506-.466 2.4 2.4 0 0 0 1.652-2.282V4.688A3.91 3.91 0 0 0 45.312.78m-18.75 1.563h18.75a2.347 2.347 0 0 1 2.343 2.344v31.74c-.031-.01-.06-.026-.09-.037a.8.8 0 0 1-.505-.464 7 7 0 0 0-.126-.307.8.8 0 0 1 .03-.682c.47-.929.29-2.047-.446-2.782l-.425-.425V5.468c0-.862-.701-1.563-1.563-1.563H27.344c-.862 0-1.563.701-1.563 1.563v20.59a10 10 0 0 0-1.562-.247V4.688a2.347 2.347 0 0 1 2.343-2.344m5.921 28.99a10.22 10.22 0 0 0-5.14-4.76V24.22H44.53v6.702a2.4 2.4 0 0 0-1.344.24.8.8 0 0 1-.683.029 10 10 0 0 0-.305-.126.8.8 0 0 1-.465-.506 2.4 2.4 0 0 0-2.282-1.652h-.779c-1.04 0-1.957.664-2.282 1.653a.8.8 0 0 1-.465.505q-.154.06-.306.126a.8.8 0 0 1-.682-.03 2.4 2.4 0 0 0-2.454.174m12.047-21.178H27.344V5.47H44.53zM27.344 11.72H44.53v4.687H27.344zm0 6.25H44.53v4.687H27.344zm-25 22.656a3.91 3.91 0 0 1 5.444-3.59l.812.347.247-.848a6.28 6.28 0 0 1 5.997-4.503c2.09 0 4.033 1.04 5.197 2.778l1.299-.868a7.8 7.8 0 0 0-4.7-3.257 8.63 8.63 0 0 1 6.797-3.34c3.417 0 6.525 2.061 7.88 5.17a2.39 2.39 0 0 0-.156 2.423c.112.22.122.47.03.683q-.066.152-.126.305a.8.8 0 0 1-.506.466 2.4 2.4 0 0 0-1.653 2.282v.779c0 1.04.664 1.957 1.653 2.282a.8.8 0 0 1 .505.464q.06.154.126.307a.8.8 0 0 1-.03.682 2.4 2.4 0 0 0-.239 1.344H6.25a3.91 3.91 0 0 1-3.906-3.906m45.312-1.173a.84.84 0 0 1-.578.797 2.36 2.36 0 0 0-1.473 1.385 8 8 0 0 1-.103.248 2.36 2.36 0 0 0 .068 2.01.84.84 0 0 1-.155.971l-.55.551a.84.84 0 0 1-.973.155 2.36 2.36 0 0 0-2.008-.067q-.123.053-.251.103a2.36 2.36 0 0 0-1.384 1.474.84.84 0 0 1-.797.577h-.779a.84.84 0 0 1-.797-.578 2.36 2.36 0 0 0-1.385-1.473 8 8 0 0 1-.248-.103 2.3 2.3 0 0 0-.927-.193c-.37 0-.74.088-1.082.26a.84.84 0 0 1-.972-.155l-.551-.55a.84.84 0 0 1-.155-.973 2.36 2.36 0 0 0 .067-2.008l-.103-.251a2.36 2.36 0 0 0-1.474-1.384.84.84 0 0 1-.577-.796v-.779c0-.363.232-.683.577-.797a2.36 2.36 0 0 0 1.474-1.385 8 8 0 0 1 .103-.248 2.36 2.36 0 0 0-.068-2.01.84.84 0 0 1 .155-.972l.55-.55a.83.83 0 0 1 .973-.155c.637.321 1.37.346 2.008.067q.125-.053.25-.102a2.36 2.36 0 0 0 1.385-1.474.84.84 0 0 1 .797-.578h.779c.363 0 .683.232.797.578a2.36 2.36 0 0 0 1.384 1.473q.125.05.249.103c.64.278 1.373.253 2.01-.068a.84.84 0 0 1 .972.155l.55.55c.257.257.32.649.155.973a2.36 2.36 0 0 0-.067 2.008q.053.123.103.251c.254.656.792 1.16 1.474 1.384a.84.84 0 0 1 .577.797v.779"/><path d="M28.906 7.031h1.563v1.563h-1.563zM32.031 7.031h1.563v1.563H32.03zM28.906 19.531h1.563v1.563h-1.563zM32.031 19.531h1.563v1.563H32.03zM41.406 13.281h1.563v1.563h-1.563zM38.281 13.281h1.563v1.563H38.28zM41.406 25.781h1.563v1.563h-1.563zM38.281 25.781h1.563v1.563H38.28zM23.438 28.906c-.596 0-1.187.075-1.758.222l.39 1.513a5.466 5.466 0 0 1 6.665 3.929l1.513-.39a7.03 7.03 0 0 0-6.81-5.274M14.844 33.594a4.7 4.7 0 0 0-4.594 3.75l1.531.312a3.13 3.13 0 0 1 3.063-2.5 3.1 3.1 0 0 1 2.5 1.251l1.25-.938a4.65 4.65 0 0 0-3.75-1.875"/></g><defs><clipPath id="a"><path fill="#fff" d="M0 0h50v50H0z"/></clipPath></defs></svg>