<svg xmlns="http://www.w3.org/2000/svg" width="50" height="50" fill="none"><g fill="#000" fill-rule="evenodd" clip-path="url(#a)" clip-rule="evenodd"><path d="M17.13 30.586h10.59a.79.79 0 0 0 0-1.58H17.13a.79.79 0 0 0 0 1.58"/><path d="M23.793 29.796v19.007a.79.79 0 0 0 1.579 0V29.796a.79.79 0 0 0-1.579 0M6.884.407a5.57 5.57 0 0 0-5.568 5.569 5.57 5.57 0 0 0 5.568 5.568 5.57 5.57 0 0 0 5.569-5.568A5.57 5.57 0 0 0 6.884.407m0 1.58a3.99 3.99 0 0 1 3.99 3.989 3.99 3.99 0 0 1-3.99 3.989 3.99 3.99 0 0 1-3.989-3.99 3.99 3.99 0 0 1 3.99-3.989M43.115.407a5.57 5.57 0 0 0-5.568 5.569 5.57 5.57 0 0 0 5.568 5.568 5.57 5.57 0 0 0 5.568-5.568A5.57 5.57 0 0 0 43.115.407m0 1.58a3.99 3.99 0 0 1 3.99 3.989 3.99 3.99 0 0 1-3.99 3.989 3.99 3.99 0 0 1-3.99-3.99 3.99 3.99 0 0 1 3.99-3.989M11.237 22.872c.13.263.402.438.707.438l.293-.057 7.27-2.905a2.184 2.184 0 0 1 2.837 1.216 2.184 2.184 0 0 1-1.217 2.837l-9.6 3.838a2.18 2.18 0 0 1-2.544-.7.79.79 0 0 0-1.417.478v3.965c0 .4.3.738.698.784l6.39.738a2.993 2.993 0 0 1 2.65 2.974v12.325a.79.79 0 0 0 1.58 0V36.478a4.57 4.57 0 0 0-4.049-4.542l-5.69-.658V29.63c.91.418 1.98.47 2.968.075l9.6-3.837a3.764 3.764 0 0 0 2.097-4.89 3.763 3.763 0 0 0-4.889-2.097l-6.65 2.659-3.82-6.253a3.76 3.76 0 0 0-2.432-1.72l-.094-.019a3.762 3.762 0 0 0-4.528 3.394L.002 35.292l-.002.06a4.57 4.57 0 0 0 4.041 4.542l5.697.736v8.173a.79.79 0 0 0 1.58 0v-8.867a.79.79 0 0 0-.69-.784l-6.4-.825a2.994 2.994 0 0 1-2.65-2.942l1.393-18.323a2.182 2.182 0 0 1 2.628-1.97l.093.02a2.18 2.18 0 0 1 1.41.998l4.087 6.69q.024.038.048.072"/><path d="m4.971 24.02 2.537 4.153a3.76 3.76 0 0 0 4.607 1.532.79.79 0 0 0-.586-1.466 2.18 2.18 0 0 1-2.673-.889l-2.537-4.153a.79.79 0 0 0-1.348.823M37 22.736l-7.644 1.081a3.763 3.763 0 0 0-3.198 4.252 3.764 3.764 0 0 0 4.252 3.198l9.402-1.33a3.8 3.8 0 0 0 1.045-.307v1.648l-5.69.657a4.57 4.57 0 0 0-4.049 4.543v12.325a.79.79 0 0 0 1.58 0V36.478c0-1.521 1.14-2.8 2.65-2.974l6.387-.738h-.001a.79.79 0 0 0 .702-.784v-3.966a.79.79 0 0 0-1.417-.479 2.18 2.18 0 0 1-1.428.836l-9.402 1.33a2.183 2.183 0 0 1-.612-4.323l8.011-1.133-.108.008.674-.378 4.271-6.992a2.79 2.79 0 0 1 2.592-1.328l.043.003a2.79 2.79 0 0 1 2.579 2.656l.783 17.154a2.994 2.994 0 0 1-2.65 2.956l-6.266.724a.79.79 0 0 0-.699.773l-.123 8.969a.79.79 0 0 0 1.579.021l.113-8.275 5.578-.643A4.573 4.573 0 0 0 50 35.316l-.784-17.172a4.37 4.37 0 0 0-4.037-4.158l-.043-.004a4.37 4.37 0 0 0-4.058 2.08zM32.458 2.776A2.37 2.37 0 0 0 30.09.407H19.076a2.37 2.37 0 0 0-2.369 2.369v10.033a1.316 1.316 0 0 0 2.18.992l2.426-2.114a.8.8 0 0 1 .519-.194h8.258a2.37 2.37 0 0 0 2.368-2.368zM18.286 12.23V2.776a.79.79 0 0 1 .79-.79H30.09a.79.79 0 0 1 .79.79v6.349a.79.79 0 0 1-.79.789h-8.258a2.37 2.37 0 0 0-1.556.583z"/><path d="M21.063 5.298h7.154a.79.79 0 0 0 0-1.58h-7.154a.79.79 0 0 0 0 1.58M21.063 8.177h3.517a.79.79 0 0 0 0-1.58h-3.517a.79.79 0 0 0 0 1.58M37.44 30.272l2.372-.336a3.76 3.76 0 0 0 2.683-1.763l2.537-4.153a.79.79 0 0 0-1.347-.823l-2.537 4.153c-.34.556-.912.932-1.557 1.023l-2.373.336a.79.79 0 0 0 .222 1.563"/></g><defs><clipPath id="a"><path fill="#fff" d="M0 0h50v50H0z"/></clipPath></defs></svg>