<svg xmlns="http://www.w3.org/2000/svg" width="50" height="50" fill="none"><g fill="#000" clip-path="url(#a)"><path d="M39.868 13.349a11.664 11.664 0 0 0-22.29-6.207 7.505 7.505 0 0 0-11.352 8.58 10.002 10.002 0 0 0 3.77 19.265h.834a.833.833 0 1 0 0-1.666h-.833a8.335 8.335 0 0 1-2.43-16.307.835.835 0 0 0 .505-1.161 5.836 5.836 0 0 1 9.313-6.724.832.832 0 0 0 1.375-.363 9.998 9.998 0 0 1 19.295 5.21.832.832 0 0 0 .878 1.022c.075-.006.144-.006.223-.006a9.164 9.164 0 1 1 0 18.329.833.833 0 0 0 0 1.666 10.83 10.83 0 0 0 .712-21.638"/><path d="M36.625 40.13a.7.7 0 0 0 .03-.145V35.82a5.832 5.832 0 1 0-11.664 0v8.33a4.166 4.166 0 1 1-8.332 0v-9.317a2.5 2.5 0 0 0 1.667-2.346v-1.276a7.6 7.6 0 0 0 2.807-1.75 7.48 7.48 0 0 0 2.191-5.305v-2.5c0-.92-.746-1.666-1.666-1.666h-1.666a.833.833 0 0 0 0 1.667h1.666v2.499a5.833 5.833 0 1 1-11.664 0v-2.5h1.667a.833.833 0 1 0 0-1.666H9.994c-.92 0-1.666.746-1.666 1.667v2.499a7.5 7.5 0 0 0 4.999 7.072v1.26a2.5 2.5 0 0 0 1.666 2.345v9.318a5.832 5.832 0 0 0 11.664 0V35.82a4.166 4.166 0 0 1 8.331 0v4.165a.7.7 0 0 0 .03.145 2.5 2.5 0 1 0 1.607 0M16.66 32.487a.833.833 0 1 1-1.666 0v-.88a7.5 7.5 0 0 0 1.666 0zm19.162 10.83a.833.833 0 1 1 0-1.665.833.833 0 0 1 0 1.666"/></g><defs><clipPath id="a"><path fill="#fff" d="M0 0h50v50H0z"/></clipPath></defs></svg>