<svg xmlns="http://www.w3.org/2000/svg" width="50" height="50" fill="none"><g clip-path="url(#a)"><path fill="#000" d="m25.874 6.656-.428 2.236c-.075.397.08.79.406 1.027a1.02 1.02 0 0 0 1.102.069l1.994-1.098 1.995 1.098a1.025 1.025 0 0 0 1.101-.07 1.02 1.02 0 0 0 .406-1.026l-.428-2.236 1.66-1.557c.295-.276.4-.686.276-1.069a1.02 1.02 0 0 0-.851-.703l-2.259-.284-.968-2.06a1.02 1.02 0 0 0-.932-.592c-.403 0-.76.226-.931.591l-.968 2.06-2.26.285c-.4.05-.725.32-.85.703a1.02 1.02 0 0 0 .275 1.069zm1.719-2.304a.68.68 0 0 0 .533-.387l.822-1.75.823 1.75c.1.212.3.358.533.387l1.919.241-1.41 1.324a.68.68 0 0 0-.204.627l.363 1.9-1.694-.934a.68.68 0 0 0-.66 0l-1.694.933.364-1.9a.68.68 0 0 0-.204-.626l-1.41-1.324zm-13.394 6.813 2.217.52.747 2.15a1.02 1.02 0 0 0 .976.691c.359 0 .688-.184.877-.497l1.179-1.948 2.276-.046a1.02 1.02 0 0 0 .92-.61 1.02 1.02 0 0 0-.162-1.092L21.74 8.61l.66-2.179a1.02 1.02 0 0 0-.297-1.063 1.02 1.02 0 0 0-1.088-.184l-2.099.884-1.868-1.3a1.02 1.02 0 0 0-1.103-.047 1.02 1.02 0 0 0-.511.978l.192 2.269-1.814 1.375a1.02 1.02 0 0 0-.385 1.034c.083.395.38.697.772.788m2.553-2.335a.68.68 0 0 0 .268-.603L16.857 6.3l1.587 1.105c.193.134.44.16.656.069l1.783-.75-.56 1.85a.68.68 0 0 0 .137.646l1.264 1.463-1.933.04a.68.68 0 0 0-.571.329l-1.001 1.655-.635-1.827a.68.68 0 0 0-.49-.441l-1.884-.44zm18.674 3.205 2.276.046 1.178 1.948a1.02 1.02 0 0 0 .989.491 1.02 1.02 0 0 0 .864-.685l.748-2.151 2.216-.519a1.02 1.02 0 0 0 .773-.788 1.02 1.02 0 0 0-.385-1.034L42.27 7.967l.191-2.268a1.02 1.02 0 0 0-.51-.978 1.02 1.02 0 0 0-1.103.046l-1.869 1.3-2.098-.883a1.02 1.02 0 0 0-1.088.184c-.3.27-.414.677-.297 1.063l.66 2.179-1.49 1.723a1.02 1.02 0 0 0-.16 1.091c.163.369.516.603.919.61m2.011-2.816a.68.68 0 0 0 .137-.645l-.56-1.85 1.782.75c.216.09.464.065.656-.069L41.04 6.3l-.163 1.927c-.02.234.081.461.268.603l1.541 1.168-1.883.44a.68.68 0 0 0-.49.442l-.635 1.826-1-1.654a.68.68 0 0 0-.572-.33l-1.934-.04zm2.632 23.326c-1.73.999-6.003 3.084-9.242 4.322a2.55 2.55 0 0 0-.33-1.745 2.54 2.54 0 0 0-2.298-1.261c-4.013-.002-6.611-1.08-8.904-2.031-2.098-.87-3.909-1.622-6.06-1.101-2.159.523-4.454 2.305-7.41 5.763a2.11 2.11 0 0 0-2.366.422L.642 39.732a.684.684 0 0 0 0 .967l8.71 8.71a.684.684 0 0 0 .966 0l2.818-2.818a2.1 2.1 0 0 0 .615-1.489c0-.244-.043-.482-.122-.705 1.778-.732 3.764-.795 6.297-.644.575.035 1.18.083 1.82.135 1.52.122 3.091.249 4.611.215 3.2-.07 5.123-.968 7.693-2.33 2.616-1.385 8.197-4.696 9.242-6.07.752-.989.793-2.131.106-2.912-.63-.715-1.904-1.069-3.329-.246m-27.9 13.08-2.334 2.334-7.743-7.744 2.334-2.334a.74.74 0 0 1 1.045 0l6.698 6.699a.73.73 0 0 1 .215.522.73.73 0 0 1-.215.523m30.035-10.75c-.729.958-5.407 3.896-8.794 5.69-2.397 1.27-4.185 2.107-7.083 2.171-1.45.032-2.987-.091-4.472-.211-.647-.052-1.258-.102-1.847-.137-2.27-.135-4.864-.184-7.216.88l-5.91-5.909c2.713-3.17 4.84-4.857 6.675-5.301 1.717-.416 3.26.224 5.214 1.035 2.293.951 5.148 2.135 9.44 2.135h.026c.449-.017.854.204 1.084.592.23.389.232.85.002 1.236-.425.717-1.984 1.087-4.17.992-2.06-.09-4.131-.581-4.943-1.004a.683.683 0 1 0-.631 1.213c1.071.558 3.741 1.181 6.212 1.181 1.202 0 2.357-.148 3.257-.523 3.286-.922 9.44-3.878 11.704-5.186.752-.434 1.366-.322 1.62-.034.244.278.182.72-.169 1.18m6.673-16.791h-10.17c-1.6-3.812-5.372-6.497-9.759-6.497-4.386 0-8.158 2.684-9.759 6.497H9.19a.684.684 0 0 0 0 1.367h9.533a10.5 10.5 0 0 0-.331 2.032H12.06a.684.684 0 0 0 0 1.367h6.332q.069 1.049.331 2.033h-4.637a.684.684 0 0 0 0 1.367h5.103c1.601 3.812 5.373 6.496 9.76 6.496s8.158-2.684 9.759-6.496h5.273a.684.684 0 1 0 0-1.367h-4.807q.262-.984.331-2.033h6.502a.684.684 0 0 0 0-1.367h-6.502a10.5 10.5 0 0 0-.331-2.032h9.703a.684.684 0 1 0 0-1.367m-19.929-5.13c5.08 0 9.213 4.133 9.213 9.213a9.16 9.16 0 0 1-1.846 5.525 7.785 7.785 0 0 0-4.805-4.8 4.07 4.07 0 0 0 1.511-3.165 4.077 4.077 0 0 0-4.072-4.072 4.077 4.077 0 0 0-4.073 4.073c0 1.275.59 2.415 1.51 3.163a7.79 7.79 0 0 0-4.804 4.8 9.16 9.16 0 0 1-1.845-5.524c0-5.08 4.132-9.212 9.212-9.212m0 9.48a2.71 2.71 0 0 1-2.705-2.707 2.71 2.71 0 0 1 2.706-2.705 2.71 2.71 0 0 1 2.705 2.706 2.71 2.71 0 0 1-2.706 2.705m-6.286 6.46a6.396 6.396 0 0 1 6.286-5.07 6.396 6.396 0 0 1 6.287 5.07 9.18 9.18 0 0 1-6.286 2.485 9.18 9.18 0 0 1-6.287-2.486"/></g><defs><clipPath id="a"><path fill="#fff" d="M0 0h50v50H0z"/></clipPath></defs></svg>