<svg xmlns="http://www.w3.org/2000/svg" width="50" height="50" fill="none"><g fill="#000" clip-path="url(#a)"><path d="M50 16.67a7.49 7.49 0 0 0-5.833-7.313v-.185a5.84 5.84 0 0 0-5.833-5.833c-.631 0-1.26.104-1.857.31A9.149 9.149 0 0 0 20.741 5.6a9.158 9.158 0 0 0-14.07 7.737v.046a7.499 7.499 0 0 0 .833 14.952H29.17a7.5 7.5 0 0 0 6.708-4.166H42.5A7.507 7.507 0 0 0 50 16.67m-20.831 10H7.504a5.832 5.832 0 1 1 .043-11.666.833.833 0 0 0 .83-.916q-.039-.375-.04-.75a7.495 7.495 0 0 1 13.804-4.051.833.833 0 0 0 1.062.299 4.1 4.1 0 0 1 1.8-.414 4.17 4.17 0 0 1 4.166 4.166q-.001.369-.07.731a.833.833 0 0 0 .728.976 5.832 5.832 0 0 1-.658 11.625m1.666-13.144v-.188a5.84 5.84 0 0 0-5.832-5.833c-.633 0-1.26.104-1.86.308a9 9 0 0 0-1.036-1.135 7.487 7.487 0 0 1 13.369-1.555.83.83 0 0 0 1.065.298 4.1 4.1 0 0 1 1.793-.416 4.135 4.135 0 0 1 4.096 4.898.834.834 0 0 0 .727.971 5.833 5.833 0 0 1-.656 11.63h-6.026a7.47 7.47 0 0 0-5.64-8.978M42.5 29.169h1.666v5H42.5zM42.5 35.835h1.666v1.666H42.5zM46.668 33.335h1.666v3.333h-1.666zM46.668 38.335h1.666v1.666h-1.666zM46.668 41.668h1.666v1.666h-1.666zM38.336 34.169h1.666v5h-1.666zM38.336 40.834h1.666V42.5h-1.666zM38.336 45.834h1.666V47.5h-1.666zM5.84 31.669h1.666v5H5.84zM5.84 38.335h1.666v1.666H5.84zM1.672 35.002h1.666v3.333H1.672zM1.672 40.001h1.666v1.666H1.672zM1.672 43.334h1.666V45H1.672zM10.004 34.169h1.666v5h-1.666zM10.004 40.834h1.666V42.5h-1.666zM10.004 45.834h1.666V47.5h-1.666zM19.414 44.411l10-9.999 1.178 1.178-10 10zM28.336 40.834a2.5 2.5 0 1 0 0 5 2.5 2.5 0 0 0 0-5m0 3.333a.833.833 0 1 1 0-1.667.833.833 0 0 1 0 1.667M21.668 39.168a2.5 2.5 0 1 0 0-4.998 2.5 2.5 0 0 0 0 4.998m0-3.333a.833.833 0 1 1 0 1.666.833.833 0 0 1 0-1.666"/><path d="M25.003 30.002c-5.523 0-10 4.477-10 9.999S19.48 50 25.004 50s9.999-4.477 9.999-10c-.006-5.519-4.48-9.992-10-9.998m0 18.331a8.333 8.333 0 1 1 8.332-8.332 8.34 8.34 0 0 1-8.332 8.332"/></g><defs><clipPath id="a"><path fill="#fff" d="M0 0h50v50H0z"/></clipPath></defs></svg>