<svg xmlns="http://www.w3.org/2000/svg" width="50" height="50" fill="none"><path fill="#000" d="M27.344 6.25h-4.688a.782.782 0 0 1 0-1.562h4.688a.782.782 0 0 1 0 1.562M33.594 48.438H16.406A3.91 3.91 0 0 1 12.5 44.53V17.97a.782.782 0 0 1 1.563 0V44.53a2.347 2.347 0 0 0 2.343 2.344h17.188a2.347 2.347 0 0 0 2.343-2.344V17.97a.782.782 0 0 1 1.563 0V44.53a3.91 3.91 0 0 1-3.906 3.907"/><path fill="#000" d="M36.719 23.438a.78.78 0 0 1-.782-.782V5.47a2.347 2.347 0 0 0-2.343-2.344H16.406a2.347 2.347 0 0 0-2.343 2.344v17.187a.782.782 0 0 1-1.563 0V5.47a3.91 3.91 0 0 1 3.906-3.907h17.188A3.91 3.91 0 0 1 37.5 5.47v17.187c0 .431-.35.782-.781.782M41.406 9.453c-.431 0-.781-.272-.781-.703v-.156a.782.782 0 0 1 1.563 0c0 .431-.35.86-.782.86M41.406 12.578c-.431 0-.781-.272-.781-.703v-.156a.782.782 0 0 1 1.563 0c0 .431-.35.86-.782.86M41.406 15.703c-.431 0-.781-.272-.781-.703v-.156a.782.782 0 0 1 1.563 0c0 .431-.35.86-.782.86M8.594 35.86c-.431 0-.781-.273-.781-.704V35a.782.782 0 0 1 1.562 0c0 .431-.35.86-.781.86M8.594 38.984c-.431 0-.781-.272-.781-.703v-.156a.782.782 0 0 1 1.562 0c0 .431-.35.86-.781.86M8.594 42.11c-.431 0-.781-.273-.781-.704v-.156a.782.782 0 0 1 1.562 0c0 .431-.35.86-.781.86"/><path fill="#000" d="M38.814 42.188a.78.78 0 0 1-.764-.945l.516-2.391a.78.78 0 0 1 .58-.594 7.5 7.5 0 0 0 2.135-.892.78.78 0 0 1 .827.007l1.547.99.957-.966-.989-1.535a.78.78 0 0 1-.01-.83c.414-.679.714-1.398.89-2.135a.78.78 0 0 1 .59-.581l1.782-.396v-1.339l-1.78-.395a.78.78 0 0 1-.59-.581 7.5 7.5 0 0 0-.89-2.136.78.78 0 0 1 .008-.828l.991-1.549-.956-.956-1.549.99a.78.78 0 0 1-.826.008 7.5 7.5 0 0 0-2.136-.892.78.78 0 0 1-.58-.594l-.384-1.773H37.5a.782.782 0 0 1 0-1.562h1.313a.78.78 0 0 1 .762.617l.417 1.926a9 9 0 0 1 1.674.7l1.678-1.073a.78.78 0 0 1 .973.106l1.846 1.844a.78.78 0 0 1 .104.973l-1.073 1.678q.439.816.7 1.677l1.93.428c.359.08.614.398.614.764v2.594a.78.78 0 0 1-.613.762l-1.93.428a9 9 0 0 1-.7 1.675l1.072 1.663c.2.308.158.714-.101.973l-1.846 1.86a.78.78 0 0 1-.975.108l-1.678-1.074a9 9 0 0 1-1.673.7l-.417 1.927a.78.78 0 0 1-.763.618"/><path fill="#000" d="M39.675 35.278a.78.78 0 0 1-.434-1.43 3.13 3.13 0 0 0 1.386-2.598 3.128 3.128 0 0 0-3.75-3.062.78.78 0 1 1-.314-1.531 4.693 4.693 0 0 1 5.627 4.594c0 1.563-.777 3.02-2.08 3.894a.8.8 0 0 1-.435.133M12.5 23.437a4.693 4.693 0 0 1-4.687-4.687c0-1.57.78-3.028 2.09-3.903a.782.782 0 0 1 .866 1.3 3.13 3.13 0 0 0-1.394 2.603 3.128 3.128 0 0 0 3.738 3.064.785.785 0 0 1 .92.612.78.78 0 0 1-.613.92q-.446.09-.92.091"/><path fill="#000" d="M12.5 29.687h-1.312a.78.78 0 0 1-.763-.617l-.417-1.926a9 9 0 0 1-1.674-.7l-1.678 1.073a.78.78 0 0 1-.973-.106l-1.845-1.844a.78.78 0 0 1-.105-.973l1.073-1.678a9 9 0 0 1-.7-1.677l-1.93-.428a.78.78 0 0 1-.614-.764v-2.594a.78.78 0 0 1 .613-.762l1.93-.429a9 9 0 0 1 .7-1.675l-1.07-1.664a.78.78 0 0 1 .1-.973l1.846-1.86a.78.78 0 0 1 .975-.107l1.678 1.073a9 9 0 0 1 1.674-.7l.417-1.926a.78.78 0 1 1 1.527.33l-.516 2.39a.78.78 0 0 1-.58.594 7.5 7.5 0 0 0-2.137.892.78.78 0 0 1-.827-.008l-1.547-.989-.96.966.99 1.534a.78.78 0 0 1 .01.83 7.4 7.4 0 0 0-.89 2.136.78.78 0 0 1-.59.58l-1.78.395v1.339l1.78.395c.292.066.52.29.59.581.177.738.478 1.457.89 2.136a.78.78 0 0 1-.008.828l-.991 1.547.956.956 1.549-.99a.78.78 0 0 1 .826-.008c.681.414 1.4.714 2.136.892.292.07.517.302.58.594l.384 1.775h.683a.782.782 0 0 1 0 1.562M24.219 28.906a.78.78 0 0 1-.758-.97l1.563-6.25a.775.775 0 0 1 .947-.569.78.78 0 0 1 .568.947l-1.562 6.25a.78.78 0 0 1-.758.592M28.907 28.906a.782.782 0 0 1-.553-1.333L30.927 25l-2.572-2.572a.782.782 0 0 1 1.105-1.105l3.125 3.125c.304.305.304.8 0 1.105l-3.125 3.125a.79.79 0 0 1-.553.228M21.094 28.906c-.2 0-.4-.076-.553-.228l-3.125-3.125a.78.78 0 0 1 0-1.105l3.125-3.125a.782.782 0 0 1 1.105 1.105L19.074 25l2.572 2.572a.782.782 0 0 1-.552 1.334"/></svg>