<svg xmlns="http://www.w3.org/2000/svg" width="50" height="50" fill="none"><g fill="#000" clip-path="url(#a)"><path d="M46.485 0H3.513A3.5 3.5 0 0 0 .016 3.497v33.58a3.5 3.5 0 0 0 3.497 3.498h15.501v7.96h-2.827a.733.733 0 1 0 0 1.465H33.81a.733.733 0 1 0 0-1.465h-2.827V46.02a.733.733 0 1 0-1.465 0v2.515h-9.039v-7.96h9.039v2.004a.733.733 0 1 0 1.465 0v-2.004h15.502a3.5 3.5 0 0 0 3.497-3.497V3.498A3.5 3.5 0 0 0 46.485 0M1.48 3.497c0-1.12.911-2.032 2.032-2.032h42.972c1.12 0 2.032.912 2.032 2.032v28.004H1.48zm47.036 33.58c0 1.121-.912 2.033-2.032 2.033H3.513a2.034 2.034 0 0 1-2.032-2.032v-4.112h47.036z"/><path d="M23.537 36.77h2.925a.733.733 0 0 0 0-1.465h-2.925a.733.733 0 1 0 0 1.465M20.254 19.754v-6.543a.733.733 0 1 0-1.465 0v6.543a.733.733 0 1 0 1.465 0M11.494 12.479a.733.733 0 0 0-.732.732v4.502c0 .97.446 1.727 1.364 2.314.891.569 2.063.611 3.011.134 1.352-.681 1.636-1.71 1.636-2.452V13.21a.733.733 0 1 0-1.465 0v4.498c0 .338-.094.773-.83 1.143-.47.237-1.118.224-1.563-.06-.489-.313-.688-.625-.688-1.079v-4.502a.733.733 0 0 0-.733-.732"/><path d="M34.49 4.773c-3.9 0-7.36 1.916-9.49 4.856a11.8 11.8 0 0 0-3.649-3.294 11.7 11.7 0 0 0-5.845-1.561c-2.445 0-4.788.746-6.774 2.157a.733.733 0 0 0 .848 1.195 10.18 10.18 0 0 1 5.926-1.887c3.54 0 6.753 1.77 8.646 4.747a11.64 11.64 0 0 0-1.372 5.497c0 1.985.497 3.856 1.372 5.496a10.19 10.19 0 0 1-8.646 4.748c-5.648 0-10.244-4.596-10.244-10.244 0-2.241.71-4.37 2.054-6.155a.733.733 0 1 0-1.17-.881 11.6 11.6 0 0 0-2.35 7.036c0 6.456 5.254 11.71 11.71 11.71 3.802 0 7.294-1.801 9.495-4.856 2.13 2.94 5.59 4.855 9.488 4.855 6.457 0 11.71-5.253 11.71-11.71 0-6.456-5.253-11.709-11.71-11.709m0 21.954c-5.65 0-10.245-4.596-10.245-10.244 0-5.649 4.596-10.244 10.244-10.244 5.649 0 10.244 4.595 10.244 10.244 0 5.648-4.595 10.244-10.243 10.244"/><path d="m39.058 16.25 1.844-2.617a.733.733 0 1 0-1.198-.844l-1.542 2.189-1.539-2.188a.732.732 0 1 0-1.198.843l1.841 2.617-2.171 3.082a.733.733 0 0 0 1.198.844l1.869-2.653 1.866 2.653a.745.745 0 0 0 1.02.178c.331-.233.41-.69.178-1.021zM32.9 12.479a.733.733 0 0 0-.733.732v4.498c0 .338-.094.773-.83 1.143a1.65 1.65 0 0 1-.747.17h-.003c-.305-.001-.571-.076-.812-.23-.49-.313-.689-.625-.689-1.079v-4.502a.733.733 0 1 0-1.465 0v4.502c0 .97.446 1.727 1.365 2.313.876.56 2.082.603 3.01.135 1.353-.681 1.637-1.71 1.637-2.452V13.21a.733.733 0 0 0-.733-.732"/></g><defs><clipPath id="a"><path fill="#fff" d="M0 0h50v50H0z"/></clipPath></defs></svg>