<svg xmlns="http://www.w3.org/2000/svg" width="50" height="50" fill="none"><path fill="#000" d="M4.147 36.354a.76.76 0 0 0-.757.758v4.247a2.97 2.97 0 0 0-2.218 2.866 2.98 2.98 0 0 0 2.976 2.976 2.98 2.98 0 0 0 2.975-2.976 2.97 2.97 0 0 0-2.218-2.866v-3.49h12.611c.419 0 .758-.339.758-.757V25.528h5.578v3.25l-.393-.394a.757.757 0 1 0-1.071 1.072l1.686 1.686c.3.3.783.289 1.072 0l1.686-1.686a.757.757 0 1 0-1.071-1.072l-.394.393v-3.249h6.203v11.584c0 .418.339.757.757.757h12.967v3.437a2.98 2.98 0 0 0-2.418 2.92 2.98 2.98 0 0 0 2.976 2.975 2.98 2.98 0 0 0 2.976-2.976 2.97 2.97 0 0 0-2.02-2.804v-4.31a.76.76 0 0 0-.757-.757H33.085V25.528h3.175v5.12c0 .418.34.758.758.758h5.291l-.393.393a.757.757 0 1 0 1.071 1.071l1.686-1.686a.76.76 0 0 0 0-1.072l-1.686-1.686a.757.757 0 1 0-1.071 1.071l.393.393h-4.533v-4.362h.894a6.114 6.114 0 0 0 6.108-6.107c0-1.86-.83-3.58-2.25-4.729.86-1.915-.176-4.193-2.219-4.747A9.36 9.36 0 0 0 30.954.758a9.38 9.38 0 0 0-9.065 6.964c-3.708-2.38-8.843-.112-9.325 4.537-4.113-.916-8.122 2.26-8.122 6.565a6.71 6.71 0 0 0 6.704 6.704h.74v4.364H7.352l.393-.394a.757.757 0 1 0-1.072-1.07l-1.686 1.685a.76.76 0 0 0 0 1.072l1.686 1.687A.757.757 0 1 0 7.745 31.8l-.394-.393h5.292c.419 0 .758-.34.758-.758v-5.12h3.358v10.825zm1.461 7.871c0 .806-.655 1.461-1.46 1.461-.806 0-1.461-.655-1.461-1.46 0-.806.655-1.462 1.46-1.462.806 0 1.461.656 1.461 1.461m41.705 0c0 .806-.656 1.461-1.46 1.461-.806 0-1.462-.655-1.462-1.46 0-.806.656-1.462 1.461-1.462.806 0 1.46.656 1.46 1.461M11.146 24.013a5.194 5.194 0 0 1-5.189-5.189c0-3.785 3.84-6.132 7.055-4.845a.756.756 0 0 0 1.038-.741c-.222-4.46 4.894-6.519 7.81-3.603a.758.758 0 0 0 1.288-.446c.47-3.943 3.826-6.916 7.806-6.916 4.335 0 8.04 3.57 7.834 8.278a.757.757 0 0 0 .711.79c1.55.094 2.359 1.868 1.423 3.11a.757.757 0 0 0 .203 1.097 4.55 4.55 0 0 1 2.138 3.873 4.597 4.597 0 0 1-4.593 4.592z"/><path fill="#000" d="M17.234 48.251v.234c0 .419.34.758.758.758h13.234c.418 0 .758-.34.758-.758v-.234c0-4.066-3.309-7.375-7.375-7.375-4.067 0-7.375 3.309-7.375 7.375m7.375-5.86c3.055 0 5.57 2.35 5.836 5.337h-2.07v-1.57a.758.758 0 0 0-1.515 0v1.57h-4.503v-1.57a.758.758 0 0 0-1.515 0v1.57h-2.07a5.867 5.867 0 0 1 5.837-5.337M27.709 36.36c0-1.71-1.39-3.1-3.1-3.1s-3.101 1.39-3.101 3.1 1.39 3.1 3.1 3.1 3.101-1.39 3.101-3.1m-4.686 0c0-.874.711-1.585 1.585-1.585.875 0 1.586.71 1.586 1.585 0 .874-.711 1.585-1.585 1.585a1.587 1.587 0 0 1-1.586-1.585M37.431 12.582l-1.437-.344.77-1.26a.76.76 0 0 0-.11-.93l-1.63-1.631a.76.76 0 0 0-.931-.11l-1.261.77-.343-1.432a.76.76 0 0 0-.737-.58h-2.304c-.35 0-.655.24-.737.58l-.343 1.432-1.26-.77a.76.76 0 0 0-.932.11l-1.63 1.63a.76.76 0 0 0-.11.931l.77 1.26-1.437.344a.76.76 0 0 0-.581.737v2.31c0 .35.24.655.58.737l1.438.344-.77 1.26a.76.76 0 0 0 .11.93l1.63 1.631a.76.76 0 0 0 .931.11l1.26-.77.344 1.432c.082.34.387.58.737.58h2.304c.35 0 .655-.24.737-.58l.343-1.433 1.26.772c.3.183.685.137.932-.111l1.63-1.63a.76.76 0 0 0 .11-.932l-.77-1.26 1.437-.343a.76.76 0 0 0 .581-.737v-2.31c0-.35-.24-.655-.58-.737m-.934 2.45-1.87.447a.76.76 0 0 0-.47 1.132l1.004 1.64-.787.787-1.64-1.004a.756.756 0 0 0-1.133.47l-.447 1.864h-1.109l-.447-1.865a.758.758 0 0 0-1.132-.47l-1.64 1.005-.787-.787 1.004-1.64a.758.758 0 0 0-.47-1.132l-1.87-.448v-1.114l1.87-.448a.76.76 0 0 0 .47-1.132l-1.004-1.64.787-.787 1.64 1.004a.758.758 0 0 0 1.132-.47l.447-1.864h1.11l.447 1.865a.758.758 0 0 0 1.132.469l1.64-1.004.787.787-1.005 1.64a.758.758 0 0 0 .47 1.132l1.871.448z"/><path fill="#000" d="M30.598 11.552a2.925 2.925 0 0 0-2.922 2.921 2.925 2.925 0 0 0 2.922 2.922 2.925 2.925 0 0 0 2.922-2.922 2.925 2.925 0 0 0-2.922-2.921m0 4.328a1.41 1.41 0 0 1-1.407-1.407c0-.775.631-1.406 1.407-1.406.775 0 1.406.631 1.406 1.406 0 .776-.63 1.407-1.406 1.407"/></svg>