<svg xmlns="http://www.w3.org/2000/svg" width="50" height="50" fill="none"><g fill="#000" clip-path="url(#a)"><path d="M40.657 17.614q-.215 0-.44.011a6.975 6.975 0 0 0-6.674-4.707c-2.618-3.93-6.95-6.264-11.674-6.264A14.06 14.06 0 0 0 9.218 14.62 10.9 10.9 0 0 0 0 25.392C0 31.407 4.894 36.3 10.91 36.3h3.913a.732.732 0 1 0 0-1.465H10.91c-5.207 0-9.444-4.237-9.444-9.444a9.436 9.436 0 0 1 8.334-9.374.73.73 0 0 0 .584-.43A12.59 12.59 0 0 1 21.87 8.12c4.36 0 8.348 2.22 10.667 5.94.144.231.404.363.675.344l.041-.003q.19-.016.36-.018a5.515 5.515 0 0 1 5.36 4.199.73.73 0 0 0 .794.552 8 8 0 0 1 .89-.055c4.345 0 7.88 3.535 7.88 7.88s-3.535 7.878-7.88 7.878h-5.48a.733.733 0 0 0 0 1.465h5.48C45.81 36.3 50 32.109 50 26.957s-4.191-9.343-9.343-9.343"/><path d="M32.827 23.877H14.921l-.6-1.628a2.31 2.31 0 0 0-2.156-1.504h-1.257a.732.732 0 1 0 0 1.465h1.257c.348 0 .662.22.782.545l4.206 11.417c.182.493.456.93.798 1.296l-1.901 3.326a2.3 2.3 0 0 0-2.743 2.255 2.3 2.3 0 0 0 2.298 2.297 2.3 2.3 0 0 0 2.178-1.565h11.301a2.3 2.3 0 0 0 2.178 1.565 2.3 2.3 0 0 0 2.298-2.298 2.3 2.3 0 0 0-2.298-2.298 2.3 2.3 0 0 0-2.178 1.566H17.783a2.3 2.3 0 0 0-.462-.794l1.821-3.187a3.86 3.86 0 0 0 2.272.313l9.571-1.596a3.07 3.07 0 0 0 2.575-3.038v-7.405a.73.73 0 0 0-.733-.733M15.605 41.88a.834.834 0 0 1 0-1.666.834.834 0 0 1 0 1.666m15.657-1.666a.834.834 0 0 1 0 1.666.834.834 0 0 1 0-1.666m.833-8.202a1.61 1.61 0 0 1-1.35 1.594l-9.572 1.596a2.4 2.4 0 0 1-2.645-1.537L15.46 25.34h16.634z"/><path d="M29.697 31.832a.73.73 0 0 0 .733-.732v-3.36a.732.732 0 1 0-1.465 0v3.36c0 .404.328.732.732.732M26.565 32.279a.73.73 0 0 0 .732-.733V27.74a.732.732 0 0 0-1.465 0v3.806c0 .405.328.733.732.733M23.436 32.852a.73.73 0 0 0 .732-.732v-4.38a.732.732 0 0 0-1.465 0v4.38c0 .404.328.732.733.732M20.303 32.438a.73.73 0 0 0 .732-.733V27.74a.732.732 0 0 0-1.465 0v3.966c0 .404.328.732.733.732"/></g><defs><clipPath id="a"><path fill="#fff" d="M0 0h50v50H0z"/></clipPath></defs></svg>