<svg xmlns="http://www.w3.org/2000/svg" width="50" height="50" fill="none"><path fill="#000" d="M43.6 32.35c-1.45 0-2.65 1-3 2.35h-3.1V29h.45c5.1 0 9.55-4.45 9.55-9.5 0-4.4-2.55-7.85-6.7-9.1-.4-3.2-2.5-5.8-5.55-6.95s-6.4-.5-8.8 1.6C24.1 4 21.2 4 18.6 5.1c-2.25.95-3.95 2.65-4.75 4.7-1.5-.1-3 .4-4.15 1.45S7.9 13.7 7.9 15.2c-3.15.75-5.4 3.5-5.4 6.85 0 3.8 3.2 7 7 7h3v5.65H9.4c-.35-1.35-1.55-2.35-3-2.35-1.7 0-3.1 1.4-3.1 3.1s1.4 3.1 3.1 3.1c1.45 0 2.65-1 3-2.35h3.85c.4 0 .75-.35.75-.75V29h4.4v7.75l-2.9 2.9c-.45-.3-1-.45-1.6-.45-1.7 0-3.1 1.4-3.1 3.1s1.4 3.1 3.1 3.1S17 44 17 42.3c0-.6-.15-1.1-.45-1.6l3.05-3.05c.15-.15.2-.35.2-.55V29h4.4v12.05c-1.35.35-2.35 1.55-2.35 3 0 1.7 1.4 3.1 3.1 3.1s3.1-1.4 3.1-3.1c0-1.45-1-2.65-2.35-3V29h4.4v8.1c0 .2.1.4.2.55l3.05 3.05c-.3.45-.45 1-.45 1.6 0 1.7 1.4 3.1 3.1 3.1s3.1-1.4 3.1-3.1-1.4-3.1-3.1-3.1c-.6 0-1.1.15-1.6.45l-2.85-2.85V29H36v6.4c0 .4.35.75.75.75h3.85c.35 1.35 1.55 2.35 3 2.35 1.7 0 3.1-1.4 3.1-3.1s-1.4-3.05-3.1-3.05M6.4 37c-.85 0-1.6-.7-1.6-1.6 0-.85.7-1.6 1.6-1.6.85 0 1.6.7 1.6 1.6S7.25 37 6.4 37m7.55 6.85c-.85 0-1.6-.7-1.6-1.6 0-.85.7-1.6 1.6-1.6.85 0 1.6.7 1.6 1.6-.05.9-.75 1.6-1.6 1.6m12.65.2c0 .85-.7 1.6-1.6 1.6-.85 0-1.6-.7-1.6-1.6 0-.85.7-1.6 1.6-1.6.85 0 1.6.7 1.6 1.6m11.05-1.8c0 .85-.7 1.6-1.6 1.6-.85 0-1.6-.7-1.6-1.6 0-.85.7-1.6 1.6-1.6.9.05 1.6.75 1.6 1.6M4 22.05c0-2.85 1.95-5.1 4.8-5.45.4-.05.7-.4.65-.8-.1-1.3.35-2.5 1.3-3.4.75-.7 1.75-1.1 2.75-1.1.25 0 .5 0 .75.05.4.05.75-.15.85-.55.5-1.85 2-3.45 4.1-4.35 2.35-1 5.05-.95 7.05.1.3.15.65.1.9-.15 2-2 4.9-2.65 7.6-1.65 2.65 1 4.45 3.35 4.65 6.2 0 .3.25.6.55.65C43.7 12.65 46 15.65 46 19.5c0 4.25-3.75 8-8.05 8H9.5c-3 0-5.5-2.5-5.5-5.45M43.6 37c-.85 0-1.6-.7-1.6-1.6 0-.85.7-1.6 1.6-1.6.85 0 1.6.7 1.6 1.6s-.7 1.6-1.6 1.6"/></svg>