<svg xmlns="http://www.w3.org/2000/svg" width="50" height="50" fill="none"><g fill="#000" clip-path="url(#a)"><path d="M39.844 33.79h-5.762a.781.781 0 0 1 0-1.563h5.762c4.738 0 8.593-3.85 8.593-8.584a8.59 8.59 0 0 0-7.163-8.467.78.78 0 0 1-.652-.77l.002-.09v-.039c0-3.876-3.153-7.03-7.03-7.03a7.04 7.04 0 0 0-3.515.942.78.78 0 0 1-1.004-.193 10.1 10.1 0 0 0-7.981-3.874c-5.6 0-10.157 4.556-10.157 10.156 0 .432-.35.782-.78.782a8.53 8.53 0 0 0-6.077 2.517 8.53 8.53 0 0 0-2.517 6.076c0 2.29.893 4.444 2.517 6.067a8.53 8.53 0 0 0 6.076 2.507h7.422a.781.781 0 1 1 0 1.562h-7.422c-2.72 0-5.27-1.053-7.181-2.965A10.07 10.07 0 0 1 0 23.654c0-2.714 1.057-5.264 2.975-7.182A10.08 10.08 0 0 1 9.4 13.525C9.789 7.413 14.885 2.56 21.094 2.56c3.394 0 6.562 1.437 8.79 3.967a8.6 8.6 0 0 1 3.71-.843c4.566 0 8.312 3.58 8.578 8.08A10.151 10.151 0 0 1 50 23.644c0 5.594-4.556 10.145-10.156 10.145"/><path d="M16.98 42.536a4.1 4.1 0 0 1-2.924-1.211 4.14 4.14 0 0 1 0-5.846l2.964-2.963a.78.78 0 0 1 1.104 0l4.741 4.74a.78.78 0 0 1 0 1.106l-2.963 2.963a4.1 4.1 0 0 1-2.923 1.21m.592-8.363-2.41 2.41a2.574 2.574 0 0 0 0 3.637 2.55 2.55 0 0 0 1.817.753c.687 0 1.333-.267 1.819-.753l2.41-2.41z"/><path d="M22.312 38.59a.78.78 0 0 1-.553-.228l-4.741-4.741a.78.78 0 0 1-.173-.843l4.741-11.852a.78.78 0 0 1 1.278-.262l11.852 11.852a.782.782 0 0 1-.262 1.278l-11.852 4.74a.8.8 0 0 1-.29.056m-3.825-5.71 4.013 4.013 10.273-4.11-10.176-10.177zM28.636 47.44a.78.78 0 0 1-.488-.171l-5.957-4.771a.78.78 0 0 1-.064-1.162l2.529-2.53a.78.78 0 0 1 1.105 0l5.364 5.365c.305.305.305.8 0 1.105l-1.936 1.936a.78.78 0 0 1-.553.228m-4.787-5.616 4.73 3.788.888-.889-4.259-4.259z"/><path d="M21.667 43.636a.78.78 0 0 1-.553-.229l-2.21-2.21a.781.781 0 1 1 1.105-1.104l1.658 1.657 3.038-3.038-1.105-1.105a.781.781 0 1 1 1.105-1.105l1.657 1.657c.305.306.305.8 0 1.105l-4.143 4.144a.78.78 0 0 1-.552.228M32.387 23.775a.781.781 0 0 1-.552-1.334l1.777-1.778a.781.781 0 0 1 1.105 1.105l-1.778 1.778a.78.78 0 0 1-.552.229M28.832 22.302a.78.78 0 0 1-.781-.78v-2.515a.781.781 0 1 1 1.562 0v2.514c0 .432-.35.781-.781.781M36.374 27.331h-2.515a.781.781 0 1 1 0-1.562h2.515a.781.781 0 1 1 0 1.562M29.425 29.11c-.2 0-.4-.077-.552-.23l-2.37-2.37a.78.78 0 0 1 0-1.105l1.185-1.185a2.44 2.44 0 0 1 1.737-.72c.656 0 1.274.256 1.738.72s.72 1.081.72 1.738c0 .656-.256 1.273-.72 1.737l-1.186 1.186a.78.78 0 0 1-.552.228m-1.265-3.152 1.265 1.265.633-.633a.9.9 0 0 0 .262-.632.9.9 0 0 0-.262-.633.9.9 0 0 0-.633-.262.9.9 0 0 0-.633.262zM27.727 42.66a.781.781 0 0 1-.552-1.334l.837-.837a.781.781 0 0 1 1.105 1.104l-.838.839a.78.78 0 0 1-.552.229M30.99 35.143a.78.78 0 0 1-.553-.23L20.424 24.902a.781.781 0 0 1 1.105-1.105L31.542 33.81a.781.781 0 0 1-.553 1.334"/></g><defs><clipPath id="a"><path fill="#fff" d="M0 0h50v50H0z"/></clipPath></defs></svg>