<svg xmlns="http://www.w3.org/2000/svg" width="50" height="50" fill="none"><g fill="#000" clip-path="url(#a)"><path d="M34.2 26.09a.78.78 0 0 0-1.313.57v21.25a.782.782 0 0 0 1.093.715l4.215-1.836 1.172 2.735a.78.78 0 0 0 1.028.39l5.699-2.456a.78.78 0 0 0 .39-1.028l-1.172-2.734 4.215-1.836a.782.782 0 0 0 .22-1.29zm9.765 16.48a.78.78 0 0 0-.39 1.028l1.171 2.735-4.266 1.855-1.171-2.734a.78.78 0 0 0-1.028-.391l-3.84 1.672V28.473L47.81 40.918z"/><path d="M30.469 45.313a.781.781 0 1 0 0-1.563H4.719a3.156 3.156 0 0 1-3.157-3.156V14.063H43.75v18.359a.781.781 0 1 0 1.563 0V4.719A4.723 4.723 0 0 0 40.593 0H4.72A4.723 4.723 0 0 0 0 4.719v35.879a4.72 4.72 0 0 0 4.719 4.715zM4.719 1.563h35.879a3.156 3.156 0 0 1 3.152 3.156V12.5H1.563V4.719a3.156 3.156 0 0 1 3.156-3.157"/><path d="M38.281 9.375a2.344 2.344 0 1 0 0-4.688 2.344 2.344 0 0 0 0 4.688m0-3.125a.781.781 0 1 1 0 1.562.781.781 0 0 1 0-1.562M32.031 9.375a2.344 2.344 0 1 0 0-4.688 2.344 2.344 0 0 0 0 4.688m0-3.125a.781.781 0 1 1 0 1.562.781.781 0 0 1 0-1.562M25.781 9.375a2.344 2.344 0 1 0 0-4.688 2.344 2.344 0 0 0 0 4.688m0-3.125a.781.781 0 1 1 0 1.562.781.781 0 0 1 0-1.562M28.906 20.313H13.984a3.906 3.906 0 0 0-7.656 0h-.86a.781.781 0 1 0 0 1.562h.86a3.907 3.907 0 0 0 7.656 0h14.922a.781.781 0 1 0 0-1.562m-18.75 3.125a2.343 2.343 0 1 1 0-4.687 2.343 2.343 0 0 1 0 4.686M21.016 35.938a3.907 3.907 0 0 0-7.657 0H5.47a.781.781 0 1 0 0 1.562h7.89a3.907 3.907 0 0 0 7.657 0h7.89a.781.781 0 1 0 0-1.562zm-3.828 3.124a2.343 2.343 0 1 1 0-4.686 2.343 2.343 0 0 1 0 4.687M25.781 25a3.906 3.906 0 0 0-3.828 3.125H5.47a.781.781 0 1 0 0 1.563h16.484A3.907 3.907 0 1 0 25.781 25m0 6.25a2.344 2.344 0 1 1 0-4.689 2.344 2.344 0 0 1 0 4.689"/></g><defs><clipPath id="a"><path fill="#fff" d="M0 0h50v50H0z"/></clipPath></defs></svg>