<svg xmlns="http://www.w3.org/2000/svg" width="60" height="60"><defs><clipPath id="a"><path d="M0 0h60v60H0z"/></clipPath></defs><g clip-path="url(#a)"><path d="m55.722 35.715-1.916-1.075a22.7 22.7 0 0 0 .008-9.283l1.908-1.071a2.48 2.48 0 0 0 1.19-1.508 2.4 2.4 0 0 0-.255-1.884l-5.217-8.787a2.53 2.53 0 0 0-1.55-1.157 2.6 2.6 0 0 0-1.938.248l-1.91 1.072a24.6 24.6 0 0 0-8.271-4.653V5.483A2.52 2.52 0 0 0 35.217 3H24.784a2.52 2.52 0 0 0-2.555 2.483v2.134a24.6 24.6 0 0 0-8.26 4.659l-1.92-1.076a2.6 2.6 0 0 0-1.938-.248 2.53 2.53 0 0 0-1.551 1.157l-5.216 8.784a2.4 2.4 0 0 0-.255 1.884 2.48 2.48 0 0 0 1.19 1.508l1.916 1.075a22.7 22.7 0 0 0-.008 9.283l-1.908 1.072a2.45 2.45 0 0 0-.935 3.392l5.217 8.786a2.6 2.6 0 0 0 3.489.909l1.909-1.072a24.6 24.6 0 0 0 8.27 4.653v2.134A2.52 2.52 0 0 0 24.784 57h10.433a2.52 2.52 0 0 0 2.554-2.483v-2.134a24.6 24.6 0 0 0 8.26-4.659l1.92 1.078a2.6 2.6 0 0 0 3.489-.909l5.217-8.786a2.45 2.45 0 0 0-.935-3.392m-.477 2.6L50.029 47.1a.94.94 0 0 1-1.262.329l-2.438-1.366a.83.83 0 0 0-.961.1 22.9 22.9 0 0 1-8.657 4.882.8.8 0 0 0-.574.757v2.71a.91.91 0 0 1-.924.9H24.784a.91.91 0 0 1-.924-.9v-2.71a.8.8 0 0 0-.574-.757 22.9 22.9 0 0 1-8.668-4.876.83.83 0 0 0-.961-.1l-2.423 1.36a.94.94 0 0 1-1.262-.329l-5.216-8.785a.886.886 0 0 1 .338-1.227l2.421-1.359a.784.784 0 0 0 .388-.861 21.2 21.2 0 0 1 .008-9.731.784.784 0 0 0-.388-.861l-2.429-1.364a.9.9 0 0 1-.43-.545.87.87 0 0 1 .092-.682L9.972 12.9a.91.91 0 0 1 .561-.418.94.94 0 0 1 .7.09l2.434 1.366a.83.83 0 0 0 .961-.1 22.9 22.9 0 0 1 8.658-4.888.8.8 0 0 0 .574-.757v-2.71a.91.91 0 0 1 .924-.9h10.433a.91.91 0 0 1 .924.9v2.71a.8.8 0 0 0 .574.757 22.9 22.9 0 0 1 8.668 4.876.83.83 0 0 0 .961.1l2.423-1.36a.94.94 0 0 1 .7-.09.92.92 0 0 1 .562.424l5.217 8.786a.87.87 0 0 1 .092.682.9.9 0 0 1-.43.545l-2.421 1.359a.784.784 0 0 0-.388.861 21.2 21.2 0 0 1-.008 9.731.784.784 0 0 0 .388.861l2.429 1.364a.886.886 0 0 1 .337 1.226"/><path d="M30.001 14.363c-9.048 0-16.41 7.015-16.41 15.637s7.361 15.637 16.41 15.637S46.411 38.622 46.411 30s-7.362-15.637-16.41-15.637m0 29.726c-8.152 0-14.785-6.32-14.785-14.089s6.633-14.089 14.785-14.089S44.786 22.231 44.786 30s-6.633 14.089-14.785 14.089"/><path d="M33.044 25.684h-3.059a.82.82 0 0 0-.819.819v6.993a.82.82 0 0 0 1.639 0v-1.8h2.24a3.005 3.005 0 0 0 0-6.009Zm0 4.37h-2.24v-2.732h2.24a1.366 1.366 0 0 1 0 2.732M25.558 26.216a.82.82 0 0 0-.767-.532h-.874a.82.82 0 0 0-.767.532l-2.622 6.993a.82.82 0 1 0 1.535.575l.456-1.217h3.672l.456 1.216a.82.82 0 1 0 1.534-.575Zm-2.426 4.713 1.221-3.257 1.221 3.257ZM37.824 25.684a.82.82 0 0 0-.819.819v6.993a.82.82 0 1 0 1.639 0v-6.993a.82.82 0 0 0-.82-.819M35.825 12.538c.569.181 1.136.392 1.685.626a.82.82 0 1 0 .642-1.508q-.902-.382-1.829-.679a.82.82 0 1 0-.5 1.561ZM13.151 38.856a.82.82 0 0 0-1.439.785 21 21 0 0 0 1.119 1.822.82.82 0 1 0 1.351-.928 19 19 0 0 1-1.031-1.679M28.378 48.297a19.3 19.3 0 0 1-11.736-5.358.82.82 0 0 0-1.14 1.177 20.95 20.95 0 0 0 12.736 5.814h.071a.819.819 0 0 0 .069-1.636ZM41.649 13.182a.82.82 0 0 0-.925 1.353 19.3 19.3 0 0 1 7.754 10.9.82.82 0 0 0 1.582-.426 20.95 20.95 0 0 0-8.411-11.827"/></g></svg>