<svg xmlns="http://www.w3.org/2000/svg" width="59.997" height="57.995"><path d="M30.003 28.995a10 10 0 1 0 10 10 10 10 0 0 0-10-10m0 18a8 8 0 1 1 8-8 8 8 0 0 1-8 8"/><path d="M30.003 33.995a5 5 0 1 0 5 5 5 5 0 0 0-5-5m0 8a3 3 0 1 1 3-3 3 3 0 0 1-3 3"/><path d="M53.003 17.095V17a7.014 7.014 0 0 0-8.78-6.774 15 15 0 0 0-28.44 0 7.014 7.014 0 0 0-8.78 6.769v.095a11.991 11.991 0 0 0 4 22.854v2.051a1 1 0 0 0 1 1h3.538a15 15 0 0 0 1.411 3.4l-2.506 2.5a1 1 0 0 0 0 1.414l4.24 4.24a1 1 0 0 0 1.414 0l2.5-2.5a15 15 0 0 0 3.403 1.408v3.538a1 1 0 0 0 1 1h6a1 1 0 0 0 1-1v-3.538a15 15 0 0 0 3.4-1.411l2.5 2.506a1.03 1.03 0 0 0 1.414 0l4.24-4.24a1 1 0 0 0 0-1.414l-2.5-2.5a15 15 0 0 0 1.408-3.403h3.538a1 1 0 0 0 1-1v-2.049a1 1 0 0 0 .089-.005 11.994 11.994 0 0 0 3.911-22.846m-6 23.9h-3.32a1 1 0 0 0-.977.786 12.9 12.9 0 0 1-1.755 4.223 1 1 0 0 0 .135 1.248l2.353 2.353-2.826 2.826-2.353-2.353a1 1 0 0 0-1.247-.134 13 13 0 0 1-4.225 1.751 1 1 0 0 0-.785.98v3.32h-4v-3.32a1 1 0 0 0-.785-.976 13 13 0 0 1-4.225-1.755 1 1 0 0 0-1.247.134l-2.353 2.353-2.826-2.826 2.353-2.353a1 1 0 0 0 .135-1.248 12.9 12.9 0 0 1-1.752-4.223 1 1 0 0 0-.98-.786h-3.32v-4h3.32a1 1 0 0 0 .977-.786 12.9 12.9 0 0 1 1.755-4.223 1 1 0 0 0-.135-1.248l-2.353-2.353 2.826-2.826 2.353 2.353a1 1 0 0 0 1.247.134 13 13 0 0 1 4.225-1.751 1 1 0 0 0 .785-.98v-3.32h4v3.32a1 1 0 0 0 .785.976 13 13 0 0 1 4.225 1.755 1 1 0 0 0 1.247-.134l2.353-2.353 2.826 2.826-2.353 2.353a1 1 0 0 0-.135 1.248 12.9 12.9 0 0 1 1.752 4.223 1 1 0 0 0 .98.786h3.32Zm2-3.058v-1.942a1 1 0 0 0-1-1h-3.538a15 15 0 0 0-1.411-3.4l2.506-2.5a1 1 0 0 0 0-1.414l-4.24-4.24a1 1 0 0 0-1.414 0l-2.5 2.5a15 15 0 0 0-3.403-1.408v-3.538a1 1 0 0 0-1-1h-6a1 1 0 0 0-1 1v3.538a15 15 0 0 0-3.4 1.411l-2.5-2.506a1.03 1.03 0 0 0-1.414 0l-4.24 4.24a1 1 0 0 0 0 1.414l2.5 2.5a15 15 0 0 0-1.408 3.403h-3.538a1 1 0 0 0-1 1v1.949a10 10 0 0 1-2.6-19.274 1 1 0 0 0 .637-1.06 4.97 4.97 0 0 1 4.963-5.615 4.8 4.8 0 0 1 2.023.429 1 1 0 0 0 1.386-.661 13 13 0 0 1 25.182 0 1 1 0 0 0 1.386.661 4.8 4.8 0 0 1 2.023-.429 4.97 4.97 0 0 1 4.958 5.615 1 1 0 0 0 .637 1.06 9.991 9.991 0 0 1-2.595 19.267"/></svg>