<svg xmlns="http://www.w3.org/2000/svg" width="62" height="46.5"><g transform="translate(-4 -11)"><circle cx="1.5" cy="1.5" r="1.5" transform="translate(8 14)"/><ellipse cx="1" cy="1.5" rx="1" ry="1.5" transform="translate(13 14)"/><ellipse cx="1" cy="1.5" rx="1" ry="1.5" transform="translate(17 14)"/><path d="M60.464 11H9.536A5.54 5.54 0 0 0 4 16.536v35.428A5.54 5.54 0 0 0 9.536 57.5h50.928A5.54 5.54 0 0 0 66 51.964V16.536A5.54 5.54 0 0 0 60.464 11M9.536 13.214h50.928a3.325 3.325 0 0 1 3.321 3.321v1.107H6.214v-1.106a3.325 3.325 0 0 1 3.322-3.322m50.928 42.072H9.536a3.325 3.325 0 0 1-3.321-3.321V19.857h57.571v32.107a3.325 3.325 0 0 1-3.322 3.322"/><path d="M15.47 31.184 8.829 36.72a1.108 1.108 0 0 0 0 1.7l6.643 5.536a1.107 1.107 0 0 0 1.417-1.7l-5.622-4.684 5.622-4.684a1.108 1.108 0 0 0-1.417-1.7ZM54.531 31.184a1.108 1.108 0 0 0-1.418 1.7l5.622 4.685-5.622 4.687a1.108 1.108 0 0 0 1.418 1.7l6.643-5.536a1.11 1.11 0 0 0 0-1.7ZM37.198 32.036h-2.882l.674-5.4a1.109 1.109 0 0 0-2.2-.275l-1.937 15.5a1.109 1.109 0 0 0 2.2.275l.988-7.887h3.157a1.107 1.107 0 0 1 1.1 1.245l-.8 6.368a1.109 1.109 0 0 0 2.2.275l.8-6.368a3.322 3.322 0 0 0-3.3-3.733M47.986 32.036h-2.17a3.34 3.34 0 0 0-3.3 2.907l-.864 6.92-.83 6.642a1.109 1.109 0 0 0 2.2.275l.709-5.673h3.707a3.34 3.34 0 0 0 3.3-2.907l.554-4.431a3.335 3.335 0 0 0-3.306-3.733m.552 7.884a1.12 1.12 0 0 1-1.106.973h-3.43l.707-5.67a1.12 1.12 0 0 1 1.106-.973h2.171a1.12 1.12 0 0 1 1.1 1.247ZM25.843 32.036h-2.17a3.34 3.34 0 0 0-3.3 2.907l-.864 6.92-.83 6.641a1.109 1.109 0 0 0 2.2.275l.71-5.673h3.706a3.34 3.34 0 0 0 3.3-2.907l.554-4.432a3.335 3.335 0 0 0-3.306-3.731m.552 7.884a1.12 1.12 0 0 1-1.106.973h-3.43l.707-5.67a1.12 1.12 0 0 1 1.106-.973h2.17a1.12 1.12 0 0 1 1.1 1.247Z"/></g></svg>