<svg xmlns="http://www.w3.org/2000/svg" width="60" height="60"><defs><clipPath id="a"><path d="M0 0h60v60H0z"/></clipPath></defs><g clip-path="url(#a)"><path fill="#282928" d="M52.5 40.56h-1.8v-7.04a1.78 1.78 0 0 0-1.8-1.76h-1.806a1.78 1.78 0 0 0-1.8 1.76v7.04h-.9V28.24a1.78 1.78 0 0 0-1.8-1.76h-1.8a1.78 1.78 0 0 0-1.8 1.76v12.32h-.9v-9.68a1.78 1.78 0 0 0-1.8-1.76h-1.8a1.78 1.78 0 0 0-1.8 1.76v9.68a.89.89 0 0 1-.9-.88V25.6a.9.9 0 0 0-1.8 0v14.08a2.674 2.674 0 0 0 2.7 2.64h19.8a.88.88 0 1 0 0-1.76Zm-18 0v-9.68h1.8v9.68Zm6.3 0V28.24h1.8v12.32Zm6.3 0v-7.04h1.8v7.04Zm-4.5-26.4a.89.89 0 0 1 .9-.88h8.1a.88.88 0 1 1 0 1.76h-8.106a.89.89 0 0 1-.9-.88Zm-2.7 0a.9.9 0 1 1 .9.88.89.89 0 0 1-.906-.88Zm2.7 3.52a.89.89 0 0 1 .9-.88h8.1a.88.88 0 1 1 0 1.76h-8.106a.89.89 0 0 1-.9-.88Zm0 3.52a.89.89 0 0 1 .9-.88h8.1a.88.88 0 1 1 0 1.76h-8.106a.89.89 0 0 1-.9-.88Zm-2.7-3.52a.9.9 0 1 1 .9.88.89.89 0 0 1-.906-.88Zm0 3.52a.9.9 0 1 1 .9.88.89.89 0 0 1-.906-.88ZM54.3 8H9.294a2.674 2.674 0 0 0-2.7 2.64v11.484a3.056 3.056 0 0 0 0 6.071v4.129A11.25 11.25 0 0 0 3.71 44.492a11.8 11.8 0 0 0 21.356 1.348H54.3A2.674 2.674 0 0 0 57 43.2V10.64A2.674 2.674 0 0 0 54.3 8M5.694 25.16a1.35 1.35 0 1 1 1.35 1.32 1.335 1.335 0 0 1-1.35-1.32m8.1 5.765v9.109l-8.207 4.32a9.48 9.48 0 0 1 .607-8.754 9.92 9.92 0 0 1 7.6-4.672Zm1.8 0a9.8 9.8 0 0 1 8.955 8.755h-8.955Zm-.9 19.315a9.96 9.96 0 0 1-8.247-4.34l8.476-4.462h9.628a9.827 9.827 0 0 1-9.855 8.8Zm40.5-7.04a.89.89 0 0 1-.9.88h-28.47a11.27 11.27 0 0 0-3.973-12.58 11.9 11.9 0 0 0-13.457-.565v-3a3.07 3.07 0 0 0 1.8-2.775 3 3 0 0 0-.322-1.33l4.555-3.958a3.22 3.22 0 0 0 2.827.21l3.966 3.062a3.04 3.04 0 0 0 1.037 3.6 3.21 3.21 0 0 0 3.829-.041 3.035 3.035 0 0 0 .956-3.625l5.2-4.2a3.19 3.19 0 0 0 4.083-.426 3.02 3.02 0 0 0 .161-4.012 3.19 3.19 0 0 0-4.032-.74 3.037 3.037 0 0 0-1.33 3.8l-5.225 4.22a3.21 3.21 0 0 0-3.558.042l-3.665-2.829a3.03 3.03 0 0 0-.44-3.927 3.2 3.2 0 0 0-4.031-.271 3.04 3.04 0 0 0-.986 3.831L8.66 22.53a3 3 0 0 0-.265-.141V10.64a.89.89 0 0 1 .9-.88h45a.89.89 0 0 1 .9.88Zm-38.2-25.027a1.37 1.37 0 0 1-1.909 0 1.3 1.3 0 0 1 0-1.867 1.37 1.37 0 0 1 1.909 0 1.3 1.3 0 0 1 0 1.867m8.1 7.04a1.37 1.37 0 0 1-1.909 0 1.3 1.3 0 0 1 0-1.867 1.37 1.37 0 0 1 1.909 0 1.3 1.3 0 0 1 0 1.867m8-9.786a1.37 1.37 0 0 1 1.909 0 1.3 1.3 0 0 1 0 1.867 1.37 1.37 0 0 1-1.909 0 1.3 1.3 0 0 1 0-1.867"/></g></svg>