<svg xmlns="http://www.w3.org/2000/svg" width="64" height="59.518"><path d="M28.407 44.726a2.452 2.452 0 1 1 2.453-2.452 2.454 2.454 0 0 1-2.453 2.452m0-2.839a.39.39 0 0 0-.388.387c0 .427.776.427.776 0a.39.39 0 0 0-.388-.386Zm9.22 2.839a2.452 2.452 0 1 1 2.452-2.452 2.453 2.453 0 0 1-2.451 2.452Zm0-2.839a.387.387 0 0 0-.387.387c0 .427.774.427.774 0a.387.387 0 0 0-.386-.386Zm7.722-20.7a2.38 2.38 0 0 0-1.905-.939H19.989l-.612-2.289a2.66 2.66 0 0 0-2.565-1.97h-1.538a1.033 1.033 0 0 0 0 2.065h1.538a.59.59 0 0 1 .571.439l4.931 18.436a3.1 3.1 0 0 0 2.986 2.293h16.552a1.033 1.033 0 0 0 0-2.065H25.3a1.03 1.03 0 0 1-.994-.762l-.376-1.407h15.54a4.144 4.144 0 0 0 4-3.069l2.3-8.653a2.39 2.39 0 0 0-.417-2.084Zm-1.637 1.258a.33.33 0 0 1 .058.3l-1.023 3.848h-3.625l.578-4.284h3.748a.33.33 0 0 1 .268.132Zm-6.672 4.139h-3.794v-4.275h4.369Zm-5.858-4.275v4.275h-3.79l-.579-4.275Zm-6.453 0 .579 4.275h-3.619l-1.145-4.275Zm.859 6.34.579 4.274h-2.779l-1.146-4.274Zm2.084 0h3.51v4.274h-2.931Zm5.575 4.274v-4.274h3.515l-.576 4.274Zm6.224 0h-1.2l.575-4.274H42.2l-.728 2.738a2.07 2.07 0 0 1-2.002 1.536ZM17.484 4.741a.967.967 0 0 0-.967-.967H5.9a.967.967 0 0 0 0 1.934h10.62a.967.967 0 0 0 .964-.967m29.164 0a1.032 1.032 0 1 1-1.032-1.032 1.03 1.03 0 0 1 1.032 1.032m3.227-1.032a1.032 1.032 0 1 0 1.032 1.032 1.03 1.03 0 0 0-1.032-1.032m4.259 0a1.032 1.032 0 1 0 1.032 1.032 1.03 1.03 0 0 0-1.032-1.032m9.111 45.111-3.166-2.669c0-.064.012-.126.012-.19V5.63A5.64 5.64 0 0 0 54.461 0H5.63A5.64 5.64 0 0 0 0 5.63v40.329a5.64 5.64 0 0 0 5.63 5.63h43.338v3.87a2.121 2.121 0 0 0 3.478 1.631l1.934-1.607 1.077 2.313a2.95 2.95 0 0 0 1.675 1.542 2.97 2.97 0 0 0 2.276-.1 2.97 2.97 0 0 0 1.442-3.952l-1.075-2.315 2.474-.442a2.123 2.123 0 0 0 .994-3.712ZM2.06 5.63a3.57 3.57 0 0 1 3.57-3.56h48.83a3.57 3.57 0 0 1 3.57 3.56v1.78H2.06Zm46.9 35.711v8.179H5.63a3.57 3.57 0 0 1-3.57-3.561V9.48h55.97v34.944l-5.579-4.7a2.12 2.12 0 0 0-3.486 1.621Zm12.92 9.158-3.793.677a1.033 1.033 0 0 0-.754 1.452l1.647 3.531a.9.9 0 0 1 .03.694.92.92 0 0 1-.47.514.9.9 0 0 1-.7.028.9.9 0 0 1-.514-.472l-1.641-3.528a1.03 1.03 0 0 0-.71-.573 1 1 0 0 0-.226-.024 1.03 1.03 0 0 0-.659.238l-3.056 2.423.087-14.16 10.793 9.1Z"/></svg>