<svg xmlns="http://www.w3.org/2000/svg" width="60" height="60"><defs><clipPath id="a"><path d="M0 0h60v60H0z"/></clipPath></defs><g clip-path="url(#a)"><path d="m18.895 20.462 1.444 1.723a10.2 10.2 0 0 0-1.332 2.749l-2.223.261a.675.675 0 0 0-.619.644v3.324a.66.66 0 0 0 .619.644l2.026.235a9.9 9.9 0 0 0 1.266 3.089l-1.172 1.4a.617.617 0 0 0 .056.861l2.532 2.349a.74.74 0 0 0 .928.052l1.4-1.009a11.9 11.9 0 0 0 3.489 1.392l.216 1.575a.69.69 0 0 0 .694.574h3.583a.676.676 0 0 0 .694-.574l.216-1.575a11.9 11.9 0 0 0 3.489-1.392l1.4 1.009a.74.74 0 0 0 .928-.052l2.532-2.349a.617.617 0 0 0 .056-.861l-1.172-1.4a10.2 10.2 0 0 0 1.266-3.089l2.026-.235a.675.675 0 0 0 .619-.644v-3.324a.66.66 0 0 0-.619-.644l-2.223-.261a10.2 10.2 0 0 0-1.332-2.749l1.444-1.723a.617.617 0 0 0-.056-.861l-2.532-2.349a.74.74 0 0 0-.928-.052l-1.984 1.426a11.8 11.8 0 0 0-2.8-1.053l-.31-2.332a.69.69 0 0 0-.694-.574h-3.586a.676.676 0 0 0-.694.574l-.309 2.332a11.7 11.7 0 0 0-2.8 1.053l-1.979-1.427a.74.74 0 0 0-.928.052L18.994 19.6a.59.59 0 0 0-.094.861Zm3.142-1.879 1.866 1.349a.75.75 0 0 0 .807.035 10.5 10.5 0 0 1 3.264-1.218.66.66 0 0 0 .553-.557l.3-2.219h2.335l.3 2.219a.67.67 0 0 0 .553.557 10.4 10.4 0 0 1 3.264 1.218.75.75 0 0 0 .807-.035l1.866-1.349 1.65 1.534-1.379 1.644a.615.615 0 0 0-.019.774 8.9 8.9 0 0 1 1.529 3.15.7.7 0 0 0 .6.5l2.083.232v2.166l-1.913.218a.69.69 0 0 0-.61.548 8.85 8.85 0 0 1-1.416 3.48.62.62 0 0 0 .038.748l1.088 1.305-1.651 1.535-1.313-.948a.75.75 0 0 0-.835-.017 10.3 10.3 0 0 1-3.883 1.549.67.67 0 0 0-.563.557l-.2 1.462h-2.331l-.2-1.462a.67.67 0 0 0-.563-.557 10.4 10.4 0 0 1-3.883-1.549.75.75 0 0 0-.835.017l-1.309.948-1.651-1.529 1.088-1.305a.62.62 0 0 0 .038-.748 8.85 8.85 0 0 1-1.416-3.48.69.69 0 0 0-.61-.548l-1.923-.226v-2.164l2.082-.244a.69.69 0 0 0 .6-.5 8.9 8.9 0 0 1 1.529-3.15.615.615 0 0 0-.019-.774l-1.379-1.644Z"/><path d="M30 33.641a5.821 5.821 0 1 0-5.821-5.821A5.826 5.826 0 0 0 30 33.641m0-10.337a4.516 4.516 0 1 1-4.516 4.516A4.523 4.523 0 0 1 30 23.304M39.713 17.356a.657.657 0 0 0 .653-.653v-5.438h3.089a3.263 3.263 0 1 0 0-1.305h-3.742a.657.657 0 0 0-.653.653V16.7a.65.65 0 0 0 .653.653Zm6.935-8.7a1.958 1.958 0 1 1-1.958 1.958 1.96 1.96 0 0 1 1.957-1.959Z"/><path d="M52.723 14.311a3.25 3.25 0 0 0-3.207 2.536h-2.91a.65.65 0 0 0-.655.634v4.438H41.35a.634.634 0 1 0 0 1.268h4.6v3.8h-1.093a.634.634 0 1 0 0 1.268h1.748a.65.65 0 0 0 .655-.634v-4.434h1.09a2.8 2.8 0 0 1 2.84 2.747v19.654H8.807V25.934a2.8 2.8 0 0 1 2.84-2.747h1.092v4.438a.65.65 0 0 0 .655.634h1.748a.634.634 0 1 0 0-1.268H14.05v-3.8h4.6a.634.634 0 1 0 0-1.268h-4.6v-4.442a.65.65 0 0 0-.655-.634h-2.91a3.255 3.255 0 0 0-3.208-2.536 3.172 3.172 0 1 0 0 6.34 3.25 3.25 0 0 0 3.207-2.536h2.255v3.8H11.65a4.09 4.09 0 0 0-4.151 4.015v21.983a4.09 4.09 0 0 0 4.151 4.015h9.832v3.8h-2.84a.634.634 0 1 0 0 1.268h22.719a.634.634 0 1 0 0-1.268h-2.84v-3.8h9.829a4.09 4.09 0 0 0 4.151-4.015V25.934a4.09 4.09 0 0 0-4.151-4.015h-1.089v-3.8h2.255a3.265 3.265 0 1 0 3.207-3.8ZM7.277 19.383a1.9 1.9 0 1 1 1.966-1.9 1.94 1.94 0 0 1-1.966 1.9M37.21 55.732H22.79v-3.8h14.42Zm13.983-7.819a2.8 2.8 0 0 1-2.843 2.748h-36.7a2.8 2.8 0 0 1-2.84-2.747v-1.053h42.383Zm1.529-28.53a1.9 1.9 0 1 1 1.966-1.9 1.94 1.94 0 0 1-1.965 1.9Z"/><path d="M13.354 13.876a3.26 3.26 0 0 0 3.193-2.61h3.089V16.7a.653.653 0 0 0 1.305 0v-6.087a.657.657 0 0 0-.653-.653h-3.741a3.261 3.261 0 1 0-3.193 3.915Zm0-5.22a1.958 1.958 0 1 1-1.958 1.958 1.96 1.96 0 0 1 1.958-1.959ZM29.347 9.456v3.767a.653.653 0 1 0 1.305 0V9.456a3.263 3.263 0 1 0-1.305 0M30 4.305a1.958 1.958 0 1 1-1.958 1.958A1.96 1.96 0 0 1 30 4.305"/></g></svg>