<svg xmlns="http://www.w3.org/2000/svg" width="60" height="60"><defs><clipPath id="a"><path d="M0 0h60v60H0z"/></clipPath></defs><g clip-path="url(#a)"><path fill="#282928" fill-rule="evenodd" d="M33.724 49.552h-1.719a6.621 6.621 0 1 1 0-13.241h.251q-.036-.385-.036-.781a8.38 8.38 0 0 1 16.752-.318 7.192 7.192 0 1 1 .794 14.336h-1.145v6.517a.93.93 0 0 1-.931.935H34.655a.93.93 0 0 1-.931-.931Zm14.9-1.862h1.146a5.328 5.328 0 1 0 0-10.655 5.4 5.4 0 0 0-1.505.211.93.93 0 0 1-1.184-1 6.514 6.514 0 1 0-12.994-.716 6.4 6.4 0 0 0 .21 1.639.93.93 0 0 1-1.124 1.141 4.8 4.8 0 0 0-1.164-.141 4.759 4.759 0 1 0 0 9.517h1.719v-6.514a.93.93 0 0 1 .931-.931h5.586a.931.931 0 0 1 0 1.862h-4.659v5.587h11.173V42.1h-2.793a.931.931 0 0 1 0-1.862h3.724a.93.93 0 0 1 .931.931Zm-13.038 1.862v5.586h11.173v-5.586Zm3.724 3.724a.931.931 0 1 1 0-1.862h3.724a.931.931 0 0 1 0 1.862Zm0-7.448a.931.931 0 1 1 0-1.862h3.724a.931.931 0 0 1 0 1.862ZM11.379 30H9.661a6.621 6.621 0 1 1 0-13.241h.251q-.036-.385-.036-.781a8.38 8.38 0 0 1 16.756-.2.931.931 0 0 1-.166 1.788q-.279.05-.549.128a.93.93 0 0 1-1.184-1 6.514 6.514 0 1 0-12.994-.716 6.4 6.4 0 0 0 .21 1.639.93.93 0 0 1-1.124 1.141 4.8 4.8 0 0 0-1.164-.141 4.759 4.759 0 1 0 0 9.517h1.719v-6.513a.93.93 0 0 1 .931-.931h13.034a.93.93 0 0 1 .931.931v6.517h1.146a5.321 5.321 0 0 0 2.194-10.191.931.931 0 0 1 .758-1.7A7.183 7.183 0 0 1 27.422 30h-1.146v6.517a.93.93 0 0 1-.931.931H12.31a.93.93 0 0 1-.931-.931Zm13.034-1.862v-5.586H13.241v5.586ZM13.241 30v5.586h11.173V30Zm3.724 3.724a.931.931 0 1 1 0-1.862h3.725a.931.931 0 1 1 0 1.862Zm0-7.448a.931.931 0 0 1 0-1.862h3.725a.931.931 0 0 1 0 1.862ZM56.571 24.4l-6.126 3.918a.93.93 0 0 1-1.363-.432l-2.749-6.732a.931.931 0 0 1 1.143-1.239l1.439.456A11.174 11.174 0 0 0 30.58 11.2a.93.93 0 0 1-1.283-.086l-2.519-2.747a.93.93 0 0 1 .082-1.337 16.76 16.76 0 0 1 27.494 15.065l2 .633a.931.931 0 0 1 .221 1.671Zm-2.678-.5-.871-.277a.93.93 0 0 1-.633-1.063A14.9 14.9 0 0 0 28.823 7.843l1.265 1.38a13.037 13.037 0 0 1 20.553 12.522.93.93 0 0 1-1.2.745l-.631-.2 1.574 3.857Z"/></g></svg>