<svg xmlns="http://www.w3.org/2000/svg" width="55.86" height="59.518"><path d="M49.323 0h-2.554a.872.872 0 0 0 0 1.744h2.559a4.79 4.79 0 0 1 4.793 4.775V26.7a4.79 4.79 0 0 1-4.793 4.775h-2.9a.87.87 0 0 0-.53.179l-5.329 4.074v-3.381a.87.87 0 0 0-.872-.872H29.081a4.77 4.77 0 0 1-2.441-.665v-9.789a5.32 5.32 0 0 0-2.352-4.412V6.519a4.79 4.79 0 0 1 4.793-4.775H41.3A.872.872 0 0 0 41.3 0H29.081a6.535 6.535 0 0 0-6.537 6.519v9.323a5.4 5.4 0 0 0-1.243-.147H5.339A5.34 5.34 0 0 0 0 21.02v1.88a.872.872 0 0 0 1.744 0v-1.879a3.59 3.59 0 0 1 3.6-3.581h15.957a3.59 3.59 0 0 1 3.6 3.581v10.135a1 1 0 0 0 0 .231v5.547q-.001.165-.017.327h-1.8a4.045 4.045 0 0 0-3.976 3.31.9.9 0 0 0-.226.126l-3.9 3.011v-2.32a.87.87 0 0 0-.872-.872H5.339a3.59 3.59 0 0 1-3.6-3.581v-8.8a.872.872 0 0 0-1.744 0v8.8a5.34 5.34 0 0 0 5.344 5.325h7.9v3.224a.885.885 0 0 0 1.4.69l4.4-3.4v9.81a4.04 4.04 0 0 0 4.042 4.032h5.351v2.035a.885.885 0 0 0 1.4.69l3.537-2.722h1.043a4.04 4.04 0 0 0 4.042-4.032v-1.548a.872.872 0 0 0-1.744 0v1.548a2.3 2.3 0 0 1-2.3 2.288h-1.341a.87.87 0 0 0-.533.182l-2.36 1.822v-1.132a.87.87 0 0 0-.872-.872h-6.222a2.3 2.3 0 0 1-2.3-2.288V41.294a2.3 2.3 0 0 1 2.3-2.288H34.41a2.3 2.3 0 0 1 2.3 2.288v4.281a.872.872 0 0 0 1.744 0v-4.281a4.04 4.04 0 0 0-4.042-4.032H26.63c.007-.109.01-4.513.01-4.513a6.5 6.5 0 0 0 2.441.47h9.74v4.274a.885.885 0 0 0 1.4.693l6.493-4.966h2.607a6.535 6.535 0 0 0 6.539-6.52V6.519A6.536 6.536 0 0 0 49.323 0"/><path d="M41.381 6.442a1.817 1.817 0 0 0-2.235 1.736 5.12 5.12 0 0 1-1.282 3.391l-2.4 2.719a.87.87 0 0 0-.73-.4h-4.69a.87.87 0 0 0-.872.872v10.556a.87.87 0 0 0 .872.872h4.69a.87.87 0 0 0 .793-.51 6.1 6.1 0 0 0 3.169.894h8.289a2.28 2.28 0 0 0 2.252-2.362c-.026-.559 0-8.071 0-8.238a2.257 2.257 0 0 0-2.252-2.255l-4.31-.013.178-.423a6.8 6.8 0 0 0-.359-5.991 1.78 1.78 0 0 0-1.112-.847Zm-7.522 18h-2.946v-8.807h2.946Zm13.122-8.984a.51.51 0 0 1 .511.511v1.227c-.013 3.371-.021 6.563 0 7.094a.51.51 0 0 1-.51.536h-8.289a4.34 4.34 0 0 1-2.723-.964l-.367-.3v-6.8l3.568-4.038a6.87 6.87 0 0 0 1.719-4.546.049.049 0 0 1 .09-.024 5.05 5.05 0 0 1 .266 4.448l-.688 1.63a.872.872 0 0 0 .8 1.211ZM7.466 30.286a.872.872 0 1 0 0 1.744h2.57l-.48 2.9a.872.872 0 1 0 1.721.284l.527-3.188h2.1l-.48 2.9a.872.872 0 1 0 1.721.285l.527-3.188h3.5a.872.872 0 1 0 0-1.744h-3.209l.352-2.127h2.859a.872.872 0 1 0 0-1.744h-2.571l.48-2.9a.872.872 0 0 0-1.721-.285l-.527 3.188h-2.1l.48-2.9a.872.872 0 1 0-1.721-.284l-.527 3.188h-3.5a.872.872 0 1 0 0 1.744h3.21l-.352 2.127Zm4.978-2.127h2.1l-.352 2.127h-2.1ZM28.736 43.505a2.93 2.93 0 0 0-2.58-.58 3.244 3.244 0 0 0-2.419 3.273 4.28 4.28 0 0 0 1.288 3.065 12.8 12.8 0 0 0 3.313 2.285.87.87 0 0 0 .817 0c2.762-1.464 4.6-2.934 4.6-5.35a3.22 3.22 0 0 0-2.505-3.256 2.92 2.92 0 0 0-2.514.563m3.277 2.694c0 1.3-.864 2.266-3.266 3.589-2.4-1.322-3.266-2.286-3.266-3.589a1.49 1.49 0 0 1 1.087-1.579 1.3 1.3 0 0 1 .307-.037 1.2 1.2 0 0 1 1.1.7.872.872 0 0 0 1.565-.031 1.13 1.13 0 0 1 1.337-.609 1.475 1.475 0 0 1 1.135 1.555Z"/></svg>