<svg xmlns="http://www.w3.org/2000/svg" width="60" height="60"><defs><clipPath id="a"><path d="M0 0h60v60H0z"/></clipPath></defs><g clip-path="url(#a)"><path d="m40.78 38.219-1.56-.506a9.4 9.4 0 0 0-.861-2.074l.745-1.461a.84.84 0 0 0-.154-.978l-1.833-1.837a.84.84 0 0 0-.978-.155l-1.464.745a9.5 9.5 0 0 0-2.073-.858l-.505-1.561a.84.84 0 0 0-.8-.582h-2.594a.84.84 0 0 0-.8.582l-.506 1.561a9.5 9.5 0 0 0-2.073.858l-1.464-.745a.84.84 0 0 0-.979.156l-1.834 1.834a.84.84 0 0 0-.155.979l.745 1.461a9.5 9.5 0 0 0-.861 2.074l-1.56.507a.84.84 0 0 0-.583.8v2.593a.84.84 0 0 0 .583.8l1.56.507a9.4 9.4 0 0 0 .861 2.073l-.74 1.461a.84.84 0 0 0 .155.979l1.831 1.834a.84.84 0 0 0 .979.156l1.464-.745a9.5 9.5 0 0 0 2.073.858l.507 1.563a.84.84 0 0 0 .8.583h2.591a.84.84 0 0 0 .8-.583l.507-1.563a9.5 9.5 0 0 0 2.073-.858l1.464.745a.84.84 0 0 0 .978-.155l1.833-1.835a.84.84 0 0 0 .154-.978l-.745-1.461a9.5 9.5 0 0 0 .861-2.073l1.56-.507a.84.84 0 0 0 .583-.8v-2.594a.84.84 0 0 0-.581-.8Zm-1.1 2.782-1.421.463a.84.84 0 0 0-.56.613 7.8 7.8 0 0 1-1.011 2.435.85.85 0 0 0-.039.832l.679 1.333-.966.967-1.33-.678a.84.84 0 0 0-.83.037 7.9 7.9 0 0 1-2.44 1.01.84.84 0 0 0-.614.561l-.463 1.423h-1.369l-.463-1.423a.84.84 0 0 0-.614-.561 7.8 7.8 0 0 1-2.44-1.01.84.84 0 0 0-.83-.037l-1.329.678-.966-.969.678-1.332a.84.84 0 0 0-.039-.832 7.8 7.8 0 0 1-1.016-2.436.84.84 0 0 0-.56-.613l-1.421-.463v-1.368l1.419-.458a.84.84 0 0 0 .563-.615 7.8 7.8 0 0 1 1.015-2.439.85.85 0 0 0 .039-.832l-.678-1.332.966-.969 1.329.678a.84.84 0 0 0 .83-.037 7.9 7.9 0 0 1 2.44-1.01.84.84 0 0 0 .614-.561l.462-1.42h1.366l.462 1.42a.84.84 0 0 0 .614.561 7.8 7.8 0 0 1 2.44 1.01.84.84 0 0 0 .83.037l1.33-.678.966.968-.679 1.333a.84.84 0 0 0 .039.832 7.8 7.8 0 0 1 1.014 2.438.84.84 0 0 0 .563.615l1.419.458Zm-9.683-6.515a5.828 5.828 0 1 0 5.826 5.828 5.835 5.835 0 0 0-5.826-5.828m0 9.972a4.144 4.144 0 1 1 4.141-4.144 4.15 4.15 0 0 1-4.141 4.144m26.762-12.239-7.126-7.869a.84.84 0 0 0-1.248 0l-7.127 7.869a.843.843 0 0 0 .625 1.408h3.7v10.046a.84.84 0 0 0 .842.842h5.162a.84.84 0 0 0 .842-.842V33.629h3.7a.842.842 0 0 0 .63-1.41m-5.168-.277a.84.84 0 0 0-.842.842V42.83h-3.478V32.786a.84.84 0 0 0-.842-.842h-2.648l5.229-5.771 5.226 5.771Zm-32.7 1.184a.84.84 0 0 0-.15-.907l-7.129-7.868a.84.84 0 0 0-1.249 0l-7.124 7.868a.843.843 0 0 0 .625 1.41h3.7v10.044a.84.84 0 0 0 .842.842h5.162a.84.84 0 0 0 .842-.842V33.629h3.7a.84.84 0 0 0 .77-.5Zm-5.317-1.184a.84.84 0 0 0-.842.842V42.83H9.249V32.786a.84.84 0 0 0-.842-.842H5.762l5.226-5.771 5.229 5.771ZM9.249 46.676v6.005a.842.842 0 0 1-1.684 0v-6.005a.842.842 0 0 1 1.684 0m2.581 1.479v6.004a.842.842 0 0 1-1.684 0v-6.005a.842.842 0 1 1 1.684 0Zm2.581-2.372v6.005a.842.842 0 0 1-1.684 0v-6.006a.842.842 0 0 1 1.684 0Zm8.461-31.229h3.7v10.043a.84.84 0 0 0 .842.842h5.162a.84.84 0 0 0 .842-.842V14.553h3.7a.843.843 0 0 0 .625-1.408l-7.126-7.869a.84.84 0 0 0-1.248 0l-7.128 7.869a.843.843 0 0 0 .624 1.408Zm7.125-7.458 5.226 5.771h-2.641a.84.84 0 0 0-.842.842v10.045h-3.478V13.71a.84.84 0 0 0-.842-.842h-2.647Zm22.437 39.58v6.005a.842.842 0 0 1-1.684 0v-6.005a.842.842 0 0 1 1.684 0m-2.581 1.479v6.004a.842.842 0 1 1-1.684 0v-6.005a.842.842 0 1 1 1.684 0Zm-2.581-2.372v6.005a.842.842 0 0 1-1.684 0v-6.006a.842.842 0 0 1 1.684 0Z"/></g></svg>