<svg xmlns="http://www.w3.org/2000/svg" width="55.97" height="51.848"><path d="M55.817 39.578a4.55 4.55 0 0 0-5.4-3.159l-16.835 3.574a4.13 4.13 0 0 0-1.805-4.985l-9.761-5.636a7.4 7.4 0 0 1-1.1-.838A6.57 6.57 0 0 0 17 26.658c-1.89-.2-4.35.243-7.673 1.392a3 3 0 0 0-2.956-2.531H2.992A3 3 0 0 0 0 28.512v16.634a3 3 0 0 0 2.992 2.992h3.37a3 3 0 0 0 2.991-2.945c2.692-.378 6.112 1.574 9.428 3.468 2.857 1.632 5.581 3.188 7.857 3.188a4.2 4.2 0 0 0 1.264-.184l24.77-6.637a4.45 4.45 0 0 0 3.145-5.45M6.363 46.332h-3.37a1.19 1.19 0 0 1-1.188-1.186V28.512a1.19 1.19 0 0 1 1.187-1.187h3.37a1.19 1.19 0 0 1 1.187 1.187v16.634a1.19 1.19 0 0 1-1.186 1.186m45.843-3.046L27.42 49.925l-.042.012c-1.741.556-4.77-1.172-7.7-2.845-3.49-1.995-7.087-4.046-10.321-3.724V29.952c7.374-2.645 8.9-1.328 10.381-.053a9 9 0 0 0 1.377 1.037l9.761 5.635a2.32 2.32 0 0 1-2.329 4.014l-8.149-4.7a.902.902 0 0 0-.9 1.563l8.147 4.698a4.1 4.1 0 0 0 2.055.552 4.16 4.16 0 0 0 1.864-.445 1 1 0 0 0 .126-.017l19.1-4.044a2.71 2.71 0 0 1 3.28 1.854 2.644 2.644 0 0 1-1.864 3.233Zm-46.023-12.7a1.505 1.505 0 1 1-1.5-1.5 1.505 1.505 0 0 1 1.5 1.5M24 20.667h1.528a14 14 0 0 0 1.293 3.119l-1.08 1.081a1.64 1.64 0 0 0-.152 2.157 17 17 0 0 0 3.35 3.349 1.635 1.635 0 0 0 2.157-.151l1.081-1.08a14 14 0 0 0 3.118 1.3v1.524a1.636 1.636 0 0 0 1.42 1.632 17 17 0 0 0 4.739 0 1.636 1.636 0 0 0 1.421-1.634v-1.526A14 14 0 0 0 46 29.146l1.08 1.08a1.635 1.635 0 0 0 2.157.151 17 17 0 0 0 3.348-3.351 1.64 1.64 0 0 0-.151-2.157l-1.083-1.083a14 14 0 0 0 1.293-3.118h1.529a1.635 1.635 0 0 0 1.627-1.422 17 17 0 0 0 0-4.739 1.635 1.635 0 0 0-1.632-1.418h-1.53a14 14 0 0 0-1.294-3.119l1.081-1.08a1.64 1.64 0 0 0 .158-2.144 17 17 0 0 0-3.35-3.35 1.635 1.635 0 0 0-2.157.151L46 4.624a14 14 0 0 0-3.117-1.3V1.797A1.636 1.636 0 0 0 41.465.164a17.2 17.2 0 0 0-4.739 0A1.637 1.637 0 0 0 35.3 1.797v1.528a14 14 0 0 0-3.121 1.294L31.1 3.538a1.64 1.64 0 0 0-2.157-.151 17 17 0 0 0-3.35 3.359 1.636 1.636 0 0 0 .152 2.157l1.08 1.08a14 14 0 0 0-1.293 3.119H24a1.636 1.636 0 0 0-1.633 1.418 17 17 0 0 0 0 4.739A1.635 1.635 0 0 0 24 20.667m.137-5.768h2.094a.9.9 0 0 0 .881-.707 12.2 12.2 0 0 1 1.607-3.875.9.9 0 0 0-.119-1.121l-1.48-1.482a15.1 15.1 0 0 1 2.8-2.8l1.48 1.482a.9.9 0 0 0 1.123.124A12.2 12.2 0 0 1 36.4 4.911a.9.9 0 0 0 .705-.877v-2.1a15.3 15.3 0 0 1 3.964 0v2.1a.9.9 0 0 0 .707.881 12.2 12.2 0 0 1 3.874 1.6.9.9 0 0 0 1.123-.124l1.482-1.482a15.2 15.2 0 0 1 2.8 2.8l-1.48 1.482a.9.9 0 0 0-.124 1.122 12.2 12.2 0 0 1 1.607 3.873.9.9 0 0 0 .881.705h2.094a15.2 15.2 0 0 1 0 3.964h-2.1a.9.9 0 0 0-.88.705 12.2 12.2 0 0 1-1.603 3.886.9.9 0 0 0 .124 1.122l1.482 1.478a15.2 15.2 0 0 1-2.8 2.8l-1.482-1.48a.9.9 0 0 0-1.124-.12 12.2 12.2 0 0 1-3.876 1.607.9.9 0 0 0-.705.88v2.1a15.3 15.3 0 0 1-3.964 0v-2.1a.9.9 0 0 0-.705-.887 12.1 12.1 0 0 1-3.875-1.6.9.9 0 0 0-1.123.124l-1.481 1.476a15.1 15.1 0 0 1-2.8-2.8l1.48-1.476a.9.9 0 0 0 .124-1.122 12.2 12.2 0 0 1-1.607-3.875.9.9 0 0 0-.881-.706h-2.096a15.2 15.2 0 0 1 0-3.963Zm14.95 11.025a9.039 9.039 0 1 0-9.039-9.039 9.04 9.04 0 0 0 9.039 9.039m0-16.274a7.234 7.234 0 1 1-7.234 7.234 7.234 7.234 0 0 1 7.234-7.238Zm-3.754 8.088a.903.903 0 0 1 1.277-1.276l1.45 1.45 3.464-3.975a.9.9 0 0 1 1.354 1.187l-4.1 4.7a.9.9 0 0 1-.65.309H38.1a.9.9 0 0 1-.639-.264Z"/></svg>