<svg xmlns="http://www.w3.org/2000/svg" width="50.848" height="50.848"><path d="M27.966 5.085h-5.085a.848.848 0 1 1 0-1.695h5.085a.848.848 0 1 1 0 1.695M34.745 50.849H16.101a4.24 4.24 0 0 1-4.237-4.239V17.796a.848.848 0 1 1 1.695 0V46.61a2.545 2.545 0 0 0 2.542 2.539h18.644a2.545 2.545 0 0 0 2.542-2.542V17.796a.848.848 0 1 1 1.695 0V46.61a4.24 4.24 0 0 1-4.237 4.239"/><path d="M38.135 23.729a.85.85 0 0 1-.847-.847V4.237a2.545 2.545 0 0 0-2.542-2.542H16.101a2.545 2.545 0 0 0-2.542 2.542v18.645a.848.848 0 1 1-1.695 0V4.237A4.24 4.24 0 0 1 16.101 0h18.644a4.24 4.24 0 0 1 4.237 4.237v18.645a.85.85 0 0 1-.847.847M43.22 8.56a.78.78 0 0 1-.847-.763v-.17a.848.848 0 0 1 1.695 0 .924.924 0 0 1-.847.932ZM43.22 11.95a.78.78 0 0 1-.847-.763v-.17a.848.848 0 1 1 1.695 0 .924.924 0 0 1-.848.933M43.22 15.34a.78.78 0 0 1-.847-.763v-.17a.848.848 0 0 1 1.695 0 .924.924 0 0 1-.848.933M7.627 37.204a.78.78 0 0 1-.847-.763v-.169a.848.848 0 0 1 1.695 0 .924.924 0 0 1-.847.932ZM7.627 40.594a.78.78 0 0 1-.847-.763v-.169a.848.848 0 0 1 1.695 0 .924.924 0 0 1-.847.932ZM7.627 43.984a.78.78 0 0 1-.847-.763v-.169a.848.848 0 1 1 1.695 0 .924.924 0 0 1-.847.932Z"/><path d="M40.409 44.068a1 1 0 0 1-.18-.019.847.847 0 0 1-.649-1.007l.556-2.593a.85.85 0 0 1 .629-.644 8.1 8.1 0 0 0 2.317-.968.85.85 0 0 1 .9.008l1.678 1.073 1.039-1.047-1.073-1.664a.85.85 0 0 1-.012-.9 8 8 0 0 0 .966-2.317.85.85 0 0 1 .641-.631l1.932-.429v-1.452l-1.931-.429a.85.85 0 0 1-.641-.631 8.1 8.1 0 0 0-.966-2.317.84.84 0 0 1 .01-.9l1.075-1.68-1.037-1.037-1.68 1.075a.84.84 0 0 1-.9.008 8.2 8.2 0 0 0-2.317-.968.85.85 0 0 1-.629-.644l-.417-1.924h-.741a.848.848 0 1 1 0-1.695h1.424a.85.85 0 0 1 .827.669l.453 2.09a10 10 0 0 1 1.815.759l1.82-1.164a.85.85 0 0 1 1.056.115l2 2a.846.846 0 0 1 .114 1.056l-1.164 1.82a10 10 0 0 1 .759 1.819l2.093.464a.85.85 0 0 1 .666.829v2.814a.85.85 0 0 1-.664.827l-2.093.464a9.8 9.8 0 0 1-.759 1.817l1.163 1.8a.844.844 0 0 1-.11 1.056l-2 2.017a.85.85 0 0 1-1.058.117l-1.82-1.164a10 10 0 0 1-1.815.759l-.453 2.09a.85.85 0 0 1-.827.671Z"/><path d="M41.34 36.573a.847.847 0 0 1-.471-1.551 3.391 3.391 0 0 0-1.882-6.208 3.5 3.5 0 0 0-.678.068.848.848 0 1 1-.341-1.661 5.2 5.2 0 0 1 1.019-.102 5.085 5.085 0 0 1 2.829 9.31.85.85 0 0 1-.471.144ZM11.865 23.729a5.085 5.085 0 0 1-2.817-9.319.847.847 0 1 1 .939 1.41 3.391 3.391 0 0 0 1.878 6.214 3.3 3.3 0 0 0 .664-.066.847.847 0 1 1 .334 1.661 5 5 0 0 1-1 .1Z"/><path d="M11.864 30.509h-1.423a.85.85 0 0 1-.827-.669l-.453-2.09a10 10 0 0 1-1.815-.759l-1.82 1.164a.85.85 0 0 1-1.056-.115l-2-2a.846.846 0 0 1-.116-1.06l1.164-1.82a10 10 0 0 1-.759-1.819L.666 20.88A.85.85 0 0 1 0 20.051v-2.813a.85.85 0 0 1 .664-.827l2.093-.464a9.8 9.8 0 0 1 .759-1.817l-1.16-1.806a.844.844 0 0 1 .11-1.056l2-2.017a.844.844 0 0 1 1.058-.117l1.82 1.164a10 10 0 0 1 1.815-.759l.453-2.09a.847.847 0 1 1 1.656.358L10.71 10.4a.85.85 0 0 1-.629.644 8.2 8.2 0 0 0-2.319.968.85.85 0 0 1-.9-.008l-1.674-1.073-1.041 1.049 1.073 1.663a.84.84 0 0 1 .012.9 8 8 0 0 0-.966 2.317.85.85 0 0 1-.641.631l-1.931.427v1.452l1.931.429a.85.85 0 0 1 .641.631 8.1 8.1 0 0 0 .966 2.317.84.84 0 0 1-.01.9l-1.075 1.675 1.038 1.038 1.68-1.075a.85.85 0 0 1 .9-.008 8.2 8.2 0 0 0 2.317.968.85.85 0 0 1 .629.644l.417 1.925h.741a.848.848 0 1 1 0 1.695ZM24.577 29.661a1 1 0 0 1-.205-.025.846.846 0 0 1-.617-1.027l1.695-6.78a.847.847 0 1 1 1.644.41l-1.695 6.78a.845.845 0 0 1-.822.642M29.661 29.66a.847.847 0 0 1-.6-1.446l2.792-2.792-2.79-2.79a.849.849 0 1 1 1.2-1.2l3.39 3.39a.85.85 0 0 1 0 1.2l-3.39 3.39a.85.85 0 0 1-.602.248M21.186 29.66a.85.85 0 0 1-.6-.247l-3.39-3.39a.85.85 0 0 1 0-1.2l3.39-3.39a.849.849 0 0 1 1.2 1.2l-2.79 2.79 2.79 2.79a.85.85 0 0 1 0 1.2.84.84 0 0 1-.6.247"/></svg>