<svg xmlns="http://www.w3.org/2000/svg" width="51.588" height="50.722"><path d="M48.422 50.722H3.166A3.327 3.327 0 0 1 0 47.257V3.465A3.333 3.333 0 0 1 3.166 0h45.256a3.327 3.327 0 0 1 3.166 3.465v43.792a3.33 3.33 0 0 1-3.166 3.465M3.166 1.771a1.587 1.587 0 0 0-1.395 1.694v43.792a1.59 1.59 0 0 0 1.395 1.694h45.256a1.587 1.587 0 0 0 1.395-1.694V3.465a1.59 1.59 0 0 0-1.395-1.694Z"/><path d="M50.7 14.824H.886a.886.886 0 0 1 0-1.771H50.7a.886.886 0 0 1 0 1.771M43.105 10.184a2.768 2.768 0 1 1 2.768-2.768 2.77 2.77 0 0 1-2.768 2.768m0-3.764a1 1 0 1 0 1 1 1 1 0 0 0-1-1M33.498 10.184a2.768 2.768 0 1 1 2.768-2.768 2.77 2.77 0 0 1-2.768 2.768m0-3.764a1 1 0 1 0 1 1 1 1 0 0 0-1-1M25.777 8.298H6.603a.886.886 0 0 1 0-1.771h19.174a.886.886 0 0 1 0 1.771M17.664 45.633a.9.9 0 0 1-.532-.178l-7.443-5.6a.886.886 0 0 1 0-1.416l7.443-5.6a.886.886 0 0 1 1.065 1.416l-6.5 4.9 6.5 4.9a.886.886 0 0 1-.532 1.593ZM28.696 44.956a.89.89 0 0 1-.768-.443l-5.8-10.049a.886.886 0 1 1 1.534-.886l5.8 10.049a.886.886 0 0 1-.766 1.328ZM33.922 45.633a.886.886 0 0 1-.532-1.593l6.5-4.9-6.5-4.9a.886.886 0 0 1 1.065-1.416l7.443 5.6a.886.886 0 0 1 0 1.416l-7.443 5.6a.9.9 0 0 1-.533.193M21.16 28.774a.886.886 0 0 1-.886-.886v-7.417a.886.886 0 0 1 1.771 0v7.417a.886.886 0 0 1-.885.886M25.971 28.774a.886.886 0 0 1-.886-.886v-7.417a.886.886 0 0 1 1.771 0v7.417a.886.886 0 0 1-.885.886"/><path d="M25.971 25.064H21.16a.886.886 0 1 1 0-1.771h4.811a.886.886 0 1 1 0 1.771M15.269 25.059h-2.355a.886.886 0 0 1-.886-.886v-3.7a.886.886 0 0 1 .886-.886h2.355c2.113 0 3.219 1.376 3.219 2.737s-1.108 2.735-3.219 2.735M13.8 23.288h1.469c1 0 1.448-.484 1.448-.964s-.443-.965-1.448-.965H13.8Z"/><path d="M12.915 28.774a.886.886 0 0 1-.886-.886v-3.715a.886.886 0 1 1 1.771 0v3.715a.886.886 0 0 1-.885.886M32.72 25.059h-2.355a.886.886 0 0 1-.886-.886v-3.7a.886.886 0 0 1 .886-.886h2.355c2.114 0 3.22 1.376 3.22 2.737s-1.105 2.735-3.22 2.735m-1.469-1.771h1.469c1 0 1.449-.484 1.449-.964s-.448-.965-1.449-.965h-1.469Z"/><path d="M30.366 28.774a.886.886 0 0 1-.886-.886v-3.715a.886.886 0 1 1 1.771 0v3.715a.886.886 0 0 1-.885.886"/></svg>