<svg xmlns="http://www.w3.org/2000/svg" width="60" height="60"><defs><clipPath id="a"><path d="M0 0h60v60H0z"/></clipPath></defs><g fill="#282928" fill-rule="evenodd" clip-path="url(#a)"><path d="M55.984 29.324h-3.487v-3.092a1.05 1.05 0 0 0-1.056-1.043h-2.4a19.2 19.2 0 0 0-1.868-4.448l1.7-1.678a1.033 1.033 0 0 0 0-1.475l-5.928-5.848a1.066 1.066 0 0 0-1.494 0l-1.7 1.679a19.7 19.7 0 0 0-4.505-1.845V9.202A1.05 1.05 0 0 0 34.19 8.16h-8.379a1.05 1.05 0 0 0-1.056 1.043v2.371a19.7 19.7 0 0 0-4.506 1.845l-1.7-1.679a1.067 1.067 0 0 0-1.494 0l-5.926 5.848a1.033 1.033 0 0 0 0 1.474l1.7 1.679a19.2 19.2 0 0 0-1.869 4.448h-2.4a1.05 1.05 0 0 0-1.056 1.043v3.093H4.016a1.043 1.043 0 1 0 0 2.085h21.759a1.043 1.043 0 1 0 0-2.085H21.22a8.857 8.857 0 0 1 17.559 0h-4.554a1.043 1.043 0 1 0 0 2.085h21.759a1.043 1.043 0 1 0 0-2.085ZM30 19.551a10.92 10.92 0 0 0-10.907 9.774H9.616v-2.05h2.169a1.054 1.054 0 0 0 1.03-.81 17.1 17.1 0 0 1 2.24-5.331 1.03 1.03 0 0 0-.148-1.292l-1.537-1.516 4.431-4.374 1.536 1.516a1.07 1.07 0 0 0 1.308.146 17.6 17.6 0 0 1 5.4-2.211 1.045 1.045 0 0 0 .82-1.016v-2.142h6.267v2.141a1.046 1.046 0 0 0 .82 1.017 17.6 17.6 0 0 1 5.4 2.211 1.066 1.066 0 0 0 1.308-.146l1.536-1.516 4.431 4.374-1.536 1.516a1.03 1.03 0 0 0-.148 1.292 17.2 17.2 0 0 1 2.24 5.332 1.05 1.05 0 0 0 1.029.81h2.169v2.05h-9.474A10.92 10.92 0 0 0 30 19.551M13.459 36.841h2.2a2.24 2.24 0 0 1 2.238 2.238 1.043 1.043 0 1 0 2.085 0 4.33 4.33 0 0 0-4.323-4.323h-2.2a4.33 4.33 0 0 0-4.323 4.323v7.978a4.33 4.33 0 0 0 4.323 4.328h2.2a4.33 4.33 0 0 0 4.323-4.323 1.043 1.043 0 1 0-2.085 0 2.24 2.24 0 0 1-2.238 2.238h-2.2a2.24 2.24 0 0 1-2.238-2.238v-7.978a2.24 2.24 0 0 1 2.238-2.243M37.194 34.965a1.04 1.04 0 0 0-1.173.5l-5.426 9.672-5.426-9.672a1.043 1.043 0 0 0-1.952.51v14.188a1.043 1.043 0 1 0 2.085 0v-10.2l4.383 7.813a1.043 1.043 0 0 0 1.819 0l4.383-7.813v10.2a1.043 1.043 0 1 0 2.085 0V35.974a1.04 1.04 0 0 0-.778-1.009M45.958 42.025a2.822 2.822 0 1 1 2.3-4.459 1.044 1.044 0 1 0 1.7-1.212 4.907 4.907 0 1 0-4 7.756 2.822 2.822 0 1 1-2.5 4.132 1.043 1.043 0 1 0-1.846.97 4.907 4.907 0 1 0 4.346-7.187m0 0"/><path d="M31.042 30.116a1.043 1.043 0 1 0-1.043 1.043 1.045 1.045 0 0 0 1.043-1.043m0 0"/></g></svg>