<svg xmlns="http://www.w3.org/2000/svg" width="60" height="60"><defs><clipPath id="a"><path d="M0 0h60v60H0z"/></clipPath></defs><g clip-path="url(#a)"><path fill="#282928" d="M9.378 8.762a1.11 1.11 0 0 1-1.063 1.152 1.156 1.156 0 0 1 0-2.3 1.11 1.11 0 0 1 1.063 1.148m4.783 0A1.066 1.066 0 1 1 13.1 7.61a1.11 1.11 0 0 1 1.061 1.152m4.783 0a1.066 1.066 0 1 1-1.063-1.152 1.11 1.11 0 0 1 1.064 1.152Zm6.909 35.259a1.156 1.156 0 1 0 1.063 1.152 1.11 1.11 0 0 0-1.062-1.152ZM24.26 17.98v16.938a1.11 1.11 0 0 1-1.06 1.152H8.315a1.11 1.11 0 0 1-1.063-1.152V17.98a1.11 1.11 0 0 1 1.063-1.153H23.2a1.11 1.11 0 0 1 1.06 1.153m-2.126 1.152H9.378v14.634h12.756Zm5.315.807H38.4a1.156 1.156 0 0 0 0-2.3H27.449a1.156 1.156 0 0 0 0 2.3m0 4.609h8.823a1.156 1.156 0 0 0 0-2.3h-8.823a1.156 1.156 0 0 0 0 2.3M8.315 38.375a1.156 1.156 0 0 0 0 2.3h7.441a1.156 1.156 0 0 0 0-2.3Zm42.927-2.194a7.93 7.93 0 0 0 0 4.849 1.046 1.046 0 0 0 1.485.659l1.205-.608A2.134 2.134 0 0 1 57 43.146v4.907a2.22 2.22 0 0 1-2.126 2.3h-6.007l.59 1.368a3.53 3.53 0 0 1-1.841 4.731 8.25 8.25 0 0 1-5.893 0 3.545 3.545 0 0 1-1.841-4.73l.59-1.368h-6.007a2.223 2.223 0 0 1-2.126-2.3v-1.727h-1.7a1.156 1.156 0 0 1 0-2.3h1.7v-.88a2.134 2.134 0 0 1 3.067-2.067l1.206.609a1.046 1.046 0 0 0 1.488-.662 7.94 7.94 0 0 0 0-4.849 1.056 1.056 0 0 0-1.456-.673l-1.279.646a2.144 2.144 0 0 1-3.024-2.142v-4.852a2.22 2.22 0 0 1 2.126-2.3h6.007l-.59-1.368a3.55 3.55 0 0 1 1.841-4.73 8.15 8.15 0 0 1 4.86-.32v-5.912H5.126v29.5h15.907a1.155 1.155 0 0 1 .038 2.3H4.063A1.11 1.11 0 0 1 3 45.173V6.458a3.33 3.33 0 0 1 3.189-3.457H45.52a3.33 3.33 0 0 1 3.189 3.457v15.014a3.59 3.59 0 0 1 .748 4.012l-.59 1.368h6.007A2.22 2.22 0 0 1 57 29.157v4.854a2.145 2.145 0 0 1-3.023 2.142l-1.277-.646a1.057 1.057 0 0 0-1.456.674Zm-4.659-23.962V6.458a1.11 1.11 0 0 0-1.063-1.152H6.189a1.11 1.11 0 0 0-1.063 1.152v5.761Zm2.654 23.193a3.12 3.12 0 0 1 4.363-1.994l1.279.646v-4.907h-6.012a2.3 2.3 0 0 1-1.925-3.28l.59-1.369a1.187 1.187 0 0 0-.622-1.58 6.35 6.35 0 0 0-4.482 0 1.183 1.183 0 0 0-.621 1.58l.59 1.368a2.3 2.3 0 0 1-1.926 3.281h-6.006v4.907l1.279-.646a3.12 3.12 0 0 1 4.356 1.994 10.3 10.3 0 0 1 0 6.386 3.13 3.13 0 0 1-4.358 1.994l-1.279-.645v4.907h6.007a2.3 2.3 0 0 1 1.93 3.28l-.59 1.368a1.177 1.177 0 0 0 .621 1.58 6.36 6.36 0 0 0 4.482 0 1.18 1.18 0 0 0 .622-1.58l-.59-1.369a2.3 2.3 0 0 1 1.925-3.28h6.007v-4.907l-1.279.646a3.13 3.13 0 0 1-4.358-1.995 10.3 10.3 0 0 1-.003-6.385"/></g></svg>