<svg xmlns="http://www.w3.org/2000/svg" width="52.284" height="52.284"><path d="M37.47 22.656h-2.4q-.1-.258-.217-.511l1.487-1.487a.87.87 0 0 0 0-1.232l-3.482-3.484a.87.87 0 0 0-1.232 0l-1.487 1.488q-.252-.116-.511-.217v-2.4a.87.87 0 0 0-.871-.871h-5.228a.87.87 0 0 0-.871.871v2.4q-.258.1-.511.217l-1.489-1.488a.87.87 0 0 0-1.232 0l-3.484 3.484a.87.87 0 0 0 0 1.232l1.488 1.487q-.116.252-.217.511h-2.4a.87.87 0 0 0-.871.871v5.228a.87.87 0 0 0 .871.871h2.4q.1.258.217.511l-1.488 1.488a.87.87 0 0 0 0 1.232l3.486 3.486a.87.87 0 0 0 1.232 0l1.487-1.487q.252.116.511.217v2.4a.87.87 0 0 0 .871.871h5.228a.87.87 0 0 0 .871-.871v-2.4q.258-.1.511-.217l1.487 1.487a.87.87 0 0 0 1.232 0l3.486-3.486a.87.87 0 0 0 0-1.232l-1.487-1.487q.116-.252.217-.511h2.4a.87.87 0 0 0 .871-.871v-5.228a.87.87 0 0 0-.875-.872m-.871 5.228h-2.143a.87.87 0 0 0-.832.611 7.8 7.8 0 0 1-.594 1.4.87.87 0 0 0 .149 1.034l1.315 1.315-2.253 2.253-1.315-1.315a.87.87 0 0 0-1.034-.149 7.8 7.8 0 0 1-1.4.594.87.87 0 0 0-.611.832v2.143h-3.486v-2.143a.87.87 0 0 0-.611-.832 7.8 7.8 0 0 1-1.4-.594.87.87 0 0 0-1.034.149l-1.315 1.315-2.253-2.253 1.315-1.315a.87.87 0 0 0 .149-1.034 7.8 7.8 0 0 1-.594-1.4.87.87 0 0 0-.832-.611h-2.143v-3.486h2.143a.87.87 0 0 0 .832-.611 7.8 7.8 0 0 1 .594-1.4.87.87 0 0 0-.149-1.034l-1.315-1.315 2.253-2.253L21.35 19.1a.87.87 0 0 0 1.034.149 7.8 7.8 0 0 1 1.4-.594.87.87 0 0 0 .611-.832V15.68h3.486v2.143a.87.87 0 0 0 .611.832 7.8 7.8 0 0 1 1.4.594.87.87 0 0 0 1.034-.149l1.315-1.315 2.253 2.253-1.315 1.315a.87.87 0 0 0-.149 1.034 7.8 7.8 0 0 1 .594 1.4.87.87 0 0 0 .832.611h2.143Z"/><path d="M26.142 19.171a6.971 6.971 0 1 0 6.971 6.971 6.97 6.97 0 0 0-6.971-6.971m0 12.2a5.228 5.228 0 1 1 5.228-5.228 5.23 5.23 0 0 1-5.228 5.228"/><path d="M26.142 22.656a3.486 3.486 0 1 0 3.486 3.486 3.486 3.486 0 0 0-3.486-3.486m0 5.228a1.743 1.743 0 1 1 1.743-1.743 1.743 1.743 0 0 1-1.743 1.743M21.171 8.459a.871.871 0 1 0 1.232-1.232L21.271 6.1l1.127-1.127a.871.871 0 1 0-1.227-1.232l-1.745 1.745a.87.87 0 0 0 0 1.232ZM29.883 8.459a.87.87 0 0 0 1.232 0l1.743-1.743a.87.87 0 0 0 0-1.232l-1.743-1.743a.871.871 0 0 0-1.232 1.232L31.01 6.1l-1.127 1.127a.87.87 0 0 0 0 1.232M24.881 8.622a.87.87 0 0 0 1.169-.39l1.743-3.486a.871.871 0 1 0-1.559-.779l-1.743 3.486a.87.87 0 0 0 .39 1.169M22.401 43.825a.87.87 0 0 0-1.232 0l-1.743 1.745a.87.87 0 0 0 0 1.232l1.745 1.741a.871.871 0 1 0 1.232-1.232l-1.127-1.127 1.127-1.127a.87.87 0 0 0-.002-1.232M31.115 43.825a.871.871 0 0 0-1.232 1.232l1.127 1.127-1.127 1.127a.871.871 0 1 0 1.232 1.232l1.743-1.743a.87.87 0 0 0 0-1.232ZM27.401 43.662a.87.87 0 0 0-1.169.39l-1.743 3.486a.871.871 0 0 0 1.559.779l1.743-3.486a.87.87 0 0 0-.39-1.169"/><path d="M49.67 15.685h-2.614v-6.1A4.36 4.36 0 0 0 42.7 5.228h-6.1V2.614A2.617 2.617 0 0 0 33.985 0H18.3a2.617 2.617 0 0 0-2.614 2.614v2.614h-6.1a4.36 4.36 0 0 0-4.357 4.357v6.1H2.614A2.617 2.617 0 0 0 0 18.3v15.685A2.617 2.617 0 0 0 2.614 36.6h2.614v6.1a4.36 4.36 0 0 0 4.357 4.357h6.1v2.613a2.617 2.617 0 0 0 2.615 2.614h15.685A2.617 2.617 0 0 0 36.6 49.67v-2.614h6.1a4.36 4.36 0 0 0 4.356-4.356v-6.1h2.614a2.617 2.617 0 0 0 2.614-2.614V18.3a2.617 2.617 0 0 0-2.614-2.615M17.428 2.614a.87.87 0 0 1 .871-.871h15.686a.87.87 0 0 1 .871.871v6.971a.87.87 0 0 1-.871.871H18.3a.87.87 0 0 1-.871-.871ZM2.614 34.856a.87.87 0 0 1-.871-.871V18.3a.87.87 0 0 1 .871-.871h6.971a.87.87 0 0 1 .871.871v15.685a.87.87 0 0 1-.871.871ZM34.856 49.67a.87.87 0 0 1-.871.871H18.3a.87.87 0 0 1-.871-.871V42.7a.87.87 0 0 1 .871-.871h15.685a.87.87 0 0 1 .871.871Zm10.457-6.97a2.617 2.617 0 0 1-2.613 2.613h-6.1V42.7a2.617 2.617 0 0 0-2.614-2.614H18.3a2.617 2.617 0 0 0-2.615 2.614v2.614h-6.1A2.617 2.617 0 0 1 6.971 42.7v-6.1h2.614a2.617 2.617 0 0 0 2.615-2.615V18.3a2.617 2.617 0 0 0-2.614-2.614H6.971v-6.1a2.617 2.617 0 0 1 2.614-2.614h6.1v2.614A2.617 2.617 0 0 0 18.3 12.2h15.685A2.617 2.617 0 0 0 36.6 9.585V6.971h6.1a2.617 2.617 0 0 1 2.614 2.614v6.1H42.7a2.617 2.617 0 0 0-2.615 2.615v15.685A2.617 2.617 0 0 0 42.7 36.6h2.614Zm5.228-8.714a.87.87 0 0 1-.871.871H42.7a.87.87 0 0 1-.871-.871V18.3a.87.87 0 0 1 .871-.871h6.97a.87.87 0 0 1 .871.871Z"/><path d="M46.8 19.426a.87.87 0 0 0-1.232 0l-1.743 1.745a.871.871 0 0 0 1.232 1.232l1.127-1.127 1.127 1.127a.871.871 0 0 0 1.232-1.232ZM47.311 29.883l-1.127 1.127-1.127-1.127a.871.871 0 0 0-1.232 1.232l1.745 1.743a.87.87 0 0 0 1.232 0l1.743-1.743a.871.871 0 0 0-1.232-1.232ZM44.052 26.05l3.486 1.743a.871.871 0 1 0 .779-1.559l-3.486-1.743a.871.871 0 1 0-.779 1.559M6.716 19.426a.87.87 0 0 0-1.232 0l-1.743 1.745a.871.871 0 1 0 1.232 1.232L6.1 21.276l1.127 1.127a.871.871 0 1 0 1.232-1.232ZM7.227 29.883 6.1 31.01l-1.127-1.127a.871.871 0 0 0-1.232 1.232l1.745 1.743a.87.87 0 0 0 1.232 0l1.743-1.743a.871.871 0 0 0-1.232-1.232ZM3.967 26.05l3.486 1.743a.871.871 0 1 0 .779-1.559l-3.486-1.743a.871.871 0 1 0-.779 1.559"/></svg>