<svg xmlns="http://www.w3.org/2000/svg" width="60" height="60"><defs><clipPath id="a"><path d="M0 0h60v60H0z"/></clipPath></defs><g fill="#282928" clip-path="url(#a)"><path d="M46.2 39.912a10.804 10.804 0 0 0 0-21.607 10.7 10.7 0 0 0-3.721.664A5.41 5.41 0 0 0 37.2 14.7h-.008a12.15 12.15 0 0 0-24.292.45 12 12 0 0 0 .091 1.488A11.7 11.7 0 0 0 14.7 39.912h7.2v4.5h-4.5v1.8h5.4a.9.9 0 0 0 .9-.9v-5.4h1.8v1.8h1.8v-1.8h1.8v11.7h-1.8v1.8H30a.9.9 0 0 0 .9-.9v-12.6h1.8v3.6h1.8v-3.6h1.8v9a.9.9 0 0 0 .9.9h4.5v-1.8h-3.6v-8.1h1.8v5.4a.9.9 0 0 0 .9.9h5.4v-1.8h-4.5v-4.5ZM4.8 28.208a9.906 9.906 0 0 1 9.288-9.871.9.9 0 0 0 .827-1.08 10.351 10.351 0 1 1 20.485-2.1q-.002.15-.014.3l-.013.208a.9.9 0 0 0 1.084.925 3.6 3.6 0 0 1 4.342 3.5c0 .029-.017.147-.018.176a.9.9 0 0 0 1.311.842 8.9 8.9 0 0 1 4.108-1 9.003 9.003 0 0 1 0 18.006H14.7a9.913 9.913 0 0 1-9.9-9.906"/><path d="M27.594 7.915a7.6 7.6 0 0 0-2.539-.435v1.792a5.8 5.8 0 0 1 1.941.332ZM23.082 9.605l-.6-1.689a7.635 7.635 0 0 0-5.075 7.181h1.792a5.84 5.84 0 0 1 3.883-5.492M33.807 24.427l-1.6-.656a8 8 0 0 0-.378-.918l.666-1.591a.9.9 0 0 0-.118-.894 10 10 0 0 0-1.768-1.768.9.9 0 0 0-.894-.118l-1.591.666a8 8 0 0 0-.918-.378l-.656-1.6a.9.9 0 0 0-.716-.549 8.8 8.8 0 0 0-2.5 0 .9.9 0 0 0-.716.549l-.656 1.6a8 8 0 0 0-.918.378l-1.591-.666a.9.9 0 0 0-.894.118 10 10 0 0 0-1.768 1.767.9.9 0 0 0-.118.9l.666 1.591a8 8 0 0 0-.378.918l-1.6.656a.9.9 0 0 0-.549.716 10 10 0 0 0-.082 1.243 10 10 0 0 0 .087 1.248.9.9 0 0 0 .549.716l1.6.656a8 8 0 0 0 .378.918l-.666 1.591a.9.9 0 0 0 .118.894 10 10 0 0 0 1.767 1.768.9.9 0 0 0 .9.118l1.591-.666a8 8 0 0 0 .918.378l.656 1.6a.9.9 0 0 0 .716.549 9 9 0 0 0 2.5 0 .9.9 0 0 0 .716-.549l.656-1.6a8 8 0 0 0 .918-.378l1.591.666a.9.9 0 0 0 .894-.118 10 10 0 0 0 1.768-1.768.9.9 0 0 0 .118-.894l-.675-1.591a8 8 0 0 0 .378-.918l1.6-.656a.9.9 0 0 0 .549-.716 9 9 0 0 0 0-2.5.9.9 0 0 0-.548-.716Zm-1.177 2.474-1.492.612a.9.9 0 0 0-.522.585 6.2 6.2 0 0 1-.557 1.351.9.9 0 0 0-.045.783l.618 1.48a8 8 0 0 1-.726.726l-1.48-.618a.9.9 0 0 0-.784.045 6.2 6.2 0 0 1-1.35.556.9.9 0 0 0-.585.522l-.612 1.492a7 7 0 0 1-1.02 0l-.612-1.492a.9.9 0 0 0-.585-.522 6.2 6.2 0 0 1-1.351-.557.9.9 0 0 0-.783-.045l-1.48.619a8 8 0 0 1-.726-.726l.618-1.48a.9.9 0 0 0-.045-.783 6.2 6.2 0 0 1-.557-1.351.9.9 0 0 0-.522-.585l-1.492-.612q-.018-.267-.018-.51c0-.243.006-.331.02-.51l1.492-.612a.9.9 0 0 0 .522-.585 6.2 6.2 0 0 1 .557-1.351.9.9 0 0 0 .045-.783l-.619-1.48a8 8 0 0 1 .726-.726l1.48.618a.9.9 0 0 0 .783-.045 6.2 6.2 0 0 1 1.351-.557.9.9 0 0 0 .585-.522l.612-1.492a7 7 0 0 1 1.02 0l.612 1.492a.9.9 0 0 0 .585.522 6.2 6.2 0 0 1 1.351.557.9.9 0 0 0 .783.045l1.48-.618a8 8 0 0 1 .726.726l-.618 1.48a.9.9 0 0 0 .045.784 6.2 6.2 0 0 1 .556 1.35.9.9 0 0 0 .522.585l1.492.612q.02.267.02.51c0 .243-.006.331-.02.51M45.049 33.863l.872.5.9-1.552-.873-.5a5 5 0 0 0 .159-.513h.987v-1.792h-.987a4 4 0 0 0-.159-.513l.873-.5-.9-1.552-.872.5a5 5 0 0 0-.375-.375l.5-.872-1.552-.9-.5.873a5 5 0 0 0-.513-.159v-.983h-1.792v.987a4 4 0 0 0-.513.159l-.5-.873-1.552.9.5.872a5 5 0 0 0-.375.375l-.872-.5-.9 1.552.873.5a5 5 0 0 0-.159.513h-.982v1.792h.987a4 4 0 0 0 .159.513l-.873.5.9 1.552.872-.5a5 5 0 0 0 .375.375l-.5.872 1.552.9.5-.873a5 5 0 0 0 .513.159v.987h1.792V35.3a4 4 0 0 0 .513-.159l.5.873 1.552-.9-.5-.872a5 5 0 0 0 .37-.379m-3.336-.273a2.688 2.688 0 1 1 2.688-2.688 2.69 2.69 0 0 1-2.688 2.687Z"/><path d="M24.595 21.917a4.48 4.48 0 1 0 4.48 4.48 4.485 4.485 0 0 0-4.48-4.48m0 7.168a2.688 2.688 0 1 1 2.688-2.688 2.69 2.69 0 0 1-2.688 2.688M12.902 44.406h2.688v1.792h-2.688ZM27.285 48.936V43.56h-1.792v4.48h-3.584v1.792h4.48a.9.9 0 0 0 .896-.896M17.403 48.04h2.688v1.792h-2.688ZM12.902 48.04h2.688v1.792h-2.688ZM18.31 51.624h7.168v1.792H18.31ZM14.702 55.208h1.792V57h-1.792ZM18.302 55.208h1.792V57h-1.792ZM21.903 55.208h1.792V57h-1.792ZM32.688 55.208H25.52V57h8.064a.9.9 0 0 0 .9-.9v-4.476h-1.796ZM32.705 45.352h1.792v4.48h-1.792ZM8.211 46.203h2.853v-1.792H8.211a2.688 2.688 0 1 0 0 1.792m-3.419-.9a.9.9 0 1 1 .9.9.9.9 0 0 1-.9-.896ZM43.509 48.04h2.688v1.792h-2.688ZM48.04 48.04h2.688v1.792H48.04ZM54.312 42.619a2.68 2.68 0 0 0-2.523 1.792H48.04v1.792h3.749a2.683 2.683 0 1 0 2.523-3.584m0 3.584a.9.9 0 1 1 .9-.9.9.9 0 0 1-.9.9M8.376 49.832a2.688 2.688 0 1 0 2.523 3.584h5.541v-1.792h-5.541a2.68 2.68 0 0 0-2.523-1.792m0 3.584a.9.9 0 1 1 .9-.9.9.9 0 0 1-.9.9"/></g></svg>