<svg xmlns="http://www.w3.org/2000/svg" width="60" height="60"><defs><clipPath id="a"><path d="M0 0h60v60H0z"/></clipPath></defs><g clip-path="url(#a)"><path d="M51.744 16.696h-9.327a.808.808 0 1 0 0 1.616h9.327a.808.808 0 0 0 0-1.616M42.417 14.576h6.964a.808.808 0 0 0 0-1.616h-6.964a.808.808 0 1 0 0 1.616M27.993 27.803h-7.91a5.35 5.35 0 0 0-5.237 5.448v8.3a5.35 5.35 0 0 0 5.237 5.448h19.29a5.35 5.35 0 0 0 5.237-5.448v-8.3a5.35 5.35 0 0 0-5.237-5.448H31.56a.808.808 0 0 0 0 1.616h7.813a3.765 3.765 0 0 1 3.685 3.832v8.3a3.765 3.765 0 0 1-3.685 3.832h-19.29a3.765 3.765 0 0 1-3.685-3.832v-8.3a3.765 3.765 0 0 1 3.685-3.832h7.91a.808.808 0 0 0 0-1.616"/><path d="M56.964 15.98v-.346a8.68 8.68 0 0 0-8.6-8.745h-3.3a8.625 8.625 0 0 0-8.107 5.83 31 31 0 0 0-3.323-.56v-.149a3.909 3.909 0 1 0-7.817 0v.154a27 27 0 0 0-12.012 4.227A15.92 15.92 0 0 0 6.405 30v1.578a4.36 4.36 0 0 0-2.248 1.76 7.84 7.84 0 0 0 0 8.065 4.24 4.24 0 0 0 3.59 1.979h2.368v.171a9.58 9.58 0 0 0 2.766 6.761 9.22 9.22 0 0 0 6.612 2.8h.018l8.482-.012a.805.805 0 0 0 0-1.609l-8.483.012a7.66 7.66 0 0 1-5.512-2.327 7.97 7.97 0 0 1-2.3-5.623V32.204a11.41 11.41 0 0 1 11.3-11.5h13.48a11 11 0 0 1 1.432.091 8.8 8.8 0 0 0 1.339 1.6l.019 2.624a.95.95 0 0 0 .369.825.9.9 0 0 0 .54.178 1.1 1.1 0 0 0 .395-.076l.024-.01 2.92-1.2.025-.011h1.51a11.56 11.56 0 0 1 2.725 7.439v11.388a7.97 7.97 0 0 1-2.3 5.623 7.66 7.66 0 0 1-5.5 2.327h-.015l-8.324-.011a.805.805 0 0 0 0 1.609l8.321.012h.018a9.22 9.22 0 0 0 6.612-2.8 9.58 9.58 0 0 0 2.766-6.761v-.171h2.368a4.24 4.24 0 0 0 3.592-1.983 7.84 7.84 0 0 0 0-8.065 4.36 4.36 0 0 0-2.2-1.744v-1.597a16.2 16.2 0 0 0-1.135-6.082 8.76 8.76 0 0 0 4.985-7.929M10.115 41.773H7.747c-2.15 0-3.13-2.287-3.13-4.412a5.74 5.74 0 0 1 .841-3.12 2.64 2.64 0 0 1 2.289-1.272h2.368ZM28.943 19.1h-5.948a12.99 12.99 0 0 0-12.852 12.26H7.982v-1.369a14.37 14.37 0 0 1 6.7-12.271 25.5 25.5 0 0 1 11.533-3.986 3.93 3.93 0 0 0 2.728 2.164Zm.791-4.723a2.3 2.3 0 0 1-1.727-.784 2.37 2.37 0 0 1-.6-1.574v-.009a2.329 2.329 0 1 1 4.657 0v.005a2.37 2.37 0 0 1-.6 1.575 2.3 2.3 0 0 1-1.727.787Zm6.741 4.723h-5.952v-3.2a3.93 3.93 0 0 0 2.733-2.169 30 30 0 0 1 3.32.545 9 9 0 0 0-.1 1.356v.346a8.8 8.8 0 0 0 .576 3.133 12 12 0 0 0-.574-.013Zm12.851 12.26a13.17 13.17 0 0 0-2.28-6.635h1.321a8.4 8.4 0 0 0 2.113-.267 14.5 14.5 0 0 1 1.052 5.533v1.364Zm4.686 2.881a5.74 5.74 0 0 1 .841 3.12c0 2.125-.979 4.412-3.13 4.412h-2.369v-8.8h2.368a2.64 2.64 0 0 1 2.289 1.268Zm-2.711-11.78a6.8 6.8 0 0 1-1.537.513 7 7 0 0 1-1.4.143h-4.98a1.05 1.05 0 0 0-.5.14l-2.05.845-.015-1.984a.83.83 0 0 0-.183-.6 1 1 0 0 0-.055-.061l-.045-.042a7.19 7.19 0 0 1-2.487-5.435v-.346a7 7 0 0 1 .064-.965 7.105 7.105 0 0 1 6.954-6.171h3.3a7.086 7.086 0 0 1 7.018 7.136v.346a7.15 7.15 0 0 1-4.083 6.481Z"/><path d="M26.868 40.649a.81.81 0 0 0-.018 1.142 4.087 4.087 0 0 0 5.9 0 .808.808 0 0 0-1.16-1.124 2.47 2.47 0 0 1-3.581 0 .81.81 0 0 0-1.141-.018M19.901 35.553a3.308 3.308 0 1 0 3.308-3.306 3.31 3.31 0 0 0-3.308 3.306m5 0a1.693 1.693 0 1 1-1.693-1.691 1.694 1.694 0 0 1 1.694 1.691ZM39.902 35.553a3.31 3.31 0 1 0-3.308 3.306 3.31 3.31 0 0 0 3.308-3.306m-5 0a1.694 1.694 0 1 1 1.7 1.691 1.7 1.7 0 0 1-1.7-1.691"/></g></svg>