<svg xmlns="http://www.w3.org/2000/svg" width="60" height="60" fill="none"><path fill="#282928" d="m45.469 11.812 2.812 1.624a.94.94 0 0 0 .938 0l2.812-1.624A.94.94 0 0 0 52.5 11V7.75a.94.94 0 0 0-.469-.811L49.22 5.315a.94.94 0 0 0-.938 0L45.47 6.937a.94.94 0 0 0-.469.812v3.247a.94.94 0 0 0 .469.816Zm1.406-3.52L48.75 7.21l1.875 1.082v2.165L48.75 11.54l-1.875-1.082z"/><path fill="#282928" d="M57.186 43.125h-3.29a8 8 0 0 0-.348-.825l2.335-2.325a.945.945 0 0 0 0-1.331L53.23 35.99a.95.95 0 0 0-.732-.263v-3.853h4.688a.92.92 0 0 0 .834-.516.94.94 0 0 0-.084-.984l-5.625-7.5a.95.95 0 0 0-.75-.375h-6.066l2.531-4.369a2.96 2.96 0 0 1 2.082-1.387 7.4 7.4 0 0 0 5.25-3.825 7.57 7.57 0 0 0-2.72-9.947 7.492 7.492 0 0 0-10.94 8.953 2.88 2.88 0 0 1-.178 2.456l-4.687 8.12h-2.147v-2.813a.94.94 0 0 0-.938-.937h-.937V9.76l1.603-1.594a.95.95 0 0 0 .14-1.144l-2.812-4.688a.93.93 0 0 0-.806-.459H29.06a.93.93 0 0 0-.806.46l-2.813 4.687a.95.95 0 0 0 .14 1.144l1.604 1.593v8.991h-.938a.94.94 0 0 0-.937.938V22.5h-2.297l-4.538-7.866a2.88 2.88 0 0 1-.178-2.456 7.5 7.5 0 0 0-7.65-10.031.942.942 0 0 0-.74 1.406l2.718 4.706-1.003 2.016-2.25-.14-2.71-4.707a.93.93 0 0 0-.777-.469.92.92 0 0 0-.806.404 7.495 7.495 0 0 0 5.868 11.756 2.73 2.73 0 0 1 2.194 1.425L15.43 22.5H8.436a.95.95 0 0 0-.75.375l-5.625 7.5a.94.94 0 0 0-.085.984.92.92 0 0 0 .835.516h4.687v21.563a.937.937 0 0 0 .938.937h28.706l1.5 1.51a.945.945 0 0 0 1.331 0l2.325-2.335q.403.196.825.347v3.29a.937.937 0 0 0 .938.938h3.75a.94.94 0 0 0 .937-.938v-3.29q.423-.15.825-.347l2.325 2.334a.945.945 0 0 0 1.332 0l2.653-2.653a.945.945 0 0 0 0-1.331l-2.335-2.325a8 8 0 0 0 .347-.825h3.29a.94.94 0 0 0 .938-.938v-3.75a.94.94 0 0 0-.937-.937M43.142 15.319a4.74 4.74 0 0 0 .319-4.032 5.611 5.611 0 0 1 8.203-6.712 5.66 5.66 0 0 1 2.044 7.453 5.58 5.58 0 0 1-3.938 2.878 4.86 4.86 0 0 0-3.375 2.288L43.33 22.5h-4.332zm7.95 9.056L55.311 30H36.092l-4.219-5.625zM29.595 3.75h.806l2.166 3.61-1.36 1.35a.97.97 0 0 0-.271.665v9.375H29.06V9.375a.97.97 0 0 0-.272-.666l-1.36-1.35zM14.773 17.606a4.64 4.64 0 0 0-3.75-2.362 5.626 5.626 0 0 1-5.118-7.378l2.09 3.637a.94.94 0 0 0 .76.469l3.375.216a.94.94 0 0 0 .9-.526l1.5-3.028a.97.97 0 0 0-.029-.88l-2.1-3.638a5.625 5.625 0 0 1 4.135 7.415 4.8 4.8 0 0 0 .31 4.04l4.002 6.929h-3.253zM4.686 30l4.219-5.625h19.218L23.905 30H4.685ZM29.06 52.5H9.373V31.875h15a.95.95 0 0 0 .75-.375l3.938-5.25V52.5Zm-1.875-30v-1.875h5.625V22.5zm8.803 29.4a1 1 0 0 0-.263.6h-4.79V26.25l3.937 5.25a.95.95 0 0 0 .75.375h15v5.4l-1.05 1.05a8 8 0 0 0-.825-.347v-3.29a.94.94 0 0 0-.937-.938h-3.75a.94.94 0 0 0-.938.938v3.29q-.42.15-.825.347l-2.325-2.334a.945.945 0 0 0-1.33 0l-2.654 2.653a.945.945 0 0 0 0 1.331l2.334 2.325a8 8 0 0 0-.347.825h-3.29a.94.94 0 0 0-.938.938v3.75a.937.937 0 0 0 .938.937h3.29q.151.422.347.825L35.99 51.9Zm20.26-5.025H53.2a.94.94 0 0 0-.909.703 6.2 6.2 0 0 1-.703 1.678.96.96 0 0 0 .14 1.153l2.166 2.157-1.331 1.33-2.156-2.165a.96.96 0 0 0-1.153-.14 6.2 6.2 0 0 1-1.679.703.94.94 0 0 0-.703.91v3.046h-1.875v-3.047a.94.94 0 0 0-.703-.91 6.2 6.2 0 0 1-1.678-.702.96.96 0 0 0-1.153.14l-2.156 2.166-1.332-1.331 2.166-2.157a.96.96 0 0 0 .14-1.153 6.2 6.2 0 0 1-.702-1.678.94.94 0 0 0-.91-.703h-3.047V45h3.047a.94.94 0 0 0 .91-.703c.15-.59.387-1.156.703-1.678a.96.96 0 0 0-.14-1.153l-2.167-2.157 1.332-1.33 2.156 2.165a.96.96 0 0 0 1.153.14 6.2 6.2 0 0 1 1.678-.703.94.94 0 0 0 .703-.91v-3.046h1.875v3.047a.94.94 0 0 0 .703.91c.591.15 1.157.387 1.679.702a.96.96 0 0 0 1.153-.14l2.156-2.166 1.331 1.331-2.165 2.157a.96.96 0 0 0-.141 1.153c.315.522.552 1.087.703 1.678a.94.94 0 0 0 .91.703h3.046z"/><path fill="#282928" d="M45.938 41.25a4.687 4.687 0 1 0 0 9.374 4.687 4.687 0 0 0 0-9.374m0 7.5a2.813 2.813 0 1 1 0-5.625 2.813 2.813 0 0 1 0 5.625m-32.813-2.812h-.938a.938.938 0 0 0 0 1.874h.938a.938.938 0 0 0 0-1.874m0 2.812h-.938a.938.938 0 0 0 0 1.875h.938a.938.938 0 0 0 0-1.875m8.438-2.812h-5.625a.938.938 0 0 0 0 1.874h5.624a.938.938 0 0 0 0-1.874Zm-8.438-2.813h-.938a.938.938 0 0 0 0 1.875h.938a.938.938 0 0 0 0-1.875m8.438 0h-5.625a.938.938 0 0 0 0 1.875h5.624a.938.938 0 0 0 0-1.875Zm0 5.625h-5.625a.938.938 0 0 0 0 1.875h5.624a.938.938 0 0 0 0-1.875Z"/></svg>