<svg xmlns="http://www.w3.org/2000/svg" width="60" height="60" fill="none"><path fill="#282928" d="M39.872 12.19c.505 0 .914-.41.914-.914v-.69a.915.915 0 0 0-1.829 0v.69c0 .505.41.915.915.915Zm0-3.742c.505 0 .914-.41.914-.915V5.96h4.06a3.39 3.39 0 0 0 3.257 2.487c1.866 0 3.384-1.526 3.384-3.402s-1.518-3.402-3.384-3.402a3.39 3.39 0 0 0-3.256 2.487h-4.975a.915.915 0 0 0-.915.915v2.488c0 .505.41.915.915.915m8.23-4.976c.858 0 1.555.706 1.555 1.573s-.697 1.573-1.554 1.573a1.566 1.566 0 0 1-1.555-1.571v-.005a1.565 1.565 0 0 1 1.555-1.57ZM20.118 49.006a.915.915 0 0 0-.915.915v.928a.915.915 0 0 0 1.83 0v-.928a.914.914 0 0 0-.915-.915m.001 3.696a.915.915 0 0 0-.915.914v.532l-4.048-.06a3.39 3.39 0 0 0-3.268-2.535c-1.866 0-3.384 1.526-3.384 3.402s1.518 3.403 3.384 3.403a3.39 3.39 0 0 0 3.244-2.44l4.974.073a.926.926 0 0 0 .928-.915v-1.46a.914.914 0 0 0-.915-.914m-8.231 3.827a1.566 1.566 0 0 1-1.555-1.573c0-.868.698-1.573 1.555-1.573s1.554.705 1.554 1.573c0 .867-.697 1.572-1.554 1.572Z"/><path fill="#282928" d="m53.19 41.328.073-5.02a.926.926 0 0 0-.914-.927H43.72a3.56 3.56 0 0 0-.539-1.699c1.182-.764 1.97-1.86 2.235-3.094l2.415-.006a3.39 3.39 0 0 0 3.255 2.482c1.866 0 3.383-1.527 3.383-3.403s-1.517-3.402-3.383-3.402a3.39 3.39 0 0 0-3.258 2.494l-2.408.006c-.332-1.498-1.46-2.796-3.038-3.526a3.4 3.4 0 0 0 .508-1.026h9.34c.504 0 .914-.41.914-.915v-5.286a3.4 3.4 0 0 0 2.469-3.273c0-1.876-1.518-3.402-3.384-3.402s-3.384 1.526-3.384 3.402a3.4 3.4 0 0 0 2.47 3.273v4.37h-8.421a3.5 3.5 0 0 0-.883-1.456 4.3 4.3 0 0 0-1.482-.953c.364-.66.46-1.432.257-2.158v-3.88a.915.915 0 0 0-1.83 0v1.791a4.55 4.55 0 0 0-2.003-.456c-.03.003-.064 0-.096 0a3.07 3.07 0 0 0-.802-1.353c-.746-.747-1.849-1.174-3.026-1.174h-.004a4.5 4.5 0 0 0-2.116.519v-3.78a3.4 3.4 0 0 0 2.469-3.273c0-1.876-1.518-3.402-3.384-3.402S26.61 4.327 26.61 6.203a3.4 3.4 0 0 0 2.47 3.273v3.76a4.55 4.55 0 0 0-2.087-.494h-.003c-1.865.001-3.432 1.085-3.834 2.533h-.093a4.5 4.5 0 0 0-2.03.478V4.924a.917.917 0 0 0-.929-.915l-4.974.074a3.39 3.39 0 0 0-3.244-2.44c-1.866 0-3.384 1.526-3.384 3.402s1.518 3.402 3.384 3.402a3.39 3.39 0 0 0 3.269-2.535l4.047-.06v12.041a2.81 2.81 0 0 0 .275 2.09c-1.056.415-1.875 1.187-2.262 2.128h-8.53v-4.105a3.4 3.4 0 0 0 2.47-3.273c0-1.877-1.519-3.402-3.385-3.402s-3.383 1.526-3.383 3.402a3.404 3.404 0 0 0 2.47 3.273v5.02c0 .506.409.915.914.915h9.268c.094.47.286.913.576 1.308-1.578.731-2.708 2.028-3.044 3.526l-2.4-.022a3.39 3.39 0 0 0-3.257-2.495c-1.866 0-3.384 1.526-3.384 3.402s1.518 3.403 3.384 3.403a3.39 3.39 0 0 0 3.254-2.481l2.402.022c.263 1.234 1.048 2.332 2.23 3.095a3.6 3.6 0 0 0-.54 1.68H7.65a.914.914 0 0 0-.914.93l.073 5.018a3.405 3.405 0 0 0-2.422 3.261c0 1.877 1.518 3.402 3.384 3.402s3.384-1.526 3.384-3.402a3.4 3.4 0 0 0-2.517-3.285L8.58 37.21h8.06c.446.874 1.24 1.587 2.246 2a3.1 3.1 0 0 0-.326 1.381c0 .68.227 1.34.643 1.906v4.436a.915.915 0 0 0 1.83 0v-3.088a4.7 4.7 0 0 0 2.31.251c.594 1.18 1.989 1.984 3.619 1.984h.003c.779 0 1.503-.193 2.115-.52v4.962a3.4 3.4 0 0 0-2.469 3.273c0 1.877 1.518 3.402 3.384 3.402s3.384-1.526 3.384-3.402a3.404 3.404 0 0 0-2.47-3.273v-4.941a4.55 4.55 0 0 0 2.088.495H33c1.631-.002 3.028-.808 3.624-1.99a4.66 4.66 0 0 0 2.333-.265v11.133c0 .505.41.915.915.915h4.975a3.39 3.39 0 0 0 3.256 2.488c1.866 0 3.384-1.526 3.384-3.403 0-1.876-1.518-3.402-3.384-3.402a3.39 3.39 0 0 0-3.256 2.488h-4.06V42.445a3.18 3.18 0 0 0 .625-1.868c0-.48-.113-.95-.325-1.383 1.001-.41 1.794-1.117 2.243-1.984h8.091l-.059 4.093a3.4 3.4 0 0 0-2.516 3.285c0 1.876 1.518 3.402 3.384 3.402s3.383-1.526 3.383-3.402a3.4 3.4 0 0 0-2.421-3.26Zm-2.516-26.595c0-.867.697-1.572 1.554-1.572s1.555.705 1.555 1.572-.696 1.572-1.552 1.573h-.005a1.566 1.566 0 0 1-1.552-1.573M11.886 6.618a1.566 1.566 0 0 1-1.554-1.573c0-.867.697-1.573 1.554-1.573s1.554.706 1.554 1.573-.697 1.573-1.554 1.573m-5.67 8.115c0-.867.698-1.572 1.555-1.572s1.554.705 1.554 1.572-.696 1.572-1.552 1.573H7.77a1.566 1.566 0 0 1-1.553-1.573Zm3.11 29.855c0 .867-.698 1.573-1.555 1.573a1.566 1.566 0 0 1-1.555-1.573c0-.867.698-1.573 1.555-1.573s1.554.705 1.554 1.573Zm38.776 8.793c.857 0 1.555.706 1.555 1.573s-.698 1.573-1.555 1.573a1.566 1.566 0 0 1-1.554-1.57v-.005a1.565 1.565 0 0 1 1.554-1.57Zm2.984-25.294c.857 0 1.554.706 1.554 1.573s-.697 1.573-1.554 1.573a1.566 1.566 0 0 1-1.555-1.573c0-.867.698-1.573 1.555-1.573M28.44 6.204c0-.867.697-1.573 1.554-1.573s1.554.706 1.554 1.573-.697 1.573-1.554 1.573a1.566 1.566 0 0 1-1.555-1.573ZM8.913 31.234a1.566 1.566 0 0 1-1.555-1.573c0-.867.698-1.573 1.555-1.573s1.554.706 1.554 1.573-.697 1.573-1.554 1.573m18.05 13.016h-.002c-1.059 0-1.983-.578-2.087-1.296v-.544a.915.915 0 0 0-.913-.915h-.001a.914.914 0 0 0-.907.793c-.123.015-.253.009-.373.023-.723 0-1.39-.253-1.831-.695-.21-.21-.46-.558-.46-1.024 0-.447.237-.873.666-1.203.558-.415 1.105-.423 1.758-.532.56-.094.928-.657.737-1.206-.433-1.245-2.555-.393-3.284.06-1.252-.226-2.192-1.112-2.191-2.115 0-.49.225-.97.635-1.36.621-.413 1.558-.82 2.2-.82a.915.915 0 0 0-.001-1.83c-.906 0-1.918.387-2.695.814-1.194-.6-1.92-1.61-1.918-2.704 0-1.43 1.268-2.707 3.05-3.116a4.9 4.9 0 0 0 1.923.384h.003a.915.915 0 0 0 0-1.83c-.01.002-.027 0-.04 0a3.04 3.04 0 0 1-1.353-.325c-.677-.346-1.08-.907-1.08-1.5 0-.96 1.065-1.778 2.339-1.83.587.274 1.244.404 1.924.416.505 0 .913-.41.913-.915v-.001a.914.914 0 0 0-.915-.913h-.005l-.057-.001a2.66 2.66 0 0 1-1.227-.315c-.473-.26-.768-.645-.817-1.046.072-.162.084-.335.08-.51.254-.617 1.072-1.088 2.022-1.091v.11a.915.915 0 0 0 1.83.002v-1.209c.001-.777.966-1.435 2.106-1.436.615 0 1.293.188 1.735.638.39.396.304.766.365 1.254l-.023 26.35c-.002.779-.966 1.437-2.106 1.438m4.586 9.544c0 .868-.697 1.573-1.554 1.573a1.566 1.566 0 0 1-1.555-1.573c0-.867.697-1.572 1.555-1.572.857 0 1.554.705 1.554 1.572m5.742-16.769h-.005a.915.915 0 0 0-.914.915v.001c0 .505.41.914.914.914h.005c.598 0 1.162.175 1.595.494q.015.014.032.027c.428.328.663.753.663 1.198-.001.935-1.055 1.726-2.3 1.727a3 3 0 0 1-.368-.023.915.915 0 0 0-.905-.792h-.002a.915.915 0 0 0-.914.913l-.001.543c-.105.721-1.032 1.302-2.093 1.303h-.002c-.686 0-1.334-.238-1.733-.638-.167-.167-.366-.44-.366-.793l.024-26.812c0-1.506 2.355-1.65 3.327-1.161.527.265.867.684.878 1.281.007.361 0 .723 0 1.083 0 .506.409.914.913.915.576 0 .93-.489.916-1.027.653 0 1.839.305 2 1.071.15.706-.092 1.226-.72 1.573a2.7 2.7 0 0 1-1.291.318.915.915 0 0 0 0 1.83 4.55 4.55 0 0 0 1.923-.419c.832.034 1.775.405 2.175 1.185.448.87-.141 1.741-.925 2.144l-.026.013a3.1 3.1 0 0 1-1.367.314.915.915 0 0 0 0 1.83 4.95 4.95 0 0 0 1.927-.388c1.78.407 3.044 1.682 3.043 3.11-.002 1.095-.73 2.106-1.926 2.71-.775-.426-1.786-.81-2.69-.81a.92.92 0 0 0-.918.914v.001c.001.505.41.914.915.914h.003c.64 0 1.574.405 2.194.816.409.39.633.868.633 1.357-.001 1.005-.944 1.894-2.199 2.122a4.6 4.6 0 0 0-2.415-.673m14.938 9.135a1.566 1.566 0 0 1-1.555-1.573c0-.867.698-1.573 1.555-1.573s1.554.705 1.554 1.573-.697 1.573-1.554 1.573"/><path fill="#282928" d="M26.245 25.712c-4.003 2.242-3.432 5.887-3.406 6.04.21 1.227 2.118.906 1.908-.325-.004-.024-.38-2.445 2.443-4.027a.969.969 0 0 0-.945-1.688c.466-.262-4.003 2.241 0 0m11.702 1.987a.97.97 0 0 0-1.18.695c-.871 3.37-3.776 3.634-3.908 3.644a.967.967 0 0 0 .125 1.93c1.526-.093 4.672-1.279 5.658-5.09a.97.97 0 0 0-.695-1.18Zm-5.567-6.136c.623.424 1.374 1.252 1.413 2.786a.967.967 0 0 0 .966.943h.025a.967.967 0 0 0 .943-.992c-.061-2.479-1.441-3.781-2.258-4.337a.967.967 0 1 0-1.089 1.6"/></svg>