<svg xmlns="http://www.w3.org/2000/svg" width="512" height="512"><g data-name="Outline"><path d="M472 168h-24V78.86a32 32 0 1 0-16 0v63.61C403.88 88.25 344.93 55.59 281.72 56h-52.07C167 55.45 107.92 88.58 80 142.35V78.86a32 32 0 1 0-16 0V168H40a24 24 0 0 0-24 24v72a24 24 0 0 0 24 24h25c7.79 67.2 65.26 119.81 135.36 121.19l-10.66 58.42a23.73 23.73 0 0 0 13.52 26 24.24 24.24 0 0 0 29.23-6.41l65.2-78h11.19c71.36.02 130.29-53.09 138.16-121.2h16.83c-1.39 91.87-26.84 140.65-84 160.65a31.77 31.77 0 1 0 4.17 15.59c82.3-28.2 95.27-108.3 96-177.7A24 24 0 0 0 496 264v-72a24 24 0 0 0-24-24M352 480a16 16 0 1 1 16-16 16 16 0 0 1-16 16m72-432a16 16 0 1 1 16 16 16 16 0 0 1-16-16M56 48a16 16 0 1 1 16 16 16 16 0 0 1-16-16M32 264v-72a8 8 0 0 1 8-8h24v88H40a8 8 0 0 1-8-8m276.82 129.22h-14.93a8 8 0 0 0-6.14 2.87s-50.86 60.5-67.59 80.85c-4.91 6-16.18 2.77-14.73-6.46 2.67-17 12.37-67.82 12.37-67.82a8 8 0 0 0-7.87-9.44h-6.75C135.26 393.22 80 339 80 272.43v-65.76C79 131.34 153.1 69.61 229.65 72h52.07C358.6 69.83 432.9 130.47 432 206.67v65.76c0 66.57-55.26 120.79-123.18 120.79M480 264a8 8 0 0 1-8 8h-24v-88h24a8 8 0 0 1 8 8z"/><path d="M336 120H176a56.07 56.07 0 0 0-56 56v120a56.06 56.06 0 0 0 56 56h160a56.06 56.06 0 0 0 56-56V176a56.07 56.07 0 0 0-56-56m40 176a40.05 40.05 0 0 1-40 40H176a40.05 40.05 0 0 1-40-40V176a40.05 40.05 0 0 1 40-40h160a40.05 40.05 0 0 1 40 40z"/><path d="M344 160a8 8 0 0 0-8-8h-72a8 8 0 0 0 0 16h72a8 8 0 0 0 8-8"/><circle cx="232" cy="160" r="8"/><path d="M320 200a32 32 0 1 0 32 32 32 32 0 0 0-32-32m0 48a16 16 0 1 1 16-16 16 16 0 0 1-16 16M192 200a32 32 0 0 0-32 32 8 8 0 0 0 16 0 16 16 0 0 1 32 0 8 8 0 0 0 16 0 32 32 0 0 0-32-32"/></g></svg>