<svg xmlns="http://www.w3.org/2000/svg" width="60" height="60" fill="none"><path fill="#282928" fill-rule="evenodd" d="M52.84 47.533a1.325 1.325 0 1 1-.003-2.65 1.325 1.325 0 0 1 .002 2.65ZM46.147 3.404h-.798a2.95 2.95 0 0 0-2.426 2.107h-9.272a.805.805 0 0 0-.806.802v9.907a30 30 0 0 0-5.697 0V6.313a.804.804 0 0 0-.806-.802h-9.271a2.95 2.95 0 0 0-2.427-2.107h-.797a2.94 2.94 0 0 0-2.54 2.909 2.94 2.94 0 0 0 2.938 2.942 2.944 2.944 0 0 0 2.826-2.134h8.465v9.29a29.6 29.6 0 0 0-8.133 2.398v-5.042a.806.806 0 0 0-.806-.809H9.982a2.94 2.94 0 0 0-2.824-2.127 2.937 2.937 0 0 0-2.94 2.936 2.94 2.94 0 0 0 2.94 2.936 2.95 2.95 0 0 0 2.824-2.127h5.81v5.042c-.133.074-.267.142-.399.217-4.253 2.406-7.633 5.783-9.776 9.772a.8.8 0 0 0 0 .76c2.143 3.996 5.523 7.373 9.776 9.772q.199.114.399.218v5.049h-5.81a2.944 2.944 0 0 0-2.824-2.134 2.94 2.94 0 0 0-2.94 2.936 2.943 2.943 0 0 0 2.94 2.942 2.945 2.945 0 0 0 2.824-2.134h6.616c.445 0 .806-.36.806-.809v-5.042a29.4 29.4 0 0 0 8.133 2.406v9.282h-8.465a2.95 2.95 0 0 0-2.825-2.127 2.94 2.94 0 0 0-2.938 2.936 2.938 2.938 0 0 0 5.763.809h9.271c.446 0 .806-.36.806-.81v-9.9c1.84.173 3.859.173 5.697 0v9.9c0 .45.361.81.806.81h9.272a2.938 2.938 0 0 0 5.763-.81 2.94 2.94 0 0 0-2.938-2.935c-1.34 0-2.473.904-2.825 2.127H34.46v-9.282a29.4 29.4 0 0 0 8.133-2.406v5.042c0 .449.36.809.807.809h6.616a2.94 2.94 0 0 0 2.824 2.134 2.94 2.94 0 0 0 2.939-2.942 2.94 2.94 0 0 0-2.939-2.936c-1.34 0-2.473.904-2.824 2.134h-5.81v-5.05c.134-.067.266-.142.398-.217 4.252-2.398 7.633-5.776 9.777-9.771a.8.8 0 0 0 0-.761c-2.144-3.99-5.525-7.366-9.777-9.772-.132-.075-.264-.143-.398-.217v-5.042h5.81a2.945 2.945 0 0 0 2.824 2.127 2.94 2.94 0 0 0 2.939-2.936 2.936 2.936 0 0 0-2.939-2.936c-1.34 0-2.473.897-2.824 2.127H43.4a.806.806 0 0 0-.807.809v5.042a29.7 29.7 0 0 0-8.133-2.399V7.121h8.465a2.944 2.944 0 0 0 2.825 2.134 2.94 2.94 0 0 0 2.938-2.942 2.94 2.94 0 0 0-2.54-2.909Zm-38.9 26.583c4.223-7.481 13.098-12.285 22.75-12.285s18.527 4.804 22.75 12.285C48.526 37.47 39.65 42.28 29.999 42.28S11.47 37.469 7.248 29.987Zm38.501 22.35a1.325 1.325 0 1 1 .002 2.65 1.325 1.325 0 0 1-.002-2.65m-31.503 2.65a1.325 1.325 0 1 1 0-2.65 1.325 1.325 0 0 1 0 2.65m-7.088-7.454a1.325 1.325 0 1 1-.003-2.65 1.325 1.325 0 0 1 .003 2.65m0-32.44a1.325 1.325 0 1 1-.003-2.65 1.325 1.325 0 0 1 .003 2.65m7.088-7.455a1.325 1.325 0 1 1 0-2.65 1.325 1.325 0 0 1 0 2.65m31.503-2.65a1.325 1.325 0 1 1 .002 2.65 1.325 1.325 0 0 1-.002-2.65m7.09 7.454a1.325 1.325 0 1 1 .002 2.65 1.325 1.325 0 0 1-.002-2.65M30.053 27.677a2.26 2.26 0 0 1 2.259 2.256 2.26 2.26 0 0 1-2.259 2.256 2.26 2.26 0 0 1-2.258-2.256 2.26 2.26 0 0 1 2.258-2.256m-3.87 2.256a3.877 3.877 0 0 1 3.87-3.873 3.88 3.88 0 0 1 3.872 3.873 3.88 3.88 0 0 1-3.871 3.873 3.88 3.88 0 0 1-3.871-3.873m6.2-9.242a9.62 9.62 0 0 1 6.913 6.911h-2.084a7.59 7.59 0 0 0-4.829-4.824zm-.988 3.48a.8.8 0 0 1-.625-.782v-3.683a.81.81 0 0 1 .925-.795c4.834.713 8.67 4.543 9.38 9.377a.813.813 0 0 1-.798.931h-3.678a.81.81 0 0 1-.785-.625 5.95 5.95 0 0 0-4.42-4.424ZM30.053 39.46c-5.253 0-9.528-4.274-9.528-9.527 0-4.37 3.035-8.188 7.2-9.242v2.087a7.53 7.53 0 0 0-5.197 7.155c0 4.152 3.376 7.522 7.525 7.522a7.53 7.53 0 0 0 7.159-5.191h2.084c-1.051 4.165-4.869 7.196-9.243 7.196m10.224-8.814c.499 0 .87.444.798.925a11.15 11.15 0 0 1-11.021 9.506c-6.143 0-11.142-5.001-11.142-11.144 0-5.515 4.052-10.218 9.502-11.022a.81.81 0 0 1 .923.795v3.683a.8.8 0 0 1-.623.782 5.89 5.89 0 0 0-4.573 5.762 5.92 5.92 0 0 0 5.913 5.912 5.886 5.886 0 0 0 5.76-4.573.806.806 0 0 1 .785-.626z" clip-rule="evenodd"/></svg>