<svg xmlns="http://www.w3.org/2000/svg" width="60" height="60" fill="none"><path fill="#282928" d="M32.69 24.297c0 .454.367.823.822.823h1.37v9.76h-9.76v-9.76h4.88a.823.823 0 0 0 0-1.645h-5.264c-.695 0-1.261.566-1.261 1.26v10.53c0 .695.566 1.26 1.26 1.26h10.53c.695 0 1.26-.565 1.26-1.26v-10.53c0-.694-.565-1.26-1.26-1.26h-1.755a.823.823 0 0 0-.823.822ZM6.476 5.215c-.695 0-1.261.566-1.261 1.261v5.703c0 .695.566 1.261 1.261 1.261h5.703c.695 0 1.261-.566 1.261-1.26V6.475c0-.695-.566-1.261-1.26-1.261H6.475Zm5.32 6.58H6.86V6.86h4.935zm.384 34.765H6.475c-.695 0-1.261.566-1.261 1.262v5.703c0 .695.566 1.261 1.261 1.261h5.703c.695 0 1.261-.566 1.261-1.261v-5.703c0-.696-.566-1.262-1.26-1.262Zm-.385 6.58H6.86v-4.934h4.935v4.935Z"/><path fill="#282928" d="M45.41 16.73h10.53a2.14 2.14 0 0 0 2.138-2.139V4.062a2.14 2.14 0 0 0-2.139-2.138H45.412a2.14 2.14 0 0 0-2.139 2.138v4.442h-9.87a.823.823 0 0 0-.823.823v10.857h-4.496v-3.212a2.47 2.47 0 0 0 1.645-2.326 2.47 2.47 0 0 0-2.468-2.468 2.47 2.47 0 0 0-2.468 2.468c0 1.072.688 1.986 1.646 2.326v3.212h-3.675a2.58 2.58 0 0 0-2.577 2.577v4.771H10.151V16.73h4.442a2.14 2.14 0 0 0 2.139-2.139v-2.139a.823.823 0 0 0-1.646 0v2.139a.494.494 0 0 1-.493.494H4.064a.494.494 0 0 1-.493-.494V4.062c0-.272.221-.493.493-.493h10.529c.272 0 .493.221.493.493v4.88a.823.823 0 0 0 1.646 0v-4.88a2.14 2.14 0 0 0-2.139-2.138H4.064a2.14 2.14 0 0 0-2.138 2.138v10.529a2.14 2.14 0 0 0 2.138 2.139h4.442v11.625c0 .454.369.822.823.822h10.857v3.51h-1.128a2.47 2.47 0 0 0-2.326-1.645 2.47 2.47 0 0 0-2.468 2.468 2.47 2.47 0 0 0 2.468 2.467 2.47 2.47 0 0 0 2.326-1.645h1.128v2.907a2.58 2.58 0 0 0 2.577 2.577h3.675v9.77h-9.706v-4.177a2.14 2.14 0 0 0-2.139-2.139H4.064a2.14 2.14 0 0 0-2.138 2.139v10.529a2.14 2.14 0 0 0 2.138 2.138h10.529a2.14 2.14 0 0 0 2.139-2.138V51.23H27.26a.823.823 0 0 0 .823-.823V39.816h4.496v3.65a2.47 2.47 0 0 0-1.645 2.327 2.47 2.47 0 0 0 2.468 2.468 2.47 2.47 0 0 0 2.467-2.468 2.47 2.47 0 0 0-1.645-2.326v-3.651h3.017a2.58 2.58 0 0 0 2.577-2.577v-5.6h10.036V43.27h-4.443a2.14 2.14 0 0 0-2.139 2.139v2.139a.823.823 0 0 0 1.645 0v-2.139c0-.272.222-.493.494-.493H55.94c.272 0 .493.221.493.493v10.529a.494.494 0 0 1-.493.493H45.41a.494.494 0 0 1-.493-.493v-4.895a.823.823 0 0 0-1.645 0v4.895c0 1.179.96 2.138 2.139 2.138H55.94a2.14 2.14 0 0 0 2.138-2.138V45.409a2.14 2.14 0 0 0-2.139-2.139H51.5V30.817a.823.823 0 0 0-.823-.823H39.819v-2.79h3.92a2.47 2.47 0 0 0 2.325 1.644 2.47 2.47 0 0 0 2.468-2.467 2.47 2.47 0 0 0-2.468-2.468 2.47 2.47 0 0 0-2.326 1.645h-3.92v-2.797a2.58 2.58 0 0 0-2.576-2.577h-3.017V10.15h9.048v4.442c0 1.18.96 2.139 2.139 2.139Zm-18.15-2.907a.823.823 0 1 1-.001 1.647.823.823 0 0 1 .001-1.647m-10.528 20.51a.823.823 0 1 1 .001-1.648.823.823 0 0 1-.001 1.647Zm-1.646 21.605a.494.494 0 0 1-.493.493H4.064a.494.494 0 0 1-.493-.493V45.409c0-.272.221-.493.493-.493h10.529c.272 0 .493.221.493.493zm18.316-9.323a.823.823 0 1 1 .001-1.646.823.823 0 0 1-.001 1.646m12.661-21.057a.823.823 0 1 1-.001 1.647.823.823 0 0 1 .001-1.647m-7.89-2.797v14.478a.93.93 0 0 1-.932.932H22.763a.93.93 0 0 1-.932-.932V22.761c0-.514.418-.932.932-.932H37.24c.514 0 .932.418.932.932ZM45.41 3.569h10.53c.272 0 .493.221.493.493v10.529a.494.494 0 0 1-.493.494H45.41a.494.494 0 0 1-.493-.494V9.348l.002-.021-.002-.022V4.062c0-.272.222-.493.494-.493Z"/><path fill="#282928" d="M47.824 13.44h5.703c.695 0 1.26-.566 1.26-1.26V6.475c0-.695-.565-1.261-1.26-1.261h-5.703c-.696 0-1.261.566-1.261 1.261v5.703c0 .695.565 1.261 1.26 1.261Zm.384-6.58h4.935v4.935h-4.935zm5.319 47.926c.695 0 1.26-.566 1.26-1.261v-5.703c0-.696-.565-1.262-1.26-1.262h-5.703c-.696 0-1.261.566-1.261 1.262v5.703c0 .695.565 1.261 1.26 1.261zm-5.32-6.58h4.936v4.935h-4.935z"/></svg>