<svg xmlns="http://www.w3.org/2000/svg" width="60" height="60" fill="none"><path fill="#282928" d="M6 8a1 1 0 1 0 0-2 1 1 0 0 0 0 2m4 0a1 1 0 1 0 0-2 1 1 0 0 0 0 2m4 0a1 1 0 1 0 0-2 1 1 0 0 0 0 2m22 1a1 1 0 0 0 1-1V6a1 1 0 0 0-2 0v2a1 1 0 0 0 1 1m-4 0a1 1 0 0 0 1-1V6a1 1 0 0 0-2 0v2a1 1 0 0 0 1 1m-4 0a1 1 0 0 0 1-1V6a1 1 0 0 0-2 0v2a1 1 0 0 0 1 1M6 25a1 1 0 1 0 0-2 1 1 0 0 0 0 2m4 0a1 1 0 1 0 0-2 1 1 0 0 0 0 2m4 0a1 1 0 1 0 0-2 1 1 0 0 0 0 2m22 1a1 1 0 0 0 1-1v-2a1 1 0 0 0-2 0v2a1 1 0 0 0 1 1m-4 0a1 1 0 0 0 1-1v-2a1 1 0 0 0-2 0v2a1 1 0 0 0 1 1m-4 0a1 1 0 0 0 1-1v-2a1 1 0 0 0-2 0v2a1 1 0 0 0 1 1M6 42a1 1 0 1 0 0-2 1 1 0 0 0 0 2m4 0a1 1 0 1 0 0-2 1 1 0 0 0 0 2m4 0a1 1 0 1 0 0-2 1 1 0 0 0 0 2"/><path fill="#282928" d="M56.431 27.823a2.85 2.85 0 0 0-2.24-.336c-2.463.66-7.073 1.403-10.269-1.001a2.8 2.8 0 0 0-2.617-.389V20.58a2.83 2.83 0 0 0-1.884-2.653v-3.173a2.83 2.83 0 0 0 1.884-2.653V4.565a2.826 2.826 0 0 0-2.826-2.827H4.565a2.826 2.826 0 0 0-2.827 2.827V12.1a2.83 2.83 0 0 0 1.884 2.653v3.173a2.83 2.83 0 0 0-1.884 2.653v7.536a2.83 2.83 0 0 0 1.884 2.653v3.173a2.83 2.83 0 0 0-1.884 2.653v7.537a2.826 2.826 0 0 0 2.827 2.826h24.344a23.58 23.58 0 0 0 13.009 11.245c.212.08.447.08.66 0a23.42 23.42 0 0 0 15.685-21.4 39 39 0 0 0-.566-7.128 2.81 2.81 0 0 0-1.266-1.852ZM5.507 14.927h32.03v2.827H5.507zM3.622 4.565a.94.94 0 0 1 .943-.943h33.914a.94.94 0 0 1 .942.943V12.1a.94.94 0 0 1-.942.942H4.565a.94.94 0 0 1-.943-.942zm0 16.015a.94.94 0 0 1 .943-.942h33.914a.94.94 0 0 1 .942.942v6.61c-3.075 1.526-6.935.88-9.116.297a2.84 2.84 0 0 0-2.242.337 2.8 2.8 0 0 0-1.06 1.234H4.565a.94.94 0 0 1-.943-.942zm22.704 13.189H5.506v-2.826h21.09a36 36 0 0 0-.27 2.826M4.565 45.074a.94.94 0 0 1-.943-.942v-7.537a.94.94 0 0 1 .943-.942h21.68q-.012.556-.013 1.15a22.2 22.2 0 0 0 1.782 8.27H4.564Zm37.683 11.239a21.49 21.49 0 0 1-14.132-19.51c-.03-2.272.15-4.543.537-6.783a.9.9 0 0 1 .413-.604.94.94 0 0 1 .753-.112c2.794.747 8.054 1.569 11.887-1.319a.905.905 0 0 1 1.083 0c3.834 2.885 9.095 2.063 11.887 1.32a.94.94 0 0 1 1.025.37c.07.103.12.221.142.345.387 2.24.567 4.51.537 6.783a21.495 21.495 0 0 1-14.133 19.51Z"/><path fill="#282928" d="m50.232 34.36-9.3 11.159-3.226-3.227a1 1 0 0 0-1.414 1.414l4 4a1 1 0 0 0 .71.293h.044a1 1 0 0 0 .723-.358l10-12a1 1 0 1 0-1.538-1.28z"/></svg>