<svg xmlns="http://www.w3.org/2000/svg" width="60" height="60" fill="none"><path fill="#282928" d="M25.123 14.667a1.09 1.09 0 0 0-1.415-.614 17.1 17.1 0 0 0-7.809 6.198 17.04 17.04 0 0 0-3.043 9.754 1.09 1.09 0 0 0 2.181 0c0-6.187 3.718-11.652 9.472-13.922a1.09 1.09 0 0 0 .614-1.416m12.061 14.255a1.09 1.09 0 0 0-1.09 1.09 6.115 6.115 0 0 1-6.109 6.11 6.115 6.115 0 0 1-6.108-6.11 6.115 6.115 0 0 1 6.108-6.108 1.09 1.09 0 0 0 0-2.181c-4.57 0-8.29 3.719-8.29 8.29s3.72 8.29 8.29 8.29c4.571 0 8.29-3.72 8.29-8.29a1.09 1.09 0 0 0-1.09-1.091Zm4.047-.042a1.09 1.09 0 0 0-1.09 1.092v.04a1.09 1.09 0 0 0 2.181 0v-.04a1.09 1.09 0 0 0-1.09-1.091Zm-4.416 9.953a1.094 1.094 0 0 0-1.542 0c-.203.203-.32.483-.32.772 0 .286.117.568.32.77a1.097 1.097 0 0 0 1.542 0 1.1 1.1 0 0 0 .32-.77c0-.289-.117-.569-.32-.772m17.398 2.796c-.627 0-1.217.157-1.735.432l-3.228-3.228a1.1 1.1 0 0 0-.772-.32h-7.954a1.09 1.09 0 0 0 0 2.182h7.502l2.91 2.91a3.7 3.7 0 0 0-.432 1.732 3.713 3.713 0 0 0 3.709 3.71 3.713 3.713 0 0 0 3.708-3.71 3.713 3.713 0 0 0-3.708-3.708m0 5.236a1.53 1.53 0 0 1-1.527-1.527 1.528 1.528 0 0 1 3.054 0c0 .842-.685 1.527-1.527 1.527"/><path fill="#282928" d="M54.214 10.961a3.713 3.713 0 0 0-3.709 3.709c0 .626.157 1.216.432 1.733l-2.91 2.91H36.093a12.3 12.3 0 0 0-5.005-1.58V15.76H42.59c.397 0 .763-.216.955-.564l3.314-6.007a3.713 3.713 0 0 0 5.173-3.407 3.713 3.713 0 0 0-3.708-3.709 3.713 3.713 0 0 0-3.709 3.709c0 .715.204 1.383.556 1.95l-3.225 5.846H31.087V3.169a1.09 1.09 0 0 0-1.09-1.09h-4.892a1.09 1.09 0 0 0-1.09 1.09v3.376c-2.254.57-4.4 1.46-6.4 2.652l-2.377-2.378a1.09 1.09 0 0 0-1.543 0L6.8 13.72a1.09 1.09 0 0 0 0 1.543l2.375 2.375c-1.191 2-2.08 4.145-2.651 6.399H3.165a1.09 1.09 0 0 0-1.09 1.09v9.755c0 .602.488 1.09 1.09 1.09h3.359c.57 2.254 1.46 4.4 2.652 6.4L6.8 44.746a1.09 1.09 0 0 0 0 1.542l6.894 6.9a1.09 1.09 0 0 0 1.543 0l2.378-2.377c2 1.191 4.145 2.08 6.399 2.651v3.37a1.09 1.09 0 0 0 1.09 1.091h4.893a1.09 1.09 0 0 0 1.09-1.088v-10.46h10.857l3.229 5.89a3.7 3.7 0 0 0-.558 1.952 3.713 3.713 0 0 0 3.71 3.709 3.713 3.713 0 0 0 3.708-3.709 3.713 3.713 0 0 0-3.709-3.708c-.519 0-1.013.107-1.462.3l-3.316-6.05a1.09 1.09 0 0 0-.956-.566H31.087v-2.936a1.09 1.09 0 0 0-1.09-1.091c-5.604 0-10.163-4.559-10.163-10.162 0-5.536 4.45-10.051 9.96-10.16q.093.017.19.018c4.222 0 8.047 2.657 9.519 6.612a1.091 1.091 0 1 0 2.044-.76 12.25 12.25 0 0 0-2.656-4.22h9.589c.289 0 .566-.115.771-.32l3.228-3.228a3.7 3.7 0 0 0 1.735.432 3.713 3.713 0 0 0 3.709-3.708 3.713 3.713 0 0 0-3.709-3.709m-5.89-6.705c.842 0 1.527.685 1.527 1.527s-.685 1.527-1.527 1.527a1.53 1.53 0 0 1-1.527-1.527c0-.842.685-1.527 1.527-1.527m0 48.434a1.529 1.529 0 0 1 0 3.055 1.53 1.53 0 0 1-1.527-1.527c0-.843.685-1.528 1.527-1.528M28.906 17.708c-6.297.554-11.253 5.857-11.253 12.296S22.608 41.746 28.906 42.3v13.444l-2.71-.001v-3.145a1.09 1.09 0 0 0-.862-1.067 21.8 21.8 0 0 1-7.286-3.02c-.432-.278-1-.218-1.364.146l-2.217 2.217-5.353-5.356 2.216-2.216a1.09 1.09 0 0 0 .145-1.363 21.8 21.8 0 0 1-3.02-7.287 1.09 1.09 0 0 0-1.066-.862H4.256v-7.572h3.133c.514 0 .958-.36 1.066-.862a21.8 21.8 0 0 1 3.02-7.287c.279-.431.218-1-.145-1.363l-2.216-2.215 5.353-5.357 2.217 2.217a1.09 1.09 0 0 0 1.363.145 21.8 21.8 0 0 1 7.287-3.02 1.09 1.09 0 0 0 .862-1.066V4.26h2.71zm25.308-1.511a1.53 1.53 0 0 1-1.527-1.527c0-.842.685-1.527 1.527-1.527s1.527.685 1.527 1.527-.685 1.527-1.527 1.527"/><path fill="#282928" d="M54.217 26.31a3.715 3.715 0 0 0-3.545 2.619h-3.218a1.09 1.09 0 0 0 0 2.181h3.218a3.715 3.715 0 0 0 3.545 2.618 3.713 3.713 0 0 0 3.709-3.709 3.713 3.713 0 0 0-3.709-3.708Zm0 5.236a1.53 1.53 0 0 1-1.527-1.527c0-.842.685-1.527 1.527-1.527s1.527.685 1.527 1.527-.685 1.527-1.527 1.527"/></svg>