<svg xmlns="http://www.w3.org/2000/svg" width="60" height="60" fill="none"><path fill="#282928" d="M39.028 17.36a.9.9 0 0 0 .638-.264l10.57-10.57h1.598a2.705 2.705 0 0 0 2.542 1.806 2.71 2.71 0 0 0 2.709-2.709 2.71 2.71 0 0 0-2.709-2.708 2.705 2.705 0 0 0-2.542 1.805h-1.972a.9.9 0 0 0-.638.265l-10.57 10.57h-1.432v-.903a2.71 2.71 0 0 0-2.708-2.709 2.71 2.71 0 0 0-2.709 2.709v2.708H27.2a4.52 4.52 0 0 0-4.423-3.611c-1.13 0-2.153.432-2.945 1.121l-8.357-6.38c.29-.597.468-1.257.468-1.963a4.52 4.52 0 0 0-4.515-4.514 4.52 4.52 0 0 0-4.514 4.514 4.52 4.52 0 0 0 4.514 4.514c1.13 0 2.153-.432 2.945-1.121l8.357 6.38c-.163.335-.3.684-.376 1.06H11.85a4.52 4.52 0 0 0-4.423-3.611 4.52 4.52 0 0 0-4.514 4.514 4.52 4.52 0 0 0 4.514 4.514c1.13 0 2.153-.432 2.945-1.121l3.242 2.476-3.242 2.475a4.47 4.47 0 0 0-2.945-1.121A4.52 4.52 0 0 0 2.914 30a4.52 4.52 0 0 0 4.514 4.514c1.13 0 2.153-.432 2.945-1.121l3.242 2.475-3.242 2.476a4.47 4.47 0 0 0-2.945-1.121 4.52 4.52 0 0 0-4.514 4.514 4.52 4.52 0 0 0 4.514 4.514 4.52 4.52 0 0 0 4.423-3.611h6.503c.076.375.213.724.376 1.059l-8.357 6.381a4.48 4.48 0 0 0-2.945-1.12 4.52 4.52 0 0 0-4.514 4.514 4.52 4.52 0 0 0 4.514 4.514 4.52 4.52 0 0 0 4.515-4.514c0-.706-.177-1.366-.468-1.962l8.357-6.381a4.48 4.48 0 0 0 2.945 1.12A4.52 4.52 0 0 0 27.2 42.64h4.605v1.806a2.71 2.71 0 0 0 2.709 2.708 2.71 2.71 0 0 0 2.708-2.708h1.432l10.57 10.57a.9.9 0 0 0 .638.264h1.972a2.705 2.705 0 0 0 2.542 1.805 2.71 2.71 0 0 0 2.709-2.708 2.71 2.71 0 0 0-2.709-2.709 2.705 2.705 0 0 0-2.542 1.806h-1.598l-10.57-10.57a.9.9 0 0 0-.638-.264h-1.806v-2.71h4.14l6.959 6.959a.9.9 0 0 0 .638.264h2.875a2.705 2.705 0 0 0 2.542 1.806 2.71 2.71 0 0 0 2.709-2.709 2.71 2.71 0 0 0-2.709-2.708 2.705 2.705 0 0 0-2.542 1.805h-2.5l-6.96-6.958a.9.9 0 0 0-.638-.264h-4.514v-2.709h7.752l3.347 3.347a.9.9 0 0 0 .638.264h2.875a2.705 2.705 0 0 0 2.542 1.806 2.71 2.71 0 0 0 2.709-2.708 2.71 2.71 0 0 0-2.709-2.709 2.705 2.705 0 0 0-2.542 1.806h-2.5l-3.348-3.347a.9.9 0 0 0-.638-.265h-8.126v-2.708h14.612a2.705 2.705 0 0 0 2.542 1.806A2.71 2.71 0 0 0 57.085 30a2.71 2.71 0 0 0-2.709-2.709 2.705 2.705 0 0 0-2.542 1.806H37.222V26.39h8.126a.9.9 0 0 0 .638-.265l3.347-3.347h2.501a2.705 2.705 0 0 0 2.542 1.806 2.71 2.71 0 0 0 2.709-2.709 2.71 2.71 0 0 0-2.709-2.708 2.705 2.705 0 0 0-2.542 1.805h-2.875a.9.9 0 0 0-.638.265l-3.347 3.347h-7.752v-2.709h4.514a.9.9 0 0 0 .639-.264l6.958-6.958h2.501a2.705 2.705 0 0 0 2.542 1.805 2.71 2.71 0 0 0 2.709-2.708 2.71 2.71 0 0 0-2.709-2.709 2.705 2.705 0 0 0-2.542 1.806h-2.875a.9.9 0 0 0-.638.264l-6.958 6.959h-4.14v-2.71zM54.376 4.72a.904.904 0 1 1-.001 1.808.904.904 0 0 1 .001-1.808m0 48.754a.904.904 0 1 1-.001 1.807.904.904 0 0 1 .001-1.807m0-8.126a.904.904 0 1 1-.001 1.808.904.904 0 0 1 .001-1.808m0-8.125a.904.904 0 1 1-.001 1.807.904.904 0 0 1 .001-1.807m0-8.126a.904.904 0 1 1-.001 1.807.904.904 0 0 1 .001-1.807m0-8.126a.904.904 0 1 1-.001 1.808.904.904 0 0 1 .001-1.808m0-8.125a.904.904 0 1 1-.001 1.807.904.904 0 0 1 .001-1.807M27.2 19.166h4.605v9.931H27.2a4.52 4.52 0 0 0-4.423-3.611c-1.13 0-2.153.432-2.945 1.121l-3.242-2.476 3.242-2.475a4.47 4.47 0 0 0 2.945 1.121 4.52 4.52 0 0 0 4.423-3.611M20.068 30a2.71 2.71 0 0 1 2.709-2.709A2.71 2.71 0 0 1 25.485 30a2.71 2.71 0 0 1-2.708 2.709A2.71 2.71 0 0 1 20.068 30m2.709-14.446a2.71 2.71 0 0 1 2.708 2.709 2.71 2.71 0 0 1-2.708 2.708 2.71 2.71 0 0 1-2.709-2.708 2.71 2.71 0 0 1 2.709-2.709M7.428 9.234A2.71 2.71 0 0 1 4.72 6.527a2.71 2.71 0 0 1 2.708-2.709 2.71 2.71 0 0 1 2.709 2.709 2.71 2.71 0 0 1-2.709 2.709Zm0 11.737a2.71 2.71 0 0 1-2.708-2.708 2.71 2.71 0 0 1 2.708-2.709 2.71 2.71 0 0 1 2.709 2.709 2.71 2.71 0 0 1-2.709 2.708m4.047-.746c.163-.335.3-.684.376-1.06h6.503c.076.376.213.725.376 1.06l-3.628 2.77zm7.255 7.813c-.163.335-.3.684-.376 1.06H11.85a4.5 4.5 0 0 0-.376-1.06l3.627-2.77 3.628 2.77Zm-11.302 4.67A2.71 2.71 0 0 1 4.72 30a2.71 2.71 0 0 1 2.708-2.709A2.71 2.71 0 0 1 10.137 30a2.71 2.71 0 0 1-2.709 2.709Zm4.047-.746c.163-.335.3-.684.376-1.06h6.503c.076.375.213.725.376 1.06l-3.628 2.77zm6.879 8.872H11.85a4.5 4.5 0 0 0-.376-1.059l3.627-2.77 3.628 2.77c-.163.335-.3.684-.376 1.06ZM7.428 44.446a2.71 2.71 0 0 1-2.708-2.709 2.71 2.71 0 0 1 2.708-2.709 2.71 2.71 0 0 1 2.709 2.709 2.71 2.71 0 0 1-2.709 2.709m0 11.737a2.71 2.71 0 0 1-2.708-2.709 2.71 2.71 0 0 1 2.708-2.708 2.71 2.71 0 0 1 2.709 2.708 2.71 2.71 0 0 1-2.709 2.709m15.349-11.737a2.71 2.71 0 0 1-2.709-2.709 2.71 2.71 0 0 1 2.709-2.709 2.71 2.71 0 0 1 2.708 2.709 2.71 2.71 0 0 1-2.708 2.709m4.423-3.612a4.52 4.52 0 0 0-4.423-3.611c-1.13 0-2.153.432-2.945 1.121l-3.242-2.476 3.242-2.475a4.47 4.47 0 0 0 2.945 1.121 4.52 4.52 0 0 0 4.423-3.611h4.605v9.931zm8.217 3.612a.904.904 0 0 1-1.806 0V14.652a.904.904 0 0 1 1.806 0z"/><path fill="#282928" d="M28.125 21.563H30v1.875h-1.875zm0 3.75H30v1.875h-1.875zm0 7.5H30v1.874h-1.875zm0 3.75H30v1.874h-1.875z"/></svg>