<svg xmlns="http://www.w3.org/2000/svg" width="60" height="60" fill="none"><path fill="#282928" d="M22.721 23.62a3.5 3.5 0 0 1 2.448 0v.49a2.693 2.693 0 0 0 2.692 2.688h1.698a2.69 2.69 0 0 0 2.691-2.687v-2.002a2.693 2.693 0 0 0-2.691-2.687H27.86a2.694 2.694 0 0 0-2.678 2.42 5.1 5.1 0 0 0-2.475 0 2.694 2.694 0 0 0-2.678-2.42h-1.698a2.693 2.693 0 0 0-2.691 2.687v2.002a2.693 2.693 0 0 0 2.691 2.687h1.698a2.69 2.69 0 0 0 2.691-2.687v-.491Zm4.157-1.51c0-.54.441-.98.983-.98h1.698c.541 0 .982.44.982.98v2c0 .54-.44.979-.982.979H27.86a.98.98 0 0 1-.983-.978v-2.002Zm-5.865 2c0 .54-.441.979-.983.979h-1.698a.98.98 0 0 1-.983-.978v-2.002c0-.54.441-.978.983-.978h1.698c.542 0 .983.439.983.978zm2.93 13.984a3.49 3.49 0 0 0-3.49 3.483 3.49 3.49 0 0 0 6.98 0 3.49 3.49 0 0 0-3.49-3.483m0 5.257a1.78 1.78 0 0 1-1.781-1.774 1.78 1.78 0 0 1 1.781-1.774 1.78 1.78 0 0 1 1.781 1.774 1.78 1.78 0 0 1-1.78 1.774Z"/><path fill="#282928" d="m31.176 42.764-.343-.197a7 7 0 0 0 0-1.978l.345-.198a1.416 1.416 0 0 0 .516-1.926l-1.176-2.028a1.413 1.413 0 0 0-1.924-.513l-.345.199a7 7 0 0 0-1.72-.991v-.394c0-.777-.633-1.41-1.412-1.41h-2.345c-.779 0-1.412.633-1.412 1.41v.394a7 7 0 0 0-1.72.991l-.343-.198a1.413 1.413 0 0 0-1.927.514l-1.172 2.025a1.4 1.4 0 0 0-.142 1.069c.097.365.33.67.657.859l.343.197a7 7 0 0 0 0 1.978l-.345.198a1.4 1.4 0 0 0-.655.858c-.097.365-.046.744.142 1.067l1.171 2.025a1.4 1.4 0 0 0 .857.66c.365.097.745.047 1.07-.14l.346-.2a7 7 0 0 0 1.718.992v.394c0 .778.633 1.41 1.412 1.41h2.345c.778 0 1.412-.633 1.412-1.41v-.394a7 7 0 0 0 1.72-.991l.343.198a1.4 1.4 0 0 0 1.07.14c.366-.098.67-.332.857-.657l1.171-2.025c.19-.325.24-.704.143-1.069a1.4 1.4 0 0 0-.657-.859m-2.126-2.412a5.2 5.2 0 0 1 0 2.452.854.854 0 0 0 .404.941l.608.35-.874 1.51-.612-.352a.855.855 0 0 0-1.013.12c-.603.57-1.34.995-2.13 1.228a.854.854 0 0 0-.613.82v.701h-1.75v-.702a.854.854 0 0 0-.614-.82 5.3 5.3 0 0 1-2.131-1.228.855.855 0 0 0-1.012-.119l-.612.352-.873-1.51.607-.35a.854.854 0 0 0 .405-.941 5.2 5.2 0 0 1 0-2.452.854.854 0 0 0-.405-.941l-.607-.35.872-1.508.613.353a.85.85 0 0 0 1.013-.12 5.3 5.3 0 0 1 2.13-1.227.854.854 0 0 0 .613-.82v-.702h1.75v.702c0 .379.25.713.614.82a5.26 5.26 0 0 1 2.129 1.226c.274.26.686.31 1.014.121l.614-.353.874 1.507-.61.351a.854.854 0 0 0-.404.941"/><path fill="#282928" d="M57.36 32.005c-3.435-5.409-10.642-7.022-16.065-3.595a11.6 11.6 0 0 0-2.69 2.344 2.58 2.58 0 0 0-1.795-.725H35.7c.41-.692.756-1.391 1.032-2.088 1.734-.047 3.193-.814 4.065-2.165.866-1.342.968-3.049.26-4.349-.652-1.197-1.852-1.895-3.402-1.99l.476-3.303c.478-3.294-.366-6.337-2.438-8.8-1.777-2.11-4.423-3.727-7.451-4.553-2.774-.757-5.632-.793-8.047-.103-2.568.735-4.43 2.205-5.414 4.267-3.998 1.226-5.853 4.557-5.098 9.204l.535 3.289c-1.541.1-2.734.797-3.384 1.99-.708 1.3-.606 3.007.26 4.348.871 1.351 2.33 2.119 4.064 2.166.276.696.622 1.395 1.032 2.087h-1.11a2.58 2.58 0 0 0-2.58 2.578v8.453l-1.856.654c-5.199 1.826-5.8 6.199-5.8 9.329v5.235c0 .845.687 1.533 1.532 1.533h43.139c.846 0 1.534-.688 1.534-1.533v-5.235q0-.64-.036-1.214.035.001.071.004a11.6 11.6 0 0 0 6.676-1.798.854.854 0 1 0-.913-1.445 9.91 9.91 0 0 1-11.143-.335.86.86 0 0 0-.459-.16l-5.74-.271 2.204-5.29a.85.85 0 0 0 .051-.486 9.85 9.85 0 0 1 4.448-10.193c4.628-2.925 10.778-1.55 13.71 3.067 2.207 3.467 2.021 8-.461 11.278a.855.855 0 0 0 1.362 1.032c2.911-3.846 3.13-9.161.542-13.227Zm-19.836-7.88V21.14c.966.053 1.666.432 2.033 1.105.413.758.336 1.78-.196 2.605-.29.45-.913 1.126-2.079 1.327.159-.7.242-1.389.242-2.052M8.53 24.85c-.531-.824-.608-1.846-.195-2.604.367-.672 1.067-1.051 2.032-1.106v2.985c0 .663.084 1.352.242 2.052-1.166-.201-1.788-.877-2.079-1.327m2.84-8.975c-.445-2.746-.07-6.258 4.248-7.39a.86.86 0 0 0 .574-.503c1.625-3.967 7.066-4.79 11.6-3.553 4.576 1.248 9.585 4.998 8.649 11.46l-.27 1.877c-1.308-1.859-2.505-2.246-5.21-2.251h-14.11c-2.71.005-3.855.375-5.167 2.29zm-5.313 37.23v1.29c0 .622.168 1.205.46 1.707H2.553v-5.06c0-4.261 1.393-6.57 4.658-7.716l1.289-.454v8.547h-.755a1.69 1.69 0 0 0-1.689 1.687Zm34.07 1.29c0 .941-.769 1.707-1.713 1.707H9.478a1.71 1.71 0 0 1-1.713-1.706v-1.268h32.36v1.268Zm-.732-6.677 1.522.072a11.6 11.6 0 0 0 4.368 1.832c.038.441.056.91.056 1.42v5.06h-3.966c.292-.502.46-1.085.46-1.706v-1.29a1.69 1.69 0 0 0-1.688-1.686h-.752zm-2.58-14.049a11.6 11.6 0 0 0-.778 6.44l-2.578 6.182a.855.855 0 0 0 .748 1.183l3.479.164v3.782H10.208V32.606a.87.87 0 0 1 .872-.868h10.45a.854.854 0 1 0 0-1.709h-7.31c-1.366-1.979-2.144-4.11-2.144-5.904v-3.632c1.69-3.138 2.139-3.264 4.78-3.27h14.102c2.621.006 3.148.101 4.858 3.27v3.632c0 1.794-.778 3.925-2.144 5.904h-8.163a.854.854 0 1 0 0 1.71H36.81c.32 0 .613.181.764.451q-.43.708-.76 1.48Z"/><path fill="#282928" d="M43.367 35.024a.854.854 0 0 0-1.173.289l-1.668 2.759a.86.86 0 0 0-.008.871l1.668 2.87a.854.854 0 1 0 1.477-.86l-1.413-2.43 1.406-2.326a.854.854 0 0 0-.29-1.173Zm4.547.114-2.482 6.226a.854.854 0 1 0 1.587.632l2.483-6.225a.855.855 0 0 0-1.588-.633m5.094.175a.854.854 0 1 0-1.463.884l1.406 2.325-1.413 2.431a.854.854 0 1 0 1.477.86l1.668-2.87a.86.86 0 0 0-.007-.871z"/></svg>