<svg xmlns="http://www.w3.org/2000/svg" width="60" height="60" fill="none"><path fill="#282928" d="M44.362 15.187a.937.937 0 0 0-1.322 0L30.402 27.44a.941.941 0 1 0 1.313 1.35l12.628-12.281a.94.94 0 0 0 .019-1.322"/><path fill="#282928" d="M51.226 24.75h-1.472a1.19 1.19 0 0 1-1.134-.815 20 20 0 0 0-1.67-3.684l5.776-5.71a4.49 4.49 0 0 0 0-6.346L51.245 6.76a4.47 4.47 0 0 0-3.16-1.294 4.43 4.43 0 0 0-3.16 1.322l-5.812 5.738a21.7 21.7 0 0 0-3.347-1.472 1.18 1.18 0 0 1-.806-1.134V8.438a3.085 3.085 0 0 0-3.084-3.075h-5.26a3.085 3.085 0 0 0-3.084 3.075V9.91a1.19 1.19 0 0 1-.816 1.134q-1.333.455-2.597 1.079a1.2 1.2 0 0 1-1.368-.225l-1.032-1.041a3.103 3.103 0 0 0-4.368 0l-3.694 3.694a3.084 3.084 0 0 0 0 4.368l1.031 1.041a1.2 1.2 0 0 1 .235 1.378 20 20 0 0 0-1.07 2.597 1.21 1.21 0 0 1-1.143.816H7.23a3.084 3.084 0 0 0-3.084 3.084v5.222a3.084 3.084 0 0 0 3.084 3.084H8.7a1.19 1.19 0 0 1 1.134.816q.455 1.334 1.078 2.597a1.2 1.2 0 0 1-.234 1.378l-1.031 1.04a3.04 3.04 0 0 0-.938 2.185 3.09 3.09 0 0 0 .938 2.184l3.693 3.694a3.103 3.103 0 0 0 4.37 0l1.04-1.04a1.2 1.2 0 0 1 1.368-.244q1.262.625 2.597 1.069a1.21 1.21 0 0 1 .816 1.143v1.472a3.084 3.084 0 0 0 3.084 3.084h5.26a3.08 3.08 0 0 0 3.093-3.084v-1.462a1.19 1.19 0 0 1 .807-1.144c.88-.298 1.739-.659 2.568-1.078a1.19 1.19 0 0 1 1.37.234l1.04 1.04a3.103 3.103 0 0 0 4.369 0l3.693-3.693a3.103 3.103 0 0 0 0-4.369l-1.003-1.031a1.2 1.2 0 0 1-.234-1.378q.631-1.26 1.078-2.597a1.19 1.19 0 0 1 1.134-.816h1.472a3.085 3.085 0 0 0 3.085-3.084v-5.222a3.084 3.084 0 0 0-3.122-3.084Zm-8.438 1.276a14.307 14.307 0 1 1-13.556-9.881 14.1 14.1 0 0 1 5.194.984l-11.25 11.156a.94.94 0 0 0-.253.44l-2.147 8.55a.94.94 0 0 0 .244.938.94.94 0 0 0 .665.282 1 1 0 0 0 .225 0l8.644-2.129a.83.83 0 0 0 .431-.243l11.4-11.25q.254.565.45 1.153zM24.31 30.77l4.144 4.096-5.503 1.36 1.36-5.456Zm5.99 3.29-5.165-5.11 18.6-18.374 5.166 5.11zM48.114 7.341c.7-.007 1.374.263 1.875.75l1.444 1.435a2.616 2.616 0 0 1 0 3.694l-1.163 1.143-5.203-5.11L46.22 8.11a2.6 2.6 0 0 1 1.847-.769zm4.369 25.716a1.21 1.21 0 0 1-1.21 1.21h-1.518a3.08 3.08 0 0 0-2.878 2.1 20 20 0 0 1-.938 2.352 3.08 3.08 0 0 0 .581 3.535l1.041 1.04a1.21 1.21 0 0 1 0 1.716l-3.769 3.74a1.21 1.21 0 0 1-1.715 0l-1.04-1.04a3.06 3.06 0 0 0-3.535-.628 19 19 0 0 1-2.363.938 3.05 3.05 0 0 0-2.09 2.915v1.472a1.22 1.22 0 0 1-1.172 1.247h-5.26a1.21 1.21 0 0 1-1.209-1.21v-1.471a3.06 3.06 0 0 0-2.09-2.916 19 19 0 0 1-2.363-.938 3.06 3.06 0 0 0-3.535.582l-1.04 1.05a1.21 1.21 0 0 1-1.716 0L10.97 45a1.17 1.17 0 0 1-.356-.853 1.2 1.2 0 0 1 .357-.863l1.04-1.04a3.05 3.05 0 0 0 .581-3.535 19 19 0 0 1-.937-2.362 3.07 3.07 0 0 0-2.916-2.091h-1.51a1.21 1.21 0 0 1-1.208-1.21v-5.212a1.21 1.21 0 0 1 1.209-1.21H8.7a3.06 3.06 0 0 0 2.915-2.09q.391-1.216.938-2.372a3.04 3.04 0 0 0-.581-3.525l-1.004-1.04a1.22 1.22 0 0 1 0-1.716l3.694-3.694a1.21 1.21 0 0 1 1.716 0l1.04 1.04a3.07 3.07 0 0 0 3.535.582 19 19 0 0 1 2.362-.937 3.07 3.07 0 0 0 2.091-2.916V8.438a1.21 1.21 0 0 1 1.21-1.21h5.259a1.22 1.22 0 0 1 1.181 1.21V9.91a3.06 3.06 0 0 0 2.09 2.916q1.306.453 2.532 1.087l-1.8 1.772a15.9 15.9 0 0 0-6.647-1.425 16.133 16.133 0 1 0 15.394 11.194 16.5 16.5 0 0 0-.853-2.063l1.78-1.762c.527.927.97 1.9 1.323 2.906a3.075 3.075 0 0 0 2.915 2.09h1.472a1.21 1.21 0 0 1 1.21 1.21l.009 5.222Z"/></svg>