<svg xmlns="http://www.w3.org/2000/svg" width="60" height="60" fill="none"><path fill="#282928" d="M15.938 23.586a.94.94 0 0 1-.938-.938v-3.395a.93.93 0 0 1 .371-.746 3.72 3.72 0 0 0 1.504-2.984v-2.812a3.754 3.754 0 0 0-3.75-3.75 3.754 3.754 0 0 0-3.75 3.75v2.812c0 1.172.547 2.26 1.504 2.984a.94.94 0 0 1 .371.748v3.395a.938.938 0 1 1-1.875-.002v-2.953A5.56 5.56 0 0 1 7.5 15.523v-2.812a5.63 5.63 0 0 1 5.625-5.625 5.63 5.63 0 0 1 5.625 5.625v2.812c0 1.605-.677 3.1-1.875 4.172v2.953c0 .518-.42.938-.938.938Z"/><path fill="#282928" d="M14.069 21.055a.937.937 0 0 1-.186-1.854 3.77 3.77 0 0 0 2.993-3.678.938.938 0 0 1 1.875 0 5.646 5.646 0 0 1-4.493 5.511 1 1 0 0 1-.19.02Zm5.381 4a.9.9 0 0 1-.369-.077l-3.513-1.509a.937.937 0 0 1 .739-1.723l3.513 1.51a.937.937 0 0 1-.37 1.8ZM7.5 36.406a.9.9 0 0 1-.388-.084L3.523 34.69a2.82 2.82 0 0 1-1.648-2.56v-2.6a6.53 6.53 0 0 1 3.964-6.018l4.1-1.78a.936.936 0 1 1 .747 1.72l-4.105 1.78A4.67 4.67 0 0 0 3.75 29.53v2.6c0 .365.216.702.55.854l3.588 1.631a.938.938 0 0 1-.388 1.79Zm9.26-21.989c-1.867 0-3.652-.643-5.161-1.86a.94.94 0 0 1-.143-1.316.94.94 0 0 1 1.318-.14c1.204.969 2.633 1.492 4.097 1.441a3.755 3.755 0 0 0-3.746-3.581 3.754 3.754 0 0 0-3.75 3.75v.694a.938.938 0 0 1-1.875 0v-.694a5.63 5.63 0 0 1 5.625-5.625 5.63 5.63 0 0 1 5.625 5.625v.656a.94.94 0 0 1-.79.926c-.433.07-.808.124-1.2.124m32.928 9.169a.94.94 0 0 1-.938-.938v-3.395c0-.294.137-.57.371-.746a3.72 3.72 0 0 0 1.504-2.984v-2.812a3.754 3.754 0 0 0-3.75-3.75 3.754 3.754 0 0 0-3.75 3.75v2.813c0 1.171.547 2.259 1.504 2.983a.94.94 0 0 1 .371.748v3.395a.938.938 0 0 1-1.875 0v-2.953a5.56 5.56 0 0 1-1.875-4.172v-2.812a5.63 5.63 0 0 1 5.625-5.625 5.63 5.63 0 0 1 5.625 5.625v2.812c0 1.605-.677 3.1-1.875 4.172v2.953c0 .516-.42.936-.938.936Z"/><path fill="#282928" d="M47.819 21.055a.937.937 0 0 1-.186-1.854 3.77 3.77 0 0 0 2.993-3.678.938.938 0 0 1 1.875 0 5.646 5.646 0 0 1-4.493 5.511 1 1 0 0 1-.19.02Zm-6.995 3.883a.938.938 0 0 1-.37-1.8l3.239-1.391a.938.938 0 0 1 .738 1.723l-3.238 1.391a.9.9 0 0 1-.37.077ZM52.5 36.405a.938.938 0 0 1-.388-1.79l3.588-1.632a.94.94 0 0 0 .55-.855V29.53a4.66 4.66 0 0 0-2.826-4.293l-4.11-1.785a.94.94 0 0 1-.487-1.234.93.93 0 0 1 1.233-.486l4.105 1.782a6.53 6.53 0 0 1 3.96 6.016v2.6a2.82 2.82 0 0 1-1.648 2.56l-3.589 1.632a1 1 0 0 1-.388.084ZM32.455 11.616c-2.666 0-5.441-.94-6.971-2.316a.938.938 0 1 1 1.253-1.393c1.848 1.661 6.277 2.53 8.814 1.168a.937.937 0 1 1 .887 1.652c-1.157.617-2.554.889-3.983.889m-2.47 17.032c-3.11 0-4.732-2.427-5.156-3.711a.938.938 0 0 1 1.777-.593c.04.113.87 2.427 3.38 2.427 2.529 0 3.42-2.385 3.459-2.486a.94.94 0 0 1 1.196-.567.936.936 0 0 1 .572 1.19c-.055.155-1.35 3.74-5.228 3.74"/><path fill="#282928" d="M47.813 36.148a.94.94 0 0 1-.938-.937v-.523c0-2.78-1.753-5.267-4.361-6.184l-7.82-2.775a2.81 2.81 0 0 1-1.882-2.647v-2.307a.938.938 0 0 1 1.876 0v2.307c0 .393.253.746.628.877l7.822 2.777c3.356 1.18 5.612 4.376 5.612 7.952v.525c0 .517-.42.935-.938.935Zm-35.625 0a.94.94 0 0 1-.938-.937v-.506c0-.585.062-1.172.184-1.752.604-2.855 2.692-5.236 5.445-6.219l7.803-2.737a.94.94 0 0 0 .63-.88v-2.344a.938.938 0 0 1 1.875 0v2.344a2.81 2.81 0 0 1-1.884 2.65l-7.798 2.735a6.63 6.63 0 0 0-4.237 4.84c-.096.45-.143.909-.143 1.363v.506c0 .52-.42.937-.938.937Z"/><path fill="#282928" d="M30 23.023a.938.938 0 0 1 0-1.875c1.946 0 5.625-1.762 5.625-8.437V9.898A5.63 5.63 0 0 0 30 4.273a5.63 5.63 0 0 0-5.625 5.625v2.813c0 3.232.864 5.706 2.497 7.151a.936.936 0 0 1 .081 1.324.936.936 0 0 1-1.322.08c-1.428-1.263-3.131-3.772-3.131-8.555V9.898c0-4.136 3.364-7.5 7.5-7.5s7.5 3.364 7.5 7.5v2.813c0 8.158-4.905 10.312-7.5 10.312m14.283 30a.938.938 0 0 1-.415-1.778l4.637-2.297a.94.94 0 0 1 .83 0l3.03 1.502-.492-3.345a.94.94 0 0 1 .258-.79l2.368-2.422-3.337-.568a.94.94 0 0 1-.673-.49L48.92 39.84l-1.569 2.996a.94.94 0 0 1-.673.49l-3.336.567 2.366 2.421a.938.938 0 0 1-1.34 1.31l-3.617-3.699a.935.935 0 0 1 .514-1.578l4.642-.792 2.185-4.17a.94.94 0 0 1 1.661 0l2.182 4.17 4.645.792a.936.936 0 0 1 .514 1.579L53.8 47.29l.686 4.657a.94.94 0 0 1-.377.895.93.93 0 0 1-.967.08l-4.219-2.09-4.22 2.09a.9.9 0 0 1-.42.1Zm-19.765 5.101a.938.938 0 0 1-.928-1.075l.822-5.593-3.953-4.042a.935.935 0 0 1 .514-1.579l5.576-.949 2.621-5.008c.326-.619 1.337-.619 1.663 0l2.622 5.008 5.576.949a.936.936 0 0 1 .514 1.579l-3.955 4.042.823 5.593a.94.94 0 0 1-.377.895.93.93 0 0 1-.967.08l-5.068-2.51-5.066 2.51a.9.9 0 0 1-.417.1M23.05 47.382l3.026 3.096c.205.21.3.502.26.79l-.63 4.281 3.879-1.922a.93.93 0 0 1 .83 0l3.878 1.922-.63-4.28a.94.94 0 0 1 .259-.791l3.028-3.096-4.27-.728a.94.94 0 0 1-.673-.489l-2.006-3.834-2.006 3.834a.94.94 0 0 1-.674.49l-4.27.727Zm-7.181 5.641a.95.95 0 0 1-.417-.098l-4.218-2.09-4.221 2.092a.939.939 0 0 1-1.344-.977l.686-4.657-3.294-3.366a.935.935 0 0 1 .513-1.578l4.645-.792 2.184-4.17a.94.94 0 0 1 1.661 0l2.183 4.17 4.642.791a.936.936 0 0 1 .514 1.579l-3.617 3.698a.938.938 0 0 1-1.34-1.31l2.366-2.421-3.336-.569a.94.94 0 0 1-.673-.489l-1.567-2.996-1.57 2.996a.94.94 0 0 1-.673.49l-3.337.568 2.368 2.42c.204.21.3.503.258.791L7.79 50.45l3.032-1.502a.94.94 0 0 1 .83 0l4.636 2.297a.94.94 0 0 1 .425 1.257.95.95 0 0 1-.843.52Z"/></svg>