<svg xmlns="http://www.w3.org/2000/svg" width="61" height="61" fill="none"><g fill="#282928" fill-rule="evenodd" clip-path="url(#a)" clip-rule="evenodd"><path d="M20.955 37.014h12.498a.932.932 0 0 0 0-1.864H20.955a.932.932 0 0 0 0 1.864"/><path d="M28.82 36.082v22.43a.932.932 0 0 0 1.864 0v-22.43a.932.932 0 0 0-1.864 0M8.868 1.398A6.575 6.575 0 0 0 2.297 7.97a6.574 6.574 0 0 0 6.57 6.57 6.574 6.574 0 0 0 6.572-6.57 6.575 6.575 0 0 0-6.571-6.572m0 1.864a4.71 4.71 0 0 1 4.708 4.708 4.71 4.71 0 0 1-4.708 4.707A4.71 4.71 0 0 1 4.16 7.97a4.71 4.71 0 0 1 4.708-4.708m42.754-1.864a6.575 6.575 0 0 0-6.571 6.572 6.574 6.574 0 0 0 6.571 6.57 6.574 6.574 0 0 0 6.57-6.57 6.574 6.574 0 0 0-6.57-6.572m0 1.864A4.71 4.71 0 0 1 56.33 7.97a4.71 4.71 0 0 1-4.708 4.707 4.71 4.71 0 0 1-4.708-4.707 4.71 4.71 0 0 1 4.708-4.708M14.004 27.91a.93.93 0 0 0 .834.517l.346-.067 8.579-3.43a2.58 2.58 0 0 1 3.348 1.437 2.58 2.58 0 0 1-1.436 3.348l-11.33 4.528a2.576 2.576 0 0 1-3.002-.827.932.932 0 0 0-1.672.565v4.68c0 .473.354.87.824.925l7.541.87a3.533 3.533 0 0 1 3.127 3.51V58.51a.932.932 0 0 0 1.863 0V43.966a5.396 5.396 0 0 0-4.776-5.36l-6.716-.776v-1.945a4.43 4.43 0 0 0 3.502.089l11.33-4.529a4.44 4.44 0 0 0 2.475-5.77 4.44 4.44 0 0 0-5.77-2.475l-7.848 3.138-4.509-7.38a4.44 4.44 0 0 0-2.869-2.028l-.11-.023a4.44 4.44 0 0 0-5.344 4.005L.745 42.568a5.395 5.395 0 0 0 4.766 5.43l6.724.868v9.645a.932.932 0 0 0 1.863 0V48.047a.93.93 0 0 0-.813-.924l-7.552-.975a3.533 3.533 0 0 1-3.128-3.471L4.25 21.053a2.574 2.574 0 0 1 3.1-2.323l.11.023a2.58 2.58 0 0 1 1.665 1.177c1.41 2.306 4.266 6.982 4.823 7.895q.028.045.057.085Z"/><path d="M6.605 29.265 9.6 34.166a4.44 4.44 0 0 0 5.436 1.807.931.931 0 0 0-.691-1.73 2.576 2.576 0 0 1-3.155-1.049l-2.993-4.9a.933.933 0 0 0-1.59.97Zm37.801-1.515-9.022 1.275a4.44 4.44 0 0 0-3.773 5.018 4.44 4.44 0 0 0 5.017 3.773l11.095-1.57c.432-.06.846-.183 1.233-.361v1.945l-6.715.776a5.396 5.396 0 0 0-4.777 5.36v14.545a.932.932 0 0 0 1.863 0V43.966a3.533 3.533 0 0 1 3.128-3.51l7.538-.87h-.002a.93.93 0 0 0 .828-.926v-4.68a.93.93 0 0 0-1.671-.564 2.58 2.58 0 0 1-1.686.986l-11.095 1.569a2.576 2.576 0 0 1-.722-5.101l9.454-1.337-.128.009.795-.446 5.041-8.252a3.29 3.29 0 0 1 3.11-1.563 3.294 3.294 0 0 1 3.043 3.134l.925 20.243a3.533 3.533 0 0 1-3.128 3.49l-7.395.854a.93.93 0 0 0-.825.912l-.145 10.584a.933.933 0 0 0 1.863.026l.134-9.766 6.582-.76a5.396 5.396 0 0 0 4.776-5.402L58.82 22.33a5.157 5.157 0 0 0-4.764-4.907l-.051-.004a5.16 5.16 0 0 0-4.789 2.454l-4.811 7.877ZM39.045 4.193a2.795 2.795 0 0 0-2.795-2.795H23.252a2.795 2.795 0 0 0-2.795 2.795v11.841a1.553 1.553 0 0 0 2.573 1.171l2.862-2.495a.93.93 0 0 1 .613-.23h9.745a2.795 2.795 0 0 0 2.795-2.794zM22.32 15.352V4.193c0-.514.417-.931.932-.931H36.25a.93.93 0 0 1 .932.931v7.493a.93.93 0 0 1-.932.931h-9.745c-.675 0-1.327.245-1.837.688z"/><path d="M25.604 7.17h8.442a.932.932 0 0 0 0-1.863h-8.442a.932.932 0 0 0 0 1.863m0 3.398h4.15a.932.932 0 0 0 0-1.863h-4.15a.932.932 0 0 0 0 1.863m19.318 26.075 2.8-.396a4.44 4.44 0 0 0 3.166-2.081l2.994-4.901a.932.932 0 0 0-1.59-.972l-2.994 4.902a2.58 2.58 0 0 1-1.837 1.207l-2.8.396a.933.933 0 0 0 .261 1.845"/></g><defs><clipPath id="a"><path fill="#fff" d="M.242.42h60v60h-60z"/></clipPath></defs></svg>