<svg xmlns="http://www.w3.org/2000/svg" width="61" height="61" fill="none"><g fill="#282928" clip-path="url(#a)"><path d="M49.386 26.647h2.961a.987.987 0 0 0 .987-.987v-2.962a.987.987 0 0 0-1.974 0v1.974h-1.974a.987.987 0 0 0 0 1.975M26.16 22.698a3.949 3.949 0 1 0 0-7.898 3.949 3.949 0 0 0 0 7.898m0-5.923a1.975 1.975 0 1 1 0 3.95 1.975 1.975 0 0 1 0-3.95"/><path d="M4.594 22.37a2.944 2.944 0 0 0 4.136-1.659l7.764-.12-1.355 1.12a.986.986 0 0 0-.228 1.256l1.845 3.186.04 4.443H11.87a1 1 0 0 0-.171.034 2.962 2.962 0 1 0 0 1.905 1 1 0 0 0 .17.035h5.924a.986.986 0 0 0 .987-.996l-.045-5.003 3.159-1.185q.322.21.652.381l.666 4.003c.08.475.492.824.975.824h.516v4.936h-2.961a.987.987 0 0 0-.987.987v14.401l-8.596 8.596a.987.987 0 0 0 .698 1.685h31.59a.986.986 0 0 0 .698-1.685l-6.62-6.621V47.65l2.21-3.68c3.728 2.25 5.983 3.407 6.674 3.407h5.923a.987.987 0 0 0 .988-.987v-5.514l1.684-1.685a1 1 0 0 0 .29-.699v-2.961h1.442a1.975 1.975 0 0 0 1.805-2.776l-3.07-6.91a7.67 7.67 0 0 0 1.797-4.954 17.14 17.14 0 0 0-9.526-15.414l-2.863-1.433a.99.99 0 0 0-1.244.31l-.413.573h-6.685V2.954a.987.987 0 0 0-.987-.987h-9.872a.987.987 0 0 0-.987.987v3.949h-1.507a.99.99 0 0 0-.974.825l-.666 4.001q-.332.173-.653.381l-3.802-1.424a.99.99 0 0 0-1.201.43l-.996 1.725c-.025 0-.046-.015-.071-.015H9.895V9.683a2.961 2.961 0 1 0-1.974 0v4.13c0 .545.442.987.987.987h5.909a.98.98 0 0 0 .322.988l3.132 2.578q.002.108-.006.22l-9.539.146a2.961 2.961 0 1 0-4.132 3.638m4.314 10.2a.987.987 0 1 1 0-1.974.987.987 0 0 1 0 1.974m0-26.654a.987.987 0 1 1 0 1.974.987.987 0 0 1 0-1.974m17.77 24.68h1.455a.99.99 0 0 0 .973-.825l.667-4.002q.33-.171.652-.38l3.804 1.424a.99.99 0 0 0 1.201-.43l.418-.723h4.65a1 1 0 0 0 .215-.044l1.76 2.347v1.645h-3.949v1.975h2.278l-2.644 1.057a.99.99 0 0 0-.62.917v1.975h-10.86zm10.726-16.06-.416-.723h2.523v3.95h-4.727l2.394-1.975a.99.99 0 0 0 .227-1.252Zm2.107 5.2v3.95h-2.523l.416-.723a.99.99 0 0 0-.227-1.252l-2.393-1.974h4.727Zm-6.62 24.391 3.659 3.66v.578h-5.923V37.506H32.6v5.923c0 .262.104.513.29.698ZM26.632 57.25h.045v-.05l3.705-4.235a1 1 0 0 0 .244-.65V50.34H32.6v8.885h-7.7zM15.24 59.225l7.2-7.2a1 1 0 0 0 .29-.698v-13.82h5.922v14.436L26.678 54.2v-4.847h-1.975v7.108l-2.422 2.764zm26.824 0h-7.489V50.34h1.975v2.96c0 .262.104.513.29.698l5.224 5.226ZM37.34 45.787l-2.765-2.764v-5.517h2.962v3.949c0 .34.176.657.464.837.368.231.7.434 1.048.649zm8.408-39.599 2.11 1.057a15.18 15.18 0 0 1 8.436 13.647 5.72 5.72 0 0 1-1.685 4.07.99.99 0 0 0-.205 1.098l3.332 7.497h-2.43a.987.987 0 0 0-.986.987v2.962h-.17a5.71 5.71 0 0 1-4.069-1.685.987.987 0 0 0-1.395 1.396 7.65 7.65 0 0 0 4.33 2.172l-.382.38a.99.99 0 0 0-.289.699v4.936l-4.842.005a52.5 52.5 0 0 1-6.59-3.642l-.005-.005h-.006q-.699-.425-1.39-.854v-6.683l4.315-1.725a.99.99 0 0 0 .62-.917v-3.949a1 1 0 0 0-.197-.592l-2.764-3.686V12.155zM27.665 3.941h7.898v1.975c0 .545.442.987.987.987h6.262l-3.116 4.362a.98.98 0 0 0-.184.574h-3.664l-.418-.723a.99.99 0 0 0-1.201-.43l-3.8 1.424a8 8 0 0 0-.652-.38l-.67-4.003a.99.99 0 0 0-.974-.824h-.468zM17.04 14.801l1.138-1.975 3.505 1.314a.99.99 0 0 0 .937-.133 6 6 0 0 1 1.202-.701.99.99 0 0 0 .584-.746l.614-3.683h2.277l.614 3.684a.99.99 0 0 0 .584.746q.642.28 1.202.7a.99.99 0 0 0 .936.134l3.506-1.315 1.137 1.974-2.888 2.377a.99.99 0 0 0-.352.88c.06.46.06.927 0 1.387a.99.99 0 0 0 .352.88l2.888 2.374-1.137 1.974-3.507-1.314a.99.99 0 0 0-.935.134q-.56.421-1.202.7a.99.99 0 0 0-.584.746l-.614 3.683h-2.278l-.612-3.684a.99.99 0 0 0-.584-.745 6 6 0 0 1-1.201-.701.99.99 0 0 0-.938-.133l-3.506 1.314-1.138-1.974 2.887-2.376.05-.054a1 1 0 0 0 .232-.33l.007-.011a1 1 0 0 0 .063-.34l.008-.043c0-.012-.006-.022-.007-.034v-.068c-.06-.46-.06-.927 0-1.388a.99.99 0 0 0-.354-.88zM5.069 19.284a.98.98 0 0 1 .576-.493.987.987 0 0 1 .605 1.875.987.987 0 0 1-1.242-.638.98.98 0 0 1 .06-.744Z"/><path d="M24.703 41.455h1.974v1.974h-1.974zm0 3.949h1.974v1.975h-1.974zm5.922-15.794h1.974v1.974h-1.974v-1.975Zm3.953 0h1.974v1.974h-1.974v-1.975Zm8.882-17.772h1.975v3.949h-1.974v-3.95Zm0 5.926h1.975v1.974h-1.974v-1.974Zm0 3.946h1.975v1.975h-1.974v-1.974Z"/></g><defs><clipPath id="a"><path fill="#fff" d="M.242.42h60v60h-60z"/></clipPath></defs></svg>