<svg xmlns="http://www.w3.org/2000/svg" width="60" height="60" fill="none"><path fill="#282928" d="M52.146 38.369V21.631a4.01 4.01 0 0 0 3.11-3.901 4.01 4.01 0 0 0-4.003-4.007 4 4 0 0 0-2.93 1.281l-7.25-4.187-7.247-4.184A4.007 4.007 0 0 0 30 1.451a4.01 4.01 0 0 0-3.83 5.182l-7.247 4.184-7.248 4.186a4 4 0 0 0-2.932-1.28 4.01 4.01 0 0 0-4.004 4.007 4.01 4.01 0 0 0 3.11 3.901V38.37a4.01 4.01 0 0 0-3.11 3.902 4.007 4.007 0 0 0 4.003 4.003 4 4 0 0 0 2.932-1.28l7.248 4.186 7.247 4.184A4.01 4.01 0 0 0 30 58.548a4.01 4.01 0 0 0 3.826-5.185l7.248-4.183 7.25-4.186a4 4 0 0 0 2.93 1.281 4.007 4.007 0 0 0 4.004-4.003 4.01 4.01 0 0 0-3.111-3.903Zm-3.824 1.18-8.785-5.073v-8.953l8.784-5.07a4 4 0 0 0 2.038 1.18V38.37c-.795.18-1.5.6-2.037 1.179M30 39.305c-4.44 0-7.756-1.71-7.756-3.239v-3.052q.55.401 1.256.738c1.75.837 4.059 1.297 6.5 1.297s4.748-.46 6.499-1.297a8 8 0 0 0 1.253-.737v3.051c0 1.53-3.315 3.239-7.752 3.239m-18.324.243a4 4 0 0 0-2.04-1.179V21.631a4 4 0 0 0 2.04-1.178l8.783 5.069v8.953zM30 20.696c4.437 0 7.752 1.71 7.752 3.238S34.437 27.169 30 27.169c-4.44 0-7.756-1.709-7.756-3.235.001-1.529 3.318-3.238 7.756-3.238m-7.755 6.22q.552.402 1.26.74c1.755.838 4.062 1.3 6.496 1.3 2.433 0 4.738-.462 6.492-1.3a8 8 0 0 0 1.26-.74v3.11c0 1.529-3.315 3.238-7.752 3.238-4.44 0-7.756-1.71-7.756-3.238zm29.01-11.407c1.222 0 2.218.996 2.218 2.22a2.22 2.22 0 0 1-2.218 2.217 2.22 2.22 0 0 1-2.218-2.216 2.22 2.22 0 0 1 2.218-2.22ZM40.18 12.364l7.247 4.186a4 4 0 0 0-.001 2.356L39.5 23.48c-.201-1.282-1.252-2.43-3.01-3.27-1.538-.735-3.5-1.18-5.6-1.278V9.36a4 4 0 0 0 2.038-1.181l7.25 4.184ZM29.999 3.238a2.22 2.22 0 0 1 2.218 2.216 2.22 2.22 0 0 1-2.218 2.22 2.22 2.22 0 0 1-2.22-2.22 2.22 2.22 0 0 1 2.22-2.216m-10.183 9.127 7.249-4.185a4 4 0 0 0 2.042 1.18v9.572c-2.101.098-4.065.544-5.603 1.277-1.758.84-2.809 1.99-3.01 3.271l-7.922-4.573a4 4 0 0 0-.001-2.358zM6.525 17.73c0-1.225.994-2.22 2.218-2.22s2.22.995 2.22 2.22a2.22 2.22 0 0 1-4.438 0m2.217 26.759a2.22 2.22 0 0 1-2.218-2.217 2.22 2.22 0 0 1 4.438 0 2.22 2.22 0 0 1-2.22 2.217m11.074 3.144L12.57 43.45a4 4 0 0 0 0-2.357l7.924-4.576c.198 1.285 1.245 2.436 3.004 3.277 1.535.734 3.5 1.178 5.607 1.276v9.57a4 4 0 0 0-2.041 1.18l-7.25-4.186Zm10.183 9.13a2.22 2.22 0 0 1-2.22-2.22 2.22 2.22 0 0 1 2.22-2.217 2.22 2.22 0 0 1 2.218 2.216c0 1.224-.995 2.22-2.218 2.22Zm10.18-9.13-7.25 4.185a4 4 0 0 0-2.037-1.178v-9.571c2.106-.099 4.07-.543 5.606-1.276 1.757-.84 2.803-1.99 3.002-3.276l7.926 4.577a4 4 0 0 0 0 2.353l-7.246 4.186Zm11.075-3.144a2.22 2.22 0 0 1-2.218-2.217 2.22 2.22 0 0 1 2.218-2.217 2.22 2.22 0 0 1 2.218 2.217 2.22 2.22 0 0 1-2.218 2.217"/></svg>