<svg xmlns="http://www.w3.org/2000/svg" width="512" height="512" fill-rule="evenodd" stroke-linejoin="round" stroke-miterlimit="2" clip-rule="evenodd" viewBox="0 0 32 32"><path d="M6.717 19.107c.51.461.83 1.128.83 1.87A2.525 2.525 0 0 1 5.023 23.5 2.525 2.525 0 0 1 2.5 20.977a2.525 2.525 0 0 1 3.358-2.382l.582-.978c-3.275-3.528-3.196-9.051.236-12.483 3.512-3.512 9.215-3.512 12.728 0a9 9 0 0 1 2.03 3.114l1.533-1.699a2.525 2.525 0 0 1 2.01-4.049A2.525 2.525 0 0 1 27.5 5.023a2.525 2.525 0 0 1-3.783 2.187l-1.936 2.146a9.03 9.03 0 0 1-.859 6.489l7.814 7.813a2.504 2.504 0 0 1 0 3.536 2.5 2.5 0 0 1-3.536 0l-7.813-7.813c-3.228 1.78-7.321 1.43-10.208-1.052zM20.671 9.094A8.004 8.004 0 0 0 7.383 5.841a8.005 8.005 0 0 0-.408 10.875l2.214-3.724a2.524 2.524 0 1 1 4.088-1.704l1.82 1.059a2.52 2.52 0 0 1 3.156-.574zm-.295 7.619a9 9 0 0 1-2.121 2.122l1.352 1.351 2.121-2.121zm-12.677.742a8.005 8.005 0 0 0 10.998-.3 7.99 7.99 0 0 0 2.249-6.873l-1.933 2.142a2.525 2.525 0 0 1-1.99 4.076 2.525 2.525 0 0 1-2.408-3.277l-1.65-.96a2.524 2.524 0 0 1-2.886 1.189zm12.615 3.438 5.593 5.594a1.5 1.5 0 0 0 2.121-2.121l-5.593-5.594zM3.5 20.977a1.524 1.524 0 0 0 3.047 0 1.525 1.525 0 0 0-3.047 0M23.453 5.023A1.525 1.525 0 1 0 24.977 3.5c-.841 0-1.524.683-1.524 1.523m-10.728.481a.5.5 0 0 1-.053-.999 7 7 0 0 1 5.321 2.041.5.5 0 0 1-.708.707 5.99 5.99 0 0 0-4.56-1.749m-3.481 5.519a1.524 1.524 0 1 0 3.048 0 1.524 1.524 0 0 0-3.048 0m6.256 2.954a1.524 1.524 0 0 0 3.047 0 1.525 1.525 0 0 0-3.047 0"/></svg>