<svg xmlns="http://www.w3.org/2000/svg" width="512" height="512" viewBox="0 0 24 24"><path d="M21.25 4.5a.75.75 0 0 0-.75-.75h-7a.75.75 0 0 0 0 1.5h7a.75.75 0 0 0 .75-.75m-8 0a.25.25 0 0 1 .25-.25h7a.25.25 0 0 1 0 .5h-7a.25.25 0 0 1-.25-.25"/><path d="M21 2.75H3A2.253 2.253 0 0 0 .75 5v14A2.253 2.253 0 0 0 3 21.25h18A2.253 2.253 0 0 0 23.25 19v-5a.25.25 0 0 0-.5 0v5A1.75 1.75 0 0 1 21 20.75H3A1.75 1.75 0 0 1 1.25 19V6.25H16a.25.25 0 0 0 0-.5H1.25V5A1.75 1.75 0 0 1 3 3.25h18A1.75 1.75 0 0 1 22.75 5v.75H17a.25.25 0 0 0 0 .5h5.75V13a.25.25 0 0 0 .5 0V5A2.253 2.253 0 0 0 21 2.75"/><path d="M2.75 4.5a.75.75 0 1 0 .75-.75.75.75 0 0 0-.75.75m1 0a.25.25 0 1 1-.25-.25.25.25 0 0 1 .25.25M4.75 4.5a.75.75 0 1 0 .75-.75.75.75 0 0 0-.75.75m1 0a.25.25 0 1 1-.25-.25.25.25 0 0 1 .25.25M6.75 4.5a.75.75 0 1 0 .75-.75.75.75 0 0 0-.75.75m1 0a.25.25 0 1 1-.25-.25.25.25 0 0 1 .25.25M21.25 9a1.25 1.25 0 0 0-2.5 0 1.2 1.2 0 0 0 .087.43L16 11.206l-2.837-1.774A1.2 1.2 0 0 0 13.25 9a1.25 1.25 0 0 0-2.5 0 1.2 1.2 0 0 0 .087.43L8 11.206 5.163 9.431A1.2 1.2 0 0 0 5.25 9a1.25 1.25 0 0 0-2.5 0 1.234 1.234 0 0 0 1 1.2v2.6a1.22 1.22 0 0 0 0 2.4v2.6a1.234 1.234 0 0 0-1 1.2.25.25 0 0 0 .5 0 .75.75 0 1 1 .75.75.25.25 0 0 0 0 .5A1.25 1.25 0 0 0 5.25 19a1.2 1.2 0 0 0-.087-.43L8 16.794l2.837 1.774a1.2 1.2 0 0 0-.087.431 1.25 1.25 0 0 0 2.5 0 1.2 1.2 0 0 0-.087-.43L16 16.794l2.837 1.774a1.2 1.2 0 0 0-.087.431 1.25 1.25 0 0 0 2.5 0 1.234 1.234 0 0 0-1-1.2v-2.6a1.22 1.22 0 0 0 0-2.4v-2.6a1.234 1.234 0 0 0 1-1.2M20 8.25a.75.75 0 1 1-.75.75.75.75 0 0 1 .75-.75m-.901 1.607a1.23 1.23 0 0 0 .651.342V12.8a1.23 1.23 0 0 0-.651.343L16.472 11.5ZM5.163 13.57 8 11.795l2.837 1.774a1.1 1.1 0 0 0 0 .862L8 16.205l-2.837-1.774a1.1 1.1 0 0 0 0-.862M11.25 14a.75.75 0 1 1 .75.75.75.75 0 0 1-.75-.75m1.913-.43L16 11.794l2.837 1.774a1.1 1.1 0 0 0 0 .862L16 16.205l-2.837-1.774a1.1 1.1 0 0 0 0-.862M12 8.25a.75.75 0 1 1-.75.75.75.75 0 0 1 .75-.75m-.901 1.607a1.23 1.23 0 0 0 1.802 0l2.627 1.643-2.627 1.643a1.23 1.23 0 0 0-1.802 0L8.472 11.5ZM7.529 11.5 4.9 13.143a1.23 1.23 0 0 0-.651-.343v-2.6a1.23 1.23 0 0 0 .651-.343ZM3.25 9a.75.75 0 1 1 .75.75.75.75 0 0 1-.75-.75m0 5a.75.75 0 1 1 .75.75.75.75 0 0 1-.75-.75m1.651 4.143a1.23 1.23 0 0 0-.651-.342v-2.602a1.23 1.23 0 0 0 .651-.342L7.528 16.5ZM12 19.75a.75.75 0 1 1 .75-.75.75.75 0 0 1-.75.75m.901-1.607a1.23 1.23 0 0 0-1.802 0L8.472 16.5l2.627-1.643a1.23 1.23 0 0 0 1.802 0l2.627 1.643Zm3.57-1.643 2.627-1.643a1.23 1.23 0 0 0 .652.342V17.8a1.23 1.23 0 0 0-.652.343ZM20.75 19a.75.75 0 1 1-.75-.75.75.75 0 0 1 .75.75m0-5a.75.75 0 1 1-.75-.75.75.75 0 0 1 .75.75"/></svg>