<svg xmlns="http://www.w3.org/2000/svg" width="512" height="512"><path d="M112.923 136.812h-3.289c-4.299 0-7.777 3.479-7.777 7.777s3.479 7.777 7.777 7.777h3.289c4.299 0 7.777-3.479 7.777-7.777s-3.478-7.777-7.777-7.777M145.43 136.812h-3.289c-4.299 0-7.777 3.479-7.777 7.777s3.479 7.777 7.777 7.777h3.289c4.299 0 7.777-3.479 7.777-7.777s-3.478-7.777-7.777-7.777M177.937 136.812h-3.289c-4.299 0-7.777 3.479-7.777 7.777s3.479 7.777 7.777 7.777h3.289c4.299 0 7.777-3.479 7.777-7.777s-3.478-7.777-7.777-7.777M353.21 170.056c26.507 0 48.077-21.57 48.077-48.077s-21.57-48.07-48.077-48.07-48.077 21.563-48.077 48.07 21.57 48.077 48.077 48.077m0-80.592c17.932 0 32.522 14.583 32.522 32.515s-14.59 32.522-32.522 32.522-32.522-14.59-32.522-32.522 14.59-32.515 32.522-32.515"/><path d="M504.877 231.1V87.917c0-18.212-14.764-32.976-32.976-32.976h-29.788c-6.871-9.214-15.232-17.33-24.925-24.191-2.683-1.899-6.326-1.776-8.984.159l-12.288 8.944c-5.133-2.8-10.421-5.056-15.866-6.688l-2.566-14.855c-.555-3.211-3.028-5.833-6.244-6.356-12.17-1.979-25.062-1.816-36.274.25-3.112.573-5.469 3.145-6.013 6.261l-2.566 14.699c-5.444 1.711-10.811 3.889-15.866 6.688l-12.288-8.866c-2.61-1.883-6.174-2.004-8.806-.152a113.4 113.4 0 0 0-25.025 24.106H40.177c-18.18 0-33.054 14.874-33.054 33.054V399.17c0 18.212 14.764 32.976 32.976 32.976h155.47l-31.187 53.742h-23.099a7.75 7.75 0 0 0-7.777 7.777c0 4.278 3.5 7.777 7.777 7.777h229.434c4.277 0 7.777-3.499 7.777-7.777a7.75 7.75 0 0 0-7.777-7.777h-23.099l-31.188-53.742h155.393c18.18 0 33.054-14.874 33.054-33.054V291.219a7.777 7.777 0 0 0-15.554 0v50.475H22.678V87.917c0-9.566 7.855-17.421 17.499-17.421H267.2l5.444 7.855a94.8 94.8 0 0 0-6.611 16.488L249.7 97.717c-2.567.389-4.589 2.1-5.677 4.355H87.464c-18.041 0-32.665 14.625-32.665 32.665v146.371c0 18.04 14.625 32.665 32.665 32.665h301.063c18.009 0 32.743-14.734 32.743-32.743v-70.775a111.5 111.5 0 0 0 21.699-21.932c2.022-2.645 2.1-6.3.156-9.1l-9.411-13.61a94.3 94.3 0 0 0 6.689-16.41l16.488-2.955c3.266-.544 5.833-3.189 6.3-6.455a104.7 104.7 0 0 0 1.478-17.654c0-6.171-.483-12.342-1.531-18.35-.546-3.131-3.115-5.525-6.247-6.072l-16.488-2.878c-1.633-5.522-3.889-11.044-6.689-16.488l5.444-7.855h32.665c9.644 0 17.499 7.855 17.499 17.421V231.1a7.777 7.777 0 0 0 15.555 0M329.652 485.887H182.348l31.187-53.742h84.93zm159.67-128.638v41.92c0 9.566-7.855 17.421-17.499 17.421-73.963-.078-430.869 0-431.646 0-9.644 0-17.499-7.855-17.499-17.421v-41.92zM70.353 134.738c0-9.411 7.7-17.11 17.11-17.11H242c-.078 1.478-.234 3.033-.234 4.511 0 5.911.467 11.666 1.4 17.654.544 3.267 3.111 5.911 6.378 6.455l16.488 2.955c1.711 5.677 3.889 11.199 6.611 16.41l-2.489 3.656H70.353zm335.362 146.371c0 9.488-7.7 17.11-17.188 17.11H87.464c-9.411 0-17.11-7.622-17.11-17.11v-96.284h191.791c.234 1.166.622 2.333 1.323 3.344 7.233 9.644 15.788 18.044 25.665 25.043 2.722 1.867 6.378 1.867 9.022-.077l12.366-8.944a84 84 0 0 0 15.866 6.766l2.567 14.699a7.77 7.77 0 0 0 6.378 6.378c5.988.933 12.055 1.4 18.044 1.4q8.982 0 17.732-1.4a7.77 7.77 0 0 0 6.378-6.378l2.567-14.699c5.444-1.711 10.811-3.967 15.866-6.766l9.8 7v69.918zm42.854-169.081c.311 3.344.544 6.766.544 10.111s-.234 6.533-.544 9.8l-15.788 2.878c-3.033.544-5.444 2.8-6.144 5.755-1.867 7.622-4.822 14.855-8.711 21.621-1.556 2.645-1.478 5.911.311 8.4l8.866 12.755c-4.277 5.133-9.022 9.8-14.233 13.844l-11.977-8.555c-2.567-1.867-5.989-1.944-8.633-.311-6.533 4.122-13.533 7.077-20.921 8.944-3.033.7-5.289 3.189-5.833 6.222l-2.333 13.844c-6.611.7-13.3.7-19.911 0l-2.411-13.844c-.467-3.033-2.8-5.522-5.755-6.222-7.389-1.867-14.466-4.822-20.921-8.944-2.644-1.633-6.144-1.556-8.711.311l-11.744 8.555c-5.289-4.122-10.033-8.789-14.31-13.921l8.789-12.677a7.82 7.82 0 0 0 .311-8.4c-3.967-6.766-6.844-13.999-8.711-21.621-.7-2.955-3.111-5.211-6.144-5.755l-15.788-2.878c-.389-3.267-.544-6.533-.544-9.8 0-3.422.156-6.844.544-10.111l15.711-2.722c3.111-.544 5.6-2.878 6.3-5.911 1.633-7.233 4.511-14.544 8.633-21.543a7.82 7.82 0 0 0-.311-8.4l-8.711-12.522c4.277-5.133 9.022-9.8 14.31-13.922l11.744 8.4c2.567 1.789 5.911 1.944 8.555.311q9.916-6.066 20.999-8.866c2.955-.778 5.289-3.189 5.755-6.222l2.411-13.999c6.3-.7 13.222-.7 19.911 0l2.333 13.999c.544 3.033 2.8 5.522 5.833 6.222a70.7 70.7 0 0 1 20.921 8.866c2.722 1.633 6.144 1.478 8.633-.311l11.822-8.555a96.5 96.5 0 0 1 14.232 13.921l-8.789 12.755c-1.711 2.411-1.789 5.677-.311 8.322 4.2 6.999 7.077 14.31 8.711 21.543.7 3.033 3.189 5.366 6.3 5.911z"/><path d="M228.354 395.624c4.299 0 8.294-3.995 8.294-8.294s-3.995-8.301-8.294-8.301-8.294 4.003-8.294 8.301c0 4.299 3.995 8.294 8.294 8.294M256 395.624c4.299 0 8.294-3.995 8.294-8.294s-3.995-8.301-8.294-8.301-8.294 4.003-8.294 8.301c0 4.299 3.995 8.294 8.294 8.294M283.646 395.624c4.299 0 8.301-3.995 8.301-8.294s-4.003-8.301-8.301-8.301c-4.299 0-8.294 4.003-8.294 8.301 0 4.299 3.995 8.294 8.294 8.294M102.077 228.455h111.147c4.299 0 7.777-3.479 7.777-7.777s-3.479-7.777-7.777-7.777H102.077c-4.299 0-7.777 3.479-7.777 7.777s3.478 7.777 7.777 7.777M102.077 268.929h111.147a7.773 7.773 0 0 0 7.777-7.777 7.773 7.773 0 0 0-7.777-7.777H102.077a7.773 7.773 0 0 0-7.777 7.777 7.77 7.77 0 0 0 7.777 7.777"/></svg>