<svg xmlns="http://www.w3.org/2000/svg" width="512" height="512"><path d="M210.94 199.804a7 7 0 0 0-4.95 2.05l-38.505 38.505a26.8 26.8 0 0 0-13.479-3.621c-14.888 0-27 12.112-27 27s12.112 27 27 27 27-12.112 27-27c0-4.908-1.323-9.51-3.621-13.48l36.455-36.455h72.987a13.76 13.76 0 0 0 3.83 7.375l14.746 14.746c2.616 2.616 6.094 4.057 9.793 4.057s7.178-1.441 9.793-4.057c5.601-5.602 12.723-5.472 17.521-3.485s9.925 6.933 9.925 14.853c0 7.637 6.213 13.85 13.849 13.85h20.854c7.636 0 13.849-6.213 13.849-13.85 0-7.906 5.13-12.848 9.932-14.836 4.802-1.989 11.924-2.123 17.514 3.468 2.616 2.616 6.094 4.057 9.794 4.057s7.178-1.441 9.793-4.057l14.746-14.746a13.76 13.76 0 0 0 4.056-9.793c0-3.7-1.44-7.178-4.056-9.793-5.59-5.59-5.457-12.713-3.468-17.514s6.931-9.932 14.837-9.932c7.636 0 13.849-6.213 13.849-13.85v-20.854c0-7.636-6.213-13.849-13.849-13.849-7.906 0-12.848-5.13-14.837-9.932-1.989-4.801-2.122-11.924 3.468-17.514a13.76 13.76 0 0 0 4.056-9.793c0-3.7-1.44-7.179-4.056-9.793L448.02 63.814c-2.616-2.616-6.094-4.056-9.793-4.056s-7.178 1.44-9.793 4.056c-5.59 5.59-12.712 5.458-17.514 3.468-4.802-1.989-9.932-6.931-9.932-14.837 0-7.637-6.213-13.85-13.849-13.85h-20.854c-7.636 0-13.849 6.213-13.849 13.85 0 7.906-5.13 12.848-9.932 14.837-4.801 1.988-11.924 2.122-17.515-3.469-5.4-5.399-14.187-5.399-19.586 0l-14.746 14.746a13.73 13.73 0 0 0-3.836 7.375h-72.982L177.385 49.48A26.8 26.8 0 0 0 181.006 36c0-14.888-12.112-27-27-27s-27 12.112-27 27 12.112 27 27 27c4.907 0 9.509-1.323 13.479-3.62l38.505 38.505a7 7 0 0 0 4.95 2.05h81.261c3.984 5.258 3.706 11.423 1.923 15.727-1.989 4.802-6.931 9.932-14.837 9.932-7.636 0-13.849 6.213-13.849 13.849v3.427h-55.222c-3.092-11.504-13.607-20-26.074-20-14.888 0-27 12.112-27 27s12.112 27 27 27c12.467 0 22.982-8.496 26.074-20h55.222v3.427c0 7.637 6.213 13.85 13.849 13.85 7.906 0 12.848 5.13 14.837 9.932 1.782 4.303 2.06 10.468-1.923 15.726zm-56.934 76.935c-7.168 0-13-5.832-13-13s5.832-13 13-13 13 5.832 13 13c-.001 7.168-5.832 13-13 13m0-227.739c-7.168 0-13-5.832-13-13s5.832-13 13-13 13 5.832 13 13-5.832 13-13 13m30.136 113.87c-7.168 0-13-5.832-13-13s5.832-13 13-13 13 5.832 13 13-5.832 13-13 13m95.296-2.723v-20.554c12.319-.058 22.894-7.164 27.621-18.574s2.273-23.913-6.397-32.665l14.535-14.535c8.752 8.671 21.254 11.123 32.665 6.397 11.411-4.727 18.517-15.301 18.574-27.621h20.553c.057 12.32 7.163 22.895 18.574 27.621 11.41 4.726 23.913 2.274 32.665-6.397l14.535 14.535c-8.671 8.752-11.124 21.253-6.397 32.665 4.726 11.411 15.301 18.517 27.62 18.574v20.554c-12.319.058-22.894 7.164-27.62 18.574s-2.274 23.912 6.397 32.665l-14.534 14.535c-8.752-8.671-21.254-11.124-32.666-6.397s-18.517 15.3-18.574 27.621h-20.553c-.057-12.332-7.16-22.912-18.567-27.637s-23.912-2.266-32.672 6.414l-14.535-14.535c8.671-8.752 11.124-21.254 6.397-32.665-4.726-11.411-15.301-18.517-27.621-18.575m97.273 47.68c31.958 0 57.957-25.999 57.957-57.957s-26-57.957-57.957-57.957-57.957 25.999-57.957 57.957 26 57.957 57.957 57.957m0-101.913c24.238 0 43.957 19.719 43.957 43.957s-19.719 43.957-43.957 43.957-43.957-19.719-43.957-43.957 19.72-43.957 43.957-43.957m123.004 270.459c-6.875-11.907-22.156-16-34.064-9.127L363.155 426.42l-85.175-29.682a41 41 0 0 0 2.918-3.783l53.034-7.73c14.91-2.172 25.324-12.971 25.324-26.261 0-14.52-11.813-26.333-26.333-26.333h-69.752a40.5 40.5 0 0 0-16.012-3.281 40.5 40.5 0 0 0-17.136 3.79l-.003-.006-100.197 40.157H81.379V355.89a7 7 0 0 0-7-7H16a7 7 0 0 0-7 7V496a7 7 0 0 0 7 7h58.379a7 7 0 0 0 7-7v-17.302c21.867.575 49.628 3.634 78.872 6.863 39.41 4.352 83.912 9.266 124.404 9.265q1.987 0 3.961-.016c48.597-.396 83.291-8.245 106.055-23.995l96.146-60.517c11.714-7.373 15.623-22.275 8.898-33.925m-133.525 76.19 7.781 13.917c-4.031 1.856-8.31 3.502-12.818 4.95zm-20.934-93.599c0 7.228-6.701 11.439-13.343 12.407l-44.747 6.522c.49-2.521.754-5.122.754-7.784 0-8.738-2.773-16.836-7.473-23.479h52.476c6.8.001 12.333 5.534 12.333 12.334M273.92 370.11c0 14.756-12.004 26.761-26.76 26.761s-26.761-12.005-26.761-26.761 12.005-26.76 26.761-26.76 26.76 12.004 26.76 26.76m-143.81 55.835c0 21.314-17.34 38.654-38.654 38.654s-38.654-17.34-38.654-38.654 17.34-38.654 38.654-38.654 38.654 17.34 38.654 38.654M23 489V362.89h44.379v16.253c-16.953 8.757-28.576 26.442-28.576 46.802s11.624 38.045 28.576 46.803V489zm138.787-17.354c-13.143-1.451-25.982-2.866-38.179-4.046 12.458-9.638 20.502-24.721 20.502-41.655 0-15.265-6.536-29.028-16.949-38.654h4.014c.892 0 1.776-.171 2.604-.502l74.869-30.006a40.6 40.6 0 0 0-2.25 13.328c0 22.476 18.285 40.761 40.761 40.761a40.5 40.5 0 0 0 17.493-3.952l90.787 31.638-9.865 36.948c-51.297 10.765-123.179 2.832-183.787-3.86m321.572-73.195-96.276 60.599a8 8 0 0 0-.265.175c-.206.143-.421.279-.628.42l-12.831-22.949 99.292-57.326c5.222-3.016 11.925-1.22 14.94 4.003 2.947 5.105 1.088 11.729-4.232 15.078m-245.389-28.34c0-5.062 4.128-9.19 9.19-9.19s9.189 4.128 9.189 9.19-4.128 9.19-9.189 9.19c-5.062-.001-9.19-4.129-9.19-9.19M82.267 425.945c0-5.062 4.128-9.19 9.19-9.19s9.19 4.128 9.19 9.19-4.128 9.19-9.19 9.19-9.19-4.128-9.19-9.19"/></svg>