<svg xmlns="http://www.w3.org/2000/svg" width="60" height="60" fill="none"><path fill="#282928" d="M4.507 39.9a.937.937 0 1 1-1.754.663c-2.072-5.481-2.38-11.39-.892-17.087 1.52-5.815 4.795-10.899 9.473-14.701a28.2 28.2 0 0 1 9.98-5.214l-1.396-.496a.938.938 0 0 1 .627-1.767L25 2.88a.938.938 0 0 1 .438 1.444l-2.875 3.851a.936.936 0 1 1-1.502-1.122l1.385-1.855c-3.61.944-7.01 2.66-9.929 5.033a26.23 26.23 0 0 0-8.01 29.67Zm46.226 7.221a.937.937 0 0 0-1.319.13 26.5 26.5 0 0 1-3.765 3.745c-10.566 8.588-25.587 7.718-35.06-1.728l1.921.355a.938.938 0 0 0 .34-1.844l-4.647-.858A.94.94 0 0 0 7.1 47.953l.564 4.772a.938.938 0 1 0 1.862-.22l-.22-1.871c4.64 4.599 10.698 7.421 17.279 8.009a29 29 0 0 0 2.538.113c6.443 0 12.651-2.195 17.707-6.305a28.3 28.3 0 0 0 4.032-4.01.937.937 0 0 0-.13-1.32Zm8.11-10.567a.937.937 0 0 0-1.322-.105l-1.132.966a28.3 28.3 0 0 0 .456-11.429 28.14 28.14 0 0 0-5.923-13.122A28.1 28.1 0 0 0 33.63 2.844a.938.938 0 0 0-.302 1.85 26.23 26.23 0 0 1 16.138 9.353c5.41 6.657 7.205 15.334 4.946 23.527l-.915-2.129a.937.937 0 1 0-1.722.74l1.897 4.415a.938.938 0 0 0 1.47.343l3.596-3.067a.937.937 0 0 0 .105-1.322M25.6 11.015c.14-.362.487-.6.875-.6h5.213c.388 0 .736.239.875.6l1.054 2.739c1.463.392 2.864.973 4.177 1.731l2.684-1.191a.94.94 0 0 1 1.043.194l3.686 3.686a.94.94 0 0 1 .194 1.044l-1.192 2.684a17.3 17.3 0 0 1 1.731 4.175l2.74 1.055c.361.139.6.487.6.875v5.213a.94.94 0 0 1-.6.875l-2.739 1.054a17.3 17.3 0 0 1-1.732 4.177l1.192 2.683c.158.354.08.77-.194 1.043l-3.686 3.687a.94.94 0 0 1-1.043.194l-2.685-1.193a17.3 17.3 0 0 1-4.175 1.732l-1.055 2.739a.94.94 0 0 1-.875.6h-5.213a.94.94 0 0 1-.875-.6l-1.054-2.739a17.3 17.3 0 0 1-4.177-1.731l-2.683 1.192a.94.94 0 0 1-1.043-.194l-3.687-3.687a.94.94 0 0 1-.194-1.043l1.193-2.684a17.3 17.3 0 0 1-1.732-4.176l-2.738-1.054a.94.94 0 0 1-.601-.875v-5.213c0-.388.239-.736.6-.875l2.74-1.055a17.4 17.4 0 0 1 1.73-4.175l-1.191-2.684a.94.94 0 0 1 .193-1.044l3.687-3.686a.94.94 0 0 1 1.043-.194l2.684 1.192a17.3 17.3 0 0 1 4.176-1.732zm-.136 4.44a15.5 15.5 0 0 0-4.54 1.882.94.94 0 0 1-.871.06l-2.54-1.129-2.776 2.776 1.128 2.54a.94.94 0 0 1-.058.872 15.5 15.5 0 0 0-1.882 4.539.94.94 0 0 1-.575.658l-2.591.997v3.926l2.59.997a.94.94 0 0 1 .576.658 15.5 15.5 0 0 0 1.882 4.539c.162.263.184.59.058.872l-1.128 2.54 2.776 2.775 2.539-1.127a.94.94 0 0 1 .872.058c1.408.867 2.935 1.5 4.54 1.883.3.071.547.286.658.575l.997 2.59h3.926l.997-2.591a.94.94 0 0 1 .658-.575 15.5 15.5 0 0 0 4.539-1.882.94.94 0 0 1 .872-.059l2.54 1.128 2.775-2.776-1.127-2.538a.94.94 0 0 1 .058-.872 15.5 15.5 0 0 0 1.883-4.54.94.94 0 0 1 .575-.658l2.59-.997V28.65l-2.591-.997a.94.94 0 0 1-.575-.658 15.5 15.5 0 0 0-1.882-4.539.94.94 0 0 1-.059-.872l1.128-2.54-2.776-2.776-2.538 1.128a.94.94 0 0 1-.872-.059 15.5 15.5 0 0 0-4.54-1.882.94.94 0 0 1-.658-.575l-.997-2.59H27.12l-.997 2.59a.94.94 0 0 1-.658.576Zm3.618 2.88c6.77 0 12.278 5.508 12.278 12.278s-5.508 12.278-12.278 12.278-12.278-5.508-12.278-12.278 5.508-12.278 12.278-12.278M18.68 30.613c0 5.736 4.666 10.403 10.403 10.403 5.736 0 10.403-4.667 10.403-10.403S34.819 20.21 29.083 20.21 18.68 24.877 18.68 30.613m8.99 5.273a.937.937 0 0 0 1.148-.663l2.34-8.735a.938.938 0 0 0-1.81-.485l-2.34 8.734a.937.937 0 0 0 .662 1.149m-6.466-4.556 3.814 3.213a.936.936 0 0 0 1.32-.113.937.937 0 0 0-.112-1.32l-2.963-2.497 2.963-2.497a.937.937 0 1 0-1.208-1.433l-3.814 3.213a.938.938 0 0 0 0 1.434m10.623 3.1a.935.935 0 0 0 1.321.113l3.813-3.213a.937.937 0 0 0 0-1.434l-3.813-3.213a.937.937 0 0 0-1.208 1.433l2.962 2.497-2.962 2.496a.937.937 0 0 0-.113 1.322Z"/></svg>