<svg xmlns="http://www.w3.org/2000/svg" width="84" height="84" fill="none"><mask id="a" width="74" height="44" x="5" y="20" maskUnits="userSpaceOnUse" style="mask-type:luminance"><path fill="#fff" d="M79 20H5v44h74z"/></mask><g fill="#000" mask="url(#a)"><path d="M26.032 36.053c0 .894.097 1.62.268 2.151.194.532.438 1.112.779 1.741.121.193.17.387.17.556 0 .242-.146.484-.462.725l-1.534 1.016c-.22.145-.438.217-.633.217-.243 0-.487-.12-.73-.338a7.5 7.5 0 0 1-.876-1.136c-.244-.411-.487-.87-.755-1.427q-2.848 3.336-7.157 3.336c-2.044 0-3.675-.58-4.868-1.74s-1.801-2.708-1.801-4.642c0-2.055.73-3.723 2.215-4.98s3.456-1.886 5.964-1.886c.827 0 1.68.073 2.58.194.9.12 1.825.314 2.8.531v-1.764c0-1.838-.39-3.12-1.145-3.869-.779-.75-2.093-1.112-3.968-1.112-.852 0-1.728.097-2.629.315-.9.217-1.777.483-2.629.822-.389.169-.681.265-.851.314s-.293.072-.39.072c-.34 0-.511-.241-.511-.75v-1.184c0-.387.048-.677.17-.846.122-.17.341-.338.682-.508q1.278-.652 3.067-1.087c1.193-.315 2.458-.46 3.797-.46 2.897 0 5.015.653 6.378 1.959 1.339 1.305 2.02 3.287 2.02 5.947v7.833zm-9.883 3.674c.803 0 1.631-.145 2.507-.435s1.656-.822 2.313-1.547c.39-.46.681-.967.827-1.547a8.6 8.6 0 0 0 .244-2.104V33.08c-.706-.17-1.46-.314-2.24-.41a19 19 0 0 0-2.288-.146c-1.63 0-2.824.314-3.627.967s-1.192 1.572-1.192 2.78c0 1.136.292 1.983.9 2.563.584.604 1.436.894 2.556.894m19.547 2.611c-.438 0-.73-.072-.925-.241-.195-.145-.365-.484-.511-.943l-5.72-18.688c-.147-.484-.22-.798-.22-.967 0-.387.195-.605.584-.605h2.386c.462 0 .779.073.95.242.194.145.34.484.486.943l4.09 16.005 3.797-16.005c.122-.483.268-.798.462-.943.195-.145.536-.242.974-.242h1.947c.463 0 .78.073.974.242.195.145.365.484.463.943l3.846 16.198 4.21-16.198c.147-.483.317-.798.488-.943.194-.145.51-.242.949-.242h2.264c.39 0 .608.194.608.605 0 .12-.024.242-.048.387a3.4 3.4 0 0 1-.17.604l-5.867 18.688q-.22.725-.511.943c-.195.145-.511.242-.925.242h-2.094c-.462 0-.779-.073-.973-.242-.195-.17-.366-.484-.463-.967L42.974 25.56l-3.749 15.57c-.121.483-.267.797-.462.967s-.536.241-.974.241zm31.28.653c-1.266 0-2.532-.145-3.75-.435-1.216-.29-2.166-.604-2.799-.967-.39-.218-.657-.46-.754-.677a1.7 1.7 0 0 1-.146-.677v-1.233c0-.508.194-.75.56-.75q.219 0 .438.073c.146.049.365.145.608.242.828.363 1.729.653 2.678.846.974.194 1.923.29 2.897.29 1.533 0 2.726-.266 3.554-.798.827-.531 1.265-1.305 1.265-2.296 0-.677-.219-1.233-.657-1.693s-1.266-.87-2.458-1.257l-3.53-1.088c-1.777-.556-3.092-1.378-3.895-2.466-.803-1.063-1.217-2.248-1.217-3.505q0-1.524.657-2.684a6.2 6.2 0 0 1 1.753-1.982c.73-.556 1.558-.967 2.532-1.257.973-.29 1.996-.411 3.067-.411.535 0 1.095.024 1.63.097.56.072 1.072.169 1.583.265.487.121.95.242 1.387.387q.658.217 1.023.436c.34.193.584.386.73.604q.219.29.219.798v1.136c0 .508-.195.774-.56.774-.195 0-.511-.097-.925-.29q-2.08-.944-4.674-.943c-1.387 0-2.482.217-3.237.676s-1.144 1.161-1.144 2.152c0 .677.243 1.257.73 1.717.487.459 1.388.918 2.678 1.33l3.456 1.087c1.753.556 3.019 1.33 3.773 2.321.755.991 1.12 2.128 1.12 3.385 0 1.04-.219 1.982-.633 2.804a6.5 6.5 0 0 1-1.777 2.128c-.754.604-1.655 1.04-2.702 1.353-1.095.339-2.24.508-3.48.508"/><path fill-rule="evenodd" d="M71.576 54.74c-8.009 5.875-19.644 8.994-29.649 8.994-14.02 0-26.654-5.15-36.197-13.708-.754-.677-.073-1.595.828-1.063C16.88 54.91 29.61 58.512 42.78 58.512c8.885 0 18.646-1.837 27.628-5.609 1.34-.604 2.483.87 1.169 1.838" clip-rule="evenodd"/><path fill-rule="evenodd" d="M74.911 50.97c-1.022-1.306-6.767-.63-9.372-.315-.779.096-.9-.58-.194-1.088 4.576-3.191 12.098-2.273 12.974-1.209.876 1.088-.243 8.558-4.528 12.136-.657.556-1.29.266-.998-.459.974-2.393 3.14-7.785 2.118-9.066" clip-rule="evenodd"/></g></svg>