<svg xmlns="http://www.w3.org/2000/svg" width="84" height="84"><path fill="none" d="M0 0h84v84H0z"/><path d="M41.739 27.388 20 15v24.781l7.175-4.089v-8.348l7.323 4.171-14.5 8.266v28.936l21.739-12.388 21.739 12.388V15Zm-1.524 28.053L21.524 66.1V40.663l18.691-10.656v4.753l-13.8 7.866-.767.439v15.922l2.275-1.3 12.289-7.005Zm-13.04.932v-8.348L34.5 52.2l7.241-4.127Zm3.667-14.514 10.9-6.21 10.9 6.21-10.9 6.21ZM56.3 56.373 48.98 52.2l7.32-4.17zm0-10.1-8.858 5.048-4.171-2.373 10.9-6.21 2.132 1.217v2.319Zm0-10.579-7.323-4.171 7.323-4.171zm5.651 3.223-4.127-2.357V24.724l-2.275 1.3-8.1 4.621-4.177-2.379 18.68-10.645v21.294Z"/></svg>