<svg xmlns="http://www.w3.org/2000/svg" width="84" height="84"><path d="M51.884 54.489a19.44 19.44 0 0 1-8.653 1.986 19.958 19.958 0 1 1 19.988-19.956 20.3 20.3 0 0 1-1.89 8.54l3.979 4.071a25.03 25.03 0 0 0 3.382-12.71 25.5 25.5 0 0 0-7.46-17.972 24.96 24.96 0 0 0-17.9-7.447 25.6 25.6 0 0 0-18 7.447 25.34 25.34 0 0 0-7.46 17.972l-5.868 14.5h5.868v10.923h5.968v10.724h34.216v-11.82Z"/><path d="M43.228 18.239A17.471 17.471 0 1 0 60.699 35.71a17.466 17.466 0 0 0-17.471-17.471m0 31.179a13.611 13.611 0 1 1 13.611-13.611 13.657 13.657 0 0 1-13.611 13.611"/><path d="M43.19 44.666a8.184 8.184 0 0 1-.965-16.313v9.074h9.074a8.23 8.23 0 0 1-8.109 7.239"/><path d="M44.296 35.385v-7.143a8.105 8.105 0 0 1 7.143 7.143ZM70.625 64.166a4.49 4.49 0 0 1-6.467 0L54.118 54.03a20.7 20.7 0 0 0 6.467-6.467l10.039 10.039a4.6 4.6 0 0 1 .001 6.564"/><path fill="none" d="M0 0h84v84H0z"/></svg>