<svg xmlns="http://www.w3.org/2000/svg" width="84" height="84"><path fill="none" d="M0 0h84v84H0z"/><path d="M63.894 32.047a5.4 5.4 0 0 1-.993 3.031l-20.93-5.765 7.014 12.307a44 44 0 0 1-6.538.475C30.6 42.096 21 37.596 21 32.047s9.6-10.051 21.447-10.051 21.447 4.5 21.447 10.051M21.8 37.462l.649 4.668c6.648 6.909 16.473 7.554 26.249 6.8l.22-5.61c-12.053 1.502-22.176-1.118-27.118-5.858m28.875 3.712-.168 3.68 10.182 3.282.778-4.549-11.534-3.691Zm-2.263 14.9.194-5.223c-10.4.389-20.139-.492-25.848-6.489l.55 3.955c6.943 7.113 15.555 8.493 25.105 7.758Zm-2.976-24.068 3.228 5.664 13.042 3.982.894-4.919Zm4.992 14.59-.26 5.693 9.179 3.879 1.017-6.114Zm-26.764 4.275.132.949s.031 5.208 6.852 8.772 17.514 2.028 17.514 2.028l.175-4.624c-10.151.379-18.837-1.115-24.673-7.125"/></svg>