<svg xmlns="http://www.w3.org/2000/svg" width="84" height="84" fill="none"><path fill="#000" d="M52.194 45.76A13 13 0 0 1 49 45.37 24.8 24.8 0 0 1 50.394 50h1.8A16.6 16.6 0 0 0 58 48.935L56.2 45a13.4 13.4 0 0 1-4.006.76M42.85 41.592l-.732-.727a14.1 14.1 0 0 1-3.582-5.198 13.4 13.4 0 0 1-.887-6.142c.208-2.791 1.297-5.46 3.129-7.662l-.163 2.74c-.002.479.187.941.53 1.296.341.355.812.575 1.319.619h.183c.508.002 1-.176 1.375-.5.376-.322.61-.766.656-1.243l.69-7.835a1.8 1.8 0 0 0-.117-.818 1.9 1.9 0 0 0-.471-.695 2.1 2.1 0 0 0-.757-.363 2.2 2.2 0 0 0-.848-.04l-8.309.671a2.08 2.08 0 0 0-1.386.676 1.85 1.85 0 0 0-.473 1.402c.046.509.304.979.717 1.307.414.329.949.49 1.488.446l2.62-.21c-2.468 2.911-3.922 6.47-4.164 10.19-.21 2.55.166 5.111 1.102 7.511s2.41 4.581 4.322 6.395l.63.709c2.595 2.53 4.089 5.886 4.184 9.405a13.4 13.4 0 0 1-.528 4.731L47.035 60a15.9 15.9 0 0 0 .914-6.723c-.125-4.352-1.94-8.51-5.1-11.685M69.04 41.55l-2.247.165a17.735 17.735 0 0 0 1.895-18.77 17.86 17.86 0 0 0-6.627-7.267A18 18 0 0 0 52.571 13a17.4 17.4 0 0 0-5.571.905l1.69 3.324c2.12-.597 4.35-.697 6.515-.292a14.3 14.3 0 0 1 5.962 2.628 14.2 14.2 0 0 1 4.16 4.995 14.1 14.1 0 0 1 1.485 6.316 13.95 13.95 0 0 1-3.064 8.716l.186-2.844a1.85 1.85 0 0 0-1.035-1.78 1.87 1.87 0 0 0-2.491.842 1.8 1.8 0 0 0-.188.698l-.52 7.534a1.84 1.84 0 0 0 .576 1.44 1.75 1.75 0 0 0 1.281.518h.186l7.576-.776a1.86 1.86 0 0 0 1.603-1.31c.07-.233.094-.479.068-.721a1.84 1.84 0 0 0-.645-1.209 1.86 1.86 0 0 0-1.305-.435M14.952 45.982h.156l7.96-.634c.255-.02.504-.087.732-.197s.43-.26.595-.442c.165-.183.29-.394.368-.621a1.7 1.7 0 0 0-.126-1.386c-.118-.213-.28-.4-.476-.555a2 2 0 0 0-.667-.342 2.1 2.1 0 0 0-.757-.08l-2.705.218c2.547-1.75 5.63-2.695 8.796-2.699 1.067.006 2.13.116 3.172.326a17.6 17.6 0 0 1-1.382-3.857h-1.79c-4.152-.006-8.19 1.268-11.482 3.622l.233-2.373a1.7 1.7 0 0 0-.086-.705 1.8 1.8 0 0 0-.371-.62 1.9 1.9 0 0 0-.599-.439 2 2 0 0 0-.734-.192 2.04 2.04 0 0 0-1.417.42c-.394.309-.64.75-.685 1.228l-.68 7.39c-.022.25.012.5.1.738.088.236.228.454.411.637.183.184.405.33.652.43s.513.152.782.151zM42.025 61.674l-7.513.505c-.487.033-.942.26-1.264.635a1.9 1.9 0 0 0 .169 2.647 1.82 1.82 0 0 0 1.334.463l2.829-.206a14 14 0 0 1-7.242 3.087 13.93 13.93 0 0 1-7.743-1.318 14.25 14.25 0 0 1-5.865-5.318 14.64 14.64 0 0 1-2.185-7.684 14.5 14.5 0 0 1 .533-3.744L11.863 49A18.3 18.3 0 0 0 11 54.523c.022 3.39.974 6.706 2.75 9.574a17.94 17.94 0 0 0 7.296 6.649 17.52 17.52 0 0 0 9.642 1.718 17.63 17.63 0 0 0 9.078-3.732l-.22 2.209a1.9 1.9 0 0 0 .398 1.375c.152.19.339.35.551.467s.445.191.685.217h.202c.457.002.898-.169 1.238-.48.34-.312.553-.742.599-1.205l.771-7.6a1.88 1.88 0 0 0-.505-1.49 1.806 1.806 0 0 0-1.442-.57z"/></svg>