<svg xmlns="http://www.w3.org/2000/svg" width="84" height="84"><path fill="none" d="M0 0h84v84H0z"/><path d="M35.338 63.677a8.35 8.35 0 0 1-4.951-6.962 9.82 9.82 0 0 1 4.463-7.726 3.53 3.53 0 0 0 .269 3.221 2.96 2.96 0 0 0 3.014 1.179 3.088 3.088 0 0 0 1.2-5.3 6.83 6.83 0 0 1-2.462-6.259 6.44 6.44 0 0 1 2-3.25c-.741 1.97 1.337 3.9 2.738 4.865a72 72 0 0 1 7.138 4.884 9.62 9.62 0 0 1 3.64 8.194 9.08 9.08 0 0 1-6.156 7.155c6.457-1.436 13.12-6.57 13.248-13.852a15.09 15.09 0 0 0-8.914-13.437h-.235a2.3 2.3 0 0 1 .162.9 4 4 0 0 0 0-.6 3 3 0 0 1 0 .71 3.09 3.09 0 0 1-5.418 1.2c-2.134-2.731 0-5.838.355-8.848A11.23 11.23 0 0 0 40.781 20c1.557 2.6-.52 6.009-2.028 7.951s-3.691 3.385-5.477 5.078a45 45 0 0 0-5.254 5.845 17.79 17.79 0 0 0-3.641 14.933 14.21 14.21 0 0 0 10.951 9.882h.029Z"/></svg>