<svg xmlns="http://www.w3.org/2000/svg" width="84" height="84" fill="none"><mask id="a" width="60" height="60" x="12" y="12" maskUnits="userSpaceOnUse" style="mask-type:luminance"><path fill="#fff" d="M72 12H12v60h60z"/></mask><g fill="#000" mask="url(#a)"><path d="M46.965 72h-9.933a2.595 2.595 0 0 1-2.586-2.324l-.442-4.221a.83.83 0 0 0-.527-.695 24.2 24.2 0 0 1-6.92-3.999.84.84 0 0 0-.871-.112l-3.874 1.727a2.595 2.595 0 0 1-3.31-1.075L13.537 52.7a2.595 2.595 0 0 1 .723-3.404l3.434-2.492a.83.83 0 0 0 .337-.808 24.5 24.5 0 0 1 0-7.99.83.83 0 0 0-.338-.808l-3.433-2.491a2.595 2.595 0 0 1-.724-3.405l4.967-8.601a2.595 2.595 0 0 1 3.31-1.075l3.873 1.727a.84.84 0 0 0 .872-.112 24.4 24.4 0 0 1 2.911-2.06.879.879 0 0 1 .908 1.506 23 23 0 0 0-2.7 1.91 2.58 2.58 0 0 1-2.7.362l-3.874-1.728a.84.84 0 0 0-1.073.348l-4.972 8.602a.84.84 0 0 0 .235 1.103l3.433 2.493a2.58 2.58 0 0 1 1.04 2.517 22.7 22.7 0 0 0 0 7.417 2.58 2.58 0 0 1-1.039 2.518l-3.434 2.493a.84.84 0 0 0-.234 1.103l4.966 8.595a.84.84 0 0 0 1.073.348l3.873-1.728a2.57 2.57 0 0 1 2.702.361 22.5 22.5 0 0 0 6.418 3.71 2.6 2.6 0 0 1 1.66 2.159l.442 4.215a.84.84 0 0 0 .838.756h9.935a.84.84 0 0 0 .838-.756l.441-4.215a2.6 2.6 0 0 1 1.661-2.158 22.5 22.5 0 0 0 6.417-3.709 2.57 2.57 0 0 1 2.701-.36l3.874 1.727a.84.84 0 0 0 1.078-.35l4.966-8.601a.84.84 0 0 0-.236-1.103l-3.433-2.493a2.58 2.58 0 0 1-1.039-2.517 22.7 22.7 0 0 0 0-7.417 2.58 2.58 0 0 1 1.038-2.518l3.434-2.493a.84.84 0 0 0 .235-1.103l-4.966-8.602a.84.84 0 0 0-1.073-.348l-3.874 1.728a2.57 2.57 0 0 1-2.701-.361 22.5 22.5 0 0 0-6.418-3.71 2.6 2.6 0 0 1-1.66-2.158l-.442-4.216a.84.84 0 0 0-.84-.75h-9.934a.84.84 0 0 0-.837.756l-.442 4.215a2.6 2.6 0 0 1-1.66 2.158 26 26 0 0 0-.708.28.879.879 0 1 1-.678-1.621c.238-.097.49-.2.768-.304a.84.84 0 0 0 .53-.695l.442-4.217A2.597 2.597 0 0 1 37.032 12h9.933a2.596 2.596 0 0 1 2.587 2.324l.441 4.217a.83.83 0 0 0 .528.695 24.2 24.2 0 0 1 6.92 4 .84.84 0 0 0 .87.111l3.874-1.727a2.595 2.595 0 0 1 3.31 1.075l4.967 8.602a2.596 2.596 0 0 1-.723 3.404l-3.433 2.496a.83.83 0 0 0-.337.808 24.5 24.5 0 0 1 0 7.99.83.83 0 0 0 .338.808l3.433 2.492a2.595 2.595 0 0 1 .724 3.405l-4.967 8.601a2.596 2.596 0 0 1-3.31 1.075l-3.873-1.727a.84.84 0 0 0-.872.112 24.2 24.2 0 0 1-6.919 4 .83.83 0 0 0-.529.694l-.441 4.217A2.596 2.596 0 0 1 46.965 72"/><path d="M50.927 50.946c-.884 0-1.763-.13-2.61-.387a.88.88 0 0 1 .511-1.682c.68.206 1.388.31 2.1.31a7.191 7.191 0 1 0-5.086-12.274l-3.222 3.221a.88.88 0 0 1-1.243 0l-3.221-3.221a7.19 7.19 0 1 0 0 10.168l3.221-3.222a.88.88 0 0 1 1.243 0l3.222 3.221q.166.167.327.309a.878.878 0 0 1-.525 1.538.88.88 0 0 1-.637-.218 8 8 0 0 1-.41-.387l-2.6-2.6-2.601 2.6a8.95 8.95 0 1 1 0-12.657l2.6 2.6 2.6-2.6a8.95 8.95 0 1 1 6.329 15.275zm-17.856-3.514a5.43 5.43 0 0 1-5.403-4.9 5.43 5.43 0 0 1 9.245-4.374l3.22 3.22a.88.88 0 0 1 0 1.243l-3.22 3.221a5.4 5.4 0 0 1-3.842 1.59m0-9.103a3.674 3.674 0 1 0 2.6 6.274l2.599-2.6-2.6-2.6a3.65 3.65 0 0 0-2.6-1.078zm17.856 9.103a5.42 5.42 0 0 1-3.843-1.59l-3.22-3.22a.88.88 0 0 1 0-1.242l3.22-3.221a5.433 5.433 0 1 1 3.842 9.274zM45.726 42l2.6 2.6a3.68 3.68 0 1 0 0-5.199z"/><path d="M51.967 32.135a.87.87 0 0 1-.597-.235 13.777 13.777 0 0 0-18.742 0 .88.88 0 0 1-1.447-.324.88.88 0 0 1 .25-.964 15.536 15.536 0 0 1 21.135 0 .88.88 0 0 1-.599 1.523M42 57.537a15.48 15.48 0 0 1-10.567-4.148.88.88 0 0 1 1.195-1.287 13.78 13.78 0 0 0 18.743 0 .88.88 0 0 1 1.196 1.288 15.48 15.48 0 0 1-10.568 4.147"/></g></svg>