<svg xmlns="http://www.w3.org/2000/svg" width="84" height="84"><path fill="none" d="M0 0h84v84H0z"/><path d="M41.006 22h6.5v30.08a43 43 0 0 1-8.442.887c-7.93 0-12.065-3.583-12.065-10.466 0-6.624 4.385-10.926 11.178-10.926a10.4 10.4 0 0 1 2.827.337Zm0 15.144a6.5 6.5 0 0 0-2.193-.343c-3.293 0-5.188 2.024-5.188 5.577 0 3.46 1.811 5.357 5.149 5.357a15 15 0 0 0 2.232-.168V37.139Zm16.839-5.111V47.1c0 5.188-.375 7.685-1.514 9.833-1.055 2.067-2.452 3.375-5.313 4.811l-6.035-2.873c2.865-1.353 4.263-2.529 5.149-4.347.925-1.857 1.222-4.01 1.222-9.664V32.033Zm-6.494-10h6.494V28.7H51.35Z"/></svg>