<svg xmlns="http://www.w3.org/2000/svg" width="84" height="84"><path fill="none" d="M0 0h84v84H0z"/><path d="M48.6 34.785V22.172A20.5 20.5 0 0 0 41.69 21H21v27.6h13.8V34.78Z"/><path fill="#fff" d="M48.605 34.785h-13.82v13.8h6.91a6.936 6.936 0 0 0 6.91-6.91z"/><path fill="#343434" d="M48.6 22.172v12.613h12.617A20.9 20.9 0 0 0 48.6 22.172M21 62.389h13.8v-13.8H21Z"/><path d="M61.218 34.785H48.605v6.91a6.936 6.936 0 0 1-6.91 6.91h-6.91v13.8h6.91a20.66 20.66 0 0 0 20.69-20.693 21 21 0 0 0-1.167-6.927"/></svg>