<svg xmlns="http://www.w3.org/2000/svg" width="84" height="84"><path fill="none" d="M0 0h84v84H0z"/><path d="M27.228 32.083q.119-.057.242-.1-.12.045-.242.1M15.465 53.775h3.075c.01 0 .021.011.033.01 4.6-.236 6.729-2.614 7.8-6.041.833-2.659 1.516-4.9 2.115-6.775l.021-.068a49 49 0 0 1 4.283-5.2h.031c2.059 6.3 2.854 17.534 8.877 17.534a7 7 0 0 0 .743-.02 7 7 0 0 1-.727.058H46.5a4.8 4.8 0 0 1-.969-.114 5 5 0 0 1-.57-.164 5 5 0 0 0 .572.149 4.8 4.8 0 0 0 .967.093 7.3 7.3 0 0 0 2.274-.278 7.3 7.3 0 0 1-2.274.313h4.8v-.01l1.765-.018a2 2 0 0 1-.64-.108s.006-.006.008-.01a2.2 2.2 0 0 0 .628.072c4.647 0 9.332-8.344 17.084-22.2h-3.038v.124h-.567c-2.858 5.074-4.855 9.409-6.549 12.874 1.7-3.469 3.691-7.8 6.547-12.874H61.89c-.155 0-.3-.021-.452-.011v-.01c-4.488.271-6.588 2.549-7.644 5.93-1.849 5.909-2.968 9.734-4.045 12.176v.008-.006a20 20 0 0 1-1.512 1.325q-.394.313-.791.592a9 9 0 0 0 .685.739 5.2 5.2 0 0 0 1.164.87 5.3 5.3 0 0 1-1.166-.87 9 9 0 0 1-.685-.739q.396-.28.789-.594c-1.448-3.208-2.29-8.659-3.85-12.9 1.56 4.242 2.4 9.7 3.85 12.9q.754-.6 1.51-1.325c-2.092-6.269-2.842-17.666-8.906-17.666a7.3 7.3 0 0 0-1.288.118 7 7 0 0 1 1.288-.12l-2.384-.033c.379 0 .737.106 1.077.106-.34 0-.7-.106-1.075-.106-.033 0-.066-.008-.1-.006.033 0 .066-.011.1-.011h-9.599c-.054 0-.108-.008-.164-.008-5.233.003-12.444 9.785-15.692 22.286h2.462Zm45.76-22.235a6.93 6.93 0 0 0-3.562 2.469 6.9 6.9 0 0 1 3.562-2.469m-7.333 21.011-.044.023-.066.033q.057-.03.114-.056Zm-.636.282a.1.1 0 0 1 .031-.011l-.029.011q-.032.013-.064.023zm-.558.193.1-.031a.3.3 0 0 1 .052-.018q.032-.01.058-.021c.026-.011.043-.011.06-.02s.033-.011.05-.02q.06-.021.124-.042a.02.02 0 0 0 .015-.006l-.014.006-.122.042c-.017.008-.035.011-.05.018l-.06.02c-.017.008-.039.011-.06.021s-.035.01-.052.018q-.055.015-.1.031h-.008.006ZM27.469 31.992v-.013s.012.015.014.015a.9.9 0 0 0-.3.114q.024-.014.048-.023-.122.052-.244.11-.065.03-.13.064Zm.942-.333c-.014.008-.023.037-.035.037a8 8 0 0 0-.255.068c-.01 0-.017.008-.029.01s-.046.013-.072.021a1 1 0 0 1 .072-.025c.012 0 .021-.01.029-.01l.255-.068c.012 0 .021-.035.035-.035s.046-.039.072-.04c-.025 0-.048.04-.072.044Zm.112-.011a.2.2 0 0 1-.037.02.2.2 0 0 1 .037-.025c.025-.008.048-.027.075-.027-.027 0-.05.029-.075.033Zm.934-.031a1 1 0 0 0-.135 0 1 1 0 0 1 .135 0h.015s-.006.006-.012.006Zm.12-.06c-.112 0-.222.023-.336.031.015 0 .031.02.046.023-.029 0-.058-.021-.087-.023l.041-.01h-.015a.1.1 0 0 0-.023-.011v.01c-.124.008-.116.01-.17.015l-.008-.01c-.015 0-.027.008-.041.008a.3.3 0 0 1-.07.01.1.1 0 0 0-.041.008 1 1 0 0 1-.072.015h-.006.005a.3.3 0 0 0 .072-.018c.014 0 .027-.01.041-.01a.4.4 0 0 0 .07-.011.1.1 0 0 0 .039-.008q.07-.009.139-.013h.027q.195-.016.389-.015Zm.311.135a3 3 0 0 0-.265-.056l-.023-.006h.021q.134.025.265.058h.008Zm1.893 1.512a4.4 4.4 0 0 0-.9-1.129l.014.008a4.6 4.6 0 0 1 .891 1.122Zm5.28-1.533a7.4 7.4 0 0 1 1.039-.121 7.5 7.5 0 0 0-1.044.126Zm-3.404 3.293c0-.006-.006-.01-.008-.015zm4.457-2.9a11 11 0 0 0-1.651.789 11 11 0 0 1 1.651-.789 9 9 0 0 1 1.122-.333 8.4 8.4 0 0 0-1.122.335Zm5.597 20.906q.34-.09.681-.211-.342.119-.68.211Zm5.863-.381-.041.021.043-.023Zm1.21.625a4.1 4.1 0 0 1-1.495-.472 4.1 4.1 0 0 0 1.495.472zm-.039-1.642v-.01a4.3 4.3 0 0 0 1.024 1.23 4.1 4.1 0 0 1-1.021-1.224Zm.862 1.663a.1.1 0 0 1-.044.008.1.1 0 0 0 .044-.008.4.4 0 0 0 .089-.008.4.4 0 0 1-.087.008Zm.365-.04c-.033.006-.068.008-.1.015-.01 0-.019.008-.029.008h-.008a1 1 0 0 1-.095.01c.031 0 .064-.008.095-.01h.008c.01 0 .019-.008.029-.008a1 1 0 0 1 .1-.015"/></svg>