<svg xmlns="http://www.w3.org/2000/svg" width="84" height="84"><path fill="none" d="M0 0h84v84H0z"/><path d="M38.798 17.45s.021 2.081 0 2.777a9.7 9.7 0 0 1-.771 3.769 4.97 4.97 0 0 1-2.531 2.789c-9.157 2.782-14.844 10.003-14.844 18.847A21.16 21.16 0 0 0 42 66.55a21.16 21.16 0 0 0 21.352-20.918c0-9.557-6.8-17.387-16.924-19.505h-.029c-.555-.15-1.86-.246-5.462-5.47-.551-.797-2.139-3.207-2.139-3.207m-1.5 23.483c3.152 0 5.712 1.651 7.768 2.977 1.222.788 2.352 1.53 3.077 1.509.813 0 2.4-1.026 3.678-1.847 1.68-1.084 3.269-2.106 4.587-2.106 2.581 0 3.736 2.2 3.736 4.374a10.04 10.04 0 0 1-1.718 5.454c-1.142 1.489-1.964 2.381-3.807 2.231-1.076-.079-2.147-1.084-3.5-2.352-.934-.876-2.347-2.2-2.985-2.235-.675-.038-1.73.625-2.952 1.388a19.7 19.7 0 0 1-8.848 3.411 9 9 0 0 1-.763.033 7.7 7.7 0 0 1-4.09-1.063 5.11 5.11 0 0 1-2.289-4.732c-.001-4.015 3.489-7.042 8.109-7.042Zm0 2.135c-3.407 0-5.975 2.11-5.975 4.908 0 1.547.338 2.289 1.338 2.956a6.04 6.04 0 0 0 3.469.68 17.5 17.5 0 0 0 7.922-3.095 18 18 0 0 1 2.4-1.343 18 18 0 0 1-2.548-1.472c-1.912-1.233-4.076-2.634-6.603-2.634Zm19.109.534c-.688 0-2.21.98-3.436 1.768a19.4 19.4 0 0 1-3.336 1.872 16 16 0 0 1 2.935 2.368 10.1 10.1 0 0 0 2.218 1.785c.68.063.9-.05 1.947-1.4a7.9 7.9 0 0 0 1.272-4.153c.004-.673-.155-2.241-1.597-2.241Zm-8.427 9.073a4.755 4.755 0 0 1 4.553 2.819 1.067 1.067 0 0 1-.613 1.38 1 1 0 0 1-.384.071 1.07 1.07 0 0 1-1-.684 2.63 2.63 0 0 0-2.56-1.451 2.9 2.9 0 0 0-2.844 1.484 1.07 1.07 0 0 1-1.38.556 1.053 1.053 0 0 1-.579-1.372 5 5 0 0 1 4.81-2.804Zm2.355 5.375a1.069 1.069 0 0 1 .8 1.935 9.87 9.87 0 0 1-5.8 1.926 11 11 0 0 1-1.122-.063 8.4 8.4 0 0 1-5.078-1.964 1.067 1.067 0 0 1 1.493-1.526 6.54 6.54 0 0 0 3.824 1.371 7.73 7.73 0 0 0 5.491-1.514 1.1 1.1 0 0 1 .392-.165"/></svg>