<svg xmlns="http://www.w3.org/2000/svg" width="84" height="84" fill="none"><mask id="a" width="60" height="48" x="12" y="18" maskUnits="userSpaceOnUse" style="mask-type:luminance"><path fill="#fff" d="M71.793 18H12.207v48h59.586z"/></mask><g fill="#000" mask="url(#a)"><path d="m51.834 31.24 5.18-5.186.345-2.183c-9.439-8.592-24.443-7.618-32.951 2.033-2.364 2.68-4.117 6.022-5.052 9.472l1.855-.261 10.359-1.71.8-.82c4.608-5.065 12.399-5.747 17.72-1.437z"/><path d="M64.392 35.224A23.36 23.36 0 0 0 57.36 23.87l-7.27 7.277a12.94 12.94 0 0 1 4.744 10.261v1.292c3.573 0 6.47 2.9 6.47 6.477s-2.897 6.404-6.47 6.404H41.875l-1.273 1.383v7.768l1.273 1.22h12.958c9.294.072 16.887-7.34 16.96-16.643a16.85 16.85 0 0 0-7.4-14.086"/><path d="M28.935 65.952h12.94v-10.37h-12.94A6.34 6.34 0 0 1 26.282 55l-1.836.564-5.216 5.185-.454 1.765c2.925 2.21 6.494 3.454 10.16 3.438"/><path d="M28.935 32.313c-9.294.055-16.783 7.643-16.728 16.947a16.85 16.85 0 0 0 6.57 13.254L26.281 55a6.48 6.48 0 0 1-3.232-8.57 6.467 6.467 0 0 1 11.792 0l7.506-7.513a16.8 16.8 0 0 0-13.413-6.604"/></g></svg>