<svg xmlns="http://www.w3.org/2000/svg" width="84" height="84"><path fill="none" d="M0 0h84v84H0z"/><path d="M47.971 57.864H23.309v-35.37h24.655v2.646h3.314v-3.369A5.79 5.79 0 0 0 45.504 16H25.778a5.79 5.79 0 0 0-5.774 5.771v41.383a5.79 5.79 0 0 0 5.774 5.773h19.726a5.794 5.794 0 0 0 5.774-5.773V57.8h-3.307Zm-12.336 8.174a2.645 2.645 0 1 1 2.648-2.644 2.64 2.64 0 0 1-2.648 2.644"/><path d="M26.135 26.044h7.398v4.511h-7.398zM26.135 37.593h7.398v4.511h-7.398zM26.135 49.681h7.398v4.508h-7.398zM59.786 39.576a10 10 0 0 0-1.54-3.739l2.653-2.655-2.71-2.7-2.648 2.651a9.95 9.95 0 0 0-3.736-1.54v-3.759h-3.834v3.759a10.1 10.1 0 0 0-3.738 1.54l-2.644-2.651-2.71 2.7 2.648 2.655a10 10 0 0 0-1.535 3.736h-3.754v3.832h3.754a10.1 10.1 0 0 0 1.538 3.736l-2.651 2.651 2.71 2.7 2.651-2.648a10 10 0 0 0 3.738 1.544v3.752h3.834v-3.754a10.05 10.05 0 0 0 3.736-1.54l2.648 2.648 2.71-2.7-2.653-2.651a10.05 10.05 0 0 0 1.54-3.738h3.757v-3.829Zm-9.894 6.085a4.175 4.175 0 1 1 4.17-4.17 4.17 4.17 0 0 1-4.167 4.169Z"/></svg>