<svg xmlns="http://www.w3.org/2000/svg" width="84" height="84"><path fill="none" d="M0 0h84v84H0z"/><path d="M30.826 18A12.836 12.836 0 0 0 18 30.826V52.2a12.836 12.836 0 0 0 12.826 12.829H52.2A12.836 12.836 0 0 0 65.029 52.2V30.826A12.836 12.836 0 0 0 52.2 18Zm-3.613 16.108a1.237 1.237 0 1 1-1.313 1.24 1.244 1.244 0 0 1 1.313-1.24m11.137.61c3.9 0 6.307 2.724 6.307 7.1s-2.384 7.108-6.307 7.108c-3.944 0-6.338-2.737-6.338-7.108s2.447-7.101 6.338-7.101Zm13.822 0c2.747 0 4.755 1.6 4.883 3.889H55c-.2-1.251-1.282-2.029-2.864-2.029-1.667 0-2.768.789-2.768 2.019 0 .962.706 1.518 2.48 1.935l1.486.363c2.79.652 3.933 1.775 3.933 3.816 0 2.6-2.01 4.221-5.227 4.221-3 0-5.023-1.549-5.173-3.975h2.085c.182 1.283 1.442 2.1 3.248 2.1 1.689 0 2.929-.876 2.929-2.084 0-1.026-.78-1.645-2.576-2.073l-1.753-.412c-2.448-.577-3.57-1.763-3.57-3.751.003-2.417 1.981-4.02 4.942-4.02ZM38.35 36.674c-2.555 0-4.177 2-4.177 5.14s1.569 5.152 4.177 5.152c2.576 0 4.158-2.02 4.158-5.152s-1.582-5.14-4.158-5.14m-12.141 1.7h2.01V48.6h-2.01Z"/></svg>