<svg xmlns="http://www.w3.org/2000/svg" width="84" height="84"><path d="M66 52.221a5.89 5.89 0 0 0-5.558 3.916h-4.674A1.13 1.13 0 0 1 54.631 55V43.255h2.4a11.116 11.116 0 0 0 0-22.232 14.7 14.7 0 0 0-2.4.253 15.126 15.126 0 0 0-28.169 3.221 7 7 0 0 0-1.2-.126 9.41 9.41 0 0 0 0 18.821h4.105v11.873a1.13 1.13 0 0 1-1.137 1.137h-4.674a5.972 5.972 0 1 0-5.558 8.083 5.89 5.89 0 0 0 5.558-3.916h4.674a5.23 5.23 0 0 0 5.242-5.242V43.255h6.442v15.789a5.972 5.972 0 1 0 8.083 5.558 5.89 5.89 0 0 0-3.916-5.558V43.255h6.442v11.81a5.23 5.23 0 0 0 5.242 5.242h4.674a5.972 5.972 0 1 0 5.557-8.085ZM42 37.947a2.147 2.147 0 1 1 2.147-2.147A2.13 2.13 0 0 1 42 37.947m5.621-5.937a1.22 1.22 0 0 1-1.768 0 5.45 5.45 0 0 0-7.642 0 1.3 1.3 0 0 1-1.832-1.832 8.164 8.164 0 0 1 11.305 0 1.36 1.36 0 0 1-.063 1.832m4.106-4.106a1.22 1.22 0 0 1-1.768 0 11.23 11.23 0 0 0-7.958-3.284 11.07 11.07 0 0 0-7.958 3.284 1.3 1.3 0 0 1-1.832-1.832 13.72 13.72 0 0 1 19.452 0 1.244 1.244 0 0 1 .064 1.832"/><path fill="none" d="M0 0h84v84H0z"/></svg>