<svg xmlns="http://www.w3.org/2000/svg" width="84" height="84"><path fill="none" d="M0 0h84v84H0z"/><path d="M44.813 17c2.75 6.363-9.859 10.293-11.031 15.594-1.074 4.871 7.492 10.531 7.5 10.531a38 38 0 0 1-3.562-6.812C35.512 31.008 51.16 26.207 44.813 17m8.375 8.813s-11.063.71-11.625 7.781c-.25 3.148 2.91 4.8 3 7.094.074 1.871-1.875 3.438-1.875 3.438s3.547-.676 4.656-3.531c1.23-3.168-2.4-5.309-2.031-7.844.351-2.427 7.875-6.938 7.875-6.938M35.813 42.156s-10.125-.144-10.125 2.719c0 2.992 13.254 3.215 22.719 1.375 0 0 2.516-1.73 3.188-2.375-6.2 1.266-20.344 1.406-20.344.313-.001-1.008 4.562-2.032 4.562-2.032m19.469 0a6.1 6.1 0 0 0-3.031 1.156c2.281-.492 4.219.922 4.219 2.531 0 3.625-5.25 7.031-5.25 7.031s8.125-.922 8.125-6.875a3.573 3.573 0 0 0-4.064-3.843Zm-21.907 5.563c-1.555 0-3.875 1.219-3.875 2.375 0 2.324 11.688 4.113 20.344.719l-3-1.844c-5.867 1.879-16.672 1.265-13.469-1.25m1.438 5.219c-2.129 0-3.531 1.285-3.531 2.25 0 2.984 12.715 3.285 17.75.25l-3.188-2.031c-3.762 1.593-13.203 1.831-11.031-.469m-7.094 2.688C24.25 55.556 22 57.114 22 58.407c0 6.875 35.5 6.559 35.5-.469 0-1.168-1.348-1.734-1.844-2 2.9 6.719-29.063 6.184-29.063 2.219 0-.9 2.352-1.766 4.531-1.344l-1.843-1.063a12 12 0 0 0-1.562-.125ZM61.25 60.25c-5.4 5.117-19.078 6.973-32.844 3.813C42.168 69.7 61.184 66.535 61.25 60.25"/></svg>