<svg xmlns="http://www.w3.org/2000/svg" width="84" height="84" fill="none"><path fill="#000" d="M45.18 11.01c-9.221.198-14.493 4.307-14.79 4.54-.234.077-6.324 2.145-7.56 7.539-.19.077-.243.069-.521.232a5.75 5.75 0 0 0-1.819 1.913c-1.078 1.818-1.53 4.937-.356 9.788-1.636 1.249-2.523 3.205-2.54 5.273-.018 2.403.809 4.92 2.47 6.677 1.488 1.576 2.932 2.257 4.046 2.49.435.094.452.008.774 0 .2 1.034.957 4.023 2.584 7.125-.94.525-3.628 2.016-6.795 3.834a245 245 0 0 0-4.872 2.86c-.66.414-1.209.767-1.626 1.051a8 8 0 0 0-.531.397 2 2 0 0 0-.235.215c-.087.104-.261.164-.322.69l-.087.844L15.645 73h52.79l.244-.775s.608-1.913 1.191-4.076a62 62 0 0 0 .8-3.222c.21-1.017.366-1.835.323-2.585-.035-.43-.174-.586-.279-.75a5 5 0 0 0-.356-.447 13 13 0 0 0-.966-.94 60 60 0 0 0-2.688-2.24c-1.557-1.232-2.55-1.955-3.097-2.369.47-.577 1.479-1.62 2.766-4.85 1.575-3.93 2.975-9.9 2.393-18.077-.557-7.736-3.254-13.121-7.23-16.568-3.219-2.774-7.203-4.239-11.431-4.807v-.018c-.035 0-.061.01-.096 0-.966-.12-1.94-.215-2.932-.258a35 35 0 0 0-1.896-.009m2.428 2.472a21 21 0 0 1 2.218 0c3.88.526 7.438 1.853 10.249 4.29 1.54 1.336 2.87 3.025 3.932 5.11a5.9 5.9 0 0 0-2.384-.405c-1.888.103-3.271.99-3.271.99l1.192 1.87s.966-.594 2.192-.654c1.2-.06 2.567.25 3.88 2.481.444 1.68.766 3.524.922 5.6-.07-.12-.121-.224-.208-.362a80 80 0 0 0-.905-1.602c-.661-1.12-1.305-2.197-1.305-2.197l-1.914 1.12s.635 1.068 1.279 2.18c.33.551.652 1.12.896 1.56.078.128.122.215.174.318-.096.052-.14.086-.348.13-.679.146-1.81.128-2.897-.19l-.618 2.128c1.427.405 2.828.465 3.976.215.583-.12 1.105-.301 1.566-.69.148-.12.278-.3.4-.49.209 6.78-1.01 11.743-2.323 15.051-1.453 3.636-2.958 5.222-2.958 5.222l-.835.904v.009c-1.218 1.18-3.984 3.265-8.665 3.601-6.507.474-10.961-3.558-13.11-5.824-2.053-2.154-2.34-3.8-2.34-3.8l-2.193.423s.513 2.37 2.914 4.894a24.8 24.8 0 0 0 4.333 3.644c-.14.009-.287-.009-.435.017-.87.147-1.731.543-2.332 1.275-3.158-.18-5.376-1.085-6.785-1.99-1.514-.982-2.088-1.827-2.106-1.852-1.487-2.395-2.366-5.756-2.723-7.341.6-.301 1.349-.844 2.123-1.783l-1.731-1.396c-.61.732-1.114 1.068-1.436 1.232l-.017.008-.557.173s-.217.095-.879-.043c-.66-.138-1.67-.552-2.888-1.844-1.174-1.24-1.888-3.291-1.87-5.144.017-1.86.696-3.36 1.966-3.997l.035-.026c1.505-.827 2.505-.94 3.184-.801.678.137 1.148.525 1.548 1.085.81 1.129 1.044 2.826 1.044 2.826l.157 1.37 4.515-1.542-.113-.888s-.209-1.525-.87-3.394c-.409-1.129-.226-2.594.209-4.11.426-1.516 1.061-3.016 1.322-4.385.279-1.448-.078-2.482-.478-3.188.8-1.603 5.063-9.21 15.268-9.788m-9.744.87c-3.767 2.378-6.02 5.454-7.108 7.229l-.304.034c-2.062.19-3.846.517-5.185.802 1.548-3.266 5.95-4.834 5.95-4.834l.2-.069.157-.129s2.192-1.792 6.29-3.033m5.15 8.625c-2.331.12-3.923 1.266-4.776 2.55-1.148 1.714-1.21 3.576-1.21 3.576l2.22.12s.095-1.361.843-2.481 1.897-2.094 4.985-1.379l.513-2.145a9.2 9.2 0 0 0-2.575-.241m-12.928.93c.453.5.81.758.548 2.137-.182.965-.817 2.516-1.296 4.213-.47 1.689-.809 3.593-.156 5.428.417 1.172.452 1.611.539 2.094l-.383.129c-.139-.758-.113-1.422-.957-2.602-.635-.879-1.6-1.706-2.94-1.973-.992-.198-2.123-.069-3.393.422-.879-4.067-.313-6.264.365-7.4.366-.63.783-.974 1.088-1.164.304-.19.426-.215.426-.215h.017s3.045-.707 6.142-1.069m17.818 5.04-2.054.853s1.514 3.55 2.515 5.3c-.07.042-.079.068-.314.12-.748.163-2.175.086-3.793-.612l-.896 2.025c1.984.853 3.785 1.042 5.16.74.687-.146 1.313-.396 1.765-.964.461-.569.505-1.534.113-2.171-.696-1.146-2.496-5.29-2.496-5.29m8.621 1.319-2.227.026s.06 5.246 4.306 9.055h-.008c1.783 1.602 2.531 2.645 2.653 3.015.06.19.043.173.009.241-.026.07-.157.242-.418.483-.33.293-1.636.94-3.045 1.361s-2.993.698-3.993.672c-.374-.017-.426-.086-.487-.146-.07-.07-.14-.216-.174-.448-.07-.457.06-1.043.06-1.043l-2.166-.542s-.252.887-.095 1.912c.078.517.27 1.112.74 1.62.478.508 1.235.827 2.061.853 1.427.034 3.123-.293 4.698-.767s2.967-1.008 3.889-1.835c.365-.327.73-.698.965-1.224.235-.525.27-1.206.079-1.817-.4-1.207-1.41-2.284-3.28-3.972-3.497-3.136-3.567-7.444-3.567-7.444M23.492 37.52c-.713.043-1.462.362-2.14.913l1.253 1.491c-.305.905-.61 2.232-.357 3.601l2.192-.396c-.122-.655.061-1.542.261-2.283.279.56.496 1.111.496 1.111l2.149-.56s-.322-1.344-1.192-2.481c-.444-.569-1.061-1.155-1.966-1.344-.226-.052-.461-.07-.696-.052m39.192 8.495c-1.696 1.904-4.802 2.163-4.802 2.163l.13 2.206s3.88-.13 6.343-2.921zm-14.946.784-1.41 1.706c4.725 3.8 10.432 2.171 10.432 2.171l-.618-2.11s-4.602 1.283-8.404-1.767m-.617 3.533-2.15.603c.436 1.534 1.514 2.628 2.741 3.308 1.218.681 2.601 1 3.906 1.172 2.61.336 4.977.017 4.977.017l-.288-2.188s-2.148.276-4.393-.017c-1.13-.138-2.262-.431-3.123-.905-.853-.482-1.418-1.068-1.67-1.99m15.18 7.056c.557.422 1.506 1.112 3.01 2.3.949.75 1.897 1.526 2.585 2.146.348.319.635.594.8.784l.044.043c-.01.284-.07.948-.253 1.81-.2.947-.487 2.058-.765 3.11-.47 1.697-.775 2.68-.94 3.213h-2.619l-.078-.629c-.096-.844-.557-1.36-1.026-1.714.087-.164.2-.319.252-.483.235-.68.304-1.395.304-2.093.018-1.405-.235-2.818-.33-3.593-.148-1.267-.635-2.352-1.453-3.093a3.8 3.8 0 0 0-.957-.595c.591-.439 1.079-.861 1.427-1.206m-33.92 1.215c.34.775.931 1.956 2.453 3.912 2.14 2.757 5.673 3.722 7.335 4.032.095 1.025.217 2.007.487 2.895.139.474.339.93.609 1.352H17.14l-1.844-4.549c.06-.043.078-.06.148-.103.348-.241.887-.586 1.54-.974a188 188 0 0 1 4.802-2.834c3.062-1.758 5.49-3.11 6.594-3.731m30.763 1.93c.53-.103.87.009 1.192.301.321.285.635.836.739 1.706.104.897.322 2.197.313 3.326 0 .56-.07 1.069-.174 1.387-.113.328-.226.431-.348.491-.887.448-2.514.354-3.897.018a16 16 0 0 1-1.619-.5c.131-.345.218-.715.218-1.103 0-.982-.461-1.852-1.166-2.455.748-.586 1.566-1.233 2.419-1.827.54-.37 1.052-.715 1.479-.956.435-.242.809-.38.844-.388m-26.665.44a16.3 16.3 0 0 0 5.411 1.49c-.026.362-.026.74.017 1.146.027.19.035.37.053.568-1.54-.405-4.002-1.249-5.368-3.007-.096-.12-.026-.077-.113-.198m9.804.206c.992.07 2.236.414 3.237.905l4.132 2.136a3.18 3.18 0 0 0-.678 1.94c0 .585.174 1.128.452 1.61-1.462.827-4.289 2.266-6.62 2.439-.766.051-1.131-.087-1.384-.276-.243-.19-.46-.526-.635-1.12-.357-1.19-.4-3.214-.661-5.463-.113-.896.052-1.361.244-1.628.2-.267.495-.44 1.009-.517.26-.043.565-.052.904-.026m11.162.483c-.348.267-.783.577-1.061.792.104-.077-.287.086-.679.078-.322 0-.496-.026-.583-.043l-1.183-.612c.67.043 1.357.043 2.07-.009.514-.034.958-.129 1.436-.206m-1.174 3.446c.6 0 1.07.457 1.07 1.051 0 .595-.47 1.051-1.07 1.051s-1.07-.456-1.07-1.05.47-1.052 1.07-1.052m1.853 4.006c.348.155.992.448 2.2.75v.93H52.48l-.731-1.43c.174.026.348.052.522.052.07 0 .13-.017.2-.017.357.112.696.19.966.112.417-.13.443-.224.687-.397m7.195.819v.034s.53.224.556.448l.044.38h-3.367v-.552c.913.069 1.862.009 2.767-.31m-11.65.258.314.603h-1.497c.427-.206.836-.413 1.184-.603"/></svg>