<svg xmlns="http://www.w3.org/2000/svg" width="84" height="84"><path fill="none" d="M0 0h84v84H0z"/><path d="m67.451 41.24-5.83-7.218c-.833-.972-1.11-.833-1.666-.694l-7.079 1.11c-.694.139-1.11.416-.694.972l5.136 7.218-15.407 3.747-12.214-20.4A1.474 1.474 0 0 0 28.031 25l-10.132.833c-.555 0-1.249.278-.694 1.8l10.549 22.625a2.14 2.14 0 0 0 2.637 1.249l10.549-2.776 5.691 9.994c.833 1.249 1.388.972 2.776.694l16.379-5.968c.694-.278 1.11-.416.694-1.11l-6.246-8.467 6.8-1.8c.694-.139.694-.555.278-.833Zm-27.9 5.691-9.161 2.221-.555-.139Q24.749 38.1 19.564 27.221l8.328-.833 11.659 20.4Zm24.29 4.58c.139.139.278.278-.139.416l-14.852 5c-.278.139-.555.139-.833-.278l-5-8.467 14.991-3.886c.416-.139.416-.139.694.139Zm.833-10.688-5.691 1.388-4.58-6.107c-.139-.139-.278-.278.139-.416l5.552-.972c.278 0 .555-.139.833.278l4.3 5.413c.144.278-.136.416-.556.416Z"/></svg>