<svg xmlns="http://www.w3.org/2000/svg" width="84" height="84"><path d="M19.243 46.168a1.035 1.035 0 0 0-1.034 1.035v7.244h2.069v-6.209h43.443v6.209h2.069v-7.244a1.035 1.035 0 0 0-1.034-1.035Z"/><path d="M40.965 39.961V54.45h2.07V39.961ZM63.721 58.58a1.03 1.03 0 0 0-.732.3l-1.767 1.767h-1.641a1.04 1.04 0 0 0-.926.572l-1.035 2.07a1.03 1.03 0 0 0 0 .926l.8 1.607-.8 1.607a1.03 1.03 0 0 0 0 .926l1.035 2.07a1.04 1.04 0 0 0 .926.572h1.641l1.767 1.767a1.03 1.03 0 0 0 .732.3h2.069a1.03 1.03 0 0 0 .732-.3l1.767-1.767h1.641a1.04 1.04 0 0 0 .925-.572l1.035-2.07a1.04 1.04 0 0 0 0-.926l-.8-1.607.8-1.607a1.04 1.04 0 0 0 0-.926l-1.035-2.07a1.04 1.04 0 0 0-.925-.572h-1.641l-1.767-1.767a1.03 1.03 0 0 0-.732-.3Zm1.035 5.172a2.068 2.068 0 1 1-1.464.606 2.07 2.07 0 0 1 1.464-.606M40.964 58.58a1.03 1.03 0 0 0-.732.3l-1.767 1.767h-1.641a1.04 1.04 0 0 0-.925.572l-1.035 2.07a1.04 1.04 0 0 0 0 .926l.8 1.607-.8 1.607a1.04 1.04 0 0 0 0 .926l1.035 2.07a1.04 1.04 0 0 0 .925.572h1.641l1.767 1.767a1.03 1.03 0 0 0 .732.3h2.069a1.04 1.04 0 0 0 .732-.3l1.767-1.767h1.641a1.04 1.04 0 0 0 .925-.572l1.035-2.07a1.03 1.03 0 0 0 0-.926l-.8-1.607.8-1.607a1.03 1.03 0 0 0 0-.926l-1.035-2.07a1.04 1.04 0 0 0-.925-.572h-1.641l-1.767-1.767a1.03 1.03 0 0 0-.732-.3Zm1.035 5.172a2.069 2.069 0 1 1-1.464.606 2.07 2.07 0 0 1 1.464-.606M18.209 58.58a1.03 1.03 0 0 0-.732.3l-1.767 1.767h-1.641a1.04 1.04 0 0 0-.925.572l-1.035 2.07a1.04 1.04 0 0 0 0 .926l.8 1.607-.8 1.607a1.04 1.04 0 0 0 0 .926l1.035 2.07a1.04 1.04 0 0 0 .925.572h1.641l1.767 1.767a1.03 1.03 0 0 0 .732.3h2.069a1.04 1.04 0 0 0 .732-.3l1.767-1.767h1.641a1.04 1.04 0 0 0 .925-.572l1.035-2.07a1.03 1.03 0 0 0 0-.926l-.8-1.607.8-1.607a1.03 1.03 0 0 0 0-.926l-1.035-2.07a1.04 1.04 0 0 0-.925-.572h-1.641L21.01 58.88a1.03 1.03 0 0 0-.732-.3Zm1.035 5.172a2.069 2.069 0 1 1-1.464.606 2.07 2.07 0 0 1 1.464-.606M26.493 15.14a1.04 1.04 0 0 0-.868.463l-1.631 2.462-2.351-.792a1.04 1.04 0 0 0-1.061.249l-2.07 2.066a1.04 1.04 0 0 0-.249 1.063l.792 2.347-2.454 1.627a1.03 1.03 0 0 0-.463.861v4.144a1.03 1.03 0 0 0 .463.863l2.444 1.621-.785 2.355a1.03 1.03 0 0 0 .25 1.059l2.07 2.068a1.04 1.04 0 0 0 1.059.249l2.355-.785 1.631 2.444a1.04 1.04 0 0 0 .857.461l4.139.012a1.04 1.04 0 0 0 .865-.463l1.631-2.45 2.353.792a1.03 1.03 0 0 0 1.061-.249l2.07-2.068a1.04 1.04 0 0 0 .251-1.059l-.785-2.355 2.444-1.621a1.03 1.03 0 0 0 .463-.863v-4.145a1.03 1.03 0 0 0-.463-.861l-2.454-1.627.792-2.345a1.03 1.03 0 0 0-.249-1.065l-2.065-2.068a1.03 1.03 0 0 0-1.059-.249l-2.353.782-1.633-2.454a1.04 1.04 0 0 0-.857-.461Zm2.066 6.209a6.209 6.209 0 1 1-6.209 6.209 6.225 6.225 0 0 1 6.209-6.209M51.302 11a1.03 1.03 0 0 0-.861.461l-1.763 2.644h-2.551a1.03 1.03 0 0 0-.861.461l-2.07 3.1a1.04 1.04 0 0 0 0 1.148l1.688 2.531-1.688 2.531a1.04 1.04 0 0 0 0 1.148l2.07 3.1a1.03 1.03 0 0 0 .861.461h2.551l1.762 2.644a1.03 1.03 0 0 0 .861.461h4.139a1.03 1.03 0 0 0 .861-.461l1.762-2.644h2.551a1.03 1.03 0 0 0 .861-.461l2.07-3.1a1.04 1.04 0 0 0 0-1.148l-1.687-2.531 1.688-2.531a1.04 1.04 0 0 0 0-1.148l-2.07-3.1a1.03 1.03 0 0 0-.861-.461h-2.551l-1.762-2.644a1.03 1.03 0 0 0-.861-.461Zm2.07 6.209a4.139 4.139 0 1 1-4.139 4.139 4.155 4.155 0 0 1 4.139-4.139"/><path fill="none" d="M0 0h84v84H0z"/></svg>