<svg xmlns="http://www.w3.org/2000/svg" width="84" height="84"><path fill="none" d="M0 0h84v84H0z"/><path d="M61.651 61.481a5.894 5.894 0 0 1-5.971-5.847 6.8 6.8 0 0 1 6.741-6.6 6.24 6.24 0 0 1 6.132 5.9 6.834 6.834 0 0 1-6.902 6.547M39.721 56.529a6.677 6.677 0 0 1 6.374-6.543 4.776 4.776 0 0 1 4.666 3.659 6.678 6.678 0 0 1-6.134 7.948 4.855 4.855 0 0 1-4.906-5.064M67.944 41.629a4.456 4.456 0 0 0-1.876-5.421c-2.38-1.592-6.125-.913-8.1 1.47a5.1 5.1 0 0 0-1.366 3.854c.29 2.777 2.524 4.493 5.515 4.293a6.69 6.69 0 0 0 5.827-4.196M46.137 46.913a4.075 4.075 0 0 1-4.139-5.172 6.48 6.48 0 0 1 6-4.923 4.142 4.142 0 0 1 4.243 5.2 6.46 6.46 0 0 1-6.104 4.895M27.345 56.813a6.53 6.53 0 0 1 4.083-5.488 4.006 4.006 0 0 1 5.741 4.175 6.55 6.55 0 0 1-3.8 5.6c-3.071 1.536-6.086-.408-6.024-4.287M64.198 23.008a3.92 3.92 0 0 1 2.221.658 3.716 3.716 0 0 1 1.361 5.108 6.65 6.65 0 0 1-7.081 3.257 3.824 3.824 0 0 1-2.451-6.065 6.59 6.59 0 0 1 5.95-2.958M16 56.933a6.26 6.26 0 0 1 3.6-4.79 3.373 3.373 0 0 1 5.158 3.233 6.55 6.55 0 0 1-3.6 5.641c-2.677 1.441-5.159-.077-5.158-4.084M47.514 34.042a3.482 3.482 0 0 1-3.511-4.622c.78-2.679 4.142-4.733 6.753-4.124a3.394 3.394 0 0 1 2.61 4.473 6.37 6.37 0 0 1-5.852 4.273M35.896 38.629a3.4 3.4 0 0 1 3.314 4.178 6.16 6.16 0 0 1-4.949 4.838 3.353 3.353 0 0 1-3.983-3.359 5.99 5.99 0 0 1 5.618-5.657M32.475 32.711c.1-3.049 3.735-5.972 6.62-5.318a3.08 3.08 0 0 1 2.441 2.754c.275 3.05-3.569 6.389-6.583 5.719a3.033 3.033 0 0 1-2.478-3.155M22.492 48.633a2.9 2.9 0 0 1-2.924-3.131 6.22 6.22 0 0 1 4.942-5.712 2.952 2.952 0 0 1 3.542 2.749c.283 2.865-2.671 6.104-5.56 6.094M22.689 34.485a5.69 5.69 0 0 1 4.915-5.046 2.575 2.575 0 0 1 2.815 3.129 5.91 5.91 0 0 1-4.765 4.554 2.513 2.513 0 0 1-2.965-2.637"/><path d="M61.651 61.481a5.894 5.894 0 0 1-5.971-5.847 6.8 6.8 0 0 1 6.741-6.6 6.24 6.24 0 0 1 6.132 5.9 6.834 6.834 0 0 1-6.902 6.547M39.721 56.529a6.677 6.677 0 0 1 6.374-6.543 4.776 4.776 0 0 1 4.666 3.659 6.678 6.678 0 0 1-6.134 7.948 4.855 4.855 0 0 1-4.906-5.064M67.944 41.629a4.456 4.456 0 0 0-1.876-5.421c-2.38-1.592-6.125-.913-8.1 1.47a5.1 5.1 0 0 0-1.366 3.854c.29 2.777 2.524 4.493 5.515 4.293a6.69 6.69 0 0 0 5.827-4.196M46.137 46.913a4.075 4.075 0 0 1-4.139-5.172 6.48 6.48 0 0 1 6-4.923 4.142 4.142 0 0 1 4.243 5.2 6.46 6.46 0 0 1-6.104 4.895M27.345 56.813a6.53 6.53 0 0 1 4.083-5.488 4.006 4.006 0 0 1 5.741 4.175 6.55 6.55 0 0 1-3.8 5.6c-3.071 1.536-6.086-.408-6.024-4.287M64.198 23.008a3.92 3.92 0 0 1 2.221.658 3.716 3.716 0 0 1 1.361 5.108 6.65 6.65 0 0 1-7.081 3.257 3.824 3.824 0 0 1-2.451-6.065 6.59 6.59 0 0 1 5.95-2.958M16 56.933a6.26 6.26 0 0 1 3.6-4.79 3.373 3.373 0 0 1 5.158 3.233 6.55 6.55 0 0 1-3.6 5.641c-2.677 1.441-5.159-.077-5.158-4.084M47.514 34.042a3.482 3.482 0 0 1-3.511-4.622c.78-2.679 4.142-4.733 6.753-4.124a3.394 3.394 0 0 1 2.61 4.473 6.37 6.37 0 0 1-5.852 4.273M35.896 38.629a3.4 3.4 0 0 1 3.314 4.178 6.16 6.16 0 0 1-4.949 4.838 3.353 3.353 0 0 1-3.983-3.359 5.99 5.99 0 0 1 5.618-5.657M32.475 32.711c.1-3.049 3.735-5.972 6.62-5.318a3.08 3.08 0 0 1 2.441 2.754c.275 3.05-3.569 6.389-6.583 5.719a3.033 3.033 0 0 1-2.478-3.155M22.492 48.633a2.9 2.9 0 0 1-2.924-3.131 6.22 6.22 0 0 1 4.942-5.712 2.952 2.952 0 0 1 3.542 2.749c.283 2.865-2.671 6.104-5.56 6.094M22.689 34.485a5.69 5.69 0 0 1 4.915-5.046 2.575 2.575 0 0 1 2.815 3.129 5.91 5.91 0 0 1-4.765 4.554 2.513 2.513 0 0 1-2.965-2.637"/></svg>