<svg xmlns="http://www.w3.org/2000/svg" width="84" height="84"><path fill="none" d="M0 0h84v84H0z"/><path d="m56.957 50.14 1.882-4.76h5.435l-2.579-7.221L64.921 30l9.24 24.533h-6.814l-1.579-4.394ZM51.139 54.534l9.9-24.535h-6.558l-6.767 15.854-4.815-15.854h-5.041l-5.166 15.854-3.643-7.224-3.3 10.158 3.348 5.746h6.454l4.669-14.218 4.451 14.218ZM15.225 46.112h4.039a12 12 0 0 0 3.269-.41l1.045-3.218 2.922-8.995a7 7 0 0 0-.762-1Q23.487 30 19.155 30H9v24.534h6.225Zm5.347-10.467a3.2 3.2 0 0 1 .878 2.365 3.45 3.45 0 0 1-.772 2.369 4.02 4.02 0 0 1-3.118.973h-2.335v-6.591h2.351a4.13 4.13 0 0 1 2.996.884"/></svg>