<svg xmlns="http://www.w3.org/2000/svg" width="84" height="84" fill="none"><path fill="#000" d="M34.834 41.204q.658-.118 1.327-.12h-.357H47.7c.516 0 1.01-.072 1.48-.202C51.398 40.268 53 38.3 53 35.88v-9.994c0-2.846-2.423-4.983-5.304-5.455-1.825-.3-4.498-.439-6.312-.43s-3.55.161-5.074.43c-4.492.782-5.31 2.426-5.31 5.455v3.282h11V31H27.427c-4.082 0-7.395 4.878-7.426 10.913L20 42c0 1.091.108 2.145.308 3.14.912 4.545 3.754 7.86 7.12 7.86h1.739v-5.264c0-3.073 2.308-5.927 5.667-6.532m1.168-13.985c-1.099 0-1.992-.892-1.992-1.994a2 2 0 0 1 1.992-2.008c1.097 0 1.994.9 1.994 2.008a1.995 1.995 0 0 1-1.994 1.994"/><path fill="#000" d="M63.536 38.166C62.486 33.982 59.764 31 56.573 31h-1.74v4.66c0 3.886-2.553 6.7-5.67 7.183q-.473.073-.951.073H36.31c-.505 0-1.007.065-1.495.192-2.191.575-3.816 2.398-3.816 4.763v9.994c0 2.846 2.862 4.518 5.67 5.334 3.36.978 7.02 1.154 11.042 0 2.67-.763 5.288-2.305 5.288-5.334v-3.032H42V53h14.573c2.892 0 5.397-2.448 6.624-6.021.514-1.495.803-3.187.803-4.979 0-1.348-.164-2.64-.464-3.834M47.943 56.531c1.099 0 1.992.892 1.992 1.994a2 2 0 0 1-1.992 2.008 2.005 2.005 0 0 1-1.994-2.008c0-1.103.895-1.994 1.994-1.994"/></svg>