<svg xmlns="http://www.w3.org/2000/svg" width="84" height="84"><path fill="none" d="M0 0h84v84H0z"/><path d="M24.7 63.618h21.19s-4.7-10.675-3.506-20.473 8.922-14.255 13.303-14.737a8.11 8.11 0 0 1 6.771 2.231l.957-1.433s-6.293-6.373-14.26-5.655-13.463 5.974-16.886 12.347-5.418 10.833-6.769 17.525-.8 10.2-.8 10.2Zm-4.22-10.675 4.141.32-.721 4.141-3.9-.479.478-3.982Zm6.532-8.763 1.116-3.106-3.665-1.433-1.194 3.349Zm5.178-10.674 2.151-2.549-2.788-1.832-2.229 2.465Zm5.655-9.877 1.912 2.31 2.629-1.514-1.911-2.151ZM47.165 21l.478 2.31 3.267-.08-.32-2.071zm11.073 2.468-.081 1.433 2.231 1.194.478-.718-2.627-1.91Zm-.478 6.135v1.194l2.151.239v-.956l-2.151-.478Zm-6.85 1.036 1.035 1.912 1.514-1.194-.318-1.274-2.229.559Zm-3.267 2.469 1.592 2.39-.955 1.673-2.31-2.549Zm-3.186 6.612-1.035 2.07 2.708 2.31.637-2.629-2.31-1.753Zm-1.116 7.249-.159 2.788 3.346 1.433-.159-2.629-3.027-1.594Zm.957 9.877.8 2.869 4.222.239-1.52-3.107h-3.5Z"/></svg>