<svg xmlns="http://www.w3.org/2000/svg" width="84" height="84"><path d="M27.424 49.983a16.7 16.7 0 0 0 2.483 3.421.64.64 0 0 1 .058.816l-.929 1.281a.64.64 0 0 0 .141.893l3.1 2.256a.64.64 0 0 0 .894-.142l.929-1.28a.64.64 0 0 1 .8-.2 16.4 16.4 0 0 0 4.019 1.309.64.64 0 0 1 .527.626v1.579a.64.64 0 0 0 .637.64h3.836a.64.64 0 0 0 .64-.64v-1.579a.64.64 0 0 1 .527-.626 16.4 16.4 0 0 0 4.019-1.309.64.64 0 0 1 .795.2l.929 1.28a.64.64 0 0 0 .893.142l3.1-2.256a.64.64 0 0 0 .141-.893l-.929-1.281a.64.64 0 0 1 .058-.816 16.7 16.7 0 0 0 2.484-3.421.64.64 0 0 1 .758-.309l1.5.488a.64.64 0 0 0 .806-.411l1.185-3.645a.64.64 0 0 0-.411-.806l-1.5-.488a.64.64 0 0 1-.434-.7 16.6 16.6 0 0 0 0-4.227.64.64 0 0 1 .434-.7l1.5-.488a.64.64 0 0 0 .411-.806l-1.185-3.645a.64.64 0 0 0-.806-.411l-1.5.483a.64.64 0 0 1-.758-.308 16.7 16.7 0 0 0-2.484-3.421.64.64 0 0 1-.058-.817l.929-1.281a.64.64 0 0 0-.141-.889l-3.1-2.256a.64.64 0 0 0-.893.142l-.929 1.28a.64.64 0 0 1-.795.192 16.5 16.5 0 0 0-4.019-1.31.64.64 0 0 1-.527-.625v-1.58a.64.64 0 0 0-.64-.64h-3.836a.64.64 0 0 0-.64.64v1.579a.64.64 0 0 1-.527.626 16.5 16.5 0 0 0-4.019 1.309.64.64 0 0 1-.795-.192l-.929-1.28a.64.64 0 0 0-.893-.142l-3.1 2.257a.64.64 0 0 0-.141.893l.929 1.281a.64.64 0 0 1-.059.816 16.7 16.7 0 0 0-2.483 3.421.64.64 0 0 1-.758.308l-1.5-.488a.64.64 0 0 0-.805.411l-1.185 3.645a.64.64 0 0 0 .411.806l1.5.488a.64.64 0 0 1 .434.7 16.6 16.6 0 0 0 0 4.227.64.64 0 0 1-.434.7l-1.5.488a.64.64 0 0 0-.411.806l1.185 3.645a.64.64 0 0 0 .805.41l1.5-.486a.64.64 0 0 1 .761.309Zm14.575-19.5a11.51 11.51 0 1 1-8.137 3.372 11.5 11.5 0 0 1 8.133-3.368ZM60.695 18.882h3.932a1.056 1.056 0 0 1 .983.983v3.932a.983.983 0 0 1-.983.983h-3.932a1.056 1.056 0 0 1-.983-.983v-3.932a.983.983 0 0 1 .983-.983M19.373 59.221h3.932a1.056 1.056 0 0 1 .983.983v3.932a.983.983 0 0 1-.983.983h-3.932a1.056 1.056 0 0 1-.983-.983v-3.932a.983.983 0 0 1 .983-.983"/><path d="M42.475 13.966a28.43 28.43 0 0 1 15.205 4.388l1.05-1.663a30.483 30.483 0 0 0-42.649 41.023l1.7-.983a28.518 28.518 0 0 1 24.7-42.765ZM66.22 27.271a28.515 28.515 0 0 1-39.9 38.375l-1.05 1.663a30.483 30.483 0 0 0 42.652-41.023Z"/><path d="M38.048 36.101v11.8l9.831-5.9Z"/><path fill="none" d="M0 0h84v84H0z"/></svg>