<svg xmlns="http://www.w3.org/2000/svg" width="84" height="84"><path d="m69.44 24.013.033-.009-31.636-9-12.141 3.063 31.331 9.626ZM58.003 63.522l14-4.144V25.162l-14 4.145Zm7.661-5.969a1.716 1.716 0 1 1 1.337-1.673 1.534 1.534 0 0 1-1.337 1.673m-5.61-23.378 10.284-2.776v4.479l-10.284 2.776Zm0 5.774 10.284-2.777v4.48l-10.284 2.776Zm0 5.773 10.284-2.777v4.479l-10.284 2.777ZM72.003 61.102l-14 4.145v4.452l14-4.146ZM23.141 19.291v14.884a17.33 17.33 0 0 1 19.962 17.071 17.2 17.2 0 0 1-5.611 12.724l18.646 5.715V29.404Z"/><path d="M25.845 37.352A13.844 13.844 0 1 0 39.69 51.197a13.845 13.845 0 0 0-13.845-13.845m8.19 15.371a1.11 1.11 0 0 1-1.112 1.112H18.767a1.11 1.11 0 0 1-1.113-1.112v-3.049a1.113 1.113 0 0 1 1.113-1.113h14.156a1.11 1.11 0 0 1 1.112 1.113Z"/><path fill="none" d="M0 0h84v84H0z"/></svg>