<svg xmlns="http://www.w3.org/2000/svg" width="84" height="84"><path fill="none" d="M0 0h84v84H0z"/><path d="M63.961 41.632a22.329 22.329 0 1 1-22.329-22.329 22.324 22.324 0 0 1 22.329 22.329M51.394 27.56a8 8 0 0 0-5.72 3.059 19.4 19.4 0 0 0-3.5 6.44c-1.4-1.14-2.472-2.631-4.717-3.278a5.8 5.8 0 0 0-5.24.96 4.7 4.7 0 0 0-1.6 2.333 5.3 5.3 0 0 0 1.338 4.84l1.368 1.469a2.07 2.07 0 0 1 .625 2.116 2.527 2.527 0 0 1-3.22 1.49c-.648-.2-1.578-.682-1.368-1.361a6 6 0 0 1 .392-.726 4 4 0 0 0 .174-.451 1.814 1.814 0 0 0-1.023-2.275 1.523 1.523 0 0 0-2.093 1.054c-.385 1.266.218 3.556 3.461 4.559 3.8 1.162 7.006-.9 7.463-3.6.285-1.686-.48-2.943-1.876-4.55l-1.14-1.266a2.07 2.07 0 0 1-.215-2.76 2.44 2.44 0 0 1 2.864-.7c2.056.56 2.966 1.976 4.492 3.125a61 61 0 0 0-1.418 6l-.225 1.389c-1.09 5.712-1.919 8.853-4.085 10.656a3.56 3.56 0 0 1-1.991.805c-.5.007-.663-.325-.663-.479-.015-.342.278-.5.473-.655a1.19 1.19 0 0 0 .691-1.257 1.9 1.9 0 0 0-2.036-1.809 2.355 2.355 0 0 0-2.187 2.391c.05 1.584 1.525 2.769 3.741 2.689 1.193-.038 3.839-.523 6.447-3.627 3.038-3.554 3.889-7.632 4.529-10.619l.713-3.934c.4.045.821.074 1.285.088 3.779.08 5.67-1.881 5.7-3.306a1.54 1.54 0 0 0-1.38-1.693 1.585 1.585 0 0 0-1.5 1.221c-.174.793 1.206 1.513.13 2.211a6 6 0 0 1-4.064.558l.35-1.941c.72-3.677 1.6-8.2 4.95-8.306.247-.015 1.14.006 1.156.6.007.2-.035.255-.268.7a1.587 1.587 0 0 0 1.468 2.522 1.935 1.935 0 0 0 1.758-2.086c-.057-1.629-1.774-2.646-4.042-2.579Z"/></svg>