<svg xmlns="http://www.w3.org/2000/svg" width="84" height="84" fill="none"><path fill="#000" d="M20 20v44h44V20zm25.544 23.222h-5.732V60.04h-3.666V43.222h-5.672v-3.104h15.07zm6.588 17.111c-1.869.037-3.719-.383-5.39-1.222l.807-3.007c1.479.801 3.134 1.221 4.815 1.223 2.323 0 3.667-1.088 3.667-2.714S55.03 52.17 52.5 51.301c-3.288-1.161-5.39-2.921-5.39-5.781 0-3.263 2.725-5.72 7.052-5.72a10.6 10.6 0 0 1 4.779.99l-.868 2.933a8.56 8.56 0 0 0-3.984-.953c-2.31 0-3.288 1.222-3.288 2.444 0 1.528 1.149 2.25 3.801 3.264 3.471 1.32 5.133 3.055 5.133 5.915-.048 3.178-2.468 5.94-7.602 5.94"/></svg>