<svg xmlns="http://www.w3.org/2000/svg" width="84" height="84"><path fill="none" d="M0 0h84v84H0z"/><path fill-rule="evenodd" d="M16.05 19h51.713a4.06 4.06 0 0 1 4.05 4.05v38.39a4.06 4.06 0 0 1-4.05 4.05H16.05A4.06 4.06 0 0 1 12 61.44V23.05A4.06 4.06 0 0 1 16.05 19m2.083 13.118h47.1v20h-47.1zm9.545 5.7h2.911v6.055a5.4 5.4 0 0 1-.263 1.7 3.75 3.75 0 0 1-.818 1.4 3.2 3.2 0 0 1-1.168.842 5.5 5.5 0 0 1-2.04.341 12 12 0 0 1-1.5-.1 3.7 3.7 0 0 1-1.363-.414 3.4 3.4 0 0 1-1-.876 3.3 3.3 0 0 1-.624-1.166 6.5 6.5 0 0 1-.273-1.718v-6.059h2.911v6.2a1.82 1.82 0 0 0 .428 1.295 1.53 1.53 0 0 0 1.188.467 1.54 1.54 0 0 0 1.178-.462 1.86 1.86 0 0 0 .428-1.3v-6.2Zm4.955 0h2.925v10.173h-2.924V37.823Zm6.425-.17h1.324L38 48.161h-1.322l2.38-10.509Zm8.387.17h2.911v6.055a5.4 5.4 0 0 1-.263 1.7 3.75 3.75 0 0 1-.818 1.4 3.2 3.2 0 0 1-1.168.842 5.5 5.5 0 0 1-2.04.341 12 12 0 0 1-1.5-.1 3.7 3.7 0 0 1-1.363-.414 3.4 3.4 0 0 1-1-.876 3.3 3.3 0 0 1-.624-1.166 6.5 6.5 0 0 1-.268-1.718v-6.059h2.911v6.2a1.82 1.82 0 0 0 .428 1.295 1.737 1.737 0 0 0 2.366 0 1.86 1.86 0 0 0 .428-1.3zm4.191 0h3.217l1.67 3.13 1.621-3.13h3.174l-2.93 4.926 3.212 5.247h-3.285l-1.85-3.266-1.865 3.266h-3.256l3.252-5.3-2.959-4.868Zm-7.087 21.914a1.71 1.71 0 0 1 0-3.407h19.3a1.71 1.71 0 0 1 0 3.407Zm-25.267 0a1.711 1.711 0 0 1 0-3.407h17.893a1.711 1.711 0 0 1 0 3.407Zm50.141-30.948H14.575v33.05a1.114 1.114 0 0 0 1.12 1.12h52.588a1.12 1.12 0 0 0 .793-.326 1.1 1.1 0 0 0 .326-.793V28.784ZM63.908 22a2 2 0 1 1-2 2 2 2 0 0 1 2-2m-13.552 0a2 2 0 1 1-2 2 2 2 0 0 1 2-2m6.776 0a2 2 0 1 1-2 2 2 2 0 0 1 2-2"/></svg>