<svg xmlns="http://www.w3.org/2000/svg" width="52.5" height="52.5"><path d="M13.125 30H1.875A1.875 1.875 0 0 0 0 31.875v18.75A1.875 1.875 0 0 0 1.875 52.5h11.25A1.875 1.875 0 0 0 15 50.625v-18.75A1.875 1.875 0 0 0 13.125 30M50.625 15h-11.25a1.875 1.875 0 0 0-1.875 1.875v33.75a1.875 1.875 0 0 0 1.875 1.875h11.25a1.875 1.875 0 0 0 1.875-1.875v-33.75A1.875 1.875 0 0 0 50.625 15M31.875 0h-11.25a1.875 1.875 0 0 0-1.875 1.875v48.75a1.875 1.875 0 0 0 1.875 1.875h11.25a1.875 1.875 0 0 0 1.875-1.875V1.875A1.875 1.875 0 0 0 31.875 0"/></svg>