<svg xmlns="http://www.w3.org/2000/svg" width="60" height="60"><defs><clipPath id="a"><path d="M0 0h60v60H0z"/></clipPath></defs><g clip-path="url(#a)"><path d="M48.258 25h3a1 1 0 0 0 1-1v-3a1 1 0 0 0-2 0v2h-2a1 1 0 0 0 0 2M24.732 21a4 4 0 1 0-4-4 4 4 0 0 0 4 4m0-6a2 2 0 1 1-2 2 2 2 0 0 1 2-2"/><path d="M2.888 20.668a2.985 2.985 0 0 0 4.19-1.68l7.864-.122L13.571 20a1 1 0 0 0-.231 1.272l1.868 3.228.041 4.5h-4.99a1 1 0 0 0-.173.035 3 3 0 1 0 0 1.93 1 1 0 0 0 .173.035h6a1 1 0 0 0 1-1.009l-.046-5.068 3.2-1.2q.326.211.661.386l.675 4.054a1 1 0 0 0 .987.835h.523v5h-3a1 1 0 0 0-1 1v14.588l-8.707 8.707A1 1 0 0 0 11.259 60h32a1 1 0 0 0 .707-1.707l-6.707-6.707v-5.309l2.241-3.729C43.275 44.827 45.558 46 46.258 46h6a1 1 0 0 0 1-1v-5.586l1.706-1.706a1 1 0 0 0 .294-.708v-3h1.462a2 2 0 0 0 1.828-2.812l-3.109-7a7.77 7.77 0 0 0 1.82-5.017 17.36 17.36 0 0 0-9.65-15.614L44.708 2.1a1 1 0 0 0-1.26.314L43.029 3h-6.771V1a1 1 0 0 0-1-1h-10a1 1 0 0 0-1 1v4h-1.525a1 1 0 0 0-.987.836l-.676 4.053a8 8 0 0 0-.661.386l-3.851-1.443a1 1 0 0 0-1.217.436l-1.008 1.747c-.026 0-.047-.015-.073-.015h-6V7.816a3 3 0 1 0-2 0V12a1 1 0 0 0 1 1h5.985a.99.99 0 0 0 .327 1l3.172 2.612q.001.11-.006.222l-9.662.149a3 3 0 1 0-4.186 3.685ZM7.259 31a1 1 0 1 1 1-1 1 1 0 0 1-1 1m0-27a1 1 0 1 1-1 1 1 1 0 0 1 1-1m18 25h1.474a1 1 0 0 0 .986-.835l.676-4.054q.334-.174.66-.386l3.853 1.443a1 1 0 0 0 1.217-.436l.423-.732h4.711a1 1 0 0 0 .217-.044l1.783 2.377V28h-4v2h2.307l-2.678 1.071a1 1 0 0 0-.629.929v2h-11Zm10.865-16.268L35.7 12h2.556v4H33.47l2.425-2a1 1 0 0 0 .229-1.268M38.258 18v4H35.7l.422-.732A1 1 0 0 0 35.894 20l-2.424-2Zm-6.706 24.707 3.707 3.707V47h-6V36h2v6a1 1 0 0 0 .293.707M25.213 56h.046v-.052l3.753-4.289a1 1 0 0 0 .246-.659v-2h2v9h-7.8Zm-11.54 2 7.293-7.293a1 1 0 0 0 .292-.707V36h6v14.624l-2 2.286V48h-2v7.2L20.8 58Zm27.172 0h-7.587v-9h2v3a1 1 0 0 0 .293.707Zm-4.787-13.612-2.8-2.8V36h3v4a1 1 0 0 0 .47.848c.373.234.71.44 1.062.657Zm8.517-40.112 2.138 1.07a15.37 15.37 0 0 1 8.545 13.825 5.8 5.8 0 0 1-1.707 4.122 1 1 0 0 0-.207 1.113L56.72 32h-2.462a1 1 0 0 0-1 1v3h-.172a5.79 5.79 0 0 1-4.121-1.707 1 1 0 0 0-1.414 1.414 7.75 7.75 0 0 0 4.386 2.2l-.386.386a1 1 0 0 0-.293.707v5l-4.905.006a53 53 0 0 1-6.675-3.69h-.006q-.708-.43-1.409-.865v-6.774l4.371-1.748a1 1 0 0 0 .624-.929v-4a1 1 0 0 0-.2-.6l-2.8-3.733V10.32ZM26.258 2h8v2a1 1 0 0 0 1 1H41.6l-3.155 4.419a1 1 0 0 0-.187.581h-3.71l-.423-.732a1 1 0 0 0-1.217-.436l-3.849 1.443a8 8 0 0 0-.66-.386l-.68-4.054A1 1 0 0 0 26.733 5h-.474ZM15.5 13l1.153-2 3.547 1.331a1 1 0 0 0 .949-.135 6 6 0 0 1 1.217-.71 1 1 0 0 0 .592-.755L23.579 7h2.306l.622 3.732a1 1 0 0 0 .592.755 6 6 0 0 1 1.217.71 1 1 0 0 0 .948.135L32.817 11l1.152 2-2.925 2.407a1 1 0 0 0-.357.891 5.4 5.4 0 0 1 0 1.406 1 1 0 0 0 .357.891L33.968 21l-1.152 2-3.552-1.331a1 1 0 0 0-.948.135 6 6 0 0 1-1.217.71 1 1 0 0 0-.592.755L25.885 27h-2.307l-.62-3.732a1 1 0 0 0-.592-.755 6 6 0 0 1-1.217-.71 1 1 0 0 0-.949-.135L16.648 23 15.5 21l2.925-2.407a1 1 0 0 0 .051-.055 1 1 0 0 0 .055-.058 1 1 0 0 0 .18-.276l.006-.011a1 1 0 0 0 .064-.345l.008-.043c0-.012-.006-.022-.007-.034v-.069a5.4 5.4 0 0 1 0-1.406 1 1 0 0 0-.358-.891ZM3.369 17.543a.99.99 0 0 1 .584-.5 1 1 0 0 1 .612 1.9 1 1 0 0 1-1.2-1.4Z"/><path d="M23.258 40h2v2h-2ZM23.258 44h2v2h-2ZM29.258 28h2v2h-2ZM33.258 28h2v2h-2ZM42.258 10h2v4h-2ZM42.258 16h2v2h-2ZM42.258 20h2v2h-2Z"/></g></svg>