<svg xmlns="http://www.w3.org/2000/svg" width="60" height="60" fill="none"><path fill="#282928" d="M56.875 30.74a1.15 1.15 0 0 0-2.228.046 6.31 6.31 0 0 1-4.462 4.675l-5.484 1.513-.596-2.165a.703.703 0 0 0-1.178-.305l-8.172 8.294a.705.705 0 0 0 .324 1.174l11.269 2.93a.705.705 0 0 0 .854-.868l-.768-2.784 5.485-1.513c4.094-1.13 6.507-5.38 5.378-9.475zm-5.331 9.642-6.162 1.7a.7.7 0 0 0-.491.865l.632 2.287-8.911-2.316 6.463-6.56.46 1.668c.103.374.49.594.865.491l6.162-1.7a7.7 7.7 0 0 0 5.2-4.835l.18.654a6.31 6.31 0 0 1-4.398 7.746M44.69 29.446c7.795 0 14.137-6.343 14.137-14.138S52.486 1.172 44.691 1.172 30.553 7.514 30.553 15.309s6.342 14.137 14.138 14.137m0-26.868c7.02 0 12.73 5.71 12.73 12.731s-5.71 12.732-12.73 12.732-12.732-5.71-12.732-12.732c0-7.02 5.712-12.73 12.732-12.73m0 23.42c5.893 0 10.688-4.795 10.688-10.689 0-5.893-4.795-10.688-10.688-10.688S34.002 9.416 34.002 15.309s4.795 10.689 10.689 10.689m-5.235-18.35.438.759a.704.704 0 1 0 1.218-.704l-.44-.762a9.2 9.2 0 0 1 3.316-.886v.878a.704.704 0 0 0 1.406 0v-.878c1.18.09 2.299.396 3.315.886l-.44.762a.704.704 0 0 0 1.218.703l.438-.758a9.4 9.4 0 0 1 2.426 2.425l-.758.439a.705.705 0 0 0 .351 1.312c.12 0 .24-.03.35-.094l.763-.439a9.2 9.2 0 0 1 .886 3.315h-.878a.704.704 0 0 0 0 1.406h.878a9.2 9.2 0 0 1-.886 3.316l-.762-.44a.704.704 0 0 0-.703 1.219l.758.438a9.4 9.4 0 0 1-2.426 2.426l-.438-.758a.704.704 0 0 0-1.219.703l.44.762a9.2 9.2 0 0 1-3.316.886v-.877a.704.704 0 0 0-1.406 0v.877a9.2 9.2 0 0 1-3.315-.886l.44-.762a.704.704 0 0 0-1.22-.703l-.438.758a9.4 9.4 0 0 1-2.425-2.426l.758-.438a.705.705 0 0 0-.703-1.219l-.762.44a9.2 9.2 0 0 1-.886-3.315h.877a.704.704 0 0 0 0-1.407h-.877c.089-1.18.396-2.299.886-3.315l.762.44a.704.704 0 0 0 .702-1.219l-.759-.439a9.5 9.5 0 0 1 2.43-2.424m4.531 7.661v-5.223a.704.704 0 0 1 1.407 0v4.52h2.816a.704.704 0 0 1 0 1.406h-3.52a.704.704 0 0 1-.703-.703m-13.75 25.084-2.066-.096c-.039-.002-.061-.018-.072-.056a12 12 0 0 0-1.058-2.551c-.019-.034-.016-.061.01-.09l1.396-1.53a1.48 1.48 0 0 0-.048-2.05l-2.42-2.42a1.48 1.48 0 0 0-2.048-.047l-1.53 1.394c-.03.027-.057.03-.09.01a12 12 0 0 0-2.552-1.057c-.038-.01-.054-.032-.056-.072l-.096-2.067a1.48 1.48 0 0 0-1.483-1.416h-3.423c-.794 0-1.446.621-1.482 1.416l-.096 2.067q-.003.057-.057.072c-.886.253-1.743.609-2.55 1.058-.035.019-.062.016-.091-.01l-1.53-1.395a1.48 1.48 0 0 0-2.049.048l-2.42 2.42a1.48 1.48 0 0 0-.048 2.048l1.395 1.53c.027.03.029.057.01.09a12 12 0 0 0-1.058 2.552q-.014.056-.071.056l-2.068.096a1.483 1.483 0 0 0-1.414 1.483v3.423c0 .794.621 1.446 1.416 1.482l2.067.096q.056.003.071.057c.253.884.61 1.743 1.058 2.55.02.035.017.062-.01.091l-1.395 1.53a1.48 1.48 0 0 0 .048 2.049l2.42 2.42a1.48 1.48 0 0 0 2.049.048l1.53-1.395c.03-.027.056-.029.09-.01.808.449 1.666.805 2.552 1.058q.055.013.056.072l.096 2.067a1.48 1.48 0 0 0 1.482 1.415h3.423c.795 0 1.447-.62 1.483-1.415l.096-2.068q.002-.056.056-.071c.886-.253 1.744-.61 2.551-1.058.034-.019.061-.017.09.01l1.531 1.395a1.48 1.48 0 0 0 2.049-.048l2.42-2.42a1.48 1.48 0 0 0 .047-2.049l-1.394-1.53c-.026-.03-.03-.056-.01-.09.448-.806.803-1.666 1.058-2.551.01-.038.031-.054.071-.057l2.067-.096a1.48 1.48 0 0 0 1.416-1.482v-3.423a1.49 1.49 0 0 0-1.418-1.483m.01 4.906a.077.077 0 0 1-.075.077l-2.067.096c-.647.03-1.18.453-1.358 1.075a10.7 10.7 0 0 1-.935 2.255 1.46 1.46 0 0 0 .2 1.72l1.395 1.53a.08.08 0 0 1-.003.108l-2.42 2.42a.08.08 0 0 1-.107.002l-1.53-1.394a1.47 1.47 0 0 0-1.721-.2c-.714.396-1.472.71-2.254.935a1.47 1.47 0 0 0-1.074 1.358l-.096 2.067a.08.08 0 0 1-.078.074h-3.423a.077.077 0 0 1-.077-.074l-.096-2.067a1.46 1.46 0 0 0-1.075-1.358 10.7 10.7 0 0 1-2.255-.936 1.469 1.469 0 0 0-1.72.2l-1.53 1.395a.08.08 0 0 1-.108-.002l-2.42-2.42a.08.08 0 0 1-.002-.108l1.395-1.53c.436-.48.515-1.154.2-1.72a10.7 10.7 0 0 1-.934-2.254 1.47 1.47 0 0 0-1.359-1.075l-2.067-.096a.077.077 0 0 1-.074-.077v-3.423c0-.041.033-.076.074-.077l2.067-.096a1.47 1.47 0 0 0 1.359-1.075c.223-.783.537-1.541.935-2.254a1.46 1.46 0 0 0-.2-1.72l-1.395-1.53a.08.08 0 0 1 .002-.108l2.42-2.42c.03-.03.076-.03.108-.003l1.53 1.395c.48.437 1.155.515 1.72.2a10.7 10.7 0 0 1 2.254-.935 1.47 1.47 0 0 0 1.075-1.358l.096-2.067a.08.08 0 0 1 .077-.074h3.423c.042 0 .076.033.078.074l.096 2.067c.03.647.45 1.18 1.074 1.358.782.224 1.541.538 2.254.936a1.46 1.46 0 0 0 1.72-.2l1.53-1.396a.08.08 0 0 1 .108.003l2.42 2.42c.03.03.03.076.003.108l-1.395 1.53a1.47 1.47 0 0 0-.2 1.72c.397.714.711 1.472.935 2.254a1.47 1.47 0 0 0 1.358 1.075l2.067.096a.077.077 0 0 1 .074.077zm-13.835-9.423c-2.06 0-3.996.803-5.453 2.258A7.66 7.66 0 0 0 8.7 43.587a7.66 7.66 0 0 0 2.26 5.452 7.66 7.66 0 0 0 5.452 2.259c2.06 0 3.996-.803 5.453-2.259a7.66 7.66 0 0 0 2.26-5.452 7.66 7.66 0 0 0-2.26-5.453 7.66 7.66 0 0 0-5.453-2.258m4.46 12.17a6.26 6.26 0 0 1-4.46 1.847 6.27 6.27 0 0 1-4.459-1.847 6.26 6.26 0 0 1-1.847-4.46c0-1.684.656-3.267 1.847-4.458a6.26 6.26 0 0 1 4.46-1.847c1.684 0 3.266.656 4.458 1.847a6.27 6.27 0 0 1 1.847 4.459 6.26 6.26 0 0 1-1.847 4.459m-5.538-6.185c0 .689.353 1.024 1.078 1.024 1.51 0 2.485.954 2.485 2.43 0 1.102-.754 2.032-1.782 2.33v.607a.704.704 0 0 1-1.406 0v-.607c-1.029-.298-1.781-1.228-1.781-2.33a.704.704 0 0 1 1.406 0c0 .565.484 1.025 1.078 1.025s1.078-.46 1.078-1.025c0-.689-.352-1.024-1.078-1.024-1.51 0-2.484-.954-2.484-2.43 0-1.102.753-2.032 1.781-2.33v-.607a.704.704 0 0 1 1.406 0v.607c1.03.297 1.782 1.228 1.782 2.33a.704.704 0 0 1-1.407 0c0-.565-.484-1.025-1.078-1.025s-1.078.46-1.078 1.025M5.161 26.145c.138.5.592.843 1.107.843h.025a1.15 1.15 0 0 0 1.097-.89 6.31 6.31 0 0 1 4.461-4.675l5.484-1.513.597 2.165a.703.703 0 0 0 1.178.306l8.171-8.295a.705.705 0 0 0-.323-1.174l-11.269-2.93a.702.702 0 0 0-.854.868l.767 2.784-5.484 1.512a7.65 7.65 0 0 0-4.644 3.629 7.65 7.65 0 0 0-.734 5.847zm1.536-6.677a6.25 6.25 0 0 1 3.795-2.967l6.162-1.7a.7.7 0 0 0 .49-.865l-.631-2.288 8.91 2.317-6.462 6.56-.46-1.668a.704.704 0 0 0-.866-.491l-6.161 1.7a7.7 7.7 0 0 0-5.2 4.835l-.18-.654a6.26 6.26 0 0 1 .603-4.779"/></svg>