<svg xmlns="http://www.w3.org/2000/svg" width="60" height="60"><defs><clipPath id="a"><path d="M0 0h60v60H0z"/></clipPath></defs><g clip-path="url(#a)"><path d="M13.718 46.283a12.42 12.42 0 0 1 1.815-8.457l6.642 6.642a12.42 12.42 0 0 1-8.457 1.815m15.553-36.275a19.73 19.73 0 0 0-11.971 1.98c-2.674 1.4-6.315 5.658-8.581 7.925H21.43a40.1 40.1 0 0 1 7.841-9.905m10.817 28.563v12.707c2.267-2.266 6.527-5.907 7.925-8.581a19.73 19.73 0 0 0 1.98-11.966 40.1 40.1 0 0 1-9.905 7.84m-11.35 1.95-9.258-9.258-5.08 3.078 4.756 4.752 1.755 1.755L25.66 45.6ZM46.292 1.679l12.03 12.03C54.294 25.8 43.473 37.857 30.793 40.221l-5.507-5.507-5.506-5.506C22.144 16.528 34.2 5.707 46.292 1.679m1.964 17.7a7.623 7.623 0 1 0-.58 2.922 7.6 7.6 0 0 0 .579-2.92ZM59.676.325a26.4 26.4 0 0 0-11.579.8L58.871 11.9A26.4 26.4 0 0 0 59.676.325M40.62 13.409a5.954 5.954 0 1 0 2.286.453 6 6 0 0 0-2.286-.453M10.471 29.245l-9.2 9.2A.832.832 0 0 0 2.45 39.62l9.2-9.2a.831.831 0 0 0-1.175-1.175Zm5.85-3.5a.834.834 0 0 0-1.179-1.179l-1.687 1.691a.831.831 0 1 0 1.175 1.175ZM2.25 31.855 8.3 25.8a.831.831 0 0 0-1.175-1.175l-6.05 6.052a.832.832 0 1 0 1.175 1.178m18.628 17.153a.827.827 0 0 0-1.175 0l-9.572 9.572a.831.831 0 0 0 1.175 1.175l9.572-9.572a.827.827 0 0 0 0-1.176ZM34.2 51.7l-6.055 6.052a.832.832 0 1 0 1.179 1.175l6.052-6.051A.831.831 0 0 0 34.2 51.7m.051-8.019-1.687 1.689a.831.831 0 1 0 1.175 1.175l1.691-1.687a.834.834 0 0 0-1.179-1.179Zm-3.5 4.675a.827.827 0 0 0-1.175 0l-9.2 9.2a.834.834 0 0 0 1.179 1.179l9.2-9.2a.827.827 0 0 0 0-1.175ZM10.37 49.631a.827.827 0 0 0-1.175 0l-8.72 8.72a.831.831 0 0 0 1.175 1.175l8.72-8.72a.83.83 0 0 0 0-1.175m-8.949.239 9.572-9.57a.831.831 0 1 0-1.175-1.175l-9.572 9.57a.831.831 0 0 0 1.176 1.175Z"/></g></svg>