<svg xmlns="http://www.w3.org/2000/svg" width="49.111" height="58.636"><path d="M48.42 23.863h-1.38A22.365 22.365 0 0 0 32.313 3.409h11.431a2.727 2.727 0 1 0 0-1.364H27.283V.681a.68.68 0 0 0-.682-.682h-4.09a.68.68 0 0 0-.682.682v1.364H5.368a2.727 2.727 0 1 0 0 1.364h11.431A22.365 22.365 0 0 0 2.072 23.863H.692a.68.68 0 0 0-.682.682v4.091a.68.68 0 0 0 .682.682h4.091a.68.68 0 0 0 .682-.682v-4.091a.68.68 0 0 0-.682-.682H3.436A21.01 21.01 0 0 1 21.829 3.588v1.184a.68.68 0 0 0 .682.682h4.091a.68.68 0 0 0 .682-.682V3.588a21.01 21.01 0 0 1 18.392 20.275h-1.347a.68.68 0 0 0-.682.682v4.091a.68.68 0 0 0 .682.682h4.091a.68.68 0 0 0 .682-.682v-4.091a.68.68 0 0 0-.682-.682"/><path d="M26.529 8.558a.682.682 0 0 0-1.292.3v22.1a.68.68 0 0 0 .405.623 2.727 2.727 0 1 1-2.175 0 .68.68 0 0 0 .405-.623V8.863a.682.682 0 0 0-1.292-.3L9.628 34.467a.68.68 0 0 0 0 .61l4.961 9.922h19.934l4.961-9.922a.68.68 0 0 0 0-.61ZM36.147 46.363H12.965a.68.68 0 0 0-.682.682v4.091a.68.68 0 0 0 .682.682h23.182a.68.68 0 0 0 .682-.682v-4.091a.68.68 0 0 0-.682-.682M14.328 57.954a.68.68 0 0 0 .682.682h19.091a.68.68 0 0 0 .682-.682v-4.773H14.328Z"/></svg>