<svg xmlns="http://www.w3.org/2000/svg" width="60" height="51.598"><path d="M56.484-.001H3.516A3.516 3.516 0 0 0 0 3.516v26.422h60V3.516a3.516 3.516 0 0 0-3.516-3.517M21.36 20.337a1.758 1.758 0 1 1-1.982 2.9l-6.446-4.4a2.123 2.123 0 0 1 0-3.507l6.446-4.4a1.758 1.758 0 0 1 1.982 2.9l-4.76 3.256Zm13.7-8.666L28 24.224a1.758 1.758 0 0 1-3.061-1.725L32 9.948a1.758 1.758 0 1 1 3.064 1.723Zm12.008 7.168-6.446 4.4a1.758 1.758 0 0 1-1.982-2.9l4.76-3.253-4.76-3.251a1.758 1.758 0 0 1 1.982-2.9l6.446 4.4a2.123 2.123 0 0 1 0 3.507ZM0 33.455v3.844a3.516 3.516 0 0 0 3.516 3.516h21.269v7.268h-4.4a1.758 1.758 0 1 0 0 3.516H39.62a1.758 1.758 0 1 0 0-3.516h-4.4v-7.268h21.264A3.516 3.516 0 0 0 60 37.299v-3.844Z"/></svg>