<svg xmlns="http://www.w3.org/2000/svg" width="56.25" height="54.376"><path d="M53.437 29.062a2.81 2.81 0 0 0-2.64 1.875H31.875v1.875h18.922a2.808 2.808 0 1 0 2.64-3.75M53.437 38.437a2.81 2.81 0 0 0-2.64 1.875h-4.472L40.7 34.687h-8.825v1.875h8.049l5.625 5.625h5.248a2.808 2.808 0 1 0 2.64-3.75M45.549 21.562l-5.625 5.625h-8.049v1.875h8.826l5.625-5.625h4.471a2.813 2.813 0 1 0 0-1.875ZM28.172 11.25A10.2 10.2 0 0 0 29.263 15h3.952a26 26 0 0 1-.383-3.75ZM34.955.617a10.36 10.36 0 0 0-4.468 3.132h3.162A13 13 0 0 1 34.955.617M29.263 5.625a10.2 10.2 0 0 0-1.091 3.75h4.66a26 26 0 0 1 .383-3.75ZM29.787 1.741A2.83 2.83 0 0 0 27.187 0H2.812A2.816 2.816 0 0 0 0 2.812v2.813h27.187a12.2 12.2 0 0 1 2.6-3.884M2.812 3.75a.938.938 0 1 1 .938-.937.94.94 0 0 1-.938.937m17.813 0H9.375V1.875h11.25ZM46.387 3.749A10.35 10.35 0 0 0 41.919.617a13 13 0 0 1 1.3 3.132ZM2.812 52.5A4.64 4.64 0 0 1 0 51.538v.024a2.816 2.816 0 0 0 2.813 2.813h24.374A2.816 2.816 0 0 0 30 51.563v-.024a4.64 4.64 0 0 1-2.813.961ZM44.041 9.375h4.66a10.2 10.2 0 0 0-1.091-3.75h-3.952a25.6 25.6 0 0 1 .383 3.75M38.437 0c-1.008 0-2.081 1.432-2.821 3.75h5.643C40.518 1.431 39.444 0 38.437 0M42.167 9.375a23.4 23.4 0 0 0-.431-3.75h-6.6a23 23 0 0 0-.431 3.75ZM41.918 20.007a10.34 10.34 0 0 0 4.469-3.132h-3.165a13 13 0 0 1-1.304 3.132M33.651 16.875h-3.164a10.35 10.35 0 0 0 4.466 3.132 13 13 0 0 1-1.302-3.132M26.587 7.5H0v40.312a2.816 2.816 0 0 0 2.813 2.813h24.374A2.816 2.816 0 0 0 30 47.813V19.087A12.06 12.06 0 0 1 26.587 7.5M14.933 35.625a4.66 4.66 0 0 0-3.314 1.373l-1.326-1.326a6.56 6.56 0 0 1 9.28 0l-1.326 1.326a4.66 4.66 0 0 0-3.314-1.373m2.813 4.688a2.812 2.812 0 1 1-2.812-2.812 2.816 2.816 0 0 1 2.811 2.811Zm2.879 8.438H11.25v-1.876h9.375Zm.275-14.4a8.447 8.447 0 0 0-11.933 0l-1.326-1.326a10.325 10.325 0 0 1 14.585 0Zm7.225-11.846A5.63 5.63 0 0 1 22.5 28.13h-15a5.616 5.616 0 0 1-1.457-11.043 8.43 8.43 0 0 1 15.979-.184q.243-.024.478-.024a5.63 5.63 0 0 1 5.625 5.621ZM35.138 15h6.6a23 23 0 0 0 .431-3.75h-7.462a23 23 0 0 0 .431 3.75"/><path d="m21.587 18.878-.923.233-.22-.924a6.555 6.555 0 0 0-12.745-.075l-.15.607-.618.095a3.741 3.741 0 0 0 .568 7.44h15a3.75 3.75 0 0 0 0-7.5 3.7 3.7 0 0 0-.912.124M38.437 20.625c1.008 0 2.081-1.432 2.821-3.75h-5.643c.74 2.318 1.814 3.75 2.822 3.75M48.701 11.25h-4.66a26 26 0 0 1-.383 3.75h3.952a10.2 10.2 0 0 0 1.091-3.75"/></svg>