<svg xmlns="http://www.w3.org/2000/svg" width="59.758" height="55.381"><path d="M27.229 30.621v2.858c-1.289-.327-3.57-1.3-3.57-2.858a1.785 1.785 0 0 1 3.57 0m-3.47 18.231a2.045 2.045 0 0 0 2.041 2.039h8.159A2.045 2.045 0 0 0 36 48.85v-1.342H23.758Zm-11.326-15.63a.935.935 0 1 0-1.838.344 19.6 19.6 0 0 0 4.755 9.516l-4.84 4.839.07-1.061a.936.936 0 1 0-1.868-.117l-.233 3.532a.937.937 0 0 0 .992 1l3.544-.236a.936.936 0 1 0-.117-1.868l-1.061.071 5.486-5.486a.937.937 0 0 0 0-1.326 17.7 17.7 0 0 1-4.89-9.208m16.671 2.428v9.984h1.551v-9.985a13 13 0 0 1-1.551 0Zm-.292 19.731h2.136a3.02 3.02 0 0 0 2.985-2.612h-8.107a3.02 3.02 0 0 0 2.985 2.611Zm5.5-26.544a1.793 1.793 0 0 0-1.783 1.784v2.858c1.289-.327 3.57-1.3 3.57-2.858a1.79 1.79 0 0 0-1.785-1.785Zm25.125.339-2.673-2.34a.934.934 0 1 0-1.23 1.406l.8.7h-7.755a.94.94 0 0 0-.937.937 17.67 17.67 0 0 1-3.06 9.976.933.933 0 1 0 1.545 1.047 19.56 19.56 0 0 0 3.367-10.085h6.845l-.8.7a.934.934 0 1 0 1.23 1.406l2.663-2.332a.936.936 0 0 0 .008-1.416ZM4.222 31.515l-.8-.7h7.757a.94.94 0 0 0 .938-.937 17.67 17.67 0 0 1 3.06-9.976.933.933 0 0 0-1.545-1.047 19.56 19.56 0 0 0-3.364 10.086H3.423l.8-.7a.934.934 0 0 0-1.23-1.406L.326 29.169a.936.936 0 0 0-.007 1.413l2.673 2.34a.934.934 0 0 0 1.23-1.406Zm4.492-18.5a.936.936 0 1 0 1.868-.117l-.07-1.061 5.486 5.486a.937.937 0 0 0 1.326 0 17.7 17.7 0 0 1 9.213-4.889.935.935 0 1 0-.344-1.838 19.6 19.6 0 0 0-9.514 4.753L11.84 10.51l1.061.07a.936.936 0 1 0 .117-1.868l-3.539-.234a.937.937 0 0 0-1.005.992Zm18.211-8.7a.934.934 0 0 0 1.318-.088l.7-.8v7.761a.94.94 0 0 0 .936.933 17.67 17.67 0 0 1 9.976 3.06.933.933 0 0 0 1.047-1.545 19.56 19.56 0 0 0-10.085-3.367V3.423l.7.8a.934.934 0 0 0 1.405-1.232L30.588.325a.936.936 0 0 0-1.409-.007l-2.343 2.673a.934.934 0 0 0 .088 1.318Zm20.4 22.226a.935.935 0 1 0 1.838-.344 19.6 19.6 0 0 0-4.755-9.516l4.839-4.839-.07 1.061a.936.936 0 0 0 1.868.117l.234-3.532a.937.937 0 0 0-.992-1l-3.544.235a.936.936 0 1 0 .117 1.868l1.061-.071-5.485 5.471a.937.937 0 0 0 0 1.326 17.7 17.7 0 0 1 4.889 9.218ZM29.879 15.029a14.851 14.851 0 0 0-7.591 27.615 2.94 2.94 0 0 1 1.47 2.587v.4h3.47V35.398c-2.336-.5-5.445-2.027-5.445-4.777a3.66 3.66 0 0 1 7.32 0v3.151a12 12 0 0 0 1.551 0v-3.151a3.66 3.66 0 0 1 7.32 0c0 2.75-3.109 4.28-5.445 4.777v10.235h3.47v-.4a2.94 2.94 0 0 1 1.47-2.587 14.851 14.851 0 0 0-7.59-27.617m21.166 31.714a.936.936 0 1 0-1.868.117l.07 1.061-5.486-5.486a.937.937 0 0 0-1.326 0 18 18 0 0 1-1.31 1.187.937.937 0 1 0 1.187 1.45q.392-.325.768-.667l4.842 4.842-1.061-.07a.936.936 0 0 0-.117 1.868l3.532.234a.937.937 0 0 0 1.003-.988Z"/></svg>