<svg xmlns="http://www.w3.org/2000/svg" width="60" height="60" fill="none"><path fill="#282928" fill-rule="evenodd" d="M7.217 18.434a.82.82 0 0 1 1.02-.554c1.202.356 2.546.66 3.996.905a.82.82 0 1 1-.273 1.617 36 36 0 0 1-4.19-.949.82.82 0 0 1-.553-1.019m.554 13.435c1.265.374 2.674.693 4.189.949a.82.82 0 0 0 .273-1.618 34 34 0 0 1-3.997-.905.82.82 0 0 0-.465 1.574m4.462 11.746a34 34 0 0 1-3.997-.905.82.82 0 1 0-.465 1.573 36 36 0 0 0 4.189.95.82.82 0 0 0 .273-1.618m46.712-13.39v12.033c0 8.356-8.352 15.044-14.38 16.66a.8.8 0 0 1-.425 0c-3.73-1-8.345-3.94-11.326-8.014-3.408.821-7.453 1.254-11.746 1.254-9.702 0-20.013-2.428-20.013-6.929V7.984c0-4.5 10.311-6.93 20.014-6.93s20.014 2.43 20.014 6.93v17.622h7.304a.82.82 0 0 1 .476.152c2.091 1.492 5.406 3.337 9.327 3.648a.82.82 0 0 1 .755.818M2.695 7.983c0 1.19 1.935 2.547 5.05 3.538 3.548 1.129 8.28 1.75 13.324 1.75s9.776-.621 13.323-1.75c3.115-.992 5.05-2.347 5.05-3.538s-1.935-2.547-5.05-3.538c-3.547-1.129-8.279-1.75-13.323-1.75s-9.777.621-13.323 1.75c-3.116.991-5.05 2.347-5.05 3.538m0 12.415c0 1.19 1.935 2.546 5.05 3.538 3.548 1.129 8.28 1.75 13.324 1.75s9.776-.621 13.323-1.75c3.115-.992 5.05-2.347 5.05-3.538v-9.531c-3.288 2.644-11.006 4.045-18.373 4.045s-15.085-1.4-18.374-4.045zm0 12.415c0 1.19 1.935 2.547 5.05 3.538 3.548 1.129 8.28 1.75 13.324 1.75 3.033 0 6.02-.232 8.69-.672v-7.206a.82.82 0 0 1 .755-.818c3.68-.293 6.827-1.935 8.928-3.37v-2.753c-3.288 2.644-11.006 4.045-18.373 4.045s-15.085-1.4-18.374-4.045zm29.152 16.63c-1.286-2.168-2.088-4.597-2.088-7.186v-3.166c-2.688.427-5.67.651-8.69.651-7.368 0-15.085-1.4-18.374-4.045v9.531c0 1.19 1.935 2.547 5.05 3.538 3.548 1.129 8.28 1.75 13.324 1.75 3.861 0 7.637-.379 10.778-1.074m25.458-18.48c-3.086-.39-6.24-1.666-9.178-3.718h-7.55c-2.939 2.052-6.092 3.328-9.178 3.718v11.294c0 7.338 7.582 13.47 12.953 15.016 5.37-1.545 12.953-7.678 12.953-15.016zm-9.456-2.028c2.352 1.549 4.798 2.63 7.27 3.211a.82.82 0 0 1 .632.799v9.312c0 2.696-1.291 5.609-3.636 8.201-2.091 2.314-4.823 4.173-7.494 5.1a.82.82 0 0 1-.538 0c-2.67-.927-5.403-2.786-7.494-5.1-2.344-2.592-3.635-5.505-3.635-8.201v-9.312a.82.82 0 0 1 .632-.799c2.471-.582 4.917-1.662 7.27-3.211a.8.8 0 0 1 .45-.136h6.092a.8.8 0 0 1 .45.136m6.26 4.649c-2.369-.634-4.705-1.69-6.955-3.144H41.55c-2.25 1.454-4.586 2.51-6.956 3.144v8.673c0 4.856 4.995 9.88 9.758 11.655 4.763-1.774 9.758-6.8 9.758-11.655zm-9.757-1.905a4.343 4.343 0 0 1 4.338 4.338v1.918h.876a.82.82 0 0 1 .82.82V44.6a6.04 6.04 0 0 1-6.034 6.034 6.04 6.04 0 0 1-6.034-6.034v-5.843a.82.82 0 0 1 .82-.82h.876v-1.919a4.343 4.343 0 0 1 4.338-4.338m4.394 7.897h-8.788V44.6a4.4 4.4 0 0 0 4.394 4.393 4.4 4.4 0 0 0 4.394-4.393zm-4.394-6.256a2.7 2.7 0 0 0-2.697 2.697v1.918h5.395v-1.918a2.7 2.7 0 0 0-2.698-2.697m-.82 10.578v1.9a.82.82 0 1 0 1.64 0v-1.9a1.368 1.368 0 0 0-.82-2.465 1.367 1.367 0 0 0-.82 2.464" clip-rule="evenodd"/></svg>