<svg xmlns="http://www.w3.org/2000/svg" width="60" height="60" fill="none"><g fill="#282928" clip-path="url(#a)"><path d="m56.913 23.043-5.161-.497a22 22 0 0 0-2.62-6.226l3.29-3.971a.98.98 0 0 0-.062-1.319l-5.583-5.583a.98.98 0 0 0-1.319-.061l-3.974 3.29a22.6 22.6 0 0 0-6.223-2.621L34.763.886A.98.98 0 0 0 33.788 0h-7.63a.98.98 0 0 0-.975.886l-.499 5.169a22.6 22.6 0 0 0-6.222 2.622l-3.975-3.292a.98.98 0 0 0-1.318.06L7.585 11.03a.98.98 0 0 0-.061 1.319l3.289 3.971a22 22 0 0 0-2.623 6.226l-5.159.498a.975.975 0 0 0-.88.976v7.915a.975.975 0 0 0 .88.975l5.165.498a22.6 22.6 0 0 0 2.62 6.223l-3.293 3.974a.98.98 0 0 0 .105 1.36l4.235 3.745a.98.98 0 0 0 1.454-.173l6.086-8.733a.98.98 0 0 0-.112-1.254c-5.838-5.84-5.839-15.307 0-21.146s15.307-5.84 21.147 0 5.84 15.307 0 21.146a.98.98 0 0 0-.102 1.267l6.3 8.732a.98.98 0 0 0 1.444.161l4.236-3.744a.98.98 0 0 0 .106-1.36L49.13 39.63a22.6 22.6 0 0 0 2.621-6.223l5.162-.498a.975.975 0 0 0 .88-.975v-7.916a.975.975 0 0 0-.88-.976m-1.08 8-4.973.48a.98.98 0 0 0-.86.765 20.7 20.7 0 0 1-2.9 6.884.98.98 0 0 0 .065 1.162l3.141 3.791-2.713 2.399-5.19-7.195c6.01-6.63 5.817-16.916-.579-23.312-6.594-6.595-17.325-6.595-23.92 0-6.398 6.399-6.587 16.693-.568 23.322l-4.998 7.173-2.7-2.387 3.14-3.791a.98.98 0 0 0 .066-1.163 20.7 20.7 0 0 1-2.903-6.883.97.97 0 0 0-.857-.765l-4.973-.48V24.91l4.973-.48a.98.98 0 0 0 .862-.769 20.1 20.1 0 0 1 2.896-6.873.98.98 0 0 0-.063-1.168l-3.176-3.835 4.32-4.32 3.835 3.175a.98.98 0 0 0 1.163.066 20.7 20.7 0 0 1 6.883-2.902.98.98 0 0 0 .764-.863l.48-4.98h5.849l.48 4.98a.98.98 0 0 0 .764.863 20.7 20.7 0 0 1 6.883 2.902.98.98 0 0 0 1.163-.065l3.835-3.176 4.32 4.32-3.176 3.835a.98.98 0 0 0-.062 1.167 20.1 20.1 0 0 1 2.898 6.874.97.97 0 0 0 .857.77l4.974.479z"/><path d="M33.392 45.23V30.344c2.471-1.427 4.094-4.137 4.094-6.929 0-3.815-2.182-6.594-5.836-7.432a.98.98 0 0 0-1.198 1.032l.324 4.16c-.818.43-1.795.43-2.614.002l.348-4.184a.98.98 0 0 0-1.25-1.023c-3.342.968-5.424 3.842-5.424 7.502 0 3.36 1.763 6.077 4.704 7.255v14.83c-2.083 1.23-4.09 3.726-4.06 6.902 0 3.784 2.158 6.581 5.765 7.484a.982.982 0 0 0 1.218-1.027l-.323-4.16a2.82 2.82 0 0 1 2.615-.002l-.349 4.184a.98.98 0 0 0 1.25 1.023c3.326-.963 5.413-3.824 5.446-7.474 0-3.36-1.785-6.077-4.71-7.255m.105 12.239.26-3.136a.98.98 0 0 0-.382-.86l-.037-.03a4.78 4.78 0 0 0-5.827.04.98.98 0 0 0-.37.845l.25 3.226c-1.887-.941-2.943-2.738-2.943-5.106-.025-2.58 1.791-4.613 3.495-5.411a.98.98 0 0 0 .559-.888V30.03a.98.98 0 0 0-.692-.939c-2.475-.747-4.01-2.901-4.01-5.622 0-2.191.975-4.003 2.619-5.01l-.26 3.134a.98.98 0 0 0 .384.862l.036.028a4.775 4.775 0 0 0 5.848-.055.98.98 0 0 0 .35-.83l-.254-3.26c1.926.903 3.003 2.692 3.003 5.076 0 2.221-1.453 4.463-3.534 5.45a.98.98 0 0 0-.56.887v16.173a.98.98 0 0 0 .697.938c2.476.748 4.014 2.902 4.014 5.614-.021 2.182-1.004 3.987-2.646 4.992"/></g><defs><clipPath id="a"><path fill="#fff" d="M0 0h60v60H0z"/></clipPath></defs></svg>