<svg xmlns="http://www.w3.org/2000/svg" width="50.497" height="60"><path d="M50.433 15.444c-.072-1.578-.072-3.085-.072-4.592A2.114 2.114 0 0 0 48.209 8.7c-8.968 0-15.785-2.583-21.453-8.108a2.214 2.214 0 0 0-3.014 0C18.075 6.117 11.258 8.7 2.29 8.7a2.114 2.114 0 0 0-2.152 2.152c0 1.507 0 3.014-.072 4.592-.287 15.067-.718 35.731 24.466 44.412l.716.144.717-.144c25.114-8.681 24.755-29.273 24.468-44.412M23.527 36.323a2.32 2.32 0 0 1-1.507.574h-.072a2.02 2.02 0 0 1-1.507-.717l-6.673-7.39 3.229-2.87 5.238 5.812 11.624-11.05 2.942 3.157Z"/></svg>