<svg xmlns="http://www.w3.org/2000/svg" width="60" height="60" fill="none"><path fill="#282928" d="M40.838 21.99c0-4.593-3.678-8.34-8.244-8.455.881-.563 1.595-1.422 2.098-2.547 1.194-2.675.89-6.272-.678-8.018-1.099-1.227-2.432-1.798-4.196-1.798-1.768 0-3.106.57-4.205 1.798-1.566 1.747-1.871 5.343-.677 8.018.502 1.125 1.216 1.984 2.099 2.547-4.566.115-8.244 3.861-8.244 8.454v3.932c0 2.16 1.757 3.92 3.92 3.92h14.21c2.16 0 3.92-1.758 3.92-3.92v-3.932zM26.66 3.907c.837-.933 1.781-1.33 3.158-1.33 1.372 0 2.314.397 3.15 1.33 1.19 1.326 1.394 4.367.44 6.507-.51 1.137-1.545 2.496-3.594 2.496s-3.086-1.357-3.595-2.496c-.955-2.14-.749-5.18.44-6.507m12.772 22.014a2.516 2.516 0 0 1-2.514 2.514h-.331v-6.684a.704.704 0 0 0-1.407 0v6.684H24.446v-6.684a.704.704 0 0 0-1.406 0v6.684h-.332a2.516 2.516 0 0 1-2.513-2.514V21.99a7.06 7.06 0 0 1 7.053-7.053h5.13a7.06 7.06 0 0 1 7.054 7.053zm18.16 28.992a7.46 7.46 0 0 0-5.732-6.436 5.04 5.04 0 0 0 2.332-4.248 5.05 5.05 0 0 0-5.043-5.042 5.05 5.05 0 0 0-5.042 5.042 5.04 5.04 0 0 0 2.332 4.248 7.46 7.46 0 0 0-5.733 6.436 3.44 3.44 0 0 0 .874 2.74 3.43 3.43 0 0 0 2.625 1.174h9.89c1.03 0 1.938-.407 2.624-1.174a3.44 3.44 0 0 0 .874-2.74M45.513 44.23a3.64 3.64 0 0 1 3.637-3.636 3.64 3.64 0 0 1 3.636 3.636 3.64 3.64 0 0 1-3.636 3.636 3.64 3.64 0 0 1-3.636-3.636M55.67 56.716c-.418.468-.949.706-1.576.706h-9.89a2.04 2.04 0 0 1-1.575-.706 2.03 2.03 0 0 1-.525-1.645 6.05 6.05 0 0 1 6.02-5.379h2.05a6.05 6.05 0 0 1 6.02 5.38 2.03 2.03 0 0 1-.523 1.644m-15.127-42.62c0-.389.315-.704.703-.704h6.366a2.244 2.244 0 0 1 2.241 2.242v19.897l1.091-1.09a.703.703 0 1 1 .995.994l-2.29 2.29a.7.7 0 0 1-.995 0l-2.29-2.291a.703.703 0 1 1 .994-.994l1.091 1.091V15.634a.837.837 0 0 0-.835-.836h-6.366a.703.703 0 0 1-.705-.703M8.062 35.433a.703.703 0 1 1 .995-.994l1.091 1.091V15.634a2.244 2.244 0 0 1 2.242-2.242h6.365a.704.704 0 0 1 0 1.406H12.39a.837.837 0 0 0-.836.836v19.897l1.091-1.09a.703.703 0 0 1 .995.994l-2.29 2.29a.7.7 0 0 1-.995 0zm22.45-3.41v3.507l1.092-1.09a.703.703 0 0 1 .995.994l-2.291 2.29a.7.7 0 0 1-.994 0l-2.291-2.291a.703.703 0 0 1 .995-.994l1.091 1.091v-3.507a.702.702 0 1 1 1.404 0M13.562 48.478a5.04 5.04 0 0 0 2.332-4.248 5.05 5.05 0 0 0-5.043-5.042 5.05 5.05 0 0 0-5.043 5.042 5.04 5.04 0 0 0 2.332 4.248 7.46 7.46 0 0 0-5.732 6.436 3.44 3.44 0 0 0 .874 2.74 3.43 3.43 0 0 0 2.625 1.174h9.89c1.03 0 1.938-.407 2.624-1.174a3.44 3.44 0 0 0 .874-2.74 7.46 7.46 0 0 0-5.734-6.436m-6.347-4.25a3.64 3.64 0 0 1 3.636-3.635 3.64 3.64 0 0 1 3.636 3.636 3.64 3.64 0 0 1-3.636 3.636 3.64 3.64 0 0 1-3.636-3.636m10.158 12.488c-.419.468-.95.706-1.577.706h-9.89a2.04 2.04 0 0 1-1.575-.706 2.04 2.04 0 0 1-.525-1.645 6.05 6.05 0 0 1 6.02-5.379h2.05a6.05 6.05 0 0 1 6.02 5.38 2.03 2.03 0 0 1-.523 1.644m21.113-10.022-1.199-.037a8 8 0 0 0-.528-1.275l.821-.874a.843.843 0 0 0-.019-1.18l-2.074-2.073a.843.843 0 0 0-1.179-.02l-.874.822a8 8 0 0 0-1.275-.528l-.037-1.199a.84.84 0 0 0-.846-.82H28.34c-.46 0-.832.36-.846.82l-.037 1.199a7.7 7.7 0 0 0-1.276.53l-.872-.822a.84.84 0 0 0-1.18.018l-2.073 2.074a.843.843 0 0 0-.018 1.179l.821.872a8 8 0 0 0-.53 1.278l-1.196.036a.843.843 0 0 0-.821.847v2.933c0 .46.36.832.821.846l1.197.036c.138.44.315.869.53 1.279l-.822.872a.843.843 0 0 0 .018 1.178l2.074 2.075a.84.84 0 0 0 1.179.017l.872-.821a7.7 7.7 0 0 0 1.278.53l.037 1.197c.014.46.385.822.846.822h2.933c.46 0 .832-.361.846-.822l.036-1.196q.661-.209 1.276-.529l.873.82a.843.843 0 0 0 1.18-.017l2.073-2.074a.843.843 0 0 0 .02-1.18l-.822-.873q.32-.616.528-1.275l1.2-.038a.84.84 0 0 0 .82-.846v-2.933a.84.84 0 0 0-.82-.848m-.585 3.237-1.065.033a.84.84 0 0 0-.793.638 6.4 6.4 0 0 1-.699 1.685.84.84 0 0 0 .112 1.011l.73.777-1.307 1.307-.777-.73a.84.84 0 0 0-1.012-.112 6.4 6.4 0 0 1-1.685.699.84.84 0 0 0-.638.795l-.032 1.064h-1.847l-.031-1.064a.84.84 0 0 0-.638-.795 6.4 6.4 0 0 1-1.687-.7.84.84 0 0 0-1.013.111l-.774.73-1.307-1.306.73-.776a.84.84 0 0 0 .111-1.013 6.4 6.4 0 0 1-.7-1.687.84.84 0 0 0-.795-.637l-1.064-.032v-1.847l1.064-.032c.381-.011.701-.267.796-.637.151-.593.387-1.16.7-1.688a.84.84 0 0 0-.112-1.012l-.73-.775 1.307-1.306.776.73a.84.84 0 0 0 1.012.111 6.4 6.4 0 0 1 1.685-.698.84.84 0 0 0 .638-.795l.032-1.065h1.848l.033 1.065c.012.38.269.7.638.793a6.4 6.4 0 0 1 1.684.699.84.84 0 0 0 1.012-.111l.777-.73 1.307 1.306-.73.777a.84.84 0 0 0-.112 1.013c.313.526.548 1.092.699 1.684.094.369.414.624.794.637l1.066.033v1.85zm-8.09-4.772a3.85 3.85 0 0 0-3.849 3.849 3.853 3.853 0 0 0 3.849 3.848 3.853 3.853 0 0 0 3.848-3.848 3.853 3.853 0 0 0-3.848-3.849m0 6.291a2.445 2.445 0 0 1-2.442-2.442 2.445 2.445 0 0 1 2.442-2.442 2.445 2.445 0 0 1 2.442 2.442 2.445 2.445 0 0 1-2.442 2.442"/></svg>