<svg xmlns="http://www.w3.org/2000/svg" width="60" height="60" fill="none"><path fill="#282928" fill-rule="evenodd" d="M34.234 12.914c-.724-.353-2.278-.702-4.262-.678-2.104.03-4.181.495-5.848 1.869m10.11-1.191c1.87.916 4.596 2.718 4.596 6.34 0 3.983-2.305 5.77-6.278 8.503-2.155 1.482-3.67 3.061-4.625 4.837-.964 1.79-1.26 3.601-1.26 5.373a2.34 2.34 0 1 0 4.678 0c0-1.227.2-2.224.702-3.157.51-.95 1.43-2.012 3.156-3.198l.09-.062c3.767-2.59 8.216-5.65 8.216-12.296 0-6.529-5.088-9.499-7.22-10.543h-.001l-.002-.002c-1.618-.789-3.979-1.18-6.373-1.15h-.004c-2.693.036-5.97.635-8.76 2.936-2.247 1.851-3.442 3.954-4.07 5.615a12 12 0 0 0-.582 2.075 9 9 0 0 0-.118.921l-.002.026v.018s0 .002 2.336.104l-2.337-.102a2.34 2.34 0 1 0 4.678.179c.006-.06.02-.166.046-.31.053-.292.156-.732.355-1.256.394-1.043 1.16-2.417 2.669-3.66" clip-rule="evenodd"/><path fill="#282928" d="M29.005 50.599a3.743 3.743 0 1 0 0-7.486 3.743 3.743 0 0 0 0 7.486"/></svg>