<svg xmlns="http://www.w3.org/2000/svg" width="50" height="50" fill="none"><path fill="#000" d="M20.278 5.697h3.737a.735.735 0 0 0 0-1.47h-3.737a.735.735 0 0 0 0 1.47m-3.336 39.585h6.666a.735.735 0 1 0 0-1.47h-6.666a.735.735 0 0 0 0 1.47"/><path fill="#000" d="M7.466 37.967c.406 0 .735-.33.735-.736V8.456h24.152v3.782a.735.735 0 0 0 1.47 0c0-.884 0 2.714.004-7.84a2.936 2.936 0 0 0-2.932-2.927H9.657C8.12 1.47 6.73 2.735 6.73 4.399v32.832c0 .406.33.736.736.736M30.893 2.94c.777 0 1.46.636 1.46 1.458v2.586H8.202V4.397a1.46 1.46 0 0 1 1.457-1.456z"/><path fill="#000" d="M24.816 19.997a.735.735 0 0 0 1.04-.005l3.072-3.101a.735.735 0 0 0 0-1.035l-3.073-3.102a.736.736 0 0 0-1.044 1.035l2.56 2.584-2.56 2.585a.735.735 0 0 0 .005 1.04M15.74 12.75a.734.734 0 0 0-1.04.004l-3.073 3.102a.735.735 0 0 0 0 1.034l3.073 3.102a.735.735 0 1 0 1.044-1.035l-2.56-2.584 2.56-2.584a.735.735 0 0 0-.005-1.04m5.723-2.077-4.316 10.86a.735.735 0 1 0 1.366.543l4.316-10.86a.735.735 0 1 0-1.366-.543m11.63 13.622a3.907 3.907 0 0 0-3.904 3.905 3.91 3.91 0 0 0 3.904 3.904 3.905 3.905 0 0 0 0-7.809m.735 6.221v-2.801a.737.737 0 0 0-.735-.736.733.733 0 0 0-.735.736v2.808a2.435 2.435 0 0 1 .735-4.757 2.435 2.435 0 0 1 2.426 2.434 2.43 2.43 0 0 1-1.69 2.316"/><path fill="#000" d="m42.613 25.875-1.809-.206a8 8 0 0 0-.53-1.25l1.06-1.5a.726.726 0 0 0-.074-.941l-2.11-2.103a.733.733 0 0 0-.978-.059l-1.42 1.14a8 8 0 0 0-1.257-.508l-.301-1.816a.735.735 0 0 0-.728-.61h-2.978a.74.74 0 0 0-.735.654l-.199 1.817q-.65.212-1.243.522l-1.507-1.067a.73.73 0 0 0-.941.081l-2.103 2.103a.73.73 0 0 0-.052.978l1.133 1.427a8 8 0 0 0-.508 1.257l-1.808.302a.75.75 0 0 0-.618.727v2.978c0 .375.287.684.654.728l1.81.206c.139.434.323.853.529 1.25l-1.06 1.493a.74.74 0 0 0 .082.948l2.103 2.103a.73.73 0 0 0 .978.052l1.426-1.133a8.4 8.4 0 0 0 1.25.5l.302 1.817c.058.36.367.617.727.617h.648v1.625H7.465a.737.737 0 0 0-.736.736v4.86a2.934 2.934 0 0 0 2.927 2.926h21.235a2.936 2.936 0 0 0 2.934-2.926v-7.22h.86a.74.74 0 0 0 .736-.655l.206-1.816a8.4 8.4 0 0 0 1.242-.522l1.5 1.066a.75.75 0 0 0 .949-.081l2.095-2.11a.723.723 0 0 0 .052-.971l-1.133-1.426q.309-.618.508-1.258l1.809-.309a.74.74 0 0 0 .617-.72v-2.978a.727.727 0 0 0-.654-.728M32.356 45.603a1.46 1.46 0 0 1-1.464 1.456H9.657a1.46 1.46 0 0 1-1.456-1.456v-4.125h24.155zm9.44-16.647-1.661.28a.74.74 0 0 0-.596.558 6.7 6.7 0 0 1-.713 1.78.72.72 0 0 0 .059.823l1.022 1.294-1.191 1.206-1.383-.985a.74.74 0 0 0-.808-.022c-.537.33-1.125.58-1.75.735a.745.745 0 0 0-.56.632l-.183 1.655h-1.706l-.28-1.67a.72.72 0 0 0-.55-.588 6.7 6.7 0 0 1-1.765-.72.73.73 0 0 0-.831.059l-1.302 1.029-1.198-1.199.97-1.36a.78.78 0 0 0 .03-.823 6.4 6.4 0 0 1-.75-1.765.72.72 0 0 0-.625-.544l-1.647-.191v-1.692l1.661-.279a.74.74 0 0 0 .596-.559 6 6 0 0 1 .72-1.764.74.74 0 0 0-.051-.839l-1.037-1.301 1.199-1.199 1.375.978c.235.17.559.184.809.03a6.4 6.4 0 0 1 1.764-.743.73.73 0 0 0 .544-.625l.184-1.654h1.706l.28 1.661a.73.73 0 0 0 .551.596 6.2 6.2 0 0 1 1.772.72.73.73 0 0 0 .831-.058l1.294-1.037 1.199 1.206-.971 1.367a.77.77 0 0 0-.03.817 6.3 6.3 0 0 1 .743 1.757.74.74 0 0 0 .633.551l1.647.184z"/></svg>