<svg xmlns="http://www.w3.org/2000/svg" width="50" height="50" fill="none"><path fill="#000" d="M25 15.625a4.69 4.69 0 0 0 4.688-4.687A4.69 4.69 0 0 0 25 6.25a4.69 4.69 0 0 0-4.687 4.688A4.69 4.69 0 0 0 25 15.625m0-7.812a3.13 3.13 0 0 1 3.125 3.125A3.13 3.13 0 0 1 25 14.062a3.13 3.13 0 0 1-3.125-3.124A3.13 3.13 0 0 1 25 7.812"/><path fill="#000" d="M45.14 18.75c-1.969-6.337-6.944-11.48-13.207-13.666l.575-1.445-2.355.471a4.04 4.04 0 0 1-3.997-1.527L25 1.042l-1.155 1.54a4.04 4.04 0 0 1-3.997 1.528l-2.355-.47.575 1.443A21.03 21.03 0 0 0 4.901 18.606c-2.156.992-3.753 3.053-4.062 5.474-.35 2.74.874 5.363 3.19 6.844.406.26.658.758.658 1.303v1.367c0 1.596 1.208 2.901 2.754 3.087a21.4 21.4 0 0 0 5.84 5.852v5.123H3.906v1.563h42.187v-1.563H35.157v-4.175a21.1 21.1 0 0 0 7.87-7.543h4.63v-1.563h-1.563v-1.562h3.125V18.75zM47.658 25h-3.125v-4.687h3.125zm-7.813 6.25v-4.687h3.125v4.687zm-4.687-4.687h3.125v4.687h-3.125zm0-1.563v-4.687h3.125V25zm4.687 0v-4.687h3.125V25zM19.853 5.695A5.61 5.61 0 0 0 25 3.642a5.61 5.61 0 0 0 5.149 2.053 5.54 5.54 0 0 0 2.013 5.235 5.58 5.58 0 0 0-2.12 5.132A5.55 5.55 0 0 0 25 18.232a5.61 5.61 0 0 0-5.148-2.052 5.54 5.54 0 0 0-2.023-5.242 5.54 5.54 0 0 0 2.024-5.243M4.873 29.608c-1.804-1.152-2.755-3.195-2.482-5.33.312-2.451 2.323-4.433 4.781-4.71q.326-.037.647-.037c1.348 0 2.62.482 3.635 1.39A5.47 5.47 0 0 1 13.281 25c0 1.866-.94 3.586-2.515 4.598-.826.53-1.33 1.432-1.381 2.432h-.791V27.2a2.34 2.34 0 0 0 1.563-2.2 2.347 2.347 0 0 0-2.344-2.345A2.347 2.347 0 0 0 5.469 25a2.34 2.34 0 0 0 1.563 2.2v4.831h-.793c-.058-1.008-.556-1.905-1.366-2.423M7.032 25a.782.782 0 0 1 1.562 0 .782.782 0 0 1-1.562 0m-.782 8.594h3.125a1.563 1.563 0 0 1-3.125 0m22.657 1.562v3.578l-3.125-.625v9.547h-3.125V36.547l-1.563.313v-1.704zm-7.813 3.297v9.203h-6.25v-7.953zm6.25 9.203v-7.64l6.25 1.25v6.39zm7.813-5.975v-1.697l-4.688-.937v-5.453h-1.562V32.03h-1.563v1.563h-1.562v-3.125h-1.563v3.125h-1.562V32.03h-1.563v1.563h-1.562v3.578l-6.25 1.25v2.195a19.8 19.8 0 0 1-4.135-4.21 3.12 3.12 0 0 0 1.79-2.813v-1.4c0-.523.259-1.013.674-1.28A7 7 0 0 0 14.844 25c0-2-.856-3.912-2.348-5.244a7.06 7.06 0 0 0-5.5-1.741c-.085.01-.168.027-.252.04A19.47 19.47 0 0 1 18.352 6.636a3.99 3.99 0 0 1-1.942 3.388l-1.521.914 1.521.913a3.995 3.995 0 0 1 1.66 4.932l-.578 1.453 2.356-.471a4.04 4.04 0 0 1 3.997 1.527L25 20.834l1.228-1.637a4 4 0 0 1 3.855-1.553l2.195.358-.468-1.26a4.015 4.015 0 0 1 1.695-4.84l1.608-.964-1.522-.914a3.99 3.99 0 0 1-1.942-3.386c5.54 2.013 9.964 6.532 11.855 12.112h-9.91v14.063h3.125v1.562h-1.562v1.563h6.028a19.6 19.6 0 0 1-6.029 5.743m9.375-7.306h-6.25v-1.562h6.25zm0-3.125v-4.687h3.125v4.687zm3.125 16.406h1.563v1.563h-1.563zm-46.875 0h1.563v1.563H.78z"/><path fill="#000" d="M28.906 44.531h3.125v1.563h-3.125zm-12.5-3.125h3.125v1.563h-3.125zm0 3.125h3.125v1.563h-3.125zm3.125-21.875H30.47v1.563H19.53zm9.375 3.125h1.563v1.563h-1.563zm-6.25 0h1.563v1.563h-1.563zm-3.125 0h1.563v1.563H19.53zm6.25 0h1.563v1.563H25.78z"/></svg>