<svg xmlns="http://www.w3.org/2000/svg" width="50" height="50" fill="none"><g fill="#000" clip-path="url(#a)"><path d="m37.941 34.518-7.19 3.693a3.42 3.42 0 0 0-2.436-1.017H23.36c-.22 0-.3-.013-.325-.019a3 3 0 0 1-.248-.221l-.047-.045c-4.033-3.798-7.44-3.557-11.316-2.027-.607.24-.618.24-1.22.267l-1.09.002a2.49 2.49 0 0 0-2.342-1.66H3.127a2.486 2.486 0 0 0-2.482 2.485v9.56a2.485 2.485 0 0 0 2.482 2.483h3.645c1.08 0 2-.694 2.341-1.658h2.005q.34.03.664.138l9.427 2.521c.413.112.791.222 1.158.329 1.217.353 2.24.65 3.308.65 1.206 0 2.467-.379 4.126-1.486l.024-.017L41.45 40.22c1.528-1.09 1.973-3.058 1.035-4.578-.927-1.498-2.88-1.982-4.543-1.124M7.301 45.537a.536.536 0 0 1-.529.529H3.127a.536.536 0 0 1-.53-.53v-9.56c0-.288.243-.532.53-.532h3.645c.287 0 .53.243.53.532zm33.014-6.908-11.61 8.268c-2.364 1.573-3.37 1.28-5.793.576a75 75 0 0 0-1.195-.339l-9.43-2.521a4.7 4.7 0 0 0-1.17-.205H9.255v-7.303l1.04-.005c.743-.034.973-.057 1.847-.401 3.359-1.326 5.951-1.484 9.26 1.633l.048.044c.57.536.923.771 1.911.771h4.955c.817 0 1.481.665 1.481 1.482 0 .815-.664 1.479-1.481 1.479h-8.033a.977.977 0 0 0 0 1.953h8.033a3.437 3.437 0 0 0 3.363-4.13l7.157-3.677c.652-.336 1.545-.302 1.987.415.39.632.172 1.476-.507 1.96"/><path d="M23.12 23.097a3.18 3.18 0 0 0-1.787 2.853c0 1.382.89 2.559 2.126 2.991v1.455c0 1.78 1.448 3.23 3.227 3.23h4.326c1.78 0 3.23-1.45 3.23-3.23V28.94a3.17 3.17 0 0 0 2.125-2.99c0-1.253-.73-2.339-1.787-2.854.428-1.588 1.294-2.771 2.206-4.012 1.402-1.909 2.992-4.072 2.989-7.883 0-.34-.014-.69-.042-1.038a.977.977 0 0 0-1.947.155c.024.297.036.595.036.884.002 3.17-1.267 4.897-2.61 6.726-1.02 1.387-2.068 2.817-2.568 4.85h-7.588c-.5-2.033-1.549-3.463-2.568-4.85-1.344-1.828-2.614-3.555-2.61-6.726.005-3.38 1.453-5.515 2.668-6.71a8.85 8.85 0 0 1 6.318-2.54c1.898-.028 3.8.59 5.354 1.739a.977.977 0 0 0 1.16-1.57A10.8 10.8 0 0 0 28.85 0a10.82 10.82 0 0 0-7.675 3.1c-2.121 2.09-3.245 4.89-3.25 8.1-.004 3.812 1.586 5.976 2.99 7.885.91 1.24 1.778 2.423 2.206 4.011m9.169 7.299c0 .704-.573 1.277-1.277 1.277h-4.326a1.277 1.277 0 0 1-1.274-1.277v-1.277h6.877zm-7.784-5.664h8.69a1.22 1.22 0 0 1 1.22 1.218 1.22 1.22 0 0 1-1.22 1.216h-8.69a1.22 1.22 0 0 1-1.219-1.216 1.22 1.22 0 0 1 1.219-1.218"/><path d="M29.828 7.134a.976.976 0 1 0-1.953 0v6.056a.977.977 0 0 0 1.953 0zm-.976 9.497a.977.977 0 0 0-.977.977v.005c0 .54.437.974.977.974a.979.979 0 0 0 0-1.956m19.532-5.436h-3.966a.977.977 0 0 0 0 1.953h3.966a.976.976 0 1 0 0-1.953m-5.609-6.29a.97.97 0 0 0 .543-.166l3.29-2.209A.976.976 0 1 0 45.52.908l-3.29 2.21a.976.976 0 0 0 .545 1.787m3.834 16.908-3.291-2.21a.976.976 0 1 0-1.089 1.622l3.291 2.21a.976.976 0 1 0 1.088-1.622M9.32 13.148h3.964a.977.977 0 1 0 0-1.953H9.32a.977.977 0 1 0 0 1.953M11.093 2.53l3.29 2.209a.976.976 0 1 0 1.088-1.622L12.182.908a.977.977 0 0 0-1.088 1.622m3.29 17.074-3.291 2.209a.976.976 0 1 0 1.088 1.621l3.291-2.209a.976.976 0 1 0-1.088-1.621M36.86 6.761a.975.975 0 0 0 1.38-.001.978.978 0 0 0-1.384-1.383.977.977 0 0 0 0 1.381z"/></g><defs><clipPath id="a"><path fill="#fff" d="M0 0h50v50H0z"/></clipPath></defs></svg>