<svg xmlns="http://www.w3.org/2000/svg" width="50" height="50" fill="none"><g fill="#000" clip-path="url(#a)"><path d="M44.431 44.203H17.267a.78.78 0 0 1-.734-.586L8.173 8.148h-3.28a.781.781 0 0 1 0-1.515h3.905a.78.78 0 0 1 .735.586l8.36 35.469h26.562a.781.781 0 0 1 0 1.515z"/><path d="M45.108 37.086H15.624a.781.781 0 0 1 0-1.516H44.35V14.586H10.288a.782.782 0 1 1 0-1.516h34.82a.78.78 0 0 1 .781.782v22.476a.78.78 0 0 1-.781.758"/><path d="M45.11 21.57H32.424a.78.78 0 0 1 0-1.515h12.688a.781.781 0 0 1 0 1.515m-.002 4.735H31.62a.781.781 0 0 1 0-1.516h13.49a.781.781 0 0 1 0 1.516m0 4.742H30.815a.782.782 0 0 1 0-1.516h14.297a.783.783 0 0 1 .971.758.782.782 0 0 1-.971.758M25.71 50a3.99 3.99 0 0 1-3.983-3.984v-2.57a.781.781 0 0 1 1.515 0v2.57a2.477 2.477 0 0 0 4.945 0v-2.57a.78.78 0 1 1 1.516 0v2.57A3.99 3.99 0 0 1 25.711 50m15.492 0a3.99 3.99 0 0 1-3.992-3.984v-2.57a.782.782 0 0 1 1.516 0v2.57a2.477 2.477 0 0 0 4.945 0v-2.57a.78.78 0 1 1 1.516 0v2.57A3.99 3.99 0 0 1 41.203 50m.461-35.414a.78.78 0 0 1-.781-.781V12.39H38.28a.78.78 0 0 1-.734-.578 9.3 9.3 0 0 0-1.094-2.641.78.78 0 0 1 .11-.93l1.851-1.851L36.031 4 34.18 5.852a.78.78 0 0 1-.93.109 9.3 9.3 0 0 0-2.633-1.086.78.78 0 0 1-.578-.734V1.516h-3.383V4.14a.78.78 0 0 1-.578.734 9.7 9.7 0 0 0-2.64 1.086.78.78 0 0 1-.922-.11L20.656 4l-2.39 2.39 1.851 1.852a.78.78 0 0 1 .11.922 9.7 9.7 0 0 0-1.086 2.649.78.78 0 0 1-.735.578h-2.625v1.437a.784.784 0 0 1-.758.971.782.782 0 0 1-.757-.97v-2.196a.78.78 0 0 1 .78-.781h2.806c.195-.68.456-1.34.78-1.97l-1.976-1.96a.78.78 0 0 1 0-1.07l3.461-3.461a.78.78 0 0 1 1.07 0l1.985 1.984a11 11 0 0 1 1.969-.781V.78A.78.78 0 0 1 25.92 0h4.9a.78.78 0 0 1 .78.781v2.782c.678.196 1.335.458 1.962.78l1.976-1.984a.78.78 0 0 1 1.078 0l3.461 3.461a.78.78 0 0 1 0 1.07l-2.023 2.016c.325.629.587 1.288.78 1.969h2.798a.78.78 0 0 1 .781.781v2.172a.78.78 0 0 1-.75.758"/><path d="M35.617 14.586a.78.78 0 0 1-.782-.734 6.516 6.516 0 0 0-13.03 0 .78.78 0 1 1-1.493-.047 8.04 8.04 0 0 1 16.062 0 .78.78 0 0 1-.734.781z"/></g><defs><clipPath id="a"><path fill="#fff" d="M0 0h50v50H0z"/></clipPath></defs></svg>