<svg xmlns="http://www.w3.org/2000/svg" width="50" height="50" fill="none"><path fill="#000" fill-rule="evenodd" d="M32.874 38.688a.663.663 0 0 1-.66.662h-4.949a.664.664 0 1 1 0-1.326h4.95c.361 0 .66.297.66.663m0-3.77a.663.663 0 0 1-.66.662h-5.853a.66.66 0 0 1-.66-.663.66.66 0 0 1 .66-.663h5.853c.362 0 .66.297.66.663m0-11.107a.663.663 0 0 1-.66.662h-9.482a.664.664 0 0 1-.666-.662c0-.366.298-.663.666-.663h9.482c.362 0 .66.297.66.663m0 3.77a.664.664 0 0 1-.66.663H24.77a.663.663 0 0 1 0-1.326h7.444c.362 0 .66.297.66.663m0-11.106a.663.663 0 0 1-.66.662h-9.482a.663.663 0 1 1 0-1.325h9.482c.362 0 .66.296.66.663m0-3.77a.663.663 0 0 1-.66.662h-9.482a.663.663 0 1 1 0-1.325h9.482c.362 0 .66.296.66.663m8.86 24.097a2.985 2.985 0 0 1-2.98 2.984 2.986 2.986 0 0 1-2.985-2.984 2.986 2.986 0 0 1 2.985-2.984c.708 0 1.363.25 1.873.665l-2.144 2.598-.958-1.323a.663.663 0 0 0-1.075.778l1.463 2.016c.25.35.77.37 1.049.033l2.5-3.03c.176.38.272.802.272 1.247m1.698-4.675a.66.66 0 0 0-.931.09l-1.027 1.245a4.3 4.3 0 0 0-2.72-.97 4.314 4.314 0 0 0-4.31 4.31 4.313 4.313 0 0 0 4.31 4.309 4.312 4.312 0 0 0 3.614-6.652l1.154-1.4a.66.66 0 0 0-.09-.932m-1.698-6.43a2.985 2.985 0 0 1-2.98 2.983 2.986 2.986 0 0 1-2.985-2.984 2.986 2.986 0 0 1 2.985-2.984c.708 0 1.363.25 1.873.665l-2.144 2.598-.958-1.323a.663.663 0 0 0-1.075.777l1.463 2.017a.663.663 0 0 0 1.049.033l2.5-3.03c.176.38.272.801.272 1.247m1.698-4.676a.66.66 0 0 0-.931.09l-1.027 1.245a4.3 4.3 0 0 0-2.72-.97 4.314 4.314 0 0 0-4.31 4.31 4.313 4.313 0 0 0 4.31 4.309 4.312 4.312 0 0 0 3.614-6.651l1.154-1.4a.66.66 0 0 0-.09-.933m-1.698-6.432a2.985 2.985 0 0 1-2.98 2.984 2.986 2.986 0 0 1-2.985-2.984 2.986 2.986 0 0 1 2.985-2.984c.708 0 1.363.25 1.873.666l-2.144 2.597-.958-1.323a.663.663 0 0 0-1.075.778l1.463 2.017c.25.348.77.37 1.049.032l2.5-3.03c.176.38.272.803.272 1.247m1.698-4.675a.66.66 0 0 0-.931.09l-1.027 1.245a4.3 4.3 0 0 0-2.72-.969 4.314 4.314 0 0 0-4.31 4.31 4.314 4.314 0 0 0 4.31 4.309 4.313 4.313 0 0 0 3.614-6.652l1.154-1.4a.663.663 0 0 0-.09-.933m2.112 31.884V8.2a1.08 1.08 0 0 0-1.08-1.08H20.167a1.08 1.08 0 0 0-1.08 1.08v17.427a4.04 4.04 0 0 1 3.373 3.98c0 1.306-.622 2.47-1.59 3.208a6.66 6.66 0 0 1 4.203 6.183v3.547q0 .171-.032.333h19.423c.596 0 1.08-.485 1.08-1.081m-32.109 1.081a.334.334 0 0 1-.335-.333v-3.547c0-2.93 2.39-5.324 5.327-5.324a5.327 5.327 0 0 1 5.321 5.324v3.547a.333.333 0 0 1-.33.333zm-3.831-3.037 2.176-1.111a6.6 6.6 0 0 1 1.432-3.853 7.95 7.95 0 0 1-2.709-5.965c0-4.145 3.198-7.557 7.258-7.895v-6.07h-.824l-.852 2.627a.68.68 0 0 1-.468.437c-1.022.262-2 .67-2.916 1.21a.65.65 0 0 1-.633.018l-2.464-1.255-2.107 2.106 1.255 2.463a.66.66 0 0 1-.02.638 11.4 11.4 0 0 0-1.209 2.914.65.65 0 0 1-.436.466l-2.629.853v2.977l2.629.854a.66.66 0 0 1 .436.465c.266 1.022.67 2.003 1.208 2.914a.66.66 0 0 1 .021.638l-1.255 2.463zm8.823-7.524a2.716 2.716 0 0 1-2.714-2.71 2.711 2.711 0 1 1 2.714 2.71m-4.295 1.606a6.6 6.6 0 0 1 1.852-1.108 4.03 4.03 0 0 1-1.596-3.209 4.04 4.04 0 0 1 3.374-3.98V22.35a6.606 6.606 0 0 0-5.934 6.564c0 1.928.852 3.763 2.304 5.011m30.332-28.13H20.167a2.41 2.41 0 0 0-2.406 2.407v5.422h-1.309a.67.67 0 0 0-.628.457l-.888 2.745c-.9.26-1.767.619-2.586 1.072l-2.576-1.31a.66.66 0 0 0-.766.121l-2.789 2.786a.67.67 0 0 0-.122.77l1.309 2.573a12.7 12.7 0 0 0-1.07 2.584l-2.745.893a.66.66 0 0 0-.458.63v3.94c0 .287.186.542.458.63l2.745.892c.261.898.618 1.765 1.07 2.585l-1.31 2.573a.67.67 0 0 0 .123.77l2.789 2.785a.66.66 0 0 0 .766.123l2-1.02v2.324c0 .915.746 1.66 1.661 1.66h31.029a2.407 2.407 0 0 0 2.405-2.408V8.201a2.406 2.406 0 0 0-2.405-2.406" clip-rule="evenodd"/></svg>