<svg xmlns="http://www.w3.org/2000/svg" width="50" height="50" fill="none"><path fill="#000" d="M25.001 4.167C13.508 4.167 4.168 13.506 4.168 25c0 10.755 8.169 19.625 18.644 20.72 1.766.184 3.231-1.297 3.231-3.012v-8.333c0-.588.454-1.042 1.042-1.042h13.541c2.025 0 4.056-1.303 4.578-3.373.407-1.617.62-3.278.63-4.952V25c0-11.494-9.34-20.833-20.833-20.833m0 2.083c10.367 0 18.748 8.38 18.75 18.746a18.8 18.8 0 0 1-.57 4.455c-.212.843-1.573 1.799-2.555 1.799H27.085a3.14 3.14 0 0 0-3.125 3.125v8.333c0 .586-.407.995-.928.94C13.6 42.663 6.252 34.701 6.252 25c0-10.368 8.382-18.75 18.75-18.75"/><path fill="#000" d="M13.543 20.833a3.14 3.14 0 0 0-3.125 3.125 3.14 3.14 0 0 0 3.125 3.125 3.14 3.14 0 0 0 3.125-3.125 3.14 3.14 0 0 0-3.125-3.125m0 2.083c.588 0 1.042.454 1.042 1.042S14.13 25 13.543 25a1.026 1.026 0 0 1-1.042-1.042c0-.588.454-1.042 1.042-1.042m22.917-2.083a3.14 3.14 0 0 0-3.124 3.125 3.14 3.14 0 0 0 3.125 3.125 3.14 3.14 0 0 0 3.125-3.125 3.14 3.14 0 0 0-3.125-3.125m0 2.083c.589 0 1.043.454 1.043 1.042S37.049 25 36.46 25a1.026 1.026 0 0 1-1.042-1.042c0-.588.454-1.042 1.042-1.042M18.75 12.5a3.14 3.14 0 0 0-3.125 3.125 3.14 3.14 0 0 0 3.125 3.125 3.14 3.14 0 0 0 3.125-3.125A3.14 3.14 0 0 0 18.75 12.5m0 2.083c.588 0 1.042.454 1.042 1.042s-.454 1.042-1.042 1.042a1.026 1.026 0 0 1-1.042-1.042c0-.588.454-1.042 1.042-1.042m12.5-2.083a3.14 3.14 0 0 0-3.125 3.125 3.14 3.14 0 0 0 3.125 3.125 3.14 3.14 0 0 0 3.125-3.125A3.14 3.14 0 0 0 31.25 12.5m0 2.083c.588 0 1.042.454 1.042 1.042s-.454 1.042-1.042 1.042a1.026 1.026 0 0 1-1.042-1.042c0-.588.454-1.042 1.042-1.042"/></svg>