<svg xmlns="http://www.w3.org/2000/svg" width="50" height="50" fill="none"><g fill="#000" clip-path="url(#a)"><path d="M46.044 38.705c-1.462 0-2.69 1.038-2.955 2.401h-7.788c-1.553 0-2.818-1.242-2.818-2.765v-2.099h7.447c3.91 0 7.091-3.272 7.091-7.287s-3.182-7.28-7.09-7.28c-.47 0-.925.045-1.372.143q.159-.739.159-1.522c0-2.97-1.773-5.516-4.288-6.591.25-1.38 1.834-2.758 3.303-2.758h4.144c2.046 0 3.667-2.06 3.917-4.023 1.409-.25 2.477-1.454 2.477-2.916 0-1.644-1.348-2.978-3.008-2.978s-3.015 1.334-3.015 2.978c0 1.432 1.03 2.62 2.394 2.909C44.4 8.326 43.226 9.81 41.87 9.81h-4.144c-1.97 0-3.97 1.681-4.402 3.53a6.6 6.6 0 0 0-1.568-.19 6.8 6.8 0 0 0-3.402.94V6.773c1.387-.265 2.447-1.47 2.447-2.917 0-1.644-1.348-2.977-3.007-2.977-1.667 0-3.015 1.333-3.015 2.977 0 1.447 1.053 2.652 2.439 2.91v6.787a9.25 9.25 0 0 0-4.947-2.682v-.977c0-2.151-1.773-3.901-3.954-3.901L9.885 6C9.62 4.63 8.4 3.6 6.938 3.6c-1.66 0-3.015 1.333-3.015 2.97 0 1.636 1.356 2.969 3.015 2.969 1.462 0 2.682-1.03 2.947-2.402h8.447c1.553 0 2.818 1.243 2.818 2.766v.84c-.19-.015-.379-.03-.568-.03-5.144 0-9.326 4.303-9.326 9.591v.258h-.129c-4.212 0-7.636 3.515-7.636 7.84 0 4.326 3.424 7.85 7.636 7.85h7.637v6.575c0 1.523-1.266 2.765-2.819 2.765h-9.03C6.65 44.22 5.423 43.19 3.96 43.19c-1.659 0-3.015 1.333-3.015 2.97 0 1.643 1.356 2.977 3.015 2.977a3.01 3.01 0 0 0 2.955-2.41h9.03c2.182 0 3.955-1.75 3.955-3.901V36.25h4.644v6.993c-1.394.265-2.447 1.47-2.447 2.916 0 1.644 1.356 2.977 3.015 2.977s3.008-1.333 3.008-2.977c0-1.447-1.053-2.651-2.44-2.916V36.25h5.667v2.099c0 2.151 1.773 3.901 3.954 3.901h7.788a3.01 3.01 0 0 0 2.955 2.402c1.659 0 3.007-1.334 3.007-2.97s-1.348-2.977-3.007-2.977M43.392 4.008c0-1.015.841-1.841 1.88-1.841 1.03 0 1.87.826 1.87 1.84 0 1.008-.84 1.834-1.87 1.834h-.016c-1.023-.008-1.864-.826-1.864-1.833M6.938 8.402c-1.038 0-1.879-.826-1.879-1.834 0-1.007.84-1.833 1.879-1.833 1.03 0 1.863.818 1.87 1.826v.022c-.007 1-.84 1.819-1.87 1.819M3.96 47.985c-1.037 0-1.878-.826-1.878-1.84 0-1.009.84-1.834 1.878-1.834s1.88.818 1.88 1.825v.016c-.008 1.015-.85 1.833-1.88 1.833m23.023-1.84c0 1.014-.84 1.84-1.871 1.84-1.038 0-1.879-.826-1.879-1.84 0-1.009.841-1.834 1.871-1.834h.008c1.03 0 1.871.825 1.871 1.833m-1.06-42.289c0-1.015.84-1.84 1.878-1.84 1.03 0 1.872.825 1.872 1.84 0 1.008-.841 1.834-1.872 1.834-1.037 0-1.878-.819-1.878-1.834M4.635 28.394c0-3.697 2.916-6.704 6.5-6.704.22 0 .44.007.666.03a.6.6 0 0 0 .455-.152.55.55 0 0 0 .174-.447c-.015-.272-.03-.545-.03-.825 0-4.66 3.674-8.455 8.19-8.455 2.681 0 5.204 1.364 6.742 3.644.007.015.022.023.038.038l.09.09a.3.3 0 0 0 .084.054c.038.023.076.03.121.045.023.008.038.023.068.023h.038c.015 0 .023.008.038.008.03 0 .053-.016.083-.016.038-.007.069-.007.099-.022a.6.6 0 0 0 .121-.06c.023-.016.045-.016.06-.031a5.56 5.56 0 0 1 3.607-1.31c3.204 0 5.81 2.688 5.81 6q0 1.137-.386 2.15a.56.56 0 0 0 .129.607.58.58 0 0 0 .606.128 5.5 5.5 0 0 1 2.007-.37c3.288 0 5.955 2.757 5.955 6.143 0 3.394-2.674 6.152-5.955 6.152h-28.81c-3.591-.008-6.5-3.023-6.5-6.72m41.409 15.114c-1.038 0-1.871-.819-1.879-1.826v-.015c.008-1.008.849-1.826 1.879-1.826s1.871.826 1.871 1.833-.84 1.834-1.871 1.834"/><path d="m19.742 29.357 1.303 2.97a.57.57 0 0 0 1.046-.455l-1.447-3.31-2.743-6.266a.57.57 0 0 0-.522-.34h-.228a.57.57 0 0 0-.522.34l-2.743 6.265-1.447 3.31a.57.57 0 1 0 1.046.455l1.303-2.97zm-2.485-5.667 1.985 4.53h-3.97zm15.773 9c.31 0 .567-.258.567-.569v-9.575a.57.57 0 0 0-.568-.569.57.57 0 0 0-.568.569v9.575c0 .311.25.569.568.569m-8.515-.023c.31 0 .568-.258.568-.568V27.25h2.666A2.654 2.654 0 0 0 30.4 24.6a2.654 2.654 0 0 0-2.652-2.652h-3.235a.57.57 0 0 0-.568.568v9.576c0 .326.25.576.569.576m.568-9.576h2.666a1.52 1.52 0 0 1 1.515 1.515 1.52 1.52 0 0 1-1.515 1.515h-2.666z"/></g><defs><clipPath id="a"><path fill="#fff" d="M0 0h50v50H0z"/></clipPath></defs></svg>