<svg xmlns="http://www.w3.org/2000/svg" width="50" height="50" fill="none"><path fill="#000" d="M26.203 37.49H23.8a2.195 2.195 0 0 1-2.201-2.184v-1.017a.46.46 0 0 0-.297-.408c-.196-.078-.389-.049-.51.071l-.728.722a2.217 2.217 0 0 1-3.113 0l-1.7-1.686a2.174 2.174 0 0 1 0-3.089l.728-.722a.44.44 0 0 0 .08-.488c-.082-.197-.243-.313-.419-.313h-1.024a2.196 2.196 0 0 1-2.202-2.185v-2.385c0-1.204.988-2.184 2.202-2.184h1.024a.46.46 0 0 0 .412-.296c.08-.193.049-.385-.073-.505l-.727-.723a2.175 2.175 0 0 1 0-3.089l1.699-1.686c.83-.825 2.28-.825 3.113 0l.728.723a.45.45 0 0 0 .492.078c.199-.081.316-.24.316-.415v-1.017c0-1.204.987-2.185 2.2-2.185h2.403c1.214 0 2.202.98 2.202 2.185v1.017c0 .174.117.334.297.408.196.08.389.05.51-.071l.728-.723c.83-.825 2.282-.825 3.113 0l1.699 1.686a2.176 2.176 0 0 1 0 3.09l-.728.722a.44.44 0 0 0-.079.488c.083.197.243.313.418.313h1.024c1.214 0 2.202.98 2.202 2.184v2.385a2.196 2.196 0 0 1-2.202 2.185h-1.024a.46.46 0 0 0-.41.295c-.083.197-.052.384.07.506l.729.722a2.175 2.175 0 0 1 0 3.089l-1.7 1.686a2.216 2.216 0 0 1-3.112 0l-.728-.722a.44.44 0 0 0-.49-.078l-.02.007c-.19.089-.297.242-.297.408v1.017a2.2 2.2 0 0 1-2.203 2.184m-5.116-5.405c.291 0 .586.056.868.171.86.35 1.407 1.147 1.407 2.033v1.017c0 .239.196.434.438.434h2.403a.436.436 0 0 0 .437-.434v-1.017c0-.886.546-1.682 1.391-2.026l.05-.02c.83-.324 1.76-.143 2.377.471l.728.723c.17.17.448.17.618 0l1.7-1.687a.43.43 0 0 0 0-.613l-.728-.723a2.17 2.17 0 0 1-.483-2.34l.035-.086a2.2 2.2 0 0 1 2.034-1.363h1.024a.436.436 0 0 0 .438-.434v-2.385a.436.436 0 0 0-.438-.434h-1.024a2.21 2.21 0 0 1-2.042-1.38c-.352-.847-.171-1.787.456-2.409l.727-.722a.433.433 0 0 0 0-.614l-1.699-1.686a.44.44 0 0 0-.618 0l-.727.722a2.215 2.215 0 0 1-2.412.46c-.86-.352-1.406-1.147-1.406-2.034v-1.017a.436.436 0 0 0-.438-.434H23.8a.436.436 0 0 0-.438.434v1.017c0 .888-.546 1.683-1.392 2.028-.852.348-1.8.17-2.426-.453l-.727-.722a.44.44 0 0 0-.62 0L16.5 18.247a.433.433 0 0 0 0 .615l.727.722c.627.622.81 1.562.463 2.393-.354.854-1.155 1.396-2.05 1.396h-1.023a.436.436 0 0 0-.438.434v2.385c0 .24.197.434.438.434h1.024c.894 0 1.695.542 2.043 1.38.352.848.17 1.787-.457 2.41l-.727.722a.43.43 0 0 0 0 .613l1.699 1.687c.17.17.448.17.619 0l.727-.723a2.18 2.18 0 0 1 1.542-.63"/><path fill="#000" d="M25.001 29.867c-2.703 0-4.903-2.183-4.903-4.867 0-2.683 2.2-4.866 4.903-4.866 2.705 0 4.904 2.183 4.904 4.866 0 2.684-2.2 4.867-4.904 4.867m0-7.983c-1.731 0-3.14 1.398-3.14 3.116s1.41 3.116 3.14 3.116 3.14-1.398 3.14-3.116-1.408-3.116-3.14-3.116m-18.458.926a.876.876 0 0 1-.874-1c1.157-7.936 7.238-14.423 15.133-16.144a.874.874 0 1 1 .378 1.709C13.998 8.94 8.467 14.841 7.414 22.06a.88.88 0 0 1-.872.75M20.99 43.575a1 1 0 0 1-.19-.02c-8.061-1.757-14.162-8.396-15.184-16.521a.883.883 0 0 1 1.75-.217c.93 7.391 6.48 13.431 13.813 15.029.476.103.777.57.672 1.042a.88.88 0 0 1-.861.687m7.27.151a.88.88 0 0 1-.868-.724.876.876 0 0 1 .717-1.014c7.608-1.326 13.59-7.566 14.546-15.172a.88.88 0 0 1 .985-.76c.483.06.825.498.766.977-1.051 8.363-7.627 15.221-15.991 16.68a1 1 0 0 1-.155.013M43.479 22.81a.88.88 0 0 1-.872-.75C41.505 14.51 35.68 8.55 28.11 7.23a.88.88 0 0 1-.717-1.013.88.88 0 0 1 1.021-.71c8.324 1.45 14.729 8.002 15.939 16.302a.875.875 0 0 1-.873 1"/><path fill="#000" d="M20.1 10.728q-.15 0-.3-.053a.875.875 0 0 1-.53-1.121l1.143-3.125-3.226-1.16a.874.874 0 0 1-.529-1.12.885.885 0 0 1 1.13-.525l4.054 1.457a.87.87 0 0 1 .53 1.12l-1.442 3.95a.88.88 0 0 1-.83.577m23.754 12.494a.9.9 0 0 1-.436-.115l-3.675-2.08a.87.87 0 0 1-.33-1.194.883.883 0 0 1 1.204-.327l2.91 1.648 1.7-2.957a.884.884 0 0 1 1.202-.327.87.87 0 0 1 .329 1.194L44.62 22.78a.88.88 0 0 1-.767.442M30.928 46.429a.88.88 0 0 1-.566-.205l-3.305-2.749a.875.875 0 0 1-.109-1.233l2.72-3.218a.89.89 0 0 1 1.243-.109.87.87 0 0 1 .11 1.233l-2.153 2.548 2.629 2.187c.373.31.422.864.11 1.233a.9.9 0 0 1-.68.313M4.006 30.925a.878.878 0 0 1-.713-1.391l2.538-3.46a.886.886 0 0 1 1.232-.192l3.421 2.47c.394.285.48.832.195 1.224a.887.887 0 0 1-1.232.192l-2.709-1.956-2.019 2.752a.88.88 0 0 1-.713.361"/></svg>