<svg xmlns="http://www.w3.org/2000/svg" width="50" height="50" fill="none"><path fill="#000" d="M43.75 5.469H6.25a3.13 3.13 0 0 0-3.125 3.125v26.562a3.13 3.13 0 0 0 3.125 3.125h5.68a.781.781 0 1 0 0-1.562H6.25a1.564 1.564 0 0 1-1.562-1.563V13.281h10.614c.92 0 1.786-.36 2.438-1.01.356-.355.83-.552 1.333-.552h23.115c1.01-.007 1.038-1.547 0-1.562H19.073a3.43 3.43 0 0 0-2.438 1.01c-.356.355-.83.551-1.333.551H4.688V8.594c0-.862.7-1.563 1.562-1.563h37.5c.862 0 1.563.701 1.563 1.563v26.562c0 .862-.701 1.563-1.563 1.563h-5.539a.781.781 0 1 0 0 1.562h5.539a3.13 3.13 0 0 0 3.125-3.125V8.594a3.13 3.13 0 0 0-3.125-3.125"/><path fill="#000" d="M12.89 9.375c.018 1.027 1.546 1.026 1.563 0-.017-1.027-1.545-1.027-1.562 0m-3.125 0c.017 1.027 1.545 1.026 1.562 0-.017-1.027-1.545-1.027-1.562 0m-3.126 0c.018 1.027 1.546 1.026 1.563 0-.017-1.027-1.545-1.027-1.562 0M23.76 21.161c.898.112 1.773.37 2.604.766a.782.782 0 0 0 .674-1.41 10 10 0 0 0-3.085-.906c-3.157-.389-6.244.662-8.474 2.89-8.306 8.685 2.128 21.897 12.505 15.82l5.521 5.528a2.36 2.36 0 0 0 3.32-.01c.893-.88.897-2.442-.007-3.31l-5.52-5.517c2.154-3.433 2.008-8.042-.442-11.312l3.065-3.065v1.429c.016 1.03 1.548 1.024 1.563 0V18.75a.79.79 0 0 0-.483-.721c.102-.152-3.561-.015-3.614-.06a.781.781 0 1 0 0 1.562h1.43l-9.604 9.602-2.211-2.211a.78.78 0 0 0-1.105 0l-3.172 3.171c-.714.724.375 1.826 1.105 1.105l2.62-2.62 2.21 2.21c.298.363.957.218 1.11-.003l4.522-4.521c.885-.804 1.456-1.654 1.514-1.334 2 2.925 1.913 6.919-.174 9.771-.238.297-.055.859.113.966.143.143 5.977 5.975 5.998 6 .265.324.285.762-.066 1.108-.3.324-.927.173-1.072-.036-.151-.151-5.969-5.979-6.003-6.008-.307-.279-.765-.247-1.075.022-5.154 3.711-12.803.24-13.411-6.09-.73-5.39 4.257-10.31 9.645-9.502"/></svg>