<svg xmlns="http://www.w3.org/2000/svg" width="50" height="50" fill="none"><g clip-path="url(#a)"><path fill="#000" d="m35.235 31.91-.697-1.569c.437-.773.777-1.593 1.014-2.447l1.602-.616a.78.78 0 0 0 .5-.73v-.832h3.529a3.61 3.61 0 0 0 3.517 2.822 3.607 3.607 0 0 0 3.603-3.603A3.61 3.61 0 0 0 44.7 21.33a3.61 3.61 0 0 0-3.517 2.822h-3.529v-.833a.78.78 0 0 0-.5-.729l-1.601-.616a11 11 0 0 0-1.015-2.448l.697-1.569a.78.78 0 0 0-.162-.869l-2.283-2.283a.78.78 0 0 0-.87-.162l-1.569.697a11 11 0 0 0-2.446-1.014l-.617-1.601a.78.78 0 0 0-.729-.501h-.833V8.697a3.61 3.61 0 0 0 2.822-3.518 3.61 3.61 0 0 0-3.603-3.603 3.607 3.607 0 0 0-3.604 3.603c0 1.719 1.21 3.16 2.823 3.517v3.529h-.834a.78.78 0 0 0-.729.5l-.616 1.602c-.854.238-1.674.578-2.447 1.015l-1.57-.698a.78.78 0 0 0-.869.162l-2.283 2.283a.78.78 0 0 0-.161.87l.697 1.569a11 11 0 0 0-1.015 2.447l-1.601.616a.78.78 0 0 0-.5.73v.832h-3.53a3.61 3.61 0 0 0-3.516-2.822 3.607 3.607 0 0 0-3.604 3.604 3.61 3.61 0 0 0 3.604 3.603 3.61 3.61 0 0 0 3.517-2.822h3.528v.833c0 .323.2.613.5.729l1.602.616a11 11 0 0 0 1.014 2.448l-.697 1.569a.78.78 0 0 0 .162.87l2.283 2.282a.78.78 0 0 0 .87.162l1.57-.697c.772.436 1.592.776 2.446 1.014l.616 1.602c.116.301.406.5.73.5h.832v3.529a3.61 3.61 0 0 0-2.822 3.517 3.61 3.61 0 0 0 3.604 3.603 3.61 3.61 0 0 0 3.603-3.603 3.61 3.61 0 0 0-2.822-3.517v-3.529h.833a.78.78 0 0 0 .73-.5l.616-1.602a11 11 0 0 0 2.447-1.014l1.569.697a.78.78 0 0 0 .87-.162l2.282-2.283a.78.78 0 0 0 .162-.87m9.465-9.016c1.126 0 2.041.915 2.041 2.04s-.915 2.041-2.04 2.041a2.043 2.043 0 0 1-2.042-2.04c0-1.126.916-2.041 2.041-2.041M22.904 5.179a2.042 2.042 0 0 1 4.082 0 2.044 2.044 0 0 1-2.041 2.041 2.043 2.043 0 0 1-2.041-2.04M5.19 26.976a2.043 2.043 0 0 1-2.041-2.041c0-1.126.915-2.041 2.04-2.041s2.041.915 2.041 2.04-.915 2.041-2.04 2.041M26.986 44.69a2.043 2.043 0 0 1-2.041 2.04 2.043 2.043 0 0 1-2.041-2.04c0-1.125.916-2.041 2.04-2.041 1.126 0 2.042.916 2.042 2.04m7.15-17.561a9.4 9.4 0 0 1-1.14 2.752.78.78 0 0 0-.05.727l.643 1.447-1.524 1.524-1.446-.642a.78.78 0 0 0-.727.049c-.854.525-1.78.91-2.753 1.14a.78.78 0 0 0-.548.48l-.568 1.476h-2.156l-.568-1.476a.78.78 0 0 0-.548-.48 9.4 9.4 0 0 1-2.753-1.14.78.78 0 0 0-.726-.05l-1.447.643-1.524-1.524.642-1.446a.78.78 0 0 0-.049-.727 9.4 9.4 0 0 1-1.141-2.753.78.78 0 0 0-.48-.548l-1.475-.568v-2.156l1.476-.568a.78.78 0 0 0 .479-.548 9.4 9.4 0 0 1 1.141-2.753.78.78 0 0 0 .049-.727l-.643-1.446 1.525-1.525 1.447.643a.78.78 0 0 0 .726-.049 9.4 9.4 0 0 1 2.753-1.14.78.78 0 0 0 .548-.48l.568-1.476h2.156l.568 1.476c.092.24.298.42.548.48a9.4 9.4 0 0 1 2.753 1.14c.219.135.49.154.726.05l1.447-.643 1.524 1.524-.642 1.446a.78.78 0 0 0 .049.727c.526.854.91 1.78 1.141 2.753.06.25.24.456.48.548l1.475.568v2.156l-1.476.568a.78.78 0 0 0-.48.548m-9.191-8.606a6.42 6.42 0 0 0-6.412 6.412 6.42 6.42 0 0 0 6.412 6.412 6.42 6.42 0 0 0 6.412-6.412 6.42 6.42 0 0 0-6.412-6.412m0 11.261a4.855 4.855 0 0 1-4.85-4.85 4.855 4.855 0 0 1 4.85-4.849 4.855 4.855 0 0 1 4.85 4.85 4.855 4.855 0 0 1-4.85 4.85M6.747 11.247l-.663.66a1.31 1.31 0 0 0-.317 1.362c.165.48.582.817 1.087.879l6.635.805q.081.01.161.01c.346 0 .677-.136.926-.384a1.31 1.31 0 0 0 .38-1.085l-.775-6.639a1.31 1.31 0 0 0-.873-1.091 1.31 1.31 0 0 0-1.363.31l-.663.66-5.696-5.723A.78.78 0 0 0 4.48 1.01L1.06 4.43a.78.78 0 0 0 0 1.103zM5.031 2.67l5.694 5.721a.78.78 0 0 0 .552.23h.002a.78.78 0 0 0 .551-.227l.858-.854.68 5.825-5.823-.707.858-.854a.78.78 0 0 0 .003-1.104l-5.69-5.716zm31.322 12.294q.08 0 .161-.01l6.635-.805a1.31 1.31 0 0 0 1.087-.88 1.31 1.31 0 0 0-.317-1.36l-.663-.66 5.687-5.716a.78.78 0 0 0 0-1.103l-3.42-3.419a.78.78 0 0 0-.552-.229h-.001a.78.78 0 0 0-.553.23l-5.696 5.723-.663-.66a1.31 1.31 0 0 0-1.363-.31c-.48.167-.815.586-.873 1.091l-.774 6.639a1.31 1.31 0 0 0 .379 1.085c.25.248.58.384.926.384m.962-7.424.858.854a.78.78 0 0 0 .551.228h.002a.78.78 0 0 0 .552-.23l5.694-5.722 2.314 2.314-5.689 5.716a.78.78 0 0 0 .003 1.105l.858.854-5.822.707zM13.489 35.047l-6.635.805a1.31 1.31 0 0 0-1.087.88 1.31 1.31 0 0 0 .317 1.36l.663.66-5.687 5.716a.78.78 0 0 0 0 1.103l3.42 3.419a.78.78 0 0 0 .552.229h.001a.78.78 0 0 0 .553-.23l5.696-5.723.663.66c.36.359.883.478 1.363.31s.815-.586.873-1.091l.774-6.639a1.31 1.31 0 0 0-.379-1.085 1.31 1.31 0 0 0-1.087-.374m-.8 7.414-.859-.854a.78.78 0 0 0-.55-.228h-.003a.78.78 0 0 0-.552.23l-5.694 5.722-2.314-2.314 5.689-5.716a.78.78 0 0 0-.003-1.105l-.858-.853 5.822-.707zm36.255 2.007-5.688-5.715.663-.66c.36-.36.482-.881.317-1.362a1.31 1.31 0 0 0-1.087-.879l-6.635-.805c-.404-.05-.8.087-1.087.374a1.31 1.31 0 0 0-.38 1.085l.775 6.639c.059.505.393.923.873 1.09.48.169 1.002.05 1.363-.31l.663-.66 5.696 5.724c.147.147.346.23.553.23h.001a.78.78 0 0 0 .552-.23l3.42-3.418a.78.78 0 0 0 0-1.103m-3.972 2.863-5.694-5.721a.78.78 0 0 0-.552-.23h-.002a.78.78 0 0 0-.551.227l-.858.854-.68-5.825 5.823.707-.858.853a.78.78 0 0 0-.003 1.105l5.69 5.716z"/></g><defs><clipPath id="a"><path fill="#fff" d="M0 0h50v50H0z"/></clipPath></defs></svg>