<svg xmlns="http://www.w3.org/2000/svg" width="50" height="50" fill="none"><g fill="#000" clip-path="url(#a)"><path d="M39.746 15.723h-9.765a5.866 5.866 0 0 0-5.86 5.859c0 3.23 2.629 5.86 5.86 5.86h9.765c3.231 0 5.86-2.63 5.86-5.86s-2.629-5.86-5.86-5.86m0 9.765h-9.765a3.91 3.91 0 0 1-3.907-3.906 3.91 3.91 0 0 1 3.907-3.906h9.765a3.91 3.91 0 0 1 3.906 3.906 3.91 3.91 0 0 1-3.906 3.906"/><path d="M29.98 20.117a1.465 1.465 0 1 0-.001 2.93 1.465 1.465 0 0 0 .002-2.93m9.766 0za1.465 1.465 0 1 0-.002 2.93 1.465 1.465 0 0 0 .002-2.93"/><path d="M45.117 10.84H35.84V8.733a3.18 3.18 0 0 0 2.197-3.02 3.177 3.177 0 0 0-3.174-3.174 3.177 3.177 0 0 0-3.173 3.174 3.18 3.18 0 0 0 2.197 3.02v2.107H24.61a4.89 4.89 0 0 0-4.883 4.883v8.3H4.883A4.89 4.89 0 0 0 0 28.906v9.766a4.89 4.89 0 0 0 3.906 4.784v3.028a.977.977 0 0 0 1.414.874l7.606-3.803H25.39a4.89 4.89 0 0 0 4.882-4.883v-6.348h6.801l7.607 3.803a.976.976 0 0 0 1.413-.873v-3.028A4.89 4.89 0 0 0 50 27.44V15.723a4.89 4.89 0 0 0-4.883-4.883M34.863 4.492a1.221 1.221 0 1 1-1.22 1.221c0-.673.547-1.22 1.22-1.22m-6.543 34.18a2.933 2.933 0 0 1-2.93 2.93H12.696a1 1 0 0 0-.436.103l-6.4 3.2v-2.327a.977.977 0 0 0-.976-.977 2.933 2.933 0 0 1-2.93-2.93v-9.765a2.933 2.933 0 0 1 2.93-2.93h14.844v1.465a4.89 4.89 0 0 0 4.883 4.883h3.71zm19.727-11.23a2.933 2.933 0 0 1-2.93 2.929.977.977 0 0 0-.976.977v2.326l-6.4-3.2a1 1 0 0 0-.436-.103H24.61a2.933 2.933 0 0 1-2.93-2.93V15.723a2.933 2.933 0 0 1 2.93-2.93h20.507a2.933 2.933 0 0 1 2.93 2.93z"/><path d="M10.743 32.813za.976.976 0 1 0-.001 1.952.976.976 0 0 0 .002-1.953m4.394.001a.976.976 0 1 0-.002 1.952.976.976 0 0 0 .002-1.953m4.395.001h-.001a.976.976 0 1 0-.001 1.952.976.976 0 0 0 .002-1.953"/></g><defs><clipPath id="a"><path fill="#fff" d="M0 0h50v50H0z"/></clipPath></defs></svg>