<svg xmlns="http://www.w3.org/2000/svg" width="50" height="50" fill="none"><path fill="#000" d="M44.56 8.333h-5.422C37.773 3.531 33.358 0 28.124 0s-9.65 3.531-11.014 8.333h-6.782l-.34-1.166a4.19 4.19 0 0 0-4-3H3.124a1.041 1.041 0 1 0 0 2.083h2.864c.92 0 1.743.617 2 1.5l6.484 22.23-3.322 4.153a3.358 3.358 0 0 0 2.62 5.45h28.937a1.041 1.041 0 1 0 0-2.083H13.77a1.273 1.273 0 0 1-.993-2.066l3.348-4.184h20.432a4.18 4.18 0 0 0 3.77-2.393l7.27-15.447a3.4 3.4 0 0 0 .318-1.427v-.295a3.36 3.36 0 0 0-3.355-3.355m-16.436-6.25c5.17 0 9.375 4.206 9.375 9.375 0 5.17-4.206 9.375-9.375 9.375-5.17 0-9.375-4.205-9.375-9.375s4.205-9.375 9.375-9.375m17.708 9.9c0 .186-.042.373-.121.541L38.443 27.97a2.09 2.09 0 0 1-1.886 1.197H16.405l-5.47-18.75h5.783c-.031.343-.053.69-.053 1.041 0 6.319 5.14 11.459 11.459 11.459 6.318 0 11.458-5.14 11.458-11.459 0-.351-.022-.698-.053-1.041h5.031c.701 0 1.272.57 1.272 1.271zM14.58 41.667a4.17 4.17 0 0 0-4.166 4.166A4.17 4.17 0 0 0 14.581 50a4.17 4.17 0 0 0 4.166-4.167 4.17 4.17 0 0 0-4.166-4.166m0 6.25a2.086 2.086 0 0 1-2.082-2.084c0-1.148.934-2.083 2.083-2.083 1.148 0 2.083.935 2.083 2.083a2.086 2.086 0 0 1-2.083 2.084m24.998-6.25a4.17 4.17 0 0 0-4.166 4.166A4.17 4.17 0 0 0 39.581 50a4.17 4.17 0 0 0 4.166-4.167 4.17 4.17 0 0 0-4.166-4.166m0 6.25a2.086 2.086 0 0 1-2.082-2.084c0-1.148.934-2.083 2.083-2.083 1.148 0 2.083.935 2.083 2.083a2.086 2.086 0 0 1-2.083 2.084"/><path fill="#000" d="M25.305 16.361a1.04 1.04 0 0 0 1.473 0L34.07 9.07a1.041 1.041 0 1 0-1.473-1.473l-6.555 6.555-2.389-2.389a1.041 1.041 0 1 0-1.473 1.473z"/></svg>