<svg xmlns="http://www.w3.org/2000/svg" width="50" height="50" fill="none"><g fill="#000" clip-path="url(#a)"><path d="M31.529 4.935h-.003a.978.978 0 1 0 .003 0m4.365 0h-.006a.974.974 0 0 0-.974.977c0 .54.44.977.98.977a.977.977 0 0 0 0-1.954m-8.732 0h-.003a.978.978 0 1 0 .003 0m-9.156 0H5.852a.977.977 0 0 0 0 1.954h12.153a.977.977 0 0 0 0-1.954m-1.916 22.054h3.48c.882 0 1.6-.718 1.6-1.6V16.65c0-.884-.718-1.603-1.6-1.603h-8.754c-.883 0-1.601.719-1.601 1.603v3.47c-2.846.463-5.026 2.933-5.026 5.902 0 3.298 2.687 5.98 5.991 5.98a5.996 5.996 0 0 0 5.91-5.014m-4.922-4.87a4.05 4.05 0 0 1 2.925 2.916h-2.925zm8.049-5.117v8.033h-3.131a6 6 0 0 0-4.918-4.91v-3.123zM6.141 26.023a4.035 4.035 0 0 1 3.073-3.909v3.275c0 .882.718 1.6 1.6 1.6h3.283a4.037 4.037 0 0 1-7.956-.966"/><path d="M49.637 44.334 41.745 33.46v-9.79l1.467-2.778 2.961-1.558a.977.977 0 0 0 0-1.73l-2.96-1.557-1.468-2.78V3.444c0-1.521-1.24-2.76-2.762-2.76H2.763A2.764 2.764 0 0 0 0 3.444v14.129a.977.977 0 1 0 1.953 0V11.14h37.839v2.205l-1.428 2.704-2.961 1.558a.977.977 0 0 0 0 1.73l2.961 1.557 1.428 2.704v7.173L30.109 17.43a1.93 1.93 0 0 0-2.688-.432l-2.668 1.93a1.92 1.92 0 0 0-.43 2.69L34.7 35.914h-5.77l-3.589-1.887-2.002-3.794a.977.977 0 0 0-1.727 0l-2.002 3.794-3.589 1.887H2.763a.82.82 0 0 1-.81-.806v-8.642a.977.977 0 1 0-1.953 0v8.642c0 1.522 1.24 2.76 2.763 2.76H16.02l3.589 1.886 2.002 3.795a.977.977 0 0 0 1.727 0l2.002-3.795 3.589-1.886h7.19L43.85 48.52a1.93 1.93 0 0 0 2.689.432l2.664-1.93a1.93 1.93 0 0 0 .433-2.69M1.953 9.185V3.443c0-.436.37-.805.81-.805h36.22c.446 0 .809.361.809.805v5.742zm37.588 10.12-1.585-.835 1.585-.833a1 1 0 0 0 .41-.409l.837-1.588.838 1.588a1 1 0 0 0 .41.409l1.585.833-1.586.834a1 1 0 0 0-.409.409l-.838 1.587-.838-1.587a1 1 0 0 0-.409-.409M24.164 38.165a1 1 0 0 0-.41.41L22.474 41l-1.28-2.426a1 1 0 0 0-.409-.409l-2.425-1.274 2.425-1.275a1 1 0 0 0 .41-.409l1.28-2.425 1.279 2.425a1 1 0 0 0 .41.41l2.424 1.274zm4.379-19.57 3.38 4.656L29.3 25.15l-3.38-4.656zm16.874 28.758L30.448 26.73l2.622-1.897 6.881 9.48a1 1 0 0 0 .059.082l8.027 11.06z"/><path d="M.977 22.998a.978.978 0 0 0 0-1.956.977.977 0 0 0-.977.977v.003c0 .54.437.976.977.976"/></g><defs><clipPath id="a"><path fill="#fff" d="M0 0h50v50H0z"/></clipPath></defs></svg>