<svg xmlns="http://www.w3.org/2000/svg" width="50" height="50" fill="none"><path fill="#000" d="M45.765 42.637h-.598V18.568c0-1.538-1.25-2.78-2.78-2.78h-8.97c0-1.417-.235-2.81-.705-4.114-1.462-4.128-3.939-7.575-7.348-10.25a.735.735 0 0 0-.947-.023c-.008.008-.023.016-.03.023-3.402 2.675-5.872 6.114-7.349 10.243a12.3 12.3 0 0 0-.697 4.129h-8.72a2.78 2.78 0 0 0-2.78 2.78v24.068h-.606a.727.727 0 0 0-.727.727v2.75a2.646 2.646 0 0 0 2.644 2.644h37.697a2.646 2.646 0 0 0 2.644-2.644v-2.75a.73.73 0 0 0-.728-.734m-23.22-2.894a.73.73 0 0 0 .395-.644v-2.523h4.272v2.265c0 .25.13.477.334.614.212.136.47.151.697.045.257-.113.545-.182.833-.182 1.06 0 1.947.796 2.053 1.856.023.25.174.463.401.576a.75.75 0 0 0 .705-.03c.318-.19.682-.288 1.06-.288.826 0 1.546.492 1.872 1.205h-20.56a2.05 2.05 0 0 1 1.87-1.205c.357 0 .705.09 1.016.265a.74.74 0 0 0 .69.008.71.71 0 0 0 .385-.56 2.06 2.06 0 0 1 3.22-1.448c.22.152.515.174.758.046m21.167-21.175v24.069h-7.007a3.516 3.516 0 0 0-3.41-2.667q-.477.002-.931.129a3.51 3.51 0 0 0-3.28-2.235q-.205 0-.41.023v-1.319h.296c.886 0 1.651-.666 1.78-1.537l.334-2.288c1.575 1.166 2.962 2.704 4.128 4.583a1.09 1.09 0 0 0 1.114.5 1.1 1.1 0 0 0 .894-.856c.485-2.242.409-4.667-.235-7.212l-.023-.084c-1-2.636-2.538-4.613-4.56-5.916l.894-6.084q.032-.215.053-.431h9.045c.72 0 1.318.598 1.318 1.325M32.16 25.371c1.478 1.122 2.63 2.72 3.425 4.788.492 1.978.613 3.872.363 5.644-1.318-1.924-2.871-3.492-4.629-4.666zm-7.28-22.47a20.4 20.4 0 0 1 3.977 4.357 26.9 26.9 0 0 0-7.947-.008c.008-.007-.007-.007-.007-.007a21.2 21.2 0 0 1 3.977-4.341m-6.462 9.25a22.4 22.4 0 0 1 1.47-3.242c3.356-.659 6.704-.659 9.977 0a21.4 21.4 0 0 1 1.47 3.25c.598 1.667.772 3.5.507 5.303l-2.545 17.356a.35.35 0 0 1-.341.296h-8.152a.337.337 0 0 1-.34-.296l-.5-3.424c0-.015 0-.023-.008-.038l-1.068-7.318-.963-6.568a11.04 11.04 0 0 1 .493-5.318m.03 18.986c-1.757 1.174-3.318 2.734-4.629 4.666-.25-1.772-.128-3.666.364-5.644.795-2.075 1.947-3.674 3.417-4.788zM6.296 18.568c0-.735.59-1.325 1.325-1.325h8.811q.02.216.053.431l.886 6.084c-2.015 1.288-3.553 3.273-4.56 5.916q-.012.036-.023.084c-.644 2.538-.72 4.97-.235 7.212a1.098 1.098 0 0 0 2.008.356c1.166-1.879 2.553-3.41 4.121-4.583l.333 2.28a1.81 1.81 0 0 0 1.788 1.538h.682v1.401a3.6 3.6 0 0 0-.864-.106c-1.477 0-2.757.91-3.272 2.22a3.7 3.7 0 0 0-.872-.106 3.51 3.51 0 0 0-3.409 2.667H6.296zm38.742 27.553c0 .652-.53 1.182-1.19 1.182H6.153c-.652 0-1.182-.53-1.182-1.182V44.1h40.068z"/><path fill="#000" d="M28.688 44.97h-7.386a.728.728 0 0 0 0 1.454h7.386a.727.727 0 0 0 0-1.454m-3.906-24.379a4.6 4.6 0 0 0 4.599-4.599 4.6 4.6 0 0 0-4.599-4.598 4.6 4.6 0 0 0-4.598 4.599c-.008 2.53 2.06 4.598 4.598 4.598m0-7.75a3.146 3.146 0 0 1 3.144 3.144 3.146 3.146 0 0 1-3.144 3.144 3.146 3.146 0 0 1-3.144-3.144 3.146 3.146 0 0 1 3.144-3.144m10.105-7.144.28-.28v5.053a.728.728 0 0 0 1.455 0V5.425l.28.28a.72.72 0 0 0 .515.212c.19 0 .371-.068.515-.212a.72.72 0 0 0 0-1.03L36.41 3.152a.723.723 0 0 0-1.03 0l-1.524 1.523a.723.723 0 0 0 0 1.03.73.73 0 0 0 1.03-.008M13.09 8.069l.28-.28v5.052a.727.727 0 0 0 1.455 0V7.788l.28.28a.72.72 0 0 0 .515.213c.19 0 .372-.068.515-.212a.72.72 0 0 0 0-1.03l-1.522-1.523a.75.75 0 0 0-1.03 0L12.06 7.038a.72.72 0 0 0 0 1.03c.287.28.742.28 1.03 0"/></svg>