<svg xmlns="http://www.w3.org/2000/svg" width="50" height="50" fill="none"><path fill="#000" d="M31.473 17.534a6.48 6.48 0 0 0-6.475-6.475c-3.566 0-6.475 2.908-6.475 6.475s2.909 6.475 6.475 6.475c3.567 0 6.475-2.9 6.475-6.475m-11.283 0a4.815 4.815 0 0 1 4.808-4.809 4.816 4.816 0 0 1 4.809 4.809 4.816 4.816 0 0 1-4.809 4.808 4.81 4.81 0 0 1-4.808-4.808"/><path fill="#000" d="M11.35 45.834a4.296 4.296 0 0 0 4.292-4.292 4.3 4.3 0 0 0-3.458-4.208v-2.425h11.983v2.425a4.3 4.3 0 0 0-3.458 4.208A4.296 4.296 0 0 0 25 45.834a4.296 4.296 0 0 0 4.292-4.292 4.3 4.3 0 0 0-3.458-4.208v-2.425h11.983v2.425a4.3 4.3 0 0 0-3.458 4.208 4.296 4.296 0 0 0 4.291 4.292 4.296 4.296 0 0 0 4.292-4.292 4.3 4.3 0 0 0-3.458-4.208v-3.259a.836.836 0 0 0-.834-.833H25.834V30.9h.883a.83.83 0 0 0 .825-.75l.258-2.458a10.7 10.7 0 0 0 2.409-1l1.916 1.55a.84.84 0 0 0 1.117-.058l2.425-2.425a.84.84 0 0 0 .058-1.117l-1.558-1.9c.433-.758.767-1.567 1-2.408l2.45-.259a.83.83 0 0 0 .75-.825v-3.433a.83.83 0 0 0-.75-.825l-2.45-.258a10.7 10.7 0 0 0-1-2.409l1.558-1.916a.84.84 0 0 0-.058-1.117l-2.425-2.425a.84.84 0 0 0-1.117-.058l-1.916 1.55a10.5 10.5 0 0 0-2.409-1l-.258-2.442a.83.83 0 0 0-.825-.75h-3.433a.83.83 0 0 0-.825.75L22.2 7.375a10.7 10.7 0 0 0-2.408 1l-1.917-1.55a.84.84 0 0 0-1.116.059l-2.425 2.425a.84.84 0 0 0-.059 1.116l1.559 1.917a10.5 10.5 0 0 0-1 2.408l-2.45.259a.83.83 0 0 0-.75.825v3.433c0 .425.325.783.75.825l2.45.258c.233.842.566 1.642 1 2.409l-1.559 1.916a.84.84 0 0 0 .059 1.117l2.425 2.425c.3.3.783.325 1.116.058l1.917-1.55c.758.434 1.567.767 2.408 1l.259 2.459c.041.425.4.75.825.75h.883v2.341H11.35a.836.836 0 0 0-.833.834v3.258a4.3 4.3 0 0 0-3.458 4.208c.008 2.334 1.933 4.259 4.291 4.259m16.275-4.292a2.625 2.625 0 1 1-5.25 0 2.625 2.625 0 0 1 5.25 0m13.642 0a2.625 2.625 0 1 1-5.25 0 2.625 2.625 0 0 1 5.25 0m-17.475-14.6a.82.82 0 0 0-.658-.725 8.9 8.9 0 0 1-2.959-1.225c-.3-.2-.7-.175-.975.05l-1.791 1.45-1.367-1.367 1.45-1.791a.83.83 0 0 0 .05-.975 8.6 8.6 0 0 1-1.225-2.959.84.84 0 0 0-.725-.658L13.3 18.5v-1.925l2.292-.241c.358-.042.65-.3.725-.659a8.8 8.8 0 0 1 1.225-2.958c.2-.3.175-.7-.05-.975l-1.45-1.792 1.367-1.366 1.791 1.45c.284.225.675.25.975.05.909-.592 1.909-1 2.959-1.225a.84.84 0 0 0 .658-.725l.242-2.3h1.925l.241 2.291c.034.359.3.65.659.725a8.9 8.9 0 0 1 2.958 1.225c.3.2.7.175.975-.05l1.792-1.45 1.366 1.367-1.45 1.792a.83.83 0 0 0-.05.975 8.6 8.6 0 0 1 1.225 2.958c.075.35.367.617.725.658l2.292.242v1.925l-2.292.242a.83.83 0 0 0-.725.658 8.8 8.8 0 0 1-1.225 2.958c-.2.3-.175.7.05.975l1.45 1.792-1.366 1.367-1.792-1.45a.83.83 0 0 0-.975-.05 8.8 8.8 0 0 1-2.958 1.225.84.84 0 0 0-.659.725l-.241 2.291h-1.925zM11.35 38.925a2.625 2.625 0 1 1-2.625 2.625 2.635 2.635 0 0 1 2.625-2.625"/></svg>