<svg xmlns="http://www.w3.org/2000/svg" width="50" height="50" fill="none"><g fill="#000" clip-path="url(#a)"><path d="M49.155 29.356c-.223-1.512-.415-2.82-.477-3.66-.207-2.805-.965-4.297-2.54-5.051a4.7 4.7 0 0 0-2.163-.442c-.227-.953-.688-2.496-1.39-3.191-1.212-1.195-2.872-1.23-3.845-1.117a2.95 2.95 0 0 0-1.863-1.934 4.54 4.54 0 0 0-3.223.262c-.304-4.668-.695-8.961-1.14-9.84a2.26 2.26 0 0 0-1.778-1.344c-1.199-.148-2.375.7-2.734 1.11-.25.289-.43.496-.414 8.984 0 3.98.07 8.496.129 9.297.05.683-.043 3.125-.152 5.469a6.4 6.4 0 0 1-.496-.93c-.883-1.953-2.735-3.55-5.16-4.485-1.598-.609-3.086-.445-3.989.438a2.32 2.32 0 0 0-.566 2.469c.3.836.984 1.652 1.773 2.597a18 18 0 0 1 1.953 2.653q.769 1.477 1.301 3.055a20 20 0 0 0 1.563 3.515c.293.485.613.996.941 1.523a49 49 0 0 1 2.734 4.782c.973 2.12 4.504 3.906 4.903 4.125a.782.782 0 1 0 .68-1.407c-.95-.472-3.547-2-4.18-3.378a49 49 0 0 0-2.852-4.965c-.324-.52-.64-1.028-.93-1.508a18.4 18.4 0 0 1-1.414-3.211 22.6 22.6 0 0 0-1.402-3.277 19 19 0 0 0-2.113-2.89c-.668-.782-1.297-1.563-1.504-2.126a.75.75 0 0 1 .191-.82c.352-.344 1.149-.547 2.344-.094 2.773 1.059 3.879 2.734 4.297 3.668a6.44 6.44 0 0 0 1.812 2.473c-.039.71-.07 1.34-.097 1.8a.78.78 0 0 0 .734.825h.035a.78.78 0 0 0 .781-.735c0-.336.47-8.203.36-9.68-.125-1.831-.2-15.402.031-17.238a2 2 0 0 1 1.246-.476c.094 0 .344.043.57.496.356.726.782 5.672 1.125 11.75v.137c.188 3.226.352 6.77.481 10.156a.782.782 0 1 0 1.563-.059 535 535 0 0 0-.5-10.492 1.02 1.02 0 0 1 .39-.852c.578-.457 1.672-.457 2.211-.285.86.278.977 1.367.98 1.41 0 .07.696 7.262.782 8.895a.78.78 0 0 0 .781.738h.047a.78.78 0 0 0 .734-.824c-.078-1.367-.547-6.348-.722-8.23.68-.067 1.757-.032 2.488.687.45.441.918 2.07 1.11 3.086v.059c.399 1.651.539 3.355.413 5.05a.78.78 0 0 0 .7.856h.078a.78.78 0 0 0 .78-.703c.129-1.567.04-3.145-.26-4.688.405.02.803.118 1.171.29.852.39 1.453 1.171 1.645 3.75.066.894.261 2.226.488 3.769.418 2.86.941 6.418.828 8.594-.172 3.296-1.527 8.336-1.539 8.386a.78.78 0 0 0 .098.625l1.562 2.453a.781.781 0 0 0 1.316-.84l-1.382-2.163c.312-1.211 1.347-5.383 1.504-8.38.136-2.335-.399-5.988-.828-8.917"/><path d="M.781 6.25h22.742A5.27 5.27 0 0 0 25 9.078a.782.782 0 1 0 1.105-1.105 3.746 3.746 0 0 1 4.067-6.114.78.78 0 1 0 .594-1.445 5.305 5.305 0 0 0-7.285 4.274H.78a.781.781 0 0 0 0 1.562m34.376-1.562a.781.781 0 1 0 0 1.562H49.22a.781.781 0 1 0 0-1.562zM5.467 30.469a5.47 5.47 0 0 0 5.407-4.688h3.968a.781.781 0 1 0 0-1.562h-3.968a5.47 5.47 0 1 0-5.407 6.25m0-9.375a3.906 3.906 0 1 1 0 7.811 3.906 3.906 0 0 1 0-7.811M.781 45.312h11a5.47 5.47 0 0 0 10.813 0h2.797a.782.782 0 0 0 0-1.562h-2.797a5.47 5.47 0 0 0-10.813 0h-11a.781.781 0 1 0 0 1.562m16.407-4.687a3.906 3.906 0 1 1 0 7.813 3.906 3.906 0 0 1 0-7.813"/></g><defs><clipPath id="a"><path fill="#fff" d="M0 0h50v50H0z"/></clipPath></defs></svg>