<svg xmlns="http://www.w3.org/2000/svg" width="50" height="50" fill="none"><g fill="#000" clip-path="url(#a)"><path d="M20.845 3.343c-9.661 0-17.493 7.832-17.493 17.494S11.184 38.33 20.845 38.33s17.493-7.832 17.493-17.493c-.01-9.657-7.836-17.483-17.493-17.494m0 1.666a15.81 15.81 0 0 1 12.925 6.723l-2.083 2.082a3.3 3.3 0 0 0-1.679-.475 3.33 3.33 0 0 0-3.332 3.333c.003.593.166 1.174.472 1.681l-5.454 5.455a3.23 3.23 0 0 0-3.364 0l-3.788-3.789a3.3 3.3 0 0 0 .472-1.681 3.325 3.325 0 0 0-6.546-.833h-3.09A15.85 15.85 0 0 1 20.844 5.009m10.83 11.663a1.666 1.666 0 1 1-3.333 0 1.666 1.666 0 0 1 3.332 0m-9.997 9.996a1.666 1.666 0 1 1-3.332 0 1.666 1.666 0 0 1 3.332 0m-8.33-8.33a1.666 1.666 0 1 1-3.332 0 1.666 1.666 0 0 1 3.332 0m15.187 16.338a15.8 15.8 0 0 1-7.69 1.988c-8.735.006-15.821-7.07-15.827-15.806q0-.846.089-1.687h3.361a3.33 3.33 0 0 0 3.214 2.499 3.3 3.3 0 0 0 1.682-.473l3.788 3.789a3.3 3.3 0 0 0-.472 1.682 3.332 3.332 0 0 0 6.664 0 3.3 3.3 0 0 0-.472-1.682l5.454-5.455c.508.306 1.09.47 1.682.473a3.33 3.33 0 0 0 3.332-3.333 3.3 3.3 0 0 0-.472-1.681l1.816-1.816c4.24 7.636 1.486 17.262-6.149 21.502"/><path d="M41.67 8.341a3.33 3.33 0 0 0 3.214-2.499H50V4.176h-5.116a3.33 3.33 0 0 0-3.214-2.499 3.33 3.33 0 0 0-3.332 3.332c.003.593.166 1.174.472 1.682l-1.464 1.464C30.343-.97 17.27-2.688 8.146 4.315s-10.843 20.076-3.84 29.2c6.61 8.612 18.728 10.701 27.84 4.8l2.515 2.514 1.178 1.178 6.706 6.706a4.367 4.367 0 1 0 6.176-6.177l-6.706-6.705-1.178-1.178-2.514-2.514a20.76 20.76 0 0 0 0-22.605l1.666-1.666c.507.306 1.088.47 1.68.473m0-4.998a1.666 1.666 0 1 1 0 3.332 1.666 1.666 0 0 1 0-3.332m5.873 40.371a2.701 2.701 0 1 1-3.82 3.82l-6.706-6.705 3.82-3.82zm-7.884-7.883-3.82 3.82-2.306-2.306c.117-.09.227-.189.343-.281a21 21 0 0 0 .913-.775l.267-.25q.512-.48.992-.992l.25-.267a21 21 0 0 0 .774-.913c.092-.115.191-.225.281-.342zm-3.23-3.87q-.393.552-.82 1.072c-.083.1-.172.198-.258.297a19 19 0 0 1-2.013 2.013c-.1.084-.197.174-.297.259q-.52.426-1.072.819c-8.623 6.16-20.608 4.164-26.769-4.46S1.036 11.353 9.66 5.192s20.608-4.164 26.768 4.46a19.19 19.19 0 0 1 0 22.31"/></g><defs><clipPath id="a"><path fill="#fff" d="M0 0h50v50H0z"/></clipPath></defs></svg>