<svg xmlns="http://www.w3.org/2000/svg" width="50" height="50" fill="none"><path fill="#000" d="M7.292 29.167a1.04 1.04 0 0 0-1.042 1.041v8.334a5.22 5.22 0 0 0 5.208 5.208h8.334a1.041 1.041 0 1 0 0-2.084h-8.334a3.096 3.096 0 0 1-3.125-3.124v-8.334a1.04 1.04 0 0 0-1.041-1.041m35.418 0a1.04 1.04 0 0 0-1.042 1.041v8.334a3.096 3.096 0 0 1-3.125 3.124H30.21a1.042 1.042 0 0 0 0 2.084h8.333a5.22 5.22 0 0 0 5.208-5.209v-8.333a1.04 1.04 0 0 0-1.041-1.041M11.458 6.25a5.22 5.22 0 0 0-5.208 5.208v8.334a1.042 1.042 0 0 0 2.083 0v-8.334a3.096 3.096 0 0 1 3.125-3.125h8.334a1.042 1.042 0 0 0 0-2.083zm18.752 0a1.042 1.042 0 0 0 0 2.083h8.333a3.096 3.096 0 0 1 3.125 3.125v8.334a1.041 1.041 0 1 0 2.083 0v-8.334a5.22 5.22 0 0 0-5.208-5.208z"/><path fill="#000" d="M20.513 22.917c-.703.01-1.403.351-1.79 1.017L12.79 34.135c-.843 1.45.26 3.365 1.937 3.365H35.29c1.675 0 2.769-1.928 1.909-3.365l-4.769-7.967c-.793-1.325-2.791-1.375-3.646-.09l-2.539 3.825c-.06.091-.105.09-.163-.004l-3.751-6.018c-.408-.654-1.116-.975-1.82-.964m.012 2.063c.032-.055.003-.054.037 0l3.755 6.022c.818 1.311 2.807 1.34 3.663.053l2.539-3.821c.052-.08.077-.078.126.004l4.769 7.967c.082.138.038.212-.123.212H14.728c-.172 0-.22-.088-.135-.236zM34.375 12.5a3.14 3.14 0 0 0-3.125 3.125 3.14 3.14 0 0 0 3.125 3.125 3.14 3.14 0 0 0 3.125-3.125 3.14 3.14 0 0 0-3.125-3.125m0 2.083c.588 0 1.042.454 1.042 1.042s-.454 1.042-1.042 1.042a1.026 1.026 0 0 1-1.042-1.042c0-.588.454-1.042 1.042-1.042"/></svg>