<svg xmlns="http://www.w3.org/2000/svg" width="50" height="50" fill="none"><path fill="#000" d="M41.699 0H8.3a5.67 5.67 0 0 0-5.664 5.664v36.133a2.933 2.933 0 0 0 2.93 2.93h12.825a.977.977 0 1 0 0-1.954H5.566a.98.98 0 0 1-.976-.977V5.665a3.715 3.715 0 0 1 3.71-3.71h29.125a5.64 5.64 0 0 0-1.39 3.71v31.471a1.636 1.636 0 0 1-3.184.517l-1.472-4.416a3.04 3.04 0 0 0-2.892-2.084A3.05 3.05 0 0 0 25.44 34.2v.76h-5.062a.977.977 0 0 0 0 1.954h5.061v4.858c0 1.442.282 2.848.836 4.179l1.437 3.448a.977.977 0 1 0 1.803-.751L28.078 45.2a8.9 8.9 0 0 1-.685-3.428V34.2a1.096 1.096 0 0 1 2.133-.346l1.472 4.416a3.58 3.58 0 0 0 3.403 2.452 3.59 3.59 0 0 0 3.587-3.587V20.392l1.305 1.303a12.22 12.22 0 0 1 3.61 8.705v10.38c0 2.69-.609 5.395-1.76 7.825a.977.977 0 0 0 1.764.837 20.3 20.3 0 0 0 1.95-8.661V30.4a14.16 14.16 0 0 0-4.184-10.088l-2.685-2.68V16.7h6.445a2.933 2.933 0 0 0 2.93-2.93V5.665A5.67 5.67 0 0 0 41.699 0m3.71 13.77a.98.98 0 0 1-.976.976h-6.445V5.664a3.715 3.715 0 0 1 3.71-3.71 3.715 3.715 0 0 1 3.712 3.71z"/><path fill="#000" d="M22.656 42.773a.98.98 0 0 0-.69.286 1 1 0 0 0-.286.691.98.98 0 0 0 .286.69.98.98 0 0 0 .69.287 1 1 0 0 0 .69-.286.98.98 0 0 0 .287-.691 1 1 0 0 0-.286-.69 1 1 0 0 0-.69-.287M16.082 7.227a1.955 1.955 0 0 0-1.953-1.954H9.832a1.955 1.955 0 0 0-1.953 1.954v4.296c0 1.077.876 1.954 1.953 1.954h4.297a1.955 1.955 0 0 0 1.953-1.954zm-1.953 4.296H9.832V7.227h4.297l.001 4.296zm1.953 7.422a1.955 1.955 0 0 0-1.953-1.953H9.832a1.955 1.955 0 0 0-1.953 1.953v4.297c0 1.077.876 1.953 1.953 1.953h4.297a1.955 1.955 0 0 0 1.953-1.953zm-1.953 4.297H9.832v-4.297h4.297l.001 4.297zm0 5.468H9.832a1.955 1.955 0 0 0-1.953 1.954v4.297c0 1.077.876 1.953 1.953 1.953h4.297a1.955 1.955 0 0 0 1.953-1.953v-4.297a1.955 1.955 0 0 0-1.953-1.953m0 6.25H9.832v-4.296h4.297l.001 4.297zm17.447-21.484a.977.977 0 1 0 0-1.954h-6.732a.977.977 0 1 0 0 1.954zm-11.197 0a.98.98 0 0 0 .69-.287 1 1 0 0 0 .287-.69 1 1 0 0 0-.287-.69.98.98 0 0 0-.69-.287.98.98 0 0 0-.69.287.98.98 0 0 0-.287.69.98.98 0 0 0 .286.69.98.98 0 0 0 .69.287m.001 11.718h11.198a.977.977 0 0 0 0-1.953H20.379a.977.977 0 0 0 0 1.953"/></svg>