<svg xmlns="http://www.w3.org/2000/svg" width="50" height="50" fill="none"><path fill="#000" d="M42.752 34.834c-.366-.61-1.858-2.427-5.719-.179l-6.524 3.8q-.252.146-.513.248.06-.15.103-.314c.361-1.348-.437-2.755-1.818-3.203a1 1 0 0 0-.102-.026c-1.858-.335-3.7-1-5.18-1.535a44 44 0 0 0-1.425-.5c-1.746-.567-3.306.123-4.6.873l-4.678 2.708-.357-.63a1.73 1.73 0 0 0-1.05-.82 1.73 1.73 0 0 0-1.323.161l-1.831 1.036a1.744 1.744 0 0 0-.658 2.374l5.382 9.509a1.743 1.743 0 0 0 2.373.657l1.83-1.035a1.73 1.73 0 0 0 .82-1.051 1.73 1.73 0 0 0-.161-1.323l-.456-.806.86-.496 8.274 2.217a5.5 5.5 0 0 0 1.425.192c.948 0 1.865-.261 2.703-.777l11.84-7.29c1.168-.72 1.542-2.526.785-3.79M15.977 46.49a.18.18 0 0 1-.084.109l-1.83 1.036a.18.18 0 0 1-.245-.068l-5.381-9.508a.18.18 0 0 1 .068-.245l1.83-1.036a.2.2 0 0 1 .086-.022q.029 0 .05.007c.033.009.079.03.109.083l5.381 9.509a.17.17 0 0 1 .015.136m25.17-9.196-11.84 7.29c-.889.548-1.866.685-2.903.407l-8.587-2.301a.78.78 0 0 0-.593.078l-1.129.651-3.03-5.352 4.69-2.715c1.433-.83 2.4-1.044 3.337-.74.393.128.849.292 1.377.483 1.52.55 3.407 1.232 5.374 1.593.572.207.891.758.746 1.298-.154.575-.585.825-1.282.747-.949-.196-1.854-.454-2.812-.727q-.69-.2-1.424-.398a.781.781 0 1 0-.404 1.509c.476.128.945.261 1.399.391.999.285 2.988.768 2.994.77l.811.131c1.262.202 2.382.005 3.425-.603l6.524-3.8c1.743-1.015 3.12-1.156 3.592-.368.317.53.181 1.382-.265 1.656m-30.38 1.145a.654.654 0 1 1-1.294.189.654.654 0 0 1 1.294-.19m4.02-30.776h3.632l3.688 14.36a2.75 2.75 0 0 0-2.09 2.667 2.75 2.75 0 0 0 2.174 2.687 3.04 3.04 0 0 0-1.25 2.455 3.044 3.044 0 0 0 3.04 3.04 3.044 3.044 0 0 0 3.04-3.04c0-.971-.458-1.837-1.17-2.394h9.515a3.04 3.04 0 0 0-1.17 2.394 3.044 3.044 0 0 0 3.04 3.04 3.044 3.044 0 0 0 3.04-3.04 3.04 3.04 0 0 0-1.17-2.394h.498a.781.781 0 0 0 0-1.562h-16.84a1.187 1.187 0 0 1 0-2.372h13.69a3.624 3.624 0 0 0 3.534-2.783l2.305-9.564a.78.78 0 0 0-.76-.965h-7.75a17 17 0 0 0-1.936-3.025 15.6 15.6 0 0 1 4.59-3.36l-.413.781a.781.781 0 0 0 1.38.732l1.41-2.658a.782.782 0 0 0-.5-1.124L35.395.805a.781.781 0 1 0-.38 1.515l.595.15a17.1 17.1 0 0 0-4.805 3.506 17.1 17.1 0 0 0-4.806-3.506l.595-.15a.781.781 0 1 0-.38-1.515l-2.919.732a.78.78 0 0 0-.5 1.124l1.41 2.658a.781.781 0 1 0 1.38-.732l-.414-.78a15.6 15.6 0 0 1 4.591 3.36 17 17 0 0 0-1.936 3.024H20.68l-.9-3.505a.78.78 0 0 0-.757-.587h-4.238a.781.781 0 1 0 0 1.563m22.449 23.647a1.48 1.48 0 0 1-1.478-1.478 1.48 1.48 0 0 1 1.477-1.477 1.48 1.48 0 0 1 1.478 1.477 1.48 1.48 0 0 1-1.477 1.478m-13.255 0a1.48 1.48 0 0 1-1.478-1.478 1.48 1.48 0 0 1 1.478-1.477 1.48 1.48 0 0 1 1.478 1.477 1.48 1.48 0 0 1-1.478 1.478m6.824-22.92q.659.86 1.196 1.802h-2.393q.537-.943 1.197-1.801m-3.667 3.365c-.45 1.18-.771 2.41-.95 3.67a.781.781 0 0 0 1.548.219 15.3 15.3 0 0 1 1.095-3.889h3.947a15.2 15.2 0 0 1 1.095 3.889.781.781 0 0 0 1.547-.22 17 17 0 0 0-.95-3.669h6.072l-2.073 8.6a2.04 2.04 0 0 1-2.014 1.587H23.699l-2.616-10.187z"/></svg>