<svg xmlns="http://www.w3.org/2000/svg" width="50" height="50" fill="none"><g clip-path="url(#a)"><path fill="#000" d="m18.615 34.515 1.413-.628c.698.391 1.436.697 2.204.914l.556 1.442a.78.78 0 0 0 .729.5h2.967a.78.78 0 0 0 .729-.5l.555-1.442a10 10 0 0 0 2.205-.914l1.413.628a.78.78 0 0 0 .87-.162l2.097-2.098a.78.78 0 0 0 .162-.87l-.628-1.413c.391-.698.698-1.436.914-2.204l1.442-.555a.78.78 0 0 0 .501-.73v-2.967a.78.78 0 0 0-.5-.729l-1.442-.555a10 10 0 0 0-.914-2.205l.627-1.413a.78.78 0 0 0-.161-.87l-2.099-2.097a.78.78 0 0 0-.87-.162l-1.413.628a10 10 0 0 0-2.204-.914l-.555-1.442a.78.78 0 0 0-.729-.5h-2.967a.78.78 0 0 0-.73.5l-.554 1.442c-.768.217-1.507.523-2.205.914l-1.413-.628a.78.78 0 0 0-.87.162l-2.098 2.098a.78.78 0 0 0-.161.87l.627 1.413a10 10 0 0 0-.914 2.204l-1.442.555a.78.78 0 0 0-.5.73v2.967c0 .323.199.613.5.729l1.442.555c.217.768.523 1.507.914 2.205l-.627 1.413a.78.78 0 0 0 .161.87l2.098 2.097a.78.78 0 0 0 .87.162m-.96-5.002a8.6 8.6 0 0 1-1.041-2.511.78.78 0 0 0-.48-.548l-1.315-.507v-1.894l1.316-.507a.78.78 0 0 0 .48-.548 8.6 8.6 0 0 1 1.04-2.51.78.78 0 0 0 .049-.728l-.573-1.29 1.34-1.339 1.29.573a.78.78 0 0 0 .726-.049 8.6 8.6 0 0 1 2.511-1.04.78.78 0 0 0 .548-.48l.507-1.316h1.894l.507 1.316c.092.24.297.42.548.48a8.6 8.6 0 0 1 2.51 1.04c.22.135.492.153.728.049l1.29-.573 1.34 1.34-.573 1.289a.78.78 0 0 0 .048.727 8.5 8.5 0 0 1 1.041 2.511c.06.25.24.456.48.549l1.315.506v1.894l-1.316.507a.78.78 0 0 0-.479.548 8.6 8.6 0 0 1-1.04 2.51.78.78 0 0 0-.05.727l.573 1.29-1.34 1.34-1.289-.573a.78.78 0 0 0-.726.05c-.78.479-1.624.83-2.512 1.04a.78.78 0 0 0-.548.48l-.507 1.315h-1.894l-.506-1.316a.78.78 0 0 0-.549-.48 8.6 8.6 0 0 1-2.51-1.04.78.78 0 0 0-.727-.049l-1.29.573-1.34-1.34.573-1.289a.78.78 0 0 0-.049-.727M25 30.956A5.963 5.963 0 0 0 30.956 25 5.963 5.963 0 0 0 25 19.044 5.963 5.963 0 0 0 19.044 25 5.963 5.963 0 0 0 25 30.956m0-10.35A4.4 4.4 0 0 1 29.394 25 4.4 4.4 0 0 1 25 29.394 4.4 4.4 0 0 1 20.607 25 4.4 4.4 0 0 1 25 20.607m14.77 9.508-.1-.43a.781.781 0 1 0-1.522.352l.636 2.745a.78.78 0 0 0 1.21.462l2.546-1.794a.781.781 0 1 0-.9-1.277l-.316.222a17.25 17.25 0 0 0-3.63-16.984l4.124-4.123a4.66 4.66 0 0 0 2.713.87 4.693 4.693 0 0 0 4.688-4.688A4.693 4.693 0 0 0 44.53.78a4.693 4.693 0 0 0-4.687 4.688c0 1.01.323 1.947.869 2.713l-4.663 4.663a.78.78 0 0 0 0 1.105c4.25 4.25 5.653 10.568 3.72 16.164m4.761-27.77a3.13 3.13 0 0 1 3.125 3.125 3.13 3.13 0 0 1-3.125 3.125 3.13 3.13 0 0 1-3.125-3.125 3.13 3.13 0 0 1 3.125-3.125m-34.3 17.541.1.433a.782.782 0 0 0 1.522-.353l-.636-2.745a.78.78 0 0 0-1.21-.462L7.46 18.55a.781.781 0 1 0 .9 1.277l.314-.22a17.23 17.23 0 0 0 3.631 16.982l-4.123 4.123a4.66 4.66 0 0 0-2.713-.87 4.693 4.693 0 0 0-4.689 4.69 4.693 4.693 0 0 0 4.69 4.688 4.693 4.693 0 0 0 4.687-4.688 4.66 4.66 0 0 0-.869-2.713l4.663-4.663a.78.78 0 0 0 0-1.105 15.66 15.66 0 0 1-3.72-16.165M5.469 47.657a3.13 3.13 0 0 1-3.125-3.125 3.13 3.13 0 0 1 3.125-3.125 3.13 3.13 0 0 1 3.125 3.125 3.13 3.13 0 0 1-3.125 3.125m0-37.5a4.66 4.66 0 0 0 2.713-.869l4.663 4.663a.78.78 0 0 0 1.105 0c4.251-4.251 10.568-5.653 16.164-3.72l-.43.1a.781.781 0 0 0 .352 1.522l2.745-.636a.78.78 0 0 0 .462-1.21L31.45 7.46a.781.781 0 1 0-1.277.9l.222.315a17.25 17.25 0 0 0-16.984 3.63L9.287 8.182a4.66 4.66 0 0 0 .87-2.713A4.693 4.693 0 0 0 5.468.78 4.693 4.693 0 0 0 .78 5.47a4.693 4.693 0 0 0 4.688 4.687m0-7.812A3.13 3.13 0 0 1 8.593 5.47a3.13 3.13 0 0 1-3.125 3.125A3.13 3.13 0 0 1 2.343 5.47a3.13 3.13 0 0 1 3.125-3.125m39.062 37.5a4.66 4.66 0 0 0-2.713.869l-4.663-4.663a.78.78 0 0 0-1.105 0c-4.236 4.237-10.571 5.648-16.164 3.72l.43-.1a.781.781 0 0 0-.352-1.522l-2.745.636a.78.78 0 0 0-.462 1.21l1.795 2.546a.78.78 0 0 0 1.088.188.78.78 0 0 0 .189-1.088l-.221-.313a17.2 17.2 0 0 0 8.325.613 17.06 17.06 0 0 0 8.658-4.245l4.122 4.123a4.66 4.66 0 0 0-.869 2.713 4.693 4.693 0 0 0 4.687 4.688 4.693 4.693 0 0 0 4.688-4.688 4.693 4.693 0 0 0-4.688-4.687m0 7.812a3.13 3.13 0 0 1-3.125-3.125 3.13 3.13 0 0 1 3.125-3.125 3.13 3.13 0 0 1 3.125 3.125 3.13 3.13 0 0 1-3.125 3.125"/></g><defs><clipPath id="a"><path fill="#fff" d="M0 0h50v50H0z"/></clipPath></defs></svg>