<svg xmlns="http://www.w3.org/2000/svg" width="50" height="50" fill="none"><path fill="#000" d="m40.073 1.791-2.115 2.115h-2.802a.78.78 0 0 0-.781.781V7.49l-2.667 2.667h-2.802a.78.78 0 0 0-.781.781v2.802l-2.667 2.667h-2.802a.78.78 0 0 0-.781.782v2.8l-3.449 3.45h-2.67a9.34 9.34 0 0 1 4.197-6.34l-.843-1.315A10.938 10.938 0 0 0 25 35.938h10.035A14.86 14.86 0 0 1 25 39.844c-8.185 0-14.844-6.66-14.844-14.844H8.594c0 1.316.158 2.628.47 3.906H3.126v-7.812h6.25a.78.78 0 0 0 .722-.483l1.262-3.046a.78.78 0 0 0-.17-.852l-4.42-4.419 5.525-5.524 4.42 4.42a.78.78 0 0 0 .851.169l3.046-1.262a.78.78 0 0 0 .483-.722v-6.25h7.812v4.688h1.563v-5.47a.78.78 0 0 0-.782-.78h-9.375a.78.78 0 0 0-.78.78v6.51l-2.083.862-4.602-4.602a.78.78 0 0 0-1.105 0l-6.63 6.629a.78.78 0 0 0 0 1.105l4.603 4.602-.862 2.082h-6.51a.78.78 0 0 0-.78.782v9.375a.78.78 0 0 0 .78.78h6.51l.862 2.083-4.602 4.602a.78.78 0 0 0 0 1.105l6.629 6.63a.78.78 0 0 0 1.105 0l4.602-4.603 2.082.862v6.51a.78.78 0 0 0 .782.78h9.375a.78.78 0 0 0 .78-.78v-6.51l2.083-.862 4.602 4.602a.78.78 0 0 0 1.105 0l6.63-6.629a.78.78 0 0 0 0-1.105l-1.216-1.215h3.984a.78.78 0 0 0 .782-.782V8.594a.78.78 0 0 0-.782-.781h-6.25a.78.78 0 0 0-.781.78v5.47h-5.469a.78.78 0 0 0-.781.78v3.907h-5.469a.78.78 0 0 0-.781.781v4.688h-5.469a.78.78 0 0 0-.781.781v3.125h-5.714A9.3 9.3 0 0 1 15.625 25h3.125a.78.78 0 0 0 .552-.229l3.678-3.677h2.801a.78.78 0 0 0 .782-.782v-2.8l2.667-2.668h2.801a.78.78 0 0 0 .782-.781V11.26l2.667-2.667h2.801a.78.78 0 0 0 .782-.781V5.01l1.886-1.886h7.489V1.563h-7.813a.78.78 0 0 0-.553.228m-27.779 41.44L6.77 37.705l4.203-4.204a16.5 16.5 0 0 0 5.524 5.525zm8.8 3.644v-5.94c2.566.629 5.246.628 7.812-.001v5.941zm22.136-9.17-5.524 5.525-4.203-4.202a16.4 16.4 0 0 0 3.724-3.09h4.235zm-1.042-28.33h4.687v25h-4.687zm-6.25 6.25h4.687v18.75h-4.687zm-6.25 4.688h4.687v14.062h-4.687zm-6.25 5.468h4.687v8.594H25a9.4 9.4 0 0 1-1.562-.13zm-1.563 3.907v4.15a9.43 9.43 0 0 1-4.991-4.15zM25 19.53h-1.562v-1.56H25zm6.25-6.25h-1.562v-1.56h1.562zm6.25-6.25h-1.562V5.47H37.5z"/></svg>