<svg xmlns="http://www.w3.org/2000/svg" width="50" height="50" fill="none"><path fill="#000" d="M47.139 22.059a.59.59 0 0 0-.508-.165l-.133.022a21.78 21.78 0 0 0-6.494-14.618A21.78 21.78 0 0 0 24.606.977 21.77 21.77 0 0 0 9.11 7.396a21.77 21.77 0 0 0-6.419 15.496c0 3.78.984 7.513 2.843 10.798a22 22 0 0 0 7.055 7.527L4.146 47.98a.585.585 0 0 0 .616.988l17.208-8.043 4.827 4.827a.59.59 0 0 0 .828 0l15.107-15.108 2.003 2.003a.588.588 0 0 0 .993-.32l1.576-9.762a.59.59 0 0 0-.165-.507m-43.276.833c0-11.438 9.306-20.744 20.743-20.744 11.117 0 20.31 8.907 20.727 19.956l-1.398.225c-.298-10.404-8.854-18.775-19.329-18.775-10.663 0-19.337 8.675-19.337 19.338a19.35 19.35 0 0 0 9.447 16.62l-1.165.932C7.565 36.668 3.863 29.98 3.863 22.892m32.686 1.57 2.053 2.053L27.21 37.908l-4.295-4.295a.586.586 0 0 0-.78-.043L15.7 38.726a18.2 18.2 0 0 1-3.515-2.581l2.853-2.854a.587.587 0 0 0-.829-.83l-2.854 2.854A18.17 18.17 0 0 1 6.45 23.48h4.037a.586.586 0 0 0 0-1.172H6.451a18.1 18.1 0 0 1 4.91-11.832l2.848 2.848a.585.585 0 1 0 .828-.829l-2.849-2.848a18.1 18.1 0 0 1 11.832-4.91v4.037a.586.586 0 0 0 1.172 0V4.736a18.1 18.1 0 0 1 11.832 4.91l-2.848 2.848a.587.587 0 0 0 .828.83l2.849-2.85a18.1 18.1 0 0 1 4.915 12.045l-5.899.95a.585.585 0 0 0-.32.993m8.205 6.547L43.147 29.4a.587.587 0 0 0-.83 0L27.21 44.51l-4.703-4.703a.585.585 0 0 0-.662-.117L8.7 45.834l13.758-11.022 4.339 4.34a.59.59 0 0 0 .828 0L39.847 26.93a.59.59 0 0 0 0-.828l-1.657-1.658 7.828-1.262zm-10.662-14.27-7.152 4.13a3.08 3.08 0 0 0-2.333-1.068 3.095 3.095 0 0 0-2.92 4.1l-1.827 1.055a.587.587 0 0 0 .585 1.016l1.828-1.055a3.08 3.08 0 0 0 2.332 1.067 3.095 3.095 0 0 0 2.921-4.1l7.15-4.128a.587.587 0 0 0-.584-1.017m-9.485 8.072a1.92 1.92 0 0 1-1.918-1.92c0-1.057.86-1.918 1.918-1.918s1.92.86 1.92 1.919a1.92 1.92 0 0 1-1.92 1.919"/></svg>