<svg xmlns="http://www.w3.org/2000/svg" width="48" height="48" fill="none"><path fill="#000" d="M16.707 22.293a1 1 0 0 0-1.414 0l-5 5a1 1 0 0 0 0 1.414l5 5a.997.997 0 0 0 1.414 0 1 1 0 0 0 0-1.414L12.414 28l4.293-4.293a1 1 0 0 0 0-1.414m16 0a.999.999 0 1 0-1.414 1.414L35.586 28l-4.293 4.293a.999.999 0 1 0 1.414 1.414l5-5a1 1 0 0 0 0-1.414zm-5.259-1.189a1 1 0 0 0-1.342.447l-6 12a1 1 0 1 0 1.789.894l6-12a1 1 0 0 0-.447-1.34"/><path fill="#000" d="M41 6H7c-2.757 0-5 2.243-5 5v26c0 2.757 2.243 5 5 5h34c2.757 0 5-2.243 5-5V11c0-2.757-2.243-5-5-5M7 8h34c1.654 0 3 1.346 3 3v3H4v-3c0-1.654 1.346-3 3-3m34 32H7c-1.654 0-3-1.346-3-3V16h40v21c0 1.654-1.346 3-3 3"/><path fill="#000" d="M7 12a1 1 0 1 0 0-2 1 1 0 0 0 0 2m4 0a1 1 0 1 0 0-2 1 1 0 0 0 0 2m4 0a1 1 0 1 0 0-2 1 1 0 0 0 0 2"/></svg>