<svg xmlns="http://www.w3.org/2000/svg" width="50" height="50" fill="none"><g fill="#000" clip-path="url(#a)"><path d="M46.875 12.5H3.125A3.13 3.13 0 0 1 0 9.375v-6.25A3.13 3.13 0 0 1 3.125 0h43.75A3.13 3.13 0 0 1 50 3.125v6.25a3.13 3.13 0 0 1-3.125 3.125M3.125 2.083c-.573 0-1.042.467-1.042 1.042v6.25c0 .575.47 1.042 1.042 1.042h43.75c.573 0 1.042-.467 1.042-1.042v-6.25c0-.575-.47-1.042-1.042-1.042zM43.75 31.25A6.26 6.26 0 0 1 37.5 25a6.26 6.26 0 0 1 6.25-6.25A6.26 6.26 0 0 1 50 25a6.26 6.26 0 0 1-6.25 6.25m0-10.417A4.17 4.17 0 0 0 39.583 25a4.17 4.17 0 0 0 4.167 4.167A4.17 4.17 0 0 0 47.917 25a4.17 4.17 0 0 0-4.167-4.167m0 29.167a6.26 6.26 0 0 1-6.25-6.25 6.26 6.26 0 0 1 6.25-6.25A6.26 6.26 0 0 1 50 43.75 6.26 6.26 0 0 1 43.75 50m0-10.417a4.17 4.17 0 0 0-4.167 4.167 4.17 4.17 0 0 0 4.167 4.167 4.17 4.17 0 0 0 4.167-4.167 4.17 4.17 0 0 0-4.167-4.167M32.292 22.917H1.042a1.042 1.042 0 0 1 0-2.084h31.25a1.042 1.042 0 0 1 0 2.084m0 6.25H1.042a1.042 1.042 0 0 1 0-2.084h31.25a1.042 1.042 0 0 1 0 2.084m0 12.5H1.042a1.042 1.042 0 0 1 0-2.084h31.25a1.042 1.042 0 0 1 0 2.084m0 6.25H1.042a1.042 1.042 0 0 1 0-2.084h31.25a1.042 1.042 0 0 1 0 2.084"/></g><defs><clipPath id="a"><path fill="#fff" d="M0 0h50v50H0z"/></clipPath></defs></svg>