<svg xmlns="http://www.w3.org/2000/svg" width="50" height="50" fill="none"><path fill="#000" d="m46.762 9.886-8.929-3.572a.9.9 0 0 0-.664 0L28.24 9.886a.89.89 0 0 0-.56.828v9.229a9.87 9.87 0 0 0 4.77 8.425l4.592 2.755a.89.89 0 0 0 .918 0l4.005-2.404v10a1.466 1.466 0 0 1-1.464 1.465H5.93a1.466 1.466 0 0 1-1.465-1.465V18.75h20.536a.893.893 0 0 0 0-1.785H4.465v-2.107a1.466 1.466 0 0 1 1.465-1.464H25a.893.893 0 1 0 0-1.786H5.93a3.25 3.25 0 0 0-3.25 3.25v23.857a3.25 3.25 0 0 0 3.25 3.25H40.5a3.25 3.25 0 0 0 3.25-3.25V27.5a9.87 9.87 0 0 0 3.572-7.56v-9.226a.89.89 0 0 0-.561-.828m-1.225 10.057a8.07 8.07 0 0 1-3.904 6.892l-4.132 2.48-4.132-2.48a8.07 8.07 0 0 1-3.904-6.892v-8.625L37.5 8.103l8.036 3.215z"/><path fill="#000" d="M34.56 17.379a.893.893 0 0 0-1.264 1.262l2.383 2.38a.893.893 0 0 0 1.262 0l4.762-4.762a.893.893 0 0 0-1.264-1.263l-4.13 4.133zM8.928 34.821a.893.893 0 0 0 0 1.786h7.143a.893.893 0 0 0 0-1.786z"/></svg>