<svg xmlns="http://www.w3.org/2000/svg" width="50" height="50" fill="none"><path fill="#000" d="M39.583 20.886v-10.47a4.17 4.17 0 0 0-4.166-4.166H4.167A4.17 4.17 0 0 0 0 10.417V31.25a4.17 4.17 0 0 0 4.167 4.167h23.36c1.365 4.802 5.78 8.333 11.015 8.333 2.014 0 3.994-.53 5.73-1.534a1.04 1.04 0 1 0-1.044-1.803 9.4 9.4 0 0 1-4.686 1.254c-5.17 0-9.375-4.206-9.375-9.375 0-5.17 4.205-9.375 9.375-9.375s9.375 4.205 9.375 9.375v1.041a2.086 2.086 0 0 1-2.084 2.084 2.086 2.086 0 0 1-2.083-2.084v-4.166c0-.576-.466-1.042-1.042-1.042-.28 0-.532.113-.719.293-.92-.82-2.12-1.335-3.447-1.335a5.214 5.214 0 0 0-5.209 5.209 5.215 5.215 0 0 0 5.209 5.208c1.552 0 2.932-.696 3.887-1.778a4.16 4.16 0 0 0 3.404 1.778A4.17 4.17 0 0 0 50 33.333v-1.041c0-5.967-4.586-10.877-10.417-11.406M4.167 8.333h31.25c.043 0 .08.022.122.025L20.65 20.581c-.53.334-1.299.265-1.644.053L4.045 8.358c.043-.003.079-.025.122-.025M37.5 20.886c-5.831.529-10.417 5.44-10.417 11.406 0 .351.022.698.053 1.041H4.166a2.086 2.086 0 0 1-2.083-2.083V10.417c0-.295.066-.574.177-.828l15.516 12.724a3.7 3.7 0 0 0 2.016.604c.685 0 1.356-.194 1.946-.56a1 1 0 0 0 .168-.113L37.324 9.588c.11.255.176.534.176.829zm1.042 14.53a3.13 3.13 0 0 1-3.125-3.124 3.13 3.13 0 0 1 3.125-3.125 3.13 3.13 0 0 1 3.125 3.125 3.13 3.13 0 0 1-3.125 3.125"/></svg>