<svg xmlns="http://www.w3.org/2000/svg" width="50" height="50" fill="none"><path fill="#000" d="M49.088 36.817c-.528-1.974-2.58-3.173-4.671-2.735l-14.572 3.094a3.58 3.58 0 0 0-1.563-4.315l-8.447-4.877a6.4 6.4 0 0 1-.951-.726c-.742-.642-1.666-1.44-3.388-1.623-1.636-.174-3.765.21-6.64 1.205a2.594 2.594 0 0 0-2.56-2.19H3.372a2.593 2.593 0 0 0-2.59 2.59v14.395a2.593 2.593 0 0 0 2.59 2.59h2.917a2.593 2.593 0 0 0 2.589-2.55c2.33-.326 5.29 1.363 8.16 3.002 2.472 1.412 4.83 2.759 6.799 2.759.37.003.74-.051 1.094-.16l21.437-5.744a3.85 3.85 0 0 0 2.72-4.715m-42.8 5.845H3.371a1.03 1.03 0 0 1-1.027-1.027V27.239a1.03 1.03 0 0 1 1.027-1.027h2.917a1.03 1.03 0 0 1 1.027 1.027v14.396a1.03 1.03 0 0 1-1.027 1.027m39.675-2.636-21.451 5.746-.036.01c-1.507.482-4.128-1.014-6.662-2.462-3.021-1.726-6.134-3.502-8.933-3.222V28.485c6.382-2.289 7.702-1.149 8.984-.046q.552.507 1.192.898l8.447 4.877a2.008 2.008 0 0 1-2.016 3.474l-7.052-4.072a.78.78 0 0 0-.782 1.353l7.053 4.072a3.55 3.55 0 0 0 1.778.478 3.6 3.6 0 0 0 1.614-.385 1 1 0 0 0 .109-.015l16.53-3.5c1.3-.275 2.519.415 2.838 1.606a2.29 2.29 0 0 1-1.613 2.797zM6.132 29.033a1.303 1.303 0 1 1-2.606.008 1.303 1.303 0 0 1 2.606-.008m15.424-8.583h1.322a12 12 0 0 0 1.12 2.7l-.936.935a1.42 1.42 0 0 0-.131 1.867 14.7 14.7 0 0 0 2.9 2.899 1.415 1.415 0 0 0 1.866-.131l.936-.935c.85.482 1.757.858 2.698 1.121v1.323a1.416 1.416 0 0 0 1.229 1.412c1.36.191 2.74.191 4.101 0a1.416 1.416 0 0 0 1.23-1.414v-1.32a12 12 0 0 0 2.699-1.12l.934.935a1.415 1.415 0 0 0 1.868.13 14.7 14.7 0 0 0 2.897-2.9 1.42 1.42 0 0 0-.13-1.867l-.936-.936c.481-.85.857-1.756 1.119-2.698h1.323a1.415 1.415 0 0 0 1.412-1.228c.192-1.36.192-2.741 0-4.102a1.415 1.415 0 0 0-1.412-1.227h-1.324a12 12 0 0 0-1.12-2.7l.935-.934a1.42 1.42 0 0 0 .133-1.861 14.7 14.7 0 0 0-2.9-2.9 1.415 1.415 0 0 0-1.867.131l-.934.936c-.85-.483-1.756-.86-2.697-1.125V4.12a1.416 1.416 0 0 0-1.228-1.413c-1.36-.19-2.74-.19-4.101 0a1.42 1.42 0 0 0-1.228 1.413v1.322c-.942.263-1.85.64-2.701 1.12l-.936-.935a1.42 1.42 0 0 0-1.867-.13 14.7 14.7 0 0 0-2.9 2.903 1.416 1.416 0 0 0 .133 1.867l.934.934a12 12 0 0 0-1.12 2.7h-1.321a1.416 1.416 0 0 0-1.413 1.227 14.7 14.7 0 0 0 0 4.102 1.415 1.415 0 0 0 1.413 1.221m.118-4.992h1.812a.78.78 0 0 0 .763-.611c.266-1.19.737-2.325 1.39-3.354a.78.78 0 0 0-.107-.97L24.251 9.24a13 13 0 0 1 2.426-2.425l1.281 1.282a.78.78 0 0 0 .972.107 10.6 10.6 0 0 1 3.353-1.39.78.78 0 0 0 .61-.76V4.238a13.3 13.3 0 0 1 3.431 0v1.818a.78.78 0 0 0 .611.762c1.19.265 2.324.734 3.353 1.386a.78.78 0 0 0 .972-.107l1.282-1.282a13 13 0 0 1 2.425 2.425l-1.282 1.283a.78.78 0 0 0-.107.97 10.5 10.5 0 0 1 1.39 3.352.78.78 0 0 0 .763.61h1.813a13.2 13.2 0 0 1 0 3.43H45.73a.78.78 0 0 0-.762.611 10.6 10.6 0 0 1-1.39 3.357.78.78 0 0 0 .106.97l1.283 1.283a13.2 13.2 0 0 1-2.426 2.425l-1.282-1.28a.78.78 0 0 0-.97-.107 10.5 10.5 0 0 1-3.355 1.39.78.78 0 0 0-.61.762v1.813a13.3 13.3 0 0 1-3.431 0v-1.813a.78.78 0 0 0-.61-.763 10.5 10.5 0 0 1-3.354-1.39.78.78 0 0 0-.972.107l-1.281 1.282a13 13 0 0 1-2.426-2.425l1.281-1.278a.78.78 0 0 0 .108-.97 10.5 10.5 0 0 1-1.391-3.354.78.78 0 0 0-.763-.611h-1.812a13.2 13.2 0 0 1 0-3.43zM34.609 25a7.823 7.823 0 1 0-7.823-7.823A7.83 7.83 0 0 0 34.61 25m0-14.084a6.261 6.261 0 1 1-4.426 1.833 6.27 6.27 0 0 1 4.426-1.837zm-3.249 7a.78.78 0 1 1 1.106-1.104l1.255 1.255 2.998-3.441a.781.781 0 0 1 1.172 1.027l-3.545 4.067a.78.78 0 0 1-.563.267h-.026a.78.78 0 0 1-.553-.228z"/></svg>