<svg xmlns="http://www.w3.org/2000/svg" width="50" height="50" fill="none"><path fill="#000" d="M4.165 2.083a3.136 3.136 0 0 0-3.122 3.121V28.12c0 1.713 1.409 3.13 3.122 3.13h2.084v6.25a1.042 1.042 0 0 0 1.845.661L13.8 31.25h21.615a3.15 3.15 0 0 0 3.13-3.13V5.204c0-1.713-1.417-3.121-3.13-3.121zm0 2.083h31.25c.595 0 1.046.443 1.046 1.038V28.12c0 .595-.451 1.046-1.046 1.046H13.308a1.04 1.04 0 0 0-.8.377l-4.175 5.052v-4.391a1.04 1.04 0 0 0-1.038-1.038h-3.13c-.595 0-1.038-.45-1.038-1.046V5.204c0-.595.443-1.038 1.038-1.038"/><path fill="#000" d="M37.5 14.578a1.041 1.041 0 0 0 0 2.084h8.335c.595 0 1.038.45 1.038 1.045V37.5c0 .595-.443 1.038-1.038 1.038h-4.168a1.04 1.04 0 0 0-1.038 1.038v4.56l-4.667-5.252a1.04 1.04 0 0 0-.777-.346H20.837c-.595 0-1.046-.443-1.046-1.038v-7.297a1.042 1.042 0 0 0-2.084 0V37.5c0 1.713 1.416 3.122 3.13 3.122h13.88l6.174 6.944a1.042 1.042 0 0 0 1.822-.693v-6.251h3.122a3.136 3.136 0 0 0 3.122-3.122V17.707c0-1.713-1.409-3.13-3.122-3.13zM19.79 6.25c-3.727 0-6.767 3.04-6.767 6.767a1.042 1.042 0 1 0 2.084 0 4.67 4.67 0 0 1 4.683-4.69 4.676 4.676 0 0 1 4.69 4.69c0 2.6-2.089 4.69-4.69 4.69a1.04 1.04 0 0 0-1.038 1.038v3.13a1.041 1.041 0 0 0 2.084 0v-2.522c3.16-.568 5.729-3.017 5.729-6.336 0-3.727-3.048-6.767-6.775-6.767m1.043 19.788a1.041 1.041 0 1 1-2.082 0 1.041 1.041 0 0 1 2.082 0"/></svg>