<svg xmlns="http://www.w3.org/2000/svg" width="50" height="50" fill="none"><g clip-path="url(#a)"><path fill="#000" fill-rule="evenodd" d="M38.342 30.726c-.234 0-.468-.087-.615-.322l-1.758-2.46-1.845 2.49c-.586.79-1.787-.118-1.2-.909l2.138-2.87-2.08-2.9c-.586-.79.644-1.699 1.23-.879L36 25.396l1.816-2.432c.586-.79 1.787.117 1.2.908l-2.079 2.812 2.021 2.842c.352.497-.03 1.2-.615 1.2m1.142-17.78H10.486c-.966 0-.966-1.493 0-1.493h28.998c.996 0 .996 1.494 0 1.494m0 4.248H10.486c-.966 0-.966-1.523 0-1.523h28.998c.996 0 .996 1.523 0 1.523m5.478 21.002V11.54c0-4.101-2.373-7.41-5.273-7.41H10.31c-2.929 0-5.272 3.309-5.272 7.41v26.655H20.71l.03.029h.058l.029.03h.059v.029h.029l.03.029h.029l.029.03.029.028h.03v.03h.029c0 .029.205.322.205.556v2.256h7.381v-2.256c0-.556.293-.586.615-.761h15.671m-41.447 0V11.54c0-4.921 3.046-8.934 6.795-8.934h29.38c3.749 0 6.795 4.013 6.795 8.934v26.655h2.753c.41 0 .762.322.762.761 0 4.628-3.779 8.407-8.436 8.407H8.436C3.779 47.364 0 43.585 0 38.957c0-.44.351-.761.762-.761zM19.8 39.69H1.552c.381 3.456 3.31 6.18 6.884 6.18h33.128c3.544 0 6.503-2.724 6.884-6.18H30.199v2.284c0 .41-.351.762-.761.762h-8.905c-.41 0-.732-.322-.732-.762zm1.318-7.323a.755.755 0 0 1-.732-.967l2.782-10.427c.264-.938 1.729-.528 1.465.41L21.85 31.81a.78.78 0 0 1-.732.557m7.44-1.611c-1.67 0-2.93-1.084-2.841-2.812v-4.657c0-.967 1.494-.967 1.494 0 0 .937.058 4.1 0 4.774-.147 1.582 2.811 1.582 2.665 0-.059-.645 0-3.866 0-4.774 0-.967 1.523-.967 1.523 0v4.657c.059 1.728-1.2 2.812-2.841 2.812m-14.88-.498c-1.67 0-2.93-1.084-2.841-2.812v-4.658c0-.966 1.494-.966 1.494 0 0 .967.058 4.043 0 4.775-.118 1.582 2.811 1.582 2.665 0-.059-.732 0-3.808 0-4.774s1.523-.967 1.523 0v4.657c.059 1.728-1.2 2.812-2.841 2.812m5.067-.03a.756.756 0 0 1-.761-.761v-6.65c0-.995 1.523-.995 1.523 0v6.65c0 .44-.352.762-.762.762" clip-rule="evenodd"/></g><defs><clipPath id="a"><path fill="#fff" d="M0 0h50v50H0z"/></clipPath></defs></svg>