<svg xmlns="http://www.w3.org/2000/svg" width="50" height="50" fill="none"><g fill="#000" clip-path="url(#a)"><path d="M33.279 3.994H20.525a.743.743 0 1 0 0 1.487h12.754a.743.743 0 1 0 0-1.487M26.204 7.162h-5.68a.743.743 0 1 0 0 1.487h5.68a.743.743 0 1 0 0-1.487"/><path d="M46.792 7.292a.743.743 0 1 0 0 1.487c.732 0 1.327.595 1.327 1.326v21.121h-5.426V8.78h1.24a.743.743 0 1 0 0-1.487h-1.24V2.234A2.236 2.236 0 0 0 40.46 0H9.346a2.236 2.236 0 0 0-2.234 2.234v5.058h-3.9a2.816 2.816 0 0 0-2.814 2.813V38.82a2.816 2.816 0 0 0 2.813 2.813H7.79a.743.743 0 1 0 0-1.487H3.211a1.33 1.33 0 0 1-1.326-1.327v-6.106h46.233v6.106c0 .732-.595 1.327-1.326 1.327h-35.5a.743.743 0 1 0 0 1.486h7.617v3.94a3.69 3.69 0 0 0-3.62 3.685c0 .41.333.743.743.743h17.94c.41 0 .743-.333.743-.743a3.69 3.69 0 0 0-3.62-3.685v-3.94h15.697a2.816 2.816 0 0 0 2.813-2.812V10.105a2.816 2.816 0 0 0-2.813-2.813M7.112 31.226H1.885V10.105c0-.731.595-1.326 1.326-1.326h3.901zM41.207 10.86H15.884a.743.743 0 1 0 0 1.487h25.323v18.88H8.599v-18.88h3.42a.743.743 0 1 0 0-1.487h-3.42V2.234c0-.412.335-.747.747-.747H40.46c.412 0 .747.335.747.746zM20.396 41.632h9.212v3.938h-9.212zm12.703 6.881H16.905a2.2 2.2 0 0 1 2.07-1.456h12.053c.953 0 1.766.608 2.07 1.456"/><path d="M25.399 34.183a2.25 2.25 0 0 0-2.247 2.246 2.25 2.25 0 0 0 2.247 2.247 2.25 2.25 0 0 0 2.246-2.247 2.25 2.25 0 0 0-2.246-2.246m0 3.006a.76.76 0 1 1 .002-1.521.76.76 0 0 1-.002 1.521M16.734 7.689 14.287 3.45a.743.743 0 0 0-1.288 0l-2.446 4.238a.743.743 0 0 0 .643 1.115h4.894a.743.743 0 0 0 .644-1.115m-4.25-.372 1.16-2.008 1.158 2.008zM39.013 15.088H28.247a.743.743 0 1 0 0 1.487h10.766a.743.743 0 1 0 0-1.487M39.013 18.357H28.247a.743.743 0 1 0 0 1.487h10.766a.743.743 0 1 0 0-1.487M39.013 21.626H28.247a.743.743 0 1 0 0 1.487h10.766a.743.743 0 1 0 0-1.487M39.013 24.896H28.247a.743.743 0 1 0 0 1.486h10.766a.743.743 0 1 0 0-1.487M33.278 28.165h-5.03a.743.743 0 1 0 0 1.487h5.03a.743.743 0 1 0 0-1.487M24.9 14.462H11.197a.743.743 0 0 0-.744.743V28.91c0 .41.333.743.744.743H24.9c.41 0 .743-.333.743-.744V15.206a.743.743 0 0 0-.743-.743m-12.96 1.487h12.216v7.772a4 4 0 0 0-.25-.036c-1.295-.145-2.04.373-2.639.79-.449.312-.837.582-1.487.635-1.052.086-1.727-.473-2.58-1.18-.952-.786-2.03-1.677-3.744-1.573q-.772.048-1.516.352zm12.216 12.216H11.94V24.37c.527-.318 1.066-.495 1.606-.528 1.129-.07 1.86.535 2.706 1.235.935.773 1.994 1.649 3.648 1.516 1.05-.085 1.696-.535 2.216-.897.533-.37.886-.615 1.626-.532q.206.022.414.077z"/><path d="M20.009 17.608a2.277 2.277 0 0 0-2.275 2.275 2.277 2.277 0 0 0 2.275 2.274 2.277 2.277 0 0 0 2.274-2.274 2.277 2.277 0 0 0-2.274-2.275m0 3.062a.789.789 0 0 1 0-1.575.789.789 0 0 1 0 1.575"/></g><defs><clipPath id="a"><path fill="#fff" d="M0 0h50v50H0z"/></clipPath></defs></svg>