<svg xmlns="http://www.w3.org/2000/svg" width="60" height="60" fill="none"><path fill="#282928" d="M45.505 57.306h-5.727v-5.013H20.223v5.013H14.5a.848.848 0 0 0 0 1.695h31.005a.848.848 0 0 0 0-1.695Zm9.44-47.048H36.102c-.666-2.045-3.596-6.97-5.787-9.056a.797.797 0 0 0-1.062 0c-2.179 2.074-5.117 6.965-5.81 9.056H5.055a3.029 3.029 0 0 0-3.03 3.029v34.282a3.035 3.035 0 0 0 3.03 3.028h49.89a3.036 3.036 0 0 0 3.03-3.028V13.287a3.027 3.027 0 0 0-3.029-3.03ZM33.538 14.79a3.761 3.761 0 0 1-3.752 3.764 3.771 3.771 0 0 1-3.775-3.764 3.774 3.774 0 0 1 3.775-3.775c2.079 0 3.752 1.695 3.752 3.775Zm-1.164 30.687h-4.736a.838.838 0 0 1-.848-.847c0-.463.372-.848.848-.848h4.736c.464 0 .847.386.847.848a.846.846 0 0 1-.847.847ZM56.279 39.6H3.721V13.287c0-.737.598-1.334 1.334-1.334H22.97a20.493 20.493 0 0 0-.598 4.826c0 2.734.553 5.459 1.65 8.047h11.507a20.496 20.496 0 0 0 1.65-8.07c0-1.617-.203-3.222-.588-4.803h18.355c.737 0 1.336.598 1.336 1.334L56.279 39.6Z"/><path fill="#282928" d="M26.766 29.555a.8.8 0 0 0 .634.312h1.529v1.885a.848.848 0 0 0 1.695 0v-1.885h1.534a.794.794 0 0 0 .632-.312 22.301 22.301 0 0 0 1.93-3.034h-9.88a22.413 22.413 0 0 0 1.926 3.034Zm-7.391-.196c.137.509.825.59 1.096.124a10.646 10.646 0 0 1 2.487-2.881 22.136 22.136 0 0 1-2-6.342c-1.93 2.735-2.405 6.073-1.583 9.099Zm17.227-2.746a10.414 10.414 0 0 1 2.474 2.883c.261.452.95.384 1.097-.113.83-2.958.388-6.36-1.583-9.11a22.488 22.488 0 0 1-1.988 6.34Zm-9.592 5.121a.848.848 0 0 0-.847.848v2.11a.848.848 0 0 0 1.695 0v-2.11a.848.848 0 0 0-.848-.848Zm5.585 0a.848.848 0 0 0-.848.848v1.135a.848.848 0 0 0 1.695 0v-1.135a.847.847 0 0 0-.847-.848Z"/></svg>