<svg xmlns="http://www.w3.org/2000/svg" width="60" height="60" fill="none"><mask id="a" width="42" height="42" x="9" y="9" maskUnits="userSpaceOnUse" style="mask-type:luminance"><path fill="#fff" d="M50.868 9H9v41.868h41.868V9Z"/></mask><g fill="#282928" mask="url(#a)"><path d="M29.933 14.537a3.695 3.695 0 1 0 0 7.39 3.695 3.695 0 0 0 0-7.39Zm0 5.544a1.854 1.854 0 1 1 0-3.71 1.854 1.854 0 0 1 0 3.71Z"/><path d="M49.917 26.127a.948.948 0 0 0 .951-.949v-3.805a.95.95 0 0 0-.464-.818L31.79 9.5l-.025-.015a3.69 3.69 0 0 0-3.685.013L9.463 20.556a.951.951 0 0 0-.463.818v3.805a.95.95 0 0 0 .951.95h2.855v17.127A3.81 3.81 0 0 0 9 47.062v2.854a.951.951 0 0 0 .951.952h39.966a.951.951 0 0 0 .951-.952v-2.854a3.81 3.81 0 0 0-3.806-3.805v-17.13h2.855Zm-.952 20.934v1.904H10.903v-1.904a1.903 1.903 0 0 1 1.903-1.908h34.256a1.906 1.906 0 0 1 1.902 1.908h.001ZM14.71 43.256V26.127h3.807v17.129H14.71Zm5.71 0V26.127h5.709v17.129h-5.71Zm7.611 0V26.127h3.807v17.129H28.03Zm5.71 0V26.127h5.709v17.129h-5.71Zm7.611 0V26.127h3.802v17.129h-3.802ZM10.903 24.225v-2.318l18.12-10.765a1.811 1.811 0 0 1 1.808-.007l18.134 10.777v2.317l-38.062-.004Z"/></g></svg>