<svg xmlns="http://www.w3.org/2000/svg" width="60" height="60" fill="none"><path fill="#282928" d="M46.066 35.861V16.05a3.529 3.529 0 0 0-3.525-3.524h-1.41v-1.41A2.117 2.117 0 0 0 39.016 9a2.117 2.117 0 0 0-2.114 2.115v1.41h-3.525v-1.41A2.117 2.117 0 0 0 31.262 9a2.117 2.117 0 0 0-2.114 2.115v1.41h-4.23v-1.41A2.117 2.117 0 0 0 22.803 9a2.117 2.117 0 0 0-2.114 2.115v1.41h-3.525v-1.41A2.117 2.117 0 0 0 15.049 9a2.117 2.117 0 0 0-2.115 2.115v1.41h-1.41A3.529 3.529 0 0 0 8 16.049v28.197a3.529 3.529 0 0 0 3.525 3.524h23.701c1.466 2.525 4.192 4.23 7.315 4.23C47.206 52 51 48.206 51 43.541c0-3.406-2.027-6.34-4.934-7.68ZM38.31 11.115a.705.705 0 0 1 1.41 0v4.23a.705.705 0 0 1-1.41 0v-4.23Zm-7.754 0a.705.705 0 0 1 1.41 0v4.23a.705.705 0 0 1-1.41 0v-4.23Zm-8.459 0a.705.705 0 0 1 1.41 0v4.23a.705.705 0 0 1-1.41 0v-4.23Zm-7.754 0a.705.705 0 0 1 1.41 0v4.23a.705.705 0 0 1-1.41 0v-4.23Zm-2.82 2.82h1.41v1.41c0 1.165.949 2.114 2.115 2.114a2.117 2.117 0 0 0 2.115-2.115v-1.41h3.524v1.41c0 1.166.95 2.115 2.115 2.115a2.117 2.117 0 0 0 2.115-2.115v-1.41h4.23v1.41c0 1.166.948 2.115 2.114 2.115a2.117 2.117 0 0 0 2.115-2.115v-1.41h3.525v1.41c0 1.166.948 2.115 2.114 2.115a2.117 2.117 0 0 0 2.115-2.115v-1.41h1.41c1.166 0 2.115.949 2.115 2.115v3.525H9.41v-3.525c0-1.166.948-2.115 2.115-2.115Zm0 32.426a2.117 2.117 0 0 1-2.114-2.115V20.984h35.246V35.36a8.418 8.418 0 0 0-2.115-.278c-.481 0-.95.05-1.41.127v-3.652a.704.704 0 0 0-.705-.704h-4.23a.704.704 0 0 0-.704.704v4.23c0 .39.315.705.705.705h1.678a8.455 8.455 0 0 0-3.793 7.049c0 .99.18 1.936.493 2.82h-23.05ZM39.72 35.082H36.9v-2.82h2.82v2.82Zm2.82 15.508a7.058 7.058 0 0 1-7.05-7.049 7.057 7.057 0 0 1 7.05-7.05 7.058 7.058 0 0 1 7.05 7.05c0 3.887-3.163 7.05-7.05 7.05Z"/><path fill="#282928" d="M42.804 41.94v-4.29h-1.367v4.29a1.36 1.36 0 0 0-.683 1.177c0 .069.01.135.02.201l-2.497 1.998.854 1.067 2.495-1.996c.154.06.32.096.495.096a1.36 1.36 0 0 0 .683-2.543ZM17.02 24.307h-2.732a.455.455 0 0 0-.456.455v2.733c0 .252.204.456.455.456h2.734a.455.455 0 0 0 .455-.456v-2.733a.455.455 0 0 0-.455-.455Zm-.455 2.733h-1.822v.364h1.822v-.364Zm7.745-2.733h-2.733a.455.455 0 0 0-.456.455v2.733c0 .252.204.456.456.456h2.733a.455.455 0 0 0 .455-.456v-2.733a.455.455 0 0 0-.455-.455Zm-.456 2.733h-1.822v.364h1.822v-.364Zm7.741-2.733h-2.733a.455.455 0 0 0-.456.455v2.733c0 .252.204.456.456.456h2.733a.455.455 0 0 0 .455-.456v-2.733a.455.455 0 0 0-.455-.455Zm-.456 2.733h-1.822v.364h1.822v-.364Zm8.475-2.733h-2.733a.455.455 0 0 0-.455.455v2.733c0 .252.203.456.455.456h2.733a.455.455 0 0 0 .456-.456v-2.733a.455.455 0 0 0-.456-.455Zm-.455 2.733h-1.822v.364h1.822v-.364ZM17.02 31.594h-2.732a.455.455 0 0 0-.456.455v2.733c0 .252.204.456.455.456h2.734a.455.455 0 0 0 .455-.456V32.05a.455.455 0 0 0-.455-.455Zm-.455 2.733h-1.822v.364h1.822v-.364Zm7.745-2.733h-2.733a.455.455 0 0 0-.456.455v2.733c0 .252.204.456.456.456h2.733a.455.455 0 0 0 .455-.456V32.05a.455.455 0 0 0-.455-.455Zm-.456 2.733h-1.822v.364h1.822v-.364Zm7.741-2.733h-2.733a.455.455 0 0 0-.456.455v2.733c0 .252.204.456.456.456h2.733a.455.455 0 0 0 .455-.456V32.05a.455.455 0 0 0-.455-.455Zm-.456 2.733h-1.822v.364h1.822v-.364ZM17.02 39.61h-2.732a.455.455 0 0 0-.456.455v2.733c0 .252.204.455.455.455h2.734a.455.455 0 0 0 .455-.455v-2.733a.455.455 0 0 0-.455-.456Zm-.455 2.732h-1.822v.365h1.822v-.365Zm7.745-2.732h-2.733a.455.455 0 0 0-.456.455v2.733c0 .252.204.455.456.455h2.733a.455.455 0 0 0 .455-.455v-2.733a.455.455 0 0 0-.455-.456Zm-.456 2.732h-1.822v.365h1.822v-.365Zm7.741-2.732h-2.733a.455.455 0 0 0-.456.455v2.733c0 .252.204.455.456.455h2.733a.455.455 0 0 0 .455-.455v-2.733a.455.455 0 0 0-.455-.456Zm-.456 2.732h-1.822v.365h1.822v-.365Z"/></svg>