<svg xmlns="http://www.w3.org/2000/svg" width="60" height="60" fill="none"><path fill="#282928" d="M29.999 15a6 6 0 1 1 6-6 6.008 6.008 0 0 1-6 6Zm0-9.89a3.89 3.89 0 1 0 0 7.78 3.89 3.89 0 0 0 0-7.78ZM40.94 32H19.06a1.09 1.09 0 0 1-.75-.295.98.98 0 0 1-.31-.71v-5.803C18 20.675 21.873 17 26.633 17h6.734C38.126 17 42 20.675 42 25.192v5.802a.98.98 0 0 1-.31.711 1.09 1.09 0 0 1-.748.295Zm-20.82-2.011h19.76v-4.797c-.002-1.639-.69-3.21-1.91-4.369-1.222-1.159-2.878-1.81-4.605-1.812H26.63c-1.727.003-3.382.655-4.602 1.813-1.22 1.159-1.907 2.73-1.91 4.368v4.797Z"/><path fill="#282928" d="M36.999 32c-.265 0-.52-.099-.707-.275a.912.912 0 0 1-.293-.665v-4.12a.91.91 0 0 1 .293-.665c.188-.176.442-.275.707-.275.265 0 .52.099.707.275a.912.912 0 0 1 .293.665v4.12a.91.91 0 0 1-.293.665A1.033 1.033 0 0 1 37 32Zm-14 0c-.265 0-.52-.099-.707-.275a.912.912 0 0 1-.293-.665v-4.12a.91.91 0 0 1 .293-.665c.188-.176.442-.275.707-.275.265 0 .52.099.707.275a.912.912 0 0 1 .293.665v4.12a.91.91 0 0 1-.293.665A1.033 1.033 0 0 1 23 32Zm13.717 16H25.057c-.275 0-.54-.11-.735-.307a1.052 1.052 0 0 1 0-1.482c.195-.196.46-.307.735-.307h11.659a2.25 2.25 0 0 0 1.572-.68 2.286 2.286 0 0 0 0-3.192 2.25 2.25 0 0 0-1.572-.68H25.029c-.099 0-2.434-.082-5.35-1.355l-.184-.081c-2.712-1.2-4.705-1.812-5.922-1.82-1.963-.012-3.645.393-4.995 1.2a1.035 1.035 0 0 1-1.569-.748 1.057 1.057 0 0 1 .507-1.053c1.68-1.007 3.72-1.512 6.07-1.495 2.03.014 4.82 1.147 6.744 1.997l.175.077c2.429 1.06 4.406 1.175 4.572 1.183h11.639c1.14.014 2.23.48 3.032 1.299a4.39 4.39 0 0 1 1.251 3.072 4.39 4.39 0 0 1-1.251 3.073A4.319 4.319 0 0 1 36.716 48Z"/><path fill="#282928" d="M29.708 57c-.497 0-.996-.023-1.498-.068a16.548 16.548 0 0 1-5.045-1.3l-4.344-1.872a36.84 36.84 0 0 0-4.06-1.48c-.986-.293-1.505-.397-1.766-.434-2.121-.295-3.747-.288-4.578.02a1.068 1.068 0 0 1-.967-.114 1.032 1.032 0 0 1-.332-.368 1.005 1.005 0 0 1-.119-.477V38.96c0-.271.11-.531.306-.723a1.06 1.06 0 0 1 1.48 0c.196.192.307.452.307.723v10.685c1.101-.118 2.505-.06 4.198.176.495.069 1.177.233 2.08.502a38.81 38.81 0 0 1 4.297 1.566l4.344 1.872a14.4 14.4 0 0 0 4.396 1.134c1.137.107 2.283.072 3.411-.103 1.434-.227 3.544-.924 4.338-1.186l.136-.045c7.933-2.6 15.12-9.593 17.84-12.47a2.747 2.747 0 0 0 .702-2.547c-.143-.58-.506-1.367-2.006-1.486a2.918 2.918 0 0 0-1.91.529l-10.081 7.117a1.057 1.057 0 0 1-.785.192 1.062 1.062 0 0 1-.69-.412 1.014 1.014 0 0 1-.184-.77 1.01 1.01 0 0 1 .434-.669l10.082-7.117a5.042 5.042 0 0 1 3.302-.913c2.053.163 3.428 1.246 3.87 3.047a4.732 4.732 0 0 1-.033 2.353 4.821 4.821 0 0 1-1.165 2.06c-2.83 3-10.32 10.273-18.713 13.025l-.13.044c-.84.277-3.07 1.014-4.675 1.264-.807.128-1.624.192-2.442.192Z"/><path fill="#282928" d="M6 55c-.796 0-1.559-.34-2.121-.944a3.35 3.35 0 0 1-.88-2.277V37.22c0-.854.316-1.673.879-2.277A2.9 2.9 0 0 1 5.999 34a2.9 2.9 0 0 1 2.121.944c.563.604.879 1.423.879 2.277V51.78a3.35 3.35 0 0 1-.88 2.276A2.902 2.902 0 0 1 6 55Zm0-18.933a1.04 1.04 0 0 0-.76.339 1.2 1.2 0 0 0-.316.816v14.556c0 .307.113.6.315.817.201.217.475.338.76.338.285 0 .559-.121.76-.338a1.2 1.2 0 0 0 .315-.816V37.22a1.2 1.2 0 0 0-.315-.815 1.04 1.04 0 0 0-.76-.339Z"/></svg>