<svg xmlns="http://www.w3.org/2000/svg" width="60" height="60" fill="none"><path fill="#282928" d="M52.694 6.902h-6.91a.792.792 0 0 0 0 1.584h6.91a.792.792 0 0 0 0-1.584ZM41.86 8.486h.843a.792.792 0 0 0 0-1.584h-.843a.792.792 0 0 0 0 1.584Zm0 3.721h10.835a.792.792 0 0 0 0-1.584H41.86a.792.792 0 0 0 0 1.584Zm2.865 37.658c0-3.164-1.057-6.268-2.98-8.775l.146-2.704a3.22 3.22 0 0 0-3.218-3.398h-8.67a1.51 1.51 0 0 1-.64-1.233v-2.212c1.344-.87 2.288-1.86 2.981-3.04h1.533a3.22 3.22 0 0 0 3.215-3.216v-5.914a2.55 2.55 0 0 0-1.44-2.297v-4.15a3.431 3.431 0 0 0-3.427-3.428h-.089a.098.098 0 0 1-.098-.098 3.431 3.431 0 0 0-3.427-3.427h-8.387c-4.164 0-7.55 3.387-7.55 7.55v3.553a2.551 2.551 0 0 0-1.441 2.297v3.008a2.555 2.555 0 0 0 2.552 2.552h1.023c.264 2.238 1.314 4.282 2.959 5.703.386.334.785.632 1.195.898v2.22c0 .493-.243.951-.643 1.234H9.652a3.22 3.22 0 0 0-3.218 3.398l.147 2.704a14.465 14.465 0 0 0-2.98 8.775v2.983a2.485 2.485 0 0 0-.634 1.659 2.498 2.498 0 0 0 2.495 2.495h37.401a2.498 2.498 0 0 0 2.495-2.495 2.49 2.49 0 0 0-.633-1.66v-2.982Zm-1.584 0v2.163a2.514 2.514 0 0 0-.278-.016h-1.711l.447-8.236a12.87 12.87 0 0 1 1.542 6.089Zm-7.714-30.879c.052.12.081.25.081.387v3.008a.97.97 0 0 1-.968.968h-.942v-2.985l.488-.17a2.333 2.333 0 0 0 1.341-1.208Zm-5.287 9.176h-1.988a.582.582 0 0 1 0-1.162h1.988a.582.582 0 0 1 0 1.162Zm3.737-1.243h-.8a9.323 9.323 0 0 0 .458-1.986h1.005c.343 0 .67-.068.968-.191v.546c0 .9-.731 1.631-1.631 1.631Zm-19.62-13.396a5.973 5.973 0 0 1 5.967-5.966h8.387c1.017 0 1.843.827 1.843 1.843 0 .928.755 1.682 1.682 1.682h.09c1.016 0 1.842.827 1.842 1.843v5.065a.75.75 0 0 1-.503.708l-1.664.58a.102.102 0 0 1-.136-.098l.003-3.147c.01-2.297-2.141-4.3-5.155-3.332-1.515.487-3.39.486-4.901 0-2.982-.958-5.164 1.01-5.154 3.33l.003 3.15c0 .072-.07.12-.136.097l-1.665-.58a.75.75 0 0 1-.503-.708v-4.467Zm-1.44 8.858v-3.008c0-.137.03-.268.082-.387.262.554.737.997 1.34 1.208l.488.17v2.985h-.941a.97.97 0 0 1-.969-.968Zm3.509 1.637c-.026-1.04-.01-2.146-.015-3.158a1.687 1.687 0 0 0 1.834-1.682l-.003-3.152c-.006-1.285 1.148-2.44 3.085-1.817 1.837.59 4.04.588 5.871 0 1.846-.593 3.092.451 3.086 1.82l-.003 3.15a1.686 1.686 0 0 0 1.833 1.681v3.223a7.813 7.813 0 0 1-.327 1.987 2.157 2.157 0 0 0-1.547-.654h-1.988a2.167 2.167 0 0 0-2.165 2.165c0 1.194.971 2.165 2.165 2.165h1.006c-1.463 1.142-3.126 1.737-4.954 1.767-3.998-.032-7.764-2.985-7.878-7.495Zm4.22 9.737v-1.386a9.655 9.655 0 0 0 3.656.729h.018a9.666 9.666 0 0 0 3.56-.723v1.38c0 .432.09.85.257 1.233h-7.749c.168-.383.258-.801.258-1.233ZM6.726 43.776l.126 2.305a.792.792 0 1 0 1.581-.086L8.016 38.3a1.638 1.638 0 0 1 1.636-1.727h29.021c.938 0 1.688.784 1.637 1.727l-.744 13.712h-12.42a4.863 4.863 0 0 1 1.187-2.453l.023-.025c2.397-2.682 1.68-6.876-1.42-8.637-.794-.451-1.804.112-1.804 1.049v3.593a.299.299 0 0 1-.299.299h-1.34a.299.299 0 0 1-.3-.299v-3.593c0-.935-1.008-1.501-1.804-1.049-3.108 1.766-3.81 5.961-1.417 8.64l.02.022a4.863 4.863 0 0 1 1.187 2.453H8.76l-.127-2.342a.792.792 0 1 0-1.582.086l.123 2.256H5.462a2.54 2.54 0 0 0-.277.016v-2.163c0-2.13.54-4.227 1.542-6.089Zm16.053 8.236A6.44 6.44 0 0 0 21.17 48.5l-.02-.022a4.04 4.04 0 0 1 .46-5.818v2.879c0 1.038.844 1.883 1.883 1.883h1.34a1.885 1.885 0 0 0 1.883-1.883v-2.88a4.04 4.04 0 0 1 .457 5.821l-.017.02a6.44 6.44 0 0 0-1.61 3.512H22.78Zm20.084 3.406h-37.4a.912.912 0 0 1 0-1.822h37.4a.912.912 0 0 1 0 1.822Z"/><path fill="#282928" d="M56.24 8.422a.792.792 0 0 0 .792-.792V6.097a3.099 3.099 0 0 0-3.095-3.095h-13.32a3.099 3.099 0 0 0-3.095 3.095v6.662a3.099 3.099 0 0 0 3.095 3.095c.305 0 .553.248.553.553v4.12c0 .595.386 1.102.959 1.26.577.16 1.166-.08 1.47-.587l3.045-5.077a.556.556 0 0 1 .474-.269h6.82a3.099 3.099 0 0 0 3.095-3.095v-1.427a.792.792 0 0 0-1.584 0v1.427c0 .833-.678 1.511-1.512 1.511h-6.819c-.747 0-1.449.398-1.833 1.038l-2.53 4.22v-3.12a2.14 2.14 0 0 0-2.138-2.138 1.513 1.513 0 0 1-1.511-1.511V6.097c0-.833.678-1.511 1.511-1.511h13.32c.834 0 1.512.678 1.512 1.511V7.63c0 .437.354.792.791.792Z"/></svg>