<svg xmlns="http://www.w3.org/2000/svg" width="60" height="60" fill="none"><mask id="a" width="48" height="36" x="6" y="12" maskUnits="userSpaceOnUse" style="mask-type:luminance"><path fill="#fff" d="M53.108 12H6v35.844h47.108V12Z"/></mask><g mask="url(#a)"><path fill="#282928" d="m51.544 21.78-18.779-9.174a7.692 7.692 0 0 0-5.984 0L7.565 21.779A2.313 2.313 0 0 0 6 23.83c0 .485.216 1.35 1.565 2.051l1.565.755v8.634a2.644 2.644 0 0 0-1.673 2.428 2.674 2.674 0 0 0 1.618 2.428L6.648 47.84h6.799l-2.428-7.713a2.614 2.614 0 0 0-.053-4.856v-7.717l2.86 1.4v11.225a.87.87 0 0 0 .16.485 19.598 19.598 0 0 0 15.541 7.176 19.488 19.488 0 0 0 15.488-7.177.872.872 0 0 0 .161-.485V29.01l6.366-3.13a2.314 2.314 0 0 0 1.566-2.05 2.42 2.42 0 0 0-1.564-2.05ZM43.45 39.91a18.046 18.046 0 0 1-13.923 6.259 18.046 18.046 0 0 1-13.922-6.26V29.712l11.17 5.348a7.277 7.277 0 0 0 2.968.593 6.57 6.57 0 0 0 3.02-.648L43.45 29.76v10.15Zm7.339-15.541-6.476 3.183a.62.62 0 0 0-.593.323l-11.714 5.666a5.992 5.992 0 0 1-4.532 0l-14.405-6.906 16.565-1.943a.84.84 0 1 0-.161-1.673l-19.21 2.268-1.943-.918a1.088 1.088 0 0 1-.594-.485c0-.054.109-.27.594-.485l19.21-9.227a5.58 5.58 0 0 1 2.213-.432 5.473 5.473 0 0 1 2.266.432l18.778 9.173c.485.217.594.432.594.54-.152.21-.356.377-.592.484Z"/></g></svg>