<svg xmlns="http://www.w3.org/2000/svg" width="60" height="60" fill="none"><path fill="#282928" d="M43.125 1.406H33.75c-.777 0-1.406.63-1.406 1.407v2.812c0 .777.63 1.406 1.406 1.406h9.375c.777 0 1.406-.63 1.406-1.406V2.812c0-.776-.63-1.406-1.406-1.406ZM15.938 22.031H6.562a1.407 1.407 0 0 0 0 2.813h9.375a1.407 1.407 0 0 0 0-2.813Zm-.469 12.657a1.407 1.407 0 0 0-1.406-1.407H4.687a1.406 1.406 0 0 0 0 2.813h9.375a1.407 1.407 0 0 0 1.407-1.407ZM15 38.906H8.437a1.406 1.406 0 0 0 0 2.813H15a1.407 1.407 0 0 0 0-2.813Zm.469-9.843a1.407 1.407 0 0 0-1.406-1.407H1.874a1.406 1.406 0 0 0 0 2.813h12.188a1.407 1.407 0 0 0 1.406-1.407Zm22.969 2.812V15.937c-8.789 0-15.938 7.15-15.938 15.938s7.15 15.938 15.938 15.938c8.787 0 15.937-7.15 15.937-15.938H38.437Z"/><path fill="#282928" d="m53.861 17.502 1.508-1.508a1.406 1.406 0 1 0-1.988-1.988l-1.57 1.569a21.007 21.007 0 0 0-10.561-4.606V8.438h-5.625v2.53a21.007 21.007 0 0 0-10.561 4.606l-1.57-1.569a1.405 1.405 0 1 0-1.988 1.989l1.508 1.508a21.015 21.015 0 0 0-5.67 14.373c0 11.631 9.462 21.094 21.093 21.094 11.632 0 21.094-9.463 21.094-21.094a21.015 21.015 0 0 0-5.67-14.373ZM38.438 49.22a17.344 17.344 0 1 1 0-34.687 17.344 17.344 0 0 1 0 34.687Z"/></svg>