<svg xmlns="http://www.w3.org/2000/svg" width="60" height="60" fill="none"><mask id="a" width="43" height="42" x="9" y="9" maskUnits="userSpaceOnUse" style="mask-type:luminance"><path fill="#fff" d="M51.01 9.172H9.171v41.827h41.837V9.172Z"/></mask><g fill="#282928" mask="url(#a)"><path d="M19.51 51h6.198a1.377 1.377 0 0 0 1.387-1.37v-.194a35.466 35.466 0 0 0-.193-5.188 6.76 6.76 0 0 0-2.421-3.973c-.099-.07-.989-.662-4.748-3.156l-3.738-2.478a2.312 2.312 0 0 0-1.93-.279c-.145-1.366-.22-2.06-.542-5.028l-.218-1.993a2.095 2.095 0 0 0-1.643-1.8 2.038 2.038 0 0 0-.853.005 2.137 2.137 0 0 0-1.636 2.13c.045 5.34.045 5.41.069 7.02l.026 2.598a6.776 6.776 0 0 0 .875 3.369 8.47 8.47 0 0 0 2.227 2.442l.462.39a885.937 885.937 0 0 0 5.059 4.322.68.68 0 0 1 .24.522v1.272A1.376 1.376 0 0 0 19.51 51Zm-5.782-8.557-.47-.398a7.212 7.212 0 0 1-1.914-2.063 5.445 5.445 0 0 1-.694-2.709l-.027-2.597c-.02-1.61-.021-1.678-.07-7.014a.765.765 0 0 1 .544-.772.672.672 0 0 1 .543.111.717.717 0 0 1 .295.493l.216 1.987c.382 3.507.418 3.836.63 5.858a2.306 2.306 0 0 0 .554 3.048l7.221 5.467a.695.695 0 0 0 1.16-.637.693.693 0 0 0-.328-.463l-7.213-5.469a.925.925 0 0 1-.185-1.272.652.652 0 0 0 .089-.115.946.946 0 0 1 1.156-.103l3.735 2.481 4.672 3.101a5.434 5.434 0 0 1 1.905 3.148c.162 1.631.215 3.272.16 4.91v.189H19.51v-1.272a2.062 2.062 0 0 0-.726-1.576 1318.73 1318.73 0 0 1-5.057-4.323l.001-.01Zm35.643-16.897a2.037 2.037 0 0 0-1.634.339 2.1 2.1 0 0 0-.862 1.464l-.147 1.335c-.385 3.53-.463 4.22-.615 5.683a2.298 2.298 0 0 0-1.93.276l-3.864 2.564c-3.653 2.429-4.52 3-4.642 3.089a6.723 6.723 0 0 0-2.398 3.95 35.171 35.171 0 0 0-.198 5.192v.192A1.379 1.379 0 0 0 34.46 51h6.203a1.378 1.378 0 0 0 1.378-1.379V48.35a.685.685 0 0 1 .24-.522c1.297-1.103 3.16-2.695 5.06-4.328l.463-.393a8.459 8.459 0 0 0 2.23-2.439c.58-1.028.882-2.19.875-3.37l.03-2.593c.02-1.613.02-1.679.07-7.022a2.137 2.137 0 0 0-1.637-2.136Zm.191 9.135-.031 2.593a5.445 5.445 0 0 1-.694 2.71 7.207 7.207 0 0 1-1.91 2.06l-.473.401c-1.899 1.63-3.76 3.224-5.057 4.325a2.06 2.06 0 0 0-.726 1.573v1.271H34.47v-.177a36.692 36.692 0 0 1 .169-4.917 5.41 5.41 0 0 1 1.877-3.122c.116-.08 1.504-1.006 4.57-3.038l3.856-2.568a.905.905 0 0 1 .503-.151c.25 0 .49.099.668.275a.702.702 0 0 0 .08.1.925.925 0 0 1-.183 1.271l-7.224 5.466a.693.693 0 1 0 .832 1.1l7.224-5.47a2.298 2.298 0 0 0 .556-3.044c.232-2.137.254-2.382.702-6.507l.145-1.33a.716.716 0 0 1 .554-.614c.094-.02.19-.02.284.002a.764.764 0 0 1 .545.772c-.045 5.339-.047 5.405-.066 7.017l.001.002Z"/><path d="M44.797 23.645a14.712 14.712 0 0 0-29.422 0 14.713 14.713 0 0 0 29.422 0Zm-28.02 0a13.311 13.311 0 0 1 26.619 0 13.31 13.31 0 0 1-26.62 0Z"/><path d="M32.907 31.915v-4.824a.695.695 0 0 1 .706-.694h4.935a2.092 2.092 0 0 0 2.115-2.067v-1.374a2.091 2.091 0 0 0-2.115-2.067h-4.935a.694.694 0 0 1-.706-.694v-4.82a2.092 2.092 0 0 0-2.114-2.068h-1.411a2.092 2.092 0 0 0-2.115 2.067v4.824a.692.692 0 0 1-.705.694h-4.935a2.092 2.092 0 0 0-2.115 2.064v1.378a2.092 2.092 0 0 0 2.115 2.068h4.938a.694.694 0 0 1 .705.694v4.824a2.092 2.092 0 0 0 2.115 2.067h1.41a2.09 2.09 0 0 0 2.112-2.072Zm-4.23 0v-4.824a2.091 2.091 0 0 0-2.112-2.067h-4.938a.695.695 0 0 1-.706-.694v-1.374a.695.695 0 0 1 .706-.694h4.938a2.092 2.092 0 0 0 2.115-2.067v-4.82a.696.696 0 0 1 .705-.694h1.41a.693.693 0 0 1 .705.693v4.824a2.047 2.047 0 0 0 .62 1.462c.4.39.937.607 1.495.606h4.935a.694.694 0 0 1 .706.694v1.378a.694.694 0 0 1-.706.694h-4.937a2.092 2.092 0 0 0-2.115 2.067v4.824a.693.693 0 0 1-.705.694h-1.411a.697.697 0 0 1-.704-.702Z"/></g></svg>