<svg xmlns="http://www.w3.org/2000/svg" width="60" height="60" fill="none"><mask id="a" width="45" height="33" x="7" y="13" maskUnits="userSpaceOnUse" style="mask-type:luminance"><path fill="#fff" d="M51.987 13.08H7.007V46h44.98V13.08Z"/></mask><g mask="url(#a)"><path fill="#282928" d="M38.558 42.168H21.944a4.484 4.484 0 0 1-7.375 2.753 4.482 4.482 0 0 1-1.5-2.753H7.758a.755.755 0 0 1-.75-.767V16.904a.759.759 0 0 1 .75-.764h28.486a.75.75 0 0 1 .75.764v4.59h7.497a.737.737 0 0 1 .628.355l6.75 10.72a.793.793 0 0 1 .12.41v8.422a.755.755 0 0 1-.46.706.753.753 0 0 1-.29.061h-3.813a4.486 4.486 0 0 1-4.438 3.842 4.483 4.483 0 0 1-4.436-3.842h.007Zm1.436-.767a3.001 3.001 0 0 0 5.14 2.038 3 3 0 0 0-2.138-5.098 3.038 3.038 0 0 0-3.002 3.058v.002Zm-25.483 0a3 3 0 0 0 1.895 2.725 2.994 2.994 0 0 0 4.047-2.227 2.998 2.998 0 0 0-2.947-3.558 3.038 3.038 0 0 0-2.995 3.058v.002Zm35.983-.764v-1.53h-2.252v-1.53h2.252v-4.378l-.14-.226H39.247a.75.75 0 0 1-.533-.226.75.75 0 0 1-.216-.538V25.32a.756.756 0 0 1 .749-.765h5.808l-.966-1.537h-7.09v17.61h1.56a4.483 4.483 0 0 1 8.874 0l3.06.008Zm-14.994 0v-1.53H22.758v-1.53H35.5V20.732H10.01v-1.53H35.5v-1.53H8.513v19.905h3.752v1.532H8.513v1.529h4.564a4.48 4.48 0 0 1 7.37-2.747 4.483 4.483 0 0 1 1.504 2.747l13.549-.002Zm4.498-9.189h9.395l-3.396-5.395v.038h-5.999v5.357Zm2.253 10.719v-1.532h1.497v1.532h-1.497Zm-25.49 0v-1.532h1.499v1.532h-1.5Zm-6.747-27.559v-1.534h10.494v1.532l-10.494.002Zm-2.998 0v-1.534h1.498v1.532l-1.498.002Z"/></g></svg>