<svg xmlns="http://www.w3.org/2000/svg" width="60" height="60" fill="none"><g fill="#282928" clip-path="url(#a)"><path d="M36.359 5.151a.271.271 0 0 0 .053-.276c-.028-.085-.077-.133-.146-.146L32.63 4.1a1.078 1.078 0 0 1-.777-.578L30.157.112C30.142.085 30.1 0 30 0s-.144.086-.157.114L28.146 3.52c-.153.305-.44.52-.776.578l-3.635.63c-.07.013-.119.061-.147.146a.27.27 0 0 0 .053.276l2.584 2.737c.225.238.33.564.282.888l-.548 3.797c-.022.152.06.227.096.253.073.05.125.025.155.011l3.295-1.717c.31-.16.68-.16.99 0l3.294 1.718c.028.014.08.038.156-.012a.255.255 0 0 0 .096-.253l-.548-3.797c-.047-.324.056-.65.282-.888l2.584-2.737ZM6.77 21.396c.073.05.125.027.155.012l3.294-1.718c.31-.16.68-.16.99 0l3.295 1.718c.028.016.08.038.155-.012.036-.026.117-.102.097-.253l-.549-3.797c-.047-.323.057-.65.282-.888l2.584-2.736a.271.271 0 0 0 .054-.277c-.028-.085-.078-.133-.147-.146l-3.635-.63a1.078 1.078 0 0 1-.777-.578L10.87 8.683c-.014-.028-.057-.113-.157-.113s-.143.086-.156.114L8.86 12.09c-.153.305-.44.52-.777.579l-3.634.63c-.07.012-.12.06-.148.145a.27.27 0 0 0 .054.277l2.584 2.736c.225.238.329.565.282.888l-.549 3.797c-.021.152.061.227.096.253Zm48.874-7.672a.272.272 0 0 0 .054-.277c-.028-.084-.077-.133-.147-.146l-3.635-.63a1.078 1.078 0 0 1-.777-.578l-1.697-3.408c-.014-.028-.057-.113-.156-.113-.1 0-.144.086-.157.114l-1.697 3.407c-.153.305-.44.52-.777.578l-3.634.63c-.07.013-.119.062-.148.146a.27.27 0 0 0 .054.277l2.584 2.736c.225.238.329.564.282.888l-.549 3.797c-.021.152.061.227.097.253.073.05.126.027.155.012l3.295-1.718c.31-.16.68-.16.99 0l3.294 1.718c.028.016.08.038.155-.012.036-.026.117-.102.097-.253l-.549-3.797c-.047-.323.057-.65.282-.888l2.584-2.736ZM30 60a3.214 3.214 0 1 0 0-6.428 3.214 3.214 0 0 0 0 6.429Zm3.748-7.032a5.326 5.326 0 0 1 1.57 3.426c5.19-2.891 12.313-7.125 17.456-10.203-8.457 2.903-14.714 5.132-19.026 6.777Zm-4.82-14.342V25.742c-7.463.264-14.24 3.264-19.356 8.03l9.105 9.105a17.052 17.052 0 0 1 10.251-4.251ZM12.857 55.712c0-4.34 1.635-8.299 4.305-11.322l-9.105-9.105C3.063 40.645 0 47.825 0 55.713h12.857Zm18.214-29.97V38.61a17.113 17.113 0 0 1 10.261 4.258l9.095-9.095c-5.116-4.765-11.891-7.765-19.356-8.03Z"/><path d="M42.845 44.383a17.191 17.191 0 0 1 1.755 2.37c2.278-.799 4.766-1.661 7.488-2.596a2.107 2.107 0 0 1 2.637 1.113c.472 1.012.118 2.17-.845 2.754-2.12 1.269-4.576 2.733-7.095 4.22.233 1.133.359 2.294.359 3.467H60c0-7.887-3.064-15.068-8.057-20.428l-9.098 9.097v.003Z"/></g><defs><clipPath id="a"><path fill="#fff" d="M0 0h60v60H0z"/></clipPath></defs></svg>