<svg xmlns="http://www.w3.org/2000/svg" width="60" height="60" fill="none"><path fill="#282928" d="M27.32 36.873H11.808a1.01 1.01 0 1 1 0-2.021h15.514a1.01 1.01 0 1 1 0 2.02Zm0-12.127H11.808a1.01 1.01 0 1 1 0-2.021h15.514a1.01 1.01 0 1 1 0 2.02Zm-1.363 6.064H5.745a1.01 1.01 0 1 1 0-2.02h20.212a1.01 1.01 0 1 1 0 2.02Zm10.105 2.93c-2.008 0-4.042-1.354-4.042-3.943 0-2.59 2.034-3.944 4.042-3.944s4.042 1.355 4.042 3.944-2.034 3.943-4.042 3.943Zm0-5.865c-.933 0-2.021.503-2.021 1.922s1.088 1.922 2.02 1.922c.934 0 2.022-.503 2.022-1.922 0-1.42-1.088-1.922-2.021-1.922Z"/><path fill="#282928" d="M38.202 28.664a1.01 1.01 0 0 1-.714-1.725l5.717-5.717a1.01 1.01 0 1 1 1.429 1.43l-5.717 5.716a1.008 1.008 0 0 1-.715.296Zm-5.711 5.719a1.01 1.01 0 0 1-.715-1.725l1.43-1.43a1.01 1.01 0 1 1 1.429 1.429l-1.43 1.43a1.008 1.008 0 0 1-.714.296Zm3.57 14.615a1.01 1.01 0 0 1-1.01-1.01v-3.032a1.01 1.01 0 1 1 2.02 0v3.032a1.01 1.01 0 0 1-1.01 1.01Zm12.863-5.328c-.259 0-.518-.1-.715-.296l-2.143-2.145a1.01 1.01 0 1 1 1.429-1.429l2.143 2.145a1.01 1.01 0 0 1-.714 1.725ZM46.78 20.092a1.01 1.01 0 0 1-.715-1.725l2.144-2.145a1.01 1.01 0 1 1 1.43 1.43l-2.144 2.144a1.008 1.008 0 0 1-.715.296ZM36.061 15.65a1.01 1.01 0 0 1-1.01-1.01v-3.032a1.01 1.01 0 1 1 2.02 0v3.032a1.01 1.01 0 0 1-1.01 1.01Zm18.192 15.16h-3.032a1.01 1.01 0 1 1 0-2.02h3.032a1.01 1.01 0 1 1 0 2.02Zm-25.48-12.127H17.87a1.01 1.01 0 1 1 0-2.02h10.903a1.01 1.01 0 1 1 0 2.02Zm0 24.254H17.87a1.01 1.01 0 1 1 0-2.021h10.903a1.01 1.01 0 1 1 0 2.021Z"/><path fill="#282928" d="M36 48.979c-2.962 0-5.954-.682-8.733-2.114a1.01 1.01 0 1 1 .926-1.797c7.927 4.085 17.801 1.348 22.48-6.23 4.692-7.6 2.729-17.665-4.47-22.913-5.213-3.8-12.283-4.35-18.01-1.4a1.01 1.01 0 1 1-.926-1.797c6.4-3.298 14.299-2.685 20.127 1.563 8.046 5.865 10.242 17.114 4.998 25.608-3.589 5.815-9.914 9.08-16.392 9.08Z"/></svg>