<svg xmlns="http://www.w3.org/2000/svg" width="60" height="60" fill="none"><path fill="#282928" fill-rule="evenodd" d="M27.82 12.72c-1.132 0-2.052.937-2.052 2.088v3.188a.516.516 0 0 1-.364.512c-.701.234-1.387.524-2.048.862a.507.507 0 0 1-.614-.1l-2.224-2.255c-.385-.393-.9-.61-1.45-.61-.552 0-1.066.216-1.455.61l-3.077 3.127a2.08 2.08 0 0 0-.604 1.475c0 .559.214 1.084.604 1.478l2.22 2.254a.522.522 0 0 1 .099.625 14.99 14.99 0 0 0-.848 2.077.516.516 0 0 1-.504.372h-3.14c-1.133 0-2.058.937-2.058 2.088v2.247c-4.423-1.033-7.74-5.063-7.74-9.867 0-5.326 4.102-9.764 9.335-10.103a.75.75 0 0 0 .577-.336.772.772 0 0 0 .1-.671 9.277 9.277 0 0 1-.411-2.73C12.166 4.06 16.163 0 21.079 0c3.27 0 6.278 1.818 7.838 4.745a.76.76 0 0 0 1.21.18 10.048 10.048 0 0 1 7.206-3.023c5.504 0 10.083 4.548 10.202 10.14a.766.766 0 0 0 .702.755c5.156.407 9.194 4.841 9.194 10.094 0 4.804-3.316 8.834-7.74 9.867V30.51c0-1.151-.92-2.088-2.058-2.088h-3.14a.517.517 0 0 1-.504-.372 15.04 15.04 0 0 0-.847-2.076.524.524 0 0 1 .099-.626l2.22-2.254c.39-.394.603-.92.603-1.478 0-.558-.213-1.083-.603-1.475l-3.078-3.127a2.035 2.035 0 0 0-2.906 0l-2.224 2.256a.507.507 0 0 1-.614.1 14.512 14.512 0 0 0-2.043-.863.52.52 0 0 1-.369-.512v-3.188c0-1.15-.92-2.088-2.053-2.088h-4.353Zm10.515 7.645a2 2 0 0 1-2.381.387 13.336 13.336 0 0 0-1.835-.773 2.056 2.056 0 0 1-1.414-1.983v-3.188a.536.536 0 0 0-.53-.54H27.82a.536.536 0 0 0-.53.54v3.188c0 .919-.552 1.697-1.414 1.983a12.86 12.86 0 0 0-1.83.773 2.009 2.009 0 0 1-2.386-.386l-2.22-2.255a.52.52 0 0 0-.375-.158.512.512 0 0 0-.375.158l-3.082 3.125a.539.539 0 0 0-.151.381c0 .146.052.281.151.382l2.225 2.256c.639.649.785 1.599.38 2.42a12.674 12.674 0 0 0-.759 1.86c-.286.873-1.05 1.437-1.954 1.437h-3.137c-.291 0-.53.24-.53.539v2.476c.234.017.468.029.707.029h8.596c-.005-.098-.005-.196-.005-.296 0-4.967 3.976-9.009 8.868-9.009 4.89 0 8.872 4.042 8.872 9.01 0 .099-.005.197-.005.295h8.597c.234 0 .473-.012.706-.029v-2.476a.537.537 0 0 0-.534-.54h-3.14c-.9 0-1.668-.563-1.95-1.436a13.511 13.511 0 0 0-.763-1.86 2.08 2.08 0 0 1 .385-2.42l2.219-2.256c.099-.1.15-.236.15-.382a.539.539 0 0 0-.15-.38l-3.078-3.126a.529.529 0 0 0-.753 0l-2.22 2.254Zm-.992 12.355c0-4.112-3.295-7.46-7.344-7.46-4.05 0-7.344 3.348-7.344 7.46 0 .1 0 .198.005.296h14.678c.005-.098.005-.196.005-.296Zm-1.71 16.698-4.87-2.093V36.042a.77.77 0 0 0-.764-.774.77.77 0 0 0-.764.774v11.283l-4.865 2.092 5.629 2.42 5.634-2.419ZM29.235 60v-6.807l-6.06-2.607v6.809L29.234 60Zm1.527-6.807V60l6.061-2.605v-6.81l-6.06 2.608Zm-9.527-17.137.105 6.166-4.055 4.317a4.02 4.02 0 0 0-2.225-.671c-2.266 0-4.106 1.87-4.106 4.168s1.84 4.168 4.106 4.168c2.26 0 4.102-1.87 4.102-4.168a4.16 4.16 0 0 0-.775-2.429l4.266-4.546a.796.796 0 0 0 .214-.548l-.11-6.482a.763.763 0 0 0-.774-.762.765.765 0 0 0-.748.787Zm16.004-.025-.11 6.482c0 .204.073.4.214.547l4.261 4.55a4.195 4.195 0 0 0-.768 2.426c0 2.298 1.845 4.168 4.106 4.168 2.26 0 4.102-1.87 4.102-4.168s-1.84-4.168-4.102-4.168c-.82 0-1.59.248-2.235.672l-4.044-4.318.099-6.166a.765.765 0 0 0-.748-.787h-.01a.768.768 0 0 0-.765.762Zm11.144 2.95 2.157 2.26a4.176 4.176 0 0 0-.748 2.396c0 2.298 1.84 4.168 4.102 4.168 2.265 0 4.106-1.87 4.106-4.168 0-2.299-1.84-4.169-4.106-4.169-.833 0-1.612.256-2.26.693l-1.941-2.034v-2.084a.77.77 0 0 0-.764-.774.765.765 0 0 0-.758.774v2.398a.76.76 0 0 0 .212.54Zm-36.768 0a.777.777 0 0 0 .218-.54v-2.398a.77.77 0 0 0-.764-.774.77.77 0 0 0-.763.774v2.084l-1.94 2.033a4.048 4.048 0 0 0-2.26-.692C3.84 39.468 2 41.338 2 43.637c0 2.298 1.84 4.168 4.107 4.168 2.26 0 4.101-1.87 4.101-4.168 0-.892-.276-1.72-.748-2.398l2.155-2.258Z" clip-rule="evenodd"/></svg>