<svg xmlns="http://www.w3.org/2000/svg" width="60" height="60" fill="none"><path fill="#282928" d="m21.615 33.964 1.565 1.562 7.014-.004 1.559-1.558a2.211 2.211 0 0 1 1.563-.648V20.053a4.425 4.425 0 0 1 4.42-4.421H48.79V11.21c0-.585-.232-1.149-.652-1.558A2.173 2.173 0 0 0 46.579 9H6.789a2.17 2.17 0 0 0-1.558.652c-.42.41-.652.973-.652 1.559v22.105h15.473a2.21 2.21 0 0 1 1.563.648ZM14.85 12.64l1.563 1.563-2.21 2.21-1.564-1.563 2.21-2.21Zm-4.421 4.42 1.563 1.564-2.21 2.21-1.564-1.563 2.21-2.21Zm-1.105 7.738 9.947-9.948 1.563 1.563-9.948 9.947-1.562-1.563Z"/><path fill="#282928" d="M5.64 41.052h27.676v-5.527l-1.559 1.559c-.42.42-.984.652-1.57.652H23.18a2.22 2.22 0 0 1-1.57-.652l-1.558-1.559H.158l3.758 4.698c.42.52 1.05.829 1.724.829Zm32.097-23.21c-1.216 0-2.21.995-2.21 2.21v24.316c0 1.216.994 2.21 2.21 2.21h8.842v-2.21h-2.21v-2.21h2.21v-6.632A4.425 4.425 0 0 1 51 31.105h4.421V20.052c0-1.215-.995-2.21-2.21-2.21H37.737Z"/><path fill="#282928" d="M51 33.316c-1.216 0-2.21.995-2.21 2.21V48.79c0 1.216.994 2.21 2.21 2.21h6.631c1.216 0 2.21-.994 2.21-2.21V35.527c0-1.216-.994-2.21-2.21-2.21H51Zm4.42 15.474h-2.21v-2.21h2.21v2.21Z"/></svg>