<svg xmlns="http://www.w3.org/2000/svg" width="60" height="60" fill="none"><path fill="#282928" d="M50.274 45.324A3.465 3.465 0 0 0 53 41.932a3.436 3.436 0 0 0-.859-2.265 2.777 2.777 0 1 0-5.228 0 3.42 3.42 0 0 0-.858 2.265 3.465 3.465 0 0 0 2.725 3.392v3.213h-3.184V17.853l-18.497-7.568v6.96l-17.105-6.96v38.238H7.105v1.48h45.169v-1.48h-2v-3.2Zm-2.724-3.392a1.971 1.971 0 0 1 .74-1.48l.518-.415-.355-.563a1.289 1.289 0 1 1 2.177 0l-.356.563.504.415a1.984 1.984 0 1 1-3.228 1.48Zm-18.971-29.44 15.58 6.353V45.65h-15.58V12.492Zm-1.481 8.59h-2.37v1.48h2.37v3.673h-2.37v1.48h2.37v3.673h-2.37v1.481h2.37v4.295h-2.37v1.48h2.37v4.073h-7.034v-1.11h2.206v-1.481h-2.206V36.2h2.206v-1.48h-2.206v-3.925h2.206v-1.48h-2.206v-3.91h2.206v-1.482h-2.206V20.03h2.206v-1.481h-2.206v-2.547l7.034 2.858v2.221Zm-10.07 23.102v4.339h-1.644v-4.325l1.644-.014Zm1.48 0h1.556v4.339h-1.6l.045-4.34Zm3.08 0h1.6v4.339h-1.643l.044-4.34Zm-2.96-28.804v27.337h-7.154V12.492l7.153 2.887Zm-7.154 28.818h2.429v4.34h-2.429v-4.34Zm13.15 4.34v-4.34h2.474v4.34h-2.473Zm3.91 0v-1.393h15.58v1.392h-15.58Z"/><path fill="#282928" d="M12.984 22.844h2.636v1.48h-2.636v-1.48Zm0 3.39h2.636v1.481h-2.636v-1.48Zm0 3.393h2.636v1.48h-2.636v-1.48Zm0 3.391h2.636v1.48h-2.636v-1.48Zm0 3.39h2.636v1.481h-2.636v-1.48Zm25.782-13.564h2.636v1.48h-2.636v-1.48Zm0 3.39h2.636v1.481h-2.636v-1.48Zm0 3.393h2.636v1.48h-2.636v-1.48Zm0 3.391h2.636v1.48h-2.636v-1.48Zm0 3.39h2.636v1.481h-2.636v-1.48Zm0 3.392h2.636v1.482h-2.636V39.8Zm-7.52-16.956h2.636v1.48h-2.636v-1.48Zm0 3.39h2.636v1.481h-2.636v-1.48Zm0 3.393h2.636v1.48h-2.636v-1.48Zm0 3.391h2.636v1.48h-2.636v-1.48Zm0 3.39h2.636v1.481h-2.636v-1.48Zm0 3.392h2.636v1.482h-2.636V39.8Zm-18.262 0h2.636v1.482h-2.636V39.8Z"/></svg>