<svg xmlns="http://www.w3.org/2000/svg" width="60" height="60" fill="none"><mask id="a" width="46" height="46" x="7" y="7" maskUnits="userSpaceOnUse" style="mask-type:luminance"><path fill="#fff" d="M53 7H7v46h46V7Z"/></mask><g fill="#282928" mask="url(#a)"><path d="M46.54 7h-4.676c-.87 0-.87 1.348 0 1.348h4.676a3.702 3.702 0 0 1 3.704 3.69v15.598a3.702 3.702 0 0 1-3.704 3.69h-2.243a.674.674 0 0 0-.41.14l-4.116 3.148V32a.674.674 0 0 0-.674-.674h-8.202a3.686 3.686 0 0 1-1.887-.515v-7.565c0-1.417-.721-2.67-1.817-3.41V12.04a3.702 3.702 0 0 1 3.704-3.691h12.142c.87 0 .87-1.348 0-1.348H30.895c-2.786 0-5.052 2.26-5.052 5.039v7.206a4.13 4.13 0 0 0-.961-.114H12.544a4.126 4.126 0 0 0-4.126 4.116V30.1c0 .87 1.348.87 1.348 0v-6.852a2.777 2.777 0 0 1 2.778-2.768h12.338a2.777 2.777 0 0 1 2.779 2.768v7.834a.675.675 0 0 0 0 .178v4.288c0 .084-.006.169-.013.253h-1.39a3.126 3.126 0 0 0-3.073 2.558.679.679 0 0 0-.175.097l-3.014 2.328V38.99a.674.674 0 0 0-.674-.674h-6.777a2.777 2.777 0 0 1-2.78-2.768v-6.801c0-.87-1.347-.87-1.347 0v6.8a4.126 4.126 0 0 0 4.127 4.117h6.103v2.492c0 .54.657.864 1.086.533l3.4-2.625v7.582a3.124 3.124 0 0 0 3.124 3.116h4.136v1.573c0 .54.656.865 1.086.533l2.727-2.106h.806a3.124 3.124 0 0 0 3.124-3.116V42.85c0-.869-1.348-.869-1.348 0v4.795c0 .975-.796 1.768-1.776 1.768h-1.036a.678.678 0 0 0-.411.14l-1.824 1.41v-.876a.674.674 0 0 0-.674-.674h-4.81c-.98 0-1.776-.793-1.776-1.768v-8.729c0-.975.797-1.768 1.776-1.768h8.755c.98 0 1.776.793 1.776 1.768v5.108c0 .869 1.348.869 1.348 0v-5.108a3.124 3.124 0 0 0-3.124-3.116h-6.012c.005-.084.008-3.488.008-3.488a5.043 5.043 0 0 0 1.886.363h7.528v3.303c0 .54.654.864 1.084.535l5.018-3.838h2.015c2.786 0 5.052-2.26 5.052-5.04V12.04c0-2.78-2.266-5.04-5.052-5.04Z"/><path d="M40.404 11.98c-.856-.219-1.728.457-1.728 1.342 0 .966-.352 1.897-.99 2.62l-1.858 2.102a.673.673 0 0 0-.564-.307h-3.625a.674.674 0 0 0-.674.674v8.156c0 .372.302.674.674.674h3.625a.674.674 0 0 0 .612-.394c.734.448 1.585.69 2.45.69h6.406c.98 0 1.787-.849 1.74-1.825-.02-.432.003-6.238.003-6.367 0-.961-.782-1.743-1.74-1.743l-3.332-.01.138-.327a5.263 5.263 0 0 0-.277-4.63 1.374 1.374 0 0 0-.86-.655c.366.093-.367-.094 0 0 .366.093-.856-.219 0 0ZM34.59 25.893h-2.277v-6.808h2.277v6.808Zm10.142-6.943c.218 0 .395.177.395.395l-.003.948c-.01 2.605-.017 5.072.002 5.482a.394.394 0 0 1-.394.415h-6.406a3.36 3.36 0 0 1-2.105-.745l-.283-.23v-5.26l2.758-3.12a5.306 5.306 0 0 0 1.328-3.514c0-.038.052-.047.07-.018a3.906 3.906 0 0 1 .205 3.438L39.767 18a.674.674 0 0 0 .619.936l4.346.013ZM14.186 30.41a.674.674 0 1 0 0 1.347h1.986l-.37 2.245a.674.674 0 0 0 1.329.22l.407-2.465h1.626l-.37 2.245a.674.674 0 0 0 1.329.22l.407-2.465h2.704a.674.674 0 1 0 0-1.348h-2.48l.271-1.644h2.21a.674.674 0 0 0 0-1.348h-1.987l.371-2.244a.674.674 0 0 0-1.33-.22l-.407 2.464h-1.626l.371-2.244a.674.674 0 0 0-1.33-.22l-.407 2.464h-2.704a.674.674 0 1 0 0 1.348h2.48l-.27 1.644h-2.21Zm3.847-1.645h1.626l-.272 1.644h-1.626l.272-1.644Zm12.597 11.86a2.267 2.267 0 0 0-1.995-.448c-.93.226-1.87 1.096-1.87 2.53 0 .892.326 1.667.996 2.369.548.572 1.338 1.117 2.561 1.766a.674.674 0 0 0 .632 0c2.135-1.132 3.556-2.268 3.556-4.135 0-1.442-.972-2.303-1.936-2.517-.724-.16-1.426.01-1.944.435Zm2.532 2.082c0 1.007-.668 1.752-2.524 2.773-1.857-1.021-2.525-1.766-2.525-2.773 0-.75.434-1.122.84-1.22a1.02 1.02 0 0 1 .238-.029c.305 0 .641.141.848.543a.675.675 0 0 0 1.21-.024c.218-.468.676-.55 1.033-.47.426.093.88.459.88 1.2Z"/></g></svg>