<svg xmlns="http://www.w3.org/2000/svg" width="60" height="60" fill="none"><mask id="a" width="41" height="42" x="9" y="9" maskUnits="userSpaceOnUse" style="mask-type:luminance"><path fill="#fff" d="M50 9.027H9.027v41.005H50V9.027Z"/></mask><g fill="#282928" mask="url(#a)"><path d="M49.147 24.324H11.55a.856.856 0 0 0-.854.857v20.571a4.283 4.283 0 0 0 4.273 4.284h30.76a4.283 4.283 0 0 0 4.273-4.284V25.181a.855.855 0 0 0-.854-.857Zm-.854 21.428a2.57 2.57 0 0 1-2.563 2.57H14.968a2.57 2.57 0 0 1-2.561-2.57V26.038h35.886v19.714Z"/><path d="m49.975 16.506-1.457-5.534a2.577 2.577 0 0 0-3.062-1.882l-34.428 8.192a2.57 2.57 0 0 0-1.92 3.13l1.61 6.383a.852.852 0 0 0 1.34.477.855.855 0 0 0 .317-.896l-.094-.372 37.057-8.443a.86.86 0 0 0 .637-1.054v-.002ZM11.862 24.34l-1.097-4.344a.858.858 0 0 1 .646-1.048l34.432-8.19a.77.77 0 0 1 .186-.022.864.864 0 0 1 .835.66l1.232 4.686-36.234 8.258Z"/><path d="M18.795 24.47a.864.864 0 0 0-1.152.384l-3.428 6.855a.858.858 0 1 0 1.536.766l3.428-6.855a.859.859 0 0 0-.384-1.15Zm8.523 0a.861.861 0 0 0-1.15.384L22.74 31.71a.859.859 0 1 0 1.533.766l3.428-6.855a.86.86 0 0 0-.383-1.15Zm8.542 0a.862.862 0 0 0-1.151.384l-3.43 6.855a.857.857 0 1 0 1.533.766l3.428-6.855a.86.86 0 0 0-.38-1.15Zm8.524 0a.861.861 0 0 0-1.15.384l-3.428 6.855a.859.859 0 1 0 1.534.766l3.427-6.855a.86.86 0 0 0-.383-1.15Z"/><path d="M49.146 31.229H11.548a.857.857 0 1 0 0 1.714h37.598a.857.857 0 1 0 0-1.714Zm-29.305-8.314-5.902-5.902a.857.857 0 1 0-1.212 1.211l5.903 5.905a.861.861 0 0 0 .934.185.858.858 0 0 0 .277-1.4Zm8.341-1.881-5.907-5.902a.857.857 0 0 0-1.212 1.211l5.906 5.902a.855.855 0 0 0 1.225.014.857.857 0 0 0-.012-1.225Zm8.348-1.904-5.898-5.904a.855.855 0 1 0-1.207 1.211l5.898 5.905a.862.862 0 0 0 .934.186.848.848 0 0 0 .526-.793.857.857 0 0 0-.253-.605Zm8.331-1.9-5.899-5.905a.856.856 0 1 0-1.211 1.212l5.899 5.904a.859.859 0 0 0 1.211 0 .856.856 0 0 0 0-1.211Z"/></g></svg>