<svg xmlns="http://www.w3.org/2000/svg" width="60" height="60" fill="none"><path fill="#282928" d="M47.86 17.774v-5.27h7.524a.847.847 0 0 0 .739-1.262l-1.526-2.718 1.526-2.718a.847.847 0 0 0-.739-1.262h-7.68A2.395 2.395 0 0 0 45.47 3a2.394 2.394 0 0 0-2.392 2.391v12.383c-2.925.159-9.14.797-9.14 3.33 0 3.298 10.352 3.393 11.532 3.393 1.18 0 11.531-.095 11.531-3.393 0-2.533-6.214-3.17-9.14-3.33Zm5.027-8.835 1.05 1.871H47.86V6.239h6.078l-1.05 1.87a.847.847 0 0 0 0 .83ZM44.772 5.39a.698.698 0 0 1 1.394 0v14.866h-1.394V5.39Zm7.624 16.786c-1.9.404-4.361.626-6.927.626s-5.027-.222-6.928-.626c-1.887-.4-2.65-.857-2.864-1.073.192-.191.83-.587 2.361-.96 1.369-.332 3.133-.567 5.04-.674v1.634c0 .468.379.847.846.847h3.09c.467 0 .846-.38.846-.847V19.47c1.906.107 3.67.342 5.04.675 1.53.372 2.169.768 2.36.96-.213.216-.976.672-2.864 1.072ZM36.976 36.46a3.765 3.765 0 0 0-3.662 2.911H18.313A4.076 4.076 0 0 1 14.24 35.3v-2.223a3.765 3.765 0 0 0 2.912-3.662 3.765 3.765 0 0 0-2.912-3.661v-.866a2.94 2.94 0 0 1 2.937-2.937h12.667l-.612.536a.847.847 0 0 0 1.116 1.274l2.308-2.02a.847.847 0 0 0 0-1.275l-2.308-2.02a.847.847 0 1 0-1.116 1.275l.613.536H17.178a4.636 4.636 0 0 0-4.631 4.631v.866a3.765 3.765 0 0 0-2.912 3.661 3.764 3.764 0 0 0 2.912 3.662V35.3a5.772 5.772 0 0 0 5.766 5.765h15.001a3.77 3.77 0 0 0 2.815 2.815v3.432a5.088 5.088 0 0 1-5.083 5.082H10.42a3.765 3.765 0 0 0-3.661-2.912A3.763 3.763 0 0 0 3 53.242 3.763 3.763 0 0 0 6.759 57a3.765 3.765 0 0 0 3.661-2.912h20.627a6.784 6.784 0 0 0 6.776-6.776V43.88a3.764 3.764 0 0 0 2.912-3.662 3.763 3.763 0 0 0-3.76-3.758Zm-25.647-7.045c0-1.138.926-2.064 2.065-2.064 1.138 0 2.065.926 2.065 2.064a2.067 2.067 0 0 1-2.065 2.065 2.067 2.067 0 0 1-2.065-2.065Zm-4.57 25.89a2.067 2.067 0 0 1-2.065-2.064c0-1.138.926-2.065 2.065-2.065 1.138 0 2.065.927 2.065 2.065a2.067 2.067 0 0 1-2.065 2.065Zm30.217-13.022a2.067 2.067 0 0 1-2.065-2.065c0-1.138.926-2.064 2.065-2.064 1.138 0 2.065.926 2.065 2.064a2.067 2.067 0 0 1-2.065 2.065Z"/></svg>