<svg xmlns="http://www.w3.org/2000/svg" width="60" height="60" fill="none"><mask id="a" width="49" height="35" x="6" y="13" maskUnits="userSpaceOnUse" style="mask-type:luminance"><path fill="#fff" d="M54.79 13H6v34.963h48.79V13Z"/></mask><g mask="url(#a)"><path fill="#282928" d="M11.816 33.783a.854.854 0 0 0-.418 1.117l1.918 4.119a.85.85 0 0 0 1.125.418l14.496-6.771-1.312 13.728a.856.856 0 0 0 .281.716 3.72 3.72 0 0 0 2.252.852c.227 0 .453-.029.673-.085a4.328 4.328 0 0 0 2.707-3.145l5.704-16.891 11.302-5.27c3.325-1.551 5.04-4.698 3.888-7.154a4.32 4.32 0 0 0-3.333-2.329 7.903 7.903 0 0 0-4.655.718l-13.037 6.112-14.018-5.482a4.327 4.327 0 0 0-4.144.06 3.477 3.477 0 0 0-1.27 2.754.854.854 0 0 0 .367.674l9.44 6.49-5.408 2.556-9.065-2.302a.854.854 0 0 0-.946.409l-2.26 4.064a.853.853 0 0 0 .444 1.203l6.71 2.772-1.44.667Zm3.905-16.959a1.46 1.46 0 0 1 .511-.918c.487-.35 1.373-.299 2.559.144l12.482 4.869-5.694 2.658-9.858-6.753ZM8.048 29.136l1.483-2.634 8.722 2.166c.188.047.386.03.563-.051l28.358-13.243a6.231 6.231 0 0 1 3.641-.58 2.671 2.671 0 0 1 2.082 1.347c.715 1.535-.691 3.777-3.07 4.885l-9.83 4.607.596-1.765a.867.867 0 0 0-1.645-.546l-7.018 20.88c-.418 1.18-.937 1.893-1.518 2.047a1.44 1.44 0 0 1-1.04-.196l1.704-17.905a.857.857 0 0 0-1.704-.162l-.262 2.737-14.632 6.818-1.201-2.558 2.403-1.125a.852.852 0 0 0 0-1.56l-7.632-3.162Z"/></g></svg>