<svg width="60" height="60" viewBox="0 0 60 60" fill="none" xmlns="http://www.w3.org/2000/svg">
<path d="M8.32225 54C7.70656 53.9992 7.11632 53.7542 6.68099 53.3188C6.24566 52.8834 6.00076 52.2931 6 51.6774V28.4519C6.00084 27.8363 6.24578 27.2461 6.68111 26.8108C7.11643 26.3755 7.70661 26.1305 8.32225 26.1297H9.09641V7.54841C9.09682 7.13782 9.26013 6.74416 9.5505 6.45385C9.84087 6.16355 10.2346 6.00032 10.6452 6H41.6133C42.0238 6.00044 42.4174 6.16372 42.7076 6.45401C42.9979 6.7443 43.1612 7.13789 43.1616 7.54841V15.2904H47.8067V16.3301C47.8065 16.4833 47.8518 16.6331 47.9368 16.7605C48.0218 16.888 48.1427 16.9874 48.2843 17.046C48.4258 17.1047 48.5815 17.1201 48.7318 17.0902C48.882 17.0603 49.02 16.9865 49.1283 16.8782L49.8637 16.1427L53.148 19.4271L52.4121 20.1623C52.3037 20.2706 52.2299 20.4086 52.2 20.5589C52.1701 20.7092 52.1855 20.8649 52.2442 21.0064C52.3029 21.148 52.4023 21.2689 52.5298 21.3539C52.6572 21.4389 52.8071 21.4841 52.9603 21.4839H54V26.129H52.9603C52.807 26.129 52.6572 26.1744 52.5298 26.2594C52.4024 26.3445 52.303 26.4655 52.2444 26.607C52.1857 26.7486 52.1703 26.9044 52.2001 27.0546C52.23 27.2049 52.3037 27.343 52.4121 27.4514L53.1475 28.1868L52.4516 28.8828V51.6774C52.4507 52.2931 52.2058 52.8832 51.7704 53.3185C51.3351 53.7539 50.745 53.9988 50.1293 53.9997L8.32225 54ZM44.2567 52.4516H49.8092L47.0329 49.6754L44.2567 52.4516ZM7.54843 28.4519V51.6774C7.54851 51.8827 7.6301 52.0796 7.77527 52.2248C7.92043 52.3699 8.11729 52.4515 8.32258 52.4516H41.6133V30.9613L41.1047 31.4699L37.8205 28.1858L38.3291 27.6771H8.32225C8.1169 27.6773 7.92003 27.759 7.77492 27.9043C7.62981 28.0496 7.54834 28.2466 7.54843 28.4519ZM48.2848 30.5667C48.1424 30.6241 48.0205 30.7231 47.9353 30.8509C47.8501 30.9786 47.8054 31.1292 47.8072 31.2827V48.2601L50.904 51.3569V30.4312L49.8643 31.4702L49.1289 30.7346C49.06 30.6621 48.9772 30.6044 48.8853 30.5649C48.7934 30.5255 48.6945 30.5051 48.5945 30.5051C48.4883 30.5053 48.3831 30.5262 48.2848 30.5667ZM43.162 51.3567L46.2589 48.2599V32.3226H43.1616L43.162 51.3567ZM43.2758 29.1374C43.6224 29.2764 43.9295 29.4985 44.1702 29.784C44.4108 30.0695 44.5777 30.4097 44.6562 30.7748H46.3121C46.3945 30.4115 46.5628 30.0732 46.803 29.7884C47.0431 29.5036 47.3481 29.2805 47.6923 29.1379C48.0365 28.9954 48.4099 28.9375 48.7811 28.9691C49.1523 29.0006 49.5105 29.1208 49.8257 29.3195L50.9963 28.1489C50.7975 27.8338 50.6772 27.4755 50.6455 27.1042C50.6139 26.7329 50.6718 26.3595 50.8144 26.0152C50.957 25.6709 51.1801 25.3659 51.4651 25.1257C51.75 24.8856 52.0884 24.7173 52.4518 24.635V22.9788C52.0884 22.8965 51.75 22.7282 51.4651 22.4881C51.1801 22.2479 50.957 21.9429 50.8144 21.5986C50.6718 21.2544 50.6139 20.8809 50.6455 20.5096C50.6772 20.1383 50.7975 19.7801 50.9963 19.4649L49.8257 18.2942C49.5105 18.493 49.1522 18.6133 48.7809 18.6449C48.4096 18.6765 48.0361 18.6186 47.6919 18.476C47.3476 18.3334 47.0425 18.1103 46.8024 17.8254C46.5622 17.5405 46.3939 17.2021 46.3116 16.8387H44.6558C44.5735 17.2021 44.4052 17.5404 44.1651 17.8253C43.9249 18.1102 43.6199 18.3333 43.2756 18.4759C42.9314 18.6185 42.558 18.6764 42.1867 18.6448C41.8154 18.6132 41.4572 18.4929 41.142 18.2942L39.9714 19.4648C40.1702 19.7799 40.2905 20.1382 40.3221 20.5095C40.3537 20.8808 40.2958 21.2542 40.1532 21.5985C40.0106 21.9428 39.7875 22.2478 39.5026 22.488C39.2177 22.7281 38.8793 22.8964 38.5159 22.9787V24.6348C38.8793 24.7171 39.2177 24.8853 39.5026 25.1255C39.7875 25.3657 40.0106 25.6707 40.1532 26.015C40.2958 26.3592 40.3537 26.7327 40.3221 27.104C40.2905 27.4753 40.1702 27.8335 39.9714 28.1487L41.142 29.3195C41.5087 29.0822 41.9362 28.9558 42.373 28.9557C42.6828 28.9565 42.9894 29.0183 43.2754 29.1375L43.2758 29.1374ZM26.1292 15.2904C26.5398 15.2908 26.9334 15.454 27.2237 15.7443C27.514 16.0346 27.6772 16.4282 27.6776 16.8388V26.1291H36.9681V21.4839H38.0078C38.161 21.484 38.3108 21.4387 38.4382 21.3537C38.5656 21.2686 38.6649 21.1477 38.7235 21.0062C38.7822 20.8647 38.7975 20.709 38.7676 20.5588C38.7377 20.4086 38.6639 20.2706 38.5556 20.1623L37.8205 19.4271L41.1047 16.143L41.6133 16.6516V13.742H10.6452V26.129H12.1936V16.8388C12.194 16.4282 12.3573 16.0346 12.6476 15.7443C12.9379 15.454 13.3315 15.2908 13.742 15.2904H26.1292ZM13.742 26.129H26.1292V16.8388H13.742V26.129ZM10.6452 12.1935H41.6133V7.54841H10.6452V12.1935ZM35.4195 48.5806C35.4195 48.1213 35.5557 47.6723 35.8109 47.2905C36.0661 46.9086 36.4288 46.6109 36.8531 46.4352C37.2774 46.2594 37.7444 46.2134 38.1949 46.303C38.6453 46.3926 39.0591 46.6138 39.3839 46.9385C39.7087 47.2633 39.9298 47.6771 40.0194 48.1276C40.109 48.578 40.063 49.045 39.8873 49.4693C39.7115 49.8936 39.4139 50.2563 39.032 50.5115C38.6501 50.7666 38.2011 50.9028 37.7418 50.9028C37.1262 50.902 36.536 50.6571 36.1007 50.2217C35.6653 49.7864 35.4204 49.1962 35.4195 48.5806ZM36.968 48.5806C36.968 48.7337 37.0134 48.8834 37.0984 49.0107C37.1835 49.138 37.3044 49.2372 37.4459 49.2958C37.5873 49.3544 37.743 49.3698 37.8932 49.3399C38.0433 49.31 38.1813 49.2363 38.2895 49.128C38.3978 49.0198 38.4715 48.8818 38.5014 48.7316C38.5313 48.5815 38.516 48.4258 38.4574 48.2844C38.3988 48.1429 38.2995 48.022 38.1722 47.9369C38.0449 47.8519 37.8952 47.8065 37.7421 47.8065C37.5368 47.8066 37.34 47.8881 37.1948 48.0333C37.0497 48.1785 36.9681 48.3753 36.968 48.5806ZM29.226 48.5806C29.226 48.1213 29.3622 47.6723 29.6173 47.2905C29.8725 46.9086 30.2352 46.6109 30.6595 46.4352C31.0839 46.2594 31.5508 46.2134 32.0013 46.303C32.4517 46.3926 32.8655 46.6138 33.1903 46.9385C33.5151 47.2633 33.7362 47.6771 33.8258 48.1276C33.9154 48.578 33.8695 49.045 33.6937 49.4693C33.5179 49.8936 33.2203 50.2563 32.8384 50.5115C32.4565 50.7666 32.0075 50.9028 31.5482 50.9028C30.9326 50.902 30.3424 50.6571 29.9071 50.2217C29.4717 49.7864 29.2268 49.1962 29.226 48.5806ZM30.7744 48.5806C30.7744 48.7337 30.8198 48.8834 30.9048 49.0107C30.9899 49.138 31.1108 49.2372 31.2523 49.2958C31.3937 49.3544 31.5494 49.3698 31.6996 49.3399C31.8497 49.31 31.9877 49.2363 32.0959 49.128C32.2042 49.0198 32.2779 48.8818 32.3078 48.7316C32.3377 48.5815 32.3224 48.4258 32.2638 48.2844C32.2052 48.1429 32.1059 48.022 31.9786 47.9369C31.8513 47.8519 31.7017 47.8065 31.5485 47.8065C31.3432 47.8066 31.1464 47.8881 31.0012 48.0333C30.8561 48.1785 30.7745 48.3753 30.7744 48.5806ZM16.8389 33.871V33.7286C16.3224 33.5459 15.8871 33.1866 15.61 32.7141C15.3328 32.2416 15.2316 31.6863 15.3243 31.1464C15.4169 30.6065 15.6975 30.1168 16.1163 29.7637C16.5351 29.4106 17.0653 29.217 17.6131 29.217C18.1609 29.217 18.691 29.4106 19.1099 29.7637C19.5287 30.1168 19.8092 30.6065 19.9019 31.1464C19.9945 31.6863 19.8933 32.2416 19.6162 32.7141C19.339 33.1866 18.9038 33.5459 18.3873 33.7286V33.871C18.3839 34.6865 18.5415 35.4947 18.8512 36.2491C19.161 37.0036 19.6166 37.6894 20.1921 38.2673C20.7675 38.8452 21.4515 39.3038 22.2046 39.6167C22.9578 39.9296 23.7653 40.0906 24.5808 40.0906C25.3964 40.0906 26.2039 39.9296 26.9571 39.6167C27.7102 39.3038 28.3941 38.8452 28.9696 38.2673C29.5451 37.6894 30.0007 37.0036 30.3104 36.2491C30.6202 35.4947 30.7778 34.6865 30.7744 33.871V33.7286C30.2579 33.5459 29.8226 33.1866 29.5455 32.7141C29.2683 32.2416 29.1671 31.6863 29.2598 31.1464C29.3524 30.6065 29.633 30.1168 30.0518 29.7637C30.4706 29.4106 31.0008 29.217 31.5486 29.217C32.0964 29.217 32.6266 29.4106 33.0454 29.7637C33.4642 30.1168 33.7447 30.6065 33.8374 31.1464C33.93 31.6863 33.8288 32.2416 33.5517 32.7141C33.2745 33.1866 32.8393 33.5459 32.3228 33.7286V33.871C32.3266 34.8901 32.1292 35.9 31.7419 36.8426C31.3545 37.7853 30.7849 38.6422 30.0656 39.3642C29.3463 40.0862 28.4915 40.6591 27.5503 41.05C26.6091 41.4409 25.6 41.6421 24.5808 41.6421C23.5617 41.6421 22.5526 41.4409 21.6114 41.05C20.6701 40.6591 19.8154 40.0862 19.0961 39.3642C18.3768 38.6422 17.8071 37.7853 17.4198 36.8426C17.0324 35.9 16.835 34.8901 16.8389 33.871ZM30.7744 31.5487C30.7744 31.7019 30.8198 31.8515 30.9048 31.9788C30.9899 32.1061 31.1108 32.2054 31.2523 32.264C31.3937 32.3226 31.5494 32.3379 31.6996 32.308C31.8497 32.2781 31.9877 32.2044 32.0959 32.0961C32.2042 31.9879 32.2779 31.8499 32.3078 31.6998C32.3377 31.5496 32.3224 31.3939 32.2638 31.2525C32.2052 31.111 32.1059 30.9901 31.9786 30.9051C31.8513 30.82 31.7017 30.7746 31.5485 30.7746C31.3433 30.7747 31.1465 30.8562 31.0014 31.0013C30.8562 31.1463 30.7746 31.3431 30.7744 31.5483V31.5487ZM16.8389 31.5487C16.8389 31.7019 16.8843 31.8515 16.9693 31.9788C17.0544 32.1061 17.1753 32.2054 17.3168 32.264C17.4582 32.3226 17.6139 32.3379 17.7641 32.308C17.9142 32.2781 18.0522 32.2044 18.1604 32.0961C18.2687 31.9879 18.3424 31.8499 18.3723 31.6998C18.4022 31.5496 18.3869 31.3939 18.3283 31.2525C18.2697 31.111 18.1704 30.9901 18.0431 30.9051C17.9158 30.82 17.7661 30.7746 17.613 30.7746C17.4078 30.7747 17.211 30.8562 17.0658 31.0012C16.9207 31.1463 16.839 31.3431 16.8389 31.5483V31.5487ZM41.6133 23.8069C41.6132 23.0413 41.8402 22.2929 42.2656 21.6563C42.6909 21.0197 43.2955 20.5235 44.0028 20.2305C44.7101 19.9375 45.4885 19.8608 46.2394 20.0102C46.9903 20.1595 47.6801 20.5282 48.2214 21.0696C48.7628 21.6109 49.1315 22.3007 49.2809 23.0516C49.4303 23.8025 49.3536 24.5808 49.0606 25.2881C48.7676 25.9955 48.2715 26.6 47.6349 27.0254C46.9983 27.4507 46.2499 27.6778 45.4843 27.6778C44.4579 27.6766 43.4739 27.2684 42.7482 26.5426C42.0225 25.8168 41.6143 24.8328 41.6133 23.8065V23.8069ZM43.1617 23.8069C43.1617 24.2662 43.2979 24.7152 43.553 25.0971C43.8082 25.479 44.1709 25.7766 44.5952 25.9524C45.0196 26.1281 45.4865 26.1741 45.937 26.0845C46.3875 25.9949 46.8012 25.7737 47.126 25.449C47.4508 25.1242 47.672 24.7104 47.7616 24.2599C47.8512 23.8095 47.8052 23.3426 47.6294 22.9182C47.4537 22.4939 47.156 22.1312 46.7741 21.876C46.3922 21.6209 45.9432 21.4847 45.4839 21.4847C44.8683 21.4855 44.2782 21.7303 43.8428 22.1655C43.4075 22.6008 43.1625 23.1909 43.1616 23.8065L43.1617 23.8069ZM29.2261 24.5811V23.0323H35.4197V24.5807L29.2261 24.5811ZM29.2261 21.4842V19.9355H35.4197V21.4839L29.2261 21.4842ZM33.8712 18.3874V16.8388H38.5164V18.3871L33.8712 18.3874ZM29.2261 18.3874V16.8388H32.3229V18.3871L29.2261 18.3874ZM18.3872 10.6451V9.09682H19.9356V10.6451H18.3872ZM15.2903 10.6451V9.09682H16.8389V10.6451H15.2903ZM12.1935 10.6451V9.09682H13.742V10.6451H12.1935Z" fill="#282928"/>
</svg>
