<svg width="60" height="60" viewBox="0 0 60 60" fill="none" xmlns="http://www.w3.org/2000/svg">
<path d="M13.8696 54C13.5755 54 13.2935 53.8851 13.0856 53.6805C12.8777 53.4759 12.7609 53.1984 12.7609 52.9091C12.7609 52.6198 12.8777 52.3423 13.0856 52.1377C13.2935 51.9331 13.5755 51.8182 13.8696 51.8182H23.8478V46.3636H7.80877C7.0641 46.3628 6.35017 46.0714 5.82361 45.5532C5.29705 45.0351 5.00085 44.3326 5 43.5999V15.3091C5.00085 14.5763 5.29705 13.8739 5.82362 13.3558C6.35018 12.8377 7.06411 12.5463 7.80877 12.5455H17.3414L18.3043 11.1243V7.09091C18.3043 6.80158 18.4212 6.52411 18.6291 6.31952C18.837 6.11493 19.119 6 19.413 6H41.587C41.881 6 42.163 6.11493 42.3709 6.31952C42.5788 6.52411 42.6957 6.80158 42.6957 7.09091V11.1243L43.6586 12.5455H53.1913C53.936 12.5463 54.6499 12.8377 55.1764 13.3558C55.703 13.8739 55.9991 14.5764 56 15.3091V43.6C55.9991 44.3327 55.703 45.0352 55.1764 45.5533C54.6499 46.0714 53.936 46.3628 53.1913 46.3636H37.1522V51.8182H47.1304C47.4245 51.8182 47.7065 51.9331 47.9144 52.1377C48.1223 52.3423 48.2391 52.6198 48.2391 52.9091C48.2391 53.1984 48.1223 53.4759 47.9144 53.6805C47.7065 53.8851 47.4245 54 47.1304 54H13.8696ZM26.0652 51.8182H34.9348V46.3636H26.0652V51.8182ZM7.21739 43.6C7.2176 43.7543 7.27997 43.9022 7.39084 44.0112C7.5017 44.1203 7.652 44.1816 7.80877 44.1818H53.1913C53.3481 44.1816 53.4983 44.1202 53.6092 44.0112C53.72 43.9021 53.7824 43.7543 53.7826 43.6V39.8182H7.21739V43.6ZM7.21739 15.3091V37.6364H53.7826V15.3091C53.7824 15.1548 53.72 15.007 53.6092 14.8979C53.4984 14.7888 53.3481 14.7275 53.1913 14.7273H45.1369L46.9087 17.3427C47.0324 17.5048 47.1079 17.6975 47.1267 17.8993C47.1454 18.1012 47.1067 18.3042 47.0149 18.4856C46.9231 18.6671 46.7818 18.8198 46.6068 18.9267C46.4317 19.0336 46.2299 19.0904 46.024 19.0909H42.6957V34.3636C42.6957 34.653 42.5788 34.9304 42.3709 35.135C42.163 35.3396 41.881 35.4545 41.587 35.4545H19.413C19.119 35.4545 18.837 35.3396 18.6291 35.135C18.4212 34.9304 18.3043 34.653 18.3043 34.3636V19.0909H14.9783C14.7777 19.0907 14.5809 19.0369 14.4089 18.9354C14.2369 18.8339 14.0961 18.6884 14.0015 18.5144C13.9068 18.3404 13.8619 18.1444 13.8715 17.9472C13.881 17.7501 13.9448 17.5592 14.0558 17.3949L15.8632 14.7273H7.80877C7.652 14.7274 7.5017 14.7888 7.39084 14.8979C7.27997 15.0069 7.2176 15.1548 7.21739 15.3091ZM29.3913 33.2727H40.4783V19.0909H20.5217V33.2727H27.1739V31.1813L26.1077 24.8868L25.38 23.4545H23.8478C23.5538 23.4545 23.2718 23.3396 23.0639 23.135C22.8559 22.9304 22.7391 22.653 22.7391 22.3636C22.7391 22.0743 22.8559 21.7968 23.0639 21.5922C23.2718 21.3877 23.5538 21.2727 23.8478 21.2727H26.0652C26.2711 21.2727 26.473 21.3291 26.6481 21.4356C26.8233 21.5422 26.9649 21.6946 27.0569 21.8758L27.8592 23.4545H37.1522C37.3132 23.4545 37.4723 23.4891 37.6184 23.5557C37.7645 23.6223 37.8941 23.7194 37.9981 23.8403C38.1022 23.9612 38.1783 24.103 38.2211 24.2557C38.2638 24.4084 38.2723 24.5685 38.2458 24.7248L37.1371 31.2703C37.094 31.525 36.9604 31.7564 36.7601 31.9233C36.5599 32.0902 36.3059 32.1818 36.0435 32.1818H29.3913V33.2727ZM29.2219 30H35.1043L35.8435 25.6364H28.4822L29.2219 30ZM17.0499 16.9091H43.95C43.475 16.208 41.7694 13.6909 40.9936 12.5455H20.006L19.2668 13.6364H27.1739C27.468 13.6364 27.75 13.7513 27.9579 13.9559C28.1658 14.1605 28.2826 14.4379 28.2826 14.7273C28.2826 15.0166 28.1658 15.2941 27.9579 15.4987C27.75 15.7032 27.468 15.8182 27.1739 15.8182H17.789L17.0499 16.9091ZM20.5217 10.3636H40.4783V8.18182H20.5217V10.3636ZM31.6087 15.8182C31.3147 15.8182 31.0326 15.7032 30.8247 15.4987C30.6168 15.2941 30.5 15.0166 30.5 14.7273C30.5 14.4379 30.6168 14.1605 30.8247 13.9559C31.0326 13.7513 31.3147 13.6364 31.6087 13.6364H34.9348C35.2288 13.6364 35.5108 13.7513 35.7187 13.9559C35.9267 14.1605 36.0435 14.4379 36.0435 14.7273C36.0435 15.0166 35.9267 15.2941 35.7187 15.4987C35.5108 15.7032 35.2288 15.8182 34.9348 15.8182H31.6087Z" fill="#282928"/>
</svg>
