<svg width="60" height="60" viewBox="0 0 60 60" fill="none" xmlns="http://www.w3.org/2000/svg">
<path d="M9.52092 53.999C8.05708 53.9977 6.65358 53.4226 5.6185 52.4C4.58341 51.3774 4.00132 49.9908 4 48.5445L4 11.4545C4.00132 10.0083 4.58341 8.62165 5.6185 7.59902C6.65358 6.57639 8.05708 6.00131 9.52092 6H51.4791C52.9429 6.00124 54.3465 6.5763 55.3816 7.59895C56.4167 8.62159 56.9987 10.0082 57 11.4545V48.5455C56.9987 49.9918 56.4167 51.3784 55.3816 52.401C54.3465 53.4237 52.9429 53.9988 51.4791 54L9.52092 53.999ZM6.20817 48.5445C6.20955 49.4121 6.55903 50.2438 7.17999 50.8572C7.80096 51.4707 8.64277 51.8159 9.52092 51.8172H51.4791C52.3572 51.8159 53.199 51.4707 53.82 50.8572C54.441 50.2438 54.7904 49.4121 54.7918 48.5445V16.909H6.20817V48.5445ZM54.7918 14.7269V11.4545C54.7905 10.5869 54.4411 9.75514 53.8201 9.14164C53.1991 8.52814 52.3573 8.1829 51.4791 8.18159H9.52092C8.64273 8.1829 7.80088 8.52814 7.17991 9.14164C6.55893 9.75514 6.20949 10.5869 6.20817 11.4545V14.7269H54.7918ZM41.8641 47.1353L38.038 43.3555L37.0674 44.3144C36.4453 44.9264 35.6032 45.27 34.7254 45.27C33.8475 45.27 33.0054 44.9264 32.3834 44.3144L31.7597 43.6968C31.595 43.5365 31.3839 43.4306 31.1557 43.3939C30.9274 43.3571 30.6933 43.3913 30.4855 43.4918L28.9155 44.2664C28.294 44.5744 27.59 44.6809 26.9037 44.5708C26.2174 44.4607 25.5838 44.1396 25.0928 43.6532L21.6678 40.2694L20.239 41.6811C20.0319 41.8856 19.751 42.0005 19.4582 42.0005C19.1654 42.0005 18.8845 41.8856 18.6775 41.681C18.4705 41.4764 18.3542 41.1989 18.3542 40.9096C18.3542 40.6203 18.4705 40.3429 18.6776 40.1383L20.1065 38.7266L17.5748 36.2264C17.3677 36.0218 17.2514 35.7444 17.2513 35.4551C17.2513 35.1658 17.3676 34.8883 17.5747 34.6837C17.7817 34.4791 18.0625 34.3642 18.3554 34.3641C18.6482 34.3641 18.929 34.479 19.1361 34.6836L21.6668 37.1838L23.7483 35.1274L20.112 31.5356C19.9044 31.3354 19.7396 31.0961 19.6273 30.8318C19.515 30.5676 19.4574 30.2838 19.458 29.9972C19.4586 29.7106 19.5174 29.427 19.6308 29.1632C19.7443 28.8994 19.9101 28.6608 20.1185 28.4614L24.5301 24.1022C24.946 23.7011 25.5044 23.4769 26.0856 23.4778C26.6668 23.4786 27.2245 23.7043 27.6393 24.1066L31.2628 27.7033L33.3533 25.638L30.8225 23.1378C30.72 23.0365 30.6387 22.9163 30.5832 22.7839C30.5277 22.6516 30.4992 22.5098 30.4992 22.3665C30.4992 22.2233 30.5277 22.0814 30.5832 21.9491C30.6387 21.8168 30.72 21.6965 30.8225 21.5952C31.0296 21.3907 31.3104 21.2758 31.6032 21.2758C31.7482 21.2758 31.8918 21.304 32.0257 21.3588C32.1597 21.4136 32.2814 21.494 32.3839 21.5952L34.9148 24.0957L36.3437 22.6841C36.4459 22.5811 36.5676 22.4992 36.702 22.443C36.8364 22.3869 36.9807 22.3576 37.1266 22.3569C37.2726 22.3562 37.4172 22.384 37.5521 22.4389C37.6871 22.4937 37.8097 22.5744 37.9128 22.6764C38.016 22.7783 38.0977 22.8994 38.1532 23.0327C38.2087 23.1661 38.2369 23.3089 38.2362 23.4531C38.2355 23.5973 38.2058 23.7398 38.149 23.8726C38.0922 24.0054 38.0092 24.1257 37.905 24.2266L36.4762 25.6383L39.9012 29.0221C40.3932 29.5073 40.7179 30.1333 40.8293 30.8113C40.9408 31.4892 40.8332 32.1846 40.5218 32.7987L39.7378 34.3499C39.6333 34.5545 39.5971 34.7865 39.6344 35.0127C39.6717 35.2388 39.7805 35.4475 39.9453 35.6088L40.5705 36.2264C41.1909 36.8404 41.5393 37.6726 41.5393 38.5402C41.5393 39.4078 41.1909 40.24 40.5705 40.854L39.6001 41.8127L43.426 45.5925C43.633 45.7971 43.7493 46.0745 43.7493 46.3638C43.7493 46.6531 43.633 46.9305 43.426 47.1351C43.2189 47.3396 42.9381 47.4545 42.6453 47.4545C42.3525 47.4545 42.0717 47.3396 41.8646 47.1351L41.8641 47.1353ZM33.3201 42.1545L33.9452 42.7721C34.1524 42.9765 34.4331 43.0913 34.7259 43.0913C35.0186 43.0913 35.2994 42.9765 35.5065 42.7721L39.0089 39.3117C39.2158 39.1071 39.332 38.8297 39.332 38.5404C39.332 38.2512 39.2158 37.9738 39.0089 37.7692L38.3852 37.1515C37.8933 36.6663 37.5686 36.0403 37.4572 35.3625C37.3458 34.6846 37.4533 33.9892 37.7646 33.3752L38.5486 31.8237C38.6531 31.6191 38.6892 31.3871 38.6519 31.1609C38.6146 30.9348 38.5057 30.7261 38.3408 30.5649L34.9158 27.1811L23.2282 38.7266L26.6532 42.1104C26.8174 42.2716 27.0285 42.3781 27.257 42.4149C27.4854 42.4517 27.7198 42.417 27.9274 42.3157L29.4974 41.5411C30.119 41.2335 30.8229 41.1272 31.5091 41.2373C32.1953 41.3473 32.8289 41.6684 33.3201 42.1545ZM21.6756 30.0081L25.3101 33.5844L29.7005 29.2468L26.0724 25.6422L21.6756 30.0081Z" fill="#282928"/>
</svg>
