<svg xmlns="http://www.w3.org/2000/svg" width="60" height="60" fill="none"><path fill="#000" fill-rule="evenodd" d="M1.215 15.37a4.88 4.88 0 0 1 3.098-4.536 4.89 4.89 0 0 1 5.463-4.006 4.88 4.88 0 0 1 4.702-3.582c1.346 0 2.559.545 3.444 1.43s1.43 2.1 1.43 3.433v7.535c0 1.61-.782 3.039-1.987 3.926a4.85 4.85 0 0 1 1.987 3.92v7.535a4.83 4.83 0 0 1-1.433 3.436 4.85 4.85 0 0 1-3.44 1.428 4.87 4.87 0 0 1-4.702-3.575 5 5 0 0 1-.66.047c-2.396 0-4.41-1.76-4.804-4.053a4.9 4.9 0 0 1-3.098-4.544v-.009c0-1.726.857-3.255 2.167-4.185a5.14 5.14 0 0 1-2.167-4.19zM9.643 8.72a2.992 2.992 0 0 0-3.508 2.831c.029.874.446 1.65 1.072 2.18a.945.945 0 0 1-1.221 1.442 4.93 4.93 0 0 1-1.528-2.298 2.98 2.98 0 0 0-1.353 2.496v.01a3.25 3.25 0 0 0 3.237 3.247h4.29a5 5 0 0 1-.456-.7.945.945 0 0 1 1.666-.892 2.99 2.99 0 0 0 2.636 1.592 2.984 2.984 0 0 0 2.984-2.983V8.109a2.96 2.96 0 0 0-.877-2.097 2.981 2.981 0 0 0-4.347 4.075.945.945 0 0 1-1.423 1.243A4.9 4.9 0 0 1 9.643 8.72m0 21.703c.123-1 .549-1.904 1.177-2.613a.945.945 0 0 1 1.415 1.253A2.976 2.976 0 0 0 14.479 34c.823 0 1.565-.335 2.106-.876l.005-.005c.54-.532.872-1.28.872-2.093v-7.534a2.976 2.976 0 0 0-2.984-2.974c-1.143 0-2.13.64-2.636 1.583a.946.946 0 0 1-1.666-.892q.196-.367.448-.69H6.342a3.24 3.24 0 0 0-3.237 3.237v.01c0 1.043.54 1.964 1.352 2.5.281-.91.821-1.704 1.529-2.303a.945.945 0 0 1 1.221 1.442 3 3 0 0 0-1.073 2.19 2.997 2.997 0 0 0 2.983 2.877q.265 0 .525-.05m10.47 18.126H9.073a4.42 4.42 0 0 1-4.406-4.406V33.15a.942.942 0 0 1 1.882 0v10.992a2.53 2.53 0 0 0 2.524 2.523h38.124a2.53 2.53 0 0 0 2.523-2.523V20.316a2.53 2.53 0 0 0-2.523-2.523h-7.63a.942.942 0 0 1 0-1.882h7.63a4.42 4.42 0 0 1 4.405 4.405v23.826a4.42 4.42 0 0 1-4.405 4.406h-11.04v3.621h4.331c2.193 0 3.895 1.548 3.895 3.3v2.36c0 .52-.421.94-.941.94H12.83a.94.94 0 0 1-.941-.94v-2.36c0-1.752 1.702-3.3 3.894-3.3h4.33zm14.161 0H21.996v3.621h12.278zm-20.503 8.34H42.5v-1.42c0-.844-.956-1.416-2.013-1.416H15.783c-1.057 0-2.012.572-2.012 1.416zm33.052-36.196h-6.886a.942.942 0 0 1 0-1.883h7.348c.778 0 1.42.634 1.42 1.421v21.542c0 .52-.42.942-.94.942H8.502a.94.94 0 0 1-.941-.942v-7.731a.942.942 0 0 1 1.882 0v6.79h37.38zM46.45 9.697a.942.942 0 0 1-.085-1.88c1.563-.071 3.096.462 4.235 1.6 1.139 1.14 1.672 2.673 1.601 4.236a.942.942 0 0 1-1.88-.085c.047-1.039-.295-2.063-1.052-2.82s-1.78-1.098-2.82-1.051m9.038 3.807a.942.942 0 0 1-1.88-.085c.084-1.88-.541-3.73-1.91-5.1-1.37-1.369-3.22-1.994-5.1-1.909a.942.942 0 0 1-.085-1.88c2.404-.109 4.764.707 6.516 2.459 1.751 1.751 2.567 4.111 2.459 6.515m-8.742-10.38a.942.942 0 0 1-.084-1.88c3.244-.147 6.431.952 8.795 3.316s3.463 5.55 3.317 8.796a.942.942 0 0 1-1.88-.085c.122-2.72-.786-5.398-2.768-7.38s-4.659-2.89-7.38-2.767m1.212 8.936a1.603 1.603 0 1 1-2.267 2.266 1.603 1.603 0 0 1 2.267-2.266M20.942 34.942V4.189c0-.52.421-.941.94-.941h2.081c.39 0 .738.239.878.602l.81 2.1c1.117.307 2.191.752 3.2 1.325l2.053-.913a.94.94 0 0 1 1.048.195l2.942 2.94a.94.94 0 0 1 .194 1.049l-.913 2.053a14 14 0 0 1 1.329 3.203l2.095.807a.94.94 0 0 1 .604.878v4.16c0 .39-.24.74-.604.879l-2.095.806a14 14 0 0 1-1.329 3.2l.913 2.053a.94.94 0 0 1-.194 1.047l-2.942 2.942a.94.94 0 0 1-1.046.195l-2.055-.91a14 14 0 0 1-3.203 1.326l-.807 2.095a.94.94 0 0 1-.878.603h-2.08a.94.94 0 0 1-.941-.941m1.882-10.073V34h.493l.748-1.944a.94.94 0 0 1 .662-.578A12.2 12.2 0 0 0 28.298 30a.94.94 0 0 1 .873-.058l1.907.844 2.027-2.027-.847-1.907a.94.94 0 0 1 .06-.877c.68-1.1 1.178-2.307 1.481-3.567a.94.94 0 0 1 .577-.658L36.32 21v-2.868l-1.944-.748a.94.94 0 0 1-.577-.659 12.3 12.3 0 0 0-1.483-3.572.94.94 0 0 1-.058-.876l.847-1.906-2.027-2.027-1.906.847a.94.94 0 0 1-.876-.058 12.1 12.1 0 0 0-3.566-1.478.94.94 0 0 1-.66-.577l-.753-1.95h-.493v8.754l1.566-1.566a.94.94 0 0 1 .665-.275h1.272a2.695 2.695 0 0 1 5.218.941 2.695 2.695 0 0 1-5.218.94h-.882l-2.621 2.622v2.08h3.735a2.695 2.695 0 0 1 5.28.752 2.695 2.695 0 0 1-5.138 1.13h-3.877v1.7l2.621 2.622h.882a2.695 2.695 0 1 1 2.524 3.635 2.7 2.7 0 0 1-2.524-1.753h-1.272c-.25 0-.488-.1-.665-.276zm6.027-12.697a.811.811 0 1 0 .001 1.623.811.811 0 0 0 0-1.623m.295 6.393a.812.812 0 1 0 0 1.623.812.812 0 0 0 0-1.623m-.295 8.016a.812.812 0 1 0 0-1.623.812.812 0 0 0 0 1.623" clip-rule="evenodd"/></svg>