<svg xmlns="http://www.w3.org/2000/svg" width="60" height="60" fill="none"><g fill="#000" clip-path="url(#a)"><path d="M46.44 9.271c-.89 0-1.774.087-2.641.259C41.59 5.648 37.925 2.66 33.61 1.264a1.171 1.171 0 1 0-.723 2.23c4.02 1.302 7.392 4.183 9.253 7.906.25.499.817.753 1.356.607.955-.26 1.945-.392 2.942-.392 2.872 0 5.74 1.222 7.87 3.353 2.127 2.13 3.347 4.996 3.347 7.864 0 2.737-1.048 5.397-2.952 7.488-1.864 2.048-4.349 3.343-7.01 3.656.002-4.38 0-4.404-.002-4.442a3.52 3.52 0 0 0-2.182-3.09 16 16 0 0 0-1.033-4.848 1.172 1.172 0 0 0-1.656-.61 2.786 2.786 0 0 1-3.578-.807 2.79 2.79 0 0 1 .326-3.651 1.172 1.172 0 0 0-.074-1.763 16 16 0 0 0-5.868-2.986 1.173 1.173 0 0 0-1.467.98 2.784 2.784 0 0 1-2.757 2.414 2.786 2.786 0 0 1-2.759-2.414 1.172 1.172 0 0 0-1.467-.98 15.95 15.95 0 0 0-5.868 2.986 1.172 1.172 0 0 0-.075 1.763 2.79 2.79 0 0 1 .326 3.651 2.786 2.786 0 0 1-3.577.807 1.172 1.172 0 0 0-1.656.61 16 16 0 0 0-1.028 4.759 3.57 3.57 0 0 0-2.44 3.36v4.268h-.227A8.35 8.35 0 0 1 4.8 31.64a7.95 7.95 0 0 1-2.456-5.7 8.12 8.12 0 0 1 2.372-5.818 8.11 8.11 0 0 1 6.61-2.374 1.17 1.17 0 0 0 1.279-1.044c.638-6.089 4.986-11.4 10.82-13.215a1.172 1.172 0 1 0-.697-2.238c-6.362 1.98-11.189 7.571-12.303 14.112a10.44 10.44 0 0 0-7.372 3.107A10.44 10.44 0 0 0 0 25.958a10.28 10.28 0 0 0 3.171 7.369c2.003 1.934 4.653 3 7.462 3h.227v19.718a3.54 3.54 0 0 0 3.534 3.534h29.77a3.54 3.54 0 0 0 3.534-3.534l-.004-19.719h.004q.062 0 .123-.006c6.83-.724 12.18-6.649 12.18-13.488 0-3.485-1.471-6.955-4.034-9.52-2.566-2.568-6.038-4.04-9.528-4.04m-33.226 20.29a1.2 1.2 0 0 1 1.18-1.037h29.77c.646 0 1.186.545 1.186 1.19v4.269H13.203s.005-4.371.011-4.422m12.191-3.38a4.17 4.17 0 0 1 3.998-2.995c1.89 0 3.49 1.266 3.998 2.994zm-9.257-2.647a5.14 5.14 0 0 0 5.307-1.974 5.14 5.14 0 0 0 .255-5.655 13.6 13.6 0 0 1 2.972-1.514 5.14 5.14 0 0 0 4.72 3.126 5.14 5.14 0 0 0 4.72-3.126q1.577.572 2.972 1.514a5.15 5.15 0 0 0 .255 5.654 5.14 5.14 0 0 0 5.308 1.975c.248.862.411 1.747.486 2.646h-7.336c-.553-3.032-3.214-5.338-6.404-5.338s-5.852 2.306-6.405 5.338H15.66q.113-1.351.487-2.646m28.016 33.702h-29.77c-.657 0-1.19-.534-1.19-1.19v-19.72H45.35l.004 19.72c0 .656-.534 1.19-1.191 1.19"/><path d="M15.457 31.682c.41 1 1.89.917 2.202-.108.302-.993-.8-1.867-1.698-1.358a1.18 1.18 0 0 0-.504 1.466M20.14 32.207c.413.276.969.257 1.363-.044.402-.308.56-.856.388-1.33-.357-.981-1.782-1.015-2.183-.048a1.18 1.18 0 0 0 .432 1.422M22.652 41.21l-.013-.032a1.41 1.41 0 0 0-1.31-.877 1.41 1.41 0 0 0-1.32.906l-4.037 10.601a1.172 1.172 0 1 0 2.19.834l.718-1.885h4.87l.71 1.882c.225.597.912.908 1.51.683.605-.229.911-.905.683-1.51zm-2.88 7.203 1.554-4.078 1.539 4.078zM40.795 40.3c-.647 0-1.172.525-1.172 1.173v10.752a1.172 1.172 0 0 0 2.344 0V41.473c0-.648-.525-1.172-1.172-1.172M33.17 40.3h-2.994c-.638 0-1.172.535-1.172 1.173v10.752a1.172 1.172 0 0 0 2.344 0V48.72l1.822-.007c2.352 0 4.265-1.887 4.265-4.206s-1.913-4.206-4.265-4.206m0 6.07c-.416 0-1.165.003-1.808.006-.003-.663-.007-1.444-.007-1.869l-.004-1.863h1.819c1.042 0 1.922.853 1.922 1.863s-.88 1.863-1.922 1.863M29.13.94A1.18 1.18 0 0 0 27.841.46a1.18 1.18 0 0 0-.856 1.043c-.08 1.038 1.2 1.647 1.96.95.421-.385.5-1.04.183-1.514"/></g><defs><clipPath id="a"><path fill="#fff" d="M0 0h60v60H0z"/></clipPath></defs></svg>