<svg xmlns="http://www.w3.org/2000/svg" width="60" height="60" fill="none"><path fill="#000" d="M32.813 7.5h-5.626a.938.938 0 0 1 0-1.875h5.625a.938.938 0 0 1 0 1.875M40.313 58.125H19.687A4.693 4.693 0 0 1 15 53.438V21.562a.938.938 0 0 1 1.875 0v31.876a2.816 2.816 0 0 0 2.813 2.812h20.625a2.816 2.816 0 0 0 2.812-2.812V21.562a.938.938 0 0 1 1.875 0v31.876a4.693 4.693 0 0 1-4.687 4.687"/><path fill="#000" d="M44.063 28.125a.94.94 0 0 1-.938-.937V6.563a2.816 2.816 0 0 0-2.812-2.813H19.687a2.816 2.816 0 0 0-2.812 2.813v20.625a.938.938 0 0 1-1.875 0V6.563a4.693 4.693 0 0 1 4.688-4.688h20.625A4.693 4.693 0 0 1 45 6.563v20.625c0 .517-.42.937-.937.937M49.688 11.344c-.518 0-.938-.326-.938-.844v-.187a.938.938 0 0 1 1.875 0c0 .517-.42 1.03-.937 1.03M49.688 15.094c-.518 0-.938-.326-.938-.844v-.187a.938.938 0 0 1 1.875 0c0 .517-.42 1.03-.937 1.03M49.688 18.844c-.518 0-.938-.327-.938-.844v-.187a.938.938 0 0 1 1.875 0c0 .517-.42 1.03-.937 1.03M10.313 43.031c-.518 0-.938-.326-.938-.843V42a.938.938 0 0 1 1.875 0c0 .517-.42 1.031-.937 1.031M10.313 46.781c-.518 0-.938-.326-.938-.843v-.188a.938.938 0 0 1 1.875 0c0 .517-.42 1.031-.937 1.031M10.313 50.531c-.518 0-.938-.326-.938-.843V49.5a.938.938 0 0 1 1.875 0c0 .517-.42 1.031-.937 1.031"/><path fill="#000" d="M46.577 50.625a.937.937 0 0 1-.917-1.134l.619-2.87a.93.93 0 0 1 .695-.712 9 9 0 0 0 2.564-1.07.94.94 0 0 1 .991.01l1.857 1.186 1.149-1.159-1.187-1.841a.94.94 0 0 1-.013-.996 9 9 0 0 0 1.069-2.563.94.94 0 0 1 .708-.697l2.138-.475v-1.607l-2.136-.474a.94.94 0 0 1-.708-.697 9 9 0 0 0-1.07-2.564.93.93 0 0 1 .012-.993l1.189-1.858-1.148-1.148-1.858 1.189a.93.93 0 0 1-.992.01 9 9 0 0 0-2.563-1.071.93.93 0 0 1-.695-.713l-.462-2.128H45a.938.938 0 0 1 0-1.875h1.575c.44 0 .823.31.915.74l.5 2.313c.687.208 1.36.489 2.009.84l2.014-1.289a.94.94 0 0 1 1.168.128l2.214 2.212a.936.936 0 0 1 .126 1.169L54.233 32.5c.35.65.631 1.324.84 2.012l2.315.514a.94.94 0 0 1 .737.917v3.112a.94.94 0 0 1-.735.915l-2.316.514c-.208.688-.489 1.361-.84 2.01l1.287 1.995c.24.37.189.857-.122 1.168l-2.215 2.231a.94.94 0 0 1-1.17.13l-2.013-1.288q-.978.526-2.008.84l-.501 2.312a.94.94 0 0 1-.915.742"/><path fill="#000" d="M47.608 42.334a.937.937 0 0 1-.521-1.716A3.76 3.76 0 0 0 48.75 37.5a3.754 3.754 0 0 0-4.5-3.675.937.937 0 1 1-.377-1.838 5.632 5.632 0 0 1 6.752 5.512 5.62 5.62 0 0 1-2.495 4.675.94.94 0 0 1-.522.16M15 28.126A5.63 5.63 0 0 1 9.375 22.5c0-1.885.938-3.634 2.509-4.684a.938.938 0 0 1 1.038 1.56 3.76 3.76 0 0 0-1.672 3.124 3.754 3.754 0 0 0 4.485 3.677.94.94 0 0 1 1.104.735.935.935 0 0 1-.735 1.102q-.536.11-1.104.11"/><path fill="#000" d="M15 35.625h-1.575a.94.94 0 0 1-.915-.74l-.5-2.313c-.687-.208-1.36-.489-2.009-.84L7.988 33.02a.936.936 0 0 1-1.169-.127L4.605 30.68a.936.936 0 0 1-.126-1.168L5.768 27.5q-.527-.978-.84-2.012l-2.316-.514a.94.94 0 0 1-.737-.917v-3.112c0-.44.306-.822.735-.915l2.316-.514c.208-.688.489-1.361.84-2.01L4.48 15.508a.93.93 0 0 1 .122-1.168l2.215-2.231a.934.934 0 0 1 1.17-.13L10 13.267a11 11 0 0 1 2.008-.84l.501-2.311a.937.937 0 1 1 1.832.395l-.619 2.869a.93.93 0 0 1-.696.712 9 9 0 0 0-2.564 1.071.94.94 0 0 1-.992-.01l-1.857-1.186-1.15 1.159 1.186 1.84c.197.303.2.69.013.996a9 9 0 0 0-1.069 2.564.94.94 0 0 1-.708.697l-2.136.473v1.606l2.136.475a.94.94 0 0 1 .708.697 9 9 0 0 0 1.07 2.563.93.93 0 0 1-.012.994l-1.189 1.856 1.148 1.148 1.858-1.189a.94.94 0 0 1 .992-.01c.817.498 1.68.858 2.563 1.071.35.085.62.362.695.713l.462 2.13H15a.938.938 0 0 1 0 1.875M29.063 34.688a.935.935 0 0 1-.91-1.164l1.875-7.5a.93.93 0 0 1 1.137-.683.935.935 0 0 1 .682 1.136l-1.875 7.5a.934.934 0 0 1-.91.71M34.688 34.688a.938.938 0 0 1-.664-1.6L37.112 30l-3.086-3.086a.938.938 0 0 1 1.326-1.325l3.75 3.75a.94.94 0 0 1 0 1.325l-3.75 3.75a.94.94 0 0 1-.664.274M25.313 34.688a.94.94 0 0 1-.664-.274l-3.75-3.75a.94.94 0 0 1 0-1.325l3.75-3.75a.938.938 0 0 1 1.326 1.325L22.889 30l3.086 3.087a.938.938 0 0 1-.662 1.601"/></svg>