<svg xmlns="http://www.w3.org/2000/svg" width="60" height="60" fill="none"><g fill="#000" clip-path="url(#a)"><path d="m46.082 32.892-9.854-8.297a.94.94 0 0 0-1.267.055l-.836.837A6.34 6.34 0 0 0 32.255 30a6.34 6.34 0 0 0 1.87 4.513l4.527 4.528a.936.936 0 1 0 1.325-1.326l-4.527-4.528A4.48 4.48 0 0 1 34.13 30c0-1.204.47-2.337 1.32-3.188l.23-.229 9.19 7.74c4.388 3.74 5.172 9.82 1.741 13.9l-4.023 5.612a10.3 10.3 0 0 1-8.353 4.29h-6.47c-2.745 0-5.326-1.07-7.268-3.01l-2.34-2.34a.936.936 0 1 0-1.325 1.325l2.34 2.34A12.07 12.07 0 0 0 27.765 60h6.47c3.907 0 7.599-1.896 9.876-5.072l3.979-5.555c4.06-4.821 3.179-12.059-2.008-16.481"/><path d="M40.254 47.813v-5.626a.937.937 0 1 0-1.875 0v.938H14.004V2.813c0-.517.42-.938.937-.938h5.625v.938a2.816 2.816 0 0 0 2.813 2.812h5.625a2.816 2.816 0 0 0 2.812-2.812v-.938h5.625c.518 0 .938.42.938.938v21.562a.937.937 0 1 0 1.875 0V2.813A2.816 2.816 0 0 0 37.44 0h-22.5a2.816 2.816 0 0 0-2.812 2.813V15.2c-1.395-.74-3.107-.612-4.291.455a3.7 3.7 0 0 0-1.18 2.095c-1.362-.64-2.988-.464-4.123.557a3.72 3.72 0 0 0-1.242 2.69 3.77 3.77 0 0 0 1.097 2.75l.353.354A3.7 3.7 0 0 0 .926 25.22c-1.334 1.481-1.224 3.796.252 5.27l1.566 1.567a3.73 3.73 0 0 0-1.817 1.117c-1.334 1.482-1.224 3.796.252 5.271l7.536 7.537a.935.935 0 0 0 1.326 0 .937.937 0 0 0 0-1.326l-7.537-7.537c-.756-.755-.839-1.962-.183-2.69a1.86 1.86 0 0 1 1.348-.623 1.86 1.86 0 0 1 1.371.545l.004.004 7.088 7.088v6.37a2.816 2.816 0 0 0 2.813 2.813h22.5a2.815 2.815 0 0 0 2.809-2.812m-10.313-45c0 .516-.42.937-.937.937h-5.625a.94.94 0 0 1-.938-.937v-.938h7.5zM9.091 17.048c.728-.655 1.935-.573 2.69.183l.347.346v5.304L9.02 19.77h-.001v-.001a1.86 1.86 0 0 1-.55-1.375c.014-.519.235-.997.622-1.347M3.79 19.7c.728-.655 1.936-.572 2.69.183l1.212 1.213 4.437 4.436v5.303l-5.762-5.762-2.651-2.65a1.86 1.86 0 0 1-.549-1.376c.014-.52.235-.998.623-1.347m2.577 13.328L2.5 29.163c-.756-.756-.839-1.962-.182-2.69a1.86 1.86 0 0 1 1.347-.623 1.88 1.88 0 0 1 1.371.544l.004.004 7.089 7.089v5.303zm7.638 14.785V45h24.375v2.813c0 .516-.42.937-.938.937h-22.5a.94.94 0 0 1-.937-.937"/><path d="M26.278 19.688h-1.93a.937.937 0 1 0 0 1.875h.964v.937a.937.937 0 1 0 1.875 0v-1.102a2.81 2.81 0 0 0 1.902-2.648c0-1.55-1.261-2.812-2.867-2.812a.938.938 0 0 1 0-1.876h1.93a.937.937 0 1 0 0-1.874h-.965v-.938a.937.937 0 1 0-1.875 0v1.102A2.81 2.81 0 0 0 23.41 15c0 1.55 1.262 2.813 2.868 2.813a.938.938 0 0 1 0 1.875M15.94 31.875a4.693 4.693 0 0 0 4.687 4.688h11.25a.937.937 0 1 0 0-1.876h-11.25a2.816 2.816 0 0 1-2.812-2.812 2.816 2.816 0 0 1 2.812-2.812h9.375a.937.937 0 1 0 0-1.875h-9.375a4.693 4.693 0 0 0-4.687 4.687M51.563 15c-4.653 0-8.438 3.786-8.438 8.438 0 4.651 3.785 8.437 8.438 8.437 4.652 0 8.437-3.786 8.437-8.437C60 18.786 56.215 15 51.563 15m0 15A6.57 6.57 0 0 1 45 23.438a6.57 6.57 0 0 1 6.563-6.563 6.57 6.57 0 0 1 6.562 6.563A6.57 6.57 0 0 1 51.563 30"/><path d="m53.712 20.9-3.087 3.087-1.212-1.212a.937.937 0 1 0-1.326 1.326l1.875 1.875a.935.935 0 0 0 1.326 0l3.75-3.75a.936.936 0 1 0-1.326-1.326M30 30.938h-7.5a.937.937 0 1 0 0 1.875H30a.937.937 0 1 0 0-1.876"/></g><defs><clipPath id="a"><path fill="#fff" d="M0 0h60v60H0z"/></clipPath></defs></svg>