<svg xmlns="http://www.w3.org/2000/svg" width="60" height="60" fill="none"><g clip-path="url(#a)"><path fill="#000" d="M59.909 28.846a2.62 2.62 0 0 0-1.228-1.6 2.6 2.6 0 0 0-.854-.313 2.6 2.6 0 0 0 .134-1.744 2.62 2.62 0 0 0-2.083-1.911 2.6 2.6 0 0 0 .135-1.746 2.62 2.62 0 0 0-2.083-1.912 2.6 2.6 0 0 0 .135-1.746 2.62 2.62 0 0 0-1.228-1.6 2.62 2.62 0 0 0-2-.264l-.049.015a7.9 7.9 0 0 0-1.055-4.043l-4.176-7.233a2.64 2.64 0 0 0-3.602-.965 2.6 2.6 0 0 0-.696.584 2.64 2.64 0 0 0-4.142-.143 2.64 2.64 0 0 0-4.142-.141 2.62 2.62 0 0 0-1.444-.99 2.62 2.62 0 0 0-2 .264c-.61.352-1.046.921-1.229 1.601l-.01.05a7.9 7.9 0 0 0-4.03-1.108H15.91a2.64 2.64 0 0 0-2.48 3.531 2.64 2.64 0 0 0-2.193 3.516 2.64 2.64 0 0 0-2.194 3.515 2.64 2.64 0 0 0-2.35 2.621c0 .745.311 1.419.81 1.899a7.9 7.9 0 0 0-2.975 2.935L.353 29.151a2.64 2.64 0 0 0 1.819 3.913 2.6 2.6 0 0 0-.135 1.745 2.636 2.636 0 0 0 2.082 1.913 2.6 2.6 0 0 0-.134 1.745 2.636 2.636 0 0 0 2.082 1.913 2.6 2.6 0 0 0-.134 1.744c.182.68.618 1.25 1.228 1.601a2.62 2.62 0 0 0 2.001.264l.048-.016a7.9 7.9 0 0 0 1.055 4.044l4.176 7.233a2.638 2.638 0 0 0 4.3.381 2.64 2.64 0 0 0 3.443.726c.27-.156.502-.355.697-.586a2.64 2.64 0 0 0 3.445.727c.272-.157.505-.356.697-.583a2.645 2.645 0 0 0 2.13 1.08c.457 0 .908-.12 1.314-.355a2.62 2.62 0 0 0 1.229-1.601l.01-.05a7.9 7.9 0 0 0 4.03 1.108h8.352a2.64 2.64 0 0 0 2.48-3.53 2.64 2.64 0 0 0 2.193-3.517 2.64 2.64 0 0 0 2.194-3.515 2.64 2.64 0 0 0 2.35-2.621c0-.745-.312-1.418-.81-1.898a7.9 7.9 0 0 0 2.974-2.936l4.176-7.233c.353-.61.446-1.32.264-2M30 5.414a.87.87 0 0 1 .41-.533.87.87 0 0 1 .666-.088c.227.06.417.206.534.41L32.707 7.1l1.289 2.233a.879.879 0 0 0 1.522-.879l-1.29-2.234a.88.88 0 0 1 1.524-.877l1.096 1.898 1.207 2.092a.878.878 0 1 0 1.523-.88L38.37 6.367a.87.87 0 0 1-.088-.668.88.88 0 0 1 1.61-.212l1.096 1.899 1.126 1.949a.879.879 0 1 0 1.522-.88l-1.124-1.946a.88.88 0 0 1-.089-.668.88.88 0 0 1 1.61-.212l4.176 7.233a6.17 6.17 0 0 1 0 6.152l-4.312 7.471-1.953-3.382a.88.88 0 0 0-.482-.394l-4.894-1.638a6.1 6.1 0 0 1-2.122-1.225l-2.127-1.882h3.106a.88.88 0 0 0 .76-1.318l-5.073-8.789-1.025-1.775A.87.87 0 0 1 30 5.414m0 36.327-3.284-2.904a7.9 7.9 0 0 0-2.73-1.576l-4.155-1.391.873-4.295a7.9 7.9 0 0 0 0-3.151l-.873-4.296 4.156-1.391a7.9 7.9 0 0 0 2.729-1.576l3.283-2.903 3.283 2.903a7.9 7.9 0 0 0 2.73 1.576l4.156 1.391-.873 4.296a7.9 7.9 0 0 0 0 3.15l.873 4.296-4.157 1.392a7.9 7.9 0 0 0-2.729 1.575zm-20.759.14a.87.87 0 0 1-.534.41.88.88 0 0 1-.667-.088.87.87 0 0 1-.41-.534.87.87 0 0 1 .089-.667l2.385-4.131a.879.879 0 0 0-1.522-.88l-1.29 2.233a.87.87 0 0 1-.532.41.87.87 0 0 1-.668-.088.87.87 0 0 1-.409-.534.87.87 0 0 1 .088-.667l2.303-3.99a.879.879 0 0 0-1.522-.879l-1.207 2.09a.875.875 0 0 1-1.2.322.87.87 0 0 1-.41-.533.87.87 0 0 1 .088-.667l1.096-1.9 1.126-1.948a.879.879 0 0 0-1.522-.88l-1.126 1.95a.88.88 0 0 1-1.522-.88l4.176-7.233a6.17 6.17 0 0 1 5.328-3.076h3.118a.879.879 0 1 0 0-1.758H9.33a.88.88 0 0 1 0-1.758h4.77a.879.879 0 1 0 0-1.757h-2.577a.88.88 0 0 1 0-1.758h4.607a.879.879 0 1 0 0-1.758h-2.413a.88.88 0 0 1 0-1.758h4.443a.879.879 0 1 0 0-1.758h-2.25a.88.88 0 0 1 0-1.757h8.352a6.17 6.17 0 0 1 5.328 3.075l4.314 7.471h-3.905a.88.88 0 0 0-.582.22l-3.866 3.42a6.1 6.1 0 0 1-2.122 1.225l-2.693.902 1.553-2.69a.88.88 0 0 0-.76-1.319h-3.517a.879.879 0 1 0 0 1.758h1.994l-1.952 3.381a.88.88 0 0 0-.1.615l1.027 5.057a6.1 6.1 0 0 1 0 2.45l-.565 2.784-1.553-2.69a.88.88 0 0 0-1.523 0l-5.073 8.788c-.003.003-1.026 1.775-1.026 1.775m20.757 12.703a.87.87 0 0 1-.41.534.87.87 0 0 1-.666.088.87.87 0 0 1-.534-.41l-1.097-1.899-1.288-2.232a.88.88 0 0 0-1.523.879l1.29 2.234a.88.88 0 0 1-.323 1.198.88.88 0 0 1-1.2-.322l-2.304-3.99a.879.879 0 0 0-1.522.88l1.205 2.087a.876.876 0 0 1-.32 1.204.88.88 0 0 1-1.2-.322l-1.096-1.897-1.126-1.951a.879.879 0 0 0-1.523.879l1.126 1.95a.88.88 0 0 1-1.523.877l-4.176-7.233a6.17 6.17 0 0 1 0-6.152l4.313-7.471 1.952 3.381a.88.88 0 0 0 .482.394l4.894 1.639a6.1 6.1 0 0 1 2.122 1.225l2.128 1.881h-3.107a.88.88 0 0 0-.76 1.319l5.073 8.789 1.025 1.774c.118.204.149.44.088.667m20.67-12.548a.88.88 0 0 1 0 1.757h-4.77a.879.879 0 1 0 0 1.758h2.577a.88.88 0 0 1 0 1.758h-4.607a.879.879 0 1 0 0 1.758h2.414a.88.88 0 0 1 0 1.757h-4.444a.879.879 0 1 0 0 1.758h2.25a.88.88 0 0 1 0 1.758h-8.352a6.17 6.17 0 0 1-5.328-3.076l-4.313-7.47h3.904a.88.88 0 0 0 .582-.221l3.866-3.419a6.1 6.1 0 0 1 2.122-1.226l2.694-.901-1.554 2.69a.88.88 0 0 0 .761 1.319zm7.455-12.068-4.176 7.233a6.17 6.17 0 0 1-5.328 3.077h-8.626l1.952-3.382a.88.88 0 0 0 .1-.614l-1.028-5.057a6.1 6.1 0 0 1 0-2.451l.566-2.783 1.553 2.69a.88.88 0 0 0 1.523 0l6.099-10.563a.87.87 0 0 1 .533-.41.87.87 0 0 1 .667.088.87.87 0 0 1 .41.533c.06.227.029.464-.089.667l-2.385 4.132a.879.879 0 1 0 1.522.879l1.289-2.232a.87.87 0 0 1 .534-.41.87.87 0 0 1 .667.088.87.87 0 0 1 .41.534c.06.227.029.463-.089.667l-2.303 3.99a.879.879 0 1 0 1.522.878l1.207-2.09a.87.87 0 0 1 .534-.41.87.87 0 0 1 .666.088.87.87 0 0 1 .41.534c.06.227.03.464-.088.667l-1.096 1.898-1.126 1.95a.879.879 0 1 0 1.523.88l1.125-1.95a.88.88 0 0 1 1.522.88"/></g><defs><clipPath id="a"><path fill="#fff" d="M0 0h60v60H0z"/></clipPath></defs></svg>