<svg xmlns="http://www.w3.org/2000/svg" width="60" height="60" fill="none"><g clip-path="url(#a)"><path fill="#000" d="M53.276 38.795v-17.59a4.214 4.214 0 0 0 3.268-4.1 4.213 4.213 0 0 0-4.206-4.21c-1.216 0-2.311.519-3.08 1.346l-7.619-4.4-7.616-4.397a4.211 4.211 0 0 0-4.02-5.446 4.213 4.213 0 0 0-4.024 5.446L18.363 9.84l-7.618 4.399a4.2 4.2 0 0 0-3.082-1.345 4.213 4.213 0 0 0-4.207 4.21c0 1.997 1.4 3.673 3.269 4.1v17.59a4.214 4.214 0 0 0-3.27 4.1 4.21 4.21 0 0 0 4.207 4.208 4.2 4.2 0 0 0 3.082-1.346l7.617 4.4 7.616 4.397a4.216 4.216 0 0 0 4.024 5.448 4.213 4.213 0 0 0 4.021-5.45l7.618-4.395 7.618-4.4a4.2 4.2 0 0 0 3.08 1.347 4.21 4.21 0 0 0 4.208-4.207c0-1.998-1.4-3.674-3.27-4.102m-4.018 1.24-9.232-5.33v-9.41l9.23-5.328a4.2 4.2 0 0 0 2.143 1.24v17.59c-.836.19-1.578.63-2.141 1.238m-19.256-.256c-4.666 0-8.15-1.797-8.15-3.404v-3.207q.577.421 1.319.776c1.84.879 4.265 1.363 6.83 1.363s4.99-.484 6.83-1.363a8.4 8.4 0 0 0 1.317-.775v3.206c0 1.607-3.484 3.404-8.146 3.404m-19.257.255a4.2 4.2 0 0 0-2.144-1.239v-17.59a4.2 4.2 0 0 0 2.144-1.238l9.23 5.327v9.409zm19.257-19.812c4.662 0 8.146 1.797 8.146 3.403s-3.484 3.4-8.146 3.4c-4.666 0-8.15-1.795-8.15-3.4 0-1.606 3.485-3.403 8.15-3.403m-8.15 6.538q.58.42 1.325.777c1.843.88 4.268 1.365 6.826 1.365s4.979-.485 6.822-1.365a8.5 8.5 0 0 0 1.325-.777v3.267c0 1.607-3.484 3.404-8.147 3.404-4.666 0-8.15-1.797-8.15-3.404zM52.34 14.772a2.335 2.335 0 0 1 2.33 2.333 2.333 2.333 0 0 1-2.33 2.33 2.333 2.333 0 0 1-2.331-2.33 2.334 2.334 0 0 1 2.33-2.333M40.7 11.466l7.616 4.4a4.2 4.2 0 0 0-.001 2.475l-8.329 4.807c-.21-1.347-1.315-2.554-3.163-3.437-1.616-.772-3.677-1.24-5.885-1.343V8.31a4.2 4.2 0 0 0 2.142-1.24zM30 1.876a2.334 2.334 0 0 1 2.331 2.33 2.334 2.334 0 0 1-2.33 2.332 2.336 2.336 0 0 1-2.334-2.333 2.334 2.334 0 0 1 2.334-2.33M19.3 11.466l7.618-4.398a4.2 4.2 0 0 0 2.146 1.241v10.058c-2.208.104-4.271.572-5.887 1.343-1.849.883-2.952 2.091-3.163 3.437l-8.326-4.805a4.2 4.2 0 0 0-.002-2.479zM5.332 17.105a2.334 2.334 0 0 1 2.331-2.333 2.336 2.336 0 0 1 2.333 2.333 2.333 2.333 0 0 1-4.664 0m2.33 28.122a2.334 2.334 0 0 1-2.33-2.33 2.333 2.333 0 0 1 4.663 0 2.334 2.334 0 0 1-2.333 2.33M19.3 48.53l-7.614-4.397a4.2 4.2 0 0 0 0-2.477l8.328-4.81c.208 1.352 1.309 2.561 3.157 3.445 1.613.77 3.678 1.237 5.892 1.34v10.059a4.2 4.2 0 0 0-2.145 1.238zm10.702 9.594a2.336 2.336 0 0 1-2.334-2.333 2.334 2.334 0 0 1 2.334-2.33 2.334 2.334 0 0 1 2.33 2.33 2.335 2.335 0 0 1-2.33 2.333M40.7 48.531l-7.62 4.398a4.2 4.2 0 0 0-2.14-1.238V41.632c2.213-.103 4.277-.57 5.89-1.34 1.847-.883 2.946-2.092 3.155-3.443l8.33 4.81a4.2 4.2 0 0 0 0 2.473zm11.638-3.304a2.334 2.334 0 0 1-2.331-2.33 2.333 2.333 0 0 1 2.33-2.33 2.333 2.333 0 0 1 2.331 2.33 2.334 2.334 0 0 1-2.33 2.33"/></g><defs><clipPath id="a"><path fill="#fff" d="M0 0h60v60H0z"/></clipPath></defs></svg>