<svg xmlns="http://www.w3.org/2000/svg" width="60" height="60" fill="none"><path fill="#000" d="M57.6 45.84H22.32L21 40.92h28.92c.48 0 .96-.36 1.08-.72l7.8-19.56c.12-.36.12-.84-.12-1.08-.24-.36-.6-.48-.96-.48h-5.4c-.72-8.64-7.8-15.36-16.44-15.36h-.12c-8.4 0-15.72 6.48-16.32 15.36H15l-4.08-15c-.12-.6-.6-.96-1.2-.96H2.4c-.72 0-1.2.48-1.2 1.2s.48 1.2 1.2 1.2h6.48l11.4 41.76c.12.48.6.84 1.2.84h2.4c-.6.84-.96 1.92-.96 3.12 0 3 2.52 5.52 5.52 5.52s5.52-2.52 5.52-5.52c0-1.2-.36-2.16-.96-3.12h13.08c-.6.84-.96 1.92-.96 3.12 0 3 2.52 5.52 5.52 5.52s5.52-2.52 5.52-5.52c0-1.2-.36-2.16-.96-3.12h2.4c.72 0 1.2-.48 1.2-1.2s-.6-1.08-1.2-1.08m-7.8-26.88h-5.04c0-1.2-.12-2.52-.36-3.6h4.56c.48 1.08.72 2.4.84 3.6m-5.4 6q.36-1.8.36-3.6h5.04c-.12 1.32-.36 2.52-.84 3.6zm3.48 2.4c-1.44 2.52-3.72 4.44-6.36 5.64 1.08-1.56 1.92-3.48 2.4-5.64zm0-14.4h-3.96c-.6-2.28-1.44-4.2-2.4-5.64 2.64 1.08 4.92 3.12 6.36 5.64m-10.8-6.6c1.8.72 3.48 3.12 4.44 6.6h-4.44zm0 9H42q.36 1.62.36 3.6h-5.4v-3.6zm0 6h5.4c0 1.32-.24 2.52-.36 3.6H37.2v-3.6zm0 6h4.44c-.96 3.48-2.64 5.88-4.44 6.6zm-2.4-21v6.6h-4.44c.96-3.48 2.64-5.88 4.44-6.6m-5.04 18.6c-.24-1.08-.36-2.4-.36-3.6h5.4v3.6zm5.04 2.4v6.6c-1.8-.72-3.48-3.12-4.44-6.6zm-6.96 0c.6 2.28 1.44 4.2 2.4 5.64-2.64-1.2-4.92-3.24-6.36-5.64zm-5.04-2.4c-.36-1.2-.72-2.4-.84-3.6h5.04c0 1.2.12 2.52.36 3.6zm6.6-6c0-1.32.24-2.52.36-3.6h4.92v3.6zm.84-11.76c-1.08 1.56-1.92 3.48-2.4 5.64h-3.96c1.44-2.4 3.72-4.44 6.36-5.64m-7.44 8.16h4.56c-.24 1.2-.24 2.4-.36 3.6h-5.04c.12-1.2.36-2.52.84-3.6m-2.4 23.16L15.6 21.36h3.84c.6 8.76 7.92 15.24 16.32 15.36h.12c8.4 0 15.72-6.6 16.32-15.36h3.6l-6.84 17.16zm8.04 15.96c-1.68 0-3.12-1.44-3.12-3.12s1.44-3.12 3.12-3.12 3.12 1.44 3.12 3.12-1.44 3.12-3.12 3.12m22.08 0c-1.68 0-3.12-1.44-3.12-3.12s1.44-3.12 3.12-3.12 3.12 1.44 3.12 3.12-1.32 3.12-3.12 3.12"/></svg>