<svg xmlns="http://www.w3.org/2000/svg" width="60" height="60" fill="none"><g fill="#000" clip-path="url(#a)"><path d="M35 59.336c-2.75 0-5-2.25-5-5V43.9l-6.953-6.938a6.1 6.1 0 0 1-1.797-4.344 6.24 6.24 0 0 1 1.797-4.36l8.922-8.92h-4.547l-3.72 3.718a4.34 4.34 0 0 1-3.093 1.281 4.39 4.39 0 0 1-4.375-4.375c0-1.172.453-2.265 1.281-3.094l5-5a4.34 4.34 0 0 1 3.094-1.281h14.078c1.313 0 2.61.531 3.532 1.469l4.046 4.047a5.02 5.02 0 0 1 1.47 3.531v8.453h5.624a4.39 4.39 0 0 1 4.375 4.375 4.39 4.39 0 0 1-4.375 4.375h-9.375c-2.75 0-5-2.25-5-5v-3.234l-5.562 5.578 4.11 4.11A5 5 0 0 1 40 41.82v12.5c0 2.766-2.25 5.016-5 5.016m-8.594-42.5h11.61L24.811 30.04a3.66 3.66 0 0 0-1.062 2.594c0 .953.39 1.89 1.062 2.578l7.672 7.672v11.453c0 1.375 1.125 2.5 2.5 2.5s2.5-1.125 2.5-2.5v-12.5c0-.672-.265-1.297-.734-1.765l-5.86-5.891L42.5 22.57v9.266c0 1.375 1.125 2.5 2.5 2.5h9.375a1.88 1.88 0 0 0 1.875-1.875 1.88 1.88 0 0 0-1.875-1.875H46.25V19.633a2.5 2.5 0 0 0-.735-1.766L41.47 13.82a2.5 2.5 0 0 0-1.766-.734H25.625c-.5 0-.97.203-1.328.547l-5 5a1.88 1.88 0 0 0 1.328 3.203c.5 0 .968-.203 1.328-.547z"/><path d="M16.25 49.336a4.92 4.92 0 0 1-3.531-1.47l-7.5-7.5a5 5 0 0 1-1.469-3.53c0-2.75 2.25-5 5-5 1.328 0 2.594.515 3.531 1.468l3.97 3.97 2.343-2.345 1.765 1.766-4.109 4.11-5.734-5.735a2.48 2.48 0 0 0-1.766-.734 2.51 2.51 0 0 0-2.5 2.5c0 .672.266 1.297.735 1.765l7.5 7.5c.953.954 2.593.954 3.53 0l5.626-5.625 1.765 1.766-5.625 5.625a4.93 4.93 0 0 1-3.53 1.469M52.5 15.586c-4.14 0-7.5-3.36-7.5-7.5s3.36-7.5 7.5-7.5 7.5 3.36 7.5 7.5-3.36 7.5-7.5 7.5m0-12.5c-2.75 0-5 2.25-5 5s2.25 5 5 5 5-2.25 5-5-2.25-5-5-5M0 19.336h11.25v2.5H0zM3.75 10.586h12.5v2.5H3.75z"/></g><defs><clipPath id="a"><path fill="#fff" d="M0 0h60v60H0z"/></clipPath></defs></svg>