<svg xmlns="http://www.w3.org/2000/svg" width="60" height="60" fill="none"><path fill="#000" d="M55.313 1.875H4.688a2.82 2.82 0 0 0-2.813 2.813v39.375a2.82 2.82 0 0 0 2.813 2.812h30.937v6.563a4.69 4.69 0 0 0 4.688 4.687h13.124a4.69 4.69 0 0 0 4.688-4.687V4.688a2.82 2.82 0 0 0-2.812-2.813m.937 51.563a2.82 2.82 0 0 1-2.812 2.812H40.312a2.82 2.82 0 0 1-2.812-2.812V52.5h18.75zm0-2.813H37.5V30h18.75zm0-22.5H37.5v-.937a2.82 2.82 0 0 1 2.813-2.813h13.124a2.82 2.82 0 0 1 2.813 2.813zm0-4.66a4.6 4.6 0 0 0-2.812-.965H40.312a4.69 4.69 0 0 0-4.687 4.688V45H4.688a.94.94 0 0 1-.938-.937V11.25h52.5zm0-14.09H3.75V4.688a.937.937 0 0 1 .938-.938h50.625a.937.937 0 0 1 .937.938z"/><path fill="#000" d="M7.5 5.625h-.937a.937.937 0 1 0 0 1.875H7.5a.937.937 0 1 0 0-1.875M11.25 5.625h-.937a.938.938 0 0 0 0 1.875h.937a.937.937 0 0 0 0-1.875M15 5.625h-.937a.937.937 0 0 0 0 1.875H15a.937.937 0 0 0 0-1.875M32.813 16.875H6.563a.94.94 0 0 0-.938.938v20.625a.937.937 0 0 0 .938.937h26.25a.94.94 0 0 0 .937-.937V17.812a.94.94 0 0 0-.937-.937M8.25 37.5l7.688-12.29 7.687 12.29zm17.578 0-2.044-3.281 2.466-3.525 4.762 6.806zm6.047-2.034-4.856-6.938a.937.937 0 0 0-1.538 0l-2.775 3.966-5.972-9.553a.984.984 0 0 0-1.593 0L7.5 35.166V18.75h24.375z"/><path fill="#000" d="M23.438 26.25a2.812 2.812 0 1 0 0-5.624 2.812 2.812 0 0 0 0 5.624m0-3.75a.937.937 0 1 1 0 1.875.937.937 0 0 1 0-1.875M53.438 5.625H20.624a.937.937 0 0 0 0 1.875h32.813a.937.937 0 0 0 0-1.875M47.813 53.438h-1.876a.938.938 0 0 0 0 1.874h1.876a.938.938 0 0 0 0-1.874M47.813 25.313h-1.876a.938.938 0 0 0 0 1.875h1.876a.938.938 0 0 0 0-1.875M43.788 35.9a.937.937 0 0 0-1.326 0l-3.75 3.75a.937.937 0 0 0 0 1.325l3.75 3.75a.937.937 0 0 0 1.326-1.325L40.7 40.312l3.088-3.087a.937.937 0 0 0 0-1.325M55.038 39.65l-3.75-3.75a.937.937 0 0 0-1.326 1.325l3.087 3.088-3.087 3.087a.936.936 0 0 0 .66 1.612.94.94 0 0 0 .666-.287l3.75-3.75a.937.937 0 0 0 0-1.325M49.007 32.849a.937.937 0 0 0-1.159.643l-3.75 13.125A.94.94 0 0 0 45 47.812a.94.94 0 0 0 .901-.68l3.75-13.125a.937.937 0 0 0-.644-1.158"/></svg>