<svg xmlns="http://www.w3.org/2000/svg" width="60" height="60" fill="none"><path fill="#000" d="M53.192 45.125h-1.051l-.935-20.46a.99.99 0 0 0-1.049-.958h-.002a1 1 0 0 0-.956 1.05l.918 20.368H9.874l.968-21.135v-.04c0-1.11.907-2.017 2.017-2.017h31.732c.554 0 1.008-.454 1.008-1.008 0-.555-.443-.999-.987-1.008H12.859a4.04 4.04 0 0 0-4.034 4.033l-.964 21.175H6.809c-.558 0-1.008.451-1.008 1.008v2.017a4.037 4.037 0 0 0 4.033 4.033h40.333A4.037 4.037 0 0 0 54.2 48.15v-2.017c0-.557-.45-1.008-1.008-1.008m-1.008 3.025a2.02 2.02 0 0 1-2.017 2.017H9.834a2.02 2.02 0 0 1-2.017-2.017v-1.008h44.367zm-4.578-26.58a1 1 0 0 1 .007-.605q.025-.083.064-.162c.252-.463.886-.665 1.36-.413h.01c.485.262.676.877.414 1.371q-.043.075-.097.14a1.01 1.01 0 0 1-1.274.263.96.96 0 0 1-.484-.594m-8.53 19.522c0 .557.45 1.008 1.008 1.008h4.033c.558 0 1.008-.451 1.008-1.008 0-4.04-1.573-7.839-4.43-10.695a15.03 15.03 0 0 0-10.694-4.43c-4.04 0-7.839 1.573-10.695 4.43a15.03 15.03 0 0 0-4.43 10.695c0 .557.45 1.008 1.008 1.008h4.033c.557 0 1.009-.451 1.009-1.008a9.02 9.02 0 0 1 2.658-6.418A9.02 9.02 0 0 1 30 32.017c2.424 0 4.702.943 6.417 2.657a9.02 9.02 0 0 1 2.658 6.418m-1.977-8.525a11 11 0 0 0-6.09-2.522V28.02a13 13 0 0 1 7.521 3.115zm3.948 7.516a11 11 0 0 0-2.522-6.09l1.431-1.43a13 13 0 0 1 3.115 7.52zm-24.116 0a13 13 0 0 1 3.114-7.52l1.431 1.43a11 11 0 0 0-2.521 6.09zm4.54-8.947a13 13 0 0 1 7.521-3.115v2.024a11 11 0 0 0-6.09 2.522l-.725-.725zm10.865 3.957c.528.176.814.748.638 1.276l-2.018 6.05a1.007 1.007 0 1 1-1.912-.639l2.017-6.05a1.007 1.007 0 0 1 1.275-.637m-9.898-22.235c0-.555.454-1.008 1.009-1.008s1.008.453 1.008 1.008-.454 1.009-1.008 1.009a1.01 1.01 0 0 1-1.009-1.009m4.033 0c0-.555.454-1.008 1.008-1.008.555 0 1.009.453 1.009 1.008s-.454 1.009-1.009 1.009a1.01 1.01 0 0 1-1.008-1.009m-8.066 0c0-.555.454-1.008 1.009-1.008s1.008.453 1.008 1.008-.454 1.009-1.008 1.009a1.01 1.01 0 0 1-1.009-1.009m13.108 0c0-.557.451-1.008 1.009-1.008h8.066a1.009 1.009 0 1 1 0 2.017h-8.067a1.01 1.01 0 0 1-1.008-1.009m0-4.033c0-.557.451-1.009 1.009-1.009h8.066a1.008 1.008 0 1 1 0 2.017h-8.067a1.007 1.007 0 0 1-1.008-1.008m0 8.066c0-.556.451-1.008 1.009-1.008h3.025a1.008 1.008 0 0 1 0 2.017h-3.025a1.01 1.01 0 0 1-1.009-1.009"/></svg>