<svg xmlns="http://www.w3.org/2000/svg" width="60" height="60" fill="none"><g fill="#000" clip-path="url(#a)"><path d="M20.065 30.878v4.858L30 41.472l9.935-5.736V24.263L30 18.527l-9.936 5.736v4.858h1.758v-2.828l7.299 4.214v8.428l-7.299-4.214v-3.843zm10.813 8.057v-8.428l7.299-4.214v8.428zm6.42-14.164L30 28.985 22.7 24.77 30 20.557z"/><path d="M30.879 23.893h1.758v1.757h-1.758zM27.363 23.893h1.758v1.757h-1.758zM47.784 29.121h-5.212v1.758h5.212a4.4 4.4 0 0 0 4.306 3.515A4.4 4.4 0 0 0 56.485 30a4.4 4.4 0 0 0-4.395-4.395 4.4 4.4 0 0 0-4.306 3.516m6.943.879a2.64 2.64 0 0 1-2.637 2.637A2.64 2.64 0 0 1 49.453 30a2.64 2.64 0 0 1 2.637-2.637A2.64 2.64 0 0 1 54.727 30M30.879 47.785v-3.267H29.12v3.267a4.4 4.4 0 0 0-3.515 4.306A4.4 4.4 0 0 0 30 56.485a4.4 4.4 0 0 0 4.395-4.394 4.4 4.4 0 0 0-3.516-4.306M30 54.727a2.64 2.64 0 0 1-2.637-2.636A2.64 2.64 0 0 1 30 49.454a2.64 2.64 0 0 1 2.637 2.637A2.64 2.64 0 0 1 30 54.727M29.121 12.216v3.267h1.758v-3.267a4.4 4.4 0 0 0 3.515-4.306A4.4 4.4 0 0 0 30 3.516a4.4 4.4 0 0 0-4.395 4.394 4.4 4.4 0 0 0 3.516 4.306M30 5.273a2.64 2.64 0 0 1 2.637 2.637A2.64 2.64 0 0 1 30 10.547a2.64 2.64 0 0 1-2.637-2.637A2.64 2.64 0 0 1 30 5.273M52.97 45.938a7 7 0 0 0-4.309 1.48l-2.264-2.264-1.243 1.243 2.264 2.264a7 7 0 0 0-1.48 4.308 7.04 7.04 0 0 0 7.031 7.032 7.04 7.04 0 0 0 7.032-7.032 7.04 7.04 0 0 0-7.032-7.031m0 12.305a5.28 5.28 0 0 1-5.274-5.274 5.28 5.28 0 0 1 5.273-5.273 5.28 5.28 0 0 1 5.274 5.273 5.28 5.28 0 0 1-5.274 5.274M7.91 25.606A4.4 4.4 0 0 0 3.516 30a4.4 4.4 0 0 0 4.394 4.395 4.4 4.4 0 0 0 4.306-3.516h5.212V29.12h-5.212a4.4 4.4 0 0 0-4.306-3.515m0 7.03A2.64 2.64 0 0 1 5.273 30a2.64 2.64 0 0 1 2.637-2.637A2.64 2.64 0 0 1 10.547 30a2.64 2.64 0 0 1-2.637 2.637M7.031 14.063a7 7 0 0 0 4.308-1.48l8.836 8.835 1.243-1.243-8.836-8.836a7 7 0 0 0 1.48-4.308A7.04 7.04 0 0 0 7.033 0 7.04 7.04 0 0 0 0 7.031a7.04 7.04 0 0 0 7.031 7.032m0-12.305a5.28 5.28 0 0 1 5.274 5.273 5.28 5.28 0 0 1-5.274 5.274A5.28 5.28 0 0 1 1.758 7.03 5.28 5.28 0 0 1 7.03 1.758M39.825 21.418l8.836-8.836a7 7 0 0 0 4.308 1.48A7.04 7.04 0 0 0 60 7.033 7.04 7.04 0 0 0 52.97 0a7.04 7.04 0 0 0-7.031 7.031c0 1.623.554 3.117 1.48 4.308l-8.836 8.836zm13.144-19.66a5.28 5.28 0 0 1 5.273 5.273 5.28 5.28 0 0 1-5.273 5.274 5.28 5.28 0 0 1-5.273-5.274 5.28 5.28 0 0 1 5.273-5.273M20.175 38.582l-8.836 8.836a7 7 0 0 0-4.308-1.48A7.04 7.04 0 0 0 0 52.969 7.04 7.04 0 0 0 7.031 60a7.04 7.04 0 0 0 7.032-7.031 7 7 0 0 0-1.48-4.308l8.835-8.836zM7.031 58.242a5.28 5.28 0 0 1-5.273-5.273 5.28 5.28 0 0 1 5.273-5.273 5.28 5.28 0 0 1 5.274 5.273 5.28 5.28 0 0 1-5.274 5.273M42.658 43.908l1.243-1.243 1.243 1.243-1.243 1.243zM38.574 39.822l1.243-1.242 2.843 2.842-1.243 1.243z"/></g><defs><clipPath id="a"><path fill="#fff" d="M0 0h60v60H0z"/></clipPath></defs></svg>