<svg xmlns="http://www.w3.org/2000/svg" width="60" height="60" fill="none"><path fill="#000" d="M30.938 1.875H4.688a2.813 2.813 0 0 0-2.813 2.813v24.375a2.81 2.81 0 0 0 2.813 2.812h26.25a2.81 2.81 0 0 0 2.812-2.812V4.688a2.81 2.81 0 0 0-2.812-2.813M4.688 3.75h26.25a.937.937 0 0 1 .937.938v2.736H3.75V4.687a.937.937 0 0 1 .938-.937M30.938 30H4.688a.94.94 0 0 1-.938-.937V9.299h28.125v19.764a.94.94 0 0 1-.937.937"/><path fill="#000" d="M5.625 4.688H7.5v1.875H5.625zM9.375 4.688h1.875v1.875H9.375zM13.125 4.688H15v1.875h-1.875zM11.25 24.375h1.875v1.875H11.25zM15 24.375h11.25v1.875H15zM11.25 20.625h1.875V22.5H11.25zM15 20.625h11.25V22.5H15zM52.064 29.497a.94.94 0 0 0-1.326 0l-1.05 1.051v-8.986a2.81 2.81 0 0 0-2.813-2.812h-8.05l1.051-1.052a.94.94 0 0 0 .012-1.338.937.937 0 0 0-1.337.012L35.9 19.024a.937.937 0 0 0 0 1.326l2.65 2.652a.937.937 0 1 0 1.326-1.325l-1.05-1.052h8.049a.94.94 0 0 1 .937.937v8.986l-1.05-1.05a.938.938 0 1 0-1.326 1.325l2.651 2.652a.94.94 0 0 0 1.326 0l2.65-2.652a.94.94 0 0 0 0-1.326M24.1 46.212l-2.652-2.652a.937.937 0 0 0-1.326 1.325l1.052 1.052h-8.05a.94.94 0 0 1-.937-.937v-8.05l1.052 1.052a.938.938 0 1 0 1.326-1.325l-2.652-2.652a.937.937 0 0 0-1.326 0l-2.652 2.652a.937.937 0 1 0 1.325 1.325l1.052-1.052V45a2.813 2.813 0 0 0 2.813 2.812h8.049l-1.052 1.052a.937.937 0 1 0 1.326 1.326l2.652-2.652a.94.94 0 0 0 0-1.326M15 17.813a.94.94 0 0 1-.52-.158l-2.813-1.875a.937.937 0 0 1 0-1.56l2.813-1.875a.938.938 0 0 1 1.04 1.56L13.875 15l1.643 1.095a.937.937 0 0 1-.518 1.718M22.5 17.813a.937.937 0 0 1-.522-1.718L23.624 15l-1.642-1.095a.938.938 0 1 1 1.04-1.56l2.813 1.875a.937.937 0 0 1 0 1.56l-2.813 1.875a.94.94 0 0 1-.523.158M17.813 18.75a.94.94 0 0 1-.89-1.235l1.875-5.625a.939.939 0 0 1 1.781.593l-1.875 5.625a.94.94 0 0 1-.891.641M45 45h1.875a.938.938 0 0 0 0-1.875H45A.938.938 0 0 0 45 45M31.875 45h1.875a.938.938 0 0 0 0-1.875h-1.875a.938.938 0 0 0 0 1.875"/><path fill="#000" d="M57.188 41.25h-1.876v-1.875a.94.94 0 0 0-.937-.937H52.5v-1.876a.94.94 0 0 0-.937-.937H27.187a.94.94 0 0 0-.937.938v15a.94.94 0 0 0 .938.937h1.875v1.875a.94.94 0 0 0 .937.938h1.875v1.874a.94.94 0 0 0 .938.938h24.374a.94.94 0 0 0 .938-.937v-15a.94.94 0 0 0-.937-.938M28.125 37.5h22.5v13.125h-22.5zm2.813 15h20.625a.94.94 0 0 0 .937-.937v-11.25h.938v13.124h-22.5zm25.312 3.75h-22.5v-.937h20.625a.94.94 0 0 0 .938-.938v-11.25h.937z"/><path fill="#000" d="M37.5 45.938a.938.938 0 0 0 0 1.874h.938v.938a.938.938 0 0 0 1.874 0v-.937a1.875 1.875 0 0 0 1.876-1.876V45a1.875 1.875 0 0 0-1.876-1.875h-1.874v-.937h2.812a.938.938 0 0 0 0-1.876h-.937v-.937a.938.938 0 0 0-1.876 0v.938a1.875 1.875 0 0 0-1.874 1.874v.938A1.875 1.875 0 0 0 38.437 45h1.876v.938zM8.438 26.25a.94.94 0 0 1-.938-.937v-11.25a.937.937 0 0 1 1.875 0v11.25a.937.937 0 0 1-.937.937"/></svg>