<svg xmlns="http://www.w3.org/2000/svg" width="60" height="60" fill="none"><g fill="#000" clip-path="url(#a)"><path d="M.5 35.636A2.029 2.029 0 0 0 2.03 39H5v17a4 4 0 0 0 4 4h42a4 4 0 0 0 4-4V39h2.968a2.029 2.029 0 0 0 1.531-3.364l-5.2-5.943A2.03 2.03 0 0 0 52.77 29H52V4a4 4 0 0 0-4-4H12a4 4 0 0 0-4 4v25h-.77a2.03 2.03 0 0 0-1.527.693zM7 56V39h14.9a3.43 3.43 0 0 0 2.582-1.172L29 32.662V58H9a2 2 0 0 1-2-2m46 0a2 2 0 0 1-2 2H31V32.662l4.52 5.167A3.43 3.43 0 0 0 38.1 39H53zm-.21-24.99L57.968 37H38.1a1.44 1.44 0 0 1-1.078-.488L32.2 31zM12 2h36a2 2 0 0 1 2 2v4H10V4a2 2 0 0 1 2-2m-2 8h40v19H10zm17.8 21-4.822 5.511A1.44 1.44 0 0 1 21.9 37l-19.89-.048L7.23 31z"/><path d="M13 6h1a1 1 0 1 0 0-2h-1a1 1 0 1 0 0 2M18 6h1a1 1 0 1 0 0-2h-1a1 1 0 1 0 0 2M23 6h1a1 1 0 1 0 0-2h-1a1 1 0 1 0 0 2M31 6h12a1 1 0 1 0 0-2H31a1 1 0 1 0 0 2M24.8 16.4a1 1 0 0 0-1.4-.2l-4 3a1 1 0 0 0 0 1.6l4 3a1 1 0 0 0 1.2-1.6L21.667 20l2.933-2.2a1 1 0 0 0 .2-1.4M35.2 23.6a1 1 0 0 0 1.4.2l4-3a1 1 0 0 0 0-1.6l-4-3a1 1 0 1 0-1.2 1.6l2.933 2.2-2.933 2.2a1 1 0 0 0-.2 1.4M31.242 15.03a1 1 0 0 0-1.212.728l-2 8a1 1 0 0 0 1.939.484l2-8a1 1 0 0 0-.727-1.212"/></g><defs><clipPath id="a"><path fill="#fff" d="M0 0h60v60H0z"/></clipPath></defs></svg>