<svg xmlns="http://www.w3.org/2000/svg" width="60" height="60" fill="none"><path fill="#000" d="M33.926 13.019a.705.705 0 0 1 .783-.614l5.404.654a.7.7 0 0 1 .613.781l-.654 5.405a.704.704 0 0 1-1.397-.169l.453-3.738c-8.993 7.364-18.36 12.371-28.603 15.294a.705.705 0 0 1-.87-.483.704.704 0 0 1 .483-.87c10.056-2.87 19.259-7.79 28.1-15.031l-3.7-.448a.7.7 0 0 1-.612-.781M4.787 52.079V41.806c0-.388.315-.703.703-.703h7.967c.387 0 .703.315.703.703V52.08a.704.704 0 0 1-.703.703H5.49a.703.703 0 0 1-.703-.703m1.406-.702h6.56v-8.87h-6.56zm20.352-15.075c.388 0 .703.315.703.703V52.08a.704.704 0 0 1-.703.703H18.58a.704.704 0 0 1-.703-.703V37.005c0-.388.315-.703.703-.703zm-.703 1.406h-6.56v13.669h6.56zm13.792-8.193c.388 0 .703.316.703.703v21.863a.704.704 0 0 1-.703.703h-7.966a.704.704 0 0 1-.703-.703V30.218c0-.387.315-.703.703-.703zm-.703 1.407h-6.56v20.456h6.56zm13.793-11.83c.388 0 .703.316.703.704V52.08a.704.704 0 0 1-.703.703h-7.967a.704.704 0 0 1-.703-.703V19.796c0-.388.316-.703.703-.703zM52.02 20.5h-6.56v30.879h6.56zm5.522-3.359h-.004c-.387 0-.7.313-.703.7l-.18 37.335-54.193-.21h-.002a.703.703 0 0 0-.002 1.406l54.895.212h.002c.387 0 .701-.313.703-.7l.183-38.036a.704.704 0 0 0-.7-.707M42.466 8.874a.703.703 0 0 1 .4-1.233l3.762-.316 1.462-3.48a.703.703 0 0 1 1.296 0l1.463 3.48 3.762.316a.701.701 0 0 1 .4 1.233l-2.859 2.467.862 3.675a.703.703 0 0 1-1.048.761l-3.23-1.955-3.23 1.955a.702.702 0 0 1-1.047-.761l.862-3.675zm2.186.03 1.914 1.652a.7.7 0 0 1 .225.692l-.578 2.462 2.163-1.31a.7.7 0 0 1 .73 0l2.162 1.31-.577-2.462a.7.7 0 0 1 .225-.692l1.913-1.653-2.52-.212a.7.7 0 0 1-.589-.428l-.98-2.33-.98 2.33a.7.7 0 0 1-.588.428zm-36.086 9.29a.703.703 0 0 1 .4-1.233l2.636-.22 1.024-2.438a.703.703 0 0 1 1.296 0l1.024 2.438 2.635.221a.701.701 0 0 1 .4 1.233L15.98 19.92l.603 2.573a.703.703 0 0 1-1.047.762l-2.262-1.37-2.262 1.37a.703.703 0 0 1-1.049-.762l.604-2.573zm2.185.029 1.057.913a.7.7 0 0 1 .225.692l-.319 1.36 1.195-.723a.7.7 0 0 1 .73 0l1.195.723-.32-1.36a.7.7 0 0 1 .226-.692l1.057-.913-1.392-.117a.7.7 0 0 1-.59-.428l-.541-1.288-.542 1.288a.7.7 0 0 1-.589.428zm8.693-4.175a.703.703 0 0 1 .4-1.233l2.954-.249 1.148-2.732a.703.703 0 0 1 1.296 0l1.149 2.732 2.954.249a.702.702 0 0 1 .4 1.233L27.5 15.985l.678 2.886a.703.703 0 0 1-1.05.762l-2.535-1.535-2.536 1.535a.702.702 0 0 1-1.048-.762l.678-2.886zm2.184.028 1.3 1.122a.7.7 0 0 1 .225.693l-.393 1.672 1.47-.89a.7.7 0 0 1 .729 0l1.47.89-.393-1.672a.7.7 0 0 1 .225-.693l1.3-1.122-1.712-.144a.7.7 0 0 1-.59-.428l-.665-1.583-.666 1.583a.7.7 0 0 1-.589.428z"/></svg>