<svg xmlns="http://www.w3.org/2000/svg" width="60" height="60" fill="none"><path fill="#000" d="M33.047 13.125h21.328V11.25h-22.06a16 16 0 0 0-2.372-3.75h20.682V5.625H28.059a15.938 15.938 0 1 0-14.85 27.431l3.75 9.478a.937.937 0 0 0 1.744 0l3.75-9.478A15.85 15.85 0 0 0 28.078 30h22.547v-1.875H29.934a16 16 0 0 0 2.381-3.75h22.06V22.5H33.028c.393-1.216.636-2.475.722-3.75h24.375v-1.875H33.75a16 16 0 0 0-.703-3.75M21.468 31.378a.94.94 0 0 0-.628.563l-3.028 7.687-3.028-7.687a.94.94 0 0 0-.628-.563 14.063 14.063 0 1 1 7.312 0"/><path fill="#000" d="M17.813 5.625a12.187 12.187 0 1 0 0 24.375 12.187 12.187 0 0 0 0-24.375m.937 22.5V26.25h-1.875v1.875a10.31 10.31 0 0 1-9.328-9.375h1.828v-1.875H7.547a10.31 10.31 0 0 1 9.328-9.328v1.828h1.875V7.547a10.31 10.31 0 0 1 9.375 9.328H26.25v1.875h1.875a10.31 10.31 0 0 1-9.375 9.375M53.438 41.25H24.375v1.875h29.063a2.812 2.812 0 1 1 0 5.625H6.563a4.688 4.688 0 0 0 0 9.375h43.125V56.25H6.563a2.812 2.812 0 1 1 0-5.625h46.875a4.688 4.688 0 0 0 0-9.375"/><path fill="#000" d="M20.625 41.25H22.5v1.875h-1.875zM16.875 18.366l-4.416 4.406 1.331 1.331 4.688-4.687a.94.94 0 0 0 .272-.666v-6.562h-1.875zM51.563 56.25h1.874v1.875h-1.874zM55.313 56.25h1.874v1.875h-1.874z"/></svg>