<svg xmlns="http://www.w3.org/2000/svg" width="60" height="60" fill="none"><g fill="#000" clip-path="url(#a)"><path d="M28.988 22.878a.888.888 0 0 0 1.338-.152l5.85-8.828a.88.88 0 0 0-1.466-.971l-5.271 7.955-2.93-2.781a.88.88 0 0 0-1.21 1.275z"/><path d="M29.586 36.283c.168.077.354.118.539.118h.007c.188-.001.377-.044.545-.125 13.365-6.356 15.63-20.07 16.006-24.121a2.1 2.1 0 0 0-1.296-2.144 7.68 7.68 0 0 1-4.72-6.446 1.736 1.736 0 0 0-1.723-1.573h-.01l-18.006.106a1.72 1.72 0 0 0-1.715 1.604 7.68 7.68 0 0 1-4.65 6.493 2.09 2.09 0 0 0-1.264 2.156c.423 4.047 2.849 17.733 16.287 23.932M15.254 11.811a9.43 9.43 0 0 0 5.71-7.956l17.954-.105a9.43 9.43 0 0 0 5.795 7.884c.145.061.234.205.22.359-.353 3.797-2.462 16.6-14.811 22.6-12.42-5.854-14.678-18.632-15.075-22.425a.35.35 0 0 1 .207-.357"/><path d="M17.45 16.684c.105.391.601.749 1.078.617a.88.88 0 0 0 .618-1.078 29 29 0 0 1-.56-2.49 12.36 12.36 0 0 0 5.029-6.59l12.693-.075a12.36 12.36 0 0 0 5.106 6.531c-.138.831-.317 1.67-.531 2.498a.88.88 0 0 0 1.702.441c.251-.972.456-1.96.608-2.933a1.34 1.34 0 0 0-.633-1.364 10.6 10.6 0 0 1-4.665-5.979 1.36 1.36 0 0 0-1.292-.953h-.008l-13.289.077a1.36 1.36 0 0 0-1.288.97 10.6 10.6 0 0 1-4.594 6.033 1.34 1.34 0 0 0-.618 1.37c.164.973.38 1.956.643 2.925M40.807 19.29a.88.88 0 0 0-1.148.477c-2.03 4.922-5.246 8.665-9.56 11.128-4.346-2.415-7.608-6.126-9.696-11.034a.88.88 0 0 0-1.618.689c2.28 5.355 5.87 9.392 10.673 11.998a1.35 1.35 0 0 0 1.303-.008c4.767-2.659 8.307-6.73 10.523-12.103a.88.88 0 0 0-.477-1.147M5.639 46.965a3.113 3.113 0 0 0-3.11 3.11 3.113 3.113 0 0 0 3.11 3.109 3.113 3.113 0 0 0 3.11-3.11 3.113 3.113 0 0 0-3.11-3.11m0 4.461a1.353 1.353 0 0 1-1.352-1.352c0-.745.607-1.351 1.352-1.351s1.352.606 1.352 1.351c0 .746-.606 1.352-1.352 1.352"/><path d="M59.37 38.36a3.66 3.66 0 0 0-5.056-.978l-11.49 7.69-2.453-.137-.063-.628a5.334 5.334 0 0 0-4.617-4.771L23.31 38.45c-.42-.066-1.76-.45-5.444-2.564a13.7 13.7 0 0 0-6.264-1.802v-2.3a2.094 2.094 0 0 0-2.092-2.092H2.092A2.095 2.095 0 0 0 0 31.786v22.646c0 1.153.939 2.092 2.092 2.092H9.51a2.095 2.095 0 0 0 2.092-2.092v-.624l10.822 4.098c.024.01.903.338 2.52.186l17.981-2.593.014-.002a8.84 8.84 0 0 0 4.19-1.877l.032-.028 11.614-10.445a3.66 3.66 0 0 0 .595-4.787m-1.766 3.476L46.002 52.271a7.1 7.1 0 0 1-3.334 1.49l-17.97 2.59-.015.002-.009.001a3.95 3.95 0 0 1-1.664-.106l-11.408-4.32V41.891a.879.879 0 1 0-1.758 0v12.54c0 .185-.15.336-.334.336H2.092a.335.335 0 0 1-.334-.335V31.786c0-.185.15-.335.334-.335H9.51c.184 0 .334.15.334.335v6.135a.879.879 0 1 0 1.758 0v-2.076c1.886.083 3.74.621 5.39 1.568 4.443 2.548 5.684 2.724 6.092 2.782l.046.005 12.382 1.085a3.58 3.58 0 0 1 3.047 3.196l.047.468-16.577 1.023-.033-.002a2 2 0 0 1-1.367-.716.878.878 0 1 0-1.35 1.126c.645.773 1.555 1.236 2.56 1.34.543.057 17.734-1.07 17.734-1.07l3.446.194c.19.01.38-.041.538-.148l11.736-7.854a1.9 1.9 0 0 1 2.623.507 1.9 1.9 0 0 1-.312 2.487"/></g><defs><clipPath id="a"><path fill="#fff" d="M0 0h60v60H0z"/></clipPath></defs></svg>