<svg xmlns="http://www.w3.org/2000/svg" width="60" height="60" fill="none"><path fill="#000" d="M55.02 2.73H4.98A4.986 4.986 0 0 0 0 7.71v42.76a4.986 4.986 0 0 0 4.98 4.98h5.833c1.293.51 2.791.93 4.465 1.242q.083.015.162.015a.88.88 0 0 0 .16-1.743c-4.935-.92-8.382-2.952-8.382-4.943v-3.919c.83.73 1.945 1.39 3.318 1.956 3.025 1.246 7.03 1.932 11.274 1.932s8.248-.686 11.274-1.932c1.372-.565 2.486-1.226 3.317-1.956v3.919c0 2.597-5.992 5.491-14.591 5.491-.77 0-1.54-.024-2.294-.07a.88.88 0 0 0-.11 1.754c.79.049 1.598.074 2.404.074 4.115 0 8.005-.645 10.995-1.82H55.02A4.986 4.986 0 0 0 60 50.47V7.71a4.986 4.986 0 0 0-4.98-4.98M4.98 4.488h50.04a3.226 3.226 0 0 1 3.222 3.223v5.94H1.758V7.71A3.226 3.226 0 0 1 4.98 4.488m2.238 27.054c.83.73 1.945 1.39 3.318 1.955 3.025 1.246 7.03 1.932 11.274 1.932s8.248-.686 11.274-1.932c1.372-.565 2.487-1.225 3.317-1.955v3.919c0 2.597-5.992 5.49-14.591 5.49s-14.592-2.893-14.592-5.49zm14.592 2.13c-8.6 0-14.592-2.894-14.592-5.492S13.21 22.69 21.81 22.69 36.4 25.583 36.4 28.18c0 2.598-5.992 5.492-14.591 5.492m0 14.56c-8.6 0-14.592-2.894-14.592-5.491v-3.919c.83.73 1.945 1.39 3.318 1.956 3.025 1.245 7.03 1.932 11.274 1.932s8.248-.687 11.274-1.932c1.372-.566 2.486-1.226 3.317-1.956v3.919c0 2.597-5.992 5.491-14.591 5.491m36.432 2.238a3.226 3.226 0 0 1-3.222 3.222H36.027c1.392-1.083 2.132-2.337 2.132-3.67V28.18c0-2.08-1.802-3.97-5.075-5.317-3.026-1.246-7.03-1.932-11.274-1.932-4.245 0-8.249.686-11.274 1.932C7.263 24.211 5.46 26.1 5.46 28.18v21.841c0 1.34.758 2.594 2.141 3.671h-2.62a3.226 3.226 0 0 1-3.223-3.222V15.409h56.484z"/><path fill="#000" d="M53.66 11.769a2.7 2.7 0 0 0 2.699-2.699 2.7 2.7 0 0 0-2.7-2.699 2.7 2.7 0 0 0-2.698 2.699 2.7 2.7 0 0 0 2.699 2.699m0-3.64a.942.942 0 0 1 0 1.882.942.942 0 0 1 0-1.882M46.38 11.769a2.7 2.7 0 0 0 2.7-2.699 2.7 2.7 0 0 0-2.7-2.699 2.7 2.7 0 0 0-2.698 2.699 2.7 2.7 0 0 0 2.699 2.699m0-3.64a.942.942 0 0 1 0 1.882.942.942 0 0 1 0-1.882M39.101 11.769a2.7 2.7 0 0 0 2.7-2.699 2.7 2.7 0 0 0-2.7-2.699 2.7 2.7 0 0 0-2.699 2.699 2.7 2.7 0 0 0 2.7 2.699m0-3.64a.942.942 0 0 1 0 1.882.942.942 0 0 1 0-1.882M5.398 11.77h12.803a1.76 1.76 0 0 0 1.758-1.759V8.13a1.76 1.76 0 0 0-1.758-1.758h-5.03a.879.879 0 0 0 0 1.758h5.03v1.882H5.398V8.13H9.07a.879.879 0 0 0 0-1.758H5.398A1.76 1.76 0 0 0 3.641 8.13v1.882c0 .97.788 1.758 1.757 1.758M9.593 36.716c1.554.758 3.52 1.373 5.685 1.776q.081.015.162.015a.88.88 0 0 0 .16-1.743c-2.012-.375-3.822-.938-5.236-1.628a.879.879 0 1 0-.77 1.58M15.6 44.043c-2.012-.375-3.822-.937-5.236-1.628a.879.879 0 0 0-.77 1.58c1.553.759 3.519 1.373 5.684 1.776q.081.015.162.015a.88.88 0 0 0 .16-1.743M10.364 49.695a.879.879 0 1 0-.77 1.58c1.553.758 3.519 1.372 5.684 1.775q.081.015.162.015a.88.88 0 0 0 .16-1.743c-2.012-.374-3.822-.937-5.236-1.627M33.64 36.805a.879.879 0 1 0 0-1.758.879.879 0 0 0 0 1.758M30 38.106a.879.879 0 1 0 0-1.758.879.879 0 0 0 0 1.758M33.64 44.084a.879.879 0 1 0 0-1.758.879.879 0 0 0 0 1.758M30 45.385a.879.879 0 1 0 0-1.758.879.879 0 0 0 0 1.758M33.64 51.365a.879.879 0 1 0 0-1.758.879.879 0 0 0 0 1.758M30 52.664a.879.879 0 1 0 0-1.758.879.879 0 0 0 0 1.758M47.29 31.79c3.997 0 7.25-3.253 7.25-7.25a7.2 7.2 0 0 0-.784-3.281.879.879 0 0 0-1.567.796 5.498 5.498 0 0 1-4.899 7.976 5.5 5.5 0 0 1-5.491-5.49 5.498 5.498 0 0 1 7.92-4.927.879.879 0 0 0 .78-1.576 7.2 7.2 0 0 0-3.209-.747c-3.997 0-7.249 3.252-7.249 7.25 0 3.996 3.252 7.248 7.25 7.248"/><path fill="#000" d="M47.291 20.932a.88.88 0 0 0-.879.879v2.73c0 .485.394.879.879.879h2.124a.879.879 0 0 0 0-1.758H48.17V21.81a.88.88 0 0 0-.879-.88"/></svg>