<svg xmlns="http://www.w3.org/2000/svg" width="60" height="60" fill="none"><path stroke="#000" stroke-linecap="round" stroke-linejoin="round" stroke-miterlimit="10" stroke-width="2" d="M54.375 50.625a3.76 3.76 0 0 1-3.75 3.75h-26.25a3.76 3.76 0 0 1-3.75-3.75v-18.75a3.76 3.76 0 0 1 3.75-3.75h26.25a3.76 3.76 0 0 1 3.75 3.75z"/><path stroke="#000" stroke-linecap="round" stroke-linejoin="round" stroke-miterlimit="10" stroke-width="2" d="M18.75 54.375h-1.875a3.76 3.76 0 0 1-3.75-3.75V11.25a3.76 3.76 0 0 1 3.75-3.75h26.25a3.76 3.76 0 0 1 3.75 3.75v14.063M11.25 54.375H9.375a3.76 3.76 0 0 1-3.75-3.75v-26.25a3.76 3.76 0 0 1 3.75-3.75h.938M39.375 33.75h9.375v5.625h-9.375z"/><path stroke="#000" stroke-linecap="round" stroke-linejoin="round" stroke-miterlimit="10" stroke-width="2" d="M19.688 13.125h9.375v5.625h-9.375zM37.5 45H26.25M41.25 22.5h-22.5M37.5 48.75H26.25M32.813 18.75h8.437"/></svg>