<svg xmlns="http://www.w3.org/2000/svg" width="512" height="512" fill="none"><path fill="#282928" d="m464.058 403.394-14.197-2.56c-2.094-.31-3.956-1.784-4.654-3.801a48 48 0 0 0-1.241-2.948c-.931-1.939-.621-4.267.62-5.973l8.301-11.87c1.784-2.482 1.474-5.895-.698-7.99l-14.352-14.351c-2.172-2.172-5.508-2.405-8.068-.699l-11.791 8.224c-1.784 1.241-4.034 1.551-5.973.698-1.009-.466-2.017-.854-3.026-1.242-1.939-.775-3.413-2.637-3.801-4.732l-2.56-14.196c-.543-3.025-3.103-5.12-6.206-5.12h-20.247c-3.026 0-5.586 2.172-6.207 5.12l-2.56 14.196c-.31 2.095-1.784 3.957-3.801 4.732-1.008.388-2.017.776-3.025 1.242-1.94.853-4.189.543-5.974-.621l-11.869-8.301c-2.482-1.706-5.895-1.396-7.99.699l-14.351 14.351c-2.173 2.172-2.405 5.508-.699 7.99l8.301 11.87c1.164 1.706 1.474 4.034.621 5.973a35 35 0 0 0-1.242 3.025c-.775 2.017-2.56 3.414-4.732 3.802l-14.119 2.482c-3.025.543-5.12 3.103-5.12 6.128v20.248c0 3.025 2.173 5.663 5.12 6.206l14.197 2.56c2.094.388 3.956 1.784 4.732 3.801.388 1.009.776 2.095 1.241 3.025.853 1.94.543 4.267-.62 5.974l-8.301 11.791c-1.784 2.483-1.474 5.896.698 8.068l14.352 14.352c2.172 2.172 5.507 2.405 7.99.698l11.869-8.301c1.784-1.241 4.034-1.551 5.973-.62 1.009.465 1.94.775 2.948 1.163 2.017.776 3.414 2.638 3.801 4.732l2.56 14.197c.543 3.025 3.103 5.197 6.207 5.197h20.324a6.315 6.315 0 0 0 6.206-5.197l2.56-14.197c.388-2.094 1.785-3.956 3.802-4.732 1.008-.388 2.017-.775 2.948-1.163 1.939-.931 4.266-.621 5.973.62l11.791 8.301c2.56 1.784 5.896 1.474 8.068-.698l14.352-14.352c2.172-2.172 2.405-5.508.698-7.99l-8.301-11.792c-1.241-1.784-1.551-4.034-.62-5.973a35 35 0 0 0 1.241-3.025c.698-2.017 2.56-3.414 4.654-3.802l14.197-2.56c3.025-.543 5.197-3.103 5.197-6.206V409.6c0-3.103-2.249-5.663-5.197-6.206m-77.809 49.804c-18.463 0-33.435-14.972-33.435-33.513 0-18.463 14.972-33.435 33.435-33.435 18.541 0 33.513 14.972 33.513 33.435s-14.972 33.513-33.513 33.513M291.065 319.69l26.608-6.284v-31.961l-26.608-6.284c-2.405-10.162-6.362-19.626-11.714-28.237l14.351-23.273-22.574-22.575-23.273 14.43c-8.611-5.353-18.075-9.31-28.238-11.714l-6.283-26.609h-31.961l-6.284 26.609c-10.162 2.404-19.627 6.361-28.238 11.714l-23.272-14.43-22.575 22.575 14.352 23.273c-5.353 8.611-9.309 18.075-11.714 28.237l-26.609 6.284v31.961l26.609 6.284c2.405 10.162 6.361 19.626 11.714 28.237L101.004 371.2l22.575 22.575 23.272-14.352c8.611 5.353 18.076 9.309 28.238 11.714l6.284 26.609h31.961l6.283-26.609c10.163-2.405 19.627-6.361 28.238-11.714l23.273 14.352 22.574-22.575-14.351-23.273c5.352-8.611 9.309-18.152 11.714-28.237m-93.634 26.531c-26.997 0-48.795-21.877-48.795-48.795s21.876-48.796 48.795-48.796c26.996 0 48.795 21.877 48.795 48.796 0 26.918-21.799 48.795-48.795 48.795"/><path fill="#282928" d="M423.563 144.601c-1.008 0-1.939 0-2.948.078 0-.854.078-1.629.078-2.483 0-41.425-33.59-75.093-75.093-75.093-18.851 0-35.996 6.904-49.183 18.386-13.033-43.986-53.683-76.18-101.935-76.18-58.725 0-106.279 47.554-106.279 106.279v1.164c-42.511 6.981-75.015 43.83-75.015 88.358 0 34.599 19.626 64.543 48.33 79.438v-15.515l29.71-6.982c1.707-5.043 3.724-10.007 6.13-14.817l-16.059-25.988 39.952-39.951 26.143 16.213a112 112 0 0 1 14.817-6.129l6.981-29.711h56.553l6.982 29.711c5.042 1.707 10.007 3.724 14.817 6.129l25.988-16.058 39.951 39.951-16.058 25.988a112.4 112.4 0 0 1 6.129 14.817l29.711 6.982v25.6h90.298c41.426 0 75.094-33.59 75.094-75.093s-33.591-75.094-75.094-75.094M194.56 48.175c-37.237 0-67.491 30.099-67.491 67.025 0 4.267-3.491 7.758-7.758 7.758s-7.757-3.491-7.757-7.758c0-45.537 37.236-82.54 83.006-82.54 4.266 0 7.757 3.49 7.757 7.757a7.73 7.73 0 0 1-7.757 7.758"/></svg>