<svg xmlns="http://www.w3.org/2000/svg" width="72" height="72"><path fill="none" d="M0 0h72v72H0z"/><path d="m52.644 19.165 1.441-1.441a1.192 1.192 0 1 0-1.686-1.686l-3.448 3.449a1.19 1.19 0 0 0 0 1.686l3.449 3.451a1.2 1.2 0 0 0 .843.349 1.2 1.2 0 0 0 .843-2.035l-1.382-1.382a14.907 14.907 0 0 1 14.291 14.868c-.821 19.772-28.988 19.76-29.8 0a17.305 17.305 0 0 0-17.284-17.287c-22.584.883-23.082 32.961-.551 34.543l-1.449 1.444a1.192 1.192 0 1 0 1.686 1.686l3.448-3.448a1.19 1.19 0 0 0 0-1.686l-3.444-3.452a1.194 1.194 0 1 0-1.69 1.687l1.383 1.382C-.017 49.778.511 22.275 19.911 21.524a14.92 14.92 0 0 1 14.9 14.9 17.305 17.305 0 0 0 17.283 17.284c22.583-.883 23.082-32.961.551-34.543Z"/><path d="M29.448 33.621h-.738a9.3 9.3 0 0 0-1.965-3.407l.375-.651a2 2 0 0 0-.733-2.723l-1.4-.811a2 2 0 0 0-2.726.729l-.373.643a9.3 9.3 0 0 0-3.934 0c-.344-.655-.8-1.416-1.584-1.576-.979-.369-2.117.593-2.921 1.01a2 2 0 0 0-.739 2.726l.373.645a9.25 9.25 0 0 0-1.971 3.4h-.746a2 2 0 0 0-2 2v1.62a2 2 0 0 0 2 2h.744a9.3 9.3 0 0 0 1.965 3.406l-.375.651a2 2 0 0 0 .733 2.723l1.4.811a2 2 0 0 0 2.726-.729l.371-.643a9.3 9.3 0 0 0 3.935 0l.374.647a2 2 0 0 0 2.726.729c.758-.5 2.166-.986 2.336-2.025a2.63 2.63 0 0 0-.573-2.159 9.25 9.25 0 0 0 1.971-3.4h.746a2 2 0 0 0 2-2v-1.616a2 2 0 0 0-1.997-2m-.388 3.228c-.891.012-2.212-.225-2.445.955a6.84 6.84 0 0 1-2.165 3.738c-.91.78-.035 1.832.394 2.6l-.734.424c-.386-.609-.782-1.768-1.671-1.7a7.8 7.8 0 0 1-4.7.058c-1.129-.4-1.6.884-2.052 1.636l-.733-.424c.432-.766 1.3-1.821.4-2.6a6.85 6.85 0 0 1-2.161-3.743c-.224-1.175-1.564-.944-2.44-.955v-.845c.891-.012 2.212.224 2.445-.955a6.84 6.84 0 0 1 2.165-3.738c.91-.781.034-1.833-.395-2.6l.735-.424.638 1.107a1.19 1.19 0 0 0 1.41.534 6.86 6.86 0 0 1 4.321 0c1.127.4 1.6-.885 2.05-1.637l.733.424c-.431.765-1.3 1.821-.4 2.595a6.8 6.8 0 0 1 2.161 3.745 1.19 1.19 0 0 0 1.168.955h1.272Z"/><path d="M19.906 31.208a5.216 5.216 0 1 0 5.216 5.216 5.215 5.215 0 0 0-5.216-5.216m0 8.047a2.831 2.831 0 1 1 2.831-2.831 2.83 2.83 0 0 1-2.831 2.831M44.649 41.392a1.192 1.192 0 1 0 1.686-1.686l-3.285-3.283 3.284-3.284a1.192 1.192 0 1 0-1.686-1.686l-4.127 4.127a1.19 1.19 0 0 0 0 1.686ZM57.853 41.392a1.19 1.19 0 0 0 1.686 0l4.127-4.127a1.19 1.19 0 0 0 0-1.686l-4.127-4.126a1.192 1.192 0 0 0-1.686 1.686l3.284 3.284-3.284 3.284a1.19 1.19 0 0 0 0 1.686ZM51.702 42.901l3.094-12.38a1.192 1.192 0 1 0-2.312-.577l-3.094 12.38a1.192 1.192 0 0 0 2.312.577"/></svg>