<svg xmlns="http://www.w3.org/2000/svg" width="50" height="50"><defs><clipPath id="a"><path fill="#fff" d="M0 .245h50v29H0z"/></clipPath></defs><path fill="none" d="M0 0h50v50H0z"/><g clip-path="url(#a)" transform="translate(0 9.755)"><path fill="#262626" d="M14.383 10.737a5 5 0 0 0 .181 1.463 9 9 0 0 0 .526 1.184.7.7 0 0 1 .115.378.65.65 0 0 1-.312.493l-1.036.69a.8.8 0 0 1-.428.148.76.76 0 0 1-.493-.23 5 5 0 0 1-.592-.773 13 13 0 0 1-.51-.97 6.08 6.08 0 0 1-4.835 2.269 4.5 4.5 0 0 1-3.289-1.184 4.22 4.22 0 0 1-1.217-3.157 4.23 4.23 0 0 1 1.5-3.387A5.98 5.98 0 0 1 8.017 6.38a13 13 0 0 1 1.743.132c.608.082 1.233.214 1.891.362v-1.2a3.64 3.64 0 0 0-.773-2.631 3.79 3.79 0 0 0-2.68-.756 7.5 7.5 0 0 0-1.776.214 13 13 0 0 0-1.776.559 5 5 0 0 1-.576.214 1 1 0 0 1-.263.049c-.23 0-.345-.164-.345-.51v-.807a1.04 1.04 0 0 1 .115-.575 1.2 1.2 0 0 1 .46-.345 9.5 9.5 0 0 1 2.072-.74A10 10 0 0 1 8.677.033a6 6 0 0 1 4.308 1.332A5.44 5.44 0 0 1 14.35 5.41v5.327Zm-6.676 2.5a5.3 5.3 0 0 0 1.694-.3 3.66 3.66 0 0 0 1.562-1.052 2.6 2.6 0 0 0 .554-1.049 6 6 0 0 0 .164-1.431v-.69a14 14 0 0 0-1.513-.28 12 12 0 0 0-1.546-.1 3.8 3.8 0 0 0-2.45.658 2.3 2.3 0 0 0-.806 1.891 2.122 2.122 0 0 0 2.335 2.351Zm13.2 1.776a.92.92 0 0 1-.625-.164 1.34 1.34 0 0 1-.345-.641L16.077 1.5a3 3 0 0 1-.148-.658.36.36 0 0 1 .395-.411h1.612a.9.9 0 0 1 .641.164 1.35 1.35 0 0 1 .329.641l2.763 10.885 2.564-10.888a1.15 1.15 0 0 1 .312-.641 1.13 1.13 0 0 1 .658-.164h1.314a1 1 0 0 1 .658.164 1.1 1.1 0 0 1 .312.641l2.6 11.017 2.845-11.017a1.4 1.4 0 0 1 .329-.641 1.07 1.07 0 0 1 .641-.164h1.529a.366.366 0 0 1 .411.411 2 2 0 0 1-.033.263 2.3 2.3 0 0 1-.115.411l-3.963 12.71a1.26 1.26 0 0 1-.345.641 1.05 1.05 0 0 1-.625.164h-1.414a1 1 0 0 1-.658-.164 1.17 1.17 0 0 1-.312-.658L25.828 3.6l-2.532 10.59a1.3 1.3 0 0 1-.312.658 1.02 1.02 0 0 1-.658.164Zm21.131.444a11 11 0 0 1-2.532-.3 7.5 7.5 0 0 1-1.889-.657 1.2 1.2 0 0 1-.51-.46 1.2 1.2 0 0 1-.1-.46v-.839c0-.345.132-.51.378-.51a1 1 0 0 1 .3.049c.1.033.247.1.411.164a9 9 0 0 0 1.809.575 10 10 0 0 0 1.957.2 4.44 4.44 0 0 0 2.4-.543 1.77 1.77 0 0 0 .855-1.562 1.6 1.6 0 0 0-.444-1.151 4.1 4.1 0 0 0-1.656-.854l-2.384-.74a5 5 0 0 1-2.636-1.677 3.9 3.9 0 0 1-.822-2.384 3.66 3.66 0 0 1 .442-1.825 4.2 4.2 0 0 1 1.184-1.348A5.2 5.2 0 0 1 40.517.28 7.2 7.2 0 0 1 42.585 0a8 8 0 0 1 1.1.066c.378.049.724.115 1.069.181.329.082.641.164.937.263a3.6 3.6 0 0 1 .691.3 1.4 1.4 0 0 1 .493.411.9.9 0 0 1 .148.543v.773c0 .345-.132.526-.378.526a1.7 1.7 0 0 1-.625-.2 7.5 7.5 0 0 0-3.157-.641 4.25 4.25 0 0 0-2.187.46 1.59 1.59 0 0 0-.773 1.463 1.55 1.55 0 0 0 .493 1.167 4.9 4.9 0 0 0 1.809.9l2.335.74a5 5 0 0 1 2.549 1.578 3.72 3.72 0 0 1 .756 2.3 4.2 4.2 0 0 1-.428 1.907 4.4 4.4 0 0 1-1.2 1.447 5.3 5.3 0 0 1-1.825.921 7.8 7.8 0 0 1-2.35.351Z"/><path fill="#282928" fill-rule="evenodd" d="M45.15 23.448c-5.41 4-13.271 6.117-20.029 6.117A36.24 36.24 0 0 1 .668 20.242c-.51-.46-.049-1.085.559-.723a48.57 48.57 0 0 0 43.134 2.68c.904-.412 1.677.593.789 1.249"/><path fill="#282928" fill-rule="evenodd" d="M47.403 20.882c-.691-.888-4.572-.427-6.331-.214-.526.066-.608-.395-.132-.74 3.092-2.17 8.173-1.546 8.765-.822.592.74-.164 5.821-3.059 8.254-.444.378-.872.181-.674-.312.658-1.628 2.121-5.294 1.431-6.166"/></g></svg>