<svg xmlns="http://www.w3.org/2000/svg" width="66" height="66.003"><path d="M54.62 44.19a1 1 0 0 1 0-2 9.386 9.386 0 0 0 0-18.771 2 2 0 0 0-.271.033c-.14.022-.281.044-.428.054a.98.98 0 0 1-.813-.326 1 1 0 0 1-.244-.841 17.7 17.7 0 0 0 .275-3.04 17.287 17.287 0 0 0-34.107-4 1 1 0 0 1-1.19.745 12 12 0 0 0-2.632-.276 13.21 13.21 0 0 0 0 26.421 1 1 0 1 1 0 2 15.21 15.21 0 0 1 0-30.421 14.4 14.4 0 0 1 2.118.149 19.287 19.287 0 0 1 37.812 5.384 19 19 0 0 1-.124 2.127 11.385 11.385 0 0 1-.4 22.764ZM14.9 58.807a3.5 3.5 0 1 1 3.5-3.5 3.5 3.5 0 0 1-3.5 3.5m0-5a1.5 1.5 0 1 0 1.5 1.5 1.5 1.5 0 0 0-1.5-1.5"/><path d="M22.509 56.307H17.4a1 1 0 0 1 0-2h5.107a1.584 1.584 0 0 0 1.582-1.582v-4.418a1 1 0 0 1 2 0v4.418a3.586 3.586 0 0 1-3.58 3.582M51.106 58.807a3.5 3.5 0 1 1 3.5-3.5 3.5 3.5 0 0 1-3.5 3.5m0-5a1.5 1.5 0 1 0 1.5 1.5 1.5 1.5 0 0 0-1.5-1.5"/><path d="M48.606 56.307H43.5a3.586 3.586 0 0 1-3.583-3.582v-4.418a1 1 0 0 1 2 0v4.418a1.584 1.584 0 0 0 1.583 1.582h5.106a1 1 0 0 1 0 2"/><path d="M41.44 49.307H24.567a3 3 0 0 1-3-3V29.433a3 3 0 0 1 3-3H41.44a3 3 0 0 1 3 3v16.874a3 3 0 0 1-3 3M24.567 28.433a1 1 0 0 0-1 1v16.874a1 1 0 0 0 1 1H41.44a1 1 0 0 0 1-1V29.433a1 1 0 0 0-1-1Z"/><path d="M38.44 44.307H27.566a1 1 0 0 1-1-1V32.433a1 1 0 0 1 1-1H38.44a1 1 0 0 1 1 1v10.874a1 1 0 0 1-1 1m-9.874-2h8.874v-8.874h-8.874ZM25.091 28.433a1 1 0 0 1-1-1v-3.927a1 1 0 1 1 2 0v3.927a1 1 0 0 1-1 1M30.366 28.433a1 1 0 0 1-1-1v-3.927a1 1 0 0 1 2 0v3.927a1 1 0 0 1-1 1M35.642 28.433a1 1 0 0 1-1-1v-3.927a1 1 0 1 1 2 0v3.927a1 1 0 0 1-1 1M40.917 28.433a1 1 0 0 1-1-1v-3.927a1 1 0 1 1 2 0v3.927a1 1 0 0 1-1 1M47.368 30.957H43.44a1 1 0 1 1 0-2h3.928a1 1 0 0 1 0 2M47.368 36.233H43.44a1 1 0 1 1 0-2h3.928a1 1 0 0 1 0 2M47.368 41.508H43.44a1 1 0 0 1 0-2h3.928a1 1 0 0 1 0 2M47.368 46.784H43.44a1 1 0 1 1 0-2h3.928a1 1 0 0 1 0 2M22.567 30.957H18.64a1 1 0 0 1 0-2h3.928a1 1 0 0 1 0 2ZM22.567 36.233H18.64a1 1 0 0 1 0-2h3.928a1 1 0 0 1 0 2ZM22.567 41.508H18.64a1 1 0 0 1 0-2h3.928a1 1 0 1 1 0 2ZM22.567 46.784H18.64a1 1 0 0 1 0-2h3.928a1 1 0 0 1 0 2ZM4.948 66.001a3.5 3.5 0 1 1 3.5-3.5 3.5 3.5 0 0 1-3.5 3.5m0-5a1.5 1.5 0 1 0 1.5 1.5 1.5 1.5 0 0 0-1.5-1.5M61.06 66.001a3.5 3.5 0 1 1 3.5-3.5 3.5 3.5 0 0 1-3.5 3.5m0-5a1.5 1.5 0 1 0 1.5 1.5 1.5 1.5 0 0 0-1.5-1.5"/><path d="M27.784 63.501H7.448a1 1 0 0 1 0-2h20.336a1.584 1.584 0 0 0 1.582-1.582V48.307a1 1 0 1 1 2 0V59.92a3.586 3.586 0 0 1-3.582 3.581M58.56 63.501H38.224a3.586 3.586 0 0 1-3.582-3.582V48.307a1 1 0 0 1 2 0V59.92a1.584 1.584 0 0 0 1.582 1.581H58.56a1 1 0 1 1 0 2"/></svg>