<svg xmlns="http://www.w3.org/2000/svg" width="66.017" height="66.003"><path d="M56.113 33a9.9 9.9 0 1 0 0-19.8H53.85a9.875 9.875 0 0 0-15.6-6.93 16.481 16.481 0 0 0-29.1 6.974A9.893 9.893 0 0 0 9.913 33h18.7v4.4h-5.5a5.5 5.5 0 0 0-5.5 5.5v14.3a3.31 3.31 0 0 1-3.3 3.3H8.661a4.4 4.4 0 1 0 0 2.2h5.652a5.5 5.5 0 0 0 5.5-5.5V42.9a3.31 3.31 0 0 1 3.3-3.3h5.5v6.6c0 1.463 1.331 2.53 3.3 3.256V63.8h-3.3V66h4.4a1.1 1.1 0 0 0 1.1-1.1V50.074a26.6 26.6 0 0 0 4.4.506V61.6a1.1 1.1 0 0 0 1.1 1.1H49.67a4.4 4.4 0 1 0 0-2.2h-8.957v-9.92c4.961-.176 9.9-1.562 9.9-4.378V44h3.3a1.1 1.1 0 0 1 1.1 1.1v8.8a1.1 1.1 0 0 0 1.1 1.1h5.5v-2.2h-4.4v-7.7a3.31 3.31 0 0 0-3.3-3.3h-3.3V33Zm-51.7 30.8a2.2 2.2 0 1 1 2.2-2.2 2.2 2.2 0 0 1-2.2 2.2m49.5-4.4a2.2 2.2 0 1 1-2.2 2.2 2.2 2.2 0 0 1 2.2-2.2m-5.5-13.2c0 .561-3.025 2.2-8.8 2.2s-8.8-1.639-8.8-2.2v-3.826a20.75 20.75 0 0 0 8.8 1.626 20.75 20.75 0 0 0 8.8-1.628Zm0-6.6c0 .561-3.025 2.2-8.8 2.2s-8.8-1.639-8.8-2.2v-3.827a20.75 20.75 0 0 0 8.8 1.627 20.75 20.75 0 0 0 8.8-1.628Zm0-6.6c0 .561-3.025 2.2-8.8 2.2s-8.8-1.639-8.8-2.2v-3.827a20.75 20.75 0 0 0 8.8 1.627 20.75 20.75 0 0 0 8.8-1.628Zm-8.8-4.4c-5.775 0-8.8-1.639-8.8-2.2s3.025-2.2 8.8-2.2 8.8 1.639 8.8 2.2-3.022 2.2-8.8 2.2m1.1-6.578V19.8a3.31 3.31 0 0 0-3.3-3.3h-5.651a4.4 4.4 0 1 0 0 2.2h5.651a1.1 1.1 0 0 1 1.1 1.1v2.222c-4.961.176-9.9 1.562-9.9 4.378v4.4h-18.7a7.7 7.7 0 1 1 0-15.4h.132a7.747 7.747 0 0 1 7.568 7.7h2.2a9.954 9.954 0 0 0-8.437-9.779 14.3 14.3 0 0 1 27.908.121l2.145-.484a16.4 16.4 0 0 0-1.947-4.873 7.7 7.7 0 0 1 10.551 11.034l1.716 1.375a10 10 0 0 0 2.1-5.093h2.264a7.7 7.7 0 0 1 0 15.4h-5.5V28.6h3.3a1.1 1.1 0 0 0 1.1-1.1v-4.4h1.1v-2.2h-2.2a1.1 1.1 0 0 0-1.1 1.1v4.4h-2.2c0-2.816-4.939-4.2-9.9-4.378m-11-4.422a2.2 2.2 0 1 1-2.2-2.2 2.2 2.2 0 0 1 2.2 2.2M63.817 52.802h2.2v2.2h-2.2Z"/><path d="M24.215 63.803h2.2v2.2h-2.2ZM6.614 23.101a3.3 3.3 0 0 1 3.3-3.3v-2.2a5.5 5.5 0 0 0 0 11h8.8v-2.2h-8.8a3.3 3.3 0 0 1-3.3-3.3M58.317 20.901h2.2v2.2h-2.2Z"/></svg>