<svg xmlns="http://www.w3.org/2000/svg" width="78.859" height="77.748"><path d="M5.826 13.508A1.27 1.27 0 0 1 7.1 12.236h13.081a1.272 1.272 0 1 1 0 2.544H7.1a1.27 1.27 0 0 1-1.274-1.272M17.664 52.84H1.272a1.272 1.272 0 1 1 0-2.544h15.46V40.153H7.1a1.272 1.272 0 1 1 0-2.544h9.635V27.464H1.272a1.272 1.272 0 1 1 0-2.544h16.391l17.569-10.14h-7.7a1.272 1.272 0 1 1 0-2.544h12.446a1.3 1.3 0 0 1 .636.17l21.974 12.687a1.27 1.27 0 0 1 .636 1.1v25.371a1.27 1.27 0 0 1-.636 1.1L40.614 65.356a1.27 1.27 0 0 1-1.272 0Zm22.314-37.863-19.43 11.218 5.257 3.035 19.43-11.218Zm19.43 11.218-5.257-3.031-19.43 11.214 5.257 3.035ZM27.077 39.956l3.829 2.21v-7.054l-3.829-2.21Zm24.531-18.265-3.829-2.21-19.43 11.217 3.829 2.21Zm-32.332 6.707v22.436l19.43 11.218V39.616l-5.256-3.035v7.783a1.272 1.272 0 0 1-1.908 1.1l-6.372-3.679a1.27 1.27 0 0 1-.636-1.1v-9.252ZM60.68 50.834V28.398L41.25 39.616v22.436Zm15.783 1.455a38.6 38.6 0 0 0 1.059-23.468 1.272 1.272 0 1 0-2.457.658 36.51 36.51 0 0 1-12.636 37.967l.8-2.616a1.272 1.272 0 1 0-2.433-.742l-1.886 6.176a1.272 1.272 0 0 0 1.216 1.643q.057 0 .115-.005l7.106-.645a1.272 1.272 0 0 0-.23-2.533l-2.5.227a38.8 38.8 0 0 0 11.846-16.662M30.577 3.795a36.44 36.44 0 0 1 37.968 12.636l-2.619-.8a1.272 1.272 0 0 0-.742 2.433l6.175 1.884A1.272 1.272 0 0 0 73 18.618l-.645-7.106a1.272 1.272 0 1 0-2.533.23l.226 2.493a38.89 38.89 0 0 0-40.127-12.9 1.272 1.272 0 0 0 .658 2.457ZM49.38 73.964a36.38 36.38 0 0 1-37.968-12.632l2.617.8a1.272 1.272 0 0 0 .742-2.433L8.6 57.813a1.272 1.272 0 0 0-1.638 1.331l.645 7.106a1.27 1.27 0 0 0 1.265 1.157q.057.001.117-.005a1.27 1.27 0 0 0 1.152-1.382l-.226-2.5a38.9 38.9 0 0 0 40.127 12.9 1.272 1.272 0 0 0-.662-2.456"/></svg>