<svg xmlns="http://www.w3.org/2000/svg" width="65.997" height="66.003"><path d="M60.243 32.3h2.809a1.176 1.176 0 1 0 0-2.351h-5.635a1.176 1.176 0 0 0-1.176 1.176v5.635a1.176 1.176 0 1 0 2.351 0v-2.785a17.434 17.434 0 0 1-.129 24.492c-17.02 15.665-40.292-7.628-24.633-24.635a19.79 19.79 0 0 0 0-27.958C14.612-11.834-11.792 14.328 5.755 33.7H2.946a1.176 1.176 0 1 0 0 2.351h5.635a1.176 1.176 0 0 0 1.176-1.176v-5.63a1.176 1.176 0 1 0-2.351 0v2.783C-8.002 14.954 15.243-8.057 32.168 7.536a17.44 17.44 0 0 1 0 24.634 19.79 19.79 0 0 0 0 27.959C51.387 77.839 77.79 51.671 60.243 32.3"/><path d="m28.468 29.803 1.324-1.324a2.106 2.106 0 0 0 0-2.976l-.711-.711a10.54 10.54 0 0 0 1.23-4.584l.978-.263a2.107 2.107 0 0 0 1.486-2.575l-.483-1.811a2.116 2.116 0 0 0-2.577-1.49l-.971.26a10.5 10.5 0 0 0-3.354-3.358l.262-.976a2.115 2.115 0 0 0-1.488-2.578l-1.812-.485a2.11 2.11 0 0 0-2.577 1.488l-.261.975a10.5 10.5 0 0 0-4.586 1.223l-.714-.714a2.107 2.107 0 0 0-2.977 0l-1.324 1.324a2.106 2.106 0 0 0 0 2.976l.711.711a10.5 10.5 0 0 0-1.23 4.584l-.978.264a2.107 2.107 0 0 0-1.488 2.577l.483 1.811a2.116 2.116 0 0 0 2.577 1.49l.971-.26a10.5 10.5 0 0 0 3.355 3.359l-.262.975a2.115 2.115 0 0 0 1.485 2.575c.965.181 2.48.947 3.408.275.827-.4 1.043-1.443 1.243-2.252a10.5 10.5 0 0 0 4.586-1.223l.715.714a2.106 2.106 0 0 0 2.976 0Zm-4.154-3.171a8.1 8.1 0 0 1-4.946 1.319c-1.313-.11-1.348 1.623-1.645 2.49l-1.336-.358c.182-.909 1.006-2.41-.176-2.976a8.1 8.1 0 0 1-3.617-3.623c-.563-1.186-2.076-.359-2.974-.181l-.356-1.335c.884-.3 2.581-.33 2.488-1.643a8.14 8.14 0 0 1 1.328-4.947c.745-1.071-.732-1.982-1.332-2.663l.975-.975 1.186 1.186a1.176 1.176 0 0 0 1.48.149 8.07 8.07 0 0 1 4.948-1.319c1.327.092 1.341-1.611 1.645-2.49l1.336.358c-.182.909-1.006 2.409.175 2.976a8.1 8.1 0 0 1 3.618 3.623c.568 1.189 2.073.359 2.974.181l.352 1.336c-.884.3-2.581.33-2.488 1.643a8.14 8.14 0 0 1-1.328 4.947c-.745 1.071.732 1.982 1.331 2.662l-.975.975c-.686-.607-1.6-2.078-2.666-1.335Z"/><path d="M15.733 15.734c-5.287 5.574 2.665 13.524 8.237 8.236 5.287-5.572-2.665-13.522-8.237-8.236m6.574 6.574a3.473 3.473 0 1 1 0-4.912 3.473 3.473 0 0 1 0 4.912M37.53 36.199l-1.324 1.328a2.106 2.106 0 0 0 0 2.976l.711.711a10.54 10.54 0 0 0-1.23 4.584l-.978.263a2.107 2.107 0 0 0-1.487 2.572l.483 1.811a2.116 2.116 0 0 0 2.577 1.49l.971-.26a10.5 10.5 0 0 0 3.357 3.353l-.262.976a2.115 2.115 0 0 0 1.488 2.578l1.812.485a2.11 2.11 0 0 0 2.574-1.483l.261-.975a10.5 10.5 0 0 0 4.586-1.223l.714.714a2.107 2.107 0 0 0 2.977 0l1.324-1.324a2.106 2.106 0 0 0 0-2.976l-.711-.711a10.5 10.5 0 0 0 1.23-4.584l.978-.264a2.107 2.107 0 0 0 1.486-2.574l-.483-1.811a2.116 2.116 0 0 0-2.577-1.49l-.971.26a10.5 10.5 0 0 0-3.354-3.359 3.1 3.1 0 0 0 .052-2.573 2.1 2.1 0 0 0-1.278-.98c-.964-.18-2.482-.946-3.408-.275-.827.4-1.043 1.443-1.243 2.252a10.5 10.5 0 0 0-4.583 1.223l-.715-.714a2.106 2.106 0 0 0-2.976 0Zm4.154 3.171a8.08 8.08 0 0 1 4.946-1.318c1.314.11 1.348-1.623 1.645-2.49l1.336.358c-.182.909-1.006 2.41.176 2.976a8.1 8.1 0 0 1 3.617 3.623c.565 1.189 2.074.359 2.974.181l.356 1.335c-.884.3-2.581.33-2.488 1.643a8.14 8.14 0 0 1-1.324 4.949c-.745 1.071.732 1.982 1.332 2.663l-.975.975-1.186-1.186a1.174 1.174 0 0 0-1.48-.149 8.1 8.1 0 0 1-4.947 1.318c-1.317-.121-1.351 1.626-1.644 2.489l-1.336-.358c.182-.909 1.006-2.409-.175-2.976a8.1 8.1 0 0 1-3.618-3.623c-.564-1.185-2.075-.36-2.974-.181l-.356-1.335c.884-.3 2.581-.33 2.488-1.643a8.14 8.14 0 0 1 1.328-4.947c.745-1.071-.732-1.982-1.331-2.662l.974-.976c.687.608 1.6 2.078 2.666 1.335Z"/><path d="M46.147 51.97a5.852 5.852 0 1 0-5.332-3.612 5.82 5.82 0 0 0 5.332 3.612m-2.456-8.277a3.473 3.473 0 1 1 0 4.912 3.473 3.473 0 0 1 0-4.912"/></svg>