<svg xmlns="http://www.w3.org/2000/svg" width="65.826" height="66.003"><path d="M15.78 27.261a2.26 2.26 0 0 0-1.4 1.857c-.054.548-.08 1.142-.08 1.8s.026 1.252.079 1.788a2.26 2.26 0 0 0 1.409 1.87l2.665 1.065a17.1 17.1 0 0 0 1.542 3.728l-1.128 2.638a2.21 2.21 0 0 0 .322 2.316c.337.409.718.827 1.215 1.334.491.48.909.862 1.3 1.187a2.22 2.22 0 0 0 2.327.329l2.649-1.125a17.1 17.1 0 0 0 3.728 1.546l1.066 2.669a2.26 2.26 0 0 0 1.857 1.4c.548.054 1.137.08 1.8.08s1.252-.026 1.788-.079a2.26 2.26 0 0 0 1.87-1.409l1.065-2.665a17.1 17.1 0 0 0 3.728-1.546l2.641 1.127a2.21 2.21 0 0 0 2.316-.322c.409-.337.827-.718 1.334-1.215.48-.491.862-.909 1.187-1.3a2.21 2.21 0 0 0 .335-2.327l-1.137-2.641a17.1 17.1 0 0 0 1.546-3.728l2.669-1.066a2.26 2.26 0 0 0 1.4-1.857c.054-.548.08-1.137.08-1.8s-.026-1.252-.079-1.788a2.26 2.26 0 0 0-1.409-1.87l-2.662-1.07a17.1 17.1 0 0 0-1.546-3.728l1.127-2.641a2.21 2.21 0 0 0-.322-2.316 21 21 0 0 0-1.215-1.334c-.491-.48-.909-.862-1.3-1.187a2.21 2.21 0 0 0-2.327-.329l-2.646 1.135a17.1 17.1 0 0 0-3.728-1.546l-1.066-2.669a2.26 2.26 0 0 0-1.857-1.4 20.4 20.4 0 0 0-3.588 0 2.26 2.26 0 0 0-1.87 1.409l-1.07 2.662a17.1 17.1 0 0 0-3.723 1.544l-2.635-1.13a2.21 2.21 0 0 0-2.316.322c-.409.337-.827.718-1.334 1.215-.48.491-.862.909-1.187 1.3a2.21 2.21 0 0 0-.329 2.327l1.124 2.655a17.1 17.1 0 0 0-1.546 3.728Zm4.652.011a15 15 0 0 1 1.726-4.16 1.1 1.1 0 0 0 .069-1l-1.347-3.2c.337-.408.7-.8 1.059-1.164a11 11 0 0 1 1.237-1.071l3.149 1.343a1.1 1.1 0 0 0 1-.069 15 15 0 0 1 4.16-1.722 1.1 1.1 0 0 0 .755-.658l1.308-3.217a13 13 0 0 1 3.2.041l1.27 3.176a1.1 1.1 0 0 0 .755.658 15 15 0 0 1 4.16 1.726 1.1 1.1 0 0 0 1 .069l3.2-1.347c.408.338.8.7 1.164 1.059a10.6 10.6 0 0 1 1.071 1.237l-1.343 3.149a1.1 1.1 0 0 0 .069 1 15 15 0 0 1 1.722 4.156 1.1 1.1 0 0 0 .658.755l3.221 1.302c.046.474.069.987.069 1.583a9.6 9.6 0 0 1-.11 1.622l-3.176 1.27a1.1 1.1 0 0 0-.658.755 15 15 0 0 1-1.726 4.16 1.1 1.1 0 0 0-.069 1l1.356 3.2c-.337.408-.7.8-1.059 1.164a10.6 10.6 0 0 1-1.237 1.071l-3.15-1.342a1.1 1.1 0 0 0-1 .069 15 15 0 0 1-4.165 1.722 1.1 1.1 0 0 0-.755.658l-1.305 3.22a13 13 0 0 1-3.2-.041l-1.27-3.176a1.1 1.1 0 0 0-.755-.658 15 15 0 0 1-4.16-1.726 1.1 1.1 0 0 0-1-.069l-3.2 1.356c-.408-.337-.8-.7-1.164-1.059a10.6 10.6 0 0 1-1.071-1.237l1.343-3.149a1.1 1.1 0 0 0-.069-1 15 15 0 0 1-1.722-4.165 1.1 1.1 0 0 0-.658-.755L16.567 32.5a15 15 0 0 1-.072-1.583 9.6 9.6 0 0 1 .11-1.622l3.18-1.27a1.1 1.1 0 0 0 .658-.755Z"/><path d="M35.096 44.075a13.157 13.157 0 1 0-13.157-13.156 13.157 13.157 0 0 0 13.157 13.156m0-24.121a10.964 10.964 0 1 1-10.964 10.965 10.964 10.964 0 0 1 10.964-10.964Z"/><path d="M35.096 38.594a7.675 7.675 0 1 0-7.675-7.675 7.675 7.675 0 0 0 7.675 7.675m0-13.157a5.482 5.482 0 1 1-5.482 5.482 5.48 5.48 0 0 1 5.482-5.482"/><path d="M65.825 30.918a30.7 30.7 0 1 0-61.387-.438l-2.522-2.522A1.1 1.1 0 1 0 .363 29.5l4.385 4.386a1.1 1.1 0 0 0 1.55 0l4.386-4.386a1.1 1.1 0 1 0-1.546-1.55l-2.5 2.5a28.451 28.451 0 1 1 1.6 9.971 1.1 1.1 0 0 0-2.067.73 30.73 30.73 0 0 0 17.598 18.274H1.138a1.1 1.1 0 1 0 0 2.193h60.944l-2.514 2.513a1.1 1.1 0 1 0 1.55 1.55l4.386-4.381a1.1 1.1 0 0 0 0-1.55l-4.385-4.39a1.1 1.1 0 1 0-1.55 1.55l2.514 2.514H46.498a30.74 30.74 0 0 0 19.327-28.506"/></svg>