<svg xmlns="http://www.w3.org/2000/svg" width="75.673" height="66.003"><path d="m47.84 53.49-1.965 1.965a.97.97 0 0 1-1.392 0l-7.223-7.223a1 1 0 0 1 0-1.392l2.571-2.571-1.13-1.13a.97.97 0 0 1 0-1.392l1.146-1.147-5.634-5.634a.976.976 0 0 1 .524-1.654l13.1-3.046V17.95H1.965v46.087H47.84Zm-6.617-7.829-1.867 1.867 5.831 5.831 1.867-1.867Zm25.042-19.227a4.957 4.957 0 1 1-7.01 0 4.96 4.96 0 0 1 7.01 0m-.508 3.5a2.993 2.993 0 1 0-3 3 3 3 0 0 0 3-3m5.421 3.849-8.025 8.025-3.767 16.214a.987.987 0 0 1-1.654.475L52.1 52.868l-1.146 1.146a1 1 0 0 1-1.163.18V65.02a.986.986 0 0 1-.983.983H.983A.986.986 0 0 1 0 65.02V.983A.986.986 0 0 1 .983 0h47.84a.986.986 0 0 1 .983.983v28.808l1.1-.262 8.022-8.029a.95.95 0 0 1 .508-.262l15-4.176a.981.981 0 0 1 1.2 1.228L71.44 33.345a.87.87 0 0 1-.262.443Zm-10.645 10.65-7.026 7.026 4.373 4.389ZM41.24 39.209l7.042-7.042-11.415 2.652Zm9.024 12.726 19.342-19.343 3.652-13.151-13.135 3.652-19.342 19.342ZM29.775 6.093a.982.982 0 1 1 1.2-1.556l4.766 3.652a.983.983 0 0 1-.016 1.572L30.954 13.4a.982.982 0 1 1-1.2-1.556l3.751-2.866Zm-6.437 7.55A.984.984 0 0 1 22 14a.97.97 0 0 1-.36-1.343l4.815-8.336a.983.983 0 0 1 1.7.983ZM18.85 4.537a.982.982 0 0 1 1.2 1.556L16.3 8.959l3.751 2.866a.982.982 0 1 1-1.2 1.556L14.1 9.745a.992.992 0 0 1-.016-1.572Zm28.99-2.572H1.965v14H47.84ZM30.872 39.618a.983.983 0 0 1 0 1.965H9.385a.983.983 0 1 1 0-1.965Zm6.24 13.921a.983.983 0 0 1 0 1.965H9.385a.983.983 0 0 1 0-1.965Zm-5.388-6.977a.983.983 0 0 1 0 1.965H9.385a.983.983 0 0 1 0-1.965Zm8.615-20.882a.983.983 0 1 1 0 1.965H9.385a.983.983 0 1 1 0-1.965Zm-9.974 6.961a.983.983 0 0 1 0 1.965H9.385a.983.983 0 0 1 0-1.965Z"/></svg>