<svg xmlns="http://www.w3.org/2000/svg" width="59.616" height="66.003"><path d="M9.581 31.937h4.258v-2.129H9.581a7.452 7.452 0 0 1 0-14.9 7.4 7.4 0 0 1 2.793.542l.8-1.974a9.5 9.5 0 0 0-3.594-.7 8.5 8.5 0 0 1 15.3-5.117 13.8 13.8 0 0 0-1.028 2.723l2.062.53a11.712 11.712 0 0 1 23.056 2.927V14.9h1.065a7.452 7.452 0 0 1 0 14.9h-6.388v2.129h6.387a9.581 9.581 0 0 0 1.028-19.099 13.835 13.835 0 0 0-25-7.111 10.64 10.64 0 0 0-18.61 7.056c0 .082.012.162.014.244a9.577 9.577 0 0 0 2.115 18.918m0 0"/><path d="M6.387 22.356a3.2 3.2 0 0 1 3.194-3.194v-2.129a5.33 5.33 0 0 0-5.323 5.323ZM55.357 41.713l-4.716.956-.159.659a21.1 21.1 0 0 1-2.519 6.076l-.355.578 2.66 4.014-4.791 4.79-4.013-2.66-.578.353a21.1 21.1 0 0 1-6.077 2.52l-.659.158-.955 4.717H26.42l-.956-4.717-.66-.158a21.1 21.1 0 0 1-6.077-2.52l-.578-.353-4.013 2.66-4.791-4.79 2.66-4.014-.355-.578a21.2 21.2 0 0 1-2.521-6.08l-.159-.659-4.715-.956v-3.385H2.129v5.128l5.1 1.036a23.2 23.2 0 0 0 2.256 5.438L6.606 54.27l7.253 7.252 4.343-2.879a23.2 23.2 0 0 0 5.439 2.255l1.035 5.106h10.26l1.035-5.1a23.2 23.2 0 0 0 5.439-2.255l4.343 2.879 7.253-7.252-2.877-4.352a23.2 23.2 0 0 0 2.256-5.438l5.1-1.037v-5.125h-2.128Zm0 0"/><path d="M10.645 38.324a19.162 19.162 0 1 0 38.324 0h-2.124a17.033 17.033 0 1 1-34.066 0Zm0 0"/><path d="M33.618 12.873a8.247 8.247 0 0 0-.616 14.744v17.094a4.258 4.258 0 1 0 8.516 0V27.617a8.247 8.247 0 0 0-.616-14.744l-1.513-.7v6.224l-4.258 1.419v-7.645Zm7.9 7.056v-4.141a6.16 6.16 0 0 1 2.125 4.618 6.23 6.23 0 0 1-3.642 5.6l-.616.286v18.421a2.129 2.129 0 0 1-4.258 0V26.29l-.617-.287a6.23 6.23 0 0 1-3.642-5.6 6.16 6.16 0 0 1 2.129-4.616v6.98ZM15.968 29.15v5.981h2.129v10.968l3.194 4.791 3.194-4.791V35.131h2.129V29.15l-2.129-1.065v-.813l2.129-1.065v-7.045a5.323 5.323 0 1 0-10.646 0v7.045l2.129 1.065v.813Zm6.387 16.3-1.065 1.6-1.065-1.6V35.131h2.129Zm-4.258-26.291a3.194 3.194 0 1 1 6.387 0v5.729l-2.129 1.065v1.723h-2.129v-1.723l-2.129-1.065Zm1.316 10.646h3.755l1.317.658v2.536h-6.387v-2.536Zm0 0"/></svg>