<svg xmlns="http://www.w3.org/2000/svg" width="73.213" height="65.632"><path d="M73.154 41.962a18.77 18.77 0 0 0-8.958-14.571v-3.476a2.26 2.26 0 0 0-1.8-2.225l-4.823-1.04a.42.42 0 0 1-.333-.293 22 22 0 0 0-.933-2.248.43.43 0 0 1 .027-.444l2.678-4.142a2.26 2.26 0 0 0-.3-2.845l-5.195-5.195a2.26 2.26 0 0 0-2.845-.3L46.526 7.86a.43.43 0 0 1-.444.027 22 22 0 0 0-2.248-.933.42.42 0 0 1-.293-.333l-1.036-4.825a2.26 2.26 0 0 0-2.225-1.8h-7.346a2.26 2.26 0 0 0-2.225 1.8l-1.036 4.825a.42.42 0 0 1-.293.333 22 22 0 0 0-2.248.933.43.43 0 0 1-.444-.027l-4.146-2.678a2.26 2.26 0 0 0-2.845.3l-5.195 5.197a2.26 2.26 0 0 0-.3 2.845l2.679 4.147a.43.43 0 0 1 .027.444 22 22 0 0 0-.933 2.248.42.42 0 0 1-.333.293l-4.83 1.035a2.26 2.26 0 0 0-1.8 2.225v6.6a18.795 18.795 0 0 0 8.726 34.816q.512.028 1.024.029a19 19 0 0 0 8.354-1.947l-.3 1.053a.91.91 0 0 0 .623 1.129 1 1 0 0 0 .254.036.91.91 0 0 0 .875-.659l.972-3.366a.91.91 0 0 0-.623-1.129l-3.366-.972a.911.911 0 1 0-.506 1.751l1.47.425a17.07 17.07 0 0 1-18.743-2.207 16.97 16.97 0 1 1 27.923-14.4 18.793 18.793 0 0 0 37.457-3.114Zm-62.312-12.42v-5.627a.446.446 0 0 1 .358-.444l4.824-1.036a2.23 2.23 0 0 0 1.669-1.472 20 20 0 0 1 .855-2.06 2.23 2.23 0 0 0-.136-2.223l-2.679-4.147a.44.44 0 0 1 .061-.567l5.195-5.195a.44.44 0 0 1 .567-.061l4.147 2.681a2.23 2.23 0 0 0 2.224.138 20 20 0 0 1 2.06-.855 2.23 2.23 0 0 0 1.472-1.669l1.036-4.825a.44.44 0 0 1 .444-.358h7.347a.44.44 0 0 1 .444.358l1.036 4.825a2.23 2.23 0 0 0 1.472 1.669 20 20 0 0 1 2.06.855 2.23 2.23 0 0 0 2.224-.138l4.147-2.679a.445.445 0 0 1 .567.061l5.195 5.195a.44.44 0 0 1 .061.567l-2.679 4.147a2.23 2.23 0 0 0-.138 2.224 20 20 0 0 1 .855 2.06 2.23 2.23 0 0 0 1.669 1.472l4.813 1.035a.444.444 0 0 1 .358.444v2.5a18.86 18.86 0 0 0-9.3-1.722 16.718 16.718 0 0 0-33.183 2.895v.226a18.9 18.9 0 0 0-9.056 1.727ZM49.67 25.25a13.27 13.27 0 0 0-26.333 2.335q0 .375.024.752a19 19 0 0 0-1.64-.331c0-.14-.008-.281-.008-.421A14.894 14.894 0 0 1 51.26 24.91q-.801.14-1.59.34m17.654 29.2a16.969 16.969 0 0 1-29.812-9.517 18.79 18.79 0 0 0-12.28-16.021 12 12 0 0 1-.077-1.324A11.447 11.447 0 0 1 47.912 25.8a19 19 0 0 0-2.137.943l.33-1.139a.911.911 0 1 0-1.751-.506l-.972 3.367a.91.91 0 0 0 .623 1.129l3.367.972a1 1 0 0 0 .254.036.912.912 0 0 0 .252-1.788l-1.366-.394a16.972 16.972 0 0 1 20.812 26.038Z"/></svg>