<svg xmlns="http://www.w3.org/2000/svg" width="67.111" height="68.756"><path fill-rule="evenodd" d="m48.441 41.194-13.843 6.882V34.199l14.208-7.063v13.46a.63.63 0 0 1-.365.598m-30.144-.6V27.136l14.217 7.067v13.873l-13.843-6.882a.64.64 0 0 1-.374-.6m15.259-22.083-13.959 6.94 13.959 6.938 13.959-6.938Zm16.756 6.006-16.292-8.1a1.04 1.04 0 0 0-.926 0l-16.3 8.1a1.05 1.05 0 0 0-.57.933v15.146a2.7 2.7 0 0 0 1.523 2.463l15.348 7.631a1.04 1.04 0 0 0 .926 0l15.344-7.631a2.7 2.7 0 0 0 1.523-2.463V25.451a1.04 1.04 0 0 0-.577-.934Zm-15.8 41.148C45.05 57.544 55.953 49.144 55.953 35.96V18.836c-8.452-1.07-16.578-6.566-22.397-14.113-5.8 7.53-13.985 13.047-22.391 14.113V35.96c0 13.184 10.894 21.584 21.441 29.705.321.245.632.489.953.734.312-.245.633-.489.953-.734m31.553-11.392a1.04 1.04 0 0 0-1.042 1.042v8.236L52.877 51.399a26.03 26.03 0 0 0 5.158-15.439V18.699a1.88 1.88 0 0 0-1.621-1.907 23 23 0 0 1-3.83-.794l12.444-12.44v8.236a1.042 1.042 0 0 0 2.084 0V1.042A1.046 1.046 0 0 0 66.065 0H55.317a1.042 1.042 0 1 0 0 2.084h8.231L50.383 15.247A36.85 36.85 0 0 1 34.402 2.37a1.042 1.042 0 0 0-1.693 0 36.88 36.88 0 0 1-15.971 12.894L3.565 2.084h8.231a1.042 1.042 0 1 0 0-2.084H1.042A1.046 1.046 0 0 0 0 1.042v10.751a1.042 1.042 0 0 0 2.084 0V3.557l12.453 12.45a24 24 0 0 1-3.839.785 1.883 1.883 0 0 0-1.621 1.907V35.96a26.03 26.03 0 0 0 5.158 15.439L2.084 63.55v-8.236a1.042 1.042 0 0 0-2.084 0v10.75a1.04 1.04 0 0 0 1.042 1.042h10.752a1.042 1.042 0 1 0 0-2.084h-8.24l11.954-11.946c4.657 5.819 11.232 10.682 17.406 15.46a1.044 1.044 0 0 0 1.274 0c6.144-4.717 12.831-9.731 17.415-15.462l11.945 11.945h-8.231a1.042 1.042 0 1 0 0 2.084h10.748a1.045 1.045 0 0 0 1.042-1.042V55.314a1.045 1.045 0 0 0-1.042-1.041"/></svg>