<svg xmlns="http://www.w3.org/2000/svg" width="65.122" height="81.4"><path d="M48.249 28.747h-3.611a12.6 12.6 0 0 0-.839-2.028l2.553-2.553a1.69 1.69 0 0 0 0-2.39l-3-3.005a1.69 1.69 0 0 0-2.39 0l-2.553 2.553a12.6 12.6 0 0 0-2.028-.839v-3.611a1.69 1.69 0 0 0-1.69-1.69h-4.25a1.69 1.69 0 0 0-1.69 1.69v3.611a12.6 12.6 0 0 0-2.028.839l-2.554-2.554a1.69 1.69 0 0 0-2.39 0l-3 3a1.69 1.69 0 0 0 0 2.39l2.553 2.553a12.6 12.6 0 0 0-.839 2.028h-3.611a1.69 1.69 0 0 0-1.69 1.69v4.25a1.69 1.69 0 0 0 1.69 1.69h3.605a12.6 12.6 0 0 0 .839 2.028l-2.553 2.553a1.69 1.69 0 0 0 0 2.39l3 3a1.69 1.69 0 0 0 2.39 0l2.553-2.553a12.6 12.6 0 0 0 2.028.839v3.611a1.69 1.69 0 0 0 1.69 1.69h4.25a1.69 1.69 0 0 0 1.69-1.69v-3.611a12.6 12.6 0 0 0 2.028-.839l2.553 2.553a1.69 1.69 0 0 0 2.39 0l3-3a1.69 1.69 0 0 0 0-2.39l-2.553-2.553a12.6 12.6 0 0 0 .839-2.028h3.611a1.69 1.69 0 0 0 1.69-1.69v-4.25a1.69 1.69 0 0 0-1.683-1.684m-.695 5.244h-3.825a1.19 1.19 0 0 0-1.161.921 10.2 10.2 0 0 1-1.268 3.063 1.19 1.19 0 0 0 .17 1.472l2.7 2.7-2.022 2.022-2.7-2.7a1.19 1.19 0 0 0-1.472-.17 10.2 10.2 0 0 1-3.063 1.269 1.19 1.19 0 0 0-.921 1.161v3.825h-2.859v-3.825a1.19 1.19 0 0 0-.921-1.161 10.2 10.2 0 0 1-3.063-1.269 1.19 1.19 0 0 0-1.472.17l-2.7 2.7-2.022-2.022 2.7-2.7a1.19 1.19 0 0 0 .17-1.472 10.2 10.2 0 0 1-1.268-3.063 1.19 1.19 0 0 0-1.161-.921h-3.825v-2.859h3.825a1.19 1.19 0 0 0 1.161-.921 10.2 10.2 0 0 1 1.268-3.063 1.19 1.19 0 0 0-.17-1.472l-2.7-2.7 2.022-2.022 2.7 2.7a1.19 1.19 0 0 0 1.472.17 10.2 10.2 0 0 1 3.063-1.268 1.19 1.19 0 0 0 .921-1.161v-3.826h2.854v3.825a1.19 1.19 0 0 0 .921 1.161 10.2 10.2 0 0 1 3.063 1.268 1.19 1.19 0 0 0 1.472-.17l2.7-2.7 2.022 2.022-2.7 2.7a1.19 1.19 0 0 0-.17 1.472 10.2 10.2 0 0 1 1.268 3.063 1.19 1.19 0 0 0 1.161.921h3.825Z"/><path d="M32.561 26.173a6.388 6.388 0 1 0 6.388 6.388 6.4 6.4 0 0 0-6.388-6.388m0 10.391a4 4 0 1 1 4-4 4.01 4.01 0 0 1-4 4M5.148 31.369H1.192a1.193 1.193 0 1 0 0 2.385h3.956a1.193 1.193 0 0 0 0-2.385M63.93 31.369h-3.956a1.193 1.193 0 1 0 0 2.385h3.956a1.193 1.193 0 1 0 0-2.385M14.021 51.101a1.19 1.19 0 0 0-1.686 0l-2.8 2.8a1.192 1.192 0 1 0 1.686 1.686l2.8-2.8a1.19 1.19 0 0 0 0-1.686M55.585 9.537a1.193 1.193 0 0 0-1.686 0l-2.8 2.8a1.192 1.192 0 0 0 1.686 1.686l2.8-2.8a1.19 1.19 0 0 0 0-1.686M32.561 0a1.19 1.19 0 0 0-1.193 1.192v3.956a1.193 1.193 0 1 0 2.385 0V1.192A1.19 1.19 0 0 0 32.561 0M55.585 53.899l-2.8-2.8a1.192 1.192 0 0 0-1.686 1.686l2.8 2.8a1.192 1.192 0 1 0 1.686-1.686M14.021 12.335l-2.8-2.8a1.192 1.192 0 1 0-1.686 1.686l2.8 2.8a1.192 1.192 0 0 0 1.686-1.686M56.352 29.641A23.98 23.98 0 0 0 35.49 8.682a1.192 1.192 0 1 0-.289 2.367 21.476 21.476 0 0 1 18.782 18.869 1.19 1.19 0 0 0 1.183 1.054 1 1 0 0 0 .14-.008 1.19 1.19 0 0 0 1.046-1.323"/><path d="M55.29 34.16a1.19 1.19 0 0 0-1.333 1.033 21.49 21.49 0 0 1-9.943 15.544 8.02 8.02 0 0 0-3.791 6.823v4.907H24.9v-5.016a7.85 7.85 0 0 0-3.674-6.642 21.571 21.571 0 0 1 8.7-39.761 1.193 1.193 0 1 0-.293-2.367 23.954 23.954 0 0 0-9.662 44.155 5.45 5.45 0 0 1 2.544 4.614v5.19a3.1 3.1 0 0 0-2.087 2.927v1.7a3.1 3.1 0 0 0 .662 1.908 3.08 3.08 0 0 0-.662 1.908v1.7a3.1 3.1 0 0 0 3.1 3.1h3.751v2.7a2.823 2.823 0 0 0 2.82 2.82h4.928a2.823 2.823 0 0 0 2.82-2.82v-2.7h3.749a3.1 3.1 0 0 0 3.1-3.1v-1.7a3.08 3.08 0 0 0-.662-1.908 3.08 3.08 0 0 0 .662-1.908v-1.7a3.1 3.1 0 0 0-2.087-2.927v-5.081a5.65 5.65 0 0 1 2.67-4.802A23.86 23.86 0 0 0 56.32 35.493a1.19 1.19 0 0 0-1.03-1.333M35.46 78.579a.44.44 0 0 1-.435.435h-4.928a.44.44 0 0 1-.435-.435v-2.7h5.8Zm6.849-5.8a.725.725 0 0 1-.715.715H23.529a.725.725 0 0 1-.715-.715v-1.7a.725.725 0 0 1 .715-.715h18.066a.725.725 0 0 1 .715.715Zm0-5.516a.725.725 0 0 1-.715.715H23.529a.725.725 0 0 1-.715-.715v-1.7a.725.725 0 0 1 .715-.715h18.066a.725.725 0 0 1 .715.715v1.7Z"/></svg>