<svg xmlns="http://www.w3.org/2000/svg" width="60" height="60" fill="none"><g fill="#282928" clip-path="url(#a)"><path d="M58.183 52.908h-3.091V19.272c0-.273-.09-.546-.364-.727l-8.727-6.91V1.818a.91.91 0 0 0-.909-.909H14.819a.91.91 0 0 0-.909.91v9.818l-8.727 6.909c-.182.181-.364.454-.364.727v33.636h-3a.91.91 0 0 0-.909.91v4.363c0 .455.364.909.91.909h56.363a.91.91 0 0 0 .909-.91v-4.363c0-.545-.364-.909-.91-.909Zm-4.818-33.273v33.273H46v-39.09l7.364 5.818Zm-37.637-17h28.546v50.273h-7.91V38.272a.91.91 0 0 0-.908-.91h-11a.91.91 0 0 0-.91.91v14.636h-7.818zm18.91 50.273h-9.273V39.181h9.272zm-28-33.273L14 13.818v39.091H6.637V19.635Zm50.727 37.728H2.637v-2.637h54.637v2.637z"/><path d="M19.003 22.182h22a.91.91 0 0 0 .909-.91v-5.181a.91.91 0 0 0-.91-.91h-22a.91.91 0 0 0-.908.91v5.181c0 .546.454.91.909.91M19.912 17h20.182v3.454H19.912zm-.909 15.635h22a.91.91 0 0 0 .909-.91v-5.181a.91.91 0 0 0-.91-.91h-22a.91.91 0 0 0-.908.91v5.182c0 .454.454.909.909.909m.909-5.273h20.182v3.455H19.912zm-.909-15.546h22a.91.91 0 0 0 .909-.909V5.726a.91.91 0 0 0-.91-.91h-22a.91.91 0 0 0-.908.91v5.181c0 .546.454.91.909.91Zm.909-5.181h20.182v3.454H19.912zm-8.457 36.273H9.183a.91.91 0 0 0-.91.91c0 .545.364.908.91.908h2.272a.91.91 0 0 0 .91-.909.91.91 0 0 0-.91-.909m0-16.637H9.183a.91.91 0 0 0-.91.91c0 .454.364.909.91.909h2.272a.91.91 0 0 0 .91-.91.91.91 0 0 0-.91-.909m37.091 18.455h2.273a.91.91 0 0 0 .909-.909c0-.545-.364-.909-.91-.909h-2.272a.91.91 0 0 0-.91.91.91.91 0 0 0 .91.908m0-16.726h2.273a.91.91 0 0 0 .909-.91.91.91 0 0 0-.91-.908h-2.272a.91.91 0 0 0-.91.909c0 .545.455.909.91.909m-37.091 3.816H9.183a.91.91 0 0 0-.91.91c0 .454.364.909.91.909h2.272a.91.91 0 0 0 .91-.91.91.91 0 0 0-.91-.909m37.091 1.729h2.273a.91.91 0 0 0 .909-.91.91.91 0 0 0-.91-.908h-2.272a.91.91 0 0 0-.91.909c0 .545.455.909.91.909m-37.091 3.818H9.183a.91.91 0 0 0-.91.91c0 .545.364.908.91.908h2.272a.91.91 0 0 0 .91-.909.91.91 0 0 0-.91-.909m37.091 1.818h2.273a.91.91 0 0 0 .909-.909c0-.545-.364-.909-.91-.909h-2.272a.91.91 0 0 0-.91.91.91.91 0 0 0 .91.908m-37.091 9.364H9.183a.91.91 0 0 0-.91.909c0 .545.364.91.91.91h2.272a.91.91 0 0 0 .91-.91.91.91 0 0 0-.91-.91Zm0-27.818H9.183a.91.91 0 0 0-.91.909c0 .545.364.909.91.909h2.272a.91.91 0 0 0 .91-.91.91.91 0 0 0-.91-.908m37.091 29.544h2.273a.91.91 0 0 0 .909-.909c0-.545-.364-.909-.91-.909h-2.272a.91.91 0 0 0-.91.91.91.91 0 0 0 .91.908m0-27.818h2.273a.91.91 0 0 0 .909-.91c0-.545-.364-.908-.91-.908h-2.272a.91.91 0 0 0-.91.909c0 .545.455.909.91.909"/></g><defs><clipPath id="a"><path fill="#fff" d="M0 0h60v60H0z"/></clipPath></defs></svg>