<svg xmlns="http://www.w3.org/2000/svg" width="60" height="60" fill="none"><path fill="#282928" d="M37.275 58.91H22.729c-.545 0-.909-.364-.909-.91a8.15 8.15 0 0 1 8.182-8.182A8.15 8.15 0 0 1 38.184 58c0 .546-.364.91-.91.91Zm-13.546-1.82h12.637c-.455-3.09-3.091-5.455-6.273-5.455s-5.91 2.364-6.364 5.455m32.636-9.453H3.637C2.092 47.637.91 46.455.91 44.91V12.82c0-1.546 1.182-2.728 2.727-2.728h13.637c.545 0 .909.363.909.909 0 .545-.364.909-.91.909H3.638c-.545 0-.909.364-.909.91v32.09c0 .545.364.91.91.91h52.727c.545 0 .909-.365.909-.91V12.82c0-.546-.364-.91-.91-.91H42.729c-.545 0-.909-.364-.909-.91 0-.545.364-.908.91-.908h13.636c1.545 0 2.727 1.182 2.727 2.727V44.91c0 1.545-1.182 2.727-2.727 2.727Z"/><path fill="#282928" d="M58.183 42.274H1.819c-.545 0-.909-.364-.909-.91V12.82c0-1.545 1.182-2.727 2.727-2.727h13.637c.545 0 .909.363.909.909 0 .545-.364.909-.91.909H3.638c-.545 0-.909.364-.909.91v27.635h54.546V12.82c0-.545-.364-.909-.91-.909H42.729c-.545 0-.909-.364-.909-.91 0-.545.364-.908.91-.908h13.636c1.545 0 2.727 1.182 2.727 2.727v28.546c0 .545-.364.909-.91.909Zm-31.09 10c-.546 0-.91-.364-.91-.91v-4.726c0-.546.364-.91.91-.91.545 0 .909.364.909.91v4.727c0 .545-.364.909-.91.909Zm5.817 0c-.546 0-.91-.364-.91-.91v-4.726c0-.546.364-.91.91-.91.545 0 .908.364.908.91v4.727c0 .545-.363.909-.909.909Z"/><path fill="#282928" d="M27.729 29.364h-.182c-2.091-.364-4-1.182-5.637-2.364-.363-.272-.454-.818-.272-1.181.636-1.091.818-2.091.454-2.455s-1.363-.364-2.454.364c-.455.272-.91.09-1.182-.273-1.273-1.818-2.091-3.727-2.364-5.636-.09-.455.273-.91.727-1 1.182-.273 2-.91 2-1.455 0-.455-.727-1.182-2-1.455a.943.943 0 0 1-.727-1.09c.364-2.091 1.182-4 2.364-5.637.273-.363.818-.454 1.182-.273 1.09.637 2.09.819 2.454.455s.364-1.364-.363-2.545c-.273-.455-.182-.91.272-1.182a16.5 16.5 0 0 1 5.637-2.364c.454-.09.909.182 1.09.727.273 1.182.91 2 1.455 2 .455 0 1.182-.727 1.455-2a.943.943 0 0 1 1.09-.727c2.091.364 4 1.182 5.637 2.364.363.272.454.818.273 1.182-.637 1.09-.728 2.09-.364 2.454s1.364.364 2.454-.364c.364-.272 1-.181 1.273.273 1.273 1.818 2.091 3.727 2.364 5.636.09.455-.182.91-.637 1-1.363.364-2.09 1-2.09 1.455 0 .636.818 1.273 2.09 1.546.455.09.728.545.637 1.09A13.6 13.6 0 0 1 42 23.547c-.273.364-.818.454-1.182.273-1.09-.637-2.09-.819-2.454-.364-.364.364-.364 1.364.273 2.455.272.363.09.909-.273 1.181-1.818 1.273-3.727 2.091-5.637 2.364-.454.09-.909-.273-1-.727-.272-1.182-.909-2-1.454-2-.636 0-1.182.818-1.455 2-.272.363-.636.636-1.09.636Zm2.363-4.546c1.273 0 2.455 1 3 2.637 1.182-.273 2.364-.727 3.455-1.455-.637-1.545-.546-3 .363-3.909.819-.909 2.182-1.09 3.91-.363.636-1.091 1.09-2.273 1.454-3.546-1.636-.636-2.546-1.727-2.546-3.09 0-1.274 1-2.364 2.637-3-.273-1.183-.727-2.364-1.455-3.455-1.454.727-3 .636-3.909-.273-.909-.818-1.09-2.182-.363-3.91-1-.635-2.182-1.09-3.455-1.454-.636 1.546-1.727 2.546-3 2.546s-2.454-1-3-2.546a22 22 0 0 0-3.545 1.546c.727 1.545.636 3.09-.273 4-.91.909-2.273 1-3.91.273-.636 1-1.09 2.181-1.454 3.454 1.546.636 2.546 1.727 2.546 3 0 1.364-1 2.455-2.637 3 .273 1.182.728 2.364 1.455 3.455 1.545-.637 3-.546 3.909.363.91.91 1 2.273.273 3.91 1 .636 2.181 1.09 3.454 1.454.637-1.636 1.818-2.636 3.091-2.636Z"/><path fill="#282928" d="M30.002 23.365c-4.273 0-7.91-3.364-8.182-7.637a8.147 8.147 0 0 1 7.636-8.636c2.182-.182 4.273.545 5.91 2 1.636 1.454 2.636 3.454 2.727 5.636s-.546 4.273-2 5.91c-1.455 1.636-3.455 2.636-5.637 2.727zm-.364-14.546c-3.546.182-6.182 3.273-6 6.727.182 3.546 3.273 6.182 6.727 6 1.728-.09 3.273-.909 4.364-2.181s1.727-2.91 1.545-4.637c-.181-1.727-.909-3.272-2.181-4.363-1.182-1.091-2.819-1.637-4.455-1.546m.452 36.091h-.18c-.546 0-.91-.364-.91-.91 0-.545.364-.908.91-.908h.18c.546 0 .91.363.91.909 0 .545-.364.909-.91.909m-17.724-19H7.729c-.545 0-.909-.364-.909-.91v-4.636c0-.545.364-.909.91-.909h4.636c.545 0 .909.364.909.91V25c0 .545-.364.909-.91.909Zm-3.728-1.82h2.819v-2.818H8.638zm3.728 13.638H7.729c-.545 0-.909-.364-.909-.91v-4.636c0-.545.364-.909.91-.909h4.636c.545 0 .909.364.909.91v4.636c0 .545-.364.909-.91.909ZM8.638 35.91h2.819v-2.818H8.638zm43.728-10h-4.637c-.545 0-.909-.364-.909-.91v-4.636c0-.545.364-.909.91-.909h4.636c.545 0 .909.364.909.91V25c0 .545-.364.909-.91.909Zm-3.727-1.819h2.818v-2.818h-2.819v2.818Zm3.727 13.637h-4.637c-.545 0-.909-.364-.909-.91v-4.636c0-.545.364-.909.91-.909h4.636c.545 0 .909.364.909.91v4.636c0 .545-.364.909-.91.909Zm-3.727-1.818h2.818v-2.818h-2.819v2.818Zm-9.637 1.818h-4.636c-.545 0-.909-.364-.909-.91v-4.636c0-.545.364-.909.91-.909h4.636c.545 0 .909.364.909.91v4.636c0 .545-.364.909-.91.909m-3.727-1.818h2.818v-2.818h-2.818zm-9.546 1.818h-4.636c-.546 0-.91-.364-.91-.91v-4.636c0-.545.364-.909.91-.909h4.636c.546 0 .91.364.91.91v4.636c0 .545-.364.909-.91.909m-3.727-1.818h2.818v-2.818h-2.818z"/></svg>