<svg xmlns="http://www.w3.org/2000/svg" width="60" height="60" fill="none"><path fill="#282928" d="M21.563 11.25h1.875v1.875h-1.875zm3.75 0h1.875v1.875h-1.875zm3.75 0h1.875v1.875h-1.875zm5.625-5.625h1.874V7.5h-1.874z"/><path fill="#282928" d="M52.427 57.547a.94.94 0 0 0-.203-1.022l-5.438-5.438-1.767-7.07.911-6.375a1 1 0 0 0-.006-.3L44.05 27.055a2.966 2.966 0 0 0-2.8-2.68 2.8 2.8 0 0 0-.934.172V6.562a4.693 4.693 0 0 0-4.687-4.687H16.873a4.693 4.693 0 0 0-4.687 4.688v11.5a3.3 3.3 0 0 0-2.088.043 3.64 3.64 0 0 0-2.36 2.657 3.59 3.59 0 0 0 .957 3.325l2.772 2.771a3.504 3.504 0 0 0-1.724 4.298 3.56 3.56 0 0 0-3.016 3.53 3.59 3.59 0 0 0 1.052 2.538l1.534 1.534a3.55 3.55 0 0 0-1.535.89 3.59 3.59 0 0 0 0 5.076l3.75 3.75q.298.292.656.508v.705a4.693 4.693 0 0 0 4.687 4.687h8.987l3.476 3.475a.94.94 0 0 0 .664.275h21.563a.94.94 0 0 0 .866-.578M21.56 3.75h9.375v1.875H21.56zm-7.5 15.938V6.563a2.813 2.813 0 0 1 2.812-2.813h2.813v2.813a.937.937 0 0 0 .937.937h11.25a.937.937 0 0 0 .938-.938V3.75h2.812a2.81 2.81 0 0 1 2.813 2.813V45h-20.92a3.55 3.55 0 0 0-.91-1.6l-1.54-1.54a3.52 3.52 0 0 0 2.595-3.422 3.6 3.6 0 0 0-.203-1.134 3.5 3.5 0 0 0 2.488-1.679h4.427a.94.94 0 0 0 .938-.938v-5.624a.94.94 0 0 0-.938-.938h-5.625a.937.937 0 0 0-.937.938v.562l-2.147-2.146c-.447-.436-1-.748-1.603-.907zm5.625 11.868V30h3.75v3.75H20.47a3.57 3.57 0 0 0-.785-2.19zm-9.665-8.794a1.72 1.72 0 0 1-.453-1.593 1.77 1.77 0 0 1 1.177-1.3q.22-.08.455-.08c.355.006.699.12.986.328v4.81zm1.9 6.045c.328-.314.764-.49 1.218-.494a1.7 1.7 0 0 1 1.209.494l3.744 3.743c.324.323.507.761.51 1.219q-.002.314-.115.607a1.72 1.72 0 0 1-2.66.747l-3.903-3.893a1.7 1.7 0 0 1-.503-1.211c0-.454.18-.89.5-1.212M9.107 35.9a1.716 1.716 0 0 1 2.282-2.553l3.89 3.878a1.715 1.715 0 0 1-2.425 2.425L9.108 35.9Zm3.75 11.25-3.75-3.75a1.715 1.715 0 0 1 2.421-2.425l3.75 3.75a1.715 1.715 0 0 1-2.424 2.425zm4.015 5.35a2.813 2.813 0 0 1-2.812-2.813v-.164h.007a3.54 3.54 0 0 0 3.447-2.648h20.92v2.813a2.81 2.81 0 0 1-2.812 2.812zm13.513 3.75-1.875-1.875h7.112a4.693 4.693 0 0 0 4.688-4.688V27.183a.94.94 0 0 1 .937-.932c.49 0 .867.55.953 1.105l1.847 10.164-.916 6.41a1 1 0 0 0 .02.36l1.874 7.5a.94.94 0 0 0 .247.436l4.024 4.025h-18.91Z"/><path fill="#282928" d="M24.375 48.75h3.75v1.875h-3.75zm-5.625-22.5h5.625a.94.94 0 0 0 .938-.938v-5.625a.94.94 0 0 0-.938-.937H18.75a.94.94 0 0 0-.938.938v5.625a.94.94 0 0 0 .938.937m.938-5.625h3.75v3.75h-3.75zm7.5 4.688a.94.94 0 0 0 .937.937h5.625a.94.94 0 0 0 .938-.938v-5.625a.94.94 0 0 0-.938-.937h-5.625a.94.94 0 0 0-.938.938zm1.875-4.688h3.75v3.75h-3.75zm4.687 7.5h-5.625a.94.94 0 0 0-.938.938v5.625a.94.94 0 0 0 .938.937h5.625a.94.94 0 0 0 .938-.938v-5.624a.94.94 0 0 0-.938-.938m-.938 5.625h-3.75V30h3.75zm-11.249 7.5h1.875v1.875h-1.875zm3.75 0h1.875v1.875h-1.875zm3.75 0h1.875v1.875h-1.875z"/></svg>