<svg xmlns="http://www.w3.org/2000/svg" width="60" height="60" fill="none"><path fill="#282928" d="M13.762 42.431a2.54 2.54 0 0 0-1.379 3.328l1.304 3.16a2.56 2.56 0 0 0 3.328 1.378.695.695 0 0 1 .806.178c.61.735 1.284 1.413 2.016 2.025a.7.7 0 0 1 .187.778 2.56 2.56 0 0 0 1.378 3.328l3.16 1.303a2.55 2.55 0 0 0 3.328-1.378.695.695 0 0 1 .684-.422c.936.082 1.877.082 2.813 0a.71.71 0 0 1 .693.441 2.5 2.5 0 0 0 1.379 1.378c.297.124.615.191.937.197.322-.005.64-.072.938-.197l3.159-1.303a2.56 2.56 0 0 0 1.378-3.328.69.69 0 0 1 .178-.806 15 15 0 0 0 2.138-2.016.69.69 0 0 1 .806-.178 2.56 2.56 0 0 0 3.328-1.378l1.303-3.16a2.54 2.54 0 0 0-1.378-3.328.69.69 0 0 1-.44-.694c0-.478.065-.937.065-1.425h-1.875c0 .422 0 .835-.056 1.247a2.56 2.56 0 0 0 1.593 2.607.685.685 0 0 1 .366.88l-1.312 3.15a.675.675 0 0 1-.882.367 2.57 2.57 0 0 0-2.962.712 14 14 0 0 1-1.772 1.781 2.55 2.55 0 0 0-.712 2.953.675.675 0 0 1-.366.882l-3.206 1.303a.64.64 0 0 1-.507 0 .7.7 0 0 1-.365-.366 2.57 2.57 0 0 0-2.597-1.594c-.836.075-1.677.075-2.513 0a2.56 2.56 0 0 0-2.596 1.585.666.666 0 0 1-.872.347l-3.16-1.303a.675.675 0 0 1-.375-.863 2.56 2.56 0 0 0-.712-2.962 14 14 0 0 1-1.781-1.772 2.55 2.55 0 0 0-2.954-.713.675.675 0 0 1-.88-.365l-1.313-3.15a.693.693 0 0 1 .403-.938 2.53 2.53 0 0 0 1.556-2.54c0-.432-.056-.873-.056-1.294H14.09c0 .478 0 .937.065 1.462a.65.65 0 0 1-.393.703"/><path fill="#282928" d="M30 50.625a10.31 10.31 0 0 0 10.313-10.313h-1.876a8.437 8.437 0 1 1-16.874 0h-1.875A10.31 10.31 0 0 0 30 50.626ZM50.625 15a.94.94 0 0 0-.938-.938h-7.5a.94.94 0 0 0-.937.938v21.563h-6.563v-15a.94.94 0 0 0-.937-.938h-7.5a.94.94 0 0 0-.938.938v15H18.75v-8.438a.94.94 0 0 0-.938-.938h-7.5a.94.94 0 0 0-.937.938v8.438h-7.5v1.874h56.25v-1.874h-7.5zm-33.75 21.563H11.25v-7.5h5.625zm15.938 0h-5.626V22.5h5.625v14.063Zm15.937 0h-5.625V15.936h5.625v20.626ZM6.758 23.925 50.37 6.412 48.748 9.31l1.632.938 2.953-5.231a.94.94 0 0 0-.544-1.36l-5.766-1.781-.543 1.875 3.206.938L6.055 22.19l.703 1.734Z"/></svg>