<svg xmlns="http://www.w3.org/2000/svg" width="60" height="60" fill="none"><g fill="#282928" clip-path="url(#a)"><path d="M14.01 31.312h-2.522c-1.608 0-2.917-1.3-2.917-2.898a.879.879 0 1 0-1.758 0c0 2.567 2.098 4.656 4.675 4.656h2.521a.879.879 0 1 0 0-1.758M22.268 37.816h-7.509c-2.48 0-4.497 2.01-4.497 4.48a.879.879 0 1 0 1.758 0c0-1.5 1.229-2.722 2.74-2.722h7.508a.879.879 0 1 0 0-1.758M29.429 37.816h-3.646a.879.879 0 1 0 0 1.758h3.646a.879.879 0 1 0 0-1.758M23.249 20.74a.88.88 0 0 0-.88.88c0 2.512-2.056 4.557-4.584 4.557a.879.879 0 1 0 0 1.758c3.497 0 6.343-2.833 6.343-6.316a.88.88 0 0 0-.88-.879M21.63 7.453c-2.1-.134-3.92 1.457-4.057 3.55a.88.88 0 0 0 1.754.114 2.06 2.06 0 0 1 2.19-1.91.878.878 0 1 0 .112-1.754M18.673 41.73a.879.879 0 1 0 0 1.758 2.626 2.626 0 0 1 2.632 2.615 2.627 2.627 0 0 1-2.632 2.615.879.879 0 1 0 0 1.758c2.42 0 4.39-1.962 4.39-4.373s-1.97-4.373-4.39-4.373M27.668 21.035a.879.879 0 1 0 0 1.758 2.11 2.11 0 0 1 2.114 2.1 2.11 2.11 0 0 1-2.114 2.1.879.879 0 1 0 0 1.757c2.135 0 3.872-1.73 3.872-3.857s-1.737-3.858-3.872-3.858M12.186 15.445a.879.879 0 1 0 0 1.758c2.003 0 3.632 1.62 3.632 3.61 0 1.991-1.63 3.611-3.633 3.611a.879.879 0 1 0 0 1.758c2.973 0 5.391-2.408 5.391-5.369s-2.418-5.368-5.39-5.368M53.504 15.406a2.994 2.994 0 0 0-2.996 2.986 2.994 2.994 0 0 0 2.996 2.986 2.994 2.994 0 0 0 2.996-2.986 2.994 2.994 0 0 0-2.996-2.986m0 4.214c-.683 0-1.238-.55-1.238-1.228s.555-1.228 1.238-1.228 1.238.551 1.238 1.228-.555 1.228-1.238 1.228M56.44 37.9a2.994 2.994 0 0 0-2.996 2.986 2.994 2.994 0 0 0 2.996 2.986 2.994 2.994 0 0 0 2.996-2.986A2.994 2.994 0 0 0 56.44 37.9m0 4.214c-.682 0-1.238-.55-1.238-1.228s.556-1.228 1.238-1.228c.683 0 1.238.551 1.238 1.228s-.555 1.228-1.238 1.228M54.596 27.367c-.507 0-.984.127-1.403.35l-1.714-1.705a.879.879 0 0 0-1.24 1.246l1.71 1.7a2.96 2.96 0 0 0-.349 1.395 2.994 2.994 0 0 0 2.996 2.986 2.994 2.994 0 0 0 2.996-2.986 2.994 2.994 0 0 0-2.996-2.986m0 4.214c-.682 0-1.238-.55-1.238-1.228s.556-1.228 1.238-1.228c.683 0 1.239.551 1.239 1.228s-.556 1.228-1.239 1.228M52.615 47.074a2.994 2.994 0 0 0-2.996 2.986 2.994 2.994 0 0 0 2.996 2.986 2.994 2.994 0 0 0 2.996-2.986 2.994 2.994 0 0 0-2.996-2.986m0 4.214c-.683 0-1.238-.551-1.238-1.228s.555-1.228 1.238-1.228 1.238.55 1.238 1.228-.555 1.228-1.238 1.228"/><path d="M42.332 16.517c.559 0 1.225-.275 1.621-.67l3.396-3.378a2.994 2.994 0 0 0 4.097-2.776 2.994 2.994 0 0 0-2.996-2.985 2.994 2.994 0 0 0-2.996 2.985c0 .618.19 1.194.514 1.67l-3.254 3.239a.83.83 0 0 1-.382.157h-7.254V8.941h2.04a3 3 0 0 0 2.863 2.107 2.994 2.994 0 0 0 2.996-2.986 2.994 2.994 0 0 0-2.995-2.985 3 3 0 0 0-2.864 2.106h-2.04V7.05C35.078 3.163 31.9 0 27.997 0a7.08 7.08 0 0 0-6.438 4.114 8 8 0 0 0-.524-.019c-4.058 0-7.37 3.24-7.465 7.259a7.5 7.5 0 0 0-1.06-.075c-4.118 0-7.467 3.334-7.467 7.433 0 .9.158 1.77.47 2.599A10.05 10.05 0 0 0 .564 30c0 1.937.552 3.82 1.596 5.446a10.2 10.2 0 0 0 3.381 3.26 7.408 7.408 0 0 0 1.362 7.58.879.879 0 1 0 1.317-1.165 5.65 5.65 0 0 1-.767-6.379 5.7 5.7 0 0 1 2.33-2.356.879.879 0 1 0-.836-1.546 7.46 7.46 0 0 0-2.58 2.31A8.29 8.29 0 0 1 2.322 30c0-3.171 1.757-6.014 4.592-7.453 0 0 1.641-.913 3.82-.913a.879.879 0 1 0 0-1.757c-1.277 0-2.5.236-3.626.666a5.6 5.6 0 0 1-.307-1.83c0-3.13 2.561-5.677 5.709-5.677.591 0 1.177.091 1.74.27a.88.88 0 0 0 1.135-.963 6 6 0 0 1-.059-.813c0-3.13 2.561-5.677 5.709-5.677q.465 0 .94.079c2.701.447 4.768 2.786 4.768 5.598a.879.879 0 1 0 1.758 0c0-3.294-2.163-6.092-5.148-7.065a5.33 5.33 0 0 1 4.644-2.707c2.935 0 5.323 2.374 5.323 5.292v.098h-1.69a.879.879 0 1 0 0 1.758h1.69v5.853H26.21c-1.608 0-2.917-1.3-2.917-2.898a.879.879 0 1 0-1.758 0c0 2.567 2.098 4.656 4.675 4.656h7.109v14.796H19.063a.879.879 0 1 0 0 1.757H33.32v12.068h-2.716c-2.48 0-4.498 2.01-4.498 4.48a.879.879 0 1 0 1.758 0c0-1.501 1.23-2.722 2.74-2.722h2.716v6.054q0 .206-.018.41H31.63a.879.879 0 1 0 0 1.757h1.222a5.33 5.33 0 0 1-4.854 3.125 5.33 5.33 0 0 1-4.629-2.68 7.44 7.44 0 0 0 2.862-1.724.879.879 0 1 0-1.22-1.265 5.7 5.7 0 0 1-3.022 1.521q-.482.081-.953.081c-3.148 0-5.71-2.546-5.71-5.676q.002-.12.01-.246a7.5 7.5 0 0 0 1.97-1.18.88.88 0 0 0 .111-1.238.89.89 0 0 0-1.238-.111c-1.764 1.385-3.47 1.364-4.152 1.307a.878.878 0 1 0-.145 1.752c.562.047 1.134.03 1.69-.05.126 3.992 3.426 7.2 7.464 7.2q.266 0 .537-.02A7.09 7.09 0 0 0 27.997 60c3.904 0 7.08-3.163 7.08-7.05v-1.943h4.66a.8.8 0 0 1 .381.158l2.096 2.085a2.96 2.96 0 0 0-.448 1.568 2.994 2.994 0 0 0 2.996 2.985 2.994 2.994 0 0 0 2.996-2.985 2.994 2.994 0 0 0-4.216-2.726l-2.184-2.173c-.396-.394-1.062-.67-1.62-.67h-4.66v-4.698h7.64a3 3 0 0 0 2.864 2.107 2.994 2.994 0 0 0 2.996-2.986 2.994 2.994 0 0 0-2.996-2.985 3 3 0 0 0-2.864 2.107h-7.64v-5.888h9.143a3 3 0 0 0 2.863 2.107 2.994 2.994 0 0 0 2.996-2.986 2.994 2.994 0 0 0-2.996-2.986 3 3 0 0 0-2.863 2.107h-9.143v-6.397h2.177a3 3 0 0 0 2.863 2.107 2.994 2.994 0 0 0 2.996-2.986 2.994 2.994 0 0 0-2.996-2.985 3 3 0 0 0-2.863 2.106h-2.177v-5.072h9.576a.83.83 0 0 1 .382.158l1.805 1.796a.876.876 0 0 0 1.243-.003.88.88 0 0 0-.003-1.243l-1.806-1.796a2.49 2.49 0 0 0-1.62-.67h-9.577v-3.646zm6.118-8.051c.683 0 1.238.55 1.238 1.227s-.555 1.228-1.238 1.228-1.238-.55-1.238-1.228.555-1.227 1.238-1.227m-8.469-1.632c.683 0 1.239.551 1.239 1.228S40.664 9.29 39.98 9.29c-.682 0-1.238-.55-1.238-1.228s.556-1.228 1.238-1.228m4.781 46.756c.683 0 1.238.55 1.238 1.228s-.555 1.227-1.238 1.227-1.238-.55-1.238-1.227.556-1.228 1.238-1.228m.82-11.145c.682 0 1.238.55 1.238 1.227 0 .678-.556 1.228-1.238 1.228-.683 0-1.239-.55-1.239-1.227 0-.678.556-1.228 1.239-1.228m1.502-7.646c.683 0 1.238.551 1.238 1.228s-.555 1.228-1.238 1.228-1.238-.55-1.238-1.228.555-1.228 1.238-1.228m-6.966-8.155c.683 0 1.238.551 1.238 1.228s-.555 1.228-1.238 1.228-1.238-.55-1.238-1.228.555-1.228 1.238-1.228"/></g><defs><clipPath id="a"><path fill="#fff" d="M0 0h60v60H0z"/></clipPath></defs></svg>