<svg xmlns="http://www.w3.org/2000/svg" width="60" height="60" fill="none"><path fill="#282928" d="m55.155 41.076-.982-.484-22.121 10.907a4.66 4.66 0 0 1-4.104 0L5.827 40.592l-.982.484A1.51 1.51 0 0 0 4 42.425c0 .571.327 1.093.845 1.349L29.316 55.84c.43.212.938.212 1.368 0l24.47-12.066c.519-.256.846-.778.846-1.35 0-.57-.327-1.093-.846-1.348"/><path fill="#282928" d="m55.155 33.403-.982-.514-22.121 11.589a4.42 4.42 0 0 1-4.104 0L5.827 32.888l-.982.515A1.61 1.61 0 0 0 4 34.836c0 .607.327 1.162.845 1.434l24.471 12.82c.43.225.938.225 1.368 0l24.47-12.82c.519-.272.846-.827.846-1.434s-.327-1.162-.846-1.433M16.721 21.628l3.02 5.189c.417.716 1.34.962 2.063.548l1.243-.712a11.4 11.4 0 0 0 2.423 1.398v1.414c0 .827.676 1.498 1.51 1.498h6.04c.834 0 1.51-.67 1.51-1.498v-1.414q1.291-.547 2.423-1.398l1.243.712a1.517 1.517 0 0 0 2.063-.548l3.02-5.19a1.49 1.49 0 0 0-.553-2.046l-1.238-.709a11.2 11.2 0 0 0 0-2.781l1.238-.71c.723-.413.97-1.33.553-2.046l-3.02-5.189a1.516 1.516 0 0 0-2.063-.548l-1.243.712a11.4 11.4 0 0 0-2.423-1.398V5.498C34.53 4.67 33.854 4 33.02 4h-6.04c-.834 0-1.51.67-1.51 1.498v1.414c-.859.364-1.67.831-2.423 1.398l-1.243-.712a1.517 1.517 0 0 0-2.063.548l-3.02 5.19a1.49 1.49 0 0 0 .553 2.045l1.238.71a11.1 11.1 0 0 0 0 2.781l-1.238.71a1.49 1.49 0 0 0-.553 2.046M30 12.988c2.498 0 4.53 2.016 4.53 4.494s-2.032 4.493-4.53 4.493-4.53-2.016-4.53-4.494 2.032-4.493 4.53-4.493"/><path fill="#282928" d="m4.845 29.275 24.471 12.121c.43.213.938.213 1.368 0l24.47-12.12c.519-.257.846-.782.846-1.356s-.327-1.099-.846-1.355l-8.616-4.268a4.5 4.5 0 0 1-.439 1.029l-3.059 5.249a4.61 4.61 0 0 1-3.975 2.273 4.6 4.6 0 0 1-1.5-.251c-.407 2.097-2.273 3.686-4.506 3.686H26.94c-2.233 0-4.1-1.589-4.506-3.686a4.61 4.61 0 0 1-5.475-2.023L13.9 23.326a4.6 4.6 0 0 1-.441-1.028l-8.615 4.267A1.51 1.51 0 0 0 4 27.92c0 .574.327 1.099.845 1.355"/></svg>