<svg xmlns="http://www.w3.org/2000/svg" width="56.25" height="56.25"><path d="M53.438 0H2.813A2.816 2.816 0 0 0 0 2.813v39.375a2.816 2.816 0 0 0 2.813 2.813h17.549l-2.344 9.374h-3.955v1.875h28.125v-1.875h-3.956L35.888 45h17.55a2.816 2.816 0 0 0 2.813-2.812V2.813A2.816 2.816 0 0 0 53.439.001ZM2.813 1.875h50.625a.94.94 0 0 1 .938.938v.938H7.5v1.874h46.875V37.5h-52.5V2.813a.94.94 0 0 1 .938-.937Zm33.487 52.5H19.951L22.295 45h11.661Zm17.138-11.25H2.813a.94.94 0 0 1-.937-.937v-2.813h52.5v2.813a.94.94 0 0 1-.937.938Z"/><path d="M3.75 3.75h1.875v1.875H3.75ZM12.188 7.5h1.875v28.125h-1.875ZM19.025 14.725l1.326-1.326-2.15-2.15 2.15-2.15-1.326-1.324-2.812 2.813a.937.937 0 0 0 0 1.326ZM21.614 13.725l1.873-4.685 1.74.7-1.873 4.685ZM27.85 14.725l2.813-2.812a.937.937 0 0 0 0-1.326L27.85 7.775l-1.325 1.326 2.15 2.15-2.15 2.15ZM32.813 10.313H52.5v1.875H32.813ZM34.962 28.4l-2.812 2.812a.937.937 0 0 0 0 1.326l2.813 2.813 1.325-1.326-2.15-2.15 2.15-2.15ZM37.536 34.344l1.873-4.685 1.74.7-1.873 4.685ZM43.788 28.4l-1.326 1.325 2.15 2.15-2.15 2.15 1.326 1.326 2.813-2.812a.937.937 0 0 0 0-1.326ZM19.688 29.063H30v1.875H19.688ZM31.875 14.063h15.938v1.875H31.875ZM15.938 17.813h23.437v1.875H15.938ZM17.813 21.563h31.875v1.875H17.813ZM15.938 25.313h13.125v1.875H15.938ZM17.813 32.813h10.312v1.875H17.813ZM3.75 8.438h4.688v1.875H3.75ZM3.75 13.125h4.688V15H3.75ZM3.75 17.813h4.688v1.875H3.75ZM5.625 22.5h4.688v1.875H5.625ZM5.625 27.188h4.688v1.875H5.625ZM5.625 31.875h4.688v1.875H5.625Z"/></svg>