<svg xmlns="http://www.w3.org/2000/svg" width="36.563" height="34.944"><path fill-rule="evenodd" d="M18.373 7.271a10.394 10.394 0 0 1 10.382 10.381c0 .135 0 .271-.009.407a4.6 4.6 0 0 1 1.455-.213 3.84 3.84 0 0 1 2.928 1.148 3.4 3.4 0 0 1 .777 1.372l1.638-.076a.5.5 0 0 0 .481-.5v-4.271a.5.5 0 0 0-.481-.5l-2.577-.119a1.42 1.42 0 0 1-1.319-1.044 13.8 13.8 0 0 0-1.2-2.9 1.42 1.42 0 0 1 .195-1.673l1.738-1.907a.5.5 0 0 0-.016-.7l-3.018-3.014a.5.5 0 0 0-.7-.016l-1.904 1.739a1.42 1.42 0 0 1-1.673.195 13.8 13.8 0 0 0-2.9-1.2 1.42 1.42 0 0 1-1.045-1.32L21.006.483a.5.5 0 0 0-.5-.481H16.24a.5.5 0 0 0-.5.481l-.12 2.577a1.425 1.425 0 0 1-1.044 1.32 13.8 13.8 0 0 0-2.9 1.2 1.42 1.42 0 0 1-1.673-.195L8.095 3.646a.5.5 0 0 0-.7.016L4.381 6.678a.5.5 0 0 0-.016.7l1.739 1.908a1.42 1.42 0 0 1 .195 1.673 13.7 13.7 0 0 0-1.2 2.9 1.42 1.42 0 0 1-1.318 1.036l-2.577.12a.5.5 0 0 0-.481.5v4.266a.5.5 0 0 0 .481.5l1.457.068a3.4 3.4 0 0 1 .774-1.364 3.85 3.85 0 0 1 2.934-1.148 4.4 4.4 0 0 1 1.636.281 11 11 0 0 1-.012-.474 10.4 10.4 0 0 1 10.38-10.373m9.166 16.33a4.01 4.01 0 0 1 .4-3.949 2.9 2.9 0 0 1 2.265-.867 2.93 2.93 0 0 1 2.259.867 4.01 4.01 0 0 1 .4 3.949 2.858 2.858 0 0 1-5.318 0Zm.545 4.736a8.3 8.3 0 0 1 1.233 4.374v2.234h6.308a.94.94 0 0 0 .937-.937v-.641a4.876 4.876 0 0 0-4.666-5.052h-3.4a4 4 0 0 0-.415.021Zm-10.143-.216-.855 3.12 1.195 2.219 1.209-2.245-.864-3.086a1.8 1.8 0 0 1 .274-1.565l.947-1.325h-3.132l.949 1.329a1.8 1.8 0 0 1 .277 1.553m-4.9-2.413 4.827 8.963a.468.468 0 0 0 .825 0l4.824-8.961a7.45 7.45 0 0 1 4.862 7v2.234h-3.415v-2.473a.469.469 0 0 0-.937 0v2.477H12.534v-2.477a.469.469 0 0 0-.937 0v2.477H8.181V32.71a7.45 7.45 0 0 1 4.862-7.001Zm-8.377 2.6A4.877 4.877 0 0 0-.002 33.36v.641a.94.94 0 0 0 .938.938h6.309V32.71a8.3 8.3 0 0 1 1.236-4.374 4 4 0 0 0-.416-.022Zm4.357-4.713a2.74 2.74 0 0 1-2.659 1.81 2.74 2.74 0 0 1-2.659-1.81 4.01 4.01 0 0 1 .4-3.949 2.9 2.9 0 0 1 2.266-.867 2.92 2.92 0 0 1 2.259.867 4.01 4.01 0 0 1 .395 3.954Zm12.689-9.694c1.2 1.225 1.482 3.9.619 5.956a4.355 4.355 0 0 1-8.1 0c-.863-2.059-.585-4.73.62-5.956a4.45 4.45 0 0 1 3.432-1.315 4.44 4.44 0 0 1 3.431 1.32Z"/></svg>