<svg xmlns="http://www.w3.org/2000/svg" width="36.506" height="36.748"><path fill-rule="evenodd" d="M24.664 3.181a1.51 1.51 0 0 1 1.476 1.855l1.753 1.055a1.51 1.51 0 0 1 1.722-.184l2.12-1.992a1.5 1.5 0 0 1-.144-.644 1.516 1.516 0 1 1 .786 1.328l-2.124 1.992a1.515 1.515 0 1 1-2.886.643 1.5 1.5 0 0 1 .04-.34L25.653 5.84a1.51 1.51 0 0 1-1.744.171l-2.085 1.891a1.52 1.52 0 1 1-.63-.695l2.087-1.891a1.513 1.513 0 0 1 1.382-2.135Zm11.372 12.146h-1.689v-8.2h-2.481v8.2h-1.739v-4.852h-2.482v4.852h-1.74V8.614h-2.482v6.713h-1.739v-3.771h-2.482v3.771h-1.69a.469.469 0 1 0 0 .938h18.524a.469.469 0 1 0 0-.937ZM31.73 19.26l-.349-.041v4.156h4.15l-.041-.349a4.305 4.305 0 0 0-3.759-3.766Zm-2.562 1.649a4.3 4.3 0 1 0 4.772 4.772l.041-.349h-4.307a.157.157 0 0 1-.156-.156v-4.308Zm.091-3.285H18.524a.47.47 0 0 0-.424.268l-1.147 2.417a.469.469 0 1 0 .848.4l1.016-2.148h10.44a.469.469 0 1 0 0-.937ZM6.706 16.455c-1.136 1.155-1.4 3.677-.582 5.62a3.99 3.99 0 0 0 3.818 2.6 3.985 3.985 0 0 0 3.811-2.6c.815-1.944.554-4.465-.581-5.62A4.19 4.19 0 0 0 9.94 15.21a4.2 4.2 0 0 0-3.234 1.245m4.673 10.75H8.503l.873 1.221a1.74 1.74 0 0 1 .266 1.5l-.808 2.947 1.106 2.055 1.12-2.08-.816-2.916a1.73 1.73 0 0 1 .264-1.5ZM.589 11.475h7.834l.738 1.56a.47.47 0 0 0 .423.269.46.46 0 0 0 .2-.045.467.467 0 0 0 .224-.623l-.865-1.83a.47.47 0 0 0-.423-.268H.589a.469.469 0 0 0 0 .938Zm29.377 21.357h-3.08a.47.47 0 0 0-.469.469v2.334a.47.47 0 0 0 .469.469h3.08a.47.47 0 0 0 .469-.469v-2.334a.47.47 0 0 0-.469-.469m4.587-.057h-3.208a.469.469 0 0 0 0 .938h3.208a.469.469 0 1 0 0-.937Zm0 2.071h-3.208a.469.469 0 0 0 0 .938h3.208a.469.469 0 1 0 0-.937Zm0-4.115h-7.881a.47.47 0 0 0-.282.095l-2.72 2.054a.469.469 0 0 0 .283.843.46.46 0 0 0 .282-.095l2.594-1.953h7.724a.469.469 0 1 0 0-.937ZM1.653 7.383a4.326 4.326 0 0 1 0-6.116 4.325 4.325 0 1 1 0 6.116m.474-.473a3.655 3.655 0 1 0 0-5.169 3.644 3.644 0 0 0 .005 5.168Zm.662-.662a2.718 2.718 0 1 1 3.844 0 2.72 2.72 0 0 1-3.839-.001Zm.644-2.707a1.2 1.2 0 0 0 1.283 1.253c.245 0 .341.089.341.316a.334.334 0 0 1-.341.316.35.35 0 0 1-.267-.12.469.469 0 1 0-.711.611 1.3 1.3 0 0 0 .509.358v.17a.469.469 0 0 0 .938 0v-.17a1.26 1.26 0 0 0 .81-1.166 1.2 1.2 0 0 0-1.279-1.253c-.245 0-.341-.089-.341-.316a.334.334 0 0 1 .341-.316.35.35 0 0 1 .277.133.469.469 0 1 0 .741-.574 1.3 1.3 0 0 0-.549-.408v-.17a.469.469 0 1 0-.937 0v.17a1.255 1.255 0 0 0-.81 1.165Zm10.1-.368h3.271a.31.31 0 0 0 .313-.312V.381a.31.31 0 0 0-.312-.312h-3.271a.31.31 0 0 0-.312.312v2.478a.31.31 0 0 0 .312.316Zm5.1-1.909h4.931a.469.469 0 1 0 0-.937h-4.926a.469.469 0 1 0 0 .937Zm0 1.653h2.145a.469.469 0 0 0 0-.937h-2.14a.469.469 0 1 0 0 .937Zm-3.58 24.375-.32-.12-4.725 8.777a.078.078 0 0 1-.138 0l-4.725-8.774-.32.12a7.43 7.43 0 0 0-4.826 6.972v2.484h19.88v-2.487a7.43 7.43 0 0 0-4.826-6.972"/></svg>