<svg xmlns="http://www.w3.org/2000/svg" width="60" height="60" fill="none"><path fill="#282928" d="M52.32 38.82c-1.74 0-3.18 1.2-3.6 2.82H45V34.8h.54C51.66 34.8 57 29.46 57 23.4c0-5.28-3.06-9.42-8.04-10.92-.48-3.84-3-6.96-6.66-8.34s-7.68-.6-10.56 1.92c-2.82-1.26-6.3-1.26-9.42.06-2.7 1.14-4.74 3.18-5.7 5.64-1.8-.12-3.6.48-4.98 1.74s-2.16 2.94-2.16 4.74C5.7 19.14 3 22.44 3 26.46c0 4.56 3.84 8.4 8.4 8.4H15v6.78h-3.72c-.42-1.62-1.86-2.82-3.6-2.82-2.04 0-3.72 1.68-3.72 3.72s1.68 3.72 3.72 3.72c1.74 0 3.18-1.2 3.6-2.82h4.62c.48 0 .9-.42.9-.9V34.8h5.28v9.3l-3.48 3.48c-.54-.36-1.2-.54-1.92-.54-2.04 0-3.72 1.68-3.72 3.72s1.68 3.72 3.72 3.72 3.72-1.68 3.72-3.72c0-.72-.18-1.32-.54-1.92l3.66-3.66c.18-.18.24-.42.24-.66V34.8h5.28v14.46c-1.62.42-2.82 1.86-2.82 3.6 0 2.04 1.68 3.72 3.72 3.72s3.72-1.68 3.72-3.72c0-1.74-1.2-3.18-2.82-3.6V34.8h5.28v9.72c0 .24.12.48.24.66l3.66 3.66c-.36.54-.54 1.2-.54 1.92 0 2.04 1.68 3.72 3.72 3.72s3.72-1.68 3.72-3.72-1.68-3.72-3.72-3.72c-.72 0-1.32.18-1.92.54l-3.42-3.42V34.8h5.34v7.68c0 .48.42.9.9.9h4.62c.42 1.62 1.86 2.82 3.6 2.82 2.04 0 3.72-1.68 3.72-3.72s-1.68-3.66-3.72-3.66M7.68 44.4c-1.02 0-1.92-.84-1.92-1.92 0-1.02.84-1.92 1.92-1.92 1.02 0 1.92.84 1.92 1.92s-.9 1.92-1.92 1.92m9.06 8.22c-1.02 0-1.92-.84-1.92-1.92 0-1.02.84-1.92 1.92-1.92 1.02 0 1.92.84 1.92 1.92-.06 1.08-.9 1.92-1.92 1.92m15.18.24c0 1.02-.84 1.92-1.92 1.92-1.02 0-1.92-.84-1.92-1.92 0-1.02.84-1.92 1.92-1.92 1.02 0 1.92.84 1.92 1.92m13.26-2.16c0 1.02-.84 1.92-1.92 1.92-1.02 0-1.92-.84-1.92-1.92 0-1.02.84-1.92 1.92-1.92 1.08.06 1.92.9 1.92 1.92M4.8 26.46c0-3.42 2.34-6.12 5.76-6.54.48-.06.84-.48.78-.96-.12-1.56.42-3 1.56-4.08.9-.84 2.1-1.32 3.3-1.32.3 0 .6 0 .9.06.48.06.9-.18 1.02-.66.6-2.22 2.4-4.14 4.92-5.22 2.82-1.2 6.06-1.14 8.46.12.36.18.78.12 1.08-.18 2.4-2.4 5.88-3.18 9.12-1.98 3.18 1.2 5.34 4.02 5.58 7.44 0 .36.3.72.66.78 4.5 1.26 7.26 4.86 7.26 9.48 0 5.1-4.5 9.6-9.66 9.6H11.4c-3.6 0-6.6-3-6.6-6.54M52.32 44.4c-1.02 0-1.92-.84-1.92-1.92 0-1.02.84-1.92 1.92-1.92 1.02 0 1.92.84 1.92 1.92s-.84 1.92-1.92 1.92"/></svg>