<svg xmlns="http://www.w3.org/2000/svg" width="37.813" height="37.812"><path d="M27.006 35.111a2.7 2.7 0 0 1-5.4 0ZM16.206 35.111a2.7 2.7 0 1 1-5.4 0ZM18.906 21.606a1.35 1.35 0 1 0-1.351-1.35 1.35 1.35 0 0 0 1.351 1.35"/><path d="M20.256 14.855v-1.349h2.7a5.4 5.4 0 0 0 5.4-5.4v-2.7a5.4 5.4 0 0 0-5.4-5.4h-8.1a5.4 5.4 0 0 0-5.4 5.4v2.7a5.4 5.4 0 0 0 5.4 5.4h2.7v1.351a9.453 9.453 0 0 0-9.45 9.449v6.752a2.7 2.7 0 0 0 2.7 2.7h16.2a2.7 2.7 0 0 0 2.7-2.7v-6.752a9.453 9.453 0 0 0-9.45-9.451m2.026-12.154a2.026 2.026 0 1 1-2.026 2.025 2.03 2.03 0 0 1 2.026-2.025m-8.776 2.025a2.026 2.026 0 1 1 2.026 2.026 2.03 2.03 0 0 1-2.026-2.026m3.374 6.08a.675.675 0 0 1 0-1.35h4.051a.675.675 0 1 1 0 1.35Zm-2.223 19.1a.675.675 0 1 1-.955.955l-2.7-2.7a.675.675 0 0 1 0-.955l2.7-2.7a.675.675 0 0 1 .955.955l-2.224 2.224Zm6.816-4.52-4.051 5.4a.676.676 0 0 1-1.081-.81l4.051-5.4a.676.676 0 0 1 1.081.81m-2.567-2.429a2.7 2.7 0 1 1 2.7-2.7 2.7 2.7 0 0 1-2.7 2.7m7.9 5.2-2.7 2.7a.675.675 0 0 1-.951-.951l2.223-2.223-2.223-2.224a.675.675 0 0 1 .951-.953l2.7 2.7a.675.675 0 0 1 0 .955Z"/><path d="M5.406 14.179V9.452h1.35a1.35 1.35 0 0 0 1.35-1.346v-2.7a1.35 1.35 0 1 0-2.7 0v1.35h-2.7V5.401a1.35 1.35 0 1 0-2.7 0v2.705a1.35 1.35 0 0 0 1.35 1.35h1.35v5.4a1.35 1.35 0 0 0 .54 1.08l4.316 3.24 1.62-2.161ZM32.406 14.179V9.452h-1.35a1.35 1.35 0 0 1-1.35-1.346v-2.7a1.35 1.35 0 1 1 2.7 0v1.35h2.7V5.401a1.35 1.35 0 0 1 2.7 0v2.705a1.35 1.35 0 0 1-1.351 1.35h-1.35v5.4a1.35 1.35 0 0 1-.54 1.08l-4.315 3.24-1.62-2.161Z"/></svg>