<svg xmlns="http://www.w3.org/2000/svg" width="37.3" height="38.097"><path fill-rule="evenodd" d="M37.3 14.598a16.14 16.14 0 0 0-9.436.956.39.39 0 0 0-.223.49l4.443 12.829a.385.385 0 0 0 .369.263H37.3ZM10.132 0A3.041 3.041 0 1 1 7.05 3.041 3.06 3.06 0 0 1 10.132 0m8.518 2.249a3.041 3.041 0 1 1-3.079 3.041 3.06 3.06 0 0 1 3.079-3.041M27.168 0a3.041 3.041 0 1 1-3.079 3.041A3.06 3.06 0 0 1 27.168 0M13.403 22.124a1.97 1.97 0 0 1 .651-1.508l3.214-3.022c1.871-1.759 3.6-1.409 5.781-.718a16 16 0 0 0 3.948.886l3.511 10.139c-.424.211-.859.42-1.333.613a2.02 2.02 0 0 1-2.248-.452l-7.005-7a.584.584 0 0 0-.8-.022l-.255.211a4.14 4.14 0 0 0-1.92 3.156 2.84 2.84 0 0 1-1.124 2.229 4.73 4.73 0 0 1-2.419.968Zm-3.235-3.975a12 12 0 0 0 1.667.3 12 12 0 0 0 2.869-.053l-1.454 1.369a3.17 3.17 0 0 0-1.021 2.359v6.1a.586.586 0 0 0 .586.586 6.05 6.05 0 0 0 3.742-1.267 3.97 3.97 0 0 0 1.559-3.136 3 3 0 0 1 1.354-2.142l6.631 6.627a3.3 3.3 0 0 0 1.076.719l.8.839a1.247 1.247 0 1 1-1.753 1.774c-1.286-1.286-2.549-2.6-3.821-3.9a.584.584 0 0 0-.838.815l3.488 3.576a1.247 1.247 0 0 1-1.763 1.763c-1.341-1.341-2.657-2.708-3.983-4.066a.584.584 0 1 0-.838.815l3.488 3.576a1.256 1.256 0 0 1 0 1.763 1.335 1.335 0 0 1-1.763 0c-1.456-1.456-2.885-2.934-4.324-4.408a.584.584 0 1 0-.838.815l3.488 3.576a.91.91 0 0 1-1.273 1.3c-.014.014-5.739-5.879-6.261-6.413a15.9 15.9 0 0 0-4.226-3.443Zm3.369-3.478h10.225v-2.45a4.36 4.36 0 0 0-2.263-3.813 4.28 4.28 0 0 1-5.7 0 4.36 4.36 0 0 0-2.263 3.813v2.45Zm11.4-2.244v-.206a5.52 5.52 0 0 0-2.27-4.456 4.4 4.4 0 0 1 1.654-1.6 4.277 4.277 0 0 0 5.7 0 4.36 4.36 0 0 1 2.263 3.813v2.45Zm-19.915 0v-2.45a4.36 4.36 0 0 1 2.26-3.81 4.277 4.277 0 0 0 5.7 0 4.4 4.4 0 0 1 1.654 1.6 5.52 5.52 0 0 0-2.27 4.456v.206ZM0 14.598v14.537h4.85a.385.385 0 0 0 .369-.263l4.443-12.829a.39.39 0 0 0-.223-.49A16.15 16.15 0 0 0 0 14.598"/></svg>