<svg xmlns="http://www.w3.org/2000/svg" width="60" height="60"><defs><clipPath id="a"><path d="M0 0h60v60H0z"/></clipPath></defs><g clip-path="url(#a)"><path d="M48.859 39.727v-3.188H30.938v1.406a.938.938 0 0 1-1.875 0v-1.406H10.26v3.187a.937.937 0 1 1-1.875 0V35.6a.94.94 0 0 1 .938-.937h19.74v-1.404a.938.938 0 0 1 1.875 0v1.405H49.8a.94.94 0 0 1 .938.938v4.125a.938.938 0 0 1-1.875 0ZM5.973 57.9a.937.937 0 0 1-.747-1.5L6.8 54.315v-.531H.938A.94.94 0 0 1 0 52.846V42.687a.94.94 0 0 1 .938-.937h16.77a.937.937 0 0 1 .938.938v10.158a.94.94 0 0 1-.937.938H11.84v.531l1.58 2.085a.937.937 0 0 1-.747 1.5Zm-4.1-6h14.9v-8.276H1.875Zm6.8 1.875v.846a.94.94 0 0 1-.19.566l-.631.834h2.928l-.631-.834a.94.94 0 0 1-.19-.566v-.846ZM59.88 55.92a1.39 1.39 0 0 1-.121 1.325 1.47 1.47 0 0 1-1.2.652H41.224a1.47 1.47 0 0 1-1.2-.652 1.39 1.39 0 0 1-.121-1.325l1.778-4.305a2 2 0 0 1 .055-.116V43.18a1.43 1.43 0 0 1 1.43-1.43h13.458a1.43 1.43 0 0 1 1.43 1.43v8.327q.03.056.055.116ZM43.61 43.624v7.114h12.569v-7.114ZM57.9 56.029l-1.411-3.416H43.3l-1.411 3.416Zm-24.645-16.32a1.82 1.82 0 0 1 1.816 1.816v14.564a1.82 1.82 0 0 1-1.816 1.811h-7.391a1.82 1.82 0 0 1-1.816-1.816V41.525a1.82 1.82 0 0 1 1.816-1.816Zm-.055 1.875h-7.277v14.445H33.2Zm-5.28 12.349a1.64 1.64 0 1 1 1.64 1.64 1.64 1.64 0 0 1-1.64-1.64m1.405 0a.235.235 0 1 0 .235-.235.23.23 0 0 0-.235.235M42.137 9.345 40.158 11.9q.228.483.409.987l3.209.411a.94.94 0 0 1 .818.93v4.916a.94.94 0 0 1-.819.93l-3.209.411q-.181.5-.409.987l1.979 2.56a.94.94 0 0 1-.079 1.236l-3.476 3.476a.94.94 0 0 1-1.236.079l-2.56-1.979q-.483.228-.987.409l-.411 3.209a.94.94 0 0 1-.93.819h-4.915a.94.94 0 0 1-.93-.819l-.412-3.206q-.5-.181-.987-.409l-2.56 1.979a.94.94 0 0 1-1.236-.079l-3.476-3.476a.94.94 0 0 1-.079-1.236l1.979-2.56q-.227-.483-.409-.987l-3.209-.411a.94.94 0 0 1-.819-.93v-4.915a.94.94 0 0 1 .819-.93l3.209-.411q.18-.503.409-.987l-1.979-2.56a.94.94 0 0 1 .079-1.236l3.476-3.476a.94.94 0 0 1 1.236-.079l2.56 1.979q.483-.228.987-.409l.411-3.21a.94.94 0 0 1 .93-.818h4.916a.94.94 0 0 1 .93.818l.411 3.21q.5.181.987.409l2.56-1.979a.94.94 0 0 1 1.236.079l3.476 3.476a.94.94 0 0 1 .08 1.237m-2.395 5.331a.94.94 0 0 1-.779-.662 9.3 9.3 0 0 0-.733-1.769.94.94 0 0 1 .083-1.02l1.836-2.375-2.31-2.309-2.375 1.837a.94.94 0 0 1-1.02.083 9.3 9.3 0 0 0-1.768-.733.94.94 0 0 1-.662-.779l-.381-2.978h-3.266l-.381 2.978a.94.94 0 0 1-.662.779 9.3 9.3 0 0 0-1.768.733.94.94 0 0 1-1.02-.083l-2.375-1.837-2.309 2.31 1.836 2.375a.94.94 0 0 1 .083 1.02 9.3 9.3 0 0 0-.733 1.769.94.94 0 0 1-.779.662l-2.978.381v3.266l2.977.381a.94.94 0 0 1 .779.662 9.3 9.3 0 0 0 .733 1.769.94.94 0 0 1-.083 1.02l-1.836 2.375 2.309 2.309L24.536 25a.94.94 0 0 1 1.02-.083 9.3 9.3 0 0 0 1.768.733.94.94 0 0 1 .662.779l.381 2.977h3.266l.381-2.977a.94.94 0 0 1 .662-.779 9.3 9.3 0 0 0 1.769-.733.94.94 0 0 1 1.02.083l2.375 1.836 2.309-2.309-1.836-2.375a.94.94 0 0 1-.083-1.02 9.3 9.3 0 0 0 .733-1.769.94.94 0 0 1 .779-.662l2.977-.381v-3.263ZM36.87 16.69A6.87 6.87 0 1 1 30 9.82a6.88 6.88 0 0 1 6.87 6.87m-1.87 0a5 5 0 1 0-5 5 5 5 0 0 0 5-5"/></g></svg>