<svg xmlns="http://www.w3.org/2000/svg" width="58.125" height="47.313"><path d="M57.187 45.438h-1.725V13.083a.94.94 0 0 0-.937-.937h-7.389a.94.94 0 0 0-.937.938v32.354H41.74V27.822a.94.94 0 0 0-.937-.937H33.41a.94.94 0 0 0-.937.938v17.615h-4.46V22.78a.94.94 0 0 0-.937-.937h-7.393a.937.937 0 0 0-.937.938v22.657h-4.46V35.256a.94.94 0 0 0-.937-.937H5.956a.94.94 0 0 0-.937.938v10.181H1.875V.937A.938.938 0 0 0 0 .937v45.439a.94.94 0 0 0 .938.938h56.25a.938.938 0 0 0 0-1.875ZM48.074 14.02h5.518v31.418h-5.518ZM34.347 28.756h5.515v16.682h-5.515ZM20.62 23.718h5.517v21.72H20.62ZM6.893 36.19h5.518v9.249H6.893Zm2.759-7.807a4.106 4.106 0 0 0 3.731-5.827L20.8 16.78a4.1 4.1 0 0 0 6.3-1.457l5.9 1.239a4.108 4.108 0 1 0 7.712-2.063l7.766-6.943a4.1 4.1 0 1 0-1.251-1.4l-7.765 6.947a4.1 4.1 0 0 0-6.076 1.625l-5.9-1.239a4.108 4.108 0 1 0-7.838 1.813l-7.417 5.776a4.108 4.108 0 1 0-2.578 7.3ZM50.833 1.956a2.234 2.234 0 1 1-2.234 2.234 2.236 2.236 0 0 1 2.234-2.234M37.106 14.234a2.234 2.234 0 1 1-2.234 2.234 2.236 2.236 0 0 1 2.234-2.234m-13.727-2.878a2.234 2.234 0 1 1-2.234 2.234 2.236 2.236 0 0 1 2.234-2.234M9.652 22.04a2.234 2.234 0 1 1-2.234 2.234 2.236 2.236 0 0 1 2.234-2.234"/></svg>