<svg xmlns="http://www.w3.org/2000/svg" width="60" height="60" fill="none"><path fill="#282928" d="M29.287 6.227a10.9 10.9 0 0 0-7.162-3.225.94.94 0 0 0-.938.6A10.9 10.9 0 0 0 22.2 13.39a10.78 10.78 0 0 0 5.812 4.415 11.69 11.69 0 0 1 .32-10.078q.416-.789.955-1.5"/><path fill="#282928" d="M38.12 12.799a9.77 9.77 0 0 0 .056-8.86.94.94 0 0 0-.938-.506 9.73 9.73 0 0 0-7.613 13.294v3.797a11.25 11.25 0 0 0-8.193 17.766c3.91-.854 3.91-.938 4.444-.938.262 0 12.412 1.594 13.125 1.772a11.25 11.25 0 0 0-7.5-18.6v-2.69a9.79 9.79 0 0 0 6.618-5.035m-3.61 14.944h-1.875A1.163 1.163 0 0 0 31.5 26.58v2.335a3.047 3.047 0 1 1 0 6.093v1.472h-1.876v-1.472a3.047 3.047 0 0 1-3.009-3.047h1.875a1.16 1.16 0 0 0 1.134 1.163V30.79a3.047 3.047 0 1 1 0-6.094v-1.472H31.5v1.472a3.047 3.047 0 0 1 3.01 3.047M47.269 43.343l-5.84 4.369-10.717 1.828-2.315-1.153.712-.713 9.047-.76a2.99 2.99 0 0 0 2.719-3 3.04 3.04 0 0 0-2.625-3.008l-12.253-1.679a1 1 0 0 0-.328 0l-8.335 1.875H9.938A.937.937 0 0 0 9 42.04v10.312a.937.937 0 0 0 .938.938h5.474l11.1 3.75c.413.131-.459.16 16.397-2.813a.87.87 0 0 0 .46-.215l7.303-6.488a2.69 2.69 0 0 0-3.403-4.162z"/><path fill="#282928" d="M31.5 33.123a1.167 1.167 0 1 0 0-2.334zM28.49 27.743a1.16 1.16 0 0 0 1.135 1.172V26.58a1.16 1.16 0 0 0-1.135 1.163"/></svg>