<svg xmlns="http://www.w3.org/2000/svg" width="60" height="60" fill="none"><path fill="#282928" d="M8.208 19.845a4.454 4.454 0 1 0-4.458-4.458 4.46 4.46 0 0 0 4.458 4.458M51.792 10.938a4.453 4.453 0 1 0 .008 8.906 4.453 4.453 0 0 0-.008-8.907M51.79 23.349c-.7.189-1.325.585-1.795 1.138l-4.952 5.61a3.11 3.11 0 0 1-2.336 1.049h-4.266a2.237 2.237 0 0 0-2.236 2.237V34.6h-.99v-1.217a3.226 3.226 0 0 1 3.226-3.227h.317v-6.64a5.76 5.76 0 0 0-5.76-5.76h-5.997a5.757 5.757 0 0 0-5.76 5.76v6.64h.317a3.226 3.226 0 0 1 3.226 3.227V34.6h-.99v-1.217a2.237 2.237 0 0 0-2.236-2.237h-4.266a3.11 3.11 0 0 1-2.335-1.05l-4.952-5.61a3.53 3.53 0 0 0-6.232 2.296v13.944a5.295 5.295 0 0 0 5.295 5.295h6.047a1.45 1.45 0 0 1 1.306.84l2.76 5.975a1.78 1.78 0 0 0 3.301-1.313l-2.727-8.119a4.06 4.06 0 0 0-3.848-2.767h-3.751v-4.87l-3.79-4.81.771-.613 3.751 4.75h.248v1.485H29.01v16.3a.99.99 0 0 0 1.98 0v-16.3h16.349v-1.771l3.523-4.464.772.614-3.79 4.81v4.869h-3.751a4.06 4.06 0 0 0-3.85 2.767l-2.726 8.12a1.779 1.779 0 0 0 3.302 1.312l2.759-5.974a1.45 1.45 0 0 1 1.306-.841h6.047a5.295 5.295 0 0 0 5.295-5.295V26.782a3.552 3.552 0 0 0-4.435-3.433M25.694 10.584a4.45 4.45 0 1 0 4.454-4.453 4.46 4.46 0 0 0-4.454 4.453"/></svg>