<svg xmlns="http://www.w3.org/2000/svg" width="60" height="60" fill="none"><path fill="#282928" d="M27.35 32.93v2.858c-1.29-.326-3.57-1.304-3.57-2.858 0-.98.805-1.785 1.785-1.785s1.785.805 1.785 1.785m-3.47 18.231c0 1.124.916 2.041 2.04 2.041h8.16a2.045 2.045 0 0 0 2.04-2.041v-1.344H23.88zm-11.326-15.63a.935.935 0 1 0-1.838.344 19.6 19.6 0 0 0 4.755 9.516l-4.84 4.84.07-1.062a.936.936 0 0 0-1.867-.117L8.6 52.584a.937.937 0 0 0 .991 1.005l3.544-.236a.936.936 0 1 0-.117-1.867l-1.06.07 5.485-5.486a.937.937 0 0 0 0-1.326 17.7 17.7 0 0 1-4.89-9.213m16.67 2.428v9.983h1.551V37.96q-.775.045-1.55 0m-.292 19.73h2.136a3.02 3.02 0 0 0 2.985-2.612h-8.106a3.02 3.02 0 0 0 2.985 2.613m5.503-26.544c-.98 0-1.785.805-1.785 1.785v2.858c1.29-.326 3.57-1.304 3.57-2.858 0-.98-.805-1.785-1.785-1.785m25.126.34-2.673-2.34a.934.934 0 0 0-1.23 1.406l.798.699h-7.76a.94.94 0 0 0-.938.937 17.67 17.67 0 0 1-3.06 9.976.933.933 0 1 0 1.546 1.047 19.56 19.56 0 0 0 3.367-10.085h6.845l-.799.699a.935.935 0 0 0 1.231 1.406l2.665-2.333a.936.936 0 0 0 .008-1.413M4.343 33.823l-.799-.699h7.76c.518 0 .938-.42.938-.937a17.67 17.67 0 0 1 3.06-9.976.933.933 0 1 0-1.546-1.047A19.56 19.56 0 0 0 10.39 31.25H3.545l.798-.699a.934.934 0 0 0-1.23-1.406L.447 31.478a.936.936 0 0 0-.008 1.413l2.673 2.34a.934.934 0 0 0 1.23-1.407m4.491-18.501a.936.936 0 1 0 1.868-.117l-.07-1.061 5.486 5.486a.937.937 0 0 0 1.325 0 17.7 17.7 0 0 1 9.213-4.89.935.935 0 1 0-.344-1.838 19.6 19.6 0 0 0-9.516 4.755l-4.839-4.84 1.061.071a.936.936 0 0 0 .117-1.867l-3.531-.235a.937.937 0 0 0-1.005.992zm18.211-8.705c.388.34.979.3 1.319-.088l.698-.799v7.761c0 .518.42.938.938.938 3.57 0 7.022 1.05 9.976 3.06a.933.933 0 1 0 1.047-1.546 19.56 19.56 0 0 0-10.086-3.367V5.732l.7.798a.934.934 0 0 0 1.406-1.23l-2.334-2.666a.936.936 0 0 0-1.412-.007l-2.34 2.672c-.34.389-.3.98.088 1.319m20.401 22.226a.935.935 0 1 0 1.839-.344 19.6 19.6 0 0 0-4.756-9.516l4.84-4.84-.07 1.062a.936.936 0 0 0 1.867.117l.234-3.532a.937.937 0 0 0-.991-1.005l-3.544.236a.936.936 0 0 0 .117 1.867l1.06-.07-5.485 5.486a.937.937 0 0 0 0 1.326 17.7 17.7 0 0 1 4.89 9.213M30 17.338c-8.201 0-14.85 6.648-14.85 14.85 0 5.427 2.912 10.175 7.26 12.765a2.94 2.94 0 0 1 1.47 2.587v.402h3.47V37.707c-2.336-.497-5.445-2.027-5.445-4.777a3.67 3.67 0 0 1 3.66-3.66 3.67 3.67 0 0 1 3.66 3.66v3.15q.774.052 1.55 0v-3.15a3.67 3.67 0 0 1 3.66-3.66 3.67 3.67 0 0 1 3.66 3.66c0 2.75-3.109 4.28-5.445 4.777v10.235h3.47v-.402a2.94 2.94 0 0 1 1.47-2.587c4.347-2.59 7.26-7.338 7.26-12.766 0-8.2-6.649-14.85-14.85-14.85m21.166 31.714a.936.936 0 0 0-1.868.117l.07 1.061-5.486-5.486a.937.937 0 0 0-1.325 0c-.425.425-.846.807-1.31 1.187a.937.937 0 0 0 1.186 1.45c.263-.214.517-.439.768-.667l4.842 4.842-1.061-.07a.936.936 0 0 0-.117 1.867l3.531.235a.937.937 0 0 0 1.005-.992z"/></svg>