<svg xmlns="http://www.w3.org/2000/svg" width="37.387" height="39.219"><path d="M31.084 11.509a.623.623 0 0 1 .227-.852l2.675-1.548a.623.623 0 1 1 .625 1.079l-2.675 1.544a.623.623 0 0 1-.852-.223m3.527 15.65-2.675-1.55a.624.624 0 0 0-.625 1.079l2.675 1.544a.624.624 0 0 0 .625-1.079Zm2.152-9.093h-3.088a.623.623 0 0 0 0 1.245h3.089a.623.623 0 0 0 0-1.245ZM17.814 39.218h1.713a2.42 2.42 0 0 0 2.414-2.349H15.4a2.42 2.42 0 0 0 2.414 2.349m.856-32.363a11.911 11.911 0 0 0-6.32 22.006v-4.573l-1.2-1.547a1.4 1.4 0 1 1 .985-.764l1.3 1.68a.62.62 0 0 1 .163.42v6.112a2.5 2.5 0 0 1 .161.889v.449h1.734V18.67l-2.19-1.788a1.4 1.4 0 1 1 .788-.965l2.385 1.946a.62.62 0 0 1 .27.514v13.151h1.324V14.516a1.4 1.4 0 1 1 1.25 0v17.012h1.324V18.376a.62.62 0 0 1 .27-.514l2.385-1.946a1.4 1.4 0 1 1 .788.965l-2.194 1.789v12.858h1.686v-.449a2.4 2.4 0 0 1 .208-1v-6a.62.62 0 0 1 .163-.42l1.3-1.68a1.4 1.4 0 1 1 1.262.792 1.4 1.4 0 0 1-.277-.027l-1.2 1.547v4.543a11.911 11.911 0 0 0-6.364-21.979Zm-8.017-.825a.623.623 0 1 0 1.078-.621L10.187 2.73a.624.624 0 0 0-1.079.625Zm3.109 27.953a1.64 1.64 0 0 0 1.637 1.637h6.543a1.64 1.64 0 0 0 1.637-1.637v-1.2h-9.817ZM4.338 18.671a.625.625 0 0 0-.625-.625H.625a.625.625 0 0 0 0 1.25h3.088a.625.625 0 0 0 .625-.625m-1.606-8.484 2.675 1.544a.622.622 0 1 0 .62-1.079L3.352 9.109a.622.622 0 1 0-.62 1.079Zm2.673 15.422L2.73 27.154a.624.624 0 1 0 .625 1.079l2.675-1.544a.624.624 0 0 0-.625-1.08M25.837 6.257a.624.624 0 0 0 .856-.227l1.54-2.675a.624.624 0 0 0-1.079-.625L25.61 5.409a.624.624 0 0 0 .227.848m-7.166-1.919a.625.625 0 0 0 .622-.629V.625a.625.625 0 0 0-1.25 0v3.084a.625.625 0 0 0 .628.629"/></svg>