<svg xmlns="http://www.w3.org/2000/svg" width="61" height="60" fill="none"><g fill="#282928" clip-path="url(#a)"><path d="M36.862 20.946c-.3 0-.6-.115-.83-.344-5.248-5.248-13.787-5.248-19.035 0a1.174 1.174 0 0 1-1.66-1.66c6.163-6.165 16.192-6.165 22.356 0a1.174 1.174 0 0 1-.83 2.004M40.88 16.928a1.17 1.17 0 0 1-.834-.347l-.014-.015a1.174 1.174 0 1 1 1.654-1.667l.028.028a1.174 1.174 0 0 1-.834 2"/><path d="M12.149 16.928a1.174 1.174 0 0 1-.83-2.004c3.48-3.482 7.901-5.611 12.783-6.16a21.6 21.6 0 0 1 13.618 3.013 1.175 1.175 0 0 1-1.226 2.003C28.93 9.15 19.26 10.303 12.98 16.584a1.17 1.17 0 0 1-.83.344M26.514 45.86c-4.048 0-8.096-1.541-11.178-4.623a1.174 1.174 0 1 1 1.661-1.66c5.247 5.247 13.787 5.247 19.035 0a1.174 1.174 0 0 1 1.66 1.66 15.76 15.76 0 0 1-11.178 4.623"/><path d="M26.529 51.548a21.54 21.54 0 0 1-11.84-3.541 1.175 1.175 0 0 1 1.293-1.96c7.544 4.981 17.665 3.95 24.068-2.453a1.174 1.174 0 1 1 1.66 1.66 21.52 21.52 0 0 1-13.136 6.197q-1.024.097-2.045.097M12.19 45.639a1.17 1.17 0 0 1-.826-.339l-.05-.049a1.175 1.175 0 0 1 1.668-1.654l.032.032a1.174 1.174 0 0 1-.825 2.01M26.498 34.43a4.345 4.345 0 0 1-4.34-4.34 4.345 4.345 0 0 1 4.34-4.34 4.344 4.344 0 0 1 4.34 4.34 4.345 4.345 0 0 1-4.34 4.34m0-6.332a1.993 1.993 0 0 0-1.992 1.991c0 1.098.894 1.992 1.992 1.992a1.993 1.993 0 0 0 1.991-1.992 1.993 1.993 0 0 0-1.991-1.99M4.34 41.581A4.344 4.344 0 0 1 0 37.241V22.937a4.345 4.345 0 0 1 4.34-4.34 4.345 4.345 0 0 1 4.34 4.34v14.306a4.344 4.344 0 0 1-4.34 4.339m0-20.637a1.994 1.994 0 0 0-1.992 1.992v14.306c0 1.098.894 1.99 1.992 1.99a1.993 1.993 0 0 0 1.99-1.99V22.936a1.994 1.994 0 0 0-1.99-1.992M51.228 41.583a3.817 3.817 0 0 1-3.812-3.812V26.305H46.15a3.817 3.817 0 0 1-3.812-3.811 3.816 3.816 0 0 1 3.812-3.812h10.156a3.816 3.816 0 0 1 3.812 3.812 3.816 3.816 0 0 1-3.812 3.811H55.04v11.466a3.816 3.816 0 0 1-3.812 3.812M46.15 21.03c-.807 0-1.464.656-1.464 1.464s.657 1.463 1.464 1.463h2.44c.648 0 1.174.526 1.174 1.174v12.64c0 .807.657 1.463 1.464 1.463s1.464-.656 1.464-1.463V25.13c0-.648.525-1.174 1.174-1.174h2.44c.807 0 1.464-.657 1.464-1.463 0-.808-.657-1.464-1.464-1.464z"/><path d="M26.497 40.125c-5.534 0-10.037-4.502-10.037-10.037 0-5.534 4.503-10.037 10.037-10.037s10.038 4.503 10.038 10.037-4.503 10.037-10.038 10.037m0-17.726c-4.24 0-7.689 3.45-7.689 7.69 0 4.239 3.45 7.688 7.69 7.688 4.239 0 7.688-3.45 7.688-7.689 0-4.24-3.45-7.689-7.689-7.689"/></g><defs><clipPath id="a"><path fill="#fff" d="M0 0h60.117v60H0z"/></clipPath></defs></svg>