<svg xmlns="http://www.w3.org/2000/svg" width="60" height="60"><defs><clipPath id="a"><path d="M0 0h60v60H0z"/></clipPath></defs><g fill-rule="evenodd" clip-path="url(#a)"><path d="M20.554 36.7h12.708a.947.947 0 0 0 0-1.895H20.554a.947.947 0 1 0 0 1.895"/><path d="M28.551 35.756v22.808a.947.947 0 0 0 1.895 0V35.756a.947.947 0 0 0-1.895 0M8.263.488a6.682 6.682 0 1 0 6.682 6.682A6.685 6.685 0 0 0 8.263.488m0 1.895A4.787 4.787 0 1 1 3.476 7.17a4.79 4.79 0 0 1 4.787-4.787M51.737.488a6.682 6.682 0 1 0 6.681 6.682A6.685 6.685 0 0 0 51.737.488m0 1.895a4.787 4.787 0 1 1-4.788 4.787 4.79 4.79 0 0 1 4.788-4.787M13.485 27.446a.95.95 0 0 0 .848.526l.352-.068 8.723-3.487a2.619 2.619 0 1 1 1.945 4.864l-11.521 4.6a2.62 2.62 0 0 1-3.053-.841.947.947 0 0 0-1.7.575v4.758a.947.947 0 0 0 .838.941l7.668.886a3.59 3.59 0 0 1 3.18 3.569v14.79a.947.947 0 0 0 1.895 0V43.773a5.486 5.486 0 0 0-4.86-5.45l-6.829-.789v-1.978a4.5 4.5 0 0 0 3.562.09l11.521-4.6a4.514 4.514 0 0 0-3.351-8.384l-7.981 3.19-4.585-7.5a4.51 4.51 0 0 0-2.917-2.063l-.112-.023a4.513 4.513 0 0 0-5.434 4.073C1.12 27.661 0 42.352 0 42.352v.072a5.486 5.486 0 0 0 4.849 5.449l6.837.883v9.808a.947.947 0 0 0 1.895 0V47.923a.95.95 0 0 0-.826-.94l-7.68-.991a3.593 3.593 0 0 1-3.18-3.53l1.671-21.988a2.62 2.62 0 0 1 3.153-2.363l.112.023a2.62 2.62 0 0 1 1.693 1.2l4.9 8.028q.032.043.061.084"/><path d="m5.963 28.824 3.044 4.984a4.514 4.514 0 0 0 5.528 1.838.947.947 0 0 0-.7-1.76 2.62 2.62 0 0 1-3.208-1.066L7.58 27.836a.947.947 0 0 0-1.617.988M44.4 27.283l-9.173 1.3a4.514 4.514 0 0 0 1.264 8.939l11.282-1.6a4.5 4.5 0 0 0 1.254-.368v1.978l-6.829.789a5.486 5.486 0 0 0-4.857 5.451v14.79a.947.947 0 0 0 1.895 0V43.773a3.59 3.59 0 0 1 3.18-3.569l7.665-.885a.946.946 0 0 0 .842-.941V33.62a.947.947 0 0 0-1.7-.575 2.62 2.62 0 0 1-1.714 1l-11.282 1.6a2.619 2.619 0 0 1-.734-5.187L45.1 29.1l-.13.009.808-.454 5.126-8.39a3.35 3.35 0 0 1 3.11-1.594h.052a3.35 3.35 0 0 1 3.094 3.187l.94 20.584a3.593 3.593 0 0 1-3.18 3.548l-7.52.868a.946.946 0 0 0-.838.928l-.143 10.764a.947.947 0 1 0 1.895.026l.136-9.93 6.693-.772A5.487 5.487 0 0 0 60 42.423v-.044l-.941-20.607a5.244 5.244 0 0 0-4.844-4.989h-.052a5.25 5.25 0 0 0-4.869 2.5ZM38.949 3.33A2.84 2.84 0 0 0 36.107.488H22.89a2.84 2.84 0 0 0-2.842 2.842v12.04a1.578 1.578 0 0 0 2.616 1.19l2.911-2.537a.95.95 0 0 1 .623-.233h9.909a2.84 2.84 0 0 0 2.842-2.842zM21.943 14.677V3.33a.947.947 0 0 1 .947-.947h13.217a.95.95 0 0 1 .947.947v7.619a.95.95 0 0 1-.947.947H26.2a2.84 2.84 0 0 0-1.868.7Z"/><path d="M25.277 6.358h8.584a.947.947 0 0 0 0-1.895h-8.584a.947.947 0 0 0 0 1.895M25.277 9.813H29.5a.947.947 0 0 0 0-1.895h-4.223a.947.947 0 0 0 0 1.895M44.925 36.326l2.847-.4a4.51 4.51 0 0 0 3.22-2.116l3.044-4.984a.947.947 0 1 0-1.617-.988l-3.044 4.982a2.62 2.62 0 0 1-1.869 1.228l-2.847.4a.947.947 0 1 0 .265 1.876Z"/></g></svg>