<svg xmlns="http://www.w3.org/2000/svg" width="31.1" height="37.5"><path fill-rule="evenodd" d="M17.588 12.965q1.593 1.757 2.865 3.336v12.213H18.98a1.676 1.676 0 0 0-1.277 2.759l3.09 3.639a13.23 13.23 0 0 1-8.193 2.586c-9.035.152-15.781-8.305-11.039-16.632a47 47 0 0 1 6.052-7.9 3 3 0 0 0 .844.117h8.287a3 3 0 0 0 .844-.118M25.15 37.35l5.847-6.887a.424.424 0 0 0-.324-.7H27.95V16.229a.85.85 0 0 0-.849-.85H22.55a.85.85 0 0 0-.849.85v13.535h-2.722a.424.424 0 0 0-.324.7l5.848 6.886a.425.425 0 0 0 .647 0M8.457 11.832h8.287a1.858 1.858 0 1 0 0-3.715H8.457a1.858 1.858 0 1 0 0 3.715m4.616 17.118a2.687 2.687 0 0 1-3.123-1.73.624.624 0 1 0-1.211.3 3.64 3.64 0 0 0 3.2 2.666v.842a.625.625 0 0 0 1.25 0v-.831h.03c1.6-.195 3.234-1.146 3.191-2.957 0-.107-.009-.2-.019-.29-.238-1.962-2-2.65-3.717-2.931a4.5 4.5 0 0 1-1.676-.565 1.43 1.43 0 0 1-.7-1.177 1.893 1.893 0 0 1 1.71-1.865 3 3 0 0 1 1.29.03 2.38 2.38 0 0 1 1.652 1.408.625.625 0 0 0 1.152-.483 3.64 3.64 0 0 0-2.91-2.226v-.84a.625.625 0 0 0-1.25 0v.849q-.088.014-.175.031A3.117 3.117 0 0 0 9.05 22.33c.092 1.9 1.779 2.644 3.421 2.914 1.087.179 2.52.55 2.677 1.847q.014.108.015.172c.029 1.107-1.168 1.576-2.09 1.687M8.65 6.867 6.864 5.076A1.909 1.909 0 0 1 9.25 2.12a.98.98 0 0 0 1.489-.617 1.909 1.909 0 0 1 3.731 0 .98.98 0 0 0 1.48.617 1.909 1.909 0 0 1 2.382 2.955L16.55 6.867Z"/></svg>