<svg xmlns="http://www.w3.org/2000/svg" width="60" height="60" fill="none"><path fill="#282928" fill-rule="evenodd" d="M33.16 33.308h-6.32a.936.936 0 0 0-.937.937v13.857H21.83a.94.94 0 0 0-.727 1.532l8.17 10.022a.94.94 0 0 0 1.453 0l8.17-10.022a.94.94 0 0 0-.727-1.532h-4.072V34.245a.94.94 0 0 0-.937-.937M30 31.433c8.667 0 15.718-7.05 15.718-15.715S38.668.002 30 .002s-15.717 7.05-15.717 15.715S21.333 31.432 30 31.432m-3.601-11.53c0 1.508 1.13 2.772 2.663 3.149V16.58c-2.574-.42-4.539-2.529-4.539-5.057s1.965-4.63 4.54-5.05V4.767a.937.937 0 1 1 1.875 0v1.708c2.574.419 4.538 2.52 4.538 5.049a.938.938 0 0 1-1.875 0c0-1.5-1.13-2.763-2.664-3.14v6.472c2.575.418 4.538 2.52 4.538 5.048 0 2.53-1.963 4.639-4.537 5.057v1.708a.937.937 0 1 1-1.875 0V24.96c-2.574-.418-4.539-2.528-4.539-5.057a.938.938 0 0 1 1.875 0m7.202 0c0 1.508-1.13 2.772-2.663 3.149v-6.288c1.533.376 2.663 1.64 2.663 3.14m-7.202-8.38c0-1.5 1.13-2.763 2.663-3.14v6.28c-1.533-.37-2.663-1.633-2.663-3.14M12.082 46.109l-6.236-7.644a.938.938 0 0 1 .727-1.532H9.46V26.576a.936.936 0 0 1 .937-.937h4.823a.94.94 0 0 1 .937.937v10.357h2.886a.938.938 0 0 1 .727 1.532l-6.235 7.644a.94.94 0 0 1-1.453 0m31.76-19.533a.937.937 0 0 1 .938-.937h4.824a.936.936 0 0 1 .937.937v10.357h2.886a.939.939 0 0 1 .727 1.532l-6.236 7.644a.94.94 0 0 1-1.453 0l-6.234-7.644a.939.939 0 0 1 .726-1.532h2.886z" clip-rule="evenodd"/></svg>