<svg xmlns="http://www.w3.org/2000/svg" width="56.25" height="56.251"><path d="M36.563 27.188a3.75 3.75 0 1 0 2.652 1.1 3.75 3.75 0 0 0-2.652-1.1m0 5.625a1.875 1.875 0 1 1 1.326-.549 1.88 1.88 0 0 1-1.326.549"/><path d="M50.625 16.876h-1.013a5.3 5.3 0 0 0 .075-.937 6.57 6.57 0 0 0-6.562-6.563 6.47 6.47 0 0 0-3.853 1.256 10.3 10.3 0 0 0-4.613-2.737 6.57 6.57 0 0 0-6.534-6.019 6.47 6.47 0 0 0-3.853 1.256A10.313 10.313 0 0 0 6.6 9.376h-.975a5.625 5.625 0 0 0 0 11.25h9.7a5.61 5.61 0 0 0 5.3 7.499h8.325l-.113.028a.94.94 0 0 0-.712.909V30H4.688a2.8 2.8 0 0 0-2.5 1.537 2.9 2.9 0 0 0-.309 1.275v17.813H1.05a.937.937 0 0 0-.919 1.1l.432 2.4a.3.3 0 0 0 .019.1 2.83 2.83 0 0 0 2.7 2.025h32.812a2.83 2.83 0 0 0 2.7-2.025.3.3 0 0 0 .019-.1l.431-2.4a.937.937 0 0 0-.919-1.1H37.5V39.376h.938a.94.94 0 0 0 .909-.713l.159-.628.553.338a.94.94 0 0 0 1.144-.141l2.653-2.653a.94.94 0 0 0 .141-1.144l-.337-.553.628-.159a.94.94 0 0 0 .713-.909v-3.75a.94.94 0 0 0-.713-.909l-.113-.03h6.45a5.625 5.625 0 1 0 0-11.25Zm-34.181 1.875H5.625a3.75 3.75 0 1 1 0-7.5H7.5a.94.94 0 0 0 .938-.937 8.438 8.438 0 0 1 15.009-5.289.96.96 0 0 0 .684.347.94.94 0 0 0 .7-.272 4.68 4.68 0 0 1 7.884 2.447 9 9 0 0 0-.844-.047 10.33 10.33 0 0 0-10.275 9.375h-.971a5.63 5.63 0 0 0-4.181 1.875ZM3.75 32.813a1 1 0 0 1 .1-.422.93.93 0 0 1 .834-.516h23.441v.938a.94.94 0 0 0 .712.909l.628.159-.34.554a.94.94 0 0 0 .141 1.144l2.659 2.653a.94.94 0 0 0 1.144.141l.553-.338.159.628a.94.94 0 0 0 .909.713h.935v11.249H22.5a.937.937 0 0 0-.937.938h-3.75a.937.937 0 0 0-.937-.937H3.75Zm33.234 20.925a.95.95 0 0 1-.891.638H3.281a.95.95 0 0 1-.891-.638l-.215-1.237h13.763a.94.94 0 0 0 .938.938h5.625a.94.94 0 0 0 .938-.937H37.2Zm6.141-21.656-1.144.281a.94.94 0 0 0-.638.553.96.96 0 0 0 .056.844l.609 1.013-1.611 1.612-1.013-.609a.96.96 0 0 0-.844-.056.94.94 0 0 0-.553.638l-.281 1.144h-2.287l-.281-1.144a.94.94 0 0 0-.553-.638.96.96 0 0 0-.844.056l-1.016.609-1.612-1.612.609-1.013a.96.96 0 0 0 .056-.844.94.94 0 0 0-.638-.553l-1.144-.281v-2.287l1.144-.281a.94.94 0 0 0 .638-.553.96.96 0 0 0-.056-.844l-.609-1.013 1.612-1.612 1.013.6a.93.93 0 0 0 .844.066.94.94 0 0 0 .553-.638l.281-1.144h2.288l.281 1.144a.94.94 0 0 0 .553.638.93.93 0 0 0 .844-.066l1.013-.6 1.612 1.612-.609 1.013a.96.96 0 0 0-.056.844.94.94 0 0 0 .638.553l1.145.281Zm7.5-5.831h-6.816l-2.606-2.606a.94.94 0 0 0-1.144-.141l-.553.337-.159-.628a.94.94 0 0 0-.909-.712h-3.75a.94.94 0 0 0-.909.712l-.159.628-.553-.337a.94.94 0 0 0-1.144.141l-2.606 2.606h-8.692a3.75 3.75 0 0 1 0-7.5H22.5a.94.94 0 0 0 .938-.937 8.437 8.437 0 0 1 15.009-5.289.96.96 0 0 0 .684.347.94.94 0 0 0 .7-.272 4.687 4.687 0 0 1 7.978 3.338 4.9 4.9 0 0 1-.272 1.566.95.95 0 0 0 .112.853.96.96 0 0 0 .769.394h2.2a3.75 3.75 0 0 1 0 7.5Z"/><path d="M49.688 41.25a2.813 2.813 0 0 1-2.812 2.813h-7.5v1.875h7.5a4.693 4.693 0 0 0 4.688-4.687V30h-1.876ZM20.625 40.313H18.75v1.875h1.875ZM24.375 40.313H22.5v1.875h1.875ZM16.875 40.313H15v1.875h1.875Z"/></svg>