<svg xmlns="http://www.w3.org/2000/svg" width="34.49" height="38.917"><path fill-rule="evenodd" d="M2.262 25.512h3.236a.783.783 0 0 1 .781.781v7.643a.783.783 0 0 1-.781.781H2.262a.783.783 0 0 1-.781-.781v-7.643a.783.783 0 0 1 .781-.781m12.146-4.823h-3.236a.783.783 0 0 0-.781.781v12.467a.783.783 0 0 0 .781.781h3.236a.783.783 0 0 0 .781-.781V21.47a.783.783 0 0 0-.781-.781m8.91-5.036h-3.236a.783.783 0 0 0-.781.781v17.5a.783.783 0 0 0 .781.781h3.236a.783.783 0 0 0 .781-.781v-17.5a.783.783 0 0 0-.781-.781m5.674-4.531h3.236a.783.783 0 0 1 .781.781v22.034a.783.783 0 0 1-.781.781h-3.236a.783.783 0 0 1-.781-.781V11.903a.783.783 0 0 1 .781-.781m.211-8.283a.623.623 0 0 1-.058-1.245l3.838-.208a.623.623 0 0 1 .654.591.6.6 0 0 1-.005.12l-.554 3.8a.624.624 0 0 1-1.235-.176l.3-2.081a86.5 86.5 0 0 1-14.808 10.619 97 97 0 0 1-16.154 7.3.623.623 0 0 1-.41-1.177 95.7 95.7 0 0 0 15.95-7.2A85.3 85.3 0 0 0 31.295 2.726ZM.781 37.105h32.928a.783.783 0 0 1 .781.781v.25a.783.783 0 0 1-.781.781H.781A.783.783 0 0 1 0 38.136v-.25a.783.783 0 0 1 .781-.781M8.15 0a6.836 6.836 0 1 0 6.836 6.836A6.836 6.836 0 0 0 8.15 0m-.625 2.51v.412a2.76 2.76 0 0 0-1.153.537 2.12 2.12 0 0 0-.809 1.8 1.97 1.97 0 0 0 .952 1.627 4 4 0 0 0 1.542.54 3.4 3.4 0 0 1 1.168.37.94.94 0 0 1 .487.713 1 1 0 0 1 .009.1.72.72 0 0 1-.309.607 2 2 0 0 1-.938.338c-.1.012-.179.018-.248.02a1.97 1.97 0 0 1-1.13-.3 1.25 1.25 0 0 1-.533-.746.624.624 0 1 0-1.211.3 2.48 2.48 0 0 0 1.055 1.488 3 3 0 0 0 1.118.446v.4a.625.625 0 1 0 1.25 0v-.391a3.2 3.2 0 0 0 1.387-.564 1.91 1.91 0 0 0 .8-1.627q-.002-.125-.014-.216a2.13 2.13 0 0 0-1.082-1.636 4.6 4.6 0 0 0-1.612-.531 2.9 2.9 0 0 1-1.063-.355.79.79 0 0 1-.386-.642.91.91 0 0 1 .35-.769 1.5 1.5 0 0 1 .653-.3 1.8 1.8 0 0 1 .79.019 1.42 1.42 0 0 1 .985.847.625.625 0 1 0 1.152-.483A2.65 2.65 0 0 0 8.9 2.939q-.064-.016-.128-.029v-.4a.625.625 0 1 0-1.25 0Z"/></svg>