<svg xmlns="http://www.w3.org/2000/svg" width="60" height="60" fill="none"><path fill="#282928" d="M15.646 30v-.468h6.974c.259 0 .468.21.468.468 0 3.81 3.1 6.91 6.91 6.91 3.812 0 6.913-3.1 6.913-6.91a.47.47 0 0 1 .468-.468h6.975V30c0 7.914-6.439 14.353-14.355 14.353S15.646 37.914 15.646 30m42.362-.468H54.52v-3.495c1.222-.387 2.109-1.511 2.109-2.834 0-1.642-1.367-2.979-3.047-2.979s-3.05 1.337-3.05 2.98c0 1.322.889 2.446 2.113 2.834v3.494h-6.416V30c0 8.949-7.28 16.228-16.23 16.228S13.77 38.948 13.77 30v-.468H7.355v-3.495c1.223-.387 2.11-1.511 2.11-2.834 0-1.642-1.367-2.979-3.047-2.979s-3.05 1.337-3.05 2.98c0 1.322.888 2.446 2.112 2.834v3.494H1.992a.47.47 0 0 0-.469.468v3.602c0 .182.107.349.272.425l5.45 2.515 2.037 4.92-2.074 5.632a.47.47 0 0 0 .108.494l5.094 5.095a.47.47 0 0 0 .493.108l5.632-2.075 4.922 2.039 2.514 5.448a.47.47 0 0 0 .427.273H33.6a.47.47 0 0 0 .425-.273l2.518-5.448 4.922-2.04 5.631 2.076a.47.47 0 0 0 .494-.108l5.09-5.095a.47.47 0 0 0 .11-.494l-2.076-5.632 2.04-4.92 5.45-2.515a.47.47 0 0 0 .273-.425V30a.47.47 0 0 0-.47-.468M15.646 19.366a.94.94 0 0 0-.469-.813L9.475 15.26q.07-.307.07-.634c0-1.643-1.366-2.979-3.046-2.979s-3.05 1.336-3.05 2.979c0 1.642 1.368 2.979 3.05 2.979.768 0 1.47-.28 2.006-.74l5.266 3.042v9.625h1.875zm30.583.541 5.266-3.041c.536.46 1.238.739 2.006.739 1.68 0 3.047-1.337 3.047-2.98 0-1.642-1.367-2.978-3.047-2.978s-3.05 1.336-3.05 2.979q.002.327.072.636l-5.7 3.292a.94.94 0 0 0-.468.812v10.166h1.875zm-22.95-9.056h2.788v16.003c0 .26.21.469.469.469h6.929c.258 0 .468-.21.468-.469V10.851h2.788a.469.469 0 0 0 .366-.762l-6.723-8.388a.47.47 0 0 0-.731 0l-6.72 8.388a.469.469 0 0 0 .366.762M20.62 27.323c.518 0 .938-.42.938-.937V17.74a.938.938 0 0 0-1.875 0v8.645c0 .517.42.937.937.937m18.757 0c.517 0 .937-.42.937-.937V17.74a.938.938 0 0 0-1.875 0v8.645c0 .517.42.937.938.937"/></svg>