<svg xmlns="http://www.w3.org/2000/svg" width="37.325" height="37.031"><g fill-rule="evenodd"><path d="M8.637 26.407H6.289a.46.46 0 0 1-.451-.359l-.575-2.574a5.4 5.4 0 0 1-.98-.569l-2.511.787a.465.465 0 0 1-.536-.211L.062 21.437a.464.464 0 0 1 .086-.569l1.936-1.779c-.016-.2-.031-.382-.031-.569s.016-.382.031-.577L.147 16.164a.464.464 0 0 1-.086-.569l1.174-2.044a.465.465 0 0 1 .536-.211l2.511.788a5.4 5.4 0 0 1 .98-.57l.575-2.574a.46.46 0 0 1 .451-.359h2.349a.46.46 0 0 1 .451.359l.568 2.574a5.4 5.4 0 0 1 .987.57l2.5-.788a.46.46 0 0 1 .536.211l1.182 2.044a.465.465 0 0 1-.093.569l-1.936 1.779a5 5 0 0 1 .031.577 5 5 0 0 1-.031.569l1.94 1.779a.48.48 0 0 1 .093.577l-1.183 2.036a.45.45 0 0 1-.536.211l-2.5-.788a5.4 5.4 0 0 1-.987.569l-.568 2.574a.46.46 0 0 1-.454.36m-1.174-5.5a2.391 2.391 0 1 0-2.391-2.391 2.4 2.4 0 0 0 2.391 2.391m0-4.259a1.868 1.868 0 1 1-1.858 1.868 1.87 1.87 0 0 1 1.858-1.868"/><path d="M17.506 19.065h-4.577a.55.55 0 0 1 0-1.1h4.577a.55.55 0 1 1 0 1.1"/><path d="M20.708 22.257a3.742 3.742 0 1 1 3.737-3.741 3.747 3.747 0 0 1-3.737 3.741"/><path d="M28.431 34.116h-7.723a.547.547 0 0 1-.544-.554V21.716a.54.54 0 0 1 .544-.544.545.545 0 0 1 .544.544v11.3h7.179a.55.55 0 0 1 0 1.1m-7.723-18.252a.54.54 0 0 1-.544-.544V3.472a.547.547 0 0 1 .544-.554h7.723a.55.55 0 0 1 0 1.1h-7.179v11.298a.545.545 0 0 1-.544.548"/><path d="M36.825 37.032h-8.453a.52.52 0 0 1-.5-.543V30.7a.52.52 0 0 1 .5-.543h8.452a.524.524 0 0 1 .5.543v5.789a.524.524 0 0 1-.499.543m-2.266-3.129a.309.309 0 0 0 0-.617h-3.921a.309.309 0 0 0 0 .617ZM36.825 6.875h-8.453a.52.52 0 0 1-.5-.543V.543a.52.52 0 0 1 .5-.543h8.452a.524.524 0 0 1 .5.543v5.789a.524.524 0 0 1-.499.543m-2.266-3.129a.309.309 0 0 0 0-.617h-3.921a.309.309 0 0 0 0 .617ZM36.825 21.954h-8.453a.52.52 0 0 1-.5-.543v-5.79a.52.52 0 0 1 .5-.543h8.452a.524.524 0 0 1 .5.543v5.789a.524.524 0 0 1-.499.544m-2.266-3.129a.309.309 0 0 0 0-.617h-3.921a.309.309 0 0 0 0 .617Z"/><path d="M28.432 19.065h-4.531a.55.55 0 0 1 0-1.1h4.531a.55.55 0 0 1 0 1.1M7.498 30.5a.54.54 0 0 1-.544-.544v-4.411a.54.54 0 0 1 .544-.544.545.545 0 0 1 .544.544v4.411a.545.545 0 0 1-.544.544"/><path d="M7.456 35.253a2.925 2.925 0 1 1 2.925-2.925 2.926 2.926 0 0 1-2.925 2.925M7.498 11.971a.54.54 0 0 1-.544-.544V7.016a.54.54 0 0 1 .544-.544.545.545 0 0 1 .544.544v4.41a.545.545 0 0 1-.544.545"/><path d="M7.456 7.569a2.925 2.925 0 1 1 2.925-2.925 2.926 2.926 0 0 1-2.925 2.925"/></g></svg>