<svg xmlns="http://www.w3.org/2000/svg" width="60" height="60" fill="none"><mask id="a" fill="#fff"><path fill-rule="evenodd" d="M30 3.75h.001l24.439 8.715-3.727 32.314L30 56.25H30L9.29 44.778 5.563 12.465z" clip-rule="evenodd"/></mask><path fill="#282928" d="m30.001 3.75.504-1.413-.504-.18-.504.18zm0 0-.504 1.413.504.18.503-.18zm24.439 8.715 1.49.172.137-1.184-1.123-.4zm-3.727 32.314.726 1.312.675-.374.089-.766zM30 56.25l-.728 1.312.728.403.727-.403zm0 0 .727-1.312-.727-.404-.728.404zm-.001 0h-1.5v2.548l2.228-1.236zm0 0h1.5v-.885l-.773-.428zM9.29 44.778l-1.49.172.088.766.675.374zM5.563 12.465l-.504-1.413-1.123.4.136 1.185zM30 3.75l.504 1.413.996-.355V3.75zm0 0 .504-1.413-2.004-.714V3.75zm-.503-1.413 1.008 2.826zm25.447 8.715L30.505 2.337l-1.008 2.826 24.44 8.715zm-2.741 33.899 3.727-32.314-2.98-.344-3.728 32.314zM30.728 57.562l20.711-11.471-1.453-2.624-20.711 11.47zm-1.455 0 1.456-2.624zm1.455 0-1.455-2.624zM28.5 56.249zh3zM8.563 46.091l20.71 11.47 1.454-2.624-20.71-11.47zm-4.49-33.454L7.8 44.95l2.98-.344-3.727-32.314zm25.423-10.3L5.06 11.053l1.007 2.826 24.438-8.715zM28.5 3.75h3zm2.005-1.413h-.001l-1.008 2.826z" mask="url(#a)"/><path fill="#282928" d="M30 9.55 14.723 43.808h5.696l3.071-7.665h12.968l3.07 7.665h5.697zm4.463 21.867h-8.925L30 20.681z"/></svg>