<svg xmlns="http://www.w3.org/2000/svg" width="60" height="60" fill="none"><path fill="#282928" d="m46.864 50.078-2.021-6.065a6.11 6.11 0 0 0-4.705-4.08l-5.834-1.06v-.453a8.8 8.8 0 0 0 2.602-2.311h1.763a2.62 2.62 0 0 0 2.619-2.62V23.015c0-6.258-5.092-11.35-11.35-11.35s-11.35 5.092-11.35 11.35v6.11a3.5 3.5 0 0 0 2.785 3.42 8.75 8.75 0 0 0 4.2 5.876v.452l-5.835 1.062a6.11 6.11 0 0 0-4.704 4.08l-.35 1.048-2.973-2.974a.875.875 0 0 1 0-1.235l3.449-3.448-6.473-6.472L4.79 34.83A6.07 6.07 0 0 0 3 39.152a6.07 6.07 0 0 0 1.79 4.32l11.799 11.8a6.07 6.07 0 0 0 4.321 1.79 6.05 6.05 0 0 0 4.294-1.765l4.252-3.896-1.326-1.324zM39.542 33.49a.874.874 0 0 1-.873.873h-.735a8.7 8.7 0 0 0 .57-1.819 3.5 3.5 0 0 0 1.038-.412zm-.873-2.862v-3.007c.52.303.873.86.873 1.504 0 .643-.354 1.2-.873 1.503m-17.461 0a1.74 1.74 0 0 1-.873-1.503c0-.644.354-1.2.873-1.504zm0-5.868v.997c-.31.08-.602.203-.873.361v-3.104c0-5.296 4.308-9.604 9.603-9.604s9.604 4.308 9.604 9.604v3.104a3.4 3.4 0 0 0-.873-.361v-.997h-.873a9.6 9.6 0 0 1-6.835-2.832l-1.023-1.022-1.022 1.022a9.6 9.6 0 0 1-6.835 2.832zm1.746 6.11v-4.398a11.32 11.32 0 0 0 6.984-3.102 11.3 11.3 0 0 0 6.985 3.102v4.399a6.93 6.93 0 0 1-.945 3.492h-6.04v1.746h4.605a6.95 6.95 0 0 1-4.605 1.746 6.993 6.993 0 0 1-6.984-6.984m9.603 8.329v.04l-2.619 2.62-2.619-2.62v-.04a8.7 8.7 0 0 0 5.238 0M16.69 44.565a4.37 4.37 0 0 1 3.36-2.915l6.103-1.109 3.786 3.787 3.786-3.786 6.101 1.109a4.37 4.37 0 0 1 3.36 2.915l1.257 3.765H26.384l-3.4-3.4-3.779 3.418a.89.89 0 0 1-1.234 0l-1.907-1.907zM8.686 33.402l4.004 4.003-.948.949-4.004-4.004zm15.309 20.636a4.34 4.34 0 0 1-3.087 1.278 4.34 4.34 0 0 1-3.087-1.28L6.023 42.24a4.34 4.34 0 0 1-1.278-3.087c0-1.166.454-2.263 1.278-3.087l.48-.48 4.004 4.004-.031.031a2.624 2.624 0 0 0 0 3.705l6.26 6.26a2.6 2.6 0 0 0 1.853.767c.7 0 1.358-.272 1.82-.736l.066-.059 4.022 4.022zm1.79-1.64-4.014-4.014 1.153-1.043 4.007 4.007zM54.38 2.934H42.159a2.62 2.62 0 0 0-2.619 2.619v6.984a2.62 2.62 0 0 0 2.62 2.62h2.331l-.903 5.264 8.425-5.265h2.369A2.62 2.62 0 0 0 57 12.537V5.553a2.62 2.62 0 0 0-2.62-2.62m.874 9.603a.874.874 0 0 1-.873.873h-2.87l-5.545 3.465.595-3.465h-4.403a.874.874 0 0 1-.873-.873V5.553c0-.481.392-.873.873-.873h12.223c.48 0 .873.392.873.873z"/><path fill="#282928" d="M53.508 6.426H43.03v1.746h10.477zM50.016 9.918H43.03v1.746h6.985zM53.508 9.918h-1.746v1.746h1.746zM29.94 5.555c-11.408 0-21.234 7.89-23.788 18.897l-1.655-2.758L3 22.592l3.069 5.113 5.113-3.068-.898-1.498-2.366 1.42C10.392 14.49 19.446 7.3 29.939 7.3a22.7 22.7 0 0 1 6.726 1.012l.517-1.667a24.4 24.4 0 0 0-7.243-1.091M56.578 22.268l-5.114-3.069-3.067 5.114 1.497.899 1.528-2.547a22.6 22.6 0 0 1 1.215 7.336 22.75 22.75 0 0 1-5.063 14.292l1.356 1.1A24.5 24.5 0 0 0 54.383 30c0-2.67-.43-5.278-1.27-7.775l2.566 1.54z"/></svg>