<svg xmlns="http://www.w3.org/2000/svg" width="60" height="60" fill="none"><path fill="#282928" d="M54.477 38.296c-.485-.812-2.475-3.224-7.687-.185l-9.053 5.277a5 5 0 0 1-1.143.493q.191-.361.306-.788c.477-1.78-.579-3.637-2.402-4.229a1 1 0 0 0-.118-.03c-2.594-.468-5.157-1.395-7.217-2.14A67 67 0 0 0 25.19 36c-2.354-.764-4.474.177-6.236 1.198l-6.648 3.853-.586-1.036a2.22 2.22 0 0 0-1.349-1.052 2.22 2.22 0 0 0-1.697.207l-2.54 1.439a2.24 2.24 0 0 0-.844 3.049l7.467 13.206a2.22 2.22 0 0 0 1.348 1.052q.3.083.603.083c.38 0 .756-.098 1.095-.29l2.54-1.439a2.24 2.24 0 0 0 .844-3.049l-.721-1.276 1.414-.817 11.555 3.099q.974.26 1.928.26a6.9 6.9 0 0 0 3.657-1.052L53.448 43.31c1.54-.95 2.032-3.34 1.03-5.015M17.454 54.699l-2.54 1.439a.43.43 0 0 1-.327.039.43.43 0 0 1-.26-.202L6.86 42.77a.437.437 0 0 1 .163-.587l2.54-1.439a.42.42 0 0 1 .326-.038.43.43 0 0 1 .26.2l7.467 13.207a.437.437 0 0 1-.162.587m15.434-9.118 1.125.183c1.708.273 3.223.007 4.632-.815l9.053-5.277c2.553-1.488 4.508-1.656 5.23-.448.496.827.28 2.113-.427 2.549L36.073 51.897c-1.278.788-2.682.985-4.171.586l-11.916-3.196a.9.9 0 0 0-.685.09l-1.724.997-4.383-7.75 6.664-3.862c1.49-.863 3.1-1.587 4.776-1.043a64 64 0 0 1 1.915.673c2.107.762 4.724 1.71 7.444 2.208.892.316 1.39 1.177 1.164 2.026-.3 1.117-1.236 1.255-1.983 1.17-1.327-.273-2.59-.634-3.927-1.016-.636-.182-1.294-.37-1.97-.552a.903.903 0 0 0-.467 1.745c.662.178 1.313.364 1.942.544 1.383.395 2.69.769 4.1 1.057M10.25 43.207a.907.907 0 1 1-1.796.264.907.907 0 0 1 1.796-.264m13.31-27.1c.418.815.627 1.224.687 1.565s.003.795-.11 1.704q-.045.341-.096.77a3.515 3.515 0 0 0 2.12 3.674q.395.169.713.302l.112.047-3.354 7.211a.904.904 0 0 0 .973 1.271l3.687-.645 1.88 3.24a.902.902 0 0 0 1.598-.073l3.33-7.158-.066-.031c.57-.173.907-.26 1.183-.26.344 0 .783.136 1.657.406l.29.09 2.403 5.583a.902.902 0 0 0 1.596.12l1.973-3.184 3.666.752a.902.902 0 0 0 1.01-1.242l-2.731-6.347.191-.082a3.515 3.515 0 0 0 2.12-3.674q-.051-.428-.095-.77c-.114-.908-.17-1.364-.111-1.704s.27-.75.687-1.564l.352-.69a3.52 3.52 0 0 0-.736-4.178q-.314-.295-.567-.529c-.67-.623-1.007-.935-1.18-1.234-.172-.3-.274-.747-.478-1.64q-.075-.336-.173-.756a3.51 3.51 0 0 0-3.247-2.727q-.43-.023-.774-.04c-.913-.045-1.372-.068-1.696-.186-.325-.118-.69-.396-1.42-.949q-.273-.208-.618-.467a3.51 3.51 0 0 0-4.238 0l-.619.467c-.729.553-1.095.83-1.419.949-.324.118-.783.14-1.697.186q-.344.017-.773.04a3.51 3.51 0 0 0-3.247 2.727q-.097.42-.174.756c-.203.893-.305 1.34-.478 1.64-.172.299-.51.611-1.18 1.234l-.566.528a3.52 3.52 0 0 0-.736 4.178q.194.385.351.69m7.304 16.734-1.328-2.287a.9.9 0 0 0-.935-.436l-2.603.456 2.573-5.532c.213.237.45.605.843 1.213q.186.29.421.65a3.51 3.51 0 0 0 2.945 1.606l.1-.003zm13.018-3.998a.9.9 0 0 0-.948.409l-1.393 2.247-1.308-3.038a3.51 3.51 0 0 0 2.365-1.555l.421-.65c.497-.77.746-1.156 1.01-1.378.103-.087.23-.167.398-.253l2.044 4.749zM25.18 12.557q.31-.291.56-.522c1.601-1.487 1.704-1.665 2.19-3.797q.074-.33.171-.745a1.7 1.7 0 0 1 1.59-1.335q.424-.023.763-.04c2.182-.109 2.374-.179 4.116-1.5l.61-.46a1.72 1.72 0 0 1 1.038-.354c.36 0 .722.118 1.037.354q.341.255.61.46c1.742 1.321 1.934 1.391 4.116 1.5q.34.016.763.04c.787.044 1.41.568 1.59 1.335q.096.415.172.745c.486 2.132.588 2.31 2.19 3.797l.559.521a1.7 1.7 0 0 1 .36 2.046q-.192.38-.347.681c-.997 1.946-1.032 2.148-.76 4.318q.043.337.093.759a1.7 1.7 0 0 1-1.038 1.799q-.39.167-.703.298c-2.014.85-2.17.981-3.356 2.819q-.183.285-.416.64c-.43.66-1.196.94-1.95.711q-.406-.123-.73-.223c-2.088-.645-2.293-.645-4.38 0l-.731.223a1.7 1.7 0 0 1-1.95-.71q-.233-.355-.416-.642c-1.185-1.837-1.342-1.968-3.356-2.818q-.312-.131-.703-.298a1.7 1.7 0 0 1-1.038-1.8l.094-.758c.272-2.17.236-2.372-.76-4.318q-.156-.302-.348-.681a1.7 1.7 0 0 1 .36-2.046m11.037 10.98c4.563 0 8.275-3.715 8.275-8.282s-3.712-8.282-8.275-8.282c-4.562 0-8.274 3.715-8.274 8.282s3.712 8.282 8.274 8.282m0-14.758c3.568 0 6.47 2.905 6.47 6.476 0 3.57-2.902 6.476-6.47 6.476s-6.47-2.905-6.47-6.476c0-3.57 2.903-6.476 6.47-6.476m-2.297 9.677-2.322-2.325a.904.904 0 0 1 1.276-1.277l1.714 1.716 5.005-4.546a.902.902 0 1 1 1.212 1.338l-5.64 5.124a.9.9 0 0 1-1.245-.03"/></svg>