<svg xmlns="http://www.w3.org/2000/svg" width="60" height="60" fill="none"><path fill="#282928" d="M21.796 33.24a9.05 9.05 0 0 1-4.076 1.373 3.726 3.726 0 0 0-3.582-2.742H9.47a3.733 3.733 0 0 0-3.733 3.732v18.665a3.733 3.733 0 0 0 3.733 3.733h4.666a3.73 3.73 0 0 0 3.595-2.78c.793.04 1.57.237 2.287.576.36.17.704.373 1.05.573q.774.472 1.606.83c1.445.552 2.981.824 4.528.801H44a3.733 3.733 0 0 0 3.093-5.82 3.716 3.716 0 0 0 1.866-5.6 3.708 3.708 0 0 0 .672-6.708 3.7 3.7 0 0 0 .902-2.403 3.733 3.733 0 0 0-3.733-3.733H35.012c1.46-2.78 4.112-8.992 1.53-13.51-1.135-1.986-3.508-3.538-6.029-2.254-2.63 1.336-2.041 3.976-1.757 5.244.723 3.251-1.619 6.624-6.96 10.023m-7.658 22.895H9.47a1.866 1.866 0 0 1-1.866-1.867V35.603c0-1.03.835-1.866 1.866-1.866h4.666c1.031 0 1.867.836 1.867 1.866v18.665c0 1.031-.836 1.867-1.867 1.867m16.44-33.324c-.422-1.888-.233-2.66.782-3.173 1.646-.84 3.015.56 3.563 1.516 2.79 4.885-2.25 12.936-2.302 13.017a.933.933 0 0 0 .788 1.432H46.8a1.867 1.867 0 0 1 0 3.733h-5.6a.933.933 0 1 0 0 1.867h6.533a1.866 1.866 0 0 1 0 3.733h-6.532a.933.933 0 0 0 0 1.866h4.666a1.867 1.867 0 0 1 0 3.733h-4.666a.933.933 0 1 0 0 1.867h2.8a1.866 1.866 0 1 1 0 3.733h-16.8a10.3 10.3 0 0 1-3.826-.665 11 11 0 0 1-1.37-.715c-.389-.225-.779-.45-1.183-.643a8 8 0 0 0-2.953-.746V36.49a10.94 10.94 0 0 0 4.927-1.68c6.075-3.861 8.693-7.9 7.78-12M41.208 2.911v.027c0 .344-.085 8.4-7.474 8.4a.933.933 0 1 0 0 1.866c7.36 0 7.473 8.057 7.474 8.399a.933.933 0 1 0 1.867.025v-.025c0-.344.085-8.4 7.475-8.4a.933.933 0 0 0 0-1.866c-7.361 0-7.473-8.057-7.475-8.399a.933.933 0 1 0-1.867-.025zm5.087 9.36a8.87 8.87 0 0 0-4.154 4.7 8.86 8.86 0 0 0-4.154-4.7 8.86 8.86 0 0 0 4.154-4.7 8.87 8.87 0 0 0 4.154 4.7"/><path fill="#282928" d="M17.872 14.14v-.006a.933.933 0 0 0-1.866.005c0 .229-.079 5.6-4.667 5.6a.933.933 0 1 0 0 1.866c4.588 0 4.667 5.373 4.667 5.6v.005a.933.933 0 1 0 1.866-.005c0-.23.079-5.6 4.666-5.6a.933.933 0 1 0 0-1.866c-4.587 0-4.666-5.373-4.666-5.6m1.255 6.532a6.27 6.27 0 0 0-2.188 2.532 6.27 6.27 0 0 0-2.188-2.532 6.27 6.27 0 0 0 2.188-2.532 6.27 6.27 0 0 0 2.188 2.532M49.601 21.602a.933.933 0 0 0-.933.933V24.4a.933.933 0 1 0 1.867 0v-1.866a.933.933 0 0 0-.934-.933M49.601 30.932a.933.933 0 0 0 .934-.933v-1.866a.933.933 0 1 0-1.867 0v1.866c0 .515.418.933.933.933M51.468 27.202h1.867a.933.933 0 1 0 0-1.866h-1.867a.933.933 0 0 0 0 1.866M47.733 27.202a.933.933 0 1 0 0-1.866h-1.866a.933.933 0 0 0 0 1.866zM26.078 10.597l1.4 1.4a.933.933 0 0 0 1.32-1.32l-1.4-1.4a.933.933 0 1 0-1.32 1.32M23.275 7.798a.933.933 0 0 0 1.32-1.32l-1.4-1.4a.933.933 0 0 0-1.32 1.32zM21.875 11.997a.933.933 0 0 0 1.32 0l1.4-1.4a.933.933 0 1 0-1.32-1.32l-1.4 1.4a.933.933 0 0 0 0 1.32M26.738 8.07a.93.93 0 0 0 .66-.273l1.4-1.4a.933.933 0 1 0-1.32-1.32l-1.4 1.4a.933.933 0 0 0 .66 1.594"/></svg>