<svg xmlns="http://www.w3.org/2000/svg" width="60" height="60" fill="none"><path fill="#282928" d="M2.947 58.003a1.107 1.107 0 1 0 0-2.214 1.107 1.107 0 0 0 0 2.213M31.21 29.928a1.104 1.104 0 1 0 0-2.21 1.104 1.104 0 0 0 0 2.21M45.675 14.818a4.67 4.67 0 0 0-3.324-1.377 4.67 4.67 0 0 0-3.324 1.377 4.706 4.706 0 0 0 0 6.649 4.69 4.69 0 0 0 3.324 1.374 4.69 4.69 0 0 0 3.324-1.374 4.706 4.706 0 0 0 0-6.649m-1.562 5.086a2.495 2.495 0 0 1-3.524 0 2.495 2.495 0 0 1 0-3.524c.47-.47 1.096-.73 1.762-.73s1.291.26 1.762.73a2.495 2.495 0 0 1 0 3.524M15.636 47.103a1.104 1.104 0 0 0-1.481.496l-1.315 2.642a3.65 3.65 0 0 1-3.003 2.005l-1.53.104a.65.65 0 0 1-.508-.19.65.65 0 0 1-.19-.507l.105-1.53a3.65 3.65 0 0 1 2.004-3.003l2.642-1.316a1.104 1.104 0 1 0-.985-1.977l-2.642 1.316a5.86 5.86 0 0 0-3.223 4.829l-.105 1.53a2.863 2.863 0 0 0 3.052 3.052l1.53-.105a5.86 5.86 0 0 0 4.83-3.223l1.315-2.642a1.104 1.104 0 0 0-.496-1.481"/><path fill="#282928" d="M57.405 2.736a2.56 2.56 0 0 0-1.957-.73l-1.029.065a33.32 33.32 0 0 0-23.676 12.212l-2.42 2.98-6.335-.186h-.033a18.69 18.69 0 0 0-13.3 5.508l-6.488 6.488a1.105 1.105 0 0 0 .725 1.884l13.734.706-.56.69c-.282.347-.327.83-.113 1.224q.322.592.676 1.168l-3.257 3.866c-.278.33-.338.793-.154 1.184a14.5 14.5 0 0 0 2.807 4.015 14.5 14.5 0 0 0 4.098 2.89 1.1 1.1 0 0 0 1.168-.14c.702-.57 1.51-1.245 2.293-1.898a329 329 0 0 1 1.662-1.38q.477.287.967.555a1.1 1.1 0 0 0 1.205-.098l.753-.584.708 13.792a1.105 1.105 0 0 0 1.884.724l6.488-6.488a18.68 18.68 0 0 0 5.51-13.3v-6.05l2.56-1.986A33.2 33.2 0 0 0 58.137 5.22l.026-.538a2.56 2.56 0 0 0-.759-1.946M5.485 28.879l4.732-4.732a16.5 16.5 0 0 1 11.722-4.862l4.63.136L18.35 29.54zM22.17 42.966c-.577.481-1.168.974-1.716 1.425a12.2 12.2 0 0 1-2.86-2.137 12.2 12.2 0 0 1-2.06-2.779l2.384-2.83c.72.967 1.51 1.883 2.362 2.741l.003.002v.001h.001a25.6 25.6 0 0 0 3.04 2.615zm18.383-5.083c0 4.434-1.727 8.603-4.862 11.738l-4.732 4.732-.66-12.848 10.254-7.957zm15.38-32.771a30.99 30.99 0 0 1-11.966 22.99L26.644 41.544a23.4 23.4 0 0 1-4.001-2.953l5.84-5.84a1.105 1.105 0 0 0-1.562-1.562l-5.835 5.834a23.4 23.4 0 0 1-2.831-3.862l14.203-17.486a31.1 31.1 0 0 1 22.102-11.4l1.028-.065a.347.347 0 0 1 .37.364z"/></svg>