<svg xmlns="http://www.w3.org/2000/svg" width="60" height="60" fill="none"><path fill="#282928" d="M27.199 9.468h5.6a.933.933 0 0 0 0-1.866h-5.6a.933.933 0 1 0 0 1.866M43.066 9.468h10.267a.933.933 0 1 0 0-1.866H43.066a.933.933 0 0 0 0 1.866"/><path fill="#282928" d="M53.333 3.867H6.667A4.67 4.67 0 0 0 2 8.534V44a4.67 4.67 0 0 0 4.667 4.666h8.407a18.626 18.626 0 0 0 29.826 0h8.433A4.67 4.67 0 0 0 58 44.001V8.534a4.67 4.67 0 0 0-4.667-4.667M6.667 5.734h46.666a2.8 2.8 0 0 1 2.8 2.8v2.8H3.867v-2.8a2.8 2.8 0 0 1 2.8-2.8M30 54.267a16.88 16.88 0 0 1-13.59-6.921.93.93 0 0 1-.026-1.081l.064-.07a.89.89 0 0 1 .702-.334h.024c.31.01.596.163.776.415.56.762 1.19 1.47 1.884 2.111l.017.015c5.713 5.33 14.574 5.332 20.29.006l.032-.032a14.87 14.87 0 0 0 4.223-6.926.933.933 0 0 0-.9-1.183h-1.327l-.014-.146 2.52-3.071a1 1 0 0 0 .053-.073l1.154-1.365 3.697 4.508.721-.592-.73.737h-2.24c-.44 0-.82.308-.912.739A16.864 16.864 0 0 1 30 54.267m-6.668-5.6H36.71a12.92 12.92 0 0 1-13.377 0M53.333 46.8h-7.186a18.4 18.4 0 0 0 1.928-4.666h1.493c.734 0 1.401-.427 1.71-1.093a1.96 1.96 0 0 0-.25-2.103L47.33 34.43a1.883 1.883 0 0 0-2.913-.004l-1.177 1.43a1 1 0 0 0-.06.083l-2.463 3.002a1.97 1.97 0 0 0-.248 2.1c.307.664.97 1.09 1.7 1.093h.038a13 13 0 0 1-3.08 4.666H20.899a13 13 0 0 1-1.446-1.626 2.84 2.84 0 0 0-2.23-1.18 2.71 2.71 0 0 0-2.156.95l-.064.068a2.8 2.8 0 0 0-.633 1.788H6.667a2.8 2.8 0 0 1-2.8-2.8V13.2h52.266V44a2.8 2.8 0 0 1-2.8 2.8"/><path fill="#282928" d="M6.668 9.468a.933.933 0 1 0 0-1.866.933.933 0 0 0 0 1.866M10.398 9.468a.933.933 0 1 0 0-1.866.933.933 0 0 0 0 1.866M14.133 9.468a.933.933 0 1 0 0-1.866.933.933 0 0 0 0 1.866M30.003 18.801A18.57 18.57 0 0 0 11.71 33.734h-1.27c-.733 0-1.4.426-1.709 1.092a1.97 1.97 0 0 0 .25 2.104l3.697 4.509a1.887 1.887 0 0 0 2.917 0l3.698-4.51a1.97 1.97 0 0 0 .248-2.102 1.88 1.88 0 0 0-1.709-1.093h-.354a13.067 13.067 0 0 1 23.371-3.546 2.83 2.83 0 0 0 2.23 1.262 2.73 2.73 0 0 0 2.262-1.005l.005-.005.005-.007a2.79 2.79 0 0 0 .161-3.333 18.6 18.6 0 0 0-15.509-8.299m13.9 10.453a.87.87 0 0 1-.736.33.98.98 0 0 1-.77-.442 14.933 14.933 0 0 0-27.029 5.339.933.933 0 0 0 .915 1.12h1.551l.014.147-3.728 4.508-3.696-4.508-.721.592.737-.739h2.054c.459 0 .85-.334.922-.787a16.79 16.79 0 0 1 30.543-6.68.94.94 0 0 1-.052 1.114l.722.591zM6.668 17.867h1.866a.933.933 0 0 0 0-1.867H6.668a.933.933 0 0 0 0 1.867M12.265 17.867h8.4a.933.933 0 0 0 0-1.867h-8.4a.933.933 0 1 0 0 1.867M15.068 20.668a.933.933 0 0 0-.934-.934H6.668a.933.933 0 1 0 0 1.867h7.466a.933.933 0 0 0 .934-.933M53.335 16h-1.867a.933.933 0 1 0 0 1.867h1.867a.933.933 0 0 0 0-1.867M39.332 17.867h8.4a.933.933 0 0 0 0-1.867h-8.4a.933.933 0 1 0 0 1.867M53.334 19.734h-7.467a.933.933 0 1 0 0 1.867h7.467a.933.933 0 1 0 0-1.867"/></svg>