<svg xmlns="http://www.w3.org/2000/svg" width="60" height="60" fill="none"><path fill="#E44D26" fill-rule="evenodd" d="m51.647 0-4.705 52.71-21.15 5.863L4.7 52.719 0 0z" clip-rule="evenodd"/><path fill="#F16529" fill-rule="evenodd" d="m25.824 54.092 17.093-4.738 4.019-45.045H25.824z" clip-rule="evenodd"/><path fill="#EBEBEB" fill-rule="evenodd" d="M16.678 17.24h9.148v-6.463H9.609l.153 1.735 1.587 17.818h14.467v-6.468H17.27zm1.454 16.322h-6.487l.905 10.153 13.247 3.675.029-.01v-6.725l-.029.01-7.203-1.945z" clip-rule="evenodd"/><path fill="#fff" fill-rule="evenodd" d="M25.8 30.335h7.961l-.748 8.385-7.212 1.944v6.726l13.256-3.675.095-1.092 1.52-17.021.158-1.735H25.8zm0-13.104v.015h15.616l.13-1.454.295-3.28.152-1.735H25.801z" clip-rule="evenodd"/></svg>