<svg xmlns="http://www.w3.org/2000/svg" width="60" height="60" fill="none"><path fill="#282928" d="M30.08 58c14.159-.086 25.663-11.479 25.916-25.665S45.158 6.35 31.01 5.758V3.804a1.81 1.81 0 0 0-.898-1.573 1.7 1.7 0 0 0-1.724.008L23.51 5.104a1.827 1.827 0 0 0 0 3.128l4.88 2.865c.53.315 1.19.318 1.723.008.558-.326.9-.925.898-1.573V7.625c13.244.51 23.618 11.595 23.277 24.872s-11.27 23.812-24.523 23.64S5.86 45.148 5.863 31.867a.932.932 0 1 0-1.863 0C4.016 46.293 15.683 57.984 30.08 58M24.51 6.68l4.638-2.719.02 2.608a1 1 0 0 0-.02.099 1 1 0 0 0 .022.112l.02 2.624zM4.783 28.989a1 1 0 0 0 .142.01c.457 0 .845-.364.912-.856q.064-.488.15-.969c.085-.541-.245-1.056-.742-1.157-.496-.1-.974.251-1.074.79q-.09.517-.16 1.04c-.076.547.27 1.058.772 1.142M5.56 23.962c.21.059.442.05.644-.027a.75.75 0 0 0 .431-.38q.146-.323.305-.641a.56.56 0 0 0-.12-.66c-.187-.187-.485-.281-.783-.247-.297.034-.55.191-.661.412q-.168.342-.327.692a.54.54 0 0 0 .033.51c.096.159.268.282.478.34M7.546 19.854c.257.138.566.18.86.118.293-.063.546-.225.702-.452q.341-.489.7-.963c.349-.459.21-1.08-.312-1.387-.522-.308-1.228-.185-1.578.273q-.389.512-.752 1.037c-.326.472-.156 1.087.38 1.374M11.065 16c.3 0 .587-.125.79-.344q.406-.444.836-.869a1.037 1.037 0 0 0-.006-1.483 1.077 1.077 0 0 0-1.506.006q-.463.459-.903.937c-.283.307-.355.75-.185 1.13.171.379.553.623.974.623M15.062 12c.226-.001.445-.055.626-.154q.42-.225.85-.44c.481-.238.607-.717.28-1.068s-.983-.444-1.465-.205q-.466.23-.918.475c-.371.196-.525.545-.382.863s.551.531 1.01.529"/><path fill="#282928" d="M19.063 10c.16 0 .319-.029.463-.084q.424-.162.847-.313c.345-.122.582-.38.621-.679.04-.297-.125-.589-.432-.765a1.3 1.3 0 0 0-1.053-.086q-.46.163-.912.335c-.445.17-.681.562-.57.943s.542.65 1.036.649M13.944 46h32.112a.93.93 0 0 0 .944-.92.93.93 0 0 0-.944-.92h-2.834V24.84c0-1.016-.846-1.84-1.889-1.84h-1.889c-1.043 0-1.888.824-1.888 1.84v19.32h-1.89V28.52c0-1.016-.845-1.84-1.888-1.84h-1.89c-1.042 0-1.888.824-1.888 1.84v15.64h-1.889V32.2c0-1.016-.846-1.84-1.889-1.84h-1.889c-1.043 0-1.889.824-1.889 1.84v11.96h-1.888v-6.44c0-1.016-.846-1.84-1.89-1.84h-1.888c-1.043 0-1.89.824-1.89 1.84v6.44h-.944a.93.93 0 0 0-.944.92c0 .508.423.92.944.92m25.5-21.16h1.89v19.32h-1.89zm-7.555 3.68h1.889v15.64h-1.89zm-7.556 3.68h1.89v11.96h-1.89zm-7.555 5.52h1.889v6.44h-1.89zM15.131 31.537a.93.93 0 0 0 .8.463.9.9 0 0 0 .475-.134L39.633 17.84l-.397 1.619a.96.96 0 0 0 .105.717.93.93 0 0 0 .798.46.934.934 0 0 0 .902-.717l.931-3.788a.96.96 0 0 0-.105-.718.93.93 0 0 0-.573-.431l-3.724-.947a.92.92 0 0 0-.91.25.96.96 0 0 0-.23.931c.096.33.36.58.69.656l1.49.379-23.155 13.988a.95.95 0 0 0-.426.581.96.96 0 0 0 .102.718"/></svg>