<svg xmlns="http://www.w3.org/2000/svg" width="60" height="60" fill="none"><path fill="#282928" d="M56.129 25.023h-8.556c-.261 0-.509.12-.674.325a.9.9 0 0 0-.18.736c.22 1.123.332 2.276.332 3.426 0 9.573-7.649 17.36-17.051 17.36s-17.051-7.787-17.051-17.36c0-1.15.112-2.303.333-3.426a.9.9 0 0 0-.18-.736.87.87 0 0 0-.674-.325H3.87A.88.88 0 0 0 3 25.91v7.2c0 .367.222.696.558.828l3.907 1.53a23.8 23.8 0 0 0 2.463 6.05l-1.7 3.898a.9.9 0 0 0 .18.987l5 5.091a.86.86 0 0 0 .97.184l3.827-1.731a22.9 22.9 0 0 0 5.943 2.508l1.503 3.977c.13.342.453.568.813.568h7.072c.36 0 .684-.226.813-.568l1.504-3.978a22.9 22.9 0 0 0 5.94-2.508l3.829 1.732a.86.86 0 0 0 .97-.184l5-5.091a.9.9 0 0 0 .18-.987l-1.7-3.897a23.8 23.8 0 0 0 2.464-6.05l3.906-1.531A.89.89 0 0 0 57 33.11v-7.2c0-.49-.39-.887-.871-.887m-.87 7.478-3.772 1.478a.88.88 0 0 0-.534.623 22 22 0 0 1-2.602 6.39.9.9 0 0 0-.054.825l1.64 3.762-4.154 4.23-3.697-1.671a.86.86 0 0 0-.81.055 21.2 21.2 0 0 1-6.275 2.649.88.88 0 0 0-.611.544l-1.452 3.84h-5.876l-1.452-3.839a.88.88 0 0 0-.61-.544 21.2 21.2 0 0 1-6.277-2.65.86.86 0 0 0-.81-.054l-3.696 1.67-4.155-4.23 1.642-3.764a.9.9 0 0 0-.054-.825 22 22 0 0 1-2.602-6.388.88.88 0 0 0-.534-.622L4.742 32.5v-5.704h6.654a20 20 0 0 0-.189 2.713c0 10.55 8.43 19.134 18.793 19.134s18.793-8.583 18.793-19.134c0-.908-.063-1.816-.188-2.713h6.653zM6.876 15.472v6.08c0 .49.39.887.872.887h7.4v3.362a16 16 0 0 0-.437 3.709c0 8.583 6.858 15.566 15.288 15.566s15.288-6.983 15.288-15.566c0-1.253-.147-2.5-.437-3.709V22.44h7.4a.88.88 0 0 0 .872-.887v-6.08a3.26 3.26 0 0 0 2.336-3.142c0-1.801-1.439-3.266-3.207-3.266-1.769 0-3.208 1.465-3.208 3.266 0 1.493.99 2.755 2.337 3.142v5.194H43.98a.88.88 0 0 0-.871.886v4.358q0 .11.026.216c.273 1.102.411 2.24.411 3.384 0 7.605-6.077 13.792-13.546 13.792-7.47 0-13.546-6.187-13.546-13.792 0-1.144.138-2.282.41-3.384a1 1 0 0 0 .027-.216v-4.358c0-.49-.39-.886-.87-.886H8.618v-5.194a3.26 3.26 0 0 0 2.337-3.142c0-1.801-1.439-3.266-3.208-3.266-1.768 0-3.207 1.465-3.207 3.266 0 1.493.99 2.755 2.336 3.142m43.91-3.142c0-.823.657-1.492 1.465-1.492s1.465.669 1.465 1.492c0 .822-.657 1.492-1.465 1.492s-1.466-.67-1.466-1.492M7.747 10.838c.809 0 1.466.669 1.466 1.492 0 .822-.657 1.492-1.466 1.492s-1.465-.67-1.465-1.492c0-.823.657-1.492 1.465-1.492m12.816 9.67V33.92h-.297a.88.88 0 0 0-.871.887c0 .49.39.887.87.887h19.467c.481 0 .871-.397.871-.887s-.39-.887-.87-.887h-.298V18.554c0-.49-.39-.886-.871-.886H36.44v-5.194a3.26 3.26 0 0 0 2.337-3.142c0-1.801-1.439-3.266-3.208-3.266-1.768 0-3.207 1.465-3.207 3.266 0 1.493.99 2.754 2.336 3.142v6.08c0 .49.39.887.871.887h2.124V33.92h-3.968v-7.752a3.26 3.26 0 0 0 2.337-3.142c0-1.801-1.44-3.266-3.208-3.266s-3.207 1.465-3.207 3.266c0 1.493.99 2.755 2.336 3.142v7.752h-3.968V19.441h2.124c.48 0 .87-.397.87-.887V11.92c0-.49-.39-.887-.87-.887h-4.46V9.408a3.26 3.26 0 0 0 2.336-3.142c0-1.8-1.439-3.266-3.208-3.266-1.768 0-3.207 1.465-3.207 3.266 0 1.493.99 2.755 2.336 3.142v2.512c0 .49.39.887.871.887h4.46v4.86h-2.123a.88.88 0 0 0-.87.888V33.92h-3.969V20.51a3.26 3.26 0 0 0 2.337-3.143c0-1.8-1.44-3.265-3.208-3.265s-3.207 1.465-3.207 3.265c0 1.494.99 2.755 2.336 3.143m13.54-11.176c0-.823.658-1.493 1.466-1.493.809 0 1.466.67 1.466 1.493 0 .822-.657 1.492-1.466 1.492s-1.465-.67-1.465-1.492M31.39 23.026c0-.823.658-1.492 1.466-1.492s1.466.669 1.466 1.492-.658 1.492-1.466 1.492-1.466-.67-1.466-1.492m-8.046-16.76c0-.823.657-1.492 1.465-1.492s1.466.669 1.466 1.492-.658 1.492-1.466 1.492-1.465-.67-1.465-1.492m-1.908 9.608c.808 0 1.466.67 1.466 1.492 0 .823-.658 1.492-1.466 1.492s-1.465-.669-1.465-1.492.657-1.492 1.465-1.492"/></svg>