<svg xmlns="http://www.w3.org/2000/svg" width="60" height="60" fill="none"><g clip-path="url(#a)"><path fill="#478AFF" fill-rule="evenodd" d="M29.998 16.341c-7.544 0-13.671 6.123-13.671 13.671 0 7.553 6.122 13.676 13.67 13.676 7.554 0 13.676-6.123 13.676-13.676-.005-7.548-6.127-13.666-13.675-13.67m27.307 1.24-.264-.57-.41.478a9.4 9.4 0 0 1-3.76 2.587l-.41.147.162.41a24.6 24.6 0 0 1 1.88 9.413c0 13.54-10.981 24.53-24.525 24.53s-24.52-10.99-24.52-24.534S16.44 5.517 29.984 5.517c3.642 0 7.23.81 10.522 2.373l.38.18.162-.41a9.44 9.44 0 0 1 2.773-3.622l.483-.41-.552-.288A29.7 29.7 0 0 0 30.066 0h-.078C13.432 0 0 13.432 0 29.998s13.441 29.997 29.998 29.997c16.57 0 29.997-13.431 29.997-29.997 0-4.297-.918-8.55-2.705-12.45zm-1.45-6.259a6.226 6.226 0 0 0-12.45 0 6.225 6.225 0 1 0 12.45 0" clip-rule="evenodd"/></g><defs><clipPath id="a"><path fill="#fff" d="M0 0h60v60H0z"/></clipPath></defs></svg>