<svg xmlns="http://www.w3.org/2000/svg" width="61" height="60" fill="none"><path fill="#282928" d="M36.37 21.602c-.278 0-.557-.106-.77-.319-4.869-4.87-12.793-4.87-17.662 0a1.09 1.09 0 0 1-1.54-1.54c5.718-5.72 15.024-5.72 20.743 0a1.089 1.089 0 0 1-.77 1.86M40.098 17.874c-.28 0-.56-.107-.774-.322l-.013-.013a1.09 1.09 0 1 1 1.534-1.547l.026.025a1.09 1.09 0 0 1-.774 1.857"/><path fill="#282928" d="M13.441 17.874a1.09 1.09 0 0 1-.77-1.86c3.23-3.23 7.332-5.205 11.861-5.714 4.397-.494 8.884.499 12.636 2.795a1.09 1.09 0 0 1-1.138 1.858 17.7 17.7 0 0 0-21.819 2.602c-.212.213-.491.32-.77.32M26.769 44.723a14.62 14.62 0 0 1-10.372-4.289 1.09 1.09 0 1 1 1.541-1.54c4.87 4.869 12.793 4.869 17.662 0a1.09 1.09 0 0 1 1.541 1.54 14.62 14.62 0 0 1-10.372 4.29"/><path fill="#282928" d="M26.78 50c-3.895 0-7.736-1.14-10.986-3.286a1.09 1.09 0 0 1 1.2-1.818c7 4.622 16.391 3.664 22.332-2.276a1.09 1.09 0 1 1 1.54 1.54 19.97 19.97 0 0 1-12.189 5.75q-.948.09-1.897.09M13.479 44.517c-.277 0-.553-.104-.766-.314l-.046-.046a1.09 1.09 0 0 1 1.548-1.534l.029.03a1.09 1.09 0 0 1-.765 1.864M26.753 34.116a4.03 4.03 0 0 1-4.026-4.027 4.03 4.03 0 0 1 4.026-4.026 4.03 4.03 0 0 1 4.027 4.026 4.03 4.03 0 0 1-4.027 4.027m0-5.875a1.85 1.85 0 0 0-1.848 1.848 1.85 1.85 0 0 0 1.848 1.848 1.85 1.85 0 0 0 1.848-1.848 1.85 1.85 0 0 0-1.848-1.848M6.195 40.753a4.03 4.03 0 0 1-4.027-4.026V23.453a4.03 4.03 0 0 1 4.027-4.027 4.03 4.03 0 0 1 4.026 4.027v13.274a4.03 4.03 0 0 1-4.026 4.026m0-19.148a1.85 1.85 0 0 0-1.848 1.848v13.274a1.85 1.85 0 0 0 1.848 1.847 1.85 1.85 0 0 0 1.847-1.847V23.453a1.85 1.85 0 0 0-1.847-1.848M49.698 40.749a3.54 3.54 0 0 1-3.537-3.537V26.574h-1.175a3.54 3.54 0 0 1-3.537-3.537 3.54 3.54 0 0 1 3.537-3.537h9.424a3.54 3.54 0 0 1 3.537 3.537 3.54 3.54 0 0 1-3.537 3.537h-1.175v10.638a3.54 3.54 0 0 1-3.537 3.537m-4.712-19.07a1.36 1.36 0 0 0-1.358 1.358c0 .749.61 1.358 1.358 1.358h2.264c.602 0 1.09.488 1.09 1.09v11.727c0 .749.61 1.358 1.358 1.358a1.36 1.36 0 0 0 1.358-1.358V25.484c0-.601.488-1.09 1.09-1.09h2.264a1.36 1.36 0 0 0 1.358-1.357 1.36 1.36 0 0 0-1.358-1.358z"/><path fill="#282928" d="M26.755 39.4c-5.136 0-9.314-4.178-9.314-9.313s4.178-9.314 9.314-9.314c5.135 0 9.313 4.179 9.313 9.314S31.89 39.4 26.755 39.4m0-16.448a7.14 7.14 0 0 0-7.135 7.135c0 3.934 3.2 7.134 7.135 7.134 3.933 0 7.134-3.2 7.134-7.134s-3.2-7.135-7.134-7.135"/></svg>