<svg xmlns="http://www.w3.org/2000/svg" width="60" height="60" fill="none"><path fill="#282928" d="M4.688 11.25a2.827 2.827 0 0 0-2.813 2.812v26.25a2.827 2.827 0 0 0 2.813 2.813h13.141a5 5 0 0 1-.119.619c-.22.839-.757 1.963-2.119 3.13H14.06c-1.25 0-1.25 1.874 0 1.874h11.254c1.25 0 1.25-1.875 0-1.875h-7.129c.731-.946 1.136-1.872 1.34-2.655.107-.41.149-.768.17-1.093h5.619c1.267.018 1.267-1.893 0-1.875H4.688a.916.916 0 0 1-.938-.938v-4.687h21.563c1.267.018 1.267-1.893 0-1.875H3.75V14.062c0-.535.402-.937.938-.937h35.625c.535 0 .937.402.937.937-.017 1.268 1.892 1.268 1.875 0a2.827 2.827 0 0 0-2.812-2.812zm26.25 5.621a2.835 2.835 0 0 0-2.817 2.818v26.25c0 1.542 1.275 2.81 2.817 2.81h11.246c1.25 0 1.25-1.876 0-1.876H30.938a.916.916 0 0 1-.942-.934v-4.685h12.188c1.25 0 1.25-1.875 0-1.875H29.996v-16.88h18.756v2.817c0 1.25 1.875 1.25 1.875 0V19.69a2.835 2.835 0 0 0-2.816-2.818zM6.55 18.734a.94.94 0 0 0-.927.955v1.875c0 1.25 1.875 1.25 1.875 0V19.69a.94.94 0 0 0-.948-.956m24.388.014H47.81c.535 0 .94.405.94.94v.935H29.997v-.934c0-.536.406-.941.942-.941M6.55 24.36a.94.94 0 0 0-.927.956v5.617c0 1.25 1.875 1.25 1.875 0v-5.617a.94.94 0 0 0-.948-.956m26.25 0a.94.94 0 0 0-.927.956v1.875c0 1.25 1.875 1.25 1.875 0v-1.875a.94.94 0 0 0-.948-.956m15.01 3.765A2.823 2.823 0 0 0 45 30.933V45.94a2.823 2.823 0 0 0 2.81 2.809h7.502a2.82 2.82 0 0 0 2.81-2.81V30.934a2.82 2.82 0 0 0-2.81-2.808zM32.8 29.987a.936.936 0 0 0-.927.946v5.627c0 1.25 1.875 1.25 1.875 0v-5.627a.937.937 0 0 0-.948-.946M47.81 30h7.502a.91.91 0 0 1 .934.934v.942h-9.37v-.943c0-.536.399-.933.935-.933m-.933 3.752h9.37v9.37h-9.37zM21.56 39.38h1.877c1.25 0 1.25-1.877 0-1.877h-1.922c-1.295.06-1.206 1.937.045 1.877m16.88 3.742c-1.25 0-1.25 1.875 0 1.875h1.875c1.25 0 1.25-1.875 0-1.875zm8.436 1.875h9.37v.943a.91.91 0 0 1-.934.934H47.81a.91.91 0 0 1-.934-.934z"/></svg>