<svg xmlns="http://www.w3.org/2000/svg" width="60" height="60" fill="none"><path fill="#282928" d="M30.038 24.047c-3.297 0-5.991 2.694-5.991 5.991s2.694 5.991 5.991 5.991 5.991-2.694 5.991-5.991-2.694-5.991-5.991-5.991"/><path fill="#282928" d="M2.082 30.033c0 1.848.929 3.554 2.424 4.995 1.495 1.44 3.573 2.668 6.095 3.695 5.043 2.055 11.885 3.292 19.44 3.292 7.554 0 14.397-1.237 19.44-3.292 2.521-1.027 4.599-2.255 6.094-3.695S58 31.88 58 30.033s-.929-3.556-2.424-4.997-3.573-2.668-6.094-3.695c-5.043-2.055-11.886-3.29-19.44-3.29s-14.397 1.235-19.44 3.29c-2.522 1.027-4.6 2.255-6.095 3.695s-2.424 3.15-2.424 4.997m1.999 0c0-1.185.58-2.368 1.814-3.555s3.103-2.324 5.46-3.284c4.715-1.921 11.351-3.144 18.686-3.144s13.97 1.223 18.685 3.144c2.357.96 4.228 2.096 5.46 3.284C55.42 27.665 56 28.848 56 30.033s-.58 2.366-1.813 3.553c-1.233 1.188-3.104 2.326-5.461 3.287-4.714 1.92-11.35 3.141-18.685 3.141s-13.971-1.221-18.686-3.141c-2.357-.96-4.227-2.1-5.46-3.287S4.08 31.218 4.08 30.033"/><path fill="#282928" d="M44.612 55.255c1.61-.928 2.6-2.626 3.061-4.69.462-2.063.437-4.544.01-7.328-.857-5.566-3.358-12.353-7.297-19.169s-8.573-12.372-12.97-15.897c-2.198-1.763-4.337-3.025-6.357-3.657s-3.986-.626-5.595.303c-1.61.928-2.598 2.625-3.06 4.689-.46 2.063-.437 4.545-.01 7.328.858 5.566 3.358 12.353 7.298 19.17 3.939 6.815 8.572 12.371 12.97 15.896 2.197 1.763 4.337 3.025 6.356 3.657s3.985.627 5.594-.302m-1-1.732c-1.009.582-2.325.65-3.998.126s-3.637-1.65-5.702-3.306c-4.128-3.31-8.655-8.705-12.489-15.339-3.834-6.633-6.248-13.248-7.053-18.474-.403-2.614-.397-4.876-.015-6.586.383-1.71 1.1-2.813 2.108-3.395s2.325-.65 3.998-.126 3.638 1.65 5.703 3.305c4.128 3.31 8.653 8.706 12.487 15.34s6.25 13.247 7.055 18.473c.403 2.614.396 4.877.013 6.587s-1.1 2.813-2.108 3.395"/><path fill="#282928" d="M15.466 55.256c-1.61-.93-2.6-2.627-3.06-4.69-.463-2.064-.439-4.544-.01-7.327.857-5.567 3.358-12.356 7.297-19.172 3.94-6.816 8.573-12.373 12.97-15.898 2.198-1.762 4.336-3.023 6.356-3.655 2.02-.633 3.986-.626 5.596.303 1.61.928 2.597 2.625 3.059 4.689s.438 4.543.01 7.327c-.858 5.566-3.358 12.353-7.297 19.17-3.94 6.816-8.574 12.374-12.97 15.899-2.2 1.763-4.338 3.023-6.357 3.655-2.02.633-3.985.627-5.594-.302m1-1.733c1.01.581 2.324.652 3.997.128s3.639-1.653 5.703-3.308c4.128-3.31 8.656-8.705 12.49-15.34 3.834-6.633 6.246-13.246 7.052-18.473.402-2.613.398-4.878.016-6.587-.383-1.71-1.1-2.814-2.108-3.395-1.009-.582-2.325-.65-3.998-.127-1.673.524-3.64 1.652-5.704 3.307-4.129 3.31-8.653 8.705-12.487 15.339s-6.25 13.247-7.055 18.474c-.402 2.613-.396 4.879-.014 6.588.383 1.71 1.1 2.813 2.109 3.394"/></svg>