<svg xmlns="http://www.w3.org/2000/svg" width="60" height="60" fill="none"><path fill="#00D8FF" fill-rule="evenodd" d="M58.391 26.007c0-3.868-4.842-7.532-12.27-9.808 1.716-7.57.951-13.59-2.404-15.52-.774-.45-1.677-.665-2.665-.665v2.657c.546 0 .988.109 1.359.308 1.62.927 2.319 4.462 1.772 9.01a38 38 0 0 1-.608 3.497 58 58 0 0 0-7.556-1.297c-1.606-2.2-3.274-4.2-4.951-5.95 3.877-3.61 7.517-5.583 9.993-5.583V0c-3.274 0-7.555 2.333-11.89 6.382C24.839 2.357 20.558.048 17.284.048v2.656c2.461 0 6.115 1.962 9.998 5.545a55.6 55.6 0 0 0-4.914 5.94c-2.69.285-5.236.727-7.57 1.307a35 35 0 0 1-.617-3.45c-.561-4.548.133-8.083 1.739-9.024.356-.214.822-.309 1.368-.309V.062c-.997 0-1.905.214-2.69.665-3.344 1.93-4.095 7.94-2.366 15.487C4.818 18.494 0 22.149 0 26.007c0 3.868 4.842 7.532 12.27 9.808-1.716 7.57-.951 13.59 2.404 15.52.774.451 1.677.665 2.68.665 3.274 0 7.555-2.333 11.89-6.382 4.333 4.025 8.614 6.334 11.888 6.334.998 0 1.906-.213 2.69-.665 3.345-1.93 4.096-7.94 2.366-15.486 7.385-2.272 12.203-5.94 12.203-9.794m-23.769 0a5.44 5.44 0 0 0-5.44-5.44 5.44 5.44 0 0 0-5.441 5.44 5.437 5.437 0 0 0 5.44 5.441 5.443 5.443 0 0 0 5.441-5.44m8.273-7.94a55 55 0 0 1-1.606 4.7 56 56 0 0 0-1.558-2.857 62 62 0 0 0-1.716-2.784c1.692.252 3.322.56 4.88.94m-5.45 12.678a63 63 0 0 1-2.87 4.547 61 61 0 0 1-5.38.238c-1.796 0-3.592-.086-5.355-.228a62.56 62.56 0 0 1-5.355-9.261 63 63 0 0 1 2.461-4.748 63 63 0 0 1 2.87-4.547 61 61 0 0 1 5.38-.238c1.796 0 3.592.086 5.355.228a62.56 62.56 0 0 1 5.355 9.261 68 68 0 0 1-2.461 4.748m3.844-1.55a53 53 0 0 1 1.644 4.738c-1.558.38-3.202.704-4.904.95a69 69 0 0 0 1.716-2.822 77 77 0 0 0 1.544-2.865M29.22 41.894a48 48 0 0 1-3.307-3.807c1.07.048 2.167.086 3.274.086a58 58 0 0 0 3.307-.086 47 47 0 0 1-3.274 3.807m-8.852-7.01a55 55 0 0 1-4.88-.94 55 55 0 0 1 1.606-4.7c.489.95.997 1.906 1.558 2.856q.84 1.431 1.716 2.785m8.79-24.766a48 48 0 0 1 3.308 3.806 74 74 0 0 0-3.274-.085c-1.117 0-2.224.023-3.307.085a47 47 0 0 1 3.274-3.806m-8.805 7.009a69 69 0 0 0-1.715 2.822 70 70 0 0 0-1.55 2.856 53 53 0 0 1-1.643-4.737 58 58 0 0 1 4.908-.941M9.58 32.028c-4.215-1.796-6.938-4.153-6.938-6.02 0-1.868 2.728-4.24 6.938-6.021 1.021-.442 2.143-.832 3.298-1.203a57 57 0 0 0 2.68 7.247c-1.093 2.476-1.977 4.89-2.642 7.213a36 36 0 0 1-3.336-1.216m6.405 17.007c-1.62-.927-2.318-4.462-1.772-9.01.133-1.117.347-2.295.608-3.497 2.333.57 4.88 1.012 7.556 1.297 1.606 2.2 3.274 4.2 4.951 5.95-3.882 3.606-7.522 5.583-9.998 5.583-.537-.014-.988-.119-1.345-.323m28.231-9.067c.561 4.548-.133 8.083-1.739 9.024-.356.214-.822.309-1.368.309-2.462 0-6.116-1.963-9.998-5.546a55.6 55.6 0 0 0 4.913-5.94c2.69-.284 5.237-.726 7.57-1.31a34 34 0 0 1 .622 3.463m4.581-7.94c-1.021.442-2.143.831-3.298 1.202a57 57 0 0 0-2.68-7.247c1.093-2.475 1.977-4.89 2.642-7.213q1.77.555 3.346 1.212c4.215 1.796 6.938 4.153 6.938 6.02-.01 1.873-2.733 4.24-6.948 6.026" clip-rule="evenodd"/></svg>