<svg xmlns="http://www.w3.org/2000/svg" width="60" height="60" fill="none"><path fill="#282928" d="M9.054 9.054A23.93 23.93 0 0 1 26.084 2c6.432 0 12.48 2.505 17.028 7.054.333.332.659.678.97 1.027a.822.822 0 1 1-1.228 1.093c-.29-.326-.594-.648-.904-.958a22.3 22.3 0 0 0-15.867-6.572 22.3 22.3 0 0 0-15.867 6.572c-8.749 8.75-8.749 22.985 0 31.734a22.3 22.3 0 0 0 15.867 6.572A22.3 22.3 0 0 0 41.95 41.95a22.47 22.47 0 0 0 6.472-13.745 22.5 22.5 0 0 0-3.63-14.52.822.822 0 0 1 1.37-.91 24.15 24.15 0 0 1 3.897 15.584c-.4 4.244-1.934 8.3-4.397 11.743l2.414 2.414a.82.82 0 0 1 1.162 0l7.372 7.372a4.76 4.76 0 0 1 0 6.722A4.74 4.74 0 0 1 53.249 58a4.74 4.74 0 0 1-3.361-1.39l-2.084-2.083a.822.822 0 0 1 1.163-1.163l2.083 2.084c.588.587 1.369.91 2.2.91.83 0 1.61-.323 2.198-.91.587-.588.91-1.368.91-2.2a3.1 3.1 0 0 0-.91-2.198l-6.79-6.79-4.398 4.397 2.382 2.382a.822.822 0 1 1-1.162 1.163l-2.964-2.964a.82.82 0 0 1 0-1.162l-2.41-2.409c-4.061 2.922-8.92 4.5-14.023 4.5a23.93 23.93 0 0 1-17.029-7.055A23.93 23.93 0 0 1 2 26.083c0-6.433 2.505-12.48 7.054-17.03m34.624 37.86 3.236-3.236-2.262-2.262a24 24 0 0 1-3.233 3.238z"/><path fill="#282928" d="M34.494 43.608a19.4 19.4 0 0 0 5.33-3.783c7.577-7.576 7.577-19.903 0-27.479-7.575-7.576-19.902-7.576-27.478 0s-7.576 19.903 0 27.479a19.47 19.47 0 0 0 18.932 4.987.822.822 0 1 0-.438-1.584 17.83 17.83 0 0 1-17.332-4.566c-6.935-6.935-6.935-18.219 0-25.154s18.22-6.935 25.154 0c6.935 6.936 6.935 18.22 0 25.154a17.8 17.8 0 0 1-4.88 3.464.822.822 0 1 0 .712 1.482"/><path fill="#282928" d="M26.98 22.335a.822.822 0 1 0 0-1.644h-3.85a.82.82 0 0 0-.821.822v9.135c0 .454.367.822.822.822h3.849a.822.822 0 0 0 0-1.644h-3.027v-2.923h2.743a.822.822 0 1 0 0-1.644h-2.744v-2.924zM17.234 29.872c-1.008 0-1.981-.41-2.604-1.097a.822.822 0 1 0-1.218 1.104c.929 1.025 2.358 1.636 3.822 1.636 1.754 0 3.282-1.15 3.554-2.675.314-1.76-1.07-2.938-2.47-3.454a49 49 0 0 1-2.564-1.038.96.96 0 0 1-.384-.933c.068-.47.429-.847.965-1.008 1.48-.446 2.817.626 2.842.647a.822.822 0 0 0 1.055-1.26c-.081-.07-2.021-1.669-4.37-.962-1.149.346-1.96 1.246-2.119 2.349a2.6 2.6 0 0 0 1.16 2.577 1 1 0 0 0 .115.062c.053.024 1.312.584 2.732 1.108 1.02.376 1.537.968 1.42 1.623-.115.64-.832 1.32-1.936 1.32M39.468 26.084a5.44 5.44 0 0 0-5.431-5.432 5.44 5.44 0 0 0-5.431 5.432 5.437 5.437 0 0 0 5.43 5.431 5.437 5.437 0 0 0 5.432-5.431m-9.219 0a3.79 3.79 0 0 1 3.788-3.788c2.088 0 3.788 1.7 3.788 3.788s-1.7 3.787-3.788 3.787a3.79 3.79 0 0 1-3.787-3.787"/></svg>