<svg xmlns="http://www.w3.org/2000/svg" width="60" height="60" fill="none"><path fill="#282928" d="M54.992 2H5.008C3.35 2 2 3.37 2 5.055v49.89C2 56.629 3.35 58 5.008 58h49.984C56.65 58 58 56.63 58 54.945V5.055C58 3.371 56.65 2 54.992 2M3.641 5.055a1.38 1.38 0 0 1 1.367-1.389h49.984a1.38 1.38 0 0 1 1.367 1.39v4.988H3.641zm51.351 51.279H5.008a1.38 1.38 0 0 1-1.367-1.39V11.712h52.718v43.234a1.38 1.38 0 0 1-1.367 1.389"/><path fill="#282928" d="M8.274 6h-.548C7.326 6 7 6.448 7 7s.325 1 .726 1h.548C8.674 8 9 7.552 9 7s-.325-1-.726-1M12.274 6h-.548c-.4 0-.726.448-.726 1s.325 1 .726 1h.548c.4 0 .726-.448.726-1s-.325-1-.726-1M16.91 6h-.82C15.488 6 15 6.448 15 7s.488 1 1.09 1h.82C17.512 8 18 7.552 18 7s-.488-1-1.09-1M51.42 14H40.58C39.156 14 38 15.244 38 16.775v4.45C38 22.755 39.157 24 40.58 24h10.84c1.423 0 2.58-1.244 2.58-2.775v-4.45C54 15.245 52.843 14 51.42 14m.86 7.225c0 .51-.385.925-.86.925H40.58c-.475 0-.86-.414-.86-.925v-4.45c0-.51.385-.925.86-.925h10.84c.475 0 .86.414.86.925zM53.118 25H38.882c-.487 0-.882.448-.882 1s.395 1 .883 1h14.234c.488 0 .883-.448.883-1s-.395-1-.883-1M53.118 29H38.882c-.487 0-.882.448-.882 1s.395 1 .883 1h14.234c.488 0 .883-.448.883-1s-.395-1-.883-1M53.118 33H38.882c-.487 0-.882.448-.882 1s.395 1 .883 1h14.234c.488 0 .883-.448.883-1s-.395-1-.883-1M51.42 37H40.58C39.156 37 38 38.124 38 39.506v6.988C38 47.876 39.157 49 40.58 49h10.84c1.423 0 2.58-1.124 2.58-2.506v-6.988C54 38.124 52.843 37 51.42 37m.86 9.494a.85.85 0 0 1-.86.836H40.58a.85.85 0 0 1-.86-.836v-6.988c0-.462.385-.836.86-.836h10.84c.475 0 .86.374.86.836zM53.118 51H38.882c-.487 0-.882.448-.882 1s.395 1 .883 1h14.234c.488 0 .883-.448.883-1s-.395-1-.883-1M33.471 14H8.53C7.134 14 6 15.146 6 16.556v15.888C6 33.854 7.134 35 8.529 35H33.47C34.866 35 36 33.854 36 32.444V16.556C36 15.146 34.866 14 33.471 14m.843 18.444c0 .47-.377.852-.843.852H8.53a.85.85 0 0 1-.843-.852V16.556c0-.47.377-.852.843-.852H33.47c.466 0 .843.382.843.852zM33.471 41H8.53C7.134 41 6 42.172 6 43.613v6.774C6 51.828 7.134 53 8.529 53H33.47C34.866 53 36 51.828 36 50.387v-6.774C36 42.172 34.866 41 33.471 41m.843 9.387c0 .481-.377.871-.843.871H8.53c-.466 0-.843-.39-.843-.87v-6.775c0-.481.377-.871.843-.871H33.47c.466 0 .843.39.843.87zM34.18 39c.453 0 .82-.448.82-1s-.367-1-.82-1H7.82c-.453 0-.82.448-.82 1s.367 1 .82 1h26.361z"/></svg>