<svg xmlns="http://www.w3.org/2000/svg" width="60" height="60" fill="none"><g clip-path="url(#a)"><path fill="#FF3E00" d="M44.94 7.674C39.585-.034 29.004-2.32 21.357 2.58L7.921 11.19a15.45 15.45 0 0 0-4.58 4.447 15.5 15.5 0 0 0-2.4 5.928C.77 22.52.683 23.49.681 24.463a16.45 16.45 0 0 0 1.878 7.58 15.6 15.6 0 0 0-2.305 5.792 16.6 16.6 0 0 0 .156 6.53 16.6 16.6 0 0 0 2.66 5.959c5.357 7.708 15.961 9.992 23.585 5.093l13.421-8.61a15.4 15.4 0 0 0 4.574-4.451 15.5 15.5 0 0 0 2.388-5.933c.173-.954.26-1.923.258-2.893a16.46 16.46 0 0 0-1.854-7.57 15.6 15.6 0 0 0 2.305-5.788 17 17 0 0 0 .254-2.893c0-3.441-1.07-6.797-3.061-9.596z"/><path fill="#fff" d="M20.04 51.053a10.61 10.61 0 0 1-7.632-.879 10.7 10.7 0 0 1-3.818-3.392 9.95 9.95 0 0 1-1.84-5.773q0-.874.15-1.737a10 10 0 0 1 .324-1.26l.254-.774.685.524a17.4 17.4 0 0 0 5.258 2.643l.497.151-.047.5v.26a3 3 0 0 0 .554 1.746 3.2 3.2 0 0 0 2.639 1.416c.272.001.544-.034.807-.104.292-.077.571-.2.826-.363l13.421-8.652a2.83 2.83 0 0 0 1.31-2.402 3 3 0 0 0-.568-1.742 3.22 3.22 0 0 0-2.643-1.388c-.272 0-.544.034-.807.104a2.8 2.8 0 0 0-.822.364l-5.117 3.285a9.9 9.9 0 0 1-2.727 1.203 10.625 10.625 0 0 1-7.63-.878 10.7 10.7 0 0 1-3.82-3.389 9.97 9.97 0 0 1-1.69-7.51c.23-1.275.72-2.489 1.441-3.564a9.3 9.3 0 0 1 2.747-2.68l13.435-8.604a9.8 9.8 0 0 1 2.727-1.209c.878-.226 1.78-.34 2.686-.34a10.6 10.6 0 0 1 4.96 1.215 10.7 10.7 0 0 1 3.832 3.392 9.97 9.97 0 0 1 1.817 5.778q0 .877-.15 1.741-.12.641-.324 1.26l-.254.775-.685-.505a17.3 17.3 0 0 0-5.258-2.644l-.497-.155.047-.5v-.26c0-.628-.194-1.24-.554-1.751a3.201 3.201 0 0 0-2.638-1.388c-.27.006-.539.047-.799.123a2.8 2.8 0 0 0-.826.363l-13.435 8.605a2.82 2.82 0 0 0-1.263 1.888 3 3 0 0 0-.06.5c-.001.624.192 1.233.553 1.742a3.22 3.22 0 0 0 2.638 1.387q.41.001.808-.104a2.8 2.8 0 0 0 .826-.363l5.126-3.304a9.8 9.8 0 0 1 2.728-1.204 10.628 10.628 0 0 1 7.633.878 10.7 10.7 0 0 1 3.82 3.39 9.97 9.97 0 0 1 1.686 7.528 9.4 9.4 0 0 1-1.44 3.566 9.3 9.3 0 0 1-2.747 2.678l-13.412 8.605a9.8 9.8 0 0 1-2.732 1.208"/></g><defs><clipPath id="a"><path fill="#fff" d="M0 0h48v58H0z"/></clipPath></defs></svg>