<svg xmlns="http://www.w3.org/2000/svg" width="60" height="60" fill="none"><path fill="#007ACC" fill-rule="evenodd" d="M0 28V0h56v56H0z" clip-rule="evenodd"/><path fill="#fff" fill-rule="evenodd" d="M12.277 28.095v2.283h7.278V51.1h5.168V30.378h7.278v-2.242c0-1.258 0-2.283-.054-2.31 0-.041-4.44-.055-9.83-.055l-9.799.04v2.298zm32.717-2.338c1.427.337 2.52.98 3.5 2 .52.561 1.29 1.541 1.345 1.792 0 .082-2.42 1.723-3.892 2.634-.055.041-.278-.196-.506-.56-.73-1.035-1.472-1.486-2.634-1.568-1.682-.114-2.799.77-2.799 2.237 0 .447.082.702.251 1.062.378.77 1.08 1.23 3.25 2.183 4.005 1.723 5.742 2.858 6.79 4.48 1.19 1.818 1.454 4.676.656 6.818-.898 2.337-3.08 3.919-6.202 4.438-.98.17-3.222.142-4.27-.04-2.238-.42-4.385-1.54-5.697-2.981-.52-.56-1.513-2.06-1.454-2.156l.533-.337 2.101-1.217 1.581-.925.365.492c.46.73 1.5 1.71 2.101 2.047 1.818.938 4.257.81 5.46-.278.52-.474.742-.98.742-1.682 0-.643-.1-.939-.419-1.426-.446-.616-1.344-1.122-3.864-2.238-2.899-1.23-4.13-2.014-5.278-3.222-.656-.73-1.258-1.864-1.54-2.798-.21-.812-.278-2.799-.082-3.6.602-2.799 2.716-4.758 5.742-5.319.98-.196 3.29-.114 4.257.141z" clip-rule="evenodd"/></svg>