<svg xmlns="http://www.w3.org/2000/svg" width="60" height="60" fill="none"><path fill="#282928" d="M52.277 9.617a2.104 2.104 0 0 0 2.105-2.106 2.104 2.104 0 0 0-2.105-2.105 2.104 2.104 0 0 0-2.105 2.105 2.11 2.11 0 0 0 2.105 2.106m0-2.71a.614.614 0 0 1 0 1.226.603.603 0 0 1-.613-.613c0-.346.276-.613.613-.613"/><path fill="#282928" d="M54.615 2.004H11.338a2.99 2.99 0 0 0-2.984 2.985v4.556H5.387a2.99 2.99 0 0 0-2.985 2.985v37.423a2.99 2.99 0 0 0 2.985 2.984h19.835v4.317a.75.75 0 0 0 .746.747h14.017a.75.75 0 0 0 .746-.747v-4.317h7.932a2.99 2.99 0 0 0 2.985-2.984v-4.557h2.967a2.99 2.99 0 0 0 2.984-2.985V4.99a2.99 2.99 0 0 0-2.984-2.985M9.846 4.989c0-.827.675-1.493 1.492-1.493h43.277c.826 0 1.492.675 1.492 1.493v6.546H27.79L24.46 8.08a1.37 1.37 0 0 0-.978-.418h-7.337c-.746 0-1.36.613-1.36 1.36v2.513H9.847zm-4.46 46.465a1.495 1.495 0 0 1-1.491-1.492V12.53c0-.826.675-1.492 1.492-1.492h2.967V42.42a2.99 2.99 0 0 0 2.984 2.985H27.54c.294.568.427 1.208.373 1.865H26.76c-.853 0-1.537.693-1.537 1.537v2.647zM32.24 35.829a.84.84 0 0 1 .738-.435c.462 0 .835.373.835.835 0 .302-.16.577-.418.728-.284.17-.622.151-.968-.044a.25.25 0 0 1-.107-.107c-.284-.453-.169-.808-.08-.977m-.008-1.785a2.3 2.3 0 0 0-1.289 1.066c-.426.764-.373 1.696.125 2.496.16.248.373.453.63.604.41.23.853.355 1.289.355a2.33 2.33 0 0 0 1.163-.31 2.35 2.35 0 0 0 1.155-2.017 2.32 2.32 0 0 0-1.581-2.194v-3.837l6.6 11.911c-.01.01-.018.027-.045.036-2.336.604-3.864 2.789-3.74 5.116h-7.114c.133-2.336-1.404-4.521-3.784-5.187l6.59-11.876zm7.008 22.464H26.714l.045-7.754h12.435c.027 0 .045.017.045.044zm10.917-6.555c0 .826-.675 1.492-1.492 1.492H40.73v-2.647c0-.853-.693-1.537-1.537-1.537H38.04a3.53 3.53 0 0 1 .373-1.865h11.743zm4.459-6.04H39.86c.24-.134.497-.25.781-.32.471-.125.853-.453 1.049-.897.186-.436.16-.924-.072-1.342L33.98 27.595a1.13 1.13 0 0 0-.994-.595 1.17 1.17 0 0 0-1.013.586l-7.648 13.768a1.54 1.54 0 0 0-.062 1.35c.186.445.568.764 1.039.889.284.07.533.186.782.32H11.338a1.496 1.496 0 0 1-1.492-1.493V13.027h5.063c.746 0 1.36-.613 1.36-1.359V9.154h7.15l3.33 3.456c.258.266.614.417.978.417h28.38v29.384c0 .826-.666 1.502-1.492 1.502"/><path fill="#282928" d="M47.199 9.617a2.104 2.104 0 0 0 2.105-2.106A2.104 2.104 0 0 0 47.2 5.406a2.104 2.104 0 0 0-2.105 2.105c0 1.164.941 2.106 2.105 2.106m0-2.71a.614.614 0 1 1-.003 1.229.614.614 0 0 1 .003-1.229M42.105 9.617A2.104 2.104 0 0 0 44.21 7.51a2.104 2.104 0 0 0-2.105-2.105A2.104 2.104 0 0 0 40 7.511c0 1.164.942 2.106 2.105 2.106m0-2.71a.614.614 0 0 1 0 1.226.603.603 0 0 1-.613-.613c0-.346.276-.613.613-.613M47.36 19.529c-.436.435-.712.986-.818 1.572H36.105v-1.173c0-.8-.649-1.448-1.448-1.448H31.29c-.8 0-1.448.649-1.448 1.448v1.173H19.414a2.96 2.96 0 0 0-.817-1.581c-1.128-1.11-3.056-1.093-4.157.009a2.92 2.92 0 0 0-.862 2.078c0 .79.311 1.537.862 2.079.56.577 1.306.87 2.078.87.489 0 .986-.115 1.457-.355a2.62 2.62 0 0 0 1.173-1.208q.093-.2.16-.4h7.239c-3.935 1.919-6.902 5.525-7.932 9.878H17.46c-.8 0-1.448.648-1.448 1.448v3.366c0 .8.648 1.448 1.448 1.448h3.366c.8 0 1.448-.648 1.448-1.448V33.92c0-.8-.648-1.448-1.448-1.448h-.675a13.33 13.33 0 0 1 9.718-9.505v.32c0 .8.648 1.448 1.448 1.448h3.366c.8 0 1.448-.649 1.448-1.448v-.32c4.708 1.137 8.465 4.815 9.718 9.505h-.613c-.8 0-1.448.648-1.448 1.448v3.366c0 .8.649 1.448 1.448 1.448h3.367c.8 0 1.447-.648 1.447-1.448V33.92c0-.8-.648-1.448-1.447-1.448h-1.217a14.86 14.86 0 0 0-7.933-9.878h7.258c.142.409.373.782.684 1.093.56.577 1.305.87 2.078.87.489 0 .986-.115 1.457-.355a2.62 2.62 0 0 0 1.172-1.208c.578-1.217.373-2.54-.541-3.473-1.164-1.102-3.092-1.093-4.202.009m-29.571 2.833c-.107.213-.285.4-.498.507-.773.39-1.439.142-1.803-.24a1.4 1.4 0 0 1-.426-1.022c0-.382.15-.746.426-1.03.275-.276.64-.427 1.03-.427.382 0 .755.151 1.022.418.462.48.55 1.146.248 1.794m3.02 14.879-3.323.044-.044-3.322h3.322zm27.767 0-3.322.044-.044-3.322h3.322zM31.344 23.295l-.018-1.12a.8.8 0 0 0 .009-.248v-.009c0-.027.017-.044.017-.071 0-.044-.017-.08-.026-.116l-.027-1.75h3.322l.027 1.75c-.009.045-.027.08-.027.125 0 .026.01.044.018.071v.009a.8.8 0 0 0 .018.32l.018 1.003zm19.373-.933c-.107.213-.285.4-.498.507-.773.39-1.439.142-1.803-.24a1.4 1.4 0 0 1-.426-1.022c0-.382.15-.746.426-1.03.276-.276.64-.427 1.03-.427.383 0 .756.151 1.022.418.462.48.55 1.146.249 1.794"/></svg>