<svg xmlns="http://www.w3.org/2000/svg" width="60" height="60" fill="none"><path fill="#282928" d="M29.996 16c-11.43 0-23-2.404-23-7s11.57-7 23-7 23 2.404 23 7-11.57 7-23 7m0-12c-12.82 0-21 2.96-21 5s8.18 5 21 5 21-2.961 21-5-8.18-5-21-5M29.996 58c-11.43 0-23-2.404-23-7V37a1 1 0 0 1 2 0v14c0 2.039 8.18 5 21 5s21-2.961 21-5V37a1 1 0 0 1 2 0v14c0 4.596-11.57 7-23 7"/><path fill="#282928" d="M29.996 44c-11.43 0-23-2.404-23-7V23a1 1 0 0 1 2 0v14c0 2.039 8.18 5 21 5s21-2.961 21-5V23a1 1 0 0 1 2 0v14c0 4.596-11.57 7-23 7"/><path fill="#282928" d="M29.996 30c-11.43 0-23-2.404-23-7V9a1 1 0 0 1 2 0v14c0 2.04 8.18 5 21 5s21-2.961 21-5V9a1 1 0 0 1 2 0v14c0 4.596-11.57 7-23 7"/><path fill="#282928" d="M47.996 20a1 1 0 1 0 0-2 1 1 0 0 0 0 2M47.996 34a1 1 0 1 0 0-2 1 1 0 0 0 0 2M47.996 48a1 1 0 1 0 0-2 1 1 0 0 0 0 2"/></svg>