<svg xmlns="http://www.w3.org/2000/svg" width="60" height="60" fill="none"><g fill="#000" clip-path="url(#a)"><path d="M10.583 41.977a2.76 2.76 0 0 0-3.041-.564 2.75 2.75 0 0 0-1.704 2.567v.983H2.853c-.856 0-1.615.323-2.137.91A2.9 2.9 0 0 0 0 47.813c0 1.418.98 2.854 2.853 2.854h2.985v.996c0 1.138.652 2.121 1.702 2.566.365.154.743.23 1.115.23.706 0 1.392-.273 1.93-.794l3.955-3.84.003-.003a2.78 2.78 0 0 0 .842-2c0-.759-.299-1.47-.845-2.005zm2.731 6.589L9.36 52.404c-.457.443-.984.27-1.135.206-.148-.063-.63-.316-.63-.947v-1.875a.88.88 0 0 0-.879-.879H2.853c-1.042 0-1.095-.914-1.095-1.097 0-.296.098-.577.27-.77.19-.213.468-.321.825-.321h3.864a.88.88 0 0 0 .879-.879V43.98c0-.631.484-.886.632-.949.15-.063.673-.235 1.132.208l3.953 3.837c.202.199.314.463.314.746 0 .281-.11.545-.313.744M18.514 38.386a14.7 14.7 0 0 1-2.73-8.559c0-5.009 2.515-9.64 6.73-12.392.947-.62 1.455-1.58 1.395-2.632a3.24 3.24 0 0 0-1.756-2.663c-.948-.476-2.027-.397-2.96.216-3.06 2-5.55 4.766-7.2 8a.879.879 0 1 0 1.565.799 19.2 19.2 0 0 1 6.6-7.329c.412-.271.818-.31 1.205-.116.438.22.763.711.79 1.194.025.426-.178.783-.6 1.06-4.714 3.076-7.528 8.258-7.528 13.863 0 3.453 1.057 6.765 3.062 9.585.288.397.35.786.185 1.156-.194.435-.677.774-1.173.824-.437.044-.804-.134-1.087-.53a18.9 18.9 0 0 1-3.524-11.045c0-1.802.249-3.58.74-5.283a.88.88 0 0 0-1.69-.487 20.8 20.8 0 0 0-.808 5.77 20.66 20.66 0 0 0 3.852 12.069c.587.818 1.446 1.27 2.39 1.27q.15 0 .304-.015c1.127-.114 2.148-.842 2.601-1.855.422-.945.288-2.004-.363-2.9M25.09 31.021c0 3.103 2.53 5.627 5.639 5.627s5.639-2.524 5.639-5.627-2.53-5.626-5.64-5.626c-3.108 0-5.638 2.524-5.638 5.626m9.52 0a3.88 3.88 0 0 1-3.881 3.87 3.88 3.88 0 0 1-3.881-3.87 3.88 3.88 0 0 1 3.881-3.869 3.88 3.88 0 0 1 3.881 3.87"/><path d="M32.056 20.201H29.41c-.92 0-1.67.748-1.67 1.668v.254q-.615.206-1.2.497l-.18-.18a1.674 1.674 0 0 0-2.36 0L22.13 24.3a1.65 1.65 0 0 0-.493 1.182c0 .449.175.869.488 1.177l.181.182a9.4 9.4 0 0 0-.496 1.195h-.255c-.92 0-1.67.748-1.67 1.667v2.638c0 .919.75 1.667 1.67 1.667h.255q.209.617.496 1.195l-.176.176a1.65 1.65 0 0 0-.493 1.182c0 .45.175.869.49 1.18l1.87 1.865c.651.649 1.71.65 2.361 0l.181-.18q.585.29 1.2.496v.254c0 .92.748 1.668 1.669 1.668h2.647c.92 0 1.67-.748 1.67-1.668v-.254a9.4 9.4 0 0 0 1.2-.497l.18.181c.651.65 1.71.65 2.361 0l1.867-1.862c.318-.314.493-.734.493-1.182 0-.449-.175-.869-.49-1.18l-.18-.18q.288-.577.496-1.194h.256c.92 0 1.67-.748 1.67-1.667v-2.638a1.67 1.67 0 0 0-1.67-1.667h-.256a9 9 0 0 0-.496-1.195l.177-.176c.318-.314.493-.734.493-1.183 0-.448-.175-.868-.49-1.179l-1.87-1.865a1.674 1.674 0 0 0-2.36 0l-.181.18q-.585-.29-1.2-.496v-.254c0-.92-.75-1.668-1.67-1.668m2.58 4.26a.88.88 0 0 0 1.067-.135l.584-.582 1.743 1.74-.582.58a.88.88 0 0 0-.133 1.074c.37.615.648 1.286.829 1.995.1.389.45.662.852.662h.825v2.456h-.825a.88.88 0 0 0-.852.662c-.18.709-.46 1.38-.829 1.994a.88.88 0 0 0 .133 1.075l.582.58-1.743 1.74-.584-.583a.88.88 0 0 0-1.067-.135 7.7 7.7 0 0 1-2.006.83c-.39.1-.662.45-.662.852v.82h-2.47v-.82a.88.88 0 0 0-.663-.852 7.7 7.7 0 0 1-2.006-.83.88.88 0 0 0-1.067.135l-.583.582-1.744-1.739.58-.581a.88.88 0 0 0 .133-1.071 7.7 7.7 0 0 1-.83-2 .88.88 0 0 0-.852-.659h-.822v-2.456h.822c.4 0 .75-.271.851-.659.184-.71.464-1.383.831-2a.88.88 0 0 0-.132-1.07l-.58-.582 1.743-1.74.583.582a.88.88 0 0 0 1.067.135 7.7 7.7 0 0 1 2.006-.83c.39-.099.662-.45.662-.851v-.82h2.471v.82c0 .402.273.752.662.851.7.178 1.374.458 2.006.83"/><path d="m59.154 45.841-3.956-3.84a2.76 2.76 0 0 0-3.04-.565 2.75 2.75 0 0 0-1.707 2.567v.636h-4.084l.023-.023a20.54 20.54 0 0 0 6.068-14.236 20.5 20.5 0 0 0-.55-5.145 7.1 7.1 0 0 0 3.118-5.872c0-3.917-3.196-7.104-7.124-7.104-1.404 0-2.713.409-3.818 1.112a20.7 20.7 0 0 0-9.42-3.865v-1.19A2.74 2.74 0 0 0 32.95 5.75c-1.054-.44-2.21-.217-3.01.574l-3.955 3.84a2.76 2.76 0 0 0-.85 2.005c0 .758.303 1.467.85 1.993l3.956 3.84a2.78 2.78 0 0 0 3.027.563c1.052-.445 1.706-1.446 1.706-2.611v-.655c2.26.45 4.385 1.416 6.218 2.826q-.108.604-.11 1.238c0 3.361 2.352 6.183 5.5 6.917a15 15 0 0 1 .476 3.852c-.078 8.186-6.893 14.844-15.192 14.844H21.285c-1.864 0-2.84 1.435-2.84 2.852s.976 2.852 2.84 2.852h21.654a.879.879 0 1 0 0-1.758h-2.815a20.7 20.7 0 0 0 4.236-2.526h6.97a.88.88 0 0 0 .88-.879v-1.514c0-.631.485-.886.633-.949.15-.063.674-.235 1.13.208l3.958 3.841c.2.194.31.456.31.737s-.11.54-.311.734l-3.956 3.843c-.457.443-.98.271-1.13.208-.148-.063-.635-.318-.635-.952v-1.872a.88.88 0 0 0-.879-.879h-4.265a.879.879 0 1 0 0 1.758h3.387v.993c0 1.14.654 2.125 1.708 2.571a2.758 2.758 0 0 0 3.039-.566l3.953-3.84a2.75 2.75 0 0 0 .847-1.996c0-.762-.3-1.474-.845-2.001M33.908 13.392a.88.88 0 0 0-.992.872v1.69c0 .654-.443.912-.633.993-.305.129-.76.142-1.118-.206L27.206 12.9a1.022 1.022 0 0 1 .002-1.473l3.963-3.846c.44-.436.955-.27 1.102-.208s.633.314.633.945v1.968c0 .451.341.829.79.874 3.236.328 6.33 1.491 8.994 3.37a7.1 7.1 0 0 0-1.236 1.825 16.75 16.75 0 0 0-7.546-2.961m8.631 5.971c0-2.948 2.406-5.347 5.363-5.347 2.96 0 5.366 2.399 5.366 5.347s-2.407 5.347-5.366 5.347c-2.957 0-5.363-2.399-5.363-5.347m.99 25.453c-3.38 2.687-7.46 4.107-11.8 4.107H21.285c-1.03 0-1.082-.912-1.082-1.095s.052-1.094 1.082-1.094h10.28c9.26 0 16.863-7.44 16.95-16.588a17 17 0 0 0-.383-3.684 7.1 7.1 0 0 0 2.157-.406c.3 1.402.44 2.84.412 4.291-.089 4.916-2.06 9.542-5.558 13.03-.479.486-1.007.957-1.614 1.44"/><path d="M51.053 17.333a.88.88 0 0 0-1.242-.037l-2.781 2.616-.62-.504a.879.879 0 1 0-1.11 1.363l1.216.99a.88.88 0 0 0 1.158-.04l3.341-3.145a.88.88 0 0 0 .038-1.243"/></g><defs><clipPath id="a"><path fill="#fff" d="M0 0h60v60H0z"/></clipPath></defs></svg>