<svg xmlns="http://www.w3.org/2000/svg" width="60" height="60" fill="none"><path fill="#000" d="M55.255 46.446c-1.755 0-3.227 1.245-3.546 2.881h-9.345c-1.864 0-3.382-1.49-3.382-3.318v-2.518h8.937c4.69 0 8.509-3.927 8.509-8.745 0-4.819-3.819-8.737-8.51-8.737a7.6 7.6 0 0 0-1.645.173q.19-.886.191-1.827c0-3.564-2.127-6.619-5.145-7.91.3-1.654 2.2-3.309 3.963-3.309h4.973c2.454 0 4.4-2.472 4.7-4.827 1.69-.3 2.973-1.745 2.973-3.5 0-1.972-1.619-3.572-3.61-3.572S50.7 2.837 50.7 4.809c0 1.718 1.237 3.146 2.873 3.491-.29 1.691-1.7 3.473-3.327 3.473h-4.973c-2.364 0-4.764 2.018-5.282 4.236a8 8 0 0 0-1.882-.227c-1.445 0-2.845.41-4.081 1.127V8.127c1.663-.318 2.936-1.763 2.936-3.5 0-1.972-1.618-3.572-3.61-3.572-2 0-3.617 1.6-3.617 3.572 0 1.737 1.263 3.182 2.927 3.491v8.146a11.1 11.1 0 0 0-5.936-3.218v-1.173c0-2.582-2.128-4.682-4.746-4.682l-10.118.01c-.318-1.646-1.782-2.883-3.536-2.883-1.991 0-3.619 1.6-3.619 3.564s1.628 3.564 3.619 3.564c1.754 0 3.218-1.237 3.536-2.882H22c1.864 0 3.382 1.49 3.382 3.318v1.01a9 9 0 0 0-.682-.037c-6.172 0-11.19 5.163-11.19 11.509v.309h-.155c-5.055 0-9.164 4.218-9.164 9.409 0 5.19 4.11 9.418 9.164 9.418h9.164v7.891c0 1.827-1.519 3.318-3.382 3.318H8.3c-.318-1.645-1.79-2.882-3.545-2.882-1.991 0-3.618 1.6-3.618 3.564 0 1.973 1.627 3.573 3.618 3.573A3.61 3.61 0 0 0 8.3 56.073h10.837c2.618 0 4.745-2.1 4.745-4.682v-7.89h5.573v8.39c-1.673.318-2.936 1.764-2.936 3.5 0 1.973 1.627 3.573 3.618 3.573s3.609-1.6 3.609-3.573c0-1.736-1.264-3.182-2.928-3.5v-8.39h6.8v2.517c0 2.582 2.128 4.682 4.746 4.682h9.345a3.61 3.61 0 0 0 3.546 2.882c1.99 0 3.609-1.6 3.609-3.564s-1.618-3.572-3.61-3.572M52.073 4.809c0-1.218 1.01-2.209 2.255-2.209 1.236 0 2.245.991 2.245 2.21 0 1.208-1.009 2.2-2.245 2.2h-.019c-1.227-.01-2.236-.992-2.236-2.2M8.328 10.082c-1.246 0-2.255-.991-2.255-2.2s1.01-2.2 2.255-2.2c1.236 0 2.236.982 2.245 2.19V7.9c-.009 1.2-1.009 2.182-2.245 2.182m-3.573 47.5c-1.246 0-2.255-.99-2.255-2.21 0-1.208 1.01-2.2 2.255-2.2s2.254.983 2.254 2.192v.018c-.009 1.218-1.018 2.2-2.254 2.2m27.627-2.21c0 1.22-1.009 2.21-2.245 2.21-1.246 0-2.255-.99-2.255-2.21 0-1.208 1.01-2.2 2.246-2.2h.009c1.236 0 2.245.992 2.245 2.2M31.11 4.628c0-1.218 1.01-2.209 2.255-2.209 1.236 0 2.245.991 2.245 2.21 0 1.209-1.009 2.2-2.245 2.2-1.245 0-2.255-.982-2.255-2.2M5.564 34.073c0-4.436 3.5-8.046 7.8-8.046.264 0 .527.01.8.037.2.018.4-.046.545-.182a.66.66 0 0 0 .21-.536c-.019-.328-.037-.655-.037-.991 0-5.591 4.41-10.146 9.827-10.146 3.219 0 6.246 1.637 8.091 4.373.01.018.028.027.046.045l.109.11a.4.4 0 0 0 .1.063c.045.027.09.037.145.055.028.009.046.027.082.027h.046c.018 0 .027.01.045.01.036 0 .064-.02.1-.02.046-.008.082-.008.118-.026.055-.019.1-.046.146-.073.027-.018.054-.018.072-.037a6.67 6.67 0 0 1 4.328-1.572c3.845 0 6.972 3.227 6.972 7.2 0 .909-.154 1.773-.463 2.582a.68.68 0 0 0 .154.727c.191.19.473.245.728.154a6.6 6.6 0 0 1 2.409-.445c3.945 0 7.145 3.31 7.145 7.373 0 4.072-3.209 7.381-7.145 7.381H13.364c-4.31-.009-7.8-3.627-7.8-8.063m49.69 18.136c-1.245 0-2.245-.982-2.254-2.19V50c.01-1.209 1.019-2.19 2.255-2.19s2.245.99 2.245 2.2c0 1.208-1.009 2.2-2.245 2.2"/><path fill="#000" d="m23.693 35.228 1.564 3.563a.684.684 0 0 0 1.254-.545l-1.736-3.973-3.29-7.518a.69.69 0 0 0-.628-.41h-.273a.69.69 0 0 0-.627.41l-3.291 7.518-1.736 3.973a.683.683 0 1 0 1.254.545l1.564-3.563zm-2.982-6.8 2.382 5.436H18.33zM39.635 39.228c.373 0 .682-.31.682-.682V27.055a.687.687 0 0 0-.682-.682.687.687 0 0 0-.682.682v11.49c0 .373.3.683.682.683M29.42 39.2c.373 0 .682-.31.682-.682V32.7h3.2a3.185 3.185 0 0 0 3.182-3.182 3.185 3.185 0 0 0-3.182-3.182H29.42a.687.687 0 0 0-.682.682v11.49c0 .392.3.692.682.692m.682-11.491h3.2c1 0 1.818.818 1.818 1.818s-.818 1.818-1.818 1.818h-3.2z"/></svg>