<svg xmlns="http://www.w3.org/2000/svg" width="60" height="60" fill="none"><g fill="#000" clip-path="url(#a)"><path d="M43.506 19.336h8.559a4.39 4.39 0 0 0 3.513 1.758 4.4 4.4 0 0 0 4.395-4.395 4.4 4.4 0 0 0-4.395-4.394 4.39 4.39 0 0 0-3.513 1.758h-8.559c-.264-.351-.58-.661-.936-.92v-3.027l3.143-3.143h6.31a4.39 4.39 0 0 0 3.555 1.816 4.4 4.4 0 0 0 4.395-4.394A4.4 4.4 0 0 0 55.578 0a4.39 4.39 0 0 0-3.467 1.7h-7.49a2.62 2.62 0 0 0-1.864.771L38.069 7.16a2.62 2.62 0 0 0-.772 1.864v4.21c-1.323 1.013-2.054 2.928-1.52 4.708L32.4 22.472a7.9 7.9 0 0 0-2.426-.382c-4.362 0-7.91 3.548-7.91 7.91s3.548 7.91 7.91 7.91c.832 0 1.634-.13 2.387-.369l3.412 4.536a4.388 4.388 0 0 0 1.525 4.69v4.21c0 .704.274 1.366.772 1.864l4.688 4.688a2.62 2.62 0 0 0 1.864.772h7.49A4.39 4.39 0 0 0 55.578 60a4.4 4.4 0 0 0 4.395-4.395 4.39 4.39 0 0 0-7.95-2.578h-6.31l-3.143-3.143v-3.028c.356-.258.671-.568.935-.919h8.56a4.39 4.39 0 0 0 3.513 1.758 4.4 4.4 0 0 0 4.395-4.394 4.4 4.4 0 0 0-4.395-4.395 4.39 4.39 0 0 0-3.513 1.758h-8.559a4.39 4.39 0 0 0-3.514-1.758h-.006l-3.418-4.544a8 8 0 0 0 .861-1.725h14.636a4.39 4.39 0 0 0 3.513 1.758A4.4 4.4 0 0 0 59.973 30a4.4 4.4 0 0 0-4.395-4.395 4.39 4.39 0 0 0-3.513 1.758h-5.104a.879.879 0 0 0 0 1.758h4.311a4.6 4.6 0 0 0 0 1.758h-13.44c.05-.46.078-1.04 0-1.758h4.914a.879.879 0 0 0 0-1.758H37.43a8 8 0 0 0-.84-1.69l3.416-4.58a4.39 4.39 0 0 0 3.5-1.757m12.072-5.273a2.64 2.64 0 0 1 2.637 2.636 2.64 2.64 0 0 1-2.637 2.637 2.64 2.64 0 0 1-2.637-2.637 2.64 2.64 0 0 1 2.637-2.637m-11.28 1.757h6.974a4.6 4.6 0 0 0 0 1.758h-6.974a4.4 4.4 0 0 0 0-1.758m11.28-14.062a2.64 2.64 0 0 1 2.637 2.637 2.64 2.64 0 0 1-2.637 2.636 2.64 2.64 0 0 1-2.637-2.636 2.64 2.64 0 0 1 2.637-2.637m0 51.21a2.64 2.64 0 0 1 2.637 2.637 2.64 2.64 0 0 1-2.637 2.637 2.64 2.64 0 0 1-2.637-2.636 2.64 2.64 0 0 1 2.637-2.637m0-12.304a2.64 2.64 0 0 1 2.637 2.637 2.64 2.64 0 0 1-2.637 2.636 2.64 2.64 0 0 1-2.637-2.636 2.64 2.64 0 0 1 2.637-2.637m-11.28 1.758h6.974a4.6 4.6 0 0 0 0 1.758h-6.974a4.6 4.6 0 0 0 0-1.758m11.28-15.059A2.64 2.64 0 0 1 58.215 30a2.64 2.64 0 0 1-2.637 2.637A2.64 2.64 0 0 1 52.941 30a2.64 2.64 0 0 1 2.637-2.637M39.055 9.023c0-.234.091-.455.257-.621L44 3.714a.87.87 0 0 1 .621-.257h6.664a4.4 4.4 0 0 0-.023 1.758h-5.913a.88.88 0 0 0-.621.257L41.07 9.13a.88.88 0 0 0-.258.622v2.63a4.5 4.5 0 0 0-1.757.024zm-9.082 27.13A6.16 6.16 0 0 1 23.82 30a6.16 6.16 0 0 1 6.153-6.152A6.16 6.16 0 0 1 36.125 30a6.16 6.16 0 0 1-6.152 6.152m14.755 18.375a.88.88 0 0 0 .621.257h5.913a4.5 4.5 0 0 0 .023 1.758h-6.664a.87.87 0 0 1-.621-.258l-4.688-4.687a.87.87 0 0 1-.257-.621v-3.383a4.6 4.6 0 0 0 1.758.023v2.632c0 .233.092.456.257.62zm-4.736-13.864a2.64 2.64 0 0 1 2.637 2.637 2.64 2.64 0 0 1-2.637 2.636 2.64 2.64 0 0 1-2.636-2.636 2.64 2.64 0 0 1 2.636-2.637m-1.885-1.332a4.4 4.4 0 0 0-1.404 1.059l-2.699-3.589a8 8 0 0 0 1.402-1.06zm-2.674-15.047a8 8 0 0 0-1.397-1.069l2.68-3.593c.392.44.87.799 1.408 1.052zm1.922-7.586a2.64 2.64 0 0 1 2.637-2.637A2.64 2.64 0 0 1 42.63 16.7a2.64 2.64 0 0 1-2.637 2.637 2.64 2.64 0 0 1-2.636-2.637"/><path d="M27.863 58.242h-1.15a1.48 1.48 0 0 1-1.476-1.476v-2.538c0-1.397-.89-2.63-2.216-3.068a22 22 0 0 1-2.99-1.24 3.23 3.23 0 0 0-3.74.6l-1.796 1.796c-.279.279-.65.432-1.044.432-.395 0-.766-.153-1.045-.432l-4.691-4.691a1.48 1.48 0 0 1 0-2.089l1.796-1.795a3.23 3.23 0 0 0 .6-3.741c-.484-.962-.9-1.968-1.24-2.99a3.23 3.23 0 0 0-3.068-2.216H3.266a1.48 1.48 0 0 1-1.477-1.476v-6.636c0-.814.662-1.476 1.477-1.476h2.537c1.397 0 2.63-.89 3.069-2.216A22 22 0 0 1 10.11 20a3.23 3.23 0 0 0-.6-3.74l-1.795-1.796a1.48 1.48 0 0 1 0-2.089l4.691-4.691a1.48 1.48 0 0 1 2.09-.001L16.29 9.48a3.23 3.23 0 0 0 3.74.6c.962-.484 1.968-.901 2.99-1.24a3.23 3.23 0 0 0 2.216-3.069V3.234c0-.814.663-1.476 1.477-1.476h6.518c.726 0 1.353.54 1.46 1.256a.3.3 0 0 1-.018.145l-.891 2.304a.879.879 0 1 0 1.64.634l.89-2.304c.129-.332.17-.691.117-1.038A3.25 3.25 0 0 0 33.233 0h-6.518a3.24 3.24 0 0 0-3.235 3.234v2.537c0 .638-.406 1.2-1.01 1.4a24 24 0 0 0-3.227 1.338 1.47 1.47 0 0 1-1.708-.272L15.738 6.44a3.24 3.24 0 0 0-4.574 0L6.47 11.133a3.24 3.24 0 0 0 0 4.574l1.797 1.795c.45.45.56 1.137.272 1.709a24 24 0 0 0-1.337 3.226c-.2.605-.763 1.011-1.4 1.011H3.266A3.24 3.24 0 0 0 .03 26.682v6.636a3.24 3.24 0 0 0 3.235 3.234h2.537c.637 0 1.2.406 1.4 1.011A24 24 0 0 0 8.54 40.79a1.47 1.47 0 0 1-.272 1.708l-1.797 1.795a3.24 3.24 0 0 0 0 4.575l4.693 4.69a3.24 3.24 0 0 0 4.574 0l1.796-1.795c.45-.45 1.137-.56 1.708-.272 1.038.522 2.123.972 3.227 1.337.604.2 1.01.763 1.01 1.4v2.538A3.24 3.24 0 0 0 26.714 60h1.15a.879.879 0 1 0 0-1.758"/><path d="M31.072 42.54a2.05 2.05 0 0 0-1.788-1.311c-5.955-.358-10.62-5.316-10.62-11.288 0-5.974 4.666-10.932 10.622-11.288a2.05 2.05 0 0 0 1.786-1.306l2.87-7.422a.879.879 0 1 0-1.64-.634l-.936 2.422c-.462-.035-.93-.053-1.393-.053-10.113 0-18.34 8.227-18.34 18.34 0 4.14 1.347 8.048 3.894 11.3a.877.877 0 0 0 1.234.15c.382-.3.45-.852.15-1.234A16.4 16.4 0 0 1 13.391 30c0-9.143 7.438-16.582 16.582-16.582q.363 0 .728.016l-1.268 3.28a.29.29 0 0 1-.252.185c-6.883.412-12.275 6.141-12.275 13.043 0 6.9 5.39 12.63 12.273 13.043a.29.29 0 0 1 .252.186l1.302 3.393c-3.904.204-7.99-1.09-11.07-3.575a.879.879 0 1 0-1.094 1.376c3.613 2.885 8.159 4.27 12.824 3.92l3.282 8.556a.3.3 0 0 1 .017.145 1.484 1.484 0 0 1-1.46 1.257h-1.267a.879.879 0 0 0 0 1.757h1.267a3.25 3.25 0 0 0 3.199-2.757 2.05 2.05 0 0 0-.115-1.032z"/></g><defs><clipPath id="a"><path fill="#fff" d="M0 0h60v60H0z"/></clipPath></defs></svg>