<svg xmlns="http://www.w3.org/2000/svg" width="60" height="60" fill="none"><g fill="#000" clip-path="url(#a)"><path d="M52.118 34.8H7.877c-.61 0-1.163-.328-1.434-.853a1.53 1.53 0 0 1 .093-1.594l3.816-5.672c.3-.45.806-.722 1.35-.722l36.61-.178h.009c.562 0 1.078.282 1.378.74l3.843 5.926c.282.515.272 1.087-.009 1.566-.3.496-.825.787-1.416.787m-3.807-8.1-36.61.178a.72.72 0 0 0-.59.31l-3.815 5.671a.6.6 0 0 0-.038.647.7.7 0 0 0 .619.366h44.25a.7.7 0 0 0 .61-.338.61.61 0 0 0 .009-.618l-3.825-5.897a.75.75 0 0 0-.61-.319"/><path d="M46.333 53.156H14.289a2.72 2.72 0 0 1-2.719-2.719V34.34a.46.46 0 0 1 .92 0v16.097a1.8 1.8 0 0 0 1.8 1.8h32.043a1.8 1.8 0 0 0 1.8-1.8V34.34a.46.46 0 0 1 .919 0v16.097a2.715 2.715 0 0 1-2.72 2.719"/><path d="M25.755 47.87a.49.49 0 0 1-.328-.132l-4.266-4.265a.47.47 0 0 1 0-.657l4.19-4.19a.47.47 0 0 1 .657 0 .47.47 0 0 1 0 .656l-3.863 3.863 3.938 3.937a.47.47 0 0 1 0 .656.5.5 0 0 1-.328.132M34.829 47.87a.49.49 0 0 1-.328-.132.47.47 0 0 1 0-.656l3.937-3.937-3.862-3.863a.47.47 0 0 1 0-.656.47.47 0 0 1 .656 0l4.19 4.19a.47.47 0 0 1 .132.328.47.47 0 0 1-.131.329l-4.266 4.265a.47.47 0 0 1-.328.132M28.472 47.868a.4.4 0 0 1-.178-.037.463.463 0 0 1-.253-.6l3.497-8.457a.463.463 0 0 1 .6-.253.463.463 0 0 1 .253.6l-3.497 8.457a.45.45 0 0 1-.422.29M21.545 26.83a.46.46 0 0 1-.46-.459v-1.397c0-.3.245-.553.554-.553h1.125a7 7 0 0 1 .834-2.006l-.796-.797a.6.6 0 0 1-.16-.347.56.56 0 0 1 .16-.431l1.8-1.8a.57.57 0 0 1 .73-.047l.845.834a7.4 7.4 0 0 1 1.996-.825v-1.125c0-.3.244-.553.554-.553h2.54c.3 0 .553.244.553.553v1.125c.713.178 1.388.45 2.007.825l.796-.797c.254-.196.525-.196.732-.046l1.847 1.837c.215.272.196.59 0 .788l-.788.787a7.6 7.6 0 0 1 .834 2.006h1.116c.3 0 .553.244.553.553v1.322a.46.46 0 0 1-.919 0v-.947h-1.05a.53.53 0 0 1-.525-.421 6.6 6.6 0 0 0-.937-2.27.54.54 0 0 1 .075-.683l.74-.741-1.274-1.275-.741.74a.544.544 0 0 1-.713.057 6.7 6.7 0 0 0-2.212-.91.55.55 0 0 1-.45-.543v-1.05h-1.8v1.05a.55.55 0 0 1-.422.534 6.4 6.4 0 0 0-2.25.919.52.52 0 0 1-.684-.075l-.74-.74-1.276 1.274.74.74a.54.54 0 0 1 .066.695 6.5 6.5 0 0 0-.928 2.24.57.57 0 0 1-.544.44h-1.05v1.032c-.009.281-.215.488-.478.488m14.7-4.678s0 .01.01.01zm-12.843-1.228.075.075c-.02-.028-.038-.056-.075-.075m13.143.038c0 .01-.01.01 0 0m-10.612-.975c-.01.01-.019.01-.038.019a.1.1 0 0 1 .038-.02"/><path d="M34.24 26.7a.46.46 0 0 1-.46-.46 3.785 3.785 0 0 0-3.778-3.778 3.785 3.785 0 0 0-3.779 3.778.46.46 0 0 1-.918 0 4.705 4.705 0 0 1 4.697-4.697 4.705 4.705 0 0 1 4.696 4.697.46.46 0 0 1-.459.46M59.54 11.596H.46a.46.46 0 0 1-.46-.469.46.46 0 0 1 .46-.459h59.08a.46.46 0 0 1 .46.46.46.46 0 0 1-.46.468M8.992 6.346H6.264a.46.46 0 0 1 0-.918h2.738a.46.46 0 0 1 .459.46.475.475 0 0 1-.469.458M14.305 6.346h-2.728a.46.46 0 0 1 0-.918h2.728a.46.46 0 0 1 0 .918M19.621 6.346h-2.728a.46.46 0 0 1 0-.918h2.728a.46.46 0 0 1 0 .918M53.736 6.346H27.889a.46.46 0 0 1 0-.918h25.847a.46.46 0 0 1 .46.46.45.45 0 0 1-.46.458"/><path d="M57.919 59.813H2.08A2.09 2.09 0 0 1 0 57.73V2.27C0 1.125.938.188 2.081.188H57.91A2.09 2.09 0 0 1 60 2.268v55.463a2.09 2.09 0 0 1-2.081 2.081M2.08 1.105C1.444 1.106.92 1.631.92 2.27V57.73c0 .638.525 1.163 1.162 1.163H57.91c.638 0 1.163-.525 1.163-1.163V2.27c0-.638-.525-1.163-1.163-1.163z"/></g><defs><clipPath id="a"><path fill="#fff" d="M0 0h60v60H0z"/></clipPath></defs></svg>