<svg xmlns="http://www.w3.org/2000/svg" width="60" height="60" fill="none"><path fill="#000" d="M29.816 36.455h-.035a.704.704 0 0 1-.034-1.404c7.76-.376 13.398-4.206 17.638-12.013l-1.01.335a.704.704 0 0 1-.444-1.335l2.65-.88a.705.705 0 0 1 .888.445l.88 2.65a.705.705 0 0 1-.667.926.7.7 0 0 1-.667-.482l-.353-1.061c-4.494 8.33-10.516 12.414-18.846 12.819M58.242 4.043v40.131c0 .742-.603 1.345-1.345 1.345h-1.515a8 8 0 0 1-.407.981l1.072 1.072a1.347 1.347 0 0 1 0 1.903l-1.529 1.53a1.347 1.347 0 0 1-1.903 0l-1.072-1.073a8 8 0 0 1-.981.407v1.515c0 .742-.604 1.346-1.345 1.346h-2.163a1.347 1.347 0 0 1-1.345-1.346V50.34a8 8 0 0 1-.98-.407l-1.073 1.073a1.347 1.347 0 0 1-1.903 0l-1.53-1.528a1.347 1.347 0 0 1 0-1.904l1.073-1.072a8 8 0 0 1-.407-.98h-1.514a1.347 1.347 0 0 1-1.345-1.346v-.377h-4.156q.035.255.036.521v2.893l2.025-.049a3.28 3.28 0 0 1 2.418.95 3.28 3.28 0 0 1 1.01 2.396v2.855c0 1.684-.973 3.689-2.832 4.263a13.7 13.7 0 0 1-4.058.613c-2.215 0-4.255-.518-6.094-1.153a.705.705 0 0 1-.675.506H21.21a.704.704 0 0 1-.703-.703v-9.65c0-.388.315-.704.703-.704h4.494c.332 0 .61.23.683.54 1.093-.076 1.828-.338 2.188-.786.47-.584.325-1.562.13-2.491h-8.67l.256.957a2.1 2.1 0 0 1-.213 1.61 2.11 2.11 0 0 1-1.839 1.063 2.13 2.13 0 0 1-1.838-1.065c-1.408-.919-5.416-1.936-6.333-1.708l-.749.2 1.989 3.175c.508.812.33 1.83-.415 2.368a1.723 1.723 0 0 1-2.406-.39l-3.077-4.27a3.34 3.34 0 0 1-1.456-.4 3.1 3.1 0 0 1-1.54-1.93l-.552-2.057c-.454-1.696.617-3.46 2.386-3.935l.248-.067V4.043A2.29 2.29 0 0 1 6.78 1.758h49.176a2.29 2.29 0 0 1 2.285 2.285m-52.34 0v6.898h50.934V4.043a.88.88 0 0 0-.879-.879H6.781a.88.88 0 0 0-.88.879m-1.279 40.06c.442.238.96.296 1.46.162l2.952-.79-.71-2.653-.827-2.82-2.885.774c-1.021.273-1.646 1.266-1.392 2.213l.55 2.056c.121.45.423.825.852 1.057M7.9 45.233l-.939.252 2.667 3.699c.101.14.304.172.443.071.156-.112.14-.331.046-.48zm1.781-4.783.743 2.772c1.397.011 3.743.616 5.408 1.299L12.917 33.64c-1.115 1.43-2.88 3.158-4.095 3.88l.854 2.913q.003.008.005.017m9.252 4.666-3.666-13.68a.72.72 0 0 0-.878-.507.72.72 0 0 0-.435.336.71.71 0 0 0-.073.543l3.666 13.68c.049.184.168.337.335.434a.714.714 0 0 0 .978-.262.71.71 0 0 0 .073-.544m.885-5.844a2.34 2.34 0 0 0 .235-1.786 2.36 2.36 0 0 0-2.176-1.742l1.163 4.339c.318-.2.585-.476.778-.811M25 47.94h-3.088v8.244h3.088zm8.222.694a.7.7 0 0 1-.72-.702v-3.613a2.56 2.56 0 0 0-2.559-2.558 1 1 0 0 0-.138.01c-.054.234.092.905.192 1.359.279 1.271.626 2.853-.328 4.04-.63.783-1.703 1.215-3.264 1.312v7.122c2.906 1.05 6.09 1.797 9.71.679 1.151-.356 1.839-1.764 1.839-2.92v-2.855a1.85 1.85 0 0 0-.585-1.389 1.85 1.85 0 0 0-1.403-.552zm6.152-7.968h1.516a8 8 0 0 1 .406-.98l-1.072-1.073a1.34 1.34 0 0 1-.394-.951c0-.36.14-.697.394-.952l1.53-1.53a1.347 1.347 0 0 1 1.902 0l1.073 1.073q.476-.237.98-.407v-1.515c0-.742.604-1.345 1.346-1.345h2.162c.742 0 1.345.604 1.345 1.345v1.515c.335.113.665.249.981.407l1.072-1.072a1.347 1.347 0 0 1 1.903 0l1.53 1.53c.254.252.393.591.393.95 0 .36-.139.7-.393.952l-1.073 1.072q.239.477.407.981h1.453v-28.32H5.902v24.629l1.884-.505c.89-.255 3.876-3.147 4.676-4.642-.042-.437.05-.875.274-1.264a2.1 2.1 0 0 1 1.288-.99 2.11 2.11 0 0 1 1.611.213c.493.285.844.742.99 1.288l.877 3.271a3.766 3.766 0 0 1 3.908 2.777c.26.97.127 1.983-.376 2.853a3.74 3.74 0 0 1-1.62 1.506l.243.908h8.768c-.077-.594-.043-1.112.286-1.522.274-.342.69-.515 1.233-.515 1.486 0 2.783.823 3.462 2.037h4.622v-.378a1.35 1.35 0 0 1 1.347-1.346m17.461 1.407h-1.499a1.34 1.34 0 0 1-1.278-.926 6 6 0 0 0-.359-.865 1.34 1.34 0 0 1 .249-1.56l1.06-1.06-1.442-1.443-1.06 1.06a1.345 1.345 0 0 1-1.56.25 6 6 0 0 0-.866-.358 1.34 1.34 0 0 1-.925-1.279v-1.499h-2.04v1.5c0 .582-.372 1.096-.926 1.278a6 6 0 0 0-.865.358 1.345 1.345 0 0 1-1.56-.248l-1.06-1.06-1.443 1.442 1.06 1.06c.413.413.513 1.04.25 1.559q-.211.42-.358.865a1.34 1.34 0 0 1-1.279.926h-1.499v2.041h1.499c.582 0 1.097.372 1.279.926q.147.445.358.865c.264.52.164 1.147-.248 1.56l-1.06 1.06 1.442 1.443 1.06-1.061a1.34 1.34 0 0 1 1.56-.248c.278.14.57.26.865.358.553.182.926.696.926 1.279v1.499h2.04v-1.5c0-.582.371-1.095.926-1.278.295-.097.586-.218.864-.358a1.34 1.34 0 0 1 1.56.248l1.06 1.06 1.443-1.442-1.06-1.06a1.34 1.34 0 0 1-.249-1.56q.212-.421.359-.865a1.34 1.34 0 0 1 1.279-.926h1.497zM17.586 18.89a.705.705 0 0 1-.215.754l-1.616 1.368.504 2.055a.702.702 0 0 1-1.054.765l-1.8-1.114-1.8 1.114a.705.705 0 0 1-1.053-.765l.504-2.055-1.616-1.368a.704.704 0 0 1 .402-1.238l2.11-.156.8-1.96a.702.702 0 0 1 1.301 0l.8 1.96 2.112.155a.7.7 0 0 1 .62.485m-2.437.792-.83-.061a.7.7 0 0 1-.598-.435l-.315-.77-.314.77a.7.7 0 0 1-.598.435l-.83.06.635.537a.7.7 0 0 1 .229.705l-.199.807.707-.438a.7.7 0 0 1 .74 0l.707.438-.198-.807a.7.7 0 0 1 .229-.705zm12.505-.792a.705.705 0 0 1-.214.754l-1.616 1.368.504 2.055a.703.703 0 0 1-1.054.765l-1.8-1.114-1.8 1.114a.702.702 0 0 1-1.053-.765l.503-2.055-1.616-1.368a.704.704 0 0 1 .402-1.238l2.11-.156.801-1.96a.703.703 0 0 1 1.301 0l.8 1.96 2.111.155c.29.022.533.213.621.485m-2.436.792-.83-.061a.7.7 0 0 1-.599-.435l-.314-.77-.314.77a.7.7 0 0 1-.599.435l-.83.06.636.537a.7.7 0 0 1 .228.705l-.198.807.707-.438a.7.7 0 0 1 .74 0l.707.438-.198-.807a.7.7 0 0 1 .229-.705zm4.223-.792a.7.7 0 0 1 .617-.485l4.203-.31 1.594-3.901a.702.702 0 0 1 1.3 0l1.594 3.9 4.204.311a.702.702 0 0 1 .402 1.24l-3.218 2.721 1.003 4.094a.703.703 0 0 1-1.053.765l-3.583-2.22-3.582 2.22a.702.702 0 0 1-1.053-.765l1.002-4.094-3.218-2.722a.71.71 0 0 1-.212-.754m2.437.792 2.237 1.891a.7.7 0 0 1 .228.704l-.697 2.846 2.49-1.543a.7.7 0 0 1 .74 0l2.491 1.543-.697-2.846a.7.7 0 0 1 .228-.704l2.237-1.891-2.921-.216a.7.7 0 0 1-.599-.435l-1.108-2.711-1.11 2.711a.7.7 0 0 1-.598.435zM52.69 43.093a4.56 4.56 0 0 1-4.554 4.554 4.56 4.56 0 0 1-4.554-4.554 4.56 4.56 0 0 1 4.554-4.554 4.56 4.56 0 0 1 4.554 4.554m-1.406 0a3.15 3.15 0 0 0-3.148-3.147 3.15 3.15 0 0 0-3.148 3.147 3.15 3.15 0 0 0 3.148 3.148 3.15 3.15 0 0 0 3.148-3.148m-26.597-7.291-1.804.483a.703.703 0 1 0 .365 1.358l1.803-.483a.703.703 0 0 0-.364-1.358m.364 3.23-1.803-.483a.704.704 0 0 0-.365 1.358l1.804.483q.09.024.183.024a.704.704 0 0 0 .181-1.382m-1.3-4.85a.704.704 0 0 0-.994-.995l-1.32 1.321a.704.704 0 0 0 .496 1.201.7.7 0 0 0 .497-.206zm11.036-27.01c0-1.221.994-2.215 2.215-2.215h15.3c1.221 0 2.215.994 2.215 2.215a2.22 2.22 0 0 1-2.215 2.215h-15.3a2.216 2.216 0 0 1-2.215-2.215m1.407 0a.81.81 0 0 0 .808.808h15.3a.81.81 0 0 0 0-1.617h-15.3a.81.81 0 0 0-.808.809m-26.455 0c0-1.147.932-2.08 2.08-2.08 1.147 0 2.08.933 2.08 2.08s-.933 2.08-2.08 2.08a2.08 2.08 0 0 1-2.08-2.08m1.406 0a.675.675 0 1 0 1.35-.002.675.675 0 0 0-1.35.002m4.011 0c0-1.147.933-2.08 2.08-2.08s2.08.933 2.08 2.08-.933 2.08-2.08 2.08a2.08 2.08 0 0 1-2.08-2.08m1.406 0a.675.675 0 1 0 1.35-.002.675.675 0 0 0-1.35.002m4.012 0c0-1.147.932-2.08 2.08-2.08 1.147 0 2.08.933 2.08 2.08s-.933 2.08-2.08 2.08a2.08 2.08 0 0 1-2.08-2.08m1.406 0a.675.675 0 1 0 1.35-.002.675.675 0 0 0-1.35.002"/></svg>