<svg xmlns="http://www.w3.org/2000/svg" width="60" height="60" fill="none"><g fill="#000" clip-path="url(#a)"><path d="M6.909 21.978a.876.876 0 0 0 1.242 0 .88.88 0 0 0 0-1.242l-2.133-2.133 2.133-2.131a.878.878 0 0 0-1.242-1.242l-2.753 2.753a.88.88 0 0 0 0 1.242zM15.624 18.604l-2.133 2.132a.878.878 0 1 0 1.242 1.242l2.754-2.753a.88.88 0 0 0 0-1.242l-2.754-2.753a.878.878 0 1 0-1.241 1.242zM9.514 22.175a.88.88 0 0 0 1.139-.497l2.163-5.506a.878.878 0 1 0-1.635-.642l-2.163 5.506a.88.88 0 0 0 .496 1.139M5.273 27.387h5.915a.878.878 0 0 0 0-1.756H5.273a.878.878 0 1 0 0 1.756M24.814 25.63h-10.4a.878.878 0 0 0 0 1.757h10.4a.878.878 0 1 0 0-1.756M5.273 31.09h2.52a.878.878 0 0 0 0-1.756h-2.52a.878.878 0 1 0 0 1.756M21.6 29.334a.878.878 0 1 0 0 1.756h1.535a.878.878 0 1 0 0-1.756zM19.29 30.212a.88.88 0 0 0-.878-.878h-7.538a.878.878 0 1 0 0 1.756h7.538a.88.88 0 0 0 .878-.878M25.043 30.212c0 .485.393.878.878.878h2.874a.878.878 0 1 0 0-1.756h-2.874a.88.88 0 0 0-.878.878M20.261 19.31h3.032a.878.878 0 1 0 0-1.757h-3.032a.878.878 0 1 0 0 1.756M26.687 19.31h18.499a.878.878 0 1 0 0-1.757H26.687a.878.878 0 1 0 0 1.756M42.38 21.416h-7.494a.878.878 0 0 0 0 1.756h7.493a.878.878 0 0 0 0-1.756M32.075 21.416h-2.576a.878.878 0 1 0 0 1.756h2.576a.878.878 0 1 0 0-1.756M20.261 23.173h6.31a.878.878 0 0 0 0-1.757h-6.31a.878.878 0 1 0 0 1.756M18.423 33.008h-5.916a.878.878 0 1 0 0 1.756h5.916a.878.878 0 0 0 0-1.756M9.817 33.008H5.273a.878.878 0 1 0 0 1.756h4.544a.878.878 0 1 0 0-1.756M29.149 33.008H21.42a.878.878 0 1 0 0 1.756h7.727a.878.878 0 0 0 0-1.756M39.596 28.496H35.37a.878.878 0 0 0 0 1.757h4.226a.878.878 0 1 0 0-1.757M46.929 30.253h5.965a.878.878 0 1 0 0-1.757h-5.965a.878.878 0 1 0 0 1.757M43.949 28.496h-1.367a.878.878 0 1 0 0 1.757h1.367a.878.878 0 1 0 0-1.757M35.37 39.822h4.226a.878.878 0 1 0 0-1.756H35.37a.878.878 0 0 0 0 1.756M46.929 39.822h5.965a.878.878 0 1 0 0-1.756h-5.965a.878.878 0 1 0 0 1.756M42.581 39.822h1.367a.878.878 0 1 0 0-1.756h-1.367a.878.878 0 1 0 0 1.756M39.596 47.635H35.37a.878.878 0 0 0 0 1.756h4.226a.878.878 0 1 0 0-1.756M52.894 47.635h-5.965a.878.878 0 1 0 0 1.756h5.965a.878.878 0 1 0 0-1.756M43.949 47.635h-1.367a.878.878 0 1 0 0 1.756h1.367a.878.878 0 1 0 0-1.756"/><path d="M56.136.117H3.865A3.87 3.87 0 0 0 0 3.982v42.489a3.87 3.87 0 0 0 3.865 3.864H7.17a.878.878 0 1 0 0-1.756H3.865a2.11 2.11 0 0 1-2.109-2.108v-3.332h31.992v1.514h-.696c-.953 0-1.727.774-1.727 1.727v2.199H12.508a.878.878 0 0 0 0 1.756h8.444v3.15H18.3a3.21 3.21 0 0 0-3.208 3.207v1.897c0 .807.657 1.463 1.464 1.463h26.821c.807 0 1.464-.656 1.464-1.463v-1.897a3.21 3.21 0 0 0-3.208-3.208h-2.651v-1.11h16.234c.952 0 1.726-.774 1.726-1.727v-.413a3.87 3.87 0 0 0 2.991-3.764L60 3.983A3.87 3.87 0 0 0 56.136.117M33.08 41.05v-4.21h22.105v4.21zm2.423-5.966v-1.847h17.259v1.847zm17.259 7.722v1.848H35.504v-1.848zm-30.055 7.53h8.617v.313c0 .952.774 1.726 1.727 1.726h4.174v1.11H22.708zm18.926 4.906c.8 0 1.45.65 1.45 1.451v1.604H16.85v-1.604c0-.8.65-1.451 1.451-1.451zm13.552-4.623H33.081v-4.209h22.105zm2.991-4.148c0 .851-.507 1.584-1.234 1.917v-2.008c0-.952-.775-1.726-1.727-1.726h-.697v-1.514h3.658zm0-5.087h-1.263c.018-.099.029-4.573.029-4.573a1.73 1.73 0 0 0-1.727-1.727h-.697v-1.847h.697a1.73 1.73 0 0 0 1.727-1.727V27.24a1.73 1.73 0 0 0-1.727-1.727h-4.96a.878.878 0 1 0 0 1.756h4.93v4.21H33.081v-4.21h11.71a.878.878 0 1 0 0-1.756H33.053c-.953 0-1.727.775-1.727 1.727v4.268c0 .952.774 1.727 1.727 1.727h.696v1.847h-.696c-.953 0-1.727.775-1.727 1.727 0 0 .01 4.474.029 4.573H1.756v-29.32h56.421zm0-31.077H1.821V3.982a2.11 2.11 0 0 1 2.108-2.108h52.14a2.11 2.11 0 0 1 2.108 2.108z"/><path d="M6.475 3.488a2.58 2.58 0 0 0-2.577 2.577 2.58 2.58 0 0 0 2.577 2.577 2.58 2.58 0 0 0 2.577-2.577 2.58 2.58 0 0 0-2.577-2.577m0 3.398a.822.822 0 0 1 0-1.642.822.822 0 0 1 0 1.642M13.038 3.488a2.58 2.58 0 0 0-2.577 2.577 2.58 2.58 0 0 0 2.577 2.577 2.58 2.58 0 0 0 2.577-2.577 2.58 2.58 0 0 0-2.577-2.577m0 3.398a.821.821 0 1 1 .002-1.643.821.821 0 0 1-.002 1.643M19.596 3.488a2.58 2.58 0 0 0-2.576 2.577 2.58 2.58 0 0 0 2.576 2.577 2.58 2.58 0 0 0 2.578-2.577 2.58 2.58 0 0 0-2.578-2.577m0 3.398a.822.822 0 0 1 0-1.642.822.822 0 0 1 0 1.642"/></g><defs><clipPath id="a"><path fill="#fff" d="M0 0h60v60H0z"/></clipPath></defs></svg>