<svg xmlns="http://www.w3.org/2000/svg" width="60" height="60" fill="none"><path fill="#000" d="M26.207 13.722a.82.82 0 0 1 .82-.82H41.05a.82.82 0 0 1 0 1.64H27.028a.82.82 0 0 1-.82-.82m14.75 23.233h-13.93a.82.82 0 1 0 0 1.641h13.93a.82.82 0 0 0 0-1.64M23.211 13.13l-2.955 2.956-.703-1.217a.82.82 0 1 0-1.42.82l1.237 2.143a.82.82 0 0 0 1.29.17l3.712-3.712a.82.82 0 0 0-1.16-1.16m0 10.183-2.955 2.956-.703-1.217a.82.82 0 1 0-1.42.82l1.237 2.143a.82.82 0 0 0 1.29.17l3.712-3.712a.82.82 0 0 0-1.16-1.16m0 10.183-2.955 2.956-.703-1.217a.82.82 0 1 0-1.42.82l1.237 2.143a.82.82 0 0 0 1.29.17l3.712-3.712a.82.82 0 0 0-1.16-1.16m23.843 4.362v4.003h.013a4.92 4.92 0 0 1 4.914 4.914c0 1.541-.714 2.919-1.828 3.82a9.4 9.4 0 0 1 3.283 1.962 9.4 9.4 0 0 1 3.009 6.08.82.82 0 0 1-.818.895H4.267a.82.82 0 0 1-.817-.894 9.4 9.4 0 0 1 3.008-6.081 9.4 9.4 0 0 1 3.283-1.962 4.9 4.9 0 0 1-1.828-3.82 4.92 4.92 0 0 1 4.914-4.914h.013V9.05a3.285 3.285 0 0 1 3.281-3.282h5.215v-.081c0-.697.294-1.328.828-1.776a2.28 2.28 0 0 1 1.891-.51l2.082.365a3.856 3.856 0 0 1 3.81-3.297 3.856 3.856 0 0 1 3.811 3.297l2.082-.364c.686-.12 1.358.06 1.892.51.533.447.827 1.078.827 1.775v.081h5.215a3.285 3.285 0 0 1 3.282 3.282v5.102l1.053.658c1.463.913 3.41 1.684 5.786 2.29l2.044.522a.82.82 0 0 1 .618.795v8.764a7.9 7.9 0 0 1-1.114 4.083c-1.464 2.465-4.165 4.071-6.548 5.488q-.424.25-.83.496zm.184-21.657-1.004-.627-1.004.627c-1.607 1.003-3.709 1.84-6.25 2.489l-1.427.364v8.127c0 1.166.298 2.257.884 3.245 1.251 2.106 3.762 3.599 5.976 4.916q.428.254.84.502l.981.593.981-.593q.412-.249.84-.502c2.215-1.317 4.725-2.81 5.976-4.916a6.27 6.27 0 0 0 .884-3.245v-8.127l-1.427-.364c-2.54-.648-4.643-1.486-6.25-2.489M22.977 8.127h13.941v-2.44a.64.64 0 0 0-.242-.52.64.64 0 0 0-.554-.149l-3.003.525a.822.822 0 0 1-.962-.808v-.416c0-1.218-.991-2.21-2.21-2.21s-2.209.992-2.209 2.21v.416a.82.82 0 0 1-.961.808l-3.004-.525a.64.64 0 0 0-.554.149.64.64 0 0 0-.242.52zM9.552 46.775a3.277 3.277 0 0 0 3.274 3.273 3.277 3.277 0 0 0 3.274-3.273 3.277 3.277 0 0 0-3.274-3.274 3.277 3.277 0 0 0-3.274 3.274m8.188 0c0 1.541-.714 2.919-1.828 3.82a9.422 9.422 0 0 1 5.475 4.975 9.42 9.42 0 0 1 5.474-4.975 4.9 4.9 0 0 1-1.802-4.332h-7.346q.027.252.027.512m17.12 0c0 1.541-.713 2.919-1.828 3.82a9.423 9.423 0 0 1 5.474 4.975 9.42 9.42 0 0 1 5.475-4.975 4.9 4.9 0 0 1-1.801-4.332h-7.346q.027.252.027.512m-1.64 0a3.277 3.277 0 0 0-3.273-3.274 3.277 3.277 0 0 0-3.274 3.274 3.277 3.277 0 0 0 3.274 3.273 3.277 3.277 0 0 0 3.273-3.273M20.438 57.89a7.73 7.73 0 0 0-7.612-6.175 7.73 7.73 0 0 0-7.611 6.175zm17.12 0a7.73 7.73 0 0 0-7.611-6.175 7.73 7.73 0 0 0-7.612 6.175zm9.51-6.175a7.73 7.73 0 0 0-7.612 6.175h15.223a7.73 7.73 0 0 0-7.612-6.175m0-8.215a3.277 3.277 0 0 0-3.274 3.274 3.277 3.277 0 0 0 3.273 3.273 3.277 3.277 0 0 0 3.274-3.273 3.277 3.277 0 0 0-3.274-3.274m-1.654-1.354v-4.289l-1.01-.61q-.406-.246-.829-.496c-.958-.57-1.967-1.17-2.927-1.844h-13.62a.82.82 0 1 1 0-1.64h11.608a9.8 9.8 0 0 1-1.61-2.004 7.85 7.85 0 0 1-1.02-2.85h-8.978a.82.82 0 0 1 0-1.641h8.885v-2.048h-8.885a.82.82 0 0 1 0-1.64h8.885v-4.668q.001-.096.024-.187h-8.91a.82.82 0 0 1 0-1.64h13.326c1.585-.51 2.928-1.106 4.008-1.78l1.053-.658V9.05c0-.905-.736-1.641-1.641-1.641h-5.215v1.538a.82.82 0 0 1-.82.82H22.156a.82.82 0 0 1-.82-.82V7.41H16.12c-.905 0-1.64.736-1.64 1.64v33.098a4.94 4.94 0 0 1 2.763 2.475h8.287a4.92 4.92 0 0 1 4.417-2.761 4.92 4.92 0 0 1 4.416 2.761h8.288a4.94 4.94 0 0 1 2.763-2.474m1.255-25.033c2.118 1.323 4.732 2.154 6.553 2.618a.82.82 0 0 1 .617.795v6.654c0 .983-.24 1.865-.733 2.695-1.118 1.883-3.519 3.307-5.638 4.564q-.417.246-.81.483a.82.82 0 0 1-.848 0q-.392-.237-.81-.483c-2.118-1.257-4.52-2.681-5.637-4.564a5.14 5.14 0 0 1-.733-2.695v-6.654a.82.82 0 0 1 .617-.795c1.82-.464 4.435-1.295 6.553-2.618a.82.82 0 0 1 .869 0m-.435 1.653c-1.966 1.143-4.215 1.91-5.964 2.391v6.023c0 .69.16 1.28.503 1.858.904 1.522 3.115 2.833 5.065 3.99l.396.235.397-.235c1.95-1.157 4.16-2.468 5.065-3.99a3.5 3.5 0 0 0 .503-1.858v-6.022c-1.75-.482-3.999-1.25-5.965-2.392m-2.446 6.472a.82.82 0 1 0-1.42.82l1.577 2.734a.82.82 0 0 0 1.29.17l4.736-4.735a.82.82 0 0 0-1.16-1.16l-3.98 3.98z"/></svg>