<svg xmlns="http://www.w3.org/2000/svg" width="60" height="60" fill="none"><path fill="#000" d="M12.186 1.873a2.824 2.824 0 0 0-2.811 2.81v30c0 1.252 1.877 1.252 1.877 0V11.253h37.494v23.432c-.028 1.278 1.904 1.278 1.875 0v-30a2.823 2.823 0 0 0-2.809-2.811zm0 1.877h35.627a.91.91 0 0 1 .933.934v4.69H11.252v-4.69a.91.91 0 0 1 .934-.934m1.877 1.873a.938.938 0 1 0 0 1.875.938.938 0 0 0 0-1.875m3.75 0a.938.938 0 1 0 0 1.875.938.938 0 0 0 0-1.875m3.75 0a.938.938 0 1 0 0 1.875.938.938 0 0 0 0-1.875m13.077.002c-1.266.086-1.18 1.906.044 1.875h11.254c1.222-.028 1.222-1.848 0-1.875zM4.69 7.5c-1.542 0-2.816 1.267-2.816 2.809V44.06a2.83 2.83 0 0 0 2.816 2.81h50.623a2.824 2.824 0 0 0 2.811-2.81V10.308a2.823 2.823 0 0 0-2.81-2.81h-1.876c-1.278-.027-1.278 1.904 0 1.876h1.875a.91.91 0 0 1 .934.934v27.19H3.75V10.31c0-.536.406-.934.941-.934H6.56c1.278.028 1.278-1.903 0-1.875zm28.133 7.483a.94.94 0 0 0-.901.658l-5.627 16.873c-.397 1.186 1.383 1.782 1.78.595l5.626-16.879a.938.938 0 0 0-.878-1.247m4.075 5.42 4.761 3.972-4.76 3.966c-1.018.796.238 2.3 1.202 1.44l5.62-4.686a.937.937 0 0 0 0-1.44l-5.62-4.693a.96.96 0 0 0-.65-.223c-.886.078-1.207 1.135-.553 1.664m-14.423-1.662a.94.94 0 0 0-.575.221l-5.625 4.693a.938.938 0 0 0 0 1.44l5.625 4.685c.968.901 2.26-.652 1.198-1.44l-4.761-3.965 4.76-3.972c.694-.567.273-1.69-.622-1.662M3.75 39.377h52.498v4.683a.91.91 0 0 1-.934.934H4.691a.916.916 0 0 1-.941-.934zm28.176 1.873-3.847.002c-1.195.143-1.114 1.835.044 1.867h3.752c1.288.114 1.395-1.843.051-1.87m-7.185 7.423a.94.94 0 0 0-.875.553c-.451.968-1.26 2.099-2.657 3.27h-1.521c-1.542 0-2.81 1.276-2.81 2.818v1.868a.937.937 0 0 0 .934.941h24.374c.52.002.943-.42.94-.941v-1.868a2.835 2.835 0 0 0-2.815-2.818h-1.52c-1.397-1.17-2.206-2.302-2.657-3.27a.938.938 0 1 0-1.7.793c.366.784.924 1.625 1.676 2.477H23.89c.752-.852 1.31-1.693 1.675-2.477a.938.938 0 0 0-.824-1.346m-5.053 5.7H40.31c.535 0 .94.406.94.941v.934H18.755v-.934c0-.535.398-.94.933-.94"/></svg>